<?xml version="1.0" encoding="UTF-8" standalone="no"?>
<!-- Created with Jerboa -->

<svg
	width="1317"
	height="622" >
	<style id="style">
		.arc0 {
			fill:none;
			fill-rule:evenodd;
			stroke:black;
			stroke-width:4;
			stroke-linecap:round;
			stroke-linejoin:round;
			stroke-opacity:1;
		}
		.arc1 {
			fill:none;
			fill-rule:evenodd;
			stroke:red;
			stroke-width:4;
			stroke-linecap:round;
			stroke-linejoin:round;
			stroke-opacity:1;
		}
		.arc2 {
			fill:none;
			fill-rule:evenodd;
			stroke:blue;
			stroke-width:4;
			stroke-linecap:round;
			stroke-linejoin:round;
			stroke-opacity:1;
		}
		.arc3 {
			fill:none;
			fill-rule:evenodd;
			stroke:green;
			stroke-width:4;
			stroke-linecap:round;
			stroke-linejoin:round;
			stroke-opacity:1;
		}
		.topological-dart {
			fill:#000000;
			stroke:#000000;
			stroke-width:0;
			stroke-linecap:round;
			stroke-linejoin:round;
			stroke-dasharray:none;
			paint-order:markers fill stroke;
		}
	</style>
<polygon
	points="609.71924,430.00534 609.71924,137.93399 662.7491,77.94525 908.6364,91.862366 961.66626,157.85406 961.66626,449.9254 908.6364,509.91418 662.7491,495.99707 "
	id="face_20_21_16_15_14_13_18_19"
	style="fill:rgb(192,192,192);stroke:none"
	opacity="1.0" />
<line
	class="arc1"
	id="link19_@1_18"
	x1="609.71924"
	y1="430.00534"
	x2="662.7491"
	y2="495.99707" />
<line
	class="arc2"
	id="link19_@2_24"
	x1="609.71924"
	y1="430.00534"
	x2="576.9188"
	y2="430.61298" />
<line
	class="arc0"
	id="link19_@0_20"
	x1="609.71924"
	y1="430.00534"
	x2="609.71924"
	y2="137.93399" />
<polygon
	points="576.9188,430.61298 576.9188,138.54169 542.48083,80.17328 382.79977,101.60376 341.73303,176.71445 341.73303,453.03824 382.79977,519.6556 542.48083,498.2251 "
	id="face_25_26_31_30_29_28_23_24"
	style="fill:rgb(192,192,192);stroke:none"
	opacity="1.0" />
<line
	class="arc1"
	id="link24_@1_23"
	x1="576.9188"
	y1="430.61298"
	x2="542.48083"
	y2="498.2251" />
<line
	class="arc0"
	id="link24_@0_25"
	x1="576.9188"
	y1="430.61298"
	x2="576.9188"
	y2="138.54169" />
<line
	class="arc1"
	id="link20_@1_21"
	x1="609.71924"
	y1="137.93399"
	x2="662.7491"
	y2="77.94525" />
<line
	class="arc2"
	id="link20_@2_25"
	x1="609.71924"
	y1="137.93399"
	x2="576.9188"
	y2="138.54169" />
<line
	class="arc2"
	id="link18_@2_0"
	x1="662.7491"
	y1="495.99707"
	x2="649.83484"
	y2="521.3516" />
<line
	class="arc0"
	id="link18_@0_13"
	x1="662.7491"
	y1="495.99707"
	x2="908.6364"
	y2="509.91418" />
<line
	class="arc1"
	id="link25_@1_26"
	x1="576.9188"
	y1="138.54169"
	x2="542.48083"
	y2="80.17328" />
<polygon
	points="649.83484,521.3516 895.72217,535.26874 914.314,542.892 754.633,564.3225 660.53644,573.4415 427.90656,560.2748 402.68594,544.40247 562.367,522.972 "
	id="face_7_6_5_4_3_2_1_0"
	style="fill:rgb(192,192,192);stroke:none"
	opacity="1.0" />
<line
	class="arc1"
	id="link0_@1_1"
	x1="649.83484"
	y1="521.3516"
	x2="562.367"
	y2="522.972" />
<line
	class="arc0"
	id="link0_@0_7"
	x1="649.83484"
	y1="521.3516"
	x2="895.72217"
	y2="535.26874" />
<line
	class="arc2"
	id="link23_@2_1"
	x1="542.48083"
	y1="498.2251"
	x2="562.367"
	y2="522.972" />
<line
	class="arc0"
	id="link23_@0_28"
	x1="542.48083"
	y1="498.2251"
	x2="382.79977"
	y2="519.6556" />
<line
	class="arc0"
	id="link1_@0_2"
	x1="562.367"
	y1="522.972"
	x2="402.68594"
	y2="544.40247" />
<line
	class="arc2"
	id="link21_@2_22"
	x1="662.7491"
	y1="77.94525"
	x2="649.83484"
	y2="56.05713" />
<line
	class="arc0"
	id="link21_@0_16"
	x1="662.7491"
	y1="77.94525"
	x2="908.6364"
	y2="91.862366" />
<polygon
	points="649.83484,56.05713 895.72217,69.97424 914.314,77.597534 754.633,99.028015 660.53644,92.399475 427.90656,79.23273 402.68594,79.10797 562.367,57.67749 "
	id="face_17_12_47_42_37_32_27_22"
	style="fill:rgb(192,192,192);stroke:none"
	opacity="1.0" />
<line
	class="arc1"
	id="link22_@1_27"
	x1="649.83484"
	y1="56.05713"
	x2="562.367"
	y2="57.67749" />
<line
	class="arc0"
	id="link22_@0_17"
	x1="649.83484"
	y1="56.05713"
	x2="895.72217"
	y2="69.97424" />
<line
	class="arc2"
	id="link26_@2_27"
	x1="542.48083"
	y1="80.17328"
	x2="562.367"
	y2="57.67749" />
<line
	class="arc0"
	id="link26_@0_31"
	x1="542.48083"
	y1="80.17328"
	x2="382.79977"
	y2="101.60376" />
<line
	class="arc0"
	id="link27_@0_32"
	x1="562.367"
	y1="57.67749"
	x2="402.68594"
	y2="79.10797" />
<line
	class="arc1"
	id="link13_@1_14"
	x1="908.6364"
	y1="509.91418"
	x2="961.66626"
	y2="449.9254" />
<line
	class="arc2"
	id="link13_@2_7"
	x1="908.6364"
	y1="509.91418"
	x2="895.72217"
	y2="535.26874" />
<line
	class="arc1"
	id="link7_@1_6"
	x1="895.72217"
	y1="535.26874"
	x2="914.314"
	y2="542.892" />
<line
	class="arc1"
	id="link16_@1_15"
	x1="908.6364"
	y1="91.862366"
	x2="961.66626"
	y2="157.85406" />
<line
	class="arc2"
	id="link16_@2_17"
	x1="908.6364"
	y1="91.862366"
	x2="895.72217"
	y2="69.97424" />
<line
	class="arc2"
	id="link14_@2_9"
	x1="961.66626"
	y1="449.9254"
	x2="968.6382"
	y2="452.78415" />
<line
	class="arc0"
	id="link14_@0_15"
	x1="961.66626"
	y1="449.9254"
	x2="961.66626"
	y2="157.85406" />
<line
	class="arc1"
	id="link17_@1_12"
	x1="895.72217"
	y1="69.97424"
	x2="914.314"
	y2="77.597534" />
<line
	class="arc2"
	id="link15_@2_10"
	x1="961.66626"
	y1="157.85406"
	x2="968.6382"
	y2="160.71283" />
<polygon
	points="968.6382,452.78415 968.6382,160.71283 934.2002,102.34442 774.51917,123.77493 746.7099,199.63599 746.7099,475.95978 774.51917,541.8267 934.2002,520.39624 "
	id="face_10_11_46_45_44_43_8_9"
	style="fill:rgb(192,192,192);stroke:none"
	opacity="1.0" />
<line
	class="arc1"
	id="link9_@1_8"
	x1="968.6382"
	y1="452.78415"
	x2="934.2002"
	y2="520.39624" />
<line
	class="arc0"
	id="link9_@0_10"
	x1="968.6382"
	y1="452.78415"
	x2="968.6382"
	y2="160.71283" />
<line
	class="arc1"
	id="link10_@1_11"
	x1="968.6382"
	y1="160.71283"
	x2="934.2002"
	y2="102.34442" />
<line
	class="arc2"
	id="link6_@2_8"
	x1="914.314"
	y1="542.892"
	x2="934.2002"
	y2="520.39624" />
<line
	class="arc0"
	id="link6_@0_5"
	x1="914.314"
	y1="542.892"
	x2="754.633"
	y2="564.3225" />
<line
	class="arc1"
	id="link28_@1_29"
	x1="382.79977"
	y1="519.6556"
	x2="341.73303"
	y2="453.03824" />
<line
	class="arc2"
	id="link28_@2_2"
	x1="382.79977"
	y1="519.6556"
	x2="402.68594"
	y2="544.40247" />
<line
	class="arc0"
	id="link8_@0_43"
	x1="934.2002"
	y1="520.39624"
	x2="774.51917"
	y2="541.8267" />
<line
	class="arc1"
	id="link2_@1_3"
	x1="402.68594"
	y1="544.40247"
	x2="427.90656"
	y2="560.2748" />
<line
	class="arc2"
	id="link12_@2_11"
	x1="914.314"
	y1="77.597534"
	x2="934.2002"
	y2="102.34442" />
<line
	class="arc0"
	id="link12_@0_47"
	x1="914.314"
	y1="77.597534"
	x2="754.633"
	y2="99.028015" />
<line
	class="arc1"
	id="link31_@1_30"
	x1="382.79977"
	y1="101.60376"
	x2="341.73303"
	y2="176.71445" />
<line
	class="arc2"
	id="link31_@2_32"
	x1="382.79977"
	y1="101.60376"
	x2="402.68594"
	y2="79.10797" />
<line
	class="arc0"
	id="link11_@0_46"
	x1="934.2002"
	y1="102.34442"
	x2="774.51917"
	y2="123.77493" />
<line
	class="arc1"
	id="link32_@1_37"
	x1="402.68594"
	y1="79.10797"
	x2="427.90656"
	y2="79.23273" />
<line
	class="arc2"
	id="link29_@2_34"
	x1="341.73303"
	y1="453.03824"
	x2="337.65714"
	y2="447.3979" />
<line
	class="arc0"
	id="link29_@0_30"
	x1="341.73303"
	y1="453.03824"
	x2="341.73303"
	y2="176.71445" />
<line
	class="arc2"
	id="link30_@2_35"
	x1="341.73303"
	y1="176.71445"
	x2="337.65714"
	y2="186.82162" />
<polygon
	points="337.65714,447.3979 337.65714,186.82162 368.82007,158.73312 471.87753,286.98044 471.87753,365.71823 368.82007,482.29956 "
	id="face_35_52_53_51_50_34"
	style="fill:rgb(0,0,255);stroke:none"
	opacity="1.0" />
<line
	class="arc1"
	id="link34_@1_50"
	x1="337.65714"
	y1="447.3979"
	x2="368.82007"
	y2="482.29956" />
<line
	class="arc0"
	id="link34_@0_35"
	x1="337.65714"
	y1="447.3979"
	x2="337.65714"
	y2="186.82162" />
<line
	class="arc2"
	id="link3_@2_33"
	x1="427.90656"
	y1="560.2748"
	x2="421.6211"
	y2="551.88477" />
<line
	class="arc0"
	id="link3_@0_4"
	x1="427.90656"
	y1="560.2748"
	x2="660.53644"
	y2="573.4415" />
<line
	class="arc1"
	id="link35_@1_52"
	x1="337.65714"
	y1="186.82162"
	x2="368.82007"
	y2="158.73312" />
<line
	class="arc2"
	id="link50_@2_48"
	x1="368.82007"
	y1="482.29956"
	x2="386.49664"
	y2="504.2968" />
<line
	class="arc0"
	id="link50_@0_51"
	x1="368.82007"
	y1="482.29956"
	x2="471.87753"
	y2="365.71823" />
<polygon
	points="421.6211,551.88477 640.99347,564.30115 658.8989,519.71466 555.84143,391.46732 489.55417,387.71548 386.49664,504.2968 "
	id="face_38_62_63_49_48_33"
	style="fill:rgb(192,192,192);stroke:none"
	opacity="1.0" />
<line
	class="arc1"
	id="link33_@1_48"
	x1="421.6211"
	y1="551.88477"
	x2="386.49664"
	y2="504.2968" />
<line
	class="arc0"
	id="link33_@0_38"
	x1="421.6211"
	y1="551.88477"
	x2="640.99347"
	y2="564.30115" />
<line
	class="arc0"
	id="link48_@0_49"
	x1="386.49664"
	y1="504.2968"
	x2="489.55417"
	y2="387.71548" />
<line
	class="arc2"
	id="link37_@2_36"
	x1="427.90656"
	y1="79.23273"
	x2="421.6211"
	y2="91.83948" />
<line
	class="arc0"
	id="link37_@0_42"
	x1="427.90656"
	y1="79.23273"
	x2="660.53644"
	y2="92.399475" />
<line
	class="arc2"
	id="link52_@2_54"
	x1="368.82007"
	y1="158.73312"
	x2="386.49664"
	y2="138.73688" />
<line
	class="arc0"
	id="link52_@0_53"
	x1="368.82007"
	y1="158.73312"
	x2="471.87753"
	y2="286.98044" />
<polygon
	points="386.49664,138.73688 489.55417,266.98416 555.84143,270.73602 658.8989,154.15472 640.99347,104.25592 421.6211,91.83948 "
	id="face_55_57_56_41_36_54"
	style="fill:rgb(192,192,192);stroke:none"
	opacity="1.0" />
<line
	class="arc1"
	id="link54_@1_36"
	x1="386.49664"
	y1="138.73688"
	x2="421.6211"
	y2="91.83948" />
<line
	class="arc0"
	id="link54_@0_55"
	x1="386.49664"
	y1="138.73688"
	x2="489.55417"
	y2="266.98416" />
<line
	class="arc0"
	id="link36_@0_41"
	x1="421.6211"
	y1="91.83948"
	x2="640.99347"
	y2="104.25592" />
<line
	class="arc1"
	id="link51_@1_53"
	x1="471.87753"
	y1="365.71823"
	x2="471.87753"
	y2="286.98044" />
<line
	class="arc2"
	id="link51_@2_49"
	x1="471.87753"
	y1="365.71823"
	x2="489.55417"
	y2="387.71548" />
<line
	class="arc2"
	id="link53_@2_55"
	x1="471.87753"
	y1="286.98044"
	x2="489.55417"
	y2="266.98416" />
<line
	class="arc1"
	id="link49_@1_63"
	x1="489.55417"
	y1="387.71548"
	x2="555.84143"
	y2="391.46732" />
<line
	class="arc1"
	id="link55_@1_57"
	x1="489.55417"
	y1="266.98416"
	x2="555.84143"
	y2="270.73602" />
<line
	class="arc1"
	id="link5_@1_4"
	x1="754.633"
	y1="564.3225"
	x2="660.53644"
	y2="573.4415" />
<line
	class="arc2"
	id="link5_@2_43"
	x1="754.633"
	y1="564.3225"
	x2="774.51917"
	y2="541.8267" />
<line
	class="arc2"
	id="link63_@2_61"
	x1="555.84143"
	y1="391.46732"
	x2="573.51807"
	y2="371.471" />
<line
	class="arc0"
	id="link63_@0_62"
	x1="555.84143"
	y1="391.46732"
	x2="658.8989"
	y2="519.71466" />
<line
	class="arc2"
	id="link4_@2_38"
	x1="660.53644"
	y1="573.4415"
	x2="640.99347"
	y2="564.30115" />
<line
	class="arc1"
	id="link43_@1_44"
	x1="774.51917"
	y1="541.8267"
	x2="746.7099"
	y2="475.95978" />
<line
	class="arc2"
	id="link57_@2_59"
	x1="555.84143"
	y1="270.73602"
	x2="573.51807"
	y2="292.73328" />
<line
	class="arc0"
	id="link57_@0_56"
	x1="555.84143"
	y1="270.73602"
	x2="658.8989"
	y2="154.15472" />
<polygon
	points="573.51807,371.471 676.5755,499.71838 724.95734,469.3189 724.95734,208.74265 676.5755,176.15195 573.51807,292.73328 "
	id="face_60_39_40_58_59_61"
	style="fill:rgb(192,192,192);stroke:none"
	opacity="1.0" />
<line
	class="arc1"
	id="link61_@1_59"
	x1="573.51807"
	y1="371.471"
	x2="573.51807"
	y2="292.73328" />
<line
	class="arc0"
	id="link61_@0_60"
	x1="573.51807"
	y1="371.471"
	x2="676.5755"
	y2="499.71838" />
<line
	class="arc0"
	id="link59_@0_58"
	x1="573.51807"
	y1="292.73328"
	x2="676.5755"
	y2="176.15195" />
<line
	class="arc1"
	id="link38_@1_62"
	x1="640.99347"
	y1="564.30115"
	x2="658.8989"
	y2="519.71466" />
<line
	class="arc1"
	id="link47_@1_42"
	x1="754.633"
	y1="99.028015"
	x2="660.53644"
	y2="92.399475" />
<line
	class="arc2"
	id="link47_@2_46"
	x1="754.633"
	y1="99.028015"
	x2="774.51917"
	y2="123.77493" />
<line
	class="arc1"
	id="link46_@1_45"
	x1="774.51917"
	y1="123.77493"
	x2="746.7099"
	y2="199.63599" />
<line
	class="arc2"
	id="link42_@2_41"
	x1="660.53644"
	y1="92.399475"
	x2="640.99347"
	y2="104.25592" />
<line
	class="arc2"
	id="link62_@2_60"
	x1="658.8989"
	y1="519.71466"
	x2="676.5755"
	y2="499.71838" />
<line
	class="arc1"
	id="link41_@1_56"
	x1="640.99347"
	y1="104.25592"
	x2="658.8989"
	y2="154.15472" />
<line
	class="arc2"
	id="link44_@2_39"
	x1="746.7099"
	y1="475.95978"
	x2="724.95734"
	y2="469.3189" />
<line
	class="arc0"
	id="link44_@0_45"
	x1="746.7099"
	y1="475.95978"
	x2="746.7099"
	y2="199.63599" />
<line
	class="arc1"
	id="link60_@1_39"
	x1="676.5755"
	y1="499.71838"
	x2="724.95734"
	y2="469.3189" />
<line
	class="arc0"
	id="link39_@0_40"
	x1="724.95734"
	y1="469.3189"
	x2="724.95734"
	y2="208.74265" />
<line
	class="arc2"
	id="link56_@2_58"
	x1="658.8989"
	y1="154.15472"
	x2="676.5755"
	y2="176.15195" />
<line
	class="arc2"
	id="link45_@2_40"
	x1="746.7099"
	y1="199.63599"
	x2="724.95734"
	y2="208.74265" />
<line
	class="arc1"
	id="link58_@1_40"
	x1="676.5755"
	y1="176.15195"
	x2="724.95734"
	y2="208.74265" />
</svg>
