<?xml version="1.0" encoding="UTF-8" standalone="no"?>
<!-- Created with Jerboa -->

<svg
   width="624.27643"
   height="513.8858"
   version="1.1"
   id="svg1335"
   sodipodi:docname="fil-rouge-short-extrude-face.svg"
   inkscape:version="1.2.2 (b0a8486541, 2022-12-01)"
   inkscape:export-filename="../figures-png/fil-rouge-short-extrude-face.png"
   inkscape:export-xdpi="300"
   inkscape:export-ydpi="300"
   xmlns:inkscape="http://www.inkscape.org/namespaces/inkscape"
   xmlns:sodipodi="http://sodipodi.sourceforge.net/DTD/sodipodi-0.dtd"
   xmlns="http://www.w3.org/2000/svg"
   xmlns:svg="http://www.w3.org/2000/svg">
  <defs
     id="defs1339" />
  <sodipodi:namedview
     id="namedview1337"
     pagecolor="#ffffff"
     bordercolor="#000000"
     borderopacity="0.25"
     inkscape:showpageshadow="2"
     inkscape:pageopacity="0.0"
     inkscape:pagecheckerboard="0"
     inkscape:deskcolor="#d1d1d1"
     showgrid="false"
     inkscape:zoom="0.93166287"
     inkscape:cx="311.27139"
     inkscape:cy="257.60391"
     inkscape:window-width="1908"
     inkscape:window-height="1051"
     inkscape:window-x="1925"
     inkscape:window-y="22"
     inkscape:window-maximized="1"
     inkscape:current-layer="svg1335" />
  <style
     id="style">
		.arc0 {
			fill:none;
			fill-rule:evenodd;
			stroke:black;
			stroke-width:4;
			stroke-linecap:round;
			stroke-linejoin:round;
			stroke-opacity:1;
		}
		.arc1 {
			fill:none;
			fill-rule:evenodd;
			stroke:red;
			stroke-width:4;
			stroke-linecap:round;
			stroke-linejoin:round;
			stroke-opacity:1;
		}
		.arc2 {
			fill:none;
			fill-rule:evenodd;
			stroke:blue;
			stroke-width:4;
			stroke-linecap:round;
			stroke-linejoin:round;
			stroke-opacity:1;
		}
		.arc3 {
			fill:none;
			fill-rule:evenodd;
			stroke:green;
			stroke-width:4;
			stroke-linecap:round;
			stroke-linejoin:round;
			stroke-opacity:1;
		}
		.topological-dart {
			fill:#000000;
			stroke:#000000;
			stroke-width:0;
			stroke-linecap:round;
			stroke-linejoin:round;
			stroke-dasharray:none;
			paint-order:markers fill stroke;
		}
	</style>
  <polygon
     points="662.7491,77.94525 908.6364,91.862366 961.66626,157.85406 961.66626,449.9254 908.6364,509.91418 662.7491,495.99707 609.71924,430.00534 609.71924,137.93399 "
     id="face_20_21_16_15_14_13_18_19"
     style="fill:#c0c0c0;stroke:none"
     opacity="1"
     transform="translate(-346.36176,-54.057129)" />
  <line
     class="arc1"
     id="link19_@1_18"
     x1="263.35748"
     y1="375.94821"
     x2="316.38733"
     y2="441.93994" />
  <line
     class="arc2"
     id="link19_@2_24"
     x1="263.35748"
     y1="375.94821"
     x2="230.55707"
     y2="376.55585" />
  <line
     class="arc0"
     id="link19_@0_20"
     x1="263.35748"
     y1="375.94821"
     x2="263.35748"
     y2="83.876862" />
  <polygon
     points="542.48083,80.17328 382.79977,101.60376 348.36176,169.21588 348.36176,461.2872 382.79977,519.6556 542.48083,498.2251 576.9188,430.61298 576.9188,138.54169 "
     id="face_25_26_31_30_29_28_23_24"
     style="fill:#c0c0c0;stroke:none"
     opacity="1"
     transform="translate(-346.36176,-54.057129)" />
  <line
     class="arc1"
     id="link24_@1_23"
     x1="230.55707"
     y1="376.55585"
     x2="196.11908"
     y2="444.16797" />
  <line
     class="arc0"
     id="link24_@0_25"
     x1="230.55707"
     y1="376.55585"
     x2="230.55707"
     y2="84.484558" />
  <line
     class="arc1"
     id="link20_@1_21"
     x1="263.35748"
     y1="83.876862"
     x2="316.38733"
     y2="23.888123" />
  <line
     class="arc2"
     id="link20_@2_25"
     x1="263.35748"
     y1="83.876862"
     x2="230.55707"
     y2="84.484558" />
  <line
     class="arc2"
     id="link18_@2_0"
     x1="316.38733"
     y1="441.93994"
     x2="303.47308"
     y2="467.29449" />
  <line
     class="arc0"
     id="link18_@0_13"
     x1="316.38733"
     y1="441.93994"
     x2="562.27466"
     y2="455.85706" />
  <line
     class="arc1"
     id="link25_@1_26"
     x1="230.55707"
     y1="84.484558"
     x2="196.11908"
     y2="26.11615" />
  <polygon
     points="914.314,542.892 754.633,564.3225 667.16516,565.94293 421.2778,552.0258 402.68594,544.40247 562.367,522.972 649.83484,521.3516 895.72217,535.26874 "
     id="face_7_6_5_4_3_2_1_0"
     style="fill:#c0c0c0;stroke:none"
     opacity="1"
     transform="translate(-346.36176,-54.057129)" />
  <line
     class="arc1"
     id="link0_@1_1"
     x1="303.47308"
     y1="467.29449"
     x2="216.00525"
     y2="468.91486" />
  <line
     class="arc0"
     id="link0_@0_7"
     x1="303.47308"
     y1="467.29449"
     x2="549.36041"
     y2="481.21161" />
  <line
     class="arc2"
     id="link23_@2_1"
     x1="196.11908"
     y1="444.16797"
     x2="216.00525"
     y2="468.91486" />
  <line
     class="arc0"
     id="link23_@0_28"
     x1="196.11908"
     y1="444.16797"
     x2="36.438019"
     y2="465.59845" />
  <line
     class="arc0"
     id="link1_@0_2"
     x1="216.00525"
     y1="468.91486"
     x2="56.324188"
     y2="490.34534" />
  <line
     class="arc2"
     id="link21_@2_22"
     x1="316.38733"
     y1="23.888123"
     x2="303.47308"
     y2="2" />
  <line
     class="arc0"
     id="link21_@0_16"
     x1="316.38733"
     y1="23.888123"
     x2="562.27466"
     y2="37.805237" />
  <polygon
     points="914.314,77.597534 754.633,99.028015 667.16516,100.6485 421.2778,86.73132 402.68594,79.10797 562.367,57.67749 649.83484,56.05713 895.72217,69.97424 "
     id="face_17_12_47_42_37_32_27_22"
     style="fill:#c0c0c0;stroke:none"
     opacity="1"
     transform="translate(-346.36176,-54.057129)" />
  <line
     class="arc1"
     id="link22_@1_27"
     x1="303.47308"
     y1="2"
     x2="216.00525"
     y2="3.6203613" />
  <line
     class="arc0"
     id="link22_@0_17"
     x1="303.47308"
     y1="2"
     x2="549.36041"
     y2="15.917114" />
  <line
     class="arc2"
     id="link26_@2_27"
     x1="196.11908"
     y1="26.11615"
     x2="216.00525"
     y2="3.6203613" />
  <line
     class="arc0"
     id="link26_@0_31"
     x1="196.11908"
     y1="26.11615"
     x2="36.438019"
     y2="47.546631" />
  <line
     class="arc0"
     id="link27_@0_32"
     x1="216.00525"
     y1="3.6203613"
     x2="56.324188"
     y2="25.050842" />
  <line
     class="arc1"
     id="link13_@1_14"
     x1="562.27466"
     y1="455.85706"
     x2="615.3045"
     y2="395.86829" />
  <line
     class="arc2"
     id="link13_@2_7"
     x1="562.27466"
     y1="455.85706"
     x2="549.36041"
     y2="481.21161" />
  <line
     class="arc1"
     id="link7_@1_6"
     x1="549.36041"
     y1="481.21161"
     x2="567.95227"
     y2="488.8349" />
  <line
     class="arc1"
     id="link16_@1_15"
     x1="562.27466"
     y1="37.805237"
     x2="615.3045"
     y2="103.79694" />
  <line
     class="arc2"
     id="link16_@2_17"
     x1="562.27466"
     y1="37.805237"
     x2="549.36041"
     y2="15.917114" />
  <line
     class="arc2"
     id="link14_@2_9"
     x1="615.3045"
     y1="395.86829"
     x2="622.27643"
     y2="398.72702" />
  <line
     class="arc0"
     id="link14_@0_15"
     x1="615.3045"
     y1="395.86829"
     x2="615.3045"
     y2="103.79694" />
  <line
     class="arc1"
     id="link17_@1_12"
     x1="549.36041"
     y1="15.917114"
     x2="567.95227"
     y2="23.540405" />
  <line
     class="arc2"
     id="link15_@2_10"
     x1="615.3045"
     y1="103.79694"
     x2="622.27643"
     y2="106.6557" />
  <polygon
     points="934.2002,102.34442 774.51917,123.77493 740.0811,191.38705 740.0811,483.45834 774.51917,541.8267 934.2002,520.39624 968.6382,452.78415 968.6382,160.71283 "
     id="face_10_11_46_45_44_43_8_9"
     style="fill:#c0c0c0;stroke:none"
     opacity="1"
     transform="translate(-346.36176,-54.057129)" />
  <line
     class="arc1"
     id="link9_@1_8"
     x1="622.27643"
     y1="398.72702"
     x2="587.83844"
     y2="466.33911" />
  <line
     class="arc0"
     id="link9_@0_10"
     x1="622.27643"
     y1="398.72702"
     x2="622.27643"
     y2="106.6557" />
  <line
     class="arc1"
     id="link10_@1_11"
     x1="622.27643"
     y1="106.6557"
     x2="587.83844"
     y2="48.287292" />
  <line
     class="arc2"
     id="link6_@2_8"
     x1="567.95227"
     y1="488.8349"
     x2="587.83844"
     y2="466.33911" />
  <line
     class="arc0"
     id="link6_@0_5"
     x1="567.95227"
     y1="488.8349"
     x2="408.27124"
     y2="510.26538" />
  <line
     class="arc1"
     id="link28_@1_29"
     x1="36.438019"
     y1="465.59845"
     x2="2"
     y2="407.23007" />
  <line
     class="arc2"
     id="link28_@2_2"
     x1="36.438019"
     y1="465.59845"
     x2="56.324188"
     y2="490.34534" />
  <line
     class="arc0"
     id="link8_@0_43"
     x1="587.83844"
     y1="466.33911"
     x2="428.15741"
     y2="487.76959" />
  <line
     class="arc1"
     id="link2_@1_3"
     x1="56.324188"
     y1="490.34534"
     x2="74.916046"
     y2="497.96869" />
  <line
     class="arc2"
     id="link12_@2_11"
     x1="567.95227"
     y1="23.540405"
     x2="587.83844"
     y2="48.287292" />
  <line
     class="arc0"
     id="link12_@0_47"
     x1="567.95227"
     y1="23.540405"
     x2="408.27124"
     y2="44.970886" />
  <line
     class="arc1"
     id="link31_@1_30"
     x1="36.438019"
     y1="47.546631"
     x2="2"
     y2="115.15875" />
  <line
     class="arc2"
     id="link31_@2_32"
     x1="36.438019"
     y1="47.546631"
     x2="56.324188"
     y2="25.050842" />
  <line
     class="arc0"
     id="link11_@0_46"
     x1="587.83844"
     y1="48.287292"
     x2="428.15741"
     y2="69.717804" />
  <line
     class="arc1"
     id="link32_@1_37"
     x1="56.324188"
     y1="25.050842"
     x2="74.916046"
     y2="32.674194" />
  <line
     class="arc2"
     id="link29_@2_34"
     x1="2"
     y1="407.23007"
     x2="8.9719849"
     y2="410.08881" />
  <line
     class="arc0"
     id="link29_@0_30"
     x1="2"
     y1="407.23007"
     x2="2"
     y2="115.15875" />
  <line
     class="arc2"
     id="link30_@2_35"
     x1="2"
     y1="115.15875"
     x2="8.9719849"
     y2="118.01749" />
  <polygon
     points="408.36362,112.08585 654.2509,126.00296 707.28076,191.99466 707.28076,484.06598 654.2509,544.0548 408.36362,530.13763 355.33374,464.14594 355.33374,172.07462 "
     id="face_35_36_41_40_39_38_33_34"
     style="fill:#c0c0c0;stroke:none"
     opacity="1"
     transform="translate(-346.36176,-54.057129)" />
  <line
     class="arc1"
     id="link34_@1_33"
     x1="8.9719849"
     y1="410.08881"
     x2="62.001862"
     y2="476.08051" />
  <line
     class="arc0"
     id="link34_@0_35"
     x1="8.9719849"
     y1="410.08881"
     x2="8.9719849"
     y2="118.01749" />
  <line
     class="arc2"
     id="link3_@2_33"
     x1="74.916046"
     y1="497.96869"
     x2="62.001862"
     y2="476.08051" />
  <line
     class="arc0"
     id="link3_@0_4"
     x1="74.916046"
     y1="497.96869"
     x2="320.80341"
     y2="511.8858" />
  <line
     class="arc1"
     id="link35_@1_36"
     x1="8.9719849"
     y1="118.01749"
     x2="62.001862"
     y2="58.028725" />
  <line
     class="arc0"
     id="link33_@0_38"
     x1="62.001862"
     y1="476.08051"
     x2="307.88916"
     y2="489.99768" />
  <line
     class="arc2"
     id="link37_@2_36"
     x1="74.916046"
     y1="32.674194"
     x2="62.001862"
     y2="58.028725" />
  <line
     class="arc0"
     id="link37_@0_42"
     x1="74.916046"
     y1="32.674194"
     x2="320.80341"
     y2="46.59137" />
  <line
     class="arc0"
     id="link36_@0_41"
     x1="62.001862"
     y1="58.028725"
     x2="307.88916"
     y2="71.945831" />
  <line
     class="arc1"
     id="link5_@1_4"
     x1="408.27124"
     y1="510.26538"
     x2="320.80341"
     y2="511.8858" />
  <line
     class="arc2"
     id="link5_@2_43"
     x1="408.27124"
     y1="510.26538"
     x2="428.15741"
     y2="487.76959" />
  <line
     class="arc1"
     id="link43_@1_44"
     x1="428.15741"
     y1="487.76959"
     x2="393.71936"
     y2="429.40121" />
  <line
     class="arc2"
     id="link4_@2_38"
     x1="320.80341"
     y1="511.8858"
     x2="307.88916"
     y2="489.99768" />
  <line
     class="arc1"
     id="link38_@1_39"
     x1="307.88916"
     y1="489.99768"
     x2="360.91901"
     y2="430.00885" />
  <line
     class="arc1"
     id="link47_@1_42"
     x1="408.27124"
     y1="44.970886"
     x2="320.80341"
     y2="46.59137" />
  <line
     class="arc2"
     id="link47_@2_46"
     x1="408.27124"
     y1="44.970886"
     x2="428.15741"
     y2="69.717804" />
  <line
     class="arc1"
     id="link46_@1_45"
     x1="428.15741"
     y1="69.717804"
     x2="393.71936"
     y2="137.32993" />
  <line
     class="arc2"
     id="link42_@2_41"
     x1="320.80341"
     y1="46.59137"
     x2="307.88916"
     y2="71.945831" />
  <line
     class="arc2"
     id="link44_@2_39"
     x1="393.71936"
     y1="429.40121"
     x2="360.91901"
     y2="430.00885" />
  <line
     class="arc0"
     id="link44_@0_45"
     x1="393.71936"
     y1="429.40121"
     x2="393.71936"
     y2="137.32993" />
  <line
     class="arc1"
     id="link41_@1_40"
     x1="307.88916"
     y1="71.945831"
     x2="360.91901"
     y2="137.93753" />
  <line
     class="arc0"
     id="link39_@0_40"
     x1="360.91901"
     y1="430.00885"
     x2="360.91901"
     y2="137.93753" />
  <line
     class="arc2"
     id="link45_@2_40"
     x1="393.71936"
     y1="137.32993"
     x2="360.91901"
     y2="137.93753" />
</svg>
