<?xml version="1.0" encoding="UTF-8" standalone="no"?>
<!-- Created with Jerboa -->

<svg
   width="645.0495"
   height="521.3844"
   version="1.1"
   id="svg3247"
   sodipodi:docname="fil-rouge-short-color-face.svg"
   inkscape:version="1.2.2 (b0a8486541, 2022-12-01)"
   inkscape:export-filename="../figures-png/fil-rouge-short-color-face.png"
   inkscape:export-xdpi="300"
   inkscape:export-ydpi="300"
   xmlns:inkscape="http://www.inkscape.org/namespaces/inkscape"
   xmlns:sodipodi="http://sodipodi.sourceforge.net/DTD/sodipodi-0.dtd"
   xmlns="http://www.w3.org/2000/svg"
   xmlns:svg="http://www.w3.org/2000/svg">
  <defs
     id="defs3251" />
  <sodipodi:namedview
     id="namedview3249"
     pagecolor="#ffffff"
     bordercolor="#000000"
     borderopacity="0.25"
     inkscape:showpageshadow="2"
     inkscape:pageopacity="0.0"
     inkscape:pagecheckerboard="0"
     inkscape:deskcolor="#d1d1d1"
     showgrid="false"
     inkscape:zoom="0.46583144"
     inkscape:cx="-72.987774"
     inkscape:cy="313.41809"
     inkscape:window-width="1908"
     inkscape:window-height="1051"
     inkscape:window-x="1925"
     inkscape:window-y="22"
     inkscape:window-maximized="1"
     inkscape:current-layer="svg3247" />
  <style
     id="style">
		.arc0 {
			fill:none;
			fill-rule:evenodd;
			stroke:black;
			stroke-width:4;
			stroke-linecap:round;
			stroke-linejoin:round;
			stroke-opacity:1;
		}
		.arc1 {
			fill:none;
			fill-rule:evenodd;
			stroke:red;
			stroke-width:4;
			stroke-linecap:round;
			stroke-linejoin:round;
			stroke-opacity:1;
		}
		.arc2 {
			fill:none;
			fill-rule:evenodd;
			stroke:blue;
			stroke-width:4;
			stroke-linecap:round;
			stroke-linejoin:round;
			stroke-opacity:1;
		}
		.arc3 {
			fill:none;
			fill-rule:evenodd;
			stroke:green;
			stroke-width:4;
			stroke-linecap:round;
			stroke-linejoin:round;
			stroke-opacity:1;
		}
		.topological-dart {
			fill:#000000;
			stroke:#000000;
			stroke-width:0;
			stroke-linecap:round;
			stroke-linejoin:round;
			stroke-dasharray:none;
			paint-order:markers fill stroke;
		}
	</style>
  <polygon
     points="609.71924,430.00534 609.71924,137.93399 662.7491,77.94525 908.6364,91.862366 961.66626,157.85406 961.66626,449.9254 908.6364,509.91418 662.7491,495.99707 "
     id="face_20_21_16_15_14_13_18_19"
     style="fill:#c0c0c0;stroke:none"
     opacity="1"
     transform="translate(-325.58872,-54.057129)" />
  <line
     class="arc1"
     id="link19_@1_18"
     x1="284.13052"
     y1="375.94821"
     x2="337.16037"
     y2="441.93994" />
  <line
     class="arc2"
     id="link19_@2_24"
     x1="284.13052"
     y1="375.94821"
     x2="251.33011"
     y2="376.55585" />
  <line
     class="arc0"
     id="link19_@0_20"
     x1="284.13052"
     y1="375.94821"
     x2="284.13052"
     y2="83.876862" />
  <polygon
     points="576.9188,430.61298 576.9188,138.54169 542.48083,80.17328 382.79977,101.60376 341.73303,176.71445 341.73303,453.03824 382.79977,519.6556 542.48083,498.2251 "
     id="face_25_26_31_30_29_28_23_24"
     style="fill:#c0c0c0;stroke:none"
     opacity="1"
     transform="translate(-325.58872,-54.057129)" />
  <line
     class="arc1"
     id="link24_@1_23"
     x1="251.33011"
     y1="376.55585"
     x2="216.89212"
     y2="444.16797" />
  <line
     class="arc0"
     id="link24_@0_25"
     x1="251.33011"
     y1="376.55585"
     x2="251.33011"
     y2="84.484558" />
  <line
     class="arc1"
     id="link20_@1_21"
     x1="284.13052"
     y1="83.876862"
     x2="337.16037"
     y2="23.888123" />
  <line
     class="arc2"
     id="link20_@2_25"
     x1="284.13052"
     y1="83.876862"
     x2="251.33011"
     y2="84.484558" />
  <line
     class="arc2"
     id="link18_@2_0"
     x1="337.16037"
     y1="441.93994"
     x2="324.24612"
     y2="467.29449" />
  <line
     class="arc0"
     id="link18_@0_13"
     x1="337.16037"
     y1="441.93994"
     x2="583.04767"
     y2="455.85706" />
  <line
     class="arc1"
     id="link25_@1_26"
     x1="251.33011"
     y1="84.484558"
     x2="216.89212"
     y2="26.11615" />
  <polygon
     points="649.83484,521.3516 895.72217,535.26874 914.314,542.892 754.633,564.3225 660.53644,573.4415 427.90656,560.2748 402.68594,544.40247 562.367,522.972 "
     id="face_7_6_5_4_3_2_1_0"
     style="fill:#c0c0c0;stroke:none"
     opacity="1"
     transform="translate(-325.58872,-54.057129)" />
  <line
     class="arc1"
     id="link0_@1_1"
     x1="324.24612"
     y1="467.29449"
     x2="236.77829"
     y2="468.91486" />
  <line
     class="arc0"
     id="link0_@0_7"
     x1="324.24612"
     y1="467.29449"
     x2="570.13348"
     y2="481.21161" />
  <line
     class="arc2"
     id="link23_@2_1"
     x1="216.89212"
     y1="444.16797"
     x2="236.77829"
     y2="468.91486" />
  <line
     class="arc0"
     id="link23_@0_28"
     x1="216.89212"
     y1="444.16797"
     x2="57.21106"
     y2="465.59845" />
  <line
     class="arc0"
     id="link1_@0_2"
     x1="236.77829"
     y1="468.91486"
     x2="77.097229"
     y2="490.34534" />
  <line
     class="arc2"
     id="link21_@2_22"
     x1="337.16037"
     y1="23.888123"
     x2="324.24612"
     y2="2" />
  <line
     class="arc0"
     id="link21_@0_16"
     x1="337.16037"
     y1="23.888123"
     x2="583.04767"
     y2="37.805237" />
  <polygon
     points="649.83484,56.05713 895.72217,69.97424 914.314,77.597534 754.633,99.028015 660.53644,92.399475 427.90656,79.23273 402.68594,79.10797 562.367,57.67749 "
     id="face_17_12_47_42_37_32_27_22"
     style="fill:#c0c0c0;stroke:none"
     opacity="1"
     transform="translate(-325.58872,-54.057129)" />
  <line
     class="arc1"
     id="link22_@1_27"
     x1="324.24612"
     y1="2"
     x2="236.77829"
     y2="3.6203613" />
  <line
     class="arc0"
     id="link22_@0_17"
     x1="324.24612"
     y1="2"
     x2="570.13348"
     y2="15.917114" />
  <line
     class="arc2"
     id="link26_@2_27"
     x1="216.89212"
     y1="26.11615"
     x2="236.77829"
     y2="3.6203613" />
  <line
     class="arc0"
     id="link26_@0_31"
     x1="216.89212"
     y1="26.11615"
     x2="57.21106"
     y2="47.546631" />
  <line
     class="arc0"
     id="link27_@0_32"
     x1="236.77829"
     y1="3.6203613"
     x2="77.097229"
     y2="25.050842" />
  <line
     class="arc1"
     id="link13_@1_14"
     x1="583.04767"
     y1="455.85706"
     x2="636.07758"
     y2="395.86829" />
  <line
     class="arc2"
     id="link13_@2_7"
     x1="583.04767"
     y1="455.85706"
     x2="570.13348"
     y2="481.21161" />
  <line
     class="arc1"
     id="link7_@1_6"
     x1="570.13348"
     y1="481.21161"
     x2="588.72528"
     y2="488.8349" />
  <line
     class="arc1"
     id="link16_@1_15"
     x1="583.04767"
     y1="37.805237"
     x2="636.07758"
     y2="103.79694" />
  <line
     class="arc2"
     id="link16_@2_17"
     x1="583.04767"
     y1="37.805237"
     x2="570.13348"
     y2="15.917114" />
  <line
     class="arc2"
     id="link14_@2_9"
     x1="636.07758"
     y1="395.86829"
     x2="643.0495"
     y2="398.72702" />
  <line
     class="arc0"
     id="link14_@0_15"
     x1="636.07758"
     y1="395.86829"
     x2="636.07758"
     y2="103.79694" />
  <line
     class="arc1"
     id="link17_@1_12"
     x1="570.13348"
     y1="15.917114"
     x2="588.72528"
     y2="23.540405" />
  <line
     class="arc2"
     id="link15_@2_10"
     x1="636.07758"
     y1="103.79694"
     x2="643.0495"
     y2="106.6557" />
  <polygon
     points="968.6382,452.78415 968.6382,160.71283 934.2002,102.34442 774.51917,123.77493 746.7099,199.63599 746.7099,475.95978 774.51917,541.8267 934.2002,520.39624 "
     id="face_10_11_46_45_44_43_8_9"
     style="fill:#c0c0c0;stroke:none"
     opacity="1"
     transform="translate(-325.58872,-54.057129)" />
  <line
     class="arc1"
     id="link9_@1_8"
     x1="643.0495"
     y1="398.72702"
     x2="608.61151"
     y2="466.33911" />
  <line
     class="arc0"
     id="link9_@0_10"
     x1="643.0495"
     y1="398.72702"
     x2="643.0495"
     y2="106.6557" />
  <line
     class="arc1"
     id="link10_@1_11"
     x1="643.0495"
     y1="106.6557"
     x2="608.61151"
     y2="48.287292" />
  <line
     class="arc2"
     id="link6_@2_8"
     x1="588.72528"
     y1="488.8349"
     x2="608.61151"
     y2="466.33911" />
  <line
     class="arc0"
     id="link6_@0_5"
     x1="588.72528"
     y1="488.8349"
     x2="429.04428"
     y2="510.26538" />
  <line
     class="arc1"
     id="link28_@1_29"
     x1="57.21106"
     y1="465.59845"
     x2="16.144318"
     y2="398.98111" />
  <line
     class="arc2"
     id="link28_@2_2"
     x1="57.21106"
     y1="465.59845"
     x2="77.097229"
     y2="490.34534" />
  <line
     class="arc0"
     id="link8_@0_43"
     x1="608.61151"
     y1="466.33911"
     x2="448.93045"
     y2="487.76959" />
  <line
     class="arc1"
     id="link2_@1_3"
     x1="77.097229"
     y1="490.34534"
     x2="102.31784"
     y2="506.21765" />
  <line
     class="arc2"
     id="link12_@2_11"
     x1="588.72528"
     y1="23.540405"
     x2="608.61151"
     y2="48.287292" />
  <line
     class="arc0"
     id="link12_@0_47"
     x1="588.72528"
     y1="23.540405"
     x2="429.04428"
     y2="44.970886" />
  <line
     class="arc1"
     id="link31_@1_30"
     x1="57.21106"
     y1="47.546631"
     x2="16.144318"
     y2="122.65732" />
  <line
     class="arc2"
     id="link31_@2_32"
     x1="57.21106"
     y1="47.546631"
     x2="77.097229"
     y2="25.050842" />
  <line
     class="arc0"
     id="link11_@0_46"
     x1="608.61151"
     y1="48.287292"
     x2="448.93045"
     y2="69.717804" />
  <line
     class="arc1"
     id="link32_@1_37"
     x1="77.097229"
     y1="25.050842"
     x2="102.31784"
     y2="25.175598" />
  <line
     class="arc2"
     id="link29_@2_34"
     x1="16.144318"
     y1="398.98111"
     x2="12.06842"
     y2="393.34076" />
  <line
     class="arc0"
     id="link29_@0_30"
     x1="16.144318"
     y1="398.98111"
     x2="16.144318"
     y2="122.65732" />
  <line
     class="arc2"
     id="link30_@2_35"
     x1="16.144318"
     y1="122.65732"
     x2="12.06842"
     y2="132.7645" />
  <polygon
     points="471.87753,286.98044 471.87753,365.71823 368.82007,482.29956 337.65714,447.3979 337.65714,186.82162 368.82007,158.73312 "
     id="face_35_52_53_51_50_34"
     style="fill:#0000ff;stroke:none"
     opacity="1"
     transform="translate(-325.58871,-54.057132)" />
  <line
     class="arc1"
     id="link34_@1_50"
     x1="12.06842"
     y1="393.34076"
     x2="43.231354"
     y2="428.24243" />
  <line
     class="arc0"
     id="link34_@0_35"
     x1="12.06842"
     y1="393.34076"
     x2="12.06842"
     y2="132.7645" />
  <line
     class="arc2"
     id="link3_@2_33"
     x1="102.31784"
     y1="506.21765"
     x2="96.032379"
     y2="497.82764" />
  <line
     class="arc0"
     id="link3_@0_4"
     x1="102.31784"
     y1="506.21765"
     x2="334.94772"
     y2="519.3844" />
  <line
     class="arc1"
     id="link35_@1_52"
     x1="12.06842"
     y1="132.7645"
     x2="43.231354"
     y2="104.67599" />
  <line
     class="arc2"
     id="link50_@2_48"
     x1="43.231354"
     y1="428.24243"
     x2="60.907928"
     y2="450.23969" />
  <line
     class="arc0"
     id="link50_@0_51"
     x1="43.231354"
     y1="428.24243"
     x2="146.28882"
     y2="311.6611" />
  <polygon
     points="658.8989,519.71466 555.84143,391.46732 489.55417,387.71548 386.49664,504.2968 421.6211,551.88477 640.99347,564.30115 "
     id="face_38_62_63_49_48_33"
     style="fill:#c0c0c0;stroke:none"
     opacity="1"
     transform="translate(-325.58872,-54.057129)" />
  <line
     class="arc1"
     id="link33_@1_48"
     x1="96.032379"
     y1="497.82764"
     x2="60.907928"
     y2="450.23969" />
  <line
     class="arc0"
     id="link33_@0_38"
     x1="96.032379"
     y1="497.82764"
     x2="315.40475"
     y2="510.24402" />
  <line
     class="arc0"
     id="link48_@0_49"
     x1="60.907928"
     y1="450.23969"
     x2="163.96545"
     y2="333.65836" />
  <line
     class="arc2"
     id="link37_@2_36"
     x1="102.31784"
     y1="25.175598"
     x2="96.032379"
     y2="37.782349" />
  <line
     class="arc0"
     id="link37_@0_42"
     x1="102.31784"
     y1="25.175598"
     x2="334.94772"
     y2="38.342346" />
  <line
     class="arc2"
     id="link52_@2_54"
     x1="43.231354"
     y1="104.67599"
     x2="60.907928"
     y2="84.679749" />
  <line
     class="arc0"
     id="link52_@0_53"
     x1="43.231354"
     y1="104.67599"
     x2="146.28882"
     y2="232.92331" />
  <polygon
     points="555.84143,270.73602 658.8989,154.15472 640.99347,104.25592 421.6211,91.83948 386.49664,138.73688 489.55417,266.98416 "
     id="face_55_57_56_41_36_54"
     style="fill:#c0c0c0;stroke:none"
     opacity="1"
     transform="translate(-325.58872,-54.057129)" />
  <line
     class="arc1"
     id="link54_@1_36"
     x1="60.907928"
     y1="84.679749"
     x2="96.032379"
     y2="37.782349" />
  <line
     class="arc0"
     id="link54_@0_55"
     x1="60.907928"
     y1="84.679749"
     x2="163.96545"
     y2="212.92703" />
  <line
     class="arc0"
     id="link36_@0_41"
     x1="96.032379"
     y1="37.782349"
     x2="315.40475"
     y2="50.198792" />
  <line
     class="arc1"
     id="link51_@1_53"
     x1="146.28882"
     y1="311.6611"
     x2="146.28882"
     y2="232.92331" />
  <line
     class="arc2"
     id="link51_@2_49"
     x1="146.28882"
     y1="311.6611"
     x2="163.96545"
     y2="333.65836" />
  <line
     class="arc2"
     id="link53_@2_55"
     x1="146.28882"
     y1="232.92331"
     x2="163.96545"
     y2="212.92703" />
  <line
     class="arc1"
     id="link49_@1_63"
     x1="163.96545"
     y1="333.65836"
     x2="230.25272"
     y2="337.41019" />
  <line
     class="arc1"
     id="link55_@1_57"
     x1="163.96545"
     y1="212.92703"
     x2="230.25272"
     y2="216.67889" />
  <line
     class="arc1"
     id="link5_@1_4"
     x1="429.04428"
     y1="510.26538"
     x2="334.94772"
     y2="519.3844" />
  <line
     class="arc2"
     id="link5_@2_43"
     x1="429.04428"
     y1="510.26538"
     x2="448.93045"
     y2="487.76959" />
  <line
     class="arc2"
     id="link63_@2_61"
     x1="230.25272"
     y1="337.41019"
     x2="247.92935"
     y2="317.41388" />
  <line
     class="arc0"
     id="link63_@0_62"
     x1="230.25272"
     y1="337.41019"
     x2="333.31021"
     y2="465.65753" />
  <line
     class="arc2"
     id="link4_@2_38"
     x1="334.94772"
     y1="519.3844"
     x2="315.40475"
     y2="510.24402" />
  <line
     class="arc1"
     id="link43_@1_44"
     x1="448.93045"
     y1="487.76959"
     x2="421.12119"
     y2="421.90265" />
  <line
     class="arc2"
     id="link57_@2_59"
     x1="230.25272"
     y1="216.67889"
     x2="247.92935"
     y2="238.67615" />
  <line
     class="arc0"
     id="link57_@0_56"
     x1="230.25272"
     y1="216.67889"
     x2="333.31021"
     y2="100.0976" />
  <polygon
     points="724.95734,469.3189 724.95734,208.74265 676.5755,176.15195 573.51807,292.73328 573.51807,371.471 676.5755,499.71838 "
     id="face_60_39_40_58_59_61"
     style="fill:#c0c0c0;stroke:none"
     opacity="1"
     transform="translate(-325.58872,-54.057129)" />
  <line
     class="arc1"
     id="link61_@1_59"
     x1="247.92935"
     y1="317.41388"
     x2="247.92935"
     y2="238.67615" />
  <line
     class="arc0"
     id="link61_@0_60"
     x1="247.92935"
     y1="317.41388"
     x2="350.98679"
     y2="445.66125" />
  <line
     class="arc0"
     id="link59_@0_58"
     x1="247.92935"
     y1="238.67615"
     x2="350.98679"
     y2="122.09482" />
  <line
     class="arc1"
     id="link38_@1_62"
     x1="315.40475"
     y1="510.24402"
     x2="333.31021"
     y2="465.65753" />
  <line
     class="arc1"
     id="link47_@1_42"
     x1="429.04428"
     y1="44.970886"
     x2="334.94772"
     y2="38.342346" />
  <line
     class="arc2"
     id="link47_@2_46"
     x1="429.04428"
     y1="44.970886"
     x2="448.93045"
     y2="69.717804" />
  <line
     class="arc1"
     id="link46_@1_45"
     x1="448.93045"
     y1="69.717804"
     x2="421.12119"
     y2="145.57886" />
  <line
     class="arc2"
     id="link42_@2_41"
     x1="334.94772"
     y1="38.342346"
     x2="315.40475"
     y2="50.198792" />
  <line
     class="arc2"
     id="link62_@2_60"
     x1="333.31021"
     y1="465.65753"
     x2="350.98679"
     y2="445.66125" />
  <line
     class="arc1"
     id="link41_@1_56"
     x1="315.40475"
     y1="50.198792"
     x2="333.31021"
     y2="100.0976" />
  <line
     class="arc2"
     id="link44_@2_39"
     x1="421.12119"
     y1="421.90265"
     x2="399.36862"
     y2="415.26178" />
  <line
     class="arc0"
     id="link44_@0_45"
     x1="421.12119"
     y1="421.90265"
     x2="421.12119"
     y2="145.57886" />
  <line
     class="arc1"
     id="link60_@1_39"
     x1="350.98679"
     y1="445.66125"
     x2="399.36862"
     y2="415.26178" />
  <line
     class="arc0"
     id="link39_@0_40"
     x1="399.36862"
     y1="415.26178"
     x2="399.36862"
     y2="154.68552" />
  <line
     class="arc2"
     id="link56_@2_58"
     x1="333.31021"
     y1="100.0976"
     x2="350.98679"
     y2="122.09482" />
  <line
     class="arc2"
     id="link45_@2_40"
     x1="421.12119"
     y1="145.57886"
     x2="399.36862"
     y2="154.68552" />
  <line
     class="arc1"
     id="link58_@1_40"
     x1="350.98679"
     y1="122.09482"
     x2="399.36862"
     y2="154.68552" />
  <g
     id="g4330"
     transform="translate(15.838434,14.789824)">
    <rect
       style="fill:#ffffff;fill-opacity:1;stroke:#ffffff;stroke-width:46.4514;stroke-linecap:square;stroke-opacity:1;stop-color:#000000"
       id="rect1120"
       width="25.411186"
       height="23.153406"
       x="26.199627"
       y="142.43312" />
    <text
       xml:space="preserve"
       style="font-style:normal;font-variant:normal;font-weight:normal;font-stretch:normal;font-size:80px;font-family:'Liberation Serif';-inkscape-font-specification:'Liberation Serif, Normal';font-variant-ligatures:normal;font-variant-caps:normal;font-variant-numeric:normal;font-variant-east-asian:normal;fill:#ffffff;fill-opacity:1;stroke:#ffffff;stroke-width:40.9851;stroke-linecap:square;stroke-opacity:1;stop-color:#000000"
       x="-1.4463423"
       y="180.10358"
       id="text1784"><tspan
         sodipodi:role="line"
         id="tspan1782"
         x="-1.4463423"
         y="180.10358"
         style="font-style:normal;font-variant:normal;font-weight:normal;font-stretch:normal;font-size:80px;font-family:'Liberation Serif';-inkscape-font-specification:'Liberation Serif, Normal';font-variant-ligatures:normal;font-variant-caps:normal;font-variant-numeric:normal;font-variant-east-asian:normal;fill:#000000;fill-opacity:1;stroke:none;stroke-width:40.9851">35</tspan></text>
  </g>
  <ellipse
     style="fill:#ff00ff;fill-opacity:1;stroke:none;stroke-width:35.6598;stroke-linecap:square;stroke-opacity:1;stop-color:#000000"
     id="path1937"
     cx="12.06842"
     cy="132.7645"
     rx="12.06842"
     ry="12.160759" />
</svg>
