<?xml version="1.0" encoding="UTF-8" standalone="no"?>
<!-- Created with Jerboa -->

<svg
   width="640.97363"
   height="575.31549"
   version="1.1"
   id="svg2230"
   sodipodi:docname="fil-rouge-short-triangulate-face-magnified.svg"
   inkscape:version="1.3 (0e150ed6c4, 2023-07-21)"
   inkscape:export-filename="../figures-png/fil-rouge-short-triangulate-face.png"
   inkscape:export-xdpi="300"
   inkscape:export-ydpi="300"
   xmlns:inkscape="http://www.inkscape.org/namespaces/inkscape"
   xmlns:sodipodi="http://sodipodi.sourceforge.net/DTD/sodipodi-0.dtd"
   xmlns="http://www.w3.org/2000/svg"
   xmlns:svg="http://www.w3.org/2000/svg">
  <defs
     id="defs2234" />
  <sodipodi:namedview
     id="namedview2232"
     pagecolor="#ffffff"
     bordercolor="#000000"
     borderopacity="0.25"
     inkscape:showpageshadow="2"
     inkscape:pageopacity="0.0"
     inkscape:pagecheckerboard="0"
     inkscape:deskcolor="#d1d1d1"
     showgrid="false"
     inkscape:zoom="0.93166287"
     inkscape:cx="328.44499"
     inkscape:cy="397.13936"
     inkscape:window-width="1908"
     inkscape:window-height="1048"
     inkscape:window-x="1925"
     inkscape:window-y="25"
     inkscape:window-maximized="1"
     inkscape:current-layer="svg2230" />
  <style
     id="style">&#10;		.arc0 {&#10;			fill:none;&#10;			fill-rule:evenodd;&#10;			stroke:black;&#10;			stroke-width:4;&#10;			stroke-linecap:round;&#10;			stroke-linejoin:round;&#10;			stroke-opacity:1;&#10;		}&#10;		.arc1 {&#10;			fill:none;&#10;			fill-rule:evenodd;&#10;			stroke:red;&#10;			stroke-width:4;&#10;			stroke-linecap:round;&#10;			stroke-linejoin:round;&#10;			stroke-opacity:1;&#10;		}&#10;		.arc2 {&#10;			fill:none;&#10;			fill-rule:evenodd;&#10;			stroke:blue;&#10;			stroke-width:4;&#10;			stroke-linecap:round;&#10;			stroke-linejoin:round;&#10;			stroke-opacity:1;&#10;		}&#10;		.arc3 {&#10;			fill:none;&#10;			fill-rule:evenodd;&#10;			stroke:green;&#10;			stroke-width:4;&#10;			stroke-linecap:round;&#10;			stroke-linejoin:round;&#10;			stroke-opacity:1;&#10;		}&#10;		.topological-dart {&#10;			fill:#000000;&#10;			stroke:#000000;&#10;			stroke-width:0;&#10;			stroke-linecap:round;&#10;			stroke-linejoin:round;&#10;			stroke-dasharray:none;&#10;			paint-order:markers fill stroke;&#10;		}&#10;	</style>
  <polygon
     points="908.6364,509.91418 662.7491,495.99707 609.71924,430.00534 609.71924,137.93399 662.7491,77.94525 908.6364,91.862366 961.66626,157.85406 961.66626,449.9254 "
     id="face_20_21_16_15_14_13_18_19"
     style="fill:#c0c0c0;stroke:none"
     opacity="1"
     transform="translate(-329.66461,-0.12605321)" />
  <line
     class="arc1"
     id="link19_@1_18"
     x1="280.05463"
     y1="429.87927"
     x2="333.08447"
     y2="495.871" />
  <line
     class="arc2"
     id="link19_@2_24"
     x1="280.05463"
     y1="429.87927"
     x2="247.25421"
     y2="430.48691" />
  <line
     class="arc0"
     id="link19_@0_20"
     x1="280.05463"
     y1="429.87927"
     x2="280.05463"
     y2="137.80794" />
  <polygon
     points="382.79977,519.6556 542.48083,498.2251 576.9188,430.61298 576.9188,138.54169 542.48083,80.17328 382.79977,101.60376 341.73303,176.71445 341.73303,453.03824 "
     id="face_25_26_31_30_29_28_23_24"
     style="fill:#c0c0c0;stroke:none"
     opacity="1"
     transform="translate(-329.66461,-0.12605321)" />
  <line
     class="arc1"
     id="link24_@1_23"
     x1="247.25421"
     y1="430.48691"
     x2="212.81622"
     y2="498.09903" />
  <line
     class="arc0"
     id="link24_@0_25"
     x1="247.25421"
     y1="430.48691"
     x2="247.25421"
     y2="138.41563" />
  <line
     class="arc1"
     id="link20_@1_21"
     x1="280.05463"
     y1="137.80794"
     x2="333.08447"
     y2="77.819199" />
  <line
     class="arc2"
     id="link20_@2_25"
     x1="280.05463"
     y1="137.80794"
     x2="247.25421"
     y2="138.41563" />
  <line
     class="arc2"
     id="link18_@2_0"
     x1="333.08447"
     y1="495.871"
     x2="320.17023"
     y2="521.22559" />
  <line
     class="arc0"
     id="link18_@0_13"
     x1="333.08447"
     y1="495.871"
     x2="578.9718"
     y2="509.78815" />
  <line
     class="arc1"
     id="link25_@1_26"
     x1="247.25421"
     y1="138.41563"
     x2="212.81622"
     y2="80.047226" />
  <polygon
     points="402.68594,544.40247 562.367,522.972 649.83484,521.3516 895.72217,535.26874 914.314,542.892 754.633,564.3225 660.53644,573.4415 427.90656,560.2748 "
     id="face_7_6_5_4_3_2_1_0"
     style="fill:#c0c0c0;stroke:none"
     opacity="1"
     transform="translate(-329.66461,-0.12605321)" />
  <line
     class="arc1"
     id="link0_@1_1"
     x1="320.17023"
     y1="521.22559"
     x2="232.70239"
     y2="522.84595" />
  <line
     class="arc0"
     id="link0_@0_7"
     x1="320.17023"
     y1="521.22559"
     x2="566.05762"
     y2="535.1427" />
  <line
     class="arc2"
     id="link23_@2_1"
     x1="212.81622"
     y1="498.09903"
     x2="232.70239"
     y2="522.84595" />
  <line
     class="arc0"
     id="link23_@0_28"
     x1="212.81622"
     y1="498.09903"
     x2="53.13517"
     y2="519.52954" />
  <line
     class="arc0"
     id="link1_@0_2"
     x1="232.70239"
     y1="522.84595"
     x2="73.021339"
     y2="544.27643" />
  <line
     class="arc2"
     id="link21_@2_22"
     x1="333.08447"
     y1="77.819199"
     x2="320.17023"
     y2="55.931076" />
  <line
     class="arc0"
     id="link21_@0_16"
     x1="333.08447"
     y1="77.819199"
     x2="578.9718"
     y2="91.73632" />
  <polygon
     points="402.68594,79.10797 562.367,57.67749 649.83484,56.05713 895.72217,69.97424 914.314,77.597534 754.633,99.028015 660.53644,92.399475 427.90656,79.23273 "
     id="face_17_12_47_42_37_32_27_22"
     style="fill:#c0c0c0;stroke:none"
     opacity="1"
     transform="translate(-329.66461,-0.12605321)" />
  <line
     class="arc1"
     id="link22_@1_27"
     x1="320.17023"
     y1="55.931076"
     x2="232.70239"
     y2="57.551437" />
  <line
     class="arc0"
     id="link22_@0_17"
     x1="320.17023"
     y1="55.931076"
     x2="566.05762"
     y2="69.84819" />
  <line
     class="arc2"
     id="link26_@2_27"
     x1="212.81622"
     y1="80.047226"
     x2="232.70239"
     y2="57.551437" />
  <line
     class="arc0"
     id="link26_@0_31"
     x1="212.81622"
     y1="80.047226"
     x2="53.13517"
     y2="101.47771" />
  <line
     class="arc0"
     id="link27_@0_32"
     x1="232.70239"
     y1="57.551437"
     x2="73.021339"
     y2="78.981918" />
  <line
     class="arc1"
     id="link13_@1_14"
     x1="578.9718"
     y1="509.78815"
     x2="632.00171"
     y2="449.79935" />
  <line
     class="arc2"
     id="link13_@2_7"
     x1="578.9718"
     y1="509.78815"
     x2="566.05762"
     y2="535.1427" />
  <line
     class="arc1"
     id="link7_@1_6"
     x1="566.05762"
     y1="535.1427"
     x2="584.64941"
     y2="542.76599" />
  <line
     class="arc1"
     id="link16_@1_15"
     x1="578.9718"
     y1="91.73632"
     x2="632.00171"
     y2="157.72801" />
  <line
     class="arc2"
     id="link16_@2_17"
     x1="578.9718"
     y1="91.73632"
     x2="566.05762"
     y2="69.84819" />
  <line
     class="arc2"
     id="link14_@2_9"
     x1="632.00171"
     y1="449.79935"
     x2="638.97363"
     y2="452.65808" />
  <line
     class="arc0"
     id="link14_@0_15"
     x1="632.00171"
     y1="449.79935"
     x2="632.00171"
     y2="157.72801" />
  <line
     class="arc1"
     id="link17_@1_12"
     x1="566.05762"
     y1="69.84819"
     x2="584.64941"
     y2="77.471481" />
  <line
     class="arc2"
     id="link15_@2_10"
     x1="632.00171"
     y1="157.72801"
     x2="638.97363"
     y2="160.58678" />
  <polygon
     points="774.51917,541.8267 934.2002,520.39624 968.6382,452.78415 968.6382,160.71283 934.2002,102.34442 774.51917,123.77493 746.7099,199.63599 746.7099,475.95978 "
     id="face_10_11_46_45_44_43_8_9"
     style="fill:#c0c0c0;stroke:none"
     opacity="1"
     transform="translate(-329.66461,-0.12605321)" />
  <line
     class="arc1"
     id="link9_@1_8"
     x1="638.97363"
     y1="452.65808"
     x2="604.53564"
     y2="520.2702" />
  <line
     class="arc0"
     id="link9_@0_10"
     x1="638.97363"
     y1="452.65808"
     x2="638.97363"
     y2="160.58678" />
  <line
     class="arc1"
     id="link10_@1_11"
     x1="638.97363"
     y1="160.58678"
     x2="604.53564"
     y2="102.21837" />
  <line
     class="arc2"
     id="link6_@2_8"
     x1="584.64941"
     y1="542.76599"
     x2="604.53564"
     y2="520.2702" />
  <line
     class="arc0"
     id="link6_@0_5"
     x1="584.64941"
     y1="542.76599"
     x2="424.96838"
     y2="564.19647" />
  <line
     class="arc1"
     id="link28_@1_29"
     x1="53.13517"
     y1="519.52954"
     x2="12.068428"
     y2="452.91217" />
  <line
     class="arc2"
     id="link28_@2_2"
     x1="53.13517"
     y1="519.52954"
     x2="73.021339"
     y2="544.27643" />
  <line
     class="arc0"
     id="link8_@0_43"
     x1="604.53564"
     y1="520.2702"
     x2="444.85455"
     y2="541.70068" />
  <line
     class="arc1"
     id="link2_@1_3"
     x1="73.021339"
     y1="544.27643"
     x2="98.241951"
     y2="560.14874" />
  <line
     class="arc2"
     id="link12_@2_11"
     x1="584.64941"
     y1="77.471481"
     x2="604.53564"
     y2="102.21837" />
  <line
     class="arc0"
     id="link12_@0_47"
     x1="584.64941"
     y1="77.471481"
     x2="424.96838"
     y2="98.901955" />
  <line
     class="arc1"
     id="link31_@1_30"
     x1="53.13517"
     y1="101.47771"
     x2="12.068428"
     y2="176.58839" />
  <line
     class="arc2"
     id="link31_@2_32"
     x1="53.13517"
     y1="101.47771"
     x2="73.021339"
     y2="78.981918" />
  <line
     class="arc0"
     id="link11_@0_46"
     x1="604.53564"
     y1="102.21837"
     x2="444.85455"
     y2="123.64888" />
  <line
     class="arc1"
     id="link32_@1_37"
     x1="73.021339"
     y1="78.981918"
     x2="98.241951"
     y2="79.106674" />
  <line
     class="arc2"
     id="link29_@2_34"
     x1="12.068428"
     y1="452.91217"
     x2="7.9925303"
     y2="447.27182" />
  <line
     class="arc0"
     id="link29_@0_30"
     x1="12.068428"
     y1="452.91217"
     x2="12.068428"
     y2="176.58839" />
  <line
     class="arc2"
     id="link30_@2_35"
     x1="12.068428"
     y1="176.58839"
     x2="7.9925303"
     y2="186.69557" />
  <polygon
     points="337.65714,447.3979 337.65714,186.82162 368.82007,158.73312 471.87753,286.98044 471.87753,365.71823 368.82007,482.29956 "
     id="face_35_52_53_51_50_34"
     style="fill:#c0c0c0;stroke:none"
     opacity="1"
     transform="translate(-329.66461,-0.12605321)" />
  <line
     class="arc1"
     id="link34_@1_50"
     x1="7.9925303"
     y1="447.27182"
     x2="39.155464"
     y2="482.17349" />
  <line
     class="arc0"
     id="link34_@0_35"
     x1="7.9925303"
     y1="447.27182"
     x2="7.9925303"
     y2="186.69557" />
  <line
     class="arc2"
     id="link3_@2_33"
     x1="98.241951"
     y1="560.14874"
     x2="91.95649"
     y2="551.75873" />
  <line
     class="arc0"
     id="link3_@0_4"
     x1="98.241951"
     y1="560.14874"
     x2="330.87183"
     y2="573.31549" />
  <line
     class="arc1"
     id="link35_@1_52"
     x1="7.9925303"
     y1="186.69557"
     x2="39.155464"
     y2="158.60706" />
  <line
     class="arc2"
     id="link50_@2_48"
     x1="39.155464"
     y1="482.17349"
     x2="56.832039"
     y2="504.17078" />
  <line
     class="arc0"
     id="link50_@0_51"
     x1="39.155464"
     y1="482.17349"
     x2="142.21292"
     y2="365.59216" />
  <polygon
     points="421.6211,551.88477 640.99347,564.30115 658.8989,519.71466 555.84143,391.46732 489.55417,387.71548 386.49664,504.2968 "
     id="face_38_62_63_49_48_33"
     style="fill:#c0c0c0;stroke:none"
     opacity="1"
     transform="translate(-329.66461,-0.12605321)" />
  <line
     class="arc1"
     id="link33_@1_48"
     x1="91.95649"
     y1="551.75873"
     x2="56.832039"
     y2="504.17078" />
  <line
     class="arc0"
     id="link33_@0_38"
     x1="91.95649"
     y1="551.75873"
     x2="311.32886"
     y2="564.17511" />
  <line
     class="arc0"
     id="link48_@0_49"
     x1="56.832039"
     y1="504.17078"
     x2="159.88956"
     y2="387.58942" />
  <line
     class="arc2"
     id="link37_@2_36"
     x1="98.241951"
     y1="79.106674"
     x2="91.95649"
     y2="91.713425" />
  <line
     class="arc0"
     id="link37_@0_42"
     x1="98.241951"
     y1="79.106674"
     x2="330.87183"
     y2="92.273415" />
  <line
     class="arc2"
     id="link52_@2_54"
     x1="39.155464"
     y1="158.60706"
     x2="56.832039"
     y2="138.61082" />
  <line
     class="arc0"
     id="link52_@0_53"
     x1="39.155464"
     y1="158.60706"
     x2="142.21292"
     y2="286.85437" />
  <polygon
     points="386.49664,138.73688 489.55417,266.98416 555.84143,270.73602 658.8989,154.15472 640.99347,104.25592 421.6211,91.83948 "
     id="face_55_57_56_41_36_54"
     style="fill:#c0c0c0;stroke:none"
     opacity="1"
     transform="translate(-329.66461,-0.12605321)" />
  <line
     class="arc1"
     id="link54_@1_36"
     x1="56.832039"
     y1="138.61082"
     x2="91.95649"
     y2="91.713425" />
  <line
     class="arc0"
     id="link54_@0_55"
     x1="56.832039"
     y1="138.61082"
     x2="159.88956"
     y2="266.85809" />
  <line
     class="arc0"
     id="link36_@0_41"
     x1="91.95649"
     y1="91.713425"
     x2="311.32886"
     y2="104.12987" />
  <line
     class="arc1"
     id="link51_@1_53"
     x1="142.21292"
     y1="365.59216"
     x2="142.21292"
     y2="286.85437" />
  <line
     class="arc2"
     id="link51_@2_49"
     x1="142.21292"
     y1="365.59216"
     x2="159.88956"
     y2="387.58942" />
  <line
     class="arc2"
     id="link53_@2_55"
     x1="142.21292"
     y1="286.85437"
     x2="159.88956"
     y2="266.85809" />
  <line
     class="arc1"
     id="link49_@1_63"
     x1="159.88956"
     y1="387.58942"
     x2="226.17682"
     y2="391.34125" />
  <line
     class="arc1"
     id="link55_@1_57"
     x1="159.88956"
     y1="266.85809"
     x2="226.17682"
     y2="270.60995" />
  <line
     class="arc1"
     id="link5_@1_4"
     x1="424.96838"
     y1="564.19647"
     x2="330.87183"
     y2="573.31549" />
  <line
     class="arc2"
     id="link5_@2_43"
     x1="424.96838"
     y1="564.19647"
     x2="444.85455"
     y2="541.70068" />
  <line
     class="arc2"
     id="link63_@2_61"
     x1="226.17682"
     y1="391.34125"
     x2="243.85345"
     y2="371.34494" />
  <line
     class="arc0"
     id="link63_@0_62"
     x1="226.17682"
     y1="391.34125"
     x2="329.23431"
     y2="519.58862" />
  <line
     class="arc2"
     id="link4_@2_38"
     x1="330.87183"
     y1="573.31549"
     x2="311.32886"
     y2="564.17511" />
  <line
     class="arc1"
     id="link43_@1_44"
     x1="444.85455"
     y1="541.70068"
     x2="417.04529"
     y2="475.83371" />
  <line
     class="arc2"
     id="link57_@2_59"
     x1="226.17682"
     y1="270.60995"
     x2="243.85345"
     y2="292.60721" />
  <line
     class="arc0"
     id="link57_@0_56"
     x1="226.17682"
     y1="270.60995"
     x2="329.23431"
     y2="154.02867" />
  <polygon
     points="573.51807,371.471 676.5755,499.71838 724.95734,469.3189 724.95734,208.74265 676.5755,176.15195 573.51807,292.73328 "
     id="face_60_39_40_58_59_61"
     style="fill:#c0c0c0;stroke:none"
     opacity="1"
     transform="translate(-329.66461,-0.12605321)" />
  <line
     class="arc1"
     id="link61_@1_59"
     x1="243.85345"
     y1="371.34494"
     x2="243.85345"
     y2="292.60721" />
  <line
     class="arc0"
     id="link61_@0_60"
     x1="243.85345"
     y1="371.34494"
     x2="346.91089"
     y2="499.59235" />
  <line
     class="arc0"
     id="link59_@0_58"
     x1="243.85345"
     y1="292.60721"
     x2="346.91089"
     y2="176.02589" />
  <line
     class="arc1"
     id="link38_@1_62"
     x1="311.32886"
     y1="564.17511"
     x2="329.23431"
     y2="519.58862" />
  <line
     class="arc1"
     id="link47_@1_42"
     x1="424.96838"
     y1="98.901955"
     x2="330.87183"
     y2="92.273415" />
  <line
     class="arc2"
     id="link47_@2_46"
     x1="424.96838"
     y1="98.901955"
     x2="444.85455"
     y2="123.64888" />
  <line
     class="arc1"
     id="link46_@1_45"
     x1="444.85455"
     y1="123.64888"
     x2="417.04529"
     y2="199.50993" />
  <line
     class="arc2"
     id="link42_@2_41"
     x1="330.87183"
     y1="92.273415"
     x2="311.32886"
     y2="104.12987" />
  <line
     class="arc2"
     id="link62_@2_60"
     x1="329.23431"
     y1="519.58862"
     x2="346.91089"
     y2="499.59235" />
  <line
     class="arc1"
     id="link41_@1_56"
     x1="311.32886"
     y1="104.12987"
     x2="329.23431"
     y2="154.02867" />
  <line
     class="arc2"
     id="link44_@2_39"
     x1="417.04529"
     y1="475.83371"
     x2="395.29272"
     y2="469.19284" />
  <line
     class="arc0"
     id="link44_@0_45"
     x1="417.04529"
     y1="475.83371"
     x2="417.04529"
     y2="199.50993" />
  <line
     class="arc1"
     id="link60_@1_39"
     x1="346.91089"
     y1="499.59235"
     x2="395.29272"
     y2="469.19284" />
  <line
     class="arc0"
     id="link39_@0_40"
     x1="395.29272"
     y1="469.19284"
     x2="395.29272"
     y2="208.61659" />
  <line
     class="arc2"
     id="link56_@2_58"
     x1="329.23431"
     y1="154.02867"
     x2="346.91089"
     y2="176.02589" />
  <line
     class="arc2"
     id="link45_@2_40"
     x1="417.04529"
     y1="199.50993"
     x2="395.29272"
     y2="208.61659" />
  <line
     class="arc1"
     id="link58_@1_40"
     x1="346.91089"
     y1="176.02589"
     x2="395.29272"
     y2="208.61659" />
  <g
     id="g4330"
     transform="translate(15.838402,70.774482)"
     clip-path="none">
    <rect
       style="fill:#ffffff;fill-opacity:1;stroke:#ffffff;stroke-width:46.4514;stroke-linecap:square;stroke-opacity:1;stop-color:#000000"
       id="rect1120"
       width="25.411186"
       height="23.153406"
       x="26.199627"
       y="142.43312"
       sodipodi:type="rect" />
    <text
       xml:space="preserve"
       style="font-style:normal;font-variant:normal;font-weight:normal;font-stretch:normal;font-size:80px;font-family:'Liberation Serif';-inkscape-font-specification:'Liberation Serif, Normal';font-variant-ligatures:normal;font-variant-caps:normal;font-variant-numeric:normal;font-variant-east-asian:normal;fill:#ffffff;fill-opacity:1;stroke:#ffffff;stroke-width:40.9851;stroke-linecap:square;stroke-opacity:1;stop-color:#000000"
       x="-1.4463423"
       y="180.10358"
       id="text1784"><tspan
         sodipodi:role="line"
         id="tspan1782"
         x="-1.4463423"
         y="180.10358"
         style="font-style:normal;font-variant:normal;font-weight:normal;font-stretch:normal;font-size:80px;font-family:'Liberation Serif';-inkscape-font-specification:'Liberation Serif, Normal';font-variant-ligatures:normal;font-variant-caps:normal;font-variant-numeric:normal;font-variant-east-asian:normal;fill:#000000;fill-opacity:1;stroke:none;stroke-width:40.9851">35</tspan></text>
  </g>
  <ellipse
     style="display:block;fill:#ff00ff;fill-opacity:1;stroke:none;stroke-width:35.6598;stroke-linecap:square;stroke-opacity:1;stop-color:#000000"
     id="ellipse19"
     cx="12.06842"
     cy="188.74916"
     rx="12.06842"
     ry="12.160759" />
  <ellipse
     style="fill:none;stroke:#ff0001;stroke-width:4.42824;stroke-linecap:round;stroke-linejoin:round;stroke-dasharray:none;stroke-opacity:1"
     id="path1"
     cx="54.251286"
     cy="226.55325"
     rx="46.258755"
     ry="44.285809"
     clip-path="none" />
  <path
     style="fill:none;stroke:#ff0001;stroke-width:7.55906;stroke-linecap:round;stroke-linejoin:round;stroke-dasharray:none;stroke-opacity:1"
     d="M 85.631644,189.98191 297.37306,117.11465"
     id="path25"
     sodipodi:nodetypes="cc" />
  <rect
     style="fill:#00d000;fill-opacity:1;stroke:#ff0000;stroke-width:9.27811;stroke-linecap:square;stroke-linejoin:miter;stroke-dasharray:none;stroke-opacity:1"
     id="rect1"
     width="151.92998"
     height="134.13647"
     x="291.62634"
     y="4.6390548" />
  <text
     xml:space="preserve"
     style="font-style:normal;font-variant:normal;font-weight:normal;font-stretch:normal;font-size:139.213px;font-family:'Liberation Serif';-inkscape-font-specification:'Liberation Serif, Normal';font-variant-ligatures:normal;font-variant-caps:normal;font-variant-numeric:normal;font-variant-east-asian:normal;fill:#ffffff;fill-opacity:1;stroke:#ffffff;stroke-width:71.3206;stroke-linecap:square;stroke-opacity:1;stop-color:#000000"
     x="297.37305"
     y="117.11465"
     id="text1784-7"><tspan
       sodipodi:role="line"
       id="tspan1782-6"
       x="297.37305"
       y="117.11465"
       style="font-style:normal;font-variant:normal;font-weight:normal;font-stretch:normal;font-size:139.213px;font-family:'Liberation Serif';-inkscape-font-specification:'Liberation Serif, Normal';font-variant-ligatures:normal;font-variant-caps:normal;font-variant-numeric:normal;font-variant-east-asian:normal;fill:#000000;fill-opacity:1;stroke:none;stroke-width:71.3206">35</tspan></text>
</svg>
