<?xml version="1.0" encoding="UTF-8" standalone="no"?>
<!-- Created with Jerboa -->

<svg
   width="773.15222"
   height="628.61652"
   version="1.1"
   id="svg4958"
   sodipodi:docname="fil-rouge-short-reeval-extrude-face.svg"
   inkscape:version="1.2.2 (b0a8486541, 2022-12-01)"
   xmlns:inkscape="http://www.inkscape.org/namespaces/inkscape"
   xmlns:sodipodi="http://sodipodi.sourceforge.net/DTD/sodipodi-0.dtd"
   xmlns="http://www.w3.org/2000/svg"
   xmlns:svg="http://www.w3.org/2000/svg">
  <defs
     id="defs4962" />
  <sodipodi:namedview
     id="namedview4960"
     pagecolor="#ffffff"
     bordercolor="#000000"
     borderopacity="0.25"
     inkscape:showpageshadow="2"
     inkscape:pageopacity="0.0"
     inkscape:pagecheckerboard="0"
     inkscape:deskcolor="#d1d1d1"
     showgrid="false"
     inkscape:zoom="0.91567164"
     inkscape:cx="358.75306"
     inkscape:cy="317.79951"
     inkscape:window-width="1908"
     inkscape:window-height="1051"
     inkscape:window-x="1085"
     inkscape:window-y="22"
     inkscape:window-maximized="1"
     inkscape:current-layer="svg4958" />
  <style
     id="style">
		.arc0 {
			fill:none;
			fill-rule:evenodd;
			stroke:black;
			stroke-width:4;
			stroke-linecap:round;
			stroke-linejoin:round;
			stroke-opacity:1;
		}
		.arc1 {
			fill:none;
			fill-rule:evenodd;
			stroke:red;
			stroke-width:4;
			stroke-linecap:round;
			stroke-linejoin:round;
			stroke-opacity:1;
		}
		.arc2 {
			fill:none;
			fill-rule:evenodd;
			stroke:blue;
			stroke-width:4;
			stroke-linecap:round;
			stroke-linejoin:round;
			stroke-opacity:1;
		}
		.arc3 {
			fill:none;
			fill-rule:evenodd;
			stroke:green;
			stroke-width:4;
			stroke-linecap:round;
			stroke-linejoin:round;
			stroke-opacity:1;
		}
		.topological-dart {
			fill:#000000;
			stroke:#000000;
			stroke-width:0;
			stroke-linecap:round;
			stroke-linejoin:round;
			stroke-dasharray:none;
			paint-order:markers fill stroke;
		}
	</style>
  <polygon
     points="1058.0793,580.48755 655.3015,557.6905 637.6816,535.76373 637.6816,57.333923 655.3015,37.401672 1058.0793,60.19873 1075.6993,82.12549 1075.6993,560.55536 "
     id="face_22_23_18_17_16_15_20_21"
     style="fill:#c0c0c0;stroke:none"
     opacity="1"
     transform="translate(-310.72452,-16.007874)" />
  <line
     class="arc1"
     id="link21_@1_20"
     x1="326.95706"
     y1="519.75586"
     x2="344.577"
     y2="541.68262" />
  <line
     class="arc2"
     id="link21_@2_26"
     x1="326.95706"
     y1="519.75586"
     x2="297.8945"
     y2="520.29425" />
  <line
     class="arc0"
     id="link21_@0_22"
     x1="326.95706"
     y1="519.75586"
     x2="326.95706"
     y2="41.32605" />
  <polygon
     points="326.79965,593.37305 597.1765,558.76733 608.619,536.3021 608.619,57.872253 597.1765,38.478455 326.79965,73.08423 315.35703,95.54938 315.35703,573.97925 "
     id="face_27_28_33_32_31_30_25_26"
     style="fill:#c0c0c0;stroke:none"
     opacity="1"
     transform="translate(-310.72452,-16.007874)" />
  <line
     class="arc1"
     id="link26_@1_25"
     x1="297.8945"
     y1="520.29425"
     x2="286.452"
     y2="542.75946" />
  <line
     class="arc0"
     id="link26_@0_27"
     x1="297.8945"
     y1="520.29425"
     x2="297.8945"
     y2="41.86438" />
  <line
     class="arc2"
     id="link20_@2_0"
     x1="344.577"
     y1="541.68262"
     x2="333.13449"
     y2="564.14777" />
  <line
     class="arc0"
     id="link20_@0_15"
     x1="344.577"
     y1="541.68262"
     x2="747.35486"
     y2="564.47968" />
  <line
     class="arc2"
     id="link25_@2_1"
     x1="286.452"
     y1="542.75946"
     x2="304.07193"
     y2="564.68622" />
  <line
     class="arc0"
     id="link25_@0_30"
     x1="286.452"
     y1="542.75946"
     x2="16.075134"
     y2="577.36517" />
  <polygon
     points="529.1008,632.3027 332.97705,616.8355 335.60962,614.80115 614.79645,580.6941 643.859,580.15564 1046.6367,602.9527 1052.8142,605.48566 808.8673,641.58734 788.6148,642.6244 546.72076,633.2999 "
     id="face_7_6_5_4_9_8_3_2_1_0"
     style="fill:#c0c0c0;stroke:none"
     opacity="1"
     transform="translate(-310.72452,-16.007874)" />
  <line
     class="arc1"
     id="link0_@1_1"
     x1="333.13449"
     y1="564.14777"
     x2="304.07193"
     y2="564.68622" />
  <line
     class="arc0"
     id="link0_@0_7"
     x1="333.13449"
     y1="564.14777"
     x2="735.91223"
     y2="586.94482" />
  <line
     class="arc0"
     id="link1_@0_2"
     x1="304.07193"
     y1="564.68622"
     x2="24.885101"
     y2="598.79327" />
  <line
     class="arc1"
     id="link22_@1_23"
     x1="326.95706"
     y1="41.32605"
     x2="344.577"
     y2="21.393799" />
  <line
     class="arc2"
     id="link22_@2_27"
     x1="326.95706"
     y1="41.32605"
     x2="297.8945"
     y2="41.86438" />
  <line
     class="arc1"
     id="link27_@1_28"
     x1="297.8945"
     y1="41.86438"
     x2="286.452"
     y2="22.470581" />
  <line
     class="arc2"
     id="link23_@2_24"
     x1="344.577"
     y1="21.393799"
     x2="333.13449"
     y2="2" />
  <line
     class="arc0"
     id="link23_@0_18"
     x1="344.577"
     y1="21.393799"
     x2="747.35486"
     y2="44.190857" />
  <line
     class="arc2"
     id="link28_@2_29"
     x1="286.452"
     y1="22.470581"
     x2="304.07193"
     y2="2.5384521" />
  <line
     class="arc0"
     id="link28_@0_33"
     x1="286.452"
     y1="22.470581"
     x2="16.075134"
     y2="57.076355" />
  <polygon
     points="529.1008,70.15491 332.97705,54.687744 335.60962,52.65338 614.79645,18.546326 643.859,18.007874 1046.6367,40.804993 1052.8142,43.33795 808.8673,79.439575 788.6148,80.476685 546.72076,71.15216 "
     id="face_19_14_59_54_49_44_39_34_29_24"
     style="fill:#c0c0c0;stroke:none"
     opacity="1"
     transform="translate(-310.72452,-16.007874)" />
  <line
     class="arc1"
     id="link24_@1_29"
     x1="333.13449"
     y1="2"
     x2="304.07193"
     y2="2.5384521" />
  <line
     class="arc0"
     id="link24_@0_19"
     x1="333.13449"
     y1="2"
     x2="735.91223"
     y2="24.797119" />
  <line
     class="arc0"
     id="link29_@0_34"
     x1="304.07193"
     y1="2.5384521"
     x2="24.885101"
     y2="36.645508" />
  <line
     class="arc1"
     id="link15_@1_16"
     x1="747.35486"
     y1="564.47968"
     x2="764.97485"
     y2="544.54749" />
  <line
     class="arc2"
     id="link15_@2_7"
     x1="747.35486"
     y1="564.47968"
     x2="735.91223"
     y2="586.94482" />
  <line
     class="arc2"
     id="link16_@2_11"
     x1="764.97485"
     y1="544.54749"
     x2="771.15222"
     y2="547.08044" />
  <line
     class="arc0"
     id="link16_@0_17"
     x1="764.97485"
     y1="544.54749"
     x2="764.97485"
     y2="66.117615" />
  <line
     class="arc1"
     id="link7_@1_6"
     x1="735.91223"
     y1="586.94482"
     x2="742.08972"
     y2="589.47778" />
  <polygon
     points="817.67725,621.1565 1070.4342,585.55347 1081.8767,563.0883 1081.8767,84.65845 1070.4342,65.26465 817.67725,100.86768 806.2346,123.33289 806.2346,601.76276 "
     id="face_12_13_58_57_56_55_10_11"
     style="fill:#c0c0c0;stroke:none"
     opacity="1"
     transform="translate(-310.72452,-16.007874)" />
  <line
     class="arc1"
     id="link11_@1_10"
     x1="771.15222"
     y1="547.08044"
     x2="759.70972"
     y2="569.54559" />
  <line
     class="arc0"
     id="link11_@0_12"
     x1="771.15222"
     y1="547.08044"
     x2="771.15222"
     y2="68.650574" />
  <line
     class="arc2"
     id="link6_@2_10"
     x1="742.08972"
     y1="589.47778"
     x2="759.70972"
     y2="569.54559" />
  <line
     class="arc0"
     id="link6_@0_5"
     x1="742.08972"
     y1="589.47778"
     x2="498.14279"
     y2="625.57947" />
  <line
     class="arc1"
     id="link18_@1_17"
     x1="747.35486"
     y1="44.190857"
     x2="764.97485"
     y2="66.117615" />
  <line
     class="arc2"
     id="link18_@2_19"
     x1="747.35486"
     y1="44.190857"
     x2="735.91223"
     y2="24.797119" />
  <line
     class="arc2"
     id="link17_@2_12"
     x1="764.97485"
     y1="66.117615"
     x2="771.15222"
     y2="68.650574" />
  <line
     class="arc0"
     id="link10_@0_55"
     x1="759.70972"
     y1="569.54559"
     x2="506.95273"
     y2="605.14862" />
  <line
     class="arc1"
     id="link19_@1_14"
     x1="735.91223"
     y1="24.797119"
     x2="742.08972"
     y2="27.330078" />
  <line
     class="arc1"
     id="link12_@1_13"
     x1="771.15222"
     y1="68.650574"
     x2="759.70972"
     y2="49.256775" />
  <line
     class="arc2"
     id="link14_@2_13"
     x1="742.08972"
     y1="27.330078"
     x2="759.70972"
     y2="49.256775" />
  <line
     class="arc0"
     id="link14_@0_59"
     x1="742.08972"
     y1="27.330078"
     x2="498.14279"
     y2="63.431702" />
  <line
     class="arc0"
     id="link13_@0_58"
     x1="759.70972"
     y1="49.256775"
     x2="506.95273"
     y2="84.85981" />
  <line
     class="arc1"
     id="link30_@1_31"
     x1="16.075134"
     y1="577.36517"
     x2="4.6325073"
     y2="557.97137" />
  <line
     class="arc2"
     id="link30_@2_2"
     x1="16.075134"
     y1="577.36517"
     x2="24.885101"
     y2="598.79327" />
  <line
     class="arc1"
     id="link2_@1_3"
     x1="24.885101"
     y1="598.79327"
     x2="22.252533"
     y2="600.82764" />
  <line
     class="arc2"
     id="link31_@2_36"
     x1="4.6325073"
     y1="557.97137"
     x2="2"
     y2="560.00568" />
  <line
     class="arc0"
     id="link31_@0_32"
     x1="4.6325073"
     y1="557.97137"
     x2="4.6325073"
     y2="79.541504" />
  <line
     class="arc2"
     id="link3_@2_35"
     x1="22.252533"
     y1="600.82764"
     x2="10.809998"
     y2="581.43384" />
  <line
     class="arc0"
     id="link3_@0_8"
     x1="22.252533"
     y1="600.82764"
     x2="218.37631"
     y2="616.2948" />
  <polygon
     points="520.29083,610.8746 321.53452,597.4417 312.72452,576.01355 312.72452,97.58368 321.53452,77.15283 520.29083,90.58569 529.1008,112.01386 529.1008,590.4437 "
     id="face_37_38_43_42_41_40_35_36"
     style="fill:#c0c0c0;stroke:none"
     opacity="1"
     transform="translate(-310.72452,-16.007874)" />
  <line
     class="arc1"
     id="link36_@1_35"
     x1="2"
     y1="560.00568"
     x2="10.809998"
     y2="581.43384" />
  <line
     class="arc0"
     id="link36_@0_37"
     x1="2"
     y1="560.00568"
     x2="2"
     y2="81.575806" />
  <line
     class="arc1"
     id="link33_@1_32"
     x1="16.075134"
     y1="57.076355"
     x2="4.6325073"
     y2="79.541504" />
  <line
     class="arc2"
     id="link33_@2_34"
     x1="16.075134"
     y1="57.076355"
     x2="24.885101"
     y2="36.645508" />
  <line
     class="arc0"
     id="link35_@0_40"
     x1="10.809998"
     y1="581.43384"
     x2="209.56631"
     y2="594.8667" />
  <line
     class="arc1"
     id="link34_@1_39"
     x1="24.885101"
     y1="36.645508"
     x2="22.252533"
     y2="38.679871" />
  <line
     class="arc2"
     id="link32_@2_37"
     x1="4.6325073"
     y1="79.541504"
     x2="2"
     y2="81.575806" />
  <line
     class="arc2"
     id="link39_@2_38"
     x1="22.252533"
     y1="38.679871"
     x2="10.809998"
     y2="61.144958" />
  <line
     class="arc0"
     id="link39_@0_44"
     x1="22.252533"
     y1="38.679871"
     x2="218.37631"
     y2="54.147034" />
  <line
     class="arc1"
     id="link37_@1_38"
     x1="2"
     y1="81.575806"
     x2="10.809998"
     y2="61.144958" />
  <line
     class="arc0"
     id="link38_@0_43"
     x1="10.809998"
     y1="61.144958"
     x2="209.56631"
     y2="74.57782" />
  <line
     class="arc1"
     id="link40_@1_41"
     x1="209.56631"
     y1="594.8667"
     x2="218.37631"
     y2="574.43585" />
  <line
     class="arc2"
     id="link40_@2_8"
     x1="209.56631"
     y1="594.8667"
     x2="218.37631"
     y2="616.2948" />
  <line
     class="arc1"
     id="link8_@1_9"
     x1="218.37631"
     y1="616.2948"
     x2="235.99625"
     y2="617.29205" />
  <line
     class="arc2"
     id="link41_@2_46"
     x1="218.37631"
     y1="574.43585"
     x2="235.99625"
     y2="575.43311" />
  <line
     class="arc0"
     id="link41_@0_42"
     x1="218.37631"
     y1="574.43585"
     x2="218.37631"
     y2="96.005974" />
  <line
     class="arc2"
     id="link9_@2_45"
     x1="235.99625"
     y1="617.29205"
     x2="244.8063"
     y2="596.86127" />
  <line
     class="arc0"
     id="link9_@0_4"
     x1="235.99625"
     y1="617.29205"
     x2="477.89029"
     y2="626.61652" />
  <polygon
     points="777.17224,623.2306 555.5308,612.86914 546.72076,591.441 546.72076,113.01111 555.5308,92.58026 777.17224,102.94177 785.98224,124.36987 785.98224,602.79974 "
     id="face_47_48_53_52_51_50_45_46"
     style="fill:#c0c0c0;stroke:none"
     opacity="1"
     transform="translate(-310.72452,-16.007874)" />
  <line
     class="arc1"
     id="link46_@1_45"
     x1="235.99625"
     y1="575.43311"
     x2="244.8063"
     y2="596.86127" />
  <line
     class="arc0"
     id="link46_@0_47"
     x1="235.99625"
     y1="575.43311"
     x2="235.99625"
     y2="97.003235" />
  <line
     class="arc0"
     id="link45_@0_50"
     x1="244.8063"
     y1="596.86127"
     x2="466.44772"
     y2="607.22272" />
  <line
     class="arc1"
     id="link43_@1_42"
     x1="209.56631"
     y1="74.57782"
     x2="218.37631"
     y2="96.005974" />
  <line
     class="arc2"
     id="link43_@2_44"
     x1="209.56631"
     y1="74.57782"
     x2="218.37631"
     y2="54.147034" />
  <line
     class="arc2"
     id="link42_@2_47"
     x1="218.37631"
     y1="96.005974"
     x2="235.99625"
     y2="97.003235" />
  <line
     class="arc1"
     id="link44_@1_49"
     x1="218.37631"
     y1="54.147034"
     x2="235.99625"
     y2="55.144287" />
  <line
     class="arc1"
     id="link47_@1_48"
     x1="235.99625"
     y1="97.003235"
     x2="244.8063"
     y2="76.572388" />
  <line
     class="arc2"
     id="link49_@2_48"
     x1="235.99625"
     y1="55.144287"
     x2="244.8063"
     y2="76.572388" />
  <line
     class="arc0"
     id="link49_@0_54"
     x1="235.99625"
     y1="55.144287"
     x2="477.89029"
     y2="64.468811" />
  <line
     class="arc0"
     id="link48_@0_53"
     x1="244.8063"
     y1="76.572388"
     x2="466.44772"
     y2="86.933899" />
  <line
     class="arc1"
     id="link5_@1_4"
     x1="498.14279"
     y1="625.57947"
     x2="477.89029"
     y2="626.61652" />
  <line
     class="arc2"
     id="link5_@2_55"
     x1="498.14279"
     y1="625.57947"
     x2="506.95273"
     y2="605.14862" />
  <line
     class="arc1"
     id="link55_@1_56"
     x1="506.95273"
     y1="605.14862"
     x2="495.5101"
     y2="585.75488" />
  <line
     class="arc2"
     id="link4_@2_50"
     x1="477.89029"
     y1="626.61652"
     x2="466.44772"
     y2="607.22272" />
  <line
     class="arc2"
     id="link56_@2_51"
     x1="495.5101"
     y1="585.75488"
     x2="475.25772"
     y2="586.79187" />
  <line
     class="arc0"
     id="link56_@0_57"
     x1="495.5101"
     y1="585.75488"
     x2="495.5101"
     y2="107.32502" />
  <line
     class="arc1"
     id="link50_@1_51"
     x1="466.44772"
     y1="607.22272"
     x2="475.25772"
     y2="586.79187" />
  <line
     class="arc0"
     id="link51_@0_52"
     x1="475.25772"
     y1="586.79187"
     x2="475.25772"
     y2="108.362" />
  <line
     class="arc1"
     id="link59_@1_54"
     x1="498.14279"
     y1="63.431702"
     x2="477.89029"
     y2="64.468811" />
  <line
     class="arc2"
     id="link59_@2_58"
     x1="498.14279"
     y1="63.431702"
     x2="506.95273"
     y2="84.85981" />
  <line
     class="arc1"
     id="link58_@1_57"
     x1="506.95273"
     y1="84.85981"
     x2="495.5101"
     y2="107.32502" />
  <line
     class="arc2"
     id="link54_@2_53"
     x1="477.89029"
     y1="64.468811"
     x2="466.44772"
     y2="86.933899" />
  <line
     class="arc2"
     id="link57_@2_52"
     x1="495.5101"
     y1="107.32502"
     x2="475.25772"
     y2="108.362" />
  <line
     class="arc1"
     id="link53_@1_52"
     x1="466.44772"
     y1="86.933899"
     x2="475.25772"
     y2="108.362" />
</svg>
