<?xml version="1.0" encoding="UTF-8" standalone="no"?>
<!-- Created with Jerboa -->

<svg
	width="1340"
	height="668" >
	<style id="style">
		.arc0 {
			fill:none;
			fill-rule:evenodd;
			stroke:black;
			stroke-width:4;
			stroke-linecap:round;
			stroke-linejoin:round;
			stroke-opacity:1;
		}
		.arc1 {
			fill:none;
			fill-rule:evenodd;
			stroke:red;
			stroke-width:4;
			stroke-linecap:round;
			stroke-linejoin:round;
			stroke-opacity:1;
		}
		.arc2 {
			fill:none;
			fill-rule:evenodd;
			stroke:blue;
			stroke-width:4;
			stroke-linecap:round;
			stroke-linejoin:round;
			stroke-opacity:1;
		}
		.arc3 {
			fill:none;
			fill-rule:evenodd;
			stroke:green;
			stroke-width:4;
			stroke-linecap:round;
			stroke-linejoin:round;
			stroke-opacity:1;
		}
		.topological-dart {
			fill:#000000;
			stroke:#000000;
			stroke-width:0;
			stroke-linecap:round;
			stroke-linejoin:round;
			stroke-dasharray:none;
			paint-order:markers fill stroke;
		}
	</style>
<polygon
	points="637.6816,535.76373 637.6816,57.333923 655.3015,37.401672 1058.0793,60.19873 1075.6993,82.12549 1075.6993,560.55536 1058.0793,580.48755 655.3015,557.6905 "
	id="face_22_23_18_17_16_15_20_21"
	style="fill:rgb(192,192,192);stroke:none"
	opacity="1.0" />
<line
	class="arc1"
	id="link21_@1_20"
	x1="637.6816"
	y1="535.76373"
	x2="655.3015"
	y2="557.6905" />
<line
	class="arc2"
	id="link21_@2_26"
	x1="637.6816"
	y1="535.76373"
	x2="608.619"
	y2="536.3021" />
<line
	class="arc0"
	id="link21_@0_22"
	x1="637.6816"
	y1="535.76373"
	x2="637.6816"
	y2="57.333923" />
<polygon
	points="608.619,536.3021 608.619,57.872253 597.1765,38.478455 326.79965,73.08423 310.95203,105.76477 310.95203,563.2652 326.79965,593.37305 597.1765,558.76733 "
	id="face_27_28_33_32_31_30_25_26"
	style="fill:rgb(192,192,192);stroke:none"
	opacity="1.0" />
<line
	class="arc1"
	id="link26_@1_25"
	x1="608.619"
	y1="536.3021"
	x2="597.1765"
	y2="558.76733" />
<line
	class="arc0"
	id="link26_@0_27"
	x1="608.619"
	y1="536.3021"
	x2="608.619"
	y2="57.872253" />
<line
	class="arc2"
	id="link20_@2_0"
	x1="655.3015"
	y1="557.6905"
	x2="643.859"
	y2="580.15564" />
<line
	class="arc0"
	id="link20_@0_15"
	x1="655.3015"
	y1="557.6905"
	x2="1058.0793"
	y2="580.48755" />
<line
	class="arc2"
	id="link25_@2_1"
	x1="597.1765"
	y1="558.76733"
	x2="614.79645"
	y2="580.6941" />
<line
	class="arc0"
	id="link25_@0_30"
	x1="597.1765"
	y1="558.76733"
	x2="326.79965"
	y2="593.37305" />
<polygon
	points="643.859,580.15564 1046.6367,602.9527 1052.8142,605.48566 808.8673,641.58734 784.20984,652.83984 551.1258,644.014 524.6959,642.51807 337.38202,627.54956 335.60962,614.80115 614.79645,580.6941 "
	id="face_7_6_5_4_9_8_3_2_1_0"
	style="fill:rgb(192,192,192);stroke:none"
	opacity="1.0" />
<line
	class="arc1"
	id="link0_@1_1"
	x1="643.859"
	y1="580.15564"
	x2="614.79645"
	y2="580.6941" />
<line
	class="arc0"
	id="link0_@0_7"
	x1="643.859"
	y1="580.15564"
	x2="1046.6367"
	y2="602.9527" />
<line
	class="arc0"
	id="link1_@0_2"
	x1="614.79645"
	y1="580.6941"
	x2="335.60962"
	y2="614.80115" />
<line
	class="arc1"
	id="link22_@1_23"
	x1="637.6816"
	y1="57.333923"
	x2="655.3015"
	y2="37.401672" />
<line
	class="arc2"
	id="link22_@2_27"
	x1="637.6816"
	y1="57.333923"
	x2="608.619"
	y2="57.872253" />
<line
	class="arc1"
	id="link27_@1_28"
	x1="608.619"
	y1="57.872253"
	x2="597.1765"
	y2="38.478455" />
<line
	class="arc2"
	id="link23_@2_24"
	x1="655.3015"
	y1="37.401672"
	x2="643.859"
	y2="18.007874" />
<line
	class="arc0"
	id="link23_@0_18"
	x1="655.3015"
	y1="37.401672"
	x2="1058.0793"
	y2="60.19873" />
<line
	class="arc2"
	id="link28_@2_29"
	x1="597.1765"
	y1="38.478455"
	x2="614.79645"
	y2="18.546326" />
<line
	class="arc0"
	id="link28_@0_33"
	x1="597.1765"
	y1="38.478455"
	x2="326.79965"
	y2="73.08423" />
<polygon
	points="643.859,18.007874 1046.6367,40.804993 1052.8142,43.33795 808.8673,79.439575 784.20984,69.762634 551.1258,60.93683 524.6959,59.440857 337.38202,44.47235 335.60962,52.65338 614.79645,18.546326 "
	id="face_19_14_59_54_49_44_39_34_29_24"
	style="fill:rgb(192,192,192);stroke:none"
	opacity="1.0" />
<line
	class="arc1"
	id="link24_@1_29"
	x1="643.859"
	y1="18.007874"
	x2="614.79645"
	y2="18.546326" />
<line
	class="arc0"
	id="link24_@0_19"
	x1="643.859"
	y1="18.007874"
	x2="1046.6367"
	y2="40.804993" />
<line
	class="arc0"
	id="link29_@0_34"
	x1="614.79645"
	y1="18.546326"
	x2="335.60962"
	y2="52.65338" />
<line
	class="arc1"
	id="link15_@1_16"
	x1="1058.0793"
	y1="580.48755"
	x2="1075.6993"
	y2="560.55536" />
<line
	class="arc2"
	id="link15_@2_7"
	x1="1058.0793"
	y1="580.48755"
	x2="1046.6367"
	y2="602.9527" />
<line
	class="arc2"
	id="link16_@2_11"
	x1="1075.6993"
	y1="560.55536"
	x2="1081.8767"
	y2="563.0883" />
<line
	class="arc0"
	id="link16_@0_17"
	x1="1075.6993"
	y1="560.55536"
	x2="1075.6993"
	y2="82.12549" />
<line
	class="arc1"
	id="link7_@1_6"
	x1="1046.6367"
	y1="602.9527"
	x2="1052.8142"
	y2="605.48566" />
<polygon
	points="1081.8767,563.0883 1081.8767,84.65845 1070.4342,65.26465 817.67725,100.867676 810.63983,134.04688 810.63983,591.5473 817.67725,621.1565 1070.4342,585.55347 "
	id="face_12_13_58_57_56_55_10_11"
	style="fill:rgb(192,192,192);stroke:none"
	opacity="1.0" />
<line
	class="arc1"
	id="link11_@1_10"
	x1="1081.8767"
	y1="563.0883"
	x2="1070.4342"
	y2="585.55347" />
<line
	class="arc0"
	id="link11_@0_12"
	x1="1081.8767"
	y1="563.0883"
	x2="1081.8767"
	y2="84.65845" />
<line
	class="arc2"
	id="link6_@2_10"
	x1="1052.8142"
	y1="605.48566"
	x2="1070.4342"
	y2="585.55347" />
<line
	class="arc0"
	id="link6_@0_5"
	x1="1052.8142"
	y1="605.48566"
	x2="808.8673"
	y2="641.58734" />
<line
	class="arc1"
	id="link18_@1_17"
	x1="1058.0793"
	y1="60.19873"
	x2="1075.6993"
	y2="82.12549" />
<line
	class="arc2"
	id="link18_@2_19"
	x1="1058.0793"
	y1="60.19873"
	x2="1046.6367"
	y2="40.804993" />
<line
	class="arc2"
	id="link17_@2_12"
	x1="1075.6993"
	y1="82.12549"
	x2="1081.8767"
	y2="84.65845" />
<line
	class="arc0"
	id="link10_@0_55"
	x1="1070.4342"
	y1="585.55347"
	x2="817.67725"
	y2="621.1565" />
<line
	class="arc1"
	id="link19_@1_14"
	x1="1046.6367"
	y1="40.804993"
	x2="1052.8142"
	y2="43.33795" />
<line
	class="arc1"
	id="link12_@1_13"
	x1="1081.8767"
	y1="84.65845"
	x2="1070.4342"
	y2="65.26465" />
<line
	class="arc2"
	id="link14_@2_13"
	x1="1052.8142"
	y1="43.33795"
	x2="1070.4342"
	y2="65.26465" />
<line
	class="arc0"
	id="link14_@0_59"
	x1="1052.8142"
	y1="43.33795"
	x2="808.8673"
	y2="79.439575" />
<line
	class="arc0"
	id="link13_@0_58"
	x1="1070.4342"
	y1="65.26465"
	x2="817.67725"
	y2="100.867676" />
<line
	class="arc1"
	id="link30_@1_31"
	x1="326.79965"
	y1="593.37305"
	x2="310.95203"
	y2="563.2652" />
<line
	class="arc2"
	id="link30_@2_2"
	x1="326.79965"
	y1="593.37305"
	x2="335.60962"
	y2="614.80115" />
<line
	class="arc1"
	id="link2_@1_3"
	x1="335.60962"
	y1="614.80115"
	x2="337.38202"
	y2="627.54956" />
<line
	class="arc2"
	id="link31_@2_36"
	x1="310.95203"
	y1="563.2652"
	x2="303.91452"
	y2="554.58545" />
<line
	class="arc0"
	id="link31_@0_32"
	x1="310.95203"
	y1="563.2652"
	x2="310.95203"
	y2="105.76477" />
<line
	class="arc2"
	id="link3_@2_35"
	x1="337.38202"
	y1="627.54956"
	x2="330.3445"
	y2="618.8698" />
<line
	class="arc0"
	id="link3_@0_8"
	x1="337.38202"
	y1="627.54956"
	x2="524.6959"
	y2="642.51807" />
<polygon
	points="303.91452,554.58545 303.91452,118.01453 305.68698,109.833374 393.16644,322.60556 393.16644,364.4644 305.68698,567.33386 "
	id="face_37_60_61_75_74_36"
	style="fill:rgb(0,0,255);stroke:none"
	opacity="1.0" />
<line
	class="arc1"
	id="link36_@1_74"
	x1="303.91452"
	y1="554.58545"
	x2="305.68698"
	y2="567.33386" />
<line
	class="arc0"
	id="link36_@0_37"
	x1="303.91452"
	y1="554.58545"
	x2="303.91452"
	y2="118.01453" />
<line
	class="arc1"
	id="link33_@1_32"
	x1="326.79965"
	y1="73.08423"
	x2="310.95203"
	y2="105.76477" />
<line
	class="arc2"
	id="link33_@2_34"
	x1="326.79965"
	y1="73.08423"
	x2="335.60962"
	y2="52.65338" />
<polygon
	points="330.3445,618.8698 511.48083,631.30536 507.0759,599.66187 419.59637,386.8898 401.97644,385.89255 314.497,588.76196 "
	id="face_40_70_71_73_72_35"
	style="fill:rgb(192,192,192);stroke:none"
	opacity="1.0" />
<line
	class="arc1"
	id="link35_@1_72"
	x1="330.3445"
	y1="618.8698"
	x2="314.497"
	y2="588.76196" />
<line
	class="arc0"
	id="link35_@0_40"
	x1="330.3445"
	y1="618.8698"
	x2="511.48083"
	y2="631.30536" />
<line
	class="arc1"
	id="link34_@1_39"
	x1="335.60962"
	y1="52.65338"
	x2="337.38202"
	y2="44.47235" />
<line
	class="arc2"
	id="link32_@2_37"
	x1="310.95203"
	y1="105.76477"
	x2="303.91452"
	y2="118.01453" />
<line
	class="arc2"
	id="link74_@2_72"
	x1="305.68698"
	y1="567.33386"
	x2="314.497"
	y2="588.76196" />
<line
	class="arc0"
	id="link74_@0_75"
	x1="305.68698"
	y1="567.33386"
	x2="393.16644"
	y2="364.4644" />
<line
	class="arc0"
	id="link72_@0_73"
	x1="314.497"
	y1="588.76196"
	x2="401.97644"
	y2="385.89255" />
<line
	class="arc1"
	id="link37_@1_60"
	x1="303.91452"
	y1="118.01453"
	x2="305.68698"
	y2="109.833374" />
<line
	class="arc2"
	id="link39_@2_38"
	x1="337.38202"
	y1="44.47235"
	x2="330.3445"
	y2="56.722046" />
<line
	class="arc0"
	id="link39_@0_44"
	x1="337.38202"
	y1="44.47235"
	x2="524.6959"
	y2="59.440857" />
<polygon
	points="330.3445,56.722046 511.48083,69.15765 507.0759,100.30249 419.59637,303.17203 401.97644,302.17474 314.497,89.40265 "
	id="face_43_64_65_63_62_38"
	style="fill:rgb(192,192,192);stroke:none"
	opacity="1.0" />
<line
	class="arc1"
	id="link38_@1_62"
	x1="330.3445"
	y1="56.722046"
	x2="314.497"
	y2="89.40265" />
<line
	class="arc0"
	id="link38_@0_43"
	x1="330.3445"
	y1="56.722046"
	x2="511.48083"
	y2="69.15765" />
<line
	class="arc2"
	id="link60_@2_62"
	x1="305.68698"
	y1="109.833374"
	x2="314.497"
	y2="89.40265" />
<line
	class="arc0"
	id="link60_@0_61"
	x1="305.68698"
	y1="109.833374"
	x2="393.16644"
	y2="322.60556" />
<line
	class="arc0"
	id="link62_@0_63"
	x1="314.497"
	y1="89.40265"
	x2="401.97644"
	y2="302.17474" />
<line
	class="arc1"
	id="link75_@1_61"
	x1="393.16644"
	y1="364.4644"
	x2="393.16644"
	y2="322.60556" />
<line
	class="arc2"
	id="link75_@2_73"
	x1="393.16644"
	y1="364.4644"
	x2="401.97644"
	y2="385.89255" />
<line
	class="arc2"
	id="link61_@2_63"
	x1="393.16644"
	y1="322.60556"
	x2="401.97644"
	y2="302.17474" />
<line
	class="arc1"
	id="link73_@1_71"
	x1="401.97644"
	y1="385.89255"
	x2="419.59637"
	y2="386.8898" />
<line
	class="arc1"
	id="link63_@1_65"
	x1="401.97644"
	y1="302.17474"
	x2="419.59637"
	y2="303.17203" />
<line
	class="arc2"
	id="link71_@2_69"
	x1="419.59637"
	y1="386.8898"
	x2="428.4064"
	y2="366.45895" />
<line
	class="arc0"
	id="link71_@0_70"
	x1="419.59637"
	y1="386.8898"
	x2="507.0759"
	y2="599.66187" />
<line
	class="arc2"
	id="link65_@2_67"
	x1="419.59637"
	y1="303.17203"
	x2="428.4064"
	y2="324.6001" />
<line
	class="arc0"
	id="link65_@0_64"
	x1="419.59637"
	y1="303.17203"
	x2="507.0759"
	y2="100.30249" />
<polygon
	points="428.4064,366.45895 515.88586,579.231 533.5058,559.2988 533.5058,143.65735 515.88586,121.73059 428.4064,324.6001 "
	id="face_68_41_42_66_67_69"
	style="fill:rgb(192,192,192);stroke:none"
	opacity="1.0" />
<line
	class="arc1"
	id="link69_@1_67"
	x1="428.4064"
	y1="366.45895"
	x2="428.4064"
	y2="324.6001" />
<line
	class="arc0"
	id="link69_@0_68"
	x1="428.4064"
	y1="366.45895"
	x2="515.88586"
	y2="579.231" />
<line
	class="arc0"
	id="link67_@0_66"
	x1="428.4064"
	y1="324.6001"
	x2="515.88586"
	y2="121.73059" />
<line
	class="arc1"
	id="link40_@1_70"
	x1="511.48083"
	y1="631.30536"
	x2="507.0759"
	y2="599.66187" />
<line
	class="arc2"
	id="link40_@2_8"
	x1="511.48083"
	y1="631.30536"
	x2="524.6959"
	y2="642.51807" />
<line
	class="arc2"
	id="link70_@2_68"
	x1="507.0759"
	y1="599.66187"
	x2="515.88586"
	y2="579.231" />
<line
	class="arc1"
	id="link8_@1_9"
	x1="524.6959"
	y1="642.51807"
	x2="551.1258"
	y2="644.014" />
<line
	class="arc1"
	id="link68_@1_41"
	x1="515.88586"
	y1="579.231"
	x2="533.5058"
	y2="559.2988" />
<line
	class="arc2"
	id="link41_@2_46"
	x1="533.5058"
	y1="559.2988"
	x2="542.3158"
	y2="559.7975" />
<line
	class="arc0"
	id="link41_@0_42"
	x1="533.5058"
	y1="559.2988"
	x2="533.5058"
	y2="143.65735" />
<line
	class="arc2"
	id="link9_@2_45"
	x1="551.1258"
	y1="644.014"
	x2="564.3408"
	y2="634.29724" />
<line
	class="arc0"
	id="link9_@0_4"
	x1="551.1258"
	y1="644.014"
	x2="784.20984"
	y2="652.83984" />
<polygon
	points="542.3158,559.7975 542.3158,144.156 559.9358,124.223755 647.4152,336.99594 647.4152,378.85477 559.9358,581.72424 "
	id="face_47_82_83_85_84_46"
	style="fill:rgb(192,192,192);stroke:none"
	opacity="1.0" />
<line
	class="arc1"
	id="link46_@1_84"
	x1="542.3158"
	y1="559.7975"
	x2="559.9358"
	y2="581.72424" />
<line
	class="arc0"
	id="link46_@0_47"
	x1="542.3158"
	y1="559.7975"
	x2="542.3158"
	y2="144.156" />
<polygon
	points="564.3408,634.29724 768.36224,643.66144 761.3247,614.05225 673.8453,401.28018 656.2252,400.2829 568.7457,603.15234 "
	id="face_50_88_89_87_86_45"
	style="fill:rgb(192,192,192);stroke:none"
	opacity="1.0" />
<line
	class="arc1"
	id="link45_@1_86"
	x1="564.3408"
	y1="634.29724"
	x2="568.7457"
	y2="603.15234" />
<line
	class="arc0"
	id="link45_@0_50"
	x1="564.3408"
	y1="634.29724"
	x2="768.36224"
	y2="643.66144" />
<line
	class="arc2"
	id="link84_@2_86"
	x1="559.9358"
	y1="581.72424"
	x2="568.7457"
	y2="603.15234" />
<line
	class="arc0"
	id="link84_@0_85"
	x1="559.9358"
	y1="581.72424"
	x2="647.4152"
	y2="378.85477" />
<line
	class="arc0"
	id="link86_@0_87"
	x1="568.7457"
	y1="603.15234"
	x2="656.2252"
	y2="400.2829" />
<line
	class="arc1"
	id="link64_@1_43"
	x1="507.0759"
	y1="100.30249"
	x2="511.48083"
	y2="69.15765" />
<line
	class="arc2"
	id="link64_@2_66"
	x1="507.0759"
	y1="100.30249"
	x2="515.88586"
	y2="121.73059" />
<line
	class="arc1"
	id="link66_@1_42"
	x1="515.88586"
	y1="121.73059"
	x2="533.5058"
	y2="143.65735" />
<line
	class="arc2"
	id="link43_@2_44"
	x1="511.48083"
	y1="69.15765"
	x2="524.6959"
	y2="59.440857" />
<line
	class="arc2"
	id="link42_@2_47"
	x1="533.5058"
	y1="143.65735"
	x2="542.3158"
	y2="144.156" />
<line
	class="arc1"
	id="link44_@1_49"
	x1="524.6959"
	y1="59.440857"
	x2="551.1258"
	y2="60.93683" />
<line
	class="arc1"
	id="link47_@1_82"
	x1="542.3158"
	y1="144.156"
	x2="559.9358"
	y2="124.223755" />
<line
	class="arc2"
	id="link49_@2_48"
	x1="551.1258"
	y1="60.93683"
	x2="564.3408"
	y2="72.149475" />
<line
	class="arc0"
	id="link49_@0_54"
	x1="551.1258"
	y1="60.93683"
	x2="784.20984"
	y2="69.762634" />
<line
	class="arc2"
	id="link82_@2_80"
	x1="559.9358"
	y1="124.223755"
	x2="568.7457"
	y2="103.79303" />
<line
	class="arc0"
	id="link82_@0_83"
	x1="559.9358"
	y1="124.223755"
	x2="647.4152"
	y2="336.99594" />
<polygon
	points="564.3408,72.149475 768.36224,81.51367 761.3247,114.69287 673.8453,317.5624 656.2252,316.5651 568.7457,103.79303 "
	id="face_53_78_79_81_80_48"
	style="fill:rgb(192,192,192);stroke:none"
	opacity="1.0" />
<line
	class="arc1"
	id="link48_@1_80"
	x1="564.3408"
	y1="72.149475"
	x2="568.7457"
	y2="103.79303" />
<line
	class="arc0"
	id="link48_@0_53"
	x1="564.3408"
	y1="72.149475"
	x2="768.36224"
	y2="81.51367" />
<line
	class="arc0"
	id="link80_@0_81"
	x1="568.7457"
	y1="103.79303"
	x2="656.2252"
	y2="316.5651" />
<line
	class="arc1"
	id="link85_@1_83"
	x1="647.4152"
	y1="378.85477"
	x2="647.4152"
	y2="336.99594" />
<line
	class="arc2"
	id="link85_@2_87"
	x1="647.4152"
	y1="378.85477"
	x2="656.2252"
	y2="400.2829" />
<line
	class="arc2"
	id="link83_@2_81"
	x1="647.4152"
	y1="336.99594"
	x2="656.2252"
	y2="316.5651" />
<line
	class="arc1"
	id="link87_@1_89"
	x1="656.2252"
	y1="400.2829"
	x2="673.8453"
	y2="401.28018" />
<line
	class="arc1"
	id="link5_@1_4"
	x1="808.8673"
	y1="641.58734"
	x2="784.20984"
	y2="652.83984" />
<line
	class="arc2"
	id="link5_@2_55"
	x1="808.8673"
	y1="641.58734"
	x2="817.67725"
	y2="621.1565" />
<line
	class="arc1"
	id="link81_@1_79"
	x1="656.2252"
	y1="316.5651"
	x2="673.8453"
	y2="317.5624" />
<line
	class="arc2"
	id="link4_@2_50"
	x1="784.20984"
	y1="652.83984"
	x2="768.36224"
	y2="643.66144" />
<line
	class="arc1"
	id="link55_@1_56"
	x1="817.67725"
	y1="621.1565"
	x2="810.63983"
	y2="591.5473" />
<line
	class="arc2"
	id="link89_@2_91"
	x1="673.8453"
	y1="401.28018"
	x2="682.6551"
	y2="380.84933" />
<line
	class="arc0"
	id="link89_@0_88"
	x1="673.8453"
	y1="401.28018"
	x2="761.3247"
	y2="614.05225" />
<line
	class="arc2"
	id="link79_@2_77"
	x1="673.8453"
	y1="317.5624"
	x2="682.6551"
	y2="338.99048" />
<line
	class="arc0"
	id="link79_@0_78"
	x1="673.8453"
	y1="317.5624"
	x2="761.3247"
	y2="114.69287" />
<polygon
	points="682.6551,380.84933 770.13477,593.6214 794.7921,582.36896 794.7921,145.79797 770.13477,136.12097 682.6551,338.99048 "
	id="face_90_51_52_76_77_91"
	style="fill:rgb(0,0,255);stroke:none"
	opacity="1.0" />
<line
	class="arc1"
	id="link91_@1_77"
	x1="682.6551"
	y1="380.84933"
	x2="682.6551"
	y2="338.99048" />
<line
	class="arc0"
	id="link91_@0_90"
	x1="682.6551"
	y1="380.84933"
	x2="770.13477"
	y2="593.6214" />
<line
	class="arc0"
	id="link77_@0_76"
	x1="682.6551"
	y1="338.99048"
	x2="770.13477"
	y2="136.12097" />
<line
	class="arc1"
	id="link50_@1_88"
	x1="768.36224"
	y1="643.66144"
	x2="761.3247"
	y2="614.05225" />
<line
	class="arc2"
	id="link56_@2_51"
	x1="810.63983"
	y1="591.5473"
	x2="794.7921"
	y2="582.36896" />
<line
	class="arc0"
	id="link56_@0_57"
	x1="810.63983"
	y1="591.5473"
	x2="810.63983"
	y2="134.04688" />
<line
	class="arc1"
	id="link51_@1_90"
	x1="794.7921"
	y1="582.36896"
	x2="770.13477"
	y2="593.6214" />
<line
	class="arc0"
	id="link51_@0_52"
	x1="794.7921"
	y1="582.36896"
	x2="794.7921"
	y2="145.79797" />
<line
	class="arc2"
	id="link88_@2_90"
	x1="761.3247"
	y1="614.05225"
	x2="770.13477"
	y2="593.6214" />
<line
	class="arc1"
	id="link59_@1_54"
	x1="808.8673"
	y1="79.439575"
	x2="784.20984"
	y2="69.762634" />
<line
	class="arc2"
	id="link59_@2_58"
	x1="808.8673"
	y1="79.439575"
	x2="817.67725"
	y2="100.867676" />
<line
	class="arc1"
	id="link58_@1_57"
	x1="817.67725"
	y1="100.867676"
	x2="810.63983"
	y2="134.04688" />
<line
	class="arc2"
	id="link54_@2_53"
	x1="784.20984"
	y1="69.762634"
	x2="768.36224"
	y2="81.51367" />
<line
	class="arc2"
	id="link57_@2_52"
	x1="810.63983"
	y1="134.04688"
	x2="794.7921"
	y2="145.79797" />
<line
	class="arc1"
	id="link53_@1_78"
	x1="768.36224"
	y1="81.51367"
	x2="761.3247"
	y2="114.69287" />
<line
	class="arc1"
	id="link52_@1_76"
	x1="794.7921"
	y1="145.79797"
	x2="770.13477"
	y2="136.12097" />
<line
	class="arc2"
	id="link78_@2_76"
	x1="761.3247"
	y1="114.69287"
	x2="770.13477"
	y2="136.12097" />
</svg>
