<?xml version="1.0" encoding="UTF-8" standalone="no"?>
<!-- Created with Jerboa -->

<svg
   width="372.23712"
   height="604.32275"
   version="1.1"
   id="svg22504"
   sodipodi:docname="4-reevaluation-extrusion.svg"
   inkscape:version="1.2.2 (b0a8486541, 2022-12-01)"
   xmlns:inkscape="http://www.inkscape.org/namespaces/inkscape"
   xmlns:sodipodi="http://sodipodi.sourceforge.net/DTD/sodipodi-0.dtd"
   xmlns="http://www.w3.org/2000/svg"
   xmlns:svg="http://www.w3.org/2000/svg">
  <defs
     id="defs22508" />
  <sodipodi:namedview
     id="namedview22506"
     pagecolor="#ffffff"
     bordercolor="#000000"
     borderopacity="0.25"
     inkscape:showpageshadow="2"
     inkscape:pageopacity="0.0"
     inkscape:pagecheckerboard="0"
     inkscape:deskcolor="#d1d1d1"
     showgrid="false"
     inkscape:zoom="4"
     inkscape:cx="127.625"
     inkscape:cy="517.75"
     inkscape:window-width="1908"
     inkscape:window-height="1051"
     inkscape:window-x="1085"
     inkscape:window-y="22"
     inkscape:window-maximized="1"
     inkscape:current-layer="g3536" />
  <style
     id="style">
		.arc0 {
			fill:none;
			fill-rule:evenodd;
			stroke:black;
			stroke-width:4;
			stroke-linecap:round;
			stroke-linejoin:round;
			stroke-opacity:1;
		}
		.arc1 {
			fill:none;
			fill-rule:evenodd;
			stroke:red;
			stroke-width:4;
			stroke-linecap:round;
			stroke-linejoin:round;
			stroke-opacity:1;
		}
		.arc2 {
			fill:none;
			fill-rule:evenodd;
			stroke:blue;
			stroke-width:4;
			stroke-linecap:round;
			stroke-linejoin:round;
			stroke-opacity:1;
		}
		.arc3 {
			fill:none;
			fill-rule:evenodd;
			stroke:green;
			stroke-width:4;
			stroke-linecap:round;
			stroke-linejoin:round;
			stroke-opacity:1;
		}
		.topological-dart {
			fill:#000000;
			stroke:#000000;
			stroke-width:0;
			stroke-linecap:round;
			stroke-linejoin:round;
			stroke-dasharray:none;
			paint-order:markers fill stroke;
		}
	</style>
  <polygon
     points="751.86115,347.7623 887.5763,355.44373 917.8641,393.13452 917.8641,554.3405 887.5763,588.6028 751.86115,580.9214 721.5734,543.2305 721.5734,382.02457 "
     id="face_22_23_18_17_16_15_20_21"
     style="fill:#c0c0c0;stroke:none"
     opacity="1"
     transform="translate(-554.26355,-29.006775)" />
  <line
     class="arc1"
     id="link21_@1_20"
     x1="167.30988"
     y1="514.22375"
     x2="197.5976"
     y2="551.91461" />
  <line
     class="arc2"
     id="link21_@2_26"
     x1="167.30988"
     y1="514.22375"
     x2="136.08685"
     y2="514.80219" />
  <line
     class="arc0"
     id="link21_@0_22"
     x1="167.30988"
     y1="514.22375"
     x2="167.30988"
     y2="353.01779" />
  <polygon
     points="670.68134,349.2662 578.7609,360.88025 559.09186,399.49655 559.09186,560.7025 578.7609,594.03937 670.68134,582.4253 690.3504,543.80896 690.3504,382.603 "
     id="face_27_28_33_32_31_30_25_26"
     style="fill:#c0c0c0;stroke:none"
     opacity="1"
     transform="translate(-554.26355,-29.006775)" />
  <line
     class="arc1"
     id="link26_@1_25"
     x1="136.08685"
     y1="514.80219"
     x2="116.41779"
     y2="553.41852" />
  <line
     class="arc0"
     id="link26_@0_27"
     x1="136.08685"
     y1="514.80219"
     x2="136.08685"
     y2="353.59622" />
  <line
     class="arc1"
     id="link22_@1_23"
     x1="167.30988"
     y1="353.01779"
     x2="197.5976"
     y2="318.75552" />
  <line
     class="arc2"
     id="link22_@2_27"
     x1="167.30988"
     y1="353.01779"
     x2="136.08685"
     y2="353.59622" />
  <line
     class="arc2"
     id="link20_@2_0"
     x1="197.5976"
     y1="551.91461"
     x2="183.82928"
     y2="576.24774" />
  <line
     class="arc0"
     id="link20_@0_15"
     x1="197.5976"
     y1="551.91461"
     x2="333.31274"
     y2="559.59601" />
  <line
     class="arc1"
     id="link27_@1_28"
     x1="136.08685"
     y1="353.59622"
     x2="116.41779"
     y2="320.25943" />
  <polygon
     points="751.86115,51.644165 887.5763,59.325623 917.8641,97.01642 917.8641,258.22244 887.5763,292.48477 751.86115,284.80338 721.5734,247.11249 721.5734,85.90643 "
     id="face_105_106_112_111_110_109_103_104"
     style="fill:#c0c0c0;stroke:none"
     opacity="1"
     transform="translate(-554.26355,-29.006775)" />
  <line
     class="arc1"
     id="link104_@1_103"
     x1="167.30988"
     y1="218.10571"
     x2="197.5976"
     y2="255.7966" />
  <line
     class="arc2"
     id="link104_@2_98"
     x1="167.30988"
     y1="218.10571"
     x2="136.08685"
     y2="218.68411" />
  <line
     class="arc0"
     id="link104_@0_105"
     x1="167.30988"
     y1="218.10571"
     x2="167.30988"
     y2="56.899658" />
  <polygon
     points="670.68134,53.148132 578.7609,64.762146 559.09186,103.37842 559.09186,264.58447 578.7609,297.92133 670.68134,286.30725 690.3504,247.69089 690.3504,86.48486 "
     id="face_99_100_94_93_92_91_97_98"
     style="fill:#c0c0c0;stroke:none"
     opacity="1"
     transform="translate(-554.26355,-29.006775)" />
  <line
     class="arc1"
     id="link98_@1_97"
     x1="136.08685"
     y1="218.68411"
     x2="116.41779"
     y2="257.30048" />
  <line
     class="arc0"
     id="link98_@0_99"
     x1="136.08685"
     y1="218.68411"
     x2="136.08685"
     y2="57.478088" />
  <line
     class="arc2"
     id="link25_@2_1"
     x1="116.41779"
     y1="553.41852"
     x2="133.87244"
     y2="577.17328" />
  <line
     class="arc0"
     id="link25_@0_30"
     x1="116.41779"
     y1="553.41852"
     x2="24.497375"
     y2="565.03259" />
  <polygon
     points="884.4265,617.29 803.8641,629.54694 769.05115,631.3295 683.7871,628.3801 653.4994,626.66583 587.90436,621.0767 592.42957,617.57983 688.136,606.18005 738.09283,605.2545 873.808,612.936 "
     id="face_7_6_5_4_9_8_3_2_1_0"
     style="fill:#c0c0c0;stroke:none"
     opacity="1"
     transform="translate(-554.26355,-29.006775)" />
  <line
     class="arc1"
     id="link0_@1_1"
     x1="183.82928"
     y1="576.24774"
     x2="133.87244"
     y2="577.17328" />
  <line
     class="arc0"
     id="link0_@0_7"
     x1="183.82928"
     y1="576.24774"
     x2="319.54443"
     y2="583.9292" />
  <line
     class="arc2"
     id="link23_@2_24"
     x1="197.5976"
     y1="318.75552"
     x2="183.82928"
     y2="298.11804" />
  <line
     class="arc0"
     id="link23_@0_18"
     x1="197.5976"
     y1="318.75552"
     x2="333.31274"
     y2="326.43695" />
  <line
     class="arc1"
     id="link105_@1_106"
     x1="167.30988"
     y1="56.899658"
     x2="197.5976"
     y2="22.63739" />
  <line
     class="arc2"
     id="link105_@2_99"
     x1="167.30988"
     y1="56.899658"
     x2="136.08685"
     y2="57.478088" />
  <line
     class="arc2"
     id="link103_@2_102"
     x1="197.5976"
     y1="255.7966"
     x2="183.82928"
     y2="280.12979" />
  <line
     class="arc0"
     id="link103_@0_109"
     x1="197.5976"
     y1="255.7966"
     x2="333.31274"
     y2="263.478" />
  <line
     class="arc0"
     id="link1_@0_2"
     x1="133.87244"
     y1="577.17328"
     x2="38.166016"
     y2="588.57306" />
  <line
     class="arc1"
     id="link99_@1_100"
     x1="136.08685"
     y1="57.478088"
     x2="116.41779"
     y2="24.141357" />
  <line
     class="arc2"
     id="link28_@2_29"
     x1="116.41779"
     y1="320.25943"
     x2="133.87244"
     y2="299.04349" />
  <line
     class="arc0"
     id="link28_@0_33"
     x1="116.41779"
     y1="320.25943"
     x2="24.497375"
     y2="331.87347" />
  <line
     class="arc2"
     id="link97_@2_96"
     x1="116.41779"
     y1="257.30048"
     x2="133.87244"
     y2="281.05524" />
  <line
     class="arc0"
     id="link97_@0_91"
     x1="116.41779"
     y1="257.30048"
     x2="24.497375"
     y2="268.91455" />
  <polygon
     points="884.4265,339.16025 803.8641,351.41714 769.05115,353.19977 683.7871,350.25037 653.4994,348.5361 587.90436,342.94696 592.42957,339.45004 688.136,328.05026 738.09283,327.12482 873.808,334.8062 "
     id="face_19_14_59_54_49_44_39_34_29_24"
     style="fill:#c0c0c0;stroke:none"
     opacity="1"
     transform="translate(-554.26355,-29.006775)" />
  <line
     class="arc1"
     id="link24_@1_29"
     x1="183.82928"
     y1="298.11804"
     x2="133.87244"
     y2="299.04349" />
  <line
     class="arc3"
     id="link24_@3_102"
     x1="183.82928"
     y1="298.11804"
     x2="183.82928"
     y2="280.12979" />
  <line
     class="arc0"
     id="link24_@0_19"
     x1="183.82928"
     y1="298.11804"
     x2="319.54443"
     y2="305.79944" />
  <line
     class="arc1"
     id="link102_@1_96"
     x1="183.82928"
     y1="280.12979"
     x2="133.87244"
     y2="281.05524" />
  <line
     class="arc0"
     id="link102_@0_108"
     x1="183.82928"
     y1="280.12979"
     x2="319.54443"
     y2="287.81116" />
  <line
     class="arc2"
     id="link106_@2_107"
     x1="197.5976"
     y1="22.63739"
     x2="183.82928"
     y2="2" />
  <line
     class="arc0"
     id="link106_@0_112"
     x1="197.5976"
     y1="22.63739"
     x2="333.31274"
     y2="30.318848" />
  <line
     class="arc3"
     id="link29_@3_96"
     x1="133.87244"
     y1="299.04349"
     x2="133.87244"
     y2="281.05524" />
  <line
     class="arc0"
     id="link29_@0_34"
     x1="133.87244"
     y1="299.04349"
     x2="38.166016"
     y2="310.44327" />
  <line
     class="arc0"
     id="link96_@0_90"
     x1="133.87244"
     y1="281.05524"
     x2="38.166016"
     y2="292.45502" />
  <line
     class="arc2"
     id="link100_@2_101"
     x1="116.41779"
     y1="24.141357"
     x2="133.87244"
     y2="2.9254761" />
  <line
     class="arc0"
     id="link100_@0_94"
     x1="116.41779"
     y1="24.141357"
     x2="24.497375"
     y2="35.755371" />
  <polygon
     points="884.4265,43.042175 803.8641,55.299133 769.05115,57.081726 683.7871,54.132324 653.4994,52.41809 587.90436,46.82892 592.42957,43.33203 688.136,31.932251 738.09283,31.006775 873.808,38.68817 "
     id="face_113_119_65_71_77_83_89_95_101_107"
     style="fill:#c0c0c0;stroke:none"
     opacity="1"
     transform="translate(-554.26355,-29.006775)" />
  <line
     class="arc1"
     id="link107_@1_101"
     x1="183.82928"
     y1="2"
     x2="133.87244"
     y2="2.9254761" />
  <line
     class="arc0"
     id="link107_@0_113"
     x1="183.82928"
     y1="2"
     x2="319.54443"
     y2="9.6813965" />
  <line
     class="arc0"
     id="link101_@0_95"
     x1="133.87244"
     y1="2.9254761"
     x2="38.166016"
     y2="14.325256" />
  <line
     class="arc1"
     id="link15_@1_16"
     x1="333.31274"
     y1="559.59601"
     x2="363.60052"
     y2="525.33374" />
  <line
     class="arc2"
     id="link15_@2_7"
     x1="333.31274"
     y1="559.59601"
     x2="319.54443"
     y2="583.9292" />
  <line
     class="arc1"
     id="link7_@1_6"
     x1="319.54443"
     y1="583.9292"
     x2="330.16296"
     y2="588.2832" />
  <line
     class="arc1"
     id="link18_@1_17"
     x1="333.31274"
     y1="326.43695"
     x2="363.60052"
     y2="364.12775" />
  <line
     class="arc2"
     id="link18_@2_19"
     x1="333.31274"
     y1="326.43695"
     x2="319.54443"
     y2="305.79944" />
  <line
     class="arc2"
     id="link16_@2_11"
     x1="363.60052"
     y1="525.33374"
     x2="370.23712"
     y2="528.05499" />
  <line
     class="arc0"
     id="link16_@0_17"
     x1="363.60052"
     y1="525.33374"
     x2="363.60052"
     y2="364.12775" />
  <line
     class="arc1"
     id="link109_@1_110"
     x1="333.31274"
     y1="263.478"
     x2="363.60052"
     y2="229.21567" />
  <line
     class="arc2"
     id="link109_@2_108"
     x1="333.31274"
     y1="263.478"
     x2="319.54443"
     y2="287.81116" />
  <line
     class="arc2"
     id="link17_@2_12"
     x1="363.60052"
     y1="364.12775"
     x2="370.23712"
     y2="366.849" />
  <line
     class="arc1"
     id="link19_@1_14"
     x1="319.54443"
     y1="305.79944"
     x2="330.16296"
     y2="310.15347" />
  <line
     class="arc3"
     id="link19_@3_108"
     x1="319.54443"
     y1="305.79944"
     x2="319.54443"
     y2="287.81116" />
  <line
     class="arc1"
     id="link108_@1_114"
     x1="319.54443"
     y1="287.81116"
     x2="330.16296"
     y2="292.16519" />
  <polygon
     points="884.4265,321.17197 803.8641,333.4289 769.05115,335.21152 683.7871,332.2621 653.4994,330.54782 587.90436,324.95868 592.42957,321.4618 688.136,310.062 738.09283,309.13657 873.808,316.81793 "
     id="face_108_114_60_66_72_78_84_90_96_102"
     style="fill:#c0c0c0;stroke:none"
     opacity="1"
     transform="translate(-554.26355,-29.006775)" />
  <line
     class="arc1"
     id="link112_@1_111"
     x1="333.31274"
     y1="30.318848"
     x2="363.60052"
     y2="68.009644" />
  <line
     class="arc2"
     id="link112_@2_113"
     x1="333.31274"
     y1="30.318848"
     x2="319.54443"
     y2="9.6813965" />
  <line
     class="arc2"
     id="link110_@2_116"
     x1="363.60052"
     y1="229.21567"
     x2="370.23712"
     y2="231.93689" />
  <line
     class="arc0"
     id="link110_@0_111"
     x1="363.60052"
     y1="229.21567"
     x2="363.60052"
     y2="68.009644" />
  <polygon
     points="904.8316,362.51898 820.48315,374.5616 800.8141,413.17792 800.8141,574.3839 820.48315,607.7207 904.8316,595.6781 924.5007,557.06177 924.5007,395.85577 "
     id="face_12_13_58_57_56_55_10_11"
     style="fill:#c0c0c0;stroke:none"
     opacity="1"
     transform="translate(-554.26355,-29.006775)" />
  <line
     class="arc1"
     id="link11_@1_10"
     x1="370.23712"
     y1="528.05499"
     x2="350.56805"
     y2="566.67133" />
  <line
     class="arc0"
     id="link11_@0_12"
     x1="370.23712"
     y1="528.05499"
     x2="370.23712"
     y2="366.849" />
  <line
     class="arc1"
     id="link30_@1_31"
     x1="24.497375"
     y1="565.03259"
     x2="4.8283081"
     y2="531.69574" />
  <line
     class="arc2"
     id="link30_@2_2"
     x1="24.497375"
     y1="565.03259"
     x2="38.166016"
     y2="588.57306" />
  <circle
     id="dart30"
     cx="24.497375"
     cy="565.03259"
     r="10"
     stroke="#000000"
     fill="#000000" />
  <line
     class="arc2"
     id="link111_@2_117"
     x1="363.60052"
     y1="68.009644"
     x2="370.23712"
     y2="70.730896" />
  <line
     class="arc1"
     id="link12_@1_13"
     x1="370.23712"
     y1="366.849"
     x2="350.56805"
     y2="333.51221" />
  <line
     class="arc2"
     id="link6_@2_10"
     x1="330.16296"
     y1="588.2832"
     x2="350.56805"
     y2="566.67133" />
  <line
     class="arc0"
     id="link6_@0_5"
     x1="330.16296"
     y1="588.2832"
     x2="249.60052"
     y2="600.54016" />
  <line
     class="arc1"
     id="link113_@1_119"
     x1="319.54443"
     y1="9.6813965"
     x2="330.16296"
     y2="14.0354" />
  <line
     class="arc1"
     id="link2_@1_3"
     x1="38.166016"
     y1="588.57306"
     x2="33.640808"
     y2="592.06995" />
  <polygon
     points="904.8316,66.40088 820.48315,78.44354 800.8141,117.05981 800.8141,278.26584 820.48315,311.6027 904.8316,299.56006 924.5007,260.94366 924.5007,99.73767 "
     id="face_117_118_64_63_62_61_115_116"
     style="fill:#c0c0c0;stroke:none"
     opacity="1"
     transform="translate(-554.26355,-29.006775)" />
  <line
     class="arc1"
     id="link116_@1_115"
     x1="370.23712"
     y1="231.93689"
     x2="350.56805"
     y2="270.55328" />
  <line
     class="arc0"
     id="link116_@0_117"
     x1="370.23712"
     y1="231.93689"
     x2="370.23712"
     y2="70.730896" />
  <line
     class="arc0"
     id="link10_@0_55"
     x1="350.56805"
     y1="566.67133"
     x2="266.2196"
     y2="578.71393" />
  <line
     class="arc1"
     id="link33_@1_32"
     x1="24.497375"
     y1="331.87347"
     x2="4.8283081"
     y2="370.48978" />
  <line
     class="arc2"
     id="link33_@2_34"
     x1="24.497375"
     y1="331.87347"
     x2="38.166016"
     y2="310.44327" />
  <line
     class="arc1"
     id="link91_@1_92"
     x1="24.497375"
     y1="268.91455"
     x2="4.8283081"
     y2="235.5777" />
  <line
     class="arc2"
     id="link91_@2_90"
     x1="24.497375"
     y1="268.91455"
     x2="38.166016"
     y2="292.45502" />
  <line
     class="arc2"
     id="link14_@2_13"
     x1="330.16296"
     y1="310.15347"
     x2="350.56805"
     y2="333.51221" />
  <line
     class="arc3"
     id="link14_@3_114"
     x1="330.16296"
     y1="310.15347"
     x2="330.16296"
     y2="292.16519" />
  <line
     class="arc0"
     id="link14_@0_59"
     x1="330.16296"
     y1="310.15347"
     x2="249.60052"
     y2="322.41037" />
  <line
     class="arc1"
     id="link117_@1_118"
     x1="370.23712"
     y1="70.730896"
     x2="350.56805"
     y2="37.394104" />
  <line
     class="arc2"
     id="link31_@2_36"
     x1="4.8283081"
     y1="531.69574"
     x2="2"
     y2="533.88129" />
  <line
     class="arc0"
     id="link31_@0_32"
     x1="4.8283081"
     y1="531.69574"
     x2="4.8283081"
     y2="370.48978" />
  <line
     class="arc2"
     id="link114_@2_115"
     x1="330.16296"
     y1="292.16519"
     x2="350.56805"
     y2="270.55328" />
  <line
     class="arc0"
     id="link114_@0_60"
     x1="330.16296"
     y1="292.16519"
     x2="249.60052"
     y2="304.42212" />
  <line
     class="arc1"
     id="link34_@1_39"
     x1="38.166016"
     y1="310.44327"
     x2="33.640808"
     y2="313.94019" />
  <line
     class="arc3"
     id="link34_@3_90"
     x1="38.166016"
     y1="310.44327"
     x2="38.166016"
     y2="292.45502" />
  <line
     class="arc1"
     id="link90_@1_84"
     x1="38.166016"
     y1="292.45502"
     x2="33.640808"
     y2="295.9519" />
  <line
     class="arc0"
     id="link13_@0_58"
     x1="350.56805"
     y1="333.51221"
     x2="266.2196"
     y2="345.55484" />
  <line
     class="arc0"
     id="link115_@0_61"
     x1="350.56805"
     y1="270.55328"
     x2="266.2196"
     y2="282.59592" />
  <line
     class="arc1"
     id="link94_@1_93"
     x1="24.497375"
     y1="35.755371"
     x2="4.8283081"
     y2="74.371643" />
  <line
     class="arc2"
     id="link94_@2_95"
     x1="24.497375"
     y1="35.755371"
     x2="38.166016"
     y2="14.325256" />
  <line
     class="arc2"
     id="link32_@2_37"
     x1="4.8283081"
     y1="370.48978"
     x2="2"
     y2="372.67532" />
  <line
     class="arc2"
     id="link3_@2_35"
     x1="33.640808"
     y1="592.06995"
     x2="17.143921"
     y2="570.71503" />
  <line
     class="arc0"
     id="link3_@0_8"
     x1="33.640808"
     y1="592.06995"
     x2="99.23584"
     y2="597.65906" />
  <line
     class="arc2"
     id="link119_@2_118"
     x1="330.16296"
     y1="14.0354"
     x2="350.56805"
     y2="37.394104" />
  <line
     class="arc0"
     id="link119_@0_65"
     x1="330.16296"
     y1="14.0354"
     x2="249.60052"
     y2="26.292358" />
  <polygon
     points="571.4075,366.5627 638.1338,371.27765 653.27765,408.11133 653.27765,569.31726 638.1338,604.4367 571.4075,599.7218 556.26355,562.88806 556.26355,401.6821 "
     id="face_37_38_43_42_41_40_35_36"
     style="fill:#c0c0c0;stroke:none"
     opacity="1"
     transform="translate(-554.26355,-29.006775)" />
  <line
     class="arc1"
     id="link36_@1_35"
     x1="2"
     y1="533.88129"
     x2="17.143921"
     y2="570.71503" />
  <line
     class="arc0"
     id="link36_@0_37"
     x1="2"
     y1="533.88129"
     x2="2"
     y2="372.67532" />
  <line
     class="arc2"
     id="link92_@2_86"
     x1="4.8283081"
     y1="235.5777"
     x2="2"
     y2="237.76324" />
  <line
     class="arc0"
     id="link92_@0_93"
     x1="4.8283081"
     y1="235.5777"
     x2="4.8283081"
     y2="74.371643" />
  <line
     class="arc1"
     id="link95_@1_89"
     x1="38.166016"
     y1="14.325256"
     x2="33.640808"
     y2="17.822144" />
  <line
     class="arc0"
     id="link35_@0_40"
     x1="17.143921"
     y1="570.71503"
     x2="83.870239"
     y2="575.42993" />
  <circle
     id="dart35"
     cx="17.143921"
     cy="570.71503"
     r="10"
     stroke="#000000"
     fill="#000000" />
  <line
     class="arc0"
     id="link118_@0_64"
     x1="350.56805"
     y1="37.394104"
     x2="266.2196"
     y2="49.436768" />
  <line
     class="arc1"
     id="link37_@1_38"
     x1="2"
     y1="372.67532"
     x2="17.143921"
     y2="337.55594" />
  <line
     class="arc2"
     id="link93_@2_87"
     x1="4.8283081"
     y1="74.371643"
     x2="2"
     y2="76.557182" />
  <line
     class="arc2"
     id="link39_@2_38"
     x1="33.640808"
     y1="313.94019"
     x2="17.143921"
     y2="337.55594" />
  <line
     class="arc3"
     id="link39_@3_84"
     x1="33.640808"
     y1="313.94019"
     x2="33.640808"
     y2="295.9519" />
  <line
     class="arc0"
     id="link39_@0_44"
     x1="33.640808"
     y1="313.94019"
     x2="99.23584"
     y2="319.52933" />
  <line
     class="arc2"
     id="link84_@2_85"
     x1="33.640808"
     y1="295.9519"
     x2="17.143921"
     y2="274.59698" />
  <line
     class="arc0"
     id="link84_@0_78"
     x1="33.640808"
     y1="295.9519"
     x2="99.23584"
     y2="301.54105" />
  <polygon
     points="571.4075,70.44458 638.1338,75.159546 653.27765,111.99316 653.27765,273.1992 638.1338,308.31873 571.4075,303.60376 556.26355,266.77002 556.26355,105.56396 "
     id="face_87_88_82_81_80_79_85_86"
     style="fill:#c0c0c0;stroke:none"
     opacity="1"
     transform="translate(-554.26355,-29.006775)" />
  <line
     class="arc1"
     id="link86_@1_85"
     x1="2"
     y1="237.76324"
     x2="17.143921"
     y2="274.59698" />
  <line
     class="arc0"
     id="link86_@0_87"
     x1="2"
     y1="237.76324"
     x2="2"
     y2="76.557182" />
  <line
     class="arc0"
     id="link38_@0_43"
     x1="17.143921"
     y1="337.55594"
     x2="83.870239"
     y2="342.27087" />
  <line
     class="arc0"
     id="link85_@0_79"
     x1="17.143921"
     y1="274.59698"
     x2="83.870239"
     y2="279.31195" />
  <line
     class="arc1"
     id="link87_@1_88"
     x1="2"
     y1="76.557182"
     x2="17.143921"
     y2="41.437805" />
  <line
     class="arc2"
     id="link89_@2_88"
     x1="33.640808"
     y1="17.822144"
     x2="17.143921"
     y2="41.437805" />
  <line
     class="arc0"
     id="link89_@0_83"
     x1="33.640808"
     y1="17.822144"
     x2="99.23584"
     y2="23.411316" />
  <line
     class="arc0"
     id="link88_@0_82"
     x1="17.143921"
     y1="41.437805"
     x2="83.870239"
     y2="46.152771" />
  <line
     class="arc1"
     id="link8_@1_9"
     x1="99.23584"
     y1="597.65906"
     x2="129.52356"
     y2="599.37335" />
  <line
     class="arc2"
     id="link8_@2_40"
     x1="99.23584"
     y1="597.65906"
     x2="83.870239"
     y2="575.42993" />
  <line
     class="arc1"
     id="link40_@1_41"
     x1="83.870239"
     y1="575.42993"
     x2="99.014099"
     y2="540.31049" />
  <line
     class="arc2"
     id="link41_@2_46"
     x1="99.014099"
     y1="540.31049"
     x2="117.94385"
     y2="541.38196" />
  <line
     class="arc0"
     id="link41_@0_42"
     x1="99.014099"
     y1="540.31049"
     x2="99.014099"
     y2="379.10455" />
  <line
     class="arc2"
     id="link9_@2_45"
     x1="129.52356"
     y1="599.37335"
     x2="133.08777"
     y2="578.21564" />
  <line
     class="arc0"
     id="link9_@0_4"
     x1="129.52356"
     y1="599.37335"
     x2="214.7876"
     y2="602.32275" />
  <line
     class="arc1"
     id="link44_@1_49"
     x1="99.23584"
     y1="319.52933"
     x2="129.52356"
     y2="321.24359" />
  <line
     class="arc2"
     id="link44_@2_43"
     x1="99.23584"
     y1="319.52933"
     x2="83.870239"
     y2="342.27087" />
  <line
     class="arc3"
     id="link44_@3_78"
     x1="99.23584"
     y1="319.52933"
     x2="99.23584"
     y2="301.54105" />
  <line
     class="arc1"
     id="link43_@1_42"
     x1="83.870239"
     y1="342.27087"
     x2="99.014099"
     y2="379.10455" />
  <line
     class="arc1"
     id="link78_@1_72"
     x1="99.23584"
     y1="301.54105"
     x2="129.52356"
     y2="303.25531" />
  <line
     class="arc2"
     id="link78_@2_79"
     x1="99.23584"
     y1="301.54105"
     x2="83.870239"
     y2="279.31195" />
  <polygon
     points="687.3513,374.06332 763.9122,377.45837 779.05597,414.29205 779.05597,575.49805 763.9122,610.61743 687.3513,607.2224 672.2074,570.38873 672.2074,409.18274 "
     id="face_47_48_53_52_51_50_45_46"
     style="fill:#c0c0c0;stroke:none"
     opacity="1"
     transform="translate(-554.26355,-29.006775)" />
  <line
     class="arc1"
     id="link46_@1_45"
     x1="117.94385"
     y1="541.38196"
     x2="133.08777"
     y2="578.21564" />
  <line
     class="arc0"
     id="link46_@0_47"
     x1="117.94385"
     y1="541.38196"
     x2="117.94385"
     y2="380.17596" />
  <line
     class="arc1"
     id="link79_@1_80"
     x1="83.870239"
     y1="279.31195"
     x2="99.014099"
     y2="244.19241" />
  <line
     class="arc2"
     id="link42_@2_47"
     x1="99.014099"
     y1="379.10455"
     x2="117.94385"
     y2="380.17596" />
  <line
     class="arc1"
     id="link5_@1_4"
     x1="249.60052"
     y1="600.54016"
     x2="214.7876"
     y2="602.32275" />
  <line
     class="arc2"
     id="link5_@2_55"
     x1="249.60052"
     y1="600.54016"
     x2="266.2196"
     y2="578.71393" />
  <line
     class="arc0"
     id="link45_@0_50"
     x1="133.08777"
     y1="578.21564"
     x2="209.64862"
     y2="581.61066" />
  <line
     class="arc1"
     id="link55_@1_56"
     x1="266.2196"
     y1="578.71393"
     x2="246.55054"
     y2="545.37714" />
  <line
     class="arc1"
     id="link47_@1_48"
     x1="117.94385"
     y1="380.17596"
     x2="133.08777"
     y2="345.05655" />
  <line
     class="arc2"
     id="link49_@2_48"
     x1="129.52356"
     y1="321.24359"
     x2="133.08777"
     y2="345.05655" />
  <line
     class="arc3"
     id="link49_@3_72"
     x1="129.52356"
     y1="321.24359"
     x2="129.52356"
     y2="303.25531" />
  <line
     class="arc0"
     id="link49_@0_54"
     x1="129.52356"
     y1="321.24359"
     x2="214.7876"
     y2="324.19299" />
  <line
     class="arc2"
     id="link80_@2_74"
     x1="99.014099"
     y1="244.19241"
     x2="117.94385"
     y2="245.26385" />
  <line
     class="arc0"
     id="link80_@0_81"
     x1="99.014099"
     y1="244.19241"
     x2="99.014099"
     y2="82.986382" />
  <line
     class="arc2"
     id="link72_@2_73"
     x1="129.52356"
     y1="303.25531"
     x2="133.08777"
     y2="282.09763" />
  <line
     class="arc0"
     id="link72_@0_66"
     x1="129.52356"
     y1="303.25531"
     x2="214.7876"
     y2="306.20474" />
  <line
     class="arc1"
     id="link83_@1_77"
     x1="99.23584"
     y1="23.411316"
     x2="129.52356"
     y2="25.125549" />
  <line
     class="arc2"
     id="link83_@2_82"
     x1="99.23584"
     y1="23.411316"
     x2="83.870239"
     y2="46.152771" />
  <line
     class="arc1"
     id="link82_@1_81"
     x1="83.870239"
     y1="46.152771"
     x2="99.014099"
     y2="82.986382" />
  <line
     class="arc2"
     id="link4_@2_50"
     x1="214.7876"
     y1="602.32275"
     x2="209.64862"
     y2="581.61066" />
  <polygon
     points="687.3513,77.94525 763.9122,81.34027 779.05597,118.17395 779.05597,279.37994 763.9122,314.49945 687.3513,311.1044 672.2074,274.27063 672.2074,113.06458 "
     id="face_75_76_70_69_68_67_73_74"
     style="fill:#c0c0c0;stroke:none"
     opacity="1"
     transform="translate(-554.26355,-29.006775)" />
  <line
     class="arc1"
     id="link74_@1_73"
     x1="117.94385"
     y1="245.26385"
     x2="133.08777"
     y2="282.09763" />
  <line
     class="arc0"
     id="link74_@0_75"
     x1="117.94385"
     y1="245.26385"
     x2="117.94385"
     y2="84.057808" />
  <line
     class="arc0"
     id="link48_@0_53"
     x1="133.08777"
     y1="345.05655"
     x2="209.64862"
     y2="348.4516" />
  <line
     class="arc1"
     id="link59_@1_54"
     x1="249.60052"
     y1="322.41037"
     x2="214.7876"
     y2="324.19299" />
  <line
     class="arc2"
     id="link59_@2_58"
     x1="249.60052"
     y1="322.41037"
     x2="266.2196"
     y2="345.55484" />
  <line
     class="arc3"
     id="link59_@3_60"
     x1="249.60052"
     y1="322.41037"
     x2="249.60052"
     y2="304.42212" />
  <line
     class="arc2"
     id="link81_@2_75"
     x1="99.014099"
     y1="82.986382"
     x2="117.94385"
     y2="84.057808" />
  <line
     class="arc1"
     id="link60_@1_66"
     x1="249.60052"
     y1="304.42212"
     x2="214.7876"
     y2="306.20474" />
  <line
     class="arc2"
     id="link60_@2_61"
     x1="249.60052"
     y1="304.42212"
     x2="266.2196"
     y2="282.59592" />
  <line
     class="arc0"
     id="link73_@0_67"
     x1="133.08777"
     y1="282.09763"
     x2="209.64862"
     y2="285.49268" />
  <line
     class="arc1"
     id="link58_@1_57"
     x1="266.2196"
     y1="345.55484"
     x2="246.55054"
     y2="384.17114" />
  <line
     class="arc1"
     id="link61_@1_62"
     x1="266.2196"
     y1="282.59592"
     x2="246.55054"
     y2="249.25906" />
  <line
     class="arc1"
     id="link75_@1_76"
     x1="117.94385"
     y1="84.057808"
     x2="133.08777"
     y2="48.938477" />
  <line
     class="arc2"
     id="link77_@2_76"
     x1="129.52356"
     y1="25.125549"
     x2="133.08777"
     y2="48.938477" />
  <line
     class="arc0"
     id="link77_@0_71"
     x1="129.52356"
     y1="25.125549"
     x2="214.7876"
     y2="28.074951" />
  <line
     class="arc1"
     id="link50_@1_51"
     x1="209.64862"
     y1="581.61066"
     x2="224.79242"
     y2="546.49127" />
  <circle
     id="dart50"
     cx="209.64862"
     cy="581.61066"
     r="10"
     stroke="#000000"
     fill="#000000" />
  <line
     class="arc2"
     id="link56_@2_51"
     x1="246.55054"
     y1="545.37714"
     x2="224.79242"
     y2="546.49127" />
  <line
     class="arc0"
     id="link56_@0_57"
     x1="246.55054"
     y1="545.37714"
     x2="246.55054"
     y2="384.17114" />
  <line
     class="arc2"
     id="link54_@2_53"
     x1="214.7876"
     y1="324.19299"
     x2="209.64862"
     y2="348.4516" />
  <line
     class="arc3"
     id="link54_@3_66"
     x1="214.7876"
     y1="324.19299"
     x2="214.7876"
     y2="306.20474" />
  <line
     class="arc2"
     id="link66_@2_67"
     x1="214.7876"
     y1="306.20474"
     x2="209.64862"
     y2="285.49268" />
  <line
     class="arc1"
     id="link65_@1_71"
     x1="249.60052"
     y1="26.292358"
     x2="214.7876"
     y2="28.074951" />
  <line
     class="arc2"
     id="link65_@2_64"
     x1="249.60052"
     y1="26.292358"
     x2="266.2196"
     y2="49.436768" />
  <line
     class="arc0"
     id="link76_@0_70"
     x1="133.08777"
     y1="48.938477"
     x2="209.64862"
     y2="52.333496" />
  <line
     class="arc0"
     id="link51_@0_52"
     x1="224.79242"
     y1="546.49127"
     x2="224.79242"
     y2="385.28528" />
  <line
     class="arc1"
     id="link64_@1_63"
     x1="266.2196"
     y1="49.436768"
     x2="246.55054"
     y2="88.053032" />
  <line
     class="arc2"
     id="link57_@2_52"
     x1="246.55054"
     y1="384.17114"
     x2="224.79242"
     y2="385.28528" />
  <line
     class="arc1"
     id="link53_@1_52"
     x1="209.64862"
     y1="348.4516"
     x2="224.79242"
     y2="385.28528" />
  <line
     class="arc2"
     id="link62_@2_68"
     x1="246.55054"
     y1="249.25906"
     x2="224.79242"
     y2="250.37317" />
  <line
     class="arc0"
     id="link62_@0_63"
     x1="246.55054"
     y1="249.25906"
     x2="246.55054"
     y2="88.053032" />
  <line
     class="arc1"
     id="link67_@1_68"
     x1="209.64862"
     y1="285.49268"
     x2="224.79242"
     y2="250.37317" />
  <line
     class="arc2"
     id="link71_@2_70"
     x1="214.7876"
     y1="28.074951"
     x2="209.64862"
     y2="52.333496" />
  <line
     class="arc0"
     id="link68_@0_69"
     x1="224.79242"
     y1="250.37317"
     x2="224.79242"
     y2="89.167175" />
  <line
     class="arc2"
     id="link63_@2_69"
     x1="246.55054"
     y1="88.053032"
     x2="224.79242"
     y2="89.167175" />
  <line
     class="arc1"
     id="link70_@1_69"
     x1="209.64862"
     y1="52.333496"
     x2="224.79242"
     y2="89.167175" />
  <g
     id="g3541"
     transform="translate(7.2705936,8.85495)">
    <rect
       style="fill:#fffffc;fill-opacity:1;stroke:none;stroke-width:7.29194;stroke-linecap:round;stroke-linejoin:round;stop-color:#000000"
       id="rect71319"
       width="58.226318"
       height="45.702057"
       x="20.373327"
       y="505.65802" />
    <text
       xml:space="preserve"
       style="font-style:normal;font-variant:normal;font-weight:normal;font-stretch:normal;font-size:58.6667px;font-family:'Liberation Serif';-inkscape-font-specification:'Liberation Serif, Normal';font-variant-ligatures:normal;font-variant-caps:normal;font-variant-numeric:normal;font-variant-east-asian:normal;fill:#00000b;fill-opacity:1;stroke:none;stroke-width:3.78;stroke-linecap:round;stroke-linejoin:round;stop-color:#000000"
       x="19.895325"
       y="547.64447"
       id="text74290"><tspan
         sodipodi:role="line"
         id="tspan74288"
         x="19.895325"
         y="547.64447">35</tspan></text>
  </g>
  <g
     id="g3536"
     transform="translate(-15.55975,11.127034)">
    <rect
       style="fill:#fffffc;fill-opacity:1;stroke:none;stroke-width:7.62028;stroke-linecap:round;stroke-linejoin:round;stop-color:#000000"
       id="rect71319-7"
       width="57.7146"
       height="50.352882"
       x="156.99377"
       y="509.63074" />
    <text
       xml:space="preserve"
       style="font-style:normal;font-variant:normal;font-weight:normal;font-stretch:normal;font-size:58.6667px;font-family:'Liberation Serif';-inkscape-font-specification:'Liberation Serif, Normal';font-variant-ligatures:normal;font-variant-caps:normal;font-variant-numeric:normal;font-variant-east-asian:normal;fill:#00000b;fill-opacity:1;stroke:none;stroke-width:3.78;stroke-linecap:round;stroke-linejoin:round;stop-color:#000000"
       x="155.93048"
       y="553.76776"
       id="text74658"><tspan
         sodipodi:role="line"
         id="tspan74656"
         x="155.93048"
         y="553.76776">50</tspan></text>
  </g>
</svg>
