<?xml version="1.0" encoding="UTF-8" standalone="no"?>
<!-- Created with Inkscape (http://www.inkscape.org/) -->

<svg
   version="1.1"
   id="svg28932"
   width="894.54028"
   height="894.91681"
   viewBox="0 0 894.54028 894.91681"
   sodipodi:docname="demo-fig-square-plan-contraction-G.svg"
   inkscape:version="1.2.2 (b0a8486541, 2022-12-01)"
   xmlns:inkscape="http://www.inkscape.org/namespaces/inkscape"
   xmlns:sodipodi="http://sodipodi.sourceforge.net/DTD/sodipodi-0.dtd"
   xmlns="http://www.w3.org/2000/svg"
   xmlns:svg="http://www.w3.org/2000/svg">
  <defs
     id="defs28936" />
  <sodipodi:namedview
     id="namedview28934"
     pagecolor="#ffffff"
     bordercolor="#000000"
     borderopacity="0.25"
     inkscape:showpageshadow="2"
     inkscape:pageopacity="0.0"
     inkscape:pagecheckerboard="0"
     inkscape:deskcolor="#d1d1d1"
     showgrid="false"
     inkscape:zoom="1.4080239"
     inkscape:cx="476.90951"
     inkscape:cy="363.27508"
     inkscape:window-width="1908"
     inkscape:window-height="1048"
     inkscape:window-x="1085"
     inkscape:window-y="25"
     inkscape:window-maximized="1"
     inkscape:current-layer="g28942">
    <inkscape:page
       x="0"
       y="0"
       id="page28938"
       width="894.54028"
       height="894.91681" />
  </sodipodi:namedview>
  <g
     id="g28940"
     inkscape:groupmode="layer"
     inkscape:label="Page 1"
     transform="matrix(1.3333333,0,0,1.3333333,0,2.3039587e-5)">
    <g
       id="g28942">
      <path
         d="m 47.707,573.922 49.555,49.551"
         style="fill:none;stroke:#888888;stroke-width:3;stroke-linecap:round;stroke-linejoin:round;stroke-miterlimit:4;stroke-dasharray:none;stroke-opacity:1"
         id="path28946" />
      <path
         d="M 47.707,573.922 V 409.926"
         style="fill:none;stroke:#888888;stroke-width:3;stroke-linecap:round;stroke-linejoin:round;stroke-miterlimit:4;stroke-dasharray:none;stroke-opacity:1"
         id="path28950" />
      <path
         d="M 97.262,623.473 H 261.258"
         style="fill:none;stroke:#888888;stroke-width:3;stroke-linecap:round;stroke-linejoin:round;stroke-miterlimit:4;stroke-dasharray:none;stroke-opacity:1"
         id="path28954" />
      <path
         d="m 261.258,623.473 49.551,-49.551"
         style="fill:none;stroke:#888888;stroke-width:3;stroke-linecap:round;stroke-linejoin:round;stroke-miterlimit:4;stroke-dasharray:none;stroke-opacity:1"
         id="path28958" />
      <path
         d="m 310.809,573.922 h 49.554"
         style="fill:none;stroke:#888888;stroke-width:3;stroke-linecap:round;stroke-linejoin:round;stroke-miterlimit:4;stroke-dasharray:none;stroke-opacity:1"
         id="path28962" />
      <path
         d="M 310.809,573.922 V 409.926"
         style="fill:none;stroke:#888888;stroke-width:3;stroke-linecap:round;stroke-linejoin:round;stroke-miterlimit:4;stroke-dasharray:none;stroke-opacity:1"
         id="path28966" />
      <path
         d="M 310.809,409.926 261.258,360.371"
         style="fill:none;stroke:#888888;stroke-width:3;stroke-linecap:round;stroke-linejoin:round;stroke-miterlimit:4;stroke-dasharray:none;stroke-opacity:1"
         id="path28970" />
      <path
         d="m 310.809,409.926 h 49.554"
         style="fill:none;stroke:#888888;stroke-width:3;stroke-linecap:round;stroke-linejoin:round;stroke-miterlimit:4;stroke-dasharray:none;stroke-opacity:1"
         id="path28974" />
      <path
         d="M 261.258,360.371 V 310.816"
         style="fill:none;stroke:#888888;stroke-width:3;stroke-linecap:round;stroke-linejoin:round;stroke-miterlimit:4;stroke-dasharray:none;stroke-opacity:1"
         id="path28978" />
      <path
         d="M 261.258,360.371 H 97.262"
         style="fill:none;stroke:#888888;stroke-width:3;stroke-linecap:round;stroke-linejoin:round;stroke-miterlimit:4;stroke-dasharray:none;stroke-opacity:1"
         id="path28982" />
      <path
         d="M 97.262,360.371 47.707,409.926"
         style="fill:none;stroke:#888888;stroke-width:3;stroke-linecap:round;stroke-linejoin:round;stroke-miterlimit:4;stroke-dasharray:none;stroke-opacity:1"
         id="path28986" />
      <path
         d="M 97.262,360.371 V 310.816"
         style="fill:none;stroke:#888888;stroke-width:3;stroke-linecap:round;stroke-linejoin:round;stroke-miterlimit:4;stroke-dasharray:none;stroke-opacity:1"
         id="path28990" />
      <path
         d="m 360.363,409.926 49.555,-49.555"
         style="fill:none;stroke:#888888;stroke-width:3;stroke-linecap:round;stroke-linejoin:round;stroke-miterlimit:4;stroke-dasharray:none;stroke-opacity:1"
         id="path28994" />
      <path
         d="M 360.363,409.926 V 573.922"
         style="fill:none;stroke:#888888;stroke-width:3;stroke-linecap:round;stroke-linejoin:round;stroke-miterlimit:4;stroke-dasharray:none;stroke-opacity:1"
         id="path28998" />
      <path
         d="M 409.918,360.371 V 310.816"
         style="fill:none;stroke:#888888;stroke-width:3;stroke-linecap:round;stroke-linejoin:round;stroke-miterlimit:4;stroke-dasharray:none;stroke-opacity:1"
         id="path29002" />
      <path
         d="M 409.918,360.371 H 573.914"
         style="fill:none;stroke:#888888;stroke-width:3;stroke-linecap:round;stroke-linejoin:round;stroke-miterlimit:4;stroke-dasharray:none;stroke-opacity:1"
         id="path29006" />
      <path
         d="m 573.914,360.371 49.555,49.555"
         style="fill:none;stroke:#888888;stroke-width:3;stroke-linecap:round;stroke-linejoin:round;stroke-miterlimit:4;stroke-dasharray:none;stroke-opacity:1"
         id="path29010" />
      <path
         d="M 573.914,360.371 V 310.816"
         style="fill:none;stroke:#888888;stroke-width:3;stroke-linecap:round;stroke-linejoin:round;stroke-miterlimit:4;stroke-dasharray:none;stroke-opacity:1"
         id="path29014" />
      <path
         d="M 623.469,409.926 V 573.922"
         style="fill:none;stroke:#888888;stroke-width:3;stroke-linecap:round;stroke-linejoin:round;stroke-miterlimit:4;stroke-dasharray:none;stroke-opacity:1"
         id="path29018" />
      <path
         d="m 360.363,573.922 49.555,49.551"
         style="fill:none;stroke:#888888;stroke-width:3;stroke-linecap:round;stroke-linejoin:round;stroke-miterlimit:4;stroke-dasharray:none;stroke-opacity:1"
         id="path29022" />
      <path
         d="M 409.918,623.473 H 573.914"
         style="fill:none;stroke:#888888;stroke-width:3;stroke-linecap:round;stroke-linejoin:round;stroke-miterlimit:4;stroke-dasharray:none;stroke-opacity:1"
         id="path29026" />
      <path
         d="m 573.914,623.473 49.555,-49.551"
         style="fill:none;stroke:#888888;stroke-width:3;stroke-linecap:round;stroke-linejoin:round;stroke-miterlimit:4;stroke-dasharray:none;stroke-opacity:1"
         id="path29030" />
      <path
         d="M 97.262,310.816 47.707,261.262"
         style="fill:none;stroke:#888888;stroke-width:3;stroke-linecap:round;stroke-linejoin:round;stroke-miterlimit:4;stroke-dasharray:none;stroke-opacity:1"
         id="path29034" />
      <path
         d="M 97.262,310.816 H 261.258"
         style="fill:none;stroke:#888888;stroke-width:3;stroke-linecap:round;stroke-linejoin:round;stroke-miterlimit:4;stroke-dasharray:none;stroke-opacity:1"
         id="path29038" />
      <path
         d="M 47.707,261.262 V 97.27"
         style="fill:none;stroke:#888888;stroke-width:3;stroke-linecap:round;stroke-linejoin:round;stroke-miterlimit:4;stroke-dasharray:none;stroke-opacity:1"
         id="path29042" />
      <path
         d="M 47.707,97.27 97.262,47.715"
         style="fill:none;stroke:#888888;stroke-width:3;stroke-linecap:round;stroke-linejoin:round;stroke-miterlimit:4;stroke-dasharray:none;stroke-opacity:1"
         id="path29046" />
      <path
         d="M 97.262,47.715 H 261.258"
         style="fill:none;stroke:#888888;stroke-width:3;stroke-linecap:round;stroke-linejoin:round;stroke-miterlimit:4;stroke-dasharray:none;stroke-opacity:1"
         id="path29050" />
      <path
         d="m 261.258,310.816 49.551,-49.554"
         style="fill:none;stroke:#ff0002;stroke-width:3;stroke-linecap:round;stroke-linejoin:round;stroke-miterlimit:4;stroke-dasharray:none;stroke-opacity:1"
         id="path29054" />
      <path
         d="m 310.809,97.27 h 49.555 v 163.992 h -49.555 z"
         style="fill:none;stroke:#ffc000;stroke-width:11.25;stroke-linecap:round;stroke-linejoin:round;stroke-miterlimit:4;stroke-dasharray:none;stroke-opacity:0.8"
         id="path29058" />
      <path
         d="m 310.809,261.262 h 49.554"
         style="fill:none;stroke:#0000ff;stroke-width:3;stroke-linecap:round;stroke-linejoin:round;stroke-miterlimit:4;stroke-dasharray:none;stroke-opacity:1"
         id="path29062" />
      <path
         d="M 310.809,261.262 V 97.27"
         style="fill:none;stroke:#000000;stroke-width:3;stroke-linecap:round;stroke-linejoin:round;stroke-miterlimit:4;stroke-dasharray:none;stroke-opacity:1"
         id="path29066" />
      <path
         d="M 310.809,97.27 261.258,47.715"
         style="fill:none;stroke:#ff0002;stroke-width:3;stroke-linecap:round;stroke-linejoin:round;stroke-miterlimit:4;stroke-dasharray:none;stroke-opacity:1"
         id="path29070" />
      <path
         d="m 310.809,97.27 h 49.554"
         style="fill:none;stroke:#0000ff;stroke-width:3;stroke-linecap:round;stroke-linejoin:round;stroke-miterlimit:4;stroke-dasharray:none;stroke-opacity:1"
         id="path29074" />
      <path
         d="m 360.363,261.262 49.555,49.554"
         style="fill:none;stroke:#ff0002;stroke-width:3;stroke-linecap:round;stroke-linejoin:round;stroke-miterlimit:4;stroke-dasharray:none;stroke-opacity:1"
         id="path29078" />
      <path
         d="M 360.363,97.27 409.918,47.715"
         style="fill:none;stroke:#ff0002;stroke-width:3;stroke-linecap:round;stroke-linejoin:round;stroke-miterlimit:4;stroke-dasharray:none;stroke-opacity:1"
         id="path29082" />
      <path
         d="M 360.363,261.262 V 97.27"
         style="fill:none;stroke:#000000;stroke-width:3;stroke-linecap:round;stroke-linejoin:round;stroke-miterlimit:4;stroke-dasharray:none;stroke-opacity:1"
         id="path29086" />
      <path
         d="M 409.918,310.816 H 573.914"
         style="fill:none;stroke:#888888;stroke-width:3;stroke-linecap:round;stroke-linejoin:round;stroke-miterlimit:4;stroke-dasharray:none;stroke-opacity:1"
         id="path29090" />
      <path
         d="m 573.914,310.816 49.555,-49.554"
         style="fill:none;stroke:#888888;stroke-width:3;stroke-linecap:round;stroke-linejoin:round;stroke-miterlimit:4;stroke-dasharray:none;stroke-opacity:1"
         id="path29094" />
      <path
         d="M 623.469,261.262 V 97.27"
         style="fill:none;stroke:#888888;stroke-width:3;stroke-linecap:round;stroke-linejoin:round;stroke-miterlimit:4;stroke-dasharray:none;stroke-opacity:1"
         id="path29098" />
      <path
         d="M 409.918,47.715 H 573.914"
         style="fill:none;stroke:#888888;stroke-width:3;stroke-linecap:round;stroke-linejoin:round;stroke-miterlimit:4;stroke-dasharray:none;stroke-opacity:1"
         id="path29102" />
      <path
         d="M 573.914,47.715 623.469,97.27"
         style="fill:none;stroke:#888888;stroke-width:3;stroke-linecap:round;stroke-linejoin:round;stroke-miterlimit:4;stroke-dasharray:none;stroke-opacity:1"
         id="path29106" />
      <path
         d="m 623.469,261.262 c 11.426,5.453 22.855,10.902 31.746,9.527 8.89,-1.375 15.246,-9.582 14.039,-15.754 -1.211,-6.172 -9.981,-10.316 -18.875,-8.937 -8.891,1.375 -17.902,8.269 -26.91,15.164"
         style="fill:none;stroke:#888888;stroke-width:2.99999;stroke-linecap:round;stroke-linejoin:bevel;stroke-miterlimit:4;stroke-dasharray:none;stroke-opacity:0.8"
         id="path29110" />
      <path
         d="m 623.469,409.926 c 11.426,5.449 22.855,10.902 31.746,9.523 8.89,-1.375 15.246,-9.578 14.039,-15.75 -1.211,-6.176 -9.981,-10.316 -18.875,-8.937 -8.891,1.375 -17.902,8.269 -26.91,15.164"
         style="fill:none;stroke:#888888;stroke-width:2.99999;stroke-linecap:round;stroke-linejoin:bevel;stroke-miterlimit:4;stroke-dasharray:none;stroke-opacity:0.8"
         id="path29114" />
      <path
         d="m 623.469,97.27 c 11.426,5.449 22.855,10.898 31.746,9.523 8.89,-1.375 15.246,-9.578 14.039,-15.754 -1.211,-6.172 -9.981,-10.312 -18.875,-8.937 -8.891,1.378 -17.902,8.273 -26.91,15.168"
         style="fill:none;stroke:#888888;stroke-width:2.99999;stroke-linecap:round;stroke-linejoin:bevel;stroke-miterlimit:4;stroke-dasharray:none;stroke-opacity:0.8"
         id="path29118" />
      <path
         d="M 573.914,47.715 C 580.477,36.887 587.039,26.059 586.559,17.074 586.074,8.09 578.543,0.949 572.281,1.535 c -6.261,0.586 -11.258,8.903 -10.773,17.887 0.484,8.984 6.445,18.637 12.406,28.293"
         style="fill:none;stroke:#888888;stroke-width:2.99999;stroke-linecap:round;stroke-linejoin:bevel;stroke-miterlimit:4;stroke-dasharray:none;stroke-opacity:0.8"
         id="path29122" />
      <path
         d="m 261.258,47.715 c 6.562,-10.828 13.125,-21.656 12.64,-30.641 -0.48,-8.984 -8.011,-16.125 -14.273,-15.539 -6.266,0.586 -11.258,8.903 -10.773,17.887 0.48,8.984 6.441,18.637 12.406,28.293"
         style="fill:none;stroke:#888888;stroke-width:2.99999;stroke-linecap:round;stroke-linejoin:bevel;stroke-miterlimit:4;stroke-dasharray:none;stroke-opacity:0.8"
         id="path29126" />
      <path
         d="M 97.262,47.715 C 103.824,36.887 110.387,26.059 109.906,17.074 109.422,8.09 101.891,0.949 95.629,1.535 89.367,2.121 84.371,10.438 84.855,19.422 c 0.485,8.984 6.446,18.637 12.407,28.293"
         style="fill:none;stroke:#888888;stroke-width:2.99999;stroke-linecap:round;stroke-linejoin:bevel;stroke-miterlimit:4;stroke-dasharray:none;stroke-opacity:0.8"
         id="path29130" />
      <path
         d="M 409.918,47.715 C 416.48,36.887 423.043,26.059 422.562,17.074 422.078,8.09 414.551,0.949 408.285,1.535 c -6.262,0.586 -11.258,8.903 -10.773,17.887 0.484,8.984 6.445,18.637 12.406,28.293"
         style="fill:none;stroke:#888888;stroke-width:2.99999;stroke-linecap:round;stroke-linejoin:bevel;stroke-miterlimit:4;stroke-dasharray:none;stroke-opacity:0.8"
         id="path29134" />
      <path
         d="m 97.262,623.473 c -6.563,10.828 -13.129,21.656 -12.645,30.64 0.485,8.985 8.012,16.125 14.274,15.539 6.265,-0.586 11.261,-8.902 10.777,-17.886 -0.484,-8.985 -6.445,-18.637 -12.406,-28.293"
         style="fill:none;stroke:#888888;stroke-width:2.99999;stroke-linecap:round;stroke-linejoin:bevel;stroke-miterlimit:4;stroke-dasharray:none;stroke-opacity:0.8"
         id="path29138" />
      <path
         d="m 261.258,623.473 c -6.567,10.828 -13.129,21.656 -12.645,30.64 0.481,8.985 8.012,16.125 14.274,15.539 6.265,-0.586 11.258,-8.902 10.777,-17.886 -0.484,-8.985 -6.445,-18.637 -12.406,-28.293"
         style="fill:none;stroke:#888888;stroke-width:2.99999;stroke-linecap:round;stroke-linejoin:bevel;stroke-miterlimit:4;stroke-dasharray:none;stroke-opacity:0.8"
         id="path29142" />
      <path
         d="m 409.918,623.473 c -6.563,10.828 -13.125,21.656 -12.645,30.64 0.485,8.985 8.012,16.125 14.278,15.539 6.261,-0.586 11.258,-8.902 10.773,-17.886 -0.484,-8.985 -6.445,-18.637 -12.406,-28.293"
         style="fill:none;stroke:#888888;stroke-width:2.99999;stroke-linecap:round;stroke-linejoin:bevel;stroke-miterlimit:4;stroke-dasharray:none;stroke-opacity:0.8"
         id="path29146" />
      <path
         d="m 573.914,623.473 c -6.562,10.828 -13.125,21.656 -12.644,30.64 0.484,8.985 8.011,16.125 14.277,15.539 6.262,-0.586 11.258,-8.902 10.773,-17.886 -0.484,-8.985 -6.445,-18.637 -12.406,-28.293"
         style="fill:none;stroke:#888888;stroke-width:2.99999;stroke-linecap:round;stroke-linejoin:bevel;stroke-miterlimit:4;stroke-dasharray:none;stroke-opacity:0.8"
         id="path29150" />
      <path
         d="m 623.469,573.922 c 11.426,5.449 22.855,10.902 31.746,9.523 8.89,-1.375 15.246,-9.578 14.039,-15.754 -1.211,-6.171 -9.981,-10.312 -18.875,-8.937 -8.891,1.379 -17.902,8.273 -26.91,15.168"
         style="fill:none;stroke:#888888;stroke-width:2.99999;stroke-linecap:round;stroke-linejoin:bevel;stroke-miterlimit:4;stroke-dasharray:none;stroke-opacity:0.8"
         id="path29154" />
      <path
         d="m 47.707,261.262 c -10.465,-7.125 -20.934,-14.246 -29.93,-14.239 -9,0.008 -16.527,7.153 -16.269,13.438 0.254,6.285 8.297,11.711 17.293,11.699 9,-0.008 18.953,-5.453 28.906,-10.898"
         style="fill:none;stroke:#888888;stroke-width:2.99999;stroke-linecap:round;stroke-linejoin:bevel;stroke-miterlimit:4;stroke-dasharray:none;stroke-opacity:0.8"
         id="path29158" />
      <path
         d="m 47.707,409.926 c -10.465,-7.125 -20.934,-14.25 -29.93,-14.242 -9,0.011 -16.527,7.152 -16.269,13.437 0.254,6.285 8.297,11.711 17.293,11.703 9,-0.012 18.953,-5.453 28.906,-10.898"
         style="fill:none;stroke:#888888;stroke-width:2.99999;stroke-linecap:round;stroke-linejoin:bevel;stroke-miterlimit:4;stroke-dasharray:none;stroke-opacity:0.8"
         id="path29162" />
      <path
         d="m 47.707,573.922 c -10.465,-7.125 -20.934,-14.25 -29.93,-14.242 -9,0.008 -16.527,7.152 -16.269,13.437 0.254,6.285 8.297,11.711 17.293,11.703 9,-0.011 18.953,-5.457 28.906,-10.898"
         style="fill:none;stroke:#888888;stroke-width:2.99999;stroke-linecap:round;stroke-linejoin:bevel;stroke-miterlimit:4;stroke-dasharray:none;stroke-opacity:0.8"
         id="path29166" />
      <path
         d="M 47.707,97.27 C 37.242,90.145 26.773,83.02 17.777,83.027 8.777,83.035 1.25,90.18 1.508,96.465 c 0.254,6.285 8.297,11.711 17.293,11.703 9,-0.012 18.953,-5.457 28.906,-10.898"
         style="fill:none;stroke:#888888;stroke-width:2.99999;stroke-linecap:round;stroke-linejoin:bevel;stroke-miterlimit:4;stroke-dasharray:none;stroke-opacity:0.8"
         id="path29170" />
      <path
         d="m 314.559,97.27 c 0,2.07 -1.676,3.75 -3.75,3.75 -2.071,0 -3.75,-1.68 -3.75,-3.75 0,-2.075 1.679,-3.75 3.75,-3.75 2.074,0 3.75,1.675 3.75,3.75 z"
         style="fill:#000000;fill-opacity:1;fill-rule:nonzero;stroke:#010000;stroke-width:15;stroke-linecap:butt;stroke-linejoin:miter;stroke-miterlimit:4;stroke-dasharray:none;stroke-opacity:1"
         id="path29174" />
      <path
         d="m 364.113,97.27 c 0,2.07 -1.679,3.75 -3.75,3.75 -2.07,0 -3.75,-1.68 -3.75,-3.75 0,-2.075 1.68,-3.75 3.75,-3.75 2.071,0 3.75,1.675 3.75,3.75 z"
         style="fill:#000000;fill-opacity:1;fill-rule:nonzero;stroke:#010000;stroke-width:15;stroke-linecap:butt;stroke-linejoin:miter;stroke-miterlimit:4;stroke-dasharray:none;stroke-opacity:1"
         id="path29178" />
      <path
         d="m 364.113,261.262 c 0,2.07 -1.679,3.75 -3.75,3.75 -2.07,0 -3.75,-1.68 -3.75,-3.75 0,-2.071 1.68,-3.75 3.75,-3.75 2.071,0 3.75,1.679 3.75,3.75 z"
         style="fill:#000000;fill-opacity:1;fill-rule:nonzero;stroke:#010000;stroke-width:15;stroke-linecap:butt;stroke-linejoin:miter;stroke-miterlimit:4;stroke-dasharray:none;stroke-opacity:1"
         id="path29182" />
      <path
         d="m 314.559,261.262 c 0,2.07 -1.676,3.75 -3.75,3.75 -2.071,0 -3.75,-1.68 -3.75,-3.75 0,-2.071 1.679,-3.75 3.75,-3.75 2.074,0 3.75,1.679 3.75,3.75 z"
         style="fill:#000000;fill-opacity:0.981603;fill-rule:nonzero;stroke:none"
         id="path29184" />
      <path
         d="m 314.559,261.262 c 0,2.07 -1.676,3.75 -3.75,3.75 -2.071,0 -3.75,-1.68 -3.75,-3.75 0,-2.071 1.679,-3.75 3.75,-3.75 2.074,0 3.75,1.679 3.75,3.75 z"
         style="fill:none;stroke:#010000;stroke-width:15;stroke-linecap:butt;stroke-linejoin:miter;stroke-miterlimit:4;stroke-dasharray:none;stroke-opacity:1"
         id="path29188" />
      <path
         d="m 261.258,47.715 h 148.66 v 263.102 h -148.66 z"
         style="fill:none;stroke:#00c0fd;stroke-width:11.25;stroke-linecap:round;stroke-linejoin:round;stroke-miterlimit:4;stroke-dasharray:none;stroke-opacity:0.8"
         id="path29192" />
      <path
         d="m 265.008,310.816 c 0,2.071 -1.68,3.75 -3.75,3.75 -2.074,0 -3.75,-1.679 -3.75,-3.75 0,-2.07 1.676,-3.75 3.75,-3.75 2.07,0 3.75,1.68 3.75,3.75 z"
         style="fill:#000000;fill-opacity:1;fill-rule:nonzero;stroke:#010000;stroke-width:15;stroke-linecap:butt;stroke-linejoin:miter;stroke-miterlimit:4;stroke-dasharray:none;stroke-opacity:1"
         id="path29196" />
      <path
         d="m 413.668,310.816 c 0,2.071 -1.68,3.75 -3.75,3.75 -2.07,0 -3.75,-1.679 -3.75,-3.75 0,-2.07 1.68,-3.75 3.75,-3.75 2.07,0 3.75,1.68 3.75,3.75 z"
         style="fill:#000000;fill-opacity:0.981603;fill-rule:nonzero;stroke:none"
         id="path29198" />
      <path
         d="m 413.668,310.816 c 0,2.071 -1.68,3.75 -3.75,3.75 -2.07,0 -3.75,-1.679 -3.75,-3.75 0,-2.07 1.68,-3.75 3.75,-3.75 2.07,0 3.75,1.68 3.75,3.75 z"
         style="fill:none;stroke:#010000;stroke-width:15;stroke-linecap:butt;stroke-linejoin:miter;stroke-miterlimit:4;stroke-dasharray:none;stroke-opacity:1"
         id="path29202" />
      <path
         d="m 413.785,47.715 c 0,2.07 -1.68,3.75 -3.75,3.75 -2.074,0 -3.75,-1.68 -3.75,-3.75 0,-2.074 1.676,-3.75 3.75,-3.75 2.07,0 3.75,1.676 3.75,3.75 z"
         style="fill:#000000;fill-opacity:0.981603;fill-rule:nonzero;stroke:none"
         id="path29204" />
      <path
         d="m 413.785,47.715 c 0,2.07 -1.68,3.75 -3.75,3.75 -2.074,0 -3.75,-1.68 -3.75,-3.75 0,-2.074 1.676,-3.75 3.75,-3.75 2.07,0 3.75,1.676 3.75,3.75 z"
         style="fill:none;stroke:#010000;stroke-width:15;stroke-linecap:butt;stroke-linejoin:miter;stroke-miterlimit:4;stroke-dasharray:none;stroke-opacity:1"
         id="path29208" />
      <path
         d="m 265.121,47.715 c 0,2.07 -1.68,3.75 -3.75,3.75 -2.07,0 -3.75,-1.68 -3.75,-3.75 0,-2.074 1.68,-3.75 3.75,-3.75 2.07,0 3.75,1.676 3.75,3.75 z"
         style="fill:#000000;fill-opacity:0.981603;fill-rule:nonzero;stroke:none"
         id="path29210" />
      <path
         d="m 265.121,47.715 c 0,2.07 -1.68,3.75 -3.75,3.75 -2.07,0 -3.75,-1.68 -3.75,-3.75 0,-2.074 1.68,-3.75 3.75,-3.75 2.07,0 3.75,1.676 3.75,3.75 z"
         style="fill:none;stroke:#010000;stroke-width:15;stroke-linecap:butt;stroke-linejoin:miter;stroke-miterlimit:4;stroke-dasharray:none;stroke-opacity:1"
         id="path29214" />
      <text
         xml:space="preserve"
         transform="translate(266.82008,106.66407)"
         style="font-variant:normal;font-weight:normal;font-size:44px;font-family:'Liberation Serif';-inkscape-font-specification:LiberationSerif;writing-mode:lr-tb;fill:#000000;fill-opacity:0.981603;fill-rule:nonzero;stroke:none"
         id="text29218"><tspan
           x="0"
           y="0"
           id="tspan29216">a</tspan></text>
      <text
         xml:space="preserve"
         transform="translate(286.34938,115.46408)"
         style="font-variant:normal;font-weight:normal;font-size:28.6px;font-family:'Liberation Serif';-inkscape-font-specification:LiberationSerif;writing-mode:lr-tb;fill:#000000;fill-opacity:0.981603;fill-rule:nonzero;stroke:none"
         id="text29222"><tspan
           x="0"
           y="0"
           id="tspan29220">0</tspan></text>
      <g
         id="g29468"
         transform="translate(2.9988777,-22.500677)">
        <text
           xml:space="preserve"
           transform="translate(264.34937,263.43338)"
           style="font-variant:normal;font-weight:normal;font-size:44px;font-family:'Liberation Serif';-inkscape-font-specification:LiberationSerif;writing-mode:lr-tb;fill:#000000;fill-opacity:0.981603;fill-rule:nonzero;stroke:none"
           id="text29226"><tspan
             x="0"
             y="0"
             id="tspan29224">b</tspan></text>
        <text
           xml:space="preserve"
           style="font-variant:normal;font-weight:normal;font-size:28.6px;font-family:'Liberation Serif';-inkscape-font-specification:LiberationSerif;writing-mode:lr-tb;fill:#000000;fill-opacity:0.981603;fill-rule:nonzero;stroke:none"
           id="text29230"
           transform="translate(286.34938,272.23338)"><tspan
             x="0"
             y="0"
             id="tspan29228">0</tspan></text>
      </g>
      <text
         xml:space="preserve"
         style="font-variant:normal;font-weight:normal;font-size:44px;font-family:'Liberation Serif';-inkscape-font-specification:LiberationSerif;writing-mode:lr-tb;fill:#000000;fill-opacity:0.981603;fill-rule:nonzero;stroke:none"
         id="text29234"
         x="371.61301"
         y="108.52"><tspan
           x="371.61301"
           y="108.52"
           id="tspan29232">c<tspan
   style="font-size:65%;baseline-shift:sub"
   id="tspan29450">0</tspan></tspan></text>
      <text
         xml:space="preserve"
         style="font-variant:normal;font-weight:normal;font-size:44px;font-family:'Liberation Serif';-inkscape-font-specification:LiberationSerif;writing-mode:lr-tb;fill:#000000;fill-opacity:0.981603;fill-rule:nonzero;stroke:none"
         id="text29242"
         x="368.52316"
         y="240.93271"><tspan
           x="368.52316"
           y="240.93271"
           id="tspan29240">d<tspan
   style="font-size:65%;baseline-shift:sub"
   id="tspan29448">0</tspan></tspan></text>
      <text
         xml:space="preserve"
         transform="translate(218.00979,79.609835)"
         style="font-variant:normal;font-weight:normal;font-size:44px;font-family:'Liberation Serif';-inkscape-font-specification:LiberationSerif;writing-mode:lr-tb;fill:#000000;fill-opacity:0.981603;fill-rule:nonzero;stroke:none"
         id="text29250"><tspan
           x="0"
           y="0"
           id="tspan29248">a</tspan></text>
      <text
         xml:space="preserve"
         transform="translate(237.53909,88.409839)"
         style="font-variant:normal;font-weight:normal;font-size:28.6px;font-family:'Liberation Serif';-inkscape-font-specification:LiberationSerif;writing-mode:lr-tb;fill:#000000;fill-opacity:0.981603;fill-rule:nonzero;stroke:none"
         id="text29254"><tspan
           x="0"
           y="0"
           id="tspan29252">1</tspan></text>
      <text
         xml:space="preserve"
         transform="translate(215.42368,290.76693)"
         style="font-variant:normal;font-weight:normal;font-size:44px;font-family:'Liberation Serif';-inkscape-font-specification:LiberationSerif;writing-mode:lr-tb;fill:#000000;fill-opacity:0.981603;fill-rule:nonzero;stroke:none"
         id="text29258"><tspan
           x="0"
           y="0"
           id="tspan29256">b</tspan></text>
      <text
         xml:space="preserve"
         transform="translate(237.42369,299.56693)"
         style="font-variant:normal;font-weight:normal;font-size:28.6px;font-family:'Liberation Serif';-inkscape-font-specification:LiberationSerif;writing-mode:lr-tb;fill:#000000;fill-opacity:0.981603;fill-rule:nonzero;stroke:none"
         id="text29262"><tspan
           x="0"
           y="0"
           id="tspan29260">1</tspan></text>
      <g
         id="g29462"
         transform="translate(0.11664875,-211.06951)">
        <text
           xml:space="preserve"
           transform="translate(419.49257,290.76693)"
           style="font-variant:normal;font-weight:normal;font-size:44px;font-family:'Liberation Serif';-inkscape-font-specification:LiberationSerif;writing-mode:lr-tb;fill:#000000;fill-opacity:0.981603;fill-rule:nonzero;stroke:none"
           id="text29266"><tspan
             x="0"
             y="0"
             id="tspan29264">c</tspan></text>
        <text
           xml:space="preserve"
           transform="translate(439.02188,299.56693)"
           style="font-variant:normal;font-weight:normal;font-size:28.6px;font-family:'Liberation Serif';-inkscape-font-specification:LiberationSerif;writing-mode:lr-tb;fill:#000000;fill-opacity:0.981603;fill-rule:nonzero;stroke:none"
           id="text29270"><tspan
             x="0"
             y="0"
             id="tspan29268">1</tspan></text>
      </g>
      <g
         id="g29456"
         transform="translate(-0.11573375,201.27335)">
        <text
           xml:space="preserve"
           transform="translate(419.69389,89.492649)"
           style="font-variant:normal;font-weight:normal;font-size:44px;font-family:'Liberation Serif';-inkscape-font-specification:LiberationSerif;writing-mode:lr-tb;fill:#000000;fill-opacity:0.981603;fill-rule:nonzero;stroke:none"
           id="text29274"><tspan
             x="0"
             y="0"
             id="tspan29272">d</tspan></text>
        <text
           xml:space="preserve"
           transform="translate(441.6939,98.292654)"
           style="font-variant:normal;font-weight:normal;font-size:28.6px;font-family:'Liberation Serif';-inkscape-font-specification:LiberationSerif;writing-mode:lr-tb;fill:#000000;fill-opacity:0.981603;fill-rule:nonzero;stroke:none"
           id="text29278"><tspan
             x="0"
             y="0"
             id="tspan29276">1</tspan></text>
      </g>
    </g>
  </g>
</svg>
