<?xml version="1.0" encoding="UTF-8" standalone="no"?>
<!-- Created with Inkscape (http://www.inkscape.org/) -->

<svg
   width="124.83111mm"
   height="267.49356mm"
   viewBox="0 0 124.83111 267.49356"
   version="1.1"
   id="svg257"
   xml:space="preserve"
   inkscape:version="1.2.2 (b0a8486541, 2022-12-01)"
   sodipodi:docname="house-walls.svg"
   xmlns:inkscape="http://www.inkscape.org/namespaces/inkscape"
   xmlns:sodipodi="http://sodipodi.sourceforge.net/DTD/sodipodi-0.dtd"
   xmlns="http://www.w3.org/2000/svg"
   xmlns:svg="http://www.w3.org/2000/svg"><sodipodi:namedview
     id="namedview259"
     pagecolor="#ffffff"
     bordercolor="#000000"
     borderopacity="0.25"
     inkscape:showpageshadow="2"
     inkscape:pageopacity="0.0"
     inkscape:pagecheckerboard="0"
     inkscape:deskcolor="#d1d1d1"
     inkscape:document-units="mm"
     showgrid="false"
     inkscape:zoom="0.77058782"
     inkscape:cx="109.00769"
     inkscape:cy="439.27504"
     inkscape:window-width="1908"
     inkscape:window-height="1048"
     inkscape:window-x="1085"
     inkscape:window-y="25"
     inkscape:window-maximized="1"
     inkscape:current-layer="layer1" /><defs
     id="defs254" /><g
     inkscape:label="Calque 1"
     inkscape:groupmode="layer"
     id="layer1"
     transform="translate(-38.208024,-16.076109)"><g
       id="g788"
       transform="matrix(0.26458333,0,0,0.26458333,-97.297011,151.67552)"><polygon
         points="922.90247,380.7503 757.29016,331.80997 722.17834,281.7856 722.17834,94.77551 757.29016,65.50305 922.90247,114.44336 958.0142,164.46768 958.0142,351.47787 "
         id="face_29_30_36_35_34_33_27_28"
         style="fill:#c0c0c0;stroke:none"
         opacity="1" /><line
         class="arc1"
         id="link28_@1_27"
         x1="722.17834"
         y1="281.78561"
         x2="757.29016"
         y2="331.80997" /><line
         class="arc2"
         id="link28_@2_22"
         x1="722.17834"
         y1="281.78561"
         x2="707.02283"
         y2="282.76196" /><line
         class="arc0"
         id="link28_@0_29"
         x1="722.17834"
         y1="281.78561"
         x2="722.17834"
         y2="94.775513" /><polygon
         points="561.18823,404.0522 681.51263,336.6916 707.0228,282.76196 707.0228,95.75177 681.51263,70.384705 561.18823,137.7453 535.67804,191.67493 535.67804,378.6851 "
         id="face_23_24_18_17_16_15_21_22"
         style="fill:#c0c0c0;stroke:none"
         opacity="1" /><line
         class="arc1"
         id="link22_@1_21"
         x1="707.02283"
         y1="282.76196"
         x2="681.51263"
         y2="336.69159" /><line
         class="arc0"
         id="link22_@0_23"
         x1="707.02283"
         y1="282.76196"
         x2="707.02283"
         y2="95.75177" /><line
         class="arc2"
         id="link27_@2_26"
         x1="757.29016"
         y1="331.80997"
         x2="750.9126"
         y2="345.29236" /><line
         class="arc0"
         id="link27_@0_33"
         x1="757.29016"
         y1="331.80997"
         x2="922.90247"
         y2="380.75031" /><polygon
         points="569.9662,416.5583 690.2906,349.1977 750.9126,345.29236 916.52496,394.2327 926.1265,418.8899 805.8021,486.25052 745.1801,490.15582 579.56775,441.21548 "
         id="face_32_38_44_50_8_14_20_26"
         style="fill:#c0c0c0;stroke:none"
         opacity="1" /><line
         class="arc1"
         id="link26_@1_20"
         x1="750.9126"
         y1="345.29236"
         x2="690.29059"
         y2="349.19769" /><line
         class="arc3"
         id="link26_@3_0"
         x1="750.9126"
         y1="345.29236"
         x2="744.53503"
         y2="358.77475" /><line
         class="arc0"
         id="link26_@0_32"
         x1="750.9126"
         y1="345.29236"
         x2="916.52496"
         y2="394.2327" /><polygon
         points="578.74414,429.06433 699.06854,361.70377 744.53503,358.77475 910.14734,407.7151 917.3486,426.208 797.0242,493.5686 751.5576,496.49762 585.9453,447.55725 "
         id="face_7_6_5_4_3_2_1_0"
         style="fill:#c0c0c0;stroke:none"
         opacity="1" /><line
         class="arc1"
         id="link0_@1_1"
         x1="744.53503"
         y1="358.77475"
         x2="699.06854"
         y2="361.70377" /><line
         class="arc0"
         id="link0_@0_7"
         x1="744.53503"
         y1="358.77475"
         x2="910.14734"
         y2="407.71509" /><line
         class="arc2"
         id="link21_@2_20"
         x1="681.51263"
         y1="336.69159"
         x2="690.29059"
         y2="349.19769" /><line
         class="arc0"
         id="link21_@0_15"
         x1="681.51263"
         y1="336.69159"
         x2="561.18823"
         y2="404.05219" /><line
         class="arc3"
         id="link20_@3_1"
         x1="690.29059"
         y1="349.19769"
         x2="699.06854"
         y2="361.70377" /><line
         class="arc0"
         id="link20_@0_14"
         x1="690.29059"
         y1="349.19769"
         x2="569.96619"
         y2="416.55829" /><line
         class="arc0"
         id="link1_@0_2"
         x1="699.06854"
         y1="361.70377"
         x2="578.74414"
         y2="429.06433" /><line
         class="arc1"
         id="link29_@1_30"
         x1="722.17834"
         y1="94.775513"
         x2="757.29016"
         y2="65.503052" /><line
         class="arc2"
         id="link29_@2_23"
         x1="722.17834"
         y1="94.775513"
         x2="707.02283"
         y2="95.75177" /><line
         class="arc1"
         id="link23_@1_24"
         x1="707.02283"
         y1="95.75177"
         x2="681.51263"
         y2="70.384705" /><line
         class="arc1"
         id="link33_@1_34"
         x1="922.90247"
         y1="380.75031"
         x2="958.01422"
         y2="351.47787" /><line
         class="arc2"
         id="link33_@2_32"
         x1="922.90247"
         y1="380.75031"
         x2="916.52496"
         y2="394.2327" /><line
         class="arc1"
         id="link32_@1_38"
         x1="916.52496"
         y1="394.2327"
         x2="926.12653"
         y2="418.88989" /><line
         class="arc3"
         id="link32_@3_7"
         x1="916.52496"
         y1="394.2327"
         x2="910.14734"
         y2="407.71509" /><line
         class="arc1"
         id="link7_@1_6"
         x1="910.14734"
         y1="407.71509"
         x2="917.34857"
         y2="426.20801" /><line
         class="arc2"
         id="link30_@2_31"
         x1="757.29016"
         y1="65.503052"
         x2="750.9126"
         y2="59.161316" /><line
         class="arc0"
         id="link30_@0_36"
         x1="757.29016"
         y1="65.503052"
         x2="922.90247"
         y2="114.44336" /><line
         class="arc2"
         id="link24_@2_25"
         x1="681.51263"
         y1="70.384705"
         x2="690.29059"
         y2="63.066589" /><line
         class="arc0"
         id="link24_@0_18"
         x1="681.51263"
         y1="70.384705"
         x2="561.18823"
         y2="137.7453" /><polygon
         points="569.9662,130.42725 690.2906,63.06659 750.9126,59.161316 916.52496,108.10162 926.1265,132.75885 805.8021,200.11945 745.1801,204.02478 579.56775,155.08444 "
         id="face_37_43_49_55_13_19_25_31"
         style="fill:#c0c0c0;stroke:none"
         opacity="1" /><line
         class="arc1"
         id="link31_@1_25"
         x1="750.9126"
         y1="59.161316"
         x2="690.29059"
         y2="63.066589" /><line
         class="arc0"
         id="link31_@0_37"
         x1="750.9126"
         y1="59.161316"
         x2="916.52496"
         y2="108.10162" /><line
         class="arc0"
         id="link25_@0_19"
         x1="690.29059"
         y1="63.066589"
         x2="569.96619"
         y2="130.42725" /><line
         class="arc2"
         id="link34_@2_40"
         x1="958.01422"
         y1="351.47787"
         x2="960.41461"
         y2="357.64215" /><line
         class="arc0"
         id="link34_@0_35"
         x1="958.01422"
         y1="351.47787"
         x2="958.01422"
         y2="164.46768" /><line
         class="arc3"
         id="link6_@3_38"
         x1="917.34857"
         y1="426.20801"
         x2="926.12653"
         y2="418.88989" /><line
         class="arc0"
         id="link6_@0_5"
         x1="917.34857"
         y1="426.20801"
         x2="797.02417"
         y2="493.5686" /><line
         class="arc1"
         id="link15_@1_16"
         x1="561.18823"
         y1="404.05219"
         x2="535.67804"
         y2="378.68509" /><line
         class="arc2"
         id="link15_@2_14"
         x1="561.18823"
         y1="404.05219"
         x2="569.96619"
         y2="416.55829" /><line
         class="arc1"
         id="link14_@1_8"
         x1="569.96619"
         y1="416.55829"
         x2="579.56775"
         y2="441.21548" /><line
         class="arc3"
         id="link14_@3_2"
         x1="569.96619"
         y1="416.55829"
         x2="578.74414"
         y2="429.06433" /><polygon
         points="814.5801,478.93237 934.9044,411.57178 960.4146,357.64215 960.4146,170.63199 934.9044,145.26483 814.5801,212.62549 789.0698,266.5551 789.0698,453.56525 "
         id="face_41_42_48_47_46_45_39_40"
         style="fill:#c0c0c0;stroke:none"
         opacity="1" /><line
         class="arc1"
         id="link40_@1_39"
         x1="960.41461"
         y1="357.64215"
         x2="934.90442"
         y2="411.57178" /><line
         class="arc0"
         id="link40_@0_41"
         x1="960.41461"
         y1="357.64215"
         x2="960.41461"
         y2="170.63199" /><line
         class="arc1"
         id="link2_@1_3"
         x1="578.74414"
         y1="429.06433"
         x2="585.94531"
         y2="447.55725" /><line
         class="arc2"
         id="link38_@2_39"
         x1="926.12653"
         y1="418.88989"
         x2="934.90442"
         y2="411.57178" /><line
         class="arc0"
         id="link38_@0_44"
         x1="926.12653"
         y1="418.88989"
         x2="805.80212"
         y2="486.25052" /><line
         class="arc0"
         id="link39_@0_45"
         x1="934.90442"
         y1="411.57178"
         x2="814.58008"
         y2="478.93237" /><line
         class="arc3"
         id="link3_@3_8"
         x1="585.94531"
         y1="447.55725"
         x2="579.56775"
         y2="441.21548" /><line
         class="arc0"
         id="link3_@0_4"
         x1="585.94531"
         y1="447.55725"
         x2="751.55762"
         y2="496.49762" /><line
         class="arc2"
         id="link16_@2_10"
         x1="535.67804"
         y1="378.68509"
         x2="538.07843"
         y2="384.84937" /><line
         class="arc0"
         id="link16_@0_17"
         x1="535.67804"
         y1="378.68509"
         x2="535.67804"
         y2="191.67493" /><line
         class="arc2"
         id="link8_@2_9"
         x1="579.56775"
         y1="441.21548"
         x2="573.19025"
         y2="434.87369" /><line
         class="arc0"
         id="link8_@0_50"
         x1="579.56775"
         y1="441.21548"
         x2="745.18011"
         y2="490.15582" /><polygon
         points="738.8026,483.81403 573.19025,434.8737 538.0784,384.84937 538.0784,197.8392 573.19025,168.5668 738.8026,217.50711 773.91437,267.53143 773.91437,454.54163 "
         id="face_11_12_54_53_52_51_9_10"
         style="fill:#c0c0c0;stroke:none"
         opacity="1" /><line
         class="arc1"
         id="link10_@1_9"
         x1="538.07843"
         y1="384.84937"
         x2="573.19025"
         y2="434.87369" /><line
         class="arc0"
         id="link10_@0_11"
         x1="538.07843"
         y1="384.84937"
         x2="538.07843"
         y2="197.8392" /><line
         class="arc1"
         id="link36_@1_35"
         x1="922.90247"
         y1="114.44336"
         x2="958.01422"
         y2="164.46768" /><line
         class="arc2"
         id="link36_@2_37"
         x1="922.90247"
         y1="114.44336"
         x2="916.52496"
         y2="108.10162" /><line
         class="arc0"
         id="link9_@0_51"
         x1="573.19025"
         y1="434.87369"
         x2="738.80261"
         y2="483.81403" /><line
         class="arc2"
         id="link35_@2_41"
         x1="958.01422"
         y1="164.46768"
         x2="960.41461"
         y2="170.63199" /><line
         class="arc1"
         id="link37_@1_43"
         x1="916.52496"
         y1="108.10162"
         x2="926.12653"
         y2="132.75885" /><line
         class="arc1"
         id="link41_@1_42"
         x1="960.41461"
         y1="170.63199"
         x2="934.90442"
         y2="145.26483" /><line
         class="arc1"
         id="link18_@1_17"
         x1="561.18823"
         y1="137.7453"
         x2="535.67804"
         y2="191.67493" /><line
         class="arc2"
         id="link18_@2_19"
         x1="561.18823"
         y1="137.7453"
         x2="569.96619"
         y2="130.42725" /><line
         class="arc1"
         id="link19_@1_13"
         x1="569.96619"
         y1="130.42725"
         x2="579.56775"
         y2="155.08444" /><line
         class="arc2"
         id="link17_@2_11"
         x1="535.67804"
         y1="191.67493"
         x2="538.07843"
         y2="197.8392" /><line
         class="arc2"
         id="link43_@2_42"
         x1="926.12653"
         y1="132.75885"
         x2="934.90442"
         y2="145.26483" /><line
         class="arc0"
         id="link43_@0_49"
         x1="926.12653"
         y1="132.75885"
         x2="805.80212"
         y2="200.11945" /><line
         class="arc0"
         id="link42_@0_48"
         x1="934.90442"
         y1="145.26483"
         x2="814.58008"
         y2="212.62549" /><line
         class="arc1"
         id="link11_@1_12"
         x1="538.07843"
         y1="197.8392"
         x2="573.19025"
         y2="168.5668" /><line
         class="arc1"
         id="link5_@1_4"
         x1="797.02417"
         y1="493.5686"
         x2="751.55762"
         y2="496.49762" /><line
         class="arc3"
         id="link5_@3_44"
         x1="797.02417"
         y1="493.5686"
         x2="805.80212"
         y2="486.25052" /><line
         class="arc3"
         id="link4_@3_50"
         x1="751.55762"
         y1="496.49762"
         x2="745.18011"
         y2="490.15582" /><line
         class="arc1"
         id="link44_@1_50"
         x1="805.80212"
         y1="486.25052"
         x2="745.18011"
         y2="490.15582" /><line
         class="arc2"
         id="link44_@2_45"
         x1="805.80212"
         y1="486.25052"
         x2="814.58008"
         y2="478.93237" /><line
         class="arc2"
         id="link50_@2_51"
         x1="745.18011"
         y1="490.15582"
         x2="738.80261"
         y2="483.81403" /><line
         class="arc1"
         id="link45_@1_46"
         x1="814.58008"
         y1="478.93237"
         x2="789.06982"
         y2="453.56525" /><line
         class="arc1"
         id="link51_@1_52"
         x1="738.80261"
         y1="483.81403"
         x2="773.91437"
         y2="454.54163" /><line
         class="arc2"
         id="link13_@2_12"
         x1="579.56775"
         y1="155.08444"
         x2="573.19025"
         y2="168.5668" /><line
         class="arc0"
         id="link13_@0_55"
         x1="579.56775"
         y1="155.08444"
         x2="745.18011"
         y2="204.02478" /><line
         class="arc0"
         id="link12_@0_54"
         x1="573.19025"
         y1="168.5668"
         x2="738.80261"
         y2="217.50711" /><line
         class="arc2"
         id="link46_@2_52"
         x1="789.06982"
         y1="453.56525"
         x2="773.91437"
         y2="454.54163" /><line
         class="arc0"
         id="link46_@0_47"
         x1="789.06982"
         y1="453.56525"
         x2="789.06982"
         y2="266.55511" /><line
         class="arc0"
         id="link52_@0_53"
         x1="773.91437"
         y1="454.54163"
         x2="773.91437"
         y2="267.53143" /><line
         class="arc1"
         id="link49_@1_55"
         x1="805.80212"
         y1="200.11945"
         x2="745.18011"
         y2="204.02478" /><line
         class="arc2"
         id="link49_@2_48"
         x1="805.80212"
         y1="200.11945"
         x2="814.58008"
         y2="212.62549" /><line
         class="arc1"
         id="link48_@1_47"
         x1="814.58008"
         y1="212.62549"
         x2="789.06982"
         y2="266.55511" /><line
         class="arc2"
         id="link55_@2_54"
         x1="745.18011"
         y1="204.02478"
         x2="738.80261"
         y2="217.50711" /><line
         class="arc1"
         id="link54_@1_53"
         x1="738.80261"
         y1="217.50711"
         x2="773.91437"
         y2="267.53143" /><line
         class="arc2"
         id="link47_@2_53"
         x1="789.06982"
         y1="266.55511"
         x2="773.91437"
         y2="267.53143" /></g><g
       id="g868"
       transform="matrix(0.26458333,0,0,0.26458333,-97.297011,9.5820121)"><polygon
         points="514.145,442.70428 711,332.4999 981.94763,412.56805 785.09265,522.77246 514.145,442.70428 "
         id="face_7_6_5_4_3_2_1_0-6"
         style="fill:#c0c0c0;stroke:none"
         opacity="1" /><line
         class="arc0"
         id="link0_@0_7-7"
         x1="711"
         y1="332.49991"
         x2="981.94763"
         y2="412.56805" /><line
         class="arc0"
         id="link1_@0_2-5"
         x1="711"
         y1="332.49991"
         x2="514.14502"
         y2="442.70428" /><polygon
         points="981.94763,412.56805 711,332.4999 514.145,442.70428 785.09265,522.77246 981.94763,412.56805 "
         id="face_14_8_50_44_38_32_26_20"
         style="fill:#c0c0c0;stroke:none"
         opacity="1" /><line
         class="arc0"
         id="link20_@0_14-3"
         x1="711"
         y1="332.49991"
         x2="514.14502"
         y2="442.70428" /><polygon
         points="711,26.544617 711,332.4999 514.145,442.70428 514.145,136.74902 711,26.544617 "
         id="face_15_16_17_18_24_23_22_21"
         style="fill:#c0c0c0;stroke:none"
         opacity="1" /><line
         class="arc0"
         id="link21_@0_15-5"
         x1="711"
         y1="332.49991"
         x2="514.14502"
         y2="442.70428" /><line
         class="arc0"
         id="link22_@0_23-6"
         x1="711"
         y1="332.49991"
         x2="711"
         y2="26.544617" /><line
         class="arc0"
         id="link26_@0_32-2"
         x1="711"
         y1="332.49991"
         x2="981.94763"
         y2="412.56805" /><polygon
         points="711,26.544617 711,332.4999 981.94763,412.56805 981.94763,106.61285 711,26.544617 "
         id="face_33_34_35_36_30_29_28_27"
         style="fill:#c0c0c0;stroke:none"
         opacity="1" /><line
         class="arc0"
         id="link27_@0_33-9"
         x1="711"
         y1="332.49991"
         x2="981.94763"
         y2="412.56805" /><line
         class="arc0"
         id="link28_@0_29-1"
         x1="711"
         y1="332.49991"
         x2="711"
         y2="26.544617" /><line
         class="arc0"
         id="link24_@0_18-2"
         x1="711"
         y1="26.544617"
         x2="514.14502"
         y2="136.74902" /><polygon
         points="981.94763,106.61285 711,26.544617 514.145,136.74902 785.09265,216.81717 981.94763,106.61285 "
         id="face_19_13_55_49_43_37_31_25"
         style="fill:#c0c0c0;stroke:none"
         opacity="1" /><line
         class="arc0"
         id="link25_@0_19-7"
         x1="711"
         y1="26.544617"
         x2="514.14502"
         y2="136.74902" /><line
         class="arc0"
         id="link30_@0_36-0"
         x1="711"
         y1="26.544617"
         x2="981.94763"
         y2="106.61285" /><line
         class="arc0"
         id="link31_@0_37-9"
         x1="711"
         y1="26.544617"
         x2="981.94763"
         y2="106.61285" /><line
         class="arc0"
         id="link6_@0_5-3"
         x1="981.94763"
         y1="412.56805"
         x2="785.09265"
         y2="522.77246" /><line
         class="arc0"
         id="link34_@0_35-6"
         x1="981.94763"
         y1="412.56805"
         x2="981.94763"
         y2="106.61285" /><line
         class="arc0"
         id="link38_@0_44-0"
         x1="981.94763"
         y1="412.56805"
         x2="785.09265"
         y2="522.77246" /><polygon
         points="981.94763,106.61285 981.94763,412.56805 785.09265,522.77246 785.09265,216.81717 981.94763,106.61285 "
         id="face_45_46_47_48_42_41_40_39"
         style="fill:#c0c0c0;stroke:none"
         opacity="1" /><line
         class="arc0"
         id="link39_@0_45-6"
         x1="981.94763"
         y1="412.56805"
         x2="785.09265"
         y2="522.77246" /><line
         class="arc0"
         id="link40_@0_41-2"
         x1="981.94763"
         y1="412.56805"
         x2="981.94763"
         y2="106.61285" /><line
         class="arc0"
         id="link3_@0_4-6"
         x1="514.14502"
         y1="442.70428"
         x2="785.09265"
         y2="522.77246" /><line
         class="arc0"
         id="link8_@0_50-1"
         x1="514.14502"
         y1="442.70428"
         x2="785.09265"
         y2="522.77246" /><polygon
         points="514.145,136.74902 514.145,442.70428 785.09265,522.77246 785.09265,216.81717 514.145,136.74902 "
         id="face_51_52_53_54_12_11_10_9"
         style="fill:#c0c0c0;stroke:none"
         opacity="1" /><line
         class="arc0"
         id="link9_@0_51-8"
         x1="514.14502"
         y1="442.70428"
         x2="785.09265"
         y2="522.77246" /><line
         class="arc0"
         id="link10_@0_11-7"
         x1="514.14502"
         y1="442.70428"
         x2="514.14502"
         y2="136.74902" /><line
         class="arc0"
         id="link16_@0_17-9"
         x1="514.14502"
         y1="442.70428"
         x2="514.14502"
         y2="136.74902" /><line
         class="arc0"
         id="link42_@0_48-2"
         x1="981.94763"
         y1="106.61285"
         x2="785.09265"
         y2="216.81717" /><line
         class="arc0"
         id="link43_@0_49-0"
         x1="981.94763"
         y1="106.61285"
         x2="785.09265"
         y2="216.81717" /><line
         class="arc0"
         id="link12_@0_54-2"
         x1="514.14502"
         y1="136.74902"
         x2="785.09265"
         y2="216.81717" /><line
         class="arc0"
         id="link13_@0_55-3"
         x1="514.14502"
         y1="136.74902"
         x2="785.09265"
         y2="216.81717" /><line
         class="arc0"
         id="link46_@0_47-7"
         x1="785.09265"
         y1="522.77246"
         x2="785.09265"
         y2="216.81717" /><line
         class="arc0"
         id="link52_@0_53-5"
         x1="785.09265"
         y1="522.77246"
         x2="785.09265"
         y2="216.81717" /></g></g><style
     id="style">
		.arc0 {
			fill:none;
			fill-rule:evenodd;
			stroke:black;
			stroke-width:4;
			stroke-linecap:round;
			stroke-linejoin:round;
			stroke-opacity:1;
		}
		.arc1 {
			fill:none;
			fill-rule:evenodd;
			stroke:red;
			stroke-width:4;
			stroke-linecap:round;
			stroke-linejoin:round;
			stroke-opacity:1;
		}
		.arc2 {
			fill:none;
			fill-rule:evenodd;
			stroke:blue;
			stroke-width:4;
			stroke-linecap:round;
			stroke-linejoin:round;
			stroke-opacity:1;
		}
		.arc3 {
			fill:none;
			fill-rule:evenodd;
			stroke:green;
			stroke-width:4;
			stroke-linecap:round;
			stroke-linejoin:round;
			stroke-opacity:1;
		}
		.topological-dart {
			fill:#000000;
			stroke:#000000;
			stroke-width:0;
			stroke-linecap:round;
			stroke-linejoin:round;
			stroke-dasharray:none;
			paint-order:markers fill stroke;
		}
	</style><style
     id="style-3">
		.arc0 {
			fill:none;
			fill-rule:evenodd;
			stroke:black;
			stroke-width:4;
			stroke-linecap:round;
			stroke-linejoin:round;
			stroke-opacity:1;
		}
		.arc1 {
			fill:none;
			fill-rule:evenodd;
			stroke:red;
			stroke-width:4;
			stroke-linecap:round;
			stroke-linejoin:round;
			stroke-opacity:1;
		}
		.arc2 {
			fill:none;
			fill-rule:evenodd;
			stroke:blue;
			stroke-width:4;
			stroke-linecap:round;
			stroke-linejoin:round;
			stroke-opacity:1;
		}
		.arc3 {
			fill:none;
			fill-rule:evenodd;
			stroke:green;
			stroke-width:4;
			stroke-linecap:round;
			stroke-linejoin:round;
			stroke-opacity:1;
		}
		.topological-dart {
			fill:#000000;
			stroke:#000000;
			stroke-width:0;
			stroke-linecap:round;
			stroke-linejoin:round;
			stroke-dasharray:none;
			paint-order:markers fill stroke;
		}
	</style></svg>
