<?xml version="1.0" encoding="UTF-8" standalone="no"?>
<!-- Created with Inkscape (http://www.inkscape.org/) -->

<svg
   width="87.277145mm"
   height="291.53812mm"
   viewBox="0 0 87.277145 291.53812"
   version="1.1"
   id="svg2873"
   xml:space="preserve"
   inkscape:version="1.2.2 (b0a8486541, 2022-12-01)"
   sodipodi:docname="hous-higher-flat-roof.svg"
   xmlns:inkscape="http://www.inkscape.org/namespaces/inkscape"
   xmlns:sodipodi="http://sodipodi.sourceforge.net/DTD/sodipodi-0.dtd"
   xmlns="http://www.w3.org/2000/svg"
   xmlns:svg="http://www.w3.org/2000/svg"><sodipodi:namedview
     id="namedview2875"
     pagecolor="#ffffff"
     bordercolor="#000000"
     borderopacity="0.25"
     inkscape:showpageshadow="2"
     inkscape:pageopacity="0.0"
     inkscape:pagecheckerboard="0"
     inkscape:deskcolor="#d1d1d1"
     inkscape:document-units="mm"
     showgrid="false"
     inkscape:zoom="0.77058782"
     inkscape:cx="143.39702"
     inkscape:cy="540.49647"
     inkscape:window-width="1908"
     inkscape:window-height="1048"
     inkscape:window-x="1085"
     inkscape:window-y="25"
     inkscape:window-maximized="1"
     inkscape:current-layer="layer1" /><defs
     id="defs2870" /><g
     inkscape:label="Calque 1"
     inkscape:groupmode="layer"
     id="layer1"
     transform="translate(-67.03086,-5.4837552)"><g
       id="g3687"
       transform="matrix(0.26458333,0,0,0.26458333,-74.120148,-6.113841)"><polygon
         points="535.48413,548.851 535.48413,548.851 672.61127,472.08383 861.3505,527.85846 724.2234,604.6257 "
         id="face_7_6_5_4_3_2_1_0"
         style="fill:#c0c0c0;stroke:none"
         opacity="1" /><line
         class="arc0"
         id="link0_@0_7"
         x1="672.61127"
         y1="472.08383"
         x2="861.35052"
         y2="527.85846" /><line
         class="arc0"
         id="link1_@0_2"
         x1="672.61127"
         y1="472.08383"
         x2="535.48413"
         y2="548.85101" /><polygon
         points="861.3505,527.85846 861.3505,527.85846 672.61127,472.08383 535.48413,548.851 724.2234,604.6257 "
         id="face_14_8_50_44_38_32_26_20"
         style="fill:#c0c0c0;stroke:none"
         opacity="1" /><line
         class="arc0"
         id="link20_@0_14"
         x1="672.61127"
         y1="472.08383"
         x2="535.48413"
         y2="548.85101" /><polygon
         points="672.61127,258.95862 672.61127,258.95862 672.61127,472.08383 535.48413,548.851 535.48413,335.72583 "
         id="face_15_16_17_18_24_23_22_21"
         style="fill:#c0c0c0;stroke:none"
         opacity="1" /><line
         class="arc0"
         id="link21_@0_15"
         x1="672.61127"
         y1="472.08383"
         x2="535.48413"
         y2="548.85101" /><line
         class="arc0"
         id="link22_@0_23"
         x1="672.61127"
         y1="472.08383"
         x2="672.61127"
         y2="258.95862" /><line
         class="arc0"
         id="link26_@0_32"
         x1="672.61127"
         y1="472.08383"
         x2="861.35052"
         y2="527.85846" /><polygon
         points="672.61127,258.95862 672.61127,258.95862 672.61127,472.08383 861.3505,527.85846 861.3505,314.73328 "
         id="face_33_34_35_36_30_29_28_27"
         style="fill:#c0c0c0;stroke:none"
         opacity="1" /><line
         class="arc0"
         id="link27_@0_33"
         x1="672.61127"
         y1="472.08383"
         x2="861.35052"
         y2="527.85846" /><line
         class="arc0"
         id="link28_@0_29"
         x1="672.61127"
         y1="472.08383"
         x2="672.61127"
         y2="258.95862" /><line
         class="arc0"
         id="link24_@0_18"
         x1="672.61127"
         y1="258.95862"
         x2="535.48413"
         y2="335.72583" /><polygon
         points="792.787,353.11685 792.787,353.11685 861.3505,314.73328 861.3505,314.73328 672.61127,258.95862 535.48413,335.72583 724.2234,391.50046 "
         id="face_19_13_55_49_57_58_43_37_31_25"
         style="fill:#c0c0c0;stroke:none"
         opacity="1" /><line
         class="arc0"
         id="link25_@0_19"
         x1="672.61127"
         y1="258.95862"
         x2="535.48413"
         y2="335.72583" /><line
         class="arc0"
         id="link30_@0_36"
         x1="672.61127"
         y1="258.95862"
         x2="861.35052"
         y2="314.73328" /><line
         class="arc0"
         id="link31_@0_37"
         x1="672.61127"
         y1="258.95862"
         x2="861.35052"
         y2="314.73328" /><polygon
         points="792.787,353.11685 792.787,353.11685 861.3505,314.73328 861.3505,314.73328 672.61127,258.95862 535.48413,335.72583 724.2234,391.50046 "
         id="face_66_60_114_108_102_96_90_84_78_72"
         style="fill:#c0c0c0;stroke:none"
         opacity="1" /><line
         class="arc0"
         id="link72_@0_66"
         x1="672.61127"
         y1="258.95862"
         x2="535.48413"
         y2="335.72583" /><polygon
         points="672.61127,45.833435 672.61127,45.833435 672.61127,258.95862 535.48413,335.72583 535.48413,122.60059 "
         id="face_67_68_69_70_76_75_74_73"
         style="fill:#c0c0c0;stroke:none"
         opacity="1" /><line
         class="arc0"
         id="link73_@0_67"
         x1="672.61127"
         y1="258.95862"
         x2="535.48413"
         y2="335.72583" /><line
         class="arc0"
         id="link74_@0_75"
         x1="672.61127"
         y1="258.95862"
         x2="672.61127"
         y2="45.833435" /><line
         class="arc0"
         id="link78_@0_84"
         x1="672.61127"
         y1="258.95862"
         x2="861.35052"
         y2="314.73328" /><polygon
         points="672.61127,45.833435 672.61127,45.833435 672.61127,258.95862 861.3505,314.73328 861.3505,101.60803 "
         id="face_85_86_87_88_82_81_80_79"
         style="fill:#c0c0c0;stroke:none"
         opacity="1" /><line
         class="arc0"
         id="link79_@0_85"
         x1="672.61127"
         y1="258.95862"
         x2="861.35052"
         y2="314.73328" /><line
         class="arc0"
         id="link80_@0_81"
         x1="672.61127"
         y1="258.95862"
         x2="672.61127"
         y2="45.833435" /><line
         class="arc0"
         id="link6_@0_5"
         x1="861.35052"
         y1="527.85846"
         x2="724.22339"
         y2="604.62567" /><line
         class="arc0"
         id="link34_@0_35"
         x1="861.35052"
         y1="527.85846"
         x2="861.35052"
         y2="314.73328" /><line
         class="arc0"
         id="link38_@0_44"
         x1="861.35052"
         y1="527.85846"
         x2="724.22339"
         y2="604.62567" /><polygon
         points="792.787,353.11685 792.787,353.11685 861.3505,314.73328 861.3505,314.73328 861.3505,527.85846 724.2234,604.6257 724.2234,391.50046 "
         id="face_45_46_47_48_56_59_42_41_40_39"
         style="fill:#c0c0c0;stroke:none"
         opacity="1" /><line
         class="arc0"
         id="link39_@0_45"
         x1="861.35052"
         y1="527.85846"
         x2="724.22339"
         y2="604.62567" /><line
         class="arc0"
         id="link40_@0_41"
         x1="861.35052"
         y1="527.85846"
         x2="861.35052"
         y2="314.73328" /><line
         class="arc0"
         id="link3_@0_4"
         x1="535.48413"
         y1="548.85101"
         x2="724.22339"
         y2="604.62567" /><line
         class="arc0"
         id="link8_@0_50"
         x1="535.48413"
         y1="548.85101"
         x2="724.22339"
         y2="604.62567" /><polygon
         points="535.48413,335.72583 535.48413,335.72583 535.48413,548.851 724.2234,604.6257 724.2234,391.50046 "
         id="face_51_52_53_54_12_11_10_9"
         style="fill:#c0c0c0;stroke:none"
         opacity="1" /><line
         class="arc0"
         id="link9_@0_51"
         x1="535.48413"
         y1="548.85101"
         x2="724.22339"
         y2="604.62567" /><line
         class="arc0"
         id="link10_@0_11"
         x1="535.48413"
         y1="548.85101"
         x2="535.48413"
         y2="335.72583" /><line
         class="arc0"
         id="link16_@0_17"
         x1="535.48413"
         y1="548.85101"
         x2="535.48413"
         y2="335.72583" /><line
         class="arc0"
         id="link76_@0_70"
         x1="672.61127"
         y1="45.833435"
         x2="535.48413"
         y2="122.60059" /><polygon
         points="792.787,139.99164 792.787,139.99164 861.3505,101.60803 861.3505,101.60803 672.61127,45.833435 535.48413,122.60059 724.2234,178.37527 "
         id="face_71_65_119_113_107_101_95_89_83_77"
         style="fill:#c0c0c0;stroke:none"
         opacity="1" /><line
         class="arc0"
         id="link77_@0_71"
         x1="672.61127"
         y1="45.833435"
         x2="535.48413"
         y2="122.60059" /><line
         class="arc0"
         id="link82_@0_88"
         x1="672.61127"
         y1="45.833435"
         x2="861.35052"
         y2="101.60803" /><line
         class="arc0"
         id="link83_@0_89"
         x1="672.61127"
         y1="45.833435"
         x2="861.35052"
         y2="101.60803" /><line
         class="arc0"
         id="link42_@0_59"
         x1="861.35052"
         y1="314.73328"
         x2="792.78699"
         y2="353.11685" /><line
         class="arc0"
         id="link43_@0_58"
         x1="861.35052"
         y1="314.73328"
         x2="792.78699"
         y2="353.11685" /><line
         class="arc0"
         id="link86_@0_87"
         x1="861.35052"
         y1="314.73328"
         x2="861.35052"
         y2="101.60803" /><line
         class="arc0"
         id="link90_@0_96"
         x1="861.35052"
         y1="314.73328"
         x2="792.78699"
         y2="353.11685" /><polygon
         points="861.3505,101.60803 861.3505,101.60803 861.3505,314.73328 792.787,353.11685 792.787,139.99164 "
         id="face_97_98_99_100_94_93_92_91"
         style="fill:#c0c0c0;stroke:none"
         opacity="1" /><line
         class="arc0"
         id="link91_@0_97"
         x1="861.35052"
         y1="314.73328"
         x2="792.78699"
         y2="353.11685" /><line
         class="arc0"
         id="link92_@0_93"
         x1="861.35052"
         y1="314.73328"
         x2="861.35052"
         y2="101.60803" /><line
         class="arc0"
         id="link12_@0_54"
         x1="535.48413"
         y1="335.72583"
         x2="724.22339"
         y2="391.50046" /><line
         class="arc0"
         id="link13_@0_55"
         x1="535.48413"
         y1="335.72583"
         x2="724.22339"
         y2="391.50046" /><line
         class="arc0"
         id="link60_@0_114"
         x1="535.48413"
         y1="335.72583"
         x2="724.22339"
         y2="391.50046" /><polygon
         points="535.48413,122.60059 535.48413,122.60059 535.48413,335.72583 724.2234,391.50046 724.2234,178.37527 "
         id="face_115_116_117_118_64_63_62_61"
         style="fill:#c0c0c0;stroke:none"
         opacity="1" /><line
         class="arc0"
         id="link61_@0_115"
         x1="535.48413"
         y1="335.72583"
         x2="724.22339"
         y2="391.50046" /><line
         class="arc0"
         id="link62_@0_63"
         x1="535.48413"
         y1="335.72583"
         x2="535.48413"
         y2="122.60059" /><line
         class="arc0"
         id="link68_@0_69"
         x1="535.48413"
         y1="335.72583"
         x2="535.48413"
         y2="122.60059" /><line
         class="arc0"
         id="link46_@0_47"
         x1="724.22339"
         y1="604.62567"
         x2="724.22339"
         y2="391.50046" /><line
         class="arc0"
         id="link52_@0_53"
         x1="724.22339"
         y1="604.62567"
         x2="724.22339"
         y2="391.50046" /><line
         class="arc0"
         id="link56_@0_48"
         x1="792.78699"
         y1="353.11685"
         x2="724.22339"
         y2="391.50046" /><line
         class="arc0"
         id="link57_@0_49"
         x1="792.78699"
         y1="353.11685"
         x2="724.22339"
         y2="391.50046" /><line
         class="arc0"
         id="link98_@0_99"
         x1="792.78699"
         y1="353.11685"
         x2="792.78699"
         y2="139.99164" /><line
         class="arc0"
         id="link102_@0_108"
         x1="792.78699"
         y1="353.11685"
         x2="724.22339"
         y2="391.50046" /><polygon
         points="792.787,139.99164 792.787,139.99164 792.787,353.11685 724.2234,391.50046 724.2234,178.37527 "
         id="face_109_110_111_112_106_105_104_103"
         style="fill:#c0c0c0;stroke:none"
         opacity="1" /><line
         class="arc0"
         id="link103_@0_109"
         x1="792.78699"
         y1="353.11685"
         x2="724.22339"
         y2="391.50046" /><line
         class="arc0"
         id="link104_@0_105"
         x1="792.78699"
         y1="353.11685"
         x2="792.78699"
         y2="139.99164" /><line
         class="arc0"
         id="link94_@0_100"
         x1="861.35052"
         y1="101.60803"
         x2="792.78699"
         y2="139.99164" /><line
         class="arc0"
         id="link95_@0_101"
         x1="861.35052"
         y1="101.60803"
         x2="792.78699"
         y2="139.99164" /><line
         class="arc0"
         id="link64_@0_118"
         x1="535.48413"
         y1="122.60059"
         x2="724.22339"
         y2="178.37527" /><line
         class="arc0"
         id="link65_@0_119"
         x1="535.48413"
         y1="122.60059"
         x2="724.22339"
         y2="178.37527" /><line
         class="arc0"
         id="link110_@0_111"
         x1="724.22339"
         y1="391.50046"
         x2="724.22339"
         y2="178.37527" /><line
         class="arc0"
         id="link116_@0_117"
         x1="724.22339"
         y1="391.50046"
         x2="724.22339"
         y2="178.37527" /><line
         class="arc0"
         id="link106_@0_112"
         x1="792.78699"
         y1="139.99164"
         x2="724.22339"
         y2="178.37527" /><line
         class="arc0"
         id="link107_@0_113"
         x1="792.78699"
         y1="139.99164"
         x2="724.22339"
         y2="178.37527" /></g><g
       id="g4113"
       transform="matrix(0.26458333,0,0,0.26458333,-74.838943,141.81285)"><polygon
         points="707.1526,469.1197 683.22144,435.0246 683.22144,309.72452 707.1526,289.77335 820.28906,321.34756 844.2202,355.44257 842.0468,481.95935 818.1157,501.91052 "
         id="face_29_30_36_35_34_33_27_28"
         style="fill:#c0c0c0;stroke:none"
         opacity="1" /><line
         class="arc1"
         id="link28_@1_27"
         x1="683.22144"
         y1="435.0246"
         x2="707.15259"
         y2="469.11969" /><line
         class="arc2"
         id="link28_@2_22"
         x1="683.22144"
         y1="435.0246"
         x2="667.72717"
         y2="436.02277" /><line
         class="arc0"
         id="link28_@0_29-7"
         x1="683.22144"
         y1="435.0246"
         x2="683.22144"
         y2="309.72452" /><polygon
         points="650.3402,472.77954 667.7272,436.02277 667.7272,310.72272 650.3402,293.43326 569.7207,338.56604 552.33374,375.3228 552.33374,500.6229 569.7207,517.91235 "
         id="face_23_24_18_17_16_15_21_22"
         style="fill:#c0c0c0;stroke:none"
         opacity="1" /><line
         class="arc1"
         id="link22_@1_21"
         x1="667.72717"
         y1="436.02277"
         x2="650.34021"
         y2="472.77954" /><line
         class="arc0"
         id="link22_@0_23-6"
         x1="667.72717"
         y1="436.02277"
         x2="667.72717"
         y2="310.72272" /><line
         class="arc2"
         id="link27_@2_26"
         x1="707.15259"
         y1="469.11969"
         x2="700.63245"
         y2="482.90347" /><line
         class="arc0"
         id="link27_@0_33-5"
         x1="707.15259"
         y1="469.11969"
         x2="818.11572"
         y2="501.91052" /><polygon
         points="659.31433,485.56522 700.63245,482.90347 811.59564,515.69434 818.1397,532.49994 737.52026,577.6327 696.2022,580.2945 585.2391,547.5036 578.69495,530.698 "
         id="face_32_38_44_50_8_14_20_26"
         style="fill:#c0c0c0;stroke:none"
         opacity="1" /><line
         class="arc1"
         id="link26_@1_20"
         x1="700.63245"
         y1="482.90347"
         x2="659.31433"
         y2="485.56522" /><line
         class="arc3"
         id="link26_@3_0"
         x1="700.63245"
         y1="482.90347"
         x2="696.28571"
         y2="492.09265" /><line
         class="arc0"
         id="link26_@0_32-6"
         x1="700.63245"
         y1="482.90347"
         x2="811.59564"
         y2="515.69434" /><polygon
         points="665.2972,494.089 696.2857,492.09265 807.24884,524.88354 812.157,537.48773 731.5375,582.62054 700.54895,584.6168 589.5858,551.826 584.6777,539.22174 "
         id="face_7_6_5_4_3_2_1_0-9"
         style="fill:#c0c0c0;stroke:none"
         opacity="1" /><line
         class="arc1"
         id="link0_@1_1"
         x1="696.28571"
         y1="492.09265"
         x2="665.29718"
         y2="494.08899" /><line
         class="arc0"
         id="link0_@0_7-3"
         x1="696.28571"
         y1="492.09265"
         x2="807.24884"
         y2="524.88354" /><line
         class="arc2"
         id="link21_@2_20"
         x1="650.34021"
         y1="472.77954"
         x2="659.31433"
         y2="485.56522" /><line
         class="arc0"
         id="link21_@0_15-7"
         x1="650.34021"
         y1="472.77954"
         x2="569.7207"
         y2="517.91235" /><line
         class="arc3"
         id="link20_@3_1"
         x1="659.31433"
         y1="485.56522"
         x2="665.29718"
         y2="494.08899" /><line
         class="arc0"
         id="link20_@0_14-4"
         x1="659.31433"
         y1="485.56522"
         x2="578.69495"
         y2="530.698" /><line
         class="arc0"
         id="link1_@0_2-5"
         x1="665.29718"
         y1="494.08899"
         x2="584.67767"
         y2="539.22174" /><line
         class="arc1"
         id="link29_@1_30"
         x1="683.22144"
         y1="309.72452"
         x2="707.15259"
         y2="289.77335" /><line
         class="arc2"
         id="link29_@2_23"
         x1="683.22144"
         y1="309.72452"
         x2="667.72717"
         y2="310.72272" /><line
         class="arc1"
         id="link23_@1_24"
         x1="667.72717"
         y1="310.72272"
         x2="650.34021"
         y2="293.43326" /><line
         class="arc1"
         id="link33_@1_34"
         x1="818.11572"
         y1="501.91052"
         x2="842.04681"
         y2="481.95935" /><line
         class="arc2"
         id="link33_@2_32"
         x1="818.11572"
         y1="501.91052"
         x2="811.59564"
         y2="515.69434" /><line
         class="arc1"
         id="link32_@1_38"
         x1="811.59564"
         y1="515.69434"
         x2="818.13971"
         y2="532.49994" /><line
         class="arc3"
         id="link32_@3_7"
         x1="811.59564"
         y1="515.69434"
         x2="807.24884"
         y2="524.88354" /><line
         class="arc1"
         id="link7_@1_6"
         x1="807.24884"
         y1="524.88354"
         x2="812.15698"
         y2="537.48773" /><line
         class="arc2"
         id="link30_@2_31"
         x1="707.15259"
         y1="289.77335"
         x2="701.23071"
         y2="283.46661" /><line
         class="arc0"
         id="link30_@0_36-2"
         x1="707.15259"
         y1="289.77335"
         x2="820.28906"
         y2="321.34756" /><line
         class="arc2"
         id="link24_@2_25"
         x1="650.34021"
         y1="293.43326"
         x2="659.9126"
         y2="286.12833" /><line
         class="arc0"
         id="link24_@0_18-5"
         x1="650.34021"
         y1="293.43326"
         x2="569.7207"
         y2="338.56604" /><polygon
         points="707.1526,255.9945 683.22144,221.89935 683.22144,96.59924 707.1526,76.64801 820.28906,108.22217 844.2202,142.31726 844.2202,267.6174 820.28906,287.56866 "
         id="face_81_82_88_87_86_85_79_80"
         style="fill:#c0c0c0;stroke:none"
         opacity="1" /><line
         class="arc1"
         id="link80_@1_79"
         x1="683.22144"
         y1="221.89935"
         x2="707.15259"
         y2="255.99451" /><line
         class="arc2"
         id="link80_@2_74"
         x1="683.22144"
         y1="221.89935"
         x2="667.72717"
         y2="222.89755" /><line
         class="arc0"
         id="link80_@0_81-4"
         x1="683.22144"
         y1="221.89935"
         x2="683.22144"
         y2="96.599243" /><polygon
         points="585.83734,348.06674 579.2932,331.26114 659.9126,286.12833 701.2307,283.4666 816.5406,313.82413 831.77826,325.76285 796.914,348.75958 783.8737,356.05984 725.07837,385.49612 692.45374,383.29105 "
         id="face_37_43_58_57_49_55_13_19_25_31"
         style="fill:#c0c0c0;stroke:none"
         opacity="1" /><line
         class="arc1"
         id="link31_@1_25"
         x1="701.23071"
         y1="283.46661"
         x2="659.9126"
         y2="286.12833" /><line
         class="arc3"
         id="link31_@3_78"
         x1="701.23071"
         y1="283.46661"
         x2="701.23071"
         y2="269.95508" /><line
         class="arc0"
         id="link31_@0_37-7"
         x1="701.23071"
         y1="283.46661"
         x2="816.54059"
         y2="313.82413" /><polygon
         points="650.3402,259.6544 667.7272,222.89755 667.7272,97.59741 650.3402,80.30792 569.7207,125.44067 552.33374,162.19754 552.33374,287.49762 569.7207,304.78717 "
         id="face_75_76_70_69_68_67_73_74"
         style="fill:#c0c0c0;stroke:none"
         opacity="1" /><line
         class="arc1"
         id="link74_@1_73"
         x1="667.72717"
         y1="222.89755"
         x2="650.34021"
         y2="259.65439" /><line
         class="arc0"
         id="link74_@0_75-4"
         x1="667.72717"
         y1="222.89755"
         x2="667.72717"
         y2="97.597412" /><line
         class="arc2"
         id="link79_@2_78"
         x1="707.15259"
         y1="255.99451"
         x2="701.23071"
         y2="269.95508" /><line
         class="arc0"
         id="link79_@0_85-4"
         x1="707.15259"
         y1="255.99451"
         x2="820.28906"
         y2="287.56866" /><line
         class="arc3"
         id="link25_@3_72"
         x1="659.9126"
         y1="286.12833"
         x2="659.9126"
         y2="272.61685" /><line
         class="arc0"
         id="link25_@0_19-3"
         x1="659.9126"
         y1="286.12833"
         x2="579.29321"
         y2="331.26114" /><polygon
         points="585.83734,334.5552 579.2932,317.7496 659.9126,272.61685 701.2307,269.95508 816.5406,300.31253 831.77826,312.2513 799.0874,340.7871 781.7004,350.52075 725.07837,371.98462 692.45374,369.7795 "
         id="face_84_90_96_102_108_114_60_66_72_78"
         style="fill:#c0c0c0;stroke:none"
         opacity="1" /><line
         class="arc1"
         id="link78_@1_72"
         x1="701.23071"
         y1="269.95508"
         x2="659.9126"
         y2="272.61685" /><line
         class="arc0"
         id="link78_@0_84-0"
         x1="701.23071"
         y1="269.95508"
         x2="816.54059"
         y2="300.31253" /><line
         class="arc2"
         id="link34_@2_40"
         x1="842.04681"
         y1="481.95935"
         x2="844.50085"
         y2="487.58588" /><line
         class="arc0"
         id="link34_@0_35-7"
         x1="842.04681"
         y1="481.95935"
         x2="844.22021"
         y2="355.44257" /><line
         class="arc2"
         id="link73_@2_72"
         x1="650.34021"
         y1="259.65439"
         x2="659.9126"
         y2="272.61685" /><line
         class="arc0"
         id="link73_@0_67-8"
         x1="650.34021"
         y1="259.65439"
         x2="569.7207"
         y2="304.78717" /><line
         class="arc0"
         id="link72_@0_66-6"
         x1="659.9126"
         y1="272.61685"
         x2="579.29321"
         y2="317.7496" /><line
         class="arc3"
         id="link6_@3_38"
         x1="812.15698"
         y1="537.48773"
         x2="818.13971"
         y2="532.49994" /><line
         class="arc0"
         id="link6_@0_5-8"
         x1="812.15698"
         y1="537.48773"
         x2="731.53748"
         y2="582.62054" /><line
         class="arc1"
         id="link15_@1_16"
         x1="569.7207"
         y1="517.91235"
         x2="552.33374"
         y2="500.62289" /><line
         class="arc2"
         id="link15_@2_14"
         x1="569.7207"
         y1="517.91235"
         x2="578.69495"
         y2="530.698" /><line
         class="arc1"
         id="link14_@1_8"
         x1="578.69495"
         y1="530.698"
         x2="585.23907"
         y2="547.5036" /><line
         class="arc3"
         id="link14_@3_2"
         x1="578.69495"
         y1="530.698"
         x2="584.67767"
         y2="539.22174" /><line
         class="arc1"
         id="link2_@1_3"
         x1="584.67767"
         y1="539.22174"
         x2="589.58582"
         y2="551.82599" /><line
         class="arc2"
         id="link38_@2_39"
         x1="818.13971"
         y1="532.49994"
         x2="827.11389"
         y2="524.34265" /><line
         class="arc0"
         id="link38_@0_44-8"
         x1="818.13971"
         y1="532.49994"
         x2="737.52026"
         y2="577.63269" /><polygon
         points="729.1075,552.186 746.49445,569.47546 827.1139,524.34265 844.50085,487.58588 848.84766,359.8524 840.1541,337.69608 799.30707,352.169 786.2668,359.46924 733.4542,397.42935 724.76074,429.31934 "
         id="face_41_42_59_56_48_47_46_45_39_40"
         style="fill:#c0c0c0;stroke:none"
         opacity="1" /><line
         class="arc1"
         id="link40_@1_39"
         x1="844.50085"
         y1="487.58588"
         x2="827.11389"
         y2="524.34265" /><line
         class="arc0"
         id="link40_@0_41-4"
         x1="844.50085"
         y1="487.58588"
         x2="848.84766"
         y2="359.85239" /><line
         class="arc0"
         id="link39_@0_45-3"
         x1="827.11389"
         y1="524.34265"
         x2="746.49445"
         y2="569.47546" /><line
         class="arc3"
         id="link3_@3_8"
         x1="589.58582"
         y1="551.82599"
         x2="585.23907"
         y2="547.5036" /><line
         class="arc0"
         id="link3_@0_4-1"
         x1="589.58582"
         y1="551.82599"
         x2="700.54895"
         y2="584.61682" /><line
         class="arc2"
         id="link16_@2_10"
         x1="552.33374"
         y1="500.62289"
         x2="554.78778"
         y2="506.92499" /><line
         class="arc0"
         id="link16_@0_17-4"
         x1="552.33374"
         y1="500.62289"
         x2="552.33374"
         y2="375.32281" /><line
         class="arc1"
         id="link81_@1_82"
         x1="683.22144"
         y1="96.599243"
         x2="707.15259"
         y2="76.64801" /><line
         class="arc2"
         id="link81_@2_75"
         x1="683.22144"
         y1="96.599243"
         x2="667.72717"
         y2="97.597412" /><line
         class="arc2"
         id="link8_@2_9"
         x1="585.23907"
         y1="547.5036"
         x2="578.71893"
         y2="541.02002" /><line
         class="arc0"
         id="link8_@0_50-9"
         x1="585.23907"
         y1="547.5036"
         x2="696.20221"
         y2="580.29449" /><line
         class="arc1"
         id="link75_@1_76"
         x1="667.72717"
         y1="97.597412"
         x2="650.34021"
         y2="80.307922" /><line
         class="arc1"
         id="link36_@1_35"
         x1="820.28906"
         y1="321.34756"
         x2="844.22021"
         y2="355.44257" /><line
         class="arc2"
         id="link36_@2_37"
         x1="820.28906"
         y1="321.34756"
         x2="816.54059"
         y2="313.82413" /><line
         class="arc2"
         id="link35_@2_41"
         x1="844.22021"
         y1="355.44257"
         x2="848.84766"
         y2="359.85239" /><polygon
         points="578.71893,541.02 554.7878,506.925 554.7878,381.6249 578.71893,361.6737 687.50867,395.68134 711.4398,429.77637 713.6133,553.8597 689.68207,573.8109 "
         id="face_11_12_54_53_52_51_9_10"
         style="fill:#c0c0c0;stroke:none"
         opacity="1" /><line
         class="arc1"
         id="link10_@1_9"
         x1="554.78778"
         y1="506.92499"
         x2="578.71893"
         y2="541.02002" /><line
         class="arc0"
         id="link10_@0_11-2"
         x1="554.78778"
         y1="506.92499"
         x2="554.78778"
         y2="381.62491" /><line
         class="arc1"
         id="link37_@1_43"
         x1="816.54059"
         y1="313.82413"
         x2="831.77826"
         y2="325.76285" /><line
         class="arc3"
         id="link37_@3_84"
         x1="816.54059"
         y1="313.82413"
         x2="816.54059"
         y2="300.31253" /><line
         class="arc0"
         id="link9_@0_51-0"
         x1="578.71893"
         y1="541.02002"
         x2="689.68207"
         y2="573.81091" /><line
         class="arc1"
         id="link41_@1_42"
         x1="848.84766"
         y1="359.85239"
         x2="840.15411"
         y2="337.69608" /><line
         class="arc1"
         id="link85_@1_86"
         x1="820.28906"
         y1="287.56866"
         x2="844.22021"
         y2="267.6174" /><line
         class="arc2"
         id="link85_@2_84"
         x1="820.28906"
         y1="287.56866"
         x2="816.54059"
         y2="300.31253" /><line
         class="arc1"
         id="link84_@1_90"
         x1="816.54059"
         y1="300.31253"
         x2="831.77826"
         y2="312.25131" /><line
         class="arc2"
         id="link82_@2_83"
         x1="707.15259"
         y1="76.64801"
         x2="701.23071"
         y2="70.34137" /><line
         class="arc0"
         id="link82_@0_88-6"
         x1="707.15259"
         y1="76.64801"
         x2="820.28906"
         y2="108.22217" /><line
         class="arc2"
         id="link76_@2_77"
         x1="650.34021"
         y1="80.307922"
         x2="659.9126"
         y2="73.003113" /><line
         class="arc0"
         id="link76_@0_70-8"
         x1="650.34021"
         y1="80.307922"
         x2="569.7207"
         y2="125.44067" /><line
         class="arc2"
         id="link43_@2_42"
         x1="831.77826"
         y1="325.76285"
         x2="840.15411"
         y2="337.69608" /><line
         class="arc3"
         id="link43_@3_90"
         x1="831.77826"
         y1="325.76285"
         x2="831.77826"
         y2="312.25131" /><line
         class="arc0"
         id="link43_@0_58-9"
         x1="831.77826"
         y1="325.76285"
         x2="796.914"
         y2="348.75958" /><polygon
         points="585.83734,134.94147 579.2932,118.13586 659.9126,73.00311 701.2307,70.34137 816.5406,100.69879 831.77826,112.63757 799.0874,141.17334 781.7004,150.90704 725.07837,172.37088 692.45374,170.1658 "
         id="face_89_95_101_107_113_119_65_71_77_83"
         style="fill:#c0c0c0;stroke:none"
         opacity="1" /><line
         class="arc1"
         id="link83_@1_77"
         x1="701.23071"
         y1="70.34137"
         x2="659.9126"
         y2="73.003113" /><line
         class="arc0"
         id="link83_@0_89-2"
         x1="701.23071"
         y1="70.34137"
         x2="816.54059"
         y2="100.69879" /><line
         class="arc1"
         id="link18_@1_17"
         x1="569.7207"
         y1="338.56604"
         x2="552.33374"
         y2="375.32281" /><line
         class="arc2"
         id="link18_@2_19"
         x1="569.7207"
         y1="338.56604"
         x2="579.29321"
         y2="331.26114" /><line
         class="arc0"
         id="link42_@0_59-6"
         x1="840.15411"
         y1="337.69608"
         x2="799.30707"
         y2="352.16901" /><line
         class="arc0"
         id="link77_@0_71-6"
         x1="659.9126"
         y1="73.003113"
         x2="579.29321"
         y2="118.13586" /><line
         class="arc2"
         id="link86_@2_92"
         x1="844.22021"
         y1="267.6174"
         x2="849.93433"
         y2="272.09442" /><line
         class="arc0"
         id="link86_@0_87-4"
         x1="844.22021"
         y1="267.6174"
         x2="844.22021"
         y2="142.31726" /><line
         class="arc2"
         id="link90_@2_91"
         x1="831.77826"
         y1="312.25131"
         x2="841.24078"
         y2="303.98444" /><line
         class="arc0"
         id="link90_@0_96-9"
         x1="831.77826"
         y1="312.25131"
         x2="799.0874"
         y2="340.78711" /><line
         class="arc2"
         id="link17_@2_11"
         x1="552.33374"
         y1="375.32281"
         x2="554.78778"
         y2="381.62491" /><line
         class="arc1"
         id="link19_@1_13"
         x1="579.29321"
         y1="331.26114"
         x2="585.83734"
         y2="348.06674" /><line
         class="arc3"
         id="link19_@3_66"
         x1="579.29321"
         y1="331.26114"
         x2="579.29321"
         y2="317.7496" /><polygon
         points="849.9343,272.09442 841.2408,303.98444 804.74054,329.53555 796.047,307.3792 796.047,182.07907 804.74054,150.18903 841.2408,124.638 849.9343,146.79431 "
         id="face_97_98_99_100_94_93_92_91-5"
         style="fill:#c0c0c0;stroke:none"
         opacity="1" /><line
         class="arc1"
         id="link91_@1_92"
         x1="841.24078"
         y1="303.98444"
         x2="849.93433"
         y2="272.09442" /><line
         class="arc0"
         id="link91_@0_97-0"
         x1="841.24078"
         y1="303.98444"
         x2="804.74054"
         y2="329.53555" /><line
         class="arc0"
         id="link92_@0_93-4"
         x1="849.93433"
         y1="272.09442"
         x2="849.93433"
         y2="146.79431" /><line
         class="arc1"
         id="link67_@1_68"
         x1="569.7207"
         y1="304.78717"
         x2="552.33374"
         y2="287.49762" /><line
         class="arc2"
         id="link67_@2_66"
         x1="569.7207"
         y1="304.78717"
         x2="579.29321"
         y2="317.7496" /><line
         class="arc1"
         id="link66_@1_60"
         x1="579.29321"
         y1="317.7496"
         x2="585.83734"
         y2="334.55521" /><line
         class="arc1"
         id="link5_@1_4"
         x1="731.53748"
         y1="582.62054"
         x2="700.54895"
         y2="584.61682" /><line
         class="arc3"
         id="link5_@3_44"
         x1="731.53748"
         y1="582.62054"
         x2="737.52026"
         y2="577.63269" /><line
         class="arc3"
         id="link4_@3_50"
         x1="700.54895"
         y1="584.61682"
         x2="696.20221"
         y2="580.29449" /><line
         class="arc1"
         id="link11_@1_12"
         x1="554.78778"
         y1="381.62491"
         x2="578.71893"
         y2="361.67371" /><line
         class="arc1"
         id="link44_@1_50"
         x1="737.52026"
         y1="577.63269"
         x2="696.20221"
         y2="580.29449" /><line
         class="arc2"
         id="link44_@2_45"
         x1="737.52026"
         y1="577.63269"
         x2="746.49445"
         y2="569.47546" /><line
         class="arc2"
         id="link50_@2_51"
         x1="696.20221"
         y1="580.29449"
         x2="689.68207"
         y2="573.81091" /><line
         class="arc1"
         id="link45_@1_46"
         x1="746.49445"
         y1="569.47546"
         x2="729.10748"
         y2="552.18597" /><line
         class="arc1"
         id="link51_@1_52"
         x1="689.68207"
         y1="573.81091"
         x2="713.61328"
         y2="553.85968" /><line
         class="arc2"
         id="link13_@2_12"
         x1="585.83734"
         y1="348.06674"
         x2="578.71893"
         y2="361.67371" /><line
         class="arc3"
         id="link13_@3_60"
         x1="585.83734"
         y1="348.06674"
         x2="585.83734"
         y2="334.55521" /><line
         class="arc0"
         id="link13_@0_55-8"
         x1="585.83734"
         y1="348.06674"
         x2="692.45374"
         y2="383.29105" /><line
         class="arc2"
         id="link68_@2_62"
         x1="552.33374"
         y1="287.49762"
         x2="554.78778"
         y2="293.79974" /><line
         class="arc0"
         id="link68_@0_69-7"
         x1="552.33374"
         y1="287.49762"
         x2="552.33374"
         y2="162.19754" /><line
         class="arc0"
         id="link12_@0_54-1"
         x1="578.71893"
         y1="361.67371"
         x2="687.50867"
         y2="395.68134" /><line
         class="arc2"
         id="link60_@2_61"
         x1="585.83734"
         y1="334.55521"
         x2="578.71893"
         y2="327.8949" /><line
         class="arc0"
         id="link60_@0_114-7"
         x1="585.83734"
         y1="334.55521"
         x2="692.45374"
         y2="369.77951" /><line
         class="arc1"
         id="link88_@1_87"
         x1="820.28906"
         y1="108.22217"
         x2="844.22021"
         y2="142.31726" /><line
         class="arc2"
         id="link88_@2_89"
         x1="820.28906"
         y1="108.22217"
         x2="816.54059"
         y2="100.69879" /><line
         class="arc2"
         id="link87_@2_93"
         x1="844.22021"
         y1="142.31726"
         x2="849.93433"
         y2="146.79431" /><polygon
         points="578.71893,327.8949 554.7878,293.79974 554.7878,168.49963 578.71893,148.5484 687.50867,182.556 711.4398,216.6511 711.4398,341.95117 687.50867,361.90247 "
         id="face_63_64_118_117_116_115_61_62"
         style="fill:#c0c0c0;stroke:none"
         opacity="1" /><line
         class="arc1"
         id="link62_@1_61"
         x1="554.78778"
         y1="293.79974"
         x2="578.71893"
         y2="327.8949" /><line
         class="arc0"
         id="link62_@0_63-2"
         x1="554.78778"
         y1="293.79974"
         x2="554.78778"
         y2="168.49963" /><line
         class="arc1"
         id="link89_@1_95"
         x1="816.54059"
         y1="100.69879"
         x2="831.77826"
         y2="112.63757" /><line
         class="arc0"
         id="link61_@0_115-7"
         x1="578.71893"
         y1="327.8949"
         x2="687.50867"
         y2="361.90247" /><line
         class="arc1"
         id="link58_@1_57"
         x1="796.914"
         y1="348.75958"
         x2="783.87372"
         y2="356.05984" /><line
         class="arc2"
         id="link58_@2_59"
         x1="796.914"
         y1="348.75958"
         x2="799.30707"
         y2="352.16901" /><line
         class="arc3"
         id="link58_@3_96"
         x1="796.914"
         y1="348.75958"
         x2="799.0874"
         y2="340.78711" /><line
         class="arc1"
         id="link59_@1_56"
         x1="799.30707"
         y1="352.16901"
         x2="786.26678"
         y2="359.46924" /><line
         class="arc1"
         id="link96_@1_102"
         x1="799.0874"
         y1="340.78711"
         x2="781.70038"
         y2="350.52075" /><line
         class="arc2"
         id="link96_@2_97"
         x1="799.0874"
         y1="340.78711"
         x2="804.74054"
         y2="329.53555" /><line
         class="arc1"
         id="link93_@1_94"
         x1="849.93433"
         y1="146.79431"
         x2="841.24078"
         y2="124.638" /><line
         class="arc1"
         id="link97_@1_98"
         x1="804.74054"
         y1="329.53555"
         x2="796.047"
         y2="307.37921" /><line
         class="arc2"
         id="link46_@2_52"
         x1="729.10748"
         y1="552.18597"
         x2="713.61328"
         y2="553.85968" /><line
         class="arc0"
         id="link46_@0_47-2"
         x1="729.10748"
         y1="552.18597"
         x2="724.76074"
         y2="429.31934" /><line
         class="arc0"
         id="link52_@0_53-2"
         x1="713.61328"
         y1="553.85968"
         x2="711.43982"
         y2="429.77637" /><line
         class="arc2"
         id="link57_@2_56"
         x1="783.87372"
         y1="356.05984"
         x2="786.26678"
         y2="359.46924" /><line
         class="arc3"
         id="link57_@3_102"
         x1="783.87372"
         y1="356.05984"
         x2="781.70038"
         y2="350.52075" /><line
         class="arc0"
         id="link57_@0_49-6"
         x1="783.87372"
         y1="356.05984"
         x2="725.07837"
         y2="385.49612" /><line
         class="arc0"
         id="link56_@0_48-1"
         x1="786.26678"
         y1="359.46924"
         x2="733.45422"
         y2="397.42935" /><line
         class="arc2"
         id="link102_@2_103"
         x1="781.70038"
         y1="350.52075"
         x2="780.83337"
         y2="342.91934" /><line
         class="arc0"
         id="link102_@0_108-0"
         x1="781.70038"
         y1="350.52075"
         x2="725.07837"
         y2="371.98462" /><line
         class="arc2"
         id="link94_@2_95"
         x1="841.24078"
         y1="124.638"
         x2="831.77826"
         y2="112.63757" /><line
         class="arc0"
         id="link94_@0_100-6"
         x1="841.24078"
         y1="124.638"
         x2="804.74054"
         y2="150.18903" /><line
         class="arc0"
         id="link95_@0_101-1"
         x1="831.77826"
         y1="112.63757"
         x2="799.0874"
         y2="141.17334" /><line
         class="arc2"
         id="link98_@2_104"
         x1="796.047"
         y1="307.37921"
         x2="789.52692"
         y2="311.0293" /><line
         class="arc0"
         id="link98_@0_99-5"
         x1="796.047"
         y1="307.37921"
         x2="796.047"
         y2="182.07907" /><line
         class="arc1"
         id="link70_@1_69"
         x1="569.7207"
         y1="125.44067"
         x2="552.33374"
         y2="162.19754" /><line
         class="arc2"
         id="link70_@2_71"
         x1="569.7207"
         y1="125.44067"
         x2="579.29321"
         y2="118.13586" /><polygon
         points="789.5269,311.0293 780.8334,342.91934 732.36755,364.93448 723.674,342.7781 723.674,217.478 732.36755,185.58798 780.8334,163.57285 789.5269,185.72916 "
         id="face_109_110_111_112_106_105_104_103-9"
         style="fill:#c0c0c0;stroke:none"
         opacity="1" /><line
         class="arc1"
         id="link103_@1_104"
         x1="780.83337"
         y1="342.91934"
         x2="789.52692"
         y2="311.0293" /><line
         class="arc0"
         id="link103_@0_109-4"
         x1="780.83337"
         y1="342.91934"
         x2="732.36755"
         y2="364.93448" /><line
         class="arc0"
         id="link104_@0_105-9"
         x1="789.52692"
         y1="311.0293"
         x2="789.52692"
         y2="185.72916" /><line
         class="arc2"
         id="link69_@2_63"
         x1="552.33374"
         y1="162.19754"
         x2="554.78778"
         y2="168.49963" /><line
         class="arc1"
         id="link71_@1_65"
         x1="579.29321"
         y1="118.13586"
         x2="585.83734"
         y2="134.94147" /><line
         class="arc1"
         id="link63_@1_64"
         x1="554.78778"
         y1="168.49963"
         x2="578.71893"
         y2="148.5484" /><line
         class="arc1"
         id="link55_@1_49"
         x1="692.45374"
         y1="383.29105"
         x2="725.07837"
         y2="385.49612" /><line
         class="arc2"
         id="link55_@2_54"
         x1="692.45374"
         y1="383.29105"
         x2="687.50867"
         y2="395.68134" /><line
         class="arc3"
         id="link55_@3_114"
         x1="692.45374"
         y1="383.29105"
         x2="692.45374"
         y2="369.77951" /><line
         class="arc1"
         id="link54_@1_53"
         x1="687.50867"
         y1="395.68134"
         x2="711.43982"
         y2="429.77637" /><line
         class="arc2"
         id="link53_@2_47"
         x1="711.43982"
         y1="429.77637"
         x2="724.76074"
         y2="429.31934" /><line
         class="arc1"
         id="link47_@1_48"
         x1="724.76074"
         y1="429.31934"
         x2="733.45422"
         y2="397.42935" /><line
         class="arc2"
         id="link49_@2_48"
         x1="725.07837"
         y1="385.49612"
         x2="733.45422"
         y2="397.42935" /><line
         class="arc3"
         id="link49_@3_108"
         x1="725.07837"
         y1="385.49612"
         x2="725.07837"
         y2="371.98462" /><line
         class="arc1"
         id="link114_@1_108"
         x1="692.45374"
         y1="369.77951"
         x2="725.07837"
         y2="371.98462" /><line
         class="arc2"
         id="link114_@2_115"
         x1="692.45374"
         y1="369.77951"
         x2="687.50867"
         y2="361.90247" /><line
         class="arc2"
         id="link108_@2_109"
         x1="725.07837"
         y1="371.98462"
         x2="732.36755"
         y2="364.93448" /><line
         class="arc2"
         id="link65_@2_64"
         x1="585.83734"
         y1="134.94147"
         x2="578.71893"
         y2="148.5484" /><line
         class="arc0"
         id="link65_@0_119-0"
         x1="585.83734"
         y1="134.94147"
         x2="692.45374"
         y2="170.1658" /><line
         class="arc1"
         id="link115_@1_116"
         x1="687.50867"
         y1="361.90247"
         x2="711.43982"
         y2="341.95117" /><line
         class="arc0"
         id="link64_@0_118-9"
         x1="578.71893"
         y1="148.5484"
         x2="687.50867"
         y2="182.556" /><line
         class="arc1"
         id="link99_@1_100"
         x1="796.047"
         y1="182.07907"
         x2="804.74054"
         y2="150.18903" /><line
         class="arc2"
         id="link99_@2_105"
         x1="796.047"
         y1="182.07907"
         x2="789.52692"
         y2="185.72916" /><line
         class="arc2"
         id="link100_@2_101"
         x1="804.74054"
         y1="150.18903"
         x2="799.0874"
         y2="141.17334" /><line
         class="arc1"
         id="link109_@1_110"
         x1="732.36755"
         y1="364.93448"
         x2="723.67401"
         y2="342.77811" /><line
         class="arc1"
         id="link101_@1_107"
         x1="799.0874"
         y1="141.17334"
         x2="781.70038"
         y2="150.90704" /><line
         class="arc1"
         id="link105_@1_106"
         x1="789.52692"
         y1="185.72916"
         x2="780.83337"
         y2="163.57285" /><line
         class="arc2"
         id="link116_@2_110"
         x1="711.43982"
         y1="341.95117"
         x2="723.67401"
         y2="342.77811" /><line
         class="arc0"
         id="link116_@0_117-1"
         x1="711.43982"
         y1="341.95117"
         x2="711.43982"
         y2="216.65109" /><line
         class="arc0"
         id="link110_@0_111-7"
         x1="723.67401"
         y1="342.77811"
         x2="723.67401"
         y2="217.478" /><line
         class="arc2"
         id="link107_@2_106"
         x1="781.70038"
         y1="150.90704"
         x2="780.83337"
         y2="163.57285" /><line
         class="arc0"
         id="link107_@0_113-7"
         x1="781.70038"
         y1="150.90704"
         x2="725.07837"
         y2="172.37088" /><line
         class="arc0"
         id="link106_@0_112-1"
         x1="780.83337"
         y1="163.57285"
         x2="732.36755"
         y2="185.58798" /><line
         class="arc1"
         id="link118_@1_117"
         x1="687.50867"
         y1="182.556"
         x2="711.43982"
         y2="216.65109" /><line
         class="arc2"
         id="link118_@2_119"
         x1="687.50867"
         y1="182.556"
         x2="692.45374"
         y2="170.1658" /><line
         class="arc1"
         id="link119_@1_113"
         x1="692.45374"
         y1="170.1658"
         x2="725.07837"
         y2="172.37088" /><line
         class="arc2"
         id="link117_@2_111"
         x1="711.43982"
         y1="216.65109"
         x2="723.67401"
         y2="217.478" /><line
         class="arc2"
         id="link113_@2_112"
         x1="725.07837"
         y1="172.37088"
         x2="732.36755"
         y2="185.58798" /><line
         class="arc1"
         id="link111_@1_112"
         x1="723.67401"
         y1="217.478"
         x2="732.36755"
         y2="185.58798" /></g></g><style
     id="style">
		.arc0 {
			fill:none;
			fill-rule:evenodd;
			stroke:black;
			stroke-width:4;
			stroke-linecap:round;
			stroke-linejoin:round;
			stroke-opacity:1;
		}
		.arc1 {
			fill:none;
			fill-rule:evenodd;
			stroke:red;
			stroke-width:4;
			stroke-linecap:round;
			stroke-linejoin:round;
			stroke-opacity:1;
		}
		.arc2 {
			fill:none;
			fill-rule:evenodd;
			stroke:blue;
			stroke-width:4;
			stroke-linecap:round;
			stroke-linejoin:round;
			stroke-opacity:1;
		}
		.arc3 {
			fill:none;
			fill-rule:evenodd;
			stroke:green;
			stroke-width:4;
			stroke-linecap:round;
			stroke-linejoin:round;
			stroke-opacity:1;
		}
		.topological-dart {
			fill:#000000;
			stroke:#000000;
			stroke-width:0;
			stroke-linecap:round;
			stroke-linejoin:round;
			stroke-dasharray:none;
			paint-order:markers fill stroke;
		}
	</style><style
     id="style-4">
		.arc0 {
			fill:none;
			fill-rule:evenodd;
			stroke:black;
			stroke-width:4;
			stroke-linecap:round;
			stroke-linejoin:round;
			stroke-opacity:1;
		}
		.arc1 {
			fill:none;
			fill-rule:evenodd;
			stroke:red;
			stroke-width:4;
			stroke-linecap:round;
			stroke-linejoin:round;
			stroke-opacity:1;
		}
		.arc2 {
			fill:none;
			fill-rule:evenodd;
			stroke:blue;
			stroke-width:4;
			stroke-linecap:round;
			stroke-linejoin:round;
			stroke-opacity:1;
		}
		.arc3 {
			fill:none;
			fill-rule:evenodd;
			stroke:green;
			stroke-width:4;
			stroke-linecap:round;
			stroke-linejoin:round;
			stroke-opacity:1;
		}
		.topological-dart {
			fill:#000000;
			stroke:#000000;
			stroke-width:0;
			stroke-linecap:round;
			stroke-linejoin:round;
			stroke-dasharray:none;
			paint-order:markers fill stroke;
		}
	</style></svg>
