<?xml version="1.0" encoding="UTF-8" standalone="no"?>
<!-- Created with Jerboa -->

<svg
	width="1406"
	height="651" >
	<style id="style">
		.arc0 {
			fill:none;
			fill-rule:evenodd;
			stroke:black;
			stroke-width:4;
			stroke-linecap:round;
			stroke-linejoin:round;
			stroke-opacity:1;
		}
		.arc1 {
			fill:none;
			fill-rule:evenodd;
			stroke:red;
			stroke-width:4;
			stroke-linecap:round;
			stroke-linejoin:round;
			stroke-opacity:1;
		}
		.arc2 {
			fill:none;
			fill-rule:evenodd;
			stroke:blue;
			stroke-width:4;
			stroke-linecap:round;
			stroke-linejoin:round;
			stroke-opacity:1;
		}
		.arc3 {
			fill:none;
			fill-rule:evenodd;
			stroke:green;
			stroke-width:4;
			stroke-linecap:round;
			stroke-linejoin:round;
			stroke-opacity:1;
		}
		.topological-dart {
			fill:#000000;
			stroke:#000000;
			stroke-width:0;
			stroke-linecap:round;
			stroke-linejoin:round;
			stroke-dasharray:none;
			paint-order:markers fill stroke;
		}
	</style>
<polygon
	points="686.0542,500.02484 686.0542,333.6392 721.0152,294.09045 861.09094,302.01868 896.05194,345.525 896.05194,511.91064 861.09094,551.4594 721.0152,543.5312 "
	id="face_45_46_11_10_9_8_43_44"
	style="fill:rgb(192,192,192);stroke:none"
	opacity="1.0" />
<line
	class="arc1"
	id="link44_@1_43"
	x1="686.0542"
	y1="500.02484"
	x2="721.0152"
	y2="543.5312" />
<line
	class="arc2"
	id="link44_@2_39"
	x1="686.0542"
	y1="500.02484"
	x2="635.5975"
	y2="500.9596" />
<line
	class="arc0"
	id="link44_@0_45"
	x1="686.0542"
	y1="500.02484"
	x2="686.0542"
	y2="333.6392" />
<circle
	id="dart44"
	cx="686.0542"
	cy="500.02484"
	r="10"
	stroke="black"
	fill="rgb(0,0,0)" />
<polygon
	points="635.5975,500.9596 635.5975,334.57394 612.89355,296.09348 521.92725,308.3019 499.2234,352.87643 499.2234,519.2621 521.92725,557.7426 612.89355,545.5342 "
	id="face_40_41_36_35_34_33_38_39"
	style="fill:rgb(192,192,192);stroke:none"
	opacity="1.0" />
<line
	class="arc1"
	id="link39_@1_38"
	x1="635.5975"
	y1="500.9596"
	x2="612.89355"
	y2="545.5342" />
<line
	class="arc0"
	id="link39_@0_40"
	x1="635.5975"
	y1="500.9596"
	x2="635.5975"
	y2="334.57394" />
<circle
	id="dart39"
	cx="635.5975"
	cy="500.9596"
	r="10"
	stroke="black"
	fill="rgb(0,0,0)" />
<line
	class="arc1"
	id="link45_@1_46"
	x1="686.0542"
	y1="333.6392"
	x2="721.0152"
	y2="294.09045" />
<line
	class="arc2"
	id="link45_@2_40"
	x1="686.0542"
	y1="333.6392"
	x2="635.5975"
	y2="334.57394" />
<circle
	id="dart45"
	cx="686.0542"
	cy="333.6392"
	r="10"
	stroke="black"
	fill="rgb(0,0,0)" />
<line
	class="arc2"
	id="link43_@2_0"
	x1="721.0152"
	y1="543.5312"
	x2="701.1493"
	y2="582.53394" />
<line
	class="arc0"
	id="link43_@0_8"
	x1="721.0152"
	y1="543.5312"
	x2="861.09094"
	y2="551.4594" />
<circle
	id="dart43"
	cx="721.0152"
	cy="543.5312"
	r="10"
	stroke="black"
	fill="rgb(0,0,0)" />
<line
	class="arc1"
	id="link40_@1_41"
	x1="635.5975"
	y1="334.57394"
	x2="612.89355"
	y2="296.09348" />
<circle
	id="dart40"
	cx="635.5975"
	cy="334.57394"
	r="10"
	stroke="black"
	fill="rgb(0,0,0)" />
<line
	class="arc2"
	id="link46_@2_47"
	x1="721.0152"
	y1="294.09045"
	x2="701.1493"
	y2="260.42007" />
<line
	class="arc0"
	id="link46_@0_11"
	x1="721.0152"
	y1="294.09045"
	x2="861.09094"
	y2="302.01868" />
<circle
	id="dart46"
	cx="721.0152"
	cy="294.09045"
	r="10"
	stroke="black"
	fill="rgb(0,0,0)" />
<line
	class="arc2"
	id="link38_@2_1"
	x1="612.89355"
	y1="545.5342"
	x2="643.4844"
	y2="583.60223" />
<line
	class="arc0"
	id="link38_@0_33"
	x1="612.89355"
	y1="545.5342"
	x2="521.92725"
	y2="557.7426" />
<circle
	id="dart38"
	cx="612.89355"
	cy="545.5342"
	r="10"
	stroke="black"
	fill="rgb(0,0,0)" />
<polygon
	points="701.1493,582.53394 841.22504,590.46216 853.48206,595.488 762.51587,607.6964 704.85095,608.76465 564.7752,600.8364 552.5181,595.8106 643.4844,583.60223 "
	id="face_7_6_5_4_3_2_1_0"
	style="fill:rgb(192,192,192);stroke:none"
	opacity="1.0" />
<line
	class="arc1"
	id="link0_@1_1"
	x1="701.1493"
	y1="582.53394"
	x2="643.4844"
	y2="583.60223" />
<line
	class="arc0"
	id="link0_@0_7"
	x1="701.1493"
	y1="582.53394"
	x2="841.22504"
	y2="590.46216" />
<circle
	id="dart0"
	cx="701.1493"
	cy="582.53394"
	r="10"
	stroke="black"
	fill="rgb(0,0,0)" />
<line
	class="arc0"
	id="link1_@0_2"
	x1="643.4844"
	y1="583.60223"
	x2="552.5181"
	y2="595.8106" />
<circle
	id="dart1"
	cx="643.4844"
	cy="583.60223"
	r="10"
	stroke="black"
	fill="rgb(0,0,0)" />
<line
	class="arc2"
	id="link41_@2_42"
	x1="612.89355"
	y1="296.09348"
	x2="643.4844"
	y2="261.4883" />
<line
	class="arc0"
	id="link41_@0_36"
	x1="612.89355"
	y1="296.09348"
	x2="521.92725"
	y2="308.3019" />
<circle
	id="dart41"
	cx="612.89355"
	cy="296.09348"
	r="10"
	stroke="black"
	fill="rgb(0,0,0)" />
<polygon
	points="721.24146,197.10004 843.8368,204.03885 849.9653,165.02408 748.8605,21.275269 713.8995,19.296448 692.409,156.10645 "
	id="face_67_68_69_75_74_73"
	style="fill:rgb(192,192,192);stroke:none"
	opacity="1.0" />
<line
	class="arc1"
	id="link73_@1_74"
	x1="721.24146"
	y1="197.10004"
	x2="692.409"
	y2="156.10645" />
<line
	class="arc2"
	id="link73_@2_72"
	x1="721.24146"
	y1="197.10004"
	x2="701.1493"
	y2="229.27448" />
<line
	class="arc0"
	id="link73_@0_67"
	x1="721.24146"
	y1="197.10004"
	x2="843.8368"
	y2="204.03885" />
<circle
	id="dart73"
	cx="721.24146"
	cy="197.10004"
	r="10"
	stroke="black"
	fill="rgb(0,0,0)" />
<polygon
	points="701.1493,260.42007 841.22504,268.34833 853.48206,273.37415 762.51587,285.58258 704.85095,286.65082 564.7752,278.7226 552.5181,273.69678 643.4844,261.4883 "
	id="face_12_17_22_27_32_37_42_47"
	style="fill:rgb(192,192,192);stroke:none"
	opacity="1.0" />
<line
	class="arc1"
	id="link47_@1_42"
	x1="701.1493"
	y1="260.42007"
	x2="643.4844"
	y2="261.4883" />
<line
	class="arc3"
	id="link47_@3_72"
	x1="701.1493"
	y1="260.42007"
	x2="701.1493"
	y2="229.27448" />
<line
	class="arc0"
	id="link47_@0_12"
	x1="701.1493"
	y1="260.42007"
	x2="841.22504"
	y2="268.34833" />
<circle
	id="dart47"
	cx="701.1493"
	cy="260.42007"
	r="10"
	stroke="black"
	fill="rgb(0,0,0)" />
<polygon
	points="701.1493,229.27448 841.22504,237.2027 853.48206,242.22849 762.51587,254.43695 704.85095,255.50519 564.7752,247.57697 552.5181,242.55118 643.4844,230.34268 "
	id="face_66_60_54_48_90_84_78_72"
	style="fill:rgb(192,192,192);stroke:none"
	opacity="1.0" />
<line
	class="arc1"
	id="link72_@1_78"
	x1="701.1493"
	y1="229.27448"
	x2="643.4844"
	y2="230.34268" />
<line
	class="arc0"
	id="link72_@0_66"
	x1="701.1493"
	y1="229.27448"
	x2="841.22504"
	y2="237.2027" />
<circle
	id="dart72"
	cx="701.1493"
	cy="229.27448"
	r="10"
	stroke="black"
	fill="rgb(0,0,0)" />
<line
	class="arc2"
	id="link74_@2_80"
	x1="692.409"
	y1="156.10645"
	x2="649.1604"
	y2="156.90771" />
<line
	class="arc0"
	id="link74_@0_75"
	x1="692.409"
	y1="156.10645"
	x2="713.8995"
	y2="19.296448" />
<circle
	id="dart74"
	cx="692.409"
	cy="156.10645"
	r="10"
	stroke="black"
	fill="rgb(0,0,0)" />
<line
	class="arc3"
	id="link42_@3_78"
	x1="643.4844"
	y1="261.4883"
	x2="643.4844"
	y2="230.34268" />
<line
	class="arc0"
	id="link42_@0_37"
	x1="643.4844"
	y1="261.4883"
	x2="552.5181"
	y2="273.69678" />
<circle
	id="dart42"
	cx="643.4844"
	cy="261.4883"
	r="10"
	stroke="black"
	fill="rgb(0,0,0)" />
<polygon
	points="649.1604,156.90771 670.6509,20.097656 647.94696,23.144775 546.84216,170.63959 540.7136,209.65439 620.32794,198.96945 "
	id="face_81_87_86_85_79_80"
	style="fill:rgb(192,192,192);stroke:none"
	opacity="1.0" />
<line
	class="arc1"
	id="link80_@1_79"
	x1="649.1604"
	y1="156.90771"
	x2="620.32794"
	y2="198.96945" />
<line
	class="arc0"
	id="link80_@0_81"
	x1="649.1604"
	y1="156.90771"
	x2="670.6509"
	y2="20.097656" />
<circle
	id="dart80"
	cx="649.1604"
	cy="156.90771"
	r="10"
	stroke="black"
	fill="rgb(0,0,0)" />
<line
	class="arc2"
	id="link78_@2_79"
	x1="643.4844"
	y1="230.34268"
	x2="620.32794"
	y2="198.96945" />
<line
	class="arc0"
	id="link78_@0_84"
	x1="643.4844"
	y1="230.34268"
	x2="552.5181"
	y2="242.55118" />
<circle
	id="dart78"
	cx="643.4844"
	cy="230.34268"
	r="10"
	stroke="black"
	fill="rgb(0,0,0)" />
<line
	class="arc0"
	id="link79_@0_85"
	x1="620.32794"
	y1="198.96945"
	x2="540.7136"
	y2="209.65439" />
<circle
	id="dart79"
	cx="620.32794"
	cy="198.96945"
	r="10"
	stroke="black"
	fill="rgb(0,0,0)" />
<line
	class="arc1"
	id="link8_@1_9"
	x1="861.09094"
	y1="551.4594"
	x2="896.05194"
	y2="511.91064" />
<line
	class="arc2"
	id="link8_@2_7"
	x1="861.09094"
	y1="551.4594"
	x2="841.22504"
	y2="590.46216" />
<circle
	id="dart8"
	cx="861.09094"
	cy="551.4594"
	r="10"
	stroke="black"
	fill="rgb(0,0,0)" />
<line
	class="arc1"
	id="link11_@1_10"
	x1="861.09094"
	y1="302.01868"
	x2="896.05194"
	y2="345.525" />
<line
	class="arc2"
	id="link11_@2_12"
	x1="861.09094"
	y1="302.01868"
	x2="841.22504"
	y2="268.34833" />
<circle
	id="dart11"
	cx="861.09094"
	cy="302.01868"
	r="10"
	stroke="black"
	fill="rgb(0,0,0)" />
<line
	class="arc2"
	id="link9_@2_14"
	x1="896.05194"
	y1="511.91064"
	x2="906.7768"
	y2="516.3082" />
<line
	class="arc0"
	id="link9_@0_10"
	x1="896.05194"
	y1="511.91064"
	x2="896.05194"
	y2="345.525" />
<circle
	id="dart9"
	cx="896.05194"
	cy="511.91064"
	r="10"
	stroke="black"
	fill="rgb(0,0,0)" />
<line
	class="arc1"
	id="link7_@1_6"
	x1="841.22504"
	y1="590.46216"
	x2="853.48206"
	y2="595.488" />
<circle
	id="dart7"
	cx="841.22504"
	cy="590.46216"
	r="10"
	stroke="black"
	fill="rgb(0,0,0)" />
<line
	class="arc1"
	id="link67_@1_68"
	x1="843.8368"
	y1="204.03885"
	x2="849.9653"
	y2="165.02408" />
<line
	class="arc2"
	id="link67_@2_66"
	x1="843.8368"
	y1="204.03885"
	x2="841.22504"
	y2="237.2027" />
<circle
	id="dart67"
	cx="843.8368"
	cy="204.03885"
	r="10"
	stroke="black"
	fill="rgb(0,0,0)" />
<line
	class="arc2"
	id="link10_@2_15"
	x1="896.05194"
	y1="345.525"
	x2="906.7768"
	y2="349.92258" />
<circle
	id="dart10"
	cx="896.05194"
	cy="345.525"
	r="10"
	stroke="black"
	fill="rgb(0,0,0)" />
<line
	class="arc1"
	id="link12_@1_17"
	x1="841.22504"
	y1="268.34833"
	x2="853.48206"
	y2="273.37415" />
<line
	class="arc3"
	id="link12_@3_66"
	x1="841.22504"
	y1="268.34833"
	x2="841.22504"
	y2="237.2027" />
<circle
	id="dart12"
	cx="841.22504"
	cy="268.34833"
	r="10"
	stroke="black"
	fill="rgb(0,0,0)" />
<line
	class="arc1"
	id="link66_@1_60"
	x1="841.22504"
	y1="237.2027"
	x2="853.48206"
	y2="242.22849" />
<circle
	id="dart66"
	cx="841.22504"
	cy="237.2027"
	r="10"
	stroke="black"
	fill="rgb(0,0,0)" />
<line
	class="arc2"
	id="link68_@2_62"
	x1="849.9653"
	y1="165.02408"
	x2="859.1581"
	y2="168.79352" />
<line
	class="arc0"
	id="link68_@0_69"
	x1="849.9653"
	y1="165.02408"
	x2="748.8605"
	y2="21.275269" />
<circle
	id="dart68"
	cx="849.9653"
	cy="165.02408"
	r="10"
	stroke="black"
	fill="rgb(0,0,0)" />
<line
	class="arc1"
	id="link33_@1_34"
	x1="521.92725"
	y1="557.7426"
	x2="499.2234"
	y2="519.2621" />
<line
	class="arc2"
	id="link33_@2_2"
	x1="521.92725"
	y1="557.7426"
	x2="552.5181"
	y2="595.8106" />
<circle
	id="dart33"
	cx="521.92725"
	cy="557.7426"
	r="10"
	stroke="black"
	fill="rgb(0,0,0)" />
<polygon
	points="906.7768,516.3082 906.7768,349.92258 884.0729,311.4421 793.1066,323.6505 770.4027,368.22507 770.4027,534.6107 793.1066,573.0912 884.0729,560.8828 "
	id="face_15_16_21_20_19_18_13_14"
	style="fill:rgb(192,192,192);stroke:none"
	opacity="1.0" />
<line
	class="arc1"
	id="link14_@1_13"
	x1="906.7768"
	y1="516.3082"
	x2="884.0729"
	y2="560.8828" />
<line
	class="arc0"
	id="link14_@0_15"
	x1="906.7768"
	y1="516.3082"
	x2="906.7768"
	y2="349.92258" />
<circle
	id="dart14"
	cx="906.7768"
	cy="516.3082"
	r="10"
	stroke="black"
	fill="rgb(0,0,0)" />
<line
	class="arc1"
	id="link75_@1_69"
	x1="713.8995"
	y1="19.296448"
	x2="748.8605"
	y2="21.275269" />
<line
	class="arc2"
	id="link75_@2_81"
	x1="713.8995"
	y1="19.296448"
	x2="670.6509"
	y2="20.097656" />
<circle
	id="dart75"
	cx="713.8995"
	cy="19.296448"
	r="10"
	stroke="black"
	fill="rgb(0,0,0)" />
<line
	class="arc2"
	id="link6_@2_13"
	x1="853.48206"
	y1="595.488"
	x2="884.0729"
	y2="560.8828" />
<line
	class="arc0"
	id="link6_@0_5"
	x1="853.48206"
	y1="595.488"
	x2="762.51587"
	y2="607.6964" />
<circle
	id="dart6"
	cx="853.48206"
	cy="595.488"
	r="10"
	stroke="black"
	fill="rgb(0,0,0)" />
<line
	class="arc1"
	id="link2_@1_3"
	x1="552.5181"
	y1="595.8106"
	x2="564.7752"
	y2="600.8364" />
<circle
	id="dart2"
	cx="552.5181"
	cy="595.8106"
	r="10"
	stroke="black"
	fill="rgb(0,0,0)" />
<line
	class="arc1"
	id="link15_@1_16"
	x1="906.7768"
	y1="349.92258"
	x2="884.0729"
	y2="311.4421" />
<circle
	id="dart15"
	cx="906.7768"
	cy="349.92258"
	r="10"
	stroke="black"
	fill="rgb(0,0,0)" />
<line
	class="arc1"
	id="link81_@1_87"
	x1="670.6509"
	y1="20.097656"
	x2="647.94696"
	y2="23.144775" />
<circle
	id="dart81"
	cx="670.6509"
	cy="20.097656"
	r="10"
	stroke="black"
	fill="rgb(0,0,0)" />
<line
	class="arc1"
	id="link36_@1_35"
	x1="521.92725"
	y1="308.3019"
	x2="499.2234"
	y2="352.87643" />
<line
	class="arc2"
	id="link36_@2_37"
	x1="521.92725"
	y1="308.3019"
	x2="552.5181"
	y2="273.69678" />
<circle
	id="dart36"
	cx="521.92725"
	cy="308.3019"
	r="10"
	stroke="black"
	fill="rgb(0,0,0)" />
<line
	class="arc1"
	id="link85_@1_86"
	x1="540.7136"
	y1="209.65439"
	x2="546.84216"
	y2="170.63959" />
<line
	class="arc2"
	id="link85_@2_84"
	x1="540.7136"
	y1="209.65439"
	x2="552.5181"
	y2="242.55118" />
<circle
	id="dart85"
	cx="540.7136"
	cy="209.65439"
	r="10"
	stroke="black"
	fill="rgb(0,0,0)" />
<line
	class="arc2"
	id="link69_@2_63"
	x1="748.8605"
	y1="21.275269"
	x2="758.0533"
	y2="25.044617" />
<circle
	id="dart69"
	cx="748.8605"
	cy="21.275269"
	r="10"
	stroke="black"
	fill="rgb(0,0,0)" />
<line
	class="arc0"
	id="link13_@0_18"
	x1="884.0729"
	y1="560.8828"
	x2="793.1066"
	y2="573.0912" />
<circle
	id="dart13"
	cx="884.0729"
	cy="560.8828"
	r="10"
	stroke="black"
	fill="rgb(0,0,0)" />
<line
	class="arc2"
	id="link34_@2_29"
	x1="499.2234"
	y1="519.2621"
	x2="509.9483"
	y2="523.65967" />
<line
	class="arc0"
	id="link34_@0_35"
	x1="499.2234"
	y1="519.2621"
	x2="499.2234"
	y2="352.87643" />
<circle
	id="dart34"
	cx="499.2234"
	cy="519.2621"
	r="10"
	stroke="black"
	fill="rgb(0,0,0)" />
<line
	class="arc2"
	id="link17_@2_16"
	x1="853.48206"
	y1="273.37415"
	x2="884.0729"
	y2="311.4421" />
<line
	class="arc3"
	id="link17_@3_60"
	x1="853.48206"
	y1="273.37415"
	x2="853.48206"
	y2="242.22849" />
<line
	class="arc0"
	id="link17_@0_22"
	x1="853.48206"
	y1="273.37415"
	x2="762.51587"
	y2="285.58258" />
<circle
	id="dart17"
	cx="853.48206"
	cy="273.37415"
	r="10"
	stroke="black"
	fill="rgb(0,0,0)" />
<polygon
	points="859.1581,168.79352 758.0533,25.044617 735.3493,28.091675 756.8399,182.52536 785.6723,223.51895 865.2866,212.83401 "
	id="face_63_57_56_55_61_62"
	style="fill:rgb(192,192,192);stroke:none"
	opacity="1.0" />
<line
	class="arc1"
	id="link62_@1_61"
	x1="859.1581"
	y1="168.79352"
	x2="865.2866"
	y2="212.83401" />
<line
	class="arc0"
	id="link62_@0_63"
	x1="859.1581"
	y1="168.79352"
	x2="758.0533"
	y2="25.044617" />
<circle
	id="dart62"
	cx="859.1581"
	cy="168.79352"
	r="10"
	stroke="black"
	fill="rgb(0,0,0)" />
<line
	class="arc2"
	id="link60_@2_61"
	x1="853.48206"
	y1="242.22849"
	x2="865.2866"
	y2="212.83401" />
<line
	class="arc0"
	id="link60_@0_54"
	x1="853.48206"
	y1="242.22849"
	x2="762.51587"
	y2="254.43695" />
<circle
	id="dart60"
	cx="853.48206"
	cy="242.22849"
	r="10"
	stroke="black"
	fill="rgb(0,0,0)" />
<line
	class="arc1"
	id="link37_@1_32"
	x1="552.5181"
	y1="273.69678"
	x2="564.7752"
	y2="278.7226" />
<line
	class="arc3"
	id="link37_@3_84"
	x1="552.5181"
	y1="273.69678"
	x2="552.5181"
	y2="242.55118" />
<circle
	id="dart37"
	cx="552.5181"
	cy="273.69678"
	r="10"
	stroke="black"
	fill="rgb(0,0,0)" />
<line
	class="arc1"
	id="link84_@1_90"
	x1="552.5181"
	y1="242.55118"
	x2="564.7752"
	y2="247.57697" />
<circle
	id="dart84"
	cx="552.5181"
	cy="242.55118"
	r="10"
	stroke="black"
	fill="rgb(0,0,0)" />
<line
	class="arc2"
	id="link35_@2_30"
	x1="499.2234"
	y1="352.87643"
	x2="509.9483"
	y2="357.27405" />
<circle
	id="dart35"
	cx="499.2234"
	cy="352.87643"
	r="10"
	stroke="black"
	fill="rgb(0,0,0)" />
<line
	class="arc2"
	id="link87_@2_93"
	x1="647.94696"
	y1="23.144775"
	x2="657.1398"
	y2="26.914124" />
<line
	class="arc0"
	id="link87_@0_86"
	x1="647.94696"
	y1="23.144775"
	x2="546.84216"
	y2="170.63959" />
<circle
	id="dart87"
	cx="647.94696"
	cy="23.144775"
	r="10"
	stroke="black"
	fill="rgb(0,0,0)" />
<line
	class="arc0"
	id="link16_@0_21"
	x1="884.0729"
	y1="311.4421"
	x2="793.1066"
	y2="323.6505" />
<circle
	id="dart16"
	cx="884.0729"
	cy="311.4421"
	r="10"
	stroke="black"
	fill="rgb(0,0,0)" />
<line
	class="arc2"
	id="link86_@2_92"
	x1="546.84216"
	y1="170.63959"
	x2="556.035"
	y2="174.40903" />
<circle
	id="dart86"
	cx="546.84216"
	cy="170.63959"
	r="10"
	stroke="black"
	fill="rgb(0,0,0)" />
<line
	class="arc0"
	id="link61_@0_55"
	x1="865.2866"
	y1="212.83401"
	x2="785.6723"
	y2="223.51895" />
<circle
	id="dart61"
	cx="865.2866"
	cy="212.83401"
	r="10"
	stroke="black"
	fill="rgb(0,0,0)" />
<line
	class="arc2"
	id="link3_@2_28"
	x1="564.7752"
	y1="600.8364"
	x2="544.9093"
	y2="567.166" />
<line
	class="arc0"
	id="link3_@0_4"
	x1="564.7752"
	y1="600.8364"
	x2="704.85095"
	y2="608.76465" />
<circle
	id="dart3"
	cx="564.7752"
	cy="600.8364"
	r="10"
	stroke="black"
	fill="rgb(0,0,0)" />
<line
	class="arc1"
	id="link63_@1_57"
	x1="758.0533"
	y1="25.044617"
	x2="735.3493"
	y2="28.091675" />
<circle
	id="dart63"
	cx="758.0533"
	cy="25.044617"
	r="10"
	stroke="black"
	fill="rgb(0,0,0)" />
<polygon
	points="509.9483,523.65967 509.9483,357.27405 544.9093,317.72528 684.9851,325.65353 719.94604,369.15982 719.94604,535.5455 684.9851,575.09424 544.9093,567.166 "
	id="face_30_31_26_25_24_23_28_29"
	style="fill:rgb(192,192,192);stroke:none"
	opacity="1.0" />
<line
	class="arc1"
	id="link29_@1_28"
	x1="509.9483"
	y1="523.65967"
	x2="544.9093"
	y2="567.166" />
<line
	class="arc0"
	id="link29_@0_30"
	x1="509.9483"
	y1="523.65967"
	x2="509.9483"
	y2="357.27405" />
<circle
	id="dart29"
	cx="509.9483"
	cy="523.65967"
	r="10"
	stroke="black"
	fill="rgb(0,0,0)" />
<polygon
	points="657.1398,26.914124 556.035,174.40903 562.16345,218.44952 684.7588,225.38837 713.5912,183.32663 692.1007,28.892883 "
	id="face_92_91_49_50_51_93"
	style="fill:rgb(192,192,192);stroke:none"
	opacity="1.0" />
<line
	class="arc1"
	id="link93_@1_51"
	x1="657.1398"
	y1="26.914124"
	x2="692.1007"
	y2="28.892883" />
<line
	class="arc0"
	id="link93_@0_92"
	x1="657.1398"
	y1="26.914124"
	x2="556.035"
	y2="174.40903" />
<circle
	id="dart93"
	cx="657.1398"
	cy="26.914124"
	r="10"
	stroke="black"
	fill="rgb(0,0,0)" />
<line
	class="arc2"
	id="link32_@2_31"
	x1="564.7752"
	y1="278.7226"
	x2="544.9093"
	y2="317.72528" />
<line
	class="arc3"
	id="link32_@3_90"
	x1="564.7752"
	y1="278.7226"
	x2="564.7752"
	y2="247.57697" />
<line
	class="arc0"
	id="link32_@0_27"
	x1="564.7752"
	y1="278.7226"
	x2="704.85095"
	y2="286.65082" />
<circle
	id="dart32"
	cx="564.7752"
	cy="278.7226"
	r="10"
	stroke="black"
	fill="rgb(0,0,0)" />
<line
	class="arc1"
	id="link30_@1_31"
	x1="509.9483"
	y1="357.27405"
	x2="544.9093"
	y2="317.72528" />
<circle
	id="dart30"
	cx="509.9483"
	cy="357.27405"
	r="10"
	stroke="black"
	fill="rgb(0,0,0)" />
<line
	class="arc2"
	id="link90_@2_91"
	x1="564.7752"
	y1="247.57697"
	x2="562.16345"
	y2="218.44952" />
<line
	class="arc0"
	id="link90_@0_48"
	x1="564.7752"
	y1="247.57697"
	x2="704.85095"
	y2="255.50519" />
<circle
	id="dart90"
	cx="564.7752"
	cy="247.57697"
	r="10"
	stroke="black"
	fill="rgb(0,0,0)" />
<line
	class="arc1"
	id="link92_@1_91"
	x1="556.035"
	y1="174.40903"
	x2="562.16345"
	y2="218.44952" />
<circle
	id="dart92"
	cx="556.035"
	cy="174.40903"
	r="10"
	stroke="black"
	fill="rgb(0,0,0)" />
<line
	class="arc0"
	id="link28_@0_23"
	x1="544.9093"
	y1="567.166"
	x2="684.9851"
	y2="575.09424" />
<circle
	id="dart28"
	cx="544.9093"
	cy="567.166"
	r="10"
	stroke="black"
	fill="rgb(0,0,0)" />
<line
	class="arc2"
	id="link57_@2_51"
	x1="735.3493"
	y1="28.091675"
	x2="692.1007"
	y2="28.892883" />
<line
	class="arc0"
	id="link57_@0_56"
	x1="735.3493"
	y1="28.091675"
	x2="756.8399"
	y2="182.52536" />
<circle
	id="dart57"
	cx="735.3493"
	cy="28.091675"
	r="10"
	stroke="black"
	fill="rgb(0,0,0)" />
<line
	class="arc0"
	id="link51_@0_50"
	x1="692.1007"
	y1="28.892883"
	x2="713.5912"
	y2="183.32663" />
<circle
	id="dart51"
	cx="692.1007"
	cy="28.892883"
	r="10"
	stroke="black"
	fill="rgb(0,0,0)" />
<line
	class="arc0"
	id="link31_@0_26"
	x1="544.9093"
	y1="317.72528"
	x2="684.9851"
	y2="325.65353" />
<circle
	id="dart31"
	cx="544.9093"
	cy="317.72528"
	r="10"
	stroke="black"
	fill="rgb(0,0,0)" />
<line
	class="arc0"
	id="link91_@0_49"
	x1="562.16345"
	y1="218.44952"
	x2="684.7588"
	y2="225.38837" />
<circle
	id="dart91"
	cx="562.16345"
	cy="218.44952"
	r="10"
	stroke="black"
	fill="rgb(0,0,0)" />
<line
	class="arc1"
	id="link5_@1_4"
	x1="762.51587"
	y1="607.6964"
	x2="704.85095"
	y2="608.76465" />
<line
	class="arc2"
	id="link5_@2_18"
	x1="762.51587"
	y1="607.6964"
	x2="793.1066"
	y2="573.0912" />
<circle
	id="dart5"
	cx="762.51587"
	cy="607.6964"
	r="10"
	stroke="black"
	fill="rgb(0,0,0)" />
<line
	class="arc2"
	id="link4_@2_23"
	x1="704.85095"
	y1="608.76465"
	x2="684.9851"
	y2="575.09424" />
<circle
	id="dart4"
	cx="704.85095"
	cy="608.76465"
	r="10"
	stroke="black"
	fill="rgb(0,0,0)" />
<line
	class="arc1"
	id="link18_@1_19"
	x1="793.1066"
	y1="573.0912"
	x2="770.4027"
	y2="534.6107" />
<circle
	id="dart18"
	cx="793.1066"
	cy="573.0912"
	r="10"
	stroke="black"
	fill="rgb(0,0,0)" />
<line
	class="arc1"
	id="link22_@1_27"
	x1="762.51587"
	y1="285.58258"
	x2="704.85095"
	y2="286.65082" />
<line
	class="arc2"
	id="link22_@2_21"
	x1="762.51587"
	y1="285.58258"
	x2="793.1066"
	y2="323.6505" />
<line
	class="arc3"
	id="link22_@3_54"
	x1="762.51587"
	y1="285.58258"
	x2="762.51587"
	y2="254.43695" />
<circle
	id="dart22"
	cx="762.51587"
	cy="285.58258"
	r="10"
	stroke="black"
	fill="rgb(0,0,0)" />
<line
	class="arc1"
	id="link54_@1_48"
	x1="762.51587"
	y1="254.43695"
	x2="704.85095"
	y2="255.50519" />
<line
	class="arc2"
	id="link54_@2_55"
	x1="762.51587"
	y1="254.43695"
	x2="785.6723"
	y2="223.51895" />
<circle
	id="dart54"
	cx="762.51587"
	cy="254.43695"
	r="10"
	stroke="black"
	fill="rgb(0,0,0)" />
<line
	class="arc1"
	id="link55_@1_56"
	x1="785.6723"
	y1="223.51895"
	x2="756.8399"
	y2="182.52536" />
<circle
	id="dart55"
	cx="785.6723"
	cy="223.51895"
	r="10"
	stroke="black"
	fill="rgb(0,0,0)" />
<line
	class="arc2"
	id="link27_@2_26"
	x1="704.85095"
	y1="286.65082"
	x2="684.9851"
	y2="325.65353" />
<line
	class="arc3"
	id="link27_@3_48"
	x1="704.85095"
	y1="286.65082"
	x2="704.85095"
	y2="255.50519" />
<circle
	id="dart27"
	cx="704.85095"
	cy="286.65082"
	r="10"
	stroke="black"
	fill="rgb(0,0,0)" />
<line
	class="arc2"
	id="link48_@2_49"
	x1="704.85095"
	y1="255.50519"
	x2="684.7588"
	y2="225.38837" />
<circle
	id="dart48"
	cx="704.85095"
	cy="255.50519"
	r="10"
	stroke="black"
	fill="rgb(0,0,0)" />
<line
	class="arc1"
	id="link21_@1_20"
	x1="793.1066"
	y1="323.6505"
	x2="770.4027"
	y2="368.22507" />
<circle
	id="dart21"
	cx="793.1066"
	cy="323.6505"
	r="10"
	stroke="black"
	fill="rgb(0,0,0)" />
<line
	class="arc1"
	id="link23_@1_24"
	x1="684.9851"
	y1="575.09424"
	x2="719.94604"
	y2="535.5455" />
<circle
	id="dart23"
	cx="684.9851"
	cy="575.09424"
	r="10"
	stroke="black"
	fill="rgb(0,0,0)" />
<line
	class="arc2"
	id="link56_@2_50"
	x1="756.8399"
	y1="182.52536"
	x2="713.5912"
	y2="183.32663" />
<circle
	id="dart56"
	cx="756.8399"
	cy="182.52536"
	r="10"
	stroke="black"
	fill="rgb(0,0,0)" />
<line
	class="arc1"
	id="link50_@1_49"
	x1="713.5912"
	y1="183.32663"
	x2="684.7588"
	y2="225.38837" />
<circle
	id="dart50"
	cx="713.5912"
	cy="183.32663"
	r="10"
	stroke="black"
	fill="rgb(0,0,0)" />
<circle
	id="dart49"
	cx="684.7588"
	cy="225.38837"
	r="10"
	stroke="black"
	fill="rgb(0,0,0)" />
<line
	class="arc2"
	id="link19_@2_24"
	x1="770.4027"
	y1="534.6107"
	x2="719.94604"
	y2="535.5455" />
<line
	class="arc0"
	id="link19_@0_20"
	x1="770.4027"
	y1="534.6107"
	x2="770.4027"
	y2="368.22507" />
<circle
	id="dart19"
	cx="770.4027"
	cy="534.6107"
	r="10"
	stroke="black"
	fill="rgb(0,0,0)" />
<line
	class="arc1"
	id="link26_@1_25"
	x1="684.9851"
	y1="325.65353"
	x2="719.94604"
	y2="369.15982" />
<circle
	id="dart26"
	cx="684.9851"
	cy="325.65353"
	r="10"
	stroke="black"
	fill="rgb(0,0,0)" />
<line
	class="arc0"
	id="link24_@0_25"
	x1="719.94604"
	y1="535.5455"
	x2="719.94604"
	y2="369.15982" />
<circle
	id="dart24"
	cx="719.94604"
	cy="535.5455"
	r="10"
	stroke="black"
	fill="rgb(0,0,0)" />
<line
	class="arc2"
	id="link20_@2_25"
	x1="770.4027"
	y1="368.22507"
	x2="719.94604"
	y2="369.15982" />
<circle
	id="dart20"
	cx="770.4027"
	cy="368.22507"
	r="10"
	stroke="black"
	fill="rgb(0,0,0)" />
<circle
	id="dart25"
	cx="719.94604"
	cy="369.15982"
	r="10"
	stroke="black"
	fill="rgb(0,0,0)" />
</svg>
