<?xml version="1.0" encoding="UTF-8" standalone="no"?>
<!-- Created with Jerboa -->

<svg
	width="1317"
	height="665" >
	<style id="style">
		.arc0 {
			fill:none;
			fill-rule:evenodd;
			stroke:black;
			stroke-width:4;
			stroke-linecap:round;
			stroke-linejoin:round;
			stroke-opacity:1;
		}
		.arc1 {
			fill:none;
			fill-rule:evenodd;
			stroke:red;
			stroke-width:4;
			stroke-linecap:round;
			stroke-linejoin:round;
			stroke-opacity:1;
		}
		.arc2 {
			fill:none;
			fill-rule:evenodd;
			stroke:blue;
			stroke-width:4;
			stroke-linecap:round;
			stroke-linejoin:round;
			stroke-opacity:1;
		}
		.arc3 {
			fill:none;
			fill-rule:evenodd;
			stroke:green;
			stroke-width:4;
			stroke-linecap:round;
			stroke-linejoin:round;
			stroke-opacity:1;
		}
		.topological-dart {
			fill:#000000;
			stroke:#000000;
			stroke-width:0;
			stroke-linecap:round;
			stroke-linejoin:round;
			stroke-dasharray:none;
			paint-order:markers fill stroke;
		}
	</style>
<polygon
	points="643.7861,400.31918 643.7861,265.90414 622.7462,247.28192 523.507,293.86133 499.54626,334.68506 499.54626,461.9757 523.507,485.2716 622.7462,438.69214 "
	id="face_23_24_18_17_16_15_21_22"
	style="fill:rgb(192,192,192);stroke:none"
	opacity="1.0" />
<line
	class="arc1"
	id="link22_@1_21"
	x1="643.7861"
	y1="400.31918"
	x2="622.7462"
	y2="438.69214" />
<line
	class="arc2"
	id="link22_@2_28"
	x1="643.7861"
	y1="400.31918"
	x2="654.8879"
	y2="400.0733" />
<line
	class="arc0"
	id="link22_@0_23"
	x1="643.7861"
	y1="400.31918"
	x2="643.7861"
	y2="265.90414" />
<polygon
	points="654.8879,400.0733 654.8879,265.65823 678.25507,246.05249 791.10126,286.75833 814.4684,324.1478 811.83844,459.79727 788.4713,479.403 678.25507,437.46274 "
	id="face_29_30_36_35_34_33_27_28"
	style="fill:rgb(192,192,192);stroke:none"
	opacity="1.0" />
<line
	class="arc1"
	id="link28_@1_27"
	x1="654.8879"
	y1="400.0733"
	x2="678.25507"
	y2="437.46274" />
<line
	class="arc0"
	id="link28_@0_29"
	x1="654.8879"
	y1="400.0733"
	x2="654.8879"
	y2="265.65823" />
<line
	class="arc2"
	id="link27_@2_26"
	x1="678.25507"
	y1="437.46274"
	x2="672.99506"
	y2="447.05597" />
<line
	class="arc0"
	id="link27_@0_33"
	x1="678.25507"
	y1="437.46274"
	x2="788.4713"
	y2="479.403" />
<polygon
	points="672.99506,447.05597 783.2113,488.99628 785.5386,507.7635 686.29944,554.3429 638.9715,557.77716 534.597,518.0598 529.3488,494.61896 628.588,448.03955 "
	id="face_32_38_44_50_8_14_20_26"
	style="fill:rgb(192,192,192);stroke:none"
	opacity="1.0" />
<line
	class="arc1"
	id="link26_@1_20"
	x1="672.99506"
	y1="447.05597"
	x2="628.588"
	y2="448.03955" />
<line
	class="arc3"
	id="link26_@3_0"
	x1="672.99506"
	y1="447.05597"
	x2="667.73505"
	y2="456.64923" />
<line
	class="arc0"
	id="link26_@0_32"
	x1="672.99506"
	y1="447.05597"
	x2="783.2113"
	y2="488.99628" />
<line
	class="arc2"
	id="link21_@2_20"
	x1="622.7462"
	y1="438.69214"
	x2="628.588"
	y2="448.03955" />
<line
	class="arc0"
	id="link21_@0_15"
	x1="622.7462"
	y1="438.69214"
	x2="523.507"
	y2="485.2716" />
<polygon
	points="667.73505,456.64923 777.9513,498.5895 779.69684,512.6649 680.45764,559.2443 647.15234,559.982 536.9361,518.0417 535.1906,503.9663 634.4298,457.38687 "
	id="face_7_6_5_4_3_2_1_0"
	style="fill:rgb(192,192,192);stroke:none"
	opacity="1.0" />
<line
	class="arc1"
	id="link0_@1_1"
	x1="667.73505"
	y1="456.64923"
	x2="634.4298"
	y2="457.38687" />
<line
	class="arc0"
	id="link0_@0_7"
	x1="667.73505"
	y1="456.64923"
	x2="777.9513"
	y2="498.5895" />
<line
	class="arc3"
	id="link20_@3_1"
	x1="628.588"
	y1="448.03955"
	x2="634.4298"
	y2="457.38687" />
<line
	class="arc0"
	id="link20_@0_14"
	x1="628.588"
	y1="448.03955"
	x2="529.3488"
	y2="494.61896" />
<line
	class="arc0"
	id="link1_@0_2"
	x1="634.4298"
	y1="457.38687"
	x2="535.1906"
	y2="503.9663" />
<line
	class="arc1"
	id="link29_@1_30"
	x1="654.8879"
	y1="265.65823"
	x2="678.25507"
	y2="246.05249" />
<line
	class="arc2"
	id="link29_@2_23"
	x1="654.8879"
	y1="265.65823"
	x2="643.7861"
	y2="265.90414" />
<line
	class="arc1"
	id="link23_@1_24"
	x1="643.7861"
	y1="265.90414"
	x2="622.7462"
	y2="247.28192" />
<line
	class="arc2"
	id="link30_@2_31"
	x1="678.25507"
	y1="246.05249"
	x2="672.99506"
	y2="241.39691" />
<line
	class="arc0"
	id="link30_@0_36"
	x1="678.25507"
	y1="246.05249"
	x2="791.10126"
	y2="286.75833" />
<line
	class="arc1"
	id="link33_@1_34"
	x1="788.4713"
	y1="479.403"
	x2="811.83844"
	y2="459.79727" />
<line
	class="arc2"
	id="link33_@2_32"
	x1="788.4713"
	y1="479.403"
	x2="783.2113"
	y2="488.99628" />
<line
	class="arc2"
	id="link24_@2_25"
	x1="622.7462"
	y1="247.28192"
	x2="628.588"
	y2="242.3805" />
<line
	class="arc0"
	id="link24_@0_18"
	x1="622.7462"
	y1="247.28192"
	x2="523.507"
	y2="293.86133" />
<line
	class="arc1"
	id="link32_@1_38"
	x1="783.2113"
	y1="488.99628"
	x2="785.5386"
	y2="507.7635" />
<line
	class="arc3"
	id="link32_@3_7"
	x1="783.2113"
	y1="488.99628"
	x2="777.9513"
	y2="498.5895" />
<line
	class="arc1"
	id="link7_@1_6"
	x1="777.9513"
	y1="498.5895"
	x2="779.69684"
	y2="512.6649" />
<polygon
	points="672.99506,241.39691 788.4713,280.86838 801.31854,294.6979 755.4925,319.01245 739.7126,326.41895 670.51953,356.09042 633.71155,347.46262 534.597,305.27646 529.3488,288.95993 628.588,242.3805 "
	id="face_37_43_58_57_49_55_13_19_25_31"
	style="fill:rgb(192,192,192);stroke:none"
	opacity="1.0" />
<line
	class="arc1"
	id="link31_@1_25"
	x1="672.99506"
	y1="241.39691"
	x2="628.588"
	y2="242.3805" />
<line
	class="arc3"
	id="link31_@3_78"
	x1="672.99506"
	y1="241.39691"
	x2="673.52014"
	y2="231.53888" />
<line
	class="arc0"
	id="link31_@0_37"
	x1="672.99506"
	y1="241.39691"
	x2="788.4713"
	y2="280.86838" />
<line
	class="arc3"
	id="link25_@3_72"
	x1="628.588"
	y1="242.3805"
	x2="629.1131"
	y2="232.52243" />
<line
	class="arc0"
	id="link25_@0_19"
	x1="628.588"
	y1="242.3805"
	x2="529.3488"
	y2="288.95993" />
<line
	class="arc1"
	id="link15_@1_16"
	x1="523.507"
	y1="485.2716"
	x2="499.54626"
	y2="461.9757" />
<line
	class="arc2"
	id="link15_@2_14"
	x1="523.507"
	y1="485.2716"
	x2="529.3488"
	y2="494.61896" />
<line
	class="arc1"
	id="link14_@1_8"
	x1="529.3488"
	y1="494.61896"
	x2="534.597"
	y2="518.0598" />
<line
	class="arc3"
	id="link14_@3_2"
	x1="529.3488"
	y1="494.61896"
	x2="535.1906"
	y2="503.9663" />
<line
	class="arc1"
	id="link2_@1_3"
	x1="535.1906"
	y1="503.9663"
	x2="536.9361"
	y2="518.0417" />
<polygon
	points="673.52014,231.53888 785.4913,269.6765 798.33844,283.506 756.72046,312.96985 735.68054,322.84525 670.69543,343.41724 636.8084,339.46307 535.3572,296.38773 533.02985,277.6205 629.1131,232.52243 "
	id="face_84_90_96_102_108_114_60_66_72_78"
	style="fill:rgb(192,192,192);stroke:none"
	opacity="1.0" />
<line
	class="arc1"
	id="link78_@1_72"
	x1="673.52014"
	y1="231.53888"
	x2="629.1131"
	y2="232.52243" />
<line
	class="arc2"
	id="link78_@2_79"
	x1="673.52014"
	y1="231.53888"
	x2="679.3051"
	y2="226.33633" />
<line
	class="arc0"
	id="link78_@0_84"
	x1="673.52014"
	y1="231.53888"
	x2="785.4913"
	y2="269.6765" />
<polygon
	points="679.3051,226.33633 785.14124,264.37463 796.5883,256.99646 748.9528,182.1825 727.68585,162.35568 675.5372,143.40582 664.0901,150.784 658.0382,206.50955 "
	id="face_85_86_87_100_94_81_80_79"
	style="fill:rgb(192,192,192);stroke:none"
	opacity="1.0" />
<line
	class="arc1"
	id="link79_@1_80"
	x1="679.3051"
	y1="226.33633"
	x2="658.0382"
	y2="206.50955" />
<line
	class="arc0"
	id="link79_@0_85"
	x1="679.3051"
	y1="226.33633"
	x2="785.14124"
	y2="264.37463" />
<line
	class="arc2"
	id="link72_@2_73"
	x1="629.1131"
	y1="232.52243"
	x2="623.7963"
	y2="227.56577" />
<line
	class="arc0"
	id="link72_@0_66"
	x1="629.1131"
	y1="232.52243"
	x2="533.02985"
	y2="277.6205" />
<polygon
	points="623.7963,227.56577 530.8691,271.1826 524.55334,264.1978 584.186,186.30228 607.32605,165.49197 653.3337,143.89758 659.6495,150.88232 646.9364,206.75546 "
	id="face_67_68_69_82_88_75_74_73"
	style="fill:rgb(192,192,192);stroke:none"
	opacity="1.0" />
<line
	class="arc1"
	id="link73_@1_74"
	x1="623.7963"
	y1="227.56577"
	x2="646.9364"
	y2="206.75546" />
<line
	class="arc0"
	id="link73_@0_67"
	x1="623.7963"
	y1="227.56577"
	x2="530.8691"
	y2="271.1826" />
<line
	class="arc2"
	id="link74_@2_80"
	x1="646.9364"
	y1="206.75546"
	x2="658.0382"
	y2="206.50955" />
<line
	class="arc0"
	id="link74_@0_75"
	x1="646.9364"
	y1="206.75546"
	x2="659.6495"
	y2="150.88232" />
<line
	class="arc0"
	id="link80_@0_81"
	x1="658.0382"
	y1="206.50955"
	x2="664.0901"
	y2="150.784" />
<line
	class="arc2"
	id="link34_@2_40"
	x1="811.83844"
	y1="459.79727"
	x2="812.4203"
	y2="464.48907" />
<line
	class="arc0"
	id="link34_@0_35"
	x1="811.83844"
	y1="459.79727"
	x2="814.4684"
	y2="324.1478" />
<line
	class="arc3"
	id="link6_@3_38"
	x1="779.69684"
	y1="512.6649"
	x2="785.5386"
	y2="507.7635" />
<line
	class="arc0"
	id="link6_@0_5"
	x1="779.69684"
	y1="512.6649"
	x2="680.45764"
	y2="559.2443" />
<line
	class="arc2"
	id="link38_@2_39"
	x1="785.5386"
	y1="507.7635"
	x2="791.3804"
	y2="502.86206" />
<line
	class="arc0"
	id="link38_@0_44"
	x1="785.5386"
	y1="507.7635"
	x2="686.29944"
	y2="554.3429" />
<polygon
	points="812.4203,464.48907 817.68024,327.60516 807.1603,304.04526 755.4925,319.01245 739.7126,326.41895 676.36127,365.43774 668.7622,403.54672 674.0222,528.3685 692.1412,549.44147 791.3804,502.86206 "
	id="face_41_42_59_56_48_47_46_45_39_40"
	style="fill:rgb(0,0,255);stroke:none"
	opacity="1.0" />
<line
	class="arc1"
	id="link40_@1_39"
	x1="812.4203"
	y1="464.48907"
	x2="791.3804"
	y2="502.86206" />
<line
	class="arc0"
	id="link40_@0_41"
	x1="812.4203"
	y1="464.48907"
	x2="817.68024"
	y2="327.60516" />
<line
	class="arc3"
	id="link3_@3_8"
	x1="536.9361"
	y1="518.0417"
	x2="534.597"
	y2="518.0598" />
<line
	class="arc0"
	id="link3_@0_4"
	x1="536.9361"
	y1="518.0417"
	x2="647.15234"
	y2="559.982" />
<line
	class="arc2"
	id="link16_@2_10"
	x1="499.54626"
	y1="461.9757"
	x2="497.2072"
	y2="461.99384" />
<line
	class="arc0"
	id="link16_@0_17"
	x1="499.54626"
	y1="461.9757"
	x2="499.54626"
	y2="334.68506" />
<line
	class="arc0"
	id="link39_@0_45"
	x1="791.3804"
	y1="502.86206"
	x2="692.1412"
	y2="549.44147" />
<line
	class="arc2"
	id="link8_@2_9"
	x1="534.597"
	y1="518.0598"
	x2="532.25793"
	y2="518.07794" />
<line
	class="arc0"
	id="link8_@0_50"
	x1="534.597"
	y1="518.0598"
	x2="638.9715"
	y2="557.77716" />
<polygon
	points="497.2072,461.99384 497.2072,341.82755 509.47263,336.71646 555.81805,410.8731 555.81805,446.49512 509.47263,485.3803 "
	id="face_11_124_125_123_122_10"
	style="fill:rgb(192,192,192);stroke:none"
	opacity="1.0" />
<line
	class="arc1"
	id="link10_@1_122"
	x1="497.2072"
	y1="461.99384"
	x2="509.47263"
	y2="485.3803" />
<line
	class="arc0"
	id="link10_@0_11"
	x1="497.2072"
	y1="461.99384"
	x2="497.2072"
	y2="341.82755" />
<polygon
	points="532.25793,518.07794 630.79065,555.5723 637.21423,541.1139 590.8688,466.95724 561.65985,455.84247 515.3144,494.72772 "
	id="face_51_134_135_121_120_9"
	style="fill:rgb(192,192,192);stroke:none"
	opacity="1.0" />
<line
	class="arc1"
	id="link9_@1_120"
	x1="532.25793"
	y1="518.07794"
	x2="515.3144"
	y2="494.72772" />
<line
	class="arc0"
	id="link9_@0_51"
	x1="532.25793"
	y1="518.07794"
	x2="630.79065"
	y2="555.5723" />
<line
	class="arc2"
	id="link122_@2_120"
	x1="509.47263"
	y1="485.3803"
	x2="515.3144"
	y2="494.72772" />
<line
	class="arc0"
	id="link122_@0_123"
	x1="509.47263"
	y1="485.3803"
	x2="555.81805"
	y2="446.49512" />
<line
	class="arc0"
	id="link120_@0_121"
	x1="515.3144"
	y1="494.72772"
	x2="561.65985"
	y2="455.84247" />
<line
	class="arc1"
	id="link36_@1_35"
	x1="791.10126"
	y1="286.75833"
	x2="814.4684"
	y2="324.1478" />
<line
	class="arc2"
	id="link36_@2_37"
	x1="791.10126"
	y1="286.75833"
	x2="788.4713"
	y2="280.86838" />
<line
	class="arc2"
	id="link35_@2_41"
	x1="814.4684"
	y1="324.1478"
	x2="817.68024"
	y2="327.60516" />
<line
	class="arc1"
	id="link37_@1_43"
	x1="788.4713"
	y1="280.86838"
	x2="801.31854"
	y2="294.6979" />
<line
	class="arc3"
	id="link37_@3_84"
	x1="788.4713"
	y1="280.86838"
	x2="785.4913"
	y2="269.6765" />
<line
	class="arc1"
	id="link85_@1_86"
	x1="785.14124"
	y1="264.37463"
	x2="796.5883"
	y2="256.99646" />
<line
	class="arc2"
	id="link85_@2_84"
	x1="785.14124"
	y1="264.37463"
	x2="785.4913"
	y2="269.6765" />
<line
	class="arc1"
	id="link84_@1_90"
	x1="785.4913"
	y1="269.6765"
	x2="798.33844"
	y2="283.506" />
<line
	class="arc1"
	id="link41_@1_42"
	x1="817.68024"
	y1="327.60516"
	x2="807.1603"
	y2="304.04526" />
<line
	class="arc1"
	id="link18_@1_17"
	x1="523.507"
	y1="293.86133"
	x2="499.54626"
	y2="334.68506" />
<line
	class="arc2"
	id="link18_@2_19"
	x1="523.507"
	y1="293.86133"
	x2="529.3488"
	y2="288.95993" />
<line
	class="arc2"
	id="link17_@2_11"
	x1="499.54626"
	y1="334.68506"
	x2="497.2072"
	y2="341.82755" />
<line
	class="arc1"
	id="link19_@1_13"
	x1="529.3488"
	y1="288.95993"
	x2="534.597"
	y2="305.27646" />
<line
	class="arc3"
	id="link19_@3_66"
	x1="529.3488"
	y1="288.95993"
	x2="533.02985"
	y2="277.6205" />
<line
	class="arc1"
	id="link75_@1_88"
	x1="659.6495"
	y1="150.88232"
	x2="653.3337"
	y2="143.89758" />
<line
	class="arc2"
	id="link75_@2_81"
	x1="659.6495"
	y1="150.88232"
	x2="664.0901"
	y2="150.784" />
<line
	class="arc1"
	id="link81_@1_94"
	x1="664.0901"
	y1="150.784"
	x2="675.5372"
	y2="143.40582" />
<line
	class="arc1"
	id="link11_@1_124"
	x1="497.2072"
	y1="341.82755"
	x2="509.47263"
	y2="336.71646" />
<line
	class="arc1"
	id="link67_@1_68"
	x1="530.8691"
	y1="271.1826"
	x2="524.55334"
	y2="264.1978" />
<line
	class="arc2"
	id="link67_@2_66"
	x1="530.8691"
	y1="271.1826"
	x2="533.02985"
	y2="277.6205" />
<line
	class="arc1"
	id="link66_@1_60"
	x1="533.02985"
	y1="277.6205"
	x2="535.3572"
	y2="296.38773" />
<line
	class="arc2"
	id="link43_@2_42"
	x1="801.31854"
	y1="294.6979"
	x2="807.1603"
	y2="304.04526" />
<line
	class="arc3"
	id="link43_@3_90"
	x1="801.31854"
	y1="294.6979"
	x2="798.33844"
	y2="283.506" />
<line
	class="arc0"
	id="link43_@0_58"
	x1="801.31854"
	y1="294.6979"
	x2="755.4925"
	y2="319.01245" />
<line
	class="arc0"
	id="link42_@0_59"
	x1="807.1603"
	y1="304.04526"
	x2="755.4925"
	y2="319.01245" />
<line
	class="arc2"
	id="link86_@2_92"
	x1="796.5883"
	y1="256.99646"
	x2="799.8001"
	y2="260.45386" />
<line
	class="arc0"
	id="link86_@0_87"
	x1="796.5883"
	y1="256.99646"
	x2="748.9528"
	y2="182.1825" />
<line
	class="arc2"
	id="link90_@2_91"
	x1="798.33844"
	y1="283.506"
	x2="801.2003"
	y2="281.66156" />
<line
	class="arc0"
	id="link90_@0_96"
	x1="798.33844"
	y1="283.506"
	x2="756.72046"
	y2="312.96985" />
<line
	class="arc1"
	id="link123_@1_125"
	x1="555.81805"
	y1="446.49512"
	x2="555.81805"
	y2="410.8731" />
<line
	class="arc2"
	id="link123_@2_121"
	x1="555.81805"
	y1="446.49512"
	x2="561.65985"
	y2="455.84247" />
<line
	class="arc1"
	id="link5_@1_4"
	x1="680.45764"
	y1="559.2443"
	x2="647.15234"
	y2="559.982" />
<line
	class="arc3"
	id="link5_@3_44"
	x1="680.45764"
	y1="559.2443"
	x2="686.29944"
	y2="554.3429" />
<polygon
	points="799.8001,260.45386 750.2376,183.56543 734.10944,169.27048 712.3903,181.45062 713.7905,202.65833 741.82043,292.6324 757.9484,306.92734 801.2003,281.66156 "
	id="face_93_106_112_99_98_97_91_92"
	style="fill:rgb(192,192,192);stroke:none"
	opacity="1.0" />
<line
	class="arc1"
	id="link92_@1_91"
	x1="799.8001"
	y1="260.45386"
	x2="801.2003"
	y2="281.66156" />
<line
	class="arc0"
	id="link92_@0_93"
	x1="799.8001"
	y1="260.45386"
	x2="750.2376"
	y2="183.56543" />
<line
	class="arc1"
	id="link121_@1_135"
	x1="561.65985"
	y1="455.84247"
	x2="590.8688"
	y2="466.95724" />
<line
	class="arc0"
	id="link91_@0_97"
	x1="801.2003"
	y1="281.66156"
	x2="757.9484"
	y2="306.92734" />
<line
	class="arc3"
	id="link4_@3_50"
	x1="647.15234"
	y1="559.982"
	x2="638.9715"
	y2="557.77716" />
<line
	class="arc2"
	id="link124_@2_126"
	x1="509.47263"
	y1="336.71646"
	x2="515.3144"
	y2="331.81506" />
<line
	class="arc0"
	id="link124_@0_125"
	x1="509.47263"
	y1="336.71646"
	x2="555.81805"
	y2="410.8731" />
<line
	class="arc2"
	id="link94_@2_95"
	x1="675.5372"
	y1="143.40582"
	x2="673.95825"
	y2="141.65973" />
<line
	class="arc0"
	id="link94_@0_100"
	x1="675.5372"
	y1="143.40582"
	x2="727.68585"
	y2="162.35568" />
<line
	class="arc1"
	id="link50_@1_44"
	x1="638.9715"
	y1="557.77716"
	x2="686.29944"
	y2="554.3429" />
<line
	class="arc2"
	id="link50_@2_51"
	x1="638.9715"
	y1="557.77716"
	x2="630.79065"
	y2="555.5723" />
<line
	class="arc2"
	id="link88_@2_89"
	x1="653.3337"
	y1="143.89758"
	x2="656.19543"
	y2="142.0531" />
<line
	class="arc0"
	id="link88_@0_82"
	x1="653.3337"
	y1="143.89758"
	x2="607.32605"
	y2="165.49197" />
<line
	class="arc2"
	id="link44_@2_45"
	x1="686.29944"
	y1="554.3429"
	x2="692.1412"
	y2="549.44147" />
<line
	class="arc2"
	id="link68_@2_62"
	x1="524.55334"
	y1="264.1978"
	x2="525.13513"
	y2="268.88962" />
<line
	class="arc0"
	id="link68_@0_69"
	x1="524.55334"
	y1="264.1978"
	x2="584.186"
	y2="186.30228" />
<line
	class="arc1"
	id="link51_@1_134"
	x1="630.79065"
	y1="555.5723"
	x2="637.21423"
	y2="541.1139" />
<polygon
	points="673.95825,141.65973 723.6539,158.78204 728.7928,164.31384 709.93634,177.13629 701.5204,181.08643 673.3172,190.35211 659.7623,188.77048 614.2747,169.67307 613.34375,162.1662 656.19543,142.0531 "
	id="face_101_107_113_119_65_71_77_83_89_95"
	style="fill:rgb(192,192,192);stroke:none"
	opacity="1.0" />
<line
	class="arc1"
	id="link95_@1_89"
	x1="673.95825"
	y1="141.65973"
	x2="656.19543"
	y2="142.0531" />
<line
	class="arc0"
	id="link95_@0_101"
	x1="673.95825"
	y1="141.65973"
	x2="723.6539"
	y2="158.78204" />
<polygon
	points="515.3144,331.81506 561.65985,405.9717 590.8688,417.0865 637.21423,378.2013 628.1607,351.14774 532.25793,312.41895 "
	id="face_127_129_128_54_12_126"
	style="fill:rgb(192,192,192);stroke:none"
	opacity="1.0" />
<line
	class="arc1"
	id="link126_@1_12"
	x1="515.3144"
	y1="331.81506"
	x2="532.25793"
	y2="312.41895" />
<line
	class="arc0"
	id="link126_@0_127"
	x1="515.3144"
	y1="331.81506"
	x2="561.65985"
	y2="405.9717" />
<line
	class="arc0"
	id="link89_@0_83"
	x1="656.19543"
	y1="142.0531"
	x2="613.34375"
	y2="162.1662" />
<line
	class="arc2"
	id="link125_@2_127"
	x1="555.81805"
	y1="410.8731"
	x2="561.65985"
	y2="405.9717" />
<line
	class="arc1"
	id="link45_@1_46"
	x1="692.1412"
	y1="549.44147"
	x2="674.0222"
	y2="528.3685" />
<polygon
	points="525.13513,268.88962 584.41864,188.17899 608.4897,174.87558 658.53436,194.81299 667.1773,220.56503 658.42535,321.84537 634.3544,335.14877 533.7782,294.64157 "
	id="face_63_76_70_117_116_115_61_62"
	style="fill:rgb(192,192,192);stroke:none"
	opacity="1.0" />
<line
	class="arc1"
	id="link62_@1_61"
	x1="525.13513"
	y1="268.88962"
	x2="533.7782"
	y2="294.64157" />
<line
	class="arc0"
	id="link62_@0_63"
	x1="525.13513"
	y1="268.88962"
	x2="584.41864"
	y2="188.17899" />
<line
	class="arc2"
	id="link13_@2_12"
	x1="534.597"
	y1="305.27646"
	x2="532.25793"
	y2="312.41895" />
<line
	class="arc3"
	id="link13_@3_60"
	x1="534.597"
	y1="305.27646"
	x2="535.3572"
	y2="296.38773" />
<line
	class="arc0"
	id="link13_@0_55"
	x1="534.597"
	y1="305.27646"
	x2="633.71155"
	y2="347.46262" />
<line
	class="arc2"
	id="link60_@2_61"
	x1="535.3572"
	y1="296.38773"
	x2="533.7782"
	y2="294.64157" />
<line
	class="arc0"
	id="link60_@0_114"
	x1="535.3572"
	y1="296.38773"
	x2="636.8084"
	y2="339.46307" />
<line
	class="arc1"
	id="link127_@1_129"
	x1="561.65985"
	y1="405.9717"
	x2="590.8688"
	y2="417.0865" />
<line
	class="arc2"
	id="link135_@2_133"
	x1="590.8688"
	y1="466.95724"
	x2="596.7106"
	y2="462.0558" />
<line
	class="arc0"
	id="link135_@0_134"
	x1="590.8688"
	y1="466.95724"
	x2="637.21423"
	y2="541.1139" />
<line
	class="arc0"
	id="link12_@0_54"
	x1="532.25793"
	y1="312.41895"
	x2="628.1607"
	y2="351.14774" />
<line
	class="arc0"
	id="link61_@0_115"
	x1="533.7782"
	y1="294.64157"
	x2="634.3544"
	y2="335.14877" />
<polygon
	points="596.7106,462.0558 643.056,536.21246 665.8413,526.1637 663.21136,407.2318 643.056,387.5486 596.7106,426.43384 "
	id="face_132_52_53_130_131_133"
	style="fill:rgb(192,192,192);stroke:none"
	opacity="1.0" />
<line
	class="arc1"
	id="link133_@1_131"
	x1="596.7106"
	y1="462.0558"
	x2="596.7106"
	y2="426.43384" />
<line
	class="arc0"
	id="link133_@0_132"
	x1="596.7106"
	y1="462.0558"
	x2="643.056"
	y2="536.21246" />
<line
	class="arc2"
	id="link134_@2_132"
	x1="637.21423"
	y1="541.1139"
	x2="643.056"
	y2="536.21246" />
<line
	class="arc1"
	id="link87_@1_100"
	x1="748.9528"
	y1="182.1825"
	x2="727.68585"
	y2="162.35568" />
<line
	class="arc2"
	id="link87_@2_93"
	x1="748.9528"
	y1="182.1825"
	x2="750.2376"
	y2="183.56543" />
<line
	class="arc1"
	id="link132_@1_52"
	x1="643.056"
	y1="536.21246"
	x2="665.8413"
	y2="526.1637" />
<line
	class="arc2"
	id="link100_@2_101"
	x1="727.68585"
	y1="162.35568"
	x2="723.6539"
	y2="158.78204" />
<line
	class="arc1"
	id="link93_@1_106"
	x1="750.2376"
	y1="183.56543"
	x2="734.10944"
	y2="169.27048" />
<line
	class="arc2"
	id="link129_@2_131"
	x1="590.8688"
	y1="417.0865"
	x2="596.7106"
	y2="426.43384" />
<line
	class="arc0"
	id="link129_@0_128"
	x1="590.8688"
	y1="417.0865"
	x2="637.21423"
	y2="378.2013" />
<line
	class="arc1"
	id="link101_@1_107"
	x1="723.6539"
	y1="158.78204"
	x2="728.7928"
	y2="164.31384" />
<line
	class="arc0"
	id="link131_@0_130"
	x1="596.7106"
	y1="426.43384"
	x2="643.056"
	y2="387.5486" />
<line
	class="arc1"
	id="link69_@1_82"
	x1="584.186"
	y1="186.30228"
	x2="607.32605"
	y2="165.49197" />
<line
	class="arc2"
	id="link69_@2_63"
	x1="584.186"
	y1="186.30228"
	x2="584.41864"
	y2="188.17899" />
<line
	class="arc2"
	id="link82_@2_83"
	x1="607.32605"
	y1="165.49197"
	x2="613.34375"
	y2="162.1662" />
<line
	class="arc2"
	id="link46_@2_52"
	x1="674.0222"
	y1="528.3685"
	x2="665.8413"
	y2="526.1637" />
<line
	class="arc0"
	id="link46_@0_47"
	x1="674.0222"
	y1="528.3685"
	x2="668.7622"
	y2="403.54672" />
<line
	class="arc1"
	id="link97_@1_98"
	x1="757.9484"
	y1="306.92734"
	x2="741.82043"
	y2="292.6324" />
<line
	class="arc2"
	id="link97_@2_96"
	x1="757.9484"
	y1="306.92734"
	x2="756.72046"
	y2="312.96985" />
<line
	class="arc1"
	id="link63_@1_76"
	x1="584.41864"
	y1="188.17899"
	x2="608.4897"
	y2="174.87558" />
<line
	class="arc1"
	id="link83_@1_77"
	x1="613.34375"
	y1="162.1662"
	x2="614.2747"
	y2="169.67307" />
<line
	class="arc1"
	id="link96_@1_102"
	x1="756.72046"
	y1="312.96985"
	x2="735.68054"
	y2="322.84525" />
<line
	class="arc3"
	id="link96_@3_58"
	x1="756.72046"
	y1="312.96985"
	x2="755.4925"
	y2="319.01245" />
<line
	class="arc0"
	id="link52_@0_53"
	x1="665.8413"
	y1="526.1637"
	x2="663.21136"
	y2="407.2318" />
<line
	class="arc1"
	id="link58_@1_57"
	x1="755.4925"
	y1="319.01245"
	x2="739.7126"
	y2="326.41895" />
<line
	class="arc2"
	id="link58_@2_59"
	x1="755.4925"
	y1="319.01245"
	x2="755.4925"
	y2="319.01245" />
<line
	class="arc1"
	id="link59_@1_56"
	x1="755.4925"
	y1="319.01245"
	x2="739.7126"
	y2="326.41895" />
<line
	class="arc2"
	id="link106_@2_107"
	x1="734.10944"
	y1="169.27048"
	x2="728.7928"
	y2="164.31384" />
<line
	class="arc0"
	id="link106_@0_112"
	x1="734.10944"
	y1="169.27048"
	x2="712.3903"
	y2="181.45062" />
<line
	class="arc0"
	id="link107_@0_113"
	x1="728.7928"
	y1="164.31384"
	x2="709.93634"
	y2="177.13629" />
<line
	class="arc2"
	id="link98_@2_104"
	x1="741.82043"
	y1="292.6324"
	x2="736.5604"
	y2="295.10123" />
<line
	class="arc0"
	id="link98_@0_99"
	x1="741.82043"
	y1="292.6324"
	x2="713.7905"
	y2="202.65833" />
<line
	class="arc2"
	id="link76_@2_77"
	x1="608.4897"
	y1="174.87558"
	x2="614.2747"
	y2="169.67307" />
<line
	class="arc0"
	id="link76_@0_70"
	x1="608.4897"
	y1="174.87558"
	x2="658.53436"
	y2="194.81299" />
<line
	class="arc0"
	id="link77_@0_71"
	x1="614.2747"
	y1="169.67307"
	x2="659.7623"
	y2="188.77048" />
<polygon
	points="736.5604,295.10123 711.6866,203.64587 701.8704,186.3883 675.4779,196.79007 670.56604,220.96045 666.8971,322.83386 676.71326,340.09143 731.6486,319.2716 "
	id="face_105_118_64_111_110_109_103_104"
	style="fill:rgb(192,192,192);stroke:none"
	opacity="1.0" />
<line
	class="arc1"
	id="link104_@1_103"
	x1="736.5604"
	y1="295.10123"
	x2="731.6486"
	y2="319.2716" />
<line
	class="arc0"
	id="link104_@0_105"
	x1="736.5604"
	y1="295.10123"
	x2="711.6866"
	y2="203.64587" />
<line
	class="arc2"
	id="link56_@2_57"
	x1="739.7126"
	y1="326.41895"
	x2="739.7126"
	y2="326.41895" />
<line
	class="arc0"
	id="link56_@0_48"
	x1="739.7126"
	y1="326.41895"
	x2="676.36127"
	y2="365.43774" />
<line
	class="arc3"
	id="link57_@3_102"
	x1="739.7126"
	y1="326.41895"
	x2="735.68054"
	y2="322.84525" />
<line
	class="arc0"
	id="link57_@0_49"
	x1="739.7126"
	y1="326.41895"
	x2="670.51953"
	y2="356.09042" />
<line
	class="arc2"
	id="link102_@2_103"
	x1="735.68054"
	y1="322.84525"
	x2="731.6486"
	y2="319.2716" />
<line
	class="arc0"
	id="link102_@0_108"
	x1="735.68054"
	y1="322.84525"
	x2="670.69543"
	y2="343.41724" />
<line
	class="arc0"
	id="link103_@0_109"
	x1="731.6486"
	y1="319.2716"
	x2="676.71326"
	y2="340.09143" />
<line
	class="arc1"
	id="link112_@1_99"
	x1="712.3903"
	y1="181.45062"
	x2="713.7905"
	y2="202.65833" />
<line
	class="arc2"
	id="link112_@2_113"
	x1="712.3903"
	y1="181.45062"
	x2="709.93634"
	y2="177.13629" />
<line
	class="arc2"
	id="link99_@2_105"
	x1="713.7905"
	y1="202.65833"
	x2="711.6866"
	y2="203.64587" />
<line
	class="arc1"
	id="link113_@1_119"
	x1="709.93634"
	y1="177.13629"
	x2="701.5204"
	y2="181.08643" />
<line
	class="arc1"
	id="link105_@1_118"
	x1="711.6866"
	y1="203.64587"
	x2="701.8704"
	y2="186.3883" />
<line
	class="arc2"
	id="link118_@2_119"
	x1="701.8704"
	y1="186.3883"
	x2="701.5204"
	y2="181.08643" />
<line
	class="arc0"
	id="link118_@0_64"
	x1="701.8704"
	y1="186.3883"
	x2="675.4779"
	y2="196.79007" />
<line
	class="arc0"
	id="link119_@0_65"
	x1="701.5204"
	y1="181.08643"
	x2="673.3172"
	y2="190.35211" />
<line
	class="arc1"
	id="link54_@1_128"
	x1="628.1607"
	y1="351.14774"
	x2="637.21423"
	y2="378.2013" />
<line
	class="arc2"
	id="link54_@2_55"
	x1="628.1607"
	y1="351.14774"
	x2="633.71155"
	y2="347.46262" />
<line
	class="arc1"
	id="link55_@1_49"
	x1="633.71155"
	y1="347.46262"
	x2="670.51953"
	y2="356.09042" />
<line
	class="arc3"
	id="link55_@3_114"
	x1="633.71155"
	y1="347.46262"
	x2="636.8084"
	y2="339.46307" />
<line
	class="arc2"
	id="link128_@2_130"
	x1="637.21423"
	y1="378.2013"
	x2="643.056"
	y2="387.5486" />
<line
	class="arc1"
	id="link130_@1_53"
	x1="643.056"
	y1="387.5486"
	x2="663.21136"
	y2="407.2318" />
<line
	class="arc1"
	id="link71_@1_65"
	x1="659.7623"
	y1="188.77048"
	x2="673.3172"
	y2="190.35211" />
<line
	class="arc2"
	id="link71_@2_70"
	x1="659.7623"
	y1="188.77048"
	x2="658.53436"
	y2="194.81299" />
<line
	class="arc1"
	id="link114_@1_108"
	x1="636.8084"
	y1="339.46307"
	x2="670.69543"
	y2="343.41724" />
<line
	class="arc2"
	id="link114_@2_115"
	x1="636.8084"
	y1="339.46307"
	x2="634.3544"
	y2="335.14877" />
<line
	class="arc1"
	id="link70_@1_117"
	x1="658.53436"
	y1="194.81299"
	x2="667.1773"
	y2="220.56503" />
<line
	class="arc1"
	id="link115_@1_116"
	x1="634.3544"
	y1="335.14877"
	x2="658.42535"
	y2="321.84537" />
<line
	class="arc2"
	id="link65_@2_64"
	x1="673.3172"
	y1="190.35211"
	x2="675.4779"
	y2="196.79007" />
<line
	class="arc2"
	id="link53_@2_47"
	x1="663.21136"
	y1="407.2318"
	x2="668.7622"
	y2="403.54672" />
<line
	class="arc1"
	id="link64_@1_111"
	x1="675.4779"
	y1="196.79007"
	x2="670.56604"
	y2="220.96045" />
<line
	class="arc1"
	id="link47_@1_48"
	x1="668.7622"
	y1="403.54672"
	x2="676.36127"
	y2="365.43774" />
<line
	class="arc2"
	id="link49_@2_48"
	x1="670.51953"
	y1="356.09042"
	x2="676.36127"
	y2="365.43774" />
<line
	class="arc3"
	id="link49_@3_108"
	x1="670.51953"
	y1="356.09042"
	x2="670.69543"
	y2="343.41724" />
<line
	class="arc2"
	id="link108_@2_109"
	x1="670.69543"
	y1="343.41724"
	x2="676.71326"
	y2="340.09143" />
<line
	class="arc2"
	id="link117_@2_111"
	x1="667.1773"
	y1="220.56503"
	x2="670.56604"
	y2="220.96045" />
<line
	class="arc0"
	id="link117_@0_116"
	x1="667.1773"
	y1="220.56503"
	x2="658.42535"
	y2="321.84537" />
<line
	class="arc0"
	id="link111_@0_110"
	x1="670.56604"
	y1="220.96045"
	x2="666.8971"
	y2="322.83386" />
<line
	class="arc1"
	id="link109_@1_110"
	x1="676.71326"
	y1="340.09143"
	x2="666.8971"
	y2="322.83386" />
<line
	class="arc2"
	id="link116_@2_110"
	x1="658.42535"
	y1="321.84537"
	x2="666.8971"
	y2="322.83386" />
</svg>
