<?xml version="1.0" encoding="UTF-8" standalone="no"?>
<!-- Created with Jerboa -->

<svg
	width="1422"
	height="665" >
	<style id="style">
		.arc0 {
			fill:none;
			fill-rule:evenodd;
			stroke:black;
			stroke-width:4;
			stroke-linecap:round;
			stroke-linejoin:round;
			stroke-opacity:1;
		}
		.arc1 {
			fill:none;
			fill-rule:evenodd;
			stroke:red;
			stroke-width:4;
			stroke-linecap:round;
			stroke-linejoin:round;
			stroke-opacity:1;
		}
		.arc2 {
			fill:none;
			fill-rule:evenodd;
			stroke:blue;
			stroke-width:4;
			stroke-linecap:round;
			stroke-linejoin:round;
			stroke-opacity:1;
		}
		.arc3 {
			fill:none;
			fill-rule:evenodd;
			stroke:green;
			stroke-width:4;
			stroke-linecap:round;
			stroke-linejoin:round;
			stroke-opacity:1;
		}
		.topological-dart {
			fill:#000000;
			stroke:#000000;
			stroke-width:0;
			stroke-linecap:round;
			stroke-linejoin:round;
			stroke-dasharray:none;
			paint-order:markers fill stroke;
		}
	</style>
<polygon
	points="698.6333,438.67136 698.6333,303.8329 722.4783,283.8263 835.72534,324.639 859.57025,362.7929 856.8866,498.891 833.0417,518.8976 722.4783,476.82523 "
	id="face_29_30_36_35_34_33_27_28"
	style="fill:rgb(192,192,192);stroke:none"
	opacity="1.0" />
<line
	class="arc1"
	id="link28_@1_27"
	x1="698.6333"
	y1="438.67136"
	x2="722.4783"
	y2="476.82523" />
<line
	class="arc2"
	id="link28_@2_22"
	x1="698.6333"
	y1="438.67136"
	x2="681.6402"
	y2="439.0477" />
<line
	class="arc0"
	id="link28_@0_29"
	x1="698.6333"
	y1="438.67136"
	x2="698.6333"
	y2="303.8329" />
<polygon
	points="681.6402,439.0477 681.6402,304.20926 660.1701,285.2063 560.6184,331.93243 536.1677,373.59082 536.1677,501.15924 560.6184,524.9314 660.1701,478.20526 "
	id="face_23_24_18_17_16_15_21_22"
	style="fill:rgb(192,192,192);stroke:none"
	opacity="1.0" />
<line
	class="arc1"
	id="link22_@1_21"
	x1="681.6402"
	y1="439.0477"
	x2="660.1701"
	y2="478.20526" />
<line
	class="arc0"
	id="link22_@0_23"
	x1="681.6402"
	y1="439.0477"
	x2="681.6402"
	y2="304.20926" />
<line
	class="arc2"
	id="link27_@2_26"
	x1="722.4783"
	y1="476.82523"
	x2="714.42694"
	y2="491.5093" />
<line
	class="arc0"
	id="link27_@0_33"
	x1="722.4783"
	y1="476.82523"
	x2="833.0417"
	y2="518.8976" />
<line
	class="arc2"
	id="link21_@2_20"
	x1="660.1701"
	y1="478.20526"
	x2="669.112"
	y2="492.513" />
<line
	class="arc0"
	id="link21_@0_15"
	x1="660.1701"
	y1="478.20526"
	x2="560.6184"
	y2="524.9314" />
<polygon
	points="714.42694,491.5093 824.99036,533.5817 827.3652,552.73267 727.8135,599.4588 679.5179,602.96326 574.9157,563.1593 569.56024,539.23914 669.112,492.513 "
	id="face_32_38_44_50_8_14_20_26"
	style="fill:rgb(192,192,192);stroke:none"
	opacity="1.0" />
<line
	class="arc1"
	id="link26_@1_20"
	x1="714.42694"
	y1="491.5093"
	x2="669.112"
	y2="492.513" />
<line
	class="arc3"
	id="link26_@3_0"
	x1="714.42694"
	y1="491.5093"
	x2="709.05945"
	y2="501.2987" />
<line
	class="arc0"
	id="link26_@0_32"
	x1="714.42694"
	y1="491.5093"
	x2="824.99036"
	y2="533.5817" />
<polygon
	points="709.05945,501.2987 819.6228,543.3711 821.404,557.7343 721.85223,604.46045 687.866,605.2132 577.3026,563.1408 575.5214,548.7776 675.0732,502.05145 "
	id="face_7_6_5_4_3_2_1_0"
	style="fill:rgb(192,192,192);stroke:none"
	opacity="1.0" />
<line
	class="arc1"
	id="link0_@1_1"
	x1="709.05945"
	y1="501.2987"
	x2="675.0732"
	y2="502.05145" />
<line
	class="arc0"
	id="link0_@0_7"
	x1="709.05945"
	y1="501.2987"
	x2="819.6228"
	y2="543.3711" />
<line
	class="arc3"
	id="link20_@3_1"
	x1="669.112"
	y1="492.513"
	x2="675.0732"
	y2="502.05145" />
<line
	class="arc0"
	id="link20_@0_14"
	x1="669.112"
	y1="492.513"
	x2="569.56024"
	y2="539.23914" />
<line
	class="arc0"
	id="link1_@0_2"
	x1="675.0732"
	y1="502.05145"
	x2="575.5214"
	y2="548.7776" />
<line
	class="arc1"
	id="link23_@1_24"
	x1="681.6402"
	y1="304.20926"
	x2="660.1701"
	y2="285.2063" />
<line
	class="arc2"
	id="link23_@2_29"
	x1="681.6402"
	y1="304.20926"
	x2="698.6333"
	y2="303.8329" />
<line
	class="arc1"
	id="link29_@1_30"
	x1="698.6333"
	y1="303.8329"
	x2="722.4783"
	y2="283.8263" />
<line
	class="arc2"
	id="link30_@2_31"
	x1="722.4783"
	y1="283.8263"
	x2="715.023"
	y2="276.92703" />
<line
	class="arc0"
	id="link30_@0_36"
	x1="722.4783"
	y1="283.8263"
	x2="835.72534"
	y2="324.639" />
<line
	class="arc1"
	id="link33_@1_34"
	x1="833.0417"
	y1="518.8976"
	x2="856.8866"
	y2="498.891" />
<line
	class="arc2"
	id="link33_@2_32"
	x1="833.0417"
	y1="518.8976"
	x2="824.99036"
	y2="533.5817" />
<line
	class="arc2"
	id="link24_@2_25"
	x1="660.1701"
	y1="285.2063"
	x2="669.70807"
	y2="277.93066" />
<line
	class="arc0"
	id="link24_@0_18"
	x1="660.1701"
	y1="285.2063"
	x2="560.6184"
	y2="331.93243" />
<line
	class="arc1"
	id="link32_@1_38"
	x1="824.99036"
	y1="533.5817"
	x2="827.3652"
	y2="552.73267" />
<line
	class="arc3"
	id="link32_@3_7"
	x1="824.99036"
	y1="533.5817"
	x2="819.6228"
	y2="543.3711" />
<line
	class="arc1"
	id="link7_@1_6"
	x1="819.6228"
	y1="543.3711"
	x2="821.404"
	y2="557.7343" />
<polygon
	points="698.6333,209.32205 698.6333,74.48358 722.4783,54.476868 835.72534,95.28961 859.57025,133.4436 859.57025,268.28204 835.72534,288.28876 722.4783,247.47601 "
	id="face_81_82_88_87_86_85_79_80"
	style="fill:rgb(192,192,192);stroke:none"
	opacity="1.0" />
<line
	class="arc1"
	id="link80_@1_79"
	x1="698.6333"
	y1="209.32205"
	x2="722.4783"
	y2="247.47601" />
<line
	class="arc2"
	id="link80_@2_74"
	x1="698.6333"
	y1="209.32205"
	x2="681.6402"
	y2="209.69843" />
<line
	class="arc0"
	id="link80_@0_81"
	x1="698.6333"
	y1="209.32205"
	x2="698.6333"
	y2="74.48358" />
<polygon
	points="681.6402,209.69843 681.6402,74.859924 660.1701,55.856873 560.6184,102.58307 539.1483,141.74066 539.1483,276.57916 560.6184,295.58218 660.1701,248.85608 "
	id="face_75_76_70_69_68_67_73_74"
	style="fill:rgb(192,192,192);stroke:none"
	opacity="1.0" />
<line
	class="arc1"
	id="link74_@1_73"
	x1="681.6402"
	y1="209.69843"
	x2="660.1701"
	y2="248.85608" />
<line
	class="arc0"
	id="link74_@0_75"
	x1="681.6402"
	y1="209.69843"
	x2="681.6402"
	y2="74.859924" />
<line
	class="arc1"
	id="link15_@1_16"
	x1="560.6184"
	y1="524.9314"
	x2="536.1677"
	y2="501.15924" />
<line
	class="arc2"
	id="link15_@2_14"
	x1="560.6184"
	y1="524.9314"
	x2="569.56024"
	y2="539.23914" />
<polygon
	points="715.023,276.92703 830.954,316.4801 844.0639,330.59244 798.15924,355.00125 782.0567,362.55923 712.3071,392.43448 674.7465,383.63025 575.51184,341.30692 570.1564,324.6568 669.70807,277.93066 "
	id="face_37_43_58_57_49_55_13_19_25_31"
	style="fill:rgb(192,192,192);stroke:none"
	opacity="1.0" />
<line
	class="arc1"
	id="link31_@1_25"
	x1="715.023"
	y1="276.92703"
	x2="669.70807"
	y2="277.93066" />
<line
	class="arc3"
	id="link31_@3_78"
	x1="715.023"
	y1="276.92703"
	x2="715.023"
	y2="262.38693" />
<line
	class="arc0"
	id="link31_@0_37"
	x1="715.023"
	y1="276.92703"
	x2="830.954"
	y2="316.4801" />
<line
	class="arc1"
	id="link14_@1_8"
	x1="569.56024"
	y1="539.23914"
	x2="574.9157"
	y2="563.1593" />
<line
	class="arc3"
	id="link14_@3_2"
	x1="569.56024"
	y1="539.23914"
	x2="575.5214"
	y2="548.7776" />
<line
	class="arc3"
	id="link25_@3_72"
	x1="669.70807"
	y1="277.93066"
	x2="669.70807"
	y2="263.3906" />
<line
	class="arc0"
	id="link25_@0_19"
	x1="669.70807"
	y1="277.93066"
	x2="570.1564"
	y2="324.6568" />
<line
	class="arc1"
	id="link2_@1_3"
	x1="575.5214"
	y1="548.7776"
	x2="577.3026"
	y2="563.1408" />
<line
	class="arc2"
	id="link79_@2_78"
	x1="722.4783"
	y1="247.47601"
	x2="715.023"
	y2="262.38693" />
<line
	class="arc0"
	id="link79_@0_85"
	x1="722.4783"
	y1="247.47601"
	x2="835.72534"
	y2="288.28876" />
<line
	class="arc2"
	id="link73_@2_72"
	x1="660.1701"
	y1="248.85608"
	x2="669.70807"
	y2="263.3906" />
<line
	class="arc0"
	id="link73_@0_67"
	x1="660.1701"
	y1="248.85608"
	x2="560.6184"
	y2="295.58218" />
<polygon
	points="715.023,262.38693 830.954,301.94003 844.0639,316.05234 800.84296,346.47153 779.3729,356.54886 712.3071,377.8944 677.7271,373.8594 572.5312,329.26767 570.1564,310.11673 669.70807,263.3906 "
	id="face_84_90_96_102_108_114_60_66_72_78"
	style="fill:rgb(192,192,192);stroke:none"
	opacity="1.0" />
<line
	class="arc1"
	id="link78_@1_72"
	x1="715.023"
	y1="262.38693"
	x2="669.70807"
	y2="263.3906" />
<line
	class="arc0"
	id="link78_@0_84"
	x1="715.023"
	y1="262.38693"
	x2="830.954"
	y2="301.94003" />
<line
	class="arc0"
	id="link72_@0_66"
	x1="669.70807"
	y1="263.3906"
	x2="570.1564"
	y2="310.11673" />
<line
	class="arc2"
	id="link34_@2_40"
	x1="856.8866"
	y1="498.891"
	x2="857.7771"
	y2="505.3456" />
<line
	class="arc0"
	id="link34_@0_35"
	x1="856.8866"
	y1="498.891"
	x2="859.57025"
	y2="362.7929" />
<line
	class="arc3"
	id="link6_@3_38"
	x1="821.404"
	y1="557.7343"
	x2="827.3652"
	y2="552.73267" />
<line
	class="arc0"
	id="link6_@0_5"
	x1="821.404"
	y1="557.7343"
	x2="721.85223"
	y2="604.46045" />
<line
	class="arc2"
	id="link38_@2_39"
	x1="827.3652"
	y1="552.73267"
	x2="836.30707"
	y2="544.5032" />
<line
	class="arc0"
	id="link38_@0_44"
	x1="827.3652"
	y1="552.73267"
	x2="727.8135"
	y2="599.4588" />
<line
	class="arc3"
	id="link3_@3_8"
	x1="577.3026"
	y1="563.1408"
	x2="574.9157"
	y2="563.1593" />
<line
	class="arc0"
	id="link3_@0_4"
	x1="577.3026"
	y1="563.1408"
	x2="687.866"
	y2="605.2132" />
<line
	class="arc2"
	id="link16_@2_10"
	x1="536.1677"
	y1="501.15924"
	x2="532.0906"
	y2="502.81543" />
<line
	class="arc0"
	id="link16_@0_17"
	x1="536.1677"
	y1="501.15924"
	x2="536.1677"
	y2="373.59082" />
<polygon
	points="857.7771,505.3456 863.14465,367.98782 852.4096,343.94617 800.54364,358.8165 784.4411,366.37448 720.65283,405.78827 712.8984,444.67642 718.26587,569.7255 736.7554,591.2293 836.30707,544.5032 "
	id="face_41_42_59_56_48_47_46_45_39_40"
	style="fill:rgb(192,192,192);stroke:none"
	opacity="1.0" />
<line
	class="arc1"
	id="link40_@1_39"
	x1="857.7771"
	y1="505.3456"
	x2="836.30707"
	y2="544.5032" />
<line
	class="arc0"
	id="link40_@0_41"
	x1="857.7771"
	y1="505.3456"
	x2="863.14465"
	y2="367.98782" />
<line
	class="arc2"
	id="link8_@2_9"
	x1="574.9157"
	y1="563.1593"
	x2="569.8451"
	y2="563.22577" />
<line
	class="arc0"
	id="link8_@0_50"
	x1="574.9157"
	y1="563.1593"
	x2="679.5179"
	y2="602.96326" />
<line
	class="arc0"
	id="link39_@0_45"
	x1="836.30707"
	y1="544.5032"
	x2="736.7554"
	y2="591.2293" />
<polygon
	points="532.0906,502.81543 532.0906,382.5171 544.6068,377.3015 590.94666,451.44922 590.94666,487.79956 544.6068,526.6801 "
	id="face_11_124_125_123_122_10"
	style="fill:rgb(192,192,192);stroke:none"
	opacity="1.0" />
<line
	class="arc1"
	id="link10_@1_122"
	x1="532.0906"
	y1="502.81543"
	x2="544.6068"
	y2="526.6801" />
<line
	class="arc0"
	id="link10_@0_11"
	x1="532.0906"
	y1="502.81543"
	x2="532.0906"
	y2="382.5171" />
<polygon
	points="569.8451,563.22577 668.486,600.76135 675.041,586.00726 628.7011,511.85956 598.895,500.51752 552.5551,539.3981 "
	id="face_51_134_135_121_120_9"
	style="fill:rgb(192,192,192);stroke:none"
	opacity="1.0" />
<line
	class="arc1"
	id="link9_@1_120"
	x1="569.8451"
	y1="563.22577"
	x2="552.5551"
	y2="539.3981" />
<line
	class="arc0"
	id="link9_@0_51"
	x1="569.8451"
	y1="563.22577"
	x2="668.486"
	y2="600.76135" />
<line
	class="arc1"
	id="link81_@1_82"
	x1="698.6333"
	y1="74.48358"
	x2="722.4783"
	y2="54.476868" />
<line
	class="arc2"
	id="link81_@2_75"
	x1="698.6333"
	y1="74.48358"
	x2="681.6402"
	y2="74.859924" />
<line
	class="arc2"
	id="link122_@2_120"
	x1="544.6068"
	y1="526.6801"
	x2="552.5551"
	y2="539.3981" />
<line
	class="arc0"
	id="link122_@0_123"
	x1="544.6068"
	y1="526.6801"
	x2="590.94666"
	y2="487.79956" />
<line
	class="arc1"
	id="link75_@1_76"
	x1="681.6402"
	y1="74.859924"
	x2="660.1701"
	y2="55.856873" />
<line
	class="arc0"
	id="link120_@0_121"
	x1="552.5551"
	y1="539.3981"
	x2="598.895"
	y2="500.51752" />
<line
	class="arc1"
	id="link36_@1_35"
	x1="835.72534"
	y1="324.639"
	x2="859.57025"
	y2="362.7929" />
<line
	class="arc2"
	id="link36_@2_37"
	x1="835.72534"
	y1="324.639"
	x2="830.954"
	y2="316.4801" />
<line
	class="arc2"
	id="link35_@2_41"
	x1="859.57025"
	y1="362.7929"
	x2="863.14465"
	y2="367.98782" />
<line
	class="arc1"
	id="link37_@1_43"
	x1="830.954"
	y1="316.4801"
	x2="844.0639"
	y2="330.59244" />
<line
	class="arc3"
	id="link37_@3_84"
	x1="830.954"
	y1="316.4801"
	x2="830.954"
	y2="301.94003" />
<line
	class="arc1"
	id="link18_@1_17"
	x1="560.6184"
	y1="331.93243"
	x2="536.1677"
	y2="373.59082" />
<line
	class="arc2"
	id="link18_@2_19"
	x1="560.6184"
	y1="331.93243"
	x2="570.1564"
	y2="324.6568" />
<line
	class="arc1"
	id="link85_@1_86"
	x1="835.72534"
	y1="288.28876"
	x2="859.57025"
	y2="268.28204" />
<line
	class="arc2"
	id="link85_@2_84"
	x1="835.72534"
	y1="288.28876"
	x2="830.954"
	y2="301.94003" />
<line
	class="arc1"
	id="link84_@1_90"
	x1="830.954"
	y1="301.94003"
	x2="844.0639"
	y2="316.05234" />
<line
	class="arc2"
	id="link17_@2_11"
	x1="536.1677"
	y1="373.59082"
	x2="532.0906"
	y2="382.5171" />
<line
	class="arc1"
	id="link41_@1_42"
	x1="863.14465"
	y1="367.98782"
	x2="852.4096"
	y2="343.94617" />
<line
	class="arc2"
	id="link82_@2_83"
	x1="722.4783"
	y1="54.476868"
	x2="715.023"
	y2="47.57776" />
<line
	class="arc0"
	id="link82_@0_88"
	x1="722.4783"
	y1="54.476868"
	x2="835.72534"
	y2="95.28961" />
<line
	class="arc2"
	id="link76_@2_77"
	x1="660.1701"
	y1="55.856873"
	x2="669.70807"
	y2="48.58142" />
<line
	class="arc0"
	id="link76_@0_70"
	x1="660.1701"
	y1="55.856873"
	x2="560.6184"
	y2="102.58307" />
<line
	class="arc1"
	id="link19_@1_13"
	x1="570.1564"
	y1="324.6568"
	x2="575.51184"
	y2="341.30692" />
<line
	class="arc3"
	id="link19_@3_66"
	x1="570.1564"
	y1="324.6568"
	x2="570.1564"
	y2="310.11673" />
<line
	class="arc1"
	id="link11_@1_124"
	x1="532.0906"
	y1="382.5171"
	x2="544.6068"
	y2="377.3015" />
<line
	class="arc1"
	id="link67_@1_68"
	x1="560.6184"
	y1="295.58218"
	x2="539.1483"
	y2="276.57916" />
<line
	class="arc2"
	id="link67_@2_66"
	x1="560.6184"
	y1="295.58218"
	x2="570.1564"
	y2="310.11673" />
<polygon
	points="715.023,47.57776 830.954,87.1308 844.0639,101.2431 800.84296,131.66235 779.3729,141.73962 712.3071,163.0852 677.7271,159.0502 572.5312,114.458496 570.1564,95.307556 669.70807,48.58142 "
	id="face_89_95_101_107_113_119_65_71_77_83"
	style="fill:rgb(192,192,192);stroke:none"
	opacity="1.0" />
<line
	class="arc1"
	id="link83_@1_77"
	x1="715.023"
	y1="47.57776"
	x2="669.70807"
	y2="48.58142" />
<line
	class="arc0"
	id="link83_@0_89"
	x1="715.023"
	y1="47.57776"
	x2="830.954"
	y2="87.1308" />
<line
	class="arc1"
	id="link66_@1_60"
	x1="570.1564"
	y1="310.11673"
	x2="572.5312"
	y2="329.26767" />
<line
	class="arc0"
	id="link77_@0_71"
	x1="669.70807"
	y1="48.58142"
	x2="570.1564"
	y2="95.307556" />
<line
	class="arc2"
	id="link43_@2_42"
	x1="844.0639"
	y1="330.59244"
	x2="852.4096"
	y2="343.94617" />
<line
	class="arc3"
	id="link43_@3_90"
	x1="844.0639"
	y1="330.59244"
	x2="844.0639"
	y2="316.05234" />
<line
	class="arc0"
	id="link43_@0_58"
	x1="844.0639"
	y1="330.59244"
	x2="798.15924"
	y2="355.00125" />
<line
	class="arc0"
	id="link42_@0_59"
	x1="852.4096"
	y1="343.94617"
	x2="800.54364"
	y2="358.8165" />
<line
	class="arc2"
	id="link90_@2_91"
	x1="844.0639"
	y1="316.05234"
	x2="853.75146"
	y2="307.6931" />
<line
	class="arc0"
	id="link90_@0_96"
	x1="844.0639"
	y1="316.05234"
	x2="800.84296"
	y2="346.47153" />
<line
	class="arc1"
	id="link5_@1_4"
	x1="721.85223"
	y1="604.46045"
	x2="687.866"
	y2="605.2132" />
<line
	class="arc3"
	id="link5_@3_44"
	x1="721.85223"
	y1="604.46045"
	x2="727.8135"
	y2="599.4588" />
<line
	class="arc2"
	id="link86_@2_92"
	x1="859.57025"
	y1="268.28204"
	x2="864.48645"
	y2="273.57416" />
<line
	class="arc0"
	id="link86_@0_87"
	x1="859.57025"
	y1="268.28204"
	x2="859.57025"
	y2="133.4436" />
<line
	class="arc3"
	id="link4_@3_50"
	x1="687.866"
	y1="605.2132"
	x2="679.5179"
	y2="602.96326" />
<line
	class="arc1"
	id="link123_@1_125"
	x1="590.94666"
	y1="487.79956"
	x2="590.94666"
	y2="451.44922" />
<line
	class="arc2"
	id="link123_@2_121"
	x1="590.94666"
	y1="487.79956"
	x2="598.895"
	y2="500.51752" />
<line
	class="arc1"
	id="link121_@1_135"
	x1="598.895"
	y1="500.51752"
	x2="628.7011"
	y2="511.85956" />
<line
	class="arc1"
	id="link50_@1_44"
	x1="679.5179"
	y1="602.96326"
	x2="727.8135"
	y2="599.4588" />
<line
	class="arc2"
	id="link50_@2_51"
	x1="679.5179"
	y1="602.96326"
	x2="668.486"
	y2="600.76135" />
<line
	class="arc2"
	id="link124_@2_126"
	x1="544.6068"
	y1="377.3015"
	x2="552.5551"
	y2="370.6327" />
<line
	class="arc0"
	id="link124_@0_125"
	x1="544.6068"
	y1="377.3015"
	x2="590.94666"
	y2="451.44922" />
<line
	class="arc2"
	id="link44_@2_45"
	x1="727.8135"
	y1="599.4588"
	x2="736.7554"
	y2="591.2293" />
<polygon
	points="853.75146,307.6931 807.25305,334.5843 796.51807,310.5426 796.51807,175.70413 807.25305,141.58514 853.75146,114.69397 864.48645,138.73566 864.48645,273.57416 "
	id="face_97_98_99_100_94_93_92_91"
	style="fill:rgb(192,192,192);stroke:none"
	opacity="1.0" />
<line
	class="arc1"
	id="link91_@1_92"
	x1="853.75146"
	y1="307.6931"
	x2="864.48645"
	y2="273.57416" />
<line
	class="arc0"
	id="link91_@0_97"
	x1="853.75146"
	y1="307.6931"
	x2="807.25305"
	y2="334.5843" />
<line
	class="arc0"
	id="link92_@0_93"
	x1="864.48645"
	y1="273.57416"
	x2="864.48645"
	y2="138.73566" />
<line
	class="arc1"
	id="link51_@1_134"
	x1="668.486"
	y1="600.76135"
	x2="675.041"
	y2="586.00726" />
<line
	class="arc2"
	id="link125_@2_127"
	x1="590.94666"
	y1="451.44922"
	x2="598.895"
	y2="444.7804" />
<polygon
	points="552.5551,370.6327 598.895,444.7804 628.7011,456.12244 675.041,417.24188 665.80225,389.63525 569.8451,350.84003 "
	id="face_127_129_128_54_12_126"
	style="fill:rgb(192,192,192);stroke:none"
	opacity="1.0" />
<line
	class="arc1"
	id="link126_@1_12"
	x1="552.5551"
	y1="370.6327"
	x2="569.8451"
	y2="350.84003" />
<line
	class="arc0"
	id="link126_@0_127"
	x1="552.5551"
	y1="370.6327"
	x2="598.895"
	y2="444.7804" />
<line
	class="arc2"
	id="link68_@2_62"
	x1="539.1483"
	y1="276.57916"
	x2="540.03894"
	y2="283.76077" />
<line
	class="arc0"
	id="link68_@0_69"
	x1="539.1483"
	y1="276.57916"
	x2="539.1483"
	y2="141.74066" />
<line
	class="arc1"
	id="link45_@1_46"
	x1="736.7554"
	y1="591.2293"
	x2="718.26587"
	y2="569.7255" />
<line
	class="arc2"
	id="link13_@2_12"
	x1="575.51184"
	y1="341.30692"
	x2="569.8451"
	y2="350.84003" />
<line
	class="arc3"
	id="link13_@3_60"
	x1="575.51184"
	y1="341.30692"
	x2="572.5312"
	y2="329.26767" />
<line
	class="arc0"
	id="link13_@0_55"
	x1="575.51184"
	y1="341.30692"
	x2="674.7465"
	y2="383.63025" />
<line
	class="arc2"
	id="link60_@2_61"
	x1="572.5312"
	y1="329.26767"
	x2="563.88385"
	y2="321.91476" />
<line
	class="arc0"
	id="link60_@0_114"
	x1="572.5312"
	y1="329.26767"
	x2="677.7271"
	y2="373.8594" />
<line
	class="arc2"
	id="link135_@2_133"
	x1="628.7011"
	y1="511.85956"
	x2="636.6494"
	y2="505.19067" />
<line
	class="arc0"
	id="link135_@0_134"
	x1="628.7011"
	y1="511.85956"
	x2="675.041"
	y2="586.00726" />
<line
	class="arc1"
	id="link127_@1_129"
	x1="598.895"
	y1="444.7804"
	x2="628.7011"
	y2="456.12244" />
<line
	class="arc0"
	id="link12_@0_54"
	x1="569.8451"
	y1="350.84003"
	x2="665.80225"
	y2="389.63525" />
<polygon
	points="540.03894,283.76077 540.03894,148.9223 563.88385,128.91559 671.7635,172.24765 695.6084,210.40164 695.6084,345.2401 671.7635,365.2468 563.88385,321.91476 "
	id="face_63_64_118_117_116_115_61_62"
	style="fill:rgb(192,192,192);stroke:none"
	opacity="1.0" />
<line
	class="arc1"
	id="link62_@1_61"
	x1="540.03894"
	y1="283.76077"
	x2="563.88385"
	y2="321.91476" />
<line
	class="arc0"
	id="link62_@0_63"
	x1="540.03894"
	y1="283.76077"
	x2="540.03894"
	y2="148.9223" />
<polygon
	points="636.6494,505.19067 682.98926,579.33844 706.2404,569.08417 703.55664,450.04553 682.98926,429.95984 636.6494,468.8404 "
	id="face_132_52_53_130_131_133"
	style="fill:rgb(192,192,192);stroke:none"
	opacity="1.0" />
<line
	class="arc1"
	id="link133_@1_131"
	x1="636.6494"
	y1="505.19067"
	x2="636.6494"
	y2="468.8404" />
<line
	class="arc0"
	id="link133_@0_132"
	x1="636.6494"
	y1="505.19067"
	x2="682.98926"
	y2="579.33844" />
<line
	class="arc2"
	id="link134_@2_132"
	x1="675.041"
	y1="586.00726"
	x2="682.98926"
	y2="579.33844" />
<line
	class="arc0"
	id="link61_@0_115"
	x1="563.88385"
	y1="321.91476"
	x2="671.7635"
	y2="365.2468" />
<line
	class="arc1"
	id="link132_@1_52"
	x1="682.98926"
	y1="579.33844"
	x2="706.2404"
	y2="569.08417" />
<line
	class="arc2"
	id="link129_@2_131"
	x1="628.7011"
	y1="456.12244"
	x2="636.6494"
	y2="468.8404" />
<line
	class="arc0"
	id="link129_@0_128"
	x1="628.7011"
	y1="456.12244"
	x2="675.041"
	y2="417.24188" />
<line
	class="arc0"
	id="link131_@0_130"
	x1="636.6494"
	y1="468.8404"
	x2="682.98926"
	y2="429.95984" />
<line
	class="arc1"
	id="link88_@1_87"
	x1="835.72534"
	y1="95.28961"
	x2="859.57025"
	y2="133.4436" />
<line
	class="arc2"
	id="link88_@2_89"
	x1="835.72534"
	y1="95.28961"
	x2="830.954"
	y2="87.1308" />
<line
	class="arc2"
	id="link46_@2_52"
	x1="718.26587"
	y1="569.7255"
	x2="706.2404"
	y2="569.08417" />
<line
	class="arc0"
	id="link46_@0_47"
	x1="718.26587"
	y1="569.7255"
	x2="712.8984"
	y2="444.67642" />
<line
	class="arc1"
	id="link58_@1_57"
	x1="798.15924"
	y1="355.00125"
	x2="782.0567"
	y2="362.55923" />
<line
	class="arc2"
	id="link58_@2_59"
	x1="798.15924"
	y1="355.00125"
	x2="800.54364"
	y2="358.8165" />
<line
	class="arc3"
	id="link58_@3_96"
	x1="798.15924"
	y1="355.00125"
	x2="800.84296"
	y2="346.47153" />
<line
	class="arc1"
	id="link59_@1_56"
	x1="800.54364"
	y1="358.8165"
	x2="784.4411"
	y2="366.37448" />
<line
	class="arc2"
	id="link87_@2_93"
	x1="859.57025"
	y1="133.4436"
	x2="864.48645"
	y2="138.73566" />
<line
	class="arc1"
	id="link96_@1_102"
	x1="800.84296"
	y1="346.47153"
	x2="779.3729"
	y2="356.54886" />
<line
	class="arc2"
	id="link96_@2_97"
	x1="800.84296"
	y1="346.47153"
	x2="807.25305"
	y2="334.5843" />
<line
	class="arc0"
	id="link52_@0_53"
	x1="706.2404"
	y1="569.08417"
	x2="703.55664"
	y2="450.04553" />
<line
	class="arc1"
	id="link97_@1_98"
	x1="807.25305"
	y1="334.5843"
	x2="796.51807"
	y2="310.5426" />
<line
	class="arc1"
	id="link89_@1_95"
	x1="830.954"
	y1="87.1308"
	x2="844.0639"
	y2="101.2431" />
<line
	class="arc1"
	id="link70_@1_69"
	x1="560.6184"
	y1="102.58307"
	x2="539.1483"
	y2="141.74066" />
<line
	class="arc2"
	id="link70_@2_71"
	x1="560.6184"
	y1="102.58307"
	x2="570.1564"
	y2="95.307556" />
<line
	class="arc1"
	id="link93_@1_94"
	x1="864.48645"
	y1="138.73566"
	x2="853.75146"
	y2="114.69397" />
<line
	class="arc2"
	id="link57_@2_56"
	x1="782.0567"
	y1="362.55923"
	x2="784.4411"
	y2="366.37448" />
<line
	class="arc3"
	id="link57_@3_102"
	x1="782.0567"
	y1="362.55923"
	x2="779.3729"
	y2="356.54886" />
<line
	class="arc0"
	id="link57_@0_49"
	x1="782.0567"
	y1="362.55923"
	x2="712.3071"
	y2="392.43448" />
<line
	class="arc0"
	id="link56_@0_48"
	x1="784.4411"
	y1="366.37448"
	x2="720.65283"
	y2="405.78827" />
<line
	class="arc2"
	id="link69_@2_63"
	x1="539.1483"
	y1="141.74066"
	x2="540.03894"
	y2="148.9223" />
<line
	class="arc2"
	id="link102_@2_103"
	x1="779.3729"
	y1="356.54886"
	x2="777.7317"
	y2="348.44058" />
<line
	class="arc0"
	id="link102_@0_108"
	x1="779.3729"
	y1="356.54886"
	x2="712.3071"
	y2="377.8944" />
<line
	class="arc1"
	id="link71_@1_65"
	x1="570.1564"
	y1="95.307556"
	x2="572.5312"
	y2="114.458496" />
<line
	class="arc2"
	id="link98_@2_104"
	x1="796.51807"
	y1="310.5426"
	x2="788.4668"
	y2="314.3216" />
<line
	class="arc0"
	id="link98_@0_99"
	x1="796.51807"
	y1="310.5426"
	x2="796.51807"
	y2="175.70413" />
<line
	class="arc1"
	id="link63_@1_64"
	x1="540.03894"
	y1="148.9223"
	x2="563.88385"
	y2="128.91559" />
<polygon
	points="777.7317,348.44058 719.31085,370.79492 708.57587,346.75327 708.57587,211.9148 719.31085,177.79578 777.7317,155.44144 788.4668,179.48312 788.4668,314.3216 "
	id="face_109_110_111_112_106_105_104_103"
	style="fill:rgb(192,192,192);stroke:none"
	opacity="1.0" />
<line
	class="arc1"
	id="link103_@1_104"
	x1="777.7317"
	y1="348.44058"
	x2="788.4668"
	y2="314.3216" />
<line
	class="arc0"
	id="link103_@0_109"
	x1="777.7317"
	y1="348.44058"
	x2="719.31085"
	y2="370.79492" />
<line
	class="arc2"
	id="link95_@2_94"
	x1="844.0639"
	y1="101.2431"
	x2="853.75146"
	y2="114.69397" />
<line
	class="arc0"
	id="link95_@0_101"
	x1="844.0639"
	y1="101.2431"
	x2="800.84296"
	y2="131.66235" />
<line
	class="arc0"
	id="link94_@0_100"
	x1="853.75146"
	y1="114.69397"
	x2="807.25305"
	y2="141.58514" />
<line
	class="arc0"
	id="link104_@0_105"
	x1="788.4668"
	y1="314.3216"
	x2="788.4668"
	y2="179.48312" />
<line
	class="arc1"
	id="link54_@1_128"
	x1="665.80225"
	y1="389.63525"
	x2="675.041"
	y2="417.24188" />
<line
	class="arc2"
	id="link54_@2_55"
	x1="665.80225"
	y1="389.63525"
	x2="674.7465"
	y2="383.63025" />
<line
	class="arc1"
	id="link55_@1_49"
	x1="674.7465"
	y1="383.63025"
	x2="712.3071"
	y2="392.43448" />
<line
	class="arc3"
	id="link55_@3_114"
	x1="674.7465"
	y1="383.63025"
	x2="677.7271"
	y2="373.8594" />
<line
	class="arc2"
	id="link128_@2_130"
	x1="675.041"
	y1="417.24188"
	x2="682.98926"
	y2="429.95984" />
<line
	class="arc1"
	id="link130_@1_53"
	x1="682.98926"
	y1="429.95984"
	x2="703.55664"
	y2="450.04553" />
<line
	class="arc1"
	id="link114_@1_108"
	x1="677.7271"
	y1="373.8594"
	x2="712.3071"
	y2="377.8944" />
<line
	class="arc2"
	id="link114_@2_115"
	x1="677.7271"
	y1="373.8594"
	x2="671.7635"
	y2="365.2468" />
<line
	class="arc1"
	id="link47_@1_48"
	x1="712.8984"
	y1="444.67642"
	x2="720.65283"
	y2="405.78827" />
<line
	class="arc2"
	id="link47_@2_53"
	x1="712.8984"
	y1="444.67642"
	x2="703.55664"
	y2="450.04553" />
<line
	class="arc2"
	id="link49_@2_48"
	x1="712.3071"
	y1="392.43448"
	x2="720.65283"
	y2="405.78827" />
<line
	class="arc3"
	id="link49_@3_108"
	x1="712.3071"
	y1="392.43448"
	x2="712.3071"
	y2="377.8944" />
<line
	class="arc2"
	id="link65_@2_64"
	x1="572.5312"
	y1="114.458496"
	x2="563.88385"
	y2="128.91559" />
<line
	class="arc0"
	id="link65_@0_119"
	x1="572.5312"
	y1="114.458496"
	x2="677.7271"
	y2="159.0502" />
<line
	class="arc0"
	id="link64_@0_118"
	x1="563.88385"
	y1="128.91559"
	x2="671.7635"
	y2="172.24765" />
<line
	class="arc2"
	id="link108_@2_109"
	x1="712.3071"
	y1="377.8944"
	x2="719.31085"
	y2="370.79492" />
<line
	class="arc1"
	id="link115_@1_116"
	x1="671.7635"
	y1="365.2468"
	x2="695.6084"
	y2="345.2401" />
<line
	class="arc1"
	id="link109_@1_110"
	x1="719.31085"
	y1="370.79492"
	x2="708.57587"
	y2="346.75327" />
<line
	class="arc1"
	id="link99_@1_100"
	x1="796.51807"
	y1="175.70413"
	x2="807.25305"
	y2="141.58514" />
<line
	class="arc2"
	id="link99_@2_105"
	x1="796.51807"
	y1="175.70413"
	x2="788.4668"
	y2="179.48312" />
<line
	class="arc2"
	id="link100_@2_101"
	x1="807.25305"
	y1="141.58514"
	x2="800.84296"
	y2="131.66235" />
<line
	class="arc1"
	id="link105_@1_106"
	x1="788.4668"
	y1="179.48312"
	x2="777.7317"
	y2="155.44144" />
<line
	class="arc1"
	id="link101_@1_107"
	x1="800.84296"
	y1="131.66235"
	x2="779.3729"
	y2="141.73962" />
<line
	class="arc2"
	id="link116_@2_110"
	x1="695.6084"
	y1="345.2401"
	x2="708.57587"
	y2="346.75327" />
<line
	class="arc0"
	id="link116_@0_117"
	x1="695.6084"
	y1="345.2401"
	x2="695.6084"
	y2="210.40164" />
<line
	class="arc0"
	id="link110_@0_111"
	x1="708.57587"
	y1="346.75327"
	x2="708.57587"
	y2="211.9148" />
<line
	class="arc2"
	id="link107_@2_106"
	x1="779.3729"
	y1="141.73962"
	x2="777.7317"
	y2="155.44144" />
<line
	class="arc0"
	id="link107_@0_113"
	x1="779.3729"
	y1="141.73962"
	x2="712.3071"
	y2="163.0852" />
<line
	class="arc0"
	id="link106_@0_112"
	x1="777.7317"
	y1="155.44144"
	x2="719.31085"
	y2="177.79578" />
<line
	class="arc1"
	id="link118_@1_117"
	x1="671.7635"
	y1="172.24765"
	x2="695.6084"
	y2="210.40164" />
<line
	class="arc2"
	id="link118_@2_119"
	x1="671.7635"
	y1="172.24765"
	x2="677.7271"
	y2="159.0502" />
<line
	class="arc1"
	id="link119_@1_113"
	x1="677.7271"
	y1="159.0502"
	x2="712.3071"
	y2="163.0852" />
<line
	class="arc2"
	id="link117_@2_111"
	x1="695.6084"
	y1="210.40164"
	x2="708.57587"
	y2="211.9148" />
<line
	class="arc2"
	id="link113_@2_112"
	x1="712.3071"
	y1="163.0852"
	x2="719.31085"
	y2="177.79578" />
<line
	class="arc1"
	id="link111_@1_112"
	x1="708.57587"
	y1="211.9148"
	x2="719.31085"
	y2="177.79578" />
</svg>
