<?xml version="1.0" encoding="UTF-8" standalone="no"?>
<!-- Created with Jerboa -->

<svg
	width="1422"
	height="665" >
	<style id="style">
		.arc0 {
			fill:none;
			fill-rule:evenodd;
			stroke:black;
			stroke-width:4;
			stroke-linecap:round;
			stroke-linejoin:round;
			stroke-opacity:1;
		}
		.arc1 {
			fill:none;
			fill-rule:evenodd;
			stroke:red;
			stroke-width:4;
			stroke-linecap:round;
			stroke-linejoin:round;
			stroke-opacity:1;
		}
		.arc2 {
			fill:none;
			fill-rule:evenodd;
			stroke:blue;
			stroke-width:4;
			stroke-linecap:round;
			stroke-linejoin:round;
			stroke-opacity:1;
		}
		.arc3 {
			fill:none;
			fill-rule:evenodd;
			stroke:green;
			stroke-width:4;
			stroke-linecap:round;
			stroke-linejoin:round;
			stroke-opacity:1;
		}
		.topological-dart {
			fill:#000000;
			stroke:#000000;
			stroke-width:0;
			stroke-linecap:round;
			stroke-linejoin:round;
			stroke-dasharray:none;
			paint-order:markers fill stroke;
		}
	</style>
<polygon
	points="689.0977,477.7364 877.1571,549.2981 877.1571,549.2981 707.8277,628.77545 707.8277,628.77545 519.7683,557.21375 519.7683,557.21375 689.0977,477.7364 "
	id="face_7_6_5_4_3_2_1_0"
	style="fill:rgb(192,192,192);stroke:none"
	opacity="1.0" />
<line
	class="arc0"
	id="link0_@0_7"
	x1="689.0977"
	y1="477.7364"
	x2="877.1571"
	y2="549.2981" />
<line
	class="arc0"
	id="link1_@0_2"
	x1="689.0977"
	y1="477.7364"
	x2="519.7683"
	y2="557.21375" />
<polygon
	points="689.0977,477.7364 519.7683,557.21375 519.7683,557.21375 707.8277,628.77545 707.8277,628.77545 877.1571,549.2981 877.1571,549.2981 689.0977,477.7364 "
	id="face_14_8_50_44_38_32_26_20"
	style="fill:rgb(192,192,192);stroke:none"
	opacity="1.0" />
<line
	class="arc0"
	id="link20_@0_14"
	x1="689.0977"
	y1="477.7364"
	x2="519.7683"
	y2="557.21375" />
<polygon
	points="689.0977,477.7364 519.7683,557.21375 519.7683,557.21375 519.7683,327.86453 519.7683,327.86453 689.0977,248.38718 689.0977,248.38718 689.0977,477.7364 "
	id="face_15_16_17_18_24_23_22_21"
	style="fill:rgb(192,192,192);stroke:none"
	opacity="1.0" />
<line
	class="arc0"
	id="link21_@0_15"
	x1="689.0977"
	y1="477.7364"
	x2="519.7683"
	y2="557.21375" />
<line
	class="arc0"
	id="link22_@0_23"
	x1="689.0977"
	y1="477.7364"
	x2="689.0977"
	y2="248.38718" />
<line
	class="arc0"
	id="link26_@0_32"
	x1="689.0977"
	y1="477.7364"
	x2="877.1571"
	y2="549.2981" />
<polygon
	points="689.0977,477.7364 877.1571,549.2981 877.1571,549.2981 877.1571,319.94888 877.1571,319.94888 689.0977,248.38718 689.0977,248.38718 689.0977,477.7364 "
	id="face_33_34_35_36_30_29_28_27"
	style="fill:rgb(192,192,192);stroke:none"
	opacity="1.0" />
<line
	class="arc0"
	id="link27_@0_33"
	x1="689.0977"
	y1="477.7364"
	x2="877.1571"
	y2="549.2981" />
<line
	class="arc0"
	id="link28_@0_29"
	x1="689.0977"
	y1="477.7364"
	x2="689.0977"
	y2="248.38718" />
<line
	class="arc0"
	id="link24_@0_18"
	x1="689.0977"
	y1="248.38718"
	x2="519.7683"
	y2="327.86453" />
<polygon
	points="689.0977,248.38718 519.7683,327.86453 519.7683,327.86453 707.8277,399.42624 707.8277,399.42624 792.49243,359.68756 792.49243,359.68756 877.1571,319.94888 877.1571,319.94888 689.0977,248.38718 "
	id="face_19_13_55_49_57_58_43_37_31_25"
	style="fill:rgb(192,192,192);stroke:none"
	opacity="1.0" />
<line
	class="arc0"
	id="link25_@0_19"
	x1="689.0977"
	y1="248.38718"
	x2="519.7683"
	y2="327.86453" />
<line
	class="arc0"
	id="link30_@0_36"
	x1="689.0977"
	y1="248.38718"
	x2="877.1571"
	y2="319.94888" />
<line
	class="arc0"
	id="link31_@0_37"
	x1="689.0977"
	y1="248.38718"
	x2="877.1571"
	y2="319.94888" />
<polygon
	points="689.0977,248.38718 519.7683,327.86453 519.7683,327.86453 707.8277,399.42624 707.8277,399.42624 792.49243,359.68756 792.49243,359.68756 877.1571,319.94888 877.1571,319.94888 689.0977,248.38718 "
	id="face_66_60_114_108_102_96_90_84_78_72"
	style="fill:rgb(192,192,192);stroke:none"
	opacity="1.0" />
<line
	class="arc0"
	id="link72_@0_66"
	x1="689.0977"
	y1="248.38718"
	x2="519.7683"
	y2="327.86453" />
<polygon
	points="689.0977,248.38718 519.7683,327.86453 519.7683,327.86453 638.2685,192.17401 638.2685,192.17401 706.0003,160.38303 706.0003,160.38303 689.0977,248.38718 "
	id="face_67_68_69_82_88_75_74_73"
	style="fill:rgb(192,192,192);stroke:none"
	opacity="1.0" />
<line
	class="arc0"
	id="link73_@0_67"
	x1="689.0977"
	y1="248.38718"
	x2="519.7683"
	y2="327.86453" />
<line
	class="arc0"
	id="link74_@0_75"
	x1="689.0977"
	y1="248.38718"
	x2="706.0003"
	y2="160.38303" />
<line
	class="arc0"
	id="link78_@0_84"
	x1="689.0977"
	y1="248.38718"
	x2="877.1571"
	y2="319.94888" />
<polygon
	points="689.0977,248.38718 877.1571,319.94888 877.1571,319.94888 781.22406,189.00772 781.22406,189.00772 706.0003,160.38303 706.0003,160.38303 689.0977,248.38718 "
	id="face_85_86_87_100_94_81_80_79"
	style="fill:rgb(192,192,192);stroke:none"
	opacity="1.0" />
<line
	class="arc0"
	id="link79_@0_85"
	x1="689.0977"
	y1="248.38718"
	x2="877.1571"
	y2="319.94888" />
<line
	class="arc0"
	id="link80_@0_81"
	x1="689.0977"
	y1="248.38718"
	x2="706.0003"
	y2="160.38303" />
<line
	class="arc0"
	id="link6_@0_5"
	x1="877.1571"
	y1="549.2981"
	x2="707.8277"
	y2="628.77545" />
<line
	class="arc0"
	id="link34_@0_35"
	x1="877.1571"
	y1="549.2981"
	x2="877.1571"
	y2="319.94888" />
<line
	class="arc0"
	id="link38_@0_44"
	x1="877.1571"
	y1="549.2981"
	x2="707.8277"
	y2="628.77545" />
<polygon
	points="877.1571,549.2981 707.8277,628.77545 707.8277,628.77545 707.8277,399.42624 707.8277,399.42624 792.49243,359.68756 792.49243,359.68756 877.1571,319.94888 877.1571,319.94888 877.1571,549.2981 "
	id="face_45_46_47_48_56_59_42_41_40_39"
	style="fill:rgb(192,192,192);stroke:none"
	opacity="1.0" />
<line
	class="arc0"
	id="link39_@0_45"
	x1="877.1571"
	y1="549.2981"
	x2="707.8277"
	y2="628.77545" />
<line
	class="arc0"
	id="link40_@0_41"
	x1="877.1571"
	y1="549.2981"
	x2="877.1571"
	y2="319.94888" />
<line
	class="arc0"
	id="link3_@0_4"
	x1="519.7683"
	y1="557.21375"
	x2="707.8277"
	y2="628.77545" />
<line
	class="arc0"
	id="link8_@0_50"
	x1="519.7683"
	y1="557.21375"
	x2="707.8277"
	y2="628.77545" />
<polygon
	points="519.7683,557.21375 707.8277,628.77545 707.8277,628.77545 613.79803,478.32 613.79803,478.32 519.7683,557.21375 "
	id="face_51_134_135_121_120_9"
	style="fill:rgb(192,192,192);stroke:none"
	opacity="1.0" />
<line
	class="arc0"
	id="link9_@0_51"
	x1="519.7683"
	y1="557.21375"
	x2="707.8277"
	y2="628.77545" />
<polygon
	points="519.7683,557.21375 519.7683,327.86453 519.7683,327.86453 613.79803,478.32 613.79803,478.32 519.7683,557.21375 "
	id="face_11_124_125_123_122_10"
	style="fill:rgb(192,192,192);stroke:none"
	opacity="1.0" />
<line
	class="arc0"
	id="link10_@0_11"
	x1="519.7683"
	y1="557.21375"
	x2="519.7683"
	y2="327.86453" />
<line
	class="arc0"
	id="link16_@0_17"
	x1="519.7683"
	y1="557.21375"
	x2="519.7683"
	y2="327.86453" />
<line
	class="arc0"
	id="link120_@0_121"
	x1="519.7683"
	y1="557.21375"
	x2="613.79803"
	y2="478.32" />
<line
	class="arc0"
	id="link122_@0_123"
	x1="519.7683"
	y1="557.21375"
	x2="613.79803"
	y2="478.32" />
<line
	class="arc0"
	id="link42_@0_59"
	x1="877.1571"
	y1="319.94888"
	x2="792.49243"
	y2="359.68756" />
<line
	class="arc0"
	id="link43_@0_58"
	x1="877.1571"
	y1="319.94888"
	x2="792.49243"
	y2="359.68756" />
<line
	class="arc0"
	id="link86_@0_87"
	x1="877.1571"
	y1="319.94888"
	x2="781.22406"
	y2="189.00772" />
<line
	class="arc0"
	id="link90_@0_96"
	x1="877.1571"
	y1="319.94888"
	x2="792.49243"
	y2="359.68756" />
<polygon
	points="877.1571,319.94888 792.49243,359.68756 792.49243,359.68756 747.35815,204.90323 747.35815,204.90323 781.22406,189.00772 781.22406,189.00772 877.1571,319.94888 "
	id="face_97_98_99_112_106_93_92_91"
	style="fill:rgb(192,192,192);stroke:none"
	opacity="1.0" />
<line
	class="arc0"
	id="link91_@0_97"
	x1="877.1571"
	y1="319.94888"
	x2="792.49243"
	y2="359.68756" />
<line
	class="arc0"
	id="link92_@0_93"
	x1="877.1571"
	y1="319.94888"
	x2="781.22406"
	y2="189.00772" />
<polygon
	points="519.7683,327.86453 707.8277,399.42624 707.8277,399.42624 613.79803,478.32 613.79803,478.32 519.7683,327.86453 "
	id="face_54_128_129_127_126_12"
	style="fill:rgb(192,192,192);stroke:none"
	opacity="1.0" />
<line
	class="arc0"
	id="link12_@0_54"
	x1="519.7683"
	y1="327.86453"
	x2="707.8277"
	y2="399.42624" />
<line
	class="arc0"
	id="link13_@0_55"
	x1="519.7683"
	y1="327.86453"
	x2="707.8277"
	y2="399.42624" />
<line
	class="arc0"
	id="link60_@0_114"
	x1="519.7683"
	y1="327.86453"
	x2="707.8277"
	y2="399.42624" />
<polygon
	points="519.7683,327.86453 707.8277,399.42624 707.8277,399.42624 713.4923,220.79865 713.4923,220.79865 638.2685,192.17401 638.2685,192.17401 519.7683,327.86453 "
	id="face_115_116_117_70_76_63_62_61"
	style="fill:rgb(192,192,192);stroke:none"
	opacity="1.0" />
<line
	class="arc0"
	id="link61_@0_115"
	x1="519.7683"
	y1="327.86453"
	x2="707.8277"
	y2="399.42624" />
<line
	class="arc0"
	id="link62_@0_63"
	x1="519.7683"
	y1="327.86453"
	x2="638.2685"
	y2="192.17401" />
<line
	class="arc0"
	id="link68_@0_69"
	x1="519.7683"
	y1="327.86453"
	x2="638.2685"
	y2="192.17401" />
<line
	class="arc0"
	id="link88_@0_82"
	x1="706.0003"
	y1="160.38303"
	x2="638.2685"
	y2="192.17401" />
<polygon
	points="706.0003,160.38303 638.2685,192.17401 638.2685,192.17401 713.4923,220.79865 713.4923,220.79865 747.35815,204.90323 747.35815,204.90323 781.22406,189.00772 781.22406,189.00772 706.0003,160.38303 "
	id="face_83_77_71_65_119_113_107_101_95_89"
	style="fill:rgb(192,192,192);stroke:none"
	opacity="1.0" />
<line
	class="arc0"
	id="link89_@0_83"
	x1="706.0003"
	y1="160.38303"
	x2="638.2685"
	y2="192.17401" />
<line
	class="arc0"
	id="link94_@0_100"
	x1="706.0003"
	y1="160.38303"
	x2="781.22406"
	y2="189.00772" />
<line
	class="arc0"
	id="link95_@0_101"
	x1="706.0003"
	y1="160.38303"
	x2="781.22406"
	y2="189.00772" />
<line
	class="arc0"
	id="link124_@0_125"
	x1="519.7683"
	y1="327.86453"
	x2="613.79803"
	y2="478.32" />
<line
	class="arc0"
	id="link126_@0_127"
	x1="519.7683"
	y1="327.86453"
	x2="613.79803"
	y2="478.32" />
<line
	class="arc0"
	id="link129_@0_128"
	x1="613.79803"
	y1="478.32"
	x2="707.8277"
	y2="399.42624" />
<polygon
	points="613.79803,478.32 707.8277,399.42624 707.8277,399.42624 707.8277,628.77545 707.8277,628.77545 613.79803,478.32 "
	id="face_130_53_52_132_133_131"
	style="fill:rgb(192,192,192);stroke:none"
	opacity="1.0" />
<line
	class="arc0"
	id="link131_@0_130"
	x1="613.79803"
	y1="478.32"
	x2="707.8277"
	y2="399.42624" />
<line
	class="arc0"
	id="link133_@0_132"
	x1="613.79803"
	y1="478.32"
	x2="707.8277"
	y2="628.77545" />
<line
	class="arc0"
	id="link135_@0_134"
	x1="613.79803"
	y1="478.32"
	x2="707.8277"
	y2="628.77545" />
<line
	class="arc0"
	id="link46_@0_47"
	x1="707.8277"
	y1="628.77545"
	x2="707.8277"
	y2="399.42624" />
<line
	class="arc0"
	id="link52_@0_53"
	x1="707.8277"
	y1="628.77545"
	x2="707.8277"
	y2="399.42624" />
<line
	class="arc0"
	id="link106_@0_112"
	x1="781.22406"
	y1="189.00772"
	x2="747.35815"
	y2="204.90323" />
<line
	class="arc0"
	id="link107_@0_113"
	x1="781.22406"
	y1="189.00772"
	x2="747.35815"
	y2="204.90323" />
<line
	class="arc0"
	id="link56_@0_48"
	x1="792.49243"
	y1="359.68756"
	x2="707.8277"
	y2="399.42624" />
<line
	class="arc0"
	id="link57_@0_49"
	x1="792.49243"
	y1="359.68756"
	x2="707.8277"
	y2="399.42624" />
<line
	class="arc0"
	id="link76_@0_70"
	x1="638.2685"
	y1="192.17401"
	x2="713.4923"
	y2="220.79865" />
<line
	class="arc0"
	id="link77_@0_71"
	x1="638.2685"
	y1="192.17401"
	x2="713.4923"
	y2="220.79865" />
<line
	class="arc0"
	id="link98_@0_99"
	x1="792.49243"
	y1="359.68756"
	x2="747.35815"
	y2="204.90323" />
<line
	class="arc0"
	id="link102_@0_108"
	x1="792.49243"
	y1="359.68756"
	x2="707.8277"
	y2="399.42624" />
<polygon
	points="792.49243,359.68756 707.8277,399.42624 707.8277,399.42624 713.4923,220.79865 713.4923,220.79865 747.35815,204.90323 747.35815,204.90323 792.49243,359.68756 "
	id="face_109_110_111_64_118_105_104_103"
	style="fill:rgb(192,192,192);stroke:none"
	opacity="1.0" />
<line
	class="arc0"
	id="link103_@0_109"
	x1="792.49243"
	y1="359.68756"
	x2="707.8277"
	y2="399.42624" />
<line
	class="arc0"
	id="link104_@0_105"
	x1="792.49243"
	y1="359.68756"
	x2="747.35815"
	y2="204.90323" />
<line
	class="arc0"
	id="link118_@0_64"
	x1="747.35815"
	y1="204.90323"
	x2="713.4923"
	y2="220.79865" />
<line
	class="arc0"
	id="link119_@0_65"
	x1="747.35815"
	y1="204.90323"
	x2="713.4923"
	y2="220.79865" />
<line
	class="arc0"
	id="link111_@0_110"
	x1="713.4923"
	y1="220.79865"
	x2="707.8277"
	y2="399.42624" />
<line
	class="arc0"
	id="link117_@0_116"
	x1="713.4923"
	y1="220.79865"
	x2="707.8277"
	y2="399.42624" />
</svg>
