<?xml version="1.0" encoding="UTF-8" standalone="no"?>
<!-- Created with Inkscape (http://www.inkscape.org/) -->

<svg
   width="95.617447mm"
   height="275.46768mm"
   viewBox="0 0 95.617447 275.46767"
   version="1.1"
   id="svg7501"
   xml:space="preserve"
   inkscape:version="1.2.2 (b0a8486541, 2022-12-01)"
   sodipodi:docname="house-reshape-flat-to-sharp-roof.svg"
   xmlns:inkscape="http://www.inkscape.org/namespaces/inkscape"
   xmlns:sodipodi="http://sodipodi.sourceforge.net/DTD/sodipodi-0.dtd"
   xmlns="http://www.w3.org/2000/svg"
   xmlns:svg="http://www.w3.org/2000/svg"><sodipodi:namedview
     id="namedview7503"
     pagecolor="#ffffff"
     bordercolor="#000000"
     borderopacity="0.25"
     inkscape:showpageshadow="2"
     inkscape:pageopacity="0.0"
     inkscape:pagecheckerboard="0"
     inkscape:deskcolor="#d1d1d1"
     inkscape:document-units="mm"
     showgrid="false"
     inkscape:zoom="0.77058782"
     inkscape:cx="205.68713"
     inkscape:cy="579.42779"
     inkscape:window-width="1908"
     inkscape:window-height="1048"
     inkscape:window-x="1085"
     inkscape:window-y="25"
     inkscape:window-maximized="1"
     inkscape:current-layer="layer1" /><defs
     id="defs7498" /><g
     inkscape:label="Calque 1"
     inkscape:groupmode="layer"
     id="layer1"
     transform="translate(-50.281376,4.6922946)"><g
       id="g9383"
       transform="matrix(0.26458333,0,0,0.26458333,-86.711488,-31.074857)"><polygon
         points="877.1571,549.2981 707.8277,628.77545 519.7683,557.21375 689.0977,477.7364 "
         id="face_7_6_5_4_3_2_1_0"
         style="fill:#c0c0c0;stroke:none"
         opacity="1" /><line
         class="arc0"
         id="link0_@0_7"
         x1="689.09772"
         y1="477.73639"
         x2="877.1571"
         y2="549.2981" /><line
         class="arc0"
         id="link1_@0_2"
         x1="689.09772"
         y1="477.73639"
         x2="519.76831"
         y2="557.21375" /><polygon
         points="519.7683,557.21375 707.8277,628.77545 877.1571,549.2981 689.0977,477.7364 "
         id="face_14_8_50_44_38_32_26_20"
         style="fill:#c0c0c0;stroke:none"
         opacity="1" /><line
         class="arc0"
         id="link20_@0_14"
         x1="689.09772"
         y1="477.73639"
         x2="519.76831"
         y2="557.21375" /><polygon
         points="519.7683,557.21375 519.7683,327.86453 689.0977,248.38718 689.0977,477.7364 "
         id="face_15_16_17_18_24_23_22_21"
         style="fill:#c0c0c0;stroke:none"
         opacity="1" /><line
         class="arc0"
         id="link21_@0_15"
         x1="689.09772"
         y1="477.73639"
         x2="519.76831"
         y2="557.21375" /><line
         class="arc0"
         id="link22_@0_23"
         x1="689.09772"
         y1="477.73639"
         x2="689.09772"
         y2="248.38718" /><line
         class="arc0"
         id="link26_@0_32"
         x1="689.09772"
         y1="477.73639"
         x2="877.1571"
         y2="549.2981" /><polygon
         points="877.1571,549.2981 877.1571,319.94888 689.0977,248.38718 689.0977,477.7364 "
         id="face_33_34_35_36_30_29_28_27"
         style="fill:#c0c0c0;stroke:none"
         opacity="1" /><line
         class="arc0"
         id="link27_@0_33"
         x1="689.09772"
         y1="477.73639"
         x2="877.1571"
         y2="549.2981" /><line
         class="arc0"
         id="link28_@0_29"
         x1="689.09772"
         y1="477.73639"
         x2="689.09772"
         y2="248.38718" /><line
         class="arc0"
         id="link24_@0_18"
         x1="689.09772"
         y1="248.38718"
         x2="519.76831"
         y2="327.86453" /><polygon
         points="877.1571,319.94888 689.0977,248.38718 519.7683,327.86453 707.8277,399.42624 792.49243,359.68756 877.1571,319.94888 "
         id="face_19_13_55_49_57_58_43_37_31_25"
         style="fill:#c0c0c0;stroke:none"
         opacity="1" /><line
         class="arc0"
         id="link25_@0_19"
         x1="689.09772"
         y1="248.38718"
         x2="519.76831"
         y2="327.86453" /><line
         class="arc0"
         id="link30_@0_36"
         x1="689.09772"
         y1="248.38718"
         x2="877.1571"
         y2="319.94888" /><line
         class="arc0"
         id="link31_@0_37"
         x1="689.09772"
         y1="248.38718"
         x2="877.1571"
         y2="319.94888" /><polygon
         points="877.1571,319.94888 689.0977,248.38718 519.7683,327.86453 707.8277,399.42624 792.49243,359.68756 877.1571,319.94888 "
         id="face_66_60_114_108_102_96_90_84_78_72"
         style="fill:#c0c0c0;stroke:none"
         opacity="1" /><line
         class="arc0"
         id="link72_@0_66"
         x1="689.09772"
         y1="248.38718"
         x2="519.76831"
         y2="327.86453" /><polygon
         points="689.0977,248.38718 519.7683,327.86453 717.2687,101.71362 "
         id="face_67_68_69_75_74_73"
         style="fill:#c0c0c0;stroke:none"
         opacity="1" /><line
         class="arc0"
         id="link73_@0_67"
         x1="689.09772"
         y1="248.38718"
         x2="519.76831"
         y2="327.86453" /><line
         class="arc0"
         id="link74_@0_75"
         x1="689.09772"
         y1="248.38718"
         x2="717.26868"
         y2="101.71362" /><line
         class="arc0"
         id="link78_@0_84"
         x1="689.09772"
         y1="248.38718"
         x2="877.1571"
         y2="319.94888" /><polygon
         points="689.0977,248.38718 877.1571,319.94888 717.2687,101.71362 "
         id="face_85_86_87_81_80_79"
         style="fill:#c0c0c0;stroke:none"
         opacity="1" /><line
         class="arc0"
         id="link79_@0_85"
         x1="689.09772"
         y1="248.38718"
         x2="877.1571"
         y2="319.94888" /><line
         class="arc0"
         id="link80_@0_81"
         x1="689.09772"
         y1="248.38718"
         x2="717.26868"
         y2="101.71362" /><line
         class="arc0"
         id="link6_@0_5"
         x1="877.1571"
         y1="549.2981"
         x2="707.8277"
         y2="628.77545" /><line
         class="arc0"
         id="link34_@0_35"
         x1="877.1571"
         y1="549.2981"
         x2="877.1571"
         y2="319.94888" /><line
         class="arc0"
         id="link38_@0_44"
         x1="877.1571"
         y1="549.2981"
         x2="707.8277"
         y2="628.77545" /><polygon
         points="877.1571,319.94888 877.1571,549.2981 707.8277,628.77545 707.8277,399.42624 792.49243,359.68756 877.1571,319.94888 "
         id="face_45_46_47_48_56_59_42_41_40_39"
         style="fill:#c0c0c0;stroke:none"
         opacity="1" /><line
         class="arc0"
         id="link39_@0_45"
         x1="877.1571"
         y1="549.2981"
         x2="707.8277"
         y2="628.77545" /><line
         class="arc0"
         id="link40_@0_41"
         x1="877.1571"
         y1="549.2981"
         x2="877.1571"
         y2="319.94888" /><line
         class="arc0"
         id="link3_@0_4"
         x1="519.76831"
         y1="557.21375"
         x2="707.8277"
         y2="628.77545" /><line
         class="arc0"
         id="link8_@0_50"
         x1="519.76831"
         y1="557.21375"
         x2="707.8277"
         y2="628.77545" /><polygon
         points="519.7683,557.21375 707.8277,628.77545 613.79803,478.32 "
         id="face_51_134_135_121_120_9"
         style="fill:#c0c0c0;stroke:none"
         opacity="1" /><line
         class="arc0"
         id="link9_@0_51"
         x1="519.76831"
         y1="557.21375"
         x2="707.8277"
         y2="628.77545" /><polygon
         points="519.7683,557.21375 519.7683,327.86453 613.79803,478.32 "
         id="face_11_124_125_123_122_10"
         style="fill:#c0c0c0;stroke:none"
         opacity="1" /><line
         class="arc0"
         id="link10_@0_11"
         x1="519.76831"
         y1="557.21375"
         x2="519.76831"
         y2="327.86453" /><line
         class="arc0"
         id="link16_@0_17"
         x1="519.76831"
         y1="557.21375"
         x2="519.76831"
         y2="327.86453" /><line
         class="arc0"
         id="link120_@0_121"
         x1="519.76831"
         y1="557.21375"
         x2="613.79803"
         y2="478.32001" /><line
         class="arc0"
         id="link122_@0_123"
         x1="519.76831"
         y1="557.21375"
         x2="613.79803"
         y2="478.32001" /><line
         class="arc0"
         id="link42_@0_59"
         x1="877.1571"
         y1="319.94888"
         x2="792.49243"
         y2="359.68756" /><line
         class="arc0"
         id="link43_@0_58"
         x1="877.1571"
         y1="319.94888"
         x2="792.49243"
         y2="359.68756" /><line
         class="arc0"
         id="link86_@0_87"
         x1="877.1571"
         y1="319.94888"
         x2="717.26868"
         y2="101.71362" /><line
         class="arc0"
         id="link90_@0_96"
         x1="877.1571"
         y1="319.94888"
         x2="792.49243"
         y2="359.68756" /><polygon
         points="877.1571,319.94888 792.49243,359.68756 717.2687,101.71362 "
         id="face_97_98_99_93_92_91"
         style="fill:#c0c0c0;stroke:none"
         opacity="1" /><line
         class="arc0"
         id="link91_@0_97"
         x1="877.1571"
         y1="319.94888"
         x2="792.49243"
         y2="359.68756" /><line
         class="arc0"
         id="link92_@0_93"
         x1="877.1571"
         y1="319.94888"
         x2="717.26868"
         y2="101.71362" /><polygon
         points="519.7683,327.86453 707.8277,399.42624 613.79803,478.32 "
         id="face_54_128_129_127_126_12"
         style="fill:#c0c0c0;stroke:none"
         opacity="1" /><line
         class="arc0"
         id="link12_@0_54"
         x1="519.76831"
         y1="327.86453"
         x2="707.8277"
         y2="399.42624" /><line
         class="arc0"
         id="link13_@0_55"
         x1="519.76831"
         y1="327.86453"
         x2="707.8277"
         y2="399.42624" /><line
         class="arc0"
         id="link60_@0_114"
         x1="519.76831"
         y1="327.86453"
         x2="707.8277"
         y2="399.42624" /><polygon
         points="519.7683,327.86453 707.8277,399.42624 717.2687,101.71362 "
         id="face_115_116_117_63_62_61"
         style="fill:#c0c0c0;stroke:none"
         opacity="1" /><line
         class="arc0"
         id="link61_@0_115"
         x1="519.76831"
         y1="327.86453"
         x2="707.8277"
         y2="399.42624" /><line
         class="arc0"
         id="link62_@0_63"
         x1="519.76831"
         y1="327.86453"
         x2="717.26868"
         y2="101.71362" /><line
         class="arc0"
         id="link68_@0_69"
         x1="519.76831"
         y1="327.86453"
         x2="717.26868"
         y2="101.71362" /><line
         class="arc0"
         id="link124_@0_125"
         x1="519.76831"
         y1="327.86453"
         x2="613.79803"
         y2="478.32001" /><line
         class="arc0"
         id="link126_@0_127"
         x1="519.76831"
         y1="327.86453"
         x2="613.79803"
         y2="478.32001" /><line
         class="arc0"
         id="link129_@0_128"
         x1="613.79803"
         y1="478.32001"
         x2="707.8277"
         y2="399.42624" /><polygon
         points="613.79803,478.32 707.8277,399.42624 707.8277,628.77545 "
         id="face_130_53_52_132_133_131"
         style="fill:#c0c0c0;stroke:none"
         opacity="1" /><line
         class="arc0"
         id="link131_@0_130"
         x1="613.79803"
         y1="478.32001"
         x2="707.8277"
         y2="399.42624" /><line
         class="arc0"
         id="link133_@0_132"
         x1="613.79803"
         y1="478.32001"
         x2="707.8277"
         y2="628.77545" /><line
         class="arc0"
         id="link135_@0_134"
         x1="613.79803"
         y1="478.32001"
         x2="707.8277"
         y2="628.77545" /><line
         class="arc0"
         id="link46_@0_47"
         x1="707.8277"
         y1="628.77545"
         x2="707.8277"
         y2="399.42624" /><line
         class="arc0"
         id="link52_@0_53"
         x1="707.8277"
         y1="628.77545"
         x2="707.8277"
         y2="399.42624" /><line
         class="arc0"
         id="link56_@0_48"
         x1="792.49243"
         y1="359.68756"
         x2="707.8277"
         y2="399.42624" /><line
         class="arc0"
         id="link57_@0_49"
         x1="792.49243"
         y1="359.68756"
         x2="707.8277"
         y2="399.42624" /><line
         class="arc0"
         id="link98_@0_99"
         x1="792.49243"
         y1="359.68756"
         x2="717.26868"
         y2="101.71362" /><line
         class="arc0"
         id="link102_@0_108"
         x1="792.49243"
         y1="359.68756"
         x2="707.8277"
         y2="399.42624" /><polygon
         points="792.49243,359.68756 707.8277,399.42624 717.2687,101.71362 "
         id="face_109_110_111_105_104_103"
         style="fill:#c0c0c0;stroke:none"
         opacity="1" /><line
         class="arc0"
         id="link103_@0_109"
         x1="792.49243"
         y1="359.68756"
         x2="707.8277"
         y2="399.42624" /><line
         class="arc0"
         id="link104_@0_105"
         x1="792.49243"
         y1="359.68756"
         x2="717.26868"
         y2="101.71362" /><line
         class="arc0"
         id="link111_@0_110"
         x1="717.26868"
         y1="101.71362"
         x2="707.8277"
         y2="399.42624" /><line
         class="arc0"
         id="link117_@0_116"
         x1="717.26868"
         y1="101.71362"
         x2="707.8277"
         y2="399.42624" /></g><g
       id="g9801"
       transform="matrix(0.26458333,0,0,0.26458333,-86.487891,110.11689)"><polygon
         points="698.6333,303.8329 722.4783,283.8263 835.72534,324.639 859.57025,362.7929 856.8866,498.891 833.0417,518.8976 722.4783,476.82523 698.6333,438.67136 "
         id="face_29_30_36_35_34_33_27_28"
         style="fill:#c0c0c0;stroke:none"
         opacity="1" /><line
         class="arc1"
         id="link28_@1_27"
         x1="698.6333"
         y1="438.67136"
         x2="722.47827"
         y2="476.82523" /><line
         class="arc2"
         id="link28_@2_22"
         x1="698.6333"
         y1="438.67136"
         x2="681.6402"
         y2="439.0477" /><line
         class="arc0"
         id="link28_@0_29-4"
         x1="698.6333"
         y1="438.67136"
         x2="698.6333"
         y2="303.83289" /><polygon
         points="681.6402,304.20926 660.1701,285.2063 560.6184,331.93243 536.1677,373.59082 536.1677,501.15924 560.6184,524.9314 660.1701,478.20526 681.6402,439.0477 "
         id="face_23_24_18_17_16_15_21_22"
         style="fill:#c0c0c0;stroke:none"
         opacity="1" /><line
         class="arc1"
         id="link22_@1_21"
         x1="681.6402"
         y1="439.0477"
         x2="660.1701"
         y2="478.20526" /><line
         class="arc0"
         id="link22_@0_23-3"
         x1="681.6402"
         y1="439.0477"
         x2="681.6402"
         y2="304.20926" /><line
         class="arc2"
         id="link27_@2_26"
         x1="722.47827"
         y1="476.82523"
         x2="714.42694"
         y2="491.50931" /><line
         class="arc0"
         id="link27_@0_33-3"
         x1="722.47827"
         y1="476.82523"
         x2="833.04169"
         y2="518.89758" /><line
         class="arc2"
         id="link21_@2_20"
         x1="660.1701"
         y1="478.20526"
         x2="669.112"
         y2="492.513" /><line
         class="arc0"
         id="link21_@0_15-3"
         x1="660.1701"
         y1="478.20526"
         x2="560.61841"
         y2="524.9314" /><polygon
         points="824.99036,533.5817 827.3652,552.73267 727.8135,599.4588 679.5179,602.96326 574.9157,563.1593 569.56024,539.23914 669.112,492.513 714.42694,491.5093 "
         id="face_32_38_44_50_8_14_20_26"
         style="fill:#c0c0c0;stroke:none"
         opacity="1" /><line
         class="arc1"
         id="link26_@1_20"
         x1="714.42694"
         y1="491.50931"
         x2="669.112"
         y2="492.513" /><line
         class="arc3"
         id="link26_@3_0"
         x1="714.42694"
         y1="491.50931"
         x2="709.05945"
         y2="501.29871" /><line
         class="arc0"
         id="link26_@0_32-8"
         x1="714.42694"
         y1="491.50931"
         x2="824.99036"
         y2="533.58173" /><polygon
         points="819.6228,543.3711 821.404,557.7343 721.85223,604.46045 687.866,605.2132 577.3026,563.1408 575.5214,548.7776 675.0732,502.05145 709.05945,501.2987 "
         id="face_7_6_5_4_3_2_1_0-6"
         style="fill:#c0c0c0;stroke:none"
         opacity="1" /><line
         class="arc1"
         id="link0_@1_1"
         x1="709.05945"
         y1="501.29871"
         x2="675.07318"
         y2="502.05145" /><line
         class="arc0"
         id="link0_@0_7-0"
         x1="709.05945"
         y1="501.29871"
         x2="819.6228"
         y2="543.37109" /><line
         class="arc3"
         id="link20_@3_1"
         x1="669.112"
         y1="492.513"
         x2="675.07318"
         y2="502.05145" /><line
         class="arc0"
         id="link20_@0_14-4"
         x1="669.112"
         y1="492.513"
         x2="569.56024"
         y2="539.23914" /><line
         class="arc0"
         id="link1_@0_2-8"
         x1="675.07318"
         y1="502.05145"
         x2="575.52142"
         y2="548.77759" /><line
         class="arc1"
         id="link23_@1_24"
         x1="681.6402"
         y1="304.20926"
         x2="660.1701"
         y2="285.2063" /><line
         class="arc2"
         id="link23_@2_29"
         x1="681.6402"
         y1="304.20926"
         x2="698.6333"
         y2="303.83289" /><line
         class="arc1"
         id="link29_@1_30"
         x1="698.6333"
         y1="303.83289"
         x2="722.47827"
         y2="283.82629" /><line
         class="arc2"
         id="link30_@2_31"
         x1="722.47827"
         y1="283.82629"
         x2="715.02301"
         y2="276.92703" /><line
         class="arc0"
         id="link30_@0_36-8"
         x1="722.47827"
         y1="283.82629"
         x2="835.72534"
         y2="324.63901" /><line
         class="arc1"
         id="link33_@1_34"
         x1="833.04169"
         y1="518.89758"
         x2="856.8866"
         y2="498.89099" /><line
         class="arc2"
         id="link33_@2_32"
         x1="833.04169"
         y1="518.89758"
         x2="824.99036"
         y2="533.58173" /><line
         class="arc2"
         id="link24_@2_25"
         x1="660.1701"
         y1="285.2063"
         x2="669.70807"
         y2="277.93066" /><line
         class="arc0"
         id="link24_@0_18-8"
         x1="660.1701"
         y1="285.2063"
         x2="560.61841"
         y2="331.93243" /><line
         class="arc1"
         id="link32_@1_38"
         x1="824.99036"
         y1="533.58173"
         x2="827.36517"
         y2="552.73267" /><line
         class="arc3"
         id="link32_@3_7"
         x1="824.99036"
         y1="533.58173"
         x2="819.6228"
         y2="543.37109" /><line
         class="arc1"
         id="link7_@1_6"
         x1="819.6228"
         y1="543.37109"
         x2="821.40399"
         y2="557.73431" /><line
         class="arc1"
         id="link15_@1_16"
         x1="560.61841"
         y1="524.9314"
         x2="536.16772"
         y2="501.15924" /><line
         class="arc2"
         id="link15_@2_14"
         x1="560.61841"
         y1="524.9314"
         x2="569.56024"
         y2="539.23914" /><polygon
         points="669.70807,277.93066 715.023,276.92703 830.954,316.4801 844.0639,330.59244 798.15924,355.00125 782.0567,362.55923 712.3071,392.43448 674.7465,383.63025 575.51184,341.30692 570.1564,324.6568 "
         id="face_37_43_58_57_49_55_13_19_25_31"
         style="fill:#c0c0c0;stroke:none"
         opacity="1" /><line
         class="arc1"
         id="link31_@1_25"
         x1="715.02301"
         y1="276.92703"
         x2="669.70807"
         y2="277.93066" /><line
         class="arc3"
         id="link31_@3_78"
         x1="715.02301"
         y1="276.92703"
         x2="715.91602"
         y2="265.00766" /><line
         class="arc0"
         id="link31_@0_37-9"
         x1="715.02301"
         y1="276.92703"
         x2="830.95398"
         y2="316.4801" /><line
         class="arc1"
         id="link14_@1_8"
         x1="569.56024"
         y1="539.23914"
         x2="574.91571"
         y2="563.1593" /><line
         class="arc3"
         id="link14_@3_2"
         x1="569.56024"
         y1="539.23914"
         x2="575.52142"
         y2="548.77759" /><line
         class="arc3"
         id="link25_@3_72"
         x1="669.70807"
         y1="277.93066"
         x2="670.60107"
         y2="266.01132" /><line
         class="arc0"
         id="link25_@0_19-7"
         x1="669.70807"
         y1="277.93066"
         x2="570.15637"
         y2="324.6568" /><line
         class="arc1"
         id="link2_@1_3"
         x1="575.52142"
         y1="548.77759"
         x2="577.30261"
         y2="563.14081" /><polygon
         points="670.6011,266.01132 715.916,265.00766 825.88574,302.29233 838.99567,316.40463 798.45856,345.56418 776.98846,355.64148 712.6064,375.7274 678.02637,371.6924 578.79175,329.36908 576.4168,310.21814 "
         id="face_84_90_96_102_108_114_60_66_72_78"
         style="fill:#c0c0c0;stroke:none"
         opacity="1" /><line
         class="arc1"
         id="link78_@1_72"
         x1="715.91602"
         y1="265.00766"
         x2="670.60107"
         y2="266.01132" /><line
         class="arc2"
         id="link78_@2_79"
         x1="715.91602"
         y1="265.00766"
         x2="723.5683"
         y2="254.42462" /><line
         class="arc0"
         id="link78_@0_84-7"
         x1="715.91602"
         y1="265.00766"
         x2="825.88574"
         y2="302.29233" /><line
         class="arc2"
         id="link72_@2_73"
         x1="670.60107"
         y1="266.01132"
         x2="663.14832"
         y2="255.76285" /><line
         class="arc0"
         id="link72_@0_66-6"
         x1="670.60107"
         y1="266.01132"
         x2="576.41681"
         y2="310.21814" /><polygon
         points="749.66846,164.55203 717.1785,154.4696 703.2953,226.75348 723.5683,254.42462 824.89307,290.7005 828.4649,272.10303 "
         id="face_85_86_87_81_80_79-4"
         style="fill:#c0c0c0;stroke:none"
         opacity="1" /><line
         class="arc1"
         id="link79_@1_80"
         x1="723.5683"
         y1="254.42462"
         x2="703.29529"
         y2="226.75348" /><line
         class="arc0"
         id="link79_@0_85-3"
         x1="723.5683"
         y1="254.42462"
         x2="824.89307"
         y2="290.7005" /><polygon
         points="675.23596,167.40079 702.07355,154.80417 688.1903,227.08801 663.1483,255.76285 574.3316,297.45026 577.90356,278.8528 "
         id="face_67_68_69_75_74_73-0"
         style="fill:#c0c0c0;stroke:none"
         opacity="1" /><line
         class="arc1"
         id="link73_@1_74"
         x1="663.14832"
         y1="255.76285"
         x2="688.19031"
         y2="227.08801" /><line
         class="arc0"
         id="link73_@0_67-3"
         x1="663.14832"
         y1="255.76285"
         x2="574.3316"
         y2="297.45026" /><line
         class="arc2"
         id="link34_@2_40"
         x1="856.8866"
         y1="498.89099"
         x2="857.7771"
         y2="505.34561" /><line
         class="arc0"
         id="link34_@0_35-0"
         x1="856.8866"
         y1="498.89099"
         x2="859.57025"
         y2="362.79291" /><line
         class="arc3"
         id="link6_@3_38"
         x1="821.40399"
         y1="557.73431"
         x2="827.36517"
         y2="552.73267" /><line
         class="arc0"
         id="link6_@0_5-9"
         x1="821.40399"
         y1="557.73431"
         x2="721.85223"
         y2="604.46045" /><line
         class="arc2"
         id="link38_@2_39"
         x1="827.36517"
         y1="552.73267"
         x2="836.30707"
         y2="544.50317" /><line
         class="arc0"
         id="link38_@0_44-2"
         x1="827.36517"
         y1="552.73267"
         x2="727.81348"
         y2="599.4588" /><line
         class="arc2"
         id="link80_@2_74"
         x1="703.29529"
         y1="226.75348"
         x2="688.19031"
         y2="227.08801" /><line
         class="arc0"
         id="link80_@0_81-5"
         x1="703.29529"
         y1="226.75348"
         x2="717.17853"
         y2="154.4696" /><line
         class="arc0"
         id="link74_@0_75-4"
         x1="688.19031"
         y1="227.08801"
         x2="702.07355"
         y2="154.80417" /><line
         class="arc3"
         id="link3_@3_8"
         x1="577.30261"
         y1="563.14081"
         x2="574.91571"
         y2="563.1593" /><line
         class="arc0"
         id="link3_@0_4-0"
         x1="577.30261"
         y1="563.14081"
         x2="687.86603"
         y2="605.2132" /><line
         class="arc2"
         id="link16_@2_10"
         x1="536.16772"
         y1="501.15924"
         x2="532.09058"
         y2="502.81543" /><line
         class="arc0"
         id="link16_@0_17-5"
         x1="536.16772"
         y1="501.15924"
         x2="536.16772"
         y2="373.59082" /><polygon
         points="836.30707,544.5032 857.7771,505.3456 863.14465,367.98782 852.4096,343.94617 800.54364,358.8165 784.4411,366.37448 720.65283,405.78827 712.8984,444.67642 718.26587,569.7255 736.7554,591.2293 "
         id="face_41_42_59_56_48_47_46_45_39_40"
         style="fill:#c0c0c0;stroke:none"
         opacity="1" /><line
         class="arc1"
         id="link40_@1_39"
         x1="857.7771"
         y1="505.34561"
         x2="836.30707"
         y2="544.50317" /><line
         class="arc0"
         id="link40_@0_41-9"
         x1="857.7771"
         y1="505.34561"
         x2="863.14465"
         y2="367.98782" /><line
         class="arc2"
         id="link8_@2_9"
         x1="574.91571"
         y1="563.1593"
         x2="569.84509"
         y2="563.22577" /><line
         class="arc0"
         id="link8_@0_50-4"
         x1="574.91571"
         y1="563.1593"
         x2="679.51788"
         y2="602.96326" /><line
         class="arc0"
         id="link39_@0_45-6"
         x1="836.30707"
         y1="544.50317"
         x2="736.75537"
         y2="591.22931" /><polygon
         points="590.94666,451.44922 590.94666,487.79956 544.6068,526.6801 532.0906,502.81543 532.0906,382.5171 544.6068,377.3015 "
         id="face_11_124_125_123_122_10-9"
         style="fill:#c0c0c0;stroke:none"
         opacity="1" /><line
         class="arc1"
         id="link10_@1_122"
         x1="532.09058"
         y1="502.81543"
         x2="544.60681"
         y2="526.68011" /><line
         class="arc0"
         id="link10_@0_11-2"
         x1="532.09058"
         y1="502.81543"
         x2="532.09058"
         y2="382.51709" /><polygon
         points="628.7011,511.85956 598.895,500.51752 552.5551,539.3981 569.8451,563.22577 668.486,600.76135 675.041,586.00726 "
         id="face_51_134_135_121_120_9-2"
         style="fill:#c0c0c0;stroke:none"
         opacity="1" /><line
         class="arc1"
         id="link9_@1_120"
         x1="569.84509"
         y1="563.22577"
         x2="552.55511"
         y2="539.39807" /><line
         class="arc0"
         id="link9_@0_51-4"
         x1="569.84509"
         y1="563.22577"
         x2="668.48602"
         y2="600.76135" /><line
         class="arc2"
         id="link122_@2_120"
         x1="544.60681"
         y1="526.68011"
         x2="552.55511"
         y2="539.39807" /><line
         class="arc0"
         id="link122_@0_123-7"
         x1="544.60681"
         y1="526.68011"
         x2="590.94666"
         y2="487.79956" /><line
         class="arc0"
         id="link120_@0_121-7"
         x1="552.55511"
         y1="539.39807"
         x2="598.89502"
         y2="500.51752" /><line
         class="arc1"
         id="link36_@1_35"
         x1="835.72534"
         y1="324.63901"
         x2="859.57025"
         y2="362.79291" /><line
         class="arc2"
         id="link36_@2_37"
         x1="835.72534"
         y1="324.63901"
         x2="830.95398"
         y2="316.4801" /><line
         class="arc2"
         id="link35_@2_41"
         x1="859.57025"
         y1="362.79291"
         x2="863.14465"
         y2="367.98782" /><line
         class="arc1"
         id="link37_@1_43"
         x1="830.95398"
         y1="316.4801"
         x2="844.0639"
         y2="330.59244" /><line
         class="arc3"
         id="link37_@3_84"
         x1="830.95398"
         y1="316.4801"
         x2="825.88574"
         y2="302.29233" /><line
         class="arc1"
         id="link18_@1_17"
         x1="560.61841"
         y1="331.93243"
         x2="536.16772"
         y2="373.59082" /><line
         class="arc2"
         id="link18_@2_19"
         x1="560.61841"
         y1="331.93243"
         x2="570.15637"
         y2="324.6568" /><line
         class="arc1"
         id="link84_@1_90"
         x1="825.88574"
         y1="302.29233"
         x2="838.99567"
         y2="316.40463" /><line
         class="arc2"
         id="link84_@2_85"
         x1="825.88574"
         y1="302.29233"
         x2="824.89307"
         y2="290.7005" /><line
         class="arc2"
         id="link17_@2_11"
         x1="536.16772"
         y1="373.59082"
         x2="532.09058"
         y2="382.51709" /><line
         class="arc1"
         id="link41_@1_42"
         x1="863.14465"
         y1="367.98782"
         x2="852.40961"
         y2="343.94617" /><line
         class="arc1"
         id="link85_@1_86"
         x1="824.89307"
         y1="290.7005"
         x2="828.4649"
         y2="272.10303" /><line
         class="arc1"
         id="link19_@1_13"
         x1="570.15637"
         y1="324.6568"
         x2="575.51184"
         y2="341.30692" /><line
         class="arc3"
         id="link19_@3_66"
         x1="570.15637"
         y1="324.6568"
         x2="576.41681"
         y2="310.21814" /><line
         class="arc1"
         id="link11_@1_124"
         x1="532.09058"
         y1="382.51709"
         x2="544.60681"
         y2="377.30151" /><line
         class="arc1"
         id="link67_@1_68"
         x1="574.3316"
         y1="297.45026"
         x2="577.90356"
         y2="278.85281" /><line
         class="arc2"
         id="link67_@2_66"
         x1="574.3316"
         y1="297.45026"
         x2="576.41681"
         y2="310.21814" /><line
         class="arc1"
         id="link66_@1_60"
         x1="576.41681"
         y1="310.21814"
         x2="578.79175"
         y2="329.36908" /><line
         class="arc2"
         id="link43_@2_42"
         x1="844.0639"
         y1="330.59244"
         x2="852.40961"
         y2="343.94617" /><line
         class="arc3"
         id="link43_@3_90"
         x1="844.0639"
         y1="330.59244"
         x2="838.99567"
         y2="316.40463" /><line
         class="arc0"
         id="link43_@0_58-5"
         x1="844.0639"
         y1="330.59244"
         x2="798.15924"
         y2="355.00125" /><line
         class="arc0"
         id="link42_@0_59-4"
         x1="852.40961"
         y1="343.94617"
         x2="800.54364"
         y2="358.8165" /><line
         class="arc1"
         id="link5_@1_4"
         x1="721.85223"
         y1="604.46045"
         x2="687.86603"
         y2="605.2132" /><line
         class="arc3"
         id="link5_@3_44"
         x1="721.85223"
         y1="604.46045"
         x2="727.81348"
         y2="599.4588" /><line
         class="arc2"
         id="link90_@2_91"
         x1="838.99567"
         y1="316.40463"
         x2="842.3728"
         y2="309.51688" /><line
         class="arc0"
         id="link90_@0_96-8"
         x1="838.99567"
         y1="316.40463"
         x2="798.45856"
         y2="345.56418" /><line
         class="arc3"
         id="link4_@3_50"
         x1="687.86603"
         y1="605.2132"
         x2="679.51788"
         y2="602.96326" /><line
         class="arc1"
         id="link123_@1_125"
         x1="590.94666"
         y1="487.79956"
         x2="590.94666"
         y2="451.44922" /><line
         class="arc2"
         id="link123_@2_121"
         x1="590.94666"
         y1="487.79956"
         x2="598.89502"
         y2="500.51752" /><line
         class="arc1"
         id="link121_@1_135"
         x1="598.89502"
         y1="500.51752"
         x2="628.70111"
         y2="511.85956" /><line
         class="arc1"
         id="link50_@1_44"
         x1="679.51788"
         y1="602.96326"
         x2="727.81348"
         y2="599.4588" /><line
         class="arc2"
         id="link50_@2_51"
         x1="679.51788"
         y1="602.96326"
         x2="668.48602"
         y2="600.76135" /><line
         class="arc2"
         id="link86_@2_92"
         x1="828.4649"
         y1="272.10303"
         x2="832.83496"
         y2="276.80713" /><line
         class="arc0"
         id="link86_@0_87-1"
         x1="828.4649"
         y1="272.10303"
         x2="749.66846"
         y2="164.55203" /><line
         class="arc2"
         id="link124_@2_126"
         x1="544.60681"
         y1="377.30151"
         x2="552.55511"
         y2="370.63269" /><line
         class="arc0"
         id="link124_@0_125-2"
         x1="544.60681"
         y1="377.30151"
         x2="590.94666"
         y2="451.44922" /><line
         class="arc2"
         id="link44_@2_45"
         x1="727.81348"
         y1="599.4588"
         x2="736.75537"
         y2="591.22931" /><polygon
         points="743.89716,179.08252 754.0384,169.2561 832.83496,276.80713 842.3728,309.51688 801.24194,333.88867 780.969,306.2176 "
         id="face_97_98_99_93_92_91-8"
         style="fill:#c0c0c0;stroke:none"
         opacity="1" /><line
         class="arc1"
         id="link91_@1_92"
         x1="842.3728"
         y1="309.51688"
         x2="832.83496"
         y2="276.80713" /><line
         class="arc0"
         id="link91_@0_97-9"
         x1="842.3728"
         y1="309.51688"
         x2="801.24194"
         y2="333.88867" /><line
         class="arc1"
         id="link51_@1_134"
         x1="668.48602"
         y1="600.76135"
         x2="675.04102"
         y2="586.00726" /><line
         class="arc0"
         id="link92_@0_93-3"
         x1="832.83496"
         y1="276.80713"
         x2="754.03839"
         y2="169.2561" /><line
         class="arc2"
         id="link125_@2_127"
         x1="590.94666"
         y1="451.44922"
         x2="598.89502"
         y2="444.7804" /><polygon
         points="675.041,417.24188 665.80225,389.63525 569.8451,350.84003 552.5551,370.6327 598.895,444.7804 628.7011,456.12244 "
         id="face_127_129_128_54_12_126"
         style="fill:#c0c0c0;stroke:none"
         opacity="1" /><line
         class="arc1"
         id="link126_@1_12"
         x1="552.55511"
         y1="370.63269"
         x2="569.84509"
         y2="350.84003" /><line
         class="arc0"
         id="link126_@0_127-6"
         x1="552.55511"
         y1="370.63269"
         x2="598.89502"
         y2="444.7804" /><line
         class="arc1"
         id="link45_@1_46"
         x1="736.75537"
         y1="591.22931"
         x2="718.26587"
         y2="569.72552" /><line
         class="arc2"
         id="link68_@2_62"
         x1="577.90356"
         y1="278.85281"
         x2="578.69519"
         y2="285.23645" /><line
         class="arc0"
         id="link68_@0_69-8"
         x1="577.90356"
         y1="278.85281"
         x2="675.23596"
         y2="167.40079" /><line
         class="arc2"
         id="link13_@2_12"
         x1="575.51184"
         y1="341.30692"
         x2="569.84509"
         y2="350.84003" /><line
         class="arc3"
         id="link13_@3_60"
         x1="575.51184"
         y1="341.30692"
         x2="578.79175"
         y2="329.36908" /><line
         class="arc0"
         id="link13_@0_55-0"
         x1="575.51184"
         y1="341.30692"
         x2="674.74652"
         y2="383.63025" /><line
         class="arc2"
         id="link60_@2_61"
         x1="578.79175"
         y1="329.36908"
         x2="577.49811"
         y2="322.98489" /><line
         class="arc0"
         id="link60_@0_114-2"
         x1="578.79175"
         y1="329.36908"
         x2="678.02637"
         y2="371.69241" /><line
         class="arc2"
         id="link135_@2_133"
         x1="628.70111"
         y1="511.85956"
         x2="636.64941"
         y2="505.19067" /><line
         class="arc0"
         id="link135_@0_134-1"
         x1="628.70111"
         y1="511.85956"
         x2="675.04102"
         y2="586.00726" /><line
         class="arc1"
         id="link127_@1_129"
         x1="598.89502"
         y1="444.7804"
         x2="628.70111"
         y2="456.12244" /><line
         class="arc0"
         id="link12_@0_54-0"
         x1="569.84509"
         y1="350.84003"
         x2="665.80225"
         y2="389.63525" /><polygon
         points="698.4973,333.10535 673.4553,361.78012 577.4981,322.9849 578.6952,285.23645 676.0276,173.78445 703.14996,186.38617 "
         id="face_63_117_116_115_61_62"
         style="fill:#c0c0c0;stroke:none"
         opacity="1" /><line
         class="arc1"
         id="link62_@1_61"
         x1="578.69519"
         y1="285.23645"
         x2="577.49811"
         y2="322.98489" /><line
         class="arc0"
         id="link62_@0_63-5"
         x1="578.69519"
         y1="285.23645"
         x2="676.02759"
         y2="173.78445" /><line
         class="arc0"
         id="link61_@0_115-1"
         x1="577.49811"
         y1="322.98489"
         x2="673.45532"
         y2="361.78012" /><polygon
         points="703.55664,450.04553 682.98926,429.95984 636.6494,468.8404 636.6494,505.19067 682.98926,579.33844 706.2404,569.08417 "
         id="face_132_52_53_130_131_133"
         style="fill:#c0c0c0;stroke:none"
         opacity="1" /><line
         class="arc1"
         id="link133_@1_131"
         x1="636.64941"
         y1="505.19067"
         x2="636.64941"
         y2="468.84039" /><line
         class="arc0"
         id="link133_@0_132-1"
         x1="636.64941"
         y1="505.19067"
         x2="682.98926"
         y2="579.33844" /><line
         class="arc2"
         id="link134_@2_132"
         x1="675.04102"
         y1="586.00726"
         x2="682.98926"
         y2="579.33844" /><line
         class="arc1"
         id="link81_@1_87"
         x1="717.17853"
         y1="154.4696"
         x2="749.66846"
         y2="164.55203" /><line
         class="arc2"
         id="link81_@2_75"
         x1="717.17853"
         y1="154.4696"
         x2="702.07355"
         y2="154.80417" /><line
         class="arc1"
         id="link75_@1_69"
         x1="702.07355"
         y1="154.80417"
         x2="675.23596"
         y2="167.40079" /><line
         class="arc1"
         id="link132_@1_52"
         x1="682.98926"
         y1="579.33844"
         x2="706.24042"
         y2="569.08417" /><line
         class="arc2"
         id="link129_@2_131"
         x1="628.70111"
         y1="456.12244"
         x2="636.64941"
         y2="468.84039" /><line
         class="arc0"
         id="link129_@0_128-0"
         x1="628.70111"
         y1="456.12244"
         x2="675.04102"
         y2="417.24188" /><line
         class="arc0"
         id="link131_@0_130-8"
         x1="636.64941"
         y1="468.84039"
         x2="682.98926"
         y2="429.95984" /><line
         class="arc2"
         id="link46_@2_52"
         x1="718.26587"
         y1="569.72552"
         x2="706.24042"
         y2="569.08417" /><line
         class="arc0"
         id="link46_@0_47-5"
         x1="718.26587"
         y1="569.72552"
         x2="712.89838"
         y2="444.67642" /><line
         class="arc1"
         id="link96_@1_102"
         x1="798.45856"
         y1="345.56418"
         x2="776.98846"
         y2="355.64148" /><line
         class="arc2"
         id="link96_@2_97"
         x1="798.45856"
         y1="345.56418"
         x2="801.24194"
         y2="333.88867" /><line
         class="arc3"
         id="link96_@3_58"
         x1="798.45856"
         y1="345.56418"
         x2="798.15924"
         y2="355.00125" /><line
         class="arc1"
         id="link97_@1_98"
         x1="801.24194"
         y1="333.88867"
         x2="780.96899"
         y2="306.21759" /><line
         class="arc1"
         id="link58_@1_57"
         x1="798.15924"
         y1="355.00125"
         x2="782.0567"
         y2="362.55923" /><line
         class="arc2"
         id="link58_@2_59"
         x1="798.15924"
         y1="355.00125"
         x2="800.54364"
         y2="358.8165" /><line
         class="arc1"
         id="link59_@1_56"
         x1="800.54364"
         y1="358.8165"
         x2="784.4411"
         y2="366.37448" /><line
         class="arc0"
         id="link52_@0_53-0"
         x1="706.24042"
         y1="569.08417"
         x2="703.55664"
         y2="450.04553" /><line
         class="arc2"
         id="link87_@2_93"
         x1="749.66846"
         y1="164.55203"
         x2="754.03839"
         y2="169.2561" /><line
         class="arc2"
         id="link69_@2_63"
         x1="675.23596"
         y1="167.40079"
         x2="676.02759"
         y2="173.78445" /><line
         class="arc2"
         id="link98_@2_104"
         x1="780.96899"
         y1="306.21759"
         x2="773.81232"
         y2="309.57669" /><line
         class="arc0"
         id="link98_@0_99-6"
         x1="780.96899"
         y1="306.21759"
         x2="743.89716"
         y2="179.08252" /><line
         class="arc2"
         id="link57_@2_56"
         x1="782.0567"
         y1="362.55923"
         x2="784.4411"
         y2="366.37448" /><line
         class="arc3"
         id="link57_@3_102"
         x1="782.0567"
         y1="362.55923"
         x2="776.98846"
         y2="355.64148" /><line
         class="arc0"
         id="link57_@0_49-4"
         x1="782.0567"
         y1="362.55923"
         x2="712.30713"
         y2="392.43448" /><line
         class="arc0"
         id="link56_@0_48-6"
         x1="784.4411"
         y1="366.37448"
         x2="720.65283"
         y2="405.78827" /><line
         class="arc1"
         id="link93_@1_99"
         x1="754.03839"
         y1="169.2561"
         x2="743.89716"
         y2="179.08252" /><line
         class="arc2"
         id="link102_@2_103"
         x1="776.98846"
         y1="355.64148"
         x2="772.61517"
         y2="347.3251" /><line
         class="arc0"
         id="link102_@0_108-2"
         x1="776.98846"
         y1="355.64148"
         x2="712.60638"
         y2="375.72739" /><polygon
         points="710.0239,334.45035 719.5619,367.1601 772.6152,347.3251 773.8123,309.5767 736.7404,182.44159 714.67664,187.73117 "
         id="face_105_111_110_109_103_104"
         style="fill:#c0c0c0;stroke:none"
         opacity="1" /><line
         class="arc1"
         id="link104_@1_103"
         x1="773.81232"
         y1="309.57669"
         x2="772.61517"
         y2="347.3251" /><line
         class="arc0"
         id="link104_@0_105-5"
         x1="773.81232"
         y1="309.57669"
         x2="736.74042"
         y2="182.44159" /><line
         class="arc1"
         id="link63_@1_117"
         x1="676.02759"
         y1="173.78445"
         x2="703.14996"
         y2="186.38617" /><line
         class="arc0"
         id="link103_@0_109-8"
         x1="772.61517"
         y1="347.3251"
         x2="719.56189"
         y2="367.1601" /><line
         class="arc2"
         id="link99_@2_105"
         x1="743.89716"
         y1="179.08252"
         x2="736.74042"
         y2="182.44159" /><line
         class="arc1"
         id="link105_@1_111"
         x1="736.74042"
         y1="182.44159"
         x2="714.67664"
         y2="187.73117" /><line
         class="arc1"
         id="link54_@1_128"
         x1="665.80225"
         y1="389.63525"
         x2="675.04102"
         y2="417.24188" /><line
         class="arc2"
         id="link54_@2_55"
         x1="665.80225"
         y1="389.63525"
         x2="674.74652"
         y2="383.63025" /><line
         class="arc1"
         id="link55_@1_49"
         x1="674.74652"
         y1="383.63025"
         x2="712.30713"
         y2="392.43448" /><line
         class="arc3"
         id="link55_@3_114"
         x1="674.74652"
         y1="383.63025"
         x2="678.02637"
         y2="371.69241" /><line
         class="arc2"
         id="link117_@2_111"
         x1="703.14996"
         y1="186.38617"
         x2="714.67664"
         y2="187.73117" /><line
         class="arc0"
         id="link117_@0_116-6"
         x1="703.14996"
         y1="186.38617"
         x2="698.49731"
         y2="333.10535" /><line
         class="arc2"
         id="link128_@2_130"
         x1="675.04102"
         y1="417.24188"
         x2="682.98926"
         y2="429.95984" /><line
         class="arc1"
         id="link114_@1_108"
         x1="678.02637"
         y1="371.69241"
         x2="712.60638"
         y2="375.72739" /><line
         class="arc2"
         id="link114_@2_115"
         x1="678.02637"
         y1="371.69241"
         x2="673.45532"
         y2="361.78012" /><line
         class="arc1"
         id="link130_@1_53"
         x1="682.98926"
         y1="429.95984"
         x2="703.55664"
         y2="450.04553" /><line
         class="arc0"
         id="link111_@0_110-2"
         x1="714.67664"
         y1="187.73117"
         x2="710.02393"
         y2="334.45035" /><line
         class="arc1"
         id="link115_@1_116"
         x1="673.45532"
         y1="361.78012"
         x2="698.49731"
         y2="333.10535" /><line
         class="arc1"
         id="link47_@1_48"
         x1="712.89838"
         y1="444.67642"
         x2="720.65283"
         y2="405.78827" /><line
         class="arc2"
         id="link47_@2_53"
         x1="712.89838"
         y1="444.67642"
         x2="703.55664"
         y2="450.04553" /><line
         class="arc2"
         id="link49_@2_48"
         x1="712.30713"
         y1="392.43448"
         x2="720.65283"
         y2="405.78827" /><line
         class="arc3"
         id="link49_@3_108"
         x1="712.30713"
         y1="392.43448"
         x2="712.60638"
         y2="375.72739" /><line
         class="arc2"
         id="link108_@2_109"
         x1="712.60638"
         y1="375.72739"
         x2="719.56189"
         y2="367.1601" /><line
         class="arc1"
         id="link109_@1_110"
         x1="719.56189"
         y1="367.1601"
         x2="710.02393"
         y2="334.45035" /><line
         class="arc2"
         id="link116_@2_110"
         x1="698.49731"
         y1="333.10535"
         x2="710.02393"
         y2="334.45035" /></g></g><style
     id="style">
		.arc0 {
			fill:none;
			fill-rule:evenodd;
			stroke:black;
			stroke-width:4;
			stroke-linecap:round;
			stroke-linejoin:round;
			stroke-opacity:1;
		}
		.arc1 {
			fill:none;
			fill-rule:evenodd;
			stroke:red;
			stroke-width:4;
			stroke-linecap:round;
			stroke-linejoin:round;
			stroke-opacity:1;
		}
		.arc2 {
			fill:none;
			fill-rule:evenodd;
			stroke:blue;
			stroke-width:4;
			stroke-linecap:round;
			stroke-linejoin:round;
			stroke-opacity:1;
		}
		.arc3 {
			fill:none;
			fill-rule:evenodd;
			stroke:green;
			stroke-width:4;
			stroke-linecap:round;
			stroke-linejoin:round;
			stroke-opacity:1;
		}
		.topological-dart {
			fill:#000000;
			stroke:#000000;
			stroke-width:0;
			stroke-linecap:round;
			stroke-linejoin:round;
			stroke-dasharray:none;
			paint-order:markers fill stroke;
		}
	</style><style
     id="style-6">
		.arc0 {
			fill:none;
			fill-rule:evenodd;
			stroke:black;
			stroke-width:4;
			stroke-linecap:round;
			stroke-linejoin:round;
			stroke-opacity:1;
		}
		.arc1 {
			fill:none;
			fill-rule:evenodd;
			stroke:red;
			stroke-width:4;
			stroke-linecap:round;
			stroke-linejoin:round;
			stroke-opacity:1;
		}
		.arc2 {
			fill:none;
			fill-rule:evenodd;
			stroke:blue;
			stroke-width:4;
			stroke-linecap:round;
			stroke-linejoin:round;
			stroke-opacity:1;
		}
		.arc3 {
			fill:none;
			fill-rule:evenodd;
			stroke:green;
			stroke-width:4;
			stroke-linecap:round;
			stroke-linejoin:round;
			stroke-opacity:1;
		}
		.topological-dart {
			fill:#000000;
			stroke:#000000;
			stroke-width:0;
			stroke-linecap:round;
			stroke-linejoin:round;
			stroke-dasharray:none;
			paint-order:markers fill stroke;
		}
	</style></svg>
