<?xml version="1.0" encoding="UTF-8" standalone="no"?>
<!-- Created with Jerboa -->

<svg
	width="1422"
	height="665" >
	<style id="style">
		.arc0 {
			fill:none;
			fill-rule:evenodd;
			stroke:black;
			stroke-width:4;
			stroke-linecap:round;
			stroke-linejoin:round;
			stroke-opacity:1;
		}
		.arc1 {
			fill:none;
			fill-rule:evenodd;
			stroke:red;
			stroke-width:4;
			stroke-linecap:round;
			stroke-linejoin:round;
			stroke-opacity:1;
		}
		.arc2 {
			fill:none;
			fill-rule:evenodd;
			stroke:blue;
			stroke-width:4;
			stroke-linecap:round;
			stroke-linejoin:round;
			stroke-opacity:1;
		}
		.arc3 {
			fill:none;
			fill-rule:evenodd;
			stroke:green;
			stroke-width:4;
			stroke-linecap:round;
			stroke-linejoin:round;
			stroke-opacity:1;
		}
		.topological-dart {
			fill:#000000;
			stroke:#000000;
			stroke-width:0;
			stroke-linecap:round;
			stroke-linejoin:round;
			stroke-dasharray:none;
			paint-order:markers fill stroke;
		}
	</style>
<polygon
	points="672.61127,472.08383 861.3505,527.85846 861.3505,527.85846 724.2234,604.6257 724.2234,604.6257 535.48413,548.851 535.48413,548.851 672.61127,472.08383 "
	id="face_7_6_5_4_3_2_1_0"
	style="fill:rgb(192,192,192);stroke:none"
	opacity="1.0" />
<line
	class="arc0"
	id="link0_@0_7"
	x1="672.61127"
	y1="472.08383"
	x2="861.3505"
	y2="527.85846" />
<line
	class="arc0"
	id="link1_@0_2"
	x1="672.61127"
	y1="472.08383"
	x2="535.48413"
	y2="548.851" />
<polygon
	points="672.61127,472.08383 535.48413,548.851 535.48413,548.851 724.2234,604.6257 724.2234,604.6257 861.3505,527.85846 861.3505,527.85846 672.61127,472.08383 "
	id="face_14_8_50_44_38_32_26_20"
	style="fill:rgb(192,192,192);stroke:none"
	opacity="1.0" />
<line
	class="arc0"
	id="link20_@0_14"
	x1="672.61127"
	y1="472.08383"
	x2="535.48413"
	y2="548.851" />
<polygon
	points="672.61127,472.08383 535.48413,548.851 535.48413,548.851 535.48413,335.72583 535.48413,335.72583 672.61127,258.95862 672.61127,258.95862 672.61127,472.08383 "
	id="face_15_16_17_18_24_23_22_21"
	style="fill:rgb(192,192,192);stroke:none"
	opacity="1.0" />
<line
	class="arc0"
	id="link21_@0_15"
	x1="672.61127"
	y1="472.08383"
	x2="535.48413"
	y2="548.851" />
<line
	class="arc0"
	id="link22_@0_23"
	x1="672.61127"
	y1="472.08383"
	x2="672.61127"
	y2="258.95862" />
<line
	class="arc0"
	id="link26_@0_32"
	x1="672.61127"
	y1="472.08383"
	x2="861.3505"
	y2="527.85846" />
<polygon
	points="672.61127,472.08383 861.3505,527.85846 861.3505,527.85846 861.3505,314.73328 861.3505,314.73328 672.61127,258.95862 672.61127,258.95862 672.61127,472.08383 "
	id="face_33_34_35_36_30_29_28_27"
	style="fill:rgb(192,192,192);stroke:none"
	opacity="1.0" />
<line
	class="arc0"
	id="link27_@0_33"
	x1="672.61127"
	y1="472.08383"
	x2="861.3505"
	y2="527.85846" />
<line
	class="arc0"
	id="link28_@0_29"
	x1="672.61127"
	y1="472.08383"
	x2="672.61127"
	y2="258.95862" />
<line
	class="arc0"
	id="link24_@0_18"
	x1="672.61127"
	y1="258.95862"
	x2="535.48413"
	y2="335.72583" />
<polygon
	points="672.61127,258.95862 535.48413,335.72583 535.48413,335.72583 724.2234,391.50046 724.2234,391.50046 792.787,353.11685 792.787,353.11685 861.3505,314.73328 861.3505,314.73328 672.61127,258.95862 "
	id="face_19_13_55_49_57_58_43_37_31_25"
	style="fill:rgb(192,192,192);stroke:none"
	opacity="1.0" />
<line
	class="arc0"
	id="link25_@0_19"
	x1="672.61127"
	y1="258.95862"
	x2="535.48413"
	y2="335.72583" />
<line
	class="arc0"
	id="link30_@0_36"
	x1="672.61127"
	y1="258.95862"
	x2="861.3505"
	y2="314.73328" />
<line
	class="arc0"
	id="link31_@0_37"
	x1="672.61127"
	y1="258.95862"
	x2="861.3505"
	y2="314.73328" />
<polygon
	points="672.61127,258.95862 535.48413,335.72583 535.48413,335.72583 724.2234,391.50046 724.2234,391.50046 792.787,353.11685 792.787,353.11685 861.3505,314.73328 861.3505,314.73328 672.61127,258.95862 "
	id="face_66_60_114_108_102_96_90_84_78_72"
	style="fill:rgb(192,192,192);stroke:none"
	opacity="1.0" />
<line
	class="arc0"
	id="link72_@0_66"
	x1="672.61127"
	y1="258.95862"
	x2="535.48413"
	y2="335.72583" />
<polygon
	points="672.61127,258.95862 535.48413,335.72583 535.48413,335.72583 535.48413,122.600586 535.48413,122.600586 672.61127,45.833435 672.61127,45.833435 672.61127,258.95862 "
	id="face_67_68_69_70_76_75_74_73"
	style="fill:rgb(192,192,192);stroke:none"
	opacity="1.0" />
<line
	class="arc0"
	id="link73_@0_67"
	x1="672.61127"
	y1="258.95862"
	x2="535.48413"
	y2="335.72583" />
<line
	class="arc0"
	id="link74_@0_75"
	x1="672.61127"
	y1="258.95862"
	x2="672.61127"
	y2="45.833435" />
<line
	class="arc0"
	id="link78_@0_84"
	x1="672.61127"
	y1="258.95862"
	x2="861.3505"
	y2="314.73328" />
<polygon
	points="672.61127,258.95862 861.3505,314.73328 861.3505,314.73328 861.3505,101.60803 861.3505,101.60803 672.61127,45.833435 672.61127,45.833435 672.61127,258.95862 "
	id="face_85_86_87_88_82_81_80_79"
	style="fill:rgb(192,192,192);stroke:none"
	opacity="1.0" />
<line
	class="arc0"
	id="link79_@0_85"
	x1="672.61127"
	y1="258.95862"
	x2="861.3505"
	y2="314.73328" />
<line
	class="arc0"
	id="link80_@0_81"
	x1="672.61127"
	y1="258.95862"
	x2="672.61127"
	y2="45.833435" />
<line
	class="arc0"
	id="link6_@0_5"
	x1="861.3505"
	y1="527.85846"
	x2="724.2234"
	y2="604.6257" />
<line
	class="arc0"
	id="link34_@0_35"
	x1="861.3505"
	y1="527.85846"
	x2="861.3505"
	y2="314.73328" />
<line
	class="arc0"
	id="link38_@0_44"
	x1="861.3505"
	y1="527.85846"
	x2="724.2234"
	y2="604.6257" />
<polygon
	points="861.3505,527.85846 724.2234,604.6257 724.2234,604.6257 724.2234,391.50046 724.2234,391.50046 792.787,353.11685 792.787,353.11685 861.3505,314.73328 861.3505,314.73328 861.3505,527.85846 "
	id="face_45_46_47_48_56_59_42_41_40_39"
	style="fill:rgb(192,192,192);stroke:none"
	opacity="1.0" />
<line
	class="arc0"
	id="link39_@0_45"
	x1="861.3505"
	y1="527.85846"
	x2="724.2234"
	y2="604.6257" />
<line
	class="arc0"
	id="link40_@0_41"
	x1="861.3505"
	y1="527.85846"
	x2="861.3505"
	y2="314.73328" />
<line
	class="arc0"
	id="link3_@0_4"
	x1="535.48413"
	y1="548.851"
	x2="724.2234"
	y2="604.6257" />
<line
	class="arc0"
	id="link8_@0_50"
	x1="535.48413"
	y1="548.851"
	x2="724.2234"
	y2="604.6257" />
<polygon
	points="535.48413,548.851 724.2234,604.6257 724.2234,604.6257 724.2234,391.50046 724.2234,391.50046 535.48413,335.72583 535.48413,335.72583 535.48413,548.851 "
	id="face_51_52_53_54_12_11_10_9"
	style="fill:rgb(192,192,192);stroke:none"
	opacity="1.0" />
<line
	class="arc0"
	id="link9_@0_51"
	x1="535.48413"
	y1="548.851"
	x2="724.2234"
	y2="604.6257" />
<line
	class="arc0"
	id="link10_@0_11"
	x1="535.48413"
	y1="548.851"
	x2="535.48413"
	y2="335.72583" />
<line
	class="arc0"
	id="link16_@0_17"
	x1="535.48413"
	y1="548.851"
	x2="535.48413"
	y2="335.72583" />
<line
	class="arc0"
	id="link76_@0_70"
	x1="672.61127"
	y1="45.833435"
	x2="535.48413"
	y2="122.600586" />
<polygon
	points="672.61127,45.833435 535.48413,122.600586 535.48413,122.600586 724.2234,178.37527 724.2234,178.37527 792.787,139.99164 792.787,139.99164 861.3505,101.60803 861.3505,101.60803 672.61127,45.833435 "
	id="face_71_65_119_113_107_101_95_89_83_77"
	style="fill:rgb(192,192,192);stroke:none"
	opacity="1.0" />
<line
	class="arc0"
	id="link77_@0_71"
	x1="672.61127"
	y1="45.833435"
	x2="535.48413"
	y2="122.600586" />
<line
	class="arc0"
	id="link82_@0_88"
	x1="672.61127"
	y1="45.833435"
	x2="861.3505"
	y2="101.60803" />
<line
	class="arc0"
	id="link83_@0_89"
	x1="672.61127"
	y1="45.833435"
	x2="861.3505"
	y2="101.60803" />
<line
	class="arc0"
	id="link42_@0_59"
	x1="861.3505"
	y1="314.73328"
	x2="792.787"
	y2="353.11685" />
<line
	class="arc0"
	id="link43_@0_58"
	x1="861.3505"
	y1="314.73328"
	x2="792.787"
	y2="353.11685" />
<line
	class="arc0"
	id="link86_@0_87"
	x1="861.3505"
	y1="314.73328"
	x2="861.3505"
	y2="101.60803" />
<line
	class="arc0"
	id="link90_@0_96"
	x1="861.3505"
	y1="314.73328"
	x2="792.787"
	y2="353.11685" />
<polygon
	points="861.3505,314.73328 792.787,353.11685 792.787,353.11685 792.787,139.99164 792.787,139.99164 861.3505,101.60803 861.3505,101.60803 861.3505,314.73328 "
	id="face_97_98_99_100_94_93_92_91"
	style="fill:rgb(192,192,192);stroke:none"
	opacity="1.0" />
<line
	class="arc0"
	id="link91_@0_97"
	x1="861.3505"
	y1="314.73328"
	x2="792.787"
	y2="353.11685" />
<line
	class="arc0"
	id="link92_@0_93"
	x1="861.3505"
	y1="314.73328"
	x2="861.3505"
	y2="101.60803" />
<line
	class="arc0"
	id="link12_@0_54"
	x1="535.48413"
	y1="335.72583"
	x2="724.2234"
	y2="391.50046" />
<line
	class="arc0"
	id="link13_@0_55"
	x1="535.48413"
	y1="335.72583"
	x2="724.2234"
	y2="391.50046" />
<line
	class="arc0"
	id="link60_@0_114"
	x1="535.48413"
	y1="335.72583"
	x2="724.2234"
	y2="391.50046" />
<polygon
	points="535.48413,335.72583 724.2234,391.50046 724.2234,391.50046 724.2234,178.37527 724.2234,178.37527 535.48413,122.600586 535.48413,122.600586 535.48413,335.72583 "
	id="face_115_116_117_118_64_63_62_61"
	style="fill:rgb(192,192,192);stroke:none"
	opacity="1.0" />
<line
	class="arc0"
	id="link61_@0_115"
	x1="535.48413"
	y1="335.72583"
	x2="724.2234"
	y2="391.50046" />
<line
	class="arc0"
	id="link62_@0_63"
	x1="535.48413"
	y1="335.72583"
	x2="535.48413"
	y2="122.600586" />
<line
	class="arc0"
	id="link68_@0_69"
	x1="535.48413"
	y1="335.72583"
	x2="535.48413"
	y2="122.600586" />
<line
	class="arc0"
	id="link46_@0_47"
	x1="724.2234"
	y1="604.6257"
	x2="724.2234"
	y2="391.50046" />
<line
	class="arc0"
	id="link52_@0_53"
	x1="724.2234"
	y1="604.6257"
	x2="724.2234"
	y2="391.50046" />
<line
	class="arc0"
	id="link56_@0_48"
	x1="792.787"
	y1="353.11685"
	x2="724.2234"
	y2="391.50046" />
<line
	class="arc0"
	id="link57_@0_49"
	x1="792.787"
	y1="353.11685"
	x2="724.2234"
	y2="391.50046" />
<line
	class="arc0"
	id="link98_@0_99"
	x1="792.787"
	y1="353.11685"
	x2="792.787"
	y2="139.99164" />
<line
	class="arc0"
	id="link102_@0_108"
	x1="792.787"
	y1="353.11685"
	x2="724.2234"
	y2="391.50046" />
<polygon
	points="792.787,353.11685 724.2234,391.50046 724.2234,391.50046 724.2234,178.37527 724.2234,178.37527 792.787,139.99164 792.787,139.99164 792.787,353.11685 "
	id="face_109_110_111_112_106_105_104_103"
	style="fill:rgb(192,192,192);stroke:none"
	opacity="1.0" />
<line
	class="arc0"
	id="link103_@0_109"
	x1="792.787"
	y1="353.11685"
	x2="724.2234"
	y2="391.50046" />
<line
	class="arc0"
	id="link104_@0_105"
	x1="792.787"
	y1="353.11685"
	x2="792.787"
	y2="139.99164" />
<line
	class="arc0"
	id="link94_@0_100"
	x1="861.3505"
	y1="101.60803"
	x2="792.787"
	y2="139.99164" />
<line
	class="arc0"
	id="link95_@0_101"
	x1="861.3505"
	y1="101.60803"
	x2="792.787"
	y2="139.99164" />
<line
	class="arc0"
	id="link64_@0_118"
	x1="535.48413"
	y1="122.600586"
	x2="724.2234"
	y2="178.37527" />
<line
	class="arc0"
	id="link65_@0_119"
	x1="535.48413"
	y1="122.600586"
	x2="724.2234"
	y2="178.37527" />
<line
	class="arc0"
	id="link110_@0_111"
	x1="724.2234"
	y1="391.50046"
	x2="724.2234"
	y2="178.37527" />
<line
	class="arc0"
	id="link116_@0_117"
	x1="724.2234"
	y1="391.50046"
	x2="724.2234"
	y2="178.37527" />
<line
	class="arc0"
	id="link106_@0_112"
	x1="792.787"
	y1="139.99164"
	x2="724.2234"
	y2="178.37527" />
<line
	class="arc0"
	id="link107_@0_113"
	x1="792.787"
	y1="139.99164"
	x2="724.2234"
	y2="178.37527" />
</svg>
