<?xml version="1.0" encoding="UTF-8" standalone="no"?>
<!-- Created with Jerboa -->

<svg
	width="1422"
	height="665" >
	<style id="style">
		.arc0 {
			fill:none;
			fill-rule:evenodd;
			stroke:black;
			stroke-width:4;
			stroke-linecap:round;
			stroke-linejoin:round;
			stroke-opacity:1;
		}
		.arc1 {
			fill:none;
			fill-rule:evenodd;
			stroke:red;
			stroke-width:4;
			stroke-linecap:round;
			stroke-linejoin:round;
			stroke-opacity:1;
		}
		.arc2 {
			fill:none;
			fill-rule:evenodd;
			stroke:blue;
			stroke-width:4;
			stroke-linecap:round;
			stroke-linejoin:round;
			stroke-opacity:1;
		}
		.arc3 {
			fill:none;
			fill-rule:evenodd;
			stroke:green;
			stroke-width:4;
			stroke-linecap:round;
			stroke-linejoin:round;
			stroke-opacity:1;
		}
		.topological-dart {
			fill:#000000;
			stroke:#000000;
			stroke-width:0;
			stroke-linecap:round;
			stroke-linejoin:round;
			stroke-dasharray:none;
			paint-order:markers fill stroke;
		}
	</style>
<polygon
	points="722.17834,281.7856 722.17834,94.77551 757.29016,65.50305 922.90247,114.44336 958.0142,164.46768 958.0142,351.47787 922.90247,380.7503 757.29016,331.80997 "
	id="face_29_30_36_35_34_33_27_28"
	style="fill:rgb(192,192,192);stroke:none"
	opacity="1.0" />
<line
	class="arc1"
	id="link28_@1_27"
	x1="722.17834"
	y1="281.7856"
	x2="757.29016"
	y2="331.80997" />
<line
	class="arc2"
	id="link28_@2_22"
	x1="722.17834"
	y1="281.7856"
	x2="707.0228"
	y2="282.76196" />
<line
	class="arc0"
	id="link28_@0_29"
	x1="722.17834"
	y1="281.7856"
	x2="722.17834"
	y2="94.77551" />
<polygon
	points="707.0228,282.76196 707.0228,95.75177 681.51263,70.384705 561.18823,137.7453 535.67804,191.67493 535.67804,378.6851 561.18823,404.0522 681.51263,336.6916 "
	id="face_23_24_18_17_16_15_21_22"
	style="fill:rgb(192,192,192);stroke:none"
	opacity="1.0" />
<line
	class="arc1"
	id="link22_@1_21"
	x1="707.0228"
	y1="282.76196"
	x2="681.51263"
	y2="336.6916" />
<line
	class="arc0"
	id="link22_@0_23"
	x1="707.0228"
	y1="282.76196"
	x2="707.0228"
	y2="95.75177" />
<line
	class="arc2"
	id="link27_@2_26"
	x1="757.29016"
	y1="331.80997"
	x2="750.9126"
	y2="345.29236" />
<line
	class="arc0"
	id="link27_@0_33"
	x1="757.29016"
	y1="331.80997"
	x2="922.90247"
	y2="380.7503" />
<polygon
	points="750.9126,345.29236 916.52496,394.2327 926.1265,418.8899 805.8021,486.25052 745.1801,490.15582 579.56775,441.21548 569.9662,416.5583 690.2906,349.1977 "
	id="face_32_38_44_50_8_14_20_26"
	style="fill:rgb(192,192,192);stroke:none"
	opacity="1.0" />
<line
	class="arc1"
	id="link26_@1_20"
	x1="750.9126"
	y1="345.29236"
	x2="690.2906"
	y2="349.1977" />
<line
	class="arc3"
	id="link26_@3_0"
	x1="750.9126"
	y1="345.29236"
	x2="744.53503"
	y2="358.77475" />
<line
	class="arc0"
	id="link26_@0_32"
	x1="750.9126"
	y1="345.29236"
	x2="916.52496"
	y2="394.2327" />
<polygon
	points="744.53503,358.77475 910.14734,407.7151 917.3486,426.208 797.0242,493.5686 751.5576,496.49762 585.9453,447.55725 578.74414,429.06433 699.06854,361.70377 "
	id="face_7_6_5_4_3_2_1_0"
	style="fill:rgb(192,192,192);stroke:none"
	opacity="1.0" />
<line
	class="arc1"
	id="link0_@1_1"
	x1="744.53503"
	y1="358.77475"
	x2="699.06854"
	y2="361.70377" />
<line
	class="arc0"
	id="link0_@0_7"
	x1="744.53503"
	y1="358.77475"
	x2="910.14734"
	y2="407.7151" />
<line
	class="arc2"
	id="link21_@2_20"
	x1="681.51263"
	y1="336.6916"
	x2="690.2906"
	y2="349.1977" />
<line
	class="arc0"
	id="link21_@0_15"
	x1="681.51263"
	y1="336.6916"
	x2="561.18823"
	y2="404.0522" />
<line
	class="arc3"
	id="link20_@3_1"
	x1="690.2906"
	y1="349.1977"
	x2="699.06854"
	y2="361.70377" />
<line
	class="arc0"
	id="link20_@0_14"
	x1="690.2906"
	y1="349.1977"
	x2="569.9662"
	y2="416.5583" />
<line
	class="arc0"
	id="link1_@0_2"
	x1="699.06854"
	y1="361.70377"
	x2="578.74414"
	y2="429.06433" />
<line
	class="arc1"
	id="link29_@1_30"
	x1="722.17834"
	y1="94.77551"
	x2="757.29016"
	y2="65.50305" />
<line
	class="arc2"
	id="link29_@2_23"
	x1="722.17834"
	y1="94.77551"
	x2="707.0228"
	y2="95.75177" />
<line
	class="arc1"
	id="link23_@1_24"
	x1="707.0228"
	y1="95.75177"
	x2="681.51263"
	y2="70.384705" />
<line
	class="arc1"
	id="link33_@1_34"
	x1="922.90247"
	y1="380.7503"
	x2="958.0142"
	y2="351.47787" />
<line
	class="arc2"
	id="link33_@2_32"
	x1="922.90247"
	y1="380.7503"
	x2="916.52496"
	y2="394.2327" />
<line
	class="arc1"
	id="link32_@1_38"
	x1="916.52496"
	y1="394.2327"
	x2="926.1265"
	y2="418.8899" />
<line
	class="arc3"
	id="link32_@3_7"
	x1="916.52496"
	y1="394.2327"
	x2="910.14734"
	y2="407.7151" />
<line
	class="arc1"
	id="link7_@1_6"
	x1="910.14734"
	y1="407.7151"
	x2="917.3486"
	y2="426.208" />
<line
	class="arc2"
	id="link30_@2_31"
	x1="757.29016"
	y1="65.50305"
	x2="750.9126"
	y2="59.161316" />
<line
	class="arc0"
	id="link30_@0_36"
	x1="757.29016"
	y1="65.50305"
	x2="922.90247"
	y2="114.44336" />
<line
	class="arc2"
	id="link24_@2_25"
	x1="681.51263"
	y1="70.384705"
	x2="690.2906"
	y2="63.06659" />
<line
	class="arc0"
	id="link24_@0_18"
	x1="681.51263"
	y1="70.384705"
	x2="561.18823"
	y2="137.7453" />
<polygon
	points="750.9126,59.161316 916.52496,108.10162 926.1265,132.75885 805.8021,200.11945 745.1801,204.02478 579.56775,155.08444 569.9662,130.42725 690.2906,63.06659 "
	id="face_37_43_49_55_13_19_25_31"
	style="fill:rgb(192,192,192);stroke:none"
	opacity="1.0" />
<line
	class="arc1"
	id="link31_@1_25"
	x1="750.9126"
	y1="59.161316"
	x2="690.2906"
	y2="63.06659" />
<line
	class="arc0"
	id="link31_@0_37"
	x1="750.9126"
	y1="59.161316"
	x2="916.52496"
	y2="108.10162" />
<line
	class="arc0"
	id="link25_@0_19"
	x1="690.2906"
	y1="63.06659"
	x2="569.9662"
	y2="130.42725" />
<line
	class="arc2"
	id="link34_@2_40"
	x1="958.0142"
	y1="351.47787"
	x2="960.4146"
	y2="357.64215" />
<line
	class="arc0"
	id="link34_@0_35"
	x1="958.0142"
	y1="351.47787"
	x2="958.0142"
	y2="164.46768" />
<line
	class="arc3"
	id="link6_@3_38"
	x1="917.3486"
	y1="426.208"
	x2="926.1265"
	y2="418.8899" />
<line
	class="arc0"
	id="link6_@0_5"
	x1="917.3486"
	y1="426.208"
	x2="797.0242"
	y2="493.5686" />
<line
	class="arc1"
	id="link15_@1_16"
	x1="561.18823"
	y1="404.0522"
	x2="535.67804"
	y2="378.6851" />
<line
	class="arc2"
	id="link15_@2_14"
	x1="561.18823"
	y1="404.0522"
	x2="569.9662"
	y2="416.5583" />
<line
	class="arc1"
	id="link14_@1_8"
	x1="569.9662"
	y1="416.5583"
	x2="579.56775"
	y2="441.21548" />
<line
	class="arc3"
	id="link14_@3_2"
	x1="569.9662"
	y1="416.5583"
	x2="578.74414"
	y2="429.06433" />
<polygon
	points="960.4146,357.64215 960.4146,170.63199 934.9044,145.26483 814.5801,212.62549 789.0698,266.5551 789.0698,453.56525 814.5801,478.93237 934.9044,411.57178 "
	id="face_41_42_48_47_46_45_39_40"
	style="fill:rgb(192,192,192);stroke:none"
	opacity="1.0" />
<line
	class="arc1"
	id="link40_@1_39"
	x1="960.4146"
	y1="357.64215"
	x2="934.9044"
	y2="411.57178" />
<line
	class="arc0"
	id="link40_@0_41"
	x1="960.4146"
	y1="357.64215"
	x2="960.4146"
	y2="170.63199" />
<line
	class="arc1"
	id="link2_@1_3"
	x1="578.74414"
	y1="429.06433"
	x2="585.9453"
	y2="447.55725" />
<line
	class="arc2"
	id="link38_@2_39"
	x1="926.1265"
	y1="418.8899"
	x2="934.9044"
	y2="411.57178" />
<line
	class="arc0"
	id="link38_@0_44"
	x1="926.1265"
	y1="418.8899"
	x2="805.8021"
	y2="486.25052" />
<line
	class="arc0"
	id="link39_@0_45"
	x1="934.9044"
	y1="411.57178"
	x2="814.5801"
	y2="478.93237" />
<line
	class="arc3"
	id="link3_@3_8"
	x1="585.9453"
	y1="447.55725"
	x2="579.56775"
	y2="441.21548" />
<line
	class="arc0"
	id="link3_@0_4"
	x1="585.9453"
	y1="447.55725"
	x2="751.5576"
	y2="496.49762" />
<line
	class="arc2"
	id="link16_@2_10"
	x1="535.67804"
	y1="378.6851"
	x2="538.0784"
	y2="384.84937" />
<line
	class="arc0"
	id="link16_@0_17"
	x1="535.67804"
	y1="378.6851"
	x2="535.67804"
	y2="191.67493" />
<line
	class="arc2"
	id="link8_@2_9"
	x1="579.56775"
	y1="441.21548"
	x2="573.19025"
	y2="434.8737" />
<line
	class="arc0"
	id="link8_@0_50"
	x1="579.56775"
	y1="441.21548"
	x2="745.1801"
	y2="490.15582" />
<polygon
	points="538.0784,384.84937 538.0784,197.8392 573.19025,168.5668 738.8026,217.50711 773.91437,267.53143 773.91437,454.54163 738.8026,483.81403 573.19025,434.8737 "
	id="face_11_12_54_53_52_51_9_10"
	style="fill:rgb(192,192,192);stroke:none"
	opacity="1.0" />
<line
	class="arc1"
	id="link10_@1_9"
	x1="538.0784"
	y1="384.84937"
	x2="573.19025"
	y2="434.8737" />
<line
	class="arc0"
	id="link10_@0_11"
	x1="538.0784"
	y1="384.84937"
	x2="538.0784"
	y2="197.8392" />
<line
	class="arc1"
	id="link36_@1_35"
	x1="922.90247"
	y1="114.44336"
	x2="958.0142"
	y2="164.46768" />
<line
	class="arc2"
	id="link36_@2_37"
	x1="922.90247"
	y1="114.44336"
	x2="916.52496"
	y2="108.10162" />
<line
	class="arc0"
	id="link9_@0_51"
	x1="573.19025"
	y1="434.8737"
	x2="738.8026"
	y2="483.81403" />
<line
	class="arc2"
	id="link35_@2_41"
	x1="958.0142"
	y1="164.46768"
	x2="960.4146"
	y2="170.63199" />
<line
	class="arc1"
	id="link37_@1_43"
	x1="916.52496"
	y1="108.10162"
	x2="926.1265"
	y2="132.75885" />
<line
	class="arc1"
	id="link41_@1_42"
	x1="960.4146"
	y1="170.63199"
	x2="934.9044"
	y2="145.26483" />
<line
	class="arc1"
	id="link18_@1_17"
	x1="561.18823"
	y1="137.7453"
	x2="535.67804"
	y2="191.67493" />
<line
	class="arc2"
	id="link18_@2_19"
	x1="561.18823"
	y1="137.7453"
	x2="569.9662"
	y2="130.42725" />
<line
	class="arc1"
	id="link19_@1_13"
	x1="569.9662"
	y1="130.42725"
	x2="579.56775"
	y2="155.08444" />
<line
	class="arc2"
	id="link17_@2_11"
	x1="535.67804"
	y1="191.67493"
	x2="538.0784"
	y2="197.8392" />
<line
	class="arc2"
	id="link43_@2_42"
	x1="926.1265"
	y1="132.75885"
	x2="934.9044"
	y2="145.26483" />
<line
	class="arc0"
	id="link43_@0_49"
	x1="926.1265"
	y1="132.75885"
	x2="805.8021"
	y2="200.11945" />
<line
	class="arc0"
	id="link42_@0_48"
	x1="934.9044"
	y1="145.26483"
	x2="814.5801"
	y2="212.62549" />
<line
	class="arc1"
	id="link11_@1_12"
	x1="538.0784"
	y1="197.8392"
	x2="573.19025"
	y2="168.5668" />
<line
	class="arc1"
	id="link5_@1_4"
	x1="797.0242"
	y1="493.5686"
	x2="751.5576"
	y2="496.49762" />
<line
	class="arc3"
	id="link5_@3_44"
	x1="797.0242"
	y1="493.5686"
	x2="805.8021"
	y2="486.25052" />
<line
	class="arc3"
	id="link4_@3_50"
	x1="751.5576"
	y1="496.49762"
	x2="745.1801"
	y2="490.15582" />
<line
	class="arc1"
	id="link44_@1_50"
	x1="805.8021"
	y1="486.25052"
	x2="745.1801"
	y2="490.15582" />
<line
	class="arc2"
	id="link44_@2_45"
	x1="805.8021"
	y1="486.25052"
	x2="814.5801"
	y2="478.93237" />
<line
	class="arc2"
	id="link50_@2_51"
	x1="745.1801"
	y1="490.15582"
	x2="738.8026"
	y2="483.81403" />
<line
	class="arc1"
	id="link45_@1_46"
	x1="814.5801"
	y1="478.93237"
	x2="789.0698"
	y2="453.56525" />
<line
	class="arc1"
	id="link51_@1_52"
	x1="738.8026"
	y1="483.81403"
	x2="773.91437"
	y2="454.54163" />
<line
	class="arc2"
	id="link13_@2_12"
	x1="579.56775"
	y1="155.08444"
	x2="573.19025"
	y2="168.5668" />
<line
	class="arc0"
	id="link13_@0_55"
	x1="579.56775"
	y1="155.08444"
	x2="745.1801"
	y2="204.02478" />
<line
	class="arc0"
	id="link12_@0_54"
	x1="573.19025"
	y1="168.5668"
	x2="738.8026"
	y2="217.50711" />
<line
	class="arc2"
	id="link46_@2_52"
	x1="789.0698"
	y1="453.56525"
	x2="773.91437"
	y2="454.54163" />
<line
	class="arc0"
	id="link46_@0_47"
	x1="789.0698"
	y1="453.56525"
	x2="789.0698"
	y2="266.5551" />
<line
	class="arc0"
	id="link52_@0_53"
	x1="773.91437"
	y1="454.54163"
	x2="773.91437"
	y2="267.53143" />
<line
	class="arc1"
	id="link49_@1_55"
	x1="805.8021"
	y1="200.11945"
	x2="745.1801"
	y2="204.02478" />
<line
	class="arc2"
	id="link49_@2_48"
	x1="805.8021"
	y1="200.11945"
	x2="814.5801"
	y2="212.62549" />
<line
	class="arc1"
	id="link48_@1_47"
	x1="814.5801"
	y1="212.62549"
	x2="789.0698"
	y2="266.5551" />
<line
	class="arc2"
	id="link55_@2_54"
	x1="745.1801"
	y1="204.02478"
	x2="738.8026"
	y2="217.50711" />
<line
	class="arc1"
	id="link54_@1_53"
	x1="738.8026"
	y1="217.50711"
	x2="773.91437"
	y2="267.53143" />
<line
	class="arc2"
	id="link47_@2_53"
	x1="789.0698"
	y1="266.5551"
	x2="773.91437"
	y2="267.53143" />
</svg>
