<?xml version="1.0" encoding="UTF-8" standalone="no"?>
<!-- Created with Jerboa -->

<svg
	width="1317"
	height="665" >
	<style id="style">
		.arc0 {
			fill:none;
			fill-rule:evenodd;
			stroke:black;
			stroke-width:4;
			stroke-linecap:round;
			stroke-linejoin:round;
			stroke-opacity:1;
		}
		.arc1 {
			fill:none;
			fill-rule:evenodd;
			stroke:red;
			stroke-width:4;
			stroke-linecap:round;
			stroke-linejoin:round;
			stroke-opacity:1;
		}
		.arc2 {
			fill:none;
			fill-rule:evenodd;
			stroke:blue;
			stroke-width:4;
			stroke-linecap:round;
			stroke-linejoin:round;
			stroke-opacity:1;
		}
		.arc3 {
			fill:none;
			fill-rule:evenodd;
			stroke:green;
			stroke-width:4;
			stroke-linecap:round;
			stroke-linejoin:round;
			stroke-opacity:1;
		}
		.topological-dart {
			fill:#000000;
			stroke:#000000;
			stroke-width:0;
			stroke-linecap:round;
			stroke-linejoin:round;
			stroke-dasharray:none;
			paint-order:markers fill stroke;
		}
	</style>
<polygon
	points="648.46423,435.9049 828.782,504.52072 828.782,504.52072 666.42316,580.7263 666.42316,580.7263 486.10544,512.1105 486.10544,512.1105 648.46423,435.9049 "
	id="face_7_6_5_4_3_2_1_0"
	style="fill:rgb(192,192,192);stroke:none"
	opacity="1.0" />
<line
	class="arc0"
	id="link0_@0_7"
	x1="648.46423"
	y1="435.9049"
	x2="828.782"
	y2="504.52072" />
<line
	class="arc0"
	id="link1_@0_2"
	x1="648.46423"
	y1="435.9049"
	x2="486.10544"
	y2="512.1105" />
<polygon
	points="648.46423,435.9049 486.10544,512.1105 486.10544,512.1105 666.42316,580.7263 666.42316,580.7263 828.782,504.52072 828.782,504.52072 648.46423,435.9049 "
	id="face_14_8_50_44_38_32_26_20"
	style="fill:rgb(192,192,192);stroke:none"
	opacity="1.0" />
<line
	class="arc0"
	id="link20_@0_14"
	x1="648.46423"
	y1="435.9049"
	x2="486.10544"
	y2="512.1105" />
<polygon
	points="648.46423,435.9049 486.10544,512.1105 486.10544,512.1105 486.10544,292.20267 486.10544,292.20267 648.46423,215.99707 648.46423,215.99707 648.46423,435.9049 "
	id="face_15_16_17_18_24_23_22_21"
	style="fill:rgb(192,192,192);stroke:none"
	opacity="1.0" />
<line
	class="arc0"
	id="link21_@0_15"
	x1="648.46423"
	y1="435.9049"
	x2="486.10544"
	y2="512.1105" />
<line
	class="arc0"
	id="link22_@0_23"
	x1="648.46423"
	y1="435.9049"
	x2="648.46423"
	y2="215.99707" />
<line
	class="arc0"
	id="link26_@0_32"
	x1="648.46423"
	y1="435.9049"
	x2="828.782"
	y2="504.52072" />
<polygon
	points="648.46423,435.9049 828.782,504.52072 828.782,504.52072 828.782,284.6129 828.782,284.6129 648.46423,215.99707 648.46423,215.99707 648.46423,435.9049 "
	id="face_33_34_35_36_30_29_28_27"
	style="fill:rgb(192,192,192);stroke:none"
	opacity="1.0" />
<line
	class="arc0"
	id="link27_@0_33"
	x1="648.46423"
	y1="435.9049"
	x2="828.782"
	y2="504.52072" />
<line
	class="arc0"
	id="link28_@0_29"
	x1="648.46423"
	y1="435.9049"
	x2="648.46423"
	y2="215.99707" />
<line
	class="arc0"
	id="link24_@0_18"
	x1="648.46423"
	y1="215.99707"
	x2="486.10544"
	y2="292.20267" />
<polygon
	points="648.46423,215.99707 486.10544,292.20267 486.10544,292.20267 666.42316,360.81848 666.42316,360.81848 747.6026,322.71567 747.6026,322.71567 828.782,284.6129 828.782,284.6129 648.46423,215.99707 "
	id="face_19_13_55_49_57_58_43_37_31_25"
	style="fill:rgb(192,192,192);stroke:none"
	opacity="1.0" />
<line
	class="arc0"
	id="link25_@0_19"
	x1="648.46423"
	y1="215.99707"
	x2="486.10544"
	y2="292.20267" />
<line
	class="arc0"
	id="link30_@0_36"
	x1="648.46423"
	y1="215.99707"
	x2="828.782"
	y2="284.6129" />
<line
	class="arc0"
	id="link31_@0_37"
	x1="648.46423"
	y1="215.99707"
	x2="828.782"
	y2="284.6129" />
<polygon
	points="648.46423,215.99707 486.10544,292.20267 486.10544,292.20267 666.42316,360.81848 666.42316,360.81848 747.6026,322.71567 747.6026,322.71567 828.782,284.6129 828.782,284.6129 648.46423,215.99707 "
	id="face_66_60_114_108_102_96_90_84_78_72"
	style="fill:rgb(192,192,192);stroke:none"
	opacity="1.0" />
<line
	class="arc0"
	id="link72_@0_66"
	x1="648.46423"
	y1="215.99707"
	x2="486.10544"
	y2="292.20267" />
<polygon
	points="648.46423,215.99707 486.10544,292.20267 486.10544,292.20267 599.7275,162.09796 599.7275,162.09796 664.67096,131.61572 664.67096,131.61572 648.46423,215.99707 "
	id="face_67_68_69_82_88_75_74_73"
	style="fill:rgb(192,192,192);stroke:none"
	opacity="1.0" />
<line
	class="arc0"
	id="link73_@0_67"
	x1="648.46423"
	y1="215.99707"
	x2="486.10544"
	y2="292.20267" />
<line
	class="arc0"
	id="link74_@0_75"
	x1="648.46423"
	y1="215.99707"
	x2="664.67096"
	y2="131.61572" />
<line
	class="arc0"
	id="link78_@0_84"
	x1="648.46423"
	y1="215.99707"
	x2="828.782"
	y2="284.6129" />
<polygon
	points="648.46423,215.99707 828.782,284.6129 828.782,284.6129 736.79803,159.06204 736.79803,159.06204 664.67096,131.61572 664.67096,131.61572 648.46423,215.99707 "
	id="face_85_86_87_100_94_81_80_79"
	style="fill:rgb(192,192,192);stroke:none"
	opacity="1.0" />
<line
	class="arc0"
	id="link79_@0_85"
	x1="648.46423"
	y1="215.99707"
	x2="828.782"
	y2="284.6129" />
<line
	class="arc0"
	id="link80_@0_81"
	x1="648.46423"
	y1="215.99707"
	x2="664.67096"
	y2="131.61572" />
<line
	class="arc0"
	id="link6_@0_5"
	x1="828.782"
	y1="504.52072"
	x2="666.42316"
	y2="580.7263" />
<line
	class="arc0"
	id="link34_@0_35"
	x1="828.782"
	y1="504.52072"
	x2="828.782"
	y2="284.6129" />
<line
	class="arc0"
	id="link38_@0_44"
	x1="828.782"
	y1="504.52072"
	x2="666.42316"
	y2="580.7263" />
<polygon
	points="828.782,504.52072 666.42316,580.7263 666.42316,580.7263 666.42316,360.81848 666.42316,360.81848 747.6026,322.71567 747.6026,322.71567 828.782,284.6129 828.782,284.6129 828.782,504.52072 "
	id="face_45_46_47_48_56_59_42_41_40_39"
	style="fill:rgb(0,0,255);stroke:none"
	opacity="1.0" />
<line
	class="arc0"
	id="link39_@0_45"
	x1="828.782"
	y1="504.52072"
	x2="666.42316"
	y2="580.7263" />
<line
	class="arc0"
	id="link40_@0_41"
	x1="828.782"
	y1="504.52072"
	x2="828.782"
	y2="284.6129" />
<line
	class="arc0"
	id="link3_@0_4"
	x1="486.10544"
	y1="512.1105"
	x2="666.42316"
	y2="580.7263" />
<line
	class="arc0"
	id="link8_@0_50"
	x1="486.10544"
	y1="512.1105"
	x2="666.42316"
	y2="580.7263" />
<polygon
	points="486.10544,512.1105 666.42316,580.7263 666.42316,580.7263 576.2643,436.46448 576.2643,436.46448 486.10544,512.1105 "
	id="face_51_134_135_121_120_9"
	style="fill:rgb(192,192,192);stroke:none"
	opacity="1.0" />
<line
	class="arc0"
	id="link9_@0_51"
	x1="486.10544"
	y1="512.1105"
	x2="666.42316"
	y2="580.7263" />
<polygon
	points="486.10544,512.1105 486.10544,292.20267 486.10544,292.20267 576.2643,436.46448 576.2643,436.46448 486.10544,512.1105 "
	id="face_11_124_125_123_122_10"
	style="fill:rgb(192,192,192);stroke:none"
	opacity="1.0" />
<line
	class="arc0"
	id="link10_@0_11"
	x1="486.10544"
	y1="512.1105"
	x2="486.10544"
	y2="292.20267" />
<line
	class="arc0"
	id="link16_@0_17"
	x1="486.10544"
	y1="512.1105"
	x2="486.10544"
	y2="292.20267" />
<line
	class="arc0"
	id="link120_@0_121"
	x1="486.10544"
	y1="512.1105"
	x2="576.2643"
	y2="436.46448" />
<line
	class="arc0"
	id="link122_@0_123"
	x1="486.10544"
	y1="512.1105"
	x2="576.2643"
	y2="436.46448" />
<line
	class="arc0"
	id="link42_@0_59"
	x1="828.782"
	y1="284.6129"
	x2="747.6026"
	y2="322.71567" />
<line
	class="arc0"
	id="link43_@0_58"
	x1="828.782"
	y1="284.6129"
	x2="747.6026"
	y2="322.71567" />
<line
	class="arc0"
	id="link86_@0_87"
	x1="828.782"
	y1="284.6129"
	x2="736.79803"
	y2="159.06204" />
<line
	class="arc0"
	id="link90_@0_96"
	x1="828.782"
	y1="284.6129"
	x2="747.6026"
	y2="322.71567" />
<polygon
	points="828.782,284.6129 747.6026,322.71567 747.6026,322.71567 704.32635,174.30319 704.32635,174.30319 736.79803,159.06204 736.79803,159.06204 828.782,284.6129 "
	id="face_97_98_99_112_106_93_92_91"
	style="fill:rgb(192,192,192);stroke:none"
	opacity="1.0" />
<line
	class="arc0"
	id="link91_@0_97"
	x1="828.782"
	y1="284.6129"
	x2="747.6026"
	y2="322.71567" />
<line
	class="arc0"
	id="link92_@0_93"
	x1="828.782"
	y1="284.6129"
	x2="736.79803"
	y2="159.06204" />
<polygon
	points="486.10544,292.20267 666.42316,360.81848 666.42316,360.81848 576.2643,436.46448 576.2643,436.46448 486.10544,292.20267 "
	id="face_54_128_129_127_126_12"
	style="fill:rgb(192,192,192);stroke:none"
	opacity="1.0" />
<line
	class="arc0"
	id="link12_@0_54"
	x1="486.10544"
	y1="292.20267"
	x2="666.42316"
	y2="360.81848" />
<line
	class="arc0"
	id="link13_@0_55"
	x1="486.10544"
	y1="292.20267"
	x2="666.42316"
	y2="360.81848" />
<line
	class="arc0"
	id="link60_@0_114"
	x1="486.10544"
	y1="292.20267"
	x2="666.42316"
	y2="360.81848" />
<polygon
	points="486.10544,292.20267 666.42316,360.81848 666.42316,360.81848 671.85455,189.54431 671.85455,189.54431 599.7275,162.09796 599.7275,162.09796 486.10544,292.20267 "
	id="face_115_116_117_70_76_63_62_61"
	style="fill:rgb(192,192,192);stroke:none"
	opacity="1.0" />
<line
	class="arc0"
	id="link61_@0_115"
	x1="486.10544"
	y1="292.20267"
	x2="666.42316"
	y2="360.81848" />
<line
	class="arc0"
	id="link62_@0_63"
	x1="486.10544"
	y1="292.20267"
	x2="599.7275"
	y2="162.09796" />
<line
	class="arc0"
	id="link68_@0_69"
	x1="486.10544"
	y1="292.20267"
	x2="599.7275"
	y2="162.09796" />
<line
	class="arc0"
	id="link88_@0_82"
	x1="664.67096"
	y1="131.61572"
	x2="599.7275"
	y2="162.09796" />
<polygon
	points="664.67096,131.61572 599.7275,162.09796 599.7275,162.09796 671.85455,189.54431 671.85455,189.54431 704.32635,174.30319 704.32635,174.30319 736.79803,159.06204 736.79803,159.06204 664.67096,131.61572 "
	id="face_83_77_71_65_119_113_107_101_95_89"
	style="fill:rgb(192,192,192);stroke:none"
	opacity="1.0" />
<line
	class="arc0"
	id="link89_@0_83"
	x1="664.67096"
	y1="131.61572"
	x2="599.7275"
	y2="162.09796" />
<line
	class="arc0"
	id="link94_@0_100"
	x1="664.67096"
	y1="131.61572"
	x2="736.79803"
	y2="159.06204" />
<line
	class="arc0"
	id="link95_@0_101"
	x1="664.67096"
	y1="131.61572"
	x2="736.79803"
	y2="159.06204" />
<line
	class="arc0"
	id="link124_@0_125"
	x1="486.10544"
	y1="292.20267"
	x2="576.2643"
	y2="436.46448" />
<line
	class="arc0"
	id="link126_@0_127"
	x1="486.10544"
	y1="292.20267"
	x2="576.2643"
	y2="436.46448" />
<line
	class="arc0"
	id="link129_@0_128"
	x1="576.2643"
	y1="436.46448"
	x2="666.42316"
	y2="360.81848" />
<polygon
	points="576.2643,436.46448 666.42316,360.81848 666.42316,360.81848 666.42316,580.7263 666.42316,580.7263 576.2643,436.46448 "
	id="face_130_53_52_132_133_131"
	style="fill:rgb(192,192,192);stroke:none"
	opacity="1.0" />
<line
	class="arc0"
	id="link131_@0_130"
	x1="576.2643"
	y1="436.46448"
	x2="666.42316"
	y2="360.81848" />
<line
	class="arc0"
	id="link133_@0_132"
	x1="576.2643"
	y1="436.46448"
	x2="666.42316"
	y2="580.7263" />
<line
	class="arc0"
	id="link135_@0_134"
	x1="576.2643"
	y1="436.46448"
	x2="666.42316"
	y2="580.7263" />
<line
	class="arc0"
	id="link46_@0_47"
	x1="666.42316"
	y1="580.7263"
	x2="666.42316"
	y2="360.81848" />
<line
	class="arc0"
	id="link52_@0_53"
	x1="666.42316"
	y1="580.7263"
	x2="666.42316"
	y2="360.81848" />
<line
	class="arc0"
	id="link106_@0_112"
	x1="736.79803"
	y1="159.06204"
	x2="704.32635"
	y2="174.30319" />
<line
	class="arc0"
	id="link107_@0_113"
	x1="736.79803"
	y1="159.06204"
	x2="704.32635"
	y2="174.30319" />
<line
	class="arc0"
	id="link56_@0_48"
	x1="747.6026"
	y1="322.71567"
	x2="666.42316"
	y2="360.81848" />
<line
	class="arc0"
	id="link57_@0_49"
	x1="747.6026"
	y1="322.71567"
	x2="666.42316"
	y2="360.81848" />
<line
	class="arc0"
	id="link76_@0_70"
	x1="599.7275"
	y1="162.09796"
	x2="671.85455"
	y2="189.54431" />
<line
	class="arc0"
	id="link77_@0_71"
	x1="599.7275"
	y1="162.09796"
	x2="671.85455"
	y2="189.54431" />
<line
	class="arc0"
	id="link98_@0_99"
	x1="747.6026"
	y1="322.71567"
	x2="704.32635"
	y2="174.30319" />
<line
	class="arc0"
	id="link102_@0_108"
	x1="747.6026"
	y1="322.71567"
	x2="666.42316"
	y2="360.81848" />
<polygon
	points="747.6026,322.71567 666.42316,360.81848 666.42316,360.81848 671.85455,189.54431 671.85455,189.54431 704.32635,174.30319 704.32635,174.30319 747.6026,322.71567 "
	id="face_109_110_111_64_118_105_104_103"
	style="fill:rgb(192,192,192);stroke:none"
	opacity="1.0" />
<line
	class="arc0"
	id="link103_@0_109"
	x1="747.6026"
	y1="322.71567"
	x2="666.42316"
	y2="360.81848" />
<line
	class="arc0"
	id="link104_@0_105"
	x1="747.6026"
	y1="322.71567"
	x2="704.32635"
	y2="174.30319" />
<line
	class="arc0"
	id="link118_@0_64"
	x1="704.32635"
	y1="174.30319"
	x2="671.85455"
	y2="189.54431" />
<line
	class="arc0"
	id="link119_@0_65"
	x1="704.32635"
	y1="174.30319"
	x2="671.85455"
	y2="189.54431" />
<line
	class="arc0"
	id="link111_@0_110"
	x1="671.85455"
	y1="189.54431"
	x2="666.42316"
	y2="360.81848" />
<line
	class="arc0"
	id="link117_@0_116"
	x1="671.85455"
	y1="189.54431"
	x2="666.42316"
	y2="360.81848" />
</svg>
