<?xml version="1.0" encoding="UTF-8" standalone="no"?>
<!-- Created with Inkscape (http://www.inkscape.org/) -->

<svg
   version="1.1"
   id="svg1"
   width="946.49469"
   height="169.52264"
   viewBox="0 0 946.49469 169.52264"
   sodipodi:docname="pn7-reval-short-step-1.svg"
   inkscape:version="1.3.2 (091e20ef0f, 2023-11-25, custom)"
   xmlns:inkscape="http://www.inkscape.org/namespaces/inkscape"
   xmlns:sodipodi="http://sodipodi.sourceforge.net/DTD/sodipodi-0.dtd"
   xmlns="http://www.w3.org/2000/svg"
   xmlns:svg="http://www.w3.org/2000/svg">
  <sodipodi:namedview
     id="namedview1"
     pagecolor="#ffffff"
     bordercolor="#000000"
     borderopacity="0.25"
     inkscape:showpageshadow="2"
     inkscape:pageopacity="0.0"
     inkscape:pagecheckerboard="0"
     inkscape:deskcolor="#d1d1d1"
     showgrid="false"
     inkscape:zoom="0.39278746"
     inkscape:cx="-131.11417"
     inkscape:cy="462.08196"
     inkscape:window-width="1892"
     inkscape:window-height="1034"
     inkscape:window-x="9"
     inkscape:window-y="27"
     inkscape:window-maximized="1"
     inkscape:current-layer="g1">
    <inkscape:page
       x="0"
       y="0"
       inkscape:label="1"
       id="page1"
       width="946.49469"
       height="169.52264"
       margin="0"
       bleed="0" />
  </sodipodi:namedview>
  <defs
     id="defs1">
    <clipPath
       clipPathUnits="userSpaceOnUse"
       id="clipPath35">
      <path
         d="M 0,0 H 710 V 561 H 0 Z"
         id="path35" />
    </clipPath>
    <clipPath
       clipPathUnits="userSpaceOnUse"
       id="clipPath36">
      <path
         d="M 0,0 H 710 V 561 H 0 Z"
         transform="scale(1.3333333)"
         id="path36" />
    </clipPath>
    <clipPath
       clipPathUnits="userSpaceOnUse"
       id="clipPath38">
      <path
         d="m 81.789,506.996 h 144 V 560 h -144 z"
         transform="scale(1.3333333)"
         id="path38" />
    </clipPath>
    <clipPath
       clipPathUnits="userSpaceOnUse"
       id="clipPath88">
      <path
         d="M 0,0 H 710 V 561 H 0 Z"
         id="path88" />
    </clipPath>
    <clipPath
       clipPathUnits="userSpaceOnUse"
       id="clipPath89">
      <path
         d="M 0,0 H 710 V 561 H 0 Z"
         id="path89" />
    </clipPath>
    <clipPath
       clipPathUnits="userSpaceOnUse"
       id="clipPath90">
      <path
         d="M 0,0 H 710 V 561 H 0 Z"
         transform="translate(-471.70102,-538.53089)"
         id="path90" />
    </clipPath>
    <clipPath
       clipPathUnits="userSpaceOnUse"
       id="clipPath91">
      <path
         d="M 0,0 H 710 V 561 H 0 Z"
         transform="translate(-476.19782,-538.53089)"
         id="path91" />
    </clipPath>
    <clipPath
       clipPathUnits="userSpaceOnUse"
       id="clipPath92">
      <path
         d="M 0,0 H 710 V 561 H 0 Z"
         transform="translate(-497.19812,-538.53089)"
         id="path92" />
    </clipPath>
    <clipPath
       clipPathUnits="userSpaceOnUse"
       id="clipPath97">
      <path
         d="m 379,507 h 144 v 53 H 379 Z"
         transform="scale(1.3333333)"
         id="path97" />
    </clipPath>
    <clipPath
       clipPathUnits="userSpaceOnUse"
       id="clipPath124">
      <path
         d="M 0,0 H 710 V 561 H 0 Z"
         transform="translate(-700.18365,-176.68152)"
         id="path124" />
    </clipPath>
    <clipPath
       clipPathUnits="userSpaceOnUse"
       id="clipPath125">
      <path
         d="m 701,163 h 8 v 14 h -8 z"
         transform="scale(1.3333333)"
         id="path125" />
    </clipPath>
    <clipPath
       clipPathUnits="userSpaceOnUse"
       id="clipPath128">
      <path
         d="M 0,0 H 710 V 561 H 0 Z"
         transform="translate(-700.18365,-321.11218)"
         id="path128" />
    </clipPath>
    <clipPath
       clipPathUnits="userSpaceOnUse"
       id="clipPath129">
      <path
         d="m 701,307 h 8 v 15 h -8 z"
         transform="scale(1.3333333)"
         id="path129" />
    </clipPath>
    <clipPath
       clipPathUnits="userSpaceOnUse"
       id="clipPath131">
      <path
         d="M 0,0 H 710 V 561 H 0 Z"
         transform="translate(-700.18365,-467.97918)"
         id="path131" />
    </clipPath>
    <clipPath
       clipPathUnits="userSpaceOnUse"
       id="clipPath132">
      <path
         d="m 700,454 h 9 v 14 h -9 z"
         transform="scale(1.3333333)"
         id="path132" />
    </clipPath>
  </defs>
  <g
     id="g1"
     inkscape:groupmode="layer"
     inkscape:label="1">
    <path
       id="path1"
       d="m 164.289,9.188 h 47.254 c 6.039,0 10.898,4.859 10.898,10.898 v 13.82 c 0,6.039 -4.859,10.899 -10.898,10.899 h -47.254 c -6.039,0 -10.898,-4.86 -10.898,-10.899 v -13.82 c 0,-6.039 4.859,-10.898 10.898,-10.898 z"
       style="fill:#d3d3d3;fill-opacity:1;fill-rule:nonzero;stroke:none"
       transform="scale(1.3333333)" />
    <path
       id="path2"
       d="m 158.77,53.492 c 0,0 254.859,0 254.859,0 6.141,0 12.281,-6 12.281,-12 0,0 0,-28.992 0,-28.992 0,-6 -6.14,-12 -12.281,-12 0,0 -254.859,0 -254.859,0 -6.141,0 -12.282,6 -12.282,12 0,0 0,28.992 0,28.992 0,6 6.141,12 12.282,12"
       style="fill:none;stroke:#000000;stroke-width:0.99975;stroke-linecap:butt;stroke-linejoin:miter;stroke-miterlimit:10;stroke-dasharray:none;stroke-opacity:1"
       transform="scale(1.3333333)" />
    <path
       id="path3"
       d="m 346.418,44.996 c 0,0 59,0 59,0 6,0 12,-6 12,-12 0,0 0,-12 0,-12 0,-6 -6,-12 -12,-12 0,0 -59,0 -59,0 -6,0 -12,6 -12,12 0,0 0,12 0,12 0,6 6,12 12,12"
       style="fill:none;stroke:#000000;stroke-width:1;stroke-linecap:butt;stroke-linejoin:miter;stroke-miterlimit:10;stroke-dasharray:none;stroke-opacity:1"
       transform="scale(1.3333333)" />
    <text
       id="text3"
       xml:space="preserve"
       transform="matrix(1.3333333,0,0,1.3333333,456.55467,40.926801)"><tspan
         style="font-variant:normal;font-weight:normal;font-size:14.0002px;font-family:'Liberation Serif';writing-mode:lr-tb;fill:#000000;fill-opacity:1;fill-rule:nonzero;stroke:none"
         x="0 9.0020189 18.004038 26.247913 34.496384 42.754261 47.248432 56.994923"
         y="0"
         sodipodi:role="line"
         id="tspan3">CREATION</tspan></text>
    <path
       id="path4"
       d="m 372.285,45.184 c -1.691,8.023 -3.75,17.765 -5.648,26.742"
       style="fill:none;stroke:#000000;stroke-width:1;stroke-linecap:butt;stroke-linejoin:miter;stroke-miterlimit:10;stroke-dasharray:none;stroke-opacity:1"
       transform="scale(1.3333333)" />
    <path
       id="path5"
       d="m 181.918,73.496 h 214 v 53 h -214 z"
       style="fill:none;stroke:#000000;stroke-width:1;stroke-linecap:butt;stroke-linejoin:miter;stroke-miterlimit:10;stroke-dasharray:none;stroke-opacity:1"
       transform="scale(1.3333333)" />
    <path
       id="path6"
       d="m 245.418,44.996 c 0,0 59,0 59,0 6,0 12,-6 12,-12 0,0 0,-12 0,-12 0,-6 -6,-12 -12,-12 0,0 -59,0 -59,0 -6,0 -12,6 -12,12 0,0 0,12 0,12 0,6 6,12 12,12"
       style="fill:none;stroke:#000000;stroke-width:1;stroke-linecap:butt;stroke-linejoin:miter;stroke-miterlimit:10;stroke-dasharray:none;stroke-opacity:1"
       transform="scale(1.3333333)" />
    <text
       id="text6"
       xml:space="preserve"
       transform="matrix(1.3333333,0,0,1.3333333,321.88799,40.926801)"><tspan
         style="font-variant:normal;font-weight:normal;font-size:14.0002px;font-family:'Liberation Serif';writing-mode:lr-tb;fill:#000000;fill-opacity:1;fill-rule:nonzero;stroke:none"
         x="0 9.0020189 18.004038 26.247913 34.496384 42.754261 47.248432 56.994923"
         y="0"
         sodipodi:role="line"
         id="tspan6">CREATION</tspan></text>
    <path
       id="path7"
       d="m 278.309,45.184 c 1.582,8.023 3.5,17.765 5.273,26.742"
       style="fill:none;stroke:#000000;stroke-width:1;stroke-linecap:butt;stroke-linejoin:miter;stroke-miterlimit:10;stroke-dasharray:none;stroke-opacity:1"
       transform="scale(1.3333333)" />
    <path
       id="path8"
       d="m 3.8202971,2.1340036 c 0,0.1699218 -0.099609,0.2578125 -0.2929687,0.2578125 -0.1025391,0 -0.1992188,-0.1054688 -0.2929688,-0.3164063 L 0.62107838,-3.9831839 3.2343596,-10.030059 c 0.09375,-0.210937 0.1904297,-0.316406 0.2929688,-0.316406 0.1933594,0 0.2929687,0.08789 0.2929687,0.257812 0,0.0791 -0.020508,0.1611331 -0.058594,0.2460941 l -2.5429688,5.859375 2.5429688,5.8710937 c 0.038086,0.084961 0.058594,0.1669922 0.058594,0.2460938 z m 0,0"
       style="fill:#000000;fill-opacity:1;fill-rule:nonzero;stroke:none"
       aria-label="⟨"
       transform="matrix(1.3333333,0,0,1.3333333,474.55471,138.26013)" />
    <path
       id="path9"
       d="M 3.9377563,-3.9831839 1.3244751,2.0754098 c -0.09375,0.2109375 -0.1933594,0.3164063 -0.2929688,0.3164063 -0.19628903,0 -0.29296872,-0.087891 -0.29296872,-0.2578125 0,-0.079102 0.0175781,-0.1611328 0.0585938,-0.2460938 L 3.3283813,-3.9831839 0.79713133,-9.8425589 c -0.0410156,-0.084961 -0.0585938,-0.1669921 -0.0585938,-0.2460941 0,-0.169922 0.0966797,-0.257812 0.29296867,-0.257812 0.099609,0 0.1992188,0.105469 0.2929688,0.316406 z m 0,0"
       style="fill:#000000;fill-opacity:1;fill-rule:nonzero;stroke:none"
       aria-label="⟩"
       transform="matrix(1.3333333,0,0,1.3333333,480.55044,138.26013)" />
    <path
       id="path10"
       d="m 370.008,72.906 -5.492,9.063 -1.356,-10.508 z"
       style="fill:#000000;fill-opacity:1;fill-rule:nonzero;stroke:#000000;stroke-width:1;stroke-linecap:butt;stroke-linejoin:miter;stroke-miterlimit:10;stroke-dasharray:none;stroke-opacity:1"
       transform="scale(1.3333333)" />
    <path
       id="path11"
       d="m 3.8203251,2.1340036 c 0,0.1699218 -0.099609,0.2578125 -0.2929687,0.2578125 -0.1025391,0 -0.1992188,-0.1054688 -0.2929688,-0.3164063 L 0.62110638,-3.9831839 3.2343876,-10.030059 c 0.09375,-0.210937 0.1904297,-0.316406 0.2929688,-0.316406 0.1933594,0 0.2929687,0.08789 0.2929687,0.257812 0,0.0791 -0.020508,0.1611331 -0.058594,0.2460941 l -2.5429688,5.859375 2.5429688,5.8710937 c 0.038086,0.084961 0.058594,0.1669922 0.058594,0.2460938 z m 0,0"
       style="fill:#000000;fill-opacity:1;fill-rule:nonzero;stroke:none"
       aria-label="⟨"
       transform="matrix(1.3333333,0,0,1.3333333,374.55467,138.26013)" />
    <text
       id="text11"
       xml:space="preserve"
       transform="matrix(1.3333333,0,0,1.3333333,380.5504,138.26013)"><tspan
         style="font-variant:normal;font-weight:normal;font-size:14.0002px;font-family:'Liberation Serif';writing-mode:lr-tb;fill:#000000;fill-opacity:1;fill-rule:nonzero;stroke:none"
         x="0"
         y="0"
         id="tspan11">0</tspan></text>
    <path
       id="path12"
       d="M 3.9367582,-3.9831839 1.323477,2.0754098 c -0.09375,0.2109375 -0.1933594,0.3164063 -0.2929688,0.3164063 -0.19628902,0 -0.29296871,-0.087891 -0.29296871,-0.2578125 0,-0.079102 0.0175781,-0.1611328 0.0585938,-0.2460938 L 3.3273832,-3.9831839 0.79613324,-9.8425589 c -0.0410156,-0.084961 -0.0585938,-0.1669921 -0.0585938,-0.2460941 0,-0.169922 0.0966797,-0.257812 0.29296866,-0.257812 0.099609,0 0.1992188,0.105469 0.2929688,0.316406 z m 0,0"
       style="fill:#000000;fill-opacity:1;fill-rule:nonzero;stroke:none"
       aria-label="⟩"
       transform="matrix(1.3333333,0,0,1.3333333,389.54786,138.26013)" />
    <path
       id="path13"
       d="m 287.059,71.48 -1.5,10.489 -5.368,-9.137 z"
       style="fill:#000000;fill-opacity:1;fill-rule:nonzero;stroke:#000000;stroke-width:1;stroke-linecap:butt;stroke-linejoin:miter;stroke-miterlimit:10;stroke-dasharray:none;stroke-opacity:1"
       transform="scale(1.3333333)" />
    <path
       id="path14"
       d="m 189.918,81.996 h 54 v 36 h -54 z"
       style="fill:#add8e6;fill-opacity:1;fill-rule:nonzero;stroke:#add8e6;stroke-width:1;stroke-linecap:butt;stroke-linejoin:miter;stroke-miterlimit:10;stroke-dasharray:none;stroke-opacity:1"
       transform="scale(1.3333333)" />
    <text
       id="text14"
       xml:space="preserve"
       transform="matrix(1.3333333,0,0,1.3333333,284.47255,138.26013)"><tspan
         style="font-variant:normal;font-weight:normal;font-size:14.0002px;font-family:'Liberation Serif';writing-mode:lr-tb;fill:#000000;fill-opacity:1;fill-rule:nonzero;stroke:none"
         x="0"
         y="0"
         id="tspan14">3</tspan></text>
    <path
       id="path15"
       d="M 5.8485635,-7.652203e-4 C 5.5262979,-0.0300621 5.2186807,-0.04764022 4.9227822,-0.04764022 h -2.765625 c -0.290039,0 -0.5947265,0.01757812 -0.9140625,0.0468749997 V -0.43435897 c 0.052734,0 0.1347657,0.005859 0.2460938,0.0117188 0.1171875,0 0.2050781,0 0.2695312,0 0.694336,0 1.0927735,-0.0966797 1.1953125,-0.29296875 0.038086,-0.0849609 0.058594,-0.20507813 0.058594,-0.36328118 v -7.4296876 c -0.4921875,0.2431641 -1.1103516,0.3632812 -1.8515625,0.3632812 v -0.4335937 c 1.1308594,0 1.9951172,-0.3046875 2.5898437,-0.9140625 h 0.070312 c 0.131836,0 0.2109375,0.032227 0.234375,0.09375 0.014648,0.032227 0.023437,0.123047 0.023437,0.2695312 v 8.0742189 c 0,0.14941399 0.014648,0.2636718 0.046875,0.33984368 0.070312,0.15820312 0.3398438,0.25195312 0.8085938,0.28125 0.061523,0 0.3662109,0 0.9140625,0 z M 11.605399,-3.9851402 c 0,0.1875 -0.08789,0.28125 -0.257812,0.28125 H 7.9139932 c -0.1816406,0 -0.2695313,-0.09375 -0.2695313,-0.28125 0,-0.1875 0.087891,-0.28125 0.2695313,-0.28125 h 3.4335938 c 0.169922,0 0.257812,0.09375 0.257812,0.28125 z m 5.789063,2.109375 c 0,0.665039 -0.234375,1.18066404 -0.703125,1.54687498 -0.416016,0.3281249997 -0.966797,0.4921875 -1.652344,0.4921875 -0.641601,0 -1.180664,-0.2109375 -1.617187,-0.6328125 -0.351563,0.421875 -0.571289,0.6328125 -0.65625,0.6328125 -0.102539,0 -0.152344,-0.07617188 -0.152344,-0.22265625 V -2.262484 c 0,-0.1464843 0.06152,-0.2226562 0.1875,-0.2226562 0.09375,0 0.158203,0.082031 0.199219,0.2460937 0.169922,0.6650391 0.380859,1.1484375 0.632812,1.45312503 0.328125,0.41601562 0.796875,0.62109375 1.40625,0.62109375 0.46875,0 0.84961,-0.0996094 1.148438,-0.3046875 0.333984,-0.24023438 0.503906,-0.58593748 0.503906,-1.03124998 0,-0.6708985 -0.509766,-1.116211 -1.523438,-1.3359375 -0.585937,-0.1230469 -0.925781,-0.1992188 -1.019531,-0.2226563 -0.375,-0.1083984 -0.679687,-0.2607422 -0.914062,-0.4570312 -0.416016,-0.3427735 -0.621094,-0.7617188 -0.621094,-1.2539063 0,-0.609375 0.246094,-1.0722656 0.738281,-1.3945312 0.421875,-0.2636719 0.952149,-0.3984375 1.59375,-0.3984375 0.539063,0 0.996094,0.1376953 1.371094,0.4101562 0.272461,-0.2724609 0.457031,-0.4101562 0.550781,-0.4101562 0.108399,0 0.164063,0.076172 0.164063,0.2226562 v 1.734375 c 0,0.1640625 -0.06738,0.2460938 -0.199219,0.2460938 -0.102539,0 -0.172852,-0.09668 -0.210938,-0.2929688 -0.01758,-0.140625 -0.03223,-0.2753906 -0.04687,-0.4101562 -0.07031,-0.3984375 -0.263671,-0.7060547 -0.574218,-0.9257813 -0.28125,-0.1933593 -0.632813,-0.2929687 -1.054688,-0.2929687 -0.430664,0 -0.791015,0.079102 -1.078125,0.234375 -0.375,0.196289 -0.5625,0.4892578 -0.5625,0.8789062 0,0.3925782 0.213867,0.6884766 0.644531,0.890625 0.216797,0.1025391 0.603516,0.2080078 1.160157,0.3164063 0.773437,0.149414 1.327148,0.3808594 1.664062,0.6914062 0.413086,0.3925782 0.621094,0.8554688 0.621094,1.3945313 z m 7.910156,4.7109375 c -0.758789,-0.023437 -1.30664,-0.035156 -1.640625,-0.035156 -0.360351,0 -0.911133,0.011719 -1.652344,0.035156 V 2.378141 c 0.169922,0.00586 0.28125,0.011719 0.328125,0.011719 0.310547,0 0.518555,-0.032227 0.621094,-0.09375 0.140625,-0.087891 0.210938,-0.2753906 0.210938,-0.5625 v -2.62500002 c -0.524414,0.703125 -1.171875,1.0546875 -1.945313,1.0546875 -0.875976,0 -1.617187,-0.33398438 -2.226562,-1.0078125 C 18.405204,-1.491976 18.109306,-2.2566244 18.109306,-3.14139 c 0,-0.8964844 0.310547,-1.6757813 0.9375,-2.3320313 0.632812,-0.6621093 1.394531,-0.9960937 2.285156,-0.9960937 0.421875,0 0.811523,0.1259765 1.171875,0.375 0.342773,0.243164 0.609375,0.5595703 0.796875,0.9492187 l 0.550781,-1.3242187 h 0.316406 V 1.73361 c 0,0.2021484 0.02637,0.3544922 0.08203,0.4570312 0.09375,0.1552735 0.445312,0.2167969 1.054687,0.1875 z m -2.097656,-4.828125 V -4.043734 c 0,-0.515625 -0.164063,-0.9785156 -0.492188,-1.3945312 -0.360351,-0.4453125 -0.791015,-0.6679688 -1.289062,-0.6679688 -0.439453,0 -0.837891,0.1757813 -1.195313,0.5273438 -0.313476,0.3046875 -0.547851,0.6855469 -0.703125,1.1367187 -0.140625,0.3984375 -0.210937,0.8320313 -0.210937,1.3007813 0,0.6972656 0.152344,1.3359375 0.457031,1.921875 0.366211,0.70312498 0.867188,1.05468748 1.5,1.05468748 0.46875,0 0.905274,-0.1875 1.3125,-0.5625 0.413086,-0.37499998 0.621094,-0.79687498 0.621094,-1.26562498 z M 33.390556,-7.652203e-4 31.281181,0.16329728 V -1.1609215 c -0.407227,0.88476565 -1.03711,1.32421878 -1.886719,1.32421878 -0.875977,0 -1.473633,-0.19921875 -1.792969,-0.59765625 C 27.311454,-0.79178085 27.167899,-1.4216637 27.167899,-2.3210777 V -4.887484 c 0,-0.4599609 -0.08203,-0.7441406 -0.246093,-0.8554687 -0.111328,-0.070312 -0.407227,-0.1054688 -0.890625,-0.1054688 v -0.46875 l 2.144531,-0.1523437 v 4.8515625 c 0,0.524414 0.08203,0.89062498 0.246094,1.10156248 0.193359,0.234375 0.541992,0.3515625 1.042968,0.3515625 0.5625,0 1.007813,-0.24609375 1.335938,-0.73828125 0.287109,-0.42773433 0.433594,-0.94042973 0.433594,-1.53515623 V -5.028109 c 0,-0.3984375 -0.102539,-0.6474609 -0.304688,-0.75 -0.117187,-0.052734 -0.395508,-0.076172 -0.832031,-0.070312 v -0.46875 l 2.144531,-0.1523437 v 5.203125 c 0,0.39843748 0.105469,0.6503906 0.316406,0.74999998 0.108399,0.0556641 0.386719,0.0761719 0.832032,0.0585938 z m 7.3125,-1.3007812797 c 0,0.38378909 -0.105469,0.70312503 -0.316407,0.96093753 -0.219726,0.28125 -0.515625,0.421875 -0.890625,0.421875 -0.313476,0 -0.574218,-0.12304688 -0.785156,-0.375 -0.205078,-0.21679688 -0.322265,-0.4921875 -0.351562,-0.82031253 -0.164063,0.39257815 -0.418946,0.70312503 -0.761719,0.93750003 -0.345703,0.22558594 -0.732422,0.33984375 -1.160156,0.33984375 -0.580078,0 -1.086914,-0.11425781 -1.523438,-0.33984375 -0.539062,-0.28125 -0.808594,-0.68554688 -0.808594,-1.21875003 0,-0.8115234 0.483399,-1.4472656 1.453125,-1.9101562 0.600586,-0.272461 1.5,-0.4453125 2.695313,-0.515625 v -0.5390625 c 0,-0.4980469 -0.128906,-0.9257813 -0.386719,-1.2773438 -0.290039,-0.3984375 -0.676758,-0.5976562 -1.160156,-0.5976562 -0.703125,0 -1.230469,0.2285156 -1.582031,0.6796875 0.210937,0 0.386718,0.064453 0.527343,0.1875 0.146485,0.1171875 0.222657,0.2783203 0.222657,0.4804687 0,0.1875 -0.06738,0.3486328 -0.199219,0.4804688 -0.125977,0.1259765 -0.287109,0.1875 -0.480469,0.1875 -0.445312,0 -0.667969,-0.225586 -0.667969,-0.6796875 0,-0.515625 0.246094,-0.9316406 0.738282,-1.2539063 0.436523,-0.2724609 0.928711,-0.4101562 1.476562,-0.4101562 0.826172,0 1.494141,0.2695312 2.003906,0.8085937 0.225586,0.2519532 0.375,0.5214844 0.445313,0.8085938 0.04687,0.2050781 0.07031,0.5097656 0.07031,0.9140625 v 2.9179687 c 0,0.18750003 0.04687,0.35156253 0.140625,0.49218753 0.09375,0.1640625 0.225586,0.24609375 0.398438,0.24609375 0.357422,0 0.539062,-0.3984375 0.539062,-1.19531248 0,-0.1230469 -0.0059,-0.3046875 -0.01172,-0.5390625 h 0.375 z m -2.449219,-0.75 v -1.4648437 c -0.782227,0.032227 -1.447266,0.196289 -1.992188,0.4921875 -0.688476,0.3691406 -1.03125,0.9023437 -1.03125,1.6054687 0,0.3603516 0.128907,0.6621094 0.386719,0.90234378 0.257813,0.234375 0.56543,0.3515625 0.925781,0.3515625 0.498047,0 0.914063,-0.19042969 1.242188,-0.57421875 0.310547,-0.35742183 0.46875,-0.79687503 0.46875,-1.31250003 z m 8.077148,-3.5273437 c 0,0.1875 -0.05859,0.3457031 -0.175781,0.46875 -0.117187,0.1171875 -0.266601,0.1757812 -0.445312,0.1757812 -0.181641,0 -0.333985,-0.058594 -0.457032,-0.1757812 -0.117187,-0.1171875 -0.175781,-0.2636719 -0.175781,-0.4453125 0,-0.2958985 0.108399,-0.4863281 0.328125,-0.5742188 -0.02344,-0.014648 -0.05566,-0.023437 -0.09375,-0.023437 -0.618164,0 -1.089844,0.3222657 -1.417969,0.9609375 -0.251953,0.5097657 -0.375,1.1074219 -0.375,1.7929688 v 2.3671875 c 0,0.28124998 0.128907,0.45703123 0.386719,0.52734373 0.09961,0.0322266 0.345703,0.046875 0.738281,0.046875 h 0.292969 V -7.652203e-4 C 44.567313,-0.0300621 44.236259,-0.04764022 43.94036,-0.04764022 h -1.195312 c -0.172852,0 -0.392578,0.0087891 -0.65625,0.0234375 -0.369141,0.01757812 -0.591797,0.0234374997 -0.667969,0.0234374997 V -0.45779647 c 0.04687,0 0.120117,0.005859 0.222656,0.0117188 0.09961,0.008789 0.178711,0.0117188 0.234375,0.0117188 0.451172,0 0.679688,-0.22558594 0.679688,-0.67968753 V -5.028109 c 0,-0.3984375 -0.102539,-0.6474609 -0.304688,-0.75 -0.111328,-0.046875 -0.386718,-0.070312 -0.832031,-0.070312 v -0.46875 l 2.027344,-0.1523437 v 1.6054687 c 0.351562,-1.0693359 0.949219,-1.6054687 1.792969,-1.6054687 0.272461,0 0.518554,0.079102 0.738281,0.234375 0.234375,0.1816406 0.351562,0.3984375 0.351562,0.6562495 z m 6.375,3.84375 c 0,0.1347656 -0.0791,0.336914 -0.234375,0.609375 -0.509765,0.8613281 -1.242187,1.28906248 -2.203125,1.28906248 -0.908203,0 -1.672851,-0.33984375 -2.296875,-1.01953125 -0.618164,-0.66210933 -0.925781,-1.45312503 -0.925781,-2.36718753 0,-0.8818359 0.28125,-1.6523437 0.84375,-2.3085937 0.591797,-0.6855469 1.327149,-1.03125 2.203125,-1.03125 0.820313,0 1.464844,0.28125 1.933594,0.84375 0.451172,0.524414 0.679687,1.2011719 0.679687,2.0273437 0,0.2578125 -0.123047,0.3867188 -0.363281,0.3867188 H 48.25286 c 0,0.9375 0.146485,1.640625 0.445313,2.109375 0.404297,0.65624998 0.955078,0.98437498 1.652344,0.98437498 0.896484,0 1.558593,-0.49804688 1.980468,-1.49999998 0.05273,-0.131836 0.117188,-0.1992188 0.1875,-0.1992188 0.123047,0 0.1875,0.058594 0.1875,0.1757813 z m -0.960937,-2.015625 c -0.0088,-0.6386719 -0.128906,-1.1835938 -0.363281,-1.6289063 -0.290039,-0.5683593 -0.720704,-0.8554687 -1.289063,-0.8554687 -0.1875,0 -0.395508,0.055664 -0.621094,0.1640625 -0.735351,0.3515625 -1.133789,1.125 -1.195312,2.3203125 z m 0,0"
       style="fill:#000000;fill-opacity:1;fill-rule:nonzero;stroke:none"
       aria-label="1-square"
       transform="matrix(1.3333333,0,0,1.3333333,214.64723,40.926802)" />
    <path
       id="path140"
       d="m 333.918,81.996 h 54 v 36 h -54 z"
       style="fill:none;stroke:#000000;stroke-width:1;stroke-linecap:butt;stroke-linejoin:miter;stroke-miterlimit:10;stroke-dasharray:none;stroke-opacity:1"
       transform="scale(1.3333333)" />
    <path
       id="path142"
       d="m 261.918,81.996 h 54 v 36 h -54 z"
       style="fill:none;stroke:#000000;stroke-width:1;stroke-linecap:butt;stroke-linejoin:miter;stroke-miterlimit:10;stroke-dasharray:none;stroke-opacity:1"
       transform="scale(1.3333333)" />
    <text
       xml:space="preserve"
       transform="matrix(1.3333333,0,0,1.3333333,801.79431,43.959264)"
       id="text8990"
       x="0 12.216797 21.09375 31.09375 39.970703 45.527344 50.527344 60.527344 67.1875 77.1875 82.744141 88.300781 93.300781"
       y="73.587898"><tspan
         style="font-variant:normal;font-weight:normal;font-size:20px;font-family:'Liberation Serif';writing-mode:lr-tb;fill:#000000;fill-opacity:1;fill-rule:nonzero;stroke:none"
         x="0 12.216797 21.09375 31.09375 39.970703 45.527344 50.527344 60.527344 67.1875 77.1875 82.744141 88.300781 93.300781"
         y="73.587898"
         sodipodi:role="line"
         id="tspan9160">Level orbit 1</tspan></text>
    <text
       xml:space="preserve"
       transform="matrix(1.3333333,0,0,1.3333333,801.79431,43.959264)"
       id="text2501"
       x="0 12.216797 21.09375 31.09375 39.970703 45.527344 50.527344 59.404297 69.404297 78.28125 88.28125 93.837891 98.837891"
       y="0"><tspan
         style="font-variant:normal;font-weight:normal;font-size:20px;font-family:'Liberation Serif';writing-mode:lr-tb;fill:#000000;fill-opacity:1;fill-rule:nonzero;stroke:none"
         x="0 12.216797 21.09375 31.09375 39.970703 45.527344 50.527344 59.404297 69.404297 78.28125 88.28125 93.837891 98.837891"
         y="0"
         sodipodi:role="line"
         id="tspan2690">Level event 1</tspan></text>
  </g>
</svg>
