<?xml version="1.0" encoding="UTF-8" standalone="no"?>
<!-- Created with Inkscape (http://www.inkscape.org/) -->

<svg
   width="151.05226mm"
   height="101.76404mm"
   viewBox="0 0 151.05226 101.76404"
   version="1.1"
   id="svg5"
   xml:space="preserve"
   inkscape:version="1.2.2 (b0a8486541, 2022-12-01)"
   sodipodi:docname="rule-square-face-creation.svg"
   xmlns:inkscape="http://www.inkscape.org/namespaces/inkscape"
   xmlns:sodipodi="http://sodipodi.sourceforge.net/DTD/sodipodi-0.dtd"
   xmlns="http://www.w3.org/2000/svg"
   xmlns:svg="http://www.w3.org/2000/svg"><sodipodi:namedview
     id="namedview7"
     pagecolor="#ffffff"
     bordercolor="#000000"
     borderopacity="0.25"
     inkscape:showpageshadow="2"
     inkscape:pageopacity="0.0"
     inkscape:pagecheckerboard="0"
     inkscape:deskcolor="#d1d1d1"
     inkscape:document-units="mm"
     showgrid="false"
     inkscape:zoom="2.3937271"
     inkscape:cx="305.59039"
     inkscape:cy="153.94403"
     inkscape:window-width="1908"
     inkscape:window-height="1048"
     inkscape:window-x="1085"
     inkscape:window-y="25"
     inkscape:window-maximized="1"
     inkscape:current-layer="g6526" /><defs
     id="defs2" /><g
     inkscape:label="Calque 1"
     inkscape:groupmode="layer"
     id="layer1"
     transform="translate(-58.947736,-2.0948491)"><g
       id="g6417"
       transform="matrix(0.26458333,0,0,0.26458333,92.128126,2.2271408)"
       style="font-size:12px" /><g
       id="g6420"
       transform="matrix(0.26458333,0,0,0.26458333,78.402385,18.44335)"
       style="font-size:12px"><polygon
         id="0"
         points="10,136 10,124 41,124 41,118 60,130 41,143 41,136 "
         stroke="#000000"
         stroke-width="1"
         stroke-linecap="square"
         fill="#000000" /></g><g
       id="g6526"
       transform="matrix(0.26458333,0,0,0.26458333,92.128126,2.2271408)"
       style="font-size:12px"><circle
         id="RGn4_0"
         cx="405"
         cy="250"
         r="40"
         fill="none"
         stroke="#000000"
         stroke-width="1"
         stroke-linecap="square" /><text
         id="RGn4_1"
         x="398"
         y="235"
         fill="#000000">&lt;&gt;</text><text
         id="RGn4_2"
         x="393"
         y="252"
         fill="#c0c0c0">pos</text><text
         id="RGn4_3"
         x="387"
         y="269"
         fill="#c0c0c0">!color!</text><rect
         id="RGn4_4"
         x="398"
         y="277"
         width="15"
         height="17"
         fill="#ffffff" /><text
         id="RGn4_5"
         x="399"
         y="294"
         fill="#000000">n4</text><circle
         id="RGn1_6"
         cx="195"
         cy="40"
         r="40"
         fill="none"
         stroke="#000000"
         stroke-width="1"
         stroke-linecap="square" /><text
         id="RGn1_7"
         x="188"
         y="25"
         fill="#000000">&lt;&gt;</text><text
         id="RGn1_8"
         x="183"
         y="42"
         fill="#000000">pos</text><text
         id="RGn1_9"
         x="177"
         y="59"
         fill="#c0c0c0">!color!</text><rect
         id="RGn1_10"
         x="188"
         y="67"
         width="15"
         height="17"
         fill="#ffffff" /><text
         id="RGn1_11"
         x="189"
         y="84"
         fill="#000000">n1</text><circle
         id="RGn3_12"
         cx="405"
         cy="130"
         r="40"
         fill="none"
         stroke="#000000"
         stroke-width="1"
         stroke-linecap="square" /><text
         id="RGn3_13"
         x="398"
         y="115"
         fill="#000000">&lt;&gt;</text><text
         id="RGn3_14"
         x="393"
         y="132"
         fill="#000000">pos</text><text
         id="RGn3_15"
         x="387"
         y="149"
         fill="#c0c0c0">!color!</text><rect
         id="RGn3_16"
         x="398"
         y="157"
         width="15"
         height="17"
         fill="#ffffff" /><text
         id="RGn3_17"
         x="399"
         y="174"
         fill="#000000">n3</text><circle
         id="RGn7_18"
         cx="105"
         cy="250"
         r="40"
         fill="none"
         stroke="#000000"
         stroke-width="1"
         stroke-linecap="square" /><text
         id="RGn7_19"
         x="98"
         y="235"
         fill="#000000">&lt;&gt;</text><text
         id="RGn7_20"
         x="93"
         y="252"
         fill="#000000">pos</text><text
         id="RGn7_21"
         x="87"
         y="269"
         fill="#c0c0c0">!color!</text><rect
         id="RGn7_22"
         x="98"
         y="277"
         width="15"
         height="17"
         fill="#ffffff" /><text
         id="RGn7_23"
         x="99"
         y="294"
         fill="#000000">n7</text><circle
         id="RGn6_24"
         cx="195"
         cy="340"
         r="40"
         fill="none"
         stroke="#000000"
         stroke-width="1"
         stroke-linecap="square" /><text
         id="RGn6_25"
         x="188"
         y="325"
         fill="#000000">&lt;&gt;</text><text
         id="RGn6_26"
         x="183"
         y="342"
         fill="#c0c0c0">pos</text><text
         id="RGn6_27"
         x="177"
         y="359"
         fill="#c0c0c0">!color!</text><rect
         id="RGn6_28"
         x="188"
         y="367"
         width="15"
         height="17"
         fill="#ffffff" /><text
         id="RGn6_29"
         x="189"
         y="384"
         fill="#000000">n6</text><circle
         id="RGn2_30"
         cx="315"
         cy="40"
         r="40"
         fill="none"
         stroke="#000000"
         stroke-width="1"
         stroke-linecap="square" /><text
         id="RGn2_31"
         x="308"
         y="25"
         fill="#000000">&lt;&gt;</text><text
         id="RGn2_32"
         x="303"
         y="42"
         fill="#c0c0c0">pos</text><text
         id="RGn2_33"
         x="297"
         y="59"
         fill="#c0c0c0">!color!</text><rect
         id="RGn2_34"
         x="308"
         y="67"
         width="15"
         height="17"
         fill="#ffffff" /><text
         id="RGn2_35"
         x="309"
         y="84"
         fill="#000000">n2</text><circle
         id="RGn0_36"
         cx="105"
         cy="130"
         r="40"
         fill="none"
         stroke="#000000"
         stroke-width="1"
         stroke-linecap="square" /><text
         id="RGn0_37"
         x="98"
         y="115"
         fill="#000000">&lt;&gt;</text><text
         id="RGn0_38"
         x="93"
         y="132"
         fill="#c0c0c0">pos</text><text
         id="RGn0_39"
         x="87"
         y="149"
         fill="#c0c0c0">!color!</text><rect
         id="RGn0_40"
         x="98"
         y="157"
         width="15"
         height="17"
         fill="#ffffff" /><text
         id="RGn0_41"
         x="99"
         y="174"
         fill="#000000">n0</text><circle
         id="RGn5_42"
         cx="315"
         cy="340"
         r="40"
         fill="none"
         stroke="#000000"
         stroke-width="1"
         stroke-linecap="square" /><text
         id="RGn5_43"
         x="308"
         y="325"
         fill="#000000">&lt;&gt;</text><text
         id="RGn5_44"
         x="303"
         y="342"
         fill="#000000">pos</text><text
         id="RGn5_45"
         x="297"
         y="359"
         fill="#c0c0c0">!color!</text><rect
         id="RGn5_46"
         x="308"
         y="367"
         width="15"
         height="17"
         fill="#ffffff" /><text
         id="RGn5_47"
         x="309"
         y="384"
         fill="#000000">n5</text><line
         id="RGn0_1_n1_48"
         x1="136"
         y1="98"
         x2="163"
         y2="71"
         stroke="#c80000"
         stroke-width="1"
         stroke-linecap="butt"
         stroke-dasharray="5" /><text
         id="RGn0_1_n1_49"
         x="142"
         y="89"
         fill="#c80000">α1</text><line
         id="RGn6_1_n7_50"
         x1="163"
         y1="308"
         x2="136"
         y2="281"
         stroke="#c80000"
         stroke-width="1"
         stroke-linecap="butt"
         stroke-dasharray="5" /><text
         id="RGn6_1_n7_51"
         x="142"
         y="299"
         fill="#c80000">α1</text><path
         id="RGn1_3_n1_52"
         d="m 198,84 -4,11 c -8,33 34,27 17,-3 l -7,-8"
         fill="none"
         stroke="#00c800"
         stroke-width="2"
         stroke-linecap="butt"
         stroke-dasharray="2" /><text
         id="RGn1_3_n1_53"
         x="200"
         y="133"
         fill="#00c800">α3</text><line
         id="RGn7_0_n0_54"
         x1="105"
         y1="205"
         x2="105"
         y2="175"
         stroke="#000000"
         stroke-width="2"
         stroke-linecap="square" /><text
         id="RGn7_0_n0_55"
         x="113"
         y="195"
         fill="#000000">α0</text><path
         id="RGn5_2_n5_56"
         d="m 291,301 -2,-11 c -7,-33 -43,-8 -14,11 l 10,4"
         fill="none"
         stroke="#0000c8"
         stroke-width="1"
         stroke-linecap="square" /><path
         id="RGn5_2_n5_57"
         d="m 289,302 -1,-11 c -5,-30 -38,-7 -11,8 l 10,5"
         fill="none"
         stroke="#0000c8"
         stroke-width="1"
         stroke-linecap="square" /><text
         id="RGn5_2_n5_58"
         x="255"
         y="272"
         fill="#0000c8">α2</text><path
         id="RGn4_2_n4_59"
         d="m 360,239 -8,-7 c -29,-18 -37,24 -3,17 l 11,-4"
         fill="none"
         stroke="#0000c8"
         stroke-width="1"
         stroke-linecap="square" /><path
         id="RGn4_2_n4_60"
         d="m 360,241 -8,-7 c -25,-18 -32,21 -3,13 l 11,-4"
         fill="none"
         stroke="#0000c8"
         stroke-width="1"
         stroke-linecap="square" /><text
         id="RGn4_2_n4_61"
         x="309"
         y="240"
         fill="#0000c8">α2</text><line
         id="RGn5_0_n6_62"
         x1="270"
         y1="340"
         x2="240"
         y2="340"
         stroke="#000000"
         stroke-width="2"
         stroke-linecap="square" /><text
         id="RGn5_0_n6_63"
         x="248"
         y="330"
         fill="#000000">α0</text><line
         id="RGn1_0_n2_64"
         x1="240"
         y1="40"
         x2="270"
         y2="40"
         stroke="#000000"
         stroke-width="2"
         stroke-linecap="square" /><text
         id="RGn1_0_n2_65"
         x="248"
         y="60"
         fill="#000000">α0</text><path
         id="RGn1_2_n1_66"
         d="m 216,80 1,11 c 5,34 43,10 14,-10 l -9,-5"
         fill="none"
         stroke="#0000c8"
         stroke-width="1"
         stroke-linecap="square" /><path
         id="RGn1_2_n1_67"
         d="m 218,79 1,11 c 3,30 37,9 11,-8 l -10,-5"
         fill="none"
         stroke="#0000c8"
         stroke-width="1"
         stroke-linecap="square" /><text
         id="RGn1_2_n1_68"
         x="236"
         y="120"
         fill="#0000c8">α2</text><path
         id="RGn3_2_n3_69"
         d="m 366,152 -11,2 c -33,7 -8,43 11,14 l 4,-10"
         fill="none"
         stroke="#0000c8"
         stroke-width="1"
         stroke-linecap="square" /><path
         id="RGn3_2_n3_70"
         d="m 367,154 -11,1 c -30,5 -7,38 8,11 l 5,-10"
         fill="none"
         stroke="#0000c8"
         stroke-width="1"
         stroke-linecap="square" /><text
         id="RGn3_2_n3_71"
         x="325"
         y="186"
         fill="#0000c8">α2</text><line
         id="RGn2_1_n3_72"
         x1="346"
         y1="71"
         x2="373"
         y2="98"
         stroke="#c80000"
         stroke-width="1"
         stroke-linecap="butt"
         stroke-dasharray="5" /><text
         id="RGn2_1_n3_73"
         x="352"
         y="89"
         fill="#c80000">α1</text><path
         id="RGn3_3_n3_74"
         d="m 360,132 -11,-4 c -33,-9 -28,33 3,17 l 8,-7"
         fill="none"
         stroke="#00c800"
         stroke-width="2"
         stroke-linecap="butt"
         stroke-dasharray="2" /><text
         id="RGn3_3_n3_75"
         x="309"
         y="145"
         fill="#00c800">α3</text><path
         id="RGn0_3_n0_76"
         d="m 141,156 5,9 c 21,28 44,-9 10,-14 l -11,-1"
         fill="none"
         stroke="#00c800"
         stroke-width="2"
         stroke-linecap="butt"
         stroke-dasharray="2" /><text
         id="RGn0_3_n0_77"
         x="174"
         y="181"
         fill="#00c800">α3</text><path
         id="RGn4_3_n4_78"
         d="m 370,220 -4,-10 c -18,-29 -44,6 -11,14 l 11,2"
         fill="none"
         stroke="#00c800"
         stroke-width="2"
         stroke-linecap="butt"
         stroke-dasharray="2" /><text
         id="RGn4_3_n4_79"
         x="325"
         y="202"
         fill="#00c800">α3</text><path
         id="RGn7_3_n7_80"
         d="m 149,246 11,4 c 33,8 27,-34 -3,-17 l -8,7"
         fill="none"
         stroke="#00c800"
         stroke-width="2"
         stroke-linecap="butt"
         stroke-dasharray="2" /><text
         id="RGn7_3_n7_81"
         x="186"
         y="242"
         fill="#00c800">α3</text><line
         id="RGn4_1_n5_82"
         x1="373"
         y1="281"
         x2="346"
         y2="308"
         stroke="#c80000"
         stroke-width="1"
         stroke-linecap="butt"
         stroke-dasharray="5" /><text
         id="RGn4_1_n5_83"
         x="352"
         y="299"
         fill="#c80000">α1</text><path
         id="RGn2_2_n2_84"
         d="m 304,84 -7,8 c -18,29 24,37 17,3 l -4,-11"
         fill="none"
         stroke="#0000c8"
         stroke-width="1"
         stroke-linecap="square" /><path
         id="RGn2_2_n2_85"
         d="m 306,84 -7,8 c -17,26 21,32 13,3 l -4,-11"
         fill="none"
         stroke="#0000c8"
         stroke-width="1"
         stroke-linecap="square" /><text
         id="RGn2_2_n2_86"
         x="293"
         y="133"
         fill="#0000c8">α2</text><path
         id="RGn6_3_n6_87"
         d="m 223,305 10,-5 c 29,-18 -7,-44 -14,-10 l -2,11"
         fill="none"
         stroke="#00c800"
         stroke-width="2"
         stroke-linecap="butt"
         stroke-dasharray="2" /><text
         id="RGn6_3_n6_88"
         x="238"
         y="272"
         fill="#00c800">α3</text><path
         id="RGn5_3_n5_89"
         d="m 314,295 5,-10 c 10,-33 -33,-29 -17,1 l 6,9"
         fill="none"
         stroke="#00c800"
         stroke-width="2"
         stroke-linecap="butt"
         stroke-dasharray="2" /><text
         id="RGn5_3_n5_90"
         x="301"
         y="256"
         fill="#00c800">α3</text><path
         id="RGn6_2_n6_91"
         d="m 202,295 6,-9 c 17,-30 -26,-34 -16,-1 l 4,10"
         fill="none"
         stroke="#0000c8"
         stroke-width="1"
         stroke-linecap="square" /><path
         id="RGn6_2_n6_92"
         d="m 200,295 6,-9 c 16,-26 -23,-30 -12,-1 l 4,10"
         fill="none"
         stroke="#0000c8"
         stroke-width="1"
         stroke-linecap="square" /><text
         id="RGn6_2_n6_93"
         x="196"
         y="256"
         fill="#0000c8">α2</text><path
         id="RGn7_2_n7_94"
         d="m 142,225 11,-3 c 33,-8 6,-43 -11,-13 l -4,10"
         fill="none"
         stroke="#0000c8"
         stroke-width="1"
         stroke-linecap="square" /><path
         id="RGn7_2_n7_95"
         d="m 141,223 11,-1 c 30,-7 5,-39 -9,-11 l -4,10"
         fill="none"
         stroke="#0000c8"
         stroke-width="1"
         stroke-linecap="square" /><text
         id="RGn7_2_n7_96"
         x="168"
         y="200"
         fill="#0000c8">α2</text><line
         id="RGn3_0_n4_97"
         x1="405"
         y1="175"
         x2="405"
         y2="205"
         stroke="#000000"
         stroke-width="2"
         stroke-linecap="square" /><text
         id="RGn3_0_n4_98"
         x="383"
         y="195"
         fill="#000000">α0</text><path
         id="RGn2_3_n2_99"
         d="m 286,75 -10,5 c -28,19 8,44 14,10 l 2,-11"
         fill="none"
         stroke="#00c800"
         stroke-width="2"
         stroke-linecap="butt"
         stroke-dasharray="2" /><text
         id="RGn2_3_n2_100"
         x="257"
         y="119"
         fill="#00c800">α3</text><path
         id="RGn0_2_n0_101"
         d="m 149,137 9,6 c 30,17 35,-26 1,-16 l -10,4"
         fill="none"
         stroke="#0000c8"
         stroke-width="1"
         stroke-linecap="square" /><path
         id="RGn0_2_n0_102"
         d="m 149,135 9,7 c 26,15 30,-23 1,-13 l -10,4"
         fill="none"
         stroke="#0000c8"
         stroke-width="1"
         stroke-linecap="square" /><text
         id="RGn0_2_n0_103"
         x="186"
         y="143"
         fill="#0000c8">α2</text></g><text
       xml:space="preserve"
       style="font-size:4.93895px;font-family:'Liberation Serif';-inkscape-font-specification:'Liberation Serif, Normal';fill:#c0c0c0;stroke-width:0.0423201;stroke-linecap:round;stroke-linejoin:round;stroke-opacity:0.8;stop-color:#000000"
       x="28.64731"
       y="52.976871"
       id="text6806"><tspan
         sodipodi:role="line"
         id="tspan6804"
         style="stroke-width:0.04232"
         x="28.64731"
         y="52.976871"></tspan></text><text
       xml:space="preserve"
       style="font-style:normal;font-variant:normal;font-weight:normal;font-stretch:normal;font-size:16.9333px;font-family:'Liberation Serif';-inkscape-font-specification:'Liberation Serif, Normal';font-variant-ligatures:normal;font-variant-caps:normal;font-variant-numeric:normal;font-variant-east-asian:normal;fill:#000002;fill-opacity:1;stroke-width:0.0423201;stroke-linecap:round;stroke-linejoin:round;stroke-opacity:0.8;stop-color:#000000"
       x="58.368961"
       y="56.85466"
       id="text7643"><tspan
         sodipodi:role="line"
         id="tspan8317"
         x="58.368961"
         y="56.85466">ø</tspan></text></g></svg>
