<?xml version="1.0" encoding="UTF-8" standalone="no"?>
<svg
   contentStyleType="text/css"
   height="595px"
   preserveAspectRatio="none"
   style="width:413px;height:595px;background:#FFFFFF;"
   version="1.1"
   viewBox="0 0 413 595"
   width="413px"
   zoomAndPan="magnify"
   id="svg25"
   sodipodi:docname="class-diagram-parametric-specification.svg"
   inkscape:version="1.4 (e7c3feb100, 2024-10-09)"
   xmlns:inkscape="http://www.inkscape.org/namespaces/inkscape"
   xmlns:sodipodi="http://sodipodi.sourceforge.net/DTD/sodipodi-0.dtd"
   xmlns="http://www.w3.org/2000/svg"
   xmlns:svg="http://www.w3.org/2000/svg">
  <sodipodi:namedview
     id="namedview25"
     pagecolor="#ffffff"
     bordercolor="#000000"
     borderopacity="0.25"
     inkscape:showpageshadow="2"
     inkscape:pageopacity="0.0"
     inkscape:pagecheckerboard="0"
     inkscape:deskcolor="#d1d1d1"
     showgrid="false"
     inkscape:zoom="1.4689076"
     inkscape:cx="206.27574"
     inkscape:cy="297.5"
     inkscape:window-width="1892"
     inkscape:window-height="1035"
     inkscape:window-x="1929"
     inkscape:window-y="26"
     inkscape:window-maximized="1"
     inkscape:current-layer="svg25" />
  <defs
     id="defs1" />
  <g
     id="g25">
    <!--class ParametricSpecification-->
    <g
       id="elem_ParametricSpecification">
      <rect
         codeLine="6"
         fill="#F1F1F1"
         height="67.0679"
         id="ParametricSpecification"
         rx="2.5"
         ry="2.5"
         style="stroke:#181818;stroke-width:0.5;"
         width="187.4274"
         x="148.02"
         y="7" />
      <ellipse
         cx="163.02"
         cy="23"
         fill="#ADD1B2"
         rx="11"
         ry="11"
         style="stroke:#181818;stroke-width:1.0;"
         id="ellipse1" />
      <path
         d="M162.4888,29.9219 Q160.7388,29.9219 159.5981,29.1875 Q158.4731,28.4375 157.9106,27.0938 Q157.3638,25.7344 157.3638,23.9375 Q157.3638,21.9063 158.02,20.4531 Q158.6763,19 159.9575,18.2188 Q161.2388,17.4375 163.1138,17.4375 Q164.0044,17.4375 164.6763,17.625 Q165.3481,17.7969 166.0356,18.1406 L165.2231,20.1563 Q164.5981,19.8438 164.0513,19.7188 Q163.52,19.5938 163.0356,19.5938 Q161.8638,19.5938 161.1606,20.125 Q160.4575,20.6563 160.1606,21.6094 Q159.8638,22.5625 159.8638,23.8281 Q159.8638,25.8438 160.5825,26.8125 Q161.3013,27.7656 162.895,27.7656 Q163.4888,27.7656 164.1138,27.6094 Q164.7388,27.4531 165.5669,27.0781 L165.5669,29.2969 Q164.8325,29.6094 164.0356,29.7656 Q163.2544,29.9219 162.4888,29.9219 Z "
         fill="#000000"
         id="path1" />
      <text
         fill="#000000"
         font-family="sans-serif"
         font-size="14"
         lengthAdjust="spacing"
         textLength="155.4274"
         x="177.02"
         y="28.432"
         id="text1">ParametricSpecification</text>
      <line
         style="stroke:#181818;stroke-width:0.5;"
         x1="149.02"
         x2="334.4474"
         y1="39"
         y2="39"
         id="line1" />
      <text
         fill="#000000"
         font-family="sans-serif"
         font-size="14"
         lengthAdjust="spacing"
         textLength="78.4837"
         x="154.02"
         y="57.9659"
         id="text2">nbApps : int</text>
      <line
         style="stroke:#181818;stroke-width:0.5;"
         x1="149.02"
         x2="334.4474"
         y1="66.0679"
         y2="66.0679"
         id="line2" />
    </g>
    <!--class ApplicationEntry-->
    <g
       id="elem_ApplicationEntry">
      <rect
         codeLine="13"
         fill="#F1F1F1"
         height="124.2717"
         id="ApplicationEntry"
         rx="2.5"
         ry="2.5"
         style="stroke:#181818;stroke-width:0.5;"
         width="290.823"
         x="96.32"
         y="134.07" />
      <ellipse
         cx="183.3997"
         cy="150.07"
         fill="#ADD1B2"
         rx="11"
         ry="11"
         style="stroke:#181818;stroke-width:1.0;"
         id="ellipse2" />
      <path
         d="M182.8684,156.9919 Q181.1184,156.9919 179.9778,156.2575 Q178.8528,155.5075 178.2903,154.1638 Q177.7434,152.8044 177.7434,151.0075 Q177.7434,148.9763 178.3997,147.5231 Q179.0559,146.07 180.3372,145.2888 Q181.6184,144.5075 183.4934,144.5075 Q184.3841,144.5075 185.0559,144.695 Q185.7278,144.8669 186.4153,145.2106 L185.6028,147.2263 Q184.9778,146.9138 184.4309,146.7888 Q183.8997,146.6638 183.4153,146.6638 Q182.2434,146.6638 181.5403,147.195 Q180.8372,147.7263 180.5403,148.6794 Q180.2434,149.6325 180.2434,150.8981 Q180.2434,152.9138 180.9622,153.8825 Q181.6809,154.8356 183.2747,154.8356 Q183.8684,154.8356 184.4934,154.6794 Q185.1184,154.5231 185.9466,154.1481 L185.9466,156.3669 Q185.2122,156.6794 184.4153,156.8356 Q183.6341,156.9919 182.8684,156.9919 Z "
         fill="#000000"
         id="path2" />
      <text
         fill="#000000"
         font-family="sans-serif"
         font-size="14"
         lengthAdjust="spacing"
         textLength="108.1636"
         x="203.8997"
         y="155.502"
         id="text3">ApplicationEntry</text>
      <line
         style="stroke:#181818;stroke-width:0.5;"
         x1="97.32"
         x2="386.143"
         y1="166.07"
         y2="166.07"
         id="line3" />
      <text
         fill="#000000"
         font-family="sans-serif"
         font-size="14"
         lengthAdjust="spacing"
         textLength="85.8057"
         x="102.32"
         y="185.0359"
         id="text4">appNum : int</text>
      <text
         fill="#000000"
         font-family="sans-serif"
         font-size="14"
         lengthAdjust="spacing"
         textLength="106.9876"
         x="102.32"
         y="204.1039"
         id="text5">opName : String</text>
      <text
         fill="#000000"
         font-family="sans-serif"
         font-size="14"
         lengthAdjust="spacing"
         textLength="262.051"
         x="102.32"
         y="223.1718"
         id="text6">topoParameters : List&lt;PersistentName&gt;</text>
      <text
         fill="#000000"
         font-family="sans-serif"
         font-size="14"
         lengthAdjust="spacing"
         textLength="278.823"
         x="102.32"
         y="242.2397"
         id="text7">geoParameters : List&lt;Pair&lt;String,Object&gt;&gt;</text>
      <line
         style="stroke:#181818;stroke-width:0.5;"
         x1="97.32"
         x2="386.143"
         y1="250.3417"
         y2="250.3417"
         id="line7" />
    </g>
    <!--class PersistentName-->
    <g
       id="elem_PersistentName">
      <rect
         codeLine="20"
         fill="#F1F1F1"
         height="86.1358"
         id="PersistentName"
         rx="2.5"
         ry="2.5"
         style="stroke:#181818;stroke-width:0.5;"
         width="277.467"
         x="7"
         y="318.34" />
      <ellipse
         cx="88.8297"
         cy="334.34"
         fill="#ADD1B2"
         rx="11"
         ry="11"
         style="stroke:#181818;stroke-width:1.0;"
         id="ellipse7" />
      <path
         d="M88.2984,341.2619 Q86.5484,341.2619 85.4078,340.5275 Q84.2828,339.7775 83.7203,338.4338 Q83.1734,337.0744 83.1734,335.2775 Q83.1734,333.2463 83.8297,331.7931 Q84.4859,330.34 85.7672,329.5588 Q87.0484,328.7775 88.9234,328.7775 Q89.8141,328.7775 90.4859,328.965 Q91.1578,329.1369 91.8453,329.4806 L91.0328,331.4963 Q90.4078,331.1838 89.8609,331.0588 Q89.3297,330.9338 88.8453,330.9338 Q87.6734,330.9338 86.9703,331.465 Q86.2672,331.9963 85.9703,332.9494 Q85.6734,333.9025 85.6734,335.1681 Q85.6734,337.1838 86.3922,338.1525 Q87.1109,339.1056 88.7047,339.1056 Q89.2984,339.1056 89.9234,338.9494 Q90.5484,338.7931 91.3766,338.4181 L91.3766,340.6369 Q90.6422,340.9494 89.8453,341.1056 Q89.0641,341.2619 88.2984,341.2619 Z "
         fill="#000000"
         id="path7" />
      <text
         fill="#000000"
         font-family="sans-serif"
         font-size="14"
         lengthAdjust="spacing"
         textLength="105.3076"
         x="109.3297"
         y="339.772"
         id="text8">PersistentName</text>
      <line
         style="stroke:#181818;stroke-width:0.5;"
         x1="8"
         x2="283.467"
         y1="350.34"
         y2="350.34"
         id="line8" />
      <text
         fill="#000000"
         font-family="sans-serif"
         font-size="14"
         lengthAdjust="spacing"
         textLength="265.467"
         x="13"
         y="369.3059"
         id="text9">persistentID : List&lt;PersistentIDElement&gt;</text>
      <text
         fill="#000000"
         font-family="sans-serif"
         font-size="14"
         lengthAdjust="spacing"
         textLength="150.4155"
         x="13"
         y="388.3739"
         id="text10">orbitType : JerboaOrbit</text>
      <line
         style="stroke:#181818;stroke-width:0.5;"
         x1="8"
         x2="283.467"
         y1="396.4758"
         y2="396.4758"
         id="line10" />
    </g>
    <!--class PersistentIDElement-->
    <g
       id="elem_PersistentIDElement">
      <rect
         codeLine="25"
         fill="#F1F1F1"
         height="86.1358"
         id="PersistentIDElement"
         rx="2.5"
         ry="2.5"
         style="stroke:#181818;stroke-width:0.5;"
         width="166.7775"
         x="62.34"
         y="483.55" />
      <ellipse
         cx="77.34"
         cy="499.55"
         fill="#ADD1B2"
         rx="11"
         ry="11"
         style="stroke:#181818;stroke-width:1.0;"
         id="ellipse10" />
      <path
         d="M76.8088,506.4719 Q75.0588,506.4719 73.9181,505.7375 Q72.7931,504.9875 72.2306,503.6438 Q71.6838,502.2844 71.6838,500.4875 Q71.6838,498.4563 72.34,497.0031 Q72.9963,495.55 74.2775,494.7688 Q75.5588,493.9875 77.4338,493.9875 Q78.3244,493.9875 78.9963,494.175 Q79.6681,494.3469 80.3556,494.6906 L79.5431,496.7063 Q78.9181,496.3938 78.3713,496.2688 Q77.84,496.1438 77.3556,496.1438 Q76.1838,496.1438 75.4806,496.675 Q74.7775,497.2063 74.4806,498.1594 Q74.1838,499.1125 74.1838,500.3781 Q74.1838,502.3938 74.9025,503.3625 Q75.6213,504.3156 77.215,504.3156 Q77.8088,504.3156 78.4338,504.1594 Q79.0588,504.0031 79.8869,503.6281 L79.8869,505.8469 Q79.1525,506.1594 78.3556,506.3156 Q77.5744,506.4719 76.8088,506.4719 Z "
         fill="#000000"
         id="path10" />
      <text
         fill="#000000"
         font-family="sans-serif"
         font-size="14"
         lengthAdjust="spacing"
         textLength="134.7775"
         x="91.34"
         y="504.982"
         id="text11">PersistentIDElement</text>
      <line
         style="stroke:#181818;stroke-width:0.5;"
         x1="63.34"
         x2="228.1175"
         y1="515.55"
         y2="515.55"
         id="line11" />
      <text
         fill="#000000"
         font-family="sans-serif"
         font-size="14"
         lengthAdjust="spacing"
         textLength="66.7798"
         x="68.34"
         y="534.5159"
         id="text12">appId : int</text>
      <text
         fill="#000000"
         font-family="sans-serif"
         font-size="14"
         lengthAdjust="spacing"
         textLength="123.5355"
         x="68.34"
         y="553.5839"
         id="text13">nodeName : String</text>
      <line
         style="stroke:#181818;stroke-width:0.5;"
         x1="63.34"
         x2="228.1175"
         y1="561.6858"
         y2="561.6858"
         id="line13" />
    </g>
    <!--class ApplicationType-->
    <g
       id="elem_ApplicationType">
      <rect
         codeLine="30"
         fill="#F1F1F1"
         height="124.2717"
         id="ApplicationType"
         rx="2.5"
         ry="2.5"
         style="stroke:#181818;stroke-width:0.5;"
         width="137.1816"
         x="269.14"
         y="464.48" />
      <ellipse
         cx="284.14"
         cy="480.48"
         fill="#EB937F"
         rx="11"
         ry="11"
         style="stroke:#181818;stroke-width:1.0;"
         id="ellipse13" />
      <path
         d="M280.4994,486.98 L280.4994,474.8394 L288.1556,474.8394 L288.1556,476.9644 L282.8744,476.9644 L282.8744,479.6206 L287.89,479.6206 L287.89,481.7456 L282.8744,481.7456 L282.8744,484.855 L288.1556,484.855 L288.1556,486.98 L280.4994,486.98 Z "
         fill="#000000"
         id="path13" />
      <text
         fill="#000000"
         font-family="sans-serif"
         font-size="14"
         lengthAdjust="spacing"
         textLength="105.1816"
         x="298.14"
         y="485.912"
         id="text14">ApplicationType</text>
      <line
         style="stroke:#181818;stroke-width:0.5;"
         x1="270.14"
         x2="405.3216"
         y1="496.48"
         y2="496.48"
         id="line14" />
      <text
         fill="#000000"
         font-family="sans-serif"
         font-size="14"
         lengthAdjust="spacing"
         textLength="22.0639"
         x="275.14"
         y="515.4459"
         id="text15">Init</text>
      <text
         fill="#000000"
         font-family="sans-serif"
         font-size="14"
         lengthAdjust="spacing"
         textLength="26.1659"
         x="275.14"
         y="534.5139"
         id="text16">Add</text>
      <text
         fill="#000000"
         font-family="sans-serif"
         font-size="14"
         lengthAdjust="spacing"
         textLength="42.5738"
         x="275.14"
         y="553.5818"
         id="text17">Delete</text>
      <text
         fill="#000000"
         font-family="sans-serif"
         font-size="14"
         lengthAdjust="spacing"
         textLength="36.1759"
         x="275.14"
         y="572.6497"
         id="text18">Move</text>
      <line
         style="stroke:#181818;stroke-width:0.5;"
         x1="270.14"
         x2="405.3216"
         y1="580.7517"
         y2="580.7517"
         id="line18" />
    </g>
    <!--link ParametricSpecification to ApplicationEntry-->
    <g
       id="link_ParametricSpecification_ApplicationEntry">
      <path
         codeLine="37"
         d="M241.73,86.31 C241.73,103.66 241.73,107.36 241.73,127.63 "
         fill="none"
         id="ParametricSpecification-ApplicationEntry"
         style="stroke:#181818;stroke-width:1.0;" />
      <polygon
         fill="none"
         points="241.73,74.31,237.73,80.31,241.73,86.31,245.73,80.31,241.73,74.31"
         style="stroke:#181818;stroke-width:1.0;"
         id="polygon18" />
      <polygon
         fill="#181818"
         points="241.73,133.63,245.73,124.63,241.73,128.63,237.73,124.63,241.73,133.63"
         style="stroke:#181818;stroke-width:1.0;"
         id="polygon19" />
      <text
         fill="#000000"
         font-family="sans-serif"
         font-size="13"
         lengthAdjust="spacing"
         textLength="65.5201"
         x="173.0021"
         y="122.3497"
         id="text19">appEntries</text>
    </g>
    <!--link ApplicationEntry to PersistentName-->
    <g
       id="link_ApplicationEntry_PersistentName">
      <path
         codeLine="38"
         d="M190.39,270.66 C190.39,290.4 190.39,293.77 190.39,311.88 "
         fill="none"
         id="ApplicationEntry-PersistentName"
         style="stroke:#181818;stroke-width:1.0;" />
      <polygon
         fill="none"
         points="190.39,258.66,186.39,264.66,190.39,270.66,194.39,264.66,190.39,258.66"
         style="stroke:#181818;stroke-width:1.0;"
         id="polygon20" />
      <polygon
         fill="#181818"
         points="190.39,317.88,194.39,308.88,190.39,312.88,186.39,308.88,190.39,317.88"
         style="stroke:#181818;stroke-width:1.0;"
         id="polygon21" />
      <text
         fill="#000000"
         font-family="sans-serif"
         font-size="13"
         lengthAdjust="spacing"
         textLength="7.163"
         x="177.4006"
         y="280.3562"
         id="text21">*</text>
      <text
         fill="#000000"
         font-family="sans-serif"
         font-size="13"
         lengthAdjust="spacing"
         textLength="99.3461"
         x="90.6456"
         y="306.5413"
         id="text22">topoParameters</text>
    </g>
    <!--link PersistentName to PersistentIDElement-->
    <g
       id="link_PersistentName_PersistentIDElement">
      <path
         codeLine="39"
         d="M145.73,416.82 C145.73,441 145.73,453.03 145.73,477.21 "
         fill="none"
         id="PersistentName-PersistentIDElement"
         style="stroke:#181818;stroke-width:1.0;" />
      <polygon
         fill="none"
         points="145.73,404.82,141.73,410.82,145.73,416.82,149.73,410.82,145.73,404.82"
         style="stroke:#181818;stroke-width:1.0;"
         id="polygon22" />
      <polygon
         fill="#181818"
         points="145.73,483.21,149.73,474.21,145.73,478.21,141.73,474.21,145.73,483.21"
         style="stroke:#181818;stroke-width:1.0;"
         id="polygon23" />
      <text
         fill="#000000"
         font-family="sans-serif"
         font-size="13"
         lengthAdjust="spacing"
         textLength="75.1531"
         x="64.7658"
         y="471.8904"
         id="text23">persistentID</text>
    </g>
    <!--link ApplicationEntry to ApplicationType-->
    <g
       id="link_ApplicationEntry_ApplicationType">
      <path
         codeLine="40"
         d="M335.81,270.74 C335.81,329.58 335.81,399.21 335.81,458.05 "
         fill="none"
         id="ApplicationEntry-ApplicationType"
         style="stroke:#181818;stroke-width:1.0;" />
      <polygon
         fill="#181818"
         points="335.81,258.74,331.81,264.74,335.81,270.74,339.81,264.74,335.81,258.74"
         style="stroke:#181818;stroke-width:1.0;"
         id="polygon24" />
      <polygon
         fill="#181818"
         points="335.81,464.05,339.81,455.05,335.81,459.05,331.81,455.05,335.81,464.05"
         style="stroke:#181818;stroke-width:1.0;"
         id="polygon25" />
      <text
         fill="#000000"
         font-family="sans-serif"
         font-size="13"
         lengthAdjust="spacing"
         textLength="52.468"
         x="280.6087"
         y="452.7708"
         id="text25">appType</text>
    </g>
    <!--SRC=[TLBTQi8m5BxFKnno8yYaknOf5Ef5nwQ2Uu6qFNFPsYIaSU36tdqdNOrfrTmqEUTyF_sIxbCg8wneeP4AtSaWQElUDKjc36RGXNRLYAxBdBEoF3eiAgtsyXlXaQOInleky9qVHPgfzWOh-IOhuQHM_8V1i5IP6TF14gHoeUYrpci6mfYr8WxqOvcrulGiExSYN3Fm-VOfZJ09-mqUfdEHE35lZkr4N9iDUQRYdZJL8TITDdhu7xJUIkzYHtlwed8UTV5mm5l3GjhLF-t3jlp0ogLfv7JC5Va44pf5VgrSvEi6Mzf44MXRIlVghsy9JsXBBRQ-SbCjuCVH5FKa6QLh76T3RAWemJXaBneH5KfU6BAw3liS6med75_q5tg-Eqy6z6AH0h-y1GxJYsNJ0l0v7t3Zo-CmZfgDZmCc3Zr6XBYk1UUBiyi-1PZ4mlu0]-->
  </g>
</svg>
