<?xml version="1.0" encoding="UTF-8" standalone="no"?>
<svg
   contentStyleType="text/css"
   height="1078px"
   preserveAspectRatio="none"
   style="width:742px;height:1078px;background:#FFFFFF;"
   version="1.1"
   viewBox="0 0 742 1078"
   width="742px"
   zoomAndPan="magnify"
   id="svg55"
   sodipodi:docname="class-diagram-rt-datastructure.svg"
   inkscape:version="1.4 (e7c3feb100, 2024-10-09)"
   xmlns:inkscape="http://www.inkscape.org/namespaces/inkscape"
   xmlns:sodipodi="http://sodipodi.sourceforge.net/DTD/sodipodi-0.dtd"
   xmlns="http://www.w3.org/2000/svg"
   xmlns:svg="http://www.w3.org/2000/svg">
  <sodipodi:namedview
     id="namedview55"
     pagecolor="#ffffff"
     bordercolor="#000000"
     borderopacity="0.25"
     inkscape:showpageshadow="2"
     inkscape:pageopacity="0.0"
     inkscape:pagecheckerboard="0"
     inkscape:deskcolor="#d1d1d1"
     inkscape:zoom="0.82745826"
     inkscape:cx="371.0157"
     inkscape:cy="539"
     inkscape:window-width="1910"
     inkscape:window-height="1053"
     inkscape:window-x="1920"
     inkscape:window-y="17"
     inkscape:window-maximized="1"
     inkscape:current-layer="svg55" />
  <defs
     id="defs1" />
  <g
     id="g55">
    <!--class ReevaluationDAG-->
    <g
       id="elem_ReevaluationDAG">
      <rect
         codeLine="6"
         fill="#F1F1F1"
         height="86.1358"
         id="ReevaluationDAG"
         rx="2.5"
         ry="2.5"
         style="stroke:#181818;stroke-width:0.5;"
         width="296.577"
         x="27.68"
         y="7" />
      <ellipse
         cx="114.3537"
         cy="23"
         fill="#ADD1B2"
         rx="11"
         ry="11"
         style="stroke:#181818;stroke-width:1.0;"
         id="ellipse1" />
      <path
         d="M113.8225,29.9219 Q112.0725,29.9219 110.9319,29.1875 Q109.8069,28.4375 109.2444,27.0938 Q108.6975,25.7344 108.6975,23.9375 Q108.6975,21.9063 109.3537,20.4531 Q110.01,19 111.2912,18.2188 Q112.5725,17.4375 114.4475,17.4375 Q115.3381,17.4375 116.01,17.625 Q116.6819,17.7969 117.3694,18.1406 L116.5569,20.1563 Q115.9319,19.8438 115.385,19.7188 Q114.8537,19.5938 114.3694,19.5938 Q113.1975,19.5938 112.4944,20.125 Q111.7912,20.6563 111.4944,21.6094 Q111.1975,22.5625 111.1975,23.8281 Q111.1975,25.8438 111.9162,26.8125 Q112.635,27.7656 114.2287,27.7656 Q114.8225,27.7656 115.4475,27.6094 Q116.0725,27.4531 116.9006,27.0781 L116.9006,29.2969 Q116.1662,29.6094 115.3694,29.7656 Q114.5881,29.9219 113.8225,29.9219 Z "
         fill="#000000"
         id="path1" />
      <text
         fill="#000000"
         font-family="sans-serif"
         font-size="14"
         lengthAdjust="spacing"
         textLength="114.7295"
         x="134.8537"
         y="28.432"
         id="text1">ReevaluationDAG</text>
      <line
         style="stroke:#181818;stroke-width:0.5;"
         x1="28.68"
         x2="323.257"
         y1="39"
         y2="39"
         id="line1" />
      <polygon
         fill="none"
         points="38.68,49.034,42.68,53.034,38.68,57.034,34.68,53.034"
         style="stroke:#B38D22;stroke-width:1.0;"
         id="polygon1" />
      <text
         fill="#000000"
         font-family="sans-serif"
         font-size="14"
         lengthAdjust="spacing"
         textLength="270.577"
         x="47.68"
         y="57.9659"
         id="text2">topologicalParameters : List&lt;JerboaDart&gt;</text>
      <polygon
         fill="none"
         points="38.68,68.1019,42.68,72.1019,38.68,76.1019,34.68,72.1019"
         style="stroke:#B38D22;stroke-width:1.0;"
         id="polygon2" />
      <text
         fill="#000000"
         font-family="sans-serif"
         font-size="14"
         lengthAdjust="spacing"
         textLength="266.1249"
         x="47.68"
         y="77.0339"
         id="text3">addedBranches : List&lt;EventLevelReeval&gt;</text>
      <line
         style="stroke:#181818;stroke-width:0.5;"
         x1="28.68"
         x2="323.257"
         y1="85.1358"
         y2="85.1358"
         id="line3" />
    </g>
    <!--class EventLevel-->
    <g
       id="elem_EventLevel">
      <rect
         codeLine="11"
         fill="#F1F1F1"
         height="162.4075"
         id="EventLevel"
         rx="2.5"
         ry="2.5"
         style="stroke:#181818;stroke-width:0.5;"
         width="280.687"
         x="349.62"
         y="153.14" />
      <ellipse
         cx="453.5696"
         cy="169.14"
         fill="#A9DCDF"
         rx="11"
         ry="11"
         style="stroke:#181818;stroke-width:1.0;"
         id="ellipse3" />
      <path
         d="M448.7415,174.89 L452.0852,162.7025 L455.2259,162.7025 L458.6009,174.89 L456.1321,174.89 L455.3977,171.8744 L451.8821,171.8744 L451.1321,174.89 L448.7415,174.89 Z M453.1477,166.8431 L452.3977,169.8431 L454.9134,169.8431 L454.1946,166.8431 Q454.054,166.265 453.929,165.7181 Q453.804,165.1556 453.6634,164.5775 Q453.554,165.1556 453.4134,165.7181 Q453.2727,166.265 453.1477,166.8431 Z "
         fill="#000000"
         id="path3" />
      <text
         fill="#000000"
         font-family="sans-serif"
         font-size="14"
         font-style="italic"
         lengthAdjust="spacing"
         textLength="64.2878"
         x="474.0696"
         y="174.572"
         id="text4">EventLevel</text>
      <line
         style="stroke:#181818;stroke-width:0.5;"
         x1="350.62"
         x2="629.307"
         y1="185.14"
         y2="185.14"
         id="line4" />
      <polygon
         fill="none"
         points="360.62,195.174,364.62,199.174,360.62,203.174,356.62,199.174"
         style="stroke:#B38D22;stroke-width:1.0;"
         id="polygon4" />
      <text
         fill="#000000"
         font-family="sans-serif"
         font-size="14"
         lengthAdjust="spacing"
         textLength="108.0936"
         x="369.62"
         y="204.1059"
         id="text5">appNumber : int</text>
      <polygon
         fill="none"
         points="360.62,214.2419,364.62,218.2419,360.62,222.2419,356.62,218.2419"
         style="stroke:#B38D22;stroke-width:1.0;"
         id="polygon5" />
      <text
         fill="#000000"
         font-family="sans-serif"
         font-size="14"
         lengthAdjust="spacing"
         textLength="172.7173"
         x="369.62"
         y="223.1739"
         id="text6">appType : ApplicationType</text>
      <polygon
         fill="none"
         points="360.62,233.3098,364.62,237.3098,360.62,241.3098,356.62,237.3098"
         style="stroke:#B38D22;stroke-width:1.0;"
         id="polygon6" />
      <text
         fill="#000000"
         font-family="sans-serif"
         font-size="14"
         lengthAdjust="spacing"
         textLength="181.1873"
         x="369.62"
         y="242.2418"
         id="text7">eventList : List&lt;EventNode&gt;</text>
      <line
         style="stroke:#181818;stroke-width:0.5;"
         x1="350.62"
         x2="629.307"
         y1="250.3438"
         y2="250.3438"
         id="line7" />
      <ellipse
         cx="360.62"
         cy="265.3777"
         fill="#84BE84"
         rx="3"
         ry="3"
         style="stroke:#038048;stroke-width:1.0;"
         id="ellipse7" />
      <text
         fill="#000000"
         font-family="sans-serif"
         font-size="14"
         lengthAdjust="spacing"
         textLength="139.1455"
         x="369.62"
         y="269.3097"
         id="text8">getAppNumber() : int</text>
      <ellipse
         cx="360.62"
         cy="284.4456"
         fill="#84BE84"
         rx="3"
         ry="3"
         style="stroke:#038048;stroke-width:1.0;"
         id="ellipse8" />
      <text
         fill="#000000"
         font-family="sans-serif"
         font-size="14"
         lengthAdjust="spacing"
         textLength="211.0352"
         x="369.62"
         y="288.3776"
         id="text9">getEventList() : List&lt;EventNode&gt;</text>
      <ellipse
         cx="360.62"
         cy="303.5135"
         fill="#84BE84"
         rx="3"
         ry="3"
         style="stroke:#038048;stroke-width:1.0;"
         id="ellipse9" />
      <text
         fill="#000000"
         font-family="sans-serif"
         font-size="14"
         lengthAdjust="spacing"
         textLength="254.687"
         x="369.62"
         y="307.4455"
         id="text10">addEvent(EventNode nodeEvent) : void</text>
    </g>
    <!--class EventLevelReeval-->
    <g
       id="elem_EventLevelReeval">
      <rect
         codeLine="20"
         fill="#F1F1F1"
         height="86.1358"
         id="EventLevelReeval"
         rx="2.5"
         ry="2.5"
         style="stroke:#181818;stroke-width:0.5;"
         width="276.753"
         x="37.59"
         y="191.27" />
      <ellipse
         cx="115.0027"
         cy="207.27"
         fill="#ADD1B2"
         rx="11"
         ry="11"
         style="stroke:#181818;stroke-width:1.0;"
         id="ellipse10" />
      <path
         d="M114.4715,214.1919 Q112.7215,214.1919 111.5809,213.4575 Q110.4559,212.7075 109.8934,211.3638 Q109.3465,210.0044 109.3465,208.2075 Q109.3465,206.1763 110.0027,204.7231 Q110.659,203.27 111.9402,202.4888 Q113.2215,201.7075 115.0965,201.7075 Q115.9871,201.7075 116.659,201.895 Q117.3309,202.0669 118.0184,202.4106 L117.2059,204.4263 Q116.5809,204.1138 116.034,203.9888 Q115.5027,203.8638 115.0184,203.8638 Q113.8465,203.8638 113.1434,204.395 Q112.4402,204.9263 112.1434,205.8794 Q111.8465,206.8325 111.8465,208.0981 Q111.8465,210.1138 112.5652,211.0825 Q113.284,212.0356 114.8777,212.0356 Q115.4715,212.0356 116.0965,211.8794 Q116.7215,211.7231 117.5496,211.3481 L117.5496,213.5669 Q116.8152,213.8794 116.0184,214.0356 Q115.2371,214.1919 114.4715,214.1919 Z "
         fill="#000000"
         id="path10" />
      <text
         fill="#000000"
         font-family="sans-serif"
         font-size="14"
         lengthAdjust="spacing"
         textLength="113.4275"
         x="135.5027"
         y="212.702"
         id="text11">EventLevelReeval</text>
      <line
         style="stroke:#181818;stroke-width:0.5;"
         x1="38.59"
         x2="313.343"
         y1="223.27"
         y2="223.27"
         id="line11" />
      <polygon
         fill="none"
         points="48.59,233.304,52.59,237.304,48.59,241.304,44.59,237.304"
         style="stroke:#B38D22;stroke-width:1.0;"
         id="polygon11" />
      <text
         fill="#000000"
         font-family="sans-serif"
         font-size="14"
         lengthAdjust="spacing"
         textLength="218.8051"
         x="57.59"
         y="242.2359"
         id="text12">nextOrbitLevel : OrbitLevelReeval</text>
      <line
         style="stroke:#181818;stroke-width:0.5;"
         x1="38.59"
         x2="313.343"
         y1="250.3379"
         y2="250.3379"
         id="line12" />
      <ellipse
         cx="48.59"
         cy="265.3719"
         fill="#84BE84"
         rx="3"
         ry="3"
         style="stroke:#038048;stroke-width:1.0;"
         id="ellipse12" />
      <text
         fill="#000000"
         font-family="sans-serif"
         font-size="14"
         lengthAdjust="spacing"
         textLength="250.753"
         x="57.59"
         y="269.3039"
         id="text13">getNextOrbitLevel() : OrbitLevelReeval</text>
    </g>
    <!--class OrbitNode-->
    <g
       id="elem_OrbitNode">
      <rect
         codeLine="32"
         fill="#F1F1F1"
         height="105.2038"
         id="OrbitNode"
         rx="2.5"
         ry="2.5"
         style="stroke:#181818;stroke-width:0.5;"
         width="191.0034"
         x="183.46"
         y="597.95" />
      <ellipse
         cx="239.9078"
         cy="613.95"
         fill="#ADD1B2"
         rx="11"
         ry="11"
         style="stroke:#181818;stroke-width:1.0;"
         id="ellipse13" />
      <path
         d="M239.3766,620.8719 Q237.6266,620.8719 236.4859,620.1375 Q235.3609,619.3875 234.7984,618.0438 Q234.2516,616.6844 234.2516,614.8875 Q234.2516,612.8563 234.9078,611.4031 Q235.5641,609.95 236.8453,609.1688 Q238.1266,608.3875 240.0016,608.3875 Q240.8922,608.3875 241.5641,608.575 Q242.2359,608.7469 242.9234,609.0906 L242.1109,611.1063 Q241.4859,610.7938 240.9391,610.6688 Q240.4078,610.5438 239.9234,610.5438 Q238.7516,610.5438 238.0484,611.075 Q237.3453,611.6063 237.0484,612.5594 Q236.7516,613.5125 236.7516,614.7781 Q236.7516,616.7938 237.4703,617.7625 Q238.1891,618.7156 239.7828,618.7156 Q240.3766,618.7156 241.0016,618.5594 Q241.6266,618.4031 242.4547,618.0281 L242.4547,620.2469 Q241.7203,620.5594 240.9234,620.7156 Q240.1422,620.8719 239.3766,620.8719 Z "
         fill="#000000"
         id="path13" />
      <text
         fill="#000000"
         font-family="sans-serif"
         font-size="14"
         lengthAdjust="spacing"
         textLength="69.6077"
         x="260.4078"
         y="619.382"
         id="text14">OrbitNode</text>
      <line
         style="stroke:#181818;stroke-width:0.5;"
         x1="184.46"
         x2="373.4634"
         y1="629.95"
         y2="629.95"
         id="line14" />
      <rect
         fill="none"
         height="6"
         style="stroke:#C82930;stroke-width:1.0;"
         width="6"
         x="191.46"
         y="641.984"
         id="rect14" />
      <text
         fill="#000000"
         font-family="sans-serif"
         font-size="14"
         lengthAdjust="spacing"
         textLength="118.9856"
         x="203.46"
         y="648.9159"
         id="text15">JerboaOrbit : orbit</text>
      <rect
         fill="none"
         height="6"
         style="stroke:#C82930;stroke-width:1.0;"
         width="6"
         x="191.46"
         y="661.0519"
         id="rect15" />
      <text
         fill="#000000"
         font-family="sans-serif"
         font-size="14"
         lengthAdjust="spacing"
         textLength="165.0034"
         x="203.46"
         y="667.9839"
         id="text16">alphaPath : List&lt;Integer&gt;</text>
      <rect
         fill="none"
         height="6"
         style="stroke:#C82930;stroke-width:1.0;"
         width="6"
         x="191.46"
         y="680.1198"
         id="rect16" />
      <text
         fill="#000000"
         font-family="sans-serif"
         font-size="14"
         lengthAdjust="spacing"
         textLength="111.9296"
         x="203.46"
         y="687.0518"
         id="text17">branchIndex : int</text>
      <line
         style="stroke:#181818;stroke-width:0.5;"
         x1="184.46"
         x2="373.4634"
         y1="695.1538"
         y2="695.1538"
         id="line17" />
    </g>
    <!--class OrbitLevel-->
    <g
       id="elem_OrbitLevel">
      <rect
         codeLine="38"
         fill="#F1F1F1"
         height="67.0679"
         id="OrbitLevel"
         rx="2.5"
         ry="2.5"
         style="stroke:#181818;stroke-width:0.5;"
         width="199.5993"
         x="536.17"
         y="423.22" />
      <ellipse
         cx="600.2968"
         cy="439.22"
         fill="#A9DCDF"
         rx="11"
         ry="11"
         style="stroke:#181818;stroke-width:1.0;"
         id="ellipse17" />
      <path
         d="M595.4687,444.97 L598.8124,432.7825 L601.953,432.7825 L605.328,444.97 L602.8593,444.97 L602.1249,441.9544 L598.6093,441.9544 L597.8593,444.97 L595.4687,444.97 Z M599.8749,436.9231 L599.1249,439.9231 L601.6405,439.9231 L600.9218,436.9231 Q600.7812,436.345 600.6562,435.7981 Q600.5312,435.2356 600.3905,434.6575 Q600.2812,435.2356 600.1405,435.7981 Q599.9999,436.345 599.8749,436.9231 Z "
         fill="#000000"
         id="path17" />
      <text
         fill="#000000"
         font-family="sans-serif"
         font-size="14"
         font-style="italic"
         lengthAdjust="spacing"
         textLength="62.8458"
         x="620.7968"
         y="444.652"
         id="text18">OrbitLevel</text>
      <line
         style="stroke:#181818;stroke-width:0.5;"
         x1="537.17"
         x2="734.7693"
         y1="455.22"
         y2="455.22"
         id="line18" />
      <polygon
         fill="none"
         points="547.17,465.254,551.17,469.254,547.17,473.254,543.17,469.254"
         style="stroke:#B38D22;stroke-width:1.0;"
         id="polygon18" />
      <text
         fill="#000000"
         font-family="sans-serif"
         font-size="14"
         lengthAdjust="spacing"
         textLength="173.5993"
         x="556.17"
         y="474.1859"
         id="text19">orbitList : List&lt;OrbitNode&gt;</text>
      <line
         style="stroke:#181818;stroke-width:0.5;"
         x1="537.17"
         x2="734.7693"
         y1="482.2879"
         y2="482.2879"
         id="line19" />
    </g>
    <!--class OrbitLevelReeval-->
    <g
       id="elem_OrbitLevelReeval">
      <rect
         codeLine="42"
         fill="#F1F1F1"
         height="162.4075"
         id="OrbitLevelReeval"
         rx="2.5"
         ry="2.5"
         style="stroke:#181818;stroke-width:0.5;"
         width="397.4885"
         x="103.22"
         y="375.55" />
      <ellipse
         cx="242.2535"
         cy="391.55"
         fill="#ADD1B2"
         rx="11"
         ry="11"
         style="stroke:#181818;stroke-width:1.0;"
         id="ellipse19" />
      <path
         d="M241.7222,398.4719 Q239.9722,398.4719 238.8316,397.7375 Q237.7066,396.9875 237.1441,395.6438 Q236.5972,394.2844 236.5972,392.4875 Q236.5972,390.4563 237.2535,389.0031 Q237.9097,387.55 239.191,386.7688 Q240.4722,385.9875 242.3472,385.9875 Q243.2378,385.9875 243.9097,386.175 Q244.5816,386.3469 245.2691,386.6906 L244.4566,388.7063 Q243.8316,388.3938 243.2847,388.2688 Q242.7535,388.1438 242.2691,388.1438 Q241.0972,388.1438 240.3941,388.675 Q239.691,389.2063 239.3941,390.1594 Q239.0972,391.1125 239.0972,392.3781 Q239.0972,394.3938 239.816,395.3625 Q240.5347,396.3156 242.1285,396.3156 Q242.7222,396.3156 243.3472,396.1594 Q243.9722,396.0031 244.8003,395.6281 L244.8003,397.8469 Q244.066,398.1594 243.2691,398.3156 Q242.4878,398.4719 241.7222,398.4719 Z "
         fill="#000000"
         id="path19" />
      <text
         fill="#000000"
         font-family="sans-serif"
         font-size="14"
         lengthAdjust="spacing"
         textLength="110.9216"
         x="262.7535"
         y="396.982"
         id="text20">OrbitLevelReeval</text>
      <line
         style="stroke:#181818;stroke-width:0.5;"
         x1="104.22"
         x2="499.7085"
         y1="407.55"
         y2="407.55"
         id="line20" />
      <rect
         fill="none"
         height="6"
         style="stroke:#C82930;stroke-width:1.0;"
         width="6"
         x="111.22"
         y="419.584"
         id="rect20" />
      <text
         fill="#000000"
         font-family="sans-serif"
         font-size="14"
         lengthAdjust="spacing"
         textLength="101.9336"
         x="123.22"
         y="426.5159"
         id="text21">dartID : Integer</text>
      <rect
         fill="none"
         height="6"
         style="stroke:#C82930;stroke-width:1.0;"
         width="6"
         x="111.22"
         y="438.6519"
         id="rect21" />
      <text
         fill="#000000"
         font-family="sans-serif"
         font-size="14"
         lengthAdjust="spacing"
         textLength="269.2469"
         x="123.22"
         y="445.5839"
         id="text22">nextEventLevels : List&lt;EventLevelReeval&gt;</text>
      <line
         style="stroke:#181818;stroke-width:0.5;"
         x1="104.22"
         x2="499.7085"
         y1="453.6858"
         y2="453.6858"
         id="line22" />
      <ellipse
         cx="114.22"
         cy="468.7198"
         fill="#84BE84"
         rx="3"
         ry="3"
         style="stroke:#038048;stroke-width:1.0;"
         id="ellipse22" />
      <text
         fill="#000000"
         font-family="sans-serif"
         font-size="14"
         lengthAdjust="spacing"
         textLength="155.4834"
         x="123.22"
         y="472.6518"
         id="text23">getNodeName() : String</text>
      <ellipse
         cx="114.22"
         cy="487.7877"
         fill="#84BE84"
         rx="3"
         ry="3"
         style="stroke:#038048;stroke-width:1.0;"
         id="ellipse23" />
      <text
         fill="#000000"
         font-family="sans-serif"
         font-size="14"
         lengthAdjust="spacing"
         textLength="301.1948"
         x="123.22"
         y="491.7197"
         id="text24">getNextEventLevels() : List&lt;EventLevelReeval&gt;</text>
      <ellipse
         cx="114.22"
         cy="506.8556"
         fill="#84BE84"
         rx="3"
         ry="3"
         style="stroke:#038048;stroke-width:1.0;"
         id="ellipse24" />
      <text
         fill="#000000"
         font-family="sans-serif"
         font-size="14"
         lengthAdjust="spacing"
         textLength="206.0232"
         x="123.22"
         y="510.7876"
         id="text25">getOrbitList() : List&lt;OrbitNode&gt;</text>
      <ellipse
         cx="114.22"
         cy="525.9235"
         fill="#84BE84"
         rx="3"
         ry="3"
         style="stroke:#038048;stroke-width:1.0;"
         id="ellipse25" />
      <text
         fill="#000000"
         font-family="sans-serif"
         font-size="14"
         lengthAdjust="spacing"
         textLength="371.4885"
         x="123.22"
         y="529.8555"
         id="text26">getNextEventLevelAtIndex( int index ) : EventLevelReeval</text>
    </g>
    <!--class EventNode-->
    <g
       id="elem_EventNode">
      <rect
         codeLine="60"
         fill="#F1F1F1"
         height="67.0679"
         id="EventNode"
         rx="2.5"
         ry="2.5"
         style="stroke:#181818;stroke-width:0.5;"
         width="137.9296"
         x="7"
         y="617.02" />
      <ellipse
         cx="37.2171"
         cy="633.02"
         fill="#ADD1B2"
         rx="11"
         ry="11"
         style="stroke:#181818;stroke-width:1.0;"
         id="ellipse26" />
      <path
         d="M36.6859,639.9419 Q34.9359,639.9419 33.7953,639.2075 Q32.6703,638.4575 32.1078,637.1138 Q31.5609,635.7544 31.5609,633.9575 Q31.5609,631.9263 32.2171,630.4731 Q32.8734,629.02 34.1546,628.2388 Q35.4359,627.4575 37.3109,627.4575 Q38.2015,627.4575 38.8734,627.645 Q39.5453,627.8169 40.2328,628.1606 L39.4203,630.1763 Q38.7953,629.8638 38.2484,629.7388 Q37.7171,629.6138 37.2328,629.6138 Q36.0609,629.6138 35.3578,630.145 Q34.6546,630.6763 34.3578,631.6294 Q34.0609,632.5825 34.0609,633.8481 Q34.0609,635.8638 34.7796,636.8325 Q35.4984,637.7856 37.0921,637.7856 Q37.6859,637.7856 38.3109,637.6294 Q38.9359,637.4731 39.764,637.0981 L39.764,639.3169 Q39.0296,639.6294 38.2328,639.7856 Q37.4515,639.9419 36.6859,639.9419 Z "
         fill="#000000"
         id="path26" />
      <text
         fill="#000000"
         font-family="sans-serif"
         font-size="14"
         lengthAdjust="spacing"
         textLength="72.1137"
         x="54.5987"
         y="638.452"
         id="text27">EventNode</text>
      <line
         style="stroke:#181818;stroke-width:0.5;"
         x1="8"
         x2="143.9296"
         y1="649.02"
         y2="649.02"
         id="line27" />
      <rect
         fill="none"
         height="6"
         style="stroke:#C82930;stroke-width:1.0;"
         width="6"
         x="15"
         y="661.054"
         id="rect27" />
      <text
         fill="#000000"
         font-family="sans-serif"
         font-size="14"
         lengthAdjust="spacing"
         textLength="111.9296"
         x="27"
         y="667.9859"
         id="text28">branchIndex : int</text>
      <line
         style="stroke:#181818;stroke-width:0.5;"
         x1="8"
         x2="143.9296"
         y1="676.0879"
         y2="676.0879"
         id="line28" />
    </g>
    <!--class LinkType-->
    <g
       id="elem_LinkType">
      <rect
         codeLine="65"
         fill="#F1F1F1"
         height="86.1358"
         id="LinkType"
         rx="2.5"
         ry="2.5"
         style="stroke:#181818;stroke-width:0.5;"
         width="90.5058"
         x="233.71"
         y="985.56" />
      <ellipse
         cx="248.71"
         cy="1001.56"
         fill="#EB937F"
         rx="11"
         ry="11"
         style="stroke:#181818;stroke-width:1.0;"
         id="ellipse28" />
      <path
         d="M245.0694,1008.06 L245.0694,995.9194 L252.7256,995.9194 L252.7256,998.0444 L247.4444,998.0444 L247.4444,1000.7006 L252.46,1000.7006 L252.46,1002.8256 L247.4444,1002.8256 L247.4444,1005.935 L252.7256,1005.935 L252.7256,1008.06 L245.0694,1008.06 Z "
         fill="#000000"
         id="path28" />
      <text
         fill="#000000"
         font-family="sans-serif"
         font-size="14"
         lengthAdjust="spacing"
         textLength="58.5058"
         x="262.71"
         y="1006.992"
         id="text29">LinkType</text>
      <line
         style="stroke:#181818;stroke-width:0.5;"
         x1="234.71"
         x2="323.2158"
         y1="1017.56"
         y2="1017.56"
         id="line29" />
      <text
         fill="#000000"
         font-family="sans-serif"
         font-size="14"
         lengthAdjust="spacing"
         textLength="49.9658"
         x="239.71"
         y="1036.5259"
         id="text30">ORIGIN</text>
      <text
         fill="#000000"
         font-family="sans-serif"
         font-size="14"
         lengthAdjust="spacing"
         textLength="42.0698"
         x="239.71"
         y="1055.5939"
         id="text31">TRACE</text>
      <line
         style="stroke:#181818;stroke-width:0.5;"
         x1="234.71"
         x2="323.2158"
         y1="1063.6958"
         y2="1063.6958"
         id="line31" />
    </g>
    <!--class Event-->
    <g
       id="elem_Event">
      <rect
         codeLine="70"
         fill="#F1F1F1"
         height="162.4075"
         id="Event"
         rx="2.5"
         ry="2.5"
         style="stroke:#181818;stroke-width:0.5;"
         width="114.5076"
         x="14.71"
         y="763.16" />
      <ellipse
         cx="50.4144"
         cy="779.16"
         fill="#EB937F"
         rx="11"
         ry="11"
         style="stroke:#181818;stroke-width:1.0;"
         id="ellipse31" />
      <path
         d="M46.7738,785.66 L46.7738,773.5194 L54.43,773.5194 L54.43,775.6444 L49.1488,775.6444 L49.1488,778.3006 L54.1644,778.3006 L54.1644,780.4256 L49.1488,780.4256 L49.1488,783.535 L54.43,783.535 L54.43,785.66 L46.7738,785.66 Z "
         fill="#000000"
         id="path31" />
      <text
         fill="#000000"
         font-family="sans-serif"
         font-size="14"
         lengthAdjust="spacing"
         textLength="36.4978"
         x="69.0154"
         y="784.592"
         id="text32">Event</text>
      <line
         style="stroke:#181818;stroke-width:0.5;"
         x1="15.71"
         x2="128.2176"
         y1="795.16"
         y2="795.16"
         id="line32" />
      <text
         fill="#000000"
         font-family="sans-serif"
         font-size="14"
         lengthAdjust="spacing"
         textLength="68.3897"
         x="20.71"
         y="814.1259"
         id="text33">CREATION</text>
      <text
         fill="#000000"
         font-family="sans-serif"
         font-size="14"
         lengthAdjust="spacing"
         textLength="93.0437"
         x="20.71"
         y="833.1939"
         id="text34">SUPPRESSION</text>
      <text
         fill="#000000"
         font-family="sans-serif"
         font-size="14"
         lengthAdjust="spacing"
         textLength="36.0219"
         x="20.71"
         y="852.2618"
         id="text35">SPLIT</text>
      <text
         fill="#000000"
         font-family="sans-serif"
         font-size="14"
         lengthAdjust="spacing"
         textLength="47.1658"
         x="20.71"
         y="871.3297"
         id="text36">MERGE</text>
      <text
         fill="#000000"
         font-family="sans-serif"
         font-size="14"
         lengthAdjust="spacing"
         textLength="68.3057"
         x="20.71"
         y="890.3976"
         id="text37">NOEFFECT</text>
      <text
         fill="#000000"
         font-family="sans-serif"
         font-size="14"
         lengthAdjust="spacing"
         textLength="102.5076"
         x="20.71"
         y="909.4655"
         id="text38">MODIFICATION</text>
      <line
         style="stroke:#181818;stroke-width:0.5;"
         x1="15.71"
         x2="128.2176"
         y1="917.5675"
         y2="917.5675"
         id="line38" />
    </g>
    <!--class Link-->
    <g
       id="elem_Link">
      <rect
         codeLine="80"
         fill="#F1F1F1"
         height="67.0679"
         id="Link"
         rx="2.5"
         ry="2.5"
         style="stroke:#181818;stroke-width:0.5;"
         width="230.3431"
         x="163.79"
         y="810.83" />
      <ellipse
         cx="261.1736"
         cy="826.83"
         fill="#ADD1B2"
         rx="11"
         ry="11"
         style="stroke:#181818;stroke-width:1.0;"
         id="ellipse38" />
      <path
         d="M260.6424,833.7519 Q258.8924,833.7519 257.7517,833.0175 Q256.6267,832.2675 256.0642,830.9238 Q255.5174,829.5644 255.5174,827.7675 Q255.5174,825.7363 256.1736,824.2831 Q256.8299,822.83 258.1111,822.0488 Q259.3924,821.2675 261.2674,821.2675 Q262.158,821.2675 262.8299,821.455 Q263.5017,821.6269 264.1892,821.9706 L263.3767,823.9863 Q262.7517,823.6738 262.2049,823.5488 Q261.6736,823.4238 261.1892,823.4238 Q260.0174,823.4238 259.3142,823.955 Q258.6111,824.4863 258.3142,825.4394 Q258.0174,826.3925 258.0174,827.6581 Q258.0174,829.6738 258.7361,830.6425 Q259.4549,831.5956 261.0486,831.5956 Q261.6424,831.5956 262.2674,831.4394 Q262.8924,831.2831 263.7205,830.9081 L263.7205,833.1269 Q262.9861,833.4394 262.1892,833.5956 Q261.408,833.7519 260.6424,833.7519 Z "
         fill="#000000"
         id="path38" />
      <text
         fill="#000000"
         font-family="sans-serif"
         font-size="14"
         lengthAdjust="spacing"
         textLength="27.0759"
         x="281.6736"
         y="832.262"
         id="text39">Link</text>
      <line
         style="stroke:#181818;stroke-width:0.5;"
         x1="164.79"
         x2="393.1331"
         y1="842.83"
         y2="842.83"
         id="line39" />
      <text
         fill="#000000"
         font-family="sans-serif"
         font-size="14"
         lengthAdjust="spacing"
         textLength="218.3431"
         x="169.79"
         y="861.7959"
         id="text40">child : Pair&lt;LinkType,EventNode&gt;</text>
      <line
         style="stroke:#181818;stroke-width:0.5;"
         x1="164.79"
         x2="393.1331"
         y1="869.8979"
         y2="869.8979"
         id="line40" />
    </g>
    <!--link EventLevelReeval to EventLevel-->
    <g
       id="link_EventLevelReeval_EventLevel">
      <path
         codeLine="85"
         d="M314.6,234.34 C326.1,234.34 319.74,234.34 331.25,234.34 "
         fill="none"
         id="EventLevelReeval-to-EventLevel"
         style="stroke:#181818;stroke-width:1.0;" />
      <polygon
         fill="none"
         points="349.25,234.34,331.25,228.34,331.25,240.34,349.25,234.34"
         style="stroke:#181818;stroke-width:1.0;"
         id="polygon40" />
    </g>
    <!--link OrbitLevelReeval to OrbitLevel-->
    <g
       id="link_OrbitLevelReeval_OrbitLevel">
      <path
         codeLine="86"
         d="M501.08,456.75 C512.95,456.75 506.6,456.75 517.77,456.75 "
         fill="none"
         id="OrbitLevelReeval-to-OrbitLevel"
         style="stroke:#181818;stroke-width:1.0;" />
      <polygon
         fill="none"
         points="535.77,456.75,517.77,450.75,517.77,462.75,535.77,456.75"
         style="stroke:#181818;stroke-width:1.0;"
         id="polygon41" />
    </g>
    <!--link ReevaluationDAG to EventLevelReeval-->
    <g
       id="link_ReevaluationDAG_EventLevelReeval">
      <path
         codeLine="88"
         d="M175.96,105.27 C175.96,134.74 175.96,155.61 175.96,185.09 "
         fill="none"
         id="ReevaluationDAG-EventLevelReeval"
         style="stroke:#181818;stroke-width:1.0;" />
      <polygon
         fill="none"
         points="175.96,93.27,171.96,99.27,175.96,105.27,179.96,99.27,175.96,93.27"
         style="stroke:#181818;stroke-width:1.0;"
         id="polygon42" />
      <polygon
         fill="#181818"
         points="175.96,191.09,179.96,182.09,175.96,186.09,171.96,182.09,175.96,191.09"
         style="stroke:#181818;stroke-width:1.0;"
         id="polygon43" />
      <text
         fill="#000000"
         font-family="sans-serif"
         font-size="13"
         lengthAdjust="spacing"
         textLength="25.753"
         x="149.1023"
         y="115.1379"
         id="text43">1…n</text>
      <text
         fill="#000000"
         font-family="sans-serif"
         font-size="13"
         lengthAdjust="spacing"
         textLength="24.726"
         x="150.0315"
         y="179.4747"
         id="text44">tree</text>
    </g>
    <!--reverse link EventLevelReeval to OrbitLevelReeval-->
    <g
       id="link_EventLevelReeval_OrbitLevelReeval">
      <path
         codeLine="90"
         d="M208.78,283.75 C208.78,311.44 208.78,342.19 208.78,375.18 "
         fill="none"
         id="EventLevelReeval-backto-OrbitLevelReeval"
         style="stroke:#181818;stroke-width:1.0;" />
      <polygon
         fill="#181818"
         points="208.78,277.75,204.78,286.75,208.78,282.75,212.78,286.75,208.78,277.75"
         style="stroke:#181818;stroke-width:1.0;"
         id="polygon44" />
    </g>
    <!--link OrbitLevelReeval to OrbitNode-->
    <g
       id="link_OrbitLevelReeval_OrbitNode">
      <path
         codeLine="91"
         d="M278.96,538.38 C278.96,558.45 278.96,579.41 278.96,597.71 "
         fill="none"
         id="OrbitLevelReeval-OrbitNode"
         style="stroke:#181818;stroke-width:1.0;" />
      <text
         fill="#000000"
         font-family="sans-serif"
         font-size="13"
         lengthAdjust="spacing"
         textLength="27.976"
         x="248.9774"
         y="559.7698"
         id="text45">level</text>
      <text
         fill="#000000"
         font-family="sans-serif"
         font-size="13"
         lengthAdjust="spacing"
         textLength="50.3621"
         x="225.4696"
         y="586.0305"
         id="text46">orbitList</text>
    </g>
    <!--link EventLevelReeval to EventNode-->
    <g
       id="link_EventLevelReeval_EventNode">
      <path
         codeLine="92"
         d="M70.4,277.71 C70.4,360.99 70.4,535.71 70.4,610.79 "
         fill="none"
         id="EventLevelReeval-to-EventNode"
         style="stroke:#181818;stroke-width:1.0;" />
      <polygon
         fill="#181818"
         points="70.4,616.79,74.4,607.79,70.4,611.79,66.4,607.79,70.4,616.79"
         style="stroke:#181818;stroke-width:1.0;"
         id="polygon46" />
      <text
         fill="#000000"
         font-family="sans-serif"
         font-size="13"
         lengthAdjust="spacing"
         textLength="27.976"
         x="25.9838"
         y="299.2776"
         id="text47">level</text>
      <text
         fill="#000000"
         font-family="sans-serif"
         font-size="13"
         lengthAdjust="spacing"
         textLength="55.0811"
         x="8.5887"
         y="605.0429"
         id="text48">eventList</text>
    </g>
    <!--link EventNode to OrbitNode-->
    <g
       id="link_EventNode_OrbitNode">
      <path
         codeLine="94"
         d="M157.26,650.55 C169.43,650.55 164.3,650.55 177.04,650.55 "
         fill="none"
         id="EventNode-OrbitNode"
         style="stroke:#181818;stroke-width:1.0;" />
      <polygon
         fill="none"
         points="145.26,650.55,151.26,654.55,157.26,650.55,151.26,646.55,145.26,650.55"
         style="stroke:#181818;stroke-width:1.0;"
         id="polygon48" />
      <polygon
         fill="#181818"
         points="183.04,650.55,174.04,646.55,178.04,650.55,174.04,654.55,183.04,650.55"
         style="stroke:#181818;stroke-width:1.0;"
         id="polygon49" />
      <text
         fill="#000000"
         font-family="sans-serif"
         font-size="13"
         lengthAdjust="spacing"
         textLength="28.977"
         x="152.8154"
         y="646.1239"
         id="text49">child</text>
    </g>
    <!--link OrbitNode to Link-->
    <g
       id="link_OrbitNode_Link">
      <path
         codeLine="95"
         d="M278.96,715.51 C278.96,749.58 278.96,774.85 278.96,804.38 "
         fill="none"
         id="OrbitNode-Link"
         style="stroke:#181818;stroke-width:1.0;" />
      <polygon
         fill="none"
         points="278.96,703.51,274.96,709.51,278.96,715.51,282.96,709.51,278.96,703.51"
         style="stroke:#181818;stroke-width:1.0;"
         id="polygon50" />
      <polygon
         fill="#181818"
         points="278.96,810.38,282.96,801.38,278.96,805.38,274.96,801.38,278.96,810.38"
         style="stroke:#181818;stroke-width:1.0;"
         id="polygon51" />
      <text
         fill="#000000"
         font-family="sans-serif"
         font-size="13"
         lengthAdjust="spacing"
         textLength="49.7121"
         x="225.2063"
         y="798.9825"
         id="text51">children</text>
    </g>
    <!--link Link to LinkType-->
    <g
       id="link_Link_LinkType">
      <path
         codeLine="97"
         d="M278.96,878.16 C278.96,908.29 278.96,946.56 278.96,979.29 "
         fill="none"
         id="Link-to-LinkType"
         style="stroke:#181818;stroke-width:1.0;" />
      <polygon
         fill="#181818"
         points="278.96,985.29,282.96,976.29,278.96,980.29,274.96,976.29,278.96,985.29"
         style="stroke:#181818;stroke-width:1.0;"
         id="polygon52" />
      <text
         fill="#000000"
         font-family="sans-serif"
         font-size="13"
         lengthAdjust="spacing"
         textLength="50.869"
         x="224.8909"
         y="973.6598"
         id="text52">linkType</text>
    </g>
    <!--link Link to EventNode-->
    <g
       id="link_Link_EventNode">
      <path
         codeLine="98"
         d="M163.43,844.36 C147.84,844.36 137.07,844.36 137.07,844.36 C137.07,844.36 137.07,745.84 137.07,690.31 "
         fill="none"
         id="Link-to-EventNode"
         style="stroke:#181818;stroke-width:1.0;" />
      <polygon
         fill="#181818"
         points="137.07,684.31,133.07,693.31,137.07,689.31,141.07,693.31,137.07,684.31"
         style="stroke:#181818;stroke-width:1.0;"
         id="polygon53" />
      <text
         fill="#000000"
         font-family="sans-serif"
         font-size="13"
         lengthAdjust="spacing"
         textLength="33.995"
         x="112.3858"
         y="706.0631"
         id="text53">event</text>
    </g>
    <!--link EventNode to Event-->
    <g
       id="link_EventNode_Event">
      <path
         codeLine="100"
         d="M71.96,696.31 C71.96,718 71.96,729.17 71.96,756.66 "
         fill="none"
         id="EventNode-Event"
         style="stroke:#181818;stroke-width:1.0;" />
      <polygon
         fill="#181818"
         points="71.96,684.31,67.96,690.31,71.96,696.31,75.96,690.31,71.96,684.31"
         style="stroke:#181818;stroke-width:1.0;"
         id="polygon54" />
      <polygon
         fill="#181818"
         points="71.96,762.66,75.96,753.66,71.96,757.66,67.96,753.66,71.96,762.66"
         style="stroke:#181818;stroke-width:1.0;"
         id="polygon55" />
      <text
         fill="#000000"
         font-family="sans-serif"
         font-size="13"
         lengthAdjust="spacing"
         textLength="33.995"
         x="37.4844"
         y="751.2739"
         id="text55">event</text>
    </g>
    <!--SRC=[VLLRRjim4FpdAHRiHvosGjhVm32WsagWmfK5spq0RH4s4OKKADf8cmReQNgmdYGazI0fnH5W0-JEpkuEXrBzm7X597c4ad6gVbKKX5H7WMwk45n1tOVt9QdhM2d9TYT5qxtW6_QRmXUDka78HW6lAJsJyaGK4tmHtsDuHj0-7q29IfJYmFQap0qbLLJMS0jBLglfToftWYo8L3ClXHG5BRv9mlT7saEJC-LgIS-qRChDq0j2P5ShIVOAsauSA6o2L5LsUjnHgTaOLs5aQyQ_XRYgIjsb6SBiU1XgMNKJGI-PAAZh-XCSg8gxCfFhGI4RJZeU6xxCfEUt-vC-2bp_sPN9F0jMcEb7GpVAXAC3fqzg9NUiWUXqjsZmNcNJPHRWRQkZ35syjKhRmn21dqsmUqptcJvwJRNHLk87FoXiggUkvMerkO8NQpM_Z0dXViG86XFPaAQmT2v8okf8SgAE7NlA5JrGENEGdNLQoWlwr9xQ6yvo0uRoljUzEwAHF1v718NsVxhG16rlNiWSdZlVTov3OBIirTiUNgTu00Xf1twyJBpgfdKP_cbTBX4hg-_4oAj_Hch3C2mtDjR8t86nzEsrmjchvhRVlR0EDkIUvFhLfE46QznQPTVEWS5j2oquUYvu2b5-UWIyPFp1l64yWjKwlK-pVhbTn_F4P3G9jgI7dg-JU9kk77xpCy_NoMOJxENBTDklVYJh-wHVPQlaxYwPU-7L8hrBvmshvrlJgbTuVsHbeUV92PFJRepFdhXcoA6g4FsPULAZuLsmSRU9qE1p0lZh_x__E0OHHJF0IbAAnyPvW_OKpSQu4GoNpQMEYWXmVvinzBuU3-Ibw8PwixLTsHpKfmEsgc6OHcKaF8X3D8DPcAHwKACiGkOVRAJi30ETvbxGbWzAkw_6nn42lG80]-->
  </g>
</svg>
