<?xml version="1.0" encoding="UTF-8" standalone="no"?>
<svg
   contentStyleType="text/css"
   height="1116px"
   preserveAspectRatio="none"
   style="width:1037px;height:1116px;background:#FFFFFF;"
   version="1.1"
   viewBox="0 0 1037 1116"
   width="1037px"
   zoomAndPan="magnify"
   id="svg55"
   sodipodi:docname="class-diagram-hr-datastructure.svg"
   inkscape:version="1.4 (e7c3feb100, 2024-10-09)"
   xmlns:inkscape="http://www.inkscape.org/namespaces/inkscape"
   xmlns:sodipodi="http://sodipodi.sourceforge.net/DTD/sodipodi-0.dtd"
   xmlns="http://www.w3.org/2000/svg"
   xmlns:svg="http://www.w3.org/2000/svg">
  <sodipodi:namedview
     id="namedview55"
     pagecolor="#ffffff"
     bordercolor="#000000"
     borderopacity="0.25"
     inkscape:showpageshadow="2"
     inkscape:pageopacity="0.0"
     inkscape:pagecheckerboard="0"
     inkscape:deskcolor="#d1d1d1"
     showgrid="false"
     inkscape:zoom="2.2150944"
     inkscape:cx="389.59966"
     inkscape:cy="682.13798"
     inkscape:window-width="1892"
     inkscape:window-height="1035"
     inkscape:window-x="1929"
     inkscape:window-y="26"
     inkscape:window-maximized="1"
     inkscape:current-layer="svg55" />
  <defs
     id="defs1" />
  <rect
     codeLine="6"
     fill="#f1f1f1"
     height="124.2717"
     id="HistoryRecord"
     rx="2.5"
     ry="2.5"
     style="stroke:#181818;stroke-width:0.5"
     width="958.77472"
     x="9"
     y="7" />
  <circle
     cx="437.47549"
     cy="23"
     fill="#add1b2"
     style="stroke:#181818;stroke-width:1"
     id="ellipse1"
     r="11" />
  <path
     d="m 436.9443,29.9219 q -1.75,0 -2.8907,-0.7344 -1.125,-0.75 -1.6875,-2.0937 -0.5468,-1.3594 -0.5468,-3.1563 0,-2.0312 0.6562,-3.4844 0.6563,-1.4531 1.9375,-2.2343 1.2813,-0.7813 3.1563,-0.7813 0.8906,0 1.5625,0.1875 0.6718,0.1719 1.3593,0.5156 l -0.8125,2.0157 q -0.625,-0.3125 -1.1718,-0.4375 -0.5313,-0.125 -1.0157,-0.125 -1.1718,0 -1.875,0.5312 -0.7031,0.5313 -1,1.4844 -0.2968,0.9531 -0.2968,2.2187 0,2.0157 0.7187,2.9844 0.7188,0.9531 2.3125,0.9531 0.5938,0 1.2188,-0.1562 0.625,-0.1563 1.4531,-0.5313 v 2.2188 q -0.7344,0.3125 -1.5313,0.4687 -0.7812,0.1563 -1.5468,0.1563 z"
     fill="#000000"
     id="path1" />
  <text
     fill="#000000"
     font-family="sans-serif"
     font-size="14px"
     lengthAdjust="spacing"
     textLength="93.3237"
     x="457.97549"
     y="28.431999"
     id="text1">HistoryRecord</text>
  <line
     style="stroke:#181818;stroke-width:0.5"
     x1="10"
     x2="966.77472"
     y1="39"
     y2="39"
     id="line1" />
  <line
     style="stroke:#181818;stroke-width:0.5"
     x1="10"
     x2="966.77472"
     y1="47"
     y2="47"
     id="line2" />
  <polygon
     fill="#ffff44"
     points="20,57.034 24,61.034 20,65.034 16,61.034 "
     style="stroke:#b38d22;stroke-width:1"
     id="polygon2" />
  <text
     fill="#000000"
     font-family="sans-serif"
     font-size="14px"
     lengthAdjust="spacing"
     textLength="307.7608"
     x="29"
     y="65.965897"
     id="text2">Map&lt;Integer, List&lt;LevelEventHR&gt;&gt; getLeaves()</text>
  <rect
     fill="#f24d5c"
     height="6"
     style="stroke:#c82930;stroke-width:1"
     width="6"
     x="17"
     y="78.101898"
     id="rect2" />
  <text
     fill="#000000"
     font-family="sans-serif"
     font-size="14px"
     lengthAdjust="spacing"
     textLength="271.06689"
     x="29"
     y="85.033897"
     id="text3">getTopLevelEvents() : List&lt;LevelEventHR&gt;</text>
  <rect
     fill="#f24d5c"
     height="6"
     style="stroke:#c82930;stroke-width:1"
     width="6"
     x="17"
     y="97.1698"
     id="rect3" />
  <text
     fill="#000000"
     font-family="sans-serif"
     font-size="14px"
     lengthAdjust="spacing"
     textLength="932.77472"
     x="29"
     y="104.1018"
     id="text4">addLevel(List&lt;NodeOrbit&gt; nodeOrbitList, PersistentIdElement pIDElement, ParametricSpecification parametricSpecification) : List&lt;NodeOrbit&gt;</text>
  <rect
     fill="#f24d5c"
     height="6"
     style="stroke:#c82930;stroke-width:1"
     width="6"
     x="17"
     y="116.2377"
     id="rect4" />
  <text
     fill="#000000"
     font-family="sans-serif"
     font-size="14px"
     lengthAdjust="spacing"
     textLength="673.53772"
     x="29"
     y="123.1697"
     id="text5">fillLevel(NodeOrbit currentNodeOrbit, LevelEventHR levelEvent, List&lt;NodeOrbit&gt; nextStepOrbits) : void</text>
  <rect
     codeLine="13"
     fill="#f1f1f1"
     height="162.4075"
     id="LevelEvent"
     rx="2.5"
     ry="2.5"
     style="stroke:#181818;stroke-width:0.5"
     width="280.68701"
     x="650.03998"
     y="191.27" />
  <circle
     cx="753.98962"
     cy="207.27"
     fill="#a9dcdf"
     style="stroke:#181818;stroke-width:1"
     id="ellipse5"
     r="11" />
  <path
     d="m 749.1615,213.02 3.3437,-12.1875 h 3.1407 l 3.375,12.1875 h -2.4688 l -0.7344,-3.0156 h -3.5156 l -0.75,3.0156 z m 4.4062,-8.0469 -0.75,3 h 2.5157 l -0.7188,-3 q -0.1406,-0.5781 -0.2656,-1.125 -0.125,-0.5625 -0.2656,-1.1406 -0.1094,0.5781 -0.25,1.1406 -0.1407,0.5469 -0.2657,1.125 z"
     fill="#000000"
     id="path5" />
  <text
     fill="#000000"
     font-family="sans-serif"
     font-size="14px"
     font-style="italic"
     lengthAdjust="spacing"
     textLength="64.287804"
     x="774.48962"
     y="212.702"
     id="text6">LevelEvent</text>
  <line
     style="stroke:#181818;stroke-width:0.5"
     x1="651.03998"
     x2="929.72699"
     y1="223.27"
     y2="223.27"
     id="line6" />
  <polygon
     fill="none"
     points="661.04,233.304 665.04,237.304 661.04,241.304 657.04,237.304 "
     style="stroke:#b38d22;stroke-width:1"
     id="polygon6" />
  <text
     fill="#000000"
     font-family="sans-serif"
     font-size="14px"
     lengthAdjust="spacing"
     textLength="108.0936"
     x="670.03998"
     y="242.2359"
     id="text7">appNumber : int</text>
  <polygon
     fill="none"
     points="661.04,252.3719 665.04,256.3719 661.04,260.3719 657.04,256.3719 "
     style="stroke:#b38d22;stroke-width:1"
     id="polygon7" />
  <text
     fill="#000000"
     font-family="sans-serif"
     font-size="14px"
     lengthAdjust="spacing"
     textLength="172.7173"
     x="670.03998"
     y="261.30389"
     id="text8">appType : ApplicationType</text>
  <polygon
     fill="none"
     points="661.04,271.4398 665.04,275.4398 661.04,279.4398 657.04,275.4398 "
     style="stroke:#b38d22;stroke-width:1"
     id="polygon8" />
  <text
     fill="#000000"
     font-family="sans-serif"
     font-size="14px"
     lengthAdjust="spacing"
     textLength="181.1873"
     x="670.03998"
     y="280.3718"
     id="text9">eventList : List&lt;NodeEvent&gt;</text>
  <line
     style="stroke:#181818;stroke-width:0.5"
     x1="651.03998"
     x2="929.72699"
     y1="288.47379"
     y2="288.47379"
     id="line9" />
  <circle
     cx="661.03998"
     cy="303.50769"
     fill="#84be84"
     style="stroke:#038048;stroke-width:1"
     id="ellipse9"
     r="3" />
  <text
     fill="#000000"
     font-family="sans-serif"
     font-size="14px"
     lengthAdjust="spacing"
     textLength="139.14549"
     x="670.03998"
     y="307.4397"
     id="text10">getAppNumber() : int</text>
  <circle
     cx="661.03998"
     cy="322.57559"
     fill="#84be84"
     style="stroke:#038048;stroke-width:1"
     id="ellipse10"
     r="3" />
  <text
     fill="#000000"
     font-family="sans-serif"
     font-size="14px"
     lengthAdjust="spacing"
     textLength="211.0352"
     x="670.03998"
     y="326.5076"
     id="text11">getEventList() : List&lt;NodeEvent&gt;</text>
  <circle
     cx="661.03998"
     cy="341.64349"
     fill="#84be84"
     style="stroke:#038048;stroke-width:1"
     id="ellipse11"
     r="3" />
  <text
     fill="#000000"
     font-family="sans-serif"
     font-size="14px"
     lengthAdjust="spacing"
     textLength="254.687"
     x="670.03998"
     y="345.5755"
     id="text12">addEvent(NodeEvent nodeEvent) : void</text>
  <rect
     codeLine="22"
     fill="#f1f1f1"
     height="86.135803"
     id="LevelEventHR"
     rx="2.5"
     ry="2.5"
     style="stroke:#181818;stroke-width:0.5"
     width="252.7571"
     x="362.01001"
     y="229.39999" />
  <circle
     cx="439.4227"
     cy="245.39999"
     fill="#add1b2"
     style="stroke:#181818;stroke-width:1"
     id="ellipse12"
     r="11" />
  <path
     d="m 438.8915,252.3219 q -1.75,0 -2.8906,-0.7344 -1.125,-0.75 -1.6875,-2.0938 -0.5469,-1.3593 -0.5469,-3.1562 0,-2.0313 0.6562,-3.4844 0.6563,-1.4531 1.9375,-2.2344 1.2813,-0.7812 3.1563,-0.7812 0.8906,0 1.5625,0.1875 0.6719,0.1719 1.3594,0.5156 l -0.8125,2.0156 q -0.625,-0.3125 -1.1719,-0.4375 -0.5313,-0.125 -1.0156,-0.125 -1.1719,0 -1.875,0.5313 -0.7032,0.5312 -1,1.4844 -0.2969,0.9531 -0.2969,2.2187 0,2.0156 0.7187,2.9844 0.7188,0.9531 2.3125,0.9531 0.5938,0 1.2188,-0.1562 0.625,-0.1563 1.4531,-0.5313 v 2.2188 q -0.7344,0.3125 -1.5312,0.4687 -0.7813,0.1563 -1.5469,0.1563 z"
     fill="#000000"
     id="path12" />
  <text
     fill="#000000"
     font-family="sans-serif"
     font-size="14px"
     lengthAdjust="spacing"
     textLength="89.431602"
     x="459.9227"
     y="250.832"
     id="text13">LevelEventHR</text>
  <line
     style="stroke:#181818;stroke-width:0.5"
     x1="363.01001"
     x2="613.76709"
     y1="261.39999"
     y2="261.39999"
     id="line13" />
  <polygon
     fill="none"
     points="373.01,271.434 377.01,275.434 373.01,279.434 369.01,275.434 "
     style="stroke:#b38d22;stroke-width:1"
     id="polygon13" />
  <text
     fill="#000000"
     font-family="sans-serif"
     font-size="14px"
     lengthAdjust="spacing"
     textLength="194.8092"
     x="382.01001"
     y="280.36591"
     id="text14">nextLevelOrbit : LevelOrbitHR</text>
  <line
     style="stroke:#181818;stroke-width:0.5"
     x1="363.01001"
     x2="613.76709"
     y1="288.4679"
     y2="288.4679"
     id="line14" />
  <circle
     cx="373.01001"
     cy="303.50189"
     fill="#84be84"
     style="stroke:#038048;stroke-width:1"
     id="ellipse14"
     r="3" />
  <text
     fill="#000000"
     font-family="sans-serif"
     font-size="14px"
     lengthAdjust="spacing"
     textLength="226.7571"
     x="382.01001"
     y="307.4339"
     id="text15">getNextLevelOrbit() : LevelOrbitHR</text>
  <rect
     codeLine="34"
     fill="#f1f1f1"
     height="86.135803"
     id="NodeOrbitHR"
     rx="2.5"
     ry="2.5"
     style="stroke:#181818;stroke-width:0.5"
     width="142.36749"
     x="519.20001"
     y="636.08002" />
  <circle
     cx="543.95502"
     cy="652.08002"
     fill="#add1b2"
     style="stroke:#181818;stroke-width:1"
     id="ellipse15"
     r="11" />
  <path
     d="m 543.4238,659.0019 q -1.75,0 -2.8907,-0.7344 -1.125,-0.75 -1.6875,-2.0938 -0.5468,-1.3593 -0.5468,-3.1562 0,-2.0313 0.6562,-3.4844 0.6563,-1.4531 1.9375,-2.2344 1.2813,-0.7812 3.1563,-0.7812 0.8906,0 1.5625,0.1875 0.6718,0.1719 1.3593,0.5156 l -0.8125,2.0156 q -0.625,-0.3125 -1.1718,-0.4375 -0.5313,-0.125 -1.0157,-0.125 -1.1718,0 -1.875,0.5313 -0.7031,0.5312 -1,1.4844 -0.2968,0.9531 -0.2968,2.2187 0,2.0156 0.7187,2.9844 0.7188,0.9531 2.3125,0.9531 0.5938,0 1.2188,-0.1562 0.625,-0.1563 1.4531,-0.5313 v 2.2188 q -0.7344,0.3125 -1.5313,0.4687 -0.7812,0.1563 -1.5468,0.1563 z"
     fill="#000000"
     id="path15" />
  <text
     fill="#000000"
     font-family="sans-serif"
     font-size="14px"
     lengthAdjust="spacing"
     textLength="88.689697"
     x="560.1228"
     y="657.51202"
     id="text16">NodeOrbitHR</text>
  <line
     style="stroke:#181818;stroke-width:0.5"
     x1="520.20001"
     x2="660.5675"
     y1="668.08002"
     y2="668.08002"
     id="line16" />
  <text
     fill="#000000"
     font-family="sans-serif"
     font-size="14px"
     lengthAdjust="spacing"
     textLength="118.9856"
     x="525.20001"
     y="687.0459"
     id="text17">JerboaOrbit : orbit</text>
  <text
     fill="#000000"
     font-family="sans-serif"
     font-size="14px"
     lengthAdjust="spacing"
     textLength="130.36749"
     x="525.20001"
     y="706.11389"
     id="text18">List&lt;Link&gt; : children</text>
  <line
     style="stroke:#181818;stroke-width:0.5"
     x1="520.20001"
     x2="660.5675"
     y1="714.21582"
     y2="714.21582"
     id="line18" />
  <rect
     codeLine="39"
     fill="#f1f1f1"
     height="67.067902"
     id="LevelOrbit"
     rx="2.5"
     ry="2.5"
     style="stroke:#181818;stroke-width:0.5"
     width="199.5993"
     x="830.59003"
     y="461.35001" />
  <circle
     cx="894.7168"
     cy="477.35001"
     fill="#a9dcdf"
     style="stroke:#181818;stroke-width:1"
     id="ellipse18"
     r="11" />
  <path
     d="m 889.8887,483.1 3.3437,-12.1875 h 3.1406 l 3.375,12.1875 h -2.4687 l -0.7344,-3.0156 h -3.5156 l -0.75,3.0156 z m 4.4062,-8.0469 -0.75,3 h 2.5156 l -0.7187,-3 q -0.1406,-0.5781 -0.2656,-1.125 -0.125,-0.5625 -0.2657,-1.1406 -0.1093,0.5781 -0.25,1.1406 -0.1406,0.5469 -0.2656,1.125 z"
     fill="#000000"
     id="path18" />
  <text
     fill="#000000"
     font-family="sans-serif"
     font-size="14px"
     font-style="italic"
     lengthAdjust="spacing"
     textLength="62.845798"
     x="915.2168"
     y="482.78201"
     id="text19">LevelOrbit</text>
  <line
     style="stroke:#181818;stroke-width:0.5"
     x1="831.59003"
     x2="1029.1893"
     y1="493.35001"
     y2="493.35001"
     id="line19" />
  <polygon
     fill="none"
     points="841.59,503.384 845.59,507.384 841.59,511.384 837.59,507.384 "
     style="stroke:#b38d22;stroke-width:1"
     id="polygon19" />
  <text
     fill="#000000"
     font-family="sans-serif"
     font-size="14px"
     lengthAdjust="spacing"
     textLength="173.5993"
     x="850.59003"
     y="512.31592"
     id="text20">orbitList : List&lt;NodeOrbit&gt;</text>
  <line
     style="stroke:#181818;stroke-width:0.5"
     x1="831.59003"
     x2="1029.1893"
     y1="520.41791"
     y2="520.41791"
     id="line20" />
  <rect
     codeLine="43"
     fill="#f1f1f1"
     height="162.4075"
     id="LevelOrbitHR"
     rx="2.5"
     ry="2.5"
     style="stroke:#181818;stroke-width:0.5"
     width="373.49261"
     x="421.64001"
     y="413.67999" />
  <circle
     cx="560.67352"
     cy="429.67999"
     fill="#add1b2"
     style="stroke:#181818;stroke-width:1"
     id="ellipse20"
     r="11" />
  <path
     d="m 560.1422,436.6019 q -1.75,0 -2.8906,-0.7344 -1.125,-0.75 -1.6875,-2.0938 -0.5469,-1.3593 -0.5469,-3.1562 0,-2.0313 0.6563,-3.4844 0.6562,-1.4531 1.9375,-2.2344 1.2812,-0.7812 3.1562,-0.7812 0.8907,0 1.5625,0.1875 0.6719,0.1719 1.3594,0.5156 l -0.8125,2.0156 q -0.625,-0.3125 -1.1719,-0.4375 -0.5312,-0.125 -1.0156,-0.125 -1.1719,0 -1.875,0.5313 -0.7031,0.5312 -1,1.4844 -0.2969,0.9531 -0.2969,2.2187 0,2.0156 0.7188,2.9844 0.7187,0.9531 2.3125,0.9531 0.5937,0 1.2187,-0.1562 0.625,-0.1563 1.4532,-0.5313 v 2.2188 q -0.7344,0.3125 -1.5313,0.4687 -0.7812,0.1563 -1.5469,0.1563 z"
     fill="#000000"
     id="path20" />
  <text
     fill="#000000"
     font-family="sans-serif"
     font-size="14px"
     lengthAdjust="spacing"
     textLength="86.925697"
     x="581.17352"
     y="435.112"
     id="text21">LevelOrbitHR</text>
  <line
     style="stroke:#181818;stroke-width:0.5"
     x1="422.64001"
     x2="794.13263"
     y1="445.67999"
     y2="445.67999"
     id="line21" />
  <rect
     fill="none"
     height="6"
     style="stroke:#c82930;stroke-width:1"
     width="6"
     x="429.64001"
     y="457.71399"
     id="rect21" />
  <text
     fill="#000000"
     font-family="sans-serif"
     font-size="14px"
     lengthAdjust="spacing"
     textLength="123.5355"
     x="441.64001"
     y="464.6459"
     id="text22">nodeName : String</text>
  <rect
     fill="none"
     height="6"
     style="stroke:#c82930;stroke-width:1"
     width="6"
     x="429.64001"
     y="476.78189"
     id="rect22" />
  <text
     fill="#000000"
     font-family="sans-serif"
     font-size="14px"
     lengthAdjust="spacing"
     textLength="245.25101"
     x="441.64001"
     y="483.7139"
     id="text23">nextLevelEvents : List&lt;LevelEventHR&gt;</text>
  <line
     style="stroke:#181818;stroke-width:0.5"
     x1="422.64001"
     x2="794.13263"
     y1="491.8158"
     y2="491.8158"
     id="line23" />
  <circle
     cx="432.64001"
     cy="506.84979"
     fill="#84be84"
     style="stroke:#038048;stroke-width:1"
     id="ellipse23"
     r="3" />
  <text
     fill="#000000"
     font-family="sans-serif"
     font-size="14px"
     lengthAdjust="spacing"
     textLength="155.4834"
     x="441.64001"
     y="510.7818"
     id="text24">getNodeName() : String</text>
  <circle
     cx="432.64001"
     cy="525.91772"
     fill="#84be84"
     style="stroke:#038048;stroke-width:1"
     id="ellipse24"
     r="3" />
  <text
     fill="#000000"
     font-family="sans-serif"
     font-size="14px"
     lengthAdjust="spacing"
     textLength="277.19891"
     x="441.64001"
     y="529.84967"
     id="text25">getNextLevelEvents() : List&lt;LevelEventHR&gt;</text>
  <circle
     cx="432.64001"
     cy="544.9856"
     fill="#84be84"
     style="stroke:#038048;stroke-width:1"
     id="ellipse25"
     r="3" />
  <text
     fill="#000000"
     font-family="sans-serif"
     font-size="14px"
     lengthAdjust="spacing"
     textLength="206.02319"
     x="441.64001"
     y="548.9176"
     id="text26">getOrbitList() : List&lt;NodeOrbit&gt;</text>
  <circle
     cx="432.64001"
     cy="564.05353"
     fill="#84be84"
     style="stroke:#038048;stroke-width:1"
     id="ellipse26"
     r="3" />
  <text
     fill="#000000"
     font-family="sans-serif"
     font-size="14px"
     lengthAdjust="spacing"
     textLength="347.49261"
     x="441.64001"
     y="567.98547"
     id="text27">getNextLevelEventAtIndex( int index ) : LevelEventHR</text>
  <rect
     codeLine="61"
     fill="#f1f1f1"
     height="48"
     id="NodeEventHR"
     rx="2.5"
     ry="2.5"
     style="stroke:#181818;stroke-width:0.5"
     width="123.1956"
     x="342.79001"
     y="655.15002" />
  <circle
     cx="357.79001"
     cy="671.15002"
     fill="#add1b2"
     style="stroke:#181818;stroke-width:1"
     id="ellipse27"
     r="11" />
  <path
     d="m 357.2588,678.0719 q -1.75,0 -2.8907,-0.7344 -1.125,-0.75 -1.6875,-2.0938 -0.5468,-1.3593 -0.5468,-3.1562 0,-2.0313 0.6562,-3.4844 0.6563,-1.4531 1.9375,-2.2344 1.2813,-0.7812 3.1563,-0.7812 0.8906,0 1.5625,0.1875 0.6718,0.1719 1.3593,0.5156 l -0.8125,2.0156 q -0.625,-0.3125 -1.1718,-0.4375 -0.5313,-0.125 -1.0157,-0.125 -1.1718,0 -1.875,0.5313 -0.7031,0.5312 -1,1.4844 -0.2968,0.9531 -0.2968,2.2187 0,2.0156 0.7187,2.9844 0.7188,0.9531 2.3125,0.9531 0.5938,0 1.2188,-0.1562 0.625,-0.1563 1.4531,-0.5313 v 2.2188 q -0.7344,0.3125 -1.5313,0.4687 -0.7812,0.1563 -1.5468,0.1563 z"
     fill="#000000"
     id="path27" />
  <text
     fill="#000000"
     font-family="sans-serif"
     font-size="14px"
     lengthAdjust="spacing"
     textLength="91.195602"
     x="371.79001"
     y="676.58197"
     id="text28">NodeEventHR</text>
  <line
     style="stroke:#181818;stroke-width:0.5"
     x1="343.79001"
     x2="464.9856"
     y1="687.15002"
     y2="687.15002"
     id="line28" />
  <line
     style="stroke:#181818;stroke-width:0.5"
     x1="343.79001"
     x2="464.9856"
     y1="695.15002"
     y2="695.15002"
     id="line29" />
  <rect
     codeLine="65"
     fill="#f1f1f1"
     height="105.2038"
     id="LinkType"
     rx="2.5"
     ry="2.5"
     style="stroke:#181818;stroke-width:0.5"
     width="91.659698"
     x="544.56"
     y="1004.63" />
  <circle
     cx="560.07928"
     cy="1020.63"
     fill="#eb937f"
     style="stroke:#181818;stroke-width:1"
     id="ellipse29"
     r="11" />
  <path
     d="m 556.4387,1027.13 v -12.1406 h 7.6562 v 2.125 h -5.2812 v 2.6562 h 5.0156 v 2.125 h -5.0156 v 3.1094 h 5.2812 v 2.125 z"
     fill="#000000"
     id="path29" />
  <text
     fill="#000000"
     font-family="sans-serif"
     font-size="14px"
     lengthAdjust="spacing"
     textLength="58.505798"
     x="574.1947"
     y="1026.062"
     id="text29">LinkType</text>
  <line
     style="stroke:#181818;stroke-width:0.5"
     x1="545.56"
     x2="635.21973"
     y1="1036.63"
     y2="1036.63"
     id="line30" />
  <text
     fill="#000000"
     font-family="sans-serif"
     font-size="14px"
     lengthAdjust="spacing"
     textLength="38.7379"
     x="550.56"
     y="1055.5959"
     id="text30">origin</text>
  <text
     fill="#000000"
     font-family="sans-serif"
     font-size="14px"
     lengthAdjust="spacing"
     textLength="33.305901"
     x="550.56"
     y="1074.6639"
     id="text31">trace</text>
  <text
     fill="#000000"
     font-family="sans-serif"
     font-size="14px"
     lengthAdjust="spacing"
     textLength="79.659698"
     x="550.56"
     y="1093.7318"
     id="text32">notMatched</text>
  <line
     style="stroke:#181818;stroke-width:0.5"
     x1="545.56"
     x2="635.21973"
     y1="1101.8337"
     y2="1101.8337"
     id="line32" />
  <rect
     codeLine="71"
     fill="#f1f1f1"
     height="162.4075"
     id="Event"
     rx="2.5"
     ry="2.5"
     style="stroke:#181818;stroke-width:0.5"
     width="94.179703"
     x="336.29999"
     y="782.21997" />
  <circle
     cx="362.85681"
     cy="798.21997"
     fill="#eb937f"
     style="stroke:#181818;stroke-width:1"
     id="ellipse32"
     r="11" />
  <path
     d="m 359.2162,804.72 v -12.1406 h 7.6563 v 2.125 h -5.2813 v 2.6562 h 5.0156 v 2.125 h -5.0156 v 3.1094 h 5.2813 v 2.125 z"
     fill="#000000"
     id="path32" />
  <text
     fill="#000000"
     font-family="sans-serif"
     font-size="14px"
     lengthAdjust="spacing"
     textLength="36.497799"
     x="379.42499"
     y="803.65198"
     id="text33">Event</text>
  <line
     style="stroke:#181818;stroke-width:0.5"
     x1="337.29999"
     x2="429.47971"
     y1="814.21997"
     y2="814.21997"
     id="line33" />
  <text
     fill="#000000"
     font-family="sans-serif"
     font-size="14px"
     lengthAdjust="spacing"
     textLength="56.167801"
     x="342.29999"
     y="833.18591"
     id="text34">Creation</text>
  <text
     fill="#000000"
     font-family="sans-serif"
     font-size="14px"
     lengthAdjust="spacing"
     textLength="81.381699"
     x="342.29999"
     y="852.25391"
     id="text35">Suppression</text>
  <text
     fill="#000000"
     font-family="sans-serif"
     font-size="14px"
     lengthAdjust="spacing"
     textLength="28.5739"
     x="342.29999"
     y="871.32178"
     id="text36">Split</text>
  <text
     fill="#000000"
     font-family="sans-serif"
     font-size="14px"
     lengthAdjust="spacing"
     textLength="42.881802"
     x="342.29999"
     y="890.38971"
     id="text37">Merge</text>
  <text
     fill="#000000"
     font-family="sans-serif"
     font-size="14px"
     lengthAdjust="spacing"
     textLength="56.195801"
     x="342.29999"
     y="909.45758"
     id="text38">NoEffect</text>
  <text
     fill="#000000"
     font-family="sans-serif"
     font-size="14px"
     lengthAdjust="spacing"
     textLength="82.179703"
     x="342.29999"
     y="928.52551"
     id="text39">Modification</text>
  <line
     style="stroke:#181818;stroke-width:0.5"
     x1="337.29999"
     x2="429.47971"
     y1="936.6275"
     y2="936.6275"
     id="line39" />
  <rect
     codeLine="81"
     fill="#f1f1f1"
     height="67.067902"
     id="Link"
     rx="2.5"
     ry="2.5"
     style="stroke:#181818;stroke-width:0.5"
     width="249.425"
     x="465.67001"
     y="829.89001" />
  <circle
     cx="572.5946"
     cy="845.89001"
     fill="#add1b2"
     style="stroke:#181818;stroke-width:1"
     id="ellipse39"
     r="11" />
  <path
     d="m 572.0633,852.8119 q -1.75,0 -2.8906,-0.7344 -1.125,-0.75 -1.6875,-2.0938 -0.5469,-1.3593 -0.5469,-3.1562 0,-2.0313 0.6563,-3.4844 0.6562,-1.4531 1.9375,-2.2344 1.2812,-0.7812 3.1562,-0.7812 0.8907,0 1.5625,0.1875 0.6719,0.1719 1.3594,0.5156 l -0.8125,2.0156 q -0.625,-0.3125 -1.1719,-0.4375 -0.5312,-0.125 -1.0156,-0.125 -1.1719,0 -1.875,0.5313 -0.7031,0.5312 -1,1.4844 -0.2969,0.9531 -0.2969,2.2187 0,2.0156 0.7188,2.9844 0.7187,0.9531 2.3125,0.9531 0.5937,0 1.2187,-0.1562 0.625,-0.1563 1.4532,-0.5313 v 2.2188 q -0.7344,0.3125 -1.5313,0.4687 -0.7812,0.1563 -1.5469,0.1563 z"
     fill="#000000"
     id="path39" />
  <text
     fill="#000000"
     font-family="sans-serif"
     font-size="14px"
     lengthAdjust="spacing"
     textLength="27.075899"
     x="593.0946"
     y="851.32202"
     id="text40">Link</text>
  <line
     style="stroke:#181818;stroke-width:0.5"
     x1="466.67001"
     x2="714.09497"
     y1="861.89001"
     y2="861.89001"
     id="line40" />
  <text
     fill="#000000"
     font-family="sans-serif"
     font-size="14px"
     lengthAdjust="spacing"
     textLength="237.425"
     x="471.67001"
     y="880.8559"
     id="text41">child : Pair&lt;LinkType,NodeEventHR&gt;</text>
  <line
     style="stroke:#181818;stroke-width:0.5"
     x1="466.67001"
     x2="714.09497"
     y1="888.95789"
     y2="888.95789"
     id="line41" />
  <path
     codeLine="86"
     d="m 615.15,272.47 c 11.46,0 5.11,0 16.68,0"
     fill="none"
     id="LevelEventHR-to-LevelEvent"
     style="stroke:#181818;stroke-width:1" />
  <polygon
     fill="none"
     points="631.83,266.47 631.83,278.47 649.83,272.47 "
     style="stroke:#181818;stroke-width:1"
     id="polygon41" />
  <path
     codeLine="87"
     d="m 795.23,494.88 c 11.93,0 5.66,0 16.93,0"
     fill="none"
     id="LevelOrbitHR-to-LevelOrbit"
     style="stroke:#181818;stroke-width:1" />
  <polygon
     fill="none"
     points="812.16,488.88 812.16,500.88 830.16,494.88 "
     style="stroke:#181818;stroke-width:1"
     id="polygon42" />
  <path
     codeLine="89"
     d="m 488.39,143.52 c 0,31.64 0,51.27 0,79.69"
     fill="none"
     id="HistoryRecord-LevelEventHR"
     style="stroke:#181818;stroke-width:1" />
  <polygon
     fill="none"
     points="488.39,131.52 484.39,137.52 488.39,143.52 492.39,137.52 "
     style="stroke:#181818;stroke-width:1"
     id="polygon43" />
  <polygon
     fill="#181818"
     points="488.39,229.21 492.39,220.21 488.39,224.21 484.39,220.21 "
     style="stroke:#181818;stroke-width:1"
     id="polygon44" />
  <text
     fill="#000000"
     font-family="sans-serif"
     font-size="13px"
     lengthAdjust="spacing"
     textLength="38.141998"
     x="447.2551"
     y="217.59309"
     id="text44">leaves</text>
  <path
     codeLine="91"
     d="m 518.2,321.88 c 0,27.69 0,58.44 0,91.43"
     fill="none"
     id="LevelEventHR-backto-LevelOrbitHR"
     style="stroke:#181818;stroke-width:1" />
  <polygon
     fill="#181818"
     points="518.2,315.88 514.2,324.88 518.2,320.88 522.2,324.88 "
     style="stroke:#181818;stroke-width:1"
     id="polygon45" />
  <path
     codeLine="92"
     d="m 590.39,576.51 c 0,20.41 0,41.51 0,59.24"
     fill="none"
     id="LevelOrbitHR-NodeOrbitHR"
     style="stroke:#181818;stroke-width:1" />
  <text
     fill="#000000"
     font-family="sans-serif"
     font-size="13px"
     lengthAdjust="spacing"
     textLength="27.976"
     x="560.82208"
     y="597.89978"
     id="text45">level</text>
  <text
     fill="#000000"
     font-family="sans-serif"
     font-size="13px"
     lengthAdjust="spacing"
     textLength="50.362099"
     x="536.43549"
     y="624.43201"
     id="text46">orbitList</text>
  <path
     codeLine="93"
     d="m 391.82,315.99 c 0,85.45 0,266.61 0,333.12"
     fill="none"
     id="LevelEventHR-to-NodeEventHR"
     style="stroke:#181818;stroke-width:1" />
  <polygon
     fill="#181818"
     points="391.82,655.11 395.82,646.11 391.82,650.11 387.82,646.11 "
     style="stroke:#181818;stroke-width:1"
     id="polygon46" />
  <text
     fill="#000000"
     font-family="sans-serif"
     font-size="13px"
     lengthAdjust="spacing"
     textLength="27.976"
     x="348.7254"
     y="337.57959"
     id="text47">level</text>
  <text
     fill="#000000"
     font-family="sans-serif"
     font-size="13px"
     lengthAdjust="spacing"
     textLength="55.0811"
     x="326.06271"
     y="643.35681"
     id="text48">eventList</text>
  <path
     codeLine="95"
     d="m 478.32,679.15 c 16.81,0 17.14,0 34.43,0"
     fill="none"
     id="NodeEventHR-NodeOrbitHR"
     style="stroke:#181818;stroke-width:1" />
  <polygon
     fill="none"
     points="466.32,679.15 472.32,683.15 478.32,679.15 472.32,675.15 "
     style="stroke:#181818;stroke-width:1"
     id="polygon48" />
  <polygon
     fill="#181818"
     points="518.75,679.15 509.75,675.15 513.75,679.15 509.75,683.15 "
     style="stroke:#181818;stroke-width:1"
     id="polygon49" />
  <text
     fill="#000000"
     font-family="sans-serif"
     font-size="13px"
     lengthAdjust="spacing"
     textLength="28.976999"
     x="481.96939"
     y="675.20709"
     id="text49">child</text>
  <path
     codeLine="96"
     d="m 590.39,734.35 c 0,32.66 0,58.87 0,89.04"
     fill="none"
     id="NodeOrbitHR-Link"
     style="stroke:#181818;stroke-width:1" />
  <polygon
     fill="none"
     points="590.39,722.35 586.39,728.35 590.39,734.35 594.39,728.35 "
     style="stroke:#181818;stroke-width:1"
     id="polygon50" />
  <polygon
     fill="#181818"
     points="590.39,829.39 594.39,820.39 590.39,824.39 586.39,820.39 "
     style="stroke:#181818;stroke-width:1"
     id="polygon51" />
  <text
     fill="#000000"
     font-family="sans-serif"
     font-size="13px"
     lengthAdjust="spacing"
     textLength="49.712101"
     x="536.63812"
     y="817.9826"
     id="text51">children</text>
  <path
     codeLine="98"
     d="m 590.39,897.18 c 0,29.5 0,66.83 0,100.96"
     fill="none"
     id="Link-to-LinkType"
     style="stroke:#181818;stroke-width:1" />
  <polygon
     fill="#181818"
     points="590.39,1004.14 594.39,995.14 590.39,999.14 586.39,995.14 "
     style="stroke:#181818;stroke-width:1"
     id="polygon52" />
  <text
     fill="#000000"
     font-family="sans-serif"
     font-size="13px"
     lengthAdjust="spacing"
     textLength="50.868999"
     x="537.08899"
     y="992.80798"
     id="text52">linkType</text>
  <path
     codeLine="99"
     d="m 465.24,863.42 c -10.48,0 -17.16,0 -17.16,0 0,0 0,-103.67 0,-153.8"
     fill="none"
     id="Link-to-NodeEventHR"
     style="stroke:#181818;stroke-width:1" />
  <polygon
     fill="#181818"
     points="448.08,703.62 444.08,712.62 448.08,708.62 452.08,712.62 "
     style="stroke:#181818;stroke-width:1"
     id="polygon53" />
  <text
     fill="#000000"
     font-family="sans-serif"
     font-size="13px"
     lengthAdjust="spacing"
     textLength="33.994999"
     x="421.48318"
     y="725.22302"
     id="text53"
     transform="translate(-10)">event</text>
  <path
     codeLine="101"
     d="m 386.63,715.62 c 0,20.17 0,31.98 0,60.4"
     fill="none"
     id="NodeEventHR-Event"
     style="stroke:#181818;stroke-width:1" />
  <polygon
     fill="#181818"
     points="386.63,703.62 382.63,709.62 386.63,715.62 390.63,709.62 "
     style="stroke:#181818;stroke-width:1"
     id="polygon54" />
  <polygon
     fill="#181818"
     points="386.63,782.02 390.63,773.02 386.63,777.02 382.63,773.02 "
     style="stroke:#181818;stroke-width:1"
     id="polygon55" />
  <text
     fill="#000000"
     font-family="sans-serif"
     font-size="13px"
     lengthAdjust="spacing"
     textLength="33.994999"
     x="352.4136"
     y="770.38171"
     id="text55"
     transform="translate(-2)">event</text>
</svg>
