<?xml version="1.0" encoding="UTF-8" standalone="no"?>
<svg
   contentStyleType="text/css"
   height="1059px"
   preserveAspectRatio="none"
   style="width:733px;height:1059px;background:#FFFFFF;"
   version="1.1"
   viewBox="0 0 733 1059"
   width="733px"
   zoomAndPan="magnify"
   id="svg53"
   sodipodi:docname="class-diagram-hr-datastructure.svg"
   inkscape:version="1.4 (e7c3feb100, 2024-10-09)"
   xmlns:inkscape="http://www.inkscape.org/namespaces/inkscape"
   xmlns:sodipodi="http://sodipodi.sourceforge.net/DTD/sodipodi-0.dtd"
   xmlns="http://www.w3.org/2000/svg"
   xmlns:svg="http://www.w3.org/2000/svg">
  <sodipodi:namedview
     id="namedview53"
     pagecolor="#ffffff"
     bordercolor="#000000"
     borderopacity="0.25"
     inkscape:showpageshadow="2"
     inkscape:pageopacity="0.0"
     inkscape:pagecheckerboard="0"
     inkscape:deskcolor="#d1d1d1"
     showgrid="false"
     inkscape:zoom="0.84230406"
     inkscape:cx="366.8509"
     inkscape:cy="529.5"
     inkscape:window-width="1910"
     inkscape:window-height="1053"
     inkscape:window-x="1920"
     inkscape:window-y="17"
     inkscape:window-maximized="1"
     inkscape:current-layer="svg53" />
  <defs
     id="defs1" />
  <g
     id="g53">
    <!--class EvaluationDAG-->
    <g
       id="elem_EvaluationDAG">
      <rect
         codeLine="6"
         fill="#F1F1F1"
         height="67.0679"
         id="EvaluationDAG"
         rx="2.5"
         ry="2.5"
         style="stroke:#181818;stroke-width:0.5;"
         width="341.0408"
         x="9"
         y="7" />
      <ellipse
         cx="126.2636"
         cy="23"
         fill="#ADD1B2"
         rx="11"
         ry="11"
         style="stroke:#181818;stroke-width:1.0;"
         id="ellipse1" />
      <path
         d="M125.7323,29.9219 Q123.9823,29.9219 122.8417,29.1875 Q121.7167,28.4375 121.1542,27.0938 Q120.6073,25.7344 120.6073,23.9375 Q120.6073,21.9063 121.2636,20.4531 Q121.9198,19 123.2011,18.2188 Q124.4823,17.4375 126.3573,17.4375 Q127.248,17.4375 127.9198,17.625 Q128.5917,17.7969 129.2792,18.1406 L128.4667,20.1563 Q127.8417,19.8438 127.2948,19.7188 Q126.7636,19.5938 126.2792,19.5938 Q125.1073,19.5938 124.4042,20.125 Q123.7011,20.6563 123.4042,21.6094 Q123.1073,22.5625 123.1073,23.8281 Q123.1073,25.8438 123.8261,26.8125 Q124.5448,27.7656 126.1386,27.7656 Q126.7323,27.7656 127.3573,27.6094 Q127.9823,27.4531 128.8105,27.0781 L128.8105,29.2969 Q128.0761,29.6094 127.2792,29.7656 Q126.498,29.9219 125.7323,29.9219 Z "
         fill="#000000"
         id="path1" />
      <text
         fill="#000000"
         font-family="sans-serif"
         font-size="14"
         lengthAdjust="spacing"
         textLength="98.0136"
         x="146.7636"
         y="28.432"
         id="text1">EvaluationDAG</text>
      <line
         style="stroke:#181818;stroke-width:0.5;"
         x1="10"
         x2="349.0408"
         y1="39"
         y2="39"
         id="line1" />
      <line
         style="stroke:#181818;stroke-width:0.5;"
         x1="10"
         x2="349.0408"
         y1="47"
         y2="47"
         id="line2" />
      <polygon
         fill="#FFFF44"
         points="20,57.034,24,61.034,20,65.034,16,61.034"
         style="stroke:#B38D22;stroke-width:1.0;"
         id="polygon2" />
      <text
         fill="#000000"
         font-family="sans-serif"
         font-size="14"
         lengthAdjust="spacing"
         textLength="315.0408"
         x="29"
         y="65.9659"
         id="text2">Map&lt;Integer, List&lt;EventLevelEval&gt;&gt; getLeaves()</text>
    </g>
    <!--class EventLevel-->
    <g
       id="elem_EventLevel">
      <rect
         codeLine="16"
         fill="#F1F1F1"
         height="162.4075"
         id="EventLevel"
         rx="2.5"
         ry="2.5"
         style="stroke:#181818;stroke-width:0.5;"
         width="280.687"
         x="344.18"
         y="134.07" />
      <ellipse
         cx="448.1296"
         cy="150.07"
         fill="#A9DCDF"
         rx="11"
         ry="11"
         style="stroke:#181818;stroke-width:1.0;"
         id="ellipse2" />
      <path
         d="M443.3015,155.82 L446.6452,143.6325 L449.7859,143.6325 L453.1609,155.82 L450.6921,155.82 L449.9577,152.8044 L446.4421,152.8044 L445.6921,155.82 L443.3015,155.82 Z M447.7077,147.7731 L446.9577,150.7731 L449.4734,150.7731 L448.7546,147.7731 Q448.614,147.195 448.489,146.6481 Q448.364,146.0856 448.2234,145.5075 Q448.114,146.0856 447.9734,146.6481 Q447.8327,147.195 447.7077,147.7731 Z "
         fill="#000000"
         id="path2" />
      <text
         fill="#000000"
         font-family="sans-serif"
         font-size="14"
         font-style="italic"
         lengthAdjust="spacing"
         textLength="64.2878"
         x="468.6296"
         y="155.502"
         id="text3">EventLevel</text>
      <line
         style="stroke:#181818;stroke-width:0.5;"
         x1="345.18"
         x2="623.867"
         y1="166.07"
         y2="166.07"
         id="line3" />
      <polygon
         fill="none"
         points="355.18,176.104,359.18,180.104,355.18,184.104,351.18,180.104"
         style="stroke:#B38D22;stroke-width:1.0;"
         id="polygon3" />
      <text
         fill="#000000"
         font-family="sans-serif"
         font-size="14"
         lengthAdjust="spacing"
         textLength="108.0936"
         x="364.18"
         y="185.0359"
         id="text4">appNumber : int</text>
      <polygon
         fill="none"
         points="355.18,195.1719,359.18,199.1719,355.18,203.1719,351.18,199.1719"
         style="stroke:#B38D22;stroke-width:1.0;"
         id="polygon4" />
      <text
         fill="#000000"
         font-family="sans-serif"
         font-size="14"
         lengthAdjust="spacing"
         textLength="172.7173"
         x="364.18"
         y="204.1039"
         id="text5">appType : ApplicationType</text>
      <polygon
         fill="none"
         points="355.18,214.2398,359.18,218.2398,355.18,222.2398,351.18,218.2398"
         style="stroke:#B38D22;stroke-width:1.0;"
         id="polygon5" />
      <text
         fill="#000000"
         font-family="sans-serif"
         font-size="14"
         lengthAdjust="spacing"
         textLength="181.1873"
         x="364.18"
         y="223.1718"
         id="text6">eventList : List&lt;EventNode&gt;</text>
      <line
         style="stroke:#181818;stroke-width:0.5;"
         x1="345.18"
         x2="623.867"
         y1="231.2738"
         y2="231.2738"
         id="line6" />
      <ellipse
         cx="355.18"
         cy="246.3077"
         fill="#84BE84"
         rx="3"
         ry="3"
         style="stroke:#038048;stroke-width:1.0;"
         id="ellipse6" />
      <text
         fill="#000000"
         font-family="sans-serif"
         font-size="14"
         lengthAdjust="spacing"
         textLength="139.1455"
         x="364.18"
         y="250.2397"
         id="text7">getAppNumber() : int</text>
      <ellipse
         cx="355.18"
         cy="265.3756"
         fill="#84BE84"
         rx="3"
         ry="3"
         style="stroke:#038048;stroke-width:1.0;"
         id="ellipse7" />
      <text
         fill="#000000"
         font-family="sans-serif"
         font-size="14"
         lengthAdjust="spacing"
         textLength="211.0352"
         x="364.18"
         y="269.3076"
         id="text8">getEventList() : List&lt;EventNode&gt;</text>
      <ellipse
         cx="355.18"
         cy="284.4435"
         fill="#84BE84"
         rx="3"
         ry="3"
         style="stroke:#038048;stroke-width:1.0;"
         id="ellipse8" />
      <text
         fill="#000000"
         font-family="sans-serif"
         font-size="14"
         lengthAdjust="spacing"
         textLength="254.687"
         x="364.18"
         y="288.3755"
         id="text9">addEvent(EventNode nodeEvent) : void</text>
    </g>
    <!--class EventLevelEval-->
    <g
       id="elem_EventLevelEval">
      <rect
         codeLine="25"
         fill="#F1F1F1"
         height="86.1358"
         id="EventLevelEval"
         rx="2.5"
         ry="2.5"
         style="stroke:#181818;stroke-width:0.5;"
         width="260.0371"
         x="49.5"
         y="172.2" />
      <ellipse
         cx="126.9127"
         cy="188.2"
         fill="#ADD1B2"
         rx="11"
         ry="11"
         style="stroke:#181818;stroke-width:1.0;"
         id="ellipse9" />
      <path
         d="M126.3815,195.1219 Q124.6315,195.1219 123.4909,194.3875 Q122.3659,193.6375 121.8034,192.2938 Q121.2565,190.9344 121.2565,189.1375 Q121.2565,187.1063 121.9127,185.6531 Q122.569,184.2 123.8502,183.4188 Q125.1315,182.6375 127.0065,182.6375 Q127.8971,182.6375 128.569,182.825 Q129.2409,182.9969 129.9284,183.3406 L129.1159,185.3563 Q128.4909,185.0438 127.944,184.9188 Q127.4127,184.7938 126.9284,184.7938 Q125.7565,184.7938 125.0534,185.325 Q124.3502,185.8563 124.0534,186.8094 Q123.7565,187.7625 123.7565,189.0281 Q123.7565,191.0438 124.4752,192.0125 Q125.194,192.9656 126.7877,192.9656 Q127.3815,192.9656 128.0065,192.8094 Q128.6315,192.6531 129.4596,192.2781 L129.4596,194.4969 Q128.7252,194.8094 127.9284,194.9656 Q127.1471,195.1219 126.3815,195.1219 Z "
         fill="#000000"
         id="path9" />
      <text
         fill="#000000"
         font-family="sans-serif"
         font-size="14"
         lengthAdjust="spacing"
         textLength="96.7116"
         x="147.4127"
         y="193.632"
         id="text10">EventLevelEval</text>
      <line
         style="stroke:#181818;stroke-width:0.5;"
         x1="50.5"
         x2="308.5371"
         y1="204.2"
         y2="204.2"
         id="line10" />
      <polygon
         fill="none"
         points="60.5,214.234,64.5,218.234,60.5,222.234,56.5,218.234"
         style="stroke:#B38D22;stroke-width:1.0;"
         id="polygon10" />
      <text
         fill="#000000"
         font-family="sans-serif"
         font-size="14"
         lengthAdjust="spacing"
         textLength="202.0892"
         x="69.5"
         y="223.1659"
         id="text11">nextOrbitLevel : OrbitLevelEval</text>
      <line
         style="stroke:#181818;stroke-width:0.5;"
         x1="50.5"
         x2="308.5371"
         y1="231.2679"
         y2="231.2679"
         id="line11" />
      <ellipse
         cx="60.5"
         cy="246.3019"
         fill="#84BE84"
         rx="3"
         ry="3"
         style="stroke:#038048;stroke-width:1.0;"
         id="ellipse11" />
      <text
         fill="#000000"
         font-family="sans-serif"
         font-size="14"
         lengthAdjust="spacing"
         textLength="234.0371"
         x="69.5"
         y="250.2339"
         id="text12">getNextOrbitLevel() : OrbitLevelEval</text>
    </g>
    <!--class OrbitNode-->
    <g
       id="elem_OrbitNode">
      <rect
         codeLine="31"
         fill="#F1F1F1"
         height="105.2038"
         id="OrbitNode"
         rx="2.5"
         ry="2.5"
         style="stroke:#181818;stroke-width:0.5;"
         width="191.0034"
         x="188.02"
         y="578.88" />
      <ellipse
         cx="244.4678"
         cy="594.88"
         fill="#ADD1B2"
         rx="11"
         ry="11"
         style="stroke:#181818;stroke-width:1.0;"
         id="ellipse12" />
      <path
         d="M243.9366,601.8019 Q242.1866,601.8019 241.0459,601.0675 Q239.9209,600.3175 239.3584,598.9738 Q238.8116,597.6144 238.8116,595.8175 Q238.8116,593.7863 239.4678,592.3331 Q240.1241,590.88 241.4053,590.0988 Q242.6866,589.3175 244.5616,589.3175 Q245.4522,589.3175 246.1241,589.505 Q246.7959,589.6769 247.4834,590.0206 L246.6709,592.0363 Q246.0459,591.7238 245.4991,591.5988 Q244.9678,591.4738 244.4834,591.4738 Q243.3116,591.4738 242.6084,592.005 Q241.9053,592.5363 241.6084,593.4894 Q241.3116,594.4425 241.3116,595.7081 Q241.3116,597.7238 242.0303,598.6925 Q242.7491,599.6456 244.3428,599.6456 Q244.9366,599.6456 245.5616,599.4894 Q246.1866,599.3331 247.0147,598.9581 L247.0147,601.1769 Q246.2803,601.4894 245.4834,601.6456 Q244.7022,601.8019 243.9366,601.8019 Z "
         fill="#000000"
         id="path12" />
      <text
         fill="#000000"
         font-family="sans-serif"
         font-size="14"
         lengthAdjust="spacing"
         textLength="69.6077"
         x="264.9678"
         y="600.312"
         id="text13">OrbitNode</text>
      <line
         style="stroke:#181818;stroke-width:0.5;"
         x1="189.02"
         x2="378.0234"
         y1="610.88"
         y2="610.88"
         id="line13" />
      <rect
         fill="none"
         height="6"
         style="stroke:#C82930;stroke-width:1.0;"
         width="6"
         x="196.02"
         y="622.914"
         id="rect13" />
      <text
         fill="#000000"
         font-family="sans-serif"
         font-size="14"
         lengthAdjust="spacing"
         textLength="118.9856"
         x="208.02"
         y="629.8459"
         id="text14">JerboaOrbit : orbit</text>
      <rect
         fill="none"
         height="6"
         style="stroke:#C82930;stroke-width:1.0;"
         width="6"
         x="196.02"
         y="641.9819"
         id="rect14" />
      <text
         fill="#000000"
         font-family="sans-serif"
         font-size="14"
         lengthAdjust="spacing"
         textLength="165.0034"
         x="208.02"
         y="648.9139"
         id="text15">alphaPath : List&lt;Integer&gt;</text>
      <rect
         fill="none"
         height="6"
         style="stroke:#C82930;stroke-width:1.0;"
         width="6"
         x="196.02"
         y="661.0498"
         id="rect15" />
      <text
         fill="#000000"
         font-family="sans-serif"
         font-size="14"
         lengthAdjust="spacing"
         textLength="111.9296"
         x="208.02"
         y="667.9818"
         id="text16">branchIndex : int</text>
      <line
         style="stroke:#181818;stroke-width:0.5;"
         x1="189.02"
         x2="378.0234"
         y1="676.0838"
         y2="676.0838"
         id="line16" />
    </g>
    <!--class OrbitLevel-->
    <g
       id="elem_OrbitLevel">
      <rect
         codeLine="37"
         fill="#F1F1F1"
         height="67.0679"
         id="OrbitLevel"
         rx="2.5"
         ry="2.5"
         style="stroke:#181818;stroke-width:0.5;"
         width="199.5993"
         x="526.72"
         y="404.15" />
      <ellipse
         cx="590.8468"
         cy="420.15"
         fill="#A9DCDF"
         rx="11"
         ry="11"
         style="stroke:#181818;stroke-width:1.0;"
         id="ellipse16" />
      <path
         d="M586.0187,425.9 L589.3624,413.7125 L592.503,413.7125 L595.878,425.9 L593.4093,425.9 L592.6749,422.8844 L589.1593,422.8844 L588.4093,425.9 L586.0187,425.9 Z M590.4249,417.8531 L589.6749,420.8531 L592.1905,420.8531 L591.4718,417.8531 Q591.3312,417.275 591.2062,416.7281 Q591.0812,416.1656 590.9405,415.5875 Q590.8312,416.1656 590.6905,416.7281 Q590.5499,417.275 590.4249,417.8531 Z "
         fill="#000000"
         id="path16" />
      <text
         fill="#000000"
         font-family="sans-serif"
         font-size="14"
         font-style="italic"
         lengthAdjust="spacing"
         textLength="62.8458"
         x="611.3468"
         y="425.582"
         id="text17">OrbitLevel</text>
      <line
         style="stroke:#181818;stroke-width:0.5;"
         x1="527.72"
         x2="725.3193"
         y1="436.15"
         y2="436.15"
         id="line17" />
      <polygon
         fill="none"
         points="537.72,446.184,541.72,450.184,537.72,454.184,533.72,450.184"
         style="stroke:#B38D22;stroke-width:1.0;"
         id="polygon17" />
      <text
         fill="#000000"
         font-family="sans-serif"
         font-size="14"
         lengthAdjust="spacing"
         textLength="173.5993"
         x="546.72"
         y="455.1159"
         id="text18">orbitList : List&lt;OrbitNode&gt;</text>
      <line
         style="stroke:#181818;stroke-width:0.5;"
         x1="527.72"
         x2="725.3193"
         y1="463.2179"
         y2="463.2179"
         id="line18" />
    </g>
    <!--class OrbitLevelEval-->
    <g
       id="elem_OrbitLevelEval">
      <rect
         codeLine="41"
         fill="#F1F1F1"
         height="162.4075"
         id="OrbitLevelEval"
         rx="2.5"
         ry="2.5"
         style="stroke:#181818;stroke-width:0.5;"
         width="380.7725"
         x="111.13"
         y="356.48" />
      <ellipse
         cx="250.1634"
         cy="372.48"
         fill="#ADD1B2"
         rx="11"
         ry="11"
         style="stroke:#181818;stroke-width:1.0;"
         id="ellipse18" />
      <path
         d="M249.6322,379.4019 Q247.8822,379.4019 246.7416,378.6675 Q245.6166,377.9175 245.0541,376.5738 Q244.5072,375.2144 244.5072,373.4175 Q244.5072,371.3863 245.1634,369.9331 Q245.8197,368.48 247.1009,367.6988 Q248.3822,366.9175 250.2572,366.9175 Q251.1478,366.9175 251.8197,367.105 Q252.4916,367.2769 253.1791,367.6206 L252.3666,369.6363 Q251.7416,369.3238 251.1947,369.1988 Q250.6634,369.0738 250.1791,369.0738 Q249.0072,369.0738 248.3041,369.605 Q247.6009,370.1363 247.3041,371.0894 Q247.0072,372.0425 247.0072,373.3081 Q247.0072,375.3238 247.7259,376.2925 Q248.4447,377.2456 250.0384,377.2456 Q250.6322,377.2456 251.2572,377.0894 Q251.8822,376.9331 252.7103,376.5581 L252.7103,378.7769 Q251.9759,379.0894 251.1791,379.2456 Q250.3978,379.4019 249.6322,379.4019 Z "
         fill="#000000"
         id="path18" />
      <text
         fill="#000000"
         font-family="sans-serif"
         font-size="14"
         lengthAdjust="spacing"
         textLength="94.2056"
         x="270.6634"
         y="377.912"
         id="text19">OrbitLevelEval</text>
      <line
         style="stroke:#181818;stroke-width:0.5;"
         x1="112.13"
         x2="490.9025"
         y1="388.48"
         y2="388.48"
         id="line19" />
      <rect
         fill="none"
         height="6"
         style="stroke:#C82930;stroke-width:1.0;"
         width="6"
         x="119.13"
         y="400.514"
         id="rect19" />
      <text
         fill="#000000"
         font-family="sans-serif"
         font-size="14"
         lengthAdjust="spacing"
         textLength="123.5355"
         x="131.13"
         y="407.4459"
         id="text20">nodeName : String</text>
      <rect
         fill="none"
         height="6"
         style="stroke:#C82930;stroke-width:1.0;"
         width="6"
         x="119.13"
         y="419.5819"
         id="rect20" />
      <text
         fill="#000000"
         font-family="sans-serif"
         font-size="14"
         lengthAdjust="spacing"
         textLength="252.531"
         x="131.13"
         y="426.5139"
         id="text21">nextEventLevels : List&lt;EventLevelEval&gt;</text>
      <line
         style="stroke:#181818;stroke-width:0.5;"
         x1="112.13"
         x2="490.9025"
         y1="434.6158"
         y2="434.6158"
         id="line21" />
      <ellipse
         cx="122.13"
         cy="449.6498"
         fill="#84BE84"
         rx="3"
         ry="3"
         style="stroke:#038048;stroke-width:1.0;"
         id="ellipse21" />
      <text
         fill="#000000"
         font-family="sans-serif"
         font-size="14"
         lengthAdjust="spacing"
         textLength="155.4834"
         x="131.13"
         y="453.5818"
         id="text22">getNodeName() : String</text>
      <ellipse
         cx="122.13"
         cy="468.7177"
         fill="#84BE84"
         rx="3"
         ry="3"
         style="stroke:#038048;stroke-width:1.0;"
         id="ellipse22" />
      <text
         fill="#000000"
         font-family="sans-serif"
         font-size="14"
         lengthAdjust="spacing"
         textLength="284.4789"
         x="131.13"
         y="472.6497"
         id="text23">getNextEventLevels() : List&lt;EventLevelEval&gt;</text>
      <ellipse
         cx="122.13"
         cy="487.7856"
         fill="#84BE84"
         rx="3"
         ry="3"
         style="stroke:#038048;stroke-width:1.0;"
         id="ellipse23" />
      <text
         fill="#000000"
         font-family="sans-serif"
         font-size="14"
         lengthAdjust="spacing"
         textLength="206.0232"
         x="131.13"
         y="491.7176"
         id="text24">getOrbitList() : List&lt;OrbitNode&gt;</text>
      <ellipse
         cx="122.13"
         cy="506.8535"
         fill="#84BE84"
         rx="3"
         ry="3"
         style="stroke:#038048;stroke-width:1.0;"
         id="ellipse24" />
      <text
         fill="#000000"
         font-family="sans-serif"
         font-size="14"
         lengthAdjust="spacing"
         textLength="354.7725"
         x="131.13"
         y="510.7855"
         id="text25">getNextEventLevelAtIndex( int index ) : EventLevelEval</text>
    </g>
    <!--class EventNode-->
    <g
       id="elem_EventNode">
      <rect
         codeLine="59"
         fill="#F1F1F1"
         height="67.0679"
         id="EventNode"
         rx="2.5"
         ry="2.5"
         style="stroke:#181818;stroke-width:0.5;"
         width="137.9296"
         x="11.56"
         y="597.95" />
      <ellipse
         cx="41.7771"
         cy="613.95"
         fill="#ADD1B2"
         rx="11"
         ry="11"
         style="stroke:#181818;stroke-width:1.0;"
         id="ellipse25" />
      <path
         d="M41.2459,620.8719 Q39.4959,620.8719 38.3553,620.1375 Q37.2303,619.3875 36.6678,618.0438 Q36.1209,616.6844 36.1209,614.8875 Q36.1209,612.8563 36.7771,611.4031 Q37.4334,609.95 38.7146,609.1688 Q39.9959,608.3875 41.8709,608.3875 Q42.7615,608.3875 43.4334,608.575 Q44.1053,608.7469 44.7928,609.0906 L43.9803,611.1063 Q43.3553,610.7938 42.8084,610.6688 Q42.2771,610.5438 41.7928,610.5438 Q40.6209,610.5438 39.9178,611.075 Q39.2146,611.6063 38.9178,612.5594 Q38.6209,613.5125 38.6209,614.7781 Q38.6209,616.7938 39.3396,617.7625 Q40.0584,618.7156 41.6521,618.7156 Q42.2459,618.7156 42.8709,618.5594 Q43.4959,618.4031 44.324,618.0281 L44.324,620.2469 Q43.5896,620.5594 42.7928,620.7156 Q42.0115,620.8719 41.2459,620.8719 Z "
         fill="#000000"
         id="path25" />
      <text
         fill="#000000"
         font-family="sans-serif"
         font-size="14"
         lengthAdjust="spacing"
         textLength="72.1137"
         x="59.1587"
         y="619.382"
         id="text26">EventNode</text>
      <line
         style="stroke:#181818;stroke-width:0.5;"
         x1="12.56"
         x2="148.4896"
         y1="629.95"
         y2="629.95"
         id="line26" />
      <rect
         fill="none"
         height="6"
         style="stroke:#C82930;stroke-width:1.0;"
         width="6"
         x="19.56"
         y="641.984"
         id="rect26" />
      <text
         fill="#000000"
         font-family="sans-serif"
         font-size="14"
         lengthAdjust="spacing"
         textLength="111.9296"
         x="31.56"
         y="648.9159"
         id="text27">branchIndex : int</text>
      <line
         style="stroke:#181818;stroke-width:0.5;"
         x1="12.56"
         x2="148.4896"
         y1="657.0179"
         y2="657.0179"
         id="line27" />
    </g>
    <!--class LinkType-->
    <g
       id="elem_LinkType">
      <rect
         codeLine="64"
         fill="#F1F1F1"
         height="86.1358"
         id="LinkType"
         rx="2.5"
         ry="2.5"
         style="stroke:#181818;stroke-width:0.5;"
         width="90.5058"
         x="238.27"
         y="966.49" />
      <ellipse
         cx="253.27"
         cy="982.49"
         fill="#EB937F"
         rx="11"
         ry="11"
         style="stroke:#181818;stroke-width:1.0;"
         id="ellipse27" />
      <path
         d="M249.6294,988.99 L249.6294,976.8494 L257.2856,976.8494 L257.2856,978.9744 L252.0044,978.9744 L252.0044,981.6306 L257.02,981.6306 L257.02,983.7556 L252.0044,983.7556 L252.0044,986.865 L257.2856,986.865 L257.2856,988.99 L249.6294,988.99 Z "
         fill="#000000"
         id="path27" />
      <text
         fill="#000000"
         font-family="sans-serif"
         font-size="14"
         lengthAdjust="spacing"
         textLength="58.5058"
         x="267.27"
         y="987.922"
         id="text28">LinkType</text>
      <line
         style="stroke:#181818;stroke-width:0.5;"
         x1="239.27"
         x2="327.7758"
         y1="998.49"
         y2="998.49"
         id="line28" />
      <text
         fill="#000000"
         font-family="sans-serif"
         font-size="14"
         lengthAdjust="spacing"
         textLength="49.9658"
         x="244.27"
         y="1017.4559"
         id="text29">ORIGIN</text>
      <text
         fill="#000000"
         font-family="sans-serif"
         font-size="14"
         lengthAdjust="spacing"
         textLength="42.0698"
         x="244.27"
         y="1036.5239"
         id="text30">TRACE</text>
      <line
         style="stroke:#181818;stroke-width:0.5;"
         x1="239.27"
         x2="327.7758"
         y1="1044.6258"
         y2="1044.6258"
         id="line30" />
    </g>
    <!--class Event-->
    <g
       id="elem_Event">
      <rect
         codeLine="69"
         fill="#F1F1F1"
         height="162.4075"
         id="Event"
         rx="2.5"
         ry="2.5"
         style="stroke:#181818;stroke-width:0.5;"
         width="114.5076"
         x="19.27"
         y="744.09" />
      <ellipse
         cx="54.9744"
         cy="760.09"
         fill="#EB937F"
         rx="11"
         ry="11"
         style="stroke:#181818;stroke-width:1.0;"
         id="ellipse30" />
      <path
         d="M51.3338,766.59 L51.3338,754.4494 L58.99,754.4494 L58.99,756.5744 L53.7088,756.5744 L53.7088,759.2306 L58.7244,759.2306 L58.7244,761.3556 L53.7088,761.3556 L53.7088,764.465 L58.99,764.465 L58.99,766.59 L51.3338,766.59 Z "
         fill="#000000"
         id="path30" />
      <text
         fill="#000000"
         font-family="sans-serif"
         font-size="14"
         lengthAdjust="spacing"
         textLength="36.4978"
         x="73.5754"
         y="765.522"
         id="text31">Event</text>
      <line
         style="stroke:#181818;stroke-width:0.5;"
         x1="20.27"
         x2="132.7776"
         y1="776.09"
         y2="776.09"
         id="line31" />
      <text
         fill="#000000"
         font-family="sans-serif"
         font-size="14"
         lengthAdjust="spacing"
         textLength="68.3897"
         x="25.27"
         y="795.0559"
         id="text32">CREATION</text>
      <text
         fill="#000000"
         font-family="sans-serif"
         font-size="14"
         lengthAdjust="spacing"
         textLength="93.0437"
         x="25.27"
         y="814.1239"
         id="text33">SUPPRESSION</text>
      <text
         fill="#000000"
         font-family="sans-serif"
         font-size="14"
         lengthAdjust="spacing"
         textLength="36.0219"
         x="25.27"
         y="833.1918"
         id="text34">SPLIT</text>
      <text
         fill="#000000"
         font-family="sans-serif"
         font-size="14"
         lengthAdjust="spacing"
         textLength="47.1658"
         x="25.27"
         y="852.2597"
         id="text35">MERGE</text>
      <text
         fill="#000000"
         font-family="sans-serif"
         font-size="14"
         lengthAdjust="spacing"
         textLength="68.3057"
         x="25.27"
         y="871.3276"
         id="text36">NOEFFECT</text>
      <text
         fill="#000000"
         font-family="sans-serif"
         font-size="14"
         lengthAdjust="spacing"
         textLength="102.5076"
         x="25.27"
         y="890.3955"
         id="text37">MODIFICATION</text>
      <line
         style="stroke:#181818;stroke-width:0.5;"
         x1="20.27"
         x2="132.7776"
         y1="898.4975"
         y2="898.4975"
         id="line37" />
    </g>
    <!--class Link-->
    <g
       id="elem_Link">
      <rect
         codeLine="79"
         fill="#F1F1F1"
         height="67.0679"
         id="Link"
         rx="2.5"
         ry="2.5"
         style="stroke:#181818;stroke-width:0.5;"
         width="230.3431"
         x="168.35"
         y="791.76" />
      <ellipse
         cx="265.7336"
         cy="807.76"
         fill="#ADD1B2"
         rx="11"
         ry="11"
         style="stroke:#181818;stroke-width:1.0;"
         id="ellipse37" />
      <path
         d="M265.2024,814.6819 Q263.4524,814.6819 262.3117,813.9475 Q261.1867,813.1975 260.6242,811.8538 Q260.0774,810.4944 260.0774,808.6975 Q260.0774,806.6663 260.7336,805.2131 Q261.3899,803.76 262.6711,802.9788 Q263.9524,802.1975 265.8274,802.1975 Q266.718,802.1975 267.3899,802.385 Q268.0617,802.5569 268.7492,802.9006 L267.9367,804.9163 Q267.3117,804.6038 266.7649,804.4788 Q266.2336,804.3538 265.7492,804.3538 Q264.5774,804.3538 263.8742,804.885 Q263.1711,805.4163 262.8742,806.3694 Q262.5774,807.3225 262.5774,808.5881 Q262.5774,810.6038 263.2961,811.5725 Q264.0149,812.5256 265.6086,812.5256 Q266.2024,812.5256 266.8274,812.3694 Q267.4524,812.2131 268.2805,811.8381 L268.2805,814.0569 Q267.5461,814.3694 266.7492,814.5256 Q265.968,814.6819 265.2024,814.6819 Z "
         fill="#000000"
         id="path37" />
      <text
         fill="#000000"
         font-family="sans-serif"
         font-size="14"
         lengthAdjust="spacing"
         textLength="27.0759"
         x="286.2336"
         y="813.192"
         id="text38">Link</text>
      <line
         style="stroke:#181818;stroke-width:0.5;"
         x1="169.35"
         x2="397.6931"
         y1="823.76"
         y2="823.76"
         id="line38" />
      <text
         fill="#000000"
         font-family="sans-serif"
         font-size="14"
         lengthAdjust="spacing"
         textLength="218.3431"
         x="174.35"
         y="842.7259"
         id="text39">child : Pair&lt;LinkType,EventNode&gt;</text>
      <line
         style="stroke:#181818;stroke-width:0.5;"
         x1="169.35"
         x2="397.6931"
         y1="850.8279"
         y2="850.8279"
         id="line39" />
    </g>
    <!--link EventLevelEval to EventLevel-->
    <g
       id="link_EventLevelEval_EventLevel">
      <path
         codeLine="84"
         d="M309.75,215.27 C321.09,215.27 314.59,215.27 326,215.27 "
         fill="none"
         id="EventLevelEval-to-EventLevel"
         style="stroke:#181818;stroke-width:1.0;" />
      <polygon
         fill="none"
         points="344,215.27,326,209.27,326,221.27,344,215.27"
         style="stroke:#181818;stroke-width:1.0;"
         id="polygon39" />
    </g>
    <!--link OrbitLevelEval to OrbitLevel-->
    <g
       id="link_OrbitLevelEval_OrbitLevel">
      <path
         codeLine="85"
         d="M491.98,437.68 C503.76,437.68 497.33,437.68 508.45,437.68 "
         fill="none"
         id="OrbitLevelEval-to-OrbitLevel"
         style="stroke:#181818;stroke-width:1.0;" />
      <polygon
         fill="none"
         points="526.45,437.68,508.45,431.68,508.45,443.68,526.45,437.68"
         style="stroke:#181818;stroke-width:1.0;"
         id="polygon40" />
    </g>
    <!--link EvaluationDAG to EventLevelEval-->
    <g
       id="link_EvaluationDAG_EventLevelEval">
      <path
         codeLine="87"
         d="M179.52,86.23 C179.52,113.99 179.52,135.57 179.52,165.74 "
         fill="none"
         id="EvaluationDAG-EventLevelEval"
         style="stroke:#181818;stroke-width:1.0;" />
      <polygon
         fill="none"
         points="179.52,74.23,175.52,80.23,179.52,86.23,183.52,80.23,179.52,74.23"
         style="stroke:#181818;stroke-width:1.0;"
         id="polygon41" />
      <polygon
         fill="#181818"
         points="179.52,171.74,183.52,162.74,179.52,166.74,175.52,162.74,179.52,171.74"
         style="stroke:#181818;stroke-width:1.0;"
         id="polygon42" />
      <text
         fill="#000000"
         font-family="sans-serif"
         font-size="13"
         lengthAdjust="spacing"
         textLength="38.142"
         x="138.5034"
         y="160.4013"
         id="text42">leaves</text>
    </g>
    <!--reverse link EventLevelEval to OrbitLevelEval-->
    <g
       id="link_EventLevelEval_OrbitLevelEval">
      <path
         codeLine="89"
         d="M210.34,264.68 C210.34,292.37 210.34,323.12 210.34,356.11 "
         fill="none"
         id="EventLevelEval-backto-OrbitLevelEval"
         style="stroke:#181818;stroke-width:1.0;" />
      <polygon
         fill="#181818"
         points="210.34,258.68,206.34,267.68,210.34,263.68,214.34,267.68,210.34,258.68"
         style="stroke:#181818;stroke-width:1.0;"
         id="polygon43" />
    </g>
    <!--link OrbitLevelEval to OrbitNode-->
    <g
       id="link_OrbitLevelEval_OrbitNode">
      <path
         codeLine="90"
         d="M283.52,519.31 C283.52,539.38 283.52,560.34 283.52,578.64 "
         fill="none"
         id="OrbitLevelEval-OrbitNode"
         style="stroke:#181818;stroke-width:1.0;" />
      <text
         fill="#000000"
         font-family="sans-serif"
         font-size="13"
         lengthAdjust="spacing"
         textLength="27.976"
         x="253.9521"
         y="540.6998"
         id="text43">level</text>
      <text
         fill="#000000"
         font-family="sans-serif"
         font-size="13"
         lengthAdjust="spacing"
         textLength="50.3621"
         x="230.0296"
         y="566.9605"
         id="text44">orbitList</text>
    </g>
    <!--link EventLevelEval to EventNode-->
    <g
       id="link_EventLevelEval_EventNode">
      <path
         codeLine="91"
         d="M80.32,258.64 C80.32,341.92 80.32,516.64 80.32,591.72 "
         fill="none"
         id="EventLevelEval-to-EventNode"
         style="stroke:#181818;stroke-width:1.0;" />
      <polygon
         fill="#181818"
         points="80.32,597.72,84.32,588.72,80.32,592.72,76.32,588.72,80.32,597.72"
         style="stroke:#181818;stroke-width:1.0;"
         id="polygon44" />
      <text
         fill="#000000"
         font-family="sans-serif"
         font-size="13"
         lengthAdjust="spacing"
         textLength="27.976"
         x="36.8391"
         y="280.2076"
         id="text45">level</text>
      <text
         fill="#000000"
         font-family="sans-serif"
         font-size="13"
         lengthAdjust="spacing"
         textLength="55.0811"
         x="19.6142"
         y="585.9729"
         id="text46">eventList</text>
    </g>
    <!--link EventNode to OrbitNode-->
    <g
       id="link_EventNode_OrbitNode">
      <path
         codeLine="93"
         d="M161.81,631.48 C173.99,631.48 168.85,631.48 181.6,631.48 "
         fill="none"
         id="EventNode-OrbitNode"
         style="stroke:#181818;stroke-width:1.0;" />
      <polygon
         fill="none"
         points="149.81,631.48,155.81,635.48,161.81,631.48,155.81,627.48,149.81,631.48"
         style="stroke:#181818;stroke-width:1.0;"
         id="polygon46" />
      <polygon
         fill="#181818"
         points="187.6,631.48,178.6,627.48,182.6,631.48,178.6,635.48,187.6,631.48"
         style="stroke:#181818;stroke-width:1.0;"
         id="polygon47" />
      <text
         fill="#000000"
         font-family="sans-serif"
         font-size="13"
         lengthAdjust="spacing"
         textLength="28.977"
         x="157.3754"
         y="627.0539"
         id="text47">child</text>
    </g>
    <!--link OrbitNode to Link-->
    <g
       id="link_OrbitNode_Link">
      <path
         codeLine="94"
         d="M283.52,696.44 C283.52,730.51 283.52,755.78 283.52,785.31 "
         fill="none"
         id="OrbitNode-Link"
         style="stroke:#181818;stroke-width:1.0;" />
      <polygon
         fill="none"
         points="283.52,684.44,279.52,690.44,283.52,696.44,287.52,690.44,283.52,684.44"
         style="stroke:#181818;stroke-width:1.0;"
         id="polygon48" />
      <polygon
         fill="#181818"
         points="283.52,791.31,287.52,782.31,283.52,786.31,279.52,782.31,283.52,791.31"
         style="stroke:#181818;stroke-width:1.0;"
         id="polygon49" />
      <text
         fill="#000000"
         font-family="sans-serif"
         font-size="13"
         lengthAdjust="spacing"
         textLength="49.7121"
         x="229.7663"
         y="779.9125"
         id="text49">children</text>
    </g>
    <!--link Link to LinkType-->
    <g
       id="link_Link_LinkType">
      <path
         codeLine="96"
         d="M283.52,859.09 C283.52,889.22 283.52,927.49 283.52,960.22 "
         fill="none"
         id="Link-to-LinkType"
         style="stroke:#181818;stroke-width:1.0;" />
      <polygon
         fill="#181818"
         points="283.52,966.22,287.52,957.22,283.52,961.22,279.52,957.22,283.52,966.22"
         style="stroke:#181818;stroke-width:1.0;"
         id="polygon50" />
      <text
         fill="#000000"
         font-family="sans-serif"
         font-size="13"
         lengthAdjust="spacing"
         textLength="50.869"
         x="229.4509"
         y="954.5898"
         id="text50">linkType</text>
    </g>
    <!--link Link to EventNode-->
    <g
       id="link_Link_EventNode">
      <path
         codeLine="97"
         d="M167.99,825.29 C152.39,825.29 141.63,825.29 141.63,825.29 C141.63,825.29 141.63,726.77 141.63,671.24 "
         fill="none"
         id="Link-to-EventNode"
         style="stroke:#181818;stroke-width:1.0;" />
      <polygon
         fill="#181818"
         points="141.63,665.24,137.63,674.24,141.63,670.24,145.63,674.24,141.63,665.24"
         style="stroke:#181818;stroke-width:1.0;"
         id="polygon51" />
      <text
         fill="#000000"
         font-family="sans-serif"
         font-size="13"
         lengthAdjust="spacing"
         textLength="33.995"
         x="116.9458"
         y="686.9931"
         id="text51">event</text>
    </g>
    <!--link EventNode to Event-->
    <g
       id="link_EventNode_Event">
      <path
         codeLine="99"
         d="M76.52,677.24 C76.52,698.93 76.52,710.1 76.52,737.59 "
         fill="none"
         id="EventNode-Event"
         style="stroke:#181818;stroke-width:1.0;" />
      <polygon
         fill="#181818"
         points="76.52,665.24,72.52,671.24,76.52,677.24,80.52,671.24,76.52,665.24"
         style="stroke:#181818;stroke-width:1.0;"
         id="polygon52" />
      <polygon
         fill="#181818"
         points="76.52,743.59,80.52,734.59,76.52,738.59,72.52,734.59,76.52,743.59"
         style="stroke:#181818;stroke-width:1.0;"
         id="polygon53" />
      <text
         fill="#000000"
         font-family="sans-serif"
         font-size="13"
         lengthAdjust="spacing"
         textLength="33.995"
         x="42.0444"
         y="732.2039"
         id="text53">event</text>
    </g>
    <!--SRC=[bLLjRvim4FxkNt6Y7vgkGTtdAa922QsOKX8bsGzmm6siEc214tNhyjzd7s0CGPrcAGJxddjxxivKxpoNjAH743ndwfTaK9JgK927MmAtK5bnAcXLXKgLV7zIB4wBVCj_C_YkKG-4e1Iyw4p5YIfUv8lmsODF0kswWHSgPt6ks1ihfx3abPf5PvQh9JipOVI20DwOtj8pgoPtf5CraTXr2puOtAwGdRh6m-EepQ4cpJ8KJX2yAlTS9KN60iZr4xT6C8KrAolzect5MIJOKR-0Z1VDgvORJfWc8zrAbl9NdcBM8CVFRNYTns5ahro8EZIBWVHKbjgTFPX2FpqGzHk6T9KH-r1RnIGULIQ2Sy4pr-q3kH12zvKgQQh0bh3ruDRl1gYKoUcuPwKsn7FLb-nCtpn2AALeCZOd3eQXLHrXhqvz8kvDNSFM3PRKTOJYgBKpgFZGagupda-i52kCEql5nUbRbzP-uaXatHe6e9MxZK4xNas4IG-DOGxmscthrvRBSqQbMJxyOEM-e8ZHLWhpFuAYGXxecgf3IqWpPC48Tb_IF3t4USO-6dP7Eg0Bjqz4qOx7I3DV-YcDKkbZ2H8z7zh0Liz8_kRAD6_EHFzhdh4RaiOUiZomUDyMux-k2TIozy3agxaTSH0gf7PYcDK_mxAnq7U6zQzlr_7k-pIYTkdXYXVj97J7NyvJ1-jRddIt6bP19dS6V1bSuOsXqPOSRI32yjCHl2NFtytOEughJVmS9tQxsuJpo6ZK2kZAGSytKRYBLnr- -tEztaJRRUzilOntTlSIRPuZkqjMqTDJD7V4gqNy5CzhgqwJcb0Tn-c1YqpdiwQydBLfJ1rAJPA3gzV_4pZqadxRexGxCihEXn4Atm_04_YfyuRjSMNgv0T3p03YYNfQ_Sm7puwf1xPhXy4x2ZeGsqnDBAX1ki-GX_nuCFE5NpYG3b4dX33zmVB0S4Y8UKATQjiQqBBh2D5zptLtQN-xGf2_]-->
  </g>
</svg>
