<?xml version="1.0" encoding="UTF-8" standalone="no"?>
<svg
   contentStyleType="text/css"
   height="1059"
   preserveAspectRatio="none"
   version="1.1"
   viewBox="0 0 693.88764 1059"
   width="693.88763"
   zoomAndPan="magnify"
   id="svg53"
   sodipodi:docname="class-diagram-hr-datastructure.svg"
   inkscape:version="1.4 (e7c3feb100, 2024-10-09)"
   xmlns:inkscape="http://www.inkscape.org/namespaces/inkscape"
   xmlns:sodipodi="http://sodipodi.sourceforge.net/DTD/sodipodi-0.dtd"
   xmlns="http://www.w3.org/2000/svg"
   xmlns:svg="http://www.w3.org/2000/svg">
  <sodipodi:namedview
     id="namedview53"
     pagecolor="#ffffff"
     bordercolor="#000000"
     borderopacity="0.25"
     inkscape:showpageshadow="2"
     inkscape:pageopacity="0.0"
     inkscape:pagecheckerboard="0"
     inkscape:deskcolor="#d1d1d1"
     showgrid="false"
     inkscape:zoom="1.6846081"
     inkscape:cx="243.08324"
     inkscape:cy="416.71412"
     inkscape:window-width="1892"
     inkscape:window-height="1035"
     inkscape:window-x="9"
     inkscape:window-y="26"
     inkscape:window-maximized="0"
     inkscape:current-layer="svg53" />
  <defs
     id="defs1" />
  <g
     id="elem_EventLevel"
     transform="translate(62.339927)">
    <rect
       codeLine="16"
       fill="#f1f1f1"
       height="162.4075"
       id="EventLevel"
       rx="2.5"
       ry="2.5"
       style="stroke:#181818;stroke-width:0.5"
       width="280.68701"
       x="344.17999"
       y="134.07001" />
    <circle
       cx="448.12961"
       cy="150.07001"
       fill="#a9dcdf"
       style="stroke:#181818;stroke-width:1"
       id="ellipse2"
       r="11" />
    <path
       d="m 443.3015,155.82 3.3437,-12.1875 h 3.1407 l 3.375,12.1875 h -2.4688 l -0.7344,-3.0156 h -3.5156 l -0.75,3.0156 z m 4.4062,-8.0469 -0.75,3 h 2.5157 l -0.7188,-3 q -0.1406,-0.5781 -0.2656,-1.125 -0.125,-0.5625 -0.2656,-1.1406 -0.1094,0.5781 -0.25,1.1406 -0.1407,0.5469 -0.2657,1.125 z"
       fill="#000000"
       id="path2" />
    <text
       fill="#000000"
       font-family="sans-serif"
       font-size="14px"
       font-style="italic"
       lengthAdjust="spacing"
       textLength="64.287804"
       x="468.62961"
       y="155.502"
       id="text3">EventLevel</text>
    <line
       style="stroke:#181818;stroke-width:0.5"
       x1="345.17999"
       x2="623.867"
       y1="166.07001"
       y2="166.07001"
       id="line3" />
    <polygon
       fill="none"
       points="351.18,180.104 355.18,176.104 359.18,180.104 355.18,184.104 "
       style="stroke:#b38d22;stroke-width:1"
       id="polygon3" />
    <text
       fill="#000000"
       font-family="sans-serif"
       font-size="14px"
       lengthAdjust="spacing"
       textLength="108.0936"
       x="364.17999"
       y="185.0359"
       id="text4">appNumber : int</text>
    <polygon
       fill="none"
       points="351.18,199.1719 355.18,195.1719 359.18,199.1719 355.18,203.1719 "
       style="stroke:#b38d22;stroke-width:1"
       id="polygon4" />
    <text
       fill="#000000"
       font-family="sans-serif"
       font-size="14px"
       lengthAdjust="spacing"
       textLength="172.7173"
       x="364.17999"
       y="204.1039"
       id="text5">appType : ApplicationType</text>
    <polygon
       fill="none"
       points="351.18,218.2398 355.18,214.2398 359.18,218.2398 355.18,222.2398 "
       style="stroke:#b38d22;stroke-width:1"
       id="polygon5" />
    <text
       fill="#000000"
       font-family="sans-serif"
       font-size="14px"
       lengthAdjust="spacing"
       textLength="181.1873"
       x="364.17999"
       y="223.1718"
       id="text6">eventList : List&lt;EventNode&gt;</text>
    <line
       style="stroke:#181818;stroke-width:0.5"
       x1="345.17999"
       x2="623.867"
       y1="231.2738"
       y2="231.2738"
       id="line6" />
    <circle
       cx="355.17999"
       cy="246.30769"
       fill="#84be84"
       style="stroke:#038048;stroke-width:1"
       id="ellipse6"
       r="3" />
    <text
       fill="#000000"
       font-family="sans-serif"
       font-size="14px"
       lengthAdjust="spacing"
       textLength="139.14549"
       x="364.17999"
       y="250.2397"
       id="text7">getAppNumber() : int</text>
    <circle
       cx="355.17999"
       cy="265.37561"
       fill="#84be84"
       style="stroke:#038048;stroke-width:1"
       id="ellipse7"
       r="3" />
    <text
       fill="#000000"
       font-family="sans-serif"
       font-size="14px"
       lengthAdjust="spacing"
       textLength="211.0352"
       x="364.17999"
       y="269.30759"
       id="text8">getEventList() : List&lt;EventNode&gt;</text>
    <circle
       cx="355.17999"
       cy="284.44351"
       fill="#84be84"
       style="stroke:#038048;stroke-width:1"
       id="ellipse8"
       r="3" />
    <text
       fill="#000000"
       font-family="sans-serif"
       font-size="14px"
       lengthAdjust="spacing"
       textLength="254.687"
       x="364.17999"
       y="288.37549"
       id="text9">addEvent(EventNode nodeEvent) : void</text>
  </g>
  <g
     id="elem_EventLevelEval"
     transform="translate(62.519917,0.00375793)">
    <rect
       codeLine="25"
       fill="#f1f1f1"
       height="86.135803"
       id="EventLevelEval"
       rx="2.5"
       ry="2.5"
       style="stroke:#181818;stroke-width:0.5"
       width="260.03711"
       x="49.5"
       y="172.2" />
    <circle
       cx="126.9127"
       cy="188.2"
       fill="#add1b2"
       style="stroke:#181818;stroke-width:1"
       id="ellipse9"
       r="11" />
    <path
       d="m 126.3815,195.1219 q -1.75,0 -2.8906,-0.7344 -1.125,-0.75 -1.6875,-2.0937 -0.5469,-1.3594 -0.5469,-3.1563 0,-2.0312 0.6562,-3.4844 0.6563,-1.4531 1.9375,-2.2343 1.2813,-0.7813 3.1563,-0.7813 0.8906,0 1.5625,0.1875 0.6719,0.1719 1.3594,0.5156 l -0.8125,2.0157 q -0.625,-0.3125 -1.1719,-0.4375 -0.5313,-0.125 -1.0156,-0.125 -1.1719,0 -1.875,0.5312 -0.7032,0.5313 -1,1.4844 -0.2969,0.9531 -0.2969,2.2187 0,2.0157 0.7187,2.9844 0.7188,0.9531 2.3125,0.9531 0.5938,0 1.2188,-0.1562 0.625,-0.1563 1.4531,-0.5313 v 2.2188 q -0.7344,0.3125 -1.5312,0.4687 -0.7813,0.1563 -1.5469,0.1563 z"
       fill="#000000"
       id="path9" />
    <text
       fill="#000000"
       font-family="sans-serif"
       font-size="14px"
       lengthAdjust="spacing"
       textLength="96.711601"
       x="147.4127"
       y="193.632"
       id="text10">EventLevelEval</text>
    <line
       style="stroke:#181818;stroke-width:0.5"
       x1="50.5"
       x2="308.53711"
       y1="204.2"
       y2="204.2"
       id="line10" />
    <polygon
       fill="none"
       points="56.5,218.234 60.5,214.234 64.5,218.234 60.5,222.234 "
       style="stroke:#b38d22;stroke-width:1"
       id="polygon10" />
    <text
       fill="#000000"
       font-family="sans-serif"
       font-size="14px"
       lengthAdjust="spacing"
       textLength="202.0892"
       x="69.5"
       y="223.16589"
       id="text11">nextOrbitLevel : OrbitLevelEval</text>
    <line
       style="stroke:#181818;stroke-width:0.5"
       x1="50.5"
       x2="308.53711"
       y1="231.2679"
       y2="231.2679"
       id="line11" />
    <circle
       cx="60.5"
       cy="246.3019"
       fill="#84be84"
       style="stroke:#038048;stroke-width:1"
       id="ellipse11"
       r="3" />
    <text
       fill="#000000"
       font-family="sans-serif"
       font-size="14px"
       lengthAdjust="spacing"
       textLength="234.03709"
       x="69.5"
       y="250.2339"
       id="text12">getNextOrbitLevel() : OrbitLevelEval</text>
  </g>
  <g
     id="elem_OrbitNode"
     transform="translate(60.887657)">
    <rect
       codeLine="31"
       fill="#f1f1f1"
       height="105.2038"
       id="OrbitNode"
       rx="2.5"
       ry="2.5"
       style="stroke:#181818;stroke-width:0.5"
       width="191.0034"
       x="188.02"
       y="578.88" />
    <circle
       cx="244.4678"
       cy="594.88"
       fill="#add1b2"
       style="stroke:#181818;stroke-width:1"
       id="ellipse12"
       r="11" />
    <path
       d="m 243.9366,601.8019 q -1.75,0 -2.8907,-0.7344 -1.125,-0.75 -1.6875,-2.0937 -0.5468,-1.3594 -0.5468,-3.1563 0,-2.0312 0.6562,-3.4844 0.6563,-1.4531 1.9375,-2.2343 1.2813,-0.7813 3.1563,-0.7813 0.8906,0 1.5625,0.1875 0.6718,0.1719 1.3593,0.5156 l -0.8125,2.0157 q -0.625,-0.3125 -1.1718,-0.4375 -0.5313,-0.125 -1.0157,-0.125 -1.1718,0 -1.875,0.5312 -0.7031,0.5313 -1,1.4844 -0.2968,0.9531 -0.2968,2.2187 0,2.0157 0.7187,2.9844 0.7188,0.9531 2.3125,0.9531 0.5938,0 1.2188,-0.1562 0.625,-0.1563 1.4531,-0.5313 v 2.2188 q -0.7344,0.3125 -1.5313,0.4687 -0.7812,0.1563 -1.5468,0.1563 z"
       fill="#000000"
       id="path12" />
    <text
       fill="#000000"
       font-family="sans-serif"
       font-size="14px"
       lengthAdjust="spacing"
       textLength="69.607697"
       x="264.9678"
       y="600.31201"
       id="text13">OrbitNode</text>
    <line
       style="stroke:#181818;stroke-width:0.5"
       x1="189.02"
       x2="378.02341"
       y1="610.88"
       y2="610.88"
       id="line13" />
    <rect
       fill="none"
       height="6"
       style="stroke:#c82930;stroke-width:1"
       width="6"
       x="196.02"
       y="622.914"
       id="rect13" />
    <text
       fill="#000000"
       font-family="sans-serif"
       font-size="14px"
       lengthAdjust="spacing"
       textLength="118.9856"
       x="208.02"
       y="629.84589"
       id="text14">JerboaOrbit : orbit</text>
    <rect
       fill="none"
       height="6"
       style="stroke:#c82930;stroke-width:1"
       width="6"
       x="196.02"
       y="641.98187"
       id="rect14" />
    <text
       fill="#000000"
       font-family="sans-serif"
       font-size="14px"
       lengthAdjust="spacing"
       textLength="165.0034"
       x="208.02"
       y="648.91388"
       id="text15">alphaPath : List&lt;Integer&gt;</text>
    <rect
       fill="none"
       height="6"
       style="stroke:#c82930;stroke-width:1"
       width="6"
       x="196.02"
       y="661.0498"
       id="rect15" />
    <text
       fill="#000000"
       font-family="sans-serif"
       font-size="14px"
       lengthAdjust="spacing"
       textLength="111.9296"
       x="208.02"
       y="667.98181"
       id="text16">branchIndex : int</text>
    <line
       style="stroke:#181818;stroke-width:0.5"
       x1="189.02"
       x2="378.02341"
       y1="676.0838"
       y2="676.0838"
       id="line16" />
  </g>
  <g
     id="elem_OrbitLevel"
     transform="translate(-39.112343)">
    <rect
       codeLine="37"
       fill="#f1f1f1"
       height="67.067902"
       id="OrbitLevel"
       rx="2.5"
       ry="2.5"
       style="stroke:#181818;stroke-width:0.5"
       width="199.5993"
       x="526.71997"
       y="404.14999" />
    <circle
       cx="590.8468"
       cy="420.14999"
       fill="#a9dcdf"
       style="stroke:#181818;stroke-width:1"
       id="ellipse16"
       r="11" />
    <path
       d="m 586.0187,425.9 3.3437,-12.1875 h 3.1406 l 3.375,12.1875 h -2.4687 l -0.7344,-3.0156 h -3.5156 l -0.75,3.0156 z m 4.4062,-8.0469 -0.75,3 h 2.5156 l -0.7187,-3 q -0.1406,-0.5781 -0.2656,-1.125 -0.125,-0.5625 -0.2657,-1.1406 -0.1093,0.5781 -0.25,1.1406 -0.1406,0.5469 -0.2656,1.125 z"
       fill="#000000"
       id="path16" />
    <text
       fill="#000000"
       font-family="sans-serif"
       font-size="14px"
       font-style="italic"
       lengthAdjust="spacing"
       textLength="62.845798"
       x="611.3468"
       y="425.582"
       id="text17">OrbitLevel</text>
    <line
       style="stroke:#181818;stroke-width:0.5"
       x1="527.71997"
       x2="725.31927"
       y1="436.14999"
       y2="436.14999"
       id="line17" />
    <polygon
       fill="none"
       points="537.72,454.184 533.72,450.184 537.72,446.184 541.72,450.184 "
       style="stroke:#b38d22;stroke-width:1"
       id="polygon17" />
    <text
       fill="#000000"
       font-family="sans-serif"
       font-size="14px"
       lengthAdjust="spacing"
       textLength="173.5993"
       x="546.71997"
       y="455.11591"
       id="text18">orbitList : List&lt;OrbitNode&gt;</text>
    <line
       style="stroke:#181818;stroke-width:0.5"
       x1="527.71997"
       x2="725.31927"
       y1="463.2179"
       y2="463.2179"
       id="line18" />
  </g>
  <g
     id="elem_OrbitLevelEval"
     transform="translate(-39.112343)">
    <rect
       codeLine="41"
       fill="#f1f1f1"
       height="162.4075"
       id="OrbitLevelEval"
       rx="2.5"
       ry="2.5"
       style="stroke:#181818;stroke-width:0.5"
       width="380.77249"
       x="111.13"
       y="356.48001" />
    <circle
       cx="250.16341"
       cy="372.48001"
       fill="#add1b2"
       style="stroke:#181818;stroke-width:1"
       id="ellipse18"
       r="11" />
    <path
       d="m 249.6322,379.4019 q -1.75,0 -2.8906,-0.7344 -1.125,-0.75 -1.6875,-2.0937 -0.5469,-1.3594 -0.5469,-3.1563 0,-2.0312 0.6562,-3.4844 0.6563,-1.4531 1.9375,-2.2343 1.2813,-0.7813 3.1563,-0.7813 0.8906,0 1.5625,0.1875 0.6719,0.1719 1.3594,0.5156 l -0.8125,2.0157 q -0.625,-0.3125 -1.1719,-0.4375 -0.5313,-0.125 -1.0156,-0.125 -1.1719,0 -1.875,0.5312 -0.7032,0.5313 -1,1.4844 -0.2969,0.9531 -0.2969,2.2187 0,2.0157 0.7187,2.9844 0.7188,0.9531 2.3125,0.9531 0.5938,0 1.2188,-0.1562 0.625,-0.1563 1.4531,-0.5313 v 2.2188 q -0.7344,0.3125 -1.5312,0.4687 -0.7813,0.1563 -1.5469,0.1563 z"
       fill="#000000"
       id="path18" />
    <text
       fill="#000000"
       font-family="sans-serif"
       font-size="14px"
       lengthAdjust="spacing"
       textLength="94.205597"
       x="270.66339"
       y="377.91199"
       id="text19">OrbitLevelEval</text>
    <line
       style="stroke:#181818;stroke-width:0.5"
       x1="112.13"
       x2="490.9025"
       y1="388.48001"
       y2="388.48001"
       id="line19" />
    <rect
       fill="none"
       height="6"
       style="stroke:#c82930;stroke-width:1"
       width="6"
       x="119.13"
       y="400.51401"
       id="rect19" />
    <text
       fill="#000000"
       font-family="sans-serif"
       font-size="14px"
       lengthAdjust="spacing"
       textLength="123.5355"
       x="131.13"
       y="407.44589"
       id="text20">nodeName : String</text>
    <rect
       fill="none"
       height="6"
       style="stroke:#c82930;stroke-width:1"
       width="6"
       x="119.13"
       y="419.58191"
       id="rect20" />
    <text
       fill="#000000"
       font-family="sans-serif"
       font-size="14px"
       lengthAdjust="spacing"
       textLength="252.53101"
       x="131.13"
       y="426.51389"
       id="text21">nextEventLevels : List&lt;EventLevelEval&gt;</text>
    <line
       style="stroke:#181818;stroke-width:0.5"
       x1="112.13"
       x2="490.9025"
       y1="434.61581"
       y2="434.61581"
       id="line21" />
    <circle
       cx="122.13"
       cy="449.64981"
       fill="#84be84"
       style="stroke:#038048;stroke-width:1"
       id="ellipse21"
       r="3" />
    <text
       fill="#000000"
       font-family="sans-serif"
       font-size="14px"
       lengthAdjust="spacing"
       textLength="155.4834"
       x="131.13"
       y="453.58179"
       id="text22">getNodeName() : String</text>
    <circle
       cx="122.13"
       cy="468.71771"
       fill="#84be84"
       style="stroke:#038048;stroke-width:1"
       id="ellipse22"
       r="3" />
    <text
       fill="#000000"
       font-family="sans-serif"
       font-size="14px"
       lengthAdjust="spacing"
       textLength="284.47891"
       x="131.13"
       y="472.64969"
       id="text23">getNextEventLevels() : List&lt;EventLevelEval&gt;</text>
    <circle
       cx="122.13"
       cy="487.78561"
       fill="#84be84"
       style="stroke:#038048;stroke-width:1"
       id="ellipse23"
       r="3" />
    <text
       fill="#000000"
       font-family="sans-serif"
       font-size="14px"
       lengthAdjust="spacing"
       textLength="206.02319"
       x="131.13"
       y="491.71759"
       id="text24">getOrbitList() : List&lt;OrbitNode&gt;</text>
    <circle
       cx="122.13"
       cy="506.85349"
       fill="#84be84"
       style="stroke:#038048;stroke-width:1"
       id="ellipse24"
       r="3" />
    <text
       fill="#000000"
       font-family="sans-serif"
       font-size="14px"
       lengthAdjust="spacing"
       textLength="354.77249"
       x="131.13"
       y="510.78549"
       id="text25">getNextEventLevelAtIndex( int index ) : EventLevelEval</text>
  </g>
  <g
     id="elem_EventNode"
     transform="translate(60.887657)">
    <rect
       codeLine="59"
       fill="#f1f1f1"
       height="67.067902"
       id="EventNode"
       rx="2.5"
       ry="2.5"
       style="stroke:#181818;stroke-width:0.5"
       width="137.9296"
       x="11.56"
       y="597.95001" />
    <circle
       cx="41.7771"
       cy="613.95001"
       fill="#add1b2"
       style="stroke:#181818;stroke-width:1"
       id="ellipse25"
       r="11" />
    <path
       d="m 41.2459,620.8719 q -1.75,0 -2.8906,-0.7344 -1.125,-0.75 -1.6875,-2.0937 -0.5469,-1.3594 -0.5469,-3.1563 0,-2.0312 0.6562,-3.4844 0.6563,-1.4531 1.9375,-2.2343 1.2813,-0.7813 3.1563,-0.7813 0.8906,0 1.5625,0.1875 0.6719,0.1719 1.3594,0.5156 l -0.8125,2.0157 q -0.625,-0.3125 -1.1719,-0.4375 -0.5313,-0.125 -1.0156,-0.125 -1.1719,0 -1.875,0.5312 -0.7032,0.5313 -1,1.4844 -0.2969,0.9531 -0.2969,2.2187 0,2.0157 0.7187,2.9844 0.7188,0.9531 2.3125,0.9531 0.5938,0 1.2188,-0.1562 0.625,-0.1563 1.4531,-0.5313 v 2.2188 q -0.7344,0.3125 -1.5312,0.4687 -0.7813,0.1563 -1.5469,0.1563 z"
       fill="#000000"
       id="path25" />
    <text
       fill="#000000"
       font-family="sans-serif"
       font-size="14px"
       lengthAdjust="spacing"
       textLength="72.113701"
       x="59.158699"
       y="619.38202"
       id="text26">EventNode</text>
    <line
       style="stroke:#181818;stroke-width:0.5"
       x1="12.56"
       x2="148.48959"
       y1="629.95001"
       y2="629.95001"
       id="line26" />
    <rect
       fill="none"
       height="6"
       style="stroke:#c82930;stroke-width:1"
       width="6"
       x="19.559999"
       y="641.98401"
       id="rect26" />
    <text
       fill="#000000"
       font-family="sans-serif"
       font-size="14px"
       lengthAdjust="spacing"
       textLength="111.9296"
       x="31.559999"
       y="648.91589"
       id="text27">branchIndex : int</text>
    <line
       style="stroke:#181818;stroke-width:0.5"
       x1="12.56"
       x2="148.48959"
       y1="657.01788"
       y2="657.01788"
       id="line27" />
  </g>
  <g
     id="elem_LinkType"
     transform="translate(60.887657)">
    <rect
       codeLine="64"
       fill="#f1f1f1"
       height="86.135803"
       id="LinkType"
       rx="2.5"
       ry="2.5"
       style="stroke:#181818;stroke-width:0.5"
       width="90.505798"
       x="238.27"
       y="966.48999" />
    <circle
       cx="253.27"
       cy="982.48999"
       fill="#eb937f"
       style="stroke:#181818;stroke-width:1"
       id="ellipse27"
       r="11" />
    <path
       d="m 249.6294,988.99 v -12.1406 h 7.6562 v 2.125 h -5.2812 v 2.6562 h 5.0156 v 2.125 h -5.0156 v 3.1094 h 5.2812 v 2.125 z"
       fill="#000000"
       id="path27" />
    <text
       fill="#000000"
       font-family="sans-serif"
       font-size="14px"
       lengthAdjust="spacing"
       textLength="58.505798"
       x="267.26999"
       y="987.922"
       id="text28">LinkType</text>
    <line
       style="stroke:#181818;stroke-width:0.5"
       x1="239.27"
       x2="327.77579"
       y1="998.48999"
       y2="998.48999"
       id="line28" />
    <text
       fill="#000000"
       font-family="sans-serif"
       font-size="14px"
       lengthAdjust="spacing"
       textLength="49.965801"
       x="244.27"
       y="1017.4559"
       id="text29">ORIGIN</text>
    <text
       fill="#000000"
       font-family="sans-serif"
       font-size="14px"
       lengthAdjust="spacing"
       textLength="42.069801"
       x="244.27"
       y="1036.5239"
       id="text30">TRACE</text>
    <line
       style="stroke:#181818;stroke-width:0.5"
       x1="239.27"
       x2="327.77579"
       y1="1044.6259"
       y2="1044.6259"
       id="line30" />
  </g>
  <g
     id="elem_Event"
     transform="translate(60.887657)">
    <rect
       codeLine="69"
       fill="#f1f1f1"
       height="162.4075"
       id="Event"
       rx="2.5"
       ry="2.5"
       style="stroke:#181818;stroke-width:0.5"
       width="114.5076"
       x="19.27"
       y="744.09003" />
    <circle
       cx="54.9744"
       cy="760.09003"
       fill="#eb937f"
       style="stroke:#181818;stroke-width:1"
       id="ellipse30"
       r="11" />
    <path
       d="M 51.3338,766.59 V 754.4494 H 58.99 v 2.125 h -5.2812 v 2.6562 h 5.0156 v 2.125 h -5.0156 v 3.1094 H 58.99 v 2.125 z"
       fill="#000000"
       id="path30" />
    <text
       fill="#000000"
       font-family="sans-serif"
       font-size="14px"
       lengthAdjust="spacing"
       textLength="36.497799"
       x="73.575401"
       y="765.52197"
       id="text31">Event</text>
    <line
       style="stroke:#181818;stroke-width:0.5"
       x1="20.27"
       x2="132.7776"
       y1="776.09003"
       y2="776.09003"
       id="line31" />
    <text
       fill="#000000"
       font-family="sans-serif"
       font-size="14px"
       lengthAdjust="spacing"
       textLength="68.389702"
       x="25.27"
       y="795.05591"
       id="text32">CREATION</text>
    <text
       fill="#000000"
       font-family="sans-serif"
       font-size="14px"
       lengthAdjust="spacing"
       textLength="93.043701"
       x="25.27"
       y="814.1239"
       id="text33">SUPPRESSION</text>
    <text
       fill="#000000"
       font-family="sans-serif"
       font-size="14px"
       lengthAdjust="spacing"
       textLength="36.0219"
       x="25.27"
       y="833.19177"
       id="text34">SPLIT</text>
    <text
       fill="#000000"
       font-family="sans-serif"
       font-size="14px"
       lengthAdjust="spacing"
       textLength="47.165798"
       x="25.27"
       y="852.2597"
       id="text35">MERGE</text>
    <text
       fill="#000000"
       font-family="sans-serif"
       font-size="14px"
       lengthAdjust="spacing"
       textLength="68.305702"
       x="25.27"
       y="871.32758"
       id="text36">NOEFFECT</text>
    <text
       fill="#000000"
       font-family="sans-serif"
       font-size="14px"
       lengthAdjust="spacing"
       textLength="102.5076"
       x="25.27"
       y="890.39551"
       id="text37">MODIFICATION</text>
    <line
       style="stroke:#181818;stroke-width:0.5"
       x1="20.27"
       x2="132.7776"
       y1="898.4975"
       y2="898.4975"
       id="line37" />
  </g>
  <g
     id="elem_Link"
     transform="translate(60.887657)">
    <rect
       codeLine="79"
       fill="#f1f1f1"
       height="67.067902"
       id="Link"
       rx="2.5"
       ry="2.5"
       style="stroke:#181818;stroke-width:0.5"
       width="230.34309"
       x="168.35001"
       y="791.76001" />
    <circle
       cx="265.73361"
       cy="807.76001"
       fill="#add1b2"
       style="stroke:#181818;stroke-width:1"
       id="ellipse37"
       r="11" />
    <path
       d="m 265.2024,814.6819 q -1.75,0 -2.8907,-0.7344 -1.125,-0.75 -1.6875,-2.0937 -0.5468,-1.3594 -0.5468,-3.1563 0,-2.0312 0.6562,-3.4844 0.6563,-1.4531 1.9375,-2.2343 1.2813,-0.7813 3.1563,-0.7813 0.8906,0 1.5625,0.1875 0.6718,0.1719 1.3593,0.5156 l -0.8125,2.0157 q -0.625,-0.3125 -1.1718,-0.4375 -0.5313,-0.125 -1.0157,-0.125 -1.1718,0 -1.875,0.5312 -0.7031,0.5313 -1,1.4844 -0.2968,0.9531 -0.2968,2.2187 0,2.0157 0.7187,2.9844 0.7188,0.9531 2.3125,0.9531 0.5938,0 1.2188,-0.1562 0.625,-0.1563 1.4531,-0.5313 v 2.2188 q -0.7344,0.3125 -1.5313,0.4687 -0.7812,0.1563 -1.5468,0.1563 z"
       fill="#000000"
       id="path37" />
    <text
       fill="#000000"
       font-family="sans-serif"
       font-size="14px"
       lengthAdjust="spacing"
       textLength="27.075899"
       x="286.23361"
       y="813.19202"
       id="text38">Link</text>
    <line
       style="stroke:#181818;stroke-width:0.5"
       x1="169.35001"
       x2="397.69312"
       y1="823.76001"
       y2="823.76001"
       id="line38" />
    <text
       fill="#000000"
       font-family="sans-serif"
       font-size="14px"
       lengthAdjust="spacing"
       textLength="218.34309"
       x="174.35001"
       y="842.72589"
       id="text39">child : Pair&lt;LinkType,EventNode&gt;</text>
    <line
       style="stroke:#181818;stroke-width:0.5"
       x1="169.35001"
       x2="397.69312"
       y1="850.82788"
       y2="850.82788"
       id="line39" />
  </g>
  <g
     id="link_EventLevelEval_EventLevel"
     transform="translate(62.519917,0.00375793)">
    <path
       codeLine="84"
       d="m 309.75,215.27 h 14.41886"
       fill="none"
       id="EventLevelEval-to-EventLevel"
       style="stroke:#181818;stroke-width:1"
       sodipodi:nodetypes="cc" />
    <polygon
       fill="none"
       points="344,215.27 326,209.27 326,221.27 "
       style="stroke:#181818;stroke-width:1"
       id="polygon39"
       transform="translate(-1.8311362)" />
  </g>
  <g
     id="link_OrbitLevelEval_OrbitLevel"
     transform="translate(-39.112343)">
    <path
       codeLine="85"
       d="m 491.98,437.68 c 11.78,0 5.35,0 16.47,0"
       fill="none"
       id="OrbitLevelEval-to-OrbitLevel"
       style="stroke:#181818;stroke-width:1" />
    <polygon
       fill="none"
       points="526.45,437.68 508.45,431.68 508.45,443.68 "
       style="stroke:#181818;stroke-width:1"
       id="polygon40" />
  </g>
  <g
     id="g3"
     transform="translate(-37.481929)">
    <g
       id="elem_EvaluationDAG"
       transform="translate(100)">
      <rect
         codeLine="6"
         fill="#f1f1f1"
         height="67.067902"
         id="EvaluationDAG"
         rx="2.5"
         ry="2.5"
         style="stroke:#181818;stroke-width:0.5"
         width="341.0408"
         x="9"
         y="7" />
      <circle
         cx="126.2636"
         cy="23"
         fill="#add1b2"
         style="stroke:#181818;stroke-width:1"
         id="ellipse1"
         r="11" />
      <path
         d="m 125.7323,29.9219 q -1.75,0 -2.8906,-0.7344 -1.125,-0.75 -1.6875,-2.0937 -0.5469,-1.3594 -0.5469,-3.1563 0,-2.0312 0.6563,-3.4844 0.6562,-1.4531 1.9375,-2.2343 1.2812,-0.7813 3.1562,-0.7813 0.8907,0 1.5625,0.1875 0.6719,0.1719 1.3594,0.5156 l -0.8125,2.0157 q -0.625,-0.3125 -1.1719,-0.4375 -0.5312,-0.125 -1.0156,-0.125 -1.1719,0 -1.875,0.5312 -0.7031,0.5313 -1,1.4844 -0.2969,0.9531 -0.2969,2.2187 0,2.0157 0.7188,2.9844 0.7187,0.9531 2.3125,0.9531 0.5937,0 1.2187,-0.1562 0.625,-0.1563 1.4532,-0.5313 v 2.2188 q -0.7344,0.3125 -1.5313,0.4687 -0.7812,0.1563 -1.5469,0.1563 z"
         fill="#000000"
         id="path1" />
      <text
         fill="#000000"
         font-family="sans-serif"
         font-size="14px"
         lengthAdjust="spacing"
         textLength="98.013603"
         x="146.7636"
         y="28.431999"
         id="text1">EvaluationDAG</text>
      <line
         style="stroke:#181818;stroke-width:0.5"
         x1="10"
         x2="349.0408"
         y1="39"
         y2="39"
         id="line1" />
      <line
         style="stroke:#181818;stroke-width:0.5"
         x1="10"
         x2="349.0408"
         y1="47"
         y2="47"
         id="line2" />
      <polygon
         fill="#ffff44"
         points="20,57.034 24,61.034 20,65.034 16,61.034 "
         style="stroke:#b38d22;stroke-width:1"
         id="polygon2" />
      <text
         fill="#000000"
         font-family="sans-serif"
         font-size="14px"
         lengthAdjust="spacing"
         textLength="315.0408"
         x="29"
         y="65.965897"
         id="text2">Map&lt;Integer, List&lt;EventLevelEval&gt;&gt; getLeaves()</text>
    </g>
    <g
       id="link_EvaluationDAG_EventLevelEval"
       transform="translate(100)">
      <path
         codeLine="87"
         d="m 179.52,86.23 c 0,27.76 0,49.34 0,79.51"
         fill="none"
         id="EvaluationDAG-EventLevelEval"
         style="stroke:#181818;stroke-width:1" />
      <polygon
         fill="none"
         points="179.52,74.23 175.52,80.23 179.52,86.23 183.52,80.23 "
         style="stroke:#181818;stroke-width:1"
         id="polygon41" />
      <polygon
         fill="#181818"
         points="179.52,171.74 183.52,162.74 179.52,166.74 175.52,162.74 "
         style="stroke:#181818;stroke-width:1"
         id="polygon42" />
      <text
         fill="#000000"
         font-family="sans-serif"
         font-size="13px"
         lengthAdjust="spacing"
         textLength="38.141998"
         x="138.5034"
         y="160.40131"
         id="text42">leaves</text>
    </g>
  </g>
  <polygon
     fill="#181818"
     points="214.34,267.68 210.34,258.68 206.34,267.68 210.34,263.68 "
     style="stroke:#181818;stroke-width:1"
     id="polygon43"
     transform="translate(31.696163,1.1064938)" />
  <path
     codeLine="90"
     d="m 244.40766,519.31 v 29.665 l 100.13217,0.12004 -0.13046,29.78496"
     fill="none"
     id="OrbitLevelEval-OrbitNode"
     style="stroke:#181818;stroke-width:1"
     sodipodi:nodetypes="cccc" />
  <text
     fill="#000000"
     font-family="sans-serif"
     font-size="13px"
     lengthAdjust="spacing"
     textLength="27.976"
     x="253.9521"
     y="540.69983"
     id="text43"
     transform="translate(-40.91545,-7.509829)">level</text>
  <text
     fill="#000000"
     font-family="sans-serif"
     font-size="13px"
     lengthAdjust="spacing"
     textLength="50.362099"
     x="230.0296"
     y="566.96051"
     id="text44"
     transform="translate(118.29742,7.79168)">orbitList</text>
  <path
     codeLine="91"
     d="m 112.01992,215.27166 -70.812263,0.13667 V 631.4896 l 24.7589,-0.006"
     fill="none"
     id="EventLevelEval-to-EventNode"
     style="stroke:#181818;stroke-width:1"
     sodipodi:nodetypes="cccc" />
  <polygon
     fill="#181818"
     points="80.32,597.72 84.32,588.72 80.32,592.72 76.32,588.72 "
     style="stroke:#181818;stroke-width:1"
     id="polygon44"
     transform="rotate(-90,92.525259,619.2787)" />
  <text
     fill="#000000"
     font-family="sans-serif"
     font-size="13px"
     lengthAdjust="spacing"
     textLength="27.976"
     x="36.8391"
     y="280.20761"
     id="text45"
     transform="translate(43.30981,-68.373856)">level</text>
  <text
     fill="#000000"
     font-family="sans-serif"
     font-size="13px"
     lengthAdjust="spacing"
     textLength="55.0811"
     x="19.614201"
     y="585.9729"
     id="text46"
     transform="translate(-12.796297,59.548965)">eventList</text>
  <path
     codeLine="93"
     d="m 222.69766,631.48 c 12.18,0 7.04,0 19.79,0"
     fill="none"
     id="EventNode-OrbitNode"
     style="stroke:#181818;stroke-width:1" />
  <polygon
     fill="none"
     points="155.81,635.48 161.81,631.48 155.81,627.48 149.81,631.48 "
     style="stroke:#181818;stroke-width:1"
     id="polygon46"
     transform="translate(60.887657)" />
  <polygon
     fill="#181818"
     points="178.6,627.48 182.6,631.48 178.6,635.48 187.6,631.48 "
     style="stroke:#181818;stroke-width:1"
     id="polygon47"
     transform="translate(60.887657)" />
  <text
     fill="#000000"
     font-family="sans-serif"
     font-size="13px"
     lengthAdjust="spacing"
     textLength="28.976999"
     x="157.3754"
     y="627.05389"
     id="text47"
     transform="translate(58.887657,-2)">child</text>
  <g
     id="link_OrbitNode_Link"
     transform="translate(60.887657)">
    <path
       codeLine="94"
       d="m 283.52,696.44 c 0,34.07 0,59.34 0,88.87"
       fill="none"
       id="OrbitNode-Link"
       style="stroke:#181818;stroke-width:1" />
    <polygon
       fill="none"
       points="287.52,690.44 283.52,684.44 279.52,690.44 283.52,696.44 "
       style="stroke:#181818;stroke-width:1"
       id="polygon48" />
    <polygon
       fill="#181818"
       points="279.52,782.31 283.52,791.31 287.52,782.31 283.52,786.31 "
       style="stroke:#181818;stroke-width:1"
       id="polygon49" />
    <text
       fill="#000000"
       font-family="sans-serif"
       font-size="13px"
       lengthAdjust="spacing"
       textLength="49.712101"
       x="229.7663"
       y="779.91248"
       id="text49">children</text>
  </g>
  <g
     id="link_Link_LinkType"
     transform="translate(60.887657)">
    <path
       codeLine="96"
       d="m 283.52,859.09 c 0,30.13 0,68.4 0,101.13"
       fill="none"
       id="Link-to-LinkType"
       style="stroke:#181818;stroke-width:1" />
    <polygon
       fill="#181818"
       points="279.52,957.22 283.52,966.22 287.52,957.22 283.52,961.22 "
       style="stroke:#181818;stroke-width:1"
       id="polygon50" />
    <text
       fill="#000000"
       font-family="sans-serif"
       font-size="13px"
       lengthAdjust="spacing"
       textLength="50.868999"
       x="229.4509"
       y="954.58978"
       id="text50">linkType</text>
  </g>
  <g
     id="link_Link_EventNode"
     transform="translate(60.887657)">
    <path
       codeLine="97"
       d="m 167.99,825.29 c -15.6,0 -26.36,0 -26.36,0 0,0 0,-98.52 0,-154.05"
       fill="none"
       id="Link-to-EventNode"
       style="stroke:#181818;stroke-width:1" />
    <polygon
       fill="#181818"
       points="145.63,674.24 141.63,665.24 137.63,674.24 141.63,670.24 "
       style="stroke:#181818;stroke-width:1"
       id="polygon51" />
    <text
       fill="#000000"
       font-family="sans-serif"
       font-size="13px"
       lengthAdjust="spacing"
       textLength="33.994999"
       x="116.9458"
       y="686.9931"
       id="text51">event</text>
  </g>
  <g
     id="link_EventNode_Event"
     transform="translate(60.887657)">
    <path
       codeLine="99"
       d="m 76.52,677.24 c 0,21.69 0,32.86 0,60.35"
       fill="none"
       id="EventNode-Event"
       style="stroke:#181818;stroke-width:1" />
    <polygon
       fill="#181818"
       points="80.52,671.24 76.52,665.24 72.52,671.24 76.52,677.24 "
       style="stroke:#181818;stroke-width:1"
       id="polygon52" />
    <polygon
       fill="#181818"
       points="72.52,734.59 76.52,743.59 80.52,734.59 76.52,738.59 "
       style="stroke:#181818;stroke-width:1"
       id="polygon53" />
    <text
       fill="#000000"
       font-family="sans-serif"
       font-size="13px"
       lengthAdjust="spacing"
       textLength="33.994999"
       x="42.044399"
       y="732.20392"
       id="text53">event</text>
  </g>
  <path
     style="fill:none;stroke:#000000;stroke-width:1.334;stroke-linecap:square;stroke-dasharray:none;stroke-opacity:1"
     d="m 262.40391,356.48001 v -44.24122 h -20.44198 l 0.0742,-47.4523"
     id="path3"
     sodipodi:nodetypes="cccc" />
  <rect
     style="fill:none;stroke:#000000;stroke-width:1.334;stroke-linecap:square;stroke-dasharray:none;stroke-opacity:0"
     id="rect4"
     width="693.88763"
     height="1059"
     x="0"
     y="0"
     rx="2.5"
     ry="2.5" />
</svg>
