<?xml version="1.0" encoding="UTF-8" standalone="no"?>
<svg
   contentStyleType="text/css"
   height="1060.334"
   preserveAspectRatio="none"
   version="1.1"
   viewBox="0 0 695.22162 1060.334"
   width="695.22162"
   zoomAndPan="magnify"
   id="svg55"
   sodipodi:docname="class-diagram-rt-datastructure.svg"
   inkscape:version="1.4 (e7c3feb100, 2024-10-09)"
   xmlns:inkscape="http://www.inkscape.org/namespaces/inkscape"
   xmlns:sodipodi="http://sodipodi.sourceforge.net/DTD/sodipodi-0.dtd"
   xmlns="http://www.w3.org/2000/svg"
   xmlns:svg="http://www.w3.org/2000/svg">
  <sodipodi:namedview
     id="namedview55"
     pagecolor="#ffffff"
     bordercolor="#000000"
     borderopacity="0.25"
     inkscape:showpageshadow="2"
     inkscape:pageopacity="0.0"
     inkscape:pagecheckerboard="0"
     inkscape:deskcolor="#d1d1d1"
     inkscape:zoom="1.1702027"
     inkscape:cx="-33.754836"
     inkscape:cy="359.76673"
     inkscape:window-width="1892"
     inkscape:window-height="1035"
     inkscape:window-x="9"
     inkscape:window-y="26"
     inkscape:window-maximized="0"
     inkscape:current-layer="link_OrbitLevelReeval_OrbitNode"
     showgrid="true">
    <inkscape:grid
       id="grid1"
       units="px"
       originx="0"
       originy="0"
       spacingx="1"
       spacingy="1"
       empcolor="#0099e5"
       empopacity="0.30196078"
       color="#0099e5"
       opacity="0.14901961"
       empspacing="5"
       enabled="true"
       visible="true" />
  </sodipodi:namedview>
  <defs
     id="defs1" />
  <g
     id="elem_EventLevel"
     transform="translate(58.683914)">
    <rect
       codeLine="11"
       fill="#f1f1f1"
       height="162.4075"
       id="EventLevel"
       rx="2.5"
       ry="2.5"
       style="stroke:#181818;stroke-width:0.5"
       width="280.68701"
       x="349.62"
       y="153.14" />
    <circle
       cx="453.56961"
       cy="169.14"
       fill="#a9dcdf"
       style="stroke:#181818;stroke-width:1"
       id="ellipse3"
       r="11" />
    <path
       d="m 448.7415,174.89 3.3437,-12.1875 h 3.1407 l 3.375,12.1875 h -2.4688 l -0.7344,-3.0156 h -3.5156 l -0.75,3.0156 z m 4.4062,-8.0469 -0.75,3 h 2.5157 l -0.7188,-3 q -0.1406,-0.5781 -0.2656,-1.125 -0.125,-0.5625 -0.2656,-1.1406 -0.1094,0.5781 -0.25,1.1406 -0.1407,0.5469 -0.2657,1.125 z"
       fill="#000000"
       id="path3" />
    <text
       fill="#000000"
       font-family="sans-serif"
       font-size="14px"
       font-style="italic"
       lengthAdjust="spacing"
       textLength="64.287804"
       x="474.06961"
       y="174.57201"
       id="text4">EventLevel</text>
    <line
       style="stroke:#181818;stroke-width:0.5"
       x1="350.62"
       x2="629.30701"
       y1="185.14"
       y2="185.14"
       id="line4" />
    <polygon
       fill="none"
       points="364.62,199.174 360.62,203.174 356.62,199.174 360.62,195.174 "
       style="stroke:#b38d22;stroke-width:1"
       id="polygon4" />
    <text
       fill="#000000"
       font-family="sans-serif"
       font-size="14px"
       lengthAdjust="spacing"
       textLength="108.0936"
       x="369.62"
       y="204.1059"
       id="text5">appNumber : int</text>
    <polygon
       fill="none"
       points="364.62,218.2419 360.62,222.2419 356.62,218.2419 360.62,214.2419 "
       style="stroke:#b38d22;stroke-width:1"
       id="polygon5" />
    <text
       fill="#000000"
       font-family="sans-serif"
       font-size="14px"
       lengthAdjust="spacing"
       textLength="172.7173"
       x="369.62"
       y="223.1739"
       id="text6">appType : ApplicationType</text>
    <polygon
       fill="none"
       points="364.62,237.3098 360.62,241.3098 356.62,237.3098 360.62,233.3098 "
       style="stroke:#b38d22;stroke-width:1"
       id="polygon6" />
    <text
       fill="#000000"
       font-family="sans-serif"
       font-size="14px"
       lengthAdjust="spacing"
       textLength="181.1873"
       x="369.62"
       y="242.24181"
       id="text7">eventList : List&lt;EventNode&gt;</text>
    <line
       style="stroke:#181818;stroke-width:0.5"
       x1="350.62"
       x2="629.30701"
       y1="250.3438"
       y2="250.3438"
       id="line7" />
    <circle
       cx="360.62"
       cy="265.37769"
       fill="#84be84"
       style="stroke:#038048;stroke-width:1"
       id="ellipse7"
       r="3" />
    <text
       fill="#000000"
       font-family="sans-serif"
       font-size="14px"
       lengthAdjust="spacing"
       textLength="139.14549"
       x="369.62"
       y="269.30969"
       id="text8">getAppNumber() : int</text>
    <circle
       cx="360.62"
       cy="284.44559"
       fill="#84be84"
       style="stroke:#038048;stroke-width:1"
       id="ellipse8"
       r="3" />
    <text
       fill="#000000"
       font-family="sans-serif"
       font-size="14px"
       lengthAdjust="spacing"
       textLength="211.0352"
       x="369.62"
       y="288.37759"
       id="text9">getEventList() : List&lt;EventNode&gt;</text>
    <circle
       cx="360.62"
       cy="303.51349"
       fill="#84be84"
       style="stroke:#038048;stroke-width:1"
       id="ellipse9"
       r="3" />
    <text
       fill="#000000"
       font-family="sans-serif"
       font-size="14px"
       lengthAdjust="spacing"
       textLength="254.687"
       x="369.62"
       y="307.4455"
       id="text10">addEvent(EventNode nodeEvent) : void</text>
  </g>
  <g
     id="elem_EventLevelReeval"
     transform="translate(57.222774,0.00584412)">
    <rect
       codeLine="20"
       fill="#f1f1f1"
       height="86.135803"
       id="EventLevelReeval"
       rx="2.5"
       ry="2.5"
       style="stroke:#181818;stroke-width:0.5"
       width="276.75299"
       x="37.59"
       y="191.27" />
    <circle
       cx="115.0027"
       cy="207.27"
       fill="#add1b2"
       style="stroke:#181818;stroke-width:1"
       id="ellipse10"
       r="11" />
    <path
       d="m 114.4715,214.1919 q -1.75,0 -2.8906,-0.7344 -1.125,-0.75 -1.6875,-2.0937 -0.5469,-1.3594 -0.5469,-3.1563 0,-2.0312 0.6562,-3.4844 0.6563,-1.4531 1.9375,-2.2343 1.2813,-0.7813 3.1563,-0.7813 0.8906,0 1.5625,0.1875 0.6719,0.1719 1.3594,0.5156 l -0.8125,2.0157 q -0.625,-0.3125 -1.1719,-0.4375 -0.5313,-0.125 -1.0156,-0.125 -1.1719,0 -1.875,0.5312 -0.7032,0.5313 -1,1.4844 -0.2969,0.9531 -0.2969,2.2187 0,2.0157 0.7187,2.9844 0.7188,0.9531 2.3125,0.9531 0.5938,0 1.2188,-0.1562 0.625,-0.1563 1.4531,-0.5313 v 2.2188 q -0.7344,0.3125 -1.5312,0.4687 -0.7813,0.1563 -1.5469,0.1563 z"
       fill="#000000"
       id="path10" />
    <text
       fill="#000000"
       font-family="sans-serif"
       font-size="14px"
       lengthAdjust="spacing"
       textLength="113.4275"
       x="135.5027"
       y="212.702"
       id="text11">EventLevelReeval</text>
    <line
       style="stroke:#181818;stroke-width:0.5"
       x1="38.59"
       x2="313.34299"
       y1="223.27"
       y2="223.27"
       id="line11" />
    <polygon
       fill="none"
       points="44.59,237.304 48.59,233.304 52.59,237.304 48.59,241.304 "
       style="stroke:#b38d22;stroke-width:1"
       id="polygon11" />
    <text
       fill="#000000"
       font-family="sans-serif"
       font-size="14px"
       lengthAdjust="spacing"
       textLength="218.8051"
       x="57.59"
       y="242.2359"
       id="text12">nextOrbitLevel : OrbitLevelReeval</text>
    <line
       style="stroke:#181818;stroke-width:0.5"
       x1="38.59"
       x2="313.34299"
       y1="250.33791"
       y2="250.33791"
       id="line12" />
    <circle
       cx="48.59"
       cy="265.37189"
       fill="#84be84"
       style="stroke:#038048;stroke-width:1"
       id="ellipse12"
       r="3" />
    <text
       fill="#000000"
       font-family="sans-serif"
       font-size="14px"
       lengthAdjust="spacing"
       textLength="250.75301"
       x="57.59"
       y="269.30389"
       id="text13">getNextOrbitLevel() : OrbitLevelReeval</text>
  </g>
  <g
     id="elem_OrbitLevel"
     transform="translate(-46.778366)">
    <rect
       codeLine="38"
       fill="#f1f1f1"
       height="67.067902"
       id="OrbitLevel"
       rx="2.5"
       ry="2.5"
       style="stroke:#181818;stroke-width:0.5"
       width="199.5993"
       x="536.16998"
       y="423.22" />
    <circle
       cx="600.29681"
       cy="439.22"
       fill="#a9dcdf"
       style="stroke:#181818;stroke-width:1"
       id="ellipse17"
       r="11" />
    <path
       d="m 595.4687,444.97 3.3437,-12.1875 h 3.1406 l 3.375,12.1875 h -2.4687 l -0.7344,-3.0156 h -3.5156 l -0.75,3.0156 z m 4.4062,-8.0469 -0.75,3 h 2.5156 l -0.7187,-3 q -0.1406,-0.5781 -0.2656,-1.125 -0.125,-0.5625 -0.2657,-1.1406 -0.1093,0.5781 -0.25,1.1406 -0.1406,0.5469 -0.2656,1.125 z"
       fill="#000000"
       id="path17" />
    <text
       fill="#000000"
       font-family="sans-serif"
       font-size="14px"
       font-style="italic"
       lengthAdjust="spacing"
       textLength="62.845798"
       x="620.79681"
       y="444.65201"
       id="text18">OrbitLevel</text>
    <line
       style="stroke:#181818;stroke-width:0.5"
       x1="537.16998"
       x2="734.76929"
       y1="455.22"
       y2="455.22"
       id="line18" />
    <polygon
       fill="none"
       points="547.17,465.254 551.17,469.254 547.17,473.254 543.17,469.254 "
       style="stroke:#b38d22;stroke-width:1"
       id="polygon18" />
    <text
       fill="#000000"
       font-family="sans-serif"
       font-size="14px"
       lengthAdjust="spacing"
       textLength="173.5993"
       x="556.16998"
       y="474.18591"
       id="text19">orbitList : List&lt;OrbitNode&gt;</text>
    <line
       style="stroke:#181818;stroke-width:0.5"
       x1="537.16998"
       x2="734.76929"
       y1="482.2879"
       y2="482.2879"
       id="line19" />
  </g>
  <g
     id="elem_OrbitLevelReeval"
     transform="translate(-46.778366)">
    <rect
       codeLine="42"
       fill="#f1f1f1"
       height="162.4075"
       id="OrbitLevelReeval"
       rx="2.5"
       ry="2.5"
       style="stroke:#181818;stroke-width:0.5"
       width="397.48849"
       x="103.22"
       y="375.54999" />
    <circle
       cx="242.25349"
       cy="391.54999"
       fill="#add1b2"
       style="stroke:#181818;stroke-width:1"
       id="ellipse19"
       r="11" />
    <path
       d="m 241.7222,398.4719 q -1.75,0 -2.8906,-0.7344 -1.125,-0.75 -1.6875,-2.0937 -0.5469,-1.3594 -0.5469,-3.1563 0,-2.0312 0.6563,-3.4844 0.6562,-1.4531 1.9375,-2.2343 1.2812,-0.7813 3.1562,-0.7813 0.8906,0 1.5625,0.1875 0.6719,0.1719 1.3594,0.5156 l -0.8125,2.0157 q -0.625,-0.3125 -1.1719,-0.4375 -0.5312,-0.125 -1.0156,-0.125 -1.1719,0 -1.875,0.5312 -0.7031,0.5313 -1,1.4844 -0.2969,0.9531 -0.2969,2.2187 0,2.0157 0.7188,2.9844 0.7187,0.9531 2.3125,0.9531 0.5937,0 1.2187,-0.1562 0.625,-0.1563 1.4531,-0.5313 v 2.2188 q -0.7343,0.3125 -1.5312,0.4687 -0.7813,0.1563 -1.5469,0.1563 z"
       fill="#000000"
       id="path19" />
    <text
       fill="#000000"
       font-family="sans-serif"
       font-size="14px"
       lengthAdjust="spacing"
       textLength="110.9216"
       x="262.75351"
       y="396.98199"
       id="text20">OrbitLevelReeval</text>
    <line
       style="stroke:#181818;stroke-width:0.5"
       x1="104.22"
       x2="499.7085"
       y1="407.54999"
       y2="407.54999"
       id="line20" />
    <rect
       fill="none"
       height="6"
       style="stroke:#c82930;stroke-width:1"
       width="6"
       x="111.22"
       y="419.58401"
       id="rect20" />
    <text
       fill="#000000"
       font-family="sans-serif"
       font-size="14px"
       lengthAdjust="spacing"
       textLength="101.9336"
       x="123.22"
       y="426.5159"
       id="text21">dartID : Integer</text>
    <rect
       fill="none"
       height="6"
       style="stroke:#c82930;stroke-width:1"
       width="6"
       x="111.22"
       y="438.65189"
       id="rect21" />
    <text
       fill="#000000"
       font-family="sans-serif"
       font-size="14px"
       lengthAdjust="spacing"
       textLength="269.24689"
       x="123.22"
       y="445.58389"
       id="text22">nextEventLevels : List&lt;EventLevelReeval&gt;</text>
    <line
       style="stroke:#181818;stroke-width:0.5"
       x1="104.22"
       x2="499.7085"
       y1="453.68579"
       y2="453.68579"
       id="line22" />
    <circle
       cx="114.22"
       cy="468.71979"
       fill="#84be84"
       style="stroke:#038048;stroke-width:1"
       id="ellipse22"
       r="3" />
    <text
       fill="#000000"
       font-family="sans-serif"
       font-size="14px"
       lengthAdjust="spacing"
       textLength="155.4834"
       x="123.22"
       y="472.65179"
       id="text23">getNodeName() : String</text>
    <circle
       cx="114.22"
       cy="487.78769"
       fill="#84be84"
       style="stroke:#038048;stroke-width:1"
       id="ellipse23"
       r="3" />
    <text
       fill="#000000"
       font-family="sans-serif"
       font-size="14px"
       lengthAdjust="spacing"
       textLength="301.19479"
       x="123.22"
       y="491.7197"
       id="text24">getNextEventLevels() : List&lt;EventLevelReeval&gt;</text>
    <circle
       cx="114.22"
       cy="506.85559"
       fill="#84be84"
       style="stroke:#038048;stroke-width:1"
       id="ellipse24"
       r="3" />
    <text
       fill="#000000"
       font-family="sans-serif"
       font-size="14px"
       lengthAdjust="spacing"
       textLength="206.02319"
       x="123.22"
       y="510.7876"
       id="text25">getOrbitList() : List&lt;OrbitNode&gt;</text>
    <circle
       cx="114.22"
       cy="525.92352"
       fill="#84be84"
       style="stroke:#038048;stroke-width:1"
       id="ellipse25"
       r="3" />
    <text
       fill="#000000"
       font-family="sans-serif"
       font-size="14px"
       lengthAdjust="spacing"
       textLength="371.48849"
       x="123.22"
       y="529.85553"
       id="text26">getNextEventLevelAtIndex( int index ) : EventLevelReeval</text>
  </g>
  <g
     id="elem_EventNode"
     transform="translate(58.735774,-1.483167)">
    <rect
       codeLine="60"
       fill="#f1f1f1"
       height="67.067902"
       id="EventNode"
       rx="2.5"
       ry="2.5"
       style="stroke:#181818;stroke-width:0.5"
       width="137.9296"
       x="7"
       y="617.02002" />
    <circle
       cx="37.217098"
       cy="633.02002"
       fill="#add1b2"
       style="stroke:#181818;stroke-width:1"
       id="ellipse26"
       r="11" />
    <path
       d="m 36.6859,639.9419 q -1.75,0 -2.8906,-0.7344 -1.125,-0.75 -1.6875,-2.0937 -0.5469,-1.3594 -0.5469,-3.1563 0,-2.0312 0.6562,-3.4844 0.6563,-1.4531 1.9375,-2.2343 1.2813,-0.7813 3.1563,-0.7813 0.8906,0 1.5625,0.1875 0.6719,0.1719 1.3594,0.5156 l -0.8125,2.0157 q -0.625,-0.3125 -1.1719,-0.4375 -0.5313,-0.125 -1.0156,-0.125 -1.1719,0 -1.875,0.5312 -0.7032,0.5313 -1,1.4844 -0.2969,0.9531 -0.2969,2.2187 0,2.0157 0.7187,2.9844 0.7188,0.9531 2.3125,0.9531 0.5938,0 1.2188,-0.1562 0.625,-0.1563 1.4531,-0.5313 v 2.2188 q -0.7344,0.3125 -1.5312,0.4687 -0.7813,0.1563 -1.5469,0.1563 z"
       fill="#000000"
       id="path26" />
    <text
       fill="#000000"
       font-family="sans-serif"
       font-size="14px"
       lengthAdjust="spacing"
       textLength="72.113701"
       x="54.598701"
       y="638.45203"
       id="text27">EventNode</text>
    <line
       style="stroke:#181818;stroke-width:0.5"
       x1="8"
       x2="143.9296"
       y1="649.02002"
       y2="649.02002"
       id="line27" />
    <rect
       fill="none"
       height="6"
       style="stroke:#c82930;stroke-width:1"
       width="6"
       x="15"
       y="661.05402"
       id="rect27" />
    <text
       fill="#000000"
       font-family="sans-serif"
       font-size="14px"
       lengthAdjust="spacing"
       textLength="111.9296"
       x="27"
       y="667.9859"
       id="text28">branchIndex : int</text>
    <line
       style="stroke:#181818;stroke-width:0.5"
       x1="8"
       x2="143.9296"
       y1="676.08789"
       y2="676.08789"
       id="line28" />
  </g>
  <g
     id="elem_LinkType"
     transform="translate(59.795674,-20.036537)">
    <rect
       codeLine="65"
       fill="#f1f1f1"
       height="86.135803"
       id="LinkType"
       rx="2.5"
       ry="2.5"
       style="stroke:#181818;stroke-width:0.5"
       width="90.505798"
       x="233.71001"
       y="985.56" />
    <circle
       cx="248.71001"
       cy="1001.56"
       fill="#eb937f"
       style="stroke:#181818;stroke-width:1"
       id="ellipse28"
       r="11" />
    <path
       d="m 245.0694,1008.06 v -12.1406 h 7.6562 v 2.125 h -5.2812 v 2.6562 h 5.0156 v 2.125 h -5.0156 v 3.1094 h 5.2812 v 2.125 z"
       fill="#000000"
       id="path28" />
    <text
       fill="#000000"
       font-family="sans-serif"
       font-size="14px"
       lengthAdjust="spacing"
       textLength="58.505798"
       x="262.70999"
       y="1006.992"
       id="text29">LinkType</text>
    <line
       style="stroke:#181818;stroke-width:0.5"
       x1="234.71001"
       x2="323.21579"
       y1="1017.56"
       y2="1017.56"
       id="line29" />
    <text
       fill="#000000"
       font-family="sans-serif"
       font-size="14px"
       lengthAdjust="spacing"
       textLength="49.965801"
       x="239.71001"
       y="1036.5259"
       id="text30">ORIGIN</text>
    <text
       fill="#000000"
       font-family="sans-serif"
       font-size="14px"
       lengthAdjust="spacing"
       textLength="42.069801"
       x="239.71001"
       y="1055.5939"
       id="text31">TRACE</text>
    <line
       style="stroke:#181818;stroke-width:0.5"
       x1="234.71001"
       x2="323.21579"
       y1="1063.6958"
       y2="1063.6958"
       id="line31" />
  </g>
  <g
     id="elem_Event"
     transform="translate(60.740574,-4.7052764)">
    <rect
       codeLine="70"
       fill="#f1f1f1"
       height="162.4075"
       id="Event"
       rx="2.5"
       ry="2.5"
       style="stroke:#181818;stroke-width:0.5"
       width="114.5076"
       x="14.71"
       y="763.15997" />
    <circle
       cx="50.414398"
       cy="779.15997"
       fill="#eb937f"
       style="stroke:#181818;stroke-width:1"
       id="ellipse31"
       r="11" />
    <path
       d="M 46.7738,785.66 V 773.5194 H 54.43 v 2.125 h -5.2812 v 2.6562 h 5.0156 v 2.125 h -5.0156 v 3.1094 H 54.43 v 2.125 z"
       fill="#000000"
       id="path31" />
    <text
       fill="#000000"
       font-family="sans-serif"
       font-size="14px"
       lengthAdjust="spacing"
       textLength="36.497799"
       x="69.015404"
       y="784.59198"
       id="text32">Event</text>
    <line
       style="stroke:#181818;stroke-width:0.5"
       x1="15.71"
       x2="128.21761"
       y1="795.15997"
       y2="795.15997"
       id="line32" />
    <text
       fill="#000000"
       font-family="sans-serif"
       font-size="14px"
       lengthAdjust="spacing"
       textLength="68.389702"
       x="20.709999"
       y="814.12592"
       id="text33">CREATION</text>
    <text
       fill="#000000"
       font-family="sans-serif"
       font-size="14px"
       lengthAdjust="spacing"
       textLength="93.043701"
       x="20.709999"
       y="833.19391"
       id="text34">SUPPRESSION</text>
    <text
       fill="#000000"
       font-family="sans-serif"
       font-size="14px"
       lengthAdjust="spacing"
       textLength="36.0219"
       x="20.709999"
       y="852.26178"
       id="text35">SPLIT</text>
    <text
       fill="#000000"
       font-family="sans-serif"
       font-size="14px"
       lengthAdjust="spacing"
       textLength="47.165798"
       x="20.709999"
       y="871.32971"
       id="text36">MERGE</text>
    <text
       fill="#000000"
       font-family="sans-serif"
       font-size="14px"
       lengthAdjust="spacing"
       textLength="68.305702"
       x="20.709999"
       y="890.39758"
       id="text37">NOEFFECT</text>
    <text
       fill="#000000"
       font-family="sans-serif"
       font-size="14px"
       lengthAdjust="spacing"
       textLength="102.5076"
       x="20.709999"
       y="909.46552"
       id="text38">MODIFICATION</text>
    <line
       style="stroke:#181818;stroke-width:0.5"
       x1="15.71"
       x2="128.21761"
       y1="917.5675"
       y2="917.5675"
       id="line38" />
  </g>
  <g
     id="elem_Link"
     transform="translate(59.797044,-20.036537)">
    <rect
       codeLine="80"
       fill="#f1f1f1"
       height="67.067902"
       id="Link"
       rx="2.5"
       ry="2.5"
       style="stroke:#181818;stroke-width:0.5"
       width="230.34309"
       x="163.78999"
       y="810.83002" />
    <circle
       cx="261.17361"
       cy="826.83002"
       fill="#add1b2"
       style="stroke:#181818;stroke-width:1"
       id="ellipse38"
       r="11" />
    <path
       d="m 260.6424,833.7519 q -1.75,0 -2.8907,-0.7344 -1.125,-0.75 -1.6875,-2.0937 -0.5468,-1.3594 -0.5468,-3.1563 0,-2.0312 0.6562,-3.4844 0.6563,-1.4531 1.9375,-2.2343 1.2813,-0.7813 3.1563,-0.7813 0.8906,0 1.5625,0.1875 0.6718,0.1719 1.3593,0.5156 l -0.8125,2.0157 q -0.625,-0.3125 -1.1718,-0.4375 -0.5313,-0.125 -1.0157,-0.125 -1.1718,0 -1.875,0.5312 -0.7031,0.5313 -1,1.4844 -0.2968,0.9531 -0.2968,2.2187 0,2.0157 0.7187,2.9844 0.7188,0.9531 2.3125,0.9531 0.5938,0 1.2188,-0.1562 0.625,-0.1563 1.4531,-0.5313 v 2.2188 q -0.7344,0.3125 -1.5313,0.4687 -0.7812,0.1563 -1.5468,0.1563 z"
       fill="#000000"
       id="path38" />
    <text
       fill="#000000"
       font-family="sans-serif"
       font-size="14px"
       lengthAdjust="spacing"
       textLength="27.075899"
       x="281.67361"
       y="832.26202"
       id="text39">Link</text>
    <line
       style="stroke:#181818;stroke-width:0.5"
       x1="164.78999"
       x2="393.13309"
       y1="842.83002"
       y2="842.83002"
       id="line39" />
    <text
       fill="#000000"
       font-family="sans-serif"
       font-size="14px"
       lengthAdjust="spacing"
       textLength="218.34309"
       x="169.78999"
       y="861.7959"
       id="text40">child : Pair&lt;LinkType,EventNode&gt;</text>
    <line
       style="stroke:#181818;stroke-width:0.5"
       x1="164.78999"
       x2="393.13309"
       y1="869.89789"
       y2="869.89789"
       id="line40" />
  </g>
  <g
     id="link_EventLevelReeval_EventLevel"
     transform="translate(57.222774,0.00375)">
    <path
       codeLine="85"
       d="m 314.6,234.34 c 11.5,0 5.14,0 16.65,0"
       fill="none"
       id="EventLevelReeval-to-EventLevel"
       style="stroke:#181818;stroke-width:1" />
    <polygon
       fill="none"
       points="331.25,228.34 331.25,240.34 349.25,234.34 "
       style="stroke:#181818;stroke-width:1"
       id="polygon40" />
  </g>
  <g
     id="link_OrbitLevelReeval_OrbitLevel"
     transform="translate(-46.778366)">
    <path
       codeLine="86"
       d="m 501.08,456.75 c 11.87,0 5.52,0 16.69,0"
       fill="none"
       id="OrbitLevelReeval-to-OrbitLevel"
       style="stroke:#181818;stroke-width:1" />
    <polygon
       fill="none"
       points="517.77,450.75 517.77,462.75 535.77,456.75 "
       style="stroke:#181818;stroke-width:1"
       id="polygon41" />
  </g>
  <g
     id="g1"
     transform="translate(-52.150309)">
    <g
       id="elem_ReevaluationDAG"
       transform="translate(109.37108,-1.2952588)">
      <rect
         codeLine="6"
         fill="#f1f1f1"
         height="86.135803"
         id="ReevaluationDAG"
         rx="2.5"
         ry="2.5"
         style="stroke:#181818;stroke-width:0.5"
         width="296.577"
         x="27.68"
         y="7" />
      <circle
         cx="114.3537"
         cy="23"
         fill="#add1b2"
         style="stroke:#181818;stroke-width:1"
         id="ellipse1"
         r="11" />
      <path
         d="m 113.8225,29.9219 q -1.75,0 -2.8906,-0.7344 -1.125,-0.75 -1.6875,-2.0937 -0.5469,-1.3594 -0.5469,-3.1563 0,-2.0312 0.6562,-3.4844 0.6563,-1.4531 1.9375,-2.2343 1.2813,-0.7813 3.1563,-0.7813 0.8906,0 1.5625,0.1875 0.6719,0.1719 1.3594,0.5156 l -0.8125,2.0157 q -0.625,-0.3125 -1.1719,-0.4375 -0.5313,-0.125 -1.0156,-0.125 -1.1719,0 -1.875,0.5312 -0.7032,0.5313 -1,1.4844 -0.2969,0.9531 -0.2969,2.2187 0,2.0157 0.7187,2.9844 0.7188,0.9531 2.3125,0.9531 0.5938,0 1.2188,-0.1562 0.625,-0.1563 1.4531,-0.5313 v 2.2188 q -0.7344,0.3125 -1.5312,0.4687 -0.7813,0.1563 -1.5469,0.1563 z"
         fill="#000000"
         id="path1" />
      <text
         fill="#000000"
         font-family="sans-serif"
         font-size="14px"
         lengthAdjust="spacing"
         textLength="114.7295"
         x="134.8537"
         y="28.431999"
         id="text1">ReevaluationDAG</text>
      <line
         style="stroke:#181818;stroke-width:0.5"
         x1="28.68"
         x2="323.25699"
         y1="39"
         y2="39"
         id="line1" />
      <polygon
         fill="none"
         points="34.68,53.034 38.68,49.034 42.68,53.034 38.68,57.034 "
         style="stroke:#b38d22;stroke-width:1"
         id="polygon1" />
      <text
         fill="#000000"
         font-family="sans-serif"
         font-size="14px"
         lengthAdjust="spacing"
         textLength="270.577"
         x="47.68"
         y="57.9659"
         id="text2">topologicalParameters : List&lt;JerboaDart&gt;</text>
      <polygon
         fill="none"
         points="34.68,72.1019 38.68,68.1019 42.68,72.1019 38.68,76.1019 "
         style="stroke:#b38d22;stroke-width:1"
         id="polygon2" />
      <text
         fill="#000000"
         font-family="sans-serif"
         font-size="14px"
         lengthAdjust="spacing"
         textLength="266.12491"
         x="47.68"
         y="77.033897"
         id="text3">addedBranches : List&lt;EventLevelReeval&gt;</text>
      <line
         style="stroke:#181818;stroke-width:0.5"
         x1="28.68"
         x2="323.25699"
         y1="85.135803"
         y2="85.135803"
         id="line3" />
    </g>
    <g
       id="link_ReevaluationDAG_EventLevelReeval"
       transform="translate(109.37108,-1.2952588)">
      <path
         codeLine="88"
         d="m 175.96,105.27 c 0,29.47 0,50.34 0,79.82"
         fill="none"
         id="ReevaluationDAG-EventLevelReeval"
         style="stroke:#181818;stroke-width:1" />
      <polygon
         fill="none"
         points="179.96,99.27 175.96,93.27 171.96,99.27 175.96,105.27 "
         style="stroke:#181818;stroke-width:1"
         id="polygon42" />
      <polygon
         fill="#181818"
         points="171.96,182.09 175.96,191.09 179.96,182.09 175.96,186.09 "
         style="stroke:#181818;stroke-width:1"
         id="polygon43" />
      <text
         fill="#000000"
         font-family="sans-serif"
         font-size="13px"
         lengthAdjust="spacing"
         textLength="25.753"
         x="149.10229"
         y="115.1379"
         id="text43">1…n</text>
      <text
         fill="#000000"
         font-family="sans-serif"
         font-size="13px"
         lengthAdjust="spacing"
         textLength="24.726"
         x="150.03149"
         y="179.4747"
         id="text44">tree</text>
    </g>
  </g>
  <g
     id="link_EventLevelReeval_OrbitLevelReeval"
     transform="translate(-46.778366)">
    <path
       codeLine="90"
       d="m 208.78,283.75 c 0,27.69 0,58.44 0,91.43"
       fill="none"
       id="EventLevelReeval-backto-OrbitLevelReeval"
       style="stroke:#181818;stroke-width:1" />
    <polygon
       fill="#181818"
       points="208.78,277.75 204.78,286.75 208.78,282.75 212.78,286.75 "
       style="stroke:#181818;stroke-width:1"
       id="polygon44" />
  </g>
  <g
     id="link_OrbitLevelReeval_OrbitNode"
     transform="translate(-46.778366)">
    <path
       codeLine="91"
       d="m 278.96,538.38 0,31.61999 106.34978,0 0.22717,26.46892"
       fill="none"
       id="OrbitLevelReeval-OrbitNode"
       style="stroke:#181818;stroke-width:1"
       sodipodi:nodetypes="cccc" />
    <text
       fill="#000000"
       font-family="sans-serif"
       font-size="13px"
       lengthAdjust="spacing"
       textLength="27.976"
       x="248.9774"
       y="559.76978"
       id="text45"
       transform="translate(-1.3884091,-7.509775)">level</text>
    <text
       fill="#000000"
       font-family="sans-serif"
       font-size="13px"
       lengthAdjust="spacing"
       textLength="50.362099"
       x="225.4696"
       y="586.03052"
       id="text46"
       transform="translate(164.56733,6.442903)">orbitList</text>
  </g>
  <path
     codeLine="92"
     d="m 94.812774,234.34376 -71.293412,-0.0846 0.181192,414.82865 37.03522,-0.0171"
     fill="none"
     id="EventLevelReeval-to-EventNode"
     style="stroke:#181818;stroke-width:1"
     sodipodi:nodetypes="cccc" />
  <polygon
     fill="#181818"
     points="74.4,607.79 70.4,611.79 66.4,607.79 70.4,616.79 "
     style="stroke:#181818;stroke-width:1"
     id="polygon46"
     transform="rotate(-90,84.208277,635.2625)" />
  <text
     fill="#000000"
     font-family="sans-serif"
     font-size="13px"
     lengthAdjust="spacing"
     textLength="27.976"
     x="25.983801"
     y="299.27759"
     id="text47"
     transform="translate(37.182267,-68.976128)">level</text>
  <text
     fill="#000000"
     font-family="sans-serif"
     font-size="13px"
     lengthAdjust="spacing"
     textLength="55.0811"
     x="8.5887003"
     y="605.04291"
     id="text48"
     transform="translate(-3.0015794,58.065778)">eventList</text>
  <path
     codeLine="94"
     d="m 215.99577,653.92339 c 12.17,0 7.04,0 19.78,0"
     fill="none"
     id="EventNode-OrbitNode"
     style="stroke:#181818;stroke-width:1" />
  <polygon
     fill="none"
     points="157.26,650.55 151.26,646.55 145.26,650.55 151.26,654.55 "
     style="stroke:#181818;stroke-width:1"
     id="polygon48"
     transform="translate(58.735774,3.37339)" />
  <polygon
     fill="#181818"
     points="178.04,650.55 174.04,654.55 183.04,650.55 174.04,646.55 "
     style="stroke:#181818;stroke-width:1"
     id="polygon49"
     transform="translate(58.735774,3.37339)" />
  <text
     fill="#000000"
     font-family="sans-serif"
     font-size="13px"
     lengthAdjust="spacing"
     textLength="28.976999"
     x="152.8154"
     y="646.1239"
     id="text49"
     transform="translate(56.735774,1.37339)">child</text>
  <g
     id="elem_OrbitNode"
     transform="translate(59.796874,-1.4811071)">
    <rect
       codeLine="32"
       fill="#f1f1f1"
       height="105.2038"
       id="OrbitNode"
       rx="2.5"
       ry="2.5"
       style="stroke:#181818;stroke-width:0.5"
       width="191.0034"
       x="183.46001"
       y="597.95001" />
    <circle
       cx="239.90781"
       cy="613.95001"
       fill="#add1b2"
       style="stroke:#181818;stroke-width:1"
       id="ellipse13"
       r="11" />
    <path
       d="m 239.3766,620.8719 q -1.75,0 -2.8907,-0.7344 -1.125,-0.75 -1.6875,-2.0937 -0.5468,-1.3594 -0.5468,-3.1563 0,-2.0312 0.6562,-3.4844 0.6563,-1.4531 1.9375,-2.2343 1.2813,-0.7813 3.1563,-0.7813 0.8906,0 1.5625,0.1875 0.6718,0.1719 1.3593,0.5156 l -0.8125,2.0157 q -0.625,-0.3125 -1.1718,-0.4375 -0.5313,-0.125 -1.0157,-0.125 -1.1718,0 -1.875,0.5312 -0.7031,0.5313 -1,1.4844 -0.2968,0.9531 -0.2968,2.2187 0,2.0157 0.7187,2.9844 0.7188,0.9531 2.3125,0.9531 0.5938,0 1.2188,-0.1562 0.625,-0.1563 1.4531,-0.5313 v 2.2188 q -0.7344,0.3125 -1.5313,0.4687 -0.7812,0.1563 -1.5468,0.1563 z"
       fill="#000000"
       id="path13" />
    <text
       fill="#000000"
       font-family="sans-serif"
       font-size="14px"
       lengthAdjust="spacing"
       textLength="69.607697"
       x="260.40781"
       y="619.38202"
       id="text14">OrbitNode</text>
    <line
       style="stroke:#181818;stroke-width:0.5"
       x1="184.46001"
       x2="373.46341"
       y1="629.95001"
       y2="629.95001"
       id="line14" />
    <rect
       fill="none"
       height="6"
       style="stroke:#c82930;stroke-width:1"
       width="6"
       x="191.46001"
       y="641.98401"
       id="rect14" />
    <text
       fill="#000000"
       font-family="sans-serif"
       font-size="14px"
       lengthAdjust="spacing"
       textLength="118.9856"
       x="203.46001"
       y="648.91589"
       id="text15">JerboaOrbit : orbit</text>
    <rect
       fill="none"
       height="6"
       style="stroke:#c82930;stroke-width:1"
       width="6"
       x="191.46001"
       y="661.05188"
       id="rect15" />
    <text
       fill="#000000"
       font-family="sans-serif"
       font-size="14px"
       lengthAdjust="spacing"
       textLength="165.0034"
       x="203.46001"
       y="667.98389"
       id="text16">alphaPath : List&lt;Integer&gt;</text>
    <rect
       fill="none"
       height="6"
       style="stroke:#c82930;stroke-width:1"
       width="6"
       x="191.46001"
       y="680.11981"
       id="rect16" />
    <text
       fill="#000000"
       font-family="sans-serif"
       font-size="14px"
       lengthAdjust="spacing"
       textLength="111.9296"
       x="203.46001"
       y="687.05182"
       id="text17">branchIndex : int</text>
    <line
       style="stroke:#181818;stroke-width:0.5"
       x1="184.46001"
       x2="373.46341"
       y1="695.15381"
       y2="695.15381"
       id="line17" />
  </g>
  <g
     id="link_OrbitNode_Link"
     transform="translate(-40.203124,-1.4811071)">
    <path
       codeLine="95"
       d="m 378.96,715.51 v 70.28348"
       fill="none"
       id="OrbitNode-Link"
       style="stroke:#181818;stroke-width:1"
       sodipodi:nodetypes="cc" />
    <polygon
       fill="none"
       points="278.96,715.51 282.96,709.51 278.96,703.51 274.96,709.51 "
       style="stroke:#181818;stroke-width:1"
       id="polygon50"
       transform="translate(100)" />
    <polygon
       fill="#181818"
       points="278.96,810.38 282.96,801.38 278.96,805.38 274.96,801.38 "
       style="stroke:#181818;stroke-width:1"
       id="polygon51"
       transform="translate(100,-19.58652)" />
    <text
       fill="#000000"
       font-family="sans-serif"
       font-size="13px"
       lengthAdjust="spacing"
       textLength="49.712101"
       x="225.2063"
       y="798.98248"
       id="text51"
       transform="translate(100,-20)">children</text>
  </g>
  <g
     id="link_Link_LinkType"
     transform="translate(59.798584,-20.298588)">
    <path
       codeLine="97"
       d="m 278.96,878.16 c 0,30.13 0,68.4 0,101.13"
       fill="none"
       id="Link-to-LinkType"
       style="stroke:#181818;stroke-width:1" />
    <polygon
       fill="#181818"
       points="274.96,976.29 278.96,985.29 282.96,976.29 278.96,980.29 "
       style="stroke:#181818;stroke-width:1"
       id="polygon52" />
    <text
       fill="#000000"
       font-family="sans-serif"
       font-size="13px"
       lengthAdjust="spacing"
       textLength="50.868999"
       x="224.8909"
       y="973.65979"
       id="text52">linkType</text>
  </g>
  <g
     id="link_Link_EventNode"
     transform="translate(-2.3694279,-1.7052764)">
    <path
       codeLine="98"
       d="m 225.95647,826.03272 -25.40816,-0.0456 0.52958,-135.4469"
       fill="none"
       id="Link-to-EventNode"
       style="stroke:#181818;stroke-width:1"
       sodipodi:nodetypes="ccc" />
    <polygon
       fill="#181818"
       points="137.07,689.31 141.07,693.31 137.07,684.31 133.07,693.31 "
       style="stroke:#181818;stroke-width:1"
       id="polygon53"
       transform="translate(64.007895,1.2302109)" />
    <text
       fill="#000000"
       font-family="sans-serif"
       font-size="13px"
       lengthAdjust="spacing"
       textLength="33.994999"
       x="112.3858"
       y="706.06311"
       id="text53"
       transform="translate(65.260089,2.1149103)">event</text>
  </g>
  <g
     id="link_EventNode_Event"
     transform="translate(60.740574,-4.7052764)">
    <path
       codeLine="100"
       d="m 71.96,696.31 c 0,21.69 0,32.86 0,60.35"
       fill="none"
       id="EventNode-Event"
       style="stroke:#181818;stroke-width:1" />
    <polygon
       fill="#181818"
       points="71.96,696.31 75.96,690.31 71.96,684.31 67.96,690.31 "
       style="stroke:#181818;stroke-width:1"
       id="polygon54" />
    <polygon
       fill="#181818"
       points="71.96,757.66 67.96,753.66 71.96,762.66 75.96,753.66 "
       style="stroke:#181818;stroke-width:1"
       id="polygon55" />
    <text
       fill="#000000"
       font-family="sans-serif"
       font-size="13px"
       lengthAdjust="spacing"
       textLength="33.994999"
       x="37.484402"
       y="751.27393"
       id="text55">event</text>
  </g>
</svg>
