<?xml version="1.0" encoding="UTF-8" standalone="no"?>
<!-- Generated by graphviz version 12.1.1 (0)
 -->

<!-- Title: ReevaluationTree Pages: 1 -->

<svg
   width="512.78802pt"
   height="1002.879pt"
   viewBox="0 0 512.78803 1002.879"
   version="1.1"
   id="svg59"
   sodipodi:docname="cs1-pn68-dag-reeval.svg"
   inkscape:version="1.3.2 (091e20ef0f, 2023-11-25, custom)"
   xmlns:inkscape="http://www.inkscape.org/namespaces/inkscape"
   xmlns:sodipodi="http://sodipodi.sourceforge.net/DTD/sodipodi-0.dtd"
   xmlns="http://www.w3.org/2000/svg"
   xmlns:svg="http://www.w3.org/2000/svg">
  <defs
     id="defs59" />
  <sodipodi:namedview
     id="namedview59"
     pagecolor="#ffffff"
     bordercolor="#000000"
     borderopacity="0.25"
     inkscape:showpageshadow="2"
     inkscape:pageopacity="0.0"
     inkscape:pagecheckerboard="0"
     inkscape:deskcolor="#d1d1d1"
     inkscape:document-units="pt"
     inkscape:zoom="0.50080034"
     inkscape:cx="450.27924"
     inkscape:cy="781.74866"
     inkscape:window-width="1892"
     inkscape:window-height="1035"
     inkscape:window-x="9"
     inkscape:window-y="26"
     inkscape:window-maximized="1"
     inkscape:current-layer="svg59"
     showgrid="false" />
  <g
     id="g1">
    <g
       id="clust3-77"
       class="cluster"
       transform="translate(1.5916822,864.31)">
      <title
         id="title4-5">cluster_10:1</title>
      <path
         fill="none"
         stroke="#000000"
         d="M 19.461561,-665 H 309 c 6,0 12,-6 12,-12 v -29 c 0,-6 -6,-12 -12,-12 H 19.461561 c -5.999999,0 -11.9999993,6 -11.9999993,12 v 29 c 0,6 6.0000003,12 11.9999993,12"
         id="path4-4"
         sodipodi:nodetypes="csssssssc" />
    </g>
    <g
       id="clust4-8"
       class="cluster"
       transform="translate(3.0916822,864.31)">
      <title
         id="title5-1">cluster_105</title>
      <polygon
         fill="none"
         stroke="#000000"
         points="53,-645 267,-645 267,-592 53,-592 "
         id="polygon5-2" />
    </g>
    <g
       id="node6-8"
       class="node"
       transform="translate(73.591682,864.31)">
      <title
         id="title17-9">10|1NOEFFECT[]</title>
      <path
         fill="none"
         stroke="#000000"
         d="m 36.38,-673.5 c 0,0 75.24,0 75.24,0 6,0 12,-6 12,-12 0,0 0,-12 0,-12 0,-6 -6,-12 -12,-12 0,0 -75.24,0 -75.24,0 -6,0 -12,6 -12,12 0,0 0,12 0,12 0,6 6,12 12,12"
         id="path17-3" />
      <text
         text-anchor="middle"
         x="74"
         y="-686.83002"
         font-family="Times, serif"
         font-size="14px"
         id="text17-6">NOEFFECT</text>
    </g>
    <g
       id="edge3-8"
       class="edge"
       transform="translate(73.591682,864.31)">
      <title
         id="title18-0">1|15[]-&gt;10|1NOEFFECT[]</title>
      <path
         fill="none"
         stroke="#000000"
         d="m 80.82,-746.31 c -0.97,7.67 -2.14,16.92 -3.24,25.57"
         id="path18-2" />
      <polygon
         fill="#000000"
         stroke="#000000"
         points="76.35,-711.03 74.13,-721.39 81.08,-720.51 "
         id="polygon18-10" />
    </g>
    <g
       id="node7-5"
       class="node"
       transform="translate(73.591682,864.31)">
      <title
         id="title22-11">10|1NOEFFECT[0]</title>
      <path
         fill="none"
         stroke="#000000"
         d="m 153.38,-673.5 c 0,0 75.24,0 75.24,0 6,0 12,-6 12,-12 0,0 0,-12 0,-12 0,-6 -6,-12 -12,-12 0,0 -75.24,0 -75.24,0 -6,0 -12,6 -12,12 0,0 0,12 0,12 0,6 6,12 12,12"
         id="path22-0" />
      <text
         text-anchor="middle"
         x="191"
         y="-686.83002"
         font-family="Times, serif"
         font-size="14px"
         id="text22-8">NOEFFECT</text>
    </g>
    <g
       id="edge4-5"
       class="edge"
       transform="translate(73.591682,864.31)">
      <title
         id="title23-0">1|15[0]-&gt;10|1NOEFFECT[0]</title>
      <path
         fill="none"
         stroke="#000000"
         d="m 163.71,-746.31 c 4.07,8.02 9.01,17.76 13.56,26.74"
         id="path23-64" />
      <polygon
         fill="#000000"
         stroke="#000000"
         points="181.68,-710.88 174.04,-718.21 180.28,-721.38 "
         id="polygon23-6" />
    </g>
    <g
       id="node9-2"
       class="node"
       transform="translate(73.591682,864.31)">
      <title
         id="title25-5">10|15[]</title>
      <polygon
         fill="none"
         stroke="#000000"
         points="61,-636.5 115,-636.5 115,-600.5 61,-600.5 "
         id="polygon25-8" />
      <text
         text-anchor="middle"
         x="87.75"
         y="-613.83002"
         font-family="Times, serif"
         font-size="14px"
         id="text25-62">⟨⟩</text>
    </g>
    <g
       id="edge5-8"
       class="edge"
       transform="translate(73.591682,864.31)">
      <title
         id="title26-4">10|1NOEFFECT[]-&gt;10|15[]</title>
      <path
         fill="none"
         stroke="#000000"
         d="m 77.39,-673.31 c 1.51,7.67 3.34,16.92 5.04,25.57"
         id="path26-7" />
      <polygon
         fill="#000000"
         stroke="#000000"
         points="84.35,-638.01 78.98,-647.15 85.85,-648.5 "
         id="polygon26-2" />
    </g>
    <g
       id="node10-4"
       class="node"
       transform="translate(73.591682,864.31)">
      <title
         id="title27-0">10|15[0]</title>
      <polygon
         fill="none"
         stroke="#000000"
         points="133,-636.5 187,-636.5 187,-600.5 133,-600.5 "
         id="polygon27-6" />
      <text
         text-anchor="middle"
         x="159.75"
         y="-613.83002"
         font-family="Times, serif"
         font-size="14px"
         id="text27-2">⟨0⟩</text>
    </g>
    <g
       id="edge6-99"
       class="edge"
       transform="translate(73.591682,864.31)">
      <title
         id="title28-08">10|1NOEFFECT[0]-&gt;10|15[0]</title>
      <path
         fill="none"
         stroke="#000000"
         d="m 183.5,-673.31 c -3.47,7.93 -7.67,17.55 -11.55,26.45"
         id="path28-1" />
      <polygon
         fill="#000000"
         stroke="#000000"
         points="168.04,-637.92 168.83,-648.48 175.25,-645.68 "
         id="polygon28-3" />
    </g>
    <g
       id="node11-1"
       class="node"
       transform="translate(-227.84714,864.31)">
      <title
         id="title34-1">10:1</title>
      <g
         id="g4"
         transform="translate(-12.65073,-0.15943063)">
        <path
           fill="#d3d3d3"
           stroke="#d3d3d3"
           d="m 271,-673.5 h 37.70956 c 6,0 12,-6 12,-12 v -12 c 0,-6 -6,-12 -12,-12 H 271 c -6,0 -12,6 -12,12 v 12 c 0,6 6,12 12,12"
           id="path34-0"
           sodipodi:nodetypes="csssssssc" />
        <text
           text-anchor="middle"
           x="289.84079"
           y="-695.71399"
           font-family="Times, serif"
           font-size="14px"
           id="text34-34"><tspan
             sodipodi:role="line"
             id="tspan3"
             x="289.84079"
             y="-695.71399">DELETE</tspan><tspan
             sodipodi:role="line"
             id="tspan4"
             x="289.84079"
             y="-678.21399">3-insert</tspan></text>
      </g>
    </g>
    <g
       id="node14-0"
       class="node"
       transform="translate(-139.07092,864.46943)">
      <title
         id="title39-3">105</title>
      <polygon
         fill="#add8e6"
         stroke="#add8e6"
         points="259,-636.5 259,-600.5 205,-600.5 205,-636.5 "
         id="polygon39-9" />
      <text
         text-anchor="middle"
         x="232"
         y="-613.83002"
         font-family="Times, serif"
         font-size="14px"
         id="text39-1">5</text>
    </g>
    <g
       id="clust1-0"
       class="cluster"
       transform="translate(6.8016827,864.5)">
      <title
         id="title2-6">cluster_1</title>
      <path
         fill="none"
         stroke="#000000"
         d="m 45,-811 c 0,0 270,0 270,0 6,0 12,-6 12,-12 0,0 0,-29 0,-29 0,-6 -6,-12 -12,-12 0,0 -270,0 -270,0 -6,0 -12,6 -12,12 0,0 0,29 0,29 0,6 6,12 12,12"
         id="path2-1" />
    </g>
    <g
       id="clust2-5"
       class="cluster"
       transform="translate(6.8016827,864.5)">
      <title
         id="title3-5">cluster_1n5</title>
      <polygon
         fill="none"
         stroke="#000000"
         points="53,-738 53,-791 267,-791 267,-738 "
         id="polygon3-4" />
    </g>
    <g
       id="node1-8"
       class="node"
       transform="translate(77.301682,864.5)">
      <title
         id="title14-9">1CREATION[]</title>
      <path
         fill="none"
         stroke="#000000"
         d="m 53,-819.5 c 0,0 70,0 70,0 6,0 12,-6 12,-12 0,0 0,-12 0,-12 0,-6 -6,-12 -12,-12 0,0 -70,0 -70,0 -6,0 -12,6 -12,12 0,0 0,12 0,12 0,6 6,12 12,12"
         id="path14-2" />
      <text
         text-anchor="middle"
         x="88"
         y="-832.83002"
         font-family="Times, serif"
         font-size="14px"
         id="text14-6">CREATION</text>
    </g>
    <g
       id="node2-6"
       class="node"
       transform="translate(77.301682,864.5)">
      <title
         id="title15-4">1n5[]</title>
      <polygon
         fill="none"
         stroke="#000000"
         points="61,-782.5 115,-782.5 115,-746.5 61,-746.5 "
         id="polygon15-9" />
      <text
         text-anchor="middle"
         x="87.75"
         y="-759.83002"
         font-family="Times, serif"
         font-size="14px"
         id="text15-5">⟨⟩</text>
    </g>
    <g
       id="edge1-0"
       class="edge"
       transform="translate(77.301682,864.5)">
      <title
         id="title16-4">1CREATION[]-&gt;1n5[]</title>
      <path
         fill="none"
         stroke="#000000"
         d="m 88,-819.31 c 0,7.58 0,16.71 0,25.27"
         id="path16-8" />
      <polygon
         fill="#000000"
         stroke="#000000"
         points="91.5,-794.04 88,-784.04 84.5,-794.04 "
         id="polygon16-7" />
    </g>
    <g
       id="node3-0"
       class="node"
       transform="translate(77.301682,864.5)">
      <title
         id="title19-6">1CREATION[0]</title>
      <path
         fill="none"
         stroke="#000000"
         d="m 165,-819.5 c 0,0 70,0 70,0 6,0 12,-6 12,-12 0,0 0,-12 0,-12 0,-6 -6,-12 -12,-12 0,0 -70,0 -70,0 -6,0 -12,6 -12,12 0,0 0,12 0,12 0,6 6,12 12,12"
         id="path19-1" />
      <text
         text-anchor="middle"
         x="200"
         y="-832.83002"
         font-family="Times, serif"
         font-size="14px"
         id="text19-5">CREATION</text>
    </g>
    <g
       id="node4-9"
       class="node"
       transform="translate(77.301682,864.5)">
      <title
         id="title20-4">1n5[0]</title>
      <polygon
         fill="none"
         stroke="#000000"
         points="133,-782.5 187,-782.5 187,-746.5 133,-746.5 "
         id="polygon20-9" />
      <text
         text-anchor="middle"
         x="159.75"
         y="-759.83002"
         font-family="Times, serif"
         font-size="14px"
         id="text20-0">⟨0⟩</text>
    </g>
    <g
       id="edge2-9"
       class="edge"
       transform="translate(77.301682,864.5)">
      <title
         id="title21-1">1CREATION[0]-&gt;1n5[0]</title>
      <path
         fill="none"
         stroke="#000000"
         d="m 190.32,-819.31 c -4.57,8.11 -10.13,17.97 -15.23,27.03"
         id="path21-7" />
      <polygon
         fill="#000000"
         stroke="#000000"
         points="178.29,-790.84 170.34,-783.85 172.2,-794.28 "
         id="polygon21-7" />
    </g>
    <g
       id="node8-5"
       class="node"
       transform="translate(-132.29492,864.5)">
      <title
         id="title29-0">1n5</title>
      <polygon
         fill="#add8e6"
         stroke="#add8e6"
         points="259,-782.5 259,-746.5 205,-746.5 205,-782.5 "
         id="polygon29-9" />
      <text
         text-anchor="middle"
         x="232"
         y="-759.83002"
         font-family="Times, serif"
         font-size="14px"
         id="text29-6">n5</text>
    </g>
    <g
       id="g57"
       transform="translate(-215.27192,-49.99855)">
      <rect
         style="fill:#d3d3d3;fill-opacity:1;stroke:#d3d3d3;stroke-width:0.75"
         id="rect56"
         width="55"
         height="37"
         x="268.5"
         y="58.123547"
         ry="13.705983" />
      <text
         text-anchor="middle"
         x="295.36301"
         y="81.285545"
         font-family="Times, serif"
         font-size="14px"
         id="text24-9">1-carre</text>
    </g>
    <g
       id="edge3-2"
       class="edge"
       transform="translate(77.301684,1010.4694)">
      <title
         id="title18-2">1n5[]-&gt;2CREATION[]</title>
      <path
         fill="none"
         stroke="#ff0000"
         d="m 83.16,-746.31 c -2.19,7.76 -4.83,17.13 -7.29,25.86"
         id="path18-6" />
      <polygon
         fill="#ff0000"
         stroke="#ff0000"
         points="79.29,-719.66 73.21,-710.99 72.55,-721.56 "
         id="polygon18-1" />
    </g>
    <g
       id="edge4-7"
       class="edge"
       transform="translate(77.301684,1010.4694)">
      <title
         id="title23-7">1n5[0]-&gt;2CREATION[0]</title>
      <path
         fill="none"
         stroke="#ff0000"
         d="m 164.84,-746.31 c 2.19,7.76 4.83,17.13 7.29,25.86"
         id="path23-6" />
      <polygon
         fill="#ff0000"
         stroke="#ff0000"
         points="175.45,-721.56 174.79,-710.99 168.71,-719.66 "
         id="polygon23-7" />
    </g>
    <path
       fill="none"
       stroke="#000000"
       d="M 26.301684,345.4694 H 301.80169 c 6,0 12,-6 12,-12 v -29 c 0,-6 -6,-12 -12,-12 H 26.301684 c -6,0 -12,6 -12,12 v 29 c 0,6 6,12 12,12"
       id="path4-5"
       sodipodi:nodetypes="csssssssc" />
    <polygon
       fill="none"
       stroke="#000000"
       points="251,-592 37,-592 37,-645 251,-645 "
       id="polygon5-3"
       transform="translate(6.801684,1010.4694)" />
    <path
       fill="none"
       stroke="#000000"
       d="M 58.589688,491.4694 H 184.80169 c 6,0 12,-6 12,-12 v -29 c 0,-6 -9.86664,-12 -15.86664,-12 H 58.589688 c -6,0 -12,6 -12,12 v 29 c 0,6 6,12 12,12"
       id="path6-5"
       sodipodi:nodetypes="csssssssc" />
    <path
       fill="none"
       stroke="#000000"
       d="m 110.30169,336.9694 c 0,0 70,0 70,0 6,0 12,-6 12,-12 0,0 0,-12 0,-12 0,-6 -6,-12 -12,-12 0,0 -70,0 -70,0 -6.00001,0 -12.000006,6 -12.000006,12 0,0 0,12 0,12 0,6 5.999996,12 12.000006,12"
       id="path17-2" />
    <text
       text-anchor="middle"
       x="145.3017"
       y="323.63937"
       font-family="Times, serif"
       font-size="14px"
       id="text17-7">CREATION</text>
    <path
       fill="none"
       stroke="#000000"
       d="m 222.30169,336.9694 c 0,0 70,0 70,0 6,0 12,-6 12,-12 0,0 0,-12 0,-12 0,-6 -6,-12 -12,-12 0,0 -70,0 -70,0 -6,0 -12,6 -12,12 0,0 0,12 0,12 0,6 6,12 12,12"
       id="path22-5" />
    <text
       text-anchor="middle"
       x="257.3017"
       y="323.63937"
       font-family="Times, serif"
       font-size="14px"
       id="text22-9">CREATION</text>
    <polygon
       fill="none"
       stroke="#000000"
       points="45,-600.5 45,-636.5 99,-636.5 99,-600.5 "
       id="polygon25-5"
       transform="translate(77.301684,1010.4694)" />
    <text
       text-anchor="middle"
       x="149.0517"
       y="396.63937"
       font-family="Times, serif"
       font-size="14px"
       id="text25-6">⟨⟩</text>
    <path
       fill="none"
       stroke="#000000"
       d="m 146.27169,337.1594 c 0.43,7.67 0.95,16.92 1.44,25.57"
       id="path26-4" />
    <polygon
       fill="#000000"
       stroke="#000000"
       points="70.96,-638.04 66.9,-647.83 73.89,-648.22 "
       id="polygon26-8"
       transform="translate(77.301684,1010.4694)" />
    <polygon
       fill="none"
       stroke="#000000"
       points="117,-600.5 117,-636.5 171,-636.5 171,-600.5 "
       id="polygon27-9"
       transform="translate(77.301684,1010.4694)" />
    <text
       text-anchor="middle"
       x="221.0517"
       y="396.63937"
       font-family="Times, serif"
       font-size="14px"
       id="text27-3">⟨0⟩</text>
    <path
       fill="none"
       stroke="#000000"
       d="m 248.59169,337.1594 c -4.07,8.02 -9.01,17.76 -13.56,26.74"
       id="path28-8" />
    <polygon
       fill="#000000"
       stroke="#000000"
       points="153.32,-637.88 154.72,-648.38 160.96,-645.21 "
       id="polygon28-8"
       transform="translate(77.301684,1010.4694)" />
    <path
       fill="none"
       stroke="#000000"
       d="m 140.92169,482.9694 c 0,0 34.76,0 34.76,0 6,0 12,-6 12,-12 0,0 0,-12 0,-12 0,-6 -6,-12 -12,-12 0,0 -34.76,0 -34.76,0 -6,0 -12,6 -12,12 0,0 0,12 0,12 0,6 6,12 12,12"
       id="path30-5"
       style="stroke:#000000;stroke-opacity:1" />
    <text
       text-anchor="middle"
       x="158.3017"
       y="469.63937"
       font-family="Times, serif"
       font-size="14px"
       id="text30-6">NOSPLIT</text>
    <text
       xml:space="preserve"
       style="font-style:normal;font-variant:normal;font-weight:normal;font-stretch:normal;font-size:20px;font-family:'Liberation Serif';-inkscape-font-specification:'Liberation Serif, Normal';font-variant-ligatures:normal;font-variant-caps:normal;font-variant-numeric:normal;font-variant-east-asian:normal;fill:#000000;fill-opacity:1;stroke:none;stroke-width:3;stroke-linecap:round;stroke-linejoin:miter;stroke-dasharray:none;stroke-opacity:0.8;stop-color:#000000"
       x="348.72552"
       y="33.855442"
       id="text7969"><tspan
         sodipodi:role="line"
         id="tspan7967"
         style="font-style:normal;font-variant:normal;font-weight:normal;font-stretch:normal;font-size:20px;font-family:'Liberation Serif';-inkscape-font-specification:'Liberation Serif, Normal';font-variant-ligatures:normal;font-variant-caps:normal;font-variant-numeric:normal;font-variant-east-asian:normal;stroke-width:3"
         x="348.72552"
         y="33.855442">Niveau événement 1</tspan></text>
    <text
       xml:space="preserve"
       style="font-style:normal;font-variant:normal;font-weight:normal;font-stretch:normal;font-size:20px;font-family:'Liberation Serif';-inkscape-font-specification:'Liberation Serif, Normal';font-variant-ligatures:normal;font-variant-caps:normal;font-variant-numeric:normal;font-variant-east-asian:normal;fill:#000000;fill-opacity:1;stroke:none;stroke-width:3;stroke-linecap:round;stroke-linejoin:miter;stroke-dasharray:none;stroke-opacity:0.8;stop-color:#000000"
       x="348.72552"
       y="472.1282"
       id="text7969-8"><tspan
         sodipodi:role="line"
         id="tspan7967-9"
         style="font-style:normal;font-variant:normal;font-weight:normal;font-stretch:normal;font-size:20px;font-family:'Liberation Serif';-inkscape-font-specification:'Liberation Serif, Normal';font-variant-ligatures:normal;font-variant-caps:normal;font-variant-numeric:normal;font-variant-east-asian:normal;stroke-width:3"
         x="348.72552"
         y="472.1282">Niveau événement 4</tspan></text>
    <text
       xml:space="preserve"
       style="font-style:normal;font-variant:normal;font-weight:normal;font-stretch:normal;font-size:20px;font-family:'Liberation Serif';-inkscape-font-specification:'Liberation Serif, Normal';font-variant-ligatures:normal;font-variant-caps:normal;font-variant-numeric:normal;font-variant-east-asian:normal;fill:#000000;fill-opacity:1;stroke:none;stroke-width:3;stroke-linecap:round;stroke-linejoin:miter;stroke-dasharray:none;stroke-opacity:0.8;stop-color:#000000"
       x="348.72552"
       y="106.88626"
       id="text7973"><tspan
         sodipodi:role="line"
         id="tspan7971"
         style="font-style:normal;font-variant:normal;font-weight:normal;font-stretch:normal;font-size:20px;font-family:'Liberation Serif';-inkscape-font-specification:'Liberation Serif, Normal';font-variant-ligatures:normal;font-variant-caps:normal;font-variant-numeric:normal;font-variant-east-asian:normal;stroke-width:3"
         x="348.72552"
         y="106.88626">Niveau orbite 1</tspan></text>
    <text
       xml:space="preserve"
       style="font-style:normal;font-variant:normal;font-weight:normal;font-stretch:normal;font-size:20px;font-family:'Liberation Serif';-inkscape-font-specification:'Liberation Serif, Normal';font-variant-ligatures:normal;font-variant-caps:normal;font-variant-numeric:normal;font-variant-east-asian:normal;fill:#000000;fill-opacity:1;stroke:none;stroke-width:3;stroke-linecap:round;stroke-linejoin:miter;stroke-dasharray:none;stroke-opacity:0.8;stop-color:#000000"
       x="348.72552"
       y="179.94638"
       id="text7969-1"><tspan
         sodipodi:role="line"
         id="tspan1892"
         x="348.72552"
         y="179.94638">Niveau événement 2</tspan></text>
    <text
       xml:space="preserve"
       style="font-style:normal;font-variant:normal;font-weight:normal;font-stretch:normal;font-size:20px;font-family:'Liberation Serif';-inkscape-font-specification:'Liberation Serif, Normal';font-variant-ligatures:normal;font-variant-caps:normal;font-variant-numeric:normal;font-variant-east-asian:normal;fill:#000000;fill-opacity:1;stroke:none;stroke-width:3;stroke-linecap:round;stroke-linejoin:miter;stroke-dasharray:none;stroke-opacity:0.8;stop-color:#000000"
       x="348.72552"
       y="252.97714"
       id="text7973-9"><tspan
         sodipodi:role="line"
         id="tspan1894"
         x="348.72552"
         y="252.97714">Niveau orbite 2</tspan></text>
    <text
       xml:space="preserve"
       style="font-style:normal;font-variant:normal;font-weight:normal;font-stretch:normal;font-size:20px;font-family:'Liberation Serif';-inkscape-font-specification:'Liberation Serif, Normal';font-variant-ligatures:normal;font-variant-caps:normal;font-variant-numeric:normal;font-variant-east-asian:normal;fill:#000000;fill-opacity:1;stroke:none;stroke-width:3;stroke-linecap:round;stroke-linejoin:miter;stroke-dasharray:none;stroke-opacity:0.8;stop-color:#000000"
       x="348.72552"
       y="326.03726"
       id="text7969-0"><tspan
         sodipodi:role="line"
         id="tspan1896"
         x="348.72552"
         y="326.03726">Niveau événement 3</tspan></text>
    <text
       xml:space="preserve"
       style="font-style:normal;font-variant:normal;font-weight:normal;font-stretch:normal;font-size:20px;font-family:'Liberation Serif';-inkscape-font-specification:'Liberation Serif, Normal';font-variant-ligatures:normal;font-variant-caps:normal;font-variant-numeric:normal;font-variant-east-asian:normal;fill:#000000;fill-opacity:1;stroke:none;stroke-width:3;stroke-linecap:round;stroke-linejoin:miter;stroke-dasharray:none;stroke-opacity:0.8;stop-color:#000000"
       x="348.72552"
       y="399.06808"
       id="text7973-8"><tspan
         sodipodi:role="line"
         id="tspan1898"
         x="348.72552"
         y="399.06808">Niveau orbite 3</tspan></text>
    <text
       xml:space="preserve"
       style="font-style:normal;font-variant:normal;font-weight:normal;font-stretch:normal;font-size:20px;font-family:'Liberation Serif';-inkscape-font-specification:'Liberation Serif, Normal';font-variant-ligatures:normal;font-variant-caps:normal;font-variant-numeric:normal;font-variant-east-asian:normal;fill:#000000;fill-opacity:1;stroke:none;stroke-width:3;stroke-linecap:round;stroke-linejoin:miter;stroke-dasharray:none;stroke-opacity:0.8;stop-color:#000000"
       x="348.72552"
       y="545.159"
       id="text7973-8-6"><tspan
         sodipodi:role="line"
         id="tspan1898-2"
         x="348.72552"
         y="545.159">Niveau orbite 4</tspan></text>
    <text
       xml:space="preserve"
       style="font-style:normal;font-variant:normal;font-weight:normal;font-stretch:normal;font-size:20px;font-family:'Liberation Serif';-inkscape-font-specification:'Liberation Serif, Normal';font-variant-ligatures:normal;font-variant-caps:normal;font-variant-numeric:normal;font-variant-east-asian:normal;fill:#000000;fill-opacity:1;stroke:none;stroke-width:3;stroke-linecap:round;stroke-linejoin:miter;stroke-dasharray:none;stroke-opacity:0.8;stop-color:#000000"
       x="348.72552"
       y="618.21912"
       id="text7969-8-7"><tspan
         sodipodi:role="line"
         id="tspan7967-9-5"
         style="font-style:normal;font-variant:normal;font-weight:normal;font-stretch:normal;font-size:20px;font-family:'Liberation Serif';-inkscape-font-specification:'Liberation Serif, Normal';font-variant-ligatures:normal;font-variant-caps:normal;font-variant-numeric:normal;font-variant-east-asian:normal;stroke-width:3"
         x="348.72552"
         y="618.21912">Niveau événement 5</tspan></text>
    <text
       xml:space="preserve"
       style="font-style:normal;font-variant:normal;font-weight:normal;font-stretch:normal;font-size:20px;font-family:'Liberation Serif';-inkscape-font-specification:'Liberation Serif, Normal';font-variant-ligatures:normal;font-variant-caps:normal;font-variant-numeric:normal;font-variant-east-asian:normal;fill:#000000;fill-opacity:1;stroke:none;stroke-width:3;stroke-linecap:round;stroke-linejoin:miter;stroke-dasharray:none;stroke-opacity:0.8;stop-color:#000000"
       x="348.72552"
       y="764.31"
       id="text7973-8-6-9"><tspan
         sodipodi:role="line"
         id="tspan1898-2-2"
         x="348.72552"
         y="764.31">Niveau orbite 6</tspan></text>
    <text
       xml:space="preserve"
       style="font-style:normal;font-variant:normal;font-weight:normal;font-stretch:normal;font-size:20px;font-family:'Liberation Serif';-inkscape-font-specification:'Liberation Serif, Normal';font-variant-ligatures:normal;font-variant-caps:normal;font-variant-numeric:normal;font-variant-east-asian:normal;fill:#000000;fill-opacity:1;stroke:none;stroke-width:3;stroke-linecap:round;stroke-linejoin:miter;stroke-dasharray:none;stroke-opacity:0.8;stop-color:#000000"
       x="348.72552"
       y="837.34082"
       id="text7973-8-6-9-1"><tspan
         sodipodi:role="line"
         id="tspan1898-2-2-0"
         x="348.72552"
         y="837.34082">Niveau orbite 6</tspan></text>
    <text
       xml:space="preserve"
       style="font-style:normal;font-variant:normal;font-weight:normal;font-stretch:normal;font-size:20px;font-family:'Liberation Serif';-inkscape-font-specification:'Liberation Serif, Normal';font-variant-ligatures:normal;font-variant-caps:normal;font-variant-numeric:normal;font-variant-east-asian:normal;fill:#000000;fill-opacity:1;stroke:none;stroke-width:3;stroke-linecap:round;stroke-linejoin:miter;stroke-dasharray:none;stroke-opacity:0.8;stop-color:#000000"
       x="348.72552"
       y="909.71985"
       id="text7973-8-6-9-6"><tspan
         sodipodi:role="line"
         id="tspan1898-2-2-6"
         x="348.72552"
         y="909.71985">Niveau orbite 7</tspan></text>
    <text
       xml:space="preserve"
       style="font-style:normal;font-variant:normal;font-weight:normal;font-stretch:normal;font-size:20px;font-family:'Liberation Serif';-inkscape-font-specification:'Liberation Serif, Normal';font-variant-ligatures:normal;font-variant-caps:normal;font-variant-numeric:normal;font-variant-east-asian:normal;fill:#000000;fill-opacity:1;stroke:none;stroke-width:3;stroke-linecap:round;stroke-linejoin:miter;stroke-dasharray:none;stroke-opacity:0.8;stop-color:#000000"
       x="348.72552"
       y="982.71985"
       id="text7973-8-6-9-1-4"><tspan
         sodipodi:role="line"
         id="tspan1898-2-2-0-6"
         x="348.72552"
         y="982.71985">Niveau orbite 7</tspan></text>
    <text
       xml:space="preserve"
       style="font-style:normal;font-variant:normal;font-weight:normal;font-stretch:normal;font-size:20px;font-family:'Liberation Serif';-inkscape-font-specification:'Liberation Serif, Normal';font-variant-ligatures:normal;font-variant-caps:normal;font-variant-numeric:normal;font-variant-east-asian:normal;fill:#000000;fill-opacity:1;stroke:none;stroke-width:3;stroke-linecap:round;stroke-linejoin:miter;stroke-dasharray:none;stroke-opacity:0.8;stop-color:#000000"
       x="348.72552"
       y="691.27917"
       id="text7969-8-7-4"><tspan
         sodipodi:role="line"
         id="tspan7967-9-5-9"
         style="font-style:normal;font-variant:normal;font-weight:normal;font-stretch:normal;font-size:20px;font-family:'Liberation Serif';-inkscape-font-specification:'Liberation Serif, Normal';font-variant-ligatures:normal;font-variant-caps:normal;font-variant-numeric:normal;font-variant-east-asian:normal;stroke-width:3"
         x="348.72552"
         y="691.27917">Niveau événement 5</tspan></text>
    <path
       fill="none"
       stroke="#ff0000"
       d="m 151.48169,410.1594 c 0.97,7.67 2.14,16.92 3.24,25.57"
       id="path31-5" />
    <polygon
       fill="#ff0000"
       stroke="#ff0000"
       points="78.65,-565.03 73.92,-574.51 80.87,-575.39 "
       id="polygon31-9"
       transform="translate(77.301684,1010.4694)" />
    <path
       fill="none"
       stroke="#000000"
       d="m 206.05169,410.1594 c -7.51,8.46 -16.71,18.83 -25.02,28.2"
       id="path32-8" />
    <polygon
       fill="#000000"
       stroke="#000000"
       points="97.11,-564.66 101.13,-574.46 106.37,-569.82 "
       id="polygon32"
       transform="translate(77.301684,1010.4694)" />
    <polygon
       fill="#add8e6"
       stroke="#add8e6"
       points="189,-636.5 243,-636.5 243,-600.5 189,-600.5 "
       id="polygon36-7"
       transform="translate(-135.27192,1011.2194)" />
    <text
       text-anchor="middle"
       x="80.728073"
       y="397.38937"
       font-family="Times, serif"
       font-size="14px"
       id="text36">n6</text>
    <rect
       style="fill:#d3d3d3;fill-opacity:1;stroke:#d3d3d3;stroke-width:0.75"
       id="rect56-3"
       width="70.65551"
       height="37"
       x="21.89856"
       y="300.84442"
       ry="13.705983" />
    <text
       text-anchor="middle"
       x="57.121311"
       y="315.30542"
       font-family="Times, serif"
       font-size="14px"
       id="text33"><tspan
         sodipodi:role="line"
         id="tspan57"
         x="57.121311"
         y="315.30542">2-extrusion</tspan><tspan
         sodipodi:role="line"
         id="tspan58"
         x="57.121311"
         y="332.80542">face</tspan></text>
    <rect
       style="fill:#d3d3d3;fill-opacity:1;stroke:#d3d3d3;stroke-width:0.75"
       id="rect56-7"
       width="67.695831"
       height="37"
       x="54.380527"
       y="446.46942"
       ry="13.705983" />
    <text
       text-anchor="middle"
       x="88.03244"
       y="469.65244"
       font-family="Times, serif"
       font-size="14px"
       id="text39-4">3-insertion</text>
    <g
       id="clust6"
       class="cluster"
       transform="translate(6.7596874,1010.379)">
      <title
         id="title7">cluster_3n0</title>
      <polygon
         fill="none"
         stroke="#000000"
         points="46,-446 46,-499 188,-499 188,-446 "
         id="polygon7" />
    </g>
    <g
       id="clust7"
       class="cluster"
       transform="translate(6.7596874,1010.379)">
      <title
         id="title8">cluster_4</title>
      <path
         fill="none"
         stroke="#000000"
         d="M 24.89744,-373 H 196 c 6,0 12,-6 12,-12 v -29 c 0,-6 -6,-12 -12,-12 H 24.89744 c -6,0 -12,6 -12,12 v 29 c 0,6 6,12 12,12"
         id="path8"
         sodipodi:nodetypes="csssssssc" />
    </g>
    <g
       id="clust8"
       class="cluster"
       transform="translate(6.7596874,1010.379)">
      <title
         id="title9">cluster_4n4</title>
      <polygon
         fill="none"
         stroke="#000000"
         points="46,-300 46,-353 188,-353 188,-300 "
         id="polygon9" />
    </g>
    <g
       id="clust10"
       class="cluster"
       transform="translate(6.7596874,1010.379)">
      <title
         id="title11">cluster_6n2</title>
      <polygon
         fill="none"
         stroke="#000000"
         points="46,-154 46,-207 188,-207 188,-154 "
         id="polygon11" />
    </g>
    <g
       id="clust11"
       class="cluster"
       transform="translate(6.7596874,1010.379)">
      <title
         id="title12">cluster_7</title>
      <path
         fill="none"
         stroke="#000000"
         d="m 20,-81 c 0,0 194,0 194,0 6,0 12,-6 12,-12 0,0 0,-29 0,-29 0,-6 -6,-12 -12,-12 0,0 -194,0 -194,0 -6,0 -12,6 -12,12 0,0 0,29 0,29 0,6 6,12 12,12"
         id="path12" />
    </g>
    <g
       id="clust12"
       class="cluster"
       transform="translate(6.7596874,1010.379)">
      <title
         id="title13">cluster_7n1</title>
      <polygon
         fill="none"
         stroke="#000000"
         points="46,-8 46,-61 188,-61 188,-8 "
         id="polygon13" />
    </g>
    <g
       id="node14"
       class="node"
       transform="translate(77.259687,1010.379)">
      <title
         id="title34">3n0[0]</title>
      <polygon
         fill="none"
         stroke="#000000"
         points="54,-490.5 108,-490.5 108,-454.5 54,-454.5 "
         id="polygon34" />
      <text
         text-anchor="middle"
         x="80.75"
         y="-467.82001"
         font-family="Times, serif"
         font-size="14px"
         id="text34">⟨0⟩</text>
    </g>
    <g
       id="edge9"
       class="edge"
       transform="translate(77.259687,1010.379)">
      <title
         id="title35">3SPLIT[0]-&gt;3n0[0]</title>
      <path
         fill="none"
         stroke="#000000"
         d="m 81,-527.31 c 0,7.58 0,16.71 0,25.27"
         id="path35" />
      <polygon
         fill="#000000"
         stroke="#000000"
         points="77.5,-502.04 84.5,-502.04 81,-492.04 "
         id="polygon35" />
    </g>
    <g
       id="node16"
       class="node"
       transform="translate(77.259687,1010.379)">
      <title
         id="title37">4CREATION[0, 1]</title>
      <path
         fill="none"
         stroke="#000000"
         d="m 46,-381.5 c 0,0 70,0 70,0 6,0 12,-6 12,-12 0,0 0,-12 0,-12 0,-6 -6,-12 -12,-12 0,0 -70,0 -70,0 -6,0 -12,6 -12,12 0,0 0,12 0,12 0,6 6,12 12,12"
         id="path37" />
      <text
         text-anchor="middle"
         x="81"
         y="-394.82001"
         font-family="Times, serif"
         font-size="14px"
         id="text37">CREATION</text>
    </g>
    <g
       id="edge10"
       class="edge"
       transform="translate(77.259687,1010.379)">
      <title
         id="title38">3n0[0]-&gt;4CREATION[0, 1]</title>
      <path
         fill="none"
         stroke="#ff0000"
         d="m 81,-454.31 c 0,7.58 0,16.71 0,25.27"
         id="path38" />
      <polygon
         fill="#ff0000"
         stroke="#ff0000"
         points="77.5,-429.04 84.5,-429.04 81,-419.04 "
         id="polygon38" />
    </g>
    <g
       id="node18"
       class="node"
       transform="translate(77.259687,1010.379)">
      <title
         id="title40">4n4[0, 1]</title>
      <polygon
         fill="none"
         stroke="#000000"
         points="54,-344.5 108,-344.5 108,-308.5 54,-308.5 "
         id="polygon40" />
      <text
         text-anchor="middle"
         x="80.75"
         y="-321.82001"
         font-family="Times, serif"
         font-size="14px"
         id="text40">⟨0, 1⟩</text>
    </g>
    <g
       id="edge11"
       class="edge"
       transform="translate(77.259687,1010.379)">
      <title
         id="title41">4CREATION[0, 1]-&gt;4n4[0, 1]</title>
      <path
         fill="none"
         stroke="#000000"
         d="m 81,-381.31 c 0,7.58 0,16.71 0,25.27"
         id="path41" />
      <polygon
         fill="#000000"
         stroke="#000000"
         points="77.5,-356.04 84.5,-356.04 81,-346.04 "
         id="polygon41" />
    </g>
    <g
       id="node17"
       class="node"
       transform="translate(-58.037554,1009.629)">
      <title
         id="title42">3n0</title>
      <polygon
         fill="#add8e6"
         stroke="#add8e6"
         points="180,-490.5 180,-454.5 126,-454.5 126,-490.5 "
         id="polygon42" />
      <text
         text-anchor="middle"
         x="153"
         y="-467.82001"
         font-family="Times, serif"
         font-size="14px"
         id="text42">n0</text>
    </g>
    <g
       id="node20"
       class="node"
       transform="translate(77.259687,1010.379)">
      <title
         id="title43">6MODIFICATION[0, 1]</title>
      <path
         fill="none"
         stroke="#000000"
         d="m 28,-235.5 c 0,0 106,0 106,0 6,0 12,-6 12,-12 0,0 0,-12 0,-12 0,-6 -6,-12 -12,-12 0,0 -106,0 -106,0 -6,0 -12,6 -12,12 0,0 0,12 0,12 0,6 6,12 12,12"
         id="path43" />
      <text
         text-anchor="middle"
         x="81"
         y="-248.82001"
         font-family="Times, serif"
         font-size="14px"
         id="text43">MODIFICATION</text>
    </g>
    <g
       id="edge12"
       class="edge"
       transform="translate(77.259687,1010.379)">
      <title
         id="title44">4n4[0, 1]-&gt;6MODIFICATION[0, 1]</title>
      <path
         fill="none"
         stroke="#000000"
         d="m 81,-308.31 c 0,7.58 0,16.71 0,25.27"
         id="path44" />
      <polygon
         fill="#000000"
         stroke="#000000"
         points="77.5,-283.04 84.5,-283.04 81,-273.04 "
         id="polygon44" />
    </g>
    <g
       id="g64"
       transform="translate(-238.7897,144.50398)">
      <rect
         style="fill:#d3d3d3;fill-opacity:1;stroke:#d3d3d3;stroke-width:0.75"
         id="rect62"
         width="79.670242"
         height="37"
         x="264.21426"
         y="447.875"
         ry="13.705983" />
      <g
         id="g63"
         class="node"
         transform="translate(58.845867,864.5)">
        <title
           id="title62">4</title>
        <text
           text-anchor="middle"
           x="245.25952"
           y="-402.17099"
           font-family="Times, serif"
           font-size="14px"
           id="text62"><tspan
             sodipodi:role="line"
             id="tspan70"
             x="245.25952"
             y="-402.17099">4-extrusion</tspan><tspan
             sodipodi:role="line"
             id="tspan71"
             x="245.25952"
             y="-384.67099">FaceVolume</tspan></text>
      </g>
    </g>
    <g
       id="node22"
       class="node"
       transform="translate(77.259687,1010.379)">
      <title
         id="title46">6n2[0, 1]</title>
      <polygon
         fill="none"
         stroke="#000000"
         points="54,-198.5 108,-198.5 108,-162.5 54,-162.5 "
         id="polygon46" />
      <text
         text-anchor="middle"
         x="80.75"
         y="-175.82001"
         font-family="Times, serif"
         font-size="14px"
         id="text46">⟨0, 1⟩</text>
    </g>
    <g
       id="edge13"
       class="edge"
       transform="translate(77.259687,1010.379)">
      <title
         id="title47">6MODIFICATION[0, 1]-&gt;6n2[0, 1]</title>
      <path
         fill="none"
         stroke="#000000"
         d="m 81,-235.31 c 0,7.58 0,16.71 0,25.27"
         id="path47" />
      <polygon
         fill="#000000"
         stroke="#000000"
         points="77.5,-210.04 84.5,-210.04 81,-200.04 "
         id="polygon47" />
    </g>
    <g
       id="node21"
       class="node"
       transform="translate(-60.240313,1011.129)">
      <title
         id="title48">4n4</title>
      <polygon
         fill="#add8e6"
         stroke="#add8e6"
         points="180,-344.5 180,-308.5 126,-308.5 126,-344.5 "
         id="polygon48" />
      <text
         text-anchor="middle"
         x="153"
         y="-321.82001"
         font-family="Times, serif"
         font-size="14px"
         id="text48">n4</text>
    </g>
    <g
       id="node24"
       class="node"
       transform="translate(77.259687,1010.379)">
      <title
         id="title49">7MODIFICATION[0, 1]</title>
      <path
         fill="none"
         stroke="#000000"
         d="m 28,-89.5 c 0,0 106,0 106,0 6,0 12,-6 12,-12 0,0 0,-12 0,-12 0,-6 -6,-12 -12,-12 0,0 -106,0 -106,0 -6,0 -12,6 -12,12 0,0 0,12 0,12 0,6 6,12 12,12"
         id="path49" />
      <text
         text-anchor="middle"
         x="81"
         y="-102.83"
         font-family="Times, serif"
         font-size="14px"
         id="text49">MODIFICATION</text>
    </g>
    <g
       id="edge14"
       class="edge"
       transform="translate(77.259687,1010.379)">
      <title
         id="title50">6n2[0, 1]-&gt;7MODIFICATION[0, 1]</title>
      <path
         fill="none"
         stroke="#000000"
         d="m 81,-162.31 c 0,7.58 0,16.71 0,25.27"
         id="path50" />
      <polygon
         fill="#000000"
         stroke="#000000"
         points="77.5,-137.04 84.5,-137.04 81,-127.04 "
         id="polygon50" />
    </g>
    <g
       id="node26"
       class="node"
       transform="translate(77.259687,1010.379)">
      <title
         id="title52">7n1[0, 1]</title>
      <polygon
         fill="none"
         stroke="#000000"
         points="54,-52.5 108,-52.5 108,-16.5 54,-16.5 "
         id="polygon52" />
      <text
         text-anchor="middle"
         x="80.75"
         y="-29.82"
         font-family="Times, serif"
         font-size="14px"
         id="text52">⟨0, 1⟩</text>
    </g>
    <g
       id="edge15"
       class="edge"
       transform="translate(77.259687,1010.379)">
      <title
         id="title53">7MODIFICATION[0, 1]-&gt;7n1[0, 1]</title>
      <path
         fill="none"
         stroke="#000000"
         d="m 81,-89.31 c 0,7.58 0,16.71 0,25.27"
         id="path53" />
      <polygon
         fill="#000000"
         stroke="#000000"
         points="77.5,-64.04 84.5,-64.04 81,-54.04 "
         id="polygon53" />
    </g>
    <g
       id="node25"
       class="node"
       transform="translate(-60.240313,1009.629)">
      <title
         id="title54">6n2</title>
      <polygon
         fill="#add8e6"
         stroke="#add8e6"
         points="180,-198.5 180,-162.5 126,-162.5 126,-198.5 "
         id="polygon54" />
      <text
         text-anchor="middle"
         x="153"
         y="-175.82001"
         font-family="Times, serif"
         font-size="14px"
         id="text54">n2</text>
    </g>
    <g
       id="node28"
       class="node"
       transform="translate(-60.240313,1011.129)">
      <title
         id="title56">7n1</title>
      <polygon
         fill="#add8e6"
         stroke="#add8e6"
         points="180,-52.5 180,-16.5 126,-16.5 126,-52.5 "
         id="polygon56" />
      <text
         text-anchor="middle"
         x="153"
         y="-29.82"
         font-family="Times, serif"
         font-size="14px"
         id="text56">n1</text>
    </g>
    <g
       id="g71"
       transform="translate(-273.12561,148.00398)">
      <rect
         style="fill:#d3d3d3;fill-opacity:1;stroke:#d3d3d3;stroke-width:0.75"
         id="rect56-9"
         width="79.138008"
         height="37"
         x="280.24298"
         y="590.375"
         ry="13.705983" />
      <text
         text-anchor="middle"
         x="319.67899"
         y="613.565"
         font-family="Times, serif"
         font-size="14px"
         id="text51">6-contraction</text>
    </g>
    <g
       id="g72"
       transform="translate(-285.97859,148.50398)">
      <rect
         style="fill:#d3d3d3;fill-opacity:1;stroke:#d3d3d3;stroke-width:0.75"
         id="rect56-2"
         width="68.034126"
         height="37"
         x="306.36765"
         y="735.875"
         ry="13.705983" />
      <g
         id="node27"
         class="node"
         transform="translate(105.13469,832.406)">
        <title
           id="title55">7</title>
        <text
           text-anchor="middle"
           x="235.21501"
           y="-73.32"
           font-family="Times, serif"
           font-size="14px"
           id="text55">7-chanfrein</text>
      </g>
    </g>
    <g
       id="clust9"
       class="cluster"
       transform="translate(6.7596874,1010.379)">
      <title
         id="title10">cluster_6</title>
      <path
         fill="none"
         stroke="#000000"
         d="M 5.7403126,-227 H 214 c 6,0 12,-6 12,-12 v -29 c 0,-6 -6,-12 -12,-12 H 5.7403126 c -6.00000002,0 -12,6 -12,12 v 29 c 0,6 5.99999998,12 12,12"
         id="path10"
         sodipodi:nodetypes="csssssssc" />
    </g>
  </g>
</svg>
