<?xml version="1.0" encoding="UTF-8" standalone="no"?>
<!-- Generated by graphviz version 12.1.1 (0)
 -->

<!-- Title: ReevaluationTree Pages: 1 -->

<svg
   width="512.78802pt"
   height="1002.879pt"
   viewBox="0 0 512.78803 1002.879"
   version="1.1"
   id="svg59"
   sodipodi:docname="cs1-pn68-dag-reeval.svg"
   inkscape:version="1.4 (e7c3feb100, 2024-10-09)"
   xmlns:inkscape="http://www.inkscape.org/namespaces/inkscape"
   xmlns:sodipodi="http://sodipodi.sourceforge.net/DTD/sodipodi-0.dtd"
   xmlns="http://www.w3.org/2000/svg"
   xmlns:svg="http://www.w3.org/2000/svg">
  <defs
     id="defs59" />
  <sodipodi:namedview
     id="namedview59"
     pagecolor="#ffffff"
     bordercolor="#000000"
     borderopacity="0.25"
     inkscape:showpageshadow="2"
     inkscape:pageopacity="0.0"
     inkscape:pagecheckerboard="0"
     inkscape:deskcolor="#d1d1d1"
     inkscape:document-units="pt"
     inkscape:zoom="1.4164773"
     inkscape:cx="100.95467"
     inkscape:cy="1272.8761"
     inkscape:window-width="1892"
     inkscape:window-height="1035"
     inkscape:window-x="9"
     inkscape:window-y="26"
     inkscape:window-maximized="0"
     inkscape:current-layer="svg59"
     showgrid="false" />
  <path
     fill="none"
     stroke="#000000"
     d="M 21.053243,199.31 H 310.59168 c 6,0 12,-6 12,-12 v -29 c 0,-6 -6,-12 -12,-12 H 21.053243 c -5.999999,0 -11.9999991,6 -11.9999991,12 v 29 c 0,6 6.0000001,12 11.9999991,12"
     id="path4-4"
     sodipodi:nodetypes="csssssssc" />
  <polygon
     fill="none"
     stroke="#000000"
     points="53,-645 267,-645 267,-592 53,-592 "
     id="polygon5-2"
     transform="translate(3.0916822,864.31)" />
  <path
     fill="none"
     stroke="#000000"
     d="m 109.97168,190.81 c 0,0 75.24,0 75.24,0 6,0 12,-6 12,-12 0,0 0,-12 0,-12 0,-6 -6,-12 -12,-12 0,0 -75.24,0 -75.24,0 -6,0 -11.999998,6 -11.999998,12 0,0 0,12 0,12 0,6 5.999998,12 11.999998,12"
     id="path17-3" />
  <text
     text-anchor="middle"
     x="147.59167"
     y="177.47998"
     font-family="Times, serif"
     font-size="14px"
     id="text17-6">NOEFFECT</text>
  <path
     fill="none"
     stroke="#000000"
     d="m 154.41168,118 c -0.97,7.67 -2.14,16.92 -3.24,25.57"
     id="path18-2" />
  <polygon
     fill="#000000"
     stroke="#000000"
     points="74.13,-721.39 81.08,-720.51 76.35,-711.03 "
     id="polygon18-10"
     transform="translate(73.591682,864.31)" />
  <path
     fill="none"
     stroke="#000000"
     d="m 226.97168,190.81 c 0,0 75.24,0 75.24,0 6,0 12,-6 12,-12 0,0 0,-12 0,-12 0,-6 -6,-12 -12,-12 0,0 -75.24,0 -75.24,0 -6,0 -12,6 -12,12 0,0 0,12 0,12 0,6 6,12 12,12"
     id="path22-0" />
  <text
     text-anchor="middle"
     x="264.59167"
     y="177.47998"
     font-family="Times, serif"
     font-size="14px"
     id="text22-8">NOEFFECT</text>
  <path
     fill="none"
     stroke="#000000"
     d="m 237.30168,118 c 4.07,8.02 9.01,17.76 13.56,26.74"
     id="path23-64" />
  <polygon
     fill="#000000"
     stroke="#000000"
     points="174.04,-718.21 180.28,-721.38 181.68,-710.88 "
     id="polygon23-6"
     transform="translate(73.591682,864.31)" />
  <polygon
     fill="none"
     stroke="#000000"
     points="61,-636.5 115,-636.5 115,-600.5 61,-600.5 "
     id="polygon25-8"
     transform="translate(73.591682,864.31)" />
  <text
     text-anchor="middle"
     x="161.34167"
     y="250.47998"
     font-family="Times, serif"
     font-size="14px"
     id="text25-62">⟨⟩</text>
  <path
     fill="none"
     stroke="#000000"
     d="m 150.98168,191 c 1.51,7.67 3.34,16.92 5.04,25.57"
     id="path26-7" />
  <polygon
     fill="#000000"
     stroke="#000000"
     points="78.98,-647.15 85.85,-648.5 84.35,-638.01 "
     id="polygon26-2"
     transform="translate(73.591682,864.31)" />
  <polygon
     fill="none"
     stroke="#000000"
     points="133,-636.5 187,-636.5 187,-600.5 133,-600.5 "
     id="polygon27-6"
     transform="translate(73.591682,864.31)" />
  <text
     text-anchor="middle"
     x="233.34167"
     y="250.47998"
     font-family="Times, serif"
     font-size="14px"
     id="text27-2">⟨0⟩</text>
  <path
     fill="none"
     stroke="#000000"
     d="m 257.09168,191 c -3.47,7.93 -7.67,17.55 -11.55,26.45"
     id="path28-1" />
  <polygon
     fill="#000000"
     stroke="#000000"
     points="168.83,-648.48 175.25,-645.68 168.04,-637.92 "
     id="polygon28-3"
     transform="translate(73.591682,864.31)" />
  <g
     id="g4"
     transform="translate(-240.49787,864.15057)">
    <path
       fill="#d3d3d3"
       stroke="#d3d3d3"
       d="m 271,-673.5 h 37.70956 c 6,0 12,-6 12,-12 v -12 c 0,-6 -6,-12 -12,-12 H 271 c -6,0 -12,6 -12,12 v 12 c 0,6 6,12 12,12"
       id="path34-0"
       sodipodi:nodetypes="csssssssc" />
    <text
       text-anchor="middle"
       x="289.84079"
       y="-695.71399"
       font-family="Times, serif"
       font-size="14px"
       id="text34-34"><tspan
         sodipodi:role="line"
         id="tspan3"
         x="289.84079"
         y="-695.71399">DELETE</tspan><tspan
         sodipodi:role="line"
         id="tspan4"
         x="289.84079"
         y="-678.21399">3-insert</tspan></text>
  </g>
  <polygon
     fill="#add8e6"
     stroke="#add8e6"
     points="259,-636.5 259,-600.5 205,-600.5 205,-636.5 "
     id="polygon39-9"
     transform="translate(-139.07092,864.46943)" />
  <text
     text-anchor="middle"
     x="92.929077"
     y="250.63942"
     font-family="Times, serif"
     font-size="14px"
     id="text39-1">5</text>
  <path
     fill="none"
     stroke="#000000"
     d="m 51.801683,53.5 c 0,0 269.999997,0 269.999997,0 6,0 12,-6 12,-12 0,0 0,-29 0,-29 0,-6 -6,-12 -12,-12 0,0 -269.999997,0 -269.999997,0 -6,0 -12,6 -12,12 0,0 0,29 0,29 0,6 6,12 12,12"
     id="path2-1" />
  <polygon
     fill="none"
     stroke="#000000"
     points="53,-738 53,-791 267,-791 267,-738 "
     id="polygon3-4"
     transform="translate(6.8016827,864.5)" />
  <path
     fill="none"
     stroke="#000000"
     d="m 130.30168,45 c 0,0 70,0 70,0 6,0 12,-6 12,-12 0,0 0,-12 0,-12 0,-6 -6,-12 -12,-12 0,0 -70,0 -70,0 -6,0 -12,6 -12,12 0,0 0,12 0,12 0,6 6,12 12,12"
     id="path14-2" />
  <text
     text-anchor="middle"
     x="165.30168"
     y="31.669983"
     font-family="Times, serif"
     font-size="14px"
     id="text14-6">CREATION</text>
  <polygon
     fill="none"
     stroke="#000000"
     points="61,-782.5 115,-782.5 115,-746.5 61,-746.5 "
     id="polygon15-9"
     transform="translate(77.301682,864.5)" />
  <text
     text-anchor="middle"
     x="165.05168"
     y="104.66998"
     font-family="Times, serif"
     font-size="14px"
     id="text15-5">⟨⟩</text>
  <path
     fill="none"
     stroke="#000000"
     d="m 165.30168,45.19 c 0,7.58 0,16.71 0,25.27"
     id="path16-8" />
  <polygon
     fill="#000000"
     stroke="#000000"
     points="88,-784.04 84.5,-794.04 91.5,-794.04 "
     id="polygon16-7"
     transform="translate(77.301682,864.5)" />
  <path
     fill="none"
     stroke="#000000"
     d="m 242.30168,45 c 0,0 70,0 70,0 6,0 12,-6 12,-12 0,0 0,-12 0,-12 0,-6 -6,-12 -12,-12 0,0 -70,0 -70,0 -6,0 -12,6 -12,12 0,0 0,12 0,12 0,6 6,12 12,12"
     id="path19-1" />
  <text
     text-anchor="middle"
     x="277.3017"
     y="31.669983"
     font-family="Times, serif"
     font-size="14px"
     id="text19-5">CREATION</text>
  <polygon
     fill="none"
     stroke="#000000"
     points="133,-782.5 187,-782.5 187,-746.5 133,-746.5 "
     id="polygon20-9"
     transform="translate(77.301682,864.5)" />
  <text
     text-anchor="middle"
     x="237.05168"
     y="104.66998"
     font-family="Times, serif"
     font-size="14px"
     id="text20-0">⟨0⟩</text>
  <path
     fill="none"
     stroke="#000000"
     d="m 267.62168,45.19 c -4.57,8.11 -10.13,17.97 -15.23,27.03"
     id="path21-7" />
  <polygon
     fill="#000000"
     stroke="#000000"
     points="170.34,-783.85 172.2,-794.28 178.29,-790.84 "
     id="polygon21-7"
     transform="translate(77.301682,864.5)" />
  <polygon
     fill="#add8e6"
     stroke="#add8e6"
     points="259,-782.5 259,-746.5 205,-746.5 205,-782.5 "
     id="polygon29-9"
     transform="translate(-132.29492,864.5)" />
  <text
     text-anchor="middle"
     x="99.705078"
     y="104.66998"
     font-family="Times, serif"
     font-size="14px"
     id="text29-6">n5</text>
  <rect
     style="fill:#d3d3d3;fill-opacity:1;stroke:#d3d3d3;stroke-width:0.75"
     id="rect56"
     width="55"
     height="37"
     x="53.228081"
     y="8.1249962"
     ry="13.705983" />
  <text
     text-anchor="middle"
     x="80.091087"
     y="31.286995"
     font-family="Times, serif"
     font-size="14px"
     id="text24-9"><tspan
       sodipodi:role="line"
       id="tspan1"
       x="80.091087"
       y="31.286995">1-creation</tspan><tspan
       sodipodi:role="line"
       id="tspan2"
       x="80.091087"
       y="48.786995">Carre</tspan></text>
  <path
     fill="none"
     stroke="#ff0000"
     d="m 160.46168,264.1594 c -2.19,7.76 -4.83,17.13 -7.29,25.86"
     id="path18-6" />
  <polygon
     fill="#ff0000"
     stroke="#ff0000"
     points="73.21,-710.99 72.55,-721.56 79.29,-719.66 "
     id="polygon18-1"
     transform="translate(77.301684,1010.4694)" />
  <path
     fill="none"
     stroke="#ff0000"
     d="m 242.14168,264.1594 c 2.19,7.76 4.83,17.13 7.29,25.86"
     id="path23-6" />
  <polygon
     fill="#ff0000"
     stroke="#ff0000"
     points="174.79,-710.99 168.71,-719.66 175.45,-721.56 "
     id="polygon23-7"
     transform="translate(77.301684,1010.4694)" />
  <path
     fill="none"
     stroke="#000000"
     d="M 26.301684,345.4694 H 301.80169 c 6,0 12,-6 12,-12 v -29 c 0,-6 -6,-12 -12,-12 H 26.301684 c -6,0 -12,6 -12,12 v 29 c 0,6 6,12 12,12"
     id="path4-5"
     sodipodi:nodetypes="csssssssc" />
  <polygon
     fill="none"
     stroke="#000000"
     points="37,-645 251,-645 251,-592 37,-592 "
     id="polygon5-3"
     transform="translate(6.801684,1010.4694)" />
  <path
     fill="none"
     stroke="#000000"
     d="m 110.30169,336.9694 c 0,0 70,0 70,0 6,0 12,-6 12,-12 0,0 0,-12 0,-12 0,-6 -6,-12 -12,-12 0,0 -70,0 -70,0 -6.00001,0 -12.000006,6 -12.000006,12 0,0 0,12 0,12 0,6 5.999996,12 12.000006,12"
     id="path17-2" />
  <text
     text-anchor="middle"
     x="145.3017"
     y="323.63937"
     font-family="Times, serif"
     font-size="14px"
     id="text17-7">CREATION</text>
  <path
     fill="none"
     stroke="#000000"
     d="m 222.30169,336.9694 c 0,0 70,0 70,0 6,0 12,-6 12,-12 0,0 0,-12 0,-12 0,-6 -6,-12 -12,-12 0,0 -70,0 -70,0 -6,0 -12,6 -12,12 0,0 0,12 0,12 0,6 6,12 12,12"
     id="path22-5" />
  <text
     text-anchor="middle"
     x="257.3017"
     y="323.63937"
     font-family="Times, serif"
     font-size="14px"
     id="text22-9">CREATION</text>
  <polygon
     fill="none"
     stroke="#000000"
     points="99,-636.5 99,-600.5 45,-600.5 45,-636.5 "
     id="polygon25-5"
     transform="translate(77.301684,1010.4694)" />
  <text
     text-anchor="middle"
     x="149.0517"
     y="396.63937"
     font-family="Times, serif"
     font-size="14px"
     id="text25-6">⟨⟩</text>
  <path
     fill="none"
     stroke="#000000"
     d="m 146.27169,337.1594 c 0.43,7.67 0.95,16.92 1.44,25.57"
     id="path26-4" />
  <polygon
     fill="#000000"
     stroke="#000000"
     points="73.89,-648.22 70.96,-638.04 66.9,-647.83 "
     id="polygon26-8"
     transform="translate(77.301684,1010.4694)" />
  <polygon
     fill="none"
     stroke="#000000"
     points="171,-636.5 171,-600.5 117,-600.5 117,-636.5 "
     id="polygon27-9"
     transform="translate(77.301684,1010.4694)" />
  <text
     text-anchor="middle"
     x="221.0517"
     y="396.63937"
     font-family="Times, serif"
     font-size="14px"
     id="text27-3">⟨0⟩</text>
  <path
     fill="none"
     stroke="#000000"
     d="m 248.59169,337.1594 c -4.07,8.02 -9.01,17.76 -13.56,26.74"
     id="path28-8" />
  <polygon
     fill="#000000"
     stroke="#000000"
     points="160.96,-645.21 153.32,-637.88 154.72,-648.38 "
     id="polygon28-8"
     transform="translate(77.301684,1010.4694)" />
  <path
     fill="none"
     stroke="#000000"
     d="m 140.92169,482.9694 c 0,0 34.76,0 34.76,0 6,0 12,-6 12,-12 0,0 0,-12 0,-12 0,-6 -6,-12 -12,-12 0,0 -34.76,0 -34.76,0 -6,0 -12,6 -12,12 0,0 0,12 0,12 0,6 6,12 12,12"
     id="path30-5"
     style="stroke:#000000;stroke-opacity:1" />
  <text
     text-anchor="middle"
     x="158.3017"
     y="469.63937"
     font-family="Times, serif"
     font-size="14px"
     id="text30-6">NOSPLIT</text>
  <text
     xml:space="preserve"
     style="font-style:normal;font-variant:normal;font-weight:normal;font-stretch:normal;font-size:20px;font-family:'Liberation Serif';-inkscape-font-specification:'Liberation Serif, Normal';font-variant-ligatures:normal;font-variant-caps:normal;font-variant-numeric:normal;font-variant-east-asian:normal;fill:#000000;fill-opacity:1;stroke:none;stroke-width:3;stroke-linecap:round;stroke-linejoin:miter;stroke-dasharray:none;stroke-opacity:0.8;stop-color:#000000"
     x="348.72552"
     y="33.855442"
     id="text7969"><tspan
       sodipodi:role="line"
       id="tspan7967"
       style="font-style:normal;font-variant:normal;font-weight:normal;font-stretch:normal;font-size:20px;font-family:'Liberation Serif';-inkscape-font-specification:'Liberation Serif, Normal';font-variant-ligatures:normal;font-variant-caps:normal;font-variant-numeric:normal;font-variant-east-asian:normal;stroke-width:3"
       x="348.72552"
       y="33.855442">Niveau événement 1</tspan></text>
  <text
     xml:space="preserve"
     style="font-style:normal;font-variant:normal;font-weight:normal;font-stretch:normal;font-size:20px;font-family:'Liberation Serif';-inkscape-font-specification:'Liberation Serif, Normal';font-variant-ligatures:normal;font-variant-caps:normal;font-variant-numeric:normal;font-variant-east-asian:normal;fill:#000000;fill-opacity:1;stroke:none;stroke-width:3;stroke-linecap:round;stroke-linejoin:miter;stroke-dasharray:none;stroke-opacity:0.8;stop-color:#000000"
     x="348.72552"
     y="472.1282"
     id="text7969-8"><tspan
       sodipodi:role="line"
       id="tspan7967-9"
       style="font-style:normal;font-variant:normal;font-weight:normal;font-stretch:normal;font-size:20px;font-family:'Liberation Serif';-inkscape-font-specification:'Liberation Serif, Normal';font-variant-ligatures:normal;font-variant-caps:normal;font-variant-numeric:normal;font-variant-east-asian:normal;stroke-width:3"
       x="348.72552"
       y="472.1282">Niveau événement 4</tspan></text>
  <text
     xml:space="preserve"
     style="font-style:normal;font-variant:normal;font-weight:normal;font-stretch:normal;font-size:20px;font-family:'Liberation Serif';-inkscape-font-specification:'Liberation Serif, Normal';font-variant-ligatures:normal;font-variant-caps:normal;font-variant-numeric:normal;font-variant-east-asian:normal;fill:#000000;fill-opacity:1;stroke:none;stroke-width:3;stroke-linecap:round;stroke-linejoin:miter;stroke-dasharray:none;stroke-opacity:0.8;stop-color:#000000"
     x="348.72552"
     y="106.88626"
     id="text7973"><tspan
       sodipodi:role="line"
       id="tspan7971"
       style="font-style:normal;font-variant:normal;font-weight:normal;font-stretch:normal;font-size:20px;font-family:'Liberation Serif';-inkscape-font-specification:'Liberation Serif, Normal';font-variant-ligatures:normal;font-variant-caps:normal;font-variant-numeric:normal;font-variant-east-asian:normal;stroke-width:3"
       x="348.72552"
       y="106.88626">Niveau orbite 1</tspan></text>
  <text
     xml:space="preserve"
     style="font-style:normal;font-variant:normal;font-weight:normal;font-stretch:normal;font-size:20px;font-family:'Liberation Serif';-inkscape-font-specification:'Liberation Serif, Normal';font-variant-ligatures:normal;font-variant-caps:normal;font-variant-numeric:normal;font-variant-east-asian:normal;fill:#000000;fill-opacity:1;stroke:none;stroke-width:3;stroke-linecap:round;stroke-linejoin:miter;stroke-dasharray:none;stroke-opacity:0.8;stop-color:#000000"
     x="348.72552"
     y="179.94638"
     id="text7969-1"><tspan
       sodipodi:role="line"
       id="tspan1892"
       x="348.72552"
       y="179.94638">Niveau événement 2</tspan></text>
  <text
     xml:space="preserve"
     style="font-style:normal;font-variant:normal;font-weight:normal;font-stretch:normal;font-size:20px;font-family:'Liberation Serif';-inkscape-font-specification:'Liberation Serif, Normal';font-variant-ligatures:normal;font-variant-caps:normal;font-variant-numeric:normal;font-variant-east-asian:normal;fill:#000000;fill-opacity:1;stroke:none;stroke-width:3;stroke-linecap:round;stroke-linejoin:miter;stroke-dasharray:none;stroke-opacity:0.8;stop-color:#000000"
     x="348.72552"
     y="252.97714"
     id="text7973-9"><tspan
       sodipodi:role="line"
       id="tspan1894"
       x="348.72552"
       y="252.97714">Niveau orbite 2</tspan></text>
  <text
     xml:space="preserve"
     style="font-style:normal;font-variant:normal;font-weight:normal;font-stretch:normal;font-size:20px;font-family:'Liberation Serif';-inkscape-font-specification:'Liberation Serif, Normal';font-variant-ligatures:normal;font-variant-caps:normal;font-variant-numeric:normal;font-variant-east-asian:normal;fill:#000000;fill-opacity:1;stroke:none;stroke-width:3;stroke-linecap:round;stroke-linejoin:miter;stroke-dasharray:none;stroke-opacity:0.8;stop-color:#000000"
     x="348.72552"
     y="326.03726"
     id="text7969-0"><tspan
       sodipodi:role="line"
       id="tspan1896"
       x="348.72552"
       y="326.03726">Niveau événement 3</tspan></text>
  <text
     xml:space="preserve"
     style="font-style:normal;font-variant:normal;font-weight:normal;font-stretch:normal;font-size:20px;font-family:'Liberation Serif';-inkscape-font-specification:'Liberation Serif, Normal';font-variant-ligatures:normal;font-variant-caps:normal;font-variant-numeric:normal;font-variant-east-asian:normal;fill:#000000;fill-opacity:1;stroke:none;stroke-width:3;stroke-linecap:round;stroke-linejoin:miter;stroke-dasharray:none;stroke-opacity:0.8;stop-color:#000000"
     x="348.72552"
     y="399.06808"
     id="text7973-8"><tspan
       sodipodi:role="line"
       id="tspan1898"
       x="348.72552"
       y="399.06808">Niveau orbite 3</tspan></text>
  <text
     xml:space="preserve"
     style="font-style:normal;font-variant:normal;font-weight:normal;font-stretch:normal;font-size:20px;font-family:'Liberation Serif';-inkscape-font-specification:'Liberation Serif, Normal';font-variant-ligatures:normal;font-variant-caps:normal;font-variant-numeric:normal;font-variant-east-asian:normal;fill:#000000;fill-opacity:1;stroke:none;stroke-width:3;stroke-linecap:round;stroke-linejoin:miter;stroke-dasharray:none;stroke-opacity:0.8;stop-color:#000000"
     x="348.72552"
     y="545.159"
     id="text7973-8-6"><tspan
       sodipodi:role="line"
       id="tspan1898-2"
       x="348.72552"
       y="545.159">Niveau orbite 4</tspan></text>
  <text
     xml:space="preserve"
     style="font-style:normal;font-variant:normal;font-weight:normal;font-stretch:normal;font-size:20px;font-family:'Liberation Serif';-inkscape-font-specification:'Liberation Serif, Normal';font-variant-ligatures:normal;font-variant-caps:normal;font-variant-numeric:normal;font-variant-east-asian:normal;fill:#000000;fill-opacity:1;stroke:none;stroke-width:3;stroke-linecap:round;stroke-linejoin:miter;stroke-dasharray:none;stroke-opacity:0.8;stop-color:#000000"
     x="348.72552"
     y="618.21912"
     id="text7969-8-7"><tspan
       sodipodi:role="line"
       id="tspan7967-9-5"
       style="font-style:normal;font-variant:normal;font-weight:normal;font-stretch:normal;font-size:20px;font-family:'Liberation Serif';-inkscape-font-specification:'Liberation Serif, Normal';font-variant-ligatures:normal;font-variant-caps:normal;font-variant-numeric:normal;font-variant-east-asian:normal;stroke-width:3"
       x="348.72552"
       y="618.21912">Niveau événement 5</tspan></text>
  <text
     xml:space="preserve"
     style="font-style:normal;font-variant:normal;font-weight:normal;font-stretch:normal;font-size:20px;font-family:'Liberation Serif';-inkscape-font-specification:'Liberation Serif, Normal';font-variant-ligatures:normal;font-variant-caps:normal;font-variant-numeric:normal;font-variant-east-asian:normal;fill:#000000;fill-opacity:1;stroke:none;stroke-width:3;stroke-linecap:round;stroke-linejoin:miter;stroke-dasharray:none;stroke-opacity:0.8;stop-color:#000000"
     x="348.72552"
     y="764.31"
     id="text7973-8-6-9"><tspan
       sodipodi:role="line"
       id="tspan1898-2-2"
       x="348.72552"
       y="764.31">Niveau orbite 6</tspan></text>
  <text
     xml:space="preserve"
     style="font-style:normal;font-variant:normal;font-weight:normal;font-stretch:normal;font-size:20px;font-family:'Liberation Serif';-inkscape-font-specification:'Liberation Serif, Normal';font-variant-ligatures:normal;font-variant-caps:normal;font-variant-numeric:normal;font-variant-east-asian:normal;fill:#000000;fill-opacity:1;stroke:none;stroke-width:3;stroke-linecap:round;stroke-linejoin:miter;stroke-dasharray:none;stroke-opacity:0.8;stop-color:#000000"
     x="348.72552"
     y="837.34082"
     id="text7973-8-6-9-1"><tspan
       sodipodi:role="line"
       id="tspan1898-2-2-0"
       x="348.72552"
       y="837.34082">Niveau orbite 6</tspan></text>
  <text
     xml:space="preserve"
     style="font-style:normal;font-variant:normal;font-weight:normal;font-stretch:normal;font-size:20px;font-family:'Liberation Serif';-inkscape-font-specification:'Liberation Serif, Normal';font-variant-ligatures:normal;font-variant-caps:normal;font-variant-numeric:normal;font-variant-east-asian:normal;fill:#000000;fill-opacity:1;stroke:none;stroke-width:3;stroke-linecap:round;stroke-linejoin:miter;stroke-dasharray:none;stroke-opacity:0.8;stop-color:#000000"
     x="348.72552"
     y="909.71985"
     id="text7973-8-6-9-6"><tspan
       sodipodi:role="line"
       id="tspan1898-2-2-6"
       x="348.72552"
       y="909.71985">Niveau orbite 7</tspan></text>
  <text
     xml:space="preserve"
     style="font-style:normal;font-variant:normal;font-weight:normal;font-stretch:normal;font-size:20px;font-family:'Liberation Serif';-inkscape-font-specification:'Liberation Serif, Normal';font-variant-ligatures:normal;font-variant-caps:normal;font-variant-numeric:normal;font-variant-east-asian:normal;fill:#000000;fill-opacity:1;stroke:none;stroke-width:3;stroke-linecap:round;stroke-linejoin:miter;stroke-dasharray:none;stroke-opacity:0.8;stop-color:#000000"
     x="348.72552"
     y="982.71985"
     id="text7973-8-6-9-1-4"><tspan
       sodipodi:role="line"
       id="tspan1898-2-2-0-6"
       x="348.72552"
       y="982.71985">Niveau orbite 7</tspan></text>
  <text
     xml:space="preserve"
     style="font-style:normal;font-variant:normal;font-weight:normal;font-stretch:normal;font-size:20px;font-family:'Liberation Serif';-inkscape-font-specification:'Liberation Serif, Normal';font-variant-ligatures:normal;font-variant-caps:normal;font-variant-numeric:normal;font-variant-east-asian:normal;fill:#000000;fill-opacity:1;stroke:none;stroke-width:3;stroke-linecap:round;stroke-linejoin:miter;stroke-dasharray:none;stroke-opacity:0.8;stop-color:#000000"
     x="348.72552"
     y="691.27917"
     id="text7969-8-7-4"><tspan
       sodipodi:role="line"
       id="tspan7967-9-5-9"
       style="font-style:normal;font-variant:normal;font-weight:normal;font-stretch:normal;font-size:20px;font-family:'Liberation Serif';-inkscape-font-specification:'Liberation Serif, Normal';font-variant-ligatures:normal;font-variant-caps:normal;font-variant-numeric:normal;font-variant-east-asian:normal;stroke-width:3"
       x="348.72552"
       y="691.27917">Niveau événement 5</tspan></text>
  <path
     fill="none"
     stroke="#ff0000"
     d="m 151.48169,410.1594 c 0.97,7.67 2.14,16.92 3.24,25.57"
     id="path31-5" />
  <polygon
     fill="#ff0000"
     stroke="#ff0000"
     points="80.87,-575.39 78.65,-565.03 73.92,-574.51 "
     id="polygon31-9"
     transform="translate(77.301684,1010.4694)" />
  <path
     fill="none"
     stroke="#000000"
     d="m 206.05169,410.1594 c -7.51,8.46 -16.71,18.83 -25.02,28.2"
     id="path32-8" />
  <polygon
     fill="#000000"
     stroke="#000000"
     points="106.37,-569.82 97.11,-564.66 101.13,-574.46 "
     id="polygon32"
     transform="translate(77.301684,1010.4694)" />
  <polygon
     fill="#add8e6"
     stroke="#add8e6"
     points="243,-600.5 189,-600.5 189,-636.5 243,-636.5 "
     id="polygon36-7"
     transform="translate(-135.27192,1011.2194)" />
  <text
     text-anchor="middle"
     x="80.728073"
     y="397.38937"
     font-family="Times, serif"
     font-size="14px"
     id="text36">n6</text>
  <rect
     style="fill:#d3d3d3;fill-opacity:1;stroke:#d3d3d3;stroke-width:0.75"
     id="rect56-3"
     width="70.65551"
     height="37"
     x="21.89856"
     y="300.84442"
     ry="13.705983" />
  <text
     text-anchor="middle"
     x="57.121311"
     y="315.30542"
     font-family="Times, serif"
     font-size="14px"
     id="text33"><tspan
       sodipodi:role="line"
       id="tspan57"
       x="57.121311"
       y="315.30542">2-extrusion</tspan><tspan
       sodipodi:role="line"
       id="tspan58"
       x="57.121311"
       y="332.80542">Face</tspan></text>
  <rect
     style="fill:#d3d3d3;fill-opacity:1;stroke:#d3d3d3;stroke-width:0.75"
     id="rect56-7"
     width="98.396683"
     height="37"
     x="13.880527"
     y="446.46942"
     ry="13.705983" />
  <text
     text-anchor="middle"
     x="62.959869"
     y="460.85342"
     font-family="Times, serif"
     font-size="14px"
     id="text39-4"><tspan
       sodipodi:role="line"
       id="tspan5"
       x="62.959869"
       y="460.85342">DELETE 3-</tspan><tspan
       sodipodi:role="line"
       id="tspan6"
       x="62.959869"
       y="478.35342">insertionSommet</tspan></text>
  <polygon
     fill="none"
     stroke="#000000"
     points="46,-446 46,-499 188,-499 188,-446 "
     id="polygon7"
     transform="translate(6.7596874,1010.379)" />
  <path
     fill="none"
     stroke="#000000"
     d="M 31.657127,637.379 H 202.75969 c 6,0 12,-6 12,-12 v -29 c 0,-6 -6,-12 -12,-12 H 31.657127 c -6,0 -12,6 -12,12 v 29 c 0,6 6,12 12,12"
     id="path8"
     sodipodi:nodetypes="csssssssc" />
  <polygon
     fill="none"
     stroke="#000000"
     points="46,-300 46,-353 188,-353 188,-300 "
     id="polygon9"
     transform="translate(6.7596874,1010.379)" />
  <polygon
     fill="none"
     stroke="#000000"
     points="46,-154 46,-207 188,-207 188,-154 "
     id="polygon11"
     transform="translate(6.7596874,1010.379)" />
  <path
     fill="none"
     stroke="#000000"
     d="m 26.759687,929.379 c 0,0 194.000003,0 194.000003,0 6,0 12,-6 12,-12 0,0 0,-29 0,-29 0,-6 -6,-12 -12,-12 0,0 -194.000003,0 -194.000003,0 -6,0 -12,6 -12,12 0,0 0,29 0,29 0,6 6,12 12,12"
     id="path12" />
  <polygon
     fill="none"
     stroke="#000000"
     points="46,-8 46,-61 188,-61 188,-8 "
     id="polygon13"
     transform="translate(6.7596874,1010.379)" />
  <polygon
     fill="none"
     stroke="#000000"
     points="54,-490.5 108,-490.5 108,-454.5 54,-454.5 "
     id="polygon34"
     transform="translate(77.259687,1010.379)" />
  <text
     text-anchor="middle"
     x="158.00969"
     y="542.55902"
     font-family="Times, serif"
     font-size="14px"
     id="text34">⟨0⟩</text>
  <path
     fill="none"
     stroke="#000000"
     d="m 158.25969,483.069 c 0,7.58 0,16.71 0,25.27"
     id="path35" />
  <polygon
     fill="#000000"
     stroke="#000000"
     points="84.5,-502.04 81,-492.04 77.5,-502.04 "
     id="polygon35"
     transform="translate(77.259687,1010.379)" />
  <path
     fill="none"
     stroke="#000000"
     d="m 123.25969,628.879 c 0,0 70,0 70,0 6,0 12,-6 12,-12 0,0 0,-12 0,-12 0,-6 -6,-12 -12,-12 0,0 -70,0 -70,0 -6,0 -12,6 -12,12 0,0 0,12 0,12 0,6 6,12 12,12"
     id="path37" />
  <text
     text-anchor="middle"
     x="158.25969"
     y="615.55902"
     font-family="Times, serif"
     font-size="14px"
     id="text37">CREATION</text>
  <path
     fill="none"
     stroke="#ff0000"
     d="m 158.25969,556.069 c 0,7.58 0,16.71 0,25.27"
     id="path38" />
  <polygon
     fill="#ff0000"
     stroke="#ff0000"
     points="84.5,-429.04 81,-419.04 77.5,-429.04 "
     id="polygon38"
     transform="translate(77.259687,1010.379)" />
  <polygon
     fill="none"
     stroke="#000000"
     points="54,-344.5 108,-344.5 108,-308.5 54,-308.5 "
     id="polygon40"
     transform="translate(77.259687,1010.379)" />
  <text
     text-anchor="middle"
     x="158.00969"
     y="688.55902"
     font-family="Times, serif"
     font-size="14px"
     id="text40">⟨0, 1⟩</text>
  <path
     fill="none"
     stroke="#000000"
     d="m 158.25969,629.069 c 0,7.58 0,16.71 0,25.27"
     id="path41" />
  <polygon
     fill="#000000"
     stroke="#000000"
     points="84.5,-356.04 81,-346.04 77.5,-356.04 "
     id="polygon41"
     transform="translate(77.259687,1010.379)" />
  <polygon
     fill="#add8e6"
     stroke="#add8e6"
     points="180,-490.5 180,-454.5 126,-454.5 126,-490.5 "
     id="polygon42"
     transform="translate(-58.037554,1009.629)" />
  <text
     text-anchor="middle"
     x="94.962448"
     y="541.80902"
     font-family="Times, serif"
     font-size="14px"
     id="text42">n0</text>
  <path
     fill="none"
     stroke="#000000"
     d="m 105.25969,774.879 c 0,0 106,0 106,0 6,0 12,-6 12,-12 0,0 0,-12 0,-12 0,-6 -6,-12 -12,-12 0,0 -106,0 -106,0 -6.000003,0 -12.000003,6 -12.000003,12 0,0 0,12 0,12 0,6 6,12 12.000003,12"
     id="path43" />
  <text
     text-anchor="middle"
     x="158.25969"
     y="761.55902"
     font-family="Times, serif"
     font-size="14px"
     id="text43">MODIFICATION</text>
  <path
     fill="none"
     stroke="#000000"
     d="m 158.25969,702.069 c 0,7.58 0,16.71 0,25.27"
     id="path44" />
  <polygon
     fill="#000000"
     stroke="#000000"
     points="84.5,-283.04 81,-273.04 77.5,-283.04 "
     id="polygon44"
     transform="translate(77.259687,1010.379)" />
  <rect
     style="fill:#d3d3d3;fill-opacity:1;stroke:#d3d3d3;stroke-width:0.75"
     id="rect62"
     width="79.670242"
     height="37"
     x="25.424564"
     y="592.37897"
     ry="13.705983" />
  <g
     id="g63"
     class="node"
     transform="translate(-179.94383,1009.004)">
    <title
       id="title62">4</title>
    <text
       text-anchor="middle"
       x="245.25952"
       y="-402.17099"
       font-family="Times, serif"
       font-size="14px"
       id="text62"><tspan
         sodipodi:role="line"
         id="tspan70"
         x="245.25952"
         y="-402.17099">4-extrusion</tspan><tspan
         sodipodi:role="line"
         id="tspan71"
         x="245.25952"
         y="-384.67099">FaceVolume</tspan></text>
  </g>
  <polygon
     fill="none"
     stroke="#000000"
     points="54,-198.5 108,-198.5 108,-162.5 54,-162.5 "
     id="polygon46"
     transform="translate(77.259687,1010.379)" />
  <text
     text-anchor="middle"
     x="158.00969"
     y="834.55902"
     font-family="Times, serif"
     font-size="14px"
     id="text46">⟨0, 1⟩</text>
  <path
     fill="none"
     stroke="#000000"
     d="m 158.25969,775.069 c 0,7.58 0,16.71 0,25.27"
     id="path47" />
  <polygon
     fill="#000000"
     stroke="#000000"
     points="84.5,-210.04 81,-200.04 77.5,-210.04 "
     id="polygon47"
     transform="translate(77.259687,1010.379)" />
  <polygon
     fill="#add8e6"
     stroke="#add8e6"
     points="180,-344.5 180,-308.5 126,-308.5 126,-344.5 "
     id="polygon48"
     transform="translate(-60.240313,1011.129)" />
  <text
     text-anchor="middle"
     x="92.759689"
     y="689.30902"
     font-family="Times, serif"
     font-size="14px"
     id="text48">n4</text>
  <path
     fill="none"
     stroke="#000000"
     d="m 105.25969,920.879 c 0,0 106,0 106,0 6,0 12,-6 12,-12 0,0 0,-12 0,-12 0,-6 -6,-12 -12,-12 0,0 -106,0 -106,0 -6.000003,0 -12.000003,6 -12.000003,12 0,0 0,12 0,12 0,6 6,12 12.000003,12"
     id="path49" />
  <text
     text-anchor="middle"
     x="158.25969"
     y="907.54901"
     font-family="Times, serif"
     font-size="14px"
     id="text49">MODIFICATION</text>
  <path
     fill="none"
     stroke="#000000"
     d="m 158.25969,848.069 c 0,7.58 0,16.71 0,25.27"
     id="path50" />
  <polygon
     fill="#000000"
     stroke="#000000"
     points="84.5,-137.04 81,-127.04 77.5,-137.04 "
     id="polygon50"
     transform="translate(77.259687,1010.379)" />
  <polygon
     fill="none"
     stroke="#000000"
     points="54,-52.5 108,-52.5 108,-16.5 54,-16.5 "
     id="polygon52"
     transform="translate(77.259687,1010.379)" />
  <text
     text-anchor="middle"
     x="158.00969"
     y="980.55902"
     font-family="Times, serif"
     font-size="14px"
     id="text52">⟨0, 1⟩</text>
  <path
     fill="none"
     stroke="#000000"
     d="m 158.25969,921.069 c 0,7.58 0,16.71 0,25.27"
     id="path53" />
  <polygon
     fill="#000000"
     stroke="#000000"
     points="84.5,-64.04 81,-54.04 77.5,-64.04 "
     id="polygon53"
     transform="translate(77.259687,1010.379)" />
  <polygon
     fill="#add8e6"
     stroke="#add8e6"
     points="180,-198.5 180,-162.5 126,-162.5 126,-198.5 "
     id="polygon54"
     transform="translate(-60.240313,1009.629)" />
  <text
     text-anchor="middle"
     x="92.759689"
     y="833.80902"
     font-family="Times, serif"
     font-size="14px"
     id="text54">n2</text>
  <polygon
     fill="#add8e6"
     stroke="#add8e6"
     points="180,-52.5 180,-16.5 126,-16.5 126,-52.5 "
     id="polygon56"
     transform="translate(-60.240313,1011.129)" />
  <text
     text-anchor="middle"
     x="92.759689"
     y="981.30902"
     font-family="Times, serif"
     font-size="14px"
     id="text56">n1</text>
  <rect
     style="fill:#d3d3d3;fill-opacity:1;stroke:#d3d3d3;stroke-width:0.75"
     id="rect56-9"
     width="79.138008"
     height="37"
     x="7.1173711"
     y="738.37897"
     ry="13.705983" />
  <text
     text-anchor="middle"
     x="46.553375"
     y="752.84698"
     font-family="Times, serif"
     font-size="14px"
     id="text51"><tspan
       sodipodi:role="line"
       id="tspan7"
       x="46.553375"
       y="752.84698">6-contraction</tspan><tspan
       sodipodi:role="line"
       id="tspan8"
       x="46.553375"
       y="770.34698">Face</tspan></text>
  <rect
     style="fill:#d3d3d3;fill-opacity:1;stroke:#d3d3d3;stroke-width:0.75"
     id="rect56-2"
     width="68.034126"
     height="37"
     x="20.389055"
     y="884.37897"
     ry="13.705983" />
  <g
     id="node27"
     class="node"
     transform="translate(-180.84389,972.13197)">
    <title
       id="title55">7</title>
    <text
       text-anchor="middle"
       x="235.21501"
       y="-73.32"
       font-family="Times, serif"
       font-size="14px"
       id="text55"><tspan
         sodipodi:role="line"
         id="tspan9"
         x="235.21501"
         y="-73.32">7-chanfrein</tspan><tspan
         sodipodi:role="line"
         id="tspan10"
         x="235.21501"
         y="-55.82">Sommet</tspan></text>
  </g>
  <path
     fill="none"
     stroke="#000000"
     d="m 12.5,783.379 h 208.25969 c 6,0 12,-6 12,-12 v -29 c 0,-6 -6,-12 -12,-12 H 12.5 c -6,0 -12,6 -12,12 v 29 c 0,6 6,12 12,12"
     id="path10"
     sodipodi:nodetypes="csssssssc" />
  <path
     fill="none"
     stroke="#000000"
     d="M 16.657127,491.50537 H 187.75969 c 6,0 12,-6 12,-12 v -29 c 0,-6 -6,-12 -12,-12 H 16.657127 c -6,0 -11.9999996,6 -11.9999996,12 v 29 c 0,6 5.9999996,12 11.9999996,12"
     id="path8-6"
     sodipodi:nodetypes="csssssssc" />
</svg>
