<?xml version="1.0" encoding="UTF-8" standalone="no"?>
<!-- Generated by graphviz version 12.1.1 (0)
 -->

<!-- Title: ReevaluationTree Pages: 1 -->

<svg
   width="337pt"
   height="880pt"
   viewBox="0.00 0.00 337.00 880.00"
   version="1.1"
   id="svg59"
   sodipodi:docname="cs1-pn68-reevaluationTree-7.svg"
   inkscape:version="1.3.2 (091e20ef0f, 2023-11-25, custom)"
   xmlns:inkscape="http://www.inkscape.org/namespaces/inkscape"
   xmlns:sodipodi="http://sodipodi.sourceforge.net/DTD/sodipodi-0.dtd"
   xmlns="http://www.w3.org/2000/svg"
   xmlns:svg="http://www.w3.org/2000/svg">
  <defs
     id="defs59" />
  <sodipodi:namedview
     id="namedview59"
     pagecolor="#ffffff"
     bordercolor="#000000"
     borderopacity="0.25"
     inkscape:showpageshadow="2"
     inkscape:pageopacity="0.0"
     inkscape:pagecheckerboard="0"
     inkscape:deskcolor="#d1d1d1"
     inkscape:document-units="pt"
     inkscape:zoom="0.70823864"
     inkscape:cx="225.20658"
     inkscape:cy="586.66667"
     inkscape:window-width="1892"
     inkscape:window-height="1035"
     inkscape:window-x="9"
     inkscape:window-y="26"
     inkscape:window-maximized="0"
     inkscape:current-layer="svg59" />
  <g
     id="graph0"
     class="graph"
     transform="scale(1 1) rotate(0) translate(4 876)">
    <title
       id="title1">ReevaluationTree</title>
    <polygon
       fill="white"
       stroke="none"
       points="-4,4 -4,-876 333,-876 333,4 -4,4"
       id="polygon1" />
    <g
       id="clust1"
       class="cluster">
      <title
         id="title2">cluster_1:1</title>
      <path
         fill="none"
         stroke="black"
         d="M30,-811C30,-811 300,-811 300,-811 306,-811 312,-817 312,-823 312,-823 312,-852 312,-852 312,-858 306,-864 300,-864 300,-864 30,-864 30,-864 24,-864 18,-858 18,-852 18,-852 18,-823 18,-823 18,-817 24,-811 30,-811"
         id="path2" />
    </g>
    <g
       id="clust2"
       class="cluster">
      <title
         id="title3">cluster_15</title>
      <polygon
         fill="none"
         stroke="black"
         points="48,-738 48,-791 262,-791 262,-738 48,-738"
         id="polygon3" />
    </g>
    <g
       id="clust3"
       class="cluster">
      <title
         id="title4">cluster_10:1</title>
      <path
         fill="none"
         stroke="black"
         d="M28,-665C28,-665 309,-665 309,-665 315,-665 321,-671 321,-677 321,-677 321,-706 321,-706 321,-712 315,-718 309,-718 309,-718 28,-718 28,-718 22,-718 16,-712 16,-706 16,-706 16,-677 16,-677 16,-671 22,-665 28,-665"
         id="path4" />
    </g>
    <g
       id="clust4"
       class="cluster">
      <title
         id="title5">cluster_105</title>
      <polygon
         fill="none"
         stroke="black"
         points="53,-592 53,-645 267,-645 267,-592 53,-592"
         id="polygon5" />
    </g>
    <g
       id="clust5"
       class="cluster">
      <title
         id="title6">cluster_2:1</title>
      <path
         fill="none"
         stroke="black"
         d="M20,-519C20,-519 290,-519 290,-519 296,-519 302,-525 302,-531 302,-531 302,-560 302,-560 302,-566 296,-572 290,-572 290,-572 20,-572 20,-572 14,-572 8,-566 8,-560 8,-560 8,-531 8,-531 8,-525 14,-519 20,-519"
         id="path6" />
    </g>
    <g
       id="clust6"
       class="cluster">
      <title
         id="title7">cluster_259</title>
      <polygon
         fill="none"
         stroke="black"
         points="48,-446 48,-499 262,-499 262,-446 48,-446"
         id="polygon7" />
    </g>
    <g
       id="clust7"
       class="cluster">
      <title
         id="title8">cluster_4:1</title>
      <path
         fill="none"
         stroke="black"
         d="M112,-373C112,-373 270,-373 270,-373 276,-373 282,-379 282,-385 282,-385 282,-414 282,-414 282,-420 276,-426 270,-426 270,-426 112,-426 112,-426 106,-426 100,-420 100,-414 100,-414 100,-385 100,-385 100,-379 106,-373 112,-373"
         id="path8" />
    </g>
    <g
       id="clust8"
       class="cluster">
      <title
         id="title9">cluster_463</title>
      <polygon
         fill="none"
         stroke="black"
         points="120,-300 120,-353 262,-353 262,-300 120,-300"
         id="polygon9" />
    </g>
    <g
       id="clust9"
       class="cluster">
      <title
         id="title10">cluster_6:1</title>
      <path
         fill="none"
         stroke="black"
         d="M94,-227C94,-227 288,-227 288,-227 294,-227 300,-233 300,-239 300,-239 300,-268 300,-268 300,-274 294,-280 288,-280 288,-280 94,-280 94,-280 88,-280 82,-274 82,-268 82,-268 82,-239 82,-239 82,-233 88,-227 94,-227"
         id="path10" />
    </g>
    <g
       id="clust10"
       class="cluster">
      <title
         id="title11">cluster_663</title>
      <polygon
         fill="none"
         stroke="black"
         points="120,-154 120,-207 262,-207 262,-154 120,-154"
         id="polygon11" />
    </g>
    <g
       id="clust11"
       class="cluster">
      <title
         id="title12">cluster_7:1</title>
      <path
         fill="none"
         stroke="black"
         d="M94,-81C94,-81 288,-81 288,-81 294,-81 300,-87 300,-93 300,-93 300,-122 300,-122 300,-128 294,-134 288,-134 288,-134 94,-134 94,-134 88,-134 82,-128 82,-122 82,-122 82,-93 82,-93 82,-87 88,-81 94,-81"
         id="path12" />
    </g>
    <g
       id="clust12"
       class="cluster">
      <title
         id="title13">cluster_776</title>
      <polygon
         fill="none"
         stroke="black"
         points="120,-8 120,-61 262,-61 262,-8 120,-8"
         id="polygon13" />
    </g>
    <!-- 1|1CREATION[] -->
    <g
       id="node1"
       class="node">
      <title
         id="title14">1|1CREATION[]</title>
      <path
         fill="none"
         stroke="black"
         d="M38,-819.5C38,-819.5 108,-819.5 108,-819.5 114,-819.5 120,-825.5 120,-831.5 120,-831.5 120,-843.5 120,-843.5 120,-849.5 114,-855.5 108,-855.5 108,-855.5 38,-855.5 38,-855.5 32,-855.5 26,-849.5 26,-843.5 26,-843.5 26,-831.5 26,-831.5 26,-825.5 32,-819.5 38,-819.5"
         id="path14" />
      <text
         text-anchor="middle"
         x="73"
         y="-832.83"
         font-family="Times,serif"
         font-size="14.00"
         id="text14">CREATION</text>
    </g>
    <!-- 1|15[] -->
    <g
       id="node2"
       class="node">
      <title
         id="title15">1|15[]</title>
      <polygon
         fill="none"
         stroke="black"
         points="56,-746.5 56,-782.5 110,-782.5 110,-746.5 56,-746.5"
         id="polygon15" />
      <text
         text-anchor="middle"
         x="82.75"
         y="-759.83"
         font-family="Times,serif"
         font-size="14.00"
         id="text15">⟨⟩</text>
    </g>
    <!-- 1|1CREATION[]&#45;&gt;1|15[] -->
    <g
       id="edge1"
       class="edge">
      <title
         id="title16">1|1CREATION[]-&gt;1|15[]</title>
      <path
         fill="none"
         stroke="black"
         d="M75.42,-819.31C76.5,-811.64 77.8,-802.39 79.02,-793.74"
         id="path16" />
      <polygon
         fill="black"
         stroke="black"
         points="82.46,-794.42 80.39,-784.03 75.53,-793.44 82.46,-794.42"
         id="polygon16" />
    </g>
    <!-- 10|1NOEFFECT[] -->
    <g
       id="node6"
       class="node">
      <title
         id="title17">10|1NOEFFECT[]</title>
      <path
         fill="none"
         stroke="black"
         d="M36.38,-673.5C36.38,-673.5 111.62,-673.5 111.62,-673.5 117.62,-673.5 123.62,-679.5 123.62,-685.5 123.62,-685.5 123.62,-697.5 123.62,-697.5 123.62,-703.5 117.62,-709.5 111.62,-709.5 111.62,-709.5 36.38,-709.5 36.38,-709.5 30.38,-709.5 24.38,-703.5 24.38,-697.5 24.38,-697.5 24.38,-685.5 24.38,-685.5 24.38,-679.5 30.38,-673.5 36.38,-673.5"
         id="path17" />
      <text
         text-anchor="middle"
         x="74"
         y="-686.83"
         font-family="Times,serif"
         font-size="14.00"
         id="text17">NOEFFECT</text>
    </g>
    <!-- 1|15[]&#45;&gt;10|1NOEFFECT[] -->
    <g
       id="edge3"
       class="edge">
      <title
         id="title18">1|15[]-&gt;10|1NOEFFECT[]</title>
      <path
         fill="none"
         stroke="black"
         d="M80.82,-746.31C79.85,-738.64 78.68,-729.39 77.58,-720.74"
         id="path18" />
      <polygon
         fill="black"
         stroke="black"
         points="81.08,-720.51 76.35,-711.03 74.13,-721.39 81.08,-720.51"
         id="polygon18" />
    </g>
    <!-- 1|1CREATION[0] -->
    <g
       id="node3"
       class="node">
      <title
         id="title19">1|1CREATION[0]</title>
      <path
         fill="none"
         stroke="black"
         d="M150,-819.5C150,-819.5 220,-819.5 220,-819.5 226,-819.5 232,-825.5 232,-831.5 232,-831.5 232,-843.5 232,-843.5 232,-849.5 226,-855.5 220,-855.5 220,-855.5 150,-855.5 150,-855.5 144,-855.5 138,-849.5 138,-843.5 138,-843.5 138,-831.5 138,-831.5 138,-825.5 144,-819.5 150,-819.5"
         id="path19" />
      <text
         text-anchor="middle"
         x="185"
         y="-832.83"
         font-family="Times,serif"
         font-size="14.00"
         id="text19">CREATION</text>
    </g>
    <!-- 1|15[0] -->
    <g
       id="node4"
       class="node">
      <title
         id="title20">1|15[0]</title>
      <polygon
         fill="none"
         stroke="black"
         points="128,-746.5 128,-782.5 182,-782.5 182,-746.5 128,-746.5"
         id="polygon20" />
      <text
         text-anchor="middle"
         x="154.75"
         y="-759.83"
         font-family="Times,serif"
         font-size="14.00"
         id="text20">⟨0⟩</text>
    </g>
    <!-- 1|1CREATION[0]&#45;&gt;1|15[0] -->
    <g
       id="edge2"
       class="edge">
      <title
         id="title21">1|1CREATION[0]-&gt;1|15[0]</title>
      <path
         fill="none"
         stroke="black"
         d="M177.74,-819.31C174.38,-811.38 170.32,-801.76 166.56,-792.86"
         id="path21" />
      <polygon
         fill="black"
         stroke="black"
         points="169.9,-791.77 162.78,-783.92 163.45,-794.5 169.9,-791.77"
         id="polygon21" />
    </g>
    <!-- 10|1NOEFFECT[0] -->
    <g
       id="node7"
       class="node">
      <title
         id="title22">10|1NOEFFECT[0]</title>
      <path
         fill="none"
         stroke="black"
         d="M153.38,-673.5C153.38,-673.5 228.62,-673.5 228.62,-673.5 234.62,-673.5 240.62,-679.5 240.62,-685.5 240.62,-685.5 240.62,-697.5 240.62,-697.5 240.62,-703.5 234.62,-709.5 228.62,-709.5 228.62,-709.5 153.38,-709.5 153.38,-709.5 147.38,-709.5 141.38,-703.5 141.38,-697.5 141.38,-697.5 141.38,-685.5 141.38,-685.5 141.38,-679.5 147.38,-673.5 153.38,-673.5"
         id="path22" />
      <text
         text-anchor="middle"
         x="191"
         y="-686.83"
         font-family="Times,serif"
         font-size="14.00"
         id="text22">NOEFFECT</text>
    </g>
    <!-- 1|15[0]&#45;&gt;10|1NOEFFECT[0] -->
    <g
       id="edge4"
       class="edge">
      <title
         id="title23">1|15[0]-&gt;10|1NOEFFECT[0]</title>
      <path
         fill="none"
         stroke="black"
         d="M163.71,-746.31C167.78,-738.29 172.72,-728.55 177.27,-719.57"
         id="path23" />
      <polygon
         fill="black"
         stroke="black"
         points="180.28,-721.38 181.68,-710.88 174.04,-718.21 180.28,-721.38"
         id="polygon23" />
    </g>
    <!-- 1:1 -->
    <g
       id="node5"
       class="node">
      <title
         id="title24">1:1</title>
      <path
         fill="lightgrey"
         stroke="lightgrey"
         d="M262,-819.5C262,-819.5 292,-819.5 292,-819.5 298,-819.5 304,-825.5 304,-831.5 304,-831.5 304,-843.5 304,-843.5 304,-849.5 298,-855.5 292,-855.5 292,-855.5 262,-855.5 262,-855.5 256,-855.5 250,-849.5 250,-843.5 250,-843.5 250,-831.5 250,-831.5 250,-825.5 256,-819.5 262,-819.5"
         id="path24" />
      <text
         text-anchor="middle"
         x="276.75"
         y="-832.83"
         font-family="Times,serif"
         font-size="14.00"
         id="text24">1:1</text>
    </g>
    <!-- 10|15[] -->
    <g
       id="node9"
       class="node">
      <title
         id="title25">10|15[]</title>
      <polygon
         fill="none"
         stroke="black"
         points="61,-600.5 61,-636.5 115,-636.5 115,-600.5 61,-600.5"
         id="polygon25" />
      <text
         text-anchor="middle"
         x="87.75"
         y="-613.83"
         font-family="Times,serif"
         font-size="14.00"
         id="text25">⟨⟩</text>
    </g>
    <!-- 10|1NOEFFECT[]&#45;&gt;10|15[] -->
    <g
       id="edge5"
       class="edge">
      <title
         id="title26">10|1NOEFFECT[]-&gt;10|15[]</title>
      <path
         fill="none"
         stroke="black"
         d="M77.39,-673.31C78.9,-665.64 80.73,-656.39 82.43,-647.74"
         id="path26" />
      <polygon
         fill="black"
         stroke="black"
         points="85.85,-648.5 84.35,-638.01 78.98,-647.15 85.85,-648.5"
         id="polygon26" />
    </g>
    <!-- 10|15[0] -->
    <g
       id="node10"
       class="node">
      <title
         id="title27">10|15[0]</title>
      <polygon
         fill="none"
         stroke="black"
         points="133,-600.5 133,-636.5 187,-636.5 187,-600.5 133,-600.5"
         id="polygon27" />
      <text
         text-anchor="middle"
         x="159.75"
         y="-613.83"
         font-family="Times,serif"
         font-size="14.00"
         id="text27">⟨0⟩</text>
    </g>
    <!-- 10|1NOEFFECT[0]&#45;&gt;10|15[0] -->
    <g
       id="edge6"
       class="edge">
      <title
         id="title28">10|1NOEFFECT[0]-&gt;10|15[0]</title>
      <path
         fill="none"
         stroke="black"
         d="M183.5,-673.31C180.03,-665.38 175.83,-655.76 171.95,-646.86"
         id="path28" />
      <polygon
         fill="black"
         stroke="black"
         points="175.25,-645.68 168.04,-637.92 168.83,-648.48 175.25,-645.68"
         id="polygon28" />
    </g>
    <!-- 15 -->
    <g
       id="node8"
       class="node">
      <title
         id="title29">15</title>
      <polygon
         fill="lightblue"
         stroke="lightblue"
         points="200,-746.5 200,-782.5 254,-782.5 254,-746.5 200,-746.5"
         id="polygon29" />
      <text
         text-anchor="middle"
         x="227"
         y="-759.83"
         font-family="Times,serif"
         font-size="14.00"
         id="text29">5</text>
    </g>
    <!-- 2|1CREATION[] -->
    <g
       id="node12"
       class="node">
      <title
         id="title30">2|1CREATION[]</title>
      <path
         fill="none"
         stroke="black"
         d="M28,-527.5C28,-527.5 98,-527.5 98,-527.5 104,-527.5 110,-533.5 110,-539.5 110,-539.5 110,-551.5 110,-551.5 110,-557.5 104,-563.5 98,-563.5 98,-563.5 28,-563.5 28,-563.5 22,-563.5 16,-557.5 16,-551.5 16,-551.5 16,-539.5 16,-539.5 16,-533.5 22,-527.5 28,-527.5"
         id="path30" />
      <text
         text-anchor="middle"
         x="63"
         y="-540.83"
         font-family="Times,serif"
         font-size="14.00"
         id="text30">CREATION</text>
    </g>
    <!-- 10|15[]&#45;&gt;2|1CREATION[] -->
    <g
       id="edge7"
       class="edge">
      <title
         id="title31">10|15[]-&gt;2|1CREATION[]</title>
      <path
         fill="none"
         stroke="red"
         d="M81.95,-600.31C79.18,-592.46 75.84,-582.97 72.74,-574.16"
         id="path31" />
      <polygon
         fill="red"
         stroke="red"
         points="76.12,-573.23 69.5,-564.96 69.52,-575.55 76.12,-573.23"
         id="polygon31" />
    </g>
    <!-- 2|1CREATION[0] -->
    <g
       id="node13"
       class="node">
      <title
         id="title32">2|1CREATION[0]</title>
      <path
         fill="none"
         stroke="black"
         d="M140,-527.5C140,-527.5 210,-527.5 210,-527.5 216,-527.5 222,-533.5 222,-539.5 222,-539.5 222,-551.5 222,-551.5 222,-557.5 216,-563.5 210,-563.5 210,-563.5 140,-563.5 140,-563.5 134,-563.5 128,-557.5 128,-551.5 128,-551.5 128,-539.5 128,-539.5 128,-533.5 134,-527.5 140,-527.5"
         id="path32" />
      <text
         text-anchor="middle"
         x="175"
         y="-540.83"
         font-family="Times,serif"
         font-size="14.00"
         id="text32">CREATION</text>
    </g>
    <!-- 10|15[0]&#45;&gt;2|1CREATION[0] -->
    <g
       id="edge8"
       class="edge">
      <title
         id="title33">10|15[0]-&gt;2|1CREATION[0]</title>
      <path
         fill="none"
         stroke="red"
         d="M163.63,-600.31C165.25,-592.64 167.21,-583.39 169.03,-574.74"
         id="path33" />
      <polygon
         fill="red"
         stroke="red"
         points="172.45,-575.52 171.09,-565.01 165.6,-574.07 172.45,-575.52"
         id="polygon33" />
    </g>
    <!-- 10:1 -->
    <g
       id="node11"
       class="node">
      <title
         id="title34">10:1</title>
      <path
         fill="lightgrey"
         stroke="lightgrey"
         d="M271,-673.5C271,-673.5 301,-673.5 301,-673.5 307,-673.5 313,-679.5 313,-685.5 313,-685.5 313,-697.5 313,-697.5 313,-703.5 307,-709.5 301,-709.5 301,-709.5 271,-709.5 271,-709.5 265,-709.5 259,-703.5 259,-697.5 259,-697.5 259,-685.5 259,-685.5 259,-679.5 265,-673.5 271,-673.5"
         id="path34" />
      <text
         text-anchor="middle"
         x="285.75"
         y="-686.83"
         font-family="Times,serif"
         font-size="14.00"
         id="text34">10:1</text>
    </g>
    <!-- 2|159[] -->
    <g
       id="node15"
       class="node">
      <title
         id="title35">2|159[]</title>
      <polygon
         fill="none"
         stroke="black"
         points="56,-454.5 56,-490.5 110,-490.5 110,-454.5 56,-454.5"
         id="polygon35" />
      <text
         text-anchor="middle"
         x="82.75"
         y="-467.82"
         font-family="Times,serif"
         font-size="14.00"
         id="text35">⟨⟩</text>
    </g>
    <!-- 2|1CREATION[]&#45;&gt;2|159[] -->
    <g
       id="edge9"
       class="edge">
      <title
         id="title36">2|1CREATION[]-&gt;2|159[]</title>
      <path
         fill="none"
         stroke="black"
         d="M67.84,-527.31C70.03,-519.55 72.67,-510.18 75.13,-501.45"
         id="path36" />
      <polygon
         fill="black"
         stroke="black"
         points="78.45,-502.56 77.79,-491.99 71.71,-500.66 78.45,-502.56"
         id="polygon36" />
    </g>
    <!-- 2|159[0] -->
    <g
       id="node16"
       class="node">
      <title
         id="title37">2|159[0]</title>
      <polygon
         fill="none"
         stroke="black"
         points="128,-454.5 128,-490.5 182,-490.5 182,-454.5 128,-454.5"
         id="polygon37" />
      <text
         text-anchor="middle"
         x="154.75"
         y="-467.82"
         font-family="Times,serif"
         font-size="14.00"
         id="text37">⟨0⟩</text>
    </g>
    <!-- 2|1CREATION[0]&#45;&gt;2|159[0] -->
    <g
       id="edge10"
       class="edge">
      <title
         id="title38">2|1CREATION[0]-&gt;2|159[0]</title>
      <path
         fill="none"
         stroke="black"
         d="M170.16,-527.31C167.97,-519.55 165.33,-510.18 162.87,-501.45"
         id="path38" />
      <polygon
         fill="black"
         stroke="black"
         points="166.29,-500.66 160.21,-491.99 159.55,-502.56 166.29,-500.66"
         id="polygon38" />
    </g>
    <!-- 105 -->
    <g
       id="node14"
       class="node">
      <title
         id="title39">105</title>
      <polygon
         fill="lightblue"
         stroke="lightblue"
         points="205,-600.5 205,-636.5 259,-636.5 259,-600.5 205,-600.5"
         id="polygon39" />
      <text
         text-anchor="middle"
         x="232"
         y="-613.83"
         font-family="Times,serif"
         font-size="14.00"
         id="text39">5</text>
    </g>
    <!-- 4|1CREATION[0, 1] -->
    <g
       id="node18"
       class="node">
      <title
         id="title40">4|1CREATION[0, 1]</title>
      <path
         fill="none"
         stroke="black"
         d="M120,-381.5C120,-381.5 190,-381.5 190,-381.5 196,-381.5 202,-387.5 202,-393.5 202,-393.5 202,-405.5 202,-405.5 202,-411.5 196,-417.5 190,-417.5 190,-417.5 120,-417.5 120,-417.5 114,-417.5 108,-411.5 108,-405.5 108,-405.5 108,-393.5 108,-393.5 108,-387.5 114,-381.5 120,-381.5"
         id="path40" />
      <text
         text-anchor="middle"
         x="155"
         y="-394.82"
         font-family="Times,serif"
         font-size="14.00"
         id="text40">CREATION</text>
    </g>
    <!-- 2|159[0]&#45;&gt;4|1CREATION[0, 1] -->
    <g
       id="edge11"
       class="edge">
      <title
         id="title41">2|159[0]-&gt;4|1CREATION[0, 1]</title>
      <path
         fill="none"
         stroke="red"
         d="M155,-454.31C155,-446.73 155,-437.6 155,-429.04"
         id="path41" />
      <polygon
         fill="red"
         stroke="red"
         points="158.5,-429.04 155,-419.04 151.5,-429.04 158.5,-429.04"
         id="polygon41" />
    </g>
    <!-- 2:1 -->
    <g
       id="node17"
       class="node">
      <title
         id="title42">2:1</title>
      <path
         fill="lightgrey"
         stroke="lightgrey"
         d="M252,-527.5C252,-527.5 282,-527.5 282,-527.5 288,-527.5 294,-533.5 294,-539.5 294,-539.5 294,-551.5 294,-551.5 294,-557.5 288,-563.5 282,-563.5 282,-563.5 252,-563.5 252,-563.5 246,-563.5 240,-557.5 240,-551.5 240,-551.5 240,-539.5 240,-539.5 240,-533.5 246,-527.5 252,-527.5"
         id="path42" />
      <text
         text-anchor="middle"
         x="266.75"
         y="-540.83"
         font-family="Times,serif"
         font-size="14.00"
         id="text42">2:1</text>
    </g>
    <!-- 4|163[0, 1] -->
    <g
       id="node20"
       class="node">
      <title
         id="title43">4|163[0, 1]</title>
      <polygon
         fill="none"
         stroke="black"
         points="128,-308.5 128,-344.5 182,-344.5 182,-308.5 128,-308.5"
         id="polygon43" />
      <text
         text-anchor="middle"
         x="154.75"
         y="-321.82"
         font-family="Times,serif"
         font-size="14.00"
         id="text43">⟨0, 1⟩</text>
    </g>
    <!-- 4|1CREATION[0, 1]&#45;&gt;4|163[0, 1] -->
    <g
       id="edge12"
       class="edge">
      <title
         id="title44">4|1CREATION[0, 1]-&gt;4|163[0, 1]</title>
      <path
         fill="none"
         stroke="black"
         d="M155,-381.31C155,-373.73 155,-364.6 155,-356.04"
         id="path44" />
      <polygon
         fill="black"
         stroke="black"
         points="158.5,-356.04 155,-346.04 151.5,-356.04 158.5,-356.04"
         id="polygon44" />
    </g>
    <!-- 259 -->
    <g
       id="node19"
       class="node">
      <title
         id="title45">259</title>
      <polygon
         fill="lightblue"
         stroke="lightblue"
         points="200,-454.5 200,-490.5 254,-490.5 254,-454.5 200,-454.5"
         id="polygon45" />
      <text
         text-anchor="middle"
         x="227"
         y="-467.82"
         font-family="Times,serif"
         font-size="14.00"
         id="text45">59</text>
    </g>
    <!-- 6|1MODIFICATION[0, 1] -->
    <g
       id="node22"
       class="node">
      <title
         id="title46">6|1MODIFICATION[0, 1]</title>
      <path
         fill="none"
         stroke="black"
         d="M102,-235.5C102,-235.5 208,-235.5 208,-235.5 214,-235.5 220,-241.5 220,-247.5 220,-247.5 220,-259.5 220,-259.5 220,-265.5 214,-271.5 208,-271.5 208,-271.5 102,-271.5 102,-271.5 96,-271.5 90,-265.5 90,-259.5 90,-259.5 90,-247.5 90,-247.5 90,-241.5 96,-235.5 102,-235.5"
         id="path46" />
      <text
         text-anchor="middle"
         x="155"
         y="-248.82"
         font-family="Times,serif"
         font-size="14.00"
         id="text46">MODIFICATION</text>
    </g>
    <!-- 4|163[0, 1]&#45;&gt;6|1MODIFICATION[0, 1] -->
    <g
       id="edge13"
       class="edge">
      <title
         id="title47">4|163[0, 1]-&gt;6|1MODIFICATION[0, 1]</title>
      <path
         fill="none"
         stroke="black"
         d="M155,-308.31C155,-300.73 155,-291.6 155,-283.04"
         id="path47" />
      <polygon
         fill="black"
         stroke="black"
         points="158.5,-283.04 155,-273.04 151.5,-283.04 158.5,-283.04"
         id="polygon47" />
    </g>
    <!-- 4:1 -->
    <g
       id="node21"
       class="node">
      <title
         id="title48">4:1</title>
      <path
         fill="lightgrey"
         stroke="lightgrey"
         d="M232,-381.5C232,-381.5 262,-381.5 262,-381.5 268,-381.5 274,-387.5 274,-393.5 274,-393.5 274,-405.5 274,-405.5 274,-411.5 268,-417.5 262,-417.5 262,-417.5 232,-417.5 232,-417.5 226,-417.5 220,-411.5 220,-405.5 220,-405.5 220,-393.5 220,-393.5 220,-387.5 226,-381.5 232,-381.5"
         id="path48" />
      <text
         text-anchor="middle"
         x="246.75"
         y="-394.82"
         font-family="Times,serif"
         font-size="14.00"
         id="text48">4:1</text>
    </g>
    <!-- 6|163[0, 1] -->
    <g
       id="node24"
       class="node">
      <title
         id="title49">6|163[0, 1]</title>
      <polygon
         fill="none"
         stroke="black"
         points="128,-162.5 128,-198.5 182,-198.5 182,-162.5 128,-162.5"
         id="polygon49" />
      <text
         text-anchor="middle"
         x="154.75"
         y="-175.82"
         font-family="Times,serif"
         font-size="14.00"
         id="text49">⟨0, 1⟩</text>
    </g>
    <!-- 6|1MODIFICATION[0, 1]&#45;&gt;6|163[0, 1] -->
    <g
       id="edge14"
       class="edge">
      <title
         id="title50">6|1MODIFICATION[0, 1]-&gt;6|163[0, 1]</title>
      <path
         fill="none"
         stroke="black"
         d="M155,-235.31C155,-227.73 155,-218.6 155,-210.04"
         id="path50" />
      <polygon
         fill="black"
         stroke="black"
         points="158.5,-210.04 155,-200.04 151.5,-210.04 158.5,-210.04"
         id="polygon50" />
    </g>
    <!-- 463 -->
    <g
       id="node23"
       class="node">
      <title
         id="title51">463</title>
      <polygon
         fill="lightblue"
         stroke="lightblue"
         points="200,-308.5 200,-344.5 254,-344.5 254,-308.5 200,-308.5"
         id="polygon51" />
      <text
         text-anchor="middle"
         x="227"
         y="-321.82"
         font-family="Times,serif"
         font-size="14.00"
         id="text51">63</text>
    </g>
    <!-- 7|1MODIFICATION[0, 1] -->
    <g
       id="node26"
       class="node">
      <title
         id="title52">7|1MODIFICATION[0, 1]</title>
      <path
         fill="none"
         stroke="black"
         d="M102,-89.5C102,-89.5 208,-89.5 208,-89.5 214,-89.5 220,-95.5 220,-101.5 220,-101.5 220,-113.5 220,-113.5 220,-119.5 214,-125.5 208,-125.5 208,-125.5 102,-125.5 102,-125.5 96,-125.5 90,-119.5 90,-113.5 90,-113.5 90,-101.5 90,-101.5 90,-95.5 96,-89.5 102,-89.5"
         id="path52" />
      <text
         text-anchor="middle"
         x="155"
         y="-102.83"
         font-family="Times,serif"
         font-size="14.00"
         id="text52">MODIFICATION</text>
    </g>
    <!-- 6|163[0, 1]&#45;&gt;7|1MODIFICATION[0, 1] -->
    <g
       id="edge15"
       class="edge">
      <title
         id="title53">6|163[0, 1]-&gt;7|1MODIFICATION[0, 1]</title>
      <path
         fill="none"
         stroke="black"
         d="M155,-162.31C155,-154.73 155,-145.6 155,-137.04"
         id="path53" />
      <polygon
         fill="black"
         stroke="black"
         points="158.5,-137.04 155,-127.04 151.5,-137.04 158.5,-137.04"
         id="polygon53" />
    </g>
    <!-- 6:1 -->
    <g
       id="node25"
       class="node">
      <title
         id="title54">6:1</title>
      <path
         fill="lightgrey"
         stroke="lightgrey"
         d="M250,-235.5C250,-235.5 280,-235.5 280,-235.5 286,-235.5 292,-241.5 292,-247.5 292,-247.5 292,-259.5 292,-259.5 292,-265.5 286,-271.5 280,-271.5 280,-271.5 250,-271.5 250,-271.5 244,-271.5 238,-265.5 238,-259.5 238,-259.5 238,-247.5 238,-247.5 238,-241.5 244,-235.5 250,-235.5"
         id="path54" />
      <text
         text-anchor="middle"
         x="264.75"
         y="-248.82"
         font-family="Times,serif"
         font-size="14.00"
         id="text54">6:1</text>
    </g>
    <!-- 7|176[0, 1] -->
    <g
       id="node28"
       class="node">
      <title
         id="title55">7|176[0, 1]</title>
      <polygon
         fill="none"
         stroke="black"
         points="128,-16.5 128,-52.5 182,-52.5 182,-16.5 128,-16.5"
         id="polygon55" />
      <text
         text-anchor="middle"
         x="154.75"
         y="-29.82"
         font-family="Times,serif"
         font-size="14.00"
         id="text55">⟨0, 1⟩</text>
    </g>
    <!-- 7|1MODIFICATION[0, 1]&#45;&gt;7|176[0, 1] -->
    <g
       id="edge16"
       class="edge">
      <title
         id="title56">7|1MODIFICATION[0, 1]-&gt;7|176[0, 1]</title>
      <path
         fill="none"
         stroke="black"
         d="M155,-89.31C155,-81.73 155,-72.6 155,-64.04"
         id="path56" />
      <polygon
         fill="black"
         stroke="black"
         points="158.5,-64.04 155,-54.04 151.5,-64.04 158.5,-64.04"
         id="polygon56" />
    </g>
    <!-- 663 -->
    <g
       id="node27"
       class="node">
      <title
         id="title57">663</title>
      <polygon
         fill="lightblue"
         stroke="lightblue"
         points="200,-162.5 200,-198.5 254,-198.5 254,-162.5 200,-162.5"
         id="polygon57" />
      <text
         text-anchor="middle"
         x="227"
         y="-175.82"
         font-family="Times,serif"
         font-size="14.00"
         id="text57">63</text>
    </g>
    <!-- 7:1 -->
    <g
       id="node29"
       class="node">
      <title
         id="title58">7:1</title>
      <path
         fill="lightgrey"
         stroke="lightgrey"
         d="M250,-89.5C250,-89.5 280,-89.5 280,-89.5 286,-89.5 292,-95.5 292,-101.5 292,-101.5 292,-113.5 292,-113.5 292,-119.5 286,-125.5 280,-125.5 280,-125.5 250,-125.5 250,-125.5 244,-125.5 238,-119.5 238,-113.5 238,-113.5 238,-101.5 238,-101.5 238,-95.5 244,-89.5 250,-89.5"
         id="path58" />
      <text
         text-anchor="middle"
         x="264.75"
         y="-102.83"
         font-family="Times,serif"
         font-size="14.00"
         id="text58">7:1</text>
    </g>
    <!-- 776 -->
    <g
       id="node30"
       class="node">
      <title
         id="title59">776</title>
      <polygon
         fill="lightblue"
         stroke="lightblue"
         points="200,-16.5 200,-52.5 254,-52.5 254,-16.5 200,-16.5"
         id="polygon59" />
      <text
         text-anchor="middle"
         x="227"
         y="-29.82"
         font-family="Times,serif"
         font-size="14.00"
         id="text59">76</text>
    </g>
  </g>
</svg>
