<?xml version="1.0" encoding="UTF-8" standalone="no"?>
<!-- Created with Jerboa -->

<svg
   width="365.17505"
   height="567.82745"
   version="1.1"
   id="svg10992"
   sodipodi:docname="cs1-path-to-collapse-origin.svg"
   inkscape:version="1.4 (e7c3feb100, 2024-10-09)"
   xmlns:inkscape="http://www.inkscape.org/namespaces/inkscape"
   xmlns:sodipodi="http://sodipodi.sourceforge.net/DTD/sodipodi-0.dtd"
   xmlns="http://www.w3.org/2000/svg"
   xmlns:svg="http://www.w3.org/2000/svg">
  <defs
     id="defs10996" />
  <sodipodi:namedview
     id="namedview10994"
     pagecolor="#ffffff"
     bordercolor="#000000"
     borderopacity="0.25"
     inkscape:showpageshadow="2"
     inkscape:pageopacity="0.0"
     inkscape:pagecheckerboard="0"
     inkscape:deskcolor="#d1d1d1"
     showgrid="false"
     inkscape:zoom="1.059429"
     inkscape:cx="409.65465"
     inkscape:cy="76.456283"
     inkscape:window-width="1890"
     inkscape:window-height="1033"
     inkscape:window-x="1930"
     inkscape:window-y="27"
     inkscape:window-maximized="1"
     inkscape:current-layer="svg10992" />
  <style
     id="style">
		.arc0 {
			fill:none;
			fill-rule:evenodd;
			stroke:black;
			stroke-width:4;
			stroke-linecap:round;
			stroke-linejoin:round;
			stroke-opacity:1;
		}
		.arc1 {
			fill:none;
			fill-rule:evenodd;
			stroke:red;
			stroke-width:4;
			stroke-linecap:round;
			stroke-linejoin:round;
			stroke-opacity:1;
		}
		.arc2 {
			fill:none;
			fill-rule:evenodd;
			stroke:blue;
			stroke-width:4;
			stroke-linecap:round;
			stroke-linejoin:round;
			stroke-opacity:1;
		}
		.arc3 {
			fill:none;
			fill-rule:evenodd;
			stroke:green;
			stroke-width:4;
			stroke-linecap:round;
			stroke-linejoin:round;
			stroke-opacity:1;
		}
		.topological-dart {
			fill:#000000;
			stroke:#000000;
			stroke-width:0;
			stroke-linecap:round;
			stroke-linejoin:round;
			stroke-dasharray:none;
			paint-order:markers fill stroke;
		}
	</style>
  <polygon
     points="649.5171,340.10553 778.34076,346.9595 806.5789,382.09982 804.28674,532.7048 776.04846,564.64856 649.5171,557.48694 621.2789,522.3466 621.2789,372.04932 "
     id="face_20_21_16_15_14_13_18_19"
     style="fill:#c0c0c0;stroke:none"
     opacity="1"
     transform="translate(-463.32208,-41.266236)" />
  <line
     class="arc1"
     id="link19_@1_18"
     x1="157.95679"
     y1="481.08038"
     x2="186.19501"
     y2="516.2207" />
  <line
     class="arc2"
     id="link19_@2_24"
     x1="157.95679"
     y1="481.08038"
     x2="128.84662"
     y2="481.61963" />
  <line
     class="arc0"
     id="link19_@0_20"
     x1="157.95679"
     y1="481.08038"
     x2="157.95679"
     y2="330.78308" />
  <polygon
     points="573.8306,341.50766 491.66016,352.5356 469.79227,392.5317 469.79227,534.44354 491.66016,569.917 573.8306,558.88904 592.1687,522.88586 592.1687,372.58856 "
     id="face_25_26_31_30_29_28_23_24"
     style="fill:#c0c0c0;stroke:none"
     opacity="1"
     transform="translate(-463.32208,-41.266236)" />
  <line
     class="arc1"
     id="link24_@1_23"
     x1="128.84662"
     y1="481.61963"
     x2="110.50854"
     y2="517.6228" />
  <line
     class="arc0"
     id="link24_@0_25"
     x1="128.84662"
     y1="481.61963"
     x2="128.84662"
     y2="331.32233" />
  <line
     class="arc1"
     id="link20_@1_21"
     x1="157.95679"
     y1="330.78308"
     x2="186.19501"
     y2="298.83929" />
  <line
     class="arc2"
     id="link20_@2_25"
     x1="157.95679"
     y1="330.78308"
     x2="128.84662"
     y2="331.32233" />
  <line
     class="arc2"
     id="link18_@2_0"
     x1="186.19501"
     y1="516.2207"
     x2="174.73364"
     y2="538.72266" />
  <line
     class="arc0"
     id="link18_@0_13"
     x1="186.19501"
     y1="516.2207"
     x2="312.72638"
     y2="523.38232" />
  <line
     class="arc1"
     id="link25_@1_26"
     x1="128.84662"
     y1="331.32233"
     x2="110.50854"
     y2="300.24142" />
  <polygon
     points="649.5171,64.02551 778.34076,70.879456 806.5789,106.01977 806.5789,256.31714 778.34076,288.261 649.5171,281.40698 621.2789,246.26657 621.2789,95.96924 "
     id="face_85_86_92_91_90_89_83_84"
     style="fill:#c0c0c0;stroke:none"
     opacity="1"
     transform="translate(-463.32208,-41.266236)" />
  <line
     class="arc1"
     id="link84_@1_83"
     x1="157.95679"
     y1="205.00034"
     x2="186.19501"
     y2="240.14075" />
  <line
     class="arc2"
     id="link84_@2_78"
     x1="157.95679"
     y1="205.00034"
     x2="128.84662"
     y2="205.53967" />
  <line
     class="arc0"
     id="link84_@0_85"
     x1="157.95679"
     y1="205.00034"
     x2="157.95679"
     y2="54.703003" />
  <polygon
     points="573.8306,65.42767 491.66016,76.45557 473.32208,112.45874 473.32208,262.75607 491.66016,293.83704 573.8306,282.8091 592.1687,246.80591 592.1687,96.508545 "
     id="face_79_80_74_73_72_71_77_78"
     style="fill:#c0c0c0;stroke:none"
     opacity="1"
     transform="translate(-463.32208,-41.266236)" />
  <line
     class="arc1"
     id="link78_@1_77"
     x1="128.84662"
     y1="205.53967"
     x2="110.50854"
     y2="241.54288" />
  <line
     class="arc0"
     id="link78_@0_79"
     x1="128.84662"
     y1="205.53967"
     x2="128.84662"
     y2="55.24231" />
  <polygon
     points="774.4873,591.20996 692.3168,602.23785 642.2108,607.0937 522.7389,600.33167 509.30902,591.8797 591.4795,580.85175 638.0557,579.9889 764.5872,587.1505 "
     id="face_7_6_5_4_3_2_1_0"
     style="fill:#c0c0c0;stroke:none"
     opacity="1"
     transform="translate(-463.32208,-41.266236)" />
  <line
     class="arc1"
     id="link0_@1_1"
     x1="174.73364"
     y1="538.72266"
     x2="128.15741"
     y2="539.58551" />
  <line
     class="arc0"
     id="link0_@0_7"
     x1="174.73364"
     y1="538.72266"
     x2="301.26514"
     y2="545.88428" />
  <line
     class="arc2"
     id="link23_@2_1"
     x1="110.50854"
     y1="517.6228"
     x2="128.15741"
     y2="539.58551" />
  <line
     class="arc0"
     id="link23_@0_28"
     x1="110.50854"
     y1="517.6228"
     x2="28.338072"
     y2="528.65076" />
  <line
     class="arc2"
     id="link21_@2_22"
     x1="186.19501"
     y1="298.83929"
     x2="176.85156"
     y2="279.5336" />
  <line
     class="arc0"
     id="link21_@0_16"
     x1="186.19501"
     y1="298.83929"
     x2="315.01868"
     y2="305.69327" />
  <line
     class="arc1"
     id="link85_@1_86"
     x1="157.95679"
     y1="54.703003"
     x2="186.19501"
     y2="22.759277" />
  <line
     class="arc2"
     id="link85_@2_79"
     x1="157.95679"
     y1="54.703003"
     x2="128.84662"
     y2="55.24231" />
  <line
     class="arc2"
     id="link83_@2_82"
     x1="186.19501"
     y1="240.14075"
     x2="176.85156"
     y2="262.7626" />
  <line
     class="arc0"
     id="link83_@0_89"
     x1="186.19501"
     y1="240.14075"
     x2="315.01868"
     y2="246.99475" />
  <line
     class="arc0"
     id="link1_@0_2"
     x1="128.15741"
     y1="539.58551"
     x2="45.986938"
     y2="550.61346" />
  <line
     class="arc1"
     id="link79_@1_80"
     x1="128.84662"
     y1="55.24231"
     x2="110.50854"
     y2="24.161438" />
  <line
     class="arc2"
     id="link26_@2_27"
     x1="110.50854"
     y1="300.24142"
     x2="130.27527"
     y2="280.39645" />
  <line
     class="arc0"
     id="link26_@0_31"
     x1="110.50854"
     y1="300.24142"
     x2="28.338072"
     y2="311.26938" />
  <polygon
     points="640.17365,320.79984 771.28955,327.3462 790.35876,330.17502 756.5158,329.02557 742.7622,330.8714 680.68115,344.89462 639.74414,340.13437 524.8568,332.75705 511.4269,332.69064 593.59735,321.6627 "
     id="face_17_12_50_49_47_42_37_32_27_22"
     style="fill:#c0c0c0;stroke:none"
     opacity="1"
     transform="translate(-463.32208,-41.266236)" />
  <line
     class="arc1"
     id="link22_@1_27"
     x1="176.85156"
     y1="279.5336"
     x2="130.27527"
     y2="280.39645" />
  <line
     class="arc3"
     id="link22_@3_82"
     x1="176.85156"
     y1="279.5336"
     x2="176.85156"
     y2="262.7626" />
  <line
     class="arc0"
     id="link22_@0_17"
     x1="176.85156"
     y1="279.5336"
     x2="307.96747"
     y2="286.07996" />
  <line
     class="arc2"
     id="link77_@2_76"
     x1="110.50854"
     y1="241.54288"
     x2="130.27527"
     y2="263.62543" />
  <line
     class="arc0"
     id="link77_@0_71"
     x1="110.50854"
     y1="241.54288"
     x2="28.338072"
     y2="252.5708" />
  <line
     class="arc1"
     id="link82_@1_76"
     x1="176.85156"
     y1="262.7626"
     x2="130.27527"
     y2="263.62543" />
  <line
     class="arc0"
     id="link82_@0_88"
     x1="176.85156"
     y1="262.7626"
     x2="307.96747"
     y2="269.30893" />
  <line
     class="arc2"
     id="link86_@2_87"
     x1="186.19501"
     y1="22.759277"
     x2="176.85156"
     y2="3.453613" />
  <line
     class="arc0"
     id="link86_@0_92"
     x1="186.19501"
     y1="22.759277"
     x2="315.01868"
     y2="29.61322" />
  <line
     class="arc3"
     id="link27_@3_76"
     x1="130.27527"
     y1="280.39645"
     x2="130.27527"
     y2="263.62543" />
  <line
     class="arc0"
     id="link27_@0_32"
     x1="130.27527"
     y1="280.39645"
     x2="48.104828"
     y2="291.42441" />
  <line
     class="arc0"
     id="link76_@0_70"
     x1="130.27527"
     y1="263.62543"
     x2="48.104828"
     y2="274.65338" />
  <line
     class="arc2"
     id="link80_@2_81"
     x1="110.50854"
     y1="24.161438"
     x2="130.27527"
     y2="4.3165283" />
  <line
     class="arc0"
     id="link80_@0_74"
     x1="110.50854"
     y1="24.161438"
     x2="28.338072"
     y2="35.189331" />
  <line
     class="arc2"
     id="link92_@2_93"
     x1="315.01868"
     y1="29.61322"
     x2="307.96747"
     y2="10" />
  <path
     style="fill:none;stroke:#f58137;stroke-width:20;stroke-linecap:round;stroke-linejoin:round;stroke-dasharray:none;stroke-opacity:1"
     d="m 110.50854,24.161438 18.33808,31.080871"
     id="path6" />
  <path
     style="fill:none;stroke:#f58137;stroke-width:20;stroke-linecap:round;stroke-linejoin:round;stroke-dasharray:none;stroke-opacity:1"
     d="M 157.95679,54.703003 186.19501,22.759277"
     id="path7" />
  <polygon
     points="640.17365,44.71985 771.28955,51.266235 790.35876,54.095093 758.8081,61.023438 740.4699,63.48456 680.68115,68.81464 643.27386,68.44696 521.327,60.670105 511.4269,56.610657 593.59735,45.582764 "
     id="face_93_99_105_111_57_63_69_75_81_87"
     style="opacity:1;fill:#c0c0c0;stroke:none"
     opacity="1"
     transform="translate(-463.32208,-41.266236)" />
  <line
     class="arc1"
     id="link87_@1_81"
     x1="176.85156"
     y1="3.453613"
     x2="130.27527"
     y2="4.3165283" />
  <line
     class="arc0"
     id="link87_@0_93"
     x1="176.85156"
     y1="3.453613"
     x2="307.96747"
     y2="10" />
  <line
     class="arc0"
     id="link81_@0_75"
     x1="130.27527"
     y1="4.3165283"
     x2="48.104828"
     y2="15.344422" />
  <line
     class="arc1"
     id="link13_@1_14"
     x1="312.72638"
     y1="523.38232"
     x2="340.96466"
     y2="491.43854" />
  <line
     class="arc2"
     id="link13_@2_7"
     x1="312.72638"
     y1="523.38232"
     x2="301.26514"
     y2="545.88428" />
  <line
     class="arc1"
     id="link16_@1_15"
     x1="315.01868"
     y1="305.69327"
     x2="343.25684"
     y2="340.83359" />
  <line
     class="arc2"
     id="link16_@2_17"
     x1="315.01868"
     y1="305.69327"
     x2="307.96747"
     y2="286.07996" />
  <line
     class="arc1"
     id="link7_@1_6"
     x1="301.26514"
     y1="545.88428"
     x2="311.16522"
     y2="549.94373" />
  <line
     class="arc1"
     id="link89_@1_90"
     x1="315.01868"
     y1="246.99475"
     x2="343.25684"
     y2="215.0509" />
  <line
     class="arc2"
     id="link89_@2_88"
     x1="315.01868"
     y1="246.99475"
     x2="307.96747"
     y2="269.30893" />
  <line
     class="arc2"
     id="link14_@2_9"
     x1="340.96466"
     y1="491.43854"
     x2="347.1521"
     y2="491.45996" />
  <line
     class="arc0"
     id="link14_@0_15"
     x1="340.96466"
     y1="491.43854"
     x2="343.25684"
     y2="340.83359" />
  <line
     class="arc2"
     id="link15_@2_10"
     x1="343.25684"
     y1="340.83359"
     x2="351.73663"
     y2="340.54742" />
  <line
     class="arc1"
     id="link17_@1_12"
     x1="307.96747"
     y1="286.07996"
     x2="327.03668"
     y2="288.90878" />
  <line
     class="arc3"
     id="link17_@3_88"
     x1="307.96747"
     y1="286.07996"
     x2="307.96747"
     y2="269.30893" />
  <line
     class="arc1"
     id="link88_@1_94"
     x1="307.96747"
     y1="269.30893"
     x2="327.03668"
     y2="272.13776" />
  <polygon
     points="640.17365,304.02884 771.28955,310.57516 790.35876,313.404 758.8081,320.33237 740.4699,322.7935 680.68115,328.12363 643.27386,327.75592 521.327,319.979 511.4269,315.91962 593.59735,304.89166 "
     id="face_88_94_100_106_52_58_64_70_76_82"
     style="fill:#c0c0c0;stroke:none"
     opacity="1"
     transform="translate(-463.32208,-41.266236)" />
  <line
     class="arc1"
     id="link92_@1_91"
     x1="315.01868"
     y1="29.61322"
     x2="343.25684"
     y2="64.753548" />
  <line
     class="arc2"
     id="link90_@2_96"
     x1="343.25684"
     y1="215.0509"
     x2="355.17505"
     y2="216.81888" />
  <line
     class="arc0"
     id="link90_@0_91"
     x1="343.25684"
     y1="215.0509"
     x2="343.25684"
     y2="64.753548" />
  <polygon
     points="810.4742,532.7262 815.0587,381.81366 805.8897,349.50214 764.98724,339.5676 751.2336,341.41345 696.21216,364.22174 690.5729,403.3869 695.15735,544.6835 709.9657,579.7573 792.1361,568.7294 "
     id="face_10_11_51_48_46_45_44_43_8_9"
     style="fill:#c0c0c0;stroke:none"
     opacity="1"
     transform="translate(-463.32208,-41.266236)" />
  <line
     class="arc1"
     id="link9_@1_8"
     x1="347.1521"
     y1="491.45996"
     x2="328.81403"
     y2="527.46313" />
  <line
     class="arc0"
     id="link9_@0_10"
     x1="347.1521"
     y1="491.45996"
     x2="351.73663"
     y2="340.54742" />
  <line
     class="arc2"
     id="link91_@2_97"
     x1="343.25684"
     y1="64.753548"
     x2="355.17505"
     y2="66.521545" />
  <line
     class="arc1"
     id="link10_@1_11"
     x1="351.73663"
     y1="340.54742"
     x2="342.56763"
     y2="308.2359" />
  <line
     class="arc1"
     id="link93_@1_99"
     x1="307.96747"
     y1="10"
     x2="327.03668"
     y2="12.828858" />
  <line
     class="arc1"
     id="link28_@1_29"
     x1="28.338072"
     y1="528.65076"
     x2="6.4701834"
     y2="493.17731" />
  <line
     class="arc2"
     id="link28_@2_2"
     x1="28.338072"
     y1="528.65076"
     x2="45.986938"
     y2="550.61346" />
  <line
     class="arc2"
     id="link6_@2_8"
     x1="311.16522"
     y1="549.94373"
     x2="328.81403"
     y2="527.46313" />
  <line
     class="arc0"
     id="link6_@0_5"
     x1="311.16522"
     y1="549.94373"
     x2="228.99469"
     y2="560.97162" />
  <path
     style="fill:none;stroke:#f58137;stroke-width:20;stroke-linecap:round;stroke-linejoin:round;stroke-dasharray:none;stroke-opacity:1"
     d="m 307.96747,10 7.05121,19.61322 28.23814,35.140314"
     id="path8" />
  <polygon
     points="809.3281,75.47638 773.0101,81.69751 763.84106,116.47009 763.84106,266.76746 773.0101,299.079 809.3281,292.85782 818.49713,258.0851 818.49713,107.78778 "
     id="face_97_98_104_103_102_101_95_96"
     style="opacity:1;fill:#c0c0c0;stroke:none"
     opacity="1"
     transform="translate(-463.32208,-41.266236)" />
  <line
     class="arc1"
     id="link96_@1_95"
     x1="355.17505"
     y1="216.81888"
     x2="346.00604"
     y2="251.59158" />
  <line
     class="arc2"
     id="link12_@2_11"
     x1="327.03668"
     y1="288.90878"
     x2="342.56763"
     y2="308.2359" />
  <line
     class="arc3"
     id="link12_@3_94"
     x1="327.03668"
     y1="288.90878"
     x2="327.03668"
     y2="272.13776" />
  <line
     class="arc0"
     id="link12_@0_50"
     x1="327.03668"
     y1="288.90878"
     x2="293.19373"
     y2="287.75934" />
  <line
     class="arc2"
     id="link94_@2_95"
     x1="327.03668"
     y1="272.13776"
     x2="346.00604"
     y2="251.59158" />
  <line
     class="arc0"
     id="link94_@0_100"
     x1="327.03668"
     y1="272.13776"
     x2="295.48602"
     y2="279.06613" />
  <line
     class="arc1"
     id="link2_@1_3"
     x1="45.986938"
     y1="550.61346"
     x2="59.416809"
     y2="559.06543" />
  <line
     class="arc0"
     id="link11_@0_51"
     x1="342.56763"
     y1="308.2359"
     x2="301.66516"
     y2="298.30136" />
  <line
     class="arc0"
     id="link95_@0_101"
     x1="346.00604"
     y1="251.59158"
     x2="309.68799"
     y2="257.81277" />
  <line
     class="arc0"
     id="link8_@0_43"
     x1="328.81403"
     y1="527.46313"
     x2="246.64362"
     y2="538.49109" />
  <line
     class="arc1"
     id="link31_@1_30"
     x1="28.338072"
     y1="311.26938"
     x2="6.4701834"
     y2="351.26547" />
  <line
     class="arc2"
     id="link31_@2_32"
     x1="28.338072"
     y1="311.26938"
     x2="48.104828"
     y2="291.42441" />
  <line
     class="arc1"
     id="link71_@1_72"
     x1="28.338072"
     y1="252.5708"
     x2="9.999999"
     y2="221.48984" />
  <line
     class="arc2"
     id="link71_@2_70"
     x1="28.338072"
     y1="252.5708"
     x2="48.104828"
     y2="274.65338" />
  <line
     class="arc2"
     id="link29_@2_34"
     x1="6.4701834"
     y1="493.17731"
     x2="2.0684497"
     y2="490.9223" />
  <line
     class="arc0"
     id="link29_@0_30"
     x1="6.4701834"
     y1="493.17731"
     x2="6.4701834"
     y2="351.26547" />
  <line
     class="arc0"
     id="link99_@0_105"
     x1="327.03668"
     y1="12.828858"
     x2="295.48602"
     y2="19.757202" />
  <line
     class="arc0"
     id="link98_@0_104"
     x1="346.00604"
     y1="34.210144"
     x2="309.68799"
     y2="40.431274" />
  <line
     class="arc1"
     id="link32_@1_37"
     x1="48.104828"
     y1="291.42441"
     x2="61.534729"
     y2="291.49081" />
  <line
     class="arc3"
     id="link32_@3_70"
     x1="48.104828"
     y1="291.42441"
     x2="48.104828"
     y2="274.65338" />
  <line
     class="arc1"
     id="link70_@1_64"
     x1="48.104828"
     y1="274.65338"
     x2="58.004944"
     y2="278.71277" />
  <line
     class="arc2"
     id="link30_@2_35"
     x1="6.4701834"
     y1="351.26547"
     x2="2.0684497"
     y2="357.396" />
  <polygon
     points="534.6611,491.1846 481.9847,550.77356 465.39053,532.18854 465.39053,398.66223 481.9847,383.7052 534.6611,449.25705 "
     id="face_35_116_117_115_114_34"
     style="fill:#c0c0c0;stroke:none"
     opacity="1"
     transform="translate(-463.32208,-41.266236)" />
  <polygon
     points="548.78015,508.75476 496.1038,568.3437 514.8074,593.6841 627.2197,600.0466 636.7543,576.30444 584.07794,510.75262 "
     id="face_38_126_127_113_112_33"
     style="fill:#c0c0c0;stroke:none"
     opacity="1"
     transform="translate(-463.32208,-41.266236)" />
  <polygon
     points="650.8734,393.26422 598.197,452.85315 598.197,494.7807 650.8734,560.3326 676.6365,544.14496 674.3443,410.92633 "
     id="face_124_39_40_122_123_125"
     style="fill:#c0c0c0;stroke:none"
     opacity="1"
     transform="translate(-463.32208,-41.266236)" />
  <polygon
     points="624.9275,349.4308 514.8074,342.76068 496.1038,367.73334 548.78015,433.28516 584.07794,435.283 636.7543,375.69412 "
     id="face_119_121_120_41_36_118"
     style="fill:#c0c0c0;stroke:none"
     opacity="1"
     transform="translate(-463.32208,-41.266236)" />
  <line
     class="arc1"
     id="link34_@1_114"
     x1="2.0684497"
     y1="490.9223"
     x2="18.662626"
     y2="509.50735" />
  <line
     class="arc0"
     id="link34_@0_35"
     x1="2.0684497"
     y1="490.9223"
     x2="2.0684497"
     y2="357.396" />
  <line
     class="arc2"
     id="link72_@2_66"
     x1="9.999999"
     y1="221.48984"
     x2="16.187529"
     y2="224.02695" />
  <line
     class="arc0"
     id="link72_@0_73"
     x1="9.999999"
     y1="221.48984"
     x2="9.999999"
     y2="71.192505" />
  <line
     class="arc2"
     id="link3_@2_33"
     x1="59.416809"
     y1="559.06543"
     x2="51.485291"
     y2="552.41785" />
  <line
     class="arc0"
     id="link3_@0_4"
     x1="59.416809"
     y1="559.06543"
     x2="178.88873"
     y2="565.82745" />
  <line
     class="arc1"
     id="link75_@1_69"
     x1="48.104828"
     y1="15.344422"
     x2="58.004944"
     y2="19.40387" />
  <line
     class="arc1"
     id="link35_@1_116"
     x1="2.0684497"
     y1="357.396"
     x2="18.662626"
     y2="342.43896" />
  <line
     class="arc2"
     id="link73_@2_67"
     x1="9.999999"
     y1="71.192505"
     x2="16.187529"
     y2="73.729584" />
  <line
     class="arc2"
     id="link114_@2_112"
     x1="18.662626"
     y1="509.50735"
     x2="32.781708"
     y2="527.07745" />
  <line
     class="arc0"
     id="link114_@0_115"
     x1="18.662626"
     y1="509.50735"
     x2="71.338989"
     y2="449.91837" />
  <line
     class="arc1"
     id="link33_@1_112"
     x1="51.485291"
     y1="552.41785"
     x2="32.781708"
     y2="527.07745" />
  <line
     class="arc0"
     id="link33_@0_38"
     x1="51.485291"
     y1="552.41785"
     x2="163.89764"
     y2="558.78033" />
  <line
     class="arc0"
     id="link112_@0_113"
     x1="32.781708"
     y1="527.07745"
     x2="85.458069"
     y2="467.48853" />
  <line
     class="arc2"
     id="link64_@2_65"
     x1="58.004944"
     y1="278.71277"
     x2="44.425751"
     y2="259.16733" />
  <line
     class="arc3"
     id="link64_@3_37"
     x1="58.004944"
     y1="278.71277"
     x2="61.534729"
     y2="291.49081" />
  <line
     class="arc0"
     id="link64_@0_58"
     x1="58.004944"
     y1="278.71277"
     x2="179.95178"
     y2="286.48969" />
  <line
     class="arc2"
     id="link37_@2_36"
     x1="61.534729"
     y1="291.49081"
     x2="51.485291"
     y2="301.49445" />
  <line
     class="arc0"
     id="link37_@0_42"
     x1="61.534729"
     y1="291.49081"
     x2="176.42206"
     y2="298.86813" />
  <polygon
     points="507.74783,83.052124 631.987,90.52136 660.22516,125.66159 660.22516,275.95892 631.987,307.9028 507.74783,300.43356 479.5096,265.29318 479.5096,114.99582 "
     id="face_67_68_62_61_60_59_65_66"
     style="opacity:1;fill:#c0c0c0;stroke:none"
     opacity="1"
     transform="translate(-463.32208,-41.266236)" />
  <line
     class="arc1"
     id="link66_@1_65"
     x1="16.187529"
     y1="224.02695"
     x2="44.425751"
     y2="259.16733" />
  <line
     class="arc0"
     id="link66_@0_67"
     x1="16.187529"
     y1="224.02695"
     x2="16.187529"
     y2="73.729584" />
  <line
     class="arc1"
     id="link101_@1_102"
     x1="309.68799"
     y1="257.81277"
     x2="300.51898"
     y2="225.50122" />
  <line
     class="arc2"
     id="link101_@2_100"
     x1="309.68799"
     y1="257.81277"
     x2="295.48602"
     y2="279.06613" />
  <line
     class="arc1"
     id="link100_@1_106"
     x1="295.48602"
     y1="279.06613"
     x2="277.14783"
     y2="281.52725" />
  <line
     class="arc3"
     id="link100_@3_50"
     x1="295.48602"
     y1="279.06613"
     x2="293.19373"
     y2="287.75934" />
  <line
     class="arc2"
     id="link116_@2_118"
     x1="18.662626"
     y1="342.43896"
     x2="32.781708"
     y2="326.4671" />
  <line
     class="arc0"
     id="link116_@0_117"
     x1="18.662626"
     y1="342.43896"
     x2="71.338989"
     y2="407.99081" />
  <line
     class="arc1"
     id="link50_@1_49"
     x1="293.19373"
     y1="287.75934"
     x2="279.44012"
     y2="289.60516" />
  <line
     class="arc2"
     id="link50_@2_51"
     x1="293.19373"
     y1="287.75934"
     x2="301.66516"
     y2="298.30136" />
  <line
     class="arc1"
     id="link51_@1_48"
     x1="301.66516"
     y1="298.30136"
     x2="287.9115"
     y2="300.14722" />
  <line
     class="arc1"
     id="link118_@1_36"
     x1="32.781708"
     y1="326.4671"
     x2="51.485291"
     y2="301.49445" />
  <line
     class="arc0"
     id="link118_@0_119"
     x1="32.781708"
     y1="326.4671"
     x2="85.458069"
     y2="392.01892" />
  <line
     class="arc0"
     id="link65_@0_59"
     x1="44.425751"
     y1="259.16733"
     x2="168.66492"
     y2="266.63657" />
  <line
     class="arc0"
     id="link36_@0_41"
     x1="51.485291"
     y1="301.49445"
     x2="161.60541"
     y2="308.16455" />
  <line
     class="arc2"
     id="link102_@2_108"
     x1="300.51898"
     y1="225.50122"
     x2="289.05768"
     y2="227.03934" />
  <line
     class="arc0"
     id="link102_@0_103"
     x1="300.51898"
     y1="225.50122"
     x2="300.51898"
     y2="75.203857" />
  <line
     class="arc0"
     id="link69_@0_63"
     x1="58.004944"
     y1="19.40387"
     x2="179.95178"
     y2="27.180725" />
  <line
     class="arc1"
     id="link105_@1_111"
     x1="295.48602"
     y1="19.757202"
     x2="277.14783"
     y2="22.218323" />
  <line
     class="arc2"
     id="link49_@2_48"
     x1="279.44012"
     y1="289.60516"
     x2="287.9115"
     y2="300.14722" />
  <line
     class="arc3"
     id="link49_@3_106"
     x1="279.44012"
     y1="289.60516"
     x2="277.14783"
     y2="281.52725" />
  <line
     class="arc0"
     id="link49_@0_47"
     x1="279.44012"
     y1="289.60516"
     x2="217.35907"
     y2="303.62839" />
  <line
     class="arc1"
     id="link115_@1_117"
     x1="71.338989"
     y1="449.91837"
     x2="71.338989"
     y2="407.99081" />
  <line
     class="arc2"
     id="link115_@2_113"
     x1="71.338989"
     y1="449.91837"
     x2="85.458069"
     y2="467.48853" />
  <line
     class="arc0"
     id="link48_@0_46"
     x1="287.9115"
     y1="300.14722"
     x2="232.89008"
     y2="322.95551" />
  <line
     class="arc2"
     id="link106_@2_107"
     x1="277.14783"
     y1="281.52725"
     x2="279.88867"
     y2="261.81207" />
  <line
     class="arc0"
     id="link106_@0_52"
     x1="277.14783"
     y1="281.52725"
     x2="217.35907"
     y2="286.85739" />
  <line
     class="arc2"
     id="link117_@2_119"
     x1="71.338989"
     y1="407.99081"
     x2="85.458069"
     y2="392.01892" />
  <line
     class="arc0"
     id="link68_@0_62"
     x1="44.425751"
     y1="41.785889"
     x2="168.66492"
     y2="49.255127" />
  <polygon
     points="743.21075,85.69684 692.77374,91.118835 683.60474,125.89145 683.60474,276.1888 692.77374,308.50037 743.21075,303.0783 752.37976,268.30557 752.37976,118.00824 "
     id="face_109_110_56_55_54_53_107_108"
     style="opacity:1;fill:#c0c0c0;stroke:none"
     opacity="1"
     transform="translate(-463.32208,-41.266236)" />
  <line
     class="arc0"
     id="link54_@0_55"
     x1="220.28265"
     y1="234.92258"
     x2="220.28265"
     y2="84.625214" />
  <line
     class="arc1"
     id="link108_@1_107"
     x1="289.05768"
     y1="227.03934"
     x2="279.88867"
     y2="261.81207" />
  <line
     class="arc0"
     id="link108_@0_109"
     x1="289.05768"
     y1="227.03934"
     x2="289.05768"
     y2="76.742004" />
  <line
     class="arc1"
     id="link113_@1_127"
     x1="85.458069"
     y1="467.48853"
     x2="120.75586"
     y2="469.48639" />
  <line
     class="arc1"
     id="link119_@1_121"
     x1="85.458069"
     y1="392.01892"
     x2="120.75586"
     y2="394.01675" />
  <line
     class="arc1"
     id="link5_@1_4"
     x1="228.99469"
     y1="560.97162"
     x2="178.88873"
     y2="565.82745" />
  <line
     class="arc2"
     id="link5_@2_43"
     x1="228.99469"
     y1="560.97162"
     x2="246.64362"
     y2="538.49109" />
  <line
     class="arc0"
     id="link107_@0_53"
     x1="279.88867"
     y1="261.81207"
     x2="229.45166"
     y2="267.23413" />
  <line
     class="arc0"
     id="link96_@0_97"
     x1="355.17505"
     y1="216.81888"
     x2="355.17505"
     y2="66.521545" />
  <line
     class="arc2"
     id="link103_@2_109"
     x1="300.51898"
     y1="75.203857"
     x2="289.05768"
     y2="76.742004" />
  <line
     class="arc2"
     id="link4_@2_38"
     x1="178.88873"
     y1="565.82745"
     x2="163.89764"
     y2="558.78033" />
  <line
     class="arc0"
     id="link111_@0_57"
     x1="277.14783"
     y1="22.218323"
     x2="217.35907"
     y2="27.548401" />
  <line
     class="arc1"
     id="link43_@1_44"
     x1="246.64362"
     y1="538.49109"
     x2="231.83527"
     y2="503.41724" />
  <line
     class="arc2"
     id="link127_@2_125"
     x1="120.75586"
     y1="469.48639"
     x2="134.87494"
     y2="453.51447" />
  <line
     class="arc0"
     id="link127_@0_126"
     x1="120.75586"
     y1="469.48639"
     x2="173.43219"
     y2="535.03821" />
  <line
     class="arc2"
     id="link121_@2_123"
     x1="120.75586"
     y1="394.01675"
     x2="134.87494"
     y2="411.58691" />
  <line
     class="arc0"
     id="link121_@0_120"
     x1="120.75586"
     y1="394.01675"
     x2="173.43219"
     y2="334.42789" />
  <line
     class="arc0"
     id="link110_@0_56"
     x1="279.88867"
     y1="44.430603"
     x2="229.45166"
     y2="49.8526" />
  <line
     class="arc1"
     id="link38_@1_126"
     x1="163.89764"
     y1="558.78033"
     x2="173.43219"
     y2="535.03821" />
  <line
     class="arc1"
     id="link125_@1_123"
     x1="134.87494"
     y1="453.51447"
     x2="134.87494"
     y2="411.58691" />
  <line
     class="arc0"
     id="link125_@0_124"
     x1="134.87494"
     y1="453.51447"
     x2="187.55133"
     y2="519.06635" />
  <line
     class="arc0"
     id="link123_@0_122"
     x1="134.87494"
     y1="411.58691"
     x2="187.55133"
     y2="351.99799" />
  <line
     class="arc1"
     id="link42_@1_47"
     x1="176.42206"
     y1="298.86813"
     x2="217.35907"
     y2="303.62839" />
  <line
     class="arc2"
     id="link42_@2_41"
     x1="176.42206"
     y1="298.86813"
     x2="161.60541"
     y2="308.16455" />
  <line
     class="arc3"
     id="link42_@3_58"
     x1="176.42206"
     y1="298.86813"
     x2="179.95178"
     y2="286.48969" />
  <line
     class="arc2"
     id="link126_@2_124"
     x1="173.43219"
     y1="535.03821"
     x2="187.55133"
     y2="519.06635" />
  <line
     class="arc1"
     id="link58_@1_52"
     x1="179.95178"
     y1="286.48969"
     x2="217.35907"
     y2="286.85739" />
  <line
     class="arc2"
     id="link58_@2_59"
     x1="179.95178"
     y1="286.48969"
     x2="168.66492"
     y2="266.63657" />
  <line
     class="arc2"
     id="link47_@2_46"
     x1="217.35907"
     y1="303.62839"
     x2="232.89008"
     y2="322.95551" />
  <line
     class="arc3"
     id="link47_@3_52"
     x1="217.35907"
     y1="303.62839"
     x2="217.35907"
     y2="286.85739" />
  <line
     class="arc2"
     id="link44_@2_39"
     x1="231.83527"
     y1="503.41724"
     x2="213.31439"
     y2="502.87872" />
  <line
     class="arc0"
     id="link44_@0_45"
     x1="231.83527"
     y1="503.41724"
     x2="227.25079"
     y2="362.12067" />
  <line
     class="arc2"
     id="link52_@2_53"
     x1="217.35907"
     y1="286.85739"
     x2="229.45166"
     y2="267.23413" />
  <line
     class="arc1"
     id="link41_@1_120"
     x1="161.60541"
     y1="308.16455"
     x2="173.43219"
     y2="334.42789" />
  <line
     class="arc1"
     id="link124_@1_39"
     x1="187.55133"
     y1="519.06635"
     x2="213.31439"
     y2="502.87872" />
  <line
     class="arc1"
     id="link46_@1_45"
     x1="232.89008"
     y1="322.95551"
     x2="227.25079"
     y2="362.12067" />
  <line
     class="arc1"
     id="link59_@1_60"
     x1="168.66492"
     y1="266.63657"
     x2="196.90308"
     y2="234.69269" />
  <line
     class="arc2"
     id="link120_@2_122"
     x1="173.43219"
     y1="334.42789"
     x2="187.55133"
     y2="351.99799" />
  <line
     class="arc0"
     id="link39_@0_40"
     x1="213.31439"
     y1="502.87872"
     x2="211.02222"
     y2="369.6601" />
  <line
     class="arc1"
     id="link53_@1_54"
     x1="229.45166"
     y1="267.23413"
     x2="220.28265"
     y2="234.92258" />
  <line
     class="arc1"
     id="link63_@1_57"
     x1="179.95178"
     y1="27.180725"
     x2="217.35907"
     y2="27.548401" />
  <line
     class="arc2"
     id="link45_@2_40"
     x1="227.25079"
     y1="362.12067"
     x2="211.02222"
     y2="369.6601" />
  <line
     class="arc1"
     id="link122_@1_40"
     x1="187.55133"
     y1="351.99799"
     x2="211.02222"
     y2="369.6601" />
  <line
     class="arc2"
     id="link60_@2_54"
     x1="196.90308"
     y1="234.69269"
     x2="220.28265"
     y2="234.92258" />
  <line
     class="arc0"
     id="link60_@0_61"
     x1="196.90308"
     y1="234.69269"
     x2="196.90308"
     y2="84.395355" />
  <line
     class="arc2"
     id="link61_@2_55"
     x1="196.90308"
     y1="84.395355"
     x2="220.28265"
     y2="84.625214" />
  <g
     id="g36401"
     transform="translate(-55.938577,66.597122)" />
  <path
     style="fill:none;stroke:#ff8700;stroke-width:20;stroke-linecap:round;stroke-linejoin:round;stroke-dasharray:none;stroke-opacity:1"
     d="m 327.03668,12.828857 18.96937,21.381287 9.169,32.3114"
     id="path9" />
  <line
     class="arc2"
     id="link99_@2_98"
     x1="327.03668"
     y1="12.828858"
     x2="346.00604"
     y2="34.210144" />
  <line
     class="arc1"
     id="link97_@1_98"
     x1="355.17505"
     y1="66.521545"
     x2="346.00604"
     y2="34.210144" />
  <path
     style="fill:none;stroke:#f58137;stroke-width:20;stroke-linecap:round;stroke-linejoin:round;stroke-dasharray:none;stroke-opacity:1"
     d="m 295.48602,19.757202 14.20197,20.674072 -9.16901,34.77258"
     id="path10" />
  <path
     style="fill:none;stroke:#f58137;stroke-width:20;stroke-linecap:round;stroke-linejoin:round;stroke-dasharray:none;stroke-opacity:1"
     d="m 277.14782,22.218324 2.74086,22.212279 9.169,32.311401"
     id="path11" />
  <line
     class="arc1"
     id="link104_@1_103"
     x1="309.68799"
     y1="40.431274"
     x2="300.51898"
     y2="75.203857" />
  <path
     style="fill:none;stroke:#f58137;stroke-width:20;stroke-linecap:round;stroke-linejoin:round;stroke-dasharray:none;stroke-opacity:1"
     d="M 217.35908,27.548401 229.45167,49.8526 220.28266,84.625213"
     id="path12" />
  <line
     class="arc1"
     id="link56_@1_55"
     x1="229.45166"
     y1="49.8526"
     x2="220.28265"
     y2="84.625214" />
  <line
     class="arc2"
     id="link57_@2_56"
     x1="217.35907"
     y1="27.548401"
     x2="229.45166"
     y2="49.8526" />
  <path
     style="fill:none;stroke:#f58137;stroke-width:20;stroke-linecap:round;stroke-linejoin:round;stroke-dasharray:none;stroke-opacity:1"
     d="m 48.10482,15.344421 -19.766748,19.84491 v 0 L 10,71.192504"
     id="path5" />
  <line
     class="arc1"
     id="link74_@1_73"
     x1="28.338072"
     y1="35.189331"
     x2="9.999999"
     y2="71.192505" />
  <path
     style="fill:none;stroke:#f58137;stroke-width:20;stroke-linecap:round;stroke-linejoin:round;stroke-dasharray:none;stroke-opacity:1"
     d="m 179.95178,27.180724 -11.28686,22.074403 28.23816,35.140228"
     id="path13" />
  <line
     class="arc2"
     id="link63_@2_62"
     x1="179.95178"
     y1="27.180725"
     x2="168.66492"
     y2="49.255127" />
  <line
     class="arc1"
     id="link62_@1_61"
     x1="168.66492"
     y1="49.255127"
     x2="196.90308"
     y2="84.395355" />
  <line
     class="arc2"
     id="link74_@2_75"
     x1="28.338072"
     y1="35.189331"
     x2="48.104828"
     y2="15.344422" />
  <path
     style="fill:none;stroke:#f58137;stroke-width:20;stroke-linecap:round;stroke-linejoin:round;stroke-dasharray:none;stroke-opacity:1"
     d="M 58.00492,19.403869 44.425749,41.785888 16.18752,73.729584"
     id="path4" />
  <line
     class="arc1"
     id="link67_@1_68"
     x1="16.187529"
     y1="73.729584"
     x2="44.425751"
     y2="41.785889" />
  <line
     class="arc2"
     id="link69_@2_68"
     x1="58.004944"
     y1="19.40387"
     x2="44.425751"
     y2="41.785889" />
  <line
     class="arc2"
     id="link104_@2_105"
     x1="309.68799"
     y1="40.431274"
     x2="295.48602"
     y2="19.757202" />
  <line
     class="arc1"
     id="link109_@1_110"
     x1="289.05768"
     y1="76.742004"
     x2="279.88867"
     y2="44.430603" />
  <line
     class="arc2"
     id="link111_@2_110"
     x1="277.14783"
     y1="22.218323"
     x2="279.88867"
     y2="44.430603" />
  <text
     xml:space="preserve"
     style="font-style:normal;font-variant:normal;font-weight:normal;font-stretch:normal;font-size:40px;line-height:1.25;font-family:gyro;-inkscape-font-specification:gyro;fill:#000000;fill-opacity:1;stroke:none"
     x="95.977058"
     y="118.0638"
     id="text13"><tspan
       sodipodi:role="line"
       id="tspan13"
       x="95.977058"
       y="118.0638" /><tspan
       sodipodi:role="line"
       x="95.977058"
       y="168.0638"
       id="tspan14" /></text>
  <text
     xml:space="preserve"
     style="font-style:normal;font-weight:normal;font-size:40px;line-height:1.25;font-family:sans-serif;fill:#000000;fill-opacity:1;stroke:none"
     x="112.50854"
     y="154.21123"
     id="text15"><tspan
       sodipodi:role="line"
       id="tspan15"
       x="112.50854"
       y="154.21123" /></text>
</svg>
