<?xml version="1.0" encoding="UTF-8" standalone="no"?>
<!-- Created with Jerboa -->

<svg
   width="530.94214"
   height="412.45596"
   version="1.1"
   id="svg1"
   sodipodi:docname="cs2-7-reevaluation-colourFaceBlue.svg"
   inkscape:version="1.3.2 (091e20ef0f, 2023-11-25, custom)"
   xmlns:inkscape="http://www.inkscape.org/namespaces/inkscape"
   xmlns:sodipodi="http://sodipodi.sourceforge.net/DTD/sodipodi-0.dtd"
   xmlns="http://www.w3.org/2000/svg"
   xmlns:svg="http://www.w3.org/2000/svg">
  <defs
     id="defs1" />
  <sodipodi:namedview
     id="namedview1"
     pagecolor="#ffffff"
     bordercolor="#000000"
     borderopacity="0.25"
     inkscape:showpageshadow="2"
     inkscape:pageopacity="0.0"
     inkscape:pagecheckerboard="0"
     inkscape:deskcolor="#d1d1d1"
     showgrid="false"
     inkscape:zoom="0.71439452"
     inkscape:cx="267.35928"
     inkscape:cy="142.07836"
     inkscape:window-width="1892"
     inkscape:window-height="1035"
     inkscape:window-x="9"
     inkscape:window-y="26"
     inkscape:window-maximized="1"
     inkscape:current-layer="svg1" />
  <style
     id="style">
		.arc0 {
			fill:none;
			fill-rule:evenodd;
			stroke:black;
			stroke-width:4;
			stroke-linecap:round;
			stroke-linejoin:round;
			stroke-opacity:1;
		}
		.arc1 {
			fill:none;
			fill-rule:evenodd;
			stroke:red;
			stroke-width:4;
			stroke-linecap:round;
			stroke-linejoin:round;
			stroke-opacity:1;
		}
		.arc2 {
			fill:none;
			fill-rule:evenodd;
			stroke:blue;
			stroke-width:4;
			stroke-linecap:round;
			stroke-linejoin:round;
			stroke-opacity:1;
		}
		.arc3 {
			fill:none;
			fill-rule:evenodd;
			stroke:green;
			stroke-width:4;
			stroke-linecap:round;
			stroke-linejoin:round;
			stroke-opacity:1;
		}
		.topological-dart {
			fill:#000000;
			stroke:#000000;
			stroke-width:0;
			stroke-linecap:round;
			stroke-linejoin:round;
			stroke-dasharray:none;
			paint-order:markers fill stroke;
		}
	</style>
  <polygon
     points="896.7872,449.64032 734.43634,218.81293 656.8951,214.42413 622.38635,434.10938 686.33496,525.0302 883.1945,536.17236 "
     id="face_13_14_15_20_19_18"
     style="fill:#c0c0c0;stroke:none"
     opacity="1"
     transform="translate(-388.98923,-183.85233)" />
  <line
     class="arc1"
     id="link18_@1_19"
     x1="297.34573"
     y1="341.17789"
     x2="233.39713"
     y2="250.25705" />
  <line
     class="arc2"
     id="link18_@2_0"
     x1="297.34573"
     y1="341.17789"
     x2="283.358"
     y2="368.64005" />
  <line
     class="arc0"
     id="link18_@0_13"
     x1="297.34573"
     y1="341.17789"
     x2="494.20529"
     y2="352.32004" />
  <polygon
     points="896.3922,574.7815 768.55005,591.93896 640.6529,594.3083 443.7933,583.16614 416.60797,572.01917 544.45,554.8617 672.3472,552.4924 869.2067,563.6345 "
     id="face_7_6_5_4_3_2_1_0"
     style="fill:#c0c0c0;stroke:none"
     opacity="1"
     transform="translate(-388.98923,-183.85233)" />
  <line
     class="arc1"
     id="link0_@1_1"
     x1="283.358"
     y1="368.64005"
     x2="155.46078"
     y2="371.00937" />
  <line
     class="arc0"
     id="link0_@0_7"
     x1="283.358"
     y1="368.64005"
     x2="480.2175"
     y2="379.7822" />
  <line
     class="arc2"
     id="link19_@2_24"
     x1="233.39713"
     y1="250.25705"
     x2="197.87015"
     y2="250.91519" />
  <line
     class="arc0"
     id="link19_@0_20"
     x1="233.39713"
     y1="250.25705"
     x2="267.90585"
     y2="30.571808" />
  <polygon
     points="571.01227,221.84048 408.66144,458.68314 395.0687,545.2152 522.9108,528.05774 586.8594,434.76752 621.36816,215.0823 "
     id="face_25_30_29_28_23_24"
     style="fill:#c0c0c0;stroke:none"
     opacity="1"
     transform="translate(-388.98923,-183.85233)" />
  <line
     class="arc1"
     id="link24_@1_23"
     x1="197.87015"
     y1="250.91519"
     x2="133.9216"
     y2="344.20541" />
  <line
     class="arc0"
     id="link24_@0_25"
     x1="197.87015"
     y1="250.91519"
     x2="232.37894"
     y2="31.22998" />
  <line
     class="arc2"
     id="link23_@2_1"
     x1="133.9216"
     y1="344.20541"
     x2="155.46078"
     y2="371.00937" />
  <line
     class="arc0"
     id="link23_@0_28"
     x1="133.9216"
     y1="344.20541"
     x2="6.0794678"
     y2="361.36288" />
  <line
     class="arc0"
     id="link1_@0_2"
     x1="155.46078"
     y1="371.00937"
     x2="27.618744"
     y2="388.16684" />
  <line
     class="arc1"
     id="link13_@1_14"
     x1="494.20529"
     y1="352.32004"
     x2="507.79794"
     y2="265.78799" />
  <line
     class="arc2"
     id="link13_@2_7"
     x1="494.20529"
     y1="352.32004"
     x2="480.2175"
     y2="379.7822" />
  <line
     class="arc1"
     id="link7_@1_6"
     x1="480.2175"
     y1="379.7822"
     x2="507.40298"
     y2="390.92917" />
  <line
     class="arc2"
     id="link14_@2_9"
     x1="507.79794"
     y1="265.78799"
     x2="515.34937"
     y2="268.8844" />
  <line
     class="arc0"
     id="link14_@0_15"
     x1="507.79794"
     y1="265.78799"
     x2="345.44711"
     y2="34.960602" />
  <line
     class="arc1"
     id="link20_@1_15"
     x1="267.90585"
     y1="30.571808"
     x2="345.44711"
     y2="34.960602" />
  <line
     class="arc2"
     id="link20_@2_25"
     x1="267.90585"
     y1="30.571808"
     x2="232.37894"
     y2="31.22998" />
  <line
     class="arc1"
     id="link25_@1_30"
     x1="232.37894"
     y1="31.22998"
     x2="182.02304"
     y2="37.988159" />
  <line
     class="arc1"
     id="link28_@1_29"
     x1="6.0794678"
     y1="361.36288"
     x2="19.672211"
     y2="274.83081" />
  <line
     class="arc2"
     id="link28_@2_2"
     x1="6.0794678"
     y1="361.36288"
     x2="27.618744"
     y2="388.16684" />
  <polygon
     points="691.632,228.66754 726.1407,476.65234 790.0892,567.5732 917.93134,550.4157 904.3386,452.73672 741.9879,221.9094 "
     id="face_10_45_44_43_8_9"
     style="fill:#c0c0c0;stroke:none"
     opacity="1"
     transform="translate(-388.98923,-183.85233)" />
  <line
     class="arc1"
     id="link9_@1_8"
     x1="515.34937"
     y1="268.8844"
     x2="528.94214"
     y2="366.56339" />
  <line
     class="arc0"
     id="link9_@0_10"
     x1="515.34937"
     y1="268.8844"
     x2="352.99869"
     y2="38.057068" />
  <line
     class="arc1"
     id="link2_@1_3"
     x1="27.618744"
     y1="388.16684"
     x2="54.804077"
     y2="399.31381" />
  <line
     class="arc2"
     id="link15_@2_10"
     x1="345.44711"
     y1="34.960602"
     x2="352.99869"
     y2="38.057068" />
  <line
     class="arc2"
     id="link6_@2_8"
     x1="507.40298"
     y1="390.92917"
     x2="528.94214"
     y2="366.56339" />
  <line
     class="arc0"
     id="link6_@0_5"
     x1="507.40298"
     y1="390.92917"
     x2="379.56082"
     y2="408.08664" />
  <line
     class="arc1"
     id="link10_@1_45"
     x1="352.99869"
     y1="38.057068"
     x2="302.64279"
     y2="44.815216" />
  <line
     class="arc2"
     id="link30_@2_35"
     x1="182.02304"
     y1="37.988159"
     x2="181.1362"
     y2="31.63382" />
  <line
     class="arc0"
     id="link30_@0_29"
     x1="182.02304"
     y1="37.988159"
     x2="19.672211"
     y2="274.83081" />
  <line
     class="arc0"
     id="link8_@0_43"
     x1="528.94214"
     y1="366.56339"
     x2="401.09995"
     y2="383.72086" />
  <line
     class="arc2"
     id="link29_@2_34"
     x1="19.672211"
     y1="274.83081"
     x2="18.785309"
     y2="268.47647" />
  <polygon
     points="390.98923,515.9852 510.72607,440.7517 574.6746,347.4615 617.28864,185.85233 570.1254,215.48615 407.77454,452.3288 "
     id="face_34_16_17_22_21_35"
     style="fill:#c0c0c0;stroke:none"
     opacity="1"
     transform="translate(-388.98923,-183.85233)" />
  <line
     class="arc1"
     id="link35_@1_21"
     x1="181.1362"
     y1="31.63382"
     x2="228.29941"
     y2="2" />
  <line
     class="arc0"
     id="link35_@0_34"
     x1="181.1362"
     y1="31.63382"
     x2="18.785309"
     y2="268.47647" />
  <line
     class="arc1"
     id="link34_@1_16"
     x1="18.785309"
     y1="268.47647"
     x2="2"
     y2="332.1329" />
  <line
     class="arc2"
     id="link21_@2_26"
     x1="228.29941"
     y1="2"
     x2="249.83871"
     y2="3.2190857" />
  <line
     class="arc0"
     id="link21_@0_22"
     x1="228.29941"
     y1="2"
     x2="185.68539"
     y2="163.60916" />
  <polygon
     points="609.80664,446.35965 686.9293,532.7353 703.71466,469.07886 669.206,221.09409 638.82794,187.07141 596.2139,348.6806 "
     id="face_27_32_31_39_40_26"
     style="fill:#0000ff;stroke:none"
     opacity="1"
     transform="translate(-388.98923,-183.85233)" />
  <line
     class="arc1"
     id="link26_@1_40"
     x1="249.83871"
     y1="3.2190857"
     x2="280.21677"
     y2="37.24176" />
  <line
     class="arc0"
     id="link26_@0_27"
     x1="249.83871"
     y1="3.2190857"
     x2="207.2247"
     y2="164.82828" />
  <line
     class="arc2"
     id="link16_@2_11"
     x1="2"
     y1="332.1329"
     x2="5.7757263"
     y2="359.26596" />
  <line
     class="arc0"
     id="link16_@0_17"
     x1="2"
     y1="332.1329"
     x2="121.73685"
     y2="256.89938" />
  <polygon
     points="592.0431,472.27356 669.1658,558.64923 622.00256,588.283 425.14297,577.14087 394.76495,543.1183 514.50183,467.88477 "
     id="face_12_37_36_38_33_11"
     style="fill:#c0c0c0;stroke:none"
     opacity="1"
     transform="translate(-388.98923,-183.85233)" />
  <line
     class="arc1"
     id="link11_@1_33"
     x1="5.7757263"
     y1="359.26596"
     x2="36.153748"
     y2="393.28854" />
  <line
     class="arc0"
     id="link11_@0_12"
     x1="5.7757263"
     y1="359.26596"
     x2="125.5126"
     y2="284.03244" />
  <line
     class="arc2"
     id="link45_@2_40"
     x1="302.64279"
     y1="44.815216"
     x2="280.21677"
     y2="37.24176" />
  <line
     class="arc0"
     id="link45_@0_44"
     x1="302.64279"
     y1="44.815216"
     x2="337.15146"
     y2="292.80002" />
  <line
     class="arc2"
     id="link3_@2_33"
     x1="54.804077"
     y1="399.31381"
     x2="36.153748"
     y2="393.28854" />
  <line
     class="arc0"
     id="link3_@0_4"
     x1="54.804077"
     y1="399.31381"
     x2="251.66367"
     y2="410.45596" />
  <line
     class="arc0"
     id="link40_@0_39"
     x1="280.21677"
     y1="37.24176"
     x2="314.72543"
     y2="285.22653" />
  <line
     class="arc1"
     id="link22_@1_17"
     x1="185.68539"
     y1="163.60916"
     x2="121.73685"
     y2="256.89938" />
  <line
     class="arc2"
     id="link22_@2_27"
     x1="185.68539"
     y1="163.60916"
     x2="207.2247"
     y2="164.82828" />
  <line
     class="arc2"
     id="link17_@2_12"
     x1="121.73685"
     y1="256.89938"
     x2="125.5126"
     y2="284.03244" />
  <line
     class="arc1"
     id="link27_@1_32"
     x1="207.2247"
     y1="164.82828"
     x2="220.81741"
     y2="262.50732" />
  <line
     class="arc0"
     id="link33_@0_38"
     x1="36.153748"
     y1="393.28854"
     x2="233.01334"
     y2="404.43069" />
  <line
     class="arc1"
     id="link12_@1_37"
     x1="125.5126"
     y1="284.03244"
     x2="203.05386"
     y2="288.42123" />
  <line
     class="arc2"
     id="link32_@2_37"
     x1="220.81741"
     y1="262.50732"
     x2="203.05386"
     y2="288.42123" />
  <line
     class="arc0"
     id="link32_@0_31"
     x1="220.81741"
     y1="262.50732"
     x2="297.94009"
     y2="348.88297" />
  <line
     class="arc0"
     id="link37_@0_36"
     x1="203.05386"
     y1="288.42123"
     x2="280.17654"
     y2="374.79691" />
  <line
     class="arc1"
     id="link5_@1_4"
     x1="379.56082"
     y1="408.08664"
     x2="251.66367"
     y2="410.45596" />
  <line
     class="arc2"
     id="link5_@2_43"
     x1="379.56082"
     y1="408.08664"
     x2="401.09995"
     y2="383.72086" />
  <line
     class="arc1"
     id="link43_@1_44"
     x1="401.09995"
     y1="383.72086"
     x2="337.15146"
     y2="292.80002" />
  <line
     class="arc2"
     id="link4_@2_38"
     x1="251.66367"
     y1="410.45596"
     x2="233.01334"
     y2="404.43069" />
  <line
     class="arc2"
     id="link44_@2_39"
     x1="337.15146"
     y1="292.80002"
     x2="314.72543"
     y2="285.22653" />
  <line
     class="arc1"
     id="link39_@1_31"
     x1="314.72543"
     y1="285.22653"
     x2="297.94009"
     y2="348.88297" />
  <line
     class="arc1"
     id="link38_@1_36"
     x1="233.01334"
     y1="404.43069"
     x2="280.17654"
     y2="374.79691" />
  <line
     class="arc2"
     id="link31_@2_36"
     x1="297.94009"
     y1="348.88297"
     x2="280.17654"
     y2="374.79691" />
</svg>
