<?xml version="1.0" encoding="UTF-8" standalone="no"?>
<!-- Generated by graphviz version 12.1.1 (0)
 -->

<!-- Title: HistoryRecord Pages: 1 -->

<svg
   width="493.48633pt"
   height="565pt"
   viewBox="0 0 493.48633 565"
   version="1.1"
   id="svg40"
   sodipodi:docname="cs2-evaluationTree-4.svg"
   inkscape:version="1.4 (e7c3feb100, 2024-10-09)"
   xmlns:inkscape="http://www.inkscape.org/namespaces/inkscape"
   xmlns:sodipodi="http://sodipodi.sourceforge.net/DTD/sodipodi-0.dtd"
   xmlns="http://www.w3.org/2000/svg"
   xmlns:svg="http://www.w3.org/2000/svg">
  <defs
     id="defs40" />
  <sodipodi:namedview
     id="namedview40"
     pagecolor="#ffffff"
     bordercolor="#666666"
     borderopacity="1.0"
     inkscape:showpageshadow="2"
     inkscape:pageopacity="0.0"
     inkscape:pagecheckerboard="0"
     inkscape:deskcolor="#d1d1d1"
     inkscape:document-units="pt"
     showgrid="false"
     inkscape:zoom="0.9125353"
     inkscape:cx="142.46024"
     inkscape:cy="450.39354"
     inkscape:window-width="1892"
     inkscape:window-height="1035"
     inkscape:window-x="9"
     inkscape:window-y="26"
     inkscape:window-maximized="0"
     inkscape:current-layer="svg40" />
  <g
     id="clust1"
     class="cluster"
     transform="translate(-7.5,572.5)">
    <title
       id="title2">cluster_1</title>
    <path
       fill="none"
       stroke="#000000"
       d="m 40,-519 c 0,0 270,0 270,0 6,0 12,-6 12,-12 0,0 0,-29 0,-29 0,-6 -6,-12 -12,-12 0,0 -270,0 -270,0 -6,0 -12,6 -12,12 0,0 0,29 0,29 0,6 6,12 12,12"
       id="path2" />
  </g>
  <g
     id="clust2"
     class="cluster"
     transform="translate(-7.5,572.5)">
    <title
       id="title3">cluster_1n4</title>
    <polygon
       fill="none"
       stroke="#000000"
       points="48,-499 262,-499 262,-446 48,-446 "
       id="polygon3" />
  </g>
  <g
     id="clust3"
     class="cluster"
     transform="translate(-7.5,572.5)">
    <title
       id="title4">cluster_2</title>
    <path
       fill="none"
       stroke="#000000"
       d="m 20,-373 c 0,0 270,0 270,0 6,0 12,-6 12,-12 0,0 0,-29 0,-29 0,-6 -6,-12 -12,-12 0,0 -270,0 -270,0 -6,0 -12,6 -12,12 0,0 0,29 0,29 0,6 6,12 12,12"
       id="path4" />
  </g>
  <g
     id="clust4"
     class="cluster"
     transform="translate(-7.5,572.5)">
    <title
       id="title5">cluster_2n4</title>
    <polygon
       fill="none"
       stroke="#000000"
       points="8,-353 278,-353 278,-300 8,-300 "
       id="polygon5" />
  </g>
  <g
     id="clust5"
     class="cluster"
     transform="translate(-22.5,572.5)">
    <title
       id="title6">cluster_3</title>
    <path
       fill="none"
       stroke="#000000"
       d="m 88,-227 h 153.94881 c 6,0 12,-6 12,-12 v -29 c 0,-6 -6,-12 -12,-12 H 88 c -6,0 -12,6 -12,12 v 29 c 0,6 6,12 12,12"
       id="path6"
       sodipodi:nodetypes="csssssssc" />
  </g>
  <g
     id="clust6"
     class="cluster"
     transform="translate(-7.5,572.5)">
    <title
       id="title7">cluster_3n2</title>
    <polygon
       fill="none"
       stroke="#000000"
       points="86,-207 228,-207 228,-154 86,-154 "
       id="polygon7" />
  </g>
  <g
     id="clust7"
     class="cluster"
     transform="translate(-22.5,572.5)">
    <title
       id="title8">cluster_4</title>
    <path
       fill="none"
       stroke="#000000"
       d="m 78,-81 h 172.26101 c 6,0 12,-6 12,-12 v -29 c 0,-6 -6,-12 -12,-12 H 78 c -6,0 -12,6 -12,12 v 29 c 0,6 6,12 12,12"
       id="path8"
       sodipodi:nodetypes="csssssssc" />
  </g>
  <g
     id="clust8"
     class="cluster"
     transform="translate(-7.5,572.5)">
    <title
       id="title9">cluster_4n2</title>
    <polygon
       fill="none"
       stroke="#000000"
       points="86,-61 228,-61 228,-8 86,-8 "
       id="polygon9" />
  </g>
  <g
     id="node1"
     class="node"
     transform="translate(64.5,572.5)">
    <title
       id="title10">1CREATION[0, 1]</title>
    <path
       fill="none"
       stroke="#000000"
       d="m 48,-527.5 c 0,0 70,0 70,0 6,0 12,-6 12,-12 0,0 0,-12 0,-12 0,-6 -6,-12 -12,-12 0,0 -70,0 -70,0 -6,0 -12,6 -12,12 0,0 0,12 0,12 0,6 6,12 12,12"
       id="path10" />
    <text
       text-anchor="middle"
       x="83"
       y="-540.83002"
       font-family="Times, serif"
       font-size="14px"
       id="text10">CREATION</text>
  </g>
  <g
     id="node2"
     class="node"
     transform="translate(64.5,572.5)">
    <title
       id="title11">1n4[0, 1]</title>
    <polygon
       fill="none"
       stroke="#000000"
       points="110,-490.5 110,-454.5 56,-454.5 56,-490.5 "
       id="polygon11" />
    <text
       text-anchor="middle"
       x="82.75"
       y="-467.82001"
       font-family="Times, serif"
       font-size="14px"
       id="text11">⟨0, 1⟩</text>
  </g>
  <g
     id="edge1"
     class="edge"
     transform="translate(64.5,572.5)">
    <title
       id="title12">1CREATION[0, 1]-&gt;1n4[0, 1]</title>
    <path
       fill="none"
       stroke="#000000"
       d="m 83,-527.31 c 0,7.58 0,16.71 0,25.27"
       id="path12" />
    <polygon
       fill="#000000"
       stroke="#000000"
       points="86.5,-502.04 83,-492.04 79.5,-502.04 "
       id="polygon12" />
  </g>
  <g
     id="node6"
     class="node"
     transform="translate(64.5,572.5)">
    <title
       id="title13">2CREATION[0, 1]</title>
    <path
       fill="none"
       stroke="#000000"
       d="m 28,-381.5 c 0,0 70,0 70,0 6,0 12,-6 12,-12 0,0 0,-12 0,-12 0,-6 -6,-12 -12,-12 0,0 -70,0 -70,0 -6,0 -12,6 -12,12 0,0 0,12 0,12 0,6 6,12 12,12"
       id="path13" />
    <text
       text-anchor="middle"
       x="63"
       y="-394.82001"
       font-family="Times, serif"
       font-size="14px"
       id="text13">CREATION</text>
  </g>
  <g
     id="edge3"
     class="edge"
     transform="translate(64.5,572.5)">
    <title
       id="title14">1n4[0, 1]-&gt;2CREATION[0, 1]</title>
    <path
       fill="none"
       stroke="#ff0000"
       d="m 78.16,-454.31 c -2.19,7.76 -4.83,17.13 -7.29,25.86"
       id="path14" />
    <polygon
       fill="#ff0000"
       stroke="#ff0000"
       points="74.29,-427.66 68.21,-418.99 67.55,-429.56 "
       id="polygon14" />
  </g>
  <g
     id="node3"
     class="node"
     transform="translate(64.5,572.5)">
    <title
       id="title15">1CREATION[1]</title>
    <path
       fill="none"
       stroke="#000000"
       d="m 160,-527.5 c 0,0 70,0 70,0 6,0 12,-6 12,-12 0,0 0,-12 0,-12 0,-6 -6,-12 -12,-12 0,0 -70,0 -70,0 -6,0 -12,6 -12,12 0,0 0,12 0,12 0,6 6,12 12,12"
       id="path15" />
    <text
       text-anchor="middle"
       x="195"
       y="-540.83002"
       font-family="Times, serif"
       font-size="14px"
       id="text15">CREATION</text>
  </g>
  <g
     id="node4"
     class="node"
     transform="translate(64.5,572.5)">
    <title
       id="title16">1n4[1]</title>
    <polygon
       fill="none"
       stroke="#000000"
       points="182,-490.5 182,-454.5 128,-454.5 128,-490.5 "
       id="polygon16" />
    <text
       text-anchor="middle"
       x="154.75"
       y="-467.82001"
       font-family="Times, serif"
       font-size="14px"
       id="text16">⟨1⟩</text>
  </g>
  <g
     id="edge2"
     class="edge"
     transform="translate(64.5,572.5)">
    <title
       id="title17">1CREATION[1]-&gt;1n4[1]</title>
    <path
       fill="none"
       stroke="#000000"
       d="m 185.32,-527.31 c -4.57,8.11 -10.13,17.97 -15.23,27.03"
       id="path17" />
    <polygon
       fill="#000000"
       stroke="#000000"
       points="173.29,-498.84 165.34,-491.85 167.2,-502.28 "
       id="polygon17" />
  </g>
  <g
     id="node7"
     class="node"
     transform="translate(64.5,572.5)">
    <title
       id="title18">2CREATION[1, 2]</title>
    <path
       fill="none"
       stroke="#000000"
       d="m 140,-381.5 c 0,0 70,0 70,0 6,0 12,-6 12,-12 0,0 0,-12 0,-12 0,-6 -6,-12 -12,-12 0,0 -70,0 -70,0 -6,0 -12,6 -12,12 0,0 0,12 0,12 0,6 6,12 12,12"
       id="path18" />
    <text
       text-anchor="middle"
       x="175"
       y="-394.82001"
       font-family="Times, serif"
       font-size="14px"
       id="text18">CREATION</text>
  </g>
  <g
     id="edge4"
     class="edge"
     transform="translate(64.5,572.5)">
    <title
       id="title19">1n4[1]-&gt;2CREATION[1, 2]</title>
    <path
       fill="none"
       stroke="#ff0000"
       d="m 159.84,-454.31 c 2.19,7.76 4.83,17.13 7.29,25.86"
       id="path19" />
    <polygon
       fill="#ff0000"
       stroke="#ff0000"
       points="170.45,-429.56 169.79,-418.99 163.71,-427.66 "
       id="polygon19" />
  </g>
  <g
     id="node9"
     class="node"
     transform="translate(64.5,572.5)">
    <title
       id="title21">2n4[0, 1]</title>
    <polygon
       fill="none"
       stroke="#000000"
       points="125.5,-344.5 125.5,-308.5 16.5,-308.5 16.5,-344.5 "
       id="polygon21" />
    <text
       text-anchor="middle"
       x="71"
       y="-321.82001"
       font-family="Times, serif"
       font-size="14px"
       id="text21">@1.@2.⟨0, 1⟩</text>
  </g>
  <g
     id="edge5"
     class="edge"
     transform="translate(64.5,572.5)">
    <title
       id="title22">2CREATION[0, 1]-&gt;2n4[0, 1]</title>
    <path
       fill="none"
       stroke="#000000"
       d="m 64.94,-381.31 c 0.86,7.67 1.9,16.92 2.88,25.57"
       id="path22" />
    <polygon
       fill="#000000"
       stroke="#000000"
       points="71.27,-356.36 68.91,-346.03 64.31,-355.58 "
       id="polygon22" />
  </g>
  <g
     id="node10"
     class="node"
     transform="translate(64.5,572.5)">
    <title
       id="title23">2n4[1, 2]</title>
    <polygon
       fill="none"
       stroke="#000000"
       points="198,-344.5 198,-308.5 144,-308.5 144,-344.5 "
       id="polygon23" />
    <text
       text-anchor="middle"
       x="170.75"
       y="-321.82001"
       font-family="Times, serif"
       font-size="14px"
       id="text23">⟨1, 2⟩</text>
  </g>
  <g
     id="edge6"
     class="edge"
     transform="translate(64.5,572.5)">
    <title
       id="title24">2CREATION[1, 2]-&gt;2n4[1, 2]</title>
    <path
       fill="none"
       stroke="#000000"
       d="m 174.03,-381.31 c -0.43,7.67 -0.95,16.92 -1.44,25.57"
       id="path24" />
    <polygon
       fill="#000000"
       stroke="#000000"
       points="176.1,-355.83 172.04,-346.04 169.11,-356.22 "
       id="polygon24" />
  </g>
  <g
     id="node8"
     class="node"
     transform="translate(-148.5,572.5)">
    <title
       id="title25">1n4</title>
    <polygon
       fill="#add8e6"
       stroke="#add8e6"
       points="200,-454.5 200,-490.5 254,-490.5 254,-454.5 "
       id="polygon25" />
    <text
       text-anchor="middle"
       x="227"
       y="-467.82001"
       font-family="Times, serif"
       font-size="14px"
       id="text25">n4</text>
  </g>
  <g
     id="node12"
     class="node"
     transform="translate(64.5,572.5)">
    <title
       id="title26">3MERGE[1, 2]</title>
    <path
       fill="none"
       stroke="#000000"
       d="m 96.5,-235.5 c 0,0 49,0 49,0 6,0 12,-6 12,-12 0,0 0,-12 0,-12 0,-6 -6,-12 -12,-12 0,0 -49,0 -49,0 -6,0 -12,6 -12,12 0,0 0,12 0,12 0,6 6,12 12,12"
       id="path26" />
    <text
       text-anchor="middle"
       x="121"
       y="-248.82001"
       font-family="Times, serif"
       font-size="14px"
       id="text26">MERGE</text>
  </g>
  <g
     id="edge7"
     class="edge"
     transform="translate(64.5,572.5)">
    <title
       id="title27">2n4[0, 1]-&gt;3MERGE[1, 2]</title>
    <path
       fill="none"
       stroke="#ff0000"
       d="m 83.1,-308.31 c 5.84,8.28 12.96,18.4 19.45,27.62"
       id="path27" />
    <polygon
       fill="#ff0000"
       stroke="#ff0000"
       points="105.24,-282.96 108.14,-272.77 99.52,-278.93 "
       id="polygon27" />
  </g>
  <g
     id="edge8"
     class="edge"
     transform="translate(64.5,572.5)">
    <title
       id="title28">2n4[1, 2]-&gt;3MERGE[1, 2]</title>
    <path
       fill="none"
       stroke="#000000"
       d="m 158.9,-308.31 c -5.84,8.28 -12.96,18.4 -19.45,27.62"
       id="path28" />
    <polygon
       fill="#000000"
       stroke="#000000"
       points="142.48,-278.93 133.86,-272.77 136.76,-282.96 "
       id="polygon28" />
  </g>
  <rect
     style="fill:#d3d3d3;fill-opacity:1;stroke:none;stroke-width:15;stroke-linecap:round;stroke-linejoin:round"
     id="rect42-3"
     width="71.771095"
     height="36"
     x="3.7517378"
     y="155"
     ry="12.745687" />
  <text
     text-anchor="middle"
     x="38.895"
     y="168.961"
     font-family="Times, serif"
     font-size="14px"
     id="text29"><tspan
       sodipodi:role="line"
       id="tspan41"
       x="38.895"
       y="168.961">2-extrusion</tspan><tspan
       sodipodi:role="line"
       x="38.895"
       y="186.461"
       id="tspan42">Face</tspan></text>
  <g
     id="node14"
     class="node"
     transform="translate(64.5,572.5)">
    <title
       id="title30">3n2[1, 2]</title>
    <polygon
       fill="none"
       stroke="#000000"
       points="148,-198.5 148,-162.5 94,-162.5 94,-198.5 "
       id="polygon30" />
    <text
       text-anchor="middle"
       x="120.75"
       y="-175.82001"
       font-family="Times, serif"
       font-size="14px"
       id="text30">⟨1, 2⟩</text>
  </g>
  <g
     id="edge9"
     class="edge"
     transform="translate(64.5,572.5)">
    <title
       id="title31">3MERGE[1, 2]-&gt;3n2[1, 2]</title>
    <path
       fill="none"
       stroke="#000000"
       d="m 121,-235.31 c 0,7.58 0,16.71 0,25.27"
       id="path31" />
    <polygon
       fill="#000000"
       stroke="#000000"
       points="124.5,-210.04 121,-200.04 117.5,-210.04 "
       id="polygon31" />
  </g>
  <g
     id="node13"
     class="node"
     transform="translate(-204,572.5)">
    <title
       id="title32">2n4</title>
    <polygon
       fill="#add8e6"
       stroke="#add8e6"
       points="216,-344.5 270,-344.5 270,-308.5 216,-308.5 "
       id="polygon32" />
    <text
       text-anchor="middle"
       x="243"
       y="-321.82001"
       font-family="Times, serif"
       font-size="14px"
       id="text32">n4</text>
  </g>
  <g
     id="node16"
     class="node"
     transform="translate(64.5,572.5)">
    <title
       id="title33">4CREATION[0, 1]</title>
    <path
       fill="none"
       stroke="#000000"
       d="m 86,-89.5 c 0,0 70,0 70,0 6,0 12,-6 12,-12 0,0 0,-12 0,-12 0,-6 -6,-12 -12,-12 0,0 -70,0 -70,0 -6,0 -12,6 -12,12 0,0 0,12 0,12 0,6 6,12 12,12"
       id="path33" />
    <text
       text-anchor="middle"
       x="121"
       y="-102.83"
       font-family="Times, serif"
       font-size="14px"
       id="text33">CREATION</text>
  </g>
  <g
     id="edge10"
     class="edge"
     transform="translate(64.5,572.5)">
    <title
       id="title34">3n2[1, 2]-&gt;4CREATION[0, 1]</title>
    <path
       fill="none"
       stroke="#ff0000"
       d="m 121,-162.31 c 0,7.58 0,16.71 0,25.27"
       id="path34" />
    <polygon
       fill="#ff0000"
       stroke="#ff0000"
       points="124.5,-137.04 121,-127.04 117.5,-137.04 "
       id="polygon34" />
  </g>
  <rect
     style="fill:#d3d3d3;fill-opacity:1;stroke:none;stroke-width:15;stroke-linecap:round;stroke-linejoin:round"
     id="rect42-6"
     width="78.00193"
     height="36"
     x="62.507919"
     y="300.99698"
     ry="12.745687" />
  <text
     text-anchor="middle"
     x="101.31288"
     y="314.95798"
     font-family="Times, serif"
     font-size="14px"
     id="text35"><tspan
       sodipodi:role="line"
       id="tspan3"
       x="101.31288"
       y="314.95798">3-contraction</tspan><tspan
       sodipodi:role="line"
       id="tspan4"
       x="101.31288"
       y="332.45798">Face</tspan></text>
  <g
     id="node18"
     class="node"
     transform="translate(64.5,572.5)">
    <title
       id="title36">4n2[0, 1]</title>
    <polygon
       fill="none"
       stroke="#000000"
       points="148,-52.5 148,-16.5 94,-16.5 94,-52.5 "
       id="polygon36" />
    <text
       text-anchor="middle"
       x="120.75"
       y="-29.82"
       font-family="Times, serif"
       font-size="14px"
       id="text36">⟨0, 1⟩</text>
  </g>
  <g
     id="edge11"
     class="edge"
     transform="translate(64.5,572.5)">
    <title
       id="title37">4CREATION[0, 1]-&gt;4n2[0, 1]</title>
    <path
       fill="none"
       stroke="#000000"
       d="m 121,-89.31 c 0,7.58 0,16.71 0,25.27"
       id="path37" />
    <polygon
       fill="#000000"
       stroke="#000000"
       points="124.5,-64.04 121,-54.04 117.5,-64.04 "
       id="polygon37" />
  </g>
  <g
     id="node17"
     class="node"
     transform="translate(-75,572.5)">
    <title
       id="title38">3n2</title>
    <polygon
       fill="#add8e6"
       stroke="#add8e6"
       points="220,-198.5 220,-162.5 166,-162.5 166,-198.5 "
       id="polygon38" />
    <text
       text-anchor="middle"
       x="193"
       y="-175.82001"
       font-family="Times, serif"
       font-size="14px"
       id="text38">n2</text>
  </g>
  <rect
     style="fill:#d3d3d3;fill-opacity:1;stroke:none;stroke-width:15;stroke-linecap:round;stroke-linejoin:round"
     id="rect42-6-7"
     width="78.00193"
     height="36"
     x="50.999039"
     y="447"
     ry="12.745687" />
  <text
     text-anchor="middle"
     x="90.021004"
     y="460.93301"
     font-family="Times, serif"
     font-size="14px"
     id="text39"><tspan
       sodipodi:role="line"
       id="tspan5"
       x="90.021004"
       y="460.93301">4-chanfrein</tspan><tspan
       sodipodi:role="line"
       id="tspan6"
       x="90.021004"
       y="478.43301">Sommet</tspan></text>
  <g
     id="node20"
     class="node"
     transform="translate(-75,572.5)">
    <title
       id="title40">4n2</title>
    <polygon
       fill="#add8e6"
       stroke="#add8e6"
       points="220,-52.5 220,-16.5 166,-16.5 166,-52.5 "
       id="polygon40" />
    <text
       text-anchor="middle"
       x="193"
       y="-29.82"
       font-family="Times, serif"
       font-size="14px"
       id="text40">n2</text>
  </g>
  <g
     id="g2">
    <rect
       style="fill:#d3d3d3;fill-opacity:1;stroke:none;stroke-width:15;stroke-linecap:round;stroke-linejoin:round"
       id="rect42"
       width="60.934658"
       height="36"
       x="30.18471"
       y="9"
       ry="12.745687" />
    <text
       text-anchor="middle"
       x="59.980038"
       y="22.933001"
       font-family="Times, serif"
       font-size="14px"
       id="text20"
       style="fill:#000000;fill-opacity:1;stroke:none"><tspan
         sodipodi:role="line"
         id="tspan1"
         x="59.980038"
         y="22.933001">1-creation</tspan><tspan
         sodipodi:role="line"
         id="tspan2"
         x="59.980038"
         y="40.432999">Carre</tspan></text>
  </g>
  <g
     id="g1"
     transform="translate(0.704742)">
    <text
       xml:space="preserve"
       style="font-style:normal;font-variant:normal;font-weight:normal;font-stretch:normal;font-size:20px;font-family:'Liberation Serif';-inkscape-font-specification:'Liberation Serif, Normal';font-variant-ligatures:normal;font-variant-caps:normal;font-variant-numeric:normal;font-variant-east-asian:normal;fill:#000000;fill-opacity:1;stroke:none;stroke-width:3;stroke-linecap:round;stroke-linejoin:miter;stroke-dasharray:none;stroke-opacity:0.8;stop-color:#000000"
       x="328.71909"
       y="33.855469"
       id="text7969"><tspan
         sodipodi:role="line"
         id="tspan7967"
         style="font-style:normal;font-variant:normal;font-weight:normal;font-stretch:normal;font-size:20px;font-family:'Liberation Serif';-inkscape-font-specification:'Liberation Serif, Normal';font-variant-ligatures:normal;font-variant-caps:normal;font-variant-numeric:normal;font-variant-east-asian:normal;stroke-width:3"
         x="328.71909"
         y="33.855469">Niveau événement 1</tspan></text>
    <text
       xml:space="preserve"
       style="font-style:normal;font-variant:normal;font-weight:normal;font-stretch:normal;font-size:20px;font-family:'Liberation Serif';-inkscape-font-specification:'Liberation Serif, Normal';font-variant-ligatures:normal;font-variant-caps:normal;font-variant-numeric:normal;font-variant-east-asian:normal;fill:#000000;fill-opacity:1;stroke:none;stroke-width:3;stroke-linecap:round;stroke-linejoin:miter;stroke-dasharray:none;stroke-opacity:0.8;stop-color:#000000"
       x="328.71909"
       y="471.89148"
       id="text7969-8"><tspan
         sodipodi:role="line"
         id="tspan7967-9"
         style="font-style:normal;font-variant:normal;font-weight:normal;font-stretch:normal;font-size:20px;font-family:'Liberation Serif';-inkscape-font-specification:'Liberation Serif, Normal';font-variant-ligatures:normal;font-variant-caps:normal;font-variant-numeric:normal;font-variant-east-asian:normal;stroke-width:3"
         x="328.71909"
         y="471.89148">Niveau événement 4</tspan></text>
    <text
       xml:space="preserve"
       style="font-style:normal;font-variant:normal;font-weight:normal;font-stretch:normal;font-size:20px;font-family:'Liberation Serif';-inkscape-font-specification:'Liberation Serif, Normal';font-variant-ligatures:normal;font-variant-caps:normal;font-variant-numeric:normal;font-variant-east-asian:normal;fill:#000000;fill-opacity:1;stroke:none;stroke-width:3;stroke-linecap:round;stroke-linejoin:miter;stroke-dasharray:none;stroke-opacity:0.8;stop-color:#000000"
       x="328.71909"
       y="106.8768"
       id="text7973"><tspan
         sodipodi:role="line"
         id="tspan7971"
         style="font-style:normal;font-variant:normal;font-weight:normal;font-stretch:normal;font-size:20px;font-family:'Liberation Serif';-inkscape-font-specification:'Liberation Serif, Normal';font-variant-ligatures:normal;font-variant-caps:normal;font-variant-numeric:normal;font-variant-east-asian:normal;stroke-width:3"
         x="328.71909"
         y="106.8768">Niveau orbite 1</tspan></text>
    <text
       xml:space="preserve"
       style="font-style:normal;font-variant:normal;font-weight:normal;font-stretch:normal;font-size:20px;font-family:'Liberation Serif';-inkscape-font-specification:'Liberation Serif, Normal';font-variant-ligatures:normal;font-variant-caps:normal;font-variant-numeric:normal;font-variant-east-asian:normal;fill:#000000;fill-opacity:1;stroke:none;stroke-width:3;stroke-linecap:round;stroke-linejoin:miter;stroke-dasharray:none;stroke-opacity:0.8;stop-color:#000000"
       x="328.71909"
       y="179.44193"
       id="text7969-1"><tspan
         sodipodi:role="line"
         id="tspan1892"
         x="328.71909"
         y="179.44193">Niveau événement 2</tspan></text>
    <text
       xml:space="preserve"
       style="font-style:normal;font-variant:normal;font-weight:normal;font-stretch:normal;font-size:20px;font-family:'Liberation Serif';-inkscape-font-specification:'Liberation Serif, Normal';font-variant-ligatures:normal;font-variant-caps:normal;font-variant-numeric:normal;font-variant-east-asian:normal;fill:#000000;fill-opacity:1;stroke:none;stroke-width:3;stroke-linecap:round;stroke-linejoin:miter;stroke-dasharray:none;stroke-opacity:0.8;stop-color:#000000"
       x="328.71909"
       y="252.8768"
       id="text7973-9"><tspan
         sodipodi:role="line"
         id="tspan1894"
         x="328.71909"
         y="252.8768">Niveau orbite 2</tspan></text>
    <text
       xml:space="preserve"
       style="font-style:normal;font-variant:normal;font-weight:normal;font-stretch:normal;font-size:20px;font-family:'Liberation Serif';-inkscape-font-specification:'Liberation Serif, Normal';font-variant-ligatures:normal;font-variant-caps:normal;font-variant-numeric:normal;font-variant-east-asian:normal;fill:#000000;fill-opacity:1;stroke:none;stroke-width:3;stroke-linecap:round;stroke-linejoin:miter;stroke-dasharray:none;stroke-opacity:0.8;stop-color:#000000"
       x="328.71909"
       y="325.89148"
       id="text7969-0"><tspan
         sodipodi:role="line"
         id="tspan1896"
         x="328.71909"
         y="325.89148">Niveau événement 3</tspan></text>
    <text
       xml:space="preserve"
       style="font-style:normal;font-variant:normal;font-weight:normal;font-stretch:normal;font-size:20px;font-family:'Liberation Serif';-inkscape-font-specification:'Liberation Serif, Normal';font-variant-ligatures:normal;font-variant-caps:normal;font-variant-numeric:normal;font-variant-east-asian:normal;fill:#000000;fill-opacity:1;stroke:none;stroke-width:3;stroke-linecap:round;stroke-linejoin:miter;stroke-dasharray:none;stroke-opacity:0.8;stop-color:#000000"
       x="328.71909"
       y="398.87683"
       id="text7973-8"><tspan
         sodipodi:role="line"
         id="tspan1898"
         x="328.71909"
         y="398.87683">Niveau orbite 3</tspan></text>
    <text
       xml:space="preserve"
       style="font-style:normal;font-variant:normal;font-weight:normal;font-stretch:normal;font-size:20px;font-family:'Liberation Serif';-inkscape-font-specification:'Liberation Serif, Normal';font-variant-ligatures:normal;font-variant-caps:normal;font-variant-numeric:normal;font-variant-east-asian:normal;fill:#000000;fill-opacity:1;stroke:none;stroke-width:3;stroke-linecap:round;stroke-linejoin:miter;stroke-dasharray:none;stroke-opacity:0.8;stop-color:#000000"
       x="328.95346"
       y="544.87683"
       id="text7973-8-5"><tspan
         sodipodi:role="line"
         id="tspan1898-3"
         x="328.95346"
         y="544.87683">Niveau orbite 4</tspan></text>
  </g>
</svg>
