<?xml version="1.0" encoding="UTF-8" standalone="no"?>
<!-- Created with Jerboa -->

<svg
   width="504.24789"
   height="391.76404"
   version="1.1"
   id="svg1"
   sodipodi:docname="cs2-8-reevaluation-coloration-strat-alternative.svg"
   inkscape:version="1.4 (e7c3feb100, 2024-10-09)"
   xmlns:inkscape="http://www.inkscape.org/namespaces/inkscape"
   xmlns:sodipodi="http://sodipodi.sourceforge.net/DTD/sodipodi-0.dtd"
   xmlns="http://www.w3.org/2000/svg"
   xmlns:svg="http://www.w3.org/2000/svg">
  <defs
     id="defs1" />
  <sodipodi:namedview
     id="namedview1"
     pagecolor="#ffffff"
     bordercolor="#000000"
     borderopacity="0.25"
     inkscape:showpageshadow="2"
     inkscape:pageopacity="0.0"
     inkscape:pagecheckerboard="0"
     inkscape:deskcolor="#d1d1d1"
     inkscape:zoom="1.8957403"
     inkscape:cx="241.59427"
     inkscape:cy="25.319924"
     inkscape:window-width="1892"
     inkscape:window-height="1035"
     inkscape:window-x="9"
     inkscape:window-y="26"
     inkscape:window-maximized="1"
     inkscape:current-layer="svg1"
     showgrid="false" />
  <style
     id="style">
		.arc0 {
			fill:none;
			fill-rule:evenodd;
			stroke:black;
			stroke-width:4;
			stroke-linecap:round;
			stroke-linejoin:round;
			stroke-opacity:1;
		}
		.arc1 {
			fill:none;
			fill-rule:evenodd;
			stroke:red;
			stroke-width:4;
			stroke-linecap:round;
			stroke-linejoin:round;
			stroke-opacity:1;
		}
		.arc2 {
			fill:none;
			fill-rule:evenodd;
			stroke:blue;
			stroke-width:4;
			stroke-linecap:round;
			stroke-linejoin:round;
			stroke-opacity:1;
		}
		.arc3 {
			fill:none;
			fill-rule:evenodd;
			stroke:green;
			stroke-width:4;
			stroke-linecap:round;
			stroke-linejoin:round;
			stroke-opacity:1;
		}
		.topological-dart {
			fill:#000000;
			stroke:#000000;
			stroke-width:0;
			stroke-linecap:round;
			stroke-linejoin:round;
			stroke-dasharray:none;
			paint-order:markers fill stroke;
		}
	</style>
  <polygon
     points="890.6144,443.3769 736.4881,224.24298 662.875,220.07648 630.1144,428.63266 690.82336,514.9476 877.7103,525.5253 "
     id="face_13_14_15_20_19_18"
     style="fill:#c0c0c0;stroke:none"
     opacity="1"
     transform="translate(-408.43954,-190.95209)" />
  <line
     class="arc1"
     id="link18_@1_19"
     x1="282.38382"
     y1="323.99548"
     x2="221.67484"
     y2="237.68057" />
  <line
     class="arc2"
     id="link18_@2_0"
     x1="282.38382"
     y1="323.99548"
     x2="269.10471"
     y2="350.06641" />
  <line
     class="arc0"
     id="link18_@0_13"
     x1="282.38382"
     y1="323.99548"
     x2="469.27078"
     y2="334.57324" />
  <polygon
     points="890.23944,562.1785 768.8737,578.4668 647.45557,580.7161 460.56863,570.1384 434.7605,559.55615 556.1262,543.2679 677.54425,541.0185 864.4312,551.59625 "
     id="face_7_6_5_4_3_2_1_0"
     style="fill:#c0c0c0;stroke:none"
     opacity="1"
     transform="translate(-408.43954,-190.95209)" />
  <line
     class="arc1"
     id="link0_@1_1"
     x1="269.10471"
     y1="350.06641"
     x2="147.68668"
     y2="352.3158" />
  <line
     class="arc0"
     id="link0_@0_7"
     x1="269.10471"
     y1="350.06641"
     x2="455.99167"
     y2="360.64417" />
  <line
     class="arc2"
     id="link19_@2_24"
     x1="221.67484"
     y1="237.68057"
     x2="187.9476"
     y2="238.30542" />
  <line
     class="arc0"
     id="link19_@0_20"
     x1="221.67484"
     y1="237.68057"
     x2="254.43546"
     y2="29.12439" />
  <polygon
     points="581.34283,227.11713 427.2165,451.96155 414.31238,534.11 535.67816,517.8217 596.38715,429.2575 629.14777,220.70132 "
     id="face_25_30_29_28_23_24"
     style="fill:#c0c0c0;stroke:none"
     opacity="1"
     transform="translate(-408.43954,-190.95209)" />
  <line
     class="arc1"
     id="link24_@1_23"
     x1="187.9476"
     y1="238.30542"
     x2="127.23862"
     y2="326.86963" />
  <line
     class="arc0"
     id="link24_@0_25"
     x1="187.9476"
     y1="238.30542"
     x2="220.70822"
     y2="29.749237" />
  <line
     class="arc2"
     id="link23_@2_1"
     x1="127.23862"
     y1="326.86963"
     x2="147.68668"
     y2="352.3158" />
  <line
     class="arc0"
     id="link23_@0_28"
     x1="127.23862"
     y1="326.86963"
     x2="5.8728333"
     y2="343.1579" />
  <line
     class="arc0"
     id="link1_@0_2"
     x1="147.68668"
     y1="352.3158"
     x2="26.320953"
     y2="368.60406" />
  <line
     class="arc1"
     id="link13_@1_14"
     x1="469.27078"
     y1="334.57324"
     x2="482.17484"
     y2="252.4248" />
  <line
     class="arc2"
     id="link13_@2_7"
     x1="469.27078"
     y1="334.57324"
     x2="455.99167"
     y2="360.64417" />
  <line
     class="arc1"
     id="link7_@1_6"
     x1="455.99167"
     y1="360.64417"
     x2="481.7999"
     y2="371.22644" />
  <line
     class="arc2"
     id="link14_@2_9"
     x1="482.17484"
     y1="252.4248"
     x2="489.34384"
     y2="255.36432" />
  <line
     class="arc0"
     id="link14_@0_15"
     x1="482.17484"
     y1="252.4248"
     x2="328.04855"
     y2="33.290894" />
  <line
     class="arc1"
     id="link20_@1_15"
     x1="254.43546"
     y1="29.12439"
     x2="328.04855"
     y2="33.290894" />
  <line
     class="arc2"
     id="link20_@2_25"
     x1="254.43546"
     y1="29.12439"
     x2="220.70822"
     y2="29.749237" />
  <line
     class="arc1"
     id="link25_@1_30"
     x1="220.70822"
     y1="29.749237"
     x2="172.90329"
     y2="36.165039" />
  <line
     class="arc1"
     id="link28_@1_29"
     x1="5.8728333"
     y1="343.1579"
     x2="18.776947"
     y2="261.00946" />
  <line
     class="arc2"
     id="link28_@2_2"
     x1="5.8728333"
     y1="343.1579"
     x2="26.320953"
     y2="368.60406" />
  <polygon
     points="695.8522,233.5983 728.6127,469.02045 789.32166,555.3353 910.68744,539.0471 897.7834,446.3164 743.6571,227.18253 "
     id="face_10_45_44_43_8_9"
     style="fill:#c0c0c0;stroke:none"
     opacity="1"
     transform="translate(-408.43954,-190.95209)" />
  <line
     class="arc1"
     id="link9_@1_8"
     x1="489.34384"
     y1="255.36432"
     x2="502.24789"
     y2="348.09503" />
  <line
     class="arc0"
     id="link9_@0_10"
     x1="489.34384"
     y1="255.36432"
     x2="335.21756"
     y2="36.230438" />
  <line
     class="arc1"
     id="link2_@1_3"
     x1="26.320953"
     y1="368.60406"
     x2="52.129089"
     y2="379.18634" />
  <line
     class="arc2"
     id="link15_@2_10"
     x1="328.04855"
     y1="33.290894"
     x2="335.21756"
     y2="36.230438" />
  <line
     class="arc2"
     id="link6_@2_8"
     x1="481.7999"
     y1="371.22644"
     x2="502.24789"
     y2="348.09503" />
  <line
     class="arc0"
     id="link6_@0_5"
     x1="481.7999"
     y1="371.22644"
     x2="360.43417"
     y2="387.51471" />
  <line
     class="arc1"
     id="link10_@1_45"
     x1="335.21756"
     y1="36.230438"
     x2="287.41263"
     y2="42.64621" />
  <line
     class="arc2"
     id="link30_@2_35"
     x1="172.90329"
     y1="36.165039"
     x2="172.06143"
     y2="30.132568" />
  <line
     class="arc0"
     id="link30_@0_29"
     x1="172.90329"
     y1="36.165039"
     x2="18.776947"
     y2="261.00946" />
  <line
     class="arc0"
     id="link8_@0_43"
     x1="502.24789"
     y1="348.09503"
     x2="380.88211"
     y2="364.38324" />
  <line
     class="arc2"
     id="link29_@2_34"
     x1="18.776947"
     y1="261.00946"
     x2="17.935028"
     y2="254.97705" />
  <polygon
     points="410.43954,506.36078 524.1107,434.93854 584.8197,346.37433 625.27496,192.95209 580.501,221.08466 426.37457,445.92914 "
     id="face_34_16_17_22_21_35"
     style="fill:#c0c0c0;stroke:none"
     opacity="1"
     transform="translate(-408.43954,-190.95209)" />
  <line
     class="arc1"
     id="link35_@1_21"
     x1="172.06143"
     y1="30.132568"
     x2="216.83542"
     y2="2" />
  <line
     class="arc0"
     id="link35_@0_34"
     x1="172.06143"
     y1="30.132568"
     x2="17.935028"
     y2="254.97705" />
  <line
     class="arc1"
     id="link34_@1_16"
     x1="17.935028"
     y1="254.97705"
     x2="2"
     y2="315.40869" />
  <line
     class="arc2"
     id="link21_@2_26"
     x1="216.83542"
     y1="2"
     x2="237.28354"
     y2="3.1573486" />
  <line
     class="arc0"
     id="link21_@0_22"
     x1="216.83542"
     y1="2"
     x2="176.38016"
     y2="155.42224" />
  <polygon
     points="618.17194,440.2624 691.38776,522.2623 707.3227,461.8307 674.5622,226.40851 645.7231,194.10944 605.2678,347.53168 "
     id="face_27_32_31_39_40_26"
     style="fill:#0000ff;stroke:none"
     opacity="1"
     transform="translate(-408.43954,-190.95209)" />
  <line
     class="arc1"
     id="link26_@1_40"
     x1="237.28354"
     y1="3.1573486"
     x2="266.12265"
     y2="35.456421" />
  <line
     class="arc0"
     id="link26_@0_27"
     x1="237.28354"
     y1="3.1573486"
     x2="196.82828"
     y2="156.57959" />
  <line
     class="arc2"
     id="link16_@2_11"
     x1="2"
     y1="315.40869"
     x2="5.5845032"
     y2="341.16724" />
  <line
     class="arc0"
     id="link16_@0_17"
     x1="2"
     y1="315.40869"
     x2="115.67117"
     y2="243.98645" />
  <polygon
     points="601.3083,464.86346 674.5241,546.8635 629.75006,574.9961 442.86313,564.4184 414.02405,532.1193 527.6952,460.69702 "
     id="face_12_37_36_38_33_11"
     style="fill:#c0c0c0;stroke:none"
     opacity="1"
     transform="translate(-408.43954,-190.95209)" />
  <line
     class="arc1"
     id="link11_@1_33"
     x1="5.5845032"
     y1="341.16724"
     x2="34.423584"
     y2="373.46631" />
  <line
     class="arc0"
     id="link11_@0_12"
     x1="5.5845032"
     y1="341.16724"
     x2="119.25565"
     y2="269.74493" />
  <line
     class="arc2"
     id="link45_@2_40"
     x1="287.41263"
     y1="42.64621"
     x2="266.12265"
     y2="35.456421" />
  <line
     class="arc0"
     id="link45_@0_44"
     x1="287.41263"
     y1="42.64621"
     x2="320.17313"
     y2="278.06836" />
  <line
     class="arc2"
     id="link3_@2_33"
     x1="52.129089"
     y1="379.18634"
     x2="34.423584"
     y2="373.46631" />
  <line
     class="arc0"
     id="link3_@0_4"
     x1="52.129089"
     y1="379.18634"
     x2="239.01602"
     y2="389.76404" />
  <line
     class="arc0"
     id="link40_@0_39"
     x1="266.12265"
     y1="35.456421"
     x2="298.88315"
     y2="270.8786" />
  <line
     class="arc1"
     id="link22_@1_17"
     x1="176.38016"
     y1="155.42224"
     x2="115.67117"
     y2="243.98645" />
  <line
     class="arc2"
     id="link22_@2_27"
     x1="176.38016"
     y1="155.42224"
     x2="196.82828"
     y2="156.57959" />
  <line
     class="arc2"
     id="link17_@2_12"
     x1="115.67117"
     y1="243.98645"
     x2="119.25565"
     y2="269.74493" />
  <line
     class="arc1"
     id="link27_@1_32"
     x1="196.82828"
     y1="156.57959"
     x2="209.73239"
     y2="249.3103" />
  <line
     class="arc0"
     id="link33_@0_38"
     x1="34.423584"
     y1="373.46631"
     x2="221.31052"
     y2="384.04401" />
  <line
     class="arc1"
     id="link12_@1_37"
     x1="119.25565"
     y1="269.74493"
     x2="192.86874"
     y2="273.91138" />
  <line
     class="arc2"
     id="link32_@2_37"
     x1="209.73239"
     y1="249.3103"
     x2="192.86874"
     y2="273.91138" />
  <line
     class="arc0"
     id="link32_@0_31"
     x1="209.73239"
     y1="249.3103"
     x2="282.94821"
     y2="331.31024" />
  <line
     class="arc0"
     id="link37_@0_36"
     x1="192.86874"
     y1="273.91138"
     x2="266.08456"
     y2="355.91144" />
  <line
     class="arc1"
     id="link5_@1_4"
     x1="360.43417"
     y1="387.51471"
     x2="239.01602"
     y2="389.76404" />
  <line
     class="arc2"
     id="link5_@2_43"
     x1="360.43417"
     y1="387.51471"
     x2="380.88211"
     y2="364.38324" />
  <line
     class="arc1"
     id="link43_@1_44"
     x1="380.88211"
     y1="364.38324"
     x2="320.17313"
     y2="278.06836" />
  <line
     class="arc2"
     id="link4_@2_38"
     x1="239.01602"
     y1="389.76404"
     x2="221.31052"
     y2="384.04401" />
  <line
     class="arc2"
     id="link44_@2_39"
     x1="320.17313"
     y1="278.06836"
     x2="298.88315"
     y2="270.8786" />
  <line
     class="arc1"
     id="link39_@1_31"
     x1="298.88315"
     y1="270.8786"
     x2="282.94821"
     y2="331.31024" />
  <line
     class="arc1"
     id="link38_@1_36"
     x1="221.31052"
     y1="384.04401"
     x2="266.08456"
     y2="355.91144" />
  <line
     class="arc2"
     id="link31_@2_36"
     x1="282.94821"
     y1="331.31024"
     x2="266.08456"
     y2="355.91144" />
  <ellipse
     style="fill:#000000;stroke-width:1.33333;stroke-linecap:round"
     id="path1"
     cx="264.12265"
     cy="33.456421"
     rx="11.344324"
     ry="11.058105" />
  <g
     id="g1">
    <rect
       style="fill:#ffffff;fill-opacity:1;stroke-width:1.33333;stroke-linecap:round"
       id="rect1"
       width="50.196606"
       height="32.296715"
       x="231.11504"
       y="52.019302" />
    <text
       xml:space="preserve"
       style="font-size:37.3333px;font-family:'DejaVu Math TeX Gyre';-inkscape-font-specification:'DejaVu Math TeX Gyre';text-align:center;writing-mode:lr-tb;direction:ltr;text-anchor:middle;fill:#000000;fill-opacity:1;stroke-width:1.33333;stroke-linecap:round"
       x="256.33917"
       y="81.417587"
       id="text1"><tspan
         sodipodi:role="line"
         id="tspan1"
         x="256.33917"
         y="81.417587">40</tspan></text>
  </g>
</svg>
