<?xml version="1.0" encoding="UTF-8" standalone="no"?>
<!-- Created with Jerboa -->

<svg
   width="557.56268"
   height="433.0907"
   version="1.1"
   id="svg1"
   sodipodi:docname="cs2-5-reevaluation-triangulation.svg"
   inkscape:version="1.3.2 (091e20ef0f, 2023-11-25, custom)"
   xmlns:inkscape="http://www.inkscape.org/namespaces/inkscape"
   xmlns:sodipodi="http://sodipodi.sourceforge.net/DTD/sodipodi-0.dtd"
   xmlns="http://www.w3.org/2000/svg"
   xmlns:svg="http://www.w3.org/2000/svg">
  <defs
     id="defs1" />
  <sodipodi:namedview
     id="namedview1"
     pagecolor="#ffffff"
     bordercolor="#000000"
     borderopacity="0.25"
     inkscape:showpageshadow="2"
     inkscape:pageopacity="0.0"
     inkscape:pagecheckerboard="0"
     inkscape:deskcolor="#d1d1d1"
     inkscape:zoom="0.71439452"
     inkscape:cx="281.35714"
     inkscape:cy="149.07729"
     inkscape:window-width="1892"
     inkscape:window-height="1035"
     inkscape:window-x="9"
     inkscape:window-y="26"
     inkscape:window-maximized="1"
     inkscape:current-layer="svg1" />
  <style
     id="style">
		.arc0 {
			fill:none;
			fill-rule:evenodd;
			stroke:black;
			stroke-width:4;
			stroke-linecap:round;
			stroke-linejoin:round;
			stroke-opacity:1;
		}
		.arc1 {
			fill:none;
			fill-rule:evenodd;
			stroke:red;
			stroke-width:4;
			stroke-linecap:round;
			stroke-linejoin:round;
			stroke-opacity:1;
		}
		.arc2 {
			fill:none;
			fill-rule:evenodd;
			stroke:blue;
			stroke-width:4;
			stroke-linecap:round;
			stroke-linejoin:round;
			stroke-opacity:1;
		}
		.arc3 {
			fill:none;
			fill-rule:evenodd;
			stroke:green;
			stroke-width:4;
			stroke-linecap:round;
			stroke-linejoin:round;
			stroke-opacity:1;
		}
		.topological-dart {
			fill:#000000;
			stroke:#000000;
			stroke-width:0;
			stroke-linecap:round;
			stroke-linejoin:round;
			stroke-dasharray:none;
			paint-order:markers fill stroke;
		}
	</style>
  <polygon
     points="908.92615,455.88654 738.3735,213.39804 656.9149,208.7875 620.66284,439.57095 687.8421,535.085 894.6468,546.7901 "
     id="face_13_14_15_20_19_18"
     style="fill:#c0c0c0;stroke:none"
     opacity="1"
     transform="translate(-375.57581,-176.77228)" />
  <line
     class="arc1"
     id="link18_@1_19"
     x1="312.2663"
     y1="358.31274"
     x2="245.08704"
     y2="262.79868" />
  <line
     class="arc2"
     id="link18_@2_0"
     x1="312.2663"
     y1="358.31274"
     x2="297.57184"
     y2="387.16229" />
  <line
     class="arc0"
     id="link18_@0_13"
     x1="312.2663"
     y1="358.31274"
     x2="519.07098"
     y2="370.01782" />
  <polygon
     points="908.5112,587.34973 774.21063,605.37396 639.8522,607.863 433.0475,596.15796 404.4887,584.4478 538.78925,566.4236 673.14764,563.9346 879.9524,575.6396 "
     id="face_7_6_5_4_3_2_1_0"
     style="fill:#c0c0c0;stroke:none"
     opacity="1"
     transform="translate(-375.57581,-176.77228)" />
  <line
     class="arc1"
     id="link0_@1_1"
     x1="297.57184"
     y1="387.16229"
     x2="163.21344"
     y2="389.65131" />
  <line
     class="arc0"
     id="link0_@0_7"
     x1="297.57184"
     y1="387.16229"
     x2="504.37659"
     y2="398.86731" />
  <line
     class="arc2"
     id="link19_@2_24"
     x1="245.08704"
     y1="262.79868"
     x2="207.76526"
     y2="263.49011" />
  <line
     class="arc0"
     id="link19_@0_20"
     x1="245.08704"
     y1="262.79868"
     x2="281.33911"
     y2="32.015228" />
  <polygon
     points="566.6934,216.57849 396.14075,465.38617 381.8614,556.28973 516.1619,538.2655 583.34106,440.2624 619.5932,209.47891 "
     id="face_25_30_29_28_23_24"
     style="fill:#c0c0c0;stroke:none"
     opacity="1"
     transform="translate(-375.57581,-176.77228)" />
  <line
     class="arc1"
     id="link24_@1_23"
     x1="207.76526"
     y1="263.49011"
     x2="140.58612"
     y2="361.49323" />
  <line
     class="arc0"
     id="link24_@0_25"
     x1="207.76526"
     y1="263.49011"
     x2="244.0174"
     y2="32.706635" />
  <line
     class="arc2"
     id="link23_@2_1"
     x1="140.58612"
     y1="361.49323"
     x2="163.21344"
     y2="389.65131" />
  <line
     class="arc0"
     id="link23_@0_28"
     x1="140.58612"
     y1="361.49323"
     x2="6.2855835"
     y2="379.51746" />
  <line
     class="arc0"
     id="link1_@0_2"
     x1="163.21344"
     y1="389.65131"
     x2="28.912903"
     y2="407.67554" />
  <line
     class="arc1"
     id="link13_@1_14"
     x1="519.07098"
     y1="370.01782"
     x2="533.35034"
     y2="279.11426" />
  <line
     class="arc2"
     id="link13_@2_7"
     x1="519.07098"
     y1="370.01782"
     x2="504.37659"
     y2="398.86731" />
  <line
     class="arc1"
     id="link7_@1_6"
     x1="504.37659"
     y1="398.86731"
     x2="532.93542"
     y2="410.57745" />
  <line
     class="arc2"
     id="link14_@2_9"
     x1="533.35034"
     y1="279.11426"
     x2="541.28333"
     y2="282.36707" />
  <line
     class="arc0"
     id="link14_@0_15"
     x1="533.35034"
     y1="279.11426"
     x2="362.79767"
     y2="36.625763" />
  <line
     class="arc1"
     id="link20_@1_15"
     x1="281.33911"
     y1="32.015228"
     x2="362.79767"
     y2="36.625763" />
  <line
     class="arc2"
     id="link20_@2_25"
     x1="281.33911"
     y1="32.015228"
     x2="244.0174"
     y2="32.706635" />
  <line
     class="arc1"
     id="link25_@1_30"
     x1="244.0174"
     y1="32.706635"
     x2="191.11761"
     y2="39.806213" />
  <line
     class="arc1"
     id="link28_@1_29"
     x1="6.2855835"
     y1="379.51746"
     x2="20.564941"
     y2="288.61389" />
  <line
     class="arc2"
     id="link28_@2_2"
     x1="6.2855835"
     y1="379.51746"
     x2="28.912903"
     y2="407.67554" />
  <polygon
     points="693.40674,223.75046 729.6588,484.26315 796.8379,579.7772 931.1385,561.753 916.85913,459.13934 746.3066,216.65085 "
     id="face_10_45_44_43_8_9"
     style="fill:#c0c0c0;stroke:none"
     opacity="1"
     transform="translate(-375.57581,-176.77228)" />
  <line
     class="arc1"
     id="link9_@1_8"
     x1="541.28333"
     y1="282.36707"
     x2="555.56268"
     y2="384.98071" />
  <line
     class="arc0"
     id="link9_@0_10"
     x1="541.28333"
     y1="282.36707"
     x2="370.73077"
     y2="39.878571" />
  <line
     class="arc1"
     id="link2_@1_3"
     x1="28.912903"
     y1="407.67554"
     x2="57.47168"
     y2="419.38568" />
  <line
     class="arc2"
     id="link15_@2_10"
     x1="362.79767"
     y1="36.625763"
     x2="370.73077"
     y2="39.878571" />
  <line
     class="arc2"
     id="link6_@2_8"
     x1="532.93542"
     y1="410.57745"
     x2="555.56268"
     y2="384.98071" />
  <line
     class="arc0"
     id="link6_@0_5"
     x1="532.93542"
     y1="410.57745"
     x2="398.63483"
     y2="428.60168" />
  <line
     class="arc1"
     id="link10_@1_45"
     x1="370.73077"
     y1="39.878571"
     x2="317.83093"
     y2="46.97818" />
  <line
     class="arc2"
     id="link30_@2_35"
     x1="191.11761"
     y1="39.806213"
     x2="190.18597"
     y2="33.130859" />
  <line
     class="arc0"
     id="link30_@0_29"
     x1="191.11761"
     y1="39.806213"
     x2="20.564941"
     y2="288.61389" />
  <line
     class="arc0"
     id="link8_@0_43"
     x1="555.56268"
     y1="384.98071"
     x2="421.26208"
     y2="403.00494" />
  <line
     class="arc2"
     id="link29_@2_34"
     x1="20.564941"
     y1="288.61389"
     x2="19.63327"
     y2="281.93854" />
  <polygon
     points="377.5758,525.58307 503.36166,446.5489 570.54083,348.54575 615.3076,178.77228 565.7618,209.90314 395.20908,458.71082 "
     id="face_34_16_17_22_21_35"
     style="fill:#c0c0c0;stroke:none"
     opacity="1"
     transform="translate(-375.57581,-176.77228)" />
  <line
     class="arc1"
     id="link35_@1_21"
     x1="190.18597"
     y1="33.130859"
     x2="239.73181"
     y2="2" />
  <line
     class="arc0"
     id="link35_@0_34"
     x1="190.18597"
     y1="33.130859"
     x2="19.63327"
     y2="281.93854" />
  <line
     class="arc1"
     id="link34_@1_16"
     x1="19.63327"
     y1="281.93854"
     x2="2"
     y2="348.81079" />
  <line
     class="arc2"
     id="link21_@2_26"
     x1="239.73181"
     y1="2"
     x2="262.35925"
     y2="3.2807007" />
  <line
     class="arc0"
     id="link21_@0_22"
     x1="239.73181"
     y1="2"
     x2="194.96503"
     y2="171.77347" />
  <polygon
     points="607.44763,452.44012 688.46643,543.1794 706.09973,476.30713 669.8477,215.79434 637.93506,180.05298 593.1682,349.82645 "
     id="face_27_32_31_39_40_26"
     style="fill:#c0c0c0;stroke:none"
     opacity="1"
     transform="translate(-375.57581,-176.77228)" />
  <line
     class="arc1"
     id="link26_@1_40"
     x1="262.35925"
     y1="3.2807007"
     x2="294.27191"
     y2="39.022064" />
  <line
     class="arc0"
     id="link26_@0_27"
     x1="262.35925"
     y1="3.2807007"
     x2="217.59241"
     y2="173.05417" />
  <line
     class="arc2"
     id="link16_@2_11"
     x1="2"
     y1="348.81079"
     x2="5.9664612"
     y2="377.31464" />
  <line
     class="arc0"
     id="link16_@0_17"
     x1="2"
     y1="348.81079"
     x2="127.78586"
     y2="269.77661" />
  <polygon
     points="588.78674,479.66315 669.80554,570.40247 620.2597,601.5333 413.45496,589.82825 381.54227,554.0869 507.32816,475.0526 "
     id="face_12_37_36_38_33_11"
     style="fill:#c0c0c0;stroke:none"
     opacity="1"
     transform="translate(-375.57581,-176.77228)" />
  <line
     class="arc1"
     id="link11_@1_33"
     x1="5.9664612"
     y1="377.31464"
     x2="37.87915"
     y2="413.05597" />
  <line
     class="arc0"
     id="link11_@0_12"
     x1="5.9664612"
     y1="377.31464"
     x2="131.75235"
     y2="298.28033" />
  <line
     class="arc2"
     id="link45_@2_40"
     x1="317.83093"
     y1="46.97818"
     x2="294.27191"
     y2="39.022064" />
  <line
     class="arc0"
     id="link45_@0_44"
     x1="317.83093"
     y1="46.97818"
     x2="354.08301"
     y2="307.49088" />
  <line
     class="arc2"
     id="link3_@2_33"
     x1="57.47168"
     y1="419.38568"
     x2="37.87915"
     y2="413.05597" />
  <line
     class="arc0"
     id="link3_@0_4"
     x1="57.47168"
     y1="419.38568"
     x2="264.27637"
     y2="431.0907" />
  <line
     class="arc0"
     id="link40_@0_39"
     x1="294.27191"
     y1="39.022064"
     x2="330.52393"
     y2="299.53485" />
  <line
     class="arc1"
     id="link22_@1_17"
     x1="194.96503"
     y1="171.77347"
     x2="127.78586"
     y2="269.77661" />
  <line
     class="arc2"
     id="link22_@2_27"
     x1="194.96503"
     y1="171.77347"
     x2="217.59241"
     y2="173.05417" />
  <line
     class="arc2"
     id="link17_@2_12"
     x1="127.78586"
     y1="269.77661"
     x2="131.75235"
     y2="298.28033" />
  <line
     class="arc1"
     id="link27_@1_32"
     x1="217.59241"
     y1="173.05417"
     x2="231.87183"
     y2="275.66785" />
  <line
     class="arc0"
     id="link33_@0_38"
     x1="37.87915"
     y1="413.05597"
     x2="244.6839"
     y2="424.76105" />
  <line
     class="arc1"
     id="link12_@1_37"
     x1="131.75235"
     y1="298.28033"
     x2="213.21094"
     y2="302.89087" />
  <line
     class="arc2"
     id="link32_@2_37"
     x1="231.87183"
     y1="275.66785"
     x2="213.21094"
     y2="302.89087" />
  <line
     class="arc0"
     id="link32_@0_31"
     x1="231.87183"
     y1="275.66785"
     x2="312.89062"
     y2="366.4071" />
  <line
     class="arc0"
     id="link37_@0_36"
     x1="213.21094"
     y1="302.89087"
     x2="294.22974"
     y2="393.63019" />
  <line
     class="arc1"
     id="link5_@1_4"
     x1="398.63483"
     y1="428.60168"
     x2="264.27637"
     y2="431.0907" />
  <line
     class="arc2"
     id="link5_@2_43"
     x1="398.63483"
     y1="428.60168"
     x2="421.26208"
     y2="403.00494" />
  <line
     class="arc1"
     id="link43_@1_44"
     x1="421.26208"
     y1="403.00494"
     x2="354.08301"
     y2="307.49088" />
  <line
     class="arc2"
     id="link4_@2_38"
     x1="264.27637"
     y1="431.0907"
     x2="244.6839"
     y2="424.76105" />
  <line
     class="arc2"
     id="link44_@2_39"
     x1="354.08301"
     y1="307.49088"
     x2="330.52393"
     y2="299.53485" />
  <line
     class="arc1"
     id="link39_@1_31"
     x1="330.52393"
     y1="299.53485"
     x2="312.89062"
     y2="366.4071" />
  <line
     class="arc1"
     id="link38_@1_36"
     x1="244.6839"
     y1="424.76105"
     x2="294.22974"
     y2="393.63019" />
  <line
     class="arc2"
     id="link31_@2_36"
     x1="312.89062"
     y1="366.4071"
     x2="294.22974"
     y2="393.63019" />
</svg>
