<?xml version="1.0" encoding="UTF-8" standalone="no"?>
<!-- Generated by graphviz version 12.1.1 (0)
 -->

<!-- Title: ReevaluationTree Pages: 1 -->

<svg
   width="505.48633pt"
   height="564.81pt"
   viewBox="0 0 505.48633 564.80999"
   version="1.1"
   id="svg32"
   sodipodi:docname="cs2-pn12-dag-reeval.svg"
   inkscape:version="1.4 (e7c3feb100, 2024-10-09)"
   xmlns:inkscape="http://www.inkscape.org/namespaces/inkscape"
   xmlns:sodipodi="http://sodipodi.sourceforge.net/DTD/sodipodi-0.dtd"
   xmlns="http://www.w3.org/2000/svg"
   xmlns:svg="http://www.w3.org/2000/svg">
  <defs
     id="defs32" />
  <sodipodi:namedview
     id="namedview32"
     pagecolor="#ffffff"
     bordercolor="#000000"
     borderopacity="0.25"
     inkscape:showpageshadow="2"
     inkscape:pageopacity="0.0"
     inkscape:pagecheckerboard="0"
     inkscape:deskcolor="#d1d1d1"
     inkscape:document-units="pt"
     inkscape:zoom="0.70710678"
     inkscape:cx="223.44574"
     inkscape:cy="222.03153"
     inkscape:window-width="1892"
     inkscape:window-height="1035"
     inkscape:window-x="9"
     inkscape:window-y="26"
     inkscape:window-maximized="1"
     inkscape:current-layer="svg32"
     showgrid="false" />
  <g
     id="g2"
     transform="translate(18,718.50003)">
    <rect
       style="fill:#d3d3d3;fill-opacity:1;stroke:none;stroke-width:1.12985;stroke-linecap:square;stop-color:#000000"
       id="rect626-6-4"
       width="69.051544"
       height="36.000053"
       x="17.474228"
       y="-709.50006"
       ry="11.015945" />
    <text
       xml:space="preserve"
       style="font-style:normal;font-variant:normal;font-weight:normal;font-stretch:normal;font-size:14.0754px;font-family:Symbola;-inkscape-font-specification:'Symbola, Normal';font-variant-ligatures:normal;font-variant-caps:normal;font-variant-numeric:normal;font-variant-east-asian:normal;text-align:center;writing-mode:lr-tb;text-anchor:middle;fill:#000000;fill-opacity:1;fill-rule:nonzero;stroke:none;stroke-width:1.00537"
       id="text3762-7-4"
       x="51.603859"
       y="-692.60919"
       transform="scale(0.99465408,1.0053747)"><tspan
         sodipodi:role="line"
         id="tspan6166-5-7"
         x="51.603859"
         y="-692.60919"
         style="font-style:normal;font-variant:normal;font-weight:normal;font-stretch:normal;font-family:Times, serif;-inkscape-font-specification:'Times, serif';text-align:center;text-anchor:middle;stroke-width:1.00537">1-creation</tspan><tspan
         sodipodi:role="line"
         x="51.603859"
         y="-673.58099"
         style="font-style:normal;font-variant:normal;font-weight:normal;font-stretch:normal;font-family:Times, serif;-inkscape-font-specification:'Times, serif';text-align:center;text-anchor:middle;stroke-width:1.00537"
         id="tspan7">Carre</tspan></text>
  </g>
  <path
     fill="none"
     stroke="#000000"
     d="m 44.5,53.5 c 0,0 270,0 270,0 6,0 12,-6 12,-12 0,0 0,-29 0,-29 0,-6 -6,-12 -12,-12 0,0 -270,0 -270,0 -6,0 -12,6 -12,12 0,0 0,29 0,29 0,6 6,12 12,12"
     id="path2" />
  <polygon
     fill="none"
     stroke="#000000"
     points="262,-353 262,-300 48,-300 48,-353 "
     id="polygon3"
     transform="translate(4.5,426.5)" />
  <path
     fill="none"
     stroke="#000000"
     d="m 12.5,199.5 282.93824,-0.899 c 5.99996,-0.0191 12,-6 12,-12 v -29 c 0,-6 -6.00004,-12.01906 -12,-12 L 12.5,146.5 c -5.9999701,0.0191 -12,6 -12,12 v 29 c 0,6 6,12 12,12"
     id="path4"
     sodipodi:nodetypes="csssssssc" />
  <polygon
     fill="none"
     stroke="#000000"
     points="278,-207 278,-154 8,-154 8,-207 "
     id="polygon5"
     transform="translate(4.5,426.5)" />
  <path
     fill="none"
     stroke="#000000"
     d="m 123,45 c 0,0 70,0 70,0 6,0 12,-6 12,-12 0,0 0,-12 0,-12 0,-6 -6,-12 -12,-12 0,0 -70,0 -70,0 -6,0 -12,6 -12,12 0,0 0,12 0,12 0,6 6,12 12,12"
     id="path8" />
  <text
     text-anchor="middle"
     x="158"
     y="31.679993"
     font-family="Times, serif"
     font-size="14px"
     id="text8">CREATION</text>
  <polygon
     fill="none"
     stroke="#000000"
     points="56,-308.5 56,-344.5 110,-344.5 110,-308.5 "
     id="polygon9"
     transform="translate(75,426.5)" />
  <text
     text-anchor="middle"
     x="157.75"
     y="104.67999"
     font-family="Times, serif"
     font-size="14px"
     id="text9">⟨0, 1⟩</text>
  <path
     fill="none"
     stroke="#000000"
     d="m 158,45.19 c 0,7.58 0,16.71 0,25.27"
     id="path10" />
  <polygon
     fill="#000000"
     stroke="#000000"
     points="83,-346.04 79.5,-356.04 86.5,-356.04 "
     id="polygon10"
     transform="translate(75,426.5)" />
  <path
     fill="none"
     stroke="#000000"
     d="m 103,191 c 0,0 70,0 70,0 6,0 12,-6 12,-12 0,0 0,-12 0,-12 0,-6 -6,-12 -12,-12 0,0 -70,0 -70,0 -6,0 -12,6 -12,12 0,0 0,12 0,12 0,6 6,12 12,12"
     id="path11" />
  <text
     text-anchor="middle"
     x="138"
     y="177.67999"
     font-family="Times, serif"
     font-size="14px"
     id="text11">CREATION</text>
  <path
     fill="none"
     stroke="#ff0000"
     d="m 153.16,118.19 c -2.19,7.76 -4.83,17.13 -7.29,25.86"
     id="path12" />
  <polygon
     fill="#ff0000"
     stroke="#ff0000"
     points="68.21,-272.99 67.55,-283.56 74.29,-281.66 "
     id="polygon12"
     transform="translate(75,426.5)" />
  <path
     fill="none"
     stroke="#000000"
     d="m 235,45 c 0,0 70,0 70,0 6,0 12,-6 12,-12 0,0 0,-12 0,-12 0,-6 -6,-12 -12,-12 0,0 -70,0 -70,0 -6,0 -12,6 -12,12 0,0 0,12 0,12 0,6 6,12 12,12"
     id="path13" />
  <text
     text-anchor="middle"
     x="270"
     y="31.679993"
     font-family="Times, serif"
     font-size="14px"
     id="text13">CREATION</text>
  <polygon
     fill="none"
     stroke="#000000"
     points="128,-308.5 128,-344.5 182,-344.5 182,-308.5 "
     id="polygon14"
     transform="translate(75,426.5)" />
  <text
     text-anchor="middle"
     x="229.75"
     y="104.67999"
     font-family="Times, serif"
     font-size="14px"
     id="text14">⟨1⟩</text>
  <path
     fill="none"
     stroke="#000000"
     d="m 260.32,45.19 c -4.57,8.11 -10.13,17.97 -15.23,27.03"
     id="path15" />
  <polygon
     fill="#000000"
     stroke="#000000"
     points="165.34,-345.85 167.2,-356.28 173.29,-352.84 "
     id="polygon15"
     transform="translate(75,426.5)" />
  <path
     fill="none"
     stroke="#000000"
     d="m 215,191 c 0,0 70,0 70,0 6,0 12,-6 12,-12 0,0 0,-12 0,-12 0,-6 -6,-12 -12,-12 0,0 -70,0 -70,0 -6,0 -12,6 -12,12 0,0 0,12 0,12 0,6 6,12 12,12"
     id="path16" />
  <text
     text-anchor="middle"
     x="250"
     y="177.67999"
     font-family="Times, serif"
     font-size="14px"
     id="text16">CREATION</text>
  <path
     fill="none"
     stroke="#ff0000"
     d="m 234.84,118.19 c 2.19,7.76 4.83,17.13 7.29,25.86"
     id="path17" />
  <polygon
     fill="#ff0000"
     stroke="#ff0000"
     points="169.79,-272.99 163.71,-281.66 170.45,-283.56 "
     id="polygon17"
     transform="translate(75,426.5)" />
  <polygon
     fill="none"
     stroke="#000000"
     points="16.5,-162.5 16.5,-198.5 125.5,-198.5 125.5,-162.5 "
     id="polygon19"
     transform="translate(75,426.5)" />
  <text
     text-anchor="middle"
     x="146"
     y="250.67999"
     font-family="Times, serif"
     font-size="14px"
     id="text19">@1.@2.⟨0, 1⟩</text>
  <path
     fill="none"
     stroke="#000000"
     d="m 139.94,191.19 c 0.86,7.67 1.9,16.92 2.88,25.57"
     id="path20" />
  <polygon
     fill="#000000"
     stroke="#000000"
     points="68.91,-200.03 64.31,-209.58 71.27,-210.36 "
     id="polygon20"
     transform="translate(75,426.5)" />
  <polygon
     fill="none"
     stroke="#000000"
     points="144,-162.5 144,-198.5 198,-198.5 198,-162.5 "
     id="polygon21"
     transform="translate(75,426.5)" />
  <text
     text-anchor="middle"
     x="245.75"
     y="250.67999"
     font-family="Times, serif"
     font-size="14px"
     id="text21">⟨1, 2⟩</text>
  <path
     fill="none"
     stroke="#000000"
     d="m 249.03,191.19 c -0.43,7.67 -0.95,16.92 -1.44,25.57"
     id="path22" />
  <polygon
     fill="#000000"
     stroke="#000000"
     points="172.04,-200.04 169.11,-210.22 176.1,-209.83 "
     id="polygon22"
     transform="translate(75,426.5)" />
  <polygon
     fill="#add8e6"
     stroke="#add8e6"
     points="200,-344.5 254,-344.5 254,-308.5 200,-308.5 "
     id="polygon23"
     transform="translate(-138.5,426.5)" />
  <text
     text-anchor="middle"
     x="88.5"
     y="104.67999"
     font-family="Times, serif"
     font-size="14px"
     id="text23">4</text>
  <path
     fill="none"
     stroke="#000000"
     d="m 233.9,264.19 c -5.84,8.28 -12.96,18.4 -19.45,27.62"
     id="path26" />
  <polygon
     fill="#000000"
     stroke="#000000"
     points="133.86,-126.77 136.76,-136.96 142.48,-132.93 "
     id="polygon26"
     transform="translate(75,426.5)" />
  <path
     fill="#d3d3d3"
     stroke="#d3d3d3"
     d="m 22.585856,191 h 50.795988 c 6,0 12,-6 12,-12 v -12 c 0,-6 -6,-12 -12,-12 H 22.585856 c -6,0 -12,6 -12,12 v 12 c 0,6 6,12 12,12"
     id="path27"
     sodipodi:nodetypes="csssssssc" />
  <text
     text-anchor="middle"
     x="47.878849"
     y="168.961"
     font-family="Times, serif"
     font-size="14px"
     id="text27"><tspan
       sodipodi:role="line"
       id="tspan2"
       x="47.878849"
       y="168.961">2-extrusion</tspan><tspan
       sodipodi:role="line"
       id="tspan3"
       x="47.878849"
       y="186.461">Face</tspan></text>
  <polygon
     fill="#add8e6"
     stroke="#add8e6"
     points="216,-198.5 270,-198.5 270,-162.5 216,-162.5 "
     id="polygon30"
     transform="translate(-194.5,426.5)" />
  <text
     text-anchor="middle"
     x="48.5"
     y="250.67999"
     font-family="Times, serif"
     font-size="14px"
     id="text30">40</text>
  <path
     fill="none"
     stroke="#000000"
     d="m 79,345.5 h 151.03126 c 6,0 12,-6 12,-12 v -29 c 0,-6 -6,-12 -12,-12 H 79 c -6,0 -12,6 -12,12 v 29 c 0,6 6,12 12,12"
     id="path6"
     sodipodi:nodetypes="csssssssc" />
  <polygon
     fill="none"
     stroke="#000000"
     points="228,-61 228,-8 86,-8 86,-61 "
     id="polygon7"
     transform="translate(4.5,426.5)" />
  <path
     fill="none"
     stroke="#000000"
     d="m 171.5,337 c 0,0 49,0 49,0 6,0 12,-6 12,-12 0,0 0,-12 0,-12 0,-6 -6,-12 -12,-12 0,0 -49,0 -49,0 -6,0 -12,6 -12,12 0,0 0,12 0,12 0,6 6,12 12,12"
     id="path24" />
  <text
     text-anchor="middle"
     x="196"
     y="323.66998"
     font-family="Times, serif"
     font-size="14px"
     id="text24">MERGE</text>
  <polygon
     fill="none"
     stroke="#000000"
     points="94,-16.5 94,-52.5 148,-52.5 148,-16.5 "
     id="polygon28"
     transform="translate(75,426.5)" />
  <text
     text-anchor="middle"
     x="195.75"
     y="396.67999"
     font-family="Times, serif"
     font-size="14px"
     id="text28">⟨1, 2⟩</text>
  <path
     fill="none"
     stroke="#000000"
     d="m 196,337.19 c 0,7.58 0,16.71 0,25.27"
     id="path29" />
  <polygon
     fill="#000000"
     stroke="#000000"
     points="124.5,-64.04 121,-54.04 117.5,-64.04 "
     id="polygon29"
     transform="translate(75,426.5)" />
  <path
     fill="none"
     stroke="#000000"
     d="m 196,410.19 c 0,7.58 0,16.71 0,25.27"
     id="path29-9" />
  <polygon
     fill="#000000"
     stroke="#000000"
     points="121,-54.04 117.5,-64.04 124.5,-64.04 "
     id="polygon29-2"
     transform="translate(75,499.5)" />
  <path
     fill="#d3d3d3"
     stroke="#d3d3d3"
     d="m 87.696785,336.98698 h 55.571225 c 6,0 12,-6 12,-12 v -12 c 0,-6 -6,-12 -12,-12 H 87.696785 c -6,0 -12,6 -12,12 v 12 c 0,6 6,12 12,12"
     id="path31"
     sodipodi:nodetypes="csssssssc" />
  <text
     text-anchor="middle"
     x="115.2864"
     y="314.94797"
     font-family="Times, serif"
     font-size="14px"
     id="text31"><tspan
       sodipodi:role="line"
       id="tspan1"
       x="115.2864"
       y="314.94797">3-contraction</tspan><tspan
       sodipodi:role="line"
       id="tspan4"
       x="115.2864"
       y="332.44797">Face</tspan></text>
  <polygon
     fill="#add8e6"
     stroke="#add8e6"
     points="166,-52.5 220,-52.5 220,-16.5 166,-16.5 "
     id="polygon32"
     transform="translate(-66.5,426.5)" />
  <text
     text-anchor="middle"
     x="126.5"
     y="396.67999"
     font-family="Times, serif"
     font-size="14px"
     id="text32">40</text>
  <path
     fill="none"
     stroke="#000000"
     d="M 69.513051,491.5 H 241.69451 c 6,0 12,-6 12,-12 v -29 c 0,-6 -6,-12 -12,-12 H 69.513051 c -6,0 -12,6 -12,12 v 29 c 0,6 6,12 12,12"
     id="path6-7"
     sodipodi:nodetypes="csssssssc" />
  <path
     fill="none"
     stroke="#000000"
     d="m 160.2339,483 h 71.5322 c 6,0 12,-6 12,-12 v -12 c 0,-6 -6,-12 -12,-12 h -71.5322 c -6,0 -12,6 -12,12 v 12 c 0,6 6,12 12,12"
     id="path24-9"
     sodipodi:nodetypes="csssssssc"
     style="stroke:#fe0000;stroke-opacity:1" />
  <text
     text-anchor="middle"
     x="196.02101"
     y="469.66998"
     font-family="Times, serif"
     font-size="14px"
     id="text24-1">NOCREATION</text>
  <path
     fill="#d3d3d3"
     stroke="#d3d3d3"
     d="m 80.079981,483 h 47.324129 c 6,0 12,-6 12,-12 v -12 c 0,-6 -6,-12 -12,-12 H 80.079981 c -6,0 -12,6 -12,12 v 12 c 0,6 6,12 12,12"
     id="path31-1"
     sodipodi:nodetypes="csssssssc" />
  <text
     text-anchor="middle"
     x="103.76305"
     y="460.93301"
     font-family="Times, serif"
     font-size="14px"
     id="text31-8"><tspan
       sodipodi:role="line"
       id="tspan5"
       x="103.76305"
       y="460.93301">4-chanfrein</tspan><tspan
       sodipodi:role="line"
       id="tspan6"
       x="103.76305"
       y="478.43301">Sommet</tspan></text>
  <text
     xml:space="preserve"
     style="font-style:normal;font-variant:normal;font-weight:normal;font-stretch:normal;font-size:20px;font-family:'Liberation Serif';-inkscape-font-specification:'Liberation Serif, Normal';font-variant-ligatures:normal;font-variant-caps:normal;font-variant-numeric:normal;font-variant-east-asian:normal;fill:#000000;fill-opacity:1;stroke:none;stroke-width:3;stroke-linecap:round;stroke-linejoin:miter;stroke-dasharray:none;stroke-opacity:0.8;stop-color:#000000"
     x="341.42383"
     y="33.855469"
     id="text7969"><tspan
       sodipodi:role="line"
       id="tspan7967"
       style="font-style:normal;font-variant:normal;font-weight:normal;font-stretch:normal;font-size:20px;font-family:'Liberation Serif';-inkscape-font-specification:'Liberation Serif, Normal';font-variant-ligatures:normal;font-variant-caps:normal;font-variant-numeric:normal;font-variant-east-asian:normal;stroke-width:3"
       x="341.42383"
       y="33.855469">Niveau événement 1</tspan></text>
  <text
     xml:space="preserve"
     style="font-style:normal;font-variant:normal;font-weight:normal;font-stretch:normal;font-size:20px;font-family:'Liberation Serif';-inkscape-font-specification:'Liberation Serif, Normal';font-variant-ligatures:normal;font-variant-caps:normal;font-variant-numeric:normal;font-variant-east-asian:normal;fill:#000000;fill-opacity:1;stroke:none;stroke-width:3;stroke-linecap:round;stroke-linejoin:miter;stroke-dasharray:none;stroke-opacity:0.8;stop-color:#000000"
     x="341.42383"
     y="471.85547"
     id="text7969-8"><tspan
       sodipodi:role="line"
       id="tspan7967-9"
       style="font-style:normal;font-variant:normal;font-weight:normal;font-stretch:normal;font-size:20px;font-family:'Liberation Serif';-inkscape-font-specification:'Liberation Serif, Normal';font-variant-ligatures:normal;font-variant-caps:normal;font-variant-numeric:normal;font-variant-east-asian:normal;stroke-width:3"
       x="341.42383"
       y="471.85547">Niveau événement 4</tspan></text>
  <text
     xml:space="preserve"
     style="font-style:normal;font-variant:normal;font-weight:normal;font-stretch:normal;font-size:20px;font-family:'Liberation Serif';-inkscape-font-specification:'Liberation Serif, Normal';font-variant-ligatures:normal;font-variant-caps:normal;font-variant-numeric:normal;font-variant-east-asian:normal;fill:#000000;fill-opacity:1;stroke:none;stroke-width:3;stroke-linecap:round;stroke-linejoin:miter;stroke-dasharray:none;stroke-opacity:0.8;stop-color:#000000"
     x="341.42383"
     y="106.84082"
     id="text7973"><tspan
       sodipodi:role="line"
       id="tspan7971"
       style="font-style:normal;font-variant:normal;font-weight:normal;font-stretch:normal;font-size:20px;font-family:'Liberation Serif';-inkscape-font-specification:'Liberation Serif, Normal';font-variant-ligatures:normal;font-variant-caps:normal;font-variant-numeric:normal;font-variant-east-asian:normal;stroke-width:3"
       x="341.42383"
       y="106.84082">Niveau orbite 1</tspan></text>
  <text
     xml:space="preserve"
     style="font-style:normal;font-variant:normal;font-weight:normal;font-stretch:normal;font-size:20px;font-family:'Liberation Serif';-inkscape-font-specification:'Liberation Serif, Normal';font-variant-ligatures:normal;font-variant-caps:normal;font-variant-numeric:normal;font-variant-east-asian:normal;fill:#000000;fill-opacity:1;stroke:none;stroke-width:3;stroke-linecap:round;stroke-linejoin:miter;stroke-dasharray:none;stroke-opacity:0.8;stop-color:#000000"
     x="341.42383"
     y="179.40594"
     id="text7969-1"><tspan
       sodipodi:role="line"
       id="tspan1892"
       x="341.42383"
       y="179.40594">Niveau événement 2</tspan></text>
  <text
     xml:space="preserve"
     style="font-style:normal;font-variant:normal;font-weight:normal;font-stretch:normal;font-size:20px;font-family:'Liberation Serif';-inkscape-font-specification:'Liberation Serif, Normal';font-variant-ligatures:normal;font-variant-caps:normal;font-variant-numeric:normal;font-variant-east-asian:normal;fill:#000000;fill-opacity:1;stroke:none;stroke-width:3;stroke-linecap:round;stroke-linejoin:miter;stroke-dasharray:none;stroke-opacity:0.8;stop-color:#000000"
     x="341.42383"
     y="252.84082"
     id="text7973-9"><tspan
       sodipodi:role="line"
       id="tspan1894"
       x="341.42383"
       y="252.84082">Niveau orbite 2</tspan></text>
  <text
     xml:space="preserve"
     style="font-style:normal;font-variant:normal;font-weight:normal;font-stretch:normal;font-size:20px;font-family:'Liberation Serif';-inkscape-font-specification:'Liberation Serif, Normal';font-variant-ligatures:normal;font-variant-caps:normal;font-variant-numeric:normal;font-variant-east-asian:normal;fill:#000000;fill-opacity:1;stroke:none;stroke-width:3;stroke-linecap:round;stroke-linejoin:miter;stroke-dasharray:none;stroke-opacity:0.8;stop-color:#000000"
     x="341.42383"
     y="325.85547"
     id="text7969-0"><tspan
       sodipodi:role="line"
       id="tspan1896"
       x="341.42383"
       y="325.85547">Niveau événement 3</tspan></text>
  <text
     xml:space="preserve"
     style="font-style:normal;font-variant:normal;font-weight:normal;font-stretch:normal;font-size:20px;font-family:'Liberation Serif';-inkscape-font-specification:'Liberation Serif, Normal';font-variant-ligatures:normal;font-variant-caps:normal;font-variant-numeric:normal;font-variant-east-asian:normal;fill:#000000;fill-opacity:1;stroke:none;stroke-width:3;stroke-linecap:round;stroke-linejoin:miter;stroke-dasharray:none;stroke-opacity:0.8;stop-color:#000000"
     x="341.42383"
     y="398.84082"
     id="text7973-8"><tspan
       sodipodi:role="line"
       id="tspan1898"
       x="341.42383"
       y="398.84082">Niveau orbite 3</tspan></text>
  <text
     xml:space="preserve"
     style="font-style:normal;font-variant:normal;font-weight:normal;font-stretch:normal;font-size:20px;font-family:'Liberation Serif';-inkscape-font-specification:'Liberation Serif, Normal';font-variant-ligatures:normal;font-variant-caps:normal;font-variant-numeric:normal;font-variant-east-asian:normal;fill:#000000;fill-opacity:1;stroke:none;stroke-width:3;stroke-linecap:round;stroke-linejoin:miter;stroke-dasharray:none;stroke-opacity:0.8;stop-color:#000000"
     x="341.6582"
     y="544.84082"
     id="text7973-8-5"><tspan
       sodipodi:role="line"
       id="tspan1898-3"
       x="341.6582"
       y="544.84082">Niveau orbite 4</tspan></text>
  <path
     fill="none"
     stroke="#ff0000"
     d="m 158.1,264.19 c 5.84,8.28 12.96,18.4 19.45,27.62"
     id="path25" />
  <polygon
     fill="#ff0000"
     stroke="#ff0000"
     points="108.14,-126.77 99.52,-132.93 105.24,-136.96 "
     id="polygon25"
     transform="translate(75,426.5)" />
</svg>
