<?xml version="1.0" encoding="UTF-8" standalone="no"?>
<!-- Generated by graphviz version 12.1.1 (0)
 -->

<!-- Title: ReevaluationTree Pages: 1 -->

<svg
   width="607.33655pt"
   height="711.8028pt"
   viewBox="0 0 607.33655 711.8028"
   version="1.1"
   id="svg51"
   sodipodi:docname="cs2-pn57-dag-reeval.svg"
   inkscape:version="1.4 (e7c3feb100, 2024-10-09)"
   xmlns:inkscape="http://www.inkscape.org/namespaces/inkscape"
   xmlns:sodipodi="http://sodipodi.sourceforge.net/DTD/sodipodi-0.dtd"
   xmlns="http://www.w3.org/2000/svg"
   xmlns:svg="http://www.w3.org/2000/svg">
  <defs
     id="defs51" />
  <sodipodi:namedview
     id="namedview51"
     pagecolor="#ffffff"
     bordercolor="#000000"
     borderopacity="0.25"
     inkscape:showpageshadow="2"
     inkscape:pageopacity="0.0"
     inkscape:pagecheckerboard="0"
     inkscape:deskcolor="#d1d1d1"
     inkscape:document-units="pt"
     showgrid="false"
     inkscape:zoom="0.83619485"
     inkscape:cx="223.63209"
     inkscape:cy="484.33687"
     inkscape:window-width="1892"
     inkscape:window-height="1035"
     inkscape:window-x="9"
     inkscape:window-y="26"
     inkscape:window-maximized="0"
     inkscape:current-layer="svg51" />
  <path
     fill="none"
     stroke="#000000"
     d="m 145.50094,53.207105 c 0,0 270,0 270,0 6,0 12,-6 12,-12 0,0 0,-29 0,-29 0,-6.0000003 -6,-12.00000026 -12,-12.00000026 0,0 -270,0 -270,0 -6,0 -12,5.99999996 -12,12.00000026 0,0 0,29 0,29 0,6 6,12 12,12"
     id="path2" />
  <polygon
     fill="none"
     stroke="#000000"
     points="140,-499 354,-499 354,-446 140,-446 "
     id="polygon3"
     transform="translate(13.500946,572.20711)" />
  <path
     fill="none"
     stroke="#000000"
     d="M 24.500946,199.20711 H 415.34971 c 6,0 12,-6 12,-12 v -29 c 0,-6 -6,-12 -12,-12 H 24.500946 c -6,0 -12,6 -12,12 v 29 c 0,6 6,12 12,12"
     id="path4"
     sodipodi:nodetypes="csssssssc" />
  <polygon
     fill="none"
     stroke="#000000"
     points="49,-353 373,-353 373,-300 49,-300 "
     id="polygon5"
     transform="translate(13.500946,572.20711)" />
  <path
     fill="none"
     stroke="#000000"
     d="M 14.000946,345.20711 H 320.32855 c 6,0 12,-6 12,-12 v -29 c 0,-6 -6,-12 -12,-12 H 14.000946 c -5.9999996,0 -11.9999996,6 -11.9999996,12 v 29 c 0,6 6,12 11.9999996,12"
     id="path6"
     sodipodi:nodetypes="csssssssc" />
  <polygon
     fill="none"
     stroke="#000000"
     points="73,-207 287,-207 287,-154 73,-154 "
     id="polygon7"
     transform="translate(13.500946,572.20711)" />
  <path
     fill="none"
     stroke="#000000"
     d="m 224.00094,44.707105 c 0,0 70,0 70,0 6,0 12,-6 12,-12 0,0 0,-12 0,-12 0,-6 -6,-12.0000003 -12,-12.0000003 0,0 -70,0 -70,0 -6,0 -12,6.0000003 -12,12.0000003 0,0 0,12 0,12 0,6 6,12 12,12"
     id="path10" />
  <text
     text-anchor="middle"
     x="259.00095"
     y="31.377087"
     font-family="Times, serif"
     font-size="14px"
     id="text10">CREATION</text>
  <polygon
     fill="none"
     stroke="#000000"
     points="202,-490.5 202,-454.5 148,-454.5 148,-490.5 "
     id="polygon11"
     transform="translate(84.000942,572.20711)" />
  <text
     text-anchor="middle"
     x="258.75095"
     y="104.38709"
     font-family="Times, serif"
     font-size="14px"
     id="text11">⟨0⟩</text>
  <path
     fill="none"
     stroke="#000000"
     d="m 224.00094,190.70711 c 0,0 70,0 70,0 6,0 12,-6 12,-12 0,0 0,-12 0,-12 0,-6 -6,-12 -12,-12 0,0 -70,0 -70,0 -6,0 -12,6 -12,12 0,0 0,12 0,12 0,6 6,12 12,12"
     id="path14" />
  <text
     text-anchor="middle"
     x="259.00095"
     y="177.38712"
     font-family="Times, serif"
     font-size="14px"
     id="text14">CREATION</text>
  <path
     fill="none"
     stroke="#000000"
     d="m 112.00094,190.70711 c 0,0 70,0 70,0 6,0 12,-6 12,-12 0,0 0,-12 0,-12 0,-6 -6,-12 -12,-12 0,0 -70,0 -70,0 -6,0 -12,6 -12,12 0,0 0,12 0,12 0,6 6,12 12,12"
     id="path17" />
  <text
     text-anchor="middle"
     x="147.00096"
     y="177.38712"
     font-family="Times, serif"
     font-size="14px"
     id="text17">CREATION</text>
  <path
     fill="none"
     stroke="#ff0000"
     d="m 231.66094,114.56711 c -16.3,9.51 -36.9,22.38 -53.76,33.49"
     id="path18" />
  <polygon
     fill="#ff0000"
     stroke="#ff0000"
     points="92.09,-427.15 95.98,-421.33 85.72,-418.68 "
     id="polygon18"
     transform="translate(84.000942,572.20711)" />
  <path
     fill="none"
     stroke="#000000"
     d="m 336.00094,44.707105 c 0,0 70,0 70,0 6,0 12,-6 12,-12 0,0 0,-12 0,-12 0,-6 -6,-12.0000003 -12,-12.0000003 0,0 -70,0 -70,0 -6,0 -12,6.0000003 -12,12.0000003 0,0 0,12 0,12 0,6 6,12 12,12"
     id="path20" />
  <text
     text-anchor="middle"
     x="371.00095"
     y="31.377087"
     font-family="Times, serif"
     font-size="14px"
     id="text20">CREATION</text>
  <polygon
     fill="none"
     stroke="#000000"
     points="274,-490.5 274,-454.5 220,-454.5 220,-490.5 "
     id="polygon21"
     transform="translate(84.000942,572.20711)" />
  <text
     text-anchor="middle"
     x="330.75095"
     y="104.38709"
     font-family="Times, serif"
     font-size="14px"
     id="text21">⟨⟩</text>
  <path
     fill="none"
     stroke="#000000"
     d="m 361.32094,44.897105 c -4.57,8.11 -10.13,17.97 -15.23,27.03"
     id="path22" />
  <polygon
     fill="#000000"
     stroke="#000000"
     points="259.2,-502.28 265.29,-498.84 257.34,-491.85 "
     id="polygon22"
     transform="translate(84.000942,572.20711)" />
  <path
     fill="none"
     stroke="#000000"
     d="m 336.00094,190.70711 c 0,0 70,0 70,0 6,0 12,-6 12,-12 0,0 0,-12 0,-12 0,-6 -6,-12 -12,-12 0,0 -70,0 -70,0 -6,0 -12,6 -12,12 0,0 0,12 0,12 0,6 6,12 12,12"
     id="path23" />
  <text
     text-anchor="middle"
     x="371.00095"
     y="177.38712"
     font-family="Times, serif"
     font-size="14px"
     id="text23">CREATION</text>
  <path
     fill="none"
     stroke="#ff0000"
     d="m 340.68094,117.89711 c 4.57,8.11 10.13,17.97 15.23,27.03"
     id="path24" />
  <polygon
     fill="#ff0000"
     stroke="#ff0000"
     points="268.71,-425.84 274.8,-429.28 276.66,-418.85 "
     id="polygon24"
     transform="translate(84.000942,572.20711)" />
  <rect
     style="fill:#d3d3d3;fill-opacity:1;stroke:none;stroke-width:15;stroke-linecap:round;stroke-linejoin:round"
     id="rect42"
     width="60.934658"
     height="36"
     x="140.03363"
     y="8.7071047"
     ry="12.745687" />
  <text
     text-anchor="middle"
     x="169.82896"
     y="22.640104"
     font-family="Times, serif"
     font-size="14px"
     id="text20-5"
     style="fill:#000000;fill-opacity:1;stroke:none"><tspan
       sodipodi:role="line"
       id="tspan1"
       x="169.82896"
       y="22.640104">1-creation</tspan><tspan
       sodipodi:role="line"
       id="tspan2"
       x="169.82896"
       y="40.140106">Carre</tspan></text>
  <polygon
     fill="none"
     stroke="#000000"
     points="220.5,-344.5 220.5,-308.5 129.5,-308.5 129.5,-344.5 "
     id="polygon26"
     transform="translate(84.000942,572.20711)" />
  <text
     text-anchor="middle"
     x="259.00095"
     y="250.38712"
     font-family="Times, serif"
     font-size="14px"
     id="text26">@1.@2.⟨0⟩</text>
  <path
     fill="none"
     stroke="#000000"
     d="m 259.00094,190.89711 c 0,7.58 0,16.71 0,25.27"
     id="path27" />
  <polygon
     fill="#000000"
     stroke="#000000"
     points="171.5,-356.04 178.5,-356.04 175,-346.04 "
     id="polygon27"
     transform="translate(84.000942,572.20711)" />
  <polygon
     fill="none"
     stroke="#000000"
     points="111,-344.5 111,-308.5 57,-308.5 57,-344.5 "
     id="polygon28"
     transform="translate(84.000942,572.20711)" />
  <text
     text-anchor="middle"
     x="167.75096"
     y="250.38712"
     font-family="Times, serif"
     font-size="14px"
     id="text28">⟨0, 1⟩</text>
  <path
     fill="none"
     stroke="#000000"
     d="m 152.08094,190.89711 c 2.3,7.76 5.07,17.13 7.65,25.86"
     id="path29" />
  <polygon
     fill="#000000"
     stroke="#000000"
     points="72.34,-354.58 79.05,-356.56 78.53,-345.98 "
     id="polygon29"
     transform="translate(84.000942,572.20711)" />
  <polygon
     fill="none"
     stroke="#000000"
     points="293,-344.5 293,-308.5 239,-308.5 239,-344.5 "
     id="polygon30"
     transform="translate(84.000942,572.20711)" />
  <text
     text-anchor="middle"
     x="349.75095"
     y="250.38712"
     font-family="Times, serif"
     font-size="14px"
     id="text30">⟨1⟩</text>
  <path
     fill="none"
     stroke="#000000"
     d="m 365.92094,190.89711 c -2.3,7.76 -5.07,17.13 -7.65,25.86"
     id="path31" />
  <polygon
     fill="#000000"
     stroke="#000000"
     points="270.95,-356.56 277.66,-354.58 271.47,-345.98 "
     id="polygon31"
     transform="translate(84.000942,572.20711)" />
  <polygon
     fill="#add8e6"
     stroke="#add8e6"
     points="346,-490.5 346,-454.5 292,-454.5 292,-490.5 "
     id="polygon32"
     transform="translate(-128.99906,572.20711)" />
  <text
     text-anchor="middle"
     x="190.00096"
     y="104.38709"
     font-family="Times, serif"
     font-size="14px"
     id="text32">4</text>
  <path
     fill="none"
     stroke="#000000"
     d="m 263.50094,336.70711 c 0,0 49,0 49,0 6,0 12,-6 12,-12 0,0 0,-12 0,-12 0,-6 -6,-12 -12,-12 0,0 -49,0 -49,0 -6,0 -12,6 -12,12 0,0 0,12 0,12 0,6 6,12 12,12"
     id="path33" />
  <text
     text-anchor="middle"
     x="288.00095"
     y="323.38708"
     font-family="Times, serif"
     font-size="14px"
     id="text33">MERGE</text>
  <path
     fill="none"
     stroke="#ff0000"
     d="m 266.02094,263.89711 c 3.21,7.85 7.08,17.34 10.68,26.15"
     id="path34" />
  <polygon
     fill="#ff0000"
     stroke="#ff0000"
     points="189.45,-280.86 195.93,-283.51 196.47,-272.93 "
     id="polygon34"
     transform="translate(84.000942,572.20711)" />
  <path
     fill="none"
     stroke="#000000"
     d="m 334.99094,263.89711 c -7.39,8.46 -16.44,18.83 -24.62,28.2"
     id="path35" />
  <polygon
     fill="#000000"
     stroke="#000000"
     points="223.81,-282.5 229.08,-277.9 219.87,-272.67 "
     id="polygon35"
     transform="translate(84.000942,572.20711)" />
  <path
     fill="none"
     stroke="#000000"
     d="m 115.00094,336.70711 c 0,0 106,0 106,0 6,0 12,-6 12,-12 0,0 0,-12 0,-12 0,-6 -6,-12 -12,-12 0,0 -106,0 -106,0 -6,0 -12,6 -12,12 0,0 0,12 0,12 0,6 6,12 12,12"
     id="path36" />
  <text
     text-anchor="middle"
     x="168.00096"
     y="323.38708"
     font-family="Times, serif"
     font-size="14px"
     id="text36">MODIFICATION</text>
  <path
     fill="none"
     stroke="#000000"
     d="m 168.00094,263.89711 c 0,7.58 0,16.71 0,25.27"
     id="path37" />
  <polygon
     fill="#000000"
     stroke="#000000"
     points="80.5,-283.04 87.5,-283.04 84,-273.04 "
     id="polygon37"
     transform="translate(84.000942,572.20711)" />
  <path
     fill="#d3d3d3"
     stroke="#d3d3d3"
     d="m 33.873281,190.70711 h 48.255331 c 6,0 12,-6 12,-12 v -12 c 0,-6 -6,-12 -12,-12 H 33.873281 c -6,0 -12,6 -12,12 v 12 c 0,6 6,12 12,12"
     id="path38"
     sodipodi:nodetypes="csssssssc" />
  <text
     text-anchor="middle"
     x="57.895947"
     y="168.66812"
     font-family="Times, serif"
     font-size="14px"
     id="text38"><tspan
       sodipodi:role="line"
       id="tspan51"
       x="57.895947"
       y="168.66812">2-extrusion</tspan><tspan
       sodipodi:role="line"
       id="tspan52"
       x="57.895947"
       y="186.16812">face</tspan></text>
  <polygon
     fill="none"
     stroke="#000000"
     points="207,-198.5 207,-162.5 153,-162.5 153,-198.5 "
     id="polygon39"
     transform="translate(84.000942,572.20711)" />
  <text
     text-anchor="middle"
     x="263.75095"
     y="396.38708"
     font-family="Times, serif"
     font-size="14px"
     id="text39">⟨1⟩</text>
  <path
     fill="none"
     stroke="#000000"
     d="m 282.19094,336.89711 c -2.65,7.85 -5.86,17.34 -8.84,26.15"
     id="path40" />
  <polygon
     fill="#000000"
     stroke="#000000"
     points="186.13,-210.56 192.76,-208.32 186.24,-199.96 "
     id="polygon40"
     transform="translate(84.000942,572.20711)" />
  <polygon
     fill="none"
     stroke="#000000"
     points="135,-198.5 135,-162.5 81,-162.5 81,-198.5 "
     id="polygon41"
     transform="translate(84.000942,572.20711)" />
  <text
     text-anchor="middle"
     x="191.75096"
     y="396.38708"
     font-family="Times, serif"
     font-size="14px"
     id="text41">⟨0, 1⟩</text>
  <path
     fill="none"
     stroke="#000000"
     d="m 173.81094,336.89711 c 2.65,7.85 5.86,17.34 8.84,26.15"
     id="path42" />
  <polygon
     fill="#000000"
     stroke="#000000"
     points="101.76,-199.96 95.24,-208.32 101.87,-210.56 "
     id="polygon42"
     transform="translate(84.000942,572.20711)" />
  <polygon
     fill="#add8e6"
     stroke="#add8e6"
     points="365,-308.5 311,-308.5 311,-344.5 365,-344.5 "
     id="polygon43"
     transform="translate(-238.49906,572.20711)" />
  <text
     text-anchor="middle"
     x="99.500954"
     y="250.38712"
     font-family="Times, serif"
     font-size="14px"
     id="text43">40</text>
  <path
     fill="#d3d3d3"
     stroke="#d3d3d3"
     d="m 22.126584,336.70711 h 59.836448 c 6,0 12,-6 12,-12 v -12 c 0,-6 -6,-12 -12,-12 H 22.126584 c -6,0 -11.999999,6 -11.999999,12 v 12 c 0,6 5.999999,12 11.999999,12"
     id="path46"
     sodipodi:nodetypes="csssssssc" />
  <text
     text-anchor="middle"
     x="51.848812"
     y="314.66809"
     font-family="Times, serif"
     font-size="14px"
     id="text46"><tspan
       sodipodi:role="line"
       id="tspan3"
       x="51.848812"
       y="314.66809">3-contraction</tspan><tspan
       sodipodi:role="line"
       id="tspan4"
       x="51.848812"
       y="332.16809">Face</tspan></text>
  <polygon
     fill="#add8e6"
     stroke="#add8e6"
     points="279,-198.5 279,-162.5 225,-162.5 225,-198.5 "
     id="polygon49"
     transform="translate(-128.99906,572.20711)" />
  <text
     text-anchor="middle"
     x="123.00095"
     y="396.38708"
     font-family="Times, serif"
     font-size="14px"
     id="text49">40</text>
  <path
     fill="none"
     stroke="#000000"
     d="m 259.09194,44.637995 c 0,7.58 0,16.71 0,25.27"
     id="path48-6" />
  <polygon
     fill="#000000"
     stroke="#000000"
     points="111.5,-64.04 108,-54.04 104.5,-64.04 "
     id="polygon48-1"
     transform="translate(151.09194,133.948)" />
  <path
     fill="none"
     stroke="#000000"
     d="m 258.75094,118.57532 c 0,7.58 0,16.71 0,25.27"
     id="path48-3"
     style="fill:#ff0000;fill-opacity:1;stroke:#fe0000;stroke-opacity:1" />
  <polygon
     fill="#000000"
     stroke="#000000"
     points="111.5,-64.04 108,-54.04 104.5,-64.04 "
     id="polygon48-19"
     style="fill:#ff0000;fill-opacity:1;stroke:#fe0000;stroke-opacity:1"
     transform="translate(150.75094,207.88532)" />
  <g
     id="g1"
     transform="translate(24.382052,0.50031501)">
    <path
       fill="none"
       stroke="#000000"
       d="M 15.996754,490.70679 H 375.0898 c 6,0 12,-6 12,-12 v -29 c 0,-6 -6,-12 -12,-12 H 15.996754 c -5.9999995,0 -11.9999995,6 -11.9999995,12 v 29 c 0,6 6,12 11.9999995,12"
       id="path8"
       sodipodi:nodetypes="csssssssc" />
    <polygon
       fill="#000000"
       stroke="#000000"
       points="101.76,-199.96 95.24,-208.32 101.87,-210.56 "
       id="polygon42-1"
       transform="translate(197.90747,644.51679)" />
    <g
       id="g52"
       transform="translate(-21.061805,-0.79321029)">
      <path
         fill="#d3d3d3"
         stroke="#d3d3d3"
         d="m 46.27928,483 h 76.5 c 6,0 12,-6 12,-12 v -12 c 0,-6 -6,-12 -12,-12 h -76.5 c -6,0 -12,6 -12,12 v 12 c 0,6 6,12 12,12"
         id="path50"
         sodipodi:nodetypes="csssssssc" />
    </g>
    <text
       text-anchor="middle"
       x="63.285477"
       y="460.09079"
       font-family="Times, serif"
       font-size="14px"
       id="text50"><tspan
         sodipodi:role="line"
         id="tspan5"
         x="63.285477"
         y="460.09079">DELETE 4-</tspan><tspan
         sodipodi:role="line"
         id="tspan6"
         x="63.285477"
         y="477.59079">chanfreinSommet</tspan></text>
    <path
       fill="none"
       stroke="#000000"
       d="m 143.21747,482.20679 c 0,0 106,0 106,0 6,0 12,-6 12,-12 0,0 0,-12 0,-12 0,-6 -6,-12 -12,-12 0,0 -106,0 -106,0 -6,0 -12,6 -12,12 0,0 0,12 0,12 0,6 6,12 12,12"
       id="path46-0" />
    <text
       text-anchor="middle"
       x="196.23848"
       y="468.88678"
       font-family="Times, serif"
       font-size="14px"
       id="text46-9">NOMODIFICATION</text>
    <polygon
       fill="#000000"
       stroke="#000000"
       points="186.13,-210.56 192.76,-208.32 186.24,-199.96 "
       id="polygon40-7"
       transform="rotate(-40.001411,1079.2912,99.89251)" />
    <path
       fill="none"
       stroke="#000000"
       d="m 288.96748,482.49186 h 77.09934 c 6,0 12,-6 12,-12 v -12 c 0,-6 -6,-12 -12,-12 h -77.09934 c -6,0 -12,6 -12,12 v 12 c 0,6 6,12 12,12"
       id="path44"
       sodipodi:nodetypes="csssssssc"
       style="stroke:#ff0000;stroke-opacity:1" />
    <text
       text-anchor="middle"
       x="327.53815"
       y="468.88678"
       font-family="Times, serif"
       font-size="14px"
       id="text44">NOCREATION</text>
  </g>
  <text
     xml:space="preserve"
     style="font-style:normal;font-variant:normal;font-weight:normal;font-stretch:normal;font-size:20px;font-family:'Liberation Serif';-inkscape-font-specification:'Liberation Serif, Normal';font-variant-ligatures:normal;font-variant-caps:normal;font-variant-numeric:normal;font-variant-east-asian:normal;fill:#000000;fill-opacity:1;stroke:none;stroke-width:3;stroke-linecap:round;stroke-linejoin:miter;stroke-dasharray:none;stroke-opacity:0.8;stop-color:#000000"
     x="442.27356"
     y="33.59856"
     id="text7969"><tspan
       sodipodi:role="line"
       id="tspan7967"
       style="font-style:normal;font-variant:normal;font-weight:normal;font-stretch:normal;font-size:20px;font-family:'Liberation Serif';-inkscape-font-specification:'Liberation Serif, Normal';font-variant-ligatures:normal;font-variant-caps:normal;font-variant-numeric:normal;font-variant-east-asian:normal;stroke-width:3"
       x="442.27356"
       y="33.59856">Niveau événement 1</tspan></text>
  <text
     xml:space="preserve"
     style="font-style:normal;font-variant:normal;font-weight:normal;font-stretch:normal;font-size:20px;font-family:'Liberation Serif';-inkscape-font-specification:'Liberation Serif, Normal';font-variant-ligatures:normal;font-variant-caps:normal;font-variant-numeric:normal;font-variant-east-asian:normal;fill:#000000;fill-opacity:1;stroke:none;stroke-width:3;stroke-linecap:round;stroke-linejoin:miter;stroke-dasharray:none;stroke-opacity:0.8;stop-color:#000000"
     x="442.27356"
     y="471.60855"
     id="text7969-8"><tspan
       sodipodi:role="line"
       id="tspan7967-9"
       style="font-style:normal;font-variant:normal;font-weight:normal;font-stretch:normal;font-size:20px;font-family:'Liberation Serif';-inkscape-font-specification:'Liberation Serif, Normal';font-variant-ligatures:normal;font-variant-caps:normal;font-variant-numeric:normal;font-variant-east-asian:normal;stroke-width:3"
       x="442.27356"
       y="471.60855">Niveau événement 4</tspan></text>
  <text
     xml:space="preserve"
     style="font-style:normal;font-variant:normal;font-weight:normal;font-stretch:normal;font-size:20px;font-family:'Liberation Serif';-inkscape-font-specification:'Liberation Serif, Normal';font-variant-ligatures:normal;font-variant-caps:normal;font-variant-numeric:normal;font-variant-east-asian:normal;fill:#000000;fill-opacity:1;stroke:none;stroke-width:3;stroke-linecap:round;stroke-linejoin:miter;stroke-dasharray:none;stroke-opacity:0.8;stop-color:#000000"
     x="442.27356"
     y="106.83926"
     id="text7973"><tspan
       sodipodi:role="line"
       id="tspan7971"
       style="font-style:normal;font-variant:normal;font-weight:normal;font-stretch:normal;font-size:20px;font-family:'Liberation Serif';-inkscape-font-specification:'Liberation Serif, Normal';font-variant-ligatures:normal;font-variant-caps:normal;font-variant-numeric:normal;font-variant-east-asian:normal;stroke-width:3"
       x="442.27356"
       y="106.83926">Niveau orbite 1</tspan></text>
  <text
     xml:space="preserve"
     style="font-style:normal;font-variant:normal;font-weight:normal;font-stretch:normal;font-size:20px;font-family:'Liberation Serif';-inkscape-font-specification:'Liberation Serif, Normal';font-variant-ligatures:normal;font-variant-caps:normal;font-variant-numeric:normal;font-variant-east-asian:normal;fill:#000000;fill-opacity:1;stroke:none;stroke-width:3;stroke-linecap:round;stroke-linejoin:miter;stroke-dasharray:none;stroke-opacity:0.8;stop-color:#000000"
     x="442.27356"
     y="179.60858"
     id="text7969-1"><tspan
       sodipodi:role="line"
       id="tspan1892"
       x="442.27356"
       y="179.60858">Niveau événement 2</tspan></text>
  <text
     xml:space="preserve"
     style="font-style:normal;font-variant:normal;font-weight:normal;font-stretch:normal;font-size:20px;font-family:'Liberation Serif';-inkscape-font-specification:'Liberation Serif, Normal';font-variant-ligatures:normal;font-variant-caps:normal;font-variant-numeric:normal;font-variant-east-asian:normal;fill:#000000;fill-opacity:1;stroke:none;stroke-width:3;stroke-linecap:round;stroke-linejoin:miter;stroke-dasharray:none;stroke-opacity:0.8;stop-color:#000000"
     x="442.27356"
     y="252.83926"
     id="text7973-9"><tspan
       sodipodi:role="line"
       id="tspan1894"
       x="442.27356"
       y="252.83926">Niveau orbite 2</tspan></text>
  <text
     xml:space="preserve"
     style="font-style:normal;font-variant:normal;font-weight:normal;font-stretch:normal;font-size:20px;font-family:'Liberation Serif';-inkscape-font-specification:'Liberation Serif, Normal';font-variant-ligatures:normal;font-variant-caps:normal;font-variant-numeric:normal;font-variant-east-asian:normal;fill:#000000;fill-opacity:1;stroke:none;stroke-width:3;stroke-linecap:round;stroke-linejoin:miter;stroke-dasharray:none;stroke-opacity:0.8;stop-color:#000000"
     x="442.27356"
     y="325.60855"
     id="text7969-0"><tspan
       sodipodi:role="line"
       id="tspan1896"
       x="442.27356"
       y="325.60855">Niveau événement 3</tspan></text>
  <text
     xml:space="preserve"
     style="font-style:normal;font-variant:normal;font-weight:normal;font-stretch:normal;font-size:20px;font-family:'Liberation Serif';-inkscape-font-specification:'Liberation Serif, Normal';font-variant-ligatures:normal;font-variant-caps:normal;font-variant-numeric:normal;font-variant-east-asian:normal;fill:#000000;fill-opacity:1;stroke:none;stroke-width:3;stroke-linecap:round;stroke-linejoin:miter;stroke-dasharray:none;stroke-opacity:0.8;stop-color:#000000"
     x="442.27356"
     y="398.83923"
     id="text7973-8"><tspan
       sodipodi:role="line"
       id="tspan1898"
       x="442.27356"
       y="398.83923">Niveau orbite 3</tspan></text>
  <text
     xml:space="preserve"
     style="font-style:normal;font-variant:normal;font-weight:normal;font-stretch:normal;font-size:20px;font-family:'Liberation Serif';-inkscape-font-specification:'Liberation Serif, Normal';font-variant-ligatures:normal;font-variant-caps:normal;font-variant-numeric:normal;font-variant-east-asian:normal;fill:#000000;fill-opacity:1;stroke:none;stroke-width:3;stroke-linecap:round;stroke-linejoin:miter;stroke-dasharray:none;stroke-opacity:0.8;stop-color:#000000"
     x="442.27356"
     y="544.62988"
     id="text7973-8-6"><tspan
       sodipodi:role="line"
       id="tspan1898-2"
       x="442.27356"
       y="544.62988">Niveau orbite 4</tspan></text>
  <text
     xml:space="preserve"
     style="font-style:normal;font-variant:normal;font-weight:normal;font-stretch:normal;font-size:20px;font-family:'Liberation Serif';-inkscape-font-specification:'Liberation Serif, Normal';font-variant-ligatures:normal;font-variant-caps:normal;font-variant-numeric:normal;font-variant-east-asian:normal;fill:#000000;fill-opacity:1;stroke:none;stroke-width:3;stroke-linecap:round;stroke-linejoin:miter;stroke-dasharray:none;stroke-opacity:0.8;stop-color:#000000"
     x="442.27356"
     y="617.65106"
     id="text7969-8-7"><tspan
       sodipodi:role="line"
       id="tspan7967-9-5"
       style="font-style:normal;font-variant:normal;font-weight:normal;font-stretch:normal;font-size:20px;font-family:'Liberation Serif';-inkscape-font-specification:'Liberation Serif, Normal';font-variant-ligatures:normal;font-variant-caps:normal;font-variant-numeric:normal;font-variant-east-asian:normal;stroke-width:3"
       x="442.27356"
       y="617.65106">Niveau événement 5</tspan></text>
  <text
     xml:space="preserve"
     style="font-style:normal;font-variant:normal;font-weight:normal;font-stretch:normal;font-size:20px;font-family:'Liberation Serif';-inkscape-font-specification:'Liberation Serif, Normal';font-variant-ligatures:normal;font-variant-caps:normal;font-variant-numeric:normal;font-variant-east-asian:normal;fill:#000000;fill-opacity:1;stroke:none;stroke-width:3;stroke-linecap:round;stroke-linejoin:miter;stroke-dasharray:none;stroke-opacity:0.8;stop-color:#000000"
     x="442.27356"
     y="690.64301"
     id="text7973-8-6-9"><tspan
       sodipodi:role="line"
       id="tspan1898-2-2"
       x="442.27356"
       y="690.64301">Niveau orbite 5</tspan></text>
  <path
     style="fill:none;stroke:#000000;stroke-width:1.00063;stroke-linecap:round"
     d="m 192.00094,409.70711 c 9.5858,16.87333 21.58796,10.78082 31.18372,25.72707"
     id="path1"
     sodipodi:nodetypes="cc" />
  <path
     style="fill:none;stroke:#000000;stroke-width:1.00063;stroke-linecap:round"
     d="m 291.00094,409.70711 c 6.70361,15.36144 23.221,14.66328 29.84358,25.87"
     id="path3"
     sodipodi:nodetypes="cc" />
</svg>
