<?xml version="1.0" encoding="UTF-8" standalone="no"?>
<!-- Generated by graphviz version 12.1.1 (0)
 -->

<!-- Title: HistoryRecord Pages: 1 -->

<svg
   width="539.18329pt"
   height="711pt"
   viewBox="0 0 539.18329 711"
   version="1.1"
   id="svg56"
   sodipodi:docname="evaluationTree-5-export.svg"
   inkscape:version="1.3.2 (091e20ef0f, 2023-11-25, custom)"
   xmlns:inkscape="http://www.inkscape.org/namespaces/inkscape"
   xmlns:sodipodi="http://sodipodi.sourceforge.net/DTD/sodipodi-0.dtd"
   xmlns="http://www.w3.org/2000/svg"
   xmlns:svg="http://www.w3.org/2000/svg">
  <defs
     id="defs56" />
  <sodipodi:namedview
     id="namedview56"
     pagecolor="#ffffff"
     bordercolor="#000000"
     borderopacity="0.25"
     inkscape:showpageshadow="2"
     inkscape:pageopacity="0.0"
     inkscape:pagecheckerboard="0"
     inkscape:deskcolor="#d1d1d1"
     inkscape:document-units="pt"
     inkscape:zoom="0.70910992"
     inkscape:cx="117.04814"
     inkscape:cy="553.5108"
     inkscape:window-width="1892"
     inkscape:window-height="1034"
     inkscape:window-x="9"
     inkscape:window-y="27"
     inkscape:window-maximized="1"
     inkscape:current-layer="svg56" />
  <g
     id="clust1"
     class="cluster"
     transform="translate(23.665731,718.5)">
    <title
       id="title2">cluster_1</title>
    <path
       fill="none"
       stroke="#000000"
       d="m 27,-665 c 0,0 270,0 270,0 6,0 12,-6 12,-12 0,0 0,-29 0,-29 0,-6 -6,-12 -12,-12 0,0 -270,0 -270,0 -6,0 -12,6 -12,12 0,0 0,29 0,29 0,6 6,12 12,12"
       id="path2" />
  </g>
  <g
     id="clust2"
     class="cluster"
     transform="translate(23.665731,718.5)">
    <title
       id="title3">cluster_1n5</title>
    <polygon
       fill="none"
       stroke="#000000"
       points="51,-592 51,-645 265,-645 265,-592 "
       id="polygon3" />
  </g>
  <g
     id="clust4"
     class="cluster"
     transform="translate(23.665731,718.5)">
    <title
       id="title5">cluster_2n6</title>
    <polygon
       fill="none"
       stroke="#000000"
       points="55,-446 55,-499 269,-499 269,-446 "
       id="polygon5" />
  </g>
  <g
     id="clust5"
     class="cluster"
     transform="translate(23.665731,718.5)">
    <title
       id="title6">cluster_3</title>
    <path
       fill="none"
       stroke="#000000"
       d="M 13.050187,-373 H 325 c 6,0 12,-6 12,-12 v -29 c 0,-6 -6,-12 -12,-12 H 13.050187 c -5.9999996,0 -11.9999996,6 -11.9999996,12 v 29 c 0,6 6,12 11.9999996,12"
       id="path6"
       sodipodi:nodetypes="csssssssc" />
  </g>
  <g
     id="clust6"
     class="cluster"
     transform="translate(23.665731,718.5)">
    <title
       id="title7">cluster_3n0</title>
    <polygon
       fill="none"
       stroke="#000000"
       points="59,-300 59,-353 273,-353 273,-300 "
       id="polygon7" />
  </g>
  <g
     id="clust8"
     class="cluster"
     transform="translate(23.665731,718.5)">
    <title
       id="title9">cluster_4n4</title>
    <polygon
       fill="none"
       stroke="#000000"
       points="8,-154 8,-207 278,-207 278,-154 "
       id="polygon9" />
  </g>
  <g
     id="clust9"
     class="cluster"
     transform="translate(23.665731,718.5)">
    <title
       id="title10">cluster_6</title>
    <path
       fill="none"
       stroke="#000000"
       d="M 67.753768,-81 H 226 c 6,0 12,-6 12,-12 v -29 c 0,-6 -6,-12 -12,-12 H 67.753768 c -6,0 -12,6 -12,12 v 29 c 0,6 6,12 12,12"
       id="path10"
       sodipodi:nodetypes="csssssssc" />
  </g>
  <g
     id="clust10"
     class="cluster"
     transform="translate(23.665731,718.5)">
    <title
       id="title11">cluster_6n2</title>
    <polygon
       fill="none"
       stroke="#000000"
       points="86,-8 86,-61 228,-61 228,-8 "
       id="polygon11" />
  </g>
  <g
     id="node1"
     class="node"
     transform="translate(94.165729,718.5)">
    <title
       id="title12">1CREATION[0, 1]</title>
    <path
       fill="none"
       stroke="#000000"
       d="m 35,-673.5 c 0,0 70,0 70,0 6,0 12,-6 12,-12 0,0 0,-12 0,-12 0,-6 -6,-12 -12,-12 0,0 -70,0 -70,0 -6,0 -12,6 -12,12 0,0 0,12 0,12 0,6 6,12 12,12"
       id="path12" />
    <text
       text-anchor="middle"
       x="70"
       y="-686.83002"
       font-family="Times, serif"
       font-size="14px"
       id="text12">CREATION</text>
  </g>
  <g
     id="node2"
     class="node"
     transform="translate(94.165729,718.5)">
    <title
       id="title13">1n5[0, 1]</title>
    <polygon
       fill="none"
       stroke="#000000"
       points="59,-600.5 59,-636.5 113,-636.5 113,-600.5 "
       id="polygon13" />
    <text
       text-anchor="middle"
       x="85.75"
       y="-613.83002"
       font-family="Times, serif"
       font-size="14px"
       id="text13">⟨0, 1⟩</text>
  </g>
  <g
     id="edge1"
     class="edge"
     transform="translate(94.165729,718.5)">
    <title
       id="title14">1CREATION[0, 1]-&gt;1n5[0, 1]</title>
    <path
       fill="none"
       stroke="#000000"
       d="m 73.87,-673.31 c 1.73,7.67 3.82,16.92 5.77,25.57"
       id="path14" />
    <polygon
       fill="#000000"
       stroke="#000000"
       points="76.22,-646.99 83.05,-648.53 81.83,-638.01 "
       id="polygon14" />
  </g>
  <g
     id="node6"
     class="node"
     transform="translate(94.165729,718.5)">
    <title
       id="title15">2CREATION[0, 1]</title>
    <path
       fill="none"
       stroke="#000000"
       d="m 35,-527.5 c 0,0 70,0 70,0 6,0 12,-6 12,-12 0,0 0,-12 0,-12 0,-6 -6,-12 -12,-12 0,0 -70,0 -70,0 -6,0 -12,6 -12,12 0,0 0,12 0,12 0,6 6,12 12,12"
       id="path15" />
    <text
       text-anchor="middle"
       x="70"
       y="-540.83002"
       font-family="Times, serif"
       font-size="14px"
       id="text15">CREATION</text>
  </g>
  <g
     id="node3"
     class="node"
     transform="translate(94.165729,718.5)">
    <title
       id="title17">1CREATION[1]</title>
    <path
       fill="none"
       stroke="#000000"
       d="m 147,-673.5 c 0,0 70,0 70,0 6,0 12,-6 12,-12 0,0 0,-12 0,-12 0,-6 -6,-12 -12,-12 0,0 -70,0 -70,0 -6,0 -12,6 -12,12 0,0 0,12 0,12 0,6 6,12 12,12"
       id="path17" />
    <text
       text-anchor="middle"
       x="182"
       y="-686.83002"
       font-family="Times, serif"
       font-size="14px"
       id="text17">CREATION</text>
  </g>
  <g
     id="node4"
     class="node"
     transform="translate(94.165729,718.5)">
    <title
       id="title18">1n5[1]</title>
    <polygon
       fill="none"
       stroke="#000000"
       points="131,-600.5 131,-636.5 185,-636.5 185,-600.5 "
       id="polygon18" />
    <text
       text-anchor="middle"
       x="157.75"
       y="-613.83002"
       font-family="Times, serif"
       font-size="14px"
       id="text18">⟨1⟩</text>
  </g>
  <g
     id="edge2"
     class="edge"
     transform="translate(94.165729,718.5)">
    <title
       id="title19">1CREATION[1]-&gt;1n5[1]</title>
    <path
       fill="none"
       stroke="#000000"
       d="m 176.19,-673.31 c -2.65,7.85 -5.86,17.34 -8.84,26.15"
       id="path19" />
    <polygon
       fill="#000000"
       stroke="#000000"
       points="164.13,-648.56 170.76,-646.32 164.24,-637.96 "
       id="polygon19" />
  </g>
  <g
     id="node7"
     class="node"
     transform="translate(94.165729,718.5)">
    <title
       id="title20">2CREATION[1]</title>
    <path
       fill="none"
       stroke="#000000"
       d="m 147,-527.5 c 0,0 70,0 70,0 6,0 12,-6 12,-12 0,0 0,-12 0,-12 0,-6 -6,-12 -12,-12 0,0 -70,0 -70,0 -6,0 -12,6 -12,12 0,0 0,12 0,12 0,6 6,12 12,12"
       id="path20" />
    <text
       text-anchor="middle"
       x="182"
       y="-540.83002"
       font-family="Times, serif"
       font-size="14px"
       id="text20">CREATION</text>
  </g>
  <g
     id="node9"
     class="node"
     transform="translate(94.165729,718.5)">
    <title
       id="title23">2n6[0, 1]</title>
    <polygon
       fill="none"
       stroke="#000000"
       points="63,-454.5 63,-490.5 117,-490.5 117,-454.5 "
       id="polygon23" />
    <text
       text-anchor="middle"
       x="89.75"
       y="-467.82001"
       font-family="Times, serif"
       font-size="14px"
       id="text23">⟨0, 1⟩</text>
  </g>
  <g
     id="edge5"
     class="edge"
     transform="translate(94.165729,718.5)">
    <title
       id="title24">2CREATION[0, 1]-&gt;2n6[0, 1]</title>
    <path
       fill="none"
       stroke="#000000"
       d="m 74.84,-527.31 c 2.19,7.76 4.83,17.13 7.29,25.86"
       id="path24" />
    <polygon
       fill="#000000"
       stroke="#000000"
       points="78.71,-500.66 85.45,-502.56 84.79,-491.99 "
       id="polygon24" />
  </g>
  <g
     id="node10"
     class="node"
     transform="translate(94.165729,718.5)">
    <title
       id="title25">2n6[1]</title>
    <polygon
       fill="none"
       stroke="#000000"
       points="135,-454.5 135,-490.5 189,-490.5 189,-454.5 "
       id="polygon25" />
    <text
       text-anchor="middle"
       x="161.75"
       y="-467.82001"
       font-family="Times, serif"
       font-size="14px"
       id="text25">⟨1⟩</text>
  </g>
  <g
     id="edge6"
     class="edge"
     transform="translate(94.165729,718.5)">
    <title
       id="title26">2CREATION[1]-&gt;2n6[1]</title>
    <path
       fill="none"
       stroke="#000000"
       d="m 177.16,-527.31 c -2.19,7.76 -4.83,17.13 -7.29,25.86"
       id="path26" />
    <polygon
       fill="#000000"
       stroke="#000000"
       points="166.55,-502.56 173.29,-500.66 167.21,-491.99 "
       id="polygon26" />
  </g>
  <g
     id="node8"
     class="node"
     transform="translate(-120.33427,718.5)">
    <title
       id="title27">1n5</title>
    <polygon
       fill="#add8e6"
       stroke="#add8e6"
       points="203,-636.5 257,-636.5 257,-600.5 203,-600.5 "
       id="polygon27" />
    <text
       text-anchor="middle"
       x="230"
       y="-613.83002"
       font-family="Times, serif"
       font-size="14px"
       id="text27">n5</text>
  </g>
  <g
     id="node12"
     class="node"
     transform="translate(94.165729,718.5)">
    <title
       id="title28">3MODIFICATION[0, 1]</title>
    <path
       fill="none"
       stroke="#000000"
       d="m 29,-381.5 c 0,0 106,0 106,0 6,0 12,-6 12,-12 0,0 0,-12 0,-12 0,-6 -6,-12 -12,-12 0,0 -106,0 -106,0 -6,0 -12,6 -12,12 0,0 0,12 0,12 0,6 6,12 12,12"
       id="path28" />
    <text
       text-anchor="middle"
       x="82"
       y="-394.82001"
       font-family="Times, serif"
       font-size="14px"
       id="text28">MODIFICATION</text>
  </g>
  <g
     id="edge7"
     class="edge"
     transform="translate(94.165729,718.5)">
    <title
       id="title29">2n6[0, 1]-&gt;3MODIFICATION[0, 1]</title>
    <path
       fill="none"
       stroke="#000000"
       d="m 88.06,-454.31 c -0.86,7.67 -1.9,16.92 -2.88,25.57"
       id="path29" />
    <polygon
       fill="#000000"
       stroke="#000000"
       points="81.73,-429.36 88.69,-428.58 84.09,-419.03 "
       id="polygon29" />
  </g>
  <g
     id="node13"
     class="node"
     transform="translate(94.165729,718.5)">
    <title
       id="title30">3NOMODIF[1]</title>
    <path
       fill="none"
       stroke="#000000"
       d="m 177.5,-381.5 c 0,0 67,0 67,0 6,0 12,-6 12,-12 0,0 0,-12 0,-12 0,-6 -6,-12 -12,-12 0,0 -67,0 -67,0 -6,0 -12,6 -12,12 0,0 0,12 0,12 0,6 6,12 12,12"
       id="path30" />
    <text
       text-anchor="middle"
       x="211"
       y="-394.82001"
       font-family="Times, serif"
       font-size="14px"
       id="text30">NOMODIF</text>
  </g>
  <g
     id="edge8"
     class="edge"
     transform="translate(94.165729,718.5)">
    <title
       id="title31">2n6[1]-&gt;3NOMODIF[1]</title>
    <path
       fill="none"
       stroke="#000000"
       d="m 173.86,-454.31 c 5.66,8.19 12.56,18.19 18.86,27.33"
       id="path31" />
    <polygon
       fill="#000000"
       stroke="#000000"
       points="189.83,-425.02 195.59,-428.99 198.39,-418.77 "
       id="polygon31" />
  </g>
  <g
     id="node15"
     class="node"
     transform="translate(94.165729,718.5)">
    <title
       id="title33">3n0[0, 1]</title>
    <polygon
       fill="none"
       stroke="#000000"
       points="67,-308.5 67,-344.5 121,-344.5 121,-308.5 "
       id="polygon33" />
    <text
       text-anchor="middle"
       x="93.75"
       y="-321.82001"
       font-family="Times, serif"
       font-size="14px"
       id="text33">⟨0, 1⟩</text>
  </g>
  <g
     id="edge9"
     class="edge"
     transform="translate(94.165729,718.5)">
    <title
       id="title34">3MODIFICATION[0, 1]-&gt;3n0[0, 1]</title>
    <path
       fill="none"
       stroke="#000000"
       d="m 84.9,-381.31 c 1.3,7.67 2.86,16.92 4.33,25.57"
       id="path34" />
    <polygon
       fill="#000000"
       stroke="#000000"
       points="85.75,-355.3 92.65,-356.46 90.87,-346.02 "
       id="polygon34" />
  </g>
  <g
     id="node16"
     class="node"
     transform="translate(94.165729,718.5)">
    <title
       id="title35">3n0[1]</title>
    <polygon
       fill="none"
       stroke="#000000"
       points="139,-308.5 139,-344.5 193,-344.5 193,-308.5 "
       id="polygon35" />
    <text
       text-anchor="middle"
       x="165.75"
       y="-321.82001"
       font-family="Times, serif"
       font-size="14px"
       id="text35">⟨1⟩</text>
  </g>
  <g
     id="edge10"
     class="edge"
     transform="translate(94.165729,718.5)">
    <title
       id="title36">3NOMODIF[1]-&gt;3n0[1]</title>
    <path
       fill="none"
       stroke="#000000"
       d="m 200.11,-381.31 c -5.2,8.19 -11.53,18.19 -17.32,27.33"
       id="path36" />
    <polygon
       fill="#000000"
       stroke="#000000"
       points="180,-356.13 185.91,-352.38 177.6,-345.81 "
       id="polygon36" />
  </g>
  <g
     id="node14"
     class="node"
     transform="translate(-120.33427,718.5)">
    <title
       id="title37">2n6</title>
    <polygon
       fill="#add8e6"
       stroke="#add8e6"
       points="207,-490.5 261,-490.5 261,-454.5 207,-454.5 "
       id="polygon37" />
    <text
       text-anchor="middle"
       x="234"
       y="-467.82001"
       font-family="Times, serif"
       font-size="14px"
       id="text37">n6</text>
  </g>
  <g
     id="node18"
     class="node"
     transform="translate(94.165729,718.5)">
    <title
       id="title38">4CREATION[0, 1]</title>
    <path
       fill="none"
       stroke="#000000"
       d="m 32,-235.5 c 0,0 70,0 70,0 6,0 12,-6 12,-12 0,0 0,-12 0,-12 0,-6 -6,-12 -12,-12 0,0 -70,0 -70,0 -6,0 -12,6 -12,12 0,0 0,12 0,12 0,6 6,12 12,12"
       id="path38" />
    <text
       text-anchor="middle"
       x="67"
       y="-248.82001"
       font-family="Times, serif"
       font-size="14px"
       id="text38">CREATION</text>
  </g>
  <g
     id="node19"
     class="node"
     transform="translate(94.165729,718.5)">
    <title
       id="title40">4CREATION[1, 2]</title>
    <path
       fill="none"
       stroke="#000000"
       d="m 144,-235.5 c 0,0 70,0 70,0 6,0 12,-6 12,-12 0,0 0,-12 0,-12 0,-6 -6,-12 -12,-12 0,0 -70,0 -70,0 -6,0 -12,6 -12,12 0,0 0,12 0,12 0,6 6,12 12,12"
       id="path40" />
    <text
       text-anchor="middle"
       x="179"
       y="-248.82001"
       font-family="Times, serif"
       font-size="14px"
       id="text40">CREATION</text>
  </g>
  <g
     id="node21"
     class="node"
     transform="translate(94.165729,718.5)">
    <title
       id="title43">4n4[0, 1]</title>
    <polygon
       fill="none"
       stroke="#000000"
       points="16.5,-162.5 16.5,-198.5 125.5,-198.5 125.5,-162.5 "
       id="polygon43" />
    <text
       text-anchor="middle"
       x="71"
       y="-175.82001"
       font-family="Times, serif"
       font-size="14px"
       id="text43">@1.@2.⟨0, 1⟩</text>
  </g>
  <g
     id="edge13"
     class="edge"
     transform="translate(94.165729,718.5)">
    <title
       id="title44">4CREATION[0, 1]-&gt;4n4[0, 1]</title>
    <path
       fill="none"
       stroke="#000000"
       d="m 67.97,-235.31 c 0.43,7.67 0.95,16.92 1.44,25.57"
       id="path44" />
    <polygon
       fill="#000000"
       stroke="#000000"
       points="65.9,-209.83 72.89,-210.22 69.96,-200.04 "
       id="polygon44" />
  </g>
  <g
     id="node22"
     class="node"
     transform="translate(94.165729,718.5)">
    <title
       id="title45">4n4[1, 2]</title>
    <polygon
       fill="none"
       stroke="#000000"
       points="144,-162.5 144,-198.5 198,-198.5 198,-162.5 "
       id="polygon45" />
    <text
       text-anchor="middle"
       x="170.75"
       y="-175.82001"
       font-family="Times, serif"
       font-size="14px"
       id="text45">⟨1, 2⟩</text>
  </g>
  <g
     id="edge14"
     class="edge"
     transform="translate(94.165729,718.5)">
    <title
       id="title46">4CREATION[1, 2]-&gt;4n4[1, 2]</title>
    <path
       fill="none"
       stroke="#000000"
       d="m 177.06,-235.31 c -0.86,7.67 -1.9,16.92 -2.88,25.57"
       id="path46" />
    <polygon
       fill="#000000"
       stroke="#000000"
       points="170.73,-210.36 177.69,-209.58 173.09,-200.03 "
       id="polygon46" />
  </g>
  <g
     id="node20"
     class="node"
     transform="translate(-120.33427,718.5)">
    <title
       id="title47">3n0</title>
    <polygon
       fill="#add8e6"
       stroke="#add8e6"
       points="211,-344.5 265,-344.5 265,-308.5 211,-308.5 "
       id="polygon47" />
    <text
       text-anchor="middle"
       x="238"
       y="-321.82001"
       font-family="Times, serif"
       font-size="14px"
       id="text47">n0</text>
  </g>
  <g
     id="node24"
     class="node"
     transform="translate(94.165729,718.5)">
    <title
       id="title48">6MERGE[1, 2]</title>
    <path
       fill="none"
       stroke="#000000"
       d="m 96.5,-89.5 c 0,0 49,0 49,0 6,0 12,-6 12,-12 0,0 0,-12 0,-12 0,-6 -6,-12 -12,-12 0,0 -49,0 -49,0 -6,0 -12,6 -12,12 0,0 0,12 0,12 0,6 6,12 12,12"
       id="path48" />
    <text
       text-anchor="middle"
       x="121"
       y="-102.83"
       font-family="Times, serif"
       font-size="14px"
       id="text48">MERGE</text>
  </g>
  <g
     id="edge15"
     class="edge"
     transform="translate(94.165729,718.5)">
    <title
       id="title49">4n4[0, 1]-&gt;6MERGE[1, 2]</title>
    <path
       fill="none"
       stroke="#ff0000"
       d="m 83.1,-162.31 c 5.84,8.28 12.96,18.4 19.45,27.62"
       id="path49" />
    <polygon
       fill="#ff0000"
       stroke="#ff0000"
       points="99.52,-132.93 105.24,-136.96 108.14,-126.77 "
       id="polygon49" />
  </g>
  <g
     id="edge16"
     class="edge"
     transform="translate(94.165729,718.5)">
    <title
       id="title50">4n4[1, 2]-&gt;6MERGE[1, 2]</title>
    <path
       fill="none"
       stroke="#000000"
       d="m 158.9,-162.31 c -5.84,8.28 -12.96,18.4 -19.45,27.62"
       id="path50" />
    <polygon
       fill="#000000"
       stroke="#000000"
       points="136.76,-136.96 142.48,-132.93 133.86,-126.77 "
       id="polygon50" />
  </g>
  <g
     id="node26"
     class="node"
     transform="translate(94.165729,718.5)">
    <title
       id="title52">6n2[1, 2]</title>
    <polygon
       fill="none"
       stroke="#000000"
       points="94,-16.5 94,-52.5 148,-52.5 148,-16.5 "
       id="polygon52" />
    <text
       text-anchor="middle"
       x="120.75"
       y="-29.82"
       font-family="Times, serif"
       font-size="14px"
       id="text52">⟨1, 2⟩</text>
  </g>
  <g
     id="edge17"
     class="edge"
     transform="translate(94.165729,718.5)">
    <title
       id="title53">6MERGE[1, 2]-&gt;6n2[1, 2]</title>
    <path
       fill="none"
       stroke="#000000"
       d="m 121,-89.31 c 0,7.58 0,16.71 0,25.27"
       id="path53" />
    <polygon
       fill="#000000"
       stroke="#000000"
       points="117.5,-64.04 124.5,-64.04 121,-54.04 "
       id="polygon53" />
  </g>
  <g
     id="node25"
     class="node"
     transform="translate(-177.33427,718.5)">
    <title
       id="title54">4n4</title>
    <polygon
       fill="#add8e6"
       stroke="#add8e6"
       points="270,-162.5 216,-162.5 216,-198.5 270,-198.5 "
       id="polygon54" />
    <text
       text-anchor="middle"
       x="243"
       y="-175.82001"
       font-family="Times, serif"
       font-size="14px"
       id="text54">n4</text>
  </g>
  <g
     id="node28"
     class="node"
     transform="translate(-49.834269,718.5)">
    <title
       id="title56">6n2</title>
    <polygon
       fill="#add8e6"
       stroke="#add8e6"
       points="166,-16.5 166,-52.5 220,-52.5 220,-16.5 "
       id="polygon56" />
    <text
       text-anchor="middle"
       x="193"
       y="-29.82"
       font-family="Times, serif"
       font-size="14px"
       id="text56">n2</text>
  </g>
  <rect
     style="fill:none;stroke:#000000;stroke-width:1.135;stroke-linecap:round;stroke-dasharray:none;stroke-opacity:1"
     id="rect56"
     width="312.18741"
     height="53.5"
     x="20.410791"
     y="146.25"
     ry="12.321996"
     rx="13.353165" />
  <g
     id="g3-8-5"
     transform="translate(-421.55169,286.48412)">
    <rect
       style="fill:#d3d3d3;fill-opacity:1;stroke:none;stroke-width:1.35045;stroke-linecap:square;stop-color:#000000"
       id="rect626-5-6"
       width="72.96978"
       height="35.616177"
       x="452.14853"
       y="14.707799"
       ry="10.898479" />
    <text
       xml:space="preserve"
       style="font-style:normal;font-variant:normal;font-weight:normal;font-stretch:normal;font-size:14.0002px;font-family:Symbola;-inkscape-font-specification:'Symbola, Normal';font-variant-ligatures:normal;font-variant-caps:normal;font-variant-numeric:normal;font-variant-east-asian:normal;writing-mode:lr-tb;fill:#000000;fill-opacity:1;fill-rule:nonzero;stroke:none"
       id="text9940-9"
       x="460.26218"
       y="35.805943"><tspan
         sodipodi:role="line"
         id="tspan20247-3"
         x="460.26218"
         y="35.805943"
         style="font-style:normal;font-variant:normal;font-weight:normal;font-stretch:normal;font-family:times;-inkscape-font-specification:times">3-insertion</tspan></text>
  </g>
  <g
     id="g3-8-7"
     transform="translate(-408.36618,-5.5158873)">
    <rect
       style="fill:#d3d3d3;fill-opacity:1;stroke:none;stroke-width:1.35045;stroke-linecap:square;stop-color:#000000"
       id="rect626-5-4"
       width="55.883385"
       height="35.616177"
       x="452.14853"
       y="14.707799"
       ry="10.898479" />
    <text
       xml:space="preserve"
       style="font-style:normal;font-variant:normal;font-weight:normal;font-stretch:normal;font-size:14.0002px;font-family:Symbola;-inkscape-font-specification:'Symbola, Normal';font-variant-ligatures:normal;font-variant-caps:normal;font-variant-numeric:normal;font-variant-east-asian:normal;writing-mode:lr-tb;fill:#000000;fill-opacity:1;fill-rule:nonzero;stroke:none"
       id="text9940-5"
       x="460.26218"
       y="35.805943"><tspan
         sodipodi:role="line"
         id="tspan20247-2"
         x="460.26218"
         y="35.805943"
         style="font-style:normal;font-variant:normal;font-weight:normal;font-stretch:normal;font-family:times;-inkscape-font-specification:times">1-carre</tspan></text>
  </g>
  <g
     id="g3-8-54"
     transform="translate(-437.32222,140.48411)">
    <rect
       style="fill:#d3d3d3;fill-opacity:1;stroke:none;stroke-width:1.35045;stroke-linecap:square;stop-color:#000000"
       id="rect626-5-7"
       width="78.311974"
       height="35.616177"
       x="463.01303"
       y="14.707799"
       ry="10.898479" />
    <text
       xml:space="preserve"
       style="font-style:normal;font-variant:normal;font-weight:normal;font-stretch:normal;font-size:14.0002px;font-family:Symbola;-inkscape-font-specification:'Symbola, Normal';font-variant-ligatures:normal;font-variant-caps:normal;font-variant-numeric:normal;font-variant-east-asian:normal;writing-mode:lr-tb;fill:#000000;fill-opacity:1;fill-rule:nonzero;stroke:none"
       id="text9940-4"
       x="501.89874"
       y="27.763693"><tspan
         sodipodi:role="line"
         id="tspan20247-4"
         x="501.89874"
         y="27.763693"
         style="font-style:normal;font-variant:normal;font-weight:normal;font-stretch:normal;font-family:times;-inkscape-font-specification:times;text-align:center;text-anchor:middle">2-extrusion</tspan><tspan
         sodipodi:role="line"
         x="501.89874"
         y="46.690216"
         style="font-style:normal;font-variant:normal;font-weight:normal;font-stretch:normal;font-family:times;-inkscape-font-specification:times;text-align:center;text-anchor:middle"
         id="tspan57">Face</tspan></text>
  </g>
  <g
     id="g3-8-3"
     transform="translate(-367.82799,579.17602)">
    <rect
       style="fill:#d3d3d3;fill-opacity:1;stroke:none;stroke-width:1.35045;stroke-linecap:square;stop-color:#000000"
       id="rect626-5-0"
       width="88.635483"
       height="35.616177"
       x="452.14853"
       y="14.707799"
       ry="10.898479" />
    <text
       xml:space="preserve"
       style="font-style:normal;font-variant:normal;font-weight:normal;font-stretch:normal;font-size:14.0002px;font-family:Symbola;-inkscape-font-specification:'Symbola, Normal';font-variant-ligatures:normal;font-variant-caps:normal;font-variant-numeric:normal;font-variant-east-asian:normal;writing-mode:lr-tb;fill:#000000;fill-opacity:1;fill-rule:nonzero;stroke:none"
       id="text9940-7"
       x="460.26218"
       y="35.805943"><tspan
         sodipodi:role="line"
         id="tspan20247-8"
         x="460.26218"
         y="35.805943"
         style="font-style:normal;font-variant:normal;font-weight:normal;font-stretch:normal;font-family:times;-inkscape-font-specification:times">6-contraction</tspan></text>
  </g>
  <g
     id="g1"
     transform="translate(-504.18137,339.15598)">
    <g
       id="g3-8-6"
       transform="translate(57.50297,93.32813)">
      <rect
         style="fill:#d3d3d3;fill-opacity:1;stroke:none;stroke-width:1.35045;stroke-linecap:square;stop-color:#000000"
         id="rect626-5-8"
         width="99.710434"
         height="35.616177"
         x="452.14853"
         y="14.707799"
         ry="10.898479" />
      <text
         xml:space="preserve"
         style="font-style:normal;font-variant:normal;font-weight:normal;font-stretch:normal;font-size:14.0002px;font-family:Symbola;-inkscape-font-specification:'Symbola, Normal';font-variant-ligatures:normal;font-variant-caps:normal;font-variant-numeric:normal;font-variant-east-asian:normal;writing-mode:lr-tb;fill:#000000;fill-opacity:1;fill-rule:nonzero;stroke:none"
         id="text9940-8"
         x="502.05975"
         y="27.756693"><tspan
           sodipodi:role="line"
           id="tspan20247-43"
           x="502.05975"
           y="27.756693"
           style="font-style:normal;font-variant:normal;font-weight:normal;font-stretch:normal;font-family:times;-inkscape-font-specification:times;text-align:center;text-anchor:middle">4-extrusion</tspan><tspan
           sodipodi:role="line"
           x="502.05975"
           y="46.683216"
           style="font-style:normal;font-variant:normal;font-weight:normal;font-stretch:normal;font-family:times;-inkscape-font-specification:times;text-align:center;text-anchor:middle"
           id="tspan56">FaceVolume</tspan></text>
    </g>
  </g>
  <rect
     style="fill:none;stroke:#000000;stroke-width:1.135;stroke-linecap:round;stroke-dasharray:none;stroke-opacity:1"
     id="rect56-4"
     width="330.39706"
     height="53.5"
     x="0.5675"
     y="438.25"
     ry="12.321996"
     rx="13.353165" />
  <g
     id="edge3"
     class="edge"
     transform="translate(94.165729,718.5)">
    <title
       id="title16">1n5[0, 1]-&gt;2CREATION[0, 1]</title>
    <path
       fill="none"
       stroke="#ff0000"
       d="m 82.13,-600.31 c -1.73,7.67 -3.82,16.92 -5.77,25.57"
       id="path16" />
    <polygon
       fill="#ff0000"
       stroke="#ff0000"
       points="72.95,-575.53 79.78,-573.99 74.17,-565.01 "
       id="polygon16" />
  </g>
  <g
     id="edge4"
     class="edge"
     transform="translate(94.165729,718.5)">
    <title
       id="title21">1n5[1]-&gt;2CREATION[1]</title>
    <path
       fill="none"
       stroke="#ff0000"
       d="m 163.81,-600.31 c 2.65,7.85 5.86,17.34 8.84,26.15"
       id="path21" />
    <polygon
       fill="#ff0000"
       stroke="#ff0000"
       points="169.24,-573.32 175.87,-575.56 175.76,-564.96 "
       id="polygon21" />
  </g>
  <g
     id="edge11"
     class="edge"
     transform="translate(94.165729,718.5)">
    <title
       id="title39">3n0[0, 1]-&gt;4CREATION[0, 1]</title>
    <path
       fill="none"
       stroke="#ff0000"
       d="m 87.46,-308.31 c -2.98,7.85 -6.59,17.34 -9.94,26.15"
       id="path39" />
    <polygon
       fill="#ff0000"
       stroke="#ff0000"
       points="74.3,-283.53 80.84,-281.05 74.01,-272.94 "
       id="polygon39" />
  </g>
  <g
     id="edge12"
     class="edge"
     transform="translate(94.165729,718.5)">
    <title
       id="title41">3n0[1]-&gt;4CREATION[1, 2]</title>
    <path
       fill="none"
       stroke="#ff0000"
       d="m 169.15,-308.31 c 1.4,7.67 3.1,16.92 4.68,25.57"
       id="path41" />
    <polygon
       fill="#ff0000"
       stroke="#ff0000"
       points="170.37,-282.22 177.25,-283.48 175.61,-273.02 "
       id="polygon41" />
  </g>
  <g
     id="g59"
     transform="translate(-66.334269)">
    <text
       xml:space="preserve"
       style="font-style:normal;font-variant:normal;font-weight:normal;font-stretch:normal;font-size:20px;font-family:'Liberation Serif';-inkscape-font-specification:'Liberation Serif, Normal';font-variant-ligatures:normal;font-variant-caps:normal;font-variant-numeric:normal;font-variant-east-asian:normal;fill:#000000;fill-opacity:1;stroke:none;stroke-width:3;stroke-linecap:round;stroke-linejoin:miter;stroke-dasharray:none;stroke-opacity:0.8;stop-color:#000000"
       x="441.92383"
       y="33.855469"
       id="text7969"><tspan
         sodipodi:role="line"
         id="tspan7967"
         style="font-style:normal;font-variant:normal;font-weight:normal;font-stretch:normal;font-size:20px;font-family:'Liberation Serif';-inkscape-font-specification:'Liberation Serif, Normal';font-variant-ligatures:normal;font-variant-caps:normal;font-variant-numeric:normal;font-variant-east-asian:normal;stroke-width:3"
         x="441.92383"
         y="33.855469">Niveau événement 1</tspan></text>
    <text
       xml:space="preserve"
       style="font-style:normal;font-variant:normal;font-weight:normal;font-stretch:normal;font-size:20px;font-family:'Liberation Serif';-inkscape-font-specification:'Liberation Serif, Normal';font-variant-ligatures:normal;font-variant-caps:normal;font-variant-numeric:normal;font-variant-east-asian:normal;fill:#000000;fill-opacity:1;stroke:none;stroke-width:3;stroke-linecap:round;stroke-linejoin:miter;stroke-dasharray:none;stroke-opacity:0.8;stop-color:#000000"
       x="441.92383"
       y="106.84082"
       id="text7973"><tspan
         sodipodi:role="line"
         id="tspan7971"
         style="font-style:normal;font-variant:normal;font-weight:normal;font-stretch:normal;font-size:20px;font-family:'Liberation Serif';-inkscape-font-specification:'Liberation Serif, Normal';font-variant-ligatures:normal;font-variant-caps:normal;font-variant-numeric:normal;font-variant-east-asian:normal;stroke-width:3"
         x="441.92383"
         y="106.84082">Niveau orbite 1</tspan></text>
    <text
       xml:space="preserve"
       style="font-style:normal;font-variant:normal;font-weight:normal;font-stretch:normal;font-size:20px;font-family:'Liberation Serif';-inkscape-font-specification:'Liberation Serif, Normal';font-variant-ligatures:normal;font-variant-caps:normal;font-variant-numeric:normal;font-variant-east-asian:normal;fill:#000000;fill-opacity:1;stroke:none;stroke-width:3;stroke-linecap:round;stroke-linejoin:miter;stroke-dasharray:none;stroke-opacity:0.8;stop-color:#000000"
       x="441.92383"
       y="179.85547"
       id="text7969-1"><tspan
         sodipodi:role="line"
         id="tspan1892"
         x="441.92383"
         y="179.85547">Niveau événement 2</tspan></text>
    <text
       xml:space="preserve"
       style="font-style:normal;font-variant:normal;font-weight:normal;font-stretch:normal;font-size:20px;font-family:'Liberation Serif';-inkscape-font-specification:'Liberation Serif, Normal';font-variant-ligatures:normal;font-variant-caps:normal;font-variant-numeric:normal;font-variant-east-asian:normal;fill:#000000;fill-opacity:1;stroke:none;stroke-width:3;stroke-linecap:round;stroke-linejoin:miter;stroke-dasharray:none;stroke-opacity:0.8;stop-color:#000000"
       x="441.92383"
       y="252.84082"
       id="text7973-9"><tspan
         sodipodi:role="line"
         id="tspan1894"
         x="441.92383"
         y="252.84082">Niveau orbite 2</tspan></text>
    <text
       xml:space="preserve"
       style="font-style:normal;font-variant:normal;font-weight:normal;font-stretch:normal;font-size:20px;font-family:'Liberation Serif';-inkscape-font-specification:'Liberation Serif, Normal';font-variant-ligatures:normal;font-variant-caps:normal;font-variant-numeric:normal;font-variant-east-asian:normal;fill:#000000;fill-opacity:1;stroke:none;stroke-width:3;stroke-linecap:round;stroke-linejoin:miter;stroke-dasharray:none;stroke-opacity:0.8;stop-color:#000000"
       x="441.92383"
       y="325.85547"
       id="text7969-0"><tspan
         sodipodi:role="line"
         id="tspan1896"
         x="441.92383"
         y="325.85547">Niveau événement 3</tspan></text>
    <text
       xml:space="preserve"
       style="font-style:normal;font-variant:normal;font-weight:normal;font-stretch:normal;font-size:20px;font-family:'Liberation Serif';-inkscape-font-specification:'Liberation Serif, Normal';font-variant-ligatures:normal;font-variant-caps:normal;font-variant-numeric:normal;font-variant-east-asian:normal;fill:#000000;fill-opacity:1;stroke:none;stroke-width:3;stroke-linecap:round;stroke-linejoin:miter;stroke-dasharray:none;stroke-opacity:0.8;stop-color:#000000"
       x="441.92383"
       y="398.84082"
       id="text7973-8"><tspan
         sodipodi:role="line"
         id="tspan1898"
         x="441.92383"
         y="398.84082">Niveau orbite 3</tspan></text>
    <text
       xml:space="preserve"
       style="font-style:normal;font-variant:normal;font-weight:normal;font-stretch:normal;font-size:20px;font-family:'Liberation Serif';-inkscape-font-specification:'Liberation Serif, Normal';font-variant-ligatures:normal;font-variant-caps:normal;font-variant-numeric:normal;font-variant-east-asian:normal;fill:#000000;fill-opacity:1;stroke:none;stroke-width:3;stroke-linecap:round;stroke-linejoin:miter;stroke-dasharray:none;stroke-opacity:0.8;stop-color:#000000"
       x="441.92383"
       y="471.85547"
       id="text7969-1-0"><tspan
         sodipodi:role="line"
         id="tspan1892-6"
         x="441.92383"
         y="471.85547">Niveau événement 2</tspan></text>
    <text
       xml:space="preserve"
       style="font-style:normal;font-variant:normal;font-weight:normal;font-stretch:normal;font-size:20px;font-family:'Liberation Serif';-inkscape-font-specification:'Liberation Serif, Normal';font-variant-ligatures:normal;font-variant-caps:normal;font-variant-numeric:normal;font-variant-east-asian:normal;fill:#000000;fill-opacity:1;stroke:none;stroke-width:3;stroke-linecap:round;stroke-linejoin:miter;stroke-dasharray:none;stroke-opacity:0.8;stop-color:#000000"
       x="441.92383"
       y="544.84082"
       id="text7973-9-8"><tspan
         sodipodi:role="line"
         id="tspan1894-9"
         x="441.92383"
         y="544.84082">Niveau orbite 2</tspan></text>
    <text
       xml:space="preserve"
       style="font-style:normal;font-variant:normal;font-weight:normal;font-stretch:normal;font-size:20px;font-family:'Liberation Serif';-inkscape-font-specification:'Liberation Serif, Normal';font-variant-ligatures:normal;font-variant-caps:normal;font-variant-numeric:normal;font-variant-east-asian:normal;fill:#000000;fill-opacity:1;stroke:none;stroke-width:3;stroke-linecap:round;stroke-linejoin:miter;stroke-dasharray:none;stroke-opacity:0.8;stop-color:#000000"
       x="441.92383"
       y="617.85547"
       id="text7969-0-2"><tspan
         sodipodi:role="line"
         id="tspan1896-6"
         x="441.92383"
         y="617.85547">Niveau événement 3</tspan></text>
    <text
       xml:space="preserve"
       style="font-style:normal;font-variant:normal;font-weight:normal;font-stretch:normal;font-size:20px;font-family:'Liberation Serif';-inkscape-font-specification:'Liberation Serif, Normal';font-variant-ligatures:normal;font-variant-caps:normal;font-variant-numeric:normal;font-variant-east-asian:normal;fill:#000000;fill-opacity:1;stroke:none;stroke-width:3;stroke-linecap:round;stroke-linejoin:miter;stroke-dasharray:none;stroke-opacity:0.8;stop-color:#000000"
       x="441.92383"
       y="690.84082"
       id="text7973-8-6"><tspan
         sodipodi:role="line"
         id="tspan1898-4"
         x="441.92383"
         y="690.84082">Niveau orbite 3</tspan></text>
  </g>
</svg>
