<?xml version="1.0" encoding="UTF-8" standalone="no"?>
<!DOCTYPE svg PUBLIC "-//W3C//DTD SVG 1.1//EN"
 "http://www.w3.org/Graphics/SVG/1.1/DTD/svg11.dtd">
<!-- Generated by graphviz version 12.1.1 (0)
 -->
<!-- Title: ReevaluationTree Pages: 1 -->
<svg width="353pt" height="734pt"
 viewBox="0.00 0.00 353.00 734.00" xmlns="http://www.w3.org/2000/svg" xmlns:xlink="http://www.w3.org/1999/xlink">
<g id="graph0" class="graph" transform="scale(1 1) rotate(0) translate(4 730)">
<title>ReevaluationTree</title>
<polygon fill="white" stroke="none" points="-4,4 -4,-730 349,-730 349,4 -4,4"/>
<g id="clust1" class="cluster">
<title>cluster_1:1</title>
<path fill="none" stroke="black" d="M39,-665C39,-665 309,-665 309,-665 315,-665 321,-671 321,-677 321,-677 321,-706 321,-706 321,-712 315,-718 309,-718 309,-718 39,-718 39,-718 33,-718 27,-712 27,-706 27,-706 27,-677 27,-677 27,-671 33,-665 39,-665"/>
</g>
<g id="clust2" class="cluster">
<title>cluster_15</title>
<polygon fill="none" stroke="black" points="63,-592 63,-645 277,-645 277,-592 63,-592"/>
</g>
<g id="clust3" class="cluster">
<title>cluster_10:1</title>
<path fill="none" stroke="black" d="M21,-519C21,-519 325,-519 325,-519 331,-519 337,-525 337,-531 337,-531 337,-560 337,-560 337,-566 331,-572 325,-572 325,-572 21,-572 21,-572 15,-572 9,-566 9,-560 9,-560 9,-531 9,-531 9,-525 15,-519 21,-519"/>
</g>
<g id="clust4" class="cluster">
<title>cluster_105</title>
<polygon fill="none" stroke="black" points="60,-446 60,-499 274,-499 274,-446 60,-446"/>
</g>
<g id="clust5" class="cluster">
<title>cluster_2:1</title>
<path fill="none" stroke="black" d="M39,-373C39,-373 309,-373 309,-373 315,-373 321,-379 321,-385 321,-385 321,-414 321,-414 321,-420 315,-426 309,-426 309,-426 39,-426 39,-426 33,-426 27,-420 27,-414 27,-414 27,-385 27,-385 27,-379 33,-373 39,-373"/>
</g>
<g id="clust6" class="cluster">
<title>cluster_259</title>
<polygon fill="none" stroke="black" points="59,-300 59,-353 273,-353 273,-300 59,-300"/>
</g>
<g id="clust7" class="cluster">
<title>cluster_4:1</title>
<path fill="none" stroke="black" d="M24,-227C24,-227 294,-227 294,-227 300,-227 306,-233 306,-239 306,-239 306,-268 306,-268 306,-274 300,-280 294,-280 294,-280 24,-280 24,-280 18,-280 12,-274 12,-268 12,-268 12,-239 12,-239 12,-233 18,-227 24,-227"/>
</g>
<g id="clust8" class="cluster">
<title>cluster_463</title>
<polygon fill="none" stroke="black" points="8,-154 8,-207 278,-207 278,-154 8,-154"/>
</g>
<g id="clust9" class="cluster">
<title>cluster_6:1</title>
<path fill="none" stroke="black" d="M88,-81C88,-81 226,-81 226,-81 232,-81 238,-87 238,-93 238,-93 238,-122 238,-122 238,-128 232,-134 226,-134 226,-134 88,-134 88,-134 82,-134 76,-128 76,-122 76,-122 76,-93 76,-93 76,-87 82,-81 88,-81"/>
</g>
<g id="clust10" class="cluster">
<title>cluster_663</title>
<polygon fill="none" stroke="black" points="86,-8 86,-61 228,-61 228,-8 86,-8"/>
</g>
<!-- 1|1CREATION[0, 1] -->
<g id="node1" class="node">
<title>1|1CREATION[0, 1]</title>
<path fill="none" stroke="black" d="M47,-673.5C47,-673.5 117,-673.5 117,-673.5 123,-673.5 129,-679.5 129,-685.5 129,-685.5 129,-697.5 129,-697.5 129,-703.5 123,-709.5 117,-709.5 117,-709.5 47,-709.5 47,-709.5 41,-709.5 35,-703.5 35,-697.5 35,-697.5 35,-685.5 35,-685.5 35,-679.5 41,-673.5 47,-673.5"/>
<text text-anchor="middle" x="82" y="-686.83" font-family="Times,serif" font-size="14.00">CREATION</text>
</g>
<!-- 1|15[0, 1] -->
<g id="node2" class="node">
<title>1|15[0, 1]</title>
<polygon fill="none" stroke="black" points="71,-600.5 71,-636.5 125,-636.5 125,-600.5 71,-600.5"/>
<text text-anchor="middle" x="97.75" y="-613.83" font-family="Times,serif" font-size="14.00">⟨0, 1⟩</text>
</g>
<!-- 1|1CREATION[0, 1]&#45;&gt;1|15[0, 1] -->
<g id="edge1" class="edge">
<title>1|1CREATION[0, 1]&#45;&gt;1|15[0, 1]</title>
<path fill="none" stroke="black" d="M85.87,-673.31C87.6,-665.64 89.69,-656.39 91.64,-647.74"/>
<polygon fill="black" stroke="black" points="95.05,-648.53 93.83,-638.01 88.22,-646.99 95.05,-648.53"/>
</g>
<!-- 10|1MODIFICATION[0, 1] -->
<g id="node6" class="node">
<title>10|1MODIFICATION[0, 1]</title>
<path fill="none" stroke="black" d="M29,-527.5C29,-527.5 135,-527.5 135,-527.5 141,-527.5 147,-533.5 147,-539.5 147,-539.5 147,-551.5 147,-551.5 147,-557.5 141,-563.5 135,-563.5 135,-563.5 29,-563.5 29,-563.5 23,-563.5 17,-557.5 17,-551.5 17,-551.5 17,-539.5 17,-539.5 17,-533.5 23,-527.5 29,-527.5"/>
<text text-anchor="middle" x="82" y="-540.83" font-family="Times,serif" font-size="14.00">MODIFICATION</text>
</g>
<!-- 1|15[0, 1]&#45;&gt;10|1MODIFICATION[0, 1] -->
<g id="edge3" class="edge">
<title>1|15[0, 1]&#45;&gt;10|1MODIFICATION[0, 1]</title>
<path fill="none" stroke="black" d="M94.13,-600.31C92.4,-592.64 90.31,-583.39 88.36,-574.74"/>
<polygon fill="black" stroke="black" points="91.78,-573.99 86.17,-565.01 84.95,-575.53 91.78,-573.99"/>
</g>
<!-- 1|1CREATION[1] -->
<g id="node3" class="node">
<title>1|1CREATION[1]</title>
<path fill="none" stroke="black" d="M159,-673.5C159,-673.5 229,-673.5 229,-673.5 235,-673.5 241,-679.5 241,-685.5 241,-685.5 241,-697.5 241,-697.5 241,-703.5 235,-709.5 229,-709.5 229,-709.5 159,-709.5 159,-709.5 153,-709.5 147,-703.5 147,-697.5 147,-697.5 147,-685.5 147,-685.5 147,-679.5 153,-673.5 159,-673.5"/>
<text text-anchor="middle" x="194" y="-686.83" font-family="Times,serif" font-size="14.00">CREATION</text>
</g>
<!-- 1|15[1] -->
<g id="node4" class="node">
<title>1|15[1]</title>
<polygon fill="none" stroke="black" points="143,-600.5 143,-636.5 197,-636.5 197,-600.5 143,-600.5"/>
<text text-anchor="middle" x="169.75" y="-613.83" font-family="Times,serif" font-size="14.00">⟨1⟩</text>
</g>
<!-- 1|1CREATION[1]&#45;&gt;1|15[1] -->
<g id="edge2" class="edge">
<title>1|1CREATION[1]&#45;&gt;1|15[1]</title>
<path fill="none" stroke="black" d="M188.19,-673.31C185.54,-665.46 182.33,-655.97 179.35,-647.16"/>
<polygon fill="black" stroke="black" points="182.76,-646.32 176.24,-637.96 176.13,-648.56 182.76,-646.32"/>
</g>
<!-- 10|1NOMODIF[1] -->
<g id="node7" class="node">
<title>10|1NOMODIF[1]</title>
<path fill="none" stroke="black" d="M177.5,-527.5C177.5,-527.5 244.5,-527.5 244.5,-527.5 250.5,-527.5 256.5,-533.5 256.5,-539.5 256.5,-539.5 256.5,-551.5 256.5,-551.5 256.5,-557.5 250.5,-563.5 244.5,-563.5 244.5,-563.5 177.5,-563.5 177.5,-563.5 171.5,-563.5 165.5,-557.5 165.5,-551.5 165.5,-551.5 165.5,-539.5 165.5,-539.5 165.5,-533.5 171.5,-527.5 177.5,-527.5"/>
<text text-anchor="middle" x="211" y="-540.83" font-family="Times,serif" font-size="14.00">NOMODIF</text>
</g>
<!-- 1|15[1]&#45;&gt;10|1NOMODIF[1] -->
<g id="edge4" class="edge">
<title>1|15[1]&#45;&gt;10|1NOMODIF[1]</title>
<path fill="none" stroke="black" d="M179.92,-600.31C184.61,-592.2 190.31,-582.34 195.54,-573.28"/>
<polygon fill="black" stroke="black" points="198.44,-575.25 200.41,-564.84 192.38,-571.75 198.44,-575.25"/>
</g>
<!-- 1:1 -->
<g id="node5" class="node">
<title>1:1</title>
<path fill="lightgrey" stroke="lightgrey" d="M271,-673.5C271,-673.5 301,-673.5 301,-673.5 307,-673.5 313,-679.5 313,-685.5 313,-685.5 313,-697.5 313,-697.5 313,-703.5 307,-709.5 301,-709.5 301,-709.5 271,-709.5 271,-709.5 265,-709.5 259,-703.5 259,-697.5 259,-697.5 259,-685.5 259,-685.5 259,-679.5 265,-673.5 271,-673.5"/>
<text text-anchor="middle" x="285.75" y="-686.83" font-family="Times,serif" font-size="14.00">1:1</text>
</g>
<!-- 10|15[0, 1] -->
<g id="node9" class="node">
<title>10|15[0, 1]</title>
<polygon fill="none" stroke="black" points="68,-454.5 68,-490.5 122,-490.5 122,-454.5 68,-454.5"/>
<text text-anchor="middle" x="94.75" y="-467.82" font-family="Times,serif" font-size="14.00">⟨0, 1⟩</text>
</g>
<!-- 10|1MODIFICATION[0, 1]&#45;&gt;10|15[0, 1] -->
<g id="edge5" class="edge">
<title>10|1MODIFICATION[0, 1]&#45;&gt;10|15[0, 1]</title>
<path fill="none" stroke="black" d="M85.15,-527.31C86.55,-519.64 88.25,-510.39 89.83,-501.74"/>
<polygon fill="black" stroke="black" points="93.25,-502.48 91.61,-492.02 86.37,-501.22 93.25,-502.48"/>
</g>
<!-- 10|15[1] -->
<g id="node10" class="node">
<title>10|15[1]</title>
<polygon fill="none" stroke="black" points="140,-454.5 140,-490.5 194,-490.5 194,-454.5 140,-454.5"/>
<text text-anchor="middle" x="166.75" y="-467.82" font-family="Times,serif" font-size="14.00">⟨1⟩</text>
</g>
<!-- 10|1NOMODIF[1]&#45;&gt;10|15[1] -->
<g id="edge6" class="edge">
<title>10|1NOMODIF[1]&#45;&gt;10|15[1]</title>
<path fill="none" stroke="black" d="M200.35,-527.31C195.32,-519.2 189.21,-509.34 183.59,-500.28"/>
<polygon fill="black" stroke="black" points="186.59,-498.47 178.35,-491.82 180.64,-502.16 186.59,-498.47"/>
</g>
<!-- 15 -->
<g id="node8" class="node">
<title>15</title>
<polygon fill="lightblue" stroke="lightblue" points="215,-600.5 215,-636.5 269,-636.5 269,-600.5 215,-600.5"/>
<text text-anchor="middle" x="242" y="-613.83" font-family="Times,serif" font-size="14.00">5</text>
</g>
<!-- 2|1CREATION[0, 1] -->
<g id="node12" class="node">
<title>2|1CREATION[0, 1]</title>
<path fill="none" stroke="black" d="M47,-381.5C47,-381.5 117,-381.5 117,-381.5 123,-381.5 129,-387.5 129,-393.5 129,-393.5 129,-405.5 129,-405.5 129,-411.5 123,-417.5 117,-417.5 117,-417.5 47,-417.5 47,-417.5 41,-417.5 35,-411.5 35,-405.5 35,-405.5 35,-393.5 35,-393.5 35,-387.5 41,-381.5 47,-381.5"/>
<text text-anchor="middle" x="82" y="-394.82" font-family="Times,serif" font-size="14.00">CREATION</text>
</g>
<!-- 10|15[0, 1]&#45;&gt;2|1CREATION[0, 1] -->
<g id="edge7" class="edge">
<title>10|15[0, 1]&#45;&gt;2|1CREATION[0, 1]</title>
<path fill="none" stroke="red" d="M91.85,-454.31C90.45,-446.64 88.75,-437.39 87.17,-428.74"/>
<polygon fill="red" stroke="red" points="90.63,-428.22 85.39,-419.02 83.75,-429.48 90.63,-428.22"/>
</g>
<!-- 2|1CREATION[1] -->
<g id="node13" class="node">
<title>2|1CREATION[1]</title>
<path fill="none" stroke="black" d="M159,-381.5C159,-381.5 229,-381.5 229,-381.5 235,-381.5 241,-387.5 241,-393.5 241,-393.5 241,-405.5 241,-405.5 241,-411.5 235,-417.5 229,-417.5 229,-417.5 159,-417.5 159,-417.5 153,-417.5 147,-411.5 147,-405.5 147,-405.5 147,-393.5 147,-393.5 147,-387.5 153,-381.5 159,-381.5"/>
<text text-anchor="middle" x="194" y="-394.82" font-family="Times,serif" font-size="14.00">CREATION</text>
</g>
<!-- 10|15[1]&#45;&gt;2|1CREATION[1] -->
<g id="edge8" class="edge">
<title>10|15[1]&#45;&gt;2|1CREATION[1]</title>
<path fill="none" stroke="red" d="M173.54,-454.31C176.52,-446.46 180.13,-436.97 183.48,-428.16"/>
<polygon fill="red" stroke="red" points="186.7,-429.53 186.99,-418.94 180.16,-427.05 186.7,-429.53"/>
</g>
<!-- 10:1 -->
<g id="node11" class="node">
<title>10:1</title>
<path fill="lightgrey" stroke="lightgrey" d="M287,-527.5C287,-527.5 317,-527.5 317,-527.5 323,-527.5 329,-533.5 329,-539.5 329,-539.5 329,-551.5 329,-551.5 329,-557.5 323,-563.5 317,-563.5 317,-563.5 287,-563.5 287,-563.5 281,-563.5 275,-557.5 275,-551.5 275,-551.5 275,-539.5 275,-539.5 275,-533.5 281,-527.5 287,-527.5"/>
<text text-anchor="middle" x="301.75" y="-540.83" font-family="Times,serif" font-size="14.00">10:1</text>
</g>
<!-- 2|159[0, 1] -->
<g id="node15" class="node">
<title>2|159[0, 1]</title>
<polygon fill="none" stroke="black" points="67,-308.5 67,-344.5 121,-344.5 121,-308.5 67,-308.5"/>
<text text-anchor="middle" x="93.75" y="-321.82" font-family="Times,serif" font-size="14.00">⟨0, 1⟩</text>
</g>
<!-- 2|1CREATION[0, 1]&#45;&gt;2|159[0, 1] -->
<g id="edge9" class="edge">
<title>2|1CREATION[0, 1]&#45;&gt;2|159[0, 1]</title>
<path fill="none" stroke="black" d="M84.9,-381.31C86.2,-373.64 87.76,-364.39 89.23,-355.74"/>
<polygon fill="black" stroke="black" points="92.65,-356.46 90.87,-346.02 85.75,-355.3 92.65,-356.46"/>
</g>
<!-- 2|159[1] -->
<g id="node16" class="node">
<title>2|159[1]</title>
<polygon fill="none" stroke="black" points="139,-308.5 139,-344.5 193,-344.5 193,-308.5 139,-308.5"/>
<text text-anchor="middle" x="165.75" y="-321.82" font-family="Times,serif" font-size="14.00">⟨1⟩</text>
</g>
<!-- 2|1CREATION[1]&#45;&gt;2|159[1] -->
<g id="edge10" class="edge">
<title>2|1CREATION[1]&#45;&gt;2|159[1]</title>
<path fill="none" stroke="black" d="M187.22,-381.31C184.13,-373.46 180.38,-363.97 176.91,-355.16"/>
<polygon fill="black" stroke="black" points="180.2,-353.96 173.27,-345.94 173.68,-356.52 180.2,-353.96"/>
</g>
<!-- 105 -->
<g id="node14" class="node">
<title>105</title>
<polygon fill="lightblue" stroke="lightblue" points="212,-454.5 212,-490.5 266,-490.5 266,-454.5 212,-454.5"/>
<text text-anchor="middle" x="239" y="-467.82" font-family="Times,serif" font-size="14.00">5</text>
</g>
<!-- 4|1CREATION[0, 1] -->
<g id="node18" class="node">
<title>4|1CREATION[0, 1]</title>
<path fill="none" stroke="black" d="M32,-235.5C32,-235.5 102,-235.5 102,-235.5 108,-235.5 114,-241.5 114,-247.5 114,-247.5 114,-259.5 114,-259.5 114,-265.5 108,-271.5 102,-271.5 102,-271.5 32,-271.5 32,-271.5 26,-271.5 20,-265.5 20,-259.5 20,-259.5 20,-247.5 20,-247.5 20,-241.5 26,-235.5 32,-235.5"/>
<text text-anchor="middle" x="67" y="-248.82" font-family="Times,serif" font-size="14.00">CREATION</text>
</g>
<!-- 2|159[0, 1]&#45;&gt;4|1CREATION[0, 1] -->
<g id="edge11" class="edge">
<title>2|159[0, 1]&#45;&gt;4|1CREATION[0, 1]</title>
<path fill="none" stroke="red" d="M87.46,-308.31C84.48,-300.46 80.87,-290.97 77.52,-282.16"/>
<polygon fill="red" stroke="red" points="80.84,-281.05 74.01,-272.94 74.3,-283.53 80.84,-281.05"/>
</g>
<!-- 4|1CREATION[1, 2] -->
<g id="node19" class="node">
<title>4|1CREATION[1, 2]</title>
<path fill="none" stroke="black" d="M144,-235.5C144,-235.5 214,-235.5 214,-235.5 220,-235.5 226,-241.5 226,-247.5 226,-247.5 226,-259.5 226,-259.5 226,-265.5 220,-271.5 214,-271.5 214,-271.5 144,-271.5 144,-271.5 138,-271.5 132,-265.5 132,-259.5 132,-259.5 132,-247.5 132,-247.5 132,-241.5 138,-235.5 144,-235.5"/>
<text text-anchor="middle" x="179" y="-248.82" font-family="Times,serif" font-size="14.00">CREATION</text>
</g>
<!-- 2|159[1]&#45;&gt;4|1CREATION[1, 2] -->
<g id="edge12" class="edge">
<title>2|159[1]&#45;&gt;4|1CREATION[1, 2]</title>
<path fill="none" stroke="red" d="M169.15,-308.31C170.55,-300.64 172.25,-291.39 173.83,-282.74"/>
<polygon fill="red" stroke="red" points="177.25,-283.48 175.61,-273.02 170.37,-282.22 177.25,-283.48"/>
</g>
<!-- 2:1 -->
<g id="node17" class="node">
<title>2:1</title>
<path fill="lightgrey" stroke="lightgrey" d="M271,-381.5C271,-381.5 301,-381.5 301,-381.5 307,-381.5 313,-387.5 313,-393.5 313,-393.5 313,-405.5 313,-405.5 313,-411.5 307,-417.5 301,-417.5 301,-417.5 271,-417.5 271,-417.5 265,-417.5 259,-411.5 259,-405.5 259,-405.5 259,-393.5 259,-393.5 259,-387.5 265,-381.5 271,-381.5"/>
<text text-anchor="middle" x="285.75" y="-394.82" font-family="Times,serif" font-size="14.00">2:1</text>
</g>
<!-- 4|163[0, 1] -->
<g id="node21" class="node">
<title>4|163[0, 1]</title>
<polygon fill="none" stroke="black" points="16.5,-162.5 16.5,-198.5 125.5,-198.5 125.5,-162.5 16.5,-162.5"/>
<text text-anchor="middle" x="71" y="-175.82" font-family="Times,serif" font-size="14.00">@1.@2.⟨0, 1⟩</text>
</g>
<!-- 4|1CREATION[0, 1]&#45;&gt;4|163[0, 1] -->
<g id="edge13" class="edge">
<title>4|1CREATION[0, 1]&#45;&gt;4|163[0, 1]</title>
<path fill="none" stroke="black" d="M67.97,-235.31C68.4,-227.64 68.92,-218.39 69.41,-209.74"/>
<polygon fill="black" stroke="black" points="72.89,-210.22 69.96,-200.04 65.9,-209.83 72.89,-210.22"/>
</g>
<!-- 4|163[1, 2] -->
<g id="node22" class="node">
<title>4|163[1, 2]</title>
<polygon fill="none" stroke="black" points="144,-162.5 144,-198.5 198,-198.5 198,-162.5 144,-162.5"/>
<text text-anchor="middle" x="170.75" y="-175.82" font-family="Times,serif" font-size="14.00">⟨1, 2⟩</text>
</g>
<!-- 4|1CREATION[1, 2]&#45;&gt;4|163[1, 2] -->
<g id="edge14" class="edge">
<title>4|1CREATION[1, 2]&#45;&gt;4|163[1, 2]</title>
<path fill="none" stroke="black" d="M177.06,-235.31C176.2,-227.64 175.16,-218.39 174.18,-209.74"/>
<polygon fill="black" stroke="black" points="177.69,-209.58 173.09,-200.03 170.73,-210.36 177.69,-209.58"/>
</g>
<!-- 259 -->
<g id="node20" class="node">
<title>259</title>
<polygon fill="lightblue" stroke="lightblue" points="211,-308.5 211,-344.5 265,-344.5 265,-308.5 211,-308.5"/>
<text text-anchor="middle" x="238" y="-321.82" font-family="Times,serif" font-size="14.00">59</text>
</g>
<!-- 6|1MERGE[1, 2] -->
<g id="node24" class="node">
<title>6|1MERGE[1, 2]</title>
<path fill="none" stroke="black" d="M96.5,-89.5C96.5,-89.5 145.5,-89.5 145.5,-89.5 151.5,-89.5 157.5,-95.5 157.5,-101.5 157.5,-101.5 157.5,-113.5 157.5,-113.5 157.5,-119.5 151.5,-125.5 145.5,-125.5 145.5,-125.5 96.5,-125.5 96.5,-125.5 90.5,-125.5 84.5,-119.5 84.5,-113.5 84.5,-113.5 84.5,-101.5 84.5,-101.5 84.5,-95.5 90.5,-89.5 96.5,-89.5"/>
<text text-anchor="middle" x="121" y="-102.83" font-family="Times,serif" font-size="14.00">MERGE</text>
</g>
<!-- 4|163[0, 1]&#45;&gt;6|1MERGE[1, 2] -->
<g id="edge15" class="edge">
<title>4|163[0, 1]&#45;&gt;6|1MERGE[1, 2]</title>
<path fill="none" stroke="red" d="M83.1,-162.31C88.94,-154.03 96.06,-143.91 102.55,-134.69"/>
<polygon fill="red" stroke="red" points="105.24,-136.96 108.14,-126.77 99.52,-132.93 105.24,-136.96"/>
</g>
<!-- 4|163[1, 2]&#45;&gt;6|1MERGE[1, 2] -->
<g id="edge16" class="edge">
<title>4|163[1, 2]&#45;&gt;6|1MERGE[1, 2]</title>
<path fill="none" stroke="black" d="M158.9,-162.31C153.06,-154.03 145.94,-143.91 139.45,-134.69"/>
<polygon fill="black" stroke="black" points="142.48,-132.93 133.86,-126.77 136.76,-136.96 142.48,-132.93"/>
</g>
<!-- 4:1 -->
<g id="node23" class="node">
<title>4:1</title>
<path fill="lightgrey" stroke="lightgrey" d="M256,-235.5C256,-235.5 286,-235.5 286,-235.5 292,-235.5 298,-241.5 298,-247.5 298,-247.5 298,-259.5 298,-259.5 298,-265.5 292,-271.5 286,-271.5 286,-271.5 256,-271.5 256,-271.5 250,-271.5 244,-265.5 244,-259.5 244,-259.5 244,-247.5 244,-247.5 244,-241.5 250,-235.5 256,-235.5"/>
<text text-anchor="middle" x="270.75" y="-248.82" font-family="Times,serif" font-size="14.00">4:1</text>
</g>
<!-- 6|163[1, 2] -->
<g id="node26" class="node">
<title>6|163[1, 2]</title>
<polygon fill="none" stroke="black" points="94,-16.5 94,-52.5 148,-52.5 148,-16.5 94,-16.5"/>
<text text-anchor="middle" x="120.75" y="-29.82" font-family="Times,serif" font-size="14.00">⟨1, 2⟩</text>
</g>
<!-- 6|1MERGE[1, 2]&#45;&gt;6|163[1, 2] -->
<g id="edge17" class="edge">
<title>6|1MERGE[1, 2]&#45;&gt;6|163[1, 2]</title>
<path fill="none" stroke="black" d="M121,-89.31C121,-81.73 121,-72.6 121,-64.04"/>
<polygon fill="black" stroke="black" points="124.5,-64.04 121,-54.04 117.5,-64.04 124.5,-64.04"/>
</g>
<!-- 463 -->
<g id="node25" class="node">
<title>463</title>
<polygon fill="lightblue" stroke="lightblue" points="216,-162.5 216,-198.5 270,-198.5 270,-162.5 216,-162.5"/>
<text text-anchor="middle" x="243" y="-175.82" font-family="Times,serif" font-size="14.00">63</text>
</g>
<!-- 6:1 -->
<g id="node27" class="node">
<title>6:1</title>
<path fill="lightgrey" stroke="lightgrey" d="M188,-89.5C188,-89.5 218,-89.5 218,-89.5 224,-89.5 230,-95.5 230,-101.5 230,-101.5 230,-113.5 230,-113.5 230,-119.5 224,-125.5 218,-125.5 218,-125.5 188,-125.5 188,-125.5 182,-125.5 176,-119.5 176,-113.5 176,-113.5 176,-101.5 176,-101.5 176,-95.5 182,-89.5 188,-89.5"/>
<text text-anchor="middle" x="202.75" y="-102.83" font-family="Times,serif" font-size="14.00">6:1</text>
</g>
<!-- 663 -->
<g id="node28" class="node">
<title>663</title>
<polygon fill="lightblue" stroke="lightblue" points="166,-16.5 166,-52.5 220,-52.5 220,-16.5 166,-16.5"/>
<text text-anchor="middle" x="193" y="-29.82" font-family="Times,serif" font-size="14.00">63</text>
</g>
</g>
</svg>
