<?xml version="1.0" encoding="UTF-8" standalone="no"?>
<!-- Created with Inkscape (http://www.inkscape.org/) -->

<svg
   width="274.02429mm"
   height="147.81389mm"
   viewBox="0 0 274.02429 147.81389"
   version="1.1"
   id="svg1"
   inkscape:version="1.4 (e7c3feb100, 2024-10-09)"
   sodipodi:docname="reevaluationTree-6-export-step-3.svg"
   xmlns:inkscape="http://www.inkscape.org/namespaces/inkscape"
   xmlns:sodipodi="http://sodipodi.sourceforge.net/DTD/sodipodi-0.dtd"
   xmlns="http://www.w3.org/2000/svg"
   xmlns:svg="http://www.w3.org/2000/svg">
  <sodipodi:namedview
     id="namedview1"
     pagecolor="#ffffff"
     bordercolor="#000000"
     borderopacity="0.25"
     inkscape:showpageshadow="2"
     inkscape:pageopacity="0.0"
     inkscape:pagecheckerboard="0"
     inkscape:deskcolor="#d1d1d1"
     inkscape:document-units="mm"
     inkscape:zoom="1.0998546"
     inkscape:cx="391.86998"
     inkscape:cy="251.85147"
     inkscape:window-width="1892"
     inkscape:window-height="1035"
     inkscape:window-x="1929"
     inkscape:window-y="26"
     inkscape:window-maximized="1"
     inkscape:current-layer="layer1"
     showgrid="false" />
  <defs
     id="defs1" />
  <g
     inkscape:label="Calque 1"
     inkscape:groupmode="layer"
     id="layer1"
     transform="translate(62.618056,-51.064587)">
    <path
       fill="none"
       stroke="#000000"
       d="m -4.7625013,69.938197 c 0,0 95.2499983,0 95.2499983,0 2.116666,0 4.233333,-2.116666 4.233333,-4.233333 0,0 0,-10.230555 0,-10.230555 0,-2.116667 -2.116667,-4.233333 -4.233333,-4.233333 0,0 -95.2499983,0 -95.2499983,0 -2.1166667,0 -4.2333333,2.116666 -4.2333333,4.233333 0,0 0,10.230555 0,10.230555 0,2.116667 2.1166666,4.233333 4.2333333,4.233333"
       id="path2"
       style="stroke-width:0.352778" />
    <polygon
       fill="none"
       stroke="#000000"
       points="199,-446 199,-499 413,-499 413,-446 "
       id="polygon3"
       transform="matrix(0.35277777,0,0,0.35277777,-64.558334,253.02986)" />
    <polygon
       fill="none"
       stroke="#000000"
       points="62,-300 62,-353 276,-353 276,-300 "
       id="polygon5"
       transform="matrix(0.35277777,0,0,0.35277777,-64.558334,253.02986)" />
    <path
       fill="none"
       stroke="#000000"
       d="m -58.031945,172.94931 c 0,0 95.249998,0 95.249998,0 2.116667,0 4.233334,-2.11667 4.233334,-4.23334 0,0 0,-10.23055 0,-10.23055 0,-2.11667 -2.116667,-4.23334 -4.233334,-4.23334 0,0 -95.249998,0 -95.249998,0 -2.116666,0 -4.233333,2.11667 -4.233333,4.23334 0,0 0,10.23055 0,10.23055 0,2.11667 2.116667,4.23334 4.233333,4.23334"
       id="path6"
       style="stroke-width:0.352778" />
    <polygon
       fill="none"
       stroke="#000000"
       points="48,-154 48,-207 262,-207 262,-154 "
       id="polygon7"
       transform="matrix(0.35277777,0,0,0.35277777,-64.558334,253.02986)" />
    <polygon
       fill="none"
       stroke="#000000"
       points="331,-300 331,-353 545,-353 545,-300 "
       id="polygon11"
       transform="matrix(0.35277777,0,0,0.35277777,-64.558334,253.02986)" />
    <path
       fill="none"
       stroke="#000000"
       d="m 48.85972,172.94931 c 0,0 95.25,0 95.25,0 2.11666,0 4.23333,-2.11667 4.23333,-4.23334 0,0 0,-10.23055 0,-10.23055 0,-2.11667 -2.11667,-4.23334 -4.23333,-4.23334 0,0 -95.25,0 -95.25,0 -2.116667,0 -4.233334,2.11667 -4.233334,4.23334 0,0 0,10.23055 0,10.23055 0,2.11667 2.116667,4.23334 4.233334,4.23334"
       id="path12"
       style="stroke-width:0.352778" />
    <polygon
       fill="none"
       stroke="#000000"
       points="351,-154 351,-207 565,-207 565,-154 "
       id="polygon13"
       transform="matrix(0.35277777,0,0,0.35277777,-64.558334,253.02986)" />
    <path
       fill="none"
       stroke="#000000"
       d="m 23.45972,66.939586 c 0,0 24.694444,0 24.694444,0 2.116666,0 4.233333,-2.116666 4.233333,-4.233333 0,0 0,-4.233333 0,-4.233333 0,-2.116667 -2.116667,-4.233333 -4.233333,-4.233333 0,0 -24.694444,0 -24.694444,0 -2.116667,0 -4.233333,2.116666 -4.233333,4.233333 0,0 0,4.233333 0,4.233333 0,2.116667 2.116666,4.233333 4.233333,4.233333"
       id="path16"
       style="stroke-width:0.352778" />
    <text
       text-anchor="middle"
       x="35.806942"
       y="62.237053"
       font-family="Times, serif"
       font-size="4.93889px"
       id="text16"
       style="stroke-width:0.352778">CREATION</text>
    <polygon
       fill="none"
       stroke="#000000"
       points="207,-454.5 207,-490.5 261,-490.5 261,-454.5 "
       id="polygon17"
       transform="matrix(0.35277777,0,0,0.35277777,-39.687501,253.02986)" />
    <text
       text-anchor="middle"
       x="42.774303"
       y="87.993362"
       font-family="Times, serif"
       font-size="4.93889px"
       id="text17"
       style="stroke-width:0.352778">⟨⟩</text>
    <path
       fill="none"
       stroke="#000000"
       d="m 37.514386,67.006614 c 0.772584,2.737556 1.703917,6.043083 2.57175,9.122833"
       id="path18"
       style="stroke-width:0.352778" />
    <polygon
       fill="#000000"
       stroke="#000000"
       points="229.45,-502.56 228.79,-491.99 222.71,-500.66 "
       id="polygon18"
       transform="matrix(0.35277777,0,0,0.35277777,-39.687501,253.02986)" />
    <path
       fill="none"
       stroke="#000000"
       d="M 33.203442,91.524669 C 26.250192,94.99953 16.714609,99.769086 8.650109,103.80134"
       id="path20"
       style="stroke-width:0.352778" />
    <polygon
       fill="#000000"
       stroke="#000000"
       points="138.71,-419.94 128.2,-418.6 135.58,-426.2 "
       id="polygon20"
       transform="matrix(0.35277777,0,0,0.35277777,-39.687501,253.02986)" />
    <path
       fill="none"
       stroke="#000000"
       d="m 62.97083,66.939586 c 0,0 24.694444,0 24.694444,0 2.116667,0 4.233333,-2.116666 4.233333,-4.233333 0,0 0,-4.233333 0,-4.233333 0,-2.116667 -2.116666,-4.233333 -4.233333,-4.233333 0,0 -24.694444,0 -24.694444,0 -2.116667,0 -4.233333,2.116666 -4.233333,4.233333 0,0 0,4.233333 0,4.233333 0,2.116667 2.116666,4.233333 4.233333,4.233333"
       id="path23"
       style="stroke-width:0.352778" />
    <text
       text-anchor="middle"
       x="75.318054"
       y="62.237053"
       font-family="Times, serif"
       font-size="4.93889px"
       id="text23"
       style="stroke-width:0.352778">CREATION</text>
    <polygon
       fill="none"
       stroke="#000000"
       points="279,-454.5 279,-490.5 333,-490.5 333,-454.5 "
       id="polygon24"
       transform="matrix(0.35277777,0,0,0.35277777,-39.687501,253.02986)" />
    <text
       text-anchor="middle"
       x="68.174301"
       y="87.993362"
       font-family="Times, serif"
       font-size="4.93889px"
       id="text24"
       style="stroke-width:0.352778">⟨0⟩</text>
    <path
       fill="none"
       stroke="#000000"
       d="m 73.610608,67.006614 c -0.772584,2.737556 -1.703917,6.043083 -2.57175,9.122833"
       id="path25"
       style="stroke-width:0.352778" />
    <polygon
       fill="#000000"
       stroke="#000000"
       points="317.29,-500.66 311.21,-491.99 310.55,-502.56 "
       id="polygon25"
       transform="matrix(0.35277777,0,0,0.35277777,-39.687501,253.02986)" />
    <path
       fill="none"
       stroke="#000000"
       d="m 60.095691,92.861697 c -1.474611,1.001889 -3.023305,1.986139 -4.533194,2.829278 -6.992056,3.905249 -9.539111,3.2385 -16.580555,7.055555 -0.4445,0.23989 -0.892528,0.49036 -1.340556,0.75142"
       id="path27"
       style="stroke-width:0.352778" />
    <polygon
       fill="#000000"
       stroke="#000000"
       points="221.16,-420.97 210.81,-418.72 217.5,-426.93 "
       id="polygon27"
       transform="matrix(0.35277777,0,0,0.35277777,-39.687501,253.02986)" />
    <path
       fill="none"
       stroke="#000000"
       d="m 129.22909,118.47062 c -5.42335,3.17939 -8.29862,4.73039 -11.75434,9.50795"
       id="path27-4"
       sodipodi:nodetypes="cc"
       style="stroke-width:0.352778" />
    <polygon
       fill="#000000"
       stroke="#000000"
       points="217.5,-426.93 221.16,-420.97 210.81,-418.72 "
       id="polygon27-3"
       transform="matrix(0.32262504,-0.14270683,0.14270683,0.32262504,107.21396,296.05535)" />
    <polygon
       fill="none"
       stroke="#000000"
       points="70,-308.5 70,-344.5 124,-344.5 124,-308.5 "
       id="polygon31"
       transform="matrix(0.35277777,0,0,0.35277777,-39.687501,253.02986)" />
    <text
       text-anchor="middle"
       x="-5.5562515"
       y="139.49892"
       font-family="Times, serif"
       font-size="4.93889px"
       id="text31"
       style="stroke-width:0.352778">⟨⟩</text>
    <path
       fill="none"
       stroke="#000000"
       d="m -6.8050851,118.51217 c 0.1905,2.7058 0.4198056,5.969 0.635,9.02053"
       id="path32"
       style="stroke-width:0.352778" />
    <polygon
       fill="#000000"
       stroke="#000000"
       points="98.48,-356.26 95.69,-346.04 91.5,-355.77 "
       id="polygon32"
       transform="matrix(0.35277777,0,0,0.35277777,-39.687501,253.02986)" />
    <polygon
       fill="none"
       stroke="#000000"
       points="339,-308.5 339,-344.5 393,-344.5 393,-308.5 "
       id="polygon33"
       transform="matrix(0.35277777,0,0,0.35277777,-39.687501,253.02986)" />
    <text
       text-anchor="middle"
       x="89.340965"
       y="139.49892"
       font-family="Times, serif"
       font-size="4.93889px"
       id="text33"
       style="stroke-width:0.352778">⟨⟩</text>
    <polygon
       fill="none"
       stroke="#000000"
       points="142,-308.5 142,-344.5 196,-344.5 196,-308.5 "
       id="polygon35"
       transform="matrix(0.35277777,0,0,0.35277777,-39.687501,253.02986)" />
    <text
       text-anchor="middle"
       x="19.843748"
       y="139.49892"
       font-family="Times, serif"
       font-size="4.93889px"
       id="text35"
       style="stroke-width:0.352778">⟨0⟩</text>
    <path
       fill="none"
       stroke="#000000"
       d="m 24.211136,118.51217 c -0.610305,2.7058 -1.347611,5.969 -2.035527,9.02053"
       id="path36"
       style="stroke-width:0.352778" />
    <polygon
       fill="#000000"
       stroke="#000000"
       points="178.78,-354.99 173.17,-346.01 171.95,-356.53 "
       id="polygon36"
       transform="matrix(0.35277777,0,0,0.35277777,-39.687501,253.02986)" />
    <polygon
       fill="none"
       stroke="#000000"
       points="411,-308.5 411,-344.5 465,-344.5 465,-308.5 "
       id="polygon37"
       transform="matrix(0.35277777,0,0,0.35277777,-39.687501,253.02986)" />
    <text
       text-anchor="middle"
       x="114.74097"
       y="139.49892"
       font-family="Times, serif"
       font-size="4.93889px"
       id="text37"
       style="stroke-width:0.352778">⟨0⟩</text>
    <polygon
       fill="#add8e6"
       stroke="#add8e6"
       points="351,-490.5 405,-490.5 405,-454.5 351,-454.5 "
       id="polygon39"
       transform="matrix(0.35277777,0,0,0.35277777,-115.83748,253.02986)" />
    <text
       text-anchor="middle"
       x="17.512518"
       y="87.993362"
       font-family="Times, serif"
       font-size="4.93889px"
       id="text39"
       style="stroke-width:0.352778">3</text>
    <path
       fill="none"
       stroke="#000000"
       d="m -29.809723,169.9507 c 0,0 24.6944435,0 24.6944435,0 2.1166666,0 4.2333332,-2.11667 4.2333332,-4.23334 0,0 0,-4.23333 0,-4.23333 0,-2.11667 -2.1166666,-4.23333 -4.2333332,-4.23333 0,0 -24.6944435,0 -24.6944435,0 -2.116667,0 -4.233334,2.11666 -4.233334,4.23333 0,0 0,4.23333 0,4.23333 0,2.11667 2.116667,4.23334 4.233334,4.23334"
       id="path40"
       style="stroke-width:0.352778" />
    <text
       text-anchor="middle"
       x="-17.462502"
       y="165.25169"
       font-family="Times, serif"
       font-size="4.93889px"
       id="text40"
       style="stroke-width:0.352778">CREATION</text>
    <path
       fill="none"
       stroke="#ff0000"
       d="m -8.3714184,144.26495 c -1.3405555,2.79752 -2.9668606,6.19125 -4.4696946,9.33097"
       id="path41"
       style="stroke-width:0.352778" />
    <polygon
       fill="#ff0000"
       stroke="#ff0000"
       points="79.28,-280.4 71.81,-272.89 72.97,-283.42 "
       id="polygon41"
       transform="matrix(0.35277777,0,0,0.35277777,-39.687501,253.02986)" />
    <path
       fill="none"
       stroke="#000000"
       d="m 9.7013868,169.9507 c 0,0 24.6944442,0 24.6944442,0 2.116666,0 4.233333,-2.11667 4.233333,-4.23334 0,0 0,-4.23333 0,-4.23333 0,-2.11667 -2.116667,-4.23333 -4.233333,-4.23333 0,0 -24.6944442,0 -24.6944442,0 -2.1166666,0 -4.2333332,2.11666 -4.2333332,4.23333 0,0 0,4.23333 0,4.23333 0,2.11667 2.1166666,4.23334 4.2333332,4.23334"
       id="path42"
       style="stroke-width:0.352778" />
    <text
       text-anchor="middle"
       x="22.048609"
       y="165.25169"
       font-family="Times, serif"
       font-size="4.93889px"
       id="text42"
       style="stroke-width:0.352778">CREATION</text>
    <path
       fill="none"
       stroke="#ff0000"
       d="m 20.44347,144.26495 c 0.229305,2.7058 0.504472,5.969 0.762,9.02052"
       id="path43"
       style="stroke-width:0.352778" />
    <polygon
       fill="#ff0000"
       stroke="#ff0000"
       points="176.08,-283.3 173.43,-273.04 169.1,-282.71 "
       id="polygon43"
       transform="matrix(0.35277777,0,0,0.35277777,-39.687501,253.02986)" />
    <polygon
       fill="none"
       stroke="#000000"
       points="56,-162.5 56,-198.5 110,-198.5 110,-162.5 "
       id="polygon45"
       transform="matrix(0.35277777,0,0,0.35277777,-39.687501,253.02986)" />
    <text
       text-anchor="middle"
       x="-10.49514"
       y="191.00447"
       font-family="Times, serif"
       font-size="4.93889px"
       id="text45"
       style="stroke-width:0.352778">⟨0⟩</text>
    <path
       fill="none"
       stroke="#000000"
       d="m -15.755057,170.01772 c 0.772583,2.73756 1.703917,6.04309 2.57175,9.12284"
       id="path46"
       style="stroke-width:0.352778" />
    <polygon
       fill="#000000"
       stroke="#000000"
       points="78.45,-210.56 77.79,-199.99 71.71,-208.66 "
       id="polygon46"
       transform="matrix(0.35277777,0,0,0.35277777,-39.687501,253.02986)" />
    <polygon
       fill="none"
       stroke="#000000"
       points="128,-162.5 128,-198.5 182,-198.5 182,-162.5 "
       id="polygon47"
       transform="matrix(0.35277777,0,0,0.35277777,-39.687501,253.02986)" />
    <text
       text-anchor="middle"
       x="14.904859"
       y="191.00447"
       font-family="Times, serif"
       font-size="4.93889px"
       id="text47"
       style="stroke-width:0.352778">⟨0, 1⟩</text>
    <path
       fill="none"
       stroke="#000000"
       d="m 20.341164,170.01772 c -0.772583,2.73756 -1.703916,6.04309 -2.57175,9.12284"
       id="path48"
       style="stroke-width:0.352778" />
    <polygon
       fill="#000000"
       stroke="#000000"
       points="166.29,-208.66 160.21,-199.99 159.55,-210.56 "
       id="polygon48"
       transform="matrix(0.35277777,0,0,0.35277777,-39.687501,253.02986)" />
    <polygon
       fill="#add8e6"
       stroke="#add8e6"
       points="268,-308.5 214,-308.5 214,-344.5 268,-344.5 "
       id="polygon49"
       transform="matrix(0.35277777,0,0,0.35277777,-115.35833,253.02986)" />
    <text
       text-anchor="middle"
       x="-30.338888"
       y="139.49892"
       font-family="Times, serif"
       font-size="4.93889px"
       id="text49"
       style="stroke-width:0.352778">3</text>
    <polygon
       fill="#add8e6"
       stroke="#add8e6"
       points="254,-162.5 200,-162.5 200,-198.5 254,-198.5 "
       id="polygon57"
       transform="matrix(0.35277777,0,0,0.35277777,-115.35833,253.02986)" />
    <text
       text-anchor="middle"
       x="-35.277775"
       y="191.00447"
       font-family="Times, serif"
       font-size="4.93889px"
       id="text57"
       style="stroke-width:0.352778">37</text>
    <path
       fill="none"
       stroke="#000000"
       d="m 77.081941,169.9507 c 0,0 24.694439,0 24.694439,0 2.11667,0 4.23334,-2.11667 4.23334,-4.23334 0,0 0,-4.23333 0,-4.23333 0,-2.11667 -2.11667,-4.23333 -4.23334,-4.23333 0,0 -24.694439,0 -24.694439,0 -2.116667,0 -4.233333,2.11666 -4.233333,4.23333 0,0 0,4.23333 0,4.23333 0,2.11667 2.116666,4.23334 4.233333,4.23334"
       id="path61"
       style="stroke-width:0.352778" />
    <text
       text-anchor="middle"
       x="89.429161"
       y="165.25169"
       font-family="Times, serif"
       font-size="4.93889px"
       id="text61"
       style="stroke-width:0.352778">CREATION</text>
    <path
       fill="none"
       stroke="#ff0000"
       d="m 89.429163,144.26495 c 0,2.67405 0,5.89491 0,8.91469"
       id="path62"
       style="stroke-width:0.352778" />
    <polygon
       fill="#ff0000"
       stroke="#ff0000"
       points="369.5,-283.04 366,-273.04 362.5,-283.04 "
       id="polygon62"
       transform="matrix(0.35277777,0,0,0.35277777,-39.687501,253.02986)" />
    <path
       fill="none"
       stroke="#000000"
       d="m 116.59305,169.9507 c 0,0 24.69445,0 24.69445,0 2.11666,0 4.23333,-2.11667 4.23333,-4.23334 0,0 0,-4.23333 0,-4.23333 0,-2.11667 -2.11667,-4.23333 -4.23333,-4.23333 0,0 -24.69445,0 -24.69445,0 -2.11667,0 -4.23333,2.11666 -4.23333,4.23333 0,0 0,4.23333 0,4.23333 0,2.11667 2.11666,4.23334 4.23333,4.23334"
       id="path63"
       style="stroke-width:0.352778" />
    <text
       text-anchor="middle"
       x="128.94028"
       y="165.25169"
       font-family="Times, serif"
       font-size="4.93889px"
       id="text63"
       style="stroke-width:0.352778">CREATION</text>
    <path
       fill="none"
       stroke="#ff0000"
       d="m 118.24405,144.26495 c 1.6122,2.86102 3.57364,6.33941 5.37281,9.53558"
       id="path64"
       style="stroke-width:0.352778" />
    <polygon
       fill="#ff0000"
       stroke="#ff0000"
       points="465.8,-283.28 467.66,-272.85 459.71,-279.84 "
       id="polygon64"
       transform="matrix(0.35277777,0,0,0.35277777,-39.687501,253.02986)" />
    <polygon
       fill="none"
       stroke="#000000"
       points="359,-162.5 359,-198.5 413,-198.5 413,-162.5 "
       id="polygon66"
       transform="matrix(0.35277777,0,0,0.35277777,-39.687501,253.02986)" />
    <text
       text-anchor="middle"
       x="96.396523"
       y="191.00447"
       font-family="Times, serif"
       font-size="4.93889px"
       id="text66"
       style="stroke-width:0.352778">⟨0⟩</text>
    <path
       fill="none"
       stroke="#000000"
       d="m 91.136607,170.01772 c 0.772584,2.73756 1.703917,6.04309 2.57175,9.12284"
       id="path67"
       style="stroke-width:0.352778" />
    <polygon
       fill="#000000"
       stroke="#000000"
       points="381.45,-210.56 380.79,-199.99 374.71,-208.66 "
       id="polygon67"
       transform="matrix(0.35277777,0,0,0.35277777,-39.687501,253.02986)" />
    <polygon
       fill="none"
       stroke="#000000"
       points="431,-162.5 431,-198.5 485,-198.5 485,-162.5 "
       id="polygon68"
       transform="matrix(0.35277777,0,0,0.35277777,-39.687501,253.02986)" />
    <text
       text-anchor="middle"
       x="121.79652"
       y="191.00447"
       font-family="Times, serif"
       font-size="4.93889px"
       id="text68"
       style="stroke-width:0.352778">⟨0, 1⟩</text>
    <path
       fill="none"
       stroke="#000000"
       d="m 127.23283,170.01772 c -0.77258,2.73756 -1.70392,6.04309 -2.57175,9.12284"
       id="path69"
       style="stroke-width:0.352778" />
    <polygon
       fill="#000000"
       stroke="#000000"
       points="469.29,-208.66 463.21,-199.99 462.55,-210.56 "
       id="polygon69"
       transform="matrix(0.35277777,0,0,0.35277777,-39.687501,253.02986)" />
    <polygon
       fill="#add8e6"
       stroke="#add8e6"
       points="537,-308.5 483,-308.5 483,-344.5 537,-344.5 "
       id="polygon70"
       transform="matrix(0.35277777,0,0,0.35277777,-115.35833,253.02986)" />
    <text
       text-anchor="middle"
       x="64.558334"
       y="139.49892"
       font-family="Times, serif"
       font-size="4.93889px"
       id="text70"
       style="stroke-width:0.352778">4</text>
    <polygon
       fill="#add8e6"
       stroke="#add8e6"
       points="557,-162.5 503,-162.5 503,-198.5 557,-198.5 "
       id="polygon78"
       transform="matrix(0.35277777,0,0,0.35277777,-115.35833,253.02986)" />
    <text
       text-anchor="middle"
       x="71.613892"
       y="191.00447"
       font-family="Times, serif"
       font-size="4.93889px"
       id="text78"
       style="stroke-width:0.352778">52</text>
    <text
       xml:space="preserve"
       style="font-style:normal;font-variant:normal;font-weight:normal;font-stretch:normal;font-size:7.05556px;font-family:'Liberation Serif';-inkscape-font-specification:'Liberation Serif, Normal';font-variant-ligatures:normal;font-variant-caps:normal;font-variant-numeric:normal;font-variant-east-asian:normal;fill:#000000;fill-opacity:1;stroke:none;stroke-width:1.05833;stroke-linecap:round;stroke-linejoin:miter;stroke-dasharray:none;stroke-opacity:0.8;stop-color:#000000"
       x="153.69397"
       y="63.008041"
       id="text7969"><tspan
         sodipodi:role="line"
         id="tspan7967"
         style="font-style:normal;font-variant:normal;font-weight:normal;font-stretch:normal;font-size:7.05556px;font-family:'Liberation Serif';-inkscape-font-specification:'Liberation Serif, Normal';font-variant-ligatures:normal;font-variant-caps:normal;font-variant-numeric:normal;font-variant-east-asian:normal;stroke-width:1.05833"
         x="153.69397"
         y="63.008041">Niveau événement 1</tspan></text>
    <text
       xml:space="preserve"
       style="font-style:normal;font-variant:normal;font-weight:normal;font-stretch:normal;font-size:7.05556px;font-family:'Liberation Serif';-inkscape-font-specification:'Liberation Serif, Normal';font-variant-ligatures:normal;font-variant-caps:normal;font-variant-numeric:normal;font-variant-east-asian:normal;fill:#000000;fill-opacity:1;stroke:none;stroke-width:1.05833;stroke-linecap:round;stroke-linejoin:miter;stroke-dasharray:none;stroke-opacity:0.8;stop-color:#000000"
       x="153.60785"
       y="88.755646"
       id="text7973"><tspan
         sodipodi:role="line"
         id="tspan7971"
         style="font-style:normal;font-variant:normal;font-weight:normal;font-stretch:normal;font-size:7.05556px;font-family:'Liberation Serif';-inkscape-font-specification:'Liberation Serif, Normal';font-variant-ligatures:normal;font-variant-caps:normal;font-variant-numeric:normal;font-variant-east-asian:normal;stroke-width:1.05833"
         x="153.60785"
         y="88.755646">Niveau orbite 1</tspan></text>
    <text
       xml:space="preserve"
       style="font-style:normal;font-variant:normal;font-weight:normal;font-stretch:normal;font-size:7.05556px;font-family:'Liberation Serif';-inkscape-font-specification:'Liberation Serif, Normal';font-variant-ligatures:normal;font-variant-caps:normal;font-variant-numeric:normal;font-variant-east-asian:normal;fill:#000000;fill-opacity:1;stroke:none;stroke-width:1.05833;stroke-linecap:round;stroke-linejoin:miter;stroke-dasharray:none;stroke-opacity:0.8;stop-color:#000000"
       x="153.69397"
       y="114.5136"
       id="text7969-1"><tspan
         sodipodi:role="line"
         id="tspan1892"
         x="153.69397"
         y="114.5136"
         style="stroke-width:1.05833">Niveau événement 2</tspan></text>
    <text
       xml:space="preserve"
       style="font-style:normal;font-variant:normal;font-weight:normal;font-stretch:normal;font-size:7.05556px;font-family:'Liberation Serif';-inkscape-font-specification:'Liberation Serif, Normal';font-variant-ligatures:normal;font-variant-caps:normal;font-variant-numeric:normal;font-variant-east-asian:normal;fill:#000000;fill-opacity:1;stroke:none;stroke-width:1.05833;stroke-linecap:round;stroke-linejoin:miter;stroke-dasharray:none;stroke-opacity:0.8;stop-color:#000000"
       x="153.60785"
       y="140.2612"
       id="text7973-9"><tspan
         sodipodi:role="line"
         id="tspan1894"
         x="153.60785"
         y="140.2612"
         style="stroke-width:1.05833">Niveau orbite 2</tspan></text>
    <text
       xml:space="preserve"
       style="font-style:normal;font-variant:normal;font-weight:normal;font-stretch:normal;font-size:7.05556px;font-family:'Liberation Serif';-inkscape-font-specification:'Liberation Serif, Normal';font-variant-ligatures:normal;font-variant-caps:normal;font-variant-numeric:normal;font-variant-east-asian:normal;fill:#000000;fill-opacity:1;stroke:none;stroke-width:1.05833;stroke-linecap:round;stroke-linejoin:miter;stroke-dasharray:none;stroke-opacity:0.8;stop-color:#000000"
       x="153.69397"
       y="166.01915"
       id="text7969-0"><tspan
         sodipodi:role="line"
         id="tspan1896"
         x="153.69397"
         y="166.01915"
         style="stroke-width:1.05833">Niveau événement 3</tspan></text>
    <text
       xml:space="preserve"
       style="font-style:normal;font-variant:normal;font-weight:normal;font-stretch:normal;font-size:7.05556px;font-family:'Liberation Serif';-inkscape-font-specification:'Liberation Serif, Normal';font-variant-ligatures:normal;font-variant-caps:normal;font-variant-numeric:normal;font-variant-east-asian:normal;fill:#000000;fill-opacity:1;stroke:none;stroke-width:1.05833;stroke-linecap:round;stroke-linejoin:miter;stroke-dasharray:none;stroke-opacity:0.8;stop-color:#000000"
       x="153.60785"
       y="191.76675"
       id="text7973-8"><tspan
         sodipodi:role="line"
         id="tspan1898"
         x="153.60785"
         y="191.76675"
         style="stroke-width:1.05833">Niveau orbite 3</tspan></text>
    <rect
       style="fill:#d3d3d3;fill-opacity:1;stroke:none;stroke-width:0.396455;stroke-linecap:square;stop-color:#000000"
       id="rect626-5"
       width="24.35985"
       height="12.564595"
       x="-7.1189914"
       y="54.307285"
       ry="3.8447413" />
    <text
       xml:space="preserve"
       style="font-style:normal;font-variant:normal;font-weight:normal;font-stretch:normal;font-size:4.93896px;font-family:Symbola;-inkscape-font-specification:'Symbola, Normal';font-variant-ligatures:normal;font-variant-caps:normal;font-variant-numeric:normal;font-variant-east-asian:normal;text-align:center;writing-mode:lr-tb;text-anchor:middle;fill:#000000;fill-opacity:1;fill-rule:nonzero;stroke:none;stroke-width:0.352778"
       id="text9848-9"
       x="4.5127058"
       y="58.903236"><tspan
         sodipodi:role="line"
         id="tspan20243-2"
         x="4.5127058"
         y="58.903236"
         style="font-style:normal;font-variant:normal;font-weight:normal;font-stretch:normal;font-family:times;-inkscape-font-specification:times;text-align:center;text-anchor:middle;stroke-width:0.352778">1-creation</tspan><tspan
         sodipodi:role="line"
         x="4.5127058"
         y="65.580093"
         style="font-style:normal;font-variant:normal;font-weight:normal;font-stretch:normal;font-family:times;-inkscape-font-specification:times;text-align:center;text-anchor:middle;stroke-width:0.352778"
         id="tspan3-2">Carre</tspan></text>
    <rect
       style="fill:#d3d3d3;fill-opacity:1;stroke:none;stroke-width:0.396455;stroke-linecap:square;stop-color:#000000"
       id="rect626-8"
       width="24.35985"
       height="12.564595"
       x="-59.981312"
       y="157.31839"
       ry="3.8447413" />
    <text
       xml:space="preserve"
       style="font-style:normal;font-variant:normal;font-weight:normal;font-stretch:normal;font-size:4.93896px;font-family:Symbola;-inkscape-font-specification:'Symbola, Normal';font-variant-ligatures:normal;font-variant-caps:normal;font-variant-numeric:normal;font-variant-east-asian:normal;writing-mode:lr-tb;fill:#000000;fill-opacity:1;fill-rule:nonzero;stroke:none;stroke-width:0.352778"
       id="text9848-7"
       x="-47.860649"
       y="161.92422"><tspan
         sodipodi:role="line"
         id="tspan20243-9"
         x="-47.860649"
         y="161.92422"
         style="font-style:normal;font-variant:normal;font-weight:normal;font-stretch:normal;font-family:times;-inkscape-font-specification:times;text-align:center;text-anchor:middle;stroke-width:0.352778">2-extrusion</tspan><tspan
         sodipodi:role="line"
         x="-47.860649"
         y="168.60109"
         style="font-style:normal;font-variant:normal;font-weight:normal;font-stretch:normal;font-family:times;-inkscape-font-specification:times;text-align:center;text-anchor:middle;stroke-width:0.352778"
         id="tspan2">Face</tspan></text>
    <rect
       style="fill:#d3d3d3;fill-opacity:1;stroke:none;stroke-width:0.396455;stroke-linecap:square;stop-color:#000000"
       id="rect626-8-7"
       width="24.35985"
       height="12.564595"
       x="47.465218"
       y="157.07431"
       ry="3.8447413" />
    <text
       xml:space="preserve"
       style="font-style:normal;font-variant:normal;font-weight:normal;font-stretch:normal;font-size:4.93896px;font-family:Symbola;-inkscape-font-specification:'Symbola, Normal';font-variant-ligatures:normal;font-variant-caps:normal;font-variant-numeric:normal;font-variant-east-asian:normal;writing-mode:lr-tb;fill:#000000;fill-opacity:1;fill-rule:nonzero;stroke:none;stroke-width:0.352778"
       id="text9848-7-5"
       x="59.585884"
       y="161.68013"><tspan
         sodipodi:role="line"
         id="tspan20243-9-9"
         x="59.585884"
         y="161.68013"
         style="font-style:normal;font-variant:normal;font-weight:normal;font-stretch:normal;font-family:times;-inkscape-font-specification:times;text-align:center;text-anchor:middle;stroke-width:0.352778">2-extrusion</tspan><tspan
         sodipodi:role="line"
         x="59.585884"
         y="168.35699"
         style="font-style:normal;font-variant:normal;font-weight:normal;font-stretch:normal;font-family:times;-inkscape-font-specification:times;text-align:center;text-anchor:middle;stroke-width:0.352778"
         id="tspan2-2">Face</tspan></text>
    <path
       fill="none"
       stroke="#000000"
       d="m -58.208334,121.46923 h 92.427776 c 2.116667,0 4.233333,-2.11666 4.233333,-4.23333 v -10.23056 c 0,-2.11666 -2.116666,-4.23333 -4.233333,-4.23333 h -92.427776 c -2.116666,0 -4.233333,2.11667 -4.233333,4.23333 v 10.23056 c 0,2.11667 2.116667,4.23333 4.233333,4.23333"
       id="path4-1"
       sodipodi:nodetypes="csssssssc"
       style="stroke-width:0.352778" />
    <path
       fill="none"
       stroke="#000000"
       d="m 46.037497,121.46923 h 92.427773 c 2.11667,0 4.23334,-2.11666 4.23334,-4.23333 v -10.23056 c 0,-2.11666 -2.11667,-4.23333 -4.23334,-4.23333 H 46.037497 c -2.116667,0 -4.233333,2.11667 -4.233333,4.23333 v 10.23056 c 0,2.11667 2.116666,4.23333 4.233333,4.23333"
       id="path10-3"
       sodipodi:nodetypes="csssssssc"
       style="stroke-width:0.352778" />
    <path
       fill="none"
       stroke="#000000"
       d="m -19.22639,118.47062 c 0,0 23.6361101,0 23.6361101,0 2.1166667,0 4.2333333,-2.11667 4.2333333,-4.23333 0,0 0,-4.23334 0,-4.23334 0,-2.11666 -2.1166666,-4.23333 -4.2333333,-4.23333 0,0 -23.6361101,0 -23.6361101,0 -2.116667,0 -4.233334,2.11667 -4.233334,4.23333 0,0 0,4.23334 0,4.23334 0,2.11666 2.116667,4.23333 4.233334,4.23333"
       id="path19-4"
       style="stroke-width:0.352778" />
    <text
       text-anchor="middle"
       x="-7.4083352"
       y="113.77162"
       font-family="Times, serif"
       font-size="4.93889px"
       id="text19-7"
       style="stroke-width:0.352778">NOMODIF</text>
    <path
       fill="none"
       stroke="#000000"
       d="m 84.490274,118.47062 c 0,0 23.636106,0 23.636106,0 2.11667,0 4.23334,-2.11667 4.23334,-4.23333 0,0 0,-4.23334 0,-4.23334 0,-2.11666 -2.11667,-4.23333 -4.23334,-4.23333 0,0 -23.636106,0 -23.636106,0 -2.116667,0 -4.233333,2.11667 -4.233333,4.23333 0,0 0,4.23334 0,4.23334 0,2.11666 2.116666,4.23333 4.233333,4.23333"
       id="path21-5"
       style="stroke-width:0.352778" />
    <text
       text-anchor="middle"
       x="96.308327"
       y="113.77162"
       font-family="Times, serif"
       font-size="4.93889px"
       id="text21-0"
       style="stroke-width:0.352778">NOMODIF</text>
    <path
       fill="none"
       stroke="#000000"
       d="m 19.26872,118.47062 c 0,0 12.262555,0 12.262555,0 2.116667,0 4.233333,-2.11667 4.233333,-4.23333 0,0 0,-4.23334 0,-4.23334 0,-2.11666 -2.116666,-4.23333 -4.233333,-4.23333 0,0 -12.262555,0 -12.262555,0 -2.116667,0 -4.233333,2.11667 -4.233333,4.23333 0,0 0,4.23334 0,4.23334 0,2.11666 2.116666,4.23333 4.233333,4.23333"
       id="path26-1"
       style="stroke-width:0.352778" />
    <text
       text-anchor="middle"
       x="25.399998"
       y="113.77162"
       font-family="Times, serif"
       font-size="4.93889px"
       id="text26-0"
       style="stroke-width:0.352778">SPLIT</text>
    <path
       fill="none"
       stroke="#000000"
       d="m 122.98538,118.47062 c 0,0 12.26256,0 12.26256,0 2.11667,0 4.23333,-2.11667 4.23333,-4.23333 0,0 0,-4.23334 0,-4.23334 0,-2.11666 -2.11666,-4.23333 -4.23333,-4.23333 0,0 -12.26256,0 -12.26256,0 -2.11666,0 -4.23333,2.11667 -4.23333,4.23333 0,0 0,4.23334 0,4.23334 0,2.11666 2.11667,4.23333 4.23333,4.23333"
       id="path28-2"
       style="stroke-width:0.352778" />
    <text
       text-anchor="middle"
       x="129.11667"
       y="113.77162"
       font-family="Times, serif"
       font-size="4.93889px"
       id="text28-0"
       style="stroke-width:0.352778">SPLIT</text>
    <rect
       style="fill:#d3d3d3;fill-opacity:1;stroke:none;stroke-width:0.396455;stroke-linecap:square;stop-color:#000000"
       id="rect626-8-9-6-5"
       width="35.416809"
       height="12.564595"
       x="43.737747"
       y="105.79977"
       ry="3.8447413" />
    <text
       xml:space="preserve"
       style="font-style:normal;font-variant:normal;font-weight:normal;font-stretch:normal;font-size:4.93896px;font-family:Symbola;-inkscape-font-specification:'Symbola, Normal';font-variant-ligatures:normal;font-variant-caps:normal;font-variant-numeric:normal;font-variant-east-asian:normal;writing-mode:lr-tb;fill:#000000;fill-opacity:1;fill-rule:nonzero;stroke:none;stroke-width:0.352778"
       id="text9848-7-4-1-54"
       x="61.404175"
       y="110.4056"><tspan
         sodipodi:role="line"
         x="61.404175"
         y="110.4056"
         style="font-style:normal;font-variant:normal;font-weight:normal;font-stretch:normal;font-family:times;-inkscape-font-specification:times;text-align:center;text-anchor:middle;stroke-width:0.352778"
         id="tspan2-8-0-7">ADD 10-</tspan><tspan
         sodipodi:role="line"
         x="61.404175"
         y="117.08246"
         style="font-style:normal;font-variant:normal;font-weight:normal;font-stretch:normal;font-family:times;-inkscape-font-specification:times;text-align:center;text-anchor:middle;stroke-width:0.352778"
         id="tspan3-6-6">insertionSommet</tspan></text>
    <rect
       style="fill:#d3d3d3;fill-opacity:1;stroke:none;stroke-width:0.396455;stroke-linecap:square;stop-color:#000000"
       id="rect626-8-9-6-7"
       width="35.416809"
       height="12.564595"
       x="-60.111252"
       y="105.79977"
       ry="3.8447413" />
    <text
       xml:space="preserve"
       style="font-style:normal;font-variant:normal;font-weight:normal;font-stretch:normal;font-size:4.93896px;font-family:Symbola;-inkscape-font-specification:'Symbola, Normal';font-variant-ligatures:normal;font-variant-caps:normal;font-variant-numeric:normal;font-variant-east-asian:normal;writing-mode:lr-tb;fill:#000000;fill-opacity:1;fill-rule:nonzero;stroke:none;stroke-width:0.352778"
       id="text9848-7-4-1-5"
       x="-42.444824"
       y="110.4056"><tspan
         sodipodi:role="line"
         x="-42.444824"
         y="110.4056"
         style="font-style:normal;font-variant:normal;font-weight:normal;font-stretch:normal;font-family:times;-inkscape-font-specification:times;text-align:center;text-anchor:middle;stroke-width:0.352778"
         id="tspan2-8-0-3">ADD 10-</tspan><tspan
         sodipodi:role="line"
         x="-42.444824"
         y="117.08246"
         style="font-style:normal;font-variant:normal;font-weight:normal;font-stretch:normal;font-family:times;-inkscape-font-specification:times;text-align:center;text-anchor:middle;stroke-width:0.352778"
         id="tspan3-6-5">insertionSommet</tspan></text>
    <path
       fill="none"
       stroke="#000000"
       d="m 96.091786,118.36437 c -1.529549,3.28125 -4.408492,6.04048 -5.616384,9.04993"
       id="path25-4"
       inkscape:transform-center-x="2.3866491"
       inkscape:transform-center-y="4.4800525"
       sodipodi:nodetypes="cc"
       style="stroke-width:0.352778" />
    <polygon
       fill="#000000"
       stroke="#000000"
       points="311.21,-491.99 310.55,-502.56 317.29,-500.66 "
       id="polygon25-5"
       transform="matrix(0.35277777,0,0,0.35277777,-20.268596,304.37116)" />
    <g
       id="edge4"
       class="edge"
       transform="matrix(0.35277777,0,0,0.35277777,-39.687501,253.02986)">
      <title
         id="title22">1|13[]-&gt;10|2NOMODIF[]</title>
      <path
         fill="none"
         stroke="#000000"
         d="m 257.72,-454.05 c 4.04,2.78 8.24,5.56 12.28,8.05 12.96,7.97 50.41517,17.71764 63.74517,24.72764"
         id="path22"
         sodipodi:nodetypes="ccc" />
      <polygon
         fill="#000000"
         stroke="#000000"
         points="312.09,-426.28 319.35,-418.57 308.86,-420.07 "
         id="polygon22"
         transform="translate(23.270166,1.9026449)" />
    </g>
    <g
       id="edge6"
       class="edge"
       transform="matrix(0.35277777,0,0,0.35277777,-39.687501,253.02986)">
      <title
         id="title29">1|13[0]-&gt;10|2SPLIT[0]</title>
      <path
         fill="none"
         stroke="#000000"
         d="m 328.14,-454.1 c 4.43,2.98 9.17,5.84 13.86,8.1 28.76,13.87 76.10625,9.62475 105.03625,23.12475"
         id="path29"
         sodipodi:nodetypes="ccc" />
      <polygon
         fill="#000000"
         stroke="#000000"
         points="424.24,-418.63 413.85,-420.7 417.4,-426.73 "
         id="polygon29"
         transform="translate(31.411248,0.83975419)" />
    </g>
  </g>
</svg>
