<?xml version="1.0" encoding="UTF-8" standalone="no"?>
<!-- Created with Jerboa -->

<svg
   width="360.73883"
   height="451.22601"
   version="1.1"
   id="svg4682"
   sodipodi:docname="object-bis.svg"
   inkscape:version="1.2.2 (b0a8486541, 2022-12-01)"
   inkscape:export-filename="object-bis.png"
   inkscape:export-xdpi="300"
   inkscape:export-ydpi="300"
   xmlns:inkscape="http://www.inkscape.org/namespaces/inkscape"
   xmlns:sodipodi="http://sodipodi.sourceforge.net/DTD/sodipodi-0.dtd"
   xmlns="http://www.w3.org/2000/svg"
   xmlns:svg="http://www.w3.org/2000/svg">
  <defs
     id="defs4686" />
  <sodipodi:namedview
     id="namedview4684"
     pagecolor="#ffffff"
     bordercolor="#000000"
     borderopacity="0.25"
     inkscape:showpageshadow="2"
     inkscape:pageopacity="0.0"
     inkscape:pagecheckerboard="0"
     inkscape:deskcolor="#d1d1d1"
     showgrid="false"
     inkscape:zoom="0.92954545"
     inkscape:cx="185.57457"
     inkscape:cy="301.2225"
     inkscape:window-width="1908"
     inkscape:window-height="1051"
     inkscape:window-x="1085"
     inkscape:window-y="22"
     inkscape:window-maximized="1"
     inkscape:current-layer="svg4682" />
  <style
     id="style">
		.arc0 {
			fill:none;
			fill-rule:evenodd;
			stroke:black;
			stroke-width:4;
			stroke-linecap:round;
			stroke-linejoin:round;
			stroke-opacity:1;
		}
		.arc1 {
			fill:none;
			fill-rule:evenodd;
			stroke:red;
			stroke-width:4;
			stroke-linecap:round;
			stroke-linejoin:round;
			stroke-opacity:1;
		}
		.arc2 {
			fill:none;
			fill-rule:evenodd;
			stroke:blue;
			stroke-width:4;
			stroke-linecap:round;
			stroke-linejoin:round;
			stroke-opacity:1;
		}
		.arc3 {
			fill:none;
			fill-rule:evenodd;
			stroke:green;
			stroke-width:4;
			stroke-linecap:round;
			stroke-linejoin:round;
			stroke-opacity:1;
		}
		.topological-dart {
			fill:#000000;
			stroke:#000000;
			stroke-width:0;
			stroke-linecap:round;
			stroke-linejoin:round;
			stroke-dasharray:none;
			paint-order:markers fill stroke;
		}
	</style>
  <polygon
     points="638.1176,177.02551 822.81354,187.47922 830.8933,197.53387 830.8933,416.92047 822.81354,426.06046 638.1176,415.60675 630.0379,405.55212 630.0379,186.16553 "
     id="face_22_23_18_17_16_15_20_21"
     style="fill:#c0c0c0;stroke:none"
     opacity="1"
     transform="translate(-474.98718,-5.3276367)" />
  <line
     class="arc1"
     id="link21_@1_20"
     x1="155.05072"
     y1="400.22449"
     x2="163.13043"
     y2="410.27911" />
  <line
     class="arc2"
     id="link21_@2_26"
     x1="155.05072"
     y1="400.22449"
     x2="141.72394"
     y2="400.47137" />
  <line
     class="arc0"
     id="link21_@0_22"
     x1="155.05072"
     y1="400.22449"
     x2="155.05072"
     y2="180.83789" />
  <polygon
     points="611.46405,177.51926 487.4813,193.38794 480.21426,208.37378 480.21426,418.16306 487.4813,431.96918 611.46405,416.10052 616.7111,405.799 616.7111,186.41238 "
     id="face_27_28_33_32_31_30_25_26"
     style="fill:#c0c0c0;stroke:none"
     opacity="1"
     transform="translate(-474.98718,-5.3276367)" />
  <line
     class="arc1"
     id="link26_@1_25"
     x1="141.72394"
     y1="400.47137"
     x2="136.47687"
     y2="410.77289" />
  <line
     class="arc0"
     id="link26_@0_27"
     x1="141.72394"
     y1="400.47137"
     x2="141.72394"
     y2="181.08475" />
  <line
     class="arc2"
     id="link20_@2_0"
     x1="163.13043"
     y1="410.27911"
     x2="157.88342"
     y2="420.58063" />
  <line
     class="arc0"
     id="link20_@0_15"
     x1="163.13043"
     y1="410.27911"
     x2="347.82635"
     y2="420.73282" />
  <line
     class="arc2"
     id="link25_@2_1"
     x1="136.47687"
     y1="410.77289"
     x2="144.55658"
     y2="420.82751" />
  <line
     class="arc0"
     id="link25_@0_30"
     x1="136.47687"
     y1="410.77289"
     x2="12.49411"
     y2="426.64154" />
  <polygon
     points="820.39923,437.5235 708.5361,454.07812 699.24915,454.55365 588.32733,450.27786 578.2277,454.50488 492.33386,447.641 491.52118,441.79517 619.54376,426.15515 632.8706,425.90826 817.56647,436.36197 "
     id="face_7_6_5_4_9_8_3_2_1_0"
     style="fill:#c0c0c0;stroke:none"
     opacity="1"
     transform="translate(-474.98718,-5.3276367)" />
  <line
     class="arc1"
     id="link0_@1_1"
     x1="157.88342"
     y1="420.58063"
     x2="144.55658"
     y2="420.82751" />
  <line
     class="arc0"
     id="link0_@0_7"
     x1="157.88342"
     y1="420.58063"
     x2="342.57928"
     y2="431.03433" />
  <line
     class="arc0"
     id="link1_@0_2"
     x1="144.55658"
     y1="420.82751"
     x2="16.533997"
     y2="436.46753" />
  <line
     class="arc1"
     id="link22_@1_23"
     x1="155.05072"
     y1="180.83789"
     x2="163.13043"
     y2="171.69788" />
  <line
     class="arc2"
     id="link22_@2_27"
     x1="155.05072"
     y1="180.83789"
     x2="141.72394"
     y2="181.08475" />
  <line
     class="arc1"
     id="link27_@1_28"
     x1="141.72394"
     y1="181.08475"
     x2="136.47687"
     y2="172.19162" />
  <line
     class="arc2"
     id="link23_@2_24"
     x1="163.13043"
     y1="171.69788"
     x2="157.88342"
     y2="162.80472" />
  <line
     class="arc0"
     id="link23_@0_18"
     x1="163.13043"
     y1="171.69788"
     x2="347.82635"
     y2="182.15158" />
  <line
     class="arc2"
     id="link28_@2_29"
     x1="136.47687"
     y1="172.19162"
     x2="144.55658"
     y2="163.05161" />
  <line
     class="arc0"
     id="link28_@0_33"
     x1="136.47687"
     y1="172.19162"
     x2="12.49411"
     y2="188.0603" />
  <polygon
     points="820.39923,179.74759 708.5361,196.30222 699.24915,196.77777 588.32733,192.50195 578.2277,187.13168 492.33386,180.26779 491.52118,184.01926 619.54376,168.37924 632.8706,168.13235 817.56647,178.58606 "
     id="face_19_14_59_54_49_44_39_34_29_24"
     style="fill:#c0c0c0;stroke:none"
     opacity="1"
     transform="translate(-474.98718,-5.3276367)" />
  <line
     class="arc1"
     id="link24_@1_29"
     x1="157.88342"
     y1="162.80472"
     x2="144.55658"
     y2="163.05161" />
  <line
     class="arc3"
     id="link24_@3_102"
     x1="157.88342"
     y1="162.80472"
     x2="158.4184"
     y2="147.83969" />
  <line
     class="arc0"
     id="link24_@0_19"
     x1="157.88342"
     y1="162.80472"
     x2="342.57928"
     y2="173.25842" />
  <polygon
     points="641.0916,12.413574 724.6657,17.143799 732.2104,22.968872 817.9548,151.81567 814.18787,157.00046 639.18756,147.09552 631.6428,141.27051 637.3247,17.598389 "
     id="face_105_118_64_111_110_109_103_104"
     style="fill:#c0c0c0;stroke:none"
     opacity="1"
     transform="translate(-474.98718,-5.3276367)" />
  <line
     class="arc1"
     id="link104_@1_103"
     x1="156.65564"
     y1="135.94287"
     x2="164.20038"
     y2="141.76788" />
  <line
     class="arc2"
     id="link104_@2_98"
     x1="156.65564"
     y1="135.94287"
     x2="143.32886"
     y2="136.18976" />
  <line
     class="arc0"
     id="link104_@0_105"
     x1="156.65564"
     y1="135.94287"
     x2="162.33752"
     y2="12.270752" />
  <line
     class="arc3"
     id="link29_@3_96"
     x1="144.55658"
     y1="163.05161"
     x2="145.09161"
     y2="148.08658" />
  <line
     class="arc0"
     id="link29_@0_34"
     x1="144.55658"
     y1="163.05161"
     x2="16.533997"
     y2="178.69162" />
  <line
     class="arc2"
     id="link103_@2_102"
     x1="164.20038"
     y1="141.76788"
     x2="158.4184"
     y2="147.83969" />
  <line
     class="arc0"
     id="link103_@0_109"
     x1="164.20038"
     y1="141.76788"
     x2="339.20068"
     y2="151.67282" />
  <polygon
     points="630.4302,12.611023 574.5406,19.803589 568.7586,25.875488 493.28387,157.52689 494.8477,162.61292 612.53406,147.5893 618.31604,141.5174 631.994,17.697144 "
     id="face_99_112_106_93_92_91_97_98"
     style="fill:#c0c0c0;stroke:none"
     opacity="1"
     transform="translate(-474.98718,-5.3276367)" />
  <line
     class="arc1"
     id="link98_@1_97"
     x1="143.32886"
     y1="136.18976"
     x2="137.54688"
     y2="142.26166" />
  <line
     class="arc0"
     id="link98_@0_99"
     x1="143.32886"
     y1="136.18976"
     x2="157.00684"
     y2="12.369507" />
  <polygon
     points="816.0864,164.50818 707.37134,180.64023 698.0845,181.11581 589.5866,176.97723 581.5069,176.5199 493.99716,169.56458 495.2043,168.63171 620.0788,153.41422 633.4056,153.16733 813.25366,163.34665 "
     id="face_108_114_60_66_72_78_84_90_96_102"
     style="fill:#c0c0c0;stroke:none"
     opacity="1"
     transform="translate(-474.98718,-5.3276367)" />
  <line
     class="arc1"
     id="link102_@1_96"
     x1="158.4184"
     y1="147.83969"
     x2="145.09161"
     y2="148.08658" />
  <line
     class="arc0"
     id="link102_@0_108"
     x1="158.4184"
     y1="147.83969"
     x2="338.26648"
     y2="158.01901" />
  <line
     class="arc2"
     id="link96_@2_97"
     x1="145.09161"
     y1="148.08658"
     x2="137.54688"
     y2="142.26166" />
  <line
     class="arc0"
     id="link96_@0_90"
     x1="145.09161"
     y1="148.08658"
     x2="20.217133"
     y2="163.30408" />
  <line
     class="arc0"
     id="link97_@0_91"
     x1="137.54688"
     y1="142.26166"
     x2="19.860504"
     y2="157.28528" />
  <line
     class="arc1"
     id="link15_@1_16"
     x1="347.82635"
     y1="420.73282"
     x2="355.90613"
     y2="411.59283" />
  <line
     class="arc2"
     id="link15_@2_7"
     x1="347.82635"
     y1="420.73282"
     x2="342.57928"
     y2="431.03433" />
  <line
     class="arc2"
     id="link16_@2_11"
     x1="355.90613"
     y1="411.59283"
     x2="358.73883"
     y2="412.7543" />
  <line
     class="arc0"
     id="link16_@0_17"
     x1="355.90613"
     y1="411.59283"
     x2="355.90613"
     y2="192.20624" />
  <line
     class="arc1"
     id="link7_@1_6"
     x1="342.57928"
     y1="431.03433"
     x2="345.41205"
     y2="432.19586" />
  <line
     class="arc1"
     id="link105_@1_118"
     x1="162.33752"
     y1="12.270752"
     x2="166.10443"
     y2="7.0859375" />
  <line
     class="arc2"
     id="link105_@2_99"
     x1="162.33752"
     y1="12.270752"
     x2="157.00684"
     y2="12.369507" />
  <line
     class="arc1"
     id="link99_@1_112"
     x1="157.00684"
     y1="12.369507"
     x2="155.44299"
     y2="7.2833862" />
  <polygon
     points="828.479,189.80222 712.57587,206.1282 707.32886,216.42972 707.32886,435.81628 712.57587,444.70944 828.479,428.38348 833.726,418.08194 833.726,198.69534 "
     id="face_12_13_58_57_56_55_10_11"
     style="fill:#c0c0c0;stroke:none"
     opacity="1"
     transform="translate(-474.98718,-5.3276367)" />
  <line
     class="arc1"
     id="link11_@1_10"
     x1="358.73883"
     y1="412.7543"
     x2="353.49182"
     y2="423.05585" />
  <line
     class="arc0"
     id="link11_@0_12"
     x1="358.73883"
     y1="412.7543"
     x2="358.73883"
     y2="193.36771" />
  <line
     class="arc2"
     id="link6_@2_10"
     x1="345.41205"
     y1="432.19586"
     x2="353.49182"
     y2="423.05585" />
  <line
     class="arc0"
     id="link6_@0_5"
     x1="345.41205"
     y1="432.19586"
     x2="233.54889"
     y2="448.75049" />
  <line
     class="arc1"
     id="link18_@1_17"
     x1="347.82635"
     y1="182.15158"
     x2="355.90613"
     y2="192.20624" />
  <line
     class="arc2"
     id="link18_@2_19"
     x1="347.82635"
     y1="182.15158"
     x2="342.57928"
     y2="173.25842" />
  <line
     class="arc2"
     id="link118_@2_119"
     x1="166.10443"
     y1="7.0859375"
     x2="164.54059"
     y2="2" />
  <line
     class="arc0"
     id="link118_@0_64"
     x1="166.10443"
     y1="7.0859375"
     x2="249.67853"
     y2="11.816162" />
  <line
     class="arc2"
     id="link112_@2_113"
     x1="155.44299"
     y1="7.2833862"
     x2="159.20984"
     y2="2.0987549" />
  <line
     class="arc0"
     id="link112_@0_106"
     x1="155.44299"
     y1="7.2833862"
     x2="99.553406"
     y2="14.475952" />
  <line
     class="arc2"
     id="link17_@2_12"
     x1="355.90613"
     y1="192.20624"
     x2="358.73883"
     y2="193.36771" />
  <line
     class="arc0"
     id="link10_@0_55"
     x1="353.49182"
     y1="423.05585"
     x2="237.58868"
     y2="439.38181" />
  <line
     class="arc1"
     id="link109_@1_110"
     x1="339.20068"
     y1="151.67282"
     x2="342.96759"
     y2="146.48804" />
  <line
     class="arc2"
     id="link109_@2_108"
     x1="339.20068"
     y1="151.67282"
     x2="338.26648"
     y2="158.01901" />
  <line
     class="arc1"
     id="link19_@1_14"
     x1="342.57928"
     y1="173.25842"
     x2="345.41205"
     y2="174.41995" />
  <line
     class="arc3"
     id="link19_@3_108"
     x1="342.57928"
     y1="173.25842"
     x2="338.26648"
     y2="158.01901" />
  <polygon
     points="719.387,12.248108 671.4935,19.29248 667.77875,19.482666 620.9862,17.635193 617.7543,17.45227 579.3569,14.478027 579.8397,14.104919 634.197,7.4263916 639.5278,7.3276367 718.25397,11.783508 "
     id="face_65_71_77_83_89_95_101_107_113_119"
     style="fill:#c0c0c0;stroke:none"
     opacity="1"
     transform="translate(-474.98718,-5.3276367)" />
  <line
     class="arc1"
     id="link119_@1_113"
     x1="164.54059"
     y1="2"
     x2="159.20984"
     y2="2.0987549" />
  <line
     class="arc0"
     id="link119_@0_65"
     x1="164.54059"
     y1="2"
     x2="243.26678"
     y2="6.4558716" />
  <line
     class="arc0"
     id="link113_@0_107"
     x1="159.20984"
     y1="2.0987549"
     x2="104.85254"
     y2="8.7772827" />
  <line
     class="arc1"
     id="link108_@1_114"
     x1="338.26648"
     y1="158.01901"
     x2="341.09924"
     y2="159.18054" />
  <line
     class="arc2"
     id="link110_@2_116"
     x1="342.96759"
     y1="146.48804"
     x2="345.80023"
     y2="147.64954" />
  <line
     class="arc0"
     id="link110_@0_111"
     x1="342.96759"
     y1="146.48804"
     x2="257.22321"
     y2="17.641235" />
  <line
     class="arc1"
     id="link12_@1_13"
     x1="358.73883"
     y1="193.36771"
     x2="353.49182"
     y2="184.47458" />
  <line
     class="arc2"
     id="link14_@2_13"
     x1="345.41205"
     y1="174.41995"
     x2="353.49182"
     y2="184.47458" />
  <line
     class="arc3"
     id="link14_@3_114"
     x1="345.41205"
     y1="174.41995"
     x2="341.09924"
     y2="159.18054" />
  <line
     class="arc0"
     id="link14_@0_59"
     x1="345.41205"
     y1="174.41995"
     x2="233.54889"
     y2="190.97458" />
  <line
     class="arc2"
     id="link114_@2_115"
     x1="341.09924"
     y1="159.18054"
     x2="344.86609"
     y2="153.99585" />
  <line
     class="arc0"
     id="link114_@0_60"
     x1="341.09924"
     y1="159.18054"
     x2="232.38416"
     y2="175.31259" />
  <polygon
     points="726.9318,18.072998 674.2741,25.448486 673.33997,31.794739 703.83496,169.444 710.2467,174.80441 819.8533,159.32349 820.7874,152.97717 733.3435,23.433472 "
     id="face_117_70_76_63_62_61_115_116"
     style="fill:#c0c0c0;stroke:none"
     opacity="1"
     transform="translate(-474.98718,-5.3276367)" />
  <line
     class="arc1"
     id="link116_@1_115"
     x1="345.80023"
     y1="147.64954"
     x2="344.86609"
     y2="153.99585" />
  <line
     class="arc0"
     id="link116_@0_117"
     x1="345.80023"
     y1="147.64954"
     x2="258.35632"
     y2="18.105835" />
  <line
     class="arc0"
     id="link13_@0_58"
     x1="353.49182"
     y1="184.47458"
     x2="237.58868"
     y2="200.80057" />
  <line
     class="arc0"
     id="link115_@0_61"
     x1="344.86609"
     y1="153.99585"
     x2="235.25952"
     y2="169.47678" />
  <line
     class="arc1"
     id="link30_@1_31"
     x1="12.49411"
     y1="426.64154"
     x2="5.2270813"
     y2="412.83542" />
  <line
     class="arc2"
     id="link30_@2_2"
     x1="12.49411"
     y1="426.64154"
     x2="16.533997"
     y2="436.46753" />
  <line
     class="arc1"
     id="link2_@1_3"
     x1="16.533997"
     y1="436.46753"
     x2="17.34668"
     y2="442.31335" />
  <line
     class="arc2"
     id="link31_@2_36"
     x1="5.2270813"
     y1="412.83542"
     x2="2"
     y2="408.85529" />
  <line
     class="arc0"
     id="link31_@0_32"
     x1="5.2270813"
     y1="412.83542"
     x2="5.2270813"
     y2="203.04614" />
  <line
     class="arc1"
     id="link64_@1_111"
     x1="249.67853"
     y1="11.816162"
     x2="257.22321"
     y2="17.641235" />
  <line
     class="arc2"
     id="link64_@2_65"
     x1="249.67853"
     y1="11.816162"
     x2="243.26678"
     y2="6.4558716" />
  <line
     class="arc2"
     id="link111_@2_117"
     x1="257.22321"
     y1="17.641235"
     x2="258.35632"
     y2="18.105835" />
  <line
     class="arc2"
     id="link3_@2_35"
     x1="17.34668"
     y1="442.31335"
     x2="14.119598"
     y2="438.33319" />
  <line
     class="arc0"
     id="link3_@0_8"
     x1="17.34668"
     y1="442.31335"
     x2="103.24054"
     y2="449.17725" />
  <line
     class="arc1"
     id="link65_@1_71"
     x1="243.26678"
     y1="6.4558716"
     x2="244.39984"
     y2="6.9204712" />
  <line
     class="arc1"
     id="link117_@1_70"
     x1="258.35632"
     y1="18.105835"
     x2="251.94464"
     y2="12.745361" />
  <polygon
     points="477.79993,210.23944 517.9141,307.80725 517.9141,327.00186 477.79993,420.02875 476.98718,414.18292 476.98718,213.99097 "
     id="face_37_124_125_123_122_36"
     style="fill:#0000ff;stroke:none"
     opacity="1"
     transform="translate(-474.98718,-5.3276367)" />
  <line
     class="arc1"
     id="link36_@1_122"
     x1="2"
     y1="408.85529"
     x2="2.8127441"
     y2="414.70111" />
  <line
     class="arc0"
     id="link36_@0_37"
     x1="2"
     y1="408.85529"
     x2="2"
     y2="208.66333" />
  <line
     class="arc2"
     id="link70_@2_71"
     x1="251.94464"
     y1="12.745361"
     x2="244.39984"
     y2="6.9204712" />
  <line
     class="arc0"
     id="link70_@0_76"
     x1="251.94464"
     y1="12.745361"
     x2="199.28693"
     y2="20.12085" />
  <line
     class="arc0"
     id="link71_@0_77"
     x1="244.39984"
     y1="6.9204712"
     x2="196.50635"
     y2="13.964844" />
  <line
     class="arc1"
     id="link33_@1_32"
     x1="12.49411"
     y1="188.0603"
     x2="5.2270813"
     y2="203.04614" />
  <line
     class="arc2"
     id="link33_@2_34"
     x1="12.49411"
     y1="188.0603"
     x2="16.533997"
     y2="178.69162" />
  <polygon
     points="570.14795,434.8529 530.0337,337.28516 521.95404,336.82785 481.8398,429.85474 489.10678,443.66083 572.16785,449.36325 "
     id="face_40_134_135_121_120_35"
     style="fill:#c0c0c0;stroke:none"
     opacity="1"
     transform="translate(-474.98718,-5.3276367)" />
  <line
     class="arc1"
     id="link35_@1_120"
     x1="14.119598"
     y1="438.33319"
     x2="6.8526306"
     y2="424.5271" />
  <line
     class="arc0"
     id="link35_@0_40"
     x1="14.119598"
     y1="438.33319"
     x2="97.180664"
     y2="444.03561" />
  <line
     class="arc1"
     id="link91_@1_92"
     x1="19.860504"
     y1="157.28528"
     x2="18.296692"
     y2="152.19925" />
  <line
     class="arc2"
     id="link91_@2_90"
     x1="19.860504"
     y1="157.28528"
     x2="20.217133"
     y2="163.30408" />
  <line
     class="arc1"
     id="link34_@1_39"
     x1="16.533997"
     y1="178.69162"
     x2="17.34668"
     y2="174.94016" />
  <line
     class="arc3"
     id="link34_@3_90"
     x1="16.533997"
     y1="178.69162"
     x2="20.217133"
     y2="163.30408" />
  <line
     class="arc1"
     id="link90_@1_84"
     x1="20.217133"
     y1="163.30408"
     x2="19.009979"
     y2="164.23694" />
  <line
     class="arc2"
     id="link32_@2_37"
     x1="5.2270813"
     y1="203.04614"
     x2="2"
     y2="208.66333" />
  <line
     class="arc2"
     id="link122_@2_120"
     x1="2.8127441"
     y1="414.70111"
     x2="6.8526306"
     y2="424.5271" />
  <line
     class="arc0"
     id="link122_@0_123"
     x1="2.8127441"
     y1="414.70111"
     x2="42.926941"
     y2="321.67422" />
  <line
     class="arc2"
     id="link92_@2_86"
     x1="18.296692"
     y1="152.19925"
     x2="17.089478"
     y2="153.13211" />
  <line
     class="arc0"
     id="link92_@0_93"
     x1="18.296692"
     y1="152.19925"
     x2="93.771423"
     y2="20.547852" />
  <line
     class="arc0"
     id="link120_@0_121"
     x1="6.8526306"
     y1="424.5271"
     x2="46.966858"
     y2="331.50021" />
  <line
     class="arc1"
     id="link37_@1_124"
     x1="2"
     y1="208.66333"
     x2="2.8127441"
     y2="204.9118" />
  <line
     class="arc2"
     id="link39_@2_38"
     x1="17.34668"
     y1="174.94016"
     x2="14.119598"
     y2="180.55731" />
  <line
     class="arc3"
     id="link39_@3_84"
     x1="17.34668"
     y1="174.94016"
     x2="19.009979"
     y2="164.23694" />
  <line
     class="arc0"
     id="link39_@0_44"
     x1="17.34668"
     y1="174.94016"
     x2="103.24054"
     y2="181.80405" />
  <line
     class="arc2"
     id="link84_@2_85"
     x1="19.009979"
     y1="164.23694"
     x2="17.446136"
     y2="159.15097" />
  <line
     class="arc0"
     id="link84_@0_78"
     x1="19.009979"
     y1="164.23694"
     x2="106.51971"
     y2="171.19226" />
  <line
     class="arc1"
     id="link106_@1_93"
     x1="99.553406"
     y1="14.475952"
     x2="93.771423"
     y2="20.547852" />
  <line
     class="arc2"
     id="link106_@2_107"
     x1="99.553406"
     y1="14.475952"
     x2="104.85254"
     y2="8.7772827" />
  <line
     class="arc1"
     id="link107_@1_101"
     x1="104.85254"
     y1="8.7772827"
     x2="104.36969"
     y2="9.1503906" />
  <polygon
     points="573.5749,20.549805 614.879,23.288086 615.23566,29.307007 584.0255,164.66516 578.72626,170.36395 492.43332,164.4786 492.07666,158.45975 568.2757,26.248657 "
     id="face_87_100_94_81_80_79_85_86"
     style="fill:#c0c0c0;stroke:none"
     opacity="1"
     transform="translate(-474.98718,-5.3276367)" />
  <line
     class="arc1"
     id="link86_@1_85"
     x1="17.089478"
     y1="153.13211"
     x2="17.446136"
     y2="159.15097" />
  <line
     class="arc0"
     id="link86_@0_87"
     x1="17.089478"
     y1="153.13211"
     x2="93.288513"
     y2="20.921021" />
  <line
     class="arc2"
     id="link93_@2_87"
     x1="93.771423"
     y1="20.547852"
     x2="93.288513"
     y2="20.921021" />
  <line
     class="arc0"
     id="link85_@0_79"
     x1="17.446136"
     y1="159.15097"
     x2="103.73907"
     y2="165.03632" />
  <line
     class="arc2"
     id="link101_@2_100"
     x1="104.36969"
     y1="9.1503906"
     x2="98.587708"
     y2="15.222168" />
  <line
     class="arc0"
     id="link101_@0_95"
     x1="104.36969"
     y1="9.1503906"
     x2="142.76709"
     y2="12.124634" />
  <polygon
     points="570.14795,205.86902 530.0337,298.8959 521.95404,298.43863 481.8398,200.87082 489.10678,185.88495 572.16785,191.58731 "
     id="face_43_128_129_127_126_38"
     style="fill:#c0c0c0;stroke:none"
     opacity="1"
     transform="translate(-474.98718,-5.3276367)" />
  <line
     class="arc1"
     id="link38_@1_126"
     x1="14.119598"
     y1="180.55731"
     x2="6.8526306"
     y2="195.54318" />
  <line
     class="arc0"
     id="link38_@0_43"
     x1="14.119598"
     y1="180.55731"
     x2="97.180664"
     y2="186.25967" />
  <line
     class="arc1"
     id="link87_@1_100"
     x1="93.288513"
     y1="20.921021"
     x2="98.587708"
     y2="15.222168" />
  <line
     class="arc0"
     id="link100_@0_94"
     x1="98.587708"
     y1="15.222168"
     x2="139.89185"
     y2="17.960449" />
  <line
     class="arc2"
     id="link124_@2_126"
     x1="2.8127441"
     y1="204.9118"
     x2="6.8526306"
     y2="195.54318" />
  <line
     class="arc0"
     id="link124_@0_125"
     x1="2.8127441"
     y1="204.9118"
     x2="42.926941"
     y2="302.47961" />
  <line
     class="arc0"
     id="link126_@0_127"
     x1="6.8526306"
     y1="195.54318"
     x2="46.966858"
     y2="293.11099" />
  <line
     class="arc1"
     id="link123_@1_125"
     x1="42.926941"
     y1="321.67422"
     x2="42.926941"
     y2="302.47961" />
  <line
     class="arc2"
     id="link123_@2_121"
     x1="42.926941"
     y1="321.67422"
     x2="46.966858"
     y2="331.50021" />
  <line
     class="arc1"
     id="link121_@1_135"
     x1="46.966858"
     y1="331.50021"
     x2="55.046509"
     y2="331.95752" />
  <line
     class="arc2"
     id="link125_@2_127"
     x1="42.926941"
     y1="302.47961"
     x2="46.966858"
     y2="293.11099" />
  <line
     class="arc1"
     id="link127_@1_129"
     x1="46.966858"
     y1="293.11099"
     x2="55.046509"
     y2="293.56827" />
  <line
     class="arc2"
     id="link135_@2_133"
     x1="55.046509"
     y1="331.95752"
     x2="59.086426"
     y2="322.58884" />
  <line
     class="arc0"
     id="link135_@0_134"
     x1="55.046509"
     y1="331.95752"
     x2="95.160767"
     y2="429.52527" />
  <line
     class="arc2"
     id="link129_@2_131"
     x1="55.046509"
     y1="293.56827"
     x2="59.086426"
     y2="303.39423" />
  <line
     class="arc0"
     id="link129_@0_128"
     x1="55.046509"
     y1="293.56827"
     x2="95.160767"
     y2="200.54138" />
  <polygon
     points="584.2874,421.25726 584.2874,221.0653 574.1878,215.69498 534.0736,308.72186 534.0736,327.91647 574.1878,425.48425 "
     id="face_132_41_42_130_131_133"
     style="fill:#c0c0c0;stroke:none"
     opacity="1"
     transform="translate(-474.98718,-5.3276367)" />
  <line
     class="arc1"
     id="link133_@1_131"
     x1="59.086426"
     y1="322.58884"
     x2="59.086426"
     y2="303.39423" />
  <line
     class="arc0"
     id="link133_@0_132"
     x1="59.086426"
     y1="322.58884"
     x2="99.200623"
     y2="420.15662" />
  <line
     class="arc0"
     id="link131_@0_130"
     x1="59.086426"
     y1="303.39423"
     x2="99.200623"
     y2="210.36734" />
  <line
     class="arc1"
     id="link95_@1_89"
     x1="142.76709"
     y1="12.124634"
     x2="145.99902"
     y2="12.307556" />
  <line
     class="arc2"
     id="link95_@2_94"
     x1="142.76709"
     y1="12.124634"
     x2="139.89185"
     y2="17.960449" />
  <line
     class="arc1"
     id="link94_@1_81"
     x1="139.89185"
     y1="17.960449"
     x2="140.24847"
     y2="23.97937" />
  <line
     class="arc2"
     id="link89_@2_88"
     x1="145.99902"
     y1="12.307556"
     x2="146.35565"
     y2="18.326294" />
  <line
     class="arc0"
     id="link89_@0_83"
     x1="145.99902"
     y1="12.307556"
     x2="192.79156"
     y2="14.155029" />
  <line
     class="arc2"
     id="link81_@2_75"
     x1="140.24847"
     y1="23.97937"
     x2="143.48041"
     y2="24.162292" />
  <line
     class="arc0"
     id="link81_@0_80"
     x1="140.24847"
     y1="23.97937"
     x2="109.03833"
     y2="159.33752" />
  <polygon
     points="669.6252,31.984985 694.54803,169.91953 691.67285,175.7555 594.88574,171.2786 592.10516,165.12247 618.4676,29.48993 621.34283,23.65393 666.8446,25.828857 "
     id="face_82_69_68_67_73_74_75_88"
     style="fill:#c0c0c0;stroke:none"
     opacity="1"
     transform="translate(-474.98718,-5.3276367)" />
  <line
     class="arc1"
     id="link88_@1_75"
     x1="146.35565"
     y1="18.326294"
     x2="143.48041"
     y2="24.162292" />
  <line
     class="arc0"
     id="link88_@0_82"
     x1="146.35565"
     y1="18.326294"
     x2="191.85742"
     y2="20.501221" />
  <line
     class="arc0"
     id="link75_@0_74"
     x1="143.48041"
     y1="24.162292"
     x2="117.11798"
     y2="159.79483" />
  <line
     class="arc1"
     id="link40_@1_134"
     x1="97.180664"
     y1="444.03561"
     x2="95.160767"
     y2="429.52527" />
  <line
     class="arc2"
     id="link40_@2_8"
     x1="97.180664"
     y1="444.03561"
     x2="103.24054"
     y2="449.17725" />
  <line
     class="arc2"
     id="link134_@2_132"
     x1="95.160767"
     y1="429.52527"
     x2="99.200623"
     y2="420.15662" />
  <line
     class="arc1"
     id="link8_@1_9"
     x1="103.24054"
     y1="449.17725"
     x2="113.34015"
     y2="444.95023" />
  <line
     class="arc1"
     id="link132_@1_41"
     x1="99.200623"
     y1="420.15662"
     x2="109.30023"
     y2="415.92963" />
  <line
     class="arc2"
     id="link9_@2_45"
     x1="113.34015"
     y1="444.95023"
     x2="117.38"
     y2="435.58154" />
  <line
     class="arc0"
     id="link9_@0_4"
     x1="113.34015"
     y1="444.95023"
     x2="224.26196"
     y2="449.22601" />
  <line
     class="arc2"
     id="link41_@2_46"
     x1="109.30023"
     y1="415.92963"
     x2="115.36005"
     y2="421.07123" />
  <line
     class="arc0"
     id="link41_@0_42"
     x1="109.30023"
     y1="415.92963"
     x2="109.30023"
     y2="215.73767" />
  <line
     class="arc1"
     id="link77_@1_83"
     x1="196.50635"
     y1="13.964844"
     x2="192.79156"
     y2="14.155029" />
  <line
     class="arc2"
     id="link77_@2_76"
     x1="196.50635"
     y1="13.964844"
     x2="199.28693"
     y2="20.12085" />
  <polygon
     points="698.042,436.29184 698.042,216.90524 694.0021,207.07925 592.3672,202.32791 590.3472,216.60959 590.3472,426.39886 592.3672,440.90918 694.0021,445.66052 "
     id="face_50_51_52_53_48_47_46_45"
     style="fill:#c0c0c0;stroke:none"
     opacity="1"
     transform="translate(-474.98718,-5.3276367)" />
  <line
     class="arc1"
     id="link45_@1_46"
     x1="117.38"
     y1="435.58154"
     x2="115.36005"
     y2="421.07123" />
  <line
     class="arc0"
     id="link45_@0_50"
     x1="117.38"
     y1="435.58154"
     x2="219.01489"
     y2="440.33289" />
  <line
     class="arc0"
     id="link46_@0_47"
     x1="115.36005"
     y1="421.07123"
     x2="115.36005"
     y2="211.28195" />
  <line
     class="arc2"
     id="link83_@2_82"
     x1="192.79156"
     y1="14.155029"
     x2="191.85742"
     y2="20.501221" />
  <line
     class="arc1"
     id="link76_@1_63"
     x1="199.28693"
     y1="20.12085"
     x2="198.35278"
     y2="26.467102" />
  <line
     class="arc1"
     id="link82_@1_69"
     x1="191.85742"
     y1="20.501221"
     x2="194.638"
     y2="26.657349" />
  <line
     class="arc1"
     id="link128_@1_43"
     x1="95.160767"
     y1="200.54138"
     x2="97.180664"
     y2="186.25967" />
  <line
     class="arc2"
     id="link128_@2_130"
     x1="95.160767"
     y1="200.54138"
     x2="99.200623"
     y2="210.36734" />
  <line
     class="arc2"
     id="link63_@2_69"
     x1="198.35278"
     y1="26.467102"
     x2="194.638"
     y2="26.657349" />
  <line
     class="arc0"
     id="link63_@0_62"
     x1="198.35278"
     y1="26.467102"
     x2="228.84778"
     y2="164.11636" />
  <line
     class="arc1"
     id="link130_@1_42"
     x1="99.200623"
     y1="210.36734"
     x2="109.30023"
     y2="215.73767" />
  <line
     class="arc2"
     id="link43_@2_44"
     x1="97.180664"
     y1="186.25967"
     x2="103.24054"
     y2="181.80405" />
  <line
     class="arc1"
     id="link79_@1_80"
     x1="103.73907"
     y1="165.03632"
     x2="109.03833"
     y2="159.33752" />
  <line
     class="arc2"
     id="link79_@2_78"
     x1="103.73907"
     y1="165.03632"
     x2="106.51971"
     y2="171.19226" />
  <line
     class="arc0"
     id="link69_@0_68"
     x1="194.638"
     y1="26.657349"
     x2="219.56085"
     y2="164.59189" />
  <line
     class="arc2"
     id="link80_@2_74"
     x1="109.03833"
     y1="159.33752"
     x2="117.11798"
     y2="159.79483" />
  <line
     class="arc1"
     id="link44_@1_49"
     x1="103.24054"
     y1="181.80405"
     x2="113.34015"
     y2="187.17432" />
  <line
     class="arc3"
     id="link44_@3_78"
     x1="103.24054"
     y1="181.80405"
     x2="106.51971"
     y2="171.19226" />
  <line
     class="arc1"
     id="link78_@1_72"
     x1="106.51971"
     y1="171.19226"
     x2="114.59943"
     y2="171.6496" />
  <line
     class="arc2"
     id="link42_@2_47"
     x1="109.30023"
     y1="215.73767"
     x2="115.36005"
     y2="211.28195" />
  <line
     class="arc1"
     id="link74_@1_73"
     x1="117.11798"
     y1="159.79483"
     x2="119.89856"
     y2="165.95096" />
  <line
     class="arc1"
     id="link47_@1_48"
     x1="115.36005"
     y1="211.28195"
     x2="117.38"
     y2="197.00027" />
  <line
     class="arc2"
     id="link72_@2_73"
     x1="114.59943"
     y1="171.6496"
     x2="119.89856"
     y2="165.95096" />
  <line
     class="arc3"
     id="link72_@3_49"
     x1="114.59943"
     y1="171.6496"
     x2="113.34015"
     y2="187.17432" />
  <line
     class="arc0"
     id="link72_@0_66"
     x1="114.59943"
     y1="171.6496"
     x2="223.09729"
     y2="175.78818" />
  <line
     class="arc2"
     id="link49_@2_48"
     x1="113.34015"
     y1="187.17432"
     x2="117.38"
     y2="197.00027" />
  <line
     class="arc0"
     id="link49_@0_54"
     x1="113.34015"
     y1="187.17432"
     x2="224.26196"
     y2="191.45013" />
  <line
     class="arc0"
     id="link73_@0_67"
     x1="119.89856"
     y1="165.95096"
     x2="216.68567"
     y2="170.42786" />
  <line
     class="arc0"
     id="link48_@0_53"
     x1="117.38"
     y1="197.00027"
     x2="219.01489"
     y2="201.75162" />
  <line
     class="arc1"
     id="link5_@1_4"
     x1="233.54889"
     y1="448.75049"
     x2="224.26196"
     y2="449.22601" />
  <line
     class="arc2"
     id="link5_@2_55"
     x1="233.54889"
     y1="448.75049"
     x2="237.58868"
     y2="439.38181" />
  <line
     class="arc1"
     id="link55_@1_56"
     x1="237.58868"
     y1="439.38181"
     x2="232.34167"
     y2="430.48865" />
  <line
     class="arc2"
     id="link4_@2_50"
     x1="224.26196"
     y1="449.22601"
     x2="219.01489"
     y2="440.33289" />
  <line
     class="arc2"
     id="link56_@2_51"
     x1="232.34167"
     y1="430.48865"
     x2="223.05481"
     y2="430.9642" />
  <line
     class="arc0"
     id="link56_@0_57"
     x1="232.34167"
     y1="430.48865"
     x2="232.34167"
     y2="211.10208" />
  <line
     class="arc1"
     id="link50_@1_51"
     x1="219.01489"
     y1="440.33289"
     x2="223.05481"
     y2="430.9642" />
  <line
     class="arc0"
     id="link51_@0_52"
     x1="223.05481"
     y1="430.9642"
     x2="223.05481"
     y2="211.57761" />
  <line
     class="arc1"
     id="link60_@1_66"
     x1="232.38416"
     y1="175.31259"
     x2="223.09729"
     y2="175.78818" />
  <line
     class="arc2"
     id="link60_@2_61"
     x1="232.38416"
     y1="175.31259"
     x2="235.25952"
     y2="169.47678" />
  <line
     class="arc3"
     id="link60_@3_59"
     x1="232.38416"
     y1="175.31259"
     x2="233.54889"
     y2="190.97458" />
  <line
     class="arc1"
     id="link61_@1_62"
     x1="235.25952"
     y1="169.47678"
     x2="228.84778"
     y2="164.11636" />
  <line
     class="arc1"
     id="link59_@1_54"
     x1="233.54889"
     y1="190.97458"
     x2="224.26196"
     y2="191.45013" />
  <line
     class="arc2"
     id="link59_@2_58"
     x1="233.54889"
     y1="190.97458"
     x2="237.58868"
     y2="200.80057" />
  <line
     class="arc1"
     id="link58_@1_57"
     x1="237.58868"
     y1="200.80057"
     x2="232.34167"
     y2="211.10208" />
  <line
     class="arc2"
     id="link62_@2_68"
     x1="228.84778"
     y1="164.11636"
     x2="219.56085"
     y2="164.59189" />
  <line
     class="arc2"
     id="link66_@2_67"
     x1="223.09729"
     y1="175.78818"
     x2="216.68567"
     y2="170.42786" />
  <line
     class="arc3"
     id="link66_@3_54"
     x1="223.09729"
     y1="175.78818"
     x2="224.26196"
     y2="191.45013" />
  <line
     class="arc2"
     id="link54_@2_53"
     x1="224.26196"
     y1="191.45013"
     x2="219.01489"
     y2="201.75162" />
  <line
     class="arc1"
     id="link67_@1_68"
     x1="216.68567"
     y1="170.42786"
     x2="219.56085"
     y2="164.59189" />
  <line
     class="arc2"
     id="link57_@2_52"
     x1="232.34167"
     y1="211.10208"
     x2="223.05481"
     y2="211.57761" />
  <line
     class="arc1"
     id="link53_@1_52"
     x1="219.01489"
     y1="201.75162"
     x2="223.05481"
     y2="211.57761" />
</svg>
