<?xml version="1.0" encoding="UTF-8" standalone="no"?>
<!-- Created with Jerboa -->

<svg
   width="361.94595"
   height="455.52271"
   version="1.1"
   id="svg3237"
   sodipodi:docname="object.svg"
   inkscape:version="1.2.2 (b0a8486541, 2022-12-01)"
   inkscape:export-filename="object.png"
   inkscape:export-xdpi="300"
   inkscape:export-ydpi="300"
   xmlns:inkscape="http://www.inkscape.org/namespaces/inkscape"
   xmlns:sodipodi="http://sodipodi.sourceforge.net/DTD/sodipodi-0.dtd"
   xmlns="http://www.w3.org/2000/svg"
   xmlns:svg="http://www.w3.org/2000/svg">
  <defs
     id="defs3241" />
  <sodipodi:namedview
     id="namedview3239"
     pagecolor="#ffffff"
     bordercolor="#000000"
     borderopacity="0.25"
     inkscape:showpageshadow="2"
     inkscape:pageopacity="0.0"
     inkscape:pagecheckerboard="0"
     inkscape:deskcolor="#d1d1d1"
     showgrid="false"
     inkscape:zoom="0.93095599"
     inkscape:cx="187.44173"
     inkscape:cy="200.86879"
     inkscape:window-width="1908"
     inkscape:window-height="1051"
     inkscape:window-x="1085"
     inkscape:window-y="22"
     inkscape:window-maximized="1"
     inkscape:current-layer="svg3237" />
  <style
     id="style">
		.arc0 {
			fill:none;
			fill-rule:evenodd;
			stroke:black;
			stroke-width:4;
			stroke-linecap:round;
			stroke-linejoin:round;
			stroke-opacity:1;
		}
		.arc1 {
			fill:none;
			fill-rule:evenodd;
			stroke:red;
			stroke-width:4;
			stroke-linecap:round;
			stroke-linejoin:round;
			stroke-opacity:1;
		}
		.arc2 {
			fill:none;
			fill-rule:evenodd;
			stroke:blue;
			stroke-width:4;
			stroke-linecap:round;
			stroke-linejoin:round;
			stroke-opacity:1;
		}
		.arc3 {
			fill:none;
			fill-rule:evenodd;
			stroke:green;
			stroke-width:4;
			stroke-linecap:round;
			stroke-linejoin:round;
			stroke-opacity:1;
		}
		.topological-dart {
			fill:#000000;
			stroke:#000000;
			stroke-width:0;
			stroke-linecap:round;
			stroke-linejoin:round;
			stroke-dasharray:none;
			paint-order:markers fill stroke;
		}
	</style>
  <polygon
     points="632.00836,283.12207 819.32776,293.22363 827.40753,303.2783 824.784,523.01697 816.7042,532.157 632.00836,521.7033 623.9286,511.64865 623.9286,292.2621 "
     id="face_20_21_16_15_14_13_18_19"
     style="fill:#c0c0c0;stroke:none"
     opacity="1"
     transform="translate(-472.91776,-111.01154)" />
  <line
     class="arc1"
     id="link19_@1_18"
     x1="151.01083"
     y1="400.63712"
     x2="159.09061"
     y2="410.69177" />
  <line
     class="arc2"
     id="link19_@2_24"
     x1="151.01083"
     y1="400.63712"
     x2="137.68405"
     y2="400.88403" />
  <line
     class="arc0"
     id="link19_@0_20"
     x1="151.01083"
     y1="400.63712"
     x2="151.01083"
     y2="181.25055" />
  <polygon
     points="605.3548,283.6158 485.41183,299.71313 476.12494,314.58463 476.12494,524.3739 485.41183,538.2944 605.3548,522.1971 610.6018,511.89557 610.6018,292.50894 "
     id="face_25_26_31_30_29_28_23_24"
     style="fill:#c0c0c0;stroke:none"
     opacity="1"
     transform="translate(-472.91776,-111.01154)" />
  <line
     class="arc1"
     id="link24_@1_23"
     x1="137.68405"
     y1="400.88403"
     x2="132.43704"
     y2="411.18555" />
  <line
     class="arc0"
     id="link24_@0_25"
     x1="137.68405"
     y1="400.88403"
     x2="137.68405"
     y2="181.49741" />
  <line
     class="arc2"
     id="link18_@2_0"
     x1="159.09061"
     y1="410.69177"
     x2="153.84354"
     y2="420.99329" />
  <line
     class="arc0"
     id="link18_@0_13"
     x1="159.09061"
     y1="410.69177"
     x2="343.78647"
     y2="421.14545" />
  <line
     class="arc2"
     id="link23_@2_1"
     x1="132.43704"
     y1="411.18555"
     x2="140.51675"
     y2="421.24017" />
  <line
     class="arc0"
     id="link23_@0_28"
     x1="132.43704"
     y1="411.18555"
     x2="12.49408"
     y2="427.28284" />
  <polygon
     points="814.2899,543.62006 694.34705,559.71735 676.98035,564.53424 500.36417,554.53784 493.49158,548.349 613.4345,532.2517 626.7613,532.0048 811.4573,542.4585 "
     id="face_7_6_5_4_3_2_1_0"
     style="fill:#c0c0c0;stroke:none"
     opacity="1"
     transform="translate(-472.91776,-111.01154)" />
  <line
     class="arc1"
     id="link0_@1_1"
     x1="153.84354"
     y1="420.99329"
     x2="140.51675"
     y2="421.24017" />
  <line
     class="arc0"
     id="link0_@0_7"
     x1="153.84354"
     y1="420.99329"
     x2="338.53952"
     y2="431.44696" />
  <line
     class="arc0"
     id="link1_@0_2"
     x1="140.51675"
     y1="421.24017"
     x2="20.573822"
     y2="437.33746" />
  <line
     class="arc1"
     id="link20_@1_21"
     x1="151.01083"
     y1="181.25055"
     x2="159.09061"
     y2="172.11053" />
  <line
     class="arc2"
     id="link20_@2_25"
     x1="151.01083"
     y1="181.25055"
     x2="137.68405"
     y2="181.49741" />
  <line
     class="arc1"
     id="link25_@1_26"
     x1="137.68405"
     y1="181.49741"
     x2="132.43704"
     y2="172.60428" />
  <line
     class="arc2"
     id="link21_@2_22"
     x1="159.09061"
     y1="172.11053"
     x2="153.84354"
     y2="163.21738" />
  <line
     class="arc0"
     id="link21_@0_16"
     x1="159.09061"
     y1="172.11053"
     x2="346.41"
     y2="182.2121" />
  <line
     class="arc2"
     id="link26_@2_27"
     x1="132.43704"
     y1="172.60428"
     x2="140.51675"
     y2="163.46426" />
  <line
     class="arc0"
     id="link26_@0_31"
     x1="132.43704"
     y1="172.60428"
     x2="12.49408"
     y2="188.7016" />
  <polygon
     points="822.1605,284.78787 770.47797,285.21014 770.47797,285.21014 686.47644,302.99777 671.7333,297.86523 500.36417,287.1646 493.49158,290.57315 613.4345,274.4758 626.7613,274.2289 816.7042,283.97842 "
     id="face_17_12_50_49_47_42_37_32_27_22"
     style="fill:#c0c0c0;stroke:none"
     opacity="1"
     transform="translate(-472.91776,-111.01154)" />
  <line
     class="arc1"
     id="link22_@1_27"
     x1="153.84354"
     y1="163.21738"
     x2="140.51675"
     y2="163.46426" />
  <line
     class="arc3"
     id="link22_@3_82"
     x1="153.84354"
     y1="163.21738"
     x2="155.17813"
     y2="148.23755" />
  <line
     class="arc0"
     id="link22_@0_17"
     x1="153.84354"
     y1="163.21738"
     x2="343.78647"
     y2="172.96689" />
  <polygon
     points="816.86774,257.5157 747.8277,128.54156 741.0825,122.70166 656.45905,118.11227 651.8926,123.31183 627.9324,247.32263 634.67755,253.1625 812.3013,262.7153 "
     id="face_89_90_91_104_98_85_84_83"
     style="fill:#c0c0c0;stroke:none"
     opacity="1"
     transform="translate(-472.91776,-111.01154)" />
  <line
     class="arc1"
     id="link83_@1_84"
     x1="161.7598"
     y1="142.15097"
     x2="155.01462"
     y2="136.3111" />
  <line
     class="arc2"
     id="link83_@2_82"
     x1="161.7598"
     y1="142.15097"
     x2="155.17813"
     y2="148.23755" />
  <line
     class="arc0"
     id="link83_@0_89"
     x1="161.7598"
     y1="142.15097"
     x2="339.38351"
     y2="151.70377" />
  <line
     class="arc2"
     id="link84_@2_78"
     x1="155.01462"
     y1="136.3111"
     x2="141.68784"
     y2="136.55795" />
  <line
     class="arc0"
     id="link84_@0_85"
     x1="155.01462"
     y1="136.3111"
     x2="178.97482"
     y2="12.300293" />
  <line
     class="arc3"
     id="link27_@3_76"
     x1="140.51675"
     y1="163.46426"
     x2="141.85135"
     y2="148.48441" />
  <line
     class="arc0"
     id="link27_@0_32"
     x1="140.51675"
     y1="163.46426"
     x2="20.573822"
     y2="179.56161" />
  <polygon
     points="645.79767,118.30972 591.524,125.59375 584.94244,131.68042 493.61325,263.80765 494.3775,268.90854 608.024,253.65625 614.6056,247.56949 646.5619,123.41058 "
     id="face_79_92_86_73_72_71_77_78"
     style="fill:#c0c0c0;stroke:none"
     opacity="1"
     transform="translate(-472.91776,-111.01154)" />
  <line
     class="arc1"
     id="link78_@1_77"
     x1="141.68784"
     y1="136.55795"
     x2="135.10623"
     y2="142.64471" />
  <line
     class="arc0"
     id="link78_@0_79"
     x1="141.68784"
     y1="136.55795"
     x2="173.64413"
     y2="12.399048" />
  <polygon
     points="818.6472,269.5336 771.1623,278.98984 765.9152,279.69403 686.1114,287.321 675.4082,287.2158 500.80713,276.33224 497.9744,275.17075 614.7691,259.49594 628.0959,259.24908 813.19104,268.72418 "
     id="face_88_94_100_106_52_58_64_70_76_82"
     style="fill:#c0c0c0;stroke:none"
     opacity="1"
     transform="translate(-472.91776,-111.01154)" />
  <line
     class="arc1"
     id="link82_@1_76"
     x1="155.17813"
     y1="148.23755"
     x2="141.85135"
     y2="148.48441" />
  <line
     class="arc0"
     id="link82_@0_88"
     x1="155.17813"
     y1="148.23755"
     x2="340.27328"
     y2="157.71265" />
  <line
     class="arc2"
     id="link77_@2_76"
     x1="135.10623"
     y1="142.64471"
     x2="141.85135"
     y2="148.48441" />
  <line
     class="arc0"
     id="link77_@0_71"
     x1="135.10623"
     y1="142.64471"
     x2="21.459747"
     y2="157.897" />
  <line
     class="arc0"
     id="link76_@0_70"
     x1="141.85135"
     y1="148.48441"
     x2="25.056641"
     y2="164.15921" />
  <line
     class="arc1"
     id="link13_@1_14"
     x1="343.78647"
     y1="421.14545"
     x2="351.86624"
     y2="412.00543" />
  <line
     class="arc2"
     id="link13_@2_7"
     x1="343.78647"
     y1="421.14545"
     x2="338.53952"
     y2="431.44696" />
  <line
     class="arc2"
     id="link14_@2_9"
     x1="351.86624"
     y1="412.00543"
     x2="354.69894"
     y2="413.16693" />
  <line
     class="arc0"
     id="link14_@0_15"
     x1="351.86624"
     y1="412.00543"
     x2="354.48978"
     y2="192.26675" />
  <line
     class="arc1"
     id="link7_@1_6"
     x1="338.53952"
     y1="431.44696"
     x2="341.37216"
     y2="432.60852" />
  <line
     class="arc1"
     id="link85_@1_98"
     x1="178.97482"
     y1="12.300293"
     x2="183.54129"
     y2="7.1007309" />
  <line
     class="arc2"
     id="link85_@2_79"
     x1="178.97482"
     y1="12.300293"
     x2="173.64413"
     y2="12.399048" />
  <line
     class="arc1"
     id="link79_@1_92"
     x1="173.64413"
     y1="12.399048"
     x2="172.87991"
     y2="7.2981873" />
  <line
     class="arc1"
     id="link16_@1_15"
     x1="346.41"
     y1="182.2121"
     x2="354.48978"
     y2="192.26675" />
  <line
     class="arc2"
     id="link16_@2_17"
     x1="346.41"
     y1="182.2121"
     x2="343.78647"
     y2="172.96689" />
  <line
     class="arc2"
     id="link98_@2_99"
     x1="183.54129"
     y1="7.1007309"
     x2="182.77707"
     y2="2.0000076" />
  <line
     class="arc0"
     id="link98_@0_104"
     x1="183.54129"
     y1="7.1007309"
     x2="268.16476"
     y2="11.690125" />
  <polygon
     points="830.24023,294.84247 770.47797,285.21014 770.47797,285.21014 694.55615,313.05237 695.9725,328.0291 701.21954,537.1142 702.42676,550.57733 822.3696,534.48 827.6167,524.17847 832.8637,304.0877 "
     id="face_10_11_51_48_46_45_44_43_8_9"
     style="fill:#c0c0c0;stroke:none"
     opacity="1"
     transform="translate(-472.91776,-111.01154)" />
  <line
     class="arc1"
     id="link9_@1_8"
     x1="354.69894"
     y1="413.16693"
     x2="349.45187"
     y2="423.46844" />
  <line
     class="arc0"
     id="link9_@0_10"
     x1="354.69894"
     y1="413.16693"
     x2="359.94595"
     y2="193.07617" />
  <line
     class="arc2"
     id="link6_@2_8"
     x1="341.37216"
     y1="432.60852"
     x2="349.45187"
     y2="423.46844" />
  <line
     class="arc0"
     id="link6_@0_5"
     x1="341.37216"
     y1="432.60852"
     x2="221.42929"
     y2="448.70581" />
  <line
     class="arc2"
     id="link92_@2_93"
     x1="172.87991"
     y1="7.2981873"
     x2="177.44638"
     y2="2.0986938" />
  <line
     class="arc0"
     id="link92_@0_86"
     x1="172.87991"
     y1="7.2981873"
     x2="118.60623"
     y2="14.582214" />
  <line
     class="arc2"
     id="link15_@2_10"
     x1="354.48978"
     y1="192.26675"
     x2="359.94595"
     y2="193.07617" />
  <line
     class="arc1"
     id="link17_@1_12"
     x1="343.78647"
     y1="172.96689"
     x2="349.24277"
     y2="173.77634" />
  <line
     class="arc3"
     id="link17_@3_88"
     x1="343.78647"
     y1="172.96689"
     x2="340.27328"
     y2="157.71265" />
  <line
     class="arc1"
     id="link89_@1_90"
     x1="339.38351"
     y1="151.70377"
     x2="343.94998"
     y2="146.50415" />
  <line
     class="arc2"
     id="link89_@2_88"
     x1="339.38351"
     y1="151.70377"
     x2="340.27328"
     y2="157.71265" />
  <line
     class="arc1"
     id="link88_@1_94"
     x1="340.27328"
     y1="157.71265"
     x2="345.72946"
     y2="158.52206" />
  <polygon
     points="738.70233,117.50943 717.50464,121.58768 715.40576,121.86935 681.2806,125.21594 676.99927,125.17383 600.37177,120.43628 599.2387,119.97168 650.36414,113.11023 655.6948,113.01154 736.5199,117.1857 "
     id="face_105_111_57_63_69_75_81_87_93_99"
     style="fill:#c0c0c0;stroke:none"
     opacity="1"
     transform="translate(-472.91776,-111.01154)" />
  <line
     class="arc1"
     id="link99_@1_93"
     x1="182.77707"
     y1="2.0000076"
     x2="177.44638"
     y2="2.0986938" />
  <line
     class="arc0"
     id="link99_@0_105"
     x1="182.77707"
     y1="2.0000076"
     x2="263.60214"
     y2="6.1741638" />
  <line
     class="arc0"
     id="link8_@0_43"
     x1="349.45187"
     y1="423.46844"
     x2="229.509"
     y2="439.5658" />
  <line
     class="arc0"
     id="link93_@0_87"
     x1="177.44638"
     y1="2.0986938"
     x2="126.32095"
     y2="8.960144" />
  <line
     class="arc2"
     id="link90_@2_96"
     x1="343.94998"
     y1="146.50415"
     x2="349.40622"
     y2="147.31357" />
  <line
     class="arc0"
     id="link90_@0_91"
     x1="343.94998"
     y1="146.50415"
     x2="274.90994"
     y2="17.530029" />
  <line
     class="arc1"
     id="link10_@1_11"
     x1="359.94595"
     y1="193.07617"
     x2="357.32248"
     y2="183.83093" />
  <line
     class="arc2"
     id="link12_@2_11"
     x1="349.24277"
     y1="173.77634"
     x2="357.32248"
     y2="183.83093" />
  <line
     class="arc3"
     id="link12_@3_94"
     x1="349.24277"
     y1="173.77634"
     x2="345.72946"
     y2="158.52206" />
  <line
     class="arc0"
     id="link12_@0_50"
     x1="349.24277"
     y1="173.77634"
     x2="297.56021"
     y2="174.19861" />
  <line
     class="arc2"
     id="link94_@2_95"
     x1="345.72946"
     y1="158.52206"
     x2="350.29599"
     y2="153.32257" />
  <line
     class="arc0"
     id="link94_@0_100"
     x1="345.72946"
     y1="158.52206"
     x2="298.24454"
     y2="167.9783" />
  <line
     class="arc0"
     id="link11_@0_51"
     x1="357.32248"
     y1="183.83093"
     x2="297.56021"
     y2="174.19861" />
  <polygon
     points="745.4475,123.34921 720.49316,127.31494 721.38293,133.32397 767.28406,267.25357 771.84674,272.76965 823.21375,264.3341 822.324,258.3251 750.0102,128.8653 "
     id="face_97_110_56_103_102_101_95_96"
     style="fill:#c0c0c0;stroke:none"
     opacity="1"
     transform="translate(-472.91776,-111.01154)" />
  <line
     class="arc1"
     id="link96_@1_95"
     x1="349.40622"
     y1="147.31357"
     x2="350.29599"
     y2="153.32257" />
  <line
     class="arc0"
     id="link96_@0_97"
     x1="349.40622"
     y1="147.31357"
     x2="277.09244"
     y2="17.85376" />
  <line
     class="arc0"
     id="link95_@0_101"
     x1="350.29599"
     y1="153.32257"
     x2="298.92899"
     y2="161.75812" />
  <line
     class="arc1"
     id="link28_@1_29"
     x1="12.49408"
     y1="427.28284"
     x2="3.2071838"
     y2="413.36237" />
  <line
     class="arc2"
     id="link28_@2_2"
     x1="12.49408"
     y1="427.28284"
     x2="20.573822"
     y2="437.33746" />
  <line
     class="arc1"
     id="link91_@1_104"
     x1="274.90994"
     y1="17.530029"
     x2="268.16476"
     y2="11.690125" />
  <line
     class="arc2"
     id="link91_@2_97"
     x1="274.90994"
     y1="17.530029"
     x2="277.09244"
     y2="17.85376" />
  <line
     class="arc2"
     id="link104_@2_105"
     x1="268.16476"
     y1="11.690125"
     x2="263.60214"
     y2="6.1741638" />
  <line
     class="arc1"
     id="link105_@1_111"
     x1="263.60214"
     y1="6.1741638"
     x2="265.78458"
     y2="6.4978943" />
  <line
     class="arc1"
     id="link2_@1_3"
     x1="20.573822"
     y1="437.33746"
     x2="27.446411"
     y2="443.52631" />
  <line
     class="arc1"
     id="link97_@1_110"
     x1="277.09244"
     y1="17.85376"
     x2="272.52975"
     y2="12.337677" />
  <line
     class="arc2"
     id="link29_@2_34"
     x1="3.2071838"
     y1="413.36237"
     x2="2"
     y2="409.49658" />
  <line
     class="arc0"
     id="link29_@0_30"
     x1="3.2071838"
     y1="413.36237"
     x2="3.2071838"
     y2="203.57309" />
  <line
     class="arc2"
     id="link110_@2_111"
     x1="272.52975"
     y1="12.337677"
     x2="265.78458"
     y2="6.4978943" />
  <line
     class="arc0"
     id="link110_@0_56"
     x1="272.52975"
     y1="12.337677"
     x2="247.57541"
     y2="16.303406" />
  <line
     class="arc0"
     id="link111_@0_57"
     x1="265.78458"
     y1="6.4978943"
     x2="244.58688"
     y2="10.576141" />
  <polygon
     points="481.79034,316.90765 562.0187,416.7459 562.0187,435.9405 481.79034,526.69696 474.91776,520.5081 474.91776,320.3162 "
     id="face_35_116_117_115_114_34"
     style="fill:#0000ff;stroke:none"
     opacity="1"
     transform="translate(-472.91776,-111.01154)" />
  <line
     class="arc1"
     id="link34_@1_114"
     x1="2"
     y1="409.49658"
     x2="8.8725891"
     y2="415.68542" />
  <line
     class="arc0"
     id="link34_@0_35"
     x1="2"
     y1="409.49658"
     x2="2"
     y2="209.30466" />
  <line
     class="arc2"
     id="link3_@2_33"
     x1="27.446411"
     y1="443.52631"
     x2="26.239227"
     y2="439.66046" />
  <line
     class="arc0"
     id="link3_@0_4"
     x1="27.446411"
     y1="443.52631"
     x2="204.06259"
     y2="453.52271" />
  <line
     class="arc1"
     id="link31_@1_30"
     x1="12.49408"
     y1="188.7016"
     x2="3.2071838"
     y2="203.57309" />
  <line
     class="arc2"
     id="link31_@2_32"
     x1="12.49408"
     y1="188.7016"
     x2="20.573822"
     y2="179.56161" />
  <line
     class="arc1"
     id="link71_@1_72"
     x1="21.459747"
     y1="157.897"
     x2="20.695496"
     y2="152.79611" />
  <line
     class="arc2"
     id="link71_@2_70"
     x1="21.459747"
     y1="157.897"
     x2="25.056641"
     y2="164.15921" />
  <line
     class="arc2"
     id="link30_@2_35"
     x1="3.2071838"
     y1="203.57309"
     x2="2"
     y2="209.30466" />
  <line
     class="arc1"
     id="link32_@1_37"
     x1="20.573822"
     y1="179.56161"
     x2="27.446411"
     y2="176.15308" />
  <line
     class="arc3"
     id="link32_@3_70"
     x1="20.573822"
     y1="179.56161"
     x2="25.056641"
     y2="164.15921" />
  <line
     class="arc1"
     id="link70_@1_64"
     x1="25.056641"
     y1="164.15921"
     x2="27.889374"
     y2="165.32071" />
  <line
     class="arc2"
     id="link72_@2_66"
     x1="20.695496"
     y1="152.79611"
     x2="23.528198"
     y2="153.95764" />
  <line
     class="arc0"
     id="link72_@0_73"
     x1="20.695496"
     y1="152.79611"
     x2="112.02469"
     y2="20.668884" />
  <polygon
     points="666.48627,546.748 586.2579,446.9098 570.09845,445.99518 489.87012,536.7516 499.15698,550.672 667.6934,560.2111 "
     id="face_38_126_127_113_112_33"
     style="fill:#c0c0c0;stroke:none"
     opacity="1"
     transform="translate(-472.91776,-111.01154)" />
  <line
     class="arc1"
     id="link33_@1_112"
     x1="26.239227"
     y1="439.66046"
     x2="16.952362"
     y2="425.74005" />
  <line
     class="arc0"
     id="link33_@0_38"
     x1="26.239227"
     y1="439.66046"
     x2="194.77567"
     y2="449.19958" />
  <line
     class="arc1"
     id="link86_@1_73"
     x1="118.60623"
     y1="14.582214"
     x2="112.02469"
     y2="20.668884" />
  <line
     class="arc2"
     id="link86_@2_87"
     x1="118.60623"
     y1="14.582214"
     x2="126.32095"
     y2="8.960144" />
  <line
     class="arc2"
     id="link114_@2_112"
     x1="8.8725891"
     y1="415.68542"
     x2="16.952362"
     y2="425.74005" />
  <line
     class="arc0"
     id="link114_@0_115"
     x1="8.8725891"
     y1="415.68542"
     x2="89.100922"
     y2="324.92896" />
  <line
     class="arc1"
     id="link35_@1_116"
     x1="2"
     y1="209.30466"
     x2="8.8725891"
     y2="205.89612" />
  <line
     class="arc1"
     id="link87_@1_81"
     x1="126.32095"
     y1="8.960144"
     x2="127.45401"
     y2="9.4247437" />
  <line
     class="arc2"
     id="link73_@2_67"
     x1="112.02469"
     y1="20.668884"
     x2="113.15775"
     y2="21.133484" />
  <line
     class="arc0"
     id="link112_@0_113"
     x1="16.952362"
     y1="425.74005"
     x2="97.180695"
     y2="334.98364" />
  <line
     class="arc2"
     id="link81_@2_80"
     x1="127.45401"
     y1="9.4247437"
     x2="120.87241"
     y2="15.511353" />
  <line
     class="arc0"
     id="link81_@0_75"
     x1="127.45401"
     y1="9.4247437"
     x2="204.08151"
     y2="14.162292" />
  <line
     class="arc2"
     id="link64_@2_65"
     x1="27.889374"
     y1="165.32071"
     x2="27.125092"
     y2="160.21997" />
  <line
     class="arc3"
     id="link64_@3_37"
     x1="27.889374"
     y1="165.32071"
     x2="27.446411"
     y2="176.15308" />
  <line
     class="arc0"
     id="link64_@0_58"
     x1="27.889374"
     y1="165.32071"
     x2="202.49045"
     y2="176.20425" />
  <polygon
     points="500.04285,271.2315 672.4196,281.4886 680.13434,275.86646 679.91174,137.6564 676.3149,131.39398 593.79016,126.52289 586.0755,132.14502 496.44595,264.96918 "
     id="face_66_65_59_60_61_74_80_67"
     style="fill:#c0c0c0;stroke:none"
     opacity="1"
     transform="translate(-472.91776,-111.01154)" />
  <line
     class="arc1"
     id="link67_@1_80"
     x1="113.15775"
     y1="21.133484"
     x2="120.87241"
     y2="15.511353" />
  <line
     class="arc0"
     id="link67_@0_66"
     x1="113.15775"
     y1="21.133484"
     x2="23.528198"
     y2="153.95764" />
  <line
     class="arc2"
     id="link37_@2_36"
     x1="27.446411"
     y1="176.15308"
     x2="26.239227"
     y2="181.88458" />
  <line
     class="arc0"
     id="link37_@0_42"
     x1="27.446411"
     y1="176.15308"
     x2="198.81552"
     y2="186.8537" />
  <line
     class="arc1"
     id="link66_@1_65"
     x1="23.528198"
     y1="153.95764"
     x2="27.125092"
     y2="160.21997" />
  <line
     class="arc0"
     id="link80_@0_74"
     x1="120.87241"
     y1="15.511353"
     x2="203.39713"
     y2="20.382446" />
  <line
     class="arc0"
     id="link65_@0_59"
     x1="27.125092"
     y1="160.21997"
     x2="199.50186"
     y2="170.47705" />
  <line
     class="arc2"
     id="link116_@2_118"
     x1="8.8725891"
     y1="205.89612"
     x2="16.952362"
     y2="196.75613" />
  <line
     class="arc0"
     id="link116_@0_117"
     x1="8.8725891"
     y1="205.89612"
     x2="89.100922"
     y2="305.73438" />
  <line
     class="arc1"
     id="link56_@1_103"
     x1="247.57541"
     y1="16.303406"
     x2="248.46518"
     y2="22.312439" />
  <line
     class="arc2"
     id="link56_@2_57"
     x1="247.57541"
     y1="16.303406"
     x2="244.58688"
     y2="10.576141" />
  <polygon
     points="666.48627,317.76407 586.2579,408.52054 570.09845,407.6059 489.87012,307.76767 499.15698,292.89612 665.06995,302.78732 "
     id="face_41_120_121_119_118_36"
     style="fill:#c0c0c0;stroke:none"
     opacity="1"
     transform="translate(-472.91776,-111.01154)" />
  <line
     class="arc1"
     id="link36_@1_118"
     x1="26.239227"
     y1="181.88458"
     x2="16.952362"
     y2="196.75613" />
  <line
     class="arc0"
     id="link36_@0_41"
     x1="26.239227"
     y1="181.88458"
     x2="192.15219"
     y2="191.77579" />
  <line
     class="arc1"
     id="link57_@1_63"
     x1="244.58688"
     y1="10.576141"
     x2="242.48801"
     y2="10.857811" />
  <line
     class="arc2"
     id="link103_@2_109"
     x1="248.46518"
     y1="22.312439"
     x2="246.3663"
     y2="22.594147" />
  <line
     class="arc0"
     id="link103_@0_102"
     x1="248.46518"
     y1="22.312439"
     x2="294.3663"
     y2="156.24203" />
  <line
     class="arc2"
     id="link63_@2_62"
     x1="242.48801"
     y1="10.857811"
     x2="243.37778"
     y2="16.866692" />
  <line
     class="arc0"
     id="link63_@0_69"
     x1="242.48801"
     y1="10.857811"
     x2="208.36282"
     y2="14.204407" />
  <line
     class="arc0"
     id="link118_@0_119"
     x1="16.952362"
     y1="196.75613"
     x2="97.180695"
     y2="296.59436" />
  <polygon
     points="761.35266,274.17804 693.8261,281.69897 690.8376,275.97165 684.19305,137.69852 684.87744,131.47815 716.29553,127.87824 719.28406,133.60568 762.037,267.9578 "
     id="face_108_107_53_54_55_68_62_109"
     style="fill:#c0c0c0;stroke:none"
     opacity="1"
     transform="translate(-472.91776,-111.01154)" />
  <line
     class="arc1"
     id="link109_@1_62"
     x1="246.3663"
     y1="22.594147"
     x2="243.37778"
     y2="16.866692" />
  <line
     class="arc0"
     id="link109_@0_108"
     x1="246.3663"
     y1="22.594147"
     x2="289.11923"
     y2="156.94626" />
  <line
     class="arc0"
     id="link62_@0_68"
     x1="243.37778"
     y1="16.866692"
     x2="211.95969"
     y2="20.466614" />
  <line
     class="arc1"
     id="link101_@1_102"
     x1="298.92899"
     y1="161.75812"
     x2="294.3663"
     y2="156.24203" />
  <line
     class="arc2"
     id="link101_@2_100"
     x1="298.92899"
     y1="161.75812"
     x2="298.24454"
     y2="167.9783" />
  <line
     class="arc2"
     id="link102_@2_108"
     x1="294.3663"
     y1="156.24203"
     x2="289.11923"
     y2="156.94626" />
  <line
     class="arc1"
     id="link100_@1_106"
     x1="298.24454"
     y1="167.9783"
     x2="292.99747"
     y2="168.6825" />
  <line
     class="arc3"
     id="link100_@3_50"
     x1="298.24454"
     y1="167.9783"
     x2="297.56021"
     y2="174.19861" />
  <line
     class="arc1"
     id="link48_@1_51"
     x1="297.56021"
     y1="174.19861"
     x2="297.56021"
     y2="174.19861" />
  <line
     class="arc2"
     id="link48_@2_49"
     x1="297.56021"
     y1="174.19861"
     x2="297.56021"
     y2="174.19861" />
  <line
     class="arc0"
     id="link48_@0_46"
     x1="297.56021"
     y1="174.19861"
     x2="221.6384"
     y2="202.04083" />
  <line
     class="arc1"
     id="link49_@1_50"
     x1="297.56021"
     y1="174.19861"
     x2="297.56021"
     y2="174.19861" />
  <line
     class="arc3"
     id="link49_@3_106"
     x1="297.56021"
     y1="174.19861"
     x2="292.99747"
     y2="168.6825" />
  <line
     class="arc0"
     id="link49_@0_47"
     x1="297.56021"
     y1="174.19861"
     x2="213.55869"
     y2="191.98624" />
  <line
     class="arc2"
     id="link50_@2_51"
     x1="297.56021"
     y1="174.19861"
     x2="297.56021"
     y2="174.19861" />
  <line
     class="arc1"
     id="link108_@1_107"
     x1="289.11923"
     y1="156.94626"
     x2="288.43491"
     y2="163.1665" />
  <line
     class="arc2"
     id="link106_@2_107"
     x1="292.99747"
     y1="168.6825"
     x2="288.43491"
     y2="163.1665" />
  <line
     class="arc0"
     id="link106_@0_52"
     x1="292.99747"
     y1="168.6825"
     x2="213.19363"
     y2="176.30948" />
  <line
     class="arc0"
     id="link107_@0_53"
     x1="288.43491"
     y1="163.1665"
     x2="220.90836"
     y2="170.68744" />
  <line
     class="arc1"
     id="link115_@1_117"
     x1="89.100922"
     y1="324.92896"
     x2="89.100922"
     y2="305.73438" />
  <line
     class="arc2"
     id="link115_@2_113"
     x1="89.100922"
     y1="324.92896"
     x2="97.180695"
     y2="334.98364" />
  <line
     class="arc1"
     id="link69_@1_75"
     x1="208.36282"
     y1="14.204407"
     x2="204.08151"
     y2="14.162292" />
  <line
     class="arc2"
     id="link69_@2_68"
     x1="208.36282"
     y1="14.204407"
     x2="211.95969"
     y2="20.466614" />
  <line
     class="arc2"
     id="link75_@2_74"
     x1="204.08151"
     y1="14.162292"
     x2="203.39713"
     y2="20.382446" />
  <line
     class="arc2"
     id="link117_@2_119"
     x1="89.100922"
     y1="305.73438"
     x2="97.180695"
     y2="296.59436" />
  <line
     class="arc1"
     id="link113_@1_127"
     x1="97.180695"
     y1="334.98364"
     x2="113.34012"
     y2="335.89825" />
  <line
     class="arc1"
     id="link74_@1_61"
     x1="203.39713"
     y1="20.382446"
     x2="206.99399"
     y2="26.644867" />
  <line
     class="arc1"
     id="link68_@1_55"
     x1="211.95969"
     y1="20.466614"
     x2="211.2753"
     y2="26.686981" />
  <line
     class="arc1"
     id="link119_@1_121"
     x1="97.180695"
     y1="296.59436"
     x2="113.34012"
     y2="297.509" />
  <line
     class="arc2"
     id="link55_@2_61"
     x1="211.2753"
     y1="26.686981"
     x2="206.99399"
     y2="26.644867" />
  <line
     class="arc0"
     id="link55_@0_54"
     x1="211.2753"
     y1="26.686981"
     x2="217.91983"
     y2="164.96011" />
  <line
     class="arc0"
     id="link61_@0_60"
     x1="206.99399"
     y1="26.644867"
     x2="207.21658"
     y2="164.85492" />
  <line
     class="arc2"
     id="link127_@2_125"
     x1="113.34012"
     y1="335.89825"
     x2="121.41983"
     y2="326.75818" />
  <line
     class="arc0"
     id="link127_@0_126"
     x1="113.34012"
     y1="335.89825"
     x2="193.56851"
     y2="435.73645" />
  <line
     class="arc2"
     id="link121_@2_123"
     x1="113.34012"
     y1="297.509"
     x2="121.41983"
     y2="307.5636" />
  <line
     class="arc0"
     id="link121_@0_120"
     x1="113.34012"
     y1="297.509"
     x2="193.56851"
     y2="206.75253" />
  <polygon
     points="691.9326,532.7911 689.30914,332.95123 674.566,327.81866 594.3376,418.57513 594.3376,437.7697 674.566,537.608 "
     id="face_124_39_40_122_123_125"
     style="fill:#c0c0c0;stroke:none"
     opacity="1"
     transform="translate(-472.91776,-111.01154)" />
  <line
     class="arc1"
     id="link125_@1_123"
     x1="121.41983"
     y1="326.75818"
     x2="121.41983"
     y2="307.5636" />
  <line
     class="arc0"
     id="link125_@0_124"
     x1="121.41983"
     y1="326.75818"
     x2="201.64822"
     y2="426.59644" />
  <line
     class="arc0"
     id="link123_@0_122"
     x1="121.41983"
     y1="307.5636"
     x2="201.64822"
     y2="216.80713" />
  <line
     class="arc1"
     id="link4_@1_5"
     x1="204.06259"
     y1="453.52271"
     x2="221.42929"
     y2="448.70581" />
  <line
     class="arc2"
     id="link4_@2_38"
     x1="204.06259"
     y1="453.52271"
     x2="194.77567"
     y2="449.19958" />
  <line
     class="arc2"
     id="link5_@2_43"
     x1="221.42929"
     y1="448.70581"
     x2="229.509"
     y2="439.5658" />
  <line
     class="arc1"
     id="link38_@1_126"
     x1="194.77567"
     y1="449.19958"
     x2="193.56851"
     y2="435.73645" />
  <line
     class="arc1"
     id="link43_@1_44"
     x1="229.509"
     y1="439.5658"
     x2="228.30179"
     y2="426.10266" />
  <line
     class="arc2"
     id="link44_@2_39"
     x1="228.30179"
     y1="426.10266"
     x2="219.01486"
     y2="421.77954" />
  <line
     class="arc0"
     id="link44_@0_45"
     x1="228.30179"
     y1="426.10266"
     x2="223.05472"
     y2="217.01758" />
  <line
     class="arc2"
     id="link126_@2_124"
     x1="193.56851"
     y1="435.73645"
     x2="201.64822"
     y2="426.59644" />
  <line
     class="arc1"
     id="link39_@1_124"
     x1="219.01486"
     y1="421.77954"
     x2="201.64822"
     y2="426.59644" />
  <line
     class="arc0"
     id="link39_@0_40"
     x1="219.01486"
     y1="421.77954"
     x2="216.39139"
     y2="221.9397" />
  <line
     class="arc1"
     id="link58_@1_52"
     x1="202.49045"
     y1="176.20425"
     x2="213.19363"
     y2="176.30948" />
  <line
     class="arc2"
     id="link58_@2_59"
     x1="202.49045"
     y1="176.20425"
     x2="199.50186"
     y2="170.47705" />
  <line
     class="arc3"
     id="link58_@3_42"
     x1="202.49045"
     y1="176.20425"
     x2="198.81552"
     y2="186.8537" />
  <line
     class="arc1"
     id="link42_@1_47"
     x1="198.81552"
     y1="186.8537"
     x2="213.55869"
     y2="191.98624" />
  <line
     class="arc2"
     id="link42_@2_41"
     x1="198.81552"
     y1="186.8537"
     x2="192.15219"
     y2="191.77579" />
  <line
     class="arc1"
     id="link59_@1_60"
     x1="199.50186"
     y1="170.47705"
     x2="207.21658"
     y2="164.85492" />
  <line
     class="arc1"
     id="link41_@1_120"
     x1="192.15219"
     y1="191.77579"
     x2="193.56851"
     y2="206.75253" />
  <line
     class="arc2"
     id="link52_@2_53"
     x1="213.19363"
     y1="176.30948"
     x2="220.90836"
     y2="170.68744" />
  <line
     class="arc3"
     id="link52_@3_47"
     x1="213.19363"
     y1="176.30948"
     x2="213.55869"
     y2="191.98624" />
  <line
     class="arc2"
     id="link47_@2_46"
     x1="213.55869"
     y1="191.98624"
     x2="221.6384"
     y2="202.04083" />
  <line
     class="arc1"
     id="link53_@1_54"
     x1="220.90836"
     y1="170.68744"
     x2="217.91983"
     y2="164.96011" />
  <line
     class="arc2"
     id="link60_@2_54"
     x1="207.21658"
     y1="164.85492"
     x2="217.91983"
     y2="164.96011" />
  <line
     class="arc2"
     id="link120_@2_122"
     x1="193.56851"
     y1="206.75253"
     x2="201.64822"
     y2="216.80713" />
  <line
     class="arc1"
     id="link46_@1_45"
     x1="221.6384"
     y1="202.04083"
     x2="223.05472"
     y2="217.01758" />
  <line
     class="arc1"
     id="link122_@1_40"
     x1="201.64822"
     y1="216.80713"
     x2="216.39139"
     y2="221.9397" />
  <line
     class="arc2"
     id="link45_@2_40"
     x1="223.05472"
     y1="217.01758"
     x2="216.39139"
     y2="221.9397" />
</svg>
