<?xml version="1.0" encoding="UTF-8" standalone="no"?>
<!-- Created with Jerboa -->

<svg
	width="1337"
	height="648" >
	<style id="style">
		.arc0 {
			fill:none;
			fill-rule:evenodd;
			stroke:black;
			stroke-width:4;
			stroke-linecap:round;
			stroke-linejoin:round;
			stroke-opacity:1;
		}
		.arc1 {
			fill:none;
			fill-rule:evenodd;
			stroke:red;
			stroke-width:4;
			stroke-linecap:round;
			stroke-linejoin:round;
			stroke-opacity:1;
		}
		.arc2 {
			fill:none;
			fill-rule:evenodd;
			stroke:blue;
			stroke-width:4;
			stroke-linecap:round;
			stroke-linejoin:round;
			stroke-opacity:1;
		}
		.arc3 {
			fill:none;
			fill-rule:evenodd;
			stroke:green;
			stroke-width:4;
			stroke-linecap:round;
			stroke-linejoin:round;
			stroke-opacity:1;
		}
		.topological-dart {
			fill:#000000;
			stroke:#000000;
			stroke-width:0;
			stroke-linecap:round;
			stroke-linejoin:round;
			stroke-dasharray:none;
			paint-order:markers fill stroke;
		}
	</style>
<polygon
	points="668.3583,483.91327 668.3583,255.35617 676.7757,245.8341 869.1921,256.7248 877.6096,267.19974 877.6096,495.75684 869.1921,505.27887 676.7757,494.38818 "
	id="face_22_23_18_17_16_15_20_21"
	style="fill:rgb(192,192,192);stroke:none"
	opacity="1.0" />
<line
	class="arc1"
	id="link21_@1_20"
	x1="668.3583"
	y1="483.91327"
	x2="676.7757"
	y2="494.38818" />
<line
	class="arc2"
	id="link21_@2_26"
	x1="668.3583"
	y1="483.91327"
	x2="654.4744"
	y2="484.17047" />
<line
	class="arc0"
	id="link21_@0_22"
	x1="668.3583"
	y1="483.91327"
	x2="668.3583"
	y2="255.35617" />
<polygon
	points="654.4744,484.17047 654.4744,255.61337 649.00806,246.34854 519.8427,262.8805 512.272,278.49274 512.272,497.0514 519.8427,511.43457 649.00806,494.90262 "
	id="face_27_28_33_32_31_30_25_26"
	style="fill:rgb(192,192,192);stroke:none"
	opacity="1.0" />
<line
	class="arc1"
	id="link26_@1_25"
	x1="654.4744"
	y1="484.17047"
	x2="649.00806"
	y2="494.90262" />
<line
	class="arc0"
	id="link26_@0_27"
	x1="654.4744"
	y1="484.17047"
	x2="654.4744"
	y2="255.61337" />
<line
	class="arc2"
	id="link20_@2_0"
	x1="676.7757"
	y1="494.38818"
	x2="671.3094"
	y2="505.12033" />
<line
	class="arc0"
	id="link20_@0_15"
	x1="676.7757"
	y1="494.38818"
	x2="869.1921"
	y2="505.27887" />
<line
	class="arc2"
	id="link25_@2_1"
	x1="649.00806"
	y1="494.90262"
	x2="657.42554"
	y2="505.37753" />
<line
	class="arc0"
	id="link25_@0_30"
	x1="649.00806"
	y1="494.90262"
	x2="519.8427"
	y2="511.43457" />
<polygon
	points="671.3094,505.12033 863.7257,516.011 866.6768,517.22107 750.1377,534.4677 738.3583,539.84326 627.00854,535.62695 614.3824,534.9123 524.8982,527.7615 524.05145,521.67126 657.42554,505.37753 "
	id="face_7_6_5_4_9_8_3_2_1_0"
	style="fill:rgb(192,192,192);stroke:none"
	opacity="1.0" />
<line
	class="arc1"
	id="link0_@1_1"
	x1="671.3094"
	y1="505.12033"
	x2="657.42554"
	y2="505.37753" />
<line
	class="arc0"
	id="link0_@0_7"
	x1="671.3094"
	y1="505.12033"
	x2="863.7257"
	y2="516.011" />
<line
	class="arc0"
	id="link1_@0_2"
	x1="657.42554"
	y1="505.37753"
	x2="524.05145"
	y2="521.67126" />
<line
	class="arc1"
	id="link22_@1_23"
	x1="668.3583"
	y1="255.35617"
	x2="676.7757"
	y2="245.8341" />
<line
	class="arc2"
	id="link22_@2_27"
	x1="668.3583"
	y1="255.35617"
	x2="654.4744"
	y2="255.61337" />
<line
	class="arc1"
	id="link27_@1_28"
	x1="654.4744"
	y1="255.61337"
	x2="649.00806"
	y2="246.34854" />
<line
	class="arc2"
	id="link23_@2_24"
	x1="676.7757"
	y1="245.8341"
	x2="671.3094"
	y2="236.56921" />
<line
	class="arc0"
	id="link23_@0_18"
	x1="676.7757"
	y1="245.8341"
	x2="869.1921"
	y2="256.7248" />
<line
	class="arc2"
	id="link28_@2_29"
	x1="649.00806"
	y1="246.34854"
	x2="657.42554"
	y2="236.82645" />
<line
	class="arc0"
	id="link28_@0_33"
	x1="649.00806"
	y1="246.34854"
	x2="519.8427"
	y2="262.8805" />
<polygon
	points="671.3094,236.56921 863.7257,247.4599 866.6768,248.66998 750.1377,265.9166 738.3583,261.2937 627.00854,257.07736 614.3824,256.36276 524.8982,249.21194 524.05145,253.12021 657.42554,236.82645 "
	id="face_19_14_59_54_49_44_39_34_29_24"
	style="fill:rgb(192,192,192);stroke:none"
	opacity="1.0" />
<line
	class="arc1"
	id="link24_@1_29"
	x1="671.3094"
	y1="236.56921"
	x2="657.42554"
	y2="236.82645" />
<line
	class="arc3"
	id="link24_@3_102"
	x1="671.3094"
	y1="236.56921"
	x2="671.8667"
	y2="220.97864" />
<line
	class="arc0"
	id="link24_@0_19"
	x1="671.3094"
	y1="236.56921"
	x2="863.7257"
	y2="247.4599" />
<polygon
	points="670.03033,208.58453 675.9497,79.74286 679.874,74.34131 766.9415,79.26929 774.80164,85.33783 864.13025,219.5705 860.2058,224.97202 677.89044,214.65305 "
	id="face_105_118_64_111_110_109_103_104"
	style="fill:rgb(192,192,192);stroke:none"
	opacity="1.0" />
<line
	class="arc1"
	id="link104_@1_103"
	x1="670.03033"
	y1="208.58453"
	x2="677.89044"
	y2="214.65305" />
<line
	class="arc2"
	id="link104_@2_98"
	x1="670.03033"
	y1="208.58453"
	x2="656.1465"
	y2="208.84174" />
<line
	class="arc0"
	id="link104_@0_105"
	x1="670.03033"
	y1="208.58453"
	x2="675.9497"
	y2="79.74286" />
<line
	class="arc3"
	id="link29_@3_96"
	x1="657.42554"
	y1="236.82645"
	x2="657.9829"
	y2="221.23587" />
<line
	class="arc0"
	id="link29_@0_34"
	x1="657.42554"
	y1="236.82645"
	x2="524.05145"
	y2="253.12021" />
<line
	class="arc2"
	id="link103_@2_102"
	x1="677.89044"
	y1="214.65305"
	x2="671.8667"
	y2="220.97864" />
<line
	class="arc0"
	id="link103_@0_109"
	x1="677.89044"
	y1="214.65305"
	x2="860.2058"
	y2="224.97202" />
<polygon
	points="656.1465,208.84174 670.3962,79.8457 668.76697,74.547 610.54114,82.04016 604.51746,88.36597 525.8878,225.52042 527.517,230.81906 650.12274,215.16745 "
	id="face_99_112_106_93_92_91_97_98"
	style="fill:rgb(192,192,192);stroke:none"
	opacity="1.0" />
<line
	class="arc1"
	id="link98_@1_97"
	x1="656.1465"
	y1="208.84174"
	x2="650.12274"
	y2="215.16745" />
<line
	class="arc0"
	id="link98_@0_99"
	x1="656.1465"
	y1="208.84174"
	x2="670.3962"
	y2="79.8457" />
<polygon
	points="671.8667,220.97864 859.2326,231.5835 862.18365,232.79355 748.9243,249.59995 739.2492,250.0954 626.2161,245.78381 617.79865,245.30737 526.631,238.06128 527.8886,237.08945 657.9829,221.23587 "
	id="face_108_114_60_66_72_78_84_90_96_102"
	style="fill:rgb(192,192,192);stroke:none"
	opacity="1.0" />
<line
	class="arc1"
	id="link102_@1_96"
	x1="671.8667"
	y1="220.97864"
	x2="657.9829"
	y2="221.23587" />
<line
	class="arc0"
	id="link102_@0_108"
	x1="671.8667"
	y1="220.97864"
	x2="859.2326"
	y2="231.5835" />
<line
	class="arc2"
	id="link96_@2_97"
	x1="657.9829"
	y1="221.23587"
	x2="650.12274"
	y2="215.16745" />
<line
	class="arc0"
	id="link96_@0_90"
	x1="657.9829"
	y1="221.23587"
	x2="527.8886"
	y2="237.08945" />
<line
	class="arc0"
	id="link97_@0_91"
	x1="650.12274"
	y1="215.16745"
	x2="527.517"
	y2="230.81906" />
<line
	class="arc1"
	id="link15_@1_16"
	x1="869.1921"
	y1="505.27887"
	x2="877.6096"
	y2="495.75684" />
<line
	class="arc2"
	id="link15_@2_7"
	x1="869.1921"
	y1="505.27887"
	x2="863.7257"
	y2="516.011" />
<line
	class="arc2"
	id="link16_@2_11"
	x1="877.6096"
	y1="495.75684"
	x2="880.56067"
	y2="496.96686" />
<line
	class="arc0"
	id="link16_@0_17"
	x1="877.6096"
	y1="495.75684"
	x2="877.6096"
	y2="267.19974" />
<line
	class="arc1"
	id="link7_@1_6"
	x1="863.7257"
	y1="516.011"
	x2="866.6768"
	y2="517.22107" />
<line
	class="arc1"
	id="link105_@1_118"
	x1="675.9497"
	y1="79.74286"
	x2="679.874"
	y2="74.34131" />
<line
	class="arc2"
	id="link105_@2_99"
	x1="675.9497"
	y1="79.74286"
	x2="670.3962"
	y2="79.8457" />
<line
	class="arc1"
	id="link99_@1_112"
	x1="670.3962"
	y1="79.8457"
	x2="668.76697"
	y2="74.547" />
<polygon
	points="880.56067,496.96686 880.56067,268.40976 875.09424,259.1449 754.34644,276.1533 750.98444,292.00375 750.98444,510.56238 754.34644,524.7074 875.09424,507.69897 "
	id="face_12_13_58_57_56_55_10_11"
	style="fill:rgb(192,192,192);stroke:none"
	opacity="1.0" />
<line
	class="arc1"
	id="link11_@1_10"
	x1="880.56067"
	y1="496.96686"
	x2="875.09424"
	y2="507.69897" />
<line
	class="arc0"
	id="link11_@0_12"
	x1="880.56067"
	y1="496.96686"
	x2="880.56067"
	y2="268.40976" />
<line
	class="arc2"
	id="link6_@2_10"
	x1="866.6768"
	y1="517.22107"
	x2="875.09424"
	y2="507.69897" />
<line
	class="arc0"
	id="link6_@0_5"
	x1="866.6768"
	y1="517.22107"
	x2="750.1377"
	y2="534.4677" />
<line
	class="arc1"
	id="link18_@1_17"
	x1="869.1921"
	y1="256.7248"
	x2="877.6096"
	y2="267.19974" />
<line
	class="arc2"
	id="link18_@2_19"
	x1="869.1921"
	y1="256.7248"
	x2="863.7257"
	y2="247.4599" />
<line
	class="arc2"
	id="link118_@2_119"
	x1="679.874"
	y1="74.34131"
	x2="678.2448"
	y2="69.042786" />
<line
	class="arc0"
	id="link118_@0_64"
	x1="679.874"
	y1="74.34131"
	x2="766.9415"
	y2="79.26929" />
<line
	class="arc2"
	id="link112_@2_113"
	x1="668.76697"
	y1="74.547"
	x2="672.6913"
	y2="69.14563" />
<line
	class="arc0"
	id="link112_@0_106"
	x1="668.76697"
	y1="74.547"
	x2="610.54114"
	y2="82.04016" />
<line
	class="arc2"
	id="link17_@2_12"
	x1="877.6096"
	y1="267.19974"
	x2="880.56067"
	y2="268.40976" />
<line
	class="arc0"
	id="link10_@0_55"
	x1="875.09424"
	y1="507.69897"
	x2="754.34644"
	y2="524.7074" />
<line
	class="arc1"
	id="link109_@1_110"
	x1="860.2058"
	y1="224.97202"
	x2="864.13025"
	y2="219.5705" />
<line
	class="arc2"
	id="link109_@2_108"
	x1="860.2058"
	y1="224.97202"
	x2="859.2326"
	y2="231.5835" />
<line
	class="arc1"
	id="link19_@1_14"
	x1="863.7257"
	y1="247.4599"
	x2="866.6768"
	y2="248.66998" />
<line
	class="arc3"
	id="link19_@3_108"
	x1="863.7257"
	y1="247.4599"
	x2="859.2326"
	y2="231.5835" />
<polygon
	points="678.2448,69.042786 760.26184,73.684875 761.4423,74.168884 711.5468,81.50769 707.67676,81.70587 658.9282,79.78113 655.5612,79.590576 615.5588,76.492065 616.0618,76.10333 672.6913,69.14563 "
	id="face_65_71_77_83_89_95_101_107_113_119"
	style="fill:rgb(192,192,192);stroke:none"
	opacity="1.0" />
<line
	class="arc1"
	id="link119_@1_113"
	x1="678.2448"
	y1="69.042786"
	x2="672.6913"
	y2="69.14563" />
<line
	class="arc0"
	id="link119_@0_65"
	x1="678.2448"
	y1="69.042786"
	x2="760.26184"
	y2="73.684875" />
<line
	class="arc0"
	id="link113_@0_107"
	x1="672.6913"
	y1="69.14563"
	x2="616.0618"
	y2="76.10333" />
<line
	class="arc1"
	id="link108_@1_114"
	x1="859.2326"
	y1="231.5835"
	x2="862.18365"
	y2="232.79355" />
<line
	class="arc2"
	id="link110_@2_116"
	x1="864.13025"
	y1="219.5705"
	x2="867.0813"
	y2="220.78058" />
<line
	class="arc0"
	id="link110_@0_111"
	x1="864.13025"
	y1="219.5705"
	x2="774.80164"
	y2="85.33783" />
<line
	class="arc1"
	id="link12_@1_13"
	x1="880.56067"
	y1="268.40976"
	x2="875.09424"
	y2="259.1449" />
<line
	class="arc2"
	id="link14_@2_13"
	x1="866.6768"
	y1="248.66998"
	x2="875.09424"
	y2="259.1449" />
<line
	class="arc3"
	id="link14_@3_114"
	x1="866.6768"
	y1="248.66998"
	x2="862.18365"
	y2="232.79355" />
<line
	class="arc0"
	id="link14_@0_59"
	x1="866.6768"
	y1="248.66998"
	x2="750.1377"
	y2="265.9166" />
<line
	class="arc2"
	id="link114_@2_115"
	x1="862.18365"
	y1="232.79355"
	x2="866.1081"
	y2="227.39212" />
<line
	class="arc0"
	id="link114_@0_60"
	x1="862.18365"
	y1="232.79355"
	x2="748.9243"
	y2="249.59995" />
<polygon
	points="867.0813,220.78058 775.9821,85.82184 769.3025,80.237305 714.4436,87.92102 713.4704,94.53265 745.2401,237.9357 751.91986,243.52017 866.1081,227.39212 "
	id="face_117_70_76_63_62_61_115_116"
	style="fill:rgb(192,192,192);stroke:none"
	opacity="1.0" />
<line
	class="arc1"
	id="link116_@1_115"
	x1="867.0813"
	y1="220.78058"
	x2="866.1081"
	y2="227.39212" />
<line
	class="arc0"
	id="link116_@0_117"
	x1="867.0813"
	y1="220.78058"
	x2="775.9821"
	y2="85.82184" />
<line
	class="arc0"
	id="link13_@0_58"
	x1="875.09424"
	y1="259.1449"
	x2="754.34644"
	y2="276.1533" />
<line
	class="arc0"
	id="link115_@0_61"
	x1="866.1081"
	y1="227.39212"
	x2="751.91986"
	y2="243.52017" />
<line
	class="arc1"
	id="link30_@1_31"
	x1="519.8427"
	y1="511.43457"
	x2="512.272"
	y2="497.0514" />
<line
	class="arc2"
	id="link30_@2_2"
	x1="519.8427"
	y1="511.43457"
	x2="524.05145"
	y2="521.67126" />
<line
	class="arc1"
	id="link2_@1_3"
	x1="524.05145"
	y1="521.67126"
	x2="524.8982"
	y2="527.7615" />
<line
	class="arc2"
	id="link31_@2_36"
	x1="512.272"
	y1="497.0514"
	x2="508.90997"
	y2="492.90485" />
<line
	class="arc0"
	id="link31_@0_32"
	x1="512.272"
	y1="497.0514"
	x2="512.272"
	y2="278.49274" />
<line
	class="arc1"
	id="link64_@1_111"
	x1="766.9415"
	y1="79.26929"
	x2="774.80164"
	y2="85.33783" />
<line
	class="arc2"
	id="link64_@2_65"
	x1="766.9415"
	y1="79.26929"
	x2="760.26184"
	y2="73.684875" />
<line
	class="arc2"
	id="link111_@2_117"
	x1="774.80164"
	y1="85.33783"
	x2="775.9821"
	y2="85.82184" />
<line
	class="arc2"
	id="link3_@2_35"
	x1="524.8982"
	y1="527.7615"
	x2="521.5362"
	y2="523.615" />
<line
	class="arc0"
	id="link3_@0_8"
	x1="524.8982"
	y1="527.7615"
	x2="614.3824"
	y2="534.9123" />
<line
	class="arc1"
	id="link65_@1_71"
	x1="760.26184"
	y1="73.684875"
	x2="761.4423"
	y2="74.168884" />
<line
	class="arc1"
	id="link117_@1_70"
	x1="775.9821"
	y1="85.82184"
	x2="769.3025"
	y2="80.237305" />
<polygon
	points="508.90997,492.90485 508.90997,284.3448 509.7567,280.43643 551.54767,382.08264 551.54767,402.0796 509.7567,498.99506 "
	id="face_37_124_125_123_122_36"
	style="fill:rgb(0,0,255);stroke:none"
	opacity="1.0" />
<line
	class="arc1"
	id="link36_@1_122"
	x1="508.90997"
	y1="492.90485"
	x2="509.7567"
	y2="498.99506" />
<line
	class="arc0"
	id="link36_@0_37"
	x1="508.90997"
	y1="492.90485"
	x2="508.90997"
	y2="284.3448" />
<line
	class="arc2"
	id="link70_@2_71"
	x1="769.3025"
	y1="80.237305"
	x2="761.4423"
	y2="74.168884" />
<line
	class="arc0"
	id="link70_@0_76"
	x1="769.3025"
	y1="80.237305"
	x2="714.4436"
	y2="87.92102" />
<line
	class="arc0"
	id="link71_@0_77"
	x1="761.4423"
	y1="74.168884"
	x2="711.5468"
	y2="81.50769" />
<line
	class="arc1"
	id="link33_@1_32"
	x1="519.8427"
	y1="262.8805"
	x2="512.272"
	y2="278.49274" />
<line
	class="arc2"
	id="link33_@2_34"
	x1="519.8427"
	y1="262.8805"
	x2="524.05145"
	y2="253.12021" />
<polygon
	points="521.5362,523.615 608.0693,529.5557 605.9649,514.4389 564.1739,412.79272 555.7565,412.3163 513.96545,509.23175 "
	id="face_40_134_135_121_120_35"
	style="fill:rgb(192,192,192);stroke:none"
	opacity="1.0" />
<line
	class="arc1"
	id="link35_@1_120"
	x1="521.5362"
	y1="523.615"
	x2="513.96545"
	y2="509.23175" />
<line
	class="arc0"
	id="link35_@0_40"
	x1="521.5362"
	y1="523.615"
	x2="608.0693"
	y2="529.5557" />
<line
	class="arc1"
	id="link91_@1_92"
	x1="527.517"
	y1="230.81906"
	x2="525.8878"
	y2="225.52042" />
<line
	class="arc2"
	id="link91_@2_90"
	x1="527.517"
	y1="230.81906"
	x2="527.8886"
	y2="237.08945" />
<line
	class="arc1"
	id="link34_@1_39"
	x1="524.05145"
	y1="253.12021"
	x2="524.8982"
	y2="249.21194" />
<line
	class="arc3"
	id="link34_@3_90"
	x1="524.05145"
	y1="253.12021"
	x2="527.8886"
	y2="237.08945" />
<line
	class="arc1"
	id="link90_@1_84"
	x1="527.8886"
	y1="237.08945"
	x2="526.631"
	y2="238.06128" />
<line
	class="arc2"
	id="link32_@2_37"
	x1="512.272"
	y1="278.49274"
	x2="508.90997"
	y2="284.3448" />
<line
	class="arc2"
	id="link122_@2_120"
	x1="509.7567"
	y1="498.99506"
	x2="513.96545"
	y2="509.23175" />
<line
	class="arc0"
	id="link122_@0_123"
	x1="509.7567"
	y1="498.99506"
	x2="551.54767"
	y2="402.0796" />
<line
	class="arc2"
	id="link92_@2_86"
	x1="525.8878"
	y1="225.52042"
	x2="524.63025"
	y2="226.49225" />
<line
	class="arc0"
	id="link92_@0_93"
	x1="525.8878"
	y1="225.52042"
	x2="604.51746"
	y2="88.36597" />
<line
	class="arc0"
	id="link120_@0_121"
	x1="513.96545"
	y1="509.23175"
	x2="555.7565"
	y2="412.3163" />
<line
	class="arc1"
	id="link37_@1_124"
	x1="508.90997"
	y1="284.3448"
	x2="509.7567"
	y2="280.43643" />
<line
	class="arc2"
	id="link39_@2_38"
	x1="524.8982"
	y1="249.21194"
	x2="521.5362"
	y2="255.0639" />
<line
	class="arc3"
	id="link39_@3_84"
	x1="524.8982"
	y1="249.21194"
	x2="526.631"
	y2="238.06128" />
<line
	class="arc0"
	id="link39_@0_44"
	x1="524.8982"
	y1="249.21194"
	x2="614.3824"
	y2="256.36276" />
<line
	class="arc2"
	id="link84_@2_85"
	x1="526.631"
	y1="238.06128"
	x2="525.0018"
	y2="232.76276" />
<line
	class="arc0"
	id="link84_@0_78"
	x1="526.631"
	y1="238.06128"
	x2="617.79865"
	y2="245.30737" />
<line
	class="arc1"
	id="link106_@1_93"
	x1="610.54114"
	y1="82.04016"
	x2="604.51746"
	y2="88.36597" />
<line
	class="arc2"
	id="link106_@2_107"
	x1="610.54114"
	y1="82.04016"
	x2="616.0618"
	y2="76.10333" />
<line
	class="arc1"
	id="link107_@1_101"
	x1="616.0618"
	y1="76.10333"
	x2="615.5588"
	y2="76.492065" />
<polygon
	points="524.63025,226.49225 604.0144,88.7547 609.53503,82.81763 652.5658,85.67041 652.9373,91.94092 620.4225,232.95712 614.90186,238.8941 525.0018,232.76276 "
	id="face_87_100_94_81_80_79_85_86"
	style="fill:rgb(192,192,192);stroke:none"
	opacity="1.0" />
<line
	class="arc1"
	id="link86_@1_85"
	x1="524.63025"
	y1="226.49225"
	x2="525.0018"
	y2="232.76276" />
<line
	class="arc0"
	id="link86_@0_87"
	x1="524.63025"
	y1="226.49225"
	x2="604.0144"
	y2="88.7547" />
<line
	class="arc2"
	id="link93_@2_87"
	x1="604.51746"
	y1="88.36597"
	x2="604.0144"
	y2="88.7547" />
<line
	class="arc0"
	id="link85_@0_79"
	x1="525.0018"
	y1="232.76276"
	x2="614.90186"
	y2="238.8941" />
<line
	class="arc2"
	id="link101_@2_100"
	x1="615.5588"
	y1="76.492065"
	x2="609.53503"
	y2="82.81763" />
<line
	class="arc0"
	id="link101_@0_95"
	x1="615.5588"
	y1="76.492065"
	x2="655.5612"
	y2="79.590576" />
<polygon
	points="521.5362,255.0639 608.0693,261.00464 605.9649,275.8833 564.1739,372.7988 555.7565,372.32236 513.96545,270.67615 "
	id="face_43_128_129_127_126_38"
	style="fill:rgb(192,192,192);stroke:none"
	opacity="1.0" />
<line
	class="arc1"
	id="link38_@1_126"
	x1="521.5362"
	y1="255.0639"
	x2="513.96545"
	y2="270.67615" />
<line
	class="arc0"
	id="link38_@0_43"
	x1="521.5362"
	y1="255.0639"
	x2="608.0693"
	y2="261.00464" />
<line
	class="arc1"
	id="link87_@1_100"
	x1="604.0144"
	y1="88.7547"
	x2="609.53503"
	y2="82.81763" />
<line
	class="arc0"
	id="link100_@0_94"
	x1="609.53503"
	y1="82.81763"
	x2="652.5658"
	y2="85.67041" />
<line
	class="arc2"
	id="link124_@2_126"
	x1="509.7567"
	y1="280.43643"
	x2="513.96545"
	y2="270.67615" />
<line
	class="arc0"
	id="link124_@0_125"
	x1="509.7567"
	y1="280.43643"
	x2="551.54767"
	y2="382.08264" />
<line
	class="arc0"
	id="link126_@0_127"
	x1="513.96545"
	y1="270.67615"
	x2="555.7565"
	y2="372.32236" />
<line
	class="arc1"
	id="link123_@1_125"
	x1="551.54767"
	y1="402.0796"
	x2="551.54767"
	y2="382.08264" />
<line
	class="arc2"
	id="link123_@2_121"
	x1="551.54767"
	y1="402.0796"
	x2="555.7565"
	y2="412.3163" />
<line
	class="arc1"
	id="link121_@1_135"
	x1="555.7565"
	y1="412.3163"
	x2="564.1739"
	y2="412.79272" />
<line
	class="arc2"
	id="link125_@2_127"
	x1="551.54767"
	y1="382.08264"
	x2="555.7565"
	y2="372.32236" />
<line
	class="arc1"
	id="link127_@1_129"
	x1="555.7565"
	y1="372.32236"
	x2="564.1739"
	y2="372.7988" />
<line
	class="arc2"
	id="link135_@2_133"
	x1="564.1739"
	y1="412.79272"
	x2="568.3826"
	y2="403.0324" />
<line
	class="arc0"
	id="link135_@0_134"
	x1="564.1739"
	y1="412.79272"
	x2="605.9649"
	y2="514.4389" />
<line
	class="arc2"
	id="link129_@2_131"
	x1="564.1739"
	y1="372.7988"
	x2="568.3826"
	y2="383.0355" />
<line
	class="arc0"
	id="link129_@0_128"
	x1="564.1739"
	y1="372.7988"
	x2="605.9649"
	y2="275.8833" />
<polygon
	points="568.3826,403.0324 610.17365,504.6786 618.5911,495.15656 618.5911,296.5949 610.17365,286.12 568.3826,383.0355 "
	id="face_132_41_42_130_131_133"
	style="fill:rgb(192,192,192);stroke:none"
	opacity="1.0" />
<line
	class="arc1"
	id="link133_@1_131"
	x1="568.3826"
	y1="403.0324"
	x2="568.3826"
	y2="383.0355" />
<line
	class="arc0"
	id="link133_@0_132"
	x1="568.3826"
	y1="403.0324"
	x2="610.17365"
	y2="504.6786" />
<line
	class="arc0"
	id="link131_@0_130"
	x1="568.3826"
	y1="383.0355"
	x2="610.17365"
	y2="286.12" />
<line
	class="arc1"
	id="link95_@1_89"
	x1="655.5612"
	y1="79.590576"
	x2="658.9282"
	y2="79.78113" />
<line
	class="arc2"
	id="link95_@2_94"
	x1="655.5612"
	y1="79.590576"
	x2="652.5658"
	y2="85.67041" />
<line
	class="arc1"
	id="link94_@1_81"
	x1="652.5658"
	y1="85.67041"
	x2="652.9373"
	y2="91.94092" />
<line
	class="arc2"
	id="link89_@2_88"
	x1="658.9282"
	y1="79.78113"
	x2="659.2998"
	y2="86.05151" />
<line
	class="arc0"
	id="link89_@0_83"
	x1="658.9282"
	y1="79.78113"
	x2="707.67676"
	y2="81.70587" />
<line
	class="arc2"
	id="link81_@2_75"
	x1="652.9373"
	y1="91.94092"
	x2="656.3043"
	y2="92.13147" />
<line
	class="arc0"
	id="link81_@0_80"
	x1="652.9373"
	y1="91.94092"
	x2="620.4225"
	y2="232.95712" />
<polygon
	points="659.2998,86.05151 706.7035,88.31738 709.60034,94.730774 735.565,238.43112 732.5696,244.51105 631.73676,239.84695 628.83997,233.4335 656.3043,92.13147 "
	id="face_82_69_68_67_73_74_75_88"
	style="fill:rgb(192,192,192);stroke:none"
	opacity="1.0" />
<line
	class="arc1"
	id="link88_@1_75"
	x1="659.2998"
	y1="86.05151"
	x2="656.3043"
	y2="92.13147" />
<line
	class="arc0"
	id="link88_@0_82"
	x1="659.2998"
	y1="86.05151"
	x2="706.7035"
	y2="88.31738" />
<line
	class="arc0"
	id="link75_@0_74"
	x1="656.3043"
	y1="92.13147"
	x2="628.83997"
	y2="233.4335" />
<line
	class="arc1"
	id="link40_@1_134"
	x1="608.0693"
	y1="529.5557"
	x2="605.9649"
	y2="514.4389" />
<line
	class="arc2"
	id="link40_@2_8"
	x1="608.0693"
	y1="529.5557"
	x2="614.3824"
	y2="534.9123" />
<line
	class="arc2"
	id="link134_@2_132"
	x1="605.9649"
	y1="514.4389"
	x2="610.17365"
	y2="504.6786" />
<line
	class="arc1"
	id="link8_@1_9"
	x1="614.3824"
	y1="534.9123"
	x2="627.00854"
	y2="535.62695" />
<line
	class="arc1"
	id="link132_@1_41"
	x1="610.17365"
	y1="504.6786"
	x2="618.5911"
	y2="495.15656" />
<line
	class="arc2"
	id="link41_@2_46"
	x1="618.5911"
	y1="495.15656"
	x2="622.79987"
	y2="495.39478" />
<line
	class="arc0"
	id="link41_@0_42"
	x1="618.5911"
	y1="495.15656"
	x2="618.5911"
	y2="296.5949" />
<line
	class="arc2"
	id="link9_@2_45"
	x1="627.00854"
	y1="535.62695"
	x2="633.32166"
	y2="530.985" />
<line
	class="arc0"
	id="link9_@0_4"
	x1="627.00854"
	y1="535.62695"
	x2="738.3583"
	y2="539.84326" />
<line
	class="arc1"
	id="link77_@1_83"
	x1="711.5468"
	y1="81.50769"
	x2="707.67676"
	y2="81.70587" />
<line
	class="arc2"
	id="link77_@2_76"
	x1="711.5468"
	y1="81.50769"
	x2="714.4436"
	y2="87.92102" />
<polygon
	points="622.79987,495.39478 622.79987,296.8331 631.2173,287.31104 673.0083,388.95724 673.0083,408.9542 631.2173,505.8697 "
	id="face_47_146_147_149_148_46"
	style="fill:rgb(192,192,192);stroke:none"
	opacity="1.0" />
<line
	class="arc1"
	id="link46_@1_148"
	x1="622.79987"
	y1="495.39478"
	x2="631.2173"
	y2="505.8697" />
<line
	class="arc0"
	id="link46_@0_47"
	x1="622.79987"
	y1="495.39478"
	x2="622.79987"
	y2="296.8331" />
<line
	class="arc2"
	id="link83_@2_82"
	x1="707.67676"
	y1="81.70587"
	x2="706.7035"
	y2="88.31738" />
<polygon
	points="633.32166,530.985 730.78754,535.4585 727.4255,521.31354 685.6345,419.66736 677.21704,419.19092 635.426,516.1064 "
	id="face_50_136_137_151_150_45"
	style="fill:rgb(192,192,192);stroke:none"
	opacity="1.0" />
<line
	class="arc1"
	id="link45_@1_150"
	x1="633.32166"
	y1="530.985"
	x2="635.426"
	y2="516.1064" />
<line
	class="arc0"
	id="link45_@0_50"
	x1="633.32166"
	y1="530.985"
	x2="730.78754"
	y2="535.4585" />
<line
	class="arc1"
	id="link76_@1_63"
	x1="714.4436"
	y1="87.92102"
	x2="713.4704"
	y2="94.53265" />
<line
	class="arc2"
	id="link148_@2_150"
	x1="631.2173"
	y1="505.8697"
	x2="635.426"
	y2="516.1064" />
<line
	class="arc0"
	id="link148_@0_149"
	x1="631.2173"
	y1="505.8697"
	x2="673.0083"
	y2="408.9542" />
<line
	class="arc0"
	id="link150_@0_151"
	x1="635.426"
	y1="516.1064"
	x2="677.21704"
	y2="419.19092" />
<line
	class="arc1"
	id="link82_@1_69"
	x1="706.7035"
	y1="88.31738"
	x2="709.60034"
	y2="94.730774" />
<line
	class="arc1"
	id="link128_@1_43"
	x1="605.9649"
	y1="275.8833"
	x2="608.0693"
	y2="261.00464" />
<line
	class="arc2"
	id="link128_@2_130"
	x1="605.9649"
	y1="275.8833"
	x2="610.17365"
	y2="286.12" />
<line
	class="arc2"
	id="link63_@2_69"
	x1="713.4704"
	y1="94.53265"
	x2="709.60034"
	y2="94.730774" />
<line
	class="arc0"
	id="link63_@0_62"
	x1="713.4704"
	y1="94.53265"
	x2="745.2401"
	y2="237.9357" />
<line
	class="arc1"
	id="link130_@1_42"
	x1="610.17365"
	y1="286.12"
	x2="618.5911"
	y2="296.5949" />
<line
	class="arc2"
	id="link43_@2_44"
	x1="608.0693"
	y1="261.00464"
	x2="614.3824"
	y2="256.36276" />
<line
	class="arc1"
	id="link79_@1_80"
	x1="614.90186"
	y1="238.8941"
	x2="620.4225"
	y2="232.95712" />
<line
	class="arc2"
	id="link79_@2_78"
	x1="614.90186"
	y1="238.8941"
	x2="617.79865"
	y2="245.30737" />
<line
	class="arc0"
	id="link69_@0_68"
	x1="709.60034"
	y1="94.730774"
	x2="735.565"
	y2="238.43112" />
<line
	class="arc2"
	id="link80_@2_74"
	x1="620.4225"
	y1="232.95712"
	x2="628.83997"
	y2="233.4335" />
<line
	class="arc2"
	id="link42_@2_47"
	x1="618.5911"
	y1="296.5949"
	x2="622.79987"
	y2="296.8331" />
<line
	class="arc1"
	id="link44_@1_49"
	x1="614.3824"
	y1="256.36276"
	x2="627.00854"
	y2="257.07736" />
<line
	class="arc3"
	id="link44_@3_78"
	x1="614.3824"
	y1="256.36276"
	x2="617.79865"
	y2="245.30737" />
<line
	class="arc1"
	id="link78_@1_72"
	x1="617.79865"
	y1="245.30737"
	x2="626.2161"
	y2="245.78381" />
<line
	class="arc1"
	id="link47_@1_146"
	x1="622.79987"
	y1="296.8331"
	x2="631.2173"
	y2="287.31104" />
<line
	class="arc1"
	id="link74_@1_73"
	x1="628.83997"
	y1="233.4335"
	x2="631.73676"
	y2="239.84695" />
<line
	class="arc2"
	id="link72_@2_73"
	x1="626.2161"
	y1="245.78381"
	x2="631.73676"
	y2="239.84695" />
<line
	class="arc3"
	id="link72_@3_49"
	x1="626.2161"
	y1="245.78381"
	x2="627.00854"
	y2="257.07736" />
<line
	class="arc0"
	id="link72_@0_66"
	x1="626.2161"
	y1="245.78381"
	x2="739.2492"
	y2="250.0954" />
<line
	class="arc0"
	id="link73_@0_67"
	x1="631.73676"
	y1="239.84695"
	x2="732.5696"
	y2="244.51105" />
<line
	class="arc2"
	id="link49_@2_48"
	x1="627.00854"
	y1="257.07736"
	x2="633.32166"
	y2="262.43393" />
<line
	class="arc0"
	id="link49_@0_54"
	x1="627.00854"
	y1="257.07736"
	x2="738.3583"
	y2="261.2937" />
<line
	class="arc2"
	id="link146_@2_144"
	x1="631.2173"
	y1="287.31104"
	x2="635.426"
	y2="277.55078" />
<line
	class="arc0"
	id="link146_@0_147"
	x1="631.2173"
	y1="287.31104"
	x2="673.0083"
	y2="388.95724" />
<polygon
	points="633.32166,262.43393 730.78754,266.90744 727.4255,282.75787 685.6345,379.6734 677.21704,379.197 635.426,277.55078 "
	id="face_53_142_143_145_144_48"
	style="fill:rgb(192,192,192);stroke:none"
	opacity="1.0" />
<line
	class="arc1"
	id="link48_@1_144"
	x1="633.32166"
	y1="262.43393"
	x2="635.426"
	y2="277.55078" />
<line
	class="arc0"
	id="link48_@0_53"
	x1="633.32166"
	y1="262.43393"
	x2="730.78754"
	y2="266.90744" />
<line
	class="arc0"
	id="link144_@0_145"
	x1="635.426"
	y1="277.55078"
	x2="677.21704"
	y2="379.197" />
<line
	class="arc1"
	id="link149_@1_147"
	x1="673.0083"
	y1="408.9542"
	x2="673.0083"
	y2="388.95724" />
<line
	class="arc2"
	id="link149_@2_151"
	x1="673.0083"
	y1="408.9542"
	x2="677.21704"
	y2="419.19092" />
<line
	class="arc2"
	id="link147_@2_145"
	x1="673.0083"
	y1="388.95724"
	x2="677.21704"
	y2="379.197" />
<line
	class="arc1"
	id="link151_@1_137"
	x1="677.21704"
	y1="419.19092"
	x2="685.6345"
	y2="419.66736" />
<line
	class="arc1"
	id="link5_@1_4"
	x1="750.1377"
	y1="534.4677"
	x2="738.3583"
	y2="539.84326" />
<line
	class="arc2"
	id="link5_@2_55"
	x1="750.1377"
	y1="534.4677"
	x2="754.34644"
	y2="524.7074" />
<line
	class="arc1"
	id="link145_@1_143"
	x1="677.21704"
	y1="379.197"
	x2="685.6345"
	y2="379.6734" />
<line
	class="arc2"
	id="link4_@2_50"
	x1="738.3583"
	y1="539.84326"
	x2="730.78754"
	y2="535.4585" />
<line
	class="arc1"
	id="link55_@1_56"
	x1="754.34644"
	y1="524.7074"
	x2="750.98444"
	y2="510.56238" />
<line
	class="arc2"
	id="link137_@2_139"
	x1="685.6345"
	y1="419.66736"
	x2="689.8432"
	y2="409.90704" />
<line
	class="arc0"
	id="link137_@0_136"
	x1="685.6345"
	y1="419.66736"
	x2="727.4255"
	y2="521.31354" />
<polygon
	points="689.8432,409.90704 731.6342,511.55322 743.4137,506.17767 743.4137,297.61755 731.6342,292.99457 689.8432,389.9101 "
	id="face_138_51_52_140_141_139"
	style="fill:rgb(0,0,255);stroke:none"
	opacity="1.0" />
<line
	class="arc1"
	id="link139_@1_141"
	x1="689.8432"
	y1="409.90704"
	x2="689.8432"
	y2="389.9101" />
<line
	class="arc0"
	id="link139_@0_138"
	x1="689.8432"
	y1="409.90704"
	x2="731.6342"
	y2="511.55322" />
<line
	class="arc2"
	id="link143_@2_141"
	x1="685.6345"
	y1="379.6734"
	x2="689.8432"
	y2="389.9101" />
<line
	class="arc0"
	id="link143_@0_142"
	x1="685.6345"
	y1="379.6734"
	x2="727.4255"
	y2="282.75787" />
<line
	class="arc0"
	id="link141_@0_140"
	x1="689.8432"
	y1="389.9101"
	x2="731.6342"
	y2="292.99457" />
<line
	class="arc1"
	id="link50_@1_136"
	x1="730.78754"
	y1="535.4585"
	x2="727.4255"
	y2="521.31354" />
<line
	class="arc2"
	id="link56_@2_51"
	x1="750.98444"
	y1="510.56238"
	x2="743.4137"
	y2="506.17767" />
<line
	class="arc0"
	id="link56_@0_57"
	x1="750.98444"
	y1="510.56238"
	x2="750.98444"
	y2="292.00375" />
<line
	class="arc1"
	id="link60_@1_66"
	x1="748.9243"
	y1="249.59995"
	x2="739.2492"
	y2="250.0954" />
<line
	class="arc2"
	id="link60_@2_61"
	x1="748.9243"
	y1="249.59995"
	x2="751.91986"
	y2="243.52017" />
<line
	class="arc3"
	id="link60_@3_59"
	x1="748.9243"
	y1="249.59995"
	x2="750.1377"
	y2="265.9166" />
<line
	class="arc1"
	id="link61_@1_62"
	x1="751.91986"
	y1="243.52017"
	x2="745.2401"
	y2="237.9357" />
<line
	class="arc1"
	id="link51_@1_138"
	x1="743.4137"
	y1="506.17767"
	x2="731.6342"
	y2="511.55322" />
<line
	class="arc0"
	id="link51_@0_52"
	x1="743.4137"
	y1="506.17767"
	x2="743.4137"
	y2="297.61755" />
<line
	class="arc2"
	id="link136_@2_138"
	x1="727.4255"
	y1="521.31354"
	x2="731.6342"
	y2="511.55322" />
<line
	class="arc1"
	id="link59_@1_54"
	x1="750.1377"
	y1="265.9166"
	x2="738.3583"
	y2="261.2937" />
<line
	class="arc2"
	id="link59_@2_58"
	x1="750.1377"
	y1="265.9166"
	x2="754.34644"
	y2="276.1533" />
<line
	class="arc1"
	id="link58_@1_57"
	x1="754.34644"
	y1="276.1533"
	x2="750.98444"
	y2="292.00375" />
<line
	class="arc2"
	id="link62_@2_68"
	x1="745.2401"
	y1="237.9357"
	x2="735.565"
	y2="238.43112" />
<line
	class="arc2"
	id="link66_@2_67"
	x1="739.2492"
	y1="250.0954"
	x2="732.5696"
	y2="244.51105" />
<line
	class="arc3"
	id="link66_@3_54"
	x1="739.2492"
	y1="250.0954"
	x2="738.3583"
	y2="261.2937" />
<line
	class="arc2"
	id="link54_@2_53"
	x1="738.3583"
	y1="261.2937"
	x2="730.78754"
	y2="266.90744" />
<line
	class="arc1"
	id="link67_@1_68"
	x1="732.5696"
	y1="244.51105"
	x2="735.565"
	y2="238.43112" />
<line
	class="arc2"
	id="link57_@2_52"
	x1="750.98444"
	y1="292.00375"
	x2="743.4137"
	y2="297.61755" />
<line
	class="arc1"
	id="link53_@1_142"
	x1="730.78754"
	y1="266.90744"
	x2="727.4255"
	y2="282.75787" />
<line
	class="arc1"
	id="link52_@1_140"
	x1="743.4137"
	y1="297.61755"
	x2="731.6342"
	y2="292.99457" />
<line
	class="arc2"
	id="link142_@2_140"
	x1="727.4255"
	y1="282.75787"
	x2="731.6342"
	y2="292.99457" />
</svg>
