<?xml version="1.0" encoding="UTF-8" standalone="no"?>
<!-- Created with Inkscape (http://www.inkscape.org/) -->

<svg
   width="201.00204mm"
   height="82.762558mm"
   viewBox="0 0 201.00205 82.762559"
   version="1.1"
   id="svg1"
   inkscape:version="1.3.2 (091e20ef0f, 2023-11-25, custom)"
   sodipodi:docname="bidarra-exemple-classes-references.svg"
   xmlns:inkscape="http://www.inkscape.org/namespaces/inkscape"
   xmlns:sodipodi="http://sodipodi.sourceforge.net/DTD/sodipodi-0.dtd"
   xmlns="http://www.w3.org/2000/svg"
   xmlns:svg="http://www.w3.org/2000/svg">
  <sodipodi:namedview
     id="namedview1"
     pagecolor="#ffffff"
     bordercolor="#000000"
     borderopacity="0.25"
     inkscape:showpageshadow="2"
     inkscape:pageopacity="0.0"
     inkscape:pagecheckerboard="0"
     inkscape:deskcolor="#d1d1d1"
     inkscape:document-units="mm"
     inkscape:zoom="1.069618"
     inkscape:cx="438.4743"
     inkscape:cy="173.4264"
     inkscape:window-width="1892"
     inkscape:window-height="1034"
     inkscape:window-x="9"
     inkscape:window-y="27"
     inkscape:window-maximized="1"
     inkscape:current-layer="layer1"
     showgrid="false" />
  <defs
     id="defs1">
    <marker
       style="overflow:visible"
       id="Triangle"
       refX="0"
       refY="0"
       orient="auto-start-reverse"
       inkscape:stockid="Triangle arrow"
       markerWidth="1"
       markerHeight="1"
       viewBox="0 0 1 1"
       inkscape:isstock="true"
       inkscape:collect="always"
       preserveAspectRatio="xMidYMid">
      <path
         transform="scale(0.5)"
         style="fill:context-stroke;fill-rule:evenodd;stroke:context-stroke;stroke-width:1pt"
         d="M 5.77,0 -2.88,5 V -5 Z"
         id="path135" />
    </marker>
  </defs>
  <g
     inkscape:label="Calque 1"
     inkscape:groupmode="layer"
     id="layer1"
     transform="translate(-18.319806,-23.510649)">
    <path
       id="rect1"
       style="fill:#999999;fill-opacity:1;stroke:#000000;stroke-width:0.426642;stroke-linecap:round;stroke-linejoin:round;stroke-opacity:1"
       d="m 418.56732,216.22865 -145.71946,-7.2e-4 3e-5,45.54399 145.71822,-6.2e-4 z m -129.11815,12.93323 a 19.228158,8.9456551 14.304799 0 1 11.13903,1.83642 19.228158,8.9456551 14.304799 0 1 13.84577,13.78834 19.228158,8.9456551 14.304799 0 1 -22.63503,2.30582 19.228158,8.9456551 14.304799 0 1 -13.84576,-13.78833 19.228158,8.9456551 14.304799 0 1 11.49599,-4.14225 z m 49.64536,0.0967 a 19.228158,8.9456551 14.304799 0 1 11.13955,1.83642 19.228158,8.9456551 14.304799 0 1 13.84577,13.78833 19.228158,8.9456551 14.304799 0 1 -22.63554,2.30582 19.228158,8.9456551 14.304799 0 1 -13.84577,-13.78833 19.228158,8.9456551 14.304799 0 1 11.49599,-4.14224 z m 49.64588,0.0967 a 19.228158,8.945655 14.304799 0 1 11.13904,1.83642 19.228158,8.945655 14.304799 0 1 13.84576,13.78834 19.228158,8.945655 14.304799 0 1 -22.63502,2.30582 19.228158,8.945655 14.304799 0 1 -13.84577,-13.78834 19.228158,8.945655 14.304799 0 1 11.49599,-4.14224 z"
       transform="matrix(0.99999972,-7.5017394e-4,-0.92279915,0.38528137,0,0)" />
    <path
       style="fill:#888888;fill-opacity:1;stroke:#000000;stroke-width:0.265;stroke-linecap:round;stroke-linejoin:round;stroke-dasharray:none;stroke-opacity:1;marker-end:url(#Triangle)"
       d="M 73.31262,83.103967 V 24.451684"
       id="path1" />
    <path
       style="fill:#888888;fill-opacity:1;stroke:#000000;stroke-width:0.265;stroke-linecap:round;stroke-linejoin:round;stroke-dasharray:none;stroke-opacity:1;marker-end:url(#Triangle)"
       d="M 73.31262,83.103967 H 131.9649"
       id="path1-5" />
    <path
       style="fill:#888888;fill-opacity:1;stroke:#000000;stroke-width:0.265;stroke-linecap:round;stroke-linejoin:round;stroke-dasharray:none;stroke-opacity:1;marker-start:url(#Triangle)"
       d="M 19.188184,105.70166 73.311923,83.102751"
       id="path1-2"
       inkscape:transform-center-x="27.334921"
       inkscape:transform-center-y="11.455255" />
  </g>
</svg>
