<?xml version="1.0" encoding="UTF-8" standalone="no"?>
<!-- Created with Jerboa -->

<svg
   width="288.29797"
   height="485.06805"
   version="1.1"
   id="svg3535"
   sodipodi:docname="decomposition-3D-3-cell.svg"
   inkscape:version="1.2.2 (b0a8486541, 2022-12-01)"
   xmlns:inkscape="http://www.inkscape.org/namespaces/inkscape"
   xmlns:sodipodi="http://sodipodi.sourceforge.net/DTD/sodipodi-0.dtd"
   xmlns="http://www.w3.org/2000/svg"
   xmlns:svg="http://www.w3.org/2000/svg">
  <defs
     id="defs3539" />
  <sodipodi:namedview
     id="namedview3537"
     pagecolor="#ffffff"
     bordercolor="#000000"
     borderopacity="0.25"
     inkscape:showpageshadow="2"
     inkscape:pageopacity="0.0"
     inkscape:pagecheckerboard="0"
     inkscape:deskcolor="#d1d1d1"
     showgrid="false"
     inkscape:zoom="1.2660294"
     inkscape:cx="-29.620165"
     inkscape:cy="260.26252"
     inkscape:window-width="1908"
     inkscape:window-height="1048"
     inkscape:window-x="1085"
     inkscape:window-y="25"
     inkscape:window-maximized="1"
     inkscape:current-layer="svg3535" />
  <style
     id="style">
		.arc0 {
			fill:none;
			fill-rule:evenodd;
			stroke:black;
			stroke-width:4;
			stroke-linecap:round;
			stroke-linejoin:round;
			stroke-opacity:1;
		}
		.arc1 {
			fill:none;
			fill-rule:evenodd;
			stroke:red;
			stroke-width:4;
			stroke-linecap:round;
			stroke-linejoin:round;
			stroke-opacity:1;
		}
		.arc2 {
			fill:none;
			fill-rule:evenodd;
			stroke:blue;
			stroke-width:4;
			stroke-linecap:round;
			stroke-linejoin:round;
			stroke-opacity:1;
		}
		.arc3 {
			fill:none;
			fill-rule:evenodd;
			stroke:green;
			stroke-width:4;
			stroke-linecap:round;
			stroke-linejoin:round;
			stroke-opacity:1;
		}
		.topological-dart {
			fill:#000000;
			stroke:#000000;
			stroke-width:0;
			stroke-linecap:round;
			stroke-linejoin:round;
			stroke-dasharray:none;
			paint-order:markers fill stroke;
		}
	</style>
  <polygon
     points="759.94586,313.67813 759.94586,313.67813 853.149,257.8074 853.149,257.8074 662.05414,230.55746 568.851,286.42816 "
     id="face_66_60_54_48_90_84_78_72"
     style="opacity:1;fill:#c0c0c0;stroke:none"
     opacity="1"
     transform="translate(-566.85101,-66.795349)" />
  <polygon
     points="662.05414,263.42032 853.149,290.67032 853.149,290.67032 853.149,493.99268 853.149,493.99268 662.05414,466.74274 662.05414,263.42032 "
     id="face_7_6_5_4_3_2_1_0"
     style="fill:#c0c0c0;stroke:none"
     opacity="1"
     transform="translate(-566.85101,-66.795349)" />
  <line
     class="arc0"
     id="link0_@0_7"
     x1="95.203125"
     y1="399.94739"
     x2="95.203125"
     y2="196.62497" />
  <line
     class="arc0"
     id="link1_@0_2"
     x1="95.203125"
     y1="399.94739"
     x2="286.29797"
     y2="427.19733" />
  <polygon
     points="662.05414,263.42032 568.851,319.2911 568.851,319.2911 568.851,522.61346 568.851,522.61346 662.05414,466.74274 662.05414,263.42032 "
     id="face_23_24_25_26_31_30_29_28"
     style="fill:#c0c0c0;stroke:none"
     opacity="1"
     transform="translate(-566.85101,-66.795349)" />
  <line
     class="arc0"
     id="link28_@0_23"
     x1="95.203125"
     y1="399.94739"
     x2="95.203125"
     y2="196.62497" />
  <line
     class="arc0"
     id="link29_@0_30"
     x1="95.203125"
     y1="399.94739"
     x2="2"
     y2="455.81812" />
  <polygon
     points="853.149,493.99268 759.94586,549.8634 759.94586,549.8634 568.851,522.61346 568.851,522.61346 662.05414,466.74274 853.149,493.99268 "
     id="face_38_39_40_41_36_35_34_33"
     style="fill:#c0c0c0;stroke:none"
     opacity="1"
     transform="translate(-566.85101,-66.795349)" />
  <line
     class="arc0"
     id="link33_@0_38"
     x1="95.203125"
     y1="399.94739"
     x2="286.29797"
     y2="427.19733" />
  <line
     class="arc0"
     id="link34_@0_35"
     x1="95.203125"
     y1="399.94739"
     x2="2"
     y2="455.81812" />
  <line
     class="arc0"
     id="link6_@0_5"
     x1="95.203125"
     y1="196.62497"
     x2="286.29797"
     y2="223.87497" />
  <polygon
     points="853.149,290.67032 759.94586,346.54105 759.94586,346.54105 568.851,319.2911 568.851,319.2911 662.05414,263.42032 853.149,290.67032 "
     id="face_13_14_15_16_21_20_19_18"
     style="fill:#c0c0c0;stroke:none"
     opacity="1"
     transform="translate(-566.85101,-66.795349)" />
  <line
     class="arc0"
     id="link18_@0_13"
     x1="95.203125"
     y1="196.62497"
     x2="286.29797"
     y2="223.87497" />
  <line
     class="arc0"
     id="link19_@0_20"
     x1="95.203125"
     y1="196.62497"
     x2="2"
     y2="252.49576" />
  <line
     class="arc0"
     id="link24_@0_25"
     x1="95.203125"
     y1="196.62497"
     x2="2"
     y2="252.49576" />
  <line
     class="arc0"
     id="link72_@0_66"
     x1="95.203125"
     y1="163.76212"
     x2="2"
     y2="219.63281" />
  <polygon
     points="568.851,286.42816 711,68.79535 711,68.79535 662.05414,230.55746 568.851,286.42816 "
     id="face_67_68_69_75_74_73"
     style="fill:#c0c0c0;stroke:none"
     opacity="1"
     transform="translate(-566.85101,-66.795349)" />
  <line
     class="arc0"
     id="link73_@0_67"
     x1="95.203125"
     y1="163.76212"
     x2="2"
     y2="219.63281" />
  <line
     class="arc0"
     id="link74_@0_75"
     x1="95.203125"
     y1="163.76212"
     x2="144.14899"
     y2="2" />
  <line
     class="arc0"
     id="link78_@0_84"
     x1="95.203125"
     y1="163.76212"
     x2="286.29797"
     y2="191.01205" />
  <polygon
     points="853.149,257.8074 711,68.79535 711,68.79535 662.05414,230.55746 853.149,257.8074 "
     id="face_85_86_87_81_80_79"
     style="fill:#c0c0c0;stroke:none"
     opacity="1"
     transform="translate(-566.85101,-66.795349)" />
  <line
     class="arc0"
     id="link79_@0_85"
     x1="95.203125"
     y1="163.76212"
     x2="286.29797"
     y2="191.01205" />
  <line
     class="arc0"
     id="link80_@0_81"
     x1="95.203125"
     y1="163.76212"
     x2="144.14899"
     y2="2" />
  <line
     class="arc0"
     id="link3_@0_4"
     x1="286.29797"
     y1="427.19733"
     x2="286.29797"
     y2="223.87497" />
  <line
     class="arc0"
     id="link39_@0_40"
     x1="286.29797"
     y1="427.19733"
     x2="193.09485"
     y2="483.06805" />
  <polygon
     points="853.149,290.67032 759.94586,346.54105 759.94586,346.54105 759.94586,549.8634 759.94586,549.8634 853.149,493.99268 853.149,290.67032 "
     id="face_8_9_10_11_46_45_44_43"
     style="opacity:1;fill:#c0c0c0;stroke:none"
     opacity="1.0"
     transform="translate(-566.85101,-66.795349)" />
  <line
     class="arc0"
     id="link43_@0_8"
     x1="286.29797"
     y1="427.19733"
     x2="286.29797"
     y2="223.87497" />
  <line
     class="arc0"
     id="link44_@0_45"
     x1="286.29797"
     y1="427.19733"
     x2="193.09485"
     y2="483.06805" />
  <line
     class="arc0"
     id="link9_@0_10"
     x1="286.29797"
     y1="223.87497"
     x2="193.09485"
     y2="279.7457" />
  <line
     class="arc0"
     id="link14_@0_15"
     x1="286.29797"
     y1="223.87497"
     x2="193.09485"
     y2="279.7457" />
  <line
     class="arc0"
     id="link86_@0_87"
     x1="286.29797"
     y1="191.01205"
     x2="144.14899"
     y2="2" />
  <line
     class="arc0"
     id="link90_@0_48"
     x1="286.29797"
     y1="191.01205"
     x2="193.09485"
     y2="246.88278" />
  <line
     class="arc0"
     id="link31_@0_26"
     x1="2"
     y1="455.81812"
     x2="2"
     y2="252.49576" />
  <polygon
     points="568.851,319.2911 759.94586,346.54105 759.94586,346.54105 759.94586,549.8634 759.94586,549.8634 568.851,522.61346 568.851,319.2911 "
     id="face_27_22_17_12_47_42_37_32"
     style="opacity:0.45;fill:#c0c0c0;stroke:none"
     opacity="1.0"
     transform="translate(-566.85101,-66.795349)" />
  <line
     class="arc0"
     id="link32_@0_27"
     x1="2"
     y1="455.81812"
     x2="2"
     y2="252.49576" />
  <line
     class="arc0"
     id="link36_@0_41"
     x1="2"
     y1="455.81812"
     x2="193.09485"
     y2="483.06805" />
  <line
     class="arc0"
     id="link37_@0_42"
     x1="2"
     y1="455.81812"
     x2="193.09485"
     y2="483.06805" />
  <line
     class="arc3"
     id="link21_@3_60"
     x1="144.14899"
     y1="246.88278"
     x2="144.14899"
     y2="214.01984" />
  <line
     class="arc0"
     id="link21_@0_16"
     x1="2"
     y1="252.49576"
     x2="193.09485"
     y2="279.7457" />
  <line
     class="arc0"
     id="link22_@0_17"
     x1="2"
     y1="252.49576"
     x2="193.09485"
     y2="279.7457" />
  <line
     class="arc0"
     id="link60_@0_54"
     x1="2"
     y1="219.63281"
     x2="193.09485"
     y2="246.88278" />
  <line
     class="arc0"
     id="link62_@0_63"
     x1="2"
     y1="219.63281"
     x2="144.14899"
     y2="2" />
  <line
     class="arc0"
     id="link51_@0_50"
     x1="144.14899"
     y1="2"
     x2="193.09485"
     y2="246.88278" />
  <polygon
     points="853.149,257.8074 759.94586,313.67813 711,68.79535 "
     id="face_49_50_51_93_92_91"
     style="fill:#c0c0c0;stroke:none"
     opacity="1"
     transform="translate(-566.85101,-66.795349)" />
  <line
     class="arc0"
     id="link91_@0_49"
     x1="286.29797"
     y1="191.01205"
     x2="193.09485"
     y2="246.88278" />
  <line
     class="arc0"
     id="link92_@0_93"
     x1="286.29797"
     y1="191.01205"
     x2="144.14899"
     y2="2.0000002" />
  <polygon
     points="568.851,286.42816 759.94586,313.67813 711,68.79535 "
     id="face_55_56_57_63_62_61"
     style="fill:#c0c0c0;stroke:none;opacity:0.5"
     opacity="1"
     transform="translate(-566.85101,-66.795349)" />
  <line
     class="arc0"
     id="link61_@0_55"
     x1="2.0000031"
     y1="219.63281"
     x2="193.09485"
     y2="246.88278" />
  <line
     class="arc0"
     id="link68_@0_69"
     x1="2.0000031"
     y1="219.63281"
     x2="144.14899"
     y2="2.0000002" />
  <line
     class="arc0"
     id="link57_@0_56"
     x1="144.14899"
     y1="2.0000002"
     x2="193.09485"
     y2="246.88278" />
  <line
     class="arc0"
     id="link46_@0_11"
     x1="193.09485"
     y1="483.06805"
     x2="193.09485"
     y2="279.7457" />
  <line
     class="arc0"
     id="link47_@0_12"
     x1="193.09485"
     y1="483.06805"
     x2="193.09485"
     y2="279.7457" />
</svg>
