<?xml version="1.0" encoding="UTF-8" standalone="no"?>
<!-- Created with Jerboa -->

<svg
   width="384.13916"
   height="591.98157"
   version="1.1"
   id="svg5970"
   sodipodi:docname="decomposition-3D-1-cell.svg"
   inkscape:version="1.2.2 (b0a8486541, 2022-12-01)"
   xmlns:inkscape="http://www.inkscape.org/namespaces/inkscape"
   xmlns:sodipodi="http://sodipodi.sourceforge.net/DTD/sodipodi-0.dtd"
   xmlns="http://www.w3.org/2000/svg"
   xmlns:svg="http://www.w3.org/2000/svg">
  <defs
     id="defs5974" />
  <sodipodi:namedview
     id="namedview5972"
     pagecolor="#ffffff"
     bordercolor="#000000"
     borderopacity="0.25"
     inkscape:showpageshadow="2"
     inkscape:pageopacity="0.0"
     inkscape:pagecheckerboard="0"
     inkscape:deskcolor="#d1d1d1"
     showgrid="false"
     inkscape:zoom="0.87552743"
     inkscape:cx="192.45542"
     inkscape:cy="303.24578"
     inkscape:window-width="1908"
     inkscape:window-height="1048"
     inkscape:window-x="1085"
     inkscape:window-y="25"
     inkscape:window-maximized="1"
     inkscape:current-layer="svg5970" />
  <style
     id="style">
		.arc0 {
			fill:none;
			fill-rule:evenodd;
			stroke:black;
			stroke-width:4;
			stroke-linecap:round;
			stroke-linejoin:round;
			stroke-opacity:1;
		}
		.arc1 {
			fill:none;
			fill-rule:evenodd;
			stroke:red;
			stroke-width:4;
			stroke-linecap:round;
			stroke-linejoin:round;
			stroke-opacity:1;
		}
		.arc2 {
			fill:none;
			fill-rule:evenodd;
			stroke:blue;
			stroke-width:4;
			stroke-linecap:round;
			stroke-linejoin:round;
			stroke-opacity:1;
		}
		.arc3 {
			fill:none;
			fill-rule:evenodd;
			stroke:green;
			stroke-width:4;
			stroke-linecap:round;
			stroke-linejoin:round;
			stroke-opacity:1;
		}
		.topological-dart {
			fill:#000000;
			stroke:#000000;
			stroke-width:0;
			stroke-linecap:round;
			stroke-linejoin:round;
			stroke-dasharray:none;
			paint-order:markers fill stroke;
		}
	</style>
  <polygon
     points="709.28265,264.14188 844.5371,283.42908 889.5423,337.7317 889.5423,481.64075 844.5371,523.108 709.28265,503.8208 664.2774,449.51813 664.2774,305.6091 "
     id="face_7_6_5_4_3_2_1_0"
     style="fill:#c0c0c0;stroke:none"
     opacity="1"
     transform="translate(-518.93048,-29.509155)" />
  <line
     class="arc1"
     id="link0_@1_1"
     x1="145.34692"
     y1="420.00897"
     x2="190.35217"
     y2="474.31165" />
  <line
     class="arc2"
     id="link0_@2_28"
     x1="145.34692"
     y1="420.00897"
     x2="111.86908"
     y2="423.37921" />
  <line
     class="arc0"
     id="link0_@0_7"
     x1="145.34692"
     y1="420.00897"
     x2="145.34692"
     y2="276.09995" />
  <line
     class="arc2"
     id="link1_@2_33"
     x1="190.35217"
     y1="474.31165"
     x2="179.37689"
     y2="504.83325" />
  <line
     class="arc0"
     id="link1_@0_2"
     x1="190.35217"
     y1="474.31165"
     x2="325.60663"
     y2="493.59882" />
  <polygon
     points="608.849,274.25275 542.881,313.79733 520.9305,374.84048 520.9305,518.7495 542.881,553.4762 608.849,513.93164 630.79956,452.88837 630.79956,308.9794 "
     id="face_23_24_25_26_31_30_29_28"
     style="fill:#c0c0c0;stroke:none"
     opacity="1"
     transform="translate(-518.93048,-29.509155)" />
  <line
     class="arc1"
     id="link28_@1_29"
     x1="111.86908"
     y1="423.37921"
     x2="89.918518"
     y2="484.42249" />
  <line
     class="arc0"
     id="link28_@0_23"
     x1="111.86908"
     y1="423.37921"
     x2="111.86908"
     y2="279.47025" />
  <polygon
     points="856.6165,573.20557 790.6485,612.7502 723.6928,619.4907 588.43835,600.20355 565.3836,580.62756 631.3516,541.08295 698.3074,534.3424 833.5618,553.62964 "
     id="face_38_39_40_41_36_35_34_33"
     style="fill:#c0c0c0;stroke:none"
     opacity="1"
     transform="translate(-518.93048,-29.509155)" />
  <line
     class="arc1"
     id="link33_@1_34"
     x1="179.37689"
     y1="504.83325"
     x2="112.42114"
     y2="511.57379" />
  <line
     class="arc0"
     id="link33_@0_38"
     x1="179.37689"
     y1="504.83325"
     x2="314.63135"
     y2="524.12048" />
  <line
     class="arc2"
     id="link29_@2_34"
     x1="89.918518"
     y1="484.42249"
     x2="112.42114"
     y2="511.57379" />
  <line
     class="arc0"
     id="link29_@0_30"
     x1="89.918518"
     y1="484.42249"
     x2="23.9505"
     y2="523.96704" />
  <line
     class="arc0"
     id="link34_@0_35"
     x1="112.42114"
     y1="511.57379"
     x2="46.453125"
     y2="551.11841" />
  <line
     class="arc1"
     id="link7_@1_6"
     x1="145.34692"
     y1="276.09995"
     x2="190.35217"
     y2="234.63272" />
  <line
     class="arc2"
     id="link7_@2_23"
     x1="145.34692"
     y1="276.09995"
     x2="111.86908"
     y2="279.47025" />
  <line
     class="arc1"
     id="link23_@1_24"
     x1="111.86908"
     y1="279.47025"
     x2="89.918518"
     y2="244.74359" />
  <line
     class="arc1"
     id="link2_@1_3"
     x1="325.60663"
     y1="493.59882"
     x2="370.61182"
     y2="452.13159" />
  <line
     class="arc2"
     id="link2_@2_38"
     x1="325.60663"
     y1="493.59882"
     x2="314.63135"
     y2="524.12048" />
  <line
     class="arc2"
     id="link6_@2_18"
     x1="190.35217"
     y1="234.63272"
     x2="179.37689"
     y2="217.26938" />
  <line
     class="arc0"
     id="link6_@0_5"
     x1="190.35217"
     y1="234.63272"
     x2="325.60663"
     y2="253.91992" />
  <line
     class="arc1"
     id="link38_@1_39"
     x1="314.63135"
     y1="524.12048"
     x2="337.68604"
     y2="543.69641" />
  <line
     class="arc2"
     id="link3_@2_43"
     x1="370.61182"
     y1="452.13159"
     x2="382.13916"
     y2="461.91956" />
  <line
     class="arc0"
     id="link3_@0_4"
     x1="370.61182"
     y1="452.13159"
     x2="370.61182"
     y2="308.22253" />
  <polygon
     points="856.6165,285.64166 790.6485,325.18628 723.6928,331.92685 588.43835,312.63965 565.3836,293.06366 631.3516,253.51904 698.3074,246.77853 833.5618,266.06573 "
     id="face_13_14_15_16_21_20_19_18"
     style="fill:#c0c0c0;stroke:none"
     opacity="1"
     transform="translate(-518.93048,-29.509155)" />
  <line
     class="arc1"
     id="link18_@1_19"
     x1="179.37689"
     y1="217.26938"
     x2="112.42114"
     y2="224.00989" />
  <line
     class="arc3"
     id="link18_@3_78"
     x1="179.37689"
     y1="217.26938"
     x2="179.37689"
     y2="181.35565" />
  <line
     class="arc0"
     id="link18_@0_13"
     x1="179.37689"
     y1="217.26938"
     x2="314.63135"
     y2="236.55658" />
  <polygon
     points="852.406,171.70712 751.7948,37.92682 706.78955,31.509155 672.14636,146.0022 705.6242,190.51694 840.8787,209.80414 "
     id="face_85_86_87_81_80_79"
     style="fill:#c0c0c0;stroke:none"
     opacity="1"
     transform="translate(-518.93048,-29.509155)" />
  <line
     class="arc1"
     id="link79_@1_80"
     x1="186.69373"
     y1="161.00778"
     x2="153.21588"
     y2="116.49304" />
  <line
     class="arc2"
     id="link79_@2_78"
     x1="186.69373"
     y1="161.00778"
     x2="179.37689"
     y2="181.35565" />
  <line
     class="arc0"
     id="link79_@0_85"
     x1="186.69373"
     y1="161.00778"
     x2="321.94824"
     y2="180.29498" />
  <line
     class="arc2"
     id="link24_@2_19"
     x1="89.918518"
     y1="244.74359"
     x2="112.42114"
     y2="224.00989" />
  <line
     class="arc0"
     id="link24_@0_25"
     x1="89.918518"
     y1="244.74359"
     x2="23.9505"
     y2="284.28818" />
  <polygon
     points="856.6165,249.72794 790.6485,289.27255 723.6928,296.01306 588.43835,276.7259 565.3836,257.14993 631.3516,217.60532 698.3074,210.8648 833.5618,230.15198 "
     id="face_84_90_48_54_60_66_72_78"
     style="fill:#c0c0c0;stroke:none"
     opacity="1"
     transform="translate(-518.93048,-29.509155)" />
  <line
     class="arc1"
     id="link78_@1_72"
     x1="179.37689"
     y1="181.35565"
     x2="112.42114"
     y2="188.09616" />
  <line
     class="arc0"
     id="link78_@0_84"
     x1="179.37689"
     y1="181.35565"
     x2="314.63135"
     y2="200.64282" />
  <line
     class="arc3"
     id="link19_@3_72"
     x1="112.42114"
     y1="224.00989"
     x2="112.42114"
     y2="188.09616" />
  <line
     class="arc0"
     id="link19_@0_20"
     x1="112.42114"
     y1="224.00989"
     x2="46.453125"
     y2="263.5545" />
  <line
     class="arc2"
     id="link80_@2_74"
     x1="153.21588"
     y1="116.49304"
     x2="130.89728"
     y2="118.73987" />
  <line
     class="arc0"
     id="link80_@0_81"
     x1="153.21588"
     y1="116.49304"
     x2="187.85907"
     y2="2" />
  <polygon
     points="879.11914,312.79303 813.1511,352.33765 791.2006,413.3808 791.2006,557.2898 813.1511,592.01654 879.11914,552.4719 901.06964,491.4287 901.06964,347.5197 "
     id="face_8_9_10_11_46_45_44_43"
     style="fill:#c0c0c0;stroke:none"
     opacity="1"
     transform="translate(-518.93048,-29.509155)" />
  <line
     class="arc1"
     id="link43_@1_44"
     x1="382.13916"
     y1="461.91956"
     x2="360.18866"
     y2="522.96277" />
  <line
     class="arc0"
     id="link43_@0_8"
     x1="382.13916"
     y1="461.91956"
     x2="382.13916"
     y2="318.01056" />
  <polygon
     points="561.90924,200.9519 662.5205,46.914246 684.471,33.75598 649.82776,148.24902 616.34985,199.50436 550.38184,239.04895 "
     id="face_67_68_69_75_74_73"
     style="fill:#c0c0c0;stroke:none"
     opacity="1"
     transform="translate(-518.93048,-29.509155)" />
  <line
     class="arc1"
     id="link73_@1_74"
     x1="97.419373"
     y1="169.99521"
     x2="130.89728"
     y2="118.73987" />
  <line
     class="arc2"
     id="link73_@2_72"
     x1="97.419373"
     y1="169.99521"
     x2="112.42114"
     y2="188.09616" />
  <line
     class="arc0"
     id="link73_@0_67"
     x1="97.419373"
     y1="169.99521"
     x2="31.451355"
     y2="209.53979" />
  <line
     class="arc0"
     id="link72_@0_66"
     x1="112.42114"
     y1="188.09616"
     x2="46.453125"
     y2="227.64078" />
  <line
     class="arc1"
     id="link5_@1_4"
     x1="325.60663"
     y1="253.91992"
     x2="370.61182"
     y2="308.22253" />
  <line
     class="arc2"
     id="link5_@2_13"
     x1="325.60663"
     y1="253.91992"
     x2="314.63135"
     y2="236.55658" />
  <line
     class="arc0"
     id="link74_@0_75"
     x1="130.89728"
     y1="118.73987"
     x2="165.54053"
     y2="4.2468262" />
  <line
     class="arc2"
     id="link39_@2_44"
     x1="337.68604"
     y1="543.69641"
     x2="360.18866"
     y2="522.96277" />
  <line
     class="arc0"
     id="link39_@0_40"
     x1="337.68604"
     y1="543.69641"
     x2="271.71802"
     y2="583.24103" />
  <line
     class="arc2"
     id="link4_@2_8"
     x1="370.61182"
     y1="308.22253"
     x2="382.13916"
     y2="318.01056" />
  <line
     class="arc0"
     id="link44_@0_45"
     x1="360.18866"
     y1="522.96277"
     x2="294.22064"
     y2="562.50739" />
  <line
     class="arc1"
     id="link30_@1_31"
     x1="23.9505"
     y1="523.96704"
     x2="2"
     y2="489.24036" />
  <line
     class="arc2"
     id="link30_@2_35"
     x1="23.9505"
     y1="523.96704"
     x2="46.453125"
     y2="551.11841" />
  <line
     class="arc1"
     id="link13_@1_14"
     x1="314.63135"
     y1="236.55658"
     x2="337.68604"
     y2="256.13251" />
  <line
     class="arc3"
     id="link13_@3_84"
     x1="314.63135"
     y1="236.55658"
     x2="314.63135"
     y2="200.64282" />
  <line
     class="arc1"
     id="link35_@1_36"
     x1="46.453125"
     y1="551.11841"
     x2="69.507874"
     y2="570.6944" />
  <line
     class="arc1"
     id="link85_@1_86"
     x1="321.94824"
     y1="180.29498"
     x2="333.47552"
     y2="142.19797" />
  <line
     class="arc2"
     id="link85_@2_84"
     x1="321.94824"
     y1="180.29498"
     x2="314.63135"
     y2="200.64282" />
  <line
     class="arc1"
     id="link8_@1_9"
     x1="382.13916"
     y1="318.01056"
     x2="360.18866"
     y2="283.28387" />
  <line
     class="arc1"
     id="link84_@1_90"
     x1="314.63135"
     y1="200.64282"
     x2="337.68604"
     y2="220.21878" />
  <line
     class="arc2"
     id="link86_@2_92"
     x1="333.47552"
     y1="142.19797"
     x2="341.16046"
     y2="148.72327" />
  <line
     class="arc0"
     id="link86_@0_87"
     x1="333.47552"
     y1="142.19797"
     x2="232.86432"
     y2="8.4176636" />
  <line
     class="arc2"
     id="link31_@2_32"
     x1="2"
     y1="489.24036"
     x2="13.527344"
     y2="499.02832" />
  <line
     class="arc0"
     id="link31_@0_26"
     x1="2"
     y1="489.24036"
     x2="2"
     y2="345.33133" />
  <line
     class="arc2"
     id="link14_@2_9"
     x1="337.68604"
     y1="256.13251"
     x2="360.18866"
     y2="283.28387" />
  <line
     class="arc3"
     id="link14_@3_90"
     x1="337.68604"
     y1="256.13251"
     x2="337.68604"
     y2="220.21878" />
  <line
     class="arc0"
     id="link14_@0_15"
     x1="337.68604"
     y1="256.13251"
     x2="271.71802"
     y2="295.67712" />
  <line
     class="arc2"
     id="link36_@2_37"
     x1="69.507874"
     y1="570.6944"
     x2="58.532593"
     y2="553.33099" />
  <line
     class="arc0"
     id="link36_@0_41"
     x1="69.507874"
     y1="570.6944"
     x2="204.76233"
     y2="589.98157" />
  <line
     class="arc0"
     id="link9_@0_10"
     x1="360.18866"
     y1="283.28387"
     x2="294.22064"
     y2="322.82849" />
  <polygon
     points="737.5292,57.610413 772.1724,230.93527 805.6503,275.45 871.61835,235.90546 860.09094,178.23242 759.4797,44.45215 "
     id="face_93_51_50_49_91_92"
     style="fill:#c0c0c0;stroke:none"
     opacity="1"
     transform="translate(-518.93048,-29.509155)" />
  <line
     class="arc1"
     id="link92_@1_91"
     x1="341.16046"
     y1="148.72327"
     x2="352.68787"
     y2="206.3963" />
  <line
     class="arc0"
     id="link92_@0_93"
     x1="341.16046"
     y1="148.72327"
     x2="240.54919"
     y2="14.942993" />
  <line
     class="arc1"
     id="link25_@1_26"
     x1="23.9505"
     y1="284.28818"
     x2="2"
     y2="345.33133" />
  <line
     class="arc2"
     id="link25_@2_20"
     x1="23.9505"
     y1="284.28818"
     x2="46.453125"
     y2="263.5545" />
  <line
     class="arc2"
     id="link90_@2_91"
     x1="337.68604"
     y1="220.21878"
     x2="352.68787"
     y2="206.3963" />
  <line
     class="arc0"
     id="link90_@0_48"
     x1="337.68604"
     y1="220.21878"
     x2="271.71802"
     y2="259.7634" />
  <polygon
     points="577.4631,343.16125 712.7175,362.44846 757.7227,416.75107 757.7227,560.6601 712.7175,602.1274 577.4631,582.84015 532.4578,528.5375 532.4578,384.62845 "
     id="face_27_22_17_12_47_42_37_32"
     style="fill:#c0c0c0;stroke:none"
     opacity="1"
     transform="translate(-518.93048,-29.509155)" />
  <line
     class="arc1"
     id="link32_@1_37"
     x1="13.527344"
     y1="499.02832"
     x2="58.532593"
     y2="553.33099" />
  <line
     class="arc0"
     id="link32_@0_27"
     x1="13.527344"
     y1="499.02832"
     x2="13.527344"
     y2="355.11929" />
  <line
     class="arc0"
     id="link91_@0_49"
     x1="352.68787"
     y1="206.3963"
     x2="286.71985"
     y2="245.94086" />
  <line
     class="arc1"
     id="link20_@1_21"
     x1="46.453125"
     y1="263.5545"
     x2="69.507874"
     y2="283.13049" />
  <line
     class="arc3"
     id="link20_@3_66"
     x1="46.453125"
     y1="263.5545"
     x2="46.453125"
     y2="227.64078" />
  <line
     class="arc0"
     id="link37_@0_42"
     x1="58.532593"
     y1="553.33099"
     x2="193.78705"
     y2="572.61823" />
  <line
     class="arc1"
     id="link67_@1_68"
     x1="31.451355"
     y1="209.53979"
     x2="42.97876"
     y2="171.44275" />
  <line
     class="arc2"
     id="link67_@2_66"
     x1="31.451355"
     y1="209.53979"
     x2="46.453125"
     y2="227.64078" />
  <line
     class="arc2"
     id="link26_@2_27"
     x1="2"
     y1="345.33133"
     x2="13.527344"
     y2="355.11929" />
  <line
     class="arc1"
     id="link66_@1_60"
     x1="46.453125"
     y1="227.64078"
     x2="69.507874"
     y2="247.21674" />
  <line
     class="arc1"
     id="link81_@1_87"
     x1="187.85907"
     y1="2"
     x2="232.86432"
     y2="8.4176636" />
  <line
     class="arc2"
     id="link81_@2_75"
     x1="187.85907"
     y1="2"
     x2="165.54053"
     y2="4.2468262" />
  <line
     class="arc1"
     id="link40_@1_41"
     x1="271.71802"
     y1="583.24103"
     x2="204.76233"
     y2="589.98157" />
  <line
     class="arc2"
     id="link40_@2_45"
     x1="271.71802"
     y1="583.24103"
     x2="294.22064"
     y2="562.50739" />
  <line
     class="arc1"
     id="link75_@1_69"
     x1="165.54053"
     y1="4.2468262"
     x2="143.59003"
     y2="17.40509" />
  <line
     class="arc1"
     id="link45_@1_46"
     x1="294.22064"
     y1="562.50739"
     x2="272.27014"
     y2="527.78064" />
  <line
     class="arc2"
     id="link87_@2_93"
     x1="232.86432"
     y1="8.4176636"
     x2="240.54919"
     y2="14.942993" />
  <line
     class="arc2"
     id="link41_@2_42"
     x1="204.76233"
     y1="589.98157"
     x2="193.78705"
     y2="572.61823" />
  <line
     class="arc1"
     id="link27_@1_22"
     x1="13.527344"
     y1="355.11929"
     x2="58.532593"
     y2="313.6521" />
  <line
     class="arc2"
     id="link68_@2_62"
     x1="42.97876"
     y1="171.44275"
     x2="50.663635"
     y2="177.96811" />
  <line
     class="arc0"
     id="link68_@0_69"
     x1="42.97876"
     y1="171.44275"
     x2="143.59003"
     y2="17.40509" />
  <line
     class="arc1"
     id="link93_@1_51"
     x1="240.54919"
     y1="14.942993"
     x2="218.59869"
     y2="28.101257" />
  <line
     class="arc2"
     id="link21_@2_22"
     x1="69.507874"
     y1="283.13049"
     x2="58.532593"
     y2="313.6521" />
  <line
     class="arc3"
     id="link21_@3_60"
     x1="69.507874"
     y1="283.13049"
     x2="69.507874"
     y2="247.21674" />
  <line
     class="arc0"
     id="link21_@0_16"
     x1="69.507874"
     y1="283.13049"
     x2="204.76233"
     y2="302.41769" />
  <line
     class="arc2"
     id="link69_@2_63"
     x1="143.59003"
     y1="17.40509"
     x2="151.27484"
     y2="23.93042" />
  <line
     class="arc1"
     id="link42_@1_47"
     x1="193.78705"
     y1="572.61823"
     x2="238.79224"
     y2="531.15094" />
  <line
     class="arc2"
     id="link60_@2_61"
     x1="69.507874"
     y1="247.21674"
     x2="62.190979"
     y2="235.64108" />
  <line
     class="arc0"
     id="link60_@0_54"
     x1="69.507874"
     y1="247.21674"
     x2="204.76233"
     y2="266.50391" />
  <polygon
     points="715.2106,59.85724 749.8538,233.18213 716.3759,284.4374 581.12146,265.15024 569.5941,207.47726 670.2053,53.439575 "
     id="face_63_57_56_55_61_62"
     style="fill:#c0c0c0;stroke:none"
     opacity="1"
     transform="translate(-518.93048,-29.509155)" />
  <line
     class="arc1"
     id="link62_@1_61"
     x1="50.663635"
     y1="177.96811"
     x2="62.190979"
     y2="235.64108" />
  <line
     class="arc0"
     id="link62_@0_63"
     x1="50.663635"
     y1="177.96811"
     x2="151.27484"
     y2="23.93042" />
  <line
     class="arc0"
     id="link22_@0_17"
     x1="58.532593"
     y1="313.6521"
     x2="193.78705"
     y2="332.9393" />
  <line
     class="arc1"
     id="link63_@1_57"
     x1="151.27484"
     y1="23.93042"
     x2="196.28009"
     y2="30.348083" />
  <line
     class="arc2"
     id="link46_@2_47"
     x1="272.27014"
     y1="527.78064"
     x2="238.79224"
     y2="531.15094" />
  <line
     class="arc0"
     id="link46_@0_11"
     x1="272.27014"
     y1="527.78064"
     x2="272.27014"
     y2="383.87164" />
  <line
     class="arc0"
     id="link61_@0_55"
     x1="62.190979"
     y1="235.64108"
     x2="197.44543"
     y2="254.92825" />
  <line
     class="arc2"
     id="link51_@2_57"
     x1="218.59869"
     y1="28.101257"
     x2="196.28009"
     y2="30.348083" />
  <line
     class="arc0"
     id="link51_@0_50"
     x1="218.59869"
     y1="28.101257"
     x2="253.24194"
     y2="201.42612" />
  <line
     class="arc0"
     id="link47_@0_12"
     x1="238.79224"
     y1="531.15094"
     x2="238.79224"
     y2="387.24191" />
  <line
     class="arc1"
     id="link15_@1_16"
     x1="271.71802"
     y1="295.67712"
     x2="204.76233"
     y2="302.41769" />
  <line
     class="arc2"
     id="link15_@2_10"
     x1="271.71802"
     y1="295.67712"
     x2="294.22064"
     y2="322.82849" />
  <line
     class="arc3"
     id="link15_@3_48"
     x1="271.71802"
     y1="295.67712"
     x2="271.71802"
     y2="259.7634" />
  <line
     class="arc1"
     id="link10_@1_11"
     x1="294.22064"
     y1="322.82849"
     x2="272.27014"
     y2="383.87164" />
  <line
     class="arc0"
     id="link57_@0_56"
     x1="196.28009"
     y1="30.348083"
     x2="230.92334"
     y2="203.67297" />
  <line
     class="arc1"
     id="link48_@1_54"
     x1="271.71802"
     y1="259.7634"
     x2="204.76233"
     y2="266.50391" />
  <line
     class="arc2"
     id="link48_@2_49"
     x1="271.71802"
     y1="259.7634"
     x2="286.71985"
     y2="245.94086" />
  <line
     class="arc2"
     id="link16_@2_17"
     x1="204.76233"
     y1="302.41769"
     x2="193.78705"
     y2="332.9393" />
  <line
     class="arc3"
     id="link16_@3_54"
     x1="204.76233"
     y1="302.41769"
     x2="204.76233"
     y2="266.50391" />
  <line
     class="arc1"
     id="link49_@1_50"
     x1="286.71985"
     y1="245.94086"
     x2="253.24194"
     y2="201.42612" />
  <line
     class="arc2"
     id="link11_@2_12"
     x1="272.27014"
     y1="383.87164"
     x2="238.79224"
     y2="387.24191" />
  <line
     class="arc2"
     id="link54_@2_55"
     x1="204.76233"
     y1="266.50391"
     x2="197.44543"
     y2="254.92825" />
  <line
     class="arc1"
     id="link17_@1_12"
     x1="193.78705"
     y1="332.9393"
     x2="238.79224"
     y2="387.24191" />
  <line
     class="arc2"
     id="link50_@2_56"
     x1="253.24194"
     y1="201.42612"
     x2="230.92334"
     y2="203.67297" />
  <line
     class="arc1"
     id="link55_@1_56"
     x1="197.44543"
     y1="254.92825"
     x2="230.92334"
     y2="203.67297" />
</svg>
