<?xml version="1.0" encoding="UTF-8" standalone="no"?>
<!-- Created with Jerboa -->

<svg
   width="349.56592"
   height="548.79596"
   version="1.1"
   id="svg8515"
   sodipodi:docname="decomposition-3D-no-decomp.svg"
   inkscape:version="1.2.2 (b0a8486541, 2022-12-01)"
   xmlns:inkscape="http://www.inkscape.org/namespaces/inkscape"
   xmlns:sodipodi="http://sodipodi.sourceforge.net/DTD/sodipodi-0.dtd"
   xmlns="http://www.w3.org/2000/svg"
   xmlns:svg="http://www.w3.org/2000/svg">
  <defs
     id="defs8519" />
  <sodipodi:namedview
     id="namedview8517"
     pagecolor="#ffffff"
     bordercolor="#000000"
     borderopacity="0.25"
     inkscape:showpageshadow="2"
     inkscape:pageopacity="0.0"
     inkscape:pagecheckerboard="0"
     inkscape:deskcolor="#d1d1d1"
     showgrid="false"
     inkscape:zoom="0.87552743"
     inkscape:cx="175.32289"
     inkscape:cy="298.67711"
     inkscape:window-width="1908"
     inkscape:window-height="1048"
     inkscape:window-x="1085"
     inkscape:window-y="25"
     inkscape:window-maximized="1"
     inkscape:current-layer="svg8515" />
  <style
     id="style">
		.arc0 {
			fill:none;
			fill-rule:evenodd;
			stroke:black;
			stroke-width:4;
			stroke-linecap:round;
			stroke-linejoin:round;
			stroke-opacity:1;
		}
		.arc1 {
			fill:none;
			fill-rule:evenodd;
			stroke:red;
			stroke-width:4;
			stroke-linecap:round;
			stroke-linejoin:round;
			stroke-opacity:1;
		}
		.arc2 {
			fill:none;
			fill-rule:evenodd;
			stroke:blue;
			stroke-width:4;
			stroke-linecap:round;
			stroke-linejoin:round;
			stroke-opacity:1;
		}
		.arc3 {
			fill:none;
			fill-rule:evenodd;
			stroke:green;
			stroke-width:4;
			stroke-linecap:round;
			stroke-linejoin:round;
			stroke-opacity:1;
		}
		.topological-dart {
			fill:#000000;
			stroke:#000000;
			stroke-width:0;
			stroke-linecap:round;
			stroke-linejoin:round;
			stroke-dasharray:none;
			paint-order:markers fill stroke;
		}
	</style>
  <polygon
     points="651.50604,232.55524 883.78296,265.67776 883.78296,265.67776 883.78296,512.8173 883.78296,512.8173 651.50604,479.69482 651.50604,232.55524 "
     id="face_7_6_5_4_3_2_1_0"
     style="fill:#c0c0c0;stroke:none"
     opacity="1"
     transform="translate(-536.21704,-33.932556)" />
  <line
     class="arc1"
     id="link0_@1_1"
     x1="115.289"
     y1="445.76227"
     x2="115.289"
     y2="445.76227" />
  <line
     class="arc2"
     id="link0_@2_28"
     x1="115.289"
     y1="445.76227"
     x2="115.289"
     y2="445.76227" />
  <line
     class="arc0"
     id="link0_@0_7"
     x1="115.289"
     y1="445.76227"
     x2="115.289"
     y2="198.62268" />
  <polygon
     points="651.50604,232.55524 538.21704,300.4665 538.21704,300.4665 538.21704,547.606 538.21704,547.606 651.50604,479.69482 651.50604,232.55524 "
     id="face_23_24_25_26_31_30_29_28"
     style="fill:#c0c0c0;stroke:none"
     opacity="1"
     transform="translate(-536.21704,-33.932556)" />
  <line
     class="arc0"
     id="link28_@0_23"
     x1="115.289"
     y1="445.76227"
     x2="115.289"
     y2="198.62268" />
  <line
     class="arc0"
     id="link29_@0_30"
     x1="115.289"
     y1="445.76227"
     x2="2"
     y2="513.67346" />
  <polygon
     points="883.78296,512.8173 770.49396,580.7285 770.49396,580.7285 538.21704,547.606 538.21704,547.606 651.50604,479.69482 883.78296,512.8173 "
     id="face_38_39_40_41_36_35_34_33"
     style="fill:#c0c0c0;stroke:none"
     opacity="1"
     transform="translate(-536.21704,-33.932556)" />
  <line
     class="arc0"
     id="link33_@0_38"
     x1="115.289"
     y1="445.76227"
     x2="347.56592"
     y2="478.88477" />
  <line
     class="arc0"
     id="link34_@0_35"
     x1="115.289"
     y1="445.76227"
     x2="2"
     y2="513.67346" />
  <line
     class="arc0"
     id="link6_@0_5"
     x1="115.289"
     y1="198.62268"
     x2="347.56592"
     y2="231.74521" />
  <polygon
     points="883.78296,265.67776 770.49396,333.589 770.49396,333.589 538.21704,300.4665 538.21704,300.4665 651.50604,232.55524 883.78296,265.67776 "
     id="face_13_14_15_16_21_20_19_18"
     style="fill:#c0c0c0;stroke:none"
     opacity="1"
     transform="translate(-536.21704,-33.932556)" />
  <line
     class="arc0"
     id="link18_@0_13"
     x1="115.289"
     y1="198.62268"
     x2="347.56592"
     y2="231.74521" />
  <line
     class="arc0"
     id="link19_@0_20"
     x1="115.289"
     y1="198.62268"
     x2="2"
     y2="266.53394" />
  <line
     class="arc0"
     id="link24_@0_25"
     x1="115.289"
     y1="198.62268"
     x2="2"
     y2="266.53394" />
  <polygon
     points="538.21704,300.4665 770.49396,333.589 770.49396,333.589 883.78296,265.67776 883.78296,265.67776 651.50604,232.55524 538.21704,300.4665 "
     id="face_66_60_54_48_90_84_78_72"
     style="fill:#c0c0c0;stroke:none"
     opacity="1"
     transform="translate(-536.21704,-33.932556)" />
  <line
     class="arc0"
     id="link72_@0_66"
     x1="115.289"
     y1="198.62268"
     x2="2"
     y2="266.53394" />
  <polygon
     points="538.21704,300.4665 711,35.932556 711,35.932556 651.50604,232.55524 538.21704,300.4665 "
     id="face_67_68_69_75_74_73"
     style="fill:#c0c0c0;stroke:none"
     opacity="1"
     transform="translate(-536.21704,-33.932556)" />
  <line
     class="arc0"
     id="link73_@0_67"
     x1="115.289"
     y1="198.62268"
     x2="2"
     y2="266.53394" />
  <line
     class="arc0"
     id="link74_@0_75"
     x1="115.289"
     y1="198.62268"
     x2="174.78296"
     y2="2" />
  <line
     class="arc0"
     id="link78_@0_84"
     x1="115.289"
     y1="198.62268"
     x2="347.56592"
     y2="231.74521" />
  <polygon
     points="883.78296,265.67776 711,35.932556 711,35.932556 651.50604,232.55524 883.78296,265.67776 "
     id="face_85_86_87_81_80_79"
     style="fill:#c0c0c0;stroke:none"
     opacity="1"
     transform="translate(-536.21704,-33.932556)" />
  <line
     class="arc0"
     id="link79_@0_85"
     x1="115.289"
     y1="198.62268"
     x2="347.56592"
     y2="231.74521" />
  <line
     class="arc0"
     id="link80_@0_81"
     x1="115.289"
     y1="198.62268"
     x2="174.78296"
     y2="2" />
  <line
     class="arc0"
     id="link3_@0_4"
     x1="347.56592"
     y1="478.88477"
     x2="347.56592"
     y2="231.74521" />
  <line
     class="arc0"
     id="link39_@0_40"
     x1="347.56592"
     y1="478.88477"
     x2="234.27692"
     y2="546.79596" />
  <polygon
     points="883.78296,265.67776 770.49396,333.589 770.49396,333.589 770.49396,580.7285 770.49396,580.7285 883.78296,512.8173 883.78296,265.67776 "
     id="face_8_9_10_11_46_45_44_43"
     style="fill:#c0c0c0;stroke:none"
     opacity="1"
     transform="translate(-536.21704,-33.932556)" />
  <line
     class="arc0"
     id="link43_@0_8"
     x1="347.56592"
     y1="478.88477"
     x2="347.56592"
     y2="231.74521" />
  <line
     class="arc0"
     id="link44_@0_45"
     x1="347.56592"
     y1="478.88477"
     x2="234.27692"
     y2="546.79596" />
  <line
     class="arc0"
     id="link9_@0_10"
     x1="347.56592"
     y1="231.74521"
     x2="234.27692"
     y2="299.65643" />
  <line
     class="arc0"
     id="link14_@0_15"
     x1="347.56592"
     y1="231.74521"
     x2="234.27692"
     y2="299.65643" />
  <line
     class="arc0"
     id="link86_@0_87"
     x1="347.56592"
     y1="231.74521"
     x2="174.78296"
     y2="2" />
  <line
     class="arc0"
     id="link90_@0_48"
     x1="347.56592"
     y1="231.74521"
     x2="234.27692"
     y2="299.65643" />
  <polygon
     points="770.49396,333.589 711,35.932556 711,35.932556 883.78296,265.67776 770.49396,333.589 "
     id="face_49_50_51_93_92_91"
     style="fill:#c0c0c0;stroke:none"
     opacity="1"
     transform="translate(-536.21704,-33.932556)" />
  <line
     class="arc0"
     id="link91_@0_49"
     x1="347.56592"
     y1="231.74521"
     x2="234.27692"
     y2="299.65643" />
  <line
     class="arc0"
     id="link92_@0_93"
     x1="347.56592"
     y1="231.74521"
     x2="174.78296"
     y2="2" />
  <line
     class="arc0"
     id="link31_@0_26"
     x1="2"
     y1="513.67346"
     x2="2"
     y2="266.53394" />
  <polygon
     points="538.21704,300.4665 770.49396,333.589 770.49396,333.589 770.49396,580.7285 770.49396,580.7285 538.21704,547.606 538.21704,300.4665 "
     id="face_27_22_17_12_47_42_37_32"
     style="fill:#c0c0c0;stroke:none"
     opacity="1"
     transform="translate(-536.21704,-33.932556)" />
  <line
     class="arc0"
     id="link32_@0_27"
     x1="2"
     y1="513.67346"
     x2="2"
     y2="266.53394" />
  <line
     class="arc0"
     id="link36_@0_41"
     x1="2"
     y1="513.67346"
     x2="234.27692"
     y2="546.79596" />
  <line
     class="arc0"
     id="link37_@0_42"
     x1="2"
     y1="513.67346"
     x2="234.27692"
     y2="546.79596" />
  <line
     class="arc0"
     id="link21_@0_16"
     x1="2"
     y1="266.53394"
     x2="234.27692"
     y2="299.65643" />
  <line
     class="arc0"
     id="link22_@0_17"
     x1="2"
     y1="266.53394"
     x2="234.27692"
     y2="299.65643" />
  <line
     class="arc0"
     id="link60_@0_54"
     x1="2"
     y1="266.53394"
     x2="234.27692"
     y2="299.65643" />
  <polygon
     points="770.49396,333.589 711,35.932556 711,35.932556 538.21704,300.4665 770.49396,333.589 "
     id="face_55_56_57_63_62_61"
     style="fill:#c0c0c0;stroke:none"
     opacity="1"
     transform="translate(-536.21704,-33.932556)" />
  <line
     class="arc0"
     id="link61_@0_55"
     x1="2"
     y1="266.53394"
     x2="234.27692"
     y2="299.65643" />
  <line
     class="arc0"
     id="link62_@0_63"
     x1="2"
     y1="266.53394"
     x2="174.78296"
     y2="2" />
  <line
     class="arc0"
     id="link68_@0_69"
     x1="2"
     y1="266.53394"
     x2="174.78296"
     y2="2" />
  <line
     class="arc0"
     id="link51_@0_50"
     x1="174.78296"
     y1="2"
     x2="234.27692"
     y2="299.65643" />
  <line
     class="arc0"
     id="link57_@0_56"
     x1="174.78296"
     y1="2"
     x2="234.27692"
     y2="299.65643" />
  <line
     class="arc0"
     id="link46_@0_11"
     x1="234.27692"
     y1="546.79596"
     x2="234.27692"
     y2="299.65643" />
  <line
     class="arc0"
     id="link47_@0_12"
     x1="234.27692"
     y1="546.79596"
     x2="234.27692"
     y2="299.65643" />
</svg>
