<?xml version="1.0" encoding="UTF-8" standalone="no"?>
<!-- Created with Jerboa -->

<svg
   width="407.19641"
   height="602.29657"
   version="1.1"
   id="svg15713"
   sodipodi:docname="decomposition-3D-no-decomp.svg"
   inkscape:version="1.2.2 (b0a8486541, 2022-12-01)"
   xmlns:inkscape="http://www.inkscape.org/namespaces/inkscape"
   xmlns:sodipodi="http://sodipodi.sourceforge.net/DTD/sodipodi-0.dtd"
   xmlns="http://www.w3.org/2000/svg"
   xmlns:svg="http://www.w3.org/2000/svg">
  <defs
     id="defs15717" />
  <sodipodi:namedview
     id="namedview15715"
     pagecolor="#ffffff"
     bordercolor="#000000"
     borderopacity="0.25"
     inkscape:showpageshadow="2"
     inkscape:pageopacity="0.0"
     inkscape:pagecheckerboard="0"
     inkscape:deskcolor="#d1d1d1"
     showgrid="false"
     inkscape:zoom="1.1161731"
     inkscape:cx="316.70714"
     inkscape:cy="350.75204"
     inkscape:window-width="1049"
     inkscape:window-height="1048"
     inkscape:window-x="1085"
     inkscape:window-y="25"
     inkscape:window-maximized="1"
     inkscape:current-layer="svg15713" />
  <style
     id="style">
		.arc0 {
			fill:none;
			fill-rule:evenodd;
			stroke:black;
			stroke-width:4;
			stroke-linecap:round;
			stroke-linejoin:round;
			stroke-opacity:1;
		}
		.arc1 {
			fill:none;
			fill-rule:evenodd;
			stroke:red;
			stroke-width:4;
			stroke-linecap:round;
			stroke-linejoin:round;
			stroke-opacity:1;
		}
		.arc2 {
			fill:none;
			fill-rule:evenodd;
			stroke:blue;
			stroke-width:4;
			stroke-linecap:round;
			stroke-linejoin:round;
			stroke-opacity:1;
		}
		.arc3 {
			fill:none;
			fill-rule:evenodd;
			stroke:green;
			stroke-width:4;
			stroke-linecap:round;
			stroke-linejoin:round;
			stroke-opacity:1;
		}
		.topological-dart {
			fill:#000000;
			stroke:#000000;
			stroke-width:0;
			stroke-linecap:round;
			stroke-linejoin:round;
			stroke-dasharray:none;
			paint-order:markers fill stroke;
		}
	</style>
  <polygon
     points="615.6489,234.357 860.0982,248.19266 860.0982,248.19266 860.0982,538.5558 860.0982,538.5558 615.6489,524.72003 615.6489,234.357 "
     id="face_7_6_5_4_3_2_1_0"
     style="fill:#c0c0c0;stroke:none"
     opacity="1"
     transform="translate(-454.90179,40.435669)" />
  <line
     class="arc0"
     id="link0_@0_7"
     x1="160.74713"
     y1="565.1557"
     x2="160.74713"
     y2="274.79266" />
  <line
     class="arc0"
     id="link1_@0_2"
     x1="160.74713"
     y1="565.1557"
     x2="405.19641"
     y2="578.99146" />
  <polygon
     points="615.6489,234.357 456.9018,255.66214 456.9018,255.66214 456.9018,546.0252 456.9018,546.0252 615.6489,524.72003 615.6489,234.357 "
     id="face_23_24_25_26_31_30_29_28"
     style="fill:#c0c0c0;stroke:none"
     opacity="1"
     transform="translate(-454.90179,40.435669)" />
  <line
     class="arc0"
     id="link28_@0_23"
     x1="160.74713"
     y1="565.1557"
     x2="160.74713"
     y2="274.79266" />
  <line
     class="arc0"
     id="link29_@0_30"
     x1="160.74713"
     y1="565.1557"
     x2="2"
     y2="586.46088" />
  <polygon
     points="860.0982,538.5558 701.3511,559.8609 701.3511,559.8609 456.9018,546.0252 456.9018,546.0252 615.6489,524.72003 860.0982,538.5558 "
     id="face_38_39_40_41_36_35_34_33"
     style="fill:#c0c0c0;stroke:none"
     opacity="1"
     transform="translate(-454.90179,40.435669)" />
  <line
     class="arc0"
     id="link33_@0_38"
     x1="160.74713"
     y1="565.1557"
     x2="405.19641"
     y2="578.99146" />
  <line
     class="arc0"
     id="link34_@0_35"
     x1="160.74713"
     y1="565.1557"
     x2="2"
     y2="586.46088" />
  <line
     class="arc0"
     id="link6_@0_5"
     x1="160.74713"
     y1="274.79266"
     x2="405.19641"
     y2="288.62833" />
  <polygon
     points="860.0982,248.19266 701.3511,269.49783 701.3511,269.49783 456.9018,255.66214 456.9018,255.66214 615.6489,234.357 860.0982,248.19266 "
     id="face_13_14_15_16_21_20_19_18"
     style="fill:#c0c0c0;stroke:none"
     opacity="1"
     transform="translate(-454.90179,40.435669)" />
  <line
     class="arc0"
     id="link18_@0_13"
     x1="160.74713"
     y1="274.79266"
     x2="405.19641"
     y2="288.62833" />
  <line
     class="arc0"
     id="link19_@0_20"
     x1="160.74713"
     y1="274.79266"
     x2="2"
     y2="296.09781" />
  <line
     class="arc0"
     id="link24_@0_25"
     x1="160.74713"
     y1="274.79266"
     x2="2"
     y2="296.09781" />
  <polygon
     points="456.9018,255.66214 701.3511,269.49783 701.3511,269.49783 860.0982,248.19266 860.0982,248.19266 615.6489,234.357 456.9018,255.66214 "
     id="face_66_60_54_48_90_84_78_72"
     style="fill:#c0c0c0;stroke:none"
     opacity="1"
     transform="translate(-454.90179,40.435669)" />
  <line
     class="arc0"
     id="link72_@0_66"
     x1="160.74713"
     y1="274.79266"
     x2="2"
     y2="296.09781" />
  <polygon
     points="456.9018,255.66214 658.5,-38.43567 658.5,-38.43567 615.6489,234.357 456.9018,255.66214 "
     id="face_67_68_69_75_74_73"
     style="fill:#c0c0c0;stroke:none"
     opacity="1"
     transform="translate(-454.90179,40.435669)" />
  <line
     class="arc0"
     id="link73_@0_67"
     x1="160.74713"
     y1="274.79266"
     x2="2"
     y2="296.09781" />
  <line
     class="arc0"
     id="link74_@0_75"
     x1="160.74713"
     y1="274.79266"
     x2="203.59821"
     y2="2" />
  <line
     class="arc0"
     id="link78_@0_84"
     x1="160.74713"
     y1="274.79266"
     x2="405.19641"
     y2="288.62833" />
  <polygon
     points="860.0982,248.19266 658.5,-38.43567 658.5,-38.43567 615.6489,234.357 860.0982,248.19266 "
     id="face_85_86_87_81_80_79"
     style="fill:#c0c0c0;stroke:none"
     opacity="1"
     transform="translate(-454.90179,40.435669)" />
  <line
     class="arc0"
     id="link79_@0_85"
     x1="160.74713"
     y1="274.79266"
     x2="405.19641"
     y2="288.62833" />
  <line
     class="arc0"
     id="link80_@0_81"
     x1="160.74713"
     y1="274.79266"
     x2="203.59821"
     y2="2" />
  <line
     class="arc0"
     id="link3_@0_4"
     x1="405.19641"
     y1="578.99146"
     x2="405.19641"
     y2="288.62833" />
  <line
     class="arc0"
     id="link39_@0_40"
     x1="405.19641"
     y1="578.99146"
     x2="246.44928"
     y2="600.29657" />
  <polygon
     points="860.0982,248.19266 701.3511,269.49783 701.3511,269.49783 701.3511,559.8609 701.3511,559.8609 860.0982,538.5558 860.0982,248.19266 "
     id="face_8_9_10_11_46_45_44_43"
     style="fill:#c0c0c0;stroke:none"
     opacity="1"
     transform="translate(-454.90179,40.435669)" />
  <line
     class="arc0"
     id="link43_@0_8"
     x1="405.19641"
     y1="578.99146"
     x2="405.19641"
     y2="288.62833" />
  <line
     class="arc0"
     id="link44_@0_45"
     x1="405.19641"
     y1="578.99146"
     x2="246.44928"
     y2="600.29657" />
  <line
     class="arc0"
     id="link9_@0_10"
     x1="405.19641"
     y1="288.62833"
     x2="246.44928"
     y2="309.9335" />
  <line
     class="arc0"
     id="link14_@0_15"
     x1="405.19641"
     y1="288.62833"
     x2="246.44928"
     y2="309.9335" />
  <line
     class="arc0"
     id="link86_@0_87"
     x1="405.19641"
     y1="288.62833"
     x2="203.59821"
     y2="2" />
  <line
     class="arc0"
     id="link90_@0_48"
     x1="405.19641"
     y1="288.62833"
     x2="246.44928"
     y2="309.9335" />
  <polygon
     points="701.3511,269.49783 658.5,-38.43567 658.5,-38.43567 860.0982,248.19266 701.3511,269.49783 "
     id="face_49_50_51_93_92_91"
     style="fill:#c0c0c0;stroke:none"
     opacity="1"
     transform="translate(-454.90179,40.435669)" />
  <line
     class="arc0"
     id="link91_@0_49"
     x1="405.19641"
     y1="288.62833"
     x2="246.44928"
     y2="309.9335" />
  <line
     class="arc0"
     id="link92_@0_93"
     x1="405.19641"
     y1="288.62833"
     x2="203.59821"
     y2="2" />
  <line
     class="arc0"
     id="link31_@0_26"
     x1="2"
     y1="586.46088"
     x2="2"
     y2="296.09781" />
  <polygon
     points="456.9018,255.66214 701.3511,269.49783 701.3511,269.49783 701.3511,559.8609 701.3511,559.8609 456.9018,546.0252 456.9018,255.66214 "
     id="face_27_22_17_12_47_42_37_32"
     style="fill:#c0c0c0;stroke:none"
     opacity="1"
     transform="translate(-454.90179,40.435669)" />
  <line
     class="arc0"
     id="link32_@0_27"
     x1="2"
     y1="586.46088"
     x2="2"
     y2="296.09781" />
  <line
     class="arc0"
     id="link36_@0_41"
     x1="2"
     y1="586.46088"
     x2="246.44928"
     y2="600.29657" />
  <line
     class="arc0"
     id="link37_@0_42"
     x1="2"
     y1="586.46088"
     x2="246.44928"
     y2="600.29657" />
  <line
     class="arc0"
     id="link21_@0_16"
     x1="2"
     y1="296.09781"
     x2="246.44928"
     y2="309.9335" />
  <line
     class="arc0"
     id="link22_@0_17"
     x1="2"
     y1="296.09781"
     x2="246.44928"
     y2="309.9335" />
  <line
     class="arc0"
     id="link60_@0_54"
     x1="2"
     y1="296.09781"
     x2="246.44928"
     y2="309.9335" />
  <polygon
     points="701.3511,269.49783 658.5,-38.43567 658.5,-38.43567 456.9018,255.66214 701.3511,269.49783 "
     id="face_55_56_57_63_62_61"
     style="fill:#c0c0c0;stroke:none"
     opacity="1"
     transform="translate(-454.90179,40.435669)" />
  <line
     class="arc0"
     id="link61_@0_55"
     x1="2"
     y1="296.09781"
     x2="246.44928"
     y2="309.9335" />
  <line
     class="arc0"
     id="link62_@0_63"
     x1="2"
     y1="296.09781"
     x2="203.59821"
     y2="2" />
  <line
     class="arc0"
     id="link68_@0_69"
     x1="2"
     y1="296.09781"
     x2="203.59821"
     y2="2" />
  <line
     class="arc0"
     id="link46_@0_11"
     x1="246.44928"
     y1="600.29657"
     x2="246.44928"
     y2="309.9335" />
  <line
     class="arc0"
     id="link47_@0_12"
     x1="246.44928"
     y1="600.29657"
     x2="246.44928"
     y2="309.9335" />
  <line
     class="arc0"
     id="link50_@0_51"
     x1="246.44928"
     y1="309.9335"
     x2="203.59821"
     y2="2" />
  <line
     class="arc0"
     id="link56_@0_57"
     x1="246.44928"
     y1="309.9335"
     x2="203.59821"
     y2="2" />
</svg>
