<?xml version="1.0" encoding="UTF-8" standalone="no"?>
<!-- Created with Jerboa -->

<svg
   width="288.49194"
   height="480.82343"
   version="1.1"
   id="svg4917"
   sodipodi:docname="decomposition-3D-2-cell.svg"
   inkscape:version="1.2.2 (b0a8486541, 2022-12-01)"
   xmlns:inkscape="http://www.inkscape.org/namespaces/inkscape"
   xmlns:sodipodi="http://sodipodi.sourceforge.net/DTD/sodipodi-0.dtd"
   xmlns="http://www.w3.org/2000/svg"
   xmlns:svg="http://www.w3.org/2000/svg">
  <defs
     id="defs4921" />
  <sodipodi:namedview
     id="namedview4919"
     pagecolor="#ffffff"
     bordercolor="#000000"
     borderopacity="0.25"
     inkscape:showpageshadow="2"
     inkscape:pageopacity="0.0"
     inkscape:pagecheckerboard="0"
     inkscape:deskcolor="#d1d1d1"
     showgrid="false"
     inkscape:zoom="1.2381828"
     inkscape:cx="-45.227571"
     inkscape:cy="213.61951"
     inkscape:window-width="1908"
     inkscape:window-height="1048"
     inkscape:window-x="5"
     inkscape:window-y="25"
     inkscape:window-maximized="1"
     inkscape:current-layer="svg4917" />
  <style
     id="style">
		.arc0 {
			fill:none;
			fill-rule:evenodd;
			stroke:black;
			stroke-width:4;
			stroke-linecap:round;
			stroke-linejoin:round;
			stroke-opacity:1;
		}
		.arc1 {
			fill:none;
			fill-rule:evenodd;
			stroke:red;
			stroke-width:4;
			stroke-linecap:round;
			stroke-linejoin:round;
			stroke-opacity:1;
		}
		.arc2 {
			fill:none;
			fill-rule:evenodd;
			stroke:blue;
			stroke-width:4;
			stroke-linecap:round;
			stroke-linejoin:round;
			stroke-opacity:1;
		}
		.arc3 {
			fill:none;
			fill-rule:evenodd;
			stroke:green;
			stroke-width:4;
			stroke-linecap:round;
			stroke-linejoin:round;
			stroke-opacity:1;
		}
		.topological-dart {
			fill:#000000;
			stroke:#000000;
			stroke-width:0;
			stroke-linecap:round;
			stroke-linejoin:round;
			stroke-dasharray:none;
			paint-order:markers fill stroke;
		}
	</style>
  <polygon
     points="677.99066,280.21527 843.4138,303.8045 843.4138,303.8045 843.4138,479.81256 843.4138,479.81256 677.99066,456.22333 677.99066,280.21527 "
     id="face_7_6_5_4_3_2_1_0"
     style="fill:#c0c0c0;stroke:none"
     opacity="1"
     transform="translate(-566.75397,-75.387085)" />
  <line
     class="arc2"
     id="link0_@2_28"
     x1="111.23669"
     y1="380.83624"
     x2="82.682312"
     y2="383.71088" />
  <line
     class="arc0"
     id="link0_@0_7"
     x1="111.23669"
     y1="380.83624"
     x2="111.23669"
     y2="204.82819" />
  <line
     class="arc2"
     id="link1_@2_33"
     x1="111.23669"
     y1="380.83624"
     x2="101.87555"
     y2="406.86917" />
  <line
     class="arc0"
     id="link1_@0_2"
     x1="111.23669"
     y1="380.83624"
     x2="276.65985"
     y2="404.42548" />
  <polygon
     points="649.4363,283.0899 568.75397,331.45493 568.75397,331.45493 568.75397,507.463 568.75397,507.463 649.4363,459.09796 649.4363,283.0899 "
     id="face_23_24_25_26_31_30_29_28"
     style="fill:#c0c0c0;stroke:none"
     opacity="1"
     transform="translate(-566.75397,-75.387085)" />
  <line
     class="arc0"
     id="link28_@0_23"
     x1="82.682312"
     y1="383.71088"
     x2="82.682312"
     y2="207.70282" />
  <line
     class="arc2"
     id="link29_@2_34"
     x1="82.682312"
     y1="383.71088"
     x2="101.87555"
     y2="406.86917" />
  <line
     class="arc0"
     id="link29_@0_30"
     x1="82.682312"
     y1="383.71088"
     x2="2"
     y2="432.07593" />
  <polygon
     points="834.0527,505.84546 753.3704,554.2105 753.3704,554.2105 587.9472,530.62134 587.9472,530.62134 668.6295,482.25626 834.0527,505.84546 "
     id="face_38_39_40_41_36_35_34_33"
     style="fill:#c0c0c0;stroke:none"
     opacity="1"
     transform="translate(-566.75397,-75.387085)" />
  <line
     class="arc0"
     id="link33_@0_38"
     x1="101.87555"
     y1="406.86917"
     x2="267.29871"
     y2="430.45837" />
  <line
     class="arc0"
     id="link34_@0_35"
     x1="101.87555"
     y1="406.86917"
     x2="21.193237"
     y2="455.23425" />
  <line
     class="arc2"
     id="link6_@2_18"
     x1="111.23669"
     y1="204.82819"
     x2="101.87555"
     y2="190.01837" />
  <line
     class="arc0"
     id="link6_@0_5"
     x1="111.23669"
     y1="204.82819"
     x2="276.65985"
     y2="228.41742" />
  <line
     class="arc2"
     id="link7_@2_23"
     x1="111.23669"
     y1="204.82819"
     x2="82.682312"
     y2="207.70282" />
  <line
     class="arc2"
     id="link24_@2_19"
     x1="82.682312"
     y1="207.70282"
     x2="101.87555"
     y2="190.01837" />
  <line
     class="arc0"
     id="link24_@0_25"
     x1="82.682312"
     y1="207.70282"
     x2="2"
     y2="256.06784" />
  <line
     class="arc2"
     id="link3_@2_43"
     x1="276.65985"
     y1="404.42548"
     x2="286.49194"
     y2="412.77399" />
  <line
     class="arc0"
     id="link3_@0_4"
     x1="276.65985"
     y1="404.42548"
     x2="276.65985"
     y2="228.41742" />
  <polygon
     points="834.0527,288.9947 753.3704,337.35974 753.3704,337.35974 587.9472,313.77054 587.9472,313.77054 668.6295,265.40546 834.0527,288.9947 "
     id="face_13_14_15_16_21_20_19_18"
     style="fill:#c0c0c0;stroke:none"
     opacity="1"
     transform="translate(-566.75397,-75.387085)" />
  <line
     class="arc3"
     id="link18_@3_78"
     x1="101.87555"
     y1="190.01837"
     x2="101.87555"
     y2="159.38641" />
  <line
     class="arc0"
     id="link18_@0_13"
     x1="101.87555"
     y1="190.01837"
     x2="267.29871"
     y2="213.6076" />
  <line
     class="arc3"
     id="link19_@3_72"
     x1="101.87555"
     y1="190.01837"
     x2="101.87555"
     y2="159.38641" />
  <line
     class="arc0"
     id="link19_@0_20"
     x1="101.87555"
     y1="190.01837"
     x2="21.193237"
     y2="238.38345" />
  <polygon
     points="840.29346,241.00732 717.2407,77.387085 717.2407,77.387085 674.87024,217.41812 840.29346,241.00732 "
     id="face_85_86_87_81_80_79"
     style="fill:#c0c0c0;stroke:none"
     opacity="1"
     transform="translate(-566.75397,-75.387085)" />
  <line
     class="arc2"
     id="link79_@2_78"
     x1="108.11627"
     y1="142.03104"
     x2="101.87555"
     y2="159.38641" />
  <line
     class="arc0"
     id="link79_@0_85"
     x1="108.11627"
     y1="142.03104"
     x2="273.53949"
     y2="165.62024" />
  <line
     class="arc2"
     id="link80_@2_74"
     x1="108.11627"
     y1="142.03104"
     x2="89.080017"
     y2="143.94745" />
  <line
     class="arc0"
     id="link80_@0_81"
     x1="108.11627"
     y1="142.03104"
     x2="150.48676"
     y2="2" />
  <polygon
     points="575.15173,267.6996 698.20447,79.30353 698.20447,79.30353 655.834,219.33453 575.15173,267.6996 "
     id="face_67_68_69_75_74_73"
     style="fill:#c0c0c0;stroke:none"
     opacity="1"
     transform="translate(-566.75397,-75.387085)" />
  <line
     class="arc2"
     id="link73_@2_72"
     x1="89.080017"
     y1="143.94745"
     x2="101.87555"
     y2="159.38641" />
  <line
     class="arc0"
     id="link73_@0_67"
     x1="89.080017"
     y1="143.94745"
     x2="8.3977661"
     y2="192.3125" />
  <line
     class="arc0"
     id="link74_@0_75"
     x1="89.080017"
     y1="143.94745"
     x2="131.4505"
     y2="3.9164429" />
  <polygon
     points="587.9472,283.13852 753.3704,306.72772 753.3704,306.72772 834.0527,258.3627 834.0527,258.3627 668.6295,234.7735 587.9472,283.13852 "
     id="face_66_60_54_48_90_84_78_72"
     style="fill:#c0c0c0;stroke:none"
     opacity="1"
     transform="translate(-566.75397,-75.387085)" />
  <line
     class="arc0"
     id="link72_@0_66"
     x1="101.87555"
     y1="159.38641"
     x2="21.193237"
     y2="207.75143" />
  <line
     class="arc0"
     id="link78_@0_84"
     x1="101.87555"
     y1="159.38641"
     x2="267.29871"
     y2="182.97562" />
  <line
     class="arc0"
     id="link39_@0_40"
     x1="267.29871"
     y1="430.45837"
     x2="186.61646"
     y2="478.82343" />
  <polygon
     points="853.2459,312.153 772.56366,360.51804 772.56366,360.51804 772.56366,536.5261 772.56366,536.5261 853.2459,488.16107 853.2459,312.153 "
     id="face_8_9_10_11_46_45_44_43"
     style="fill:#c0c0c0;stroke:none"
     opacity="1"
     transform="translate(-566.75397,-75.387085)" />
  <line
     class="arc0"
     id="link43_@0_8"
     x1="286.49194"
     y1="412.77399"
     x2="286.49194"
     y2="236.76593" />
  <line
     class="arc0"
     id="link44_@0_45"
     x1="286.49194"
     y1="412.77399"
     x2="205.80969"
     y2="461.13904" />
  <line
     class="arc3"
     id="link13_@3_84"
     x1="267.29871"
     y1="213.6076"
     x2="267.29871"
     y2="182.97562" />
  <line
     class="arc3"
     id="link14_@3_90"
     x1="267.29871"
     y1="213.6076"
     x2="267.29871"
     y2="182.97562" />
  <line
     class="arc0"
     id="link14_@0_15"
     x1="267.29871"
     y1="213.6076"
     x2="186.61646"
     y2="261.97266" />
  <line
     class="arc2"
     id="link86_@2_92"
     x1="273.53949"
     y1="165.62024"
     x2="280.09424"
     y2="171.18594" />
  <line
     class="arc0"
     id="link86_@0_87"
     x1="273.53949"
     y1="165.62024"
     x2="150.48676"
     y2="2" />
  <line
     class="arc0"
     id="link9_@0_10"
     x1="286.49194"
     y1="236.76593"
     x2="205.80969"
     y2="285.13095" />
  <line
     class="arc0"
     id="link90_@0_48"
     x1="267.29871"
     y1="182.97562"
     x2="186.61646"
     y2="231.34064" />
  <line
     class="arc0"
     id="link31_@0_26"
     x1="2"
     y1="432.07593"
     x2="2"
     y2="256.06784" />
  <line
     class="arc0"
     id="link36_@0_41"
     x1="21.193237"
     y1="455.23425"
     x2="186.61646"
     y2="478.82343" />
  <polygon
     points="766.16595,294.93808 723.7955,82.95276 723.7955,82.95276 846.8482,246.57303 766.16595,294.93808 "
     id="face_49_50_51_93_92_91"
     style="fill:#c0c0c0;stroke:none"
     opacity="1"
     transform="translate(-566.75397,-75.387085)" />
  <line
     class="arc0"
     id="link91_@0_49"
     x1="280.09424"
     y1="171.18594"
     x2="199.41199"
     y2="219.55099" />
  <line
     class="arc0"
     id="link92_@0_93"
     x1="280.09424"
     y1="171.18594"
     x2="157.0415"
     y2="7.5656738" />
  <polygon
     points="578.586,339.80344 744.0093,363.39267 744.0093,363.39267 744.0093,539.40076 744.0093,539.40076 578.586,515.8115 578.586,339.80344 "
     id="face_27_22_17_12_47_42_37_32"
     style="fill:#c0c0c0;stroke:none"
     opacity="1"
     transform="translate(-566.75397,-75.387085)" />
  <line
     class="arc0"
     id="link32_@0_27"
     x1="11.832031"
     y1="440.42444"
     x2="11.832031"
     y2="264.41635" />
  <line
     class="arc0"
     id="link37_@0_42"
     x1="11.832031"
     y1="440.42444"
     x2="177.25531"
     y2="464.01367" />
  <line
     class="arc2"
     id="link26_@2_27"
     x1="1.4817505"
     y1="344.6705"
     x2="11.313782"
     y2="353.01901" />
  <line
     class="arc3"
     id="link20_@3_66"
     x1="21.193237"
     y1="238.38345"
     x2="21.193237"
     y2="207.75143" />
  <line
     class="arc3"
     id="link21_@3_60"
     x1="21.193237"
     y1="238.38345"
     x2="21.193237"
     y2="207.75143" />
  <line
     class="arc0"
     id="link21_@0_16"
     x1="21.193237"
     y1="238.38345"
     x2="186.61646"
     y2="261.97266" />
  <line
     class="arc0"
     id="link68_@0_69"
     x1="8.3977661"
     y1="192.3125"
     x2="131.4505"
     y2="3.9164429" />
  <line
     class="arc0"
     id="link60_@0_54"
     x1="21.193237"
     y1="207.75143"
     x2="186.61646"
     y2="231.34064" />
  <line
     class="arc2"
     id="link40_@2_45"
     x1="231.40462"
     y1="451.9751"
     x2="250.59785"
     y2="434.29071" />
  <line
     class="arc2"
     id="link41_@2_42"
     x1="96.959503"
     y1="466.30331"
     x2="87.598358"
     y2="451.49356" />
  <line
     class="arc0"
     id="link22_@0_17"
     x1="11.832031"
     y1="264.41635"
     x2="177.25531"
     y2="288.00558" />
  <polygon
     points="747.12964,296.8545 704.7591,84.8692 704.7591,84.8692 581.7064,273.26526 747.12964,296.8545 "
     id="face_55_56_57_63_62_61"
     style="fill:#c0c0c0;stroke:none"
     opacity="1"
     transform="translate(-566.75397,-75.387085)" />
  <line
     class="arc0"
     id="link61_@0_55"
     x1="14.952454"
     y1="197.87817"
     x2="180.37567"
     y2="221.46741" />
  <line
     class="arc0"
     id="link62_@0_63"
     x1="14.952454"
     y1="197.87817"
     x2="138.00513"
     y2="9.4821167" />
  <line
     class="arc0"
     id="link46_@0_11"
     x1="205.80969"
     y1="461.13904"
     x2="205.80969"
     y2="285.13095" />
  <line
     class="arc0"
     id="link51_@0_50"
     x1="157.0415"
     y1="7.5656738"
     x2="199.41199"
     y2="219.55099" />
  <line
     class="arc0"
     id="link47_@0_12"
     x1="177.25531"
     y1="464.01367"
     x2="177.25531"
     y2="288.00558" />
  <line
     class="arc0"
     id="link57_@0_56"
     x1="138.00513"
     y1="9.4821167"
     x2="180.37567"
     y2="221.46741" />
  <line
     class="arc2"
     id="link15_@2_10"
     x1="232.52792"
     y1="234.59167"
     x2="251.72116"
     y2="257.74994" />
  <line
     class="arc3"
     id="link15_@3_48"
     x1="186.61646"
     y1="261.97266"
     x2="186.61646"
     y2="231.34064" />
  <line
     class="arc2"
     id="link16_@2_17"
     x1="92.803001"
     y1="248.77956"
     x2="83.441856"
     y2="274.8125" />
  <line
     class="arc3"
     id="link16_@3_54"
     x1="186.61646"
     y1="261.97266"
     x2="186.61646"
     y2="231.34064" />
  <line
     class="arc2"
     id="link11_@2_12"
     x1="205.75459"
     y1="369.6131"
     x2="177.20021"
     y2="372.48773" />
  <line
     class="arc2"
     id="link48_@2_49"
     x1="230.28676"
     y1="205.15813"
     x2="243.08229"
     y2="193.36848" />
  <line
     class="arc2"
     id="link54_@2_55"
     x1="98.619629"
     y1="218.70142"
     x2="92.378845"
     y2="208.82819" />
  <line
     class="arc2"
     id="link50_@2_56"
     x1="178.61789"
     y1="115.71649"
     x2="159.58157"
     y2="117.6329" />
  <line
     class="arc2"
     id="link69_@2_63"
     x1="72.619209"
     y1="93.988289"
     x2="79.173836"
     y2="99.553963" />
</svg>
