<?xml version="1.0" encoding="UTF-8" standalone="no"?>
<!-- Created with Jerboa -->

<svg
   width="331.70016"
   height="520.33337"
   version="1.1"
   id="svg13547"
   sodipodi:docname="decomposition-3D-3-cell.svg"
   inkscape:version="1.2.2 (b0a8486541, 2022-12-01)"
   xmlns:inkscape="http://www.inkscape.org/namespaces/inkscape"
   xmlns:sodipodi="http://sodipodi.sourceforge.net/DTD/sodipodi-0.dtd"
   xmlns="http://www.w3.org/2000/svg"
   xmlns:svg="http://www.w3.org/2000/svg">
  <defs
     id="defs13551" />
  <sodipodi:namedview
     id="namedview13549"
     pagecolor="#ffffff"
     bordercolor="#000000"
     borderopacity="0.25"
     inkscape:showpageshadow="2"
     inkscape:pageopacity="0.0"
     inkscape:pagecheckerboard="0"
     inkscape:deskcolor="#d1d1d1"
     showgrid="false"
     inkscape:zoom="1.0265756"
     inkscape:cx="270.31619"
     inkscape:cy="324.86648"
     inkscape:window-width="1908"
     inkscape:window-height="1048"
     inkscape:window-x="1085"
     inkscape:window-y="25"
     inkscape:window-maximized="1"
     inkscape:current-layer="svg13547" />
  <style
     id="style">
		.arc0 {
			fill:none;
			fill-rule:evenodd;
			stroke:black;
			stroke-width:4;
			stroke-linecap:round;
			stroke-linejoin:round;
			stroke-opacity:1;
		}
		.arc1 {
			fill:none;
			fill-rule:evenodd;
			stroke:red;
			stroke-width:4;
			stroke-linecap:round;
			stroke-linejoin:round;
			stroke-opacity:1;
		}
		.arc2 {
			fill:none;
			fill-rule:evenodd;
			stroke:blue;
			stroke-width:4;
			stroke-linecap:round;
			stroke-linejoin:round;
			stroke-opacity:1;
		}
		.arc3 {
			fill:none;
			fill-rule:evenodd;
			stroke:green;
			stroke-width:4;
			stroke-linecap:round;
			stroke-linejoin:round;
			stroke-opacity:1;
		}
		.topological-dart {
			fill:#000000;
			stroke:#000000;
			stroke-width:0;
			stroke-linecap:round;
			stroke-linejoin:round;
			stroke-dasharray:none;
			paint-order:markers fill stroke;
		}
	</style>
  <polygon
     points="623.67255,260.54633 822.35004,271.79138 822.35004,271.79138 822.35004,507.7857 822.35004,507.7857 623.67255,496.54062 623.67255,260.54633 "
     id="face_7_6_5_4_3_2_1_0"
     style="fill:#c0c0c0;stroke:none"
     opacity="1"
     transform="translate(-492.64987,-6.7681885)" />
  <line
     class="arc2"
     id="link0_@2_28"
     x1="131.02267"
     y1="489.77243"
     x2="131.02267"
     y2="489.77243" />
  <line
     class="arc0"
     id="link0_@0_7"
     x1="131.02267"
     y1="489.77243"
     x2="131.02267"
     y2="253.77814" />
  <line
     class="arc2"
     id="link1_@2_33"
     x1="131.02267"
     y1="489.77243"
     x2="131.02267"
     y2="489.77243" />
  <line
     class="arc0"
     id="link1_@0_2"
     x1="131.02267"
     y1="489.77243"
     x2="329.70016"
     y2="501.01752" />
  <polygon
     points="623.67255,260.54633 494.64987,277.8622 494.64987,277.8622 494.64987,513.8565 494.64987,513.8565 623.67255,496.54062 623.67255,260.54633 "
     id="face_23_24_25_26_31_30_29_28"
     style="fill:#c0c0c0;stroke:none"
     opacity="1"
     transform="translate(-492.64987,-6.7681885)" />
  <line
     class="arc0"
     id="link28_@0_23"
     x1="131.02267"
     y1="489.77243"
     x2="131.02267"
     y2="253.77814" />
  <line
     class="arc2"
     id="link29_@2_34"
     x1="131.02267"
     y1="489.77243"
     x2="131.02267"
     y2="489.77243" />
  <line
     class="arc0"
     id="link29_@0_30"
     x1="131.02267"
     y1="489.77243"
     x2="2"
     y2="507.08832" />
  <polygon
     points="822.35004,507.7857 693.3274,525.10156 693.3274,525.10156 494.64987,513.8565 494.64987,513.8565 623.67255,496.54062 822.35004,507.7857 "
     id="face_38_39_40_41_36_35_34_33"
     style="fill:#c0c0c0;stroke:none"
     opacity="1"
     transform="translate(-492.64987,-6.7681885)" />
  <line
     class="arc0"
     id="link33_@0_38"
     x1="131.02267"
     y1="489.77243"
     x2="329.70016"
     y2="501.01752" />
  <line
     class="arc0"
     id="link34_@0_35"
     x1="131.02267"
     y1="489.77243"
     x2="2"
     y2="507.08832" />
  <line
     class="arc2"
     id="link6_@2_18"
     x1="131.02267"
     y1="253.77814"
     x2="131.02267"
     y2="253.77814" />
  <line
     class="arc0"
     id="link6_@0_5"
     x1="131.02267"
     y1="253.77814"
     x2="329.70016"
     y2="265.02319" />
  <line
     class="arc2"
     id="link7_@2_23"
     x1="131.02267"
     y1="253.77814"
     x2="131.02267"
     y2="253.77814" />
  <polygon
     points="822.35004,271.79138 693.3274,289.10727 693.3274,289.10727 494.64987,277.8622 494.64987,277.8622 623.67255,260.54633 822.35004,271.79138 "
     id="face_13_14_15_16_21_20_19_18"
     style="fill:#c0c0c0;stroke:none"
     opacity="1"
     transform="translate(-492.64987,-6.7681885)" />
  <line
     class="arc3"
     id="link18_@3_78"
     x1="131.02267"
     y1="253.77814"
     x2="131.02267"
     y2="223.71393" />
  <line
     class="arc0"
     id="link18_@0_13"
     x1="131.02267"
     y1="253.77814"
     x2="329.70016"
     y2="265.02319" />
  <line
     class="arc2"
     id="link19_@2_24"
     x1="131.02267"
     y1="253.77814"
     x2="131.02267"
     y2="253.77814" />
  <line
     class="arc3"
     id="link19_@3_72"
     x1="131.02267"
     y1="253.77814"
     x2="131.02267"
     y2="223.71393" />
  <line
     class="arc0"
     id="link19_@0_20"
     x1="131.02267"
     y1="253.77814"
     x2="2"
     y2="271.09402" />
  <line
     class="arc0"
     id="link24_@0_25"
     x1="131.02267"
     y1="253.77814"
     x2="2"
     y2="271.09402" />
  <polygon
     points="494.64987,247.79803 693.3274,259.04306 693.3274,259.04306 822.35004,241.7272 822.35004,241.7272 623.67255,230.48212 494.64987,247.79803 "
     id="face_66_60_54_48_90_84_78_72"
     style="fill:#c0c0c0;stroke:none"
     opacity="1"
     transform="translate(-492.64987,-6.7681885)" />
  <line
     class="arc2"
     id="link72_@2_73"
     x1="131.02267"
     y1="223.71393"
     x2="131.02267"
     y2="223.71393" />
  <line
     class="arc0"
     id="link72_@0_66"
     x1="131.02267"
     y1="223.71393"
     x2="2"
     y2="241.02985" />
  <polygon
     points="494.64987,247.79803 658.49994,8.768188 658.49994,8.768188 623.67255,230.48212 494.64987,247.79803 "
     id="face_67_68_69_75_74_73"
     style="fill:#c0c0c0;stroke:none"
     opacity="1"
     transform="translate(-492.64987,-6.7681885)" />
  <line
     class="arc0"
     id="link73_@0_67"
     x1="131.02267"
     y1="223.71393"
     x2="2"
     y2="241.02985" />
  <line
     class="arc2"
     id="link74_@2_80"
     x1="131.02267"
     y1="223.71393"
     x2="131.02267"
     y2="223.71393" />
  <line
     class="arc0"
     id="link74_@0_75"
     x1="131.02267"
     y1="223.71393"
     x2="165.85007"
     y2="2" />
  <line
     class="arc2"
     id="link78_@2_79"
     x1="131.02267"
     y1="223.71393"
     x2="131.02267"
     y2="223.71393" />
  <line
     class="arc0"
     id="link78_@0_84"
     x1="131.02267"
     y1="223.71393"
     x2="329.70016"
     y2="234.95901" />
  <polygon
     points="822.35004,241.7272 658.49994,8.768188 658.49994,8.768188 623.67255,230.48212 822.35004,241.7272 "
     id="face_85_86_87_81_80_79"
     style="fill:#c0c0c0;stroke:none"
     opacity="1"
     transform="translate(-492.64987,-6.7681885)" />
  <line
     class="arc0"
     id="link79_@0_85"
     x1="131.02267"
     y1="223.71393"
     x2="329.70016"
     y2="234.95901" />
  <line
     class="arc0"
     id="link80_@0_81"
     x1="131.02267"
     y1="223.71393"
     x2="165.85007"
     y2="2" />
  <line
     class="arc2"
     id="link2_@2_38"
     x1="329.70016"
     y1="501.01752"
     x2="329.70016"
     y2="501.01752" />
  <line
     class="arc2"
     id="link3_@2_43"
     x1="329.70016"
     y1="501.01752"
     x2="329.70016"
     y2="501.01752" />
  <line
     class="arc0"
     id="link3_@0_4"
     x1="329.70016"
     y1="501.01752"
     x2="329.70016"
     y2="265.02319" />
  <line
     class="arc2"
     id="link39_@2_44"
     x1="329.70016"
     y1="501.01752"
     x2="329.70016"
     y2="501.01752" />
  <line
     class="arc0"
     id="link39_@0_40"
     x1="329.70016"
     y1="501.01752"
     x2="200.67752"
     y2="518.33337" />
  <polygon
     points="822.35004,271.79138 693.3274,289.10727 693.3274,289.10727 693.3274,525.10156 693.3274,525.10156 822.35004,507.7857 822.35004,271.79138 "
     id="face_8_9_10_11_46_45_44_43"
     style="fill:#c0c0c0;stroke:none"
     opacity="1"
     transform="translate(-492.64987,-6.7681885)" />
  <line
     class="arc0"
     id="link43_@0_8"
     x1="329.70016"
     y1="501.01752"
     x2="329.70016"
     y2="265.02319" />
  <line
     class="arc0"
     id="link44_@0_45"
     x1="329.70016"
     y1="501.01752"
     x2="200.67752"
     y2="518.33337" />
  <line
     class="arc2"
     id="link4_@2_8"
     x1="329.70016"
     y1="265.02319"
     x2="329.70016"
     y2="265.02319" />
  <line
     class="arc2"
     id="link5_@2_13"
     x1="329.70016"
     y1="265.02319"
     x2="329.70016"
     y2="265.02319" />
  <line
     class="arc2"
     id="link9_@2_14"
     x1="329.70016"
     y1="265.02319"
     x2="329.70016"
     y2="265.02319" />
  <line
     class="arc0"
     id="link9_@0_10"
     x1="329.70016"
     y1="265.02319"
     x2="200.67752"
     y2="282.33908" />
  <line
     class="arc3"
     id="link13_@3_84"
     x1="329.70016"
     y1="265.02319"
     x2="329.70016"
     y2="234.95901" />
  <line
     class="arc3"
     id="link14_@3_90"
     x1="329.70016"
     y1="265.02319"
     x2="329.70016"
     y2="234.95901" />
  <line
     class="arc0"
     id="link14_@0_15"
     x1="329.70016"
     y1="265.02319"
     x2="200.67752"
     y2="282.33908" />
  <line
     class="arc2"
     id="link84_@2_85"
     x1="329.70016"
     y1="234.95901"
     x2="329.70016"
     y2="234.95901" />
  <line
     class="arc2"
     id="link86_@2_92"
     x1="329.70016"
     y1="234.95901"
     x2="329.70016"
     y2="234.95901" />
  <line
     class="arc0"
     id="link86_@0_87"
     x1="329.70016"
     y1="234.95901"
     x2="165.85007"
     y2="2" />
  <line
     class="arc2"
     id="link90_@2_91"
     x1="329.70016"
     y1="234.95901"
     x2="329.70016"
     y2="234.95901" />
  <line
     class="arc0"
     id="link90_@0_48"
     x1="329.70016"
     y1="234.95901"
     x2="200.67752"
     y2="252.27487" />
  <polygon
     points="693.3274,259.04306 658.49994,8.768188 658.49994,8.768188 822.35004,241.7272 693.3274,259.04306 "
     id="face_49_50_51_93_92_91"
     style="fill:#c0c0c0;stroke:none"
     opacity="1"
     transform="translate(-492.64987,-6.7681885)" />
  <line
     class="arc0"
     id="link91_@0_49"
     x1="329.70016"
     y1="234.95901"
     x2="200.67752"
     y2="252.27487" />
  <line
     class="arc0"
     id="link92_@0_93"
     x1="329.70016"
     y1="234.95901"
     x2="165.85007"
     y2="2" />
  <line
     class="arc2"
     id="link30_@2_35"
     x1="2"
     y1="507.08832"
     x2="2"
     y2="507.08832" />
  <line
     class="arc2"
     id="link31_@2_32"
     x1="2"
     y1="507.08832"
     x2="2"
     y2="507.08832" />
  <line
     class="arc0"
     id="link31_@0_26"
     x1="2"
     y1="507.08832"
     x2="2"
     y2="271.09402" />
  <polygon
     points="494.64987,277.8622 693.3274,289.10727 693.3274,289.10727 693.3274,525.10156 693.3274,525.10156 494.64987,513.8565 494.64987,277.8622 "
     id="face_27_22_17_12_47_42_37_32"
     style="fill:#c0c0c0;stroke:none"
     opacity="1"
     transform="translate(-492.64987,-6.7681885)" />
  <line
     class="arc0"
     id="link32_@0_27"
     x1="2"
     y1="507.08832"
     x2="2"
     y2="271.09402" />
  <line
     class="arc2"
     id="link36_@2_37"
     x1="2"
     y1="507.08832"
     x2="2"
     y2="507.08832" />
  <line
     class="arc0"
     id="link36_@0_41"
     x1="2"
     y1="507.08832"
     x2="200.67752"
     y2="518.33337" />
  <line
     class="arc0"
     id="link37_@0_42"
     x1="2"
     y1="507.08832"
     x2="200.67752"
     y2="518.33337" />
  <line
     class="arc2"
     id="link51_@2_57"
     x1="165.85007"
     y1="2"
     x2="165.85007"
     y2="2" />
  <line
     class="arc0"
     id="link51_@0_50"
     x1="165.85007"
     y1="2"
     x2="200.67752"
     y2="252.27487" />
  <polygon
     points="693.3274,259.04306 494.64987,247.79803 494.64987,247.79803 658.49994,8.768188 693.3274,259.04306 "
     id="face_56_55_61_62_63_57"
     style="fill:#c0c0c0;stroke:none"
     opacity="1"
     transform="translate(-492.64987,-6.7681885)" />
  <line
     class="arc2"
     id="link63_@2_69"
     x1="165.85007"
     y1="2"
     x2="165.85007"
     y2="2" />
  <line
     class="arc0"
     id="link63_@0_62"
     x1="165.85007"
     y1="2"
     x2="2"
     y2="241.02985" />
  <line
     class="arc0"
     id="link69_@0_68"
     x1="165.85007"
     y1="2"
     x2="2"
     y2="241.02985" />
  <line
     class="arc2"
     id="link75_@2_81"
     x1="165.85007"
     y1="2"
     x2="165.85007"
     y2="2" />
  <line
     class="arc2"
     id="link87_@2_93"
     x1="165.85007"
     y1="2"
     x2="165.85007"
     y2="2" />
  <line
     class="arc2"
     id="link20_@2_25"
     x1="2"
     y1="271.09402"
     x2="2"
     y2="271.09402" />
  <line
     class="arc3"
     id="link20_@3_66"
     x1="2"
     y1="271.09402"
     x2="2"
     y2="241.02985" />
  <line
     class="arc2"
     id="link21_@2_22"
     x1="2"
     y1="271.09402"
     x2="2"
     y2="271.09402" />
  <line
     class="arc0"
     id="link21_@0_16"
     x1="2"
     y1="271.09402"
     x2="200.67752"
     y2="282.33908" />
  <line
     class="arc0"
     id="link22_@0_17"
     x1="2"
     y1="271.09402"
     x2="200.67752"
     y2="282.33908" />
  <line
     class="arc2"
     id="link26_@2_27"
     x1="2"
     y1="271.09402"
     x2="2"
     y2="271.09402" />
  <line
     class="arc2"
     id="link60_@2_61"
     x1="2"
     y1="241.02985"
     x2="2"
     y2="241.02985" />
  <line
     class="arc0"
     id="link60_@0_54"
     x1="2"
     y1="241.02985"
     x2="200.67752"
     y2="252.27487" />
  <line
     class="arc0"
     id="link61_@0_55"
     x1="2"
     y1="241.02985"
     x2="200.67752"
     y2="252.27487" />
  <line
     class="arc2"
     id="link62_@2_68"
     x1="2"
     y1="241.02985"
     x2="2"
     y2="241.02985" />
  <line
     class="arc2"
     id="link66_@2_67"
     x1="2"
     y1="241.02985"
     x2="2"
     y2="241.02985" />
  <line
     class="arc2"
     id="link40_@2_45"
     x1="200.67752"
     y1="518.33337"
     x2="200.67752"
     y2="518.33337" />
  <line
     class="arc2"
     id="link41_@2_42"
     x1="200.67752"
     y1="518.33337"
     x2="200.67752"
     y2="518.33337" />
  <line
     class="arc2"
     id="link46_@2_47"
     x1="200.67752"
     y1="518.33337"
     x2="200.67752"
     y2="518.33337" />
  <line
     class="arc0"
     id="link46_@0_11"
     x1="200.67752"
     y1="518.33337"
     x2="200.67752"
     y2="282.33908" />
  <line
     class="arc0"
     id="link47_@0_12"
     x1="200.67752"
     y1="518.33337"
     x2="200.67752"
     y2="282.33908" />
  <line
     class="arc2"
     id="link10_@2_15"
     x1="200.67752"
     y1="282.33908"
     x2="200.67752"
     y2="282.33908" />
  <line
     class="arc2"
     id="link11_@2_12"
     x1="200.67752"
     y1="282.33908"
     x2="200.67752"
     y2="282.33908" />
  <line
     class="arc3"
     id="link15_@3_48"
     x1="200.67752"
     y1="282.33908"
     x2="200.67752"
     y2="252.27487" />
  <line
     class="arc2"
     id="link16_@2_17"
     x1="200.67752"
     y1="282.33908"
     x2="200.67752"
     y2="282.33908" />
  <line
     class="arc2"
     id="link48_@2_49"
     x1="200.67752"
     y1="252.27487"
     x2="200.67752"
     y2="252.27487" />
  <line
     class="arc2"
     id="link50_@2_56"
     x1="200.67752"
     y1="252.27487"
     x2="200.67752"
     y2="252.27487" />
  <line
     class="arc2"
     id="link54_@2_55"
     x1="200.67752"
     y1="252.27487"
     x2="200.67752"
     y2="252.27487" />
  <line
     class="arc3"
     id="link21_@3_60"
     x1="2"
     y1="271.09402"
     x2="2"
     y2="241.02985" />
  <line
     class="arc3"
     id="link16_@3_54"
     x1="200.67752"
     y1="282.33908"
     x2="200.67752"
     y2="252.27487" />
  <line
     class="arc0"
     id="link57_@0_56"
     x1="165.85007"
     y1="2"
     x2="200.67752"
     y2="252.27487" />
</svg>
