<?xml version="1.0" encoding="UTF-8" standalone="no"?>
<svg
   height="833.0946"
   width="472.16806"
   version="1.1"
   id="svg10905"
   sodipodi:docname="decomposition-no-decomp.svg"
   inkscape:version="1.2.2 (b0a8486541, 2022-12-01)"
   xmlns:inkscape="http://www.inkscape.org/namespaces/inkscape"
   xmlns:sodipodi="http://sodipodi.sourceforge.net/DTD/sodipodi-0.dtd"
   xmlns="http://www.w3.org/2000/svg"
   xmlns:svg="http://www.w3.org/2000/svg">
  <defs
     id="defs10909" />
  <sodipodi:namedview
     id="namedview10907"
     pagecolor="#ffffff"
     bordercolor="#000000"
     borderopacity="0.25"
     inkscape:showpageshadow="2"
     inkscape:pageopacity="0.0"
     inkscape:pagecheckerboard="0"
     inkscape:deskcolor="#d1d1d1"
     showgrid="false"
     inkscape:zoom="0.96973094"
     inkscape:cx="-58.779191"
     inkscape:cy="477.96763"
     inkscape:window-width="1908"
     inkscape:window-height="1048"
     inkscape:window-x="5"
     inkscape:window-y="25"
     inkscape:window-maximized="1"
     inkscape:current-layer="svg10905" />
  <path
     id="face_7_6_5_4_3_2_1_0"
     style="fill:#c0c0c0;stroke-width:1.01305"
     d="m 425.37064,433.96806 v 383.67361 0 H 41.697083 V 433.96806 Z" />
  <path
     id="link0_a1_1-6"
     style="stroke:#ff0000;stroke-width:4.0522px"
     d="m 41.697083,817.64162 v 0" />
  <path
     id="link0_a2_0-1"
     style="stroke:#0000ff;stroke-width:4.0522px"
     d="m 41.697083,817.64162 v 0" />
  <path
     id="link0_a3_0-5"
     style="stroke:#008000;stroke-width:4.0522px"
     d="m 41.697083,817.64162 v 0" />
  <path
     id="link0_a0_7-9"
     style="stroke:#000000;stroke-width:4.0522px"
     d="M 41.697083,817.64162 V 433.96807" />
  <path
     id="link1_a2_1-4"
     style="stroke:#0000ff;stroke-width:4.0522px"
     d="m 41.697083,817.64162 v 0" />
  <path
     id="link1_a3_1-9"
     style="stroke:#008000;stroke-width:4.0522px"
     d="m 41.697083,817.64162 v 0" />
  <path
     id="link1_a0_2-0"
     style="stroke:#000000;stroke-width:4.0522px"
     d="M 41.697083,817.64162 H 425.37064" />
  <path
     id="link2_a1_3-9"
     style="stroke:#ff0000;stroke-width:4.0522px"
     d="m 425.37064,817.64162 v 0" />
  <path
     id="link2_a2_2-1"
     style="stroke:#0000ff;stroke-width:4.0522px"
     d="m 425.37064,817.64162 v 0" />
  <path
     id="link2_a3_2-7"
     style="stroke:#008000;stroke-width:4.0522px"
     d="m 425.37064,817.64162 v 0" />
  <path
     id="link3_a2_3-7"
     style="stroke:#0000ff;stroke-width:4.0522px"
     d="m 425.37064,817.64162 v 0" />
  <path
     id="link3_a3_3-1"
     style="stroke:#008000;stroke-width:4.0522px"
     d="m 425.37064,817.64162 v 0" />
  <path
     id="link3_a0_4-1"
     style="stroke:#000000;stroke-width:4.0522px"
     d="M 425.37064,817.64162 V 433.96807" />
  <path
     id="link4_a1_5-5"
     style="stroke:#ff0000;stroke-width:4.0522px"
     d="m 425.37064,433.96807 v 0" />
  <path
     id="link4_a2_4-9"
     style="stroke:#0000ff;stroke-width:4.0522px"
     d="m 425.37064,433.96807 v 0" />
  <path
     id="link4_a3_4-7"
     style="stroke:#008000;stroke-width:4.0522px"
     d="m 425.37064,433.96807 v 0" />
  <path
     id="link5_a2_8"
     style="stroke:#0000ff;stroke-width:4.0522px"
     d="m 425.37064,433.96807 v 0" />
  <path
     id="link5_a3_5-7"
     style="stroke:#008000;stroke-width:4.0522px"
     d="m 425.37064,433.96807 v 0" />
  <path
     id="link5_a0_6-6"
     style="stroke:#000000;stroke-width:4.0522px"
     d="M 425.37064,433.96807 H 41.697083" />
  <path
     id="link6_a1_7-7"
     style="stroke:#ff0000;stroke-width:4.0522px"
     d="m 41.697083,433.96807 v 0" />
  <path
     id="link6_a2_12"
     style="stroke:#0000ff;stroke-width:4.0522px"
     d="m 41.697083,433.96807 v 0" />
  <path
     id="link6_a3_6-3"
     style="stroke:#008000;stroke-width:4.0522px"
     d="m 41.697083,433.96807 v 0" />
  <path
     id="link7_a2_7-6"
     style="stroke:#0000ff;stroke-width:4.0522px"
     d="m 41.697083,433.96807 v 0" />
  <path
     id="link7_a3_7-5"
     style="stroke:#008000;stroke-width:4.0522px"
     d="m 41.697083,433.96807 v 0" />
  <path
     id="face_12_13_14_10_9_8"
     style="fill:#c0c0c0;stroke-width:1.01305"
     d="M 233.53392,50.294431 425.37064,433.96806 H 41.697083 Z" />
  <path
     id="link8_a1_9-6"
     style="stroke:#ff0000;stroke-width:4.0522px"
     d="m 425.37064,433.96807 v 0" />
  <path
     id="link8_a3_8-3"
     style="stroke:#008000;stroke-width:4.0522px"
     d="m 425.37064,433.96807 v 0" />
  <path
     id="link8_a0_12-9"
     style="stroke:#000000;stroke-width:4.0522px"
     d="M 425.37064,433.96807 H 41.697083" />
  <path
     id="link9_a2_9-4"
     style="stroke:#0000ff;stroke-width:4.0522px"
     d="m 425.37064,433.96807 v 0" />
  <path
     id="link9_a3_9-8"
     style="stroke:#008000;stroke-width:4.0522px"
     d="m 425.37064,433.96807 v 0" />
  <path
     id="link9_a0_10-1"
     style="stroke:#000000;stroke-width:4.0522px"
     d="M 425.37064,433.96807 233.53382,50.294431" />
  <path
     id="link10_a1_14-2"
     style="stroke:#ff0000;stroke-width:4.0522px"
     d="m 233.53382,50.294431 v 0" />
  <path
     id="link10_a2_10-9"
     style="stroke:#0000ff;stroke-width:4.0522px"
     d="m 233.53382,50.294431 v 0" />
  <path
     id="link10_a3_10-3"
     style="stroke:#008000;stroke-width:4.0522px"
     d="m 233.53382,50.294431 v 0" />
  <path
     id="link12_a1_13-9"
     style="stroke:#ff0000;stroke-width:4.0522px"
     d="m 41.697083,433.96807 v 0" />
  <path
     id="link12_a3_12-0"
     style="stroke:#008000;stroke-width:4.0522px"
     d="m 41.697083,433.96807 v 0" />
  <path
     id="link13_a2_13-8"
     style="stroke:#0000ff;stroke-width:4.0522px"
     d="m 41.697083,433.96807 v 0" />
  <path
     id="link13_a3_13-8"
     style="stroke:#008000;stroke-width:4.0522px"
     d="m 41.697083,433.96807 v 0" />
  <path
     id="link13_a0_14-5"
     style="stroke:#000000;stroke-width:4.0522px"
     d="M 41.697083,433.96807 233.53382,50.294431" />
  <path
     id="link14_a2_14-0"
     style="stroke:#0000ff;stroke-width:4.0522px"
     d="m 233.53382,50.294431 v 0" />
  <path
     id="link14_a3_14-9"
     style="stroke:#008000;stroke-width:4.0522px"
     d="m 233.53382,50.294431 v 0" />
  <g
     aria-label="A"
     id="text10913"
     style="font-size:37.3333px;-inkscape-font-specification:'sans-serif, Normal';stroke-width:1.33333;stroke-linecap:round;stroke-linejoin:bevel;stop-color:#000000"
     transform="matrix(1.01305,0,0,1.01305,2.9099527e-6,-2.273473e-5)">
    <path
       d="m 240.66415,26.768 -3.21066,-8.25066 H 226.88817 L 223.71484,26.768 H 220.3175 L 230.7335,2.2441864e-5 h 3.02399 L 244.13615,26.768 Z M 233.45883,7.4666828 q -0.112,-0.2986665 -0.37334,-1.0826658 -0.26133,-0.7839993 -0.52266,-1.605332 -0.224,-0.8586659 -0.37334,-1.3066655 -0.18666,0.746666 -0.41066,1.5306653 -0.18667,0.7466661 -0.41067,1.3813322 -0.18666,0.6346661 -0.336,1.0826658 l -3.02399,8.0639932 h 8.43732 z"
       id="path1624" />
  </g>
  <g
     aria-label="B"
     id="text10917"
     style="font-size:37.3333px;-inkscape-font-specification:'sans-serif, Normal';stroke-width:1.33333;stroke-linecap:round;stroke-linejoin:bevel;stop-color:#000000"
     transform="matrix(1.01305,0,0,1.01305,2.9099527e-6,-2.273473e-5)">
    <path
       d="m 7.6159906,401.7218 q 5.0026624,0 7.5413274,1.49333 2.575997,1.456 2.575997,5.11466 0,1.568 -0.597332,2.8 -0.56,1.19467 -1.717332,2.016 -1.119999,0.784 -2.762665,1.08267 v 0.18666 q 1.679999,0.26134 3.023998,0.97067 1.381332,0.70933 2.165331,2.016 0.784,1.30666 0.784,3.39733 0,2.42666 -1.119999,4.14399 -1.119999,1.68 -3.210664,2.576 -2.053332,0.85867 -4.9279962,0.85867 H -2.872467e-6 V 401.7218 Z m 0.6719995,11.34932 q 3.4346639,0 4.7039959,-1.08266 1.269332,-1.12 1.269332,-3.28533 0,-2.20267 -1.567998,-3.136 -1.530666,-0.97067 -4.9279962,-0.97067 H 3.3599943 v 8.47466 z m -4.9279958,2.8 v 9.66933 h 5.3759954 q 3.5466633,0 4.9279953,-1.38134 1.381333,-1.38133 1.381333,-3.62133 0,-1.41866 -0.634666,-2.46399 -0.597333,-1.04534 -2.053332,-1.60534 -1.418666,-0.59733 -3.8826634,-0.59733 z"
       id="path1621" />
  </g>
  <g
     aria-label="C"
     id="text10921"
     style="font-size:37.3333px;-inkscape-font-specification:'sans-serif, Normal';stroke-width:1.33333;stroke-linecap:round;stroke-linejoin:bevel;stop-color:#000000"
     transform="matrix(1.01305,0,0,1.01305,2.9099527e-6,-2.273473e-5)">
    <path
       d="m 458.69364,404.2978 q -2.128,0 -3.84533,0.74666 -1.71734,0.70934 -2.912,2.128 -1.19467,1.38133 -1.82933,3.39733 -0.63467,1.97867 -0.63467,4.48 0,3.28533 1.008,5.71199 1.04533,2.42667 3.06133,3.73333 2.05333,1.30667 5.11466,1.30667 1.75467,0 3.32267,-0.29867 1.568,-0.29866 3.06133,-0.74666 v 2.91199 q -1.49333,0.56 -3.09867,0.82134 -1.568,0.26133 -3.77066,0.26133 -4.06933,0 -6.79466,-1.68 -2.72533,-1.68 -4.10666,-4.77866 -1.344,-3.09867 -1.344,-7.27999 0,-3.024 0.82133,-5.52533 0.85867,-2.50133 2.464,-4.33067 1.64266,-1.82933 4.03199,-2.79999 2.38934,-1.008 5.488,-1.008 2.05333,0 3.95733,0.41066 1.904,0.41067 3.39733,1.15734 l -1.344,2.83733 q -1.232,-0.56 -2.76266,-1.008 -1.49334,-0.448 -3.28533,-0.448 z"
       id="path1618" />
  </g>
  <g
     aria-label="D"
     id="text10925"
     style="font-size:37.3333px;-inkscape-font-specification:'sans-serif, Normal';stroke-width:1.33333;stroke-linecap:round;stroke-linejoin:bevel;stop-color:#000000"
     transform="matrix(1.01305,0,0,1.01305,2.9099527e-6,-2.273473e-5)">
    <path
       d="m 29.338654,808.77347 q 0,4.48 -1.679998,7.50399 -1.642665,3.024 -4.741329,4.55467 -3.098664,1.53066 -7.503994,1.53066 H 7.9840059 v -26.65597 h 8.2133261 q 4.031997,0 6.981328,1.49333 2.94933,1.49333 4.554662,4.40533 1.605332,2.87466 1.605332,7.16799 z m -3.546663,0.112 q 0,-3.54666 -1.194666,-5.82399 -1.157332,-2.27734 -3.434664,-3.36 -2.239998,-1.12 -5.450662,-1.12 h -4.367996 v 20.90665 h 3.62133 q 5.413329,0 8.101327,-2.65067 2.725331,-2.68799 2.725331,-7.95199 z"
       id="path1615" />
  </g>
  <g
     aria-label="E"
     id="text10929"
     style="font-size:37.3333px;-inkscape-font-specification:'sans-serif, Normal';stroke-width:1.33333;stroke-linecap:round;stroke-linejoin:bevel;stop-color:#000000"
     transform="matrix(1.01305,0,0,1.01305,2.9099527e-6,-2.273473e-5)">
    <path
       d="m 463.26964,822.36279 h -14.89599 v -26.65597 h 14.89599 v 2.94933 h -11.53599 v 8.32532 h 10.86399 v 2.912 h -10.86399 v 9.51999 h 11.53599 z"
       id="path1612" />
  </g>
</svg>
