<?xml version="1.0" encoding="UTF-8" standalone="no"?>
<!-- Created with Jerboa -->

<svg
	width="660"
	height="636" >
	<style id="style">
		.arc0 {
			fill:none;
			fill-rule:evenodd;
			stroke:black;
			stroke-width:4;
			stroke-linecap:round;
			stroke-linejoin:round;
			stroke-opacity:1;
		}
		.arc1 {
			fill:none;
			fill-rule:evenodd;
			stroke:red;
			stroke-width:4;
			stroke-linecap:round;
			stroke-linejoin:round;
			stroke-opacity:1;
		}
		.arc2 {
			fill:none;
			fill-rule:evenodd;
			stroke:blue;
			stroke-width:4;
			stroke-linecap:round;
			stroke-linejoin:round;
			stroke-opacity:1;
		}
		.arc3 {
			fill:none;
			fill-rule:evenodd;
			stroke:green;
			stroke-width:4;
			stroke-linecap:round;
			stroke-linejoin:round;
			stroke-opacity:1;
		}
		.topological-dart {
			fill:#000000;
			stroke:#000000;
			stroke-width:0;
			stroke-linecap:round;
			stroke-linejoin:round;
			stroke-dasharray:none;
			paint-order:markers fill stroke;
		}
	</style>
<polygon
	points="67.52395,376.88373 67.52395,150.82047 75.84957,141.40228 266.16638,152.1741 274.49203,162.53479 274.49203,388.59802 266.16638,398.0162 75.84957,387.24432 "
	id="face_66_67_62_61_60_59_64_65"
	style="fill:rgb(192,192,192);stroke:none"
	opacity="1.0" />
<line
	class="arc1"
	id="link65_@1_64"
	x1="67.52395"
	y1="376.88373"
	x2="75.84957"
	y2="387.24432" />
<line
	class="arc2"
	id="link65_@2_70"
	x1="67.52395"
	y1="376.88373"
	x2="53.791588"
	y2="377.1381" />
<line
	class="arc0"
	id="link65_@0_66"
	x1="67.52395"
	y1="376.88373"
	x2="67.52395"
	y2="150.82047" />
<polygon
	points="53.791588,377.1381 53.791588,151.07489 48.38487,141.91104 -75.208305,158.49829 -80.61503,169.11331 -80.61503,395.17657 -75.208305,404.34033 48.38487,387.75314 "
	id="face_71_72_77_76_75_74_69_70"
	style="fill:rgb(192,192,192);stroke:none"
	opacity="1.0" />
<line
	class="arc1"
	id="link70_@1_69"
	x1="53.791588"
	y1="377.1381"
	x2="48.38487"
	y2="387.75314" />
<line
	class="arc0"
	id="link70_@0_71"
	x1="53.791588"
	y1="377.1381"
	x2="53.791588"
	y2="151.07489" />
<line
	class="arc2"
	id="link64_@2_0"
	x1="75.84957"
	y1="387.24432"
	x2="70.44285"
	y2="397.85938" />
<line
	class="arc0"
	id="link64_@0_59"
	x1="75.84957"
	y1="387.24432"
	x2="266.16638"
	y2="398.0162" />
<line
	class="arc2"
	id="link69_@2_1"
	x1="48.38487"
	y1="387.75314"
	x2="56.710487"
	y2="398.11377" />
<line
	class="arc0"
	id="link69_@0_74"
	x1="48.38487"
	y1="387.75314"
	x2="-75.208305"
	y2="404.34033" />
<polygon
	points="70.44285,397.85938 260.75964,408.63123 263.67856,409.82806 140.0854,426.41528 126.353004,426.66968 -63.963787,415.89783 -66.88267,414.701 56.710487,398.11377 "
	id="face_7_6_5_4_3_2_1_0"
	style="fill:rgb(192,192,192);stroke:none"
	opacity="1.0" />
<line
	class="arc1"
	id="link0_@1_1"
	x1="70.44285"
	y1="397.85938"
	x2="56.710487"
	y2="398.11377" />
<line
	class="arc0"
	id="link0_@0_7"
	x1="70.44285"
	y1="397.85938"
	x2="260.75964"
	y2="408.63123" />
<line
	class="arc0"
	id="link1_@0_2"
	x1="56.710487"
	y1="398.11377"
	x2="-66.88267"
	y2="414.701" />
<line
	class="arc1"
	id="link66_@1_67"
	x1="67.52395"
	y1="150.82047"
	x2="75.84957"
	y2="141.40228" />
<line
	class="arc2"
	id="link66_@2_71"
	x1="67.52395"
	y1="150.82047"
	x2="53.791588"
	y2="151.07489" />
<line
	class="arc1"
	id="link71_@1_72"
	x1="53.791588"
	y1="151.07489"
	x2="48.38487"
	y2="141.91104" />
<line
	class="arc2"
	id="link67_@2_68"
	x1="75.84957"
	y1="141.40228"
	x2="70.44285"
	y2="132.23853" />
<line
	class="arc0"
	id="link67_@0_62"
	x1="75.84957"
	y1="141.40228"
	x2="266.16638"
	y2="152.1741" />
<line
	class="arc2"
	id="link72_@2_73"
	x1="48.38487"
	y1="141.91104"
	x2="56.710487"
	y2="132.49295" />
<line
	class="arc0"
	id="link72_@0_77"
	x1="48.38487"
	y1="141.91104"
	x2="-75.208305"
	y2="158.49829" />
<polygon
	points="70.44285,132.23853 260.75964,143.0104 263.67856,144.20724 140.0854,160.79443 126.353004,161.04886 -63.963787,150.27701 -66.88267,149.08014 56.710487,132.49295 "
	id="face_63_58_53_48_83_78_73_68"
	style="fill:rgb(192,192,192);stroke:none"
	opacity="1.0" />
<line
	class="arc1"
	id="link68_@1_73"
	x1="70.44285"
	y1="132.23853"
	x2="56.710487"
	y2="132.49295" />
<line
	class="arc0"
	id="link68_@0_63"
	x1="70.44285"
	y1="132.23853"
	x2="260.75964"
	y2="143.0104" />
<line
	class="arc0"
	id="link73_@0_78"
	x1="56.710487"
	y1="132.49295"
	x2="-66.88267"
	y2="149.08014" />
<line
	class="arc1"
	id="link59_@1_60"
	x1="266.16638"
	y1="398.0162"
	x2="274.49203"
	y2="388.59802" />
<line
	class="arc2"
	id="link59_@2_7"
	x1="266.16638"
	y1="398.0162"
	x2="260.75964"
	y2="408.63123" />
<line
	class="arc2"
	id="link60_@2_55"
	x1="274.49203"
	y1="388.59802"
	x2="277.41092"
	y2="389.79486" />
<line
	class="arc0"
	id="link60_@0_61"
	x1="274.49203"
	y1="388.59802"
	x2="274.49203"
	y2="162.53479" />
<line
	class="arc1"
	id="link7_@1_6"
	x1="260.75964"
	y1="408.63123"
	x2="263.67856"
	y2="409.82806" />
<polygon
	points="277.41092,389.79486 277.41092,163.73166 272.00418,154.56784 148.41103,171.15503 143.00429,181.77011 143.00429,407.83334 148.41103,416.99707 272.00418,400.4099 "
	id="face_56_57_52_51_50_49_54_55"
	style="fill:rgb(192,192,192);stroke:none"
	opacity="1.0" />
<line
	class="arc1"
	id="link55_@1_54"
	x1="277.41092"
	y1="389.79486"
	x2="272.00418"
	y2="400.4099" />
<line
	class="arc0"
	id="link55_@0_56"
	x1="277.41092"
	y1="389.79486"
	x2="277.41092"
	y2="163.73166" />
<line
	class="arc2"
	id="link6_@2_54"
	x1="263.67856"
	y1="409.82806"
	x2="272.00418"
	y2="400.4099" />
<line
	class="arc0"
	id="link6_@0_5"
	x1="263.67856"
	y1="409.82806"
	x2="140.0854"
	y2="426.41528" />
<line
	class="arc1"
	id="link62_@1_61"
	x1="266.16638"
	y1="152.1741"
	x2="274.49203"
	y2="162.53479" />
<line
	class="arc2"
	id="link62_@2_63"
	x1="266.16638"
	y1="152.1741"
	x2="260.75964"
	y2="143.0104" />
<line
	class="arc2"
	id="link61_@2_56"
	x1="274.49203"
	y1="162.53479"
	x2="277.41092"
	y2="163.73166" />
<line
	class="arc0"
	id="link54_@0_49"
	x1="272.00418"
	y1="400.4099"
	x2="148.41103"
	y2="416.99707" />
<line
	class="arc1"
	id="link63_@1_58"
	x1="260.75964"
	y1="143.0104"
	x2="263.67856"
	y2="144.20724" />
<line
	class="arc1"
	id="link56_@1_57"
	x1="277.41092"
	y1="163.73166"
	x2="272.00418"
	y2="154.56784" />
<line
	class="arc2"
	id="link58_@2_57"
	x1="263.67856"
	y1="144.20724"
	x2="272.00418"
	y2="154.56784" />
<line
	class="arc0"
	id="link58_@0_53"
	x1="263.67856"
	y1="144.20724"
	x2="140.0854"
	y2="160.79443" />
<line
	class="arc0"
	id="link57_@0_52"
	x1="272.00418"
	y1="154.56784"
	x2="148.41103"
	y2="171.15503" />
<line
	class="arc1"
	id="link5_@1_4"
	x1="140.0854"
	y1="426.41528"
	x2="126.353004"
	y2="426.66968" />
<line
	class="arc2"
	id="link5_@2_49"
	x1="140.0854"
	y1="426.41528"
	x2="148.41103"
	y2="416.99707" />
<line
	class="arc2"
	id="link4_@2_44"
	x1="126.353004"
	y1="426.66968"
	x2="120.946304"
	y2="417.50592" />
<line
	class="arc0"
	id="link4_@0_3"
	x1="126.353004"
	y1="426.66968"
	x2="-63.963787"
	y2="415.89783" />
<line
	class="arc1"
	id="link49_@1_50"
	x1="148.41103"
	y1="416.99707"
	x2="143.00429"
	y2="407.83334" />
<polygon
	points="120.946304,417.50592 -69.37051,406.73407 -77.69615,396.3734 -77.69615,170.31021 -69.37051,160.89197 120.946304,171.66385 129.27194,182.02448 129.27194,408.0877 "
	id="face_79_80_81_82_47_46_45_44"
	style="fill:rgb(192,192,192);stroke:none"
	opacity="1.0" />
<line
	class="arc1"
	id="link44_@1_45"
	x1="120.946304"
	y1="417.50592"
	x2="129.27194"
	y2="408.0877" />
<line
	class="arc0"
	id="link44_@0_79"
	x1="120.946304"
	y1="417.50592"
	x2="-69.37051"
	y2="406.73407" />
<line
	class="arc2"
	id="link50_@2_45"
	x1="143.00429"
	y1="407.83334"
	x2="129.27194"
	y2="408.0877" />
<line
	class="arc0"
	id="link50_@0_51"
	x1="143.00429"
	y1="407.83334"
	x2="143.00429"
	y2="181.77011" />
<line
	class="arc0"
	id="link45_@0_46"
	x1="129.27194"
	y1="408.0877"
	x2="129.27194"
	y2="182.02448" />
<line
	class="arc1"
	id="link53_@1_48"
	x1="140.0854"
	y1="160.79443"
	x2="126.353004"
	y2="161.04886" />
<line
	class="arc2"
	id="link53_@2_52"
	x1="140.0854"
	y1="160.79443"
	x2="148.41103"
	y2="171.15503" />
<line
	class="arc2"
	id="link48_@2_47"
	x1="126.353004"
	y1="161.04886"
	x2="120.946304"
	y2="171.66385" />
<line
	class="arc0"
	id="link48_@0_83"
	x1="126.353004"
	y1="161.04886"
	x2="-63.963787"
	y2="150.27701" />
<line
	class="arc1"
	id="link52_@1_51"
	x1="148.41103"
	y1="171.15503"
	x2="143.00429"
	y2="181.77011" />
<line
	class="arc1"
	id="link47_@1_46"
	x1="120.946304"
	y1="171.66385"
	x2="129.27194"
	y2="182.02448" />
<line
	class="arc0"
	id="link47_@0_82"
	x1="120.946304"
	y1="171.66385"
	x2="-69.37051"
	y2="160.89197" />
<line
	class="arc2"
	id="link51_@2_46"
	x1="143.00429"
	y1="181.77011"
	x2="129.27194"
	y2="182.02448" />
</svg>
