<?xml version="1.0" encoding="UTF-8" standalone="no"?>
<!-- Created with Jerboa -->

<svg
	width="660"
	height="636" >
	<style id="style">
		.arc0 {
			fill:none;
			fill-rule:evenodd;
			stroke:black;
			stroke-width:4;
			stroke-linecap:round;
			stroke-linejoin:round;
			stroke-opacity:1;
		}
		.arc1 {
			fill:none;
			fill-rule:evenodd;
			stroke:red;
			stroke-width:4;
			stroke-linecap:round;
			stroke-linejoin:round;
			stroke-opacity:1;
		}
		.arc2 {
			fill:none;
			fill-rule:evenodd;
			stroke:blue;
			stroke-width:4;
			stroke-linecap:round;
			stroke-linejoin:round;
			stroke-opacity:1;
		}
		.arc3 {
			fill:none;
			fill-rule:evenodd;
			stroke:green;
			stroke-width:4;
			stroke-linecap:round;
			stroke-linejoin:round;
			stroke-opacity:1;
		}
		.topological-dart {
			fill:#000000;
			stroke:#000000;
			stroke-width:0;
			stroke-linecap:round;
			stroke-linejoin:round;
			stroke-dasharray:none;
			paint-order:markers fill stroke;
		}
	</style>
<polygon
	points="281.57248,415.1175 281.57248,161.77408 363.88373,68.66144 577.16705,80.733154 659.4783,183.16336 659.4783,436.50684 577.16705,529.61945 363.88373,517.5477 "
	id="face_35_36_41_40_39_38_33_34"
	style="fill:rgb(192,192,192);stroke:none"
	opacity="1.0" />
<line
	class="arc1"
	id="link34_@1_33"
	x1="281.57248"
	y1="415.1175"
	x2="363.88373"
	y2="517.5477" />
<line
	class="arc2"
	id="link34_@2_29"
	x1="281.57248"
	y1="415.1175"
	x2="236.31755"
	y2="415.95587" />
<line
	class="arc0"
	id="link34_@0_35"
	x1="281.57248"
	y1="415.1175"
	x2="281.57248"
	y2="161.77408" />
<polygon
	points="236.31755,415.95587 236.31755,162.61246 182.86401,72.01489 44.35623,90.60376 -9.097317,195.5491 -9.097317,448.89252 44.35623,539.49005 182.86401,520.90125 "
	id="face_30_31_26_25_24_23_28_29"
	style="fill:rgb(192,192,192);stroke:none"
	opacity="1.0" />
<line
	class="arc1"
	id="link29_@1_28"
	x1="236.31755"
	y1="415.95587"
	x2="182.86401"
	y2="520.90125" />
<line
	class="arc0"
	id="link29_@0_30"
	x1="236.31755"
	y1="415.95587"
	x2="236.31755"
	y2="162.61246" />
<line
	class="arc1"
	id="link35_@1_36"
	x1="281.57248"
	y1="161.77408"
	x2="363.88373"
	y2="68.66144" />
<line
	class="arc2"
	id="link35_@2_30"
	x1="281.57248"
	y1="161.77408"
	x2="236.31755"
	y2="162.61246" />
<line
	class="arc1"
	id="link30_@1_31"
	x1="236.31755"
	y1="162.61246"
	x2="182.86401"
	y2="72.01489" />
<line
	class="arc2"
	id="link33_@2_0"
	x1="363.88373"
	y1="517.5477"
	x2="346.0659"
	y2="552.5295" />
<line
	class="arc0"
	id="link33_@0_38"
	x1="363.88373"
	y1="517.5477"
	x2="577.16705"
	y2="529.61945" />
<polygon
	points="346.0659,552.5295 559.3492,564.60126 588.20685,576.43396 449.6991,595.02277 313.93433,597.5379 100.651024,585.4661 71.79332,573.6335 210.3011,555.0446 "
	id="face_7_6_5_4_3_2_1_0"
	style="fill:rgb(192,192,192);stroke:none"
	opacity="1.0" />
<line
	class="arc1"
	id="link0_@1_1"
	x1="346.0659"
	y1="552.5295"
	x2="210.3011"
	y2="555.0446" />
<line
	class="arc0"
	id="link0_@0_7"
	x1="346.0659"
	y1="552.5295"
	x2="559.3492"
	y2="564.60126" />
<line
	class="arc2"
	id="link28_@2_1"
	x1="182.86401"
	y1="520.90125"
	x2="210.3011"
	y2="555.0446" />
<line
	class="arc0"
	id="link28_@0_23"
	x1="182.86401"
	y1="520.90125"
	x2="44.35623"
	y2="539.49005" />
<line
	class="arc2"
	id="link36_@2_37"
	x1="363.88373"
	y1="68.66144"
	x2="346.0659"
	y2="38.46234" />
<line
	class="arc0"
	id="link36_@0_41"
	x1="363.88373"
	y1="68.66144"
	x2="577.16705"
	y2="80.733154" />
<line
	class="arc0"
	id="link1_@0_2"
	x1="210.3011"
	y1="555.0446"
	x2="71.79332"
	y2="573.6335" />
<polygon
	points="346.0659,38.46234 559.3492,50.53412 588.20685,62.36682 449.6991,80.95563 313.93433,83.470764 100.651024,71.39905 71.79332,59.566345 210.3011,40.977478 "
	id="face_42_47_12_17_22_27_32_37"
	style="fill:rgb(192,192,192);stroke:none"
	opacity="1.0" />
<line
	class="arc1"
	id="link37_@1_32"
	x1="346.0659"
	y1="38.46234"
	x2="210.3011"
	y2="40.977478" />
<line
	class="arc0"
	id="link37_@0_42"
	x1="346.0659"
	y1="38.46234"
	x2="559.3492"
	y2="50.53412" />
<line
	class="arc2"
	id="link31_@2_32"
	x1="182.86401"
	y1="72.01489"
	x2="210.3011"
	y2="40.977478" />
<line
	class="arc0"
	id="link31_@0_26"
	x1="182.86401"
	y1="72.01489"
	x2="44.35623"
	y2="90.60376" />
<line
	class="arc0"
	id="link32_@0_27"
	x1="210.3011"
	y1="40.977478"
	x2="71.79332"
	y2="59.566345" />
<line
	class="arc1"
	id="link38_@1_39"
	x1="577.16705"
	y1="529.61945"
	x2="659.4783"
	y2="436.50684" />
<line
	class="arc2"
	id="link38_@2_7"
	x1="577.16705"
	y1="529.61945"
	x2="559.3492"
	y2="564.60126" />
<line
	class="arc1"
	id="link7_@1_6"
	x1="559.3492"
	y1="564.60126"
	x2="588.20685"
	y2="576.43396" />
<line
	class="arc1"
	id="link41_@1_40"
	x1="577.16705"
	y1="80.733154"
	x2="659.4783"
	y2="183.16336" />
<line
	class="arc2"
	id="link41_@2_42"
	x1="577.16705"
	y1="80.733154"
	x2="559.3492"
	y2="50.53412" />
<line
	class="arc2"
	id="link39_@2_44"
	x1="659.4783"
	y1="436.50684"
	x2="669.0974"
	y2="440.45105" />
<line
	class="arc0"
	id="link39_@0_40"
	x1="659.4783"
	y1="436.50684"
	x2="659.4783"
	y2="183.16336" />
<line
	class="arc1"
	id="link42_@1_47"
	x1="559.3492"
	y1="50.53412"
	x2="588.20685"
	y2="62.36682" />
<line
	class="arc2"
	id="link40_@2_45"
	x1="659.4783"
	y1="183.16336"
	x2="669.0974"
	y2="187.1076" />
<line
	class="arc1"
	id="link23_@1_24"
	x1="44.35623"
	y1="539.49005"
	x2="-9.097317"
	y2="448.89252" />
<line
	class="arc2"
	id="link23_@2_2"
	x1="44.35623"
	y1="539.49005"
	x2="71.79332"
	y2="573.6335" />
<line
	class="arc1"
	id="link2_@1_3"
	x1="71.79332"
	y1="573.6335"
	x2="100.651024"
	y2="585.4661" />
<line
	class="arc1"
	id="link26_@1_25"
	x1="44.35623"
	y1="90.60376"
	x2="-9.097317"
	y2="195.5491" />
<line
	class="arc2"
	id="link26_@2_27"
	x1="44.35623"
	y1="90.60376"
	x2="71.79332"
	y2="59.566345" />
<line
	class="arc2"
	id="link6_@2_43"
	x1="588.20685"
	y1="576.43396"
	x2="615.64386"
	y2="545.39636" />
<line
	class="arc0"
	id="link6_@0_5"
	x1="588.20685"
	y1="576.43396"
	x2="449.6991"
	y2="595.02277" />
<line
	class="arc1"
	id="link27_@1_22"
	x1="71.79332"
	y1="59.566345"
	x2="100.651024"
	y2="71.39905" />
<polygon
	points="615.64386,545.39636 477.13605,563.9852 423.68253,473.3877 423.68253,220.04425 477.13605,115.09888 615.64386,96.51007 669.0974,187.1076 669.0974,440.45105 "
	id="face_8_9_10_11_46_45_44_43"
	style="fill:rgb(192,192,192);stroke:none"
	opacity="1.0" />
<line
	class="arc1"
	id="link43_@1_44"
	x1="615.64386"
	y1="545.39636"
	x2="669.0974"
	y2="440.45105" />
<line
	class="arc0"
	id="link43_@0_8"
	x1="615.64386"
	y1="545.39636"
	x2="477.13605"
	y2="563.9852" />
<line
	class="arc2"
	id="link47_@2_46"
	x1="588.20685"
	y1="62.36682"
	x2="615.64386"
	y2="96.51007" />
<line
	class="arc0"
	id="link47_@0_12"
	x1="588.20685"
	y1="62.36682"
	x2="449.6991"
	y2="80.95563" />
<line
	class="arc1"
	id="link46_@1_45"
	x1="615.64386"
	y1="96.51007"
	x2="669.0974"
	y2="187.1076" />
<line
	class="arc0"
	id="link46_@0_11"
	x1="615.64386"
	y1="96.51007"
	x2="477.13605"
	y2="115.09888" />
<polygon
	points="0.52199006,452.83673 0.52199006,199.49332 82.833244,106.38068 296.11655,118.45239 378.42776,220.8826 378.42776,474.22607 296.11655,567.3387 82.833244,555.26697 "
	id="face_20_21_16_15_14_13_18_19"
	style="fill:rgb(192,192,192);stroke:none"
	opacity="1.0" />
<line
	class="arc1"
	id="link19_@1_18"
	x1="0.52199006"
	y1="452.83673"
	x2="82.833244"
	y2="555.26697" />
<line
	class="arc2"
	id="link19_@2_24"
	x1="0.52199006"
	y1="452.83673"
	x2="-9.097317"
	y2="448.89252" />
<line
	class="arc0"
	id="link19_@0_20"
	x1="0.52199006"
	y1="452.83673"
	x2="0.52199006"
	y2="199.49332" />
<line
	class="arc2"
	id="link3_@2_18"
	x1="100.651024"
	y1="585.4661"
	x2="82.833244"
	y2="555.26697" />
<line
	class="arc0"
	id="link3_@0_4"
	x1="100.651024"
	y1="585.4661"
	x2="313.93433"
	y2="597.5379" />
<line
	class="arc1"
	id="link20_@1_21"
	x1="0.52199006"
	y1="199.49332"
	x2="82.833244"
	y2="106.38068" />
<line
	class="arc2"
	id="link20_@2_25"
	x1="0.52199006"
	y1="199.49332"
	x2="-9.097317"
	y2="195.5491" />
<line
	class="arc0"
	id="link18_@0_13"
	x1="82.833244"
	y1="555.26697"
	x2="296.11655"
	y2="567.3387" />
<line
	class="arc2"
	id="link22_@2_21"
	x1="100.651024"
	y1="71.39905"
	x2="82.833244"
	y2="106.38068" />
<line
	class="arc0"
	id="link22_@0_17"
	x1="100.651024"
	y1="71.39905"
	x2="313.93433"
	y2="83.470764" />
<line
	class="arc0"
	id="link21_@0_16"
	x1="82.833244"
	y1="106.38068"
	x2="296.11655"
	y2="118.45239" />
<line
	class="arc1"
	id="link5_@1_4"
	x1="449.6991"
	y1="595.02277"
	x2="313.93433"
	y2="597.5379" />
<line
	class="arc2"
	id="link5_@2_8"
	x1="449.6991"
	y1="595.02277"
	x2="477.13605"
	y2="563.9852" />
<circle
	id="dart5"
	cx="449.6991"
	cy="595.02277"
	r="10"
	stroke="black"
	fill="rgb(0,0,0)" />
<line
	class="arc1"
	id="link8_@1_9"
	x1="477.13605"
	y1="563.9852"
	x2="423.68253"
	y2="473.3877" />
<line
	class="arc2"
	id="link4_@2_13"
	x1="313.93433"
	y1="597.5379"
	x2="296.11655"
	y2="567.3387" />
<line
	class="arc1"
	id="link12_@1_17"
	x1="449.6991"
	y1="80.95563"
	x2="313.93433"
	y2="83.470764" />
<line
	class="arc2"
	id="link12_@2_11"
	x1="449.6991"
	y1="80.95563"
	x2="477.13605"
	y2="115.09888" />
<line
	class="arc1"
	id="link13_@1_14"
	x1="296.11655"
	y1="567.3387"
	x2="378.42776"
	y2="474.22607" />
<line
	class="arc1"
	id="link11_@1_10"
	x1="477.13605"
	y1="115.09888"
	x2="423.68253"
	y2="220.04425" />
<line
	class="arc2"
	id="link17_@2_16"
	x1="313.93433"
	y1="83.470764"
	x2="296.11655"
	y2="118.45239" />
<line
	class="arc1"
	id="link16_@1_15"
	x1="296.11655"
	y1="118.45239"
	x2="378.42776"
	y2="220.8826" />
<line
	class="arc2"
	id="link9_@2_14"
	x1="423.68253"
	y1="473.3877"
	x2="378.42776"
	y2="474.22607" />
<line
	class="arc0"
	id="link9_@0_10"
	x1="423.68253"
	y1="473.3877"
	x2="423.68253"
	y2="220.04425" />
<line
	class="arc0"
	id="link14_@0_15"
	x1="378.42776"
	y1="474.22607"
	x2="378.42776"
	y2="220.8826" />
<line
	class="arc2"
	id="link10_@2_15"
	x1="423.68253"
	y1="220.04425"
	x2="378.42776"
	y2="220.8826" />
</svg>
