<?xml version="1.0" encoding="UTF-8" standalone="no"?>
<!-- Created with Jerboa -->

<svg
   width="788.5816"
   height="329.29819"
   version="1.1"
   id="svg1"
   sodipodi:docname="g-carte-couture-a3-faces-compatibles.svg"
   xml:space="preserve"
   inkscape:version="1.3.2 (091e20ef0f, 2023-11-25, custom)"
   xmlns:inkscape="http://www.inkscape.org/namespaces/inkscape"
   xmlns:sodipodi="http://sodipodi.sourceforge.net/DTD/sodipodi-0.dtd"
   xmlns="http://www.w3.org/2000/svg"
   xmlns:svg="http://www.w3.org/2000/svg"><defs
     id="defs1"><marker
       style="overflow:visible"
       id="RoundedArrow"
       refX="0"
       refY="0"
       orient="auto-start-reverse"
       inkscape:stockid="Rounded arrow"
       markerWidth="1"
       markerHeight="1"
       viewBox="0 0 1 1"
       inkscape:isstock="true"
       inkscape:collect="always"
       preserveAspectRatio="xMidYMid"><path
         transform="scale(0.7)"
         d="m -0.21114562,-4.1055728 6.42229122,3.21114561 a 1,1 90 0 1 0,1.78885438 L -0.21114562,4.1055728 A 1.236068,1.236068 31.717474 0 1 -2,3 v -6 a 1.236068,1.236068 148.28253 0 1 1.78885438,-1.1055728 z"
         style="fill:context-stroke;fill-rule:evenodd;stroke:none"
         id="path8" /></marker></defs><sodipodi:namedview
     id="namedview1"
     pagecolor="#ffffff"
     bordercolor="#000000"
     borderopacity="0.25"
     inkscape:showpageshadow="2"
     inkscape:pageopacity="0.0"
     inkscape:pagecheckerboard="0"
     inkscape:deskcolor="#d1d1d1"
     showgrid="false"
     inkscape:zoom="0.99277358"
     inkscape:cx="455.79376"
     inkscape:cy="-19.641941"
     inkscape:window-width="1892"
     inkscape:window-height="1035"
     inkscape:window-x="9"
     inkscape:window-y="26"
     inkscape:window-maximized="1"
     inkscape:current-layer="svg1" /><style
     id="style">
		.arc0 {
			fill:none;
			fill-rule:evenodd;
			stroke:black;
			stroke-width:4;
			stroke-linecap:round;
			stroke-linejoin:round;
			stroke-opacity:1;
		}
		.arc1 {
			fill:none;
			fill-rule:evenodd;
			stroke:red;
			stroke-width:4;
			stroke-linecap:round;
			stroke-linejoin:round;
			stroke-opacity:1;
		}
		.arc2 {
			fill:none;
			fill-rule:evenodd;
			stroke:blue;
			stroke-width:4;
			stroke-linecap:round;
			stroke-linejoin:round;
			stroke-opacity:1;
		}
		.arc3 {
			fill:none;
			fill-rule:evenodd;
			stroke:green;
			stroke-width:4;
			stroke-linecap:round;
			stroke-linejoin:round;
			stroke-opacity:1;
		}
		.topological-dart {
			fill:#000000;
			stroke:#000000;
			stroke-width:0;
			stroke-linecap:round;
			stroke-linejoin:round;
			stroke-dasharray:none;
			paint-order:markers fill stroke;
		}
	</style><style
     id="style-5">
		.arc0 {
			fill:none;
			fill-rule:evenodd;
			stroke:black;
			stroke-width:4;
			stroke-linecap:round;
			stroke-linejoin:round;
			stroke-opacity:1;
		}
		.arc1 {
			fill:none;
			fill-rule:evenodd;
			stroke:red;
			stroke-width:4;
			stroke-linecap:round;
			stroke-linejoin:round;
			stroke-opacity:1;
		}
		.arc2 {
			fill:none;
			fill-rule:evenodd;
			stroke:blue;
			stroke-width:4;
			stroke-linecap:round;
			stroke-linejoin:round;
			stroke-opacity:1;
		}
		.arc3 {
			fill:none;
			fill-rule:evenodd;
			stroke:green;
			stroke-width:4;
			stroke-linecap:round;
			stroke-linejoin:round;
			stroke-opacity:1;
		}
		.topological-dart {
			fill:#000000;
			stroke:#000000;
			stroke-width:0;
			stroke-linecap:round;
			stroke-linejoin:round;
			stroke-dasharray:none;
			paint-order:markers fill stroke;
		}
	</style><style
     id="style-8">
		.arc0 {
			fill:none;
			fill-rule:evenodd;
			stroke:black;
			stroke-width:4;
			stroke-linecap:round;
			stroke-linejoin:round;
			stroke-opacity:1;
		}
		.arc1 {
			fill:none;
			fill-rule:evenodd;
			stroke:red;
			stroke-width:4;
			stroke-linecap:round;
			stroke-linejoin:round;
			stroke-opacity:1;
		}
		.arc2 {
			fill:none;
			fill-rule:evenodd;
			stroke:blue;
			stroke-width:4;
			stroke-linecap:round;
			stroke-linejoin:round;
			stroke-opacity:1;
		}
		.arc3 {
			fill:none;
			fill-rule:evenodd;
			stroke:green;
			stroke-width:4;
			stroke-linecap:round;
			stroke-linejoin:round;
			stroke-opacity:1;
		}
		.topological-dart {
			fill:#000000;
			stroke:#000000;
			stroke-width:0;
			stroke-linecap:round;
			stroke-linejoin:round;
			stroke-dasharray:none;
			paint-order:markers fill stroke;
		}
	</style><style
     id="style-6">
		.arc0 {
			fill:none;
			fill-rule:evenodd;
			stroke:black;
			stroke-width:4;
			stroke-linecap:round;
			stroke-linejoin:round;
			stroke-opacity:1;
		}
		.arc1 {
			fill:none;
			fill-rule:evenodd;
			stroke:red;
			stroke-width:4;
			stroke-linecap:round;
			stroke-linejoin:round;
			stroke-opacity:1;
		}
		.arc2 {
			fill:none;
			fill-rule:evenodd;
			stroke:blue;
			stroke-width:4;
			stroke-linecap:round;
			stroke-linejoin:round;
			stroke-opacity:1;
		}
		.arc3 {
			fill:none;
			fill-rule:evenodd;
			stroke:green;
			stroke-width:4;
			stroke-linecap:round;
			stroke-linejoin:round;
			stroke-opacity:1;
		}
		.topological-dart {
			fill:#000000;
			stroke:#000000;
			stroke-width:0;
			stroke-linecap:round;
			stroke-linejoin:round;
			stroke-dasharray:none;
			paint-order:markers fill stroke;
		}
	</style><polygon
     points="281.57248,161.77408 363.88373,68.66144 577.16705,80.733154 659.4783,183.16336 659.4783,436.50684 577.16705,529.61945 363.88373,517.5477 281.57248,415.1175 "
     id="face_35_36_41_40_39_38_33_34"
     style="fill:#c0c0c0;stroke:none"
     opacity="1"
     transform="matrix(0.53728544,0,0,0.53728544,5.9624036,7.1752057)" /><line
     class="arc1"
     id="link34_@1_33-4"
     x1="157.24721"
     y1="230.21178"
     x2="201.47183"
     y2="285.24603" /><line
     class="arc2"
     id="link34_@2_29"
     x1="157.24721"
     y1="230.21178"
     x2="132.93239"
     y2="230.66225" /><line
     class="arc0"
     id="link34_@0_35-3"
     x1="157.24721"
     y1="230.21178"
     x2="157.24721"
     y2="94.094078" /><polygon
     points="236.31755,162.61246 182.86401,72.01489 44.35623,90.60376 -9.097317,195.5491 -9.097317,448.89252 44.35623,539.49005 182.86401,520.90125 236.31755,415.95587 "
     id="face_30_31_26_25_24_23_28_29"
     style="fill:#c0c0c0;stroke:none"
     opacity="1"
     transform="matrix(0.53728544,0,0,0.53728544,5.9624036,7.1752057)" /><line
     class="arc1"
     id="link29_@1_28"
     x1="132.93239"
     y1="230.66225"
     x2="104.21257"
     y2="287.04785" /><line
     class="arc0"
     id="link29_@0_30-0"
     x1="132.93239"
     y1="230.66225"
     x2="132.93239"
     y2="94.544518" /><line
     class="arc1"
     id="link35_@1_36"
     x1="157.24721"
     y1="94.094078"
     x2="201.47183"
     y2="44.065994" /><line
     class="arc2"
     id="link35_@2_30"
     x1="157.24721"
     y1="94.094078"
     x2="132.93239"
     y2="94.544518" /><line
     class="arc1"
     id="link30_@1_31"
     x1="132.93239"
     y1="94.544518"
     x2="104.21257"
     y2="45.86776" /><line
     class="arc2"
     id="link33_@2_0"
     x1="201.47183"
     y1="285.24603"
     x2="191.89857"
     y2="304.04123" /><line
     class="arc0"
     id="link33_@0_38-3"
     x1="201.47183"
     y1="285.24603"
     x2="316.06586"
     y2="291.73199" /><polygon
     points="559.3492,564.60126 588.20685,576.43396 449.6991,595.02277 313.93433,597.5379 100.65102,585.4661 71.79332,573.6335 210.3011,555.0446 346.0659,552.5295 "
     id="face_7_6_5_4_3_2_1_0-0"
     style="fill:#c0c0c0;stroke:none"
     opacity="1"
     transform="matrix(0.53728544,0,0,0.53728544,5.9624036,7.1752057)" /><line
     class="arc1"
     id="link0_@1_1-9"
     x1="191.89857"
     y1="304.04123"
     x2="118.95412"
     y2="305.39258" /><line
     class="arc0"
     id="link0_@0_7-2"
     x1="191.89857"
     y1="304.04123"
     x2="306.49258"
     y2="310.52722" /><line
     class="arc2"
     id="link28_@2_1"
     x1="104.21257"
     y1="287.04785"
     x2="118.95412"
     y2="305.39258" /><line
     class="arc0"
     id="link28_@0_23-5"
     x1="104.21257"
     y1="287.04785"
     x2="29.794359"
     y2="297.03534" /><line
     class="arc2"
     id="link36_@2_37"
     x1="201.47183"
     y1="44.065994"
     x2="191.89857"
     y2="27.840462" /><line
     class="arc0"
     id="link36_@0_41"
     x1="201.47183"
     y1="44.065994"
     x2="316.06586"
     y2="50.551949" /><line
     class="arc0"
     id="link1_@0_2-4"
     x1="118.95412"
     y1="305.39258"
     x2="44.535904"
     y2="315.3801" /><line
     class="arc0"
     id="link31_@0_26"
     x1="104.21257"
     y1="45.86776"
     x2="29.794359"
     y2="55.855293" /><line
     class="arc2"
     id="link31_@2_32"
     x1="104.21257"
     y1="45.86776"
     x2="118.95412"
     y2="29.191811" /><line
     class="arc2"
     id="link41_@2_42"
     x1="316.06586"
     y1="50.551949"
     x2="306.49258"
     y2="34.326454" /><polygon
     points="559.3492,50.53412 588.20685,62.36682 449.6991,80.95563 313.93433,83.470764 100.65102,71.39905 71.79332,59.566345 210.3011,40.977478 346.0659,38.46234 "
     id="face_42_47_12_17_22_27_32_37"
     style="fill:#c0c0c0;stroke:none"
     opacity="1"
     transform="matrix(0.53728544,0,0,0.53728544,5.9624036,7.1752057)" /><line
     class="arc1"
     id="link37_@1_32"
     x1="191.89857"
     y1="27.840462"
     x2="118.95412"
     y2="29.191811" /><line
     class="arc0"
     id="link37_@0_42"
     x1="191.89857"
     y1="27.840462"
     x2="306.49258"
     y2="34.326454" /><line
     class="arc0"
     id="link32_@0_27"
     x1="118.95412"
     y1="29.191811"
     x2="44.535904"
     y2="39.179337" /><line
     class="arc1"
     id="link38_@1_39-0"
     x1="316.06586"
     y1="291.73199"
     x2="360.2905"
     y2="241.70396" /><line
     class="arc2"
     id="link38_@2_7"
     x1="316.06586"
     y1="291.73199"
     x2="306.49258"
     y2="310.52722" /><line
     class="arc1"
     id="link7_@1_6-5"
     x1="306.49258"
     y1="310.52722"
     x2="321.99738"
     y2="316.88477" /><line
     class="arc1"
     id="link41_@1_40"
     x1="316.06586"
     y1="50.551949"
     x2="360.2905"
     y2="105.58621" /><line
     class="arc2"
     id="link39_@2_44-9"
     x1="360.2905"
     y1="241.70396"
     x2="365.45871"
     y2="243.82314" /><line
     class="arc0"
     id="link39_@0_40"
     x1="360.2905"
     y1="241.70396"
     x2="360.2905"
     y2="105.58621" /><line
     class="arc1"
     id="link42_@1_47"
     x1="306.49258"
     y1="34.326454"
     x2="321.99738"
     y2="40.68399" /><line
     class="arc2"
     id="link40_@2_45-4"
     x1="360.2905"
     y1="105.58621"
     x2="365.45871"
     y2="107.70539" /><line
     class="arc1"
     id="link23_@1_24-6"
     x1="29.794359"
     y1="297.03534"
     x2="1.0745709"
     y2="248.35861" /><line
     class="arc2"
     id="link23_@2_2"
     x1="29.794359"
     y1="297.03534"
     x2="44.535904"
     y2="315.3801" /><line
     class="arc1"
     id="link2_@1_3-9"
     x1="44.535904"
     y1="315.3801"
     x2="60.040726"
     y2="321.73761" /><line
     class="arc1"
     id="link26_@1_25"
     x1="29.794359"
     y1="55.855293"
     x2="1.0745709"
     y2="112.2409" /><line
     class="arc2"
     id="link26_@2_27"
     x1="29.794359"
     y1="55.855293"
     x2="44.535904"
     y2="39.179337" /><line
     class="arc2"
     id="link6_@2_43"
     x1="321.99738"
     y1="316.88477"
     x2="336.73889"
     y2="300.20871" /><line
     class="arc0"
     id="link6_@0_5-2"
     x1="321.99738"
     y1="316.88477"
     x2="247.57918"
     y2="326.87225" /><line
     class="arc1"
     id="link27_@1_22"
     x1="44.535904"
     y1="39.179337"
     x2="60.040726"
     y2="45.536873" /><polygon
     points="477.13605,563.9852 423.68253,473.3877 423.68253,220.04425 477.13605,115.09888 615.64386,96.51007 669.0974,187.1076 669.0974,440.45105 615.64386,545.39636 "
     id="face_8_9_10_11_46_45_44_43"
     style="fill:#c0c0c0;stroke:none"
     opacity="1"
     transform="matrix(0.53728544,0,0,0.53728544,5.9624036,7.1752057)" /><line
     class="arc1"
     id="link43_@1_44"
     x1="336.73889"
     y1="300.20871"
     x2="365.45871"
     y2="243.82314" /><line
     class="arc0"
     id="link43_@0_8-2"
     x1="336.73889"
     y1="300.20871"
     x2="262.32068"
     y2="310.19623" /><line
     class="arc2"
     id="link47_@2_46"
     x1="321.99738"
     y1="40.68399"
     x2="336.73889"
     y2="59.028664" /><line
     class="arc0"
     id="link47_@0_12"
     x1="321.99738"
     y1="40.68399"
     x2="247.57918"
     y2="50.671478" /><line
     class="arc1"
     id="link46_@1_45"
     x1="336.73889"
     y1="59.028664"
     x2="365.45871"
     y2="107.70539" /><line
     class="arc0"
     id="link46_@0_11"
     x1="336.73889"
     y1="59.028664"
     x2="262.32068"
     y2="69.016159" /><polygon
     points="0.52199006,199.49332 82.833244,106.38068 296.11655,118.45239 378.42776,220.8826 378.42776,474.22607 296.11655,567.3387 82.833244,555.26697 0.52199006,452.83673 "
     id="face_20_21_16_15_14_13_18_19"
     style="fill:#c0c0c0;stroke:none"
     opacity="1"
     transform="matrix(0.53728544,0,0,0.53728544,5.9624036,7.1752057)" /><line
     class="arc1"
     id="link19_@1_18-4"
     x1="6.2428751"
     y1="250.47778"
     x2="50.467484"
     y2="305.51205" /><line
     class="arc2"
     id="link19_@2_24"
     x1="6.2428751"
     y1="250.47778"
     x2="1.0745709"
     y2="248.35861" /><line
     class="arc0"
     id="link19_@0_20-7"
     x1="6.2428751"
     y1="250.47778"
     x2="6.2428751"
     y2="114.36006" /><line
     class="arc2"
     id="link3_@2_18"
     x1="60.040726"
     y1="321.73761"
     x2="50.467484"
     y2="305.51205" /><line
     class="arc0"
     id="link3_@0_4-7"
     x1="60.040726"
     y1="321.73761"
     x2="174.63475"
     y2="328.2236" /><line
     class="arc1"
     id="link20_@1_21"
     x1="6.2428751"
     y1="114.36006"
     x2="50.467484"
     y2="64.332001" /><line
     class="arc2"
     id="link20_@2_25"
     x1="6.2428751"
     y1="114.36006"
     x2="1.0745709"
     y2="112.2409" /><line
     class="arc0"
     id="link18_@0_13-5"
     x1="50.467484"
     y1="305.51205"
     x2="165.06151"
     y2="311.99802" /><line
     class="arc2"
     id="link22_@2_21"
     x1="60.040726"
     y1="45.536873"
     x2="50.467484"
     y2="64.332001" /><line
     class="arc0"
     id="link22_@0_17"
     x1="60.040726"
     y1="45.536873"
     x2="174.63475"
     y2="52.022835" /><line
     class="arc0"
     id="link21_@0_16"
     x1="50.467484"
     y1="64.332001"
     x2="165.06151"
     y2="70.817955" /><line
     class="arc1"
     id="link5_@1_4-4"
     x1="247.57918"
     y1="326.87225"
     x2="174.63475"
     y2="328.2236" /><line
     class="arc2"
     id="link5_@2_8"
     x1="247.57918"
     y1="326.87225"
     x2="262.32068"
     y2="310.19623" /><line
     class="arc1"
     id="link8_@1_9"
     x1="262.32068"
     y1="310.19623"
     x2="233.60086"
     y2="261.5195" /><line
     class="arc2"
     id="link4_@2_13"
     x1="174.63475"
     y1="328.2236"
     x2="165.06151"
     y2="311.99802" /><line
     class="arc1"
     id="link12_@1_17"
     x1="247.57918"
     y1="50.671478"
     x2="174.63475"
     y2="52.022835" /><line
     class="arc2"
     id="link12_@2_11"
     x1="247.57918"
     y1="50.671478"
     x2="262.32068"
     y2="69.016159" /><line
     class="arc1"
     id="link13_@1_14-8"
     x1="165.06151"
     y1="311.99802"
     x2="209.28613"
     y2="261.96994" /><line
     class="arc1"
     id="link11_@1_10"
     x1="262.32068"
     y1="69.016159"
     x2="233.60086"
     y2="125.40178" /><line
     class="arc2"
     id="link17_@2_16"
     x1="174.63475"
     y1="52.022835"
     x2="165.06151"
     y2="70.817955" /><line
     class="arc1"
     id="link16_@1_15"
     x1="165.06151"
     y1="70.817955"
     x2="209.28613"
     y2="125.8522" /><line
     class="arc2"
     id="link9_@2_14"
     x1="233.60086"
     y1="261.5195"
     x2="209.28613"
     y2="261.96994" /><line
     class="arc0"
     id="link9_@0_10"
     x1="233.60086"
     y1="261.5195"
     x2="233.60086"
     y2="125.40178" /><line
     class="arc0"
     id="link9_@0_10-9"
     x1="365.45871"
     y1="243.82314"
     x2="365.45871"
     y2="107.70539"
     style="fill:none;fill-rule:evenodd;stroke:#000000;stroke-width:2.14914;stroke-linecap:round;stroke-linejoin:round;stroke-opacity:1" /><line
     class="arc0"
     id="link14_@0_15"
     x1="209.28613"
     y1="261.96994"
     x2="209.28613"
     y2="125.8522" /><line
     class="arc2"
     id="link10_@2_15"
     x1="233.60086"
     y1="125.40178"
     x2="209.28613"
     y2="125.8522" /><line
     class="arc0"
     id="link9_@0_10-0"
     x1="1.0745709"
     y1="248.35861"
     x2="1.0745709"
     y2="112.2409"
     style="fill:none;fill-rule:evenodd;stroke:#000000;stroke-width:2.14914;stroke-linecap:round;stroke-linejoin:round;stroke-opacity:1" /><path
     style="fill:none;fill-opacity:1;stroke:#000000;stroke-width:3;stroke-dasharray:none;stroke-opacity:1;marker-end:url(#RoundedArrow)"
     d="M 182.42148,35.829059 C 268.0966,-156.01405 588.97471,530.97097 625.9563,262.68478"
     id="path7"
     sodipodi:nodetypes="cc" /><g
     id="g8"
     transform="matrix(0.98151965,0,0,0.98151965,440.9861,240.00066)"><g
       id="g7"
       transform="matrix(0.56428789,0,0,0.56428789,16.331425,-316.95521)"><polygon
         points="406.9189,203.56802 327.5406,199.07526 291.485,428.60757 356.9486,521.6825 562.63226,533.3241 576.547,444.74197 "
         id="face_23_24_25_30_29_28"
         style="fill:#c0c0c0;stroke:none"
         opacity="1" /><line
         class="arc1"
         id="link28_@1_29"
         x1="356.94861"
         y1="521.6825"
         x2="291.48499"
         y2="428.60757" /><line
         class="arc2"
         id="link28_@2_0"
         x1="356.94861"
         y1="521.6825"
         x2="345.49329"
         y2="544.17273" /><line
         class="arc0"
         id="link28_@0_23"
         x1="356.94861"
         y1="521.6825"
         x2="562.63226"
         y2="533.3241" /><polygon
         points="214.56604,546.5982 345.4933,544.1727 551.177,555.81433 579.00635,567.22534 445.43387,585.15186 314.50665,587.57733 108.82301,575.9357 80.99355,564.5247 "
         id="face_7_6_5_4_3_2_1_0"
         style="fill:#c0c0c0;stroke:none"
         opacity="1" /><line
         class="arc1"
         id="link0_@1_1"
         x1="345.49329"
         y1="544.17273"
         x2="214.56604"
         y2="546.59821" /><line
         class="arc0"
         id="link0_@0_7"
         x1="345.49329"
         y1="544.17273"
         x2="551.177"
         y2="555.81433" /><line
         class="arc2"
         id="link29_@2_34"
         x1="291.48499"
         y1="428.60757"
         x2="262.39005"
         y2="429.14658" /><line
         class="arc0"
         id="link29_@0_30"
         x1="291.48499"
         y1="428.60757"
         x2="327.54059"
         y2="199.07526" /><polygon
         points="77.26867,453.99136 63.353912,542.5735 196.92642,524.647 262.39005,429.14658 298.44562,199.61429 246.89673,206.53256 "
         id="face_35_40_39_38_33_34"
         style="fill:#c0c0c0;stroke:none"
         opacity="1" /><line
         class="arc1"
         id="link34_@1_33"
         x1="262.39005"
         y1="429.14658"
         x2="196.92642"
         y2="524.64697" /><line
         class="arc0"
         id="link34_@0_35"
         x1="262.39005"
         y1="429.14658"
         x2="298.44562"
         y2="199.61429" /><line
         class="arc2"
         id="link33_@2_1"
         x1="196.92642"
         y1="524.64697"
         x2="214.56604"
         y2="546.59821" /><line
         class="arc0"
         id="link33_@0_38"
         x1="196.92642"
         y1="524.64697"
         x2="63.353912"
         y2="542.57349" /><line
         class="arc0"
         id="link1_@0_2"
         x1="214.56604"
         y1="546.59821"
         x2="80.993553"
         y2="564.52472" /><line
         class="arc1"
         id="link23_@1_24"
         x1="562.63226"
         y1="533.3241"
         x2="576.547"
         y2="444.74197" /><line
         class="arc2"
         id="link23_@2_7"
         x1="562.63226"
         y1="533.3241"
         x2="551.177"
         y2="555.81433" /><line
         class="arc1"
         id="link7_@1_6"
         x1="551.177"
         y1="555.81433"
         x2="579.00635"
         y2="567.22534" /><line
         class="arc2"
         id="link24_@2_19"
         x1="576.547"
         y1="444.74197"
         x2="582.73132"
         y2="447.27777" /><line
         class="arc0"
         id="link24_@0_25"
         x1="576.547"
         y1="444.74197"
         x2="406.91891"
         y2="203.56802" /><line
         class="arc1"
         id="link30_@1_25"
         x1="327.54059"
         y1="199.07526"
         x2="406.91891"
         y2="203.56802" /><line
         class="arc2"
         id="link30_@2_35"
         x1="327.54059"
         y1="199.07526"
         x2="298.44562"
         y2="199.61429" /><line
         class="arc1"
         id="link35_@1_40"
         x1="298.44562"
         y1="199.61429"
         x2="246.89673"
         y2="206.53256" /><polygon
         points="397.60992,472.12253 463.0735,565.19745 596.646,547.27094 582.7313,447.27777 413.1033,206.10388 361.5544,213.02216 "
         id="face_20_15_14_13_18_19"
         style="fill:#c0c0c0;stroke:none"
         opacity="1" /><line
         class="arc1"
         id="link19_@1_18"
         x1="582.73132"
         y1="447.27777"
         x2="596.646"
         y2="547.27094" /><line
         class="arc0"
         id="link19_@0_20"
         x1="582.73132"
         y1="447.27777"
         x2="413.1033"
         y2="206.10388" /><line
         class="arc1"
         id="link38_@1_39"
         x1="63.353912"
         y1="542.57349"
         x2="77.268669"
         y2="453.99136" /><line
         class="arc2"
         id="link38_@2_2"
         x1="63.353912"
         y1="542.57349"
         x2="80.993553"
         y2="564.52472" /><line
         class="arc1"
         id="link2_@1_3"
         x1="80.993553"
         y1="564.52472"
         x2="108.82301"
         y2="575.93573" /><line
         class="arc2"
         id="link25_@2_20"
         x1="406.91891"
         y1="203.56802"
         x2="413.1033"
         y2="206.10388" /><line
         class="arc2"
         id="link6_@2_18"
         x1="579.00635"
         y1="567.22534"
         x2="596.646"
         y2="547.27094" /><line
         class="arc0"
         id="link6_@0_5"
         x1="579.00635"
         y1="567.22534"
         x2="445.43387"
         y2="585.15186" /><line
         class="arc0"
         id="link18_@0_13"
         x1="596.646"
         y1="547.27094"
         x2="463.07349"
         y2="565.19745" /><line
         class="arc1"
         id="link20_@1_15"
         x1="413.1033"
         y1="206.10388"
         x2="361.55441"
         y2="213.02216" /><line
         class="arc2"
         id="link40_@2_45"
         x1="246.89673"
         y1="206.53256"
         x2="253.08101"
         y2="209.06833" /><line
         class="arc0"
         id="link40_@0_39"
         x1="246.89673"
         y1="206.53256"
         x2="77.268669"
         y2="453.99136" /><line
         class="arc2"
         id="link39_@2_44"
         x1="77.268669"
         y1="453.99136"
         x2="83.45295"
         y2="456.52716" /><polygon
         points="303.0514,568.1619 368.51492,472.66156 332.45935,213.5611 253.08101,209.06833 83.45295,456.52716 97.36773,556.5203 "
         id="face_44_43_8_9_10_45"
         style="fill:#c0c0c0;stroke:none"
         opacity="1" /><line
         class="arc1"
         id="link45_@1_10"
         x1="253.08101"
         y1="209.06833"
         x2="332.45935"
         y2="213.5611" /><line
         class="arc0"
         id="link45_@0_44"
         x1="253.08101"
         y1="209.06833"
         x2="83.45295"
         y2="456.52716" /><line
         class="arc1"
         id="link44_@1_43"
         x1="83.45295"
         y1="456.52716"
         x2="97.367729"
         y2="556.52032" /><line
         class="arc2"
         id="link15_@2_10"
         x1="361.55441"
         y1="213.02216"
         x2="332.45935"
         y2="213.5611" /><line
         class="arc0"
         id="link15_@0_14"
         x1="361.55441"
         y1="213.02216"
         x2="397.60992"
         y2="472.12253" /><line
         class="arc0"
         id="link10_@0_9"
         x1="332.45935"
         y1="213.5611"
         x2="368.51492"
         y2="472.66156" /><line
         class="arc2"
         id="link3_@2_43"
         x1="108.82301"
         y1="575.93573"
         x2="97.367729"
         y2="556.52032" /><line
         class="arc0"
         id="link3_@0_4"
         x1="108.82301"
         y1="575.93573"
         x2="314.50665"
         y2="587.57733" /><line
         class="arc0"
         id="link43_@0_8"
         x1="97.367729"
         y1="556.52032"
         x2="303.05139"
         y2="568.16193" /><line
         class="arc1"
         id="link5_@1_4"
         x1="445.43387"
         y1="585.15186"
         x2="314.50665"
         y2="587.57733" /><line
         class="arc2"
         id="link5_@2_13"
         x1="445.43387"
         y1="585.15186"
         x2="463.07349"
         y2="565.19745" /><line
         class="arc1"
         id="link13_@1_14"
         x1="463.07349"
         y1="565.19745"
         x2="397.60992"
         y2="472.12253" /><line
         class="arc2"
         id="link4_@2_8"
         x1="314.50665"
         y1="587.57733"
         x2="303.05139"
         y2="568.16193" /><line
         class="arc2"
         id="link14_@2_9"
         x1="397.60992"
         y1="472.12253"
         x2="368.51492"
         y2="472.66156" /><line
         class="arc1"
         id="link9_@1_8"
         x1="368.51492"
         y1="472.66156"
         x2="303.05139"
         y2="568.16193" /></g></g></svg>
