<?xml version="1.0" encoding="UTF-8" standalone="no"?>
<!-- Created with Jerboa -->

<svg
	width="660"
	height="636" >
	<style id="style">
		.arc0 {
			fill:none;
			fill-rule:evenodd;
			stroke:black;
			stroke-width:4;
			stroke-linecap:round;
			stroke-linejoin:round;
			stroke-opacity:1;
		}
		.arc1 {
			fill:none;
			fill-rule:evenodd;
			stroke:red;
			stroke-width:4;
			stroke-linecap:round;
			stroke-linejoin:round;
			stroke-opacity:1;
		}
		.arc2 {
			fill:none;
			fill-rule:evenodd;
			stroke:blue;
			stroke-width:4;
			stroke-linecap:round;
			stroke-linejoin:round;
			stroke-opacity:1;
		}
		.arc3 {
			fill:none;
			fill-rule:evenodd;
			stroke:green;
			stroke-width:4;
			stroke-linecap:round;
			stroke-linejoin:round;
			stroke-opacity:1;
		}
		.topological-dart {
			fill:#000000;
			stroke:#000000;
			stroke-width:0;
			stroke-linecap:round;
			stroke-linejoin:round;
			stroke-dasharray:none;
			paint-order:markers fill stroke;
		}
	</style>
<polygon
	points="13.157147,380.37646 13.157147,197.31949 19.8989,189.69305 174.00987,198.41565 180.75163,206.80527 180.75163,389.86224 174.00987,397.48874 19.8989,388.7661 "
	id="face_30_31_26_25_24_23_28_29"
	style="fill:rgb(192,192,192);stroke:none"
	opacity="1.0" />
<line
	class="arc1"
	id="link29_@1_28"
	x1="13.157147"
	y1="380.37646"
	x2="19.8989"
	y2="388.7661" />
<line
	class="arc2"
	id="link29_@2_34"
	x1="13.157147"
	y1="380.37646"
	x2="2.0372324"
	y2="380.5825" />
<line
	class="arc0"
	id="link29_@0_30"
	x1="13.157147"
	y1="380.37646"
	x2="13.157147"
	y2="197.31949" />
<polygon
	points="2.0372324,380.5825 2.0372324,197.52551 -2.3409104,190.10504 -102.42174,203.53668 -106.7999,212.13232 -106.7999,395.18933 -102.42174,402.60977 -2.3409104,389.17813 "
	id="face_35_36_41_40_39_38_33_34"
	style="fill:rgb(192,192,192);stroke:none"
	opacity="1.0" />
<line
	class="arc1"
	id="link34_@1_33"
	x1="2.0372324"
	y1="380.5825"
	x2="-2.3409104"
	y2="389.17813" />
<line
	class="arc0"
	id="link34_@0_35"
	x1="2.0372324"
	y1="380.5825"
	x2="2.0372324"
	y2="197.52551" />
<line
	class="arc2"
	id="link28_@2_0"
	x1="19.8989"
	y1="388.7661"
	x2="15.520756"
	y2="397.36176" />
<line
	class="arc0"
	id="link28_@0_23"
	x1="19.8989"
	y1="388.7661"
	x2="174.00987"
	y2="397.48874" />
<polygon
	points="15.520756,397.36176 169.6317,406.08435 171.99533,407.05353 71.91453,420.48517 60.794594,420.69116 -93.31635,411.96857 -95.67996,410.9994 4.4008417,397.56775 "
	id="face_7_6_5_4_3_2_1_0"
	style="fill:rgb(192,192,192);stroke:none"
	opacity="1.0" />
<line
	class="arc1"
	id="link0_@1_1"
	x1="15.520756"
	y1="397.36176"
	x2="4.4008417"
	y2="397.56775" />
<line
	class="arc0"
	id="link0_@0_7"
	x1="15.520756"
	y1="397.36176"
	x2="169.6317"
	y2="406.08435" />
<line
	class="arc2"
	id="link1_@2_33"
	x1="4.4008417"
	y1="397.56775"
	x2="-2.3409104"
	y2="389.17813" />
<line
	class="arc0"
	id="link1_@0_2"
	x1="4.4008417"
	y1="397.56775"
	x2="-95.67996"
	y2="410.9994" />
<line
	class="arc1"
	id="link30_@1_31"
	x1="13.157147"
	y1="197.31949"
	x2="19.8989"
	y2="189.69305" />
<line
	class="arc2"
	id="link30_@2_35"
	x1="13.157147"
	y1="197.31949"
	x2="2.0372324"
	y2="197.52551" />
<line
	class="arc1"
	id="link35_@1_36"
	x1="2.0372324"
	y1="197.52551"
	x2="-2.3409104"
	y2="190.10504" />
<line
	class="arc2"
	id="link31_@2_32"
	x1="19.8989"
	y1="189.69305"
	x2="15.520756"
	y2="182.27258" />
<line
	class="arc0"
	id="link31_@0_26"
	x1="19.8989"
	y1="189.69305"
	x2="174.00987"
	y2="198.41565" />
<polygon
	points="15.520756,182.27258 169.6317,190.99521 171.99533,191.96436 71.91453,205.39603 60.794594,205.60205 -93.31635,196.87946 -95.67996,195.91022 4.4008417,182.47858 "
	id="face_27_22_17_12_47_42_37_32"
	style="fill:rgb(192,192,192);stroke:none"
	opacity="1.0" />
<line
	class="arc1"
	id="link32_@1_37"
	x1="15.520756"
	y1="182.27258"
	x2="4.4008417"
	y2="182.47858" />
<line
	class="arc0"
	id="link32_@0_27"
	x1="15.520756"
	y1="182.27258"
	x2="169.6317"
	y2="190.99521" />
<line
	class="arc2"
	id="link37_@2_36"
	x1="4.4008417"
	y1="182.47858"
	x2="-2.3409104"
	y2="190.10504" />
<line
	class="arc0"
	id="link37_@0_42"
	x1="4.4008417"
	y1="182.47858"
	x2="-95.67996"
	y2="195.91022" />
<line
	class="arc1"
	id="link23_@1_24"
	x1="174.00987"
	y1="397.48874"
	x2="180.75163"
	y2="389.86224" />
<line
	class="arc2"
	id="link23_@2_7"
	x1="174.00987"
	y1="397.48874"
	x2="169.6317"
	y2="406.08435" />
<line
	class="arc2"
	id="link24_@2_19"
	x1="180.75163"
	y1="389.86224"
	x2="183.11522"
	y2="390.83142" />
<line
	class="arc0"
	id="link24_@0_25"
	x1="180.75163"
	y1="389.86224"
	x2="180.75163"
	y2="206.80527" />
<line
	class="arc1"
	id="link7_@1_6"
	x1="169.6317"
	y1="406.08435"
	x2="171.99533"
	y2="407.05353" />
<polygon
	points="183.11522,390.83142 183.11522,207.77444 178.73709,200.35397 78.65626,213.78558 74.2781,222.38129 74.2781,405.43823 78.65626,412.8587 178.73709,399.42706 "
	id="face_20_21_16_15_14_13_18_19"
	style="fill:rgb(192,192,192);stroke:none"
	opacity="1.0" />
<line
	class="arc1"
	id="link19_@1_18"
	x1="183.11522"
	y1="390.83142"
	x2="178.73709"
	y2="399.42706" />
<line
	class="arc0"
	id="link19_@0_20"
	x1="183.11522"
	y1="390.83142"
	x2="183.11522"
	y2="207.77444" />
<line
	class="arc2"
	id="link6_@2_18"
	x1="171.99533"
	y1="407.05353"
	x2="178.73709"
	y2="399.42706" />
<line
	class="arc0"
	id="link6_@0_5"
	x1="171.99533"
	y1="407.05353"
	x2="71.91453"
	y2="420.48517" />
<line
	class="arc1"
	id="link26_@1_25"
	x1="174.00987"
	y1="198.41565"
	x2="180.75163"
	y2="206.80527" />
<line
	class="arc2"
	id="link26_@2_27"
	x1="174.00987"
	y1="198.41565"
	x2="169.6317"
	y2="190.99521" />
<line
	class="arc2"
	id="link25_@2_20"
	x1="180.75163"
	y1="206.80527"
	x2="183.11522"
	y2="207.77444" />
<line
	class="arc0"
	id="link18_@0_13"
	x1="178.73709"
	y1="399.42706"
	x2="78.65626"
	y2="412.8587" />
<line
	class="arc1"
	id="link27_@1_22"
	x1="169.6317"
	y1="190.99521"
	x2="171.99533"
	y2="191.96436" />
<line
	class="arc1"
	id="link20_@1_21"
	x1="183.11522"
	y1="207.77444"
	x2="178.73709"
	y2="200.35397" />
<line
	class="arc2"
	id="link22_@2_21"
	x1="171.99533"
	y1="191.96436"
	x2="178.73709"
	y2="200.35397" />
<line
	class="arc0"
	id="link22_@0_17"
	x1="171.99533"
	y1="191.96436"
	x2="71.91453"
	y2="205.39603" />
<line
	class="arc0"
	id="link21_@0_16"
	x1="178.73709"
	y1="200.35397"
	x2="78.65626"
	y2="213.78558" />
<line
	class="arc1"
	id="link5_@1_4"
	x1="71.91453"
	y1="420.48517"
	x2="60.794594"
	y2="420.69116" />
<line
	class="arc2"
	id="link5_@2_13"
	x1="71.91453"
	y1="420.48517"
	x2="78.65626"
	y2="412.8587" />
<line
	class="arc2"
	id="link4_@2_8"
	x1="60.794594"
	y1="420.69116"
	x2="56.416428"
	y2="413.27072" />
<line
	class="arc0"
	id="link4_@0_3"
	x1="60.794594"
	y1="420.69116"
	x2="-93.31635"
	y2="411.96857" />
<line
	class="arc1"
	id="link13_@1_14"
	x1="78.65626"
	y1="412.8587"
	x2="74.2781"
	y2="405.43823" />
<polygon
	points="56.416428,413.27072 -97.69452,404.5481 -104.43629,396.15848 -104.43629,213.1015 -97.69452,205.475 56.416428,214.19763 63.1582,222.58728 63.1582,405.64426 "
	id="face_43_44_45_46_11_10_9_8"
	style="fill:rgb(192,192,192);stroke:none"
	opacity="1.0" />
<line
	class="arc1"
	id="link8_@1_9"
	x1="56.416428"
	y1="413.27072"
	x2="63.1582"
	y2="405.64426" />
<line
	class="arc0"
	id="link8_@0_43"
	x1="56.416428"
	y1="413.27072"
	x2="-97.69452"
	y2="404.5481" />
<line
	class="arc2"
	id="link14_@2_9"
	x1="74.2781"
	y1="405.43823"
	x2="63.1582"
	y2="405.64426" />
<line
	class="arc0"
	id="link14_@0_15"
	x1="74.2781"
	y1="405.43823"
	x2="74.2781"
	y2="222.38129" />
<line
	class="arc0"
	id="link9_@0_10"
	x1="63.1582"
	y1="405.64426"
	x2="63.1582"
	y2="222.58728" />
<line
	class="arc1"
	id="link17_@1_12"
	x1="71.91453"
	y1="205.39603"
	x2="60.794594"
	y2="205.60205" />
<line
	class="arc2"
	id="link17_@2_16"
	x1="71.91453"
	y1="205.39603"
	x2="78.65626"
	y2="213.78558" />
<line
	class="arc2"
	id="link12_@2_11"
	x1="60.794594"
	y1="205.60205"
	x2="56.416428"
	y2="214.19763" />
<line
	class="arc0"
	id="link12_@0_47"
	x1="60.794594"
	y1="205.60205"
	x2="-93.31635"
	y2="196.87946" />
<line
	class="arc1"
	id="link16_@1_15"
	x1="78.65626"
	y1="213.78558"
	x2="74.2781"
	y2="222.38129" />
<line
	class="arc1"
	id="link11_@1_10"
	x1="56.416428"
	y1="214.19763"
	x2="63.1582"
	y2="222.58728" />
<line
	class="arc0"
	id="link11_@0_46"
	x1="56.416428"
	y1="214.19763"
	x2="-97.69452"
	y2="205.475" />
<line
	class="arc2"
	id="link15_@2_10"
	x1="74.2781"
	y1="222.38129"
	x2="63.1582"
	y2="222.58728" />
<polygon
	points="596.8417,413.41278 596.8417,230.3558 603.5834,222.72931 757.69446,231.45197 764.43616,239.84158 764.43616,422.89856 757.69446,430.52502 603.5834,421.80243 "
	id="face_95_90_87_88_57_58_61_62"
	style="fill:rgb(192,192,192);stroke:none"
	opacity="1.0" />
<line
	class="arc1"
	id="link62_@1_61"
	x1="596.8417"
	y1="413.41278"
	x2="603.5834"
	y2="421.80243" />
<line
	class="arc2"
	id="link62_@2_63"
	x1="596.8417"
	y1="413.41278"
	x2="585.7218"
	y2="413.61877" />
<line
	class="arc0"
	id="link62_@0_95"
	x1="596.8417"
	y1="413.41278"
	x2="596.8417"
	y2="230.3558" />
<polygon
	points="585.7218,413.61877 585.7218,230.5618 581.3436,223.14136 481.2628,236.57297 476.88464,245.16864 476.88464,428.22562 481.2628,435.64606 581.3436,422.21442 "
	id="face_94_93_74_73_68_67_64_63"
	style="fill:rgb(192,192,192);stroke:none"
	opacity="1.0" />
<line
	class="arc1"
	id="link63_@1_64"
	x1="585.7218"
	y1="413.61877"
	x2="581.3436"
	y2="422.21442" />
<line
	class="arc0"
	id="link63_@0_94"
	x1="585.7218"
	y1="413.61877"
	x2="585.7218"
	y2="230.5618" />
<line
	class="arc2"
	id="link61_@2_60"
	x1="603.5834"
	y1="421.80243"
	x2="599.20526"
	y2="430.398" />
<line
	class="arc0"
	id="link61_@0_58"
	x1="603.5834"
	y1="421.80243"
	x2="757.69446"
	y2="430.52502" />
<line
	class="arc2"
	id="link64_@2_65"
	x1="581.3436"
	y1="422.21442"
	x2="588.0854"
	y2="430.60406" />
<line
	class="arc0"
	id="link64_@0_67"
	x1="581.3436"
	y1="422.21442"
	x2="481.2628"
	y2="435.64606" />
<polygon
	points="599.20526,430.398 753.3163,439.12067 755.6799,440.08984 655.599,453.52148 644.4792,453.72748 490.3681,445.00485 488.00458,444.0357 588.0854,430.60406 "
	id="face_59_54_53_48_71_66_65_60"
	style="fill:rgb(192,192,192);stroke:none"
	opacity="1.0" />
<line
	class="arc1"
	id="link60_@1_65"
	x1="599.20526"
	y1="430.398"
	x2="588.0854"
	y2="430.60406" />
<line
	class="arc0"
	id="link60_@0_59"
	x1="599.20526"
	y1="430.398"
	x2="753.3163"
	y2="439.12067" />
<line
	class="arc0"
	id="link65_@0_66"
	x1="588.0854"
	y1="430.60406"
	x2="488.00458"
	y2="444.0357" />
<line
	class="arc1"
	id="link95_@1_90"
	x1="596.8417"
	y1="230.3558"
	x2="603.5834"
	y2="222.72931" />
<line
	class="arc2"
	id="link95_@2_94"
	x1="596.8417"
	y1="230.3558"
	x2="585.7218"
	y2="230.5618" />
<line
	class="arc1"
	id="link94_@1_93"
	x1="585.7218"
	y1="230.5618"
	x2="581.3436"
	y2="223.14136" />
<line
	class="arc2"
	id="link90_@2_91"
	x1="603.5834"
	y1="222.72931"
	x2="599.20526"
	y2="215.3089" />
<line
	class="arc0"
	id="link90_@0_87"
	x1="603.5834"
	y1="222.72931"
	x2="757.69446"
	y2="231.45197" />
<line
	class="arc2"
	id="link93_@2_92"
	x1="581.3436"
	y1="223.14136"
	x2="588.0854"
	y2="215.5149" />
<line
	class="arc0"
	id="link93_@0_74"
	x1="581.3436"
	y1="223.14136"
	x2="481.2628"
	y2="236.57297" />
<polygon
	points="599.20526,215.3089 753.3163,224.03152 755.6799,225.0007 655.599,238.43228 644.4792,238.63837 490.3681,229.91571 488.00458,228.9465 588.0854,215.5149 "
	id="face_86_85_80_79_76_75_92_91"
	style="fill:rgb(192,192,192);stroke:none"
	opacity="1.0" />
<line
	class="arc1"
	id="link91_@1_92"
	x1="599.20526"
	y1="215.3089"
	x2="588.0854"
	y2="215.5149" />
<line
	class="arc0"
	id="link91_@0_86"
	x1="599.20526"
	y1="215.3089"
	x2="753.3163"
	y2="224.03152" />
<line
	class="arc0"
	id="link92_@0_75"
	x1="588.0854"
	y1="215.5149"
	x2="488.00458"
	y2="228.9465" />
<line
	class="arc1"
	id="link67_@1_68"
	x1="481.2628"
	y1="435.64606"
	x2="476.88464"
	y2="428.22562" />
<line
	class="arc2"
	id="link67_@2_66"
	x1="481.2628"
	y1="435.64606"
	x2="488.00458"
	y2="444.0357" />
<line
	class="arc1"
	id="link66_@1_71"
	x1="488.00458"
	y1="444.0357"
	x2="490.3681"
	y2="445.00485" />
<line
	class="arc2"
	id="link68_@2_69"
	x1="476.88464"
	y1="428.22562"
	x2="479.2483"
	y2="429.19476" />
<line
	class="arc0"
	id="link68_@0_73"
	x1="476.88464"
	y1="428.22562"
	x2="476.88464"
	y2="245.16864" />
<line
	class="arc2"
	id="link71_@2_70"
	x1="490.3681"
	y1="445.00485"
	x2="485.99"
	y2="437.5844" />
<line
	class="arc0"
	id="link71_@0_48"
	x1="490.3681"
	y1="445.00485"
	x2="644.4792"
	y2="453.72748" />
<line
	class="arc1"
	id="link74_@1_73"
	x1="481.2628"
	y1="236.57297"
	x2="476.88464"
	y2="245.16864" />
<line
	class="arc2"
	id="link74_@2_75"
	x1="481.2628"
	y1="236.57297"
	x2="488.00458"
	y2="228.9465" />
<polygon
	points="479.2483,429.19476 479.2483,246.13779 485.99,238.51129 640.101,247.23395 646.8427,255.62357 646.8427,438.68054 640.101,446.307 485.99,437.5844 "
	id="face_72_77_78_83_50_49_70_69"
	style="fill:rgb(192,192,192);stroke:none"
	opacity="1.0" />
<line
	class="arc1"
	id="link69_@1_70"
	x1="479.2483"
	y1="429.19476"
	x2="485.99"
	y2="437.5844" />
<line
	class="arc0"
	id="link69_@0_72"
	x1="479.2483"
	y1="429.19476"
	x2="479.2483"
	y2="246.13779" />
<line
	class="arc0"
	id="link70_@0_49"
	x1="485.99"
	y1="437.5844"
	x2="640.101"
	y2="446.307" />
<line
	class="arc1"
	id="link75_@1_76"
	x1="488.00458"
	y1="228.9465"
	x2="490.3681"
	y2="229.91571" />
<line
	class="arc2"
	id="link73_@2_72"
	x1="476.88464"
	y1="245.16864"
	x2="479.2483"
	y2="246.13779" />
<line
	class="arc2"
	id="link76_@2_77"
	x1="490.3681"
	y1="229.91571"
	x2="485.99"
	y2="238.51129" />
<line
	class="arc0"
	id="link76_@0_79"
	x1="490.3681"
	y1="229.91571"
	x2="644.4792"
	y2="238.63837" />
<line
	class="arc1"
	id="link72_@1_77"
	x1="479.2483"
	y1="246.13779"
	x2="485.99"
	y2="238.51129" />
<line
	class="arc0"
	id="link77_@0_78"
	x1="485.99"
	y1="238.51129"
	x2="640.101"
	y2="247.23395" />
<line
	class="arc1"
	id="link53_@1_48"
	x1="655.599"
	y1="453.52148"
	x2="644.4792"
	y2="453.72748" />
<line
	class="arc2"
	id="link53_@2_52"
	x1="655.599"
	y1="453.52148"
	x2="662.341"
	y2="445.89502" />
<line
	class="arc0"
	id="link53_@0_54"
	x1="655.599"
	y1="453.52148"
	x2="755.6799"
	y2="440.08984" />
<line
	class="arc2"
	id="link48_@2_49"
	x1="644.4792"
	y1="453.72748"
	x2="640.101"
	y2="446.307" />
<line
	class="arc1"
	id="link49_@1_50"
	x1="640.101"
	y1="446.307"
	x2="646.8427"
	y2="438.68054" />
<polygon
	points="657.9629,438.47455 657.9629,255.4176 662.341,246.82196 762.4219,233.39032 766.8,240.81076 766.8,423.86774 762.4219,432.46338 662.341,445.89502 "
	id="face_82_81_84_89_56_55_52_51"
	style="fill:rgb(192,192,192);stroke:none"
	opacity="1.0" />
<line
	class="arc1"
	id="link51_@1_52"
	x1="657.9629"
	y1="438.47455"
	x2="662.341"
	y2="445.89502" />
<line
	class="arc2"
	id="link51_@2_50"
	x1="657.9629"
	y1="438.47455"
	x2="646.8427"
	y2="438.68054" />
<line
	class="arc0"
	id="link51_@0_82"
	x1="657.9629"
	y1="438.47455"
	x2="657.9629"
	y2="255.4176" />
<line
	class="arc0"
	id="link50_@0_83"
	x1="646.8427"
	y1="438.68054"
	x2="646.8427"
	y2="255.62357" />
<line
	class="arc1"
	id="link80_@1_79"
	x1="655.599"
	y1="238.43228"
	x2="644.4792"
	y2="238.63837" />
<line
	class="arc2"
	id="link80_@2_81"
	x1="655.599"
	y1="238.43228"
	x2="662.341"
	y2="246.82196" />
<line
	class="arc0"
	id="link80_@0_85"
	x1="655.599"
	y1="238.43228"
	x2="755.6799"
	y2="225.0007" />
<line
	class="arc2"
	id="link79_@2_78"
	x1="644.4792"
	y1="238.63837"
	x2="640.101"
	y2="247.23395" />
<line
	class="arc1"
	id="link78_@1_83"
	x1="640.101"
	y1="247.23395"
	x2="646.8427"
	y2="255.62357" />
<line
	class="arc1"
	id="link82_@1_81"
	x1="657.9629"
	y1="255.4176"
	x2="662.341"
	y2="246.82196" />
<line
	class="arc2"
	id="link82_@2_83"
	x1="657.9629"
	y1="255.4176"
	x2="646.8427"
	y2="255.62357" />
</svg>
