<?xml version="1.0" encoding="UTF-8" standalone="no"?>
<!-- Created with Jerboa -->

<svg
	width="660"
	height="636" >
	<style id="style">
		.arc0 {
			fill:none;
			fill-rule:evenodd;
			stroke:black;
			stroke-width:4;
			stroke-linecap:round;
			stroke-linejoin:round;
			stroke-opacity:1;
		}
		.arc1 {
			fill:none;
			fill-rule:evenodd;
			stroke:red;
			stroke-width:4;
			stroke-linecap:round;
			stroke-linejoin:round;
			stroke-opacity:1;
		}
		.arc2 {
			fill:none;
			fill-rule:evenodd;
			stroke:blue;
			stroke-width:4;
			stroke-linecap:round;
			stroke-linejoin:round;
			stroke-opacity:1;
		}
		.arc3 {
			fill:none;
			fill-rule:evenodd;
			stroke:green;
			stroke-width:4;
			stroke-linecap:round;
			stroke-linejoin:round;
			stroke-opacity:1;
		}
		.topological-dart {
			fill:#000000;
			stroke:#000000;
			stroke-width:0;
			stroke-linecap:round;
			stroke-linejoin:round;
			stroke-dasharray:none;
			paint-order:markers fill stroke;
		}
	</style>
<polygon
	points="310.52148,426.1489 482.85138,435.9027 484.29962,426.68317 348.99185,234.30527 332.4687,233.37006 303.70813,416.46176 "
	id="face_23_24_25_30_29_28"
	style="fill:rgb(192,192,192);stroke:none"
	opacity="1.0" />
<line
	class="arc1"
	id="link28_@1_29"
	x1="310.52148"
	y1="426.1489"
	x2="303.70813"
	y2="416.46176" />
<line
	class="arc2"
	id="link28_@2_0"
	x1="310.52148"
	y1="426.1489"
	x2="303.70813"
	y2="436.08844" />
<line
	class="arc0"
	id="link28_@0_23"
	x1="310.52148"
	y1="426.1489"
	x2="482.85138"
	y2="435.9027" />
<polygon
	points="303.70813,436.08844 484.29962,446.30984 487.19604,447.4975 369.91858,463.23706 356.29187,463.4895 175.70038,453.26813 172.80392,452.08047 290.0814,436.34088 "
	id="face_7_6_5_4_3_2_1_0"
	style="fill:rgb(192,192,192);stroke:none"
	opacity="1.0" />
<line
	class="arc1"
	id="link0_@1_1"
	x1="303.70813"
	y1="436.08844"
	x2="290.0814"
	y2="436.34088" />
<line
	class="arc0"
	id="link0_@0_7"
	x1="303.70813"
	y1="436.08844"
	x2="484.29962"
	y2="446.30984" />
<line
	class="arc2"
	id="link29_@2_34"
	x1="303.70813"
	y1="416.46176"
	x2="290.0814"
	y2="416.71423" />
<line
	class="arc0"
	id="link29_@0_30"
	x1="303.70813"
	y1="416.46176"
	x2="332.4687"
	y2="233.37006" />
<line
	class="arc2"
	id="link1_@2_33"
	x1="290.0814"
	y1="436.34088"
	x2="283.26804"
	y2="426.65375" />
<line
	class="arc0"
	id="link1_@0_2"
	x1="290.0814"
	y1="436.34088"
	x2="172.80392"
	y2="452.08047" />
<polygon
	points="290.0814,416.71423 318.84192,233.62247 308.11166,235.06256 172.80392,432.4538 171.3557,441.67334 283.26804,426.65375 "
	id="face_35_40_39_38_33_34"
	style="fill:rgb(192,192,192);stroke:none"
	opacity="1.0" />
<line
	class="arc1"
	id="link34_@1_33"
	x1="290.0814"
	y1="416.71423"
	x2="283.26804"
	y2="426.65375" />
<line
	class="arc0"
	id="link34_@0_35"
	x1="290.0814"
	y1="416.71423"
	x2="318.84192"
	y2="233.62247" />
<line
	class="arc0"
	id="link33_@0_38"
	x1="283.26804"
	y1="426.65375"
	x2="171.3557"
	y2="441.67334" />
<line
	class="arc1"
	id="link23_@1_24"
	x1="482.85138"
	y1="435.9027"
	x2="484.29962"
	y2="426.68317" />
<line
	class="arc2"
	id="link23_@2_7"
	x1="482.85138"
	y1="435.9027"
	x2="484.29962"
	y2="446.30984" />
<line
	class="arc1"
	id="link7_@1_6"
	x1="484.29962"
	y1="446.30984"
	x2="487.19604"
	y2="447.4975" />
<line
	class="arc2"
	id="link24_@2_19"
	x1="484.29962"
	y1="426.68317"
	x2="487.19604"
	y2="427.87082" />
<line
	class="arc0"
	id="link24_@0_25"
	x1="484.29962"
	y1="426.68317"
	x2="348.99185"
	y2="234.30527" />
<line
	class="arc2"
	id="link6_@2_18"
	x1="487.19604"
	y1="447.4975"
	x2="488.6443"
	y2="438.27798" />
<line
	class="arc0"
	id="link6_@0_5"
	x1="487.19604"
	y1="447.4975"
	x2="369.91858"
	y2="463.23706" />
<polygon
	points="487.19604,427.87082 351.8883,235.49286 341.15802,236.93298 369.91858,443.6104 376.73196,453.29755 488.6443,438.27798 "
	id="face_20_15_14_13_18_19"
	style="fill:rgb(192,192,192);stroke:none"
	opacity="1.0" />
<line
	class="arc1"
	id="link19_@1_18"
	x1="487.19604"
	y1="427.87082"
	x2="488.6443"
	y2="438.27798" />
<line
	class="arc0"
	id="link19_@0_20"
	x1="487.19604"
	y1="427.87082"
	x2="351.8883"
	y2="235.49286" />
<line
	class="arc0"
	id="link18_@0_13"
	x1="488.6443"
	y1="438.27798"
	x2="376.73196"
	y2="453.29755" />
<line
	class="arc1"
	id="link30_@1_25"
	x1="332.4687"
	y1="233.37006"
	x2="348.99185"
	y2="234.30527" />
<line
	class="arc2"
	id="link30_@2_35"
	x1="332.4687"
	y1="233.37006"
	x2="318.84192"
	y2="233.62247" />
<line
	class="arc1"
	id="link35_@1_40"
	x1="318.84192"
	y1="233.62247"
	x2="308.11166"
	y2="235.06256" />
<line
	class="arc2"
	id="link25_@2_20"
	x1="348.99185"
	y1="234.30527"
	x2="351.8883"
	y2="235.49286" />
<line
	class="arc2"
	id="link40_@2_45"
	x1="308.11166"
	y1="235.06256"
	x2="311.00815"
	y2="236.25021" />
<line
	class="arc0"
	id="link40_@0_39"
	x1="308.11166"
	y1="235.06256"
	x2="172.80392"
	y2="432.4538" />
<line
	class="arc1"
	id="link38_@1_39"
	x1="171.3557"
	y1="441.67334"
	x2="172.80392"
	y2="432.4538" />
<line
	class="arc2"
	id="link38_@2_2"
	x1="171.3557"
	y1="441.67334"
	x2="172.80392"
	y2="452.08047" />
<line
	class="arc1"
	id="link20_@1_15"
	x1="351.8883"
	y1="235.49286"
	x2="341.15802"
	y2="236.93298" />
<line
	class="arc1"
	id="link2_@1_3"
	x1="172.80392"
	y1="452.08047"
	x2="175.70038"
	y2="453.26813" />
<line
	class="arc2"
	id="link39_@2_44"
	x1="172.80392"
	y1="432.4538"
	x2="175.70038"
	y2="433.64145" />
<polygon
	points="311.00815,236.25021 175.70038,433.64145 177.14859,444.04858 349.47845,453.80243 356.29187,443.86285 327.53128,237.1854 "
	id="face_44_43_8_9_10_45"
	style="fill:rgb(192,192,192);stroke:none"
	opacity="1.0" />
<line
	class="arc1"
	id="link45_@1_10"
	x1="311.00815"
	y1="236.25021"
	x2="327.53128"
	y2="237.1854" />
<line
	class="arc0"
	id="link45_@0_44"
	x1="311.00815"
	y1="236.25021"
	x2="175.70038"
	y2="433.64145" />
<line
	class="arc2"
	id="link15_@2_10"
	x1="341.15802"
	y1="236.93298"
	x2="327.53128"
	y2="237.1854" />
<line
	class="arc0"
	id="link15_@0_14"
	x1="341.15802"
	y1="236.93298"
	x2="369.91858"
	y2="443.6104" />
<line
	class="arc2"
	id="link3_@2_43"
	x1="175.70038"
	y1="453.26813"
	x2="177.14859"
	y2="444.04858" />
<line
	class="arc0"
	id="link3_@0_4"
	x1="175.70038"
	y1="453.26813"
	x2="356.29187"
	y2="463.4895" />
<line
	class="arc0"
	id="link10_@0_9"
	x1="327.53128"
	y1="237.1854"
	x2="356.29187"
	y2="443.86285" />
<line
	class="arc1"
	id="link44_@1_43"
	x1="175.70038"
	y1="433.64145"
	x2="177.14859"
	y2="444.04858" />
<line
	class="arc0"
	id="link43_@0_8"
	x1="177.14859"
	y1="444.04858"
	x2="349.47845"
	y2="453.80243" />
<line
	class="arc1"
	id="link13_@1_14"
	x1="376.73196"
	y1="453.29755"
	x2="369.91858"
	y2="443.6104" />
<line
	class="arc2"
	id="link13_@2_5"
	x1="376.73196"
	y1="453.29755"
	x2="369.91858"
	y2="463.23706" />
<line
	class="arc1"
	id="link5_@1_4"
	x1="369.91858"
	y1="463.23706"
	x2="356.29187"
	y2="463.4895" />
<line
	class="arc2"
	id="link14_@2_9"
	x1="369.91858"
	y1="443.6104"
	x2="356.29187"
	y2="443.86285" />
<line
	class="arc2"
	id="link4_@2_8"
	x1="356.29187"
	y1="463.4895"
	x2="349.47845"
	y2="453.80243" />
<line
	class="arc1"
	id="link9_@1_8"
	x1="356.29187"
	y1="443.86285"
	x2="349.47845"
	y2="453.80243" />
</svg>
