<?xml version="1.0" encoding="UTF-8" standalone="no"?>
<!-- Created with Jerboa -->

<svg
	width="660"
	height="636" >
	<style id="style">
		.arc0 {
			fill:none;
			fill-rule:evenodd;
			stroke:black;
			stroke-width:4;
			stroke-linecap:round;
			stroke-linejoin:round;
			stroke-opacity:1;
		}
		.arc1 {
			fill:none;
			fill-rule:evenodd;
			stroke:red;
			stroke-width:4;
			stroke-linecap:round;
			stroke-linejoin:round;
			stroke-opacity:1;
		}
		.arc2 {
			fill:none;
			fill-rule:evenodd;
			stroke:blue;
			stroke-width:4;
			stroke-linecap:round;
			stroke-linejoin:round;
			stroke-opacity:1;
		}
		.arc3 {
			fill:none;
			fill-rule:evenodd;
			stroke:green;
			stroke-width:4;
			stroke-linecap:round;
			stroke-linejoin:round;
			stroke-opacity:1;
		}
		.topological-dart {
			fill:#000000;
			stroke:#000000;
			stroke-width:0;
			stroke-linecap:round;
			stroke-linejoin:round;
			stroke-dasharray:none;
			paint-order:markers fill stroke;
		}
	</style>
<polygon
	points="356.9486,521.6825 562.63226,533.3241 576.547,444.74197 406.9189,203.56802 327.5406,199.07526 291.485,428.60757 "
	id="face_23_24_25_30_29_28"
	style="fill:rgb(192,192,192);stroke:none"
	opacity="1.0" />
<line
	class="arc1"
	id="link28_@1_29"
	x1="356.9486"
	y1="521.6825"
	x2="291.485"
	y2="428.60757" />
<line
	class="arc2"
	id="link28_@2_0"
	x1="356.9486"
	y1="521.6825"
	x2="345.4933"
	y2="544.1727" />
<line
	class="arc0"
	id="link28_@0_23"
	x1="356.9486"
	y1="521.6825"
	x2="562.63226"
	y2="533.3241" />
<polygon
	points="345.4933,544.1727 551.177,555.81433 579.00635,567.22534 445.43387,585.15186 314.50665,587.57733 108.823006,575.9357 80.99355,564.5247 214.56604,546.5982 "
	id="face_7_6_5_4_3_2_1_0"
	style="fill:rgb(192,192,192);stroke:none"
	opacity="1.0" />
<line
	class="arc1"
	id="link0_@1_1"
	x1="345.4933"
	y1="544.1727"
	x2="214.56604"
	y2="546.5982" />
<line
	class="arc0"
	id="link0_@0_7"
	x1="345.4933"
	y1="544.1727"
	x2="551.177"
	y2="555.81433" />
<line
	class="arc2"
	id="link29_@2_34"
	x1="291.485"
	y1="428.60757"
	x2="262.39005"
	y2="429.14658" />
<line
	class="arc0"
	id="link29_@0_30"
	x1="291.485"
	y1="428.60757"
	x2="327.5406"
	y2="199.07526" />
<polygon
	points="262.39005,429.14658 298.44562,199.61429 246.89673,206.53256 77.26867,453.99136 63.353912,542.5735 196.92642,524.647 "
	id="face_35_40_39_38_33_34"
	style="fill:rgb(192,192,192);stroke:none"
	opacity="1.0" />
<line
	class="arc1"
	id="link34_@1_33"
	x1="262.39005"
	y1="429.14658"
	x2="196.92642"
	y2="524.647" />
<line
	class="arc0"
	id="link34_@0_35"
	x1="262.39005"
	y1="429.14658"
	x2="298.44562"
	y2="199.61429" />
<line
	class="arc2"
	id="link33_@2_1"
	x1="196.92642"
	y1="524.647"
	x2="214.56604"
	y2="546.5982" />
<line
	class="arc0"
	id="link33_@0_38"
	x1="196.92642"
	y1="524.647"
	x2="63.353912"
	y2="542.5735" />
<line
	class="arc0"
	id="link1_@0_2"
	x1="214.56604"
	y1="546.5982"
	x2="80.99355"
	y2="564.5247" />
<line
	class="arc1"
	id="link23_@1_24"
	x1="562.63226"
	y1="533.3241"
	x2="576.547"
	y2="444.74197" />
<line
	class="arc2"
	id="link23_@2_7"
	x1="562.63226"
	y1="533.3241"
	x2="551.177"
	y2="555.81433" />
<line
	class="arc1"
	id="link7_@1_6"
	x1="551.177"
	y1="555.81433"
	x2="579.00635"
	y2="567.22534" />
<line
	class="arc2"
	id="link24_@2_19"
	x1="576.547"
	y1="444.74197"
	x2="582.7313"
	y2="447.27777" />
<line
	class="arc0"
	id="link24_@0_25"
	x1="576.547"
	y1="444.74197"
	x2="406.9189"
	y2="203.56802" />
<line
	class="arc1"
	id="link30_@1_25"
	x1="327.5406"
	y1="199.07526"
	x2="406.9189"
	y2="203.56802" />
<line
	class="arc2"
	id="link30_@2_35"
	x1="327.5406"
	y1="199.07526"
	x2="298.44562"
	y2="199.61429" />
<line
	class="arc1"
	id="link35_@1_40"
	x1="298.44562"
	y1="199.61429"
	x2="246.89673"
	y2="206.53256" />
<polygon
	points="582.7313,447.27777 413.1033,206.10388 361.5544,213.02216 397.60992,472.12253 463.0735,565.19745 596.646,547.27094 "
	id="face_20_15_14_13_18_19"
	style="fill:rgb(192,192,192);stroke:none"
	opacity="1.0" />
<line
	class="arc1"
	id="link19_@1_18"
	x1="582.7313"
	y1="447.27777"
	x2="596.646"
	y2="547.27094" />
<line
	class="arc0"
	id="link19_@0_20"
	x1="582.7313"
	y1="447.27777"
	x2="413.1033"
	y2="206.10388" />
<line
	class="arc1"
	id="link38_@1_39"
	x1="63.353912"
	y1="542.5735"
	x2="77.26867"
	y2="453.99136" />
<line
	class="arc2"
	id="link38_@2_2"
	x1="63.353912"
	y1="542.5735"
	x2="80.99355"
	y2="564.5247" />
<line
	class="arc1"
	id="link2_@1_3"
	x1="80.99355"
	y1="564.5247"
	x2="108.823006"
	y2="575.9357" />
<line
	class="arc2"
	id="link25_@2_20"
	x1="406.9189"
	y1="203.56802"
	x2="413.1033"
	y2="206.10388" />
<line
	class="arc2"
	id="link6_@2_18"
	x1="579.00635"
	y1="567.22534"
	x2="596.646"
	y2="547.27094" />
<line
	class="arc0"
	id="link6_@0_5"
	x1="579.00635"
	y1="567.22534"
	x2="445.43387"
	y2="585.15186" />
<line
	class="arc0"
	id="link18_@0_13"
	x1="596.646"
	y1="547.27094"
	x2="463.0735"
	y2="565.19745" />
<line
	class="arc1"
	id="link20_@1_15"
	x1="413.1033"
	y1="206.10388"
	x2="361.5544"
	y2="213.02216" />
<line
	class="arc2"
	id="link40_@2_45"
	x1="246.89673"
	y1="206.53256"
	x2="253.08101"
	y2="209.06833" />
<line
	class="arc0"
	id="link40_@0_39"
	x1="246.89673"
	y1="206.53256"
	x2="77.26867"
	y2="453.99136" />
<line
	class="arc2"
	id="link39_@2_44"
	x1="77.26867"
	y1="453.99136"
	x2="83.45295"
	y2="456.52716" />
<polygon
	points="253.08101,209.06833 83.45295,456.52716 97.36773,556.5203 303.0514,568.1619 368.51492,472.66156 332.45935,213.5611 "
	id="face_44_43_8_9_10_45"
	style="fill:rgb(192,192,192);stroke:none"
	opacity="1.0" />
<line
	class="arc1"
	id="link45_@1_10"
	x1="253.08101"
	y1="209.06833"
	x2="332.45935"
	y2="213.5611" />
<line
	class="arc0"
	id="link45_@0_44"
	x1="253.08101"
	y1="209.06833"
	x2="83.45295"
	y2="456.52716" />
<line
	class="arc1"
	id="link44_@1_43"
	x1="83.45295"
	y1="456.52716"
	x2="97.36773"
	y2="556.5203" />
<line
	class="arc2"
	id="link15_@2_10"
	x1="361.5544"
	y1="213.02216"
	x2="332.45935"
	y2="213.5611" />
<line
	class="arc0"
	id="link15_@0_14"
	x1="361.5544"
	y1="213.02216"
	x2="397.60992"
	y2="472.12253" />
<line
	class="arc0"
	id="link10_@0_9"
	x1="332.45935"
	y1="213.5611"
	x2="368.51492"
	y2="472.66156" />
<line
	class="arc2"
	id="link3_@2_43"
	x1="108.823006"
	y1="575.9357"
	x2="97.36773"
	y2="556.5203" />
<line
	class="arc0"
	id="link3_@0_4"
	x1="108.823006"
	y1="575.9357"
	x2="314.50665"
	y2="587.57733" />
<line
	class="arc0"
	id="link43_@0_8"
	x1="97.36773"
	y1="556.5203"
	x2="303.0514"
	y2="568.1619" />
<line
	class="arc1"
	id="link5_@1_4"
	x1="445.43387"
	y1="585.15186"
	x2="314.50665"
	y2="587.57733" />
<line
	class="arc2"
	id="link5_@2_13"
	x1="445.43387"
	y1="585.15186"
	x2="463.0735"
	y2="565.19745" />
<line
	class="arc1"
	id="link13_@1_14"
	x1="463.0735"
	y1="565.19745"
	x2="397.60992"
	y2="472.12253" />
<line
	class="arc2"
	id="link4_@2_8"
	x1="314.50665"
	y1="587.57733"
	x2="303.0514"
	y2="568.1619" />
<line
	class="arc2"
	id="link14_@2_9"
	x1="397.60992"
	y1="472.12253"
	x2="368.51492"
	y2="472.66156" />
<line
	class="arc1"
	id="link9_@1_8"
	x1="368.51492"
	y1="472.66156"
	x2="303.0514"
	y2="568.1619" />
</svg>
