<?xml version="1.0" encoding="UTF-8" standalone="no"?>
<!-- Created with Jerboa -->

<svg
	width="1302"
	height="636" >
	<style id="style">
		.arc0 {
			fill:none;
			fill-rule:evenodd;
			stroke:black;
			stroke-width:4;
			stroke-linecap:round;
			stroke-linejoin:round;
			stroke-opacity:1;
		}
		.arc1 {
			fill:none;
			fill-rule:evenodd;
			stroke:red;
			stroke-width:4;
			stroke-linecap:round;
			stroke-linejoin:round;
			stroke-opacity:1;
		}
		.arc2 {
			fill:none;
			fill-rule:evenodd;
			stroke:blue;
			stroke-width:4;
			stroke-linecap:round;
			stroke-linejoin:round;
			stroke-opacity:1;
		}
		.arc3 {
			fill:none;
			fill-rule:evenodd;
			stroke:green;
			stroke-width:4;
			stroke-linecap:round;
			stroke-linejoin:round;
			stroke-opacity:1;
		}
		.topological-dart {
			fill:#000000;
			stroke:#000000;
			stroke-width:0;
			stroke-linecap:round;
			stroke-linejoin:round;
			stroke-dasharray:none;
			paint-order:markers fill stroke;
		}
	</style>
<polygon
	points="315.6343,364.3939 315.6343,173.70276 323.31137,165.98239 498.80237,180.19247 506.47943,189.15613 506.47943,379.8473 498.80237,387.56766 323.31137,373.35754 "
	id="face_38_39_34_33_32_31_36_37"
	style="fill:rgb(192,192,192);stroke:none"
	opacity="1.0" />
<line
	class="arc1"
	id="link37_@1_36"
	x1="315.6343"
	y1="364.3939"
	x2="323.31137"
	y2="373.35754" />
<line
	class="arc2"
	id="link37_@2_42"
	x1="315.6343"
	y1="364.3939"
	x2="304.3774"
	y2="365.10535" />
<line
	class="arc0"
	id="link37_@0_38"
	x1="315.6343"
	y1="364.3939"
	x2="315.6343"
	y2="173.70276" />
<line
	class="arc2"
	id="link36_@2_0"
	x1="323.31137"
	y1="373.35754"
	x2="319.73154"
	y2="383.03265" />
<line
	class="arc0"
	id="link36_@0_31"
	x1="323.31137"
	y1="373.35754"
	x2="498.80237"
	y2="387.56766" />
<polygon
	points="304.3774,365.10535 304.3774,174.41422 300.79755,167.4053 218.96475,197.87903 215.38487,207.55411 215.38487,398.2453 218.96475,405.25415 300.79755,374.7805 "
	id="face_43_44_49_48_47_46_41_42"
	style="fill:rgb(192,192,192);stroke:none"
	opacity="1.0" />
<line
	class="arc1"
	id="link42_@1_41"
	x1="304.3774"
	y1="365.10535"
	x2="300.79755"
	y2="374.7805" />
<line
	class="arc0"
	id="link42_@0_43"
	x1="304.3774"
	y1="365.10535"
	x2="304.3774"
	y2="174.41422" />
<polygon
	points="319.73154,383.03265 495.22247,397.24274 499.3197,399.1975 417.4869,429.6712 406.22995,430.3827 230.73898,416.17255 226.64178,414.2178 308.47458,383.74414 "
	id="face_7_6_5_4_3_2_1_0"
	style="fill:rgb(192,192,192);stroke:none"
	opacity="1.0" />
<line
	class="arc1"
	id="link0_@1_1"
	x1="319.73154"
	y1="383.03265"
	x2="308.47458"
	y2="383.74414" />
<line
	class="arc0"
	id="link0_@0_7"
	x1="319.73154"
	y1="383.03265"
	x2="495.22247"
	y2="397.24274" />
<line
	class="arc2"
	id="link41_@2_1"
	x1="300.79755"
	y1="374.7805"
	x2="308.47458"
	y2="383.74414" />
<line
	class="arc0"
	id="link41_@0_46"
	x1="300.79755"
	y1="374.7805"
	x2="218.96475"
	y2="405.25415" />
<line
	class="arc0"
	id="link1_@0_2"
	x1="308.47458"
	y1="383.74414"
	x2="226.64178"
	y2="414.2178" />
<line
	class="arc1"
	id="link38_@1_39"
	x1="315.6343"
	y1="173.70276"
	x2="323.31137"
	y2="165.98239" />
<line
	class="arc2"
	id="link38_@2_43"
	x1="315.6343"
	y1="173.70276"
	x2="304.3774"
	y2="174.41422" />
<line
	class="arc1"
	id="link43_@1_44"
	x1="304.3774"
	y1="174.41422"
	x2="300.79755"
	y2="167.4053" />
<line
	class="arc2"
	id="link39_@2_40"
	x1="323.31137"
	y1="165.98239"
	x2="319.73154"
	y2="158.97345" />
<line
	class="arc0"
	id="link39_@0_34"
	x1="323.31137"
	y1="165.98239"
	x2="498.80237"
	y2="180.19247" />
<line
	class="arc2"
	id="link44_@2_45"
	x1="300.79755"
	y1="167.4053"
	x2="308.47458"
	y2="159.68494" />
<line
	class="arc0"
	id="link44_@0_49"
	x1="300.79755"
	y1="167.4053"
	x2="218.96475"
	y2="197.87903" />
<polygon
	points="319.73154,158.97345 495.22247,173.1836 499.3197,175.13837 417.4869,205.61206 406.22995,206.32352 230.73898,192.11337 226.64178,190.15863 308.47458,159.68494 "
	id="face_35_30_25_20_55_50_45_40"
	style="fill:rgb(192,192,192);stroke:none"
	opacity="1.0" />
<line
	class="arc1"
	id="link40_@1_45"
	x1="319.73154"
	y1="158.97345"
	x2="308.47458"
	y2="159.68494" />
<line
	class="arc0"
	id="link40_@0_35"
	x1="319.73154"
	y1="158.97345"
	x2="495.22247"
	y2="173.1836" />
<line
	class="arc0"
	id="link45_@0_50"
	x1="308.47458"
	y1="159.68494"
	x2="226.64178"
	y2="190.15863" />
<line
	class="arc1"
	id="link31_@1_32"
	x1="498.80237"
	y1="387.56766"
	x2="506.47943"
	y2="379.8473" />
<line
	class="arc2"
	id="link31_@2_7"
	x1="498.80237"
	y1="387.56766"
	x2="495.22247"
	y2="397.24274" />
<line
	class="arc2"
	id="link32_@2_27"
	x1="506.47943"
	y1="379.8473"
	x2="510.5766"
	y2="381.80203" />
<line
	class="arc0"
	id="link32_@0_33"
	x1="506.47943"
	y1="379.8473"
	x2="506.47943"
	y2="189.15613" />
<line
	class="arc1"
	id="link7_@1_6"
	x1="495.22247"
	y1="397.24274"
	x2="499.3197"
	y2="399.1975" />
<polygon
	points="510.5766,381.80203 510.5766,191.1109 506.9967,184.10196 425.16397,214.57565 421.58408,224.2508 421.58408,414.94196 425.16397,421.9508 506.9967,391.47714 "
	id="face_28_29_24_23_22_21_26_27"
	style="fill:rgb(192,192,192);stroke:none"
	opacity="1.0" />
<line
	class="arc1"
	id="link27_@1_26"
	x1="510.5766"
	y1="381.80203"
	x2="506.9967"
	y2="391.47714" />
<line
	class="arc0"
	id="link27_@0_28"
	x1="510.5766"
	y1="381.80203"
	x2="510.5766"
	y2="191.1109" />
<line
	class="arc2"
	id="link6_@2_26"
	x1="499.3197"
	y1="399.1975"
	x2="506.9967"
	y2="391.47714" />
<line
	class="arc0"
	id="link6_@0_5"
	x1="499.3197"
	y1="399.1975"
	x2="417.4869"
	y2="429.6712" />
<line
	class="arc0"
	id="link26_@0_21"
	x1="506.9967"
	y1="391.47714"
	x2="425.16397"
	y2="421.9508" />
<line
	class="arc1"
	id="link34_@1_33"
	x1="498.80237"
	y1="180.19247"
	x2="506.47943"
	y2="189.15613" />
<line
	class="arc2"
	id="link34_@2_35"
	x1="498.80237"
	y1="180.19247"
	x2="495.22247"
	y2="173.1836" />
<line
	class="arc2"
	id="link33_@2_28"
	x1="506.47943"
	y1="189.15613"
	x2="510.5766"
	y2="191.1109" />
<line
	class="arc1"
	id="link35_@1_30"
	x1="495.22247"
	y1="173.1836"
	x2="499.3197"
	y2="175.13837" />
<line
	class="arc1"
	id="link28_@1_29"
	x1="510.5766"
	y1="191.1109"
	x2="506.9967"
	y2="184.10196" />
<line
	class="arc2"
	id="link30_@2_29"
	x1="499.3197"
	y1="175.13837"
	x2="506.9967"
	y2="184.10196" />
<line
	class="arc0"
	id="link30_@0_25"
	x1="499.3197"
	y1="175.13837"
	x2="417.4869"
	y2="205.61206" />
<line
	class="arc0"
	id="link29_@0_24"
	x1="506.9967"
	y1="184.10196"
	x2="425.16397"
	y2="214.57565" />
<line
	class="arc1"
	id="link46_@1_47"
	x1="218.96475"
	y1="405.25415"
	x2="215.38487"
	y2="398.2453" />
<line
	class="arc2"
	id="link46_@2_2"
	x1="218.96475"
	y1="405.25415"
	x2="226.64178"
	y2="414.2178" />
<line
	class="arc1"
	id="link2_@1_3"
	x1="226.64178"
	y1="414.2178"
	x2="230.73898"
	y2="416.17255" />
<line
	class="arc2"
	id="link47_@2_52"
	x1="215.38487"
	y1="398.2453"
	x2="219.48207"
	y2="400.2" />
<line
	class="arc0"
	id="link47_@0_48"
	x1="215.38487"
	y1="398.2453"
	x2="215.38487"
	y2="207.55411" />
<line
	class="arc2"
	id="link3_@2_51"
	x1="230.73898"
	y1="416.17255"
	x2="227.1591"
	y2="409.16367" />
<line
	class="arc0"
	id="link3_@0_4"
	x1="230.73898"
	y1="416.17255"
	x2="406.22995"
	y2="430.3827" />
<polygon
	points="219.48207,400.2 219.48207,209.50882 227.1591,201.78845 402.6501,215.9986 410.32715,224.96225 410.32715,415.65338 402.6501,423.37378 227.1591,409.16367 "
	id="face_53_54_19_18_17_16_51_52"
	style="fill:rgb(192,192,192);stroke:none"
	opacity="1.0" />
<line
	class="arc1"
	id="link52_@1_51"
	x1="219.48207"
	y1="400.2"
	x2="227.1591"
	y2="409.16367" />
<line
	class="arc0"
	id="link52_@0_53"
	x1="219.48207"
	y1="400.2"
	x2="219.48207"
	y2="209.50882" />
<line
	class="arc0"
	id="link51_@0_16"
	x1="227.1591"
	y1="409.16367"
	x2="402.6501"
	y2="423.37378" />
<line
	class="arc1"
	id="link49_@1_48"
	x1="218.96475"
	y1="197.87903"
	x2="215.38487"
	y2="207.55411" />
<line
	class="arc2"
	id="link49_@2_50"
	x1="218.96475"
	y1="197.87903"
	x2="226.64178"
	y2="190.15863" />
<line
	class="arc1"
	id="link50_@1_55"
	x1="226.64178"
	y1="190.15863"
	x2="230.73898"
	y2="192.11337" />
<line
	class="arc2"
	id="link48_@2_53"
	x1="215.38487"
	y1="207.55411"
	x2="219.48207"
	y2="209.50882" />
<line
	class="arc2"
	id="link55_@2_54"
	x1="230.73898"
	y1="192.11337"
	x2="227.1591"
	y2="201.78845" />
<line
	class="arc0"
	id="link55_@0_20"
	x1="230.73898"
	y1="192.11337"
	x2="406.22995"
	y2="206.32352" />
<line
	class="arc1"
	id="link53_@1_54"
	x1="219.48207"
	y1="209.50882"
	x2="227.1591"
	y2="201.78845" />
<line
	class="arc0"
	id="link54_@0_19"
	x1="227.1591"
	y1="201.78845"
	x2="402.6501"
	y2="215.9986" />
<line
	class="arc1"
	id="link5_@1_4"
	x1="417.4869"
	y1="429.6712"
	x2="406.22995"
	y2="430.3827" />
<line
	class="arc2"
	id="link5_@2_21"
	x1="417.4869"
	y1="429.6712"
	x2="425.16397"
	y2="421.9508" />
<line
	class="arc2"
	id="link4_@2_16"
	x1="406.22995"
	y1="430.3827"
	x2="402.6501"
	y2="423.37378" />
<line
	class="arc1"
	id="link21_@1_22"
	x1="425.16397"
	y1="421.9508"
	x2="421.58408"
	y2="414.94196" />
<line
	class="arc1"
	id="link16_@1_17"
	x1="402.6501"
	y1="423.37378"
	x2="410.32715"
	y2="415.65338" />
<line
	class="arc2"
	id="link22_@2_17"
	x1="421.58408"
	y1="414.94196"
	x2="410.32715"
	y2="415.65338" />
<line
	class="arc0"
	id="link22_@0_23"
	x1="421.58408"
	y1="414.94196"
	x2="421.58408"
	y2="224.2508" />
<line
	class="arc0"
	id="link17_@0_18"
	x1="410.32715"
	y1="415.65338"
	x2="410.32715"
	y2="224.96225" />
<line
	class="arc1"
	id="link25_@1_20"
	x1="417.4869"
	y1="205.61206"
	x2="406.22995"
	y2="206.32352" />
<line
	class="arc2"
	id="link25_@2_24"
	x1="417.4869"
	y1="205.61206"
	x2="425.16397"
	y2="214.57565" />
<line
	class="arc1"
	id="link24_@1_23"
	x1="425.16397"
	y1="214.57565"
	x2="421.58408"
	y2="224.2508" />
<line
	class="arc2"
	id="link20_@2_19"
	x1="406.22995"
	y1="206.32352"
	x2="402.6501"
	y2="215.9986" />
<line
	class="arc2"
	id="link23_@2_18"
	x1="421.58408"
	y1="224.2508"
	x2="410.32715"
	y2="224.96225" />
<line
	class="arc1"
	id="link19_@1_18"
	x1="402.6501"
	y1="215.9986"
	x2="410.32715"
	y2="224.96225" />
<polygon
	points="1158.0925,430.8741 970.086,348.93353 970.086,332.24957 1158.0925,248.525 1167.5594,252.65106 1167.5594,426.6582 "
	id="face_86_89_84_83_82_81"
	style="fill:rgb(192,192,192);stroke:none"
	opacity="1.0" />
<line
	class="arc1"
	id="link81_@1_82"
	x1="1158.0925"
	y1="430.8741"
	x2="1167.5594"
	y2="426.6582" />
<line
	class="arc2"
	id="link81_@2_11"
	x1="1158.0925"
	y1="430.8741"
	x2="1154.5126"
	y2="440.54926" />
<line
	class="arc0"
	id="link81_@0_86"
	x1="1158.0925"
	y1="430.8741"
	x2="970.086"
	y2="348.93353" />
<line
	class="arc2"
	id="link82_@2_77"
	x1="1167.5594"
	y1="426.6582"
	x2="1173.4468"
	y2="432.11743" />
<line
	class="arc0"
	id="link82_@0_83"
	x1="1167.5594"
	y1="426.6582"
	x2="1167.5594"
	y2="252.65106" />
<polygon
	points="1154.5126,440.54926 966.50616,358.60867 959.34644,361.27484 1076.2596,469.68982 1085.7267,473.81592 1160.3997,446.00842 "
	id="face_12_15_8_9_10_11"
	style="fill:rgb(192,192,192);stroke:none"
	opacity="1.0" />
<line
	class="arc1"
	id="link11_@1_10"
	x1="1154.5126"
	y1="440.54926"
	x2="1160.3997"
	y2="446.00842" />
<line
	class="arc0"
	id="link11_@0_12"
	x1="1154.5126"
	y1="440.54926"
	x2="966.50616"
	y2="358.60867" />
<polygon
	points="1173.4468,432.11743 1173.4468,249.76828 1169.867,242.7594 1091.614,271.89996 1088.0342,281.57507 1088.0342,463.92422 1091.614,470.9331 1169.867,441.79254 "
	id="face_78_79_74_73_72_71_76_77"
	style="fill:rgb(192,192,192);stroke:none"
	opacity="1.0" />
<line
	class="arc1"
	id="link77_@1_76"
	x1="1173.4468"
	y1="432.11743"
	x2="1169.867"
	y2="441.79254" />
<line
	class="arc0"
	id="link77_@0_78"
	x1="1173.4468"
	y1="432.11743"
	x2="1173.4468"
	y2="249.76828" />
<line
	class="arc2"
	id="link10_@2_76"
	x1="1160.3997"
	y1="446.00842"
	x2="1169.867"
	y2="441.79254" />
<line
	class="arc0"
	id="link10_@0_9"
	x1="1160.3997"
	y1="446.00842"
	x2="1085.7267"
	y2="473.81592" />
<line
	class="arc0"
	id="link76_@0_71"
	x1="1169.867"
	y1="441.79254"
	x2="1091.614"
	y2="470.9331" />
<line
	class="arc1"
	id="link86_@1_89"
	x1="970.086"
	y1="348.93353"
	x2="970.086"
	y2="332.24957" />
<line
	class="arc2"
	id="link86_@2_12"
	x1="970.086"
	y1="348.93353"
	x2="966.50616"
	y2="358.60867" />
<line
	class="arc2"
	id="link89_@2_90"
	x1="970.086"
	y1="332.24957"
	x2="966.50616"
	y2="325.24066" />
<line
	class="arc0"
	id="link89_@0_84"
	x1="970.086"
	y1="332.24957"
	x2="1158.0925"
	y2="248.525" />
<line
	class="arc1"
	id="link12_@1_15"
	x1="966.50616"
	y1="358.60867"
	x2="959.34644"
	y2="361.27484" />
<line
	class="arc1"
	id="link83_@1_84"
	x1="1167.5594"
	y1="252.65106"
	x2="1158.0925"
	y2="248.525" />
<line
	class="arc2"
	id="link83_@2_78"
	x1="1167.5594"
	y1="252.65106"
	x2="1173.4468"
	y2="249.76828" />
<polygon
	points="966.50616,325.24066 1154.5126,241.51608 1160.3997,238.63324 1085.7267,266.44073 1076.2596,270.65668 959.34644,327.90686 "
	id="face_85_80_75_70_65_90"
	style="fill:rgb(192,192,192);stroke:none"
	opacity="1.0" />
<line
	class="arc1"
	id="link90_@1_65"
	x1="966.50616"
	y1="325.24066"
	x2="959.34644"
	y2="327.90686" />
<line
	class="arc0"
	id="link90_@0_85"
	x1="966.50616"
	y1="325.24066"
	x2="1154.5126"
	y2="241.51608" />
<line
	class="arc2"
	id="link84_@2_85"
	x1="1158.0925"
	y1="248.525"
	x2="1154.5126"
	y2="241.51608" />
<line
	class="arc1"
	id="link78_@1_79"
	x1="1173.4468"
	y1="249.76828"
	x2="1169.867"
	y2="242.7594" />
<line
	class="arc2"
	id="link15_@2_61"
	x1="959.34644"
	y1="361.27484"
	x2="955.7666"
	y2="354.26593" />
<line
	class="arc0"
	id="link15_@0_8"
	x1="959.34644"
	y1="361.27484"
	x2="1076.2596"
	y2="469.68982" />
<line
	class="arc1"
	id="link85_@1_80"
	x1="1154.5126"
	y1="241.51608"
	x2="1160.3997"
	y2="238.63324" />
<line
	class="arc2"
	id="link65_@2_64"
	x1="959.34644"
	y1="327.90686"
	x2="955.7666"
	y2="337.582" />
<line
	class="arc0"
	id="link65_@0_70"
	x1="959.34644"
	y1="327.90686"
	x2="1076.2596"
	y2="270.65668" />
<line
	class="arc2"
	id="link79_@2_80"
	x1="1169.867"
	y1="242.7594"
	x2="1160.3997"
	y2="238.63324" />
<line
	class="arc0"
	id="link79_@0_74"
	x1="1169.867"
	y1="242.7594"
	x2="1091.614"
	y2="271.89996" />
<line
	class="arc0"
	id="link80_@0_75"
	x1="1160.3997"
	y1="238.63324"
	x2="1085.7267"
	y2="266.44073" />
<polygon
	points="955.7666,354.26593 1072.6798,462.68094 1078.5669,459.79813 1078.5669,285.791 1072.6798,280.3318 955.7666,337.582 "
	id="face_66_67_68_69_64_61"
	style="fill:rgb(192,192,192);stroke:none"
	opacity="1.0" />
<line
	class="arc1"
	id="link61_@1_64"
	x1="955.7666"
	y1="354.26593"
	x2="955.7666"
	y2="337.582" />
<line
	class="arc0"
	id="link61_@0_66"
	x1="955.7666"
	y1="354.26593"
	x2="1072.6798"
	y2="462.68094" />
<line
	class="arc0"
	id="link64_@0_69"
	x1="955.7666"
	y1="337.582"
	x2="1072.6798"
	y2="280.3318" />
<line
	class="arc1"
	id="link9_@1_8"
	x1="1085.7267"
	y1="473.81592"
	x2="1076.2596"
	y2="469.68982" />
<line
	class="arc2"
	id="link9_@2_71"
	x1="1085.7267"
	y1="473.81592"
	x2="1091.614"
	y2="470.9331" />
<line
	class="arc2"
	id="link8_@2_66"
	x1="1076.2596"
	y1="469.68982"
	x2="1072.6798"
	y2="462.68094" />
<line
	class="arc1"
	id="link71_@1_72"
	x1="1091.614"
	y1="470.9331"
	x2="1088.0342"
	y2="463.92422" />
<line
	class="arc1"
	id="link66_@1_67"
	x1="1072.6798"
	y1="462.68094"
	x2="1078.5669"
	y2="459.79813" />
<line
	class="arc2"
	id="link72_@2_67"
	x1="1088.0342"
	y1="463.92422"
	x2="1078.5669"
	y2="459.79813" />
<line
	class="arc0"
	id="link72_@0_73"
	x1="1088.0342"
	y1="463.92422"
	x2="1088.0342"
	y2="281.57507" />
<line
	class="arc0"
	id="link67_@0_68"
	x1="1078.5669"
	y1="459.79813"
	x2="1078.5669"
	y2="285.791" />
<line
	class="arc1"
	id="link70_@1_75"
	x1="1076.2596"
	y1="270.65668"
	x2="1085.7267"
	y2="266.44073" />
<line
	class="arc2"
	id="link70_@2_69"
	x1="1076.2596"
	y1="270.65668"
	x2="1072.6798"
	y2="280.3318" />
<line
	class="arc2"
	id="link75_@2_74"
	x1="1085.7267"
	y1="266.44073"
	x2="1091.614"
	y2="271.89996" />
<line
	class="arc1"
	id="link69_@1_68"
	x1="1072.6798"
	y1="280.3318"
	x2="1078.5669"
	y2="285.791" />
<line
	class="arc1"
	id="link74_@1_73"
	x1="1091.614"
	y1="271.89996"
	x2="1088.0342"
	y2="281.57507" />
<line
	class="arc2"
	id="link68_@2_73"
	x1="1078.5669"
	y1="285.791"
	x2="1088.0342"
	y2="281.57507" />
</svg>
