<?xml version="1.0" encoding="UTF-8" standalone="no"?>
<!-- Created with Inkscape (http://www.inkscape.org/) -->

<svg
   width="10.815818mm"
   height="22.709846mm"
   viewBox="0 0 10.815818 22.709846"
   version="1.1"
   id="svg1"
   inkscape:version="1.3.2 (091e20ef0f, 2023-11-25, custom)"
   sodipodi:docname="graphe-vide.svg"
   xmlns:inkscape="http://www.inkscape.org/namespaces/inkscape"
   xmlns:sodipodi="http://sodipodi.sourceforge.net/DTD/sodipodi-0.dtd"
   xmlns="http://www.w3.org/2000/svg"
   xmlns:svg="http://www.w3.org/2000/svg">
  <sodipodi:namedview
     id="namedview1"
     pagecolor="#ffffff"
     bordercolor="#000000"
     borderopacity="0.25"
     inkscape:showpageshadow="2"
     inkscape:pageopacity="0.0"
     inkscape:pagecheckerboard="0"
     inkscape:deskcolor="#d1d1d1"
     inkscape:document-units="mm"
     showgrid="false"
     inkscape:zoom="0.77771465"
     inkscape:cx="13.501096"
     inkscape:cy="28.93092"
     inkscape:window-width="1892"
     inkscape:window-height="1034"
     inkscape:window-x="9"
     inkscape:window-y="27"
     inkscape:window-maximized="1"
     inkscape:current-layer="layer1" />
  <defs
     id="defs1" />
  <g
     inkscape:label="Calque 1"
     inkscape:groupmode="layer"
     id="layer1"
     transform="translate(-101.31549,-140.86027)">
    <g
       inkscape:label=""
       transform="matrix(3.056348,0,0,3.056348,101.3155,140.86027)"
       id="g1"
       style="stroke-width:0.327188">
      <g
         fill="#000000"
         fill-opacity="1"
         id="g2"
         transform="matrix(0.352778,0,0,0.352778,-1.1165,-0.513997)"
         style="stroke-width:0.327188">
        <g
           id="use1"
           transform="translate(1.993,20.582001)"
           style="stroke-width:0.327188">
          <path
             d="m 9.609375,-18.640625 c 0,-0.265625 -0.1875,-0.484375 -0.484375,-0.484375 -0.375,0 -0.453125,0.265625 -0.59375,0.78125 -0.296875,1 -0.0625,0.125 -0.328125,1.125 C 7.90625,-17.375 7.109375,-17.75 6.1875,-17.75 c -1.40625,0 -3.015625,0.75 -3.9375,2.65625 -0.96875,2.015625 -1.078125,4.234375 -1.078125,6.546875 0,1.5625 0,6.015625 2.15625,7.953125 C 2.75,1.3125 2.75,1.359375 2.75,1.4375 c 0,0.265625 0.203125,0.5 0.5,0.5 0.375,0 0.4375,-0.25 0.59375,-0.796875 0.296875,-0.984375 0.046875,-0.125 0.3125,-1.109375 0.609375,0.3125 1.34375,0.515625 2.015625,0.515625 2.78125,0 3.859375,-2.328125 4.3125,-3.515625 0.640625,-1.734375 0.71875,-3.796875 0.71875,-5.578125 0,-1.84375 0,-5.953125 -2.15625,-8 z m -5.96875,16.90625 C 2.828125,-3.4375 2.828125,-6.5 2.828125,-8.84375 c 0,-2.015625 0,-3.71875 0.34375,-5.3125 0.46875,-2.296875 1.90625,-3.046875 3.015625,-3.046875 0.5,0 1.140625,0.15625 1.796875,0.703125 z m 5.078125,-13.78125 c 0.828125,1.4375 0.828125,4.3125 0.828125,6.671875 0,1.8125 0,3.640625 -0.296875,5.296875 C 8.796875,-0.9375 7.484375,0 6.171875,0 5.59375,0 5,-0.203125 4.40625,-0.71875 Z m 0,0"
             id="path2"
             style="stroke-width:0.327188" />
        </g>
      </g>
    </g>
  </g>
</svg>
