<?xml version="1.0" encoding="UTF-8" standalone="no"?>
<!-- Created with Inkscape (http://www.inkscape.org/) -->

<svg
   version="1.1"
   id="svg1"
   width="846.27417"
   height="847.08246"
   viewBox="0 0 846.27417 847.08246"
   sodipodi:docname="inst-quad-triangulation-step3.svg"
   inkscape:version="1.3.2 (091e20ef0f, 2023-11-25, custom)"
   xmlns:inkscape="http://www.inkscape.org/namespaces/inkscape"
   xmlns:sodipodi="http://sodipodi.sourceforge.net/DTD/sodipodi-0.dtd"
   xmlns="http://www.w3.org/2000/svg"
   xmlns:svg="http://www.w3.org/2000/svg">
  <defs
     id="defs1" />
  <sodipodi:namedview
     id="namedview1"
     pagecolor="#ffffff"
     bordercolor="#000000"
     borderopacity="0.25"
     inkscape:showpageshadow="2"
     inkscape:pageopacity="0.0"
     inkscape:pagecheckerboard="0"
     inkscape:deskcolor="#d1d1d1"
     showgrid="false"
     inkscape:zoom="1"
     inkscape:cx="344"
     inkscape:cy="427.5"
     inkscape:window-width="1892"
     inkscape:window-height="1034"
     inkscape:window-x="9"
     inkscape:window-y="27"
     inkscape:window-maximized="1"
     inkscape:current-layer="g1">
    <inkscape:page
       x="0"
       y="0"
       inkscape:label="1"
       id="page1"
       width="846.27417"
       height="847.08246"
       margin="0"
       bleed="0" />
  </sodipodi:namedview>
  <g
     id="g1"
     inkscape:groupmode="layer"
     inkscape:label="1">
    <path
       id="path1"
       d="m 43.824,561.605 30.621,30.696"
       style="fill:#000000;fill-opacity:1;fill-rule:nonzero;stroke:#0000ff;stroke-width:2.99999;stroke-linecap:butt;stroke-linejoin:miter;stroke-miterlimit:4;stroke-dasharray:none;stroke-opacity:1"
       transform="scale(1.3333333)" />
    <path
       id="path2"
       d="M 43.824,73.707 74.445,43.008"
       style="fill:#000000;fill-opacity:1;fill-rule:nonzero;stroke:#0000ff;stroke-width:2.99999;stroke-linecap:butt;stroke-linejoin:miter;stroke-miterlimit:4;stroke-dasharray:none;stroke-opacity:1"
       transform="scale(1.3333333)" />
    <path
       id="path3"
       d="m 561.16,43.008 30.621,30.699"
       style="fill:#000000;fill-opacity:1;fill-rule:nonzero;stroke:#0000ff;stroke-width:2.99999;stroke-linecap:butt;stroke-linejoin:miter;stroke-miterlimit:4;stroke-dasharray:none;stroke-opacity:1"
       transform="scale(1.3333333)" />
    <path
       id="path4"
       d="m 561.16,592.301 30.621,-30.696"
       style="fill:#000000;fill-opacity:1;fill-rule:nonzero;stroke:#0000ff;stroke-width:2.99999;stroke-linecap:butt;stroke-linejoin:miter;stroke-miterlimit:4;stroke-dasharray:none;stroke-opacity:1"
       transform="scale(1.3333333)" />
    <path
       id="path13"
       d="m 9.375,527.07 34.449,34.535"
       style="fill:#000000;fill-opacity:1;fill-rule:nonzero;stroke:#888888;stroke-width:2.99999;stroke-linecap:butt;stroke-linejoin:miter;stroke-miterlimit:4;stroke-dasharray:none;stroke-opacity:0.415686"
       transform="scale(1.3333333)" />
    <path
       id="path14"
       d="M 9.375,108.238 43.824,73.707"
       style="fill:#000000;fill-opacity:1;fill-rule:nonzero;stroke:#888888;stroke-width:2.99999;stroke-linecap:butt;stroke-linejoin:miter;stroke-miterlimit:4;stroke-dasharray:none;stroke-opacity:0.415686"
       transform="scale(1.3333333)" />
    <path
       id="path15"
       d="m 74.445,592.301 34.453,34.535"
       style="fill:#000000;fill-opacity:1;fill-rule:nonzero;stroke:#888888;stroke-width:2.99999;stroke-linecap:butt;stroke-linejoin:miter;stroke-miterlimit:4;stroke-dasharray:none;stroke-opacity:0.415686"
       transform="scale(1.3333333)" />
    <path
       id="path16"
       d="M 74.445,43.008 108.898,8.477"
       style="fill:#000000;fill-opacity:1;fill-rule:nonzero;stroke:#888888;stroke-width:2.99999;stroke-linecap:butt;stroke-linejoin:miter;stroke-miterlimit:4;stroke-dasharray:none;stroke-opacity:0.415686"
       transform="scale(1.3333333)" />
    <path
       id="path17"
       d="M 526.707,626.836 561.16,592.301"
       style="fill:#000000;fill-opacity:1;fill-rule:nonzero;stroke:#888888;stroke-width:2.99999;stroke-linecap:butt;stroke-linejoin:miter;stroke-miterlimit:4;stroke-dasharray:none;stroke-opacity:0.415686"
       transform="scale(1.3333333)" />
    <path
       id="path18"
       d="M 526.707,8.477 561.16,43.008"
       style="fill:#000000;fill-opacity:1;fill-rule:nonzero;stroke:#888888;stroke-width:2.99999;stroke-linecap:butt;stroke-linejoin:miter;stroke-miterlimit:4;stroke-dasharray:none;stroke-opacity:0.415686"
       transform="scale(1.3333333)" />
    <path
       id="path19"
       d="m 591.781,73.707 34.449,34.531"
       style="fill:#000000;fill-opacity:1;fill-rule:nonzero;stroke:#888888;stroke-width:2.99999;stroke-linecap:butt;stroke-linejoin:miter;stroke-miterlimit:4;stroke-dasharray:none;stroke-opacity:0.415686"
       transform="scale(1.3333333)" />
    <path
       id="path20"
       d="M 591.781,561.605 626.23,527.07"
       style="fill:#000000;fill-opacity:1;fill-rule:nonzero;stroke:#888888;stroke-width:2.99999;stroke-linecap:butt;stroke-linejoin:miter;stroke-miterlimit:4;stroke-dasharray:none;stroke-opacity:0.415686"
       transform="scale(1.3333333)" />
    <path
       id="path21"
       d="M 9.375,527.07 V 108.238"
       style="fill:none;stroke:#888888;stroke-width:2.99999;stroke-linecap:butt;stroke-linejoin:miter;stroke-miterlimit:4;stroke-dasharray:none;stroke-opacity:0.435294"
       transform="scale(1.3333333)" />
    <path
       id="path22"
       d="M 108.898,626.836 H 526.707"
       style="fill:none;stroke:#888888;stroke-width:2.99999;stroke-linecap:butt;stroke-linejoin:miter;stroke-miterlimit:4;stroke-dasharray:none;stroke-opacity:0.435294"
       transform="scale(1.3333333)" />
    <path
       id="path23"
       d="M 108.898,8.477 H 526.707"
       style="fill:none;stroke:#888888;stroke-width:2.99999;stroke-linecap:butt;stroke-linejoin:miter;stroke-miterlimit:4;stroke-dasharray:none;stroke-opacity:0.435294"
       transform="scale(1.3333333)" />
    <path
       id="path24"
       d="M 626.23,527.07 V 108.238"
       style="fill:none;stroke:#888888;stroke-width:2.99999;stroke-linecap:butt;stroke-linejoin:miter;stroke-miterlimit:4;stroke-dasharray:none;stroke-opacity:0.435294"
       transform="scale(1.3333333)" />
    <path
       id="path26"
       d="m 13.125,108.238 c 0,2.074 -1.68,3.75 -3.75,3.75 -2.07,0 -3.75,-1.676 -3.75,-3.75 0,-2.07 1.68,-3.75 3.75,-3.75 2.07,0 3.75,1.68 3.75,3.75 z"
       style="fill:#888888;stroke:#888888;stroke-width:9.45;stroke-linecap:butt;stroke-linejoin:miter;stroke-miterlimit:4;stroke-dasharray:none;stroke-opacity:1;fill-opacity:1"
       transform="scale(1.3333333)" />
    <path
       id="path27"
       d="m 112.648,626.836 c 0,2.07 -1.679,3.75 -3.75,3.75 -2.074,0 -3.75,-1.68 -3.75,-3.75 0,-2.07 1.676,-3.75 3.75,-3.75 2.071,0 3.75,1.68 3.75,3.75 z"
       style="fill:#888888;stroke:#888888;stroke-width:9.45;stroke-linecap:butt;stroke-linejoin:miter;stroke-miterlimit:4;stroke-dasharray:none;stroke-opacity:1;fill-opacity:1"
       transform="scale(1.3333333)" />
    <path
       id="path28"
       d="m 112.648,8.477 c 0,2.07 -1.679,3.75 -3.75,3.75 -2.074,0 -3.75,-1.68 -3.75,-3.75 0,-2.075 1.676,-3.75 3.75,-3.75 2.071,0 3.75,1.675 3.75,3.75 z"
       style="fill:#888888;stroke:#888888;stroke-width:9.45;stroke-linecap:butt;stroke-linejoin:miter;stroke-miterlimit:4;stroke-dasharray:none;stroke-opacity:1;fill-opacity:1"
       transform="scale(1.3333333)" />
    <path
       id="path29"
       d="m 530.457,626.836 c 0,2.07 -1.676,3.75 -3.75,3.75 -2.07,0 -3.75,-1.68 -3.75,-3.75 0,-2.07 1.68,-3.75 3.75,-3.75 2.074,0 3.75,1.68 3.75,3.75 z"
       style="fill:#888888;stroke:#888888;stroke-width:9.45;stroke-linecap:butt;stroke-linejoin:miter;stroke-miterlimit:4;stroke-dasharray:none;stroke-opacity:1;fill-opacity:1"
       transform="scale(1.3333333)" />
    <path
       id="path31"
       d="m 629.98,527.07 c 0,2.075 -1.679,3.75 -3.75,3.75 -2.07,0 -3.75,-1.675 -3.75,-3.75 0,-2.07 1.68,-3.75 3.75,-3.75 2.071,0 3.75,1.68 3.75,3.75 z"
       style="fill:#888888;stroke:#888888;stroke-width:9.45;stroke-linecap:butt;stroke-linejoin:miter;stroke-miterlimit:4;stroke-dasharray:none;stroke-opacity:1;fill-opacity:1"
       transform="scale(1.3333333)" />
    <path
       id="path32"
       d="m 629.98,108.238 c 0,2.074 -1.679,3.75 -3.75,3.75 -2.07,0 -3.75,-1.676 -3.75,-3.75 0,-2.07 1.68,-3.75 3.75,-3.75 2.071,0 3.75,1.68 3.75,3.75 z"
       style="fill:#888888;stroke:#888888;stroke-width:9.45;stroke-linecap:butt;stroke-linejoin:miter;stroke-miterlimit:4;stroke-dasharray:none;stroke-opacity:1;fill-opacity:1"
       transform="scale(1.3333333)" />
    <text
       id="text32"
       xml:space="preserve"
       transform="matrix(1.3333333,0,0,1.3333333,59.755857,31.423609)"><tspan
         style="font-variant:normal;font-weight:normal;font-size:29.9999px;font-family:'DejaVu Sans';writing-mode:lr-tb;fill:#000000;fill-opacity:1;fill-rule:nonzero;stroke:none"
         x="0 18.38373"
         y="0"
         sodipodi:role="line"
         id="tspan32">a1</tspan><tspan
         style="font-variant:normal;font-weight:normal;font-size:29.9999px;font-family:'DejaVu Sans';writing-mode:lr-tb;fill:#000000;fill-opacity:1;fill-rule:nonzero;stroke:none"
         x="506.40451 525.44739"
         y="-2.3117566"
         sodipodi:role="line"
         id="tspan33">b1</tspan><tspan
         style="font-variant:normal;font-weight:normal;font-size:29.9999px;font-family:'DejaVu Sans';writing-mode:lr-tb;fill:#000000;fill-opacity:1;fill-rule:nonzero;stroke:none"
         x="558.40027 574.89435"
         y="40.096378"
         sodipodi:role="line"
         id="tspan34">c1</tspan><tspan
         style="font-variant:normal;font-weight:normal;font-size:29.9999px;font-family:'DejaVu Sans';writing-mode:lr-tb;fill:#000000;fill-opacity:1;fill-rule:nonzero;stroke:none"
         x="555.63361 574.67651"
         y="570.88269"
         sodipodi:role="line"
         id="tspan35">d1</tspan><tspan
         style="font-variant:normal;font-weight:normal;font-size:29.9999px;font-family:'DejaVu Sans';writing-mode:lr-tb;fill:#000000;fill-opacity:1;fill-rule:nonzero;stroke:none"
         x="518.37842 536.83539"
         y="609.83942"
         sodipodi:role="line"
         id="tspan36">e1</tspan><tspan
         style="font-variant:normal;font-weight:normal;font-size:29.9999px;font-family:'DejaVu Sans';writing-mode:lr-tb;fill:#000000;fill-opacity:1;fill-rule:nonzero;stroke:none"
         x="-2.2880328 8.2734566"
         y="607.83691"
         sodipodi:role="line"
         id="tspan37">f1</tspan><tspan
         style="font-variant:normal;font-weight:normal;font-size:29.9999px;font-family:'DejaVu Sans';writing-mode:lr-tb;fill:#000000;fill-opacity:1;fill-rule:nonzero;stroke:none"
         x="-48.390717 -29.347807"
         y="567.62433"
         sodipodi:role="line"
         id="tspan38">g1</tspan><tspan
         style="font-variant:normal;font-weight:normal;font-size:29.9999px;font-family:'DejaVu Sans';writing-mode:lr-tb;fill:#000000;fill-opacity:1;fill-rule:nonzero;stroke:none"
         x="-47.551754 -28.538141"
         y="42.522186"
         sodipodi:role="line"
         id="tspan39">h1</tspan></text>
    <path
       id="path5"
       d="m 47.574,561.605 c 0,2.071 -1.679,3.75 -3.75,3.75 -2.07,0 -3.75,-1.679 -3.75,-3.75 0,-2.07 1.68,-3.75 3.75,-3.75 2.071,0 3.75,1.68 3.75,3.75 z"
       style="fill:#00c000;fill-opacity:1;fill-rule:nonzero;stroke:#00c000;stroke-width:11.25;stroke-linecap:butt;stroke-linejoin:miter;stroke-miterlimit:4;stroke-dasharray:none;stroke-opacity:1"
       transform="scale(1.3333333)" />
    <path
       id="path6"
       d="m 47.574,73.707 c 0,2.07 -1.679,3.75 -3.75,3.75 -2.07,0 -3.75,-1.68 -3.75,-3.75 0,-2.07 1.68,-3.75 3.75,-3.75 2.071,0 3.75,1.68 3.75,3.75 z"
       style="fill:#00c000;fill-opacity:1;fill-rule:nonzero;stroke:#00c000;stroke-width:11.25;stroke-linecap:butt;stroke-linejoin:miter;stroke-miterlimit:4;stroke-dasharray:none;stroke-opacity:1"
       transform="scale(1.3333333)" />
    <path
       id="path7"
       d="m 78.195,592.301 c 0,2.074 -1.675,3.75 -3.75,3.75 -2.07,0 -3.75,-1.676 -3.75,-3.75 0,-2.071 1.68,-3.75 3.75,-3.75 2.075,0 3.75,1.679 3.75,3.75 z"
       style="fill:#00c000;fill-opacity:1;fill-rule:nonzero;stroke:#00c000;stroke-width:11.25;stroke-linecap:butt;stroke-linejoin:miter;stroke-miterlimit:4;stroke-dasharray:none;stroke-opacity:1"
       transform="scale(1.3333333)" />
    <path
       id="path8"
       d="m 78.195,43.008 c 0,2.074 -1.675,3.75 -3.75,3.75 -2.07,0 -3.75,-1.676 -3.75,-3.75 0,-2.07 1.68,-3.75 3.75,-3.75 2.075,0 3.75,1.68 3.75,3.75 z"
       style="fill:#00c000;fill-opacity:1;fill-rule:nonzero;stroke:#00c000;stroke-width:11.25;stroke-linecap:butt;stroke-linejoin:miter;stroke-miterlimit:4;stroke-dasharray:none;stroke-opacity:1"
       transform="scale(1.3333333)" />
    <path
       id="path9"
       d="m 564.91,43.008 c 0,2.074 -1.68,3.75 -3.75,3.75 -2.074,0 -3.75,-1.676 -3.75,-3.75 0,-2.07 1.676,-3.75 3.75,-3.75 2.07,0 3.75,1.68 3.75,3.75 z"
       style="fill:#00c000;fill-opacity:1;fill-rule:nonzero;stroke:#00c000;stroke-width:11.25;stroke-linecap:butt;stroke-linejoin:miter;stroke-miterlimit:4;stroke-dasharray:none;stroke-opacity:1"
       transform="scale(1.3333333)" />
    <path
       id="path10"
       d="m 564.91,592.301 c 0,2.074 -1.68,3.75 -3.75,3.75 -2.074,0 -3.75,-1.676 -3.75,-3.75 0,-2.071 1.676,-3.75 3.75,-3.75 2.07,0 3.75,1.679 3.75,3.75 z"
       style="fill:#00c000;fill-opacity:1;fill-rule:nonzero;stroke:#00c000;stroke-width:11.25;stroke-linecap:butt;stroke-linejoin:miter;stroke-miterlimit:4;stroke-dasharray:none;stroke-opacity:1"
       transform="scale(1.3333333)" />
    <path
       id="path11"
       d="m 595.531,73.707 c 0,2.07 -1.679,3.75 -3.75,3.75 -2.07,0 -3.75,-1.68 -3.75,-3.75 0,-2.07 1.68,-3.75 3.75,-3.75 2.071,0 3.75,1.68 3.75,3.75 z"
       style="fill:#00c000;fill-opacity:1;fill-rule:nonzero;stroke:#00c000;stroke-width:11.25;stroke-linecap:butt;stroke-linejoin:miter;stroke-miterlimit:4;stroke-dasharray:none;stroke-opacity:1"
       transform="scale(1.3333333)" />
    <path
       id="path12"
       d="m 595.531,561.605 c 0,2.071 -1.679,3.75 -3.75,3.75 -2.07,0 -3.75,-1.679 -3.75,-3.75 0,-2.07 1.68,-3.75 3.75,-3.75 2.071,0 3.75,1.68 3.75,3.75 z"
       style="fill:#00c000;fill-opacity:1;fill-rule:nonzero;stroke:#00c000;stroke-width:11.25;stroke-linecap:butt;stroke-linejoin:miter;stroke-miterlimit:4;stroke-dasharray:none;stroke-opacity:1"
       transform="scale(1.3333333)" />
    <path
       id="path30"
       d="m 530.457,8.477 c 0,2.07 -1.676,3.75 -3.75,3.75 -2.07,0 -3.75,-1.68 -3.75,-3.75 0,-2.075 1.68,-3.75 3.75,-3.75 2.074,0 3.75,1.675 3.75,3.75 z"
       style="fill:#888888;stroke:#888888;stroke-width:9.45;stroke-linecap:butt;stroke-linejoin:miter;stroke-miterlimit:4;stroke-dasharray:none;stroke-opacity:1;fill-opacity:1"
       transform="scale(1.3333333)" />
    <path
       id="path25"
       d="m 13.125,527.07 c 0,2.075 -1.68,3.75 -3.75,3.75 -2.07,0 -3.75,-1.675 -3.75,-3.75 0,-2.07 1.68,-3.75 3.75,-3.75 2.07,0 3.75,1.68 3.75,3.75 z"
       style="fill:#888888;stroke:#888888;stroke-width:11.25;stroke-linecap:butt;stroke-linejoin:miter;stroke-miterlimit:4;stroke-dasharray:none;stroke-opacity:1;fill-opacity:1"
       transform="scale(1.3333333)" />
  </g>
</svg>
