<?xml version="1.0" encoding="UTF-8" standalone="no"?>
<!-- Created with Inkscape (http://www.inkscape.org/) -->

<svg
   version="1.1"
   id="svg1"
   width="982.25262"
   height="935.55585"
   viewBox="0 0 982.25262 935.55585"
   sodipodi:docname="inst-quad-triangulation-step-final.svg"
   inkscape:version="1.3.2 (091e20ef0f, 2023-11-25, custom)"
   xmlns:inkscape="http://www.inkscape.org/namespaces/inkscape"
   xmlns:sodipodi="http://sodipodi.sourceforge.net/DTD/sodipodi-0.dtd"
   xmlns="http://www.w3.org/2000/svg"
   xmlns:svg="http://www.w3.org/2000/svg">
  <defs
     id="defs1" />
  <sodipodi:namedview
     id="namedview1"
     pagecolor="#ffffff"
     bordercolor="#000000"
     borderopacity="0.25"
     inkscape:showpageshadow="2"
     inkscape:pageopacity="0.0"
     inkscape:pagecheckerboard="0"
     inkscape:deskcolor="#d1d1d1"
     showgrid="false"
     inkscape:zoom="0.9138952"
     inkscape:cx="491.3036"
     inkscape:cy="467.77792"
     inkscape:window-width="1892"
     inkscape:window-height="1034"
     inkscape:window-x="9"
     inkscape:window-y="27"
     inkscape:window-maximized="1"
     inkscape:current-layer="g1">
    <inkscape:page
       x="0"
       y="0"
       inkscape:label="1"
       id="page1"
       width="982.25262"
       height="935.55585"
       margin="0"
       bleed="0" />
  </sodipodi:namedview>
  <g
     id="g1"
     inkscape:groupmode="layer"
     inkscape:label="1">
    <path
       id="path1"
       d="m 57.574,568.18 34.449,34.535"
       style="fill:#000000;fill-opacity:1;fill-rule:nonzero;stroke:#ff0000;stroke-width:2.99999;stroke-linecap:butt;stroke-linejoin:miter;stroke-miterlimit:4;stroke-dasharray:none;stroke-opacity:1"
       transform="scale(1.3333333)" />
    <path
       id="path2"
       d="M 57.574,568.18 V 149.348"
       style="fill:none;stroke:#000000;stroke-width:2.99999;stroke-linecap:butt;stroke-linejoin:miter;stroke-miterlimit:4;stroke-dasharray:none;stroke-opacity:1"
       transform="scale(1.3333333)" />
    <path
       id="path3"
       d="m 61.324,568.18 c 0,2.07 -1.679,3.75 -3.75,3.75 -2.07,0 -3.75,-1.68 -3.75,-3.75 0,-2.071 1.68,-3.75 3.75,-3.75 2.071,0 3.75,1.679 3.75,3.75 z"
       style="fill:#ffc000;fill-opacity:1;fill-rule:nonzero;stroke:#ffc000;stroke-width:11.25;stroke-linecap:butt;stroke-linejoin:miter;stroke-miterlimit:4;stroke-dasharray:none;stroke-opacity:1"
       transform="scale(1.3333333)" />
    <path
       id="path4"
       d="M 57.574,149.348 92.023,114.812"
       style="fill:#000000;fill-opacity:1;fill-rule:nonzero;stroke:#ff0000;stroke-width:2.99999;stroke-linecap:butt;stroke-linejoin:miter;stroke-miterlimit:4;stroke-dasharray:none;stroke-opacity:1"
       transform="scale(1.3333333)" />
    <path
       id="path5"
       d="m 61.324,149.348 c 0,2.07 -1.679,3.75 -3.75,3.75 -2.07,0 -3.75,-1.68 -3.75,-3.75 0,-2.071 1.68,-3.75 3.75,-3.75 2.071,0 3.75,1.679 3.75,3.75 z"
       style="fill:#ffc000;fill-opacity:1;fill-rule:nonzero;stroke:#ffc000;stroke-width:9.45;stroke-linecap:butt;stroke-linejoin:miter;stroke-miterlimit:4;stroke-dasharray:none;stroke-opacity:1"
       transform="scale(1.3333333)" />
    <path
       id="path6"
       d="m 92.023,602.715 30.625,30.695"
       style="fill:#000000;fill-opacity:1;fill-rule:nonzero;stroke:#0000ff;stroke-width:2.99999;stroke-linecap:butt;stroke-linejoin:miter;stroke-miterlimit:4;stroke-dasharray:none;stroke-opacity:1"
       transform="scale(1.3333333)" />
    <path
       id="path7"
       d="M 92.023,602.715 300.93,393.297"
       style="fill:#000000;fill-opacity:1;fill-rule:nonzero;stroke:#000000;stroke-width:2.99999;stroke-linecap:butt;stroke-linejoin:miter;stroke-miterlimit:4;stroke-dasharray:none;stroke-opacity:1"
       transform="scale(1.3333333)" />
    <path
       id="path8"
       d="m 95.773,602.715 c 0,2.07 -1.675,3.75 -3.75,3.75 -2.07,0 -3.75,-1.68 -3.75,-3.75 0,-2.074 1.68,-3.75 3.75,-3.75 2.075,0 3.75,1.676 3.75,3.75 z"
       style="fill:#00c000;fill-opacity:1;fill-rule:nonzero;stroke:#00c000;stroke-width:11.25;stroke-linecap:butt;stroke-linejoin:miter;stroke-miterlimit:4;stroke-dasharray:none;stroke-opacity:1"
       transform="scale(1.3333333)" />
    <path
       id="path9"
       d="M 92.023,114.812 122.648,84.117"
       style="fill:#000000;fill-opacity:1;fill-rule:nonzero;stroke:#0000ff;stroke-width:2.99999;stroke-linecap:butt;stroke-linejoin:miter;stroke-miterlimit:4;stroke-dasharray:none;stroke-opacity:1"
       transform="scale(1.3333333)" />
    <path
       id="path10"
       d="M 92.023,114.812 300.93,324.23"
       style="fill:#000000;fill-opacity:1;fill-rule:nonzero;stroke:#000000;stroke-width:2.99999;stroke-linecap:butt;stroke-linejoin:miter;stroke-miterlimit:4;stroke-dasharray:none;stroke-opacity:1"
       transform="scale(1.3333333)" />
    <path
       id="path11"
       d="m 95.773,114.812 c 0,2.071 -1.675,3.75 -3.75,3.75 -2.07,0 -3.75,-1.679 -3.75,-3.75 0,-2.07 1.68,-3.75 3.75,-3.75 2.075,0 3.75,1.68 3.75,3.75 z"
       style="fill:#00c000;fill-opacity:1;fill-rule:nonzero;stroke:#00c000;stroke-width:11.25;stroke-linecap:butt;stroke-linejoin:miter;stroke-miterlimit:4;stroke-dasharray:none;stroke-opacity:1"
       transform="scale(1.3333333)" />
    <path
       id="path12"
       d="m 122.648,633.41 34.45,34.535"
       style="fill:#000000;fill-opacity:1;fill-rule:nonzero;stroke:#ff0000;stroke-width:2.99999;stroke-linecap:butt;stroke-linejoin:miter;stroke-miterlimit:4;stroke-dasharray:none;stroke-opacity:1"
       transform="scale(1.3333333)" />
    <path
       id="path13"
       d="M 122.648,633.41 331.555,423.996"
       style="fill:#000000;fill-opacity:1;fill-rule:nonzero;stroke:#000000;stroke-width:2.99999;stroke-linecap:butt;stroke-linejoin:miter;stroke-miterlimit:4;stroke-dasharray:none;stroke-opacity:1"
       transform="scale(1.3333333)" />
    <path
       id="path14"
       d="m 126.398,633.41 c 0,2.07 -1.679,3.75 -3.75,3.75 -2.07,0 -3.75,-1.68 -3.75,-3.75 0,-2.07 1.68,-3.75 3.75,-3.75 2.071,0 3.75,1.68 3.75,3.75 z"
       style="fill:#00c000;fill-opacity:1;fill-rule:nonzero;stroke:#00c000;stroke-width:11.25;stroke-linecap:butt;stroke-linejoin:miter;stroke-miterlimit:4;stroke-dasharray:none;stroke-opacity:1"
       transform="scale(1.3333333)" />
    <path
       id="path15"
       d="m 122.648,84.117 34.45,-34.535"
       style="fill:#000000;fill-opacity:1;fill-rule:nonzero;stroke:#ff0000;stroke-width:2.99999;stroke-linecap:butt;stroke-linejoin:miter;stroke-miterlimit:4;stroke-dasharray:none;stroke-opacity:1"
       transform="scale(1.3333333)" />
    <path
       id="path16"
       d="M 122.648,84.117 331.555,293.531"
       style="fill:#000000;fill-opacity:1;fill-rule:nonzero;stroke:#000000;stroke-width:2.99999;stroke-linecap:butt;stroke-linejoin:miter;stroke-miterlimit:4;stroke-dasharray:none;stroke-opacity:1"
       transform="scale(1.3333333)" />
    <path
       id="path17"
       d="m 126.398,84.117 c 0,2.071 -1.679,3.75 -3.75,3.75 -2.07,0 -3.75,-1.679 -3.75,-3.75 0,-2.07 1.68,-3.75 3.75,-3.75 2.071,0 3.75,1.68 3.75,3.75 z"
       style="fill:#00c000;fill-opacity:1;fill-rule:nonzero;stroke:#00c000;stroke-width:11.25;stroke-linecap:butt;stroke-linejoin:miter;stroke-miterlimit:4;stroke-dasharray:none;stroke-opacity:1"
       transform="scale(1.3333333)" />
    <path
       id="path18"
       d="M 157.098,667.945 H 574.91"
       style="fill:none;stroke:#000000;stroke-width:2.99999;stroke-linecap:butt;stroke-linejoin:miter;stroke-miterlimit:4;stroke-dasharray:none;stroke-opacity:1"
       transform="scale(1.3333333)" />
    <path
       id="path19"
       d="m 160.848,667.945 c 0,2.071 -1.68,3.75 -3.75,3.75 -2.071,0 -3.75,-1.679 -3.75,-3.75 0,-2.074 1.679,-3.75 3.75,-3.75 2.07,0 3.75,1.676 3.75,3.75 z"
       style="fill:#ffc000;fill-opacity:1;fill-rule:nonzero;stroke:#ffc000;stroke-width:9.45;stroke-linecap:butt;stroke-linejoin:miter;stroke-miterlimit:4;stroke-dasharray:none;stroke-opacity:1"
       transform="scale(1.3333333)" />
    <path
       id="path20"
       d="M 157.098,49.582 H 574.91"
       style="fill:none;stroke:#000000;stroke-width:2.99999;stroke-linecap:butt;stroke-linejoin:miter;stroke-miterlimit:4;stroke-dasharray:none;stroke-opacity:1"
       transform="scale(1.3333333)" />
    <path
       id="path21"
       d="m 160.848,49.582 c 0,2.07 -1.68,3.75 -3.75,3.75 -2.071,0 -3.75,-1.68 -3.75,-3.75 0,-2.07 1.679,-3.75 3.75,-3.75 2.07,0 3.75,1.68 3.75,3.75 z"
       style="fill:#ffc000;fill-opacity:1;fill-rule:nonzero;stroke:#ffc000;stroke-width:9.45;stroke-linecap:butt;stroke-linejoin:miter;stroke-miterlimit:4;stroke-dasharray:none;stroke-opacity:1"
       transform="scale(1.3333333)" />
    <path
       id="path22"
       d="M 300.93,393.297 V 324.23"
       style="fill:none;stroke:#ff0000;stroke-width:2.99999;stroke-linecap:butt;stroke-linejoin:miter;stroke-miterlimit:4;stroke-dasharray:none;stroke-opacity:1"
       transform="scale(1.3333333)" />
    <path
       id="path23"
       d="m 300.93,393.297 30.625,30.699"
       style="fill:#000000;fill-opacity:1;fill-rule:nonzero;stroke:#0000ff;stroke-width:2.99999;stroke-linecap:butt;stroke-linejoin:miter;stroke-miterlimit:4;stroke-dasharray:none;stroke-opacity:1"
       transform="scale(1.3333333)" />
    <path
       id="path24"
       d="m 304.68,393.297 c 0,2.07 -1.68,3.75 -3.75,3.75 -2.071,0 -3.75,-1.68 -3.75,-3.75 0,-2.07 1.679,-3.75 3.75,-3.75 2.07,0 3.75,1.68 3.75,3.75 z"
       style="fill:#00c0ff;fill-opacity:1;fill-rule:nonzero;stroke:#00c0ff;stroke-width:11.25;stroke-linecap:butt;stroke-linejoin:miter;stroke-miterlimit:4;stroke-dasharray:none;stroke-opacity:1"
       transform="scale(1.3333333)" />
    <path
       id="path25"
       d="m 300.93,324.23 30.625,-30.699"
       style="fill:#000000;fill-opacity:1;fill-rule:nonzero;stroke:#0000ff;stroke-width:2.99999;stroke-linecap:butt;stroke-linejoin:miter;stroke-miterlimit:4;stroke-dasharray:none;stroke-opacity:1"
       transform="scale(1.3333333)" />
    <path
       id="path26"
       d="m 304.68,324.23 c 0,2.071 -1.68,3.75 -3.75,3.75 -2.071,0 -3.75,-1.679 -3.75,-3.75 0,-2.074 1.679,-3.75 3.75,-3.75 2.07,0 3.75,1.676 3.75,3.75 z"
       style="fill:#00c0ff;fill-opacity:1;fill-rule:nonzero;stroke:#00c0ff;stroke-width:11.25;stroke-linecap:butt;stroke-linejoin:miter;stroke-miterlimit:4;stroke-dasharray:none;stroke-opacity:1"
       transform="scale(1.3333333)" />
    <path
       id="path27"
       d="m 331.555,423.996 h 68.898"
       style="fill:none;stroke:#ff0000;stroke-width:2.99999;stroke-linecap:butt;stroke-linejoin:miter;stroke-miterlimit:4;stroke-dasharray:none;stroke-opacity:1"
       transform="scale(1.3333333)" />
    <path
       id="path28"
       d="m 335.305,423.996 c 0,2.07 -1.68,3.75 -3.75,3.75 -2.075,0 -3.75,-1.68 -3.75,-3.75 0,-2.074 1.675,-3.75 3.75,-3.75 2.07,0 3.75,1.676 3.75,3.75 z"
       style="fill:#00c0ff;fill-opacity:1;fill-rule:nonzero;stroke:#00c0ff;stroke-width:11.25;stroke-linecap:butt;stroke-linejoin:miter;stroke-miterlimit:4;stroke-dasharray:none;stroke-opacity:1"
       transform="scale(1.3333333)" />
    <path
       id="path29"
       d="m 331.555,293.531 h 68.898"
       style="fill:none;stroke:#ff0000;stroke-width:2.99999;stroke-linecap:butt;stroke-linejoin:miter;stroke-miterlimit:4;stroke-dasharray:none;stroke-opacity:1"
       transform="scale(1.3333333)" />
    <path
       id="path30"
       d="m 335.305,293.531 c 0,2.071 -1.68,3.75 -3.75,3.75 -2.075,0 -3.75,-1.679 -3.75,-3.75 0,-2.07 1.675,-3.75 3.75,-3.75 2.07,0 3.75,1.68 3.75,3.75 z"
       style="fill:#00c0ff;fill-opacity:1;fill-rule:nonzero;stroke:#00c0ff;stroke-width:11.25;stroke-linecap:butt;stroke-linejoin:miter;stroke-miterlimit:4;stroke-dasharray:none;stroke-opacity:1"
       transform="scale(1.3333333)" />
    <path
       id="path31"
       d="m 400.453,293.531 30.621,30.699"
       style="fill:#000000;fill-opacity:1;fill-rule:nonzero;stroke:#0000ff;stroke-width:2.99999;stroke-linecap:butt;stroke-linejoin:miter;stroke-miterlimit:4;stroke-dasharray:none;stroke-opacity:1"
       transform="scale(1.3333333)" />
    <path
       id="path32"
       d="M 400.453,293.531 609.359,84.117"
       style="fill:#000000;fill-opacity:1;fill-rule:nonzero;stroke:#000000;stroke-width:2.99999;stroke-linecap:butt;stroke-linejoin:miter;stroke-miterlimit:4;stroke-dasharray:none;stroke-opacity:1"
       transform="scale(1.3333333)" />
    <path
       id="path33"
       d="m 404.203,293.531 c 0,2.071 -1.68,3.75 -3.75,3.75 -2.07,0 -3.75,-1.679 -3.75,-3.75 0,-2.07 1.68,-3.75 3.75,-3.75 2.07,0 3.75,1.68 3.75,3.75 z"
       style="fill:#00c0ff;fill-opacity:1;fill-rule:nonzero;stroke:#00c0ff;stroke-width:11.25;stroke-linecap:butt;stroke-linejoin:miter;stroke-miterlimit:4;stroke-dasharray:none;stroke-opacity:1"
       transform="scale(1.3333333)" />
    <path
       id="path34"
       d="m 400.453,423.996 30.621,-30.699"
       style="fill:#000000;fill-opacity:1;fill-rule:nonzero;stroke:#0000ff;stroke-width:2.99999;stroke-linecap:butt;stroke-linejoin:miter;stroke-miterlimit:4;stroke-dasharray:none;stroke-opacity:1"
       transform="scale(1.3333333)" />
    <path
       id="path35"
       d="M 400.453,423.996 609.359,633.41"
       style="fill:#000000;fill-opacity:1;fill-rule:nonzero;stroke:#000000;stroke-width:2.99999;stroke-linecap:butt;stroke-linejoin:miter;stroke-miterlimit:4;stroke-dasharray:none;stroke-opacity:1"
       transform="scale(1.3333333)" />
    <path
       id="path36"
       d="m 404.203,423.996 c 0,2.07 -1.68,3.75 -3.75,3.75 -2.07,0 -3.75,-1.68 -3.75,-3.75 0,-2.074 1.68,-3.75 3.75,-3.75 2.07,0 3.75,1.676 3.75,3.75 z"
       style="fill:#00c0ff;fill-opacity:1;fill-rule:nonzero;stroke:#00c0ff;stroke-width:11.25;stroke-linecap:butt;stroke-linejoin:miter;stroke-miterlimit:4;stroke-dasharray:none;stroke-opacity:1"
       transform="scale(1.3333333)" />
    <path
       id="path37"
       d="m 431.074,324.23 v 69.067"
       style="fill:none;stroke:#ff0000;stroke-width:2.99999;stroke-linecap:butt;stroke-linejoin:miter;stroke-miterlimit:4;stroke-dasharray:none;stroke-opacity:1"
       transform="scale(1.3333333)" />
    <path
       id="path38"
       d="M 431.074,324.23 639.98,114.812"
       style="fill:#000000;fill-opacity:1;fill-rule:nonzero;stroke:#000000;stroke-width:2.99999;stroke-linecap:butt;stroke-linejoin:miter;stroke-miterlimit:4;stroke-dasharray:none;stroke-opacity:1"
       transform="scale(1.3333333)" />
    <path
       id="path39"
       d="m 434.824,324.23 c 0,2.071 -1.679,3.75 -3.75,3.75 -2.07,0 -3.75,-1.679 -3.75,-3.75 0,-2.074 1.68,-3.75 3.75,-3.75 2.071,0 3.75,1.676 3.75,3.75 z"
       style="fill:#00c0ff;fill-opacity:1;fill-rule:nonzero;stroke:#00c0ff;stroke-width:11.25;stroke-linecap:butt;stroke-linejoin:miter;stroke-miterlimit:4;stroke-dasharray:none;stroke-opacity:1"
       transform="scale(1.3333333)" />
    <path
       id="path40"
       d="M 431.074,393.297 639.98,602.715"
       style="fill:#000000;fill-opacity:1;fill-rule:nonzero;stroke:#000000;stroke-width:2.99999;stroke-linecap:butt;stroke-linejoin:miter;stroke-miterlimit:4;stroke-dasharray:none;stroke-opacity:1"
       transform="scale(1.3333333)" />
    <path
       id="path41"
       d="m 434.824,393.297 c 0,2.07 -1.679,3.75 -3.75,3.75 -2.07,0 -3.75,-1.68 -3.75,-3.75 0,-2.07 1.68,-3.75 3.75,-3.75 2.071,0 3.75,1.68 3.75,3.75 z"
       style="fill:#00c0ff;fill-opacity:1;fill-rule:nonzero;stroke:#00c0ff;stroke-width:11.25;stroke-linecap:butt;stroke-linejoin:miter;stroke-miterlimit:4;stroke-dasharray:none;stroke-opacity:1"
       transform="scale(1.3333333)" />
    <path
       id="path42"
       d="M 574.91,667.945 609.359,633.41"
       style="fill:#000000;fill-opacity:1;fill-rule:nonzero;stroke:#ff0000;stroke-width:2.99999;stroke-linecap:butt;stroke-linejoin:miter;stroke-miterlimit:4;stroke-dasharray:none;stroke-opacity:1"
       transform="scale(1.3333333)" />
    <path
       id="path43"
       d="m 578.66,667.945 c 0,2.071 -1.68,3.75 -3.75,3.75 -2.074,0 -3.75,-1.679 -3.75,-3.75 0,-2.074 1.676,-3.75 3.75,-3.75 2.07,0 3.75,1.676 3.75,3.75 z"
       style="fill:#ffc000;fill-opacity:1;fill-rule:nonzero;stroke:#ffc000;stroke-width:9.45;stroke-linecap:butt;stroke-linejoin:miter;stroke-miterlimit:4;stroke-dasharray:none;stroke-opacity:1"
       transform="scale(1.3333333)" />
    <path
       id="path44"
       d="m 574.91,49.582 34.449,34.535"
       style="fill:#000000;fill-opacity:1;fill-rule:nonzero;stroke:#ff0000;stroke-width:2.99999;stroke-linecap:butt;stroke-linejoin:miter;stroke-miterlimit:4;stroke-dasharray:none;stroke-opacity:1"
       transform="scale(1.3333333)" />
    <path
       id="path45"
       d="m 578.66,49.582 c 0,2.07 -1.68,3.75 -3.75,3.75 -2.074,0 -3.75,-1.68 -3.75,-3.75 0,-2.07 1.676,-3.75 3.75,-3.75 2.07,0 3.75,1.68 3.75,3.75 z"
       style="fill:#ffc000;fill-opacity:1;fill-rule:nonzero;stroke:#ffc000;stroke-width:9.45;stroke-linecap:butt;stroke-linejoin:miter;stroke-miterlimit:4;stroke-dasharray:none;stroke-opacity:1"
       transform="scale(1.3333333)" />
    <path
       id="path46"
       d="m 609.359,84.117 30.621,30.695"
       style="fill:#000000;fill-opacity:1;fill-rule:nonzero;stroke:#0000ff;stroke-width:2.99999;stroke-linecap:butt;stroke-linejoin:miter;stroke-miterlimit:4;stroke-dasharray:none;stroke-opacity:1"
       transform="scale(1.3333333)" />
    <path
       id="path47"
       d="m 613.109,84.117 c 0,2.071 -1.679,3.75 -3.75,3.75 -2.07,0 -3.75,-1.679 -3.75,-3.75 0,-2.07 1.68,-3.75 3.75,-3.75 2.071,0 3.75,1.68 3.75,3.75 z"
       style="fill:#00c000;fill-opacity:1;fill-rule:nonzero;stroke:#00c000;stroke-width:11.25;stroke-linecap:butt;stroke-linejoin:miter;stroke-miterlimit:4;stroke-dasharray:none;stroke-opacity:1"
       transform="scale(1.3333333)" />
    <path
       id="path48"
       d="M 609.359,633.41 639.98,602.715"
       style="fill:#000000;fill-opacity:1;fill-rule:nonzero;stroke:#0000ff;stroke-width:2.99999;stroke-linecap:butt;stroke-linejoin:miter;stroke-miterlimit:4;stroke-dasharray:none;stroke-opacity:1"
       transform="scale(1.3333333)" />
    <path
       id="path49"
       d="m 613.109,633.41 c 0,2.07 -1.679,3.75 -3.75,3.75 -2.07,0 -3.75,-1.68 -3.75,-3.75 0,-2.07 1.68,-3.75 3.75,-3.75 2.071,0 3.75,1.68 3.75,3.75 z"
       style="fill:#00c000;fill-opacity:1;fill-rule:nonzero;stroke:#00c000;stroke-width:11.25;stroke-linecap:butt;stroke-linejoin:miter;stroke-miterlimit:4;stroke-dasharray:none;stroke-opacity:1"
       transform="scale(1.3333333)" />
    <path
       id="path50"
       d="m 639.98,114.812 34.45,34.536"
       style="fill:#000000;fill-opacity:1;fill-rule:nonzero;stroke:#ff0000;stroke-width:2.99999;stroke-linecap:butt;stroke-linejoin:miter;stroke-miterlimit:4;stroke-dasharray:none;stroke-opacity:1"
       transform="scale(1.3333333)" />
    <path
       id="path51"
       d="m 643.73,114.812 c 0,2.071 -1.679,3.75 -3.75,3.75 -2.07,0 -3.75,-1.679 -3.75,-3.75 0,-2.07 1.68,-3.75 3.75,-3.75 2.071,0 3.75,1.68 3.75,3.75 z"
       style="fill:#00c000;fill-opacity:1;fill-rule:nonzero;stroke:#00c000;stroke-width:11.25;stroke-linecap:butt;stroke-linejoin:miter;stroke-miterlimit:4;stroke-dasharray:none;stroke-opacity:1"
       transform="scale(1.3333333)" />
    <path
       id="path52"
       d="M 639.98,602.715 674.43,568.18"
       style="fill:#000000;fill-opacity:1;fill-rule:nonzero;stroke:#ff0000;stroke-width:2.99999;stroke-linecap:butt;stroke-linejoin:miter;stroke-miterlimit:4;stroke-dasharray:none;stroke-opacity:1"
       transform="scale(1.3333333)" />
    <path
       id="path53"
       d="m 643.73,602.715 c 0,2.07 -1.679,3.75 -3.75,3.75 -2.07,0 -3.75,-1.68 -3.75,-3.75 0,-2.074 1.68,-3.75 3.75,-3.75 2.071,0 3.75,1.676 3.75,3.75 z"
       style="fill:#00c000;fill-opacity:1;fill-rule:nonzero;stroke:#00c000;stroke-width:11.25;stroke-linecap:butt;stroke-linejoin:miter;stroke-miterlimit:4;stroke-dasharray:none;stroke-opacity:1"
       transform="scale(1.3333333)" />
    <path
       id="path54"
       d="M 674.43,568.18 V 149.348"
       style="fill:none;stroke:#000000;stroke-width:2.99999;stroke-linecap:butt;stroke-linejoin:miter;stroke-miterlimit:4;stroke-dasharray:none;stroke-opacity:1"
       transform="scale(1.3333333)" />
    <path
       id="path55"
       d="m 678.18,568.18 c 0,2.07 -1.68,3.75 -3.75,3.75 -2.071,0 -3.75,-1.68 -3.75,-3.75 0,-2.071 1.679,-3.75 3.75,-3.75 2.07,0 3.75,1.679 3.75,3.75 z"
       style="fill:#ffc000;fill-opacity:1;fill-rule:nonzero;stroke:#ffc000;stroke-width:9.45;stroke-linecap:butt;stroke-linejoin:miter;stroke-miterlimit:4;stroke-dasharray:none;stroke-opacity:1"
       transform="scale(1.3333333)" />
    <path
       id="path56"
       d="m 678.18,149.348 c 0,2.07 -1.68,3.75 -3.75,3.75 -2.071,0 -3.75,-1.68 -3.75,-3.75 0,-2.071 1.679,-3.75 3.75,-3.75 2.07,0 3.75,1.679 3.75,3.75 z"
       style="fill:#ffc000;fill-opacity:1;fill-rule:nonzero;stroke:#ffc000;stroke-width:9.45;stroke-linecap:butt;stroke-linejoin:miter;stroke-miterlimit:4;stroke-dasharray:none;stroke-opacity:1"
       transform="scale(1.3333333)" />
    <text
       id="text56"
       xml:space="preserve"
       transform="matrix(1.3333333,0,0,1.3333333,187.21787,36.832569)"><tspan
         style="font-variant:normal;font-weight:normal;font-size:29.9999px;font-family:'DejaVu Sans';writing-mode:lr-tb;fill:#000000;fill-opacity:1;fill-rule:nonzero;stroke:none"
         x="0 18.359941"
         y="0"
         sodipodi:role="line"
         id="tspan56">a0</tspan><tspan
         style="font-variant:normal;font-weight:normal;font-size:29.9999px;font-family:'DejaVu Sans';writing-mode:lr-tb;fill:#000000;fill-opacity:1;fill-rule:nonzero;stroke:none"
         x="431.66214 450.68207"
         y="-4.8315144"
         sodipodi:role="line"
         id="tspan57">b0</tspan><tspan
         style="font-variant:normal;font-weight:normal;font-size:29.9999px;font-family:'DejaVu Sans';writing-mode:lr-tb;fill:#000000;fill-opacity:1;fill-rule:nonzero;stroke:none"
         x="550.72552 567.19543"
         y="118.44586"
         sodipodi:role="line"
         id="tspan58">c0</tspan><tspan
         style="font-variant:normal;font-weight:normal;font-size:29.9999px;font-family:'DejaVu Sans';writing-mode:lr-tb;fill:#000000;fill-opacity:1;fill-rule:nonzero;stroke:none"
         x="560.13843 579.15833"
         y="546.27533"
         sodipodi:role="line"
         id="tspan59">d0</tspan><tspan
         style="font-variant:normal;font-weight:normal;font-size:29.9999px;font-family:'DejaVu Sans';writing-mode:lr-tb;fill:#000000;fill-opacity:1;fill-rule:nonzero;stroke:none"
         x="440.33456 458.78452"
         y="672.79004"
         sodipodi:role="line"
         id="tspan60">e0</tspan><tspan
         style="font-variant:normal;font-weight:normal;font-size:29.9999px;font-family:'DejaVu Sans';writing-mode:lr-tb;fill:#000000;fill-opacity:1;fill-rule:nonzero;stroke:none"
         x="19.462288 30.022253"
         y="673.61768"
         sodipodi:role="line"
         id="tspan61">f0</tspan><tspan
         style="font-variant:normal;font-weight:normal;font-size:29.9999px;font-family:'DejaVu Sans';writing-mode:lr-tb;fill:#000000;fill-opacity:1;fill-rule:nonzero;stroke:none"
         x="-142.06868 -123.04874"
         y="550.53455"
         sodipodi:role="line"
         id="tspan62">g0</tspan><tspan
         style="font-variant:normal;font-weight:normal;font-size:29.9999px;font-family:'DejaVu Sans';writing-mode:lr-tb;fill:#000000;fill-opacity:1;fill-rule:nonzero;stroke:none"
         x="-140.59349 -121.60355"
         y="126.22637"
         sodipodi:role="line"
         id="tspan63">h0</tspan><tspan
         style="font-variant:normal;font-weight:normal;font-size:29.9999px;font-family:'DejaVu Sans';writing-mode:lr-tb;fill:#000000;fill-opacity:1;fill-rule:nonzero;stroke:none"
         x="478.8262 497.84613"
         y="42.470234"
         sodipodi:role="line"
         id="tspan64">b1</tspan><tspan
         style="font-variant:normal;font-weight:normal;font-size:29.9999px;font-family:'DejaVu Sans';writing-mode:lr-tb;fill:#000000;fill-opacity:1;fill-rule:nonzero;stroke:none"
         x="235.71472 254.73465"
         y="246.49667"
         sodipodi:role="line"
         id="tspan65">b2</tspan><tspan
         style="font-variant:normal;font-weight:normal;font-size:29.9999px;font-family:'DejaVu Sans';writing-mode:lr-tb;fill:#000000;fill-opacity:1;fill-rule:nonzero;stroke:none"
         x="516.01099 532.48096"
         y="73.688377"
         sodipodi:role="line"
         id="tspan66">c1</tspan><tspan
         style="font-variant:normal;font-weight:normal;font-size:29.9999px;font-family:'DejaVu Sans';writing-mode:lr-tb;fill:#000000;fill-opacity:1;fill-rule:nonzero;stroke:none"
         x="309.27649 325.74643"
         y="310.99869"
         sodipodi:role="line"
         id="tspan67">c2</tspan><tspan
         style="font-variant:normal;font-weight:normal;font-size:29.9999px;font-family:'DejaVu Sans';writing-mode:lr-tb;fill:#000000;fill-opacity:1;fill-rule:nonzero;stroke:none"
         x="513.43573 532.45563"
         y="590.98352"
         sodipodi:role="line"
         id="tspan68">d1</tspan><tspan
         style="font-variant:normal;font-weight:normal;font-size:29.9999px;font-family:'DejaVu Sans';writing-mode:lr-tb;fill:#000000;fill-opacity:1;fill-rule:nonzero;stroke:none"
         x="307.15543 326.17538"
         y="360.75299"
         sodipodi:role="line"
         id="tspan69">d2</tspan><tspan
         style="font-variant:normal;font-weight:normal;font-size:29.9999px;font-family:'DejaVu Sans';writing-mode:lr-tb;fill:#000000;fill-opacity:1;fill-rule:nonzero;stroke:none"
         x="472.02386 490.47382"
         y="628.84131"
         sodipodi:role="line"
         id="tspan70">e1</tspan><tspan
         style="font-variant:normal;font-weight:normal;font-size:29.9999px;font-family:'DejaVu Sans';writing-mode:lr-tb;fill:#000000;fill-opacity:1;fill-rule:nonzero;stroke:none"
         x="232.55693 251.00687"
         y="437.10602"
         sodipodi:role="line"
         id="tspan71">e2</tspan><tspan
         style="font-variant:normal;font-weight:normal;font-size:29.9999px;font-family:'DejaVu Sans';writing-mode:lr-tb;fill:#000000;fill-opacity:1;fill-rule:nonzero;stroke:none"
         x="-52.517342 -41.957378"
         y="639.68329"
         sodipodi:role="line"
         id="tspan72">f1</tspan><tspan
         style="font-variant:normal;font-weight:normal;font-size:29.9999px;font-family:'DejaVu Sans';writing-mode:lr-tb;fill:#000000;fill-opacity:1;fill-rule:nonzero;stroke:none"
         x="188.16325 198.72321"
         y="437.77621"
         sodipodi:role="line"
         id="tspan73">f2</tspan><tspan
         style="font-variant:normal;font-weight:normal;font-size:29.9999px;font-family:'DejaVu Sans';writing-mode:lr-tb;fill:#000000;fill-opacity:1;fill-rule:nonzero;stroke:none"
         x="-94.162193 -75.14225"
         y="600.59705"
         sodipodi:role="line"
         id="tspan74">g1</tspan><tspan
         style="font-variant:normal;font-weight:normal;font-size:29.9999px;font-family:'DejaVu Sans';writing-mode:lr-tb;fill:#000000;fill-opacity:1;fill-rule:nonzero;stroke:none"
         x="116.16198 135.18192"
         y="361.61432"
         sodipodi:role="line"
         id="tspan75">g2</tspan><tspan
         style="font-variant:normal;font-weight:normal;font-size:29.9999px;font-family:'DejaVu Sans';writing-mode:lr-tb;fill:#000000;fill-opacity:1;fill-rule:nonzero;stroke:none"
         x="-97.438507 -78.44857"
         y="78.660561"
         sodipodi:role="line"
         id="tspan76">h1</tspan><tspan
         style="font-variant:normal;font-weight:normal;font-size:29.9999px;font-family:'DejaVu Sans';writing-mode:lr-tb;fill:#000000;fill-opacity:1;fill-rule:nonzero;stroke:none"
         x="114.87168 133.86162"
         y="315.57379"
         sodipodi:role="line"
         id="tspan77">h2</tspan><tspan
         style="font-variant:normal;font-weight:normal;font-size:29.9999px;font-family:'DejaVu Sans';writing-mode:lr-tb;fill:#000000;fill-opacity:1;fill-rule:nonzero;stroke:none"
         x="-43.013344 -24.653402"
         y="35.824203"
         sodipodi:role="line"
         id="tspan78">a1</tspan><tspan
         style="font-variant:normal;font-weight:normal;font-size:29.9999px;font-family:'DejaVu Sans';writing-mode:lr-tb;fill:#000000;fill-opacity:1;fill-rule:nonzero;stroke:none"
         x="190.23344 208.5934"
         y="247.91081"
         sodipodi:role="line"
         id="tspan79">a2</tspan></text>
  </g>
</svg>
