<?xml version="1.0" encoding="UTF-8" standalone="no"?>
<!-- Created with Inkscape (http://www.inkscape.org/) -->

<svg
   version="1.1"
   id="svg1"
   width="960.3288"
   height="936.69647"
   viewBox="0 0 960.3288 936.69647"
   sodipodi:docname="inst-quad-triangulation-step2.svg"
   inkscape:version="1.3.2 (091e20ef0f, 2023-11-25, custom)"
   xmlns:inkscape="http://www.inkscape.org/namespaces/inkscape"
   xmlns:sodipodi="http://sodipodi.sourceforge.net/DTD/sodipodi-0.dtd"
   xmlns="http://www.w3.org/2000/svg"
   xmlns:svg="http://www.w3.org/2000/svg">
  <defs
     id="defs1" />
  <sodipodi:namedview
     id="namedview1"
     pagecolor="#ffffff"
     bordercolor="#000000"
     borderopacity="0.25"
     inkscape:showpageshadow="2"
     inkscape:pageopacity="0.0"
     inkscape:pagecheckerboard="0"
     inkscape:deskcolor="#d1d1d1"
     showgrid="false"
     inkscape:zoom="0.91278234"
     inkscape:cx="479.85153"
     inkscape:cy="468.34824"
     inkscape:window-width="1892"
     inkscape:window-height="1034"
     inkscape:window-x="9"
     inkscape:window-y="27"
     inkscape:window-maximized="1"
     inkscape:current-layer="g1">
    <inkscape:page
       x="0"
       y="0"
       inkscape:label="1"
       id="page1"
       width="960.3288"
       height="936.69647"
       margin="0"
       bleed="0" />
  </sodipodi:namedview>
  <g
     id="g1"
     inkscape:groupmode="layer"
     inkscape:label="1">
    <path
       id="path1"
       d="m 47.156,559.652 34.449,34.532"
       style="fill:#000000;fill-opacity:1;fill-rule:nonzero;stroke:#ff0000;stroke-width:2.99999;stroke-linecap:butt;stroke-linejoin:miter;stroke-miterlimit:4;stroke-dasharray:none;stroke-opacity:1"
       transform="scale(1.3333333)" />
    <path
       id="path2"
       d="M 47.156,140.82 81.605,106.285"
       style="fill:#000000;fill-opacity:1;fill-rule:nonzero;stroke:#ff0000;stroke-width:2.99999;stroke-linecap:butt;stroke-linejoin:miter;stroke-miterlimit:4;stroke-dasharray:none;stroke-opacity:1"
       transform="scale(1.3333333)" />
    <path
       id="path3"
       d="m 112.227,624.883 34.453,34.535"
       style="fill:#000000;fill-opacity:1;fill-rule:nonzero;stroke:#ff0000;stroke-width:2.99999;stroke-linecap:butt;stroke-linejoin:miter;stroke-miterlimit:4;stroke-dasharray:none;stroke-opacity:1"
       transform="scale(1.3333333)" />
    <path
       id="path4"
       d="M 112.227,75.59 146.68,41.055"
       style="fill:#000000;fill-opacity:1;fill-rule:nonzero;stroke:#ff0000;stroke-width:2.99999;stroke-linecap:butt;stroke-linejoin:miter;stroke-miterlimit:4;stroke-dasharray:none;stroke-opacity:1"
       transform="scale(1.3333333)" />
    <path
       id="path5"
       d="m 564.488,659.418 34.45,-34.535"
       style="fill:#000000;fill-opacity:1;fill-rule:nonzero;stroke:#ff0000;stroke-width:2.99999;stroke-linecap:butt;stroke-linejoin:miter;stroke-miterlimit:4;stroke-dasharray:none;stroke-opacity:1"
       transform="scale(1.3333333)" />
    <path
       id="path6"
       d="m 564.488,41.055 34.45,34.535"
       style="fill:#000000;fill-opacity:1;fill-rule:nonzero;stroke:#ff0000;stroke-width:2.99999;stroke-linecap:butt;stroke-linejoin:miter;stroke-miterlimit:4;stroke-dasharray:none;stroke-opacity:1"
       transform="scale(1.3333333)" />
    <path
       id="path7"
       d="m 629.562,106.285 34.45,34.535"
       style="fill:#000000;fill-opacity:1;fill-rule:nonzero;stroke:#ff0000;stroke-width:2.99999;stroke-linecap:butt;stroke-linejoin:miter;stroke-miterlimit:4;stroke-dasharray:none;stroke-opacity:1"
       transform="scale(1.3333333)" />
    <path
       id="path8"
       d="m 629.562,594.184 34.45,-34.532"
       style="fill:#000000;fill-opacity:1;fill-rule:nonzero;stroke:#ff0000;stroke-width:2.99999;stroke-linecap:butt;stroke-linejoin:miter;stroke-miterlimit:4;stroke-dasharray:none;stroke-opacity:1"
       transform="scale(1.3333333)" />
    <path
       id="path9"
       d="M 47.156,559.652 V 140.82"
       style="fill:none;stroke:#888888;stroke-width:2.99999;stroke-linecap:butt;stroke-linejoin:miter;stroke-miterlimit:4;stroke-dasharray:none;stroke-opacity:0.435294"
       transform="scale(1.3333333)" />
    <path
       id="path10"
       d="M 146.68,659.418 H 564.488"
       style="fill:none;stroke:#888888;stroke-width:2.99999;stroke-linecap:butt;stroke-linejoin:miter;stroke-miterlimit:4;stroke-dasharray:none;stroke-opacity:0.435294"
       transform="scale(1.3333333)" />
    <path
       id="path11"
       d="M 146.68,41.055 H 564.488"
       style="fill:none;stroke:#888888;stroke-width:2.99999;stroke-linecap:butt;stroke-linejoin:miter;stroke-miterlimit:4;stroke-dasharray:none;stroke-opacity:0.435294"
       transform="scale(1.3333333)" />
    <path
       id="path12"
       d="M 664.012,559.652 V 140.82"
       style="fill:none;stroke:#888888;stroke-width:2.99999;stroke-linecap:butt;stroke-linejoin:miter;stroke-miterlimit:4;stroke-dasharray:none;stroke-opacity:0.435294"
       transform="scale(1.3333333)" />
    <path
       id="path13"
       d="m 50.906,559.652 c 0,2.071 -1.679,3.75 -3.75,3.75 -2.07,0 -3.75,-1.679 -3.75,-3.75 0,-2.074 1.68,-3.75 3.75,-3.75 2.071,0 3.75,1.676 3.75,3.75 z"
       style="fill:#ffc000;fill-opacity:1;fill-rule:nonzero;stroke:#ffc000;stroke-width:11.25;stroke-linecap:butt;stroke-linejoin:miter;stroke-miterlimit:4;stroke-dasharray:none;stroke-opacity:1"
       transform="scale(1.3333333)" />
    <path
       id="path14"
       d="m 50.906,140.82 c 0,2.071 -1.679,3.75 -3.75,3.75 -2.07,0 -3.75,-1.679 -3.75,-3.75 0,-2.07 1.68,-3.75 3.75,-3.75 2.071,0 3.75,1.68 3.75,3.75 z"
       style="fill:#ffc000;fill-opacity:1;fill-rule:nonzero;stroke:#ffc000;stroke-width:9.45;stroke-linecap:butt;stroke-linejoin:miter;stroke-miterlimit:4;stroke-dasharray:none;stroke-opacity:1"
       transform="scale(1.3333333)" />
    <path
       id="path15"
       d="m 150.43,659.418 c 0,2.07 -1.68,3.75 -3.75,3.75 -2.075,0 -3.75,-1.68 -3.75,-3.75 0,-2.074 1.675,-3.75 3.75,-3.75 2.07,0 3.75,1.676 3.75,3.75 z"
       style="fill:#ffc000;fill-opacity:1;fill-rule:nonzero;stroke:#ffc000;stroke-width:9.45;stroke-linecap:butt;stroke-linejoin:miter;stroke-miterlimit:4;stroke-dasharray:none;stroke-opacity:1"
       transform="scale(1.3333333)" />
    <path
       id="path16"
       d="m 150.43,41.055 c 0,2.07 -1.68,3.75 -3.75,3.75 -2.075,0 -3.75,-1.68 -3.75,-3.75 0,-2.071 1.675,-3.75 3.75,-3.75 2.07,0 3.75,1.679 3.75,3.75 z"
       style="fill:#ffc000;fill-opacity:1;fill-rule:nonzero;stroke:#ffc000;stroke-width:9.45;stroke-linecap:butt;stroke-linejoin:miter;stroke-miterlimit:4;stroke-dasharray:none;stroke-opacity:1"
       transform="scale(1.3333333)" />
    <path
       id="path17"
       d="m 568.238,659.418 c 0,2.07 -1.679,3.75 -3.75,3.75 -2.07,0 -3.75,-1.68 -3.75,-3.75 0,-2.074 1.68,-3.75 3.75,-3.75 2.071,0 3.75,1.676 3.75,3.75 z"
       style="fill:#ffc000;fill-opacity:1;fill-rule:nonzero;stroke:#ffc000;stroke-width:9.45;stroke-linecap:butt;stroke-linejoin:miter;stroke-miterlimit:4;stroke-dasharray:none;stroke-opacity:1"
       transform="scale(1.3333333)" />
    <path
       id="path18"
       d="m 568.238,41.055 c 0,2.07 -1.679,3.75 -3.75,3.75 -2.07,0 -3.75,-1.68 -3.75,-3.75 0,-2.071 1.68,-3.75 3.75,-3.75 2.071,0 3.75,1.679 3.75,3.75 z"
       style="fill:#ffc000;fill-opacity:1;fill-rule:nonzero;stroke:#ffc000;stroke-width:9.45;stroke-linecap:butt;stroke-linejoin:miter;stroke-miterlimit:4;stroke-dasharray:none;stroke-opacity:1"
       transform="scale(1.3333333)" />
    <path
       id="path19"
       d="m 667.762,559.652 c 0,2.071 -1.68,3.75 -3.75,3.75 -2.071,0 -3.75,-1.679 -3.75,-3.75 0,-2.074 1.679,-3.75 3.75,-3.75 2.07,0 3.75,1.676 3.75,3.75 z"
       style="fill:#ffc000;fill-opacity:1;fill-rule:nonzero;stroke:#ffc000;stroke-width:9.45;stroke-linecap:butt;stroke-linejoin:miter;stroke-miterlimit:4;stroke-dasharray:none;stroke-opacity:1"
       transform="scale(1.3333333)" />
    <path
       id="path20"
       d="m 667.762,140.82 c 0,2.071 -1.68,3.75 -3.75,3.75 -2.071,0 -3.75,-1.679 -3.75,-3.75 0,-2.07 1.679,-3.75 3.75,-3.75 2.07,0 3.75,1.68 3.75,3.75 z"
       style="fill:#ffc000;fill-opacity:1;fill-rule:nonzero;stroke:#ffc000;stroke-width:9.45;stroke-linecap:butt;stroke-linejoin:miter;stroke-miterlimit:4;stroke-dasharray:none;stroke-opacity:1"
       transform="scale(1.3333333)" />
    <text
       id="text20"
       xml:space="preserve"
       transform="matrix(1.3333333,0,0,1.3333333,175.53179,29.687417)"><tspan
         style="font-variant:normal;font-weight:normal;font-size:29.9999px;font-family:'DejaVu Sans';writing-mode:lr-tb;fill:#000000;fill-opacity:1;fill-rule:nonzero;stroke:none"
         x="0 18.38373"
         y="0"
         sodipodi:role="line"
         id="tspan20">a0</tspan><tspan
         style="font-variant:normal;font-weight:normal;font-size:29.9999px;font-family:'DejaVu Sans';writing-mode:lr-tb;fill:#000000;fill-opacity:1;fill-rule:nonzero;stroke:none"
         x="418.81601 437.85892"
         y="0.73716664"
         sodipodi:role="line"
         id="tspan21">b0</tspan><tspan
         style="font-variant:normal;font-weight:normal;font-size:29.9999px;font-family:'DejaVu Sans';writing-mode:lr-tb;fill:#000000;fill-opacity:1;fill-rule:nonzero;stroke:none"
         x="555.00903 571.50311"
         y="126.67232"
         sodipodi:role="line"
         id="tspan22">c0</tspan><tspan
         style="font-variant:normal;font-weight:normal;font-size:29.9999px;font-family:'DejaVu Sans';writing-mode:lr-tb;fill:#000000;fill-opacity:1;fill-rule:nonzero;stroke:none"
         x="551.30731 570.35022"
         y="549.57111"
         sodipodi:role="line"
         id="tspan23">d0</tspan><tspan
         style="font-variant:normal;font-weight:normal;font-size:29.9999px;font-family:'DejaVu Sans';writing-mode:lr-tb;fill:#000000;fill-opacity:1;fill-rule:nonzero;stroke:none"
         x="418.73392 437.19089"
         y="679.83197"
         sodipodi:role="line"
         id="tspan24">e0</tspan><tspan
         style="font-variant:normal;font-weight:normal;font-size:29.9999px;font-family:'DejaVu Sans';writing-mode:lr-tb;fill:#000000;fill-opacity:1;fill-rule:nonzero;stroke:none"
         x="1.8286141 12.390103"
         y="678.97467"
         sodipodi:role="line"
         id="tspan25">f0</tspan><tspan
         style="font-variant:normal;font-weight:normal;font-size:29.9999px;font-family:'DejaVu Sans';writing-mode:lr-tb;fill:#000000;fill-opacity:1;fill-rule:nonzero;stroke:none"
         x="-133.30406 -114.26115"
         y="549.36804"
         sodipodi:role="line"
         id="tspan26">g0</tspan><tspan
         style="font-variant:normal;font-weight:normal;font-size:29.9999px;font-family:'DejaVu Sans';writing-mode:lr-tb;fill:#000000;fill-opacity:1;fill-rule:nonzero;stroke:none"
         x="-133.85416 -114.84055"
         y="131.05283"
         sodipodi:role="line"
         id="tspan27">h0</tspan></text>
  </g>
</svg>
