<?xml version="1.0" encoding="UTF-8" standalone="no"?>
<!-- Created with Inkscape (http://www.inkscape.org/) -->

<svg
   version="1.1"
   id="svg1"
   width="720.46381"
   height="723.66132"
   viewBox="0 0 720.46381 723.66132"
   sodipodi:docname="instantiation-quad-face.svg"
   inkscape:version="1.3.2 (091e20ef0f, 2023-11-25, custom)"
   xmlns:inkscape="http://www.inkscape.org/namespaces/inkscape"
   xmlns:sodipodi="http://sodipodi.sourceforge.net/DTD/sodipodi-0.dtd"
   xmlns="http://www.w3.org/2000/svg"
   xmlns:svg="http://www.w3.org/2000/svg">
  <defs
     id="defs1" />
  <sodipodi:namedview
     id="namedview1"
     pagecolor="#ffffff"
     bordercolor="#000000"
     borderopacity="0.25"
     inkscape:showpageshadow="2"
     inkscape:pageopacity="0.0"
     inkscape:pagecheckerboard="0"
     inkscape:deskcolor="#d1d1d1"
     showgrid="false"
     inkscape:zoom="1.1814919"
     inkscape:cx="339.40139"
     inkscape:cy="346.59568"
     inkscape:window-width="1892"
     inkscape:window-height="1034"
     inkscape:window-x="9"
     inkscape:window-y="27"
     inkscape:window-maximized="1"
     inkscape:current-layer="g1">
    <inkscape:page
       x="0"
       y="0"
       inkscape:label="1"
       id="page1"
       width="720.46381"
       height="723.66132"
       margin="0"
       bleed="0" />
  </sodipodi:namedview>
  <g
     id="g1"
     inkscape:groupmode="layer"
     inkscape:label="1">
    <path
       id="path1"
       d="m 451.137,30.191 59.117,59.036"
       style="fill:#000000;fill-opacity:1;fill-rule:nonzero;stroke:#ff0000;stroke-width:3.20000008;stroke-linecap:butt;stroke-linejoin:miter;stroke-miterlimit:4;stroke-dasharray:none;stroke-opacity:1"
       transform="scale(1.3333333)" />
    <path
       id="path2"
       d="M 451.137,30.191 H 85.66"
       style="fill:none;stroke:#000000;stroke-width:3.20000008;stroke-linecap:butt;stroke-linejoin:miter;stroke-miterlimit:4;stroke-dasharray:none;stroke-opacity:1"
       transform="scale(1.3333333)" />
    <path
       id="path3"
       d="M 85.66,30.191 26.543,89.227"
       style="fill:#000000;fill-opacity:1;fill-rule:nonzero;stroke:#ff0000;stroke-width:3.20000008;stroke-linecap:butt;stroke-linejoin:miter;stroke-miterlimit:4;stroke-dasharray:none;stroke-opacity:1"
       transform="scale(1.3333333)" />
    <path
       id="path4"
       d="M 510.254,89.227 V 454.203"
       style="fill:none;stroke:#000000;stroke-width:3.20000008;stroke-linecap:butt;stroke-linejoin:miter;stroke-miterlimit:4;stroke-dasharray:none;stroke-opacity:1"
       transform="scale(1.3333333)" />
    <path
       id="path5"
       d="M 26.543,89.227 V 454.203"
       style="fill:none;stroke:#000000;stroke-width:3.20000008;stroke-linecap:butt;stroke-linejoin:miter;stroke-miterlimit:4;stroke-dasharray:none;stroke-opacity:1"
       transform="scale(1.3333333)" />
    <path
       id="path6"
       d="M 26.543,454.203 85.66,513.238"
       style="fill:#000000;fill-opacity:1;fill-rule:nonzero;stroke:#ff0000;stroke-width:3.20000008;stroke-linecap:butt;stroke-linejoin:miter;stroke-miterlimit:4;stroke-dasharray:none;stroke-opacity:1"
       transform="scale(1.3333333)" />
    <path
       id="path7"
       d="m 510.254,454.203 -59.117,59.035"
       style="fill:#000000;fill-opacity:1;fill-rule:nonzero;stroke:#ff0000;stroke-width:3.20000008;stroke-linecap:butt;stroke-linejoin:miter;stroke-miterlimit:4;stroke-dasharray:none;stroke-opacity:1"
       transform="scale(1.3333333)" />
    <path
       id="path8"
       d="M 85.66,513.238 H 451.137"
       style="fill:none;stroke:#000000;stroke-width:3.20000008;stroke-linecap:butt;stroke-linejoin:miter;stroke-miterlimit:4;stroke-dasharray:none;stroke-opacity:1"
       transform="scale(1.3333333)" />
    <text
       id="text8"
       xml:space="preserve"
       transform="matrix(1.3333333,0,0,1.3333333,96.051819,29.298859)"><tspan
         style="font-variant:normal;font-weight:normal;font-size:30px;font-family:'DejaVu Sans';writing-mode:lr-tb;fill:#000000;fill-opacity:1;fill-rule:nonzero;stroke:none"
         x="0"
         y="0"
         id="tspan8">a</tspan><tspan
         style="font-variant:normal;font-weight:normal;font-size:30px;font-family:'DejaVu Sans';writing-mode:lr-tb;fill:#000000;fill-opacity:1;fill-rule:nonzero;stroke:none"
         x="375.02118"
         y="0.81882602"
         id="tspan9">b</tspan><tspan
         style="font-variant:normal;font-weight:normal;font-size:30px;font-family:'DejaVu Sans';writing-mode:lr-tb;fill:#000000;fill-opacity:1;fill-rule:nonzero;stroke:none"
         x="449.53403"
         y="62.230595"
         id="tspan10">c</tspan><tspan
         style="font-variant:normal;font-weight:normal;font-size:30px;font-family:'DejaVu Sans';writing-mode:lr-tb;fill:#000000;fill-opacity:1;fill-rule:nonzero;stroke:none"
         x="451.99057"
         y="446.25885"
         id="tspan11">d</tspan><tspan
         style="font-variant:normal;font-weight:normal;font-size:30px;font-family:'DejaVu Sans';writing-mode:lr-tb;fill:#000000;fill-opacity:1;fill-rule:nonzero;stroke:none"
         x="376.65878"
         y="516.67767"
         id="tspan12">e</tspan><tspan
         style="font-variant:normal;font-weight:normal;font-size:30px;font-family:'DejaVu Sans';writing-mode:lr-tb;fill:#000000;fill-opacity:1;fill-rule:nonzero;stroke:none"
         x="5.7317338"
         y="520.77179"
         id="tspan13">f</tspan><tspan
         style="font-variant:normal;font-weight:normal;font-size:30px;font-family:'DejaVu Sans';writing-mode:lr-tb;fill:#000000;fill-opacity:1;fill-rule:nonzero;stroke:none"
         x="-73.694168"
         y="446.25885"
         id="tspan14">g</tspan><tspan
         style="font-variant:normal;font-weight:normal;font-size:30px;font-family:'DejaVu Sans';writing-mode:lr-tb;fill:#000000;fill-opacity:1;fill-rule:nonzero;stroke:none"
         x="-67.143578"
         y="63.868237"
         id="tspan15">h</tspan></text>
    <path
       id="path15"
       d="m 454.535,30.133 c 0,1.746 -1.469,3.164 -3.277,3.164 -1.809,0 -3.278,-1.418 -3.278,-3.164 0,-1.75 1.469,-3.168 3.278,-3.168 1.808,0 3.277,1.418 3.277,3.168 z"
       style="fill:#000000;fill-opacity:1;fill-rule:nonzero;stroke:#000000;stroke-width:5.15325;stroke-linecap:butt;stroke-linejoin:miter;stroke-miterlimit:4;stroke-dasharray:none;stroke-opacity:1"
       transform="scale(1.3333333)" />
    <path
       id="path16"
       d="m 89.133,29.926 c 0,1.75 -1.469,3.168 -3.278,3.168 -1.808,0 -3.277,-1.418 -3.277,-3.168 0,-1.746 1.469,-3.164 3.277,-3.164 1.809,0 3.278,1.418 3.278,3.164 z"
       style="fill:#000000;fill-opacity:1;fill-rule:nonzero;stroke:#000000;stroke-width:5.15359;stroke-linecap:butt;stroke-linejoin:miter;stroke-miterlimit:4;stroke-dasharray:none;stroke-opacity:1"
       transform="scale(1.3333333)" />
    <path
       id="path17"
       d="m 513.688,89.078 c 0,1.75 -1.465,3.168 -3.278,3.168 -1.808,0 -3.273,-1.418 -3.273,-3.168 0,-1.746 1.465,-3.164 3.273,-3.164 1.813,0 3.278,1.418 3.278,3.164 z"
       style="fill:#000000;fill-opacity:1;fill-rule:nonzero;stroke:#000000;stroke-width:5.15359;stroke-linecap:butt;stroke-linejoin:miter;stroke-miterlimit:4;stroke-dasharray:none;stroke-opacity:1"
       transform="scale(1.3333333)" />
    <path
       id="path18"
       d="m 29.977,89.285 c 0,1.746 -1.465,3.164 -3.278,3.164 -1.808,0 -3.273,-1.418 -3.273,-3.164 0,-1.75 1.465,-3.168 3.273,-3.168 1.813,0 3.278,1.418 3.278,3.168 z"
       style="fill:#000000;fill-opacity:1;fill-rule:nonzero;stroke:#000000;stroke-width:5.15359;stroke-linecap:butt;stroke-linejoin:miter;stroke-miterlimit:4;stroke-dasharray:none;stroke-opacity:1"
       transform="scale(1.3333333)" />
    <path
       id="path19"
       d="m 29.773,454.148 c 0,1.747 -1.468,3.164 -3.277,3.164 -1.808,0 -3.277,-1.417 -3.277,-3.164 0,-1.75 1.469,-3.168 3.277,-3.168 1.809,0 3.277,1.418 3.277,3.168 z"
       style="fill:#000000;fill-opacity:1;fill-rule:nonzero;stroke:#000000;stroke-width:5.15359;stroke-linecap:butt;stroke-linejoin:miter;stroke-miterlimit:4;stroke-dasharray:none;stroke-opacity:1"
       transform="scale(1.3333333)" />
    <path
       id="path20"
       d="m 513.895,454.148 c 0,1.747 -1.469,3.164 -3.278,3.164 -1.808,0 -3.277,-1.417 -3.277,-3.164 0,-1.75 1.469,-3.168 3.277,-3.168 1.809,0 3.278,1.418 3.278,3.168 z"
       style="fill:#000000;fill-opacity:1;fill-rule:nonzero;stroke:#000000;stroke-width:5.15359;stroke-linecap:butt;stroke-linejoin:miter;stroke-miterlimit:4;stroke-dasharray:none;stroke-opacity:1"
       transform="scale(1.3333333)" />
    <path
       id="path21"
       d="m 88.723,513.504 c 0,1.75 -1.465,3.164 -3.278,3.164 -1.808,0 -3.277,-1.414 -3.277,-3.164 0,-1.75 1.469,-3.168 3.277,-3.168 1.813,0 3.278,1.418 3.278,3.168 z"
       style="fill:#000000;fill-opacity:0.975684;fill-rule:nonzero;stroke:#000000;stroke-width:5.15359;stroke-linecap:butt;stroke-linejoin:miter;stroke-miterlimit:4;stroke-dasharray:none;stroke-opacity:1"
       transform="scale(1.3333333)" />
    <path
       id="path22"
       d="m 454.535,513.301 c 0,1.746 -1.469,3.164 -3.277,3.164 -1.809,0 -3.278,-1.418 -3.278,-3.164 0,-1.75 1.469,-3.168 3.278,-3.168 1.808,0 3.277,1.418 3.277,3.168 z"
       style="fill:#000000;fill-opacity:1;fill-rule:nonzero;stroke:#000000;stroke-width:5.15359;stroke-linecap:butt;stroke-linejoin:miter;stroke-miterlimit:4;stroke-dasharray:none;stroke-opacity:1"
       transform="scale(1.3333333)" />
  </g>
</svg>
