<?xml version="1.0" encoding="UTF-8" standalone="no"?>
<!-- Created with Inkscape (http://www.inkscape.org/) -->

<svg
   version="1.1"
   id="svg1"
   width="960.32886"
   height="936.69647"
   viewBox="0 0 960.32886 936.69647"
   sodipodi:docname="inst-quad-triangulation-step1.svg"
   inkscape:version="1.3.2 (091e20ef0f, 2023-11-25, custom)"
   xmlns:inkscape="http://www.inkscape.org/namespaces/inkscape"
   xmlns:sodipodi="http://sodipodi.sourceforge.net/DTD/sodipodi-0.dtd"
   xmlns="http://www.w3.org/2000/svg"
   xmlns:svg="http://www.w3.org/2000/svg">
  <defs
     id="defs1" />
  <sodipodi:namedview
     id="namedview1"
     pagecolor="#ffffff"
     bordercolor="#000000"
     borderopacity="0.25"
     inkscape:showpageshadow="2"
     inkscape:pageopacity="0.0"
     inkscape:pagecheckerboard="0"
     inkscape:deskcolor="#d1d1d1"
     showgrid="false"
     inkscape:zoom="0.91278234"
     inkscape:cx="479.85153"
     inkscape:cy="468.34824"
     inkscape:window-width="1892"
     inkscape:window-height="1034"
     inkscape:window-x="9"
     inkscape:window-y="27"
     inkscape:window-maximized="1"
     inkscape:current-layer="g1">
    <inkscape:page
       x="0"
       y="0"
       inkscape:label="1"
       id="page1"
       width="960.32886"
       height="936.69647"
       margin="0"
       bleed="0" />
  </sodipodi:namedview>
  <g
     id="g1"
     inkscape:groupmode="layer"
     inkscape:label="1">
    <path
       id="path1"
       d="M 49.875,562.129 V 143.297"
       style="fill:none;stroke:#000000;stroke-width:2.99999;stroke-linecap:butt;stroke-linejoin:miter;stroke-miterlimit:4;stroke-dasharray:none;stroke-opacity:1"
       transform="scale(1.3333333)" />
    <path
       id="path2"
       d="M 149.398,661.895 H 567.211"
       style="fill:none;stroke:#000000;stroke-width:2.99999;stroke-linecap:butt;stroke-linejoin:miter;stroke-miterlimit:4;stroke-dasharray:none;stroke-opacity:1"
       transform="scale(1.3333333)" />
    <path
       id="path3"
       d="M 149.398,43.531 H 567.211"
       style="fill:none;stroke:#000000;stroke-width:2.99999;stroke-linecap:butt;stroke-linejoin:miter;stroke-miterlimit:4;stroke-dasharray:none;stroke-opacity:1"
       transform="scale(1.3333333)" />
    <path
       id="path4"
       d="M 666.73,562.129 V 143.297"
       style="fill:none;stroke:#000000;stroke-width:2.99999;stroke-linecap:butt;stroke-linejoin:miter;stroke-miterlimit:4;stroke-dasharray:none;stroke-opacity:1"
       transform="scale(1.3333333)" />
    <path
       id="path5"
       d="m 53.625,562.129 c 0,2.07 -1.676,3.75 -3.75,3.75 -2.07,0 -3.75,-1.68 -3.75,-3.75 0,-2.07 1.68,-3.75 3.75,-3.75 2.074,0 3.75,1.68 3.75,3.75 z"
       style="fill:#ffc000;fill-opacity:1;fill-rule:nonzero;stroke:#ffc000;stroke-width:11.25;stroke-linecap:butt;stroke-linejoin:miter;stroke-miterlimit:4;stroke-dasharray:none;stroke-opacity:1"
       transform="scale(1.3333333)" />
    <path
       id="path6"
       d="m 53.625,143.297 c 0,2.074 -1.676,3.75 -3.75,3.75 -2.07,0 -3.75,-1.676 -3.75,-3.75 0,-2.07 1.68,-3.75 3.75,-3.75 2.074,0 3.75,1.68 3.75,3.75 z"
       style="fill:#ffc000;fill-opacity:1;fill-rule:nonzero;stroke:#ffc000;stroke-width:9.45;stroke-linecap:butt;stroke-linejoin:miter;stroke-miterlimit:4;stroke-dasharray:none;stroke-opacity:1"
       transform="scale(1.3333333)" />
    <path
       id="path7"
       d="m 153.148,661.895 c 0,2.07 -1.679,3.75 -3.75,3.75 -2.07,0 -3.75,-1.68 -3.75,-3.75 0,-2.071 1.68,-3.75 3.75,-3.75 2.071,0 3.75,1.679 3.75,3.75 z"
       style="fill:#ffc000;fill-opacity:1;fill-rule:nonzero;stroke:#ffc000;stroke-width:9.45;stroke-linecap:butt;stroke-linejoin:miter;stroke-miterlimit:4;stroke-dasharray:none;stroke-opacity:1"
       transform="scale(1.3333333)" />
    <path
       id="path8"
       d="m 153.148,43.531 c 0,2.074 -1.679,3.75 -3.75,3.75 -2.07,0 -3.75,-1.676 -3.75,-3.75 0,-2.07 1.68,-3.75 3.75,-3.75 2.071,0 3.75,1.68 3.75,3.75 z"
       style="fill:#ffc000;fill-opacity:1;fill-rule:nonzero;stroke:#ffc000;stroke-width:9.45;stroke-linecap:butt;stroke-linejoin:miter;stroke-miterlimit:4;stroke-dasharray:none;stroke-opacity:1"
       transform="scale(1.3333333)" />
    <path
       id="path9"
       d="m 570.961,661.895 c 0,2.07 -1.68,3.75 -3.75,3.75 -2.074,0 -3.75,-1.68 -3.75,-3.75 0,-2.071 1.676,-3.75 3.75,-3.75 2.07,0 3.75,1.679 3.75,3.75 z"
       style="fill:#ffc000;fill-opacity:1;fill-rule:nonzero;stroke:#ffc000;stroke-width:9.45;stroke-linecap:butt;stroke-linejoin:miter;stroke-miterlimit:4;stroke-dasharray:none;stroke-opacity:1"
       transform="scale(1.3333333)" />
    <path
       id="path10"
       d="m 570.961,43.531 c 0,2.074 -1.68,3.75 -3.75,3.75 -2.074,0 -3.75,-1.676 -3.75,-3.75 0,-2.07 1.676,-3.75 3.75,-3.75 2.07,0 3.75,1.68 3.75,3.75 z"
       style="fill:#ffc000;fill-opacity:1;fill-rule:nonzero;stroke:#ffc000;stroke-width:9.45;stroke-linecap:butt;stroke-linejoin:miter;stroke-miterlimit:4;stroke-dasharray:none;stroke-opacity:1"
       transform="scale(1.3333333)" />
    <path
       id="path11"
       d="m 670.48,562.129 c 0,2.07 -1.675,3.75 -3.75,3.75 -2.07,0 -3.75,-1.68 -3.75,-3.75 0,-2.07 1.68,-3.75 3.75,-3.75 2.075,0 3.75,1.68 3.75,3.75 z"
       style="fill:#ffc000;fill-opacity:1;fill-rule:nonzero;stroke:#ffc000;stroke-width:9.45;stroke-linecap:butt;stroke-linejoin:miter;stroke-miterlimit:4;stroke-dasharray:none;stroke-opacity:1"
       transform="scale(1.3333333)" />
    <path
       id="path12"
       d="m 670.48,143.297 c 0,2.074 -1.675,3.75 -3.75,3.75 -2.07,0 -3.75,-1.676 -3.75,-3.75 0,-2.07 1.68,-3.75 3.75,-3.75 2.075,0 3.75,1.68 3.75,3.75 z"
       style="fill:#ffc000;fill-opacity:1;fill-rule:nonzero;stroke:#ffc000;stroke-width:9.45;stroke-linecap:butt;stroke-linejoin:miter;stroke-miterlimit:4;stroke-dasharray:none;stroke-opacity:1"
       transform="scale(1.3333333)" />
    <text
       id="text12"
       xml:space="preserve"
       transform="matrix(1.3333333,0,0,1.3333333,175.53179,29.687423)"><tspan
         style="font-variant:normal;font-weight:normal;font-size:29.9999px;font-family:'DejaVu Sans';writing-mode:lr-tb;fill:#000000;fill-opacity:1;fill-rule:nonzero;stroke:none"
         x="0 18.38373"
         y="0"
         sodipodi:role="line"
         id="tspan12">a0</tspan><tspan
         style="font-variant:normal;font-weight:normal;font-size:29.9999px;font-family:'DejaVu Sans';writing-mode:lr-tb;fill:#000000;fill-opacity:1;fill-rule:nonzero;stroke:none"
         x="418.81598 437.85889"
         y="0.73716664"
         sodipodi:role="line"
         id="tspan13">b0</tspan><tspan
         style="font-variant:normal;font-weight:normal;font-size:29.9999px;font-family:'DejaVu Sans';writing-mode:lr-tb;fill:#000000;fill-opacity:1;fill-rule:nonzero;stroke:none"
         x="555.00897 571.50305"
         y="126.67232"
         sodipodi:role="line"
         id="tspan14">c0</tspan><tspan
         style="font-variant:normal;font-weight:normal;font-size:29.9999px;font-family:'DejaVu Sans';writing-mode:lr-tb;fill:#000000;fill-opacity:1;fill-rule:nonzero;stroke:none"
         x="551.30731 570.35022"
         y="549.57111"
         sodipodi:role="line"
         id="tspan15">d0</tspan><tspan
         style="font-variant:normal;font-weight:normal;font-size:29.9999px;font-family:'DejaVu Sans';writing-mode:lr-tb;fill:#000000;fill-opacity:1;fill-rule:nonzero;stroke:none"
         x="418.73389 437.19086"
         y="679.83197"
         sodipodi:role="line"
         id="tspan16">e0</tspan><tspan
         style="font-variant:normal;font-weight:normal;font-size:29.9999px;font-family:'DejaVu Sans';writing-mode:lr-tb;fill:#000000;fill-opacity:1;fill-rule:nonzero;stroke:none"
         x="1.8285842 12.390074"
         y="678.97461"
         sodipodi:role="line"
         id="tspan17">f0</tspan><tspan
         style="font-variant:normal;font-weight:normal;font-size:29.9999px;font-family:'DejaVu Sans';writing-mode:lr-tb;fill:#000000;fill-opacity:1;fill-rule:nonzero;stroke:none"
         x="-133.30412 -114.26122"
         y="549.3681"
         sodipodi:role="line"
         id="tspan18">g0</tspan><tspan
         style="font-variant:normal;font-weight:normal;font-size:29.9999px;font-family:'DejaVu Sans';writing-mode:lr-tb;fill:#000000;fill-opacity:1;fill-rule:nonzero;stroke:none"
         x="-133.85422 -114.84061"
         y="131.05286"
         sodipodi:role="line"
         id="tspan19">h0</tspan></text>
  </g>
</svg>
