<?xml version="1.0" encoding="UTF-8" standalone="no"?>
<!-- Created with Jerboa -->

<svg
	width="1298"
	height="607" >
	<style id="style">
		.arc0 {
			fill:none;
			fill-rule:evenodd;
			stroke:black;
			stroke-width:4;
			stroke-linecap:round;
			stroke-linejoin:round;
			stroke-opacity:1;
		}
		.arc1 {
			fill:none;
			fill-rule:evenodd;
			stroke:red;
			stroke-width:4;
			stroke-linecap:round;
			stroke-linejoin:round;
			stroke-opacity:1;
		}
		.arc2 {
			fill:none;
			fill-rule:evenodd;
			stroke:blue;
			stroke-width:4;
			stroke-linecap:round;
			stroke-linejoin:round;
			stroke-opacity:1;
		}
		.arc3 {
			fill:none;
			fill-rule:evenodd;
			stroke:green;
			stroke-width:4;
			stroke-linecap:round;
			stroke-linejoin:round;
			stroke-opacity:1;
		}
		.topological-dart {
			fill:#000000;
			stroke:#000000;
			stroke-width:0;
			stroke-linecap:round;
			stroke-linejoin:round;
			stroke-dasharray:none;
			paint-order:markers fill stroke;
		}
	</style>
<polygon
	points="911.2458,130.7333 911.2458,476.26636 821.7929,565.7056 476.20737,565.7056 386.7545,476.26636 386.7545,130.7333 476.20737,41.294067 821.7929,41.294067 "
	id="face_3_2_1_0_7_6_5_4"
	style="fill:rgb(192,192,192);stroke:none"
	opacity="1.0" />
<line
	class="arc1"
	id="link4_@1_5"
	x1="911.2458"
	y1="130.7333"
	x2="821.7929"
	y2="41.294067" />
<line
	class="arc0"
	id="link4_@0_3"
	x1="911.2458"
	y1="130.7333"
	x2="911.2458"
	y2="476.26636" />
<circle
	id="dart4"
	cx="911.2458"
	cy="130.7333"
	r="20"
	stroke="black"
	fill="rgb(0,0,0)" />
<line
	class="arc0"
	id="link5_@0_6"
	x1="821.7929"
	y1="41.294067"
	x2="476.20737"
	y2="41.294067" />
<circle
	id="dart5"
	cx="821.7929"
	cy="41.294067"
	r="20"
	stroke="black"
	fill="rgb(0,0,0)" />
<line
	class="arc1"
	id="link6_@1_7"
	x1="476.20737"
	y1="41.294067"
	x2="386.7545"
	y2="130.7333" />
<circle
	id="dart6"
	cx="476.20737"
	cy="41.294067"
	r="20"
	stroke="black"
	fill="rgb(0,0,0)" />
<line
	class="arc0"
	id="link7_@0_0"
	x1="386.7545"
	y1="130.7333"
	x2="386.7545"
	y2="476.26636" />
<circle
	id="dart7"
	cx="386.7545"
	cy="130.7333"
	r="20"
	stroke="black"
	fill="rgb(0,0,0)" />
<line
	class="arc1"
	id="link0_@1_1"
	x1="386.7545"
	y1="476.26636"
	x2="476.20737"
	y2="565.7056" />
<circle
	id="dart0"
	cx="386.7545"
	cy="476.26636"
	r="20"
	stroke="black"
	fill="rgb(0,0,0)" />
<line
	class="arc1"
	id="link3_@1_2"
	x1="911.2458"
	y1="476.26636"
	x2="821.7929"
	y2="565.7056" />
<circle
	id="dart3"
	cx="911.2458"
	cy="476.26636"
	r="20"
	stroke="black"
	fill="rgb(0,0,0)" />
<line
	class="arc0"
	id="link1_@0_2"
	x1="476.20737"
	y1="565.7056"
	x2="821.7929"
	y2="565.7056" />
<circle
	id="dart1"
	cx="476.20737"
	cy="565.7056"
	r="20"
	stroke="black"
	fill="rgb(0,0,0)" />
<circle
	id="dart2"
	cx="821.7929"
	cy="565.7056"
	r="20"
	stroke="black"
	fill="rgb(0,0,0)" />
</svg>
