<?xml version="1.0" encoding="UTF-8" standalone="no"?>
<!-- Created with Jerboa -->

<svg
   width="317.05087"
   height="544.1261"
   version="1.1"
   id="svg1"
   sodipodi:docname="right-graph-application.svg"
   xml:space="preserve"
   inkscape:version="1.3.2 (091e20ef0f, 2023-11-25, custom)"
   xmlns:inkscape="http://www.inkscape.org/namespaces/inkscape"
   xmlns:sodipodi="http://sodipodi.sourceforge.net/DTD/sodipodi-0.dtd"
   xmlns="http://www.w3.org/2000/svg"
   xmlns:svg="http://www.w3.org/2000/svg"><defs
     id="defs1" /><sodipodi:namedview
     id="namedview1"
     pagecolor="#ffffff"
     bordercolor="#000000"
     borderopacity="0.25"
     inkscape:showpageshadow="2"
     inkscape:pageopacity="0.0"
     inkscape:pagecheckerboard="0"
     inkscape:deskcolor="#d1d1d1"
     showgrid="false"
     inkscape:zoom="0.98078401"
     inkscape:cx="157.01724"
     inkscape:cy="259.48629"
     inkscape:window-width="1892"
     inkscape:window-height="1034"
     inkscape:window-x="9"
     inkscape:window-y="27"
     inkscape:window-maximized="1"
     inkscape:current-layer="svg1" /><style
     id="style">
		.arc0 {
			fill:none;
			fill-rule:evenodd;
			stroke:black;
			stroke-width:4;
			stroke-linecap:round;
			stroke-linejoin:round;
			stroke-opacity:1;
		}
		.arc1 {
			fill:none;
			fill-rule:evenodd;
			stroke:red;
			stroke-width:4;
			stroke-linecap:round;
			stroke-linejoin:round;
			stroke-opacity:1;
		}
		.arc2 {
			fill:none;
			fill-rule:evenodd;
			stroke:blue;
			stroke-width:4;
			stroke-linecap:round;
			stroke-linejoin:round;
			stroke-opacity:1;
		}
		.arc3 {
			fill:none;
			fill-rule:evenodd;
			stroke:green;
			stroke-width:4;
			stroke-linecap:round;
			stroke-linejoin:round;
			stroke-opacity:1;
		}
		.topological-dart {
			fill:#000000;
			stroke:#000000;
			stroke-width:0;
			stroke-linecap:round;
			stroke-linejoin:round;
			stroke-dasharray:none;
			paint-order:markers fill stroke;
		}
	</style><polygon
     points="532.55756,331.8683 600.7167,400.0273 600.7167,458.1119 532.55756,526.271 503.5153,497.2287 503.5153,360.91058 "
     id="face_7_22_23_21_20_0"
     style="fill:#c0c0c0;stroke:none"
     opacity="1"
     transform="translate(-493.01529,-43.468933)" /><line
     class="arc1"
     id="link0_@1_20"
     x1="10.5"
     y1="453.75977"
     x2="39.542267"
     y2="482.80206" /><line
     class="arc0"
     id="link0_@0_7"
     x1="10.5"
     y1="453.75977"
     x2="10.5"
     y2="317.44165" /><circle
     id="dart0"
     cx="10.5"
     cy="453.75977"
     r="8"
     stroke="#000000"
     fill="#000000"
     style="stroke-width:0.8" /><polygon
     points="748.742,548.05273 680.583,479.89368 622.4984,479.89368 554.33936,548.05273 583.3816,577.09503 719.6997,577.09503 "
     id="face_2_16_17_19_18_1"
     style="fill:#c0c0c0;stroke:none"
     opacity="1"
     transform="translate(-493.01529,-43.468933)" /><line
     class="arc1"
     id="link1_@1_18"
     x1="90.366302"
     y1="533.6261"
     x2="61.324066"
     y2="504.5838" /><line
     class="arc0"
     id="link1_@0_2"
     x1="90.366302"
     y1="533.6261"
     x2="226.68442"
     y2="533.6261" /><circle
     id="dart1"
     cx="90.366302"
     cy="533.6261"
     r="8"
     stroke="#000000"
     fill="#000000"
     style="stroke-width:0.8" /><line
     class="arc1"
     id="link2_@1_16"
     x1="226.68442"
     y1="533.6261"
     x2="255.72672"
     y2="504.5838" /><circle
     id="dart2"
     cx="226.68442"
     cy="533.6261"
     r="8"
     stroke="#000000"
     fill="#000000"
     style="stroke-width:0.8" /><polygon
     points="770.5238,331.8683 702.3647,400.0273 702.3647,458.1119 770.5238,526.271 799.56616,497.2287 799.56616,360.91058 "
     id="face_4_28_29_11_15_3"
     style="fill:#c0c0c0;stroke:none"
     opacity="1"
     transform="translate(-493.01529,-43.468933)" /><line
     class="arc1"
     id="link3_@1_15"
     x1="306.55087"
     y1="453.75977"
     x2="277.50851"
     y2="482.80206" /><line
     class="arc0"
     id="link3_@0_4"
     x1="306.55087"
     y1="453.75977"
     x2="306.55087"
     y2="317.44165" /><circle
     id="dart3"
     cx="306.55087"
     cy="453.75977"
     r="8"
     stroke="#000000"
     fill="#000000"
     style="stroke-width:0.8" /><line
     class="arc1"
     id="link4_@1_28"
     x1="306.55087"
     y1="317.44165"
     x2="277.50851"
     y2="288.39935" /><circle
     id="dart4"
     cx="306.55087"
     cy="317.44165"
     r="8"
     stroke="#000000"
     fill="#000000"
     style="stroke-width:0.8" /><polygon
     points="554.33936,310.08652 622.4984,378.2456 680.583,378.2456 748.742,310.08652 719.6997,281.04416 583.3816,281.04416 "
     id="face_6_24_25_27_26_5"
     style="fill:#c0c0c0;stroke:none"
     opacity="1"
     transform="translate(-493.01529,-43.468933)" /><line
     class="arc1"
     id="link5_@1_26"
     x1="226.68442"
     y1="237.57523"
     x2="255.72672"
     y2="266.61758" /><line
     class="arc2"
     id="link5_@2_12"
     x1="226.68442"
     y1="237.57523"
     x2="226.68442"
     y2="204.90262" /><line
     class="arc0"
     id="link5_@0_6"
     x1="226.68442"
     y1="237.57523"
     x2="90.366302"
     y2="237.57523" /><circle
     id="dart5"
     cx="226.68442"
     cy="237.57523"
     r="8"
     stroke="#000000"
     fill="#000000"
     style="stroke-width:0.8" /><line
     class="arc1"
     id="link6_@1_24"
     x1="90.366302"
     y1="237.57523"
     x2="61.324066"
     y2="266.61758" /><line
     class="arc2"
     id="link6_@2_8"
     x1="90.366302"
     y1="237.57523"
     x2="90.366302"
     y2="204.90262" /><circle
     id="dart6"
     cx="90.366302"
     cy="237.57523"
     r="8"
     stroke="#000000"
     fill="#000000"
     style="stroke-width:0.8" /><line
     class="arc1"
     id="link7_@1_22"
     x1="10.5"
     y1="317.44165"
     x2="39.542267"
     y2="288.39935" /><polygon
     points="748.742,190.28708 680.583,53.968933 622.4984,53.968933 554.33936,190.28708 583.3816,248.37155 719.6997,248.37155 "
     id="face_12_13_14_10_9_8"
     style="fill:#c0c0c0;stroke:none"
     opacity="1"
     transform="translate(-493.01529,-43.468933)" /><line
     class="arc1"
     id="link8_@1_9"
     x1="90.366302"
     y1="204.90262"
     x2="61.324066"
     y2="146.81815" /><line
     class="arc0"
     id="link8_@0_12"
     x1="90.366302"
     y1="204.90262"
     x2="226.68442"
     y2="204.90262" /><circle
     id="dart8"
     cx="90.366302"
     cy="204.90262"
     r="8"
     stroke="#000000"
     fill="#000000"
     style="stroke-width:0.8" /><line
     class="arc0"
     id="link9_@0_10"
     x1="61.324066"
     y1="146.81815"
     x2="129.48312"
     y2="10.5" /><circle
     id="dart9"
     cx="61.324066"
     cy="146.81815"
     r="8"
     stroke="#000000"
     fill="#000000"
     style="stroke-width:0.8" /><line
     class="arc1"
     id="link10_@1_14"
     x1="129.48312"
     y1="10.5"
     x2="187.56772"
     y2="10.5" /><circle
     id="dart10"
     cx="129.48312"
     cy="10.5"
     r="8"
     stroke="#000000"
     fill="#000000"
     style="stroke-width:0.8" /><line
     class="arc1"
     id="link11_@1_29"
     x1="209.3494"
     y1="414.64297"
     x2="209.3494"
     y2="356.55838" /><line
     class="arc2"
     id="link11_@2_17"
     x1="209.3494"
     y1="414.64297"
     x2="187.56772"
     y2="436.42474" /><line
     class="arc0"
     id="link11_@0_15"
     x1="209.3494"
     y1="414.64297"
     x2="277.50851"
     y2="482.80206" /><circle
     id="dart11"
     cx="209.3494"
     cy="414.64297"
     r="8"
     stroke="#000000"
     fill="#000000"
     style="stroke-width:0.8" /><line
     class="arc1"
     id="link12_@1_13"
     x1="226.68442"
     y1="204.90262"
     x2="255.72672"
     y2="146.81815" /><circle
     id="dart12"
     cx="226.68442"
     cy="204.90262"
     r="8"
     stroke="#000000"
     fill="#000000"
     style="stroke-width:0.8" /><line
     class="arc0"
     id="link13_@0_14"
     x1="255.72672"
     y1="146.81815"
     x2="187.56772"
     y2="10.5" /><circle
     id="dart13"
     cx="255.72672"
     cy="146.81815"
     r="8"
     stroke="#000000"
     fill="#000000"
     style="stroke-width:0.8" /><circle
     id="dart14"
     cx="187.56772"
     cy="10.5"
     r="8"
     stroke="#000000"
     fill="#000000"
     style="stroke-width:0.8" /><line
     class="arc2"
     id="link15_@2_16"
     x1="277.50851"
     y1="482.80206"
     x2="255.72672"
     y2="504.5838" /><circle
     id="dart15"
     cx="277.50851"
     cy="482.80206"
     r="8"
     stroke="#000000"
     fill="#000000"
     style="stroke-width:0.8" /><line
     class="arc0"
     id="link16_@0_17"
     x1="255.72672"
     y1="504.5838"
     x2="187.56772"
     y2="436.42474" /><circle
     id="dart16"
     cx="255.72672"
     cy="504.5838"
     r="8"
     stroke="#000000"
     fill="#000000"
     style="stroke-width:0.8" /><line
     class="arc1"
     id="link17_@1_19"
     x1="187.56772"
     y1="436.42474"
     x2="129.48312"
     y2="436.42474" /><circle
     id="dart17"
     cx="187.56772"
     cy="436.42474"
     r="8"
     stroke="#000000"
     fill="#000000"
     style="stroke-width:0.8" /><line
     class="arc2"
     id="link18_@2_20"
     x1="61.324066"
     y1="504.5838"
     x2="39.542267"
     y2="482.80206" /><line
     class="arc0"
     id="link18_@0_19"
     x1="61.324066"
     y1="504.5838"
     x2="129.48312"
     y2="436.42474" /><circle
     id="dart18"
     cx="61.324066"
     cy="504.5838"
     r="8"
     stroke="#000000"
     fill="#000000"
     style="stroke-width:0.8" /><line
     class="arc2"
     id="link19_@2_21"
     x1="129.48312"
     y1="436.42474"
     x2="107.70139"
     y2="414.64297" /><circle
     id="dart19"
     cx="129.48312"
     cy="436.42474"
     r="8"
     stroke="#000000"
     fill="#000000"
     style="stroke-width:0.8" /><line
     class="arc0"
     id="link20_@0_21"
     x1="39.542267"
     y1="482.80206"
     x2="107.70139"
     y2="414.64297" /><circle
     id="dart20"
     cx="39.542267"
     cy="482.80206"
     r="8"
     stroke="#000000"
     fill="#000000"
     style="stroke-width:0.8" /><line
     class="arc1"
     id="link21_@1_23"
     x1="107.70139"
     y1="414.64297"
     x2="107.70139"
     y2="356.55838" /><circle
     id="dart21"
     cx="107.70139"
     cy="414.64297"
     r="8"
     stroke="#000000"
     fill="#000000"
     style="stroke-width:0.8" /><line
     class="arc2"
     id="link22_@2_24"
     x1="39.542267"
     y1="288.39935"
     x2="61.324066"
     y2="266.61758" /><line
     class="arc0"
     id="link22_@0_23"
     x1="39.542267"
     y1="288.39935"
     x2="107.70139"
     y2="356.55838" /><circle
     id="dart22"
     cx="39.542267"
     cy="288.39935"
     r="8"
     stroke="#000000"
     fill="#000000"
     style="stroke-width:0.8" /><line
     class="arc2"
     id="link23_@2_25"
     x1="107.70139"
     y1="356.55838"
     x2="129.48312"
     y2="334.77667" /><circle
     id="dart23"
     cx="107.70139"
     cy="356.55838"
     r="8"
     stroke="#000000"
     fill="#000000"
     style="stroke-width:0.8" /><line
     class="arc0"
     id="link24_@0_25"
     x1="61.324066"
     y1="266.61758"
     x2="129.48312"
     y2="334.77667" /><circle
     id="dart24"
     cx="61.324066"
     cy="266.61758"
     r="8"
     stroke="#000000"
     fill="#000000"
     style="stroke-width:0.8" /><line
     class="arc1"
     id="link25_@1_27"
     x1="129.48312"
     y1="334.77667"
     x2="187.56772"
     y2="334.77667" /><circle
     id="dart25"
     cx="129.48312"
     cy="334.77667"
     r="8"
     stroke="#000000"
     fill="#000000"
     style="stroke-width:0.8" /><line
     class="arc2"
     id="link26_@2_28"
     x1="255.72672"
     y1="266.61758"
     x2="277.50851"
     y2="288.39935" /><line
     class="arc0"
     id="link26_@0_27"
     x1="255.72672"
     y1="266.61758"
     x2="187.56772"
     y2="334.77667" /><circle
     id="dart26"
     cx="255.72672"
     cy="266.61758"
     r="8"
     stroke="#000000"
     fill="#000000"
     style="stroke-width:0.8" /><line
     class="arc2"
     id="link27_@2_29"
     x1="187.56772"
     y1="334.77667"
     x2="209.3494"
     y2="356.55838" /><circle
     id="dart27"
     cx="187.56772"
     cy="334.77667"
     r="8"
     stroke="#000000"
     fill="#000000"
     style="stroke-width:0.8" /><line
     class="arc0"
     id="link28_@0_29"
     x1="277.50851"
     y1="288.39935"
     x2="209.3494"
     y2="356.55838" /><circle
     id="dart28"
     cx="277.50851"
     cy="288.39935"
     r="8"
     stroke="#000000"
     fill="#000000"
     style="stroke-width:0.8" /><circle
     id="dart29"
     cx="209.3494"
     cy="356.55838"
     r="8"
     stroke="#000000"
     fill="#000000"
     style="stroke-width:0.8" /></svg>
