<?xml version="1.0" encoding="UTF-8" standalone="no"?>
<!-- Created with Inkscape (http://www.inkscape.org/) -->

<svg
   width="146.7934mm"
   height="46.552261mm"
   viewBox="0 0 146.7934 46.552262"
   version="1.1"
   id="svg1"
   inkscape:version="1.3.2 (091e20ef0f, 2023-11-25, custom)"
   sodipodi:docname="sous-graphe-etiquete.svg"
   xmlns:inkscape="http://www.inkscape.org/namespaces/inkscape"
   xmlns:sodipodi="http://sodipodi.sourceforge.net/DTD/sodipodi-0.dtd"
   xmlns="http://www.w3.org/2000/svg"
   xmlns:svg="http://www.w3.org/2000/svg">
  <sodipodi:namedview
     id="namedview1"
     pagecolor="#ffffff"
     bordercolor="#666666"
     borderopacity="1.0"
     inkscape:showpageshadow="2"
     inkscape:pageopacity="0.0"
     inkscape:pagecheckerboard="0"
     inkscape:deskcolor="#d1d1d1"
     inkscape:document-units="mm"
     inkscape:zoom="1.3061856"
     inkscape:cx="341.45225"
     inkscape:cy="202.11523"
     inkscape:window-width="1892"
     inkscape:window-height="1032"
     inkscape:window-x="9"
     inkscape:window-y="29"
     inkscape:window-maximized="1"
     inkscape:current-layer="layer1" />
  <defs
     id="defs1">
    <marker
       style="overflow:visible"
       id="ArrowWide-6"
       refX="0"
       refY="0"
       orient="auto-start-reverse"
       inkscape:stockid="Wide arrow"
       markerWidth="0.75"
       markerHeight="1"
       viewBox="0 0 1 1"
       inkscape:isstock="true"
       inkscape:collect="always"
       preserveAspectRatio="xMidYMid">
      <path
         style="fill:none;stroke:context-stroke;stroke-width:1;stroke-linecap:butt"
         d="M 3,-3 0,0 3,3"
         transform="rotate(180,0.125,0)"
         sodipodi:nodetypes="ccc"
         id="path11-8" />
    </marker>
    <marker
       style="overflow:visible"
       id="marker13-2"
       refX="0"
       refY="0"
       orient="auto-start-reverse"
       inkscape:stockid="Wide arrow"
       markerWidth="0.75"
       markerHeight="1"
       viewBox="0 0 1 1"
       inkscape:isstock="true"
       inkscape:collect="always"
       preserveAspectRatio="xMidYMid">
      <path
         style="fill:none;stroke:context-stroke;stroke-width:1;stroke-linecap:butt"
         d="M 3,-3 0,0 3,3"
         transform="rotate(180,0.125,0)"
         sodipodi:nodetypes="ccc"
         id="path13-0" />
    </marker>
    <marker
       style="overflow:visible"
       id="marker13-2-3"
       refX="0"
       refY="0"
       orient="auto-start-reverse"
       inkscape:stockid="Wide arrow"
       markerWidth="0.75"
       markerHeight="1"
       viewBox="0 0 1 1"
       inkscape:isstock="true"
       inkscape:collect="always"
       preserveAspectRatio="xMidYMid">
      <path
         style="fill:none;stroke:context-stroke;stroke-width:1;stroke-linecap:butt"
         d="M 3,-3 0,0 3,3"
         transform="rotate(180,0.125,0)"
         sodipodi:nodetypes="ccc"
         id="path13-0-6" />
    </marker>
    <marker
       style="overflow:visible"
       id="ArrowWide-6-0"
       refX="0"
       refY="0"
       orient="auto-start-reverse"
       inkscape:stockid="Wide arrow"
       markerWidth="0.75"
       markerHeight="1"
       viewBox="0 0 1 1"
       inkscape:isstock="true"
       inkscape:collect="always"
       preserveAspectRatio="xMidYMid">
      <path
         style="fill:none;stroke:context-stroke;stroke-width:1;stroke-linecap:butt"
         d="M 3,-3 0,0 3,3"
         transform="rotate(180,0.125,0)"
         sodipodi:nodetypes="ccc"
         id="path11-8-6" />
    </marker>
  </defs>
  <g
     inkscape:label="Calque 1"
     inkscape:groupmode="layer"
     id="layer1"
     transform="translate(-98.074534,-98.699513)">
    <g
       id="g15"
       transform="translate(0.19037692)">
      <ellipse
         style="fill:none;fill-opacity:1;stroke:#ffdb00;stroke-width:0.705556;stroke-linecap:round;stroke-linejoin:round;stroke-dasharray:none;stroke-opacity:1"
         id="ellipse3-6"
         cx="147.34827"
         cy="122.04828"
         rx="4.397357"
         ry="4.4040761" />
      <text
         xml:space="preserve"
         style="font-style:normal;font-variant:normal;font-weight:normal;font-stretch:normal;font-size:4.93889px;font-family:'Fira Sans';-inkscape-font-specification:'Fira Sans, Normal';font-variant-ligatures:normal;font-variant-caps:normal;font-variant-numeric:normal;font-variant-east-asian:normal;fill:#000000;fill-opacity:1;stroke:none;stroke-width:1.161;stroke-linecap:round;stroke-linejoin:round;stroke-opacity:1"
         x="146.04193"
         y="123.34968"
         id="text13-2-2"><tspan
           sodipodi:role="line"
           id="tspan13-7-7"
           style="font-style:normal;font-variant:normal;font-weight:normal;font-stretch:normal;font-size:4.93889px;font-family:'Fira Sans';-inkscape-font-specification:'Fira Sans, Normal';font-variant-ligatures:normal;font-variant-caps:normal;font-variant-numeric:normal;font-variant-east-asian:normal;fill:#000000;fill-opacity:1;stroke:none;stroke-width:1.161"
           x="146.04193"
           y="123.34968">a</tspan></text>
    </g>
    <text
       xml:space="preserve"
       style="font-size:4.9389px;font-family:'Fira Sans';-inkscape-font-specification:'Fira Sans, Normal';fill:#000000;fill-opacity:1;stroke:none;stroke-width:3.52777;stroke-linecap:round;stroke-linejoin:round;stroke-opacity:1"
       x="240.08214"
       y="111.62524"
       id="text1-6-6"><tspan
         sodipodi:role="line"
         id="tspan1-8-1"
         style="fill:#000000;fill-opacity:1;stroke:none;stroke-width:3.52777"
         x="240.08214"
         y="111.62524">e2</tspan></text>
    <text
       xml:space="preserve"
       style="font-size:4.9389px;font-family:'Fira Sans';-inkscape-font-specification:'Fira Sans, Normal';fill:#000000;fill-opacity:1;stroke:none;stroke-width:3.52777;stroke-linecap:round;stroke-linejoin:round;stroke-opacity:1"
       x="232.86554"
       y="136.24443"
       id="text1-1-8"><tspan
         sodipodi:role="line"
         id="tspan1-4-7"
         style="fill:#000000;fill-opacity:1;stroke:none;stroke-width:3.52777"
         x="232.86554"
         y="136.24443">e3</tspan></text>
    <text
       xml:space="preserve"
       style="font-style:normal;font-variant:normal;font-weight:normal;font-stretch:normal;font-size:4.93889px;font-family:'Fira Sans';-inkscape-font-specification:'Fira Sans, Normal';font-variant-ligatures:normal;font-variant-caps:normal;font-variant-numeric:normal;font-variant-east-asian:normal;fill:#000000;fill-opacity:1;stroke:none;stroke-width:1.161;stroke-linecap:round;stroke-linejoin:round;stroke-opacity:1"
       x="220.40955"
       y="141.65106"
       id="text15-9-9"><tspan
         sodipodi:role="line"
         id="tspan15-1-2"
         style="font-style:normal;font-variant:normal;font-weight:normal;font-stretch:normal;font-size:4.93889px;font-family:'Fira Sans';-inkscape-font-specification:'Fira Sans, Normal';font-variant-ligatures:normal;font-variant-caps:normal;font-variant-numeric:normal;font-variant-east-asian:normal;fill:#000000;fill-opacity:1;stroke:none;stroke-width:1.161"
         x="220.40955"
         y="141.65106">c</tspan></text>
    <ellipse
       style="fill:none;fill-opacity:1;stroke:#14ff00;stroke-width:0.705556;stroke-linecap:round;stroke-linejoin:round;stroke-dasharray:none;stroke-opacity:1"
       id="path1-5-4-0"
       cx="221.6566"
       cy="140.34966"
       rx="4.397357"
       ry="4.4040761" />
    <path
       style="fill:none;fill-opacity:1;stroke:#ff8000;stroke-width:0.705556;stroke-linecap:round;stroke-linejoin:round;stroke-dasharray:none;stroke-opacity:1;marker-start:url(#marker13-2-3)"
       d="m 226.52503,140.34966 c 13.20628,-0.43991 -4.45149,-12.96443 7.30545,-14.9132"
       id="path9-7-2"
       sodipodi:nodetypes="cc" />
    <ellipse
       style="fill:none;fill-opacity:1;stroke:#a600c9;stroke-width:0.705556;stroke-linecap:round;stroke-linejoin:round;stroke-dasharray:none;stroke-opacity:1"
       id="path1-2-6-5-3"
       cx="238.22786"
       cy="125.43646"
       rx="4.397357"
       ry="4.4040761" />
    <path
       style="fill:none;fill-opacity:1;stroke:#00c000;stroke-width:0.705556;stroke-linecap:round;stroke-linejoin:round;stroke-dasharray:none;stroke-opacity:1;marker-end:url(#ArrowWide-6-0)"
       d="m 232.56558,105.96909 c 7.20956,4.40214 7.48741,8.81602 5.66225,14.68302"
       id="path5-4-7"
       sodipodi:nodetypes="cc" />
    <ellipse
       style="fill:none;fill-opacity:1;stroke:#ffdb00;stroke-width:0.705556;stroke-linecap:round;stroke-linejoin:round;stroke-dasharray:none;stroke-opacity:1"
       id="ellipse3-5"
       cx="228.67377"
       cy="103.45637"
       rx="4.397357"
       ry="4.4040761" />
    <text
       xml:space="preserve"
       style="font-style:normal;font-variant:normal;font-weight:normal;font-stretch:normal;font-size:4.93889px;font-family:'Fira Sans';-inkscape-font-specification:'Fira Sans, Normal';font-variant-ligatures:normal;font-variant-caps:normal;font-variant-numeric:normal;font-variant-east-asian:normal;fill:#000000;fill-opacity:1;stroke:none;stroke-width:1.161;stroke-linecap:round;stroke-linejoin:round;stroke-opacity:1"
       x="227.36745"
       y="104.75777"
       id="text13-2-9"><tspan
         sodipodi:role="line"
         id="tspan13-7-2"
         style="font-style:normal;font-variant:normal;font-weight:normal;font-stretch:normal;font-size:4.93889px;font-family:'Fira Sans';-inkscape-font-specification:'Fira Sans, Normal';font-variant-ligatures:normal;font-variant-caps:normal;font-variant-numeric:normal;font-variant-east-asian:normal;fill:#000000;fill-opacity:1;stroke:none;stroke-width:1.161"
         x="227.36745"
         y="104.75777">a</tspan></text>
    <text
       xml:space="preserve"
       style="font-style:normal;font-variant:normal;font-weight:normal;font-stretch:normal;font-size:4.93889px;font-family:'Fira Sans';-inkscape-font-specification:'Fira Sans, Normal';font-variant-ligatures:normal;font-variant-caps:normal;font-variant-numeric:normal;font-variant-east-asian:normal;fill:#000000;fill-opacity:1;stroke:none;stroke-width:1.161;stroke-linecap:round;stroke-linejoin:round;stroke-opacity:1"
       x="236.69435"
       y="127.25893"
       id="text14-2-2"><tspan
         sodipodi:role="line"
         id="tspan14-2-8"
         style="font-style:normal;font-variant:normal;font-weight:normal;font-stretch:normal;font-size:4.93889px;font-family:'Fira Sans';-inkscape-font-specification:'Fira Sans, Normal';font-variant-ligatures:normal;font-variant-caps:normal;font-variant-numeric:normal;font-variant-east-asian:normal;fill:#000000;fill-opacity:1;stroke:none;stroke-width:1.161"
         x="236.69435"
         y="127.25893">b</tspan></text>
    <g
       id="g16"
       transform="translate(0,2.842865)">
      <text
         xml:space="preserve"
         style="font-size:4.9389px;font-family:'Fira Sans';-inkscape-font-specification:'Fira Sans, Normal';fill:#000000;fill-opacity:1;stroke:none;stroke-width:3.52777;stroke-linecap:round;stroke-linejoin:round;stroke-opacity:1"
         x="101.07121"
         y="100.12306"
         id="text1"><tspan
           sodipodi:role="line"
           id="tspan1"
           style="fill:#000000;fill-opacity:1;stroke:none;stroke-width:3.52777"
           x="101.07121"
           y="100.12306">e1</tspan></text>
      <text
         xml:space="preserve"
         style="font-size:4.9389px;font-family:'Fira Sans';-inkscape-font-specification:'Fira Sans, Normal';fill:#000000;fill-opacity:1;stroke:none;stroke-width:3.52777;stroke-linecap:round;stroke-linejoin:round;stroke-opacity:1"
         x="128.45399"
         y="108.92765"
         id="text1-6"><tspan
           sodipodi:role="line"
           id="tspan1-8"
           style="fill:#000000;fill-opacity:1;stroke:none;stroke-width:3.52777"
           x="128.45399"
           y="108.92765">e2</tspan></text>
      <text
         xml:space="preserve"
         style="font-size:4.9389px;font-family:'Fira Sans';-inkscape-font-specification:'Fira Sans, Normal';fill:#000000;fill-opacity:1;stroke:none;stroke-width:3.52777;stroke-linecap:round;stroke-linejoin:round;stroke-opacity:1"
         x="121.2374"
         y="133.54683"
         id="text1-1"><tspan
           sodipodi:role="line"
           id="tspan1-4"
           style="fill:#000000;fill-opacity:1;stroke:none;stroke-width:3.52777"
           x="121.2374"
           y="133.54683">e3</tspan></text>
      <text
         xml:space="preserve"
         style="font-size:4.9389px;font-family:'Fira Sans';-inkscape-font-specification:'Fira Sans, Normal';fill:#000000;fill-opacity:1;stroke:none;stroke-width:3.52777;stroke-linecap:round;stroke-linejoin:round;stroke-opacity:1"
         x="98.945358"
         y="130.18182"
         id="text1-68"><tspan
           sodipodi:role="line"
           id="tspan1-9"
           style="fill:#000000;fill-opacity:1;stroke:none;stroke-width:3.52777"
           x="98.945358"
           y="130.18182">e4</tspan></text>
      <text
         xml:space="preserve"
         style="font-style:normal;font-variant:normal;font-weight:normal;font-stretch:normal;font-size:4.93889px;font-family:'Fira Sans';-inkscape-font-specification:'Fira Sans, Normal';font-variant-ligatures:normal;font-variant-caps:normal;font-variant-numeric:normal;font-variant-east-asian:normal;fill:#000000;fill-opacity:1;stroke:none;stroke-width:1.161;stroke-linecap:round;stroke-linejoin:round;stroke-opacity:1"
         x="108.78139"
         y="138.95346"
         id="text15-9"><tspan
           sodipodi:role="line"
           id="tspan15-1"
           style="font-style:normal;font-variant:normal;font-weight:normal;font-stretch:normal;font-size:4.93889px;font-family:'Fira Sans';-inkscape-font-specification:'Fira Sans, Normal';font-variant-ligatures:normal;font-variant-caps:normal;font-variant-numeric:normal;font-variant-east-asian:normal;fill:#000000;fill-opacity:1;stroke:none;stroke-width:1.161"
           x="108.78139"
           y="138.95346">c</tspan></text>
      <ellipse
         style="fill:none;fill-opacity:1;stroke:#14ff00;stroke-width:0.705556;stroke-linecap:round;stroke-linejoin:round;stroke-dasharray:none;stroke-opacity:1"
         id="path1-5-4"
         cx="110.02845"
         cy="137.65205"
         rx="4.397357"
         ry="4.4040761" />
      <path
         style="fill:none;fill-opacity:1;stroke:#00a4ff;stroke-width:0.705556;stroke-linecap:round;stroke-linejoin:round;stroke-dasharray:none;stroke-opacity:1;marker-end:url(#ArrowWide-6)"
         d="m 102.82462,118.6354 c 0.87826,7.22759 2.39801,11.25778 5.18146,14.62846"
         id="path6-8"
         sodipodi:nodetypes="cc" />
      <path
         style="fill:none;fill-opacity:1;stroke:#ff8000;stroke-width:0.705556;stroke-linecap:round;stroke-linejoin:round;stroke-dasharray:none;stroke-opacity:1;marker-start:url(#marker13-2)"
         d="m 114.89688,137.65206 c 13.20628,-0.43991 -4.45149,-12.96443 7.30545,-14.9132"
         id="path9-7"
         sodipodi:nodetypes="cc" />
      <ellipse
         style="fill:none;fill-opacity:1;stroke:#a600c9;stroke-width:0.705556;stroke-linecap:round;stroke-linejoin:round;stroke-dasharray:none;stroke-opacity:1"
         id="path1-2-6-5"
         cx="126.59972"
         cy="122.73887"
         rx="4.397357"
         ry="4.4040761" />
      <path
         style="fill:none;fill-opacity:1;stroke:#00c000;stroke-width:0.705556;stroke-linecap:round;stroke-linejoin:round;stroke-dasharray:none;stroke-opacity:1;marker-end:url(#ArrowWide-6)"
         d="m 120.93743,103.27149 c 7.20956,4.40214 7.48741,8.81602 5.66225,14.68302"
         id="path5-4"
         sodipodi:nodetypes="cc" />
      <ellipse
         style="fill:none;fill-opacity:1;stroke:#ffdb00;stroke-width:0.705556;stroke-linecap:round;stroke-linejoin:round;stroke-dasharray:none;stroke-opacity:1"
         id="ellipse3"
         cx="117.04562"
         cy="100.75877"
         rx="4.397357"
         ry="4.4040761" />
      <path
         style="fill:none;fill-opacity:1;stroke:#ff80ff;stroke-width:0.705556;stroke-linecap:round;stroke-linejoin:round;stroke-dasharray:none;stroke-opacity:1;marker-start:url(#marker13-2)"
         d="m 112.26851,100.75877 c -6.70923,-0.96538 -9.89951,1.75956 -9.44389,8.30792"
         id="path4-0"
         sodipodi:nodetypes="cc" />
      <ellipse
         style="fill:none;fill-opacity:1;stroke:#14ff00;stroke-width:0.705556;stroke-linecap:round;stroke-linejoin:round;stroke-dasharray:none;stroke-opacity:1"
         id="path1-0-9"
         cx="102.82467"
         cy="113.85105"
         rx="4.397357"
         ry="4.4040761" />
      <text
         xml:space="preserve"
         style="font-style:normal;font-variant:normal;font-weight:normal;font-stretch:normal;font-size:4.93889px;font-family:'Fira Sans';-inkscape-font-specification:'Fira Sans, Normal';font-variant-ligatures:normal;font-variant-caps:normal;font-variant-numeric:normal;font-variant-east-asian:normal;fill:#000000;fill-opacity:1;stroke:none;stroke-width:1.161;stroke-linecap:round;stroke-linejoin:round;stroke-opacity:1"
         x="115.73929"
         y="102.06017"
         id="text13-2"><tspan
           sodipodi:role="line"
           id="tspan13-7"
           style="font-style:normal;font-variant:normal;font-weight:normal;font-stretch:normal;font-size:4.93889px;font-family:'Fira Sans';-inkscape-font-specification:'Fira Sans, Normal';font-variant-ligatures:normal;font-variant-caps:normal;font-variant-numeric:normal;font-variant-east-asian:normal;fill:#000000;fill-opacity:1;stroke:none;stroke-width:1.161"
           x="115.73929"
           y="102.06017">a</tspan></text>
      <text
         xml:space="preserve"
         style="font-style:normal;font-variant:normal;font-weight:normal;font-stretch:normal;font-size:4.93889px;font-family:'Fira Sans';-inkscape-font-specification:'Fira Sans, Normal';font-variant-ligatures:normal;font-variant-caps:normal;font-variant-numeric:normal;font-variant-east-asian:normal;fill:#000000;fill-opacity:1;stroke:none;stroke-width:1.161;stroke-linecap:round;stroke-linejoin:round;stroke-opacity:1"
         x="125.0662"
         y="124.56133"
         id="text14-2"><tspan
           sodipodi:role="line"
           id="tspan14-2"
           style="font-style:normal;font-variant:normal;font-weight:normal;font-stretch:normal;font-size:4.93889px;font-family:'Fira Sans';-inkscape-font-specification:'Fira Sans, Normal';font-variant-ligatures:normal;font-variant-caps:normal;font-variant-numeric:normal;font-variant-east-asian:normal;fill:#000000;fill-opacity:1;stroke:none;stroke-width:1.161"
           x="125.0662"
           y="124.56133">b</tspan></text>
      <text
         xml:space="preserve"
         style="font-style:normal;font-variant:normal;font-weight:normal;font-stretch:normal;font-size:4.93889px;font-family:'Fira Sans';-inkscape-font-specification:'Fira Sans, Normal';font-variant-ligatures:normal;font-variant-caps:normal;font-variant-numeric:normal;font-variant-east-asian:normal;fill:#000000;fill-opacity:1;stroke:none;stroke-width:1.161;stroke-linecap:round;stroke-linejoin:round;stroke-opacity:1"
         x="101.45412"
         y="115.6735"
         id="text16-0"><tspan
           sodipodi:role="line"
           id="tspan16-6"
           style="font-style:normal;font-variant:normal;font-weight:normal;font-stretch:normal;font-size:4.93889px;font-family:'Fira Sans';-inkscape-font-specification:'Fira Sans, Normal';font-variant-ligatures:normal;font-variant-caps:normal;font-variant-numeric:normal;font-variant-east-asian:normal;fill:#000000;fill-opacity:1;stroke:none;stroke-width:1.161"
           x="101.45412"
           y="115.6735">d</tspan></text>
    </g>
    <g
       fill="#000000"
       fill-opacity="1"
       id="g5"
       transform="matrix(0.69486743,0,0,0.69486743,160.13093,117.2031)">
      <g
         id="use4"
         transform="translate(1.993,9.4650002)">
        <path
           d="m 2.828125,-6.15625 c 0,-0.390625 0.25,-1.03125 1.34375,-1.09375 C 4.21875,-7.265625 4.25,-7.3125 4.25,-7.359375 c 0,-0.125 -0.078125,-0.125 -0.1875,-0.125 -0.984375,0 -1.90625,0.515625 -1.90625,1.25 v 2.28125 c 0,0.390625 0,0.703125 -0.40625,1.03125 -0.34375,0.296875 -0.71875,0.3125 -0.9375,0.3125 C 0.75,-2.59375 0.71875,-2.546875 0.71875,-2.5 c 0,0.109375 0.0625,0.109375 0.15625,0.125 0.65625,0.03125 1.140625,0.390625 1.25,0.875 0.03125,0.109375 0.03125,0.140625 0.03125,0.5 v 1.96875 c 0,0.421875 0,0.734375 0.46875,1.109375 C 3.015625,2.375 3.671875,2.5 4.0625,2.5 4.171875,2.5 4.25,2.5 4.25,2.375 4.25,2.28125 4.203125,2.28125 4.09375,2.265625 3.46875,2.234375 2.984375,1.90625 2.84375,1.40625 2.828125,1.3125 2.828125,1.296875 2.828125,0.9375 v -2.09375 c 0,-0.453125 -0.09375,-0.625 -0.40625,-0.953125 C 2.21875,-2.3125 1.921875,-2.40625 1.640625,-2.5 c 0.828125,-0.21875 1.1875,-0.6875 1.1875,-1.265625 z m 0,0"
           id="path12" />
      </g>
    </g>
    <g
       id="use5"
       transform="matrix(0.69486743,0,0,0.69486743,166.82753,123.78002)"
       style="fill:#000000;fill-opacity:1;stroke:#00c000;stroke-opacity:1">
      <path
         d="m 9.953125,-2.546875 v -0.21875 H 0 v 0.21875 z m 0,0"
         id="path13"
         style="stroke:#00c000;stroke-opacity:1" />
    </g>
    <g
       id="use6"
       transform="matrix(0.69486743,0,0,0.69486743,175.50502,123.78002)"
       style="fill:#000000;fill-opacity:1">
      <path
         d="m 2.03125,-0.015625 c 0,-0.625 -0.25,-1.046875 -0.640625,-1.046875 -0.359375,0 -0.53125,0.28125 -0.53125,0.53125 0,0.265625 0.171875,0.53125 0.53125,0.53125 0.15625,0 0.28125,-0.0625 0.375,-0.140625 L 1.78125,-0.15625 c 0.015625,0 0.015625,0 0.015625,0.140625 0,0.640625 -0.265625,1.25 -0.703125,1.71875 -0.0625,0.0625 -0.078125,0.078125 -0.078125,0.109375 0,0.078125 0.046875,0.109375 0.09375,0.109375 0.125,0 0.921875,-0.78125 0.921875,-1.9375 z m 0,0"
         id="path14" />
    </g>
    <g
       id="use7"
       transform="matrix(0.69486743,0,0,0.69486743,179.27501,123.78002)"
       style="fill:#000000;fill-opacity:1;stroke:#ff8000;stroke-opacity:1">
      <path
         d="m 9.953125,-2.546875 v -0.21875 H 0 v 0.21875 z m 0,0"
         id="path15"
         style="stroke:#ff8000;stroke-opacity:1" />
    </g>
    <g
       fill="#000000"
       fill-opacity="1"
       id="g12"
       transform="matrix(0.69486743,0,0,0.69486743,149.74426,117.2031)">
      <g
         id="use12"
         transform="translate(55.126999,9.4650002)">
        <path
           d="m 2.15625,1.171875 c 0,0.390625 -0.265625,1.03125 -1.34375,1.09375 C 0.75,2.28125 0.71875,2.328125 0.71875,2.375 0.71875,2.5 0.828125,2.5 0.921875,2.5 1.890625,2.5 2.8125,2 2.828125,1.25 v -2.28125 c 0,-0.390625 0,-0.703125 0.390625,-1.03125 C 3.5625,-2.359375 3.953125,-2.375 4.171875,-2.375 4.21875,-2.390625 4.25,-2.4375 4.25,-2.5 4.25,-2.59375 4.203125,-2.59375 4.09375,-2.609375 3.4375,-2.640625 2.953125,-3 2.84375,-3.484375 2.828125,-3.59375 2.828125,-3.625 2.828125,-3.984375 v -1.96875 c 0,-0.421875 0,-0.734375 -0.484375,-1.109375 C 1.9375,-7.375 1.25,-7.484375 0.921875,-7.484375 c -0.09375,0 -0.203125,0 -0.203125,0.125 0,0.09375 0.0625,0.09375 0.15625,0.109375 0.625,0.03125 1.125,0.359375 1.25,0.859375 0.03125,0.09375 0.03125,0.109375 0.03125,0.46875 v 2.09375 c 0,0.453125 0.078125,0.625 0.390625,0.953125 0.21875,0.203125 0.5,0.296875 0.78125,0.375 -0.8125,0.234375 -1.171875,0.703125 -1.171875,1.28125 z m 0,0"
           id="path20" />
      </g>
    </g>
    <g
       inkscape:label=""
       transform="matrix(3.3598962,0,0,3.3598962,154.29989,119.2054)"
       id="g3">
      <g
         fill="#000000"
         fill-opacity="1"
         id="g2"
         transform="matrix(0.352778,0,0,0.352778,-1.22123,-1.02777)">
        <g
           id="use1"
           transform="translate(1.993,7.8039999)">
          <path
             d="M 3.875,-2.765625 1.890625,-4.75 C 1.765625,-4.875 1.75,-4.890625 1.671875,-4.890625 1.5625,-4.890625 1.46875,-4.8125 1.46875,-4.6875 c 0,0.0625 0.015625,0.078125 0.125,0.1875 l 2,2 -2,2.015625 c -0.109375,0.109375 -0.125,0.125 -0.125,0.1875 0,0.125 0.09375,0.203125 0.203125,0.203125 0.078125,0 0.09375,-0.015625 0.21875,-0.140625 L 3.875,-2.21875 l 2.0625,2.0625 c 0.015625,0.015625 0.078125,0.0625 0.140625,0.0625 0.125,0 0.203125,-0.078125 0.203125,-0.203125 0,-0.015625 0,-0.046875 -0.03125,-0.109375 C 6.234375,-0.421875 4.65625,-1.984375 4.15625,-2.5 l 1.828125,-1.8125 c 0.046875,-0.0625 0.203125,-0.1875 0.25,-0.25 0,-0.015625 0.046875,-0.0625 0.046875,-0.125 0,-0.125 -0.078125,-0.203125 -0.203125,-0.203125 C 6,-4.890625 5.96875,-4.859375 5.859375,-4.75 Z m 0,0"
             id="path2" />
        </g>
      </g>
    </g>
    <g
       inkscape:label=""
       transform="translate(138.89224,117.68265)"
       id="g7">
      <g
         fill="#000000"
         fill-opacity="1"
         id="g6"
         transform="matrix(0.352778,0,0,0.352778,-1.49132,-0.704673)">
        <g
           id="g4"
           transform="translate(1.993,20.559999)">
          <path
             d="m 7.578125,6.046875 c 0,-0.03125 0,-0.078125 -0.0625,-0.15625 -1.140625,-1.15625 -4.1875,-4.328125 -4.1875,-12.0625 0,-7.734375 2.984375,-10.875 4.203125,-12.109375 0,-0.03125 0.046875,-0.07813 0.046875,-0.15625 0,-0.07813 -0.0625,-0.125 -0.171875,-0.125 -0.265625,0 -2.375,1.828125 -3.59375,4.5625 -1.234375,2.75 -1.578125,5.421875 -1.578125,7.8125 0,1.78125 0.171875,4.796875 1.65625,8 1.1875,2.578125 3.21875,4.375 3.515625,4.375 0.125,0 0.171875,-0.046875 0.171875,-0.140625 z m 0,0"
             id="path3" />
        </g>
      </g>
    </g>
    <g
       inkscape:label=""
       transform="translate(193.01451,117.68265)"
       id="g10">
      <g
         fill="#000000"
         fill-opacity="1"
         id="g9"
         transform="matrix(0.352778,0,0,0.352778,-1.1165,-0.704673)">
        <g
           id="g8"
           transform="translate(1.993,20.559999)">
          <path
             d="m 6.515625,-6.171875 c 0,-1.78125 -0.171875,-4.8125 -1.65625,-8 C 3.671875,-16.75 1.640625,-18.5625 1.34375,-18.5625 c -0.078125,0 -0.171875,0.03125 -0.171875,0.15625 0,0.04687 0.015625,0.0625 0.046875,0.125 1.1875,1.234375 4.203125,4.375 4.203125,12.09375 0,7.71875 -3,10.875 -4.203125,12.109375 C 1.1875,5.96875 1.171875,6 1.171875,6.046875 c 0,0.125 0.09375,0.140625 0.171875,0.140625 0.265625,0 2.375,-1.828125 3.59375,-4.546875 1.234375,-2.75 1.578125,-5.4375 1.578125,-7.8125 z m 0,0"
             id="path7" />
        </g>
      </g>
    </g>
    <g
       inkscape:label=""
       transform="matrix(2.0061504,0,0,2.0061504,198.49827,117.36171)"
       id="g14">
      <g
         fill="#000000"
         fill-opacity="1"
         id="g13"
         transform="matrix(0.352778,0,0,0.352778,-1.18264,0.553949)">
        <g
           id="use2"
           transform="translate(1.993,11.086)">
          <path
             d="m 2.359375,-5.703125 c 0.140625,0 0.6875,0 0.6875,-0.484375 0,-0.5 -0.546875,-0.5 -0.6875,-0.5 v -3.25 c 0,-0.390625 0,-0.859375 -0.5,-0.859375 -0.5,0 -0.5,0.46875 -0.5,0.859375 v 7.484375 c 0,0.390625 0,0.859375 0.5,0.859375 0.5,0 0.5,-0.46875 0.5,-0.859375 z m 0,0"
             id="path11" />
        </g>
        <g
           id="use3"
           transform="translate(1.993,11.086)">
          <path
             d="m 20.671875,-5.703125 c -1.375,1.046875 -2.03125,2.0625 -2.234375,2.375 -1.109375,1.71875 -1.3125,3.28125 -1.3125,3.296875 0,0.296875 0.296875,0.296875 0.5,0.296875 0.421875,0 0.4375,-0.046875 0.546875,-0.484375 0.5625,-2.4375 2.03125,-4.515625 4.828125,-5.65625 0.296875,-0.09375 0.375,-0.140625 0.375,-0.3125 0,-0.1875 -0.15625,-0.25 -0.203125,-0.28125 -1.09375,-0.421875 -4.09375,-1.65625 -5.03125,-5.828125 -0.07813,-0.296875 -0.09375,-0.359375 -0.515625,-0.359375 -0.203125,0 -0.5,0 -0.5,0.296875 0,0.04687 0.21875,1.609375 1.265625,3.265625 0.5,0.75 1.21875,1.609375 2.28125,2.40625 H 2.25 c -0.4375,0 -0.890625,0 -0.890625,0.5 0,0.484375 0.453125,0.484375 0.890625,0.484375 z m 0,0"
             id="path4" />
        </g>
      </g>
    </g>
  </g>
</svg>
