<?xml version="1.0" standalone="no"?> 
<!DOCTYPE svg PUBLIC "-//W3C//DTD SVG 1.1//EN" 
"http://www.w3.org/Graphics/SVG/1.1/DTD/svg11.dtd"> 
<svg xmlns="http://www.w3.org/2000/svg" version="1.1" font="Noto Sans Regular" font-size="12" width="356" height="89" > 
<g>
<circle id="LGn1_0" cx="185" cy="35" r="33" fill="none" stroke="rgb(0,0,0)" stroke-width="1" stroke-linecap="square"  />
<text id="LGn1_1" x="163" y="37" fill="rgb(0,0,0)" >&lt;_, _, 3&gt;</text>
<rect id="LGn1_2" x="178" y="55" width="15" height="17" fill="rgb(255,255,255)" />
<text id="LGn1_3" x="179" y="72" fill="rgb(0,0,0)" >n1</text>
<circle id="LGn0_4" cx="35" cy="35" r="33" fill="none" stroke="rgb(0,0,0)" stroke-width="1" stroke-linecap="square"  />
<circle id="LGn0_5" cx="35" cy="35" r="35" fill="none" stroke="rgb(0,0,0)" stroke-width="1" stroke-linecap="square"  />
<text id="LGn0_6" x="11" y="37" fill="rgb(0,0,0)" >&lt;0, 2, 3&gt;</text>
<rect id="LGn0_7" x="28" y="55" width="15" height="17" fill="rgb(255,255,255)" />
<text id="LGn0_8" x="29" y="72" fill="rgb(0,0,0)" >n0</text>
<line id="LGn1_1_n0_9" x1="147" y1="35" x2="75" y2="35" stroke="rgb(200,0,0)" stroke-width="1" stroke-linecap="butt" stroke-dasharray="5" />
<text id="LGn1_1_n0_10" x="108" y="25" fill="rgb(200,0,0)" >1</text>
</g>
<g>
<polygon id="0" points="228,29 259,29 259,23 278,35 259,48 259,41 228,41 " stroke="rgb(0,0,0)" stroke-width="1" stroke-linecap="square"  fill="rgb(0,0,0)" />
</g>
<g>
<circle id="RGn1_0" cx="317" cy="35" r="34" fill="none" stroke="rgb(0,0,0)" stroke-width="1" stroke-linecap="square"  />
<text id="RGn1_1" x="294" y="29" fill="rgb(0,0,0)" >&lt;1, _, 3&gt;</text>
<text id="RGn1_2" x="307" y="46" fill="rgb(0,0,0)" >pos</text>
<rect id="RGn1_3" x="310" y="56" width="15" height="17" fill="rgb(255,255,255)" />
<text id="RGn1_4" x="311" y="73" fill="rgb(0,0,0)" >n1</text>
</g>
</svg>
