<?xml version="1.0" standalone="no"?> 
<!DOCTYPE svg PUBLIC "-//W3C//DTD SVG 1.1//EN" 
"http://www.w3.org/Graphics/SVG/1.1/DTD/svg11.dtd"> 
<svg xmlns="http://www.w3.org/2000/svg" version="1.1" font="Noto Sans Regular" font-size="12" width="678" height="134" > 
<g>
<circle id="LGn0_0" cx="35" cy="80" r="33" fill="none" stroke="rgb(0,0,0)" stroke-width="1" stroke-linecap="square"  />
<circle id="LGn0_1" cx="35" cy="80" r="35" fill="none" stroke="rgb(0,0,0)" stroke-width="1" stroke-linecap="square"  />
<text id="LGn0_2" x="11" y="82" fill="rgb(0,0,0)" >&lt;0, 1, 2&gt;</text>
<rect id="LGn0_3" x="28" y="100" width="15" height="17" fill="rgb(255,255,255)" />
<text id="LGn0_4" x="29" y="117" fill="rgb(0,0,0)" >n0</text>
<path id="LGn0_3_n0_5" d="M61 49 L 71 44 C 100 26, 64 0  , 57 34  L 55 45 " fill="none" stroke="rgb(0,200,0)" stroke-width="2" stroke-linecap="butt" stroke-dasharray="2"  />
<text id="LGn0_3_n0_6" x="80" y="16" fill="rgb(0,200,0)" >3</text>
</g>
<g>
<polygon id="0" points="110,74 141,74 141,68 160,80 141,93 141,86 110,86 " stroke="rgb(0,0,0)" stroke-width="1" stroke-linecap="square"  fill="rgb(0,0,0)" />
</g>
<g>
<circle id="RGn0_0" cx="198" cy="80" r="33" fill="none" stroke="rgb(0,0,0)" stroke-width="1" stroke-linecap="square"  />
<text id="RGn0_1" x="175" y="82" fill="rgb(0,0,0)" >&lt;_, 1, 2&gt;</text>
<rect id="RGn0_2" x="191" y="100" width="15" height="17" fill="rgb(255,255,255)" />
<text id="RGn0_3" x="192" y="117" fill="rgb(0,0,0)" >n0</text>
<circle id="RGn3_4" cx="588" cy="80" r="33" fill="none" stroke="rgb(0,0,0)" stroke-width="1" stroke-linecap="square"  />
<text id="RGn3_5" x="565" y="82" fill="rgb(0,0,0)" >&lt;2, 1, _&gt;</text>
<rect id="RGn3_6" x="581" y="100" width="15" height="17" fill="rgb(255,255,255)" />
<text id="RGn3_7" x="582" y="117" fill="rgb(0,0,0)" >n3</text>
<circle id="RGn2_8" cx="468" cy="80" r="33" fill="none" stroke="rgb(0,0,0)" stroke-width="1" stroke-linecap="square"  />
<text id="RGn2_9" x="446" y="82" fill="rgb(0,0,0)" >&lt;2, _, _&gt;</text>
<rect id="RGn2_10" x="461" y="100" width="15" height="17" fill="rgb(255,255,255)" />
<text id="RGn2_11" x="462" y="117" fill="rgb(0,0,0)" >n2</text>
<circle id="RGn1_12" cx="348" cy="80" r="33" fill="none" stroke="rgb(0,0,0)" stroke-width="1" stroke-linecap="square"  />
<text id="RGn1_13" x="326" y="82" fill="rgb(0,0,0)" >&lt;_, _, 2&gt;</text>
<rect id="RGn1_14" x="341" y="100" width="15" height="17" fill="rgb(255,255,255)" />
<text id="RGn1_15" x="342" y="117" fill="rgb(0,0,0)" >n1</text>
<line id="RGn2_0_n3_16" x1="506" y1="80" x2="550" y2="80" stroke="rgb(0,0,0)" stroke-width="2" stroke-linecap="square" />
<text id="RGn2_0_n3_17" x="525" y="100" fill="rgb(0,0,0)" >0</text>
<path id="RGn1_3_n1_18" d="M384 69 L 395 70 C 430 71, 414 31  , 389 54  L 382 63 " fill="none" stroke="rgb(0,200,0)" stroke-width="2" stroke-linecap="butt" stroke-dasharray="2"  />
<text id="RGn1_3_n1_19" x="421" y="55" fill="rgb(0,200,0)" >3</text>
<line id="RGn2_1_n1_20" x1="430" y1="80" x2="386" y2="80" stroke="rgb(200,0,0)" stroke-width="1" stroke-linecap="butt" stroke-dasharray="5" />
<text id="RGn2_1_n1_21" x="405" y="70" fill="rgb(200,0,0)" >1</text>
<path id="RGn0_3_n0_22" d="M233 67 L 244 68 C 279 66, 261 27  , 237 52  L 231 61 " fill="none" stroke="rgb(0,200,0)" stroke-width="2" stroke-linecap="butt" stroke-dasharray="2"  />
<text id="RGn0_3_n0_23" x="269" y="51" fill="rgb(0,200,0)" >3</text>
<path id="RGn3_3_n3_24" d="M625 76 L 636 80 C 670 87, 662 45  , 633 63  L 625 70 " fill="none" stroke="rgb(0,200,0)" stroke-width="2" stroke-linecap="butt" stroke-dasharray="2"  />
<text id="RGn3_3_n3_25" x="666" y="71" fill="rgb(0,200,0)" >3</text>
<path id="RGn2_3_n2_26" d="M505 72 L 516 74 C 550 78, 537 36  , 511 58  L 503 66 " fill="none" stroke="rgb(0,200,0)" stroke-width="2" stroke-linecap="butt" stroke-dasharray="2"  />
<text id="RGn2_3_n2_27" x="544" y="62" fill="rgb(0,200,0)" >3</text>
<line id="RGn0_0_n1_28" x1="236" y1="80" x2="310" y2="80" stroke="rgb(0,0,0)" stroke-width="2" stroke-linecap="square" />
<text id="RGn0_0_n1_29" x="270" y="100" fill="rgb(0,0,0)" >0</text>
</g>
</svg>
