<?xml version="1.0" standalone="no"?> 
<!DOCTYPE svg PUBLIC "-//W3C//DTD SVG 1.1//EN" 
"http://www.w3.org/Graphics/SVG/1.1/DTD/svg11.dtd"> 
<svg xmlns="http://www.w3.org/2000/svg" version="1.1" font="Noto Sans Regular" font-size="12" width="460" height="97" > 
<g>
<circle id="LGn0_0" cx="39" cy="39" r="37" fill="none" stroke="rgb(0,0,0)" stroke-width="1" stroke-linecap="square"  />
<circle id="LGn0_1" cx="39" cy="39" r="39" fill="none" stroke="rgb(0,0,0)" stroke-width="1" stroke-linecap="square"  />
<text id="LGn0_2" x="9" y="41" fill="rgb(0,0,0)" >&lt;0, 1, 2, 3&gt;</text>
<rect id="LGn0_3" x="32" y="63" width="15" height="17" fill="rgb(255,255,255)" />
<text id="LGn0_4" x="33" y="80" fill="rgb(0,0,0)" >n0</text>
</g>
<g>
<polygon id="0" points="88,33 119,33 119,27 138,39 119,52 119,45 88,45 " stroke="rgb(0,0,0)" stroke-width="1" stroke-linecap="square"  fill="rgb(0,0,0)" />
</g>
<g>
<circle id="RGn2_0" cx="419" cy="39" r="36" fill="none" stroke="rgb(0,0,0)" stroke-width="1" stroke-linecap="square"  />
<text id="RGn2_1" x="390" y="41" fill="rgb(0,0,0)" >&lt;1, 2, _, 3&gt;</text>
<rect id="RGn2_2" x="412" y="62" width="15" height="17" fill="rgb(255,255,255)" />
<text id="RGn2_3" x="413" y="79" fill="rgb(0,0,0)" >n2</text>
<circle id="RGn0_4" cx="179" cy="39" r="36" fill="none" stroke="rgb(0,0,0)" stroke-width="1" stroke-linecap="square"  />
<text id="RGn0_5" x="150" y="41" fill="rgb(0,0,0)" >&lt;0, _, 2, 3&gt;</text>
<rect id="RGn0_6" x="172" y="62" width="15" height="17" fill="rgb(255,255,255)" />
<text id="RGn0_7" x="173" y="79" fill="rgb(0,0,0)" >n0</text>
<circle id="RGn1_8" cx="299" cy="39" r="35" fill="none" stroke="rgb(0,0,0)" stroke-width="1" stroke-linecap="square"  />
<text id="RGn1_9" x="271" y="41" fill="rgb(0,0,0)" >&lt;_, 2, _, 3&gt;</text>
<rect id="RGn1_10" x="292" y="61" width="15" height="17" fill="rgb(255,255,255)" />
<text id="RGn1_11" x="293" y="78" fill="rgb(0,0,0)" >n1</text>
<line id="RGn0_1_n1_12" x1="220" y1="39" x2="259" y2="39" stroke="rgb(200,0,0)" stroke-width="1" stroke-linecap="butt" stroke-dasharray="5" />
<text id="RGn0_1_n1_13" x="236" y="59" fill="rgb(200,0,0)" >1</text>
<line id="RGn1_0_n2_14" x1="339" y1="39" x2="378" y2="39" stroke="rgb(0,0,0)" stroke-width="2" stroke-linecap="square" />
<text id="RGn1_0_n2_15" x="355" y="59" fill="rgb(0,0,0)" >0</text>
</g>
</svg>
