<?xml version="1.0" encoding="UTF-8" standalone="no"?>
<!-- Created with Jerboa -->

<svg
   width="435.24747"
   height="483.05627"
   version="1.1"
   id="svg1"
   sodipodi:docname="g-carte-insert-arete-cylindre-G.svg"
   inkscape:version="1.3.2 (091e20ef0f, 2023-11-25, custom)"
   xmlns:inkscape="http://www.inkscape.org/namespaces/inkscape"
   xmlns:sodipodi="http://sodipodi.sourceforge.net/DTD/sodipodi-0.dtd"
   xmlns="http://www.w3.org/2000/svg"
   xmlns:svg="http://www.w3.org/2000/svg">
  <defs
     id="defs1" />
  <sodipodi:namedview
     id="namedview1"
     pagecolor="#ffffff"
     bordercolor="#000000"
     borderopacity="0.25"
     inkscape:showpageshadow="2"
     inkscape:pageopacity="0.0"
     inkscape:pagecheckerboard="0"
     inkscape:deskcolor="#d1d1d1"
     showgrid="false"
     inkscape:zoom="1.1098478"
     inkscape:cx="235.61788"
     inkscape:cy="306.79881"
     inkscape:window-width="1892"
     inkscape:window-height="1034"
     inkscape:window-x="9"
     inkscape:window-y="27"
     inkscape:window-maximized="1"
     inkscape:current-layer="svg1" />
  <style
     id="style">
		.arc0 {
			fill:none;
			fill-rule:evenodd;
			stroke:black;
			stroke-width:4;
			stroke-linecap:round;
			stroke-linejoin:round;
			stroke-opacity:1;
		}
		.arc1 {
			fill:none;
			fill-rule:evenodd;
			stroke:red;
			stroke-width:4;
			stroke-linecap:round;
			stroke-linejoin:round;
			stroke-opacity:1;
		}
		.arc2 {
			fill:none;
			fill-rule:evenodd;
			stroke:blue;
			stroke-width:4;
			stroke-linecap:round;
			stroke-linejoin:round;
			stroke-opacity:1;
		}
		.arc3 {
			fill:none;
			fill-rule:evenodd;
			stroke:green;
			stroke-width:4;
			stroke-linecap:round;
			stroke-linejoin:round;
			stroke-opacity:1;
		}
		.topological-dart {
			fill:#000000;
			stroke:#000000;
			stroke-width:0;
			stroke-linecap:round;
			stroke-linejoin:round;
			stroke-dasharray:none;
			paint-order:markers fill stroke;
		}
	</style>
  <path
     style="fill:#c0c0c0;fill-opacity:1;stroke:#c0c0c0;stroke-width:4;stroke-linecap:round;stroke-linejoin:round;stroke-dasharray:none;stroke-dashoffset:0;stroke-opacity:1"
     d="m 2,54.831856 115.42532,-15.318291 114.77094,-2.11525 176.65576,9.946969 24.39545,9.951301 -0.0914,370.588395 -24.39533,-9.95129 -176.65588,-9.947 -114.77094,2.11518 -114.7216453,15.31708 z"
     id="path1" />
  <polygon
     points="435.2283,523.1299 549.9499,507.81284 664.7209,505.6976 841.3767,515.6446 865.77216,525.59595 751.0505,540.91296 636.27936,543.0282 459.62357,533.0812 "
     id="face_7_6_5_4_3_2_1_0"
     style="fill:#c0c0c0;stroke:none"
     opacity="1"
     transform="translate(-432.94131,-61.971924)" />
  <line
     class="arc1"
     id="link0_@1_1"
     x1="231.77957"
     y1="443.72568"
     x2="117.00858"
     y2="445.84091" />
  <line
     class="arc2"
     id="link0_@2_18"
     x1="231.77957"
     y1="443.72568"
     x2="232.10489"
     y2="407.98669" />
  <line
     class="arc0"
     id="link0_@0_7"
     x1="231.77957"
     y1="443.72568"
     x2="408.43539"
     y2="453.67267" />
  <line
     class="arc1"
     id="link18_@1_23"
     x1="232.10489"
     y1="407.98669"
     x2="117.33395"
     y2="410.10187" />
  <line
     class="arc0"
     id="link18_@0_13"
     x1="232.10489"
     y1="407.98669"
     x2="408.76077"
     y2="417.93369" />
  <line
     class="arc2"
     id="link1_@2_23"
     x1="117.00858"
     y1="445.84091"
     x2="117.33395"
     y2="410.10187" />
  <line
     class="arc0"
     id="link1_@0_2"
     x1="117.00858"
     y1="445.84091"
     x2="2.2869873"
     y2="461.15796" />
  <line
     class="arc0"
     id="link23_@0_28"
     x1="117.33395"
     y1="410.10187"
     x2="2.6123047"
     y2="425.41895" />
  <line
     class="arc1"
     id="link7_@1_6"
     x1="408.43539"
     y1="453.67267"
     x2="432.83084"
     y2="463.62402" />
  <line
     class="arc1"
     id="link7_@1_6-8"
     x1="408.76077"
     y1="417.93369"
     x2="433.15622"
     y2="427.88504"
     style="fill:none;fill-rule:evenodd;stroke:#ff0000;stroke-width:4;stroke-linecap:round;stroke-linejoin:round;stroke-opacity:1" />
  <line
     class="arc2"
     id="link7_@2_13"
     x1="408.43539"
     y1="453.67267"
     x2="408.76077"
     y2="417.93369" />
  <line
     class="arc1"
     id="link2_@1_3"
     x1="2.2869873"
     y1="461.15796"
     x2="26.682251"
     y2="471.10925" />
  <line
     class="arc2"
     id="link2_@2_28"
     x1="2.2869873"
     y1="461.15796"
     x2="2.6123657"
     y2="425.41898" />
  <path
     style="fill:#c0c0c0;fill-opacity:1;stroke:#c0c0c0;stroke-width:4;stroke-linecap:round;stroke-linejoin:round;stroke-dasharray:none;stroke-dashoffset:0;stroke-opacity:1"
     d="m 2,54.831856 25.098999,9.950073 176.655851,9.946907 114.771,-2.115128 114.72162,-15.317123 -0.0914,370.588365 -114.72162,15.31705 -114.771,2.11523 -176.655759,-9.94702 -24.3953553,-9.95123 z"
     id="path2" />
  <line
     class="arc1"
     id="link28_@1_33"
     x1="2.6123047"
     y1="425.41895"
     x2="27.00766"
     y2="435.37024" />
  <line
     class="arc2"
     id="link6_@2_8"
     x1="432.83084"
     y1="463.62402"
     x2="433.1561"
     y2="427.88498" />
  <line
     class="arc0"
     id="link6_@0_5"
     x1="432.83084"
     y1="463.62402"
     x2="318.10916"
     y2="478.94104" />
  <line
     class="arc0"
     id="link8_@0_43"
     x1="433.1561"
     y1="427.88495"
     x2="318.43448"
     y2="443.202" />
  <line
     class="arc2"
     id="link3_@2_33"
     x1="26.682251"
     y1="471.10925"
     x2="27.007721"
     y2="435.37021" />
  <line
     class="arc0"
     id="link3_@0_4"
     x1="26.682251"
     y1="471.10925"
     x2="203.33804"
     y2="481.05627" />
  <line
     class="arc0"
     id="link33_@0_38"
     x1="27.00766"
     y1="435.37024"
     x2="203.66348"
     y2="445.31723" />
  <line
     class="arc1"
     id="link5_@1_4"
     x1="318.10916"
     y1="478.94104"
     x2="203.33804"
     y2="481.05627" />
  <line
     class="arc2"
     id="link5_@2_43"
     x1="318.10916"
     y1="478.94104"
     x2="318.43448"
     y2="443.202" />
  <line
     class="arc1"
     id="link43_@1_38"
     x1="318.43448"
     y1="443.202"
     x2="203.66348"
     y2="445.31723" />
  <line
     class="arc2"
     id="link4_@2_38"
     x1="203.33804"
     y1="481.05627"
     x2="203.66348"
     y2="445.31723" />
  <line
     class="arc1"
     id="link21_@1_26"
     x1="232.19626"
     y1="37.3983"
     x2="117.42532"
     y2="39.513535" />
  <line
     class="arc2"
     id="link21_@2_22"
     x1="232.19626"
     y1="37.398315"
     x2="231.77963"
     y2="2" />
  <line
     class="arc0"
     id="link21_@0_16"
     x1="232.19626"
     y1="37.3983"
     x2="408.85214"
     y2="47.345253" />
  <line
     class="arc2"
     id="link16_@2_17"
     x1="408.85214"
     y1="47.345299"
     x2="408.43546"
     y2="11.94696" />
  <line
     class="arc2"
     id="link26_@2_27"
     x1="117.42532"
     y1="39.513565"
     x2="117.00864"
     y2="4.1151733" />
  <polygon
     points="751.0505,99.187225 636.27936,101.30246 459.62357,91.35541 435.2283,81.404175 549.9499,66.0871 664.7209,63.971924 841.3767,73.918884 865.77216,83.87018 "
     id="face_17_12_47_42_37_32_27_22"
     style="fill:#c0c0c0;stroke:none"
     opacity="1"
     transform="translate(-432.94126,-61.971924)" />
  <line
     class="arc1"
     id="link22_@1_27"
     x1="231.77963"
     y1="2"
     x2="117.00864"
     y2="4.1151733" />
  <line
     class="arc0"
     id="link22_@0_17"
     x1="231.77963"
     y1="2"
     x2="408.43546"
     y2="11.94696" />
  <line
     class="arc0"
     id="link26_@0_31"
     x1="117.42532"
     y1="39.513535"
     x2="2.7036743"
     y2="54.830544" />
  <line
     class="arc0"
     id="link27_@0_32"
     x1="117.00864"
     y1="4.1151733"
     x2="2.2870483"
     y2="19.432251" />
  <line
     class="arc1"
     id="link17_@1_12"
     x1="408.43546"
     y1="11.94696"
     x2="432.8309"
     y2="21.898254" />
  <line
     class="arc1"
     id="link17_@1_12-0"
     x1="408.85202"
     y1="47.345284"
     x2="433.24747"
     y2="57.296585"
     style="fill:none;fill-rule:evenodd;stroke:#ff0000;stroke-width:4;stroke-linecap:round;stroke-linejoin:round;stroke-opacity:1" />
  <line
     class="arc1"
     id="link31_@1_36"
     x1="2.7036743"
     y1="54.830544"
     x2="27.09903"
     y2="64.781876" />
  <line
     class="arc2"
     id="link31_@2_32"
     x1="2"
     y1="54.831856"
     x2="2.2870483"
     y2="19.432251" />
  <line
     class="arc1"
     id="link32_@1_37"
     x1="2.2870483"
     y1="19.432251"
     x2="26.682312"
     y2="29.383484" />
  <line
     class="arc2"
     id="link11_@2_12"
     x1="433.24747"
     y1="57.296585"
     x2="432.8309"
     y2="21.898254" />
  <line
     class="arc0"
     id="link11_@0_46"
     x1="433.24747"
     y1="57.296585"
     x2="318.52585"
     y2="72.613693" />
  <line
     class="arc0"
     id="link12_@0_47"
     x1="432.8309"
     y1="21.898254"
     x2="318.10922"
     y2="37.215302" />
  <line
     class="arc2"
     id="link36_@2_37"
     x1="27.098999"
     y1="64.781929"
     x2="26.682312"
     y2="29.383484" />
  <line
     class="arc0"
     id="link36_@0_41"
     x1="27.09903"
     y1="64.781876"
     x2="203.75485"
     y2="74.728836" />
  <line
     class="arc0"
     id="link37_@0_42"
     x1="26.682312"
     y1="29.383484"
     x2="203.3381"
     y2="39.330536" />
  <line
     class="arc1"
     id="link46_@1_41"
     x1="318.52585"
     y1="72.613693"
     x2="203.75485"
     y2="74.728836" />
  <line
     class="arc2"
     id="link46_@2_47"
     x1="318.52585"
     y1="72.613708"
     x2="318.10922"
     y2="37.215302" />
  <line
     class="arc1"
     id="link47_@1_42"
     x1="318.10922"
     y1="37.215302"
     x2="203.3381"
     y2="39.330536" />
  <line
     class="arc2"
     id="link41_@2_42"
     x1="203.75485"
     y1="74.728897"
     x2="203.3381"
     y2="39.330536" />
</svg>
