<?xml version="1.0" encoding="UTF-8" standalone="no"?>
<!-- Created with Jerboa -->

<svg
   width="313.32458"
   height="375.99969"
   version="1.1"
   id="svg1"
   sodipodi:docname="g-carte-insert-arete-cylindre-H.svg"
   inkscape:version="1.3.2 (091e20ef0f, 2023-11-25, custom)"
   xmlns:inkscape="http://www.inkscape.org/namespaces/inkscape"
   xmlns:sodipodi="http://sodipodi.sourceforge.net/DTD/sodipodi-0.dtd"
   xmlns="http://www.w3.org/2000/svg"
   xmlns:svg="http://www.w3.org/2000/svg">
  <defs
     id="defs1" />
  <sodipodi:namedview
     id="namedview1"
     pagecolor="#ffffff"
     bordercolor="#000000"
     borderopacity="0.25"
     inkscape:showpageshadow="2"
     inkscape:pageopacity="0.0"
     inkscape:pagecheckerboard="0"
     inkscape:deskcolor="#d1d1d1"
     showgrid="false"
     inkscape:zoom="2.2196957"
     inkscape:cx="168.26631"
     inkscape:cy="189.89089"
     inkscape:window-width="1892"
     inkscape:window-height="1034"
     inkscape:window-x="9"
     inkscape:window-y="27"
     inkscape:window-maximized="1"
     inkscape:current-layer="svg1" />
  <style
     id="style">
		.arc0 {
			fill:none;
			fill-rule:evenodd;
			stroke:black;
			stroke-width:4;
			stroke-linecap:round;
			stroke-linejoin:round;
			stroke-opacity:1;
		}
		.arc1 {
			fill:none;
			fill-rule:evenodd;
			stroke:red;
			stroke-width:4;
			stroke-linecap:round;
			stroke-linejoin:round;
			stroke-opacity:1;
		}
		.arc2 {
			fill:none;
			fill-rule:evenodd;
			stroke:blue;
			stroke-width:4;
			stroke-linecap:round;
			stroke-linejoin:round;
			stroke-opacity:1;
		}
		.arc3 {
			fill:none;
			fill-rule:evenodd;
			stroke:green;
			stroke-width:4;
			stroke-linecap:round;
			stroke-linejoin:round;
			stroke-opacity:1;
		}
		.topological-dart {
			fill:#000000;
			stroke:#000000;
			stroke-width:0;
			stroke-linecap:round;
			stroke-linejoin:round;
			stroke-dasharray:none;
			paint-order:markers fill stroke;
		}
	</style>
  <path
     style="fill:#c0c0c0;fill-opacity:1;stroke:#c0c0c0;stroke-width:4;stroke-linecap:round;stroke-linejoin:round;stroke-dasharray:4, 4;stroke-dashoffset:0;stroke-opacity:1"
     d="M 97.333923,29.356476 3.5236816,41.881531 V 335.83713 l 93.8102414,-12.52506 57.346187,-1.05688 144.45514,8.13388 12.18933,4.9722 V 41.405701 L 299.13525,36.433472 154.68011,28.299561 Z"
     id="path2" />
  <polygon
     points="804.40027,475.91794 710.59,488.44302 653.2438,489.49988 508.78867,481.36603 496.59937,476.3938 590.40955,463.8687 647.7558,462.81183 792.21094,470.9457 "
     id="face_7_6_5_4_3_2_1_0"
     style="fill:#c0c0c0;stroke:none"
     opacity="1"
     transform="translate(-494.59937,-115.50018)" />
  <line
     class="arc1"
     id="link0_@1_1"
     x1="153.15643"
     y1="347.31165"
     x2="95.810181"
     y2="348.36853" />
  <line
     class="arc2"
     id="link0_@2_33"
     x1="153.15643"
     y1="347.31165"
     x2="154.68011"
     y2="322.25519" />
  <line
     class="arc0"
     id="link0_@0_7"
     x1="153.15643"
     y1="347.31165"
     x2="297.61157"
     y2="355.44553" />
  <line
     class="arc1"
     id="link33_@1_28"
     x1="154.68011"
     y1="322.25519"
     x2="97.333923"
     y2="323.31207" />
  <line
     class="arc0"
     id="link33_@0_38"
     x1="154.68011"
     y1="322.25519"
     x2="299.13525"
     y2="330.38907" />
  <line
     class="arc2"
     id="link1_@2_28"
     x1="95.810181"
     y1="348.36853"
     x2="97.333923"
     y2="323.31207" />
  <line
     class="arc0"
     id="link1_@0_2"
     x1="95.810181"
     y1="348.36853"
     x2="2"
     y2="360.89362" />
  <line
     class="arc0"
     id="link28_@0_23"
     x1="97.333923"
     y1="323.31207"
     x2="3.5236816"
     y2="335.83713" />
  <line
     class="arc2"
     id="link37_@2_36"
     x1="153.15643"
     y1="2"
     x2="154.68011"
     y2="28.299561" />
  <line
     class="arc2"
     id="link32_@2_31"
     x1="95.810181"
     y1="3.0569153"
     x2="97.333923"
     y2="29.356476" />
  <line
     class="arc2"
     id="link42_@2_41"
     x1="297.61157"
     y1="10.133881"
     x2="299.13525"
     y2="36.433472" />
  <polygon
     points="804.40027,130.60635 710.59,143.13141 653.2438,144.18826 508.78867,136.05438 496.59937,131.08215 590.40955,118.5571 647.7558,117.50018 792.21094,125.63406 "
     id="face_42_47_12_17_22_27_32_37"
     style="fill:#c0c0c0;stroke:none"
     opacity="1"
     transform="translate(-494.59937,-115.50018)" />
  <line
     class="arc1"
     id="link37_@1_32"
     x1="153.15643"
     y1="2"
     x2="95.810181"
     y2="3.0569153" />
  <line
     class="arc0"
     id="link37_@0_42"
     x1="153.15643"
     y1="2"
     x2="297.61157"
     y2="10.133881" />
  <line
     class="arc1"
     id="link36_@1_31"
     x1="154.68011"
     y1="28.299561"
     x2="97.333923"
     y2="29.356476" />
  <line
     class="arc0"
     id="link36_@0_41"
     x1="154.68011"
     y1="28.299561"
     x2="299.13525"
     y2="36.433472" />
  <line
     class="arc0"
     id="link32_@0_27"
     x1="95.810181"
     y1="3.0569153"
     x2="2"
     y2="15.58197" />
  <line
     class="arc0"
     id="link31_@0_26"
     x1="97.333923"
     y1="29.356476"
     x2="3.5236816"
     y2="41.881531" />
  <line
     class="arc1"
     id="link7_@1_6"
     x1="297.61157"
     y1="355.44553"
     x2="309.8009"
     y2="360.41776" />
  <line
     class="arc2"
     id="link7_@2_38"
     x1="297.61157"
     y1="355.44553"
     x2="299.13525"
     y2="330.38907" />
  <line
     class="arc1"
     id="link38_@1_43"
     x1="299.13525"
     y1="330.38907"
     x2="311.32458"
     y2="335.36127" />
  <line
     class="arc1"
     id="link42_@1_47"
     x1="297.61157"
     y1="10.133881"
     x2="309.8009"
     y2="15.106171" />
  <line
     class="arc1"
     id="link41_@1_46"
     x1="299.13525"
     y1="36.433472"
     x2="311.32458"
     y2="41.405701" />
  <line
     class="arc2"
     id="link6_@2_43"
     x1="309.8009"
     y1="360.41776"
     x2="311.32458"
     y2="335.36127" />
  <line
     class="arc0"
     id="link6_@0_5"
     x1="309.8009"
     y1="360.41776"
     x2="215.99066"
     y2="372.94284" />
  <line
     class="arc1"
     id="link2_@1_3"
     x1="2"
     y1="360.89362"
     x2="14.189301"
     y2="365.86584" />
  <line
     class="arc2"
     id="link2_@2_23"
     x1="2"
     y1="360.89362"
     x2="3.5236816"
     y2="335.83713" />
  <path
     style="fill:#c0c0c0;fill-opacity:1;stroke:#c0c0c0;stroke-width:4;stroke-linecap:round;stroke-linejoin:round;stroke-dasharray:4, 4;stroke-dashoffset:0;stroke-opacity:1"
     d="m 311.32458,41.405701 -76.42633,34.046173 -22.57849,44.099366 v 170.70132 l 22.57849,38.07025 76.42633,7.03846 z"
     id="path3" />
  <line
     class="arc0"
     id="link43_@0_8"
     x1="311.32458"
     y1="335.36127"
     x2="234.89825"
     y2="328.32281" />
  <path
     style="fill:#c0c0c0;fill-opacity:1;stroke:#c0c0c0;stroke-width:4;stroke-linecap:round;stroke-linejoin:round;stroke-dasharray:none;stroke-dashoffset:0;stroke-opacity:1"
     d="M 183.64661,120.07965 148.87891,77.037233 15.713006,46.853762 3.5236764,41.881533 V 335.83713 l 12.1893296,4.97226 133.165904,-10.90125 34.7677,-39.1271 z"
     id="path1" />
  <line
     class="arc1"
     id="link23_@1_18"
     x1="3.5236816"
     y1="335.83713"
     x2="15.713013"
     y2="340.80939" />
  <line
     class="arc2"
     id="link47_@2_46"
     x1="309.8009"
     y1="15.106171"
     x2="311.32458"
     y2="41.405701" />
  <line
     class="arc0"
     id="link47_@0_12"
     x1="309.8009"
     y1="15.106171"
     x2="215.99066"
     y2="27.631226" />
  <line
     class="arc1"
     id="link27_@1_22"
     x1="2"
     y1="15.58197"
     x2="14.189301"
     y2="20.554199" />
  <line
     class="arc2"
     id="link27_@2_26"
     x1="2"
     y1="15.58197"
     x2="3.5236816"
     y2="41.881531" />
  <line
     class="arc0"
     id="link46_@0_11"
     x1="311.32458"
     y1="41.405701"
     x2="234.89825"
     y2="75.451874" />
  <line
     class="arc1"
     id="link26_@1_21"
     x1="3.5236816"
     y1="41.881531"
     x2="15.713013"
     y2="46.85376" />
  <line
     class="arc2"
     id="link3_@2_18"
     x1="14.189301"
     y1="365.86584"
     x2="15.713013"
     y2="340.80939" />
  <line
     class="arc0"
     id="link3_@0_4"
     x1="14.189301"
     y1="365.86584"
     x2="158.64441"
     y2="373.99969" />
  <line
     class="arc0"
     id="link18_@0_13"
     x1="15.713013"
     y1="340.80939"
     x2="148.87891"
     y2="329.90814" />
  <line
     class="arc2"
     id="link22_@2_21"
     x1="14.189301"
     y1="20.554199"
     x2="15.713013"
     y2="46.85376" />
  <line
     class="arc0"
     id="link22_@0_17"
     x1="14.189301"
     y1="20.554199"
     x2="158.64441"
     y2="28.68808" />
  <line
     class="arc0"
     id="link21_@0_16"
     x1="15.713013"
     y1="46.85376"
     x2="148.87891"
     y2="77.037231" />
  <line
     class="arc1"
     id="link5_@1_4"
     x1="215.99066"
     y1="372.94284"
     x2="158.64441"
     y2="373.99969" />
  <line
     class="arc2"
     id="link5_@2_8"
     x1="215.99066"
     y1="372.94284"
     x2="234.89825"
     y2="328.32281" />
  <line
     class="arc2"
     id="link4_@2_13"
     x1="158.64441"
     y1="373.99969"
     x2="148.87891"
     y2="329.90814" />
  <line
     class="arc1"
     id="link8_@1_9"
     x1="234.89825"
     y1="328.32281"
     x2="212.31976"
     y2="290.25256" />
  <line
     class="arc1"
     id="link12_@1_17"
     x1="215.99066"
     y1="27.631226"
     x2="158.64441"
     y2="28.68808" />
  <line
     class="arc2"
     id="link12_@2_11"
     x1="215.99066"
     y1="27.631226"
     x2="234.89825"
     y2="75.451874" />
  <line
     class="arc1"
     id="link13_@1_14"
     x1="148.87891"
     y1="329.90814"
     x2="183.64661"
     y2="290.78104" />
  <line
     class="arc2"
     id="link17_@2_16"
     x1="158.64441"
     y1="28.68808"
     x2="148.87891"
     y2="77.037231" />
  <line
     class="arc1"
     id="link11_@1_10"
     x1="234.89825"
     y1="75.451874"
     x2="212.31976"
     y2="119.55124" />
  <line
     class="arc2"
     id="link9_@2_14"
     x1="212.31976"
     y1="290.25256"
     x2="183.64661"
     y2="290.78104" />
  <line
     class="arc0"
     id="link9_@0_10"
     x1="212.31976"
     y1="290.25256"
     x2="212.31976"
     y2="119.55124" />
  <line
     class="arc1"
     id="link16_@1_15"
     x1="148.87891"
     y1="77.037231"
     x2="183.64661"
     y2="120.07965" />
  <line
     class="arc0"
     id="link14_@0_15"
     x1="183.64661"
     y1="290.78104"
     x2="183.64661"
     y2="120.07965" />
  <line
     class="arc2"
     id="link10_@2_15"
     x1="212.31976"
     y1="119.55124"
     x2="183.64661"
     y2="120.07965" />
</svg>
