<?xml version="1.0" encoding="UTF-8" standalone="no"?>
<!-- Created with Jerboa -->

<svg
   width="1108.8248"
   height="555.87665"
   version="1.1"
   id="svg1"
   sodipodi:docname="g-carte-decousure-3-H.svg"
   inkscape:version="1.3.2 (091e20ef0f, 2023-11-25, custom)"
   xmlns:inkscape="http://www.inkscape.org/namespaces/inkscape"
   xmlns:sodipodi="http://sodipodi.sourceforge.net/DTD/sodipodi-0.dtd"
   xmlns="http://www.w3.org/2000/svg"
   xmlns:svg="http://www.w3.org/2000/svg">
  <defs
     id="defs1" />
  <sodipodi:namedview
     id="namedview1"
     pagecolor="#ffffff"
     bordercolor="#000000"
     borderopacity="0.25"
     inkscape:showpageshadow="2"
     inkscape:pageopacity="0.0"
     inkscape:pagecheckerboard="0"
     inkscape:deskcolor="#d1d1d1"
     showgrid="false"
     inkscape:zoom="0.95762712"
     inkscape:cx="484.00885"
     inkscape:cy="218.76991"
     inkscape:window-width="1892"
     inkscape:window-height="1034"
     inkscape:window-x="9"
     inkscape:window-y="27"
     inkscape:window-maximized="1"
     inkscape:current-layer="svg1" />
  <style
     id="style">
		.arc0 {
			fill:none;
			fill-rule:evenodd;
			stroke:black;
			stroke-width:4;
			stroke-linecap:round;
			stroke-linejoin:round;
			stroke-opacity:1;
		}
		.arc1 {
			fill:none;
			fill-rule:evenodd;
			stroke:red;
			stroke-width:4;
			stroke-linecap:round;
			stroke-linejoin:round;
			stroke-opacity:1;
		}
		.arc2 {
			fill:none;
			fill-rule:evenodd;
			stroke:blue;
			stroke-width:4;
			stroke-linecap:round;
			stroke-linejoin:round;
			stroke-opacity:1;
		}
		.arc3 {
			fill:none;
			fill-rule:evenodd;
			stroke:green;
			stroke-width:4;
			stroke-linecap:round;
			stroke-linejoin:round;
			stroke-opacity:1;
		}
		.topological-dart {
			fill:#000000;
			stroke:#000000;
			stroke-width:0;
			stroke-linecap:round;
			stroke-linejoin:round;
			stroke-dasharray:none;
			paint-order:markers fill stroke;
		}
	</style>
  <polygon
     points="453.01508,64.10626 635.4612,74.43268 715.1465,173.59506 715.1465,390.30933 635.4612,480.45135 453.01508,470.125 373.32983,370.96262 373.32983,154.24841 "
     id="face_28_29_30_31_26_25_24_23"
     style="fill:#c0c0c0;stroke:none"
     opacity="1"
     transform="translate(-94.587532,-25.561768)" />
  <line
     class="arc1"
     id="link23_@1_24"
     x1="278.74231"
     y1="345.40085"
     x2="358.42755"
     y2="444.56323"
     style="stroke:#888888;stroke-opacity:1" />
  <line
     class="arc2"
     id="link23_@2_1"
     x1="278.74231"
     y1="345.40085"
     x2="223.97833"
     y2="346.41537"
     style="stroke:#888888;stroke-opacity:1" />
  <line
     class="arc0"
     id="link23_@0_28"
     x1="278.74231"
     y1="345.40085"
     x2="278.74231"
     y2="128.68665"
     style="stroke:#888888;stroke-opacity:1" />
  <polygon
     points="266.81766,67.555664 148.33577,83.45691 96.58753,185.0542 96.58753,401.76843 148.33577,489.47562 266.81766,473.5744 318.56586,371.97714 318.56586,155.26294 "
     id="face_2_3_4_5_6_7_0_1"
     style="fill:#c0c0c0;stroke:none"
     opacity="1"
     transform="translate(-94.587532,-25.561768)" />
  <line
     class="arc1"
     id="link1_@1_0"
     x1="223.97833"
     y1="346.41537"
     x2="172.23013"
     y2="448.01263"
     style="stroke:#888888;stroke-opacity:1" />
  <line
     class="arc0"
     id="link1_@0_2"
     x1="223.97833"
     y1="346.41537"
     x2="223.97833"
     y2="129.70117"
     style="stroke:#888888;stroke-opacity:1" />
  <line
     class="arc1"
     id="link28_@1_29"
     x1="278.74231"
     y1="128.68665"
     x2="358.42755"
     y2="38.544495"
     style="stroke:#888888;stroke-opacity:1" />
  <line
     class="arc2"
     id="link28_@2_2"
     x1="278.74231"
     y1="128.68665"
     x2="223.97833"
     y2="129.70117"
     style="stroke:#888888;stroke-opacity:1" />
  <line
     class="arc1"
     id="link2_@1_3"
     x1="223.97833"
     y1="129.70117"
     x2="172.23013"
     y2="41.993896"
     style="stroke:#888888;stroke-opacity:1" />
  <line
     class="arc2"
     id="link24_@2_19"
     x1="358.42755"
     y1="444.56323"
     x2="336.86578"
     y2="486.89539"
     style="stroke:#888888;stroke-opacity:1" />
  <line
     class="arc0"
     id="link24_@0_25"
     x1="358.42755"
     y1="444.56323"
     x2="540.87366"
     y2="454.88959"
     style="stroke:#888888;stroke-opacity:1" />
  <polygon
     points="641.83655,534.2388 523.3547,550.13995 391.92114,552.5748 209.47502,542.2485 181.53798,530.7933 300.01987,514.8921 431.4533,512.45715 613.8994,522.78357 "
     id="face_20_21_16_15_14_13_18_19"
     style="fill:#c0c0c0;stroke:none"
     opacity="1"
     transform="translate(-94.587532,-25.561768)" />
  <line
     class="arc1"
     id="link19_@1_18"
     x1="336.86578"
     y1="486.89539"
     x2="205.43234"
     y2="489.33032"
     style="stroke:#888888;stroke-opacity:1" />
  <line
     class="arc0"
     id="link19_@0_20"
     x1="336.86578"
     y1="486.89539"
     x2="519.31189"
     y2="497.2218"
     style="stroke:#888888;stroke-opacity:1" />
  <line
     class="arc2"
     id="link29_@2_34"
     x1="358.42755"
     y1="38.544495"
     x2="336.86578"
     y2="2"
     style="stroke:#888888;stroke-opacity:1" />
  <line
     class="arc0"
     id="link29_@0_30"
     x1="358.42755"
     y1="38.544495"
     x2="540.87366"
     y2="48.870911"
     style="stroke:#888888;stroke-opacity:1" />
  <line
     class="arc2"
     id="link0_@2_18"
     x1="172.23013"
     y1="448.01263"
     x2="205.43234"
     y2="489.33032"
     style="stroke:#888888;stroke-opacity:1" />
  <line
     class="arc0"
     id="link0_@0_7"
     x1="172.23013"
     y1="448.01263"
     x2="53.748238"
     y2="463.91385"
     style="stroke:#888888;stroke-opacity:1" />
  <line
     class="arc0"
     id="link18_@0_13"
     x1="205.43234"
     y1="489.33032"
     x2="86.950447"
     y2="505.23151"
     style="stroke:#888888;stroke-opacity:1" />
  <line
     class="arc2"
     id="link3_@2_33"
     x1="172.23013"
     y1="41.993896"
     x2="205.43234"
     y2="4.4348145"
     style="stroke:#888888;stroke-opacity:1" />
  <line
     class="arc2"
     id="link30_@2_35"
     x1="540.87366"
     y1="48.870911"
     x2="519.31189"
     y2="12.326355"
     style="stroke:#888888;stroke-opacity:1" />
  <polygon
     points="641.83655,49.34326 523.3547,65.24451 391.92114,67.67938 209.47502,57.353027 181.53798,45.897827 300.01987,29.996582 431.4533,27.561768 613.8994,37.888123 "
     id="face_35_36_41_40_39_38_33_34"
     style="fill:#c0c0c0;stroke:none"
     opacity="1"
     transform="translate(-94.587532,-25.561768)" />
  <line
     class="arc1"
     id="link34_@1_33"
     x1="336.86578"
     y1="2"
     x2="205.43234"
     y2="4.4348145"
     style="stroke:#888888;stroke-opacity:1" />
  <line
     class="arc0"
     id="link34_@0_35"
     x1="336.86578"
     y1="2"
     x2="519.31189"
     y2="12.326355"
     style="stroke:#888888;stroke-opacity:1" />
  <line
     class="arc0"
     id="link3_@0_4"
     x1="172.23013"
     y1="41.993896"
     x2="53.748238"
     y2="57.895142"
     style="stroke:#888888;stroke-opacity:1" />
  <line
     class="arc0"
     id="link33_@0_38"
     x1="205.43234"
     y1="4.4348145"
     x2="86.950447"
     y2="20.33606"
     style="stroke:#888888;stroke-opacity:1" />
  <line
     class="arc1"
     id="link25_@1_26"
     x1="540.87366"
     y1="454.88959"
     x2="620.55896"
     y2="364.74756"
     style="stroke:#888888;stroke-opacity:1" />
  <line
     class="arc2"
     id="link25_@2_20"
     x1="540.87366"
     y1="454.88959"
     x2="519.31189"
     y2="497.2218"
     style="stroke:#888888;stroke-opacity:1" />
  <line
     class="arc1"
     id="link20_@1_21"
     x1="519.31189"
     y1="497.2218"
     x2="547.24902"
     y2="508.677"
     style="stroke:#888888;stroke-opacity:1" />
  <line
     class="arc1"
     id="link30_@1_31"
     x1="540.87366"
     y1="48.870911"
     x2="620.55896"
     y2="148.03329"
     style="stroke:#888888;stroke-opacity:1" />
  <line
     class="arc2"
     id="link26_@2_27"
     x1="620.55896"
     y1="364.74756"
     x2="632.19934"
     y2="369.52054"
     style="stroke:#888888;stroke-opacity:1" />
  <line
     class="arc0"
     id="link26_@0_31"
     x1="620.55896"
     y1="364.74756"
     x2="620.55896"
     y2="148.03329"
     style="stroke:#888888;stroke-opacity:1" />
  <line
     class="arc1"
     id="link35_@1_36"
     x1="519.31189"
     y1="12.326355"
     x2="547.24902"
     y2="23.781494"
     style="stroke:#888888;stroke-opacity:1" />
  <line
     class="arc2"
     id="link31_@2_32"
     x1="620.55896"
     y1="148.03329"
     x2="632.19934"
     y2="152.8063"
     style="stroke:#888888;stroke-opacity:1" />
  <line
     class="arc1"
     id="link7_@1_6"
     x1="53.748238"
     y1="463.91385"
     x2="2"
     y2="376.20667"
     style="stroke:#888888;stroke-opacity:1" />
  <line
     class="arc2"
     id="link7_@2_13"
     x1="53.748238"
     y1="463.91385"
     x2="86.950447"
     y2="505.23151"
     style="stroke:#888888;stroke-opacity:1" />
  <polygon
     points="675.03864,90.66083 556.55676,106.56207 504.80853,208.15936 504.80853,424.8736 556.55676,512.58075 675.03864,496.6795 726.78687,395.0823 726.78687,178.36807 "
     id="face_32_37_42_47_12_17_22_27"
     style="fill:#c0c0c0;stroke:none"
     opacity="1"
     transform="translate(-94.587532,-25.561768)" />
  <line
     class="arc1"
     id="link27_@1_22"
     x1="632.19934"
     y1="369.52054"
     x2="580.45111"
     y2="471.11774"
     style="stroke:#ff0000;stroke-opacity:1" />
  <line
     class="arc0"
     id="link27_@0_32"
     x1="632.19934"
     y1="369.52054"
     x2="632.19934"
     y2="152.8063"
     style="stroke:#000000;stroke-opacity:1" />
  <line
     class="arc1"
     id="link13_@1_14"
     x1="86.950447"
     y1="505.23151"
     x2="114.88749"
     y2="516.68671"
     style="stroke:#888888;stroke-opacity:1" />
  <line
     class="arc1"
     id="link32_@1_37"
     x1="632.19934"
     y1="152.8063"
     x2="580.45111"
     y2="65.09906"
     style="stroke:#ff0000;stroke-opacity:1" />
  <line
     class="arc1"
     id="link4_@1_5"
     x1="53.748238"
     y1="57.895142"
     x2="2"
     y2="159.49243"
     style="stroke:#888888;stroke-opacity:1" />
  <line
     class="arc2"
     id="link4_@2_38"
     x1="53.748238"
     y1="57.895142"
     x2="86.950447"
     y2="20.33606"
     style="stroke:#888888;stroke-opacity:1" />
  <polygon
     points="927.6407,90.96991 1110.0867,101.29627 1189.772,200.45868 1189.772,417.1729 1110.0867,507.31497 927.6407,496.9886 847.9553,397.82623 847.9553,181.112 "
     id="face_73_74_75_76_70_69_68_67"
     style="fill:#c0c0c0;stroke:none"
     opacity="1"
     transform="translate(-94.587532,-25.561768)" />
  <line
     class="arc1"
     id="link67_@1_68"
     x1="753.3678"
     y1="372.26447"
     x2="833.05316"
     y2="471.42682"
     style="stroke:#888888;stroke-opacity:1" />
  <line
     class="arc2"
     id="link67_@2_66"
     x1="753.3678"
     y1="372.26447"
     x2="698.60376"
     y2="373.27899"
     style="stroke:#888888;stroke-opacity:1" />
  <line
     class="arc0"
     id="link67_@0_73"
     x1="753.3678"
     y1="372.26447"
     x2="753.3678"
     y2="155.55023"
     style="stroke:#888888;stroke-opacity:1" />
  <polygon
     points="793.1913,398.84076 793.1913,182.12653 741.44305,94.41931 622.9612,110.32053 571.21295,211.91782 571.21295,428.63202 622.9612,516.33923 741.44305,500.438 "
     id="face_72_78_84_90_48_54_60_66"
     style="fill:#c0c0c0;stroke:none"
     opacity="1"
     transform="translate(-94.58752,-25.561766)" />
  <line
     class="arc1"
     id="link66_@1_60"
     x1="698.60376"
     y1="373.27899"
     x2="646.85553"
     y2="474.87622"
     style="stroke:#ff0000;stroke-opacity:1" />
  <line
     class="arc0"
     id="link66_@0_72"
     x1="698.60376"
     y1="373.27899"
     x2="698.60376"
     y2="156.56476"
     style="stroke:#000000;stroke-opacity:1" />
  <line
     class="arc2"
     id="link21_@2_22"
     x1="547.24902"
     y1="508.677"
     x2="580.45111"
     y2="471.11774"
     style="stroke:#888888;stroke-opacity:1" />
  <line
     class="arc0"
     id="link21_@0_16"
     x1="547.24902"
     y1="508.677"
     x2="428.76715"
     y2="524.57819"
     style="stroke:#888888;stroke-opacity:1" />
  <line
     class="arc1"
     id="link38_@1_39"
     x1="86.950447"
     y1="20.33606"
     x2="114.88749"
     y2="31.79126"
     style="stroke:#888888;stroke-opacity:1" />
  <line
     class="arc1"
     id="link73_@1_74"
     x1="753.3678"
     y1="155.55023"
     x2="833.05316"
     y2="65.408142"
     style="stroke:#888888;stroke-opacity:1" />
  <line
     class="arc2"
     id="link73_@2_72"
     x1="753.3678"
     y1="155.55023"
     x2="698.60376"
     y2="156.56476"
     style="stroke:#888888;stroke-opacity:1" />
  <line
     class="arc1"
     id="link72_@1_78"
     x1="698.60376"
     y1="156.56476"
     x2="646.85553"
     y2="68.857544"
     style="stroke:#ff0000;stroke-opacity:1" />
  <line
     class="arc0"
     id="link22_@0_17"
     x1="580.45111"
     y1="471.11774"
     x2="461.96924"
     y2="487.01898"
     style="stroke:#000000;stroke-opacity:1" />
  <line
     class="arc2"
     id="link68_@2_62"
     x1="833.05316"
     y1="471.42682"
     x2="811.49139"
     y2="513.75903"
     style="stroke:#888888;stroke-opacity:1" />
  <line
     class="arc0"
     id="link68_@0_69"
     x1="833.05316"
     y1="471.42682"
     x2="1015.4991"
     y2="481.7532"
     style="stroke:#888888;stroke-opacity:1" />
  <line
     class="arc2"
     id="link6_@2_8"
     x1="2"
     y1="376.20667"
     x2="13.640541"
     y2="380.97964"
     style="stroke:#888888;stroke-opacity:1" />
  <line
     class="arc0"
     id="link6_@0_5"
     x1="2"
     y1="376.20667"
     x2="2"
     y2="159.49243"
     style="stroke:#888888;stroke-opacity:1" />
  <line
     class="arc2"
     id="link36_@2_37"
     x1="547.24902"
     y1="23.781494"
     x2="580.45111"
     y2="65.09906"
     style="stroke:#888888;stroke-opacity:1" />
  <line
     class="arc0"
     id="link36_@0_41"
     x1="547.24902"
     y1="23.781494"
     x2="428.76715"
     y2="39.682739"
     style="stroke:#888888;stroke-opacity:1" />
  <line
     class="arc2"
     id="link5_@2_43"
     x1="2"
     y1="159.49243"
     x2="13.640541"
     y2="164.26541"
     style="stroke:#888888;stroke-opacity:1" />
  <polygon
     points="1116.462,561.10236 997.9801,577.00354 866.5467,579.4384 684.1006,569.11206 656.16345,557.6569 774.6453,541.7557 906.0789,539.3208 1088.525,549.64716 "
     id="face_63_64_58_57_56_55_61_62"
     style="fill:#c0c0c0;stroke:none"
     opacity="1"
     transform="translate(-94.587532,-25.561768)" />
  <line
     class="arc1"
     id="link62_@1_61"
     x1="811.49139"
     y1="513.75903"
     x2="680.0578"
     y2="516.19391"
     style="stroke:#888888;stroke-opacity:1" />
  <line
     class="arc0"
     id="link62_@0_63"
     x1="811.49139"
     y1="513.75903"
     x2="993.9375"
     y2="524.08539"
     style="stroke:#888888;stroke-opacity:1" />
  <line
     class="arc0"
     id="link37_@0_42"
     x1="580.45111"
     y1="65.09906"
     x2="461.96924"
     y2="81.000305"
     style="stroke:#000000;stroke-opacity:1" />
  <line
     class="arc2"
     id="link74_@2_80"
     x1="833.05316"
     y1="65.408142"
     x2="811.49139"
     y2="28.863586"
     style="stroke:#888888;stroke-opacity:1" />
  <line
     class="arc0"
     id="link74_@0_75"
     x1="833.05316"
     y1="65.408142"
     x2="1015.4991"
     y2="75.734489"
     style="stroke:#888888;stroke-opacity:1" />
  <line
     class="arc2"
     id="link60_@2_61"
     x1="646.85553"
     y1="474.87622"
     x2="680.0578"
     y2="516.19391"
     style="stroke:#888888;stroke-opacity:1" />
  <line
     class="arc0"
     id="link60_@0_54"
     x1="646.85553"
     y1="474.87622"
     x2="528.37366"
     y2="490.77747"
     style="stroke:#000000;stroke-opacity:1" />
  <polygon
     points="187.91331,99.68512 370.3594,110.01148 450.0447,209.17389 450.0447,425.88812 370.3594,516.03015 187.91331,505.7038 108.22807,406.5414 108.22807,189.82718 "
     id="face_43_44_45_46_11_10_9_8"
     style="fill:#c0c0c0;stroke:none"
     opacity="1"
     transform="translate(-94.587532,-25.561768)" />
  <line
     class="arc1"
     id="link8_@1_9"
     x1="13.640541"
     y1="380.97964"
     x2="93.325783"
     y2="480.14203"
     style="stroke:#888888;stroke-opacity:1" />
  <line
     class="arc0"
     id="link8_@0_43"
     x1="13.640541"
     y1="380.97964"
     x2="13.640541"
     y2="164.26541"
     style="stroke:#888888;stroke-opacity:1" />
  <line
     class="arc0"
     id="link61_@0_55"
     x1="680.0578"
     y1="516.19391"
     x2="561.57593"
     y2="532.09515"
     style="stroke:#888888;stroke-opacity:1" />
  <line
     class="arc2"
     id="link14_@2_9"
     x1="114.88749"
     y1="516.68671"
     x2="93.325783"
     y2="480.14203"
     style="stroke:#888888;stroke-opacity:1" />
  <line
     class="arc0"
     id="link14_@0_15"
     x1="114.88749"
     y1="516.68671"
     x2="297.33362"
     y2="527.01306"
     style="stroke:#888888;stroke-opacity:1" />
  <line
     class="arc2"
     id="link75_@2_81"
     x1="1015.4991"
     y1="75.734489"
     x2="993.9375"
     y2="39.189941"
     style="stroke:#888888;stroke-opacity:1" />
  <line
     class="arc2"
     id="link78_@2_79"
     x1="646.85553"
     y1="68.857544"
     x2="680.0578"
     y2="31.298462"
     style="stroke:#888888;stroke-opacity:1" />
  <polygon
     points="1116.462,76.20691 997.9801,92.108154 866.5467,94.54297 684.1006,84.21661 656.16345,72.761475 774.6453,56.86023 906.0789,54.425354 1088.525,64.75171 "
     id="face_81_82_88_87_86_85_79_80"
     style="fill:#c0c0c0;stroke:none"
     opacity="1"
     transform="translate(-94.587532,-25.561768)" />
  <line
     class="arc1"
     id="link80_@1_79"
     x1="811.49139"
     y1="28.863586"
     x2="680.0578"
     y2="31.298462"
     style="stroke:#888888;stroke-opacity:1" />
  <line
     class="arc0"
     id="link80_@0_81"
     x1="811.49139"
     y1="28.863586"
     x2="993.9375"
     y2="39.189941"
     style="stroke:#888888;stroke-opacity:1" />
  <line
     class="arc2"
     id="link84_@2_85"
     x1="528.37366"
     y1="84.758766"
     x2="561.57593"
     y2="47.199707"
     style="stroke:#888888;stroke-opacity:1" />
  <line
     class="arc0"
     id="link78_@0_84"
     x1="646.85553"
     y1="68.857544"
     x2="528.37366"
     y2="84.758766"
     style="stroke:#000000;stroke-opacity:1" />
  <line
     class="arc1"
     id="link43_@1_44"
     x1="13.640541"
     y1="164.26541"
     x2="93.325783"
     y2="74.123352"
     style="stroke:#888888;stroke-opacity:1" />
  <line
     class="arc0"
     id="link9_@0_10"
     x1="93.325783"
     y1="480.14203"
     x2="275.77188"
     y2="490.46838"
     style="stroke:#888888;stroke-opacity:1" />
  <line
     class="arc0"
     id="link79_@0_85"
     x1="680.0578"
     y1="31.298462"
     x2="561.57593"
     y2="47.199707"
     style="stroke:#888888;stroke-opacity:1" />
  <line
     class="arc2"
     id="link39_@2_44"
     x1="114.88749"
     y1="31.79126"
     x2="93.325783"
     y2="74.123352"
     style="stroke:#888888;stroke-opacity:1" />
  <line
     class="arc0"
     id="link39_@0_40"
     x1="114.88749"
     y1="31.79126"
     x2="297.33362"
     y2="42.117615"
     style="stroke:#888888;stroke-opacity:1" />
  <line
     class="arc1"
     id="link69_@1_70"
     x1="1015.4991"
     y1="481.7532"
     x2="1095.1844"
     y2="391.61115"
     style="stroke:#888888;stroke-opacity:1" />
  <line
     class="arc2"
     id="link69_@2_63"
     x1="1015.4991"
     y1="481.7532"
     x2="993.9375"
     y2="524.08539"
     style="stroke:#888888;stroke-opacity:1" />
  <line
     class="arc0"
     id="link44_@0_45"
     x1="93.325783"
     y1="74.123352"
     x2="275.77188"
     y2="84.449699"
     style="stroke:#888888;stroke-opacity:1" />
  <line
     class="arc1"
     id="link63_@1_64"
     x1="993.9375"
     y1="524.08539"
     x2="1021.8745"
     y2="535.54059"
     style="stroke:#888888;stroke-opacity:1" />
  <line
     class="arc1"
     id="link16_@1_15"
     x1="428.76715"
     y1="524.57819"
     x2="297.33362"
     y2="527.01306"
     style="stroke:#888888;stroke-opacity:1" />
  <line
     class="arc2"
     id="link16_@2_17"
     x1="428.76715"
     y1="524.57819"
     x2="461.96924"
     y2="487.01898"
     style="stroke:#888888;stroke-opacity:1" />
  <line
     class="arc1"
     id="link75_@1_76"
     x1="1015.4991"
     y1="75.734489"
     x2="1095.1844"
     y2="174.89691"
     style="stroke:#888888;stroke-opacity:1" />
  <line
     class="arc1"
     id="link17_@1_12"
     x1="461.96924"
     y1="487.01898"
     x2="410.22101"
     y2="399.31183"
     style="stroke:#ff0000;stroke-opacity:1" />
  <line
     class="arc2"
     id="link70_@2_71"
     x1="1095.1844"
     y1="391.61115"
     x2="1106.8248"
     y2="396.38412"
     style="stroke:#888888;stroke-opacity:1" />
  <line
     class="arc0"
     id="link70_@0_76"
     x1="1095.1844"
     y1="391.61115"
     x2="1095.1844"
     y2="174.89691"
     style="stroke:#888888;stroke-opacity:1" />
  <line
     class="arc2"
     id="link15_@2_10"
     x1="297.33362"
     y1="527.01306"
     x2="275.77188"
     y2="490.46838"
     style="stroke:#888888;stroke-opacity:1" />
  <line
     class="arc1"
     id="link81_@1_82"
     x1="993.9375"
     y1="39.189941"
     x2="1021.8745"
     y2="50.645142"
     style="stroke:#888888;stroke-opacity:1" />
  <line
     class="arc1"
     id="link41_@1_40"
     x1="428.76715"
     y1="39.682739"
     x2="297.33362"
     y2="42.117615"
     style="stroke:#888888;stroke-opacity:1" />
  <line
     class="arc2"
     id="link41_@2_42"
     x1="428.76715"
     y1="39.682739"
     x2="461.96924"
     y2="81.000305"
     style="stroke:#888888;stroke-opacity:1" />
  <line
     class="arc2"
     id="link76_@2_77"
     x1="1095.1844"
     y1="174.89691"
     x2="1106.8248"
     y2="179.66989"
     style="stroke:#888888;stroke-opacity:1" />
  <line
     class="arc1"
     id="link42_@1_47"
     x1="461.96924"
     y1="81.000305"
     x2="410.22101"
     y2="182.5976"
     style="stroke:#ff0000;stroke-opacity:1" />
  <line
     class="arc1"
     id="link10_@1_11"
     x1="275.77188"
     y1="490.46838"
     x2="355.45718"
     y2="400.32635"
     style="stroke:#888888;stroke-opacity:1" />
  <line
     class="arc1"
     id="link54_@1_48"
     x1="528.37366"
     y1="490.77747"
     x2="476.62543"
     y2="403.07025"
     style="stroke:#ff0000;stroke-opacity:1" />
  <line
     class="arc2"
     id="link54_@2_55"
     x1="528.37366"
     y1="490.77747"
     x2="561.57593"
     y2="532.09515"
     style="stroke:#888888;stroke-opacity:1" />
  <line
     class="arc2"
     id="link40_@2_45"
     x1="297.33362"
     y1="42.117615"
     x2="275.77188"
     y2="84.449699"
     style="stroke:#888888;stroke-opacity:1" />
  <polygon
     points="1149.6641,117.52447 1031.1823,133.42566 979.434,235.02295 979.434,451.73718 1031.1823,539.44434 1149.6641,523.54315 1201.4124,421.9459 1201.4124,205.23166 "
     id="face_77_83_89_95_53_59_65_71"
     style="fill:#c0c0c0;stroke:none"
     opacity="1"
     transform="translate(-94.587532,-25.561768)" />
  <line
     class="arc1"
     id="link71_@1_65"
     x1="1106.8248"
     y1="396.38412"
     x2="1055.0765"
     y2="497.98138"
     style="stroke:#888888;stroke-opacity:1" />
  <line
     class="arc0"
     id="link71_@0_77"
     x1="1106.8248"
     y1="396.38412"
     x2="1106.8248"
     y2="179.66989"
     style="stroke:#888888;stroke-opacity:1" />
  <line
     class="arc1"
     id="link55_@1_56"
     x1="561.57593"
     y1="532.09515"
     x2="589.51306"
     y2="543.55029"
     style="stroke:#888888;stroke-opacity:1" />
  <line
     class="arc1"
     id="link77_@1_83"
     x1="1106.8248"
     y1="179.66989"
     x2="1055.0765"
     y2="91.962715"
     style="stroke:#888888;stroke-opacity:1" />
  <line
     class="arc1"
     id="link45_@1_46"
     x1="275.77188"
     y1="84.449699"
     x2="355.45718"
     y2="183.61212"
     style="stroke:#888888;stroke-opacity:1" />
  <line
     class="arc1"
     id="link84_@1_90"
     x1="528.37366"
     y1="84.758766"
     x2="476.62543"
     y2="186.35605"
     style="stroke:#ff0000;stroke-opacity:1" />
  <line
     class="arc2"
     id="link12_@2_11"
     x1="410.22101"
     y1="399.31183"
     x2="355.45718"
     y2="400.32635"
     style="stroke:#888888;stroke-opacity:1" />
  <line
     class="arc2"
     id="link47_@2_46"
     x1="410.22101"
     y1="182.5976"
     x2="355.45718"
     y2="183.61212"
     style="stroke:#888888;stroke-opacity:1" />
  <line
     class="arc0"
     id="link12_@0_47"
     x1="410.22101"
     y1="399.31183"
     x2="410.22101"
     y2="182.5976"
     style="stroke:#000000;stroke-opacity:1" />
  <line
     class="arc0"
     id="link11_@0_46"
     x1="355.45718"
     y1="400.32635"
     x2="355.45718"
     y2="183.61212"
     style="stroke:#888888;stroke-opacity:1" />
  <line
     class="arc2"
     id="link64_@2_65"
     x1="1021.8745"
     y1="535.54059"
     x2="1055.0765"
     y2="497.98138"
     style="stroke:#888888;stroke-opacity:1" />
  <line
     class="arc0"
     id="link64_@0_58"
     x1="1021.8745"
     y1="535.54059"
     x2="903.39258"
     y2="551.44177"
     style="stroke:#888888;stroke-opacity:1" />
  <line
     class="arc1"
     id="link85_@1_86"
     x1="561.57593"
     y1="47.199707"
     x2="589.51306"
     y2="58.654846"
     style="stroke:#888888;stroke-opacity:1" />
  <line
     class="arc0"
     id="link65_@0_59"
     x1="1055.0765"
     y1="497.98138"
     x2="936.59473"
     y2="513.88257"
     style="stroke:#888888;stroke-opacity:1" />
  <line
     class="arc2"
     id="link48_@2_49"
     x1="476.62543"
     y1="403.07025"
     x2="488.26605"
     y2="407.84326"
     style="stroke:#888888;stroke-opacity:1" />
  <line
     class="arc2"
     id="link90_@2_91"
     x1="476.62543"
     y1="186.35605"
     x2="488.26605"
     y2="191.12903"
     style="stroke:#888888;stroke-opacity:1" />
  <line
     class="arc0"
     id="link48_@0_90"
     x1="476.62543"
     y1="403.07025"
     x2="476.62543"
     y2="186.35605"
     style="stroke:#000000;stroke-opacity:1" />
  <line
     class="arc2"
     id="link82_@2_83"
     x1="1021.8745"
     y1="50.645142"
     x2="1055.0765"
     y2="91.962715"
     style="stroke:#888888;stroke-opacity:1" />
  <line
     class="arc0"
     id="link82_@0_88"
     x1="1021.8745"
     y1="50.645142"
     x2="903.39258"
     y2="66.546387"
     style="stroke:#888888;stroke-opacity:1" />
  <line
     class="arc0"
     id="link83_@0_89"
     x1="1055.0765"
     y1="91.962715"
     x2="936.59473"
     y2="107.86389"
     style="stroke:#888888;stroke-opacity:1" />
  <polygon
     points="662.5389,126.54871 844.9849,136.87506 924.67017,236.03748 924.67017,452.7517 844.9849,542.89374 662.5389,532.5674 582.8536,433.40503 582.8536,216.6908 "
     id="face_91_92_93_94_52_51_50_49"
     style="fill:#c0c0c0;stroke:none"
     opacity="1"
     transform="translate(-94.587545,-25.561756)" />
  <line
     class="arc1"
     id="link49_@1_50"
     x1="488.26605"
     y1="407.84326"
     x2="567.95135"
     y2="507.00562"
     style="stroke:#888888;stroke-opacity:1" />
  <line
     class="arc0"
     id="link49_@0_91"
     x1="488.26605"
     y1="407.84326"
     x2="488.26605"
     y2="191.12903"
     style="stroke:#888888;stroke-opacity:1" />
  <line
     class="arc2"
     id="link56_@2_50"
     x1="589.51306"
     y1="543.55029"
     x2="567.95135"
     y2="507.00562"
     style="stroke:#888888;stroke-opacity:1" />
  <line
     class="arc0"
     id="link56_@0_57"
     x1="589.51306"
     y1="543.55029"
     x2="771.95917"
     y2="553.87665"
     style="stroke:#888888;stroke-opacity:1" />
  <line
     class="arc1"
     id="link91_@1_92"
     x1="488.26605"
     y1="191.12903"
     x2="567.95135"
     y2="100.98695"
     style="stroke:#888888;stroke-opacity:1" />
  <line
     class="arc0"
     id="link50_@0_51"
     x1="567.95135"
     y1="507.00562"
     x2="750.3974"
     y2="517.33197"
     style="stroke:#888888;stroke-opacity:1" />
  <line
     class="arc2"
     id="link86_@2_92"
     x1="589.51306"
     y1="58.654846"
     x2="567.95135"
     y2="100.98695"
     style="stroke:#888888;stroke-opacity:1" />
  <line
     class="arc0"
     id="link86_@0_87"
     x1="589.51306"
     y1="58.654846"
     x2="771.95917"
     y2="68.981201"
     style="stroke:#888888;stroke-opacity:1" />
  <line
     class="arc0"
     id="link92_@0_93"
     x1="567.95135"
     y1="100.98695"
     x2="750.3974"
     y2="111.31329"
     style="stroke:#888888;stroke-opacity:1" />
  <line
     class="arc1"
     id="link58_@1_57"
     x1="903.39258"
     y1="551.44177"
     x2="771.95917"
     y2="553.87665"
     style="stroke:#888888;stroke-opacity:1" />
  <line
     class="arc2"
     id="link58_@2_59"
     x1="903.39258"
     y1="551.44177"
     x2="936.59473"
     y2="513.88257"
     style="stroke:#888888;stroke-opacity:1" />
  <line
     class="arc1"
     id="link59_@1_53"
     x1="936.59473"
     y1="513.88257"
     x2="884.8465"
     y2="426.17542"
     style="stroke:#888888;stroke-opacity:1" />
  <line
     class="arc2"
     id="link57_@2_51"
     x1="771.95917"
     y1="553.87665"
     x2="750.3974"
     y2="517.33197"
     style="stroke:#888888;stroke-opacity:1" />
  <line
     class="arc1"
     id="link88_@1_87"
     x1="903.39258"
     y1="66.546387"
     x2="771.95917"
     y2="68.981201"
     style="stroke:#888888;stroke-opacity:1" />
  <line
     class="arc2"
     id="link88_@2_89"
     x1="903.39258"
     y1="66.546387"
     x2="936.59473"
     y2="107.86389"
     style="stroke:#888888;stroke-opacity:1" />
  <line
     class="arc1"
     id="link89_@1_95"
     x1="936.59473"
     y1="107.86389"
     x2="884.8465"
     y2="209.46118"
     style="stroke:#888888;stroke-opacity:1" />
  <line
     class="arc1"
     id="link51_@1_52"
     x1="750.3974"
     y1="517.33197"
     x2="830.08264"
     y2="427.18994"
     style="stroke:#888888;stroke-opacity:1" />
  <line
     class="arc2"
     id="link87_@2_93"
     x1="771.95917"
     y1="68.981201"
     x2="750.3974"
     y2="111.31329"
     style="stroke:#888888;stroke-opacity:1" />
  <line
     class="arc1"
     id="link93_@1_94"
     x1="750.3974"
     y1="111.31329"
     x2="830.08264"
     y2="210.47571"
     style="stroke:#888888;stroke-opacity:1" />
  <line
     class="arc2"
     id="link53_@2_52"
     x1="884.8465"
     y1="426.17542"
     x2="830.08264"
     y2="427.18994"
     style="stroke:#888888;stroke-opacity:1" />
  <line
     class="arc0"
     id="link53_@0_95"
     x1="884.8465"
     y1="426.17542"
     x2="884.8465"
     y2="209.46118"
     style="stroke:#888888;stroke-opacity:1" />
  <line
     class="arc0"
     id="link52_@0_94"
     x1="830.08264"
     y1="427.18994"
     x2="830.08264"
     y2="210.47571"
     style="stroke:#888888;stroke-opacity:1" />
  <line
     class="arc2"
     id="link95_@2_94"
     x1="884.8465"
     y1="209.46118"
     x2="830.08264"
     y2="210.47571"
     style="stroke:#888888;stroke-opacity:1" />
</svg>
