<?xml version="1.0" encoding="UTF-8" standalone="no"?>
<!-- Created with Jerboa -->

<svg
	width="660"
	height="643" >
	<style id="style">
		.arc0 {
			fill:none;
			fill-rule:evenodd;
			stroke:black;
			stroke-width:4;
			stroke-linecap:round;
			stroke-linejoin:round;
			stroke-opacity:1;
		}
		.arc1 {
			fill:none;
			fill-rule:evenodd;
			stroke:red;
			stroke-width:4;
			stroke-linecap:round;
			stroke-linejoin:round;
			stroke-opacity:1;
		}
		.arc2 {
			fill:none;
			fill-rule:evenodd;
			stroke:blue;
			stroke-width:4;
			stroke-linecap:round;
			stroke-linejoin:round;
			stroke-opacity:1;
		}
		.arc3 {
			fill:none;
			fill-rule:evenodd;
			stroke:green;
			stroke-width:4;
			stroke-linecap:round;
			stroke-linejoin:round;
			stroke-opacity:1;
		}
		.topological-dart {
			fill:#000000;
			stroke:#000000;
			stroke-width:0;
			stroke-linecap:round;
			stroke-linejoin:round;
			stroke-dasharray:none;
			paint-order:markers fill stroke;
		}
	</style>
<polygon
	points="188.47394,502.7566 188.47394,383.2867 230.61441,335.6163 331.19302,341.30902 373.33353,393.7497 373.33353,513.2196 331.19302,560.89 230.61441,555.19727 "
	id="face_35_36_41_40_39_38_33_34"
	style="fill:rgb(192,192,192);stroke:none"
	opacity="1.0" />
<line
	class="arc1"
	id="link34_@1_33"
	x1="188.47394"
	y1="502.7566"
	x2="230.61441"
	y2="555.19727" />
<line
	class="arc2"
	id="link34_@2_29"
	x1="188.47394"
	y1="502.7566"
	x2="159.51277"
	y2="503.29312" />
<line
	class="arc0"
	id="link34_@0_35"
	x1="188.47394"
	y1="502.7566"
	x2="188.47394"
	y2="383.2867" />
<polygon
	points="159.51277,503.29312 159.51277,383.82324 132.14644,337.4405 66.82991,346.20648 39.463573,399.9348 39.463573,519.4047 66.82991,565.7875 132.14644,557.0215 "
	id="face_30_31_26_25_24_23_28_29"
	style="fill:rgb(192,192,192);stroke:none"
	opacity="1.0" />
<line
	class="arc1"
	id="link29_@1_28"
	x1="159.51277"
	y1="503.29312"
	x2="132.14644"
	y2="557.0215" />
<line
	class="arc0"
	id="link29_@0_30"
	x1="159.51277"
	y1="503.29312"
	x2="159.51277"
	y2="383.82324" />
<line
	class="arc1"
	id="link35_@1_36"
	x1="188.47394"
	y1="383.2867"
	x2="230.61441"
	y2="335.6163" />
<line
	class="arc2"
	id="link35_@2_30"
	x1="188.47394"
	y1="383.2867"
	x2="159.51277"
	y2="383.82324" />
<line
	class="arc1"
	id="link30_@1_31"
	x1="159.51277"
	y1="383.82324"
	x2="132.14644"
	y2="337.4405" />
<line
	class="arc2"
	id="link33_@2_0"
	x1="230.61441"
	y1="555.19727"
	x2="219.21178"
	y2="577.5841" />
<line
	class="arc0"
	id="link33_@0_38"
	x1="230.61441"
	y1="555.19727"
	x2="331.19302"
	y2="560.89" />
<polygon
	points="188.47394,216.4349 188.47394,96.964905 230.61441,49.294495 331.19302,54.987244 373.33353,107.42792 373.33353,226.89792 331.19302,274.5683 230.61441,268.87564 "
	id="face_123_124_118_117_116_115_121_122"
	style="fill:rgb(192,192,192);stroke:none"
	opacity="1.0" />
<line
	class="arc1"
	id="link122_@1_121"
	x1="188.47394"
	y1="216.4349"
	x2="230.61441"
	y2="268.87564" />
<line
	class="arc2"
	id="link122_@2_128"
	x1="188.47394"
	y1="216.4349"
	x2="159.51277"
	y2="216.9714" />
<line
	class="arc0"
	id="link122_@0_123"
	x1="188.47394"
	y1="216.4349"
	x2="188.47394"
	y2="96.964905" />
<polygon
	points="159.51277,216.9714 159.51277,97.5014 132.14644,51.118652 66.82991,59.884644 39.463573,113.61304 39.463573,233.08304 66.82991,279.46582 132.14644,270.69977 "
	id="face_129_130_136_135_134_133_127_128"
	style="fill:rgb(192,192,192);stroke:none"
	opacity="1.0" />
<line
	class="arc1"
	id="link128_@1_127"
	x1="159.51277"
	y1="216.9714"
	x2="132.14644"
	y2="270.69977" />
<line
	class="arc0"
	id="link128_@0_129"
	x1="159.51277"
	y1="216.9714"
	x2="159.51277"
	y2="97.5014" />
<line
	class="arc1"
	id="link123_@1_124"
	x1="188.47394"
	y1="96.964905"
	x2="230.61441"
	y2="49.294495" />
<line
	class="arc2"
	id="link123_@2_129"
	x1="188.47394"
	y1="96.964905"
	x2="159.51277"
	y2="97.5014" />
<polygon
	points="219.21178,577.5841 319.7904,583.2768 334.5645,589.3347 269.24802,598.1007 199.7412,599.38837 99.162575,593.6957 84.388435,587.63776 149.70496,578.87177 "
	id="face_7_6_5_4_3_2_1_0"
	style="fill:rgb(192,192,192);stroke:none"
	opacity="1.0" />
<line
	class="arc1"
	id="link0_@1_1"
	x1="219.21178"
	y1="577.5841"
	x2="149.70496"
	y2="578.87177" />
<line
	class="arc0"
	id="link0_@0_7"
	x1="219.21178"
	y1="577.5841"
	x2="319.7904"
	y2="583.2768" />
<line
	class="arc1"
	id="link129_@1_130"
	x1="159.51277"
	y1="97.5014"
	x2="132.14644"
	y2="51.118652" />
<line
	class="arc2"
	id="link36_@2_37"
	x1="230.61441"
	y1="335.6163"
	x2="219.21178"
	y2="316.29022" />
<line
	class="arc0"
	id="link36_@0_41"
	x1="230.61441"
	y1="335.6163"
	x2="331.19302"
	y2="341.30902" />
<line
	class="arc2"
	id="link28_@2_1"
	x1="132.14644"
	y1="557.0215"
	x2="149.70496"
	y2="578.87177" />
<line
	class="arc0"
	id="link28_@0_23"
	x1="132.14644"
	y1="557.0215"
	x2="66.82991"
	y2="565.7875" />
<line
	class="arc2"
	id="link121_@2_120"
	x1="230.61441"
	y1="268.87564"
	x2="219.21178"
	y2="291.2625" />
<line
	class="arc0"
	id="link121_@0_115"
	x1="230.61441"
	y1="268.87564"
	x2="331.19302"
	y2="274.5683" />
<line
	class="arc0"
	id="link1_@0_2"
	x1="149.70496"
	y1="578.87177"
	x2="84.388435"
	y2="587.63776" />
<polygon
	points="219.21178,316.29022 319.7904,321.9829 334.5645,328.04083 269.24802,336.80685 199.7412,338.09448 99.162575,332.4018 84.388435,326.34387 149.70496,317.57785 "
	id="face_42_47_12_17_22_27_32_37"
	style="fill:rgb(192,192,192);stroke:none"
	opacity="1.0" />
<line
	class="arc1"
	id="link37_@1_32"
	x1="219.21178"
	y1="316.29022"
	x2="149.70496"
	y2="317.57785" />
<line
	class="arc3"
	id="link37_@3_120"
	x1="219.21178"
	y1="316.29022"
	x2="219.21178"
	y2="291.2625" />
<line
	class="arc0"
	id="link37_@0_42"
	x1="219.21178"
	y1="316.29022"
	x2="319.7904"
	y2="321.9829" />
<line
	class="arc2"
	id="link31_@2_32"
	x1="132.14644"
	y1="337.4405"
	x2="149.70496"
	y2="317.57785" />
<line
	class="arc0"
	id="link31_@0_26"
	x1="132.14644"
	y1="337.4405"
	x2="66.82991"
	y2="346.20648" />
<polygon
	points="219.21178,291.2625 319.7904,296.95526 334.5645,303.01312 269.24802,311.7791 199.7412,313.0668 99.162575,307.3741 84.388435,301.3162 149.70496,292.55017 "
	id="face_114_108_102_96_138_132_126_120"
	style="fill:rgb(192,192,192);stroke:none"
	opacity="1.0" />
<line
	class="arc1"
	id="link120_@1_126"
	x1="219.21178"
	y1="291.2625"
	x2="149.70496"
	y2="292.55017" />
<line
	class="arc0"
	id="link120_@0_114"
	x1="219.21178"
	y1="291.2625"
	x2="319.7904"
	y2="296.95526" />
<line
	class="arc2"
	id="link124_@2_125"
	x1="230.61441"
	y1="49.294495"
	x2="219.21178"
	y2="29.968445" />
<line
	class="arc0"
	id="link124_@0_118"
	x1="230.61441"
	y1="49.294495"
	x2="331.19302"
	y2="54.987244" />
<line
	class="arc2"
	id="link127_@2_126"
	x1="132.14644"
	y1="270.69977"
	x2="149.70496"
	y2="292.55017" />
<line
	class="arc0"
	id="link127_@0_133"
	x1="132.14644"
	y1="270.69977"
	x2="66.82991"
	y2="279.46582" />
<line
	class="arc3"
	id="link32_@3_126"
	x1="149.70496"
	y1="317.57785"
	x2="149.70496"
	y2="292.55017" />
<line
	class="arc0"
	id="link32_@0_27"
	x1="149.70496"
	y1="317.57785"
	x2="84.388435"
	y2="326.34387" />
<line
	class="arc0"
	id="link126_@0_132"
	x1="149.70496"
	y1="292.55017"
	x2="84.388435"
	y2="301.3162" />
<polygon
	points="219.21178,29.968445 319.7904,35.661133 334.5645,41.719055 269.24802,50.485107 199.7412,51.772766 99.162575,46.080017 84.388435,40.022095 149.70496,31.256165 "
	id="face_119_113_107_101_143_137_131_125"
	style="fill:rgb(192,192,192);stroke:none"
	opacity="1.0" />
<line
	class="arc1"
	id="link125_@1_131"
	x1="219.21178"
	y1="29.968445"
	x2="149.70496"
	y2="31.256165" />
<line
	class="arc0"
	id="link125_@0_119"
	x1="219.21178"
	y1="29.968445"
	x2="319.7904"
	y2="35.661133" />
<line
	class="arc1"
	id="link38_@1_39"
	x1="331.19302"
	y1="560.89"
	x2="373.33353"
	y2="513.2196" />
<line
	class="arc2"
	id="link38_@2_7"
	x1="331.19302"
	y1="560.89"
	x2="319.7904"
	y2="583.2768" />
<line
	class="arc2"
	id="link130_@2_131"
	x1="132.14644"
	y1="51.118652"
	x2="149.70496"
	y2="31.256165" />
<line
	class="arc0"
	id="link130_@0_136"
	x1="132.14644"
	y1="51.118652"
	x2="66.82991"
	y2="59.884644" />
<line
	class="arc0"
	id="link131_@0_137"
	x1="149.70496"
	y1="31.256165"
	x2="84.388435"
	y2="40.022095" />
<line
	class="arc1"
	id="link7_@1_6"
	x1="319.7904"
	y1="583.2768"
	x2="334.5645"
	y2="589.3347" />
<line
	class="arc1"
	id="link41_@1_40"
	x1="331.19302"
	y1="341.30902"
	x2="373.33353"
	y2="393.7497" />
<line
	class="arc2"
	id="link41_@2_42"
	x1="331.19302"
	y1="341.30902"
	x2="319.7904"
	y2="321.9829" />
<line
	class="arc1"
	id="link115_@1_116"
	x1="331.19302"
	y1="274.5683"
	x2="373.33353"
	y2="226.89792" />
<line
	class="arc2"
	id="link115_@2_114"
	x1="331.19302"
	y1="274.5683"
	x2="319.7904"
	y2="296.95526" />
<line
	class="arc2"
	id="link39_@2_44"
	x1="373.33353"
	y1="513.2196"
	x2="379.48932"
	y2="515.7437" />
<line
	class="arc0"
	id="link39_@0_40"
	x1="373.33353"
	y1="513.2196"
	x2="373.33353"
	y2="393.7497" />
<line
	class="arc1"
	id="link42_@1_47"
	x1="319.7904"
	y1="321.9829"
	x2="334.5645"
	y2="328.04083" />
<line
	class="arc3"
	id="link42_@3_114"
	x1="319.7904"
	y1="321.9829"
	x2="319.7904"
	y2="296.95526" />
<line
	class="arc1"
	id="link114_@1_108"
	x1="319.7904"
	y1="296.95526"
	x2="334.5645"
	y2="303.01312" />
<line
	class="arc2"
	id="link40_@2_45"
	x1="373.33353"
	y1="393.7497"
	x2="379.48932"
	y2="396.2738" />
<line
	class="arc1"
	id="link118_@1_117"
	x1="331.19302"
	y1="54.987244"
	x2="373.33353"
	y2="107.42792" />
<line
	class="arc2"
	id="link118_@2_119"
	x1="331.19302"
	y1="54.987244"
	x2="319.7904"
	y2="35.661133" />
<line
	class="arc1"
	id="link23_@1_24"
	x1="66.82991"
	y1="565.7875"
	x2="39.463573"
	y2="519.4047" />
<line
	class="arc2"
	id="link23_@2_2"
	x1="66.82991"
	y1="565.7875"
	x2="84.388435"
	y2="587.63776" />
<line
	class="arc2"
	id="link116_@2_110"
	x1="373.33353"
	y1="226.89792"
	x2="379.48932"
	y2="229.422" />
<line
	class="arc0"
	id="link116_@0_117"
	x1="373.33353"
	y1="226.89792"
	x2="373.33353"
	y2="107.42792" />
<polygon
	points="379.48932,515.7437 379.48932,396.2738 352.12305,349.89105 286.8065,358.65707 259.44016,412.38538 259.44016,531.8553 286.8065,578.23804 352.12305,569.47205 "
	id="face_45_46_11_10_9_8_43_44"
	style="fill:rgb(192,192,192);stroke:none"
	opacity="1.0" />
<line
	class="arc1"
	id="link44_@1_43"
	x1="379.48932"
	y1="515.7437"
	x2="352.12305"
	y2="569.47205" />
<line
	class="arc3"
	id="link44_@3_66"
	x1="379.48932"
	y1="515.7437"
	x2="400.55948"
	y2="516.9363" />
<line
	class="arc0"
	id="link44_@0_45"
	x1="379.48932"
	y1="515.7437"
	x2="379.48932"
	y2="396.2738" />
<line
	class="arc1"
	id="link119_@1_113"
	x1="319.7904"
	y1="35.661133"
	x2="334.5645"
	y2="41.719055" />
<line
	class="arc1"
	id="link2_@1_3"
	x1="84.388435"
	y1="587.63776"
	x2="99.162575"
	y2="593.6957" />
<line
	class="arc2"
	id="link117_@2_111"
	x1="373.33353"
	y1="107.42792"
	x2="379.48932"
	y2="109.95203" />
<polygon
	points="429.52075,516.3998 429.52075,396.92987 471.6613,349.25946 572.24,354.95218 614.3805,407.39282 614.3805,526.86273 572.24,574.53314 471.6613,568.84045 "
	id="face_73_74_75_76_70_69_68_67"
	style="fill:rgb(192,192,192);stroke:none"
	opacity="1.0" />
<line
	class="arc1"
	id="link67_@1_68"
	x1="429.52075"
	y1="516.3998"
	x2="471.6613"
	y2="568.84045" />
<line
	class="arc2"
	id="link67_@2_66"
	x1="429.52075"
	y1="516.3998"
	x2="400.55948"
	y2="516.9363" />
<line
	class="arc0"
	id="link67_@0_73"
	x1="429.52075"
	y1="516.3998"
	x2="429.52075"
	y2="396.92987" />
<line
	class="arc1"
	id="link45_@1_46"
	x1="379.48932"
	y1="396.2738"
	x2="352.12305"
	y2="349.89105" />
<line
	class="arc3"
	id="link45_@3_72"
	x1="379.48932"
	y1="396.2738"
	x2="400.55948"
	y2="397.46637" />
<polygon
	points="400.55948,516.9363 400.55948,397.46637 373.1932,351.08362 307.87665,359.84964 280.5103,413.57794 280.5103,533.04785 307.87665,579.4306 373.1932,570.6646 "
	id="face_72_78_84_90_48_54_60_66"
	style="fill:rgb(192,192,192);stroke:none"
	opacity="1.0" />
<line
	class="arc1"
	id="link66_@1_60"
	x1="400.55948"
	y1="516.9363"
	x2="373.1932"
	y2="570.6646" />
<line
	class="arc0"
	id="link66_@0_72"
	x1="400.55948"
	y1="516.9363"
	x2="400.55948"
	y2="397.46637" />
<line
	class="arc1"
	id="link26_@1_25"
	x1="66.82991"
	y1="346.20648"
	x2="39.463573"
	y2="399.9348" />
<line
	class="arc2"
	id="link26_@2_27"
	x1="66.82991"
	y1="346.20648"
	x2="84.388435"
	y2="326.34387" />
<line
	class="arc1"
	id="link73_@1_74"
	x1="429.52075"
	y1="396.92987"
	x2="471.6613"
	y2="349.25946" />
<line
	class="arc2"
	id="link73_@2_72"
	x1="429.52075"
	y1="396.92987"
	x2="400.55948"
	y2="397.46637" />
<line
	class="arc1"
	id="link133_@1_134"
	x1="66.82991"
	y1="279.46582"
	x2="39.463573"
	y2="233.08304" />
<line
	class="arc2"
	id="link133_@2_132"
	x1="66.82991"
	y1="279.46582"
	x2="84.388435"
	y2="301.3162" />
<line
	class="arc1"
	id="link72_@1_78"
	x1="400.55948"
	y1="397.46637"
	x2="373.1932"
	y2="351.08362" />
<line
	class="arc2"
	id="link6_@2_43"
	x1="334.5645"
	y1="589.3347"
	x2="352.12305"
	y2="569.47205" />
<line
	class="arc0"
	id="link6_@0_5"
	x1="334.5645"
	y1="589.3347"
	x2="269.24802"
	y2="598.1007" />
<polygon
	points="379.48932,229.422 379.48932,109.95203 352.12305,63.569214 286.8065,72.335266 259.44016,126.06366 259.44016,245.53363 286.8065,291.91635 352.12305,283.15036 "
	id="face_111_112_106_105_104_103_109_110"
	style="fill:rgb(192,192,192);stroke:none"
	opacity="1.0" />
<line
	class="arc1"
	id="link110_@1_109"
	x1="379.48932"
	y1="229.422"
	x2="352.12305"
	y2="283.15036" />
<line
	class="arc3"
	id="link110_@3_162"
	x1="379.48932"
	y1="229.422"
	x2="400.55948"
	y2="230.61462" />
<line
	class="arc0"
	id="link110_@0_111"
	x1="379.48932"
	y1="229.422"
	x2="379.48932"
	y2="109.95203" />
<line
	class="arc1"
	id="link27_@1_22"
	x1="84.388435"
	y1="326.34387"
	x2="99.162575"
	y2="332.4018" />
<line
	class="arc3"
	id="link27_@3_132"
	x1="84.388435"
	y1="326.34387"
	x2="84.388435"
	y2="301.3162" />
<line
	class="arc2"
	id="link68_@2_62"
	x1="471.6613"
	y1="568.84045"
	x2="460.25864"
	y2="591.22723" />
<line
	class="arc0"
	id="link68_@0_69"
	x1="471.6613"
	y1="568.84045"
	x2="572.24"
	y2="574.53314" />
<line
	class="arc1"
	id="link132_@1_138"
	x1="84.388435"
	y1="301.3162"
	x2="99.162575"
	y2="307.3741" />
<polygon
	points="429.52075,230.07806 429.52075,110.60809 471.6613,62.937622 572.24,68.63037 614.3805,121.071106 614.3805,240.54108 572.24,288.21146 471.6613,282.51877 "
	id="face_169_170_171_172_166_165_164_163"
	style="fill:rgb(192,192,192);stroke:none"
	opacity="1.0" />
<line
	class="arc1"
	id="link163_@1_164"
	x1="429.52075"
	y1="230.07806"
	x2="471.6613"
	y2="282.51877" />
<line
	class="arc2"
	id="link163_@2_162"
	x1="429.52075"
	y1="230.07806"
	x2="400.55948"
	y2="230.61462" />
<line
	class="arc0"
	id="link163_@0_169"
	x1="429.52075"
	y1="230.07806"
	x2="429.52075"
	y2="110.60809" />
<line
	class="arc1"
	id="link111_@1_112"
	x1="379.48932"
	y1="109.95203"
	x2="352.12305"
	y2="63.569214" />
<line
	class="arc3"
	id="link111_@3_168"
	x1="379.48932"
	y1="109.95203"
	x2="400.55948"
	y2="111.14465" />
<line
	class="arc3"
	id="link43_@3_60"
	x1="352.12305"
	y1="569.47205"
	x2="373.1932"
	y2="570.6646" />
<line
	class="arc0"
	id="link43_@0_8"
	x1="352.12305"
	y1="569.47205"
	x2="286.8065"
	y2="578.23804" />
<polygon
	points="400.55948,230.61462 400.55948,111.14465 373.1932,64.76184 307.87665,73.52777 280.5103,127.256165 280.5103,246.72617 307.87665,293.10895 373.1932,284.34293 "
	id="face_168_174_180_186_144_150_156_162"
	style="fill:rgb(192,192,192);stroke:none"
	opacity="1.0" />
<line
	class="arc1"
	id="link162_@1_156"
	x1="400.55948"
	y1="230.61462"
	x2="373.1932"
	y2="284.34293" />
<line
	class="arc0"
	id="link162_@0_168"
	x1="400.55948"
	y1="230.61462"
	x2="400.55948"
	y2="111.14465" />
<line
	class="arc1"
	id="link136_@1_135"
	x1="66.82991"
	y1="59.884644"
	x2="39.463573"
	y2="113.61304" />
<line
	class="arc2"
	id="link136_@2_137"
	x1="66.82991"
	y1="59.884644"
	x2="84.388435"
	y2="40.022095" />
<line
	class="arc2"
	id="link24_@2_19"
	x1="39.463573"
	y1="519.4047"
	x2="45.619488"
	y2="521.92883" />
<line
	class="arc0"
	id="link24_@0_25"
	x1="39.463573"
	y1="519.4047"
	x2="39.463573"
	y2="399.9348" />
<line
	class="arc1"
	id="link169_@1_170"
	x1="429.52075"
	y1="110.60809"
	x2="471.6613"
	y2="62.937622" />
<line
	class="arc2"
	id="link169_@2_168"
	x1="429.52075"
	y1="110.60809"
	x2="400.55948"
	y2="111.14465" />
<polygon
	points="460.25864,591.22723 560.8373,596.9199 575.6115,602.9779 510.29498,611.7439 440.78815,613.03156 340.20944,607.3388 325.43527,601.2809 390.7518,592.5149 "
	id="face_63_64_58_57_56_55_61_62"
	style="fill:rgb(192,192,192);stroke:none"
	opacity="1.0" />
<line
	class="arc1"
	id="link62_@1_61"
	x1="460.25864"
	y1="591.22723"
	x2="390.7518"
	y2="592.5149" />
<line
	class="arc0"
	id="link62_@0_63"
	x1="460.25864"
	y1="591.22723"
	x2="560.8373"
	y2="596.9199" />
<line
	class="arc2"
	id="link47_@2_46"
	x1="334.5645"
	y1="328.04083"
	x2="352.12305"
	y2="349.89105" />
<line
	class="arc3"
	id="link47_@3_108"
	x1="334.5645"
	y1="328.04083"
	x2="334.5645"
	y2="303.01312" />
<line
	class="arc0"
	id="link47_@0_12"
	x1="334.5645"
	y1="328.04083"
	x2="269.24802"
	y2="336.80685" />
<line
	class="arc2"
	id="link74_@2_80"
	x1="471.6613"
	y1="349.25946"
	x2="460.25864"
	y2="329.93338" />
<line
	class="arc0"
	id="link74_@0_75"
	x1="471.6613"
	y1="349.25946"
	x2="572.24"
	y2="354.95218" />
<line
	class="arc2"
	id="link108_@2_109"
	x1="334.5645"
	y1="303.01312"
	x2="352.12305"
	y2="283.15036" />
<line
	class="arc0"
	id="link108_@0_102"
	x1="334.5645"
	y1="303.01312"
	x2="269.24802"
	y2="311.7791" />
<line
	class="arc1"
	id="link168_@1_174"
	x1="400.55948"
	y1="111.14465"
	x2="373.1932"
	y2="64.76184" />
<line
	class="arc2"
	id="link60_@2_61"
	x1="373.1932"
	y1="570.6646"
	x2="390.7518"
	y2="592.5149" />
<line
	class="arc0"
	id="link60_@0_54"
	x1="373.1932"
	y1="570.6646"
	x2="307.87665"
	y2="579.4306" />
<line
	class="arc2"
	id="link25_@2_20"
	x1="39.463573"
	y1="399.9348"
	x2="45.619488"
	y2="402.45892" />
<line
	class="arc1"
	id="link137_@1_143"
	x1="84.388435"
	y1="40.022095"
	x2="99.162575"
	y2="46.080017" />
<line
	class="arc2"
	id="link164_@2_158"
	x1="471.6613"
	y1="282.51877"
	x2="460.25864"
	y2="304.9057" />
<line
	class="arc0"
	id="link164_@0_165"
	x1="471.6613"
	y1="282.51877"
	x2="572.24"
	y2="288.21146" />
<line
	class="arc3"
	id="link46_@3_78"
	x1="352.12305"
	y1="349.89105"
	x2="373.1932"
	y2="351.08362" />
<line
	class="arc0"
	id="link46_@0_11"
	x1="352.12305"
	y1="349.89105"
	x2="286.8065"
	y2="358.65707" />
<line
	class="arc0"
	id="link61_@0_55"
	x1="390.7518"
	y1="592.5149"
	x2="325.43527"
	y2="601.2809" />
<line
	class="arc3"
	id="link109_@3_156"
	x1="352.12305"
	y1="283.15036"
	x2="373.1932"
	y2="284.34293" />
<line
	class="arc0"
	id="link109_@0_103"
	x1="352.12305"
	y1="283.15036"
	x2="286.8065"
	y2="291.91635" />
<line
	class="arc2"
	id="link134_@2_140"
	x1="39.463573"
	y1="233.08304"
	x2="45.619488"
	y2="235.60715" />
<line
	class="arc0"
	id="link134_@0_135"
	x1="39.463573"
	y1="233.08304"
	x2="39.463573"
	y2="113.61304" />
<polygon
	points="460.25864,329.93338 560.8373,335.62607 575.6115,341.68402 510.29498,350.45 440.78815,351.73764 340.20944,346.04495 325.43527,339.98703 390.7518,331.221 "
	id="face_81_82_88_87_86_85_79_80"
	style="fill:rgb(192,192,192);stroke:none"
	opacity="1.0" />
<line
	class="arc1"
	id="link80_@1_79"
	x1="460.25864"
	y1="329.93338"
	x2="390.7518"
	y2="331.221" />
<line
	class="arc3"
	id="link80_@3_158"
	x1="460.25864"
	y1="329.93338"
	x2="460.25864"
	y2="304.9057" />
<line
	class="arc0"
	id="link80_@0_81"
	x1="460.25864"
	y1="329.93338"
	x2="560.8373"
	y2="335.62607" />
<line
	class="arc2"
	id="link78_@2_79"
	x1="373.1932"
	y1="351.08362"
	x2="390.7518"
	y2="331.221" />
<line
	class="arc0"
	id="link78_@0_84"
	x1="373.1932"
	y1="351.08362"
	x2="307.87665"
	y2="359.84964" />
<polygon
	points="45.619488,521.92883 45.619488,402.45892 87.75995,354.78854 188.33856,360.48123 230.47905,412.9219 230.47905,532.3918 188.33856,580.0622 87.75995,574.3695 "
	id="face_20_21_16_15_14_13_18_19"
	style="fill:rgb(192,192,192);stroke:none"
	opacity="1.0" />
<line
	class="arc1"
	id="link19_@1_18"
	x1="45.619488"
	y1="521.92883"
	x2="87.75995"
	y2="574.3695" />
<line
	class="arc0"
	id="link19_@0_20"
	x1="45.619488"
	y1="521.92883"
	x2="45.619488"
	y2="402.45892" />
<polygon
	points="460.25864,304.9057 560.8373,310.5984 575.6115,316.6563 510.29498,325.42233 440.78815,326.70996 340.20944,321.01724 325.43527,314.95932 390.7518,306.1933 "
	id="face_159_160_154_153_152_151_157_158"
	style="fill:rgb(192,192,192);stroke:none"
	opacity="1.0" />
<line
	class="arc1"
	id="link158_@1_157"
	x1="460.25864"
	y1="304.9057"
	x2="390.7518"
	y2="306.1933" />
<line
	class="arc0"
	id="link158_@0_159"
	x1="460.25864"
	y1="304.9057"
	x2="560.8373"
	y2="310.5984" />
<line
	class="arc2"
	id="link113_@2_112"
	x1="334.5645"
	y1="41.719055"
	x2="352.12305"
	y2="63.569214" />
<line
	class="arc0"
	id="link113_@0_107"
	x1="334.5645"
	y1="41.719055"
	x2="269.24802"
	y2="50.485107" />
<line
	class="arc2"
	id="link3_@2_18"
	x1="99.162575"
	y1="593.6957"
	x2="87.75995"
	y2="574.3695" />
<line
	class="arc0"
	id="link3_@0_4"
	x1="99.162575"
	y1="593.6957"
	x2="199.7412"
	y2="599.38837" />
<line
	class="arc2"
	id="link170_@2_176"
	x1="471.6613"
	y1="62.937622"
	x2="460.25864"
	y2="43.611572" />
<line
	class="arc0"
	id="link170_@0_171"
	x1="471.6613"
	y1="62.937622"
	x2="572.24"
	y2="68.63037" />
<line
	class="arc2"
	id="link156_@2_157"
	x1="373.1932"
	y1="284.34293"
	x2="390.7518"
	y2="306.1933" />
<line
	class="arc0"
	id="link156_@0_150"
	x1="373.1932"
	y1="284.34293"
	x2="307.87665"
	y2="293.10895" />
<line
	class="arc2"
	id="link135_@2_141"
	x1="39.463573"
	y1="113.61304"
	x2="45.619488"
	y2="116.137146" />
<line
	class="arc1"
	id="link20_@1_21"
	x1="45.619488"
	y1="402.45892"
	x2="87.75995"
	y2="354.78854" />
<line
	class="arc3"
	id="link112_@3_174"
	x1="352.12305"
	y1="63.569214"
	x2="373.1932"
	y2="64.76184" />
<line
	class="arc0"
	id="link112_@0_106"
	x1="352.12305"
	y1="63.569214"
	x2="286.8065"
	y2="72.335266" />
<line
	class="arc3"
	id="link79_@3_157"
	x1="390.7518"
	y1="331.221"
	x2="390.7518"
	y2="306.1933" />
<line
	class="arc0"
	id="link79_@0_85"
	x1="390.7518"
	y1="331.221"
	x2="325.43527"
	y2="339.98703" />
<line
	class="arc0"
	id="link157_@0_151"
	x1="390.7518"
	y1="306.1933"
	x2="325.43527"
	y2="314.95932" />
<line
	class="arc0"
	id="link18_@0_13"
	x1="87.75995"
	y1="574.3695"
	x2="188.33856"
	y2="580.0622" />
<polygon
	points="460.25864,43.611572 560.8373,49.30426 575.6115,55.362183 510.29498,64.128235 440.78815,65.41589 340.20944,59.723145 325.43527,53.665222 390.7518,44.899292 "
	id="face_177_178_184_183_182_181_175_176"
	style="fill:rgb(192,192,192);stroke:none"
	opacity="1.0" />
<line
	class="arc1"
	id="link176_@1_175"
	x1="460.25864"
	y1="43.611572"
	x2="390.7518"
	y2="44.899292" />
<line
	class="arc0"
	id="link176_@0_177"
	x1="460.25864"
	y1="43.611572"
	x2="560.8373"
	y2="49.30426" />
<line
	class="arc1"
	id="link69_@1_70"
	x1="572.24"
	y1="574.53314"
	x2="614.3805"
	y2="526.86273" />
<line
	class="arc2"
	id="link69_@2_63"
	x1="572.24"
	y1="574.53314"
	x2="560.8373"
	y2="596.9199" />
<polygon
	points="45.619488,235.60715 45.619488,116.137146 87.75995,68.466736 188.33856,74.159424 230.47905,126.6001 230.47905,246.0701 188.33856,293.74057 87.75995,288.04782 "
	id="face_141_142_100_99_98_97_139_140"
	style="fill:rgb(192,192,192);stroke:none"
	opacity="1.0" />
<line
	class="arc1"
	id="link140_@1_139"
	x1="45.619488"
	y1="235.60715"
	x2="87.75995"
	y2="288.04782" />
<line
	class="arc0"
	id="link140_@0_141"
	x1="45.619488"
	y1="235.60715"
	x2="45.619488"
	y2="116.137146" />
<line
	class="arc2"
	id="link174_@2_175"
	x1="373.1932"
	y1="64.76184"
	x2="390.7518"
	y2="44.899292" />
<line
	class="arc0"
	id="link174_@0_180"
	x1="373.1932"
	y1="64.76184"
	x2="307.87665"
	y2="73.52777" />
<line
	class="arc2"
	id="link22_@2_21"
	x1="99.162575"
	y1="332.4018"
	x2="87.75995"
	y2="354.78854" />
<line
	class="arc3"
	id="link22_@3_138"
	x1="99.162575"
	y1="332.4018"
	x2="99.162575"
	y2="307.3741" />
<line
	class="arc0"
	id="link22_@0_17"
	x1="99.162575"
	y1="332.4018"
	x2="199.7412"
	y2="338.09448" />
<line
	class="arc2"
	id="link138_@2_139"
	x1="99.162575"
	y1="307.3741"
	x2="87.75995"
	y2="288.04782" />
<line
	class="arc0"
	id="link138_@0_96"
	x1="99.162575"
	y1="307.3741"
	x2="199.7412"
	y2="313.0668" />
<line
	class="arc1"
	id="link141_@1_142"
	x1="45.619488"
	y1="116.137146"
	x2="87.75995"
	y2="68.466736" />
<line
	class="arc0"
	id="link175_@0_181"
	x1="390.7518"
	y1="44.899292"
	x2="325.43527"
	y2="53.665222" />
<line
	class="arc1"
	id="link63_@1_64"
	x1="560.8373"
	y1="596.9199"
	x2="575.6115"
	y2="602.9779" />
<line
	class="arc0"
	id="link21_@0_16"
	x1="87.75995"
	y1="354.78854"
	x2="188.33856"
	y2="360.48123" />
<line
	class="arc1"
	id="link75_@1_76"
	x1="572.24"
	y1="354.95218"
	x2="614.3805"
	y2="407.39282" />
<line
	class="arc2"
	id="link75_@2_81"
	x1="572.24"
	y1="354.95218"
	x2="560.8373"
	y2="335.62607" />
<line
	class="arc0"
	id="link139_@0_97"
	x1="87.75995"
	y1="288.04782"
	x2="188.33856"
	y2="293.74057" />
<line
	class="arc1"
	id="link165_@1_166"
	x1="572.24"
	y1="288.21146"
	x2="614.3805"
	y2="240.54108" />
<line
	class="arc2"
	id="link165_@2_159"
	x1="572.24"
	y1="288.21146"
	x2="560.8373"
	y2="310.5984" />
<line
	class="arc2"
	id="link143_@2_142"
	x1="99.162575"
	y1="46.080017"
	x2="87.75995"
	y2="68.466736" />
<line
	class="arc0"
	id="link143_@0_101"
	x1="99.162575"
	y1="46.080017"
	x2="199.7412"
	y2="51.772766" />
<line
	class="arc1"
	id="link5_@1_4"
	x1="269.24802"
	y1="598.1007"
	x2="199.7412"
	y2="599.38837" />
<line
	class="arc2"
	id="link5_@2_8"
	x1="269.24802"
	y1="598.1007"
	x2="286.8065"
	y2="578.23804" />
<line
	class="arc2"
	id="link70_@2_71"
	x1="614.3805"
	y1="526.86273"
	x2="620.53625"
	y2="529.38684" />
<line
	class="arc0"
	id="link70_@0_76"
	x1="614.3805"
	y1="526.86273"
	x2="614.3805"
	y2="407.39282" />
<line
	class="arc1"
	id="link81_@1_82"
	x1="560.8373"
	y1="335.62607"
	x2="575.6115"
	y2="341.68402" />
<line
	class="arc3"
	id="link81_@3_159"
	x1="560.8373"
	y1="335.62607"
	x2="560.8373"
	y2="310.5984" />
<line
	class="arc1"
	id="link159_@1_160"
	x1="560.8373"
	y1="310.5984"
	x2="575.6115"
	y2="316.6563" />
<line
	class="arc1"
	id="link8_@1_9"
	x1="286.8065"
	y1="578.23804"
	x2="259.44016"
	y2="531.8553" />
<line
	class="arc3"
	id="link8_@3_54"
	x1="286.8065"
	y1="578.23804"
	x2="307.87665"
	y2="579.4306" />
<line
	class="arc2"
	id="link76_@2_77"
	x1="614.3805"
	y1="407.39282"
	x2="620.53625"
	y2="409.917" />
<line
	class="arc0"
	id="link142_@0_100"
	x1="87.75995"
	y1="68.466736"
	x2="188.33856"
	y2="74.159424" />
<line
	class="arc2"
	id="link4_@2_13"
	x1="199.7412"
	y1="599.38837"
	x2="188.33856"
	y2="580.0622" />
<line
	class="arc1"
	id="link171_@1_172"
	x1="572.24"
	y1="68.63037"
	x2="614.3805"
	y2="121.071106" />
<line
	class="arc2"
	id="link171_@2_177"
	x1="572.24"
	y1="68.63037"
	x2="560.8373"
	y2="49.30426" />
<line
	class="arc1"
	id="link12_@1_17"
	x1="269.24802"
	y1="336.80685"
	x2="199.7412"
	y2="338.09448" />
<line
	class="arc2"
	id="link12_@2_11"
	x1="269.24802"
	y1="336.80685"
	x2="286.8065"
	y2="358.65707" />
<line
	class="arc3"
	id="link12_@3_102"
	x1="269.24802"
	y1="336.80685"
	x2="269.24802"
	y2="311.7791" />
<line
	class="arc1"
	id="link102_@1_96"
	x1="269.24802"
	y1="311.7791"
	x2="199.7412"
	y2="313.0668" />
<line
	class="arc2"
	id="link102_@2_103"
	x1="269.24802"
	y1="311.7791"
	x2="286.8065"
	y2="291.91635" />
<line
	class="arc1"
	id="link54_@1_48"
	x1="307.87665"
	y1="579.4306"
	x2="280.5103"
	y2="533.04785" />
<line
	class="arc2"
	id="link54_@2_55"
	x1="307.87665"
	y1="579.4306"
	x2="325.43527"
	y2="601.2809" />
<line
	class="arc2"
	id="link166_@2_167"
	x1="614.3805"
	y1="240.54108"
	x2="620.53625"
	y2="243.06522" />
<line
	class="arc0"
	id="link166_@0_172"
	x1="614.3805"
	y1="240.54108"
	x2="614.3805"
	y2="121.071106" />
<polygon
	points="620.53625,529.38684 620.53625,409.917 593.16986,363.5342 527.8534,372.30023 500.48706,426.02856 500.48706,545.4984 527.8534,591.8812 593.16986,583.1152 "
	id="face_77_83_89_95_53_59_65_71"
	style="fill:rgb(192,192,192);stroke:none"
	opacity="1.0" />
<line
	class="arc1"
	id="link71_@1_65"
	x1="620.53625"
	y1="529.38684"
	x2="593.16986"
	y2="583.1152" />
<line
	class="arc0"
	id="link71_@0_77"
	x1="620.53625"
	y1="529.38684"
	x2="620.53625"
	y2="409.917" />
<line
	class="arc1"
	id="link11_@1_10"
	x1="286.8065"
	y1="358.65707"
	x2="259.44016"
	y2="412.38538" />
<line
	class="arc3"
	id="link11_@3_84"
	x1="286.8065"
	y1="358.65707"
	x2="307.87665"
	y2="359.84964" />
<line
	class="arc1"
	id="link13_@1_14"
	x1="188.33856"
	y1="580.0622"
	x2="230.47905"
	y2="532.3918" />
<line
	class="arc1"
	id="link177_@1_178"
	x1="560.8373"
	y1="49.30426"
	x2="575.6115"
	y2="55.362183" />
<line
	class="arc1"
	id="link55_@1_56"
	x1="325.43527"
	y1="601.2809"
	x2="340.20944"
	y2="607.3388" />
<line
	class="arc2"
	id="link17_@2_16"
	x1="199.7412"
	y1="338.09448"
	x2="188.33856"
	y2="360.48123" />
<line
	class="arc3"
	id="link17_@3_96"
	x1="199.7412"
	y1="338.09448"
	x2="199.7412"
	y2="313.0668" />
<line
	class="arc2"
	id="link172_@2_173"
	x1="614.3805"
	y1="121.071106"
	x2="620.53625"
	y2="123.595215" />
<line
	class="arc1"
	id="link103_@1_104"
	x1="286.8065"
	y1="291.91635"
	x2="259.44016"
	y2="245.53363" />
<line
	class="arc3"
	id="link103_@3_150"
	x1="286.8065"
	y1="291.91635"
	x2="307.87665"
	y2="293.10895" />
<line
	class="arc2"
	id="link96_@2_97"
	x1="199.7412"
	y1="313.0668"
	x2="188.33856"
	y2="293.74057" />
<line
	class="arc1"
	id="link77_@1_83"
	x1="620.53625"
	y1="409.917"
	x2="593.16986"
	y2="363.5342" />
<line
	class="arc1"
	id="link84_@1_90"
	x1="307.87665"
	y1="359.84964"
	x2="280.5103"
	y2="413.57794" />
<line
	class="arc2"
	id="link84_@2_85"
	x1="307.87665"
	y1="359.84964"
	x2="325.43527"
	y2="339.98703" />
<line
	class="arc1"
	id="link107_@1_101"
	x1="269.24802"
	y1="50.485107"
	x2="199.7412"
	y2="51.772766" />
<line
	class="arc2"
	id="link107_@2_106"
	x1="269.24802"
	y1="50.485107"
	x2="286.8065"
	y2="72.335266" />
<line
	class="arc1"
	id="link150_@1_144"
	x1="307.87665"
	y1="293.10895"
	x2="280.5103"
	y2="246.72617" />
<line
	class="arc2"
	id="link150_@2_151"
	x1="307.87665"
	y1="293.10895"
	x2="325.43527"
	y2="314.95932" />
<line
	class="arc1"
	id="link16_@1_15"
	x1="188.33856"
	y1="360.48123"
	x2="230.47905"
	y2="412.9219" />
<line
	class="arc2"
	id="link64_@2_65"
	x1="575.6115"
	y1="602.9779"
	x2="593.16986"
	y2="583.1152" />
<line
	class="arc0"
	id="link64_@0_58"
	x1="575.6115"
	y1="602.9779"
	x2="510.29498"
	y2="611.7439" />
<polygon
	points="620.53625,243.06522 620.53625,123.595215 593.16986,77.2124 527.8534,85.97839 500.48706,139.70676 500.48706,259.17676 527.8534,305.55954 593.16986,296.79352 "
	id="face_173_179_185_191_149_155_161_167"
	style="fill:rgb(192,192,192);stroke:none"
	opacity="1.0" />
<line
	class="arc1"
	id="link167_@1_161"
	x1="620.53625"
	y1="243.06522"
	x2="593.16986"
	y2="296.79352" />
<line
	class="arc0"
	id="link167_@0_173"
	x1="620.53625"
	y1="243.06522"
	x2="620.53625"
	y2="123.595215" />
<line
	class="arc1"
	id="link106_@1_105"
	x1="286.8065"
	y1="72.335266"
	x2="259.44016"
	y2="126.06366" />
<line
	class="arc3"
	id="link106_@3_180"
	x1="286.8065"
	y1="72.335266"
	x2="307.87665"
	y2="73.52777" />
<line
	class="arc2"
	id="link9_@2_14"
	x1="259.44016"
	y1="531.8553"
	x2="230.47905"
	y2="532.3918" />
<line
	class="arc3"
	id="link9_@3_48"
	x1="259.44016"
	y1="531.8553"
	x2="280.5103"
	y2="533.04785" />
<line
	class="arc0"
	id="link9_@0_10"
	x1="259.44016"
	y1="531.8553"
	x2="259.44016"
	y2="412.38538" />
<line
	class="arc1"
	id="link85_@1_86"
	x1="325.43527"
	y1="339.98703"
	x2="340.20944"
	y2="346.04495" />
<line
	class="arc3"
	id="link85_@3_151"
	x1="325.43527"
	y1="339.98703"
	x2="325.43527"
	y2="314.95932" />
<line
	class="arc1"
	id="link97_@1_98"
	x1="188.33856"
	y1="293.74057"
	x2="230.47905"
	y2="246.0701" />
<line
	class="arc1"
	id="link151_@1_152"
	x1="325.43527"
	y1="314.95932"
	x2="340.20944"
	y2="321.01724" />
<line
	class="arc2"
	id="link101_@2_100"
	x1="199.7412"
	y1="51.772766"
	x2="188.33856"
	y2="74.159424" />
<line
	class="arc0"
	id="link14_@0_15"
	x1="230.47905"
	y1="532.3918"
	x2="230.47905"
	y2="412.9219" />
<line
	class="arc1"
	id="link173_@1_179"
	x1="620.53625"
	y1="123.595215"
	x2="593.16986"
	y2="77.2124" />
<line
	class="arc0"
	id="link65_@0_59"
	x1="593.16986"
	y1="583.1152"
	x2="527.8534"
	y2="591.8812" />
<line
	class="arc2"
	id="link10_@2_15"
	x1="259.44016"
	y1="412.38538"
	x2="230.47905"
	y2="412.9219" />
<line
	class="arc3"
	id="link10_@3_90"
	x1="259.44016"
	y1="412.38538"
	x2="280.5103"
	y2="413.57794" />
<line
	class="arc1"
	id="link180_@1_186"
	x1="307.87665"
	y1="73.52777"
	x2="280.5103"
	y2="127.256165" />
<line
	class="arc2"
	id="link180_@2_181"
	x1="307.87665"
	y1="73.52777"
	x2="325.43527"
	y2="53.665222" />
<line
	class="arc2"
	id="link48_@2_49"
	x1="280.5103"
	y1="533.04785"
	x2="286.66632"
	y2="535.57196" />
<line
	class="arc0"
	id="link48_@0_90"
	x1="280.5103"
	y1="533.04785"
	x2="280.5103"
	y2="413.57794" />
<line
	class="arc2"
	id="link82_@2_83"
	x1="575.6115"
	y1="341.68402"
	x2="593.16986"
	y2="363.5342" />
<line
	class="arc3"
	id="link82_@3_160"
	x1="575.6115"
	y1="341.68402"
	x2="575.6115"
	y2="316.6563" />
<line
	class="arc0"
	id="link82_@0_88"
	x1="575.6115"
	y1="341.68402"
	x2="510.29498"
	y2="350.45" />
<line
	class="arc1"
	id="link100_@1_99"
	x1="188.33856"
	y1="74.159424"
	x2="230.47905"
	y2="126.6001" />
<line
	class="arc2"
	id="link160_@2_161"
	x1="575.6115"
	y1="316.6563"
	x2="593.16986"
	y2="296.79352" />
<line
	class="arc0"
	id="link160_@0_154"
	x1="575.6115"
	y1="316.6563"
	x2="510.29498"
	y2="325.42233" />
<line
	class="arc2"
	id="link90_@2_91"
	x1="280.5103"
	y1="413.57794"
	x2="286.66632"
	y2="416.10208" />
<line
	class="arc1"
	id="link181_@1_182"
	x1="325.43527"
	y1="53.665222"
	x2="340.20944"
	y2="59.723145" />
<line
	class="arc2"
	id="link104_@2_98"
	x1="259.44016"
	y1="245.53363"
	x2="230.47905"
	y2="246.0701" />
<line
	class="arc3"
	id="link104_@3_144"
	x1="259.44016"
	y1="245.53363"
	x2="280.5103"
	y2="246.72617" />
<line
	class="arc0"
	id="link104_@0_105"
	x1="259.44016"
	y1="245.53363"
	x2="259.44016"
	y2="126.06366" />
<line
	class="arc0"
	id="link83_@0_89"
	x1="593.16986"
	y1="363.5342"
	x2="527.8534"
	y2="372.30023" />
<line
	class="arc0"
	id="link98_@0_99"
	x1="230.47905"
	y1="246.0701"
	x2="230.47905"
	y2="126.6001" />
<line
	class="arc0"
	id="link161_@0_155"
	x1="593.16986"
	y1="296.79352"
	x2="527.8534"
	y2="305.55954" />
<line
	class="arc2"
	id="link105_@2_99"
	x1="259.44016"
	y1="126.06366"
	x2="230.47905"
	y2="126.6001" />
<line
	class="arc3"
	id="link105_@3_186"
	x1="259.44016"
	y1="126.06366"
	x2="280.5103"
	y2="127.256165" />
<line
	class="arc2"
	id="link144_@2_145"
	x1="280.5103"
	y1="246.72617"
	x2="286.66632"
	y2="249.2503" />
<line
	class="arc0"
	id="link144_@0_186"
	x1="280.5103"
	y1="246.72617"
	x2="280.5103"
	y2="127.256165" />
<polygon
	points="286.66632,535.57196 286.66632,416.10208 328.80685,368.4317 429.3855,374.1244 471.52603,426.56506 471.52603,546.035 429.3855,593.7054 328.80685,588.01263 "
	id="face_91_92_93_94_52_51_50_49"
	style="fill:rgb(192,192,192);stroke:none"
	opacity="1.0" />
<line
	class="arc1"
	id="link49_@1_50"
	x1="286.66632"
	y1="535.57196"
	x2="328.80685"
	y2="588.01263" />
<line
	class="arc0"
	id="link49_@0_91"
	x1="286.66632"
	y1="535.57196"
	x2="286.66632"
	y2="416.10208" />
<line
	class="arc2"
	id="link178_@2_179"
	x1="575.6115"
	y1="55.362183"
	x2="593.16986"
	y2="77.2124" />
<line
	class="arc0"
	id="link178_@0_184"
	x1="575.6115"
	y1="55.362183"
	x2="510.29498"
	y2="64.128235" />
<line
	class="arc2"
	id="link56_@2_50"
	x1="340.20944"
	y1="607.3388"
	x2="328.80685"
	y2="588.01263" />
<line
	class="arc0"
	id="link56_@0_57"
	x1="340.20944"
	y1="607.3388"
	x2="440.78815"
	y2="613.03156" />
<line
	class="arc2"
	id="link186_@2_187"
	x1="280.5103"
	y1="127.256165"
	x2="286.66632"
	y2="129.78033" />
<line
	class="arc1"
	id="link91_@1_92"
	x1="286.66632"
	y1="416.10208"
	x2="328.80685"
	y2="368.4317" />
<line
	class="arc0"
	id="link179_@0_185"
	x1="593.16986"
	y1="77.2124"
	x2="527.8534"
	y2="85.97839" />
<line
	class="arc0"
	id="link50_@0_51"
	x1="328.80685"
	y1="588.01263"
	x2="429.3855"
	y2="593.7054" />
<polygon
	points="286.66632,249.2503 286.66632,129.78033 328.80685,82.10986 429.3855,87.80255 471.52603,140.24326 471.52603,259.71323 429.3855,307.3837 328.80685,301.691 "
	id="face_187_188_189_190_148_147_146_145"
	style="fill:rgb(192,192,192);stroke:none"
	opacity="1.0" />
<line
	class="arc1"
	id="link145_@1_146"
	x1="286.66632"
	y1="249.2503"
	x2="328.80685"
	y2="301.691" />
<line
	class="arc0"
	id="link145_@0_187"
	x1="286.66632"
	y1="249.2503"
	x2="286.66632"
	y2="129.78033" />
<line
	class="arc2"
	id="link86_@2_92"
	x1="340.20944"
	y1="346.04495"
	x2="328.80685"
	y2="368.4317" />
<line
	class="arc3"
	id="link86_@3_152"
	x1="340.20944"
	y1="346.04495"
	x2="340.20944"
	y2="321.01724" />
<line
	class="arc0"
	id="link86_@0_87"
	x1="340.20944"
	y1="346.04495"
	x2="440.78815"
	y2="351.73764" />
<line
	class="arc2"
	id="link152_@2_146"
	x1="340.20944"
	y1="321.01724"
	x2="328.80685"
	y2="301.691" />
<line
	class="arc0"
	id="link152_@0_153"
	x1="340.20944"
	y1="321.01724"
	x2="440.78815"
	y2="326.70996" />
<line
	class="arc1"
	id="link187_@1_188"
	x1="286.66632"
	y1="129.78033"
	x2="328.80685"
	y2="82.10986" />
<line
	class="arc0"
	id="link92_@0_93"
	x1="328.80685"
	y1="368.4317"
	x2="429.3855"
	y2="374.1244" />
<line
	class="arc0"
	id="link146_@0_147"
	x1="328.80685"
	y1="301.691"
	x2="429.3855"
	y2="307.3837" />
<line
	class="arc2"
	id="link182_@2_188"
	x1="340.20944"
	y1="59.723145"
	x2="328.80685"
	y2="82.10986" />
<line
	class="arc0"
	id="link182_@0_183"
	x1="340.20944"
	y1="59.723145"
	x2="440.78815"
	y2="65.41589" />
<line
	class="arc1"
	id="link58_@1_57"
	x1="510.29498"
	y1="611.7439"
	x2="440.78815"
	y2="613.03156" />
<line
	class="arc2"
	id="link58_@2_59"
	x1="510.29498"
	y1="611.7439"
	x2="527.8534"
	y2="591.8812" />
<line
	class="arc1"
	id="link59_@1_53"
	x1="527.8534"
	y1="591.8812"
	x2="500.48706"
	y2="545.4984" />
<line
	class="arc0"
	id="link188_@0_189"
	x1="328.80685"
	y1="82.10986"
	x2="429.3855"
	y2="87.80255" />
<line
	class="arc2"
	id="link57_@2_51"
	x1="440.78815"
	y1="613.03156"
	x2="429.3855"
	y2="593.7054" />
<line
	class="arc1"
	id="link88_@1_87"
	x1="510.29498"
	y1="350.45"
	x2="440.78815"
	y2="351.73764" />
<line
	class="arc2"
	id="link88_@2_89"
	x1="510.29498"
	y1="350.45"
	x2="527.8534"
	y2="372.30023" />
<line
	class="arc3"
	id="link88_@3_154"
	x1="510.29498"
	y1="350.45"
	x2="510.29498"
	y2="325.42233" />
<line
	class="arc1"
	id="link154_@1_153"
	x1="510.29498"
	y1="325.42233"
	x2="440.78815"
	y2="326.70996" />
<line
	class="arc2"
	id="link154_@2_155"
	x1="510.29498"
	y1="325.42233"
	x2="527.8534"
	y2="305.55954" />
<line
	class="arc1"
	id="link89_@1_95"
	x1="527.8534"
	y1="372.30023"
	x2="500.48706"
	y2="426.02856" />
<line
	class="arc1"
	id="link51_@1_52"
	x1="429.3855"
	y1="593.7054"
	x2="471.52603"
	y2="546.035" />
<line
	class="arc2"
	id="link87_@2_93"
	x1="440.78815"
	y1="351.73764"
	x2="429.3855"
	y2="374.1244" />
<line
	class="arc3"
	id="link87_@3_153"
	x1="440.78815"
	y1="351.73764"
	x2="440.78815"
	y2="326.70996" />
<line
	class="arc1"
	id="link155_@1_149"
	x1="527.8534"
	y1="305.55954"
	x2="500.48706"
	y2="259.17676" />
<line
	class="arc2"
	id="link153_@2_147"
	x1="440.78815"
	y1="326.70996"
	x2="429.3855"
	y2="307.3837" />
<line
	class="arc1"
	id="link184_@1_183"
	x1="510.29498"
	y1="64.128235"
	x2="440.78815"
	y2="65.41589" />
<line
	class="arc2"
	id="link184_@2_185"
	x1="510.29498"
	y1="64.128235"
	x2="527.8534"
	y2="85.97839" />
<line
	class="arc1"
	id="link93_@1_94"
	x1="429.3855"
	y1="374.1244"
	x2="471.52603"
	y2="426.56506" />
<line
	class="arc1"
	id="link185_@1_191"
	x1="527.8534"
	y1="85.97839"
	x2="500.48706"
	y2="139.70676" />
<line
	class="arc1"
	id="link147_@1_148"
	x1="429.3855"
	y1="307.3837"
	x2="471.52603"
	y2="259.71323" />
<line
	class="arc2"
	id="link53_@2_52"
	x1="500.48706"
	y1="545.4984"
	x2="471.52603"
	y2="546.035" />
<line
	class="arc0"
	id="link53_@0_95"
	x1="500.48706"
	y1="545.4984"
	x2="500.48706"
	y2="426.02856" />
<line
	class="arc2"
	id="link183_@2_189"
	x1="440.78815"
	y1="65.41589"
	x2="429.3855"
	y2="87.80255" />
<line
	class="arc0"
	id="link52_@0_94"
	x1="471.52603"
	y1="546.035"
	x2="471.52603"
	y2="426.56506" />
<line
	class="arc2"
	id="link95_@2_94"
	x1="500.48706"
	y1="426.02856"
	x2="471.52603"
	y2="426.56506" />
<line
	class="arc1"
	id="link189_@1_190"
	x1="429.3855"
	y1="87.80255"
	x2="471.52603"
	y2="140.24326" />
<line
	class="arc2"
	id="link149_@2_148"
	x1="500.48706"
	y1="259.17676"
	x2="471.52603"
	y2="259.71323" />
<line
	class="arc0"
	id="link149_@0_191"
	x1="500.48706"
	y1="259.17676"
	x2="500.48706"
	y2="139.70676" />
<line
	class="arc0"
	id="link148_@0_190"
	x1="471.52603"
	y1="259.71323"
	x2="471.52603"
	y2="140.24326" />
<line
	class="arc2"
	id="link191_@2_190"
	x1="500.48706"
	y1="139.70676"
	x2="471.52603"
	y2="140.24326" />
</svg>
