<?xml version="1.0" encoding="UTF-8" standalone="no"?>
<!-- Created with Jerboa -->

<svg
   width="868.07959"
   height="435.62091"
   version="1.1"
   id="svg1"
   sodipodi:docname="g-carte-decousure-3-G.svg"
   inkscape:version="1.3.2 (091e20ef0f, 2023-11-25, custom)"
   xmlns:inkscape="http://www.inkscape.org/namespaces/inkscape"
   xmlns:sodipodi="http://sodipodi.sourceforge.net/DTD/sodipodi-0.dtd"
   xmlns="http://www.w3.org/2000/svg"
   xmlns:svg="http://www.w3.org/2000/svg">
  <defs
     id="defs1" />
  <sodipodi:namedview
     id="namedview1"
     pagecolor="#ffffff"
     bordercolor="#000000"
     borderopacity="0.25"
     inkscape:showpageshadow="2"
     inkscape:pageopacity="0.0"
     inkscape:pagecheckerboard="0"
     inkscape:deskcolor="#d1d1d1"
     showgrid="false"
     inkscape:zoom="0.98767334"
     inkscape:cx="277.9259"
     inkscape:cy="358.92434"
     inkscape:window-width="1892"
     inkscape:window-height="1034"
     inkscape:window-x="9"
     inkscape:window-y="27"
     inkscape:window-maximized="1"
     inkscape:current-layer="svg1" />
  <style
     id="style">
		.arc0 {
			fill:none;
			fill-rule:evenodd;
			stroke:black;
			stroke-width:4;
			stroke-linecap:round;
			stroke-linejoin:round;
			stroke-opacity:1;
		}
		.arc1 {
			fill:none;
			fill-rule:evenodd;
			stroke:red;
			stroke-width:4;
			stroke-linecap:round;
			stroke-linejoin:round;
			stroke-opacity:1;
		}
		.arc2 {
			fill:none;
			fill-rule:evenodd;
			stroke:blue;
			stroke-width:4;
			stroke-linecap:round;
			stroke-linejoin:round;
			stroke-opacity:1;
		}
		.arc3 {
			fill:none;
			fill-rule:evenodd;
			stroke:green;
			stroke-width:4;
			stroke-linecap:round;
			stroke-linejoin:round;
			stroke-opacity:1;
		}
		.topological-dart {
			fill:#000000;
			stroke:#000000;
			stroke-width:0;
			stroke-linecap:round;
			stroke-linejoin:round;
			stroke-dasharray:none;
			paint-order:markers fill stroke;
		}
	</style>
  <polygon
     points="700.733,201.90173 700.733,371.39322 638.4114,441.893 495.72092,433.81683 433.39935,356.26224 433.39935,186.77078 495.72092,116.27097 638.4114,124.34717 "
     id="face_28_29_30_31_26_25_24_23"
     style="fill:#c0c0c0;stroke:none"
     opacity="1"
     transform="translate(-214.96021,-85.689572)" />
  <line
     class="arc1"
     id="link23_@1_24"
     x1="218.43915"
     y1="270.57266"
     x2="280.76071"
     y2="348.12726"
     style="stroke:#888888;stroke-opacity:1" />
  <line
     class="arc2"
     id="link23_@2_1"
     x1="218.43915"
     y1="270.57266"
     x2="175.60843"
     y2="271.36615"
     style="stroke:#888888;stroke-opacity:1" />
  <line
     class="arc0"
     id="link23_@0_28"
     x1="218.43915"
     y1="270.57266"
     x2="218.43915"
     y2="101.08121"
     style="stroke:#888888;stroke-opacity:1" />
  <polygon
     points="216.96019,210.86389 216.96019,380.35538 257.43228,448.95087 350.09656,436.5146 390.56863,357.05573 390.56863,187.56424 350.09656,118.96872 257.43228,131.40503 "
     id="face_2_3_4_5_6_7_0_1"
     style="fill:#c0c0c0;stroke:none"
     opacity="1"
     transform="translate(-214.96021,-85.689572)" />
  <line
     class="arc1"
     id="link1_@1_0"
     x1="175.60843"
     y1="271.36615"
     x2="135.13635"
     y2="350.82501"
     style="stroke:#888888;stroke-opacity:1" />
  <line
     class="arc0"
     id="link1_@0_2"
     x1="175.60843"
     y1="271.36615"
     x2="175.60843"
     y2="101.87466"
     style="stroke:#888888;stroke-opacity:1" />
  <line
     class="arc1"
     id="link28_@1_29"
     x1="218.43915"
     y1="101.08121"
     x2="280.76071"
     y2="30.58139"
     style="stroke:#888888;stroke-opacity:1" />
  <line
     class="arc2"
     id="link28_@2_2"
     x1="218.43915"
     y1="101.08121"
     x2="175.60843"
     y2="101.87466"
     style="stroke:#888888;stroke-opacity:1" />
  <line
     class="arc1"
     id="link2_@1_3"
     x1="175.60843"
     y1="101.87466"
     x2="135.13635"
     y2="33.279144"
     style="stroke:#888888;stroke-opacity:1" />
  <line
     class="arc2"
     id="link24_@2_19"
     x1="280.76071"
     y1="348.12726"
     x2="263.89731"
     y2="381.23511"
     style="stroke:#888888;stroke-opacity:1" />
  <line
     class="arc0"
     id="link24_@0_25"
     x1="280.76071"
     y1="348.12726"
     x2="423.45117"
     y2="356.20343"
     style="stroke:#888888;stroke-opacity:1" />
  <polygon
     points="447.93954,498.30054 305.24905,490.22433 283.3996,481.2653 376.06387,468.82898 478.8575,466.92468 621.54803,475.0009 643.39746,483.95996 550.7332,496.39624 "
     id="face_20_21_16_15_14_13_18_19"
     style="fill:#c0c0c0;stroke:none"
     opacity="1"
     transform="translate(-214.96021,-85.689572)" />
  <line
     class="arc1"
     id="link19_@1_18"
     x1="263.89731"
     y1="381.23511"
     x2="161.10367"
     y2="383.1394"
     style="stroke:#888888;stroke-opacity:1" />
  <line
     class="arc0"
     id="link19_@0_20"
     x1="263.89731"
     y1="381.23511"
     x2="406.58783"
     y2="389.31131"
     style="stroke:#888888;stroke-opacity:1" />
  <line
     class="arc2"
     id="link29_@2_34"
     x1="280.76071"
     y1="30.58139"
     x2="263.89731"
     y2="2"
     style="stroke:#888888;stroke-opacity:1" />
  <line
     class="arc0"
     id="link29_@0_30"
     x1="280.76071"
     y1="30.58139"
     x2="423.45117"
     y2="38.657593"
     style="stroke:#888888;stroke-opacity:1" />
  <line
     class="arc2"
     id="link0_@2_18"
     x1="135.13635"
     y1="350.82501"
     x2="161.10367"
     y2="383.1394"
     style="stroke:#888888;stroke-opacity:1" />
  <line
     class="arc0"
     id="link0_@0_7"
     x1="135.13635"
     y1="350.82501"
     x2="42.472076"
     y2="363.26129"
     style="stroke:#888888;stroke-opacity:1" />
  <line
     class="arc0"
     id="link18_@0_13"
     x1="161.10367"
     y1="383.1394"
     x2="68.439392"
     y2="395.57571"
     style="stroke:#888888;stroke-opacity:1" />
  <line
     class="arc2"
     id="link3_@2_33"
     x1="135.13635"
     y1="33.279144"
     x2="161.10367"
     y2="3.9042969"
     style="stroke:#888888;stroke-opacity:1" />
  <line
     class="arc2"
     id="link30_@2_35"
     x1="423.45117"
     y1="38.657593"
     x2="406.58783"
     y2="10.076172"
     style="stroke:#888888;stroke-opacity:1" />
  <polygon
     points="447.93954,119.06543 305.24905,110.9892 283.3996,102.03015 376.06387,89.59387 478.8575,87.689575 621.54803,95.76575 643.39746,104.72485 550.7332,117.1611 "
     id="face_35_36_41_40_39_38_33_34"
     style="fill:#c0c0c0;stroke:none"
     opacity="1"
     transform="translate(-214.96021,-85.689572)" />
  <line
     class="arc1"
     id="link34_@1_33"
     x1="263.89731"
     y1="2"
     x2="161.10367"
     y2="3.9042969"
     style="stroke:#888888;stroke-opacity:1" />
  <line
     class="arc0"
     id="link34_@0_35"
     x1="263.89731"
     y1="2"
     x2="406.58783"
     y2="10.076172"
     style="stroke:#888888;stroke-opacity:1" />
  <line
     class="arc0"
     id="link3_@0_4"
     x1="135.13635"
     y1="33.279144"
     x2="42.472076"
     y2="45.715454"
     style="stroke:#888888;stroke-opacity:1" />
  <line
     class="arc0"
     id="link33_@0_38"
     x1="161.10367"
     y1="3.9042969"
     x2="68.439392"
     y2="16.340576"
     style="stroke:#888888;stroke-opacity:1" />
  <line
     class="arc1"
     id="link25_@1_26"
     x1="423.45117"
     y1="356.20343"
     x2="485.77277"
     y2="285.70364"
     style="stroke:#888888;stroke-opacity:1" />
  <line
     class="arc2"
     id="link25_@2_20"
     x1="423.45117"
     y1="356.20343"
     x2="406.58783"
     y2="389.31131"
     style="stroke:#888888;stroke-opacity:1" />
  <line
     class="arc1"
     id="link20_@1_21"
     x1="406.58783"
     y1="389.31131"
     x2="428.43726"
     y2="398.27039"
     style="stroke:#888888;stroke-opacity:1" />
  <line
     class="arc1"
     id="link30_@1_31"
     x1="423.45117"
     y1="38.657593"
     x2="485.77277"
     y2="116.21216"
     style="stroke:#888888;stroke-opacity:1" />
  <line
     class="arc2"
     id="link26_@2_27"
     x1="485.77277"
     y1="285.70364"
     x2="494.87659"
     y2="289.43658"
     style="stroke:#888888;stroke-opacity:1" />
  <line
     class="arc0"
     id="link26_@0_31"
     x1="485.77277"
     y1="285.70364"
     x2="485.77277"
     y2="116.21216"
     style="stroke:#888888;stroke-opacity:1" />
  <line
     class="arc1"
     id="link35_@1_36"
     x1="406.58783"
     y1="10.076172"
     x2="428.43726"
     y2="19.035278"
     style="stroke:#888888;stroke-opacity:1" />
  <line
     class="arc2"
     id="link31_@2_32"
     x1="485.77277"
     y1="116.21216"
     x2="494.87659"
     y2="119.9451"
     style="stroke:#888888;stroke-opacity:1" />
  <line
     class="arc1"
     id="link7_@1_6"
     x1="42.472076"
     y1="363.26129"
     x2="2"
     y2="294.6658"
     style="stroke:#888888;stroke-opacity:1" />
  <line
     class="arc2"
     id="link7_@2_13"
     x1="42.472076"
     y1="363.26129"
     x2="68.439392"
     y2="395.57571"
     style="stroke:#888888;stroke-opacity:1" />
  <polygon
     points="536.2284,228.93436 536.2284,398.42584 576.70044,467.0213 669.36475,454.58502 709.8368,375.12616 709.8368,205.63467 669.36475,137.03915 576.70044,149.47546 "
     id="face_32_37_42_47_12_17_22_27"
     style="fill:#c0c0c0;stroke:none"
     opacity="1"
     transform="translate(-214.96021,-85.689572)" />
  <line
     class="arc1"
     id="link27_@1_22"
     x1="494.87659"
     y1="289.43658"
     x2="454.40454"
     y2="368.89545"
     style="stroke:#ff0000;stroke-opacity:1" />
  <line
     class="arc3"
     id="link27_@3_66"
     x1="494.87659"
     y1="289.43658"
     x2="546.81128"
     y2="292.37607"
     style="stroke:#008000;stroke-opacity:1" />
  <line
     class="arc0"
     id="link27_@0_32"
     x1="494.87659"
     y1="289.43658"
     x2="494.87659"
     y2="119.9451"
     style="stroke:#000000;stroke-opacity:1" />
  <line
     class="arc1"
     id="link13_@1_14"
     x1="68.439392"
     y1="395.57571"
     x2="90.288849"
     y2="404.53476"
     style="stroke:#888888;stroke-opacity:1" />
  <line
     class="arc1"
     id="link32_@1_37"
     x1="494.87659"
     y1="119.9451"
     x2="454.40454"
     y2="51.349579"
     style="stroke:#ff0000;stroke-opacity:1" />
  <line
     class="arc3"
     id="link32_@3_72"
     x1="494.87659"
     y1="119.9451"
     x2="546.81128"
     y2="122.88458"
     style="stroke:#008000;stroke-opacity:1" />
  <line
     class="arc1"
     id="link4_@1_5"
     x1="42.472076"
     y1="45.715454"
     x2="2"
     y2="125.17432"
     style="stroke:#888888;stroke-opacity:1" />
  <line
     class="arc2"
     id="link4_@2_38"
     x1="42.472076"
     y1="45.715454"
     x2="68.439392"
     y2="16.340576"
     style="stroke:#888888;stroke-opacity:1" />
  <polygon
     points="1071.9359,222.91168 1071.9359,392.40314 1009.6144,462.90295 866.92395,454.82675 804.60236,377.2722 804.60236,207.7807 866.92395,137.28091 1009.6144,145.35715 "
     id="face_73_74_75_76_70_69_68_67"
     style="fill:#c0c0c0;stroke:none"
     opacity="1"
     transform="translate(-214.96021,-85.689572)" />
  <line
     class="arc1"
     id="link67_@1_68"
     x1="589.64215"
     y1="291.58261"
     x2="651.96375"
     y2="369.13718"
     style="stroke:#888888;stroke-opacity:1" />
  <line
     class="arc2"
     id="link67_@2_66"
     x1="589.64215"
     y1="291.58261"
     x2="546.81128"
     y2="292.37607"
     style="stroke:#888888;stroke-opacity:1" />
  <line
     class="arc0"
     id="link67_@0_73"
     x1="589.64215"
     y1="291.58261"
     x2="589.64215"
     y2="122.09113"
     style="stroke:#888888;stroke-opacity:1" />
  <polygon
     points="761.7715,378.06564 761.7715,208.57416 721.29944,139.97864 628.63513,152.41495 588.1631,231.87384 588.1631,401.3653 628.63513,469.96082 721.29944,457.5245 "
     id="face_72_78_84_90_48_54_60_66"
     style="fill:#c0c0c0;stroke:none"
     opacity="1"
     transform="translate(-214.96022,-85.689577)" />
  <line
     class="arc1"
     id="link66_@1_60"
     x1="546.81128"
     y1="292.37607"
     x2="506.33923"
     y2="371.83493"
     style="stroke:#ff0000;stroke-opacity:1" />
  <line
     class="arc0"
     id="link66_@0_72"
     x1="546.81128"
     y1="292.37607"
     x2="546.81128"
     y2="122.88458"
     style="stroke:#000000;stroke-opacity:1" />
  <line
     class="arc2"
     id="link21_@2_22"
     x1="428.43726"
     y1="398.27039"
     x2="454.40454"
     y2="368.89545"
     style="stroke:#888888;stroke-opacity:1" />
  <line
     class="arc0"
     id="link21_@0_16"
     x1="428.43726"
     y1="398.27039"
     x2="335.77301"
     y2="410.70667"
     style="stroke:#888888;stroke-opacity:1" />
  <line
     class="arc1"
     id="link38_@1_39"
     x1="68.439392"
     y1="16.340576"
     x2="90.288849"
     y2="25.299622"
     style="stroke:#888888;stroke-opacity:1" />
  <line
     class="arc1"
     id="link73_@1_74"
     x1="589.64215"
     y1="122.09113"
     x2="651.96375"
     y2="51.591339"
     style="stroke:#888888;stroke-opacity:1" />
  <line
     class="arc2"
     id="link73_@2_72"
     x1="589.64215"
     y1="122.09113"
     x2="546.81128"
     y2="122.88458"
     style="stroke:#888888;stroke-opacity:1" />
  <line
     class="arc1"
     id="link72_@1_78"
     x1="546.81128"
     y1="122.88458"
     x2="506.33923"
     y2="54.289062" />
  <line
     class="arc3"
     id="link22_@3_60"
     x1="454.40454"
     y1="368.89545"
     x2="506.33923"
     y2="371.83493"
     style="stroke:#008000;stroke-opacity:1" />
  <line
     class="arc0"
     id="link22_@0_17"
     x1="454.40454"
     y1="368.89545"
     x2="361.74023"
     y2="381.33173" />
  <line
     class="arc2"
     id="link68_@2_62"
     x1="651.96375"
     y1="369.13718"
     x2="635.10034"
     y2="402.24506"
     style="stroke:#888888;stroke-opacity:1" />
  <line
     class="arc0"
     id="link68_@0_69"
     x1="651.96375"
     y1="369.13718"
     x2="794.65417"
     y2="377.21338"
     style="stroke:#888888;stroke-opacity:1" />
  <line
     class="arc2"
     id="link6_@2_8"
     x1="2"
     y1="294.6658"
     x2="11.103973"
     y2="298.39874"
     style="stroke:#888888;stroke-opacity:1" />
  <line
     class="arc0"
     id="link6_@0_5"
     x1="2"
     y1="294.6658"
     x2="2"
     y2="125.17432"
     style="stroke:#888888;stroke-opacity:1" />
  <line
     class="arc2"
     id="link36_@2_37"
     x1="428.43726"
     y1="19.035278"
     x2="454.40454"
     y2="51.349579"
     style="stroke:#888888;stroke-opacity:1" />
  <line
     class="arc0"
     id="link36_@0_41"
     x1="428.43726"
     y1="19.035278"
     x2="335.77301"
     y2="31.471527"
     style="stroke:#888888;stroke-opacity:1" />
  <line
     class="arc2"
     id="link5_@2_43"
     x1="2"
     y1="125.17432"
     x2="11.103973"
     y2="128.90726"
     style="stroke:#888888;stroke-opacity:1" />
  <polygon
     points="819.1425,519.3105 676.4521,511.23428 654.6026,502.2752 747.26685,489.83893 850.06055,487.93463 992.75104,496.01083 1014.6003,504.96988 921.9361,517.4062 "
     id="face_63_64_58_57_56_55_61_62"
     style="fill:#c0c0c0;stroke:none"
     opacity="1"
     transform="translate(-214.96021,-85.689572)" />
  <line
     class="arc1"
     id="link62_@1_61"
     x1="635.10034"
     y1="402.24506"
     x2="532.30664"
     y2="404.14935"
     style="stroke:#888888;stroke-opacity:1" />
  <line
     class="arc0"
     id="link62_@0_63"
     x1="635.10034"
     y1="402.24506"
     x2="777.79083"
     y2="410.32126"
     style="stroke:#888888;stroke-opacity:1" />
  <line
     class="arc3"
     id="link37_@3_78"
     x1="454.40454"
     y1="51.349579"
     x2="506.33923"
     y2="54.289062" />
  <line
     class="arc0"
     id="link37_@0_42"
     x1="454.40454"
     y1="51.349579"
     x2="361.74023"
     y2="63.785889" />
  <line
     class="arc2"
     id="link84_@2_85"
     x1="413.67493"
     y1="66.725372"
     x2="439.6424"
     y2="37.350494"
     style="stroke:#888888;stroke-opacity:1" />
  <line
     class="arc2"
     id="link74_@2_80"
     x1="651.96375"
     y1="51.591339"
     x2="635.10034"
     y2="23.009888"
     style="stroke:#888888;stroke-opacity:1" />
  <line
     class="arc0"
     id="link74_@0_75"
     x1="651.96375"
     y1="51.591339"
     x2="794.65417"
     y2="59.667572"
     style="stroke:#888888;stroke-opacity:1" />
  <line
     class="arc2"
     id="link60_@2_61"
     x1="506.33923"
     y1="371.83493"
     x2="532.30664"
     y2="404.14935"
     style="stroke:#888888;stroke-opacity:1" />
  <line
     class="arc0"
     id="link60_@0_54"
     x1="506.33923"
     y1="371.83493"
     x2="413.67493"
     y2="384.27124" />
  <polygon
     points="493.3978,229.72778 493.3978,399.21927 431.0762,469.71906 288.3857,461.64288 226.06418,384.08832 226.06418,214.59683 288.3857,144.09702 431.0762,152.17325 "
     id="face_43_44_45_46_11_10_9_8"
     style="fill:#c0c0c0;stroke:none"
     opacity="1"
     transform="translate(-214.96021,-85.689572)" />
  <line
     class="arc1"
     id="link8_@1_9"
     x1="11.103973"
     y1="298.39874"
     x2="73.425507"
     y2="375.95331"
     style="stroke:#888888;stroke-opacity:1" />
  <line
     class="arc0"
     id="link8_@0_43"
     x1="11.103973"
     y1="298.39874"
     x2="11.103973"
     y2="128.90726"
     style="stroke:#888888;stroke-opacity:1" />
  <line
     class="arc0"
     id="link61_@0_55"
     x1="532.30664"
     y1="404.14935"
     x2="439.6424"
     y2="416.58563"
     style="stroke:#888888;stroke-opacity:1" />
  <line
     class="arc2"
     id="link14_@2_9"
     x1="90.288849"
     y1="404.53476"
     x2="73.425507"
     y2="375.95331"
     style="stroke:#888888;stroke-opacity:1" />
  <line
     class="arc0"
     id="link14_@0_15"
     x1="90.288849"
     y1="404.53476"
     x2="232.97934"
     y2="412.61096"
     style="stroke:#888888;stroke-opacity:1" />
  <line
     class="arc2"
     id="link78_@2_79"
     x1="506.33923"
     y1="54.289062"
     x2="532.30664"
     y2="24.914215"
     style="stroke:#888888;stroke-opacity:1" />
  <line
     class="arc2"
     id="link75_@2_81"
     x1="794.65417"
     y1="59.667572"
     x2="777.79083"
     y2="31.086151"
     style="stroke:#888888;stroke-opacity:1" />
  <polygon
     points="819.1425,140.07535 676.4521,131.99915 654.6026,123.04007 747.26685,110.60379 850.06055,108.69946 992.75104,116.77573 1014.6003,125.73477 921.9361,138.17105 "
     id="face_81_82_88_87_86_85_79_80"
     style="fill:#c0c0c0;stroke:none"
     opacity="1"
     transform="translate(-214.96021,-85.689572)" />
  <line
     class="arc1"
     id="link80_@1_79"
     x1="635.10034"
     y1="23.009888"
     x2="532.30664"
     y2="24.914215"
     style="stroke:#888888;stroke-opacity:1" />
  <line
     class="arc0"
     id="link80_@0_81"
     x1="635.10034"
     y1="23.009888"
     x2="777.79083"
     y2="31.086151"
     style="stroke:#888888;stroke-opacity:1" />
  <line
     class="arc0"
     id="link78_@0_84"
     x1="506.33923"
     y1="54.289062"
     x2="413.67493"
     y2="66.725372" />
  <line
     class="arc1"
     id="link43_@1_44"
     x1="11.103973"
     y1="128.90726"
     x2="73.425507"
     y2="58.40744"
     style="stroke:#888888;stroke-opacity:1" />
  <line
     class="arc0"
     id="link9_@0_10"
     x1="73.425507"
     y1="375.95331"
     x2="216.116"
     y2="384.02948"
     style="stroke:#888888;stroke-opacity:1" />
  <line
     class="arc0"
     id="link79_@0_85"
     x1="532.30664"
     y1="24.914215"
     x2="439.6424"
     y2="37.350494"
     style="stroke:#888888;stroke-opacity:1" />
  <line
     class="arc2"
     id="link39_@2_44"
     x1="90.288849"
     y1="25.299622"
     x2="73.425507"
     y2="58.40744"
     style="stroke:#888888;stroke-opacity:1" />
  <line
     class="arc0"
     id="link39_@0_40"
     x1="90.288849"
     y1="25.299622"
     x2="232.97934"
     y2="33.375854"
     style="stroke:#888888;stroke-opacity:1" />
  <line
     class="arc1"
     id="link69_@1_70"
     x1="794.65417"
     y1="377.21338"
     x2="856.97571"
     y2="306.71356"
     style="stroke:#888888;stroke-opacity:1" />
  <line
     class="arc2"
     id="link69_@2_63"
     x1="794.65417"
     y1="377.21338"
     x2="777.79083"
     y2="410.32126"
     style="stroke:#888888;stroke-opacity:1" />
  <line
     class="arc0"
     id="link44_@0_45"
     x1="73.425507"
     y1="58.40744"
     x2="216.116"
     y2="66.483673"
     style="stroke:#888888;stroke-opacity:1" />
  <line
     class="arc1"
     id="link63_@1_64"
     x1="777.79083"
     y1="410.32126"
     x2="799.64008"
     y2="419.2803"
     style="stroke:#888888;stroke-opacity:1" />
  <line
     class="arc1"
     id="link16_@1_15"
     x1="335.77301"
     y1="410.70667"
     x2="232.97934"
     y2="412.61096"
     style="stroke:#888888;stroke-opacity:1" />
  <line
     class="arc2"
     id="link16_@2_17"
     x1="335.77301"
     y1="410.70667"
     x2="361.74023"
     y2="381.33173"
     style="stroke:#888888;stroke-opacity:1" />
  <line
     class="arc1"
     id="link75_@1_76"
     x1="794.65417"
     y1="59.667572"
     x2="856.97571"
     y2="137.22211"
     style="stroke:#888888;stroke-opacity:1" />
  <line
     class="arc1"
     id="link17_@1_12"
     x1="361.74023"
     y1="381.33173"
     x2="321.26819"
     y2="312.73627" />
  <line
     class="arc3"
     id="link17_@3_54"
     x1="361.74023"
     y1="381.33173"
     x2="413.67493"
     y2="384.27124" />
  <line
     class="arc2"
     id="link70_@2_71"
     x1="856.97571"
     y1="306.71356"
     x2="866.07959"
     y2="310.44653"
     style="stroke:#888888;stroke-opacity:1" />
  <line
     class="arc0"
     id="link70_@0_76"
     x1="856.97571"
     y1="306.71356"
     x2="856.97571"
     y2="137.22211"
     style="stroke:#888888;stroke-opacity:1" />
  <line
     class="arc2"
     id="link15_@2_10"
     x1="232.97934"
     y1="412.61096"
     x2="216.116"
     y2="384.02948"
     style="stroke:#888888;stroke-opacity:1" />
  <line
     class="arc1"
     id="link81_@1_82"
     x1="777.79083"
     y1="31.086151"
     x2="799.64008"
     y2="40.045197"
     style="stroke:#888888;stroke-opacity:1" />
  <line
     class="arc1"
     id="link41_@1_40"
     x1="335.77301"
     y1="31.471527"
     x2="232.97934"
     y2="33.375854"
     style="stroke:#888888;stroke-opacity:1" />
  <line
     class="arc2"
     id="link41_@2_42"
     x1="335.77301"
     y1="31.471527"
     x2="361.74023"
     y2="63.785889"
     style="stroke:#888888;stroke-opacity:1" />
  <line
     class="arc2"
     id="link76_@2_77"
     x1="856.97571"
     y1="137.22211"
     x2="866.07959"
     y2="140.95502"
     style="stroke:#888888;stroke-opacity:1" />
  <line
     class="arc1"
     id="link42_@1_47"
     x1="361.74023"
     y1="63.785889"
     x2="321.26819"
     y2="143.24478" />
  <line
     class="arc3"
     id="link42_@3_84"
     x1="361.74023"
     y1="63.785889"
     x2="413.67493"
     y2="66.725372"
     style="stroke:#008000;stroke-opacity:1" />
  <line
     class="arc1"
     id="link10_@1_11"
     x1="216.116"
     y1="384.02948"
     x2="278.43759"
     y2="313.52969"
     style="stroke:#888888;stroke-opacity:1" />
  <line
     class="arc2"
     id="link54_@2_55"
     x1="413.67493"
     y1="384.27124"
     x2="439.6424"
     y2="416.58563"
     style="stroke:#888888;stroke-opacity:1" />
  <line
     class="arc1"
     id="link54_@1_48"
     x1="413.67493"
     y1="384.27124"
     x2="373.20288"
     y2="315.67572" />
  <line
     class="arc2"
     id="link40_@2_45"
     x1="232.97934"
     y1="33.375854"
     x2="216.116"
     y2="66.483673"
     style="stroke:#888888;stroke-opacity:1" />
  <polygon
     points="907.4313,249.94427 907.4313,419.43576 947.9033,488.03125 1040.5676,475.59497 1081.0398,396.1361 1081.0398,226.64459 1040.5676,158.04913 947.9033,170.48541 "
     id="face_77_83_89_95_53_59_65_71"
     style="fill:#c0c0c0;stroke:none"
     opacity="1"
     transform="translate(-214.96021,-85.689572)" />
  <line
     class="arc1"
     id="link71_@1_65"
     x1="866.07959"
     y1="310.44653"
     x2="825.60742"
     y2="389.9054"
     style="stroke:#888888;stroke-opacity:1" />
  <line
     class="arc0"
     id="link71_@0_77"
     x1="866.07959"
     y1="310.44653"
     x2="866.07959"
     y2="140.95502"
     style="stroke:#888888;stroke-opacity:1" />
  <line
     class="arc1"
     id="link55_@1_56"
     x1="439.6424"
     y1="416.58563"
     x2="461.49188"
     y2="425.54471"
     style="stroke:#888888;stroke-opacity:1" />
  <line
     class="arc1"
     id="link77_@1_83"
     x1="866.07959"
     y1="140.95502"
     x2="825.60742"
     y2="72.359558"
     style="stroke:#888888;stroke-opacity:1" />
  <line
     class="arc1"
     id="link45_@1_46"
     x1="216.116"
     y1="66.483673"
     x2="278.43759"
     y2="144.03821"
     style="stroke:#888888;stroke-opacity:1" />
  <line
     class="arc1"
     id="link84_@1_90"
     x1="413.67493"
     y1="66.725372"
     x2="373.20288"
     y2="146.18427" />
  <line
     class="arc2"
     id="link12_@2_11"
     x1="321.26819"
     y1="312.73627"
     x2="278.43759"
     y2="313.52969"
     style="stroke:#888888;stroke-opacity:1" />
  <line
     class="arc3"
     id="link12_@3_48"
     x1="321.26819"
     y1="312.73627"
     x2="373.20288"
     y2="315.67572" />
  <line
     class="arc0"
     id="link12_@0_47"
     x1="321.26819"
     y1="312.73627"
     x2="321.26819"
     y2="143.24478" />
  <line
     class="arc0"
     id="link11_@0_46"
     x1="278.43759"
     y1="313.52969"
     x2="278.43759"
     y2="144.03821"
     style="stroke:#888888;stroke-opacity:1" />
  <line
     class="arc2"
     id="link64_@2_65"
     x1="799.64008"
     y1="419.2803"
     x2="825.60742"
     y2="389.9054"
     style="stroke:#888888;stroke-opacity:1" />
  <line
     class="arc0"
     id="link64_@0_58"
     x1="799.64008"
     y1="419.2803"
     x2="706.97589"
     y2="431.71661"
     style="stroke:#888888;stroke-opacity:1" />
  <line
     class="arc1"
     id="link85_@1_86"
     x1="439.6424"
     y1="37.350494"
     x2="461.49188"
     y2="46.30957"
     style="stroke:#888888;stroke-opacity:1" />
  <line
     class="arc2"
     id="link47_@2_46"
     x1="321.26819"
     y1="143.24478"
     x2="278.43759"
     y2="144.03821"
     style="stroke:#888888;stroke-opacity:1" />
  <line
     class="arc3"
     id="link47_@3_90"
     x1="321.26819"
     y1="143.24478"
     x2="373.20288"
     y2="146.18427" />
  <line
     class="arc0"
     id="link65_@0_59"
     x1="825.60742"
     y1="389.9054"
     x2="732.94312"
     y2="402.34167"
     style="stroke:#888888;stroke-opacity:1" />
  <line
     class="arc2"
     id="link48_@2_49"
     x1="373.20288"
     y1="315.67572"
     x2="382.30695"
     y2="319.40866"
     style="stroke:#888888;stroke-opacity:1" />
  <line
     class="arc0"
     id="link48_@0_90"
     x1="373.20288"
     y1="315.67572"
     x2="373.20288"
     y2="146.18427" />
  <line
     class="arc2"
     id="link82_@2_83"
     x1="799.64008"
     y1="40.045197"
     x2="825.60742"
     y2="72.359558"
     style="stroke:#888888;stroke-opacity:1" />
  <line
     class="arc0"
     id="link82_@0_88"
     x1="799.64008"
     y1="40.045197"
     x2="706.97589"
     y2="52.481476"
     style="stroke:#888888;stroke-opacity:1" />
  <line
     class="arc2"
     id="link90_@2_91"
     x1="373.20288"
     y1="146.18427"
     x2="382.30695"
     y2="149.91718"
     style="stroke:#888888;stroke-opacity:1" />
  <line
     class="arc0"
     id="link83_@0_89"
     x1="825.60742"
     y1="72.359558"
     x2="732.94312"
     y2="84.795837"
     style="stroke:#888888;stroke-opacity:1" />
  <polygon
     points="659.58875,165.10696 802.2792,173.1832 864.6007,250.73773 864.6007,420.22922 802.2792,490.72903 659.58875,482.6528 597.26715,405.09824 597.26715,235.60675 "
     id="face_91_92_93_94_52_51_50_49"
     style="fill:#c0c0c0;stroke:none"
     opacity="1"
     transform="translate(-214.96021,-85.689571)" />
  <line
     class="arc1"
     id="link49_@1_50"
     x1="382.30695"
     y1="319.40866"
     x2="444.62854"
     y2="396.96323"
     style="stroke:#888888;stroke-opacity:1" />
  <line
     class="arc0"
     id="link49_@0_91"
     x1="382.30695"
     y1="319.40866"
     x2="382.30695"
     y2="149.91718"
     style="stroke:#888888;stroke-opacity:1" />
  <line
     class="arc2"
     id="link56_@2_50"
     x1="461.49188"
     y1="425.54471"
     x2="444.62854"
     y2="396.96323"
     style="stroke:#888888;stroke-opacity:1" />
  <line
     class="arc0"
     id="link56_@0_57"
     x1="461.49188"
     y1="425.54471"
     x2="604.18231"
     y2="433.62091"
     style="stroke:#888888;stroke-opacity:1" />
  <line
     class="arc1"
     id="link91_@1_92"
     x1="382.30695"
     y1="149.91718"
     x2="444.62854"
     y2="79.417389"
     style="stroke:#888888;stroke-opacity:1" />
  <line
     class="arc0"
     id="link50_@0_51"
     x1="444.62854"
     y1="396.96323"
     x2="587.31897"
     y2="405.03946"
     style="stroke:#888888;stroke-opacity:1" />
  <line
     class="arc2"
     id="link86_@2_92"
     x1="461.49188"
     y1="46.30957"
     x2="444.62854"
     y2="79.417389"
     style="stroke:#888888;stroke-opacity:1" />
  <line
     class="arc0"
     id="link86_@0_87"
     x1="461.49188"
     y1="46.30957"
     x2="604.18231"
     y2="54.385773"
     style="stroke:#888888;stroke-opacity:1" />
  <line
     class="arc0"
     id="link92_@0_93"
     x1="444.62854"
     y1="79.417389"
     x2="587.31897"
     y2="87.493622"
     style="stroke:#888888;stroke-opacity:1" />
  <line
     class="arc1"
     id="link58_@1_57"
     x1="706.97589"
     y1="431.71661"
     x2="604.18231"
     y2="433.62091"
     style="stroke:#888888;stroke-opacity:1" />
  <line
     class="arc2"
     id="link58_@2_59"
     x1="706.97589"
     y1="431.71661"
     x2="732.94312"
     y2="402.34167"
     style="stroke:#888888;stroke-opacity:1" />
  <line
     class="arc1"
     id="link59_@1_53"
     x1="732.94312"
     y1="402.34167"
     x2="692.47107"
     y2="333.74619"
     style="stroke:#888888;stroke-opacity:1" />
  <line
     class="arc2"
     id="link57_@2_51"
     x1="604.18231"
     y1="433.62091"
     x2="587.31897"
     y2="405.03946"
     style="stroke:#888888;stroke-opacity:1" />
  <line
     class="arc1"
     id="link88_@1_87"
     x1="706.97589"
     y1="52.481476"
     x2="604.18231"
     y2="54.385773"
     style="stroke:#888888;stroke-opacity:1" />
  <line
     class="arc2"
     id="link88_@2_89"
     x1="706.97589"
     y1="52.481476"
     x2="732.94312"
     y2="84.795837"
     style="stroke:#888888;stroke-opacity:1" />
  <line
     class="arc1"
     id="link89_@1_95"
     x1="732.94312"
     y1="84.795837"
     x2="692.47107"
     y2="164.2547"
     style="stroke:#888888;stroke-opacity:1" />
  <line
     class="arc1"
     id="link51_@1_52"
     x1="587.31897"
     y1="405.03946"
     x2="649.6405"
     y2="334.53964"
     style="stroke:#888888;stroke-opacity:1" />
  <line
     class="arc2"
     id="link87_@2_93"
     x1="604.18231"
     y1="54.385773"
     x2="587.31897"
     y2="87.493622"
     style="stroke:#888888;stroke-opacity:1" />
  <line
     class="arc1"
     id="link93_@1_94"
     x1="587.31897"
     y1="87.493622"
     x2="649.6405"
     y2="165.04816"
     style="stroke:#888888;stroke-opacity:1" />
  <line
     class="arc2"
     id="link53_@2_52"
     x1="692.47107"
     y1="333.74619"
     x2="649.6405"
     y2="334.53964"
     style="stroke:#888888;stroke-opacity:1" />
  <line
     class="arc0"
     id="link53_@0_95"
     x1="692.47107"
     y1="333.74619"
     x2="692.47107"
     y2="164.2547"
     style="stroke:#888888;stroke-opacity:1" />
  <line
     class="arc0"
     id="link52_@0_94"
     x1="649.6405"
     y1="334.53964"
     x2="649.6405"
     y2="165.04816"
     style="stroke:#888888;stroke-opacity:1" />
  <line
     class="arc2"
     id="link95_@2_94"
     x1="692.47107"
     y1="164.2547"
     x2="649.6405"
     y2="165.04816"
     style="stroke:#888888;stroke-opacity:1" />
</svg>
