<?xml version="1.0" encoding="UTF-8" standalone="no"?>
<!-- Created with Jerboa -->

<svg
   width="588.02454"
   height="488.71149"
   version="1.1"
   id="svg1"
   sodipodi:docname="g-carte-unsew-volume-a2-H.svg"
   inkscape:version="1.3.2 (091e20ef0f, 2023-11-25, custom)"
   xmlns:inkscape="http://www.inkscape.org/namespaces/inkscape"
   xmlns:sodipodi="http://sodipodi.sourceforge.net/DTD/sodipodi-0.dtd"
   xmlns="http://www.w3.org/2000/svg"
   xmlns:svg="http://www.w3.org/2000/svg">
  <defs
     id="defs1" />
  <sodipodi:namedview
     id="namedview1"
     pagecolor="#ffffff"
     bordercolor="#000000"
     borderopacity="0.25"
     inkscape:showpageshadow="2"
     inkscape:pageopacity="0.0"
     inkscape:pagecheckerboard="0"
     inkscape:deskcolor="#d1d1d1"
     inkscape:zoom="0.20261941"
     inkscape:cx="291.18631"
     inkscape:cy="244.30038"
     inkscape:window-width="1892"
     inkscape:window-height="1034"
     inkscape:window-x="9"
     inkscape:window-y="27"
     inkscape:window-maximized="1"
     inkscape:current-layer="svg1" />
  <style
     id="style">
		.arc0 {
			fill:none;
			fill-rule:evenodd;
			stroke:black;
			stroke-width:4;
			stroke-linecap:round;
			stroke-linejoin:round;
			stroke-opacity:1;
		}
		.arc1 {
			fill:none;
			fill-rule:evenodd;
			stroke:red;
			stroke-width:4;
			stroke-linecap:round;
			stroke-linejoin:round;
			stroke-opacity:1;
		}
		.arc2 {
			fill:none;
			fill-rule:evenodd;
			stroke:blue;
			stroke-width:4;
			stroke-linecap:round;
			stroke-linejoin:round;
			stroke-opacity:1;
		}
		.arc3 {
			fill:none;
			fill-rule:evenodd;
			stroke:green;
			stroke-width:4;
			stroke-linecap:round;
			stroke-linejoin:round;
			stroke-opacity:1;
		}
		.topological-dart {
			fill:#000000;
			stroke:#000000;
			stroke-width:0;
			stroke-linecap:round;
			stroke-linejoin:round;
			stroke-dasharray:none;
			paint-order:markers fill stroke;
		}
	</style>
  <polygon
     points="639.5236,308.30026 714.19763,312.51468 746.14026,352.151 746.14026,440.5965 714.19763,476.6273 639.5236,472.4129 607.58105,432.7766 607.58105,344.33105 "
     id="face_177_179_178_181_182_180_28_29"
     style="fill:#c0c0c0;stroke:none"
     opacity="1"
     transform="translate(-354.98788,-59.144287)" />
  <line
     class="arc1"
     id="link29_@1_28"
     x1="252.59317"
     y1="373.63232"
     x2="284.53574"
     y2="413.26862" />
  <line
     class="arc0"
     id="link29_@0_177"
     x1="252.59317"
     y1="373.63232"
     x2="252.59317"
     y2="285.18677" />
  <polygon
     points="547.3225,310.00345 498.82867,316.49307 478.0849,357.1026 478.0849,445.54816 498.82867,480.60568 547.3225,474.1161 568.0663,433.50653 568.0663,345.06097 "
     id="face_174_176_175_190_191_189_33_34"
     style="fill:#c0c0c0;stroke:none"
     opacity="1"
     transform="translate(-354.98788,-59.144287)" />
  <line
     class="arc1"
     id="link34_@1_33"
     x1="213.0784"
     y1="374.36224"
     x2="192.33463"
     y2="414.9718" />
  <line
     class="arc0"
     id="link34_@0_174"
     x1="213.0784"
     y1="374.36224"
     x2="213.0784"
     y2="285.91669" />
  <line
     class="arc1"
     id="link177_@1_179"
     x1="252.59317"
     y1="285.18677"
     x2="284.53574"
     y2="249.15598" />
  <line
     class="arc1"
     id="link174_@1_176"
     x1="213.0784"
     y1="285.91669"
     x2="192.33463"
     y2="250.85916" />
  <line
     class="arc0"
     id="link28_@0_180"
     x1="284.53574"
     y1="413.26862"
     x2="359.20975"
     y2="417.483" />
  <polygon
     points="639.5236,87.43732 714.19763,91.65173 746.14026,131.28802 746.14026,219.73358 714.19763,255.76443 639.5236,251.55002 607.58105,211.9137 607.58105,123.46814 "
     id="face_30_31_159_161_160_163_164_162"
     style="fill:#c0c0c0;stroke:none"
     opacity="1"
     transform="translate(-354.98788,-59.144287)" />
  <line
     class="arc1"
     id="link162_@1_164"
     x1="252.59317"
     y1="152.76941"
     x2="284.53574"
     y2="192.40573" />
  <line
     class="arc0"
     id="link162_@0_30"
     x1="252.59317"
     y1="152.76941"
     x2="252.59317"
     y2="64.323853" />
  <line
     class="arc1"
     id="link30_@1_31"
     x1="252.59317"
     y1="64.323853"
     x2="284.53574"
     y2="28.29303" />
  <polygon
     points="547.3225,89.140564 498.82867,95.63016 478.0849,136.23969 478.0849,224.68524 498.82867,259.7428 547.3225,253.25317 568.0663,212.64359 568.0663,124.19806 "
     id="face_35_36_168_170_169_166_167_165"
     style="fill:#c0c0c0;stroke:none"
     opacity="1"
     transform="translate(-354.98788,-59.144287)" />
  <line
     class="arc1"
     id="link165_@1_167"
     x1="213.0784"
     y1="153.4993"
     x2="192.33463"
     y2="194.10889" />
  <line
     class="arc0"
     id="link165_@0_35"
     x1="213.0784"
     y1="153.4993"
     x2="213.0784"
     y2="65.053772" />
  <line
     class="arc0"
     id="link179_@0_178"
     x1="284.53574"
     y1="249.15598"
     x2="359.20975"
     y2="253.37039" />
  <line
     class="arc1"
     id="link35_@1_36"
     x1="213.0784"
     y1="65.053772"
     x2="192.33463"
     y2="29.996277" />
  <line
     class="arc0"
     id="link33_@0_189"
     x1="192.33463"
     y1="414.9718"
     x2="143.84079"
     y2="421.4614" />
  <line
     class="arc0"
     id="link164_@0_163"
     x1="284.53574"
     y1="192.40573"
     x2="359.20975"
     y2="196.62015" />
  <polygon
     points="709.8386,511.6632 661.3448,518.15283 608.65845,519.1261 533.98444,514.9117 522.7856,510.3329 571.2795,503.8433 623.9658,502.87003 698.6398,507.08444 "
     id="face_183_185_184_187_188_186_1_0"
     style="fill:#c0c0c0;stroke:none"
     opacity="1"
     transform="translate(-354.98788,-59.144287)" />
  <line
     class="arc1"
     id="link0_@1_1"
     x1="268.97794"
     y1="443.72574"
     x2="216.2916"
     y2="444.69901" />
  <line
     class="arc0"
     id="link0_@0_183"
     x1="268.97794"
     y1="443.72574"
     x2="343.65189"
     y2="447.94016" />
  <line
     class="arc0"
     id="link1_@0_186"
     x1="216.2916"
     y1="444.69901"
     x2="167.7977"
     y2="451.1886" />
  <line
     class="arc0"
     id="link31_@0_159"
     x1="284.53574"
     y1="28.29303"
     x2="359.20975"
     y2="32.507446" />
  <line
     class="arc0"
     id="link176_@0_175"
     x1="192.33463"
     y1="250.85916"
     x2="143.84079"
     y2="257.34879" />
  <line
     class="arc0"
     id="link167_@0_166"
     x1="192.33463"
     y1="194.10889"
     x2="143.84079"
     y2="200.59851" />
  <line
     class="arc1"
     id="link180_@1_182"
     x1="359.20975"
     y1="417.483"
     x2="391.15237"
     y2="381.45221" />
  <line
     class="arc0"
     id="link36_@0_168"
     x1="192.33463"
     y1="29.996277"
     x2="143.84079"
     y2="36.48587" />
  <polygon
     points="709.8386,69.9375 661.3448,76.427124 608.65845,77.40033 533.98444,73.185974 522.7856,68.60718 571.2795,62.117554 623.9658,61.144287 698.6398,65.3587 "
     id="face_156_158_157_172_173_171_37_32"
     style="fill:#c0c0c0;stroke:none"
     opacity="1"
     transform="translate(-354.98788,-59.144287)" />
  <line
     class="arc1"
     id="link32_@1_37"
     x1="268.97794"
     y1="2"
     x2="216.2916"
     y2="2.9732666" />
  <line
     class="arc0"
     id="link32_@0_156"
     x1="268.97794"
     y1="2"
     x2="343.65189"
     y2="6.2144165" />
  <line
     class="arc1"
     id="link178_@1_181"
     x1="359.20975"
     y1="253.37039"
     x2="391.15237"
     y2="293.00671" />
  <line
     class="arc1"
     id="link163_@1_160"
     x1="359.20975"
     y1="196.62015"
     x2="391.15237"
     y2="160.58929" />
  <line
     class="arc1"
     id="link183_@1_185"
     x1="343.65189"
     y1="447.94016"
     x2="354.85074"
     y2="452.51892" />
  <line
     class="arc0"
     id="link37_@0_171"
     x1="216.2916"
     y1="2.9732666"
     x2="167.7977"
     y2="9.4628906" />
  <line
     class="arc0"
     id="link182_@0_181"
     x1="391.15237"
     y1="381.45221"
     x2="391.15237"
     y2="293.00671" />
  <line
     class="arc1"
     id="link159_@1_161"
     x1="359.20975"
     y1="32.507446"
     x2="391.15237"
     y2="72.143738" />
  <line
     class="arc0"
     id="link160_@0_161"
     x1="391.15237"
     y1="160.58929"
     x2="391.15237"
     y2="72.143738" />
  <line
     class="arc1"
     id="link189_@1_191"
     x1="143.84079"
     y1="421.4614"
     x2="123.09702"
     y2="386.40387" />
  <polygon
     points="825.99677,318.82434 900.6707,323.03876 932.61334,362.67505 932.61334,451.12057 900.6707,487.15137 825.99677,482.93695 794.05414,443.30066 794.05414,354.8551 "
     id="face_130_133_134_132_24_23_129_131"
     style="fill:#c0c0c0;stroke:none"
     opacity="1"
     transform="translate(-354.98788,-59.144287)" />
  <line
     class="arc1"
     id="link131_@1_129"
     x1="439.06625"
     y1="384.15637"
     x2="471.00888"
     y2="423.79266" />
  <line
     class="arc0"
     id="link131_@0_130"
     x1="439.06625"
     y1="384.15637"
     x2="439.06625"
     y2="295.71082" />
  <line
     class="arc1"
     id="link186_@1_188"
     x1="167.7977"
     y1="451.1886"
     x2="178.99655"
     y2="455.7674" />
  <line
     class="arc1"
     id="link156_@1_158"
     x1="343.65189"
     y1="6.2144165"
     x2="354.85074"
     y2="10.793213" />
  <line
     class="arc1"
     id="link175_@1_190"
     x1="143.84079"
     y1="257.34879"
     x2="123.09702"
     y2="297.95831" />
  <line
     class="arc1"
     id="link130_@1_133"
     x1="439.06625"
     y1="295.71082"
     x2="471.00888"
     y2="259.68005" />
  <line
     class="arc1"
     id="link166_@1_169"
     x1="143.84079"
     y1="200.59851"
     x2="123.09702"
     y2="165.54095" />
  <line
     class="arc0"
     id="link129_@0_23"
     x1="471.00888"
     y1="423.79266"
     x2="545.68286"
     y2="428.00708" />
  <line
     class="arc0"
     id="link185_@0_184"
     x1="354.85074"
     y1="452.51892"
     x2="306.3569"
     y2="459.00854" />
  <polygon
     points="825.99677,97.961395 900.6707,102.17584 932.61334,141.81207 932.61334,230.25769 900.6707,266.28848 825.99677,262.0741 794.05414,222.43771 794.05414,133.99219 "
     id="face_146_144_26_25_141_143_142_145"
     style="fill:#c0c0c0;stroke:none"
     opacity="1"
     transform="translate(-354.98788,-59.144287)" />
  <line
     class="arc1"
     id="link145_@1_142"
     x1="439.06625"
     y1="163.29343"
     x2="471.00888"
     y2="202.92981" />
  <line
     class="arc0"
     id="link145_@0_146"
     x1="439.06625"
     y1="163.29343"
     x2="439.06625"
     y2="74.8479" />
  <line
     class="arc1"
     id="link168_@1_170"
     x1="143.84079"
     y1="36.48587"
     x2="123.09702"
     y2="77.095398" />
  <line
     class="arc0"
     id="link191_@0_190"
     x1="123.09702"
     y1="386.40387"
     x2="123.09702"
     y2="297.95831" />
  <line
     class="arc1"
     id="link146_@1_144"
     x1="439.06625"
     y1="74.8479"
     x2="471.00888"
     y2="38.817108" />
  <line
     class="arc0"
     id="link133_@0_134"
     x1="471.00888"
     y1="259.68005"
     x2="545.68286"
     y2="263.89447" />
  <line
     class="arc0"
     id="link142_@0_143"
     x1="471.00888"
     y1="202.92981"
     x2="545.68286"
     y2="207.1442" />
  <polygon
     points="896.3117,522.18726 847.8179,528.6769 795.13153,529.65015 720.4576,525.4357 709.2587,520.85693 757.75256,514.3673 810.4389,513.3941 885.1129,517.6085 "
     id="face_7_6_123_125_124_127_128_126"
     style="fill:#c0c0c0;stroke:none"
     opacity="1"
     transform="translate(-354.98788,-59.144287)" />
  <line
     class="arc1"
     id="link126_@1_128"
     x1="455.45102"
     y1="454.24982"
     x2="402.76468"
     y2="455.22302" />
  <line
     class="arc0"
     id="link126_@0_7"
     x1="455.45102"
     y1="454.24982"
     x2="530.125"
     y2="458.46423" />
  <line
     class="arc1"
     id="link171_@1_173"
     x1="167.7977"
     y1="9.4628906"
     x2="178.99655"
     y2="14.041687" />
  <line
     class="arc0"
     id="link169_@0_170"
     x1="123.09702"
     y1="165.54095"
     x2="123.09702"
     y2="77.095398" />
  <line
     class="arc0"
     id="link128_@0_127"
     x1="402.76468"
     y1="455.22302"
     x2="354.27084"
     y2="461.71265" />
  <line
     class="arc0"
     id="link144_@0_26"
     x1="471.00888"
     y1="38.817108"
     x2="545.68286"
     y2="43.031555" />
  <line
     class="arc0"
     id="link188_@0_187"
     x1="178.99655"
     y1="455.7674"
     x2="253.67056"
     y2="459.98181" />
  <line
     class="arc0"
     id="link158_@0_157"
     x1="354.85074"
     y1="10.793213"
     x2="306.3569"
     y2="17.282837" />
  <line
     class="arc1"
     id="link23_@1_24"
     x1="545.68286"
     y1="428.00708"
     x2="577.62549"
     y2="391.97629" />
  <polygon
     points="426.22546,326.2091 377.73163,332.6987 356.98788,373.30823 356.98788,461.75378 377.73163,496.81134 426.22546,490.32172 446.96924,449.71216 446.96924,361.2666 "
     id="face_91_88_89_87_39_38_90_92"
     style="fill:#c0c0c0;stroke:none"
     opacity="1"
     transform="translate(-354.98788,-59.144287)" />
  <line
     class="arc1"
     id="link92_@1_90"
     x1="91.981354"
     y1="390.56787"
     x2="71.237579"
     y2="431.17743" />
  <line
     class="arc0"
     id="link92_@0_91"
     x1="91.981354"
     y1="390.56787"
     x2="91.981354"
     y2="302.12231" />
  <polygon
     points="896.3117,80.46155 847.8179,86.95117 795.13153,87.92438 720.4576,83.71002 709.2587,79.131226 757.75256,72.6416 810.4389,71.668335 885.1129,75.88281 "
     id="face_27_22_150_152_151_148_149_147"
     style="fill:#c0c0c0;stroke:none"
     opacity="1"
     transform="translate(-354.98788,-59.144287)" />
  <line
     class="arc1"
     id="link147_@1_149"
     x1="455.45102"
     y1="12.524048"
     x2="402.76468"
     y2="13.497314" />
  <line
     class="arc0"
     id="link147_@0_27"
     x1="455.45102"
     y1="12.524048"
     x2="530.125"
     y2="16.738525" />
  <line
     class="arc1"
     id="link134_@1_132"
     x1="545.68286"
     y1="263.89447"
     x2="577.62549"
     y2="303.53076" />
  <line
     class="arc1"
     id="link91_@1_88"
     x1="91.981354"
     y1="302.12231"
     x2="71.237579"
     y2="267.06482" />
  <line
     class="arc1"
     id="link143_@1_141"
     x1="545.68286"
     y1="207.1442"
     x2="577.62549"
     y2="171.1134" />
  <line
     class="arc1"
     id="link7_@1_6"
     x1="530.125"
     y1="458.46423"
     x2="541.32385"
     y2="463.04297" />
  <line
     class="arc0"
     id="link149_@0_148"
     x1="402.76468"
     y1="13.497314"
     x2="354.27084"
     y2="19.986938" />
  <line
     class="arc0"
     id="link24_@0_132"
     x1="577.62549"
     y1="391.97629"
     x2="577.62549"
     y2="303.53076" />
  <polygon
     points="426.22546,105.34616 377.73163,111.83575 356.98788,152.44531 356.98788,240.89084 377.73163,275.94846 426.22546,269.45883 446.96924,228.84921 446.96924,140.40366 "
     id="face_77_75_41_40_78_80_79_76"
     style="fill:#c0c0c0;stroke:none"
     opacity="1"
     transform="translate(-354.98788,-59.144287)" />
  <line
     class="arc1"
     id="link76_@1_79"
     x1="91.981354"
     y1="169.70493"
     x2="71.237579"
     y2="210.31454" />
  <line
     class="arc0"
     id="link76_@0_77"
     x1="91.981354"
     y1="169.70493"
     x2="91.981354"
     y2="81.259369" />
  <line
     class="arc1"
     id="link184_@1_187"
     x1="306.3569"
     y1="459.00854"
     x2="253.67056"
     y2="459.98181" />
  <line
     class="arc0"
     id="link173_@0_172"
     x1="178.99655"
     y1="14.041687"
     x2="253.67056"
     y2="18.256042" />
  <line
     class="arc1"
     id="link26_@1_25"
     x1="545.68286"
     y1="43.031555"
     x2="577.62549"
     y2="82.667786" />
  <line
     class="arc1"
     id="link77_@1_75"
     x1="91.981354"
     y1="81.259369"
     x2="71.237579"
     y2="46.201874" />
  <line
     class="arc0"
     id="link90_@0_38"
     x1="71.237579"
     y1="431.17743"
     x2="22.743744"
     y2="437.66705" />
  <polygon
     points="588.7416,527.86884 540.24774,534.35846 487.56137,535.3317 412.88742,531.1173 401.68857,526.5385 450.1824,520.04895 502.86884,519.0757 577.5428,523.29004 "
     id="face_94_97_98_96_3_2_93_95"
     style="fill:#c0c0c0;stroke:none"
     opacity="1"
     transform="translate(-354.98788,-59.144287)" />
  <line
     class="arc1"
     id="link95_@1_93"
     x1="147.88095"
     y1="459.9314"
     x2="95.194519"
     y2="460.90466" />
  <line
     class="arc0"
     id="link95_@0_94"
     x1="147.88095"
     y1="459.9314"
     x2="222.5549"
     y2="464.14575" />
  <line
     class="arc0"
     id="link141_@0_25"
     x1="577.62549"
     y1="171.1134"
     x2="577.62549"
     y2="82.667786" />
  <line
     class="arc0"
     id="link93_@0_2"
     x1="95.194519"
     y1="460.90466"
     x2="46.700684"
     y2="467.39423" />
  <line
     class="arc0"
     id="link88_@0_89"
     x1="71.237579"
     y1="267.06482"
     x2="22.743744"
     y2="273.55441" />
  <line
     class="arc0"
     id="link79_@0_80"
     x1="71.237579"
     y1="210.31454"
     x2="22.743744"
     y2="216.80417" />
  <line
     class="arc1"
     id="link127_@1_124"
     x1="354.27084"
     y1="461.71265"
     x2="365.4697"
     y2="466.29144" />
  <line
     class="arc1"
     id="link27_@1_22"
     x1="530.125"
     y1="16.738525"
     x2="541.32385"
     y2="21.317261" />
  <polygon
     points="920.2686,331.05154 871.7748,337.54117 851.031,378.15076 851.031,466.59625 871.7748,501.6538 920.2686,495.16418 941.01245,454.55463 941.01245,366.1091 "
     id="face_135_137_136_121_122_120_18_19"
     style="fill:#c0c0c0;stroke:none"
     opacity="1"
     transform="translate(-354.98788,-59.144287)" />
  <line
     class="arc1"
     id="link19_@1_18"
     x1="586.02454"
     y1="395.41034"
     x2="565.28076"
     y2="436.0199" />
  <line
     class="arc0"
     id="link19_@0_135"
     x1="586.02454"
     y1="395.41034"
     x2="586.02454"
     y2="306.96481" />
  <line
     class="arc1"
     id="link157_@1_172"
     x1="306.3569"
     y1="17.282837"
     x2="253.67056"
     y2="18.256042" />
  <line
     class="arc0"
     id="link75_@0_41"
     x1="71.237579"
     y1="46.201874"
     x2="22.743744"
     y2="52.69146" />
  <line
     class="arc1"
     id="link135_@1_137"
     x1="586.02454"
     y1="306.96481"
     x2="565.28076"
     y2="271.90726" />
  <line
     class="arc0"
     id="link6_@0_123"
     x1="541.32385"
     y1="463.04297"
     x2="492.82999"
     y2="469.53259" />
  <polygon
     points="588.7416,86.14313 540.24774,92.63269 487.56137,93.60596 412.88742,89.39154 401.68857,84.81287 450.1824,78.32324 502.86884,77.349915 577.5428,81.56433 "
     id="face_73_70_71_69_47_42_72_74"
     style="fill:#c0c0c0;stroke:none"
     opacity="1"
     transform="translate(-354.98788,-59.144287)" />
  <line
     class="arc1"
     id="link74_@1_72"
     x1="147.88095"
     y1="18.205627"
     x2="95.194519"
     y2="19.178955" />
  <line
     class="arc0"
     id="link74_@0_73"
     x1="147.88095"
     y1="18.205627"
     x2="222.5549"
     y2="22.420044" />
  <polygon
     points="920.2686,110.18863 871.7748,116.67825 851.031,157.28778 851.031,245.7333 871.7748,280.79092 920.2686,274.30127 941.01245,233.69171 941.01245,145.24622 "
     id="face_20_21_153_155_154_139_140_138"
     style="fill:#c0c0c0;stroke:none"
     opacity="1"
     transform="translate(-354.98788,-59.144287)" />
  <line
     class="arc1"
     id="link138_@1_140"
     x1="586.02454"
     y1="174.54742"
     x2="565.28076"
     y2="215.15698" />
  <line
     class="arc0"
     id="link138_@0_20"
     x1="586.02454"
     y1="174.54742"
     x2="586.02454"
     y2="86.101929" />
  <line
     class="arc1"
     id="link94_@1_97"
     x1="222.5549"
     y1="464.14575"
     x2="233.75369"
     y2="468.72455" />
  <line
     class="arc0"
     id="link72_@0_42"
     x1="95.194519"
     y1="19.178955"
     x2="46.700684"
     y2="25.668579" />
  <line
     class="arc1"
     id="link20_@1_21"
     x1="586.02454"
     y1="86.101929"
     x2="565.28076"
     y2="51.044342" />
  <line
     class="arc0"
     id="link18_@0_120"
     x1="565.28076"
     y1="436.0199"
     x2="516.78687"
     y2="442.50952" />
  <line
     class="arc1"
     id="link148_@1_151"
     x1="354.27084"
     y1="19.986938"
     x2="365.4697"
     y2="24.565735" />
  <line
     class="arc0"
     id="link137_@0_136"
     x1="565.28076"
     y1="271.90726"
     x2="516.78687"
     y2="278.39688" />
  <line
     class="arc1"
     id="link38_@1_39"
     x1="22.743744"
     y1="437.66705"
     x2="2"
     y2="402.6095" />
  <line
     class="arc0"
     id="link124_@0_125"
     x1="365.4697"
     y1="466.29144"
     x2="440.14365"
     y2="470.50586" />
  <line
     class="arc0"
     id="link140_@0_139"
     x1="565.28076"
     y1="215.15698"
     x2="516.78687"
     y2="221.64664" />
  <line
     class="arc0"
     id="link22_@0_150"
     x1="541.32385"
     y1="21.317261"
     x2="492.82999"
     y2="27.806885" />
  <line
     class="arc1"
     id="link2_@1_3"
     x1="46.700684"
     y1="467.39423"
     x2="57.899536"
     y2="471.97302" />
  <line
     class="arc1"
     id="link73_@1_70"
     x1="222.5549"
     y1="22.420044"
     x2="233.75369"
     y2="26.99884" />
  <line
     class="arc1"
     id="link89_@1_87"
     x1="22.743744"
     y1="273.55441"
     x2="2"
     y2="314.16394" />
  <line
     class="arc0"
     id="link21_@0_153"
     x1="565.28076"
     y1="51.044342"
     x2="516.78687"
     y2="57.533966" />
  <line
     class="arc1"
     id="link80_@1_78"
     x1="22.743744"
     y1="216.80417"
     x2="2"
     y2="181.74655" />
  <line
     class="arc0"
     id="link97_@0_98"
     x1="233.75369"
     y1="468.72455"
     x2="185.25986"
     y2="475.21417" />
  <line
     class="arc0"
     id="link39_@0_87"
     x1="2"
     y1="402.6095"
     x2="2"
     y2="314.16394" />
  <line
     class="arc1"
     id="link41_@1_40"
     x1="22.743744"
     y1="52.69146"
     x2="2"
     y2="93.301025" />
  <line
     class="arc1"
     id="link123_@1_125"
     x1="492.82999"
     y1="469.53259"
     x2="440.14365"
     y2="470.50586" />
  <line
     class="arc0"
     id="link151_@0_152"
     x1="365.4697"
     y1="24.565735"
     x2="440.14365"
     y2="28.78009" />
  <polygon
     points="775.2147,538.3929 726.7209,544.8825 674.0345,545.8558 599.36053,541.64136 588.1616,537.0626 636.6555,530.573 689.3419,529.59973 764.0159,533.81415 "
     id="face_110_108_5_4_105_107_106_109"
     style="fill:#c0c0c0;stroke:none"
     opacity="1"
     transform="translate(-354.98788,-59.144287)" />
  <line
     class="arc1"
     id="link109_@1_106"
     x1="334.35403"
     y1="470.45544"
     x2="281.66763"
     y2="471.42871" />
  <line
     class="arc0"
     id="link109_@0_110"
     x1="334.35403"
     y1="470.45544"
     x2="409.02805"
     y2="474.66986" />
  <line
     class="arc1"
     id="link42_@1_47"
     x1="46.700684"
     y1="25.668579"
     x2="57.899536"
     y2="30.247253" />
  <line
     class="arc0"
     id="link78_@0_40"
     x1="2"
     y1="181.74655"
     x2="2"
     y2="93.301025" />
  <line
     class="arc1"
     id="link120_@1_122"
     x1="516.78687"
     y1="442.50952"
     x2="496.04312"
     y2="407.45197" />
  <line
     class="arc0"
     id="link106_@0_107"
     x1="281.66763"
     y1="471.42871"
     x2="233.17374"
     y2="477.91833" />
  <line
     class="arc0"
     id="link3_@0_96"
     x1="57.899536"
     y1="471.97302"
     x2="132.57349"
     y2="476.18744" />
  <line
     class="arc0"
     id="link70_@0_71"
     x1="233.75369"
     y1="26.99884"
     x2="185.25986"
     y2="33.488403" />
  <line
     class="arc1"
     id="link136_@1_121"
     x1="516.78687"
     y1="278.39688"
     x2="496.04312"
     y2="319.00647" />
  <polygon
     points="397.32965,340.71152 472.0036,344.92593 503.94626,384.56226 503.94626,473.00775 472.0036,509.03854 397.32965,504.82416 365.38705,465.18787 365.38705,376.7423 "
     id="face_84_86_85_100_101_99_43_44"
     style="fill:#c0c0c0;stroke:none"
     opacity="1"
     transform="translate(-354.98788,-59.144287)" />
  <line
     class="arc1"
     id="link44_@1_43"
     x1="10.39917"
     y1="406.04358"
     x2="42.341766"
     y2="445.67987" />
  <line
     class="arc0"
     id="link44_@0_84"
     x1="10.39917"
     y1="406.04358"
     x2="10.39917"
     y2="317.59802" />
  <line
     class="arc1"
     id="link139_@1_154"
     x1="516.78687"
     y1="221.64664"
     x2="496.04312"
     y2="186.58902" />
  <line
     class="arc1"
     id="link150_@1_152"
     x1="492.82999"
     y1="27.806885"
     x2="440.14365"
     y2="28.78009" />
  <line
     class="arc1"
     id="link84_@1_86"
     x1="10.39917"
     y1="317.59802"
     x2="42.341766"
     y2="281.56723" />
  <polygon
     points="775.2147,96.667145 726.7209,103.15677 674.0345,104.13007 599.36053,99.91562 588.1616,95.33688 636.6555,88.84729 689.3419,87.87396 764.0159,92.08844 "
     id="face_59_57_17_12_60_62_61_58"
     style="fill:#c0c0c0;stroke:none"
     opacity="1"
     transform="translate(-354.98788,-59.144287)" />
  <line
     class="arc1"
     id="link58_@1_61"
     x1="334.35403"
     y1="28.729675"
     x2="281.66763"
     y2="29.703003" />
  <line
     class="arc0"
     id="link58_@0_59"
     x1="334.35403"
     y1="28.729675"
     x2="409.02805"
     y2="32.944153" />
  <line
     class="arc1"
     id="link153_@1_155"
     x1="516.78687"
     y1="57.533966"
     x2="496.04312"
     y2="98.143494" />
  <line
     class="arc0"
     id="link43_@0_99"
     x1="42.341766"
     y1="445.67987"
     x2="117.01572"
     y2="449.89426" />
  <line
     class="arc0"
     id="link122_@0_121"
     x1="496.04312"
     y1="407.45197"
     x2="496.04312"
     y2="319.00647" />
  <polygon
     points="397.32965,119.84863 472.0036,124.06302 503.94626,163.69931 503.94626,252.14484 472.0036,288.17566 397.32965,283.96127 365.38705,244.32489 365.38705,155.87936 "
     id="face_45_46_66_68_67_82_83_81"
     style="fill:#c0c0c0;stroke:none"
     opacity="1"
     transform="translate(-354.98788,-59.144287)" />
  <line
     class="arc1"
     id="link81_@1_83"
     x1="10.39917"
     y1="185.1806"
     x2="42.341766"
     y2="224.81699" />
  <line
     class="arc0"
     id="link81_@0_45"
     x1="10.39917"
     y1="185.1806"
     x2="10.39917"
     y2="96.735077" />
  <line
     class="arc1"
     id="link110_@1_108"
     x1="409.02805"
     y1="474.66986"
     x2="420.22684"
     y2="479.2486" />
  <line
     class="arc0"
     id="link61_@0_62"
     x1="281.66763"
     y1="29.703003"
     x2="233.17374"
     y2="36.192596" />
  <line
     class="arc1"
     id="link45_@1_46"
     x1="10.39917"
     y1="96.735077"
     x2="42.341766"
     y2="60.704346" />
  <line
     class="arc1"
     id="link98_@1_96"
     x1="185.25986"
     y1="475.21417"
     x2="132.57349"
     y2="476.18744" />
  <line
     class="arc0"
     id="link47_@0_69"
     x1="57.899536"
     y1="30.247253"
     x2="132.57349"
     y2="34.46167" />
  <line
     class="arc0"
     id="link86_@0_85"
     x1="42.341766"
     y1="281.56723"
     x2="117.01572"
     y2="285.78165" />
  <line
     class="arc0"
     id="link154_@0_155"
     x1="496.04312"
     y1="186.58902"
     x2="496.04312"
     y2="98.143494" />
  <line
     class="arc0"
     id="link83_@0_82"
     x1="42.341766"
     y1="224.81699"
     x2="117.01572"
     y2="229.03137" />
  <line
     class="arc0"
     id="link46_@0_66"
     x1="42.341766"
     y1="60.704346"
     x2="117.01572"
     y2="64.918732" />
  <line
     class="arc1"
     id="link107_@1_105"
     x1="233.17374"
     y1="477.91833"
     x2="244.37265"
     y2="482.49707" />
  <line
     class="arc1"
     id="link59_@1_57"
     x1="409.02805"
     y1="32.944153"
     x2="420.22684"
     y2="37.522858" />
  <polygon
     points="799.1716,347.2572 750.67773,353.74683 729.93396,394.35635 729.93396,482.80188 750.67773,517.85944 799.1716,511.3698 819.9154,470.76025 819.9154,382.31473 "
     id="face_112_115_116_114_14_13_111_113"
     style="fill:#c0c0c0;stroke:none"
     opacity="1"
     transform="translate(-354.98788,-59.144287)" />
  <line
     class="arc1"
     id="link113_@1_111"
     x1="464.92752"
     y1="411.61597"
     x2="444.18369"
     y2="452.22552" />
  <line
     class="arc0"
     id="link113_@0_112"
     x1="464.92752"
     y1="411.61597"
     x2="464.92752"
     y2="323.17044" />
  <line
     class="arc1"
     id="link71_@1_69"
     x1="185.25986"
     y1="33.488403"
     x2="132.57349"
     y2="34.46167" />
  <line
     class="arc1"
     id="link99_@1_101"
     x1="117.01572"
     y1="449.89426"
     x2="148.95837"
     y2="413.86346" />
  <line
     class="arc1"
     id="link112_@1_115"
     x1="464.92752"
     y1="323.17044"
     x2="444.18369"
     y2="288.11292" />
  <line
     class="arc0"
     id="link108_@0_5"
     x1="420.22684"
     y1="479.2486"
     x2="371.733"
     y2="485.73822" />
  <line
     class="arc1"
     id="link85_@1_100"
     x1="117.01572"
     y1="285.78165"
     x2="148.95837"
     y2="325.41797" />
  <polygon
     points="799.1716,126.39432 750.67773,132.88394 729.93396,173.49347 729.93396,261.93896 750.67773,296.99658 799.1716,290.50696 819.9154,249.89734 819.9154,161.45181 "
     id="face_56_54_16_15_51_53_52_55"
     style="fill:#c0c0c0;stroke:none"
     opacity="1"
     transform="translate(-354.98788,-59.144287)" />
  <line
     class="arc1"
     id="link55_@1_52"
     x1="464.92752"
     y1="190.75305"
     x2="444.18369"
     y2="231.36267" />
  <line
     class="arc0"
     id="link55_@0_56"
     x1="464.92752"
     y1="190.75305"
     x2="464.92752"
     y2="102.30753" />
  <line
     class="arc1"
     id="link82_@1_67"
     x1="117.01572"
     y1="229.03137"
     x2="148.95837"
     y2="193.00055" />
  <line
     class="arc0"
     id="link101_@0_100"
     x1="148.95837"
     y1="413.86346"
     x2="148.95837"
     y2="325.41797" />
  <line
     class="arc1"
     id="link56_@1_54"
     x1="464.92752"
     y1="102.30753"
     x2="444.18369"
     y2="67.250031" />
  <line
     class="arc0"
     id="link111_@0_13"
     x1="444.18369"
     y1="452.22552"
     x2="395.68985"
     y2="458.71515" />
  <line
     class="arc1"
     id="link62_@1_60"
     x1="233.17374"
     y1="36.192596"
     x2="244.37265"
     y2="40.771332" />
  <line
     class="arc1"
     id="link66_@1_68"
     x1="117.01572"
     y1="64.918732"
     x2="148.95837"
     y2="104.55502" />
  <line
     class="arc0"
     id="link115_@0_116"
     x1="444.18369"
     y1="288.11292"
     x2="395.68985"
     y2="294.60254" />
  <line
     class="arc0"
     id="link67_@0_68"
     x1="148.95837"
     y1="193.00055"
     x2="148.95837"
     y2="104.55502" />
  <line
     class="arc0"
     id="link52_@0_53"
     x1="444.18369"
     y1="231.36267"
     x2="395.68985"
     y2="237.85229" />
  <line
     class="arc0"
     id="link105_@0_4"
     x1="244.37265"
     y1="482.49707"
     x2="319.0466"
     y2="486.71149" />
  <line
     class="arc0"
     id="link57_@0_17"
     x1="420.22684"
     y1="37.522858"
     x2="371.733"
     y2="44.012482" />
  <polygon
     points="583.80273,351.2356 658.47675,355.45 690.4193,395.0863 690.4193,483.53183 658.47675,519.5626 583.80273,515.3482 551.8601,475.7119 551.8601,387.26636 "
     id="face_103_118_119_117_9_8_102_104"
     style="fill:#c0c0c0;stroke:none"
     opacity="1"
     transform="translate(-354.98788,-59.144287)" />
  <line
     class="arc1"
     id="link104_@1_102"
     x1="196.87222"
     y1="416.56763"
     x2="228.81485"
     y2="456.20392" />
  <line
     class="arc0"
     id="link104_@0_103"
     x1="196.87222"
     y1="416.56763"
     x2="196.87222"
     y2="328.12207" />
  <line
     class="arc0"
     id="link54_@0_16"
     x1="444.18369"
     y1="67.250031"
     x2="395.68985"
     y2="73.739655" />
  <line
     class="arc1"
     id="link103_@1_118"
     x1="196.87222"
     y1="328.12207"
     x2="228.81485"
     y2="292.09131" />
  <line
     class="arc0"
     id="link102_@0_8"
     x1="228.81485"
     y1="456.20392"
     x2="303.48886"
     y2="460.41833" />
  <polygon
     points="583.80273,130.37268 658.47675,134.58707 690.4193,174.22336 690.4193,262.66888 658.47675,298.69974 583.80273,294.48532 551.8601,254.84897 551.8601,166.40341 "
     id="face_65_63_11_10_48_50_49_64"
     style="fill:#c0c0c0;stroke:none"
     opacity="1"
     transform="translate(-354.98788,-59.144287)" />
  <line
     class="arc1"
     id="link64_@1_49"
     x1="196.87222"
     y1="195.70468"
     x2="228.81485"
     y2="235.34103" />
  <line
     class="arc0"
     id="link64_@0_65"
     x1="196.87222"
     y1="195.70468"
     x2="196.87222"
     y2="107.25912" />
  <line
     class="arc1"
     id="link65_@1_63"
     x1="196.87222"
     y1="107.25912"
     x2="228.81485"
     y2="71.228394" />
  <line
     class="arc1"
     id="link5_@1_4"
     x1="371.733"
     y1="485.73822"
     x2="319.0466"
     y2="486.71149" />
  <line
     class="arc0"
     id="link60_@0_12"
     x1="244.37265"
     y1="40.771332"
     x2="319.0466"
     y2="44.985786" />
  <line
     class="arc0"
     id="link118_@0_119"
     x1="228.81485"
     y1="292.09131"
     x2="303.48886"
     y2="296.30573" />
  <line
     class="arc0"
     id="link49_@0_50"
     x1="228.81485"
     y1="235.34103"
     x2="303.48886"
     y2="239.55545" />
  <line
     class="arc1"
     id="link13_@1_14"
     x1="395.68985"
     y1="458.71515"
     x2="374.94608"
     y2="423.65759" />
  <line
     class="arc0"
     id="link63_@0_11"
     x1="228.81485"
     y1="71.228394"
     x2="303.48886"
     y2="75.44278" />
  <line
     class="arc1"
     id="link116_@1_114"
     x1="395.68985"
     y1="294.60254"
     x2="374.94608"
     y2="335.21207" />
  <line
     class="arc1"
     id="link8_@1_9"
     x1="303.48886"
     y1="460.41833"
     x2="335.43143"
     y2="424.38754" />
  <line
     class="arc1"
     id="link53_@1_51"
     x1="395.68985"
     y1="237.85229"
     x2="374.94608"
     y2="202.79468" />
  <line
     class="arc1"
     id="link17_@1_12"
     x1="371.733"
     y1="44.012482"
     x2="319.0466"
     y2="44.985786" />
  <line
     class="arc1"
     id="link16_@1_15"
     x1="395.68985"
     y1="73.739655"
     x2="374.94608"
     y2="114.34918" />
  <line
     class="arc1"
     id="link119_@1_117"
     x1="303.48886"
     y1="296.30573"
     x2="335.43143"
     y2="335.94202" />
  <line
     class="arc0"
     id="link14_@0_114"
     x1="374.94608"
     y1="423.65759"
     x2="374.94608"
     y2="335.21207" />
  <line
     class="arc1"
     id="link50_@1_48"
     x1="303.48886"
     y1="239.55545"
     x2="335.43143"
     y2="203.5246" />
  <line
     class="arc0"
     id="link9_@0_117"
     x1="335.43143"
     y1="424.38754"
     x2="335.43143"
     y2="335.94202" />
  <line
     class="arc1"
     id="link11_@1_10"
     x1="303.48886"
     y1="75.44278"
     x2="335.43143"
     y2="115.07907" />
  <line
     class="arc0"
     id="link51_@0_15"
     x1="374.94608"
     y1="202.79468"
     x2="374.94608"
     y2="114.34918" />
  <line
     class="arc0"
     id="link48_@0_10"
     x1="335.43143"
     y1="203.5246"
     x2="335.43143"
     y2="115.07907" />
</svg>
