<?xml version="1.0" encoding="UTF-8" standalone="no"?>
<!-- Created with Jerboa -->

<svg
	width="660"
	height="636" >
	<style id="style">
		.arc0 {
			fill:none;
			fill-rule:evenodd;
			stroke:black;
			stroke-width:4;
			stroke-linecap:round;
			stroke-linejoin:round;
			stroke-opacity:1;
		}
		.arc1 {
			fill:none;
			fill-rule:evenodd;
			stroke:red;
			stroke-width:4;
			stroke-linecap:round;
			stroke-linejoin:round;
			stroke-opacity:1;
		}
		.arc2 {
			fill:none;
			fill-rule:evenodd;
			stroke:blue;
			stroke-width:4;
			stroke-linecap:round;
			stroke-linejoin:round;
			stroke-opacity:1;
		}
		.arc3 {
			fill:none;
			fill-rule:evenodd;
			stroke:green;
			stroke-width:4;
			stroke-linecap:round;
			stroke-linejoin:round;
			stroke-opacity:1;
		}
		.topological-dart {
			fill:#000000;
			stroke:#000000;
			stroke-width:0;
			stroke-linecap:round;
			stroke-linejoin:round;
			stroke-dasharray:none;
			paint-order:markers fill stroke;
		}
	</style>
<polygon
	points="190.01472,497.2834 190.01472,379.11407 231.69644,331.96262 331.18008,337.59335 372.8618,389.46313 372.8618,507.63245 331.18008,554.7839 231.69644,549.15314 "
	id="face_35_36_41_40_39_38_33_34"
	style="fill:rgb(192,192,192);stroke:none"
	opacity="1.0" />
<line
	class="arc1"
	id="link34_@1_33"
	x1="190.01472"
	y1="497.2834"
	x2="231.69644"
	y2="549.15314" />
<line
	class="arc2"
	id="link34_@2_29"
	x1="190.01472"
	y1="497.2834"
	x2="161.36882"
	y2="497.81403" />
<line
	class="arc0"
	id="link34_@0_35"
	x1="190.01472"
	y1="497.2834"
	x2="190.01472"
	y2="379.11407" />
<polygon
	points="161.36882,497.81403 161.36882,379.64478 134.30042,333.76694 69.69498,342.43753 42.626553,395.58093 42.626553,513.75024 69.69498,559.62805 134.30042,550.95746 "
	id="face_30_31_26_25_24_23_28_29"
	style="fill:rgb(192,192,192);stroke:none"
	opacity="1.0" />
<line
	class="arc1"
	id="link29_@1_28"
	x1="161.36882"
	y1="497.81403"
	x2="134.30042"
	y2="550.95746" />
<line
	class="arc0"
	id="link29_@0_30"
	x1="161.36882"
	y1="497.81403"
	x2="161.36882"
	y2="379.64478" />
<line
	class="arc1"
	id="link35_@1_36"
	x1="190.01472"
	y1="379.11407"
	x2="231.69644"
	y2="331.96262" />
<line
	class="arc2"
	id="link35_@2_30"
	x1="190.01472"
	y1="379.11407"
	x2="161.36882"
	y2="379.64478" />
<line
	class="arc1"
	id="link30_@1_31"
	x1="161.36882"
	y1="379.64478"
	x2="134.30042"
	y2="333.76694" />
<line
	class="arc2"
	id="link33_@2_0"
	x1="231.69644"
	y1="549.15314"
	x2="220.41792"
	y2="571.29626" />
<line
	class="arc0"
	id="link33_@0_38"
	x1="231.69644"
	y1="549.15314"
	x2="331.18008"
	y2="554.7839" />
<polygon
	points="190.01472,214.0787 190.01472,95.9093 231.69644,48.757812 331.18008,54.38861 372.8618,106.25842 372.8618,224.42783 331.18008,271.57922 231.69644,265.94852 "
	id="face_123_124_118_117_116_115_121_122"
	style="fill:rgb(192,192,192);stroke:none"
	opacity="1.0" />
<line
	class="arc1"
	id="link122_@1_121"
	x1="190.01472"
	y1="214.0787"
	x2="231.69644"
	y2="265.94852" />
<line
	class="arc2"
	id="link122_@2_128"
	x1="190.01472"
	y1="214.0787"
	x2="161.36882"
	y2="214.60934" />
<line
	class="arc0"
	id="link122_@0_123"
	x1="190.01472"
	y1="214.0787"
	x2="190.01472"
	y2="95.9093" />
<polygon
	points="161.36882,214.60934 161.36882,96.43994 134.30042,50.562134 69.69498,59.232727 42.626553,112.37622 42.626553,230.54556 69.69498,276.4234 134.30042,267.7528 "
	id="face_129_130_136_135_134_133_127_128"
	style="fill:rgb(192,192,192);stroke:none"
	opacity="1.0" />
<line
	class="arc1"
	id="link128_@1_127"
	x1="161.36882"
	y1="214.60934"
	x2="134.30042"
	y2="267.7528" />
<line
	class="arc0"
	id="link128_@0_129"
	x1="161.36882"
	y1="214.60934"
	x2="161.36882"
	y2="96.43994" />
<line
	class="arc1"
	id="link123_@1_124"
	x1="190.01472"
	y1="95.9093"
	x2="231.69644"
	y2="48.757812" />
<line
	class="arc2"
	id="link123_@2_129"
	x1="190.01472"
	y1="95.9093"
	x2="161.36882"
	y2="96.43994" />
<polygon
	points="220.41792,571.29626 319.90158,576.92694 334.5149,582.91895 269.90945,591.58954 201.1593,592.86316 101.67563,587.2324 87.06235,581.2405 151.6678,572.5699 "
	id="face_7_6_5_4_3_2_1_0"
	style="fill:rgb(192,192,192);stroke:none"
	opacity="1.0" />
<line
	class="arc1"
	id="link0_@1_1"
	x1="220.41792"
	y1="571.29626"
	x2="151.6678"
	y2="572.5699" />
<line
	class="arc0"
	id="link0_@0_7"
	x1="220.41792"
	y1="571.29626"
	x2="319.90158"
	y2="576.92694" />
<line
	class="arc1"
	id="link129_@1_130"
	x1="161.36882"
	y1="96.43994"
	x2="134.30042"
	y2="50.562134" />
<line
	class="arc2"
	id="link36_@2_37"
	x1="231.69644"
	y1="331.96262"
	x2="220.41792"
	y2="312.84692" />
<line
	class="arc0"
	id="link36_@0_41"
	x1="231.69644"
	y1="331.96262"
	x2="331.18008"
	y2="337.59335" />
<line
	class="arc2"
	id="link28_@2_1"
	x1="134.30042"
	y1="550.95746"
	x2="151.6678"
	y2="572.5699" />
<line
	class="arc0"
	id="link28_@0_23"
	x1="134.30042"
	y1="550.95746"
	x2="69.69498"
	y2="559.62805" />
<line
	class="arc2"
	id="link121_@2_120"
	x1="231.69644"
	y1="265.94852"
	x2="220.41792"
	y2="288.0917" />
<line
	class="arc0"
	id="link121_@0_115"
	x1="231.69644"
	y1="265.94852"
	x2="331.18008"
	y2="271.57922" />
<line
	class="arc0"
	id="link1_@0_2"
	x1="151.6678"
	y1="572.5699"
	x2="87.06235"
	y2="581.2405" />
<polygon
	points="220.41792,312.84692 319.90158,318.47766 334.5149,324.46964 269.90945,333.1402 201.1593,334.41385 101.67563,328.7831 87.06235,322.79114 151.6678,314.12054 "
	id="face_42_47_12_17_22_27_32_37"
	style="fill:rgb(192,192,192);stroke:none"
	opacity="1.0" />
<line
	class="arc1"
	id="link37_@1_32"
	x1="220.41792"
	y1="312.84692"
	x2="151.6678"
	y2="314.12054" />
<line
	class="arc3"
	id="link37_@3_120"
	x1="220.41792"
	y1="312.84692"
	x2="220.41792"
	y2="288.0917" />
<line
	class="arc0"
	id="link37_@0_42"
	x1="220.41792"
	y1="312.84692"
	x2="319.90158"
	y2="318.47766" />
<line
	class="arc2"
	id="link31_@2_32"
	x1="134.30042"
	y1="333.76694"
	x2="151.6678"
	y2="314.12054" />
<line
	class="arc0"
	id="link31_@0_26"
	x1="134.30042"
	y1="333.76694"
	x2="69.69498"
	y2="342.43753" />
<polygon
	points="220.41792,288.0917 319.90158,293.72244 334.5149,299.7144 269.90945,308.38495 201.1593,309.6586 101.67563,304.0279 87.06235,298.03592 151.6678,289.36533 "
	id="face_114_108_102_96_138_132_126_120"
	style="fill:rgb(192,192,192);stroke:none"
	opacity="1.0" />
<line
	class="arc1"
	id="link120_@1_126"
	x1="220.41792"
	y1="288.0917"
	x2="151.6678"
	y2="289.36533" />
<line
	class="arc0"
	id="link120_@0_114"
	x1="220.41792"
	y1="288.0917"
	x2="319.90158"
	y2="293.72244" />
<line
	class="arc2"
	id="link124_@2_125"
	x1="231.69644"
	y1="48.757812"
	x2="220.41792"
	y2="29.642212" />
<line
	class="arc0"
	id="link124_@0_118"
	x1="231.69644"
	y1="48.757812"
	x2="331.18008"
	y2="54.38861" />
<line
	class="arc2"
	id="link127_@2_126"
	x1="134.30042"
	y1="267.7528"
	x2="151.6678"
	y2="289.36533" />
<line
	class="arc0"
	id="link127_@0_133"
	x1="134.30042"
	y1="267.7528"
	x2="69.69498"
	y2="276.4234" />
<line
	class="arc3"
	id="link32_@3_126"
	x1="151.6678"
	y1="314.12054"
	x2="151.6678"
	y2="289.36533" />
<line
	class="arc0"
	id="link32_@0_27"
	x1="151.6678"
	y1="314.12054"
	x2="87.06235"
	y2="322.79114" />
<line
	class="arc0"
	id="link126_@0_132"
	x1="151.6678"
	y1="289.36533"
	x2="87.06235"
	y2="298.03592" />
<polygon
	points="220.41792,29.642212 319.90158,35.27295 334.5149,41.264893 269.90945,49.935486 201.1593,51.209167 101.67563,45.57837 87.06235,39.586365 151.6678,30.915894 "
	id="face_119_113_107_101_143_137_131_125"
	style="fill:rgb(192,192,192);stroke:none"
	opacity="1.0" />
<line
	class="arc1"
	id="link125_@1_131"
	x1="220.41792"
	y1="29.642212"
	x2="151.6678"
	y2="30.915894" />
<line
	class="arc0"
	id="link125_@0_119"
	x1="220.41792"
	y1="29.642212"
	x2="319.90158"
	y2="35.27295" />
<line
	class="arc1"
	id="link38_@1_39"
	x1="331.18008"
	y1="554.7839"
	x2="372.8618"
	y2="507.63245" />
<line
	class="arc2"
	id="link38_@2_7"
	x1="331.18008"
	y1="554.7839"
	x2="319.90158"
	y2="576.92694" />
<line
	class="arc2"
	id="link130_@2_131"
	x1="134.30042"
	y1="50.562134"
	x2="151.6678"
	y2="30.915894" />
<line
	class="arc0"
	id="link130_@0_136"
	x1="134.30042"
	y1="50.562134"
	x2="69.69498"
	y2="59.232727" />
<line
	class="arc0"
	id="link131_@0_137"
	x1="151.6678"
	y1="30.915894"
	x2="87.06235"
	y2="39.586365" />
<line
	class="arc1"
	id="link7_@1_6"
	x1="319.90158"
	y1="576.92694"
	x2="334.5149"
	y2="582.91895" />
<line
	class="arc1"
	id="link41_@1_40"
	x1="331.18008"
	y1="337.59335"
	x2="372.8618"
	y2="389.46313" />
<line
	class="arc2"
	id="link41_@2_42"
	x1="331.18008"
	y1="337.59335"
	x2="319.90158"
	y2="318.47766" />
<line
	class="arc1"
	id="link115_@1_116"
	x1="331.18008"
	y1="271.57922"
	x2="372.8618"
	y2="224.42783" />
<line
	class="arc2"
	id="link115_@2_114"
	x1="331.18008"
	y1="271.57922"
	x2="319.90158"
	y2="293.72244" />
<line
	class="arc2"
	id="link39_@2_44"
	x1="372.8618"
	y1="507.63245"
	x2="378.95062"
	y2="510.1291" />
<line
	class="arc0"
	id="link39_@0_40"
	x1="372.8618"
	y1="507.63245"
	x2="372.8618"
	y2="389.46313" />
<line
	class="arc1"
	id="link42_@1_47"
	x1="319.90158"
	y1="318.47766"
	x2="334.5149"
	y2="324.46964" />
<line
	class="arc3"
	id="link42_@3_114"
	x1="319.90158"
	y1="318.47766"
	x2="319.90158"
	y2="293.72244" />
<line
	class="arc1"
	id="link114_@1_108"
	x1="319.90158"
	y1="293.72244"
	x2="334.5149"
	y2="299.7144" />
<line
	class="arc2"
	id="link40_@2_45"
	x1="372.8618"
	y1="389.46313"
	x2="378.95062"
	y2="391.95978" />
<line
	class="arc1"
	id="link118_@1_117"
	x1="331.18008"
	y1="54.38861"
	x2="372.8618"
	y2="106.25842" />
<line
	class="arc2"
	id="link118_@2_119"
	x1="331.18008"
	y1="54.38861"
	x2="319.90158"
	y2="35.27295" />
<line
	class="arc1"
	id="link23_@1_24"
	x1="69.69498"
	y1="559.62805"
	x2="42.626553"
	y2="513.75024" />
<line
	class="arc2"
	id="link23_@2_2"
	x1="69.69498"
	y1="559.62805"
	x2="87.06235"
	y2="581.2405" />
<line
	class="arc2"
	id="link116_@2_110"
	x1="372.8618"
	y1="224.42783"
	x2="378.95062"
	y2="226.92441" />
<line
	class="arc0"
	id="link116_@0_117"
	x1="372.8618"
	y1="224.42783"
	x2="372.8618"
	y2="106.25842" />
<polygon
	points="378.95062,510.1291 378.95062,391.95978 351.8822,346.08197 287.27676,354.75256 260.20834,407.89597 260.20834,526.06525 287.27676,571.94305 351.8822,563.2725 "
	id="face_45_46_11_10_9_8_43_44"
	style="fill:rgb(192,192,192);stroke:none"
	opacity="1.0" />
<line
	class="arc1"
	id="link44_@1_43"
	x1="378.95062"
	y1="510.1291"
	x2="351.8822"
	y2="563.2725" />
<line
	class="arc3"
	id="link44_@3_78"
	x1="378.95062"
	y1="510.1291"
	x2="399.79144"
	y2="511.30865" />
<line
	class="arc0"
	id="link44_@0_45"
	x1="378.95062"
	y1="510.1291"
	x2="378.95062"
	y2="391.95978" />
<line
	class="arc1"
	id="link119_@1_113"
	x1="319.90158"
	y1="35.27295"
	x2="334.5149"
	y2="41.264893" />
<line
	class="arc1"
	id="link2_@1_3"
	x1="87.06235"
	y1="581.2405"
	x2="101.67563"
	y2="587.2324" />
<line
	class="arc2"
	id="link117_@2_111"
	x1="372.8618"
	y1="106.25842"
	x2="378.95062"
	y2="108.755005" />
<polygon
	points="428.4374,510.778 428.4374,392.6087 470.11914,345.45728 569.6029,351.08798 611.2846,402.95776 611.2846,521.1271 569.6029,568.2785 470.11914,562.64777 "
	id="face_85_86_87_88_82_81_80_79"
	style="fill:rgb(192,192,192);stroke:none"
	opacity="1.0" />
<line
	class="arc1"
	id="link79_@1_80"
	x1="428.4374"
	y1="510.778"
	x2="470.11914"
	y2="562.64777" />
<line
	class="arc2"
	id="link79_@2_78"
	x1="428.4374"
	y1="510.778"
	x2="399.79144"
	y2="511.30865" />
<line
	class="arc0"
	id="link79_@0_85"
	x1="428.4374"
	y1="510.778"
	x2="428.4374"
	y2="392.6087" />
<line
	class="arc1"
	id="link45_@1_46"
	x1="378.95062"
	y1="391.95978"
	x2="351.8822"
	y2="346.08197" />
<line
	class="arc3"
	id="link45_@3_84"
	x1="378.95062"
	y1="391.95978"
	x2="399.79144"
	y2="393.13937" />
<polygon
	points="399.79144,511.30865 399.79144,393.13937 372.72302,347.26157 308.11755,355.93213 281.04916,409.07556 281.04916,527.2448 308.11755,573.1227 372.72302,564.4521 "
	id="face_84_90_48_54_60_66_72_78"
	style="fill:rgb(192,192,192);stroke:none"
	opacity="1.0" />
<line
	class="arc1"
	id="link78_@1_72"
	x1="399.79144"
	y1="511.30865"
	x2="372.72302"
	y2="564.4521" />
<line
	class="arc0"
	id="link78_@0_84"
	x1="399.79144"
	y1="511.30865"
	x2="399.79144"
	y2="393.13937" />
<line
	class="arc1"
	id="link26_@1_25"
	x1="69.69498"
	y1="342.43753"
	x2="42.626553"
	y2="395.58093" />
<line
	class="arc2"
	id="link26_@2_27"
	x1="69.69498"
	y1="342.43753"
	x2="87.06235"
	y2="322.79114" />
<line
	class="arc1"
	id="link85_@1_86"
	x1="428.4374"
	y1="392.6087"
	x2="470.11914"
	y2="345.45728" />
<line
	class="arc2"
	id="link85_@2_84"
	x1="428.4374"
	y1="392.6087"
	x2="399.79144"
	y2="393.13937" />
<line
	class="arc1"
	id="link133_@1_134"
	x1="69.69498"
	y1="276.4234"
	x2="42.626553"
	y2="230.54556" />
<line
	class="arc2"
	id="link133_@2_132"
	x1="69.69498"
	y1="276.4234"
	x2="87.06235"
	y2="298.03592" />
<line
	class="arc1"
	id="link84_@1_90"
	x1="399.79144"
	y1="393.13937"
	x2="372.72302"
	y2="347.26157" />
<line
	class="arc2"
	id="link6_@2_43"
	x1="334.5149"
	y1="582.91895"
	x2="351.8822"
	y2="563.2725" />
<line
	class="arc0"
	id="link6_@0_5"
	x1="334.5149"
	y1="582.91895"
	x2="269.90945"
	y2="591.58954" />
<polygon
	points="378.95062,226.92441 378.95062,108.755005 351.8822,62.877197 287.27676,71.54779 260.20834,124.69125 260.20834,242.86063 287.27676,288.73843 351.8822,280.06787 "
	id="face_111_112_106_105_104_103_109_110"
	style="fill:rgb(192,192,192);stroke:none"
	opacity="1.0" />
<line
	class="arc1"
	id="link110_@1_109"
	x1="378.95062"
	y1="226.92441"
	x2="351.8822"
	y2="280.06787" />
<line
	class="arc3"
	id="link110_@3_174"
	x1="378.95062"
	y1="226.92441"
	x2="399.79144"
	y2="228.10403" />
<line
	class="arc0"
	id="link110_@0_111"
	x1="378.95062"
	y1="226.92441"
	x2="378.95062"
	y2="108.755005" />
<line
	class="arc1"
	id="link27_@1_22"
	x1="87.06235"
	y1="322.79114"
	x2="101.67563"
	y2="328.7831" />
<line
	class="arc3"
	id="link27_@3_132"
	x1="87.06235"
	y1="322.79114"
	x2="87.06235"
	y2="298.03592" />
<line
	class="arc2"
	id="link80_@2_74"
	x1="470.11914"
	y1="562.64777"
	x2="458.84064"
	y2="584.7909" />
<line
	class="arc0"
	id="link80_@0_81"
	x1="470.11914"
	y1="562.64777"
	x2="569.6029"
	y2="568.2785" />
<line
	class="arc1"
	id="link132_@1_138"
	x1="87.06235"
	y1="298.03592"
	x2="101.67563"
	y2="304.0279" />
<polygon
	points="428.4374,227.5733 428.4374,109.40393 470.11914,62.25244 569.6029,67.88324 611.2846,119.75305 611.2846,237.92242 569.6029,285.07385 470.11914,279.44315 "
	id="face_181_182_183_184_178_177_176_175"
	style="fill:rgb(192,192,192);stroke:none"
	opacity="1.0" />
<line
	class="arc1"
	id="link175_@1_176"
	x1="428.4374"
	y1="227.5733"
	x2="470.11914"
	y2="279.44315" />
<line
	class="arc2"
	id="link175_@2_174"
	x1="428.4374"
	y1="227.5733"
	x2="399.79144"
	y2="228.10403" />
<line
	class="arc0"
	id="link175_@0_181"
	x1="428.4374"
	y1="227.5733"
	x2="428.4374"
	y2="109.40393" />
<line
	class="arc1"
	id="link111_@1_112"
	x1="378.95062"
	y1="108.755005"
	x2="351.8822"
	y2="62.877197" />
<line
	class="arc3"
	id="link111_@3_180"
	x1="378.95062"
	y1="108.755005"
	x2="399.79144"
	y2="109.93463" />
<line
	class="arc3"
	id="link43_@3_72"
	x1="351.8822"
	y1="563.2725"
	x2="372.72302"
	y2="564.4521" />
<line
	class="arc0"
	id="link43_@0_8"
	x1="351.8822"
	y1="563.2725"
	x2="287.27676"
	y2="571.94305" />
<polygon
	points="399.79144,228.10403 399.79144,109.93463 372.72302,64.05682 308.11755,72.727356 281.04916,125.87082 281.04916,244.04019 308.11755,289.91803 372.72302,281.24744 "
	id="face_180_186_144_150_156_162_168_174"
	style="fill:rgb(192,192,192);stroke:none"
	opacity="1.0" />
<line
	class="arc1"
	id="link174_@1_168"
	x1="399.79144"
	y1="228.10403"
	x2="372.72302"
	y2="281.24744" />
<line
	class="arc0"
	id="link174_@0_180"
	x1="399.79144"
	y1="228.10403"
	x2="399.79144"
	y2="109.93463" />
<line
	class="arc1"
	id="link136_@1_135"
	x1="69.69498"
	y1="59.232727"
	x2="42.626553"
	y2="112.37622" />
<line
	class="arc2"
	id="link136_@2_137"
	x1="69.69498"
	y1="59.232727"
	x2="87.06235"
	y2="39.586365" />
<line
	class="arc2"
	id="link24_@2_19"
	x1="42.626553"
	y1="513.75024"
	x2="48.715454"
	y2="516.2469" />
<line
	class="arc0"
	id="link24_@0_25"
	x1="42.626553"
	y1="513.75024"
	x2="42.626553"
	y2="395.58093" />
<line
	class="arc1"
	id="link181_@1_182"
	x1="428.4374"
	y1="109.40393"
	x2="470.11914"
	y2="62.25244" />
<line
	class="arc2"
	id="link181_@2_180"
	x1="428.4374"
	y1="109.40393"
	x2="399.79144"
	y2="109.93463" />
<polygon
	points="458.84064,584.7909 558.3244,590.4216 572.9377,596.4136 508.33224,605.08417 439.58212,606.3578 340.09833,600.72705 325.48502,594.73505 390.0905,586.0645 "
	id="face_75_76_70_69_68_67_73_74"
	style="fill:rgb(192,192,192);stroke:none"
	opacity="1.0" />
<line
	class="arc1"
	id="link74_@1_73"
	x1="458.84064"
	y1="584.7909"
	x2="390.0905"
	y2="586.0645" />
<line
	class="arc0"
	id="link74_@0_75"
	x1="458.84064"
	y1="584.7909"
	x2="558.3244"
	y2="590.4216" />
<line
	class="arc2"
	id="link47_@2_46"
	x1="334.5149"
	y1="324.46964"
	x2="351.8822"
	y2="346.08197" />
<line
	class="arc3"
	id="link47_@3_108"
	x1="334.5149"
	y1="324.46964"
	x2="334.5149"
	y2="299.7144" />
<line
	class="arc0"
	id="link47_@0_12"
	x1="334.5149"
	y1="324.46964"
	x2="269.90945"
	y2="333.1402" />
<line
	class="arc2"
	id="link86_@2_92"
	x1="470.11914"
	y1="345.45728"
	x2="458.84064"
	y2="326.34158" />
<line
	class="arc0"
	id="link86_@0_87"
	x1="470.11914"
	y1="345.45728"
	x2="569.6029"
	y2="351.08798" />
<line
	class="arc2"
	id="link108_@2_109"
	x1="334.5149"
	y1="299.7144"
	x2="351.8822"
	y2="280.06787" />
<line
	class="arc0"
	id="link108_@0_102"
	x1="334.5149"
	y1="299.7144"
	x2="269.90945"
	y2="308.38495" />
<line
	class="arc1"
	id="link180_@1_186"
	x1="399.79144"
	y1="109.93463"
	x2="372.72302"
	y2="64.05682" />
<line
	class="arc2"
	id="link72_@2_73"
	x1="372.72302"
	y1="564.4521"
	x2="390.0905"
	y2="586.0645" />
<line
	class="arc0"
	id="link72_@0_66"
	x1="372.72302"
	y1="564.4521"
	x2="308.11755"
	y2="573.1227" />
<line
	class="arc2"
	id="link25_@2_20"
	x1="42.626553"
	y1="395.58093"
	x2="48.715454"
	y2="398.07758" />
<line
	class="arc1"
	id="link137_@1_143"
	x1="87.06235"
	y1="39.586365"
	x2="101.67563"
	y2="45.57837" />
<line
	class="arc2"
	id="link176_@2_170"
	x1="470.11914"
	y1="279.44315"
	x2="458.84064"
	y2="301.58636" />
<line
	class="arc0"
	id="link176_@0_177"
	x1="470.11914"
	y1="279.44315"
	x2="569.6029"
	y2="285.07385" />
<line
	class="arc3"
	id="link46_@3_90"
	x1="351.8822"
	y1="346.08197"
	x2="372.72302"
	y2="347.26157" />
<line
	class="arc0"
	id="link46_@0_11"
	x1="351.8822"
	y1="346.08197"
	x2="287.27676"
	y2="354.75256" />
<line
	class="arc0"
	id="link73_@0_67"
	x1="390.0905"
	y1="586.0645"
	x2="325.48502"
	y2="594.73505" />
<line
	class="arc3"
	id="link109_@3_168"
	x1="351.8822"
	y1="280.06787"
	x2="372.72302"
	y2="281.24744" />
<line
	class="arc0"
	id="link109_@0_103"
	x1="351.8822"
	y1="280.06787"
	x2="287.27676"
	y2="288.73843" />
<line
	class="arc2"
	id="link134_@2_140"
	x1="42.626553"
	y1="230.54556"
	x2="48.715454"
	y2="233.04224" />
<line
	class="arc0"
	id="link134_@0_135"
	x1="42.626553"
	y1="230.54556"
	x2="42.626553"
	y2="112.37622" />
<polygon
	points="458.84064,326.34158 558.3244,331.9723 572.9377,337.96426 508.33224,346.63486 439.58212,347.90848 340.09833,342.27774 325.48502,336.28577 390.0905,327.61517 "
	id="face_93_94_52_51_50_49_91_92"
	style="fill:rgb(192,192,192);stroke:none"
	opacity="1.0" />
<line
	class="arc1"
	id="link92_@1_91"
	x1="458.84064"
	y1="326.34158"
	x2="390.0905"
	y2="327.61517" />
<line
	class="arc0"
	id="link92_@0_93"
	x1="458.84064"
	y1="326.34158"
	x2="558.3244"
	y2="331.9723" />
<line
	class="arc2"
	id="link90_@2_91"
	x1="372.72302"
	y1="347.26157"
	x2="390.0905"
	y2="327.61517" />
<line
	class="arc0"
	id="link90_@0_48"
	x1="372.72302"
	y1="347.26157"
	x2="308.11755"
	y2="355.93213" />
<polygon
	points="48.715454,516.2469 48.715454,398.07758 90.39716,350.92615 189.88084,356.55685 231.56256,408.42664 231.56256,526.59595 189.88084,573.7474 90.39716,568.11664 "
	id="face_20_21_16_15_14_13_18_19"
	style="fill:rgb(192,192,192);stroke:none"
	opacity="1.0" />
<line
	class="arc1"
	id="link19_@1_18"
	x1="48.715454"
	y1="516.2469"
	x2="90.39716"
	y2="568.11664" />
<line
	class="arc0"
	id="link19_@0_20"
	x1="48.715454"
	y1="516.2469"
	x2="48.715454"
	y2="398.07758" />
<polygon
	points="458.84064,301.58636 558.3244,307.21707 572.9377,313.20905 508.33224,321.8796 439.58212,323.15323 340.09833,317.5225 325.48502,311.53052 390.0905,302.85992 "
	id="face_171_172_166_165_164_163_169_170"
	style="fill:rgb(192,192,192);stroke:none"
	opacity="1.0" />
<line
	class="arc1"
	id="link170_@1_169"
	x1="458.84064"
	y1="301.58636"
	x2="390.0905"
	y2="302.85992" />
<line
	class="arc0"
	id="link170_@0_171"
	x1="458.84064"
	y1="301.58636"
	x2="558.3244"
	y2="307.21707" />
<line
	class="arc2"
	id="link113_@2_112"
	x1="334.5149"
	y1="41.264893"
	x2="351.8822"
	y2="62.877197" />
<line
	class="arc0"
	id="link113_@0_107"
	x1="334.5149"
	y1="41.264893"
	x2="269.90945"
	y2="49.935486" />
<line
	class="arc2"
	id="link3_@2_18"
	x1="101.67563"
	y1="587.2324"
	x2="90.39716"
	y2="568.11664" />
<line
	class="arc0"
	id="link3_@0_4"
	x1="101.67563"
	y1="587.2324"
	x2="201.1593"
	y2="592.86316" />
<line
	class="arc2"
	id="link182_@2_188"
	x1="470.11914"
	y1="62.25244"
	x2="458.84064"
	y2="43.13684" />
<line
	class="arc0"
	id="link182_@0_183"
	x1="470.11914"
	y1="62.25244"
	x2="569.6029"
	y2="67.88324" />
<line
	class="arc2"
	id="link168_@2_169"
	x1="372.72302"
	y1="281.24744"
	x2="390.0905"
	y2="302.85992" />
<line
	class="arc0"
	id="link168_@0_162"
	x1="372.72302"
	y1="281.24744"
	x2="308.11755"
	y2="289.91803" />
<line
	class="arc2"
	id="link135_@2_141"
	x1="42.626553"
	y1="112.37622"
	x2="48.715454"
	y2="114.87286" />
<line
	class="arc1"
	id="link20_@1_21"
	x1="48.715454"
	y1="398.07758"
	x2="90.39716"
	y2="350.92615" />
<line
	class="arc3"
	id="link112_@3_186"
	x1="351.8822"
	y1="62.877197"
	x2="372.72302"
	y2="64.05682" />
<line
	class="arc0"
	id="link112_@0_106"
	x1="351.8822"
	y1="62.877197"
	x2="287.27676"
	y2="71.54779" />
<line
	class="arc0"
	id="link91_@0_49"
	x1="390.0905"
	y1="327.61517"
	x2="325.48502"
	y2="336.28577" />
<line
	class="arc0"
	id="link169_@0_163"
	x1="390.0905"
	y1="302.85992"
	x2="325.48502"
	y2="311.53052" />
<line
	class="arc0"
	id="link18_@0_13"
	x1="90.39716"
	y1="568.11664"
	x2="189.88084"
	y2="573.7474" />
<polygon
	points="458.84064,43.13684 558.3244,48.767517 572.9377,54.75952 508.33224,63.430115 439.58212,64.703735 340.09833,59.072998 325.48502,53.080994 390.0905,44.41046 "
	id="face_189_190_148_147_146_145_187_188"
	style="fill:rgb(192,192,192);stroke:none"
	opacity="1.0" />
<line
	class="arc1"
	id="link188_@1_187"
	x1="458.84064"
	y1="43.13684"
	x2="390.0905"
	y2="44.41046" />
<line
	class="arc0"
	id="link188_@0_189"
	x1="458.84064"
	y1="43.13684"
	x2="558.3244"
	y2="48.767517" />
<line
	class="arc1"
	id="link81_@1_82"
	x1="569.6029"
	y1="568.2785"
	x2="611.2846"
	y2="521.1271" />
<line
	class="arc2"
	id="link81_@2_75"
	x1="569.6029"
	y1="568.2785"
	x2="558.3244"
	y2="590.4216" />
<polygon
	points="48.715454,233.04224 48.715454,114.87286 90.39716,67.721375 189.88084,73.35205 231.56256,125.22189 231.56256,243.39127 189.88084,290.54276 90.39716,284.91202 "
	id="face_141_142_100_99_98_97_139_140"
	style="fill:rgb(192,192,192);stroke:none"
	opacity="1.0" />
<line
	class="arc1"
	id="link140_@1_139"
	x1="48.715454"
	y1="233.04224"
	x2="90.39716"
	y2="284.91202" />
<line
	class="arc0"
	id="link140_@0_141"
	x1="48.715454"
	y1="233.04224"
	x2="48.715454"
	y2="114.87286" />
<line
	class="arc2"
	id="link186_@2_187"
	x1="372.72302"
	y1="64.05682"
	x2="390.0905"
	y2="44.41046" />
<line
	class="arc0"
	id="link186_@0_144"
	x1="372.72302"
	y1="64.05682"
	x2="308.11755"
	y2="72.727356" />
<line
	class="arc2"
	id="link22_@2_21"
	x1="101.67563"
	y1="328.7831"
	x2="90.39716"
	y2="350.92615" />
<line
	class="arc3"
	id="link22_@3_138"
	x1="101.67563"
	y1="328.7831"
	x2="101.67563"
	y2="304.0279" />
<line
	class="arc0"
	id="link22_@0_17"
	x1="101.67563"
	y1="328.7831"
	x2="201.1593"
	y2="334.41385" />
<line
	class="arc2"
	id="link138_@2_139"
	x1="101.67563"
	y1="304.0279"
	x2="90.39716"
	y2="284.91202" />
<line
	class="arc0"
	id="link138_@0_96"
	x1="101.67563"
	y1="304.0279"
	x2="201.1593"
	y2="309.6586" />
<line
	class="arc1"
	id="link141_@1_142"
	x1="48.715454"
	y1="114.87286"
	x2="90.39716"
	y2="67.721375" />
<line
	class="arc0"
	id="link187_@0_145"
	x1="390.0905"
	y1="44.41046"
	x2="325.48502"
	y2="53.080994" />
<line
	class="arc1"
	id="link75_@1_76"
	x1="558.3244"
	y1="590.4216"
	x2="572.9377"
	y2="596.4136" />
<line
	class="arc0"
	id="link21_@0_16"
	x1="90.39716"
	y1="350.92615"
	x2="189.88084"
	y2="356.55685" />
<line
	class="arc1"
	id="link87_@1_88"
	x1="569.6029"
	y1="351.08798"
	x2="611.2846"
	y2="402.95776" />
<line
	class="arc2"
	id="link87_@2_93"
	x1="569.6029"
	y1="351.08798"
	x2="558.3244"
	y2="331.9723" />
<line
	class="arc0"
	id="link139_@0_97"
	x1="90.39716"
	y1="284.91202"
	x2="189.88084"
	y2="290.54276" />
<line
	class="arc1"
	id="link177_@1_178"
	x1="569.6029"
	y1="285.07385"
	x2="611.2846"
	y2="237.92242" />
<line
	class="arc2"
	id="link177_@2_171"
	x1="569.6029"
	y1="285.07385"
	x2="558.3244"
	y2="307.21707" />
<line
	class="arc2"
	id="link143_@2_142"
	x1="101.67563"
	y1="45.57837"
	x2="90.39716"
	y2="67.721375" />
<line
	class="arc0"
	id="link143_@0_101"
	x1="101.67563"
	y1="45.57837"
	x2="201.1593"
	y2="51.209167" />
<line
	class="arc1"
	id="link5_@1_4"
	x1="269.90945"
	y1="591.58954"
	x2="201.1593"
	y2="592.86316" />
<line
	class="arc2"
	id="link5_@2_8"
	x1="269.90945"
	y1="591.58954"
	x2="287.27676"
	y2="571.94305" />
<line
	class="arc2"
	id="link82_@2_83"
	x1="611.2846"
	y1="521.1271"
	x2="617.3734"
	y2="523.6237" />
<line
	class="arc0"
	id="link82_@0_88"
	x1="611.2846"
	y1="521.1271"
	x2="611.2846"
	y2="402.95776" />
<line
	class="arc1"
	id="link93_@1_94"
	x1="558.3244"
	y1="331.9723"
	x2="572.9377"
	y2="337.96426" />
<line
	class="arc1"
	id="link171_@1_172"
	x1="558.3244"
	y1="307.21707"
	x2="572.9377"
	y2="313.20905" />
<line
	class="arc1"
	id="link8_@1_9"
	x1="287.27676"
	y1="571.94305"
	x2="260.20834"
	y2="526.06525" />
<line
	class="arc3"
	id="link8_@3_66"
	x1="287.27676"
	y1="571.94305"
	x2="308.11755"
	y2="573.1227" />
<line
	class="arc2"
	id="link88_@2_89"
	x1="611.2846"
	y1="402.95776"
	x2="617.3734"
	y2="405.4544" />
<line
	class="arc0"
	id="link142_@0_100"
	x1="90.39716"
	y1="67.721375"
	x2="189.88084"
	y2="73.35205" />
<line
	class="arc2"
	id="link4_@2_13"
	x1="201.1593"
	y1="592.86316"
	x2="189.88084"
	y2="573.7474" />
<line
	class="arc1"
	id="link183_@1_184"
	x1="569.6029"
	y1="67.88324"
	x2="611.2846"
	y2="119.75305" />
<line
	class="arc2"
	id="link183_@2_189"
	x1="569.6029"
	y1="67.88324"
	x2="558.3244"
	y2="48.767517" />
<line
	class="arc1"
	id="link12_@1_17"
	x1="269.90945"
	y1="333.1402"
	x2="201.1593"
	y2="334.41385" />
<line
	class="arc2"
	id="link12_@2_11"
	x1="269.90945"
	y1="333.1402"
	x2="287.27676"
	y2="354.75256" />
<line
	class="arc3"
	id="link12_@3_102"
	x1="269.90945"
	y1="333.1402"
	x2="269.90945"
	y2="308.38495" />
<line
	class="arc1"
	id="link102_@1_96"
	x1="269.90945"
	y1="308.38495"
	x2="201.1593"
	y2="309.6586" />
<line
	class="arc2"
	id="link102_@2_103"
	x1="269.90945"
	y1="308.38495"
	x2="287.27676"
	y2="288.73843" />
<line
	class="arc1"
	id="link66_@1_60"
	x1="308.11755"
	y1="573.1227"
	x2="281.04916"
	y2="527.2448" />
<line
	class="arc2"
	id="link66_@2_67"
	x1="308.11755"
	y1="573.1227"
	x2="325.48502"
	y2="594.73505" />
<line
	class="arc2"
	id="link178_@2_179"
	x1="611.2846"
	y1="237.92242"
	x2="617.3734"
	y2="240.41907" />
<line
	class="arc0"
	id="link178_@0_184"
	x1="611.2846"
	y1="237.92242"
	x2="611.2846"
	y2="119.75305" />
<polygon
	points="617.3734,523.6237 617.3734,405.4544 590.305,359.5766 525.6995,368.2472 498.63116,421.39062 498.63116,539.5599 525.6995,585.4377 590.305,576.76715 "
	id="face_89_95_53_59_65_71_77_83"
	style="fill:rgb(192,192,192);stroke:none"
	opacity="1.0" />
<line
	class="arc1"
	id="link83_@1_77"
	x1="617.3734"
	y1="523.6237"
	x2="590.305"
	y2="576.76715" />
<line
	class="arc0"
	id="link83_@0_89"
	x1="617.3734"
	y1="523.6237"
	x2="617.3734"
	y2="405.4544" />
<line
	class="arc1"
	id="link11_@1_10"
	x1="287.27676"
	y1="354.75256"
	x2="260.20834"
	y2="407.89597" />
<line
	class="arc3"
	id="link11_@3_48"
	x1="287.27676"
	y1="354.75256"
	x2="308.11755"
	y2="355.93213" />
<line
	class="arc1"
	id="link13_@1_14"
	x1="189.88084"
	y1="573.7474"
	x2="231.56256"
	y2="526.59595" />
<line
	class="arc1"
	id="link189_@1_190"
	x1="558.3244"
	y1="48.767517"
	x2="572.9377"
	y2="54.75952" />
<line
	class="arc1"
	id="link67_@1_68"
	x1="325.48502"
	y1="594.73505"
	x2="340.09833"
	y2="600.72705" />
<line
	class="arc2"
	id="link17_@2_16"
	x1="201.1593"
	y1="334.41385"
	x2="189.88084"
	y2="356.55685" />
<line
	class="arc3"
	id="link17_@3_96"
	x1="201.1593"
	y1="334.41385"
	x2="201.1593"
	y2="309.6586" />
<line
	class="arc2"
	id="link184_@2_185"
	x1="611.2846"
	y1="119.75305"
	x2="617.3734"
	y2="122.249695" />
<line
	class="arc1"
	id="link103_@1_104"
	x1="287.27676"
	y1="288.73843"
	x2="260.20834"
	y2="242.86063" />
<line
	class="arc3"
	id="link103_@3_162"
	x1="287.27676"
	y1="288.73843"
	x2="308.11755"
	y2="289.91803" />
<line
	class="arc2"
	id="link96_@2_97"
	x1="201.1593"
	y1="309.6586"
	x2="189.88084"
	y2="290.54276" />
<line
	class="arc1"
	id="link89_@1_95"
	x1="617.3734"
	y1="405.4544"
	x2="590.305"
	y2="359.5766" />
<line
	class="arc1"
	id="link48_@1_54"
	x1="308.11755"
	y1="355.93213"
	x2="281.04916"
	y2="409.07556" />
<line
	class="arc2"
	id="link48_@2_49"
	x1="308.11755"
	y1="355.93213"
	x2="325.48502"
	y2="336.28577" />
<line
	class="arc1"
	id="link107_@1_101"
	x1="269.90945"
	y1="49.935486"
	x2="201.1593"
	y2="51.209167" />
<line
	class="arc2"
	id="link107_@2_106"
	x1="269.90945"
	y1="49.935486"
	x2="287.27676"
	y2="71.54779" />
<line
	class="arc1"
	id="link162_@1_156"
	x1="308.11755"
	y1="289.91803"
	x2="281.04916"
	y2="244.04019" />
<line
	class="arc2"
	id="link162_@2_163"
	x1="308.11755"
	y1="289.91803"
	x2="325.48502"
	y2="311.53052" />
<line
	class="arc1"
	id="link16_@1_15"
	x1="189.88084"
	y1="356.55685"
	x2="231.56256"
	y2="408.42664" />
<line
	class="arc2"
	id="link76_@2_77"
	x1="572.9377"
	y1="596.4136"
	x2="590.305"
	y2="576.76715" />
<line
	class="arc0"
	id="link76_@0_70"
	x1="572.9377"
	y1="596.4136"
	x2="508.33224"
	y2="605.08417" />
<polygon
	points="617.3734,240.41907 617.3734,122.249695 590.305,76.37189 525.6995,85.04236 498.63116,138.18585 498.63116,256.35522 525.6995,302.23306 590.305,293.56247 "
	id="face_185_191_149_155_161_167_173_179"
	style="fill:rgb(192,192,192);stroke:none"
	opacity="1.0" />
<line
	class="arc1"
	id="link179_@1_173"
	x1="617.3734"
	y1="240.41907"
	x2="590.305"
	y2="293.56247" />
<line
	class="arc0"
	id="link179_@0_185"
	x1="617.3734"
	y1="240.41907"
	x2="617.3734"
	y2="122.249695" />
<line
	class="arc1"
	id="link106_@1_105"
	x1="287.27676"
	y1="71.54779"
	x2="260.20834"
	y2="124.69125" />
<line
	class="arc3"
	id="link106_@3_144"
	x1="287.27676"
	y1="71.54779"
	x2="308.11755"
	y2="72.727356" />
<line
	class="arc2"
	id="link9_@2_14"
	x1="260.20834"
	y1="526.06525"
	x2="231.56256"
	y2="526.59595" />
<line
	class="arc3"
	id="link9_@3_60"
	x1="260.20834"
	y1="526.06525"
	x2="281.04916"
	y2="527.2448" />
<line
	class="arc0"
	id="link9_@0_10"
	x1="260.20834"
	y1="526.06525"
	x2="260.20834"
	y2="407.89597" />
<line
	class="arc1"
	id="link49_@1_50"
	x1="325.48502"
	y1="336.28577"
	x2="340.09833"
	y2="342.27774" />
<line
	class="arc1"
	id="link97_@1_98"
	x1="189.88084"
	y1="290.54276"
	x2="231.56256"
	y2="243.39127" />
<line
	class="arc1"
	id="link163_@1_164"
	x1="325.48502"
	y1="311.53052"
	x2="340.09833"
	y2="317.5225" />
<line
	class="arc2"
	id="link101_@2_100"
	x1="201.1593"
	y1="51.209167"
	x2="189.88084"
	y2="73.35205" />
<line
	class="arc0"
	id="link14_@0_15"
	x1="231.56256"
	y1="526.59595"
	x2="231.56256"
	y2="408.42664" />
<line
	class="arc1"
	id="link185_@1_191"
	x1="617.3734"
	y1="122.249695"
	x2="590.305"
	y2="76.37189" />
<line
	class="arc0"
	id="link77_@0_71"
	x1="590.305"
	y1="576.76715"
	x2="525.6995"
	y2="585.4377" />
<line
	class="arc2"
	id="link10_@2_15"
	x1="260.20834"
	y1="407.89597"
	x2="231.56256"
	y2="408.42664" />
<line
	class="arc3"
	id="link10_@3_54"
	x1="260.20834"
	y1="407.89597"
	x2="281.04916"
	y2="409.07556" />
<line
	class="arc1"
	id="link144_@1_150"
	x1="308.11755"
	y1="72.727356"
	x2="281.04916"
	y2="125.87082" />
<line
	class="arc2"
	id="link144_@2_145"
	x1="308.11755"
	y1="72.727356"
	x2="325.48502"
	y2="53.080994" />
<line
	class="arc2"
	id="link60_@2_61"
	x1="281.04916"
	y1="527.2448"
	x2="287.13815"
	y2="529.74146" />
<line
	class="arc0"
	id="link60_@0_54"
	x1="281.04916"
	y1="527.2448"
	x2="281.04916"
	y2="409.07556" />
<line
	class="arc2"
	id="link94_@2_95"
	x1="572.9377"
	y1="337.96426"
	x2="590.305"
	y2="359.5766" />
<line
	class="arc0"
	id="link94_@0_52"
	x1="572.9377"
	y1="337.96426"
	x2="508.33224"
	y2="346.63486" />
<line
	class="arc1"
	id="link100_@1_99"
	x1="189.88084"
	y1="73.35205"
	x2="231.56256"
	y2="125.22189" />
<line
	class="arc2"
	id="link172_@2_173"
	x1="572.9377"
	y1="313.20905"
	x2="590.305"
	y2="293.56247" />
<line
	class="arc0"
	id="link172_@0_166"
	x1="572.9377"
	y1="313.20905"
	x2="508.33224"
	y2="321.8796" />
<line
	class="arc2"
	id="link54_@2_55"
	x1="281.04916"
	y1="409.07556"
	x2="287.13815"
	y2="411.5722" />
<line
	class="arc1"
	id="link145_@1_146"
	x1="325.48502"
	y1="53.080994"
	x2="340.09833"
	y2="59.072998" />
<line
	class="arc2"
	id="link104_@2_98"
	x1="260.20834"
	y1="242.86063"
	x2="231.56256"
	y2="243.39127" />
<line
	class="arc3"
	id="link104_@3_156"
	x1="260.20834"
	y1="242.86063"
	x2="281.04916"
	y2="244.04019" />
<line
	class="arc0"
	id="link104_@0_105"
	x1="260.20834"
	y1="242.86063"
	x2="260.20834"
	y2="124.69125" />
<line
	class="arc0"
	id="link95_@0_53"
	x1="590.305"
	y1="359.5766"
	x2="525.6995"
	y2="368.2472" />
<line
	class="arc0"
	id="link98_@0_99"
	x1="231.56256"
	y1="243.39127"
	x2="231.56256"
	y2="125.22189" />
<line
	class="arc0"
	id="link173_@0_167"
	x1="590.305"
	y1="293.56247"
	x2="525.6995"
	y2="302.23306" />
<line
	class="arc2"
	id="link105_@2_99"
	x1="260.20834"
	y1="124.69125"
	x2="231.56256"
	y2="125.22189" />
<line
	class="arc3"
	id="link105_@3_150"
	x1="260.20834"
	y1="124.69125"
	x2="281.04916"
	y2="125.87082" />
<line
	class="arc2"
	id="link156_@2_157"
	x1="281.04916"
	y1="244.04019"
	x2="287.13815"
	y2="246.53683" />
<line
	class="arc0"
	id="link156_@0_150"
	x1="281.04916"
	y1="244.04019"
	x2="281.04916"
	y2="125.87082" />
<polygon
	points="287.13815,529.74146 287.13815,411.5722 328.8199,364.42078 428.30368,370.05148 469.98538,421.92126 469.98538,540.0906 428.30368,587.242 328.8199,581.61127 "
	id="face_55_56_57_58_64_63_62_61"
	style="fill:rgb(192,192,192);stroke:none"
	opacity="1.0" />
<line
	class="arc1"
	id="link61_@1_62"
	x1="287.13815"
	y1="529.74146"
	x2="328.8199"
	y2="581.61127" />
<line
	class="arc0"
	id="link61_@0_55"
	x1="287.13815"
	y1="529.74146"
	x2="287.13815"
	y2="411.5722" />
<line
	class="arc2"
	id="link190_@2_191"
	x1="572.9377"
	y1="54.75952"
	x2="590.305"
	y2="76.37189" />
<line
	class="arc0"
	id="link190_@0_148"
	x1="572.9377"
	y1="54.75952"
	x2="508.33224"
	y2="63.430115" />
<line
	class="arc2"
	id="link68_@2_62"
	x1="340.09833"
	y1="600.72705"
	x2="328.8199"
	y2="581.61127" />
<line
	class="arc0"
	id="link68_@0_69"
	x1="340.09833"
	y1="600.72705"
	x2="439.58212"
	y2="606.3578" />
<line
	class="arc2"
	id="link150_@2_151"
	x1="281.04916"
	y1="125.87082"
	x2="287.13815"
	y2="128.36746" />
<line
	class="arc1"
	id="link55_@1_56"
	x1="287.13815"
	y1="411.5722"
	x2="328.8199"
	y2="364.42078" />
<line
	class="arc0"
	id="link191_@0_149"
	x1="590.305"
	y1="76.37189"
	x2="525.6995"
	y2="85.04236" />
<line
	class="arc0"
	id="link62_@0_63"
	x1="328.8199"
	y1="581.61127"
	x2="428.30368"
	y2="587.242" />
<polygon
	points="287.13815,246.53683 287.13815,128.36746 328.8199,81.21594 428.30368,86.84668 469.98538,138.71649 469.98538,256.88586 428.30368,304.03738 328.8199,298.40665 "
	id="face_151_152_153_154_160_159_158_157"
	style="fill:rgb(192,192,192);stroke:none"
	opacity="1.0" />
<line
	class="arc1"
	id="link157_@1_158"
	x1="287.13815"
	y1="246.53683"
	x2="328.8199"
	y2="298.40665" />
<line
	class="arc0"
	id="link157_@0_151"
	x1="287.13815"
	y1="246.53683"
	x2="287.13815"
	y2="128.36746" />
<line
	class="arc2"
	id="link50_@2_56"
	x1="340.09833"
	y1="342.27774"
	x2="328.8199"
	y2="364.42078" />
<line
	class="arc0"
	id="link50_@0_51"
	x1="340.09833"
	y1="342.27774"
	x2="439.58212"
	y2="347.90848" />
<line
	class="arc2"
	id="link164_@2_158"
	x1="340.09833"
	y1="317.5225"
	x2="328.8199"
	y2="298.40665" />
<line
	class="arc0"
	id="link164_@0_165"
	x1="340.09833"
	y1="317.5225"
	x2="439.58212"
	y2="323.15323" />
<line
	class="arc1"
	id="link151_@1_152"
	x1="287.13815"
	y1="128.36746"
	x2="328.8199"
	y2="81.21594" />
<line
	class="arc0"
	id="link56_@0_57"
	x1="328.8199"
	y1="364.42078"
	x2="428.30368"
	y2="370.05148" />
<line
	class="arc0"
	id="link158_@0_159"
	x1="328.8199"
	y1="298.40665"
	x2="428.30368"
	y2="304.03738" />
<line
	class="arc2"
	id="link146_@2_152"
	x1="340.09833"
	y1="59.072998"
	x2="328.8199"
	y2="81.21594" />
<line
	class="arc0"
	id="link146_@0_147"
	x1="340.09833"
	y1="59.072998"
	x2="439.58212"
	y2="64.703735" />
<line
	class="arc1"
	id="link70_@1_69"
	x1="508.33224"
	y1="605.08417"
	x2="439.58212"
	y2="606.3578" />
<line
	class="arc2"
	id="link70_@2_71"
	x1="508.33224"
	y1="605.08417"
	x2="525.6995"
	y2="585.4377" />
<line
	class="arc1"
	id="link71_@1_65"
	x1="525.6995"
	y1="585.4377"
	x2="498.63116"
	y2="539.5599" />
<line
	class="arc0"
	id="link152_@0_153"
	x1="328.8199"
	y1="81.21594"
	x2="428.30368"
	y2="86.84668" />
<line
	class="arc2"
	id="link69_@2_63"
	x1="439.58212"
	y1="606.3578"
	x2="428.30368"
	y2="587.242" />
<line
	class="arc1"
	id="link52_@1_51"
	x1="508.33224"
	y1="346.63486"
	x2="439.58212"
	y2="347.90848" />
<line
	class="arc2"
	id="link52_@2_53"
	x1="508.33224"
	y1="346.63486"
	x2="525.6995"
	y2="368.2472" />
<line
	class="arc1"
	id="link166_@1_165"
	x1="508.33224"
	y1="321.8796"
	x2="439.58212"
	y2="323.15323" />
<line
	class="arc2"
	id="link166_@2_167"
	x1="508.33224"
	y1="321.8796"
	x2="525.6995"
	y2="302.23306" />
<line
	class="arc1"
	id="link53_@1_59"
	x1="525.6995"
	y1="368.2472"
	x2="498.63116"
	y2="421.39062" />
<line
	class="arc1"
	id="link63_@1_64"
	x1="428.30368"
	y1="587.242"
	x2="469.98538"
	y2="540.0906" />
<line
	class="arc2"
	id="link51_@2_57"
	x1="439.58212"
	y1="347.90848"
	x2="428.30368"
	y2="370.05148" />
<line
	class="arc1"
	id="link167_@1_161"
	x1="525.6995"
	y1="302.23306"
	x2="498.63116"
	y2="256.35522" />
<line
	class="arc2"
	id="link165_@2_159"
	x1="439.58212"
	y1="323.15323"
	x2="428.30368"
	y2="304.03738" />
<line
	class="arc1"
	id="link148_@1_147"
	x1="508.33224"
	y1="63.430115"
	x2="439.58212"
	y2="64.703735" />
<line
	class="arc2"
	id="link148_@2_149"
	x1="508.33224"
	y1="63.430115"
	x2="525.6995"
	y2="85.04236" />
<line
	class="arc1"
	id="link57_@1_58"
	x1="428.30368"
	y1="370.05148"
	x2="469.98538"
	y2="421.92126" />
<line
	class="arc1"
	id="link149_@1_155"
	x1="525.6995"
	y1="85.04236"
	x2="498.63116"
	y2="138.18585" />
<line
	class="arc1"
	id="link159_@1_160"
	x1="428.30368"
	y1="304.03738"
	x2="469.98538"
	y2="256.88586" />
<line
	class="arc2"
	id="link65_@2_64"
	x1="498.63116"
	y1="539.5599"
	x2="469.98538"
	y2="540.0906" />
<line
	class="arc0"
	id="link65_@0_59"
	x1="498.63116"
	y1="539.5599"
	x2="498.63116"
	y2="421.39062" />
<line
	class="arc2"
	id="link147_@2_153"
	x1="439.58212"
	y1="64.703735"
	x2="428.30368"
	y2="86.84668" />
<line
	class="arc0"
	id="link64_@0_58"
	x1="469.98538"
	y1="540.0906"
	x2="469.98538"
	y2="421.92126" />
<line
	class="arc2"
	id="link59_@2_58"
	x1="498.63116"
	y1="421.39062"
	x2="469.98538"
	y2="421.92126" />
<line
	class="arc1"
	id="link153_@1_154"
	x1="428.30368"
	y1="86.84668"
	x2="469.98538"
	y2="138.71649" />
<line
	class="arc2"
	id="link161_@2_160"
	x1="498.63116"
	y1="256.35522"
	x2="469.98538"
	y2="256.88586" />
<line
	class="arc0"
	id="link161_@0_155"
	x1="498.63116"
	y1="256.35522"
	x2="498.63116"
	y2="138.18585" />
<line
	class="arc0"
	id="link160_@0_154"
	x1="469.98538"
	y1="256.88586"
	x2="469.98538"
	y2="138.71649" />
<line
	class="arc2"
	id="link155_@2_154"
	x1="498.63116"
	y1="138.18585"
	x2="469.98538"
	y2="138.71649" />
</svg>
