<?xml version="1.0" encoding="UTF-8" standalone="no"?>
<!-- Created with Jerboa -->

<svg
   width="531.6051"
   height="435.21417"
   version="1.1"
   id="svg1"
   sodipodi:docname="g-carte-unsew-volume-a2-G.svg"
   inkscape:version="1.3.2 (091e20ef0f, 2023-11-25, custom)"
   xmlns:inkscape="http://www.inkscape.org/namespaces/inkscape"
   xmlns:sodipodi="http://sodipodi.sourceforge.net/DTD/sodipodi-0.dtd"
   xmlns="http://www.w3.org/2000/svg"
   xmlns:svg="http://www.w3.org/2000/svg">
  <defs
     id="defs1" />
  <sodipodi:namedview
     id="namedview1"
     pagecolor="#ffffff"
     bordercolor="#000000"
     borderopacity="0.25"
     inkscape:showpageshadow="2"
     inkscape:pageopacity="0.0"
     inkscape:pagecheckerboard="0"
     inkscape:deskcolor="#d1d1d1"
     showgrid="false"
     inkscape:zoom="0.18181818"
     inkscape:cx="264"
     inkscape:cy="217.25"
     inkscape:window-width="932"
     inkscape:window-height="1034"
     inkscape:window-x="969"
     inkscape:window-y="27"
     inkscape:window-maximized="1"
     inkscape:current-layer="svg1" />
  <style
     id="style">
		.arc0 {
			fill:none;
			fill-rule:evenodd;
			stroke:black;
			stroke-width:4;
			stroke-linecap:round;
			stroke-linejoin:round;
			stroke-opacity:1;
		}
		.arc1 {
			fill:none;
			fill-rule:evenodd;
			stroke:red;
			stroke-width:4;
			stroke-linecap:round;
			stroke-linejoin:round;
			stroke-opacity:1;
		}
		.arc2 {
			fill:none;
			fill-rule:evenodd;
			stroke:blue;
			stroke-width:4;
			stroke-linecap:round;
			stroke-linejoin:round;
			stroke-opacity:1;
		}
		.arc3 {
			fill:none;
			fill-rule:evenodd;
			stroke:green;
			stroke-width:4;
			stroke-linecap:round;
			stroke-linejoin:round;
			stroke-opacity:1;
		}
		.topological-dart {
			fill:#000000;
			stroke:#000000;
			stroke-width:0;
			stroke-linecap:round;
			stroke-linejoin:round;
			stroke-dasharray:none;
			paint-order:markers fill stroke;
		}
	</style>
  <polygon
     points="636.34204,298.14072 711.016,302.35513 742.95856,341.99136 742.95856,430.43695 711.016,466.4677 636.34204,462.2533 604.3994,422.617 604.3994,334.17142 "
     id="face_177_179_178_181_182_180_28_29"
     style="fill:#c0c0c0;stroke:none"
     opacity="1"
     transform="translate(-383.19754,-85.893005)" />
  <line
     class="arc1"
     id="link29_@1_28"
     x1="221.20187"
     y1="336.724"
     x2="253.1445"
     y2="376.36029" />
  <line
     class="arc2"
     id="link29_@2_34"
     x1="221.20187"
     y1="336.724"
     x2="199.24918"
     y2="337.12952" />
  <line
     class="arc0"
     id="link29_@0_177"
     x1="221.20187"
     y1="336.724"
     x2="221.20187"
     y2="248.27841" />
  <polygon
     points="561.703,299.5195 513.20917,306.00912 492.4654,346.6186 492.4654,435.06415 513.20917,470.12167 561.703,463.63208 582.4467,423.02252 582.4467,334.57697 "
     id="face_174_176_175_190_191_189_33_34"
     style="fill:#c0c0c0;stroke:none"
     opacity="1"
     transform="translate(-383.19754,-85.893005)" />
  <line
     class="arc1"
     id="link34_@1_33"
     x1="199.24918"
     y1="337.12952"
     x2="178.50546"
     y2="377.73907" />
  <line
     class="arc0"
     id="link34_@0_174"
     x1="199.24918"
     y1="337.12952"
     x2="199.24918"
     y2="248.68396" />
  <line
     class="arc1"
     id="link177_@1_179"
     x1="221.20187"
     y1="248.27841"
     x2="253.1445"
     y2="212.24771" />
  <line
     class="arc2"
     id="link177_@2_174"
     x1="221.20187"
     y1="248.27841"
     x2="199.24918"
     y2="248.68396" />
  <line
     class="arc1"
     id="link174_@1_176"
     x1="199.24918"
     y1="248.68396"
     x2="178.50546"
     y2="213.6265" />
  <polygon
     points="636.34204,102.50015 711.016,106.71457 742.95856,146.35077 742.95856,234.79633 711.016,270.82712 636.34204,266.61273 604.3994,226.97641 604.3994,138.53091 "
     id="face_30_31_159_161_160_163_164_162"
     style="fill:#c0c0c0;stroke:none"
     opacity="1"
     transform="translate(-383.19754,-85.893005)" />
  <line
     class="arc1"
     id="link162_@1_164"
     x1="221.20187"
     y1="141.0834"
     x2="253.1445"
     y2="180.71973" />
  <line
     class="arc2"
     id="link162_@2_165"
     x1="221.20187"
     y1="141.0834"
     x2="199.24918"
     y2="141.48892" />
  <line
     class="arc0"
     id="link162_@0_30"
     x1="221.20187"
     y1="141.0834"
     x2="221.20187"
     y2="52.637909" />
  <line
     class="arc2"
     id="link28_@2_0"
     x1="253.1445"
     y1="376.36029"
     x2="244.50119"
     y2="393.28094" />
  <line
     class="arc0"
     id="link28_@0_180"
     x1="253.1445"
     y1="376.36029"
     x2="327.81845"
     y2="380.57471" />
  <polygon
     points="561.703,103.87891 513.20917,110.36853 492.4654,150.978 492.4654,239.42355 513.20917,274.48114 561.703,267.9915 582.4467,227.38193 582.4467,138.9364 "
     id="face_35_36_168_170_169_166_167_165"
     style="fill:#c0c0c0;stroke:none"
     opacity="1"
     transform="translate(-383.19754,-85.893005)" />
  <line
     class="arc1"
     id="link165_@1_167"
     x1="199.24918"
     y1="141.48892"
     x2="178.50546"
     y2="182.09848" />
  <line
     class="arc0"
     id="link165_@0_35"
     x1="199.24918"
     y1="141.48892"
     x2="199.24918"
     y2="53.043396" />
  <line
     class="arc1"
     id="link30_@1_31"
     x1="221.20187"
     y1="52.637909"
     x2="253.1445"
     y2="16.607147" />
  <line
     class="arc2"
     id="link30_@2_35"
     x1="221.20187"
     y1="52.637909"
     x2="199.24918"
     y2="53.043396" />
  <polygon
     points="713.5716,487.9671 665.0777,494.45673 612.3914,495.43 537.7174,491.21558 526.51855,486.6368 575.0124,480.1472 627.6987,479.17395 702.37274,483.38834 "
     id="face_183_185_184_187_188_186_1_0"
     style="fill:#c0c0c0;stroke:none"
     opacity="1"
     transform="translate(-383.19754,-85.893005)" />
  <line
     class="arc1"
     id="link0_@1_1"
     x1="244.50119"
     y1="393.28094"
     x2="191.81485"
     y2="394.25418" />
  <line
     class="arc0"
     id="link0_@0_183"
     x1="244.50119"
     y1="393.28094"
     x2="319.1752"
     y2="397.49533" />
  <line
     class="arc1"
     id="link35_@1_36"
     x1="199.24918"
     y1="53.043396"
     x2="178.50546"
     y2="17.985901" />
  <line
     class="arc2"
     id="link179_@2_164"
     x1="253.1445"
     y1="212.24771"
     x2="253.1445"
     y2="180.71973" />
  <line
     class="arc0"
     id="link179_@0_178"
     x1="253.1445"
     y1="212.24771"
     x2="327.81845"
     y2="216.46213" />
  <line
     class="arc2"
     id="link33_@2_1"
     x1="178.50546"
     y1="377.73907"
     x2="191.81485"
     y2="394.25418" />
  <line
     class="arc0"
     id="link33_@0_189"
     x1="178.50546"
     y1="377.73907"
     x2="130.01163"
     y2="384.22867" />
  <line
     class="arc0"
     id="link164_@0_163"
     x1="253.1445"
     y1="180.71973"
     x2="327.81845"
     y2="184.93411" />
  <line
     class="arc0"
     id="link1_@0_186"
     x1="191.81485"
     y1="394.25418"
     x2="143.32101"
     y2="400.7438" />
  <line
     class="arc2"
     id="link176_@2_167"
     x1="178.50546"
     y1="213.6265"
     x2="178.50546"
     y2="182.09848" />
  <line
     class="arc0"
     id="link176_@0_175"
     x1="178.50546"
     y1="213.6265"
     x2="130.01163"
     y2="220.11612" />
  <line
     class="arc2"
     id="link31_@2_32"
     x1="253.1445"
     y1="16.607147"
     x2="244.50119"
     y2="2" />
  <line
     class="arc0"
     id="link31_@0_159"
     x1="253.1445"
     y1="16.607147"
     x2="327.81845"
     y2="20.821564" />
  <line
     class="arc0"
     id="link167_@0_166"
     x1="178.50546"
     y1="182.09848"
     x2="130.01163"
     y2="188.58813" />
  <polygon
     points="713.5716,96.6861 665.0777,103.17572 612.3914,104.14905 537.7174,99.93457 526.51855,95.355835 575.0124,88.86621 627.6987,87.893005 702.37274,92.10736 "
     id="face_156_158_157_172_173_171_37_32"
     style="fill:#c0c0c0;stroke:none"
     opacity="1"
     transform="translate(-383.19754,-85.893005)" />
  <line
     class="arc1"
     id="link32_@1_37"
     x1="244.50119"
     y1="2"
     x2="191.81485"
     y2="2.9732056" />
  <line
     class="arc0"
     id="link32_@0_156"
     x1="244.50119"
     y1="2"
     x2="319.1752"
     y2="6.2143555" />
  <line
     class="arc2"
     id="link36_@2_37"
     x1="178.50546"
     y1="17.985901"
     x2="191.81485"
     y2="2.9732056" />
  <line
     class="arc0"
     id="link36_@0_168"
     x1="178.50546"
     y1="17.985901"
     x2="130.01163"
     y2="24.475525" />
  <line
     class="arc1"
     id="link180_@1_182"
     x1="327.81845"
     y1="380.57471"
     x2="359.76102"
     y2="344.54395" />
  <line
     class="arc2"
     id="link180_@2_183"
     x1="327.81845"
     y1="380.57471"
     x2="319.1752"
     y2="397.49533" />
  <line
     class="arc0"
     id="link37_@0_171"
     x1="191.81485"
     y1="2.9732056"
     x2="143.32101"
     y2="9.4628296" />
  <line
     class="arc1"
     id="link183_@1_185"
     x1="319.1752"
     y1="397.49533"
     x2="330.37405"
     y2="402.0741" />
  <line
     class="arc1"
     id="link178_@1_181"
     x1="327.81845"
     y1="216.46213"
     x2="359.76102"
     y2="256.09836" />
  <line
     class="arc2"
     id="link178_@2_163"
     x1="327.81845"
     y1="216.46213"
     x2="327.81845"
     y2="184.93411" />
  <line
     class="arc1"
     id="link163_@1_160"
     x1="327.81845"
     y1="184.93411"
     x2="359.76102"
     y2="148.90332" />
  <line
     class="arc2"
     id="link182_@2_131"
     x1="359.76102"
     y1="344.54395"
     x2="386.37991"
     y2="346.0462" />
  <line
     class="arc0"
     id="link182_@0_181"
     x1="359.76102"
     y1="344.54395"
     x2="359.76102"
     y2="256.09836" />
  <line
     class="arc1"
     id="link159_@1_161"
     x1="327.81845"
     y1="20.821564"
     x2="359.76102"
     y2="60.457764" />
  <line
     class="arc2"
     id="link159_@2_156"
     x1="327.81845"
     y1="20.821564"
     x2="319.1752"
     y2="6.2143555" />
  <line
     class="arc2"
     id="link181_@2_130"
     x1="359.76102"
     y1="256.09836"
     x2="386.37991"
     y2="257.60065" />
  <polygon
     points="801.52,307.46295 876.19403,311.67737 908.13666,351.3136 908.13666,439.75916 876.19403,475.78992 801.52,471.5755 769.57745,431.9392 769.57745,343.49365 "
     id="face_130_133_134_132_24_23_129_131"
     style="fill:#c0c0c0;stroke:none"
     opacity="1"
     transform="translate(-383.19754,-85.893005)" />
  <line
     class="arc1"
     id="link131_@1_129"
     x1="386.37991"
     y1="346.0462"
     x2="418.32248"
     y2="385.6825" />
  <line
     class="arc0"
     id="link131_@0_130"
     x1="386.37991"
     y1="346.0462"
     x2="386.37991"
     y2="257.60065" />
  <line
     class="arc2"
     id="link160_@2_145"
     x1="359.76102"
     y1="148.90332"
     x2="386.37991"
     y2="150.40564" />
  <line
     class="arc0"
     id="link160_@0_161"
     x1="359.76102"
     y1="148.90332"
     x2="359.76102"
     y2="60.457764" />
  <line
     class="arc1"
     id="link189_@1_191"
     x1="130.01163"
     y1="384.22867"
     x2="109.26785"
     y2="349.17114" />
  <line
     class="arc2"
     id="link189_@2_186"
     x1="130.01163"
     y1="384.22867"
     x2="143.32101"
     y2="400.7438" />
  <line
     class="arc1"
     id="link156_@1_158"
     x1="319.1752"
     y1="6.2143555"
     x2="330.37405"
     y2="10.793091" />
  <line
     class="arc1"
     id="link130_@1_133"
     x1="386.37991"
     y1="257.60065"
     x2="418.32248"
     y2="221.56995" />
  <line
     class="arc2"
     id="link161_@2_146"
     x1="359.76102"
     y1="60.457764"
     x2="386.37991"
     y2="61.960114" />
  <line
     class="arc1"
     id="link186_@1_188"
     x1="143.32101"
     y1="400.7438"
     x2="154.51987"
     y2="405.32257" />
  <line
     class="arc1"
     id="link175_@1_190"
     x1="130.01163"
     y1="220.11612"
     x2="109.26785"
     y2="260.72559" />
  <line
     class="arc2"
     id="link175_@2_166"
     x1="130.01163"
     y1="220.11612"
     x2="130.01163"
     y2="188.58813" />
  <line
     class="arc2"
     id="link129_@2_126"
     x1="418.32248"
     y1="385.6825"
     x2="409.67929"
     y2="402.60315" />
  <line
     class="arc0"
     id="link129_@0_23"
     x1="418.32248"
     y1="385.6825"
     x2="492.99649"
     y2="389.89691" />
  <polygon
     points="801.52,111.82239 876.19403,116.03677 908.13666,155.673 908.13666,244.11853 876.19403,280.14935 801.52,275.93494 769.57745,236.29865 769.57745,147.85312 "
     id="face_146_144_26_25_141_143_142_145"
     style="fill:#c0c0c0;stroke:none"
     opacity="1"
     transform="translate(-383.19754,-85.893005)" />
  <line
     class="arc1"
     id="link145_@1_142"
     x1="386.37991"
     y1="150.40564"
     x2="418.32248"
     y2="190.04193" />
  <line
     class="arc0"
     id="link145_@0_146"
     x1="386.37991"
     y1="150.40564"
     x2="386.37991"
     y2="61.960114" />
  <line
     class="arc1"
     id="link166_@1_169"
     x1="130.01163"
     y1="188.58813"
     x2="109.26785"
     y2="153.53055" />
  <line
     class="arc2"
     id="link185_@2_128"
     x1="330.37405"
     y1="402.0741"
     x2="356.99289"
     y2="403.57642" />
  <line
     class="arc0"
     id="link185_@0_184"
     x1="330.37405"
     y1="402.0741"
     x2="281.88016"
     y2="408.56372" />
  <line
     class="arc1"
     id="link146_@1_144"
     x1="386.37991"
     y1="61.960114"
     x2="418.32248"
     y2="25.929382" />
  <polygon
     points="878.74963,497.2893 830.2558,503.77893 777.56946,504.7522 702.89545,500.53778 691.6966,495.95905 740.1904,489.46942 792.87683,488.49615 867.5508,492.71057 "
     id="face_7_6_123_125_124_127_128_126"
     style="fill:#c0c0c0;stroke:none"
     opacity="1"
     transform="translate(-383.19754,-85.893005)" />
  <line
     class="arc1"
     id="link126_@1_128"
     x1="409.67929"
     y1="402.60315"
     x2="356.99289"
     y2="403.57642" />
  <line
     class="arc0"
     id="link126_@0_7"
     x1="409.67929"
     y1="402.60315"
     x2="484.35324"
     y2="406.81757" />
  <line
     class="arc2"
     id="link133_@2_142"
     x1="418.32248"
     y1="221.56995"
     x2="418.32248"
     y2="190.04193" />
  <line
     class="arc0"
     id="link133_@0_134"
     x1="418.32248"
     y1="221.56995"
     x2="492.99649"
     y2="225.78436" />
  <line
     class="arc1"
     id="link168_@1_170"
     x1="130.01163"
     y1="24.475525"
     x2="109.26785"
     y2="65.084991" />
  <line
     class="arc2"
     id="link168_@2_171"
     x1="130.01163"
     y1="24.475525"
     x2="143.32101"
     y2="9.4628296" />
  <line
     class="arc0"
     id="link142_@0_143"
     x1="418.32248"
     y1="190.04193"
     x2="492.99649"
     y2="194.25635" />
  <line
     class="arc2"
     id="link191_@2_92"
     x1="109.26785"
     y1="349.17114"
     x2="91.981354"
     y2="351.4845" />
  <line
     class="arc0"
     id="link191_@0_190"
     x1="109.26785"
     y1="349.17114"
     x2="109.26785"
     y2="260.72559" />
  <line
     class="arc0"
     id="link128_@0_127"
     x1="356.99289"
     y1="403.57642"
     x2="308.49905"
     y2="410.06604" />
  <line
     class="arc1"
     id="link171_@1_173"
     x1="143.32101"
     y1="9.4628296"
     x2="154.51987"
     y2="14.041565" />
  <line
     class="arc2"
     id="link190_@2_91"
     x1="109.26785"
     y1="260.72559"
     x2="91.981354"
     y2="263.03894" />
  <line
     class="arc2"
     id="link144_@2_147"
     x1="418.32248"
     y1="25.929382"
     x2="409.67929"
     y2="11.322205" />
  <line
     class="arc0"
     id="link144_@0_26"
     x1="418.32248"
     y1="25.929382"
     x2="492.99649"
     y2="30.143768" />
  <line
     class="arc2"
     id="link169_@2_76"
     x1="109.26785"
     y1="153.53055"
     x2="91.981354"
     y2="155.8439" />
  <line
     class="arc0"
     id="link169_@0_170"
     x1="109.26785"
     y1="153.53055"
     x2="109.26785"
     y2="65.084991" />
  <line
     class="arc2"
     id="link158_@2_149"
     x1="330.37405"
     y1="10.793091"
     x2="356.99289"
     y2="12.295441" />
  <line
     class="arc0"
     id="link158_@0_157"
     x1="330.37405"
     y1="10.793091"
     x2="281.88016"
     y2="17.282715" />
  <line
     class="arc2"
     id="link188_@2_95"
     x1="154.51987"
     y1="405.32257"
     x2="137.23337"
     y2="407.63589" />
  <line
     class="arc0"
     id="link188_@0_187"
     x1="154.51987"
     y1="405.32257"
     x2="229.19388"
     y2="409.53699" />
  <line
     class="arc2"
     id="link170_@2_77"
     x1="109.26785"
     y1="65.084991"
     x2="91.981354"
     y2="67.398346" />
  <polygon
     points="454.43512,313.87448 405.94128,320.36407 385.19754,360.97357 385.19754,449.41913 405.94128,484.47662 454.43512,477.98703 475.1789,437.3775 475.1789,348.93195 "
     id="face_91_88_89_87_39_38_90_92"
     style="fill:#c0c0c0;stroke:none"
     opacity="1"
     transform="translate(-383.19754,-85.893005)" />
  <line
     class="arc1"
     id="link92_@1_90"
     x1="91.981354"
     y1="351.4845"
     x2="71.237579"
     y2="392.09402" />
  <line
     class="arc0"
     id="link92_@0_91"
     x1="91.981354"
     y1="351.4845"
     x2="91.981354"
     y2="263.03894" />
  <polygon
     points="878.74963,106.00833 830.2558,112.49792 777.56946,113.47125 702.89545,109.25678 691.6966,104.67807 740.1904,98.188446 792.87683,97.21521 867.5508,101.4296 "
     id="face_27_22_150_152_151_148_149_147"
     style="fill:#c0c0c0;stroke:none"
     opacity="1"
     transform="translate(-383.19754,-85.893005)" />
  <line
     class="arc1"
     id="link147_@1_149"
     x1="409.67929"
     y1="11.322205"
     x2="356.99289"
     y2="12.295441" />
  <line
     class="arc0"
     id="link147_@0_27"
     x1="409.67929"
     y1="11.322205"
     x2="484.35324"
     y2="15.536598" />
  <line
     class="arc1"
     id="link23_@1_24"
     x1="492.99649"
     y1="389.89691"
     x2="524.93909"
     y2="353.86615" />
  <line
     class="arc2"
     id="link23_@2_7"
     x1="492.99649"
     y1="389.89691"
     x2="484.35324"
     y2="406.81757" />
  <line
     class="arc1"
     id="link91_@1_88"
     x1="91.981354"
     y1="263.03894"
     x2="71.237579"
     y2="227.98148" />
  <line
     class="arc0"
     id="link149_@0_148"
     x1="356.99289"
     y1="12.295441"
     x2="308.49905"
     y2="18.785065" />
  <line
     class="arc1"
     id="link7_@1_6"
     x1="484.35324"
     y1="406.81757"
     x2="495.55209"
     y2="411.3963" />
  <polygon
     points="454.43512,118.23386 405.94128,124.72345 385.19754,165.33298 385.19754,253.77853 405.94128,288.8361 454.43512,282.3465 475.1789,241.73691 475.1789,153.29135 "
     id="face_77_75_41_40_78_80_79_76"
     style="fill:#c0c0c0;stroke:none"
     opacity="1"
     transform="translate(-383.19754,-85.893005)" />
  <line
     class="arc1"
     id="link76_@1_79"
     x1="91.981354"
     y1="155.8439"
     x2="71.237579"
     y2="196.45349" />
  <line
     class="arc0"
     id="link76_@0_77"
     x1="91.981354"
     y1="155.8439"
     x2="91.981354"
     y2="67.398346" />
  <line
     class="arc1"
     id="link134_@1_132"
     x1="492.99649"
     y1="225.78436"
     x2="524.93909"
     y2="265.42059" />
  <line
     class="arc2"
     id="link134_@2_143"
     x1="492.99649"
     y1="225.78436"
     x2="492.99649"
     y2="194.25635" />
  <line
     class="arc1"
     id="link143_@1_141"
     x1="492.99649"
     y1="194.25635"
     x2="524.93909"
     y2="158.22552" />
  <line
     class="arc1"
     id="link77_@1_75"
     x1="91.981354"
     y1="67.398346"
     x2="71.237579"
     y2="32.340851" />
  <polygon
     points="606.3037,502.32208 557.8098,508.81168 505.12354,509.78494 430.44955,505.57053 419.2507,500.99176 467.74454,494.50214 520.4309,493.5289 595.1049,497.74332 "
     id="face_94_97_98_96_3_2_93_95"
     style="fill:#c0c0c0;stroke:none"
     opacity="1"
     transform="translate(-383.19754,-85.893005)" />
  <line
     class="arc1"
     id="link95_@1_93"
     x1="137.23337"
     y1="407.63589"
     x2="84.546997"
     y2="408.60913" />
  <line
     class="arc0"
     id="link95_@0_94"
     x1="137.23337"
     y1="407.63589"
     x2="211.90738"
     y2="411.85031" />
  <line
     class="arc2"
     id="link24_@2_19"
     x1="524.93909"
     y1="353.86615"
     x2="529.6051"
     y2="355.77399" />
  <line
     class="arc0"
     id="link24_@0_132"
     x1="524.93909"
     y1="353.86615"
     x2="524.93909"
     y2="265.42059" />
  <line
     class="arc2"
     id="link90_@2_93"
     x1="71.237579"
     y1="392.09402"
     x2="84.546997"
     y2="408.60913" />
  <line
     class="arc0"
     id="link90_@0_38"
     x1="71.237579"
     y1="392.09402"
     x2="22.743744"
     y2="398.58362" />
  <line
     class="arc2"
     id="link173_@2_74"
     x1="154.51987"
     y1="14.041565"
     x2="137.23337"
     y2="16.354912" />
  <line
     class="arc0"
     id="link173_@0_172"
     x1="154.51987"
     y1="14.041565"
     x2="229.19388"
     y2="18.256042" />
  <line
     class="arc1"
     id="link26_@1_25"
     x1="492.99649"
     y1="30.143768"
     x2="524.93909"
     y2="69.779999" />
  <line
     class="arc2"
     id="link26_@2_27"
     x1="492.99649"
     y1="30.143768"
     x2="484.35324"
     y2="15.536598" />
  <line
     class="arc0"
     id="link93_@0_2"
     x1="84.546997"
     y1="408.60913"
     x2="36.053162"
     y2="415.09875" />
  <line
     class="arc2"
     id="link132_@2_135"
     x1="524.93909"
     y1="265.42059"
     x2="529.6051"
     y2="267.3284" />
  <line
     class="arc1"
     id="link184_@1_187"
     x1="281.88016"
     y1="408.56372"
     x2="229.19388"
     y2="409.53699" />
  <line
     class="arc2"
     id="link184_@2_127"
     x1="281.88016"
     y1="408.56372"
     x2="308.49905"
     y2="410.06604" />
  <line
     class="arc2"
     id="link88_@2_79"
     x1="71.237579"
     y1="227.98148"
     x2="71.237579"
     y2="196.45349" />
  <line
     class="arc0"
     id="link88_@0_89"
     x1="71.237579"
     y1="227.98148"
     x2="22.743744"
     y2="234.47107" />
  <line
     class="arc2"
     id="link141_@2_138"
     x1="524.93909"
     y1="158.22552"
     x2="529.6051"
     y2="160.13336" />
  <line
     class="arc0"
     id="link141_@0_25"
     x1="524.93909"
     y1="158.22552"
     x2="524.93909"
     y2="69.779999" />
  <line
     class="arc0"
     id="link79_@0_80"
     x1="71.237579"
     y1="196.45349"
     x2="22.743744"
     y2="202.94308" />
  <line
     class="arc2"
     id="link187_@2_94"
     x1="229.19388"
     y1="409.53699"
     x2="211.90738"
     y2="411.85031" />
  <polygon
     points="892.0589,318.16394 843.56506,324.65356 822.8213,365.263 822.8213,453.7086 843.56506,488.7661 892.0589,482.2765 912.8026,441.667 912.8026,353.2214 "
     id="face_135_137_136_121_122_120_18_19"
     style="fill:#c0c0c0;stroke:none"
     opacity="1"
     transform="translate(-383.19754,-85.893005)" />
  <line
     class="arc1"
     id="link19_@1_18"
     x1="529.6051"
     y1="355.77399"
     x2="508.86136"
     y2="396.38348" />
  <line
     class="arc0"
     id="link19_@0_135"
     x1="529.6051"
     y1="355.77399"
     x2="529.6051"
     y2="267.3284" />
  <line
     class="arc1"
     id="link27_@1_22"
     x1="484.35324"
     y1="15.536598"
     x2="495.55209"
     y2="20.115326" />
  <line
     class="arc2"
     id="link25_@2_20"
     x1="524.93909"
     y1="69.779999"
     x2="529.6051"
     y2="71.687836" />
  <line
     class="arc1"
     id="link127_@1_124"
     x1="308.49905"
     y1="410.06604"
     x2="319.69791"
     y2="414.64478" />
  <line
     class="arc1"
     id="link135_@1_137"
     x1="529.6051"
     y1="267.3284"
     x2="508.86136"
     y2="232.27094" />
  <polygon
     points="606.3037,111.04111 557.8098,117.53073 505.12354,118.50397 430.44955,114.28958 419.2507,109.71079 467.74454,103.22116 520.4309,102.24792 595.1049,106.46231 "
     id="face_73_70_71_69_47_42_72_74"
     style="fill:#c0c0c0;stroke:none"
     opacity="1"
     transform="translate(-383.19754,-85.893005)" />
  <line
     class="arc1"
     id="link74_@1_72"
     x1="137.23337"
     y1="16.354912"
     x2="84.546997"
     y2="17.328156" />
  <line
     class="arc0"
     id="link74_@0_73"
     x1="137.23337"
     y1="16.354912"
     x2="211.90738"
     y2="20.569305" />
  <line
     class="arc2"
     id="link75_@2_72"
     x1="71.237579"
     y1="32.340851"
     x2="84.546997"
     y2="17.328156" />
  <line
     class="arc0"
     id="link75_@0_41"
     x1="71.237579"
     y1="32.340851"
     x2="22.743744"
     y2="38.830444" />
  <polygon
     points="892.0589,122.52335 843.56506,129.01297 822.8213,169.62244 822.8213,258.068 843.56506,293.12555 892.0589,286.63593 912.8026,246.02637 912.8026,157.58084 "
     id="face_20_21_153_155_154_139_140_138"
     style="fill:#c0c0c0;stroke:none"
     opacity="1"
     transform="translate(-383.19754,-85.893005)" />
  <line
     class="arc1"
     id="link138_@1_140"
     x1="529.6051"
     y1="160.13336"
     x2="508.86136"
     y2="200.74292" />
  <line
     class="arc0"
     id="link138_@0_20"
     x1="529.6051"
     y1="160.13336"
     x2="529.6051"
     y2="71.687836" />
  <line
     class="arc2"
     id="link6_@2_18"
     x1="495.55209"
     y1="411.3963"
     x2="508.86136"
     y2="396.38348" />
  <line
     class="arc0"
     id="link6_@0_123"
     x1="495.55209"
     y1="411.3963"
     x2="447.05826"
     y2="417.88593" />
  <line
     class="arc1"
     id="link157_@1_172"
     x1="281.88016"
     y1="17.282715"
     x2="229.19388"
     y2="18.256042" />
  <line
     class="arc2"
     id="link157_@2_148"
     x1="281.88016"
     y1="17.282715"
     x2="308.49905"
     y2="18.785065" />
  <line
     class="arc0"
     id="link72_@0_42"
     x1="84.546997"
     y1="17.328156"
     x2="36.053162"
     y2="23.817772" />
  <line
     class="arc1"
     id="link94_@1_97"
     x1="211.90738"
     y1="411.85031"
     x2="223.10617"
     y2="416.42908" />
  <line
     class="arc1"
     id="link20_@1_21"
     x1="529.6051"
     y1="71.687836"
     x2="508.86136"
     y2="36.630348" />
  <line
     class="arc0"
     id="link18_@0_120"
     x1="508.86136"
     y1="396.38348"
     x2="460.36752"
     y2="402.87311" />
  <line
     class="arc2"
     id="link172_@2_73"
     x1="229.19388"
     y1="18.256042"
     x2="211.90738"
     y2="20.569305" />
  <line
     class="arc1"
     id="link148_@1_151"
     x1="308.49905"
     y1="18.785065"
     x2="319.69791"
     y2="23.363762" />
  <line
     class="arc2"
     id="link137_@2_140"
     x1="508.86136"
     y1="232.27094"
     x2="508.86136"
     y2="200.74292" />
  <line
     class="arc0"
     id="link137_@0_136"
     x1="508.86136"
     y1="232.27094"
     x2="460.36752"
     y2="238.76056" />
  <line
     class="arc0"
     id="link140_@0_139"
     x1="508.86136"
     y1="200.74292"
     x2="460.36752"
     y2="207.23254" />
  <line
     class="arc2"
     id="link22_@2_21"
     x1="495.55209"
     y1="20.115326"
     x2="508.86136"
     y2="36.630348" />
  <line
     class="arc0"
     id="link22_@0_150"
     x1="495.55209"
     y1="20.115326"
     x2="447.05826"
     y2="26.604912" />
  <line
     class="arc1"
     id="link38_@1_39"
     x1="22.743744"
     y1="398.58362"
     x2="2"
     y2="363.52612" />
  <line
     class="arc2"
     id="link38_@2_2"
     x1="22.743744"
     y1="398.58362"
     x2="36.053162"
     y2="415.09875" />
  <line
     class="arc2"
     id="link124_@2_109"
     x1="319.69791"
     y1="414.64478"
     x2="302.41141"
     y2="416.95813" />
  <line
     class="arc0"
     id="link124_@0_125"
     x1="319.69791"
     y1="414.64478"
     x2="394.37192"
     y2="418.85919" />
  <line
     class="arc1"
     id="link73_@1_70"
     x1="211.90738"
     y1="20.569305"
     x2="223.10617"
     y2="25.148102" />
  <line
     class="arc1"
     id="link2_@1_3"
     x1="36.053162"
     y1="415.09875"
     x2="47.252014"
     y2="419.67752" />
  <line
     class="arc0"
     id="link21_@0_153"
     x1="508.86136"
     y1="36.630348"
     x2="460.36752"
     y2="43.119965" />
  <line
     class="arc1"
     id="link89_@1_87"
     x1="22.743744"
     y1="234.47107"
     x2="2"
     y2="275.08057" />
  <line
     class="arc2"
     id="link89_@2_80"
     x1="22.743744"
     y1="234.47107"
     x2="22.743744"
     y2="202.94308" />
  <line
     class="arc1"
     id="link80_@1_78"
     x1="22.743744"
     y1="202.94308"
     x2="2"
     y2="167.88553" />
  <line
     class="arc2"
     id="link97_@2_106"
     x1="223.10617"
     y1="416.42908"
     x2="249.72501"
     y2="417.93137" />
  <line
     class="arc0"
     id="link97_@0_98"
     x1="223.10617"
     y1="416.42908"
     x2="174.61227"
     y2="422.91867" />
  <polygon
     points="771.48175,511.6443 722.9879,518.1339 670.3016,519.1072 595.62756,514.89276 584.4287,510.31396 632.92255,503.82437 685.60895,502.85114 760.2829,507.06555 "
     id="face_110_108_5_4_105_107_106_109"
     style="fill:#c0c0c0;stroke:none"
     opacity="1"
     transform="translate(-383.19754,-85.893005)" />
  <line
     class="arc1"
     id="link109_@1_106"
     x1="302.41141"
     y1="416.95813"
     x2="249.72501"
     y2="417.93137" />
  <line
     class="arc0"
     id="link109_@0_110"
     x1="302.41141"
     y1="416.95813"
     x2="377.08536"
     y2="421.17255" />
  <line
     class="arc1"
     id="link41_@1_40"
     x1="22.743744"
     y1="38.830444"
     x2="2"
     y2="79.439972" />
  <line
     class="arc2"
     id="link41_@2_42"
     x1="22.743744"
     y1="38.830444"
     x2="36.053162"
     y2="23.817772" />
  <line
     class="arc2"
     id="link39_@2_44"
     x1="2"
     y1="363.52612"
     x2="6.6661987"
     y2="365.43393" />
  <line
     class="arc0"
     id="link39_@0_87"
     x1="2"
     y1="363.52612"
     x2="2"
     y2="275.08057" />
  <line
     class="arc2"
     id="link151_@2_58"
     x1="319.69791"
     y1="23.363762"
     x2="302.41141"
     y2="25.677124" />
  <line
     class="arc0"
     id="link151_@0_152"
     x1="319.69791"
     y1="23.363762"
     x2="394.37192"
     y2="27.578247" />
  <line
     class="arc1"
     id="link123_@1_125"
     x1="447.05826"
     y1="417.88593"
     x2="394.37192"
     y2="418.85919" />
  <line
     class="arc2"
     id="link123_@2_120"
     x1="447.05826"
     y1="417.88593"
     x2="460.36752"
     y2="402.87311" />
  <line
     class="arc0"
     id="link106_@0_107"
     x1="249.72501"
     y1="417.93137"
     x2="201.23117"
     y2="424.42096" />
  <line
     class="arc1"
     id="link42_@1_47"
     x1="36.053162"
     y1="23.817772"
     x2="47.252014"
     y2="28.396576" />
  <line
     class="arc2"
     id="link87_@2_84"
     x1="2"
     y1="275.08057"
     x2="6.6661987"
     y2="276.98834" />
  <line
     class="arc1"
     id="link120_@1_122"
     x1="460.36752"
     y1="402.87311"
     x2="439.62375"
     y2="367.81558" />
  <line
     class="arc2"
     id="link125_@2_110"
     x1="394.37192"
     y1="418.85919"
     x2="377.08536"
     y2="421.17255" />
  <line
     class="arc2"
     id="link78_@2_81"
     x1="2"
     y1="167.88553"
     x2="6.6661987"
     y2="169.7933" />
  <line
     class="arc0"
     id="link78_@0_40"
     x1="2"
     y1="167.88553"
     x2="2"
     y2="79.439972" />
  <polygon
     points="421.80634,326.85065 496.48035,331.06506 528.4229,370.7013 528.4229,459.14685 496.48035,495.1776 421.80634,490.9632 389.86374,451.32693 389.86374,362.88135 "
     id="face_84_86_85_100_101_99_43_44"
     style="fill:#c0c0c0;stroke:none"
     opacity="1"
     transform="translate(-383.19754,-85.893005)" />
  <line
     class="arc1"
     id="link44_@1_43"
     x1="6.6661987"
     y1="365.43393"
     x2="38.608795"
     y2="405.07019" />
  <line
     class="arc0"
     id="link44_@0_84"
     x1="6.6661987"
     y1="365.43393"
     x2="6.6661987"
     y2="276.98834" />
  <line
     class="arc2"
     id="link70_@2_61"
     x1="223.10617"
     y1="25.148102"
     x2="249.72501"
     y2="26.650368" />
  <line
     class="arc0"
     id="link70_@0_71"
     x1="223.10617"
     y1="25.148102"
     x2="174.61227"
     y2="31.637726" />
  <line
     class="arc2"
     id="link3_@2_43"
     x1="47.252014"
     y1="419.67752"
     x2="38.608795"
     y2="405.07019" />
  <line
     class="arc0"
     id="link3_@0_96"
     x1="47.252014"
     y1="419.67752"
     x2="121.92599"
     y2="423.89194" />
  <line
     class="arc2"
     id="link40_@2_45"
     x1="2"
     y1="79.439972"
     x2="6.6661987"
     y2="81.347748" />
  <polygon
     points="771.48175,120.36331 722.9879,126.85294 670.3016,127.82617 595.62756,123.61179 584.4287,119.03299 632.92255,112.54336 685.60895,111.57013 760.2829,115.78451 "
     id="face_59_57_17_12_60_62_61_58"
     style="fill:#c0c0c0;stroke:none"
     opacity="1"
     transform="translate(-383.19754,-85.893005)" />
  <line
     class="arc1"
     id="link58_@1_61"
     x1="302.41141"
     y1="25.677124"
     x2="249.72501"
     y2="26.650368" />
  <line
     class="arc0"
     id="link58_@0_59"
     x1="302.41141"
     y1="25.677124"
     x2="377.08536"
     y2="29.891518" />
  <line
     class="arc1"
     id="link136_@1_121"
     x1="460.36752"
     y1="238.76056"
     x2="439.62375"
     y2="279.37" />
  <line
     class="arc2"
     id="link136_@2_139"
     x1="460.36752"
     y1="238.76056"
     x2="460.36752"
     y2="207.23254" />
  <line
     class="arc1"
     id="link84_@1_86"
     x1="6.6661987"
     y1="276.98834"
     x2="38.608795"
     y2="240.95764" />
  <line
     class="arc1"
     id="link139_@1_154"
     x1="460.36752"
     y1="207.23254"
     x2="439.62375"
     y2="172.17499" />
  <line
     class="arc0"
     id="link43_@0_99"
     x1="38.608795"
     y1="405.07019"
     x2="113.28281"
     y2="409.28461" />
  <line
     class="arc0"
     id="link61_@0_62"
     x1="249.72501"
     y1="26.650368"
     x2="201.23117"
     y2="33.139984" />
  <polygon
     points="421.80634,131.21002 496.48035,135.4245 528.4229,175.0607 528.4229,263.50626 496.48035,299.53705 421.80634,295.32266 389.86374,255.68631 389.86374,167.24075 "
     id="face_45_46_66_68_67_82_83_81"
     style="fill:#c0c0c0;stroke:none"
     opacity="1"
     transform="translate(-383.19754,-85.893005)" />
  <line
     class="arc1"
     id="link81_@1_83"
     x1="6.6661987"
     y1="169.7933"
     x2="38.608795"
     y2="209.42966" />
  <line
     class="arc0"
     id="link81_@0_45"
     x1="6.6661987"
     y1="169.7933"
     x2="6.6661987"
     y2="81.347748" />
  <line
     class="arc1"
     id="link150_@1_152"
     x1="447.05826"
     y1="26.604912"
     x2="394.37192"
     y2="27.578247" />
  <line
     class="arc2"
     id="link150_@2_153"
     x1="447.05826"
     y1="26.604912"
     x2="460.36752"
     y2="43.119965" />
  <line
     class="arc1"
     id="link110_@1_108"
     x1="377.08536"
     y1="421.17255"
     x2="388.28421"
     y2="425.75128" />
  <line
     class="arc1"
     id="link153_@1_155"
     x1="460.36752"
     y1="43.119965"
     x2="439.62375"
     y2="83.729431" />
  <line
     class="arc1"
     id="link45_@1_46"
     x1="6.6661987"
     y1="81.347748"
     x2="38.608795"
     y2="45.317017" />
  <line
     class="arc2"
     id="link122_@2_113"
     x1="439.62375"
     y1="367.81558"
     x2="422.33731"
     y2="370.12894" />
  <line
     class="arc0"
     id="link122_@0_121"
     x1="439.62375"
     y1="367.81558"
     x2="439.62375"
     y2="279.37" />
  <line
     class="arc2"
     id="link152_@2_59"
     x1="394.37192"
     y1="27.578247"
     x2="377.08536"
     y2="29.891518" />
  <line
     class="arc2"
     id="link86_@2_83"
     x1="38.608795"
     y1="240.95764"
     x2="38.608795"
     y2="209.42966" />
  <line
     class="arc0"
     id="link86_@0_85"
     x1="38.608795"
     y1="240.95764"
     x2="113.28281"
     y2="245.17206" />
  <line
     class="arc0"
     id="link83_@0_82"
     x1="38.608795"
     y1="209.42966"
     x2="113.28281"
     y2="213.64404" />
  <line
     class="arc2"
     id="link121_@2_112"
     x1="439.62375"
     y1="279.37"
     x2="422.33731"
     y2="281.68335" />
  <line
     class="arc2"
     id="link47_@2_46"
     x1="47.252014"
     y1="28.396576"
     x2="38.608795"
     y2="45.317017" />
  <line
     class="arc0"
     id="link47_@0_69"
     x1="47.252014"
     y1="28.396576"
     x2="121.92599"
     y2="32.610962" />
  <line
     class="arc1"
     id="link98_@1_96"
     x1="174.61227"
     y1="422.91867"
     x2="121.92599"
     y2="423.89194" />
  <line
     class="arc2"
     id="link98_@2_107"
     x1="174.61227"
     y1="422.91867"
     x2="201.23117"
     y2="424.42096" />
  <line
     class="arc2"
     id="link154_@2_55"
     x1="439.62375"
     y1="172.17499"
     x2="422.33731"
     y2="174.48834" />
  <line
     class="arc0"
     id="link154_@0_155"
     x1="439.62375"
     y1="172.17499"
     x2="439.62375"
     y2="83.729431" />
  <line
     class="arc0"
     id="link46_@0_66"
     x1="38.608795"
     y1="45.317017"
     x2="113.28281"
     y2="49.531494" />
  <line
     class="arc2"
     id="link96_@2_99"
     x1="121.92599"
     y1="423.89194"
     x2="113.28281"
     y2="409.28461" />
  <line
     class="arc2"
     id="link155_@2_56"
     x1="439.62375"
     y1="83.729431"
     x2="422.33731"
     y2="86.042755" />
  <polygon
     points="784.791,332.51892 736.2972,339.0085 715.5534,379.61798 715.5534,468.06354 736.2972,503.12106 784.791,496.63147 805.53485,456.02194 805.53485,367.57635 "
     id="face_112_115_116_114_14_13_111_113"
     style="fill:#c0c0c0;stroke:none"
     opacity="1"
     transform="translate(-383.19754,-85.893005)" />
  <line
     class="arc1"
     id="link113_@1_111"
     x1="422.33731"
     y1="370.12894"
     x2="401.59348"
     y2="410.73846" />
  <line
     class="arc0"
     id="link113_@0_112"
     x1="422.33731"
     y1="370.12894"
     x2="422.33731"
     y2="281.68335" />
  <line
     class="arc1"
     id="link59_@1_57"
     x1="377.08536"
     y1="29.891518"
     x2="388.28421"
     y2="34.470306" />
  <line
     class="arc1"
     id="link107_@1_105"
     x1="201.23117"
     y1="424.42096"
     x2="212.43002"
     y2="428.99976" />
  <line
     class="arc1"
     id="link112_@1_115"
     x1="422.33731"
     y1="281.68335"
     x2="401.59348"
     y2="246.62592" />
  <line
     class="arc1"
     id="link99_@1_101"
     x1="113.28281"
     y1="409.28461"
     x2="145.22537"
     y2="373.25385" />
  <polygon
     points="784.791,136.87827 736.2972,143.36789 715.5534,183.97742 715.5534,272.42294 736.2972,307.4805 784.791,300.9909 805.53485,260.38135 805.53485,171.93576 "
     id="face_56_54_16_15_51_53_52_55"
     style="fill:#c0c0c0;stroke:none"
     opacity="1"
     transform="translate(-383.19754,-85.893005)" />
  <line
     class="arc1"
     id="link55_@1_52"
     x1="422.33731"
     y1="174.48834"
     x2="401.59348"
     y2="215.0979" />
  <line
     class="arc0"
     id="link55_@0_56"
     x1="422.33731"
     y1="174.48834"
     x2="422.33731"
     y2="86.042755" />
  <line
     class="arc2"
     id="link108_@2_111"
     x1="388.28421"
     y1="425.75128"
     x2="401.59348"
     y2="410.73846" />
  <line
     class="arc0"
     id="link108_@0_5"
     x1="388.28421"
     y1="425.75128"
     x2="339.79037"
     y2="432.24091" />
  <line
     class="arc1"
     id="link71_@1_69"
     x1="174.61227"
     y1="31.637726"
     x2="121.92599"
     y2="32.610962" />
  <line
     class="arc2"
     id="link71_@2_62"
     x1="174.61227"
     y1="31.637726"
     x2="201.23117"
     y2="33.139984" />
  <line
     class="arc1"
     id="link56_@1_54"
     x1="422.33731"
     y1="86.042755"
     x2="401.59348"
     y2="50.98526" />
  <line
     class="arc1"
     id="link85_@1_100"
     x1="113.28281"
     y1="245.17206"
     x2="145.22537"
     y2="284.80829" />
  <line
     class="arc2"
     id="link85_@2_82"
     x1="113.28281"
     y1="245.17206"
     x2="113.28281"
     y2="213.64404" />
  <line
     class="arc1"
     id="link82_@1_67"
     x1="113.28281"
     y1="213.64404"
     x2="145.22537"
     y2="177.61325" />
  <line
     class="arc0"
     id="link111_@0_13"
     x1="401.59348"
     y1="410.73846"
     x2="353.09964"
     y2="417.22806" />
  <line
     class="arc2"
     id="link69_@2_66"
     x1="121.92599"
     y1="32.610962"
     x2="113.28281"
     y2="49.531494" />
  <line
     class="arc2"
     id="link101_@2_104"
     x1="145.22537"
     y1="373.25385"
     x2="171.84421"
     y2="374.75613" />
  <line
     class="arc0"
     id="link101_@0_100"
     x1="145.22537"
     y1="373.25385"
     x2="145.22537"
     y2="284.80829" />
  <line
     class="arc1"
     id="link62_@1_60"
     x1="201.23117"
     y1="33.139984"
     x2="212.43002"
     y2="37.718788" />
  <line
     class="arc1"
     id="link66_@1_68"
     x1="113.28281"
     y1="49.531494"
     x2="145.22537"
     y2="89.167694" />
  <line
     class="arc2"
     id="link100_@2_103"
     x1="145.22537"
     y1="284.80829"
     x2="171.84421"
     y2="286.31058" />
  <line
     class="arc2"
     id="link115_@2_52"
     x1="401.59348"
     y1="246.62592"
     x2="401.59348"
     y2="215.0979" />
  <line
     class="arc0"
     id="link115_@0_116"
     x1="401.59348"
     y1="246.62592"
     x2="353.09964"
     y2="253.11551" />
  <line
     class="arc0"
     id="link52_@0_53"
     x1="401.59348"
     y1="215.0979"
     x2="353.09964"
     y2="221.58749" />
  <line
     class="arc2"
     id="link57_@2_54"
     x1="388.28421"
     y1="34.470306"
     x2="401.59348"
     y2="50.98526" />
  <line
     class="arc0"
     id="link57_@0_17"
     x1="388.28421"
     y1="34.470306"
     x2="339.79037"
     y2="40.959938" />
  <line
     class="arc2"
     id="link67_@2_64"
     x1="145.22537"
     y1="177.61325"
     x2="171.84421"
     y2="179.11557" />
  <line
     class="arc0"
     id="link67_@0_68"
     x1="145.22537"
     y1="177.61325"
     x2="145.22537"
     y2="89.167694" />
  <polygon
     points="586.98444,336.17288 661.6584,340.3873 693.60095,380.0235 693.60095,468.46906 661.6584,504.49982 586.98444,500.28543 555.04175,460.64914 555.04175,372.20358 "
     id="face_103_118_119_117_9_8_102_104"
     style="fill:#c0c0c0;stroke:none"
     opacity="1"
     transform="translate(-383.19754,-85.893005)" />
  <line
     class="arc1"
     id="link104_@1_102"
     x1="171.84421"
     y1="374.75613"
     x2="203.7869"
     y2="414.39243" />
  <line
     class="arc0"
     id="link104_@0_103"
     x1="171.84421"
     y1="374.75613"
     x2="171.84421"
     y2="286.31058" />
  <line
     class="arc2"
     id="link105_@2_102"
     x1="212.43002"
     y1="428.99976"
     x2="203.7869"
     y2="414.39243" />
  <line
     class="arc0"
     id="link105_@0_4"
     x1="212.43002"
     y1="428.99976"
     x2="287.10403"
     y2="433.21417" />
  <line
     class="arc0"
     id="link54_@0_16"
     x1="401.59348"
     y1="50.98526"
     x2="353.09964"
     y2="57.474884" />
  <line
     class="arc2"
     id="link68_@2_65"
     x1="145.22537"
     y1="89.167694"
     x2="171.84421"
     y2="90.669983" />
  <line
     class="arc1"
     id="link103_@1_118"
     x1="171.84421"
     y1="286.31058"
     x2="203.7869"
     y2="250.27988" />
  <polygon
     points="586.98444,140.53223 661.6584,144.7467 693.60095,184.38293 693.60095,272.82846 661.6584,308.85925 586.98444,304.64487 555.04175,265.00858 555.04175,176.56299 "
     id="face_65_63_11_10_48_50_49_64"
     style="fill:#c0c0c0;stroke:none"
     opacity="1"
     transform="translate(-383.19754,-85.893005)" />
  <line
     class="arc1"
     id="link64_@1_49"
     x1="171.84421"
     y1="179.11557"
     x2="203.7869"
     y2="218.75186" />
  <line
     class="arc0"
     id="link64_@0_65"
     x1="171.84421"
     y1="179.11557"
     x2="171.84421"
     y2="90.669983" />
  <line
     class="arc0"
     id="link102_@0_8"
     x1="203.7869"
     y1="414.39243"
     x2="278.46085"
     y2="418.60681" />
  <line
     class="arc1"
     id="link65_@1_63"
     x1="171.84421"
     y1="90.669983"
     x2="203.7869"
     y2="54.639221" />
  <line
     class="arc2"
     id="link118_@2_49"
     x1="203.7869"
     y1="250.27988"
     x2="203.7869"
     y2="218.75186" />
  <line
     class="arc0"
     id="link118_@0_119"
     x1="203.7869"
     y1="250.27988"
     x2="278.46085"
     y2="254.49429" />
  <line
     class="arc0"
     id="link49_@0_50"
     x1="203.7869"
     y1="218.75186"
     x2="278.46085"
     y2="222.96625" />
  <line
     class="arc2"
     id="link60_@2_63"
     x1="212.43002"
     y1="37.718788"
     x2="203.7869"
     y2="54.639221" />
  <line
     class="arc0"
     id="link60_@0_12"
     x1="212.43002"
     y1="37.718788"
     x2="287.10403"
     y2="41.933167" />
  <line
     class="arc1"
     id="link5_@1_4"
     x1="339.79037"
     y1="432.24091"
     x2="287.10403"
     y2="433.21417" />
  <line
     class="arc2"
     id="link5_@2_13"
     x1="339.79037"
     y1="432.24091"
     x2="353.09964"
     y2="417.22806" />
  <line
     class="arc0"
     id="link63_@0_11"
     x1="203.7869"
     y1="54.639221"
     x2="278.46085"
     y2="58.853699" />
  <line
     class="arc1"
     id="link13_@1_14"
     x1="353.09964"
     y1="417.22806"
     x2="332.35587"
     y2="382.17053" />
  <line
     class="arc2"
     id="link4_@2_8"
     x1="287.10403"
     y1="433.21417"
     x2="278.46085"
     y2="418.60681" />
  <line
     class="arc1"
     id="link116_@1_114"
     x1="353.09964"
     y1="253.11551"
     x2="332.35587"
     y2="293.72498" />
  <line
     class="arc2"
     id="link116_@2_53"
     x1="353.09964"
     y1="253.11551"
     x2="353.09964"
     y2="221.58749" />
  <line
     class="arc1"
     id="link8_@1_9"
     x1="278.46085"
     y1="418.60681"
     x2="310.40341"
     y2="382.57605" />
  <line
     class="arc1"
     id="link53_@1_51"
     x1="353.09964"
     y1="221.58749"
     x2="332.35587"
     y2="186.52994" />
  <line
     class="arc1"
     id="link17_@1_12"
     x1="339.79037"
     y1="40.959938"
     x2="287.10403"
     y2="41.933167" />
  <line
     class="arc2"
     id="link17_@2_16"
     x1="339.79037"
     y1="40.959938"
     x2="353.09964"
     y2="57.474884" />
  <line
     class="arc1"
     id="link119_@1_117"
     x1="278.46085"
     y1="254.49429"
     x2="310.40341"
     y2="294.13049" />
  <line
     class="arc2"
     id="link119_@2_50"
     x1="278.46085"
     y1="254.49429"
     x2="278.46085"
     y2="222.96625" />
  <line
     class="arc1"
     id="link16_@1_15"
     x1="353.09964"
     y1="57.474884"
     x2="332.35587"
     y2="98.084412" />
  <line
     class="arc1"
     id="link50_@1_48"
     x1="278.46085"
     y1="222.96625"
     x2="310.40341"
     y2="186.93546" />
  <line
     class="arc2"
     id="link12_@2_11"
     x1="287.10403"
     y1="41.933167"
     x2="278.46085"
     y2="58.853699" />
  <line
     class="arc2"
     id="link14_@2_9"
     x1="332.35587"
     y1="382.17053"
     x2="310.40341"
     y2="382.57605" />
  <line
     class="arc0"
     id="link14_@0_114"
     x1="332.35587"
     y1="382.17053"
     x2="332.35587"
     y2="293.72498" />
  <line
     class="arc0"
     id="link9_@0_117"
     x1="310.40341"
     y1="382.57605"
     x2="310.40341"
     y2="294.13049" />
  <line
     class="arc2"
     id="link114_@2_117"
     x1="332.35587"
     y1="293.72498"
     x2="310.40341"
     y2="294.13049" />
  <line
     class="arc1"
     id="link11_@1_10"
     x1="278.46085"
     y1="58.853699"
     x2="310.40341"
     y2="98.489929" />
  <line
     class="arc2"
     id="link51_@2_48"
     x1="332.35587"
     y1="186.52994"
     x2="310.40341"
     y2="186.93546" />
  <line
     class="arc0"
     id="link51_@0_15"
     x1="332.35587"
     y1="186.52994"
     x2="332.35587"
     y2="98.084412" />
  <line
     class="arc0"
     id="link48_@0_10"
     x1="310.40341"
     y1="186.93546"
     x2="310.40341"
     y2="98.489929" />
  <line
     class="arc2"
     id="link15_@2_10"
     x1="332.35587"
     y1="98.084412"
     x2="310.40341"
     y2="98.489929" />
</svg>
