<?xml version="1.0" encoding="UTF-8" standalone="no"?>
<svg
   version="1.1"
   font="Noto Sans Regular"
   font-size="12px"
   width="620"
   height="402.62"
   id="svg3"
   sodipodi:docname="regle-expl-insertion-arete.svg"
   inkscape:version="1.4 (e7c3feb100, 2024-10-09)"
   xmlns:inkscape="http://www.inkscape.org/namespaces/inkscape"
   xmlns:sodipodi="http://sodipodi.sourceforge.net/DTD/sodipodi-0.dtd"
   xmlns="http://www.w3.org/2000/svg"
   xmlns:svg="http://www.w3.org/2000/svg">
  <defs
     id="defs3" />
  <sodipodi:namedview
     id="namedview3"
     pagecolor="#ffffff"
     bordercolor="#000000"
     borderopacity="0.25"
     inkscape:showpageshadow="2"
     inkscape:pageopacity="0.0"
     inkscape:pagecheckerboard="0"
     inkscape:deskcolor="#d1d1d1"
     showgrid="false"
     inkscape:zoom="1.3974359"
     inkscape:cx="313.07339"
     inkscape:cy="209.66972"
     inkscape:window-width="1892"
     inkscape:window-height="1035"
     inkscape:window-x="1929"
     inkscape:window-y="26"
     inkscape:window-maximized="1"
     inkscape:current-layer="svg3" />
  <circle
     id="LGn2_0"
     cx="35.5"
     cy="365.5"
     r="33"
     fill="none"
     stroke="#000000"
     stroke-width="1"
     stroke-linecap="square" />
  <circle
     id="LGn2_1"
     cx="35.5"
     cy="365.5"
     r="35"
     fill="none"
     stroke="#000000"
     stroke-width="1"
     stroke-linecap="square" />
  <text
     id="LGn2_2"
     x="28.5"
     y="367.5"
     fill="#000000" />
  <rect
     id="LGn2_3"
     x="28.5"
     y="385.5"
     width="15"
     height="17"
     fill="#ffffff" />
  <text
     id="LGn2_4"
     x="29.5"
     y="402.5"
     fill="#000000">n2</text>
  <circle
     id="LGn3_5"
     cx="215.5"
     cy="365.5"
     r="33"
     fill="none"
     stroke="#000000"
     stroke-width="1"
     stroke-linecap="square" />
  <text
     id="LGn3_6"
     x="208.5"
     y="367.5"
     fill="#000000" />
  <rect
     id="LGn3_7"
     x="208.5"
     y="385.5"
     width="15"
     height="17"
     fill="#ffffff" />
  <text
     id="LGn3_8"
     x="209.5"
     y="402.5"
     fill="#000000">n3</text>
  <circle
     id="LGn1_9"
     cx="215.5"
     cy="35.5"
     r="33"
     fill="none"
     stroke="#000000"
     stroke-width="1"
     stroke-linecap="square" />
  <text
     id="LGn1_10"
     x="208.5"
     y="37.5"
     fill="#000000" />
  <rect
     id="LGn1_11"
     x="208.5"
     y="55.5"
     width="15"
     height="17"
     fill="#ffffff" />
  <text
     id="LGn1_12"
     x="209.5"
     y="72.5"
     fill="#000000">n1</text>
  <circle
     id="LGn0_13"
     cx="35.5"
     cy="35.5"
     r="33"
     fill="none"
     stroke="#000000"
     stroke-width="1"
     stroke-linecap="square" />
  <circle
     id="LGn0_14"
     cx="35.5"
     cy="35.5"
     r="35"
     fill="none"
     stroke="#000000"
     stroke-width="1"
     stroke-linecap="square" />
  <text
     id="LGn0_15"
     x="28.5"
     y="37.5"
     fill="#000000" />
  <rect
     id="LGn0_16"
     x="28.5"
     y="55.5"
     width="15"
     height="17"
     fill="#ffffff" />
  <text
     id="LGn0_17"
     x="29.5"
     y="72.5"
     fill="#000000">n0</text>
  <line
     id="LGn2_1_n3_18"
     x1="75.5"
     y1="365.5"
     x2="177.5"
     y2="365.5"
     stroke="#c80000"
     stroke-width="1"
     stroke-linecap="butt"
     stroke-dasharray="5"
     style="stroke-dasharray:none" />
  <text
     id="LGn2_1_n3_19"
     x="123.5"
     y="385.5"
     fill="#c80000">1</text>
  <path
     id="LGn0_3_n0_20"
     d="m 61.5,65.5 2,11 c 14,32 45,1 13,-13 l -11,-2"
     fill="none"
     stroke="#00c800"
     stroke-width="2"
     stroke-linecap="butt"
     stroke-dasharray="2"
     style="stroke-dasharray:none" />
  <text
     id="LGn0_3_n0_21"
     x="91.5"
     y="99.5"
     fill="#00c800">3</text>
  <path
     id="LGn2_3_n2_22"
     d="m 64.5,338.5 11,-2 c 32,-14 0,-45 -13,-13 l -2,11"
     fill="none"
     stroke="#00c800"
     stroke-width="2"
     stroke-linecap="butt"
     stroke-dasharray="2"
     style="stroke-dasharray:none" />
  <text
     id="LGn2_3_n2_23"
     x="90.5"
     y="309.5"
     fill="#00c800">3</text>
  <line
     id="LGn0_1_n1_24"
     x1="75.5"
     y1="35.5"
     x2="177.5"
     y2="35.5"
     stroke="#c80000"
     stroke-width="1"
     stroke-linecap="butt"
     stroke-dasharray="5"
     style="stroke-dasharray:none" />
  <text
     id="LGn0_1_n1_25"
     x="123.5"
     y="55.5"
     fill="#c80000">1</text>
  <path
     id="LGn1_3_n1_26"
     d="m 187.5,60.5 -11,3 c -31,15 1,44 13,12 l 2,-11"
     fill="none"
     stroke="#00c800"
     stroke-width="2"
     stroke-linecap="butt"
     stroke-dasharray="2"
     style="stroke-dasharray:none" />
  <text
     id="LGn1_3_n1_27"
     x="156.5"
     y="100.5"
     fill="#00c800">3</text>
  <path
     id="LGn3_3_n3_28"
     d="m 191.5,334.5 -2,-11 c -11,-32 -44,-3 -13,12 l 11,3"
     fill="none"
     stroke="#00c800"
     stroke-width="2"
     stroke-linecap="butt"
     stroke-dasharray="2"
     style="stroke-dasharray:none" />
  <text
     id="LGn3_3_n3_29"
     x="156.5"
     y="308.5"
     fill="#00c800">3</text>
  <polygon
     id="0"
     points="258,41 258,29 289,29 289,23 308,35 289,48 289,41 "
     stroke="#000000"
     stroke-width="1"
     stroke-linecap="square"
     fill="#000000"
     transform="translate(-2.2049393,165.78961)" />
  <circle
     id="RGn5_0"
     cx="526.5"
     cy="139.5"
     r="34"
     fill="none"
     stroke="#000000"
     stroke-width="1"
     stroke-linecap="square" />
  <text
     id="RGn5_1"
     x="519.5"
     y="133.5"
     fill="#000000" />
  <text
     id="RGn5_2"
     x="508.5"
     y="150.5"
     fill="#c0c0c0" />
  <rect
     id="RGn5_3"
     x="519.5"
     y="160.5"
     width="15"
     height="17"
     fill="#ffffff" />
  <text
     id="RGn5_4"
     x="520.5"
     y="177.5"
     fill="#000000">n5</text>
  <circle
     id="RGn3_5"
     cx="586.5"
     cy="349.5"
     r="33"
     fill="none"
     stroke="#000000"
     stroke-width="1"
     stroke-linecap="square" />
  <text
     id="RGn3_6"
     x="579.5"
     y="351.5"
     fill="#000000" />
  <rect
     id="RGn3_7"
     x="579.5"
     y="369.5"
     width="15"
     height="17"
     fill="#ffffff" />
  <text
     id="RGn3_8"
     x="580.5"
     y="386.5"
     fill="#000000">n3</text>
  <circle
     id="RGn0_9"
     cx="346.5"
     cy="49.5"
     r="33"
     fill="none"
     stroke="#000000"
     stroke-width="1"
     stroke-linecap="square" />
  <text
     id="RGn0_10"
     x="339.5"
     y="51.5"
     fill="#000000" />
  <rect
     id="RGn0_11"
     x="339.5"
     y="69.5"
     width="15"
     height="17"
     fill="#ffffff" />
  <text
     id="RGn0_12"
     x="340.5"
     y="86.5"
     fill="#000000">n0</text>
  <circle
     id="RGn4_13"
     cx="406.5"
     cy="139.5"
     r="34"
     fill="none"
     stroke="#000000"
     stroke-width="1"
     stroke-linecap="square" />
  <text
     id="RGn4_14"
     x="399.5"
     y="133.5"
     fill="#000000" />
  <text
     id="RGn4_15"
     x="388.5"
     y="150.5"
     fill="#c0c0c0" />
  <rect
     id="RGn4_16"
     x="399.5"
     y="160.5"
     width="15"
     height="17"
     fill="#ffffff" />
  <text
     id="RGn4_17"
     x="400.5"
     y="177.5"
     fill="#000000">n4</text>
  <circle
     id="RGn7_18"
     cx="526.5"
     cy="259.5"
     r="34"
     fill="none"
     stroke="#000000"
     stroke-width="1"
     stroke-linecap="square" />
  <text
     id="RGn7_19"
     x="519.5"
     y="253.5"
     fill="#000000" />
  <text
     id="RGn7_20"
     x="508.5"
     y="270.5"
     fill="#c0c0c0" />
  <rect
     id="RGn7_21"
     x="519.5"
     y="280.5"
     width="15"
     height="17"
     fill="#ffffff" />
  <text
     id="RGn7_22"
     x="520.5"
     y="297.5"
     fill="#000000">n7</text>
  <circle
     id="RGn1_23"
     cx="586.5"
     cy="49.5"
     r="33"
     fill="none"
     stroke="#000000"
     stroke-width="1"
     stroke-linecap="square" />
  <text
     id="RGn1_24"
     x="579.5"
     y="51.5"
     fill="#000000" />
  <rect
     id="RGn1_25"
     x="579.5"
     y="69.5"
     width="15"
     height="17"
     fill="#ffffff" />
  <text
     id="RGn1_26"
     x="580.5"
     y="86.5"
     fill="#000000">n1</text>
  <circle
     id="RGn2_27"
     cx="346.5"
     cy="349.5"
     r="33"
     fill="none"
     stroke="#000000"
     stroke-width="1"
     stroke-linecap="square" />
  <text
     id="RGn2_28"
     x="339.5"
     y="351.5"
     fill="#000000" />
  <rect
     id="RGn2_29"
     x="339.5"
     y="369.5"
     width="15"
     height="17"
     fill="#ffffff" />
  <text
     id="RGn2_30"
     x="340.5"
     y="386.5"
     fill="#000000">n2</text>
  <circle
     id="RGn6_31"
     cx="406.5"
     cy="259.5"
     r="34"
     fill="none"
     stroke="#000000"
     stroke-width="1"
     stroke-linecap="square" />
  <text
     id="RGn6_32"
     x="399.5"
     y="253.5"
     fill="#000000" />
  <text
     id="RGn6_33"
     x="388.5"
     y="270.5"
     fill="#c0c0c0" />
  <rect
     id="RGn6_34"
     x="399.5"
     y="280.5"
     width="15"
     height="17"
     fill="#ffffff" />
  <text
     id="RGn6_35"
     x="400.5"
     y="297.5"
     fill="#000000">n6</text>
  <line
     id="RGn7_1_n3_36"
     x1="547.5"
     y1="291.5"
     x2="564.5"
     y2="317.5"
     stroke="#c80000"
     stroke-width="1"
     stroke-linecap="butt"
     stroke-dasharray="5"
     style="stroke-dasharray:none" />
  <text
     id="RGn7_1_n3_37"
     x="552.5"
     y="309.5"
     fill="#c80000">1</text>
  <line
     id="RGn5_1_n1_38"
     x1="547.5"
     y1="106.5"
     x2="564.5"
     y2="80.5"
     stroke="#c80000"
     stroke-width="1"
     stroke-linecap="butt"
     stroke-dasharray="5"
     style="stroke-dasharray:none" />
  <text
     id="RGn5_1_n1_39"
     x="552.5"
     y="98.5"
     fill="#c80000">1</text>
  <line
     id="RGn4_2_n5_40"
     x1="445.5"
     y1="139.5"
     x2="487.5"
     y2="139.5"
     stroke="#0000c8"
     stroke-width="1"
     stroke-linecap="square" />
  <text
     id="RGn4_2_n5_41"
     x="463.5"
     y="159.5"
     fill="#0000c8">2</text>
  <line
     id="RGn6_2_n7_42"
     x1="445.5"
     y1="259.5"
     x2="487.5"
     y2="259.5"
     stroke="#0000c8"
     stroke-width="1"
     stroke-linecap="square" />
  <text
     id="RGn6_2_n7_43"
     x="463.5"
     y="279.5"
     fill="#0000c8">2</text>
  <line
     id="RGn4_0_n6_44"
     x1="406.5"
     y1="178.5"
     x2="406.5"
     y2="220.5"
     stroke="#000000"
     stroke-width="2"
     stroke-linecap="square" />
  <text
     id="RGn4_0_n6_45"
     x="388.5"
     y="204.5"
     fill="#000000">0</text>
  <path
     id="RGn4_3_n4_46"
     d="m 431.5,109.5 10,-4 c 29,-19 -7,-44 -14,-11 l -2,11"
     fill="none"
     stroke="#00c800"
     stroke-width="2"
     stroke-linecap="butt"
     stroke-dasharray="2"
     style="stroke-dasharray:none" />
  <text
     id="RGn4_3_n4_47"
     x="451.5"
     y="76.5"
     fill="#00c800">3</text>
  <path
     id="RGn3_3_n3_48"
     d="m 548.5,347.5 -10,-5 c -32,-12 -31,31 1,17 l 9,-6"
     fill="none"
     stroke="#00c800"
     stroke-width="2"
     stroke-linecap="butt"
     stroke-dasharray="2"
     style="stroke-dasharray:none" />
  <text
     id="RGn3_3_n3_49"
     x="501.5"
     y="356.5"
     fill="#00c800">3</text>
  <path
     id="RGn5_3_n5_50"
     d="m 506.5,105.5 -2,-11 c -7,-33 -43,-8 -14,11 l 10,4"
     fill="none"
     stroke="#00c800"
     stroke-width="2"
     stroke-linecap="butt"
     stroke-dasharray="2"
     style="stroke-dasharray:none" />
  <text
     id="RGn5_3_n5_51"
     x="474.5"
     y="76.5"
     fill="#00c800">3</text>
  <line
     id="RGn6_1_n2_52"
     x1="384.5"
     y1="291.5"
     x2="367.5"
     y2="317.5"
     stroke="#c80000"
     stroke-width="1"
     stroke-linecap="butt"
     stroke-dasharray="5"
     style="stroke-dasharray:none" />
  <text
     id="RGn6_1_n2_53"
     x="372.5"
     y="309.5"
     fill="#c80000">1</text>
  <path
     id="RGn7_3_n7_54"
     d="m 500.5,288.5 -10,4 c -29,19 7,44 14,11 l 2,-11"
     fill="none"
     stroke="#00c800"
     stroke-width="2"
     stroke-linecap="butt"
     stroke-dasharray="2"
     style="stroke-dasharray:none" />
  <text
     id="RGn7_3_n7_55"
     x="474.5"
     y="331.5"
     fill="#00c800">3</text>
  <line
     id="RGn5_0_n7_56"
     x1="526.5"
     y1="178.5"
     x2="526.5"
     y2="220.5"
     stroke="#000000"
     stroke-width="2"
     stroke-linecap="square" />
  <text
     id="RGn5_0_n7_57"
     x="508.5"
     y="204.5"
     fill="#000000">0</text>
  <path
     id="RGn6_3_n6_58"
     d="m 425.5,292.5 2,11 c 7,33 43,8 14,-11 l -10,-4"
     fill="none"
     stroke="#00c800"
     stroke-width="2"
     stroke-linecap="butt"
     stroke-dasharray="2"
     style="stroke-dasharray:none" />
  <text
     id="RGn6_3_n6_59"
     x="451.5"
     y="331.5"
     fill="#00c800">3</text>
  <path
     id="RGn0_3_n0_60"
     d="m 383.5,51.5 10,5 c 32,12 31,-31 -1,-17 l -9,6"
     fill="none"
     stroke="#00c800"
     stroke-width="2"
     stroke-linecap="butt"
     stroke-dasharray="2"
     style="stroke-dasharray:none" />
  <text
     id="RGn0_3_n0_61"
     x="424.5"
     y="52.5"
     fill="#00c800">3</text>
  <path
     id="RGn1_3_n1_62"
     d="m 548.5,47.5 -10,-5 c -33,-11 -30,31 1,17 l 9,-6"
     fill="none"
     stroke="#00c800"
     stroke-width="2"
     stroke-linecap="butt"
     stroke-dasharray="2"
     style="stroke-dasharray:none" />
  <text
     id="RGn1_3_n1_63"
     x="501.5"
     y="57.5"
     fill="#00c800">3</text>
  <path
     id="RGn2_3_n2_64"
     d="m 383.5,351.5 10,5 c 32,13 31,-30 -1,-17 l -9,6"
     fill="none"
     stroke="#00c800"
     stroke-width="2"
     stroke-linecap="butt"
     stroke-dasharray="2"
     style="stroke-dasharray:none" />
  <text
     id="RGn2_3_n2_65"
     x="424.5"
     y="353.5"
     fill="#00c800">3</text>
  <line
     id="RGn4_1_n0_66"
     x1="384.5"
     y1="106.5"
     x2="367.5"
     y2="80.5"
     stroke="#c80000"
     stroke-width="1"
     stroke-linecap="butt"
     stroke-dasharray="5"
     style="stroke-dasharray:none" />
  <text
     id="RGn4_1_n0_67"
     x="372.5"
     y="98.5"
     fill="#c80000">1</text>
</svg>
