<?xml version="1.0" encoding="UTF-8" standalone="no"?>
<svg
   version="1.1"
   font="Noto Sans Regular"
   font-size="12px"
   width="818"
   height="310.62"
   id="svg3"
   sodipodi:docname="regle-expl-cas-particulier-1.svg"
   inkscape:version="1.3.2 (091e20ef0f, 2023-11-25, custom)"
   xmlns:inkscape="http://www.inkscape.org/namespaces/inkscape"
   xmlns:sodipodi="http://sodipodi.sourceforge.net/DTD/sodipodi-0.dtd"
   xmlns="http://www.w3.org/2000/svg"
   xmlns:svg="http://www.w3.org/2000/svg">
  <defs
     id="defs3" />
  <sodipodi:namedview
     id="namedview3"
     pagecolor="#ffffff"
     bordercolor="#000000"
     borderopacity="0.25"
     inkscape:showpageshadow="2"
     inkscape:pageopacity="0.0"
     inkscape:pagecheckerboard="0"
     inkscape:deskcolor="#d1d1d1"
     showgrid="false"
     inkscape:zoom="1.0915189"
     inkscape:cx="307.82791"
     inkscape:cy="216.67054"
     inkscape:window-width="1892"
     inkscape:window-height="1034"
     inkscape:window-x="9"
     inkscape:window-y="27"
     inkscape:window-maximized="1"
     inkscape:current-layer="svg3" />
  <text
     id="LGn3_2"
     x="56.5"
     y="275.5"
     fill="#000000"></text>
  <text
     id="LGn4_6"
     x="296.5"
     y="275.5"
     fill="#000000"></text>
  <text
     id="LGn5_19"
     x="326.5"
     y="185.5"
     fill="#000000"></text>
  <text
     id="LGn2_23"
     x="26.5"
     y="185.5"
     fill="#000000"></text>
  <text
     id="LGn0_11"
     x="56.5"
     y="39.5"
     fill="#000000"></text>
  <text
     id="LGn1_15"
     x="296.5"
     y="39.5"
     fill="#000000"></text>
  <g
     id="g40"
     transform="translate(0.5,-29.5)">
    <circle
       id="LGn3_0"
       cx="63"
       cy="303"
       r="33"
       fill="none"
       stroke="#000000"
       stroke-width="1"
       stroke-linecap="square" />
    <circle
       id="LGn3_1"
       cx="63"
       cy="303"
       r="35"
       fill="none"
       stroke="#000000"
       stroke-width="1"
       stroke-linecap="square" />
    <rect
       id="LGn3_3"
       x="56"
       y="323"
       width="15"
       height="17"
       fill="#ffffff" />
    <text
       id="LGn3_4"
       x="57"
       y="340"
       fill="#000000">n3</text>
    <circle
       id="LGn4_5"
       cx="303"
       cy="303"
       r="33"
       fill="none"
       stroke="#000000"
       stroke-width="1"
       stroke-linecap="square" />
    <rect
       id="LGn4_7"
       x="296"
       y="323"
       width="15"
       height="17"
       fill="#ffffff" />
    <text
       id="LGn4_8"
       x="297"
       y="340"
       fill="#000000">n4</text>
    <circle
       id="LGn5_18"
       cx="333"
       cy="213"
       r="33"
       fill="none"
       stroke="#000000"
       stroke-width="1"
       stroke-linecap="square" />
    <rect
       id="LGn5_20"
       x="326"
       y="233"
       width="15"
       height="17"
       fill="#ffffff" />
    <text
       id="LGn5_21"
       x="327"
       y="250"
       fill="#000000">n5</text>
    <circle
       id="LGn2_22"
       cx="33"
       cy="213"
       r="33"
       fill="none"
       stroke="#000000"
       stroke-width="1"
       stroke-linecap="square" />
    <rect
       id="LGn2_24"
       x="26"
       y="233"
       width="15"
       height="17"
       fill="#ffffff" />
    <text
       id="LGn2_25"
       x="27"
       y="250"
       fill="#000000">n2</text>
    <line
       id="LGn2_1_n3_26"
       x1="45"
       y1="249"
       x2="50"
       y2="265"
       stroke="#c80000"
       stroke-width="1"
       stroke-linecap="butt"
       stroke-dasharray="5"
       style="stroke-dasharray:none" />
    <text
       id="LGn2_1_n3_27"
       x="29"
       y="262"
       fill="#c80000">1</text>
    <path
       id="LGn3_3_n3_28"
       d="m 101,293 11,2 c 34,2 20,-39 -6,-16 l -7,8"
       fill="none"
       stroke="#00c800"
       stroke-width="2"
       stroke-linecap="butt"
       stroke-dasharray="2"
       style="stroke-dasharray:none" />
    <text
       id="LGn3_3_n3_29"
       x="139"
       y="281"
       fill="#00c800">3</text>
    <path
       id="LGn3_2_n3_36"
       d="m 91,274 10,-3 c 29,-11 0,-39 -10,-10 l -2,11"
       fill="none"
       stroke="#0000c8"
       stroke-width="1"
       stroke-linecap="square"
       style="stroke-dasharray:none" />
    <text
       id="LGn3_2_n3_37"
       x="117"
       y="246"
       fill="#0000c8">2</text>
    <path
       id="LGn4_3_n4_38"
       d="m 268,286 -7,-8 c -25,-24 -41,17 -6,16 l 11,-2"
       fill="none"
       stroke="#00c800"
       stroke-width="2"
       stroke-linecap="butt"
       stroke-dasharray="2"
       style="stroke-dasharray:none" />
    <text
       id="LGn4_3_n4_39"
       x="222"
       y="279"
       fill="#00c800">3</text>
    <path
       id="LGn4_2_n4_41"
       d="m 278,273 -2,-11 c -9,-29 -39,-3 -10,10 l 10,3"
       fill="none"
       stroke="#0000c8"
       stroke-width="1"
       stroke-linecap="square"
       style="stroke-dasharray:none" />
    <text
       id="LGn4_2_n4_42"
       x="245"
       y="246"
       fill="#0000c8">2</text>
    <path
       id="LGn2_2_n2_44"
       d="m 69,203 11,2 c 31,5 19,-32 -4,-12 l -7,8"
       fill="none"
       stroke="#0000c8"
       stroke-width="1"
       stroke-linecap="square"
       style="stroke-dasharray:none" />
    <text
       id="LGn2_2_n2_45"
       x="109"
       y="195"
       fill="#0000c8">2</text>
    <line
       id="LGn3_0_n4_46"
       x1="103"
       y1="303"
       x2="265"
       y2="303"
       stroke="#000000"
       stroke-width="2"
       stroke-linecap="square"
       style="stroke-dasharray:none" />
    <text
       id="LGn3_0_n4_47"
       x="181"
       y="323"
       fill="#000000">0</text>
    <path
       id="LGn5_2_n5_49"
       d="m 297,199 -7,-8 c -22,-22 -35,15 -4,12 l 11,-2"
       fill="none"
       stroke="#0000c8"
       stroke-width="1"
       stroke-linecap="square"
       style="stroke-dasharray:none" />
    <text
       id="LGn5_2_n5_50"
       x="252"
       y="191"
       fill="#0000c8">2</text>
    <line
       id="LGn5_1_n4_51"
       x1="320"
       y1="249"
       x2="315"
       y2="266"
       stroke="#c80000"
       stroke-width="1"
       stroke-linecap="butt"
       stroke-dasharray="5"
       style="stroke-dasharray:none" />
    <text
       id="LGn5_1_n4_52"
       x="299"
       y="262"
       fill="#c80000">1</text>
    <circle
       id="LGn0_9"
       cx="63"
       cy="67"
       r="33"
       fill="none"
       stroke="#000000"
       stroke-width="1"
       stroke-linecap="square" />
    <circle
       id="LGn0_10"
       cx="63"
       cy="67"
       r="35"
       fill="none"
       stroke="#000000"
       stroke-width="1"
       stroke-linecap="square" />
    <rect
       id="LGn0_12"
       x="56"
       y="87"
       width="15"
       height="17"
       fill="#ffffff" />
    <text
       id="LGn0_13"
       x="57"
       y="104"
       fill="#000000">n0</text>
    <circle
       id="LGn1_14"
       cx="303"
       cy="67"
       r="33"
       fill="none"
       stroke="#000000"
       stroke-width="1"
       stroke-linecap="square" />
    <rect
       id="LGn1_16"
       x="296"
       y="87"
       width="15"
       height="17"
       fill="#ffffff" />
    <text
       id="LGn1_17"
       x="297"
       y="104"
       fill="#000000">n1</text>
    <line
       id="LGn0_0_n1_30"
       x1="103"
       y1="67"
       x2="265"
       y2="67"
       stroke="#000000"
       stroke-width="2"
       stroke-linecap="square"
       style="stroke-dasharray:none" />
    <text
       id="LGn0_0_n1_31"
       x="181"
       y="87"
       fill="#000000">0</text>
    <path
       id="LGn1_2_n1_33"
       d="m 272,89 -11,1 c -30,7 -5,39 9,11 l 4,-10"
       fill="none"
       stroke="#0000c8"
       stroke-width="1"
       stroke-linecap="square"
       style="stroke-dasharray:none" />
    <text
       id="LGn1_2_n1_34"
       x="235"
       y="122"
       fill="#0000c8">2</text>
    <path
       id="LGn0_2_n0_54"
       d="m 93,92 4,10 c 15,27 39,-4 9,-11 L 95,90"
       fill="none"
       stroke="#0000c8"
       stroke-width="1"
       stroke-linecap="square"
       style="stroke-dasharray:none" />
    <text
       id="LGn0_2_n0_55"
       x="126"
       y="123"
       fill="#0000c8">2</text>
  </g>
  <polygon
     id="0"
     points="376,219 376,207 407,207 407,201 426,213 407,226 407,219 "
     stroke="#000000"
     stroke-width="1"
     stroke-linecap="square"
     fill="#000000"
     transform="translate(7.7950607,-57.210388)" />
  <text
     id="RGn3_5"
     x="487.5"
     y="275.5"
     fill="#000000"></text>
  <text
     id="RGn4_9"
     x="727.5"
     y="275.5"
     fill="#000000"></text>
  <text
     id="RGn5_13"
     x="757.5"
     y="185.5"
     fill="#000000"></text>
  <text
     id="RGn2_21"
     x="457.5"
     y="185.5"
     fill="#000000"></text>
  <text
     id="RGn1_1"
     x="727.5"
     y="35.5"
     fill="#000000"></text>
  <text
     id="RGn0_17"
     x="487.5"
     y="35.5"
     fill="#000000"></text>
  <g
     id="g41"
     transform="translate(20.5,-29.5)">
    <circle
       id="RGn3_4"
       cx="494"
       cy="303"
       r="33"
       fill="none"
       stroke="#000000"
       stroke-width="1"
       stroke-linecap="square" />
    <rect
       id="RGn3_6"
       x="487"
       y="323"
       width="15"
       height="17"
       fill="#ffffff" />
    <text
       id="RGn3_7"
       x="488"
       y="340"
       fill="#000000">n3</text>
    <circle
       id="RGn4_8"
       cx="734"
       cy="303"
       r="33"
       fill="none"
       stroke="#000000"
       stroke-width="1"
       stroke-linecap="square" />
    <rect
       id="RGn4_10"
       x="727"
       y="323"
       width="15"
       height="17"
       fill="#ffffff" />
    <text
       id="RGn4_11"
       x="728"
       y="340"
       fill="#000000">n4</text>
    <circle
       id="RGn5_12"
       cx="764"
       cy="213"
       r="33"
       fill="none"
       stroke="#000000"
       stroke-width="1"
       stroke-linecap="square" />
    <rect
       id="RGn5_14"
       x="757"
       y="233"
       width="15"
       height="17"
       fill="#ffffff" />
    <text
       id="RGn5_15"
       x="758"
       y="250"
       fill="#000000">n5</text>
    <circle
       id="RGn2_20"
       cx="464"
       cy="213"
       r="33"
       fill="none"
       stroke="#000000"
       stroke-width="1"
       stroke-linecap="square" />
    <rect
       id="RGn2_22"
       x="457"
       y="233"
       width="15"
       height="17"
       fill="#ffffff" />
    <text
       id="RGn2_23"
       x="458"
       y="250"
       fill="#000000">n2</text>
    <path
       id="RGn3_2_n3_28"
       d="m 524,279 11,-2 c 29,-8 4,-38 -9,-10 l -4,10"
       fill="none"
       stroke="#0000c8"
       stroke-width="1"
       stroke-linecap="square"
       style="stroke-dasharray:none" />
    <text
       id="RGn3_2_n3_29"
       x="554"
       y="255"
       fill="#0000c8">2</text>
    <path
       id="RGn3_3_n3_30"
       d="m 531,296 11,3 c 34,4 22,-38 -5,-17 l -8,8"
       fill="none"
       stroke="#00c800"
       stroke-width="2"
       stroke-linecap="butt"
       stroke-dasharray="2"
       style="stroke-dasharray:none" />
    <text
       id="RGn3_3_n3_31"
       x="570"
       y="287"
       fill="#00c800">3</text>
    <path
       id="RGn4_1_n4_32"
       d="m 718,268 v -12 c -3,-34 -42,-13 -15,9 l 9,5"
       fill="none"
       stroke="#c80000"
       stroke-width="1"
       stroke-linecap="butt"
       stroke-dasharray="5"
       style="stroke-dasharray:none" />
    <text
       id="RGn4_1_n4_33"
       x="691"
       y="235"
       fill="#c80000">1</text>
    <path
       id="RGn4_2_n4_35"
       d="m 704.49372,276.82754 -4,-10 c -15,-27 -39,5 -9,11 l 11,1"
       fill="none"
       stroke="#0000c8"
       stroke-width="1"
       stroke-linecap="square"
       style="stroke-dasharray:none" />
    <text
       id="RGn4_2_n4_36"
       x="665.49371"
       y="255.82755"
       fill="#0000c8">2</text>
    <path
       id="RGn4_3_n4_37"
       d="m 698,289 -8,-8 c -27,-21 -39,20 -5,16 l 11,-2"
       fill="none"
       stroke="#00c800"
       stroke-width="2"
       stroke-linecap="butt"
       stroke-dasharray="2"
       style="stroke-dasharray:none" />
    <text
       id="RGn4_3_n4_38"
       x="651"
       y="285"
       fill="#00c800">3</text>
    <path
       id="RGn2_1_n2_39"
       d="m 501,211 10,4 c 34,9 29,-33 -2,-17 l -8,7"
       fill="none"
       stroke="#c80000"
       stroke-width="1"
       stroke-linecap="butt"
       stroke-dasharray="5"
       style="stroke-dasharray:none" />
    <text
       id="RGn2_1_n2_40"
       x="542"
       y="208"
       fill="#c80000">1</text>
    <path
       id="RGn5_1_n5_43"
       d="m 726,207 -9,-6 c -31,-16 -34,27 -1,17 l 10,-5"
       fill="none"
       stroke="#c80000"
       stroke-width="1"
       stroke-linecap="butt"
       stroke-dasharray="5"
       style="stroke-dasharray:none" />
    <text
       id="RGn5_1_n5_44"
       x="679"
       y="212"
       fill="#c80000">1</text>
    <circle
       id="RGn1_0"
       cx="734"
       cy="63"
       r="33"
       fill="none"
       stroke="#000000"
       stroke-width="1"
       stroke-linecap="square" />
    <rect
       id="RGn1_2"
       x="727"
       y="83"
       width="15"
       height="17"
       fill="#ffffff" />
    <text
       id="RGn1_3"
       x="728"
       y="100"
       fill="#000000">n1</text>
    <circle
       id="RGn0_16"
       cx="494"
       cy="63"
       r="33"
       fill="none"
       stroke="#000000"
       stroke-width="1"
       stroke-linecap="square" />
    <rect
       id="RGn0_18"
       x="487"
       y="83"
       width="15"
       height="17"
       fill="#ffffff" />
    <text
       id="RGn0_19"
       x="488"
       y="100"
       fill="#000000">n0</text>
    <path
       id="RGn1_2_n1_25"
       d="m 704,87 -11,2 c -29,9 -2,39 10,10 l 3,-10"
       fill="none"
       stroke="#0000c8"
       stroke-width="1"
       stroke-linecap="square"
       style="stroke-dasharray:none" />
    <text
       id="RGn1_2_n1_26"
       x="669"
       y="123"
       fill="#0000c8">2</text>
    <line
       id="RGn0_0_n1_41"
       x1="532"
       y1="63"
       x2="696"
       y2="63"
       stroke="#000000"
       stroke-width="2"
       stroke-linecap="square"
       style="stroke-dasharray:none" />
    <text
       id="RGn0_0_n1_42"
       x="611"
       y="83"
       fill="#000000">0</text>
    <path
       id="RGn0_2_n0_46"
       d="m 519,90 3,11 c 10,28 39,0 10,-10 l -11,-3"
       fill="none"
       stroke="#0000c8"
       stroke-width="1"
       stroke-linecap="square"
       style="stroke-dasharray:none" />
    <text
       id="RGn0_2_n0_47"
       x="548"
       y="125"
       fill="#0000c8">2</text>
    <path
       id="RGn3_1_n3_48"
       d="m 514,270 9,-5 c 26,-23 -12,-43 -15,-9 v 12"
       fill="none"
       stroke="#c80000"
       stroke-width="1"
       stroke-linecap="butt"
       stroke-dasharray="5"
       style="stroke-dasharray:none" />
    <text
       id="RGn3_1_n3_49"
       x="528"
       y="235"
       fill="#c80000">1</text>
    <line
       id="RGn3_0_n4_50"
       x1="532"
       y1="303"
       x2="696"
       y2="303"
       stroke="#000000"
       stroke-width="2"
       stroke-linecap="square"
       style="stroke-dasharray:none" />
    <text
       id="RGn3_0_n4_51"
       x="611"
       y="323"
       fill="#000000">0</text>
    <path
       id="RGn5_2_n5_53"
       d="m 739,184 -2,-11 c -10,-29 -39,-2 -10,10 l 10,3"
       fill="none"
       stroke="#0000c8"
       stroke-width="1"
       stroke-linecap="square"
       style="stroke-dasharray:none" />
    <text
       id="RGn5_2_n5_54"
       x="705"
       y="158"
       fill="#0000c8">2</text>
    <path
       id="RGn2_2_n2_56"
       d="m 490,185 10,-3 c 29,-13 -1,-39 -10,-10 l -2,11"
       fill="none"
       stroke="#0000c8"
       stroke-width="1"
       stroke-linecap="square"
       style="stroke-dasharray:none" />
    <text
       id="RGn2_2_n2_57"
       x="515"
       y="156"
       fill="#0000c8">2</text>
  </g>
</svg>
