<?xml version="1.0" encoding="UTF-8" standalone="no"?>
<svg
   version="1.1"
   font="Noto Sans Regular"
   font-size="12px"
   width="800"
   height="402.62"
   id="svg3"
   sodipodi:docname="regle-expl-cas-particulier-2.svg"
   inkscape:version="1.3.2 (091e20ef0f, 2023-11-25, custom)"
   xmlns:inkscape="http://www.inkscape.org/namespaces/inkscape"
   xmlns:sodipodi="http://sodipodi.sourceforge.net/DTD/sodipodi-0.dtd"
   xmlns="http://www.w3.org/2000/svg"
   xmlns:svg="http://www.w3.org/2000/svg">
  <defs
     id="defs3" />
  <sodipodi:namedview
     id="namedview3"
     pagecolor="#ffffff"
     bordercolor="#000000"
     borderopacity="0.25"
     inkscape:showpageshadow="2"
     inkscape:pageopacity="0.0"
     inkscape:pagecheckerboard="0"
     inkscape:deskcolor="#d1d1d1"
     showgrid="false"
     inkscape:zoom="0.91959064"
     inkscape:cx="92.432432"
     inkscape:cy="157.13514"
     inkscape:window-width="1892"
     inkscape:window-height="1034"
     inkscape:window-x="9"
     inkscape:window-y="27"
     inkscape:window-maximized="1"
     inkscape:current-layer="svg3" />
  <circle
     id="LGn2_0"
     cx="35.5"
     cy="365.5"
     r="33"
     fill="none"
     stroke="#000000"
     stroke-width="1"
     stroke-linecap="square" />
  <circle
     id="LGn2_1"
     cx="35.5"
     cy="365.5"
     r="35"
     fill="none"
     stroke="#000000"
     stroke-width="1"
     stroke-linecap="square" />
  <text
     id="LGn2_2"
     x="28.5"
     y="367.5"
     fill="#000000">&lt;&gt;</text>
  <rect
     id="LGn2_3"
     x="28.5"
     y="385.5"
     width="15"
     height="17"
     fill="#ffffff" />
  <text
     id="LGn2_4"
     x="29.5"
     y="402.5"
     fill="#000000">n2</text>
  <circle
     id="LGn4_5"
     cx="35.5"
     cy="125.5"
     r="33"
     fill="none"
     stroke="#000000"
     stroke-width="1"
     stroke-linecap="square" />
  <text
     id="LGn4_6"
     x="28.5"
     y="127.5"
     fill="#000000">&lt;&gt;</text>
  <rect
     id="LGn4_7"
     x="28.5"
     y="145.5"
     width="15"
     height="17"
     fill="#ffffff" />
  <text
     id="LGn4_8"
     x="29.5"
     y="162.5"
     fill="#000000">n4</text>
  <circle
     id="LGn6_9"
     cx="35.5"
     cy="275.5"
     r="33"
     fill="none"
     stroke="#000000"
     stroke-width="1"
     stroke-linecap="square" />
  <text
     id="LGn6_10"
     x="28.5"
     y="277.5"
     fill="#000000">&lt;&gt;</text>
  <rect
     id="LGn6_11"
     x="28.5"
     y="295.5"
     width="15"
     height="17"
     fill="#ffffff" />
  <text
     id="LGn6_12"
     x="29.5"
     y="312.5"
     fill="#000000">n6</text>
  <circle
     id="LGn3_13"
     cx="275.5"
     cy="365.5"
     r="33"
     fill="none"
     stroke="#000000"
     stroke-width="1"
     stroke-linecap="square" />
  <text
     id="LGn3_14"
     x="268.5"
     y="367.5"
     fill="#000000">&lt;&gt;</text>
  <rect
     id="LGn3_15"
     x="268.5"
     y="385.5"
     width="15"
     height="17"
     fill="#ffffff" />
  <text
     id="LGn3_16"
     x="269.5"
     y="402.5"
     fill="#000000">n3</text>
  <circle
     id="LGn1_17"
     cx="275.5"
     cy="35.5"
     r="33"
     fill="none"
     stroke="#000000"
     stroke-width="1"
     stroke-linecap="square" />
  <text
     id="LGn1_18"
     x="268.5"
     y="37.5"
     fill="#000000">&lt;&gt;</text>
  <rect
     id="LGn1_19"
     x="268.5"
     y="55.5"
     width="15"
     height="17"
     fill="#ffffff" />
  <text
     id="LGn1_20"
     x="269.5"
     y="72.5"
     fill="#000000">n1</text>
  <circle
     id="LGn5_21"
     cx="275.5"
     cy="125.5"
     r="33"
     fill="none"
     stroke="#000000"
     stroke-width="1"
     stroke-linecap="square" />
  <text
     id="LGn5_22"
     x="268.5"
     y="127.5"
     fill="#000000">&lt;&gt;</text>
  <rect
     id="LGn5_23"
     x="268.5"
     y="145.5"
     width="15"
     height="17"
     fill="#ffffff" />
  <text
     id="LGn5_24"
     x="269.5"
     y="162.5"
     fill="#000000">n5</text>
  <circle
     id="LGn0_25"
     cx="35.5"
     cy="35.5"
     r="33"
     fill="none"
     stroke="#000000"
     stroke-width="1"
     stroke-linecap="square" />
  <circle
     id="LGn0_26"
     cx="35.5"
     cy="35.5"
     r="35"
     fill="none"
     stroke="#000000"
     stroke-width="1"
     stroke-linecap="square" />
  <text
     id="LGn0_27"
     x="28.5"
     y="37.5"
     fill="#000000">&lt;&gt;</text>
  <rect
     id="LGn0_28"
     x="28.5"
     y="55.5"
     width="15"
     height="17"
     fill="#ffffff" />
  <text
     id="LGn0_29"
     x="29.5"
     y="72.5"
     fill="#000000">n0</text>
  <circle
     id="LGn7_30"
     cx="275.5"
     cy="275.5"
     r="33"
     fill="none"
     stroke="#000000"
     stroke-width="1"
     stroke-linecap="square" />
  <text
     id="LGn7_31"
     x="268.5"
     y="277.5"
     fill="#000000">&lt;&gt;</text>
  <rect
     id="LGn7_32"
     x="268.5"
     y="295.5"
     width="15"
     height="17"
     fill="#ffffff" />
  <text
     id="LGn7_33"
     x="269.5"
     y="312.5"
     fill="#000000">n7</text>
  <line
     id="LGn1_2_n5_34"
     x1="275.5"
     y1="73.5"
     x2="275.5"
     y2="87.5"
     stroke="#0000c8"
     stroke-width="1"
     stroke-linecap="square"
     style="stroke-dasharray:none;stroke-dashoffset:0" />
  <text
     id="LGn1_2_n5_35"
     x="257.5"
     y="85.5"
     fill="#0000c8">2</text>
  <path
     id="LGn1_3_n1_36"
     d="m 237.5,43.5 -11,-2 c -34,-3 -21,38 6,16 l 7,-8"
     fill="none"
     stroke="#00c800"
     stroke-width="2"
     stroke-linecap="butt"
     stroke-dasharray="2"
     style="stroke-dasharray:none;stroke-dashoffset:0" />
  <text
     id="LGn1_3_n1_37"
     x="193.5"
     y="64.5"
     fill="#00c800">3</text>
  <line
     id="LGn6_0_n7_38"
     x1="73.5"
     y1="275.5"
     x2="237.5"
     y2="275.5"
     stroke="#000000"
     stroke-width="2"
     stroke-linecap="square"
     style="stroke-dasharray:none;stroke-dashoffset:0" />
  <text
     id="LGn6_0_n7_39"
     x="152.5"
     y="295.5"
     fill="#000000">0</text>
  <line
     id="LGn2_2_n6_40"
     x1="35.5"
     y1="325.5"
     x2="35.5"
     y2="313.5"
     stroke="#0000c8"
     stroke-width="1"
     stroke-linecap="square"
     style="stroke-dasharray:none;stroke-dashoffset:0" />
  <text
     id="LGn2_2_n6_41"
     x="47.5"
     y="324.5"
     fill="#0000c8">2</text>
  <path
     id="LGn5_3_n5_42"
     d="m 238.5,112.5 -7,-8 c -28,-20 -39,22 -4,17 l 11,-3"
     fill="none"
     stroke="#00c800"
     stroke-width="2"
     stroke-linecap="butt"
     stroke-dasharray="2"
     style="stroke-dasharray:none;stroke-dashoffset:0" />
  <text
     id="LGn5_3_n5_43"
     x="192.5"
     y="110.5"
     fill="#00c800">3</text>
  <path
     id="LGn0_3_n0_44"
     d="m 72.5,50.5 7,8 c 27,22 40,-19 6,-16 l -11,2"
     fill="none"
     stroke="#00c800"
     stroke-width="2"
     stroke-linecap="butt"
     stroke-dasharray="2"
     style="stroke-dasharray:none;stroke-dashoffset:0" />
  <text
     id="LGn0_3_n0_45"
     x="112.5"
     y="65.5"
     fill="#00c800">3</text>
  <path
     id="LGn3_3_n3_46"
     d="m 239.5,350.5 -7,-8 c -27,-23 -40,18 -6,16 l 11,-2"
     fill="none"
     stroke="#00c800"
     stroke-width="2"
     stroke-linecap="butt"
     stroke-dasharray="2"
     style="stroke-dasharray:none;stroke-dashoffset:0" />
  <text
     id="LGn3_3_n3_47"
     x="193.5"
     y="344.5"
     fill="#00c800">3</text>
  <line
     id="LGn3_2_n7_48"
     x1="275.5"
     y1="327.5"
     x2="275.5"
     y2="313.5"
     stroke="#0000c8"
     stroke-width="1"
     stroke-linecap="square"
     style="stroke-dasharray:none;stroke-dashoffset:0" />
  <text
     id="LGn3_2_n7_49"
     x="287.5"
     y="325.5"
     fill="#0000c8">2</text>
  <line
     id="LGn2_0_n3_50"
     x1="75.5"
     y1="365.5"
     x2="237.5"
     y2="365.5"
     stroke="#000000"
     stroke-width="2"
     stroke-linecap="square"
     style="stroke-dasharray:none;stroke-dashoffset:0" />
  <text
     id="LGn2_0_n3_51"
     x="153.5"
     y="385.5"
     fill="#000000">0</text>
  <path
     id="LGn4_3_n4_52"
     d="m 72.5,119.5 11,3 c 34,6 25,-36 -4,-16 l -7,7"
     fill="none"
     stroke="#00c800"
     stroke-width="2"
     stroke-linecap="butt"
     stroke-dasharray="2"
     style="stroke-dasharray:none;stroke-dashoffset:0" />
  <text
     id="LGn4_3_n4_53"
     x="112.5"
     y="112.5"
     fill="#00c800">3</text>
  <path
     id="LGn2_3_n2_54"
     d="m 73.5,358.5 11,3 c 34,5 24,-37 -4,-17 l -7,8"
     fill="none"
     stroke="#00c800"
     stroke-width="2"
     stroke-linecap="butt"
     stroke-dasharray="2"
     style="stroke-dasharray:none;stroke-dashoffset:0" />
  <text
     id="LGn2_3_n2_55"
     x="113.5"
     y="350.5"
     fill="#00c800">3</text>
  <path
     id="LGn6_3_n6_56"
     d="m 70.5,289.5 7,8 c 27,23 40,-18 6,-16 l -11,2"
     fill="none"
     stroke="#00c800"
     stroke-width="2"
     stroke-linecap="butt"
     stroke-dasharray="2"
     style="stroke-dasharray:none;stroke-dashoffset:0" />
  <text
     id="LGn6_3_n6_57"
     x="110.5"
     y="305.5"
     fill="#00c800">3</text>
  <line
     id="LGn4_0_n5_58"
     x1="73.5"
     y1="125.5"
     x2="237.5"
     y2="125.5"
     stroke="#000000"
     stroke-width="2"
     stroke-linecap="square"
     style="stroke-dasharray:none;stroke-dashoffset:0" />
  <text
     id="LGn4_0_n5_59"
     x="152.5"
     y="145.5"
     fill="#000000">0</text>
  <line
     id="LGn4_2_n0_60"
     x1="35.5"
     y1="87.5"
     x2="35.5"
     y2="75.5"
     stroke="#0000c8"
     stroke-width="1"
     stroke-linecap="square"
     style="stroke-dasharray:none;stroke-dashoffset:0" />
  <text
     id="LGn4_2_n0_61"
     x="47.5"
     y="86.5"
     fill="#0000c8">2</text>
  <path
     id="LGn7_3_n7_62"
     d="m 238.5,284.5 -11,-2 c -34,-1 -20,39 6,16 l 7,-8"
     fill="none"
     stroke="#00c800"
     stroke-width="2"
     stroke-linecap="butt"
     stroke-dasharray="2"
     style="stroke-dasharray:none;stroke-dashoffset:0" />
  <text
     id="LGn7_3_n7_63"
     x="194.5"
     y="307.5"
     fill="#00c800">3</text>
  <line
     id="LGn0_0_n1_64"
     x1="75.5"
     y1="35.5"
     x2="237.5"
     y2="35.5"
     stroke="#000000"
     stroke-width="2"
     stroke-linecap="square"
     style="stroke-dasharray:none;stroke-dashoffset:0" />
  <text
     id="LGn0_0_n1_65"
     x="153.5"
     y="55.5"
     fill="#000000">0</text>
  <polygon
     id="0"
     points="349,36 349,30 368,42 349,55 349,48 318,48 318,36 "
     stroke="#000000"
     stroke-width="1"
     stroke-linecap="square"
     fill="#000000"
     transform="translate(57.795061,158.78961)" />
  <circle
     id="RGn1_0"
     cx="766.5"
     cy="34.5"
     r="33"
     fill="none"
     stroke="#000000"
     stroke-width="1"
     stroke-linecap="square" />
  <text
     id="RGn1_1"
     x="759.5"
     y="36.5"
     fill="#000000">&lt;&gt;</text>
  <rect
     id="RGn1_2"
     x="759.5"
     y="54.5"
     width="15"
     height="17"
     fill="#ffffff" />
  <text
     id="RGn1_3"
     x="760.5"
     y="71.5"
     fill="#000000">n1</text>
  <circle
     id="RGn4_4"
     cx="526.5"
     cy="124.5"
     r="33"
     fill="none"
     stroke="#000000"
     stroke-width="1"
     stroke-linecap="square" />
  <text
     id="RGn4_5"
     x="519.5"
     y="126.5"
     fill="#000000">&lt;&gt;</text>
  <rect
     id="RGn4_6"
     x="519.5"
     y="144.5"
     width="15"
     height="17"
     fill="#ffffff" />
  <text
     id="RGn4_7"
     x="520.5"
     y="161.5"
     fill="#000000">n4</text>
  <circle
     id="RGn6_8"
     cx="526.5"
     cy="274.5"
     r="33"
     fill="none"
     stroke="#000000"
     stroke-width="1"
     stroke-linecap="square" />
  <text
     id="RGn6_9"
     x="519.5"
     y="276.5"
     fill="#000000">&lt;&gt;</text>
  <rect
     id="RGn6_10"
     x="519.5"
     y="294.5"
     width="15"
     height="17"
     fill="#ffffff" />
  <text
     id="RGn6_11"
     x="520.5"
     y="311.5"
     fill="#000000">n6</text>
  <circle
     id="RGn0_12"
     cx="526.5"
     cy="34.5"
     r="33"
     fill="none"
     stroke="#000000"
     stroke-width="1"
     stroke-linecap="square" />
  <text
     id="RGn0_13"
     x="519.5"
     y="36.5"
     fill="#000000">&lt;&gt;</text>
  <rect
     id="RGn0_14"
     x="519.5"
     y="54.5"
     width="15"
     height="17"
     fill="#ffffff" />
  <text
     id="RGn0_15"
     x="520.5"
     y="71.5"
     fill="#000000">n0</text>
  <circle
     id="RGn5_16"
     cx="766.5"
     cy="124.5"
     r="33"
     fill="none"
     stroke="#000000"
     stroke-width="1"
     stroke-linecap="square" />
  <text
     id="RGn5_17"
     x="759.5"
     y="126.5"
     fill="#000000">&lt;&gt;</text>
  <rect
     id="RGn5_18"
     x="759.5"
     y="144.5"
     width="15"
     height="17"
     fill="#ffffff" />
  <text
     id="RGn5_19"
     x="760.5"
     y="161.5"
     fill="#000000">n5</text>
  <circle
     id="RGn2_20"
     cx="526.5"
     cy="364.5"
     r="33"
     fill="none"
     stroke="#000000"
     stroke-width="1"
     stroke-linecap="square" />
  <text
     id="RGn2_21"
     x="519.5"
     y="366.5"
     fill="#000000">&lt;&gt;</text>
  <rect
     id="RGn2_22"
     x="519.5"
     y="384.5"
     width="15"
     height="17"
     fill="#ffffff" />
  <text
     id="RGn2_23"
     x="520.5"
     y="401.5"
     fill="#000000">n2</text>
  <circle
     id="RGn7_24"
     cx="766.5"
     cy="274.5"
     r="33"
     fill="none"
     stroke="#000000"
     stroke-width="1"
     stroke-linecap="square" />
  <text
     id="RGn7_25"
     x="759.5"
     y="276.5"
     fill="#000000">&lt;&gt;</text>
  <rect
     id="RGn7_26"
     x="759.5"
     y="294.5"
     width="15"
     height="17"
     fill="#ffffff" />
  <text
     id="RGn7_27"
     x="760.5"
     y="311.5"
     fill="#000000">n7</text>
  <circle
     id="RGn3_28"
     cx="766.5"
     cy="364.5"
     r="33"
     fill="none"
     stroke="#000000"
     stroke-width="1"
     stroke-linecap="square" />
  <text
     id="RGn3_29"
     x="759.5"
     y="366.5"
     fill="#000000">&lt;&gt;</text>
  <rect
     id="RGn3_30"
     x="759.5"
     y="384.5"
     width="15"
     height="17"
     fill="#ffffff" />
  <text
     id="RGn3_31"
     x="760.5"
     y="401.5"
     fill="#000000">n3</text>
  <line
     id="RGn2_0_n3_32"
     x1="564.5"
     y1="364.5"
     x2="728.5"
     y2="364.5"
     stroke="#000000"
     stroke-width="2"
     stroke-linecap="square"
     style="stroke-dasharray:none;stroke-dashoffset:0" />
  <text
     id="RGn2_0_n3_33"
     x="643.5"
     y="384.5"
     fill="#000000">0</text>
  <path
     id="RGn7_2_n7_35"
     d="m 731.5,288.5 -12,-1 c -30,0 -14,36 6,12 l 6,-9"
     fill="none"
     stroke="#0000c8"
     stroke-width="1"
     stroke-linecap="square"
     style="stroke-dasharray:none;stroke-dashoffset:0" />
  <text
     id="RGn7_2_n7_36"
     x="688.5"
     y="312.5"
     fill="#0000c8">2</text>
  <path
     id="RGn6_3_n6_37"
     d="m 563.5,268.5 11,3 c 34,6 24,-36 -4,-17 l -7,8"
     fill="none"
     stroke="#00c800"
     stroke-width="2"
     stroke-linecap="butt"
     stroke-dasharray="2"
     style="stroke-dasharray:none;stroke-dashoffset:0" />
  <text
     id="RGn6_3_n6_38"
     x="603.5"
     y="260.5"
     fill="#00c800">3</text>
  <path
     id="RGn5_3_n5_39"
     d="m 729.5,134.5 -11,-1 c -35,-1 -19,39 6,16 l 7,-9"
     fill="none"
     stroke="#00c800"
     stroke-width="2"
     stroke-linecap="butt"
     stroke-dasharray="2"
     style="stroke-dasharray:none;stroke-dashoffset:0" />
  <text
     id="RGn5_3_n5_40"
     x="686.5"
     y="158.5"
     fill="#00c800">3</text>
  <path
     id="RGn6_2_n6_42"
     d="m 561.5,288.5 6,9 c 22,22 36,-14 5,-12 l -11,1"
     fill="none"
     stroke="#0000c8"
     stroke-width="1"
     stroke-linecap="square"
     style="stroke-dasharray:none;stroke-dashoffset:0" />
  <text
     id="RGn6_2_n6_43"
     x="599.5"
     y="308.5"
     fill="#0000c8">2</text>
  <path
     id="RGn1_3_n1_44"
     d="m 730.5,21.5 -8,-8 c -27,-21 -39,21 -4,17 l 10,-3"
     fill="none"
     stroke="#00c800"
     stroke-width="2"
     stroke-linecap="butt"
     stroke-dasharray="2"
     style="stroke-dasharray:none;stroke-dashoffset:0" />
  <text
     id="RGn1_3_n1_45"
     x="683.5"
     y="18.5"
     fill="#00c800">3</text>
  <path
     id="RGn4_3_n4_46"
     d="m 561.5,138.5 7,8 c 26,23 40,-18 6,-16 l -11,2"
     fill="none"
     stroke="#00c800"
     stroke-width="2"
     stroke-linecap="butt"
     stroke-dasharray="2"
     style="stroke-dasharray:none;stroke-dashoffset:0" />
  <text
     id="RGn4_3_n4_47"
     x="601.5"
     y="154.5"
     fill="#00c800">3</text>
  <path
     id="RGn0_2_n0_49"
     d="m 561.5,48.5 6,9 c 22,22 36,-15 5,-13 l -11,2"
     fill="none"
     stroke="#0000c8"
     stroke-width="1"
     stroke-linecap="square"
     style="stroke-dasharray:none;stroke-dashoffset:0" />
  <text
     id="RGn0_2_n0_50"
     x="600.5"
     y="67.5"
     fill="#0000c8">2</text>
  <path
     id="RGn4_2_n4_52"
     d="m 561.5,110.5 11,1 c 31,2 16,-34 -5,-12 l -6,9"
     fill="none"
     stroke="#0000c8"
     stroke-width="1"
     stroke-linecap="square"
     style="stroke-dasharray:none;stroke-dashoffset:0" />
  <text
     id="RGn4_2_n4_53"
     x="599.5"
     y="98.5"
     fill="#0000c8">2</text>
  <path
     id="RGn3_2_n3_55"
     d="m 731.5,346.5 -5,-9 c -20,-24 -37,11 -7,11 h 12"
     fill="none"
     stroke="#0000c8"
     stroke-width="1"
     stroke-linecap="square"
     style="stroke-dasharray:none;stroke-dashoffset:0" />
  <text
     id="RGn3_2_n3_56"
     x="688.5"
     y="333.5"
     fill="#0000c8">2</text>
  <path
     id="RGn1_2_n1_58"
     d="m 730.5,46.5 -11,-2 c -31,-2 -17,34 4,12 l 7,-8"
     fill="none"
     stroke="#0000c8"
     stroke-width="1"
     stroke-linecap="square"
     style="stroke-dasharray:none;stroke-dashoffset:0" />
  <text
     id="RGn1_2_n1_59"
     x="685.5"
     y="67.5"
     fill="#0000c8">2</text>
  <line
     id="RGn6_0_n7_60"
     x1="564.5"
     y1="274.5"
     x2="728.5"
     y2="274.5"
     stroke="#000000"
     stroke-width="2"
     stroke-linecap="square"
     style="stroke-dasharray:none;stroke-dashoffset:0" />
  <text
     id="RGn6_0_n7_61"
     x="643.5"
     y="294.5"
     fill="#000000">0</text>
  <path
     id="RGn0_3_n0_62"
     d="m 562.5,28.5 11,3 c 34,5 24,-37 -4,-17 l -7,8"
     fill="none"
     stroke="#00c800"
     stroke-width="2"
     stroke-linecap="butt"
     stroke-dasharray="2"
     style="stroke-dasharray:none;stroke-dashoffset:0" />
  <text
     id="RGn0_3_n0_63"
     x="602.5"
     y="20.5"
     fill="#00c800">3</text>
  <path
     id="RGn5_2_n5_65"
     d="m 731.5,107.5 -6,-9 c -20,-23 -36,13 -5,12 l 11,-1"
     fill="none"
     stroke="#0000c8"
     stroke-width="1"
     stroke-linecap="square"
     style="stroke-dasharray:none;stroke-dashoffset:0" />
  <text
     id="RGn5_2_n5_66"
     x="687.5"
     y="95.5"
     fill="#0000c8">2</text>
  <path
     id="RGn2_3_n2_67"
     d="m 561.5,378.5 7,8 c 26,23 40,-18 6,-16 l -11,2"
     fill="none"
     stroke="#00c800"
     stroke-width="2"
     stroke-linecap="butt"
     stroke-dasharray="2"
     style="stroke-dasharray:none;stroke-dashoffset:0" />
  <text
     id="RGn2_3_n2_68"
     x="601.5"
     y="394.5"
     fill="#00c800">3</text>
  <path
     id="RGn3_3_n3_69"
     d="m 728.5,372.5 -11,-2 c -34,-3 -21,38 6,16 l 7,-8"
     fill="none"
     stroke="#00c800"
     stroke-width="2"
     stroke-linecap="butt"
     stroke-dasharray="2"
     style="stroke-dasharray:none;stroke-dashoffset:0" />
  <text
     id="RGn3_3_n3_70"
     x="684.5"
     y="393.5"
     fill="#00c800">3</text>
  <path
     id="RGn7_3_n7_71"
     d="m 728.5,263.5 -7,-7 c -29,-20 -38,22 -4,16 l 11,-3"
     fill="none"
     stroke="#00c800"
     stroke-width="2"
     stroke-linecap="butt"
     stroke-dasharray="2"
     style="stroke-dasharray:none;stroke-dashoffset:0" />
  <text
     id="RGn7_3_n7_72"
     x="681.5"
     y="262.5"
     fill="#00c800">3</text>
  <path
     id="RGn2_2_n2_74"
     d="m 560.5,348.5 12,1 c 30,-1 13,-36 -6,-12 l -6,9"
     fill="none"
     stroke="#0000c8"
     stroke-width="1"
     stroke-linecap="square"
     style="stroke-dasharray:none;stroke-dashoffset:0" />
  <text
     id="RGn2_2_n2_75"
     x="597.5"
     y="333.5"
     fill="#0000c8">2</text>
  <line
     id="RGn0_0_n1_76"
     x1="564.5"
     y1="34.5"
     x2="728.5"
     y2="34.5"
     stroke="#000000"
     stroke-width="2"
     stroke-linecap="square"
     style="stroke-dasharray:none;stroke-dashoffset:0" />
  <text
     id="RGn0_0_n1_77"
     x="643.5"
     y="54.5"
     fill="#000000">0</text>
  <line
     id="RGn4_0_n5_78"
     x1="564.5"
     y1="124.5"
     x2="728.5"
     y2="124.5"
     stroke="#000000"
     stroke-width="2"
     stroke-linecap="square"
     style="stroke-dasharray:none;stroke-dashoffset:0" />
  <text
     id="RGn4_0_n5_79"
     x="643.5"
     y="144.5"
     fill="#000000">0</text>
</svg>
