<?xml version="1.0" encoding="UTF-8" standalone="no"?>
<svg
   version="1.1"
   font="Noto Sans Regular"
   font-size="12px"
   width="950"
   height="460.62"
   id="svg3"
   sodipodi:docname="regle-expl-rotation-arete.svg"
   inkscape:version="1.4 (e7c3feb100, 2024-10-09)"
   xmlns:inkscape="http://www.inkscape.org/namespaces/inkscape"
   xmlns:sodipodi="http://sodipodi.sourceforge.net/DTD/sodipodi-0.dtd"
   xmlns="http://www.w3.org/2000/svg"
   xmlns:svg="http://www.w3.org/2000/svg">
  <defs
     id="defs3" />
  <sodipodi:namedview
     id="namedview3"
     pagecolor="#ffffff"
     bordercolor="#000000"
     borderopacity="0.25"
     inkscape:showpageshadow="2"
     inkscape:pageopacity="0.0"
     inkscape:pagecheckerboard="0"
     inkscape:deskcolor="#d1d1d1"
     showgrid="false"
     inkscape:zoom="0.91404612"
     inkscape:cx="477.54702"
     inkscape:cy="253.81651"
     inkscape:window-width="1892"
     inkscape:window-height="1035"
     inkscape:window-x="1929"
     inkscape:window-y="26"
     inkscape:window-maximized="1"
     inkscape:current-layer="svg3" />
  <circle
     id="LGn4_0"
     cx="303.5"
     cy="408.5"
     r="33"
     fill="none"
     stroke="#000000"
     stroke-width="1"
     stroke-linecap="square" />
  <text
     id="LGn4_1"
     x="296.5"
     y="410.5"
     fill="#000000" />
  <rect
     id="LGn4_2"
     x="296.5"
     y="428.5"
     width="15"
     height="17"
     fill="#ffffff" />
  <text
     id="LGn4_3"
     x="297.5"
     y="445.5"
     fill="#000000">n4</text>
  <circle
     id="LGn6_4"
     cx="33.5"
     cy="288.5"
     r="33"
     fill="none"
     stroke="#000000"
     stroke-width="1"
     stroke-linecap="square" />
  <text
     id="LGn6_5"
     x="26.5"
     y="290.5"
     fill="#000000" />
  <rect
     id="LGn6_6"
     x="26.5"
     y="308.5"
     width="15"
     height="17"
     fill="#ffffff" />
  <text
     id="LGn6_7"
     x="27.5"
     y="325.5"
     fill="#000000">n6</text>
  <circle
     id="LGn3_8"
     cx="423.5"
     cy="288.5"
     r="33"
     fill="none"
     stroke="#000000"
     stroke-width="1"
     stroke-linecap="square" />
  <text
     id="LGn3_9"
     x="416.5"
     y="290.5"
     fill="#000000" />
  <rect
     id="LGn3_10"
     x="416.5"
     y="308.5"
     width="15"
     height="17"
     fill="#ffffff" />
  <text
     id="LGn3_11"
     x="417.5"
     y="325.5"
     fill="#000000">n3</text>
  <circle
     id="LGn10_12"
     cx="183.5"
     cy="318.5"
     r="33"
     fill="none"
     stroke="#000000"
     stroke-width="1"
     stroke-linecap="square" />
  <text
     id="LGn10_13"
     x="176.5"
     y="320.5"
     fill="#000000" />
  <rect
     id="LGn10_14"
     x="172.5"
     y="338.5"
     width="22"
     height="17"
     fill="#ffffff" />
  <text
     id="LGn10_15"
     x="173.5"
     y="355.5"
     fill="#000000">n10</text>
  <circle
     id="LGn0_16"
     cx="153.5"
     cy="48.5"
     r="33"
     fill="none"
     stroke="#000000"
     stroke-width="1"
     stroke-linecap="square" />
  <text
     id="LGn0_17"
     x="146.5"
     y="50.5"
     fill="#000000" />
  <rect
     id="LGn0_18"
     x="146.5"
     y="68.5"
     width="15"
     height="17"
     fill="#ffffff" />
  <text
     id="LGn0_19"
     x="147.5"
     y="85.5"
     fill="#000000">n0</text>
  <circle
     id="LGn8_20"
     cx="183.5"
     cy="138.5"
     r="33"
     fill="none"
     stroke="#000000"
     stroke-width="1"
     stroke-linecap="square" />
  <circle
     id="LGn8_21"
     cx="183.5"
     cy="138.5"
     r="35"
     fill="none"
     stroke="#000000"
     stroke-width="1"
     stroke-linecap="square" />
  <text
     id="LGn8_22"
     x="176.5"
     y="140.5"
     fill="#000000" />
  <rect
     id="LGn8_23"
     x="176.5"
     y="158.5"
     width="15"
     height="17"
     fill="#ffffff" />
  <text
     id="LGn8_24"
     x="177.5"
     y="175.5"
     fill="#000000">n8</text>
  <circle
     id="LGn11_25"
     cx="273.5"
     cy="318.5"
     r="33"
     fill="none"
     stroke="#000000"
     stroke-width="1"
     stroke-linecap="square" />
  <text
     id="LGn11_26"
     x="266.5"
     y="320.5"
     fill="#000000" />
  <rect
     id="LGn11_27"
     x="262.5"
     y="338.5"
     width="22"
     height="17"
     fill="#ffffff" />
  <text
     id="LGn11_28"
     x="263.5"
     y="355.5"
     fill="#000000">n11</text>
  <circle
     id="LGn1_29"
     cx="303.5"
     cy="48.5"
     r="33"
     fill="none"
     stroke="#000000"
     stroke-width="1"
     stroke-linecap="square" />
  <text
     id="LGn1_30"
     x="296.5"
     y="50.5"
     fill="#000000" />
  <rect
     id="LGn1_31"
     x="296.5"
     y="68.5"
     width="15"
     height="17"
     fill="#ffffff" />
  <text
     id="LGn1_32"
     x="297.5"
     y="85.5"
     fill="#000000">n1</text>
  <circle
     id="LGn7_33"
     cx="33.5"
     cy="168.5"
     r="33"
     fill="none"
     stroke="#000000"
     stroke-width="1"
     stroke-linecap="square" />
  <text
     id="LGn7_34"
     x="26.5"
     y="170.5"
     fill="#000000" />
  <rect
     id="LGn7_35"
     x="26.5"
     y="188.5"
     width="15"
     height="17"
     fill="#ffffff" />
  <text
     id="LGn7_36"
     x="27.5"
     y="205.5"
     fill="#000000">n7</text>
  <circle
     id="LGn5_37"
     cx="153.5"
     cy="408.5"
     r="33"
     fill="none"
     stroke="#000000"
     stroke-width="1"
     stroke-linecap="square" />
  <text
     id="LGn5_38"
     x="146.5"
     y="410.5"
     fill="#000000" />
  <rect
     id="LGn5_39"
     x="146.5"
     y="428.5"
     width="15"
     height="17"
     fill="#ffffff" />
  <text
     id="LGn5_40"
     x="147.5"
     y="445.5"
     fill="#000000">n5</text>
  <circle
     id="LGn2_41"
     cx="423.5"
     cy="168.5"
     r="33"
     fill="none"
     stroke="#000000"
     stroke-width="1"
     stroke-linecap="square" />
  <text
     id="LGn2_42"
     x="416.5"
     y="170.5"
     fill="#000000" />
  <rect
     id="LGn2_43"
     x="416.5"
     y="188.5"
     width="15"
     height="17"
     fill="#ffffff" />
  <text
     id="LGn2_44"
     x="417.5"
     y="205.5"
     fill="#000000">n2</text>
  <circle
     id="LGn9_45"
     cx="273.5"
     cy="138.5"
     r="33"
     fill="none"
     stroke="#000000"
     stroke-width="1"
     stroke-linecap="square" />
  <text
     id="LGn9_46"
     x="266.5"
     y="140.5"
     fill="#000000" />
  <rect
     id="LGn9_47"
     x="266.5"
     y="158.5"
     width="15"
     height="17"
     fill="#ffffff" />
  <text
     id="LGn9_48"
     x="267.5"
     y="175.5"
     fill="#000000">n9</text>
  <line
     id="LGn3_0_n4_49"
     x1="396.5"
     y1="314.5"
     x2="329.5"
     y2="381.5"
     stroke="#000000"
     stroke-width="2"
     stroke-linecap="square" />
  <text
     id="LGn3_0_n4_50"
     x="359.5"
     y="352.5"
     fill="#000000">0</text>
  <line
     id="LGn7_0_n0_51"
     x1="59.5"
     y1="141.5"
     x2="126.5"
     y2="74.5"
     stroke="#000000"
     stroke-width="2"
     stroke-linecap="square" />
  <text
     id="LGn7_0_n0_52"
     x="89.5"
     y="112.5"
     fill="#000000">0</text>
  <line
     id="LGn4_1_n11_53"
     x1="290.5"
     y1="371.5"
     x2="285.5"
     y2="354.5"
     stroke="#c80000"
     stroke-width="1"
     stroke-linecap="butt"
     stroke-dasharray="5"
     style="stroke-dasharray:none" />
  <text
     id="LGn4_1_n11_54"
     x="299.5"
     y="367.5"
     fill="#c80000">1</text>
  <path
     id="LGn9_3_n9_55"
     d="m 290.5,171.5 1,11 c 6,34 43,10 14,-10 l -9,-5"
     fill="none"
     stroke="#00c800"
     stroke-width="2"
     stroke-linecap="butt"
     stroke-dasharray="2"
     style="stroke-dasharray:none" />
  <text
     id="LGn9_3_n9_56"
     x="314.5"
     y="211.5"
     fill="#00c800">3</text>
  <line
     id="LGn6_0_n5_57"
     x1="59.5"
     y1="314.5"
     x2="126.5"
     y2="381.5"
     stroke="#000000"
     stroke-width="2"
     stroke-linecap="square" />
  <text
     id="LGn6_0_n5_58"
     x="89.5"
     y="352.5"
     fill="#000000">0</text>
  <line
     id="LGn9_0_n11_59"
     x1="273.5"
     y1="176.5"
     x2="273.5"
     y2="280.5"
     stroke="#000000"
     stroke-width="2"
     stroke-linecap="square" />
  <text
     id="LGn9_0_n11_60"
     x="255.5"
     y="233.5"
     fill="#000000">0</text>
  <line
     id="LGn8_0_n10_61"
     x1="183.5"
     y1="178.5"
     x2="183.5"
     y2="280.5"
     stroke="#000000"
     stroke-width="2"
     stroke-linecap="square" />
  <text
     id="LGn8_0_n10_62"
     x="165.5"
     y="234.5"
     fill="#000000">0</text>
  <path
     id="LGn1_3_n1_63"
     d="m 313.5,84.5 -1,11 c -1,35 39,19 15,-6 l -8,-7"
     fill="none"
     stroke="#00c800"
     stroke-width="2"
     stroke-linecap="butt"
     stroke-dasharray="2"
     style="stroke-dasharray:none" />
  <text
     id="LGn1_3_n1_64"
     x="329.5"
     y="130.5"
     fill="#00c800">3</text>
  <path
     id="LGn3_3_n3_65"
     d="m 385.5,285.5 -10,-5 c -32,-13 -31,30 1,17 l 9,-6"
     fill="none"
     stroke="#00c800"
     stroke-width="2"
     stroke-linecap="butt"
     stroke-dasharray="2"
     style="stroke-dasharray:none" />
  <text
     id="LGn3_3_n3_66"
     x="338.5"
     y="293.5"
     fill="#00c800">3</text>
  <path
     id="LGn0_3_n0_67"
     d="m 134.5,81.5 -9,6 c -25,24 14,42 16,7 l -1,-11"
     fill="none"
     stroke="#00c800"
     stroke-width="2"
     stroke-linecap="butt"
     stroke-dasharray="2"
     style="stroke-dasharray:none" />
  <text
     id="LGn0_3_n0_68"
     x="116.5"
     y="127.5"
     fill="#00c800">3</text>
  <line
     id="LGn3_1_n2_69"
     x1="423.5"
     y1="250.5"
     x2="423.5"
     y2="206.5"
     stroke="#c80000"
     stroke-width="1"
     stroke-linecap="butt"
     stroke-dasharray="5"
     style="stroke-dasharray:none" />
  <text
     id="LGn3_1_n2_70"
     x="435.5"
     y="233.5"
     fill="#c80000">1</text>
  <line
     id="LGn5_1_n10_71"
     x1="165.5"
     y1="371.5"
     x2="170.5"
     y2="354.5"
     stroke="#c80000"
     stroke-width="1"
     stroke-linecap="butt"
     stroke-dasharray="5"
     style="stroke-dasharray:none" />
  <text
     id="LGn5_1_n10_72"
     x="179.5"
     y="367.5"
     fill="#c80000">1</text>
  <line
     id="LGn6_1_n7_73"
     x1="33.5"
     y1="250.5"
     x2="33.5"
     y2="206.5"
     stroke="#c80000"
     stroke-width="1"
     stroke-linecap="butt"
     stroke-dasharray="5"
     style="stroke-dasharray:none" />
  <text
     id="LGn6_1_n7_74"
     x="45.5"
     y="233.5"
     fill="#c80000">1</text>
  <path
     id="LGn7_3_n7_75"
     d="m 70.5,172.5 9,6 c 32,14 33,-29 1,-17 l -10,5"
     fill="none"
     stroke="#00c800"
     stroke-width="2"
     stroke-linecap="butt"
     stroke-dasharray="2"
     style="stroke-dasharray:none" />
  <text
     id="LGn7_3_n7_76"
     x="111.5"
     y="175.5"
     fill="#00c800">3</text>
  <line
     id="LGn8_2_n9_77"
     x1="223.5"
     y1="138.5"
     x2="235.5"
     y2="138.5"
     stroke="#0000c8"
     stroke-width="1"
     stroke-linecap="square" />
  <text
     id="LGn8_2_n9_78"
     x="226.5"
     y="158.5"
     fill="#0000c8">2</text>
  <path
     id="LGn11_3_n11_79"
     d="m 295.5,287.5 9,-6 c 28,-21 -10,-43 -14,-9 l -1,11"
     fill="none"
     stroke="#00c800"
     stroke-width="2"
     stroke-linecap="butt"
     stroke-dasharray="2"
     style="stroke-dasharray:none" />
  <text
     id="LGn11_3_n11_80"
     x="311.5"
     y="252.5"
     fill="#00c800">3</text>
  <path
     id="LGn4_3_n4_81"
     d="m 321.5,374.5 9,-6 c 25,-24 -15,-42 -16,-7 l 1,11"
     fill="none"
     stroke="#00c800"
     stroke-width="2"
     stroke-linecap="butt"
     stroke-dasharray="2"
     style="stroke-dasharray:none" />
  <text
     id="LGn4_3_n4_82"
     x="333.5"
     y="337.5"
     fill="#00c800">3</text>
  <path
     id="LGn8_3_n8_83"
     d="m 164.5,173.5 -9,6 c -24,24 15,42 16,7 l -1,-11"
     fill="none"
     stroke="#00c800"
     stroke-width="2"
     stroke-linecap="butt"
     stroke-dasharray="2"
     style="stroke-dasharray:none" />
  <text
     id="LGn8_3_n8_84"
     x="147.5"
     y="220.5"
     fill="#00c800">3</text>
  <path
     id="LGn10_3_n10_85"
     d="m 169.5,282.5 v -11 c -2,-35 -40,-16 -15,7 l 9,6"
     fill="none"
     stroke="#00c800"
     stroke-width="2"
     stroke-linecap="butt"
     stroke-dasharray="2"
     style="stroke-dasharray:none" />
  <text
     id="LGn10_3_n10_86"
     x="144.5"
     y="248.5"
     fill="#00c800">3</text>
  <line
     id="LGn1_0_n2_87"
     x1="329.5"
     y1="74.5"
     x2="396.5"
     y2="141.5"
     stroke="#000000"
     stroke-width="2"
     stroke-linecap="square" />
  <text
     id="LGn1_0_n2_88"
     x="359.5"
     y="112.5"
     fill="#000000">0</text>
  <line
     id="LGn9_1_n1_89"
     x1="285.5"
     y1="101.5"
     x2="290.5"
     y2="84.5"
     stroke="#c80000"
     stroke-width="1"
     stroke-linecap="butt"
     stroke-dasharray="5"
     style="stroke-dasharray:none" />
  <text
     id="LGn9_1_n1_90"
     x="299.5"
     y="97.5"
     fill="#c80000">1</text>
  <path
     id="LGn5_3_n5_91"
     d="m 143.5,371.5 2,-11 c 1,-34 -39,-20 -16,6 l 8,7"
     fill="none"
     stroke="#00c800"
     stroke-width="2"
     stroke-linecap="butt"
     stroke-dasharray="2"
     style="stroke-dasharray:none" />
  <text
     id="LGn5_3_n5_92"
     x="123.5"
     y="335.5"
     fill="#00c800">3</text>
  <line
     id="LGn10_2_n11_93"
     x1="221.5"
     y1="318.5"
     x2="235.5"
     y2="318.5"
     stroke="#0000c8"
     stroke-width="1"
     stroke-linecap="square" />
  <text
     id="LGn10_2_n11_94"
     x="225.5"
     y="338.5"
     fill="#0000c8">2</text>
  <line
     id="LGn8_1_n0_95"
     x1="170.5"
     y1="100.5"
     x2="165.5"
     y2="84.5"
     stroke="#c80000"
     stroke-width="1"
     stroke-linecap="butt"
     stroke-dasharray="5"
     style="stroke-dasharray:none" />
  <text
     id="LGn8_1_n0_96"
     x="179.5"
     y="97.5"
     fill="#c80000">1</text>
  <path
     id="LGn2_3_n2_97"
     d="m 385.5,163.5 -9,-6 c -32,-14 -33,29 -1,17 l 10,-5"
     fill="none"
     stroke="#00c800"
     stroke-width="2"
     stroke-linecap="butt"
     stroke-dasharray="2"
     style="stroke-dasharray:none" />
  <text
     id="LGn2_3_n2_98"
     x="338.5"
     y="170.5"
     fill="#00c800">3</text>
  <path
     id="LGn6_3_n6_99"
     d="m 70.5,291.5 9,6 c 32,14 33,-29 1,-17 l -10,5"
     fill="none"
     stroke="#00c800"
     stroke-width="2"
     stroke-linecap="butt"
     stroke-dasharray="2"
     style="stroke-dasharray:none" />
  <text
     id="LGn6_3_n6_100"
     x="111.5"
     y="294.5"
     fill="#00c800">3</text>
  <polygon
     id="0"
     points="466,159 466,147 497,147 497,141 516,153 497,166 497,159 "
     stroke="#000000"
     stroke-width="1"
     stroke-linecap="square"
     fill="#000000"
     transform="translate(-2.2049393,76.789612)" />
  <circle
     id="RGn13_0"
     cx="645.5"
     cy="183.5"
     r="40"
     fill="none"
     stroke="#000000"
     stroke-width="1"
     stroke-linecap="square" />
  <text
     id="RGn13_1"
     x="638.5"
     y="168.5"
     fill="#000000" />
  <text
     id="RGn13_2"
     x="635.5"
     y="185.5"
     fill="#000000" />
  <text
     id="RGn13_3"
     x="627.5"
     y="202.5"
     fill="#c0c0c0" />
  <rect
     id="RGn13_4"
     x="634.5"
     y="210.5"
     width="22"
     height="17"
     fill="#ffffff" />
  <text
     id="RGn13_5"
     x="635.5"
     y="227.5"
     fill="#000000">n13</text>
  <circle
     id="RGn12_6"
     cx="645.5"
     cy="273.5"
     r="40"
     fill="none"
     stroke="#000000"
     stroke-width="1"
     stroke-linecap="square" />
  <text
     id="RGn12_7"
     x="638.5"
     y="258.5"
     fill="#000000" />
  <text
     id="RGn12_8"
     x="635.5"
     y="275.5"
     fill="#c0c0c0" />
  <text
     id="RGn12_9"
     x="627.5"
     y="292.5"
     fill="#c0c0c0" />
  <rect
     id="RGn12_10"
     x="634.5"
     y="300.5"
     width="22"
     height="17"
     fill="#ffffff" />
  <text
     id="RGn12_11"
     x="635.5"
     y="317.5"
     fill="#000000">n12</text>
  <circle
     id="RGn1_12"
     cx="795.5"
     cy="33.5"
     r="33"
     fill="none"
     stroke="#000000"
     stroke-width="1"
     stroke-linecap="square" />
  <text
     id="RGn1_13"
     x="788.5"
     y="35.5"
     fill="#000000" />
  <rect
     id="RGn1_14"
     x="788.5"
     y="53.5"
     width="15"
     height="17"
     fill="#ffffff" />
  <text
     id="RGn1_15"
     x="789.5"
     y="70.5"
     fill="#000000">n1</text>
  <circle
     id="RGn0_16"
     cx="675.5"
     cy="33.5"
     r="33"
     fill="none"
     stroke="#000000"
     stroke-width="1"
     stroke-linecap="square" />
  <text
     id="RGn0_17"
     x="668.5"
     y="35.5"
     fill="#000000" />
  <rect
     id="RGn0_18"
     x="668.5"
     y="53.5"
     width="15"
     height="17"
     fill="#ffffff" />
  <text
     id="RGn0_19"
     x="669.5"
     y="70.5"
     fill="#000000">n0</text>
  <circle
     id="RGn4_20"
     cx="795.5"
     cy="423.5"
     r="33"
     fill="none"
     stroke="#000000"
     stroke-width="1"
     stroke-linecap="square" />
  <text
     id="RGn4_21"
     x="788.5"
     y="425.5"
     fill="#000000" />
  <rect
     id="RGn4_22"
     x="788.5"
     y="443.5"
     width="15"
     height="17"
     fill="#ffffff" />
  <text
     id="RGn4_23"
     x="789.5"
     y="460.5"
     fill="#000000">n4</text>
  <circle
     id="RGn14_24"
     cx="825.5"
     cy="273.5"
     r="40"
     fill="none"
     stroke="#000000"
     stroke-width="1"
     stroke-linecap="square" />
  <text
     id="RGn14_25"
     x="818.5"
     y="258.5"
     fill="#000000" />
  <text
     id="RGn14_26"
     x="815.5"
     y="275.5"
     fill="#c0c0c0" />
  <text
     id="RGn14_27"
     x="807.5"
     y="292.5"
     fill="#c0c0c0" />
  <rect
     id="RGn14_28"
     x="814.5"
     y="300.5"
     width="22"
     height="17"
     fill="#ffffff" />
  <text
     id="RGn14_29"
     x="815.5"
     y="317.5"
     fill="#000000">n14</text>
  <circle
     id="RGn6_30"
     cx="555.5"
     cy="333.5"
     r="34"
     fill="none"
     stroke="#000000"
     stroke-width="1"
     stroke-linecap="square" />
  <text
     id="RGn6_31"
     x="548.5"
     y="327.5"
     fill="#000000" />
  <text
     id="RGn6_32"
     x="545.5"
     y="344.5"
     fill="#c0c0c0" />
  <rect
     id="RGn6_33"
     x="548.5"
     y="354.5"
     width="15"
     height="17"
     fill="#ffffff" />
  <text
     id="RGn6_34"
     x="549.5"
     y="371.5"
     fill="#000000">n6</text>
  <circle
     id="RGn7_35"
     cx="555.5"
     cy="153.5"
     r="34"
     fill="none"
     stroke="#000000"
     stroke-width="1"
     stroke-linecap="square" />
  <text
     id="RGn7_36"
     x="548.5"
     y="147.5"
     fill="#000000" />
  <text
     id="RGn7_37"
     x="545.5"
     y="164.5"
     fill="#c0c0c0" />
  <rect
     id="RGn7_38"
     x="548.5"
     y="174.5"
     width="15"
     height="17"
     fill="#ffffff" />
  <text
     id="RGn7_39"
     x="549.5"
     y="191.5"
     fill="#000000">n7</text>
  <circle
     id="RGn3_40"
     cx="915.5"
     cy="333.5"
     r="34"
     fill="none"
     stroke="#000000"
     stroke-width="1"
     stroke-linecap="square" />
  <text
     id="RGn3_41"
     x="908.5"
     y="327.5"
     fill="#000000" />
  <text
     id="RGn3_42"
     x="905.5"
     y="344.5"
     fill="#c0c0c0" />
  <rect
     id="RGn3_43"
     x="908.5"
     y="354.5"
     width="15"
     height="17"
     fill="#ffffff" />
  <text
     id="RGn3_44"
     x="909.5"
     y="371.5"
     fill="#000000">n3</text>
  <circle
     id="RGn5_45"
     cx="675.5"
     cy="423.5"
     r="33"
     fill="none"
     stroke="#000000"
     stroke-width="1"
     stroke-linecap="square" />
  <text
     id="RGn5_46"
     x="668.5"
     y="425.5"
     fill="#000000" />
  <rect
     id="RGn5_47"
     x="668.5"
     y="443.5"
     width="15"
     height="17"
     fill="#ffffff" />
  <text
     id="RGn5_48"
     x="669.5"
     y="460.5"
     fill="#000000">n5</text>
  <circle
     id="RGn2_49"
     cx="915.5"
     cy="153.5"
     r="34"
     fill="none"
     stroke="#000000"
     stroke-width="1"
     stroke-linecap="square" />
  <text
     id="RGn2_50"
     x="908.5"
     y="147.5"
     fill="#000000" />
  <text
     id="RGn2_51"
     x="905.5"
     y="164.5"
     fill="#c0c0c0" />
  <rect
     id="RGn2_52"
     x="908.5"
     y="174.5"
     width="15"
     height="17"
     fill="#ffffff" />
  <text
     id="RGn2_53"
     x="909.5"
     y="191.5"
     fill="#000000">n2</text>
  <circle
     id="RGn15_54"
     cx="825.5"
     cy="183.5"
     r="40"
     fill="none"
     stroke="#000000"
     stroke-width="1"
     stroke-linecap="square" />
  <text
     id="RGn15_55"
     x="818.5"
     y="168.5"
     fill="#000000" />
  <text
     id="RGn15_56"
     x="815.5"
     y="185.5"
     fill="#000000" />
  <text
     id="RGn15_57"
     x="807.5"
     y="202.5"
     fill="#c0c0c0" />
  <rect
     id="RGn15_58"
     x="814.5"
     y="210.5"
     width="22"
     height="17"
     fill="#ffffff" />
  <text
     id="RGn15_59"
     x="815.5"
     y="227.5"
     fill="#000000">n15</text>
  <line
     id="RGn14_1_n3_60"
     x1="862.5"
     y1="297.5"
     x2="882.5"
     y2="311.5"
     stroke="#c80000"
     stroke-width="1"
     stroke-linecap="butt"
     stroke-dasharray="5"
     style="stroke-dasharray:none" />
  <text
     id="RGn14_1_n3_61"
     x="869.5"
     y="309.5"
     fill="#c80000">1</text>
  <path
     id="RGn5_3_n5_62"
     d="m 699.5,393.5 10,-5 c 28,-19 -8,-44 -14,-10 l -2,11"
     fill="none"
     stroke="#00c800"
     stroke-width="2"
     stroke-linecap="butt"
     stroke-dasharray="2"
     style="stroke-dasharray:none" />
  <text
     id="RGn5_3_n5_63"
     x="718.5"
     y="359.5"
     fill="#00c800">3</text>
  <path
     id="RGn7_3_n7_64"
     d="m 590.5,138.5 h 11 c 35,-3 15,-41 -8,-15 l -5,9"
     fill="none"
     stroke="#00c800"
     stroke-width="2"
     stroke-linecap="butt"
     stroke-dasharray="2"
     style="stroke-dasharray:none" />
  <text
     id="RGn7_3_n7_65"
     x="626.5"
     y="120.5"
     fill="#00c800">3</text>
  <path
     id="RGn0_3_n0_66"
     d="m 695.5,64.5 3,11 c 9,33 43,5 13,-11 l -10,-4"
     fill="none"
     stroke="#00c800"
     stroke-width="2"
     stroke-linecap="butt"
     stroke-dasharray="2"
     style="stroke-dasharray:none" />
  <text
     id="RGn0_3_n0_67"
     x="723.5"
     y="102.5"
     fill="#00c800">3</text>
  <path
     id="RGn1_3_n1_68"
     d="m 769.5,61.5 -10,4 c -30,17 5,44 14,11 l 2,-11"
     fill="none"
     stroke="#00c800"
     stroke-width="2"
     stroke-linecap="butt"
     stroke-dasharray="2"
     style="stroke-dasharray:none" />
  <text
     id="RGn1_3_n1_69"
     x="742.5"
     y="103.5"
     fill="#00c800">3</text>
  <path
     id="RGn2_3_n2_70"
     d="m 880.5,133.5 -6,-9 c -23,-25 -42,14 -7,15 h 11"
     fill="none"
     stroke="#00c800"
     stroke-width="2"
     stroke-linecap="butt"
     stroke-dasharray="2"
     style="stroke-dasharray:none" />
  <text
     id="RGn2_3_n2_71"
     x="836.5"
     y="122.5"
     fill="#00c800">3</text>
  <path
     id="RGn13_3_n13_72"
     d="m 687.5,167.5 11,1 c 35,-2 17,-41 -7,-16 l -6,9"
     fill="none"
     stroke="#00c800"
     stroke-width="2"
     stroke-linecap="butt"
     stroke-dasharray="2"
     style="stroke-dasharray:none" />
  <text
     id="RGn13_3_n13_73"
     x="724.5"
     y="151.5"
     fill="#00c800">3</text>
  <path
     id="RGn12_3_n12_74"
     d="m 681.5,300.5 5,9 c 20,29 44,-9 10,-14 l -11,-1"
     fill="none"
     stroke="#00c800"
     stroke-width="2"
     stroke-linecap="butt"
     stroke-dasharray="2"
     style="stroke-dasharray:none" />
  <text
     id="RGn12_3_n12_75"
     x="718.5"
     y="326.5"
     fill="#00c800">3</text>
  <line
     id="RGn6_0_n5_76"
     x1="586.5"
     y1="356.5"
     x2="644.5"
     y2="400.5"
     stroke="#000000"
     stroke-width="2"
     stroke-linecap="square" />
  <text
     id="RGn6_0_n5_77"
     x="612.5"
     y="383.5"
     fill="#000000">0</text>
  <line
     id="RGn0_0_n7_78"
     x1="648.5"
     y1="59.5"
     x2="582.5"
     y2="125.5"
     stroke="#000000"
     stroke-width="2"
     stroke-linecap="square" />
  <text
     id="RGn0_0_n7_79"
     x="612.5"
     y="97.5"
     fill="#000000">0</text>
  <path
     id="RGn14_3_n14_80"
     d="m 784.5,294.5 -11,1 c -34,5 -10,42 10,14 l 5,-9"
     fill="none"
     stroke="#00c800"
     stroke-width="2"
     stroke-linecap="butt"
     stroke-dasharray="2"
     style="stroke-dasharray:none" />
  <text
     id="RGn14_3_n14_81"
     x="745.5"
     y="325.5"
     fill="#00c800">3</text>
  <line
     id="RGn15_1_n2_82"
     x1="867.5"
     y1="168.5"
     x2="878.5"
     y2="165.5"
     stroke="#c80000"
     stroke-width="1"
     stroke-linecap="butt"
     stroke-dasharray="5"
     style="stroke-dasharray:none" />
  <text
     id="RGn15_1_n2_83"
     x="869.5"
     y="186.5"
     fill="#c80000">1</text>
  <path
     id="RGn4_3_n4_84"
     d="m 775.5,390.5 -2,-11 c -8,-33 -43,-7 -14,11 l 10,4"
     fill="none"
     stroke="#00c800"
     stroke-width="2"
     stroke-linecap="butt"
     stroke-dasharray="2"
     style="stroke-dasharray:none" />
  <text
     id="RGn4_3_n4_85"
     x="743.5"
     y="361.5"
     fill="#00c800">3</text>
  <line
     id="RGn4_0_n3_86"
     x1="825.5"
     y1="400.5"
     x2="883.5"
     y2="356.5"
     stroke="#000000"
     stroke-width="2"
     stroke-linecap="square" />
  <text
     id="RGn4_0_n3_87"
     x="851.5"
     y="383.5"
     fill="#000000">0</text>
  <line
     id="RGn13_0_n15_88"
     x1="690.5"
     y1="183.5"
     x2="780.5"
     y2="183.5"
     stroke="#000000"
     stroke-width="2"
     stroke-linecap="square" />
  <text
     id="RGn13_0_n15_89"
     x="732.5"
     y="203.5"
     fill="#000000">0</text>
  <path
     id="RGn6_3_n6_90"
     d="m 593.5,343.5 7,7 c 29,20 38,-22 4,-16 l -11,3"
     fill="none"
     stroke="#00c800"
     stroke-width="2"
     stroke-linecap="butt"
     stroke-dasharray="2"
     style="stroke-dasharray:none" />
  <text
     id="RGn6_3_n6_91"
     x="634.5"
     y="354.5"
     fill="#00c800">3</text>
  <line
     id="RGn7_1_n13_92"
     x1="591.5"
     y1="165.5"
     x2="602.5"
     y2="168.5"
     stroke="#c80000"
     stroke-width="1"
     stroke-linecap="butt"
     stroke-dasharray="5"
     style="stroke-dasharray:none" />
  <text
     id="RGn7_1_n13_93"
     x="593.5"
     y="186.5"
     fill="#c80000">1</text>
  <line
     id="RGn12_0_n14_94"
     x1="690.5"
     y1="273.5"
     x2="780.5"
     y2="273.5"
     stroke="#000000"
     stroke-width="2"
     stroke-linecap="square" />
  <text
     id="RGn12_0_n14_95"
     x="732.5"
     y="293.5"
     fill="#000000">0</text>
  <line
     id="RGn14_2_n15_96"
     x1="825.5"
     y1="228.5"
     x2="825.5"
     y2="228.5"
     stroke="#0000c8"
     stroke-width="1"
     stroke-linecap="square" />
  <text
     id="RGn14_2_n15_97"
     x="807.5"
     y="222.5"
     fill="#0000c8">2</text>
  <line
     id="RGn12_2_n13_98"
     x1="645.5"
     y1="228.5"
     x2="645.5"
     y2="228.5"
     stroke="#0000c8"
     stroke-width="1"
     stroke-linecap="square" />
  <text
     id="RGn12_2_n13_99"
     x="627.5"
     y="222.5"
     fill="#0000c8">2</text>
  <path
     id="RGn3_3_n3_100"
     d="m 876.5,336.5 -11,-4 c -34,-7 -26,36 3,17 l 8,-7"
     fill="none"
     stroke="#00c800"
     stroke-width="2"
     stroke-linecap="butt"
     stroke-dasharray="2"
     style="stroke-dasharray:none" />
  <text
     id="RGn3_3_n3_101"
     x="829.5"
     y="352.5"
     fill="#00c800">3</text>
  <line
     id="RGn1_1_n0_102"
     x1="757.5"
     y1="33.5"
     x2="713.5"
     y2="33.5"
     stroke="#c80000"
     stroke-width="1"
     stroke-linecap="butt"
     stroke-dasharray="5"
     style="stroke-dasharray:none" />
  <text
     id="RGn1_1_n0_103"
     x="732.5"
     y="23.5"
     fill="#c80000">1</text>
  <line
     id="RGn6_1_n12_104"
     x1="587.5"
     y1="311.5"
     x2="607.5"
     y2="297.5"
     stroke="#c80000"
     stroke-width="1"
     stroke-linecap="butt"
     stroke-dasharray="5"
     style="stroke-dasharray:none" />
  <text
     id="RGn6_1_n12_105"
     x="594.5"
     y="309.5"
     fill="#c80000">1</text>
  <path
     id="RGn15_3_n15_106"
     d="m 784.5,163.5 -6,-9 c -25,-23 -42,17 -7,16 l 11,-1"
     fill="none"
     stroke="#00c800"
     stroke-width="2"
     stroke-linecap="butt"
     stroke-dasharray="2"
     style="stroke-dasharray:none" />
  <text
     id="RGn15_3_n15_107"
     x="739.5"
     y="155.5"
     fill="#00c800">3</text>
  <line
     id="RGn5_1_n4_108"
     x1="713.5"
     y1="423.5"
     x2="757.5"
     y2="423.5"
     stroke="#c80000"
     stroke-width="1"
     stroke-linecap="butt"
     stroke-dasharray="5"
     style="stroke-dasharray:none" />
  <text
     id="RGn5_1_n4_109"
     x="732.5"
     y="443.5"
     fill="#c80000">1</text>
  <line
     id="RGn1_0_n2_110"
     x1="821.5"
     y1="59.5"
     x2="887.5"
     y2="125.5"
     stroke="#000000"
     stroke-width="2"
     stroke-linecap="square" />
  <text
     id="RGn1_0_n2_111"
     x="851.5"
     y="97.5"
     fill="#000000">0</text>
</svg>
