<?xml version="1.0" encoding="UTF-8" standalone="no"?>
<svg
   version="1.1"
   font="Noto Sans Regular"
   font-size="12px"
   width="618"
   height="400.62"
   id="svg3"
   sodipodi:docname="regle-expl-suppression-arete.svg"
   inkscape:version="1.3.2 (091e20ef0f, 2023-11-25, custom)"
   xmlns:inkscape="http://www.inkscape.org/namespaces/inkscape"
   xmlns:sodipodi="http://sodipodi.sourceforge.net/DTD/sodipodi-0.dtd"
   xmlns="http://www.w3.org/2000/svg"
   xmlns:svg="http://www.w3.org/2000/svg">
  <defs
     id="defs3" />
  <sodipodi:namedview
     id="namedview3"
     pagecolor="#ffffff"
     bordercolor="#000000"
     borderopacity="0.25"
     inkscape:showpageshadow="2"
     inkscape:pageopacity="0.0"
     inkscape:pagecheckerboard="0"
     inkscape:deskcolor="#d1d1d1"
     inkscape:zoom="1.4019293"
     inkscape:cx="311.7133"
     inkscape:cy="224.33372"
     inkscape:window-width="1892"
     inkscape:window-height="1034"
     inkscape:window-x="9"
     inkscape:window-y="27"
     inkscape:window-maximized="1"
     inkscape:current-layer="svg3" />
  <g
     id="g1"
     transform="translate(0.5,15.5)">
    <circle
       id="LGn1_0"
       cx="273"
       cy="33"
       r="33"
       fill="none"
       stroke="#000000"
       stroke-width="1"
       stroke-linecap="square" />
    <text
       id="LGn1_1"
       x="266"
       y="35"
       fill="#000000"></text>
    <rect
       id="LGn1_2"
       x="266"
       y="53"
       width="15"
       height="17"
       fill="#ffffff" />
    <text
       id="LGn1_3"
       x="267"
       y="70"
       fill="#000000">n1</text>
    <circle
       id="LGn2_4"
       cx="33"
       cy="333"
       r="33"
       fill="none"
       stroke="#000000"
       stroke-width="1"
       stroke-linecap="square" />
    <text
       id="LGn2_5"
       x="26"
       y="335"
       fill="#000000"></text>
    <rect
       id="LGn2_6"
       x="26"
       y="353"
       width="15"
       height="17"
       fill="#ffffff" />
    <text
       id="LGn2_7"
       x="27"
       y="370"
       fill="#000000">n2</text>
    <circle
       id="LGn3_8"
       cx="273"
       cy="333"
       r="33"
       fill="none"
       stroke="#000000"
       stroke-width="1"
       stroke-linecap="square" />
    <text
       id="LGn3_9"
       x="266"
       y="335"
       fill="#000000"></text>
    <rect
       id="LGn3_10"
       x="266"
       y="353"
       width="15"
       height="17"
       fill="#ffffff" />
    <text
       id="LGn3_11"
       x="267"
       y="370"
       fill="#000000">n3</text>
    <circle
       id="LGn7_12"
       cx="213"
       cy="243"
       r="33"
       fill="none"
       stroke="#000000"
       stroke-width="1"
       stroke-linecap="square" />
    <text
       id="LGn7_13"
       x="206"
       y="245"
       fill="#000000"></text>
    <rect
       id="LGn7_14"
       x="206"
       y="263"
       width="15"
       height="17"
       fill="#ffffff" />
    <text
       id="LGn7_15"
       x="207"
       y="280"
       fill="#000000">n7</text>
    <circle
       id="LGn5_16"
       cx="213"
       cy="123"
       r="33"
       fill="none"
       stroke="#000000"
       stroke-width="1"
       stroke-linecap="square" />
    <text
       id="LGn5_17"
       x="206"
       y="125"
       fill="#000000"></text>
    <rect
       id="LGn5_18"
       x="206"
       y="143"
       width="15"
       height="17"
       fill="#ffffff" />
    <text
       id="LGn5_19"
       x="207"
       y="160"
       fill="#000000">n5</text>
    <circle
       id="LGn6_20"
       cx="93"
       cy="243"
       r="33"
       fill="none"
       stroke="#000000"
       stroke-width="1"
       stroke-linecap="square" />
    <text
       id="LGn6_21"
       x="86"
       y="245"
       fill="#000000"></text>
    <rect
       id="LGn6_22"
       x="86"
       y="263"
       width="15"
       height="17"
       fill="#ffffff" />
    <text
       id="LGn6_23"
       x="87"
       y="280"
       fill="#000000">n6</text>
    <circle
       id="LGn0_24"
       cx="33"
       cy="33"
       r="33"
       fill="none"
       stroke="#000000"
       stroke-width="1"
       stroke-linecap="square" />
    <text
       id="LGn0_25"
       x="26"
       y="35"
       fill="#000000"></text>
    <rect
       id="LGn0_26"
       x="26"
       y="53"
       width="15"
       height="17"
       fill="#ffffff" />
    <text
       id="LGn0_27"
       x="27"
       y="70"
       fill="#000000">n0</text>
    <circle
       id="LGn4_28"
       cx="93"
       cy="123"
       r="33"
       fill="none"
       stroke="#000000"
       stroke-width="1"
       stroke-linecap="square" />
    <circle
       id="LGn4_29"
       cx="93"
       cy="123"
       r="35"
       fill="none"
       stroke="#000000"
       stroke-width="1"
       stroke-linecap="square" />
    <text
       id="LGn4_30"
       x="86"
       y="125"
       fill="#000000"></text>
    <rect
       id="LGn4_31"
       x="86"
       y="143"
       width="15"
       height="17"
       fill="#ffffff" />
    <text
       id="LGn4_32"
       x="87"
       y="160"
       fill="#000000">n4</text>
    <line
       id="LGn4_0_n6_33"
       x1="93"
       y1="163"
       x2="93"
       y2="205"
       stroke="#000000"
       stroke-width="2"
       stroke-linecap="square" />
    <text
       id="LGn4_0_n6_34"
       x="75"
       y="189"
       fill="#000000">0</text>
    <path
       id="LGn6_3_n6_35"
       d="m 112,275 2,11 c 8,33 43,7 14,-11 l -10,-4"
       fill="none"
       stroke="#00c800"
       stroke-width="2"
       stroke-linecap="butt"
       stroke-dasharray="2" />
    <text
       id="LGn6_3_n6_36"
       x="138"
       y="314"
       fill="#00c800">3</text>
    <path
       id="LGn1_3_n1_37"
       d="m 235,28 -9,-6 C 195,8 192,50 225,39 l 10,-5"
       fill="none"
       stroke="#00c800"
       stroke-width="2"
       stroke-linecap="butt"
       stroke-dasharray="2" />
    <text
       id="LGn1_3_n1_38"
       x="188"
       y="34"
       fill="#00c800">3</text>
    <line
       id="LGn6_1_n2_39"
       x1="71"
       y1="274"
       x2="54"
       y2="301"
       stroke="#c80000"
       stroke-width="1"
       stroke-linecap="butt"
       stroke-dasharray="5" />
    <text
       id="LGn6_1_n2_40"
       x="59"
       y="292"
       fill="#c80000">1</text>
    <line
       id="LGn7_1_n3_41"
       x1="234"
       y1="274"
       x2="251"
       y2="301"
       stroke="#c80000"
       stroke-width="1"
       stroke-linecap="butt"
       stroke-dasharray="5" />
    <text
       id="LGn7_1_n3_42"
       x="239"
       y="292"
       fill="#c80000">1</text>
    <line
       id="LGn5_1_n1_43"
       x1="234"
       y1="91"
       x2="251"
       y2="64"
       stroke="#c80000"
       stroke-width="1"
       stroke-linecap="butt"
       stroke-dasharray="5" />
    <text
       id="LGn5_1_n1_44"
       x="239"
       y="82"
       fill="#c80000">1</text>
    <line
       id="LGn6_2_n7_45"
       x1="131"
       y1="243"
       x2="175"
       y2="243"
       stroke="#0000c8"
       stroke-width="1"
       stroke-linecap="square" />
    <text
       id="LGn6_2_n7_46"
       x="150"
       y="263"
       fill="#0000c8">2</text>
    <line
       id="LGn4_2_n5_47"
       x1="133"
       y1="123"
       x2="175"
       y2="123"
       stroke="#0000c8"
       stroke-width="1"
       stroke-linecap="square" />
    <text
       id="LGn4_2_n5_48"
       x="151"
       y="143"
       fill="#0000c8">2</text>
    <path
       id="LGn4_3_n4_49"
       d="m 119,92 10,-4 C 158,70 122,44 115,77 l -2,11"
       fill="none"
       stroke="#00c800"
       stroke-width="2"
       stroke-linecap="butt"
       stroke-dasharray="2" />
    <text
       id="LGn4_3_n4_50"
       x="139"
       y="59"
       fill="#00c800">3</text>
    <path
       id="LGn0_3_n0_51"
       d="m 70,34 10,5 C 112,51 110,8 79,22 l -9,6"
       fill="none"
       stroke="#00c800"
       stroke-width="2"
       stroke-linecap="butt"
       stroke-dasharray="2" />
    <text
       id="LGn0_3_n0_52"
       x="111"
       y="34"
       fill="#00c800">3</text>
    <path
       id="LGn2_3_n2_53"
       d="m 71,336 10,5 c 32,13 31,-30 -1,-17 l -9,6"
       fill="none"
       stroke="#00c800"
       stroke-width="2"
       stroke-linecap="butt"
       stroke-dasharray="2" />
    <text
       id="LGn2_3_n2_54"
       x="112"
       y="338"
       fill="#00c800">3</text>
    <path
       id="LGn3_3_n3_55"
       d="m 235,330 -10,-5 c -32,-13 -31,30 1,17 l 9,-6"
       fill="none"
       stroke="#00c800"
       stroke-width="2"
       stroke-linecap="butt"
       stroke-dasharray="2" />
    <text
       id="LGn3_3_n3_56"
       x="188"
       y="338"
       fill="#00c800">3</text>
    <path
       id="LGn7_3_n7_57"
       d="m 187,271 -10,4 c -29,19 7,44 14,11 l 2,-11"
       fill="none"
       stroke="#00c800"
       stroke-width="2"
       stroke-linecap="butt"
       stroke-dasharray="2" />
    <text
       id="LGn7_3_n7_58"
       x="161"
       y="314"
       fill="#00c800">3</text>
    <path
       id="LGn5_3_n5_59"
       d="m 194,89 -2,-11 c -6,-34 -42,-9 -14,10 l 10,5"
       fill="none"
       stroke="#00c800"
       stroke-width="2"
       stroke-linecap="butt"
       stroke-dasharray="2" />
    <text
       id="LGn5_3_n5_60"
       x="163"
       y="59"
       fill="#00c800">3</text>
    <line
       id="LGn4_1_n0_61"
       x1="70"
       y1="89"
       x2="54"
       y2="64"
       stroke="#c80000"
       stroke-width="1"
       stroke-linecap="butt"
       stroke-dasharray="5" />
    <text
       id="LGn4_1_n0_62"
       x="59"
       y="81"
       fill="#c80000">1</text>
    <line
       id="LGn5_0_n7_63"
       x1="213"
       y1="161"
       x2="213"
       y2="205"
       stroke="#000000"
       stroke-width="2"
       stroke-linecap="square" />
    <text
       id="LGn5_0_n7_64"
       x="195"
       y="188"
       fill="#000000">0</text>
  </g>
  <g
     id="g2"
     transform="translate(-2.2049393,166.78961)">
    <polygon
       id="0"
       points="347,46 347,39 316,39 316,27 347,27 347,21 366,33 "
       stroke="#000000"
       stroke-width="1"
       stroke-linecap="square"
       fill="#000000" />
  </g>
  <g
     id="g3"
     transform="translate(0.5,0.5)">
    <circle
       id="RGn0_0"
       cx="404"
       cy="33"
       r="33"
       fill="none"
       stroke="#000000"
       stroke-width="1"
       stroke-linecap="square" />
    <text
       id="RGn0_1"
       x="397"
       y="35"
       fill="#000000"></text>
    <rect
       id="RGn0_2"
       x="397"
       y="53"
       width="15"
       height="17"
       fill="#ffffff" />
    <text
       id="RGn0_3"
       x="398"
       y="70"
       fill="#000000">n0</text>
    <circle
       id="RGn1_4"
       cx="584"
       cy="33"
       r="33"
       fill="none"
       stroke="#000000"
       stroke-width="1"
       stroke-linecap="square" />
    <text
       id="RGn1_5"
       x="577"
       y="35"
       fill="#000000"></text>
    <rect
       id="RGn1_6"
       x="577"
       y="53"
       width="15"
       height="17"
       fill="#ffffff" />
    <text
       id="RGn1_7"
       x="578"
       y="70"
       fill="#000000">n1</text>
    <circle
       id="RGn3_8"
       cx="584"
       cy="363"
       r="33"
       fill="none"
       stroke="#000000"
       stroke-width="1"
       stroke-linecap="square" />
    <text
       id="RGn3_9"
       x="577"
       y="365"
       fill="#000000"></text>
    <rect
       id="RGn3_10"
       x="577"
       y="383"
       width="15"
       height="17"
       fill="#ffffff" />
    <text
       id="RGn3_11"
       x="578"
       y="400"
       fill="#000000">n3</text>
    <circle
       id="RGn2_12"
       cx="404"
       cy="363"
       r="33"
       fill="none"
       stroke="#000000"
       stroke-width="1"
       stroke-linecap="square" />
    <text
       id="RGn2_13"
       x="397"
       y="365"
       fill="#000000"></text>
    <rect
       id="RGn2_14"
       x="397"
       y="383"
       width="15"
       height="17"
       fill="#ffffff" />
    <text
       id="RGn2_15"
       x="398"
       y="400"
       fill="#000000">n2</text>
    <path
       id="RGn0_3_n0_16"
       d="m 429,60 3,11 c 14,31 44,-1 12,-13 l -11,-2"
       fill="none"
       stroke="#00c800"
       stroke-width="2"
       stroke-linecap="butt"
       stroke-dasharray="2" />
    <text
       id="RGn0_3_n0_17"
       x="460"
       y="93"
       fill="#00c800">3</text>
    <path
       id="RGn1_3_n1_18"
       d="m 554,57 -11,2 c -32,12 -2,44 12,13 l 3,-11"
       fill="none"
       stroke="#00c800"
       stroke-width="2"
       stroke-linecap="butt"
       stroke-dasharray="2" />
    <text
       id="RGn1_3_n1_19"
       x="521"
       y="94"
       fill="#00c800">3</text>
    <line
       id="RGn2_1_n3_20"
       x1="442"
       y1="363"
       x2="546"
       y2="363"
       stroke="#c80000"
       stroke-width="1"
       stroke-linecap="butt"
       stroke-dasharray="5" />
    <text
       id="RGn2_1_n3_21"
       x="491"
       y="383"
       fill="#c80000">1</text>
    <path
       id="RGn3_3_n3_22"
       d="m 557,335 -3,-11 c -15,-31 -44,2 -12,13 l 11,2"
       fill="none"
       stroke="#00c800"
       stroke-width="2"
       stroke-linecap="butt"
       stroke-dasharray="2" />
    <text
       id="RGn3_3_n3_23"
       x="519"
       y="312"
       fill="#00c800">3</text>
    <line
       id="RGn0_1_n1_24"
       x1="442"
       y1="33"
       x2="546"
       y2="33"
       stroke="#c80000"
       stroke-width="1"
       stroke-linecap="butt"
       stroke-dasharray="5" />
    <text
       id="RGn0_1_n1_25"
       x="491"
       y="53"
       fill="#c80000">1</text>
    <path
       id="RGn2_3_n2_26"
       d="m 433,339 11,-2 c 32,-12 3,-44 -12,-13 l -3,11"
       fill="none"
       stroke="#00c800"
       stroke-width="2"
       stroke-linecap="butt"
       stroke-dasharray="2" />
    <text
       id="RGn2_3_n2_27"
       x="461"
       y="312"
       fill="#00c800">3</text>
  </g>
</svg>
