<?xml version="1.0" encoding="UTF-8" standalone="no"?>
<svg
   version="1.1"
   font="Noto Sans Regular"
   font-size="12px"
   width="950"
   height="460.62"
   id="svg3"
   sodipodi:docname="regle-expl-rotation-arete.svg"
   inkscape:version="1.3.2 (091e20ef0f, 2023-11-25, custom)"
   xmlns:inkscape="http://www.inkscape.org/namespaces/inkscape"
   xmlns:sodipodi="http://sodipodi.sourceforge.net/DTD/sodipodi-0.dtd"
   xmlns="http://www.w3.org/2000/svg"
   xmlns:svg="http://www.w3.org/2000/svg">
  <defs
     id="defs3" />
  <sodipodi:namedview
     id="namedview3"
     pagecolor="#ffffff"
     bordercolor="#000000"
     borderopacity="0.25"
     inkscape:showpageshadow="2"
     inkscape:pageopacity="0.0"
     inkscape:pagecheckerboard="0"
     inkscape:deskcolor="#d1d1d1"
     showgrid="false"
     inkscape:zoom="0.91404612"
     inkscape:cx="477"
     inkscape:cy="253.2695"
     inkscape:window-width="1892"
     inkscape:window-height="1034"
     inkscape:window-x="9"
     inkscape:window-y="27"
     inkscape:window-maximized="1"
     inkscape:current-layer="svg3" />
  <g
     id="g1"
     transform="translate(0.5,15.5)">
    <circle
       id="LGn4_0"
       cx="303"
       cy="393"
       r="33"
       fill="none"
       stroke="#000000"
       stroke-width="1"
       stroke-linecap="square" />
    <text
       id="LGn4_1"
       x="296"
       y="395"
       fill="#000000"></text>
    <rect
       id="LGn4_2"
       x="296"
       y="413"
       width="15"
       height="17"
       fill="#ffffff" />
    <text
       id="LGn4_3"
       x="297"
       y="430"
       fill="#000000">n4</text>
    <circle
       id="LGn6_4"
       cx="33"
       cy="273"
       r="33"
       fill="none"
       stroke="#000000"
       stroke-width="1"
       stroke-linecap="square" />
    <text
       id="LGn6_5"
       x="26"
       y="275"
       fill="#000000"></text>
    <rect
       id="LGn6_6"
       x="26"
       y="293"
       width="15"
       height="17"
       fill="#ffffff" />
    <text
       id="LGn6_7"
       x="27"
       y="310"
       fill="#000000">n6</text>
    <circle
       id="LGn3_8"
       cx="423"
       cy="273"
       r="33"
       fill="none"
       stroke="#000000"
       stroke-width="1"
       stroke-linecap="square" />
    <text
       id="LGn3_9"
       x="416"
       y="275"
       fill="#000000"></text>
    <rect
       id="LGn3_10"
       x="416"
       y="293"
       width="15"
       height="17"
       fill="#ffffff" />
    <text
       id="LGn3_11"
       x="417"
       y="310"
       fill="#000000">n3</text>
    <circle
       id="LGn10_12"
       cx="183"
       cy="303"
       r="33"
       fill="none"
       stroke="#000000"
       stroke-width="1"
       stroke-linecap="square" />
    <text
       id="LGn10_13"
       x="176"
       y="305"
       fill="#000000"></text>
    <rect
       id="LGn10_14"
       x="172"
       y="323"
       width="22"
       height="17"
       fill="#ffffff" />
    <text
       id="LGn10_15"
       x="173"
       y="340"
       fill="#000000">n10</text>
    <circle
       id="LGn0_16"
       cx="153"
       cy="33"
       r="33"
       fill="none"
       stroke="#000000"
       stroke-width="1"
       stroke-linecap="square" />
    <text
       id="LGn0_17"
       x="146"
       y="35"
       fill="#000000"></text>
    <rect
       id="LGn0_18"
       x="146"
       y="53"
       width="15"
       height="17"
       fill="#ffffff" />
    <text
       id="LGn0_19"
       x="147"
       y="70"
       fill="#000000">n0</text>
    <circle
       id="LGn8_20"
       cx="183"
       cy="123"
       r="33"
       fill="none"
       stroke="#000000"
       stroke-width="1"
       stroke-linecap="square" />
    <circle
       id="LGn8_21"
       cx="183"
       cy="123"
       r="35"
       fill="none"
       stroke="#000000"
       stroke-width="1"
       stroke-linecap="square" />
    <text
       id="LGn8_22"
       x="176"
       y="125"
       fill="#000000"></text>
    <rect
       id="LGn8_23"
       x="176"
       y="143"
       width="15"
       height="17"
       fill="#ffffff" />
    <text
       id="LGn8_24"
       x="177"
       y="160"
       fill="#000000">n8</text>
    <circle
       id="LGn11_25"
       cx="273"
       cy="303"
       r="33"
       fill="none"
       stroke="#000000"
       stroke-width="1"
       stroke-linecap="square" />
    <text
       id="LGn11_26"
       x="266"
       y="305"
       fill="#000000"></text>
    <rect
       id="LGn11_27"
       x="262"
       y="323"
       width="22"
       height="17"
       fill="#ffffff" />
    <text
       id="LGn11_28"
       x="263"
       y="340"
       fill="#000000">n11</text>
    <circle
       id="LGn1_29"
       cx="303"
       cy="33"
       r="33"
       fill="none"
       stroke="#000000"
       stroke-width="1"
       stroke-linecap="square" />
    <text
       id="LGn1_30"
       x="296"
       y="35"
       fill="#000000"></text>
    <rect
       id="LGn1_31"
       x="296"
       y="53"
       width="15"
       height="17"
       fill="#ffffff" />
    <text
       id="LGn1_32"
       x="297"
       y="70"
       fill="#000000">n1</text>
    <circle
       id="LGn7_33"
       cx="33"
       cy="153"
       r="33"
       fill="none"
       stroke="#000000"
       stroke-width="1"
       stroke-linecap="square" />
    <text
       id="LGn7_34"
       x="26"
       y="155"
       fill="#000000"></text>
    <rect
       id="LGn7_35"
       x="26"
       y="173"
       width="15"
       height="17"
       fill="#ffffff" />
    <text
       id="LGn7_36"
       x="27"
       y="190"
       fill="#000000">n7</text>
    <circle
       id="LGn5_37"
       cx="153"
       cy="393"
       r="33"
       fill="none"
       stroke="#000000"
       stroke-width="1"
       stroke-linecap="square" />
    <text
       id="LGn5_38"
       x="146"
       y="395"
       fill="#000000"></text>
    <rect
       id="LGn5_39"
       x="146"
       y="413"
       width="15"
       height="17"
       fill="#ffffff" />
    <text
       id="LGn5_40"
       x="147"
       y="430"
       fill="#000000">n5</text>
    <circle
       id="LGn2_41"
       cx="423"
       cy="153"
       r="33"
       fill="none"
       stroke="#000000"
       stroke-width="1"
       stroke-linecap="square" />
    <text
       id="LGn2_42"
       x="416"
       y="155"
       fill="#000000"></text>
    <rect
       id="LGn2_43"
       x="416"
       y="173"
       width="15"
       height="17"
       fill="#ffffff" />
    <text
       id="LGn2_44"
       x="417"
       y="190"
       fill="#000000">n2</text>
    <circle
       id="LGn9_45"
       cx="273"
       cy="123"
       r="33"
       fill="none"
       stroke="#000000"
       stroke-width="1"
       stroke-linecap="square" />
    <text
       id="LGn9_46"
       x="266"
       y="125"
       fill="#000000"></text>
    <rect
       id="LGn9_47"
       x="266"
       y="143"
       width="15"
       height="17"
       fill="#ffffff" />
    <text
       id="LGn9_48"
       x="267"
       y="160"
       fill="#000000">n9</text>
    <line
       id="LGn3_0_n4_49"
       x1="396"
       y1="299"
       x2="329"
       y2="366"
       stroke="#000000"
       stroke-width="2"
       stroke-linecap="square" />
    <text
       id="LGn3_0_n4_50"
       x="359"
       y="337"
       fill="#000000">0</text>
    <line
       id="LGn7_0_n0_51"
       x1="59"
       y1="126"
       x2="126"
       y2="59"
       stroke="#000000"
       stroke-width="2"
       stroke-linecap="square" />
    <text
       id="LGn7_0_n0_52"
       x="89"
       y="97"
       fill="#000000">0</text>
    <line
       id="LGn4_1_n11_53"
       x1="290"
       y1="356"
       x2="285"
       y2="339"
       stroke="#c80000"
       stroke-width="1"
       stroke-linecap="butt"
       stroke-dasharray="5" />
    <text
       id="LGn4_1_n11_54"
       x="299"
       y="352"
       fill="#c80000">1</text>
    <path
       id="LGn9_3_n9_55"
       d="m 290,156 1,11 c 6,34 43,10 14,-10 l -9,-5"
       fill="none"
       stroke="#00c800"
       stroke-width="2"
       stroke-linecap="butt"
       stroke-dasharray="2" />
    <text
       id="LGn9_3_n9_56"
       x="314"
       y="196"
       fill="#00c800">3</text>
    <line
       id="LGn6_0_n5_57"
       x1="59"
       y1="299"
       x2="126"
       y2="366"
       stroke="#000000"
       stroke-width="2"
       stroke-linecap="square" />
    <text
       id="LGn6_0_n5_58"
       x="89"
       y="337"
       fill="#000000">0</text>
    <line
       id="LGn9_0_n11_59"
       x1="273"
       y1="161"
       x2="273"
       y2="265"
       stroke="#000000"
       stroke-width="2"
       stroke-linecap="square" />
    <text
       id="LGn9_0_n11_60"
       x="255"
       y="218"
       fill="#000000">0</text>
    <line
       id="LGn8_0_n10_61"
       x1="183"
       y1="163"
       x2="183"
       y2="265"
       stroke="#000000"
       stroke-width="2"
       stroke-linecap="square" />
    <text
       id="LGn8_0_n10_62"
       x="165"
       y="219"
       fill="#000000">0</text>
    <path
       id="LGn1_3_n1_63"
       d="m 313,69 -1,11 c -1,35 39,19 15,-6 l -8,-7"
       fill="none"
       stroke="#00c800"
       stroke-width="2"
       stroke-linecap="butt"
       stroke-dasharray="2" />
    <text
       id="LGn1_3_n1_64"
       x="329"
       y="115"
       fill="#00c800">3</text>
    <path
       id="LGn3_3_n3_65"
       d="m 385,270 -10,-5 c -32,-13 -31,30 1,17 l 9,-6"
       fill="none"
       stroke="#00c800"
       stroke-width="2"
       stroke-linecap="butt"
       stroke-dasharray="2" />
    <text
       id="LGn3_3_n3_66"
       x="338"
       y="278"
       fill="#00c800">3</text>
    <path
       id="LGn0_3_n0_67"
       d="m 134,66 -9,6 c -25,24 14,42 16,7 l -1,-11"
       fill="none"
       stroke="#00c800"
       stroke-width="2"
       stroke-linecap="butt"
       stroke-dasharray="2" />
    <text
       id="LGn0_3_n0_68"
       x="116"
       y="112"
       fill="#00c800">3</text>
    <line
       id="LGn3_1_n2_69"
       x1="423"
       y1="235"
       x2="423"
       y2="191"
       stroke="#c80000"
       stroke-width="1"
       stroke-linecap="butt"
       stroke-dasharray="5" />
    <text
       id="LGn3_1_n2_70"
       x="435"
       y="218"
       fill="#c80000">1</text>
    <line
       id="LGn5_1_n10_71"
       x1="165"
       y1="356"
       x2="170"
       y2="339"
       stroke="#c80000"
       stroke-width="1"
       stroke-linecap="butt"
       stroke-dasharray="5" />
    <text
       id="LGn5_1_n10_72"
       x="179"
       y="352"
       fill="#c80000">1</text>
    <line
       id="LGn6_1_n7_73"
       x1="33"
       y1="235"
       x2="33"
       y2="191"
       stroke="#c80000"
       stroke-width="1"
       stroke-linecap="butt"
       stroke-dasharray="5" />
    <text
       id="LGn6_1_n7_74"
       x="45"
       y="218"
       fill="#c80000">1</text>
    <path
       id="LGn7_3_n7_75"
       d="m 70,157 9,6 c 32,14 33,-29 1,-17 l -10,5"
       fill="none"
       stroke="#00c800"
       stroke-width="2"
       stroke-linecap="butt"
       stroke-dasharray="2" />
    <text
       id="LGn7_3_n7_76"
       x="111"
       y="160"
       fill="#00c800">3</text>
    <line
       id="LGn8_2_n9_77"
       x1="223"
       y1="123"
       x2="235"
       y2="123"
       stroke="#0000c8"
       stroke-width="1"
       stroke-linecap="square" />
    <text
       id="LGn8_2_n9_78"
       x="226"
       y="143"
       fill="#0000c8">2</text>
    <path
       id="LGn11_3_n11_79"
       d="m 295,272 9,-6 c 28,-21 -10,-43 -14,-9 l -1,11"
       fill="none"
       stroke="#00c800"
       stroke-width="2"
       stroke-linecap="butt"
       stroke-dasharray="2" />
    <text
       id="LGn11_3_n11_80"
       x="311"
       y="237"
       fill="#00c800">3</text>
    <path
       id="LGn4_3_n4_81"
       d="m 321,359 9,-6 c 25,-24 -15,-42 -16,-7 l 1,11"
       fill="none"
       stroke="#00c800"
       stroke-width="2"
       stroke-linecap="butt"
       stroke-dasharray="2" />
    <text
       id="LGn4_3_n4_82"
       x="333"
       y="322"
       fill="#00c800">3</text>
    <path
       id="LGn8_3_n8_83"
       d="m 164,158 -9,6 c -24,24 15,42 16,7 l -1,-11"
       fill="none"
       stroke="#00c800"
       stroke-width="2"
       stroke-linecap="butt"
       stroke-dasharray="2" />
    <text
       id="LGn8_3_n8_84"
       x="147"
       y="205"
       fill="#00c800">3</text>
    <path
       id="LGn10_3_n10_85"
       d="m 169,267 v -11 c -2,-35 -40,-16 -15,7 l 9,6"
       fill="none"
       stroke="#00c800"
       stroke-width="2"
       stroke-linecap="butt"
       stroke-dasharray="2" />
    <text
       id="LGn10_3_n10_86"
       x="144"
       y="233"
       fill="#00c800">3</text>
    <line
       id="LGn1_0_n2_87"
       x1="329"
       y1="59"
       x2="396"
       y2="126"
       stroke="#000000"
       stroke-width="2"
       stroke-linecap="square" />
    <text
       id="LGn1_0_n2_88"
       x="359"
       y="97"
       fill="#000000">0</text>
    <line
       id="LGn9_1_n1_89"
       x1="285"
       y1="86"
       x2="290"
       y2="69"
       stroke="#c80000"
       stroke-width="1"
       stroke-linecap="butt"
       stroke-dasharray="5" />
    <text
       id="LGn9_1_n1_90"
       x="299"
       y="82"
       fill="#c80000">1</text>
    <path
       id="LGn5_3_n5_91"
       d="m 143,356 2,-11 c 1,-34 -39,-20 -16,6 l 8,7"
       fill="none"
       stroke="#00c800"
       stroke-width="2"
       stroke-linecap="butt"
       stroke-dasharray="2" />
    <text
       id="LGn5_3_n5_92"
       x="123"
       y="320"
       fill="#00c800">3</text>
    <line
       id="LGn10_2_n11_93"
       x1="221"
       y1="303"
       x2="235"
       y2="303"
       stroke="#0000c8"
       stroke-width="1"
       stroke-linecap="square" />
    <text
       id="LGn10_2_n11_94"
       x="225"
       y="323"
       fill="#0000c8">2</text>
    <line
       id="LGn8_1_n0_95"
       x1="170"
       y1="85"
       x2="165"
       y2="69"
       stroke="#c80000"
       stroke-width="1"
       stroke-linecap="butt"
       stroke-dasharray="5" />
    <text
       id="LGn8_1_n0_96"
       x="179"
       y="82"
       fill="#c80000">1</text>
    <path
       id="LGn2_3_n2_97"
       d="m 385,148 -9,-6 c -32,-14 -33,29 -1,17 l 10,-5"
       fill="none"
       stroke="#00c800"
       stroke-width="2"
       stroke-linecap="butt"
       stroke-dasharray="2" />
    <text
       id="LGn2_3_n2_98"
       x="338"
       y="155"
       fill="#00c800">3</text>
    <path
       id="LGn6_3_n6_99"
       d="m 70,276 9,6 c 32,14 33,-29 1,-17 l -10,5"
       fill="none"
       stroke="#00c800"
       stroke-width="2"
       stroke-linecap="butt"
       stroke-dasharray="2" />
    <text
       id="LGn6_3_n6_100"
       x="111"
       y="279"
       fill="#00c800">3</text>
  </g>
  <g
     id="g2"
     transform="translate(-2.2049393,76.789612)">
    <polygon
       id="0"
       points="497,166 497,159 466,159 466,147 497,147 497,141 516,153 "
       stroke="#000000"
       stroke-width="1"
       stroke-linecap="square"
       fill="#000000" />
  </g>
  <g
     id="g3"
     transform="translate(0.5,0.5)">
    <circle
       id="RGn13_0"
       cx="645"
       cy="183"
       r="40"
       fill="none"
       stroke="#000000"
       stroke-width="1"
       stroke-linecap="square" />
    <text
       id="RGn13_1"
       x="638"
       y="168"
       fill="#000000"></text>
    <text
       id="RGn13_2"
       x="635"
       y="185"
       fill="#000000"></text>
    <text
       id="RGn13_3"
       x="627"
       y="202"
       fill="#c0c0c0"></text>
    <rect
       id="RGn13_4"
       x="634"
       y="210"
       width="22"
       height="17"
       fill="#ffffff" />
    <text
       id="RGn13_5"
       x="635"
       y="227"
       fill="#000000">n13</text>
    <circle
       id="RGn12_6"
       cx="645"
       cy="273"
       r="40"
       fill="none"
       stroke="#000000"
       stroke-width="1"
       stroke-linecap="square" />
    <text
       id="RGn12_7"
       x="638"
       y="258"
       fill="#000000"></text>
    <text
       id="RGn12_8"
       x="635"
       y="275"
       fill="#c0c0c0"></text>
    <text
       id="RGn12_9"
       x="627"
       y="292"
       fill="#c0c0c0"></text>
    <rect
       id="RGn12_10"
       x="634"
       y="300"
       width="22"
       height="17"
       fill="#ffffff" />
    <text
       id="RGn12_11"
       x="635"
       y="317"
       fill="#000000">n12</text>
    <circle
       id="RGn1_12"
       cx="795"
       cy="33"
       r="33"
       fill="none"
       stroke="#000000"
       stroke-width="1"
       stroke-linecap="square" />
    <text
       id="RGn1_13"
       x="788"
       y="35"
       fill="#000000"></text>
    <rect
       id="RGn1_14"
       x="788"
       y="53"
       width="15"
       height="17"
       fill="#ffffff" />
    <text
       id="RGn1_15"
       x="789"
       y="70"
       fill="#000000">n1</text>
    <circle
       id="RGn0_16"
       cx="675"
       cy="33"
       r="33"
       fill="none"
       stroke="#000000"
       stroke-width="1"
       stroke-linecap="square" />
    <text
       id="RGn0_17"
       x="668"
       y="35"
       fill="#000000"></text>
    <rect
       id="RGn0_18"
       x="668"
       y="53"
       width="15"
       height="17"
       fill="#ffffff" />
    <text
       id="RGn0_19"
       x="669"
       y="70"
       fill="#000000">n0</text>
    <circle
       id="RGn4_20"
       cx="795"
       cy="423"
       r="33"
       fill="none"
       stroke="#000000"
       stroke-width="1"
       stroke-linecap="square" />
    <text
       id="RGn4_21"
       x="788"
       y="425"
       fill="#000000"></text>
    <rect
       id="RGn4_22"
       x="788"
       y="443"
       width="15"
       height="17"
       fill="#ffffff" />
    <text
       id="RGn4_23"
       x="789"
       y="460"
       fill="#000000">n4</text>
    <circle
       id="RGn14_24"
       cx="825"
       cy="273"
       r="40"
       fill="none"
       stroke="#000000"
       stroke-width="1"
       stroke-linecap="square" />
    <text
       id="RGn14_25"
       x="818"
       y="258"
       fill="#000000"></text>
    <text
       id="RGn14_26"
       x="815"
       y="275"
       fill="#c0c0c0"></text>
    <text
       id="RGn14_27"
       x="807"
       y="292"
       fill="#c0c0c0"></text>
    <rect
       id="RGn14_28"
       x="814"
       y="300"
       width="22"
       height="17"
       fill="#ffffff" />
    <text
       id="RGn14_29"
       x="815"
       y="317"
       fill="#000000">n14</text>
    <circle
       id="RGn6_30"
       cx="555"
       cy="333"
       r="34"
       fill="none"
       stroke="#000000"
       stroke-width="1"
       stroke-linecap="square" />
    <text
       id="RGn6_31"
       x="548"
       y="327"
       fill="#000000"></text>
    <text
       id="RGn6_32"
       x="545"
       y="344"
       fill="#c0c0c0"></text>
    <rect
       id="RGn6_33"
       x="548"
       y="354"
       width="15"
       height="17"
       fill="#ffffff" />
    <text
       id="RGn6_34"
       x="549"
       y="371"
       fill="#000000">n6</text>
    <circle
       id="RGn7_35"
       cx="555"
       cy="153"
       r="34"
       fill="none"
       stroke="#000000"
       stroke-width="1"
       stroke-linecap="square" />
    <text
       id="RGn7_36"
       x="548"
       y="147"
       fill="#000000"></text>
    <text
       id="RGn7_37"
       x="545"
       y="164"
       fill="#c0c0c0"></text>
    <rect
       id="RGn7_38"
       x="548"
       y="174"
       width="15"
       height="17"
       fill="#ffffff" />
    <text
       id="RGn7_39"
       x="549"
       y="191"
       fill="#000000">n7</text>
    <circle
       id="RGn3_40"
       cx="915"
       cy="333"
       r="34"
       fill="none"
       stroke="#000000"
       stroke-width="1"
       stroke-linecap="square" />
    <text
       id="RGn3_41"
       x="908"
       y="327"
       fill="#000000"></text>
    <text
       id="RGn3_42"
       x="905"
       y="344"
       fill="#c0c0c0"></text>
    <rect
       id="RGn3_43"
       x="908"
       y="354"
       width="15"
       height="17"
       fill="#ffffff" />
    <text
       id="RGn3_44"
       x="909"
       y="371"
       fill="#000000">n3</text>
    <circle
       id="RGn5_45"
       cx="675"
       cy="423"
       r="33"
       fill="none"
       stroke="#000000"
       stroke-width="1"
       stroke-linecap="square" />
    <text
       id="RGn5_46"
       x="668"
       y="425"
       fill="#000000"></text>
    <rect
       id="RGn5_47"
       x="668"
       y="443"
       width="15"
       height="17"
       fill="#ffffff" />
    <text
       id="RGn5_48"
       x="669"
       y="460"
       fill="#000000">n5</text>
    <circle
       id="RGn2_49"
       cx="915"
       cy="153"
       r="34"
       fill="none"
       stroke="#000000"
       stroke-width="1"
       stroke-linecap="square" />
    <text
       id="RGn2_50"
       x="908"
       y="147"
       fill="#000000"></text>
    <text
       id="RGn2_51"
       x="905"
       y="164"
       fill="#c0c0c0"></text>
    <rect
       id="RGn2_52"
       x="908"
       y="174"
       width="15"
       height="17"
       fill="#ffffff" />
    <text
       id="RGn2_53"
       x="909"
       y="191"
       fill="#000000">n2</text>
    <circle
       id="RGn15_54"
       cx="825"
       cy="183"
       r="40"
       fill="none"
       stroke="#000000"
       stroke-width="1"
       stroke-linecap="square" />
    <text
       id="RGn15_55"
       x="818"
       y="168"
       fill="#000000"></text>
    <text
       id="RGn15_56"
       x="815"
       y="185"
       fill="#000000"></text>
    <text
       id="RGn15_57"
       x="807"
       y="202"
       fill="#c0c0c0"></text>
    <rect
       id="RGn15_58"
       x="814"
       y="210"
       width="22"
       height="17"
       fill="#ffffff" />
    <text
       id="RGn15_59"
       x="815"
       y="227"
       fill="#000000">n15</text>
    <line
       id="RGn14_1_n3_60"
       x1="862"
       y1="297"
       x2="882"
       y2="311"
       stroke="#c80000"
       stroke-width="1"
       stroke-linecap="butt"
       stroke-dasharray="5" />
    <text
       id="RGn14_1_n3_61"
       x="869"
       y="309"
       fill="#c80000">1</text>
    <path
       id="RGn5_3_n5_62"
       d="m 699,393 10,-5 c 28,-19 -8,-44 -14,-10 l -2,11"
       fill="none"
       stroke="#00c800"
       stroke-width="2"
       stroke-linecap="butt"
       stroke-dasharray="2" />
    <text
       id="RGn5_3_n5_63"
       x="718"
       y="359"
       fill="#00c800">3</text>
    <path
       id="RGn7_3_n7_64"
       d="m 590,138 h 11 c 35,-3 15,-41 -8,-15 l -5,9"
       fill="none"
       stroke="#00c800"
       stroke-width="2"
       stroke-linecap="butt"
       stroke-dasharray="2" />
    <text
       id="RGn7_3_n7_65"
       x="626"
       y="120"
       fill="#00c800">3</text>
    <path
       id="RGn0_3_n0_66"
       d="m 695,64 3,11 c 9,33 43,5 13,-11 l -10,-4"
       fill="none"
       stroke="#00c800"
       stroke-width="2"
       stroke-linecap="butt"
       stroke-dasharray="2" />
    <text
       id="RGn0_3_n0_67"
       x="723"
       y="102"
       fill="#00c800">3</text>
    <path
       id="RGn1_3_n1_68"
       d="m 769,61 -10,4 c -30,17 5,44 14,11 l 2,-11"
       fill="none"
       stroke="#00c800"
       stroke-width="2"
       stroke-linecap="butt"
       stroke-dasharray="2" />
    <text
       id="RGn1_3_n1_69"
       x="742"
       y="103"
       fill="#00c800">3</text>
    <path
       id="RGn2_3_n2_70"
       d="m 880,133 -6,-9 c -23,-25 -42,14 -7,15 h 11"
       fill="none"
       stroke="#00c800"
       stroke-width="2"
       stroke-linecap="butt"
       stroke-dasharray="2" />
    <text
       id="RGn2_3_n2_71"
       x="836"
       y="122"
       fill="#00c800">3</text>
    <path
       id="RGn13_3_n13_72"
       d="m 687,167 11,1 c 35,-2 17,-41 -7,-16 l -6,9"
       fill="none"
       stroke="#00c800"
       stroke-width="2"
       stroke-linecap="butt"
       stroke-dasharray="2" />
    <text
       id="RGn13_3_n13_73"
       x="724"
       y="151"
       fill="#00c800">3</text>
    <path
       id="RGn12_3_n12_74"
       d="m 681,300 5,9 c 20,29 44,-9 10,-14 l -11,-1"
       fill="none"
       stroke="#00c800"
       stroke-width="2"
       stroke-linecap="butt"
       stroke-dasharray="2" />
    <text
       id="RGn12_3_n12_75"
       x="718"
       y="326"
       fill="#00c800">3</text>
    <line
       id="RGn6_0_n5_76"
       x1="586"
       y1="356"
       x2="644"
       y2="400"
       stroke="#000000"
       stroke-width="2"
       stroke-linecap="square" />
    <text
       id="RGn6_0_n5_77"
       x="612"
       y="383"
       fill="#000000">0</text>
    <line
       id="RGn0_0_n7_78"
       x1="648"
       y1="59"
       x2="582"
       y2="125"
       stroke="#000000"
       stroke-width="2"
       stroke-linecap="square" />
    <text
       id="RGn0_0_n7_79"
       x="612"
       y="97"
       fill="#000000">0</text>
    <path
       id="RGn14_3_n14_80"
       d="m 784,294 -11,1 c -34,5 -10,42 10,14 l 5,-9"
       fill="none"
       stroke="#00c800"
       stroke-width="2"
       stroke-linecap="butt"
       stroke-dasharray="2" />
    <text
       id="RGn14_3_n14_81"
       x="745"
       y="325"
       fill="#00c800">3</text>
    <line
       id="RGn15_1_n2_82"
       x1="867"
       y1="168"
       x2="878"
       y2="165"
       stroke="#c80000"
       stroke-width="1"
       stroke-linecap="butt"
       stroke-dasharray="5" />
    <text
       id="RGn15_1_n2_83"
       x="869"
       y="186"
       fill="#c80000">1</text>
    <path
       id="RGn4_3_n4_84"
       d="m 775,390 -2,-11 c -8,-33 -43,-7 -14,11 l 10,4"
       fill="none"
       stroke="#00c800"
       stroke-width="2"
       stroke-linecap="butt"
       stroke-dasharray="2" />
    <text
       id="RGn4_3_n4_85"
       x="743"
       y="361"
       fill="#00c800">3</text>
    <line
       id="RGn4_0_n3_86"
       x1="825"
       y1="400"
       x2="883"
       y2="356"
       stroke="#000000"
       stroke-width="2"
       stroke-linecap="square" />
    <text
       id="RGn4_0_n3_87"
       x="851"
       y="383"
       fill="#000000">0</text>
    <line
       id="RGn13_0_n15_88"
       x1="690"
       y1="183"
       x2="780"
       y2="183"
       stroke="#000000"
       stroke-width="2"
       stroke-linecap="square" />
    <text
       id="RGn13_0_n15_89"
       x="732"
       y="203"
       fill="#000000">0</text>
    <path
       id="RGn6_3_n6_90"
       d="m 593,343 7,7 c 29,20 38,-22 4,-16 l -11,3"
       fill="none"
       stroke="#00c800"
       stroke-width="2"
       stroke-linecap="butt"
       stroke-dasharray="2" />
    <text
       id="RGn6_3_n6_91"
       x="634"
       y="354"
       fill="#00c800">3</text>
    <line
       id="RGn7_1_n13_92"
       x1="591"
       y1="165"
       x2="602"
       y2="168"
       stroke="#c80000"
       stroke-width="1"
       stroke-linecap="butt"
       stroke-dasharray="5" />
    <text
       id="RGn7_1_n13_93"
       x="593"
       y="186"
       fill="#c80000">1</text>
    <line
       id="RGn12_0_n14_94"
       x1="690"
       y1="273"
       x2="780"
       y2="273"
       stroke="#000000"
       stroke-width="2"
       stroke-linecap="square" />
    <text
       id="RGn12_0_n14_95"
       x="732"
       y="293"
       fill="#000000">0</text>
    <line
       id="RGn14_2_n15_96"
       x1="825"
       y1="228"
       x2="825"
       y2="228"
       stroke="#0000c8"
       stroke-width="1"
       stroke-linecap="square" />
    <text
       id="RGn14_2_n15_97"
       x="807"
       y="222"
       fill="#0000c8">2</text>
    <line
       id="RGn12_2_n13_98"
       x1="645"
       y1="228"
       x2="645"
       y2="228"
       stroke="#0000c8"
       stroke-width="1"
       stroke-linecap="square" />
    <text
       id="RGn12_2_n13_99"
       x="627"
       y="222"
       fill="#0000c8">2</text>
    <path
       id="RGn3_3_n3_100"
       d="m 876,336 -11,-4 c -34,-7 -26,36 3,17 l 8,-7"
       fill="none"
       stroke="#00c800"
       stroke-width="2"
       stroke-linecap="butt"
       stroke-dasharray="2" />
    <text
       id="RGn3_3_n3_101"
       x="829"
       y="352"
       fill="#00c800">3</text>
    <line
       id="RGn1_1_n0_102"
       x1="757"
       y1="33"
       x2="713"
       y2="33"
       stroke="#c80000"
       stroke-width="1"
       stroke-linecap="butt"
       stroke-dasharray="5" />
    <text
       id="RGn1_1_n0_103"
       x="732"
       y="23"
       fill="#c80000">1</text>
    <line
       id="RGn6_1_n12_104"
       x1="587"
       y1="311"
       x2="607"
       y2="297"
       stroke="#c80000"
       stroke-width="1"
       stroke-linecap="butt"
       stroke-dasharray="5" />
    <text
       id="RGn6_1_n12_105"
       x="594"
       y="309"
       fill="#c80000">1</text>
    <path
       id="RGn15_3_n15_106"
       d="m 784,163 -6,-9 c -25,-23 -42,17 -7,16 l 11,-1"
       fill="none"
       stroke="#00c800"
       stroke-width="2"
       stroke-linecap="butt"
       stroke-dasharray="2" />
    <text
       id="RGn15_3_n15_107"
       x="739"
       y="155"
       fill="#00c800">3</text>
    <line
       id="RGn5_1_n4_108"
       x1="713"
       y1="423"
       x2="757"
       y2="423"
       stroke="#c80000"
       stroke-width="1"
       stroke-linecap="butt"
       stroke-dasharray="5" />
    <text
       id="RGn5_1_n4_109"
       x="732"
       y="443"
       fill="#c80000">1</text>
    <line
       id="RGn1_0_n2_110"
       x1="821"
       y1="59"
       x2="887"
       y2="125"
       stroke="#000000"
       stroke-width="2"
       stroke-linecap="square" />
    <text
       id="RGn1_0_n2_111"
       x="851"
       y="97"
       fill="#000000">0</text>
  </g>
</svg>
