<?xml version="1.0" encoding="UTF-8" standalone="no"?>
<svg
   version="1.1"
   font="Noto Sans Regular"
   font-size="12px"
   width="618"
   height="400.62"
   id="svg3"
   sodipodi:docname="regle-expl-suppression-arete.svg"
   inkscape:version="1.4 (e7c3feb100, 2024-10-09)"
   xmlns:inkscape="http://www.inkscape.org/namespaces/inkscape"
   xmlns:sodipodi="http://sodipodi.sourceforge.net/DTD/sodipodi-0.dtd"
   xmlns="http://www.w3.org/2000/svg"
   xmlns:svg="http://www.w3.org/2000/svg">
  <defs
     id="defs3" />
  <sodipodi:namedview
     id="namedview3"
     pagecolor="#ffffff"
     bordercolor="#000000"
     borderopacity="0.25"
     inkscape:showpageshadow="2"
     inkscape:pageopacity="0.0"
     inkscape:pagecheckerboard="0"
     inkscape:deskcolor="#d1d1d1"
     inkscape:zoom="1.4019293"
     inkscape:cx="312.06995"
     inkscape:cy="224.69036"
     inkscape:window-width="1892"
     inkscape:window-height="1035"
     inkscape:window-x="1929"
     inkscape:window-y="26"
     inkscape:window-maximized="1"
     inkscape:current-layer="svg3"
     showgrid="false" />
  <circle
     id="LGn1_0"
     cx="273.5"
     cy="48.5"
     r="33"
     fill="none"
     stroke="#000000"
     stroke-width="1"
     stroke-linecap="square" />
  <text
     id="LGn1_1"
     x="266.5"
     y="50.5"
     fill="#000000" />
  <rect
     id="LGn1_2"
     x="266.5"
     y="68.5"
     width="15"
     height="17"
     fill="#ffffff" />
  <text
     id="LGn1_3"
     x="267.5"
     y="85.5"
     fill="#000000">n1</text>
  <circle
     id="LGn2_4"
     cx="33.5"
     cy="348.5"
     r="33"
     fill="none"
     stroke="#000000"
     stroke-width="1"
     stroke-linecap="square" />
  <text
     id="LGn2_5"
     x="26.5"
     y="350.5"
     fill="#000000" />
  <rect
     id="LGn2_6"
     x="26.5"
     y="368.5"
     width="15"
     height="17"
     fill="#ffffff" />
  <text
     id="LGn2_7"
     x="27.5"
     y="385.5"
     fill="#000000">n2</text>
  <circle
     id="LGn3_8"
     cx="273.5"
     cy="348.5"
     r="33"
     fill="none"
     stroke="#000000"
     stroke-width="1"
     stroke-linecap="square" />
  <text
     id="LGn3_9"
     x="266.5"
     y="350.5"
     fill="#000000" />
  <rect
     id="LGn3_10"
     x="266.5"
     y="368.5"
     width="15"
     height="17"
     fill="#ffffff" />
  <text
     id="LGn3_11"
     x="267.5"
     y="385.5"
     fill="#000000">n3</text>
  <circle
     id="LGn7_12"
     cx="213.5"
     cy="258.5"
     r="33"
     fill="none"
     stroke="#000000"
     stroke-width="1"
     stroke-linecap="square" />
  <text
     id="LGn7_13"
     x="206.5"
     y="260.5"
     fill="#000000" />
  <rect
     id="LGn7_14"
     x="206.5"
     y="278.5"
     width="15"
     height="17"
     fill="#ffffff" />
  <text
     id="LGn7_15"
     x="207.5"
     y="295.5"
     fill="#000000">n7</text>
  <circle
     id="LGn5_16"
     cx="213.5"
     cy="138.5"
     r="33"
     fill="none"
     stroke="#000000"
     stroke-width="1"
     stroke-linecap="square" />
  <text
     id="LGn5_17"
     x="206.5"
     y="140.5"
     fill="#000000" />
  <rect
     id="LGn5_18"
     x="206.5"
     y="158.5"
     width="15"
     height="17"
     fill="#ffffff" />
  <text
     id="LGn5_19"
     x="207.5"
     y="175.5"
     fill="#000000">n5</text>
  <circle
     id="LGn6_20"
     cx="93.5"
     cy="258.5"
     r="33"
     fill="none"
     stroke="#000000"
     stroke-width="1"
     stroke-linecap="square" />
  <text
     id="LGn6_21"
     x="86.5"
     y="260.5"
     fill="#000000" />
  <rect
     id="LGn6_22"
     x="86.5"
     y="278.5"
     width="15"
     height="17"
     fill="#ffffff" />
  <text
     id="LGn6_23"
     x="87.5"
     y="295.5"
     fill="#000000">n6</text>
  <circle
     id="LGn0_24"
     cx="33.5"
     cy="48.5"
     r="33"
     fill="none"
     stroke="#000000"
     stroke-width="1"
     stroke-linecap="square" />
  <text
     id="LGn0_25"
     x="26.5"
     y="50.5"
     fill="#000000" />
  <rect
     id="LGn0_26"
     x="26.5"
     y="68.5"
     width="15"
     height="17"
     fill="#ffffff" />
  <text
     id="LGn0_27"
     x="27.5"
     y="85.5"
     fill="#000000">n0</text>
  <circle
     id="LGn4_28"
     cx="93.5"
     cy="138.5"
     r="33"
     fill="none"
     stroke="#000000"
     stroke-width="1"
     stroke-linecap="square" />
  <circle
     id="LGn4_29"
     cx="93.5"
     cy="138.5"
     r="35"
     fill="none"
     stroke="#000000"
     stroke-width="1"
     stroke-linecap="square" />
  <text
     id="LGn4_30"
     x="86.5"
     y="140.5"
     fill="#000000" />
  <rect
     id="LGn4_31"
     x="86.5"
     y="158.5"
     width="15"
     height="17"
     fill="#ffffff" />
  <text
     id="LGn4_32"
     x="87.5"
     y="175.5"
     fill="#000000">n4</text>
  <line
     id="LGn4_0_n6_33"
     x1="93.5"
     y1="178.5"
     x2="93.5"
     y2="220.5"
     stroke="#000000"
     stroke-width="2"
     stroke-linecap="square" />
  <text
     id="LGn4_0_n6_34"
     x="75.5"
     y="204.5"
     fill="#000000">0</text>
  <path
     id="LGn6_3_n6_35"
     d="m 112.5,290.5 2,11 c 8,33 43,7 14,-11 l -10,-4"
     fill="none"
     stroke="#00c800"
     stroke-width="2"
     stroke-linecap="butt"
     stroke-dasharray="2"
     style="stroke-dasharray:none" />
  <text
     id="LGn6_3_n6_36"
     x="138.5"
     y="329.5"
     fill="#00c800">3</text>
  <path
     id="LGn1_3_n1_37"
     d="m 235.5,43.5 -9,-6 c -31,-14 -34,28 -1,17 l 10,-5"
     fill="none"
     stroke="#00c800"
     stroke-width="2"
     stroke-linecap="butt"
     stroke-dasharray="2"
     style="stroke-dasharray:none" />
  <text
     id="LGn1_3_n1_38"
     x="188.5"
     y="49.5"
     fill="#00c800">3</text>
  <line
     id="LGn6_1_n2_39"
     x1="71.5"
     y1="289.5"
     x2="54.5"
     y2="316.5"
     stroke="#c80000"
     stroke-width="1"
     stroke-linecap="butt"
     stroke-dasharray="5"
     style="stroke-dasharray:none" />
  <text
     id="LGn6_1_n2_40"
     x="59.5"
     y="307.5"
     fill="#c80000">1</text>
  <line
     id="LGn7_1_n3_41"
     x1="234.5"
     y1="289.5"
     x2="251.5"
     y2="316.5"
     stroke="#c80000"
     stroke-width="1"
     stroke-linecap="butt"
     stroke-dasharray="5"
     style="stroke-dasharray:none" />
  <text
     id="LGn7_1_n3_42"
     x="239.5"
     y="307.5"
     fill="#c80000">1</text>
  <line
     id="LGn5_1_n1_43"
     x1="234.5"
     y1="106.5"
     x2="251.5"
     y2="79.5"
     stroke="#c80000"
     stroke-width="1"
     stroke-linecap="butt"
     stroke-dasharray="5"
     style="stroke-dasharray:none" />
  <text
     id="LGn5_1_n1_44"
     x="239.5"
     y="97.5"
     fill="#c80000">1</text>
  <line
     id="LGn6_2_n7_45"
     x1="131.5"
     y1="258.5"
     x2="175.5"
     y2="258.5"
     stroke="#0000c8"
     stroke-width="1"
     stroke-linecap="square" />
  <text
     id="LGn6_2_n7_46"
     x="150.5"
     y="278.5"
     fill="#0000c8">2</text>
  <line
     id="LGn4_2_n5_47"
     x1="133.5"
     y1="138.5"
     x2="175.5"
     y2="138.5"
     stroke="#0000c8"
     stroke-width="1"
     stroke-linecap="square" />
  <text
     id="LGn4_2_n5_48"
     x="151.5"
     y="158.5"
     fill="#0000c8">2</text>
  <path
     id="LGn4_3_n4_49"
     d="m 119.5,107.5 10,-4 c 29,-18 -7,-44 -14,-11 l -2,11"
     fill="none"
     stroke="#00c800"
     stroke-width="2"
     stroke-linecap="butt"
     stroke-dasharray="2"
     style="stroke-dasharray:none" />
  <text
     id="LGn4_3_n4_50"
     x="139.5"
     y="74.5"
     fill="#00c800">3</text>
  <path
     id="LGn0_3_n0_51"
     d="m 70.5,49.5 10,5 c 32,12 30,-31 -1,-17 l -9,6"
     fill="none"
     stroke="#00c800"
     stroke-width="2"
     stroke-linecap="butt"
     stroke-dasharray="2"
     style="stroke-dasharray:none" />
  <text
     id="LGn0_3_n0_52"
     x="111.5"
     y="49.5"
     fill="#00c800">3</text>
  <path
     id="LGn2_3_n2_53"
     d="m 71.5,351.5 10,5 c 32,13 31,-30 -1,-17 l -9,6"
     fill="none"
     stroke="#00c800"
     stroke-width="2"
     stroke-linecap="butt"
     stroke-dasharray="2"
     style="stroke-dasharray:none" />
  <text
     id="LGn2_3_n2_54"
     x="112.5"
     y="353.5"
     fill="#00c800">3</text>
  <path
     id="LGn3_3_n3_55"
     d="m 235.5,345.5 -10,-5 c -32,-13 -31,30 1,17 l 9,-6"
     fill="none"
     stroke="#00c800"
     stroke-width="2"
     stroke-linecap="butt"
     stroke-dasharray="2"
     style="stroke-dasharray:none" />
  <text
     id="LGn3_3_n3_56"
     x="188.5"
     y="353.5"
     fill="#00c800">3</text>
  <path
     id="LGn7_3_n7_57"
     d="m 187.5,286.5 -10,4 c -29,19 7,44 14,11 l 2,-11"
     fill="none"
     stroke="#00c800"
     stroke-width="2"
     stroke-linecap="butt"
     stroke-dasharray="2"
     style="stroke-dasharray:none" />
  <text
     id="LGn7_3_n7_58"
     x="161.5"
     y="329.5"
     fill="#00c800">3</text>
  <path
     id="LGn5_3_n5_59"
     d="m 194.5,104.5 -2,-11 c -6,-34 -42,-9 -14,10 l 10,5"
     fill="none"
     stroke="#00c800"
     stroke-width="2"
     stroke-linecap="butt"
     stroke-dasharray="2"
     style="stroke-dasharray:none" />
  <text
     id="LGn5_3_n5_60"
     x="163.5"
     y="74.5"
     fill="#00c800">3</text>
  <line
     id="LGn4_1_n0_61"
     x1="70.5"
     y1="104.5"
     x2="54.5"
     y2="79.5"
     stroke="#c80000"
     stroke-width="1"
     stroke-linecap="butt"
     stroke-dasharray="5"
     style="stroke-dasharray:none" />
  <text
     id="LGn4_1_n0_62"
     x="59.5"
     y="96.5"
     fill="#c80000">1</text>
  <line
     id="LGn5_0_n7_63"
     x1="213.5"
     y1="176.5"
     x2="213.5"
     y2="220.5"
     stroke="#000000"
     stroke-width="2"
     stroke-linecap="square" />
  <text
     id="LGn5_0_n7_64"
     x="195.5"
     y="203.5"
     fill="#000000">0</text>
  <polygon
     id="0"
     points="316,39 316,27 347,27 347,21 366,33 347,46 347,39 "
     stroke="#000000"
     stroke-width="1"
     stroke-linecap="square"
     fill="#000000"
     transform="translate(-2.2049393,166.78961)" />
  <circle
     id="RGn0_0"
     cx="404.5"
     cy="33.5"
     r="33"
     fill="none"
     stroke="#000000"
     stroke-width="1"
     stroke-linecap="square" />
  <text
     id="RGn0_1"
     x="397.5"
     y="35.5"
     fill="#000000" />
  <rect
     id="RGn0_2"
     x="397.5"
     y="53.5"
     width="15"
     height="17"
     fill="#ffffff" />
  <text
     id="RGn0_3"
     x="398.5"
     y="70.5"
     fill="#000000">n0</text>
  <circle
     id="RGn1_4"
     cx="584.5"
     cy="33.5"
     r="33"
     fill="none"
     stroke="#000000"
     stroke-width="1"
     stroke-linecap="square" />
  <text
     id="RGn1_5"
     x="577.5"
     y="35.5"
     fill="#000000" />
  <rect
     id="RGn1_6"
     x="577.5"
     y="53.5"
     width="15"
     height="17"
     fill="#ffffff" />
  <text
     id="RGn1_7"
     x="578.5"
     y="70.5"
     fill="#000000">n1</text>
  <circle
     id="RGn3_8"
     cx="584.5"
     cy="363.5"
     r="33"
     fill="none"
     stroke="#000000"
     stroke-width="1"
     stroke-linecap="square" />
  <text
     id="RGn3_9"
     x="577.5"
     y="365.5"
     fill="#000000" />
  <rect
     id="RGn3_10"
     x="577.5"
     y="383.5"
     width="15"
     height="17"
     fill="#ffffff" />
  <text
     id="RGn3_11"
     x="578.5"
     y="400.5"
     fill="#000000">n3</text>
  <circle
     id="RGn2_12"
     cx="404.5"
     cy="363.5"
     r="33"
     fill="none"
     stroke="#000000"
     stroke-width="1"
     stroke-linecap="square" />
  <text
     id="RGn2_13"
     x="397.5"
     y="365.5"
     fill="#000000" />
  <rect
     id="RGn2_14"
     x="397.5"
     y="383.5"
     width="15"
     height="17"
     fill="#ffffff" />
  <text
     id="RGn2_15"
     x="398.5"
     y="400.5"
     fill="#000000">n2</text>
  <path
     id="RGn0_3_n0_16"
     d="m 429.5,60.5 3,11 c 14,31 44,-1 12,-13 l -11,-2"
     fill="none"
     stroke="#00c800"
     stroke-width="2"
     stroke-linecap="butt"
     stroke-dasharray="2"
     style="stroke-dasharray:none" />
  <text
     id="RGn0_3_n0_17"
     x="460.5"
     y="93.5"
     fill="#00c800">3</text>
  <path
     id="RGn1_3_n1_18"
     d="m 554.5,57.5 -11,2 c -32,12 -2,44 12,13 l 3,-11"
     fill="none"
     stroke="#00c800"
     stroke-width="2"
     stroke-linecap="butt"
     stroke-dasharray="2"
     style="stroke-dasharray:none" />
  <text
     id="RGn1_3_n1_19"
     x="521.5"
     y="94.5"
     fill="#00c800">3</text>
  <line
     id="RGn2_1_n3_20"
     x1="442.5"
     y1="363.5"
     x2="546.5"
     y2="363.5"
     stroke="#c80000"
     stroke-width="1"
     stroke-linecap="butt"
     stroke-dasharray="5"
     style="stroke-dasharray:none" />
  <text
     id="RGn2_1_n3_21"
     x="491.5"
     y="383.5"
     fill="#c80000">1</text>
  <path
     id="RGn3_3_n3_22"
     d="m 557.5,335.5 -3,-11 c -15,-31 -44,2 -12,13 l 11,2"
     fill="none"
     stroke="#00c800"
     stroke-width="2"
     stroke-linecap="butt"
     stroke-dasharray="2"
     style="stroke-dasharray:none" />
  <text
     id="RGn3_3_n3_23"
     x="519.5"
     y="312.5"
     fill="#00c800">3</text>
  <line
     id="RGn0_1_n1_24"
     x1="442.5"
     y1="33.5"
     x2="546.5"
     y2="33.5"
     stroke="#c80000"
     stroke-width="1"
     stroke-linecap="butt"
     stroke-dasharray="5"
     style="stroke-dasharray:none" />
  <text
     id="RGn0_1_n1_25"
     x="491.5"
     y="53.5"
     fill="#c80000">1</text>
  <path
     id="RGn2_3_n2_26"
     d="m 433.5,339.5 11,-2 c 32,-12 3,-44 -12,-13 l -3,11"
     fill="none"
     stroke="#00c800"
     stroke-width="2"
     stroke-linecap="butt"
     stroke-dasharray="2"
     style="stroke-dasharray:none" />
  <text
     id="RGn2_3_n2_27"
     x="461.5"
     y="312.5"
     fill="#00c800">3</text>
</svg>
