<?xml version="1.0" encoding="UTF-8" standalone="no"?>
<svg
   version="1.1"
   font="Noto Sans Regular"
   font-size="12px"
   width="878"
   height="340.62"
   id="svg3"
   sodipodi:docname="regle-expl-cas-particulier-1.svg"
   inkscape:version="1.3.2 (091e20ef0f, 2023-11-25, custom)"
   xmlns:inkscape="http://www.inkscape.org/namespaces/inkscape"
   xmlns:sodipodi="http://sodipodi.sourceforge.net/DTD/sodipodi-0.dtd"
   xmlns="http://www.w3.org/2000/svg"
   xmlns:svg="http://www.w3.org/2000/svg">
  <defs
     id="defs3" />
  <sodipodi:namedview
     id="namedview3"
     pagecolor="#ffffff"
     bordercolor="#000000"
     borderopacity="0.25"
     inkscape:showpageshadow="2"
     inkscape:pageopacity="0.0"
     inkscape:pagecheckerboard="0"
     inkscape:deskcolor="#d1d1d1"
     showgrid="false"
     inkscape:zoom="1.0922693"
     inkscape:cx="481.56621"
     inkscape:cy="267.7911"
     inkscape:window-width="1892"
     inkscape:window-height="1034"
     inkscape:window-x="9"
     inkscape:window-y="27"
     inkscape:window-maximized="1"
     inkscape:current-layer="svg3" />
  <circle
     id="LGn5_0"
     cx="333.5"
     cy="199.5"
     r="33"
     fill="none"
     stroke="#000000"
     stroke-width="1"
     stroke-linecap="square" />
  <text
     id="LGn5_1"
     x="326.5"
     y="201.5"
     fill="#000000">&lt;&gt;</text>
  <rect
     id="LGn5_2"
     x="326.5"
     y="219.5"
     width="15"
     height="17"
     fill="#ffffff" />
  <text
     id="LGn5_3"
     x="327.5"
     y="236.5"
     fill="#000000">n5</text>
  <circle
     id="LGn2_4"
     cx="33.5"
     cy="199.5"
     r="33"
     fill="none"
     stroke="#000000"
     stroke-width="1"
     stroke-linecap="square" />
  <text
     id="LGn2_5"
     x="26.5"
     y="201.5"
     fill="#000000">&lt;&gt;</text>
  <rect
     id="LGn2_6"
     x="26.5"
     y="219.5"
     width="15"
     height="17"
     fill="#ffffff" />
  <text
     id="LGn2_7"
     x="27.5"
     y="236.5"
     fill="#000000">n2</text>
  <circle
     id="LGn1_8"
     cx="303.5"
     cy="49.5"
     r="33"
     fill="none"
     stroke="#000000"
     stroke-width="1"
     stroke-linecap="square" />
  <text
     id="LGn1_9"
     x="296.5"
     y="51.5"
     fill="#000000">&lt;&gt;</text>
  <rect
     id="LGn1_10"
     x="296.5"
     y="69.5"
     width="15"
     height="17"
     fill="#ffffff" />
  <text
     id="LGn1_11"
     x="297.5"
     y="86.5"
     fill="#000000">n1</text>
  <circle
     id="LGn3_12"
     cx="63.5"
     cy="289.5"
     r="33"
     fill="none"
     stroke="#000000"
     stroke-width="1"
     stroke-linecap="square" />
  <circle
     id="LGn3_13"
     cx="63.5"
     cy="289.5"
     r="35"
     fill="none"
     stroke="#000000"
     stroke-width="1"
     stroke-linecap="square" />
  <text
     id="LGn3_14"
     x="56.5"
     y="291.5"
     fill="#000000">&lt;&gt;</text>
  <rect
     id="LGn3_15"
     x="56.5"
     y="309.5"
     width="15"
     height="17"
     fill="#ffffff" />
  <text
     id="LGn3_16"
     x="57.5"
     y="326.5"
     fill="#000000">n3</text>
  <circle
     id="LGn0_17"
     cx="63.5"
     cy="49.5"
     r="33"
     fill="none"
     stroke="#000000"
     stroke-width="1"
     stroke-linecap="square" />
  <circle
     id="LGn0_18"
     cx="63.5"
     cy="49.5"
     r="35"
     fill="none"
     stroke="#000000"
     stroke-width="1"
     stroke-linecap="square" />
  <text
     id="LGn0_19"
     x="56.5"
     y="51.5"
     fill="#000000">&lt;&gt;</text>
  <rect
     id="LGn0_20"
     x="56.5"
     y="69.5"
     width="15"
     height="17"
     fill="#ffffff" />
  <text
     id="LGn0_21"
     x="57.5"
     y="86.5"
     fill="#000000">n0</text>
  <circle
     id="LGn4_22"
     cx="303.5"
     cy="289.5"
     r="33"
     fill="none"
     stroke="#000000"
     stroke-width="1"
     stroke-linecap="square" />
  <text
     id="LGn4_23"
     x="296.5"
     y="291.5"
     fill="#000000">&lt;&gt;</text>
  <rect
     id="LGn4_24"
     x="296.5"
     y="309.5"
     width="15"
     height="17"
     fill="#ffffff" />
  <text
     id="LGn4_25"
     x="297.5"
     y="326.5"
     fill="#000000">n4</text>
  <path
     id="LGn2_2_n2_27"
     d="m 69.5,189.5 11,2 c 31,5 19,-32 -4,-12 l -7,8"
     fill="none"
     stroke="#0000c8"
     stroke-width="1"
     stroke-linecap="square" />
  <text
     id="LGn2_2_n2_28"
     x="109.5"
     y="181.5"
     fill="#0000c8">2</text>
  <path
     id="LGn2_3_n2_29"
     d="m 64.5,178.5 11,-3 c 33,-8 6,-43 -11,-13 l -4,10"
     fill="none"
     stroke="#00c800"
     stroke-width="2"
     stroke-linecap="butt"
     stroke-dasharray="2"
     style="stroke-dasharray:none" />
  <text
     id="LGn2_3_n2_30"
     x="94.5"
     y="153.5"
     fill="#00c800">3</text>
  <path
     id="LGn5_3_n5_31"
     d="m 304.5,173.5 -4,-10 c -18,-29 -44,6 -11,14 l 11,2"
     fill="none"
     stroke="#00c800"
     stroke-width="2"
     stroke-linecap="butt"
     stroke-dasharray="2"
     style="stroke-dasharray:none" />
  <text
     id="LGn5_3_n5_32"
     x="263.5"
     y="155.5"
     fill="#00c800">3</text>
  <line
     id="LGn2_1_n3_33"
     x1="45.5"
     y1="235.5"
     x2="50.5"
     y2="251.5"
     stroke="#c80000"
     stroke-width="1"
     stroke-linecap="butt"
     stroke-dasharray="5"
     style="stroke-dasharray:none" />
  <text
     id="LGn2_1_n3_34"
     x="29.5"
     y="248.5"
     fill="#c80000">1</text>
  <path
     id="LGn1_3_n1_35"
     d="m 265.5,57.5 -11,-2 c -34,-3 -21,38 6,16 l 7,-8"
     fill="none"
     stroke="#00c800"
     stroke-width="2"
     stroke-linecap="butt"
     stroke-dasharray="2"
     style="stroke-dasharray:none" />
  <text
     id="LGn1_3_n1_36"
     x="221.5"
     y="78.5"
     fill="#00c800">3</text>
  <line
     id="LGn3_0_n4_37"
     x1="103.5"
     y1="289.5"
     x2="265.5"
     y2="289.5"
     stroke="#000000"
     stroke-width="2"
     stroke-linecap="square" />
  <text
     id="LGn3_0_n4_38"
     x="181.5"
     y="309.5"
     fill="#000000">0</text>
  <path
     id="LGn0_3_n0_39"
     d="m 100.5,63.5 8,8 c 27,22 39,-20 5,-16 l -11,2"
     fill="none"
     stroke="#00c800"
     stroke-width="2"
     stroke-linecap="butt"
     stroke-dasharray="2"
     style="stroke-dasharray:none" />
  <text
     id="LGn0_3_n0_40"
     x="141.5"
     y="77.5"
     fill="#00c800">3</text>
  <path
     id="LGn1_2_n1_42"
     d="m 272.5,71.5 -11,1 c -30,7 -5,39 9,11 l 4,-10"
     fill="none"
     stroke="#0000c8"
     stroke-width="1"
     stroke-linecap="square" />
  <text
     id="LGn1_2_n1_43"
     x="235.5"
     y="104.5"
     fill="#0000c8">2</text>
  <path
     id="LGn4_3_n4_44"
     d="m 268.5,272.5 -7,-8 c -25,-24 -41,17 -6,16 l 11,-2"
     fill="none"
     stroke="#00c800"
     stroke-width="2"
     stroke-linecap="butt"
     stroke-dasharray="2"
     style="stroke-dasharray:none" />
  <text
     id="LGn4_3_n4_45"
     x="222.5"
     y="265.5"
     fill="#00c800">3</text>
  <path
     id="LGn3_2_n3_47"
     d="m 91.5,260.5 10,-3 c 29,-11 0,-39 -10,-10 l -2,11"
     fill="none"
     stroke="#0000c8"
     stroke-width="1"
     stroke-linecap="square" />
  <text
     id="LGn3_2_n3_48"
     x="117.5"
     y="232.5"
     fill="#0000c8">2</text>
  <path
     id="LGn3_3_n3_49"
     d="m 101.5,279.5 11,2 c 34,2 20,-39 -6,-16 l -7,8"
     fill="none"
     stroke="#00c800"
     stroke-width="2"
     stroke-linecap="butt"
     stroke-dasharray="2"
     style="stroke-dasharray:none" />
  <text
     id="LGn3_3_n3_50"
     x="139.5"
     y="267.5"
     fill="#00c800">3</text>
  <line
     id="LGn5_1_n4_51"
     x1="320.5"
     y1="235.5"
     x2="315.5"
     y2="252.5"
     stroke="#c80000"
     stroke-width="1"
     stroke-linecap="butt"
     stroke-dasharray="5"
     style="stroke-dasharray:none" />
  <text
     id="LGn5_1_n4_52"
     x="299.5"
     y="248.5"
     fill="#c80000">1</text>
  <path
     id="LGn5_2_n5_54"
     d="m 295.5,189.5 -8,-8 c -24,-19 -33,19 -3,13 l 11,-3"
     fill="none"
     stroke="#0000c8"
     stroke-width="1"
     stroke-linecap="square" />
  <text
     id="LGn5_2_n5_55"
     x="249.5"
     y="185.5"
     fill="#0000c8">2</text>
  <path
     id="LGn0_2_n0_57"
     d="m 93.5,74.5 4,10 c 15,27 39,-4 9,-11 l -11,-1"
     fill="none"
     stroke="#0000c8"
     stroke-width="1"
     stroke-linecap="square" />
  <text
     id="LGn0_2_n0_58"
     x="126.5"
     y="105.5"
     fill="#0000c8">2</text>
  <path
     id="LGn4_2_n4_60"
     d="m 278.5,259.5 -2,-11 c -9,-29 -39,-3 -10,10 l 10,3"
     fill="none"
     stroke="#0000c8"
     stroke-width="1"
     stroke-linecap="square" />
  <text
     id="LGn4_2_n4_61"
     x="245.5"
     y="232.5"
     fill="#0000c8">2</text>
  <line
     id="LGn0_0_n1_62"
     x1="103.5"
     y1="49.5"
     x2="265.5"
     y2="49.5"
     stroke="#000000"
     stroke-width="2"
     stroke-linecap="square" />
  <text
     id="LGn0_0_n1_63"
     x="181.5"
     y="69.5"
     fill="#000000">0</text>
  <polygon
     id="0"
     points="376,219 376,207 407,207 407,201 426,213 407,226 407,219 "
     stroke="#000000"
     stroke-width="1"
     stroke-linecap="square"
     fill="#000000"
     transform="translate(37.795061,-43.210388)" />
  <circle
     id="RGn4_0"
     cx="814.5"
     cy="303.5"
     r="33"
     fill="none"
     stroke="#000000"
     stroke-width="1"
     stroke-linecap="square" />
  <text
     id="RGn4_1"
     x="807.5"
     y="305.5"
     fill="#000000">&lt;&gt;</text>
  <rect
     id="RGn4_2"
     x="807.5"
     y="323.5"
     width="15"
     height="17"
     fill="#ffffff" />
  <text
     id="RGn4_3"
     x="808.5"
     y="340.5"
     fill="#000000">n4</text>
  <circle
     id="RGn1_4"
     cx="814.5"
     cy="33.5"
     r="33"
     fill="none"
     stroke="#000000"
     stroke-width="1"
     stroke-linecap="square" />
  <text
     id="RGn1_5"
     x="807.5"
     y="35.5"
     fill="#000000">&lt;&gt;</text>
  <rect
     id="RGn1_6"
     x="807.5"
     y="53.5"
     width="15"
     height="17"
     fill="#ffffff" />
  <text
     id="RGn1_7"
     x="808.5"
     y="70.5"
     fill="#000000">n1</text>
  <circle
     id="RGn2_8"
     cx="544.5"
     cy="213.5"
     r="33"
     fill="none"
     stroke="#000000"
     stroke-width="1"
     stroke-linecap="square" />
  <text
     id="RGn2_9"
     x="537.5"
     y="215.5"
     fill="#000000">&lt;&gt;</text>
  <rect
     id="RGn2_10"
     x="537.5"
     y="233.5"
     width="15"
     height="17"
     fill="#ffffff" />
  <text
     id="RGn2_11"
     x="538.5"
     y="250.5"
     fill="#000000">n2</text>
  <circle
     id="RGn5_12"
     cx="844.5"
     cy="213.5"
     r="33"
     fill="none"
     stroke="#000000"
     stroke-width="1"
     stroke-linecap="square" />
  <text
     id="RGn5_13"
     x="837.5"
     y="215.5"
     fill="#000000">&lt;&gt;</text>
  <rect
     id="RGn5_14"
     x="837.5"
     y="233.5"
     width="15"
     height="17"
     fill="#ffffff" />
  <text
     id="RGn5_15"
     x="838.5"
     y="250.5"
     fill="#000000">n5</text>
  <circle
     id="RGn0_16"
     cx="574.5"
     cy="33.5"
     r="33"
     fill="none"
     stroke="#000000"
     stroke-width="1"
     stroke-linecap="square" />
  <text
     id="RGn0_17"
     x="567.5"
     y="35.5"
     fill="#000000">&lt;&gt;</text>
  <rect
     id="RGn0_18"
     x="567.5"
     y="53.5"
     width="15"
     height="17"
     fill="#ffffff" />
  <text
     id="RGn0_19"
     x="568.5"
     y="70.5"
     fill="#000000">n0</text>
  <circle
     id="RGn3_20"
     cx="574.5"
     cy="303.5"
     r="33"
     fill="none"
     stroke="#000000"
     stroke-width="1"
     stroke-linecap="square" />
  <text
     id="RGn3_21"
     x="567.5"
     y="305.5"
     fill="#000000">&lt;&gt;</text>
  <rect
     id="RGn3_22"
     x="567.5"
     y="323.5"
     width="15"
     height="17"
     fill="#ffffff" />
  <text
     id="RGn3_23"
     x="568.5"
     y="340.5"
     fill="#000000">n3</text>
  <path
     id="RGn4_2_n4_25"
     d="m 784.5,279.5 -4,-10 c -15,-27 -39,5 -9,11 l 11,1"
     fill="none"
     stroke="#0000c8"
     stroke-width="1"
     stroke-linecap="square" />
  <text
     id="RGn4_2_n4_26"
     x="745.5"
     y="258.5"
     fill="#0000c8">2</text>
  <path
     id="RGn4_1_n4_27"
     d="m 798.5,268.5 v -12 c -3,-34 -42,-13 -15,9 l 9,5"
     fill="none"
     stroke="#c80000"
     stroke-width="1"
     stroke-linecap="butt"
     stroke-dasharray="5"
     style="stroke-dasharray:none" />
  <text
     id="RGn4_1_n4_28"
     x="771.5"
     y="235.5"
     fill="#c80000">1</text>
  <path
     id="RGn5_1_n5_29"
     d="m 806.5,207.5 -9,-6 c -31,-16 -34,27 -1,17 l 10,-5"
     fill="none"
     stroke="#c80000"
     stroke-width="1"
     stroke-linecap="butt"
     stroke-dasharray="5"
     style="stroke-dasharray:none" />
  <text
     id="RGn5_1_n5_30"
     x="759.5"
     y="212.5"
     fill="#c80000">1</text>
  <path
     id="RGn3_3_n3_31"
     d="m 611.5,296.5 11,3 c 34,4 22,-38 -5,-17 l -8,8"
     fill="none"
     stroke="#00c800"
     stroke-width="2"
     stroke-linecap="butt"
     stroke-dasharray="2"
     style="stroke-dasharray:none" />
  <text
     id="RGn3_3_n3_32"
     x="650.5"
     y="287.5"
     fill="#00c800">3</text>
  <path
     id="RGn2_1_n2_33"
     d="m 581.5,215.5 10,5 c 32,13 31,-30 -1,-17 l -9,6"
     fill="none"
     stroke="#c80000"
     stroke-width="1"
     stroke-linecap="butt"
     stroke-dasharray="5"
     style="stroke-dasharray:none" />
  <text
     id="RGn2_1_n2_34"
     x="622.5"
     y="217.5"
     fill="#c80000">1</text>
  <path
     id="RGn3_1_n3_35"
     d="m 594.5,270.5 9,-5 c 26,-23 -12,-43 -15,-9 v 12"
     fill="none"
     stroke="#c80000"
     stroke-width="1"
     stroke-linecap="butt"
     stroke-dasharray="5"
     style="stroke-dasharray:none" />
  <text
     id="RGn3_1_n3_36"
     x="608.5"
     y="235.5"
     fill="#c80000">1</text>
  <path
     id="RGn5_3_n5_37"
     d="m 817.5,185.5 -3,-11 c -15,-31 -45,2 -12,13 l 11,2"
     fill="none"
     stroke="#00c800"
     stroke-width="2"
     stroke-linecap="butt"
     stroke-dasharray="2"
     style="stroke-dasharray:none" />
  <text
     id="RGn5_3_n5_38"
     x="779.5"
     y="163.5"
     fill="#00c800">3</text>
  <path
     id="RGn0_3_n0_39"
     d="m 609.5,47.5 7,8 c 27,22 40,-19 6,-16 l -11,2"
     fill="none"
     stroke="#00c800"
     stroke-width="2"
     stroke-linecap="butt"
     stroke-dasharray="2"
     style="stroke-dasharray:none" />
  <text
     id="RGn0_3_n0_40"
     x="650.5"
     y="62.5"
     fill="#00c800">3</text>
  <path
     id="RGn1_2_n1_42"
     d="m 784.5,57.5 -11,2 c -29,9 -2,39 10,10 l 3,-10"
     fill="none"
     stroke="#0000c8"
     stroke-width="1"
     stroke-linecap="square" />
  <text
     id="RGn1_2_n1_43"
     x="749.5"
     y="93.5"
     fill="#0000c8">2</text>
  <path
     id="RGn2_3_n2_44"
     d="m 576.5,193.5 11,-2 c 33,-8 7,-43 -11,-14 l -4,10"
     fill="none"
     stroke="#00c800"
     stroke-width="2"
     stroke-linecap="butt"
     stroke-dasharray="2"
     style="stroke-dasharray:none" />
  <text
     id="RGn2_3_n2_45"
     x="606.5"
     y="168.5"
     fill="#00c800">3</text>
  <path
     id="RGn5_2_n5_47"
     d="m 808.5,197.5 -6,-9 c -21,-23 -36,13 -5,12 l 11,-1"
     fill="none"
     stroke="#0000c8"
     stroke-width="1"
     stroke-linecap="square" />
  <text
     id="RGn5_2_n5_48"
     x="764.5"
     y="186.5"
     fill="#0000c8">2</text>
  <path
     id="RGn2_2_n2_50"
     d="m 580.5,202.5 11,2 c 31,3 18,-33 -4,-12 l -7,8"
     fill="none"
     stroke="#0000c8"
     stroke-width="1"
     stroke-linecap="square" />
  <text
     id="RGn2_2_n2_51"
     x="619.5"
     y="192.5"
     fill="#0000c8">2</text>
  <line
     id="RGn0_0_n1_52"
     x1="612.5"
     y1="33.5"
     x2="776.5"
     y2="33.5"
     stroke="#000000"
     stroke-width="2"
     stroke-linecap="square" />
  <text
     id="RGn0_0_n1_53"
     x="691.5"
     y="53.5"
     fill="#000000">0</text>
  <path
     id="RGn4_3_n4_54"
     d="m 778.5,289.5 -8,-8 c -27,-21 -39,20 -5,16 l 11,-2"
     fill="none"
     stroke="#00c800"
     stroke-width="2"
     stroke-linecap="butt"
     stroke-dasharray="2"
     style="stroke-dasharray:none" />
  <text
     id="RGn4_3_n4_55"
     x="731.5"
     y="285.5"
     fill="#00c800">3</text>
  <path
     id="RGn0_2_n0_57"
     d="m 599.5,60.5 3,11 c 10,28 39,0 10,-10 l -11,-3"
     fill="none"
     stroke="#0000c8"
     stroke-width="1"
     stroke-linecap="square" />
  <text
     id="RGn0_2_n0_58"
     x="628.5"
     y="95.5"
     fill="#0000c8">2</text>
  <line
     id="RGn3_0_n4_59"
     x1="612.5"
     y1="303.5"
     x2="776.5"
     y2="303.5"
     stroke="#000000"
     stroke-width="2"
     stroke-linecap="square" />
  <text
     id="RGn3_0_n4_60"
     x="691.5"
     y="323.5"
     fill="#000000">0</text>
  <path
     id="RGn1_3_n1_61"
     d="m 777.5,43.5 -11,-1 c -35,-1 -19,39 6,15 l 7,-8"
     fill="none"
     stroke="#00c800"
     stroke-width="2"
     stroke-linecap="butt"
     stroke-dasharray="2"
     style="stroke-dasharray:none" />
  <text
     id="RGn1_3_n1_62"
     x="733.5"
     y="66.5"
     fill="#00c800">3</text>
  <path
     id="RGn3_2_n3_64"
     d="m 604.5,279.5 11,-2 c 29,-8 4,-38 -9,-10 l -4,10"
     fill="none"
     stroke="#0000c8"
     stroke-width="1"
     stroke-linecap="square" />
  <text
     id="RGn3_2_n3_65"
     x="634.5"
     y="255.5"
     fill="#0000c8">2</text>
</svg>
