<?xml version="1.0" encoding="UTF-8" standalone="no"?>
<svg
   version="1.1"
   font="Noto Sans Regular"
   font-size="12px"
   width="680"
   height="402.62"
   id="svg3"
   sodipodi:docname="regle-expl-cas-particulier-2.svg"
   inkscape:version="1.3.2 (091e20ef0f, 2023-11-25, custom)"
   xmlns:inkscape="http://www.inkscape.org/namespaces/inkscape"
   xmlns:sodipodi="http://sodipodi.sourceforge.net/DTD/sodipodi-0.dtd"
   xmlns="http://www.w3.org/2000/svg"
   xmlns:svg="http://www.w3.org/2000/svg">
  <defs
     id="defs3" />
  <sodipodi:namedview
     id="namedview3"
     pagecolor="#ffffff"
     bordercolor="#000000"
     borderopacity="0.25"
     inkscape:showpageshadow="2"
     inkscape:pageopacity="0.0"
     inkscape:pagecheckerboard="0"
     inkscape:deskcolor="#d1d1d1"
     showgrid="false"
     inkscape:zoom="0.9371345"
     inkscape:cx="223.02028"
     inkscape:cy="254.49922"
     inkscape:window-width="1892"
     inkscape:window-height="1034"
     inkscape:window-x="9"
     inkscape:window-y="27"
     inkscape:window-maximized="1"
     inkscape:current-layer="svg3" />
  <circle
     id="LGn7_0"
     cx="275.5"
     cy="275.5"
     r="33"
     fill="none"
     stroke="#000000"
     stroke-width="1"
     stroke-linecap="square" />
  <text
     id="LGn7_1"
     x="268.5"
     y="277.5"
     fill="#000000"></text>
  <rect
     id="LGn7_2"
     x="268.5"
     y="295.5"
     width="15"
     height="17"
     fill="#ffffff" />
  <text
     id="LGn7_3"
     x="269.5"
     y="312.5"
     fill="#000000">n7</text>
  <circle
     id="LGn6_4"
     cx="35.5"
     cy="275.5"
     r="33"
     fill="none"
     stroke="#000000"
     stroke-width="1"
     stroke-linecap="square" />
  <text
     id="LGn6_5"
     x="28.5"
     y="277.5"
     fill="#000000"></text>
  <rect
     id="LGn6_6"
     x="28.5"
     y="295.5"
     width="15"
     height="17"
     fill="#ffffff" />
  <text
     id="LGn6_7"
     x="29.5"
     y="312.5"
     fill="#000000">n6</text>
  <circle
     id="LGn5_8"
     cx="275.5"
     cy="125.5"
     r="33"
     fill="none"
     stroke="#000000"
     stroke-width="1"
     stroke-linecap="square" />
  <text
     id="LGn5_9"
     x="268.5"
     y="127.5"
     fill="#000000"></text>
  <rect
     id="LGn5_10"
     x="268.5"
     y="145.5"
     width="15"
     height="17"
     fill="#ffffff" />
  <text
     id="LGn5_11"
     x="269.5"
     y="162.5"
     fill="#000000">n5</text>
  <circle
     id="LGn3_12"
     cx="275.5"
     cy="365.5"
     r="33"
     fill="none"
     stroke="#000000"
     stroke-width="1"
     stroke-linecap="square" />
  <text
     id="LGn3_13"
     x="268.5"
     y="367.5"
     fill="#000000"></text>
  <rect
     id="LGn3_14"
     x="268.5"
     y="385.5"
     width="15"
     height="17"
     fill="#ffffff" />
  <text
     id="LGn3_15"
     x="269.5"
     y="402.5"
     fill="#000000">n3</text>
  <circle
     id="LGn0_16"
     cx="35.5"
     cy="35.5"
     r="33"
     fill="none"
     stroke="#000000"
     stroke-width="1"
     stroke-linecap="square" />
  <circle
     id="LGn0_17"
     cx="35.5"
     cy="35.5"
     r="35"
     fill="none"
     stroke="#000000"
     stroke-width="1"
     stroke-linecap="square" />
  <text
     id="LGn0_18"
     x="28.5"
     y="37.5"
     fill="#000000"></text>
  <rect
     id="LGn0_19"
     x="28.5"
     y="55.5"
     width="15"
     height="17"
     fill="#ffffff" />
  <text
     id="LGn0_20"
     x="29.5"
     y="72.5"
     fill="#000000">n0</text>
  <circle
     id="LGn4_21"
     cx="35.5"
     cy="125.5"
     r="33"
     fill="none"
     stroke="#000000"
     stroke-width="1"
     stroke-linecap="square" />
  <text
     id="LGn4_22"
     x="28.5"
     y="127.5"
     fill="#000000"></text>
  <rect
     id="LGn4_23"
     x="28.5"
     y="145.5"
     width="15"
     height="17"
     fill="#ffffff" />
  <text
     id="LGn4_24"
     x="29.5"
     y="162.5"
     fill="#000000">n4</text>
  <circle
     id="LGn2_25"
     cx="35.5"
     cy="365.5"
     r="33"
     fill="none"
     stroke="#000000"
     stroke-width="1"
     stroke-linecap="square" />
  <circle
     id="LGn2_26"
     cx="35.5"
     cy="365.5"
     r="35"
     fill="none"
     stroke="#000000"
     stroke-width="1"
     stroke-linecap="square" />
  <text
     id="LGn2_27"
     x="28.5"
     y="367.5"
     fill="#000000"></text>
  <rect
     id="LGn2_28"
     x="28.5"
     y="385.5"
     width="15"
     height="17"
     fill="#ffffff" />
  <text
     id="LGn2_29"
     x="29.5"
     y="402.5"
     fill="#000000">n2</text>
  <circle
     id="LGn1_30"
     cx="275.5"
     cy="35.5"
     r="33"
     fill="none"
     stroke="#000000"
     stroke-width="1"
     stroke-linecap="square" />
  <text
     id="LGn1_31"
     x="268.5"
     y="37.5"
     fill="#000000"></text>
  <rect
     id="LGn1_32"
     x="268.5"
     y="55.5"
     width="15"
     height="17"
     fill="#ffffff" />
  <text
     id="LGn1_33"
     x="269.5"
     y="72.5"
     fill="#000000">n1</text>
  <line
     id="LGn4_0_n5_34"
     x1="73.5"
     y1="125.5"
     x2="237.5"
     y2="125.5"
     stroke="#000000"
     stroke-width="2"
     stroke-linecap="square" />
  <text
     id="LGn4_0_n5_35"
     x="152.5"
     y="145.5"
     fill="#000000">0</text>
  <line
     id="LGn4_2_n0_36"
     x1="35.5"
     y1="87.5"
     x2="35.5"
     y2="75.5"
     stroke="#0000c8"
     stroke-width="1"
     stroke-linecap="square" />
  <text
     id="LGn4_2_n0_37"
     x="47.5"
     y="86.5"
     fill="#0000c8">2</text>
  <line
     id="LGn6_0_n7_38"
     x1="73.5"
     y1="275.5"
     x2="237.5"
     y2="275.5"
     stroke="#000000"
     stroke-width="2"
     stroke-linecap="square" />
  <text
     id="LGn6_0_n7_39"
     x="152.5"
     y="295.5"
     fill="#000000">0</text>
  <line
     id="LGn2_2_n6_40"
     x1="35.5"
     y1="325.5"
     x2="35.5"
     y2="313.5"
     stroke="#0000c8"
     stroke-width="1"
     stroke-linecap="square" />
  <text
     id="LGn2_2_n6_41"
     x="47.5"
     y="324.5"
     fill="#0000c8">2</text>
  <line
     id="LGn0_0_n1_42"
     x1="75.5"
     y1="35.5"
     x2="237.5"
     y2="35.5"
     stroke="#000000"
     stroke-width="2"
     stroke-linecap="square" />
  <text
     id="LGn0_0_n1_43"
     x="153.5"
     y="55.5"
     fill="#000000">0</text>
  <line
     id="LGn2_0_n3_44"
     x1="75.5"
     y1="365.5"
     x2="237.5"
     y2="365.5"
     stroke="#000000"
     stroke-width="2"
     stroke-linecap="square" />
  <text
     id="LGn2_0_n3_45"
     x="153.5"
     y="385.5"
     fill="#000000">0</text>
  <line
     id="LGn3_2_n7_46"
     x1="275.5"
     y1="327.5"
     x2="275.5"
     y2="313.5"
     stroke="#0000c8"
     stroke-width="1"
     stroke-linecap="square" />
  <text
     id="LGn3_2_n7_47"
     x="287.5"
     y="325.5"
     fill="#0000c8">2</text>
  <line
     id="LGn1_2_n5_48"
     x1="275.5"
     y1="73.5"
     x2="275.5"
     y2="87.5"
     stroke="#0000c8"
     stroke-width="1"
     stroke-linecap="square" />
  <text
     id="LGn1_2_n5_49"
     x="257.5"
     y="85.5"
     fill="#0000c8">2</text>
  <polygon
     id="0"
     points="349,41 318,41 318,29 349,29 349,23 368,35 349,48 "
     stroke="#000000"
     stroke-width="1"
     stroke-linecap="square"
     fill="#000000"
     transform="translate(0.5,165.78961)" />
  <circle
     id="RGn2_0"
     cx="406.5"
     cy="365.5"
     r="33"
     fill="none"
     stroke="#000000"
     stroke-width="1"
     stroke-linecap="square" />
  <text
     id="RGn2_1"
     x="399.5"
     y="367.5"
     fill="#000000"></text>
  <rect
     id="RGn2_2"
     x="399.5"
     y="385.5"
     width="15"
     height="17"
     fill="#ffffff" />
  <text
     id="RGn2_3"
     x="400.5"
     y="402.5"
     fill="#000000">n2</text>
  <circle
     id="RGn0_4"
     cx="406.5"
     cy="35.5"
     r="33"
     fill="none"
     stroke="#000000"
     stroke-width="1"
     stroke-linecap="square" />
  <text
     id="RGn0_5"
     x="399.5"
     y="37.5"
     fill="#000000"></text>
  <rect
     id="RGn0_6"
     x="399.5"
     y="55.5"
     width="15"
     height="17"
     fill="#ffffff" />
  <text
     id="RGn0_7"
     x="400.5"
     y="72.5"
     fill="#000000">n0</text>
  <circle
     id="RGn1_8"
     cx="646.5"
     cy="35.5"
     r="33"
     fill="none"
     stroke="#000000"
     stroke-width="1"
     stroke-linecap="square" />
  <text
     id="RGn1_9"
     x="639.5"
     y="37.5"
     fill="#000000"></text>
  <rect
     id="RGn1_10"
     x="639.5"
     y="55.5"
     width="15"
     height="17"
     fill="#ffffff" />
  <text
     id="RGn1_11"
     x="640.5"
     y="72.5"
     fill="#000000">n1</text>
  <circle
     id="RGn3_12"
     cx="646.5"
     cy="365.5"
     r="33"
     fill="none"
     stroke="#000000"
     stroke-width="1"
     stroke-linecap="square" />
  <text
     id="RGn3_13"
     x="639.5"
     y="367.5"
     fill="#000000"></text>
  <rect
     id="RGn3_14"
     x="639.5"
     y="385.5"
     width="15"
     height="17"
     fill="#ffffff" />
  <text
     id="RGn3_15"
     x="640.5"
     y="402.5"
     fill="#000000">n3</text>
  <circle
     id="RGn4_16"
     cx="406.5"
     cy="125.5"
     r="33"
     fill="none"
     stroke="#000000"
     stroke-width="1"
     stroke-linecap="square" />
  <text
     id="RGn4_17"
     x="399.5"
     y="127.5"
     fill="#000000"></text>
  <rect
     id="RGn4_18"
     x="399.5"
     y="145.5"
     width="15"
     height="17"
     fill="#ffffff" />
  <text
     id="RGn4_19"
     x="400.5"
     y="162.5"
     fill="#000000">n4</text>
  <circle
     id="RGn6_20"
     cx="406.5"
     cy="275.5"
     r="33"
     fill="none"
     stroke="#000000"
     stroke-width="1"
     stroke-linecap="square" />
  <text
     id="RGn6_21"
     x="399.5"
     y="277.5"
     fill="#000000"></text>
  <rect
     id="RGn6_22"
     x="399.5"
     y="295.5"
     width="15"
     height="17"
     fill="#ffffff" />
  <text
     id="RGn6_23"
     x="400.5"
     y="312.5"
     fill="#000000">n6</text>
  <circle
     id="RGn7_24"
     cx="646.5"
     cy="275.5"
     r="33"
     fill="none"
     stroke="#000000"
     stroke-width="1"
     stroke-linecap="square" />
  <text
     id="RGn7_25"
     x="639.5"
     y="277.5"
     fill="#000000"></text>
  <rect
     id="RGn7_26"
     x="639.5"
     y="295.5"
     width="15"
     height="17"
     fill="#ffffff" />
  <text
     id="RGn7_27"
     x="640.5"
     y="312.5"
     fill="#000000">n7</text>
  <circle
     id="RGn5_28"
     cx="646.5"
     cy="125.5"
     r="33"
     fill="none"
     stroke="#000000"
     stroke-width="1"
     stroke-linecap="square" />
  <text
     id="RGn5_29"
     x="639.5"
     y="127.5"
     fill="#000000"></text>
  <rect
     id="RGn5_30"
     x="639.5"
     y="145.5"
     width="15"
     height="17"
     fill="#ffffff" />
  <text
     id="RGn5_31"
     x="640.5"
     y="162.5"
     fill="#000000">n5</text>
  <line
     id="RGn0_0_n1_32"
     x1="444.5"
     y1="35.5"
     x2="608.5"
     y2="35.5"
     stroke="#000000"
     stroke-width="2"
     stroke-linecap="square" />
  <text
     id="RGn0_0_n1_33"
     x="523.5"
     y="55.5"
     fill="#000000">0</text>
  <path
     id="RGn4_2_n4_35"
     d="m 441.5,111.5 11,1 c 31,2 16,-34 -5,-12 l -6,9"
     fill="none"
     stroke="#0000c8"
     stroke-width="1"
     stroke-linecap="square" />
  <text
     id="RGn4_2_n4_36"
     x="479.5"
     y="99.5"
     fill="#0000c8">2</text>
  <line
     id="RGn6_0_n7_37"
     x1="444.5"
     y1="275.5"
     x2="608.5"
     y2="275.5"
     stroke="#000000"
     stroke-width="2"
     stroke-linecap="square" />
  <text
     id="RGn6_0_n7_38"
     x="523.5"
     y="295.5"
     fill="#000000">0</text>
  <path
     id="RGn6_2_n6_40"
     d="m 441.5,289.5 6,9 c 22,22 36,-14 5,-12 l -11,1"
     fill="none"
     stroke="#0000c8"
     stroke-width="1"
     stroke-linecap="square" />
  <text
     id="RGn6_2_n6_41"
     x="479.5"
     y="309.5"
     fill="#0000c8">2</text>
  <line
     id="RGn4_0_n5_42"
     x1="444.5"
     y1="125.5"
     x2="608.5"
     y2="125.5"
     stroke="#000000"
     stroke-width="2"
     stroke-linecap="square" />
  <text
     id="RGn4_0_n5_43"
     x="523.5"
     y="145.5"
     fill="#000000">0</text>
  <path
     id="RGn1_2_n1_45"
     d="m 610.5,47.5 -11,-2 c -31,-2 -17,34 4,12 l 7,-8"
     fill="none"
     stroke="#0000c8"
     stroke-width="1"
     stroke-linecap="square" />
  <text
     id="RGn1_2_n1_46"
     x="565.5"
     y="68.5"
     fill="#0000c8">2</text>
  <path
     id="RGn5_2_n5_48"
     d="m 611.5,108.5 -6,-9 c -20,-23 -36,13 -5,12 l 11,-1"
     fill="none"
     stroke="#0000c8"
     stroke-width="1"
     stroke-linecap="square" />
  <text
     id="RGn5_2_n5_49"
     x="567.5"
     y="96.5"
     fill="#0000c8">2</text>
  <path
     id="RGn7_2_n7_51"
     d="m 611.5,289.5 -12,-1 c -30,0 -14,36 6,12 l 6,-9"
     fill="none"
     stroke="#0000c8"
     stroke-width="1"
     stroke-linecap="square" />
  <text
     id="RGn7_2_n7_52"
     x="568.5"
     y="313.5"
     fill="#0000c8">2</text>
  <path
     id="RGn0_2_n0_54"
     d="m 441.5,49.5 6,9 c 22,22 36,-15 5,-13 l -11,2"
     fill="none"
     stroke="#0000c8"
     stroke-width="1"
     stroke-linecap="square" />
  <text
     id="RGn0_2_n0_55"
     x="480.5"
     y="68.5"
     fill="#0000c8">2</text>
  <line
     id="RGn2_0_n3_56"
     x1="444.5"
     y1="365.5"
     x2="608.5"
     y2="365.5"
     stroke="#000000"
     stroke-width="2"
     stroke-linecap="square" />
  <text
     id="RGn2_0_n3_57"
     x="523.5"
     y="385.5"
     fill="#000000">0</text>
  <path
     id="RGn2_2_n2_59"
     d="m 440.5,349.5 12,1 c 30,-1 13,-36 -6,-12 l -6,9"
     fill="none"
     stroke="#0000c8"
     stroke-width="1"
     stroke-linecap="square" />
  <text
     id="RGn2_2_n2_60"
     x="477.5"
     y="334.5"
     fill="#0000c8">2</text>
  <path
     id="RGn3_2_n3_62"
     d="m 611.5,347.5 -5,-9 c -20,-24 -37,11 -7,11 h 12"
     fill="none"
     stroke="#0000c8"
     stroke-width="1"
     stroke-linecap="square" />
  <text
     id="RGn3_2_n3_63"
     x="568.5"
     y="334.5"
     fill="#0000c8">2</text>
</svg>
