<?xml version="1.0" encoding="UTF-8" standalone="no"?>
<svg
   version="1.1"
   font="Noto Sans Regular"
   font-size="12px"
   width="620"
   height="402.62"
   id="svg3"
   sodipodi:docname="regle-expl-insertion-arete.svg"
   inkscape:version="1.3.2 (091e20ef0f, 2023-11-25, custom)"
   xmlns:inkscape="http://www.inkscape.org/namespaces/inkscape"
   xmlns:sodipodi="http://sodipodi.sourceforge.net/DTD/sodipodi-0.dtd"
   xmlns="http://www.w3.org/2000/svg"
   xmlns:svg="http://www.w3.org/2000/svg">
  <defs
     id="defs3" />
  <sodipodi:namedview
     id="namedview3"
     pagecolor="#ffffff"
     bordercolor="#000000"
     borderopacity="0.25"
     inkscape:showpageshadow="2"
     inkscape:pageopacity="0.0"
     inkscape:pagecheckerboard="0"
     inkscape:deskcolor="#d1d1d1"
     showgrid="false"
     inkscape:zoom="1.3974359"
     inkscape:cx="312.7156"
     inkscape:cy="210.02752"
     inkscape:window-width="1892"
     inkscape:window-height="1034"
     inkscape:window-x="9"
     inkscape:window-y="27"
     inkscape:window-maximized="1"
     inkscape:current-layer="svg3" />
  <g
     id="g1"
     transform="translate(0.5,0.5)">
    <circle
       id="LGn2_0"
       cx="35"
       cy="365"
       r="33"
       fill="none"
       stroke="#000000"
       stroke-width="1"
       stroke-linecap="square" />
    <circle
       id="LGn2_1"
       cx="35"
       cy="365"
       r="35"
       fill="none"
       stroke="#000000"
       stroke-width="1"
       stroke-linecap="square" />
    <text
       id="LGn2_2"
       x="28"
       y="367"
       fill="#000000"></text>
    <rect
       id="LGn2_3"
       x="28"
       y="385"
       width="15"
       height="17"
       fill="#ffffff" />
    <text
       id="LGn2_4"
       x="29"
       y="402"
       fill="#000000">n2</text>
    <circle
       id="LGn3_5"
       cx="215"
       cy="365"
       r="33"
       fill="none"
       stroke="#000000"
       stroke-width="1"
       stroke-linecap="square" />
    <text
       id="LGn3_6"
       x="208"
       y="367"
       fill="#000000"></text>
    <rect
       id="LGn3_7"
       x="208"
       y="385"
       width="15"
       height="17"
       fill="#ffffff" />
    <text
       id="LGn3_8"
       x="209"
       y="402"
       fill="#000000">n3</text>
    <circle
       id="LGn1_9"
       cx="215"
       cy="35"
       r="33"
       fill="none"
       stroke="#000000"
       stroke-width="1"
       stroke-linecap="square" />
    <text
       id="LGn1_10"
       x="208"
       y="37"
       fill="#000000"></text>
    <rect
       id="LGn1_11"
       x="208"
       y="55"
       width="15"
       height="17"
       fill="#ffffff" />
    <text
       id="LGn1_12"
       x="209"
       y="72"
       fill="#000000">n1</text>
    <circle
       id="LGn0_13"
       cx="35"
       cy="35"
       r="33"
       fill="none"
       stroke="#000000"
       stroke-width="1"
       stroke-linecap="square" />
    <circle
       id="LGn0_14"
       cx="35"
       cy="35"
       r="35"
       fill="none"
       stroke="#000000"
       stroke-width="1"
       stroke-linecap="square" />
    <text
       id="LGn0_15"
       x="28"
       y="37"
       fill="#000000"></text>
    <rect
       id="LGn0_16"
       x="28"
       y="55"
       width="15"
       height="17"
       fill="#ffffff" />
    <text
       id="LGn0_17"
       x="29"
       y="72"
       fill="#000000">n0</text>
    <line
       id="LGn2_1_n3_18"
       x1="75"
       y1="365"
       x2="177"
       y2="365"
       stroke="#c80000"
       stroke-width="1"
       stroke-linecap="butt"
       stroke-dasharray="5" />
    <text
       id="LGn2_1_n3_19"
       x="123"
       y="385"
       fill="#c80000">1</text>
    <path
       id="LGn0_3_n0_20"
       d="m 61,65 2,11 c 14,32 45,1 13,-13 L 65,61"
       fill="none"
       stroke="#00c800"
       stroke-width="2"
       stroke-linecap="butt"
       stroke-dasharray="2" />
    <text
       id="LGn0_3_n0_21"
       x="91"
       y="99"
       fill="#00c800">3</text>
    <path
       id="LGn2_3_n2_22"
       d="m 64,338 11,-2 c 32,-14 0,-45 -13,-13 l -2,11"
       fill="none"
       stroke="#00c800"
       stroke-width="2"
       stroke-linecap="butt"
       stroke-dasharray="2" />
    <text
       id="LGn2_3_n2_23"
       x="90"
       y="309"
       fill="#00c800">3</text>
    <line
       id="LGn0_1_n1_24"
       x1="75"
       y1="35"
       x2="177"
       y2="35"
       stroke="#c80000"
       stroke-width="1"
       stroke-linecap="butt"
       stroke-dasharray="5" />
    <text
       id="LGn0_1_n1_25"
       x="123"
       y="55"
       fill="#c80000">1</text>
    <path
       id="LGn1_3_n1_26"
       d="m 187,60 -11,3 c -31,15 1,44 13,12 l 2,-11"
       fill="none"
       stroke="#00c800"
       stroke-width="2"
       stroke-linecap="butt"
       stroke-dasharray="2" />
    <text
       id="LGn1_3_n1_27"
       x="156"
       y="100"
       fill="#00c800">3</text>
    <path
       id="LGn3_3_n3_28"
       d="m 191,334 -2,-11 c -11,-32 -44,-3 -13,12 l 11,3"
       fill="none"
       stroke="#00c800"
       stroke-width="2"
       stroke-linecap="butt"
       stroke-dasharray="2" />
    <text
       id="LGn3_3_n3_29"
       x="156"
       y="308"
       fill="#00c800">3</text>
  </g>
  <g
     id="g2"
     transform="translate(-2.2049393,165.78961)">
    <polygon
       id="0"
       points="289,48 289,41 258,41 258,29 289,29 289,23 308,35 "
       stroke="#000000"
       stroke-width="1"
       stroke-linecap="square"
       fill="#000000" />
  </g>
  <g
     id="g3"
     transform="translate(0.5,14.5)">
    <circle
       id="RGn5_0"
       cx="526"
       cy="125"
       r="34"
       fill="none"
       stroke="#000000"
       stroke-width="1"
       stroke-linecap="square" />
    <text
       id="RGn5_1"
       x="519"
       y="119"
       fill="#000000"></text>
    <text
       id="RGn5_2"
       x="508"
       y="136"
       fill="#c0c0c0"></text>
    <rect
       id="RGn5_3"
       x="519"
       y="146"
       width="15"
       height="17"
       fill="#ffffff" />
    <text
       id="RGn5_4"
       x="520"
       y="163"
       fill="#000000">n5</text>
    <circle
       id="RGn3_5"
       cx="586"
       cy="335"
       r="33"
       fill="none"
       stroke="#000000"
       stroke-width="1"
       stroke-linecap="square" />
    <text
       id="RGn3_6"
       x="579"
       y="337"
       fill="#000000"></text>
    <rect
       id="RGn3_7"
       x="579"
       y="355"
       width="15"
       height="17"
       fill="#ffffff" />
    <text
       id="RGn3_8"
       x="580"
       y="372"
       fill="#000000">n3</text>
    <circle
       id="RGn0_9"
       cx="346"
       cy="35"
       r="33"
       fill="none"
       stroke="#000000"
       stroke-width="1"
       stroke-linecap="square" />
    <text
       id="RGn0_10"
       x="339"
       y="37"
       fill="#000000"></text>
    <rect
       id="RGn0_11"
       x="339"
       y="55"
       width="15"
       height="17"
       fill="#ffffff" />
    <text
       id="RGn0_12"
       x="340"
       y="72"
       fill="#000000">n0</text>
    <circle
       id="RGn4_13"
       cx="406"
       cy="125"
       r="34"
       fill="none"
       stroke="#000000"
       stroke-width="1"
       stroke-linecap="square" />
    <text
       id="RGn4_14"
       x="399"
       y="119"
       fill="#000000"></text>
    <text
       id="RGn4_15"
       x="388"
       y="136"
       fill="#c0c0c0"></text>
    <rect
       id="RGn4_16"
       x="399"
       y="146"
       width="15"
       height="17"
       fill="#ffffff" />
    <text
       id="RGn4_17"
       x="400"
       y="163"
       fill="#000000">n4</text>
    <circle
       id="RGn7_18"
       cx="526"
       cy="245"
       r="34"
       fill="none"
       stroke="#000000"
       stroke-width="1"
       stroke-linecap="square" />
    <text
       id="RGn7_19"
       x="519"
       y="239"
       fill="#000000"></text>
    <text
       id="RGn7_20"
       x="508"
       y="256"
       fill="#c0c0c0"></text>
    <rect
       id="RGn7_21"
       x="519"
       y="266"
       width="15"
       height="17"
       fill="#ffffff" />
    <text
       id="RGn7_22"
       x="520"
       y="283"
       fill="#000000">n7</text>
    <circle
       id="RGn1_23"
       cx="586"
       cy="35"
       r="33"
       fill="none"
       stroke="#000000"
       stroke-width="1"
       stroke-linecap="square" />
    <text
       id="RGn1_24"
       x="579"
       y="37"
       fill="#000000"></text>
    <rect
       id="RGn1_25"
       x="579"
       y="55"
       width="15"
       height="17"
       fill="#ffffff" />
    <text
       id="RGn1_26"
       x="580"
       y="72"
       fill="#000000">n1</text>
    <circle
       id="RGn2_27"
       cx="346"
       cy="335"
       r="33"
       fill="none"
       stroke="#000000"
       stroke-width="1"
       stroke-linecap="square" />
    <text
       id="RGn2_28"
       x="339"
       y="337"
       fill="#000000"></text>
    <rect
       id="RGn2_29"
       x="339"
       y="355"
       width="15"
       height="17"
       fill="#ffffff" />
    <text
       id="RGn2_30"
       x="340"
       y="372"
       fill="#000000">n2</text>
    <circle
       id="RGn6_31"
       cx="406"
       cy="245"
       r="34"
       fill="none"
       stroke="#000000"
       stroke-width="1"
       stroke-linecap="square" />
    <text
       id="RGn6_32"
       x="399"
       y="239"
       fill="#000000"></text>
    <text
       id="RGn6_33"
       x="388"
       y="256"
       fill="#c0c0c0"></text>
    <rect
       id="RGn6_34"
       x="399"
       y="266"
       width="15"
       height="17"
       fill="#ffffff" />
    <text
       id="RGn6_35"
       x="400"
       y="283"
       fill="#000000">n6</text>
    <line
       id="RGn7_1_n3_36"
       x1="547"
       y1="277"
       x2="564"
       y2="303"
       stroke="#c80000"
       stroke-width="1"
       stroke-linecap="butt"
       stroke-dasharray="5" />
    <text
       id="RGn7_1_n3_37"
       x="552"
       y="295"
       fill="#c80000">1</text>
    <line
       id="RGn5_1_n1_38"
       x1="547"
       y1="92"
       x2="564"
       y2="66"
       stroke="#c80000"
       stroke-width="1"
       stroke-linecap="butt"
       stroke-dasharray="5" />
    <text
       id="RGn5_1_n1_39"
       x="552"
       y="84"
       fill="#c80000">1</text>
    <line
       id="RGn4_2_n5_40"
       x1="445"
       y1="125"
       x2="487"
       y2="125"
       stroke="#0000c8"
       stroke-width="1"
       stroke-linecap="square" />
    <text
       id="RGn4_2_n5_41"
       x="463"
       y="145"
       fill="#0000c8">2</text>
    <line
       id="RGn6_2_n7_42"
       x1="445"
       y1="245"
       x2="487"
       y2="245"
       stroke="#0000c8"
       stroke-width="1"
       stroke-linecap="square" />
    <text
       id="RGn6_2_n7_43"
       x="463"
       y="265"
       fill="#0000c8">2</text>
    <line
       id="RGn4_0_n6_44"
       x1="406"
       y1="164"
       x2="406"
       y2="206"
       stroke="#000000"
       stroke-width="2"
       stroke-linecap="square" />
    <text
       id="RGn4_0_n6_45"
       x="388"
       y="190"
       fill="#000000">0</text>
    <path
       id="RGn4_3_n4_46"
       d="m 431,95 10,-4 C 470,72 434,47 427,80 l -2,11"
       fill="none"
       stroke="#00c800"
       stroke-width="2"
       stroke-linecap="butt"
       stroke-dasharray="2" />
    <text
       id="RGn4_3_n4_47"
       x="451"
       y="62"
       fill="#00c800">3</text>
    <path
       id="RGn3_3_n3_48"
       d="m 548,333 -10,-5 c -32,-12 -31,31 1,17 l 9,-6"
       fill="none"
       stroke="#00c800"
       stroke-width="2"
       stroke-linecap="butt"
       stroke-dasharray="2" />
    <text
       id="RGn3_3_n3_49"
       x="501"
       y="342"
       fill="#00c800">3</text>
    <path
       id="RGn5_3_n5_50"
       d="m 506,91 -2,-11 c -7,-33 -43,-8 -14,11 l 10,4"
       fill="none"
       stroke="#00c800"
       stroke-width="2"
       stroke-linecap="butt"
       stroke-dasharray="2" />
    <text
       id="RGn5_3_n5_51"
       x="474"
       y="62"
       fill="#00c800">3</text>
    <line
       id="RGn6_1_n2_52"
       x1="384"
       y1="277"
       x2="367"
       y2="303"
       stroke="#c80000"
       stroke-width="1"
       stroke-linecap="butt"
       stroke-dasharray="5" />
    <text
       id="RGn6_1_n2_53"
       x="372"
       y="295"
       fill="#c80000">1</text>
    <path
       id="RGn7_3_n7_54"
       d="m 500,274 -10,4 c -29,19 7,44 14,11 l 2,-11"
       fill="none"
       stroke="#00c800"
       stroke-width="2"
       stroke-linecap="butt"
       stroke-dasharray="2" />
    <text
       id="RGn7_3_n7_55"
       x="474"
       y="317"
       fill="#00c800">3</text>
    <line
       id="RGn5_0_n7_56"
       x1="526"
       y1="164"
       x2="526"
       y2="206"
       stroke="#000000"
       stroke-width="2"
       stroke-linecap="square" />
    <text
       id="RGn5_0_n7_57"
       x="508"
       y="190"
       fill="#000000">0</text>
    <path
       id="RGn6_3_n6_58"
       d="m 425,278 2,11 c 7,33 43,8 14,-11 l -10,-4"
       fill="none"
       stroke="#00c800"
       stroke-width="2"
       stroke-linecap="butt"
       stroke-dasharray="2" />
    <text
       id="RGn6_3_n6_59"
       x="451"
       y="317"
       fill="#00c800">3</text>
    <path
       id="RGn0_3_n0_60"
       d="m 383,37 10,5 c 32,12 31,-31 -1,-17 l -9,6"
       fill="none"
       stroke="#00c800"
       stroke-width="2"
       stroke-linecap="butt"
       stroke-dasharray="2" />
    <text
       id="RGn0_3_n0_61"
       x="424"
       y="38"
       fill="#00c800">3</text>
    <path
       id="RGn1_3_n1_62"
       d="m 548,33 -10,-5 c -33,-11 -30,31 1,17 l 9,-6"
       fill="none"
       stroke="#00c800"
       stroke-width="2"
       stroke-linecap="butt"
       stroke-dasharray="2" />
    <text
       id="RGn1_3_n1_63"
       x="501"
       y="43"
       fill="#00c800">3</text>
    <path
       id="RGn2_3_n2_64"
       d="m 383,337 10,5 c 32,13 31,-30 -1,-17 l -9,6"
       fill="none"
       stroke="#00c800"
       stroke-width="2"
       stroke-linecap="butt"
       stroke-dasharray="2" />
    <text
       id="RGn2_3_n2_65"
       x="424"
       y="339"
       fill="#00c800">3</text>
    <line
       id="RGn4_1_n0_66"
       x1="384"
       y1="92"
       x2="367"
       y2="66"
       stroke="#c80000"
       stroke-width="1"
       stroke-linecap="butt"
       stroke-dasharray="5" />
    <text
       id="RGn4_1_n0_67"
       x="372"
       y="84"
       fill="#c80000">1</text>
  </g>
</svg>
