<?xml version="1.0" encoding="UTF-8" standalone="no"?>
<!-- Created with Jerboa -->

<svg
	width="1332"
	height="648" >
	<style id="style">
		.arc0 {
			fill:none;
			fill-rule:evenodd;
			stroke:black;
			stroke-width:4;
			stroke-linecap:round;
			stroke-linejoin:round;
			stroke-opacity:1;
		}
		.arc1 {
			fill:none;
			fill-rule:evenodd;
			stroke:red;
			stroke-width:4;
			stroke-linecap:round;
			stroke-linejoin:round;
			stroke-opacity:1;
		}
		.arc2 {
			fill:none;
			fill-rule:evenodd;
			stroke:blue;
			stroke-width:4;
			stroke-linecap:round;
			stroke-linejoin:round;
			stroke-opacity:1;
		}
		.arc3 {
			fill:none;
			fill-rule:evenodd;
			stroke:green;
			stroke-width:4;
			stroke-linecap:round;
			stroke-linejoin:round;
			stroke-opacity:1;
		}
		.topological-dart {
			fill:#000000;
			stroke:#000000;
			stroke-width:0;
			stroke-linecap:round;
			stroke-linejoin:round;
			stroke-dasharray:none;
			paint-order:markers fill stroke;
		}
	</style>
<polygon
	points="712.4086,371.53128 712.4086,251.13239 664.6594,201.6052 550.6943,203.79526 455.196,205.63043 341.23083,207.82047 293.4816,259.18283 293.4816,379.58173 341.23083,429.10892 455.196,426.91888 550.6943,425.0837 664.6594,422.89368 "
	id="face_2_3_4_74_75_76_70_69_68_7_0_1"
	style="fill:rgb(192,192,192);stroke:none"
	opacity="1.0" />
<line
	class="arc1"
	id="link1_@1_0"
	x1="712.4086"
	y1="371.53128"
	x2="664.6594"
	y2="422.89368" />
<line
	class="arc2"
	id="link1_@2_33"
	x1="712.4086"
	y1="371.53128"
	x2="756.4285"
	y2="372.56534" />
<line
	class="arc0"
	id="link1_@0_2"
	x1="712.4086"
	y1="371.53128"
	x2="712.4086"
	y2="251.13239" />
<line
	class="arc2"
	id="link0_@2_28"
	x1="664.6594"
	y1="422.89368"
	x2="668.8883"
	y2="445.711" />
<line
	class="arc0"
	id="link0_@0_7"
	x1="664.6594"
	y1="422.89368"
	x2="550.6943"
	y2="425.0837" />
<line
	class="arc1"
	id="link2_@1_3"
	x1="712.4086"
	y1="251.13239"
	x2="664.6594"
	y2="201.6052" />
<line
	class="arc2"
	id="link2_@2_38"
	x1="712.4086"
	y1="251.13239"
	x2="756.4285"
	y2="252.16644" />
<polygon
	points="756.4285,372.56534 756.4285,252.16644 766.57794,206.03857 790.80194,216.34192 800.95135,271.1036 800.95135,391.5025 790.80194,437.63037 766.57794,427.32703 "
	id="face_38_39_40_41_36_35_34_33"
	style="fill:rgb(192,192,192);stroke:none"
	opacity="1.0" />
<line
	class="arc1"
	id="link33_@1_34"
	x1="756.4285"
	y1="372.56534"
	x2="766.57794"
	y2="427.32703" />
<line
	class="arc0"
	id="link33_@0_38"
	x1="756.4285"
	y1="372.56534"
	x2="756.4285"
	y2="252.16644" />
<line
	class="arc1"
	id="link38_@1_39"
	x1="756.4285"
	y1="252.16644"
	x2="766.57794"
	y2="206.03857" />
<line
	class="arc2"
	id="link3_@2_43"
	x1="664.6594"
	y1="201.6052"
	x2="668.8883"
	y2="182.38535" />
<line
	class="arc0"
	id="link3_@0_4"
	x1="664.6594"
	y1="201.6052"
	x2="550.6943"
	y2="203.79526" />
<polygon
	points="668.8883,445.711 554.92316,447.90106 459.42493,449.73624 345.45975,451.92627 307.85992,457.16077 332.08395,467.4641 389.9826,470.86346 503.94778,468.6734 599.44604,466.83823 713.4112,464.6482 751.01105,459.4137 726.7869,449.11035 "
	id="face_23_62_63_64_58_57_56_26_31_30_29_28"
	style="fill:rgb(192,192,192);stroke:none"
	opacity="1.0" />
<line
	class="arc1"
	id="link28_@1_29"
	x1="668.8883"
	y1="445.711"
	x2="726.7869"
	y2="449.11035" />
<line
	class="arc0"
	id="link28_@0_23"
	x1="668.8883"
	y1="445.711"
	x2="554.92316"
	y2="447.90106" />
<line
	class="arc1"
	id="link7_@1_68"
	x1="550.6943"
	y1="425.0837"
	x2="455.196"
	y2="426.91888" />
<line
	class="arc2"
	id="link7_@2_23"
	x1="550.6943"
	y1="425.0837"
	x2="554.92316"
	y2="447.90106" />
<polygon
	points="668.8883,182.38535 554.92316,184.57538 459.42493,186.41055 345.45975,188.60062 307.85992,193.83505 332.08395,204.13843 389.9826,207.53775 503.94778,205.34769 599.44604,203.51251 713.4112,201.32248 751.01105,196.08798 726.7869,185.7846 "
	id="face_8_80_81_82_88_87_86_11_46_45_44_43"
	style="fill:rgb(192,192,192);stroke:none"
	opacity="1.0" />
<line
	class="arc1"
	id="link43_@1_44"
	x1="668.8883"
	y1="182.38535"
	x2="726.7869"
	y2="185.7846" />
<line
	class="arc0"
	id="link43_@0_8"
	x1="668.8883"
	y1="182.38535"
	x2="554.92316"
	y2="184.57538" />
<line
	class="arc1"
	id="link23_@1_62"
	x1="554.92316"
	y1="447.90106"
	x2="459.42493"
	y2="449.73624" />
<line
	class="arc1"
	id="link4_@1_74"
	x1="550.6943"
	y1="203.79526"
	x2="455.196"
	y2="205.63043" />
<line
	class="arc2"
	id="link4_@2_8"
	x1="550.6943"
	y1="203.79526"
	x2="554.92316"
	y2="184.57538" />
<line
	class="arc2"
	id="link68_@2_62"
	x1="455.196"
	y1="426.91888"
	x2="459.42493"
	y2="449.73624" />
<line
	class="arc0"
	id="link68_@0_69"
	x1="455.196"
	y1="426.91888"
	x2="341.23083"
	y2="429.10892" />
<line
	class="arc2"
	id="link34_@2_29"
	x1="766.57794"
	y1="427.32703"
	x2="726.7869"
	y2="449.11035" />
<line
	class="arc0"
	id="link34_@0_35"
	x1="766.57794"
	y1="427.32703"
	x2="790.80194"
	y2="437.63037" />
<line
	class="arc0"
	id="link29_@0_30"
	x1="726.7869"
	y1="449.11035"
	x2="751.01105"
	y2="459.4137" />
<line
	class="arc0"
	id="link62_@0_63"
	x1="459.42493"
	y1="449.73624"
	x2="345.45975"
	y2="451.92627" />
<line
	class="arc2"
	id="link74_@2_80"
	x1="455.196"
	y1="205.63043"
	x2="459.42493"
	y2="186.41055" />
<line
	class="arc0"
	id="link74_@0_75"
	x1="455.196"
	y1="205.63043"
	x2="341.23083"
	y2="207.82047" />
<line
	class="arc1"
	id="link8_@1_80"
	x1="554.92316"
	y1="184.57538"
	x2="459.42493"
	y2="186.41055" />
<line
	class="arc2"
	id="link39_@2_44"
	x1="766.57794"
	y1="206.03857"
	x2="726.7869"
	y2="185.7846" />
<line
	class="arc0"
	id="link39_@0_40"
	x1="766.57794"
	y1="206.03857"
	x2="790.80194"
	y2="216.34192" />
<line
	class="arc1"
	id="link69_@1_70"
	x1="341.23083"
	y1="429.10892"
	x2="293.4816"
	y2="379.58173" />
<line
	class="arc2"
	id="link69_@2_63"
	x1="341.23083"
	y1="429.10892"
	x2="345.45975"
	y2="451.92627" />
<line
	class="arc0"
	id="link44_@0_45"
	x1="726.7869"
	y1="185.7846"
	x2="751.01105"
	y2="196.08798" />
<line
	class="arc2"
	id="link70_@2_71"
	x1="293.4816"
	y1="379.58173"
	x2="257.91965"
	y2="382.14508" />
<line
	class="arc0"
	id="link70_@0_76"
	x1="293.4816"
	y1="379.58173"
	x2="293.4816"
	y2="259.18283" />
<line
	class="arc0"
	id="link80_@0_81"
	x1="459.42493"
	y1="186.41055"
	x2="345.45975"
	y2="188.60062" />
<line
	class="arc1"
	id="link63_@1_64"
	x1="345.45975"
	y1="451.92627"
	x2="307.85992"
	y2="457.16077" />
<line
	class="arc1"
	id="link75_@1_76"
	x1="341.23083"
	y1="207.82047"
	x2="293.4816"
	y2="259.18283" />
<line
	class="arc2"
	id="link75_@2_81"
	x1="341.23083"
	y1="207.82047"
	x2="345.45975"
	y2="188.60062" />
<line
	class="arc2"
	id="link76_@2_77"
	x1="293.4816"
	y1="259.18283"
	x2="257.91965"
	y2="261.74622" />
<line
	class="arc1"
	id="link81_@1_82"
	x1="345.45975"
	y1="188.60062"
	x2="307.85992"
	y2="193.83505" />
<polygon
	points="257.91965,382.14508 257.91965,261.74622 268.06906,215.61835 292.2931,225.92166 302.4425,280.68335 302.4425,401.08224 292.2931,447.21014 268.06906,436.9068 "
	id="face_77_83_89_95_53_59_65_71"
	style="fill:rgb(192,192,192);stroke:none"
	opacity="1.0" />
<line
	class="arc1"
	id="link71_@1_65"
	x1="257.91965"
	y1="382.14508"
	x2="268.06906"
	y2="436.9068" />
<line
	class="arc0"
	id="link71_@0_77"
	x1="257.91965"
	y1="382.14508"
	x2="257.91965"
	y2="261.74622" />
<line
	class="arc1"
	id="link77_@1_83"
	x1="257.91965"
	y1="261.74622"
	x2="268.06906"
	y2="215.61835" />
<line
	class="arc2"
	id="link64_@2_65"
	x1="307.85992"
	y1="457.16077"
	x2="268.06906"
	y2="436.9068" />
<line
	class="arc0"
	id="link64_@0_58"
	x1="307.85992"
	y1="457.16077"
	x2="332.08395"
	y2="467.4641" />
<line
	class="arc0"
	id="link65_@0_59"
	x1="268.06906"
	y1="436.9068"
	x2="292.2931"
	y2="447.21014" />
<line
	class="arc1"
	id="link35_@1_36"
	x1="790.80194"
	y1="437.63037"
	x2="800.95135"
	y2="391.5025" />
<line
	class="arc2"
	id="link35_@2_30"
	x1="790.80194"
	y1="437.63037"
	x2="751.01105"
	y2="459.4137" />
<line
	class="arc2"
	id="link82_@2_83"
	x1="307.85992"
	y1="193.83505"
	x2="268.06906"
	y2="215.61835" />
<line
	class="arc0"
	id="link82_@0_88"
	x1="307.85992"
	y1="193.83505"
	x2="332.08395"
	y2="204.13843" />
<line
	class="arc1"
	id="link30_@1_31"
	x1="751.01105"
	y1="459.4137"
	x2="713.4112"
	y2="464.6482" />
<line
	class="arc0"
	id="link83_@0_89"
	x1="268.06906"
	y1="215.61835"
	x2="292.2931"
	y2="225.92166" />
<line
	class="arc1"
	id="link40_@1_41"
	x1="790.80194"
	y1="216.34192"
	x2="800.95135"
	y2="271.1036" />
<line
	class="arc2"
	id="link40_@2_45"
	x1="790.80194"
	y1="216.34192"
	x2="751.01105"
	y2="196.08798" />
<line
	class="arc1"
	id="link45_@1_46"
	x1="751.01105"
	y1="196.08798"
	x2="713.4112"
	y2="201.32248" />
<line
	class="arc2"
	id="link36_@2_37"
	x1="800.95135"
	y1="391.5025"
	x2="765.38934"
	y2="394.06586" />
<line
	class="arc0"
	id="link36_@0_41"
	x1="800.95135"
	y1="391.5025"
	x2="800.95135"
	y2="271.1036" />
<line
	class="arc2"
	id="link41_@2_42"
	x1="800.95135"
	y1="271.1036"
	x2="765.38934"
	y2="273.667" />
<line
	class="arc2"
	id="link31_@2_32"
	x1="713.4112"
	y1="464.6482"
	x2="717.6401"
	y2="445.42822" />
<line
	class="arc0"
	id="link31_@0_26"
	x1="713.4112"
	y1="464.6482"
	x2="599.44604"
	y2="466.83823" />
<polygon
	points="765.38934,394.06586 765.38934,273.667 717.6401,224.13977 603.6749,226.3298 508.17667,228.16498 394.21152,230.35504 346.46225,281.7174 346.46225,402.1163 394.21152,451.6435 508.17667,449.45346 603.6749,447.6183 717.6401,445.42822 "
	id="face_42_47_12_92_93_94_52_51_50_27_32_37"
	style="fill:rgb(192,192,192);stroke:none"
	opacity="1.0" />
<line
	class="arc1"
	id="link37_@1_32"
	x1="765.38934"
	y1="394.06586"
	x2="717.6401"
	y2="445.42822" />
<line
	class="arc0"
	id="link37_@0_42"
	x1="765.38934"
	y1="394.06586"
	x2="765.38934"
	y2="273.667" />
<line
	class="arc0"
	id="link32_@0_27"
	x1="717.6401"
	y1="445.42822"
	x2="603.6749"
	y2="447.6183" />
<line
	class="arc2"
	id="link46_@2_47"
	x1="713.4112"
	y1="201.32248"
	x2="717.6401"
	y2="224.13977" />
<line
	class="arc0"
	id="link46_@0_11"
	x1="713.4112"
	y1="201.32248"
	x2="599.44604"
	y2="203.51251" />
<line
	class="arc1"
	id="link26_@1_56"
	x1="599.44604"
	y1="466.83823"
	x2="503.94778"
	y2="468.6734" />
<line
	class="arc2"
	id="link26_@2_27"
	x1="599.44604"
	y1="466.83823"
	x2="603.6749"
	y2="447.6183" />
<line
	class="arc1"
	id="link42_@1_47"
	x1="765.38934"
	y1="273.667"
	x2="717.6401"
	y2="224.13977" />
<line
	class="arc1"
	id="link58_@1_57"
	x1="332.08395"
	y1="467.4641"
	x2="389.9826"
	y2="470.86346" />
<line
	class="arc2"
	id="link58_@2_59"
	x1="332.08395"
	y1="467.4641"
	x2="292.2931"
	y2="447.21014" />
<line
	class="arc0"
	id="link47_@0_12"
	x1="717.6401"
	y1="224.13977"
	x2="603.6749"
	y2="226.3298" />
<line
	class="arc1"
	id="link59_@1_53"
	x1="292.2931"
	y1="447.21014"
	x2="302.4425"
	y2="401.08224" />
<line
	class="arc2"
	id="link56_@2_50"
	x1="503.94778"
	y1="468.6734"
	x2="508.17667"
	y2="449.45346" />
<line
	class="arc0"
	id="link56_@0_57"
	x1="503.94778"
	y1="468.6734"
	x2="389.9826"
	y2="470.86346" />
<line
	class="arc1"
	id="link27_@1_50"
	x1="603.6749"
	y1="447.6183"
	x2="508.17667"
	y2="449.45346" />
<line
	class="arc1"
	id="link11_@1_86"
	x1="599.44604"
	y1="203.51251"
	x2="503.94778"
	y2="205.34769" />
<line
	class="arc2"
	id="link11_@2_12"
	x1="599.44604"
	y1="203.51251"
	x2="603.6749"
	y2="226.3298" />
<line
	class="arc1"
	id="link88_@1_87"
	x1="332.08395"
	y1="204.13843"
	x2="389.9826"
	y2="207.53775" />
<line
	class="arc2"
	id="link88_@2_89"
	x1="332.08395"
	y1="204.13843"
	x2="292.2931"
	y2="225.92166" />
<line
	class="arc1"
	id="link89_@1_95"
	x1="292.2931"
	y1="225.92166"
	x2="302.4425"
	y2="280.68335" />
<line
	class="arc1"
	id="link12_@1_92"
	x1="603.6749"
	y1="226.3298"
	x2="508.17667"
	y2="228.16498" />
<line
	class="arc0"
	id="link50_@0_51"
	x1="508.17667"
	y1="449.45346"
	x2="394.21152"
	y2="451.6435" />
<line
	class="arc2"
	id="link86_@2_92"
	x1="503.94778"
	y1="205.34769"
	x2="508.17667"
	y2="228.16498" />
<line
	class="arc0"
	id="link86_@0_87"
	x1="503.94778"
	y1="205.34769"
	x2="389.9826"
	y2="207.53775" />
<line
	class="arc2"
	id="link57_@2_51"
	x1="389.9826"
	y1="470.86346"
	x2="394.21152"
	y2="451.6435" />
<line
	class="arc0"
	id="link92_@0_93"
	x1="508.17667"
	y1="228.16498"
	x2="394.21152"
	y2="230.35504" />
<line
	class="arc1"
	id="link51_@1_52"
	x1="394.21152"
	y1="451.6435"
	x2="346.46225"
	y2="402.1163" />
<line
	class="arc2"
	id="link87_@2_93"
	x1="389.9826"
	y1="207.53775"
	x2="394.21152"
	y2="230.35504" />
<line
	class="arc2"
	id="link53_@2_52"
	x1="302.4425"
	y1="401.08224"
	x2="346.46225"
	y2="402.1163" />
<line
	class="arc0"
	id="link53_@0_95"
	x1="302.4425"
	y1="401.08224"
	x2="302.4425"
	y2="280.68335" />
<line
	class="arc2"
	id="link95_@2_94"
	x1="302.4425"
	y1="280.68335"
	x2="346.46225"
	y2="281.7174" />
<line
	class="arc0"
	id="link52_@0_94"
	x1="346.46225"
	y1="402.1163"
	x2="346.46225"
	y2="281.7174" />
<line
	class="arc1"
	id="link93_@1_94"
	x1="394.21152"
	y1="230.35504"
	x2="346.46225"
	y2="281.7174" />
</svg>
