<?xml version="1.0" encoding="UTF-8" standalone="no"?>
<!-- Created with Jerboa -->

<svg
	width="1332"
	height="648" >
	<style id="style">
		.arc0 {
			fill:none;
			fill-rule:evenodd;
			stroke:black;
			stroke-width:4;
			stroke-linecap:round;
			stroke-linejoin:round;
			stroke-opacity:1;
		}
		.arc1 {
			fill:none;
			fill-rule:evenodd;
			stroke:red;
			stroke-width:4;
			stroke-linecap:round;
			stroke-linejoin:round;
			stroke-opacity:1;
		}
		.arc2 {
			fill:none;
			fill-rule:evenodd;
			stroke:blue;
			stroke-width:4;
			stroke-linecap:round;
			stroke-linejoin:round;
			stroke-opacity:1;
		}
		.arc3 {
			fill:none;
			fill-rule:evenodd;
			stroke:green;
			stroke-width:4;
			stroke-linecap:round;
			stroke-linejoin:round;
			stroke-opacity:1;
		}
		.topological-dart {
			fill:#000000;
			stroke:#000000;
			stroke-width:0;
			stroke-linecap:round;
			stroke-linejoin:round;
			stroke-dasharray:none;
			paint-order:markers fill stroke;
		}
	</style>
<polygon
	points="744.2414,370.91956 744.2414,250.52066 696.49225,200.99347 582.52704,203.18353 534.7779,254.5459 534.7779,374.9448 582.52704,424.472 696.49225,422.28192 "
	id="face_2_3_4_5_6_7_0_1"
	style="fill:rgb(192,192,192);stroke:none"
	opacity="1.0" />
<line
	class="arc1"
	id="link1_@1_0"
	x1="744.2414"
	y1="370.91956"
	x2="696.49225"
	y2="422.28192" />
<line
	class="arc2"
	id="link1_@2_33"
	x1="744.2414"
	y1="370.91956"
	x2="768.3658"
	y2="372.33597" />
<line
	class="arc0"
	id="link1_@0_2"
	x1="744.2414"
	y1="370.91956"
	x2="744.2414"
	y2="250.52066" />
<line
	class="arc2"
	id="link0_@2_28"
	x1="696.49225"
	y1="422.28192"
	x2="700.7212"
	y2="445.0993" />
<line
	class="arc0"
	id="link0_@0_7"
	x1="696.49225"
	y1="422.28192"
	x2="582.52704"
	y2="424.472" />
<line
	class="arc1"
	id="link2_@1_3"
	x1="744.2414"
	y1="250.52066"
	x2="696.49225"
	y2="200.99347" />
<line
	class="arc2"
	id="link2_@2_38"
	x1="744.2414"
	y1="250.52066"
	x2="768.3658"
	y2="251.93704" />
<polygon
	points="768.3658,372.33597 768.3658,251.93704 778.5152,205.80917 802.73926,216.11255 812.8887,270.87424 812.8887,391.2731 802.73926,437.40097 778.5152,427.09763 "
	id="face_38_39_40_41_36_35_34_33"
	style="fill:rgb(192,192,192);stroke:none"
	opacity="1.0" />
<line
	class="arc1"
	id="link33_@1_34"
	x1="768.3658"
	y1="372.33597"
	x2="778.5152"
	y2="427.09763" />
<line
	class="arc0"
	id="link33_@0_38"
	x1="768.3658"
	y1="372.33597"
	x2="768.3658"
	y2="251.93704" />
<polygon
	points="700.7212,445.0993 586.756,447.28934 549.1562,452.52383 573.38025,462.82718 631.2789,466.2265 745.24396,464.03644 782.84375,458.80194 758.6197,448.4986 "
	id="face_23_24_25_26_31_30_29_28"
	style="fill:rgb(192,192,192);stroke:none"
	opacity="1.0" />
<line
	class="arc1"
	id="link28_@1_29"
	x1="700.7212"
	y1="445.0993"
	x2="758.6197"
	y2="448.4986" />
<line
	class="arc0"
	id="link28_@0_23"
	x1="700.7212"
	y1="445.0993"
	x2="586.756"
	y2="447.28934" />
<line
	class="arc2"
	id="link3_@2_43"
	x1="696.49225"
	y1="200.99347"
	x2="700.7212"
	y2="181.77362" />
<line
	class="arc0"
	id="link3_@0_4"
	x1="696.49225"
	y1="200.99347"
	x2="582.52704"
	y2="203.18353" />
<line
	class="arc1"
	id="link38_@1_39"
	x1="768.3658"
	y1="251.93704"
	x2="778.5152"
	y2="205.80917" />
<line
	class="arc1"
	id="link7_@1_6"
	x1="582.52704"
	y1="424.472"
	x2="534.7779"
	y2="374.9448" />
<line
	class="arc2"
	id="link7_@2_23"
	x1="582.52704"
	y1="424.472"
	x2="586.756"
	y2="447.28934" />
<line
	class="arc2"
	id="link6_@2_18"
	x1="534.7779"
	y1="374.9448"
	x2="519.1113"
	y2="377.12582" />
<line
	class="arc0"
	id="link6_@0_5"
	x1="534.7779"
	y1="374.9448"
	x2="534.7779"
	y2="254.5459" />
<polygon
	points="700.7212,181.77362 586.756,183.96365 549.1562,189.19812 573.38025,199.50146 631.2789,202.90079 745.24396,200.71075 782.84375,195.47626 758.6197,185.17288 "
	id="face_8_9_10_11_46_45_44_43"
	style="fill:rgb(192,192,192);stroke:none"
	opacity="1.0" />
<line
	class="arc1"
	id="link43_@1_44"
	x1="700.7212"
	y1="181.77362"
	x2="758.6197"
	y2="185.17288" />
<line
	class="arc0"
	id="link43_@0_8"
	x1="700.7212"
	y1="181.77362"
	x2="586.756"
	y2="183.96365" />
<line
	class="arc1"
	id="link4_@1_5"
	x1="582.52704"
	y1="203.18353"
	x2="534.7779"
	y2="254.5459" />
<line
	class="arc2"
	id="link4_@2_8"
	x1="582.52704"
	y1="203.18353"
	x2="586.756"
	y2="183.96365" />
<line
	class="arc1"
	id="link23_@1_24"
	x1="586.756"
	y1="447.28934"
	x2="549.1562"
	y2="452.52383" />
<line
	class="arc2"
	id="link5_@2_13"
	x1="534.7779"
	y1="254.5459"
	x2="519.1113"
	y2="256.7269" />
<polygon
	points="471.11237,376.16824 471.11237,255.76935 423.36313,206.24216 309.3979,208.43219 261.64868,259.79456 261.64868,380.19345 309.3979,429.72064 423.36313,427.53058 "
	id="face_73_74_75_76_70_69_68_67"
	style="fill:rgb(192,192,192);stroke:none"
	opacity="1.0" />
<line
	class="arc1"
	id="link67_@1_68"
	x1="471.11237"
	y1="376.16824"
	x2="423.36313"
	y2="427.53058" />
<line
	class="arc2"
	id="link67_@2_66"
	x1="471.11237"
	y1="376.16824"
	x2="495.23688"
	y2="377.5846" />
<line
	class="arc0"
	id="link67_@0_73"
	x1="471.11237"
	y1="376.16824"
	x2="471.11237"
	y2="255.76935" />
<line
	class="arc2"
	id="link34_@2_29"
	x1="778.5152"
	y1="427.09763"
	x2="758.6197"
	y2="448.4986" />
<line
	class="arc0"
	id="link34_@0_35"
	x1="778.5152"
	y1="427.09763"
	x2="802.73926"
	y2="437.40097" />
<line
	class="arc0"
	id="link29_@0_30"
	x1="758.6197"
	y1="448.4986"
	x2="782.84375"
	y2="458.80194" />
<line
	class="arc2"
	id="link68_@2_62"
	x1="423.36313"
	y1="427.53058"
	x2="427.59207"
	y2="450.34796" />
<line
	class="arc0"
	id="link68_@0_69"
	x1="423.36313"
	y1="427.53058"
	x2="309.3979"
	y2="429.72064" />
<line
	class="arc1"
	id="link73_@1_74"
	x1="471.11237"
	y1="255.76935"
	x2="423.36313"
	y2="206.24216" />
<line
	class="arc2"
	id="link73_@2_72"
	x1="471.11237"
	y1="255.76935"
	x2="495.23688"
	y2="257.1857" />
<polygon
	points="519.1113,377.12582 519.1113,256.7269 529.26074,210.59903 553.4848,220.9024 563.6342,275.6641 563.6342,396.063 553.4848,442.19086 529.26074,431.8875 "
	id="face_13_14_15_16_21_20_19_18"
	style="fill:rgb(192,192,192);stroke:none"
	opacity="1.0" />
<line
	class="arc1"
	id="link18_@1_19"
	x1="519.1113"
	y1="377.12582"
	x2="529.26074"
	y2="431.8875" />
<line
	class="arc3"
	id="link18_@3_66"
	x1="519.1113"
	y1="377.12582"
	x2="495.23688"
	y2="377.5846" />
<line
	class="arc0"
	id="link18_@0_13"
	x1="519.1113"
	y1="377.12582"
	x2="519.1113"
	y2="256.7269" />
<line
	class="arc1"
	id="link8_@1_9"
	x1="586.756"
	y1="183.96365"
	x2="549.1562"
	y2="189.19812" />
<polygon
	points="495.23688,377.5846 495.23688,257.1857 505.3863,211.05783 529.61035,221.3612 539.7597,276.12286 539.7597,396.52176 529.61035,442.64966 505.3863,432.3463 "
	id="face_72_78_84_90_48_54_60_66"
	style="fill:rgb(192,192,192);stroke:none"
	opacity="1.0" />
<line
	class="arc1"
	id="link66_@1_60"
	x1="495.23688"
	y1="377.5846"
	x2="505.3863"
	y2="432.3463" />
<line
	class="arc0"
	id="link66_@0_72"
	x1="495.23688"
	y1="377.5846"
	x2="495.23688"
	y2="257.1857" />
<line
	class="arc2"
	id="link39_@2_44"
	x1="778.5152"
	y1="205.80917"
	x2="758.6197"
	y2="185.17288" />
<line
	class="arc0"
	id="link39_@0_40"
	x1="778.5152"
	y1="205.80917"
	x2="802.73926"
	y2="216.11255" />
<line
	class="arc1"
	id="link13_@1_14"
	x1="519.1113"
	y1="256.7269"
	x2="529.26074"
	y2="210.59903" />
<line
	class="arc3"
	id="link13_@3_72"
	x1="519.1113"
	y1="256.7269"
	x2="495.23688"
	y2="257.1857" />
<polygon
	points="427.59207,450.34796 313.62683,452.53802 276.02704,457.77252 300.25107,468.07587 358.1497,471.47516 472.11493,469.28513 509.71475,464.05063 485.49072,453.74728 "
	id="face_63_64_58_57_56_55_61_62"
	style="fill:rgb(192,192,192);stroke:none"
	opacity="1.0" />
<line
	class="arc1"
	id="link62_@1_61"
	x1="427.59207"
	y1="450.34796"
	x2="485.49072"
	y2="453.74728" />
<line
	class="arc0"
	id="link62_@0_63"
	x1="427.59207"
	y1="450.34796"
	x2="313.62683"
	y2="452.53802" />
<line
	class="arc2"
	id="link74_@2_80"
	x1="423.36313"
	y1="206.24216"
	x2="427.59207"
	y2="187.02228" />
<line
	class="arc0"
	id="link74_@0_75"
	x1="423.36313"
	y1="206.24216"
	x2="309.3979"
	y2="208.43219" />
<line
	class="arc0"
	id="link44_@0_45"
	x1="758.6197"
	y1="185.17288"
	x2="782.84375"
	y2="195.47626" />
<line
	class="arc1"
	id="link72_@1_78"
	x1="495.23688"
	y1="257.1857"
	x2="505.3863"
	y2="211.05783" />
<line
	class="arc1"
	id="link69_@1_70"
	x1="309.3979"
	y1="429.72064"
	x2="261.64868"
	y2="380.19345" />
<line
	class="arc2"
	id="link69_@2_63"
	x1="309.3979"
	y1="429.72064"
	x2="313.62683"
	y2="452.53802" />
<line
	class="arc2"
	id="link70_@2_71"
	x1="261.64868"
	y1="380.19345"
	x2="245.98227"
	y2="382.37448" />
<line
	class="arc0"
	id="link70_@0_76"
	x1="261.64868"
	y1="380.19345"
	x2="261.64868"
	y2="259.79456" />
<polygon
	points="427.59207,187.02228 313.62683,189.21234 276.02704,194.44678 300.25107,204.75015 358.1497,208.14948 472.11493,205.95941 509.71475,200.72491 485.49072,190.42157 "
	id="face_81_82_88_87_86_85_79_80"
	style="fill:rgb(192,192,192);stroke:none"
	opacity="1.0" />
<line
	class="arc1"
	id="link80_@1_79"
	x1="427.59207"
	y1="187.02228"
	x2="485.49072"
	y2="190.42157" />
<line
	class="arc0"
	id="link80_@0_81"
	x1="427.59207"
	y1="187.02228"
	x2="313.62683"
	y2="189.21234" />
<line
	class="arc2"
	id="link24_@2_19"
	x1="549.1562"
	y1="452.52383"
	x2="529.26074"
	y2="431.8875" />
<line
	class="arc0"
	id="link24_@0_25"
	x1="549.1562"
	y1="452.52383"
	x2="573.38025"
	y2="462.82718" />
<line
	class="arc1"
	id="link63_@1_64"
	x1="313.62683"
	y1="452.53802"
	x2="276.02704"
	y2="457.77252" />
<line
	class="arc1"
	id="link75_@1_76"
	x1="309.3979"
	y1="208.43219"
	x2="261.64868"
	y2="259.79456" />
<line
	class="arc2"
	id="link75_@2_81"
	x1="309.3979"
	y1="208.43219"
	x2="313.62683"
	y2="189.21234" />
<line
	class="arc3"
	id="link19_@3_60"
	x1="529.26074"
	y1="431.8875"
	x2="505.3863"
	y2="432.3463" />
<line
	class="arc0"
	id="link19_@0_20"
	x1="529.26074"
	y1="431.8875"
	x2="553.4848"
	y2="442.19086" />
<line
	class="arc2"
	id="link76_@2_77"
	x1="261.64868"
	y1="259.79456"
	x2="245.98227"
	y2="261.97556" />
<line
	class="arc2"
	id="link60_@2_61"
	x1="505.3863"
	y1="432.3463"
	x2="485.49072"
	y2="453.74728" />
<line
	class="arc0"
	id="link60_@0_54"
	x1="505.3863"
	y1="432.3463"
	x2="529.61035"
	y2="442.64966" />
<line
	class="arc0"
	id="link61_@0_55"
	x1="485.49072"
	y1="453.74728"
	x2="509.71475"
	y2="464.05063" />
<polygon
	points="245.98227,382.37448 245.98227,261.97556 256.13168,215.84769 280.3557,226.15106 290.50513,280.91275 290.50513,401.31165 280.3557,447.4395 256.13168,437.13617 "
	id="face_77_83_89_95_53_59_65_71"
	style="fill:rgb(192,192,192);stroke:none"
	opacity="1.0" />
<line
	class="arc1"
	id="link71_@1_65"
	x1="245.98227"
	y1="382.37448"
	x2="256.13168"
	y2="437.13617" />
<line
	class="arc0"
	id="link71_@0_77"
	x1="245.98227"
	y1="382.37448"
	x2="245.98227"
	y2="261.97556" />
<line
	class="arc2"
	id="link9_@2_14"
	x1="549.1562"
	y1="189.19812"
	x2="529.26074"
	y2="210.59903" />
<line
	class="arc0"
	id="link9_@0_10"
	x1="549.1562"
	y1="189.19812"
	x2="573.38025"
	y2="199.50146" />
<line
	class="arc1"
	id="link81_@1_82"
	x1="313.62683"
	y1="189.21234"
	x2="276.02704"
	y2="194.44678" />
<line
	class="arc3"
	id="link14_@3_78"
	x1="529.26074"
	y1="210.59903"
	x2="505.3863"
	y2="211.05783" />
<line
	class="arc0"
	id="link14_@0_15"
	x1="529.26074"
	y1="210.59903"
	x2="553.4848"
	y2="220.9024" />
<line
	class="arc2"
	id="link78_@2_79"
	x1="505.3863"
	y1="211.05783"
	x2="485.49072"
	y2="190.42157" />
<line
	class="arc0"
	id="link78_@0_84"
	x1="505.3863"
	y1="211.05783"
	x2="529.61035"
	y2="221.3612" />
<line
	class="arc1"
	id="link77_@1_83"
	x1="245.98227"
	y1="261.97556"
	x2="256.13168"
	y2="215.84769" />
<line
	class="arc0"
	id="link79_@0_85"
	x1="485.49072"
	y1="190.42157"
	x2="509.71475"
	y2="200.72491" />
<line
	class="arc2"
	id="link64_@2_65"
	x1="276.02704"
	y1="457.77252"
	x2="256.13168"
	y2="437.13617" />
<line
	class="arc0"
	id="link64_@0_58"
	x1="276.02704"
	y1="457.77252"
	x2="300.25107"
	y2="468.07587" />
<line
	class="arc0"
	id="link65_@0_59"
	x1="256.13168"
	y1="437.13617"
	x2="280.3557"
	y2="447.4395" />
<line
	class="arc1"
	id="link35_@1_36"
	x1="802.73926"
	y1="437.40097"
	x2="812.8887"
	y2="391.2731" />
<line
	class="arc2"
	id="link35_@2_30"
	x1="802.73926"
	y1="437.40097"
	x2="782.84375"
	y2="458.80194" />
<line
	class="arc1"
	id="link30_@1_31"
	x1="782.84375"
	y1="458.80194"
	x2="745.24396"
	y2="464.03644" />
<line
	class="arc2"
	id="link82_@2_83"
	x1="276.02704"
	y1="194.44678"
	x2="256.13168"
	y2="215.84769" />
<line
	class="arc0"
	id="link82_@0_88"
	x1="276.02704"
	y1="194.44678"
	x2="300.25107"
	y2="204.75015" />
<line
	class="arc0"
	id="link83_@0_89"
	x1="256.13168"
	y1="215.84769"
	x2="280.3557"
	y2="226.15106" />
<line
	class="arc1"
	id="link40_@1_41"
	x1="802.73926"
	y1="216.11255"
	x2="812.8887"
	y2="270.87424" />
<line
	class="arc2"
	id="link40_@2_45"
	x1="802.73926"
	y1="216.11255"
	x2="782.84375"
	y2="195.47626" />
<line
	class="arc1"
	id="link45_@1_46"
	x1="782.84375"
	y1="195.47626"
	x2="745.24396"
	y2="200.71075" />
<line
	class="arc1"
	id="link25_@1_26"
	x1="573.38025"
	y1="462.82718"
	x2="631.2789"
	y2="466.2265" />
<line
	class="arc2"
	id="link25_@2_20"
	x1="573.38025"
	y1="462.82718"
	x2="553.4848"
	y2="442.19086" />
<line
	class="arc2"
	id="link36_@2_37"
	x1="812.8887"
	y1="391.2731"
	x2="797.2221"
	y2="393.45416" />
<line
	class="arc0"
	id="link36_@0_41"
	x1="812.8887"
	y1="391.2731"
	x2="812.8887"
	y2="270.87424" />
<line
	class="arc1"
	id="link20_@1_21"
	x1="553.4848"
	y1="442.19086"
	x2="563.6342"
	y2="396.063" />
<line
	class="arc3"
	id="link20_@3_54"
	x1="553.4848"
	y1="442.19086"
	x2="529.61035"
	y2="442.64966" />
<line
	class="arc1"
	id="link54_@1_48"
	x1="529.61035"
	y1="442.64966"
	x2="539.7597"
	y2="396.52176" />
<line
	class="arc2"
	id="link54_@2_55"
	x1="529.61035"
	y1="442.64966"
	x2="509.71475"
	y2="464.05063" />
<line
	class="arc2"
	id="link31_@2_32"
	x1="745.24396"
	y1="464.03644"
	x2="749.47296"
	y2="444.81653" />
<line
	class="arc0"
	id="link31_@0_26"
	x1="745.24396"
	y1="464.03644"
	x2="631.2789"
	y2="466.2265" />
<line
	class="arc1"
	id="link55_@1_56"
	x1="509.71475"
	y1="464.05063"
	x2="472.11493"
	y2="469.28513" />
<line
	class="arc2"
	id="link41_@2_42"
	x1="812.8887"
	y1="270.87424"
	x2="797.2221"
	y2="273.05527" />
<line
	class="arc1"
	id="link10_@1_11"
	x1="573.38025"
	y1="199.50146"
	x2="631.2789"
	y2="202.90079" />
<line
	class="arc2"
	id="link10_@2_15"
	x1="573.38025"
	y1="199.50146"
	x2="553.4848"
	y2="220.9024" />
<line
	class="arc1"
	id="link15_@1_16"
	x1="553.4848"
	y1="220.9024"
	x2="563.6342"
	y2="275.6641" />
<line
	class="arc3"
	id="link15_@3_84"
	x1="553.4848"
	y1="220.9024"
	x2="529.61035"
	y2="221.3612" />
<polygon
	points="797.2221,393.45416 797.2221,273.05527 749.47296,223.52805 635.50775,225.71808 587.75854,277.0805 587.75854,397.47937 635.50775,447.00656 749.47296,444.81653 "
	id="face_42_47_12_17_22_27_32_37"
	style="fill:rgb(192,192,192);stroke:none"
	opacity="1.0" />
<line
	class="arc1"
	id="link37_@1_32"
	x1="797.2221"
	y1="393.45416"
	x2="749.47296"
	y2="444.81653" />
<line
	class="arc0"
	id="link37_@0_42"
	x1="797.2221"
	y1="393.45416"
	x2="797.2221"
	y2="273.05527" />
<line
	class="arc1"
	id="link84_@1_90"
	x1="529.61035"
	y1="221.3612"
	x2="539.7597"
	y2="276.12286" />
<line
	class="arc2"
	id="link84_@2_85"
	x1="529.61035"
	y1="221.3612"
	x2="509.71475"
	y2="200.72491" />
<line
	class="arc0"
	id="link32_@0_27"
	x1="749.47296"
	y1="444.81653"
	x2="635.50775"
	y2="447.00656" />
<line
	class="arc2"
	id="link46_@2_47"
	x1="745.24396"
	y1="200.71075"
	x2="749.47296"
	y2="223.52805" />
<line
	class="arc0"
	id="link46_@0_11"
	x1="745.24396"
	y1="200.71075"
	x2="631.2789"
	y2="202.90079" />
<line
	class="arc1"
	id="link85_@1_86"
	x1="509.71475"
	y1="200.72491"
	x2="472.11493"
	y2="205.95941" />
<line
	class="arc2"
	id="link26_@2_27"
	x1="631.2789"
	y1="466.2265"
	x2="635.50775"
	y2="447.00656" />
<line
	class="arc1"
	id="link42_@1_47"
	x1="797.2221"
	y1="273.05527"
	x2="749.47296"
	y2="223.52805" />
<line
	class="arc0"
	id="link47_@0_12"
	x1="749.47296"
	y1="223.52805"
	x2="635.50775"
	y2="225.71808" />
<line
	class="arc2"
	id="link21_@2_22"
	x1="563.6342"
	y1="396.063"
	x2="587.75854"
	y2="397.47937" />
<line
	class="arc3"
	id="link21_@3_48"
	x1="563.6342"
	y1="396.063"
	x2="539.7597"
	y2="396.52176" />
<line
	class="arc0"
	id="link21_@0_16"
	x1="563.6342"
	y1="396.063"
	x2="563.6342"
	y2="275.6641" />
<line
	class="arc1"
	id="link58_@1_57"
	x1="300.25107"
	y1="468.07587"
	x2="358.1497"
	y2="471.47516" />
<line
	class="arc2"
	id="link58_@2_59"
	x1="300.25107"
	y1="468.07587"
	x2="280.3557"
	y2="447.4395" />
<line
	class="arc1"
	id="link27_@1_22"
	x1="635.50775"
	y1="447.00656"
	x2="587.75854"
	y2="397.47937" />
<line
	class="arc2"
	id="link11_@2_12"
	x1="631.2789"
	y1="202.90079"
	x2="635.50775"
	y2="225.71808" />
<line
	class="arc2"
	id="link48_@2_49"
	x1="539.7597"
	y1="396.52176"
	x2="524.0931"
	y2="398.70282" />
<line
	class="arc0"
	id="link48_@0_90"
	x1="539.7597"
	y1="396.52176"
	x2="539.7597"
	y2="276.12286" />
<line
	class="arc1"
	id="link59_@1_53"
	x1="280.3557"
	y1="447.4395"
	x2="290.50513"
	y2="401.31165" />
<line
	class="arc2"
	id="link16_@2_17"
	x1="563.6342"
	y1="275.6641"
	x2="587.75854"
	y2="277.0805" />
<line
	class="arc3"
	id="link16_@3_90"
	x1="563.6342"
	y1="275.6641"
	x2="539.7597"
	y2="276.12286" />
<line
	class="arc2"
	id="link56_@2_50"
	x1="472.11493"
	y1="469.28513"
	x2="476.3438"
	y2="450.0652" />
<line
	class="arc0"
	id="link56_@0_57"
	x1="472.11493"
	y1="469.28513"
	x2="358.1497"
	y2="471.47516" />
<line
	class="arc2"
	id="link90_@2_91"
	x1="539.7597"
	y1="276.12286"
	x2="524.0931"
	y2="278.30392" />
<line
	class="arc0"
	id="link22_@0_17"
	x1="587.75854"
	y1="397.47937"
	x2="587.75854"
	y2="277.0805" />
<line
	class="arc1"
	id="link12_@1_17"
	x1="635.50775"
	y1="225.71808"
	x2="587.75854"
	y2="277.0805" />
<line
	class="arc1"
	id="link88_@1_87"
	x1="300.25107"
	y1="204.75015"
	x2="358.1497"
	y2="208.14948" />
<line
	class="arc2"
	id="link88_@2_89"
	x1="300.25107"
	y1="204.75015"
	x2="280.3557"
	y2="226.15106" />
<line
	class="arc1"
	id="link89_@1_95"
	x1="280.3557"
	y1="226.15106"
	x2="290.50513"
	y2="280.91275" />
<polygon
	points="524.0931,398.70282 524.0931,278.30392 476.3438,228.7767 362.37857,230.96677 314.62936,282.32916 314.62936,402.72803 362.37857,452.25525 476.3438,450.0652 "
	id="face_91_92_93_94_52_51_50_49"
	style="fill:rgb(192,192,192);stroke:none"
	opacity="1.0" />
<line
	class="arc1"
	id="link49_@1_50"
	x1="524.0931"
	y1="398.70282"
	x2="476.3438"
	y2="450.0652" />
<line
	class="arc0"
	id="link49_@0_91"
	x1="524.0931"
	y1="398.70282"
	x2="524.0931"
	y2="278.30392" />
<line
	class="arc0"
	id="link50_@0_51"
	x1="476.3438"
	y1="450.0652"
	x2="362.37857"
	y2="452.25525" />
<line
	class="arc2"
	id="link86_@2_92"
	x1="472.11493"
	y1="205.95941"
	x2="476.3438"
	y2="228.7767" />
<line
	class="arc0"
	id="link86_@0_87"
	x1="472.11493"
	y1="205.95941"
	x2="358.1497"
	y2="208.14948" />
<line
	class="arc2"
	id="link57_@2_51"
	x1="358.1497"
	y1="471.47516"
	x2="362.37857"
	y2="452.25525" />
<line
	class="arc1"
	id="link91_@1_92"
	x1="524.0931"
	y1="278.30392"
	x2="476.3438"
	y2="228.7767" />
<line
	class="arc0"
	id="link92_@0_93"
	x1="476.3438"
	y1="228.7767"
	x2="362.37857"
	y2="230.96677" />
<line
	class="arc2"
	id="link53_@2_52"
	x1="290.50513"
	y1="401.31165"
	x2="314.62936"
	y2="402.72803" />
<line
	class="arc0"
	id="link53_@0_95"
	x1="290.50513"
	y1="401.31165"
	x2="290.50513"
	y2="280.91275" />
<line
	class="arc1"
	id="link51_@1_52"
	x1="362.37857"
	y1="452.25525"
	x2="314.62936"
	y2="402.72803" />
<line
	class="arc2"
	id="link87_@2_93"
	x1="358.1497"
	y1="208.14948"
	x2="362.37857"
	y2="230.96677" />
<line
	class="arc2"
	id="link95_@2_94"
	x1="290.50513"
	y1="280.91275"
	x2="314.62936"
	y2="282.32916" />
<line
	class="arc0"
	id="link52_@0_94"
	x1="314.62936"
	y1="402.72803"
	x2="314.62936"
	y2="282.32916" />
<line
	class="arc1"
	id="link93_@1_94"
	x1="362.37857"
	y1="230.96677"
	x2="314.62936"
	y2="282.32916" />
</svg>
