<?xml version="1.0" encoding="UTF-8" standalone="no"?>
<!-- Created with Jerboa -->

<svg
   width="646.94086"
   height="657.09674"
   version="1.1"
   id="svg1"
   sodipodi:docname="boucle-exemple-edit.svg"
   inkscape:version="1.4 (e7c3feb100, 2024-10-09)"
   xmlns:inkscape="http://www.inkscape.org/namespaces/inkscape"
   xmlns:sodipodi="http://sodipodi.sourceforge.net/DTD/sodipodi-0.dtd"
   xmlns="http://www.w3.org/2000/svg"
   xmlns:svg="http://www.w3.org/2000/svg">
  <defs
     id="defs1" />
  <sodipodi:namedview
     id="namedview1"
     pagecolor="#ffffff"
     bordercolor="#666666"
     borderopacity="1.0"
     inkscape:showpageshadow="2"
     inkscape:pageopacity="0.0"
     inkscape:pagecheckerboard="0"
     inkscape:deskcolor="#d1d1d1"
     showgrid="false"
     inkscape:zoom="0.92584009"
     inkscape:cx="325.65019"
     inkscape:cy="314.84919"
     inkscape:window-width="1896"
     inkscape:window-height="986"
     inkscape:window-x="20"
     inkscape:window-y="20"
     inkscape:window-maximized="0"
     inkscape:current-layer="svg1" />
  <style
     id="style">
		.arc0 {
			fill:none;
			fill-rule:evenodd;
			stroke:black;
			stroke-width:4;
			stroke-linecap:round;
			stroke-linejoin:round;
			stroke-opacity:1;
		}
		.arc1 {
			fill:none;
			fill-rule:evenodd;
			stroke:red;
			stroke-width:4;
			stroke-linecap:round;
			stroke-linejoin:round;
			stroke-opacity:1;
		}
		.arc2 {
			fill:none;
			fill-rule:evenodd;
			stroke:blue;
			stroke-width:4;
			stroke-linecap:round;
			stroke-linejoin:round;
			stroke-opacity:1;
		}
		.arc3 {
			fill:none;
			fill-rule:evenodd;
			stroke:green;
			stroke-width:4;
			stroke-linecap:round;
			stroke-linejoin:round;
			stroke-opacity:1;
		}
		.topological-dart {
			fill:#000000;
			stroke:#000000;
			stroke-width:0;
			stroke-linecap:round;
			stroke-linejoin:round;
			stroke-dasharray:none;
			paint-order:markers fill stroke;
		}
	</style>
  <polygon
     points="379.8015,147.57751 446.9241,221.97644 517.42816,221.97644 629.2993,147.57758 602.8602,118.27252 423.86655,118.27252 "
     id="face_18_70_71_57_56_5"
     style="fill:#c0c0c0;stroke:none"
     opacity="1"
     transform="translate(-2.9635081,-116.2724)" />
  <line
     class="arc1"
     id="link5_@1_56"
     x1="599.89673"
     y1="2.0001221"
     x2="626.33582"
     y2="31.305176" />
  <line
     class="arc0"
     id="link5_@0_18"
     x1="599.89673"
     y1="2.0001221"
     x2="420.90305"
     y2="2.0001221" />
  <polygon
     points="273.0664,147.57751 205.94379,221.97638 135.43977,221.97638 23.56876,147.57745 50.007767,118.2724 229.0014,118.27246 "
     id="face_15_44_45_43_42_6"
     style="fill:#c0c0c0;stroke:none"
     opacity="1"
     transform="translate(-2.9635081,-116.2724)" />
  <line
     class="arc1"
     id="link6_@1_42"
     x1="47.044258"
     y1="2"
     x2="20.605251"
     y2="31.305054" />
  <line
     class="arc0"
     id="link6_@0_15"
     x1="47.044258"
     y1="2"
     x2="226.0379"
     y2="2.000061" />
  <line
     class="arc1"
     id="link15_@1_44"
     x1="226.0379"
     y1="2.000061"
     x2="270.10291"
     y2="31.305115" />
  <line
     class="arc1"
     id="link18_@1_70"
     x1="420.90305"
     y1="2.0001221"
     x2="376.83801"
     y2="31.305115" />
  <polygon
     points="160.89952,311.84552 138.52533,416.004 94.46032,386.6988 4.963508,208.14136 13.776524,167.11407 125.64754,241.51318 "
     id="face_41_55_54_12_7_40"
     style="fill:#c0c0c0;stroke:none"
     opacity="1"
     transform="translate(-2.9635081,-116.2724)" />
  <line
     class="arc1"
     id="link40_@1_7"
     x1="10.813016"
     y1="50.841675"
     x2="2"
     y2="91.868958" />
  <line
     class="arc2"
     id="link40_@2_42"
     x1="10.813016"
     y1="50.841675"
     x2="20.605251"
     y2="31.305054" />
  <line
     class="arc0"
     id="link40_@0_41"
     x1="10.813016"
     y1="50.841675"
     x2="122.68403"
     y2="125.24078" />
  <line
     class="arc0"
     id="link42_@0_43"
     x1="20.605251"
     y1="31.305054"
     x2="132.47627"
     y2="105.70398" />
  <line
     class="arc2"
     id="link44_@2_46"
     x1="270.10291"
     y1="31.305115"
     x2="289.68738"
     y2="44.329468" />
  <line
     class="arc0"
     id="link44_@0_45"
     x1="270.10291"
     y1="31.305115"
     x2="202.98029"
     y2="105.70398" />
  <polygon
     points="225.5282,281.88898 292.65085,326.52844 319.08984,297.2234 319.08987,178.185 292.65088,160.60187 225.52821,235.00085 "
     id="face_47_49_48_16_17_46"
     style="fill:#c0c0c0;stroke:none"
     opacity="1"
     transform="translate(-2.9635081,-116.2724)" />
  <line
     class="arc1"
     id="link46_@1_17"
     x1="289.68738"
     y1="44.329468"
     x2="316.12637"
     y2="61.912598" />
  <line
     class="arc0"
     id="link46_@0_47"
     x1="289.68738"
     y1="44.329468"
     x2="222.56471"
     y2="118.72845" />
  <line
     class="arc2"
     id="link56_@2_58"
     x1="626.33582"
     y1="31.305176"
     x2="636.12805"
     y2="50.841797" />
  <line
     class="arc0"
     id="link56_@0_57"
     x1="626.33582"
     y1="31.305176"
     x2="514.46466"
     y2="105.70404" />
  <polygon
     points="491.96838,311.84558 514.3426,416.00406 558.4076,386.6989 647.90436,208.14148 639.09155,167.1142 527.2204,241.51324 "
     id="face_59_61_60_21_4_58"
     style="fill:#c0c0c0;stroke:none"
     opacity="1"
     transform="translate(-2.9635081,-116.2724)" />
  <line
     class="arc1"
     id="link58_@1_4"
     x1="636.12805"
     y1="50.841797"
     x2="644.94086"
     y2="91.86908" />
  <line
     class="arc0"
     id="link58_@0_59"
     x1="636.12805"
     y1="50.841797"
     x2="524.2569"
     y2="125.24084" />
  <polygon
     points="427.33966,281.88904 360.21707,326.52844 333.77805,297.2234 333.77808,178.185 360.21713,160.60187 427.33966,235.00092 "
     id="face_69_67_66_19_20_68"
     style="fill:#c0c0c0;stroke:none"
     opacity="1"
     transform="translate(-2.9635081,-116.2724)" />
  <line
     class="arc1"
     id="link68_@1_20"
     x1="357.25363"
     y1="44.329468"
     x2="330.81458"
     y2="61.912598" />
  <line
     class="arc2"
     id="link68_@2_70"
     x1="357.25363"
     y1="44.329468"
     x2="376.83801"
     y2="31.305115" />
  <line
     class="arc0"
     id="link68_@0_69"
     x1="357.25363"
     y1="44.329468"
     x2="424.37616"
     y2="118.72852" />
  <line
     class="arc0"
     id="link70_@0_71"
     x1="376.83801"
     y1="31.305115"
     x2="443.9606"
     y2="105.70404" />
  <line
     class="arc0"
     id="link4_@0_21"
     x1="644.94086"
     y1="91.86908"
     x2="555.44409"
     y2="270.42651" />
  <line
     class="arc0"
     id="link7_@0_12"
     x1="2"
     y1="91.868958"
     x2="91.496811"
     y2="270.42639" />
  <line
     class="arc2"
     id="link17_@2_20"
     x1="316.12637"
     y1="61.912598"
     x2="330.81458"
     y2="61.912598" />
  <line
     class="arc0"
     id="link17_@0_16"
     x1="316.12637"
     y1="61.912598"
     x2="316.12634"
     y2="180.95099" />
  <line
     class="arc0"
     id="link20_@0_19"
     x1="330.81458"
     y1="61.912598"
     x2="330.81454"
     y2="180.95099" />
  <line
     class="arc1"
     id="link41_@1_55"
     x1="122.68403"
     y1="125.24078"
     x2="157.93602"
     y2="195.57312" />
  <line
     class="arc2"
     id="link41_@2_43"
     x1="122.68403"
     y1="125.24078"
     x2="132.47627"
     y2="105.70398" />
  <line
     class="arc1"
     id="link43_@1_45"
     x1="132.47627"
     y1="105.70398"
     x2="202.98029"
     y2="105.70398" />
  <line
     class="arc2"
     id="link45_@2_47"
     x1="202.98029"
     y1="105.70398"
     x2="222.56471"
     y2="118.72845" />
  <line
     class="arc1"
     id="link47_@1_49"
     x1="222.56471"
     y1="118.72845"
     x2="222.5647"
     y2="165.61658" />
  <line
     class="arc1"
     id="link57_@1_71"
     x1="514.46466"
     y1="105.70404"
     x2="443.9606"
     y2="105.70404" />
  <line
     class="arc2"
     id="link57_@2_59"
     x1="514.46466"
     y1="105.70404"
     x2="524.2569"
     y2="125.24084" />
  <line
     class="arc1"
     id="link59_@1_61"
     x1="524.2569"
     y1="125.24084"
     x2="489.00488"
     y2="195.57318" />
  <line
     class="arc1"
     id="link69_@1_67"
     x1="424.37616"
     y1="118.72852"
     x2="424.37616"
     y2="165.61664" />
  <line
     class="arc2"
     id="link69_@2_71"
     x1="424.37616"
     y1="118.72852"
     x2="443.9606"
     y2="105.70404" />
  <line
     class="arc1"
     id="link16_@1_48"
     x1="316.12634"
     y1="180.95099"
     x2="289.68735"
     y2="210.25604" />
  <line
     class="arc2"
     id="link16_@2_19"
     x1="316.12634"
     y1="180.95099"
     x2="330.81454"
     y2="180.95099" />
  <line
     class="arc1"
     id="link19_@1_66"
     x1="330.81454"
     y1="180.95099"
     x2="357.25357"
     y2="210.25604" />
  <line
     class="arc2"
     id="link49_@2_51"
     x1="222.5647"
     y1="165.61658"
     x2="212.77248"
     y2="185.15332" />
  <line
     class="arc0"
     id="link49_@0_48"
     x1="222.5647"
     y1="165.61658"
     x2="289.68735"
     y2="210.25604" />
  <polygon
     points="274.0456,387.0924 184.54875,446.61154 158.10979,429.0284 180.48393,324.86993 215.73598,301.42572 282.8586,346.06512 "
     id="face_50_13_14_52_53_51"
     style="fill:#c0c0c0;stroke:none"
     opacity="1"
     transform="translate(-2.9635081,-116.2724)" />
  <line
     class="arc1"
     id="link51_@1_53"
     x1="212.77248"
     y1="185.15332"
     x2="177.52043"
     y2="208.59753" />
  <line
     class="arc0"
     id="link51_@0_50"
     x1="212.77248"
     y1="185.15332"
     x2="279.89511"
     y2="229.79272" />
  <line
     class="arc2"
     id="link55_@2_53"
     x1="157.93602"
     y1="195.57312"
     x2="177.52043"
     y2="208.59753" />
  <line
     class="arc0"
     id="link55_@0_54"
     x1="157.93602"
     y1="195.57312"
     x2="135.56183"
     y2="299.7316" />
  <line
     class="arc2"
     id="link61_@2_63"
     x1="489.00488"
     y1="195.57318"
     x2="469.42044"
     y2="208.5976" />
  <line
     class="arc0"
     id="link61_@0_60"
     x1="489.00488"
     y1="195.57318"
     x2="511.37909"
     y2="299.73166" />
  <polygon
     points="378.82236,387.0924 468.31906,446.61157 494.75815,429.02847 472.38394,324.87 437.13184,301.42578 370.0093,346.06512 "
     id="face_64_22_23_62_63_65"
     style="fill:#c0c0c0;stroke:none"
     opacity="1"
     transform="translate(-2.9635081,-116.2724)" />
  <line
     class="arc1"
     id="link65_@1_63"
     x1="434.16833"
     y1="185.15338"
     x2="469.42044"
     y2="208.5976" />
  <line
     class="arc2"
     id="link65_@2_67"
     x1="434.16833"
     y1="185.15338"
     x2="424.37616"
     y2="165.61664" />
  <line
     class="arc0"
     id="link65_@0_64"
     x1="434.16833"
     y1="185.15338"
     x2="367.04581"
     y2="229.79272" />
  <line
     class="arc0"
     id="link67_@0_66"
     x1="424.37616"
     y1="165.61664"
     x2="357.25357"
     y2="210.25604" />
  <line
     class="arc2"
     id="link48_@2_50"
     x1="289.68735"
     y1="210.25604"
     x2="279.89511"
     y2="229.79272" />
  <line
     class="arc1"
     id="link50_@1_13"
     x1="279.89511"
     y1="229.79272"
     x2="271.08209"
     y2="270.82001" />
  <line
     class="arc0"
     id="link53_@0_52"
     x1="177.52043"
     y1="208.59753"
     x2="155.14629"
     y2="312.75601" />
  <line
     class="arc0"
     id="link63_@0_62"
     x1="469.42044"
     y1="208.5976"
     x2="491.79465"
     y2="312.75607" />
  <line
     class="arc1"
     id="link64_@1_22"
     x1="367.04581"
     y1="229.79272"
     x2="375.85886"
     y2="270.82001" />
  <line
     class="arc2"
     id="link64_@2_66"
     x1="367.04581"
     y1="229.79272"
     x2="357.25357"
     y2="210.25604" />
  <polygon
     points="460.97498,496.43036 371.4782,526.18994 336.2261,502.74582 336.2261,413.46704 371.47824,401.74503 460.97498,461.26416 "
     id="face_8_36_37_35_34_2"
     style="fill:#c0c0c0;stroke:none"
     opacity="1"
     transform="translate(-2.9635081,-116.2724)" />
  <line
     class="arc1"
     id="link2_@1_34"
     x1="368.51474"
     y1="285.47263"
     x2="333.2626"
     y2="297.19464" />
  <line
     class="arc2"
     id="link2_@2_22"
     x1="368.51474"
     y1="285.47263"
     x2="375.85886"
     y2="270.82001" />
  <line
     class="arc0"
     id="link2_@0_8"
     x1="368.51474"
     y1="285.47263"
     x2="458.01147"
     y2="344.99176" />
  <polygon
     points="191.89293,496.43033 281.38965,526.18994 316.64166,502.7458 316.64166,413.46704 281.38968,401.74503 191.89294,461.26413 "
     id="face_11_30_31_33_32_10"
     style="fill:#c0c0c0;stroke:none"
     opacity="1"
     transform="translate(-2.9635081,-116.2724)" />
  <line
     class="arc1"
     id="link10_@1_32"
     x1="278.42618"
     y1="285.47263"
     x2="313.67816"
     y2="297.19464" />
  <line
     class="arc2"
     id="link10_@2_13"
     x1="278.42618"
     y1="285.47263"
     x2="271.08209"
     y2="270.82001" />
  <line
     class="arc0"
     id="link10_@0_11"
     x1="278.42618"
     y1="285.47263"
     x2="188.92944"
     y2="344.99173" />
  <line
     class="arc1"
     id="link12_@1_54"
     x1="91.496811"
     y1="270.42639"
     x2="135.56183"
     y2="299.7316" />
  <line
     class="arc0"
     id="link13_@0_14"
     x1="271.08209"
     y1="270.82001"
     x2="181.58525"
     y2="330.33914" />
  <line
     class="arc1"
     id="link21_@1_60"
     x1="555.44409"
     y1="270.42651"
     x2="511.37909"
     y2="299.73166" />
  <line
     class="arc0"
     id="link22_@0_23"
     x1="375.85886"
     y1="270.82001"
     x2="465.35556"
     y2="330.33917" />
  <line
     class="arc2"
     id="link32_@2_34"
     x1="313.67816"
     y1="297.19464"
     x2="333.2626"
     y2="297.19464" />
  <line
     class="arc0"
     id="link32_@0_33"
     x1="313.67816"
     y1="297.19464"
     x2="313.67816"
     y2="386.47339" />
  <line
     class="arc0"
     id="link34_@0_35"
     x1="333.2626"
     y1="297.19464"
     x2="333.2626"
     y2="386.47342" />
  <line
     class="arc2"
     id="link54_@2_52"
     x1="135.56183"
     y1="299.7316"
     x2="155.14629"
     y2="312.75601" />
  <line
     class="arc2"
     id="link60_@2_62"
     x1="511.37909"
     y1="299.73166"
     x2="491.79465"
     y2="312.75607" />
  <line
     class="arc1"
     id="link14_@1_52"
     x1="181.58525"
     y1="330.33914"
     x2="155.14629"
     y2="312.75601" />
  <line
     class="arc2"
     id="link14_@2_11"
     x1="181.58525"
     y1="330.33914"
     x2="188.92944"
     y2="344.99173" />
  <line
     class="arc1"
     id="link23_@1_62"
     x1="465.35556"
     y1="330.33917"
     x2="491.79465"
     y2="312.75607" />
  <line
     class="arc2"
     id="link23_@2_8"
     x1="465.35556"
     y1="330.33917"
     x2="458.01147"
     y2="344.99176" />
  <line
     class="arc1"
     id="link8_@1_36"
     x1="458.01147"
     y1="344.99176"
     x2="458.01147"
     y2="380.15796" />
  <line
     class="arc1"
     id="link11_@1_30"
     x1="188.92944"
     y1="344.99173"
     x2="188.92943"
     y2="380.15793" />
  <polygon
     points="316.64163,622.57117 316.6416,771.36914 281.38962,759.64716 191.89291,581.0895 191.89293,522.47925 281.38965,552.2389 "
     id="face_29_27_26_0_9_28"
     style="fill:#c0c0c0;stroke:none"
     opacity="1"
     transform="translate(-2.9635081,-116.2724)" />
  <line
     class="arc1"
     id="link28_@1_9"
     x1="188.92943"
     y1="406.20685"
     x2="188.92941"
     y2="464.81708" />
  <line
     class="arc2"
     id="link28_@2_30"
     x1="188.92943"
     y1="406.20685"
     x2="188.92943"
     y2="380.15793" />
  <line
     class="arc0"
     id="link28_@0_29"
     x1="188.92943"
     y1="406.20685"
     x2="278.42615"
     y2="435.96649" />
  <line
     class="arc0"
     id="link30_@0_31"
     x1="188.92943"
     y1="380.15793"
     x2="278.42615"
     y2="409.91754" />
  <line
     class="arc1"
     id="link31_@1_33"
     x1="278.42615"
     y1="409.91754"
     x2="313.67816"
     y2="386.47339" />
  <line
     class="arc2"
     id="link31_@2_29"
     x1="278.42615"
     y1="409.91754"
     x2="278.42615"
     y2="435.96649" />
  <line
     class="arc2"
     id="link33_@2_35"
     x1="313.67816"
     y1="386.47339"
     x2="333.2626"
     y2="386.47342" />
  <line
     class="arc1"
     id="link35_@1_37"
     x1="333.2626"
     y1="386.47342"
     x2="368.51471"
     y2="409.91754" />
  <line
     class="arc2"
     id="link36_@2_38"
     x1="458.01147"
     y1="380.15796"
     x2="458.01144"
     y2="406.20685" />
  <line
     class="arc0"
     id="link36_@0_37"
     x1="458.01147"
     y1="380.15796"
     x2="368.51471"
     y2="409.91754" />
  <line
     class="arc2"
     id="link37_@2_39"
     x1="368.51471"
     y1="409.91754"
     x2="368.51471"
     y2="435.96649" />
  <polygon
     points="336.22607,622.57117 336.226,771.36914 371.47815,759.64716 460.97495,581.0895 460.97495,522.47925 371.4782,552.2389 "
     id="face_39_25_24_3_1_38"
     style="fill:#c0c0c0;stroke:none"
     opacity="1"
     transform="translate(-2.9635081,-116.2724)" />
  <line
     class="arc1"
     id="link38_@1_1"
     x1="458.01144"
     y1="406.20685"
     x2="458.01144"
     y2="464.81708" />
  <line
     class="arc0"
     id="link38_@0_39"
     x1="458.01144"
     y1="406.20685"
     x2="368.51471"
     y2="435.96649" />
  <line
     class="arc1"
     id="link29_@1_27"
     x1="278.42615"
     y1="435.96649"
     x2="313.67813"
     y2="506.29877" />
  <line
     class="arc1"
     id="link39_@1_25"
     x1="368.51471"
     y1="435.96649"
     x2="333.26257"
     y2="506.29877" />
  <line
     class="arc0"
     id="link1_@0_3"
     x1="458.01144"
     y1="464.81708"
     x2="368.51465"
     y2="643.37476" />
  <line
     class="arc0"
     id="link9_@0_0"
     x1="188.92941"
     y1="464.81708"
     x2="278.42612"
     y2="643.37476" />
  <line
     class="arc2"
     id="link25_@2_27"
     x1="333.26257"
     y1="506.29877"
     x2="313.67813"
     y2="506.29877" />
  <line
     class="arc0"
     id="link25_@0_24"
     x1="333.26257"
     y1="506.29877"
     x2="333.26251"
     y2="655.09674" />
  <line
     class="arc0"
     id="link27_@0_26"
     x1="313.67813"
     y1="506.29877"
     x2="313.6781"
     y2="655.09674" />
  <line
     class="arc1"
     id="link0_@1_26"
     x1="278.42612"
     y1="643.37476"
     x2="313.6781"
     y2="655.09674" />
  <line
     class="arc1"
     id="link3_@1_24"
     x1="368.51465"
     y1="643.37476"
     x2="333.26251"
     y2="655.09674" />
  <line
     class="arc2"
     id="link24_@2_26"
     x1="333.26251"
     y1="655.09674"
     x2="313.6781"
     y2="655.09674" />
</svg>
