<?xml version="1.0" encoding="UTF-8" standalone="no"?>
<!-- Created with Jerboa -->

<svg
   width="536.25568"
   height="544.75562"
   version="1.1"
   id="svg1"
   sodipodi:docname="boucle-exemple-init.svg"
   inkscape:version="1.4 (e7c3feb100, 2024-10-09)"
   xmlns:inkscape="http://www.inkscape.org/namespaces/inkscape"
   xmlns:sodipodi="http://sodipodi.sourceforge.net/DTD/sodipodi-0.dtd"
   xmlns="http://www.w3.org/2000/svg"
   xmlns:svg="http://www.w3.org/2000/svg">
  <defs
     id="defs1" />
  <sodipodi:namedview
     id="namedview1"
     pagecolor="#ffffff"
     bordercolor="#000000"
     borderopacity="0.25"
     inkscape:showpageshadow="2"
     inkscape:pageopacity="0.0"
     inkscape:pagecheckerboard="0"
     inkscape:deskcolor="#d1d1d1"
     showgrid="false"
     inkscape:zoom="0.94950213"
     inkscape:cx="268.03521"
     inkscape:cy="269.08839"
     inkscape:window-width="1896"
     inkscape:window-height="986"
     inkscape:window-x="20"
     inkscape:window-y="20"
     inkscape:window-maximized="0"
     inkscape:current-layer="svg1" />
  <style
     id="style">
		.arc0 {
			fill:none;
			fill-rule:evenodd;
			stroke:black;
			stroke-width:4;
			stroke-linecap:round;
			stroke-linejoin:round;
			stroke-opacity:1;
		}
		.arc1 {
			fill:none;
			fill-rule:evenodd;
			stroke:red;
			stroke-width:4;
			stroke-linecap:round;
			stroke-linejoin:round;
			stroke-opacity:1;
		}
		.arc2 {
			fill:none;
			fill-rule:evenodd;
			stroke:blue;
			stroke-width:4;
			stroke-linecap:round;
			stroke-linejoin:round;
			stroke-opacity:1;
		}
		.arc3 {
			fill:none;
			fill-rule:evenodd;
			stroke:green;
			stroke-width:4;
			stroke-linecap:round;
			stroke-linejoin:round;
			stroke-opacity:1;
		}
		.topological-dart {
			fill:#000000;
			stroke:#000000;
			stroke-width:0;
			stroke-linecap:round;
			stroke-linejoin:round;
			stroke-dasharray:none;
			paint-order:markers fill stroke;
		}
	</style>
  <polygon
     points="462.29904,372.61575 526.85187,437.16858 526.85187,488.02216 462.29904,552.575 436.8722,527.1482 436.8722,398.04254 "
     id="face_26_82_83_85_84_0"
     style="fill:#c0c0c0;stroke:none"
     opacity="1"
     transform="translate(-434.87219,-57.872131)" />
  <line
     class="arc1"
     id="link0_@1_84"
     x1="2"
     y1="469.27606"
     x2="27.426849"
     y2="494.70288" />
  <line
     class="arc0"
     id="link0_@0_26"
     x1="2"
     y1="469.27606"
     x2="2"
     y2="340.17041" />
  <polygon
     points="656.3842,566.701 591.8314,502.14813 540.97784,502.14813 476.425,566.701 501.8518,592.12775 630.95746,592.12775 "
     id="face_29_88_89_87_86_1"
     style="fill:#c0c0c0;stroke:none"
     opacity="1"
     transform="translate(-434.87219,-57.872131)" />
  <line
     class="arc1"
     id="link1_@1_86"
     x1="66.979614"
     y1="534.25562"
     x2="41.552795"
     y2="508.82886" />
  <line
     class="arc0"
     id="link1_@0_29"
     x1="66.979614"
     y1="534.25562"
     x2="196.08527"
     y2="534.25562" />
  <polygon
     points="749.6159,566.701 814.1687,502.14813 865.0223,502.14813 929.57513,566.701 904.1484,592.12775 775.0427,592.12775 "
     id="face_8_46_47_33_32_2"
     style="fill:#ffc000;stroke:none"
     opacity="1"
     transform="translate(-434.87219,-57.872131)" />
  <line
     class="arc1"
     id="link2_@1_32"
     x1="469.27618"
     y1="534.25562"
     x2="494.70294"
     y2="508.82886" />
  <line
     class="arc0"
     id="link2_@0_8"
     x1="469.27618"
     y1="534.25562"
     x2="340.17053"
     y2="534.25562" />
  <circle
     id="dart2"
     cx="469.27618"
     cy="534.25562"
     r="10"
     stroke="#000000"
     fill="#000000" />
  <polygon
     points="943.7011,372.61575 879.14825,437.16858 879.14825,488.02216 943.7011,552.575 969.12787,527.1482 969.12787,398.04254 "
     id="face_11_36_37_35_34_3"
     style="fill:#c0c0c0;stroke:none"
     opacity="1"
     transform="translate(-434.87219,-57.872131)" />
  <line
     class="arc1"
     id="link3_@1_34"
     x1="534.25568"
     y1="469.27606"
     x2="508.82892"
     y2="494.70288" />
  <line
     class="arc0"
     id="link3_@0_11"
     x1="534.25568"
     y1="469.27606"
     x2="534.25568"
     y2="340.17041" />
  <polygon
     points="943.7011,279.3841 879.14825,214.83133 879.14825,163.97769 943.7011,99.424866 969.12787,124.85169 969.12787,253.95728 "
     id="face_14_50_51_53_52_4"
     style="fill:#c0c0c0;stroke:none"
     opacity="1"
     transform="translate(-434.87219,-57.872131)" />
  <line
     class="arc1"
     id="link4_@1_52"
     x1="534.25568"
     y1="66.979546"
     x2="508.82892"
     y2="41.552734" />
  <line
     class="arc0"
     id="link4_@0_14"
     x1="534.25568"
     y1="66.979546"
     x2="534.25568"
     y2="196.08514" />
  <polygon
     points="749.6159,85.29895 814.1687,149.85175 865.0223,149.85175 929.57513,85.29895 904.1484,59.87213 775.0427,59.87213 "
     id="face_17_56_57_55_54_5"
     style="fill:#c0c0c0;stroke:none"
     opacity="1"
     transform="translate(-434.87219,-57.872131)" />
  <line
     class="arc1"
     id="link5_@1_54"
     x1="469.27618"
     y1="2"
     x2="494.70294"
     y2="27.426819" />
  <line
     class="arc0"
     id="link5_@0_17"
     x1="469.27618"
     y1="2"
     x2="340.17053"
     y2="2" />
  <polygon
     points="656.3842,85.29895 591.8314,149.85175 540.97784,149.85175 476.425,85.29895 501.8518,59.87213 630.95746,59.87213 "
     id="face_20_66_67_69_68_6"
     style="fill:#c0c0c0;stroke:none"
     opacity="1"
     transform="translate(-434.87219,-57.872131)" />
  <line
     class="arc1"
     id="link6_@1_68"
     x1="66.979614"
     y1="2"
     x2="41.552795"
     y2="27.426819" />
  <line
     class="arc0"
     id="link6_@0_20"
     x1="66.979614"
     y1="2"
     x2="196.08527"
     y2="2" />
  <polygon
     points="462.29904,279.3841 526.85187,214.83133 526.85187,163.97769 462.29904,99.424866 436.8722,124.85169 436.8722,253.95728 "
     id="face_23_72_73_71_70_7"
     style="fill:#c0c0c0;stroke:none"
     opacity="1"
     transform="translate(-434.87219,-57.872131)" />
  <line
     class="arc1"
     id="link7_@1_70"
     x1="2"
     y1="66.979546"
     x2="27.426849"
     y2="41.552734" />
  <line
     class="arc0"
     id="link7_@0_23"
     x1="2"
     y1="66.979546"
     x2="2"
     y2="196.08514" />
  <line
     class="arc1"
     id="link8_@1_46"
     x1="340.17053"
     y1="534.25562"
     x2="314.74371"
     y2="508.82886" />
  <polygon
     points="735.48987,552.575 800.04266,488.02216 800.04266,437.16858 735.48987,372.61575 710.063,398.04254 710.063,527.1482 "
     id="face_10_44_45_43_42_9"
     style="fill:#c0c0c0;stroke:none"
     opacity="1"
     transform="translate(-434.87219,-57.872131)" />
  <line
     class="arc1"
     id="link9_@1_42"
     x1="275.1908"
     y1="340.17041"
     x2="300.61768"
     y2="314.74362" />
  <line
     class="arc2"
     id="link9_@2_30"
     x1="275.1908"
     y1="340.17041"
     x2="261.06482"
     y2="340.17041" />
  <line
     class="arc0"
     id="link9_@0_10"
     x1="275.1908"
     y1="340.17041"
     x2="275.1908"
     y2="469.27606" />
  <line
     class="arc1"
     id="link10_@1_44"
     x1="275.1908"
     y1="469.27606"
     x2="300.61768"
     y2="494.70288" />
  <line
     class="arc2"
     id="link10_@2_31"
     x1="275.1908"
     y1="469.27606"
     x2="261.06482"
     y2="469.27606" />
  <line
     class="arc1"
     id="link11_@1_36"
     x1="534.25568"
     y1="340.17041"
     x2="508.82892"
     y2="314.74362" />
  <polygon
     points="929.57513,358.48975 865.0223,423.04254 814.1687,423.04254 749.6159,358.48975 775.0427,333.06302 904.1484,333.06302 "
     id="face_13_38_39_41_40_12"
     style="fill:#c0c0c0;stroke:none"
     opacity="1"
     transform="translate(-434.87219,-57.872131)" />
  <line
     class="arc1"
     id="link12_@1_40"
     x1="340.17053"
     y1="275.19089"
     x2="314.74371"
     y2="300.61761" />
  <line
     class="arc2"
     id="link12_@2_15"
     x1="340.17053"
     y1="275.19089"
     x2="340.17053"
     y2="261.06485" />
  <line
     class="arc0"
     id="link12_@0_13"
     x1="340.17053"
     y1="275.19089"
     x2="469.27618"
     y2="275.19089" />
  <line
     class="arc1"
     id="link13_@1_38"
     x1="469.27618"
     y1="275.19089"
     x2="494.70294"
     y2="300.61761" />
  <line
     class="arc2"
     id="link13_@2_16"
     x1="469.27618"
     y1="275.19089"
     x2="469.27618"
     y2="261.06485" />
  <line
     class="arc1"
     id="link14_@1_50"
     x1="534.25568"
     y1="196.08514"
     x2="508.82892"
     y2="221.51196" />
  <polygon
     points="929.57513,293.5101 865.0223,228.95737 814.1687,228.95737 749.6159,293.5101 775.0427,318.93698 904.1484,318.93698 "
     id="face_16_48_49_63_62_15"
     style="fill:#c0c0c0;stroke:none"
     opacity="1"
     transform="translate(-434.87219,-57.872131)" />
  <line
     class="arc1"
     id="link15_@1_62"
     x1="340.17053"
     y1="261.06485"
     x2="314.74371"
     y2="235.63797" />
  <line
     class="arc0"
     id="link15_@0_16"
     x1="340.17053"
     y1="261.06485"
     x2="469.27618"
     y2="261.06485" />
  <line
     class="arc1"
     id="link16_@1_48"
     x1="469.27618"
     y1="261.06485"
     x2="494.70294"
     y2="235.63797" />
  <line
     class="arc1"
     id="link17_@1_56"
     x1="340.17053"
     y1="2"
     x2="314.74371"
     y2="27.426819" />
  <polygon
     points="735.48987,99.424866 800.04266,163.97769 800.04266,214.83133 735.48987,279.3841 710.063,253.95728 710.063,124.85169 "
     id="face_19_58_59_61_60_18"
     style="fill:#c0c0c0;stroke:none"
     opacity="1"
     transform="translate(-434.87219,-57.872131)" />
  <line
     class="arc1"
     id="link18_@1_60"
     x1="275.1908"
     y1="196.08514"
     x2="300.61768"
     y2="221.51196" />
  <line
     class="arc2"
     id="link18_@2_21"
     x1="275.1908"
     y1="196.08514"
     x2="261.06482"
     y2="196.08514" />
  <line
     class="arc0"
     id="link18_@0_19"
     x1="275.1908"
     y1="196.08514"
     x2="275.1908"
     y2="66.979546" />
  <line
     class="arc1"
     id="link19_@1_58"
     x1="275.1908"
     y1="66.979546"
     x2="300.61768"
     y2="41.552734" />
  <line
     class="arc2"
     id="link19_@2_22"
     x1="275.1908"
     y1="66.979546"
     x2="261.06482"
     y2="66.979546" />
  <line
     class="arc1"
     id="link20_@1_66"
     x1="196.08527"
     y1="2"
     x2="221.51202"
     y2="27.426819" />
  <polygon
     points="670.51025,99.424866 605.9574,163.97769 605.9574,214.83133 670.51025,279.3841 695.937,253.95728 695.937,124.85169 "
     id="face_22_64_65_79_78_21"
     style="fill:#c0c0c0;stroke:none"
     opacity="1"
     transform="translate(-434.87219,-57.872131)" />
  <line
     class="arc1"
     id="link21_@1_78"
     x1="261.06482"
     y1="196.08514"
     x2="235.63806"
     y2="221.51196" />
  <line
     class="arc0"
     id="link21_@0_22"
     x1="261.06482"
     y1="196.08514"
     x2="261.06482"
     y2="66.979546" />
  <line
     class="arc1"
     id="link22_@1_64"
     x1="261.06482"
     y1="66.979546"
     x2="235.63806"
     y2="41.552734" />
  <line
     class="arc1"
     id="link23_@1_72"
     x1="2"
     y1="196.08514"
     x2="27.426849"
     y2="221.51196" />
  <polygon
     points="476.425,293.5101 540.97784,228.95737 591.8314,228.95737 656.3842,293.5101 630.95746,318.93698 501.8518,318.93698 "
     id="face_25_74_75_77_76_24"
     style="fill:#c0c0c0;stroke:none"
     opacity="1"
     transform="translate(-434.87219,-57.872131)" />
  <line
     class="arc1"
     id="link24_@1_76"
     x1="196.08527"
     y1="261.06485"
     x2="221.51202"
     y2="235.63797" />
  <line
     class="arc2"
     id="link24_@2_27"
     x1="196.08527"
     y1="261.06485"
     x2="196.08527"
     y2="275.19089" />
  <line
     class="arc0"
     id="link24_@0_25"
     x1="196.08527"
     y1="261.06485"
     x2="66.979614"
     y2="261.06485" />
  <line
     class="arc1"
     id="link25_@1_74"
     x1="66.979614"
     y1="261.06485"
     x2="41.552795"
     y2="235.63797" />
  <line
     class="arc2"
     id="link25_@2_28"
     x1="66.979614"
     y1="261.06485"
     x2="66.979614"
     y2="275.19089" />
  <line
     class="arc1"
     id="link26_@1_82"
     x1="2"
     y1="340.17041"
     x2="27.426849"
     y2="314.74362" />
  <polygon
     points="476.425,358.48975 540.97784,423.04254 591.8314,423.04254 656.3842,358.48975 630.95746,333.06302 501.8518,333.06302 "
     id="face_28_80_81_95_94_27"
     style="fill:#c0c0c0;stroke:none"
     opacity="1"
     transform="translate(-434.87219,-57.872131)" />
  <line
     class="arc1"
     id="link27_@1_94"
     x1="196.08527"
     y1="275.19089"
     x2="221.51202"
     y2="300.61761" />
  <line
     class="arc0"
     id="link27_@0_28"
     x1="196.08527"
     y1="275.19089"
     x2="66.979614"
     y2="275.19089" />
  <line
     class="arc1"
     id="link28_@1_80"
     x1="66.979614"
     y1="275.19089"
     x2="41.552795"
     y2="300.61761" />
  <line
     class="arc1"
     id="link29_@1_88"
     x1="196.08527"
     y1="534.25562"
     x2="221.51202"
     y2="508.82886" />
  <polygon
     points="670.51025,552.575 605.9574,488.02216 605.9574,437.16858 670.51025,372.61575 695.937,398.04254 695.937,527.1482 "
     id="face_31_90_91_93_92_30"
     style="fill:#c0c0c0;stroke:none"
     opacity="1"
     transform="translate(-434.87219,-57.872131)" />
  <line
     class="arc1"
     id="link30_@1_92"
     x1="261.06482"
     y1="340.17041"
     x2="235.63806"
     y2="314.74362" />
  <line
     class="arc0"
     id="link30_@0_31"
     x1="261.06482"
     y1="340.17041"
     x2="261.06482"
     y2="469.27606" />
  <line
     class="arc1"
     id="link31_@1_90"
     x1="261.06482"
     y1="469.27606"
     x2="235.63806"
     y2="494.70288" />
  <line
     class="arc2"
     id="link32_@2_34"
     x1="494.70294"
     y1="508.82886"
     x2="508.82892"
     y2="494.70288" />
  <line
     class="arc0"
     id="link32_@0_33"
     x1="494.70294"
     y1="508.82886"
     x2="430.15009"
     y2="444.276" />
  <line
     class="arc1"
     id="link33_@1_47"
     x1="430.15009"
     y1="444.276"
     x2="379.29651"
     y2="444.276" />
  <line
     class="arc2"
     id="link33_@2_35"
     x1="430.15009"
     y1="444.276"
     x2="444.27606"
     y2="430.15002" />
  <line
     class="arc0"
     id="link34_@0_35"
     x1="508.82892"
     y1="494.70288"
     x2="444.27606"
     y2="430.15002" />
  <line
     class="arc1"
     id="link35_@1_37"
     x1="444.27606"
     y1="430.15002"
     x2="444.27606"
     y2="379.29645" />
  <line
     class="arc2"
     id="link36_@2_38"
     x1="508.82892"
     y1="314.74362"
     x2="494.70294"
     y2="300.61761" />
  <line
     class="arc0"
     id="link36_@0_37"
     x1="508.82892"
     y1="314.74362"
     x2="444.27606"
     y2="379.29645" />
  <line
     class="arc2"
     id="link37_@2_39"
     x1="444.27606"
     y1="379.29645"
     x2="430.15009"
     y2="365.17041" />
  <line
     class="arc0"
     id="link38_@0_39"
     x1="494.70294"
     y1="300.61761"
     x2="430.15009"
     y2="365.17041" />
  <line
     class="arc1"
     id="link39_@1_41"
     x1="430.15009"
     y1="365.17041"
     x2="379.29651"
     y2="365.17041" />
  <line
     class="arc2"
     id="link40_@2_42"
     x1="314.74371"
     y1="300.61761"
     x2="300.61768"
     y2="314.74362" />
  <line
     class="arc0"
     id="link40_@0_41"
     x1="314.74371"
     y1="300.61761"
     x2="379.29651"
     y2="365.17041" />
  <line
     class="arc2"
     id="link41_@2_43"
     x1="379.29651"
     y1="365.17041"
     x2="365.17047"
     y2="379.29645" />
  <line
     class="arc0"
     id="link42_@0_43"
     x1="300.61768"
     y1="314.74362"
     x2="365.17047"
     y2="379.29645" />
  <line
     class="arc1"
     id="link43_@1_45"
     x1="365.17047"
     y1="379.29645"
     x2="365.17047"
     y2="430.15002" />
  <line
     class="arc2"
     id="link44_@2_46"
     x1="300.61768"
     y1="494.70288"
     x2="314.74371"
     y2="508.82886" />
  <line
     class="arc0"
     id="link44_@0_45"
     x1="300.61768"
     y1="494.70288"
     x2="365.17047"
     y2="430.15002" />
  <line
     class="arc2"
     id="link45_@2_47"
     x1="365.17047"
     y1="430.15002"
     x2="379.29651"
     y2="444.276" />
  <line
     class="arc0"
     id="link46_@0_47"
     x1="314.74371"
     y1="508.82886"
     x2="379.29651"
     y2="444.276" />
  <line
     class="arc2"
     id="link48_@2_50"
     x1="494.70294"
     y1="235.63797"
     x2="508.82892"
     y2="221.51196" />
  <line
     class="arc0"
     id="link48_@0_49"
     x1="494.70294"
     y1="235.63797"
     x2="430.15009"
     y2="171.08524" />
  <line
     class="arc1"
     id="link49_@1_63"
     x1="430.15009"
     y1="171.08524"
     x2="379.29651"
     y2="171.08524" />
  <line
     class="arc2"
     id="link49_@2_51"
     x1="430.15009"
     y1="171.08524"
     x2="444.27606"
     y2="156.9592" />
  <line
     class="arc0"
     id="link50_@0_51"
     x1="508.82892"
     y1="221.51196"
     x2="444.27606"
     y2="156.9592" />
  <line
     class="arc1"
     id="link51_@1_53"
     x1="444.27606"
     y1="156.9592"
     x2="444.27606"
     y2="106.10556" />
  <line
     class="arc2"
     id="link52_@2_54"
     x1="508.82892"
     y1="41.552734"
     x2="494.70294"
     y2="27.426819" />
  <line
     class="arc0"
     id="link52_@0_53"
     x1="508.82892"
     y1="41.552734"
     x2="444.27606"
     y2="106.10556" />
  <line
     class="arc2"
     id="link53_@2_55"
     x1="444.27606"
     y1="106.10556"
     x2="430.15009"
     y2="91.979614" />
  <line
     class="arc0"
     id="link54_@0_55"
     x1="494.70294"
     y1="27.426819"
     x2="430.15009"
     y2="91.979614" />
  <line
     class="arc1"
     id="link55_@1_57"
     x1="430.15009"
     y1="91.979614"
     x2="379.29651"
     y2="91.979614" />
  <line
     class="arc2"
     id="link56_@2_58"
     x1="314.74371"
     y1="27.426819"
     x2="300.61768"
     y2="41.552734" />
  <line
     class="arc0"
     id="link56_@0_57"
     x1="314.74371"
     y1="27.426819"
     x2="379.29651"
     y2="91.979614" />
  <line
     class="arc2"
     id="link57_@2_59"
     x1="379.29651"
     y1="91.979614"
     x2="365.17047"
     y2="106.10556" />
  <line
     class="arc0"
     id="link58_@0_59"
     x1="300.61768"
     y1="41.552734"
     x2="365.17047"
     y2="106.10556" />
  <line
     class="arc1"
     id="link59_@1_61"
     x1="365.17047"
     y1="106.10556"
     x2="365.17047"
     y2="156.9592" />
  <line
     class="arc2"
     id="link60_@2_62"
     x1="300.61768"
     y1="221.51196"
     x2="314.74371"
     y2="235.63797" />
  <line
     class="arc0"
     id="link60_@0_61"
     x1="300.61768"
     y1="221.51196"
     x2="365.17047"
     y2="156.9592" />
  <line
     class="arc2"
     id="link61_@2_63"
     x1="365.17047"
     y1="156.9592"
     x2="379.29651"
     y2="171.08524" />
  <line
     class="arc0"
     id="link62_@0_63"
     x1="314.74371"
     y1="235.63797"
     x2="379.29651"
     y2="171.08524" />
  <line
     class="arc2"
     id="link64_@2_66"
     x1="235.63806"
     y1="41.552734"
     x2="221.51202"
     y2="27.426819" />
  <line
     class="arc0"
     id="link64_@0_65"
     x1="235.63806"
     y1="41.552734"
     x2="171.08521"
     y2="106.10556" />
  <line
     class="arc1"
     id="link65_@1_79"
     x1="171.08521"
     y1="106.10556"
     x2="171.08521"
     y2="156.9592" />
  <line
     class="arc2"
     id="link65_@2_67"
     x1="171.08521"
     y1="106.10556"
     x2="156.95923"
     y2="91.979614" />
  <line
     class="arc0"
     id="link66_@0_67"
     x1="221.51202"
     y1="27.426819"
     x2="156.95923"
     y2="91.979614" />
  <line
     class="arc1"
     id="link67_@1_69"
     x1="156.95923"
     y1="91.979614"
     x2="106.10565"
     y2="91.979614" />
  <line
     class="arc2"
     id="link68_@2_70"
     x1="41.552795"
     y1="27.426819"
     x2="27.426849"
     y2="41.552734" />
  <line
     class="arc0"
     id="link68_@0_69"
     x1="41.552795"
     y1="27.426819"
     x2="106.10565"
     y2="91.979614" />
  <line
     class="arc2"
     id="link69_@2_71"
     x1="106.10565"
     y1="91.979614"
     x2="91.979675"
     y2="106.10556" />
  <line
     class="arc0"
     id="link70_@0_71"
     x1="27.426849"
     y1="41.552734"
     x2="91.979675"
     y2="106.10556" />
  <line
     class="arc1"
     id="link71_@1_73"
     x1="91.979675"
     y1="106.10556"
     x2="91.979675"
     y2="156.9592" />
  <line
     class="arc2"
     id="link72_@2_74"
     x1="27.426849"
     y1="221.51196"
     x2="41.552795"
     y2="235.63797" />
  <line
     class="arc0"
     id="link72_@0_73"
     x1="27.426849"
     y1="221.51196"
     x2="91.979675"
     y2="156.9592" />
  <line
     class="arc2"
     id="link73_@2_75"
     x1="91.979675"
     y1="156.9592"
     x2="106.10565"
     y2="171.08524" />
  <line
     class="arc0"
     id="link74_@0_75"
     x1="41.552795"
     y1="235.63797"
     x2="106.10565"
     y2="171.08524" />
  <line
     class="arc1"
     id="link75_@1_77"
     x1="106.10565"
     y1="171.08524"
     x2="156.95923"
     y2="171.08524" />
  <line
     class="arc2"
     id="link76_@2_78"
     x1="221.51202"
     y1="235.63797"
     x2="235.63806"
     y2="221.51196" />
  <line
     class="arc0"
     id="link76_@0_77"
     x1="221.51202"
     y1="235.63797"
     x2="156.95923"
     y2="171.08524" />
  <line
     class="arc2"
     id="link77_@2_79"
     x1="156.95923"
     y1="171.08524"
     x2="171.08521"
     y2="156.9592" />
  <line
     class="arc0"
     id="link78_@0_79"
     x1="235.63806"
     y1="221.51196"
     x2="171.08521"
     y2="156.9592" />
  <line
     class="arc2"
     id="link80_@2_82"
     x1="41.552795"
     y1="300.61761"
     x2="27.426849"
     y2="314.74362" />
  <line
     class="arc0"
     id="link80_@0_81"
     x1="41.552795"
     y1="300.61761"
     x2="106.10565"
     y2="365.17041" />
  <line
     class="arc1"
     id="link81_@1_95"
     x1="106.10565"
     y1="365.17041"
     x2="156.95923"
     y2="365.17041" />
  <line
     class="arc2"
     id="link81_@2_83"
     x1="106.10565"
     y1="365.17041"
     x2="91.979675"
     y2="379.29645" />
  <line
     class="arc0"
     id="link82_@0_83"
     x1="27.426849"
     y1="314.74362"
     x2="91.979675"
     y2="379.29645" />
  <line
     class="arc1"
     id="link83_@1_85"
     x1="91.979675"
     y1="379.29645"
     x2="91.979675"
     y2="430.15002" />
  <line
     class="arc2"
     id="link84_@2_86"
     x1="27.426849"
     y1="494.70288"
     x2="41.552795"
     y2="508.82886" />
  <line
     class="arc0"
     id="link84_@0_85"
     x1="27.426849"
     y1="494.70288"
     x2="91.979675"
     y2="430.15002" />
  <line
     class="arc2"
     id="link85_@2_87"
     x1="91.979675"
     y1="430.15002"
     x2="106.10565"
     y2="444.276" />
  <line
     class="arc0"
     id="link86_@0_87"
     x1="41.552795"
     y1="508.82886"
     x2="106.10565"
     y2="444.276" />
  <line
     class="arc1"
     id="link87_@1_89"
     x1="106.10565"
     y1="444.276"
     x2="156.95923"
     y2="444.276" />
  <line
     class="arc2"
     id="link88_@2_90"
     x1="221.51202"
     y1="508.82886"
     x2="235.63806"
     y2="494.70288" />
  <line
     class="arc0"
     id="link88_@0_89"
     x1="221.51202"
     y1="508.82886"
     x2="156.95923"
     y2="444.276" />
  <line
     class="arc2"
     id="link89_@2_91"
     x1="156.95923"
     y1="444.276"
     x2="171.08521"
     y2="430.15002" />
  <line
     class="arc0"
     id="link90_@0_91"
     x1="235.63806"
     y1="494.70288"
     x2="171.08521"
     y2="430.15002" />
  <line
     class="arc1"
     id="link91_@1_93"
     x1="171.08521"
     y1="430.15002"
     x2="171.08521"
     y2="379.29645" />
  <line
     class="arc2"
     id="link92_@2_94"
     x1="235.63806"
     y1="314.74362"
     x2="221.51202"
     y2="300.61761" />
  <line
     class="arc0"
     id="link92_@0_93"
     x1="235.63806"
     y1="314.74362"
     x2="171.08521"
     y2="379.29645" />
  <line
     class="arc2"
     id="link93_@2_95"
     x1="171.08521"
     y1="379.29645"
     x2="156.95923"
     y2="365.17041" />
  <line
     class="arc0"
     id="link94_@0_95"
     x1="221.51202"
     y1="300.61761"
     x2="156.95923"
     y2="365.17041" />
</svg>
