<?xml version="1.0" encoding="UTF-8" standalone="no"?>
<!-- Created with Jerboa -->

<svg
   width="571.30896"
   height="571.22241"
   version="1.1"
   id="svg1"
   sodipodi:docname="boucle-exemple-reval-triangle-quad.svg"
   inkscape:version="1.4 (e7c3feb100, 2024-10-09)"
   xmlns:inkscape="http://www.inkscape.org/namespaces/inkscape"
   xmlns:sodipodi="http://sodipodi.sourceforge.net/DTD/sodipodi-0.dtd"
   xmlns="http://www.w3.org/2000/svg"
   xmlns:svg="http://www.w3.org/2000/svg">
  <defs
     id="defs1" />
  <sodipodi:namedview
     id="namedview1"
     pagecolor="#ffffff"
     bordercolor="#000000"
     borderopacity="0.25"
     inkscape:showpageshadow="2"
     inkscape:pageopacity="0.0"
     inkscape:pagecheckerboard="0"
     inkscape:deskcolor="#d1d1d1"
     showgrid="false"
     inkscape:zoom="0.88514548"
     inkscape:cx="293.73702"
     inkscape:cy="277.92042"
     inkscape:window-width="1892"
     inkscape:window-height="1035"
     inkscape:window-x="1929"
     inkscape:window-y="26"
     inkscape:window-maximized="1"
     inkscape:current-layer="svg1" />
  <style
     id="style">
		.arc0 {
			fill:none;
			fill-rule:evenodd;
			stroke:black;
			stroke-width:4;
			stroke-linecap:round;
			stroke-linejoin:round;
			stroke-opacity:1;
		}
		.arc1 {
			fill:none;
			fill-rule:evenodd;
			stroke:red;
			stroke-width:4;
			stroke-linecap:round;
			stroke-linejoin:round;
			stroke-opacity:1;
		}
		.arc2 {
			fill:none;
			fill-rule:evenodd;
			stroke:blue;
			stroke-width:4;
			stroke-linecap:round;
			stroke-linejoin:round;
			stroke-opacity:1;
		}
		.arc3 {
			fill:none;
			fill-rule:evenodd;
			stroke:green;
			stroke-width:4;
			stroke-linecap:round;
			stroke-linejoin:round;
			stroke-opacity:1;
		}
		.topological-dart {
			fill:#000000;
			stroke:#000000;
			stroke-width:0;
			stroke-linecap:round;
			stroke-linejoin:round;
			stroke-dasharray:none;
			paint-order:markers fill stroke;
		}
	</style>
  <polygon
     points="780.2501,301.80173 697.50037,246.64368 664.9058,181.46466 664.9058,71.148315 730.0947,27.695862 895.59436,27.695862 928.1888,92.874756 845.43896,258.34915 "
     id="face_21_23_22_19_20_18_5_4"
     style="fill:#c0c0c0;stroke:none"
     opacity="1"
     transform="translate(-358.87982,-25.695862)" />
  <line
     class="arc1"
     id="link4_@1_5"
     x1="569.30896"
     y1="67.178894"
     x2="536.71454"
     y2="2" />
  <line
     class="arc0"
     id="link4_@0_21"
     x1="569.30896"
     y1="67.178894"
     x2="486.55914"
     y2="232.65329" />
  <line
     class="arc0"
     id="link5_@0_18"
     x1="536.71454"
     y1="2"
     x2="371.2149"
     y2="2" />
  <polygon
     points="624.1628,71.148315 624.1628,181.46466 591.56836,246.64368 508.8185,301.80173 443.62964,258.34915 360.87982,92.874756 393.47424,27.695862 558.97394,27.695862 "
     id="face_15_17_16_13_14_12_7_6"
     style="fill:#c0c0c0;stroke:none"
     opacity="1"
     transform="translate(-358.87982,-25.695862)" />
  <line
     class="arc1"
     id="link6_@1_7"
     x1="34.594421"
     y1="2"
     x2="2"
     y2="67.178894" />
  <line
     class="arc0"
     id="link6_@0_15"
     x1="34.594421"
     y1="2"
     x2="200.09412"
     y2="2" />
  <line
     class="arc0"
     id="link7_@0_12"
     x1="2"
     y1="67.178894"
     x2="84.749817"
     y2="232.65329" />
  <line
     class="arc1"
     id="link15_@1_17"
     x1="200.09412"
     y1="2"
     x2="265.28296"
     y2="45.452454" />
  <line
     class="arc2"
     id="link17_@2_20"
     x1="265.28296"
     y1="45.452454"
     x2="306.026"
     y2="45.452454" />
  <line
     class="arc0"
     id="link17_@0_16"
     x1="265.28296"
     y1="45.452454"
     x2="265.28296"
     y2="155.7688" />
  <line
     class="arc1"
     id="link18_@1_20"
     x1="371.2149"
     y1="2"
     x2="306.026"
     y2="45.452454" />
  <line
     class="arc0"
     id="link20_@0_19"
     x1="306.026"
     y1="45.452454"
     x2="306.026"
     y2="155.7688" />
  <line
     class="arc1"
     id="link16_@1_13"
     x1="265.28296"
     y1="155.7688"
     x2="232.68854"
     y2="220.94781" />
  <line
     class="arc2"
     id="link16_@2_19"
     x1="265.28296"
     y1="155.7688"
     x2="306.026"
     y2="155.7688" />
  <line
     class="arc1"
     id="link19_@1_22"
     x1="306.026"
     y1="155.7688"
     x2="338.62054"
     y2="220.94781" />
  <polygon
     points="759.8784,429.44382 677.1287,594.9183 611.9398,594.9183 529.19006,429.44382 529.19006,342.53854 611.9398,287.38055 677.1287,287.38055 759.8784,342.53854 "
     id="face_8_1_3_0_9_11_10_2"
     style="fill:#c0c0c0;stroke:none"
     opacity="1"
     transform="translate(-358.87982,-25.695862)" />
  <line
     class="arc1"
     id="link2_@1_10"
     x1="318.2489"
     y1="261.68469"
     x2="253.06"
     y2="261.68469" />
  <line
     class="arc2"
     id="link2_@2_22"
     x1="318.2489"
     y1="261.68469"
     x2="338.62054"
     y2="220.94781" />
  <line
     class="arc0"
     id="link2_@0_8"
     x1="318.2489"
     y1="261.68469"
     x2="400.9986"
     y2="316.84268" />
  <line
     class="arc1"
     id="link8_@1_1"
     x1="400.9986"
     y1="316.84268"
     x2="400.9986"
     y2="403.74796" />
  <line
     class="arc2"
     id="link8_@2_23"
     x1="400.9986"
     y1="316.84268"
     x2="421.3703"
     y2="276.10587" />
  <line
     class="arc2"
     id="link10_@2_13"
     x1="253.06"
     y1="261.68469"
     x2="232.68854"
     y2="220.94781" />
  <line
     class="arc0"
     id="link10_@0_11"
     x1="253.06"
     y1="261.68469"
     x2="170.31024"
     y2="316.84268" />
  <line
     class="arc1"
     id="link11_@1_9"
     x1="170.31024"
     y1="316.84268"
     x2="170.31024"
     y2="403.74796" />
  <line
     class="arc2"
     id="link11_@2_14"
     x1="170.31024"
     y1="316.84268"
     x2="149.93869"
     y2="276.10587" />
  <line
     class="arc1"
     id="link12_@1_14"
     x1="84.749817"
     y1="232.65329"
     x2="149.93869"
     y2="276.10587" />
  <line
     class="arc0"
     id="link13_@0_14"
     x1="232.68854"
     y1="220.94781"
     x2="149.93869"
     y2="276.10587" />
  <line
     class="arc1"
     id="link21_@1_23"
     x1="486.55914"
     y1="232.65329"
     x2="421.3703"
     y2="276.10587" />
  <line
     class="arc0"
     id="link22_@0_23"
     x1="338.62054"
     y1="220.94781"
     x2="421.3703"
     y2="276.10587" />
  <line
     class="arc0"
     id="link1_@0_3"
     x1="400.9986"
     y1="403.74796"
     x2="318.2489"
     y2="569.22241" />
  <line
     class="arc0"
     id="link9_@0_0"
     x1="170.31024"
     y1="403.74796"
     x2="253.06"
     y2="569.22241" />
  <line
     class="arc1"
     id="link0_@1_3"
     x1="253.06"
     y1="569.22241"
     x2="318.2489"
     y2="569.22241" />
</svg>
