<?xml version="1.0" encoding="UTF-8" standalone="no"?>
<!-- Created with Jerboa -->

<svg
   width="564.60815"
   height="563.24249"
   version="1.1"
   id="svg1"
   sodipodi:docname="boucle-exemple-entree.svg"
   inkscape:version="1.4 (e7c3feb100, 2024-10-09)"
   xmlns:inkscape="http://www.inkscape.org/namespaces/inkscape"
   xmlns:sodipodi="http://sodipodi.sourceforge.net/DTD/sodipodi-0.dtd"
   xmlns="http://www.w3.org/2000/svg"
   xmlns:svg="http://www.w3.org/2000/svg">
  <defs
     id="defs1" />
  <sodipodi:namedview
     id="namedview1"
     pagecolor="#ffffff"
     bordercolor="#000000"
     borderopacity="0.25"
     inkscape:showpageshadow="2"
     inkscape:pageopacity="0.0"
     inkscape:pagecheckerboard="0"
     inkscape:deskcolor="#d1d1d1"
     showgrid="false"
     inkscape:zoom="0.76529161"
     inkscape:cx="282.24535"
     inkscape:cy="280.93866"
     inkscape:window-width="1892"
     inkscape:window-height="1035"
     inkscape:window-x="1929"
     inkscape:window-y="26"
     inkscape:window-maximized="0"
     inkscape:current-layer="svg1" />
  <style
     id="style">
		.arc0 {
			fill:none;
			fill-rule:evenodd;
			stroke:black;
			stroke-width:4;
			stroke-linecap:round;
			stroke-linejoin:round;
			stroke-opacity:1;
		}
		.arc1 {
			fill:none;
			fill-rule:evenodd;
			stroke:red;
			stroke-width:4;
			stroke-linecap:round;
			stroke-linejoin:round;
			stroke-opacity:1;
		}
		.arc2 {
			fill:none;
			fill-rule:evenodd;
			stroke:blue;
			stroke-width:4;
			stroke-linecap:round;
			stroke-linejoin:round;
			stroke-opacity:1;
		}
		.arc3 {
			fill:none;
			fill-rule:evenodd;
			stroke:green;
			stroke-width:4;
			stroke-linecap:round;
			stroke-linejoin:round;
			stroke-opacity:1;
		}
		.topological-dart {
			fill:#000000;
			stroke:#000000;
			stroke-width:0;
			stroke-linecap:round;
			stroke-linejoin:round;
			stroke-dasharray:none;
			paint-order:markers fill stroke;
		}
	</style>
  <polygon
     points="712.5601,84.52557 712.56006,240.16931 789.0402,316.4632 945.064,316.46326 983.30414,240.16937 983.30414,84.525635 945.064,46.378784 789.0403,46.378723 "
     id="face_17_19_18_15_16_14_4_5"
     style="fill:#c0c0c0;stroke:none"
     opacity="1"
     transform="translate(-420.69601,-44.378662)" />
  <line
     class="arc1"
     id="link5_@1_4"
     x1="524.36804"
     y1="2.0001221"
     x2="562.60815"
     y2="40.146973" />
  <line
     class="arc0"
     id="link5_@0_17"
     x1="524.36804"
     y1="2.0001221"
     x2="368.34427"
     y2="2.000061" />
  <polygon
     points="693.44006,84.52557 693.44006,240.16931 616.96,316.46317 460.9361,316.46313 422.69604,240.16928 422.6961,84.52551 460.93613,46.378662 616.9601,46.378662 "
     id="face_20_22_21_24_25_23_7_6"
     style="fill:#c0c0c0;stroke:none"
     opacity="1"
     transform="translate(-420.69601,-44.378662)" />
  <line
     class="arc1"
     id="link6_@1_7"
     x1="40.240112"
     y1="2"
     x2="2.0000916"
     y2="40.146851" />
  <line
     class="arc0"
     id="link6_@0_20"
     x1="40.240112"
     y1="2"
     x2="196.26407"
     y2="2" />
  <line
     class="arc1"
     id="link17_@1_19"
     x1="368.34427"
     y1="2.000061"
     x2="291.86411"
     y2="40.146912" />
  <line
     class="arc1"
     id="link20_@1_22"
     x1="196.26407"
     y1="2"
     x2="272.74405"
     y2="40.146912" />
  <line
     class="arc0"
     id="link4_@0_14"
     x1="562.60815"
     y1="40.146973"
     x2="562.60815"
     y2="195.79071" />
  <line
     class="arc0"
     id="link7_@0_23"
     x1="2.0000916"
     y1="40.146851"
     x2="2.0000305"
     y2="195.79062" />
  <line
     class="arc2"
     id="link19_@2_22"
     x1="291.86411"
     y1="40.146912"
     x2="272.74405"
     y2="40.146912" />
  <line
     class="arc0"
     id="link19_@0_18"
     x1="291.86411"
     y1="40.146912"
     x2="291.86404"
     y2="195.79065" />
  <line
     class="arc0"
     id="link22_@0_21"
     x1="272.74405"
     y1="40.146912"
     x2="272.74405"
     y2="195.79065" />
  <line
     class="arc1"
     id="link14_@1_16"
     x1="562.60815"
     y1="195.79071"
     x2="524.36804"
     y2="272.08459" />
  <line
     class="arc1"
     id="link18_@1_15"
     x1="291.86404"
     y1="195.79065"
     x2="368.34421"
     y2="272.08453" />
  <line
     class="arc2"
     id="link18_@2_21"
     x1="291.86404"
     y1="195.79065"
     x2="272.74405"
     y2="195.79065" />
  <line
     class="arc1"
     id="link21_@1_24"
     x1="272.74405"
     y1="195.79065"
     x2="196.26401"
     y2="272.0845" />
  <line
     class="arc1"
     id="link23_@1_25"
     x1="2.0000305"
     y1="195.79062"
     x2="40.240082"
     y2="272.08447" />
  <line
     class="arc2"
     id="link15_@2_12"
     x1="368.34421"
     y1="272.08453"
     x2="368.34421"
     y2="291.15799" />
  <line
     class="arc0"
     id="link15_@0_16"
     x1="368.34421"
     y1="272.08453"
     x2="524.36804"
     y2="272.08459" />
  <line
     class="arc2"
     id="link16_@2_13"
     x1="524.36804"
     y1="272.08459"
     x2="524.36804"
     y2="291.15802" />
  <line
     class="arc2"
     id="link24_@2_27"
     x1="196.26401"
     y1="272.0845"
     x2="196.26401"
     y2="291.15796" />
  <line
     class="arc0"
     id="link24_@0_25"
     x1="196.26401"
     y1="272.0845"
     x2="40.240082"
     y2="272.08447" />
  <line
     class="arc2"
     id="link25_@2_28"
     x1="40.240082"
     y1="272.08447"
     x2="40.240082"
     y2="291.15793" />
  <polygon
     points="983.304,411.8304 983.304,567.47424 945.06396,605.62115 789.0402,605.6211 712.56006,567.47424 712.56006,411.83038 789.0402,335.53665 945.064,335.53668 "
     id="face_13_11_3_2_8_10_9_12"
     style="fill:#c0c0c0;stroke:none"
     opacity="1"
     transform="translate(-420.69601,-44.378662)" />
  <line
     class="arc1"
     id="link12_@1_9"
     x1="368.34421"
     y1="291.15799"
     x2="291.86404"
     y2="367.45172" />
  <line
     class="arc0"
     id="link12_@0_13"
     x1="368.34421"
     y1="291.15799"
     x2="524.36804"
     y2="291.15802" />
  <line
     class="arc1"
     id="link13_@1_11"
     x1="524.36804"
     y1="291.15802"
     x2="562.60803"
     y2="367.45175" />
  <polygon
     points="422.69604,411.83032 422.696,567.4742 460.93604,605.62103 616.95996,605.6211 693.44,567.47424 693.44006,411.83038 616.96,335.53662 460.9361,335.5366 "
     id="face_28_26_0_1_29_31_30_27"
     style="fill:#c0c0c0;stroke:none"
     opacity="1"
     transform="translate(-420.69601,-44.378662)" />
  <line
     class="arc1"
     id="link27_@1_30"
     x1="196.26401"
     y1="291.15796"
     x2="272.74405"
     y2="367.45172" />
  <line
     class="arc0"
     id="link27_@0_28"
     x1="196.26401"
     y1="291.15796"
     x2="40.240082"
     y2="291.15793" />
  <line
     class="arc1"
     id="link28_@1_26"
     x1="40.240082"
     y1="291.15793"
     x2="2.0000305"
     y2="367.45166" />
  <line
     class="arc2"
     id="link9_@2_30"
     x1="291.86404"
     y1="367.45172"
     x2="272.74405"
     y2="367.45172" />
  <line
     class="arc0"
     id="link9_@0_10"
     x1="291.86404"
     y1="367.45172"
     x2="291.86404"
     y2="523.09558" />
  <line
     class="arc0"
     id="link11_@0_3"
     x1="562.60803"
     y1="367.45175"
     x2="562.60803"
     y2="523.09558" />
  <line
     class="arc0"
     id="link26_@0_0"
     x1="2.0000305"
     y1="367.45166"
     x2="2"
     y2="523.09552" />
  <line
     class="arc0"
     id="link30_@0_31"
     x1="272.74405"
     y1="367.45172"
     x2="272.74399"
     y2="523.09558" />
  <line
     class="arc1"
     id="link0_@1_1"
     x1="2"
     y1="523.09552"
     x2="40.240021"
     y2="561.24237" />
  <line
     class="arc1"
     id="link3_@1_2"
     x1="562.60803"
     y1="523.09558"
     x2="524.36792"
     y2="561.24249" />
  <line
     class="arc1"
     id="link10_@1_8"
     x1="291.86404"
     y1="523.09558"
     x2="368.34421"
     y2="561.24243" />
  <line
     class="arc2"
     id="link10_@2_31"
     x1="291.86404"
     y1="523.09558"
     x2="272.74399"
     y2="523.09558" />
  <line
     class="arc1"
     id="link31_@1_29"
     x1="272.74399"
     y1="523.09558"
     x2="196.26395"
     y2="561.24243" />
  <line
     class="arc0"
     id="link1_@0_29"
     x1="40.240021"
     y1="561.24237"
     x2="196.26395"
     y2="561.24243" />
  <line
     class="arc0"
     id="link2_@0_8"
     x1="524.36792"
     y1="561.24249"
     x2="368.34421"
     y2="561.24243" />
</svg>
