<?xml version="1.0" encoding="UTF-8" standalone="no"?>
<!-- Created with Inkscape (http://www.inkscape.org/) -->

<svg
   version="1.1"
   id="svg1"
   width="392.57999"
   height="557.33569"
   viewBox="0 0 392.57999 557.3357"
   sodipodi:docname="pn7-short-nolevels-step-4-highlight.svg"
   inkscape:version="1.4 (e7c3feb100, 2024-10-09)"
   xmlns:inkscape="http://www.inkscape.org/namespaces/inkscape"
   xmlns:sodipodi="http://sodipodi.sourceforge.net/DTD/sodipodi-0.dtd"
   xmlns="http://www.w3.org/2000/svg"
   xmlns:svg="http://www.w3.org/2000/svg">
  <sodipodi:namedview
     id="namedview1"
     pagecolor="#ffffff"
     bordercolor="#000000"
     borderopacity="0.25"
     inkscape:showpageshadow="2"
     inkscape:pageopacity="0.0"
     inkscape:pagecheckerboard="0"
     inkscape:deskcolor="#d1d1d1"
     inkscape:zoom="1"
     inkscape:cx="212"
     inkscape:cy="283"
     inkscape:window-width="1892"
     inkscape:window-height="1035"
     inkscape:window-x="1929"
     inkscape:window-y="26"
     inkscape:window-maximized="1"
     inkscape:current-layer="g1"
     showgrid="false">
    <inkscape:page
       x="0"
       y="0"
       inkscape:label="1"
       id="page1"
       width="392.57999"
       height="557.33569"
       margin="0"
       bleed="0" />
  </sodipodi:namedview>
  <defs
     id="defs1">
    <clipPath
       clipPathUnits="userSpaceOnUse"
       id="clipPath9">
      <path
         d="M 0,0 H 414 V 419 H 0 Z"
         id="path9" />
    </clipPath>
    <clipPath
       clipPathUnits="userSpaceOnUse"
       id="clipPath11">
      <path
         d="m 85,365 h 144 v 53 H 85 Z"
         transform="scale(1.3333333)"
         id="path11" />
    </clipPath>
    <clipPath
       clipPathUnits="userSpaceOnUse"
       id="clipPath57">
      <path
         d="M 0,0 H 414 V 419 H 0 Z"
         transform="translate(-404.37599,-32.973571)"
         id="path57" />
    </clipPath>
    <clipPath
       clipPathUnits="userSpaceOnUse"
       id="clipPath58">
      <path
         d="m 406,19 h 7 v 14 h -7 z"
         transform="scale(1.3333333)"
         id="path58" />
    </clipPath>
    <clipPath
       clipPathUnits="userSpaceOnUse"
       id="clipPath60">
      <path
         d="M 0,0 H 414 V 419 H 0 Z"
         transform="translate(-404.37599,-178.97358)"
         id="path60" />
    </clipPath>
    <clipPath
       clipPathUnits="userSpaceOnUse"
       id="clipPath61">
      <path
         d="m 405,165 h 8 v 14 h -8 z"
         transform="scale(1.3333333)"
         id="path61" />
    </clipPath>
    <clipPath
       clipPathUnits="userSpaceOnUse"
       id="clipPath63">
      <path
         d="M 0,0 H 414 V 419 H 0 Z"
         transform="translate(-404.37599,-324.97357)"
         id="path63" />
    </clipPath>
    <clipPath
       clipPathUnits="userSpaceOnUse"
       id="clipPath64">
      <path
         d="m 405,311 h 8 v 15 h -8 z"
         transform="scale(1.3333333)"
         id="path64" />
    </clipPath>
  </defs>
  <g
     id="g1"
     inkscape:groupmode="layer"
     inkscape:label="1"
     transform="translate(0.00238666,0.00238666)">
    <path
       id="path1"
       d="m 21.469,155.191 h 53.933 c 6.036,0 10.899,4.86 10.899,10.899 v 13.82 c 0,6.039 -4.863,10.899 -10.899,10.899 H 21.469 c -6.039,0 -10.899,-4.86 -10.899,-10.899 v -13.82 c 0,-6.039 4.86,-10.899 10.899,-10.899 z"
       style="fill:#999999;fill-opacity:0.13333334;fill-rule:nonzero;stroke:#999999;stroke-opacity:0.75378543"
       transform="scale(1.3333333)" />
    <path
       id="path2"
       d="m 62.477,301.191 h 77.914 c 6.039,0 10.898,4.86 10.898,10.899 v 13.82 c 0,6.039 -4.859,10.899 -10.898,10.899 H 62.477 c -6.036,0 -10.899,-4.86 -10.899,-10.899 v -13.82 c 0,-6.039 4.863,-10.899 10.899,-10.899 z"
       style="fill:#999999;fill-opacity:0.13333334;fill-rule:nonzero;stroke:#999999;stroke-opacity:0.75378543"
       transform="scale(1.3333333)" />
    <path
       id="path3"
       d="m 18.309,9.191 h 47.253 c 6.04,0 10.899,4.86 10.899,10.899 v 13.82 c 0,6.039 -4.859,10.899 -10.899,10.899 H 18.309 C 12.27,44.809 7.41,39.949 7.41,33.91 V 20.09 c 0,-6.039 4.86,-10.899 10.899,-10.899 z"
       style="fill:#d3d3d3;fill-opacity:1;fill-rule:nonzero;stroke:none"
       transform="scale(1.3333333)" />
    <path
       id="path4"
       d="m 12.789,53.496 c 0,0 254.856,0 254.856,0 6.144,0 12.285,-6 12.285,-12 0,0 0,-28.992 0,-28.992 0,-6 -6.141,-12 -12.285,-12 0,0 -254.856,0 -254.856,0 -6.141,0 -12.285,6 -12.285,12 0,0 0,28.992 0,28.992 0,6 6.144,12 12.285,12"
       style="fill:none;stroke:#000000;stroke-width:1.01158;stroke-linecap:butt;stroke-linejoin:miter;stroke-miterlimit:10;stroke-dasharray:none;stroke-opacity:1"
       transform="scale(1.3333333)" />
    <path
       id="path31-5"
       d="m 250.57866,109.33333 h 71.99999 v 48 h -71.99999 z"
       style="fill:none;stroke:#00c0ff;stroke-width:13.33333333;stroke-linecap:butt;stroke-linejoin:miter;stroke-miterlimit:10;stroke-dasharray:none;stroke-opacity:0.79873556" />
    <path
       id="path5"
       d="m 35.934,73.5 h 214 v 53 h -214 z"
       style="fill:none;stroke:#000000;stroke-width:1;stroke-linecap:butt;stroke-linejoin:miter;stroke-miterlimit:10;stroke-dasharray:none;stroke-opacity:1"
       transform="scale(1.3333333)" />
    <path
       id="path6"
       d="m 16.645,199.484 c 0,0 264.527,0 264.527,0 6.375,0 12.746,-5.996 12.746,-11.992 0,0 0,-28.984 0,-28.984 0,-5.996 -6.371,-11.992 -12.746,-11.992 0,0 -264.527,0 -264.527,0 -6.372,0 -12.747,5.996 -12.747,11.992 0,0 0,28.984 0,28.984 0,5.996 6.375,11.992 12.747,11.992"
       style="fill:none;stroke:#999999;stroke-width:1.03041;stroke-linecap:butt;stroke-linejoin:miter;stroke-miterlimit:10;stroke-dasharray:none;stroke-opacity:0.75378543"
       transform="scale(1.3333333)" />
    <path
       id="path7"
       d="m 49.934,219.5 h 214 v 53 h -214 z"
       style="fill:none;stroke:#999999;stroke-width:1;stroke-linecap:butt;stroke-linejoin:miter;stroke-miterlimit:10;stroke-dasharray:none;stroke-opacity:0.75378543"
       transform="scale(1.3333333)" />
    <path
       id="path8"
       d="m 60.113,345.434 c 0,0 152.27,0 152.27,0 7.742,0 15.484,-5.985 15.484,-11.969 0,0 0,-28.93 0,-28.93 0,-5.984 -7.742,-11.969 -15.484,-11.969 0,0 -152.27,0 -152.27,0 -7.742,0 -15.484,5.985 -15.484,11.969 0,0 0,28.93 0,28.93 0,5.984 7.742,11.969 15.484,11.969"
       style="fill:none;stroke:#999999;stroke-width:1.13452;stroke-linecap:butt;stroke-linejoin:miter;stroke-miterlimit:10;stroke-dasharray:none;stroke-opacity:0.75378543"
       transform="scale(1.3333333)" />
    <g
       id="g10"
       clip-path="url(#clipPath11)"
       style="stroke:#999999;stroke-opacity:0.32549021">
      <path
         d="m 85.934,365.5 h 142 v 53 h -142 z"
         style="fill:none;stroke:#999999;stroke-width:1;stroke-linecap:butt;stroke-linejoin:miter;stroke-miterlimit:10;stroke-dasharray:none;stroke-opacity:0.75378543"
         transform="scale(1.3333333)"
         clip-path="url(#clipPath9)"
         id="path10" />
    </g>
    <path
       id="path12"
       d="m 200.434,45 c 0,0 59,0 59,0 6,0 12,-6 12,-12 0,0 0,-12 0,-12 0,-6 -6,-12 -12,-12 0,0 -59,0 -59,0 -6,0 -12,6 -12,12 0,0 0,12 0,12 0,6 6,12 12,12"
       style="fill:none;stroke:#000000;stroke-width:1;stroke-linecap:butt;stroke-linejoin:miter;stroke-miterlimit:10;stroke-dasharray:none;stroke-opacity:1"
       transform="scale(1.3333333)" />
    <text
       id="text12"
       xml:space="preserve"
       transform="matrix(1.3333333,0,0,1.3333333,261.91277,40.9323)"><tspan
         style="font-variant:normal;font-weight:normal;font-size:14.0002px;font-family:'Liberation Serif';writing-mode:lr-tb;fill:#000000;fill-opacity:1;fill-rule:nonzero;stroke:none"
         x="0 9.0020189 18.004038 26.247913 34.496384 42.754261 47.248432 56.994923"
         y="0"
         sodipodi:role="line"
         id="tspan12">CREATION</tspan></text>
    <path
       id="path13"
       d="m 187.934,82 h 54 v 36 h -54 z"
       style="fill:none;stroke:#000000;stroke-width:1;stroke-linecap:butt;stroke-linejoin:miter;stroke-miterlimit:10;stroke-dasharray:none;stroke-opacity:1"
       transform="scale(1.3333333)" />
    <path
       id="path14"
       d="m 3.8212864,2.1328052 c 0,0.1699219 -0.099609,0.2578125 -0.2929688,0.2578125 -0.102539,0 -0.1992187,-0.1054687 -0.2929687,-0.3164062 L 0.62206763,-3.9843823 3.2353489,-10.031257 c 0.09375,-0.210938 0.1904297,-0.316407 0.2929687,-0.316407 0.1933594,0 0.2929688,0.08789 0.2929688,0.257813 0,0.0791 -0.020508,0.1611328 -0.058594,0.2460937 l -2.5429687,5.859375 2.5429687,5.8710938 c 0.038086,0.084961 0.058594,0.1669922 0.058594,0.2460937 z m 0,0"
       style="fill:#000000;fill-opacity:1;fill-rule:nonzero;stroke:none"
       aria-label="⟨"
       transform="matrix(1.3333333,0,0,1.3333333,279.91276,138.26563)" />
    <path
       id="path15"
       d="M 3.9387456,-3.9843823 1.3254643,2.0742115 C 1.2317143,2.285149 1.132105,2.3906177 1.0324956,2.3906177 c -0.19628908,0 -0.29296877,-0.087891 -0.29296877,-0.2578125 0,-0.079102 0.0175781,-0.1611328 0.0585938,-0.2460937 L 3.3293706,-3.9843823 0.79812058,-9.8437573 c -0.0410156,-0.084961 -0.0585938,-0.1669917 -0.0585938,-0.2460937 0,-0.169922 0.0966797,-0.257813 0.29296872,-0.257813 0.099609,0 0.1992187,0.105469 0.2929687,0.316407 z m 0,0"
       style="fill:#000000;fill-opacity:1;fill-rule:nonzero;stroke:none"
       aria-label="⟩"
       transform="matrix(1.3333333,0,0,1.3333333,285.9085,138.26563)" />
    <path
       id="path16"
       d="m 226.301,45.188 c -1.692,8.023 -3.75,17.765 -5.649,26.742"
       style="fill:none;stroke:#000000;stroke-width:1;stroke-linecap:butt;stroke-linejoin:miter;stroke-miterlimit:10;stroke-dasharray:none;stroke-opacity:1"
       transform="scale(1.3333333)" />
    <path
       id="path17"
       d="m 224.023,72.91 -5.492,9.063 -1.355,-10.508 z"
       style="fill:#010000;fill-opacity:1;fill-rule:nonzero;stroke:#000000;stroke-width:1;stroke-linecap:butt;stroke-linejoin:miter;stroke-miterlimit:10;stroke-dasharray:none;stroke-opacity:1"
       transform="scale(1.3333333)" />
    <path
       id="path18"
       d="m 214.434,191 c 0,0 59,0 59,0 6,0 12,-6 12,-12 0,0 0,-12 0,-12 0,-6 -6,-12 -12,-12 0,0 -59,0 -59,0 -6,0 -12,6 -12,12 0,0 0,12 0,12 0,6 6,12 12,12"
       style="fill:none;stroke:#999999;stroke-width:1;stroke-linecap:butt;stroke-linejoin:miter;stroke-miterlimit:10;stroke-dasharray:none;stroke-opacity:0.75378543"
       transform="scale(1.3333333)" />
    <text
       id="text18"
       xml:space="preserve"
       transform="matrix(1.3333333,0,0,1.3333333,280.57943,235.59895)"
       style="fill:#999999;fill-opacity:1;stroke-width:0.99975002;stroke-dasharray:none"><tspan
         style="font-variant:normal;font-weight:normal;font-size:14.0002px;font-family:'Liberation Serif';writing-mode:lr-tb;fill:#999999;fill-opacity:1;fill-rule:nonzero;stroke:none;stroke-width:0.99975002;stroke-dasharray:none"
         x="0"
         y="0"
         id="tspan18">C</tspan></text>
    <text
       id="text19"
       xml:space="preserve"
       transform="matrix(1.3333333,0,0,1.3333333,292.58212,235.59895)"
       style="fill:#999999;fill-opacity:1;stroke-width:0.99975002;stroke-dasharray:none"><tspan
         style="font-variant:normal;font-weight:normal;font-size:14.0002px;font-family:'Liberation Serif';writing-mode:lr-tb;fill:#999999;fill-opacity:1;fill-rule:nonzero;stroke:none;stroke-width:0.99975002;stroke-dasharray:none"
         x="0 9.0020189 17.245895 25.494364 33.752239 38.246414 47.992905"
         y="0"
         sodipodi:role="line"
         id="tspan19">REATION</tspan></text>
    <path
       id="path19"
       d="m 221.953,118.188 c 3.348,8.199 7.43,18.187 11.164,27.328"
       style="fill:none;stroke:#999999;stroke-width:1;stroke-linecap:butt;stroke-linejoin:miter;stroke-miterlimit:10;stroke-dasharray:none;stroke-opacity:0.75378543"
       transform="scale(1.3333333)" />
    <path
       id="path20"
       d="m 236.438,144.391 0.539,10.582 -7.02,-7.938 z"
       style="fill:#999999;fill-opacity:0.32549021;fill-rule:nonzero;stroke:none;stroke-width:1;stroke-linecap:butt;stroke-linejoin:miter;stroke-miterlimit:10;stroke-dasharray:none;stroke-opacity:1"
       transform="scale(1.3333333)" />
    <path
       id="path21"
       d="m 99.434,45 c 0,0 59,0 59,0 6,0 12,-6 12,-12 0,0 0,-12 0,-12 0,-6 -6,-12 -12,-12 0,0 -59,0 -59,0 -6,0 -12,6 -12,12 0,0 0,12 0,12 0,6 6,12 12,12"
       style="fill:none;stroke:#000000;stroke-width:1;stroke-linecap:butt;stroke-linejoin:miter;stroke-miterlimit:10;stroke-dasharray:none;stroke-opacity:1"
       transform="scale(1.3333333)" />
    <text
       id="text21"
       xml:space="preserve"
       transform="matrix(1.3333333,0,0,1.3333333,127.24611,40.9323)"><tspan
         style="font-variant:normal;font-weight:normal;font-size:14.0002px;font-family:'Liberation Serif';writing-mode:lr-tb;fill:#000000;fill-opacity:1;fill-rule:nonzero;stroke:none"
         x="0 9.0020189 18.004038 26.247913 34.496384 42.754261 47.248432 56.994923"
         y="0"
         sodipodi:role="line"
         id="tspan21">CREATION</tspan></text>
    <path
       id="path31-3"
       d="m 154.57867,109.33333 h 71.99999 v 48 h -71.99999 z"
       style="fill:none;stroke:#ffc000;stroke-width:13.33333333;stroke-linecap:butt;stroke-linejoin:miter;stroke-miterlimit:10;stroke-dasharray:none;stroke-opacity:0.80000001" />
    <path
       id="path22"
       d="m 115.934,82 h 54 v 36 h -54 z"
       style="fill:none;stroke:#000000;stroke-width:1;stroke-linecap:butt;stroke-linejoin:miter;stroke-miterlimit:10;stroke-dasharray:none;stroke-opacity:1"
       transform="scale(1.3333333)" />
    <path
       id="path23"
       d="m 3.8212834,2.1328052 c 0,0.1699219 -0.099609,0.2578125 -0.2929688,0.2578125 -0.102539,0 -0.1992187,-0.1054687 -0.2929687,-0.3164062 L 0.62206463,-3.9843823 3.2353459,-10.031257 c 0.09375,-0.210938 0.1904297,-0.316407 0.2929687,-0.316407 0.1933594,0 0.2929688,0.08789 0.2929688,0.257813 0,0.0791 -0.020508,0.1611328 -0.058594,0.2460937 l -2.5429687,5.859375 2.5429687,5.8710938 c 0.038086,0.084961 0.058594,0.1669922 0.058594,0.2460937 z m 0,0"
       style="fill:#000000;fill-opacity:1;fill-rule:nonzero;stroke:none"
       aria-label="⟨"
       transform="matrix(1.3333333,0,0,1.3333333,179.91277,138.26563)" />
    <text
       id="text23"
       xml:space="preserve"
       transform="matrix(1.3333333,0,0,1.3333333,185.9085,138.26563)"><tspan
         style="font-variant:normal;font-weight:normal;font-size:14.0002px;font-family:'Liberation Serif';writing-mode:lr-tb;fill:#000000;fill-opacity:1;fill-rule:nonzero;stroke:none"
         x="0"
         y="0"
         id="tspan23">0</tspan></text>
    <path
       id="path24"
       d="M 3.9377165,-3.9843823 1.3244352,2.0742115 c -0.09375,0.2109375 -0.1933593,0.3164062 -0.2929687,0.3164062 -0.19628907,0 -0.29296876,-0.087891 -0.29296876,-0.2578125 0,-0.079102 0.0175781,-0.1611328 0.0585938,-0.2460937 L 3.3283415,-3.9843823 0.79709149,-9.8437573 c -0.0410156,-0.084961 -0.0585938,-0.1669917 -0.0585938,-0.2460937 0,-0.169922 0.0966797,-0.257813 0.29296871,-0.257813 0.099609,0 0.1992187,0.105469 0.2929687,0.316407 z m 0,0"
       style="fill:#000000;fill-opacity:1;fill-rule:nonzero;stroke:none"
       aria-label="⟩"
       transform="matrix(1.3333333,0,0,1.3333333,194.90596,138.26563)" />
    <path
       id="path25"
       d="m 132.324,45.188 c 1.582,8.023 3.5,17.765 5.274,26.742"
       style="fill:none;stroke:#000000;stroke-width:1;stroke-linecap:butt;stroke-linejoin:miter;stroke-miterlimit:10;stroke-dasharray:none;stroke-opacity:1"
       transform="scale(1.3333333)" />
    <path
       id="path26"
       d="m 141.074,71.484 -1.5,10.489 -5.367,-9.137 z"
       style="fill:#010000;fill-opacity:1;fill-rule:nonzero;stroke:#000000;stroke-width:1;stroke-linecap:butt;stroke-linejoin:miter;stroke-miterlimit:10;stroke-dasharray:none;stroke-opacity:1"
       transform="scale(1.3333333)" />
    <path
       id="path27"
       d="m 113.434,191 c 0,0 59,0 59,0 6,0 12,-6 12,-12 0,0 0,-12 0,-12 0,-6 -6,-12 -12,-12 0,0 -59,0 -59,0 -6,0 -12,6 -12,12 0,0 0,12 0,12 0,6 6,12 12,12"
       style="fill:none;stroke:#999999;stroke-width:1;stroke-linecap:butt;stroke-linejoin:miter;stroke-miterlimit:10;stroke-dasharray:none;stroke-opacity:0.75378543"
       transform="scale(1.3333333)" />
    <text
       id="text27"
       xml:space="preserve"
       transform="matrix(1.3333333,0,0,1.3333333,145.91277,235.59895)"
       style="fill:#999999;fill-opacity:1;stroke-width:0.99975002;stroke-dasharray:none"><tspan
         style="font-variant:normal;font-weight:normal;font-size:14.0002px;font-family:'Liberation Serif';writing-mode:lr-tb;fill:#999999;fill-opacity:1;fill-rule:nonzero;stroke:none;stroke-width:0.99975002;stroke-dasharray:none"
         x="0"
         y="0"
         id="tspan27">C</tspan></text>
    <text
       id="text28"
       xml:space="preserve"
       transform="matrix(1.3333333,0,0,1.3333333,157.91546,235.59895)"
       style="fill:#999999;fill-opacity:1;stroke-width:0.99975002;stroke-dasharray:none"><tspan
         style="font-variant:normal;font-weight:normal;font-size:14.0002px;font-family:'Liberation Serif';writing-mode:lr-tb;fill:#999999;fill-opacity:1;fill-rule:nonzero;stroke:none;stroke-width:0.99975002;stroke-dasharray:none"
         x="0 9.0020189 17.245895 25.494364 33.752239 38.246414 47.992905"
         y="0"
         sodipodi:role="line"
         id="tspan28">REATION</tspan></text>
    <path
       id="path28"
       d="m 142.934,118.188 c 0,8.023 0,17.765 0,26.742"
       style="fill:none;stroke:#999999;stroke-width:1;stroke-linecap:butt;stroke-linejoin:miter;stroke-miterlimit:10;stroke-dasharray:none;stroke-opacity:0.75378543"
       transform="scale(1.3333333)" />
    <path
       id="path29"
       d="m 146.434,144.973 -3.5,10 -3.5,-10 z"
       style="fill:#999999;fill-opacity:0.32549021;fill-rule:nonzero;stroke:none;stroke-width:1;stroke-linecap:butt;stroke-linejoin:miter;stroke-miterlimit:10;stroke-dasharray:none;stroke-opacity:1"
       transform="scale(1.3333333)" />
    <path
       id="path30"
       d="M 5.8465649,9.703125e-4 C 5.5242993,-0.02832656 5.2166821,-0.04590469 4.9207837,-0.04590469 h -2.765625 c -0.2900391,0 -0.5947266,0.01757813 -0.9140625,0.0468750025 V -0.43262344 c 0.052734,0 0.1347656,0.005859 0.2460937,0.0117188 0.1171875,0 0.2050782,0 0.2695313,0 0.6943359,0 1.0927734,-0.0966797 1.1953125,-0.29296875 0.038086,-0.0849609 0.058594,-0.20507812 0.058594,-0.36328121 v -7.4296876 c -0.4921875,0.2431641 -1.1103515,0.3632813 -1.8515625,0.3632813 v -0.4335938 c 1.1308594,0 1.9951172,-0.3046875 2.5898438,-0.9140625 h 0.070312 c 0.1318359,0 0.2109375,0.032227 0.234375,0.09375 0.014648,0.032227 0.023437,0.1230469 0.023437,0.2695313 v 8.0742187 c 0,0.14941413 0.014648,0.26367194 0.046875,0.33984381 0.070312,0.15820313 0.3398437,0.25195313 0.8085937,0.28125 0.061523,0 0.366211,0 0.9140625,0 z M 11.606331,-3.9834047 c 0,0.1875 -0.08789,0.28125 -0.257813,0.28125 H 7.9149243 c -0.1816406,0 -0.2695312,-0.09375 -0.2695312,-0.28125 0,-0.1875 0.087891,-0.28125 0.2695312,-0.28125 h 3.4335937 c 0.169922,0 0.257813,0.09375 0.257813,0.28125 z m 5.789062,2.109375 c 0,0.6650391 -0.234375,1.18066408 -0.703125,1.54687501 -0.416016,0.3281250025 -0.966797,0.4921875 -1.652344,0.4921875 -0.641601,0 -1.180664,-0.2109375 -1.617187,-0.6328125 -0.351563,0.421875 -0.571289,0.6328125 -0.65625,0.6328125 -0.102539,0 -0.152344,-0.07617187 -0.152344,-0.22265625 V -2.2607484 c 0,-0.1464844 0.06152,-0.2226563 0.1875,-0.2226563 0.09375,0 0.158203,0.082031 0.199219,0.2460938 0.169922,0.665039 0.380859,1.1484375 0.632812,1.45312496 0.328125,0.41601563 0.796875,0.62109375 1.40625,0.62109375 0.46875,0 0.84961,-0.0996094 1.148438,-0.3046875 0.333984,-0.24023437 0.503906,-0.58593751 0.503906,-1.03125001 0,-0.6708984 -0.509766,-1.1162109 -1.523437,-1.3359375 -0.585938,-0.1230469 -0.925782,-0.1992187 -1.019532,-0.2226562 -0.375,-0.1083985 -0.679687,-0.2607422 -0.914062,-0.4570313 -0.416016,-0.3427734 -0.621094,-0.7617187 -0.621094,-1.2539062 0,-0.609375 0.246094,-1.0722657 0.738281,-1.3945313 0.421875,-0.2636719 0.952149,-0.3984375 1.59375,-0.3984375 0.539063,0 0.996094,0.1376953 1.371094,0.4101563 0.272461,-0.272461 0.457031,-0.4101563 0.550781,-0.4101563 0.108399,0 0.164063,0.076172 0.164063,0.2226563 v 1.734375 c 0,0.1640625 -0.06738,0.2460937 -0.199219,0.2460937 -0.102539,0 -0.172851,-0.09668 -0.210937,-0.2929687 -0.01758,-0.140625 -0.03223,-0.2753907 -0.04687,-0.4101563 -0.07031,-0.3984375 -0.263672,-0.7060547 -0.574219,-0.9257812 -0.28125,-0.1933594 -0.632813,-0.2929688 -1.054688,-0.2929688 -0.430664,0 -0.791015,0.079102 -1.078125,0.234375 -0.375,0.1962891 -0.5625,0.4892578 -0.5625,0.8789063 0,0.3925781 0.213868,0.6884765 0.644532,0.890625 0.216796,0.102539 0.603515,0.2080078 1.160156,0.3164062 0.773437,0.1494141 1.327148,0.3808594 1.664062,0.6914063 0.413086,0.3925781 0.621094,0.8554687 0.621094,1.3945312 z m 7.910156,4.7109375 c -0.758789,-0.023437 -1.30664,-0.035156 -1.640625,-0.035156 -0.360351,0 -0.911132,0.011719 -1.652343,0.035156 V 2.3798766 c 0.169921,0.00586 0.28125,0.011719 0.328125,0.011719 0.310546,0 0.518554,-0.032227 0.621093,-0.09375 0.140625,-0.087891 0.210938,-0.2753906 0.210938,-0.5625 v -2.62499999 c -0.524414,0.703125 -1.171875,1.0546875 -1.945313,1.0546875 -0.875976,0 -1.617187,-0.33398437 -2.226562,-1.0078125 -0.594727,-0.64746091 -0.890625,-1.41210941 -0.890625,-2.29687501 0,-0.8964844 0.310547,-1.6757812 0.9375,-2.3320312 0.632812,-0.6621094 1.394531,-0.9960938 2.285156,-0.9960938 0.421875,0 0.811524,0.1259766 1.171875,0.375 0.342774,0.2431641 0.609375,0.5595703 0.796875,0.9492188 l 0.550781,-1.3242188 h 0.316407 v 8.203125 c 0,0.2021485 0.02637,0.3544922 0.08203,0.4570313 0.09375,0.1552734 0.445312,0.2167968 1.054687,0.1875 z m -2.097656,-4.828125 v -2.0507812 c 0,-0.515625 -0.164062,-0.9785157 -0.492187,-1.3945313 -0.360352,-0.4453125 -0.791016,-0.6679687 -1.289063,-0.6679687 -0.439453,0 -0.837891,0.1757812 -1.195312,0.5273437 -0.313477,0.3046875 -0.547852,0.6855469 -0.703125,1.1367188 -0.140625,0.3984375 -0.210938,0.8320312 -0.210938,1.3007812 0,0.6972656 0.152344,1.3359375 0.457031,1.921875 0.366211,0.70312501 0.867188,1.05468751 1.5,1.05468751 0.46875,0 0.905274,-0.1875 1.3125,-0.5625 0.413086,-0.37500001 0.621094,-0.79687501 0.621094,-1.26562501 z M 33.391487,9.703125e-4 31.282112,0.16503281 V -1.1591859 c -0.407227,0.88476559 -1.03711,1.32421871 -1.886719,1.32421871 -0.875976,0 -1.473633,-0.19921875 -1.792969,-0.59765625 -0.290039,-0.35742187 -0.433593,-0.98730466 -0.433593,-1.88671876 v -2.5664062 c 0,-0.459961 -0.08203,-0.7441407 -0.246094,-0.8554688 -0.111328,-0.070312 -0.407227,-0.1054687 -0.890625,-0.1054687 v -0.46875 l 2.144531,-0.1523438 v 4.8515625 c 0,0.5244141 0.08203,0.89062501 0.246094,1.10156251 0.193359,0.234375 0.541992,0.3515625 1.042969,0.3515625 0.5625,0 1.007812,-0.24609375 1.335937,-0.73828125 0.287109,-0.42773436 0.433594,-0.94042966 0.433594,-1.53515626 v -2.5898437 c 0,-0.3984375 -0.102539,-0.647461 -0.304688,-0.75 -0.117187,-0.052734 -0.395507,-0.076172 -0.832031,-0.070312 v -0.46875 l 2.144531,-0.1523438 v 5.203125 c 0,0.39843751 0.105469,0.65039064 0.316407,0.75000001 0.108398,0.0556641 0.386718,0.0761719 0.832031,0.0585937 z m 7.3125,-1.3007812125 c 0,0.38378903 -0.105469,0.70312496 -0.316406,0.96093746 -0.219727,0.28125 -0.515625,0.421875 -0.890625,0.421875 -0.313477,0 -0.574219,-0.12304687 -0.785157,-0.375 -0.205078,-0.21679687 -0.322265,-0.4921875 -0.351562,-0.82031246 -0.164063,0.39257809 -0.418945,0.70312496 -0.761719,0.93749996 -0.345703,0.22558594 -0.732422,0.33984375 -1.160156,0.33984375 -0.580078,0 -1.086914,-0.11425781 -1.523438,-0.33984375 -0.539062,-0.28125 -0.808593,-0.68554687 -0.808593,-1.21874996 0,-0.8115235 0.483398,-1.4472657 1.453125,-1.9101563 0.600586,-0.2724609 1.5,-0.4453125 2.695312,-0.515625 v -0.5390625 c 0,-0.4980469 -0.128906,-0.9257812 -0.386719,-1.2773437 -0.290039,-0.3984375 -0.676757,-0.5976563 -1.160156,-0.5976563 -0.703125,0 -1.230469,0.2285156 -1.582031,0.6796875 0.210937,0 0.386719,0.064453 0.527344,0.1875 0.146484,0.1171875 0.222656,0.2783203 0.222656,0.4804688 0,0.1875 -0.06738,0.3486328 -0.199219,0.4804687 -0.125976,0.1259766 -0.287109,0.1875 -0.480469,0.1875 -0.445312,0 -0.667968,-0.2255859 -0.667968,-0.6796875 0,-0.515625 0.246093,-0.9316406 0.738281,-1.2539062 0.436523,-0.272461 0.928711,-0.4101563 1.476562,-0.4101563 0.826172,0 1.494141,0.2695313 2.003907,0.8085938 0.225586,0.2519531 0.375,0.5214843 0.445312,0.8085937 0.04687,0.2050781 0.07031,0.5097656 0.07031,0.9140625 v 2.9179688 c 0,0.18749996 0.04687,0.35156246 0.140625,0.49218746 0.09375,0.1640625 0.225586,0.24609375 0.398437,0.24609375 0.357422,0 0.539063,-0.3984375 0.539063,-1.19531251 0,-0.1230469 -0.0059,-0.3046875 -0.01172,-0.5390625 h 0.375 z m -2.449219,-0.75 v -1.4648438 c -0.782226,0.032227 -1.447266,0.1962891 -1.992187,0.4921875 -0.688477,0.3691406 -1.03125,0.9023438 -1.03125,1.6054688 0,0.3603515 0.128906,0.66210934 0.386718,0.90234371 0.257813,0.234375 0.56543,0.3515625 0.925782,0.3515625 0.498046,0 0.914062,-0.19042968 1.242187,-0.57421875 0.310547,-0.35742186 0.46875,-0.79687496 0.46875,-1.31249996 z m 8.077149,-3.5273438 c 0,0.1875 -0.05859,0.3457031 -0.175782,0.46875 -0.117187,0.1171875 -0.266601,0.1757813 -0.445312,0.1757813 -0.181641,0 -0.333985,-0.058594 -0.457031,-0.1757813 -0.117188,-0.1171875 -0.175782,-0.2636719 -0.175782,-0.4453125 0,-0.2958984 0.108399,-0.4863281 0.328125,-0.5742187 -0.02344,-0.014648 -0.05566,-0.023437 -0.09375,-0.023437 -0.618164,0 -1.089843,0.3222656 -1.417968,0.9609375 -0.251954,0.5097656 -0.375,1.1074218 -0.375,1.7929687 v 2.3671875 c 0,0.28125001 0.128906,0.45703126 0.386718,0.52734376 0.09961,0.0322266 0.345703,0.046875 0.738282,0.046875 h 0.292968 V 9.703125e-4 C 44.568245,-0.02832656 44.23719,-0.04590469 43.941292,-0.04590469 h -1.195313 c -0.172852,0 -0.392578,0.0087891 -0.65625,0.0234375 C 41.720588,-0.00488906 41.497932,9.703125e-4 41.42176,9.703125e-4 V -0.45606094 c 0.04687,0 0.120117,0.005859 0.222657,0.0117188 0.09961,0.008789 0.17871,0.0117188 0.234375,0.0117188 0.451171,0 0.679687,-0.22558593 0.679687,-0.67968746 v -3.9140625 c 0,-0.3984375 -0.102539,-0.647461 -0.304687,-0.75 -0.111329,-0.046875 -0.386719,-0.070312 -0.832032,-0.070312 v -0.46875 l 2.027344,-0.1523438 v 1.6054688 c 0.351563,-1.069336 0.949219,-1.6054688 1.792969,-1.6054688 0.272461,0 0.518554,0.079102 0.738281,0.234375 0.234375,0.1816406 0.351563,0.3984375 0.351563,0.6562494 z m 6.375,3.84375 c 0,0.1347656 -0.0791,0.3369141 -0.234375,0.609375 -0.509766,0.86132814 -1.242188,1.28906251 -2.203125,1.28906251 -0.908204,0 -1.672852,-0.33984375 -2.296875,-1.01953125 C 47.354377,-1.5166078 47.04676,-2.3076234 47.04676,-3.2216859 c 0,-0.881836 0.28125,-1.6523438 0.84375,-2.3085938 0.591797,-0.6855469 1.327149,-1.03125 2.203125,-1.03125 0.820313,0 1.464844,0.28125 1.933594,0.84375 0.451172,0.5244141 0.679688,1.2011719 0.679688,2.0273438 0,0.2578125 -0.123047,0.3867187 -0.363282,0.3867187 h -4.089843 c 0,0.9375 0.146484,1.640625 0.445312,2.109375 0.404297,0.65625001 0.955078,0.98437501 1.652344,0.98437501 0.896484,0 1.558594,-0.49804687 1.980469,-1.50000001 0.05273,-0.1318359 0.117187,-0.1992187 0.1875,-0.1992187 0.123046,0 0.1875,0.058594 0.1875,0.1757812 z m -0.960938,-2.015625 c -0.0088,-0.6386719 -0.128906,-1.1835937 -0.363281,-1.6289062 -0.290039,-0.5683594 -0.720703,-0.8554688 -1.289063,-0.8554688 -0.1875,0 -0.395508,0.055664 -0.621093,0.1640625 -0.735352,0.3515625 -1.13379,1.125 -1.195313,2.3203125 z m 0,0"
       style="fill:#000000;fill-opacity:1;fill-rule:nonzero;stroke:none"
       aria-label="1-square"
       transform="matrix(1.3333333,0,0,1.3333333,20.005361,40.9323)" />
    <path
       id="path31"
       d="m 201.934,228 h 54 v 36 h -54 z"
       style="fill:none;stroke:#999999;stroke-width:1;stroke-linecap:butt;stroke-linejoin:miter;stroke-miterlimit:10;stroke-dasharray:none;stroke-opacity:0.75378543"
       transform="scale(1.3333333)" />
    <g
       id="g3"
       style="fill:#999999;fill-opacity:0.32549021">
      <path
         id="path32"
         d="m 3.8193333,2.1337968 c 0,0.1699219 -0.099609,0.2578125 -0.2929688,0.2578125 -0.1025391,0 -0.1992187,-0.1054687 -0.2929687,-0.3164062 L 0.6201145,-3.9833907 3.2333958,-10.030266 c 0.09375,-0.210937 0.1904296,-0.316406 0.2929687,-0.316406 0.1933594,0 0.2929688,0.08789 0.2929688,0.257813 0,0.0791 -0.020508,0.1611324 -0.058594,0.2460933 l -2.5429687,5.859375 2.5429687,5.8710938 c 0.038086,0.084961 0.058594,0.1669922 0.058594,0.2460937 z m 0,0"
         style="fill:#999999;fill-opacity:1;fill-rule:nonzero;stroke:none;stroke-width:0.99975002;stroke-dasharray:none"
         aria-label="⟨"
         transform="matrix(1.3333333,0,0,1.3333333,294.57943,332.93228)" />
      <text
         id="text32"
         xml:space="preserve"
         transform="matrix(1.3333333,0,0,1.3333333,300.57516,332.93228)"
         style="fill:#999999;fill-opacity:1;stroke-width:0.99975002;stroke-dasharray:none"><tspan
           style="font-variant:normal;font-weight:normal;font-size:14.0002px;font-family:'Liberation Serif';writing-mode:lr-tb;fill:#999999;fill-opacity:1;fill-rule:nonzero;stroke:none;stroke-width:0.99975002;stroke-dasharray:none"
           x="0"
           y="0"
           id="tspan32">0</tspan></text>
      <path
         id="path33"
         d="M 3.9386961,-3.9833907 1.3254148,2.0752031 c -0.09375,0.2109375 -0.1933594,0.3164062 -0.2929687,0.3164062 -0.19628911,0 -0.29296879,-0.087891 -0.29296879,-0.2578125 0,-0.079101 0.0175781,-0.1611328 0.0585938,-0.2460937 L 3.3293211,-3.9833907 0.79807106,-9.8427657 c -0.0410156,-0.084961 -0.0585938,-0.1669923 -0.0585938,-0.2460933 0,-0.169922 0.0966797,-0.257813 0.29296874,-0.257813 0.099609,0 0.1992187,0.105469 0.2929687,0.316406 z m 0,0"
         style="fill:#999999;fill-opacity:1;fill-rule:nonzero;stroke:none;stroke-width:0.99975002;stroke-dasharray:none"
         aria-label="⟩"
         transform="matrix(1.3333333,0,0,1.3333333,309.57262,332.93228)" />
    </g>
    <path
       id="path34"
       d="m 240.301,191.188 c -1.692,8.023 -3.75,17.765 -5.649,26.742"
       style="fill:none;stroke:#999999;stroke-width:1;stroke-linecap:butt;stroke-linejoin:miter;stroke-miterlimit:10;stroke-dasharray:none;stroke-opacity:0.75378543"
       transform="scale(1.3333333)" />
    <path
       id="path35"
       d="m 238.023,218.91 -5.492,9.063 -1.355,-10.508 z"
       style="fill:#999999;fill-opacity:0.32549021;fill-rule:nonzero;stroke:none;stroke-width:1;stroke-linecap:butt;stroke-linejoin:miter;stroke-miterlimit:10;stroke-dasharray:none;stroke-opacity:1"
       transform="scale(1.3333333)" />
    <path
       id="path36"
       d="m 129.934,228 h 54 v 36 h -54 z"
       style="fill:none;stroke:#999999;stroke-width:1;stroke-linecap:butt;stroke-linejoin:miter;stroke-miterlimit:10;stroke-dasharray:none;stroke-opacity:0.75378543"
       transform="scale(1.3333333)" />
    <g
       id="g2"
       style="fill:#999999;fill-opacity:0.32549021">
      <path
         id="path37"
         d="m 3.8193313,2.1337968 c 0,0.1699219 -0.099609,0.2578125 -0.2929688,0.2578125 -0.1025391,0 -0.1992187,-0.1054687 -0.2929687,-0.3164062 L 0.6201125,-3.9833907 3.2333938,-10.030266 c 0.09375,-0.210937 0.1904296,-0.316406 0.2929687,-0.316406 0.1933594,0 0.2929688,0.08789 0.2929688,0.257813 0,0.0791 -0.020508,0.1611324 -0.058594,0.2460933 l -2.5429687,5.859375 2.5429687,5.8710938 c 0.038086,0.084961 0.058594,0.1669922 0.058594,0.2460937 z m 0,0"
         style="fill:#999999;fill-opacity:1;fill-rule:nonzero;stroke:none;stroke-width:0.99975002;stroke-dasharray:none"
         aria-label="⟨"
         transform="matrix(1.3333333,0,0,1.3333333,188.57943,332.93228)" />
      <text
         id="text37"
         xml:space="preserve"
         transform="matrix(1.3333333,0,0,1.3333333,194.57516,332.93228)"
         style="fill:#999999;fill-opacity:1;stroke-width:0.99975002;stroke-dasharray:none"><tspan
           style="font-variant:normal;font-weight:normal;font-size:14.0002px;font-family:'Liberation Serif';writing-mode:lr-tb;fill:#999999;fill-opacity:1;fill-rule:nonzero;stroke:none;stroke-width:0.99975002;stroke-dasharray:none"
           x="0 6.7480965 10.50015 14.252204"
           y="0"
           sodipodi:role="line"
           id="tspan37">0, 1</tspan></text>
      <path
         id="path38"
         d="M 3.9364905,-3.9833907 1.3232092,2.0752031 c -0.09375,0.2109375 -0.1933594,0.3164062 -0.2929687,0.3164062 -0.19628911,0 -0.29296879,-0.087891 -0.29296879,-0.2578125 0,-0.079101 0.0175781,-0.1611328 0.0585938,-0.2460937 L 3.3271155,-3.9833907 0.79586546,-9.8427657 c -0.0410156,-0.084961 -0.0585938,-0.1669923 -0.0585938,-0.2460933 0,-0.169922 0.0966797,-0.257813 0.29296874,-0.257813 0.099609,0 0.1992187,0.105469 0.2929687,0.316406 z m 0,0"
         style="fill:#999999;fill-opacity:1;fill-rule:nonzero;stroke:none;stroke-width:0.99975002;stroke-dasharray:none"
         aria-label="⟩"
         transform="matrix(1.3333333,0,0,1.3333333,222.57556,332.93228)" />
    </g>
    <path
       id="path39"
       d="m 146.324,191.188 c 1.582,8.023 3.5,17.765 5.274,26.742"
       style="fill:none;stroke:#999999;stroke-width:1;stroke-linecap:butt;stroke-linejoin:miter;stroke-miterlimit:10;stroke-dasharray:none;stroke-opacity:0.75378543"
       transform="scale(1.3333333)" />
    <path
       id="path40"
       d="m 155.074,217.484 -1.5,10.489 -5.367,-9.137 z"
       style="fill:#999999;fill-opacity:0.32549021;fill-rule:nonzero;stroke:none;stroke-width:1;stroke-linecap:butt;stroke-linejoin:miter;stroke-miterlimit:10;stroke-dasharray:none;stroke-opacity:1"
       transform="scale(1.3333333)" />
    <path
       id="path41"
       d="m 43.934,82 h 54 v 36 h -54 z"
       style="fill:#add8e6;fill-opacity:1;fill-rule:nonzero;stroke:#add8e6;stroke-width:1;stroke-linecap:butt;stroke-linejoin:miter;stroke-miterlimit:10;stroke-dasharray:none;stroke-opacity:1"
       transform="scale(1.3333333)" />
    <text
       id="text41"
       xml:space="preserve"
       transform="matrix(1.3333333,0,0,1.3333333,85.246107,138.26563)"><tspan
         style="font-variant:normal;font-weight:normal;font-size:14.0002px;font-family:'Liberation Serif';writing-mode:lr-tb;fill:#000000;fill-opacity:1;fill-rule:nonzero;stroke:none"
         x="0"
         y="0"
         id="tspan41">n</tspan></text>
    <text
       id="text42"
       xml:space="preserve"
       transform="matrix(1.3333333,0,0,1.3333333,94.243569,138.26563)"><tspan
         style="font-variant:normal;font-weight:normal;font-size:14.0002px;font-family:'Liberation Serif';writing-mode:lr-tb;fill:#000000;fill-opacity:1;fill-rule:nonzero;stroke:none"
         x="0"
         y="0"
         id="tspan42">3</tspan></text>
    <path
       id="path42"
       d="m 177.934,337 c 0,0 30,0 30,0 6,0 12,-6 12,-12 0,0 0,-12 0,-12 0,-6 -6,-12 -12,-12 0,0 -30,0 -30,0 -6,0 -12,6 -12,12 0,0 0,12 0,12 0,6 6,12 12,12"
       style="fill:none;stroke:#999999;stroke-width:1;stroke-linecap:butt;stroke-linejoin:miter;stroke-miterlimit:10;stroke-dasharray:none;stroke-opacity:0.75378543"
       transform="scale(1.3333333)" />
    <text
       id="text43"
       xml:space="preserve"
       transform="matrix(1.3333333,0,0,1.3333333,232.57943,430.26561)"
       style="fill:#999999;fill-opacity:1;stroke-width:0.99975002;stroke-dasharray:none"><tspan
         style="font-variant:normal;font-weight:normal;font-size:14.0002px;font-family:'Liberation Serif';writing-mode:lr-tb;fill:#999999;fill-opacity:1;fill-rule:nonzero;stroke:none;stroke-width:0.99975002;stroke-dasharray:none"
         x="0 7.5062399 14.99848 23.256355 27.750528"
         y="0"
         sodipodi:role="line"
         id="tspan43">SPLIT</tspan></text>
    <path
       id="path43"
       d="m 220.219,264.188 c -4.199,8.285 -9.332,18.402 -14.004,27.621"
       style="fill:none;stroke:#999999;stroke-width:1;stroke-linecap:butt;stroke-linejoin:miter;stroke-miterlimit:10;stroke-dasharray:none;stroke-opacity:0.75378543"
       transform="scale(1.3333333)" />
    <path
       id="path44"
       d="m 209.211,293.637 -7.645,7.336 1.403,-10.504 z"
       style="fill:#999999;fill-opacity:0.32549021;fill-rule:nonzero;stroke:none;stroke-width:1;stroke-linecap:butt;stroke-linejoin:miter;stroke-miterlimit:10;stroke-dasharray:none;stroke-opacity:0.32549021"
       transform="scale(1.3333333)" />
    <path
       id="path45"
       d="m 165.648,264.188 c 4.2,8.285 9.332,18.402 14.004,27.621"
       style="fill:none;stroke:#999999;stroke-width:1;stroke-linecap:butt;stroke-linejoin:miter;stroke-miterlimit:10;stroke-dasharray:none;stroke-opacity:0.75378543"
       transform="scale(1.3333333)" />
    <path
       id="path46"
       d="m 182.898,290.469 1.403,10.504 -7.645,-7.336 z"
       style="fill:#999999;fill-opacity:0.32549021;fill-rule:nonzero;stroke:none;stroke-width:1;stroke-linecap:butt;stroke-linejoin:miter;stroke-miterlimit:10;stroke-dasharray:none;stroke-opacity:1"
       transform="scale(1.3333333)" />
    <path
       id="path47"
       d="M 6.3393584,-2.4736271 5.9526396,-9.708125e-4 H 0.65576462 V -0.12987706 c 0,-0.14648438 0.0527344,-0.28417969 0.1640625,-0.41015625 L 3.5502959,-3.5751896 c 0.9990234,-1.1074218 1.5,-2.1591796 1.5,-3.1523437 0,-0.6328125 -0.1611328,-1.1660156 -0.4804688,-1.6054688 -0.3457031,-0.4833984 -0.8203125,-0.7265625 -1.4296875,-0.7265625 -0.4453125,0 -0.8408203,0.1376954 -1.1835937,0.4101563 -0.3457032,0.2666016 -0.5947266,0.6152344 -0.75,1.0429687 0.029297,-0.00586 0.070312,-0.011719 0.1171875,-0.011719 0.5537109,0 0.8320312,0.2519531 0.8320312,0.75 0,0.2050781 -0.070312,0.3808594 -0.2109375,0.5273437 -0.140625,0.1494141 -0.3164062,0.2226563 -0.5273437,0.2226563 -0.50976565,0 -0.76171878,-0.2636719 -0.76171878,-0.796875 0,-0.7177734 0.26074219,-1.3271484 0.78515628,-1.828125 0.5302734,-0.4980469 1.1601562,-0.75 1.8867187,-0.75 0.84375,0 1.546875,0.2460937 2.109375,0.7382812 0.600586,0.5244141 0.9023438,1.2011719 0.9023438,2.0273438 0,0.5390625 -0.1757813,1.0605469 -0.5273438,1.5585937 -0.2050781,0.2900391 -0.5800781,0.7001954 -1.125,1.2304688 l -2.9296875,2.8476562 h 2.8476563 c 0.6152343,0 0.9667968,-0.038086 1.0546875,-0.1171875 0.09375,-0.076172 0.2021484,-0.4980468 0.328125,-1.265625 z m 5.2675786,-1.5117187 c 0,0.1875 -0.08789,0.28125 -0.257813,0.28125 H 7.9155302 c -0.1816406,0 -0.2695312,-0.09375 -0.2695312,-0.28125 0,-0.1875 0.087891,-0.28125 0.2695312,-0.28125 h 3.4335938 c 0.169922,0 0.257813,0.09375 0.257813,0.28125 z m 6.667968,2.25 c 0,0.1347656 -0.0791,0.3369141 -0.234375,0.609375 -0.509765,0.86132811 -1.242187,1.28906249 -2.203125,1.28906249 -0.908203,0 -1.672851,-0.33984375 -2.296875,-1.01953125 -0.618164,-0.66210934 -0.925781,-1.45312504 -0.925781,-2.36718754 0,-0.8818359 0.28125,-1.6523437 0.84375,-2.3085937 0.591797,-0.6855469 1.327148,-1.03125 2.203125,-1.03125 0.820312,0 1.464844,0.28125 1.933594,0.84375 0.451172,0.5244141 0.679687,1.2011719 0.679687,2.0273437 0,0.2578125 -0.123047,0.3867188 -0.363281,0.3867188 H 13.82178 c 0,0.9375 0.146485,1.640625 0.445313,2.109375 0.404297,0.65624999 0.955078,0.98437499 1.652344,0.98437499 0.896484,0 1.558593,-0.49804688 1.980468,-1.49999999 0.05273,-0.1318359 0.117188,-0.1992188 0.1875,-0.1992188 0.123047,0 0.1875,0.058594 0.1875,0.1757813 z m -0.960937,-2.015625 c -0.0088,-0.6386719 -0.128907,-1.1835938 -0.363282,-1.6289063 -0.290039,-0.5683593 -0.720703,-0.8554687 -1.289062,-0.8554687 -0.1875,0 -0.395508,0.055664 -0.621094,0.1640625 -0.735351,0.3515625 -1.133789,1.125 -1.195312,2.3203125 z m 9.049804,3.7499999875 C 25.947757,-0.03026769 25.479007,-0.04784581 24.957522,-0.04784581 c -0.251953,0 -0.779296,0.01757812 -1.582031,0.0468749975 V -0.45800206 c 0.351563,-0.005859 0.527344,-0.12890625 0.527344,-0.36328125 0,-0.046875 -0.474609,-0.69433589 -1.417969,-1.94531249 l -1.113281,1.3710937 c -0.140625,0.1728516 -0.210938,0.3339844 -0.210938,0.48046879 0,0.28125 0.143555,0.43359375 0.433594,0.45703125 V -9.708125e-4 C 20.943851,-0.03026769 20.48096,-0.04784581 20.19971,-0.04784581 c -0.445313,0 -0.849609,0.01757812 -1.207031,0.0468749975 V -0.45800206 c 0.694336,0 1.303711,-0.28710938 1.828125,-0.86718754 0.234375,-0.2636718 0.706054,-0.8496093 1.417968,-1.7578125 l -1.453125,-1.8867187 c -0.328125,-0.4130859 -0.5625,-0.6591797 -0.703125,-0.7382813 -0.164062,-0.09375 -0.503906,-0.140625 -1.019531,-0.140625 v -0.46875 c 0.498047,0.041016 0.960938,0.058594 1.382813,0.058594 0.131836,0 0.662109,-0.017578 1.59375,-0.058594 v 0.46875 c -0.345703,0.00879 -0.515625,0.1259766 -0.515625,0.3515625 0,0.09375 0.416015,0.6767579 1.253906,1.7460938 l 0.914062,-1.1367188 c 0.155274,-0.1875 0.234375,-0.3574218 0.234375,-0.515625 0,-0.28125 -0.146484,-0.4277343 -0.433593,-0.4453125 v -0.46875 c 0.492187,0.041016 0.955078,0.058594 1.394531,0.058594 0.328125,0 0.729492,-0.017578 1.207031,-0.058594 v 0.46875 c -0.697265,0.017578 -1.277344,0.2666016 -1.746094,0.75 -0.08789,0.087891 -0.536132,0.6416016 -1.347656,1.6640625 l 1.96875,2.51953129 c 0.164063,0.21972656 0.375,0.35742187 0.632813,0.41015625 0.140625,0.0410156 0.392578,0.0556641 0.761718,0.046875 z M 31.648929,-1.8173771 c 0,0.515625 -0.111328,0.95800785 -0.328125,1.32421879 -0.266602,0.43945312 -0.638672,0.65625 -1.113282,0.65625 -0.603515,0 -1.066406,-0.17578125 -1.394531,-0.52734375 -0.328125,-0.35742188 -0.492187,-0.84375004 -0.492187,-1.45312504 v -4.03125 h -1.242188 v -0.328125 c 0.647461,-0.023437 1.136719,-0.3544921 1.464844,-0.9960937 0.272461,-0.5068359 0.413086,-1.1162109 0.421875,-1.828125 h 0.363281 v 2.6835937 h 2.085938 v 0.46875 h -2.085938 v 4.0664063 c 0,1.04882811 0.328125,1.57031249 0.984375,1.57031249 0.66211,0 0.996094,-0.65917969 0.996094,-1.98046879 0,-0.076172 -0.0059,-0.2285156 -0.01172,-0.4570312 h 0.351563 z m 5.636718,-3.7617187 c 0,0.1875 -0.05859,0.3457031 -0.175781,0.46875 -0.117187,0.1171875 -0.266601,0.1757812 -0.445312,0.1757812 -0.181641,0 -0.333985,-0.058594 -0.457032,-0.1757812 -0.117187,-0.1171875 -0.175781,-0.2636719 -0.175781,-0.4453125 0,-0.2958984 0.108399,-0.4863281 0.328125,-0.5742188 -0.02344,-0.014648 -0.05566,-0.023437 -0.09375,-0.023437 -0.618164,0 -1.089844,0.3222657 -1.417969,0.9609375 -0.251953,0.5097657 -0.375,1.1074219 -0.375,1.7929688 v 2.3671875 c 0,0.28124999 0.128907,0.45703124 0.386719,0.52734374 0.09961,0.0322266 0.345703,0.046875 0.738281,0.046875 h 0.292969 V -9.708125e-4 C 35.521976,-0.03026769 35.190921,-0.04784581 34.895022,-0.04784581 H 33.69971 c -0.172852,0 -0.392578,0.0087891 -0.65625,0.0234375 -0.369141,0.01757812 -0.591797,0.0234374975 -0.667969,0.0234374975 V -0.45800206 c 0.04687,0 0.120117,0.005859 0.222656,0.0117188 0.09961,0.008789 0.178711,0.0117188 0.234375,0.0117188 0.451172,0 0.679688,-0.22558594 0.679688,-0.67968754 v -3.9140625 c 0,-0.3984375 -0.102539,-0.6474609 -0.304688,-0.75 -0.111328,-0.046875 -0.386718,-0.070312 -0.832031,-0.070312 v -0.46875 l 2.027344,-0.1523437 v 1.6054687 c 0.351562,-1.0693359 0.949219,-1.6054687 1.792969,-1.6054687 0.272461,0 0.518554,0.079102 0.738281,0.234375 0.234375,0.1816406 0.351562,0.3984375 0.351562,0.6562494 z M 45.362796,-9.708125e-4 43.253421,0.16309169 V -1.1611271 c -0.407227,0.88476566 -1.037109,1.32421879 -1.886719,1.32421879 -0.875976,0 -1.473633,-0.19921875 -1.792969,-0.59765625 C 39.283694,-0.79198644 39.14014,-1.4218692 39.14014,-2.3212833 v -2.5664063 c 0,-0.4599609 -0.08203,-0.7441406 -0.246094,-0.8554687 -0.111328,-0.070312 -0.407227,-0.1054688 -0.890625,-0.1054688 v -0.46875 l 2.144531,-0.1523437 v 4.8515625 c 0,0.5244141 0.08203,0.89062499 0.246094,1.10156249 0.193359,0.234375 0.541992,0.3515625 1.042969,0.3515625 0.5625,0 1.007812,-0.24609375 1.335937,-0.73828125 0.28711,-0.42773434 0.433594,-0.94042964 0.433594,-1.53515624 v -2.5898438 c 0,-0.3984375 -0.102539,-0.6474609 -0.304688,-0.75 -0.117187,-0.052734 -0.395507,-0.076172 -0.832031,-0.070312 v -0.46875 l 2.144531,-0.1523437 v 5.203125 c 0,0.39843749 0.105469,0.65039061 0.316407,0.74999999 0.108398,0.0556641 0.386718,0.0761719 0.832031,0.0585938 z M 50.85596,-1.8759708 c 0,0.6650391 -0.234375,1.18066405 -0.703125,1.54687499 -0.416016,0.3281249975 -0.966797,0.4921875 -1.652344,0.4921875 -0.641601,0 -1.180664,-0.2109375 -1.617187,-0.6328125 -0.351563,0.421875 -0.571289,0.6328125 -0.65625,0.6328125 -0.102539,0 -0.152344,-0.07617188 -0.152344,-0.22265625 V -2.2626896 c 0,-0.1464843 0.06152,-0.2226562 0.1875,-0.2226562 0.09375,0 0.158203,0.082031 0.199219,0.2460937 0.169922,0.6650391 0.380859,1.1484375 0.632812,1.45312504 0.328125,0.41601562 0.796875,0.62109375 1.40625,0.62109375 0.46875,0 0.84961,-0.0996094 1.148438,-0.3046875 0.333984,-0.24023438 0.503906,-0.58593749 0.503906,-1.03124999 0,-0.6708984 -0.509766,-1.1162109 -1.523438,-1.3359375 -0.585937,-0.1230469 -0.925781,-0.1992188 -1.019531,-0.2226563 -0.375,-0.1083984 -0.679687,-0.2607421 -0.914062,-0.4570312 -0.416016,-0.3427734 -0.621094,-0.7617188 -0.621094,-1.2539063 0,-0.609375 0.246094,-1.0722656 0.738281,-1.3945312 0.421875,-0.2636719 0.952149,-0.3984375 1.59375,-0.3984375 0.539063,0 0.996094,0.1376953 1.371094,0.4101562 0.272461,-0.2724609 0.457031,-0.4101562 0.550781,-0.4101562 0.108399,0 0.164063,0.076172 0.164063,0.2226562 v 1.734375 c 0,0.1640625 -0.06738,0.2460938 -0.199219,0.2460938 -0.102539,0 -0.172852,-0.09668 -0.210938,-0.2929688 -0.01758,-0.140625 -0.03223,-0.2753906 -0.04687,-0.4101562 -0.07031,-0.3984375 -0.263671,-0.7060547 -0.574218,-0.9257813 -0.28125,-0.1933593 -0.632813,-0.2929687 -1.054688,-0.2929687 -0.430664,0 -0.791015,0.079102 -1.078125,0.234375 -0.375,0.1962891 -0.5625,0.4892578 -0.5625,0.8789062 0,0.3925782 0.213867,0.6884766 0.644531,0.890625 0.216797,0.1025391 0.603516,0.2080079 1.160157,0.3164063 0.773437,0.1494141 1.327148,0.3808594 1.664062,0.6914062 0.413086,0.3925782 0.621094,0.8554688 0.621094,1.3945313 z m 2.871094,-6.8554688 c 0,0.2197266 -0.0791,0.4072266 -0.234375,0.5625 -0.149414,0.1582032 -0.333985,0.234375 -0.550782,0.234375 -0.210937,0 -0.392578,-0.076172 -0.539062,-0.234375 -0.149414,-0.1640625 -0.222656,-0.3515625 -0.222656,-0.5625 0,-0.2021484 0.07324,-0.3779296 0.222656,-0.5273437 0.155273,-0.1552734 0.333984,-0.234375 0.539062,-0.234375 0.216797,0 0.401368,0.076172 0.550782,0.2226562 0.155273,0.1494141 0.234375,0.328125 0.234375,0.5390625 z M 54.69971,-9.708125e-4 C 53.776858,-0.03026769 53.264163,-0.04784581 53.164554,-0.04784581 c -0.181641,0 -0.711914,0.01757812 -1.59375,0.0468749975 V -0.45800206 c 0.234375,0.008789 0.333984,0.0117188 0.304687,0.0117188 0.295899,0 0.498047,-0.0292969 0.609375,-0.09375 0.146485,-0.0761719 0.222656,-0.2578125 0.222656,-0.53906244 V -5.051752 c 0,-0.3896484 -0.09375,-0.6269531 -0.28125,-0.7148438 -0.111328,-0.052734 -0.375,-0.082031 -0.796875,-0.082031 v -0.46875 l 2.027344,-0.1523438 v 5.48437504 c 0,0.26660156 0.117188,0.43359375 0.351563,0.50390625 0.108398,0.0322266 0.339843,0.0410156 0.691406,0.0234375 z M 61.906741,-3.1298771 c 0,0.9082032 -0.322265,1.6845704 -0.960937,2.33203129 -0.632813,0.64160156 -1.400391,0.9609375 -2.296875,0.9609375 -0.890625,0 -1.652344,-0.32226563 -2.285157,-0.97265625 C 55.73096,-1.4570255 55.414554,-2.230463 55.414554,-3.1298771 c 0,-0.9199218 0.307617,-1.7167968 0.925781,-2.390625 0.638672,-0.6943359 1.412109,-1.0429687 2.320312,-1.0429687 0.905274,0 1.675782,0.3486328 2.308594,1.0429687 0.624024,0.6796875 0.9375,1.4765625 0.9375,2.390625 z m -1.230469,-0.1289062 c 0,-0.9287109 -0.125976,-1.6054688 -0.375,-2.0273438 -0.383789,-0.6328125 -0.93457,-0.9492187 -1.652343,-0.9492187 -0.75,0 -1.309571,0.328125 -1.675782,0.984375 -0.234375,0.4072266 -0.351562,1.0722656 -0.351562,1.9921875 0,0.9462891 0.123047,1.6347656 0.375,2.0625 0.380859,0.65624999 0.9375,0.98437499 1.664062,0.98437499 0.764649,0 1.330079,-0.35742188 1.699219,-1.07812499 0.210938,-0.4130859 0.316406,-1.0693359 0.316406,-1.96875 z M 69.97803,-9.708125e-4 C 69.063968,-0.03026769 68.513187,-0.04784581 68.325687,-0.04784581 c -0.158204,0 -0.703125,0.01757812 -1.640625,0.0468749975 V -0.45800206 c 0.123046,0.008789 0.234375,0.0117188 0.328125,0.0117188 0.28125,0 0.474609,-0.0263672 0.585937,-0.0820313 0.146484,-0.0849609 0.222656,-0.2578125 0.222656,-0.51562504 v -3.5507812 c 0,-1.0371094 -0.360351,-1.5585938 -1.078125,-1.5585938 -0.594726,0 -1.083984,0.2519532 -1.464843,0.75 -0.345704,0.4541016 -0.515625,0.9902344 -0.515625,1.6054688 v 2.7304687 c 0,0.1728516 0.02344,0.30468754 0.07031,0.39843754 0.09375,0.18164062 0.445313,0.25195312 1.054688,0.2109375 V -9.708125e-4 C 64.979983,-0.03026769 64.437991,-0.04784581 64.25928,-0.04784581 c -0.158203,0 -0.703125,0.01757812 -1.640625,0.0468749975 V -0.45800206 c 0.131836,0.008789 0.237305,0.0117188 0.316407,0.0117188 0.310546,0 0.518554,-0.0292969 0.621093,-0.09375 0.131836,-0.0849609 0.199219,-0.27539063 0.199219,-0.57421874 v -3.9140625 c 0,-0.3984375 -0.102539,-0.6474609 -0.304687,-0.75 -0.111329,-0.052734 -0.386719,-0.076172 -0.832032,-0.070312 v -0.46875 l 2.0625,-0.1523437 v 1.5351562 c 0.451172,-1.0224609 1.171875,-1.5351562 2.15625,-1.5351562 1.327149,0 1.992188,0.7207031 1.992188,2.15625 v 3.42187504 c 0,0.328125 0.380859,0.47460937 1.148437,0.43359375 z m 0,0"
       style="fill:#999999;fill-opacity:1;fill-rule:nonzero;stroke:none;stroke-width:0.99975002;stroke-dasharray:none"
       aria-label="2-extrusion"
       transform="matrix(1.3333333,0,0,1.3333333,17.492835,235.59895)" />
    <path
       id="path48"
       d="m 165.934,374 h 54 v 36 h -54 z"
       style="fill:none;stroke:#999999;stroke-width:1;stroke-linecap:butt;stroke-linejoin:miter;stroke-miterlimit:10;stroke-dasharray:none;stroke-opacity:0.75378543"
       transform="scale(1.3333333)" />
    <g
       id="g7"
       style="fill:#999999;fill-opacity:0.32549021">
      <path
         id="path49"
         d="m 3.8193323,2.1318487 c 0,0.1699219 -0.099609,0.2578125 -0.2929688,0.2578125 -0.1025391,0 -0.1992187,-0.1054688 -0.2929687,-0.3164063 L 0.6201135,-3.9853388 3.2333948,-10.032214 c 0.09375,-0.210937 0.1904296,-0.316406 0.2929687,-0.316406 0.1933594,0 0.2929688,0.08789 0.2929688,0.257812 0,0.0791 -0.020508,0.1611332 -0.058594,0.2460942 l -2.5429687,5.859375 2.5429687,5.8710937 c 0.038086,0.084961 0.058594,0.1669922 0.058594,0.2460938 z m 0,0"
         style="fill:#999999;fill-opacity:1;fill-rule:nonzero;stroke:none;stroke-width:0.99975002;stroke-dasharray:none"
         aria-label="⟨"
         transform="matrix(1.3333333,0,0,1.3333333,236.57943,527.59894)" />
      <text
         id="text49"
         xml:space="preserve"
         transform="matrix(1.3333333,0,0,1.3333333,242.57516,527.59894)"
         style="fill:#999999;fill-opacity:1;stroke-width:0.99975002;stroke-dasharray:none"><tspan
           style="font-variant:normal;font-weight:normal;font-size:14.0002px;font-family:'Liberation Serif';writing-mode:lr-tb;fill:#999999;fill-opacity:1;fill-rule:nonzero;stroke:none;stroke-width:0.99975002;stroke-dasharray:none"
           x="0 6.7480965 10.50015 14.252204"
           y="0"
           sodipodi:role="line"
           id="tspan49">0, 1</tspan></text>
      <path
         id="path50"
         d="M 3.9364915,-3.9853388 1.3232102,2.0732549 c -0.09375,0.2109375 -0.1933594,0.3164063 -0.2929687,0.3164063 -0.19628911,0 -0.29296879,-0.087891 -0.29296879,-0.2578125 0,-0.079102 0.0175781,-0.1611328 0.0585938,-0.2460938 L 3.3271165,-3.9853388 0.79586646,-9.8447138 c -0.0410156,-0.084961 -0.0585938,-0.1669922 -0.0585938,-0.2460942 0,-0.169921 0.0966797,-0.257812 0.29296884,-0.257812 0.099609,0 0.1992187,0.105469 0.2929687,0.316406 z m 0,0"
         style="fill:#999999;fill-opacity:1;fill-rule:nonzero;stroke:none;stroke-width:0.99975002;stroke-dasharray:none"
         aria-label="⟩"
         transform="matrix(1.3333333,0,0,1.3333333,270.57556,527.59894)" />
    </g>
    <path
       id="path51"
       d="m 192.934,337.188 c 0,8.023 0,17.765 0,26.742"
       style="fill:none;stroke:#999999;stroke-width:1;stroke-linecap:butt;stroke-linejoin:miter;stroke-miterlimit:10;stroke-dasharray:none;stroke-opacity:0.75378543"
       transform="scale(1.3333333)" />
    <path
       id="path52"
       d="m 196.434,363.973 -3.5,10 -3.5,-10 z"
       style="fill:#999999;fill-opacity:0.32549021;fill-rule:nonzero;stroke:none;stroke-width:1;stroke-linecap:butt;stroke-linejoin:miter;stroke-miterlimit:10;stroke-dasharray:none;stroke-opacity:1"
       transform="scale(1.3333333)" />
    <path
       id="path53"
       d="m 57.934,228 h 54 v 36 h -54 z"
       style="fill:#999999;fill-opacity:0.13333334;fill-rule:nonzero;stroke:#999999;stroke-width:1;stroke-linecap:butt;stroke-linejoin:miter;stroke-miterlimit:10;stroke-dasharray:none;stroke-opacity:0.75378543"
       transform="scale(1.3333333)" />
    <g
       id="g4"
       style="fill:#999999;fill-opacity:0.32549021">
      <text
         id="text53"
         xml:space="preserve"
         transform="matrix(1.3333333,0,0,1.3333333,103.91277,332.93228)"
         style="fill:#999999;fill-opacity:1;stroke-width:0.99975002;stroke-dasharray:none"><tspan
           style="font-variant:normal;font-weight:normal;font-size:14.0002px;font-family:'Liberation Serif';writing-mode:lr-tb;fill:#999999;fill-opacity:1;fill-rule:nonzero;stroke:none;stroke-width:0.99975002;stroke-dasharray:none"
           x="0"
           y="0"
           id="tspan53">n</tspan></text>
      <text
         id="text54"
         xml:space="preserve"
         transform="matrix(1.3333333,0,0,1.3333333,112.91024,332.93228)"
         style="fill:#999999;fill-opacity:1;stroke-width:0.99975002;stroke-dasharray:none"><tspan
           style="font-variant:normal;font-weight:normal;font-size:14.0002px;font-family:'Liberation Serif';writing-mode:lr-tb;fill:#999999;fill-opacity:1;fill-rule:nonzero;stroke:none;stroke-width:0.99975002;stroke-dasharray:none"
           x="0"
           y="0"
           id="tspan54">4</tspan></text>
    </g>
    <path
       id="path54"
       d="m 6.4562346,-2.4360918 c 0,0.7910156 -0.3134766,1.45019528 -0.9375,1.98046871 -0.6035157,0.50683594 -1.3007813,0.76171875 -2.0976563,0.76171875 -0.7207031,0 -1.359375,-0.1875 -1.921875,-0.5625 -0.64160155,-0.421875 -0.96093749,-0.97558596 -0.96093749,-1.66406246 0,-0.2402344 0.0703125,-0.4394532 0.2109375,-0.5976563 0.14648438,-0.1552734 0.34277339,-0.234375 0.58593749,-0.234375 0.234375,0 0.4248047,0.079102 0.5742188,0.234375 0.1552734,0.1582031 0.234375,0.3486328 0.234375,0.5742188 0,0.2285156 -0.082031,0.4160156 -0.2460938,0.5625 -0.1582031,0.149414 -0.3486328,0.2226562 -0.5742187,0.2226562 -0.046875,0 -0.09082,-0.00293 -0.1289063,-0.011719 0.2021484,0.35156246 0.5185547,0.62695309 0.9492188,0.82031246 0.3808593,0.18164063 0.7910156,0.26953125 1.2304687,0.26953125 0.5683594,0 0.9960938,-0.26367187 1.2773438,-0.796875 0.2167968,-0.41308591 0.328125,-0.93164061 0.328125,-1.55859371 0,-0.65625 -0.1142579,-1.1865235 -0.3398438,-1.59375 C 4.3497892,-4.5454668 3.9015471,-4.8032793 3.2921721,-4.8032793 H 2.5538908 c -0.1582031,0 -0.234375,-0.052734 -0.234375,-0.1640625 0,-0.09375 0.1083984,-0.1552735 0.328125,-0.1875 0.1552734,-0.00586 0.3046875,-0.014648 0.4453125,-0.023437 0.5683594,-0.029297 0.9902344,-0.2753907 1.265625,-0.7382813 0.2636719,-0.4277344 0.3984375,-0.9726562 0.3984375,-1.6289062 0,-0.459961 -0.1113281,-0.834961 -0.328125,-1.125 -0.2431641,-0.319336 -0.5917969,-0.4804688 -1.0429687,-0.4804688 -0.8847657,0 -1.5175782,0.2988281 -1.8984375,0.890625 0.5859375,-0.00586 0.8789062,0.2314453 0.8789062,0.7148438 0,0.2109375 -0.067383,0.3867187 -0.1992187,0.5273437 -0.1347657,0.1347656 -0.3046875,0.1992188 -0.515625,0.1992188 -0.2197266,0 -0.3955079,-0.064453 -0.5273438,-0.1992188 -0.13476561,-0.1318359 -0.19921874,-0.3076172 -0.19921874,-0.5273437 0,-0.600586 0.28125004,-1.0839844 0.84375004,-1.453125 0.4921875,-0.328125 1.0546875,-0.4921875 1.6875,-0.4921875 0.6474609,0 1.2246093,0.1640625 1.734375,0.4921875 0.5917968,0.3691406 0.890625,0.8613281 0.890625,1.4765625 0,0.571289 -0.1992188,1.0898437 -0.5976563,1.5585937 -0.3691406,0.4453125 -0.8378906,0.7617188 -1.40625,0.9492188 0.65625,0.1347656 1.2099609,0.4277343 1.6640625,0.8789062 0.4746094,0.4863281 0.7148438,1.0517578 0.7148438,1.6992183 z m 5.1503904,-1.546875 c 0,0.1875 -0.08789,0.28125 -0.257812,0.28125 H 7.9152189 c -0.1816406,0 -0.2695312,-0.09375 -0.2695312,-0.28125 0,-0.1875 0.087891,-0.28125 0.2695312,-0.28125 h 3.4335941 c 0.169922,0 0.257812,0.09375 0.257812,0.28125 z m 5.578125,2.1679687 c 0,0.515625 -0.111328,0.95800783 -0.328125,1.32421876 -0.266601,0.43945313 -0.638672,0.65625 -1.113281,0.65625 -0.603516,0 -1.066406,-0.17578125 -1.394531,-0.52734375 -0.328125,-0.35742187 -0.492188,-0.84375001 -0.492188,-1.45312501 v -4.03125 h -1.242187 v -0.328125 c 0.647461,-0.023437 1.136718,-0.3544922 1.464843,-0.9960937 0.272461,-0.506836 0.413086,-1.116211 0.421875,-1.828125 h 0.363282 v 2.6835937 h 2.085937 v 0.46875 h -2.085937 v 4.0664063 c 0,1.04882809 0.328125,1.57031246 0.984375,1.57031246 0.662109,0 0.996093,-0.65917968 0.996093,-1.98046876 0,-0.076172 -0.0059,-0.2285156 -0.01172,-0.4570312 h 0.351562 z m 5.636719,-3.7617187 c 0,0.1875 -0.05859,0.3457031 -0.175781,0.46875 -0.117188,0.1171875 -0.266602,0.1757812 -0.445313,0.1757812 -0.18164,0 -0.333984,-0.058594 -0.457031,-0.1757812 -0.117188,-0.1171875 -0.175781,-0.2636719 -0.175781,-0.4453125 0,-0.2958985 0.108398,-0.4863282 0.328125,-0.5742188 -0.02344,-0.014648 -0.05566,-0.023437 -0.09375,-0.023437 -0.618164,0 -1.089844,0.3222656 -1.417969,0.9609375 -0.251953,0.5097656 -0.375,1.1074219 -0.375,1.7929688 v 2.3671875 c 0,0.28124996 0.128906,0.45703121 0.386719,0.52734371 0.09961,0.0322266 0.345703,0.046875 0.738281,0.046875 h 0.292969 v 0.45703125 c -0.369141,-0.02929687 -0.700196,-0.046875 -0.996094,-0.046875 h -1.195313 c -0.172851,0 -0.392578,0.0087891 -0.65625,0.0234375 -0.36914,0.01757813 -0.591796,0.0234375 -0.667968,0.0234375 v -0.45703125 c 0.04687,0 0.120117,0.005859 0.222656,0.0117188 0.09961,0.008789 0.178711,0.0117188 0.234375,0.0117188 0.451172,0 0.679687,-0.22558593 0.679687,-0.67968751 V -5.025935 c 0,-0.3984375 -0.102539,-0.6474609 -0.304687,-0.75 -0.111328,-0.046875 -0.386719,-0.070312 -0.832031,-0.070312 v -0.46875 l 2.027343,-0.1523437 v 1.6054687 c 0.351563,-1.0693359 0.949219,-1.6054687 1.792969,-1.6054687 0.272461,0 0.518555,0.079102 0.738281,0.234375 0.234375,0.1816406 0.351563,0.3984375 0.351563,0.65625 z m 2.871094,-3.1523438 c 0,0.2197266 -0.0791,0.4072266 -0.234375,0.5625 -0.149414,0.1582031 -0.333985,0.234375 -0.550782,0.234375 -0.210937,0 -0.392578,-0.076172 -0.539062,-0.234375 -0.149414,-0.1640625 -0.222656,-0.3515625 -0.222656,-0.5625 0,-0.2021484 0.07324,-0.3779297 0.222656,-0.5273437 0.155273,-0.1552735 0.333984,-0.234375 0.539062,-0.234375 0.216797,0 0.401368,0.076172 0.550782,0.2226562 0.155273,0.1494141 0.234375,0.328125 0.234375,0.5390625 z m 0.972656,8.73046876 c -0.922852,-0.02929687 -1.435547,-0.046875 -1.535156,-0.046875 -0.181641,0 -0.711914,0.01757813 -1.59375,0.046875 v -0.45703125 c 0.234375,0.008789 0.333984,0.0117188 0.304687,0.0117188 0.295899,0 0.498047,-0.0292969 0.609375,-0.09375 0.146485,-0.0761719 0.222656,-0.2578125 0.222656,-0.53906241 V -5.049373 c 0,-0.3896484 -0.09375,-0.6269531 -0.28125,-0.7148437 -0.111328,-0.052734 -0.375,-0.082031 -0.796875,-0.082031 v -0.46875 l 2.027344,-0.1523437 v 5.48437491 c 0,0.26660157 0.117188,0.43359375 0.351563,0.50390625 0.108398,0.0322266 0.339843,0.0410156 0.691406,0.0234375 z m 7.3125,-1.30078126 c 0,0.38378908 -0.105469,0.70312501 -0.316406,0.96093751 -0.219727,0.28125 -0.515625,0.421875 -0.890625,0.421875 -0.313477,0 -0.574219,-0.12304687 -0.785157,-0.375 -0.205078,-0.21679687 -0.322265,-0.4921875 -0.351562,-0.82031251 -0.164063,0.39257814 -0.418945,0.70312501 -0.761719,0.93750001 -0.345703,0.22558594 -0.732422,0.33984375 -1.160156,0.33984375 -0.580078,0 -1.086914,-0.11425781 -1.523438,-0.33984375 -0.539062,-0.28125 -0.808593,-0.68554687 -0.808593,-1.21875001 0,-0.8115234 0.483398,-1.4472656 1.453125,-1.9101562 0.600586,-0.272461 1.5,-0.4453125 2.695312,-0.515625 v -0.5390625 c 0,-0.4980469 -0.128906,-0.9257813 -0.386719,-1.2773438 -0.290039,-0.3984375 -0.676757,-0.5976562 -1.160156,-0.5976562 -0.703125,0 -1.230469,0.2285156 -1.582031,0.6796875 0.210937,0 0.386719,0.064453 0.527344,0.1875 0.146484,0.1171875 0.222656,0.2783203 0.222656,0.4804687 0,0.1875 -0.06738,0.3486328 -0.199219,0.4804688 -0.125976,0.1259765 -0.287109,0.1875 -0.480469,0.1875 -0.445312,0 -0.667968,-0.225586 -0.667968,-0.6796875 0,-0.515625 0.246093,-0.9316407 0.738281,-1.2539063 0.436523,-0.2724609 0.928711,-0.4101562 1.476562,-0.4101562 0.826172,0 1.494141,0.2695312 2.003907,0.8085937 0.225586,0.2519531 0.375,0.5214844 0.445312,0.8085938 0.04687,0.2050781 0.07031,0.5097656 0.07031,0.9140625 v 2.9179687 c 0,0.18750001 0.04687,0.35156251 0.140625,0.49218751 0.09375,0.1640625 0.225586,0.24609375 0.398437,0.24609375 0.357422,0 0.539063,-0.3984375 0.539063,-1.19531246 0,-0.1230469 -0.0059,-0.3046875 -0.01172,-0.5390625 h 0.375 z m -2.449219,-0.75 v -1.4648437 c -0.782226,0.032226 -1.447265,0.196289 -1.992187,0.4921875 -0.688477,0.3691406 -1.03125,0.9023437 -1.03125,1.6054687 0,0.3603516 0.128906,0.66210939 0.386718,0.90234376 0.257813,0.234375 0.56543,0.3515625 0.925782,0.3515625 0.498047,0 0.914062,-0.19042968 1.242187,-0.57421875 C 31.370297,-1.094295 31.5285,-1.5337481 31.5285,-2.0493731 Z m 10.523438,2.05078126 c -0.914063,-0.02929687 -1.464844,-0.046875 -1.652344,-0.046875 -0.158203,0 -0.703125,0.01757813 -1.640625,0.046875 v -0.45703125 c 0.123047,0.008789 0.234375,0.0117188 0.328125,0.0117188 0.28125,0 0.474609,-0.0263672 0.585937,-0.0820313 0.146485,-0.0849609 0.222657,-0.2578125 0.222657,-0.51562501 v -3.5507812 c 0,-1.0371094 -0.360352,-1.5585938 -1.078125,-1.5585938 -0.594727,0 -1.083985,0.2519531 -1.464844,0.75 -0.345703,0.4541016 -0.515625,0.9902344 -0.515625,1.6054688 v 2.7304687 c 0,0.17285158 0.02344,0.30468751 0.07031,0.39843751 0.09375,0.18164063 0.445313,0.25195313 1.054688,0.2109375 v 0.45703125 c -0.908203,-0.02929687 -1.450195,-0.046875 -1.628906,-0.046875 -0.158203,0 -0.703125,0.01757813 -1.640625,0.046875 v -0.45703125 c 0.131836,0.008789 0.237304,0.0117188 0.316406,0.0117188 0.310547,0 0.518555,-0.0292969 0.621094,-0.09375 0.131836,-0.0849609 0.199218,-0.27539062 0.199218,-0.57421881 v -3.9140624 c 0,-0.3984375 -0.102539,-0.6474609 -0.304687,-0.75 -0.111328,-0.052734 -0.386719,-0.076172 -0.832031,-0.070312 v -0.46875 l 2.0625,-0.1523438 v 1.5351563 c 0.451172,-1.0224609 1.171875,-1.5351563 2.15625,-1.5351563 1.327148,0 1.992187,0.7207031 1.992187,2.15625 v 3.42187501 c 0,0.328125 0.38086,0.47460938 1.148438,0.43359375 z m 7.394531,-5.91796876 c 0,0.2988281 -0.140625,0.4453125 -0.421875,0.4453125 -0.28125,0 -0.421875,-0.140625 -0.421875,-0.421875 0,-0.2021484 0.07324,-0.3339844 0.222656,-0.3984375 -0.04102,-0.014648 -0.08203,-0.023437 -0.128906,-0.023437 -0.477539,0 -0.919922,0.1933594 -1.324219,0.5742188 0.398438,0.375 0.597656,0.8496093 0.597656,1.4179687 0,0.609375 -0.246093,1.125 -0.738281,1.546875 -0.46875,0.3984375 -1.013672,0.5976563 -1.628906,0.5976563 -0.539063,0 -1.025391,-0.1523438 -1.453125,-0.4570313 -0.164063,0.1962891 -0.246094,0.4277344 -0.246094,0.6914063 0,0.6796875 0.416016,1.01953121 1.253906,1.01953121 0.08496,0 0.210938,-0.00293 0.375,-0.0117188 0.169922,-0.005859 0.304688,-0.0117188 0.398438,-0.0117188 1.101562,0 1.886719,0.13476563 2.355469,0.3984375 0.647461,0.375 0.972656,0.93164063 0.972656,1.67578129 0,0.6328125 -0.407227,1.125 -1.21875,1.4765625 -0.618164,0.2724609 -1.297852,0.4101562 -2.039063,0.4101562 -0.726562,0 -1.40332,-0.1376953 -2.027343,-0.4101562 -0.805664,-0.3457032 -1.207032,-0.8261719 -1.207032,-1.4414063 0,-0.35156249 0.140625,-0.66503905 0.421875,-0.93749999 0.249024,-0.24023437 0.556641,-0.41601562 0.925782,-0.52734375 -0.430664,-0.28125 -0.644532,-0.71777346 -0.644532,-1.31249996 0,-0.4453125 0.152344,-0.84375 0.457032,-1.1953125 -0.462891,-0.3896485 -0.691407,-0.8935547 -0.691407,-1.5117188 0,-0.6152344 0.246094,-1.1308594 0.738282,-1.546875 0.46875,-0.3984375 1.010742,-0.5976562 1.628906,-0.5976562 0.585937,0 1.104492,0.1757812 1.558594,0.5273437 0.46875,-0.4599609 0.984375,-0.6914062 1.546875,-0.6914062 0.202148,0 0.375,0.070312 0.515625,0.2109375 0.146484,0.1347656 0.222656,0.3017578 0.222656,0.5039058 z m -2.566406,1.59375 c 0,-1.2011719 -0.427735,-1.8046875 -1.277344,-1.8046875 -0.462891,0 -0.808594,0.1962891 -1.042969,0.5859375 -0.158203,0.2666016 -0.234375,0.6738281 -0.234375,1.21875 0,1.2041016 0.424805,1.8046875 1.277344,1.8046875 0.459961,0 0.808594,-0.1933594 1.042969,-0.5859375 0.155273,-0.2636719 0.234375,-0.6708984 0.234375,-1.21875 z m 1.59375,5.484375 c 0,-0.83789061 -0.814453,-1.25390624 -2.4375,-1.25390624 h -1.3125 c -0.328125,0 -0.615235,0.12304688 -0.855469,0.375 -0.234375,0.2578125 -0.351563,0.55078125 -0.351563,0.87890624 0,0.4921875 0.304688,0.881836 0.914063,1.171875 0.492187,0.234375 1.019531,0.3515625 1.582031,0.3515625 0.553711,0 1.072266,-0.1171875 1.558594,-0.3515625 0.600586,-0.290039 0.902344,-0.6796875 0.902344,-1.171875 z m 9.049804,-1.16015624 -2.109375,0.1640625 V -1.1587481 c -0.407226,0.88476564 -1.037109,1.32421876 -1.886718,1.32421876 -0.875977,0 -1.473633,-0.19921875 -1.792969,-0.59765625 -0.290039,-0.35742187 -0.433594,-0.98730471 -0.433594,-1.88671871 v -2.5664063 c 0,-0.4599609 -0.08203,-0.7441406 -0.246094,-0.8554687 -0.111328,-0.070312 -0.407226,-0.1054688 -0.890625,-0.1054688 v -0.46875 l 2.144532,-0.1523437 v 4.8515625 c 0,0.524414 0.08203,0.89062496 0.246093,1.10156246 0.19336,0.234375 0.541993,0.3515625 1.042969,0.3515625 0.5625,0 1.007813,-0.24609375 1.335938,-0.73828125 0.287109,-0.42773441 0.433593,-0.94042971 0.433593,-1.53515621 v -2.5898438 c 0,-0.3984375 -0.102539,-0.6474609 -0.304687,-0.75 -0.117188,-0.052734 -0.395508,-0.076172 -0.832031,-0.070312 v -0.46875 l 2.144531,-0.1523437 v 5.203125 c 0,0.39843746 0.105469,0.65039059 0.316406,0.74999996 0.108399,0.0556641 0.386719,0.0761719 0.832031,0.0585938 z m 3.960938,0 c -1.007813,-0.02929687 -1.552735,-0.046875 -1.628906,-0.046875 -0.172852,0 -0.711914,0.01757813 -1.617188,0.046875 v -0.45703125 c 0.04687,0 0.120117,0.005859 0.222656,0.0117188 0.108399,0.008789 0.19043,0.0117188 0.246094,0.0117188 0.445313,0 0.667969,-0.22558593 0.667969,-0.67968751 v -7.6171875 c 0,-0.3984375 -0.102539,-0.6445312 -0.304688,-0.7382812 -0.102539,-0.052734 -0.380859,-0.076172 -0.832031,-0.070312 V -9.994685 l 2.085938,-0.152343 v 9.0351555 c 0,0.23437501 0.02637,0.39257814 0.08203,0.46875001 0.07031,0.09375 0.216797,0.15234375 0.445312,0.17578125 0.09961,0.0175781 0.310547,0.0205078 0.632813,0.0117188 z m 7.30957,-1.30078126 c 0,0.38378908 -0.105469,0.70312501 -0.316406,0.96093751 -0.219727,0.28125 -0.515625,0.421875 -0.890625,0.421875 -0.313477,0 -0.574219,-0.12304687 -0.785156,-0.375 -0.205078,-0.21679687 -0.322266,-0.4921875 -0.351563,-0.82031251 -0.164062,0.39257814 -0.418945,0.70312501 -0.761719,0.93750001 -0.345703,0.22558594 -0.732421,0.33984375 -1.160156,0.33984375 -0.580078,0 -1.086914,-0.11425781 -1.523437,-0.33984375 -0.539063,-0.28125 -0.808594,-0.68554687 -0.808594,-1.21875001 0,-0.8115234 0.483398,-1.4472656 1.453125,-1.9101562 0.600586,-0.272461 1.5,-0.4453125 2.695312,-0.515625 v -0.5390625 c 0,-0.4980469 -0.128906,-0.9257813 -0.386718,-1.2773438 -0.290039,-0.3984375 -0.676758,-0.5976562 -1.160157,-0.5976562 -0.703125,0 -1.230468,0.2285156 -1.582031,0.6796875 0.210938,0 0.386719,0.064453 0.527344,0.1875 0.146484,0.1171875 0.222656,0.2783203 0.222656,0.4804687 0,0.1875 -0.06738,0.3486328 -0.199219,0.4804688 -0.125976,0.1259765 -0.287109,0.1875 -0.480468,0.1875 -0.445313,0 -0.667969,-0.225586 -0.667969,-0.6796875 0,-0.515625 0.246094,-0.9316407 0.738281,-1.2539063 0.436524,-0.2724609 0.928711,-0.4101562 1.476563,-0.4101562 0.826172,0 1.49414,0.2695312 2.003906,0.8085937 0.225586,0.2519531 0.375,0.5214844 0.445312,0.8085938 0.04687,0.2050781 0.07031,0.5097656 0.07031,0.9140625 v 2.9179687 c 0,0.18750001 0.04687,0.35156251 0.140625,0.49218751 0.09375,0.1640625 0.225586,0.24609375 0.398437,0.24609375 0.357422,0 0.539063,-0.3984375 0.539063,-1.19531246 0,-0.1230469 -0.0059,-0.3046875 -0.01172,-0.5390625 h 0.375 z m -2.449219,-0.75 v -1.4648437 c -0.782226,0.032226 -1.447265,0.196289 -1.992187,0.4921875 -0.688477,0.3691406 -1.03125,0.9023437 -1.03125,1.6054687 0,0.3603516 0.128906,0.66210939 0.386719,0.90234376 0.257812,0.234375 0.565429,0.3515625 0.925781,0.3515625 0.498047,0 0.914062,-0.19042968 1.242187,-0.57421875 0.310547,-0.35742191 0.46875,-0.79687501 0.46875,-1.31250001 z m 7.734375,0.234375 c 0,0.515625 -0.111328,0.95800783 -0.328125,1.32421876 -0.266601,0.43945313 -0.638671,0.65625 -1.113281,0.65625 -0.603515,0 -1.066406,-0.17578125 -1.394531,-0.52734375 -0.328125,-0.35742187 -0.492188,-0.84375001 -0.492188,-1.45312501 v -4.03125 h -1.242187 v -0.328125 c 0.647461,-0.023437 1.136719,-0.3544922 1.464844,-0.9960937 0.272461,-0.506836 0.413086,-1.116211 0.421875,-1.828125 h 0.363281 v 2.6835937 h 2.085937 v 0.46875 h -2.085937 v 4.0664063 c 0,1.04882809 0.328125,1.57031246 0.984375,1.57031246 0.662109,0 0.996094,-0.65917968 0.996094,-1.98046876 0,-0.076172 -0.0059,-0.2285156 -0.01172,-0.4570312 h 0.351562 z m 2.885743,-6.9140625 c 0,0.2197266 -0.0791,0.4072266 -0.234375,0.5625 -0.149414,0.1582031 -0.333985,0.234375 -0.550782,0.234375 -0.210937,0 -0.392578,-0.076172 -0.539062,-0.234375 -0.149414,-0.1640625 -0.222656,-0.3515625 -0.222656,-0.5625 0,-0.2021484 0.07324,-0.3779297 0.222656,-0.5273437 0.155273,-0.1552735 0.333984,-0.234375 0.539062,-0.234375 0.216797,0 0.401368,0.076172 0.550782,0.2226562 0.155273,0.1494141 0.234375,0.328125 0.234375,0.5390625 z m 0.972656,8.73046876 c -0.922852,-0.02929687 -1.435547,-0.046875 -1.535156,-0.046875 -0.181641,0 -0.711914,0.01757813 -1.59375,0.046875 v -0.45703125 c 0.234375,0.008789 0.333984,0.0117188 0.304687,0.0117188 0.295899,0 0.498047,-0.0292969 0.609375,-0.09375 0.146484,-0.0761719 0.222656,-0.2578125 0.222656,-0.53906241 V -5.049373 c 0,-0.3896484 -0.09375,-0.6269531 -0.28125,-0.7148437 -0.111328,-0.052734 -0.375,-0.082031 -0.796875,-0.082031 v -0.46875 l 2.027344,-0.1523437 v 5.48437491 c 0,0.26660157 0.117188,0.43359375 0.351563,0.50390625 0.108398,0.0322266 0.339843,0.0410156 0.691406,0.0234375 z m 7.204101,-3.12890626 c 0,0.9082031 -0.322265,1.6845703 -0.960937,2.33203126 -0.632813,0.64160157 -1.400391,0.9609375 -2.296875,0.9609375 -0.890625,0 -1.652344,-0.32226562 -2.285156,-0.97265625 C 78.966,-1.4546465 78.649594,-2.228084 78.649594,-3.1274981 c 0,-0.9199219 0.307617,-1.7167969 0.925781,-2.390625 0.638672,-0.6943359 1.41211,-1.0429687 2.320313,-1.0429687 0.905273,0 1.675781,0.3486328 2.308593,1.0429687 0.624024,0.6796875 0.9375,1.4765625 0.9375,2.390625 z m -1.230468,-0.1289062 c 0,-0.928711 -0.125977,-1.6054688 -0.375,-2.0273438 -0.383789,-0.6328125 -0.934571,-0.9492187 -1.652344,-0.9492187 -0.75,0 -1.30957,0.328125 -1.675781,0.984375 -0.234375,0.4072265 -0.351563,1.0722656 -0.351563,1.9921875 0,0.946289 0.123047,1.6347656 0.375,2.0625 0.38086,0.65624996 0.9375,0.98437496 1.664063,0.98437496 0.764648,0 1.330078,-0.35742187 1.699218,-1.07812496 0.210938,-0.413086 0.316407,-1.069336 0.316407,-1.96875 z m 9.301757,3.25781246 c -0.914062,-0.02929687 -1.464843,-0.046875 -1.652343,-0.046875 -0.158203,0 -0.703125,0.01757813 -1.640625,0.046875 v -0.45703125 c 0.123047,0.008789 0.234375,0.0117188 0.328125,0.0117188 0.28125,0 0.474609,-0.0263672 0.585937,-0.0820313 0.146485,-0.0849609 0.222656,-0.2578125 0.222656,-0.51562501 v -3.5507812 c 0,-1.0371094 -0.360351,-1.5585938 -1.078125,-1.5585938 -0.594726,0 -1.083984,0.2519531 -1.464843,0.75 -0.345703,0.4541016 -0.515625,0.9902344 -0.515625,1.6054688 v 2.7304687 c 0,0.17285158 0.02344,0.30468751 0.07031,0.39843751 0.09375,0.18164063 0.445313,0.25195313 1.054688,0.2109375 v 0.45703125 c -0.908203,-0.02929687 -1.450196,-0.046875 -1.628907,-0.046875 -0.158203,0 -0.703125,0.01757813 -1.640625,0.046875 v -0.45703125 c 0.131836,0.008789 0.237305,0.0117188 0.316407,0.0117188 0.310547,0 0.518554,-0.0292969 0.621093,-0.09375 0.131836,-0.0849609 0.199219,-0.27539062 0.199219,-0.57421881 v -3.9140624 c 0,-0.3984375 -0.102539,-0.6474609 -0.304687,-0.75 -0.111328,-0.052734 -0.386719,-0.076172 -0.832032,-0.070312 v -0.46875 l 2.0625,-0.1523438 v 1.5351563 c 0.451172,-1.0224609 1.171875,-1.5351563 2.15625,-1.5351563 1.327149,0 1.992188,0.7207031 1.992188,2.15625 v 3.42187501 c 0,0.328125 0.380859,0.47460938 1.148437,0.43359375 z m 0,0"
       style="fill:#999999;fill-opacity:1;fill-rule:nonzero;stroke:none;stroke-width:0.99975002;stroke-dasharray:none"
       aria-label="3-triangulation"
       transform="matrix(1.3333333,0,0,1.3333333,72.669031,430.09578)" />
    <path
       id="path55"
       d="m 93.934,374 h 54 v 36 h -54 z"
       style="fill:#999999;fill-opacity:0.13333334;fill-rule:nonzero;stroke:#999999;stroke-width:1;stroke-linecap:butt;stroke-linejoin:miter;stroke-miterlimit:10;stroke-dasharray:none;stroke-opacity:0.75378543"
       transform="scale(1.3333333)" />
    <g
       id="g6"
       style="fill:#999999;fill-opacity:0.32549021">
      <text
         id="text55"
         xml:space="preserve"
         transform="matrix(1.3333333,0,0,1.3333333,151.91277,527.59894)"
         style="fill:#999999;fill-opacity:1;stroke-width:0.99975002;stroke-dasharray:none"><tspan
           style="font-variant:normal;font-weight:normal;font-size:14.0002px;font-family:'Liberation Serif';writing-mode:lr-tb;fill:#999999;fill-opacity:1;fill-rule:nonzero;stroke:none;stroke-width:0.99975002;stroke-dasharray:none"
           x="0"
           y="0"
           id="tspan55">n</tspan></text>
      <text
         id="text56"
         xml:space="preserve"
         transform="matrix(1.3333333,0,0,1.3333333,160.91023,527.59894)"
         style="fill:#999999;fill-opacity:1;stroke-width:0.99975002;stroke-dasharray:none"><tspan
           style="font-variant:normal;font-weight:normal;font-size:14.0002px;font-family:'Liberation Serif';writing-mode:lr-tb;fill:#999999;fill-opacity:1;fill-rule:nonzero;stroke:none;stroke-width:0.99975002;stroke-dasharray:none"
           x="0"
           y="0"
           id="tspan56">0</tspan></text>
    </g>
    <path
       style="fill:none;fill-opacity:0.8;stroke:#999999;stroke-width:1.2;stroke-linecap:square;stroke-linejoin:miter;stroke-dasharray:none;stroke-opacity:0.75"
       d="M 302.65529,556.7333 H 115.83555"
       id="path1-8"
       sodipodi:nodetypes="cc" />
  </g>
</svg>
