<?xml version="1.0" encoding="UTF-8" standalone="no"?>
<!-- Created with Jerboa -->

<svg
   width="611.6319"
   height="501.40906"
   version="1.1"
   id="svg1"
   sodipodi:docname="reevaluation-strat-app-37.svg"
   inkscape:version="1.4 (e7c3feb100, 2024-10-09)"
   xmlns:inkscape="http://www.inkscape.org/namespaces/inkscape"
   xmlns:sodipodi="http://sodipodi.sourceforge.net/DTD/sodipodi-0.dtd"
   xmlns="http://www.w3.org/2000/svg"
   xmlns:svg="http://www.w3.org/2000/svg">
  <defs
     id="defs1" />
  <sodipodi:namedview
     id="namedview1"
     pagecolor="#ffffff"
     bordercolor="#000000"
     borderopacity="0.25"
     inkscape:showpageshadow="2"
     inkscape:pageopacity="0.0"
     inkscape:pagecheckerboard="0"
     inkscape:deskcolor="#d1d1d1"
     inkscape:zoom="0.5347064"
     inkscape:cx="77.612686"
     inkscape:cy="216.94148"
     inkscape:window-width="1892"
     inkscape:window-height="1035"
     inkscape:window-x="1929"
     inkscape:window-y="26"
     inkscape:window-maximized="1"
     inkscape:current-layer="svg1"
     showgrid="false" />
  <style
     id="style">
		.arc0 {
			fill:none;
			fill-rule:evenodd;
			stroke:black;
			stroke-width:4;
			stroke-linecap:round;
			stroke-linejoin:round;
			stroke-opacity:1;
		}
		.arc1 {
			fill:none;
			fill-rule:evenodd;
			stroke:red;
			stroke-width:4;
			stroke-linecap:round;
			stroke-linejoin:round;
			stroke-opacity:1;
		}
		.arc2 {
			fill:none;
			fill-rule:evenodd;
			stroke:blue;
			stroke-width:4;
			stroke-linecap:round;
			stroke-linejoin:round;
			stroke-opacity:1;
		}
		.arc3 {
			fill:none;
			fill-rule:evenodd;
			stroke:green;
			stroke-width:4;
			stroke-linecap:round;
			stroke-linejoin:round;
			stroke-opacity:1;
		}
		.topological-dart {
			fill:#000000;
			stroke:#000000;
			stroke-width:0;
			stroke-linecap:round;
			stroke-linejoin:round;
			stroke-dasharray:none;
			paint-order:markers fill stroke;
		}
	</style>
  <polygon
     points="1001.3485,452.424 1001.3485,742.5352 947.8783,801.3517 695.6749,788.66095 642.2048,724.4634 642.2048,434.35205 695.6749,375.53558 947.8783,388.22632 "
     id="face_22_23_18_17_16_15_20_21"
     style="fill:#c0c0c0;stroke:none"
     opacity="1"
     transform="translate(-397.36633,-359.32404)" />
  <line
     class="arc1"
     id="link21_@1_20"
     x1="244.83844"
     y1="365.13934"
     x2="298.30859"
     y2="429.33691" />
  <line
     class="arc2"
     id="link21_@2_26"
     x1="244.83844"
     y1="365.13934"
     x2="223.75317"
     y2="365.63171" />
  <line
     class="arc0"
     id="link21_@0_22"
     x1="244.83844"
     y1="365.13934"
     x2="244.83844"
     y2="75.028015" />
  <polygon
     points="403.74222,473.3299 403.74222,748.06433 437.95505,812.7677 590.24854,791.12305 621.1195,724.95575 621.1195,434.84454 590.24854,377.99774 437.95505,399.64233 "
     id="face_27_28_33_32_31_30_25_26"
     style="fill:#c0c0c0;stroke:none"
     opacity="1"
     transform="translate(-397.36633,-359.32404)" />
  <line
     class="arc1"
     id="link26_@1_25"
     x1="223.75317"
     y1="365.63171"
     x2="192.8822"
     y2="431.79901" />
  <line
     class="arc0"
     id="link26_@0_27"
     x1="223.75317"
     y1="365.63171"
     x2="223.75317"
     y2="75.520508" />
  <line
     class="arc2"
     id="link20_@2_0"
     x1="298.30859"
     y1="429.33691"
     x2="290.59082"
     y2="445.87872" />
  <line
     class="arc0"
     id="link20_@0_15"
     x1="298.30859"
     y1="429.33691"
     x2="550.51196"
     y2="442.02765" />
  <line
     class="arc1"
     id="link22_@1_23"
     x1="244.83844"
     y1="75.028015"
     x2="298.30859"
     y2="16.211548" />
  <line
     class="arc2"
     id="link22_@2_27"
     x1="244.83844"
     y1="75.028015"
     x2="223.75317"
     y2="75.520508" />
  <line
     class="arc1"
     id="link27_@1_28"
     x1="223.75317"
     y1="75.520508"
     x2="192.8822"
     y2="18.673706" />
  <polygon
     points="769.5697,858.7331 621.34875,854.38153 561.1948,851.3546 443.8448,842.34283 444.6388,828.4808 603.616,807.1724 687.95715,805.20276 940.1606,817.8935 962.75977,825.2443 830.5176,847.89795 "
     id="face_7_6_5_4_9_8_3_2_1_0"
     style="fill:#c0c0c0;stroke:none"
     opacity="1"
     transform="translate(-397.36633,-359.32404)" />
  <line
     class="arc1"
     id="link0_@1_1"
     x1="290.59082"
     y1="445.87872"
     x2="206.24969"
     y2="447.84839" />
  <line
     class="arc0"
     id="link0_@0_7"
     x1="290.59082"
     y1="445.87872"
     x2="542.79425"
     y2="458.56946" />
  <line
     class="arc2"
     id="link25_@2_1"
     x1="192.8822"
     y1="431.79901"
     x2="206.24969"
     y2="447.84839" />
  <line
     class="arc0"
     id="link25_@0_30"
     x1="192.8822"
     y1="431.79901"
     x2="40.588715"
     y2="453.44366" />
  <line
     class="arc0"
     id="link1_@0_2"
     x1="206.24969"
     y1="447.84839"
     x2="47.272461"
     y2="469.15674" />
  <line
     class="arc2"
     id="link23_@2_24"
     x1="298.30859"
     y1="16.211548"
     x2="290.59082"
     y2="2" />
  <line
     class="arc2"
     id="link18_@2_19"
     x1="550.51196"
     y1="28.902283"
     x2="542.79425"
     y2="14.690674" />
  <line
     class="arc0"
     id="link23_@0_18"
     x1="298.30859"
     y1="16.211548"
     x2="550.51196"
     y2="28.902283" />
  <polygon
     points="769.5697,399.47754 621.34875,395.12598 561.1948,392.09912 443.8448,383.08734 444.6388,384.602 603.616,363.29364 687.95715,361.32404 940.1606,374.0147 962.75977,381.3656 830.5176,404.0191 "
     id="face_19_14_59_54_49_44_39_34_29_24"
     style="fill:#c0c0c0;stroke:none"
     opacity="1"
     transform="translate(-397.36633,-359.32404)" />
  <line
     class="arc1"
     id="link24_@1_29"
     x1="290.59082"
     y1="2"
     x2="206.24969"
     y2="3.9696045" />
  <line
     class="arc0"
     id="link24_@0_19"
     x1="290.59082"
     y1="2"
     x2="542.79425"
     y2="14.690674" />
  <line
     class="arc1"
     id="link15_@1_16"
     x1="550.51196"
     y1="442.02765"
     x2="603.98218"
     y2="383.21118" />
  <line
     class="arc2"
     id="link15_@2_7"
     x1="550.51196"
     y1="442.02765"
     x2="542.79425"
     y2="458.56946" />
  <line
     class="arc1"
     id="link7_@1_6"
     x1="542.79425"
     y1="458.56946"
     x2="565.39343"
     y2="465.92029" />
  <line
     class="arc2"
     id="link16_@2_11"
     x1="603.98218"
     y1="383.21118"
     x2="609.6319"
     y2="385.04889" />
  <line
     class="arc0"
     id="link16_@0_17"
     x1="603.98218"
     y1="383.21118"
     x2="603.98218"
     y2="93.099976" />
  <line
     class="arc1"
     id="link18_@1_17"
     x1="550.51196"
     y1="28.902283"
     x2="603.98218"
     y2="93.099976" />
  <line
     class="arc1"
     id="link19_@1_14"
     x1="542.79425"
     y1="14.690674"
     x2="565.39343"
     y2="22.041565" />
  <line
     class="arc2"
     id="link17_@2_12"
     x1="603.98218"
     y1="93.099976"
     x2="609.6319"
     y2="94.937653" />
  <polygon
     points="809.6723,493.756 809.6723,768.4905 837.20123,832.8575 976.12726,810.5402 1006.9982,744.3729 1006.9982,454.2617 976.12726,397.41492 837.20123,419.73215 "
     id="face_12_13_58_57_56_55_10_11"
     style="fill:#c0c0c0;stroke:none"
     opacity="1"
     transform="translate(-397.36633,-359.32404)" />
  <line
     class="arc1"
     id="link11_@1_10"
     x1="609.6319"
     y1="385.04889"
     x2="578.76093"
     y2="451.21619" />
  <line
     class="arc0"
     id="link11_@0_12"
     x1="609.6319"
     y1="385.04889"
     x2="609.6319"
     y2="94.937653" />
  <line
     class="arc1"
     id="link12_@1_13"
     x1="609.6319"
     y1="94.937653"
     x2="578.76093"
     y2="38.090881" />
  <line
     class="arc2"
     id="link6_@2_10"
     x1="565.39343"
     y1="465.92029"
     x2="578.76093"
     y2="451.21619" />
  <line
     class="arc0"
     id="link6_@0_5"
     x1="565.39343"
     y1="465.92029"
     x2="433.15125"
     y2="488.57391" />
  <line
     class="arc0"
     id="link10_@0_55"
     x1="578.76093"
     y1="451.21619"
     x2="439.8349"
     y2="473.53345" />
  <line
     class="arc1"
     id="link30_@1_31"
     x1="40.588715"
     y1="453.44366"
     x2="6.375885"
     y2="388.7403" />
  <line
     class="arc2"
     id="link30_@2_2"
     x1="40.588715"
     y1="453.44366"
     x2="47.272461"
     y2="469.15674" />
  <line
     class="arc1"
     id="link2_@1_3"
     x1="47.272461"
     y1="469.15674"
     x2="46.478455"
     y2="483.0188" />
  <line
     class="arc2"
     id="link14_@2_13"
     x1="565.39343"
     y1="22.041565"
     x2="578.76093"
     y2="38.090881" />
  <line
     class="arc0"
     id="link14_@0_59"
     x1="565.39343"
     y1="22.041565"
     x2="433.15125"
     y2="44.695068" />
  <line
     class="arc0"
     id="link13_@0_58"
     x1="578.76093"
     y1="38.090881"
     x2="439.8349"
     y2="60.408112" />
  <line
     class="arc1"
     id="link33_@1_32"
     x1="40.588715"
     y1="40.318298"
     x2="6.375885"
     y2="114.00586" />
  <line
     class="arc2"
     id="link33_@2_34"
     x1="40.588715"
     y1="40.318298"
     x2="47.272461"
     y2="25.277954" />
  <line
     class="arc1"
     id="link34_@1_39"
     x1="47.272461"
     y1="25.277954"
     x2="46.478455"
     y2="23.763306" />
  <line
     class="arc2"
     id="link31_@2_36"
     x1="6.375885"
     y1="388.7403"
     x2="2"
     y2="382.38513" />
  <line
     class="arc0"
     id="link31_@0_32"
     x1="6.375885"
     y1="388.7403"
     x2="6.375885"
     y2="114.00586" />
  <line
     class="arc2"
     id="link3_@2_35"
     x1="46.478455"
     y1="483.0188"
     x2="42.102631"
     y2="476.66364" />
  <line
     class="arc0"
     id="link3_@0_8"
     x1="46.478455"
     y1="483.0188"
     x2="163.82849"
     y2="492.03058" />
  <polygon
     points="464.72516,655.31433 411.6999,774.6367 399.36633,741.70917 399.36633,482.3514 411.6999,453.77194 464.72516,578.43066 "
     id="face_37_124_125_123_122_36"
     style="fill:#0000ff;stroke:none"
     opacity="1"
     transform="translate(-397.36633,-359.32404)" />
  <line
     class="arc1"
     id="link36_@1_122"
     x1="2"
     y1="382.38513"
     x2="14.333557"
     y2="415.31268" />
  <line
     class="arc0"
     id="link36_@0_37"
     x1="2"
     y1="382.38513"
     x2="2"
     y2="123.02737" />
  <line
     class="arc2"
     id="link32_@2_37"
     x1="6.375885"
     y1="114.00586"
     x2="2"
     y2="123.02737" />
  <polygon
     points="471.4089,671.0275 418.38367,790.3498 439.46896,835.9877 551.1692,843.16174 557.85297,797.3678 504.82773,672.7091 "
     id="face_40_134_135_121_120_35"
     style="fill:#c0c0c0;stroke:none"
     opacity="1"
     transform="translate(-397.36633,-359.32404)" />
  <line
     class="arc1"
     id="link35_@1_120"
     x1="42.102631"
     y1="476.66364"
     x2="21.017334"
     y2="431.02576" />
  <line
     class="arc0"
     id="link35_@0_40"
     x1="42.102631"
     y1="476.66364"
     x2="153.80286"
     y2="483.83771" />
  <line
     class="arc2"
     id="link122_@2_120"
     x1="14.333557"
     y1="415.31268"
     x2="21.017334"
     y2="431.02576" />
  <line
     class="arc0"
     id="link122_@0_123"
     x1="14.333557"
     y1="415.31268"
     x2="67.358826"
     y2="295.9903" />
  <line
     class="arc1"
     id="link37_@1_124"
     x1="2"
     y1="123.02737"
     x2="14.333557"
     y2="94.447906" />
  <line
     class="arc0"
     id="link120_@0_121"
     x1="21.017334"
     y1="431.02576"
     x2="74.042572"
     y2="311.70349" />
  <line
     class="arc2"
     id="link39_@2_38"
     x1="46.478455"
     y1="23.763306"
     x2="42.102631"
     y2="32.784851" />
  <line
     class="arc0"
     id="link39_@0_44"
     x1="46.478455"
     y1="23.763306"
     x2="163.82849"
     y2="32.775085" />
  <line
     class="arc2"
     id="link124_@2_126"
     x1="14.333557"
     y1="94.447906"
     x2="21.017334"
     y2="79.407562" />
  <line
     class="arc0"
     id="link124_@0_125"
     x1="14.333557"
     y1="94.447906"
     x2="67.358826"
     y2="219.10663" />
  <polygon
     points="471.4089,563.3902 418.38367,438.7316 439.46896,392.1089 551.1692,399.2829 557.85297,445.74954 504.82773,565.0718 "
     id="face_43_128_129_127_126_38"
     style="fill:#c0c0c0;stroke:none"
     opacity="1"
     transform="translate(-397.36633,-359.32404)" />
  <line
     class="arc1"
     id="link38_@1_126"
     x1="42.102631"
     y1="32.784851"
     x2="21.017334"
     y2="79.407562" />
  <line
     class="arc0"
     id="link38_@0_43"
     x1="42.102631"
     y1="32.784851"
     x2="153.80286"
     y2="39.958862" />
  <line
     class="arc0"
     id="link126_@0_127"
     x1="21.017334"
     y1="79.407562"
     x2="74.042572"
     y2="204.06616" />
  <line
     class="arc1"
     id="link123_@1_125"
     x1="67.358826"
     y1="295.9903"
     x2="67.358826"
     y2="219.10663" />
  <line
     class="arc2"
     id="link123_@2_121"
     x1="67.358826"
     y1="295.9903"
     x2="74.042572"
     y2="311.70349" />
  <line
     class="arc1"
     id="link121_@1_135"
     x1="74.042572"
     y1="311.70349"
     x2="107.4614"
     y2="313.38507" />
  <line
     class="arc2"
     id="link125_@2_127"
     x1="67.358826"
     y1="219.10663"
     x2="74.042572"
     y2="204.06616" />
  <line
     class="arc1"
     id="link127_@1_129"
     x1="74.042572"
     y1="204.06616"
     x2="107.4614"
     y2="205.74774" />
  <line
     class="arc2"
     id="link135_@2_133"
     x1="107.4614"
     y1="313.38507"
     x2="114.14514"
     y2="298.3446" />
  <line
     class="arc0"
     id="link135_@0_134"
     x1="107.4614"
     y1="313.38507"
     x2="160.48663"
     y2="438.04376" />
  <polygon
     points="564.5367,461.4626 511.51147,580.7849 511.51147,657.66864 564.5367,782.32733 587.9299,745.06256 587.9299,501.0816 "
     id="face_132_41_42_130_131_133"
     style="fill:#c0c0c0;stroke:none"
     opacity="1"
     transform="translate(-397.36633,-359.32404)" />
  <line
     class="arc1"
     id="link133_@1_131"
     x1="114.14514"
     y1="298.3446"
     x2="114.14514"
     y2="221.46088" />
  <line
     class="arc0"
     id="link133_@0_132"
     x1="114.14514"
     y1="298.3446"
     x2="167.17035"
     y2="423.0033" />
  <line
     class="arc2"
     id="link129_@2_131"
     x1="107.4614"
     y1="205.74774"
     x2="114.14514"
     y2="221.46088" />
  <line
     class="arc0"
     id="link129_@0_128"
     x1="107.4614"
     y1="205.74774"
     x2="160.48663"
     y2="86.425507" />
  <line
     class="arc1"
     id="link40_@1_134"
     x1="153.80286"
     y1="483.83771"
     x2="160.48663"
     y2="438.04376" />
  <line
     class="arc2"
     id="link40_@2_8"
     x1="153.80286"
     y1="483.83771"
     x2="163.82849"
     y2="492.03058" />
  <line
     class="arc0"
     id="link131_@0_130"
     x1="114.14514"
     y1="221.46088"
     x2="167.17035"
     y2="102.13855" />
  <line
     class="arc1"
     id="link8_@1_9"
     x1="163.82849"
     y1="492.03058"
     x2="223.98242"
     y2="495.0575" />
  <line
     class="arc2"
     id="link134_@2_132"
     x1="160.48663"
     y1="438.04376"
     x2="167.17035"
     y2="423.0033" />
  <line
     class="arc1"
     id="link132_@1_41"
     x1="167.17035"
     y1="423.0033"
     x2="190.56354"
     y2="385.73853" />
  <line
     class="arc2"
     id="link41_@2_46"
     x1="190.56354"
     y1="385.73853"
     x2="197.24725"
     y2="386.07489" />
  <line
     class="arc0"
     id="link41_@0_42"
     x1="190.56354"
     y1="385.73853"
     x2="190.56354"
     y2="141.75757" />
  <polygon
     points="671.032,665.6956 618.00684,785.01794 594.6136,745.3989 594.6136,501.4179 618.00684,464.15317 671.032,588.8119 "
     id="face_47_146_147_149_148_46"
     style="fill:#c0c0c0;stroke:none"
     opacity="1"
     transform="translate(-397.36633,-359.32404)" />
  <line
     class="arc1"
     id="link46_@1_148"
     x1="197.24725"
     y1="386.07489"
     x2="220.6405"
     y2="425.69391" />
  <line
     class="arc0"
     id="link46_@0_47"
     x1="197.24725"
     y1="386.07489"
     x2="197.24725"
     y2="142.09387" />
  <line
     class="arc1"
     id="link43_@1_128"
     x1="153.80286"
     y1="39.958862"
     x2="160.48663"
     y2="86.425507" />
  <line
     class="arc2"
     id="link43_@2_44"
     x1="153.80286"
     y1="39.958862"
     x2="163.82849"
     y2="32.775085" />
  <line
     class="arc2"
     id="link128_@2_130"
     x1="160.48663"
     y1="86.425507"
     x2="167.17035"
     y2="102.13855" />
  <line
     class="arc2"
     id="link9_@2_45"
     x1="223.98242"
     y1="495.0575"
     x2="234.00806"
     y2="487.8736" />
  <line
     class="arc0"
     id="link9_@0_4"
     x1="223.98242"
     y1="495.0575"
     x2="372.20337"
     y2="499.40906" />
  <line
     class="arc1"
     id="link130_@1_42"
     x1="167.17035"
     y1="102.13855"
     x2="190.56354"
     y2="141.75757" />
  <line
     class="arc2"
     id="link148_@2_150"
     x1="220.6405"
     y1="425.69391"
     x2="227.32434"
     y2="441.40698" />
  <line
     class="arc0"
     id="link148_@0_149"
     x1="220.6405"
     y1="425.69391"
     x2="273.66565"
     y2="306.37158" />
  <line
     class="arc1"
     id="link44_@1_49"
     x1="163.82849"
     y1="32.775085"
     x2="223.98242"
     y2="35.801941" />
  <polygon
     points="677.71576,681.40875 624.6907,800.731 631.3744,847.19763 758.5101,852.0416 764.1599,807.749 711.13464,683.09033 "
     id="face_50_136_137_151_150_45"
     style="fill:#c0c0c0;stroke:none"
     opacity="1"
     transform="translate(-397.36633,-359.32404)" />
  <line
     class="arc1"
     id="link45_@1_150"
     x1="234.00806"
     y1="487.8736"
     x2="227.32434"
     y2="441.40698" />
  <line
     class="arc0"
     id="link45_@0_50"
     x1="234.00806"
     y1="487.8736"
     x2="361.14374"
     y2="492.71759" />
  <line
     class="arc0"
     id="link150_@0_151"
     x1="227.32434"
     y1="441.40698"
     x2="280.34943"
     y2="322.08472" />
  <line
     class="arc2"
     id="link42_@2_47"
     x1="190.56354"
     y1="141.75757"
     x2="197.24725"
     y2="142.09387" />
  <line
     class="arc1"
     id="link5_@1_4"
     x1="433.15125"
     y1="488.57391"
     x2="372.20337"
     y2="499.40906" />
  <line
     class="arc2"
     id="link5_@2_55"
     x1="433.15125"
     y1="488.57391"
     x2="439.8349"
     y2="473.53345" />
  <line
     class="arc1"
     id="link47_@1_146"
     x1="197.24725"
     y1="142.09387"
     x2="220.6405"
     y2="104.82913" />
  <line
     class="arc1"
     id="link55_@1_56"
     x1="439.8349"
     y1="473.53345"
     x2="412.30597"
     y2="409.16644" />
  <line
     class="arc2"
     id="link146_@2_144"
     x1="220.6405"
     y1="104.82913"
     x2="227.32434"
     y2="89.788757" />
  <line
     class="arc0"
     id="link146_@0_147"
     x1="220.6405"
     y1="104.82913"
     x2="273.66565"
     y2="229.48785" />
  <polygon
     points="758.5101,408.16284 631.3744,403.3188 624.6907,449.1128 677.71576,573.7715 711.13464,575.45306 764.1599,456.1308 "
     id="face_145_143_142_53_48_144"
     style="fill:#c0c0c0;stroke:none"
     opacity="1"
     transform="translate(-397.36633,-359.32404)" />
  <line
     class="arc1"
     id="link144_@1_48"
     x1="227.32434"
     y1="89.788757"
     x2="234.00806"
     y2="43.994751" />
  <line
     class="arc0"
     id="link144_@0_145"
     x1="227.32434"
     y1="89.788757"
     x2="280.34943"
     y2="214.44745" />
  <line
     class="arc2"
     id="link49_@2_48"
     x1="223.98242"
     y1="35.801941"
     x2="234.00806"
     y2="43.994751" />
  <line
     class="arc0"
     id="link49_@0_54"
     x1="223.98242"
     y1="35.801941"
     x2="372.20337"
     y2="40.153503" />
  <line
     class="arc0"
     id="link48_@0_53"
     x1="234.00806"
     y1="43.994751"
     x2="361.14374"
     y2="48.838806" />
  <line
     class="arc1"
     id="link149_@1_147"
     x1="273.66565"
     y1="306.37158"
     x2="273.66565"
     y2="229.48785" />
  <line
     class="arc2"
     id="link149_@2_151"
     x1="273.66565"
     y1="306.37158"
     x2="280.34943"
     y2="322.08472" />
  <line
     class="arc1"
     id="link151_@1_137"
     x1="280.34943"
     y1="322.08472"
     x2="313.76831"
     y2="323.7663" />
  <line
     class="arc2"
     id="link4_@2_50"
     x1="372.20337"
     y1="499.40906"
     x2="361.14374"
     y2="492.71759" />
  <line
     class="arc2"
     id="link147_@2_145"
     x1="273.66565"
     y1="229.48785"
     x2="280.34943"
     y2="214.44745" />
  <line
     class="arc1"
     id="link59_@1_54"
     x1="433.15125"
     y1="44.695068"
     x2="372.20337"
     y2="40.153503" />
  <line
     class="arc2"
     id="link59_@2_58"
     x1="433.15125"
     y1="44.695068"
     x2="439.8349"
     y2="60.408112" />
  <line
     class="arc1"
     id="link58_@1_57"
     x1="439.8349"
     y1="60.408112"
     x2="412.30597"
     y2="134.43198" />
  <line
     class="arc1"
     id="link145_@1_143"
     x1="280.34943"
     y1="214.44745"
     x2="313.76831"
     y2="216.12903" />
  <line
     class="arc1"
     id="link50_@1_136"
     x1="361.14374"
     y1="492.71759"
     x2="366.79358"
     y2="448.42499" />
  <line
     class="arc2"
     id="link137_@2_139"
     x1="313.76831"
     y1="323.7663"
     x2="320.45209"
     y2="308.72589" />
  <line
     class="arc0"
     id="link137_@0_136"
     x1="313.76831"
     y1="323.7663"
     x2="366.79358"
     y2="448.42499" />
  <polygon
     points="770.8436,471.84384 717.8184,591.16614 717.8184,668.0499 770.8436,792.7086 798.61255,761.79895 798.61255,502.44122 "
     id="face_138_51_52_140_141_139"
     style="fill:#c0c0c0;stroke:none"
     opacity="1"
     transform="translate(-397.36633,-359.32404)" />
  <line
     class="arc1"
     id="link139_@1_141"
     x1="320.45209"
     y1="308.72589"
     x2="320.45209"
     y2="231.8421" />
  <line
     class="arc0"
     id="link139_@0_138"
     x1="320.45209"
     y1="308.72589"
     x2="373.47729"
     y2="433.38458" />
  <line
     class="arc2"
     id="link143_@2_141"
     x1="313.76831"
     y1="216.12903"
     x2="320.45209"
     y2="231.8421" />
  <line
     class="arc0"
     id="link143_@0_142"
     x1="313.76831"
     y1="216.12903"
     x2="366.79358"
     y2="96.806763" />
  <line
     class="arc0"
     id="link141_@0_140"
     x1="320.45209"
     y1="231.8421"
     x2="373.47729"
     y2="112.51981" />
  <line
     class="arc2"
     id="link56_@2_51"
     x1="412.30597"
     y1="409.16644"
     x2="401.24622"
     y2="402.47491" />
  <line
     class="arc0"
     id="link56_@0_57"
     x1="412.30597"
     y1="409.16644"
     x2="412.30597"
     y2="134.43198" />
  <line
     class="arc2"
     id="link136_@2_138"
     x1="366.79358"
     y1="448.42499"
     x2="373.47729"
     y2="433.38458" />
  <line
     class="arc2"
     id="link54_@2_53"
     x1="372.20337"
     y1="40.153503"
     x2="361.14374"
     y2="48.838806" />
  <line
     class="arc1"
     id="link51_@1_138"
     x1="401.24622"
     y1="402.47491"
     x2="373.47729"
     y2="433.38458" />
  <line
     class="arc0"
     id="link51_@0_52"
     x1="401.24622"
     y1="402.47491"
     x2="401.24622"
     y2="143.11719" />
  <line
     class="arc1"
     id="link53_@1_142"
     x1="361.14374"
     y1="48.838806"
     x2="366.79358"
     y2="96.806763" />
  <line
     class="arc2"
     id="link57_@2_52"
     x1="412.30597"
     y1="134.43198"
     x2="401.24622"
     y2="143.11719" />
  <line
     class="arc1"
     id="link52_@1_140"
     x1="401.24622"
     y1="143.11719"
     x2="373.47729"
     y2="112.51981" />
  <line
     class="arc2"
     id="link142_@2_140"
     x1="366.79358"
     y1="96.806763"
     x2="373.47729"
     y2="112.51981" />
  <path
     style="fill:#000000;stroke:#000000;stroke-width:4;stroke-linecap:round;stroke-linejoin:round;stroke-dasharray:none;stroke-opacity:1"
     d="M 206.24967,3.969604 46.478455,23.763304"
     id="path1" />
</svg>
