<?xml version="1.0" encoding="UTF-8" standalone="no"?>
<!-- Created with Jerboa -->

<svg
   width="1634.3978"
   height="419.44141"
   version="1.1"
   id="svg1"
   sodipodi:docname="ribbon-extrusion-reevaluation-2D.svg"
   inkscape:version="1.4 (e7c3feb100, 2024-10-09)"
   xmlns:inkscape="http://www.inkscape.org/namespaces/inkscape"
   xmlns:sodipodi="http://sodipodi.sourceforge.net/DTD/sodipodi-0.dtd"
   xmlns="http://www.w3.org/2000/svg"
   xmlns:svg="http://www.w3.org/2000/svg">
  <defs
     id="defs1" />
  <sodipodi:namedview
     id="namedview1"
     pagecolor="#ffffff"
     bordercolor="#000000"
     borderopacity="0.25"
     inkscape:showpageshadow="2"
     inkscape:pageopacity="0.0"
     inkscape:pagecheckerboard="0"
     inkscape:deskcolor="#d1d1d1"
     showgrid="false"
     inkscape:zoom="0.49110953"
     inkscape:cx="540.6126"
     inkscape:cy="256.56191"
     inkscape:window-width="1892"
     inkscape:window-height="1035"
     inkscape:window-x="9"
     inkscape:window-y="26"
     inkscape:window-maximized="1"
     inkscape:current-layer="svg1" />
  <style
     id="style">
		.arc0 {
			fill:none;
			fill-rule:evenodd;
			stroke:black;
			stroke-width:4;
			stroke-linecap:round;
			stroke-linejoin:round;
			stroke-opacity:1;
		}
		.arc1 {
			fill:none;
			fill-rule:evenodd;
			stroke:red;
			stroke-width:4;
			stroke-linecap:round;
			stroke-linejoin:round;
			stroke-opacity:1;
		}
		.arc2 {
			fill:none;
			fill-rule:evenodd;
			stroke:blue;
			stroke-width:4;
			stroke-linecap:round;
			stroke-linejoin:round;
			stroke-opacity:1;
		}
		.arc3 {
			fill:none;
			fill-rule:evenodd;
			stroke:green;
			stroke-width:4;
			stroke-linecap:round;
			stroke-linejoin:round;
			stroke-opacity:1;
		}
		.topological-dart {
			fill:#000000;
			stroke:#000000;
			stroke-width:0;
			stroke-linecap:round;
			stroke-linejoin:round;
			stroke-dasharray:none;
			paint-order:markers fill stroke;
		}
	</style>
  <polygon
     points="514.6331,177.93817 514.6331,285.57675 514.6331,366.98306 514.6331,474.62164 433.22675,515.3248 217.9496,515.3248 136.54329,433.91852 136.54329,218.6413 217.9496,137.23505 433.22675,137.23505 "
     id="face_7_6_9_8_5_4_3_2_1_0"
     style="fill:#c0c0c0;stroke:none"
     opacity="1"
     transform="translate(-134.54329,-116.5592)" />
  <line
     class="arc1"
     id="link0_@1_1"
     x1="83.406311"
     y1="20.675842"
     x2="2"
     y2="102.08209" />
  <line
     class="arc0"
     id="link0_@0_7"
     x1="83.406311"
     y1="20.675842"
     x2="298.68347"
     y2="20.675842" />
  <line
     class="arc0"
     id="link1_@0_2"
     x1="2"
     y1="102.08209"
     x2="2"
     y2="317.35931" />
  <line
     class="arc1"
     id="link2_@1_3"
     x1="2"
     y1="317.35931"
     x2="83.406311"
     y2="398.76562" />
  <line
     class="arc0"
     id="link3_@0_4"
     x1="83.406311"
     y1="398.76562"
     x2="298.68347"
     y2="398.76562" />
  <line
     class="arc1"
     id="link4_@1_5"
     x1="298.68347"
     y1="398.76562"
     x2="380.08984"
     y2="358.06244" />
  <line
     class="arc2"
     id="link5_@2_10"
     x1="380.08984"
     y1="358.06244"
     x2="416.72247"
     y2="368.23819" />
  <line
     class="arc0"
     id="link5_@0_8"
     x1="380.08984"
     y1="358.06244"
     x2="380.08984"
     y2="250.42386" />
  <circle
     id="dart5"
     cx="380.08984"
     cy="358.06244"
     r="10"
     stroke="#000000"
     fill="#000000" />
  <line
     class="arc1"
     id="link6_@1_7"
     x1="380.08984"
     y1="61.378967"
     x2="298.68347"
     y2="20.675842" />
  <line
     class="arc2"
     id="link6_@2_18"
     x1="380.08984"
     y1="61.378967"
     x2="416.72247"
     y2="51.203156" />
  <line
     class="arc0"
     id="link6_@0_9"
     x1="380.08984"
     y1="61.378967"
     x2="380.08984"
     y2="169.01755" />
  <circle
     id="dart6"
     cx="380.08984"
     cy="61.378967"
     r="10"
     stroke="#000000"
     fill="#000000" />
  <line
     class="arc1"
     id="link8_@1_9"
     x1="380.08984"
     y1="250.42386"
     x2="380.08984"
     y2="169.01755" />
  <line
     class="arc2"
     id="link8_@2_14"
     x1="380.08984"
     y1="250.42386"
     x2="416.72247"
     y2="260.59964" />
  <line
     class="arc2"
     id="link9_@2_22"
     x1="380.08984"
     y1="169.01755"
     x2="416.72247"
     y2="158.8418" />
  <polygon
     points="632.6722,336.45566 847.9493,336.45566 929.3558,377.15884 929.3558,484.7974 847.9493,525.5006 632.6722,525.5006 551.26575,484.7974 551.26575,377.15884 "
     id="face_14_15_16_17_13_12_11_10"
     style="fill:#ffc000;stroke:none"
     opacity="1"
     transform="translate(-134.54329,-116.5592)" />
  <line
     class="arc1"
     id="link10_@1_11"
     x1="416.72247"
     y1="368.23819"
     x2="498.12891"
     y2="408.94141" />
  <line
     class="arc0"
     id="link10_@0_14"
     x1="416.72247"
     y1="368.23819"
     x2="416.72247"
     y2="260.59964" />
  <line
     class="arc0"
     id="link11_@0_12"
     x1="498.12891"
     y1="408.94141"
     x2="713.40601"
     y2="408.94141" />
  <circle
     id="dart11"
     cx="498.12891"
     cy="408.94141"
     r="10"
     stroke="#000000"
     fill="#000000" />
  <line
     class="arc1"
     id="link12_@1_13"
     x1="713.40601"
     y1="408.94141"
     x2="794.8125"
     y2="368.23819" />
  <line
     class="arc2"
     id="link13_@2_26"
     x1="794.8125"
     y1="368.23819"
     x2="835.51556"
     y2="368.23819" />
  <line
     class="arc0"
     id="link13_@0_17"
     x1="794.8125"
     y1="368.23819"
     x2="794.8125"
     y2="260.59964" />
  <circle
     id="dart13"
     cx="794.8125"
     cy="368.23819"
     r="10"
     stroke="#000000"
     fill="#000000" />
  <line
     class="arc1"
     id="link14_@1_15"
     x1="416.72247"
     y1="260.59964"
     x2="498.12891"
     y2="219.89645" />
  <line
     class="arc0"
     id="link15_@0_16"
     x1="498.12891"
     y1="219.89645"
     x2="713.40601"
     y2="219.89645" />
  <line
     class="arc1"
     id="link16_@1_17"
     x1="713.40601"
     y1="219.89645"
     x2="794.8125"
     y2="260.59964" />
  <line
     class="arc2"
     id="link17_@2_30"
     x1="794.8125"
     y1="260.59964"
     x2="835.51556"
     y2="260.59964" />
  <polygon
     points="632.6722,316.10413 847.9493,316.10413 929.3558,275.401 929.3558,167.76236 847.9493,127.0592 632.6722,127.0592 551.26575,167.76236 551.26575,275.401 "
     id="face_22_23_24_25_21_20_19_18"
     style="fill:#ffc000;stroke:none"
     opacity="1"
     transform="translate(-134.54329,-116.5592)" />
  <line
     class="arc1"
     id="link18_@1_19"
     x1="416.72247"
     y1="51.203156"
     x2="498.12891"
     y2="10.499992" />
  <line
     class="arc0"
     id="link18_@0_22"
     x1="416.72247"
     y1="51.203156"
     x2="416.72247"
     y2="158.8418" />
  <line
     class="arc0"
     id="link19_@0_20"
     x1="498.12891"
     y1="10.499992"
     x2="713.40601"
     y2="10.499992" />
  <circle
     id="dart19"
     cx="498.12891"
     cy="10.499992"
     r="10"
     stroke="#000000"
     fill="#000000" />
  <line
     class="arc1"
     id="link20_@1_21"
     x1="713.40601"
     y1="10.499992"
     x2="794.8125"
     y2="51.203156" />
  <line
     class="arc2"
     id="link21_@2_34"
     x1="794.8125"
     y1="51.203156"
     x2="835.51556"
     y2="51.203156" />
  <line
     class="arc0"
     id="link21_@0_25"
     x1="794.8125"
     y1="51.203156"
     x2="794.8125"
     y2="158.8418" />
  <circle
     id="dart21"
     cx="794.8125"
     cy="51.203156"
     r="10"
     stroke="#000000"
     fill="#000000" />
  <line
     class="arc1"
     id="link22_@1_23"
     x1="416.72247"
     y1="158.8418"
     x2="498.12891"
     y2="199.54492" />
  <line
     class="arc0"
     id="link23_@0_24"
     x1="498.12891"
     y1="199.54492"
     x2="713.40601"
     y2="199.54492" />
  <line
     class="arc1"
     id="link24_@1_25"
     x1="713.40601"
     y1="199.54492"
     x2="794.8125"
     y2="158.8418" />
  <line
     class="arc2"
     id="link25_@2_38"
     x1="794.8125"
     y1="158.8418"
     x2="835.51556"
     y2="158.8418" />
  <polygon
     points="1051.4653,336.45566 1266.7422,336.45566 1348.1488,377.15884 1348.1488,484.7974 1266.7422,525.5006 1051.4653,525.5006 970.05884,484.7974 970.05884,377.15884 "
     id="face_30_31_32_33_29_28_27_26"
     style="fill:#c0c0c0;stroke:none"
     opacity="1"
     transform="translate(-134.54329,-116.5592)" />
  <line
     class="arc1"
     id="link26_@1_27"
     x1="835.51556"
     y1="368.23819"
     x2="916.92206"
     y2="408.94141" />
  <line
     class="arc0"
     id="link26_@0_30"
     x1="835.51556"
     y1="368.23819"
     x2="835.51556"
     y2="260.59964" />
  <line
     class="arc0"
     id="link27_@0_28"
     x1="916.92206"
     y1="408.94141"
     x2="1132.1989"
     y2="408.94141" />
  <line
     class="arc1"
     id="link28_@1_29"
     x1="1132.1989"
     y1="408.94141"
     x2="1213.6055"
     y2="368.23819" />
  <line
     class="arc2"
     id="link29_@2_42"
     x1="1213.6055"
     y1="368.23819"
     x2="1254.3086"
     y2="368.23819" />
  <line
     class="arc0"
     id="link29_@0_33"
     x1="1213.6055"
     y1="368.23819"
     x2="1213.6055"
     y2="260.59964" />
  <circle
     id="dart29"
     cx="1213.6055"
     cy="368.23819"
     r="10"
     stroke="#000000"
     fill="#000000" />
  <line
     class="arc1"
     id="link30_@1_31"
     x1="835.51556"
     y1="260.59964"
     x2="916.92206"
     y2="219.89645" />
  <line
     class="arc0"
     id="link31_@0_32"
     x1="916.92206"
     y1="219.89645"
     x2="1132.1989"
     y2="219.89645" />
  <line
     class="arc1"
     id="link32_@1_33"
     x1="1132.1989"
     y1="219.89645"
     x2="1213.6055"
     y2="260.59964" />
  <line
     class="arc2"
     id="link33_@2_46"
     x1="1213.6055"
     y1="260.59964"
     x2="1254.3086"
     y2="260.59964" />
  <polygon
     points="1051.4653,316.10413 1266.7422,316.10413 1348.1488,275.401 1348.1488,167.76236 1266.7422,127.0592 1051.4653,127.0592 970.05884,167.76236 970.05884,275.401 "
     id="face_38_39_40_41_37_36_35_34"
     style="fill:#c0c0c0;stroke:none"
     opacity="1"
     transform="translate(-134.54329,-116.5592)" />
  <line
     class="arc1"
     id="link34_@1_35"
     x1="835.51556"
     y1="51.203156"
     x2="916.92206"
     y2="10.499992" />
  <line
     class="arc0"
     id="link34_@0_38"
     x1="835.51556"
     y1="51.203156"
     x2="835.51556"
     y2="158.8418" />
  <line
     class="arc0"
     id="link35_@0_36"
     x1="916.92206"
     y1="10.499992"
     x2="1132.1989"
     y2="10.499992" />
  <line
     class="arc1"
     id="link36_@1_37"
     x1="1132.1989"
     y1="10.499992"
     x2="1213.6055"
     y2="51.203156" />
  <line
     class="arc2"
     id="link37_@2_50"
     x1="1213.6055"
     y1="51.203156"
     x2="1254.3086"
     y2="51.203156" />
  <line
     class="arc0"
     id="link37_@0_41"
     x1="1213.6055"
     y1="51.203156"
     x2="1213.6055"
     y2="158.8418" />
  <circle
     id="dart37"
     cx="1213.6055"
     cy="51.203156"
     r="10"
     stroke="#000000"
     fill="#000000" />
  <line
     class="arc1"
     id="link38_@1_39"
     x1="835.51556"
     y1="158.8418"
     x2="916.92206"
     y2="199.54492" />
  <line
     class="arc0"
     id="link39_@0_40"
     x1="916.92206"
     y1="199.54492"
     x2="1132.1989"
     y2="199.54492" />
  <line
     class="arc1"
     id="link40_@1_41"
     x1="1132.1989"
     y1="199.54492"
     x2="1213.6055"
     y2="158.8418" />
  <line
     class="arc2"
     id="link41_@2_54"
     x1="1213.6055"
     y1="158.8418"
     x2="1254.3086"
     y2="158.8418" />
  <polygon
     points="1470.2582,336.45566 1685.535,336.45566 1766.9412,377.15884 1766.9412,484.7974 1685.535,525.5006 1470.2582,525.5006 1388.8519,484.7974 1388.8519,377.15884 "
     id="face_46_47_48_49_45_44_43_42"
     style="fill:#c0c0c0;stroke:none"
     opacity="1"
     transform="translate(-134.54329,-116.5592)" />
  <line
     class="arc1"
     id="link42_@1_43"
     x1="1254.3086"
     y1="368.23819"
     x2="1335.7148"
     y2="408.94141" />
  <line
     class="arc0"
     id="link42_@0_46"
     x1="1254.3086"
     y1="368.23819"
     x2="1254.3086"
     y2="260.59964" />
  <line
     class="arc0"
     id="link43_@0_44"
     x1="1335.7148"
     y1="408.94141"
     x2="1550.9917"
     y2="408.94141" />
  <line
     class="arc1"
     id="link44_@1_45"
     x1="1550.9917"
     y1="408.94141"
     x2="1632.3978"
     y2="368.23819" />
  <line
     class="arc0"
     id="link45_@0_49"
     x1="1632.3978"
     y1="368.23819"
     x2="1632.3978"
     y2="260.59964" />
  <line
     class="arc1"
     id="link46_@1_47"
     x1="1254.3086"
     y1="260.59964"
     x2="1335.7148"
     y2="219.89645" />
  <line
     class="arc0"
     id="link47_@0_48"
     x1="1335.7148"
     y1="219.89645"
     x2="1550.9917"
     y2="219.89645" />
  <line
     class="arc1"
     id="link48_@1_49"
     x1="1550.9917"
     y1="219.89645"
     x2="1632.3978"
     y2="260.59964" />
  <polygon
     points="1470.2582,316.10413 1685.535,316.10413 1766.9412,275.401 1766.9412,167.76236 1685.535,127.0592 1470.2582,127.0592 1388.8519,167.76236 1388.8519,275.401 "
     id="face_54_55_56_57_53_52_51_50"
     style="fill:#c0c0c0;stroke:none"
     opacity="1"
     transform="translate(-134.54329,-116.5592)" />
  <line
     class="arc1"
     id="link50_@1_51"
     x1="1254.3086"
     y1="51.203156"
     x2="1335.7148"
     y2="10.499992" />
  <line
     class="arc0"
     id="link50_@0_54"
     x1="1254.3086"
     y1="51.203156"
     x2="1254.3086"
     y2="158.8418" />
  <line
     class="arc0"
     id="link51_@0_52"
     x1="1335.7148"
     y1="10.499992"
     x2="1550.9917"
     y2="10.499992" />
  <line
     class="arc1"
     id="link52_@1_53"
     x1="1550.9917"
     y1="10.499992"
     x2="1632.3978"
     y2="51.203156" />
  <line
     class="arc0"
     id="link53_@0_57"
     x1="1632.3978"
     y1="51.203156"
     x2="1632.3978"
     y2="158.8418" />
  <line
     class="arc1"
     id="link54_@1_55"
     x1="1254.3086"
     y1="158.8418"
     x2="1335.7148"
     y2="199.54492" />
  <line
     class="arc0"
     id="link55_@0_56"
     x1="1335.7148"
     y1="199.54492"
     x2="1550.9917"
     y2="199.54492" />
  <line
     class="arc1"
     id="link56_@1_57"
     x1="1550.9917"
     y1="199.54492"
     x2="1632.3978"
     y2="158.8418" />
  <text
     xml:space="preserve"
     style="font-style:normal;font-variant:normal;font-weight:normal;font-stretch:normal;font-size:37.3333px;font-family:'DejaVu Math TeX Gyre';-inkscape-font-specification:'DejaVu Math TeX Gyre';text-align:center;text-anchor:middle;fill:#000000;fill-opacity:1;stroke:none;stroke-width:1.33333;stroke-dasharray:none;stroke-opacity:1"
     x="360.5925"
     y="347.03976"
     id="text1"><tspan
       sodipodi:role="line"
       id="tspan1"
       x="360.5925"
       y="347.03976">5</tspan></text>
  <text
     xml:space="preserve"
     style="font-style:normal;font-variant:normal;font-weight:normal;font-stretch:normal;font-size:37.3333px;font-family:'DejaVu Math TeX Gyre';-inkscape-font-specification:'DejaVu Math TeX Gyre';text-align:center;text-anchor:middle;fill:#000000;fill-opacity:1;stroke:none;stroke-width:1.33333;stroke-dasharray:none;stroke-opacity:1"
     x="529.53552"
     y="48.701302"
     id="text2"><tspan
       sodipodi:role="line"
       id="tspan2"
       x="529.53552"
       y="48.701302">19</tspan></text>
  <text
     xml:space="preserve"
     style="font-style:normal;font-variant:normal;font-weight:normal;font-stretch:normal;font-size:37.3333px;font-family:'DejaVu Math TeX Gyre';-inkscape-font-specification:'DejaVu Math TeX Gyre';text-align:center;text-anchor:middle;fill:#000000;fill-opacity:1;stroke:none;stroke-width:1.33333;stroke-dasharray:none;stroke-opacity:1"
     x="527.81824"
     y="397.91873"
     id="text2-6"><tspan
       sodipodi:role="line"
       id="tspan2-2"
       x="527.81824"
       y="397.91873">11</tspan></text>
  <text
     xml:space="preserve"
     style="font-style:normal;font-variant:normal;font-weight:normal;font-stretch:normal;font-size:37.3333px;font-family:'DejaVu Math TeX Gyre';-inkscape-font-specification:'DejaVu Math TeX Gyre';text-align:center;text-anchor:middle;fill:#000000;fill-opacity:1;stroke:none;stroke-width:1.33333;stroke-dasharray:none;stroke-opacity:1"
     x="763.44318"
     y="357.21552"
     id="text3"><tspan
       sodipodi:role="line"
       id="tspan3"
       x="763.44318"
       y="357.21552">13</tspan></text>
  <text
     xml:space="preserve"
     style="font-style:normal;font-variant:normal;font-weight:normal;font-stretch:normal;font-size:37.3333px;font-family:'DejaVu Math TeX Gyre';-inkscape-font-specification:'DejaVu Math TeX Gyre';text-align:center;text-anchor:middle;fill:#000000;fill-opacity:1;stroke:none;stroke-width:1.33333;stroke-dasharray:none;stroke-opacity:1"
     x="1182.1241"
     y="357.21552"
     id="text4"><tspan
       sodipodi:role="line"
       x="1182.1241"
       y="357.21552"
       id="tspan5">29</tspan></text>
  <text
     xml:space="preserve"
     style="font-style:normal;font-variant:normal;font-weight:normal;font-stretch:normal;font-size:37.3333px;font-family:'DejaVu Math TeX Gyre';-inkscape-font-specification:'DejaVu Math TeX Gyre';text-align:center;text-anchor:middle;fill:#000000;fill-opacity:1;stroke:none;stroke-width:1.33333;stroke-dasharray:none;stroke-opacity:1"
     x="360.5925"
     y="99.094948"
     id="text1-7"><tspan
       sodipodi:role="line"
       id="tspan1-0"
       x="360.5925"
       y="99.094948">6</tspan></text>
  <text
     xml:space="preserve"
     style="font-style:normal;font-variant:normal;font-weight:normal;font-stretch:normal;font-size:37.3333px;font-family:'DejaVu Math TeX Gyre';-inkscape-font-specification:'DejaVu Math TeX Gyre';text-align:center;text-anchor:middle;fill:#000000;fill-opacity:1;stroke:none;stroke-width:1.33333;stroke-dasharray:none;stroke-opacity:1"
     x="763.44318"
     y="89.404465"
     id="text3-9"><tspan
       sodipodi:role="line"
       id="tspan3-3"
       x="763.44318"
       y="89.404465">21</tspan></text>
  <text
     xml:space="preserve"
     style="font-style:normal;font-variant:normal;font-weight:normal;font-stretch:normal;font-size:37.3333px;font-family:'DejaVu Math TeX Gyre';-inkscape-font-specification:'DejaVu Math TeX Gyre';text-align:center;text-anchor:middle;fill:#000000;fill-opacity:1;stroke:none;stroke-width:1.33333;stroke-dasharray:none;stroke-opacity:1"
     x="1182.1241"
     y="89.404465"
     id="text4-6"><tspan
       sodipodi:role="line"
       x="1182.1241"
       y="89.404465"
       id="tspan5-0">37</tspan></text>
</svg>
