<svg height="896" width="1422">
<polygon points="615.653,820.194 810.00244,820.194 853.0412,777.16187 755.8664,680.00195 669.7891,680.00195 572.6144,777.16187 " id="face_2_22_23_21_20_1"  style="fill:rgb(192,192,192);stroke:none" opacity="1.0" />
<line x1="615.653" y1="820.194" x2="572.6144" y2="777.16187" id="link1_a1_20" stroke="red" stroke-width="4px" />
<line x1="615.653" y1="820.194" x2="615.653" y2="820.194" id="link1_a2_1" stroke="blue" stroke-width="4px" />
<line x1="615.653" y1="820.194" x2="615.653" y2="820.194" id="link1_a3_1" stroke="green" stroke-width="4px" />
<line x1="615.653" y1="820.194" x2="810.00244" y2="820.194" id="link1_a0_2" style="stroke:black;stroke-width:4px" />
<line x1="810.00244" y1="820.194" x2="853.0412" y2="777.16187" id="link2_a1_22" stroke="red" stroke-width="4px" />
<line x1="810.00244" y1="820.194" x2="810.00244" y2="820.194" id="link2_a2_2" stroke="blue" stroke-width="4px" />
<line x1="810.00244" y1="820.194" x2="810.00244" y2="820.194" id="link2_a3_2" stroke="green" stroke-width="4px" />
<polygon points="543.92194,748.47375 641.0966,651.31384 641.0966,565.2497 543.92194,468.08975 500.88327,511.1219 500.88327,705.44165 " id="face_19_17_16_7_0_18"  style="fill:rgb(192,192,192);stroke:none" opacity="1.0" />
<line x1="543.92194" y1="748.47375" x2="500.88327" y2="705.44165" id="link18_a1_0" stroke="red" stroke-width="4px" />
<line x1="543.92194" y1="748.47375" x2="572.6144" y2="777.16187" id="link18_a2_20" stroke="blue" stroke-width="4px" />
<line x1="543.92194" y1="748.47375" x2="543.92194" y2="748.47375" id="link18_a3_18" stroke="green" stroke-width="4px" />
<line x1="543.92194" y1="748.47375" x2="641.0966" y2="651.31384" id="link18_a0_19" style="stroke:black;stroke-width:4px" />
<line x1="572.6144" y1="777.16187" x2="572.6144" y2="777.16187" id="link20_a3_20" stroke="green" stroke-width="4px" />
<line x1="572.6144" y1="777.16187" x2="669.7891" y2="680.00195" id="link20_a0_21" style="stroke:black;stroke-width:4px" />
<line x1="853.0412" y1="777.16187" x2="881.7336" y2="748.47375" id="link22_a2_24" stroke="blue" stroke-width="4px" />
<line x1="853.0412" y1="777.16187" x2="853.0412" y2="777.16187" id="link22_a3_22" stroke="green" stroke-width="4px" />
<line x1="853.0412" y1="777.16187" x2="755.8664" y2="680.00195" id="link22_a0_23" style="stroke:black;stroke-width:4px" />
<polygon points="881.7336,748.47375 784.55884,651.31384 784.55884,565.2497 881.7336,468.08975 924.7722,511.1219 924.7722,705.44165 " id="face_25_27_26_4_3_24"  style="fill:rgb(192,192,192);stroke:none" opacity="1.0" />
<line x1="881.7336" y1="748.47375" x2="924.7722" y2="705.44165" id="link24_a1_3" stroke="red" stroke-width="4px" />
<line x1="881.7336" y1="748.47375" x2="881.7336" y2="748.47375" id="link24_a3_24" stroke="green" stroke-width="4px" />
<line x1="881.7336" y1="748.47375" x2="784.55884" y2="651.31384" id="link24_a0_25" style="stroke:black;stroke-width:4px" />
<line x1="500.88327" y1="705.44165" x2="500.88327" y2="705.44165" id="link0_a2_0" stroke="blue" stroke-width="4px" />
<line x1="500.88327" y1="705.44165" x2="500.88327" y2="705.44165" id="link0_a3_0" stroke="green" stroke-width="4px" />
<line x1="500.88327" y1="705.44165" x2="500.88327" y2="511.1219" id="link0_a0_7" style="stroke:black;stroke-width:4px" />
<line x1="924.7722" y1="705.44165" x2="924.7722" y2="705.44165" id="link3_a2_3" stroke="blue" stroke-width="4px" />
<line x1="924.7722" y1="705.44165" x2="924.7722" y2="705.44165" id="link3_a3_3" stroke="green" stroke-width="4px" />
<line x1="924.7722" y1="705.44165" x2="924.7722" y2="511.1219" id="link3_a0_4" style="stroke:black;stroke-width:4px" />
<line x1="641.0966" y1="651.31384" x2="641.0966" y2="565.2497" id="link19_a1_17" stroke="red" stroke-width="4px" />
<line x1="641.0966" y1="651.31384" x2="669.7891" y2="680.00195" id="link19_a2_21" stroke="blue" stroke-width="4px" />
<line x1="641.0966" y1="651.31384" x2="641.0966" y2="651.31384" id="link19_a3_19" stroke="green" stroke-width="4px" />
<line x1="669.7891" y1="680.00195" x2="755.8664" y2="680.00195" id="link21_a1_23" stroke="red" stroke-width="4px" />
<line x1="669.7891" y1="680.00195" x2="669.7891" y2="680.00195" id="link21_a3_21" stroke="green" stroke-width="4px" />
<line x1="755.8664" y1="680.00195" x2="784.55884" y2="651.31384" id="link23_a2_25" stroke="blue" stroke-width="4px" />
<line x1="755.8664" y1="680.00195" x2="755.8664" y2="680.00195" id="link23_a3_23" stroke="green" stroke-width="4px" />
<line x1="784.55884" y1="651.31384" x2="784.55884" y2="565.2497" id="link25_a1_27" stroke="red" stroke-width="4px" />
<line x1="784.55884" y1="651.31384" x2="784.55884" y2="651.31384" id="link25_a3_25" stroke="green" stroke-width="4px" />
<line x1="641.0966" y1="565.2497" x2="669.7891" y2="536.56165" id="link17_a2_11" stroke="blue" stroke-width="4px" />
<line x1="641.0966" y1="565.2497" x2="641.0966" y2="565.2497" id="link17_a3_17" stroke="green" stroke-width="4px" />
<line x1="641.0966" y1="565.2497" x2="543.92194" y2="468.08975" id="link17_a0_16" style="stroke:black;stroke-width:4px" />
<line x1="784.55884" y1="565.2497" x2="755.8664" y2="536.56165" id="link27_a2_29" stroke="blue" stroke-width="4px" />
<line x1="784.55884" y1="565.2497" x2="784.55884" y2="565.2497" id="link27_a3_27" stroke="green" stroke-width="4px" />
<line x1="784.55884" y1="565.2497" x2="881.7336" y2="468.08975" id="link27_a0_26" style="stroke:black;stroke-width:4px" />
<line x1="924.7722" y1="511.1219" x2="881.7336" y2="468.08975" id="link4_a1_26" stroke="red" stroke-width="4px" />
<line x1="924.7722" y1="511.1219" x2="924.7722" y2="511.1219" id="link4_a2_4" stroke="blue" stroke-width="4px" />
<line x1="924.7722" y1="511.1219" x2="924.7722" y2="511.1219" id="link4_a3_4" stroke="green" stroke-width="4px" />
<line x1="500.88327" y1="511.1219" x2="543.92194" y2="468.08975" id="link7_a1_16" stroke="red" stroke-width="4px" />
<line x1="500.88327" y1="511.1219" x2="500.88327" y2="511.1219" id="link7_a2_7" stroke="blue" stroke-width="4px" />
<line x1="500.88327" y1="511.1219" x2="500.88327" y2="511.1219" id="link7_a3_7" stroke="green" stroke-width="4px" />
<polygon points="669.7891,536.56165 558.2681,410.71368 558.2681,281.61737 669.7891,72.95343 755.8664,72.95343 867.3874,281.61737 867.3874,410.71368 755.8664,536.56165 " id="face_15_9_10_14_13_28_29_11"  style="fill:rgb(192,192,192);stroke:none" opacity="1.0" />
<line x1="669.7891" y1="536.56165" x2="755.8664" y2="536.56165" id="link11_a1_29" stroke="red" stroke-width="4px" />
<line x1="669.7891" y1="536.56165" x2="669.7891" y2="536.56165" id="link11_a3_11" stroke="green" stroke-width="4px" />
<line x1="669.7891" y1="536.56165" x2="558.2681" y2="410.71368" id="link11_a0_15" style="stroke:black;stroke-width:4px" />
<line x1="543.92194" y1="468.08975" x2="558.2681" y2="410.71368" id="link16_a2_15" stroke="blue" stroke-width="4px" />
<line x1="543.92194" y1="468.08975" x2="543.92194" y2="468.08975" id="link16_a3_16" stroke="green" stroke-width="4px" />
<line x1="881.7336" y1="468.08975" x2="867.3874" y2="410.71368" id="link26_a2_28" stroke="blue" stroke-width="4px" />
<line x1="881.7336" y1="468.08975" x2="881.7336" y2="468.08975" id="link26_a3_26" stroke="green" stroke-width="4px" />
<line x1="755.8664" y1="536.56165" x2="755.8664" y2="536.56165" id="link29_a3_29" stroke="green" stroke-width="4px" />
<line x1="755.8664" y1="536.56165" x2="867.3874" y2="410.71368" id="link29_a0_28" style="stroke:black;stroke-width:4px" />
<line x1="558.2681" y1="410.71368" x2="558.2681" y2="281.61737" id="link15_a1_9" stroke="red" stroke-width="4px" />
<line x1="558.2681" y1="410.71368" x2="558.2681" y2="410.71368" id="link15_a3_15" stroke="green" stroke-width="4px" />
<line x1="867.3874" y1="410.71368" x2="867.3874" y2="281.61737" id="link28_a1_13" stroke="red" stroke-width="4px" />
<line x1="867.3874" y1="410.71368" x2="867.3874" y2="410.71368" id="link28_a3_28" stroke="green" stroke-width="4px" />
<line x1="558.2681" y1="281.61737" x2="558.2681" y2="281.61737" id="link9_a2_9" stroke="blue" stroke-width="4px" />
<line x1="558.2681" y1="281.61737" x2="558.2681" y2="281.61737" id="link9_a3_9" stroke="green" stroke-width="4px" />
<line x1="558.2681" y1="281.61737" x2="669.7891" y2="72.95343" id="link9_a0_10" style="stroke:black;stroke-width:4px" />
<line x1="867.3874" y1="281.61737" x2="867.3874" y2="281.61737" id="link13_a2_13" stroke="blue" stroke-width="4px" />
<line x1="867.3874" y1="281.61737" x2="867.3874" y2="281.61737" id="link13_a3_13" stroke="green" stroke-width="4px" />
<line x1="867.3874" y1="281.61737" x2="755.8664" y2="72.95343" id="link13_a0_14" style="stroke:black;stroke-width:4px" />
<line x1="669.7891" y1="72.95343" x2="755.8664" y2="72.95343" id="link10_a1_14" stroke="red" stroke-width="4px" />
<line x1="669.7891" y1="72.95343" x2="669.7891" y2="72.95343" id="link10_a2_10" stroke="blue" stroke-width="4px" />
<line x1="669.7891" y1="72.95343" x2="669.7891" y2="72.95343" id="link10_a3_10" stroke="green" stroke-width="4px" />
<line x1="755.8664" y1="72.95343" x2="755.8664" y2="72.95343" id="link14_a2_14" stroke="blue" stroke-width="4px" />
<line x1="755.8664" y1="72.95343" x2="755.8664" y2="72.95343" id="link14_a3_14" stroke="green" stroke-width="4px" />
</svg>
