<svg height="892" width="1317">
<polygon points="435.3376,731.53467 435.3376,504.14807 472.6566,466.82907 586.3499,580.5224 586.3499,655.16034 472.6566,768.8537 " id="face_7_16_17_19_18_0"  style="fill:rgb(192,192,192);stroke:none" opacity="1.0" />
<line x1="435.3376" y1="731.53467" x2="472.6566" y2="768.8537" id="link0_a1_18" stroke="red" stroke-width="4px" />
<line x1="435.3376" y1="731.53467" x2="435.3376" y2="731.53467" id="link0_a2_0" stroke="blue" stroke-width="4px" />
<line x1="435.3376" y1="731.53467" x2="435.3376" y2="731.53467" id="link0_a3_0" stroke="green" stroke-width="4px" />
<line x1="435.3376" y1="731.53467" x2="435.3376" y2="504.14807" id="link0_a0_7" style="stroke:black;stroke-width:4px" />
<polygon points="544.80664,841.0037 772.1933,841.0037 809.51227,803.68475 695.819,689.99146 621.18097,689.99146 507.48764,803.68475 " id="face_2_22_23_21_20_1"  style="fill:rgb(192,192,192);stroke:none" opacity="1.0" />
<line x1="544.80664" y1="841.0037" x2="507.48764" y2="803.68475" id="link1_a1_20" stroke="red" stroke-width="4px" />
<line x1="544.80664" y1="841.0037" x2="544.80664" y2="841.0037" id="link1_a2_1" stroke="blue" stroke-width="4px" />
<line x1="544.80664" y1="841.0037" x2="544.80664" y2="841.0037" id="link1_a3_1" stroke="green" stroke-width="4px" />
<line x1="544.80664" y1="841.0037" x2="772.1933" y2="841.0037" id="link1_a0_2" style="stroke:black;stroke-width:4px" />
<line x1="772.1933" y1="841.0037" x2="809.51227" y2="803.68475" id="link2_a1_22" stroke="red" stroke-width="4px" />
<line x1="772.1933" y1="841.0037" x2="772.1933" y2="841.0037" id="link2_a2_2" stroke="blue" stroke-width="4px" />
<line x1="772.1933" y1="841.0037" x2="772.1933" y2="841.0037" id="link2_a3_2" stroke="green" stroke-width="4px" />
<polygon points="881.66223,731.53467 881.66223,504.14807 844.3434,466.82907 730.65015,580.5224 730.65015,655.16034 844.3434,768.8537 " id="face_4_26_27_25_24_3"  style="fill:rgb(192,192,192);stroke:none" opacity="1.0" />
<line x1="881.66223" y1="731.53467" x2="844.3434" y2="768.8537" id="link3_a1_24" stroke="red" stroke-width="4px" />
<line x1="881.66223" y1="731.53467" x2="881.66223" y2="731.53467" id="link3_a2_3" stroke="blue" stroke-width="4px" />
<line x1="881.66223" y1="731.53467" x2="881.66223" y2="731.53467" id="link3_a3_3" stroke="green" stroke-width="4px" />
<line x1="881.66223" y1="731.53467" x2="881.66223" y2="504.14807" id="link3_a0_4" style="stroke:black;stroke-width:4px" />
<line x1="881.66223" y1="504.14807" x2="844.3434" y2="466.82907" id="link4_a1_26" stroke="red" stroke-width="4px" />
<line x1="881.66223" y1="504.14807" x2="881.66223" y2="504.14807" id="link4_a2_4" stroke="blue" stroke-width="4px" />
<line x1="881.66223" y1="504.14807" x2="881.66223" y2="504.14807" id="link4_a3_4" stroke="green" stroke-width="4px" />
<line x1="435.3376" y1="504.14807" x2="472.6566" y2="466.82907" id="link7_a1_16" stroke="red" stroke-width="4px" />
<line x1="435.3376" y1="504.14807" x2="435.3376" y2="504.14807" id="link7_a2_7" stroke="blue" stroke-width="4px" />
<line x1="435.3376" y1="504.14807" x2="435.3376" y2="504.14807" id="link7_a3_7" stroke="green" stroke-width="4px" />
<polygon points="500.02386,287.69788 621.18097,52.847412 695.819,52.847412 816.9761,287.69788 816.9761,399.65488 695.819,528.27576 621.18097,528.27576 500.02386,399.65488 " id="face_10_14_13_28_29_11_15_9"  style="fill:rgb(192,192,192);stroke:none" opacity="1.0" />
<line x1="500.02386" y1="287.69788" x2="500.02386" y2="399.65488" id="link9_a1_15" stroke="red" stroke-width="4px" />
<line x1="500.02386" y1="287.69788" x2="500.02386" y2="287.69788" id="link9_a2_9" stroke="blue" stroke-width="4px" />
<line x1="500.02386" y1="287.69788" x2="500.02386" y2="287.69788" id="link9_a3_9" stroke="green" stroke-width="4px" />
<line x1="500.02386" y1="287.69788" x2="621.18097" y2="52.847412" id="link9_a0_10" style="stroke:black;stroke-width:4px" />
<circle cx="500.02386" cy="287.69788" r="5" fill="rgb(0,0,0)" stroke="none" id="dart9" />
<line x1="621.18097" y1="52.847412" x2="695.819" y2="52.847412" id="link10_a1_14" stroke="red" stroke-width="4px" />
<line x1="621.18097" y1="52.847412" x2="621.18097" y2="52.847412" id="link10_a2_10" stroke="blue" stroke-width="4px" />
<line x1="621.18097" y1="52.847412" x2="621.18097" y2="52.847412" id="link10_a3_10" stroke="green" stroke-width="4px" />
<circle cx="621.18097" cy="52.847412" r="5" fill="rgb(0,0,0)" stroke="none" id="dart10" />
<line x1="621.18097" y1="528.27576" x2="695.819" y2="528.27576" id="link11_a1_29" stroke="red" stroke-width="4px" />
<line x1="621.18097" y1="528.27576" x2="586.3499" y2="580.5224" id="link11_a2_17" stroke="blue" stroke-width="4px" />
<line x1="621.18097" y1="528.27576" x2="621.18097" y2="528.27576" id="link11_a3_11" stroke="green" stroke-width="4px" />
<line x1="621.18097" y1="528.27576" x2="500.02386" y2="399.65488" id="link11_a0_15" style="stroke:black;stroke-width:4px" />
<circle cx="621.18097" cy="528.27576" r="5" fill="rgb(0,0,0)" stroke="none" id="dart11" />
<line x1="816.9761" y1="287.69788" x2="816.9761" y2="399.65488" id="link13_a1_28" stroke="red" stroke-width="4px" />
<line x1="816.9761" y1="287.69788" x2="816.9761" y2="287.69788" id="link13_a2_13" stroke="blue" stroke-width="4px" />
<line x1="816.9761" y1="287.69788" x2="816.9761" y2="287.69788" id="link13_a3_13" stroke="green" stroke-width="4px" />
<line x1="816.9761" y1="287.69788" x2="695.819" y2="52.847412" id="link13_a0_14" style="stroke:black;stroke-width:4px" />
<circle cx="816.9761" cy="287.69788" r="5" fill="rgb(0,0,0)" stroke="none" id="dart13" />
<line x1="695.819" y1="52.847412" x2="695.819" y2="52.847412" id="link14_a2_14" stroke="blue" stroke-width="4px" />
<line x1="695.819" y1="52.847412" x2="695.819" y2="52.847412" id="link14_a3_14" stroke="green" stroke-width="4px" />
<circle cx="695.819" cy="52.847412" r="5" fill="rgb(0,0,0)" stroke="none" id="dart14" />
<line x1="500.02386" y1="399.65488" x2="472.6566" y2="466.82907" id="link15_a2_16" stroke="blue" stroke-width="4px" />
<line x1="500.02386" y1="399.65488" x2="500.02386" y2="399.65488" id="link15_a3_15" stroke="green" stroke-width="4px" />
<circle cx="500.02386" cy="399.65488" r="5" fill="rgb(0,0,0)" stroke="none" id="dart15" />
<line x1="472.6566" y1="466.82907" x2="472.6566" y2="466.82907" id="link16_a3_16" stroke="green" stroke-width="4px" />
<line x1="472.6566" y1="466.82907" x2="586.3499" y2="580.5224" id="link16_a0_17" style="stroke:black;stroke-width:4px" />
<line x1="586.3499" y1="580.5224" x2="586.3499" y2="655.16034" id="link17_a1_19" stroke="red" stroke-width="4px" />
<line x1="586.3499" y1="580.5224" x2="586.3499" y2="580.5224" id="link17_a3_17" stroke="green" stroke-width="4px" />
<line x1="472.6566" y1="768.8537" x2="507.48764" y2="803.68475" id="link18_a2_20" stroke="blue" stroke-width="4px" />
<line x1="472.6566" y1="768.8537" x2="472.6566" y2="768.8537" id="link18_a3_18" stroke="green" stroke-width="4px" />
<line x1="472.6566" y1="768.8537" x2="586.3499" y2="655.16034" id="link18_a0_19" style="stroke:black;stroke-width:4px" />
<line x1="586.3499" y1="655.16034" x2="621.18097" y2="689.99146" id="link19_a2_21" stroke="blue" stroke-width="4px" />
<line x1="586.3499" y1="655.16034" x2="586.3499" y2="655.16034" id="link19_a3_19" stroke="green" stroke-width="4px" />
<line x1="507.48764" y1="803.68475" x2="507.48764" y2="803.68475" id="link20_a3_20" stroke="green" stroke-width="4px" />
<line x1="507.48764" y1="803.68475" x2="621.18097" y2="689.99146" id="link20_a0_21" style="stroke:black;stroke-width:4px" />
<line x1="621.18097" y1="689.99146" x2="695.819" y2="689.99146" id="link21_a1_23" stroke="red" stroke-width="4px" />
<line x1="621.18097" y1="689.99146" x2="621.18097" y2="689.99146" id="link21_a3_21" stroke="green" stroke-width="4px" />
<line x1="809.51227" y1="803.68475" x2="844.3434" y2="768.8537" id="link22_a2_24" stroke="blue" stroke-width="4px" />
<line x1="809.51227" y1="803.68475" x2="809.51227" y2="803.68475" id="link22_a3_22" stroke="green" stroke-width="4px" />
<line x1="809.51227" y1="803.68475" x2="695.819" y2="689.99146" id="link22_a0_23" style="stroke:black;stroke-width:4px" />
<line x1="695.819" y1="689.99146" x2="730.65015" y2="655.16034" id="link23_a2_25" stroke="blue" stroke-width="4px" />
<line x1="695.819" y1="689.99146" x2="695.819" y2="689.99146" id="link23_a3_23" stroke="green" stroke-width="4px" />
<line x1="844.3434" y1="768.8537" x2="844.3434" y2="768.8537" id="link24_a3_24" stroke="green" stroke-width="4px" />
<line x1="844.3434" y1="768.8537" x2="730.65015" y2="655.16034" id="link24_a0_25" style="stroke:black;stroke-width:4px" />
<line x1="730.65015" y1="655.16034" x2="730.65015" y2="580.5224" id="link25_a1_27" stroke="red" stroke-width="4px" />
<line x1="730.65015" y1="655.16034" x2="730.65015" y2="655.16034" id="link25_a3_25" stroke="green" stroke-width="4px" />
<line x1="844.3434" y1="466.82907" x2="816.9761" y2="399.65488" id="link26_a2_28" stroke="blue" stroke-width="4px" />
<line x1="844.3434" y1="466.82907" x2="844.3434" y2="466.82907" id="link26_a3_26" stroke="green" stroke-width="4px" />
<line x1="844.3434" y1="466.82907" x2="730.65015" y2="580.5224" id="link26_a0_27" style="stroke:black;stroke-width:4px" />
<line x1="730.65015" y1="580.5224" x2="695.819" y2="528.27576" id="link27_a2_29" stroke="blue" stroke-width="4px" />
<line x1="730.65015" y1="580.5224" x2="730.65015" y2="580.5224" id="link27_a3_27" stroke="green" stroke-width="4px" />
<line x1="816.9761" y1="399.65488" x2="816.9761" y2="399.65488" id="link28_a3_28" stroke="green" stroke-width="4px" />
<line x1="816.9761" y1="399.65488" x2="695.819" y2="528.27576" id="link28_a0_29" style="stroke:black;stroke-width:4px" />
<circle cx="816.9761" cy="399.65488" r="5" fill="rgb(0,0,0)" stroke="none" id="dart28" />
<line x1="695.819" y1="528.27576" x2="695.819" y2="528.27576" id="link29_a3_29" stroke="green" stroke-width="4px" />
<circle cx="695.819" cy="528.27576" r="5" fill="rgb(0,0,0)" stroke="none" id="dart29" />
</svg>
