<svg height="892" width="1317">
<polygon points="448.42606,736.4033 448.42606,499.27933 539.938,407.76736 777.062,407.76736 868.5739,499.27933 868.5739,736.4033 777.062,827.9153 539.938,827.9153 " id="face_7_6_5_4_3_2_1_0"  style="fill:rgb(192,192,192);stroke:none" opacity="1.0" />
<line x1="448.42606" y1="736.4033" x2="539.938" y2="827.9153" id="link0_a1_1" stroke="red" stroke-width="4px" />
<line x1="448.42606" y1="736.4033" x2="448.42606" y2="736.4033" id="link0_a2_0" stroke="blue" stroke-width="4px" />
<line x1="448.42606" y1="736.4033" x2="448.42606" y2="736.4033" id="link0_a3_0" stroke="green" stroke-width="4px" />
<line x1="448.42606" y1="736.4033" x2="448.42606" y2="499.27933" id="link0_a0_7" style="stroke:black;stroke-width:4px" />
<circle cx="448.42606" cy="736.4033" r="5" fill="rgb(0,0,0)" stroke="none" id="dart0" />
<line x1="539.938" y1="827.9153" x2="539.938" y2="827.9153" id="link1_a2_1" stroke="blue" stroke-width="4px" />
<line x1="539.938" y1="827.9153" x2="539.938" y2="827.9153" id="link1_a3_1" stroke="green" stroke-width="4px" />
<line x1="539.938" y1="827.9153" x2="777.062" y2="827.9153" id="link1_a0_2" style="stroke:black;stroke-width:4px" />
<circle cx="539.938" cy="827.9153" r="5" fill="rgb(0,0,0)" stroke="none" id="dart1" />
<line x1="777.062" y1="827.9153" x2="868.5739" y2="736.4033" id="link2_a1_3" stroke="red" stroke-width="4px" />
<line x1="777.062" y1="827.9153" x2="777.062" y2="827.9153" id="link2_a2_2" stroke="blue" stroke-width="4px" />
<line x1="777.062" y1="827.9153" x2="777.062" y2="827.9153" id="link2_a3_2" stroke="green" stroke-width="4px" />
<circle cx="777.062" cy="827.9153" r="5" fill="rgb(0,0,0)" stroke="none" id="dart2" />
<line x1="868.5739" y1="736.4033" x2="868.5739" y2="736.4033" id="link3_a2_3" stroke="blue" stroke-width="4px" />
<line x1="868.5739" y1="736.4033" x2="868.5739" y2="736.4033" id="link3_a3_3" stroke="green" stroke-width="4px" />
<line x1="868.5739" y1="736.4033" x2="868.5739" y2="499.27933" id="link3_a0_4" style="stroke:black;stroke-width:4px" />
<circle cx="868.5739" cy="736.4033" r="5" fill="rgb(0,0,0)" stroke="none" id="dart3" />
<line x1="868.5739" y1="499.27933" x2="777.062" y2="407.76736" id="link4_a1_5" stroke="red" stroke-width="4px" />
<line x1="868.5739" y1="499.27933" x2="868.5739" y2="499.27933" id="link4_a2_4" stroke="blue" stroke-width="4px" />
<line x1="868.5739" y1="499.27933" x2="868.5739" y2="499.27933" id="link4_a3_4" stroke="green" stroke-width="4px" />
<circle cx="868.5739" cy="499.27933" r="5" fill="rgb(0,0,0)" stroke="none" id="dart4" />
<line x1="777.062" y1="407.76736" x2="777.062" y2="356.92755" id="link5_a2_12" stroke="blue" stroke-width="4px" />
<line x1="777.062" y1="407.76736" x2="777.062" y2="407.76736" id="link5_a3_5" stroke="green" stroke-width="4px" />
<line x1="777.062" y1="407.76736" x2="539.938" y2="407.76736" id="link5_a0_6" style="stroke:black;stroke-width:4px" />
<circle cx="777.062" cy="407.76736" r="5" fill="rgb(0,0,0)" stroke="none" id="dart5" />
<line x1="539.938" y1="407.76736" x2="448.42606" y2="499.27933" id="link6_a1_7" stroke="red" stroke-width="4px" />
<line x1="539.938" y1="407.76736" x2="539.938" y2="356.92755" id="link6_a2_8" stroke="blue" stroke-width="4px" />
<line x1="539.938" y1="407.76736" x2="539.938" y2="407.76736" id="link6_a3_6" stroke="green" stroke-width="4px" />
<circle cx="539.938" cy="407.76736" r="5" fill="rgb(0,0,0)" stroke="none" id="dart6" />
<line x1="448.42606" y1="499.27933" x2="448.42606" y2="499.27933" id="link7_a2_7" stroke="blue" stroke-width="4px" />
<line x1="448.42606" y1="499.27933" x2="448.42606" y2="499.27933" id="link7_a3_7" stroke="green" stroke-width="4px" />
<circle cx="448.42606" cy="499.27933" r="5" fill="rgb(0,0,0)" stroke="none" id="dart7" />
<polygon points="539.938,356.92755 777.062,356.92755 822.81793,265.41553 704.256,28.291504 612.744,28.291504 494.182,265.41553 " id="face_12_13_14_10_9_8"  style="fill:rgb(192,192,192);stroke:none" opacity="1.0" />
<line x1="539.938" y1="356.92755" x2="494.182" y2="265.41553" id="link8_a1_9" stroke="red" stroke-width="4px" />
<line x1="539.938" y1="356.92755" x2="539.938" y2="356.92755" id="link8_a3_8" stroke="green" stroke-width="4px" />
<line x1="539.938" y1="356.92755" x2="777.062" y2="356.92755" id="link8_a0_12" style="stroke:black;stroke-width:4px" />
<circle cx="539.938" cy="356.92755" r="5" fill="rgb(0,0,0)" stroke="none" id="dart8" />
<line x1="494.182" y1="265.41553" x2="494.182" y2="265.41553" id="link9_a2_9" stroke="blue" stroke-width="4px" />
<line x1="494.182" y1="265.41553" x2="494.182" y2="265.41553" id="link9_a3_9" stroke="green" stroke-width="4px" />
<line x1="494.182" y1="265.41553" x2="612.744" y2="28.291504" id="link9_a0_10" style="stroke:black;stroke-width:4px" />
<circle cx="494.182" cy="265.41553" r="5" fill="rgb(0,0,0)" stroke="none" id="dart9" />
<line x1="612.744" y1="28.291504" x2="704.256" y2="28.291504" id="link10_a1_14" stroke="red" stroke-width="4px" />
<line x1="612.744" y1="28.291504" x2="612.744" y2="28.291504" id="link10_a2_10" stroke="blue" stroke-width="4px" />
<line x1="612.744" y1="28.291504" x2="612.744" y2="28.291504" id="link10_a3_10" stroke="green" stroke-width="4px" />
<circle cx="612.744" cy="28.291504" r="5" fill="rgb(0,0,0)" stroke="none" id="dart10" />
<line x1="777.062" y1="356.92755" x2="822.81793" y2="265.41553" id="link12_a1_13" stroke="red" stroke-width="4px" />
<line x1="777.062" y1="356.92755" x2="777.062" y2="356.92755" id="link12_a3_12" stroke="green" stroke-width="4px" />
<circle cx="777.062" cy="356.92755" r="5" fill="rgb(0,0,0)" stroke="none" id="dart12" />
<line x1="822.81793" y1="265.41553" x2="822.81793" y2="265.41553" id="link13_a2_13" stroke="blue" stroke-width="4px" />
<line x1="822.81793" y1="265.41553" x2="822.81793" y2="265.41553" id="link13_a3_13" stroke="green" stroke-width="4px" />
<line x1="822.81793" y1="265.41553" x2="704.256" y2="28.291504" id="link13_a0_14" style="stroke:black;stroke-width:4px" />
<circle cx="822.81793" cy="265.41553" r="5" fill="rgb(0,0,0)" stroke="none" id="dart13" />
<line x1="704.256" y1="28.291504" x2="704.256" y2="28.291504" id="link14_a2_14" stroke="blue" stroke-width="4px" />
<line x1="704.256" y1="28.291504" x2="704.256" y2="28.291504" id="link14_a3_14" stroke="green" stroke-width="4px" />
<circle cx="704.256" cy="28.291504" r="5" fill="rgb(0,0,0)" stroke="none" id="dart14" />
</svg>
