<?xml version="1.0" standalone="no"?> 
<!DOCTYPE svg PUBLIC "-//W3C//DTD SVG 1.1//EN" 
"http://www.w3.org/Graphics/SVG/1.1/DTD/svg11.dtd"> 
<svg xmlns="http://www.w3.org/2000/svg" version="1.1" font="Noto Sans Regular" font-size="12" width="446" height="89" > 
<g>
<circle id="LGn0_0" cx="35" cy="35" r="33" fill="none" stroke="rgb(0,0,0)" stroke-width="1" stroke-linecap="square"  />
<circle id="LGn0_1" cx="35" cy="35" r="35" fill="none" stroke="rgb(0,0,0)" stroke-width="1" stroke-linecap="square"  />
<text id="LGn0_2" x="11" y="37" fill="rgb(0,0,0)" >&lt;0, 1, 3&gt;</text>
<rect id="LGn0_3" x="28" y="55" width="15" height="17" fill="rgb(255,255,255)" />
<text id="LGn0_4" x="29" y="72" fill="rgb(0,0,0)" >n0</text>
</g>
<g>
<polygon id="0" points="80,29 111,29 111,23 130,35 111,48 111,41 80,41 " stroke="rgb(0,0,0)" stroke-width="1" stroke-linecap="square"  fill="rgb(0,0,0)" />
</g>
<g>
<circle id="RGn1_0" cx="288" cy="35" r="33" fill="none" stroke="rgb(0,0,0)" stroke-width="1" stroke-linecap="square"  />
<text id="RGn1_1" x="265" y="37" fill="rgb(0,0,0)" >&lt;_, 2, 3&gt;</text>
<rect id="RGn1_2" x="281" y="55" width="15" height="17" fill="rgb(255,255,255)" />
<text id="RGn1_3" x="282" y="72" fill="rgb(0,0,0)" >n1</text>
<circle id="RGn2_4" cx="408" cy="35" r="33" fill="none" stroke="rgb(0,0,0)" stroke-width="1" stroke-linecap="square"  />
<text id="RGn2_5" x="384" y="37" fill="rgb(0,0,0)" >&lt;1, 2, 3&gt;</text>
<rect id="RGn2_6" x="401" y="55" width="15" height="17" fill="rgb(255,255,255)" />
<text id="RGn2_7" x="402" y="72" fill="rgb(0,0,0)" >n2</text>
<circle id="RGn0_8" cx="168" cy="35" r="33" fill="none" stroke="rgb(0,0,0)" stroke-width="1" stroke-linecap="square"  />
<text id="RGn0_9" x="145" y="37" fill="rgb(0,0,0)" >&lt;0, _, 3&gt;</text>
<rect id="RGn0_10" x="161" y="55" width="15" height="17" fill="rgb(255,255,255)" />
<text id="RGn0_11" x="162" y="72" fill="rgb(0,0,0)" >n0</text>
<line id="RGn1_0_n2_12" x1="326" y1="35" x2="370" y2="35" stroke="rgb(0,0,0)" stroke-width="2" stroke-linecap="square" />
<text id="RGn1_0_n2_13" x="345" y="55" fill="rgb(0,0,0)" >0</text>
<line id="RGn0_1_n1_14" x1="206" y1="35" x2="250" y2="35" stroke="rgb(200,0,0)" stroke-width="1" stroke-linecap="butt" stroke-dasharray="5" />
<text id="RGn0_1_n1_15" x="225" y="55" fill="rgb(200,0,0)" >1</text>
</g>
</svg>
