<?xml version="1.0" standalone="no"?> 
<!DOCTYPE svg PUBLIC "-//W3C//DTD SVG 1.1//EN" 
"http://www.w3.org/Graphics/SVG/1.1/DTD/svg11.dtd"> 
<svg xmlns="http://www.w3.org/2000/svg" version="1.1" font="Noto Sans Regular" font-size="12" width="566" height="89" > 
<g>
<circle id="LGn0_0" cx="35" cy="35" r="33" fill="none" stroke="rgb(0,0,0)" stroke-width="1" stroke-linecap="square"  />
<circle id="LGn0_1" cx="35" cy="35" r="35" fill="none" stroke="rgb(0,0,0)" stroke-width="1" stroke-linecap="square"  />
<text id="LGn0_2" x="11" y="37" fill="rgb(0,0,0)" >&lt;0, 1, 3&gt;</text>
<rect id="LGn0_3" x="28" y="55" width="15" height="17" fill="rgb(255,255,255)" />
<text id="LGn0_4" x="29" y="72" fill="rgb(0,0,0)" >n0</text>
</g>
<g>
<polygon id="0" points="80,29 111,29 111,23 130,35 111,48 111,41 80,41 " stroke="rgb(0,0,0)" stroke-width="1" stroke-linecap="square"  fill="rgb(0,0,0)" />
</g>
<g>
<circle id="RGn2_0" cx="348" cy="35" r="33" fill="none" stroke="rgb(0,0,0)" stroke-width="1" stroke-linecap="square"  />
<text id="RGn2_1" x="325" y="37" fill="rgb(0,0,0)" >&lt;_, 2, 3&gt;</text>
<rect id="RGn2_2" x="341" y="55" width="15" height="17" fill="rgb(255,255,255)" />
<text id="RGn2_3" x="342" y="72" fill="rgb(0,0,0)" >n2</text>
<circle id="RGn3_4" cx="438" cy="35" r="33" fill="none" stroke="rgb(0,0,0)" stroke-width="1" stroke-linecap="square"  />
<text id="RGn3_5" x="415" y="37" fill="rgb(0,0,0)" >&lt;0, _, 3&gt;</text>
<rect id="RGn3_6" x="431" y="55" width="15" height="17" fill="rgb(255,255,255)" />
<text id="RGn3_7" x="432" y="72" fill="rgb(0,0,0)" >n3</text>
<circle id="RGn1_8" cx="258" cy="35" r="33" fill="none" stroke="rgb(0,0,0)" stroke-width="1" stroke-linecap="square"  />
<text id="RGn1_9" x="235" y="37" fill="rgb(0,0,0)" >&lt;_, 2, 3&gt;</text>
<rect id="RGn1_10" x="251" y="55" width="15" height="17" fill="rgb(255,255,255)" />
<text id="RGn1_11" x="252" y="72" fill="rgb(0,0,0)" >n1</text>
<circle id="RGn0_12" cx="168" cy="35" r="33" fill="none" stroke="rgb(0,0,0)" stroke-width="1" stroke-linecap="square"  />
<text id="RGn0_13" x="145" y="37" fill="rgb(0,0,0)" >&lt;0, _, 3&gt;</text>
<rect id="RGn0_14" x="161" y="55" width="15" height="17" fill="rgb(255,255,255)" />
<text id="RGn0_15" x="162" y="72" fill="rgb(0,0,0)" >n0</text>
<circle id="RGn4_16" cx="528" cy="35" r="33" fill="none" stroke="rgb(0,0,0)" stroke-width="1" stroke-linecap="square"  />
<text id="RGn4_17" x="504" y="37" fill="rgb(0,0,0)" >&lt;0, 1, 3&gt;</text>
<rect id="RGn4_18" x="521" y="55" width="15" height="17" fill="rgb(255,255,255)" />
<text id="RGn4_19" x="522" y="72" fill="rgb(0,0,0)" >n4</text>
<line id="RGn1_0_n2_20" x1="296" y1="35" x2="310" y2="35" stroke="rgb(0,0,0)" stroke-width="2" stroke-linecap="square" />
<text id="RGn1_0_n2_21" x="300" y="55" fill="rgb(0,0,0)" >0</text>
<line id="RGn3_2_n4_22" x1="476" y1="35" x2="490" y2="35" stroke="rgb(0,0,200)" stroke-width="1" stroke-linecap="square" />
<text id="RGn3_2_n4_23" x="480" y="55" fill="rgb(0,0,200)" >2</text>
<line id="RGn2_1_n3_24" x1="386" y1="35" x2="400" y2="35" stroke="rgb(200,0,0)" stroke-width="1" stroke-linecap="butt" stroke-dasharray="5" />
<text id="RGn2_1_n3_25" x="390" y="55" fill="rgb(200,0,0)" >1</text>
<line id="RGn0_1_n1_26" x1="206" y1="35" x2="220" y2="35" stroke="rgb(200,0,0)" stroke-width="1" stroke-linecap="butt" stroke-dasharray="5" />
<text id="RGn0_1_n1_27" x="210" y="55" fill="rgb(200,0,0)" >1</text>
</g>
</svg>
