<?xml version="1.0" encoding="UTF-8" standalone="no"?>
<svg
   version="1.1"
   font="Noto Sans Regular"
   font-size="12px"
   width="680"
   height="407.07617"
   id="svg3"
   sodipodi:docname="rule-cas-particulier-fusion-2-depliee.svg"
   inkscape:version="1.3.2 (091e20ef0f, 2023-11-25, custom)"
   xmlns:inkscape="http://www.inkscape.org/namespaces/inkscape"
   xmlns:sodipodi="http://sodipodi.sourceforge.net/DTD/sodipodi-0.dtd"
   xmlns="http://www.w3.org/2000/svg"
   xmlns:svg="http://www.w3.org/2000/svg">
  <defs
     id="defs3" />
  <sodipodi:namedview
     id="namedview3"
     pagecolor="#ffffff"
     bordercolor="#000000"
     borderopacity="0.25"
     inkscape:showpageshadow="2"
     inkscape:pageopacity="0.0"
     inkscape:pagecheckerboard="0"
     inkscape:deskcolor="#d1d1d1"
     showgrid="false"
     inkscape:zoom="1.2911935"
     inkscape:cx="329.15283"
     inkscape:cy="231.18146"
     inkscape:window-width="1892"
     inkscape:window-height="1035"
     inkscape:window-x="9"
     inkscape:window-y="26"
     inkscape:window-maximized="1"
     inkscape:current-layer="svg3" />
  <g
     id="g3"
     transform="translate(0.5,-15.09375)">
    <circle
       id="LGn1_0"
       cx="275"
       cy="54"
       r="33"
       fill="none"
       stroke="#000000"
       stroke-width="1"
       stroke-linecap="square" />
    <text
       id="LGn1_1"
       x="264.94531"
       y="57.761719"
       fill="#000000"></text>
    <rect
       id="LGn1_2"
       x="268"
       y="74"
       width="15"
       height="17"
       fill="#ffffff" />
    <text
       id="LGn1_3"
       x="269"
       y="91"
       fill="#000000">n1</text>
    <circle
       id="LGn5_4"
       cx="275"
       cy="144"
       r="33"
       fill="none"
       stroke="#000000"
       stroke-width="1"
       stroke-linecap="square" />
    <text
       id="LGn5_5"
       x="264.94531"
       y="147.76172"
       fill="#000000"></text>
    <rect
       id="LGn5_6"
       x="268"
       y="164"
       width="15"
       height="17"
       fill="#ffffff" />
    <text
       id="LGn5_7"
       x="269"
       y="181"
       fill="#000000">n5</text>
    <circle
       id="LGn7_8"
       cx="275"
       cy="294"
       r="33"
       fill="none"
       stroke="#000000"
       stroke-width="1"
       stroke-linecap="square" />
    <text
       id="LGn7_9"
       x="264.94531"
       y="296"
       fill="#000000"></text>
    <rect
       id="LGn7_10"
       x="268"
       y="314"
       width="15"
       height="17"
       fill="#ffffff" />
    <text
       id="LGn7_11"
       x="269"
       y="331"
       fill="#000000">n7</text>
    <circle
       id="LGn0_12"
       cx="35"
       cy="54"
       r="33"
       fill="none"
       stroke="#000000"
       stroke-width="1"
       stroke-linecap="square" />
    <circle
       id="LGn0_13"
       cx="35"
       cy="54"
       r="35"
       fill="none"
       stroke="#000000"
       stroke-width="1"
       stroke-linecap="square" />
    <text
       id="LGn0_14"
       x="24.945312"
       y="57.761719"
       fill="#000000"></text>
    <rect
       id="LGn0_15"
       x="28"
       y="74"
       width="15"
       height="17"
       fill="#ffffff" />
    <text
       id="LGn0_16"
       x="29"
       y="91"
       fill="#000000">n0</text>
    <circle
       id="LGn6_17"
       cx="35"
       cy="294"
       r="33"
       fill="none"
       stroke="#000000"
       stroke-width="1"
       stroke-linecap="square" />
    <circle
       id="LGn6_18"
       cx="35"
       cy="294"
       r="35"
       fill="none"
       stroke="#000000"
       stroke-width="1"
       stroke-linecap="square" />
    <text
       id="LGn6_19"
       x="24.945312"
       y="297.76172"
       fill="#000000"></text>
    <rect
       id="LGn6_20"
       x="28"
       y="314"
       width="15"
       height="17"
       fill="#ffffff" />
    <text
       id="LGn6_21"
       x="29"
       y="331"
       fill="#000000">n6</text>
    <circle
       id="LGn2_22"
       cx="35"
       cy="384"
       r="33"
       fill="none"
       stroke="#000000"
       stroke-width="1"
       stroke-linecap="square" />
    <circle
       id="LGn2_23"
       cx="35"
       cy="384"
       r="35"
       fill="none"
       stroke="#000000"
       stroke-width="1"
       stroke-linecap="square" />
    <text
       id="LGn2_24"
       x="24.945312"
       y="387.76172"
       fill="#000000"></text>
    <rect
       id="LGn2_25"
       x="28"
       y="404"
       width="15"
       height="17"
       fill="#ffffff" />
    <text
       id="LGn2_26"
       x="29"
       y="421"
       fill="#000000">n2</text>
    <circle
       id="LGn3_27"
       cx="275"
       cy="384"
       r="33"
       fill="none"
       stroke="#000000"
       stroke-width="1"
       stroke-linecap="square" />
    <text
       id="LGn3_28"
       x="264.94531"
       y="387.76172"
       fill="#000000"></text>
    <rect
       id="LGn3_29"
       x="268"
       y="404"
       width="15"
       height="17"
       fill="#ffffff" />
    <text
       id="LGn3_30"
       x="269"
       y="421"
       fill="#000000">n3</text>
    <circle
       id="LGn4_31"
       cx="35"
       cy="144"
       r="33"
       fill="none"
       stroke="#000000"
       stroke-width="1"
       stroke-linecap="square" />
    <circle
       id="LGn4_32"
       cx="35"
       cy="144"
       r="35"
       fill="none"
       stroke="#000000"
       stroke-width="1"
       stroke-linecap="square" />
    <text
       id="LGn4_33"
       x="24.945312"
       y="147.76172"
       fill="#000000"></text>
    <rect
       id="LGn4_34"
       x="28"
       y="164"
       width="15"
       height="17"
       fill="#ffffff" />
    <text
       id="LGn4_35"
       x="29"
       y="181"
       fill="#000000">n4</text>
    <path
       id="LGn6_2_n6_37"
       d="m 72,309 6,9 c 22,22 36,-14 5,-12 l -11,1"
       fill="none"
       stroke="#0000c8"
       stroke-width="1"
       stroke-linecap="square" />
    <text
       id="LGn6_2_n6_38"
       x="110"
       y="329"
       fill="#0000c8">2</text>
    <path
       id="LGn0_3_n0_39"
       d="m 72,40 11,1 C 118,39 100,0 76,25 l -6,9"
       fill="none"
       stroke="#00c800"
       stroke-width="2"
       stroke-linecap="butt"
       stroke-dasharray="2"
       style="stroke-width:1;stroke-dasharray:none" />
    <text
       id="LGn0_3_n0_40"
       x="109"
       y="24"
       fill="#00c800">3</text>
    <path
       id="LGn0_2_n0_42"
       d="m 71,71 6,9 c 20,23 36,-13 5,-12 l -11,1"
       fill="none"
       stroke="#0000c8"
       stroke-width="1"
       stroke-linecap="square" />
    <text
       id="LGn0_2_n0_43"
       x="109"
       y="93"
       fill="#0000c8">2</text>
    <path
       id="LGn3_2_n3_45"
       d="m 239,368 -6,-9 c -21,-22 -36,14 -5,12 l 11,-1"
       fill="none"
       stroke="#0000c8"
       stroke-width="1"
       stroke-linecap="square" />
    <text
       id="LGn3_2_n3_46"
       x="195"
       y="358"
       fill="#0000c8">2</text>
    <path
       id="LGn4_2_n4_48"
       d="m 72,130 11,1 c 31,2 17,-34 -5,-12 l -6,9"
       fill="none"
       stroke="#0000c8"
       stroke-width="1"
       stroke-linecap="square" />
    <text
       id="LGn4_2_n4_49"
       x="110"
       y="118"
       fill="#0000c8">2</text>
    <path
       id="LGn7_2_n7_51"
       d="m 240,309 h -12 c -30,1 -13,35 7,11 l 5,-9"
       fill="none"
       stroke="#0000c8"
       stroke-width="1"
       stroke-linecap="square" />
    <text
       id="LGn7_2_n7_52"
       x="197"
       y="335"
       fill="#0000c8">2</text>
    <path
       id="LGn5_3_n5_53"
       d="m 238,155 -11,-1 c -35,0 -18,40 7,16 l 6,-9"
       fill="none"
       stroke="#00c800"
       stroke-width="2"
       stroke-linecap="butt"
       stroke-dasharray="2"
       style="stroke-width:1;stroke-dasharray:none" />
    <text
       id="LGn5_3_n5_54"
       x="195"
       y="179"
       fill="#00c800">3</text>
    <path
       id="LGn1_3_n1_55"
       d="m 241,35 -6,-9 C 211,1 193,40 228,42 l 11,-1"
       fill="none"
       stroke="#00c800"
       stroke-width="2"
       stroke-linecap="butt"
       stroke-dasharray="2"
       style="stroke-width:1;stroke-dasharray:none" />
    <text
       id="LGn1_3_n1_56"
       x="196"
       y="25"
       fill="#00c800">3</text>
    <line
       id="LGn4_0_n5_57"
       x1="75"
       y1="144"
       x2="237"
       y2="144"
       stroke="#000000"
       stroke-width="2"
       stroke-linecap="square" />
    <text
       id="LGn4_0_n5_58"
       x="153"
       y="164"
       fill="#000000">0</text>
    <path
       id="LGn3_3_n3_59"
       d="m 239,396 -11,-1 c -35,1 -17,41 7,16 l 6,-9"
       fill="none"
       stroke="#00c800"
       stroke-width="2"
       stroke-linecap="butt"
       stroke-dasharray="2"
       style="stroke-width:1;stroke-dasharray:none" />
    <text
       id="LGn3_3_n3_60"
       x="196"
       y="422"
       fill="#00c800">3</text>
    <path
       id="LGn6_3_n6_61"
       d="m 72,280 11,1 c 35,-1 17,-41 -7,-16 l -6,9"
       fill="none"
       stroke="#00c800"
       stroke-width="2"
       stroke-linecap="butt"
       stroke-dasharray="2"
       style="stroke-width:1;stroke-dasharray:none" />
    <text
       id="LGn6_3_n6_62"
       x="109"
       y="264"
       fill="#00c800">3</text>
    <path
       id="LGn7_3_n7_63"
       d="m 240,276 -6,-9 c -25,-24 -42,16 -7,16 l 11,-1"
       fill="none"
       stroke="#00c800"
       stroke-width="2"
       stroke-linecap="butt"
       stroke-dasharray="2"
       style="stroke-width:1;stroke-dasharray:none" />
    <text
       id="LGn7_3_n7_64"
       x="195"
       y="267"
       fill="#00c800">3</text>
    <line
       id="LGn2_0_n3_65"
       x1="75"
       y1="384"
       x2="237"
       y2="384"
       stroke="#000000"
       stroke-width="2"
       stroke-linecap="square" />
    <text
       id="LGn2_0_n3_66"
       x="153"
       y="404"
       fill="#000000">0</text>
    <path
       id="LGn2_3_n2_67"
       d="m 70,402 6,9 c 25,24 42,-16 7,-16 l -11,1"
       fill="none"
       stroke="#00c800"
       stroke-width="2"
       stroke-linecap="butt"
       stroke-dasharray="2"
       style="stroke-width:1;stroke-dasharray:none" />
    <text
       id="LGn2_3_n2_68"
       x="109"
       y="421"
       fill="#00c800">3</text>
    <path
       id="LGn5_2_n5_70"
       d="m 240,128 -6,-9 c -20,-23 -36,13 -5,12 l 11,-1"
       fill="none"
       stroke="#0000c8"
       stroke-width="1"
       stroke-linecap="square" />
    <text
       id="LGn5_2_n5_71"
       x="196"
       y="117"
       fill="#0000c8">2</text>
    <path
       id="LGn4_3_n4_72"
       d="m 70,162 6,9 c 24,24 42,-15 7,-16 l -11,1"
       fill="none"
       stroke="#00c800"
       stroke-width="2"
       stroke-linecap="butt"
       stroke-dasharray="2"
       style="stroke-width:1;stroke-dasharray:none" />
    <text
       id="LGn4_3_n4_73"
       x="109"
       y="181"
       fill="#00c800">3</text>
    <path
       id="LGn2_2_n2_75"
       d="m 72,372 11,2 c 31,3 18,-34 -4,-12 l -7,8"
       fill="none"
       stroke="#0000c8"
       stroke-width="1"
       stroke-linecap="square" />
    <text
       id="LGn2_2_n2_76"
       x="111"
       y="362"
       fill="#0000c8">2</text>
    <line
       id="LGn0_0_n1_77"
       x1="75"
       y1="54"
       x2="237"
       y2="54"
       stroke="#000000"
       stroke-width="2"
       stroke-linecap="square" />
    <text
       id="LGn0_0_n1_78"
       x="153"
       y="74"
       fill="#000000">0</text>
    <line
       id="LGn6_0_n7_79"
       x1="75"
       y1="294"
       x2="237"
       y2="294"
       stroke="#000000"
       stroke-width="2"
       stroke-linecap="square" />
    <text
       id="LGn6_0_n7_80"
       x="153"
       y="314"
       fill="#000000">0</text>
    <path
       id="LGn1_2_n1_82"
       d="m 241,70 h -12 c -30,1 -12,36 7,11 l 5,-9"
       fill="none"
       stroke="#0000c8"
       stroke-width="1"
       stroke-linecap="square" />
    <text
       id="LGn1_2_n1_83"
       x="199"
       y="96"
       fill="#0000c8">2</text>
  </g>
  <polygon
     id="0"
     points="318,60 318,48 349,48 349,42 368,54 349,67 349,60 "
     stroke="#000000"
     stroke-width="1"
     stroke-linecap="square"
     fill="#000000"
     transform="translate(-2.2049393,149.0177)" />
  <g
     id="g4"
     transform="translate(0.5,15.90625)">
    <circle
       id="RGn1_0"
       cx="646"
       cy="54"
       r="33"
       fill="none"
       stroke="#000000"
       stroke-width="1"
       stroke-linecap="square" />
    <text
       id="RGn1_1"
       x="635.94531"
       y="57.761719"
       fill="#000000"></text>
    <rect
       id="RGn1_2"
       x="639"
       y="74"
       width="15"
       height="17"
       fill="#ffffff" />
    <text
       id="RGn1_3"
       x="640"
       y="91"
       fill="#000000">n1</text>
    <circle
       id="RGn3_4"
       cx="646"
       cy="354"
       r="33"
       fill="none"
       stroke="#000000"
       stroke-width="1"
       stroke-linecap="square" />
    <text
       id="RGn3_5"
       x="635.94531"
       y="357.76172"
       fill="#000000"></text>
    <rect
       id="RGn3_6"
       x="639"
       y="374"
       width="15"
       height="17"
       fill="#ffffff" />
    <text
       id="RGn3_7"
       x="640"
       y="391"
       fill="#000000">n3</text>
    <circle
       id="RGn4_8"
       cx="406"
       cy="144"
       r="33"
       fill="none"
       stroke="#000000"
       stroke-width="1"
       stroke-linecap="square" />
    <text
       id="RGn4_9"
       x="395.94531"
       y="147.76172"
       fill="#000000"></text>
    <rect
       id="RGn4_10"
       x="399"
       y="164"
       width="15"
       height="17"
       fill="#ffffff" />
    <text
       id="RGn4_11"
       x="400"
       y="181"
       fill="#000000">n4</text>
    <circle
       id="RGn7_12"
       cx="646"
       cy="264"
       r="33"
       fill="none"
       stroke="#000000"
       stroke-width="1"
       stroke-linecap="square" />
    <text
       id="RGn7_13"
       x="635.94531"
       y="267.76172"
       fill="#000000"></text>
    <rect
       id="RGn7_14"
       x="639"
       y="284"
       width="15"
       height="17"
       fill="#ffffff" />
    <text
       id="RGn7_15"
       x="640"
       y="301"
       fill="#000000">n7</text>
    <circle
       id="RGn2_16"
       cx="406"
       cy="354"
       r="33"
       fill="none"
       stroke="#000000"
       stroke-width="1"
       stroke-linecap="square" />
    <text
       id="RGn2_17"
       x="395.94531"
       y="357.76172"
       fill="#000000"></text>
    <rect
       id="RGn2_18"
       x="399"
       y="374"
       width="15"
       height="17"
       fill="#ffffff" />
    <text
       id="RGn2_19"
       x="400"
       y="391"
       fill="#000000">n2</text>
    <circle
       id="RGn0_20"
       cx="406"
       cy="54"
       r="33"
       fill="none"
       stroke="#000000"
       stroke-width="1"
       stroke-linecap="square" />
    <text
       id="RGn0_21"
       x="395.94531"
       y="57.761719"
       fill="#000000"></text>
    <rect
       id="RGn0_22"
       x="399"
       y="74"
       width="15"
       height="17"
       fill="#ffffff" />
    <text
       id="RGn0_23"
       x="400"
       y="91"
       fill="#000000">n0</text>
    <circle
       id="RGn6_24"
       cx="406"
       cy="264"
       r="33"
       fill="none"
       stroke="#000000"
       stroke-width="1"
       stroke-linecap="square" />
    <text
       id="RGn6_25"
       x="395.94531"
       y="267.76172"
       fill="#000000"></text>
    <rect
       id="RGn6_26"
       x="399"
       y="284"
       width="15"
       height="17"
       fill="#ffffff" />
    <text
       id="RGn6_27"
       x="400"
       y="301"
       fill="#000000">n6</text>
    <circle
       id="RGn5_28"
       cx="646"
       cy="144"
       r="33"
       fill="none"
       stroke="#000000"
       stroke-width="1"
       stroke-linecap="square" />
    <text
       id="RGn5_29"
       x="635.94531"
       y="147.76172"
       fill="#000000"></text>
    <rect
       id="RGn5_30"
       x="639"
       y="164"
       width="15"
       height="17"
       fill="#ffffff" />
    <text
       id="RGn5_31"
       x="640"
       y="181"
       fill="#000000">n5</text>
    <line
       id="RGn4_0_n5_32"
       x1="444"
       y1="144"
       x2="608"
       y2="144"
       stroke="#000000"
       stroke-width="2"
       stroke-linecap="square" />
    <text
       id="RGn4_0_n5_33"
       x="523"
       y="164"
       fill="#000000">0</text>
    <path
       id="RGn0_3_n0_34"
       d="m 442,48 11,3 c 34,5 24,-37 -4,-17 l -7,8"
       fill="none"
       stroke="#00c800"
       stroke-width="2"
       stroke-linecap="butt"
       stroke-dasharray="2"
       style="stroke-width:1;stroke-dasharray:none" />
    <text
       id="RGn0_3_n0_35"
       x="482"
       y="40"
       fill="#00c800">3</text>
    <path
       id="RGn7_3_n7_36"
       d="m 608,253 -7,-7 c -29,-20 -38,22 -4,16 l 11,-3"
       fill="none"
       stroke="#00c800"
       stroke-width="2"
       stroke-linecap="butt"
       stroke-dasharray="2"
       style="stroke-width:1;stroke-dasharray:none" />
    <text
       id="RGn7_3_n7_37"
       x="561"
       y="252"
       fill="#00c800">3</text>
    <line
       id="RGn2_0_n3_38"
       x1="444"
       y1="354"
       x2="608"
       y2="354"
       stroke="#000000"
       stroke-width="2"
       stroke-linecap="square" />
    <text
       id="RGn2_0_n3_39"
       x="523"
       y="374"
       fill="#000000">0</text>
    <path
       id="RGn3_3_n3_40"
       d="m 608,362 -11,-2 c -34,-3 -21,38 6,16 l 7,-8"
       fill="none"
       stroke="#00c800"
       stroke-width="2"
       stroke-linecap="butt"
       stroke-dasharray="2"
       style="stroke-width:1;stroke-dasharray:none" />
    <text
       id="RGn3_3_n3_41"
       x="564"
       y="383"
       fill="#00c800">3</text>
    <line
       id="RGn6_2_n2_42"
       x1="406"
       y1="302"
       x2="406"
       y2="316"
       stroke="#0000c8"
       stroke-width="1"
       stroke-linecap="square" />
    <text
       id="RGn6_2_n2_43"
       x="388"
       y="314"
       fill="#0000c8">2</text>
    <path
       id="RGn5_3_n5_44"
       d="m 609,154 -11,-1 c -35,-1 -19,39 6,16 l 7,-9"
       fill="none"
       stroke="#00c800"
       stroke-width="2"
       stroke-linecap="butt"
       stroke-dasharray="2"
       style="stroke-width:1;stroke-dasharray:none" />
    <text
       id="RGn5_3_n5_45"
       x="566"
       y="178"
       fill="#00c800">3</text>
    <path
       id="RGn2_3_n2_46"
       d="m 441,368 7,8 c 26,23 40,-18 6,-16 l -11,2"
       fill="none"
       stroke="#00c800"
       stroke-width="2"
       stroke-linecap="butt"
       stroke-dasharray="2"
       style="stroke-width:1;stroke-dasharray:none" />
    <text
       id="RGn2_3_n2_47"
       x="481"
       y="384"
       fill="#00c800">3</text>
    <line
       id="RGn7_2_n3_48"
       x1="646"
       y1="302"
       x2="646"
       y2="316"
       stroke="#0000c8"
       stroke-width="1"
       stroke-linecap="square" />
    <text
       id="RGn7_2_n3_49"
       x="628"
       y="314"
       fill="#0000c8">2</text>
    <line
       id="RGn0_0_n1_50"
       x1="444"
       y1="54"
       x2="608"
       y2="54"
       stroke="#000000"
       stroke-width="2"
       stroke-linecap="square" />
    <text
       id="RGn0_0_n1_51"
       x="523"
       y="74"
       fill="#000000">0</text>
    <line
       id="RGn6_0_n7_52"
       x1="444"
       y1="264"
       x2="608"
       y2="264"
       stroke="#000000"
       stroke-width="2"
       stroke-linecap="square" />
    <text
       id="RGn6_0_n7_53"
       x="523"
       y="284"
       fill="#000000">0</text>
    <path
       id="RGn4_3_n4_54"
       d="m 441,158 7,8 c 26,23 40,-18 6,-16 l -11,2"
       fill="none"
       stroke="#00c800"
       stroke-width="2"
       stroke-linecap="butt"
       stroke-dasharray="2"
       style="stroke-width:1;stroke-dasharray:none" />
    <text
       id="RGn4_3_n4_55"
       x="481"
       y="174"
       fill="#00c800">3</text>
    <line
       id="RGn1_2_n5_56"
       x1="646"
       y1="92"
       x2="646"
       y2="106"
       stroke="#0000c8"
       stroke-width="1"
       stroke-linecap="square" />
    <text
       id="RGn1_2_n5_57"
       x="628"
       y="104"
       fill="#0000c8">2</text>
    <path
       id="RGn1_3_n1_58"
       d="m 610,41 -8,-8 c -27,-21 -39,21 -4,17 l 10,-3"
       fill="none"
       stroke="#00c800"
       stroke-width="2"
       stroke-linecap="butt"
       stroke-dasharray="2"
       style="stroke-width:1;stroke-dasharray:none" />
    <text
       id="RGn1_3_n1_59"
       x="563"
       y="38"
       fill="#00c800">3</text>
    <line
       id="RGn0_2_n4_60"
       x1="406"
       y1="92"
       x2="406"
       y2="106"
       stroke="#0000c8"
       stroke-width="1"
       stroke-linecap="square" />
    <text
       id="RGn0_2_n4_61"
       x="388"
       y="104"
       fill="#0000c8">2</text>
    <path
       id="RGn6_3_n6_62"
       d="m 443,258 11,3 c 34,6 24,-36 -4,-17 l -7,8"
       fill="none"
       stroke="#00c800"
       stroke-width="2"
       stroke-linecap="butt"
       stroke-dasharray="2"
       style="stroke-width:1;stroke-dasharray:none" />
    <text
       id="RGn6_3_n6_63"
       x="483"
       y="250"
       fill="#00c800">3</text>
  </g>
</svg>
