<?xml version="1.0" standalone="no"?> 
<!DOCTYPE svg PUBLIC "-//W3C//DTD SVG 1.1//EN" 
"http://www.w3.org/Graphics/SVG/1.1/DTD/svg11.dtd"> 
<svg xmlns="http://www.w3.org/2000/svg" version="1.1" font="Noto Sans Regular" font-size="12" width="806" height="357" > 
<g>
<circle id="LGn2_0" cx="35" cy="213" r="33" fill="none" stroke="rgb(0,0,0)" stroke-width="1" stroke-linecap="square"  />
<circle id="LGn2_1" cx="35" cy="213" r="35" fill="none" stroke="rgb(0,0,0)" stroke-width="1" stroke-linecap="square"  />
<text id="LGn2_2" x="28" y="215" fill="rgb(0,0,0)" >&lt;&gt;</text>
<rect id="LGn2_3" x="28" y="233" width="15" height="17" fill="rgb(255,255,255)" />
<text id="LGn2_4" x="29" y="250" fill="rgb(0,0,0)" >n2</text>
<circle id="LGn4_5" cx="305" cy="303" r="33" fill="none" stroke="rgb(0,0,0)" stroke-width="1" stroke-linecap="square"  />
<text id="LGn4_6" x="298" y="305" fill="rgb(0,0,0)" >&lt;&gt;</text>
<rect id="LGn4_7" x="298" y="323" width="15" height="17" fill="rgb(255,255,255)" />
<text id="LGn4_8" x="299" y="340" fill="rgb(0,0,0)" >n4</text>
<circle id="LGn1_9" cx="305" cy="63" r="33" fill="none" stroke="rgb(0,0,0)" stroke-width="1" stroke-linecap="square"  />
<text id="LGn1_10" x="298" y="65" fill="rgb(0,0,0)" >&lt;&gt;</text>
<rect id="LGn1_11" x="298" y="83" width="15" height="17" fill="rgb(255,255,255)" />
<text id="LGn1_12" x="299" y="100" fill="rgb(0,0,0)" >n1</text>
<circle id="LGn0_13" cx="65" cy="63" r="33" fill="none" stroke="rgb(0,0,0)" stroke-width="1" stroke-linecap="square"  />
<circle id="LGn0_14" cx="65" cy="63" r="35" fill="none" stroke="rgb(0,0,0)" stroke-width="1" stroke-linecap="square"  />
<text id="LGn0_15" x="58" y="65" fill="rgb(0,0,0)" >&lt;&gt;</text>
<rect id="LGn0_16" x="58" y="83" width="15" height="17" fill="rgb(255,255,255)" />
<text id="LGn0_17" x="59" y="100" fill="rgb(0,0,0)" >n0</text>
<circle id="LGn5_18" cx="335" cy="213" r="33" fill="none" stroke="rgb(0,0,0)" stroke-width="1" stroke-linecap="square"  />
<circle id="LGn5_19" cx="335" cy="213" r="35" fill="none" stroke="rgb(0,0,0)" stroke-width="1" stroke-linecap="square"  />
<text id="LGn5_20" x="328" y="215" fill="rgb(0,0,0)" >&lt;&gt;</text>
<rect id="LGn5_21" x="328" y="233" width="15" height="17" fill="rgb(255,255,255)" />
<text id="LGn5_22" x="329" y="250" fill="rgb(0,0,0)" >n5</text>
<circle id="LGn3_23" cx="65" cy="303" r="33" fill="none" stroke="rgb(0,0,0)" stroke-width="1" stroke-linecap="square"  />
<circle id="LGn3_24" cx="65" cy="303" r="35" fill="none" stroke="rgb(0,0,0)" stroke-width="1" stroke-linecap="square"  />
<text id="LGn3_25" x="58" y="305" fill="rgb(0,0,0)" >&lt;&gt;</text>
<rect id="LGn3_26" x="58" y="323" width="15" height="17" fill="rgb(255,255,255)" />
<text id="LGn3_27" x="59" y="340" fill="rgb(0,0,0)" >n3</text>
<path id="LGn1_3_n1_28" d="M267 71 L 256 69 C 222 66, 235 107  , 262 85  L 269 77 " fill="none" stroke="rgb(0,200,0)" stroke-width="2" stroke-linecap="butt" stroke-dasharray="2"  />
<text id="LGn1_3_n1_29" x="223" y="92" fill="rgb(0,200,0)" >3</text>
<path id="LGn5_2_n5_30" d="M295 201 L 288 193 C 260 174, 250 215  , 284 210  L 295 207 " fill="none" stroke="rgb(0,0,200)" stroke-width="1" stroke-linecap="square"  />
<path id="LGn5_2_n5_31" d="M295 203 L 287 195 C 263 176, 254 214  , 284 208  L 295 205 " fill="none" stroke="rgb(0,0,200)" stroke-width="1" stroke-linecap="square"  />
<text id="LGn5_2_n5_32" x="249" y="199" fill="rgb(0,0,200)" >2</text>
<line id="LGn3_0_n4_33" x1="105" y1="303" x2="267" y2="303" stroke="rgb(0,0,0)" stroke-width="2" stroke-linecap="square" />
<text id="LGn3_0_n4_34" x="183" y="323" fill="rgb(0,0,0)" >0</text>
<path id="LGn1_2_n1_35" d="M273 83 L 262 86 C 229 94, 256 129  , 273 99  L 277 89 " fill="none" stroke="rgb(0,0,200)" stroke-width="1" stroke-linecap="square"  />
<path id="LGn1_2_n1_36" d="M274 85 L 263 86 C 233 93, 258 125  , 272 97  L 276 87 " fill="none" stroke="rgb(0,0,200)" stroke-width="1" stroke-linecap="square"  />
<text id="LGn1_2_n1_37" x="237" y="118" fill="rgb(0,0,200)" >2</text>
<line id="LGn0_0_n1_38" x1="105" y1="63" x2="267" y2="63" stroke="rgb(0,0,0)" stroke-width="2" stroke-linecap="square" />
<text id="LGn0_0_n1_39" x="183" y="83" fill="rgb(0,0,0)" >0</text>
<path id="LGn2_1_n2_40" d="M75 216 L 84 222 C 116 235, 117 192  , 85 205  L 75 210 " fill="none" stroke="rgb(200,0,0)" stroke-width="1" stroke-linecap="butt" stroke-dasharray="5"  />
<text id="LGn2_1_n2_41" x="116" y="218" fill="rgb(200,0,0)" >1</text>
<path id="LGn5_1_n5_42" d="M295 214 L 284 210 C 251 201, 256 243  , 287 227  L 295 220 " fill="none" stroke="rgb(200,0,0)" stroke-width="1" stroke-linecap="butt" stroke-dasharray="5"  />
<text id="LGn5_1_n5_43" x="248" y="227" fill="rgb(200,0,0)" >1</text>
<path id="LGn2_2_n2_44" d="M74 204 L 85 206 C 119 210, 106 168  , 80 190  L 72 198 " fill="none" stroke="rgb(0,0,200)" stroke-width="1" stroke-linecap="square"  />
<path id="LGn2_2_n2_45" d="M73 202 L 84 204 C 115 209, 103 172  , 80 192  L 73 200 " fill="none" stroke="rgb(0,0,200)" stroke-width="1" stroke-linecap="square"  />
<text id="LGn2_2_n2_46" x="113" y="194" fill="rgb(0,0,200)" >2</text>
<path id="LGn4_1_n4_47" d="M288 268 L 287 257 C 283 223, 245 245  , 273 266  L 282 272 " fill="none" stroke="rgb(200,0,0)" stroke-width="1" stroke-linecap="butt" stroke-dasharray="5"  />
<text id="LGn4_1_n4_48" x="260" y="237" fill="rgb(200,0,0)" >1</text>
<path id="LGn0_2_n0_49" d="M94 90 L 98 100 C 116 129, 142 94  , 109 86  L 98 84 " fill="none" stroke="rgb(0,0,200)" stroke-width="1" stroke-linecap="square"  />
<path id="LGn0_2_n0_50" d="M95 88 L 99 98 C 114 125, 138 94  , 108 87  L 97 86 " fill="none" stroke="rgb(0,0,200)" stroke-width="1" stroke-linecap="square"  />
<text id="LGn0_2_n0_51" x="128" y="119" fill="rgb(0,0,200)" >2</text>
<path id="LGn3_3_n3_52" d="M103 293 L 114 295 C 148 297, 134 256  , 108 279  L 101 287 " fill="none" stroke="rgb(0,200,0)" stroke-width="2" stroke-linecap="butt" stroke-dasharray="2"  />
<text id="LGn3_3_n3_53" x="141" y="281" fill="rgb(0,200,0)" >3</text>
<path id="LGn3_1_n3_54" d="M88 270 L 97 265 C 125 244, 87 221  , 83 255  L 82 266 " fill="none" stroke="rgb(200,0,0)" stroke-width="1" stroke-linecap="butt" stroke-dasharray="5"  />
<text id="LGn3_1_n3_55" x="105" y="235" fill="rgb(200,0,0)" >1</text>
<path id="LGn4_3_n4_56" d="M270 286 L 263 278 C 238 254, 222 295  , 257 294  L 268 292 " fill="none" stroke="rgb(0,200,0)" stroke-width="2" stroke-linecap="butt" stroke-dasharray="2"  />
<text id="LGn4_3_n4_57" x="224" y="279" fill="rgb(0,200,0)" >3</text>
<path id="LGn4_2_n4_58" d="M279 275 L 276 264 C 262 233, 232 265  , 264 277  L 275 279 " fill="none" stroke="rgb(0,0,200)" stroke-width="1" stroke-linecap="square"  />
<path id="LGn4_2_n4_59" d="M278 276 L 275 266 C 263 237, 236 266  , 265 276  L 276 278 " fill="none" stroke="rgb(0,0,200)" stroke-width="1" stroke-linecap="square"  />
<text id="LGn4_2_n4_60" x="241" y="252" fill="rgb(0,0,200)" >2</text>
<path id="LGn5_3_n5_61" d="M304 186 L 300 176 C 282 147, 256 182  , 289 190  L 300 192 " fill="none" stroke="rgb(0,200,0)" stroke-width="2" stroke-linecap="butt" stroke-dasharray="2"  />
<text id="LGn5_3_n5_62" x="263" y="168" fill="rgb(0,200,0)" >3</text>
<path id="LGn3_2_n3_63" d="M97 279 L 108 276 C 141 266, 112 232  , 96 263  L 93 273 " fill="none" stroke="rgb(0,0,200)" stroke-width="1" stroke-linecap="square"  />
<path id="LGn3_2_n3_64" d="M96 277 L 107 275 C 136 267, 110 237  , 98 265  L 94 275 " fill="none" stroke="rgb(0,0,200)" stroke-width="1" stroke-linecap="square"  />
<text id="LGn3_2_n3_65" x="126" y="252" fill="rgb(0,0,200)" >2</text>
<path id="LGn0_3_n0_66" d="M102 77 L 110 85 C 137 107, 149 65  , 115 69  L 104 71 " fill="none" stroke="rgb(0,200,0)" stroke-width="2" stroke-linecap="butt" stroke-dasharray="2"  />
<text id="LGn0_3_n0_67" x="143" y="91" fill="rgb(0,200,0)" >3</text>
<path id="LGn2_3_n2_68" d="M68 191 L 79 188 C 112 180, 85 145  , 68 175  L 64 185 " fill="none" stroke="rgb(0,200,0)" stroke-width="2" stroke-linecap="butt" stroke-dasharray="2"  />
<text id="LGn2_3_n2_69" x="98" y="166" fill="rgb(0,200,0)" >3</text>
</g>
<g>
<polygon id="0" points="380,207 411,207 411,201 430,213 411,226 411,219 380,219 " stroke="rgb(0,0,0)" stroke-width="1" stroke-linecap="square"  fill="rgb(0,0,0)" />
</g>
<g>
<circle id="RGn4_0" cx="738" cy="303" r="33" fill="none" stroke="rgb(0,0,0)" stroke-width="1" stroke-linecap="square"  />
<text id="RGn4_1" x="731" y="305" fill="rgb(0,0,0)" >&lt;&gt;</text>
<rect id="RGn4_2" x="731" y="323" width="15" height="17" fill="rgb(255,255,255)" />
<text id="RGn4_3" x="732" y="340" fill="rgb(0,0,0)" >n4</text>
<circle id="RGn5_4" cx="768" cy="213" r="33" fill="none" stroke="rgb(0,0,0)" stroke-width="1" stroke-linecap="square"  />
<text id="RGn5_5" x="761" y="215" fill="rgb(0,0,0)" >&lt;&gt;</text>
<rect id="RGn5_6" x="761" y="233" width="15" height="17" fill="rgb(255,255,255)" />
<text id="RGn5_7" x="762" y="250" fill="rgb(0,0,0)" >n5</text>
<circle id="RGn3_8" cx="498" cy="303" r="33" fill="none" stroke="rgb(0,0,0)" stroke-width="1" stroke-linecap="square"  />
<text id="RGn3_9" x="491" y="305" fill="rgb(0,0,0)" >&lt;&gt;</text>
<rect id="RGn3_10" x="491" y="323" width="15" height="17" fill="rgb(255,255,255)" />
<text id="RGn3_11" x="492" y="340" fill="rgb(0,0,0)" >n3</text>
<circle id="RGn2_12" cx="468" cy="213" r="33" fill="none" stroke="rgb(0,0,0)" stroke-width="1" stroke-linecap="square"  />
<text id="RGn2_13" x="461" y="215" fill="rgb(0,0,0)" >&lt;&gt;</text>
<rect id="RGn2_14" x="461" y="233" width="15" height="17" fill="rgb(255,255,255)" />
<text id="RGn2_15" x="462" y="250" fill="rgb(0,0,0)" >n2</text>
<circle id="RGn1_16" cx="738" cy="33" r="33" fill="none" stroke="rgb(0,0,0)" stroke-width="1" stroke-linecap="square"  />
<text id="RGn1_17" x="731" y="35" fill="rgb(0,0,0)" >&lt;&gt;</text>
<rect id="RGn1_18" x="731" y="53" width="15" height="17" fill="rgb(255,255,255)" />
<text id="RGn1_19" x="732" y="70" fill="rgb(0,0,0)" >n1</text>
<circle id="RGn0_20" cx="498" cy="33" r="33" fill="none" stroke="rgb(0,0,0)" stroke-width="1" stroke-linecap="square"  />
<text id="RGn0_21" x="491" y="35" fill="rgb(0,0,0)" >&lt;&gt;</text>
<rect id="RGn0_22" x="491" y="53" width="15" height="17" fill="rgb(255,255,255)" />
<text id="RGn0_23" x="492" y="70" fill="rgb(0,0,0)" >n0</text>
<path id="RGn2_3_n2_24" d="M500 193 L 511 191 C 544 183, 518 148  , 500 177  L 496 187 " fill="none" stroke="rgb(0,200,0)" stroke-width="2" stroke-linecap="butt" stroke-dasharray="2"  />
<text id="RGn2_3_n2_25" x="530" y="168" fill="rgb(0,200,0)" >3</text>
<path id="RGn3_3_n3_26" d="M535 296 L 546 299 C 580 303, 568 261  , 541 282  L 533 290 " fill="none" stroke="rgb(0,200,0)" stroke-width="2" stroke-linecap="butt" stroke-dasharray="2"  />
<text id="RGn3_3_n3_27" x="574" y="287" fill="rgb(0,200,0)" >3</text>
<path id="RGn4_2_n4_28" d="M709 277 L 705 267 C 687 238, 661 273  , 694 281  L 705 283 " fill="none" stroke="rgb(0,0,200)" stroke-width="1" stroke-linecap="square"  />
<path id="RGn4_2_n4_29" d="M708 279 L 704 269 C 689 242, 665 274  , 695 280  L 706 281 " fill="none" stroke="rgb(0,0,200)" stroke-width="1" stroke-linecap="square"  />
<text id="RGn4_2_n4_30" x="669" y="258" fill="rgb(0,0,200)" >2</text>
<path id="RGn0_3_n0_31" d="M533 47 L 540 55 C 567 77, 580 36  , 546 39  L 535 41 " fill="none" stroke="rgb(0,200,0)" stroke-width="2" stroke-linecap="butt" stroke-dasharray="2"  />
<text id="RGn0_3_n0_32" x="574" y="62" fill="rgb(0,200,0)" >3</text>
<line id="RGn3_0_n4_33" x1="536" y1="303" x2="700" y2="303" stroke="rgb(0,0,0)" stroke-width="2" stroke-linecap="square" />
<text id="RGn3_0_n4_34" x="615" y="323" fill="rgb(0,0,0)" >0</text>
<line id="RGn0_0_n1_35" x1="536" y1="33" x2="700" y2="33" stroke="rgb(0,0,0)" stroke-width="2" stroke-linecap="square" />
<text id="RGn0_0_n1_36" x="615" y="53" fill="rgb(0,0,0)" >0</text>
<path id="RGn4_3_n4_37" d="M702 289 L 694 281 C 667 260, 655 301  , 689 297  L 700 295 " fill="none" stroke="rgb(0,200,0)" stroke-width="2" stroke-linecap="butt" stroke-dasharray="2"  />
<text id="RGn4_3_n4_38" x="655" y="285" fill="rgb(0,200,0)" >3</text>
<path id="RGn5_2_n5_39" d="M733 195 L 727 186 C 702 162, 685 201  , 720 202  L 731 201 " fill="none" stroke="rgb(0,0,200)" stroke-width="1" stroke-linecap="square"  />
<path id="RGn5_2_n5_40" d="M732 197 L 726 188 C 705 165, 690 201  , 721 200  L 732 199 " fill="none" stroke="rgb(0,0,200)" stroke-width="1" stroke-linecap="square"  />
<text id="RGn5_2_n5_41" x="688" y="186" fill="rgb(0,0,200)" >2</text>
<line id="RGn2_1_n3_42" x1="480" y1="249" x2="485" y2="266" stroke="rgb(200,0,0)" stroke-width="1" stroke-linecap="butt" stroke-dasharray="5" />
<text id="RGn2_1_n3_43" x="464" y="262" fill="rgb(200,0,0)" >1</text>
<path id="RGn1_3_n1_44" d="M701 43 L 690 42 C 655 41, 671 81  , 696 57  L 703 49 " fill="none" stroke="rgb(0,200,0)" stroke-width="2" stroke-linecap="butt" stroke-dasharray="2"  />
<text id="RGn1_3_n1_45" x="657" y="66" fill="rgb(0,200,0)" >3</text>
<path id="RGn5_3_n5_46" d="M741 185 L 738 174 C 723 143, 693 176  , 726 187  L 737 189 " fill="none" stroke="rgb(0,200,0)" stroke-width="2" stroke-linecap="butt" stroke-dasharray="2"  />
<text id="RGn5_3_n5_47" x="703" y="163" fill="rgb(0,200,0)" >3</text>
<path id="RGn1_2_n1_48" d="M707 56 L 696 58 C 664 69, 693 102  , 708 71  L 711 60 " fill="none" stroke="rgb(0,0,200)" stroke-width="1" stroke-linecap="square"  />
<path id="RGn1_2_n1_49" d="M708 57 L 697 59 C 668 68, 695 98  , 707 69  L 710 59 " fill="none" stroke="rgb(0,0,200)" stroke-width="1" stroke-linecap="square"  />
<text id="RGn1_2_n1_50" x="673" y="93" fill="rgb(0,0,200)" >2</text>
<line id="RGn5_1_n4_51" x1="755" y1="249" x2="750" y2="266" stroke="rgb(200,0,0)" stroke-width="1" stroke-linecap="butt" stroke-dasharray="5" />
<text id="RGn5_1_n4_52" x="734" y="262" fill="rgb(200,0,0)" >1</text>
<path id="RGn0_2_n0_53" d="M522 61 L 524 72 C 538 104, 569 72  , 537 59  L 526 57 " fill="none" stroke="rgb(0,0,200)" stroke-width="1" stroke-linecap="square"  />
<path id="RGn0_2_n0_54" d="M523 60 L 526 71 C 536 99, 565 71  , 536 61  L 525 58 " fill="none" stroke="rgb(0,0,200)" stroke-width="1" stroke-linecap="square"  />
<text id="RGn0_2_n0_55" x="552" y="95" fill="rgb(0,0,200)" >2</text>
<path id="RGn2_2_n2_56" d="M505 204 L 516 206 C 550 208, 536 167  , 510 190  L 503 198 " fill="none" stroke="rgb(0,0,200)" stroke-width="1" stroke-linecap="square"  />
<path id="RGn2_2_n2_57" d="M504 202 L 515 204 C 546 207, 533 171  , 511 192  L 504 200 " fill="none" stroke="rgb(0,0,200)" stroke-width="1" stroke-linecap="square"  />
<text id="RGn2_2_n2_58" x="543" y="192" fill="rgb(0,0,200)" >2</text>
<path id="RGn3_2_n3_59" d="M529 281 L 540 278 C 573 268, 544 235  , 528 265  L 525 275 " fill="none" stroke="rgb(0,0,200)" stroke-width="1" stroke-linecap="square"  />
<path id="RGn3_2_n3_60" d="M528 279 L 539 277 C 568 269, 543 239  , 530 267  L 526 277 " fill="none" stroke="rgb(0,0,200)" stroke-width="1" stroke-linecap="square"  />
<text id="RGn3_2_n3_61" x="558" y="255" fill="rgb(0,0,200)" >2</text>
</g>
</svg>
