<?xml version="1.0" encoding="UTF-8" standalone="no"?>
<svg
   version="1.1"
   font="Noto Sans Regular"
   font-size="12px"
   width="552.33362"
   height="370.62"
   id="svg11702"
   sodipodi:docname="rule-create-square-face.svg"
   inkscape:version="1.2.2 (b0a8486541, 2022-12-01)"
   xmlns:inkscape="http://www.inkscape.org/namespaces/inkscape"
   xmlns:sodipodi="http://sodipodi.sourceforge.net/DTD/sodipodi-0.dtd"
   xmlns="http://www.w3.org/2000/svg"
   xmlns:svg="http://www.w3.org/2000/svg">
  <defs
     id="defs11706" />
  <sodipodi:namedview
     id="namedview11704"
     pagecolor="#ffffff"
     bordercolor="#000000"
     borderopacity="0.25"
     inkscape:showpageshadow="2"
     inkscape:pageopacity="0.0"
     inkscape:pagecheckerboard="0"
     inkscape:deskcolor="#d1d1d1"
     showgrid="false"
     inkscape:zoom="2.2971576"
     inkscape:cx="397.01237"
     inkscape:cy="173.91057"
     inkscape:window-width="1906"
     inkscape:window-height="1046"
     inkscape:window-x="1086"
     inkscape:window-y="26"
     inkscape:window-maximized="1"
     inkscape:current-layer="g11700" />
  <g
     id="g11607"
     transform="translate(120.83363,0.5)" />
  <g
     id="g11610"
     transform="translate(78.133752,56.279612)">
    <polygon
       id="0"
       points="10,129 10,117 41,117 41,111 60,123 41,136 41,129 "
       stroke="#000000"
       stroke-width="1"
       stroke-linecap="square"
       fill="#000000" />
  </g>
  <g
     id="g11814"
     transform="translate(120.83363,0.5)">
    <g
       id="g11700">
      <circle
         id="RGn4_0"
         cx="398"
         cy="243"
         r="33"
         fill="none"
         stroke="#000000"
         stroke-width="1"
         stroke-linecap="square" />
      <text
         id="RGn4_1"
         x="391"
         y="245"
         fill="#000000">&lt;&gt;</text>
      <rect
         id="RGn4_2"
         x="391"
         y="263"
         width="15"
         height="17"
         fill="#ffffff" />
      <text
         id="RGn4_3"
         x="392"
         y="280"
         fill="#000000">n4</text>
      <circle
         id="RGn1_4"
         cx="188"
         cy="33"
         r="33"
         fill="none"
         stroke="#000000"
         stroke-width="1"
         stroke-linecap="square" />
      <text
         id="RGn1_5"
         x="181"
         y="35"
         fill="#000000">&lt;&gt;</text>
      <rect
         id="RGn1_6"
         x="181"
         y="53"
         width="15"
         height="17"
         fill="#ffffff" />
      <text
         id="RGn1_7"
         x="182"
         y="70"
         fill="#000000">n1</text>
      <circle
         id="RGn3_8"
         cx="398"
         cy="123"
         r="33"
         fill="none"
         stroke="#000000"
         stroke-width="1"
         stroke-linecap="square" />
      <text
         id="RGn3_9"
         x="391"
         y="125"
         fill="#000000">&lt;&gt;</text>
      <rect
         id="RGn3_10"
         x="391"
         y="143"
         width="15"
         height="17"
         fill="#ffffff" />
      <text
         id="RGn3_11"
         x="392"
         y="160"
         fill="#000000">n3</text>
      <circle
         id="RGn7_12"
         cx="98"
         cy="243"
         r="33"
         fill="none"
         stroke="#000000"
         stroke-width="1"
         stroke-linecap="square" />
      <text
         id="RGn7_13"
         x="91"
         y="245"
         fill="#000000">&lt;&gt;</text>
      <rect
         id="RGn7_14"
         x="91"
         y="263"
         width="15"
         height="17"
         fill="#ffffff" />
      <text
         id="RGn7_15"
         x="92"
         y="280"
         fill="#000000">n7</text>
      <circle
         id="RGn6_16"
         cx="188"
         cy="333"
         r="33"
         fill="none"
         stroke="#000000"
         stroke-width="1"
         stroke-linecap="square" />
      <text
         id="RGn6_17"
         x="181"
         y="335"
         fill="#000000">&lt;&gt;</text>
      <rect
         id="RGn6_18"
         x="181"
         y="353"
         width="15"
         height="17"
         fill="#ffffff" />
      <text
         id="RGn6_19"
         x="182"
         y="370"
         fill="#000000">n6</text>
      <circle
         id="RGn2_20"
         cx="308"
         cy="33"
         r="33"
         fill="none"
         stroke="#000000"
         stroke-width="1"
         stroke-linecap="square" />
      <text
         id="RGn2_21"
         x="301"
         y="35"
         fill="#000000">&lt;&gt;</text>
      <rect
         id="RGn2_22"
         x="301"
         y="53"
         width="15"
         height="17"
         fill="#ffffff" />
      <text
         id="RGn2_23"
         x="302"
         y="70"
         fill="#000000">n2</text>
      <circle
         id="RGn0_24"
         cx="98"
         cy="123"
         r="33"
         fill="none"
         stroke="#000000"
         stroke-width="1"
         stroke-linecap="square" />
      <text
         id="RGn0_25"
         x="91"
         y="125"
         fill="#000000">&lt;&gt;</text>
      <rect
         id="RGn0_26"
         x="91"
         y="143"
         width="15"
         height="17"
         fill="#ffffff" />
      <text
         id="RGn0_27"
         x="92"
         y="160"
         fill="#000000">n0</text>
      <circle
         id="RGn5_28"
         cx="308"
         cy="333"
         r="33"
         fill="none"
         stroke="#000000"
         stroke-width="1"
         stroke-linecap="square" />
      <text
         id="RGn5_29"
         x="301"
         y="335"
         fill="#000000">&lt;&gt;</text>
      <rect
         id="RGn5_30"
         x="301"
         y="353"
         width="15"
         height="17"
         fill="#ffffff" />
      <text
         id="RGn5_31"
         x="302"
         y="370"
         fill="#000000">n5</text>
      <line
         id="RGn6_1_n7_32"
         x1="161"
         y1="306"
         x2="124"
         y2="269"
         stroke="#c80000"
         stroke-width="1"
         stroke-linecap="butt"
         stroke-dasharray="5" />
      <text
         id="RGn6_1_n7_33"
         x="131"
         y="300"
         fill="#c80000">1</text>
      <path
         id="RGn3_2_n3_34"
         d="m 364,141 -11,2 c -33,7 -8,43 11,14 l 4,-10"
         fill="none"
         stroke="#0000c8"
         stroke-width="1"
         stroke-linecap="square" />
      <path
         id="RGn3_2_n3_35"
         d="m 365,143 -11,1 c -30,5 -7,38 8,11 l 5,-10"
         fill="none"
         stroke="#0000c8"
         stroke-width="1"
         stroke-linecap="square" />
      <text
         id="RGn3_2_n3_36"
         x="327"
         y="175"
         fill="#0000c8">2</text>
      <path
         id="RGn2_2_n2_37"
         d="m 298,70 -7,8 c -18,29 24,37 17,3 l -4,-11"
         fill="none"
         stroke="#0000c8"
         stroke-width="1"
         stroke-linecap="square" />
      <path
         id="RGn2_2_n2_38"
         d="m 300,70 -7,8 c -17,26 21,32 13,3 l -4,-11"
         fill="none"
         stroke="#0000c8"
         stroke-width="1"
         stroke-linecap="square" />
      <text
         id="RGn2_2_n2_39"
         x="291"
         y="119"
         fill="#0000c8">2</text>
      <path
         id="RGn1_3_n1_40"
         d="m 190,70 -4,11 c -8,33 34,27 17,-3 l -7,-8"
         fill="none"
         stroke="#00c800"
         stroke-width="2"
         stroke-linecap="butt"
         stroke-dasharray="2" />
      <text
         id="RGn1_3_n1_41"
         x="196"
         y="119"
         fill="#00c800">3</text>
      <line
         id="RGn5_0_n6_42"
         x1="270"
         y1="333"
         x2="226"
         y2="333"
         stroke="#000000"
         stroke-width="2"
         stroke-linecap="square" />
      <text
         id="RGn5_0_n6_43"
         x="245"
         y="323"
         fill="#000000">0</text>
      <path
         id="RGn7_2_n7_44"
         d="m 130,222 11,-3 c 33,-8 6,-43 -11,-13 l -4,10"
         fill="none"
         stroke="#0000c8"
         stroke-width="1"
         stroke-linecap="square" />
      <path
         id="RGn7_2_n7_45"
         d="m 129,220 11,-1 c 30,-7 5,-39 -9,-11 l -4,10"
         fill="none"
         stroke="#0000c8"
         stroke-width="1"
         stroke-linecap="square" />
      <text
         id="RGn7_2_n7_46"
         x="160"
         y="197"
         fill="#0000c8">2</text>
      <path
         id="RGn0_2_n0_47"
         d="m 135,129 9,6 c 30,17 35,-26 1,-16 l -10,4"
         fill="none"
         stroke="#0000c8"
         stroke-width="1"
         stroke-linecap="square" />
      <path
         id="RGn0_2_n0_48"
         d="m 135,127 9,7 c 26,15 30,-23 1,-13 l -10,4"
         fill="none"
         stroke="#0000c8"
         stroke-width="1"
         stroke-linecap="square" />
      <text
         id="RGn0_2_n0_49"
         x="176"
         y="135"
         fill="#0000c8">2</text>
      <path
         id="RGn1_2_n1_50"
         d="m 205,67 1,11 c 5,34 43,10 14,-10 l -9,-5"
         fill="none"
         stroke="#0000c8"
         stroke-width="1"
         stroke-linecap="square" />
      <path
         id="RGn1_2_n1_51"
         d="m 207,66 1,11 c 3,30 37,9 11,-8 l -10,-5"
         fill="none"
         stroke="#0000c8"
         stroke-width="1"
         stroke-linecap="square" />
      <text
         id="RGn1_2_n1_52"
         x="229"
         y="107"
         fill="#0000c8">2</text>
      <path
         id="RGn4_3_n4_53"
         d="m 369,217 -4,-10 c -18,-29 -44,6 -11,14 l 11,2"
         fill="none"
         stroke="#00c800"
         stroke-width="2"
         stroke-linecap="butt"
         stroke-dasharray="2" />
      <text
         id="RGn4_3_n4_54"
         x="328"
         y="199"
         fill="#00c800">3</text>
      <line
         id="RGn2_1_n3_55"
         x1="334"
         y1="59"
         x2="371"
         y2="96"
         stroke="#c80000"
         stroke-width="1"
         stroke-linecap="butt"
         stroke-dasharray="5" />
      <text
         id="RGn2_1_n3_56"
         x="357"
         y="72"
         fill="#c80000">1</text>
      <line
         id="RGn0_1_n1_57"
         x1="124"
         y1="96"
         x2="161"
         y2="59"
         stroke="#c80000"
         stroke-width="1"
         stroke-linecap="butt"
         stroke-dasharray="5" />
      <text
         id="RGn0_1_n1_58"
         x="131"
         y="72"
         fill="#c80000">1</text>
      <path
         id="RGn4_2_n4_59"
         d="m 360,233 -8,-7 c -29,-18 -37,24 -3,17 l 11,-4"
         fill="none"
         stroke="#0000c8"
         stroke-width="1"
         stroke-linecap="square" />
      <path
         id="RGn4_2_n4_60"
         d="m 360,235 -8,-7 c -25,-18 -32,21 -3,13 l 11,-4"
         fill="none"
         stroke="#0000c8"
         stroke-width="1"
         stroke-linecap="square" />
      <text
         id="RGn4_2_n4_61"
         x="313"
         y="234"
         fill="#0000c8">2</text>
      <line
         id="RGn1_0_n2_62"
         x1="226"
         y1="33"
         x2="270"
         y2="33"
         stroke="#000000"
         stroke-width="2"
         stroke-linecap="square" />
      <text
         id="RGn1_0_n2_63"
         x="245"
         y="53"
         fill="#000000">0</text>
      <path
         id="RGn6_3_n6_64"
         d="m 212,303 10,-5 c 29,-18 -7,-44 -14,-10 l -2,11"
         fill="none"
         stroke="#00c800"
         stroke-width="2"
         stroke-linecap="butt"
         stroke-dasharray="2" />
      <text
         id="RGn6_3_n6_65"
         x="231"
         y="270"
         fill="#00c800">3</text>
      <line
         id="RGn4_1_n5_66"
         x1="371"
         y1="269"
         x2="334"
         y2="306"
         stroke="#c80000"
         stroke-width="1"
         stroke-linecap="butt"
         stroke-dasharray="5" />
      <text
         id="RGn4_1_n5_67"
         x="357"
         y="300"
         fill="#c80000">1</text>
      <path
         id="RGn5_2_n5_68"
         d="m 288,300 -2,-11 c -7,-33 -43,-8 -14,11 l 10,4"
         fill="none"
         stroke="#0000c8"
         stroke-width="1"
         stroke-linecap="square" />
      <path
         id="RGn5_2_n5_69"
         d="m 286,301 -1,-11 c -5,-30 -38,-7 -11,8 l 10,5"
         fill="none"
         stroke="#0000c8"
         stroke-width="1"
         stroke-linecap="square" />
      <text
         id="RGn5_2_n5_70"
         x="256"
         y="271"
         fill="#0000c8">2</text>
      <path
         id="RGn5_3_n5_71"
         d="m 307,295 5,-10 c 10,-33 -33,-29 -17,1 l 6,9"
         fill="none"
         stroke="#00c800"
         stroke-width="2"
         stroke-linecap="butt"
         stroke-dasharray="2" />
      <text
         id="RGn5_3_n5_72"
         x="298"
         y="256"
         fill="#00c800">3</text>
      <path
         id="RGn6_2_n6_73"
         d="m 194,295 6,-9 c 17,-30 -26,-34 -16,-1 l 4,10"
         fill="none"
         stroke="#0000c8"
         stroke-width="1"
         stroke-linecap="square" />
      <path
         id="RGn6_2_n6_74"
         d="m 192,295 6,-9 c 16,-26 -23,-30 -12,-1 l 4,10"
         fill="none"
         stroke="#0000c8"
         stroke-width="1"
         stroke-linecap="square" />
      <text
         id="RGn6_2_n6_75"
         x="192"
         y="256"
         fill="#0000c8">2</text>
      <path
         id="RGn2_3_n2_76"
         d="m 283,62 -10,5 c -28,19 8,44 14,10 l 2,-11"
         fill="none"
         stroke="#00c800"
         stroke-width="2"
         stroke-linecap="butt"
         stroke-dasharray="2" />
      <text
         id="RGn2_3_n2_77"
         x="258"
         y="106"
         fill="#00c800">3</text>
      <path
         id="RGn0_3_n0_78"
         d="m 128,145 5,9 c 21,28 44,-9 10,-14 l -11,-1"
         fill="none"
         stroke="#00c800"
         stroke-width="2"
         stroke-linecap="butt"
         stroke-dasharray="2" />
      <text
         id="RGn0_3_n0_79"
         x="165"
         y="170"
         fill="#00c800">3</text>
      <line
         id="RGn7_0_n0_80"
         x1="98"
         y1="205"
         x2="98"
         y2="161"
         stroke="#000000"
         stroke-width="2"
         stroke-linecap="square" />
      <text
         id="RGn7_0_n0_81"
         x="110"
         y="188"
         fill="#000000">0</text>
      <path
         id="RGn7_3_n7_82"
         d="m 135,240 11,4 c 33,8 27,-34 -3,-17 l -8,7"
         fill="none"
         stroke="#00c800"
         stroke-width="2"
         stroke-linecap="butt"
         stroke-dasharray="2" />
      <text
         id="RGn7_3_n7_83"
         x="176"
         y="236"
         fill="#00c800">3</text>
      <line
         id="RGn3_0_n4_84"
         x1="398"
         y1="161"
         x2="398"
         y2="205"
         stroke="#000000"
         stroke-width="2"
         stroke-linecap="square" />
      <text
         id="RGn3_0_n4_85"
         x="380"
         y="188"
         fill="#000000">0</text>
      <path
         id="RGn3_3_n3_86"
         d="m 360,124 -11,-4 c -33,-9 -28,33 3,17 l 8,-7"
         fill="none"
         stroke="#00c800"
         stroke-width="2"
         stroke-linecap="butt"
         stroke-dasharray="2" />
      <text
         id="RGn3_3_n3_87"
         x="313"
         y="137"
         fill="#00c800">3</text>
    </g>
  </g>
  <text
     xml:space="preserve"
     style="font-style:normal;font-variant:normal;font-weight:normal;font-stretch:normal;font-size:96px;font-family:'Liberation Serif';-inkscape-font-specification:'Liberation Serif, Normal';font-variant-ligatures:normal;font-variant-caps:normal;font-variant-numeric:normal;font-variant-east-asian:normal;fill:#000000;fill-opacity:0.997918;stroke:none;stroke-width:3.78;stroke-linecap:round;stroke-linejoin:round;stroke-opacity:0.754646;stop-color:#000000"
     x="-3.28125"
     y="201.78438"
     id="text585"><tspan
       sodipodi:role="line"
       id="tspan691"
       x="-3.28125"
       y="201.78438">ø</tspan></text>
</svg>
