<?xml version="1.0" standalone="no"?> 
<!DOCTYPE svg PUBLIC "-//W3C//DTD SVG 1.1//EN" 
"http://www.w3.org/Graphics/SVG/1.1/DTD/svg11.dtd"> 
<svg xmlns="http://www.w3.org/2000/svg" version="1.1" font="Noto Sans Regular" font-size="12" width="684" height="439" > 
<g>
<circle id="LGn1_0" cx="275" cy="54" r="33" fill="none" stroke="rgb(0,0,0)" stroke-width="1" stroke-linecap="square"  />
<text id="LGn1_1" x="268" y="56" fill="rgb(0,0,0)" >&lt;&gt;</text>
<rect id="LGn1_2" x="268" y="74" width="15" height="17" fill="rgb(255,255,255)" />
<text id="LGn1_3" x="269" y="91" fill="rgb(0,0,0)" >n1</text>
<circle id="LGn5_4" cx="275" cy="144" r="33" fill="none" stroke="rgb(0,0,0)" stroke-width="1" stroke-linecap="square"  />
<text id="LGn5_5" x="268" y="146" fill="rgb(0,0,0)" >&lt;&gt;</text>
<rect id="LGn5_6" x="268" y="164" width="15" height="17" fill="rgb(255,255,255)" />
<text id="LGn5_7" x="269" y="181" fill="rgb(0,0,0)" >n5</text>
<circle id="LGn7_8" cx="275" cy="294" r="33" fill="none" stroke="rgb(0,0,0)" stroke-width="1" stroke-linecap="square"  />
<text id="LGn7_9" x="268" y="296" fill="rgb(0,0,0)" >&lt;&gt;</text>
<rect id="LGn7_10" x="268" y="314" width="15" height="17" fill="rgb(255,255,255)" />
<text id="LGn7_11" x="269" y="331" fill="rgb(0,0,0)" >n7</text>
<circle id="LGn0_12" cx="35" cy="54" r="33" fill="none" stroke="rgb(0,0,0)" stroke-width="1" stroke-linecap="square"  />
<circle id="LGn0_13" cx="35" cy="54" r="35" fill="none" stroke="rgb(0,0,0)" stroke-width="1" stroke-linecap="square"  />
<text id="LGn0_14" x="28" y="56" fill="rgb(0,0,0)" >&lt;&gt;</text>
<rect id="LGn0_15" x="28" y="74" width="15" height="17" fill="rgb(255,255,255)" />
<text id="LGn0_16" x="29" y="91" fill="rgb(0,0,0)" >n0</text>
<circle id="LGn6_17" cx="35" cy="294" r="33" fill="none" stroke="rgb(0,0,0)" stroke-width="1" stroke-linecap="square"  />
<circle id="LGn6_18" cx="35" cy="294" r="35" fill="none" stroke="rgb(0,0,0)" stroke-width="1" stroke-linecap="square"  />
<text id="LGn6_19" x="28" y="296" fill="rgb(0,0,0)" >&lt;&gt;</text>
<rect id="LGn6_20" x="28" y="314" width="15" height="17" fill="rgb(255,255,255)" />
<text id="LGn6_21" x="29" y="331" fill="rgb(0,0,0)" >n6</text>
<circle id="LGn2_22" cx="35" cy="384" r="33" fill="none" stroke="rgb(0,0,0)" stroke-width="1" stroke-linecap="square"  />
<circle id="LGn2_23" cx="35" cy="384" r="35" fill="none" stroke="rgb(0,0,0)" stroke-width="1" stroke-linecap="square"  />
<text id="LGn2_24" x="28" y="386" fill="rgb(0,0,0)" >&lt;&gt;</text>
<rect id="LGn2_25" x="28" y="404" width="15" height="17" fill="rgb(255,255,255)" />
<text id="LGn2_26" x="29" y="421" fill="rgb(0,0,0)" >n2</text>
<circle id="LGn3_27" cx="275" cy="384" r="33" fill="none" stroke="rgb(0,0,0)" stroke-width="1" stroke-linecap="square"  />
<text id="LGn3_28" x="268" y="386" fill="rgb(0,0,0)" >&lt;&gt;</text>
<rect id="LGn3_29" x="268" y="404" width="15" height="17" fill="rgb(255,255,255)" />
<text id="LGn3_30" x="269" y="421" fill="rgb(0,0,0)" >n3</text>
<circle id="LGn4_31" cx="35" cy="144" r="33" fill="none" stroke="rgb(0,0,0)" stroke-width="1" stroke-linecap="square"  />
<circle id="LGn4_32" cx="35" cy="144" r="35" fill="none" stroke="rgb(0,0,0)" stroke-width="1" stroke-linecap="square"  />
<text id="LGn4_33" x="28" y="146" fill="rgb(0,0,0)" >&lt;&gt;</text>
<rect id="LGn4_34" x="28" y="164" width="15" height="17" fill="rgb(255,255,255)" />
<text id="LGn4_35" x="29" y="181" fill="rgb(0,0,0)" >n4</text>
<path id="LGn6_2_n6_36" d="M71 311 L 78 319 C 103 343, 119 303  , 84 304  L 73 305 " fill="none" stroke="rgb(0,0,200)" stroke-width="1" stroke-linecap="square"  />
<path id="LGn6_2_n6_37" d="M72 309 L 78 318 C 100 340, 114 304  , 83 306  L 72 307 " fill="none" stroke="rgb(0,0,200)" stroke-width="1" stroke-linecap="square"  />
<text id="LGn6_2_n6_38" x="110" y="329" fill="rgb(0,0,200)" >2</text>
<path id="LGn0_3_n0_39" d="M72 40 L 83 41 C 118 39, 100 0  , 76 25  L 70 34 " fill="none" stroke="rgb(0,200,0)" stroke-width="2" stroke-linecap="butt" stroke-dasharray="2"  />
<text id="LGn0_3_n0_40" x="109" y="24" fill="rgb(0,200,0)" >3</text>
<path id="LGn0_2_n0_41" d="M70 73 L 76 82 C 100 106, 118 67  , 83 66  L 72 67 " fill="none" stroke="rgb(0,0,200)" stroke-width="1" stroke-linecap="square"  />
<path id="LGn0_2_n0_42" d="M71 71 L 77 80 C 97 103, 113 67  , 82 68  L 71 69 " fill="none" stroke="rgb(0,0,200)" stroke-width="1" stroke-linecap="square"  />
<text id="LGn0_2_n0_43" x="109" y="93" fill="rgb(0,0,200)" >2</text>
<path id="LGn3_2_n3_44" d="M240 366 L 234 357 C 209 333, 192 373  , 227 373  L 238 372 " fill="none" stroke="rgb(0,0,200)" stroke-width="1" stroke-linecap="square"  />
<path id="LGn3_2_n3_45" d="M239 368 L 233 359 C 212 337, 197 373  , 228 371  L 239 370 " fill="none" stroke="rgb(0,0,200)" stroke-width="1" stroke-linecap="square"  />
<text id="LGn3_2_n3_46" x="195" y="358" fill="rgb(0,0,200)" >2</text>
<path id="LGn4_2_n4_47" d="M73 132 L 84 133 C 119 134, 103 94  , 78 117  L 71 126 " fill="none" stroke="rgb(0,0,200)" stroke-width="1" stroke-linecap="square"  />
<path id="LGn4_2_n4_48" d="M72 130 L 83 131 C 114 133, 100 97  , 78 119  L 72 128 " fill="none" stroke="rgb(0,0,200)" stroke-width="1" stroke-linecap="square"  />
<text id="LGn4_2_n4_49" x="110" y="118" fill="rgb(0,0,200)" >2</text>
<path id="LGn7_2_n7_50" d="M239 307 L 228 307 C 193 310, 213 348  , 236 322  L 241 313 " fill="none" stroke="rgb(0,0,200)" stroke-width="1" stroke-linecap="square"  />
<path id="LGn7_2_n7_51" d="M240 309 L 228 309 C 198 310, 215 344  , 235 320  L 240 311 " fill="none" stroke="rgb(0,0,200)" stroke-width="1" stroke-linecap="square"  />
<text id="LGn7_2_n7_52" x="197" y="335" fill="rgb(0,0,200)" >2</text>
<path id="LGn5_3_n5_53" d="M238 155 L 227 154 C 192 154, 209 194  , 234 170  L 240 161 " fill="none" stroke="rgb(0,200,0)" stroke-width="2" stroke-linecap="butt" stroke-dasharray="2"  />
<text id="LGn5_3_n5_54" x="195" y="179" fill="rgb(0,200,0)" >3</text>
<path id="LGn1_3_n1_55" d="M241 35 L 235 26 C 211 1, 193 40  , 228 42  L 239 41 " fill="none" stroke="rgb(0,200,0)" stroke-width="2" stroke-linecap="butt" stroke-dasharray="2"  />
<text id="LGn1_3_n1_56" x="196" y="25" fill="rgb(0,200,0)" >3</text>
<line id="LGn4_0_n5_57" x1="75" y1="144" x2="237" y2="144" stroke="rgb(0,0,0)" stroke-width="2" stroke-linecap="square" />
<text id="LGn4_0_n5_58" x="153" y="164" fill="rgb(0,0,0)" >0</text>
<path id="LGn3_3_n3_59" d="M239 396 L 228 395 C 193 396, 211 436  , 235 411  L 241 402 " fill="none" stroke="rgb(0,200,0)" stroke-width="2" stroke-linecap="butt" stroke-dasharray="2"  />
<text id="LGn3_3_n3_60" x="196" y="422" fill="rgb(0,200,0)" >3</text>
<path id="LGn6_3_n6_61" d="M72 280 L 83 281 C 118 280, 100 240  , 76 265  L 70 274 " fill="none" stroke="rgb(0,200,0)" stroke-width="2" stroke-linecap="butt" stroke-dasharray="2"  />
<text id="LGn6_3_n6_62" x="109" y="264" fill="rgb(0,200,0)" >3</text>
<path id="LGn7_3_n7_63" d="M240 276 L 234 267 C 209 243, 192 283  , 227 283  L 238 282 " fill="none" stroke="rgb(0,200,0)" stroke-width="2" stroke-linecap="butt" stroke-dasharray="2"  />
<text id="LGn7_3_n7_64" x="195" y="267" fill="rgb(0,200,0)" >3</text>
<line id="LGn2_0_n3_65" x1="75" y1="384" x2="237" y2="384" stroke="rgb(0,0,0)" stroke-width="2" stroke-linecap="square" />
<text id="LGn2_0_n3_66" x="153" y="404" fill="rgb(0,0,0)" >0</text>
<path id="LGn2_3_n2_67" d="M70 402 L 76 411 C 101 435, 118 395  , 83 395  L 72 396 " fill="none" stroke="rgb(0,200,0)" stroke-width="2" stroke-linecap="butt" stroke-dasharray="2"  />
<text id="LGn2_3_n2_68" x="109" y="421" fill="rgb(0,200,0)" >3</text>
<path id="LGn5_2_n5_69" d="M241 126 L 235 117 C 211 93, 193 132  , 228 133  L 239 132 " fill="none" stroke="rgb(0,0,200)" stroke-width="1" stroke-linecap="square"  />
<path id="LGn5_2_n5_70" d="M240 128 L 234 119 C 214 96, 198 132  , 229 131  L 240 130 " fill="none" stroke="rgb(0,0,200)" stroke-width="1" stroke-linecap="square"  />
<text id="LGn5_2_n5_71" x="196" y="117" fill="rgb(0,0,200)" >2</text>
<path id="LGn4_3_n4_72" d="M70 162 L 76 171 C 100 195, 118 156  , 83 155  L 72 156 " fill="none" stroke="rgb(0,200,0)" stroke-width="2" stroke-linecap="butt" stroke-dasharray="2"  />
<text id="LGn4_3_n4_73" x="109" y="181" fill="rgb(0,200,0)" >3</text>
<path id="LGn2_2_n2_74" d="M73 374 L 84 376 C 118 378, 104 337  , 78 360  L 71 368 " fill="none" stroke="rgb(0,0,200)" stroke-width="1" stroke-linecap="square"  />
<path id="LGn2_2_n2_75" d="M72 372 L 83 374 C 114 377, 101 340  , 79 362  L 72 370 " fill="none" stroke="rgb(0,0,200)" stroke-width="1" stroke-linecap="square"  />
<text id="LGn2_2_n2_76" x="111" y="362" fill="rgb(0,0,200)" >2</text>
<line id="LGn0_0_n1_77" x1="75" y1="54" x2="237" y2="54" stroke="rgb(0,0,0)" stroke-width="2" stroke-linecap="square" />
<text id="LGn0_0_n1_78" x="153" y="74" fill="rgb(0,0,0)" >0</text>
<line id="LGn6_0_n7_79" x1="75" y1="294" x2="237" y2="294" stroke="rgb(0,0,0)" stroke-width="2" stroke-linecap="square" />
<text id="LGn6_0_n7_80" x="153" y="314" fill="rgb(0,0,0)" >0</text>
<path id="LGn1_2_n1_81" d="M240 68 L 228 68 C 194 71, 215 110  , 237 83  L 242 74 " fill="none" stroke="rgb(0,0,200)" stroke-width="1" stroke-linecap="square"  />
<path id="LGn1_2_n1_82" d="M241 70 L 229 70 C 199 71, 217 106  , 236 81  L 241 72 " fill="none" stroke="rgb(0,0,200)" stroke-width="1" stroke-linecap="square"  />
<text id="LGn1_2_n1_83" x="199" y="96" fill="rgb(0,0,200)" >2</text>
</g>
<g>
<polygon id="0" points="318,48 349,48 349,42 368,54 349,67 349,60 318,60 " stroke="rgb(0,0,0)" stroke-width="1" stroke-linecap="square"  fill="rgb(0,0,0)" />
</g>
<g>
<circle id="RGn1_0" cx="646" cy="54" r="33" fill="none" stroke="rgb(0,0,0)" stroke-width="1" stroke-linecap="square"  />
<text id="RGn1_1" x="639" y="56" fill="rgb(0,0,0)" >&lt;&gt;</text>
<rect id="RGn1_2" x="639" y="74" width="15" height="17" fill="rgb(255,255,255)" />
<text id="RGn1_3" x="640" y="91" fill="rgb(0,0,0)" >n1</text>
<circle id="RGn3_4" cx="646" cy="354" r="33" fill="none" stroke="rgb(0,0,0)" stroke-width="1" stroke-linecap="square"  />
<text id="RGn3_5" x="639" y="356" fill="rgb(0,0,0)" >&lt;&gt;</text>
<rect id="RGn3_6" x="639" y="374" width="15" height="17" fill="rgb(255,255,255)" />
<text id="RGn3_7" x="640" y="391" fill="rgb(0,0,0)" >n3</text>
<circle id="RGn4_8" cx="406" cy="144" r="33" fill="none" stroke="rgb(0,0,0)" stroke-width="1" stroke-linecap="square"  />
<text id="RGn4_9" x="399" y="146" fill="rgb(0,0,0)" >&lt;&gt;</text>
<rect id="RGn4_10" x="399" y="164" width="15" height="17" fill="rgb(255,255,255)" />
<text id="RGn4_11" x="400" y="181" fill="rgb(0,0,0)" >n4</text>
<circle id="RGn7_12" cx="646" cy="264" r="33" fill="none" stroke="rgb(0,0,0)" stroke-width="1" stroke-linecap="square"  />
<text id="RGn7_13" x="639" y="266" fill="rgb(0,0,0)" >&lt;&gt;</text>
<rect id="RGn7_14" x="639" y="284" width="15" height="17" fill="rgb(255,255,255)" />
<text id="RGn7_15" x="640" y="301" fill="rgb(0,0,0)" >n7</text>
<circle id="RGn2_16" cx="406" cy="354" r="33" fill="none" stroke="rgb(0,0,0)" stroke-width="1" stroke-linecap="square"  />
<text id="RGn2_17" x="399" y="356" fill="rgb(0,0,0)" >&lt;&gt;</text>
<rect id="RGn2_18" x="399" y="374" width="15" height="17" fill="rgb(255,255,255)" />
<text id="RGn2_19" x="400" y="391" fill="rgb(0,0,0)" >n2</text>
<circle id="RGn0_20" cx="406" cy="54" r="33" fill="none" stroke="rgb(0,0,0)" stroke-width="1" stroke-linecap="square"  />
<text id="RGn0_21" x="399" y="56" fill="rgb(0,0,0)" >&lt;&gt;</text>
<rect id="RGn0_22" x="399" y="74" width="15" height="17" fill="rgb(255,255,255)" />
<text id="RGn0_23" x="400" y="91" fill="rgb(0,0,0)" >n0</text>
<circle id="RGn6_24" cx="406" cy="264" r="33" fill="none" stroke="rgb(0,0,0)" stroke-width="1" stroke-linecap="square"  />
<text id="RGn6_25" x="399" y="266" fill="rgb(0,0,0)" >&lt;&gt;</text>
<rect id="RGn6_26" x="399" y="284" width="15" height="17" fill="rgb(255,255,255)" />
<text id="RGn6_27" x="400" y="301" fill="rgb(0,0,0)" >n6</text>
<circle id="RGn5_28" cx="646" cy="144" r="33" fill="none" stroke="rgb(0,0,0)" stroke-width="1" stroke-linecap="square"  />
<text id="RGn5_29" x="639" y="146" fill="rgb(0,0,0)" >&lt;&gt;</text>
<rect id="RGn5_30" x="639" y="164" width="15" height="17" fill="rgb(255,255,255)" />
<text id="RGn5_31" x="640" y="181" fill="rgb(0,0,0)" >n5</text>
<line id="RGn4_0_n5_32" x1="444" y1="144" x2="608" y2="144" stroke="rgb(0,0,0)" stroke-width="2" stroke-linecap="square" />
<text id="RGn4_0_n5_33" x="523" y="164" fill="rgb(0,0,0)" >0</text>
<path id="RGn0_3_n0_34" d="M442 48 L 453 51 C 487 56, 477 14  , 449 34  L 442 42 " fill="none" stroke="rgb(0,200,0)" stroke-width="2" stroke-linecap="butt" stroke-dasharray="2"  />
<text id="RGn0_3_n0_35" x="482" y="40" fill="rgb(0,200,0)" >3</text>
<path id="RGn7_3_n7_36" d="M608 253 L 601 246 C 572 226, 563 268  , 597 262  L 608 259 " fill="none" stroke="rgb(0,200,0)" stroke-width="2" stroke-linecap="butt" stroke-dasharray="2"  />
<text id="RGn7_3_n7_37" x="561" y="252" fill="rgb(0,200,0)" >3</text>
<line id="RGn2_0_n3_38" x1="444" y1="354" x2="608" y2="354" stroke="rgb(0,0,0)" stroke-width="2" stroke-linecap="square" />
<text id="RGn2_0_n3_39" x="523" y="374" fill="rgb(0,0,0)" >0</text>
<path id="RGn3_3_n3_40" d="M608 362 L 597 360 C 563 357, 576 398  , 603 376  L 610 368 " fill="none" stroke="rgb(0,200,0)" stroke-width="2" stroke-linecap="butt" stroke-dasharray="2"  />
<text id="RGn3_3_n3_41" x="564" y="383" fill="rgb(0,200,0)" >3</text>
<line id="RGn6_2_n2_42" x1="406" y1="302" x2="406" y2="316" stroke="rgb(0,0,200)" stroke-width="1" stroke-linecap="square" />
<text id="RGn6_2_n2_43" x="388" y="314" fill="rgb(0,0,200)" >2</text>
<path id="RGn5_3_n5_44" d="M609 154 L 598 153 C 563 152, 579 192  , 604 169  L 611 160 " fill="none" stroke="rgb(0,200,0)" stroke-width="2" stroke-linecap="butt" stroke-dasharray="2"  />
<text id="RGn5_3_n5_45" x="566" y="178" fill="rgb(0,200,0)" >3</text>
<path id="RGn2_3_n2_46" d="M441 368 L 448 376 C 474 399, 488 358  , 454 360  L 443 362 " fill="none" stroke="rgb(0,200,0)" stroke-width="2" stroke-linecap="butt" stroke-dasharray="2"  />
<text id="RGn2_3_n2_47" x="481" y="384" fill="rgb(0,200,0)" >3</text>
<line id="RGn7_2_n3_48" x1="646" y1="302" x2="646" y2="316" stroke="rgb(0,0,200)" stroke-width="1" stroke-linecap="square" />
<text id="RGn7_2_n3_49" x="628" y="314" fill="rgb(0,0,200)" >2</text>
<line id="RGn0_0_n1_50" x1="444" y1="54" x2="608" y2="54" stroke="rgb(0,0,0)" stroke-width="2" stroke-linecap="square" />
<text id="RGn0_0_n1_51" x="523" y="74" fill="rgb(0,0,0)" >0</text>
<line id="RGn6_0_n7_52" x1="444" y1="264" x2="608" y2="264" stroke="rgb(0,0,0)" stroke-width="2" stroke-linecap="square" />
<text id="RGn6_0_n7_53" x="523" y="284" fill="rgb(0,0,0)" >0</text>
<path id="RGn4_3_n4_54" d="M441 158 L 448 166 C 474 189, 488 148  , 454 150  L 443 152 " fill="none" stroke="rgb(0,200,0)" stroke-width="2" stroke-linecap="butt" stroke-dasharray="2"  />
<text id="RGn4_3_n4_55" x="481" y="174" fill="rgb(0,200,0)" >3</text>
<line id="RGn1_2_n5_56" x1="646" y1="92" x2="646" y2="106" stroke="rgb(0,0,200)" stroke-width="1" stroke-linecap="square" />
<text id="RGn1_2_n5_57" x="628" y="104" fill="rgb(0,0,200)" >2</text>
<path id="RGn1_3_n1_58" d="M610 41 L 602 33 C 575 12, 563 54  , 598 50  L 608 47 " fill="none" stroke="rgb(0,200,0)" stroke-width="2" stroke-linecap="butt" stroke-dasharray="2"  />
<text id="RGn1_3_n1_59" x="563" y="38" fill="rgb(0,200,0)" >3</text>
<line id="RGn0_2_n4_60" x1="406" y1="92" x2="406" y2="106" stroke="rgb(0,0,200)" stroke-width="1" stroke-linecap="square" />
<text id="RGn0_2_n4_61" x="388" y="104" fill="rgb(0,0,200)" >2</text>
<path id="RGn6_3_n6_62" d="M443 258 L 454 261 C 488 267, 478 225  , 450 244  L 443 252 " fill="none" stroke="rgb(0,200,0)" stroke-width="2" stroke-linecap="butt" stroke-dasharray="2"  />
<text id="RGn6_3_n6_63" x="483" y="250" fill="rgb(0,200,0)" >3</text>
</g>
</svg>
