<?xml version="1.0" standalone="no"?> 
<!DOCTYPE svg PUBLIC "-//W3C//DTD SVG 1.1//EN" 
"http://www.w3.org/Graphics/SVG/1.1/DTD/svg11.dtd"> 
<svg xmlns="http://www.w3.org/2000/svg" version="1.1" font="Noto Sans Regular" font-size="12" width="802" height="357" > 
<g>
<circle id="LGn0_0" cx="63" cy="63" r="33" fill="none" stroke="rgb(0,0,0)" stroke-width="1" stroke-linecap="square"  />
<circle id="LGn0_1" cx="63" cy="63" r="35" fill="none" stroke="rgb(0,0,0)" stroke-width="1" stroke-linecap="square"  />
<text id="LGn0_2" x="56" y="65" fill="rgb(0,0,0)" >&lt;&gt;</text>
<rect id="LGn0_3" x="56" y="83" width="15" height="17" fill="rgb(255,255,255)" />
<text id="LGn0_4" x="57" y="100" fill="rgb(0,0,0)" >n0</text>
<circle id="LGn1_5" cx="303" cy="63" r="33" fill="none" stroke="rgb(0,0,0)" stroke-width="1" stroke-linecap="square"  />
<text id="LGn1_6" x="296" y="65" fill="rgb(0,0,0)" >&lt;&gt;</text>
<rect id="LGn1_7" x="296" y="83" width="15" height="17" fill="rgb(255,255,255)" />
<text id="LGn1_8" x="297" y="100" fill="rgb(0,0,0)" >n1</text>
<circle id="LGn3_9" cx="63" cy="303" r="33" fill="none" stroke="rgb(0,0,0)" stroke-width="1" stroke-linecap="square"  />
<circle id="LGn3_10" cx="63" cy="303" r="35" fill="none" stroke="rgb(0,0,0)" stroke-width="1" stroke-linecap="square"  />
<text id="LGn3_11" x="56" y="305" fill="rgb(0,0,0)" >&lt;&gt;</text>
<rect id="LGn3_12" x="56" y="323" width="15" height="17" fill="rgb(255,255,255)" />
<text id="LGn3_13" x="57" y="340" fill="rgb(0,0,0)" >n3</text>
<circle id="LGn4_14" cx="303" cy="303" r="33" fill="none" stroke="rgb(0,0,0)" stroke-width="1" stroke-linecap="square"  />
<text id="LGn4_15" x="296" y="305" fill="rgb(0,0,0)" >&lt;&gt;</text>
<rect id="LGn4_16" x="296" y="323" width="15" height="17" fill="rgb(255,255,255)" />
<text id="LGn4_17" x="297" y="340" fill="rgb(0,0,0)" >n4</text>
<circle id="LGn2_18" cx="33" cy="213" r="33" fill="none" stroke="rgb(0,0,0)" stroke-width="1" stroke-linecap="square"  />
<text id="LGn2_19" x="26" y="215" fill="rgb(0,0,0)" >&lt;&gt;</text>
<rect id="LGn2_20" x="26" y="233" width="15" height="17" fill="rgb(255,255,255)" />
<text id="LGn2_21" x="27" y="250" fill="rgb(0,0,0)" >n2</text>
<circle id="LGn5_22" cx="333" cy="213" r="33" fill="none" stroke="rgb(0,0,0)" stroke-width="1" stroke-linecap="square"  />
<text id="LGn5_23" x="326" y="215" fill="rgb(0,0,0)" >&lt;&gt;</text>
<rect id="LGn5_24" x="326" y="233" width="15" height="17" fill="rgb(255,255,255)" />
<text id="LGn5_25" x="327" y="250" fill="rgb(0,0,0)" >n5</text>
<path id="LGn4_3_n4_26" d="M268 286 L 261 278 C 236 254, 220 295  , 255 294  L 266 292 " fill="none" stroke="rgb(0,200,0)" stroke-width="2" stroke-linecap="butt" stroke-dasharray="2"  />
<text id="LGn4_3_n4_27" x="222" y="279" fill="rgb(0,200,0)" >3</text>
<path id="LGn1_3_n1_28" d="M265 71 L 254 69 C 220 66, 233 107  , 260 85  L 267 77 " fill="none" stroke="rgb(0,200,0)" stroke-width="2" stroke-linecap="butt" stroke-dasharray="2"  />
<text id="LGn1_3_n1_29" x="221" y="92" fill="rgb(0,200,0)" >3</text>
<path id="LGn5_3_n5_30" d="M304 187 L 300 177 C 282 148, 256 183  , 289 191  L 300 193 " fill="none" stroke="rgb(0,200,0)" stroke-width="2" stroke-linecap="butt" stroke-dasharray="2"  />
<text id="LGn5_3_n5_31" x="263" y="169" fill="rgb(0,200,0)" >3</text>
<line id="LGn2_1_n3_32" x1="45" y1="249" x2="50" y2="265" stroke="rgb(200,0,0)" stroke-width="1" stroke-linecap="butt" stroke-dasharray="5" />
<text id="LGn2_1_n3_33" x="29" y="262" fill="rgb(200,0,0)" >1</text>
<line id="LGn5_1_n4_34" x1="320" y1="249" x2="315" y2="266" stroke="rgb(200,0,0)" stroke-width="1" stroke-linecap="butt" stroke-dasharray="5" />
<text id="LGn5_1_n4_35" x="299" y="262" fill="rgb(200,0,0)" >1</text>
<line id="LGn0_0_n1_36" x1="103" y1="63" x2="265" y2="63" stroke="rgb(0,0,0)" stroke-width="2" stroke-linecap="square" />
<text id="LGn0_0_n1_37" x="181" y="83" fill="rgb(0,0,0)" >0</text>
<path id="LGn3_2_n3_38" d="M92 275 L 103 272 C 134 258, 102 228  , 90 260  L 88 271 " fill="none" stroke="rgb(0,0,200)" stroke-width="1" stroke-linecap="square"  />
<path id="LGn3_2_n3_39" d="M91 274 L 101 271 C 130 260, 101 232  , 91 261  L 89 272 " fill="none" stroke="rgb(0,0,200)" stroke-width="1" stroke-linecap="square"  />
<text id="LGn3_2_n3_40" x="117" y="246" fill="rgb(0,0,200)" >2</text>
<path id="LGn2_3_n2_41" d="M64 192 L 75 189 C 108 181, 81 146  , 64 176  L 60 186 " fill="none" stroke="rgb(0,200,0)" stroke-width="2" stroke-linecap="butt" stroke-dasharray="2"  />
<text id="LGn2_3_n2_42" x="94" y="167" fill="rgb(0,200,0)" >3</text>
<path id="LGn1_2_n1_43" d="M271 83 L 260 86 C 227 94, 254 129  , 271 99  L 275 89 " fill="none" stroke="rgb(0,0,200)" stroke-width="1" stroke-linecap="square"  />
<path id="LGn1_2_n1_44" d="M272 85 L 261 86 C 231 93, 256 125  , 270 97  L 274 87 " fill="none" stroke="rgb(0,0,200)" stroke-width="1" stroke-linecap="square"  />
<text id="LGn1_2_n1_45" x="235" y="118" fill="rgb(0,0,200)" >2</text>
<path id="LGn0_3_n0_46" d="M100 77 L 108 85 C 135 107, 147 65  , 113 69  L 102 71 " fill="none" stroke="rgb(0,200,0)" stroke-width="2" stroke-linecap="butt" stroke-dasharray="2"  />
<text id="LGn0_3_n0_47" x="141" y="91" fill="rgb(0,200,0)" >3</text>
<path id="LGn4_2_n4_48" d="M280 272 L 277 261 C 266 228, 233 257  , 264 273  L 274 276 " fill="none" stroke="rgb(0,0,200)" stroke-width="1" stroke-linecap="square"  />
<path id="LGn4_2_n4_49" d="M278 273 L 276 262 C 267 233, 237 259  , 266 272  L 276 275 " fill="none" stroke="rgb(0,0,200)" stroke-width="1" stroke-linecap="square"  />
<text id="LGn4_2_n4_50" x="245" y="246" fill="rgb(0,0,200)" >2</text>
<path id="LGn0_2_n0_51" d="M92 90 L 96 100 C 114 129, 140 94  , 107 86  L 96 84 " fill="none" stroke="rgb(0,0,200)" stroke-width="1" stroke-linecap="square"  />
<path id="LGn0_2_n0_52" d="M93 88 L 97 98 C 112 125, 136 94  , 106 87  L 95 86 " fill="none" stroke="rgb(0,0,200)" stroke-width="1" stroke-linecap="square"  />
<text id="LGn0_2_n0_53" x="126" y="119" fill="rgb(0,0,200)" >2</text>
<path id="LGn2_2_n2_54" d="M70 205 L 81 207 C 115 211, 102 169  , 76 191  L 68 199 " fill="none" stroke="rgb(0,0,200)" stroke-width="1" stroke-linecap="square"  />
<path id="LGn2_2_n2_55" d="M69 203 L 80 205 C 111 210, 99 173  , 76 193  L 69 201 " fill="none" stroke="rgb(0,0,200)" stroke-width="1" stroke-linecap="square"  />
<text id="LGn2_2_n2_56" x="109" y="195" fill="rgb(0,0,200)" >2</text>
<path id="LGn5_2_n5_57" d="M295 201 L 288 193 C 260 174, 250 215  , 284 210  L 295 207 " fill="none" stroke="rgb(0,0,200)" stroke-width="1" stroke-linecap="square"  />
<path id="LGn5_2_n5_58" d="M295 203 L 287 195 C 263 176, 254 214  , 284 208  L 295 205 " fill="none" stroke="rgb(0,0,200)" stroke-width="1" stroke-linecap="square"  />
<text id="LGn5_2_n5_59" x="249" y="199" fill="rgb(0,0,200)" >2</text>
<line id="LGn3_0_n4_60" x1="103" y1="303" x2="265" y2="303" stroke="rgb(0,0,0)" stroke-width="2" stroke-linecap="square" />
<text id="LGn3_0_n4_61" x="181" y="323" fill="rgb(0,0,0)" >0</text>
<path id="LGn3_3_n3_62" d="M101 293 L 112 295 C 146 297, 132 256  , 106 279  L 99 287 " fill="none" stroke="rgb(0,200,0)" stroke-width="2" stroke-linecap="butt" stroke-dasharray="2"  />
<text id="LGn3_3_n3_63" x="139" y="281" fill="rgb(0,200,0)" >3</text>
</g>
<g>
<polygon id="0" points="376,207 407,207 407,201 426,213 407,226 407,219 376,219 " stroke="rgb(0,0,0)" stroke-width="1" stroke-linecap="square"  fill="rgb(0,0,0)" />
</g>
<g>
<circle id="RGn0_0" cx="494" cy="33" r="33" fill="none" stroke="rgb(0,0,0)" stroke-width="1" stroke-linecap="square"  />
<text id="RGn0_1" x="487" y="35" fill="rgb(0,0,0)" >&lt;&gt;</text>
<rect id="RGn0_2" x="487" y="53" width="15" height="17" fill="rgb(255,255,255)" />
<text id="RGn0_3" x="488" y="70" fill="rgb(0,0,0)" >n0</text>
<circle id="RGn5_4" cx="764" cy="213" r="33" fill="none" stroke="rgb(0,0,0)" stroke-width="1" stroke-linecap="square"  />
<text id="RGn5_5" x="757" y="215" fill="rgb(0,0,0)" >&lt;&gt;</text>
<rect id="RGn5_6" x="757" y="233" width="15" height="17" fill="rgb(255,255,255)" />
<text id="RGn5_7" x="758" y="250" fill="rgb(0,0,0)" >n5</text>
<circle id="RGn3_8" cx="494" cy="303" r="33" fill="none" stroke="rgb(0,0,0)" stroke-width="1" stroke-linecap="square"  />
<text id="RGn3_9" x="487" y="305" fill="rgb(0,0,0)" >&lt;&gt;</text>
<rect id="RGn3_10" x="487" y="323" width="15" height="17" fill="rgb(255,255,255)" />
<text id="RGn3_11" x="488" y="340" fill="rgb(0,0,0)" >n3</text>
<circle id="RGn2_12" cx="464" cy="213" r="33" fill="none" stroke="rgb(0,0,0)" stroke-width="1" stroke-linecap="square"  />
<text id="RGn2_13" x="457" y="215" fill="rgb(0,0,0)" >&lt;&gt;</text>
<rect id="RGn2_14" x="457" y="233" width="15" height="17" fill="rgb(255,255,255)" />
<text id="RGn2_15" x="458" y="250" fill="rgb(0,0,0)" >n2</text>
<circle id="RGn1_16" cx="734" cy="33" r="33" fill="none" stroke="rgb(0,0,0)" stroke-width="1" stroke-linecap="square"  />
<text id="RGn1_17" x="727" y="35" fill="rgb(0,0,0)" >&lt;&gt;</text>
<rect id="RGn1_18" x="727" y="53" width="15" height="17" fill="rgb(255,255,255)" />
<text id="RGn1_19" x="728" y="70" fill="rgb(0,0,0)" >n1</text>
<circle id="RGn4_20" cx="734" cy="303" r="33" fill="none" stroke="rgb(0,0,0)" stroke-width="1" stroke-linecap="square"  />
<text id="RGn4_21" x="727" y="305" fill="rgb(0,0,0)" >&lt;&gt;</text>
<rect id="RGn4_22" x="727" y="323" width="15" height="17" fill="rgb(255,255,255)" />
<text id="RGn4_23" x="728" y="340" fill="rgb(0,0,0)" >n4</text>
<path id="RGn5_1_n5_24" d="M726 207 L 717 201 C 686 185, 683 228  , 716 218  L 726 213 " fill="none" stroke="rgb(200,0,0)" stroke-width="1" stroke-linecap="butt" stroke-dasharray="5"  />
<text id="RGn5_1_n5_25" x="679" y="212" fill="rgb(200,0,0)" >1</text>
<path id="RGn3_3_n3_26" d="M531 296 L 542 299 C 576 303, 564 261  , 537 282  L 529 290 " fill="none" stroke="rgb(0,200,0)" stroke-width="2" stroke-linecap="butt" stroke-dasharray="2"  />
<text id="RGn3_3_n3_27" x="570" y="287" fill="rgb(0,200,0)" >3</text>
<line id="RGn0_0_n1_28" x1="532" y1="33" x2="696" y2="33" stroke="rgb(0,0,0)" stroke-width="2" stroke-linecap="square" />
<text id="RGn0_0_n1_29" x="611" y="53" fill="rgb(0,0,0)" >0</text>
<path id="RGn1_2_n1_30" d="M703 56 L 692 58 C 660 69, 689 102  , 704 71  L 707 60 " fill="none" stroke="rgb(0,0,200)" stroke-width="1" stroke-linecap="square"  />
<path id="RGn1_2_n1_31" d="M704 57 L 693 59 C 664 68, 691 98  , 703 69  L 706 59 " fill="none" stroke="rgb(0,0,200)" stroke-width="1" stroke-linecap="square"  />
<text id="RGn1_2_n1_32" x="669" y="93" fill="rgb(0,0,200)" >2</text>
<path id="RGn4_3_n4_33" d="M698 289 L 690 281 C 663 260, 651 301  , 685 297  L 696 295 " fill="none" stroke="rgb(0,200,0)" stroke-width="2" stroke-linecap="butt" stroke-dasharray="2"  />
<text id="RGn4_3_n4_34" x="651" y="285" fill="rgb(0,200,0)" >3</text>
<path id="RGn4_1_n4_35" d="M718 268 L 718 256 C 715 222, 676 243  , 703 265  L 712 270 " fill="none" stroke="rgb(200,0,0)" stroke-width="1" stroke-linecap="butt" stroke-dasharray="5"  />
<text id="RGn4_1_n4_36" x="691" y="235" fill="rgb(200,0,0)" >1</text>
<path id="RGn2_3_n2_37" d="M496 193 L 507 191 C 540 183, 514 148  , 496 177  L 492 187 " fill="none" stroke="rgb(0,200,0)" stroke-width="2" stroke-linecap="butt" stroke-dasharray="2"  />
<text id="RGn2_3_n2_38" x="526" y="168" fill="rgb(0,200,0)" >3</text>
<path id="RGn4_2_n4_39" d="M705 277 L 701 267 C 683 238, 657 273  , 690 281  L 701 283 " fill="none" stroke="rgb(0,0,200)" stroke-width="1" stroke-linecap="square"  />
<path id="RGn4_2_n4_40" d="M704 279 L 700 269 C 685 242, 661 274  , 691 280  L 702 281 " fill="none" stroke="rgb(0,0,200)" stroke-width="1" stroke-linecap="square"  />
<text id="RGn4_2_n4_41" x="665" y="258" fill="rgb(0,0,200)" >2</text>
<path id="RGn5_2_n5_42" d="M729 195 L 723 186 C 698 162, 681 201  , 716 202  L 727 201 " fill="none" stroke="rgb(0,0,200)" stroke-width="1" stroke-linecap="square"  />
<path id="RGn5_2_n5_43" d="M728 197 L 722 188 C 701 165, 686 201  , 717 200  L 728 199 " fill="none" stroke="rgb(0,0,200)" stroke-width="1" stroke-linecap="square"  />
<text id="RGn5_2_n5_44" x="684" y="186" fill="rgb(0,0,200)" >2</text>
<path id="RGn3_1_n3_45" d="M514 270 L 523 265 C 549 242, 511 222  , 508 256  L 508 268 " fill="none" stroke="rgb(200,0,0)" stroke-width="1" stroke-linecap="butt" stroke-dasharray="5"  />
<text id="RGn3_1_n3_46" x="528" y="235" fill="rgb(200,0,0)" >1</text>
<path id="RGn0_3_n0_47" d="M529 47 L 536 55 C 563 77, 576 36  , 542 39  L 531 41 " fill="none" stroke="rgb(0,200,0)" stroke-width="2" stroke-linecap="butt" stroke-dasharray="2"  />
<text id="RGn0_3_n0_48" x="570" y="62" fill="rgb(0,200,0)" >3</text>
<path id="RGn2_2_n2_49" d="M501 204 L 512 206 C 546 208, 532 167  , 506 190  L 499 198 " fill="none" stroke="rgb(0,0,200)" stroke-width="1" stroke-linecap="square"  />
<path id="RGn2_2_n2_50" d="M500 202 L 511 204 C 542 207, 529 171  , 507 192  L 500 200 " fill="none" stroke="rgb(0,0,200)" stroke-width="1" stroke-linecap="square"  />
<text id="RGn2_2_n2_51" x="539" y="192" fill="rgb(0,0,200)" >2</text>
<path id="RGn0_2_n0_52" d="M518 61 L 520 72 C 534 104, 565 72  , 533 59  L 522 57 " fill="none" stroke="rgb(0,0,200)" stroke-width="1" stroke-linecap="square"  />
<path id="RGn0_2_n0_53" d="M519 60 L 522 71 C 532 99, 561 71  , 532 61  L 521 58 " fill="none" stroke="rgb(0,0,200)" stroke-width="1" stroke-linecap="square"  />
<text id="RGn0_2_n0_54" x="548" y="95" fill="rgb(0,0,200)" >2</text>
<line id="RGn3_0_n4_55" x1="532" y1="303" x2="696" y2="303" stroke="rgb(0,0,0)" stroke-width="2" stroke-linecap="square" />
<text id="RGn3_0_n4_56" x="611" y="323" fill="rgb(0,0,0)" >0</text>
<path id="RGn2_1_n2_57" d="M501 215 L 511 220 C 543 233, 542 190  , 510 203  L 501 209 " fill="none" stroke="rgb(200,0,0)" stroke-width="1" stroke-linecap="butt" stroke-dasharray="5"  />
<text id="RGn2_1_n2_58" x="542" y="217" fill="rgb(200,0,0)" >1</text>
<path id="RGn1_3_n1_59" d="M697 43 L 686 42 C 651 41, 667 81  , 692 57  L 699 49 " fill="none" stroke="rgb(0,200,0)" stroke-width="2" stroke-linecap="butt" stroke-dasharray="2"  />
<text id="RGn1_3_n1_60" x="653" y="66" fill="rgb(0,200,0)" >3</text>
<path id="RGn3_2_n3_61" d="M525 281 L 536 278 C 569 268, 540 235  , 524 265  L 521 275 " fill="none" stroke="rgb(0,0,200)" stroke-width="1" stroke-linecap="square"  />
<path id="RGn3_2_n3_62" d="M524 279 L 535 277 C 564 269, 539 239  , 526 267  L 522 277 " fill="none" stroke="rgb(0,0,200)" stroke-width="1" stroke-linecap="square"  />
<text id="RGn3_2_n3_63" x="554" y="255" fill="rgb(0,0,200)" >2</text>
<path id="RGn5_3_n5_64" d="M737 185 L 734 174 C 719 143, 689 176  , 722 187  L 733 189 " fill="none" stroke="rgb(0,200,0)" stroke-width="2" stroke-linecap="butt" stroke-dasharray="2"  />
<text id="RGn5_3_n5_65" x="699" y="163" fill="rgb(0,200,0)" >3</text>
</g>
</svg>
