<?xml version="1.0" encoding="UTF-8" standalone="no"?>
<svg
   version="1.1"
   font="Noto Sans Regular"
   font-size="12px"
   width="798"
   height="340.66992"
   id="svg3"
   sodipodi:docname="rule-cas-particulier-scission-1-depliee.svg"
   inkscape:version="1.3.2 (091e20ef0f, 2023-11-25, custom)"
   xmlns:inkscape="http://www.inkscape.org/namespaces/inkscape"
   xmlns:sodipodi="http://sodipodi.sourceforge.net/DTD/sodipodi-0.dtd"
   xmlns="http://www.w3.org/2000/svg"
   xmlns:svg="http://www.w3.org/2000/svg">
  <defs
     id="defs3" />
  <sodipodi:namedview
     id="namedview3"
     pagecolor="#ffffff"
     bordercolor="#000000"
     borderopacity="0.25"
     inkscape:showpageshadow="2"
     inkscape:pageopacity="0.0"
     inkscape:pagecheckerboard="0"
     inkscape:deskcolor="#d1d1d1"
     showgrid="false"
     inkscape:zoom="0.7786783"
     inkscape:cx="475.80624"
     inkscape:cy="165.02322"
     inkscape:window-width="1892"
     inkscape:window-height="1035"
     inkscape:window-x="9"
     inkscape:window-y="26"
     inkscape:window-maximized="1"
     inkscape:current-layer="svg3" />
  <circle
     id="LGn0_0"
     cx="63.5"
     cy="63.5"
     r="33"
     fill="none"
     stroke="#000000"
     stroke-width="1"
     stroke-linecap="square" />
  <circle
     id="LGn0_1"
     cx="63.5"
     cy="63.5"
     r="35"
     fill="none"
     stroke="#000000"
     stroke-width="1"
     stroke-linecap="square" />
  <text
     id="LGn0_2"
     x="53.445312"
     y="67.261719"
     fill="#000000">&lt;&gt;</text>
  <rect
     id="LGn0_3"
     x="56.5"
     y="83.5"
     width="15"
     height="17"
     fill="#ffffff" />
  <text
     id="LGn0_4"
     x="57.5"
     y="100.5"
     fill="#000000">n0</text>
  <circle
     id="LGn1_5"
     cx="303.5"
     cy="63.5"
     r="33"
     fill="none"
     stroke="#000000"
     stroke-width="1"
     stroke-linecap="square" />
  <text
     id="LGn1_6"
     x="293.44531"
     y="67.261719"
     fill="#000000">&lt;&gt;</text>
  <rect
     id="LGn1_7"
     x="296.5"
     y="83.5"
     width="15"
     height="17"
     fill="#ffffff" />
  <text
     id="LGn1_8"
     x="297.5"
     y="100.5"
     fill="#000000">n1</text>
  <circle
     id="LGn3_9"
     cx="63.5"
     cy="303.5"
     r="33"
     fill="none"
     stroke="#000000"
     stroke-width="1"
     stroke-linecap="square" />
  <circle
     id="LGn3_10"
     cx="63.5"
     cy="303.5"
     r="35"
     fill="none"
     stroke="#000000"
     stroke-width="1"
     stroke-linecap="square" />
  <text
     id="LGn3_11"
     x="53.445312"
     y="307.26172"
     fill="#000000">&lt;&gt;</text>
  <rect
     id="LGn3_12"
     x="56.5"
     y="323.5"
     width="15"
     height="17"
     fill="#ffffff" />
  <text
     id="LGn3_13"
     x="57.5"
     y="340.5"
     fill="#000000">n3</text>
  <circle
     id="LGn4_14"
     cx="303.5"
     cy="303.5"
     r="33"
     fill="none"
     stroke="#000000"
     stroke-width="1"
     stroke-linecap="square" />
  <text
     id="LGn4_15"
     x="293.44531"
     y="307.26172"
     fill="#000000">&lt;&gt;</text>
  <rect
     id="LGn4_16"
     x="296.5"
     y="323.5"
     width="15"
     height="17"
     fill="#ffffff" />
  <text
     id="LGn4_17"
     x="297.5"
     y="340.5"
     fill="#000000">n4</text>
  <circle
     id="LGn2_18"
     cx="33.5"
     cy="213.5"
     r="33"
     fill="none"
     stroke="#000000"
     stroke-width="1"
     stroke-linecap="square" />
  <text
     id="LGn2_19"
     x="23.445312"
     y="217.26172"
     fill="#000000">&lt;&gt;</text>
  <rect
     id="LGn2_20"
     x="26.5"
     y="233.5"
     width="15"
     height="17"
     fill="#ffffff" />
  <text
     id="LGn2_21"
     x="27.5"
     y="250.5"
     fill="#000000">n2</text>
  <circle
     id="LGn5_22"
     cx="333.5"
     cy="213.5"
     r="33"
     fill="none"
     stroke="#000000"
     stroke-width="1"
     stroke-linecap="square" />
  <text
     id="LGn5_23"
     x="323.44531"
     y="217.26172"
     fill="#000000">&lt;&gt;</text>
  <rect
     id="LGn5_24"
     x="326.5"
     y="233.5"
     width="15"
     height="17"
     fill="#ffffff" />
  <text
     id="LGn5_25"
     x="327.5"
     y="250.5"
     fill="#000000">n5</text>
  <path
     id="LGn4_3_n4_26"
     d="m 268.5,286.5 -7,-8 c -25,-24 -41,17 -6,16 l 11,-2"
     fill="none"
     stroke="#00c800"
     stroke-width="2"
     stroke-linecap="butt"
     stroke-dasharray="2"
     style="stroke-width:1;stroke-dasharray:none" />
  <text
     id="LGn4_3_n4_27"
     x="222.5"
     y="279.5"
     fill="#00c800">3</text>
  <path
     id="LGn1_3_n1_28"
     d="m 265.5,71.5 -11,-2 c -34,-3 -21,38 6,16 l 7,-8"
     fill="none"
     stroke="#00c800"
     stroke-width="2"
     stroke-linecap="butt"
     stroke-dasharray="2"
     style="stroke-width:1;stroke-dasharray:none" />
  <text
     id="LGn1_3_n1_29"
     x="221.5"
     y="92.5"
     fill="#00c800">3</text>
  <path
     id="LGn5_3_n5_30"
     d="m 304.5,187.5 -4,-10 c -18,-29 -44,6 -11,14 l 11,2"
     fill="none"
     stroke="#00c800"
     stroke-width="2"
     stroke-linecap="butt"
     stroke-dasharray="2"
     style="stroke-width:1;stroke-dasharray:none" />
  <text
     id="LGn5_3_n5_31"
     x="263.5"
     y="169.5"
     fill="#00c800">3</text>
  <line
     id="LGn2_1_n3_32"
     x1="45.5"
     y1="249.5"
     x2="50.5"
     y2="265.5"
     stroke="#c80000"
     stroke-width="1"
     stroke-linecap="butt"
     stroke-dasharray="5"
     style="stroke-dasharray:none" />
  <text
     id="LGn2_1_n3_33"
     x="29.5"
     y="262.5"
     fill="#c80000">1</text>
  <line
     id="LGn5_1_n4_34"
     x1="320.5"
     y1="249.5"
     x2="315.5"
     y2="266.5"
     stroke="#c80000"
     stroke-width="1"
     stroke-linecap="butt"
     stroke-dasharray="5"
     style="stroke-dasharray:none" />
  <text
     id="LGn5_1_n4_35"
     x="299.5"
     y="262.5"
     fill="#c80000">1</text>
  <line
     id="LGn0_0_n1_36"
     x1="103.5"
     y1="63.5"
     x2="265.5"
     y2="63.5"
     stroke="#000000"
     stroke-width="2"
     stroke-linecap="square" />
  <text
     id="LGn0_0_n1_37"
     x="181.5"
     y="83.5"
     fill="#000000">0</text>
  <path
     id="LGn3_2_n3_39"
     d="m 91.5,274.5 10,-3 c 29,-11 0,-39 -10,-10 l -2,11"
     fill="none"
     stroke="#0000c8"
     stroke-width="1"
     stroke-linecap="square" />
  <text
     id="LGn3_2_n3_40"
     x="117.5"
     y="246.5"
     fill="#0000c8">2</text>
  <path
     id="LGn2_3_n2_41"
     d="m 64.5,192.5 11,-3 c 33,-8 6,-43 -11,-13 l -4,10"
     fill="none"
     stroke="#00c800"
     stroke-width="2"
     stroke-linecap="butt"
     stroke-dasharray="2"
     style="stroke-width:1;stroke-dasharray:none" />
  <text
     id="LGn2_3_n2_42"
     x="94.5"
     y="167.5"
     fill="#00c800">3</text>
  <path
     id="LGn1_2_n1_44"
     d="m 272.5,85.5 -11,1 c -30,7 -5,39 9,11 l 4,-10"
     fill="none"
     stroke="#0000c8"
     stroke-width="1"
     stroke-linecap="square" />
  <text
     id="LGn1_2_n1_45"
     x="235.5"
     y="118.5"
     fill="#0000c8">2</text>
  <path
     id="LGn0_3_n0_46"
     d="m 100.5,77.5 8,8 c 27,22 39,-20 5,-16 l -11,2"
     fill="none"
     stroke="#00c800"
     stroke-width="2"
     stroke-linecap="butt"
     stroke-dasharray="2"
     style="stroke-width:1;stroke-dasharray:none" />
  <text
     id="LGn0_3_n0_47"
     x="141.5"
     y="91.5"
     fill="#00c800">3</text>
  <path
     id="LGn4_2_n4_49"
     d="m 278.5,273.5 -2,-11 c -9,-29 -39,-3 -10,10 l 10,3"
     fill="none"
     stroke="#0000c8"
     stroke-width="1"
     stroke-linecap="square" />
  <text
     id="LGn4_2_n4_50"
     x="245.5"
     y="246.5"
     fill="#0000c8">2</text>
  <path
     id="LGn0_2_n0_52"
     d="m 93.5,88.5 4,10 c 15,27 39,-4 9,-11 l -11,-1"
     fill="none"
     stroke="#0000c8"
     stroke-width="1"
     stroke-linecap="square" />
  <text
     id="LGn0_2_n0_53"
     x="126.5"
     y="119.5"
     fill="#0000c8">2</text>
  <path
     id="LGn2_2_n2_55"
     d="m 69.5,203.5 11,2 c 31,5 19,-32 -4,-12 l -7,8"
     fill="none"
     stroke="#0000c8"
     stroke-width="1"
     stroke-linecap="square" />
  <text
     id="LGn2_2_n2_56"
     x="109.5"
     y="195.5"
     fill="#0000c8">2</text>
  <path
     id="LGn5_2_n5_58"
     d="m 295.5,203.5 -8,-8 c -24,-19 -33,19 -3,13 l 11,-3"
     fill="none"
     stroke="#0000c8"
     stroke-width="1"
     stroke-linecap="square" />
  <text
     id="LGn5_2_n5_59"
     x="249.5"
     y="199.5"
     fill="#0000c8">2</text>
  <line
     id="LGn3_0_n4_60"
     x1="103.5"
     y1="303.5"
     x2="265.5"
     y2="303.5"
     stroke="#000000"
     stroke-width="2"
     stroke-linecap="square" />
  <text
     id="LGn3_0_n4_61"
     x="181.5"
     y="323.5"
     fill="#000000">0</text>
  <path
     id="LGn3_3_n3_62"
     d="m 101.5,293.5 11,2 c 34,2 20,-39 -6,-16 l -7,8"
     fill="none"
     stroke="#00c800"
     stroke-width="2"
     stroke-linecap="butt"
     stroke-dasharray="2"
     style="stroke-width:1;stroke-dasharray:none" />
  <text
     id="LGn3_3_n3_63"
     x="139.5"
     y="281.5"
     fill="#00c800">3</text>
  <polygon
     id="0"
     points="376,207 407,207 407,201 426,213 407,226 407,219 376,219 "
     stroke="#000000"
     stroke-width="1"
     stroke-linecap="square"
     fill="#000000"
     transform="translate(0.5,-43.18543)" />
  <circle
     id="RGn0_0"
     cx="494.5"
     cy="33.5"
     r="33"
     fill="none"
     stroke="#000000"
     stroke-width="1"
     stroke-linecap="square" />
  <text
     id="RGn0_1"
     x="484.44531"
     y="37.261719"
     fill="#000000">&lt;&gt;</text>
  <rect
     id="RGn0_2"
     x="487.5"
     y="53.5"
     width="15"
     height="17"
     fill="#ffffff" />
  <text
     id="RGn0_3"
     x="488.5"
     y="70.5"
     fill="#000000">n0</text>
  <circle
     id="RGn5_4"
     cx="764.5"
     cy="213.5"
     r="33"
     fill="none"
     stroke="#000000"
     stroke-width="1"
     stroke-linecap="square" />
  <text
     id="RGn5_5"
     x="754.44531"
     y="217.26172"
     fill="#000000">&lt;&gt;</text>
  <rect
     id="RGn5_6"
     x="757.5"
     y="233.5"
     width="15"
     height="17"
     fill="#ffffff" />
  <text
     id="RGn5_7"
     x="758.5"
     y="250.5"
     fill="#000000">n5</text>
  <circle
     id="RGn3_8"
     cx="494.5"
     cy="303.5"
     r="33"
     fill="none"
     stroke="#000000"
     stroke-width="1"
     stroke-linecap="square" />
  <text
     id="RGn3_9"
     x="484.44531"
     y="307.26172"
     fill="#000000">&lt;&gt;</text>
  <rect
     id="RGn3_10"
     x="487.5"
     y="323.5"
     width="15"
     height="17"
     fill="#ffffff" />
  <text
     id="RGn3_11"
     x="488.5"
     y="340.5"
     fill="#000000">n3</text>
  <circle
     id="RGn2_12"
     cx="464.5"
     cy="213.5"
     r="33"
     fill="none"
     stroke="#000000"
     stroke-width="1"
     stroke-linecap="square" />
  <text
     id="RGn2_13"
     x="454.44531"
     y="217.26172"
     fill="#000000">&lt;&gt;</text>
  <rect
     id="RGn2_14"
     x="457.5"
     y="233.5"
     width="15"
     height="17"
     fill="#ffffff" />
  <text
     id="RGn2_15"
     x="458.5"
     y="250.5"
     fill="#000000">n2</text>
  <circle
     id="RGn1_16"
     cx="734.5"
     cy="33.5"
     r="33"
     fill="none"
     stroke="#000000"
     stroke-width="1"
     stroke-linecap="square" />
  <text
     id="RGn1_17"
     x="724.44531"
     y="37.261719"
     fill="#000000">&lt;&gt;</text>
  <rect
     id="RGn1_18"
     x="727.5"
     y="53.5"
     width="15"
     height="17"
     fill="#ffffff" />
  <text
     id="RGn1_19"
     x="728.5"
     y="70.5"
     fill="#000000">n1</text>
  <circle
     id="RGn4_20"
     cx="734.5"
     cy="303.5"
     r="33"
     fill="none"
     stroke="#000000"
     stroke-width="1"
     stroke-linecap="square" />
  <text
     id="RGn4_21"
     x="724.44531"
     y="307.26172"
     fill="#000000">&lt;&gt;</text>
  <rect
     id="RGn4_22"
     x="727.5"
     y="323.5"
     width="15"
     height="17"
     fill="#ffffff" />
  <text
     id="RGn4_23"
     x="728.5"
     y="340.5"
     fill="#000000">n4</text>
  <path
     id="RGn5_1_n5_24"
     d="m 726.5,207.5 -9,-6 c -31,-16 -34,27 -1,17 l 10,-5"
     fill="none"
     stroke="#c80000"
     stroke-width="1"
     stroke-linecap="butt"
     stroke-dasharray="5"
     style="stroke-dasharray:none" />
  <text
     id="RGn5_1_n5_25"
     x="679.5"
     y="212.5"
     fill="#c80000">1</text>
  <path
     id="RGn3_3_n3_26"
     d="m 531.5,296.5 11,3 c 34,4 22,-38 -5,-17 l -8,8"
     fill="none"
     stroke="#00c800"
     stroke-width="2"
     stroke-linecap="butt"
     stroke-dasharray="2"
     style="stroke-width:1;stroke-dasharray:none" />
  <text
     id="RGn3_3_n3_27"
     x="570.5"
     y="287.5"
     fill="#00c800">3</text>
  <line
     id="RGn0_0_n1_28"
     x1="532.5"
     y1="33.5"
     x2="696.5"
     y2="33.5"
     stroke="#000000"
     stroke-width="2"
     stroke-linecap="square" />
  <text
     id="RGn0_0_n1_29"
     x="611.5"
     y="53.5"
     fill="#000000">0</text>
  <path
     id="RGn1_2_n1_31"
     d="m 704.5,57.5 -11,2 c -29,9 -2,39 10,10 l 3,-10"
     fill="none"
     stroke="#0000c8"
     stroke-width="1"
     stroke-linecap="square" />
  <text
     id="RGn1_2_n1_32"
     x="669.5"
     y="93.5"
     fill="#0000c8">2</text>
  <path
     id="RGn4_3_n4_33"
     d="m 698.5,289.5 -8,-8 c -27,-21 -39,20 -5,16 l 11,-2"
     fill="none"
     stroke="#00c800"
     stroke-width="2"
     stroke-linecap="butt"
     stroke-dasharray="2"
     style="stroke-width:1;stroke-dasharray:none" />
  <text
     id="RGn4_3_n4_34"
     x="651.5"
     y="285.5"
     fill="#00c800">3</text>
  <path
     id="RGn4_1_n4_35"
     d="m 718.5,268.5 v -12 c -3,-34 -42,-13 -15,9 l 9,5"
     fill="none"
     stroke="#c80000"
     stroke-width="1"
     stroke-linecap="butt"
     stroke-dasharray="5"
     style="stroke-dasharray:none" />
  <text
     id="RGn4_1_n4_36"
     x="691.5"
     y="235.5"
     fill="#c80000">1</text>
  <path
     id="RGn2_3_n2_37"
     d="m 496.5,193.5 11,-2 c 33,-8 7,-43 -11,-14 l -4,10"
     fill="none"
     stroke="#00c800"
     stroke-width="2"
     stroke-linecap="butt"
     stroke-dasharray="2"
     style="stroke-width:1;stroke-dasharray:none" />
  <text
     id="RGn2_3_n2_38"
     x="526.5"
     y="168.5"
     fill="#00c800">3</text>
  <path
     id="RGn4_2_n4_40"
     d="m 704.5,279.5 -4,-10 c -15,-27 -39,5 -9,11 l 11,1"
     fill="none"
     stroke="#0000c8"
     stroke-width="1"
     stroke-linecap="square" />
  <text
     id="RGn4_2_n4_41"
     x="665.5"
     y="258.5"
     fill="#0000c8">2</text>
  <path
     id="RGn5_2_n5_43"
     d="m 728.5,197.5 -6,-9 c -21,-23 -36,13 -5,12 l 11,-1"
     fill="none"
     stroke="#0000c8"
     stroke-width="1"
     stroke-linecap="square" />
  <text
     id="RGn5_2_n5_44"
     x="684.5"
     y="186.5"
     fill="#0000c8">2</text>
  <path
     id="RGn3_1_n3_45"
     d="m 514.5,270.5 9,-5 c 26,-23 -12,-43 -15,-9 v 12"
     fill="none"
     stroke="#c80000"
     stroke-width="1"
     stroke-linecap="butt"
     stroke-dasharray="5"
     style="stroke-dasharray:none" />
  <text
     id="RGn3_1_n3_46"
     x="528.5"
     y="235.5"
     fill="#c80000">1</text>
  <path
     id="RGn0_3_n0_47"
     d="m 529.5,47.5 7,8 c 27,22 40,-19 6,-16 l -11,2"
     fill="none"
     stroke="#00c800"
     stroke-width="2"
     stroke-linecap="butt"
     stroke-dasharray="2"
     style="stroke-width:1;stroke-dasharray:none" />
  <text
     id="RGn0_3_n0_48"
     x="570.5"
     y="62.5"
     fill="#00c800">3</text>
  <path
     id="RGn2_2_n2_50"
     d="m 500.5,202.5 11,2 c 31,3 18,-33 -4,-12 l -7,8"
     fill="none"
     stroke="#0000c8"
     stroke-width="1"
     stroke-linecap="square" />
  <text
     id="RGn2_2_n2_51"
     x="539.5"
     y="192.5"
     fill="#0000c8">2</text>
  <path
     id="RGn0_2_n0_53"
     d="m 519.5,60.5 3,11 c 10,28 39,0 10,-10 l -11,-3"
     fill="none"
     stroke="#0000c8"
     stroke-width="1"
     stroke-linecap="square" />
  <text
     id="RGn0_2_n0_54"
     x="548.5"
     y="95.5"
     fill="#0000c8">2</text>
  <line
     id="RGn3_0_n4_55"
     x1="532.5"
     y1="303.5"
     x2="696.5"
     y2="303.5"
     stroke="#000000"
     stroke-width="2"
     stroke-linecap="square" />
  <text
     id="RGn3_0_n4_56"
     x="611.5"
     y="323.5"
     fill="#000000">0</text>
  <path
     id="RGn2_1_n2_57"
     d="m 501.5,215.5 10,5 c 32,13 31,-30 -1,-17 l -9,6"
     fill="none"
     stroke="#c80000"
     stroke-width="1"
     stroke-linecap="butt"
     stroke-dasharray="5"
     style="stroke-dasharray:none" />
  <text
     id="RGn2_1_n2_58"
     x="542.5"
     y="217.5"
     fill="#c80000">1</text>
  <path
     id="RGn1_3_n1_59"
     d="m 697.5,43.5 -11,-1 c -35,-1 -19,39 6,15 l 7,-8"
     fill="none"
     stroke="#00c800"
     stroke-width="2"
     stroke-linecap="butt"
     stroke-dasharray="2"
     style="stroke-width:1;stroke-dasharray:none" />
  <text
     id="RGn1_3_n1_60"
     x="653.5"
     y="66.5"
     fill="#00c800">3</text>
  <path
     id="RGn3_2_n3_62"
     d="m 524.5,279.5 11,-2 c 29,-8 4,-38 -9,-10 l -4,10"
     fill="none"
     stroke="#0000c8"
     stroke-width="1"
     stroke-linecap="square" />
  <text
     id="RGn3_2_n3_63"
     x="554.5"
     y="255.5"
     fill="#0000c8">2</text>
  <path
     id="RGn5_3_n5_64"
     d="m 737.5,185.5 -3,-11 c -15,-31 -45,2 -12,13 l 11,2"
     fill="none"
     stroke="#00c800"
     stroke-width="2"
     stroke-linecap="butt"
     stroke-dasharray="2"
     style="stroke-width:1;stroke-dasharray:none" />
  <text
     id="RGn5_3_n5_65"
     x="699.5"
     y="163.5"
     fill="#00c800">3</text>
</svg>
