<?xml version="1.0" standalone="no"?> 
<!DOCTYPE svg PUBLIC "-//W3C//DTD SVG 1.1//EN" 
"http://www.w3.org/Graphics/SVG/1.1/DTD/svg11.dtd"> 
<svg xmlns="http://www.w3.org/2000/svg" version="1.1" font="Noto Sans Regular" font-size="12" width="1231" height="138" > 
<g>
<circle id="LGn0_0" cx="138" cy="84" r="33" fill="none" stroke="rgb(0,0,0)" stroke-width="1" stroke-linecap="square"  />
<text id="LGn0_1" x="131" y="86" fill="rgb(0,0,0)" >&lt;&gt;</text>
<rect id="LGn0_2" x="131" y="104" width="15" height="17" fill="rgb(255,255,255)" />
<text id="LGn0_3" x="132" y="121" fill="rgb(0,0,0)" >n0</text>
<circle id="LGn9_4" cx="318" cy="84" r="33" fill="none" stroke="rgb(0,0,0)" stroke-width="1" stroke-linecap="square"  />
<text id="LGn9_5" x="311" y="86" fill="rgb(0,0,0)" >&lt;&gt;</text>
<rect id="LGn9_6" x="311" y="104" width="15" height="17" fill="rgb(255,255,255)" />
<text id="LGn9_7" x="312" y="121" fill="rgb(0,0,0)" >n9</text>
<circle id="LGn1_8" cx="408" cy="84" r="33" fill="none" stroke="rgb(0,0,0)" stroke-width="1" stroke-linecap="square"  />
<text id="LGn1_9" x="401" y="86" fill="rgb(0,0,0)" >&lt;&gt;</text>
<rect id="LGn1_10" x="401" y="104" width="15" height="17" fill="rgb(255,255,255)" />
<text id="LGn1_11" x="402" y="121" fill="rgb(0,0,0)" >n1</text>
<circle id="LGn6_12" cx="48" cy="84" r="33" fill="none" stroke="rgb(0,0,0)" stroke-width="1" stroke-linecap="square"  />
<circle id="LGn6_13" cx="48" cy="84" r="35" fill="none" stroke="rgb(0,0,0)" stroke-width="1" stroke-linecap="square"  />
<text id="LGn6_14" x="41" y="86" fill="rgb(0,0,0)" >&lt;&gt;</text>
<rect id="LGn6_15" x="41" y="104" width="15" height="17" fill="rgb(255,255,255)" />
<text id="LGn6_16" x="42" y="121" fill="rgb(0,0,0)" >n6</text>
<circle id="LGn8_17" cx="228" cy="84" r="33" fill="none" stroke="rgb(0,0,0)" stroke-width="1" stroke-linecap="square"  />
<text id="LGn8_18" x="221" y="86" fill="rgb(0,0,0)" >&lt;&gt;</text>
<rect id="LGn8_19" x="221" y="104" width="15" height="17" fill="rgb(255,255,255)" />
<text id="LGn8_20" x="222" y="121" fill="rgb(0,0,0)" >n8</text>
<circle id="LGn7_21" cx="498" cy="84" r="33" fill="none" stroke="rgb(0,0,0)" stroke-width="1" stroke-linecap="square"  />
<text id="LGn7_22" x="491" y="86" fill="rgb(0,0,0)" >&lt;&gt;</text>
<rect id="LGn7_23" x="491" y="104" width="15" height="17" fill="rgb(255,255,255)" />
<text id="LGn7_24" x="492" y="121" fill="rgb(0,0,0)" >n7</text>
<line id="LGn0_1_n8_25" x1="176" y1="84" x2="190" y2="84" stroke="rgb(200,0,0)" stroke-width="1" stroke-linecap="butt" stroke-dasharray="5" />
<text id="LGn0_1_n8_26" x="180" y="104" fill="rgb(200,0,0)" >1</text>
<path id="LGn1_2_n1_27" d="M400 46 L 402 35 C 406 1, 365 13  , 386 40  L 394 48 " fill="none" stroke="rgb(0,0,200)" stroke-width="1" stroke-linecap="square"  />
<path id="LGn1_2_n1_28" d="M398 47 L 401 36 C 405 5, 368 16  , 388 40  L 396 47 " fill="none" stroke="rgb(0,0,200)" stroke-width="1" stroke-linecap="square"  />
<text id="LGn1_2_n1_29" x="382" y="9" fill="rgb(0,0,200)" >2</text>
<path id="LGn0_3_n0_30" d="M165 57 L 175 54 C 206 38, 172 9  , 162 42  L 159 53 " fill="none" stroke="rgb(0,200,0)" stroke-width="2" stroke-linecap="butt" stroke-dasharray="2"  />
<text id="LGn0_3_n0_31" x="188" y="27" fill="rgb(0,200,0)" >3</text>
<path id="LGn6_3_n6_32" d="M37 45 L 39 34 C 40 0, 0 14  , 23 40  L 31 47 " fill="none" stroke="rgb(0,200,0)" stroke-width="2" stroke-linecap="butt" stroke-dasharray="2"  />
<text id="LGn6_3_n6_33" x="16" y="9" fill="rgb(0,200,0)" >3</text>
<path id="LGn0_2_n0_34" d="M137 46 L 142 36 C 152 3, 109 7  , 125 37  L 131 46 " fill="none" stroke="rgb(0,0,200)" stroke-width="1" stroke-linecap="square"  />
<path id="LGn0_2_n0_35" d="M135 46 L 140 36 C 150 7, 111 10  , 127 37  L 133 46 " fill="none" stroke="rgb(0,0,200)" stroke-width="1" stroke-linecap="square"  />
<text id="LGn0_2_n0_36" x="127" y="7" fill="rgb(0,0,200)" >2</text>
<path id="LGn8_2_n8_37" d="M231 46 L 237 37 C 250 5, 207 4  , 220 36  L 225 46 " fill="none" stroke="rgb(0,0,200)" stroke-width="1" stroke-linecap="square"  />
<path id="LGn8_2_n8_38" d="M229 46 L 235 37 C 248 9, 209 8  , 222 36  L 227 46 " fill="none" stroke="rgb(0,0,200)" stroke-width="1" stroke-linecap="square"  />
<text id="LGn8_2_n8_39" x="225" y="7" fill="rgb(0,0,200)" >2</text>
<path id="LGn7_3_n7_40" d="M527 59 L 538 57 C 570 45, 540 13  , 526 44  L 523 55 " fill="none" stroke="rgb(0,200,0)" stroke-width="2" stroke-linecap="butt" stroke-dasharray="2"  />
<text id="LGn7_3_n7_41" x="554" y="32" fill="rgb(0,200,0)" >3</text>
<line id="LGn8_0_n9_42" x1="266" y1="84" x2="280" y2="84" stroke="rgb(0,0,0)" stroke-width="2" stroke-linecap="square" />
<text id="LGn8_0_n9_43" x="270" y="104" fill="rgb(0,0,0)" >0</text>
<path id="LGn8_3_n8_44" d="M244 49 L 252 42 C 276 17, 235 2  , 236 36  L 238 47 " fill="none" stroke="rgb(0,200,0)" stroke-width="2" stroke-linecap="butt" stroke-dasharray="2"  />
<text id="LGn8_3_n8_45" x="253" y="11" fill="rgb(0,200,0)" >3</text>
<path id="LGn7_2_n7_46" d="M500 46 L 505 36 C 517 4, 474 5  , 488 37  L 494 46 " fill="none" stroke="rgb(0,0,200)" stroke-width="1" stroke-linecap="square"  />
<path id="LGn7_2_n7_47" d="M498 46 L 503 36 C 516 8, 477 9  , 490 37  L 496 46 " fill="none" stroke="rgb(0,0,200)" stroke-width="1" stroke-linecap="square"  />
<text id="LGn7_2_n7_48" x="493" y="7" fill="rgb(0,0,200)" >2</text>
<line id="LGn9_1_n1_49" x1="356" y1="84" x2="370" y2="84" stroke="rgb(200,0,0)" stroke-width="1" stroke-linecap="butt" stroke-dasharray="5" />
<text id="LGn9_1_n1_50" x="360" y="104" fill="rgb(200,0,0)" >1</text>
<path id="LGn9_2_n9_51" d="M337 50 L 346 44 C 371 21, 332 2  , 331 37  L 331 48 " fill="none" stroke="rgb(0,0,200)" stroke-width="1" stroke-linecap="square"  />
<path id="LGn9_2_n9_52" d="M335 49 L 344 43 C 368 24, 333 7  , 332 37  L 333 49 " fill="none" stroke="rgb(0,0,200)" stroke-width="1" stroke-linecap="square"  />
<text id="LGn9_2_n9_53" x="350" y="14" fill="rgb(0,0,200)" >2</text>
<path id="LGn1_3_n1_54" d="M424 49 L 432 42 C 456 17, 415 1  , 417 36  L 418 47 " fill="none" stroke="rgb(0,200,0)" stroke-width="2" stroke-linecap="butt" stroke-dasharray="2"  />
<text id="LGn1_3_n1_55" x="433" y="11" fill="rgb(0,200,0)" >3</text>
<path id="LGn9_3_n9_56" d="M306 47 L 307 36 C 307 1, 267 18  , 291 43  L 300 49 " fill="none" stroke="rgb(0,200,0)" stroke-width="2" stroke-linecap="butt" stroke-dasharray="2"  />
<text id="LGn9_3_n9_57" x="283" y="12" fill="rgb(0,200,0)" >3</text>
<path id="LGn6_2_n6_58" d="M77 57 L 88 55 C 120 41, 88 10  , 75 42  L 73 53 " fill="none" stroke="rgb(0,0,200)" stroke-width="1" stroke-linecap="square"  />
<path id="LGn6_2_n6_59" d="M76 56 L 86 53 C 115 42, 87 14  , 76 43  L 74 54 " fill="none" stroke="rgb(0,0,200)" stroke-width="1" stroke-linecap="square"  />
<text id="LGn6_2_n6_60" x="103" y="28" fill="rgb(0,0,200)" >2</text>
<line id="LGn6_0_n0_61" x1="88" y1="84" x2="100" y2="84" stroke="rgb(0,0,0)" stroke-width="2" stroke-linecap="square" />
<text id="LGn6_0_n0_62" x="91" y="104" fill="rgb(0,0,0)" >0</text>
<line id="LGn1_0_n7_63" x1="446" y1="84" x2="460" y2="84" stroke="rgb(0,0,0)" stroke-width="2" stroke-linecap="square" />
<text id="LGn1_0_n7_64" x="450" y="104" fill="rgb(0,0,0)" >0</text>
</g>
<g>
<polygon id="0" points="580,78 611,78 611,72 630,84 611,97 611,90 580,90 " stroke="rgb(0,0,0)" stroke-width="1" stroke-linecap="square"  fill="rgb(0,0,0)" />
</g>
<g>
<circle id="RGn13_0" cx="1075" cy="84" r="33" fill="none" stroke="rgb(0,0,0)" stroke-width="1" stroke-linecap="square"  />
<text id="RGn13_1" x="1068" y="86" fill="rgb(0,0,0)" >&lt;&gt;</text>
<rect id="RGn13_2" x="1064" y="104" width="22" height="17" fill="rgb(255,255,255)" />
<text id="RGn13_3" x="1065" y="121" fill="rgb(0,0,0)" >n13</text>
<circle id="RGn10_4" cx="805" cy="84" r="33" fill="none" stroke="rgb(0,0,0)" stroke-width="1" stroke-linecap="square"  />
<text id="RGn10_5" x="798" y="86" fill="rgb(0,0,0)" >&lt;&gt;</text>
<rect id="RGn10_6" x="794" y="104" width="22" height="17" fill="rgb(255,255,255)" />
<text id="RGn10_7" x="795" y="121" fill="rgb(0,0,0)" >n10</text>
<circle id="RGn11_8" cx="895" cy="84" r="33" fill="none" stroke="rgb(0,0,0)" stroke-width="1" stroke-linecap="square"  />
<text id="RGn11_9" x="888" y="86" fill="rgb(0,0,0)" >&lt;&gt;</text>
<rect id="RGn11_10" x="884" y="104" width="22" height="17" fill="rgb(255,255,255)" />
<text id="RGn11_11" x="885" y="121" fill="rgb(0,0,0)" >n11</text>
<circle id="RGn6_12" cx="715" cy="84" r="33" fill="none" stroke="rgb(0,0,0)" stroke-width="1" stroke-linecap="square"  />
<text id="RGn6_13" x="708" y="86" fill="rgb(0,0,0)" >&lt;&gt;</text>
<rect id="RGn6_14" x="708" y="104" width="15" height="17" fill="rgb(255,255,255)" />
<text id="RGn6_15" x="709" y="121" fill="rgb(0,0,0)" >n6</text>
<circle id="RGn12_16" cx="985" cy="84" r="33" fill="none" stroke="rgb(0,0,0)" stroke-width="1" stroke-linecap="square"  />
<text id="RGn12_17" x="978" y="86" fill="rgb(0,0,0)" >&lt;&gt;</text>
<rect id="RGn12_18" x="974" y="104" width="22" height="17" fill="rgb(255,255,255)" />
<text id="RGn12_19" x="975" y="121" fill="rgb(0,0,0)" >n12</text>
<circle id="RGn7_20" cx="1165" cy="84" r="33" fill="none" stroke="rgb(0,0,0)" stroke-width="1" stroke-linecap="square"  />
<text id="RGn7_21" x="1158" y="86" fill="rgb(0,0,0)" >&lt;&gt;</text>
<rect id="RGn7_22" x="1158" y="104" width="15" height="17" fill="rgb(255,255,255)" />
<text id="RGn7_23" x="1159" y="121" fill="rgb(0,0,0)" >n7</text>
<path id="RGn12_2_n12_24" d="M992 46 L 999 38 C 1016 8, 973 2  , 982 35  L 986 46 " fill="none" stroke="rgb(0,0,200)" stroke-width="1" stroke-linecap="square"  />
<path id="RGn12_2_n12_25" d="M990 46 L 997 38 C 1014 12, 975 6  , 984 36  L 988 46 " fill="none" stroke="rgb(0,0,200)" stroke-width="1" stroke-linecap="square"  />
<text id="RGn12_2_n12_26" x="992" y="7" fill="rgb(0,0,200)" >2</text>
<path id="RGn10_2_n10_27" d="M816 46 L 823 39 C 843 10, 801 1  , 807 35  L 810 46 " fill="none" stroke="rgb(0,0,200)" stroke-width="1" stroke-linecap="square"  />
<path id="RGn10_2_n10_28" d="M814 46 L 822 38 C 840 14, 802 5  , 809 35  L 812 46 " fill="none" stroke="rgb(0,0,200)" stroke-width="1" stroke-linecap="square"  />
<text id="RGn10_2_n10_29" x="819" y="8" fill="rgb(0,0,200)" >2</text>
<path id="RGn7_3_n7_30" d="M1143 52 L 1140 41 C 1130 8, 1097 36  , 1127 53  L 1137 56 " fill="none" stroke="rgb(0,200,0)" stroke-width="2" stroke-linecap="butt" stroke-dasharray="2"  />
<text id="RGn7_3_n7_31" x="1109" y="25" fill="rgb(0,200,0)" >3</text>
<path id="RGn6_2_n6_32" d="M699 49 L 698 37 C 695 3, 657 25  , 684 46  L 693 51 " fill="none" stroke="rgb(0,0,200)" stroke-width="1" stroke-linecap="square"  />
<path id="RGn6_2_n6_33" d="M697 50 L 697 38 C 695 8, 660 27  , 685 45  L 695 50 " fill="none" stroke="rgb(0,0,200)" stroke-width="1" stroke-linecap="square"  />
<text id="RGn6_2_n6_34" x="671" y="16" fill="rgb(0,0,200)" >2</text>
<path id="RGn13_3_n13_35" d="M1063 47 L 1064 36 C 1063 1, 1024 18  , 1048 43  L 1057 49 " fill="none" stroke="rgb(0,200,0)" stroke-width="2" stroke-linecap="butt" stroke-dasharray="2"  />
<text id="RGn13_3_n13_36" x="1040" y="12" fill="rgb(0,200,0)" >3</text>
<path id="RGn13_2_n13_37" d="M1086 46 L 1093 39 C 1113 10, 1071 1  , 1077 35  L 1080 46 " fill="none" stroke="rgb(0,0,200)" stroke-width="1" stroke-linecap="square"  />
<path id="RGn13_2_n13_38" d="M1084 46 L 1091 38 C 1110 14, 1072 5  , 1079 35  L 1082 46 " fill="none" stroke="rgb(0,0,200)" stroke-width="1" stroke-linecap="square"  />
<text id="RGn13_2_n13_39" x="1089" y="8" fill="rgb(0,0,200)" >2</text>
<path id="RGn10_3_n10_40" d="M795 47 L 797 36 C 799 2, 758 16  , 781 42  L 789 49 " fill="none" stroke="rgb(0,200,0)" stroke-width="2" stroke-linecap="butt" stroke-dasharray="2"  />
<text id="RGn10_3_n10_41" x="775" y="11" fill="rgb(0,200,0)" >3</text>
<path id="RGn11_3_n11_42" d="M911 49 L 920 43 C 943 18, 904 1  , 904 36  L 905 47 " fill="none" stroke="rgb(0,200,0)" stroke-width="2" stroke-linecap="butt" stroke-dasharray="2"  />
<text id="RGn11_3_n11_43" x="921" y="12" fill="rgb(0,200,0)" >3</text>
<line id="RGn12_1_n13_44" x1="1023" y1="84" x2="1037" y2="84" stroke="rgb(200,0,0)" stroke-width="1" stroke-linecap="butt" stroke-dasharray="5" />
<text id="RGn12_1_n13_45" x="1027" y="104" fill="rgb(200,0,0)" >1</text>
<path id="RGn6_3_n6_46" d="M684 60 L 679 51 C 658 23, 635 60  , 669 65  L 680 66 " fill="none" stroke="rgb(0,200,0)" stroke-width="2" stroke-linecap="butt" stroke-dasharray="2"  />
<text id="RGn6_3_n6_47" x="641" y="45" fill="rgb(0,200,0)" >3</text>
<path id="RGn11_2_n11_48" d="M887 46 L 889 35 C 893 1, 852 13  , 873 40  L 881 48 " fill="none" stroke="rgb(0,0,200)" stroke-width="1" stroke-linecap="square"  />
<path id="RGn11_2_n11_49" d="M885 47 L 887 36 C 892 5, 855 17  , 875 40  L 883 47 " fill="none" stroke="rgb(0,0,200)" stroke-width="1" stroke-linecap="square"  />
<text id="RGn11_2_n11_50" x="869" y="9" fill="rgb(0,0,200)" >2</text>
<path id="RGn12_3_n12_51" d="M981 46 L 985 35 C 992 1, 950 9  , 968 38  L 975 46 " fill="none" stroke="rgb(0,200,0)" stroke-width="2" stroke-linecap="butt" stroke-dasharray="2"  />
<text id="RGn12_3_n12_52" x="968" y="7" fill="rgb(0,200,0)" >3</text>
<line id="RGn6_0_n10_53" x1="753" y1="84" x2="767" y2="84" stroke="rgb(0,0,0)" stroke-width="2" stroke-linecap="square" />
<text id="RGn6_0_n10_54" x="757" y="104" fill="rgb(0,0,0)" >0</text>
<line id="RGn11_0_n12_55" x1="933" y1="84" x2="947" y2="84" stroke="rgb(0,0,0)" stroke-width="2" stroke-linecap="square" />
<text id="RGn11_0_n12_56" x="937" y="104" fill="rgb(0,0,0)" >0</text>
<line id="RGn10_1_n11_57" x1="843" y1="84" x2="857" y2="84" stroke="rgb(200,0,0)" stroke-width="1" stroke-linecap="butt" stroke-dasharray="5" />
<text id="RGn10_1_n11_58" x="847" y="104" fill="rgb(200,0,0)" >1</text>
<path id="RGn7_2_n7_59" d="M1188 54 L 1198 49 C 1226 29, 1189 5  , 1183 39  L 1182 50 " fill="none" stroke="rgb(0,0,200)" stroke-width="1" stroke-linecap="square"  />
<path id="RGn7_2_n7_60" d="M1186 53 L 1196 48 C 1222 32, 1189 10  , 1185 40  L 1184 51 " fill="none" stroke="rgb(0,0,200)" stroke-width="1" stroke-linecap="square"  />
<text id="RGn7_2_n7_61" x="1206" y="20" fill="rgb(0,0,200)" >2</text>
<line id="RGn13_0_n7_62" x1="1113" y1="84" x2="1127" y2="84" stroke="rgb(0,0,0)" stroke-width="2" stroke-linecap="square" />
<text id="RGn13_0_n7_63" x="1117" y="104" fill="rgb(0,0,0)" >0</text>
</g>
</svg>
