<?xml version="1.0" encoding="UTF-8" standalone="no"?>
<svg
   version="1.1"
   font="Noto Sans Regular"
   font-size="12px"
   width="788.39862"
   height="98.808006"
   id="svg973"
   sodipodi:docname="rule-face-extrusion.svg"
   inkscape:version="1.2.2 (b0a8486541, 2022-12-01)"
   xmlns:inkscape="http://www.inkscape.org/namespaces/inkscape"
   xmlns:sodipodi="http://sodipodi.sourceforge.net/DTD/sodipodi-0.dtd"
   xmlns="http://www.w3.org/2000/svg"
   xmlns:svg="http://www.w3.org/2000/svg">
  <path
     id="RGn2_3_n2_48"
     d="m 411.00588,33.876532 10.94681,-2.273172 c 32.81555,-7.819204 6.92725,-43.185799 -11.34505,-13.721871 l -3.74986,10.096462"
     fill="none"
     stroke="#00c800"
     stroke-width="2"
     stroke-linecap="butt"
     stroke-dasharray="2" />
  <text
     id="RGn2_3_n2_49"
     x="437.26401"
     y="7.7578287"
     fill="#00c800"
     transform="rotate(0.1197142)">3</text>
  <defs
     id="defs977" />
  <sodipodi:namedview
     id="namedview975"
     pagecolor="#ffffff"
     bordercolor="#000000"
     borderopacity="0.25"
     inkscape:showpageshadow="2"
     inkscape:pageopacity="0.0"
     inkscape:pagecheckerboard="0"
     inkscape:deskcolor="#d1d1d1"
     showgrid="false"
     inkscape:zoom="1.5090909"
     inkscape:cx="369.75904"
     inkscape:cy="17.560241"
     inkscape:window-width="1908"
     inkscape:window-height="1048"
     inkscape:window-x="1085"
     inkscape:window-y="25"
     inkscape:window-maximized="1"
     inkscape:current-layer="svg973" />
  <circle
     id="LGn0_0"
     cx="35.5"
     cy="54.688"
     r="33"
     fill="none"
     stroke="#000000"
     stroke-width="1"
     stroke-linecap="square"
     style="fill:none;fill-opacity:0.8" />
  <circle
     id="LGn0_1"
     cx="35.5"
     cy="54.688"
     r="35"
     fill="none"
     stroke="#000000"
     stroke-width="1"
     stroke-linecap="square" />
  <text
     id="LGn0_2"
     x="18.609991"
     y="58.264"
     fill="#000000">&lt;0, 1&gt;</text>
  <rect
     id="LGn0_3"
     x="28.5"
     y="74.688004"
     width="15"
     height="17"
     fill="#ffffff" />
  <text
     id="LGn0_4"
     x="29.5"
     y="91.688004"
     fill="#000000">n0</text>
  <path
     id="LGn0_2_n0_5"
     d="M 68.035199,32.928765 78.81713,32.062767 c 33.7925,-8.835548 7.937468,-43.208754 -9.747122,-13.964011 L 64.31799,28.218951"
     fill="none"
     stroke="#0000c8"
     stroke-width="1"
     stroke-linecap="square" />
  <path
     id="LGn0_2_n0_6"
     d="M 66.79613,31.358827 77.578061,30.492829 C 108.23068,24.135423 84.853795,-7.0979105 70.309077,19.668694 L 65.55706,29.788888"
     fill="none"
     stroke="#0000c8"
     stroke-width="1"
     stroke-linecap="square" />
  <text
     id="LGn0_2_n0_7"
     x="94.774963"
     y="7.2275782"
     fill="#0000c8"
     transform="rotate(0.814461)">2</text>
  <polygon
     id="0"
     points="186,67 167,80 167,73 136,73 136,61 167,61 167,55 "
     stroke="#000000"
     stroke-width="1"
     stroke-linecap="square"
     fill="#000000"
     transform="translate(-25.500004,-12.311999)" />
  <circle
     id="RGn5_0"
     cx="708.5"
     cy="54.688"
     r="40"
     fill="none"
     stroke="#000000"
     stroke-width="1"
     stroke-linecap="square"
     style="fill:#00c000;fill-opacity:0.8" />
  <text
     id="RGn5_1"
     x="691.60999"
     y="39.688"
     fill="#000000">&lt;0, 1&gt;</text>
  <text
     id="RGn5_2"
     x="698.06598"
     y="56.688"
     fill="#c0c0c0">pos</text>
  <text
     id="RGn5_3"
     x="691.112"
     y="73.688004"
     fill="#c0c0c0">!color!</text>
  <rect
     id="RGn5_4"
     x="701.5"
     y="81.688004"
     width="15"
     height="17"
     fill="#ffffff" />
  <text
     id="RGn5_5"
     x="702.5"
     y="98.688004"
     fill="#000000">n6</text>
  <circle
     id="RGn2_6"
     cx="378.5"
     cy="54.688"
     r="34"
     fill="none"
     stroke="#000000"
     stroke-width="1"
     stroke-linecap="square"
     style="fill:#c004c0;fill-opacity:0.8" />
  <text
     id="RGn2_7"
     x="362.37799"
     y="48.688"
     fill="#000000">&lt;_, 2&gt;</text>
  <text
     id="RGn2_8"
     x="361.11203"
     y="65.688004"
     fill="#c0c0c0">!color!</text>
  <rect
     id="RGn2_9"
     x="371.5"
     y="75.688004"
     width="15"
     height="17"
     fill="#ffffff" />
  <text
     id="RGn2_10"
     x="372.5"
     y="92.688004"
     fill="#000000">n3</text>
  <circle
     id="RGn4_11"
     cx="588.5"
     cy="54.688"
     r="40"
     fill="none"
     stroke="#000000"
     stroke-width="1"
     stroke-linecap="square"
     style="fill:#7d5cff;fill-opacity:0.8" />
  <text
     id="RGn4_12"
     x="572.37799"
     y="39.688"
     fill="#000000">&lt;0, _&gt;</text>
  <text
     id="RGn4_13"
     x="578.06598"
     y="56.688"
     fill="#c0c0c0">pos</text>
  <text
     id="RGn4_14"
     x="571.112"
     y="73.688004"
     fill="#c0c0c0">!color!</text>
  <rect
     id="RGn4_15"
     x="581.5"
     y="81.688004"
     width="15"
     height="17"
     fill="#ffffff" />
  <text
     id="RGn4_16"
     x="582.5"
     y="98.688004"
     fill="#000000">n5</text>
  <circle
     id="RGn0_17"
     cx="198.5"
     cy="54.688"
     r="33"
     fill="none"
     stroke="#000000"
     stroke-width="1"
     stroke-linecap="square"
     style="fill:#ffc000;fill-opacity:0.8" />
  <text
     id="RGn0_18"
     x="181.60999"
     y="58.264"
     fill="#000000">&lt;0, 1&gt;</text>
  <rect
     id="RGn0_19"
     x="191.5"
     y="74.688004"
     width="15"
     height="17"
     fill="#ffffff" />
  <text
     id="RGn0_20"
     x="192.5"
     y="91.688004"
     fill="#000000">n1</text>
  <circle
     id="RGn1_21"
     cx="288.5"
     cy="54.688"
     r="34"
     fill="none"
     stroke="#000000"
     stroke-width="1"
     stroke-linecap="square"
     style="fill:#00c0ff;fill-opacity:0.8" />
  <text
     id="RGn1_22"
     x="272.37799"
     y="48.688"
     fill="#000000">&lt;0, _&gt;</text>
  <text
     id="RGn1_23"
     x="271.11203"
     y="65.688004"
     fill="#c0c0c0">!color!</text>
  <rect
     id="RGn1_24"
     x="281.5"
     y="75.688004"
     width="15"
     height="17"
     fill="#ffffff" />
  <text
     id="RGn1_25"
     x="282.5"
     y="92.688004"
     fill="#000000">n2</text>
  <circle
     id="RGn3_26"
     cx="468.5"
     cy="54.688"
     r="40"
     fill="none"
     stroke="#000000"
     stroke-width="1"
     stroke-linecap="square"
     style="fill:#c1272d;fill-opacity:0.8" />
  <text
     id="RGn3_27"
     x="452.37799"
     y="39.688"
     fill="#000000">&lt;_, 2&gt;</text>
  <text
     id="RGn3_28"
     x="458.06601"
     y="56.688"
     fill="#000000">pos</text>
  <text
     id="RGn3_29"
     x="451.11203"
     y="73.688004"
     fill="#c0c0c0">!color!</text>
  <rect
     id="RGn3_30"
     x="461.5"
     y="81.688004"
     width="15"
     height="17"
     fill="#ffffff" />
  <text
     id="RGn3_31"
     x="462.5"
     y="98.688004"
     fill="#000000">n4</text>
  <line
     id="RGn0_2_n1_32"
     x1="236.5"
     y1="54.688"
     x2="249.5"
     y2="54.688"
     stroke="#0000c8"
     stroke-width="1"
     stroke-linecap="square" />
  <text
     id="RGn0_2_n1_33"
     x="235.5"
     y="74.688004"
     fill="#0000c8">2</text>
  <path
     id="RGn5_3_n5_34"
     d="m 746.38207,31.848899 11.94499,-1.147665 c 33.55723,-6.237966 8.92358,-43.05078 -10.39332,-14.070492 l -4.11634,9.436938"
     fill="none"
     stroke="#00c800"
     stroke-width="2"
     stroke-linecap="butt"
     stroke-dasharray="2" />
  <text
     id="RGn5_3_n5_35"
     x="774.83087"
     y="9.3579302"
     fill="#00c800"
     transform="rotate(-0.0486867)">3</text>
  <path
     id="RGn1_3_n1_36"
     d="m 320.5,33.688001 11,-2 c 33,-9 6,-44 -11,-14 l -4,10"
     fill="none"
     stroke="#00c800"
     stroke-width="2"
     stroke-linecap="butt"
     stroke-dasharray="2" />
  <text
     id="RGn1_3_n1_37"
     x="346.5"
     y="8.6880007"
     fill="#00c800">3</text>
  <line
     id="RGn5_2_n4_38"
     x1="663.5"
     y1="54.688"
     x2="633.5"
     y2="54.688"
     stroke="#0000c8"
     stroke-width="1"
     stroke-linecap="square" />
  <text
     id="RGn5_2_n4_39"
     x="641.5"
     y="44.688"
     fill="#0000c8">2</text>
  <line
     id="RGn1_1_n2_40"
     x1="327.5"
     y1="54.688"
     x2="339.5"
     y2="54.688"
     stroke="#c80000"
     stroke-width="1"
     stroke-linecap="butt"
     stroke-dasharray="5" />
  <text
     id="RGn1_1_n2_41"
     x="326.5"
     y="74.688004"
     fill="#c80000">1</text>
  <line
     id="RGn4_1_n3_42"
     x1="543.5"
     y1="54.688"
     x2="513.5"
     y2="54.688"
     stroke="#c80000"
     stroke-width="1"
     stroke-linecap="butt"
     stroke-dasharray="5" />
  <text
     id="RGn4_1_n3_43"
     x="521.5"
     y="44.688"
     fill="#c80000">1</text>
  <line
     id="RGn2_0_n3_44"
     x1="417.5"
     y1="54.688"
     x2="423.5"
     y2="54.688"
     stroke="#000000"
     stroke-width="2"
     stroke-linecap="square" />
  <text
     id="RGn2_0_n3_45"
     x="413.5"
     y="74.688004"
     fill="#000000">0</text>
  <path
     id="RGn4_3_n4_46"
     d="m 627.23199,32.251247 10.97696,-2.12278 c 33.93084,-6.37951 8.53017,-42.097936 -10.1558,-13.887395 l -4.88795,10.055241"
     fill="none"
     stroke="#00c800"
     stroke-width="2"
     stroke-linecap="butt"
     stroke-dasharray="2" />
  <text
     id="RGn4_3_n4_47"
     x="654.83356"
     y="16.156488"
     fill="#00c800"
     transform="rotate(-0.64018422)">3</text>
  <path
     id="RGn3_3_n3_50"
     d="m 507.5,31.688001 11,-2 c 34,-6 9,-42 -10,-14 l -5,10"
     fill="none"
     stroke="#00c800"
     stroke-width="2"
     stroke-linecap="butt"
     stroke-dasharray="2" />
  <text
     id="RGn3_3_n3_51"
     x="535.5"
     y="8.6880007"
     fill="#00c800">3</text>
</svg>
