<?xml version="1.0" encoding="UTF-8" standalone="no"?>
<svg
   version="1.1"
   font="Noto Sans Regular"
   font-size="12px"
   width="802"
   height="340.66992"
   id="svg3"
   sodipodi:docname="rule-cas-particulier-fusion-1-depliee.svg"
   inkscape:version="1.3.2 (091e20ef0f, 2023-11-25, custom)"
   xmlns:inkscape="http://www.inkscape.org/namespaces/inkscape"
   xmlns:sodipodi="http://sodipodi.sourceforge.net/DTD/sodipodi-0.dtd"
   xmlns="http://www.w3.org/2000/svg"
   xmlns:svg="http://www.w3.org/2000/svg">
  <defs
     id="defs3" />
  <sodipodi:namedview
     id="namedview3"
     pagecolor="#ffffff"
     bordercolor="#000000"
     borderopacity="0.25"
     inkscape:showpageshadow="2"
     inkscape:pageopacity="0.0"
     inkscape:pagecheckerboard="0"
     inkscape:deskcolor="#d1d1d1"
     showgrid="false"
     inkscape:zoom="1.0957523"
     inkscape:cx="250.96913"
     inkscape:cy="174.76578"
     inkscape:window-width="1892"
     inkscape:window-height="1035"
     inkscape:window-x="9"
     inkscape:window-y="26"
     inkscape:window-maximized="1"
     inkscape:current-layer="svg3" />
  <g
     id="g5"
     transform="translate(0.5,0.5)">
    <g
       id="g3">
      <circle
         id="LGn2_0"
         cx="35"
         cy="213"
         r="33"
         fill="none"
         stroke="#000000"
         stroke-width="1"
         stroke-linecap="square" />
      <circle
         id="LGn2_1"
         cx="35"
         cy="213"
         r="35"
         fill="none"
         stroke="#000000"
         stroke-width="1"
         stroke-linecap="square" />
      <text
         id="LGn2_2"
         x="24.945312"
         y="216.76172"
         fill="#000000"></text>
      <rect
         id="LGn2_3"
         x="28"
         y="233"
         width="15"
         height="17"
         fill="#ffffff" />
      <text
         id="LGn2_4"
         x="29"
         y="250"
         fill="#000000">n2</text>
      <circle
         id="LGn4_5"
         cx="305"
         cy="303"
         r="33"
         fill="none"
         stroke="#000000"
         stroke-width="1"
         stroke-linecap="square" />
      <text
         id="LGn4_6"
         x="294.94531"
         y="306.76172"
         fill="#000000"></text>
      <rect
         id="LGn4_7"
         x="298"
         y="323"
         width="15"
         height="17"
         fill="#ffffff" />
      <text
         id="LGn4_8"
         x="299"
         y="340"
         fill="#000000">n4</text>
      <circle
         id="LGn1_9"
         cx="305"
         cy="63"
         r="33"
         fill="none"
         stroke="#000000"
         stroke-width="1"
         stroke-linecap="square" />
      <text
         id="LGn1_10"
         x="294.94531"
         y="66.761719"
         fill="#000000"></text>
      <rect
         id="LGn1_11"
         x="298"
         y="83"
         width="15"
         height="17"
         fill="#ffffff" />
      <text
         id="LGn1_12"
         x="299"
         y="100"
         fill="#000000">n1</text>
      <circle
         id="LGn0_13"
         cx="65"
         cy="63"
         r="33"
         fill="none"
         stroke="#000000"
         stroke-width="1"
         stroke-linecap="square" />
      <circle
         id="LGn0_14"
         cx="65"
         cy="63"
         r="35"
         fill="none"
         stroke="#000000"
         stroke-width="1"
         stroke-linecap="square" />
      <text
         id="LGn0_15"
         x="54.945312"
         y="66.761719"
         fill="#000000"></text>
      <rect
         id="LGn0_16"
         x="58"
         y="83"
         width="15"
         height="17"
         fill="#ffffff" />
      <text
         id="LGn0_17"
         x="59"
         y="100"
         fill="#000000">n0</text>
      <circle
         id="LGn5_18"
         cx="335"
         cy="213"
         r="33"
         fill="none"
         stroke="#000000"
         stroke-width="1"
         stroke-linecap="square" />
      <circle
         id="LGn5_19"
         cx="335"
         cy="213"
         r="35"
         fill="none"
         stroke="#000000"
         stroke-width="1"
         stroke-linecap="square" />
      <text
         id="LGn5_20"
         x="324.94531"
         y="216.76172"
         fill="#000000"></text>
      <rect
         id="LGn5_21"
         x="328"
         y="233"
         width="15"
         height="17"
         fill="#ffffff" />
      <text
         id="LGn5_22"
         x="329"
         y="250"
         fill="#000000">n5</text>
      <circle
         id="LGn3_23"
         cx="65"
         cy="303"
         r="33"
         fill="none"
         stroke="#000000"
         stroke-width="1"
         stroke-linecap="square" />
      <circle
         id="LGn3_24"
         cx="65"
         cy="303"
         r="35"
         fill="none"
         stroke="#000000"
         stroke-width="1"
         stroke-linecap="square" />
      <text
         id="LGn3_25"
         x="54.945312"
         y="306.76172"
         fill="#000000"></text>
      <rect
         id="LGn3_26"
         x="58"
         y="323"
         width="15"
         height="17"
         fill="#ffffff" />
      <text
         id="LGn3_27"
         x="59"
         y="340"
         fill="#000000">n3</text>
      <path
         id="LGn1_3_n1_28"
         d="m 267,71 -11,-2 c -34,-3 -21,38 6,16 l 7,-8"
         fill="none"
         stroke="#00c800"
         stroke-width="2"
         stroke-linecap="butt"
         stroke-dasharray="2"
         style="stroke-width:1;stroke-dasharray:none" />
      <text
         id="LGn1_3_n1_29"
         x="223"
         y="92"
         fill="#00c800">3</text>
      <path
         id="LGn5_2_n5_31"
         d="m 295,203 -8,-8 c -24,-19 -33,19 -3,13 l 11,-3"
         fill="none"
         stroke="#0000c8"
         stroke-width="1"
         stroke-linecap="square" />
      <text
         id="LGn5_2_n5_32"
         x="249"
         y="199"
         fill="#0000c8">2</text>
      <line
         id="LGn3_0_n4_33"
         x1="105"
         y1="303"
         x2="267"
         y2="303"
         stroke="#000000"
         stroke-width="2"
         stroke-linecap="square" />
      <text
         id="LGn3_0_n4_34"
         x="183"
         y="323"
         fill="#000000">0</text>
      <path
         id="LGn1_2_n1_36"
         d="m 274,85 -11,1 c -30,7 -5,39 9,11 l 4,-10"
         fill="none"
         stroke="#0000c8"
         stroke-width="1"
         stroke-linecap="square" />
      <text
         id="LGn1_2_n1_37"
         x="237"
         y="118"
         fill="#0000c8">2</text>
      <line
         id="LGn0_0_n1_38"
         x1="105"
         y1="63"
         x2="267"
         y2="63"
         stroke="#000000"
         stroke-width="2"
         stroke-linecap="square" />
      <text
         id="LGn0_0_n1_39"
         x="183"
         y="83"
         fill="#000000">0</text>
      <path
         id="LGn2_1_n2_40"
         d="m 75,216 9,6 c 32,13 33,-30 1,-17 l -10,5"
         fill="none"
         stroke="#c80000"
         stroke-width="1"
         stroke-linecap="butt"
         stroke-dasharray="5"
         style="stroke-dasharray:none" />
      <text
         id="LGn2_1_n2_41"
         x="116"
         y="218"
         fill="#c80000">1</text>
      <path
         id="LGn5_1_n5_42"
         d="m 295,214 -11,-4 c -33,-9 -28,33 3,17 l 8,-7"
         fill="none"
         stroke="#c80000"
         stroke-width="1"
         stroke-linecap="butt"
         stroke-dasharray="5"
         style="stroke-dasharray:none" />
      <text
         id="LGn5_1_n5_43"
         x="248"
         y="227"
         fill="#c80000">1</text>
      <path
         id="LGn2_2_n2_45"
         d="m 73,202 11,2 c 31,5 19,-32 -4,-12 l -7,8"
         fill="none"
         stroke="#0000c8"
         stroke-width="1"
         stroke-linecap="square" />
      <text
         id="LGn2_2_n2_46"
         x="113"
         y="194"
         fill="#0000c8">2</text>
      <path
         id="LGn4_1_n4_47"
         d="m 288,268 -1,-11 c -4,-34 -42,-12 -14,9 l 9,6"
         fill="none"
         stroke="#c80000"
         stroke-width="1"
         stroke-linecap="butt"
         stroke-dasharray="5"
         style="stroke-dasharray:none" />
      <text
         id="LGn4_1_n4_48"
         x="260"
         y="237"
         fill="#c80000">1</text>
      <path
         id="LGn0_2_n0_50"
         d="m 95,88 4,10 c 15,27 39,-4 9,-11 L 97,86"
         fill="none"
         stroke="#0000c8"
         stroke-width="1"
         stroke-linecap="square" />
      <text
         id="LGn0_2_n0_51"
         x="128"
         y="119"
         fill="#0000c8">2</text>
      <path
         id="LGn3_3_n3_52"
         d="m 103,293 11,2 c 34,2 20,-39 -6,-16 l -7,8"
         fill="none"
         stroke="#00c800"
         stroke-width="2"
         stroke-linecap="butt"
         stroke-dasharray="2"
         style="stroke-width:1;stroke-dasharray:none" />
      <text
         id="LGn3_3_n3_53"
         x="141"
         y="281"
         fill="#00c800">3</text>
      <path
         id="LGn3_1_n3_54"
         d="m 88,270 9,-5 C 125,244 87,221 83,255 l -1,11"
         fill="none"
         stroke="#c80000"
         stroke-width="1"
         stroke-linecap="butt"
         stroke-dasharray="5"
         style="stroke-dasharray:none" />
      <text
         id="LGn3_1_n3_55"
         x="105"
         y="235"
         fill="#c80000">1</text>
      <path
         id="LGn4_3_n4_56"
         d="m 270,286 -7,-8 c -25,-24 -41,17 -6,16 l 11,-2"
         fill="none"
         stroke="#00c800"
         stroke-width="2"
         stroke-linecap="butt"
         stroke-dasharray="2"
         style="stroke-width:1;stroke-dasharray:none" />
      <text
         id="LGn4_3_n4_57"
         x="224"
         y="279"
         fill="#00c800">3</text>
      <path
         id="LGn4_2_n4_59"
         d="m 278,276 -3,-10 c -12,-29 -39,0 -10,10 l 11,2"
         fill="none"
         stroke="#0000c8"
         stroke-width="1"
         stroke-linecap="square" />
      <text
         id="LGn4_2_n4_60"
         x="241"
         y="252"
         fill="#0000c8">2</text>
      <path
         id="LGn5_3_n5_61"
         d="m 304,186 -4,-10 c -18,-29 -44,6 -11,14 l 11,2"
         fill="none"
         stroke="#00c800"
         stroke-width="2"
         stroke-linecap="butt"
         stroke-dasharray="2"
         style="stroke-width:1;stroke-dasharray:none" />
      <text
         id="LGn5_3_n5_62"
         x="263"
         y="168"
         fill="#00c800">3</text>
      <path
         id="LGn3_2_n3_64"
         d="m 96,277 11,-2 c 29,-8 3,-38 -9,-10 l -4,10"
         fill="none"
         stroke="#0000c8"
         stroke-width="1"
         stroke-linecap="square" />
      <text
         id="LGn3_2_n3_65"
         x="126"
         y="252"
         fill="#0000c8">2</text>
      <path
         id="LGn0_3_n0_66"
         d="m 102,77 8,8 c 27,22 39,-20 5,-16 l -11,2"
         fill="none"
         stroke="#00c800"
         stroke-width="2"
         stroke-linecap="butt"
         stroke-dasharray="2"
         style="stroke-width:1;stroke-dasharray:none" />
      <text
         id="LGn0_3_n0_67"
         x="143"
         y="91"
         fill="#00c800">3</text>
      <path
         id="LGn2_3_n2_68"
         d="m 68,191 11,-3 c 33,-8 6,-43 -11,-13 l -4,10"
         fill="none"
         stroke="#00c800"
         stroke-width="2"
         stroke-linecap="butt"
         stroke-dasharray="2"
         style="stroke-width:1;stroke-dasharray:none" />
      <text
         id="LGn2_3_n2_69"
         x="98"
         y="166"
         fill="#00c800">3</text>
    </g>
  </g>
  <polygon
     id="0"
     points="411,219 380,219 380,207 411,207 411,201 430,213 411,226 "
     stroke="#000000"
     stroke-width="1"
     stroke-linecap="square"
     fill="#000000"
     transform="translate(0.5,-43.185428)" />
  <g
     id="g4"
     transform="translate(0.5,0.5)">
    <circle
       id="RGn4_0"
       cx="738"
       cy="303"
       r="33"
       fill="none"
       stroke="#000000"
       stroke-width="1"
       stroke-linecap="square" />
    <text
       id="RGn4_1"
       x="727.94531"
       y="306.76172"
       fill="#000000"></text>
    <rect
       id="RGn4_2"
       x="731"
       y="323"
       width="15"
       height="17"
       fill="#ffffff" />
    <text
       id="RGn4_3"
       x="732"
       y="340"
       fill="#000000">n4</text>
    <circle
       id="RGn5_4"
       cx="768"
       cy="213"
       r="33"
       fill="none"
       stroke="#000000"
       stroke-width="1"
       stroke-linecap="square" />
    <text
       id="RGn5_5"
       x="757.94531"
       y="216.76172"
       fill="#000000"></text>
    <rect
       id="RGn5_6"
       x="761"
       y="233"
       width="15"
       height="17"
       fill="#ffffff" />
    <text
       id="RGn5_7"
       x="762"
       y="250"
       fill="#000000">n5</text>
    <circle
       id="RGn3_8"
       cx="498"
       cy="303"
       r="33"
       fill="none"
       stroke="#000000"
       stroke-width="1"
       stroke-linecap="square" />
    <text
       id="RGn3_9"
       x="487.94531"
       y="306.76172"
       fill="#000000"></text>
    <rect
       id="RGn3_10"
       x="491"
       y="323"
       width="15"
       height="17"
       fill="#ffffff" />
    <text
       id="RGn3_11"
       x="492"
       y="340"
       fill="#000000">n3</text>
    <circle
       id="RGn2_12"
       cx="468"
       cy="213"
       r="33"
       fill="none"
       stroke="#000000"
       stroke-width="1"
       stroke-linecap="square" />
    <text
       id="RGn2_13"
       x="457.94531"
       y="216.76172"
       fill="#000000"></text>
    <rect
       id="RGn2_14"
       x="461"
       y="233"
       width="15"
       height="17"
       fill="#ffffff" />
    <text
       id="RGn2_15"
       x="462"
       y="250"
       fill="#000000">n2</text>
    <circle
       id="RGn1_16"
       cx="738"
       cy="33"
       r="33"
       fill="none"
       stroke="#000000"
       stroke-width="1"
       stroke-linecap="square" />
    <text
       id="RGn1_17"
       x="727.94531"
       y="36.761719"
       fill="#000000"></text>
    <rect
       id="RGn1_18"
       x="731"
       y="53"
       width="15"
       height="17"
       fill="#ffffff" />
    <text
       id="RGn1_19"
       x="732"
       y="70"
       fill="#000000">n1</text>
    <circle
       id="RGn0_20"
       cx="498"
       cy="33"
       r="33"
       fill="none"
       stroke="#000000"
       stroke-width="1"
       stroke-linecap="square" />
    <text
       id="RGn0_21"
       x="487.94531"
       y="36.761719"
       fill="#000000"></text>
    <rect
       id="RGn0_22"
       x="491"
       y="53"
       width="15"
       height="17"
       fill="#ffffff" />
    <text
       id="RGn0_23"
       x="492"
       y="70"
       fill="#000000">n0</text>
    <path
       id="RGn2_3_n2_24"
       d="m 500,193 11,-2 c 33,-8 7,-43 -11,-14 l -4,10"
       fill="none"
       stroke="#00c800"
       stroke-width="2"
       stroke-linecap="butt"
       stroke-dasharray="2"
       style="stroke-width:1;stroke-dasharray:none" />
    <text
       id="RGn2_3_n2_25"
       x="530"
       y="168"
       fill="#00c800">3</text>
    <path
       id="RGn3_3_n3_26"
       d="m 535,296 11,3 c 34,4 22,-38 -5,-17 l -8,8"
       fill="none"
       stroke="#00c800"
       stroke-width="2"
       stroke-linecap="butt"
       stroke-dasharray="2"
       style="stroke-width:1;stroke-dasharray:none" />
    <text
       id="RGn3_3_n3_27"
       x="574"
       y="287"
       fill="#00c800">3</text>
    <path
       id="RGn4_2_n4_29"
       d="m 708,279 -4,-10 c -15,-27 -39,5 -9,11 l 11,1"
       fill="none"
       stroke="#0000c8"
       stroke-width="1"
       stroke-linecap="square" />
    <text
       id="RGn4_2_n4_30"
       x="669"
       y="258"
       fill="#0000c8">2</text>
    <path
       id="RGn0_3_n0_31"
       d="m 533,47 7,8 c 27,22 40,-19 6,-16 l -11,2"
       fill="none"
       stroke="#00c800"
       stroke-width="2"
       stroke-linecap="butt"
       stroke-dasharray="2"
       style="stroke-width:1;stroke-dasharray:none" />
    <text
       id="RGn0_3_n0_32"
       x="574"
       y="62"
       fill="#00c800">3</text>
    <line
       id="RGn3_0_n4_33"
       x1="536"
       y1="303"
       x2="700"
       y2="303"
       stroke="#000000"
       stroke-width="2"
       stroke-linecap="square" />
    <text
       id="RGn3_0_n4_34"
       x="615"
       y="323"
       fill="#000000">0</text>
    <line
       id="RGn0_0_n1_35"
       x1="536"
       y1="33"
       x2="700"
       y2="33"
       stroke="#000000"
       stroke-width="2"
       stroke-linecap="square" />
    <text
       id="RGn0_0_n1_36"
       x="615"
       y="53"
       fill="#000000">0</text>
    <path
       id="RGn4_3_n4_37"
       d="m 702,289 -8,-8 c -27,-21 -39,20 -5,16 l 11,-2"
       fill="none"
       stroke="#00c800"
       stroke-width="2"
       stroke-linecap="butt"
       stroke-dasharray="2"
       style="stroke-width:1;stroke-dasharray:none" />
    <text
       id="RGn4_3_n4_38"
       x="655"
       y="285"
       fill="#00c800">3</text>
    <path
       id="RGn5_2_n5_40"
       d="m 732,197 -6,-9 c -21,-23 -36,13 -5,12 l 11,-1"
       fill="none"
       stroke="#0000c8"
       stroke-width="1"
       stroke-linecap="square" />
    <text
       id="RGn5_2_n5_41"
       x="688"
       y="186"
       fill="#0000c8">2</text>
    <line
       id="RGn2_1_n3_42"
       x1="480"
       y1="249"
       x2="485"
       y2="266"
       stroke="#c80000"
       stroke-width="1"
       stroke-linecap="butt"
       stroke-dasharray="5"
       style="stroke-dasharray:none" />
    <text
       id="RGn2_1_n3_43"
       x="464"
       y="262"
       fill="#c80000">1</text>
    <path
       id="RGn1_3_n1_44"
       d="m 701,43 -11,-1 c -35,-1 -19,39 6,15 l 7,-8"
       fill="none"
       stroke="#00c800"
       stroke-width="2"
       stroke-linecap="butt"
       stroke-dasharray="2"
       style="stroke-width:1;stroke-dasharray:none" />
    <text
       id="RGn1_3_n1_45"
       x="657"
       y="66"
       fill="#00c800">3</text>
    <path
       id="RGn5_3_n5_46"
       d="m 741,185 -3,-11 c -15,-31 -45,2 -12,13 l 11,2"
       fill="none"
       stroke="#00c800"
       stroke-width="2"
       stroke-linecap="butt"
       stroke-dasharray="2"
       style="stroke-width:1;stroke-dasharray:none" />
    <text
       id="RGn5_3_n5_47"
       x="703"
       y="163"
       fill="#00c800">3</text>
    <path
       id="RGn1_2_n1_49"
       d="m 708,57 -11,2 c -29,9 -2,39 10,10 l 3,-10"
       fill="none"
       stroke="#0000c8"
       stroke-width="1"
       stroke-linecap="square" />
    <text
       id="RGn1_2_n1_50"
       x="673"
       y="93"
       fill="#0000c8">2</text>
    <line
       id="RGn5_1_n4_51"
       x1="755"
       y1="249"
       x2="750"
       y2="266"
       stroke="#c80000"
       stroke-width="1"
       stroke-linecap="butt"
       stroke-dasharray="5"
       style="stroke-dasharray:none" />
    <text
       id="RGn5_1_n4_52"
       x="734"
       y="262"
       fill="#c80000">1</text>
    <path
       id="RGn0_2_n0_54"
       d="m 523,60 3,11 c 10,28 39,0 10,-10 l -11,-3"
       fill="none"
       stroke="#0000c8"
       stroke-width="1"
       stroke-linecap="square" />
    <text
       id="RGn0_2_n0_55"
       x="552"
       y="95"
       fill="#0000c8">2</text>
    <path
       id="RGn2_2_n2_57"
       d="m 504,202 11,2 c 31,3 18,-33 -4,-12 l -7,8"
       fill="none"
       stroke="#0000c8"
       stroke-width="1"
       stroke-linecap="square" />
    <text
       id="RGn2_2_n2_58"
       x="543"
       y="192"
       fill="#0000c8">2</text>
    <path
       id="RGn3_2_n3_60"
       d="m 528,279 11,-2 c 29,-8 4,-38 -9,-10 l -4,10"
       fill="none"
       stroke="#0000c8"
       stroke-width="1"
       stroke-linecap="square" />
    <text
       id="RGn3_2_n3_61"
       x="558"
       y="255"
       fill="#0000c8">2</text>
  </g>
</svg>
