<?xml version="1.0" standalone="no"?> 
<!DOCTYPE svg PUBLIC "-//W3C//DTD SVG 1.1//EN" 
"http://www.w3.org/Graphics/SVG/1.1/DTD/svg11.dtd"> 
<svg xmlns="http://www.w3.org/2000/svg" version="1.1" font="Noto Sans Regular" font-size="12" width="892" height="138" > 
<g>
<circle id="LGn1_0" cx="185" cy="84" r="33" fill="none" stroke="rgb(0,0,0)" stroke-width="1" stroke-linecap="square"  />
<circle id="LGn1_1" cx="185" cy="84" r="35" fill="none" stroke="rgb(0,0,0)" stroke-width="1" stroke-linecap="square"  />
<text id="LGn1_2" x="174" y="86" fill="rgb(0,0,0)" >&lt;0&gt;</text>
<rect id="LGn1_3" x="178" y="104" width="15" height="17" fill="rgb(255,255,255)" />
<text id="LGn1_4" x="179" y="121" fill="rgb(0,0,0)" >n1</text>
<circle id="LGn0_5" cx="35" cy="84" r="33" fill="none" stroke="rgb(0,0,0)" stroke-width="1" stroke-linecap="square"  />
<circle id="LGn0_6" cx="35" cy="84" r="35" fill="none" stroke="rgb(0,0,0)" stroke-width="1" stroke-linecap="square"  />
<text id="LGn0_7" x="24" y="86" fill="rgb(0,0,0)" >&lt;0&gt;</text>
<rect id="LGn0_8" x="28" y="104" width="15" height="17" fill="rgb(255,255,255)" />
<text id="LGn0_9" x="29" y="121" fill="rgb(0,0,0)" >n0</text>
<path id="LGn0_2_n0_10" d="M51 47 L 59 40 C 82 14, 42 0  , 43 34  L 45 45 " fill="none" stroke="rgb(0,0,200)" stroke-width="1" stroke-linecap="square"  />
<path id="LGn0_2_n0_11" d="M49 46 L 57 39 C 79 17, 42 4  , 45 35  L 47 46 " fill="none" stroke="rgb(0,0,200)" stroke-width="1" stroke-linecap="square"  />
<text id="LGn0_2_n0_12" x="60" y="9" fill="rgb(0,0,200)" >2</text>
<path id="LGn1_2_n1_13" d="M214 56 L 225 53 C 256 39, 224 9  , 212 41  L 210 52 " fill="none" stroke="rgb(0,0,200)" stroke-width="1" stroke-linecap="square"  />
<path id="LGn1_2_n1_14" d="M213 55 L 223 52 C 252 40, 223 13  , 213 42  L 211 53 " fill="none" stroke="rgb(0,0,200)" stroke-width="1" stroke-linecap="square"  />
<text id="LGn1_2_n1_15" x="239" y="27" fill="rgb(0,0,200)" >2</text>
<path id="LGn1_3_n1_16" d="M191 44 L 197 35 C 213 5, 170 1  , 180 34  L 185 44 " fill="none" stroke="rgb(0,200,0)" stroke-width="2" stroke-linecap="butt" stroke-dasharray="2"  />
<text id="LGn1_3_n1_17" x="188" y="5" fill="rgb(0,200,0)" >3</text>
<path id="LGn0_3_n0_18" d="M65 58 L 76 56 C 108 43, 77 11  , 63 43  L 61 54 " fill="none" stroke="rgb(0,200,0)" stroke-width="2" stroke-linecap="butt" stroke-dasharray="2"  />
<text id="LGn0_3_n0_19" x="92" y="30" fill="rgb(0,200,0)" >3</text>
</g>
<g>
<polygon id="0" points="266,78 297,78 297,72 316,84 297,97 297,90 266,90 " stroke="rgb(0,0,0)" stroke-width="1" stroke-linecap="square"  fill="rgb(0,0,0)" />
</g>
<g>
<circle id="RGn1_0" cx="816" cy="84" r="33" fill="none" stroke="rgb(0,0,0)" stroke-width="1" stroke-linecap="square"  />
<text id="RGn1_1" x="806" y="86" fill="rgb(0,0,0)" >&lt;_&gt;</text>
<rect id="RGn1_2" x="809" y="104" width="15" height="17" fill="rgb(255,255,255)" />
<text id="RGn1_3" x="810" y="121" fill="rgb(0,0,0)" >n1</text>
<circle id="RGn4_4" cx="636" cy="84" r="33" fill="none" stroke="rgb(0,0,0)" stroke-width="1" stroke-linecap="square"  />
<text id="RGn4_5" x="626" y="86" fill="rgb(0,0,0)" >&lt;_&gt;</text>
<rect id="RGn4_6" x="629" y="104" width="15" height="17" fill="rgb(255,255,255)" />
<text id="RGn4_7" x="630" y="121" fill="rgb(0,0,0)" >n4</text>
<circle id="RGn3_8" cx="546" cy="84" r="33" fill="none" stroke="rgb(0,0,0)" stroke-width="1" stroke-linecap="square"  />
<text id="RGn3_9" x="536" y="86" fill="rgb(0,0,0)" >&lt;_&gt;</text>
<rect id="RGn3_10" x="539" y="104" width="15" height="17" fill="rgb(255,255,255)" />
<text id="RGn3_11" x="540" y="121" fill="rgb(0,0,0)" >n3</text>
<circle id="RGn0_12" cx="366" cy="84" r="33" fill="none" stroke="rgb(0,0,0)" stroke-width="1" stroke-linecap="square"  />
<text id="RGn0_13" x="356" y="86" fill="rgb(0,0,0)" >&lt;_&gt;</text>
<rect id="RGn0_14" x="359" y="104" width="15" height="17" fill="rgb(255,255,255)" />
<text id="RGn0_15" x="360" y="121" fill="rgb(0,0,0)" >n0</text>
<circle id="RGn2_16" cx="456" cy="84" r="33" fill="none" stroke="rgb(0,0,0)" stroke-width="1" stroke-linecap="square"  />
<text id="RGn2_17" x="446" y="86" fill="rgb(0,0,0)" >&lt;_&gt;</text>
<rect id="RGn2_18" x="449" y="104" width="15" height="17" fill="rgb(255,255,255)" />
<text id="RGn2_19" x="450" y="121" fill="rgb(0,0,0)" >n2</text>
<circle id="RGn5_20" cx="726" cy="84" r="33" fill="none" stroke="rgb(0,0,0)" stroke-width="1" stroke-linecap="square"  />
<text id="RGn5_21" x="716" y="86" fill="rgb(0,0,0)" >&lt;_&gt;</text>
<rect id="RGn5_22" x="719" y="104" width="15" height="17" fill="rgb(255,255,255)" />
<text id="RGn5_23" x="720" y="121" fill="rgb(0,0,0)" >n5</text>
<path id="RGn3_2_n3_24" d="M537 46 L 539 35 C 542 1, 501 14  , 523 41  L 531 48 " fill="none" stroke="rgb(0,0,200)" stroke-width="1" stroke-linecap="square"  />
<path id="RGn3_2_n3_25" d="M535 47 L 537 36 C 541 5, 504 17  , 525 40  L 533 47 " fill="none" stroke="rgb(0,0,200)" stroke-width="1" stroke-linecap="square"  />
<text id="RGn3_2_n3_26" x="518" y="10" fill="rgb(0,0,200)" >2</text>
<line id="RGn0_0_n2_27" x1="404" y1="84" x2="418" y2="84" stroke="rgb(0,0,0)" stroke-width="2" stroke-linecap="square" />
<text id="RGn0_0_n2_28" x="408" y="104" fill="rgb(0,0,0)" >0</text>
<path id="RGn4_3_n4_29" d="M616 51 L 614 40 C 606 7, 571 33  , 600 51  L 610 55 " fill="none" stroke="rgb(0,200,0)" stroke-width="2" stroke-linecap="butt" stroke-dasharray="2"  />
<text id="RGn4_3_n4_30" x="583" y="23" fill="rgb(0,200,0)" >3</text>
<line id="RGn3_0_n4_31" x1="584" y1="84" x2="598" y2="84" stroke="rgb(0,0,0)" stroke-width="2" stroke-linecap="square" />
<text id="RGn3_0_n4_32" x="588" y="104" fill="rgb(0,0,0)" >0</text>
<path id="RGn1_2_n1_33" d="M822 46 L 828 37 C 844 7, 801 3  , 811 36  L 816 46 " fill="none" stroke="rgb(0,0,200)" stroke-width="1" stroke-linecap="square"  />
<path id="RGn1_2_n1_34" d="M820 46 L 826 37 C 842 10, 803 7  , 813 36  L 818 46 " fill="none" stroke="rgb(0,0,200)" stroke-width="1" stroke-linecap="square"  />
<text id="RGn1_2_n1_35" x="819" y="7" fill="rgb(0,0,200)" >2</text>
<path id="RGn2_2_n2_36" d="M447 46 L 449 35 C 451 1, 410 15  , 433 41  L 441 48 " fill="none" stroke="rgb(0,0,200)" stroke-width="1" stroke-linecap="square"  />
<path id="RGn2_2_n2_37" d="M445 47 L 447 36 C 450 5, 413 18  , 435 40  L 443 47 " fill="none" stroke="rgb(0,0,200)" stroke-width="1" stroke-linecap="square"  />
<text id="RGn2_2_n2_38" x="427" y="10" fill="rgb(0,0,200)" >2</text>
<line id="RGn2_1_n3_39" x1="494" y1="84" x2="508" y2="84" stroke="rgb(200,0,0)" stroke-width="1" stroke-linecap="butt" stroke-dasharray="5" />
<text id="RGn2_1_n3_40" x="498" y="104" fill="rgb(200,0,0)" >1</text>
<path id="RGn1_3_n1_41" d="M844 59 L 855 57 C 887 43, 856 12  , 842 44  L 840 55 " fill="none" stroke="rgb(0,200,0)" stroke-width="2" stroke-linecap="butt" stroke-dasharray="2"  />
<text id="RGn1_3_n1_42" x="870" y="31" fill="rgb(0,200,0)" >3</text>
<line id="RGn5_0_n1_43" x1="764" y1="84" x2="778" y2="84" stroke="rgb(0,0,0)" stroke-width="2" stroke-linecap="square" />
<text id="RGn5_0_n1_44" x="768" y="104" fill="rgb(0,0,0)" >0</text>
<path id="RGn0_2_n0_45" d="M357 46 L 359 35 C 362 1, 321 14  , 343 41  L 351 48 " fill="none" stroke="rgb(0,0,200)" stroke-width="1" stroke-linecap="square"  />
<path id="RGn0_2_n0_46" d="M355 47 L 357 36 C 361 5, 324 17  , 345 40  L 353 47 " fill="none" stroke="rgb(0,0,200)" stroke-width="1" stroke-linecap="square"  />
<text id="RGn0_2_n0_47" x="338" y="10" fill="rgb(0,0,200)" >2</text>
<path id="RGn4_2_n4_48" d="M645 46 L 652 38 C 670 9, 628 1  , 635 35  L 639 46 " fill="none" stroke="rgb(0,0,200)" stroke-width="1" stroke-linecap="square"  />
<path id="RGn4_2_n4_49" d="M643 46 L 650 38 C 668 13, 629 6  , 637 35  L 641 46 " fill="none" stroke="rgb(0,0,200)" stroke-width="1" stroke-linecap="square"  />
<text id="RGn4_2_n4_50" x="646" y="7" fill="rgb(0,0,200)" >2</text>
<path id="RGn2_3_n2_51" d="M482 56 L 492 52 C 522 35, 487 8  , 479 41  L 476 52 " fill="none" stroke="rgb(0,200,0)" stroke-width="2" stroke-linecap="butt" stroke-dasharray="2"  />
<text id="RGn2_3_n2_52" x="503" y="24" fill="rgb(0,200,0)" >3</text>
<line id="RGn4_1_n5_53" x1="674" y1="84" x2="688" y2="84" stroke="rgb(200,0,0)" stroke-width="1" stroke-linecap="butt" stroke-dasharray="5" />
<text id="RGn4_1_n5_54" x="678" y="104" fill="rgb(200,0,0)" >1</text>
<path id="RGn5_2_n5_55" d="M724 46 L 728 36 C 737 2, 695 7  , 711 38  L 718 46 " fill="none" stroke="rgb(0,0,200)" stroke-width="1" stroke-linecap="square"  />
<path id="RGn5_2_n5_56" d="M722 46 L 726 36 C 736 6, 697 11  , 713 37  L 720 46 " fill="none" stroke="rgb(0,0,200)" stroke-width="1" stroke-linecap="square"  />
<text id="RGn5_2_n5_57" x="713" y="7" fill="rgb(0,0,200)" >2</text>
<path id="RGn3_3_n3_58" d="M556 46 L 563 38 C 582 10, 540 1  , 547 35  L 550 46 " fill="none" stroke="rgb(0,200,0)" stroke-width="2" stroke-linecap="butt" stroke-dasharray="2"  />
<text id="RGn3_3_n3_59" x="558" y="7" fill="rgb(0,200,0)" >3</text>
<path id="RGn5_3_n5_60" d="M737 46 L 744 39 C 764 10, 722 1  , 728 35  L 731 46 " fill="none" stroke="rgb(0,200,0)" stroke-width="2" stroke-linecap="butt" stroke-dasharray="2"  />
<text id="RGn5_3_n5_61" x="740" y="8" fill="rgb(0,200,0)" >3</text>
<path id="RGn0_3_n0_62" d="M377 46 L 384 39 C 404 10, 362 1  , 368 35  L 371 46 " fill="none" stroke="rgb(0,200,0)" stroke-width="2" stroke-linecap="butt" stroke-dasharray="2"  />
<text id="RGn0_3_n0_63" x="380" y="8" fill="rgb(0,200,0)" >3</text>
</g>
</svg>
