<?xml version="1.0" standalone="no"?> 
<!DOCTYPE svg PUBLIC "-//W3C//DTD SVG 1.1//EN" 
"http://www.w3.org/Graphics/SVG/1.1/DTD/svg11.dtd"> 
<svg xmlns="http://www.w3.org/2000/svg" version="1.1" font="Noto Sans Regular" font-size="12" width="926" height="89" > 
<g>
<circle id="LGn0_0" cx="35" cy="35" r="33" fill="none" stroke="rgb(0,0,0)" stroke-width="1" stroke-linecap="square"  />
<circle id="LGn0_1" cx="35" cy="35" r="35" fill="none" stroke="rgb(0,0,0)" stroke-width="1" stroke-linecap="square"  />
<text id="LGn0_2" x="24" y="37" fill="rgb(0,0,0)" >&lt;0&gt;</text>
<rect id="LGn0_3" x="28" y="55" width="15" height="17" fill="rgb(255,255,255)" />
<text id="LGn0_4" x="29" y="72" fill="rgb(0,0,0)" >n0</text>
</g>
<g>
<polygon id="0" points="80,29 111,29 111,23 130,35 111,48 111,41 80,41 " stroke="rgb(0,0,0)" stroke-width="1" stroke-linecap="square"  fill="rgb(0,0,0)" />
</g>
<g>
<circle id="RGn2_0" cx="348" cy="35" r="33" fill="none" stroke="rgb(0,0,0)" stroke-width="1" stroke-linecap="square"  />
<text id="RGn2_1" x="338" y="37" fill="rgb(0,0,0)" >&lt;_&gt;</text>
<rect id="RGn2_2" x="341" y="55" width="15" height="17" fill="rgb(255,255,255)" />
<text id="RGn2_3" x="342" y="72" fill="rgb(0,0,0)" >n2</text>
<circle id="RGn1_4" cx="258" cy="35" r="33" fill="none" stroke="rgb(0,0,0)" stroke-width="1" stroke-linecap="square"  />
<text id="RGn1_5" x="248" y="37" fill="rgb(0,0,0)" >&lt;_&gt;</text>
<rect id="RGn1_6" x="251" y="55" width="15" height="17" fill="rgb(255,255,255)" />
<text id="RGn1_7" x="252" y="72" fill="rgb(0,0,0)" >n1</text>
<circle id="RGn3_8" cx="438" cy="35" r="33" fill="none" stroke="rgb(0,0,0)" stroke-width="1" stroke-linecap="square"  />
<text id="RGn3_9" x="428" y="37" fill="rgb(0,0,0)" >&lt;_&gt;</text>
<rect id="RGn3_10" x="431" y="55" width="15" height="17" fill="rgb(255,255,255)" />
<text id="RGn3_11" x="432" y="72" fill="rgb(0,0,0)" >n3</text>
<circle id="RGn5_12" cx="618" cy="35" r="33" fill="none" stroke="rgb(0,0,0)" stroke-width="1" stroke-linecap="square"  />
<text id="RGn5_13" x="608" y="37" fill="rgb(0,0,0)" >&lt;_&gt;</text>
<rect id="RGn5_14" x="611" y="55" width="15" height="17" fill="rgb(255,255,255)" />
<text id="RGn5_15" x="612" y="72" fill="rgb(0,0,0)" >n5</text>
<circle id="RGn6_16" cx="708" cy="35" r="33" fill="none" stroke="rgb(0,0,0)" stroke-width="1" stroke-linecap="square"  />
<text id="RGn6_17" x="698" y="37" fill="rgb(0,0,0)" >&lt;_&gt;</text>
<rect id="RGn6_18" x="701" y="55" width="15" height="17" fill="rgb(255,255,255)" />
<text id="RGn6_19" x="702" y="72" fill="rgb(0,0,0)" >n6</text>
<circle id="RGn0_20" cx="168" cy="35" r="33" fill="none" stroke="rgb(0,0,0)" stroke-width="1" stroke-linecap="square"  />
<text id="RGn0_21" x="158" y="37" fill="rgb(0,0,0)" >&lt;_&gt;</text>
<rect id="RGn0_22" x="161" y="55" width="15" height="17" fill="rgb(255,255,255)" />
<text id="RGn0_23" x="162" y="72" fill="rgb(0,0,0)" >n0</text>
<circle id="RGn7_24" cx="798" cy="35" r="33" fill="none" stroke="rgb(0,0,0)" stroke-width="1" stroke-linecap="square"  />
<text id="RGn7_25" x="788" y="37" fill="rgb(0,0,0)" >&lt;_&gt;</text>
<rect id="RGn7_26" x="791" y="55" width="15" height="17" fill="rgb(255,255,255)" />
<text id="RGn7_27" x="792" y="72" fill="rgb(0,0,0)" >n7</text>
<circle id="RGn8_28" cx="888" cy="35" r="33" fill="none" stroke="rgb(0,0,0)" stroke-width="1" stroke-linecap="square"  />
<text id="RGn8_29" x="877" y="37" fill="rgb(0,0,0)" >&lt;0&gt;</text>
<rect id="RGn8_30" x="881" y="55" width="15" height="17" fill="rgb(255,255,255)" />
<text id="RGn8_31" x="882" y="72" fill="rgb(0,0,0)" >n8</text>
<circle id="RGn4_32" cx="528" cy="35" r="33" fill="none" stroke="rgb(0,0,0)" stroke-width="1" stroke-linecap="square"  />
<text id="RGn4_33" x="518" y="37" fill="rgb(0,0,0)" >&lt;_&gt;</text>
<rect id="RGn4_34" x="521" y="55" width="15" height="17" fill="rgb(255,255,255)" />
<text id="RGn4_35" x="522" y="72" fill="rgb(0,0,0)" >n4</text>
<line id="RGn1_1_n2_36" x1="296" y1="35" x2="310" y2="35" stroke="rgb(200,0,0)" stroke-width="1" stroke-linecap="butt" stroke-dasharray="5" />
<text id="RGn1_1_n2_37" x="300" y="55" fill="rgb(200,0,0)" >1</text>
<line id="RGn3_1_n4_38" x1="476" y1="35" x2="490" y2="35" stroke="rgb(200,0,0)" stroke-width="1" stroke-linecap="butt" stroke-dasharray="5" />
<text id="RGn3_1_n4_39" x="480" y="55" fill="rgb(200,0,0)" >1</text>
<line id="RGn0_0_n1_40" x1="206" y1="35" x2="220" y2="35" stroke="rgb(0,0,0)" stroke-width="2" stroke-linecap="square" />
<text id="RGn0_0_n1_41" x="210" y="55" fill="rgb(0,0,0)" >0</text>
<line id="RGn2_0_n3_42" x1="386" y1="35" x2="400" y2="35" stroke="rgb(0,0,0)" stroke-width="2" stroke-linecap="square" />
<text id="RGn2_0_n3_43" x="390" y="55" fill="rgb(0,0,0)" >0</text>
<line id="RGn4_0_n5_44" x1="566" y1="35" x2="580" y2="35" stroke="rgb(0,0,0)" stroke-width="2" stroke-linecap="square" />
<text id="RGn4_0_n5_45" x="570" y="55" fill="rgb(0,0,0)" >0</text>
<line id="RGn7_1_n8_46" x1="836" y1="35" x2="850" y2="35" stroke="rgb(200,0,0)" stroke-width="1" stroke-linecap="butt" stroke-dasharray="5" />
<text id="RGn7_1_n8_47" x="840" y="55" fill="rgb(200,0,0)" >1</text>
<line id="RGn5_1_n6_48" x1="656" y1="35" x2="670" y2="35" stroke="rgb(200,0,0)" stroke-width="1" stroke-linecap="butt" stroke-dasharray="5" />
<text id="RGn5_1_n6_49" x="660" y="55" fill="rgb(200,0,0)" >1</text>
<line id="RGn6_0_n7_50" x1="746" y1="35" x2="760" y2="35" stroke="rgb(0,0,0)" stroke-width="2" stroke-linecap="square" />
<text id="RGn6_0_n7_51" x="750" y="55" fill="rgb(0,0,0)" >0</text>
</g>
</svg>
