<?xml version="1.0" standalone="no"?> 
<!DOCTYPE svg PUBLIC "-//W3C//DTD SVG 1.1//EN" 
"http://www.w3.org/Graphics/SVG/1.1/DTD/svg11.dtd"> 
<svg xmlns="http://www.w3.org/2000/svg" version="1.1" font="Noto Sans Regular" font-size="12" width="391" height="91" > 
<g>
<circle id="LGn0_0" cx="35" cy="35" r="33" fill="none" stroke="rgb(0,0,0)" stroke-width="1" stroke-linecap="square"  />
<circle id="LGn0_1" cx="35" cy="35" r="35" fill="none" stroke="rgb(0,0,0)" stroke-width="1" stroke-linecap="square"  />
<text id="LGn0_2" x="10" y="37" fill="rgb(0,0,0)" >&lt;&#945;0, &#945;2&gt;</text>
<rect id="LGn0_3" x="28" y="55" width="15" height="17" fill="rgb(255,255,255)" />
<text id="LGn0_4" x="29" y="72" fill="rgb(0,0,0)" >n0</text>
<circle id="LGn1_5" cx="220" cy="37" r="33" fill="none" stroke="rgb(0,0,0)" stroke-width="1" stroke-linecap="square"  />
<text id="LGn1_6" x="205" y="39" fill="rgb(0,0,0)" >&lt;_, _&gt;</text>
<rect id="LGn1_7" x="213" y="57" width="15" height="17" fill="rgb(255,255,255)" />
<text id="LGn1_8" x="214" y="74" fill="rgb(0,0,0)" >n1</text>
<line id="LGn1_1_n0_9" x1="182" y1="36" x2="74" y2="35" stroke="rgb(200,0,0)" stroke-width="1" stroke-linecap="butt" stroke-dasharray="5" />
<text id="LGn1_1_n0_10" x="121" y="25" fill="rgb(200,0,0)" >&#945;1</text>
</g>
<g>
<polygon id="0" points="263,29 294,29 294,23 313,35 294,48 294,41 263,41 " stroke="rgb(0,0,0)" stroke-width="1" stroke-linecap="square"  fill="rgb(0,0,0)" />
</g>
<g>
<circle id="RGn1_0" cx="352" cy="35" r="34" fill="none" stroke="rgb(0,0,0)" stroke-width="1" stroke-linecap="square"  />
<text id="RGn1_1" x="332" y="29" fill="rgb(0,0,0)" >&lt;&#945;1, _&gt;</text>
<text id="RGn1_2" x="340" y="46" fill="rgb(0,0,0)" >pos</text>
<rect id="RGn1_3" x="345" y="56" width="15" height="17" fill="rgb(255,255,255)" />
<text id="RGn1_4" x="346" y="73" fill="rgb(0,0,0)" >n1</text>
</g>
</svg>
