<?xml version="1.0" encoding="UTF-8" standalone="no"?>
<svg
   version="1.1"
   font="Noto Sans Regular"
   font-size="12px"
   width="562"
   height="400.62"
   id="svg3"
   sodipodi:docname="rule-vertex-dual-face-tri.svg"
   inkscape:version="1.4 (e7c3feb100, 2024-10-09)"
   xmlns:inkscape="http://www.inkscape.org/namespaces/inkscape"
   xmlns:sodipodi="http://sodipodi.sourceforge.net/DTD/sodipodi-0.dtd"
   xmlns="http://www.w3.org/2000/svg"
   xmlns:svg="http://www.w3.org/2000/svg">
  <defs
     id="defs3" />
  <sodipodi:namedview
     id="namedview3"
     pagecolor="#ffffff"
     bordercolor="#000000"
     borderopacity="0.25"
     inkscape:showpageshadow="2"
     inkscape:pageopacity="0.0"
     inkscape:pagecheckerboard="0"
     inkscape:deskcolor="#d1d1d1"
     inkscape:zoom="2.0229682"
     inkscape:cx="283.49432"
     inkscape:cy="204.64978"
     inkscape:window-width="1920"
     inkscape:window-height="1080"
     inkscape:window-x="0"
     inkscape:window-y="0"
     inkscape:window-maximized="0"
     inkscape:current-layer="svg3" />
  <circle
     id="LGn0_0"
     cx="35.5"
     cy="199.5"
     r="33"
     fill="none"
     stroke="#000000"
     stroke-width="1"
     stroke-linecap="square" />
  <circle
     id="LGn0_1"
     cx="35.5"
     cy="199.5"
     r="35"
     fill="none"
     stroke="#000000"
     stroke-width="1"
     stroke-linecap="square" />
  <text
     id="LGn0_2"
     x="12.00999"
     y="203.07001"
     fill="#000000">&lt;1, 2, 3&gt;</text>
  <rect
     id="LGn0_3"
     x="28.5"
     y="219.5"
     width="15"
     height="17"
     fill="#ffffff" />
  <text
     id="LGn0_4"
     x="29.5"
     y="236.5"
     fill="#000000">n0</text>
  <polygon
     id="0"
     points="111,249 80,249 80,237 111,237 111,231 130,243 111,256 "
     stroke="#000000"
     stroke-width="1"
     stroke-linecap="square"
     fill="#000000"
     transform="translate(0.5,-43.210388)" />
  <circle
     id="RGn6_0"
     cx="468.5"
     cy="363.5"
     r="33"
     fill="none"
     stroke="#000000"
     stroke-width="1"
     stroke-linecap="square" />
  <text
     id="RGn6_1"
     x="447.314"
     y="366.224"
     fill="#000000">&lt;_, _, _&gt;</text>
  <rect
     id="RGn6_2"
     x="461.5"
     y="383.5"
     width="15"
     height="17"
     fill="#ffffff" />
  <text
     id="RGn6_3"
     x="462.5"
     y="400.5"
     fill="#000000">n6</text>
  <circle
     id="RGn2_4"
     cx="168.5"
     cy="243.5"
     r="33"
     fill="none"
     stroke="#000000"
     stroke-width="1"
     stroke-linecap="square" />
  <text
     id="RGn2_5"
     x="147.314"
     y="246.224"
     fill="#000000">&lt;_, _, _&gt;</text>
  <rect
     id="RGn2_6"
     x="161.5"
     y="263.5"
     width="15"
     height="17"
     fill="#ffffff" />
  <text
     id="RGn2_7"
     x="162.5"
     y="280.5"
     fill="#000000">n2</text>
  <circle
     id="RGn0_8"
     cx="348.5"
     cy="213.5"
     r="33"
     fill="none"
     stroke="#000000"
     stroke-width="1"
     stroke-linecap="square" />
  <text
     id="RGn0_9"
     x="325.00998"
     y="217.07001"
     fill="#000000">&lt;1, 2, 3&gt;</text>
  <rect
     id="RGn0_10"
     x="341.5"
     y="233.5"
     width="15"
     height="17"
     fill="#ffffff" />
  <text
     id="RGn0_11"
     x="342.5"
     y="250.5"
     fill="#000000">n0</text>
  <circle
     id="RGn4_12"
     cx="438.5"
     cy="33.5"
     r="33"
     fill="none"
     stroke="#000000"
     stroke-width="1"
     stroke-linecap="square" />
  <text
     id="RGn4_13"
     x="417.314"
     y="36.223999"
     fill="#000000">&lt;_, _, _&gt;</text>
  <rect
     id="RGn4_14"
     x="431.5"
     y="53.5"
     width="15"
     height="17"
     fill="#ffffff" />
  <text
     id="RGn4_15"
     x="432.5"
     y="70.5"
     fill="#000000">n4</text>
  <circle
     id="RGn5_16"
     cx="528.5"
     cy="243.5"
     r="33"
     fill="none"
     stroke="#000000"
     stroke-width="1"
     stroke-linecap="square" />
  <text
     id="RGn5_17"
     x="507.314"
     y="246.224"
     fill="#000000">&lt;_, _, _&gt;</text>
  <rect
     id="RGn5_18"
     x="521.5"
     y="263.5"
     width="15"
     height="17"
     fill="#ffffff" />
  <text
     id="RGn5_19"
     x="522.5"
     y="280.5"
     fill="#000000">n5</text>
  <circle
     id="RGn1_20"
     cx="228.5"
     cy="363.5"
     r="33"
     fill="none"
     stroke="#000000"
     stroke-width="1"
     stroke-linecap="square" />
  <text
     id="RGn1_21"
     x="207.314"
     y="366.224"
     fill="#000000">&lt;_, _, _&gt;</text>
  <rect
     id="RGn1_22"
     x="221.5"
     y="383.5"
     width="15"
     height="17"
     fill="#ffffff" />
  <text
     id="RGn1_23"
     x="222.5"
     y="400.5"
     fill="#000000">n1</text>
  <circle
     id="RGn3_24"
     cx="258.5"
     cy="33.5"
     r="33"
     fill="none"
     stroke="#000000"
     stroke-width="1"
     stroke-linecap="square" />
  <text
     id="RGn3_25"
     x="237.314"
     y="36.223999"
     fill="#000000">&lt;_, _, _&gt;</text>
  <rect
     id="RGn3_26"
     x="251.5"
     y="53.5"
     width="15"
     height="17"
     fill="#ffffff" />
  <text
     id="RGn3_27"
     x="252.5"
     y="70.5"
     fill="#000000">n3</text>
  <path
     id="RGn2_2_n2_29"
     d="m 203.5,230.5 11,2 c 31,2 17,-35 -5,-13 l -6,9"
     fill="none"
     stroke="#0000c8"
     stroke-width="1"
     stroke-linecap="square" />
  <text
     id="RGn2_2_n2_30"
     x="242.5"
     y="219.5"
     fill="#0000c8">2</text>
  <path
     id="RGn4_2_n4_32"
     d="m 439.5,70.5 -5,10 c -10,29 28,26 13,-1 l -6,-9"
     fill="none"
     stroke="#0000c8"
     stroke-width="1"
     stroke-linecap="square" />
  <text
     id="RGn4_2_n4_33"
     x="440.5"
     y="119.5"
     fill="#0000c8">2</text>
  <line
     id="RGn6_0_n1_34"
     x1="430.5"
     y1="363.5"
     x2="266.5"
     y2="363.5"
     stroke="#000000"
     stroke-width="2"
     stroke-linecap="square" />
  <text
     id="RGn6_0_n1_35"
     x="345.5"
     y="353.5"
     fill="#000000">0</text>
  <path
     id="RGn3_2_n3_37"
     d="m 255.5,70.5 -6,9 c -14,28 25,29 13,1 l -5,-10"
     fill="none"
     stroke="#0000c8"
     stroke-width="1"
     stroke-linecap="square" />
  <text
     id="RGn3_2_n3_38"
     x="252.5"
     y="119.5"
     fill="#0000c8">2</text>
  <path
     id="RGn3_3_n3_39"
     d="m 273.5,67.5 v 12 c 3,34 42,13 15,-9 l -9,-5"
     fill="none"
     stroke="#00c800"
     stroke-width="2"
     stroke-linecap="butt"
     stroke-dasharray="2" />
  <text
     id="RGn3_3_n3_40"
     x="294.5"
     y="110.5"
     fill="#00c800">3</text>
  <line
     id="RGn2_1_n1_41"
     x1="184.5"
     y1="276.5"
     x2="211.5"
     y2="329.5"
     stroke="#c80000"
     stroke-width="1"
     stroke-linecap="butt"
     stroke-dasharray="5"
     style="stroke-dasharray:none" />
  <text
     id="RGn2_1_n1_42"
     x="194.5"
     y="307.5"
     fill="#c80000">1</text>
  <line
     id="RGn4_0_n5_43"
     x1="452.5"
     y1="67.5"
     x2="513.5"
     y2="208.5"
     stroke="#000000"
     stroke-width="2"
     stroke-linecap="square" />
  <text
     id="RGn4_0_n5_44"
     x="479.5"
     y="142.5"
     fill="#000000">0</text>
  <line
     id="RGn2_0_n3_45"
     x1="182.5"
     y1="208.5"
     x2="243.5"
     y2="67.5"
     stroke="#000000"
     stroke-width="2"
     stroke-linecap="square" />
  <text
     id="RGn2_0_n3_46"
     x="209.5"
     y="142.5"
     fill="#000000">0</text>
  <path
     id="RGn2_3_n2_47"
     d="m 203.5,257.5 7,8 c 27,22 40,-19 6,-16 l -11,2"
     fill="none"
     stroke="#00c800"
     stroke-width="2"
     stroke-linecap="butt"
     stroke-dasharray="2" />
  <text
     id="RGn2_3_n2_48"
     x="243.5"
     y="272.5"
     fill="#00c800">3</text>
  <path
     id="RGn4_3_n4_49"
     d="m 418.5,66.5 -9,6 c -26,23 13,42 15,7 v -11"
     fill="none"
     stroke="#00c800"
     stroke-width="2"
     stroke-linecap="butt"
     stroke-dasharray="2" />
  <text
     id="RGn4_3_n4_50"
     x="399.5"
     y="112.5"
     fill="#00c800">3</text>
  <path
     id="RGn6_2_n6_52"
     d="m 445.5,332.5 -1,-11 c -7,-30 -39,-5 -11,9 l 10,4"
     fill="none"
     stroke="#0000c8"
     stroke-width="1"
     stroke-linecap="square" />
  <text
     id="RGn6_2_n6_53"
     x="414.5"
     y="303.5"
     fill="#0000c8">2</text>
  <path
     id="RGn1_2_n1_55"
     d="m 250.5,332.5 10,-5 c 26,-16 -6,-38 -11,-8 l -1,11"
     fill="none"
     stroke="#0000c8"
     stroke-width="1"
     stroke-linecap="square" />
  <text
     id="RGn1_2_n1_56"
     x="271.5"
     y="299.5"
     fill="#0000c8">2</text>
  <path
     id="RGn5_2_n5_58"
     d="m 493.5,226.5 -6,-9 c -20,-23 -36,12 -6,12 l 12,-1"
     fill="none"
     stroke="#0000c8"
     stroke-width="1"
     stroke-linecap="square" />
  <text
     id="RGn5_2_n5_59"
     x="450.5"
     y="214.5"
     fill="#0000c8">2</text>
  <path
     id="RGn6_3_n6_60"
     d="m 462.5,325.5 3,-11 c 6,-34 -36,-25 -17,4 l 8,7"
     fill="none"
     stroke="#00c800"
     stroke-width="2"
     stroke-linecap="butt"
     stroke-dasharray="2" />
  <text
     id="RGn6_3_n6_61"
     x="446.5"
     y="287.5"
     fill="#00c800">3</text>
  <line
     id="RGn3_1_n4_62"
     x1="296.5"
     y1="33.5"
     x2="400.5"
     y2="33.5"
     stroke="#c80000"
     stroke-width="1"
     stroke-linecap="butt"
     stroke-dasharray="5"
     style="stroke-dasharray:none" />
  <text
     id="RGn3_1_n4_63"
     x="345.5"
     y="53.5"
     fill="#c80000">1</text>
  <line
     id="RGn5_1_n6_64"
     x1="511.5"
     y1="276.5"
     x2="484.5"
     y2="329.5"
     stroke="#c80000"
     stroke-width="1"
     stroke-linecap="butt"
     stroke-dasharray="5"
     style="stroke-dasharray:none" />
  <text
     id="RGn5_1_n6_65"
     x="494.5"
     y="307.5"
     fill="#c80000">1</text>
  <path
     id="RGn5_3_n5_66"
     d="m 490.5,250.5 -11,-2 c -34,-4 -22,37 5,16 l 8,-8"
     fill="none"
     stroke="#00c800"
     stroke-width="2"
     stroke-linecap="butt"
     stroke-dasharray="2" />
  <text
     id="RGn5_3_n5_67"
     x="445.5"
     y="270.5"
     fill="#00c800">3</text>
  <path
     id="RGn1_3_n1_68"
     d="m 232.5,325.5 6,-9 c 14,-31 -29,-33 -17,-1 l 5,10"
     fill="none"
     stroke="#00c800"
     stroke-width="2"
     stroke-linecap="butt"
     stroke-dasharray="2" />
  <text
     id="RGn1_3_n1_69"
     x="227.5"
     y="286.5"
     fill="#00c800">3</text>
</svg>
