<?xml version="1.0" encoding="UTF-8" standalone="no"?>
<svg
   version="1.1"
   font="Noto Sans Regular"
   font-size="12px"
   width="502"
   height="370.62"
   id="svg3"
   sodipodi:docname="rule-vertex-dual-face-square.svg"
   inkscape:version="1.4 (e7c3feb100, 2024-10-09)"
   xmlns:inkscape="http://www.inkscape.org/namespaces/inkscape"
   xmlns:sodipodi="http://sodipodi.sourceforge.net/DTD/sodipodi-0.dtd"
   xmlns="http://www.w3.org/2000/svg"
   xmlns:svg="http://www.w3.org/2000/svg">
  <defs
     id="defs3" />
  <sodipodi:namedview
     id="namedview3"
     pagecolor="#ffffff"
     bordercolor="#000000"
     borderopacity="0.25"
     inkscape:showpageshadow="2"
     inkscape:pageopacity="0.0"
     inkscape:pagecheckerboard="0"
     inkscape:deskcolor="#d1d1d1"
     showgrid="false"
     inkscape:zoom="1.8478261"
     inkscape:cx="253"
     inkscape:cy="185.62353"
     inkscape:window-width="1892"
     inkscape:window-height="1035"
     inkscape:window-x="1929"
     inkscape:window-y="26"
     inkscape:window-maximized="1"
     inkscape:current-layer="svg3" />
  <circle
     id="LGn0_0"
     cx="35.5"
     cy="184.5"
     r="33"
     fill="none"
     stroke="#000000"
     stroke-width="1"
     stroke-linecap="square" />
  <circle
     id="LGn0_1"
     cx="35.5"
     cy="184.5"
     r="35"
     fill="none"
     stroke="#000000"
     stroke-width="1"
     stroke-linecap="square" />
  <text
     id="LGn0_2"
     x="12.00999"
     y="188.07001"
     fill="#000000">&lt;1, 2, 3&gt;</text>
  <rect
     id="LGn0_3"
     x="28.5"
     y="204.5"
     width="15"
     height="17"
     fill="#ffffff" />
  <text
     id="LGn0_4"
     x="29.5"
     y="221.5"
     fill="#000000">n0</text>
  <polygon
     id="0"
     points="111,129 80,129 80,117 111,117 111,111 130,123 111,136 "
     stroke="#000000"
     stroke-width="1"
     stroke-linecap="square"
     fill="#000000"
     transform="translate(0.5,61.789612)" />
  <circle
     id="RGn6_0"
     cx="378.5"
     cy="333.5"
     r="33"
     fill="none"
     stroke="#000000"
     stroke-width="1"
     stroke-linecap="square" />
  <text
     id="RGn6_1"
     x="357.314"
     y="336.224"
     fill="#000000">&lt;_, _, _&gt;</text>
  <rect
     id="RGn6_2"
     x="371.5"
     y="353.5"
     width="15"
     height="17"
     fill="#ffffff" />
  <text
     id="RGn6_3"
     x="372.5"
     y="370.5"
     fill="#000000">n6</text>
  <circle
     id="RGn4_4"
     cx="468.5"
     cy="123.5"
     r="33"
     fill="none"
     stroke="#000000"
     stroke-width="1"
     stroke-linecap="square" />
  <text
     id="RGn4_5"
     x="447.314"
     y="126.224"
     fill="#000000">&lt;_, _, _&gt;</text>
  <rect
     id="RGn4_6"
     x="461.5"
     y="143.5"
     width="15"
     height="17"
     fill="#ffffff" />
  <text
     id="RGn4_7"
     x="462.5"
     y="160.5"
     fill="#000000">n4</text>
  <circle
     id="RGn0_8"
     cx="318.5"
     cy="183.5"
     r="33"
     fill="none"
     stroke="#000000"
     stroke-width="1"
     stroke-linecap="square" />
  <text
     id="RGn0_9"
     x="295.00998"
     y="187.07001"
     fill="#000000">&lt;1, 2, 3&gt;</text>
  <rect
     id="RGn0_10"
     x="311.5"
     y="203.5"
     width="15"
     height="17"
     fill="#ffffff" />
  <text
     id="RGn0_11"
     x="312.5"
     y="220.5"
     fill="#000000">n0</text>
  <circle
     id="RGn8_12"
     cx="168.5"
     cy="243.5"
     r="33"
     fill="none"
     stroke="#000000"
     stroke-width="1"
     stroke-linecap="square" />
  <text
     id="RGn8_13"
     x="147.314"
     y="246.224"
     fill="#000000">&lt;_, _, _&gt;</text>
  <rect
     id="RGn8_14"
     x="161.5"
     y="263.5"
     width="15"
     height="17"
     fill="#ffffff" />
  <text
     id="RGn8_15"
     x="162.5"
     y="280.5"
     fill="#000000">n8</text>
  <circle
     id="RGn1_16"
     cx="168.5"
     cy="123.5"
     r="33"
     fill="none"
     stroke="#000000"
     stroke-width="1"
     stroke-linecap="square" />
  <text
     id="RGn1_17"
     x="147.314"
     y="126.224"
     fill="#000000">&lt;_, _, _&gt;</text>
  <rect
     id="RGn1_18"
     x="161.5"
     y="143.5"
     width="15"
     height="17"
     fill="#ffffff" />
  <text
     id="RGn1_19"
     x="162.5"
     y="160.5"
     fill="#000000">n1</text>
  <circle
     id="RGn3_20"
     cx="378.5"
     cy="33.5"
     r="33"
     fill="none"
     stroke="#000000"
     stroke-width="1"
     stroke-linecap="square" />
  <text
     id="RGn3_21"
     x="357.314"
     y="36.223999"
     fill="#000000">&lt;_, _, _&gt;</text>
  <rect
     id="RGn3_22"
     x="371.5"
     y="53.5"
     width="15"
     height="17"
     fill="#ffffff" />
  <text
     id="RGn3_23"
     x="372.5"
     y="70.5"
     fill="#000000">n3</text>
  <circle
     id="RGn5_24"
     cx="468.5"
     cy="243.5"
     r="33"
     fill="none"
     stroke="#000000"
     stroke-width="1"
     stroke-linecap="square" />
  <text
     id="RGn5_25"
     x="447.314"
     y="246.224"
     fill="#000000">&lt;_, _, _&gt;</text>
  <rect
     id="RGn5_26"
     x="461.5"
     y="263.5"
     width="15"
     height="17"
     fill="#ffffff" />
  <text
     id="RGn5_27"
     x="462.5"
     y="280.5"
     fill="#000000">n5</text>
  <circle
     id="RGn2_28"
     cx="258.5"
     cy="33.5"
     r="33"
     fill="none"
     stroke="#000000"
     stroke-width="1"
     stroke-linecap="square" />
  <text
     id="RGn2_29"
     x="237.314"
     y="36.223999"
     fill="#000000">&lt;_, _, _&gt;</text>
  <rect
     id="RGn2_30"
     x="251.5"
     y="53.5"
     width="15"
     height="17"
     fill="#ffffff" />
  <text
     id="RGn2_31"
     x="252.5"
     y="70.5"
     fill="#000000">n2</text>
  <circle
     id="RGn7_32"
     cx="258.5"
     cy="333.5"
     r="33"
     fill="none"
     stroke="#000000"
     stroke-width="1"
     stroke-linecap="square" />
  <text
     id="RGn7_33"
     x="237.314"
     y="336.224"
     fill="#000000">&lt;_, _, _&gt;</text>
  <rect
     id="RGn7_34"
     x="251.5"
     y="353.5"
     width="15"
     height="17"
     fill="#ffffff" />
  <text
     id="RGn7_35"
     x="252.5"
     y="370.5"
     fill="#000000">n7</text>
  <line
     id="RGn5_1_n6_36"
     x1="441.5"
     y1="269.5"
     x2="404.5"
     y2="306.5"
     stroke="#c80000"
     stroke-width="1"
     stroke-linecap="butt"
     stroke-dasharray="5"
     style="stroke-dasharray:none" />
  <text
     id="RGn5_1_n6_37"
     x="419.5"
     y="292.5"
     fill="#c80000">1</text>
  <path
     id="RGn6_3_n6_38"
     d="m 377.5,295.5 5,-10 c 10,-33 -33,-29 -17,1 l 6,9"
     fill="none"
     stroke="#00c800"
     stroke-width="2"
     stroke-linecap="butt"
     stroke-dasharray="2"
     style="stroke-dasharray:none" />
  <text
     id="RGn6_3_n6_39"
     x="368.5"
     y="256.5"
     fill="#00c800">3</text>
  <path
     id="RGn6_2_n6_41"
     d="m 356.5,301.5 -1,-11 c -5,-30 -38,-7 -11,8 l 10,5"
     fill="none"
     stroke="#0000c8"
     stroke-width="1"
     stroke-linecap="square" />
  <text
     id="RGn6_2_n6_42"
     x="326.5"
     y="271.5"
     fill="#0000c8">2</text>
  <path
     id="RGn8_2_n8_44"
     d="m 199.5,220.5 11,-1 c 30,-7 5,-39 -9,-11 l -4,10"
     fill="none"
     stroke="#0000c8"
     stroke-width="1"
     stroke-linecap="square" />
  <text
     id="RGn8_2_n8_45"
     x="230.5"
     y="197.5"
     fill="#0000c8">2</text>
  <path
     id="RGn8_3_n8_46"
     d="m 205.5,240.5 11,4 c 33,8 27,-34 -3,-17 l -8,7"
     fill="none"
     stroke="#00c800"
     stroke-width="2"
     stroke-linecap="butt"
     stroke-dasharray="2"
     style="stroke-dasharray:none" />
  <text
     id="RGn8_3_n8_47"
     x="246.5"
     y="236.5"
     fill="#00c800">3</text>
  <line
     id="RGn1_1_n2_48"
     x1="194.5"
     y1="96.5"
     x2="231.5"
     y2="59.5"
     stroke="#c80000"
     stroke-width="1"
     stroke-linecap="butt"
     stroke-dasharray="5"
     style="stroke-dasharray:none" />
  <text
     id="RGn1_1_n2_49"
     x="209.5"
     y="82.5"
     fill="#c80000">1</text>
  <path
     id="RGn2_2_n2_51"
     d="m 277.5,66.5 1,11 c 3,30 37,9 11,-8 l -10,-5"
     fill="none"
     stroke="#0000c8"
     stroke-width="1"
     stroke-linecap="square" />
  <text
     id="RGn2_2_n2_52"
     x="299.5"
     y="107.5"
     fill="#0000c8">2</text>
  <path
     id="RGn1_2_n1_54"
     d="m 205.5,127.5 9,7 c 26,15 30,-23 1,-13 l -10,4"
     fill="none"
     stroke="#0000c8"
     stroke-width="1"
     stroke-linecap="square" />
  <text
     id="RGn1_2_n1_55"
     x="246.5"
     y="135.5"
     fill="#0000c8">2</text>
  <path
     id="RGn5_3_n5_56"
     d="m 439.5,217.5 -4,-10 c -18,-29 -44,6 -11,14 l 11,2"
     fill="none"
     stroke="#00c800"
     stroke-width="2"
     stroke-linecap="butt"
     stroke-dasharray="2"
     style="stroke-dasharray:none" />
  <text
     id="RGn5_3_n5_57"
     x="398.5"
     y="199.5"
     fill="#00c800">3</text>
  <line
     id="RGn2_0_n3_58"
     x1="296.5"
     y1="33.5"
     x2="340.5"
     y2="33.5"
     stroke="#000000"
     stroke-width="2"
     stroke-linecap="square" />
  <text
     id="RGn2_0_n3_59"
     x="315.5"
     y="53.5"
     fill="#000000">0</text>
  <line
     id="RGn6_0_n7_60"
     x1="340.5"
     y1="333.5"
     x2="296.5"
     y2="333.5"
     stroke="#000000"
     stroke-width="2"
     stroke-linecap="square" />
  <text
     id="RGn6_0_n7_61"
     x="315.5"
     y="323.5"
     fill="#000000">0</text>
  <path
     id="RGn3_2_n3_63"
     d="m 370.5,70.5 -7,8 c -17,26 21,32 13,3 l -4,-11"
     fill="none"
     stroke="#0000c8"
     stroke-width="1"
     stroke-linecap="square" />
  <text
     id="RGn3_2_n3_64"
     x="361.5"
     y="119.5"
     fill="#0000c8">2</text>
  <line
     id="RGn4_0_n5_65"
     x1="468.5"
     y1="161.5"
     x2="468.5"
     y2="205.5"
     stroke="#000000"
     stroke-width="2"
     stroke-linecap="square" />
  <text
     id="RGn4_0_n5_66"
     x="450.5"
     y="188.5"
     fill="#000000">0</text>
  <path
     id="RGn4_2_n4_68"
     d="m 435.5,143.5 -11,1 c -30,5 -7,38 8,11 l 5,-10"
     fill="none"
     stroke="#0000c8"
     stroke-width="1"
     stroke-linecap="square" />
  <text
     id="RGn4_2_n4_69"
     x="397.5"
     y="175.5"
     fill="#0000c8">2</text>
  <path
     id="RGn3_3_n3_70"
     d="m 353.5,62.5 -10,5 c -28,19 8,44 14,10 l 2,-11"
     fill="none"
     stroke="#00c800"
     stroke-width="2"
     stroke-linecap="butt"
     stroke-dasharray="2"
     style="stroke-dasharray:none" />
  <text
     id="RGn3_3_n3_71"
     x="328.5"
     y="106.5"
     fill="#00c800">3</text>
  <path
     id="RGn2_3_n2_72"
     d="m 260.5,70.5 -4,11 c -8,33 34,27 17,-3 l -7,-8"
     fill="none"
     stroke="#00c800"
     stroke-width="2"
     stroke-linecap="butt"
     stroke-dasharray="2"
     style="stroke-dasharray:none" />
  <text
     id="RGn2_3_n2_73"
     x="266.5"
     y="119.5"
     fill="#00c800">3</text>
  <line
     id="RGn7_1_n8_74"
     x1="231.5"
     y1="306.5"
     x2="194.5"
     y2="269.5"
     stroke="#c80000"
     stroke-width="1"
     stroke-linecap="butt"
     stroke-dasharray="5"
     style="stroke-dasharray:none" />
  <text
     id="RGn7_1_n8_75"
     x="209.5"
     y="292.5"
     fill="#c80000">1</text>
  <line
     id="RGn3_1_n4_76"
     x1="404.5"
     y1="59.5"
     x2="441.5"
     y2="96.5"
     stroke="#c80000"
     stroke-width="1"
     stroke-linecap="butt"
     stroke-dasharray="5"
     style="stroke-dasharray:none" />
  <text
     id="RGn3_1_n4_77"
     x="419.5"
     y="82.5"
     fill="#c80000">1</text>
  <path
     id="RGn7_3_n7_78"
     d="m 282.5,303.5 10,-5 c 29,-18 -7,-44 -14,-10 l -2,11"
     fill="none"
     stroke="#00c800"
     stroke-width="2"
     stroke-linecap="butt"
     stroke-dasharray="2"
     style="stroke-dasharray:none" />
  <text
     id="RGn7_3_n7_79"
     x="301.5"
     y="270.5"
     fill="#00c800">3</text>
  <path
     id="RGn7_2_n7_81"
     d="m 262.5,295.5 6,-9 c 16,-26 -23,-30 -12,-1 l 4,10"
     fill="none"
     stroke="#0000c8"
     stroke-width="1"
     stroke-linecap="square" />
  <text
     id="RGn7_2_n7_82"
     x="262.5"
     y="256.5"
     fill="#0000c8">2</text>
  <line
     id="RGn8_0_n1_83"
     x1="168.5"
     y1="205.5"
     x2="168.5"
     y2="161.5"
     stroke="#000000"
     stroke-width="2"
     stroke-linecap="square" />
  <text
     id="RGn8_0_n1_84"
     x="180.5"
     y="188.5"
     fill="#000000">0</text>
  <path
     id="RGn5_2_n5_86"
     d="m 430.5,235.5 -8,-7 c -25,-18 -32,21 -3,13 l 11,-4"
     fill="none"
     stroke="#0000c8"
     stroke-width="1"
     stroke-linecap="square" />
  <text
     id="RGn5_2_n5_87"
     x="383.5"
     y="234.5"
     fill="#0000c8">2</text>
  <path
     id="RGn4_3_n4_88"
     d="m 430.5,124.5 -11,-4 c -33,-9 -28,33 3,17 l 8,-7"
     fill="none"
     stroke="#00c800"
     stroke-width="2"
     stroke-linecap="butt"
     stroke-dasharray="2"
     style="stroke-dasharray:none" />
  <text
     id="RGn4_3_n4_89"
     x="383.5"
     y="137.5"
     fill="#00c800">3</text>
  <path
     id="RGn1_3_n1_90"
     d="m 198.5,145.5 5,9 c 21,28 44,-9 10,-14 l -11,-1"
     fill="none"
     stroke="#00c800"
     stroke-width="2"
     stroke-linecap="butt"
     stroke-dasharray="2"
     style="stroke-dasharray:none" />
  <text
     id="RGn1_3_n1_91"
     x="235.5"
     y="170.5"
     fill="#00c800">3</text>
</svg>
