<?xml version="1.0" standalone="no"?> 
<!DOCTYPE svg PUBLIC "-//W3C//DTD SVG 1.1//EN" 
"http://www.w3.org/Graphics/SVG/1.1/DTD/svg11.dtd"> 
<svg xmlns="http://www.w3.org/2000/svg" version="1.1" font="Noto Sans Regular" font-size="12" width="684" height="426" > 
<g>
<circle id="LGn1_0" cx="275" cy="42" r="33" fill="none" stroke="rgb(0,0,0)" stroke-width="1" stroke-linecap="square"  />
<text id="LGn1_1" x="268" y="44" fill="rgb(0,0,0)" >&lt;&gt;</text>
<rect id="LGn1_2" x="268" y="62" width="15" height="17" fill="rgb(255,255,255)" />
<text id="LGn1_3" x="269" y="79" fill="rgb(0,0,0)" >n1</text>
<circle id="LGn5_4" cx="275" cy="132" r="33" fill="none" stroke="rgb(0,0,0)" stroke-width="1" stroke-linecap="square"  />
<text id="LGn5_5" x="268" y="134" fill="rgb(0,0,0)" >&lt;&gt;</text>
<rect id="LGn5_6" x="268" y="152" width="15" height="17" fill="rgb(255,255,255)" />
<text id="LGn5_7" x="269" y="169" fill="rgb(0,0,0)" >n5</text>
<circle id="LGn7_8" cx="275" cy="282" r="33" fill="none" stroke="rgb(0,0,0)" stroke-width="1" stroke-linecap="square"  />
<text id="LGn7_9" x="268" y="284" fill="rgb(0,0,0)" >&lt;&gt;</text>
<rect id="LGn7_10" x="268" y="302" width="15" height="17" fill="rgb(255,255,255)" />
<text id="LGn7_11" x="269" y="319" fill="rgb(0,0,0)" >n7</text>
<circle id="LGn0_12" cx="35" cy="42" r="33" fill="none" stroke="rgb(0,0,0)" stroke-width="1" stroke-linecap="square"  />
<circle id="LGn0_13" cx="35" cy="42" r="35" fill="none" stroke="rgb(0,0,0)" stroke-width="1" stroke-linecap="square"  />
<text id="LGn0_14" x="28" y="44" fill="rgb(0,0,0)" >&lt;&gt;</text>
<rect id="LGn0_15" x="28" y="62" width="15" height="17" fill="rgb(255,255,255)" />
<text id="LGn0_16" x="29" y="79" fill="rgb(0,0,0)" >n0</text>
<circle id="LGn6_17" cx="35" cy="282" r="33" fill="none" stroke="rgb(0,0,0)" stroke-width="1" stroke-linecap="square"  />
<text id="LGn6_18" x="28" y="284" fill="rgb(0,0,0)" >&lt;&gt;</text>
<rect id="LGn6_19" x="28" y="302" width="15" height="17" fill="rgb(255,255,255)" />
<text id="LGn6_20" x="29" y="319" fill="rgb(0,0,0)" >n6</text>
<circle id="LGn2_21" cx="35" cy="372" r="33" fill="none" stroke="rgb(0,0,0)" stroke-width="1" stroke-linecap="square"  />
<circle id="LGn2_22" cx="35" cy="372" r="35" fill="none" stroke="rgb(0,0,0)" stroke-width="1" stroke-linecap="square"  />
<text id="LGn2_23" x="28" y="374" fill="rgb(0,0,0)" >&lt;&gt;</text>
<rect id="LGn2_24" x="28" y="392" width="15" height="17" fill="rgb(255,255,255)" />
<text id="LGn2_25" x="29" y="409" fill="rgb(0,0,0)" >n2</text>
<circle id="LGn3_26" cx="275" cy="372" r="33" fill="none" stroke="rgb(0,0,0)" stroke-width="1" stroke-linecap="square"  />
<text id="LGn3_27" x="268" y="374" fill="rgb(0,0,0)" >&lt;&gt;</text>
<rect id="LGn3_28" x="268" y="392" width="15" height="17" fill="rgb(255,255,255)" />
<text id="LGn3_29" x="269" y="409" fill="rgb(0,0,0)" >n3</text>
<circle id="LGn4_30" cx="35" cy="132" r="33" fill="none" stroke="rgb(0,0,0)" stroke-width="1" stroke-linecap="square"  />
<text id="LGn4_31" x="28" y="134" fill="rgb(0,0,0)" >&lt;&gt;</text>
<rect id="LGn4_32" x="28" y="152" width="15" height="17" fill="rgb(255,255,255)" />
<text id="LGn4_33" x="29" y="169" fill="rgb(0,0,0)" >n4</text>
<path id="LGn0_3_n0_34" d="M72 57 L 79 65 C 106 87, 119 46  , 85 49  L 74 51 " fill="none" stroke="rgb(0,200,0)" stroke-width="2" stroke-linecap="butt" stroke-dasharray="2"  />
<text id="LGn0_3_n0_35" x="112" y="72" fill="rgb(0,200,0)" >3</text>
<line id="LGn4_2_n0_36" x1="35" y1="94" x2="35" y2="82" stroke="rgb(0,0,200)" stroke-width="1" stroke-linecap="square" />
<text id="LGn4_2_n0_37" x="47" y="93" fill="rgb(0,0,200)" >2</text>
<path id="LGn5_3_n5_38" d="M238 119 L 231 111 C 203 91, 192 133  , 227 128  L 238 125 " fill="none" stroke="rgb(0,200,0)" stroke-width="2" stroke-linecap="butt" stroke-dasharray="2"  />
<text id="LGn5_3_n5_39" x="192" y="117" fill="rgb(0,200,0)" >3</text>
<line id="LGn2_2_n6_40" x1="35" y1="332" x2="35" y2="320" stroke="rgb(0,0,200)" stroke-width="1" stroke-linecap="square" />
<text id="LGn2_2_n6_41" x="47" y="331" fill="rgb(0,0,200)" >2</text>
<path id="LGn1_3_n1_42" d="M237 50 L 226 48 C 192 45, 205 86  , 232 64  L 239 56 " fill="none" stroke="rgb(0,200,0)" stroke-width="2" stroke-linecap="butt" stroke-dasharray="2"  />
<text id="LGn1_3_n1_43" x="193" y="71" fill="rgb(0,200,0)" >3</text>
<line id="LGn3_2_n7_44" x1="275" y1="334" x2="275" y2="320" stroke="rgb(0,0,200)" stroke-width="1" stroke-linecap="square" />
<text id="LGn3_2_n7_45" x="287" y="332" fill="rgb(0,0,200)" >2</text>
<line id="LGn4_0_n5_46" x1="73" y1="132" x2="237" y2="132" stroke="rgb(0,0,0)" stroke-width="2" stroke-linecap="square" />
<text id="LGn4_0_n5_47" x="152" y="152" fill="rgb(0,0,0)" >0</text>
<path id="LGn3_3_n3_48" d="M239 357 L 232 349 C 205 326, 192 367  , 226 365  L 237 363 " fill="none" stroke="rgb(0,200,0)" stroke-width="2" stroke-linecap="butt" stroke-dasharray="2"  />
<text id="LGn3_3_n3_49" x="193" y="351" fill="rgb(0,200,0)" >3</text>
<path id="LGn6_3_n6_50" d="M70 296 L 77 304 C 104 327, 117 286  , 83 288  L 72 290 " fill="none" stroke="rgb(0,200,0)" stroke-width="2" stroke-linecap="butt" stroke-dasharray="2"  />
<text id="LGn6_3_n6_51" x="110" y="312" fill="rgb(0,200,0)" >3</text>
<path id="LGn7_3_n7_52" d="M238 291 L 227 289 C 193 288, 207 328  , 233 305  L 240 297 " fill="none" stroke="rgb(0,200,0)" stroke-width="2" stroke-linecap="butt" stroke-dasharray="2"  />
<text id="LGn7_3_n7_53" x="194" y="314" fill="rgb(0,200,0)" >3</text>
<line id="LGn2_0_n3_54" x1="75" y1="372" x2="237" y2="372" stroke="rgb(0,0,0)" stroke-width="2" stroke-linecap="square" />
<text id="LGn2_0_n3_55" x="153" y="392" fill="rgb(0,0,0)" >0</text>
<path id="LGn2_3_n2_56" d="M73 365 L 84 368 C 118 373, 108 331  , 80 351  L 73 359 " fill="none" stroke="rgb(0,200,0)" stroke-width="2" stroke-linecap="butt" stroke-dasharray="2"  />
<text id="LGn2_3_n2_57" x="113" y="357" fill="rgb(0,200,0)" >3</text>
<path id="LGn4_3_n4_58" d="M72 126 L 83 129 C 117 135, 108 93  , 79 113  L 72 120 " fill="none" stroke="rgb(0,200,0)" stroke-width="2" stroke-linecap="butt" stroke-dasharray="2"  />
<text id="LGn4_3_n4_59" x="112" y="119" fill="rgb(0,200,0)" >3</text>
<line id="LGn0_0_n1_60" x1="75" y1="42" x2="237" y2="42" stroke="rgb(0,0,0)" stroke-width="2" stroke-linecap="square" />
<text id="LGn0_0_n1_61" x="153" y="62" fill="rgb(0,0,0)" >0</text>
<line id="LGn6_0_n7_62" x1="73" y1="282" x2="237" y2="282" stroke="rgb(0,0,0)" stroke-width="2" stroke-linecap="square" />
<text id="LGn6_0_n7_63" x="152" y="302" fill="rgb(0,0,0)" >0</text>
<line id="LGn1_2_n5_64" x1="275" y1="80" x2="275" y2="94" stroke="rgb(0,0,200)" stroke-width="1" stroke-linecap="square" />
<text id="LGn1_2_n5_65" x="257" y="92" fill="rgb(0,0,200)" >2</text>
</g>
<g>
<polygon id="0" points="318,36 349,36 349,30 368,42 349,55 349,48 318,48 " stroke="rgb(0,0,0)" stroke-width="1" stroke-linecap="square"  fill="rgb(0,0,0)" />
</g>
<g>
<circle id="RGn1_0" cx="646" cy="42" r="33" fill="none" stroke="rgb(0,0,0)" stroke-width="1" stroke-linecap="square"  />
<text id="RGn1_1" x="639" y="44" fill="rgb(0,0,0)" >&lt;&gt;</text>
<rect id="RGn1_2" x="639" y="62" width="15" height="17" fill="rgb(255,255,255)" />
<text id="RGn1_3" x="640" y="79" fill="rgb(0,0,0)" >n1</text>
<circle id="RGn3_4" cx="646" cy="372" r="33" fill="none" stroke="rgb(0,0,0)" stroke-width="1" stroke-linecap="square"  />
<text id="RGn3_5" x="639" y="374" fill="rgb(0,0,0)" >&lt;&gt;</text>
<rect id="RGn3_6" x="639" y="392" width="15" height="17" fill="rgb(255,255,255)" />
<text id="RGn3_7" x="640" y="409" fill="rgb(0,0,0)" >n3</text>
<circle id="RGn4_8" cx="406" cy="132" r="33" fill="none" stroke="rgb(0,0,0)" stroke-width="1" stroke-linecap="square"  />
<text id="RGn4_9" x="399" y="134" fill="rgb(0,0,0)" >&lt;&gt;</text>
<rect id="RGn4_10" x="399" y="152" width="15" height="17" fill="rgb(255,255,255)" />
<text id="RGn4_11" x="400" y="169" fill="rgb(0,0,0)" >n4</text>
<circle id="RGn7_12" cx="646" cy="282" r="33" fill="none" stroke="rgb(0,0,0)" stroke-width="1" stroke-linecap="square"  />
<text id="RGn7_13" x="639" y="284" fill="rgb(0,0,0)" >&lt;&gt;</text>
<rect id="RGn7_14" x="639" y="302" width="15" height="17" fill="rgb(255,255,255)" />
<text id="RGn7_15" x="640" y="319" fill="rgb(0,0,0)" >n7</text>
<circle id="RGn2_16" cx="406" cy="372" r="33" fill="none" stroke="rgb(0,0,0)" stroke-width="1" stroke-linecap="square"  />
<text id="RGn2_17" x="399" y="374" fill="rgb(0,0,0)" >&lt;&gt;</text>
<rect id="RGn2_18" x="399" y="392" width="15" height="17" fill="rgb(255,255,255)" />
<text id="RGn2_19" x="400" y="409" fill="rgb(0,0,0)" >n2</text>
<circle id="RGn0_20" cx="406" cy="42" r="33" fill="none" stroke="rgb(0,0,0)" stroke-width="1" stroke-linecap="square"  />
<text id="RGn0_21" x="399" y="44" fill="rgb(0,0,0)" >&lt;&gt;</text>
<rect id="RGn0_22" x="399" y="62" width="15" height="17" fill="rgb(255,255,255)" />
<text id="RGn0_23" x="400" y="79" fill="rgb(0,0,0)" >n0</text>
<circle id="RGn6_24" cx="406" cy="282" r="33" fill="none" stroke="rgb(0,0,0)" stroke-width="1" stroke-linecap="square"  />
<text id="RGn6_25" x="399" y="284" fill="rgb(0,0,0)" >&lt;&gt;</text>
<rect id="RGn6_26" x="399" y="302" width="15" height="17" fill="rgb(255,255,255)" />
<text id="RGn6_27" x="400" y="319" fill="rgb(0,0,0)" >n6</text>
<circle id="RGn5_28" cx="646" cy="132" r="33" fill="none" stroke="rgb(0,0,0)" stroke-width="1" stroke-linecap="square"  />
<text id="RGn5_29" x="639" y="134" fill="rgb(0,0,0)" >&lt;&gt;</text>
<rect id="RGn5_30" x="639" y="152" width="15" height="17" fill="rgb(255,255,255)" />
<text id="RGn5_31" x="640" y="169" fill="rgb(0,0,0)" >n5</text>
<line id="RGn4_0_n5_32" x1="444" y1="132" x2="608" y2="132" stroke="rgb(0,0,0)" stroke-width="2" stroke-linecap="square" />
<text id="RGn4_0_n5_33" x="523" y="152" fill="rgb(0,0,0)" >0</text>
<path id="RGn5_2_n5_34" d="M612 113 L 606 104 C 582 80, 564 119  , 599 120  L 610 119 " fill="none" stroke="rgb(0,0,200)" stroke-width="1" stroke-linecap="square"  />
<path id="RGn5_2_n5_35" d="M611 115 L 605 106 C 585 83, 569 119  , 600 118  L 611 117 " fill="none" stroke="rgb(0,0,200)" stroke-width="1" stroke-linecap="square"  />
<text id="RGn5_2_n5_36" x="567" y="103" fill="rgb(0,0,200)" >2</text>
<path id="RGn0_3_n0_37" d="M442 36 L 453 39 C 487 44, 477 2  , 449 22  L 442 30 " fill="none" stroke="rgb(0,200,0)" stroke-width="2" stroke-linecap="butt" stroke-dasharray="2"  />
<text id="RGn0_3_n0_38" x="482" y="28" fill="rgb(0,200,0)" >3</text>
<path id="RGn1_2_n1_39" d="M609 52 L 598 50 C 564 49, 579 90  , 604 66  L 611 58 " fill="none" stroke="rgb(0,0,200)" stroke-width="1" stroke-linecap="square"  />
<path id="RGn1_2_n1_40" d="M610 54 L 599 52 C 568 50, 582 86  , 603 64  L 610 56 " fill="none" stroke="rgb(0,0,200)" stroke-width="1" stroke-linecap="square"  />
<text id="RGn1_2_n1_41" x="565" y="75" fill="rgb(0,0,200)" >2</text>
<path id="RGn7_3_n7_42" d="M608 271 L 601 264 C 572 244, 563 286  , 597 280  L 608 277 " fill="none" stroke="rgb(0,200,0)" stroke-width="2" stroke-linecap="butt" stroke-dasharray="2"  />
<text id="RGn7_3_n7_43" x="561" y="270" fill="rgb(0,200,0)" >3</text>
<line id="RGn2_0_n3_44" x1="444" y1="372" x2="608" y2="372" stroke="rgb(0,0,0)" stroke-width="2" stroke-linecap="square" />
<text id="RGn2_0_n3_45" x="523" y="392" fill="rgb(0,0,0)" >0</text>
<path id="RGn3_3_n3_46" d="M608 380 L 597 378 C 563 375, 576 416  , 603 394  L 610 386 " fill="none" stroke="rgb(0,200,0)" stroke-width="2" stroke-linecap="butt" stroke-dasharray="2"  />
<text id="RGn3_3_n3_47" x="564" y="401" fill="rgb(0,200,0)" >3</text>
<path id="RGn5_3_n5_48" d="M609 142 L 598 141 C 563 140, 579 180  , 604 157  L 611 148 " fill="none" stroke="rgb(0,200,0)" stroke-width="2" stroke-linecap="butt" stroke-dasharray="2"  />
<text id="RGn5_3_n5_49" x="566" y="166" fill="rgb(0,200,0)" >3</text>
<path id="RGn7_2_n7_50" d="M610 294 L 599 294 C 564 295, 583 334  , 606 309  L 612 300 " fill="none" stroke="rgb(0,0,200)" stroke-width="1" stroke-linecap="square"  />
<path id="RGn7_2_n7_51" d="M611 296 L 599 295 C 569 295, 585 331  , 605 307  L 611 298 " fill="none" stroke="rgb(0,0,200)" stroke-width="1" stroke-linecap="square"  />
<text id="RGn7_2_n7_52" x="568" y="320" fill="rgb(0,0,200)" >2</text>
<path id="RGn2_3_n2_53" d="M441 386 L 448 394 C 474 417, 488 376  , 454 378  L 443 380 " fill="none" stroke="rgb(0,200,0)" stroke-width="2" stroke-linecap="butt" stroke-dasharray="2"  />
<text id="RGn2_3_n2_54" x="481" y="402" fill="rgb(0,200,0)" >3</text>
<path id="RGn6_2_n6_55" d="M440 298 L 447 307 C 472 330, 488 290  , 453 291  L 442 292 " fill="none" stroke="rgb(0,0,200)" stroke-width="1" stroke-linecap="square"  />
<path id="RGn6_2_n6_56" d="M441 296 L 447 305 C 469 327, 483 291  , 452 293  L 441 294 " fill="none" stroke="rgb(0,0,200)" stroke-width="1" stroke-linecap="square"  />
<text id="RGn6_2_n6_57" x="479" y="316" fill="rgb(0,0,200)" >2</text>
<path id="RGn3_2_n3_58" d="M612 352 L 607 343 C 584 317, 564 356  , 599 358  L 610 358 " fill="none" stroke="rgb(0,0,200)" stroke-width="1" stroke-linecap="square"  />
<path id="RGn3_2_n3_59" d="M611 354 L 606 345 C 586 321, 569 356  , 599 356  L 611 356 " fill="none" stroke="rgb(0,0,200)" stroke-width="1" stroke-linecap="square"  />
<text id="RGn3_2_n3_60" x="568" y="341" fill="rgb(0,0,200)" >2</text>
<line id="RGn0_0_n1_61" x1="444" y1="42" x2="608" y2="42" stroke="rgb(0,0,0)" stroke-width="2" stroke-linecap="square" />
<text id="RGn0_0_n1_62" x="523" y="62" fill="rgb(0,0,0)" >0</text>
<line id="RGn6_0_n7_63" x1="444" y1="282" x2="608" y2="282" stroke="rgb(0,0,0)" stroke-width="2" stroke-linecap="square" />
<text id="RGn6_0_n7_64" x="523" y="302" fill="rgb(0,0,0)" >0</text>
<path id="RGn4_3_n4_65" d="M441 146 L 448 154 C 474 177, 488 136  , 454 138  L 443 140 " fill="none" stroke="rgb(0,200,0)" stroke-width="2" stroke-linecap="butt" stroke-dasharray="2"  />
<text id="RGn4_3_n4_66" x="481" y="162" fill="rgb(0,200,0)" >3</text>
<path id="RGn4_2_n4_67" d="M442 120 L 453 121 C 488 121, 471 81  , 446 105  L 440 114 " fill="none" stroke="rgb(0,0,200)" stroke-width="1" stroke-linecap="square"  />
<path id="RGn4_2_n4_68" d="M441 118 L 452 119 C 483 121, 468 85  , 447 107  L 441 116 " fill="none" stroke="rgb(0,0,200)" stroke-width="1" stroke-linecap="square"  />
<text id="RGn4_2_n4_69" x="479" y="106" fill="rgb(0,0,200)" >2</text>
<path id="RGn2_2_n2_70" d="M441 358 L 452 358 C 487 356, 468 318  , 445 343  L 439 352 " fill="none" stroke="rgb(0,0,200)" stroke-width="1" stroke-linecap="square"  />
<path id="RGn2_2_n2_71" d="M440 356 L 452 357 C 482 356, 465 321  , 446 345  L 440 354 " fill="none" stroke="rgb(0,0,200)" stroke-width="1" stroke-linecap="square"  />
<text id="RGn2_2_n2_72" x="477" y="341" fill="rgb(0,0,200)" >2</text>
<path id="RGn1_3_n1_73" d="M610 29 L 602 21 C 575 0, 563 42  , 598 38  L 608 35 " fill="none" stroke="rgb(0,200,0)" stroke-width="2" stroke-linecap="butt" stroke-dasharray="2"  />
<text id="RGn1_3_n1_74" x="563" y="26" fill="rgb(0,200,0)" >3</text>
<path id="RGn0_2_n0_75" d="M440 58 L 447 66 C 472 90, 488 50  , 453 51  L 442 52 " fill="none" stroke="rgb(0,0,200)" stroke-width="1" stroke-linecap="square"  />
<path id="RGn0_2_n0_76" d="M441 56 L 447 65 C 469 87, 483 50  , 452 52  L 441 54 " fill="none" stroke="rgb(0,0,200)" stroke-width="1" stroke-linecap="square"  />
<text id="RGn0_2_n0_77" x="480" y="75" fill="rgb(0,0,200)" >2</text>
<path id="RGn6_3_n6_78" d="M443 276 L 454 279 C 488 285, 478 243  , 450 262  L 443 270 " fill="none" stroke="rgb(0,200,0)" stroke-width="2" stroke-linecap="butt" stroke-dasharray="2"  />
<text id="RGn6_3_n6_79" x="483" y="268" fill="rgb(0,200,0)" >3</text>
</g>
</svg>
