<?xml version="1.0" encoding="UTF-8" standalone="no"?>
<svg
   version="1.1"
   font="Noto Sans Regular"
   font-size="12px"
   width="552.33362"
   height="370.62"
   id="svg11702"
   sodipodi:docname="rule-create-square-face-n3-highlight.svg"
   inkscape:version="1.3.2 (091e20ef0f, 2023-11-25, custom)"
   inkscape:export-filename="../wordpress-jerboa/rule-create-square-face.png"
   inkscape:export-xdpi="300"
   inkscape:export-ydpi="300"
   xmlns:inkscape="http://www.inkscape.org/namespaces/inkscape"
   xmlns:sodipodi="http://sodipodi.sourceforge.net/DTD/sodipodi-0.dtd"
   xmlns="http://www.w3.org/2000/svg"
   xmlns:svg="http://www.w3.org/2000/svg">
  <defs
     id="defs11706" />
  <sodipodi:namedview
     id="namedview11704"
     pagecolor="#ffffff"
     bordercolor="#000000"
     borderopacity="0.25"
     inkscape:showpageshadow="2"
     inkscape:pageopacity="0.0"
     inkscape:pagecheckerboard="0"
     inkscape:deskcolor="#d1d1d1"
     showgrid="false"
     inkscape:zoom="2.5712782"
     inkscape:cx="361.49335"
     inkscape:cy="382.68904"
     inkscape:window-width="1892"
     inkscape:window-height="1032"
     inkscape:window-x="9"
     inkscape:window-y="29"
     inkscape:window-maximized="1"
     inkscape:current-layer="svg11702" />
  <polygon
     id="0"
     points="41,117 41,111 60,123 41,136 41,129 10,129 10,117 "
     stroke="#000000"
     stroke-width="1"
     stroke-linecap="square"
     fill="#000000"
     transform="translate(78.133752,56.279612)" />
  <circle
     id="RGn4_0"
     cx="518.83362"
     cy="243.5"
     r="33"
     fill="none"
     stroke="#000000"
     stroke-width="1"
     stroke-linecap="square" />
  <text
     id="RGn4_1"
     x="508.9581"
     y="249.75536"
     fill="#000000"
     style="font-size:17.28px;stroke-width:1.44">&lt;&gt;</text>
  <rect
     id="RGn4_2"
     x="511.83362"
     y="263.5"
     width="15"
     height="17"
     fill="#ffffff" />
  <text
     id="RGn4_3"
     x="509.52042"
     y="278.39551"
     fill="#000000"
     style="font-size:17.28px;stroke-width:1.44">n<tspan
   style="font-size:65%;baseline-shift:sub"
   id="tspan46762">4</tspan></text>
  <circle
     id="RGn1_4"
     cx="308.83362"
     cy="33.5"
     r="33"
     fill="none"
     stroke="#000000"
     stroke-width="1"
     stroke-linecap="square" />
  <text
     id="RGn1_5"
     x="298.9581"
     y="39.75536"
     fill="#000000"
     style="font-size:17.28px;stroke-width:1.44">&lt;&gt;</text>
  <rect
     id="RGn1_6"
     x="301.83362"
     y="53.5"
     width="15"
     height="17"
     fill="#ffffff" />
  <text
     id="RGn1_7"
     x="300.0405"
     y="68.384956"
     fill="#000000"
     style="font-size:17.28px;stroke-width:1.44">n<tspan
   style="font-size:65%;baseline-shift:sub"
   id="tspan46756">1</tspan></text>
  <circle
     id="RGn3_8"
     cx="518.83362"
     cy="123.5"
     r="33"
     fill="none"
     stroke="#000000"
     stroke-width="1"
     stroke-linecap="square"
     style="fill:#ffc000;fill-opacity:0.80000001" />
  <text
     id="RGn3_9"
     x="508.9581"
     y="129.75536"
     fill="#000000"
     style="font-size:17.28px;stroke-width:1.44">&lt;&gt;</text>
  <rect
     id="RGn3_10"
     x="511.83362"
     y="143.5"
     width="15"
     height="17"
     fill="#ffffff" />
  <text
     id="RGn3_11"
     x="509.6181"
     y="158.38495"
     fill="#000000"
     style="font-size:17.28px;stroke-width:1.44">n<tspan
   style="font-size:65%;baseline-shift:sub"
   id="tspan46760">3</tspan></text>
  <circle
     id="RGn7_12"
     cx="218.83363"
     cy="243.5"
     r="33"
     fill="none"
     stroke="#000000"
     stroke-width="1"
     stroke-linecap="square" />
  <text
     id="RGn7_13"
     x="208.95811"
     y="249.75536"
     fill="#000000"
     style="font-size:17.28px;stroke-width:1.44">&lt;&gt;</text>
  <rect
     id="RGn7_14"
     x="211.83363"
     y="263.5"
     width="15"
     height="17"
     fill="#ffffff" />
  <text
     id="RGn7_15"
     x="209.59698"
     y="278.38498"
     fill="#000000"
     style="font-size:17.28px;stroke-width:1.44">n<tspan
   style="font-size:65%;baseline-shift:sub"
   id="tspan46768">7</tspan></text>
  <circle
     id="RGn6_16"
     cx="308.83362"
     cy="333.5"
     r="33"
     fill="none"
     stroke="#000000"
     stroke-width="1"
     stroke-linecap="square"
     style="fill:none;fill-opacity:0.80000001" />
  <text
     id="RGn6_17"
     x="298.9581"
     y="339.75537"
     fill="#000000"
     style="font-size:17.28px;stroke-width:1.44">&lt;&gt;</text>
  <rect
     id="RGn6_18"
     x="301.83362"
     y="353.5"
     width="15"
     height="17"
     fill="#ffffff" />
  <text
     id="RGn6_19"
     x="299.59171"
     y="368.38498"
     fill="#000000"
     style="font-size:17.28px;stroke-width:1.44">n<tspan
   style="font-size:65%;baseline-shift:sub"
   id="tspan46766">6</tspan></text>
  <circle
     id="RGn2_20"
     cx="428.83362"
     cy="33.5"
     r="33"
     fill="none"
     stroke="#000000"
     stroke-width="1"
     stroke-linecap="square" />
  <text
     id="RGn2_21"
     x="418.9581"
     y="39.75536"
     fill="#000000"
     style="font-size:17.28px;stroke-width:1.44">&lt;&gt;</text>
  <rect
     id="RGn2_22"
     x="421.83362"
     y="53.5"
     width="15"
     height="17"
     fill="#ffffff" />
  <text
     id="RGn2_23"
     x="419.60492"
     y="68.411354"
     fill="#000000"
     style="font-size:17.28px;stroke-width:1.44">n<tspan
   style="font-size:65%;baseline-shift:sub"
   id="tspan46758">2</tspan></text>
  <circle
     id="RGn0_24"
     cx="218.83363"
     cy="123.5"
     r="33"
     fill="none"
     stroke="#000000"
     stroke-width="1"
     stroke-linecap="square" />
  <text
     id="RGn0_25"
     x="208.95811"
     y="129.75536"
     fill="#000000"
     style="font-size:17.28px;stroke-width:1.44">&lt;&gt;</text>
  <rect
     id="RGn0_26"
     x="211.83363"
     y="143.5"
     width="15"
     height="17"
     fill="#ffffff" />
  <text
     id="RGn0_27"
     x="209.59698"
     y="158.3876"
     fill="#000000"
     style="font-size:17.28px;stroke-width:1.44">n<tspan
   style="font-size:65%;baseline-shift:sub"
   id="tspan46754">0</tspan></text>
  <circle
     id="RGn5_28"
     cx="428.83362"
     cy="333.5"
     r="33"
     fill="none"
     stroke="#000000"
     stroke-width="1"
     stroke-linecap="square" />
  <text
     id="RGn5_29"
     x="418.9581"
     y="339.75537"
     fill="#000000"
     style="font-size:17.28px;stroke-width:1.44">&lt;&gt;</text>
  <rect
     id="RGn5_30"
     x="421.83362"
     y="353.5"
     width="15"
     height="17"
     fill="#ffffff" />
  <text
     id="RGn5_31"
     x="419.6181"
     y="368.35855"
     fill="#000000"
     style="font-size:17.28px;stroke-width:1.44">n<tspan
   style="font-size:65%;baseline-shift:sub"
   id="tspan46764">5</tspan></text>
  <line
     id="RGn6_1_n7_32"
     x1="281.83362"
     y1="306.5"
     x2="244.83363"
     y2="269.5"
     stroke="#c80000"
     stroke-width="1"
     stroke-linecap="butt"
     stroke-dasharray="5" />
  <text
     id="RGn6_1_n7_33"
     x="250.66147"
     y="302.38498"
     fill="#c80000"
     style="font-size:17.28px;stroke-width:1.44">1</text>
  <path
     id="RGn3_2_n3_34"
     d="m 484.83363,141.5 -11,2 c -33,7 -8,43 11,14 l 4,-10"
     fill="none"
     stroke="#0000c8"
     stroke-width="1"
     stroke-linecap="square" />
  <path
     id="RGn3_2_n3_35"
     d="m 485.83363,143.5 -11,1 c -30,5 -7,38 8,11 l 5,-10"
     fill="none"
     stroke="#0000c8"
     stroke-width="1"
     stroke-linecap="square" />
  <text
     id="RGn3_2_n3_36"
     x="446.33408"
     y="177.41136"
     fill="#0000c8"
     style="font-size:17.28px;stroke-width:1.44">2</text>
  <path
     id="RGn2_2_n2_37"
     d="m 418.83363,70.5 -7,8 c -18,29 24,37 17,3 l -4,-11"
     fill="none"
     stroke="#0000c8"
     stroke-width="1"
     stroke-linecap="square" />
  <path
     id="RGn2_2_n2_38"
     d="m 420.83363,70.5 -7,8 c -17,26 21,32 13,3 l -4,-11"
     fill="none"
     stroke="#0000c8"
     stroke-width="1"
     stroke-linecap="square" />
  <text
     id="RGn2_2_n2_39"
     x="410.33408"
     y="121.41135"
     fill="#0000c8"
     style="font-size:17.28px;stroke-width:1.44">2</text>
  <path
     id="RGn1_3_n1_40"
     d="m 310.83363,70.5 -4,11 c -8,33 34,27 17,-3 l -7,-8"
     fill="none"
     stroke="#00c800"
     stroke-width="2"
     stroke-linecap="butt"
     stroke-dasharray="2" />
  <text
     id="RGn1_3_n1_41"
     x="315.35522"
     y="121.38496"
     fill="#00c800"
     style="font-size:17.28px;stroke-width:1.44">3</text>
  <line
     id="RGn5_0_n6_42"
     x1="390.83362"
     y1="333.5"
     x2="346.83362"
     y2="333.5"
     stroke="#000000"
     stroke-width="2"
     stroke-linecap="square" />
  <text
     id="RGn5_0_n6_43"
     x="364.32355"
     y="325.3876"
     fill="#000000"
     style="font-size:17.28px;stroke-width:1.44">0</text>
  <path
     id="RGn7_2_n7_44"
     d="m 250.83363,222.5 11,-3 c 33,-8 6,-43 -11,-13 l -4,10"
     fill="none"
     stroke="#0000c8"
     stroke-width="1"
     stroke-linecap="square" />
  <path
     id="RGn7_2_n7_45"
     d="m 249.83363,220.5 11,-1 c 30,-7 5,-39 -9,-11 l -4,10"
     fill="none"
     stroke="#0000c8"
     stroke-width="1"
     stroke-linecap="square" />
  <text
     id="RGn7_2_n7_46"
     x="279.33411"
     y="199.41136"
     fill="#0000c8"
     style="font-size:17.28px;stroke-width:1.44">2</text>
  <path
     id="RGn0_2_n0_47"
     d="m 255.83363,129.5 9,6 c 30,17 35,-26 1,-16 l -10,4"
     fill="none"
     stroke="#0000c8"
     stroke-width="1"
     stroke-linecap="square" />
  <path
     id="RGn0_2_n0_48"
     d="m 255.83363,127.5 9,7 c 26,15 30,-23 1,-13 l -10,4"
     fill="none"
     stroke="#0000c8"
     stroke-width="1"
     stroke-linecap="square" />
  <text
     id="RGn0_2_n0_49"
     x="295.33411"
     y="137.41136"
     fill="#0000c8"
     style="font-size:17.28px;stroke-width:1.44">2</text>
  <path
     id="RGn1_2_n1_50"
     d="m 325.83363,67.5 1,11 c 5,34 43,10 14,-10 l -9,-5"
     fill="none"
     stroke="#0000c8"
     stroke-width="1"
     stroke-linecap="square" />
  <path
     id="RGn1_2_n1_51"
     d="m 327.83363,66.5 1,11 c 3,30 37,9 11,-8 l -10,-5"
     fill="none"
     stroke="#0000c8"
     stroke-width="1"
     stroke-linecap="square" />
  <text
     id="RGn1_2_n1_52"
     x="348.33411"
     y="109.41135"
     fill="#0000c8"
     style="font-size:17.28px;stroke-width:1.44">2</text>
  <path
     id="RGn4_3_n4_53"
     d="m 489.83363,217.5 -4,-10 c -18,-29 -44,6 -11,14 l 11,2"
     fill="none"
     stroke="#00c800"
     stroke-width="2"
     stroke-linecap="butt"
     stroke-dasharray="2" />
  <text
     id="RGn4_3_n4_54"
     x="447.35522"
     y="201.38495"
     fill="#00c800"
     style="font-size:17.28px;stroke-width:1.44">3</text>
  <line
     id="RGn2_1_n3_55"
     x1="454.83362"
     y1="59.5"
     x2="491.83362"
     y2="96.5"
     stroke="#c80000"
     stroke-width="1"
     stroke-linecap="butt"
     stroke-dasharray="5" />
  <text
     id="RGn2_1_n3_56"
     x="476.66144"
     y="74.384956"
     fill="#c80000"
     style="font-size:17.28px;stroke-width:1.44">1</text>
  <line
     id="RGn0_1_n1_57"
     x1="244.83363"
     y1="96.5"
     x2="281.83362"
     y2="59.5"
     stroke="#c80000"
     stroke-width="1"
     stroke-linecap="butt"
     stroke-dasharray="5" />
  <text
     id="RGn0_1_n1_58"
     x="250.66147"
     y="74.384956"
     fill="#c80000"
     style="font-size:17.28px;stroke-width:1.44">1</text>
  <path
     id="RGn4_2_n4_59"
     d="m 480.83363,233.5 -8,-7 c -29,-18 -37,24 -3,17 l 11,-4"
     fill="none"
     stroke="#0000c8"
     stroke-width="1"
     stroke-linecap="square" />
  <path
     id="RGn4_2_n4_60"
     d="m 480.83363,235.5 -8,-7 c -25,-18 -32,21 -3,13 l 11,-4"
     fill="none"
     stroke="#0000c8"
     stroke-width="1"
     stroke-linecap="square" />
  <text
     id="RGn4_2_n4_61"
     x="432.33408"
     y="236.41136"
     fill="#0000c8"
     style="font-size:17.28px;stroke-width:1.44">2</text>
  <line
     id="RGn1_0_n2_62"
     x1="346.83362"
     y1="33.5"
     x2="390.83362"
     y2="33.5"
     stroke="#000000"
     stroke-width="2"
     stroke-linecap="square" />
  <text
     id="RGn1_0_n2_63"
     x="364.32355"
     y="55.3876"
     fill="#000000"
     style="font-size:17.28px;stroke-width:1.44">0</text>
  <path
     id="RGn6_3_n6_64"
     d="m 332.83363,303.5 10,-5 c 29,-18 -7,-44 -14,-10 l -2,11"
     fill="none"
     stroke="#00c800"
     stroke-width="2"
     stroke-linecap="butt"
     stroke-dasharray="2" />
  <text
     id="RGn6_3_n6_65"
     x="350.35522"
     y="272.38498"
     fill="#00c800"
     style="font-size:17.28px;stroke-width:1.44">3</text>
  <line
     id="RGn4_1_n5_66"
     x1="491.83362"
     y1="269.5"
     x2="454.83362"
     y2="306.5"
     stroke="#c80000"
     stroke-width="1"
     stroke-linecap="butt"
     stroke-dasharray="5" />
  <text
     id="RGn4_1_n5_67"
     x="476.66144"
     y="302.38498"
     fill="#c80000"
     style="font-size:17.28px;stroke-width:1.44">1</text>
  <path
     id="RGn5_2_n5_68"
     d="m 408.83363,300.5 -2,-11 c -7,-33 -43,-8 -14,11 l 10,4"
     fill="none"
     stroke="#0000c8"
     stroke-width="1"
     stroke-linecap="square" />
  <path
     id="RGn5_2_n5_69"
     d="m 406.83363,301.5 -1,-11 c -5,-30 -38,-7 -11,8 l 10,5"
     fill="none"
     stroke="#0000c8"
     stroke-width="1"
     stroke-linecap="square" />
  <text
     id="RGn5_2_n5_70"
     x="375.33411"
     y="273.41138"
     fill="#0000c8"
     style="font-size:17.28px;stroke-width:1.44">2</text>
  <path
     id="RGn5_3_n5_71"
     d="m 427.83363,295.5 5,-10 c 10,-33 -33,-29 -17,1 l 6,9"
     fill="none"
     stroke="#00c800"
     stroke-width="2"
     stroke-linecap="butt"
     stroke-dasharray="2" />
  <text
     id="RGn5_3_n5_72"
     x="417.35522"
     y="258.38498"
     fill="#00c800"
     style="font-size:17.28px;stroke-width:1.44">3</text>
  <path
     id="RGn6_2_n6_73"
     d="m 314.83363,295.5 6,-9 c 17,-30 -26,-34 -16,-1 l 4,10"
     fill="none"
     stroke="#0000c8"
     stroke-width="1"
     stroke-linecap="square" />
  <path
     id="RGn6_2_n6_74"
     d="m 312.83363,295.5 6,-9 c 16,-26 -23,-30 -12,-1 l 4,10"
     fill="none"
     stroke="#0000c8"
     stroke-width="1"
     stroke-linecap="square" />
  <text
     id="RGn6_2_n6_75"
     x="311.33411"
     y="258.41138"
     fill="#0000c8"
     style="font-size:17.28px;stroke-width:1.44">2</text>
  <path
     id="RGn2_3_n2_76"
     d="m 403.83363,62.5 -10,5 c -28,19 8,44 14,10 l 2,-11"
     fill="none"
     stroke="#00c800"
     stroke-width="2"
     stroke-linecap="butt"
     stroke-dasharray="2" />
  <text
     id="RGn2_3_n2_77"
     x="377.35522"
     y="108.38496"
     fill="#00c800"
     style="font-size:17.28px;stroke-width:1.44">3</text>
  <path
     id="RGn0_3_n0_78"
     d="m 248.83363,145.5 5,9 c 21,28 44,-9 10,-14 l -11,-1"
     fill="none"
     stroke="#00c800"
     stroke-width="2"
     stroke-linecap="butt"
     stroke-dasharray="2" />
  <text
     id="RGn0_3_n0_79"
     x="284.35522"
     y="172.38495"
     fill="#00c800"
     style="font-size:17.28px;stroke-width:1.44">3</text>
  <line
     id="RGn7_0_n0_80"
     x1="218.83363"
     y1="205.5"
     x2="218.83363"
     y2="161.5"
     stroke="#000000"
     stroke-width="2"
     stroke-linecap="square" />
  <text
     id="RGn7_0_n0_81"
     x="229.32355"
     y="190.3876"
     fill="#000000"
     style="font-size:17.28px;stroke-width:1.44">0</text>
  <path
     id="RGn7_3_n7_82"
     d="m 255.83363,240.5 11,4 c 33,8 27,-34 -3,-17 l -8,7"
     fill="none"
     stroke="#00c800"
     stroke-width="2"
     stroke-linecap="butt"
     stroke-dasharray="2" />
  <text
     id="RGn7_3_n7_83"
     x="295.35522"
     y="238.38495"
     fill="#00c800"
     style="font-size:17.28px;stroke-width:1.44">3</text>
  <line
     id="RGn3_0_n4_84"
     x1="518.83362"
     y1="161.5"
     x2="518.83362"
     y2="205.5"
     stroke="#000000"
     stroke-width="2"
     stroke-linecap="square" />
  <text
     id="RGn3_0_n4_85"
     x="499.32355"
     y="190.3876"
     fill="#000000"
     style="font-size:17.28px;stroke-width:1.44">0</text>
  <path
     id="RGn3_3_n3_86"
     d="m 480.83363,124.5 -11,-4 c -33,-9 -28,33 3,17 l 8,-7"
     fill="none"
     stroke="#00c800"
     stroke-width="2"
     stroke-linecap="butt"
     stroke-dasharray="2" />
  <text
     id="RGn3_3_n3_87"
     x="432.35522"
     y="139.38495"
     fill="#00c800"
     style="font-size:17.28px;stroke-width:1.44">3</text>
  <text
     xml:space="preserve"
     style="font-style:normal;font-variant:normal;font-weight:normal;font-stretch:normal;font-size:96px;font-family:'Liberation Serif';-inkscape-font-specification:'Liberation Serif, Normal';font-variant-ligatures:normal;font-variant-caps:normal;font-variant-numeric:normal;font-variant-east-asian:normal;fill:#000000;fill-opacity:0.997918;stroke:none;stroke-width:3.78;stroke-linecap:round;stroke-linejoin:round;stroke-opacity:0.754646;stop-color:#000000"
     x="-3.28125"
     y="201.78438"
     id="text585"><tspan
       sodipodi:role="line"
       id="tspan691"
       x="-3.28125"
       y="201.78438">ø</tspan></text>
</svg>
