<?xml version="1.0" encoding="UTF-8" standalone="no"?>
<svg
   version="1.1"
   font="Noto Sans Regular"
   font-size="12px"
   width="615"
   height="94.807999"
   id="svg3"
   sodipodi:docname="rule-extrusion-face-edge-2D.svg"
   inkscape:version="1.4 (e7c3feb100, 2024-10-09)"
   xmlns:inkscape="http://www.inkscape.org/namespaces/inkscape"
   xmlns:sodipodi="http://sodipodi.sourceforge.net/DTD/sodipodi-0.dtd"
   xmlns="http://www.w3.org/2000/svg"
   xmlns:svg="http://www.w3.org/2000/svg">
  <defs
     id="defs3" />
  <sodipodi:namedview
     id="namedview3"
     pagecolor="#ffffff"
     bordercolor="#000000"
     borderopacity="0.25"
     inkscape:showpageshadow="2"
     inkscape:pageopacity="0.0"
     inkscape:pagecheckerboard="0"
     inkscape:deskcolor="#d1d1d1"
     showgrid="false"
     inkscape:zoom="1.2972536"
     inkscape:cx="186.54795"
     inkscape:cy="114.47261"
     inkscape:window-width="1892"
     inkscape:window-height="1035"
     inkscape:window-x="1929"
     inkscape:window-y="26"
     inkscape:window-maximized="1"
     inkscape:current-layer="svg3" />
  <circle
     id="LGn0_0"
     cx="35.5"
     cy="57.688"
     r="33"
     fill="none"
     stroke="#000000"
     stroke-width="1"
     stroke-linecap="square" />
  <circle
     id="LGn0_1"
     cx="35.5"
     cy="57.688"
     r="35"
     fill="none"
     stroke="#000000"
     stroke-width="1"
     stroke-linecap="square" />
  <text
     id="LGn0_2"
     x="25.209993"
     y="59.688"
     fill="#000000">&lt;0&gt;</text>
  <rect
     id="LGn0_3"
     x="28.5"
     y="77.688004"
     width="15"
     height="17"
     fill="#ffffff" />
  <text
     id="LGn0_4"
     x="29.5"
     y="94.688004"
     fill="#000000">n0</text>
  <path
     id="LGn0_2_n0_5"
     d="m 75.5,60.688 9,6 c 32,13 33,-30 1,-17 l -10,5"
     fill="none"
     stroke="#0000c8"
     stroke-width="1"
     stroke-linecap="square" />
  <text
     id="LGn0_2_n0_7"
     x="116.5"
     y="62.688"
     fill="#0000c8">2</text>
  <polygon
     id="0"
     points="164,81 164,74 133,74 133,62 164,62 164,56 183,68 "
     stroke="#000000"
     stroke-width="1"
     stroke-linecap="square"
     fill="#000000"
     transform="translate(0.5,-10.312)" />
  <circle
     id="RGn1_0"
     cx="311.5"
     cy="57.688"
     r="33"
     fill="none"
     stroke="#000000"
     stroke-width="1"
     stroke-linecap="square" />
  <text
     id="RGn1_1"
     x="301.20999"
     y="61.978001"
     fill="#000000">&lt;0&gt;</text>
  <rect
     id="RGn1_2"
     x="304.5"
     y="77.688004"
     width="15"
     height="17"
     fill="#ffffff" />
  <text
     id="RGn1_3"
     x="305.5"
     y="94.688004"
     fill="#000000">n1</text>
  <circle
     id="RGn2_4"
     cx="401.5"
     cy="57.688"
     r="33"
     fill="none"
     stroke="#000000"
     stroke-width="1"
     stroke-linecap="square" />
  <text
     id="RGn2_5"
     x="391.978"
     y="60.411999"
     fill="#000000">&lt;_&gt;</text>
  <rect
     id="RGn2_6"
     x="394.5"
     y="77.688004"
     width="15"
     height="17"
     fill="#ffffff" />
  <text
     id="RGn2_7"
     x="395.5"
     y="94.688004"
     fill="#000000">n2</text>
  <circle
     id="RGn3_8"
     cx="491.5"
     cy="57.688"
     r="33"
     fill="none"
     stroke="#000000"
     stroke-width="1"
     stroke-linecap="square" />
  <text
     id="RGn3_9"
     x="481.978"
     y="59.688"
     fill="#000000">&lt;_&gt;</text>
  <rect
     id="RGn3_10"
     x="484.5"
     y="77.688004"
     width="15"
     height="17"
     fill="#ffffff" />
  <text
     id="RGn3_11"
     x="485.5"
     y="94.688004"
     fill="#000000">n3</text>
  <circle
     id="RGn0_12"
     cx="221.5"
     cy="57.688"
     r="33"
     fill="none"
     stroke="#000000"
     stroke-width="1"
     stroke-linecap="square" />
  <text
     id="RGn0_13"
     x="211.20999"
     y="61.978001"
     fill="#000000">&lt;0&gt;</text>
  <rect
     id="RGn0_14"
     x="214.5"
     y="77.688004"
     width="15"
     height="17"
     fill="#ffffff" />
  <text
     id="RGn0_15"
     x="215.5"
     y="94.688004"
     fill="#000000">n0</text>
  <circle
     id="RGn4_16"
     cx="581.5"
     cy="57.688"
     r="33"
     fill="none"
     stroke="#000000"
     stroke-width="1"
     stroke-linecap="square" />
  <text
     id="RGn4_17"
     x="571.21002"
     y="61.978001"
     fill="#000000">&lt;0&gt;</text>
  <rect
     id="RGn4_18"
     x="574.5"
     y="77.688004"
     width="15"
     height="17"
     fill="#ffffff" />
  <text
     id="RGn4_19"
     x="575.5"
     y="94.688004"
     fill="#000000">n4</text>
  <line
     id="RGn2_0_n3_20"
     x1="439.5"
     y1="57.688"
     x2="453.5"
     y2="57.688"
     stroke="#000000"
     stroke-width="2"
     stroke-linecap="square" />
  <text
     id="RGn2_0_n3_21"
     x="443.5"
     y="77.688004"
     fill="#000000">0</text>
  <line
     id="RGn4_1_n3_22"
     x1="543.5"
     y1="57.688"
     x2="529.5"
     y2="57.688"
     stroke="#c80000"
     stroke-width="1"
     stroke-linecap="butt"
     stroke-dasharray="5"
     style="stroke-dasharray:none" />
  <text
     id="RGn4_1_n3_23"
     x="533.5"
     y="47.688"
     fill="#c80000">1</text>
  <line
     id="RGn0_2_n1_24"
     x1="259.5"
     y1="57.688"
     x2="273.5"
     y2="57.688"
     stroke="#0000c8"
     stroke-width="1"
     stroke-linecap="square" />
  <text
     id="RGn0_2_n1_25"
     x="263.5"
     y="77.688004"
     fill="#0000c8">2</text>
  <path
     id="RGn4_2_n4_26"
     d="m 553.5,29.688 -3,-10 c -16,-30 -45,3 -12,13 l 11,3"
     fill="none"
     stroke="#0000c8"
     stroke-width="1"
     stroke-linecap="square" />
  <text
     id="RGn4_2_n4_28"
     x="514.5"
     y="8.6879997"
     fill="#0000c8">2</text>
  <path
     id="RGn3_2_n3_29"
     d="m 463.5,29.688 -4,-10 c -16,-30 -44,4 -11,13 l 11,3"
     fill="none"
     stroke="#0000c8"
     stroke-width="1"
     stroke-linecap="square" />
  <text
     id="RGn3_2_n3_31"
     x="424.5"
     y="9.6879997"
     fill="#0000c8">2</text>
  <line
     id="RGn1_1_n2_32"
     x1="349.5"
     y1="57.688"
     x2="363.5"
     y2="57.688"
     stroke="#c80000"
     stroke-width="1"
     stroke-linecap="butt"
     stroke-dasharray="5"
     style="stroke-dasharray:none" />
  <text
     id="RGn1_1_n2_33"
     x="353.5"
     y="77.688004"
     fill="#c80000">1</text>
  <path
     id="RGn2_2_n2_34"
     d="m 373.5,30.688 -4,-10 c -17,-30 -44,4 -11,13 l 11,3"
     fill="none"
     stroke="#0000c8"
     stroke-width="1"
     stroke-linecap="square" />
  <text
     id="RGn2_2_n2_36"
     x="333.5"
     y="10.688"
     fill="#0000c8">2</text>
</svg>
