<?xml version="1.0" encoding="UTF-8" standalone="no"?>
<svg
   version="1.1"
   font="Noto Sans Regular"
   font-size="12px"
   width="680"
   height="370.62"
   id="svg3"
   sodipodi:docname="rule-cas-particulier-fusion-2-depliee.svg"
   inkscape:version="1.4 (e7c3feb100, 2024-10-09)"
   xmlns:inkscape="http://www.inkscape.org/namespaces/inkscape"
   xmlns:sodipodi="http://sodipodi.sourceforge.net/DTD/sodipodi-0.dtd"
   xmlns="http://www.w3.org/2000/svg"
   xmlns:svg="http://www.w3.org/2000/svg">
  <defs
     id="defs3" />
  <sodipodi:namedview
     id="namedview3"
     pagecolor="#ffffff"
     bordercolor="#000000"
     borderopacity="0.25"
     inkscape:showpageshadow="2"
     inkscape:pageopacity="0.0"
     inkscape:pagecheckerboard="0"
     inkscape:deskcolor="#d1d1d1"
     showgrid="false"
     inkscape:zoom="1.2911935"
     inkscape:cx="332.63798"
     inkscape:cy="194.39379"
     inkscape:window-width="1892"
     inkscape:window-height="1035"
     inkscape:window-x="9"
     inkscape:window-y="26"
     inkscape:window-maximized="1"
     inkscape:current-layer="svg3" />
  <text
     id="LGn1_1"
     x="265.44531"
     y="6.2617188"
     fill="#000000" />
  <text
     id="LGn5_5"
     x="265.44531"
     y="96.261719"
     fill="#000000" />
  <circle
     id="LGn7_8"
     cx="275.5"
     cy="242.5"
     r="33"
     fill="none"
     stroke="#000000"
     stroke-width="1"
     stroke-linecap="square" />
  <text
     id="LGn7_9"
     x="265.44531"
     y="244.5"
     fill="#000000" />
  <rect
     id="LGn7_10"
     x="268.5"
     y="262.5"
     width="15"
     height="17"
     fill="#ffffff" />
  <text
     id="LGn7_11"
     x="269.5"
     y="279.5"
     fill="#000000">n7</text>
  <text
     id="LGn0_14"
     x="25.445312"
     y="6.2617188"
     fill="#000000" />
  <circle
     id="LGn6_17"
     cx="35.5"
     cy="242.5"
     r="33"
     fill="none"
     stroke="#000000"
     stroke-width="1"
     stroke-linecap="square" />
  <circle
     id="LGn6_18"
     cx="35.5"
     cy="242.5"
     r="35"
     fill="none"
     stroke="#000000"
     stroke-width="1"
     stroke-linecap="square" />
  <text
     id="LGn6_19"
     x="25.445312"
     y="246.26172"
     fill="#000000" />
  <rect
     id="LGn6_20"
     x="28.5"
     y="262.5"
     width="15"
     height="17"
     fill="#ffffff" />
  <text
     id="LGn6_21"
     x="29.5"
     y="279.5"
     fill="#000000">n6</text>
  <circle
     id="LGn2_22"
     cx="35.5"
     cy="332.5"
     r="33"
     fill="none"
     stroke="#000000"
     stroke-width="1"
     stroke-linecap="square" />
  <circle
     id="LGn2_23"
     cx="35.5"
     cy="332.5"
     r="35"
     fill="none"
     stroke="#000000"
     stroke-width="1"
     stroke-linecap="square" />
  <text
     id="LGn2_24"
     x="25.445312"
     y="336.26172"
     fill="#000000" />
  <rect
     id="LGn2_25"
     x="28.5"
     y="352.5"
     width="15"
     height="17"
     fill="#ffffff" />
  <text
     id="LGn2_26"
     x="29.5"
     y="369.5"
     fill="#000000">n2</text>
  <circle
     id="LGn3_27"
     cx="275.5"
     cy="332.5"
     r="33"
     fill="none"
     stroke="#000000"
     stroke-width="1"
     stroke-linecap="square" />
  <text
     id="LGn3_28"
     x="265.44531"
     y="336.26172"
     fill="#000000" />
  <rect
     id="LGn3_29"
     x="268.5"
     y="352.5"
     width="15"
     height="17"
     fill="#ffffff" />
  <text
     id="LGn3_30"
     x="269.5"
     y="369.5"
     fill="#000000">n3</text>
  <text
     id="LGn4_33"
     x="25.445312"
     y="96.261719"
     fill="#000000" />
  <path
     id="LGn6_2_n6_37"
     d="m 72.5,257.5 6,9 c 22,22 36,-14 5,-12 l -11,1"
     fill="none"
     stroke="#0000c8"
     stroke-width="1"
     stroke-linecap="square" />
  <text
     id="LGn6_2_n6_38"
     x="110.5"
     y="277.5"
     fill="#0000c8">2</text>
  <path
     id="LGn3_2_n3_45"
     d="m 239.5,316.5 -6,-9 c -21,-22 -36,14 -5,12 l 11,-1"
     fill="none"
     stroke="#0000c8"
     stroke-width="1"
     stroke-linecap="square" />
  <text
     id="LGn3_2_n3_46"
     x="195.5"
     y="306.5"
     fill="#0000c8">2</text>
  <path
     id="LGn7_2_n7_51"
     d="m 240.5,257.5 h -12 c -30,1 -13,35 7,11 l 5,-9"
     fill="none"
     stroke="#0000c8"
     stroke-width="1"
     stroke-linecap="square" />
  <text
     id="LGn7_2_n7_52"
     x="197.5"
     y="283.5"
     fill="#0000c8">2</text>
  <path
     id="LGn3_3_n3_59"
     d="m 239.5,344.5 -11,-1 c -35,1 -17,41 7,16 l 6,-9"
     fill="none"
     stroke="#00c800"
     stroke-width="2"
     stroke-linecap="butt"
     stroke-dasharray="2"
     style="stroke-width:1;stroke-dasharray:none" />
  <text
     id="LGn3_3_n3_60"
     x="196.5"
     y="370.5"
     fill="#00c800">3</text>
  <path
     id="LGn6_3_n6_61"
     d="m 72.5,228.5 11,1 c 35,-1 17,-41 -7,-16 l -6,9"
     fill="none"
     stroke="#00c800"
     stroke-width="2"
     stroke-linecap="butt"
     stroke-dasharray="2"
     style="stroke-width:1;stroke-dasharray:none" />
  <text
     id="LGn6_3_n6_62"
     x="109.5"
     y="212.5"
     fill="#00c800">3</text>
  <path
     id="LGn7_3_n7_63"
     d="m 240.5,224.5 -6,-9 c -25,-24 -42,16 -7,16 l 11,-1"
     fill="none"
     stroke="#00c800"
     stroke-width="2"
     stroke-linecap="butt"
     stroke-dasharray="2"
     style="stroke-width:1;stroke-dasharray:none" />
  <text
     id="LGn7_3_n7_64"
     x="195.5"
     y="215.5"
     fill="#00c800">3</text>
  <line
     id="LGn2_0_n3_65"
     x1="75.5"
     y1="332.5"
     x2="237.5"
     y2="332.5"
     stroke="#000000"
     stroke-width="2"
     stroke-linecap="square" />
  <text
     id="LGn2_0_n3_66"
     x="153.5"
     y="352.5"
     fill="#000000">0</text>
  <path
     id="LGn2_3_n2_67"
     d="m 70.5,350.5 6,9 c 25,24 42,-16 7,-16 l -11,1"
     fill="none"
     stroke="#00c800"
     stroke-width="2"
     stroke-linecap="butt"
     stroke-dasharray="2"
     style="stroke-width:1;stroke-dasharray:none" />
  <text
     id="LGn2_3_n2_68"
     x="109.5"
     y="369.5"
     fill="#00c800">3</text>
  <path
     id="LGn2_2_n2_75"
     d="m 72.5,320.5 11,2 c 31,3 18,-34 -4,-12 l -7,8"
     fill="none"
     stroke="#0000c8"
     stroke-width="1"
     stroke-linecap="square" />
  <text
     id="LGn2_2_n2_76"
     x="111.5"
     y="310.5"
     fill="#0000c8">2</text>
  <line
     id="LGn6_0_n7_79"
     x1="75.5"
     y1="242.5"
     x2="237.5"
     y2="242.5"
     stroke="#000000"
     stroke-width="2"
     stroke-linecap="square" />
  <text
     id="LGn6_0_n7_80"
     x="153.5"
     y="262.5"
     fill="#000000">0</text>
  <g
     id="g1"
     transform="translate(0,-0.21825)">
    <circle
       id="LGn1_0"
       cx="275.5"
       cy="38.90625"
       r="33"
       fill="none"
       stroke="#000000"
       stroke-width="1"
       stroke-linecap="square" />
    <rect
       id="LGn1_2"
       x="268.5"
       y="58.90625"
       width="15"
       height="17"
       fill="#ffffff" />
    <text
       id="LGn1_3"
       x="269.5"
       y="75.90625"
       fill="#000000">n1</text>
    <circle
       id="LGn5_4"
       cx="275.5"
       cy="128.90625"
       r="33"
       fill="none"
       stroke="#000000"
       stroke-width="1"
       stroke-linecap="square" />
    <rect
       id="LGn5_6"
       x="268.5"
       y="148.90625"
       width="15"
       height="17"
       fill="#ffffff" />
    <text
       id="LGn5_7"
       x="269.5"
       y="165.90625"
       fill="#000000">n5</text>
    <circle
       id="LGn0_12"
       cx="35.5"
       cy="38.90625"
       r="33"
       fill="none"
       stroke="#000000"
       stroke-width="1"
       stroke-linecap="square" />
    <circle
       id="LGn0_13"
       cx="35.5"
       cy="38.90625"
       r="35"
       fill="none"
       stroke="#000000"
       stroke-width="1"
       stroke-linecap="square" />
    <rect
       id="LGn0_15"
       x="28.5"
       y="58.90625"
       width="15"
       height="17"
       fill="#ffffff" />
    <text
       id="LGn0_16"
       x="29.5"
       y="75.90625"
       fill="#000000">n0</text>
    <circle
       id="LGn4_31"
       cx="35.5"
       cy="128.90625"
       r="33"
       fill="none"
       stroke="#000000"
       stroke-width="1"
       stroke-linecap="square" />
    <circle
       id="LGn4_32"
       cx="35.5"
       cy="128.90625"
       r="35"
       fill="none"
       stroke="#000000"
       stroke-width="1"
       stroke-linecap="square" />
    <rect
       id="LGn4_34"
       x="28.5"
       y="148.90625"
       width="15"
       height="17"
       fill="#ffffff" />
    <text
       id="LGn4_35"
       x="29.5"
       y="165.90625"
       fill="#000000">n4</text>
    <path
       id="LGn0_3_n0_39"
       d="m 72.5,24.90625 11,1 c 35,-2 17,-41 -7,-16 l -6,9"
       fill="none"
       stroke="#00c800"
       stroke-width="2"
       stroke-linecap="butt"
       stroke-dasharray="2"
       style="stroke-width:1;stroke-dasharray:none" />
    <text
       id="LGn0_3_n0_40"
       x="109.5"
       y="8.90625"
       fill="#00c800">3</text>
    <path
       id="LGn0_2_n0_42"
       d="m 71.5,55.90625 6,9 c 20,23 36,-13 5,-12 l -11,1"
       fill="none"
       stroke="#0000c8"
       stroke-width="1"
       stroke-linecap="square" />
    <text
       id="LGn0_2_n0_43"
       x="109.5"
       y="77.90625"
       fill="#0000c8">2</text>
    <path
       id="LGn4_2_n4_48"
       d="m 72.5,114.90625 11,1 c 31,2 17,-34 -5,-12 l -6,9"
       fill="none"
       stroke="#0000c8"
       stroke-width="1"
       stroke-linecap="square" />
    <text
       id="LGn4_2_n4_49"
       x="110.5"
       y="102.90625"
       fill="#0000c8">2</text>
    <path
       id="LGn5_3_n5_53"
       d="m 238.5,139.90625 -11,-1 c -35,0 -18,40 7,16 l 6,-9"
       fill="none"
       stroke="#00c800"
       stroke-width="2"
       stroke-linecap="butt"
       stroke-dasharray="2"
       style="stroke-width:1;stroke-dasharray:none" />
    <text
       id="LGn5_3_n5_54"
       x="195.5"
       y="163.90625"
       fill="#00c800">3</text>
    <path
       id="LGn1_3_n1_55"
       d="m 241.5,19.90625 -6,-9 c -24,-25 -42,14 -7,16 l 11,-1"
       fill="none"
       stroke="#00c800"
       stroke-width="2"
       stroke-linecap="butt"
       stroke-dasharray="2"
       style="stroke-width:1;stroke-dasharray:none" />
    <text
       id="LGn1_3_n1_56"
       x="196.5"
       y="9.90625"
       fill="#00c800">3</text>
    <line
       id="LGn4_0_n5_57"
       x1="75.5"
       y1="128.90625"
       x2="237.5"
       y2="128.90625"
       stroke="#000000"
       stroke-width="2"
       stroke-linecap="square" />
    <text
       id="LGn4_0_n5_58"
       x="153.5"
       y="148.90625"
       fill="#000000">0</text>
    <path
       id="LGn5_2_n5_70"
       d="m 240.5,112.90625 -6,-9 c -20,-23 -36,13 -5,12 l 11,-1"
       fill="none"
       stroke="#0000c8"
       stroke-width="1"
       stroke-linecap="square" />
    <text
       id="LGn5_2_n5_71"
       x="196.5"
       y="101.90625"
       fill="#0000c8">2</text>
    <path
       id="LGn4_3_n4_72"
       d="m 70.5,146.90625 6,9 c 24,24 42,-15 7,-16 l -11,1"
       fill="none"
       stroke="#00c800"
       stroke-width="2"
       stroke-linecap="butt"
       stroke-dasharray="2"
       style="stroke-width:1;stroke-dasharray:none" />
    <text
       id="LGn4_3_n4_73"
       x="109.5"
       y="165.90625"
       fill="#00c800">3</text>
    <line
       id="LGn0_0_n1_77"
       x1="75.5"
       y1="38.90625"
       x2="237.5"
       y2="38.90625"
       stroke="#000000"
       stroke-width="2"
       stroke-linecap="square" />
    <text
       id="LGn0_0_n1_78"
       x="153.5"
       y="58.90625"
       fill="#000000">0</text>
    <path
       id="LGn1_2_n1_82"
       d="m 241.5,54.90625 h -12 c -30,1 -12,36 7,11 l 5,-9"
       fill="none"
       stroke="#0000c8"
       stroke-width="1"
       stroke-linecap="square" />
    <text
       id="LGn1_2_n1_83"
       x="199.5"
       y="80.90625"
       fill="#0000c8">2</text>
  </g>
  <polygon
     id="0"
     points="349,48 349,42 368,54 349,67 349,60 318,60 318,48 "
     stroke="#000000"
     stroke-width="1"
     stroke-linecap="square"
     fill="#000000"
     transform="translate(-2.2049393,112.61145)" />
  <text
     id="RGn1_1"
     x="636.44531"
     y="37.261719"
     fill="#000000" />
  <circle
     id="RGn3_4"
     cx="646.5"
     cy="333.5"
     r="33"
     fill="none"
     stroke="#000000"
     stroke-width="1"
     stroke-linecap="square" />
  <text
     id="RGn3_5"
     x="636.44531"
     y="337.26172"
     fill="#000000" />
  <rect
     id="RGn3_6"
     x="639.5"
     y="353.5"
     width="15"
     height="17"
     fill="#ffffff" />
  <text
     id="RGn3_7"
     x="640.5"
     y="370.5"
     fill="#000000">n3</text>
  <text
     id="RGn4_9"
     x="396.44531"
     y="127.26172"
     fill="#000000" />
  <circle
     id="RGn7_12"
     cx="646.5"
     cy="243.5"
     r="33"
     fill="none"
     stroke="#000000"
     stroke-width="1"
     stroke-linecap="square" />
  <text
     id="RGn7_13"
     x="636.44531"
     y="247.26172"
     fill="#000000" />
  <rect
     id="RGn7_14"
     x="639.5"
     y="263.5"
     width="15"
     height="17"
     fill="#ffffff" />
  <text
     id="RGn7_15"
     x="640.5"
     y="280.5"
     fill="#000000">n7</text>
  <circle
     id="RGn2_16"
     cx="406.5"
     cy="333.5"
     r="33"
     fill="none"
     stroke="#000000"
     stroke-width="1"
     stroke-linecap="square" />
  <text
     id="RGn2_17"
     x="396.44531"
     y="337.26172"
     fill="#000000" />
  <rect
     id="RGn2_18"
     x="399.5"
     y="353.5"
     width="15"
     height="17"
     fill="#ffffff" />
  <text
     id="RGn2_19"
     x="400.5"
     y="370.5"
     fill="#000000">n2</text>
  <text
     id="RGn0_21"
     x="396.44531"
     y="37.261719"
     fill="#000000" />
  <circle
     id="RGn6_24"
     cx="406.5"
     cy="243.5"
     r="33"
     fill="none"
     stroke="#000000"
     stroke-width="1"
     stroke-linecap="square" />
  <text
     id="RGn6_25"
     x="396.44531"
     y="247.26172"
     fill="#000000" />
  <rect
     id="RGn6_26"
     x="399.5"
     y="263.5"
     width="15"
     height="17"
     fill="#ffffff" />
  <text
     id="RGn6_27"
     x="400.5"
     y="280.5"
     fill="#000000">n6</text>
  <text
     id="RGn5_29"
     x="636.44531"
     y="127.26172"
     fill="#000000" />
  <path
     id="RGn7_3_n7_36"
     d="m 608.5,232.5 -7,-7 c -29,-20 -38,22 -4,16 l 11,-3"
     fill="none"
     stroke="#00c800"
     stroke-width="2"
     stroke-linecap="butt"
     stroke-dasharray="2"
     style="stroke-width:1;stroke-dasharray:none" />
  <text
     id="RGn7_3_n7_37"
     x="561.5"
     y="231.5"
     fill="#00c800">3</text>
  <line
     id="RGn2_0_n3_38"
     x1="444.5"
     y1="333.5"
     x2="608.5"
     y2="333.5"
     stroke="#000000"
     stroke-width="2"
     stroke-linecap="square" />
  <text
     id="RGn2_0_n3_39"
     x="523.5"
     y="353.5"
     fill="#000000">0</text>
  <path
     id="RGn3_3_n3_40"
     d="m 608.5,341.5 -11,-2 c -34,-3 -21,38 6,16 l 7,-8"
     fill="none"
     stroke="#00c800"
     stroke-width="2"
     stroke-linecap="butt"
     stroke-dasharray="2"
     style="stroke-width:1;stroke-dasharray:none" />
  <text
     id="RGn3_3_n3_41"
     x="564.5"
     y="362.5"
     fill="#00c800">3</text>
  <line
     id="RGn6_2_n2_42"
     x1="406.5"
     y1="281.5"
     x2="406.5"
     y2="295.5"
     stroke="#0000c8"
     stroke-width="1"
     stroke-linecap="square" />
  <text
     id="RGn6_2_n2_43"
     x="388.5"
     y="293.5"
     fill="#0000c8">2</text>
  <path
     id="RGn2_3_n2_46"
     d="m 441.5,347.5 7,8 c 26,23 40,-18 6,-16 l -11,2"
     fill="none"
     stroke="#00c800"
     stroke-width="2"
     stroke-linecap="butt"
     stroke-dasharray="2"
     style="stroke-width:1;stroke-dasharray:none" />
  <text
     id="RGn2_3_n2_47"
     x="481.5"
     y="363.5"
     fill="#00c800">3</text>
  <line
     id="RGn7_2_n3_48"
     x1="646.5"
     y1="281.5"
     x2="646.5"
     y2="295.5"
     stroke="#0000c8"
     stroke-width="1"
     stroke-linecap="square" />
  <text
     id="RGn7_2_n3_49"
     x="628.5"
     y="293.5"
     fill="#0000c8">2</text>
  <line
     id="RGn6_0_n7_52"
     x1="444.5"
     y1="243.5"
     x2="608.5"
     y2="243.5"
     stroke="#000000"
     stroke-width="2"
     stroke-linecap="square" />
  <text
     id="RGn6_0_n7_53"
     x="523.5"
     y="263.5"
     fill="#000000">0</text>
  <g
     id="g2"
     transform="translate(0,-36.40625)">
    <circle
       id="RGn1_0"
       cx="646.5"
       cy="69.90625"
       r="33"
       fill="none"
       stroke="#000000"
       stroke-width="1"
       stroke-linecap="square" />
    <rect
       id="RGn1_2"
       x="639.5"
       y="89.90625"
       width="15"
       height="17"
       fill="#ffffff" />
    <text
       id="RGn1_3"
       x="640.5"
       y="106.90625"
       fill="#000000">n1</text>
    <circle
       id="RGn4_8"
       cx="406.5"
       cy="159.90625"
       r="33"
       fill="none"
       stroke="#000000"
       stroke-width="1"
       stroke-linecap="square" />
    <rect
       id="RGn4_10"
       x="399.5"
       y="179.90625"
       width="15"
       height="17"
       fill="#ffffff" />
    <text
       id="RGn4_11"
       x="400.5"
       y="196.90625"
       fill="#000000">n4</text>
    <circle
       id="RGn0_20"
       cx="406.5"
       cy="69.90625"
       r="33"
       fill="none"
       stroke="#000000"
       stroke-width="1"
       stroke-linecap="square" />
    <rect
       id="RGn0_22"
       x="399.5"
       y="89.90625"
       width="15"
       height="17"
       fill="#ffffff" />
    <text
       id="RGn0_23"
       x="400.5"
       y="106.90625"
       fill="#000000">n0</text>
    <circle
       id="RGn5_28"
       cx="646.5"
       cy="159.90625"
       r="33"
       fill="none"
       stroke="#000000"
       stroke-width="1"
       stroke-linecap="square" />
    <rect
       id="RGn5_30"
       x="639.5"
       y="179.90625"
       width="15"
       height="17"
       fill="#ffffff" />
    <text
       id="RGn5_31"
       x="640.5"
       y="196.90625"
       fill="#000000">n5</text>
    <line
       id="RGn4_0_n5_32"
       x1="444.5"
       y1="159.90625"
       x2="608.5"
       y2="159.90625"
       stroke="#000000"
       stroke-width="2"
       stroke-linecap="square" />
    <text
       id="RGn4_0_n5_33"
       x="523.5"
       y="179.90625"
       fill="#000000">0</text>
    <path
       id="RGn0_3_n0_34"
       d="m 442.5,63.90625 11,3 c 34,5 24,-37 -4,-17 l -7,8"
       fill="none"
       stroke="#00c800"
       stroke-width="2"
       stroke-linecap="butt"
       stroke-dasharray="2"
       style="stroke-width:1;stroke-dasharray:none" />
    <text
       id="RGn0_3_n0_35"
       x="482.5"
       y="55.90625"
       fill="#00c800">3</text>
    <path
       id="RGn5_3_n5_44"
       d="m 609.5,169.90625 -11,-1 c -35,-1 -19,39 6,16 l 7,-9"
       fill="none"
       stroke="#00c800"
       stroke-width="2"
       stroke-linecap="butt"
       stroke-dasharray="2"
       style="stroke-width:1;stroke-dasharray:none" />
    <text
       id="RGn5_3_n5_45"
       x="566.5"
       y="193.90625"
       fill="#00c800">3</text>
    <line
       id="RGn0_0_n1_50"
       x1="444.5"
       y1="69.90625"
       x2="608.5"
       y2="69.90625"
       stroke="#000000"
       stroke-width="2"
       stroke-linecap="square" />
    <text
       id="RGn0_0_n1_51"
       x="523.5"
       y="89.90625"
       fill="#000000">0</text>
    <path
       id="RGn4_3_n4_54"
       d="m 441.5,173.90625 7,8 c 26,23 40,-18 6,-16 l -11,2"
       fill="none"
       stroke="#00c800"
       stroke-width="2"
       stroke-linecap="butt"
       stroke-dasharray="2"
       style="stroke-width:1;stroke-dasharray:none" />
    <text
       id="RGn4_3_n4_55"
       x="481.5"
       y="189.90625"
       fill="#00c800">3</text>
    <line
       id="RGn1_2_n5_56"
       x1="646.5"
       y1="107.90625"
       x2="646.5"
       y2="121.90625"
       stroke="#0000c8"
       stroke-width="1"
       stroke-linecap="square" />
    <text
       id="RGn1_2_n5_57"
       x="628.5"
       y="119.90625"
       fill="#0000c8">2</text>
    <path
       id="RGn1_3_n1_58"
       d="m 610.5,56.90625 -8,-8 c -27,-21 -39,21 -4,17 l 10,-3"
       fill="none"
       stroke="#00c800"
       stroke-width="2"
       stroke-linecap="butt"
       stroke-dasharray="2"
       style="stroke-width:1;stroke-dasharray:none" />
    <text
       id="RGn1_3_n1_59"
       x="563.5"
       y="53.90625"
       fill="#00c800">3</text>
    <line
       id="RGn0_2_n4_60"
       x1="406.5"
       y1="107.90625"
       x2="406.5"
       y2="121.90625"
       stroke="#0000c8"
       stroke-width="1"
       stroke-linecap="square" />
    <text
       id="RGn0_2_n4_61"
       x="388.5"
       y="119.90625"
       fill="#0000c8">2</text>
  </g>
  <path
     id="RGn6_3_n6_62"
     d="m 443.5,237.5 11,3 c 34,6 24,-36 -4,-17 l -7,8"
     fill="none"
     stroke="#00c800"
     stroke-width="2"
     stroke-linecap="butt"
     stroke-dasharray="2"
     style="stroke-width:1;stroke-dasharray:none" />
  <text
     id="RGn6_3_n6_63"
     x="483.5"
     y="229.5"
     fill="#00c800">3</text>
</svg>
