<?xml version="1.0" encoding="UTF-8" standalone="no"?>
<svg
   version="1.1"
   font="Noto Sans Regular"
   font-size="12px"
   width="306"
   height="74.620003"
   id="svg3"
   sodipodi:docname="script-unsew-volume-graph.svg"
   inkscape:version="1.4 (e7c3feb100, 2024-10-09)"
   xmlns:inkscape="http://www.inkscape.org/namespaces/inkscape"
   xmlns:sodipodi="http://sodipodi.sourceforge.net/DTD/sodipodi-0.dtd"
   xmlns="http://www.w3.org/2000/svg"
   xmlns:svg="http://www.w3.org/2000/svg">
  <defs
     id="defs3">
    <marker
       style="overflow:visible"
       id="ArrowTriangleStylized"
       refX="0"
       refY="0"
       orient="auto-start-reverse"
       inkscape:stockid="Stylized triangle arrow"
       markerWidth="3"
       markerHeight="3"
       viewBox="0 0 1 1"
       inkscape:isstock="true"
       inkscape:collect="always"
       preserveAspectRatio="xMidYMid">
      <path
         transform="scale(0.5)"
         style="fill:context-stroke;fill-rule:evenodd;stroke:context-stroke;stroke-width:1pt"
         d="m 6,0 c -3,1 -7,3 -9,5 0,0 0,-4 2,-5 -2,-1 -2,-5 -2,-5 2,2 6,4 9,5 z"
         id="path2" />
    </marker>
  </defs>
  <sodipodi:namedview
     id="namedview3"
     pagecolor="#ffffff"
     bordercolor="#000000"
     borderopacity="0.25"
     inkscape:showpageshadow="2"
     inkscape:pageopacity="0.0"
     inkscape:pagecheckerboard="0"
     inkscape:deskcolor="#d1d1d1"
     showgrid="false"
     inkscape:zoom="2.752381"
     inkscape:cx="161.6782"
     inkscape:cy="50.501729"
     inkscape:window-width="1892"
     inkscape:window-height="1035"
     inkscape:window-x="9"
     inkscape:window-y="26"
     inkscape:window-maximized="1"
     inkscape:current-layer="svg3" />
  <path
     d="M 15.5,63.142578 C 7.3193083,56.717895 2.5296806,46.901893 2.5,36.5 c 0,-18.777681 15.222319,-34 34,-34 18.777681,0 34,15.222319 34,34 -0.02968,10.401893 -4.819308,20.217895 -13,26.642578 m 0,2.492188 C 66.886427,58.893652 72.46606,48.056231 72.5,36.5 c 0,-19.882251 -16.117749,-36 -36,-36 -19.882251,0 -36,16.117749 -36,36 0.0339397,11.556231 5.6135734,22.393652 15,29.134766"
     style="fill:none;stroke:#000000;stroke-linecap:round;stroke-linejoin:round"
     id="path4"
     sodipodi:nodetypes="ccsccccscc" />
  <path
     d="M 57.5,63.142578 C 65.680692,56.717895 70.470319,46.901893 70.5,36.5 c 0,-18.777681 -15.222319,-34 -34,-34 -18.777681,0 -34,15.222319 -34,34 0.029681,10.401893 4.8193083,20.217895 13,26.642578"
     style="fill:none;stroke:#000000;stroke-linecap:round;stroke-linejoin:round"
     id="path5"
     sodipodi:nodetypes="ccscc" />
  <text
     id="LGvolume_3"
     x="13.00999"
     y="40.076"
     fill="#000000">&lt;0, 1, 2&gt;</text>
  <text
     id="LGvolume_5"
     x="16.5"
     y="74.5"
     fill="#000000">volume</text>
  <path
     style="fill:#ffffff;fill-opacity:1;stroke:#000000;stroke-opacity:0.798092;marker-end:url(#ArrowTriangleStylized)"
     d="m 123.21422,37.073675 51.40988,-0.05967"
     id="path1" />
  <path
     d="m 284.5,67.847656 c 12.68776,-5.250092 20.97216,-17.616601 21,-31.347656 0,-18.777681 -15.22232,-34 -34,-34 -18.77768,0 -34,15.222319 -34,34 0.0379,14.115167 8.79314,26.738912 22,31.720703"
     style="fill:none;stroke:#000000;stroke-linecap:round;stroke-linejoin:round"
     id="path6"
     sodipodi:nodetypes="ccscc" />
  <text
     id="RGface_2"
     x="254.60999"
     y="40.076"
     fill="#000000">&lt;0, 1&gt;</text>
  <text
     id="RGface_4"
     x="260.5"
     y="74.5"
     fill="#000000">face</text>
</svg>
