<?xml version="1.0" encoding="UTF-8" standalone="no"?>
<svg
   version="1.1"
   font="Noto Sans Regular"
   font-size="12px"
   width="309.92459"
   height="101.80801"
   id="svg3"
   sodipodi:docname="script-extrude-ribbon.svg"
   inkscape:version="1.4 (e7c3feb100, 2024-10-09)"
   xmlns:inkscape="http://www.inkscape.org/namespaces/inkscape"
   xmlns:sodipodi="http://sodipodi.sourceforge.net/DTD/sodipodi-0.dtd"
   xmlns="http://www.w3.org/2000/svg"
   xmlns:svg="http://www.w3.org/2000/svg">
  <defs
     id="defs3" />
  <sodipodi:namedview
     id="namedview3"
     pagecolor="#ffffff"
     bordercolor="#000000"
     borderopacity="0.25"
     inkscape:showpageshadow="2"
     inkscape:pageopacity="0.0"
     inkscape:pagecheckerboard="0"
     inkscape:deskcolor="#d1d1d1"
     showgrid="false"
     inkscape:zoom="2.1178862"
     inkscape:cx="186.50672"
     inkscape:cy="30.21881"
     inkscape:window-width="1892"
     inkscape:window-height="1035"
     inkscape:window-x="9"
     inkscape:window-y="26"
     inkscape:window-maximized="1"
     inkscape:current-layer="svg3" />
  <path
     d="M 60.423828,33.6875 C -2.4795532e-8,2.746582e-7 -2.4795532e-8,2.746582e-7 60.423828,33.6875 Z"
     style="fill:none;stroke:#000000;stroke-linecap:square"
     id="path4"
     sodipodi:nodetypes="ss" />
  <path
     d="m 36.423828,91.648437 c -6.371772,-6.349646 -9.967597,-14.96558 -10,-23.960937 0,-18.777681 15.222319,-34 34,-34 18.777681,0 34,15.222319 34,34 -0.02068,8.510284 -3.232127,16.703382 -9,22.960937 m 0,2.820313 c 6.999059,-6.754783 10.966869,-16.054338 11,-25.78125 0,-19.882251 -16.117749,-36 -36,-36 -19.882251,0 -36,16.117749 -36,36 0.01466,10.22627 4.377771,19.96374 12,26.78125"
     style="fill:none;stroke:#000000;stroke-linecap:round"
     id="path3"
     sodipodi:nodetypes="ccsccccscc" />
  <text
     id="LGfirstFace_3"
     x="43.533993"
     y="71.264"
     fill="#000000">&lt;0, 1&gt;</text>
  <text
     id="LGfirstFace_5"
     x="37.424"
     y="101.688"
     fill="#000000">firstFace</text>
  <path
     id="LGfirstFace_2_firstFace_6"
     d="m 34.424,34.688 -2,-11 c -12,-31.9999997 -44,-3 -13,12 l 11,3"
     fill="none"
     stroke="#0000c8"
     stroke-width="1"
     stroke-linecap="square" />
  <path
     id="LGfirstFace_2_firstFace_7"
     d="m 33.424,35.688 -2,-11 c -9,-28.9999997 -39,-2 -10,10 l 10,3"
     fill="none"
     stroke="#0000c8"
     stroke-width="1"
     stroke-linecap="square" />
  <text
     id="LGfirstFace_2_firstFace_8"
     x="-0.57599998"
     y="8.6879997"
     fill="#0000c8">2</text>
  <polygon
     id="0"
     points="118,82 118,70 149,70 149,64 168,76 149,89 149,82 "
     stroke="#000000"
     stroke-width="1"
     stroke-linecap="square"
     fill="#000000"
     transform="translate(25.719061,-8.3119997)" />
  <path
     d="m 299.48283,92.651796 c 6.37177,-6.349646 9.90858,-15.968939 9.94098,-24.964296 0,-18.777681 -15.22232,-34 -34,-34 h 2e-5 c -18.77768,0 -34,15.222319 -34,34 0.0221,9.490923 4.01018,18.540615 11,24.960937"
     style="fill:none;stroke:#000000;stroke-width:1.00157;stroke-linecap:round;stroke-dasharray:none"
     id="path5"
     sodipodi:nodetypes="ccsscc" />
  <text
     id="RGlastFace_2"
     x="258.534"
     y="71.264"
     fill="#000000">&lt;0, 1&gt;</text>
  <text
     id="RGlastFace_4"
     x="253.424"
     y="101.688"
     fill="#000000">lastFace</text>
</svg>
