<?xml version="1.0" encoding="UTF-8" standalone="no"?>
<svg
   version="1.1"
   font="Noto Sans Regular"
   font-size="12px"
   width="286.00079"
   height="70.620789"
   id="svg3"
   sodipodi:docname="script-unsew-volume-graph.svg"
   inkscape:version="1.4 (e7c3feb100, 2024-10-09)"
   xmlns:inkscape="http://www.inkscape.org/namespaces/inkscape"
   xmlns:sodipodi="http://sodipodi.sourceforge.net/DTD/sodipodi-0.dtd"
   xmlns="http://www.w3.org/2000/svg"
   xmlns:svg="http://www.w3.org/2000/svg">
  <defs
     id="defs3" />
  <sodipodi:namedview
     id="namedview3"
     pagecolor="#ffffff"
     bordercolor="#000000"
     borderopacity="0.25"
     inkscape:showpageshadow="2"
     inkscape:pageopacity="0.0"
     inkscape:pagecheckerboard="0"
     inkscape:deskcolor="#d1d1d1"
     showgrid="false"
     inkscape:zoom="2.4809524"
     inkscape:cx="132.20729"
     inkscape:cy="83.838769"
     inkscape:window-width="1892"
     inkscape:window-height="1035"
     inkscape:window-x="9"
     inkscape:window-y="26"
     inkscape:window-maximized="1"
     inkscape:current-layer="svg3" />
  <path
     d="m 57.500787,65.635553 c 9.386427,-6.741114 14.96606,-17.578535 15,-29.134766 0,-19.882251 -16.117749,-35.99999962 -36,-35.99999962 -19.882251,0 -35.99999962,16.11774862 -35.99999962,35.99999962 0.0339397,11.556231 5.61357342,22.393652 14.99999962,29.134766 m 0,-2.492188 C 7.3200957,56.718682 2.530468,46.90268 2.5007874,36.500787 c 0,-18.777681 15.2223186,-33.9999996 33.9999996,-33.9999996 18.777681,0 34,15.2223186 34,33.9999996 -0.02968,10.401893 -4.819308,20.217895 -13,26.642578"
     style="fill:none;stroke:#000000;stroke-width:1.00157;stroke-linecap:round;stroke-dasharray:none"
     id="path10"
     sodipodi:nodetypes="ccsccccscc" />
  <text
     id="LGvolume_3"
     x="13.010777"
     y="40.076786"
     fill="#000000">&lt;0, 1, 2&gt;</text>
  <text
     id="LGvolume_5"
     x="15.694646"
     y="70.500786"
     fill="#000000">volume</text>
  <polygon
     id="0"
     points="113,49 113,42 82,42 82,30 113,30 113,24 132,36 "
     stroke="#000000"
     stroke-width="1"
     stroke-linecap="square"
     fill="#000000"
     transform="translate(37.795848,0.50078738)" />
  <path
     d="m 272.50079,63.143365 c 8.18069,-6.424683 12.97032,-16.240685 13,-26.642578 0,-18.777681 -15.22232,-33.9999996 -34,-33.9999996 -18.77768,0 -34,15.2223186 -34,33.9999996 0.0297,10.401893 4.81931,20.217895 13,26.642578"
     style="fill:none;stroke:#000000;stroke-linecap:round"
     id="path11"
     sodipodi:nodetypes="ccscc" />
  <text
     id="RGvolume_2"
     x="228.01079"
     y="40.076786"
     fill="#000000">&lt;0, 1, 2&gt;</text>
  <text
     id="RGvolume_4"
     x="230.8788"
     y="70.500786"
     fill="#000000">volume</text>
</svg>
