<?xml version="1.0" encoding="UTF-8" standalone="no"?>
<svg
   version="1.1"
   font="Noto Sans Regular"
   font-size="12px"
   width="218.07649"
   height="74.620003"
   id="svg3"
   sodipodi:docname="script-triangulation-or-face-insertion.svg"
   inkscape:version="1.4 (e7c3feb100, 2024-10-09)"
   xmlns:inkscape="http://www.inkscape.org/namespaces/inkscape"
   xmlns:sodipodi="http://sodipodi.sourceforge.net/DTD/sodipodi-0.dtd"
   xmlns="http://www.w3.org/2000/svg"
   xmlns:svg="http://www.w3.org/2000/svg">
  <defs
     id="defs3" />
  <sodipodi:namedview
     id="namedview3"
     pagecolor="#ffffff"
     bordercolor="#666666"
     borderopacity="1.0"
     inkscape:showpageshadow="2"
     inkscape:pageopacity="0.0"
     inkscape:pagecheckerboard="0"
     inkscape:deskcolor="#d1d1d1"
     showgrid="false"
     inkscape:zoom="3.1545926"
     inkscape:cx="23.299364"
     inkscape:cy="113.96083"
     inkscape:window-width="1896"
     inkscape:window-height="986"
     inkscape:window-x="20"
     inkscape:window-y="20"
     inkscape:window-maximized="0"
     inkscape:current-layer="svg3" />
  <path
     d="M 24.5,68.220703 C 11.29314,63.238912 2.5378996,50.615167 2.5,36.5 c 0,-18.777681 15.222319,-34 34,-34 18.777681,0 34,15.222319 34,34 -0.02784,13.731055 -8.312243,26.097564 -21,31.347656 m 0,2.497856 C 63.329908,64.990065 72.460344,51.330563 72.5,36.5 c 0,-19.882251 -16.117749,-36 -36,-36 -19.882251,0 -36,16.117749 -36,36 0.03954,15.221871 9.648616,28.773733 24,33.847656"
     style="fill:none;stroke:#000000;stroke-linecap:round"
     id="path4"
     sodipodi:nodetypes="ccsccccscc" />
  <text
     id="LGface_3"
     x="19.609991"
     y="40.076"
     fill="#000000">&lt;0, 1&gt;</text>
  <text
     id="LGface_5"
     x="25.5"
     y="74.5"
     fill="#000000">face</text>
  <g
     id="g2"
     transform="translate(1.8333057,0.5)">
    <polygon
       id="0"
       points="132,36 113,49 113,42 82,42 82,30 113,30 113,24 "
       stroke="#000000"
       stroke-width="1"
       stroke-linecap="square"
       fill="#000000" />
  </g>
  <g
     id="g3"
     transform="translate(0.5,0.5)" />
</svg>
