<?xml version="1.0" encoding="UTF-8" standalone="no"?>
<!-- Created with Jerboa -->

<svg
   width="411.72174"
   height="328.9668"
   version="1.1"
   id="svg1"
   sodipodi:docname="3-reeval-face-extrusion.svg"
   inkscape:version="1.3.2 (091e20ef0f, 2023-11-25, custom)"
   xmlns:inkscape="http://www.inkscape.org/namespaces/inkscape"
   xmlns:sodipodi="http://sodipodi.sourceforge.net/DTD/sodipodi-0.dtd"
   xmlns="http://www.w3.org/2000/svg"
   xmlns:svg="http://www.w3.org/2000/svg">
  <defs
     id="defs1" />
  <sodipodi:namedview
     id="namedview1"
     pagecolor="#ffffff"
     bordercolor="#000000"
     borderopacity="0.25"
     inkscape:showpageshadow="2"
     inkscape:pageopacity="0.0"
     inkscape:pagecheckerboard="0"
     inkscape:deskcolor="#d1d1d1"
     showgrid="false"
     inkscape:zoom="0.75248933"
     inkscape:cx="205.98299"
     inkscape:cy="164.12193"
     inkscape:window-width="1892"
     inkscape:window-height="1034"
     inkscape:window-x="9"
     inkscape:window-y="27"
     inkscape:window-maximized="1"
     inkscape:current-layer="svg1" />
  <style
     id="style">
		.arc0 {
			fill:none;
			fill-rule:evenodd;
			stroke:black;
			stroke-width:4;
			stroke-linecap:round;
			stroke-linejoin:round;
			stroke-opacity:1;
		}
		.arc1 {
			fill:none;
			fill-rule:evenodd;
			stroke:red;
			stroke-width:4;
			stroke-linecap:round;
			stroke-linejoin:round;
			stroke-opacity:1;
		}
		.arc2 {
			fill:none;
			fill-rule:evenodd;
			stroke:blue;
			stroke-width:4;
			stroke-linecap:round;
			stroke-linejoin:round;
			stroke-opacity:1;
		}
		.arc3 {
			fill:none;
			fill-rule:evenodd;
			stroke:green;
			stroke-width:4;
			stroke-linecap:round;
			stroke-linejoin:round;
			stroke-opacity:1;
		}
		.topological-dart {
			fill:#000000;
			stroke:#000000;
			stroke-width:0;
			stroke-linecap:round;
			stroke-linejoin:round;
			stroke-dasharray:none;
			paint-order:markers fill stroke;
		}
	</style>
  <polygon
     points="906.8609,466.71344 746.33203,487.98346 746.33203,487.98346 622.7356,481.07697 622.7356,481.07697 499.13916,474.17053 499.13916,474.17053 659.6681,452.90057 906.8609,466.71344 "
     id="face_7_6_5_4_9_8_3_2_1_0"
     style="fill:#c0c0c0;stroke:none"
     opacity="1"
     transform="translate(-497.13916,-161.01666)" />
  <line
     class="arc0"
     id="link0_@0_7"
     x1="162.52893"
     y1="291.88391"
     x2="409.72174"
     y2="305.69678" />
  <line
     class="arc0"
     id="link1_@0_2"
     x1="162.52893"
     y1="291.88391"
     x2="2"
     y2="313.15387" />
  <polygon
     points="906.8609,466.71344 906.8609,176.82953 906.8609,176.82953 659.6681,163.01666 659.6681,163.01666 659.6681,452.90057 906.8609,466.71344 "
     id="face_15_16_17_18_23_22_21_20"
     style="fill:#c0c0c0;stroke:none"
     opacity="1"
     transform="translate(-497.13916,-161.01666)" />
  <line
     class="arc0"
     id="link20_@0_15"
     x1="162.52893"
     y1="291.88391"
     x2="409.72174"
     y2="305.69678" />
  <line
     class="arc0"
     id="link21_@0_22"
     x1="162.52893"
     y1="291.88391"
     x2="162.52893"
     y2="2" />
  <polygon
     points="499.13916,474.17053 499.13916,184.28662 499.13916,184.28662 659.6681,163.01666 659.6681,163.01666 659.6681,452.90057 499.13916,474.17053 "
     id="face_30_31_32_33_28_27_26_25"
     style="fill:#c0c0c0;stroke:none"
     opacity="1"
     transform="translate(-497.13916,-161.01666)" />
  <line
     class="arc0"
     id="link25_@0_30"
     x1="162.52893"
     y1="291.88391"
     x2="2"
     y2="313.15387" />
  <line
     class="arc0"
     id="link26_@0_27"
     x1="162.52893"
     y1="291.88391"
     x2="162.52893"
     y2="2" />
  <line
     class="arc0"
     id="link23_@0_18"
     x1="162.52893"
     y1="2"
     x2="409.72174"
     y2="15.812866" />
  <polygon
     points="906.8609,176.82953 746.33203,198.09949 746.33203,198.09949 622.7356,191.19305 622.7356,191.19305 499.13916,184.28662 499.13916,184.28662 659.6681,163.01666 906.8609,176.82953 "
     id="face_19_14_59_54_49_44_39_34_29_24"
     style="fill:#c0c0c0;stroke:none"
     opacity="1"
     transform="translate(-497.13916,-161.01666)" />
  <line
     class="arc0"
     id="link24_@0_19"
     x1="162.52893"
     y1="2"
     x2="409.72174"
     y2="15.812866" />
  <line
     class="arc0"
     id="link28_@0_33"
     x1="162.52893"
     y1="2"
     x2="2"
     y2="23.269958" />
  <line
     class="arc0"
     id="link29_@0_34"
     x1="162.52893"
     y1="2"
     x2="2"
     y2="23.269958" />
  <line
     class="arc0"
     id="link6_@0_5"
     x1="409.72174"
     y1="305.69678"
     x2="249.19287"
     y2="326.9668" />
  <polygon
     points="746.33203,487.98346 746.33203,198.09949 746.33203,198.09949 906.8609,176.82953 906.8609,176.82953 906.8609,466.71344 746.33203,487.98346 "
     id="face_55_56_57_58_13_12_11_10"
     style="fill:#c0c0c0;stroke:none"
     opacity="1"
     transform="translate(-497.13916,-161.01666)" />
  <line
     class="arc0"
     id="link10_@0_55"
     x1="409.72174"
     y1="305.69678"
     x2="249.19287"
     y2="326.9668" />
  <line
     class="arc0"
     id="link11_@0_12"
     x1="409.72174"
     y1="305.69678"
     x2="409.72174"
     y2="15.812866" />
  <line
     class="arc0"
     id="link16_@0_17"
     x1="409.72174"
     y1="305.69678"
     x2="409.72174"
     y2="15.812866" />
  <line
     class="arc0"
     id="link13_@0_58"
     x1="409.72174"
     y1="15.812866"
     x2="249.19287"
     y2="37.082825" />
  <line
     class="arc0"
     id="link14_@0_59"
     x1="409.72174"
     y1="15.812866"
     x2="249.19287"
     y2="37.082825" />
  <line
     class="arc0"
     id="link3_@0_8"
     x1="2"
     y1="313.15387"
     x2="125.59644"
     y2="320.0603" />
  <line
     class="arc0"
     id="link31_@0_32"
     x1="2"
     y1="313.15387"
     x2="2"
     y2="23.269958" />
  <polygon
     points="622.7356,481.07697 622.7356,191.19305 622.7356,191.19305 499.13916,184.28662 499.13916,184.28662 499.13916,474.17053 622.7356,481.07697 "
     id="face_40_41_42_43_38_37_36_35"
     style="fill:#c0c0c0;stroke:none"
     opacity="1"
     transform="translate(-497.13916,-161.01666)" />
  <line
     class="arc0"
     id="link35_@0_40"
     x1="2"
     y1="313.15387"
     x2="125.59644"
     y2="320.0603" />
  <line
     class="arc0"
     id="link36_@0_37"
     x1="2"
     y1="313.15387"
     x2="2"
     y2="23.269958" />
  <line
     class="arc0"
     id="link38_@0_43"
     x1="2"
     y1="23.269958"
     x2="125.59644"
     y2="30.176392" />
  <line
     class="arc0"
     id="link39_@0_44"
     x1="2"
     y1="23.269958"
     x2="125.59644"
     y2="30.176392" />
  <line
     class="arc0"
     id="link9_@0_4"
     x1="125.59644"
     y1="320.0603"
     x2="249.19287"
     y2="326.9668" />
  <line
     class="arc0"
     id="link41_@0_42"
     x1="125.59644"
     y1="320.0603"
     x2="125.59644"
     y2="30.176392" />
  <polygon
     points="746.33203,487.98346 746.33203,198.09949 746.33203,198.09949 622.7356,191.19305 622.7356,191.19305 622.7356,481.07697 746.33203,487.98346 "
     id="face_50_51_52_53_48_47_46_45"
     style="fill:#c0c0c0;stroke:none"
     opacity="1"
     transform="translate(-497.13916,-161.01666)" />
  <line
     class="arc0"
     id="link45_@0_50"
     x1="125.59644"
     y1="320.0603"
     x2="249.19287"
     y2="326.9668" />
  <line
     class="arc0"
     id="link46_@0_47"
     x1="125.59644"
     y1="320.0603"
     x2="125.59644"
     y2="30.176392" />
  <line
     class="arc0"
     id="link48_@0_53"
     x1="125.59644"
     y1="30.176392"
     x2="249.19287"
     y2="37.082825" />
  <line
     class="arc0"
     id="link49_@0_54"
     x1="125.59644"
     y1="30.176392"
     x2="249.19287"
     y2="37.082825" />
  <line
     class="arc0"
     id="link51_@0_52"
     x1="249.19287"
     y1="326.9668"
     x2="249.19287"
     y2="37.082825" />
  <line
     class="arc0"
     id="link56_@0_57"
     x1="249.19287"
     y1="326.9668"
     x2="249.19287"
     y2="37.082825" />
</svg>
