<?xml version="1.0" encoding="UTF-8" standalone="no"?>
<!-- Created with Jerboa -->

<svg
   width="409.27173"
   height="329.20569"
   version="1.1"
   id="svg1"
   sodipodi:docname="4-reeval-face-triangulation.svg"
   inkscape:version="1.3.2 (091e20ef0f, 2023-11-25, custom)"
   xmlns:inkscape="http://www.inkscape.org/namespaces/inkscape"
   xmlns:sodipodi="http://sodipodi.sourceforge.net/DTD/sodipodi-0.dtd"
   xmlns="http://www.w3.org/2000/svg"
   xmlns:svg="http://www.w3.org/2000/svg">
  <defs
     id="defs1" />
  <sodipodi:namedview
     id="namedview1"
     pagecolor="#ffffff"
     bordercolor="#000000"
     borderopacity="0.25"
     inkscape:showpageshadow="2"
     inkscape:pageopacity="0.0"
     inkscape:pagecheckerboard="0"
     inkscape:deskcolor="#d1d1d1"
     showgrid="false"
     inkscape:zoom="0.75248933"
     inkscape:cx="204.65406"
     inkscape:cy="164.12193"
     inkscape:window-width="1892"
     inkscape:window-height="1034"
     inkscape:window-x="9"
     inkscape:window-y="27"
     inkscape:window-maximized="1"
     inkscape:current-layer="svg1" />
  <style
     id="style">
		.arc0 {
			fill:none;
			fill-rule:evenodd;
			stroke:black;
			stroke-width:4;
			stroke-linecap:round;
			stroke-linejoin:round;
			stroke-opacity:1;
		}
		.arc1 {
			fill:none;
			fill-rule:evenodd;
			stroke:red;
			stroke-width:4;
			stroke-linecap:round;
			stroke-linejoin:round;
			stroke-opacity:1;
		}
		.arc2 {
			fill:none;
			fill-rule:evenodd;
			stroke:blue;
			stroke-width:4;
			stroke-linecap:round;
			stroke-linejoin:round;
			stroke-opacity:1;
		}
		.arc3 {
			fill:none;
			fill-rule:evenodd;
			stroke:green;
			stroke-width:4;
			stroke-linecap:round;
			stroke-linejoin:round;
			stroke-opacity:1;
		}
		.topological-dart {
			fill:#000000;
			stroke:#000000;
			stroke-width:0;
			stroke-linecap:round;
			stroke-linejoin:round;
			stroke-dasharray:none;
			paint-order:markers fill stroke;
		}
	</style>
  <polygon
     points="905.63586,467.3279 822.18304,477.7154 822.18304,477.7154 738.7302,488.1029 738.7302,488.1029 500.36414,473.5561 500.36414,473.5561 667.26984,452.78113 905.63586,467.3279 "
     id="face_5_4_9_8_3_2_1_0_7_6"
     style="fill:#c0c0c0;stroke:none"
     opacity="1"
     transform="translate(-498.36414,-160.89722)" />
  <line
     class="arc0"
     id="link6_@0_5"
     x1="168.9057"
     y1="291.88391"
     x2="407.27173"
     y2="306.43069" />
  <line
     class="arc0"
     id="link7_@0_0"
     x1="168.9057"
     y1="291.88391"
     x2="2"
     y2="312.65887" />
  <polygon
     points="905.63586,467.3279 905.63586,177.444 905.63586,177.444 667.26984,162.89722 667.26984,162.89722 667.26984,452.78113 905.63586,467.3279 "
     id="face_55_56_57_58_13_12_11_10"
     style="fill:#c0c0c0;stroke:none"
     opacity="1"
     transform="translate(-498.36414,-160.89722)" />
  <line
     class="arc0"
     id="link10_@0_55"
     x1="168.9057"
     y1="291.88391"
     x2="407.27173"
     y2="306.43069" />
  <line
     class="arc0"
     id="link11_@0_12"
     x1="168.9057"
     y1="291.88391"
     x2="168.9057"
     y2="2" />
  <polygon
     points="500.36414,473.5561 500.36414,183.67218 500.36414,183.67218 667.26984,162.89722 667.26984,162.89722 667.26984,452.78113 500.36414,473.5561 "
     id="face_20_21_22_23_18_17_16_15"
     style="fill:#c0c0c0;stroke:none"
     opacity="1"
     transform="translate(-498.36414,-160.89722)" />
  <line
     class="arc0"
     id="link15_@0_20"
     x1="168.9057"
     y1="291.88391"
     x2="2"
     y2="312.65887" />
  <line
     class="arc0"
     id="link16_@0_17"
     x1="168.9057"
     y1="291.88391"
     x2="168.9057"
     y2="2" />
  <line
     class="arc0"
     id="link13_@0_58"
     x1="168.9057"
     y1="2"
     x2="407.27173"
     y2="16.546783" />
  <polygon
     points="905.63586,177.444 822.18304,187.83148 822.18304,187.83148 738.7302,198.21896 738.7302,198.21896 500.36414,183.67218 500.36414,183.67218 667.26984,162.89722 905.63586,177.444 "
     id="face_59_54_49_44_39_34_29_24_19_14"
     style="fill:#c0c0c0;stroke:none"
     opacity="1"
     transform="translate(-498.36414,-160.89722)" />
  <line
     class="arc0"
     id="link14_@0_59"
     x1="168.9057"
     y1="2"
     x2="407.27173"
     y2="16.546783" />
  <line
     class="arc0"
     id="link18_@0_23"
     x1="168.9057"
     y1="2"
     x2="2"
     y2="22.774963" />
  <line
     class="arc0"
     id="link19_@0_24"
     x1="168.9057"
     y1="2"
     x2="2"
     y2="22.774963" />
  <line
     class="arc0"
     id="link4_@0_9"
     x1="407.27173"
     y1="306.43069"
     x2="323.81891"
     y2="316.81818" />
  <polygon
     points="822.18304,477.7154 822.18304,187.83148 822.18304,187.83148 905.63586,177.444 905.63586,177.444 905.63586,467.3279 822.18304,477.7154 "
     id="face_45_46_47_48_53_52_51_50"
     style="fill:#c0c0c0;stroke:none"
     opacity="1"
     transform="translate(-498.36414,-160.89722)" />
  <line
     class="arc0"
     id="link50_@0_45"
     x1="407.27173"
     y1="306.43069"
     x2="323.81891"
     y2="316.81818" />
  <line
     class="arc0"
     id="link51_@0_52"
     x1="407.27173"
     y1="306.43069"
     x2="407.27173"
     y2="16.546783" />
  <line
     class="arc0"
     id="link56_@0_57"
     x1="407.27173"
     y1="306.43069"
     x2="407.27173"
     y2="16.546783" />
  <line
     class="arc0"
     id="link53_@0_48"
     x1="407.27173"
     y1="16.546783"
     x2="323.81891"
     y2="26.934265" />
  <line
     class="arc0"
     id="link54_@0_49"
     x1="407.27173"
     y1="16.546783"
     x2="323.81891"
     y2="26.934265" />
  <line
     class="arc0"
     id="link1_@0_2"
     x1="2"
     y1="312.65887"
     x2="240.36609"
     y2="327.20569" />
  <line
     class="arc0"
     id="link21_@0_22"
     x1="2"
     y1="312.65887"
     x2="2"
     y2="22.774963" />
  <polygon
     points="738.7302,488.1029 619.5472,335.88754 619.5472,335.88754 500.36414,473.5561 738.7302,488.1029 "
     id="face_30_66_67_69_68_25"
     style="fill:#c0c0c0;stroke:none"
     opacity="1"
     transform="translate(-498.36414,-160.89722)" />
  <line
     class="arc0"
     id="link25_@0_30"
     x1="2"
     y1="312.65887"
     x2="240.36609"
     y2="327.20569" />
  <polygon
     points="500.36414,183.67218 619.5472,335.88754 619.5472,335.88754 500.36414,473.5561 500.36414,183.67218 "
     id="face_27_72_73_71_70_26"
     style="fill:#c0c0c0;stroke:none"
     opacity="1"
     transform="translate(-498.36414,-160.89722)" />
  <line
     class="arc0"
     id="link26_@0_27"
     x1="2"
     y1="312.65887"
     x2="2"
     y2="22.774963" />
  <line
     class="arc0"
     id="link68_@0_69"
     x1="2"
     y1="312.65887"
     x2="121.18304"
     y2="174.99033" />
  <line
     class="arc0"
     id="link70_@0_71"
     x1="2"
     y1="312.65887"
     x2="121.18304"
     y2="174.99033" />
  <polygon
     points="738.7302,198.21896 619.5472,335.88754 619.5472,335.88754 500.36414,183.67218 738.7302,198.21896 "
     id="face_33_60_61_75_74_28"
     style="fill:#c0c0c0;stroke:none"
     opacity="1"
     transform="translate(-498.36414,-160.89722)" />
  <line
     class="arc0"
     id="link28_@0_33"
     x1="2"
     y1="22.774963"
     x2="240.36609"
     y2="37.321747" />
  <line
     class="arc0"
     id="link29_@0_34"
     x1="2"
     y1="22.774963"
     x2="240.36609"
     y2="37.321747" />
  <line
     class="arc0"
     id="link72_@0_73"
     x1="2"
     y1="22.774963"
     x2="121.18304"
     y2="174.99033" />
  <line
     class="arc0"
     id="link74_@0_75"
     x1="2"
     y1="22.774963"
     x2="121.18304"
     y2="174.99033" />
  <line
     class="arc0"
     id="link8_@0_3"
     x1="323.81891"
     y1="316.81818"
     x2="240.36609"
     y2="327.20569" />
  <polygon
     points="738.7302,488.1029 738.7302,198.21896 738.7302,198.21896 822.18304,187.83148 822.18304,187.83148 822.18304,477.7154 738.7302,488.1029 "
     id="face_35_36_37_38_43_42_41_40"
     style="fill:#c0c0c0;stroke:none"
     opacity="1"
     transform="translate(-498.36414,-160.89722)" />
  <line
     class="arc0"
     id="link40_@0_35"
     x1="323.81891"
     y1="316.81818"
     x2="240.36609"
     y2="327.20569" />
  <line
     class="arc0"
     id="link41_@0_42"
     x1="323.81891"
     y1="316.81818"
     x2="323.81891"
     y2="26.934265" />
  <line
     class="arc0"
     id="link46_@0_47"
     x1="323.81891"
     y1="316.81818"
     x2="323.81891"
     y2="26.934265" />
  <line
     class="arc0"
     id="link43_@0_38"
     x1="323.81891"
     y1="26.934265"
     x2="240.36609"
     y2="37.321747" />
  <line
     class="arc0"
     id="link44_@0_39"
     x1="323.81891"
     y1="26.934265"
     x2="240.36609"
     y2="37.321747" />
  <line
     class="arc0"
     id="link61_@0_60"
     x1="121.18304"
     y1="174.99033"
     x2="240.36609"
     y2="37.321747" />
  <polygon
     points="738.7302,198.21896 738.7302,488.1029 738.7302,488.1029 619.5472,335.88754 738.7302,198.21896 "
     id="face_62_32_31_64_65_63"
     style="fill:#c0c0c0;stroke:none"
     opacity="1"
     transform="translate(-498.36414,-160.89722)" />
  <line
     class="arc0"
     id="link63_@0_62"
     x1="121.18304"
     y1="174.99033"
     x2="240.36609"
     y2="37.321747" />
  <line
     class="arc0"
     id="link65_@0_64"
     x1="121.18304"
     y1="174.99033"
     x2="240.36609"
     y2="327.20569" />
  <line
     class="arc0"
     id="link67_@0_66"
     x1="121.18304"
     y1="174.99033"
     x2="240.36609"
     y2="327.20569" />
  <line
     class="arc0"
     id="link31_@0_32"
     x1="240.36609"
     y1="327.20569"
     x2="240.36609"
     y2="37.321747" />
  <line
     class="arc0"
     id="link36_@0_37"
     x1="240.36609"
     y1="327.20569"
     x2="240.36609"
     y2="37.321747" />
</svg>
