<?xml version="1.0" encoding="UTF-8" standalone="no"?>
<!-- Created with Jerboa -->

<svg
   width="411.72174"
   height="328.9668"
   version="1.1"
   id="svg1"
   sodipodi:docname="5-colour-face.svg"
   inkscape:version="1.3.2 (091e20ef0f, 2023-11-25, custom)"
   xmlns:inkscape="http://www.inkscape.org/namespaces/inkscape"
   xmlns:sodipodi="http://sodipodi.sourceforge.net/DTD/sodipodi-0.dtd"
   xmlns="http://www.w3.org/2000/svg"
   xmlns:svg="http://www.w3.org/2000/svg">
  <defs
     id="defs1" />
  <sodipodi:namedview
     id="namedview1"
     pagecolor="#ffffff"
     bordercolor="#000000"
     borderopacity="0.25"
     inkscape:showpageshadow="2"
     inkscape:pageopacity="0.0"
     inkscape:pagecheckerboard="0"
     inkscape:deskcolor="#d1d1d1"
     showgrid="false"
     inkscape:zoom="0.75248933"
     inkscape:cx="205.98299"
     inkscape:cy="164.12193"
     inkscape:window-width="1892"
     inkscape:window-height="1034"
     inkscape:window-x="9"
     inkscape:window-y="27"
     inkscape:window-maximized="1"
     inkscape:current-layer="svg1" />
  <style
     id="style">
		.arc0 {
			fill:none;
			fill-rule:evenodd;
			stroke:black;
			stroke-width:4;
			stroke-linecap:round;
			stroke-linejoin:round;
			stroke-opacity:1;
		}
		.arc1 {
			fill:none;
			fill-rule:evenodd;
			stroke:red;
			stroke-width:4;
			stroke-linecap:round;
			stroke-linejoin:round;
			stroke-opacity:1;
		}
		.arc2 {
			fill:none;
			fill-rule:evenodd;
			stroke:blue;
			stroke-width:4;
			stroke-linecap:round;
			stroke-linejoin:round;
			stroke-opacity:1;
		}
		.arc3 {
			fill:none;
			fill-rule:evenodd;
			stroke:green;
			stroke-width:4;
			stroke-linecap:round;
			stroke-linejoin:round;
			stroke-opacity:1;
		}
		.topological-dart {
			fill:#000000;
			stroke:#000000;
			stroke-width:0;
			stroke-linecap:round;
			stroke-linejoin:round;
			stroke-dasharray:none;
			paint-order:markers fill stroke;
		}
	</style>
  <polygon
     points="906.8609,466.71344 746.33203,487.98346 746.33203,487.98346 499.13916,474.17053 499.13916,474.17053 659.6681,452.90057 906.8609,466.71344 "
     id="face_7_6_5_4_3_2_1_0"
     style="fill:#c0c0c0;stroke:none"
     opacity="1"
     transform="translate(-497.13916,-161.01666)" />
  <line
     class="arc0"
     id="link0_@0_7"
     x1="162.52893"
     y1="291.88391"
     x2="409.72174"
     y2="305.69678" />
  <line
     class="arc0"
     id="link1_@0_2"
     x1="162.52893"
     y1="291.88391"
     x2="2"
     y2="313.15387" />
  <polygon
     points="906.8609,466.71344 906.8609,176.82953 906.8609,176.82953 659.6681,163.01666 659.6681,163.01666 659.6681,452.90057 906.8609,466.71344 "
     id="face_13_14_15_16_21_20_19_18"
     style="fill:#c0c0c0;stroke:none"
     opacity="1"
     transform="translate(-497.13916,-161.01666)" />
  <line
     class="arc0"
     id="link18_@0_13"
     x1="162.52893"
     y1="291.88391"
     x2="409.72174"
     y2="305.69678" />
  <line
     class="arc0"
     id="link19_@0_20"
     x1="162.52893"
     y1="291.88391"
     x2="162.52893"
     y2="2" />
  <polygon
     points="499.13916,474.17053 499.13916,184.28662 499.13916,184.28662 659.6681,163.01666 659.6681,163.01666 659.6681,452.90057 499.13916,474.17053 "
     id="face_28_29_30_31_26_25_24_23"
     style="fill:#c0c0c0;stroke:none"
     opacity="1"
     transform="translate(-497.13916,-161.01666)" />
  <line
     class="arc0"
     id="link23_@0_28"
     x1="162.52893"
     y1="291.88391"
     x2="2"
     y2="313.15387" />
  <line
     class="arc0"
     id="link24_@0_25"
     x1="162.52893"
     y1="291.88391"
     x2="162.52893"
     y2="2" />
  <line
     class="arc0"
     id="link21_@0_16"
     x1="162.52893"
     y1="2"
     x2="409.72174"
     y2="15.812866" />
  <polygon
     points="906.8609,176.82953 826.59644,187.46457 826.59644,187.46457 746.33203,198.09949 746.33203,198.09949 499.13916,184.28662 499.13916,184.28662 659.6681,163.01666 906.8609,176.82953 "
     id="face_17_12_51_50_47_42_37_32_27_22"
     style="fill:#c0c0c0;stroke:none"
     opacity="1"
     transform="translate(-497.13916,-161.01666)" />
  <line
     class="arc0"
     id="link22_@0_17"
     x1="162.52893"
     y1="2"
     x2="409.72174"
     y2="15.812866" />
  <line
     class="arc0"
     id="link26_@0_31"
     x1="162.52893"
     y1="2"
     x2="2"
     y2="23.269958" />
  <line
     class="arc0"
     id="link27_@0_32"
     x1="162.52893"
     y1="2"
     x2="2"
     y2="23.269958" />
  <line
     class="arc0"
     id="link6_@0_5"
     x1="409.72174"
     y1="305.69678"
     x2="249.19287"
     y2="326.9668" />
  <polygon
     points="746.33203,487.98346 746.33203,198.09949 746.33203,198.09949 826.59644,187.46457 826.59644,187.46457 906.8609,176.82953 906.8609,176.82953 906.8609,466.71344 746.33203,487.98346 "
     id="face_43_44_45_46_48_49_11_10_9_8"
     style="fill:#c0c0c0;stroke:none"
     opacity="1"
     transform="translate(-497.13916,-161.01666)" />
  <line
     class="arc0"
     id="link8_@0_43"
     x1="409.72174"
     y1="305.69678"
     x2="249.19287"
     y2="326.9668" />
  <line
     class="arc0"
     id="link9_@0_10"
     x1="409.72174"
     y1="305.69678"
     x2="409.72174"
     y2="15.812866" />
  <line
     class="arc0"
     id="link14_@0_15"
     x1="409.72174"
     y1="305.69678"
     x2="409.72174"
     y2="15.812866" />
  <line
     class="arc0"
     id="link11_@0_49"
     x1="409.72174"
     y1="15.812866"
     x2="329.45728"
     y2="26.447906" />
  <line
     class="arc0"
     id="link12_@0_51"
     x1="409.72174"
     y1="15.812866"
     x2="329.45728"
     y2="26.447906" />
  <line
     class="arc0"
     id="link3_@0_4"
     x1="2"
     y1="313.15387"
     x2="249.19287"
     y2="326.9668" />
  <line
     class="arc0"
     id="link29_@0_30"
     x1="2"
     y1="313.15387"
     x2="2"
     y2="23.269958" />
  <polygon
     points="746.33203,487.98346 622.7356,336.135 622.7356,336.135 499.13916,474.17053 746.33203,487.98346 "
     id="face_38_66_67_53_52_33"
     style="fill:#c0c0c0;stroke:none"
     opacity="1"
     transform="translate(-497.13916,-161.01666)" />
  <line
     class="arc0"
     id="link33_@0_38"
     x1="2"
     y1="313.15387"
     x2="249.19287"
     y2="326.9668" />
  <polygon
     points="499.13916,184.28662 622.7356,336.135 622.7356,336.135 499.13916,474.17053 499.13916,184.28662 "
     id="face_35_56_57_55_54_34"
     style="fill:#0000ff;stroke:none"
     opacity="1"
     transform="translate(-497.13916,-161.01666)" />
  <line
     class="arc0"
     id="link34_@0_35"
     x1="2"
     y1="313.15387"
     x2="2"
     y2="23.269958" />
  <line
     class="arc0"
     id="link52_@0_53"
     x1="2"
     y1="313.15387"
     x2="125.59644"
     y2="175.11835" />
  <line
     class="arc0"
     id="link54_@0_55"
     x1="2"
     y1="313.15387"
     x2="125.59644"
     y2="175.11835" />
  <polygon
     points="746.33203,198.09949 622.7356,336.135 622.7356,336.135 499.13916,184.28662 746.33203,198.09949 "
     id="face_41_60_61_59_58_36"
     style="fill:#c0c0c0;stroke:none"
     opacity="1"
     transform="translate(-497.13916,-161.01666)" />
  <line
     class="arc0"
     id="link36_@0_41"
     x1="2"
     y1="23.269958"
     x2="249.19287"
     y2="37.082825" />
  <line
     class="arc0"
     id="link37_@0_42"
     x1="2"
     y1="23.269958"
     x2="249.19287"
     y2="37.082825" />
  <line
     class="arc0"
     id="link56_@0_57"
     x1="2"
     y1="23.269958"
     x2="125.59644"
     y2="175.11835" />
  <line
     class="arc0"
     id="link58_@0_59"
     x1="2"
     y1="23.269958"
     x2="125.59644"
     y2="175.11835" />
  <line
     class="arc0"
     id="link48_@0_46"
     x1="329.45728"
     y1="26.447906"
     x2="249.19287"
     y2="37.082825" />
  <line
     class="arc0"
     id="link50_@0_47"
     x1="329.45728"
     y1="26.447906"
     x2="249.19287"
     y2="37.082825" />
  <line
     class="arc0"
     id="link61_@0_60"
     x1="125.59644"
     y1="175.11835"
     x2="249.19287"
     y2="37.082825" />
  <polygon
     points="746.33203,198.09949 746.33203,487.98346 746.33203,487.98346 622.7356,336.135 746.33203,198.09949 "
     id="face_62_40_39_64_65_63"
     style="fill:#c0c0c0;stroke:none"
     opacity="1"
     transform="translate(-497.13916,-161.01666)" />
  <line
     class="arc0"
     id="link63_@0_62"
     x1="125.59644"
     y1="175.11835"
     x2="249.19287"
     y2="37.082825" />
  <line
     class="arc0"
     id="link65_@0_64"
     x1="125.59644"
     y1="175.11835"
     x2="249.19287"
     y2="326.9668" />
  <line
     class="arc0"
     id="link67_@0_66"
     x1="125.59644"
     y1="175.11835"
     x2="249.19287"
     y2="326.9668" />
  <line
     class="arc0"
     id="link39_@0_40"
     x1="249.19287"
     y1="326.9668"
     x2="249.19287"
     y2="37.082825" />
  <line
     class="arc0"
     id="link44_@0_45"
     x1="249.19287"
     y1="326.9668"
     x2="249.19287"
     y2="37.082825" />
</svg>
