<svg height="892" width="1314">
<polygon points="468.7689,727.114 490.0597,442.9122 511.3506,400.33054 788.4555,386.13666 809.7463,428.71832 678.2909,588.5615 649.903,616.94934 490.0597,748.4049 " id="face_7_6_5_18_19_29_28_0"  style="fill:rgb(192,192,192);stroke:none" opacity="1.0" />
<line x1="468.7689" y1="727.114" x2="490.0597" y2="748.4049" id="link0_a1_28" stroke="red" stroke-width="4px" />
<line x1="468.7689" y1="727.114" x2="468.7689" y2="727.114" id="link0_a2_0" stroke="blue" stroke-width="4px" />
<line x1="468.7689" y1="727.114" x2="468.7689" y2="727.114" id="link0_a3_0" stroke="green" stroke-width="4px" />
<line x1="468.7689" y1="727.114" x2="490.0597" y2="442.9122" id="link0_a0_7" style="stroke:black;stroke-width:4px" />
<polygon points="525.5445,783.88965 788.4555,783.88965 809.7463,762.5988 678.2909,631.1433 649.903,631.1433 504.25363,762.5988 " id="face_2_24_25_27_26_1"  style="fill:rgb(192,192,192);stroke:none" opacity="1.0" />
<line x1="525.5445" y1="783.88965" x2="504.25363" y2="762.5988" id="link1_a1_26" stroke="red" stroke-width="4px" />
<line x1="525.5445" y1="783.88965" x2="525.5445" y2="783.88965" id="link1_a2_1" stroke="blue" stroke-width="4px" />
<line x1="525.5445" y1="783.88965" x2="525.5445" y2="783.88965" id="link1_a3_1" stroke="green" stroke-width="4px" />
<line x1="525.5445" y1="783.88965" x2="788.4555" y2="783.88965" id="link1_a0_2" style="stroke:black;stroke-width:4px" />
<line x1="788.4555" y1="783.88965" x2="809.7463" y2="762.5988" id="link2_a1_24" stroke="red" stroke-width="4px" />
<line x1="788.4555" y1="783.88965" x2="788.4555" y2="783.88965" id="link2_a2_2" stroke="blue" stroke-width="4px" />
<line x1="788.4555" y1="783.88965" x2="788.4555" y2="783.88965" id="link2_a3_2" stroke="green" stroke-width="4px" />
<polygon points="845.231,727.114 845.231,464.20306 823.9401,442.9122 692.48474,588.5615 692.48474,616.94934 823.9401,748.4049 " id="face_4_20_21_23_22_3"  style="fill:rgb(192,192,192);stroke:none" opacity="1.0" />
<line x1="845.231" y1="727.114" x2="823.9401" y2="748.4049" id="link3_a1_22" stroke="red" stroke-width="4px" />
<line x1="845.231" y1="727.114" x2="845.231" y2="727.114" id="link3_a2_3" stroke="blue" stroke-width="4px" />
<line x1="845.231" y1="727.114" x2="845.231" y2="727.114" id="link3_a3_3" stroke="green" stroke-width="4px" />
<line x1="845.231" y1="727.114" x2="845.231" y2="464.20306" id="link3_a0_4" style="stroke:black;stroke-width:4px" />
<line x1="845.231" y1="464.20306" x2="823.9401" y2="442.9122" id="link4_a1_20" stroke="red" stroke-width="4px" />
<line x1="845.231" y1="464.20306" x2="845.231" y2="464.20306" id="link4_a2_4" stroke="blue" stroke-width="4px" />
<line x1="845.231" y1="464.20306" x2="845.231" y2="464.20306" id="link4_a3_4" stroke="green" stroke-width="4px" />
<line x1="788.4555" y1="386.13666" x2="809.7463" y2="428.71832" id="link5_a1_18" stroke="red" stroke-width="4px" />
<line x1="788.4555" y1="386.13666" x2="788.4555" y2="364.84583" id="link5_a2_12" stroke="blue" stroke-width="4px" />
<line x1="788.4555" y1="386.13666" x2="788.4555" y2="386.13666" id="link5_a3_5" stroke="green" stroke-width="4px" />
<line x1="788.4555" y1="386.13666" x2="511.3506" y2="400.33054" id="link5_a0_6" style="stroke:black;stroke-width:4px" />
<line x1="511.3506" y1="400.33054" x2="490.0597" y2="442.9122" id="link6_a1_7" stroke="red" stroke-width="4px" />
<line x1="511.3506" y1="400.33054" x2="518.4475" y2="371.9428" id="link6_a2_8" stroke="blue" stroke-width="4px" />
<line x1="511.3506" y1="400.33054" x2="511.3506" y2="400.33054" id="link6_a3_6" stroke="green" stroke-width="4px" />
<circle cx="511.3506" cy="400.33054" r="5" fill="rgb(0,0,0)" stroke="none" id="dart6" />
<line x1="490.0597" y1="442.9122" x2="490.0597" y2="442.9122" id="link7_a2_7" stroke="blue" stroke-width="4px" />
<line x1="490.0597" y1="442.9122" x2="490.0597" y2="442.9122" id="link7_a3_7" stroke="green" stroke-width="4px" />
<circle cx="490.0597" cy="442.9122" r="5" fill="rgb(0,0,0)" stroke="none" id="dart7" />
<polygon points="518.4475,371.9428 788.4555,364.84583 795.5524,329.36096 664.0969,66.45001 649.903,66.45001 518.4475,329.36096 " id="face_12_13_14_10_9_8"  style="fill:rgb(192,192,192);stroke:none" opacity="1.0" />
<line x1="518.4475" y1="371.9428" x2="518.4475" y2="329.36096" id="link8_a1_9" stroke="red" stroke-width="4px" />
<line x1="518.4475" y1="371.9428" x2="518.4475" y2="371.9428" id="link8_a3_8" stroke="green" stroke-width="4px" />
<line x1="518.4475" y1="371.9428" x2="788.4555" y2="364.84583" id="link8_a0_12" style="stroke:black;stroke-width:4px" />
<line x1="518.4475" y1="329.36096" x2="518.4475" y2="329.36096" id="link9_a2_9" stroke="blue" stroke-width="4px" />
<line x1="518.4475" y1="329.36096" x2="518.4475" y2="329.36096" id="link9_a3_9" stroke="green" stroke-width="4px" />
<line x1="518.4475" y1="329.36096" x2="649.903" y2="66.45001" id="link9_a0_10" style="stroke:black;stroke-width:4px" />
<line x1="649.903" y1="66.45001" x2="664.0969" y2="66.45001" id="link10_a1_14" stroke="red" stroke-width="4px" />
<line x1="649.903" y1="66.45001" x2="649.903" y2="66.45001" id="link10_a2_10" stroke="blue" stroke-width="4px" />
<line x1="649.903" y1="66.45001" x2="649.903" y2="66.45001" id="link10_a3_10" stroke="green" stroke-width="4px" />
<circle cx="649.903" cy="66.45001" r="5" fill="rgb(0,0,0)" stroke="none" id="dart10" />
<line x1="788.4555" y1="364.84583" x2="795.5524" y2="329.36096" id="link12_a1_13" stroke="red" stroke-width="4px" />
<line x1="788.4555" y1="364.84583" x2="788.4555" y2="364.84583" id="link12_a3_12" stroke="green" stroke-width="4px" />
<line x1="795.5524" y1="329.36096" x2="795.5524" y2="329.36096" id="link13_a2_13" stroke="blue" stroke-width="4px" />
<line x1="795.5524" y1="329.36096" x2="795.5524" y2="329.36096" id="link13_a3_13" stroke="green" stroke-width="4px" />
<line x1="795.5524" y1="329.36096" x2="664.0969" y2="66.45001" id="link13_a0_14" style="stroke:black;stroke-width:4px" />
<line x1="664.0969" y1="66.45001" x2="664.0969" y2="66.45001" id="link14_a2_14" stroke="blue" stroke-width="4px" />
<line x1="664.0969" y1="66.45001" x2="664.0969" y2="66.45001" id="link14_a3_14" stroke="green" stroke-width="4px" />
<line x1="809.7463" y1="428.71832" x2="823.9401" y2="442.9122" id="link18_a2_20" stroke="blue" stroke-width="4px" />
<line x1="809.7463" y1="428.71832" x2="809.7463" y2="428.71832" id="link18_a3_18" stroke="green" stroke-width="4px" />
<line x1="809.7463" y1="428.71832" x2="678.2909" y2="588.5615" id="link18_a0_19" style="stroke:black;stroke-width:4px" />
<line x1="678.2909" y1="588.5615" x2="649.903" y2="616.94934" id="link19_a1_29" stroke="red" stroke-width="4px" />
<line x1="678.2909" y1="588.5615" x2="692.48474" y2="588.5615" id="link19_a2_21" stroke="blue" stroke-width="4px" />
<line x1="678.2909" y1="588.5615" x2="678.2909" y2="588.5615" id="link19_a3_19" stroke="green" stroke-width="4px" />
<circle cx="678.2909" cy="588.5615" r="5" fill="rgb(0,0,0)" stroke="none" id="dart19" />
<line x1="823.9401" y1="442.9122" x2="823.9401" y2="442.9122" id="link20_a3_20" stroke="green" stroke-width="4px" />
<line x1="823.9401" y1="442.9122" x2="692.48474" y2="588.5615" id="link20_a0_21" style="stroke:black;stroke-width:4px" />
<line x1="692.48474" y1="588.5615" x2="692.48474" y2="616.94934" id="link21_a1_23" stroke="red" stroke-width="4px" />
<line x1="692.48474" y1="588.5615" x2="692.48474" y2="588.5615" id="link21_a3_21" stroke="green" stroke-width="4px" />
<line x1="823.9401" y1="748.4049" x2="809.7463" y2="762.5988" id="link22_a2_24" stroke="blue" stroke-width="4px" />
<line x1="823.9401" y1="748.4049" x2="823.9401" y2="748.4049" id="link22_a3_22" stroke="green" stroke-width="4px" />
<line x1="823.9401" y1="748.4049" x2="692.48474" y2="616.94934" id="link22_a0_23" style="stroke:black;stroke-width:4px" />
<line x1="692.48474" y1="616.94934" x2="678.2909" y2="631.1433" id="link23_a2_25" stroke="blue" stroke-width="4px" />
<line x1="692.48474" y1="616.94934" x2="692.48474" y2="616.94934" id="link23_a3_23" stroke="green" stroke-width="4px" />
<line x1="809.7463" y1="762.5988" x2="809.7463" y2="762.5988" id="link24_a3_24" stroke="green" stroke-width="4px" />
<line x1="809.7463" y1="762.5988" x2="678.2909" y2="631.1433" id="link24_a0_25" style="stroke:black;stroke-width:4px" />
<line x1="678.2909" y1="631.1433" x2="649.903" y2="631.1433" id="link25_a1_27" stroke="red" stroke-width="4px" />
<line x1="678.2909" y1="631.1433" x2="678.2909" y2="631.1433" id="link25_a3_25" stroke="green" stroke-width="4px" />
<line x1="504.25363" y1="762.5988" x2="490.0597" y2="748.4049" id="link26_a2_28" stroke="blue" stroke-width="4px" />
<line x1="504.25363" y1="762.5988" x2="504.25363" y2="762.5988" id="link26_a3_26" stroke="green" stroke-width="4px" />
<line x1="504.25363" y1="762.5988" x2="649.903" y2="631.1433" id="link26_a0_27" style="stroke:black;stroke-width:4px" />
<line x1="649.903" y1="631.1433" x2="649.903" y2="616.94934" id="link27_a2_29" stroke="blue" stroke-width="4px" />
<line x1="649.903" y1="631.1433" x2="649.903" y2="631.1433" id="link27_a3_27" stroke="green" stroke-width="4px" />
<line x1="490.0597" y1="748.4049" x2="490.0597" y2="748.4049" id="link28_a3_28" stroke="green" stroke-width="4px" />
<line x1="490.0597" y1="748.4049" x2="649.903" y2="616.94934" id="link28_a0_29" style="stroke:black;stroke-width:4px" />
<line x1="649.903" y1="616.94934" x2="649.903" y2="616.94934" id="link29_a3_29" stroke="green" stroke-width="4px" />
<circle cx="649.903" cy="616.94934" r="5" fill="rgb(0,0,0)" stroke="none" id="dart29" />
</svg>
