<svg height="896" width="1314">
<polygon points="466.9514,828.09705 466.9514,448.0 466.9514,448.0 847.04846,448.0 847.04846,448.0 847.04846,828.09705 847.04846,828.09705 466.9514,828.09705 " id="face_7_6_5_4_3_2_1_0"  style="fill:rgb(192,192,192);stroke:none" opacity="1.0" />
<line x1="466.9514" y1="828.09705" x2="466.9514" y2="828.09705" id="link0_a1_1" stroke="red" stroke-width="4px" />
<line x1="466.9514" y1="828.09705" x2="466.9514" y2="828.09705" id="link0_a2_0" stroke="blue" stroke-width="4px" />
<line x1="466.9514" y1="828.09705" x2="466.9514" y2="828.09705" id="link0_a3_0" stroke="green" stroke-width="4px" />
<line x1="466.9514" y1="828.09705" x2="466.9514" y2="448.0" id="link0_a0_7" style="stroke:black;stroke-width:4px" />
<line x1="466.9514" y1="828.09705" x2="466.9514" y2="828.09705" id="link1_a2_1" stroke="blue" stroke-width="4px" />
<line x1="466.9514" y1="828.09705" x2="466.9514" y2="828.09705" id="link1_a3_1" stroke="green" stroke-width="4px" />
<line x1="466.9514" y1="828.09705" x2="847.04846" y2="828.09705" id="link1_a0_2" style="stroke:black;stroke-width:4px" />
<line x1="847.04846" y1="828.09705" x2="847.04846" y2="828.09705" id="link2_a1_3" stroke="red" stroke-width="4px" />
<line x1="847.04846" y1="828.09705" x2="847.04846" y2="828.09705" id="link2_a2_2" stroke="blue" stroke-width="4px" />
<line x1="847.04846" y1="828.09705" x2="847.04846" y2="828.09705" id="link2_a3_2" stroke="green" stroke-width="4px" />
<line x1="847.04846" y1="828.09705" x2="847.04846" y2="828.09705" id="link3_a2_3" stroke="blue" stroke-width="4px" />
<line x1="847.04846" y1="828.09705" x2="847.04846" y2="828.09705" id="link3_a3_3" stroke="green" stroke-width="4px" />
<line x1="847.04846" y1="828.09705" x2="847.04846" y2="448.0" id="link3_a0_4" style="stroke:black;stroke-width:4px" />
<line x1="847.04846" y1="448.0" x2="847.04846" y2="448.0" id="link4_a1_5" stroke="red" stroke-width="4px" />
<line x1="847.04846" y1="448.0" x2="847.04846" y2="448.0" id="link4_a2_4" stroke="blue" stroke-width="4px" />
<line x1="847.04846" y1="448.0" x2="847.04846" y2="448.0" id="link4_a3_4" stroke="green" stroke-width="4px" />
<line x1="847.04846" y1="448.0" x2="847.04846" y2="448.0" id="link5_a2_8" stroke="blue" stroke-width="4px" />
<line x1="847.04846" y1="448.0" x2="847.04846" y2="448.0" id="link5_a3_5" stroke="green" stroke-width="4px" />
<line x1="847.04846" y1="448.0" x2="466.9514" y2="448.0" id="link5_a0_6" style="stroke:black;stroke-width:4px" />
<line x1="466.9514" y1="448.0" x2="466.9514" y2="448.0" id="link6_a1_7" stroke="red" stroke-width="4px" />
<line x1="466.9514" y1="448.0" x2="466.9514" y2="448.0" id="link6_a2_12" stroke="blue" stroke-width="4px" />
<line x1="466.9514" y1="448.0" x2="466.9514" y2="448.0" id="link6_a3_6" stroke="green" stroke-width="4px" />
<line x1="466.9514" y1="448.0" x2="466.9514" y2="448.0" id="link7_a2_7" stroke="blue" stroke-width="4px" />
<line x1="466.9514" y1="448.0" x2="466.9514" y2="448.0" id="link7_a3_7" stroke="green" stroke-width="4px" />
<polygon points="847.04846,448.0 466.9514,448.0 466.9514,448.0 656.99994,67.902954 656.99994,67.902954 847.04846,448.0 " id="face_12_13_14_10_9_8"  style="fill:rgb(192,192,192);stroke:none" opacity="1.0" />
<line x1="847.04846" y1="448.0" x2="847.04846" y2="448.0" id="link8_a1_9" stroke="red" stroke-width="4px" />
<line x1="847.04846" y1="448.0" x2="847.04846" y2="448.0" id="link8_a3_8" stroke="green" stroke-width="4px" />
<line x1="847.04846" y1="448.0" x2="466.9514" y2="448.0" id="link8_a0_12" style="stroke:black;stroke-width:4px" />
<line x1="847.04846" y1="448.0" x2="847.04846" y2="448.0" id="link9_a2_9" stroke="blue" stroke-width="4px" />
<line x1="847.04846" y1="448.0" x2="847.04846" y2="448.0" id="link9_a3_9" stroke="green" stroke-width="4px" />
<line x1="847.04846" y1="448.0" x2="656.99994" y2="67.902954" id="link9_a0_10" style="stroke:black;stroke-width:4px" />
<line x1="656.99994" y1="67.902954" x2="656.99994" y2="67.902954" id="link10_a1_14" stroke="red" stroke-width="4px" />
<line x1="656.99994" y1="67.902954" x2="656.99994" y2="67.902954" id="link10_a2_10" stroke="blue" stroke-width="4px" />
<line x1="656.99994" y1="67.902954" x2="656.99994" y2="67.902954" id="link10_a3_10" stroke="green" stroke-width="4px" />
<line x1="466.9514" y1="448.0" x2="466.9514" y2="448.0" id="link12_a1_13" stroke="red" stroke-width="4px" />
<line x1="466.9514" y1="448.0" x2="466.9514" y2="448.0" id="link12_a3_12" stroke="green" stroke-width="4px" />
<line x1="466.9514" y1="448.0" x2="466.9514" y2="448.0" id="link13_a2_13" stroke="blue" stroke-width="4px" />
<line x1="466.9514" y1="448.0" x2="466.9514" y2="448.0" id="link13_a3_13" stroke="green" stroke-width="4px" />
<line x1="466.9514" y1="448.0" x2="656.99994" y2="67.902954" id="link13_a0_14" style="stroke:black;stroke-width:4px" />
<line x1="656.99994" y1="67.902954" x2="656.99994" y2="67.902954" id="link14_a2_14" stroke="blue" stroke-width="4px" />
<line x1="656.99994" y1="67.902954" x2="656.99994" y2="67.902954" id="link14_a3_14" stroke="green" stroke-width="4px" />
</svg>
