<svg height="892" width="1317">
<polygon points="482.94177,749.0303 482.94177,455.96866 519.226,397.9139 797.774,397.9139 834.05817,455.96866 834.05817,749.0303 805.03076,778.0576 511.96918,778.0576 " id="face_7_6_5_4_3_2_1_0"  style="fill:rgb(192,192,192);stroke:none" opacity="1.0" />
<line x1="482.94177" y1="749.0303" x2="511.96918" y2="778.0576" id="link0_a1_1" stroke="red" stroke-width="4px" />
<line x1="482.94177" y1="749.0303" x2="482.94177" y2="749.0303" id="link0_a2_0" stroke="blue" stroke-width="4px" />
<line x1="482.94177" y1="749.0303" x2="482.94177" y2="749.0303" id="link0_a3_0" stroke="green" stroke-width="4px" />
<line x1="482.94177" y1="749.0303" x2="482.94177" y2="455.96866" id="link0_a0_7" style="stroke:black;stroke-width:4px" />
<circle cx="482.94177" cy="749.0303" r="5" fill="rgb(0,0,0)" stroke="none" id="dart0" />
<line x1="511.96918" y1="778.0576" x2="511.96918" y2="778.0576" id="link1_a2_1" stroke="blue" stroke-width="4px" />
<line x1="511.96918" y1="778.0576" x2="511.96918" y2="778.0576" id="link1_a3_1" stroke="green" stroke-width="4px" />
<line x1="511.96918" y1="778.0576" x2="805.03076" y2="778.0576" id="link1_a0_2" style="stroke:black;stroke-width:4px" />
<circle cx="511.96918" cy="778.0576" r="5" fill="rgb(0,0,0)" stroke="none" id="dart1" />
<line x1="805.03076" y1="778.0576" x2="834.05817" y2="749.0303" id="link2_a1_3" stroke="red" stroke-width="4px" />
<line x1="805.03076" y1="778.0576" x2="805.03076" y2="778.0576" id="link2_a2_2" stroke="blue" stroke-width="4px" />
<line x1="805.03076" y1="778.0576" x2="805.03076" y2="778.0576" id="link2_a3_2" stroke="green" stroke-width="4px" />
<circle cx="805.03076" cy="778.0576" r="5" fill="rgb(0,0,0)" stroke="none" id="dart2" />
<line x1="834.05817" y1="749.0303" x2="834.05817" y2="749.0303" id="link3_a2_3" stroke="blue" stroke-width="4px" />
<line x1="834.05817" y1="749.0303" x2="834.05817" y2="749.0303" id="link3_a3_3" stroke="green" stroke-width="4px" />
<line x1="834.05817" y1="749.0303" x2="834.05817" y2="455.96866" id="link3_a0_4" style="stroke:black;stroke-width:4px" />
<circle cx="834.05817" cy="749.0303" r="5" fill="rgb(0,0,0)" stroke="none" id="dart3" />
<line x1="834.05817" y1="455.96866" x2="797.774" y2="397.9139" id="link4_a1_5" stroke="red" stroke-width="4px" />
<line x1="834.05817" y1="455.96866" x2="834.05817" y2="455.96866" id="link4_a2_4" stroke="blue" stroke-width="4px" />
<line x1="834.05817" y1="455.96866" x2="834.05817" y2="455.96866" id="link4_a3_4" stroke="green" stroke-width="4px" />
<circle cx="834.05817" cy="455.96866" r="5" fill="rgb(0,0,0)" stroke="none" id="dart4" />
<line x1="797.774" y1="397.9139" x2="790.5171" y2="368.8866" id="link5_a2_8" stroke="blue" stroke-width="4px" />
<line x1="797.774" y1="397.9139" x2="797.774" y2="397.9139" id="link5_a3_5" stroke="green" stroke-width="4px" />
<line x1="797.774" y1="397.9139" x2="519.226" y2="397.9139" id="link5_a0_6" style="stroke:black;stroke-width:4px" />
<circle cx="797.774" cy="397.9139" r="5" fill="rgb(0,0,0)" stroke="none" id="dart5" />
<line x1="519.226" y1="397.9139" x2="482.94177" y2="455.96866" id="link6_a1_7" stroke="red" stroke-width="4px" />
<line x1="519.226" y1="397.9139" x2="526.48285" y2="368.8866" id="link6_a2_12" stroke="blue" stroke-width="4px" />
<line x1="519.226" y1="397.9139" x2="519.226" y2="397.9139" id="link6_a3_6" stroke="green" stroke-width="4px" />
<circle cx="519.226" cy="397.9139" r="5" fill="rgb(0,0,0)" stroke="none" id="dart6" />
<line x1="482.94177" y1="455.96866" x2="482.94177" y2="455.96866" id="link7_a2_7" stroke="blue" stroke-width="4px" />
<line x1="482.94177" y1="455.96866" x2="482.94177" y2="455.96866" id="link7_a3_7" stroke="green" stroke-width="4px" />
<circle cx="482.94177" cy="455.96866" r="5" fill="rgb(0,0,0)" stroke="none" id="dart7" />
<polygon points="790.5171,368.8866 526.48285,368.8866 519.226,310.83173 643.9863,61.31122 673.0137,61.31122 797.774,310.83173 " id="face_12_13_14_10_9_8"  style="fill:rgb(192,192,192);stroke:none" opacity="1.0" />
<line x1="790.5171" y1="368.8866" x2="797.774" y2="310.83173" id="link8_a1_9" stroke="red" stroke-width="4px" />
<line x1="790.5171" y1="368.8866" x2="790.5171" y2="368.8866" id="link8_a3_8" stroke="green" stroke-width="4px" />
<line x1="790.5171" y1="368.8866" x2="526.48285" y2="368.8866" id="link8_a0_12" style="stroke:black;stroke-width:4px" />
<circle cx="790.5171" cy="368.8866" r="5" fill="rgb(0,0,0)" stroke="none" id="dart8" />
<line x1="797.774" y1="310.83173" x2="797.774" y2="310.83173" id="link9_a2_9" stroke="blue" stroke-width="4px" />
<line x1="797.774" y1="310.83173" x2="797.774" y2="310.83173" id="link9_a3_9" stroke="green" stroke-width="4px" />
<line x1="797.774" y1="310.83173" x2="673.0137" y2="61.31122" id="link9_a0_10" style="stroke:black;stroke-width:4px" />
<circle cx="797.774" cy="310.83173" r="5" fill="rgb(0,0,0)" stroke="none" id="dart9" />
<line x1="673.0137" y1="61.31122" x2="643.9863" y2="61.31122" id="link10_a1_14" stroke="red" stroke-width="4px" />
<line x1="673.0137" y1="61.31122" x2="673.0137" y2="61.31122" id="link10_a2_10" stroke="blue" stroke-width="4px" />
<line x1="673.0137" y1="61.31122" x2="673.0137" y2="61.31122" id="link10_a3_10" stroke="green" stroke-width="4px" />
<circle cx="673.0137" cy="61.31122" r="5" fill="rgb(0,0,0)" stroke="none" id="dart10" />
<line x1="526.48285" y1="368.8866" x2="519.226" y2="310.83173" id="link12_a1_13" stroke="red" stroke-width="4px" />
<line x1="526.48285" y1="368.8866" x2="526.48285" y2="368.8866" id="link12_a3_12" stroke="green" stroke-width="4px" />
<circle cx="526.48285" cy="368.8866" r="5" fill="rgb(0,0,0)" stroke="none" id="dart12" />
<line x1="519.226" y1="310.83173" x2="519.226" y2="310.83173" id="link13_a2_13" stroke="blue" stroke-width="4px" />
<line x1="519.226" y1="310.83173" x2="519.226" y2="310.83173" id="link13_a3_13" stroke="green" stroke-width="4px" />
<line x1="519.226" y1="310.83173" x2="643.9863" y2="61.31122" id="link13_a0_14" style="stroke:black;stroke-width:4px" />
<circle cx="519.226" cy="310.83173" r="5" fill="rgb(0,0,0)" stroke="none" id="dart13" />
<line x1="643.9863" y1="61.31122" x2="643.9863" y2="61.31122" id="link14_a2_14" stroke="blue" stroke-width="4px" />
<line x1="643.9863" y1="61.31122" x2="643.9863" y2="61.31122" id="link14_a3_14" stroke="green" stroke-width="4px" />
<circle cx="643.9863" cy="61.31122" r="5" fill="rgb(0,0,0)" stroke="none" id="dart14" />
</svg>
