<svg height="892" width="1314">
<polygon points="468.7689,727.114 468.7689,464.20306 490.0597,442.9122 621.5152,574.3677 621.5152,616.94934 490.0597,748.4049 " id="face_7_15_11_29_28_0"  style="fill:rgb(192,192,192);stroke:none" opacity="1.0" />
<line x1="468.7689" y1="727.114" x2="490.0597" y2="748.4049" id="link0_a1_28" stroke="red" stroke-width="4px" />
<line x1="468.7689" y1="727.114" x2="468.7689" y2="727.114" id="link0_a2_0" stroke="blue" stroke-width="4px" />
<line x1="468.7689" y1="727.114" x2="468.7689" y2="727.114" id="link0_a3_0" stroke="green" stroke-width="4px" />
<line x1="468.7689" y1="727.114" x2="468.7689" y2="464.20306" id="link0_a0_7" style="stroke:black;stroke-width:4px" />
<polygon points="525.5445,783.88965 788.4555,783.88965 809.7463,762.5988 678.2909,631.1433 635.7091,631.1433 504.25363,762.5988 " id="face_2_24_25_27_26_1"  style="fill:rgb(192,192,192);stroke:none" opacity="1.0" />
<line x1="525.5445" y1="783.88965" x2="504.25363" y2="762.5988" id="link1_a1_26" stroke="red" stroke-width="4px" />
<line x1="525.5445" y1="783.88965" x2="525.5445" y2="783.88965" id="link1_a2_1" stroke="blue" stroke-width="4px" />
<line x1="525.5445" y1="783.88965" x2="525.5445" y2="783.88965" id="link1_a3_1" stroke="green" stroke-width="4px" />
<line x1="525.5445" y1="783.88965" x2="788.4555" y2="783.88965" id="link1_a0_2" style="stroke:black;stroke-width:4px" />
<line x1="788.4555" y1="783.88965" x2="809.7463" y2="762.5988" id="link2_a1_24" stroke="red" stroke-width="4px" />
<line x1="788.4555" y1="783.88965" x2="788.4555" y2="783.88965" id="link2_a2_2" stroke="blue" stroke-width="4px" />
<line x1="788.4555" y1="783.88965" x2="788.4555" y2="783.88965" id="link2_a3_2" stroke="green" stroke-width="4px" />
<polygon points="845.231,727.114 845.231,464.20306 823.9401,442.9122 692.48474,574.3677 692.48474,616.94934 823.9401,748.4049 " id="face_4_20_21_23_22_3"  style="fill:rgb(192,192,192);stroke:none" opacity="1.0" />
<line x1="845.231" y1="727.114" x2="823.9401" y2="748.4049" id="link3_a1_22" stroke="red" stroke-width="4px" />
<line x1="845.231" y1="727.114" x2="845.231" y2="727.114" id="link3_a2_3" stroke="blue" stroke-width="4px" />
<line x1="845.231" y1="727.114" x2="845.231" y2="727.114" id="link3_a3_3" stroke="green" stroke-width="4px" />
<line x1="845.231" y1="727.114" x2="845.231" y2="464.20306" id="link3_a0_4" style="stroke:black;stroke-width:4px" />
<line x1="845.231" y1="464.20306" x2="823.9401" y2="442.9122" id="link4_a1_20" stroke="red" stroke-width="4px" />
<line x1="845.231" y1="464.20306" x2="845.231" y2="464.20306" id="link4_a2_4" stroke="blue" stroke-width="4px" />
<line x1="845.231" y1="464.20306" x2="845.231" y2="464.20306" id="link4_a3_4" stroke="green" stroke-width="4px" />
<polygon points="788.4555,386.13666 525.5445,386.13666 504.25363,428.71832 635.7091,560.17377 678.2909,560.17377 809.7463,428.71832 " id="face_6_16_17_19_18_5"  style="fill:rgb(192,192,192);stroke:none" opacity="1.0" />
<line x1="788.4555" y1="386.13666" x2="809.7463" y2="428.71832" id="link5_a1_18" stroke="red" stroke-width="4px" />
<line x1="788.4555" y1="386.13666" x2="788.4555" y2="364.84583" id="link5_a2_12" stroke="blue" stroke-width="4px" />
<line x1="788.4555" y1="386.13666" x2="788.4555" y2="386.13666" id="link5_a3_5" stroke="green" stroke-width="4px" />
<line x1="788.4555" y1="386.13666" x2="525.5445" y2="386.13666" id="link5_a0_6" style="stroke:black;stroke-width:4px" />
<line x1="525.5445" y1="386.13666" x2="504.25363" y2="428.71832" id="link6_a1_16" stroke="red" stroke-width="4px" />
<line x1="525.5445" y1="386.13666" x2="525.5445" y2="364.84583" id="link6_a2_8" stroke="blue" stroke-width="4px" />
<line x1="525.5445" y1="386.13666" x2="525.5445" y2="386.13666" id="link6_a3_6" stroke="green" stroke-width="4px" />
<circle cx="525.5445" cy="386.13666" r="5" fill="rgb(0,0,0)" stroke="none" id="dart6" />
<line x1="468.7689" y1="464.20306" x2="490.0597" y2="442.9122" id="link7_a1_15" stroke="red" stroke-width="4px" />
<line x1="468.7689" y1="464.20306" x2="468.7689" y2="464.20306" id="link7_a2_7" stroke="blue" stroke-width="4px" />
<line x1="468.7689" y1="464.20306" x2="468.7689" y2="464.20306" id="link7_a3_7" stroke="green" stroke-width="4px" />
<circle cx="468.7689" cy="464.20306" r="5" fill="rgb(0,0,0)" stroke="none" id="dart7" />
<polygon points="525.5445,364.84583 788.4555,364.84583 795.5524,329.36096 664.0969,66.45001 649.903,66.45001 518.4475,329.36096 " id="face_12_13_14_10_9_8"  style="fill:rgb(192,192,192);stroke:none" opacity="1.0" />
<line x1="525.5445" y1="364.84583" x2="518.4475" y2="329.36096" id="link8_a1_9" stroke="red" stroke-width="4px" />
<line x1="525.5445" y1="364.84583" x2="525.5445" y2="364.84583" id="link8_a3_8" stroke="green" stroke-width="4px" />
<line x1="525.5445" y1="364.84583" x2="788.4555" y2="364.84583" id="link8_a0_12" style="stroke:black;stroke-width:4px" />
<line x1="518.4475" y1="329.36096" x2="518.4475" y2="329.36096" id="link9_a2_9" stroke="blue" stroke-width="4px" />
<line x1="518.4475" y1="329.36096" x2="518.4475" y2="329.36096" id="link9_a3_9" stroke="green" stroke-width="4px" />
<line x1="518.4475" y1="329.36096" x2="649.903" y2="66.45001" id="link9_a0_10" style="stroke:black;stroke-width:4px" />
<line x1="649.903" y1="66.45001" x2="664.0969" y2="66.45001" id="link10_a1_14" stroke="red" stroke-width="4px" />
<line x1="649.903" y1="66.45001" x2="649.903" y2="66.45001" id="link10_a2_10" stroke="blue" stroke-width="4px" />
<line x1="649.903" y1="66.45001" x2="649.903" y2="66.45001" id="link10_a3_10" stroke="green" stroke-width="4px" />
<line x1="621.5152" y1="574.3677" x2="621.5152" y2="616.94934" id="link11_a1_29" stroke="red" stroke-width="4px" />
<line x1="621.5152" y1="574.3677" x2="635.7091" y2="560.17377" id="link11_a2_17" stroke="blue" stroke-width="4px" />
<line x1="621.5152" y1="574.3677" x2="621.5152" y2="574.3677" id="link11_a3_11" stroke="green" stroke-width="4px" />
<line x1="621.5152" y1="574.3677" x2="490.0597" y2="442.9122" id="link11_a0_15" style="stroke:black;stroke-width:4px" />
<circle cx="621.5152" cy="574.3677" r="5" fill="rgb(0,0,0)" stroke="none" id="dart11" />
<line x1="788.4555" y1="364.84583" x2="795.5524" y2="329.36096" id="link12_a1_13" stroke="red" stroke-width="4px" />
<line x1="788.4555" y1="364.84583" x2="788.4555" y2="364.84583" id="link12_a3_12" stroke="green" stroke-width="4px" />
<line x1="795.5524" y1="329.36096" x2="795.5524" y2="329.36096" id="link13_a2_13" stroke="blue" stroke-width="4px" />
<line x1="795.5524" y1="329.36096" x2="795.5524" y2="329.36096" id="link13_a3_13" stroke="green" stroke-width="4px" />
<line x1="795.5524" y1="329.36096" x2="664.0969" y2="66.45001" id="link13_a0_14" style="stroke:black;stroke-width:4px" />
<line x1="664.0969" y1="66.45001" x2="664.0969" y2="66.45001" id="link14_a2_14" stroke="blue" stroke-width="4px" />
<line x1="664.0969" y1="66.45001" x2="664.0969" y2="66.45001" id="link14_a3_14" stroke="green" stroke-width="4px" />
<line x1="490.0597" y1="442.9122" x2="504.25363" y2="428.71832" id="link15_a2_16" stroke="blue" stroke-width="4px" />
<line x1="490.0597" y1="442.9122" x2="490.0597" y2="442.9122" id="link15_a3_15" stroke="green" stroke-width="4px" />
<circle cx="490.0597" cy="442.9122" r="5" fill="rgb(0,0,0)" stroke="none" id="dart15" />
<line x1="504.25363" y1="428.71832" x2="504.25363" y2="428.71832" id="link16_a3_16" stroke="green" stroke-width="4px" />
<line x1="504.25363" y1="428.71832" x2="635.7091" y2="560.17377" id="link16_a0_17" style="stroke:black;stroke-width:4px" />
<circle cx="504.25363" cy="428.71832" r="5" fill="rgb(0,0,0)" stroke="none" id="dart16" />
<line x1="635.7091" y1="560.17377" x2="678.2909" y2="560.17377" id="link17_a1_19" stroke="red" stroke-width="4px" />
<line x1="635.7091" y1="560.17377" x2="635.7091" y2="560.17377" id="link17_a3_17" stroke="green" stroke-width="4px" />
<circle cx="635.7091" cy="560.17377" r="5" fill="rgb(0,0,0)" stroke="none" id="dart17" />
<line x1="809.7463" y1="428.71832" x2="823.9401" y2="442.9122" id="link18_a2_20" stroke="blue" stroke-width="4px" />
<line x1="809.7463" y1="428.71832" x2="809.7463" y2="428.71832" id="link18_a3_18" stroke="green" stroke-width="4px" />
<line x1="809.7463" y1="428.71832" x2="678.2909" y2="560.17377" id="link18_a0_19" style="stroke:black;stroke-width:4px" />
<line x1="678.2909" y1="560.17377" x2="692.48474" y2="574.3677" id="link19_a2_21" stroke="blue" stroke-width="4px" />
<line x1="678.2909" y1="560.17377" x2="678.2909" y2="560.17377" id="link19_a3_19" stroke="green" stroke-width="4px" />
<circle cx="678.2909" cy="560.17377" r="5" fill="rgb(0,0,0)" stroke="none" id="dart19" />
<line x1="823.9401" y1="442.9122" x2="823.9401" y2="442.9122" id="link20_a3_20" stroke="green" stroke-width="4px" />
<line x1="823.9401" y1="442.9122" x2="692.48474" y2="574.3677" id="link20_a0_21" style="stroke:black;stroke-width:4px" />
<line x1="692.48474" y1="574.3677" x2="692.48474" y2="616.94934" id="link21_a1_23" stroke="red" stroke-width="4px" />
<line x1="692.48474" y1="574.3677" x2="692.48474" y2="574.3677" id="link21_a3_21" stroke="green" stroke-width="4px" />
<line x1="823.9401" y1="748.4049" x2="809.7463" y2="762.5988" id="link22_a2_24" stroke="blue" stroke-width="4px" />
<line x1="823.9401" y1="748.4049" x2="823.9401" y2="748.4049" id="link22_a3_22" stroke="green" stroke-width="4px" />
<line x1="823.9401" y1="748.4049" x2="692.48474" y2="616.94934" id="link22_a0_23" style="stroke:black;stroke-width:4px" />
<line x1="692.48474" y1="616.94934" x2="678.2909" y2="631.1433" id="link23_a2_25" stroke="blue" stroke-width="4px" />
<line x1="692.48474" y1="616.94934" x2="692.48474" y2="616.94934" id="link23_a3_23" stroke="green" stroke-width="4px" />
<line x1="809.7463" y1="762.5988" x2="809.7463" y2="762.5988" id="link24_a3_24" stroke="green" stroke-width="4px" />
<line x1="809.7463" y1="762.5988" x2="678.2909" y2="631.1433" id="link24_a0_25" style="stroke:black;stroke-width:4px" />
<line x1="678.2909" y1="631.1433" x2="635.7091" y2="631.1433" id="link25_a1_27" stroke="red" stroke-width="4px" />
<line x1="678.2909" y1="631.1433" x2="678.2909" y2="631.1433" id="link25_a3_25" stroke="green" stroke-width="4px" />
<line x1="504.25363" y1="762.5988" x2="490.0597" y2="748.4049" id="link26_a2_28" stroke="blue" stroke-width="4px" />
<line x1="504.25363" y1="762.5988" x2="504.25363" y2="762.5988" id="link26_a3_26" stroke="green" stroke-width="4px" />
<line x1="504.25363" y1="762.5988" x2="635.7091" y2="631.1433" id="link26_a0_27" style="stroke:black;stroke-width:4px" />
<line x1="635.7091" y1="631.1433" x2="621.5152" y2="616.94934" id="link27_a2_29" stroke="blue" stroke-width="4px" />
<line x1="635.7091" y1="631.1433" x2="635.7091" y2="631.1433" id="link27_a3_27" stroke="green" stroke-width="4px" />
<line x1="490.0597" y1="748.4049" x2="490.0597" y2="748.4049" id="link28_a3_28" stroke="green" stroke-width="4px" />
<line x1="490.0597" y1="748.4049" x2="621.5152" y2="616.94934" id="link28_a0_29" style="stroke:black;stroke-width:4px" />
<line x1="621.5152" y1="616.94934" x2="621.5152" y2="616.94934" id="link29_a3_29" stroke="green" stroke-width="4px" />
<circle cx="621.5152" cy="616.94934" r="5" fill="rgb(0,0,0)" stroke="none" id="dart29" />
</svg>
