<?xml version="1.0" standalone="no"?> 
<!DOCTYPE svg PUBLIC "-//W3C//DTD SVG 1.1//EN" 
"http://www.w3.org/Graphics/SVG/1.1/DTD/svg11.dtd"> 
<svg xmlns="http://www.w3.org/2000/svg" version="1.1" font="Noto Sans Regular" font-size="12" width="474" height="131" > 
<g>
<circle id="LGn1_0" cx="155" cy="77" r="33" fill="none" stroke="rgb(0,0,0)" stroke-width="1" stroke-linecap="square"  />
<text id="LGn1_1" x="140" y="79" fill="rgb(0,0,0)" >&lt;&#945;0&gt;</text>
<rect id="LGn1_2" x="148" y="97" width="15" height="17" fill="rgb(255,255,255)" />
<text id="LGn1_3" x="149" y="114" fill="rgb(0,0,0)" >n1</text>
<circle id="LGn0_4" cx="35" cy="77" r="33" fill="none" stroke="rgb(0,0,0)" stroke-width="1" stroke-linecap="square"  />
<circle id="LGn0_5" cx="35" cy="77" r="35" fill="none" stroke="rgb(0,0,0)" stroke-width="1" stroke-linecap="square"  />
<text id="LGn0_6" x="20" y="79" fill="rgb(0,0,0)" >&lt;&#945;0&gt;</text>
<rect id="LGn0_7" x="28" y="97" width="15" height="17" fill="rgb(255,255,255)" />
<text id="LGn0_8" x="29" y="114" fill="rgb(0,0,0)" >n0</text>
<line id="LGn0_2_n1_9" x1="75" y1="77" x2="117" y2="77" stroke="rgb(0,0,200)" stroke-width="1" stroke-linecap="square" />
<text id="LGn0_2_n1_10" x="89" y="97" fill="rgb(0,0,200)" >&#945;2</text>
</g>
<g>
<polygon id="0" points="198,71 229,71 229,65 248,77 229,90 229,83 198,83 " stroke="rgb(0,0,0)" stroke-width="1" stroke-linecap="square"  fill="rgb(0,0,0)" />
</g>
<g>
<circle id="RGn0_0" cx="286" cy="77" r="33" fill="none" stroke="rgb(0,0,0)" stroke-width="1" stroke-linecap="square"  />
<text id="RGn0_1" x="271" y="79" fill="rgb(0,0,0)" >&lt;&#945;0&gt;</text>
<rect id="RGn0_2" x="279" y="97" width="15" height="17" fill="rgb(255,255,255)" />
<text id="RGn0_3" x="280" y="114" fill="rgb(0,0,0)" >n0</text>
<circle id="RGn1_4" cx="436" cy="77" r="33" fill="none" stroke="rgb(0,0,0)" stroke-width="1" stroke-linecap="square"  />
<text id="RGn1_5" x="421" y="79" fill="rgb(0,0,0)" >&lt;&#945;0&gt;</text>
<rect id="RGn1_6" x="429" y="97" width="15" height="17" fill="rgb(255,255,255)" />
<text id="RGn1_7" x="430" y="114" fill="rgb(0,0,0)" >n1</text>
<path id="RGn1_2_n1_8" d="M415 45 L 412 34 C 404 1, 369 28  , 399 45  L 409 49 " fill="none" stroke="rgb(0,0,200)" stroke-width="1" stroke-linecap="square"  />
<path id="RGn1_2_n1_9" d="M413 46 L 412 35 C 405 5, 373 30  , 401 44  L 411 48 " fill="none" stroke="rgb(0,0,200)" stroke-width="1" stroke-linecap="square"  />
<text id="RGn1_2_n1_10" x="378" y="17" fill="rgb(0,0,200)" >&#945;2</text>
<path id="RGn0_2_n0_11" d="M311 48 L 321 44 C 350 25, 314 0  , 307 33  L 305 44 " fill="none" stroke="rgb(0,0,200)" stroke-width="1" stroke-linecap="square"  />
<path id="RGn0_2_n0_12" d="M309 47 L 319 42 C 346 27, 313 4  , 308 34  L 307 45 " fill="none" stroke="rgb(0,0,200)" stroke-width="1" stroke-linecap="square"  />
<text id="RGn0_2_n0_13" x="327" y="15" fill="rgb(0,0,200)" >&#945;2</text>
</g>
</svg>
