<?xml version="1.0" encoding="UTF-8" standalone="no"?>
<svg
   version="1.1"
   font="Noto Sans Regular"
   font-size="12px"
   width="470"
   height="72.620003"
   id="svg287"
   sodipodi:docname="rule-unsewA2.svg"
   inkscape:version="1.2.2 (b0a8486541, 2022-12-01)"
   xmlns:inkscape="http://www.inkscape.org/namespaces/inkscape"
   xmlns:sodipodi="http://sodipodi.sourceforge.net/DTD/sodipodi-0.dtd"
   xmlns="http://www.w3.org/2000/svg"
   xmlns:svg="http://www.w3.org/2000/svg">
  <defs
     id="defs291" />
  <sodipodi:namedview
     id="namedview289"
     pagecolor="#ffffff"
     bordercolor="#000000"
     borderopacity="0.25"
     inkscape:showpageshadow="2"
     inkscape:pageopacity="0.0"
     inkscape:pagecheckerboard="0"
     inkscape:deskcolor="#d1d1d1"
     showgrid="false"
     inkscape:zoom="1.8453398"
     inkscape:cx="105.40064"
     inkscape:cy="2.4385753"
     inkscape:window-width="1908"
     inkscape:window-height="1048"
     inkscape:window-x="1085"
     inkscape:window-y="25"
     inkscape:window-maximized="1"
     inkscape:current-layer="svg287" />
  <circle
     id="LGn1_0"
     cx="155.5"
     cy="35.5"
     r="33"
     fill="none"
     stroke="#000000"
     stroke-width="1"
     stroke-linecap="square"
     style="fill:#0ac0ff;fill-opacity:0.8" />
  <text
     id="LGn1_1"
     x="140.5"
     y="37.5"
     fill="#000000">&lt;α0&gt;</text>
  <rect
     id="LGn1_2"
     x="148.5"
     y="55.5"
     width="15"
     height="17"
     fill="#ffffff" />
  <text
     id="LGn1_3"
     x="149.5"
     y="72.5"
     fill="#000000">n1</text>
  <circle
     id="LGn0_4"
     cx="35.5"
     cy="35.5"
     r="33"
     fill="none"
     stroke="#000000"
     stroke-width="1"
     stroke-linecap="square"
     style="fill:#ffc000;fill-opacity:0.8" />
  <circle
     id="LGn0_5"
     cx="35.5"
     cy="35.5"
     r="35"
     fill="none"
     stroke="#000000"
     stroke-width="1"
     stroke-linecap="square" />
  <text
     id="LGn0_6"
     x="20.5"
     y="37.5"
     fill="#000000">&lt;α0&gt;</text>
  <rect
     id="LGn0_7"
     x="28.5"
     y="55.5"
     width="15"
     height="17"
     fill="#ffffff" />
  <text
     id="LGn0_8"
     x="29.5"
     y="72.5"
     fill="#000000">n0</text>
  <line
     id="LGn0_2_n1_9"
     x1="75.5"
     y1="35.5"
     x2="117.5"
     y2="35.5"
     stroke="#0000c8"
     stroke-width="1"
     stroke-linecap="square" />
  <text
     id="LGn0_2_n1_10"
     x="89.5"
     y="55.5"
     fill="#0000c8">α2</text>
  <g
     id="g269"
     transform="translate(0.5,-41.500004)">
    <polygon
       id="0"
       points="198,83 198,71 229,71 229,65 248,77 229,90 229,83 "
       stroke="#000000"
       stroke-width="1"
       stroke-linecap="square"
       fill="#000000" />
  </g>
  <circle
     id="RGn0_0"
     cx="286.5"
     cy="35.5"
     r="33"
     fill="none"
     stroke="#000000"
     stroke-width="1"
     stroke-linecap="square"
     style="fill:#fac000;fill-opacity:0.8" />
  <text
     id="RGn0_1"
     x="271.5"
     y="37.5"
     fill="#000000">&lt;α0&gt;</text>
  <rect
     id="RGn0_2"
     x="279.5"
     y="55.5"
     width="15"
     height="17"
     fill="#ffffff" />
  <text
     id="RGn0_3"
     x="280.5"
     y="72.5"
     fill="#000000">n0</text>
  <circle
     id="RGn1_4"
     cx="436.5"
     cy="35.5"
     r="33"
     fill="none"
     stroke="#000000"
     stroke-width="1"
     stroke-linecap="square"
     style="fill:#00c0ff;fill-opacity:0.8" />
  <text
     id="RGn1_5"
     x="421.5"
     y="37.5"
     fill="#000000">&lt;α0&gt;</text>
  <rect
     id="RGn1_6"
     x="429.5"
     y="55.5"
     width="15"
     height="17"
     fill="#ffffff" />
  <text
     id="RGn1_7"
     x="430.5"
     y="72.5"
     fill="#000000">n1</text>
  <path
     id="RGn1_2_n1_8"
     d="m 401.61353,35.313342 -11.02628,-2.901923 c -32.57884,-9.571797 -26.69615,34.239087 3.02628,16.75833 l 8.4641,-6.660254"
     fill="none"
     stroke="#0000c8"
     stroke-width="1"
     stroke-linecap="square" />
  <path
     id="RGn1_2_n1_9"
     d="m 401.47955,37.545393 -10.02628,-4.633974 c -29.48076,-8.937823 -23.83012,31.27499 2.29423,14.026279 l 8.4641,-6.660254"
     fill="none"
     stroke="#0000c8"
     stroke-width="1"
     stroke-linecap="square" />
  <text
     id="RGn1_2_n1_10"
     x="352.02124"
     y="48.558861"
     fill="#0000c8">α2</text>
  <path
     id="RGn0_2_n0_11"
     d="m 321.68807,30.14744 10.34415,3.122672 c 34.6336,3.277146 22.07594,-38.7316225 -4.0831,-17.33455 l -8.45839,7.340565"
     fill="none"
     stroke="#0000c8"
     stroke-width="1.00169"
     stroke-linecap="square" />
  <path
     id="RGn0_2_n0_12"
     d="m 320.74682,28.1173 10.97057,2.341779 c 30.5602,5.151467 19.10122,-33.4216445 -3.61085,-13.118001 l -7.67456,7.96519"
     fill="none"
     stroke="#0000c8"
     stroke-width="1.00169"
     stroke-linecap="square" />
  <text
     id="RGn0_2_n0_13"
     x="355.33551"
     y="20.903017"
     fill="#0000c8"
     transform="matrix(1.0005876,-0.00260077,-6.4716481e-4,0.99941442,0,0)"
     style="font-size:12.0203px;stroke-width:1.00169">α2</text>
</svg>
