<?xml version="1.0" encoding="UTF-8" standalone="no"?>
<svg
   version="1.1"
   font="Noto Sans Regular"
   font-size="12px"
   width="470"
   height="107.808"
   id="svg234"
   sodipodi:docname="unsewA2.svg"
   inkscape:version="1.2.2 (b0a8486541, 2022-12-01)"
   xmlns:inkscape="http://www.inkscape.org/namespaces/inkscape"
   xmlns:sodipodi="http://sodipodi.sourceforge.net/DTD/sodipodi-0.dtd"
   xmlns="http://www.w3.org/2000/svg"
   xmlns:svg="http://www.w3.org/2000/svg">
  <defs
     id="defs238" />
  <sodipodi:namedview
     id="namedview236"
     pagecolor="#ffffff"
     bordercolor="#000000"
     borderopacity="0.25"
     inkscape:showpageshadow="2"
     inkscape:pageopacity="0.0"
     inkscape:pagecheckerboard="0"
     inkscape:deskcolor="#d1d1d1"
     showgrid="false"
     inkscape:zoom="2.8291139"
     inkscape:cx="237.35347"
     inkscape:cy="58.498881"
     inkscape:window-width="1908"
     inkscape:window-height="1048"
     inkscape:window-x="1085"
     inkscape:window-y="25"
     inkscape:window-maximized="1"
     inkscape:current-layer="svg234" />
  <circle
     id="LGn1_0"
     cx="155.5"
     cy="70.688004"
     r="33"
     fill="none"
     stroke="#000000"
     stroke-width="1"
     stroke-linecap="square"
     style="fill:#00c0ff;fill-opacity:1" />
  <text
     id="LGn1_1"
     x="140.5"
     y="72.688004"
     fill="#000000">&lt;α0&gt;</text>
  <rect
     id="LGn1_2"
     x="148.5"
     y="90.688004"
     width="15"
     height="17"
     fill="#ffffff" />
  <text
     id="LGn1_3"
     x="149.5"
     y="107.688"
     fill="#000000">n1</text>
  <circle
     id="LGn0_4"
     cx="35.5"
     cy="70.688004"
     r="33"
     fill="none"
     stroke="#000000"
     stroke-width="1"
     stroke-linecap="square"
     style="fill:#ffc000;fill-opacity:1" />
  <circle
     id="LGn0_5"
     cx="35.5"
     cy="70.688004"
     r="35"
     fill="none"
     stroke="#000000"
     stroke-width="1"
     stroke-linecap="square" />
  <text
     id="LGn0_6"
     x="20.5"
     y="72.688004"
     fill="#000000">&lt;α0&gt;</text>
  <rect
     id="LGn0_7"
     x="28.5"
     y="90.688004"
     width="15"
     height="17"
     fill="#ffffff" />
  <text
     id="LGn0_8"
     x="29.5"
     y="107.688"
     fill="#000000">n0</text>
  <line
     id="LGn0_2_n1_9"
     x1="75.5"
     y1="70.688004"
     x2="117.5"
     y2="70.688004"
     stroke="#0000c8"
     stroke-width="1"
     stroke-linecap="square" />
  <text
     id="LGn0_2_n1_10"
     x="89.5"
     y="90.688004"
     fill="#0000c8">α2</text>
  <g
     id="g216"
     transform="translate(0.5,-6.312)">
    <polygon
       id="0"
       points="229,65 248,77 229,90 229,83 198,83 198,71 229,71 "
       stroke="#000000"
       stroke-width="1"
       stroke-linecap="square"
       fill="#000000" />
  </g>
  <circle
     id="RGn0_0"
     cx="286.5"
     cy="70.688004"
     r="33"
     fill="none"
     stroke="#000000"
     stroke-width="1"
     stroke-linecap="square"
     style="fill:#ffc000;fill-opacity:1" />
  <text
     id="RGn0_1"
     x="271.5"
     y="72.688004"
     fill="#000000">&lt;α0&gt;</text>
  <rect
     id="RGn0_2"
     x="279.5"
     y="90.688004"
     width="15"
     height="17"
     fill="#ffffff" />
  <text
     id="RGn0_3"
     x="280.5"
     y="107.688"
     fill="#000000">n0</text>
  <circle
     id="RGn1_4"
     cx="436.5"
     cy="70.688004"
     r="33"
     fill="none"
     stroke="#000000"
     stroke-width="1"
     stroke-linecap="square"
     style="fill:#00c0ff;fill-opacity:1" />
  <text
     id="RGn1_5"
     x="421.5"
     y="72.688004"
     fill="#000000">&lt;α0&gt;</text>
  <rect
     id="RGn1_6"
     x="429.5"
     y="90.688004"
     width="15"
     height="17"
     fill="#ffffff" />
  <text
     id="RGn1_7"
     x="430.5"
     y="107.688"
     fill="#000000">n1</text>
  <path
     id="RGn1_2_n1_8"
     d="m 415.5,38.688 -3,-11 c -8,-33 -43,-6 -13,11 l 10,4"
     fill="none"
     stroke="#0000c8"
     stroke-width="1"
     stroke-linecap="square" />
  <path
     id="RGn1_2_n1_9"
     d="m 413.5,39.688 -1,-11 c -7,-30 -39,-5 -11,9 l 10,4"
     fill="none"
     stroke="#0000c8"
     stroke-width="1"
     stroke-linecap="square" />
  <text
     id="RGn1_2_n1_10"
     x="378.5"
     y="10.688"
     fill="#0000c8">α2</text>
  <path
     id="RGn0_2_n0_11"
     d="m 311.5,41.688 10,-4 c 29,-19 -7,-44 -14,-11 l -2,11"
     fill="none"
     stroke="#0000c8"
     stroke-width="1"
     stroke-linecap="square" />
  <path
     id="RGn0_2_n0_12"
     d="m 309.5,40.688 10,-5 c 27,-15 -6,-38 -11,-8 l -1,11"
     fill="none"
     stroke="#0000c8"
     stroke-width="1"
     stroke-linecap="square" />
  <text
     id="RGn0_2_n0_13"
     x="327.5"
     y="8.6879997"
     fill="#0000c8">α2</text>
</svg>
