<?xml version="1.0" encoding="UTF-8" standalone="no"?>
<!-- Created with Jerboa -->

<svg
	width="1317"
	height="624" >
	<style id="style">
		.arc0 {
			fill:none;
			fill-rule:evenodd;
			stroke:black;
			stroke-width:4;
			stroke-linecap:round;
			stroke-linejoin:round;
			stroke-opacity:1;
		}
		.arc1 {
			fill:none;
			fill-rule:evenodd;
			stroke:red;
			stroke-width:4;
			stroke-linecap:round;
			stroke-linejoin:round;
			stroke-opacity:1;
		}
		.arc2 {
			fill:none;
			fill-rule:evenodd;
			stroke:blue;
			stroke-width:4;
			stroke-linecap:round;
			stroke-linejoin:round;
			stroke-opacity:1;
		}
		.arc3 {
			fill:none;
			fill-rule:evenodd;
			stroke:green;
			stroke-width:4;
			stroke-linecap:round;
			stroke-linejoin:round;
			stroke-opacity:1;
		}
		.topological-dart {
			fill:#000000;
			stroke:#000000;
			stroke-width:0;
			stroke-linecap:round;
			stroke-linejoin:round;
			stroke-dasharray:none;
			paint-order:markers fill stroke;
		}
	</style>
<polygon
	points="400.21606,512.1292 400.21606,111.87085 419.28317,92.80365 534.78455,208.30508 540.50476,221.65219 540.50476,402.34802 534.78455,415.69498 419.28317,531.19635 "
	id="face_7_18_19_34_36_21_20_0"
	style="fill:rgb(192,192,192);stroke:none"
	opacity="1.0" />
<line
	class="arc1"
	id="link0_@1_20"
	x1="400.21606"
	y1="512.1292"
	x2="419.28317"
	y2="531.19635" />
<line
	class="arc0"
	id="link0_@0_7"
	x1="400.21606"
	y1="512.1292"
	x2="400.21606"
	y2="111.87085" />
<polygon
	points="458.3708,570.28394 858.6292,570.28394 877.6963,551.2168 762.19495,435.71545 748.84784,429.99524 568.152,429.99524 554.80505,435.71545 439.30365,551.2168 "
	id="face_2_8_9_24_38_23_22_1"
	style="fill:rgb(192,192,192);stroke:none"
	opacity="1.0" />
<line
	class="arc1"
	id="link1_@1_22"
	x1="458.3708"
	y1="570.28394"
	x2="439.30365"
	y2="551.2168" />
<line
	class="arc0"
	id="link1_@0_2"
	x1="458.3708"
	y1="570.28394"
	x2="858.6292"
	y2="570.28394" />
<line
	class="arc1"
	id="link2_@1_8"
	x1="858.6292"
	y1="570.28394"
	x2="877.6963"
	y2="551.2168" />
<polygon
	points="916.7838,512.1292 916.7838,111.87085 897.7168,92.80365 782.2154,208.30508 776.49524,221.65219 776.49524,402.34802 782.2154,415.69498 897.7168,531.19635 "
	id="face_4_12_13_28_26_11_10_3"
	style="fill:rgb(192,192,192);stroke:none"
	opacity="1.0" />
<line
	class="arc1"
	id="link3_@1_10"
	x1="916.7838"
	y1="512.1292"
	x2="897.7168"
	y2="531.19635" />
<line
	class="arc0"
	id="link3_@0_4"
	x1="916.7838"
	y1="512.1292"
	x2="916.7838"
	y2="111.87085" />
<line
	class="arc1"
	id="link4_@1_12"
	x1="916.7838"
	y1="111.87085"
	x2="897.7168"
	y2="92.80365" />
<polygon
	points="858.6292,53.716248 458.3708,53.716248 439.30365,72.783264 554.80505,188.2846 568.152,194.00479 748.84784,194.00479 762.19495,188.2846 877.6963,72.783264 "
	id="face_6_16_17_32_30_15_14_5"
	style="fill:rgb(192,192,192);stroke:none"
	opacity="1.0" />
<line
	class="arc1"
	id="link5_@1_14"
	x1="858.6292"
	y1="53.716248"
	x2="877.6963"
	y2="72.783264" />
<line
	class="arc0"
	id="link5_@0_6"
	x1="858.6292"
	y1="53.716248"
	x2="458.3708"
	y2="53.716248" />
<line
	class="arc1"
	id="link6_@1_16"
	x1="458.3708"
	y1="53.716248"
	x2="439.30365"
	y2="72.783264" />
<line
	class="arc1"
	id="link7_@1_18"
	x1="400.21606"
	y1="111.87085"
	x2="419.28317"
	y2="92.80365" />
<line
	class="arc2"
	id="link8_@2_10"
	x1="877.6963"
	y1="551.2168"
	x2="897.7168"
	y2="531.19635" />
<line
	class="arc0"
	id="link8_@0_9"
	x1="877.6963"
	y1="551.2168"
	x2="762.19495"
	y2="435.71545" />
<line
	class="arc1"
	id="link9_@1_24"
	x1="762.19495"
	y1="435.71545"
	x2="748.84784"
	y2="429.99524" />
<line
	class="arc2"
	id="link9_@2_11"
	x1="762.19495"
	y1="435.71545"
	x2="782.2154"
	y2="415.69498" />
<circle
	id="dart9"
	cx="762.19495"
	cy="435.71545"
	r="10"
	stroke="black"
	fill="rgb(0,0,0)" />
<line
	class="arc0"
	id="link10_@0_11"
	x1="897.7168"
	y1="531.19635"
	x2="782.2154"
	y2="415.69498" />
<line
	class="arc1"
	id="link11_@1_26"
	x1="782.2154"
	y1="415.69498"
	x2="776.49524"
	y2="402.34802" />
<line
	class="arc2"
	id="link12_@2_14"
	x1="897.7168"
	y1="92.80365"
	x2="877.6963"
	y2="72.783264" />
<line
	class="arc0"
	id="link12_@0_13"
	x1="897.7168"
	y1="92.80365"
	x2="782.2154"
	y2="208.30508" />
<line
	class="arc1"
	id="link13_@1_28"
	x1="782.2154"
	y1="208.30508"
	x2="776.49524"
	y2="221.65219" />
<line
	class="arc2"
	id="link13_@2_15"
	x1="782.2154"
	y1="208.30508"
	x2="762.19495"
	y2="188.2846" />
<line
	class="arc0"
	id="link14_@0_15"
	x1="877.6963"
	y1="72.783264"
	x2="762.19495"
	y2="188.2846" />
<line
	class="arc1"
	id="link15_@1_30"
	x1="762.19495"
	y1="188.2846"
	x2="748.84784"
	y2="194.00479" />
<line
	class="arc2"
	id="link16_@2_18"
	x1="439.30365"
	y1="72.783264"
	x2="419.28317"
	y2="92.80365" />
<line
	class="arc0"
	id="link16_@0_17"
	x1="439.30365"
	y1="72.783264"
	x2="554.80505"
	y2="188.2846" />
<line
	class="arc1"
	id="link17_@1_32"
	x1="554.80505"
	y1="188.2846"
	x2="568.152"
	y2="194.00479" />
<line
	class="arc2"
	id="link17_@2_19"
	x1="554.80505"
	y1="188.2846"
	x2="534.78455"
	y2="208.30508" />
<line
	class="arc0"
	id="link18_@0_19"
	x1="419.28317"
	y1="92.80365"
	x2="534.78455"
	y2="208.30508" />
<line
	class="arc1"
	id="link19_@1_34"
	x1="534.78455"
	y1="208.30508"
	x2="540.50476"
	y2="221.65219" />
<line
	class="arc2"
	id="link20_@2_22"
	x1="419.28317"
	y1="531.19635"
	x2="439.30365"
	y2="551.2168" />
<line
	class="arc0"
	id="link20_@0_21"
	x1="419.28317"
	y1="531.19635"
	x2="534.78455"
	y2="415.69498" />
<line
	class="arc1"
	id="link21_@1_36"
	x1="534.78455"
	y1="415.69498"
	x2="540.50476"
	y2="402.34802" />
<line
	class="arc2"
	id="link21_@2_23"
	x1="534.78455"
	y1="415.69498"
	x2="554.80505"
	y2="435.71545" />
<line
	class="arc0"
	id="link22_@0_23"
	x1="439.30365"
	y1="551.2168"
	x2="554.80505"
	y2="435.71545" />
<line
	class="arc1"
	id="link23_@1_38"
	x1="554.80505"
	y1="435.71545"
	x2="568.152"
	y2="429.99524" />
<line
	class="arc2"
	id="link24_@2_25"
	x1="748.84784"
	y1="429.99524"
	x2="748.84784"
	y2="409.9748" />
<line
	class="arc0"
	id="link24_@0_38"
	x1="748.84784"
	y1="429.99524"
	x2="568.152"
	y2="429.99524" />
<polygon
	points="748.84784,409.9748 568.152,409.9748 560.5252,402.34802 560.5252,221.65219 568.152,214.02527 748.84784,214.02527 756.4747,221.65219 756.4747,402.34802 "
	id="face_39_37_35_33_31_29_27_25"
	style="fill:rgb(192,192,192);stroke:none"
	opacity="1.0" />
<line
	class="arc1"
	id="link25_@1_27"
	x1="748.84784"
	y1="409.9748"
	x2="756.4747"
	y2="402.34802" />
<line
	class="arc0"
	id="link25_@0_39"
	x1="748.84784"
	y1="409.9748"
	x2="568.152"
	y2="409.9748" />
<line
	class="arc2"
	id="link26_@2_27"
	x1="776.49524"
	y1="402.34802"
	x2="756.4747"
	y2="402.34802" />
<line
	class="arc0"
	id="link26_@0_28"
	x1="776.49524"
	y1="402.34802"
	x2="776.49524"
	y2="221.65219" />
<line
	class="arc0"
	id="link27_@0_29"
	x1="756.4747"
	y1="402.34802"
	x2="756.4747"
	y2="221.65219" />
<line
	class="arc2"
	id="link28_@2_29"
	x1="776.49524"
	y1="221.65219"
	x2="756.4747"
	y2="221.65219" />
<line
	class="arc1"
	id="link29_@1_31"
	x1="756.4747"
	y1="221.65219"
	x2="748.84784"
	y2="214.02527" />
<line
	class="arc2"
	id="link30_@2_31"
	x1="748.84784"
	y1="194.00479"
	x2="748.84784"
	y2="214.02527" />
<line
	class="arc0"
	id="link30_@0_32"
	x1="748.84784"
	y1="194.00479"
	x2="568.152"
	y2="194.00479" />
<line
	class="arc0"
	id="link31_@0_33"
	x1="748.84784"
	y1="214.02527"
	x2="568.152"
	y2="214.02527" />
<line
	class="arc2"
	id="link32_@2_33"
	x1="568.152"
	y1="194.00479"
	x2="568.152"
	y2="214.02527" />
<line
	class="arc1"
	id="link33_@1_35"
	x1="568.152"
	y1="214.02527"
	x2="560.5252"
	y2="221.65219" />
<line
	class="arc2"
	id="link34_@2_35"
	x1="540.50476"
	y1="221.65219"
	x2="560.5252"
	y2="221.65219" />
<line
	class="arc0"
	id="link34_@0_36"
	x1="540.50476"
	y1="221.65219"
	x2="540.50476"
	y2="402.34802" />
<line
	class="arc0"
	id="link35_@0_37"
	x1="560.5252"
	y1="221.65219"
	x2="560.5252"
	y2="402.34802" />
<line
	class="arc2"
	id="link36_@2_37"
	x1="540.50476"
	y1="402.34802"
	x2="560.5252"
	y2="402.34802" />
<line
	class="arc1"
	id="link37_@1_39"
	x1="560.5252"
	y1="402.34802"
	x2="568.152"
	y2="409.9748" />
<line
	class="arc2"
	id="link38_@2_39"
	x1="568.152"
	y1="429.99524"
	x2="568.152"
	y2="409.9748" />
</svg>
