<?xml version="1.0" encoding="UTF-8" standalone="no"?>
<!DOCTYPE svg PUBLIC "-//W3C//DTD SVG 1.1//EN"
 "http://www.w3.org/Graphics/SVG/1.1/DTD/svg11.dtd">
<!-- Generated by graphviz version 12.1.2 (0)
 -->
<!-- Title: HistoryRecord Pages: 1 -->
<svg width="206pt" height="150pt"
 viewBox="0.00 0.00 206.00 150.00" xmlns="http://www.w3.org/2000/svg" xmlns:xlink="http://www.w3.org/1999/xlink">
<g id="graph0" class="graph" transform="scale(1 1) rotate(0) translate(4 146)">
<title>HistoryRecord</title>
<polygon fill="white" stroke="none" points="-4,4 -4,-146 202,-146 202,4 -4,4"/>
<g id="clust1" class="cluster">
<title>cluster_1</title>
<path fill="none" stroke="black" d="M20,-81C20,-81 178,-81 178,-81 184,-81 190,-87 190,-93 190,-93 190,-122 190,-122 190,-128 184,-134 178,-134 178,-134 20,-134 20,-134 14,-134 8,-128 8,-122 8,-122 8,-93 8,-93 8,-87 14,-81 20,-81"/>
</g>
<g id="clust2" class="cluster">
<title>cluster_1n0</title>
<polygon fill="none" stroke="black" points="28,-8 28,-61 170,-61 170,-8 28,-8"/>
</g>
<!-- 1CREATION[] -->
<g id="node1" class="node">
<title>1CREATION[]</title>
<path fill="none" stroke="black" d="M28,-89.5C28,-89.5 98,-89.5 98,-89.5 104,-89.5 110,-95.5 110,-101.5 110,-101.5 110,-113.5 110,-113.5 110,-119.5 104,-125.5 98,-125.5 98,-125.5 28,-125.5 28,-125.5 22,-125.5 16,-119.5 16,-113.5 16,-113.5 16,-101.5 16,-101.5 16,-95.5 22,-89.5 28,-89.5"/>
<text text-anchor="middle" x="63" y="-102.83" font-family="Times,serif" font-size="14.00">CREATION</text>
</g>
<!-- 1n0[] -->
<g id="node2" class="node">
<title>1n0[]</title>
<polygon fill="none" stroke="black" points="36,-16.5 36,-52.5 90,-52.5 90,-16.5 36,-16.5"/>
<text text-anchor="middle" x="62.75" y="-29.82" font-family="Times,serif" font-size="14.00">⟨⟩</text>
</g>
<!-- 1CREATION[]&#45;&gt;1n0[] -->
<g id="edge1" class="edge">
<title>1CREATION[]&#45;&gt;1n0[]</title>
<path fill="none" stroke="black" d="M63,-89.31C63,-81.73 63,-72.6 63,-64.04"/>
<polygon fill="black" stroke="black" points="66.5,-64.04 63,-54.04 59.5,-64.04 66.5,-64.04"/>
</g>
<!-- 1 -->
<g id="node3" class="node">
<title>1</title>
<path fill="lightgrey" stroke="lightgrey" d="M140,-89.5C140,-89.5 170,-89.5 170,-89.5 176,-89.5 182,-95.5 182,-101.5 182,-101.5 182,-113.5 182,-113.5 182,-119.5 176,-125.5 170,-125.5 170,-125.5 140,-125.5 140,-125.5 134,-125.5 128,-119.5 128,-113.5 128,-113.5 128,-101.5 128,-101.5 128,-95.5 134,-89.5 140,-89.5"/>
<text text-anchor="middle" x="155" y="-102.83" font-family="Times,serif" font-size="14.00">1</text>
</g>
<!-- 1n0 -->
<g id="node4" class="node">
<title>1n0</title>
<polygon fill="lightblue" stroke="lightblue" points="108,-16.5 108,-52.5 162,-52.5 162,-16.5 108,-16.5"/>
<text text-anchor="middle" x="135" y="-29.82" font-family="Times,serif" font-size="14.00">n0</text>
</g>
</g>
</svg>
