<?xml version="1.0" encoding="UTF-8" standalone="no"?>
<!-- Created with Jerboa -->

<svg
   width="550.4447"
   height="548.2146"
   version="1.1"
   id="svg1"
   sodipodi:docname="exemple-boucle.svg"
   inkscape:version="1.3.2 (091e20ef0f, 2023-11-25, custom)"
   xmlns:inkscape="http://www.inkscape.org/namespaces/inkscape"
   xmlns:sodipodi="http://sodipodi.sourceforge.net/DTD/sodipodi-0.dtd"
   xmlns="http://www.w3.org/2000/svg"
   xmlns:svg="http://www.w3.org/2000/svg">
  <defs
     id="defs1" />
  <sodipodi:namedview
     id="namedview1"
     pagecolor="#ffffff"
     bordercolor="#666666"
     borderopacity="1.0"
     inkscape:showpageshadow="2"
     inkscape:pageopacity="0.0"
     inkscape:pagecheckerboard="0"
     inkscape:deskcolor="#d1d1d1"
     showgrid="false"
     inkscape:zoom="1.4809878"
     inkscape:cx="324.78323"
     inkscape:cy="32.410801"
     inkscape:window-width="1896"
     inkscape:window-height="986"
     inkscape:window-x="20"
     inkscape:window-y="20"
     inkscape:window-maximized="0"
     inkscape:current-layer="svg1" />
  <style
     id="style">
		.arc0 {
			fill:none;
			fill-rule:evenodd;
			stroke:black;
			stroke-width:4;
			stroke-linecap:round;
			stroke-linejoin:round;
			stroke-opacity:1;
		}
		.arc1 {
			fill:none;
			fill-rule:evenodd;
			stroke:red;
			stroke-width:4;
			stroke-linecap:round;
			stroke-linejoin:round;
			stroke-opacity:1;
		}
		.arc2 {
			fill:none;
			fill-rule:evenodd;
			stroke:blue;
			stroke-width:4;
			stroke-linecap:round;
			stroke-linejoin:round;
			stroke-opacity:1;
		}
		.arc3 {
			fill:none;
			fill-rule:evenodd;
			stroke:green;
			stroke-width:4;
			stroke-linecap:round;
			stroke-linejoin:round;
			stroke-opacity:1;
		}
		.topological-dart {
			fill:#000000;
			stroke:#000000;
			stroke-width:0;
			stroke-linecap:round;
			stroke-linejoin:round;
			stroke-dasharray:none;
			paint-order:markers fill stroke;
		}
	</style>
  <polygon
     points="316.21066,384.44672 316.21066,525.02014 263.05334,578.1775 122.47988,578.1775 69.32253,525.02014 69.32253,384.44672 122.47988,331.28937 263.05334,331.28937 "
     id="face_8_10_9_12_13_11_1_0"
     style="fill:#ffc000;stroke:none"
     opacity="1"
     transform="translate(-58.592369,-47.32245)" />
  <line
     class="arc1"
     id="link0_@1_1"
     x1="10.730164"
     y1="477.69769"
     x2="63.887512"
     y2="530.85504" />
  <line
     class="arc0"
     id="link0_@0_8"
     x1="10.730164"
     y1="477.69769"
     x2="10.730164"
     y2="337.12427" />
  <line
     class="arc0"
     id="link1_@0_11"
     x1="63.887512"
     y1="530.85504"
     x2="204.46097"
     y2="530.85504" />
  <polygon
     points="492.81207,490.17166 563.0989,560.4584 536.52014,587.03705 395.94672,587.03705 369.368,560.4584 439.6547,490.17166 "
     id="face_14_36_37_35_34_2"
     style="fill:#ffc000;stroke:none"
     opacity="1"
     transform="translate(-58.592369,-47.32245)" />
  <line
     class="arc1"
     id="link2_@1_34"
     x1="477.92776"
     y1="539.7146"
     x2="504.5065"
     y2="513.13593" />
  <line
     class="arc0"
     id="link2_@0_14"
     x1="477.92776"
     y1="539.7146"
     x2="337.35434"
     y2="539.7146" />
  <polygon
     points="501.67163,481.31213 571.9584,551.5988 598.53705,525.02014 598.53705,384.44672 571.9584,357.86804 501.67163,428.15475 "
     id="face_17_46_47_33_32_3"
     style="fill:#ffc000;stroke:none"
     opacity="1"
     transform="translate(-58.592369,-47.32245)" />
  <line
     class="arc1"
     id="link3_@1_32"
     x1="539.9447"
     y1="477.69769"
     x2="513.36597"
     y2="504.27637" />
  <line
     class="arc0"
     id="link3_@0_17"
     x1="539.9447"
     y1="477.69769"
     x2="539.9447"
     y2="337.12427" />
  <circle
     id="dart3"
     cx="539.9447"
     cy="477.69769"
     r="10"
     stroke="#000000"
     fill="#000000" />
  <circle
     id="dart3-5"
     cx="10.5"
     cy="479.69769"
     r="10"
     stroke="#000000"
     fill="#000000" />
  <circle
     id="dart3-2"
     cx="479.92776"
     cy="537.7146"
     r="10"
     stroke="#000000"
     fill="#000000" />
  <polygon
     points="342.78928,251.55331 342.78928,110.97992 395.94672,57.82245 536.52014,57.82245 589.67755,110.97992 589.67755,251.55331 536.52014,304.71075 395.94672,304.71075 "
     id="face_20_22_21_24_25_23_5_4"
     style="fill:#ffc000;stroke:none"
     opacity="1"
     transform="translate(-58.592369,-47.32245)" />
  <line
     class="arc1"
     id="link4_@1_5"
     x1="531.08521"
     y1="63.657471"
     x2="477.92776"
     y2="10.499999" />
  <line
     class="arc0"
     id="link4_@0_20"
     x1="531.08521"
     y1="63.657471"
     x2="531.08521"
     y2="204.23087" />
  <line
     class="arc0"
     id="link5_@0_23"
     x1="477.92776"
     y1="10.499999"
     x2="337.35434"
     y2="10.499999" />
  <polygon
     points="263.05334,304.71075 122.47988,304.71075 69.32253,251.55331 69.32253,110.97992 122.47988,57.82245 263.05334,57.82245 316.21066,110.97992 316.21066,251.55331 "
     id="face_26_28_27_30_31_29_7_6"
     style="fill:#ffc000;stroke:none"
     opacity="1"
     transform="translate(-58.592369,-47.32245)" />
  <line
     class="arc1"
     id="link6_@1_7"
     x1="63.887512"
     y1="10.499999"
     x2="10.730164"
     y2="63.657471" />
  <line
     class="arc0"
     id="link6_@0_26"
     x1="63.887512"
     y1="10.499999"
     x2="204.46097"
     y2="10.499999" />
  <line
     class="arc0"
     id="link7_@0_29"
     x1="10.730164"
     y1="63.657471"
     x2="10.730164"
     y2="204.23087" />
  <line
     class="arc1"
     id="link8_@1_10"
     x1="10.730164"
     y1="337.12427"
     x2="63.887512"
     y2="283.96692" />
  <line
     class="arc1"
     id="link9_@1_12"
     x1="204.46097"
     y1="283.96692"
     x2="257.61829"
     y2="337.12427" />
  <line
     class="arc2"
     id="link9_@2_30"
     x1="204.46097"
     y1="283.96692"
     x2="204.46097"
     y2="257.38831" />
  <line
     class="arc0"
     id="link9_@0_10"
     x1="204.46097"
     y1="283.96692"
     x2="63.887512"
     y2="283.96692" />
  <line
     class="arc2"
     id="link10_@2_31"
     x1="63.887512"
     y1="283.96692"
     x2="63.887512"
     y2="257.38831" />
  <line
     class="arc1"
     id="link11_@1_13"
     x1="204.46097"
     y1="530.85504"
     x2="257.61829"
     y2="477.69769" />
  <line
     class="arc2"
     id="link12_@2_15"
     x1="257.61829"
     y1="337.12427"
     x2="275.33731"
     y2="337.12427" />
  <line
     class="arc0"
     id="link12_@0_13"
     x1="257.61829"
     y1="337.12427"
     x2="257.61829"
     y2="477.69769" />
  <line
     class="arc2"
     id="link13_@2_16"
     x1="257.61829"
     y1="477.69769"
     x2="275.33731"
     y2="477.69769" />
  <line
     class="arc1"
     id="link14_@1_36"
     x1="337.35434"
     y1="539.7146"
     x2="310.77563"
     y2="513.13593" />
  <polygon
     points="430.79514,428.15475 360.50845,357.86804 333.9297,384.44672 333.9297,525.02014 360.50845,551.5988 430.79514,481.31213 "
     id="face_16_38_39_41_40_15"
     style="fill:#ffc000;stroke:none"
     opacity="1"
     transform="translate(-58.592369,-47.32245)" />
  <line
     class="arc1"
     id="link15_@1_40"
     x1="275.33731"
     y1="337.12427"
     x2="301.91608"
     y2="310.54559" />
  <line
     class="arc0"
     id="link15_@0_16"
     x1="275.33731"
     y1="337.12427"
     x2="275.33731"
     y2="477.69769" />
  <line
     class="arc1"
     id="link16_@1_38"
     x1="275.33731"
     y1="477.69769"
     x2="301.91608"
     y2="504.27637" />
  <line
     class="arc1"
     id="link17_@1_46"
     x1="539.9447"
     y1="337.12427"
     x2="513.36597"
     y2="310.54559" />
  <polygon
     points="439.6547,419.2952 369.368,349.00848 395.94672,322.42984 536.52014,322.42984 563.0989,349.00848 492.81207,419.2952 "
     id="face_19_44_45_43_42_18"
     style="fill:#ffc000;stroke:none"
     opacity="1"
     transform="translate(-58.592369,-47.32245)" />
  <line
     class="arc1"
     id="link18_@1_42"
     x1="337.35434"
     y1="275.10739"
     x2="310.77563"
     y2="301.68604" />
  <line
     class="arc2"
     id="link18_@2_21"
     x1="337.35434"
     y1="275.10739"
     x2="337.35434"
     y2="257.38831" />
  <line
     class="arc0"
     id="link18_@0_19"
     x1="337.35434"
     y1="275.10739"
     x2="477.92776"
     y2="275.10739" />
  <line
     class="arc1"
     id="link19_@1_44"
     x1="477.92776"
     y1="275.10739"
     x2="504.5065"
     y2="301.68604" />
  <line
     class="arc2"
     id="link19_@2_22"
     x1="477.92776"
     y1="275.10739"
     x2="477.92776"
     y2="257.38831" />
  <line
     class="arc1"
     id="link20_@1_22"
     x1="531.08521"
     y1="204.23087"
     x2="477.92776"
     y2="257.38831" />
  <line
     class="arc1"
     id="link21_@1_24"
     x1="337.35434"
     y1="257.38831"
     x2="284.1969"
     y2="204.23087" />
  <line
     class="arc0"
     id="link21_@0_22"
     x1="337.35434"
     y1="257.38831"
     x2="477.92776"
     y2="257.38831" />
  <line
     class="arc1"
     id="link23_@1_25"
     x1="337.35434"
     y1="10.499999"
     x2="284.1969"
     y2="63.657471" />
  <line
     class="arc2"
     id="link24_@2_27"
     x1="284.1969"
     y1="204.23087"
     x2="257.61829"
     y2="204.23087" />
  <line
     class="arc0"
     id="link24_@0_25"
     x1="284.1969"
     y1="204.23087"
     x2="284.1969"
     y2="63.657471" />
  <line
     class="arc2"
     id="link25_@2_28"
     x1="284.1969"
     y1="63.657471"
     x2="257.61829"
     y2="63.657471" />
  <line
     class="arc1"
     id="link26_@1_28"
     x1="204.46097"
     y1="10.499999"
     x2="257.61829"
     y2="63.657471" />
  <line
     class="arc1"
     id="link27_@1_30"
     x1="257.61829"
     y1="204.23087"
     x2="204.46097"
     y2="257.38831" />
  <line
     class="arc0"
     id="link27_@0_28"
     x1="257.61829"
     y1="204.23087"
     x2="257.61829"
     y2="63.657471" />
  <line
     class="arc1"
     id="link29_@1_31"
     x1="10.730164"
     y1="204.23087"
     x2="63.887512"
     y2="257.38831" />
  <line
     class="arc0"
     id="link30_@0_31"
     x1="204.46097"
     y1="257.38831"
     x2="63.887512"
     y2="257.38831" />
  <line
     class="arc2"
     id="link32_@2_34"
     x1="513.36597"
     y1="504.27637"
     x2="504.5065"
     y2="513.13593" />
  <line
     class="arc0"
     id="link32_@0_33"
     x1="513.36597"
     y1="504.27637"
     x2="443.07925"
     y2="433.98969" />
  <line
     class="arc1"
     id="link33_@1_47"
     x1="443.07925"
     y1="433.98969"
     x2="443.07925"
     y2="380.83231" />
  <line
     class="arc2"
     id="link33_@2_35"
     x1="443.07925"
     y1="433.98969"
     x2="434.2197"
     y2="442.84921" />
  <line
     class="arc0"
     id="link34_@0_35"
     x1="504.5065"
     y1="513.13593"
     x2="434.2197"
     y2="442.84921" />
  <line
     class="arc1"
     id="link35_@1_37"
     x1="434.2197"
     y1="442.84921"
     x2="381.06232"
     y2="442.84921" />
  <line
     class="arc2"
     id="link36_@2_38"
     x1="310.77563"
     y1="513.13593"
     x2="301.91608"
     y2="504.27637" />
  <line
     class="arc0"
     id="link36_@0_37"
     x1="310.77563"
     y1="513.13593"
     x2="381.06232"
     y2="442.84921" />
  <line
     class="arc2"
     id="link37_@2_39"
     x1="381.06232"
     y1="442.84921"
     x2="372.20276"
     y2="433.98969" />
  <line
     class="arc0"
     id="link38_@0_39"
     x1="301.91608"
     y1="504.27637"
     x2="372.20276"
     y2="433.98969" />
  <line
     class="arc1"
     id="link39_@1_41"
     x1="372.20276"
     y1="433.98969"
     x2="372.20276"
     y2="380.83231" />
  <line
     class="arc2"
     id="link40_@2_42"
     x1="301.91608"
     y1="310.54559"
     x2="310.77563"
     y2="301.68604" />
  <line
     class="arc0"
     id="link40_@0_41"
     x1="301.91608"
     y1="310.54559"
     x2="372.20276"
     y2="380.83231" />
  <line
     class="arc2"
     id="link41_@2_43"
     x1="372.20276"
     y1="380.83231"
     x2="381.06232"
     y2="371.97275" />
  <line
     class="arc0"
     id="link42_@0_43"
     x1="310.77563"
     y1="301.68604"
     x2="381.06232"
     y2="371.97275" />
  <line
     class="arc1"
     id="link43_@1_45"
     x1="381.06232"
     y1="371.97275"
     x2="434.2197"
     y2="371.97275" />
  <line
     class="arc2"
     id="link44_@2_46"
     x1="504.5065"
     y1="301.68604"
     x2="513.36597"
     y2="310.54559" />
  <line
     class="arc0"
     id="link44_@0_45"
     x1="504.5065"
     y1="301.68604"
     x2="434.2197"
     y2="371.97275" />
  <line
     class="arc2"
     id="link45_@2_47"
     x1="434.2197"
     y1="371.97275"
     x2="443.07925"
     y2="380.83231" />
  <line
     class="arc0"
     id="link46_@0_47"
     x1="513.36597"
     y1="310.54559"
     x2="443.07925"
     y2="380.83231" />
  <circle
     id="dart3-7"
     cx="64.223053"
     cy="10.5"
     r="10"
     stroke="#000000"
     fill="#000000" />
  <circle
     id="dart3-6"
     cx="531.08521"
     cy="63.822392"
     r="10"
     stroke="#000000"
     fill="#000000" />
  <text
     xml:space="preserve"
     style="font-style:normal;font-weight:normal;font-size:40px;line-height:1.25;font-family:sans-serif;fill:#000000;fill-opacity:1;stroke:none"
     x="63.123055"
     y="51.358734"
     id="text1"><tspan
       sodipodi:role="line"
       id="tspan1"
       x="63.123055"
       y="51.358734">6</tspan></text>
  <text
     xml:space="preserve"
     style="font-style:normal;font-weight:normal;font-size:40px;line-height:1.25;font-family:sans-serif;fill:#000000;fill-opacity:1;stroke:none"
     x="19.040001"
     y="468.7977"
     id="text2"><tspan
       sodipodi:role="line"
       id="tspan2"
       x="19.040001"
       y="468.7977">0</tspan></text>
  <text
     xml:space="preserve"
     style="font-style:normal;font-weight:normal;font-size:40px;line-height:1.25;font-family:sans-serif;fill:#000000;fill-opacity:1;stroke:none"
     x="448.62778"
     y="527.2146"
     id="text3"><tspan
       sodipodi:role="line"
       id="tspan3"
       x="448.62778"
       y="527.2146">2</tspan></text>
  <text
     xml:space="preserve"
     style="font-style:normal;font-weight:normal;font-size:40px;line-height:1.25;font-family:sans-serif;fill:#000000;fill-opacity:1;stroke:none"
     x="508.8447"
     y="466.7977"
     id="text4"><tspan
       sodipodi:role="line"
       id="tspan4"
       x="508.8447"
       y="466.7977">3</tspan></text>
  <text
     xml:space="preserve"
     style="font-style:normal;font-weight:normal;font-size:40px;line-height:1.25;font-family:sans-serif;fill:#000000;fill-opacity:1;stroke:none"
     x="491.21713"
     y="78.926857"
     id="text5"><tspan
       sodipodi:role="line"
       id="tspan5"
       x="491.21713"
       y="78.926857" /></text>
  <text
     xml:space="preserve"
     style="font-style:normal;font-weight:normal;font-size:40px;line-height:1.25;font-family:sans-serif;fill:#000000;fill-opacity:1;stroke:none"
     x="498.50522"
     y="103.04239"
     id="text6"><tspan
       sodipodi:role="line"
       id="tspan6"
       x="498.50522"
       y="103.04239">4</tspan></text>
</svg>
