<?xml version="1.0" encoding="UTF-8" standalone="no"?>
<!-- Created with Jerboa -->

<svg
   width="154.32057"
   height="806.96454"
   version="1.1"
   id="svg1"
   sodipodi:docname="exemple-1-dual-struct-lin.svg"
   inkscape:version="1.4 (e7c3feb100, 2024-10-09)"
   xmlns:inkscape="http://www.inkscape.org/namespaces/inkscape"
   xmlns:sodipodi="http://sodipodi.sourceforge.net/DTD/sodipodi-0.dtd"
   xmlns="http://www.w3.org/2000/svg"
   xmlns:svg="http://www.w3.org/2000/svg">
  <defs
     id="defs1" />
  <sodipodi:namedview
     id="namedview1"
     pagecolor="#ffffff"
     bordercolor="#000000"
     borderopacity="0.25"
     inkscape:showpageshadow="2"
     inkscape:pageopacity="0.0"
     inkscape:pagecheckerboard="0"
     inkscape:deskcolor="#d1d1d1"
     showgrid="false"
     inkscape:zoom="0.50200823"
     inkscape:cx="297.80388"
     inkscape:cy="496.0078"
     inkscape:window-width="1892"
     inkscape:window-height="1035"
     inkscape:window-x="1929"
     inkscape:window-y="26"
     inkscape:window-maximized="1"
     inkscape:current-layer="svg1" />
  <style
     id="style">
		.arc0 {
			fill:none;
			fill-rule:evenodd;
			stroke:black;
			stroke-width:4;
			stroke-linecap:round;
			stroke-linejoin:round;
			stroke-opacity:1;
		}
		.arc1 {
			fill:none;
			fill-rule:evenodd;
			stroke:red;
			stroke-width:4;
			stroke-linecap:round;
			stroke-linejoin:round;
			stroke-opacity:1;
		}
		.arc2 {
			fill:none;
			fill-rule:evenodd;
			stroke:blue;
			stroke-width:4;
			stroke-linecap:round;
			stroke-linejoin:round;
			stroke-opacity:1;
		}
		.arc3 {
			fill:none;
			fill-rule:evenodd;
			stroke:green;
			stroke-width:4;
			stroke-linecap:round;
			stroke-linejoin:round;
			stroke-opacity:1;
		}
		.topological-dart {
			fill:#000000;
			stroke:#000000;
			stroke-width:0;
			stroke-linecap:round;
			stroke-linejoin:round;
			stroke-dasharray:none;
			paint-order:markers fill stroke;
		}
	</style>
  <polygon
     points="729.7438,710.70166 729.7438,839.11414 712.5537,858.55994 604.44653,852.44116 587.25653,831.04944 587.25653,702.63696 604.44653,683.19116 712.5537,689.31 "
     id="face_92_93_94_95_96_97_98_99"
     style="fill:#c0c0c0;stroke:none"
     opacity="1"
     transform="translate(-586.58986,-52.262107)" />
  <line
     class="arc1"
     id="link99_@1_98"
     x1="0.66666502"
     y1="778.78735"
     x2="17.856667"
     y2="800.17908"
     style="stroke-width:1.33333;stroke-dasharray:none" />
  <line
     class="arc0"
     id="link99_@0_92"
     x1="0.66666502"
     y1="778.78735"
     x2="0.66666502"
     y2="650.37488"
     style="stroke-width:1.33333;stroke-dasharray:none" />
  <polygon
     points="729.7438,710.70166 729.7438,839.11414 712.5537,858.55994 604.44653,852.44116 587.25653,831.04944 587.25653,702.63696 604.44653,683.19116 712.5537,689.31 "
     id="face_100_101_102_103_104_105_106_107"
     style="fill:#c0c0c0;stroke:none"
     opacity="1"
     transform="translate(-586.58986,-52.262107)" />
  <line
     class="arc1"
     id="link107_@1_106"
     x1="0.66666502"
     y1="778.78735"
     x2="17.856667"
     y2="800.17908"
     style="stroke-width:1.33333;stroke-dasharray:none" />
  <line
     class="arc0"
     id="link107_@0_100"
     x1="0.66666502"
     y1="778.78735"
     x2="0.66666502"
     y2="650.37488"
     style="stroke-width:1.33333;stroke-dasharray:none" />
  <line
     class="arc0"
     id="link98_@0_97"
     x1="17.856667"
     y1="800.17908"
     x2="125.96384"
     y2="806.29785"
     style="stroke-width:1.33333;stroke-dasharray:none" />
  <line
     class="arc0"
     id="link106_@0_105"
     x1="17.856667"
     y1="800.17908"
     x2="125.96384"
     y2="806.29785"
     style="stroke-width:1.33333;stroke-dasharray:none" />
  <line
     class="arc1"
     id="link92_@1_93"
     x1="0.66666502"
     y1="650.37488"
     x2="17.856667"
     y2="630.92908"
     style="stroke-width:1.33333;stroke-dasharray:none" />
  <line
     class="arc1"
     id="link100_@1_101"
     x1="0.66666502"
     y1="650.37488"
     x2="17.856667"
     y2="630.92908"
     style="stroke-width:1.33333;stroke-dasharray:none" />
  <polygon
     points="729.7438,500.61426 729.7438,629.02673 712.5537,648.47253 604.44653,642.3537 587.25653,620.96204 587.25653,492.54956 604.44653,473.1037 712.5537,479.2225 "
     id="face_60_61_62_63_64_65_66_67"
     style="fill:#c0c0c0;stroke:none"
     opacity="1"
     transform="translate(-586.58986,-52.262107)" />
  <line
     class="arc1"
     id="link67_@1_66"
     x1="0.66666502"
     y1="568.69995"
     x2="17.856667"
     y2="590.09161"
     style="stroke-width:1.33333;stroke-dasharray:none" />
  <line
     class="arc0"
     id="link67_@0_60"
     x1="0.66666502"
     y1="568.69995"
     x2="0.66666502"
     y2="440.28745"
     style="stroke-width:1.33333;stroke-dasharray:none" />
  <polygon
     points="729.7438,500.61426 729.7438,629.02673 712.5537,648.47253 604.44653,642.3537 587.25653,620.96204 587.25653,492.54956 604.44653,473.1037 712.5537,479.2225 "
     id="face_68_69_70_71_72_73_74_75"
     style="fill:#c0c0c0;stroke:none"
     opacity="1"
     transform="translate(-586.58986,-52.262107)" />
  <line
     class="arc1"
     id="link75_@1_74"
     x1="0.66666502"
     y1="568.69995"
     x2="17.856667"
     y2="590.09161"
     style="stroke-width:1.33333;stroke-dasharray:none" />
  <line
     class="arc0"
     id="link75_@0_68"
     x1="0.66666502"
     y1="568.69995"
     x2="0.66666502"
     y2="440.28745"
     style="stroke-width:1.33333;stroke-dasharray:none" />
  <polygon
     points="729.7438,500.61426 729.7438,629.02673 712.5537,648.47253 604.44653,642.3537 587.25653,620.96204 587.25653,492.54956 604.44653,473.1037 712.5537,479.2225 "
     id="face_76_77_78_79_80_81_82_83"
     style="fill:#c0c0c0;stroke:none"
     opacity="1"
     transform="translate(-586.58986,-52.262107)" />
  <line
     class="arc1"
     id="link83_@1_82"
     x1="0.66666502"
     y1="568.69995"
     x2="17.856667"
     y2="590.09161"
     style="stroke-width:1.33333;stroke-dasharray:none" />
  <line
     class="arc0"
     id="link83_@0_76"
     x1="0.66666502"
     y1="568.69995"
     x2="0.66666502"
     y2="440.28745"
     style="stroke-width:1.33333;stroke-dasharray:none" />
  <polygon
     points="729.7438,500.61426 729.7438,629.02673 712.5537,648.47253 604.44653,642.3537 587.25653,620.96204 587.25653,492.54956 604.44653,473.1037 712.5537,479.2225 "
     id="face_84_85_86_87_88_89_90_91"
     style="fill:#c0c0c0;stroke:none"
     opacity="1"
     transform="translate(-586.58986,-52.262107)" />
  <line
     class="arc1"
     id="link91_@1_90"
     x1="0.66666502"
     y1="568.69995"
     x2="17.856667"
     y2="590.09161"
     style="stroke-width:1.33333;stroke-dasharray:none" />
  <line
     class="arc0"
     id="link91_@0_84"
     x1="0.66666502"
     y1="568.69995"
     x2="0.66666502"
     y2="440.28745"
     style="stroke-width:1.33333;stroke-dasharray:none" />
  <line
     class="arc0"
     id="link93_@0_94"
     x1="17.856667"
     y1="630.92908"
     x2="125.96384"
     y2="637.04791"
     style="stroke-width:1.33333;stroke-dasharray:none" />
  <line
     class="arc0"
     id="link101_@0_102"
     x1="17.856667"
     y1="630.92908"
     x2="125.96384"
     y2="637.04791"
     style="stroke-width:1.33333;stroke-dasharray:none" />
  <line
     class="arc0"
     id="link66_@0_65"
     x1="17.856667"
     y1="590.09161"
     x2="125.96384"
     y2="596.21045"
     style="stroke-width:1.33333;stroke-dasharray:none" />
  <line
     class="arc0"
     id="link74_@0_73"
     x1="17.856667"
     y1="590.09161"
     x2="125.96384"
     y2="596.21045"
     style="stroke-width:1.33333;stroke-dasharray:none" />
  <line
     class="arc0"
     id="link82_@0_81"
     x1="17.856667"
     y1="590.09161"
     x2="125.96384"
     y2="596.21045"
     style="stroke-width:1.33333;stroke-dasharray:none" />
  <line
     class="arc0"
     id="link90_@0_89"
     x1="17.856667"
     y1="590.09161"
     x2="125.96384"
     y2="596.21045"
     style="stroke-width:1.33333;stroke-dasharray:none" />
  <line
     class="arc1"
     id="link60_@1_61"
     x1="0.66666502"
     y1="440.28745"
     x2="17.856667"
     y2="420.84158"
     style="stroke-width:1.33333;stroke-dasharray:none" />
  <line
     class="arc1"
     id="link68_@1_69"
     x1="0.66666502"
     y1="440.28745"
     x2="17.856667"
     y2="420.84158"
     style="stroke-width:1.33333;stroke-dasharray:none" />
  <line
     class="arc1"
     id="link76_@1_77"
     x1="0.66666502"
     y1="440.28745"
     x2="17.856667"
     y2="420.84158"
     style="stroke-width:1.33333;stroke-dasharray:none" />
  <line
     class="arc1"
     id="link84_@1_85"
     x1="0.66666502"
     y1="440.28745"
     x2="17.856667"
     y2="420.84158"
     style="stroke-width:1.33333;stroke-dasharray:none" />
  <polygon
     points="729.7438,290.5268 729.7438,418.93933 712.5537,438.3851 604.44653,432.2663 587.25653,410.8746 587.25653,282.4621 604.44653,263.0161 712.5537,269.13495 "
     id="face_28_29_30_31_32_33_34_35"
     style="fill:#c0c0c0;stroke:none"
     opacity="1"
     transform="translate(-586.58986,-52.262107)" />
  <line
     class="arc1"
     id="link35_@1_34"
     x1="0.66666502"
     y1="358.61249"
     x2="17.856667"
     y2="380.00418"
     style="stroke-width:1.33333;stroke-dasharray:none" />
  <line
     class="arc0"
     id="link35_@0_28"
     x1="0.66666502"
     y1="358.61249"
     x2="0.66666502"
     y2="230.2"
     style="stroke-width:1.33333;stroke-dasharray:none" />
  <polygon
     points="729.7438,290.5268 729.7438,418.93933 712.5537,438.3851 604.44653,432.2663 587.25653,410.8746 587.25653,282.4621 604.44653,263.0161 712.5537,269.13495 "
     id="face_36_37_38_39_40_41_42_43"
     style="fill:#c0c0c0;stroke:none"
     opacity="1"
     transform="translate(-586.58986,-52.262107)" />
  <line
     class="arc1"
     id="link43_@1_42"
     x1="0.66666502"
     y1="358.61249"
     x2="17.856667"
     y2="380.00418"
     style="stroke-width:1.33333;stroke-dasharray:none" />
  <line
     class="arc0"
     id="link43_@0_36"
     x1="0.66666502"
     y1="358.61249"
     x2="0.66666502"
     y2="230.2"
     style="stroke-width:1.33333;stroke-dasharray:none" />
  <polygon
     points="729.7438,290.5268 729.7438,418.93933 712.5537,438.3851 604.44653,432.2663 587.25653,410.8746 587.25653,282.4621 604.44653,263.0161 712.5537,269.13495 "
     id="face_44_45_46_47_48_49_50_51"
     style="fill:#c0c0c0;stroke:none"
     opacity="1"
     transform="translate(-586.58986,-52.262107)" />
  <line
     class="arc1"
     id="link51_@1_50"
     x1="0.66666502"
     y1="358.61249"
     x2="17.856667"
     y2="380.00418"
     style="stroke-width:1.33333;stroke-dasharray:none" />
  <line
     class="arc0"
     id="link51_@0_44"
     x1="0.66666502"
     y1="358.61249"
     x2="0.66666502"
     y2="230.2"
     style="stroke-width:1.33333;stroke-dasharray:none" />
  <polygon
     points="729.7438,290.5268 729.7438,418.93933 712.5537,438.3851 604.44653,432.2663 587.25653,410.8746 587.25653,282.4621 604.44653,263.0161 712.5537,269.13495 "
     id="face_52_53_54_55_56_57_58_59"
     style="fill:#c0c0c0;stroke:none"
     opacity="1"
     transform="translate(-586.58986,-52.262107)" />
  <line
     class="arc1"
     id="link59_@1_58"
     x1="0.66666502"
     y1="358.61249"
     x2="17.856667"
     y2="380.00418"
     style="stroke-width:1.33333;stroke-dasharray:none" />
  <line
     class="arc0"
     id="link59_@0_52"
     x1="0.66666502"
     y1="358.61249"
     x2="0.66666502"
     y2="230.2"
     style="stroke-width:1.33333;stroke-dasharray:none" />
  <line
     class="arc0"
     id="link61_@0_62"
     x1="17.856667"
     y1="420.84158"
     x2="125.96384"
     y2="426.96039"
     style="stroke-width:1.33333;stroke-dasharray:none" />
  <line
     class="arc0"
     id="link69_@0_70"
     x1="17.856667"
     y1="420.84158"
     x2="125.96384"
     y2="426.96039"
     style="stroke-width:1.33333;stroke-dasharray:none" />
  <line
     class="arc0"
     id="link77_@0_78"
     x1="17.856667"
     y1="420.84158"
     x2="125.96384"
     y2="426.96039"
     style="stroke-width:1.33333;stroke-dasharray:none" />
  <line
     class="arc0"
     id="link85_@0_86"
     x1="17.856667"
     y1="420.84158"
     x2="125.96384"
     y2="426.96039"
     style="stroke-width:1.33333;stroke-dasharray:none" />
  <line
     class="arc0"
     id="link34_@0_33"
     x1="17.856667"
     y1="380.00418"
     x2="125.96384"
     y2="386.12299"
     style="stroke-width:1.33333;stroke-dasharray:none" />
  <line
     class="arc0"
     id="link42_@0_41"
     x1="17.856667"
     y1="380.00418"
     x2="125.96384"
     y2="386.12299"
     style="stroke-width:1.33333;stroke-dasharray:none" />
  <line
     class="arc0"
     id="link50_@0_49"
     x1="17.856667"
     y1="380.00418"
     x2="125.96384"
     y2="386.12299"
     style="stroke-width:1.33333;stroke-dasharray:none" />
  <line
     class="arc0"
     id="link58_@0_57"
     x1="17.856667"
     y1="380.00418"
     x2="125.96384"
     y2="386.12299"
     style="stroke-width:1.33333;stroke-dasharray:none" />
  <line
     class="arc1"
     id="link28_@1_29"
     x1="0.66666502"
     y1="230.2"
     x2="17.856667"
     y2="210.75401"
     style="stroke-width:1.33333;stroke-dasharray:none" />
  <line
     class="arc1"
     id="link36_@1_37"
     x1="0.66666502"
     y1="230.2"
     x2="17.856667"
     y2="210.75401"
     style="stroke-width:1.33333;stroke-dasharray:none" />
  <line
     class="arc1"
     id="link44_@1_45"
     x1="0.66666502"
     y1="230.2"
     x2="17.856667"
     y2="210.75401"
     style="stroke-width:1.33333;stroke-dasharray:none" />
  <line
     class="arc1"
     id="link52_@1_53"
     x1="0.66666502"
     y1="230.2"
     x2="17.856667"
     y2="210.75401"
     style="stroke-width:1.33333;stroke-dasharray:none" />
  <polygon
     points="729.7438,80.43921 729.7438,208.85175 712.5537,228.2976 604.44653,222.17877 587.25653,200.78705 587.25653,72.37451 604.44653,52.928772 712.5537,59.047607 "
     id="face_12_13_14_15_16_17_18_19"
     style="fill:#c0c0c0;stroke:none"
     opacity="1"
     transform="translate(-586.58986,-52.262107)" />
  <line
     class="arc1"
     id="link19_@1_18"
     x1="0.66666502"
     y1="148.52495"
     x2="17.856667"
     y2="169.91667"
     style="stroke-width:1.33333;stroke-dasharray:none" />
  <line
     class="arc0"
     id="link19_@0_12"
     x1="0.66666502"
     y1="148.52495"
     x2="0.66666502"
     y2="20.112404"
     style="stroke-width:1.33333;stroke-dasharray:none" />
  <polygon
     points="729.7438,80.43921 729.7438,208.85175 712.5537,228.2976 604.44653,222.17877 587.25653,200.78705 587.25653,72.37451 604.44653,52.928772 712.5537,59.047607 "
     id="face_20_21_22_23_24_25_26_27"
     style="fill:#c0c0c0;stroke:none"
     opacity="1"
     transform="translate(-586.58986,-52.262107)" />
  <line
     class="arc1"
     id="link27_@1_26"
     x1="0.66666502"
     y1="148.52495"
     x2="17.856667"
     y2="169.91667"
     style="stroke-width:1.33333;stroke-dasharray:none" />
  <line
     class="arc0"
     id="link27_@0_20"
     x1="0.66666502"
     y1="148.52495"
     x2="0.66666502"
     y2="20.112404"
     style="stroke-width:1.33333;stroke-dasharray:none" />
  <polygon
     points="658.50006,330.28192 658.50006,201.86963 658.50006,201.86963 658.50006,330.28192 658.50006,371.11945 658.50006,540.3694 658.50006,581.2069 658.50006,709.6193 658.50006,581.2069 658.50006,540.3694 658.50006,371.11945 "
     id="face_1_4_5_8_9_9_8_5_4_1_0"
     style="fill:#c0c0c0;stroke:none"
     opacity="1"
     transform="translate(-586.58986,-52.262107)" />
  <line
     class="arc2"
     id="link0_@2_2"
     x1="71.910194"
     y1="657.35724"
     x2="71.910194"
     y2="657.35724"
     style="stroke-width:1.33333;stroke-dasharray:none" />
  <line
     class="arc0"
     id="link0_@0_1"
     x1="71.910194"
     y1="657.35724"
     x2="71.910194"
     y2="528.94482"
     style="stroke-width:1.33333;stroke-dasharray:none" />
  <polygon
     points="658.50006,330.28192 658.50006,201.86963 658.50006,201.86963 658.50006,330.28192 658.50006,371.11945 658.50006,540.3694 658.50006,581.2069 658.50006,709.6193 658.50006,581.2069 658.50006,540.3694 658.50006,371.11945 "
     id="face_3_6_7_10_11_11_10_7_6_3_2"
     style="fill:#c0c0c0;stroke:none"
     opacity="1"
     transform="translate(-586.58986,-52.262107)" />
  <line
     class="arc0"
     id="link2_@0_3"
     x1="71.910194"
     y1="657.35724"
     x2="71.910194"
     y2="528.94482"
     style="stroke-width:1.33333;stroke-dasharray:none" />
  <line
     class="arc0"
     id="link29_@0_30"
     x1="17.856667"
     y1="210.75401"
     x2="125.96384"
     y2="216.87285"
     style="stroke-width:1.33333;stroke-dasharray:none" />
  <line
     class="arc0"
     id="link37_@0_38"
     x1="17.856667"
     y1="210.75401"
     x2="125.96384"
     y2="216.87285"
     style="stroke-width:1.33333;stroke-dasharray:none" />
  <line
     class="arc0"
     id="link45_@0_46"
     x1="17.856667"
     y1="210.75401"
     x2="125.96384"
     y2="216.87285"
     style="stroke-width:1.33333;stroke-dasharray:none" />
  <line
     class="arc0"
     id="link53_@0_54"
     x1="17.856667"
     y1="210.75401"
     x2="125.96384"
     y2="216.87285"
     style="stroke-width:1.33333;stroke-dasharray:none" />
  <line
     class="arc0"
     id="link18_@0_17"
     x1="17.856667"
     y1="169.91667"
     x2="125.96384"
     y2="176.03551"
     style="stroke-width:1.33333;stroke-dasharray:none" />
  <line
     class="arc0"
     id="link26_@0_25"
     x1="17.856667"
     y1="169.91667"
     x2="125.96384"
     y2="176.03551"
     style="stroke-width:1.33333;stroke-dasharray:none" />
  <line
     class="arc1"
     id="link12_@1_13"
     x1="0.66666502"
     y1="20.112404"
     x2="17.856667"
     y2="0.66666502"
     style="stroke-width:1.33333;stroke-dasharray:none" />
  <line
     class="arc1"
     id="link20_@1_21"
     x1="0.66666502"
     y1="20.112404"
     x2="17.856667"
     y2="0.66666502"
     style="stroke-width:1.33333;stroke-dasharray:none" />
  <line
     class="arc1"
     id="link1_@1_4"
     x1="71.910194"
     y1="528.94482"
     x2="71.910194"
     y2="488.10727"
     style="stroke-width:1.33333;stroke-dasharray:none" />
  <line
     class="arc2"
     id="link1_@2_3"
     x1="71.910194"
     y1="528.94482"
     x2="71.910194"
     y2="528.94482"
     style="stroke-width:1.33333;stroke-dasharray:none" />
  <line
     class="arc1"
     id="link3_@1_6"
     x1="71.910194"
     y1="528.94482"
     x2="71.910194"
     y2="488.10727"
     style="stroke-width:1.33333;stroke-dasharray:none" />
  <line
     class="arc2"
     id="link4_@2_6"
     x1="71.910194"
     y1="488.10727"
     x2="71.910194"
     y2="488.10727"
     style="stroke-width:1.33333;stroke-dasharray:none" />
  <line
     class="arc0"
     id="link4_@0_5"
     x1="71.910194"
     y1="488.10727"
     x2="71.910194"
     y2="318.85733"
     style="stroke-width:1.33333;stroke-dasharray:none" />
  <line
     class="arc0"
     id="link6_@0_7"
     x1="71.910194"
     y1="488.10727"
     x2="71.910194"
     y2="318.85733"
     style="stroke-width:1.33333;stroke-dasharray:none" />
  <line
     class="arc0"
     id="link13_@0_14"
     x1="17.856667"
     y1="0.66666502"
     x2="125.96384"
     y2="6.7855005"
     style="stroke-width:1.33333;stroke-dasharray:none" />
  <line
     class="arc0"
     id="link21_@0_22"
     x1="17.856667"
     y1="0.66666502"
     x2="125.96384"
     y2="6.7855005"
     style="stroke-width:1.33333;stroke-dasharray:none" />
  <line
     class="arc1"
     id="link97_@1_96"
     x1="125.96384"
     y1="806.29785"
     x2="143.15392"
     y2="786.85205"
     style="stroke-width:1.33333;stroke-dasharray:none" />
  <line
     class="arc1"
     id="link105_@1_104"
     x1="125.96384"
     y1="806.29785"
     x2="143.15392"
     y2="786.85205"
     style="stroke-width:1.33333;stroke-dasharray:none" />
  <line
     class="arc1"
     id="link5_@1_8"
     x1="71.910194"
     y1="318.85733"
     x2="71.910194"
     y2="278.01981"
     style="stroke-width:1.33333;stroke-dasharray:none" />
  <line
     class="arc2"
     id="link5_@2_7"
     x1="71.910194"
     y1="318.85733"
     x2="71.910194"
     y2="318.85733"
     style="stroke-width:1.33333;stroke-dasharray:none" />
  <line
     class="arc1"
     id="link7_@1_10"
     x1="71.910194"
     y1="318.85733"
     x2="71.910194"
     y2="278.01981"
     style="stroke-width:1.33333;stroke-dasharray:none" />
  <line
     class="arc2"
     id="link8_@2_10"
     x1="71.910194"
     y1="278.01981"
     x2="71.910194"
     y2="278.01981"
     style="stroke-width:1.33333;stroke-dasharray:none" />
  <line
     class="arc0"
     id="link8_@0_9"
     x1="71.910194"
     y1="278.01981"
     x2="71.910194"
     y2="149.60753"
     style="stroke-width:1.33333;stroke-dasharray:none" />
  <line
     class="arc0"
     id="link10_@0_11"
     x1="71.910194"
     y1="278.01981"
     x2="71.910194"
     y2="149.60753"
     style="stroke-width:1.33333;stroke-dasharray:none" />
  <line
     class="arc0"
     id="link96_@0_95"
     x1="143.15392"
     y1="786.85205"
     x2="143.15392"
     y2="658.43958"
     style="stroke-width:1.33333;stroke-dasharray:none" />
  <line
     class="arc0"
     id="link104_@0_103"
     x1="143.15392"
     y1="786.85205"
     x2="143.15392"
     y2="658.43958"
     style="stroke-width:1.33333;stroke-dasharray:none" />
  <line
     class="arc1"
     id="link94_@1_95"
     x1="125.96384"
     y1="637.04791"
     x2="143.15392"
     y2="658.43958"
     style="stroke-width:1.33333;stroke-dasharray:none" />
  <line
     class="arc1"
     id="link102_@1_103"
     x1="125.96384"
     y1="637.04791"
     x2="143.15392"
     y2="658.43958"
     style="stroke-width:1.33333;stroke-dasharray:none" />
  <line
     class="arc1"
     id="link65_@1_64"
     x1="125.96384"
     y1="596.21045"
     x2="143.15392"
     y2="576.76465"
     style="stroke-width:1.33333;stroke-dasharray:none" />
  <line
     class="arc1"
     id="link73_@1_72"
     x1="125.96384"
     y1="596.21045"
     x2="143.15392"
     y2="576.76465"
     style="stroke-width:1.33333;stroke-dasharray:none" />
  <line
     class="arc1"
     id="link81_@1_80"
     x1="125.96384"
     y1="596.21045"
     x2="143.15392"
     y2="576.76465"
     style="stroke-width:1.33333;stroke-dasharray:none" />
  <line
     class="arc1"
     id="link89_@1_88"
     x1="125.96384"
     y1="596.21045"
     x2="143.15392"
     y2="576.76465"
     style="stroke-width:1.33333;stroke-dasharray:none" />
  <line
     class="arc2"
     id="link9_@2_11"
     x1="71.910194"
     y1="149.60753"
     x2="71.910194"
     y2="149.60753"
     style="stroke-width:1.33333;stroke-dasharray:none" />
  <line
     class="arc0"
     id="link64_@0_63"
     x1="143.15392"
     y1="576.76465"
     x2="143.15392"
     y2="448.35214"
     style="stroke-width:1.33333;stroke-dasharray:none" />
  <line
     class="arc0"
     id="link72_@0_71"
     x1="143.15392"
     y1="576.76465"
     x2="143.15392"
     y2="448.35214"
     style="stroke-width:1.33333;stroke-dasharray:none" />
  <line
     class="arc0"
     id="link80_@0_79"
     x1="143.15392"
     y1="576.76465"
     x2="143.15392"
     y2="448.35214"
     style="stroke-width:1.33333;stroke-dasharray:none" />
  <line
     class="arc0"
     id="link88_@0_87"
     x1="143.15392"
     y1="576.76465"
     x2="143.15392"
     y2="448.35214"
     style="stroke-width:1.33333;stroke-dasharray:none" />
  <line
     class="arc1"
     id="link62_@1_63"
     x1="125.96384"
     y1="426.96039"
     x2="143.15392"
     y2="448.35214"
     style="stroke-width:1.33333;stroke-dasharray:none" />
  <line
     class="arc1"
     id="link70_@1_71"
     x1="125.96384"
     y1="426.96039"
     x2="143.15392"
     y2="448.35214"
     style="stroke-width:1.33333;stroke-dasharray:none" />
  <line
     class="arc1"
     id="link78_@1_79"
     x1="125.96384"
     y1="426.96039"
     x2="143.15392"
     y2="448.35214"
     style="stroke-width:1.33333;stroke-dasharray:none" />
  <line
     class="arc1"
     id="link86_@1_87"
     x1="125.96384"
     y1="426.96039"
     x2="143.15392"
     y2="448.35214"
     style="stroke-width:1.33333;stroke-dasharray:none" />
  <line
     class="arc1"
     id="link33_@1_32"
     x1="125.96384"
     y1="386.12299"
     x2="143.15392"
     y2="366.67722"
     style="stroke-width:1.33333;stroke-dasharray:none" />
  <line
     class="arc1"
     id="link41_@1_40"
     x1="125.96384"
     y1="386.12299"
     x2="143.15392"
     y2="366.67722"
     style="stroke-width:1.33333;stroke-dasharray:none" />
  <line
     class="arc1"
     id="link49_@1_48"
     x1="125.96384"
     y1="386.12299"
     x2="143.15392"
     y2="366.67722"
     style="stroke-width:1.33333;stroke-dasharray:none" />
  <line
     class="arc1"
     id="link57_@1_56"
     x1="125.96384"
     y1="386.12299"
     x2="143.15392"
     y2="366.67722"
     style="stroke-width:1.33333;stroke-dasharray:none" />
  <line
     class="arc0"
     id="link32_@0_31"
     x1="143.15392"
     y1="366.67722"
     x2="143.15392"
     y2="238.26469"
     style="stroke-width:1.33333;stroke-dasharray:none" />
  <line
     class="arc0"
     id="link40_@0_39"
     x1="143.15392"
     y1="366.67722"
     x2="143.15392"
     y2="238.26469"
     style="stroke-width:1.33333;stroke-dasharray:none" />
  <line
     class="arc0"
     id="link48_@0_47"
     x1="143.15392"
     y1="366.67722"
     x2="143.15392"
     y2="238.26469"
     style="stroke-width:1.33333;stroke-dasharray:none" />
  <line
     class="arc0"
     id="link56_@0_55"
     x1="143.15392"
     y1="366.67722"
     x2="143.15392"
     y2="238.26469"
     style="stroke-width:1.33333;stroke-dasharray:none" />
  <line
     class="arc1"
     id="link30_@1_31"
     x1="125.96384"
     y1="216.87285"
     x2="143.15392"
     y2="238.26469"
     style="stroke-width:1.33333;stroke-dasharray:none" />
  <line
     class="arc1"
     id="link38_@1_39"
     x1="125.96384"
     y1="216.87285"
     x2="143.15392"
     y2="238.26469"
     style="stroke-width:1.33333;stroke-dasharray:none" />
  <line
     class="arc1"
     id="link46_@1_47"
     x1="125.96384"
     y1="216.87285"
     x2="143.15392"
     y2="238.26469"
     style="stroke-width:1.33333;stroke-dasharray:none" />
  <line
     class="arc1"
     id="link54_@1_55"
     x1="125.96384"
     y1="216.87285"
     x2="143.15392"
     y2="238.26469"
     style="stroke-width:1.33333;stroke-dasharray:none" />
  <line
     class="arc1"
     id="link17_@1_16"
     x1="125.96384"
     y1="176.03551"
     x2="143.15392"
     y2="156.58965"
     style="stroke-width:1.33333;stroke-dasharray:none" />
  <line
     class="arc1"
     id="link25_@1_24"
     x1="125.96384"
     y1="176.03551"
     x2="143.15392"
     y2="156.58965"
     style="stroke-width:1.33333;stroke-dasharray:none" />
  <line
     class="arc0"
     id="link16_@0_15"
     x1="143.15392"
     y1="156.58965"
     x2="143.15392"
     y2="28.177101"
     style="stroke-width:1.33333;stroke-dasharray:none" />
  <line
     class="arc0"
     id="link24_@0_23"
     x1="143.15392"
     y1="156.58965"
     x2="143.15392"
     y2="28.177101"
     style="stroke-width:1.33333;stroke-dasharray:none" />
  <line
     class="arc1"
     id="link14_@1_15"
     x1="125.96384"
     y1="6.7855005"
     x2="143.15392"
     y2="28.177101"
     style="stroke-width:1.33333;stroke-dasharray:none" />
  <line
     class="arc1"
     id="link22_@1_23"
     x1="125.96384"
     y1="6.7855005"
     x2="143.15392"
     y2="28.177101"
     style="stroke-width:1.33333;stroke-dasharray:none" />
  <circle
     id="dart30"
     cx="143.82057"
     cy="156.9893"
     r="10"
     stroke="#000000"
     fill="#000000" />
  <text
     xml:space="preserve"
     style="font-size:37.3333px;font-family:'DejaVu Math TeX Gyre';-inkscape-font-specification:'DejaVu Math TeX Gyre';text-align:center;writing-mode:lr-tb;direction:ltr;text-anchor:middle;fill:#000000;fill-opacity:1;stroke-width:1.33333;stroke-linecap:round;stroke-dasharray:none"
     x="112.04059"
     y="145.96664"
     id="text1"><tspan
       sodipodi:role="line"
       id="tspan1"
       x="112.04059"
       y="145.96664">15</tspan></text>
</svg>
