<?xml version="1.0" encoding="UTF-8" standalone="no"?>
<!-- Created with Jerboa -->

<svg
   width="171.32454"
   height="806.96448"
   version="1.1"
   id="svg1"
   sodipodi:docname="exemple-1-dual-struct-lin-pierce-face.svg"
   inkscape:version="1.4 (e7c3feb100, 2024-10-09)"
   xmlns:inkscape="http://www.inkscape.org/namespaces/inkscape"
   xmlns:sodipodi="http://sodipodi.sourceforge.net/DTD/sodipodi-0.dtd"
   xmlns="http://www.w3.org/2000/svg"
   xmlns:svg="http://www.w3.org/2000/svg">
  <defs
     id="defs1" />
  <sodipodi:namedview
     id="namedview1"
     pagecolor="#ffffff"
     bordercolor="#000000"
     borderopacity="0.25"
     inkscape:showpageshadow="2"
     inkscape:pageopacity="0.0"
     inkscape:pagecheckerboard="0"
     inkscape:deskcolor="#d1d1d1"
     showgrid="false"
     inkscape:zoom="0.70994685"
     inkscape:cx="85.217647"
     inkscape:cy="395.80428"
     inkscape:window-width="1892"
     inkscape:window-height="1035"
     inkscape:window-x="1929"
     inkscape:window-y="26"
     inkscape:window-maximized="1"
     inkscape:current-layer="svg1" />
  <style
     id="style">
		.arc0 {
			fill:none;
			fill-rule:evenodd;
			stroke:black;
			stroke-width:4;
			stroke-linecap:round;
			stroke-linejoin:round;
			stroke-opacity:1;
		}
		.arc1 {
			fill:none;
			fill-rule:evenodd;
			stroke:red;
			stroke-width:4;
			stroke-linecap:round;
			stroke-linejoin:round;
			stroke-opacity:1;
		}
		.arc2 {
			fill:none;
			fill-rule:evenodd;
			stroke:blue;
			stroke-width:4;
			stroke-linecap:round;
			stroke-linejoin:round;
			stroke-opacity:1;
		}
		.arc3 {
			fill:none;
			fill-rule:evenodd;
			stroke:green;
			stroke-width:4;
			stroke-linecap:round;
			stroke-linejoin:round;
			stroke-opacity:1;
		}
		.topological-dart {
			fill:#000000;
			stroke:#000000;
			stroke-width:0;
			stroke-linecap:round;
			stroke-linejoin:round;
			stroke-dasharray:none;
			paint-order:markers fill stroke;
		}
	</style>
  <polygon
     points="729.7438,710.70166 729.7438,839.11414 712.5537,858.55994 604.44653,852.44116 587.25653,831.04944 587.25653,702.63696 604.44653,683.19116 712.5537,689.31 "
     id="face_92_93_94_95_96_97_98_99"
     style="fill:#c0c0c0;stroke:none"
     opacity="1"
     transform="translate(-572.83791,-52.262105)" />
  <line
     class="arc1"
     id="link99_@1_98"
     x1="14.41862"
     y1="778.78735"
     x2="31.608622"
     y2="800.17908"
     style="stroke-width:1.33333;stroke-dasharray:none" />
  <line
     class="arc0"
     id="link99_@0_92"
     x1="14.41862"
     y1="778.78735"
     x2="14.41862"
     y2="650.37488"
     style="stroke-width:1.33333;stroke-dasharray:none" />
  <polygon
     points="729.7438,710.70166 729.7438,839.11414 712.5537,858.55994 604.44653,852.44116 587.25653,831.04944 587.25653,702.63696 604.44653,683.19116 712.5537,689.31 "
     id="face_100_101_102_103_104_105_106_107"
     style="fill:#c0c0c0;stroke:none"
     opacity="1"
     transform="translate(-572.83791,-52.262105)" />
  <line
     class="arc1"
     id="link107_@1_106"
     x1="14.41862"
     y1="778.78735"
     x2="31.608622"
     y2="800.17908"
     style="stroke-width:1.33333;stroke-dasharray:none" />
  <line
     class="arc0"
     id="link107_@0_100"
     x1="14.41862"
     y1="778.78735"
     x2="14.41862"
     y2="650.37488"
     style="stroke-width:1.33333;stroke-dasharray:none" />
  <line
     class="arc0"
     id="link98_@0_97"
     x1="31.608622"
     y1="800.17908"
     x2="139.71581"
     y2="806.29785"
     style="stroke-width:1.33333;stroke-dasharray:none" />
  <line
     class="arc0"
     id="link106_@0_105"
     x1="31.608622"
     y1="800.17908"
     x2="139.71581"
     y2="806.29785"
     style="stroke-width:1.33333;stroke-dasharray:none" />
  <line
     class="arc1"
     id="link92_@1_93"
     x1="14.41862"
     y1="650.37488"
     x2="31.608622"
     y2="630.92908"
     style="stroke-width:1.33333;stroke-dasharray:none" />
  <line
     class="arc1"
     id="link100_@1_101"
     x1="14.41862"
     y1="650.37488"
     x2="31.608622"
     y2="630.92908"
     style="stroke-width:1.33333;stroke-dasharray:none" />
  <polygon
     points="729.7438,500.61426 729.7438,629.02673 712.5537,648.47253 604.44653,642.3537 587.25653,620.96204 587.25653,492.54956 604.44653,473.1037 712.5537,479.2225 "
     id="face_60_61_62_63_64_65_66_67"
     style="fill:#c0c0c0;stroke:none"
     opacity="1"
     transform="translate(-572.83791,-52.262105)" />
  <line
     class="arc1"
     id="link67_@1_66"
     x1="14.41862"
     y1="568.69995"
     x2="31.608622"
     y2="590.09161"
     style="stroke-width:1.33333;stroke-dasharray:none" />
  <line
     class="arc0"
     id="link67_@0_60"
     x1="14.41862"
     y1="568.69995"
     x2="14.41862"
     y2="440.28745"
     style="stroke-width:1.33333;stroke-dasharray:none" />
  <polygon
     points="729.7438,500.61426 729.7438,629.02673 712.5537,648.47253 604.44653,642.3537 587.25653,620.96204 587.25653,492.54956 604.44653,473.1037 712.5537,479.2225 "
     id="face_68_69_70_71_72_73_74_75"
     style="fill:#c0c0c0;stroke:none"
     opacity="1"
     transform="translate(-572.83791,-52.262105)" />
  <line
     class="arc1"
     id="link75_@1_74"
     x1="14.41862"
     y1="568.69995"
     x2="31.608622"
     y2="590.09161"
     style="stroke-width:1.33333;stroke-dasharray:none" />
  <line
     class="arc0"
     id="link75_@0_68"
     x1="14.41862"
     y1="568.69995"
     x2="14.41862"
     y2="440.28745"
     style="stroke-width:1.33333;stroke-dasharray:none" />
  <polygon
     points="729.7438,500.61426 729.7438,629.02673 712.5537,648.47253 604.44653,642.3537 587.25653,620.96204 587.25653,492.54956 604.44653,473.1037 712.5537,479.2225 "
     id="face_76_77_78_79_80_81_82_83"
     style="fill:#c0c0c0;stroke:none"
     opacity="1"
     transform="translate(-572.83791,-52.262105)" />
  <line
     class="arc1"
     id="link83_@1_82"
     x1="14.41862"
     y1="568.69995"
     x2="31.608622"
     y2="590.09161"
     style="stroke-width:1.33333;stroke-dasharray:none" />
  <line
     class="arc0"
     id="link83_@0_76"
     x1="14.41862"
     y1="568.69995"
     x2="14.41862"
     y2="440.28745"
     style="stroke-width:1.33333;stroke-dasharray:none" />
  <polygon
     points="729.7438,500.61426 729.7438,629.02673 712.5537,648.47253 604.44653,642.3537 587.25653,620.96204 587.25653,492.54956 604.44653,473.1037 712.5537,479.2225 "
     id="face_84_85_86_87_88_89_90_91"
     style="fill:#c0c0c0;stroke:none"
     opacity="1"
     transform="translate(-572.83791,-52.262105)" />
  <line
     class="arc1"
     id="link91_@1_90"
     x1="14.41862"
     y1="568.69995"
     x2="31.608622"
     y2="590.09161"
     style="stroke-width:1.33333;stroke-dasharray:none" />
  <line
     class="arc0"
     id="link91_@0_84"
     x1="14.41862"
     y1="568.69995"
     x2="14.41862"
     y2="440.28745"
     style="stroke-width:1.33333;stroke-dasharray:none" />
  <line
     class="arc0"
     id="link93_@0_94"
     x1="31.608622"
     y1="630.92908"
     x2="139.71581"
     y2="637.04791"
     style="stroke-width:1.33333;stroke-dasharray:none" />
  <line
     class="arc0"
     id="link101_@0_102"
     x1="31.608622"
     y1="630.92908"
     x2="139.71581"
     y2="637.04791"
     style="stroke-width:1.33333;stroke-dasharray:none" />
  <polygon
     points="606.586,306.5161 606.586,389.00867 602.002,410.5291 582.67255,429.6726 573.5046,406.01245 573.5046,285.76752 582.67255,263.14514 602.002,284.47668 "
     id="face_28_132_133_134_130_129_128_35"
     style="fill:#c0c0c0;stroke:none"
     opacity="1"
     transform="translate(-572.83791,-52.262105)" />
  <line
     class="arc1"
     id="link35_@1_128"
     x1="0.66666669"
     y1="353.75034"
     x2="9.8346357"
     y2="377.41049"
     style="stroke-width:1.33333;stroke-dasharray:none" />
  <line
     class="arc0"
     id="link35_@0_28"
     x1="0.66666669"
     y1="353.75034"
     x2="0.66666669"
     y2="233.50542"
     style="stroke-width:1.33333;stroke-dasharray:none" />
  <line
     class="arc0"
     id="link66_@0_65"
     x1="31.608622"
     y1="590.09161"
     x2="139.71581"
     y2="596.21045"
     style="stroke-width:1.33333;stroke-dasharray:none" />
  <line
     class="arc0"
     id="link74_@0_73"
     x1="31.608622"
     y1="590.09161"
     x2="139.71581"
     y2="596.21045"
     style="stroke-width:1.33333;stroke-dasharray:none" />
  <line
     class="arc0"
     id="link82_@0_81"
     x1="31.608622"
     y1="590.09161"
     x2="139.71581"
     y2="596.21045"
     style="stroke-width:1.33333;stroke-dasharray:none" />
  <line
     class="arc0"
     id="link90_@0_89"
     x1="31.608622"
     y1="590.09161"
     x2="139.71581"
     y2="596.21045"
     style="stroke-width:1.33333;stroke-dasharray:none" />
  <line
     class="arc1"
     id="link60_@1_61"
     x1="14.41862"
     y1="440.28745"
     x2="31.608622"
     y2="420.84158"
     style="stroke-width:1.33333;stroke-dasharray:none" />
  <line
     class="arc1"
     id="link68_@1_69"
     x1="14.41862"
     y1="440.28745"
     x2="31.608622"
     y2="420.84158"
     style="stroke-width:1.33333;stroke-dasharray:none" />
  <line
     class="arc1"
     id="link76_@1_77"
     x1="14.41862"
     y1="440.28745"
     x2="31.608622"
     y2="420.84158"
     style="stroke-width:1.33333;stroke-dasharray:none" />
  <line
     class="arc1"
     id="link84_@1_85"
     x1="14.41862"
     y1="440.28745"
     x2="31.608622"
     y2="420.84158"
     style="stroke-width:1.33333;stroke-dasharray:none" />
  <line
     class="arc2"
     id="link128_@2_124"
     x1="9.8346357"
     y1="377.41049"
     x2="15.564616"
     y2="384.54105"
     style="stroke-width:1.33333;stroke-dasharray:none" />
  <line
     class="arc0"
     id="link128_@0_129"
     x1="9.8346357"
     y1="377.41049"
     x2="29.164103"
     y2="358.267"
     style="stroke-width:1.33333;stroke-dasharray:none" />
  <polygon
     points="711.56036,420.81375 728.5977,444.7382 709.1157,454.52542 607.8846,448.79578 588.4025,436.80316 605.44006,414.8074 623.776,410.4003 693.2243,414.33102 "
     id="face_125_126_122_121_120_33_34_124"
     style="fill:#c0c0c0;stroke:none"
     opacity="1"
     transform="translate(-572.83791,-52.262105)" />
  <line
     class="arc1"
     id="link124_@1_34"
     x1="15.564616"
     y1="384.54105"
     x2="35.046673"
     y2="396.53366"
     style="stroke-width:1.33333;stroke-dasharray:none" />
  <line
     class="arc0"
     id="link124_@0_125"
     x1="15.564616"
     y1="384.54105"
     x2="32.602154"
     y2="362.54529"
     style="stroke-width:1.33333;stroke-dasharray:none" />
  <line
     class="arc1"
     id="link28_@1_132"
     x1="0.66666669"
     y1="233.50542"
     x2="9.8346357"
     y2="210.88304"
     style="stroke-width:1.33333;stroke-dasharray:none" />
  <line
     class="arc0"
     id="link61_@0_62"
     x1="31.608622"
     y1="420.84158"
     x2="139.71581"
     y2="426.96039"
     style="stroke-width:1.33333;stroke-dasharray:none" />
  <line
     class="arc0"
     id="link69_@0_70"
     x1="31.608622"
     y1="420.84158"
     x2="139.71581"
     y2="426.96039"
     style="stroke-width:1.33333;stroke-dasharray:none" />
  <line
     class="arc0"
     id="link77_@0_78"
     x1="31.608622"
     y1="420.84158"
     x2="139.71581"
     y2="426.96039"
     style="stroke-width:1.33333;stroke-dasharray:none" />
  <line
     class="arc0"
     id="link85_@0_86"
     x1="31.608622"
     y1="420.84158"
     x2="139.71581"
     y2="426.96039"
     style="stroke-width:1.33333;stroke-dasharray:none" />
  <line
     class="arc1"
     id="link129_@1_130"
     x1="29.164103"
     y1="358.267"
     x2="33.748089"
     y2="336.74655"
     style="stroke-width:1.33333;stroke-dasharray:none" />
  <line
     class="arc2"
     id="link129_@2_125"
     x1="29.164103"
     y1="358.267"
     x2="32.602154"
     y2="362.54529"
     style="stroke-width:1.33333;stroke-dasharray:none" />
  <line
     class="arc0"
     id="link34_@0_33"
     x1="35.046673"
     y1="396.53366"
     x2="136.27782"
     y2="402.26331"
     style="stroke-width:1.33333;stroke-dasharray:none" />
  <line
     class="arc2"
     id="link132_@2_136"
     x1="9.8346357"
     y1="210.88304"
     x2="15.564616"
     y2="204.40105"
     style="stroke-width:1.33333;stroke-dasharray:none" />
  <line
     class="arc0"
     id="link132_@0_133"
     x1="9.8346357"
     y1="210.88304"
     x2="29.164103"
     y2="232.21458"
     style="stroke-width:1.33333;stroke-dasharray:none" />
  <line
     class="arc1"
     id="link125_@1_126"
     x1="32.602154"
     y1="362.54529"
     x2="50.938091"
     y2="358.13818"
     style="stroke-width:1.33333;stroke-dasharray:none" />
  <line
     class="arc2"
     id="link130_@2_131"
     x1="33.748089"
     y1="336.74655"
     x2="38.332134"
     y2="335.64462"
     style="stroke-width:1.33333;stroke-dasharray:none" />
  <line
     class="arc0"
     id="link130_@0_134"
     x1="33.748089"
     y1="336.74655"
     x2="33.748089"
     y2="254.25401"
     style="stroke-width:1.33333;stroke-dasharray:none" />
  <polygon
     points="711.56036,286.5938 728.5977,264.59814 709.1157,252.60547 607.8846,246.87585 588.4025,256.66315 605.44006,280.58746 623.776,287.07043 693.2243,291.00116 "
     id="face_137_138_110_109_108_30_29_136"
     style="fill:#c0c0c0;stroke:none"
     opacity="1"
     transform="translate(-572.83791,-52.262105)" />
  <line
     class="arc1"
     id="link136_@1_29"
     x1="15.564616"
     y1="204.40105"
     x2="35.046673"
     y2="194.61375"
     style="stroke-width:1.33333;stroke-dasharray:none" />
  <line
     class="arc0"
     id="link136_@0_137"
     x1="15.564616"
     y1="204.40105"
     x2="32.602154"
     y2="228.32536"
     style="stroke-width:1.33333;stroke-dasharray:none" />
  <polygon
     points="705.8303,313.4945 705.8303,393.2645 692.0783,408.82123 624.922,405.02014 611.17004,387.90674 611.17004,308.13678 624.922,292.58014 692.0783,296.38116 "
     id="face_135_139_111_115_119_123_127_131"
     style="fill:#c0c0c0;stroke:none"
     opacity="1"
     transform="translate(-572.83791,-52.262105)" />
  <line
     class="arc1"
     id="link131_@1_127"
     x1="38.332134"
     y1="335.64462"
     x2="52.084087"
     y2="352.75803"
     style="stroke-width:1.33333;stroke-dasharray:none" />
  <line
     class="arc0"
     id="link131_@0_135"
     x1="38.332134"
     y1="335.64462"
     x2="38.332134"
     y2="255.87468"
     style="stroke-width:1.33333;stroke-dasharray:none" />
  <polygon
     points="729.7438,80.43921 729.7438,208.85175 712.5537,228.2976 604.44653,222.17877 587.25653,200.78705 587.25653,72.37451 604.44653,52.928772 712.5537,59.047607 "
     id="face_12_13_14_15_16_17_18_19"
     style="fill:#c0c0c0;stroke:none"
     opacity="1"
     transform="translate(-572.83791,-52.262105)" />
  <line
     class="arc1"
     id="link19_@1_18"
     x1="14.41862"
     y1="148.52495"
     x2="31.608622"
     y2="169.91667"
     style="stroke-width:1.33333;stroke-dasharray:none" />
  <line
     class="arc0"
     id="link19_@0_12"
     x1="14.41862"
     y1="148.52495"
     x2="14.41862"
     y2="20.112406"
     style="stroke-width:1.33333;stroke-dasharray:none" />
  <polygon
     points="729.7438,80.43921 729.7438,208.85175 712.5537,228.2976 604.44653,222.17877 587.25653,200.78705 587.25653,72.37451 604.44653,52.928772 712.5537,59.047607 "
     id="face_20_21_22_23_24_25_26_27"
     style="fill:#c0c0c0;stroke:none"
     opacity="1"
     transform="translate(-572.83791,-52.262105)" />
  <line
     class="arc1"
     id="link27_@1_26"
     x1="14.41862"
     y1="148.52495"
     x2="31.608622"
     y2="169.91667"
     style="stroke-width:1.33333;stroke-dasharray:none" />
  <line
     class="arc0"
     id="link27_@0_20"
     x1="14.41862"
     y1="148.52495"
     x2="14.41862"
     y2="20.112406"
     style="stroke-width:1.33333;stroke-dasharray:none" />
  <polygon
     points="658.50006,330.28192 658.50006,201.86963 658.50006,201.86963 658.50006,330.28192 658.50006,371.11945 658.50006,540.3694 658.50006,581.2069 658.50006,709.6193 658.50006,581.2069 658.50006,540.3694 658.50006,371.11945 "
     id="face_1_4_5_8_9_9_8_5_4_1_0"
     style="fill:#c0c0c0;stroke:none"
     opacity="1"
     transform="translate(-572.83791,-52.262105)" />
  <line
     class="arc2"
     id="link0_@2_2"
     x1="85.662148"
     y1="657.35724"
     x2="85.662148"
     y2="657.35724"
     style="stroke-width:1.33333;stroke-dasharray:none" />
  <line
     class="arc0"
     id="link0_@0_1"
     x1="85.662148"
     y1="657.35724"
     x2="85.662148"
     y2="528.94482"
     style="stroke-width:1.33333;stroke-dasharray:none" />
  <polygon
     points="658.50006,330.28192 658.50006,201.86963 658.50006,201.86963 658.50006,330.28192 658.50006,371.11945 658.50006,540.3694 658.50006,581.2069 658.50006,709.6193 658.50006,581.2069 658.50006,540.3694 658.50006,371.11945 "
     id="face_3_6_7_10_11_11_10_7_6_3_2"
     style="fill:#c0c0c0;stroke:none"
     opacity="1"
     transform="translate(-572.83791,-52.262105)" />
  <line
     class="arc0"
     id="link2_@0_3"
     x1="85.662148"
     y1="657.35724"
     x2="85.662148"
     y2="528.94482"
     style="stroke-width:1.33333;stroke-dasharray:none" />
  <line
     class="arc1"
     id="link133_@1_134"
     x1="29.164103"
     y1="232.21458"
     x2="33.748089"
     y2="254.25401"
     style="stroke-width:1.33333;stroke-dasharray:none" />
  <line
     class="arc2"
     id="link133_@2_137"
     x1="29.164103"
     y1="232.21458"
     x2="32.602154"
     y2="228.32536"
     style="stroke-width:1.33333;stroke-dasharray:none" />
  <line
     class="arc2"
     id="link134_@2_135"
     x1="33.748089"
     y1="254.25401"
     x2="38.332134"
     y2="255.87468"
     style="stroke-width:1.33333;stroke-dasharray:none" />
  <line
     class="arc1"
     id="link137_@1_138"
     x1="32.602154"
     y1="228.32536"
     x2="50.938091"
     y2="234.80833"
     style="stroke-width:1.33333;stroke-dasharray:none" />
  <line
     class="arc2"
     id="link126_@2_127"
     x1="50.938091"
     y1="358.13818"
     x2="52.084087"
     y2="352.75803"
     style="stroke-width:1.33333;stroke-dasharray:none" />
  <line
     class="arc0"
     id="link126_@0_122"
     x1="50.938091"
     y1="358.13818"
     x2="120.38639"
     y2="362.06891"
     style="stroke-width:1.33333;stroke-dasharray:none" />
  <line
     class="arc0"
     id="link127_@0_123"
     x1="52.084087"
     y1="352.75803"
     x2="119.24039"
     y2="356.55911"
     style="stroke-width:1.33333;stroke-dasharray:none" />
  <line
     class="arc1"
     id="link135_@1_139"
     x1="38.332134"
     y1="255.87468"
     x2="52.084087"
     y2="240.31804"
     style="stroke-width:1.33333;stroke-dasharray:none" />
  <line
     class="arc0"
     id="link18_@0_17"
     x1="31.608622"
     y1="169.91667"
     x2="139.71581"
     y2="176.03551"
     style="stroke-width:1.33333;stroke-dasharray:none" />
  <line
     class="arc0"
     id="link26_@0_25"
     x1="31.608622"
     y1="169.91667"
     x2="139.71581"
     y2="176.03551"
     style="stroke-width:1.33333;stroke-dasharray:none" />
  <line
     class="arc0"
     id="link29_@0_30"
     x1="35.046673"
     y1="194.61375"
     x2="136.27782"
     y2="200.34337"
     style="stroke-width:1.33333;stroke-dasharray:none" />
  <line
     class="arc1"
     id="link12_@1_13"
     x1="14.41862"
     y1="20.112406"
     x2="31.608622"
     y2="0.66666669"
     style="stroke-width:1.33333;stroke-dasharray:none" />
  <line
     class="arc1"
     id="link20_@1_21"
     x1="14.41862"
     y1="20.112406"
     x2="31.608622"
     y2="0.66666669"
     style="stroke-width:1.33333;stroke-dasharray:none" />
  <line
     class="arc1"
     id="link1_@1_4"
     x1="85.662148"
     y1="528.94482"
     x2="85.662148"
     y2="488.10727"
     style="stroke-width:1.33333;stroke-dasharray:none" />
  <line
     class="arc2"
     id="link1_@2_3"
     x1="85.662148"
     y1="528.94482"
     x2="85.662148"
     y2="528.94482"
     style="stroke-width:1.33333;stroke-dasharray:none" />
  <line
     class="arc1"
     id="link3_@1_6"
     x1="85.662148"
     y1="528.94482"
     x2="85.662148"
     y2="488.10727"
     style="stroke-width:1.33333;stroke-dasharray:none" />
  <line
     class="arc2"
     id="link138_@2_139"
     x1="50.938091"
     y1="234.80833"
     x2="52.084087"
     y2="240.31804"
     style="stroke-width:1.33333;stroke-dasharray:none" />
  <line
     class="arc0"
     id="link138_@0_110"
     x1="50.938091"
     y1="234.80833"
     x2="120.38639"
     y2="238.73906"
     style="stroke-width:1.33333;stroke-dasharray:none" />
  <line
     class="arc2"
     id="link4_@2_6"
     x1="85.662148"
     y1="488.10727"
     x2="85.662148"
     y2="488.10727"
     style="stroke-width:1.33333;stroke-dasharray:none" />
  <line
     class="arc0"
     id="link4_@0_5"
     x1="85.662148"
     y1="488.10727"
     x2="85.662148"
     y2="318.85733"
     style="stroke-width:1.33333;stroke-dasharray:none" />
  <line
     class="arc0"
     id="link6_@0_7"
     x1="85.662148"
     y1="488.10727"
     x2="85.662148"
     y2="318.85733"
     style="stroke-width:1.33333;stroke-dasharray:none" />
  <line
     class="arc0"
     id="link139_@0_111"
     x1="52.084087"
     y1="240.31804"
     x2="119.24039"
     y2="244.11906"
     style="stroke-width:1.33333;stroke-dasharray:none" />
  <line
     class="arc0"
     id="link13_@0_14"
     x1="31.608622"
     y1="0.66666669"
     x2="139.71581"
     y2="6.785502"
     style="stroke-width:1.33333;stroke-dasharray:none" />
  <line
     class="arc0"
     id="link21_@0_22"
     x1="31.608622"
     y1="0.66666669"
     x2="139.71581"
     y2="6.785502"
     style="stroke-width:1.33333;stroke-dasharray:none" />
  <line
     class="arc1"
     id="link97_@1_96"
     x1="139.71581"
     y1="806.29785"
     x2="156.90587"
     y2="786.85205"
     style="stroke-width:1.33333;stroke-dasharray:none" />
  <line
     class="arc1"
     id="link105_@1_104"
     x1="139.71581"
     y1="806.29785"
     x2="156.90587"
     y2="786.85205"
     style="stroke-width:1.33333;stroke-dasharray:none" />
  <line
     class="arc1"
     id="link5_@1_8"
     x1="85.662148"
     y1="318.85733"
     x2="85.662148"
     y2="278.01981"
     style="stroke-width:1.33333;stroke-dasharray:none" />
  <line
     class="arc2"
     id="link5_@2_7"
     x1="85.662148"
     y1="318.85733"
     x2="85.662148"
     y2="318.85733"
     style="stroke-width:1.33333;stroke-dasharray:none" />
  <line
     class="arc1"
     id="link7_@1_10"
     x1="85.662148"
     y1="318.85733"
     x2="85.662148"
     y2="278.01981"
     style="stroke-width:1.33333;stroke-dasharray:none" />
  <line
     class="arc2"
     id="link8_@2_10"
     x1="85.662148"
     y1="278.01981"
     x2="85.662148"
     y2="278.01981"
     style="stroke-width:1.33333;stroke-dasharray:none" />
  <line
     class="arc0"
     id="link8_@0_9"
     x1="85.662148"
     y1="278.01981"
     x2="85.662148"
     y2="149.60753"
     style="stroke-width:1.33333;stroke-dasharray:none" />
  <line
     class="arc0"
     id="link10_@0_11"
     x1="85.662148"
     y1="278.01981"
     x2="85.662148"
     y2="149.60753"
     style="stroke-width:1.33333;stroke-dasharray:none" />
  <line
     class="arc0"
     id="link96_@0_95"
     x1="156.90587"
     y1="786.85205"
     x2="156.90587"
     y2="658.43958"
     style="stroke-width:1.33333;stroke-dasharray:none" />
  <line
     class="arc0"
     id="link104_@0_103"
     x1="156.90587"
     y1="786.85205"
     x2="156.90587"
     y2="658.43958"
     style="stroke-width:1.33333;stroke-dasharray:none" />
  <line
     class="arc1"
     id="link94_@1_95"
     x1="139.71581"
     y1="637.04791"
     x2="156.90587"
     y2="658.43958"
     style="stroke-width:1.33333;stroke-dasharray:none" />
  <line
     class="arc1"
     id="link102_@1_103"
     x1="139.71581"
     y1="637.04791"
     x2="156.90587"
     y2="658.43958"
     style="stroke-width:1.33333;stroke-dasharray:none" />
  <line
     class="arc1"
     id="link65_@1_64"
     x1="139.71581"
     y1="596.21045"
     x2="156.90587"
     y2="576.76465"
     style="stroke-width:1.33333;stroke-dasharray:none" />
  <line
     class="arc1"
     id="link73_@1_72"
     x1="139.71581"
     y1="596.21045"
     x2="156.90587"
     y2="576.76465"
     style="stroke-width:1.33333;stroke-dasharray:none" />
  <line
     class="arc1"
     id="link81_@1_80"
     x1="139.71581"
     y1="596.21045"
     x2="156.90587"
     y2="576.76465"
     style="stroke-width:1.33333;stroke-dasharray:none" />
  <line
     class="arc1"
     id="link89_@1_88"
     x1="139.71581"
     y1="596.21045"
     x2="156.90587"
     y2="576.76465"
     style="stroke-width:1.33333;stroke-dasharray:none" />
  <line
     class="arc2"
     id="link9_@2_11"
     x1="85.662148"
     y1="149.60753"
     x2="85.662148"
     y2="149.60753"
     style="stroke-width:1.33333;stroke-dasharray:none" />
  <line
     class="arc1"
     id="link122_@1_121"
     x1="120.38639"
     y1="362.06891"
     x2="138.72246"
     y2="368.55164"
     style="stroke-width:1.33333;stroke-dasharray:none" />
  <line
     class="arc2"
     id="link122_@2_123"
     x1="120.38639"
     y1="362.06891"
     x2="119.24039"
     y2="356.55911"
     style="stroke-width:1.33333;stroke-dasharray:none" />
  <line
     class="arc1"
     id="link123_@1_119"
     x1="119.24039"
     y1="356.55911"
     x2="132.99242"
     y2="341.00238"
     style="stroke-width:1.33333;stroke-dasharray:none" />
  <line
     class="arc0"
     id="link64_@0_63"
     x1="156.90587"
     y1="576.76465"
     x2="156.90587"
     y2="448.35214"
     style="stroke-width:1.33333;stroke-dasharray:none" />
  <line
     class="arc0"
     id="link72_@0_71"
     x1="156.90587"
     y1="576.76465"
     x2="156.90587"
     y2="448.35214"
     style="stroke-width:1.33333;stroke-dasharray:none" />
  <line
     class="arc0"
     id="link80_@0_79"
     x1="156.90587"
     y1="576.76465"
     x2="156.90587"
     y2="448.35214"
     style="stroke-width:1.33333;stroke-dasharray:none" />
  <line
     class="arc0"
     id="link88_@0_87"
     x1="156.90587"
     y1="576.76465"
     x2="156.90587"
     y2="448.35214"
     style="stroke-width:1.33333;stroke-dasharray:none" />
  <line
     class="arc1"
     id="link33_@1_120"
     x1="136.27782"
     y1="402.26331"
     x2="155.75981"
     y2="392.47607"
     style="stroke-width:1.33333;stroke-dasharray:none" />
  <line
     class="arc1"
     id="link62_@1_63"
     x1="139.71581"
     y1="426.96039"
     x2="156.90587"
     y2="448.35214"
     style="stroke-width:1.33333;stroke-dasharray:none" />
  <line
     class="arc1"
     id="link70_@1_71"
     x1="139.71581"
     y1="426.96039"
     x2="156.90587"
     y2="448.35214"
     style="stroke-width:1.33333;stroke-dasharray:none" />
  <line
     class="arc1"
     id="link78_@1_79"
     x1="139.71581"
     y1="426.96039"
     x2="156.90587"
     y2="448.35214"
     style="stroke-width:1.33333;stroke-dasharray:none" />
  <line
     class="arc1"
     id="link86_@1_87"
     x1="139.71581"
     y1="426.96039"
     x2="156.90587"
     y2="448.35214"
     style="stroke-width:1.33333;stroke-dasharray:none" />
  <line
     class="arc1"
     id="link111_@1_115"
     x1="119.24039"
     y1="244.11906"
     x2="132.99242"
     y2="261.23239"
     style="stroke-width:1.33333;stroke-dasharray:none" />
  <line
     class="arc2"
     id="link111_@2_110"
     x1="119.24039"
     y1="244.11906"
     x2="120.38639"
     y2="238.73906"
     style="stroke-width:1.33333;stroke-dasharray:none" />
  <line
     class="arc2"
     id="link119_@2_118"
     x1="132.99242"
     y1="341.00238"
     x2="137.57634"
     y2="342.62314"
     style="stroke-width:1.33333;stroke-dasharray:none" />
  <line
     class="arc0"
     id="link119_@0_115"
     x1="132.99242"
     y1="341.00238"
     x2="132.99242"
     y2="261.23239"
     style="stroke-width:1.33333;stroke-dasharray:none" />
  <line
     class="arc1"
     id="link110_@1_109"
     x1="120.38639"
     y1="238.73906"
     x2="138.72246"
     y2="234.33171"
     style="stroke-width:1.33333;stroke-dasharray:none" />
  <line
     class="arc2"
     id="link121_@2_117"
     x1="138.72246"
     y1="368.55164"
     x2="142.16039"
     y2="364.66254"
     style="stroke-width:1.33333;stroke-dasharray:none" />
  <line
     class="arc0"
     id="link121_@0_120"
     x1="138.72246"
     y1="368.55164"
     x2="155.75981"
     y2="392.47607"
     style="stroke-width:1.33333;stroke-dasharray:none" />
  <polygon
     points="743.4958,295.38898 743.4958,415.63394 734.3277,438.25626 714.9983,416.92465 710.41425,394.88525 710.41425,312.39276 714.9983,290.8723 734.3277,271.72876 "
     id="face_114_113_112_31_32_116_117_118"
     style="fill:#c0c0c0;stroke:none"
     opacity="1"
     transform="translate(-572.83791,-52.262105)" />
  <line
     class="arc1"
     id="link118_@1_117"
     x1="137.57634"
     y1="342.62314"
     x2="142.16039"
     y2="364.66254"
     style="stroke-width:1.33333;stroke-dasharray:none" />
  <line
     class="arc0"
     id="link118_@0_114"
     x1="137.57634"
     y1="342.62314"
     x2="137.57634"
     y2="260.13065"
     style="stroke-width:1.33333;stroke-dasharray:none" />
  <line
     class="arc0"
     id="link117_@0_116"
     x1="142.16039"
     y1="364.66254"
     x2="161.48979"
     y2="385.99414"
     style="stroke-width:1.33333;stroke-dasharray:none" />
  <line
     class="arc2"
     id="link115_@2_114"
     x1="132.99242"
     y1="261.23239"
     x2="137.57634"
     y2="260.13065"
     style="stroke-width:1.33333;stroke-dasharray:none" />
  <line
     class="arc1"
     id="link114_@1_113"
     x1="137.57634"
     y1="260.13065"
     x2="142.16039"
     y2="238.61021"
     style="stroke-width:1.33333;stroke-dasharray:none" />
  <line
     class="arc2"
     id="link120_@2_116"
     x1="155.75981"
     y1="392.47607"
     x2="161.48979"
     y2="385.99414"
     style="stroke-width:1.33333;stroke-dasharray:none" />
  <line
     class="arc2"
     id="link109_@2_113"
     x1="138.72246"
     y1="234.33171"
     x2="142.16039"
     y2="238.61021"
     style="stroke-width:1.33333;stroke-dasharray:none" />
  <line
     class="arc0"
     id="link109_@0_108"
     x1="138.72246"
     y1="234.33171"
     x2="155.75981"
     y2="212.33604"
     style="stroke-width:1.33333;stroke-dasharray:none" />
  <line
     class="arc1"
     id="link30_@1_108"
     x1="136.27782"
     y1="200.34337"
     x2="155.75981"
     y2="212.33604"
     style="stroke-width:1.33333;stroke-dasharray:none" />
  <line
     class="arc0"
     id="link113_@0_112"
     x1="142.16039"
     y1="238.61021"
     x2="161.48979"
     y2="219.46666"
     style="stroke-width:1.33333;stroke-dasharray:none" />
  <line
     class="arc1"
     id="link116_@1_32"
     x1="161.48979"
     y1="385.99414"
     x2="170.65788"
     y2="363.37183"
     style="stroke-width:1.33333;stroke-dasharray:none" />
  <line
     class="arc1"
     id="link17_@1_16"
     x1="139.71581"
     y1="176.03551"
     x2="156.90587"
     y2="156.58965"
     style="stroke-width:1.33333;stroke-dasharray:none" />
  <line
     class="arc1"
     id="link25_@1_24"
     x1="139.71581"
     y1="176.03551"
     x2="156.90587"
     y2="156.58965"
     style="stroke-width:1.33333;stroke-dasharray:none" />
  <line
     class="arc0"
     id="link32_@0_31"
     x1="170.65788"
     y1="363.37183"
     x2="170.65788"
     y2="243.12688"
     style="stroke-width:1.33333;stroke-dasharray:none" />
  <line
     class="arc2"
     id="link108_@2_112"
     x1="155.75981"
     y1="212.33604"
     x2="161.48979"
     y2="219.46666"
     style="stroke-width:1.33333;stroke-dasharray:none" />
  <line
     class="arc1"
     id="link112_@1_31"
     x1="161.48979"
     y1="219.46666"
     x2="170.65788"
     y2="243.12688"
     style="stroke-width:1.33333;stroke-dasharray:none" />
  <line
     class="arc0"
     id="link16_@0_15"
     x1="156.90587"
     y1="156.58965"
     x2="156.90587"
     y2="28.177103"
     style="stroke-width:1.33333;stroke-dasharray:none" />
  <line
     class="arc0"
     id="link24_@0_23"
     x1="156.90587"
     y1="156.58965"
     x2="156.90587"
     y2="28.177103"
     style="stroke-width:1.33333;stroke-dasharray:none" />
  <line
     class="arc1"
     id="link14_@1_15"
     x1="139.71581"
     y1="6.785502"
     x2="156.90587"
     y2="28.177103"
     style="stroke-width:1.33333;stroke-dasharray:none" />
  <line
     class="arc1"
     id="link22_@1_23"
     x1="139.71581"
     y1="6.785502"
     x2="156.90587"
     y2="28.177103"
     style="stroke-width:1.33333;stroke-dasharray:none" />
</svg>
