<?xml version="1.0" encoding="UTF-8" standalone="no"?>
<!-- Created with Jerboa -->

<svg
   width="1257.7139"
   height="434.64679"
   version="1.1"
   id="svg1"
   sodipodi:docname="exemple-contrainte-regles-resultat-gauthier.svg"
   inkscape:version="1.4 (e7c3feb100, 2024-10-09)"
   xmlns:inkscape="http://www.inkscape.org/namespaces/inkscape"
   xmlns:sodipodi="http://sodipodi.sourceforge.net/DTD/sodipodi-0.dtd"
   xmlns="http://www.w3.org/2000/svg"
   xmlns:svg="http://www.w3.org/2000/svg">
  <defs
     id="defs1" />
  <sodipodi:namedview
     id="namedview1"
     pagecolor="#ffffff"
     bordercolor="#666666"
     borderopacity="1.0"
     inkscape:showpageshadow="2"
     inkscape:pageopacity="0.0"
     inkscape:pagecheckerboard="0"
     inkscape:deskcolor="#d1d1d1"
     showgrid="false"
     inkscape:zoom="0.40308778"
     inkscape:cx="352.28059"
     inkscape:cy="260.48917"
     inkscape:window-width="1892"
     inkscape:window-height="1035"
     inkscape:window-x="9"
     inkscape:window-y="26"
     inkscape:window-maximized="1"
     inkscape:current-layer="svg1" />
  <style
     id="style">
		.arc0 {
			fill:none;
			fill-rule:evenodd;
			stroke:black;
			stroke-width:4;
			stroke-linecap:round;
			stroke-linejoin:round;
			stroke-opacity:1;
		}
		.arc1 {
			fill:none;
			fill-rule:evenodd;
			stroke:red;
			stroke-width:4;
			stroke-linecap:round;
			stroke-linejoin:round;
			stroke-opacity:1;
		}
		.arc2 {
			fill:none;
			fill-rule:evenodd;
			stroke:blue;
			stroke-width:4;
			stroke-linecap:round;
			stroke-linejoin:round;
			stroke-opacity:1;
		}
		.arc3 {
			fill:none;
			fill-rule:evenodd;
			stroke:green;
			stroke-width:4;
			stroke-linecap:round;
			stroke-linejoin:round;
			stroke-opacity:1;
		}
		.topological-dart {
			fill:#000000;
			stroke:#000000;
			stroke-width:0;
			stroke-linecap:round;
			stroke-linejoin:round;
			stroke-dasharray:none;
			paint-order:markers fill stroke;
		}
	</style>
  <polygon
     points="420.11758,553.3634 286.3194,545.7905 224.08331,468.34232 224.08331,309.4134 286.3194,239.01044 420.11758,246.58337 482.35358,324.03137 482.35358,482.9603 "
     id="face_30_31_26_25_24_23_28_29"
     style="fill:#c0c0c0;stroke:none"
     opacity="1"
     transform="translate(-20.143112,-214.1767)" />
  <line
     class="arc1"
     id="link29_@1_28"
     x1="203.94019"
     y1="254.16565"
     x2="266.17627"
     y2="331.61389" />
  <line
     class="arc2"
     id="link29_@2_34"
     x1="203.94019"
     y1="254.16565"
     x2="169.72266"
     y2="254.79956" />
  <line
     class="arc0"
     id="link29_@0_30"
     x1="203.94019"
     y1="254.16565"
     x2="203.94019"
     y2="95.236694" />
  <polygon
     points="62.55967,559.98737 149.44919,548.3261 189.86578,468.9762 189.86578,310.0473 149.44919,241.54602 62.55967,253.20728 22.143122,332.55707 22.143122,491.48596 "
     id="face_35_36_41_40_39_38_33_34"
     style="fill:#c0c0c0;stroke:none"
     opacity="1"
     transform="translate(-20.143112,-214.1767)" />
  <line
     class="arc1"
     id="link34_@1_33"
     x1="169.72266"
     y1="254.79956"
     x2="129.30603"
     y2="334.14941" />
  <line
     class="arc0"
     id="link34_@0_35"
     x1="169.72266"
     y1="254.79956"
     x2="169.72266"
     y2="95.870605" />
  <line
     class="arc1"
     id="link30_@1_31"
     x1="203.94019"
     y1="95.236694"
     x2="266.17627"
     y2="24.83374" />
  <line
     class="arc2"
     id="link30_@2_35"
     x1="203.94019"
     y1="95.236694"
     x2="169.72266"
     y2="95.870605" />
  <line
     class="arc2"
     id="link36_@2_37"
     x1="129.30603"
     y1="27.369385"
     x2="150.05139"
     y2="3.9016113" />
  <line
     class="arc1"
     id="link35_@1_36"
     x1="169.72266"
     y1="95.870605"
     x2="129.30603"
     y2="27.369385" />
  <line
     class="arc2"
     id="link28_@2_0"
     x1="266.17627"
     y1="331.61389"
     x2="252.70404"
     y2="358.06378" />
  <line
     class="arc0"
     id="link28_@0_23"
     x1="266.17627"
     y1="331.61389"
     x2="399.97449"
     y2="339.18671" />
  <polygon
     points="83.305046,585.8034 170.19456,574.1421 272.8472,572.2405 406.6454,579.81335 428.46484,588.76013 341.57532,600.4214 238.92273,602.3231 105.12458,594.7502 "
     id="face_7_6_5_4_3_2_1_0"
     style="fill:#c0c0c0;stroke:none"
     opacity="1"
     transform="translate(-20.143112,-214.1767)" />
  <line
     class="arc1"
     id="link0_@1_1"
     x1="252.70404"
     y1="358.06378"
     x2="150.05139"
     y2="359.96539" />
  <line
     class="arc0"
     id="link0_@0_7"
     x1="252.70404"
     y1="358.06378"
     x2="386.50232"
     y2="365.63666" />
  <line
     class="arc2"
     id="link31_@2_32"
     x1="266.17627"
     y1="24.83374"
     x2="252.70404"
     y2="2" />
  <line
     class="arc0"
     id="link31_@0_26"
     x1="266.17627"
     y1="24.83374"
     x2="399.97449"
     y2="32.406738" />
  <line
     class="arc2"
     id="link33_@2_1"
     x1="129.30603"
     y1="334.14941"
     x2="150.05139"
     y2="359.96539" />
  <line
     class="arc0"
     id="link33_@0_38"
     x1="129.30603"
     y1="334.14941"
     x2="42.416504"
     y2="345.81067" />
  <line
     class="arc0"
     id="link1_@0_2"
     x1="150.05139"
     y1="359.96539"
     x2="63.161865"
     y2="371.62671" />
  <line
     class="arc2"
     id="link26_@2_27"
     x1="399.97449"
     y1="32.406738"
     x2="386.50232"
     y2="9.572876" />
  <polygon
     points="83.305046,229.73962 170.19456,218.07831 272.8472,216.17664 406.6454,223.74957 428.46484,232.69629 341.57532,244.3576 238.92273,246.25928 105.12458,238.68634 "
     id="face_27_22_17_12_47_42_37_32"
     style="fill:#c0c0c0;stroke:none"
     opacity="1"
     transform="translate(-20.143112,-214.1767)" />
  <line
     class="arc1"
     id="link32_@1_37"
     x1="252.70404"
     y1="2"
     x2="150.05139"
     y2="3.9016113" />
  <line
     class="arc0"
     id="link32_@0_27"
     x1="252.70404"
     y1="2"
     x2="386.50232"
     y2="9.572876" />
  <line
     class="arc0"
     id="link36_@0_41"
     x1="129.30603"
     y1="27.369385"
     x2="42.416504"
     y2="39.03064" />
  <line
     class="arc0"
     id="link37_@0_42"
     x1="150.05139"
     y1="3.9016113"
     x2="63.161865"
     y2="15.562988" />
  <line
     class="arc1"
     id="link23_@1_24"
     x1="399.97449"
     y1="339.18671"
     x2="462.21045"
     y2="268.78363" />
  <line
     class="arc2"
     id="link23_@2_7"
     x1="399.97449"
     y1="339.18671"
     x2="386.50232"
     y2="365.63666" />
  <line
     class="arc1"
     id="link7_@1_6"
     x1="386.50232"
     y1="365.63666"
     x2="408.32178"
     y2="374.58344" />
  <line
     class="arc1"
     id="link26_@1_25"
     x1="399.97449"
     y1="32.406738"
     x2="462.21045"
     y2="109.85474" />
  <line
     class="arc2"
     id="link24_@2_19"
     x1="462.21045"
     y1="268.78363"
     x2="469.48364"
     y2="271.76587" />
  <line
     class="arc0"
     id="link24_@0_25"
     x1="462.21045"
     y1="268.78363"
     x2="462.21045"
     y2="109.85474" />
  <line
     class="arc1"
     id="link27_@1_22"
     x1="386.50232"
     y1="9.572876"
     x2="408.32178"
     y2="18.519653" />
  <line
     class="arc2"
     id="link25_@2_20"
     x1="462.21045"
     y1="109.85474"
     x2="469.48364"
     y2="112.83698" />
  <line
     class="arc1"
     id="link38_@1_39"
     x1="42.416504"
     y1="345.81067"
     x2="2"
     y2="277.30933" />
  <line
     class="arc2"
     id="link38_@2_2"
     x1="42.416504"
     y1="345.81067"
     x2="63.161865"
     y2="371.62671" />
  <polygon
     points="362.32062,576.95374 449.21014,565.2925 489.62674,485.94257 489.62674,327.0136 449.21014,258.51233 362.32062,270.17358 321.9041,349.52344 321.9041,508.4523 "
     id="face_20_21_16_15_14_13_18_19"
     style="fill:#c0c0c0;stroke:none"
     opacity="1"
     transform="translate(-20.143112,-214.1767)" />
  <line
     class="arc1"
     id="link19_@1_18"
     x1="469.48364"
     y1="271.76587"
     x2="429.06702"
     y2="351.11578" />
  <line
     class="arc0"
     id="link19_@0_20"
     x1="469.48364"
     y1="271.76587"
     x2="469.48364"
     y2="112.83698" />
  <line
     class="arc1"
     id="link2_@1_3"
     x1="63.161865"
     y1="371.62671"
     x2="84.981445"
     y2="380.57349" />
  <line
     class="arc1"
     id="link20_@1_21"
     x1="469.48364"
     y1="112.83698"
     x2="429.06702"
     y2="44.335693" />
  <line
     class="arc1"
     id="link41_@1_40"
     x1="42.416504"
     y1="39.03064"
     x2="2"
     y2="118.38037" />
  <line
     class="arc2"
     id="link41_@2_42"
     x1="42.416504"
     y1="39.03064"
     x2="63.161865"
     y2="15.562988" />
  <line
     class="arc1"
     id="link42_@1_47"
     x1="63.161865"
     y1="15.562988"
     x2="84.981445"
     y2="24.509644" />
  <line
     class="arc2"
     id="link6_@2_18"
     x1="408.32178"
     y1="374.58344"
     x2="429.06702"
     y2="351.11578" />
  <line
     class="arc0"
     id="link6_@0_5"
     x1="408.32178"
     y1="374.58344"
     x2="321.43225"
     y2="386.24469" />
  <polygon
     points="813.2326,575.6136 679.4345,568.04065 617.19836,490.59247 617.19836,331.66357 679.4345,261.26056 813.2326,268.83344 875.4688,346.28156 875.4688,505.21048 "
     id="face_85_86_87_88_82_81_80_79"
     style="fill:#ffc000;stroke:none"
     opacity="1"
     transform="translate(-20.143112,-214.1767)" />
  <line
     class="arc1"
     id="link79_@1_80"
     x1="597.0553"
     y1="276.41577"
     x2="659.29138"
     y2="353.86395" />
  <line
     class="arc2"
     id="link79_@2_78"
     x1="597.0553"
     y1="276.41577"
     x2="562.83765"
     y2="277.04968" />
  <line
     class="arc0"
     id="link79_@0_85"
     x1="597.0553"
     y1="276.41577"
     x2="597.0553"
     y2="117.48694" />
  <line
     class="arc0"
     id="link18_@0_13"
     x1="429.06702"
     y1="351.11578"
     x2="342.17749"
     y2="362.77704" />
  <polygon
     points="455.67468,582.23755 542.5642,570.57623 582.9808,491.22638 582.9808,332.2975 542.5642,263.79614 455.67468,275.45746 415.25818,354.80722 415.25818,513.7361 "
     id="face_84_90_48_54_60_66_72_78"
     style="fill:#ffc000;stroke:none"
     opacity="1"
     transform="translate(-20.143112,-214.1767)" />
  <line
     class="arc1"
     id="link78_@1_72"
     x1="562.83765"
     y1="277.04968"
     x2="522.42114"
     y2="356.39954" />
  <line
     class="arc0"
     id="link78_@0_84"
     x1="562.83765"
     y1="277.04968"
     x2="562.83765"
     y2="118.12085" />
  <line
     class="arc2"
     id="link39_@2_44"
     x1="2"
     y1="277.30933"
     x2="9.2731934"
     y2="280.2915" />
  <line
     class="arc0"
     id="link39_@0_40"
     x1="2"
     y1="277.30933"
     x2="2"
     y2="118.38037" />
  <line
     class="arc1"
     id="link85_@1_86"
     x1="597.0553"
     y1="117.48694"
     x2="659.29138"
     y2="47.083862" />
  <line
     class="arc2"
     id="link85_@2_84"
     x1="597.0553"
     y1="117.48694"
     x2="562.83765"
     y2="118.12085" />
  <line
     class="arc2"
     id="link22_@2_21"
     x1="408.32178"
     y1="18.519653"
     x2="429.06702"
     y2="44.335693" />
  <line
     class="arc0"
     id="link22_@0_17"
     x1="408.32178"
     y1="18.519653"
     x2="321.43225"
     y2="30.180908" />
  <line
     class="arc1"
     id="link84_@1_90"
     x1="562.83765"
     y1="118.12085"
     x2="522.42114"
     y2="49.619507" />
  <line
     class="arc2"
     id="link40_@2_45"
     x1="2"
     y1="118.38037"
     x2="9.2731934"
     y2="121.36267" />
  <line
     class="arc2"
     id="link90_@2_91"
     x1="522.42114"
     y1="49.619507"
     x2="543.1665"
     y2="26.151855" />
  <line
     class="arc0"
     id="link21_@0_16"
     x1="429.06702"
     y1="44.335693"
     x2="342.17749"
     y2="55.996948" />
  <line
     class="arc2"
     id="link80_@2_74"
     x1="659.29138"
     y1="353.86395"
     x2="645.81921"
     y2="380.3139" />
  <line
     class="arc0"
     id="link80_@0_81"
     x1="659.29138"
     y1="353.86395"
     x2="793.08948"
     y2="361.43689" />
  <polygon
     points="225.45058,579.48926 91.65238,571.9164 29.4163,494.4682 29.4163,335.5393 91.65238,265.1363 225.45058,272.70923 287.68658,350.1573 287.68658,509.0862 "
     id="face_45_46_11_10_9_8_43_44"
     style="fill:#c0c0c0;stroke:none"
     opacity="1"
     transform="translate(-20.143112,-214.1767)" />
  <line
     class="arc1"
     id="link44_@1_43"
     x1="9.2731934"
     y1="280.2915"
     x2="71.509277"
     y2="357.73969" />
  <line
     class="arc0"
     id="link44_@0_45"
     x1="9.2731934"
     y1="280.2915"
     x2="9.2731934"
     y2="121.36267" />
  <polygon
     points="476.42004,608.0536 563.3096,596.39233 665.9623,594.4906 799.76044,602.06354 821.58,611.01025 734.6905,622.6716 632.0378,624.57324 498.2397,617.00037 "
     id="face_75_76_70_69_68_67_73_74"
     style="fill:#ffc000;stroke:none"
     opacity="1"
     transform="translate(-20.143112,-214.1767)" />
  <line
     class="arc1"
     id="link74_@1_73"
     x1="645.81921"
     y1="380.3139"
     x2="543.1665"
     y2="382.21564" />
  <line
     class="arc0"
     id="link74_@0_75"
     x1="645.81921"
     y1="380.3139"
     x2="779.61731"
     y2="387.88684" />
  <line
     class="arc2"
     id="link3_@2_43"
     x1="84.981445"
     y1="380.57349"
     x2="71.509277"
     y2="357.73969" />
  <line
     class="arc0"
     id="link3_@0_4"
     x1="84.981445"
     y1="380.57349"
     x2="218.77954"
     y2="388.14642" />
  <line
     class="arc1"
     id="link45_@1_46"
     x1="9.2731934"
     y1="121.36267"
     x2="71.509277"
     y2="50.959595" />
  <line
     class="arc2"
     id="link86_@2_92"
     x1="659.29138"
     y1="47.083862"
     x2="645.81921"
     y2="24.250122" />
  <line
     class="arc0"
     id="link86_@0_87"
     x1="659.29138"
     y1="47.083862"
     x2="793.08948"
     y2="54.656738" />
  <line
     class="arc2"
     id="link72_@2_73"
     x1="522.42114"
     y1="356.39954"
     x2="543.1665"
     y2="382.21564" />
  <line
     class="arc0"
     id="link72_@0_66"
     x1="522.42114"
     y1="356.39954"
     x2="435.53162"
     y2="368.06085" />
  <line
     class="arc0"
     id="link73_@0_67"
     x1="543.1665"
     y1="382.21564"
     x2="456.27698"
     y2="393.87689" />
  <line
     class="arc0"
     id="link43_@0_8"
     x1="71.509277"
     y1="357.73969"
     x2="205.3075"
     y2="365.31256" />
  <line
     class="arc2"
     id="link87_@2_93"
     x1="793.08948"
     y1="54.656738"
     x2="779.61731"
     y2="31.822998" />
  <polygon
     points="476.42004,251.98975 563.3096,240.32849 665.9623,238.42676 799.76044,245.9997 821.58,254.94647 734.6905,266.60773 632.0378,268.50946 498.2397,260.93652 "
     id="face_93_94_52_51_50_49_91_92"
     style="fill:#ffc000;stroke:none"
     opacity="1"
     transform="translate(-20.143112,-214.1767)" />
  <line
     class="arc1"
     id="link92_@1_91"
     x1="645.81921"
     y1="24.250122"
     x2="543.1665"
     y2="26.151855" />
  <line
     class="arc0"
     id="link92_@0_93"
     x1="645.81921"
     y1="24.250122"
     x2="779.61731"
     y2="31.822998" />
  <line
     class="arc2"
     id="link47_@2_46"
     x1="84.981445"
     y1="24.509644"
     x2="71.509277"
     y2="50.959595" />
  <line
     class="arc0"
     id="link47_@0_12"
     x1="84.981445"
     y1="24.509644"
     x2="218.77954"
     y2="32.082642" />
  <line
     class="arc0"
     id="link90_@0_48"
     x1="522.42114"
     y1="49.619507"
     x2="435.53162"
     y2="61.280762" />
  <line
     class="arc0"
     id="link46_@0_11"
     x1="71.509277"
     y1="50.959595"
     x2="205.3075"
     y2="58.532593" />
  <line
     class="arc0"
     id="link91_@0_49"
     x1="543.1665"
     y1="26.151855"
     x2="456.27698"
     y2="37.81311" />
  <line
     class="arc1"
     id="link5_@1_4"
     x1="321.43225"
     y1="386.24469"
     x2="218.77954"
     y2="388.14642" />
  <line
     class="arc2"
     id="link5_@2_13"
     x1="321.43225"
     y1="386.24469"
     x2="342.17749"
     y2="362.77704" />
  <line
     class="arc1"
     id="link81_@1_82"
     x1="793.08948"
     y1="361.43689"
     x2="855.32568"
     y2="291.03381" />
  <line
     class="arc2"
     id="link81_@2_75"
     x1="793.08948"
     y1="361.43689"
     x2="779.61731"
     y2="387.88684" />
  <line
     class="arc1"
     id="link13_@1_14"
     x1="342.17749"
     y1="362.77704"
     x2="301.76099"
     y2="294.27563" />
  <line
     class="arc1"
     id="link75_@1_76"
     x1="779.61731"
     y1="387.88684"
     x2="801.43689"
     y2="396.83356" />
  <line
     class="arc2"
     id="link4_@2_8"
     x1="218.77954"
     y1="388.14642"
     x2="205.3075"
     y2="365.31256" />
  <line
     class="arc1"
     id="link87_@1_88"
     x1="793.08948"
     y1="54.656738"
     x2="855.32568"
     y2="132.10486" />
  <line
     class="arc1"
     id="link17_@1_12"
     x1="321.43225"
     y1="30.180908"
     x2="218.77954"
     y2="32.082642" />
  <line
     class="arc2"
     id="link17_@2_16"
     x1="321.43225"
     y1="30.180908"
     x2="342.17749"
     y2="55.996948" />
  <line
     class="arc1"
     id="link16_@1_15"
     x1="342.17749"
     y1="55.996948"
     x2="301.76099"
     y2="135.3468" />
  <line
     class="arc1"
     id="link8_@1_9"
     x1="205.3075"
     y1="365.31256"
     x2="267.54346"
     y2="294.90955" />
  <line
     class="arc2"
     id="link82_@2_83"
     x1="855.32568"
     y1="291.03381"
     x2="862.59869"
     y2="294.01605" />
  <line
     class="arc0"
     id="link82_@0_88"
     x1="855.32568"
     y1="291.03381"
     x2="855.32568"
     y2="132.10486" />
  <line
     class="arc1"
     id="link93_@1_94"
     x1="779.61731"
     y1="31.822998"
     x2="801.43689"
     y2="40.769775" />
  <line
     class="arc2"
     id="link12_@2_11"
     x1="218.77954"
     y1="32.082642"
     x2="205.3075"
     y2="58.532593" />
  <line
     class="arc2"
     id="link88_@2_89"
     x1="855.32568"
     y1="132.10486"
     x2="862.59869"
     y2="135.08716" />
  <line
     class="arc1"
     id="link11_@1_10"
     x1="205.3075"
     y1="58.532593"
     x2="267.54346"
     y2="135.98059" />
  <line
     class="arc1"
     id="link66_@1_60"
     x1="435.53162"
     y1="368.06085"
     x2="395.11511"
     y2="299.55945" />
  <line
     class="arc2"
     id="link66_@2_67"
     x1="435.53162"
     y1="368.06085"
     x2="456.27698"
     y2="393.87689" />
  <polygon
     points="755.4357,599.20386 842.32526,587.5426 882.7418,508.19272 882.7418,349.2638 842.32526,280.76245 755.4357,292.42377 715.0191,371.7736 715.0191,530.70245 "
     id="face_89_95_53_59_65_71_77_83"
     style="fill:#ffc000;stroke:none"
     opacity="1"
     transform="translate(-20.143112,-214.1767)" />
  <line
     class="arc1"
     id="link83_@1_77"
     x1="862.59869"
     y1="294.01605"
     x2="822.18213"
     y2="373.36591" />
  <line
     class="arc0"
     id="link83_@0_89"
     x1="862.59869"
     y1="294.01605"
     x2="862.59869"
     y2="135.08716" />
  <line
     class="arc2"
     id="link14_@2_9"
     x1="301.76099"
     y1="294.27563"
     x2="267.54346"
     y2="294.90955" />
  <line
     class="arc0"
     id="link14_@0_15"
     x1="301.76099"
     y1="294.27563"
     x2="301.76099"
     y2="135.3468" />
  <line
     class="arc1"
     id="link67_@1_68"
     x1="456.27698"
     y1="393.87689"
     x2="478.09656"
     y2="402.82367" />
  <line
     class="arc0"
     id="link9_@0_10"
     x1="267.54346"
     y1="294.90955"
     x2="267.54346"
     y2="135.98059" />
  <line
     class="arc1"
     id="link89_@1_95"
     x1="862.59869"
     y1="135.08716"
     x2="822.18213"
     y2="66.585815" />
  <line
     class="arc2"
     id="link15_@2_10"
     x1="301.76099"
     y1="135.3468"
     x2="267.54346"
     y2="135.98059" />
  <line
     class="arc1"
     id="link48_@1_54"
     x1="435.53162"
     y1="61.280762"
     x2="395.11511"
     y2="140.63055" />
  <line
     class="arc2"
     id="link48_@2_49"
     x1="435.53162"
     y1="61.280762"
     x2="456.27698"
     y2="37.81311" />
  <line
     class="arc1"
     id="link49_@1_50"
     x1="456.27698"
     y1="37.81311"
     x2="478.09656"
     y2="46.759888" />
  <line
     class="arc2"
     id="link76_@2_77"
     x1="801.43689"
     y1="396.83356"
     x2="822.18213"
     y2="373.36591" />
  <line
     class="arc0"
     id="link76_@0_70"
     x1="801.43689"
     y1="396.83356"
     x2="714.54736"
     y2="408.49487" />
  <polygon
     points="1206.3477,597.8638 1072.5496,590.2908 1010.3134,512.8426 1010.3134,353.91373 1072.5496,283.51068 1206.3477,291.08356 1268.5839,368.5317 1268.5839,527.46063 "
     id="face_133_134_135_136_130_129_128_127"
     style="fill:#c0c0c0;stroke:none"
     opacity="1"
     transform="translate(-20.143112,-214.1767)" />
  <line
     class="arc1"
     id="link127_@1_128"
     x1="990.17029"
     y1="298.66589"
     x2="1052.4065"
     y2="376.11407" />
  <line
     class="arc2"
     id="link127_@2_126"
     x1="990.17029"
     y1="298.66589"
     x2="955.95276"
     y2="299.2998" />
  <line
     class="arc0"
     id="link127_@0_133"
     x1="990.17029"
     y1="298.66589"
     x2="990.17029"
     y2="139.73706" />
  <line
     class="arc0"
     id="link77_@0_71"
     x1="822.18213"
     y1="373.36591"
     x2="735.2926"
     y2="385.02716" />
  <polygon
     points="848.7897,604.4877 935.6792,592.8264 976.0958,513.4765 976.0958,354.5476 935.6792,286.04626 848.7897,297.70758 808.3731,377.05737 808.3731,535.98627 "
     id="face_132_138_96_102_108_114_120_126"
     style="fill:#c0c0c0;stroke:none"
     opacity="1"
     transform="translate(-20.143112,-214.1767)" />
  <line
     class="arc1"
     id="link126_@1_120"
     x1="955.95276"
     y1="299.2998"
     x2="915.53607"
     y2="378.64972" />
  <line
     class="arc0"
     id="link126_@0_132"
     x1="955.95276"
     y1="299.2998"
     x2="955.95276"
     y2="140.37097" />
  <line
     class="arc2"
     id="link60_@2_61"
     x1="395.11511"
     y1="299.55945"
     x2="402.38818"
     y2="302.54175" />
  <line
     class="arc0"
     id="link60_@0_54"
     x1="395.11511"
     y1="299.55945"
     x2="395.11511"
     y2="140.63055" />
  <line
     class="arc1"
     id="link133_@1_134"
     x1="990.17029"
     y1="139.73706"
     x2="1052.4065"
     y2="69.333984" />
  <line
     class="arc2"
     id="link133_@2_132"
     x1="990.17029"
     y1="139.73706"
     x2="955.95276"
     y2="140.37097" />
  <line
     class="arc2"
     id="link94_@2_95"
     x1="801.43689"
     y1="40.769775"
     x2="822.18213"
     y2="66.585815" />
  <line
     class="arc0"
     id="link94_@0_52"
     x1="801.43689"
     y1="40.769775"
     x2="714.54736"
     y2="52.43103" />
  <line
     class="arc1"
     id="link132_@1_138"
     x1="955.95276"
     y1="140.37097"
     x2="915.53607"
     y2="71.869629" />
  <line
     class="arc2"
     id="link54_@2_55"
     x1="395.11511"
     y1="140.63055"
     x2="402.38818"
     y2="143.61279" />
  <line
     class="arc0"
     id="link95_@0_53"
     x1="822.18213"
     y1="66.585815"
     x2="735.2926"
     y2="78.24707" />
  <line
     class="arc2"
     id="link128_@2_122"
     x1="1052.4065"
     y1="376.11407"
     x2="1038.9342"
     y2="402.56409" />
  <line
     class="arc0"
     id="link128_@0_129"
     x1="1052.4065"
     y1="376.11407"
     x2="1186.2046"
     y2="383.68707" />
  <polygon
     points="618.5656,601.7395 484.7675,594.1665 422.53134,516.7184 422.53134,357.78943 484.7675,287.38647 618.5656,294.9594 680.8018,372.40747 680.8018,531.3363 "
     id="face_55_56_57_58_64_63_62_61"
     style="fill:#ffc000;stroke:none"
     opacity="1"
     transform="translate(-20.143112,-214.1767)" />
  <line
     class="arc1"
     id="link61_@1_62"
     x1="402.38818"
     y1="302.54175"
     x2="464.62439"
     y2="379.98981" />
  <line
     class="arc0"
     id="link61_@0_55"
     x1="402.38818"
     y1="302.54175"
     x2="402.38818"
     y2="143.61279" />
  <polygon
     points="869.5351,630.3037 956.4246,618.64246 1059.0773,616.7408 1192.8754,624.31366 1214.6951,633.26044 1127.8055,644.92175 1025.1527,646.8234 891.3546,639.2505 "
     id="face_123_124_118_117_116_115_121_122"
     style="fill:#c0c0c0;stroke:none"
     opacity="1"
     transform="translate(-20.143112,-214.1767)" />
  <line
     class="arc1"
     id="link122_@1_121"
     x1="1038.9342"
     y1="402.56409"
     x2="936.28149"
     y2="404.46576" />
  <line
     class="arc0"
     id="link122_@0_123"
     x1="1038.9342"
     y1="402.56409"
     x2="1172.7323"
     y2="410.13696" />
  <line
     class="arc2"
     id="link68_@2_62"
     x1="478.09656"
     y1="402.82367"
     x2="464.62439"
     y2="379.98981" />
  <line
     class="arc0"
     id="link68_@0_69"
     x1="478.09656"
     y1="402.82367"
     x2="611.89465"
     y2="410.39655" />
  <line
     class="arc1"
     id="link55_@1_56"
     x1="402.38818"
     y1="143.61279"
     x2="464.62439"
     y2="73.209839" />
  <line
     class="arc2"
     id="link134_@2_140"
     x1="1052.4065"
     y1="69.333984"
     x2="1038.9342"
     y2="46.500244" />
  <line
     class="arc0"
     id="link134_@0_135"
     x1="1052.4065"
     y1="69.333984"
     x2="1186.2046"
     y2="76.90686" />
  <line
     class="arc2"
     id="link120_@2_121"
     x1="915.53607"
     y1="378.64972"
     x2="936.28149"
     y2="404.46576" />
  <line
     class="arc0"
     id="link120_@0_114"
     x1="915.53607"
     y1="378.64972"
     x2="828.64655"
     y2="390.31097" />
  <line
     class="arc0"
     id="link121_@0_115"
     x1="936.28149"
     y1="404.46576"
     x2="849.39197"
     y2="416.12701" />
  <line
     class="arc0"
     id="link62_@0_63"
     x1="464.62439"
     y1="379.98981"
     x2="598.42249"
     y2="387.56281" />
  <line
     class="arc2"
     id="link138_@2_139"
     x1="915.53607"
     y1="71.869629"
     x2="936.28149"
     y2="48.401978" />
  <line
     class="arc2"
     id="link135_@2_141"
     x1="1186.2046"
     y1="76.90686"
     x2="1172.7323"
     y2="54.07312" />
  <polygon
     points="869.5351,274.23987 956.4246,262.5786 1059.0773,260.67694 1192.8754,268.24976 1214.6951,277.19666 1127.8055,288.8579 1025.1527,290.75958 891.3546,283.1867 "
     id="face_141_142_100_99_98_97_139_140"
     style="fill:#c0c0c0;stroke:none"
     opacity="1"
     transform="translate(-20.143112,-214.1767)" />
  <line
     class="arc1"
     id="link140_@1_139"
     x1="1038.9342"
     y1="46.500244"
     x2="936.28149"
     y2="48.401978" />
  <line
     class="arc0"
     id="link140_@0_141"
     x1="1038.9342"
     y1="46.500244"
     x2="1172.7323"
     y2="54.07312" />
  <line
     class="arc2"
     id="link50_@2_56"
     x1="478.09656"
     y1="46.759888"
     x2="464.62439"
     y2="73.209839" />
  <line
     class="arc0"
     id="link50_@0_51"
     x1="478.09656"
     y1="46.759888"
     x2="611.89465"
     y2="54.332764" />
  <line
     class="arc0"
     id="link138_@0_96"
     x1="915.53607"
     y1="71.869629"
     x2="828.64655"
     y2="83.530884" />
  <line
     class="arc0"
     id="link56_@0_57"
     x1="464.62439"
     y1="73.209839"
     x2="598.42249"
     y2="80.782715" />
  <line
     class="arc0"
     id="link139_@0_97"
     x1="936.28149"
     y1="48.401978"
     x2="849.39197"
     y2="60.063232" />
  <line
     class="arc1"
     id="link70_@1_69"
     x1="714.54736"
     y1="408.49487"
     x2="611.89465"
     y2="410.39655" />
  <line
     class="arc2"
     id="link70_@2_71"
     x1="714.54736"
     y1="408.49487"
     x2="735.2926"
     y2="385.02716" />
  <line
     class="arc1"
     id="link129_@1_130"
     x1="1186.2046"
     y1="383.68707"
     x2="1248.4408"
     y2="313.28394" />
  <line
     class="arc2"
     id="link129_@2_123"
     x1="1186.2046"
     y1="383.68707"
     x2="1172.7323"
     y2="410.13696" />
  <line
     class="arc1"
     id="link71_@1_65"
     x1="735.2926"
     y1="385.02716"
     x2="694.87598"
     y2="316.52576" />
  <line
     class="arc1"
     id="link123_@1_124"
     x1="1172.7323"
     y1="410.13696"
     x2="1194.552"
     y2="419.08374" />
  <line
     class="arc2"
     id="link69_@2_63"
     x1="611.89465"
     y1="410.39655"
     x2="598.42249"
     y2="387.56281" />
  <line
     class="arc1"
     id="link135_@1_136"
     x1="1186.2046"
     y1="76.90686"
     x2="1248.4408"
     y2="154.35504" />
  <line
     class="arc1"
     id="link52_@1_51"
     x1="714.54736"
     y1="52.43103"
     x2="611.89465"
     y2="54.332764" />
  <line
     class="arc2"
     id="link52_@2_53"
     x1="714.54736"
     y1="52.43103"
     x2="735.2926"
     y2="78.24707" />
  <line
     class="arc1"
     id="link53_@1_59"
     x1="735.2926"
     y1="78.24707"
     x2="694.87598"
     y2="157.59692" />
  <line
     class="arc1"
     id="link63_@1_64"
     x1="598.42249"
     y1="387.56281"
     x2="660.65869"
     y2="317.15967" />
  <line
     class="arc2"
     id="link130_@2_131"
     x1="1248.4408"
     y1="313.28394"
     x2="1255.7139"
     y2="316.26624" />
  <line
     class="arc0"
     id="link130_@0_136"
     x1="1248.4408"
     y1="313.28394"
     x2="1248.4408"
     y2="154.35504" />
  <line
     class="arc1"
     id="link141_@1_142"
     x1="1172.7323"
     y1="54.07312"
     x2="1194.552"
     y2="63.02002" />
  <line
     class="arc2"
     id="link51_@2_57"
     x1="611.89465"
     y1="54.332764"
     x2="598.42249"
     y2="80.782715" />
  <line
     class="arc2"
     id="link136_@2_137"
     x1="1248.4408"
     y1="154.35504"
     x2="1255.7139"
     y2="157.33728" />
  <line
     class="arc1"
     id="link57_@1_58"
     x1="598.42249"
     y1="80.782715"
     x2="660.65869"
     y2="158.23083" />
  <line
     class="arc1"
     id="link114_@1_108"
     x1="828.64655"
     y1="390.31097"
     x2="788.22998"
     y2="321.80957" />
  <line
     class="arc2"
     id="link114_@2_115"
     x1="828.64655"
     y1="390.31097"
     x2="849.39197"
     y2="416.12701" />
  <polygon
     points="1148.5509,621.45404 1235.4404,609.7927 1275.8569,530.4429 1275.8569,371.51392 1235.4404,303.01263 1148.5509,314.67395 1108.1343,394.02368 1108.1343,552.95264 "
     id="face_137_143_101_107_113_119_125_131"
     style="fill:#c0c0c0;stroke:none"
     opacity="1"
     transform="translate(-20.143112,-214.1767)" />
  <line
     class="arc1"
     id="link131_@1_125"
     x1="1255.7139"
     y1="316.26624"
     x2="1215.2974"
     y2="395.61603" />
  <line
     class="arc0"
     id="link131_@0_137"
     x1="1255.7139"
     y1="316.26624"
     x2="1255.7139"
     y2="157.33728" />
  <line
     class="arc2"
     id="link65_@2_64"
     x1="694.87598"
     y1="316.52576"
     x2="660.65869"
     y2="317.15967" />
  <line
     class="arc0"
     id="link65_@0_59"
     x1="694.87598"
     y1="316.52576"
     x2="694.87598"
     y2="157.59692" />
  <line
     class="arc1"
     id="link115_@1_116"
     x1="849.39197"
     y1="416.12701"
     x2="871.21149"
     y2="425.07379" />
  <line
     class="arc0"
     id="link64_@0_58"
     x1="660.65869"
     y1="317.15967"
     x2="660.65869"
     y2="158.23083" />
  <line
     class="arc1"
     id="link137_@1_143"
     x1="1255.7139"
     y1="157.33728"
     x2="1215.2974"
     y2="88.835938" />
  <line
     class="arc2"
     id="link59_@2_58"
     x1="694.87598"
     y1="157.59692"
     x2="660.65869"
     y2="158.23083" />
  <line
     class="arc1"
     id="link96_@1_102"
     x1="828.64655"
     y1="83.530884"
     x2="788.22998"
     y2="162.88074" />
  <line
     class="arc2"
     id="link96_@2_97"
     x1="828.64655"
     y1="83.530884"
     x2="849.39197"
     y2="60.063232" />
  <line
     class="arc1"
     id="link97_@1_98"
     x1="849.39197"
     y1="60.063232"
     x2="871.21149"
     y2="69.01001" />
  <line
     class="arc2"
     id="link124_@2_125"
     x1="1194.552"
     y1="419.08374"
     x2="1215.2974"
     y2="395.61603" />
  <line
     class="arc0"
     id="link124_@0_118"
     x1="1194.552"
     y1="419.08374"
     x2="1107.6625"
     y2="430.74506" />
  <line
     class="arc0"
     id="link125_@0_119"
     x1="1215.2974"
     y1="395.61603"
     x2="1128.4078"
     y2="407.27734" />
  <line
     class="arc2"
     id="link108_@2_109"
     x1="788.22998"
     y1="321.80957"
     x2="795.50317"
     y2="324.79187" />
  <line
     class="arc0"
     id="link108_@0_102"
     x1="788.22998"
     y1="321.80957"
     x2="788.22998"
     y2="162.88074" />
  <line
     class="arc2"
     id="link142_@2_143"
     x1="1194.552"
     y1="63.02002"
     x2="1215.2974"
     y2="88.835938" />
  <line
     class="arc0"
     id="link142_@0_100"
     x1="1194.552"
     y1="63.02002"
     x2="1107.6625"
     y2="74.681274" />
  <line
     class="arc2"
     id="link102_@2_103"
     x1="788.22998"
     y1="162.88074"
     x2="795.50317"
     y2="165.86292" />
  <line
     class="arc0"
     id="link143_@0_101"
     x1="1215.2974"
     y1="88.835938"
     x2="1128.4078"
     y2="100.49725" />
  <polygon
     points="1011.6805,623.9896 877.8825,616.4167 815.6463,538.9685 815.6463,380.03958 877.8825,309.63666 1011.6805,317.20947 1073.9169,394.65756 1073.9169,553.58655 "
     id="face_103_104_105_106_112_111_110_109"
     style="fill:#c0c0c0;stroke:none"
     opacity="1"
     transform="translate(-20.143112,-214.1767)" />
  <line
     class="arc1"
     id="link109_@1_110"
     x1="795.50317"
     y1="324.79187"
     x2="857.73938"
     y2="402.23999" />
  <line
     class="arc0"
     id="link109_@0_103"
     x1="795.50317"
     y1="324.79187"
     x2="795.50317"
     y2="165.86292" />
  <line
     class="arc2"
     id="link116_@2_110"
     x1="871.21149"
     y1="425.07379"
     x2="857.73938"
     y2="402.23999" />
  <line
     class="arc0"
     id="link116_@0_117"
     x1="871.21149"
     y1="425.07379"
     x2="1005.0096"
     y2="432.64673" />
  <line
     class="arc1"
     id="link103_@1_104"
     x1="795.50317"
     y1="165.86292"
     x2="857.73938"
     y2="95.459961" />
  <line
     class="arc0"
     id="link110_@0_111"
     x1="857.73938"
     y1="402.23999"
     x2="991.53735"
     y2="409.81293" />
  <line
     class="arc2"
     id="link98_@2_104"
     x1="871.21149"
     y1="69.01001"
     x2="857.73938"
     y2="95.459961" />
  <line
     class="arc0"
     id="link98_@0_99"
     x1="871.21149"
     y1="69.01001"
     x2="1005.0096"
     y2="76.582886" />
  <line
     class="arc0"
     id="link104_@0_105"
     x1="857.73938"
     y1="95.459961"
     x2="991.53735"
     y2="103.03284" />
  <line
     class="arc1"
     id="link118_@1_117"
     x1="1107.6625"
     y1="430.74506"
     x2="1005.0096"
     y2="432.64673" />
  <line
     class="arc2"
     id="link118_@2_119"
     x1="1107.6625"
     y1="430.74506"
     x2="1128.4078"
     y2="407.27734" />
  <line
     class="arc1"
     id="link119_@1_113"
     x1="1128.4078"
     y1="407.27734"
     x2="1087.9912"
     y2="338.77594" />
  <line
     class="arc2"
     id="link117_@2_111"
     x1="1005.0096"
     y1="432.64673"
     x2="991.53735"
     y2="409.81293" />
  <line
     class="arc1"
     id="link100_@1_99"
     x1="1107.6625"
     y1="74.681274"
     x2="1005.0096"
     y2="76.582886" />
  <line
     class="arc2"
     id="link100_@2_101"
     x1="1107.6625"
     y1="74.681274"
     x2="1128.4078"
     y2="100.49725" />
  <line
     class="arc1"
     id="link101_@1_107"
     x1="1128.4078"
     y1="100.49725"
     x2="1087.9912"
     y2="179.84705" />
  <line
     class="arc1"
     id="link111_@1_112"
     x1="991.53735"
     y1="409.81293"
     x2="1053.7738"
     y2="339.40985" />
  <line
     class="arc2"
     id="link99_@2_105"
     x1="1005.0096"
     y1="76.582886"
     x2="991.53735"
     y2="103.03284" />
  <line
     class="arc1"
     id="link105_@1_106"
     x1="991.53735"
     y1="103.03284"
     x2="1053.7738"
     y2="180.4809" />
  <line
     class="arc2"
     id="link113_@2_112"
     x1="1087.9912"
     y1="338.77594"
     x2="1053.7738"
     y2="339.40985" />
  <line
     class="arc0"
     id="link113_@0_107"
     x1="1087.9912"
     y1="338.77594"
     x2="1087.9912"
     y2="179.84705" />
  <line
     class="arc0"
     id="link112_@0_106"
     x1="1053.7738"
     y1="339.40985"
     x2="1053.7738"
     y2="180.4809" />
  <line
     class="arc2"
     id="link107_@2_106"
     x1="1087.9912"
     y1="179.84705"
     x2="1053.7738"
     y2="180.4809" />
</svg>
