<?xml version="1.0" encoding="UTF-8" standalone="no"?>
<!-- Created with Jerboa -->

<svg
	width="1317"
	height="624" >
	<style id="style">
		.arc0 {
			fill:none;
			fill-rule:evenodd;
			stroke:black;
			stroke-width:4;
			stroke-linecap:round;
			stroke-linejoin:round;
			stroke-opacity:1;
		}
		.arc1 {
			fill:none;
			fill-rule:evenodd;
			stroke:red;
			stroke-width:4;
			stroke-linecap:round;
			stroke-linejoin:round;
			stroke-opacity:1;
		}
		.arc2 {
			fill:none;
			fill-rule:evenodd;
			stroke:blue;
			stroke-width:4;
			stroke-linecap:round;
			stroke-linejoin:round;
			stroke-opacity:1;
		}
		.arc3 {
			fill:none;
			fill-rule:evenodd;
			stroke:green;
			stroke-width:4;
			stroke-linecap:round;
			stroke-linejoin:round;
			stroke-opacity:1;
		}
		.topological-dart {
			fill:#000000;
			stroke:#000000;
			stroke-width:0;
			stroke-linecap:round;
			stroke-linejoin:round;
			stroke-dasharray:none;
			paint-order:markers fill stroke;
		}
	</style>
<polygon
	points="145.16805,180.11758 295.35077,180.11758 352.1418,236.90863 352.1418,387.09137 295.35077,443.88242 145.16805,443.88242 88.37701,387.09137 88.37701,236.90863 "
	id="face_7_6_5_4_3_2_1_0"
	style="fill:rgb(192,192,192);stroke:none"
	opacity="1.0" />
<line
	class="arc1"
	id="link0_@1_1"
	x1="145.16805"
	y1="180.11758"
	x2="88.37701"
	y2="236.90863" />
<line
	class="arc0"
	id="link0_@0_7"
	x1="145.16805"
	y1="180.11758"
	x2="295.35077"
	y2="180.11758" />
<line
	class="arc0"
	id="link1_@0_2"
	x1="88.37701"
	y1="236.90863"
	x2="88.37701"
	y2="387.09137" />
<line
	class="arc1"
	id="link2_@1_3"
	x1="88.37701"
	y1="387.09137"
	x2="145.16805"
	y2="443.88242" />
<line
	class="arc0"
	id="link3_@0_4"
	x1="145.16805"
	y1="443.88242"
	x2="295.35077"
	y2="443.88242" />
<line
	class="arc1"
	id="link4_@1_5"
	x1="295.35077"
	y1="443.88242"
	x2="352.1418"
	y2="387.09137" />
<line
	class="arc2"
	id="link5_@2_12"
	x1="352.1418"
	y1="387.09137"
	x2="380.5373"
	y2="387.09137" />
<line
	class="arc0"
	id="link5_@0_6"
	x1="352.1418"
	y1="387.09137"
	x2="352.1418"
	y2="236.90863" />
<line
	class="arc1"
	id="link6_@1_7"
	x1="352.1418"
	y1="236.90863"
	x2="295.35077"
	y2="180.11758" />
<line
	class="arc2"
	id="link6_@2_8"
	x1="352.1418"
	y1="236.90863"
	x2="380.5373"
	y2="236.90863" />
<polygon
	points="380.5373,236.90863 380.5373,387.09137 437.3284,443.88242 587.5111,443.88242 644.30225,387.09137 644.30225,236.90863 587.5111,180.11758 437.3284,180.11758 "
	id="face_12_13_14_15_11_10_9_8"
	style="fill:rgb(255,192,0);stroke:none"
	opacity="1.0" />
<line
	class="arc1"
	id="link8_@1_9"
	x1="380.5373"
	y1="236.90863"
	x2="437.3284"
	y2="180.11758" />
<line
	class="arc0"
	id="link8_@0_12"
	x1="380.5373"
	y1="236.90863"
	x2="380.5373"
	y2="387.09137" />
<line
	class="arc0"
	id="link9_@0_10"
	x1="437.3284"
	y1="180.11758"
	x2="587.5111"
	y2="180.11758" />
<line
	class="arc1"
	id="link10_@1_11"
	x1="587.5111"
	y1="180.11758"
	x2="644.30225"
	y2="236.90863" />
<line
	class="arc2"
	id="link11_@2_16"
	x1="644.30225"
	y1="236.90863"
	x2="672.6977"
	y2="236.90863" />
<line
	class="arc0"
	id="link11_@0_15"
	x1="644.30225"
	y1="236.90863"
	x2="644.30225"
	y2="387.09137" />
<line
	class="arc1"
	id="link12_@1_13"
	x1="380.5373"
	y1="387.09137"
	x2="437.3284"
	y2="443.88242" />
<line
	class="arc0"
	id="link13_@0_14"
	x1="437.3284"
	y1="443.88242"
	x2="587.5111"
	y2="443.88242" />
<line
	class="arc1"
	id="link14_@1_15"
	x1="587.5111"
	y1="443.88242"
	x2="644.30225"
	y2="387.09137" />
<line
	class="arc2"
	id="link15_@2_20"
	x1="644.30225"
	y1="387.09137"
	x2="672.6977"
	y2="387.09137" />
<polygon
	points="672.6977,236.90863 672.6977,387.09137 729.48895,443.88242 879.6715,443.88242 936.46277,387.09137 936.46277,236.90863 879.6715,180.11758 729.48895,180.11758 "
	id="face_20_21_22_23_19_18_17_16"
	style="fill:rgb(192,192,192);stroke:none"
	opacity="1.0" />
<line
	class="arc1"
	id="link16_@1_17"
	x1="672.6977"
	y1="236.90863"
	x2="729.48895"
	y2="180.11758" />
<line
	class="arc0"
	id="link16_@0_20"
	x1="672.6977"
	y1="236.90863"
	x2="672.6977"
	y2="387.09137" />
<line
	class="arc0"
	id="link17_@0_18"
	x1="729.48895"
	y1="180.11758"
	x2="879.6715"
	y2="180.11758" />
<line
	class="arc1"
	id="link18_@1_19"
	x1="879.6715"
	y1="180.11758"
	x2="936.46277"
	y2="236.90863" />
<line
	class="arc2"
	id="link19_@2_24"
	x1="936.46277"
	y1="236.90863"
	x2="964.85834"
	y2="236.90863" />
<line
	class="arc0"
	id="link19_@0_23"
	x1="936.46277"
	y1="236.90863"
	x2="936.46277"
	y2="387.09137" />
<line
	class="arc1"
	id="link20_@1_21"
	x1="672.6977"
	y1="387.09137"
	x2="729.48895"
	y2="443.88242" />
<line
	class="arc0"
	id="link21_@0_22"
	x1="729.48895"
	y1="443.88242"
	x2="879.6715"
	y2="443.88242" />
<line
	class="arc1"
	id="link22_@1_23"
	x1="879.6715"
	y1="443.88242"
	x2="936.46277"
	y2="387.09137" />
<line
	class="arc2"
	id="link23_@2_28"
	x1="936.46277"
	y1="387.09137"
	x2="964.85834"
	y2="387.09137" />
<polygon
	points="964.85834,236.90863 964.85834,387.09137 1021.6493,443.88242 1171.8318,443.88242 1228.6228,387.09137 1228.6228,236.90863 1171.8318,180.11758 1021.6493,180.11758 "
	id="face_28_29_30_31_27_26_25_24"
	style="fill:rgb(192,192,192);stroke:none"
	opacity="1.0" />
<line
	class="arc1"
	id="link24_@1_25"
	x1="964.85834"
	y1="236.90863"
	x2="1021.6493"
	y2="180.11758" />
<line
	class="arc0"
	id="link24_@0_28"
	x1="964.85834"
	y1="236.90863"
	x2="964.85834"
	y2="387.09137" />
<line
	class="arc0"
	id="link25_@0_26"
	x1="1021.6493"
	y1="180.11758"
	x2="1171.8318"
	y2="180.11758" />
<line
	class="arc1"
	id="link26_@1_27"
	x1="1171.8318"
	y1="180.11758"
	x2="1228.6228"
	y2="236.90863" />
<line
	class="arc0"
	id="link27_@0_31"
	x1="1228.6228"
	y1="236.90863"
	x2="1228.6228"
	y2="387.09137" />
<line
	class="arc1"
	id="link28_@1_29"
	x1="964.85834"
	y1="387.09137"
	x2="1021.6493"
	y2="443.88242" />
<line
	class="arc0"
	id="link29_@0_30"
	x1="1021.6493"
	y1="443.88242"
	x2="1171.8318"
	y2="443.88242" />
<line
	class="arc1"
	id="link30_@1_31"
	x1="1171.8318"
	y1="443.88242"
	x2="1228.6228"
	y2="387.09137" />
</svg>
