<?xml version="1.0" encoding="UTF-8" standalone="no"?>
<!-- Generated by graphviz version 12.1.2 (0)
 -->

<!-- Title: HistoryRecord Pages: 1 -->

<svg
   width="408.32254pt"
   height="359.00641pt"
   viewBox="0 0 408.32254 359.0064"
   version="1.1"
   id="svg16"
   sodipodi:docname="tmp-alt-evaluationTree-pn2.svg"
   inkscape:version="1.3.2 (091e20ef0f, 2023-11-25, custom)"
   xmlns:inkscape="http://www.inkscape.org/namespaces/inkscape"
   xmlns:sodipodi="http://sodipodi.sourceforge.net/DTD/sodipodi-0.dtd"
   xmlns="http://www.w3.org/2000/svg"
   xmlns:svg="http://www.w3.org/2000/svg">
  <defs
     id="defs16" />
  <sodipodi:namedview
     id="namedview16"
     pagecolor="#ffffff"
     bordercolor="#000000"
     borderopacity="0.25"
     inkscape:showpageshadow="2"
     inkscape:pageopacity="0.0"
     inkscape:pagecheckerboard="0"
     inkscape:deskcolor="#d1d1d1"
     inkscape:document-units="pt"
     inkscape:zoom="4.4290541"
     inkscape:cx="165.3852"
     inkscape:cy="346.34935"
     inkscape:window-width="1892"
     inkscape:window-height="1035"
     inkscape:window-x="1929"
     inkscape:window-y="26"
     inkscape:window-maximized="0"
     inkscape:current-layer="g2"
     showgrid="false" />
  <path
     fill="none"
     stroke="#ff0000"
     d="m 143.82232,118.05201 c -0.25,19.50992 0,0 -0.25,25.63853"
     id="path10"
     sodipodi:nodetypes="cc" />
  <polygon
     fill="#ff0000"
     stroke="#ff0000"
     points="59.5,-137.04 66.5,-137.04 63,-127.04 "
     id="polygon10"
     transform="translate(80.57232,280.73054)" />
  <g
     id="g29"
     transform="translate(17.82232)">
    <path
       fill="none"
       stroke="#000000"
       d="m 12.5,53.55201 c 0,0 158,0 158,0 6,0 12,-6 12,-12 0,0 0,-29 0,-29 0,-6 -6,-12 -12,-12 0,0 -158,0 -158,0 -6,0 -12,6 -12,12 0,0 0,29 0,29 0,6 6,12 12,12"
       id="path2" />
    <polygon
       fill="none"
       stroke="#000000"
       points="170,-207 170,-154 28,-154 28,-207 "
       id="polygon3"
       transform="translate(-7.5,280.55201)" />
    <path
       fill="none"
       stroke="#000000"
       d="m 91,45.05201 c 0,0 70,0 70,0 6,0 12,-6 12,-12 0,0 0,-12 0,-12 0,-6 -6,-12 -12,-12 0,0 -70,0 -70,0 -6,0 -12,6 -12,12 0,0 0,12 0,12 0,6 6,12 12,12"
       id="path6" />
    <text
       text-anchor="middle"
       x="126"
       y="31.732002"
       font-family="Times, serif"
       font-size="14px"
       id="text6">CREATION</text>
    <g
       id="g17"
       transform="translate(70.5)">
      <polygon
         fill="none"
         stroke="#000000"
         points="90,-198.5 90,-162.5 36,-162.5 36,-198.5 "
         id="polygon7"
         transform="translate(-7.5,280.55201)" />
      <text
         text-anchor="middle"
         x="55.25"
         y="104.732"
         font-family="Times, serif"
         font-size="14px"
         id="text7">⟨0, 1,3⟩</text>
    </g>
    <path
       fill="none"
       stroke="#000000"
       d="m 126,45.24201 c 0,7.58 0,16.71 0,25.27"
       id="path8" />
    <polygon
       fill="#000000"
       stroke="#000000"
       points="59.5,-210.04 66.5,-210.04 63,-200.04 "
       id="polygon8"
       transform="translate(63,280.55201)" />
    <g
       id="g21"
       transform="translate(-110.32232)">
      <path
         fill="#d3d3d3"
         stroke="#d3d3d3"
         d="m 132.5,45.05201 c 0,0 30,0 30,0 6,0 12,-6 12,-12 0,0 0,-12 0,-12 0,-6 -6,-12 -12,-12 0,0 -30,0 -30,0 -6,0 -12,6 -12,12 0,0 0,12 0,12 0,6 6,12 12,12"
         id="path11" />
      <text
         text-anchor="middle"
         x="147.5"
         y="31.732002"
         font-family="Times, serif"
         font-size="14px"
         id="text11">1</text>
    </g>
    <g
       id="g18"
       transform="translate(-67.69767)">
      <polygon
         fill="#add8e6"
         stroke="#add8e6"
         points="162,-162.5 108,-162.5 108,-198.5 162,-198.5 "
         id="polygon14"
         transform="translate(-7.5,280.55201)" />
      <text
         text-anchor="middle"
         x="127.5"
         y="104.732"
         font-family="Times, serif"
         font-size="14px"
         id="text14">n2</text>
    </g>
    <path
       fill="none"
       stroke="#000000"
       d="m 219.5,53.5 c 0,0 158,0 158,0 6,0 12,-6 12,-12 0,0 0,-29 0,-29 0,-6 -6,-12 -12,-12 0,0 -158,0 -158,0 -6,0 -12,6 -12,12 0,0 0,29 0,29 0,6 6,12 12,12"
       id="path2-2" />
    <polygon
       fill="none"
       stroke="#000000"
       points="28,-207 170,-207 170,-154 28,-154 "
       id="polygon3-7"
       transform="translate(199.5,280.5)" />
    <path
       fill="none"
       stroke="#000000"
       d="m 298,45 c 0,0 70,0 70,0 6,0 12,-6 12,-12 0,0 0,-12 0,-12 0,-6 -6,-12 -12,-12 0,0 -70,0 -70,0 -6,0 -12,6 -12,12 0,0 0,12 0,12 0,6 6,12 12,12"
       id="path6-1" />
    <text
       text-anchor="middle"
       x="333"
       y="31.679993"
       font-family="Times, serif"
       font-size="14px"
       id="text6-2">CREATION</text>
    <g
       id="g19"
       transform="translate(70.5)">
      <polygon
         fill="none"
         stroke="#000000"
         points="36,-198.5 90,-198.5 90,-162.5 36,-162.5 "
         id="polygon7-1"
         transform="translate(199.5,280.5)" />
      <text
         text-anchor="middle"
         x="262.25"
         y="104.67999"
         font-family="Times, serif"
         font-size="14px"
         id="text7-9">⟨0, 1⟩</text>
    </g>
    <path
       fill="none"
       stroke="#000000"
       d="m 333,45.19 c 0,7.58 0,16.71 0,25.27"
       id="path8-8" />
    <polygon
       fill="#000000"
       stroke="#000000"
       points="59.5,-210.04 66.5,-210.04 63,-200.04 "
       id="polygon8-4"
       transform="translate(270,280.5)" />
    <g
       id="g22"
       transform="translate(-181.03906)">
      <path
         fill="#d3d3d3"
         stroke="#d3d3d3"
         d="m 410,45 c 0,0 30,0 30,0 6,0 12,-6 12,-12 0,0 0,-12 0,-12 0,-6 -6,-12 -12,-12 0,0 -30,0 -30,0 -6,0 -12,6 -12,12 0,0 0,12 0,12 0,6 6,12 12,12"
         id="path11-6" />
      <text
         text-anchor="middle"
         x="425"
         y="31.679993"
         font-family="Times, serif"
         font-size="14px"
         id="text11-3">1</text>
    </g>
    <g
       id="g20"
       transform="translate(-69)">
      <polygon
         fill="#add8e6"
         stroke="#add8e6"
         points="162,-198.5 162,-162.5 108,-162.5 108,-198.5 "
         id="polygon14-6"
         transform="translate(199.5,280.5)" />
      <text
         text-anchor="middle"
         x="334.5"
         y="104.67999"
         font-family="Times, serif"
         font-size="14px"
         id="text14-1">n2</text>
    </g>
  </g>
  <rect
     style="fill:none;stroke:#000000;stroke-width:1;stroke-linecap:round;stroke-dasharray:2, 5;stroke-dashoffset:0;stroke-opacity:1"
     id="rect24"
     width="390"
     height="203.6787"
     x="17.822321"
     y="154.82771"
     ry="23.675003" />
  <g
     id="g30"
     transform="translate(12.662966)">
    <polygon
       fill="none"
       stroke="#000000"
       points="170,-8 28,-8 28,-61 170,-61 "
       id="polygon5"
       transform="translate(115.5,328.01598)" />
    <g
       id="g26"
       transform="translate(70.5)">
      <polygon
         fill="none"
         stroke="#000000"
         points="90,-16.5 36,-16.5 36,-52.5 90,-52.5 "
         id="polygon12"
         transform="translate(115.5,328.01598)" />
      <text
         text-anchor="middle"
         x="178.25"
         y="298.19598"
         font-family="Times, serif"
         font-size="14px"
         id="text12">⟨1, 2⟩</text>
    </g>
    <g
       id="g27"
       transform="translate(-8.5449216e-7,1.6141238)">
      <path
         fill="none"
         stroke="#000000"
         d="m 249.091,237.01008 c 0,7.58 0,16.71 0,25.27"
         id="path13" />
      <polygon
         fill="#000000"
         stroke="#000000"
         points="59.5,-64.04 66.5,-64.04 63,-54.04 "
         id="polygon13"
         transform="translate(186.091,326.32008)" />
    </g>
    <g
       id="g24"
       transform="translate(19.5)">
      <path
         fill="none"
         stroke="#000000"
         d="m 116,247.01598 c 0,0 158,0 158,0 6,0 12,-6 12,-12 0,0 0,-29 0,-29 0,-6 -6,-12 -12,-12 0,0 -158,0 -158,0 -6,0 -12,6 -12,12 0,0 0,29 0,29 0,6 6,12 12,12"
         id="path4" />
      <path
         fill="none"
         stroke="#000000"
         d="m 194.5,238.51598 c 0,0 70,0 70,0 6,0 12,-6 12,-12 0,0 0,-12 0,-12 0,-6 -6,-12 -12,-12 0,0 -70,0 -70,0 -6,0 -12,6 -12,12 0,0 0,12 0,12 0,6 6,12 12,12"
         id="path9" />
      <text
         text-anchor="middle"
         x="229.5"
         y="225.18597"
         font-family="Times, serif"
         font-size="14px"
         id="text9">CREATION</text>
      <g
         id="g23"
         transform="translate(-129.78181,0.03599412)">
        <path
           fill="#d3d3d3"
           stroke="#d3d3d3"
           d="m 255.5,238.51598 c 0,0 30,0 30,0 6,0 12,-6 12,-12 0,0 0,-12 0,-12 0,-6 -6,-12 -12,-12 0,0 -30,0 -30,0 -6,0 -12,6 -12,12 0,0 0,12 0,12 0,6 6,12 12,12"
           id="path15" />
        <text
           text-anchor="middle"
           x="270.5"
           y="225.18597"
           font-family="Times, serif"
           font-size="14px"
           id="text15">1</text>
        <rect
           style="fill:none;stroke:#000000;stroke-width:0.999997;stroke-linecap:round;stroke-dasharray:none"
           id="rect27"
           width="293"
           height="147"
           x="177.78181"
           y="183.48009"
           ry="0" />
        <g
           id="g2"
           transform="translate(-89.079544,-287.97218)">
          <rect
             style="fill:#d3d3d3;stroke:#d3d3d3;stroke-width:0.999997;stroke-opacity:1"
             id="rect2"
             width="54.999996"
             height="37.000004"
             x="239.17937"
             y="521.81824" />
          <text
             text-anchor="middle"
             x="266.86136"
             y="544.95227"
             font-family="Times, serif"
             font-size="14px"
             id="text23-4-5"><tspan
               sodipodi:role="line"
               id="tspan24-8"
               x="266.86136"
               y="544.95227">Then</tspan><tspan
               sodipodi:role="line"
               id="tspan25-6"
               x="266.86136"
               y="562.45227" /></text>
        </g>
      </g>
    </g>
    <g
       id="g25"
       transform="translate(-156.91306,-1.98658)">
      <polygon
         fill="#add8e6"
         stroke="#add8e6"
         points="162,-52.5 162,-16.5 108,-16.5 108,-52.5 "
         id="polygon16"
         transform="translate(200.41306,330.00256)" />
      <text
         text-anchor="middle"
         x="335.47607"
         y="300.23456"
         font-family="Times, serif"
         font-size="14px"
         id="text16">n2</text>
    </g>
    <polygon
       fill="#ff0000"
       stroke="#ff0000"
       points="63,-127.04 59.5,-137.04 66.5,-137.04 "
       id="polygon10-6"
       transform="translate(186.591,328.0062)" />
  </g>
  <g
     id="g28"
     transform="translate(-22.040966,1.3598998)">
    <path
       fill="#d3d3d3"
       stroke="#d3d3d3"
       d="m 34.540966,176.86602 c 0,0 30.000001,0 30.000001,0 6,0 12,-6 12,-12 0,0 0,-12 0,-12 0,-6 -6,-12 -12,-12 0,0 -30.000001,0 -30.000001,0 -6,0 -12,6 -12,12 0,0 0,12 0,12 0,6 6,12 12,12"
       id="path23-2" />
    <text
       text-anchor="middle"
       x="49.505966"
       y="163.59802"
       font-family="Times, serif"
       font-size="14px"
       id="text15-4">2</text>
  </g>
  <path
     fill="none"
     stroke="#ff0000"
     d="m 350.82232,118 c -0.25,39.2927 -88.56835,31.19731 -88.56835,72.9662"
     id="path10-3"
     sodipodi:nodetypes="cc" />
</svg>
