<?xml version="1.0" encoding="UTF-8" standalone="no"?>
<!-- Generated by graphviz version 12.1.2 (0)
 -->

<!-- Title: HistoryRecord Pages: 1 -->

<svg
   width="387.45099pt"
   height="464.57397pt"
   viewBox="0 0 387.45099 464.57398"
   version="1.1"
   id="svg24"
   sodipodi:docname="tmp-evaluationTree-pn9.svg"
   inkscape:version="1.3.2 (091e20ef0f, 2023-11-25, custom)"
   xmlns:inkscape="http://www.inkscape.org/namespaces/inkscape"
   xmlns:sodipodi="http://sodipodi.sourceforge.net/DTD/sodipodi-0.dtd"
   xmlns="http://www.w3.org/2000/svg"
   xmlns:svg="http://www.w3.org/2000/svg">
  <defs
     id="defs24" />
  <sodipodi:namedview
     id="namedview24"
     pagecolor="#ffffff"
     bordercolor="#000000"
     borderopacity="0.25"
     inkscape:showpageshadow="2"
     inkscape:pageopacity="0.0"
     inkscape:pagecheckerboard="0"
     inkscape:deskcolor="#d1d1d1"
     inkscape:document-units="pt"
     inkscape:zoom="0.74151584"
     inkscape:cx="150.36766"
     inkscape:cy="285.90084"
     inkscape:window-width="1892"
     inkscape:window-height="1035"
     inkscape:window-x="9"
     inkscape:window-y="26"
     inkscape:window-maximized="1"
     inkscape:current-layer="svg24" />
  <g
     id="clust1"
     class="cluster"
     transform="translate(-7.5,426.55201)">
    <title
       id="title2">cluster_1</title>
    <path
       fill="none"
       stroke="#000000"
       d="m 20,-373 c 0,0 158,0 158,0 6,0 12,-6 12,-12 0,0 0,-29 0,-29 0,-6 -6,-12 -12,-12 0,0 -158,0 -158,0 -6,0 -12,6 -12,12 0,0 0,29 0,29 0,6 6,12 12,12"
       id="path2" />
  </g>
  <g
     id="clust2"
     class="cluster"
     transform="translate(-6,426.55201)">
    <title
       id="title3">cluster_1n0</title>
    <polygon
       fill="none"
       stroke="#000000"
       points="28,-300 28,-353 170,-353 170,-300 "
       id="polygon3" />
  </g>
  <g
     id="clust3"
     class="cluster"
     transform="translate(90.72074,451.40184)">
    <title
       id="title4">cluster_2</title>
    <path
       fill="none"
       stroke="#000000"
       d="m 20,-227 c 0,0 158,0 158,0 6,0 12,-6 12,-12 0,0 0,-29 0,-29 0,-6 -6,-12 -12,-12 0,0 -158,0 -158,0 -6,0 -12,6 -12,12 0,0 0,29 0,29 0,6 6,12 12,12"
       id="path4" />
  </g>
  <g
     id="clust4"
     class="cluster"
     transform="translate(92.22074,451.40184)">
    <title
       id="title5">cluster_2n1</title>
    <polygon
       fill="none"
       stroke="#000000"
       points="28,-154 28,-207 170,-207 170,-154 "
       id="polygon5" />
  </g>
  <g
     id="clust5"
     class="cluster"
     transform="translate(90.72074,451.40184)">
    <title
       id="title6">cluster_3</title>
    <path
       fill="none"
       stroke="#000000"
       d="m 20,-81 c 0,0 158,0 158,0 6,0 12,-6 12,-12 0,0 0,-29 0,-29 0,-6 -6,-12 -12,-12 0,0 -158,0 -158,0 -6,0 -12,6 -12,12 0,0 0,29 0,29 0,6 6,12 12,12"
       id="path6" />
  </g>
  <g
     id="clust6"
     class="cluster"
     transform="translate(92.22074,451.40184)">
    <title
       id="title7">cluster_3n3</title>
    <polygon
       fill="none"
       stroke="#000000"
       points="28,-8 28,-61 170,-61 170,-8 "
       id="polygon7" />
  </g>
  <g
     id="node1"
     class="node"
     transform="translate(61.5,426.55201)">
    <title
       id="title8">1CREATION[]</title>
    <path
       fill="none"
       stroke="#000000"
       d="m 28,-381.5 c 0,0 70,0 70,0 6,0 12,-6 12,-12 0,0 0,-12 0,-12 0,-6 -6,-12 -12,-12 0,0 -70,0 -70,0 -6,0 -12,6 -12,12 0,0 0,12 0,12 0,6 6,12 12,12"
       id="path8" />
    <text
       text-anchor="middle"
       x="63"
       y="-394.82001"
       font-family="Times, serif"
       font-size="14px"
       id="text8">CREATION</text>
  </g>
  <g
     id="node2"
     class="node"
     transform="translate(61.5,426.55201)">
    <title
       id="title9">1n0[]</title>
    <polygon
       fill="none"
       stroke="#000000"
       points="90,-344.5 90,-308.5 36,-308.5 36,-344.5 "
       id="polygon9" />
    <text
       text-anchor="middle"
       x="62.75"
       y="-321.82001"
       font-family="Times, serif"
       font-size="14px"
       id="text9">⟨⟩</text>
  </g>
  <g
     id="edge1"
     class="edge"
     transform="translate(61.5,426.55201)">
    <title
       id="title10">1CREATION[]-&gt;1n0[]</title>
    <path
       fill="none"
       stroke="#000000"
       d="m 63,-381.31 c 0,7.58 0,16.71 0,25.27"
       id="path10" />
    <polygon
       fill="#000000"
       stroke="#000000"
       points="63,-346.04 59.5,-356.04 66.5,-356.04 "
       id="polygon10" />
  </g>
  <g
     id="node4"
     class="node"
     transform="translate(159.72074,451.40184)">
    <title
       id="title11">2CREATION[2, 3]</title>
    <path
       fill="none"
       stroke="#000000"
       d="m 28,-235.5 c 0,0 70,0 70,0 6,0 12,-6 12,-12 0,0 0,-12 0,-12 0,-6 -6,-12 -12,-12 0,0 -70,0 -70,0 -6,0 -12,6 -12,12 0,0 0,12 0,12 0,6 6,12 12,12"
       id="path11" />
    <text
       text-anchor="middle"
       x="63"
       y="-248.82001"
       font-family="Times, serif"
       font-size="14px"
       id="text11">CREATION</text>
  </g>
  <g
     id="clust2-5"
     class="cluster"
     transform="translate(198.451,426.5)">
    <title
       id="title3-3">cluster_1n0</title>
    <polygon
       fill="none"
       stroke="#000000"
       points="170,-300 28,-300 28,-353 170,-353 "
       id="polygon3-5" />
  </g>
  <g
     id="edge2"
     class="edge"
     transform="translate(159.72074,451.40184)">
    <title
       id="title12">1n0[]-&gt;2CREATION[2, 3]</title>
    <path
       fill="none"
       stroke="#ff0000"
       d="m 169.23026,-333.40184 c -33.39195,17.23797 -81.351516,30.56853 -99.069276,52.01073"
       id="path12"
       sodipodi:nodetypes="cc" />
    <polygon
       fill="#ff0000"
       stroke="#ff0000"
       points="66.5,-283.04 63,-273.04 59.5,-283.04 "
       id="polygon12"
       transform="rotate(35.347527,63.99308,-270.97863)" />
  </g>
  <g
     id="node3"
     class="node"
     transform="translate(-115.5,426.55201)">
    <title
       id="title13">1</title>
    <path
       fill="#d3d3d3"
       stroke="#d3d3d3"
       d="m 140,-381.5 c 0,0 30,0 30,0 6,0 12,-6 12,-12 0,0 0,-12 0,-12 0,-6 -6,-12 -12,-12 0,0 -30,0 -30,0 -6,0 -12,6 -12,12 0,0 0,12 0,12 0,6 6,12 12,12"
       id="path13" />
    <text
       text-anchor="middle"
       x="155"
       y="-394.82001"
       font-family="Times, serif"
       font-size="14px"
       id="text13">1</text>
  </g>
  <g
     id="node6"
     class="node"
     transform="translate(159.72074,451.40184)">
    <title
       id="title14">2n1[2, 3]</title>
    <polygon
       fill="none"
       stroke="#000000"
       points="90,-198.5 90,-162.5 36,-162.5 36,-198.5 "
       id="polygon14" />
    <text
       text-anchor="middle"
       x="62.75"
       y="-175.82001"
       font-family="Times, serif"
       font-size="14px"
       id="text14">⟨2, 3⟩</text>
  </g>
  <g
     id="edge3"
     class="edge"
     transform="translate(159.72074,451.40184)">
    <title
       id="title15">2CREATION[2, 3]-&gt;2n1[2, 3]</title>
    <path
       fill="none"
       stroke="#000000"
       d="m 63,-235.31 c 0,7.58 0,16.71 0,25.27"
       id="path15" />
    <polygon
       fill="#000000"
       stroke="#000000"
       points="63,-200.04 59.5,-210.04 66.5,-210.04 "
       id="polygon15" />
  </g>
  <g
     id="node5"
     class="node"
     transform="translate(-76.5,426.55201)">
    <title
       id="title16">1n0</title>
    <polygon
       fill="#add8e6"
       stroke="#add8e6"
       points="108,-344.5 162,-344.5 162,-308.5 108,-308.5 "
       id="polygon16" />
    <text
       text-anchor="middle"
       x="135"
       y="-321.82001"
       font-family="Times, serif"
       font-size="14px"
       id="text16">n0</text>
  </g>
  <g
     id="clust1-3"
     class="cluster"
     transform="translate(196.951,426.5)">
    <title
       id="title2-6">cluster_1</title>
    <path
       fill="none"
       stroke="#000000"
       d="m 20,-373 c 0,0 158,0 158,0 6,0 12,-6 12,-12 0,0 0,-29 0,-29 0,-6 -6,-12 -12,-12 0,0 -158,0 -158,0 -6,0 -12,6 -12,12 0,0 0,29 0,29 0,6 6,12 12,12"
       id="path2-7" />
  </g>
  <g
     id="node1-6"
     class="node"
     transform="translate(265.951,426.5)">
    <title
       id="title8-2">1CREATION[]</title>
    <path
       fill="none"
       stroke="#000000"
       d="m 28,-381.5 c 0,0 70,0 70,0 6,0 12,-6 12,-12 0,0 0,-12 0,-12 0,-6 -6,-12 -12,-12 0,0 -70,0 -70,0 -6,0 -12,6 -12,12 0,0 0,12 0,12 0,6 6,12 12,12"
       id="path8-9" />
    <text
       text-anchor="middle"
       x="63"
       y="-394.82001"
       font-family="Times, serif"
       font-size="14px"
       id="text8-1">CREATION</text>
  </g>
  <g
     id="node2-2"
     class="node"
     transform="translate(265.951,426.5)">
    <title
       id="title9-7">1n0[]</title>
    <polygon
       fill="none"
       stroke="#000000"
       points="36,-344.5 90,-344.5 90,-308.5 36,-308.5 "
       id="polygon9-0" />
    <text
       text-anchor="middle"
       x="62.75"
       y="-321.82001"
       font-family="Times, serif"
       font-size="14px"
       id="text9-9">⟨⟩</text>
  </g>
  <g
     id="edge1-3"
     class="edge"
     transform="translate(265.951,426.5)">
    <title
       id="title10-6">1CREATION[]-&gt;1n0[]</title>
    <path
       fill="none"
       stroke="#000000"
       d="m 63,-381.31 c 0,7.58 0,16.71 0,25.27"
       id="path10-0" />
    <polygon
       fill="#000000"
       stroke="#000000"
       points="59.5,-356.04 66.5,-356.04 63,-346.04 "
       id="polygon10-6" />
  </g>
  <g
     id="node3-2"
     class="node"
     transform="translate(88.951,426.5)">
    <title
       id="title13-6">1</title>
    <path
       fill="#d3d3d3"
       stroke="#d3d3d3"
       d="m 140,-381.5 c 0,0 30,0 30,0 6,0 12,-6 12,-12 0,0 0,-12 0,-12 0,-6 -6,-12 -12,-12 0,0 -30,0 -30,0 -6,0 -12,6 -12,12 0,0 0,12 0,12 0,6 6,12 12,12"
       id="path13-1" />
    <text
       text-anchor="middle"
       x="155"
       y="-394.82001"
       font-family="Times, serif"
       font-size="14px"
       id="text13-8">1</text>
  </g>
  <g
     id="node5-7"
     class="node"
     transform="translate(127.951,426.5)">
    <title
       id="title16-9">1n0</title>
    <polygon
       fill="#add8e6"
       stroke="#add8e6"
       points="108,-308.5 108,-344.5 162,-344.5 162,-308.5 "
       id="polygon16-2" />
    <text
       text-anchor="middle"
       x="135"
       y="-321.82001"
       font-family="Times, serif"
       font-size="14px"
       id="text16-0">n0</text>
  </g>
  <g
     id="node8"
     class="node"
     transform="translate(159.72074,451.40184)">
    <title
       id="title17">3CREATION[2, 3]</title>
    <path
       fill="none"
       stroke="#000000"
       d="m 28,-89.5 c 0,0 70,0 70,0 6,0 12,-6 12,-12 0,0 0,-12 0,-12 0,-6 -6,-12 -12,-12 0,0 -70,0 -70,0 -6,0 -12,6 -12,12 0,0 0,12 0,12 0,6 6,12 12,12"
       id="path17" />
    <text
       text-anchor="middle"
       x="63"
       y="-102.83"
       font-family="Times, serif"
       font-size="14px"
       id="text17">CREATION</text>
  </g>
  <g
     id="edge4"
     class="edge"
     transform="translate(159.72074,451.40184)">
    <title
       id="title18">2n1[2, 3]-&gt;3CREATION[2, 3]</title>
    <path
       fill="none"
       stroke="#ff0000"
       d="m 63,-162.31 c 0,7.58 0,16.71 0,25.27"
       id="path18" />
    <polygon
       fill="#ff0000"
       stroke="#ff0000"
       points="63,-127.04 59.5,-137.04 66.5,-137.04 "
       id="polygon18" />
  </g>
  <g
     id="edge4-9"
     class="edge"
     transform="translate(61.25,278.95343)">
    <title
       id="title18-2">2n1[2, 3]-&gt;3CREATION[2, 3]</title>
    <path
       fill="none"
       stroke="#ff0000"
       d="m 63,-160.90142 v 26.73306"
       id="path18-2"
       sodipodi:nodetypes="cc" />
    <polygon
       fill="#ff0000"
       stroke="#ff0000"
       points="63,-127.04 59.5,-137.04 66.5,-137.04 "
       id="polygon18-8"
       transform="translate(0,2.8716417)" />
  </g>
  <g
     id="node7"
     class="node"
     transform="translate(-15.77926,451.40184)">
    <title
       id="title19">2</title>
    <path
       fill="#d3d3d3"
       stroke="#d3d3d3"
       d="m 140,-235.5 c 0,0 30,0 30,0 6,0 12,-6 12,-12 0,0 0,-12 0,-12 0,-6 -6,-12 -12,-12 0,0 -30,0 -30,0 -6,0 -12,6 -12,12 0,0 0,12 0,12 0,6 6,12 12,12"
       id="path19" />
    <text
       text-anchor="middle"
       x="155"
       y="-248.82001"
       font-family="Times, serif"
       font-size="14px"
       id="text19">1</text>
  </g>
  <g
     id="node10"
     class="node"
     transform="translate(159.72074,451.40184)">
    <title
       id="title20">3n3[2, 3]</title>
    <polygon
       fill="none"
       stroke="#000000"
       points="90,-52.5 90,-16.5 36,-16.5 36,-52.5 "
       id="polygon20" />
    <text
       text-anchor="middle"
       x="62.75"
       y="-29.82"
       font-family="Times, serif"
       font-size="14px"
       id="text20">⟨2, 3⟩</text>
  </g>
  <g
     id="edge5"
     class="edge"
     transform="translate(159.72074,451.40184)">
    <title
       id="title21">3CREATION[2, 3]-&gt;3n3[2, 3]</title>
    <path
       fill="none"
       stroke="#000000"
       d="m 63,-89.31 c 0,7.58 0,16.71 0,25.27"
       id="path21" />
    <polygon
       fill="#000000"
       stroke="#000000"
       points="63,-54.04 59.5,-64.04 66.5,-64.04 "
       id="polygon21" />
  </g>
  <g
     id="node9"
     class="node"
     transform="translate(21.72074,451.40184)">
    <title
       id="title22">2n1</title>
    <polygon
       fill="#add8e6"
       stroke="#add8e6"
       points="108,-198.5 162,-198.5 162,-162.5 108,-162.5 "
       id="polygon22" />
    <text
       text-anchor="middle"
       x="135"
       y="-175.82001"
       font-family="Times, serif"
       font-size="14px"
       id="text22">n1</text>
  </g>
  <g
     id="node11"
     class="node"
     transform="translate(-15.77926,451.40184)">
    <title
       id="title23">3</title>
    <path
       fill="#d3d3d3"
       stroke="#d3d3d3"
       d="m 140,-89.5 c 0,0 30,0 30,0 6,0 12,-6 12,-12 0,0 0,-12 0,-12 0,-6 -6,-12 -12,-12 0,0 -30,0 -30,0 -6,0 -12,6 -12,12 0,0 0,12 0,12 0,6 6,12 12,12"
       id="path23" />
    <text
       text-anchor="middle"
       x="155"
       y="-102.83"
       font-family="Times, serif"
       font-size="14px"
       id="text23">2</text>
  </g>
  <g
     id="node12"
     class="node"
     transform="translate(21.72074,451.40184)">
    <title
       id="title24">3n3</title>
    <polygon
       fill="#add8e6"
       stroke="#add8e6"
       points="108,-52.5 162,-52.5 162,-16.5 108,-16.5 "
       id="polygon24" />
    <text
       text-anchor="middle"
       x="135"
       y="-29.82"
       font-family="Times, serif"
       font-size="14px"
       id="text24">n3</text>
  </g>
  <rect
     style="fill:none;stroke:#000000;stroke-width:1;stroke-linecap:round;stroke-dasharray:2, 5;stroke-dashoffset:0;stroke-opacity:1"
     id="rect24"
     width="346.24338"
     height="308.34714"
     x="1.5"
     y="155.72684"
     ry="23.675003" />
  <g
     id="node7-2"
     class="node"
     transform="translate(-119.484,451.40184)">
    <title
       id="title19-3">2</title>
    <path
       fill="#d3d3d3"
       stroke="#d3d3d3"
       d="m 140,-235.5 c 0,0 30,0 30,0 6,0 12,-6 12,-12 0,0 0,-12 0,-12 0,-6 -6,-12 -12,-12 0,0 -30,0 -30,0 -6,0 -12,6 -12,12 0,0 0,12 0,12 0,6 6,12 12,12"
       id="path19-7" />
    <text
       text-anchor="middle"
       x="155"
       y="-248.82001"
       font-family="Times, serif"
       font-size="14px"
       id="text19-5">2</text>
  </g>
</svg>
