<?xml version="1.0" encoding="UTF-8" standalone="no"?>
<!-- Generated by graphviz version 12.1.2 (0)
 -->

<!-- Title: HistoryRecord Pages: 1 -->

<svg
   width="387.45099pt"
   height="178.49161pt"
   viewBox="0 0 387.45099 178.49161"
   version="1.1"
   id="svg24"
   sodipodi:docname="tmp-reevaluationTree-pn9.svg"
   inkscape:version="1.3.2 (091e20ef0f, 2023-11-25, custom)"
   xmlns:inkscape="http://www.inkscape.org/namespaces/inkscape"
   xmlns:sodipodi="http://sodipodi.sourceforge.net/DTD/sodipodi-0.dtd"
   xmlns="http://www.w3.org/2000/svg"
   xmlns:svg="http://www.w3.org/2000/svg">
  <defs
     id="defs24" />
  <sodipodi:namedview
     id="namedview24"
     pagecolor="#ffffff"
     bordercolor="#000000"
     borderopacity="0.25"
     inkscape:showpageshadow="2"
     inkscape:pageopacity="0.0"
     inkscape:pagecheckerboard="0"
     inkscape:deskcolor="#d1d1d1"
     inkscape:document-units="pt"
     inkscape:zoom="1.4830317"
     inkscape:cx="321.63844"
     inkscape:cy="119.35011"
     inkscape:window-width="1892"
     inkscape:window-height="1035"
     inkscape:window-x="1929"
     inkscape:window-y="26"
     inkscape:window-maximized="1"
     inkscape:current-layer="svg24"
     showgrid="false" />
  <g
     id="clust1"
     class="cluster"
     transform="translate(-7.5,426.55201)">
    <title
       id="title2">cluster_1</title>
    <path
       fill="none"
       stroke="#000000"
       d="m 20,-373 c 0,0 158,0 158,0 6,0 12,-6 12,-12 0,0 0,-29 0,-29 0,-6 -6,-12 -12,-12 0,0 -158,0 -158,0 -6,0 -12,6 -12,12 0,0 0,29 0,29 0,6 6,12 12,12"
       id="path2" />
  </g>
  <g
     id="node1"
     class="node"
     transform="translate(61.5,426.55201)">
    <title
       id="title8">1CREATION[]</title>
    <path
       fill="none"
       stroke="#000000"
       d="m 28,-381.5 c 0,0 70,0 70,0 6,0 12,-6 12,-12 0,0 0,-12 0,-12 0,-6 -6,-12 -12,-12 0,0 -70,0 -70,0 -6,0 -12,6 -12,12 0,0 0,12 0,12 0,6 6,12 12,12"
       id="path8"
       style="stroke:#ff0000;stroke-opacity:1" />
    <text
       text-anchor="middle"
       x="63"
       y="-394.82001"
       font-family="Times, serif"
       font-size="14px"
       id="text8">NOCREATION</text>
  </g>
  <g
     id="node3"
     class="node"
     transform="translate(-115.5,426.55201)">
    <title
       id="title13">1</title>
    <path
       fill="#d3d3d3"
       stroke="#d3d3d3"
       d="m 140,-381.5 c 0,0 30,0 30,0 6,0 12,-6 12,-12 0,0 0,-12 0,-12 0,-6 -6,-12 -12,-12 0,0 -30,0 -30,0 -6,0 -12,6 -12,12 0,0 0,12 0,12 0,6 6,12 12,12"
       id="path13" />
    <text
       text-anchor="middle"
       x="155"
       y="-394.82001"
       font-family="Times, serif"
       font-size="14px"
       id="text13">1</text>
  </g>
  <g
     id="clust1-3"
     class="cluster"
     transform="translate(196.951,426.5)">
    <title
       id="title2-6">cluster_1</title>
    <path
       fill="none"
       stroke="#000000"
       d="m 20,-373 c 0,0 158,0 158,0 6,0 12,-6 12,-12 0,0 0,-29 0,-29 0,-6 -6,-12 -12,-12 0,0 -158,0 -158,0 -6,0 -12,6 -12,12 0,0 0,29 0,29 0,6 6,12 12,12"
       id="path2-7" />
  </g>
  <path
     fill="none"
     stroke="#000000"
     d="m 293.951,45 c 0,0 70,0 70,0 6,0 12,-6 12,-12 0,0 0,-12 0,-12 0,-6 -6,-12 -12,-12 0,0 -70,0 -70,0 -6,0 -12,6 -12,12 0,0 0,12 0,12 0,6 6,12 12,12"
     id="path8-9"
     style="stroke:#ff0000;stroke-opacity:1" />
  <text
     text-anchor="middle"
     x="328.95099"
     y="31.679993"
     font-family="Times, serif"
     font-size="14px"
     id="text8-1">NOCREATION</text>
  <g
     id="node3-2"
     class="node"
     transform="translate(88.951,426.5)">
    <title
       id="title13-6">1</title>
    <path
       fill="#d3d3d3"
       stroke="#d3d3d3"
       d="m 140,-381.5 c 0,0 30,0 30,0 6,0 12,-6 12,-12 0,0 0,-12 0,-12 0,-6 -6,-12 -12,-12 0,0 -30,0 -30,0 -6,0 -12,6 -12,12 0,0 0,12 0,12 0,6 6,12 12,12"
       id="path13-1" />
    <text
       text-anchor="middle"
       x="155"
       y="-394.82001"
       font-family="Times, serif"
       font-size="14px"
       id="text13-8">1</text>
  </g>
  <rect
     style="fill:none;stroke:#000000;stroke-width:1;stroke-linecap:round;stroke-dasharray:2, 5;stroke-dashoffset:0;stroke-opacity:1"
     id="rect24"
     width="346.24338"
     height="67.26384"
     x="20.603811"
     y="110.72684"
     ry="23.675003" />
  <g
     id="node7-2"
     class="node"
     transform="translate(-117.446,373.05201)">
    <title
       id="title19-3">2</title>
    <path
       fill="#d3d3d3"
       stroke="#d3d3d3"
       d="m 140,-235.5 c 0,0 30,0 30,0 6,0 12,-6 12,-12 0,0 0,-12 0,-12 0,-6 -6,-12 -12,-12 0,0 -30,0 -30,0 -6,0 -12,6 -12,12 0,0 0,12 0,12 0,6 6,12 12,12"
       id="path19-7" />
    <text
       text-anchor="middle"
       x="155"
       y="-248.82001"
       font-family="Times, serif"
       font-size="14px"
       id="text19-5">2</text>
  </g>
</svg>
