<?xml version="1.0" encoding="UTF-8" standalone="no"?>
<!DOCTYPE svg PUBLIC "-//W3C//DTD SVG 1.1//EN"
 "http://www.w3.org/Graphics/SVG/1.1/DTD/svg11.dtd">
<!-- Generated by graphviz version 12.1.2 (0)
 -->
<!-- Title: HistoryRecord Pages: 1 -->
<svg width="206pt" height="442pt"
 viewBox="0.00 0.00 206.00 442.00" xmlns="http://www.w3.org/2000/svg" xmlns:xlink="http://www.w3.org/1999/xlink">
<g id="graph0" class="graph" transform="scale(1 1) rotate(0) translate(4 438)">
<title>HistoryRecord</title>
<polygon fill="white" stroke="none" points="-4,4 -4,-438 202,-438 202,4 -4,4"/>
<g id="clust1" class="cluster">
<title>cluster_1</title>
<path fill="none" stroke="black" d="M20,-373C20,-373 178,-373 178,-373 184,-373 190,-379 190,-385 190,-385 190,-414 190,-414 190,-420 184,-426 178,-426 178,-426 20,-426 20,-426 14,-426 8,-420 8,-414 8,-414 8,-385 8,-385 8,-379 14,-373 20,-373"/>
</g>
<g id="clust2" class="cluster">
<title>cluster_1n0</title>
<polygon fill="none" stroke="black" points="28,-300 28,-353 170,-353 170,-300 28,-300"/>
</g>
<g id="clust3" class="cluster">
<title>cluster_2</title>
<path fill="none" stroke="black" d="M20,-227C20,-227 178,-227 178,-227 184,-227 190,-233 190,-239 190,-239 190,-268 190,-268 190,-274 184,-280 178,-280 178,-280 20,-280 20,-280 14,-280 8,-274 8,-268 8,-268 8,-239 8,-239 8,-233 14,-227 20,-227"/>
</g>
<g id="clust4" class="cluster">
<title>cluster_2n1</title>
<polygon fill="none" stroke="black" points="28,-154 28,-207 170,-207 170,-154 28,-154"/>
</g>
<g id="clust5" class="cluster">
<title>cluster_3</title>
<path fill="none" stroke="black" d="M20,-81C20,-81 178,-81 178,-81 184,-81 190,-87 190,-93 190,-93 190,-122 190,-122 190,-128 184,-134 178,-134 178,-134 20,-134 20,-134 14,-134 8,-128 8,-122 8,-122 8,-93 8,-93 8,-87 14,-81 20,-81"/>
</g>
<g id="clust6" class="cluster">
<title>cluster_3n3</title>
<polygon fill="none" stroke="black" points="19,-8 19,-61 179,-61 179,-8 19,-8"/>
</g>
<!-- 1CREATION[] -->
<g id="node1" class="node">
<title>1CREATION[]</title>
<path fill="none" stroke="black" d="M28,-381.5C28,-381.5 98,-381.5 98,-381.5 104,-381.5 110,-387.5 110,-393.5 110,-393.5 110,-405.5 110,-405.5 110,-411.5 104,-417.5 98,-417.5 98,-417.5 28,-417.5 28,-417.5 22,-417.5 16,-411.5 16,-405.5 16,-405.5 16,-393.5 16,-393.5 16,-387.5 22,-381.5 28,-381.5"/>
<text text-anchor="middle" x="63" y="-394.82" font-family="Times,serif" font-size="14.00">CREATION</text>
</g>
<!-- 1n0[] -->
<g id="node2" class="node">
<title>1n0[]</title>
<polygon fill="none" stroke="black" points="36,-308.5 36,-344.5 90,-344.5 90,-308.5 36,-308.5"/>
<text text-anchor="middle" x="62.75" y="-321.82" font-family="Times,serif" font-size="14.00">⟨⟩</text>
</g>
<!-- 1CREATION[]&#45;&gt;1n0[] -->
<g id="edge1" class="edge">
<title>1CREATION[]&#45;&gt;1n0[]</title>
<path fill="none" stroke="black" d="M63,-381.31C63,-373.73 63,-364.6 63,-356.04"/>
<polygon fill="black" stroke="black" points="66.5,-356.04 63,-346.04 59.5,-356.04 66.5,-356.04"/>
</g>
<!-- 2CREATION[] -->
<g id="node4" class="node">
<title>2CREATION[]</title>
<path fill="none" stroke="black" d="M28,-235.5C28,-235.5 98,-235.5 98,-235.5 104,-235.5 110,-241.5 110,-247.5 110,-247.5 110,-259.5 110,-259.5 110,-265.5 104,-271.5 98,-271.5 98,-271.5 28,-271.5 28,-271.5 22,-271.5 16,-265.5 16,-259.5 16,-259.5 16,-247.5 16,-247.5 16,-241.5 22,-235.5 28,-235.5"/>
<text text-anchor="middle" x="63" y="-248.82" font-family="Times,serif" font-size="14.00">CREATION</text>
</g>
<!-- 1n0[]&#45;&gt;2CREATION[] -->
<g id="edge2" class="edge">
<title>1n0[]&#45;&gt;2CREATION[]</title>
<path fill="none" stroke="red" d="M63,-308.31C63,-300.73 63,-291.6 63,-283.04"/>
<polygon fill="red" stroke="red" points="66.5,-283.04 63,-273.04 59.5,-283.04 66.5,-283.04"/>
</g>
<!-- 1 -->
<g id="node3" class="node">
<title>1</title>
<path fill="lightgrey" stroke="lightgrey" d="M140,-381.5C140,-381.5 170,-381.5 170,-381.5 176,-381.5 182,-387.5 182,-393.5 182,-393.5 182,-405.5 182,-405.5 182,-411.5 176,-417.5 170,-417.5 170,-417.5 140,-417.5 140,-417.5 134,-417.5 128,-411.5 128,-405.5 128,-405.5 128,-393.5 128,-393.5 128,-387.5 134,-381.5 140,-381.5"/>
<text text-anchor="middle" x="155" y="-394.82" font-family="Times,serif" font-size="14.00">1</text>
</g>
<!-- 2n1[] -->
<g id="node6" class="node">
<title>2n1[]</title>
<polygon fill="none" stroke="black" points="36,-162.5 36,-198.5 90,-198.5 90,-162.5 36,-162.5"/>
<text text-anchor="middle" x="62.75" y="-175.82" font-family="Times,serif" font-size="14.00">⟨⟩</text>
</g>
<!-- 2CREATION[]&#45;&gt;2n1[] -->
<g id="edge3" class="edge">
<title>2CREATION[]&#45;&gt;2n1[]</title>
<path fill="none" stroke="black" d="M63,-235.31C63,-227.73 63,-218.6 63,-210.04"/>
<polygon fill="black" stroke="black" points="66.5,-210.04 63,-200.04 59.5,-210.04 66.5,-210.04"/>
</g>
<!-- 1n0 -->
<g id="node5" class="node">
<title>1n0</title>
<polygon fill="lightblue" stroke="lightblue" points="108,-308.5 108,-344.5 162,-344.5 162,-308.5 108,-308.5"/>
<text text-anchor="middle" x="135" y="-321.82" font-family="Times,serif" font-size="14.00">n0</text>
</g>
<!-- 3CREATION[0, 1, 3] -->
<g id="node8" class="node">
<title>3CREATION[0, 1, 3]</title>
<path fill="none" stroke="black" d="M28,-89.5C28,-89.5 98,-89.5 98,-89.5 104,-89.5 110,-95.5 110,-101.5 110,-101.5 110,-113.5 110,-113.5 110,-119.5 104,-125.5 98,-125.5 98,-125.5 28,-125.5 28,-125.5 22,-125.5 16,-119.5 16,-113.5 16,-113.5 16,-101.5 16,-101.5 16,-95.5 22,-89.5 28,-89.5"/>
<text text-anchor="middle" x="63" y="-102.83" font-family="Times,serif" font-size="14.00">CREATION</text>
</g>
<!-- 2n1[]&#45;&gt;3CREATION[0, 1, 3] -->
<g id="edge4" class="edge">
<title>2n1[]&#45;&gt;3CREATION[0, 1, 3]</title>
<path fill="none" stroke="red" d="M63,-162.31C63,-154.73 63,-145.6 63,-137.04"/>
<polygon fill="red" stroke="red" points="66.5,-137.04 63,-127.04 59.5,-137.04 66.5,-137.04"/>
</g>
<!-- 2 -->
<g id="node7" class="node">
<title>2</title>
<path fill="lightgrey" stroke="lightgrey" d="M140,-235.5C140,-235.5 170,-235.5 170,-235.5 176,-235.5 182,-241.5 182,-247.5 182,-247.5 182,-259.5 182,-259.5 182,-265.5 176,-271.5 170,-271.5 170,-271.5 140,-271.5 140,-271.5 134,-271.5 128,-265.5 128,-259.5 128,-259.5 128,-247.5 128,-247.5 128,-241.5 134,-235.5 140,-235.5"/>
<text text-anchor="middle" x="155" y="-248.82" font-family="Times,serif" font-size="14.00">2</text>
</g>
<!-- 3n3[0, 1, 3] -->
<g id="node10" class="node">
<title>3n3[0, 1, 3]</title>
<polygon fill="none" stroke="black" points="27.25,-16.5 27.25,-52.5 98.75,-52.5 98.75,-16.5 27.25,-16.5"/>
<text text-anchor="middle" x="63" y="-29.82" font-family="Times,serif" font-size="14.00">⟨0, 1, 3⟩</text>
</g>
<!-- 3CREATION[0, 1, 3]&#45;&gt;3n3[0, 1, 3] -->
<g id="edge5" class="edge">
<title>3CREATION[0, 1, 3]&#45;&gt;3n3[0, 1, 3]</title>
<path fill="none" stroke="black" d="M63,-89.31C63,-81.73 63,-72.6 63,-64.04"/>
<polygon fill="black" stroke="black" points="66.5,-64.04 63,-54.04 59.5,-64.04 66.5,-64.04"/>
</g>
<!-- 2n1 -->
<g id="node9" class="node">
<title>2n1</title>
<polygon fill="lightblue" stroke="lightblue" points="108,-162.5 108,-198.5 162,-198.5 162,-162.5 108,-162.5"/>
<text text-anchor="middle" x="135" y="-175.82" font-family="Times,serif" font-size="14.00">n1</text>
</g>
<!-- 3 -->
<g id="node11" class="node">
<title>3</title>
<path fill="lightgrey" stroke="lightgrey" d="M140,-89.5C140,-89.5 170,-89.5 170,-89.5 176,-89.5 182,-95.5 182,-101.5 182,-101.5 182,-113.5 182,-113.5 182,-119.5 176,-125.5 170,-125.5 170,-125.5 140,-125.5 140,-125.5 134,-125.5 128,-119.5 128,-113.5 128,-113.5 128,-101.5 128,-101.5 128,-95.5 134,-89.5 140,-89.5"/>
<text text-anchor="middle" x="155" y="-102.83" font-family="Times,serif" font-size="14.00">3</text>
</g>
<!-- 3n3 -->
<g id="node12" class="node">
<title>3n3</title>
<polygon fill="lightblue" stroke="lightblue" points="117,-16.5 117,-52.5 171,-52.5 171,-16.5 117,-16.5"/>
<text text-anchor="middle" x="144" y="-29.82" font-family="Times,serif" font-size="14.00">n3</text>
</g>
</g>
</svg>
