<?xml version="1.0" encoding="UTF-8" standalone="no"?>
<!-- Created with Jerboa -->

<svg
   width="490.02933"
   height="486.40649"
   version="1.1"
   id="svg1"
   sodipodi:docname="fail-reevaluate-face-split.svg"
   inkscape:version="1.3.2 (091e20ef0f, 2023-11-25, custom)"
   xmlns:inkscape="http://www.inkscape.org/namespaces/inkscape"
   xmlns:sodipodi="http://sodipodi.sourceforge.net/DTD/sodipodi-0.dtd"
   xmlns="http://www.w3.org/2000/svg"
   xmlns:svg="http://www.w3.org/2000/svg">
  <defs
     id="defs1" />
  <sodipodi:namedview
     id="namedview1"
     pagecolor="#ffffff"
     bordercolor="#000000"
     borderopacity="0.25"
     inkscape:showpageshadow="2"
     inkscape:pageopacity="0.0"
     inkscape:pagecheckerboard="0"
     inkscape:deskcolor="#d1d1d1"
     showgrid="false"
     inkscape:zoom="0.88530735"
     inkscape:cx="278.43438"
     inkscape:cy="209.53175"
     inkscape:window-width="1892"
     inkscape:window-height="1034"
     inkscape:window-x="9"
     inkscape:window-y="27"
     inkscape:window-maximized="1"
     inkscape:current-layer="svg1" />
  <style
     id="style">
		.arc0 {
			fill:none;
			fill-rule:evenodd;
			stroke:black;
			stroke-width:4;
			stroke-linecap:round;
			stroke-linejoin:round;
			stroke-opacity:1;
		}
		.arc1 {
			fill:none;
			fill-rule:evenodd;
			stroke:red;
			stroke-width:4;
			stroke-linecap:round;
			stroke-linejoin:round;
			stroke-opacity:1;
		}
		.arc2 {
			fill:none;
			fill-rule:evenodd;
			stroke:blue;
			stroke-width:4;
			stroke-linecap:round;
			stroke-linejoin:round;
			stroke-opacity:1;
		}
		.arc3 {
			fill:none;
			fill-rule:evenodd;
			stroke:green;
			stroke-width:4;
			stroke-linecap:round;
			stroke-linejoin:round;
			stroke-opacity:1;
		}
		.topological-dart {
			fill:#000000;
			stroke:#000000;
			stroke-width:0;
			stroke-linecap:round;
			stroke-linejoin:round;
			stroke-dasharray:none;
			paint-order:markers fill stroke;
		}
	</style>
  <polygon
     points="617.4364,137.16345 617.4364,341.05634 604.90625,362.82068 390.0845,362.8207 390.0845,344.16556 390.0845,130.94507 604.90625,130.94507 "
     id="face_8_10_9_12_13_11_1_0"
     style="fill:#c0c0c0;stroke:none"
     opacity="1"
     transform="translate(-388.0845,-128.94507)" />
  <line
     class="arc1"
     id="link0_@1_1"
     x1="2"
     y1="2"
     x2="2"
     y2="2" />
  <line
     class="arc0"
     id="link0_@0_8"
     x1="2"
     y1="2"
     x2="216.82175"
     y2="2" />
  <line
     class="arc0"
     id="link1_@0_11"
     x1="2"
     y1="2"
     x2="2"
     y2="215.22049" />
  <polygon
     points="869.8486,322.40118 683.21967,137.16345 689.48474,130.94507 876.1138,130.94507 876.1138,316.1828 "
     id="face_26_35_34_29_7_6"
     style="fill:#0000ff;stroke:none"
     opacity="1"
     transform="translate(-388.0845,-128.94507)" />
  <line
     class="arc1"
     id="link6_@1_7"
     x1="488.02927"
     y1="2"
     x2="488.02927"
     y2="2" />
  <line
     class="arc0"
     id="link6_@0_26"
     x1="488.02927"
     y1="2"
     x2="488.02927"
     y2="187.23773" />
  <line
     class="arc0"
     id="link7_@0_29"
     x1="488.02927"
     y1="2"
     x2="301.40024"
     y2="2" />
  <line
     class="arc1"
     id="link8_@1_10"
     x1="216.82175"
     y1="2"
     x2="229.3519"
     y2="8.2183838" />
  <line
     class="arc2"
     id="link10_@2_31"
     x1="229.3519"
     y1="8.2183838"
     x2="241.88205"
     y2="14.436768" />
  <line
     class="arc0"
     id="link10_@0_9"
     x1="229.3519"
     y1="8.2183838"
     x2="229.3519"
     y2="212.11127" />
  <line
     class="arc1"
     id="link29_@1_34"
     x1="301.40024"
     y1="2"
     x2="295.13516"
     y2="8.2183838" />
  <line
     class="arc2"
     id="link34_@2_32"
     x1="295.13516"
     y1="8.2183838"
     x2="288.87009"
     y2="14.436768" />
  <line
     class="arc0"
     id="link34_@0_35"
     x1="295.13516"
     y1="8.2183838"
     x2="481.76407"
     y2="193.45612" />
  <polygon
     points="651.8943,344.16553 714.1039,282.41962 714.1039,273.092 651.8943,149.60022 629.96655,143.38184 629.96655,337.94714 "
     id="face_30_36_37_47_46_31"
     style="fill:#0000ff;stroke:none"
     opacity="1"
     transform="translate(-388.0845,-128.94507)" />
  <line
     class="arc1"
     id="link31_@1_46"
     x1="241.88205"
     y1="14.436768"
     x2="263.80978"
     y2="20.655151" />
  <line
     class="arc0"
     id="link31_@0_30"
     x1="241.88205"
     y1="14.436768"
     x2="241.88205"
     y2="209.00208" />
  <polygon
     points="857.3185,344.16553 732.8992,282.41962 723.5016,273.092 661.29193,149.60022 676.9546,143.38184 863.5835,328.6196 "
     id="face_33_42_43_45_44_32"
     style="fill:#0000ff;stroke:none"
     opacity="1"
     transform="translate(-388.0845,-128.94507)" />
  <line
     class="arc1"
     id="link32_@1_44"
     x1="288.87009"
     y1="14.436768"
     x2="273.20743"
     y2="20.655151" />
  <line
     class="arc0"
     id="link32_@0_33"
     x1="288.87009"
     y1="14.436768"
     x2="475.49899"
     y2="199.67453" />
  <line
     class="arc2"
     id="link44_@2_46"
     x1="273.20743"
     y1="20.655151"
     x2="263.80978"
     y2="20.655151" />
  <line
     class="arc0"
     id="link44_@0_45"
     x1="273.20743"
     y1="20.655151"
     x2="335.41708"
     y2="144.14694" />
  <line
     class="arc0"
     id="link46_@0_47"
     x1="263.80978"
     y1="20.655151"
     x2="326.01938"
     y2="144.14694" />
  <line
     class="arc1"
     id="link37_@1_47"
     x1="326.01938"
     y1="153.47455"
     x2="326.01938"
     y2="144.14694" />
  <line
     class="arc2"
     id="link37_@2_39"
     x1="326.01938"
     y1="153.47455"
     x2="335.41708"
     y2="162.80209" />
  <line
     class="arc0"
     id="link37_@0_36"
     x1="326.01938"
     y1="153.47455"
     x2="263.80978"
     y2="215.22046" />
  <line
     class="arc1"
     id="link43_@1_45"
     x1="344.81467"
     y1="153.47455"
     x2="335.41708"
     y2="144.14694" />
  <line
     class="arc2"
     id="link43_@2_41"
     x1="344.81467"
     y1="153.47455"
     x2="344.81467"
     y2="162.80209" />
  <line
     class="arc0"
     id="link43_@0_42"
     x1="344.81467"
     y1="153.47455"
     x2="469.23398"
     y2="215.22046" />
  <line
     class="arc2"
     id="link45_@2_47"
     x1="335.41708"
     y1="144.14694"
     x2="326.01938"
     y2="144.14694" />
  <polygon
     points="667.55707,375.25745 863.5835,375.25745 857.3185,353.49313 732.8992,291.74716 723.5016,291.74716 661.29193,353.49313 "
     id="face_38_27_28_40_41_39"
     style="fill:#0000ff;stroke:none"
     opacity="1"
     transform="translate(-388.0845,-128.94507)" />
  <line
     class="arc1"
     id="link39_@1_41"
     x1="335.41708"
     y1="162.80209"
     x2="344.81467"
     y2="162.80209" />
  <line
     class="arc0"
     id="link39_@0_38"
     x1="335.41708"
     y1="162.80209"
     x2="273.20743"
     y2="224.54807" />
  <line
     class="arc0"
     id="link41_@0_40"
     x1="344.81467"
     y1="162.80209"
     x2="469.23398"
     y2="224.54807" />
  <line
     class="arc1"
     id="link26_@1_35"
     x1="488.02927"
     y1="187.23773"
     x2="481.76407"
     y2="193.45612" />
  <line
     class="arc2"
     id="link35_@2_33"
     x1="481.76407"
     y1="193.45612"
     x2="475.49899"
     y2="199.67453" />
  <line
     class="arc1"
     id="link9_@1_12"
     x1="229.3519"
     y1="212.11127"
     x2="216.82175"
     y2="233.87561" />
  <line
     class="arc2"
     id="link9_@2_30"
     x1="229.3519"
     y1="212.11127"
     x2="241.88205"
     y2="209.00208" />
  <line
     class="arc1"
     id="link30_@1_36"
     x1="241.88205"
     y1="209.00208"
     x2="263.80978"
     y2="215.22046" />
  <line
     class="arc1"
     id="link33_@1_42"
     x1="475.49899"
     y1="199.67453"
     x2="469.23398"
     y2="215.22046" />
  <line
     class="arc1"
     id="link11_@1_13"
     x1="2"
     y1="215.22049"
     x2="2"
     y2="233.87564" />
  <line
     class="arc2"
     id="link36_@2_38"
     x1="263.80978"
     y1="215.22046"
     x2="273.20743"
     y2="224.54807" />
  <line
     class="arc1"
     id="link38_@1_27"
     x1="273.20743"
     y1="224.54807"
     x2="279.47256"
     y2="246.31238" />
  <line
     class="arc1"
     id="link40_@1_28"
     x1="469.23398"
     y1="224.54807"
     x2="475.49899"
     y2="246.31238" />
  <line
     class="arc2"
     id="link40_@2_42"
     x1="469.23398"
     y1="224.54807"
     x2="469.23398"
     y2="215.22046" />
  <line
     class="arc2"
     id="link12_@2_15"
     x1="216.82175"
     y1="233.87561"
     x2="216.82175"
     y2="252.53073" />
  <line
     class="arc0"
     id="link12_@0_13"
     x1="216.82175"
     y1="233.87561"
     x2="2"
     y2="233.87564" />
  <line
     class="arc2"
     id="link13_@2_16"
     x1="2"
     y1="233.87564"
     x2="2"
     y2="252.53076" />
  <polygon
     points="390.0845,400.13098 390.0845,613.35156 390.0845,613.35156 604.90625,613.35156 623.7015,613.35156 623.7015,400.13095 604.90625,381.4758 390.0845,381.47583 "
     id="face_16_14_2_3_17_19_18_15"
     style="fill:#c0c0c0;stroke:none"
     opacity="1"
     transform="translate(-388.0845,-128.94507)" />
  <line
     class="arc1"
     id="link15_@1_18"
     x1="216.82175"
     y1="252.53073"
     x2="235.61697"
     y2="271.18588" />
  <line
     class="arc0"
     id="link15_@0_16"
     x1="216.82175"
     y1="252.53073"
     x2="2"
     y2="252.53076" />
  <line
     class="arc1"
     id="link16_@1_14"
     x1="2"
     y1="252.53076"
     x2="2"
     y2="271.18591" />
  <line
     class="arc2"
     id="link27_@2_24"
     x1="279.47256"
     y1="246.31238"
     x2="276.33994"
     y2="258.74911" />
  <line
     class="arc0"
     id="link27_@0_28"
     x1="279.47256"
     y1="246.31238"
     x2="475.49899"
     y2="246.31238" />
  <line
     class="arc2"
     id="link28_@2_25"
     x1="475.49899"
     y1="246.31238"
     x2="481.76407"
     y2="258.74911" />
  <polygon
     points="876.1138,400.13095 876.11383,613.3515 876.11383,613.3515 661.29193,613.35156 642.4967,613.35156 642.4967,400.13095 664.42444,387.69418 869.8486,387.69418 "
     id="face_25_23_5_4_20_22_21_24"
     style="fill:#c0c0c0;stroke:none"
     opacity="1"
     transform="translate(-388.0845,-128.94507)" />
  <line
     class="arc1"
     id="link24_@1_21"
     x1="276.33994"
     y1="258.74911"
     x2="254.4122"
     y2="271.18588" />
  <line
     class="arc0"
     id="link24_@0_25"
     x1="276.33994"
     y1="258.74911"
     x2="481.76407"
     y2="258.74911" />
  <line
     class="arc1"
     id="link25_@1_23"
     x1="481.76407"
     y1="258.74911"
     x2="488.02927"
     y2="271.18588" />
  <line
     class="arc0"
     id="link14_@0_2"
     x1="2"
     y1="271.18591"
     x2="2"
     y2="484.40649" />
  <line
     class="arc2"
     id="link18_@2_21"
     x1="235.61697"
     y1="271.18588"
     x2="254.4122"
     y2="271.18588" />
  <line
     class="arc0"
     id="link18_@0_19"
     x1="235.61697"
     y1="271.18588"
     x2="235.61697"
     y2="484.40649" />
  <line
     class="arc0"
     id="link21_@0_22"
     x1="254.4122"
     y1="271.18588"
     x2="254.4122"
     y2="484.40649" />
  <line
     class="arc0"
     id="link23_@0_5"
     x1="488.02927"
     y1="271.18588"
     x2="488.02933"
     y2="484.40643" />
  <line
     class="arc1"
     id="link2_@1_3"
     x1="2"
     y1="484.40649"
     x2="2"
     y2="484.40649" />
  <line
     class="arc0"
     id="link3_@0_17"
     x1="2"
     y1="484.40649"
     x2="216.82175"
     y2="484.40649" />
  <line
     class="arc1"
     id="link4_@1_5"
     x1="488.02933"
     y1="484.40643"
     x2="488.02933"
     y2="484.40643" />
  <line
     class="arc0"
     id="link4_@0_20"
     x1="488.02933"
     y1="484.40643"
     x2="273.20743"
     y2="484.40649" />
  <line
     class="arc1"
     id="link17_@1_19"
     x1="216.82175"
     y1="484.40649"
     x2="235.61697"
     y2="484.40649" />
  <line
     class="arc2"
     id="link19_@2_22"
     x1="235.61697"
     y1="484.40649"
     x2="254.4122"
     y2="484.40649" />
  <line
     class="arc1"
     id="link20_@1_22"
     x1="273.20743"
     y1="484.40649"
     x2="254.4122"
     y2="484.40649" />
</svg>
