<?xml version="1.0" encoding="UTF-8" standalone="no"?>
<!-- Created with Jerboa -->

<svg
	width="1412"
	height="651" >
	<style id="style">
		.arc0 {
			fill:none;
			fill-rule:evenodd;
			stroke:black;
			stroke-width:4;
			stroke-linecap:round;
			stroke-linejoin:round;
			stroke-opacity:1;
		}
		.arc1 {
			fill:none;
			fill-rule:evenodd;
			stroke:red;
			stroke-width:4;
			stroke-linecap:round;
			stroke-linejoin:round;
			stroke-opacity:1;
		}
		.arc2 {
			fill:none;
			fill-rule:evenodd;
			stroke:blue;
			stroke-width:4;
			stroke-linecap:round;
			stroke-linejoin:round;
			stroke-opacity:1;
		}
		.arc3 {
			fill:none;
			fill-rule:evenodd;
			stroke:green;
			stroke-width:4;
			stroke-linecap:round;
			stroke-linejoin:round;
			stroke-opacity:1;
		}
		.topological-dart {
			fill:#000000;
			stroke:#000000;
			stroke-width:0;
			stroke-linecap:round;
			stroke-linejoin:round;
			stroke-dasharray:none;
			paint-order:markers fill stroke;
		}
	</style>
<polygon
	points="657.0753,479.89288 657.0753,121.65936 670.2686,106.73468 971.8562,123.80444 985.04956,140.2226 985.04956,498.45612 971.8562,513.38074 670.2686,496.31097 "
	id="face_22_23_18_17_16_15_20_21"
	style="fill:rgb(192,192,192);stroke:none"
	opacity="1.0" />
<line
	class="arc1"
	id="link21_@1_20"
	x1="657.0753"
	y1="479.89288"
	x2="670.2686"
	y2="496.31097" />
<line
	class="arc2"
	id="link21_@2_26"
	x1="657.0753"
	y1="479.89288"
	x2="635.3142"
	y2="480.29605" />
<line
	class="arc0"
	id="link21_@0_22"
	x1="657.0753"
	y1="479.89288"
	x2="657.0753"
	y2="121.65936" />
<polygon
	points="635.3142,480.29605 635.3142,122.0625 626.74634,107.541016 424.29645,133.4527 415.72858,150.27396 415.72858,508.5075 424.29645,523.029 626.74634,497.11725 "
	id="face_27_28_33_32_31_30_25_26"
	style="fill:rgb(192,192,192);stroke:none"
	opacity="1.0" />
<line
	class="arc1"
	id="link26_@1_25"
	x1="635.3142"
	y1="480.29605"
	x2="626.74634"
	y2="497.11725" />
<line
	class="arc0"
	id="link26_@0_27"
	x1="635.3142"
	y1="480.29605"
	x2="635.3142"
	y2="122.0625" />
<line
	class="arc2"
	id="link20_@2_0"
	x1="670.2686"
	y1="496.31097"
	x2="661.7008"
	y2="513.1322" />
<line
	class="arc0"
	id="link20_@0_15"
	x1="670.2686"
	y1="496.31097"
	x2="971.8562"
	y2="513.38074" />
<line
	class="arc2"
	id="link25_@2_1"
	x1="626.74634"
	y1="497.11725"
	x2="639.93964"
	y2="513.53534" />
<line
	class="arc0"
	id="link25_@0_30"
	x1="626.74634"
	y1="497.11725"
	x2="424.29645"
	y2="523.029" />
<polygon
	points="661.7008,513.1322 963.2884,530.2019 967.91394,532.0985 785.25385,559.1304 770.0894,559.90686 588.9667,552.925 575.7734,552.1783 428.9219,540.5969 430.8931,539.07367 639.93964,513.53534 "
	id="face_7_6_5_4_9_8_3_2_1_0"
	style="fill:rgb(192,192,192);stroke:none"
	opacity="1.0" />
<line
	class="arc1"
	id="link0_@1_1"
	x1="661.7008"
	y1="513.1322"
	x2="639.93964"
	y2="513.53534" />
<line
	class="arc0"
	id="link0_@0_7"
	x1="661.7008"
	y1="513.1322"
	x2="963.2884"
	y2="530.2019" />
<line
	class="arc0"
	id="link1_@0_2"
	x1="639.93964"
	y1="513.53534"
	x2="430.8931"
	y2="539.07367" />
<line
	class="arc1"
	id="link22_@1_23"
	x1="657.0753"
	y1="121.65936"
	x2="670.2686"
	y2="106.73468" />
<line
	class="arc2"
	id="link22_@2_27"
	x1="657.0753"
	y1="121.65936"
	x2="635.3142"
	y2="122.0625" />
<line
	class="arc1"
	id="link27_@1_28"
	x1="635.3142"
	y1="122.0625"
	x2="626.74634"
	y2="107.541016" />
<line
	class="arc2"
	id="link23_@2_24"
	x1="670.2686"
	y1="106.73468"
	x2="661.7008"
	y2="92.21326" />
<line
	class="arc0"
	id="link23_@0_18"
	x1="670.2686"
	y1="106.73468"
	x2="971.8562"
	y2="123.80444" />
<line
	class="arc2"
	id="link28_@2_29"
	x1="626.74634"
	y1="107.541016"
	x2="639.93964"
	y2="92.616455" />
<line
	class="arc0"
	id="link28_@0_33"
	x1="626.74634"
	y1="107.541016"
	x2="424.29645"
	y2="133.4527" />
<polygon
	points="661.7008,92.21326 963.2884,109.28302 967.91394,111.17963 785.25385,138.21136 770.0894,138.98792 588.9667,132.00604 575.7734,131.25934 428.9219,119.67798 430.8931,118.15466 639.93964,92.616455 "
	id="face_19_14_59_54_49_44_39_34_29_24"
	style="fill:rgb(192,192,192);stroke:none"
	opacity="1.0" />
<line
	class="arc1"
	id="link24_@1_29"
	x1="661.7008"
	y1="92.21326"
	x2="639.93964"
	y2="92.616455" />
<line
	class="arc0"
	id="link24_@0_19"
	x1="661.7008"
	y1="92.21326"
	x2="963.2884"
	y2="109.28302" />
<line
	class="arc0"
	id="link29_@0_34"
	x1="639.93964"
	y1="92.616455"
	x2="430.8931"
	y2="118.15466" />
<line
	class="arc1"
	id="link15_@1_16"
	x1="971.8562"
	y1="513.38074"
	x2="985.04956"
	y2="498.45612" />
<line
	class="arc2"
	id="link15_@2_7"
	x1="971.8562"
	y1="513.38074"
	x2="963.2884"
	y2="530.2019" />
<line
	class="arc2"
	id="link16_@2_11"
	x1="985.04956"
	y1="498.45612"
	x2="989.6749"
	y2="500.35272" />
<line
	class="arc0"
	id="link16_@0_17"
	x1="985.04956"
	y1="498.45612"
	x2="985.04956"
	y2="140.2226" />
<line
	class="arc1"
	id="link7_@1_6"
	x1="963.2884"
	y1="530.2019"
	x2="967.91394"
	y2="532.0985" />
<polygon
	points="989.6749,500.35272 989.6749,142.1192 981.1071,127.59772 791.8505,154.2561 783.2827,171.07736 783.2827,529.3109 791.8505,543.8324 981.1071,517.17395 "
	id="face_12_13_58_57_56_55_10_11"
	style="fill:rgb(192,192,192);stroke:none"
	opacity="1.0" />
<line
	class="arc1"
	id="link11_@1_10"
	x1="989.6749"
	y1="500.35272"
	x2="981.1071"
	y2="517.17395" />
<line
	class="arc0"
	id="link11_@0_12"
	x1="989.6749"
	y1="500.35272"
	x2="989.6749"
	y2="142.1192" />
<line
	class="arc2"
	id="link6_@2_10"
	x1="967.91394"
	y1="532.0985"
	x2="981.1071"
	y2="517.17395" />
<line
	class="arc0"
	id="link6_@0_5"
	x1="967.91394"
	y1="532.0985"
	x2="785.25385"
	y2="559.1304" />
<line
	class="arc1"
	id="link18_@1_17"
	x1="971.8562"
	y1="123.80444"
	x2="985.04956"
	y2="140.2226" />
<line
	class="arc2"
	id="link18_@2_19"
	x1="971.8562"
	y1="123.80444"
	x2="963.2884"
	y2="109.28302" />
<line
	class="arc2"
	id="link17_@2_12"
	x1="985.04956"
	y1="140.2226"
	x2="989.6749"
	y2="142.1192" />
<line
	class="arc0"
	id="link10_@0_55"
	x1="981.1071"
	y1="517.17395"
	x2="791.8505"
	y2="543.8324" />
<line
	class="arc1"
	id="link19_@1_14"
	x1="963.2884"
	y1="109.28302"
	x2="967.91394"
	y2="111.17963" />
<line
	class="arc1"
	id="link12_@1_13"
	x1="989.6749"
	y1="142.1192"
	x2="981.1071"
	y2="127.59772" />
<line
	class="arc2"
	id="link14_@2_13"
	x1="967.91394"
	y1="111.17963"
	x2="981.1071"
	y2="127.59772" />
<line
	class="arc0"
	id="link14_@0_59"
	x1="967.91394"
	y1="111.17963"
	x2="785.25385"
	y2="138.21136" />
<line
	class="arc0"
	id="link13_@0_58"
	x1="981.1071"
	y1="127.59772"
	x2="791.8505"
	y2="154.2561" />
<line
	class="arc1"
	id="link30_@1_31"
	x1="424.29645"
	y1="523.029"
	x2="415.72858"
	y2="508.5075" />
<line
	class="arc2"
	id="link30_@2_2"
	x1="424.29645"
	y1="523.029"
	x2="430.8931"
	y2="539.07367" />
<line
	class="arc1"
	id="link2_@1_3"
	x1="430.8931"
	y1="539.07367"
	x2="428.9219"
	y2="540.5969" />
<line
	class="arc2"
	id="link31_@2_36"
	x1="415.72858"
	y1="508.5075"
	x2="413.75748"
	y2="510.03076" />
<line
	class="arc0"
	id="link31_@0_32"
	x1="415.72858"
	y1="508.5075"
	x2="415.72858"
	y2="150.27396" />
<line
	class="arc2"
	id="link3_@2_35"
	x1="428.9219"
	y1="540.5969"
	x2="420.35406"
	y2="526.07544" />
<line
	class="arc0"
	id="link3_@0_8"
	x1="428.9219"
	y1="540.5969"
	x2="575.7734"
	y2="552.1783" />
<polygon
	points="413.75748,510.03076 413.75748,151.79718 420.35406,136.49915 569.17676,146.55728 575.7734,162.60202 575.7734,520.8356 569.17676,536.13354 420.35406,526.07544 "
	id="face_37_38_43_42_41_40_35_36"
	style="fill:rgb(192,192,192);stroke:none"
	opacity="1.0" />
<line
	class="arc1"
	id="link36_@1_35"
	x1="413.75748"
	y1="510.03076"
	x2="420.35406"
	y2="526.07544" />
<line
	class="arc0"
	id="link36_@0_37"
	x1="413.75748"
	y1="510.03076"
	x2="413.75748"
	y2="151.79718" />
<line
	class="arc1"
	id="link33_@1_32"
	x1="424.29645"
	y1="133.4527"
	x2="415.72858"
	y2="150.27396" />
<line
	class="arc2"
	id="link33_@2_34"
	x1="424.29645"
	y1="133.4527"
	x2="430.8931"
	y2="118.15466" />
<line
	class="arc0"
	id="link35_@0_40"
	x1="420.35406"
	y1="526.07544"
	x2="569.17676"
	y2="536.13354" />
<line
	class="arc1"
	id="link34_@1_39"
	x1="430.8931"
	y1="118.15466"
	x2="428.9219"
	y2="119.67798" />
<line
	class="arc2"
	id="link32_@2_37"
	x1="415.72858"
	y1="150.27396"
	x2="413.75748"
	y2="151.79718" />
<line
	class="arc2"
	id="link39_@2_38"
	x1="428.9219"
	y1="119.67798"
	x2="420.35406"
	y2="136.49915" />
<line
	class="arc0"
	id="link39_@0_44"
	x1="428.9219"
	y1="119.67798"
	x2="575.7734"
	y2="131.25934" />
<line
	class="arc1"
	id="link37_@1_38"
	x1="413.75748"
	y1="151.79718"
	x2="420.35406"
	y2="136.49915" />
<line
	class="arc0"
	id="link38_@0_43"
	x1="420.35406"
	y1="136.49915"
	x2="569.17676"
	y2="146.55728" />
<line
	class="arc1"
	id="link40_@1_41"
	x1="569.17676"
	y1="536.13354"
	x2="575.7734"
	y2="520.8356" />
<line
	class="arc2"
	id="link40_@2_8"
	x1="569.17676"
	y1="536.13354"
	x2="575.7734"
	y2="552.1783" />
<line
	class="arc1"
	id="link8_@1_9"
	x1="575.7734"
	y1="552.1783"
	x2="588.9667"
	y2="552.925" />
<line
	class="arc2"
	id="link41_@2_46"
	x1="575.7734"
	y1="520.8356"
	x2="588.9667"
	y2="521.5823" />
<line
	class="arc0"
	id="link41_@0_42"
	x1="575.7734"
	y1="520.8356"
	x2="575.7734"
	y2="162.60202" />
<line
	class="arc2"
	id="link9_@2_45"
	x1="588.9667"
	y1="552.925"
	x2="595.5633"
	y2="537.627" />
<line
	class="arc0"
	id="link9_@0_4"
	x1="588.9667"
	y1="552.925"
	x2="770.0894"
	y2="559.90686" />
<polygon
	points="588.9667,521.5823 588.9667,163.34872 595.5633,148.05078 761.52167,155.80914 768.1183,171.85388 768.1183,530.0874 761.52167,545.3854 595.5633,537.627 "
	id="face_47_48_53_52_51_50_45_46"
	style="fill:rgb(192,192,192);stroke:none"
	opacity="1.0" />
<line
	class="arc1"
	id="link46_@1_45"
	x1="588.9667"
	y1="521.5823"
	x2="595.5633"
	y2="537.627" />
<line
	class="arc0"
	id="link46_@0_47"
	x1="588.9667"
	y1="521.5823"
	x2="588.9667"
	y2="163.34872" />
<line
	class="arc0"
	id="link45_@0_50"
	x1="595.5633"
	y1="537.627"
	x2="761.52167"
	y2="545.3854" />
<line
	class="arc1"
	id="link43_@1_42"
	x1="569.17676"
	y1="146.55728"
	x2="575.7734"
	y2="162.60202" />
<line
	class="arc2"
	id="link43_@2_44"
	x1="569.17676"
	y1="146.55728"
	x2="575.7734"
	y2="131.25934" />
<line
	class="arc2"
	id="link42_@2_47"
	x1="575.7734"
	y1="162.60202"
	x2="588.9667"
	y2="163.34872" />
<line
	class="arc1"
	id="link44_@1_49"
	x1="575.7734"
	y1="131.25934"
	x2="588.9667"
	y2="132.00604" />
<line
	class="arc1"
	id="link47_@1_48"
	x1="588.9667"
	y1="163.34872"
	x2="595.5633"
	y2="148.05078" />
<line
	class="arc2"
	id="link49_@2_48"
	x1="588.9667"
	y1="132.00604"
	x2="595.5633"
	y2="148.05078" />
<line
	class="arc0"
	id="link49_@0_54"
	x1="588.9667"
	y1="132.00604"
	x2="770.0894"
	y2="138.98792" />
<line
	class="arc0"
	id="link48_@0_53"
	x1="595.5633"
	y1="148.05078"
	x2="761.52167"
	y2="155.80914" />
<line
	class="arc1"
	id="link5_@1_4"
	x1="785.25385"
	y1="559.1304"
	x2="770.0894"
	y2="559.90686" />
<line
	class="arc2"
	id="link5_@2_55"
	x1="785.25385"
	y1="559.1304"
	x2="791.8505"
	y2="543.8324" />
<line
	class="arc1"
	id="link55_@1_56"
	x1="791.8505"
	y1="543.8324"
	x2="783.2827"
	y2="529.3109" />
<line
	class="arc2"
	id="link4_@2_50"
	x1="770.0894"
	y1="559.90686"
	x2="761.52167"
	y2="545.3854" />
<line
	class="arc2"
	id="link56_@2_51"
	x1="783.2827"
	y1="529.3109"
	x2="768.1183"
	y2="530.0874" />
<line
	class="arc0"
	id="link56_@0_57"
	x1="783.2827"
	y1="529.3109"
	x2="783.2827"
	y2="171.07736" />
<line
	class="arc1"
	id="link50_@1_51"
	x1="761.52167"
	y1="545.3854"
	x2="768.1183"
	y2="530.0874" />
<line
	class="arc0"
	id="link51_@0_52"
	x1="768.1183"
	y1="530.0874"
	x2="768.1183"
	y2="171.85388" />
<line
	class="arc1"
	id="link59_@1_54"
	x1="785.25385"
	y1="138.21136"
	x2="770.0894"
	y2="138.98792" />
<line
	class="arc2"
	id="link59_@2_58"
	x1="785.25385"
	y1="138.21136"
	x2="791.8505"
	y2="154.2561" />
<line
	class="arc1"
	id="link58_@1_57"
	x1="791.8505"
	y1="154.2561"
	x2="783.2827"
	y2="171.07736" />
<line
	class="arc2"
	id="link54_@2_53"
	x1="770.0894"
	y1="138.98792"
	x2="761.52167"
	y2="155.80914" />
<line
	class="arc2"
	id="link57_@2_52"
	x1="783.2827"
	y1="171.07736"
	x2="768.1183"
	y2="171.85388" />
<line
	class="arc1"
	id="link53_@1_52"
	x1="761.52167"
	y1="155.80914"
	x2="768.1183"
	y2="171.85388" />
</svg>
