<?xml version="1.0" encoding="UTF-8" standalone="no"?>
<!-- Created with Jerboa -->

<svg
   width="444.5271"
   height="562.05194"
   version="1.1"
   id="svg1"
   sodipodi:docname="build-v3-10.svg"
   inkscape:version="1.3.2 (091e20ef0f, 2023-11-25, custom)"
   xmlns:inkscape="http://www.inkscape.org/namespaces/inkscape"
   xmlns:sodipodi="http://sodipodi.sourceforge.net/DTD/sodipodi-0.dtd"
   xmlns="http://www.w3.org/2000/svg"
   xmlns:svg="http://www.w3.org/2000/svg">
  <defs
     id="defs1" />
  <sodipodi:namedview
     id="namedview1"
     pagecolor="#ffffff"
     bordercolor="#000000"
     borderopacity="0.25"
     inkscape:showpageshadow="2"
     inkscape:pageopacity="0.0"
     inkscape:pagecheckerboard="0"
     inkscape:deskcolor="#d1d1d1"
     showgrid="false"
     inkscape:zoom="0.87677054"
     inkscape:cx="193.89338"
     inkscape:cy="274.3021"
     inkscape:window-width="1892"
     inkscape:window-height="1034"
     inkscape:window-x="9"
     inkscape:window-y="27"
     inkscape:window-maximized="1"
     inkscape:current-layer="svg1" />
  <style
     id="style">
		.arc0 {
			fill:none;
			fill-rule:evenodd;
			stroke:black;
			stroke-width:4;
			stroke-linecap:round;
			stroke-linejoin:round;
			stroke-opacity:1;
		}
		.arc1 {
			fill:none;
			fill-rule:evenodd;
			stroke:red;
			stroke-width:4;
			stroke-linecap:round;
			stroke-linejoin:round;
			stroke-opacity:1;
		}
		.arc2 {
			fill:none;
			fill-rule:evenodd;
			stroke:blue;
			stroke-width:4;
			stroke-linecap:round;
			stroke-linejoin:round;
			stroke-opacity:1;
		}
		.arc3 {
			fill:none;
			fill-rule:evenodd;
			stroke:green;
			stroke-width:4;
			stroke-linecap:round;
			stroke-linejoin:round;
			stroke-opacity:1;
		}
		.topological-dart {
			fill:#000000;
			stroke:#000000;
			stroke-width:0;
			stroke-linecap:round;
			stroke-linejoin:round;
			stroke-dasharray:none;
			paint-order:markers fill stroke;
		}
	</style>
  <polygon
     points="713.424,263.44296 941.5,276.352 951.4775,288.7682 951.4775,559.6828 941.5,570.96954 713.424,558.06055 703.44653,545.64435 703.44653,274.72977 "
     id="face_22_23_18_17_16_15_20_21"
     style="fill:#c0c0c0;stroke:none"
     opacity="1"
     transform="translate(-512.44836,-51.887634)" />
  <line
     class="arc1"
     id="link21_@1_20"
     x1="190.99817"
     y1="493.75671"
     x2="200.97565"
     y2="506.17291" />
  <line
     class="arc2"
     id="link21_@2_26"
     x1="190.99817"
     y1="493.75671"
     x2="174.54126"
     y2="494.06158" />
  <line
     class="arc0"
     id="link21_@0_22"
     x1="190.99817"
     y1="493.75671"
     x2="190.99817"
     y2="222.84213" />
  <polygon
     points="680.5102,264.0527 527.40717,283.6485 518.4334,302.15414 518.4334,561.2172 527.40717,578.26605 680.5102,558.6703 686.9896,545.9492 686.9896,275.03464 "
     id="face_27_28_33_32_31_30_25_26"
     style="fill:#c0c0c0;stroke:none"
     opacity="1"
     transform="translate(-512.44836,-51.887634)" />
  <line
     class="arc1"
     id="link26_@1_25"
     x1="174.54126"
     y1="494.06158"
     x2="168.06183"
     y2="506.78265" />
  <line
     class="arc0"
     id="link26_@0_27"
     x1="174.54126"
     y1="494.06158"
     x2="174.54126"
     y2="223.147" />
  <line
     class="arc2"
     id="link20_@2_0"
     x1="200.97565"
     y1="506.17291"
     x2="194.49615"
     y2="518.89398" />
  <line
     class="arc0"
     id="link20_@0_15"
     x1="200.97565"
     y1="506.17291"
     x2="429.05164"
     y2="519.08191" />
  <line
     class="arc2"
     id="link25_@2_1"
     x1="168.06183"
     y1="506.78265"
     x2="178.03931"
     y2="519.19885" />
  <line
     class="arc0"
     id="link25_@0_30"
     x1="168.06183"
     y1="506.78265"
     x2="14.958801"
     y2="526.37842" />
  <polygon
     points="938.51855,585.1249 800.3818,605.56775 786.41925,611.9396 654.4336,606.9419 639.46747,606.0948 533.39954,597.6188 532.39594,590.39984 690.4877,571.0865 706.9445,570.7816 935.02057,583.6906 "
     id="face_7_6_5_4_9_8_3_2_1_0"
     style="fill:#c0c0c0;stroke:none"
     opacity="1"
     transform="translate(-512.44836,-51.887634)" />
  <line
     class="arc1"
     id="link0_@1_1"
     x1="194.49615"
     y1="518.89398"
     x2="178.03931"
     y2="519.19885" />
  <line
     class="arc0"
     id="link0_@0_7"
     x1="194.49615"
     y1="518.89398"
     x2="422.5722"
     y2="531.80298" />
  <line
     class="arc0"
     id="link1_@0_2"
     x1="178.03931"
     y1="519.19885"
     x2="19.947571"
     y2="538.51221" />
  <line
     class="arc1"
     id="link22_@1_23"
     x1="190.99817"
     y1="222.84213"
     x2="200.97565"
     y2="211.55533" />
  <line
     class="arc2"
     id="link22_@2_27"
     x1="190.99817"
     y1="222.84213"
     x2="174.54126"
     y2="223.147" />
  <line
     class="arc1"
     id="link27_@1_28"
     x1="174.54126"
     y1="223.147"
     x2="168.06183"
     y2="212.16507" />
  <line
     class="arc2"
     id="link23_@2_24"
     x1="200.97565"
     y1="211.55533"
     x2="194.49615"
     y2="200.57349" />
  <line
     class="arc0"
     id="link23_@0_18"
     x1="200.97565"
     y1="211.55533"
     x2="429.05164"
     y2="224.46436" />
  <line
     class="arc2"
     id="link28_@2_29"
     x1="168.06183"
     y1="212.16507"
     x2="178.03931"
     y2="200.87833" />
  <line
     class="arc0"
     id="link28_@0_33"
     x1="168.06183"
     y1="212.16507"
     x2="14.958801"
     y2="231.76086" />
  <polygon
     points="938.51855,266.80444 800.3818,287.24728 786.41925,281.76767 654.4336,276.76996 639.46747,275.92288 533.39954,267.44684 532.39594,272.0794 690.4877,252.76596 706.9445,252.46112 935.02057,265.37015 "
     id="face_19_14_59_54_49_44_39_34_29_24"
     style="fill:#c0c0c0;stroke:none"
     opacity="1"
     transform="translate(-512.44836,-51.887634)" />
  <line
     class="arc1"
     id="link24_@1_29"
     x1="194.49615"
     y1="200.57349"
     x2="178.03931"
     y2="200.87833" />
  <line
     class="arc3"
     id="link24_@3_102"
     x1="194.49615"
     y1="200.57349"
     x2="195.15686"
     y2="182.0936" />
  <line
     class="arc0"
     id="link24_@0_19"
     x1="194.49615"
     y1="200.57349"
     x2="422.5722"
     y2="213.48251" />
  <polygon
     points="717.0965,60.16815 820.2998,66.0094 829.61664,73.20264 935.5,232.31207 930.8484,238.7146 714.74524,226.48325 705.42847,219.29016 712.44476,66.5708 "
     id="face_105_118_64_111_110_109_103_104"
     style="fill:#c0c0c0;stroke:none"
     opacity="1"
     transform="translate(-512.44836,-51.887634)" />
  <line
     class="arc1"
     id="link104_@1_103"
     x1="192.9801"
     y1="167.40253"
     x2="202.29688"
     y2="174.59561" />
  <line
     class="arc2"
     id="link104_@2_98"
     x1="192.9801"
     y1="167.40253"
     x2="176.52319"
     y2="167.70737" />
  <line
     class="arc0"
     id="link104_@0_105"
     x1="192.9801"
     y1="167.40253"
     x2="199.9964"
     y2="14.683167" />
  <line
     class="arc3"
     id="link29_@3_96"
     x1="178.03931"
     y1="200.87833"
     x2="178.69995"
     y2="182.39841" />
  <line
     class="arc0"
     id="link29_@0_34"
     x1="178.03931"
     y1="200.87833"
     x2="19.947571"
     y2="220.19177" />
  <line
     class="arc2"
     id="link103_@2_102"
     x1="202.29688"
     y1="174.59561"
     x2="195.15686"
     y2="182.0936" />
  <line
     class="arc0"
     id="link103_@0_109"
     x1="202.29688"
     y1="174.59561"
     x2="418.40002"
     y2="186.82697" />
  <polygon
     points="703.93097,60.41205 634.9144,69.29382 627.77435,76.79193 534.5727,239.36469 536.5038,245.6453 681.8315,227.09305 688.97156,219.595 705.8621,66.69269 "
     id="face_99_112_106_93_92_91_97_98"
     style="fill:#c0c0c0;stroke:none"
     opacity="1"
     transform="translate(-512.44836,-51.887634)" />
  <line
     class="arc1"
     id="link98_@1_97"
     x1="176.52319"
     y1="167.70737"
     x2="169.38312"
     y2="175.20541" />
  <line
     class="arc0"
     id="link98_@0_99"
     x1="176.52319"
     y1="167.70737"
     x2="193.41376"
     y2="14.805054" />
  <polygon
     points="933.1928,247.98572 798.94354,267.90683 787.4754,268.494 653.4943,263.3834 643.5169,262.81866 535.4535,254.22968 536.9442,253.07779 691.1483,234.28604 707.6052,233.98123 929.6947,246.55139 "
     id="face_108_114_60_66_72_78_84_90_96_102"
     style="fill:#c0c0c0;stroke:none"
     opacity="1"
     transform="translate(-512.44836,-51.887634)" />
  <line
     class="arc1"
     id="link102_@1_96"
     x1="195.15686"
     y1="182.0936"
     x2="178.69995"
     y2="182.39841" />
  <line
     class="arc0"
     id="link102_@0_108"
     x1="195.15686"
     y1="182.0936"
     x2="417.24634"
     y2="194.66376" />
  <line
     class="arc2"
     id="link96_@2_97"
     x1="178.69995"
     y1="182.39841"
     x2="169.38312"
     y2="175.20541" />
  <line
     class="arc0"
     id="link96_@0_90"
     x1="178.69995"
     y1="182.39841"
     x2="24.49585"
     y2="201.19016" />
  <line
     class="arc0"
     id="link97_@0_91"
     x1="169.38312"
     y1="175.20541"
     x2="24.05542"
     y2="193.75766" />
  <line
     class="arc1"
     id="link15_@1_16"
     x1="429.05164"
     y1="519.08191"
     x2="439.02911"
     y2="507.79517" />
  <line
     class="arc2"
     id="link15_@2_7"
     x1="429.05164"
     y1="519.08191"
     x2="422.5722"
     y2="531.80298" />
  <line
     class="arc2"
     id="link16_@2_11"
     x1="439.02911"
     y1="507.79517"
     x2="442.5271"
     y2="509.22943" />
  <line
     class="arc0"
     id="link16_@0_17"
     x1="439.02911"
     y1="507.79517"
     x2="439.02911"
     y2="236.88055" />
  <line
     class="arc1"
     id="link7_@1_6"
     x1="422.5722"
     y1="531.80298"
     x2="426.07019"
     y2="533.23724" />
  <line
     class="arc1"
     id="link105_@1_118"
     x1="199.9964"
     y1="14.683167"
     x2="204.64813"
     y2="8.2805176" />
  <line
     class="arc2"
     id="link105_@2_99"
     x1="199.9964"
     y1="14.683167"
     x2="193.41376"
     y2="14.805054" />
  <line
     class="arc1"
     id="link99_@1_112"
     x1="193.41376"
     y1="14.805054"
     x2="191.4826"
     y2="8.5244141" />
  <polygon
     points="948.49603,279.22058 805.3705,299.3811 801.3855,318.1691 801.3855,577.23224 805.3705,593.99866 948.49603,573.83813 954.97546,561.11707 954.97546,290.20248 "
     id="face_12_13_58_57_56_55_10_11"
     style="fill:#c0c0c0;stroke:none"
     opacity="1"
     transform="translate(-512.44836,-51.887634)" />
  <line
     class="arc1"
     id="link11_@1_10"
     x1="442.5271"
     y1="509.22943"
     x2="436.04767"
     y2="521.9505" />
  <line
     class="arc0"
     id="link11_@0_12"
     x1="442.5271"
     y1="509.22943"
     x2="442.5271"
     y2="238.31485" />
  <line
     class="arc2"
     id="link6_@2_10"
     x1="426.07019"
     y1="533.23724"
     x2="436.04767"
     y2="521.9505" />
  <line
     class="arc0"
     id="link6_@0_5"
     x1="426.07019"
     y1="533.23724"
     x2="287.93341"
     y2="553.68011" />
  <line
     class="arc1"
     id="link18_@1_17"
     x1="429.05164"
     y1="224.46436"
     x2="439.02911"
     y2="236.88055" />
  <line
     class="arc2"
     id="link18_@2_19"
     x1="429.05164"
     y1="224.46436"
     x2="422.5722"
     y2="213.48251" />
  <line
     class="arc2"
     id="link118_@2_119"
     x1="204.64813"
     y1="8.2805176"
     x2="202.71692"
     y2="2" />
  <line
     class="arc0"
     id="link118_@0_64"
     x1="204.64813"
     y1="8.2805176"
     x2="307.85144"
     y2="14.121765" />
  <line
     class="arc2"
     id="link112_@2_113"
     x1="191.4826"
     y1="8.5244141"
     x2="196.13422"
     y2="2.1219482" />
  <line
     class="arc0"
     id="link112_@0_106"
     x1="191.4826"
     y1="8.5244141"
     x2="122.46606"
     y2="17.406189" />
  <line
     class="arc2"
     id="link17_@2_12"
     x1="439.02911"
     y1="236.88055"
     x2="442.5271"
     y2="238.31485" />
  <line
     class="arc0"
     id="link10_@0_55"
     x1="436.04767"
     y1="521.9505"
     x2="292.92212"
     y2="542.11102" />
  <line
     class="arc1"
     id="link109_@1_110"
     x1="418.40002"
     y1="186.82697"
     x2="423.05164"
     y2="180.42444" />
  <line
     class="arc2"
     id="link109_@2_108"
     x1="418.40002"
     y1="186.82697"
     x2="417.24634"
     y2="194.66376" />
  <line
     class="arc1"
     id="link19_@1_14"
     x1="422.5722"
     y1="213.48251"
     x2="426.07019"
     y2="214.91681" />
  <line
     class="arc3"
     id="link19_@3_108"
     x1="422.5722"
     y1="213.48251"
     x2="417.24634"
     y2="194.66376" />
  <polygon
     points="813.78143,59.963806 754.63904,68.66272 750.0517,68.897644 692.2688,66.61621 688.27783,66.39026 640.86194,62.71753 641.4581,62.256714 708.5826,54.009583 715.1653,53.887634 812.38214,59.390076 "
     id="face_65_71_77_83_89_95_101_107_113_119"
     style="fill:#c0c0c0;stroke:none"
     opacity="1"
     transform="translate(-512.44836,-51.887634)" />
  <line
     class="arc1"
     id="link119_@1_113"
     x1="202.71692"
     y1="2"
     x2="196.13422"
     y2="2.1219482" />
  <line
     class="arc0"
     id="link119_@0_65"
     x1="202.71692"
     y1="2"
     x2="299.93378"
     y2="7.5024414" />
  <line
     class="arc0"
     id="link113_@0_107"
     x1="196.13422"
     y1="2.1219482"
     x2="129.00977"
     y2="10.36908" />
  <line
     class="arc1"
     id="link108_@1_114"
     x1="417.24634"
     y1="194.66376"
     x2="420.74445"
     y2="196.09808" />
  <line
     class="arc2"
     id="link110_@2_116"
     x1="423.05164"
     y1="180.42444"
     x2="426.54968"
     y2="181.85876" />
  <line
     class="arc0"
     id="link110_@0_111"
     x1="423.05164"
     y1="180.42444"
     x2="317.16827"
     y2="21.315002" />
  <line
     class="arc1"
     id="link12_@1_13"
     x1="442.5271"
     y1="238.31485"
     x2="436.04767"
     y2="227.33295" />
  <line
     class="arc2"
     id="link14_@2_13"
     x1="426.07019"
     y1="214.91681"
     x2="436.04767"
     y2="227.33295" />
  <line
     class="arc3"
     id="link14_@3_114"
     x1="426.07019"
     y1="214.91681"
     x2="420.74445"
     y2="196.09808" />
  <line
     class="arc0"
     id="link14_@0_59"
     x1="426.07019"
     y1="214.91681"
     x2="287.93341"
     y2="235.35965" />
  <line
     class="arc2"
     id="link114_@2_115"
     x1="420.74445"
     y1="196.09808"
     x2="425.39606"
     y2="189.69565" />
  <line
     class="arc0"
     id="link114_@0_60"
     x1="420.74445"
     y1="196.09808"
     x2="286.49518"
     y2="216.0192" />
  <polygon
     points="823.09827,67.15686 758.07263,76.26453 756.91907,84.1015 794.57654,254.08081 802.49414,260.70023 937.8444,241.58328 938.99805,233.7464 831.0158,73.77637 "
     id="face_117_70_76_63_62_61_115_116"
     style="fill:#00ff00;stroke:none"
     opacity="1"
     transform="translate(-512.44836,-51.887634)" />
  <line
     class="arc1"
     id="link116_@1_115"
     x1="426.54968"
     y1="181.85876"
     x2="425.39606"
     y2="189.69565" />
  <line
     class="arc0"
     id="link116_@0_117"
     x1="426.54968"
     y1="181.85876"
     x2="318.56744"
     y2="21.888733" />
  <line
     class="arc0"
     id="link13_@0_58"
     x1="436.04767"
     y1="227.33295"
     x2="292.92212"
     y2="247.49347" />
  <line
     class="arc0"
     id="link115_@0_61"
     x1="425.39606"
     y1="189.69565"
     x2="290.04578"
     y2="208.81259" />
  <line
     class="arc1"
     id="link30_@1_31"
     x1="14.958801"
     y1="526.37842"
     x2="5.9850464"
     y2="509.32959" />
  <line
     class="arc2"
     id="link30_@2_2"
     x1="14.958801"
     y1="526.37842"
     x2="19.947571"
     y2="538.51221" />
  <line
     class="arc1"
     id="link2_@1_3"
     x1="19.947571"
     y1="538.51221"
     x2="20.951172"
     y2="545.73114" />
  <line
     class="arc2"
     id="link31_@2_36"
     x1="5.9850464"
     y1="509.32959"
     x2="2"
     y2="504.41461" />
  <line
     class="arc0"
     id="link31_@0_32"
     x1="5.9850464"
     y1="509.32959"
     x2="5.9850464"
     y2="250.26651" />
  <line
     class="arc1"
     id="link64_@1_111"
     x1="307.85144"
     y1="14.121765"
     x2="317.16827"
     y2="21.315002" />
  <line
     class="arc2"
     id="link64_@2_65"
     x1="307.85144"
     y1="14.121765"
     x2="299.93378"
     y2="7.5024414" />
  <line
     class="arc2"
     id="link111_@2_117"
     x1="317.16827"
     y1="21.315002"
     x2="318.56744"
     y2="21.888733" />
  <line
     class="arc2"
     id="link3_@2_35"
     x1="20.951172"
     y1="545.73114"
     x2="16.966125"
     y2="540.81616" />
  <line
     class="arc0"
     id="link3_@0_8"
     x1="20.951172"
     y1="545.73114"
     x2="127.0191"
     y2="554.20715" />
  <line
     class="arc1"
     id="link65_@1_71"
     x1="299.93378"
     y1="7.5024414"
     x2="301.33307"
     y2="8.0761719" />
  <line
     class="arc1"
     id="link117_@1_70"
     x1="318.56744"
     y1="21.888733"
     x2="310.6499"
     y2="15.269226" />
  <polygon
     points="515.452,304.45804 564.9879,424.94186 564.9879,448.64474 515.452,563.5211 514.44836,556.30225 514.44836,309.09064 "
     id="face_37_124_125_123_122_36"
     style="fill:#c0c0c0;stroke:none"
     opacity="1"
     transform="translate(-512.44836,-51.887634)" />
  <line
     class="arc1"
     id="link36_@1_122"
     x1="2"
     y1="504.41461"
     x2="3.0036621"
     y2="511.63348" />
  <line
     class="arc0"
     id="link36_@0_37"
     x1="2"
     y1="504.41461"
     x2="2"
     y2="257.203" />
  <line
     class="arc2"
     id="link70_@2_71"
     x1="310.6499"
     y1="15.269226"
     x2="301.33307"
     y2="8.0761719" />
  <line
     class="arc0"
     id="link70_@0_76"
     x1="310.6499"
     y1="15.269226"
     x2="245.62427"
     y2="24.376892" />
  <line
     class="arc0"
     id="link71_@0_77"
     x1="301.33307"
     y1="8.0761719"
     x2="242.19067"
     y2="16.775085" />
  <line
     class="arc1"
     id="link33_@1_32"
     x1="14.958801"
     y1="231.76086"
     x2="5.9850464"
     y2="250.26651" />
  <line
     class="arc2"
     id="link33_@2_34"
     x1="14.958801"
     y1="231.76086"
     x2="19.947571"
     y2="220.19177" />
  <polygon
     points="629.49,581.82715 579.9541,461.34332 569.9767,460.7786 520.44073,575.65497 529.4145,592.7038 631.9844,599.74554 "
     id="face_40_134_135_121_120_35"
     style="fill:#c0c0c0;stroke:none"
     opacity="1"
     transform="translate(-512.44836,-51.887634)" />
  <line
     class="arc1"
     id="link35_@1_120"
     x1="16.966125"
     y1="540.81616"
     x2="7.9923706"
     y2="523.76733" />
  <line
     class="arc0"
     id="link35_@0_40"
     x1="16.966125"
     y1="540.81616"
     x2="119.53601"
     y2="547.85791" />
  <line
     class="arc1"
     id="link91_@1_92"
     x1="24.05542"
     y1="193.75766"
     x2="22.124329"
     y2="187.47705" />
  <line
     class="arc2"
     id="link91_@2_90"
     x1="24.05542"
     y1="193.75766"
     x2="24.49585"
     y2="201.19016" />
  <line
     class="arc1"
     id="link34_@1_39"
     x1="19.947571"
     y1="220.19177"
     x2="20.951172"
     y2="215.5592" />
  <line
     class="arc3"
     id="link34_@3_90"
     x1="19.947571"
     y1="220.19177"
     x2="24.49585"
     y2="201.19016" />
  <line
     class="arc1"
     id="link90_@1_84"
     x1="24.49585"
     y1="201.19016"
     x2="23.005127"
     y2="202.34204" />
  <line
     class="arc2"
     id="link32_@2_37"
     x1="5.9850464"
     y1="250.26651"
     x2="2"
     y2="257.203" />
  <line
     class="arc2"
     id="link122_@2_120"
     x1="3.0036621"
     y1="511.63348"
     x2="7.9923706"
     y2="523.76733" />
  <line
     class="arc0"
     id="link122_@0_123"
     x1="3.0036621"
     y1="511.63348"
     x2="52.539551"
     y2="396.75711" />
  <line
     class="arc2"
     id="link92_@2_86"
     x1="22.124329"
     y1="187.47705"
     x2="20.633545"
     y2="188.62903" />
  <line
     class="arc0"
     id="link92_@0_93"
     x1="22.124329"
     y1="187.47705"
     x2="115.32599"
     y2="24.904297" />
  <line
     class="arc0"
     id="link120_@0_121"
     x1="7.9923706"
     y1="523.76733"
     x2="57.52832"
     y2="408.89096" />
  <line
     class="arc1"
     id="link37_@1_124"
     x1="2"
     y1="257.203"
     x2="3.0036621"
     y2="252.5704" />
  <line
     class="arc2"
     id="link39_@2_38"
     x1="20.951172"
     y1="215.5592"
     x2="16.966125"
     y2="222.49567" />
  <line
     class="arc3"
     id="link39_@3_84"
     x1="20.951172"
     y1="215.5592"
     x2="23.005127"
     y2="202.34204" />
  <line
     class="arc0"
     id="link39_@0_44"
     x1="20.951172"
     y1="215.5592"
     x2="127.0191"
     y2="224.03525" />
  <line
     class="arc2"
     id="link84_@2_85"
     x1="23.005127"
     y1="202.34204"
     x2="21.074036"
     y2="196.06152" />
  <line
     class="arc0"
     id="link84_@0_78"
     x1="23.005127"
     y1="202.34204"
     x2="131.06854"
     y2="210.93103" />
  <line
     class="arc1"
     id="link106_@1_93"
     x1="122.46606"
     y1="17.406189"
     x2="115.32599"
     y2="24.904297" />
  <line
     class="arc2"
     id="link106_@2_107"
     x1="122.46606"
     y1="17.406189"
     x2="129.00977"
     y2="10.36908" />
  <line
     class="arc1"
     id="link107_@1_101"
     x1="129.00977"
     y1="10.36908"
     x2="128.41357"
     y2="10.829895" />
  <polygon
     points="633.72186,70.21539 684.7273,73.5968 685.16766,81.02942 646.627,248.17957 640.0832,255.2168 533.5224,247.94916 533.0819,240.51666 627.17804,77.25275 "
     id="face_87_100_94_81_80_79_85_86"
     style="fill:#c0c0c0;stroke:none"
     opacity="1"
     transform="translate(-512.44836,-51.887634)" />
  <line
     class="arc1"
     id="link86_@1_85"
     x1="20.633545"
     y1="188.62903"
     x2="21.074036"
     y2="196.06152" />
  <line
     class="arc0"
     id="link86_@0_87"
     x1="20.633545"
     y1="188.62903"
     x2="114.72968"
     y2="25.365112" />
  <line
     class="arc2"
     id="link93_@2_87"
     x1="115.32599"
     y1="24.904297"
     x2="114.72968"
     y2="25.365112" />
  <line
     class="arc0"
     id="link85_@0_79"
     x1="21.074036"
     y1="196.06152"
     x2="127.63483"
     y2="203.32916" />
  <line
     class="arc2"
     id="link101_@2_100"
     x1="128.41357"
     y1="10.829895"
     x2="121.2735"
     y2="18.327759" />
  <line
     class="arc0"
     id="link101_@0_95"
     x1="128.41357"
     y1="10.829895"
     x2="175.82947"
     y2="14.502625" />
  <polygon
     points="629.49,299.06107 579.9541,413.93747 569.9767,413.37274 520.44073,292.88892 529.4145,274.3833 631.9844,281.42502 "
     id="face_43_128_129_127_126_38"
     style="fill:#c0c0c0;stroke:none"
     opacity="1"
     transform="translate(-512.44836,-51.887634)" />
  <line
     class="arc1"
     id="link38_@1_126"
     x1="16.966125"
     y1="222.49567"
     x2="7.9923706"
     y2="241.00128" />
  <line
     class="arc0"
     id="link38_@0_43"
     x1="16.966125"
     y1="222.49567"
     x2="119.53601"
     y2="229.53738" />
  <line
     class="arc1"
     id="link87_@1_100"
     x1="114.72968"
     y1="25.365112"
     x2="121.2735"
     y2="18.327759" />
  <line
     class="arc0"
     id="link100_@0_94"
     x1="121.2735"
     y1="18.327759"
     x2="172.27893"
     y2="21.709167" />
  <line
     class="arc2"
     id="link124_@2_126"
     x1="3.0036621"
     y1="252.5704"
     x2="7.9923706"
     y2="241.00128" />
  <line
     class="arc0"
     id="link124_@0_125"
     x1="3.0036621"
     y1="252.5704"
     x2="52.539551"
     y2="373.05423" />
  <line
     class="arc0"
     id="link126_@0_127"
     x1="7.9923706"
     y1="241.00128"
     x2="57.52832"
     y2="361.48511" />
  <line
     class="arc1"
     id="link123_@1_125"
     x1="52.539551"
     y1="396.75711"
     x2="52.539551"
     y2="373.05423" />
  <line
     class="arc2"
     id="link123_@2_121"
     x1="52.539551"
     y1="396.75711"
     x2="57.52832"
     y2="408.89096" />
  <line
     class="arc1"
     id="link121_@1_135"
     x1="57.52832"
     y1="408.89096"
     x2="67.505737"
     y2="409.45569" />
  <line
     class="arc2"
     id="link125_@2_127"
     x1="52.539551"
     y1="373.05423"
     x2="57.52832"
     y2="361.48511" />
  <line
     class="arc1"
     id="link127_@1_129"
     x1="57.52832"
     y1="361.48511"
     x2="67.505737"
     y2="362.04984" />
  <line
     class="arc2"
     id="link135_@2_133"
     x1="67.505737"
     y1="409.45569"
     x2="72.494446"
     y2="397.88654" />
  <line
     class="arc0"
     id="link135_@0_134"
     x1="67.505737"
     y1="409.45569"
     x2="117.04163"
     y2="529.93951" />
  <line
     class="arc2"
     id="link129_@2_131"
     x1="67.505737"
     y1="362.04984"
     x2="72.494446"
     y2="374.18365" />
  <line
     class="arc0"
     id="link129_@0_128"
     x1="67.505737"
     y1="362.04984"
     x2="117.04163"
     y2="247.17343" />
  <polygon
     points="644.4562,558.97125 644.4562,323.61108 634.47876,311.19485 584.9428,426.0713 584.9428,449.77417 634.47876,570.258 "
     id="face_132_41_42_130_131_133"
     style="fill:#c0c0c0;stroke:none"
     opacity="1"
     transform="translate(-512.44836,-51.887634)" />
  <line
     class="arc1"
     id="link133_@1_131"
     x1="72.494446"
     y1="397.88654"
     x2="72.494446"
     y2="374.18365" />
  <line
     class="arc0"
     id="link133_@0_132"
     x1="72.494446"
     y1="397.88654"
     x2="122.0304"
     y2="518.37036" />
  <line
     class="arc0"
     id="link131_@0_130"
     x1="72.494446"
     y1="374.18365"
     x2="122.0304"
     y2="259.30722" />
  <line
     class="arc1"
     id="link95_@1_89"
     x1="175.82947"
     y1="14.502625"
     x2="179.82043"
     y2="14.728577" />
  <line
     class="arc2"
     id="link95_@2_94"
     x1="175.82947"
     y1="14.502625"
     x2="172.27893"
     y2="21.709167" />
  <line
     class="arc1"
     id="link94_@1_81"
     x1="172.27893"
     y1="21.709167"
     x2="172.7193"
     y2="29.141785" />
  <line
     class="arc2"
     id="link89_@2_88"
     x1="179.82043"
     y1="14.728577"
     x2="180.26093"
     y2="22.16095" />
  <line
     class="arc0"
     id="link89_@0_83"
     x1="179.82043"
     y1="14.728577"
     x2="237.60333"
     y2="17.01001" />
  <line
     class="arc2"
     id="link81_@2_75"
     x1="172.7193"
     y1="29.141785"
     x2="176.71027"
     y2="29.367676" />
  <line
     class="arc0"
     id="link81_@0_80"
     x1="172.7193"
     y1="29.141785"
     x2="134.17865"
     y2="196.29193" />
  <polygon
     points="752.3318,84.336426 783.1084,254.66806 779.55786,261.87466 660.0381,256.3462 656.60443,248.7443 689.1586,81.25531 692.7093,74.048584 748.8981,76.734314 "
     id="face_82_69_68_67_73_74_75_88"
     style="fill:#c0c0c0;stroke:none"
     opacity="1"
     transform="translate(-512.44836,-51.887634)" />
  <line
     class="arc1"
     id="link88_@1_75"
     x1="180.26093"
     y1="22.16095"
     x2="176.71027"
     y2="29.367676" />
  <line
     class="arc0"
     id="link88_@0_82"
     x1="180.26093"
     y1="22.16095"
     x2="236.44971"
     y2="24.84668" />
  <line
     class="arc0"
     id="link75_@0_74"
     x1="176.71027"
     y1="29.367676"
     x2="144.15607"
     y2="196.85666" />
  <line
     class="arc1"
     id="link40_@1_134"
     x1="119.53601"
     y1="547.85791"
     x2="117.04163"
     y2="529.93951" />
  <line
     class="arc2"
     id="link40_@2_8"
     x1="119.53601"
     y1="547.85791"
     x2="127.0191"
     y2="554.20715" />
  <line
     class="arc2"
     id="link134_@2_132"
     x1="117.04163"
     y1="529.93951"
     x2="122.0304"
     y2="518.37036" />
  <line
     class="arc1"
     id="link8_@1_9"
     x1="127.0191"
     y1="554.20715"
     x2="141.98523"
     y2="555.05426" />
  <line
     class="arc1"
     id="link132_@1_41"
     x1="122.0304"
     y1="518.37036"
     x2="132.00781"
     y2="507.08362" />
  <line
     class="arc2"
     id="link41_@2_46"
     x1="132.00781"
     y1="507.08362"
     x2="136.99652"
     y2="507.36597" />
  <line
     class="arc0"
     id="link41_@0_42"
     x1="132.00781"
     y1="507.08362"
     x2="132.00781"
     y2="271.72345" />
  <line
     class="arc2"
     id="link9_@2_45"
     x1="141.98523"
     y1="555.05426"
     x2="149.46832"
     y2="549.552" />
  <line
     class="arc0"
     id="link9_@0_4"
     x1="141.98523"
     y1="555.05426"
     x2="273.97089"
     y2="560.05194" />
  <line
     class="arc1"
     id="link77_@1_83"
     x1="242.19067"
     y1="16.775085"
     x2="237.60333"
     y2="17.01001" />
  <line
     class="arc2"
     id="link77_@2_76"
     x1="242.19067"
     y1="16.775085"
     x2="245.62427"
     y2="24.376892" />
  <polygon
     points="659.42236,312.60666 708.9583,433.0905 708.9583,456.7934 659.42236,571.6698 649.4449,559.2536 649.4449,323.8934 "
     id="face_47_146_147_149_148_46"
     style="fill:#c0c0c0;stroke:none"
     opacity="1"
     transform="translate(-512.44836,-51.887634)" />
  <line
     class="arc1"
     id="link46_@1_148"
     x1="136.99652"
     y1="507.36597"
     x2="146.974"
     y2="519.78217" />
  <line
     class="arc0"
     id="link46_@0_47"
     x1="136.99652"
     y1="507.36597"
     x2="136.99652"
     y2="272.00577" />
  <line
     class="arc2"
     id="link83_@2_82"
     x1="237.60333"
     y1="17.01001"
     x2="236.44971"
     y2="24.84668" />
  <polygon
     points="773.4604,589.97577 723.92444,469.49197 713.94696,468.92725 664.4111,583.80365 661.9167,601.43964 777.44543,606.74225 "
     id="face_50_136_137_151_150_45"
     style="fill:#c0c0c0;stroke:none"
     opacity="1"
     transform="translate(-512.44836,-51.887634)" />
  <line
     class="arc1"
     id="link45_@1_150"
     x1="149.46832"
     y1="549.552"
     x2="151.96271"
     y2="531.91602" />
  <line
     class="arc0"
     id="link45_@0_50"
     x1="149.46832"
     y1="549.552"
     x2="264.99707"
     y2="554.85461" />
  <line
     class="arc1"
     id="link76_@1_63"
     x1="245.62427"
     y1="24.376892"
     x2="244.4707"
     y2="32.213867" />
  <line
     class="arc2"
     id="link148_@2_150"
     x1="146.974"
     y1="519.78217"
     x2="151.96271"
     y2="531.91602" />
  <line
     class="arc0"
     id="link148_@0_149"
     x1="146.974"
     y1="519.78217"
     x2="196.50995"
     y2="404.90576" />
  <line
     class="arc0"
     id="link150_@0_151"
     x1="151.96271"
     y1="531.91602"
     x2="201.4986"
     y2="417.03961" />
  <line
     class="arc1"
     id="link82_@1_69"
     x1="236.44971"
     y1="24.84668"
     x2="239.88342"
     y2="32.448792" />
  <line
     class="arc1"
     id="link128_@1_43"
     x1="117.04163"
     y1="247.17343"
     x2="119.53601"
     y2="229.53738" />
  <line
     class="arc2"
     id="link128_@2_130"
     x1="117.04163"
     y1="247.17343"
     x2="122.0304"
     y2="259.30722" />
  <line
     class="arc2"
     id="link63_@2_69"
     x1="244.4707"
     y1="32.213867"
     x2="239.88342"
     y2="32.448792" />
  <line
     class="arc0"
     id="link63_@0_62"
     x1="244.4707"
     y1="32.213867"
     x2="282.12817"
     y2="202.19318" />
  <line
     class="arc1"
     id="link130_@1_42"
     x1="122.0304"
     y1="259.30722"
     x2="132.00781"
     y2="271.72345" />
  <line
     class="arc2"
     id="link43_@2_44"
     x1="119.53601"
     y1="229.53738"
     x2="127.0191"
     y2="224.03525" />
  <line
     class="arc1"
     id="link79_@1_80"
     x1="127.63483"
     y1="203.32916"
     x2="134.17865"
     y2="196.29193" />
  <line
     class="arc2"
     id="link79_@2_78"
     x1="127.63483"
     y1="203.32916"
     x2="131.06854"
     y2="210.93103" />
  <line
     class="arc0"
     id="link69_@0_68"
     x1="239.88342"
     y1="32.448792"
     x2="270.66003"
     y2="202.78043" />
  <line
     class="arc2"
     id="link80_@2_74"
     x1="134.17865"
     y1="196.29193"
     x2="144.15607"
     y2="196.85666" />
  <line
     class="arc2"
     id="link42_@2_47"
     x1="132.00781"
     y1="271.72345"
     x2="136.99652"
     y2="272.00577" />
  <line
     class="arc1"
     id="link44_@1_49"
     x1="127.0191"
     y1="224.03525"
     x2="141.98523"
     y2="224.88232" />
  <line
     class="arc3"
     id="link44_@3_78"
     x1="127.0191"
     y1="224.03525"
     x2="131.06854"
     y2="210.93103" />
  <line
     class="arc1"
     id="link78_@1_72"
     x1="131.06854"
     y1="210.93103"
     x2="141.04596"
     y2="211.49576" />
  <line
     class="arc1"
     id="link47_@1_146"
     x1="136.99652"
     y1="272.00577"
     x2="146.974"
     y2="260.71902" />
  <line
     class="arc1"
     id="link74_@1_73"
     x1="144.15607"
     y1="196.85666"
     x2="147.58972"
     y2="204.45856" />
  <line
     class="arc2"
     id="link72_@2_73"
     x1="141.04596"
     y1="211.49576"
     x2="147.58972"
     y2="204.45856" />
  <line
     class="arc3"
     id="link72_@3_49"
     x1="141.04596"
     y1="211.49576"
     x2="141.98523"
     y2="224.88232" />
  <line
     class="arc0"
     id="link72_@0_66"
     x1="141.04596"
     y1="211.49576"
     x2="275.02704"
     y2="216.60635" />
  <line
     class="arc0"
     id="link73_@0_67"
     x1="147.58972"
     y1="204.45856"
     x2="267.1095"
     y2="209.98703" />
  <line
     class="arc2"
     id="link49_@2_48"
     x1="141.98523"
     y1="224.88232"
     x2="149.46832"
     y2="231.23157" />
  <line
     class="arc0"
     id="link49_@0_54"
     x1="141.98523"
     y1="224.88232"
     x2="273.97089"
     y2="229.88004" />
  <line
     class="arc2"
     id="link146_@2_144"
     x1="146.974"
     y1="260.71902"
     x2="151.96271"
     y2="249.14996" />
  <line
     class="arc0"
     id="link146_@0_147"
     x1="146.974"
     y1="260.71902"
     x2="196.50995"
     y2="381.20288" />
  <polygon
     points="773.4604,307.20972 723.92444,422.08612 713.94696,421.52142 664.4111,301.0376 661.9167,283.1192 777.44543,288.42175 "
     id="face_53_142_143_145_144_48"
     style="fill:#c0c0c0;stroke:none"
     opacity="1"
     transform="translate(-512.44836,-51.887634)" />
  <line
     class="arc1"
     id="link48_@1_144"
     x1="149.46832"
     y1="231.23157"
     x2="151.96271"
     y2="249.14996" />
  <line
     class="arc0"
     id="link48_@0_53"
     x1="149.46832"
     y1="231.23157"
     x2="264.99707"
     y2="236.53412" />
  <line
     class="arc0"
     id="link144_@0_145"
     x1="151.96271"
     y1="249.14996"
     x2="201.4986"
     y2="369.63379" />
  <line
     class="arc1"
     id="link149_@1_147"
     x1="196.50995"
     y1="404.90576"
     x2="196.50995"
     y2="381.20288" />
  <line
     class="arc2"
     id="link149_@2_151"
     x1="196.50995"
     y1="404.90576"
     x2="201.4986"
     y2="417.03961" />
  <line
     class="arc2"
     id="link147_@2_145"
     x1="196.50995"
     y1="381.20288"
     x2="201.4986"
     y2="369.63379" />
  <line
     class="arc1"
     id="link151_@1_137"
     x1="201.4986"
     y1="417.03961"
     x2="211.47607"
     y2="417.60434" />
  <line
     class="arc1"
     id="link5_@1_4"
     x1="287.93341"
     y1="553.68011"
     x2="273.97089"
     y2="560.05194" />
  <line
     class="arc2"
     id="link5_@2_55"
     x1="287.93341"
     y1="553.68011"
     x2="292.92212"
     y2="542.11102" />
  <line
     class="arc1"
     id="link145_@1_143"
     x1="201.4986"
     y1="369.63379"
     x2="211.47607"
     y2="370.19849" />
  <line
     class="arc2"
     id="link4_@2_50"
     x1="273.97089"
     y1="560.05194"
     x2="264.99707"
     y2="554.85461" />
  <line
     class="arc1"
     id="link55_@1_56"
     x1="292.92212"
     y1="542.11102"
     x2="288.93713"
     y2="525.3446" />
  <line
     class="arc2"
     id="link137_@2_139"
     x1="211.47607"
     y1="417.60434"
     x2="216.46478"
     y2="406.03522" />
  <line
     class="arc0"
     id="link137_@0_136"
     x1="211.47607"
     y1="417.60434"
     x2="261.01202"
     y2="538.08813" />
  <polygon
     points="792.41156,572.03485 792.41156,324.82324 778.44916,319.34354 728.91315,434.21997 728.91315,457.92285 778.44916,578.4067 "
     id="face_138_51_52_140_141_139"
     style="fill:#c0c0c0;stroke:none"
     opacity="1"
     transform="translate(-512.44836,-51.887634)" />
  <line
     class="arc1"
     id="link139_@1_141"
     x1="216.46478"
     y1="406.03522"
     x2="216.46478"
     y2="382.33234" />
  <line
     class="arc0"
     id="link139_@0_138"
     x1="216.46478"
     y1="406.03522"
     x2="266.00079"
     y2="526.51904" />
  <line
     class="arc2"
     id="link143_@2_141"
     x1="211.47607"
     y1="370.19849"
     x2="216.46478"
     y2="382.33234" />
  <line
     class="arc0"
     id="link143_@0_142"
     x1="211.47607"
     y1="370.19849"
     x2="261.01202"
     y2="255.32208" />
  <line
     class="arc0"
     id="link141_@0_140"
     x1="216.46478"
     y1="382.33234"
     x2="266.00079"
     y2="267.4559" />
  <line
     class="arc1"
     id="link50_@1_136"
     x1="264.99707"
     y1="554.85461"
     x2="261.01202"
     y2="538.08813" />
  <line
     class="arc2"
     id="link56_@2_51"
     x1="288.93713"
     y1="525.3446"
     x2="279.9632"
     y2="520.14722" />
  <line
     class="arc0"
     id="link56_@0_57"
     x1="288.93713"
     y1="525.3446"
     x2="288.93713"
     y2="266.28146" />
  <line
     class="arc1"
     id="link60_@1_66"
     x1="286.49518"
     y1="216.0192"
     x2="275.02704"
     y2="216.60635" />
  <line
     class="arc2"
     id="link60_@2_61"
     x1="286.49518"
     y1="216.0192"
     x2="290.04578"
     y2="208.81259" />
  <line
     class="arc3"
     id="link60_@3_59"
     x1="286.49518"
     y1="216.0192"
     x2="287.93341"
     y2="235.35965" />
  <line
     class="arc1"
     id="link61_@1_62"
     x1="290.04578"
     y1="208.81259"
     x2="282.12817"
     y2="202.19318" />
  <line
     class="arc1"
     id="link51_@1_138"
     x1="279.9632"
     y1="520.14722"
     x2="266.00079"
     y2="526.51904" />
  <line
     class="arc0"
     id="link51_@0_52"
     x1="279.9632"
     y1="520.14722"
     x2="279.9632"
     y2="272.93561" />
  <line
     class="arc2"
     id="link136_@2_138"
     x1="261.01202"
     y1="538.08813"
     x2="266.00079"
     y2="526.51904" />
  <line
     class="arc1"
     id="link59_@1_54"
     x1="287.93341"
     y1="235.35965"
     x2="273.97089"
     y2="229.88004" />
  <line
     class="arc2"
     id="link59_@2_58"
     x1="287.93341"
     y1="235.35965"
     x2="292.92212"
     y2="247.49347" />
  <line
     class="arc1"
     id="link58_@1_57"
     x1="292.92212"
     y1="247.49347"
     x2="288.93713"
     y2="266.28146" />
  <line
     class="arc2"
     id="link62_@2_68"
     x1="282.12817"
     y1="202.19318"
     x2="270.66003"
     y2="202.78043" />
  <line
     class="arc2"
     id="link66_@2_67"
     x1="275.02704"
     y1="216.60635"
     x2="267.1095"
     y2="209.98703" />
  <line
     class="arc3"
     id="link66_@3_54"
     x1="275.02704"
     y1="216.60635"
     x2="273.97089"
     y2="229.88004" />
  <line
     class="arc2"
     id="link54_@2_53"
     x1="273.97089"
     y1="229.88004"
     x2="264.99707"
     y2="236.53412" />
  <line
     class="arc1"
     id="link67_@1_68"
     x1="267.1095"
     y1="209.98703"
     x2="270.66003"
     y2="202.78043" />
  <line
     class="arc2"
     id="link57_@2_52"
     x1="288.93713"
     y1="266.28146"
     x2="279.9632"
     y2="272.93561" />
  <line
     class="arc1"
     id="link53_@1_142"
     x1="264.99707"
     y1="236.53412"
     x2="261.01202"
     y2="255.32208" />
  <line
     class="arc1"
     id="link52_@1_140"
     x1="279.9632"
     y1="272.93561"
     x2="266.00079"
     y2="267.4559" />
  <line
     class="arc2"
     id="link142_@2_140"
     x1="261.01202"
     y1="255.32208"
     x2="266.00079"
     y2="267.4559" />
</svg>
