<?xml version="1.0" encoding="UTF-8" standalone="no"?>
<!-- Created with Jerboa -->

<svg
   width="355.51093"
   height="563.75128"
   version="1.1"
   id="svg1"
   sodipodi:docname="build-v3-7.svg"
   inkscape:version="1.3.2 (091e20ef0f, 2023-11-25, custom)"
   xmlns:inkscape="http://www.inkscape.org/namespaces/inkscape"
   xmlns:sodipodi="http://sodipodi.sourceforge.net/DTD/sodipodi-0.dtd"
   xmlns="http://www.w3.org/2000/svg"
   xmlns:svg="http://www.w3.org/2000/svg">
  <defs
     id="defs1" />
  <sodipodi:namedview
     id="namedview1"
     pagecolor="#ffffff"
     bordercolor="#000000"
     borderopacity="0.25"
     inkscape:showpageshadow="2"
     inkscape:pageopacity="0.0"
     inkscape:pagecheckerboard="0"
     inkscape:deskcolor="#d1d1d1"
     showgrid="false"
     inkscape:zoom="0.87677054"
     inkscape:cx="167.66074"
     inkscape:cy="281.1454"
     inkscape:window-width="1892"
     inkscape:window-height="1034"
     inkscape:window-x="9"
     inkscape:window-y="27"
     inkscape:window-maximized="1"
     inkscape:current-layer="svg1" />
  <style
     id="style">
		.arc0 {
			fill:none;
			fill-rule:evenodd;
			stroke:black;
			stroke-width:4;
			stroke-linecap:round;
			stroke-linejoin:round;
			stroke-opacity:1;
		}
		.arc1 {
			fill:none;
			fill-rule:evenodd;
			stroke:red;
			stroke-width:4;
			stroke-linecap:round;
			stroke-linejoin:round;
			stroke-opacity:1;
		}
		.arc2 {
			fill:none;
			fill-rule:evenodd;
			stroke:blue;
			stroke-width:4;
			stroke-linecap:round;
			stroke-linejoin:round;
			stroke-opacity:1;
		}
		.arc3 {
			fill:none;
			fill-rule:evenodd;
			stroke:green;
			stroke-width:4;
			stroke-linecap:round;
			stroke-linejoin:round;
			stroke-opacity:1;
		}
		.topological-dart {
			fill:#000000;
			stroke:#000000;
			stroke-width:0;
			stroke-linecap:round;
			stroke-linejoin:round;
			stroke-dasharray:none;
			paint-order:markers fill stroke;
		}
	</style>
  <polygon
     points="699.3589,327.94217 881.34814,338.24268 889.3095,348.15 889.3095,564.32166 881.34814,573.3277 699.3589,563.02716 691.3975,553.1199 691.3975,336.94824 "
     id="face_22_23_18_17_16_15_20_21"
     style="fill:#c0c0c0;stroke:none"
     opacity="1"
     transform="translate(-538.58972,-44.2677)" />
  <line
     class="arc1"
     id="link21_@1_20"
     x1="152.8078"
     y1="508.85217"
     x2="160.76917"
     y2="518.75946" />
  <line
     class="arc2"
     id="link21_@2_26"
     x1="152.8078"
     y1="508.85217"
     x2="139.67633"
     y2="509.09546" />
  <line
     class="arc0"
     id="link21_@0_22"
     x1="152.8078"
     y1="508.85217"
     x2="152.8078"
     y2="292.68054" />
  <polygon
     points="673.0959,328.4287 550.93005,344.06482 543.76953,358.83105 543.76953,565.546 550.93005,579.14984 673.0959,563.5137 678.26605,553.36316 678.26605,337.19153 "
     id="face_27_28_33_32_31_30_25_26"
     style="fill:#c0c0c0;stroke:none"
     opacity="1"
     transform="translate(-538.58972,-44.2677)" />
  <line
     class="arc1"
     id="link26_@1_25"
     x1="139.67633"
     y1="509.09546"
     x2="134.50616"
     y2="519.24597" />
  <line
     class="arc0"
     id="link26_@0_27"
     x1="139.67633"
     y1="509.09546"
     x2="139.67633"
     y2="292.92383" />
  <line
     class="arc2"
     id="link20_@2_0"
     x1="160.76917"
     y1="518.75946"
     x2="155.599"
     y2="528.91003" />
  <line
     class="arc0"
     id="link20_@0_15"
     x1="160.76917"
     y1="518.75946"
     x2="342.75842"
     y2="529.06" />
  <line
     class="arc2"
     id="link25_@2_1"
     x1="134.50616"
     y1="519.24597"
     x2="142.46753"
     y2="529.15332" />
  <line
     class="arc0"
     id="link25_@0_30"
     x1="134.50616"
     y1="519.24597"
     x2="12.340332"
     y2="534.88214" />
  <polygon
     points="878.96924,584.62274 768.7453,600.93475 757.6042,606.019 652.2886,602.0312 640.3466,601.3553 555.7115,594.592 554.9107,588.8318 681.05725,573.421 694.1887,573.17773 876.17804,583.4783 "
     id="face_7_6_5_4_9_8_3_2_1_0"
     style="fill:#c0c0c0;stroke:none"
     opacity="1"
     transform="translate(-538.58972,-44.2677)" />
  <line
     class="arc1"
     id="link0_@1_1"
     x1="155.599"
     y1="528.91003"
     x2="142.46753"
     y2="529.15332" />
  <line
     class="arc0"
     id="link0_@0_7"
     x1="155.599"
     y1="528.91003"
     x2="337.58832"
     y2="539.21057" />
  <line
     class="arc0"
     id="link1_@0_2"
     x1="142.46753"
     y1="529.15332"
     x2="16.320984"
     y2="544.56409" />
  <line
     class="arc1"
     id="link22_@1_23"
     x1="152.8078"
     y1="292.68054"
     x2="160.76917"
     y2="283.67447" />
  <line
     class="arc2"
     id="link22_@2_27"
     x1="152.8078"
     y1="292.68054"
     x2="139.67633"
     y2="292.92383" />
  <line
     class="arc1"
     id="link27_@1_28"
     x1="139.67633"
     y1="292.92383"
     x2="134.50616"
     y2="284.16101" />
  <polygon
     points="699.3589,55.030518 881.34814,65.331055 889.3095,75.23822 889.3095,291.40994 881.34814,300.41605 699.3589,290.11554 691.3975,280.20822 691.3975,64.0365 "
     id="face_105_106_112_111_110_109_103_104"
     style="fill:#c0c0c0;stroke:none"
     opacity="1"
     transform="translate(-538.58972,-44.2677)" />
  <line
     class="arc1"
     id="link104_@1_103"
     x1="152.8078"
     y1="235.94052"
     x2="160.76917"
     y2="245.84784" />
  <line
     class="arc2"
     id="link104_@2_98"
     x1="152.8078"
     y1="235.94052"
     x2="139.67633"
     y2="236.18381" />
  <line
     class="arc0"
     id="link104_@0_105"
     x1="152.8078"
     y1="235.94052"
     x2="152.8078"
     y2="19.768799" />
  <line
     class="arc2"
     id="link23_@2_24"
     x1="160.76917"
     y1="283.67447"
     x2="155.599"
     y2="274.91171" />
  <line
     class="arc0"
     id="link23_@0_18"
     x1="160.76917"
     y1="283.67447"
     x2="342.75842"
     y2="293.97498" />
  <polygon
     points="673.0959,55.51709 550.93005,71.15314 545.7598,81.30359 545.7598,297.47534 550.93005,306.2382 673.0959,290.60208 678.26605,280.4515 678.26605,64.279724 "
     id="face_99_100_94_93_92_91_97_98"
     style="fill:#c0c0c0;stroke:none"
     opacity="1"
     transform="translate(-538.58972,-44.2677)" />
  <line
     class="arc1"
     id="link98_@1_97"
     x1="139.67633"
     y1="236.18381"
     x2="134.50616"
     y2="246.33438" />
  <line
     class="arc0"
     id="link98_@0_99"
     x1="139.67633"
     y1="236.18381"
     x2="139.67633"
     y2="20.012024" />
  <line
     class="arc2"
     id="link103_@2_102"
     x1="160.76917"
     y1="245.84784"
     x2="155.599"
     y2="255.99838" />
  <line
     class="arc0"
     id="link103_@0_109"
     x1="160.76917"
     y1="245.84784"
     x2="342.75842"
     y2="256.14835" />
  <line
     class="arc2"
     id="link28_@2_29"
     x1="134.50616"
     y1="284.16101"
     x2="142.46753"
     y2="275.15497" />
  <line
     class="arc0"
     id="link28_@0_33"
     x1="134.50616"
     y1="284.16101"
     x2="12.340332"
     y2="299.79712" />
  <polygon
     points="878.96924,330.6244 768.7453,346.9364 757.6042,342.56403 652.2886,338.57617 640.3466,337.90027 555.7115,331.13696 554.9107,334.83347 681.05725,319.42267 694.1887,319.1794 876.17804,329.47992 "
     id="face_19_14_59_54_49_44_39_34_29_24"
     style="fill:#c0c0c0;stroke:none"
     opacity="1"
     transform="translate(-538.58972,-44.2677)" />
  <line
     class="arc1"
     id="link24_@1_29"
     x1="155.599"
     y1="274.91171"
     x2="142.46753"
     y2="275.15497" />
  <line
     class="arc3"
     id="link24_@3_102"
     x1="155.599"
     y1="274.91171"
     x2="155.599"
     y2="255.99838" />
  <line
     class="arc0"
     id="link24_@0_19"
     x1="155.599"
     y1="274.91171"
     x2="337.58832"
     y2="285.21222" />
  <line
     class="arc2"
     id="link97_@2_96"
     x1="134.50616"
     y1="246.33438"
     x2="142.46753"
     y2="256.24164" />
  <line
     class="arc0"
     id="link97_@0_91"
     x1="134.50616"
     y1="246.33438"
     x2="12.340332"
     y2="261.97049" />
  <polygon
     points="878.96924,311.71106 768.7453,328.02307 759.59454,328.49167 650.2982,324.27853 642.3369,323.8279 553.7212,316.83932 554.9107,315.92014 681.05725,300.50934 694.1887,300.26608 876.17804,310.5666 "
     id="face_108_114_60_66_72_78_84_90_96_102"
     style="fill:#c0c0c0;stroke:none"
     opacity="1"
     transform="translate(-538.58972,-44.2677)" />
  <line
     class="arc1"
     id="link102_@1_96"
     x1="155.599"
     y1="255.99838"
     x2="142.46753"
     y2="256.24164" />
  <line
     class="arc0"
     id="link102_@0_108"
     x1="155.599"
     y1="255.99838"
     x2="337.58832"
     y2="266.29889" />
  <line
     class="arc3"
     id="link29_@3_96"
     x1="142.46753"
     y1="275.15497"
     x2="142.46753"
     y2="256.24164" />
  <line
     class="arc0"
     id="link29_@0_34"
     x1="142.46753"
     y1="275.15497"
     x2="16.320984"
     y2="290.56577" />
  <line
     class="arc0"
     id="link96_@0_90"
     x1="142.46753"
     y1="256.24164"
     x2="16.320984"
     y2="271.65244" />
  <line
     class="arc1"
     id="link105_@1_106"
     x1="152.8078"
     y1="19.768799"
     x2="160.76917"
     y2="10.762817" />
  <line
     class="arc2"
     id="link105_@2_99"
     x1="152.8078"
     y1="19.768799"
     x2="139.67633"
     y2="20.012024" />
  <line
     class="arc1"
     id="link99_@1_100"
     x1="139.67633"
     y1="20.012024"
     x2="134.50616"
     y2="11.24939" />
  <line
     class="arc2"
     id="link106_@2_107"
     x1="160.76917"
     y1="10.762817"
     x2="155.599"
     y2="2" />
  <line
     class="arc0"
     id="link106_@0_112"
     x1="160.76917"
     y1="10.762817"
     x2="342.75842"
     y2="21.063354" />
  <line
     class="arc2"
     id="link100_@2_101"
     x1="134.50616"
     y1="11.24939"
     x2="142.46753"
     y2="2.2432861" />
  <line
     class="arc0"
     id="link100_@0_94"
     x1="134.50616"
     y1="11.24939"
     x2="12.340332"
     y2="26.885437" />
  <polygon
     points="878.96924,57.71277 768.7453,74.02472 759.59454,74.493286 650.2982,70.28027 642.3369,69.82959 553.7212,62.840942 554.9107,61.921753 681.05725,46.510986 694.1887,46.2677 876.17804,56.568237 "
     id="face_113_119_65_71_77_83_89_95_101_107"
     style="fill:#c0c0c0;stroke:none"
     opacity="1"
     transform="translate(-538.58972,-44.2677)" />
  <line
     class="arc1"
     id="link107_@1_101"
     x1="155.599"
     y1="2"
     x2="142.46753"
     y2="2.2432861" />
  <line
     class="arc0"
     id="link107_@0_113"
     x1="155.599"
     y1="2"
     x2="337.58832"
     y2="12.300537" />
  <line
     class="arc0"
     id="link101_@0_95"
     x1="142.46753"
     y1="2.2432861"
     x2="16.320984"
     y2="17.654053" />
  <line
     class="arc1"
     id="link15_@1_16"
     x1="342.75842"
     y1="529.06"
     x2="350.71979"
     y2="520.05396" />
  <line
     class="arc2"
     id="link15_@2_7"
     x1="342.75842"
     y1="529.06"
     x2="337.58832"
     y2="539.21057" />
  <line
     class="arc2"
     id="link16_@2_11"
     x1="350.71979"
     y1="520.05396"
     x2="353.51093"
     y2="521.19843" />
  <line
     class="arc0"
     id="link16_@0_17"
     x1="350.71979"
     y1="520.05396"
     x2="350.71979"
     y2="303.88229" />
  <line
     class="arc1"
     id="link7_@1_6"
     x1="337.58832"
     y1="539.21057"
     x2="340.37952"
     y2="540.35504" />
  <polygon
     points="886.93054,340.53165 772.72595,356.61838 769.54626,371.60992 769.54626,578.3249 772.72595,591.70337 886.93054,575.6167 892.10065,565.4661 892.10065,349.2945 "
     id="face_12_13_58_57_56_55_10_11"
     style="fill:#c0c0c0;stroke:none"
     opacity="1"
     transform="translate(-538.58972,-44.2677)" />
  <line
     class="arc1"
     id="link11_@1_10"
     x1="353.51093"
     y1="521.19843"
     x2="348.34082"
     y2="531.349" />
  <line
     class="arc0"
     id="link11_@0_12"
     x1="353.51093"
     y1="521.19843"
     x2="353.51093"
     y2="305.02679" />
  <line
     class="arc2"
     id="link6_@2_10"
     x1="340.37952"
     y1="540.35504"
     x2="348.34082"
     y2="531.349" />
  <line
     class="arc0"
     id="link6_@0_5"
     x1="340.37952"
     y1="540.35504"
     x2="230.15558"
     y2="556.66705" />
  <line
     class="arc1"
     id="link18_@1_17"
     x1="342.75842"
     y1="293.97498"
     x2="350.71979"
     y2="303.88229" />
  <line
     class="arc2"
     id="link18_@2_19"
     x1="342.75842"
     y1="293.97498"
     x2="337.58832"
     y2="285.21222" />
  <line
     class="arc1"
     id="link109_@1_110"
     x1="342.75842"
     y1="256.14835"
     x2="350.71979"
     y2="247.14224" />
  <line
     class="arc2"
     id="link109_@2_108"
     x1="342.75842"
     y1="256.14835"
     x2="337.58832"
     y2="266.29889" />
  <line
     class="arc2"
     id="link17_@2_12"
     x1="350.71979"
     y1="303.88229"
     x2="353.51093"
     y2="305.02679" />
  <line
     class="arc0"
     id="link10_@0_55"
     x1="348.34082"
     y1="531.349"
     x2="234.13623"
     y2="547.43567" />
  <line
     class="arc1"
     id="link19_@1_14"
     x1="337.58832"
     y1="285.21222"
     x2="340.37952"
     y2="286.35669" />
  <line
     class="arc3"
     id="link19_@3_108"
     x1="337.58832"
     y1="285.21222"
     x2="337.58832"
     y2="266.29889" />
  <line
     class="arc2"
     id="link110_@2_116"
     x1="350.71979"
     y1="247.14224"
     x2="353.51093"
     y2="248.28677" />
  <line
     class="arc0"
     id="link110_@0_111"
     x1="350.71979"
     y1="247.14224"
     x2="350.71979"
     y2="30.97052" />
  <line
     class="arc1"
     id="link108_@1_114"
     x1="337.58832"
     y1="266.29889"
     x2="340.37952"
     y2="267.44336" />
  <line
     class="arc1"
     id="link12_@1_13"
     x1="353.51093"
     y1="305.02679"
     x2="348.34082"
     y2="296.26395" />
  <line
     class="arc2"
     id="link14_@2_13"
     x1="340.37952"
     y1="286.35669"
     x2="348.34082"
     y2="296.26395" />
  <line
     class="arc3"
     id="link14_@3_114"
     x1="340.37952"
     y1="286.35669"
     x2="340.37952"
     y2="267.44336" />
  <line
     class="arc0"
     id="link14_@0_59"
     x1="340.37952"
     y1="286.35669"
     x2="230.15558"
     y2="302.6687" />
  <polygon
     points="886.93054,67.619995 772.72595,83.706726 767.55585,93.85718 767.55585,310.02893 772.72595,318.79172 886.93054,302.70502 892.10065,292.55447 892.10065,76.38263 "
     id="face_117_118_64_63_62_61_115_116"
     style="fill:#ff0000;stroke:none"
     opacity="1"
     transform="translate(-538.58972,-44.2677)" />
  <line
     class="arc1"
     id="link116_@1_115"
     x1="353.51093"
     y1="248.28677"
     x2="348.34082"
     y2="258.43732" />
  <line
     class="arc0"
     id="link116_@0_117"
     x1="353.51093"
     y1="248.28677"
     x2="353.51093"
     y2="32.114929" />
  <line
     class="arc1"
     id="link112_@1_111"
     x1="342.75842"
     y1="21.063354"
     x2="350.71979"
     y2="30.97052" />
  <line
     class="arc2"
     id="link112_@2_113"
     x1="342.75842"
     y1="21.063354"
     x2="337.58832"
     y2="12.300537" />
  <line
     class="arc2"
     id="link114_@2_115"
     x1="340.37952"
     y1="267.44336"
     x2="348.34082"
     y2="258.43732" />
  <line
     class="arc0"
     id="link114_@0_60"
     x1="340.37952"
     y1="267.44336"
     x2="230.15558"
     y2="283.75537" />
  <line
     class="arc0"
     id="link13_@0_58"
     x1="348.34082"
     y1="296.26395"
     x2="234.13623"
     y2="312.35068" />
  <line
     class="arc2"
     id="link111_@2_117"
     x1="350.71979"
     y1="30.97052"
     x2="353.51093"
     y2="32.114929" />
  <line
     class="arc0"
     id="link115_@0_61"
     x1="348.34082"
     y1="258.43732"
     x2="234.13623"
     y2="274.52402" />
  <line
     class="arc1"
     id="link113_@1_119"
     x1="337.58832"
     y1="12.300537"
     x2="340.37952"
     y2="13.445068" />
  <line
     class="arc1"
     id="link117_@1_118"
     x1="353.51093"
     y1="32.114929"
     x2="348.34082"
     y2="23.352295" />
  <line
     class="arc1"
     id="link30_@1_31"
     x1="12.340332"
     y1="534.88214"
     x2="5.1798096"
     y2="521.27832" />
  <line
     class="arc2"
     id="link30_@2_2"
     x1="12.340332"
     y1="534.88214"
     x2="16.320984"
     y2="544.56409" />
  <line
     class="arc2"
     id="link119_@2_118"
     x1="340.37952"
     y1="13.445068"
     x2="348.34082"
     y2="23.352295" />
  <line
     class="arc0"
     id="link119_@0_65"
     x1="340.37952"
     y1="13.445068"
     x2="230.15558"
     y2="29.757019" />
  <line
     class="arc1"
     id="link2_@1_3"
     x1="16.320984"
     y1="544.56409"
     x2="17.121765"
     y2="550.32428" />
  <line
     class="arc0"
     id="link118_@0_64"
     x1="348.34082"
     y1="23.352295"
     x2="234.13623"
     y2="39.439026" />
  <line
     class="arc2"
     id="link31_@2_36"
     x1="5.1798096"
     y1="521.27832"
     x2="2"
     y2="517.35651" />
  <line
     class="arc0"
     id="link31_@0_32"
     x1="5.1798096"
     y1="521.27832"
     x2="5.1798096"
     y2="314.56335" />
  <line
     class="arc2"
     id="link3_@2_35"
     x1="17.121765"
     y1="550.32428"
     x2="13.941956"
     y2="546.40247" />
  <line
     class="arc0"
     id="link3_@0_8"
     x1="17.121765"
     y1="550.32428"
     x2="101.7569"
     y2="557.08759" />
  <polygon
     points="541.39056,360.6694 580.91693,456.80743 580.91693,475.72076 541.39056,567.3844 540.5897,561.6242 540.5897,364.36594 "
     id="face_37_124_125_123_122_36"
     style="fill:#c0c0c0;stroke:none"
     opacity="1"
     transform="translate(-538.58972,-44.2677)" />
  <line
     class="arc1"
     id="link36_@1_122"
     x1="2"
     y1="517.35651"
     x2="2.8008423"
     y2="523.1167" />
  <line
     class="arc0"
     id="link36_@0_37"
     x1="2"
     y1="517.35651"
     x2="2"
     y2="320.09824" />
  <line
     class="arc1"
     id="link33_@1_32"
     x1="12.340332"
     y1="299.79712"
     x2="5.1798096"
     y2="314.56335" />
  <line
     class="arc2"
     id="link33_@2_34"
     x1="12.340332"
     y1="299.79712"
     x2="16.320984"
     y2="290.56577" />
  <polygon
     points="632.38525,581.99133 592.8589,485.85336 584.8976,485.40274 545.3713,577.06635 552.5317,590.67017 634.37555,596.289 "
     id="face_40_134_135_121_120_35"
     style="fill:#c0c0c0;stroke:none"
     opacity="1"
     transform="translate(-538.58972,-44.2677)" />
  <line
     class="arc1"
     id="link35_@1_120"
     x1="13.941956"
     y1="546.40247"
     x2="6.7815552"
     y2="532.79865" />
  <line
     class="arc0"
     id="link35_@0_40"
     x1="13.941956"
     y1="546.40247"
     x2="95.785828"
     y2="552.0213" />
  <line
     class="arc1"
     id="link34_@1_39"
     x1="16.320984"
     y1="290.56577"
     x2="17.121765"
     y2="286.86926" />
  <line
     class="arc3"
     id="link34_@3_90"
     x1="16.320984"
     y1="290.56577"
     x2="16.320984"
     y2="271.65244" />
  <line
     class="arc1"
     id="link91_@1_92"
     x1="12.340332"
     y1="261.97049"
     x2="7.170105"
     y2="253.20764" />
  <line
     class="arc2"
     id="link91_@2_90"
     x1="12.340332"
     y1="261.97049"
     x2="16.320984"
     y2="271.65244" />
  <line
     class="arc2"
     id="link32_@2_37"
     x1="5.1798096"
     y1="314.56335"
     x2="2"
     y2="320.09824" />
  <line
     class="arc1"
     id="link90_@1_84"
     x1="16.320984"
     y1="271.65244"
     x2="15.13147"
     y2="272.57162" />
  <line
     class="arc2"
     id="link122_@2_120"
     x1="2.8008423"
     y1="523.1167"
     x2="6.7815552"
     y2="532.79865" />
  <line
     class="arc0"
     id="link122_@0_123"
     x1="2.8008423"
     y1="523.1167"
     x2="42.327209"
     y2="431.45306" />
  <line
     class="arc0"
     id="link120_@0_121"
     x1="6.7815552"
     y1="532.79865"
     x2="46.307861"
     y2="441.13504" />
  <line
     class="arc2"
     id="link92_@2_86"
     x1="7.170105"
     y1="253.20764"
     x2="5.9806519"
     y2="254.12683" />
  <line
     class="arc0"
     id="link92_@0_93"
     x1="7.170105"
     y1="253.20764"
     x2="7.170105"
     y2="37.035889" />
  <line
     class="arc1"
     id="link37_@1_124"
     x1="2"
     y1="320.09824"
     x2="2.8008423"
     y2="316.4017" />
  <line
     class="arc2"
     id="link39_@2_38"
     x1="17.121765"
     y1="286.86926"
     x2="13.941956"
     y2="292.40411" />
  <line
     class="arc3"
     id="link39_@3_84"
     x1="17.121765"
     y1="286.86926"
     x2="15.13147"
     y2="272.57162" />
  <line
     class="arc0"
     id="link39_@0_44"
     x1="17.121765"
     y1="286.86926"
     x2="101.7569"
     y2="293.63257" />
  <line
     class="arc2"
     id="link84_@2_85"
     x1="15.13147"
     y1="272.57162"
     x2="9.9613647"
     y2="263.80884" />
  <line
     class="arc0"
     id="link84_@0_78"
     x1="15.13147"
     y1="272.57162"
     x2="103.74719"
     y2="279.56021" />
  <polygon
     points="548.5511,72.991516 638.35626,79.060974 642.3369,88.74286 642.3369,304.91458 638.35626,314.14597 548.5511,308.07654 544.5704,298.39453 544.5704,82.22284 "
     id="face_87_88_82_81_80_79_85_86"
     style="fill:#c0c0c0;stroke:none"
     opacity="1"
     transform="translate(-538.58972,-44.2677)" />
  <line
     class="arc1"
     id="link86_@1_85"
     x1="5.9806519"
     y1="254.12683"
     x2="9.9613647"
     y2="263.80884" />
  <line
     class="arc0"
     id="link86_@0_87"
     x1="5.9806519"
     y1="254.12683"
     x2="5.9806519"
     y2="37.955139" />
  <polygon
     points="632.38525,356.36298 592.8589,448.02667 584.8976,447.57608 545.3713,351.43805 552.5317,336.6718 634.37555,342.29065 "
     id="face_43_128_129_127_126_38"
     style="fill:#c0c0c0;stroke:none"
     opacity="1"
     transform="translate(-538.58972,-44.2677)" />
  <line
     class="arc1"
     id="link38_@1_126"
     x1="13.941956"
     y1="292.40411"
     x2="6.7815552"
     y2="307.17035" />
  <line
     class="arc0"
     id="link38_@0_43"
     x1="13.941956"
     y1="292.40411"
     x2="95.785828"
     y2="298.02295" />
  <line
     class="arc0"
     id="link85_@0_79"
     x1="9.9613647"
     y1="263.80884"
     x2="99.766541"
     y2="269.87827" />
  <line
     class="arc1"
     id="link94_@1_93"
     x1="12.340332"
     y1="26.885437"
     x2="7.170105"
     y2="37.035889" />
  <line
     class="arc2"
     id="link94_@2_95"
     x1="12.340332"
     y1="26.885437"
     x2="16.320984"
     y2="17.654053" />
  <line
     class="arc2"
     id="link124_@2_126"
     x1="2.8008423"
     y1="316.4017"
     x2="6.7815552"
     y2="307.17035" />
  <line
     class="arc0"
     id="link124_@0_125"
     x1="2.8008423"
     y1="316.4017"
     x2="42.327209"
     y2="412.53973" />
  <line
     class="arc1"
     id="link95_@1_89"
     x1="16.320984"
     y1="17.654053"
     x2="15.13147"
     y2="18.573242" />
  <line
     class="arc0"
     id="link126_@0_127"
     x1="6.7815552"
     y1="307.17035"
     x2="46.307861"
     y2="403.30838" />
  <line
     class="arc2"
     id="link93_@2_87"
     x1="7.170105"
     y1="37.035889"
     x2="5.9806519"
     y2="37.955139" />
  <line
     class="arc2"
     id="link89_@2_88"
     x1="15.13147"
     y1="18.573242"
     x2="9.9613647"
     y2="28.723816" />
  <line
     class="arc0"
     id="link89_@0_83"
     x1="15.13147"
     y1="18.573242"
     x2="103.74719"
     y2="25.56189" />
  <line
     class="arc1"
     id="link87_@1_88"
     x1="5.9806519"
     y1="37.955139"
     x2="9.9613647"
     y2="28.723816" />
  <line
     class="arc1"
     id="link123_@1_125"
     x1="42.327209"
     y1="431.45306"
     x2="42.327209"
     y2="412.53973" />
  <line
     class="arc2"
     id="link123_@2_121"
     x1="42.327209"
     y1="431.45306"
     x2="46.307861"
     y2="441.13504" />
  <line
     class="arc1"
     id="link121_@1_135"
     x1="46.307861"
     y1="441.13504"
     x2="54.269165"
     y2="441.58566" />
  <line
     class="arc2"
     id="link125_@2_127"
     x1="42.327209"
     y1="412.53973"
     x2="46.307861"
     y2="403.30838" />
  <line
     class="arc0"
     id="link88_@0_82"
     x1="9.9613647"
     y1="28.723816"
     x2="99.766541"
     y2="34.793274" />
  <line
     class="arc1"
     id="link127_@1_129"
     x1="46.307861"
     y1="403.30838"
     x2="54.269165"
     y2="403.75897" />
  <line
     class="arc2"
     id="link135_@2_133"
     x1="54.269165"
     y1="441.58566"
     x2="58.249878"
     y2="432.35425" />
  <line
     class="arc0"
     id="link135_@0_134"
     x1="54.269165"
     y1="441.58566"
     x2="93.795532"
     y2="537.72363" />
  <line
     class="arc2"
     id="link129_@2_131"
     x1="54.269165"
     y1="403.75897"
     x2="58.249878"
     y2="413.44095" />
  <line
     class="arc0"
     id="link129_@0_128"
     x1="54.269165"
     y1="403.75897"
     x2="93.795532"
     y2="312.09528" />
  <polygon
     points="644.3272,563.7539 644.3272,375.95227 636.3659,366.04498 596.8396,457.70865 596.8396,476.62195 636.3659,572.75995 "
     id="face_132_41_42_130_131_133"
     style="fill:#c0c0c0;stroke:none"
     opacity="1"
     transform="translate(-538.58972,-44.2677)" />
  <line
     class="arc1"
     id="link133_@1_131"
     x1="58.249878"
     y1="432.35425"
     x2="58.249878"
     y2="413.44095" />
  <line
     class="arc0"
     id="link133_@0_132"
     x1="58.249878"
     y1="432.35425"
     x2="97.776184"
     y2="528.49225" />
  <line
     class="arc0"
     id="link131_@0_130"
     x1="58.249878"
     y1="413.44095"
     x2="97.776184"
     y2="321.77728" />
  <line
     class="arc1"
     id="link40_@1_134"
     x1="95.785828"
     y1="552.0213"
     x2="93.795532"
     y2="537.72363" />
  <line
     class="arc2"
     id="link40_@2_8"
     x1="95.785828"
     y1="552.0213"
     x2="101.7569"
     y2="557.08759" />
  <line
     class="arc2"
     id="link134_@2_132"
     x1="93.795532"
     y1="537.72363"
     x2="97.776184"
     y2="528.49225" />
  <line
     class="arc1"
     id="link8_@1_9"
     x1="101.7569"
     y1="557.08759"
     x2="113.69885"
     y2="557.76349" />
  <line
     class="arc1"
     id="link132_@1_41"
     x1="97.776184"
     y1="528.49225"
     x2="105.73749"
     y2="519.48621" />
  <line
     class="arc2"
     id="link41_@2_46"
     x1="105.73749"
     y1="519.48621"
     x2="109.71814"
     y2="519.71149" />
  <line
     class="arc0"
     id="link41_@0_42"
     x1="105.73749"
     y1="519.48621"
     x2="105.73749"
     y2="331.68457" />
  <line
     class="arc2"
     id="link9_@2_45"
     x1="113.69885"
     y1="557.76349"
     x2="119.66986"
     y2="553.37311" />
  <line
     class="arc0"
     id="link9_@0_4"
     x1="113.69885"
     y1="557.76349"
     x2="219.01447"
     y2="561.75128" />
  <polygon
     points="656.2692,367.1715 695.79553,463.30954 695.79553,482.22284 656.2692,573.8865 648.30786,563.9792 648.30786,376.17755 "
     id="face_47_146_147_149_148_46"
     style="fill:#c0c0c0;stroke:none"
     opacity="1"
     transform="translate(-538.58972,-44.2677)" />
  <line
     class="arc1"
     id="link46_@1_148"
     x1="109.71814"
     y1="519.71149"
     x2="117.6795"
     y2="529.61877" />
  <line
     class="arc0"
     id="link46_@0_47"
     x1="109.71814"
     y1="519.71149"
     x2="109.71814"
     y2="331.90985" />
  <polygon
     points="747.2639,588.4934 707.73755,492.35544 699.77625,491.90482 660.2499,583.5685 658.2596,597.6408 750.4437,601.8719 "
     id="face_50_136_137_151_150_45"
     style="fill:#c0c0c0;stroke:none"
     opacity="1"
     transform="translate(-538.58972,-44.2677)" />
  <line
     class="arc1"
     id="link45_@1_150"
     x1="119.66986"
     y1="553.37311"
     x2="121.66016"
     y2="539.30078" />
  <line
     class="arc0"
     id="link45_@0_50"
     x1="119.66986"
     y1="553.37311"
     x2="211.854"
     y2="557.60419" />
  <line
     class="arc2"
     id="link148_@2_150"
     x1="117.6795"
     y1="529.61877"
     x2="121.66016"
     y2="539.30078" />
  <line
     class="arc0"
     id="link148_@0_149"
     x1="117.6795"
     y1="529.61877"
     x2="157.20581"
     y2="437.95514" />
  <line
     class="arc0"
     id="link150_@0_151"
     x1="121.66016"
     y1="539.30078"
     x2="161.18652"
     y2="447.63712" />
  <line
     class="arc1"
     id="link128_@1_43"
     x1="93.795532"
     y1="312.09528"
     x2="95.785828"
     y2="298.02295" />
  <line
     class="arc2"
     id="link128_@2_130"
     x1="93.795532"
     y1="312.09528"
     x2="97.776184"
     y2="321.77728" />
  <line
     class="arc1"
     id="link130_@1_42"
     x1="97.776184"
     y1="321.77728"
     x2="105.73749"
     y2="331.68457" />
  <line
     class="arc2"
     id="link43_@2_44"
     x1="95.785828"
     y1="298.02295"
     x2="101.7569"
     y2="293.63257" />
  <line
     class="arc2"
     id="link42_@2_47"
     x1="105.73749"
     y1="331.68457"
     x2="109.71814"
     y2="331.90985" />
  <line
     class="arc1"
     id="link44_@1_49"
     x1="101.7569"
     y1="293.63257"
     x2="113.69885"
     y2="294.30847" />
  <line
     class="arc3"
     id="link44_@3_78"
     x1="101.7569"
     y1="293.63257"
     x2="103.74719"
     y2="279.56021" />
  <line
     class="arc1"
     id="link79_@1_80"
     x1="99.766541"
     y1="269.87827"
     x2="103.74719"
     y2="260.64688" />
  <line
     class="arc2"
     id="link79_@2_78"
     x1="99.766541"
     y1="269.87827"
     x2="103.74719"
     y2="279.56021" />
  <line
     class="arc1"
     id="link47_@1_146"
     x1="109.71814"
     y1="331.90985"
     x2="117.6795"
     y2="322.90381" />
  <line
     class="arc1"
     id="link78_@1_72"
     x1="103.74719"
     y1="279.56021"
     x2="111.7085"
     y2="280.01083" />
  <line
     class="arc2"
     id="link80_@2_74"
     x1="103.74719"
     y1="260.64688"
     x2="111.7085"
     y2="261.09747" />
  <line
     class="arc0"
     id="link80_@0_81"
     x1="103.74719"
     y1="260.64688"
     x2="103.74719"
     y2="44.475159" />
  <line
     class="arc2"
     id="link49_@2_48"
     x1="113.69885"
     y1="294.30847"
     x2="119.66986"
     y2="299.37479" />
  <line
     class="arc3"
     id="link49_@3_72"
     x1="113.69885"
     y1="294.30847"
     x2="111.7085"
     y2="280.01083" />
  <line
     class="arc0"
     id="link49_@0_54"
     x1="113.69885"
     y1="294.30847"
     x2="219.01447"
     y2="298.29633" />
  <line
     class="arc2"
     id="link72_@2_73"
     x1="111.7085"
     y1="280.01083"
     x2="115.68915"
     y2="270.77948" />
  <line
     class="arc0"
     id="link72_@0_66"
     x1="111.7085"
     y1="280.01083"
     x2="221.00482"
     y2="284.22397" />
  <line
     class="arc2"
     id="link146_@2_144"
     x1="117.6795"
     y1="322.90381"
     x2="121.66016"
     y2="313.67242" />
  <line
     class="arc0"
     id="link146_@0_147"
     x1="117.6795"
     y1="322.90381"
     x2="157.20581"
     y2="419.04184" />
  <polygon
     points="654.2789,79.96222 754.4244,84.64386 758.405,94.325745 758.405,310.4975 754.4244,319.72888 654.2789,315.04718 650.2982,305.36517 650.2982,89.19348 "
     id="face_75_76_70_69_68_67_73_74"
     style="fill:#c0c0c0;stroke:none"
     opacity="1"
     transform="translate(-538.58972,-44.2677)" />
  <line
     class="arc1"
     id="link74_@1_73"
     x1="111.7085"
     y1="261.09747"
     x2="115.68915"
     y2="270.77948" />
  <line
     class="arc0"
     id="link74_@0_75"
     x1="111.7085"
     y1="261.09747"
     x2="111.7085"
     y2="44.925781" />
  <polygon
     points="747.2639,362.86508 707.73755,454.52878 699.77625,454.07816 660.2499,357.94012 658.2596,343.6425 750.4437,347.87357 "
     id="face_53_142_143_145_144_48"
     style="fill:#c0c0c0;stroke:none"
     opacity="1"
     transform="translate(-538.58972,-44.2677)" />
  <line
     class="arc1"
     id="link48_@1_144"
     x1="119.66986"
     y1="299.37479"
     x2="121.66016"
     y2="313.67242" />
  <line
     class="arc0"
     id="link48_@0_53"
     x1="119.66986"
     y1="299.37479"
     x2="211.854"
     y2="303.60587" />
  <line
     class="arc0"
     id="link73_@0_67"
     x1="115.68915"
     y1="270.77948"
     x2="215.83466"
     y2="275.46118" />
  <line
     class="arc0"
     id="link144_@0_145"
     x1="121.66016"
     y1="313.67242"
     x2="161.18652"
     y2="409.81046" />
  <line
     class="arc1"
     id="link82_@1_81"
     x1="99.766541"
     y1="34.793274"
     x2="103.74719"
     y2="44.475159" />
  <line
     class="arc2"
     id="link82_@2_83"
     x1="99.766541"
     y1="34.793274"
     x2="103.74719"
     y2="25.56189" />
  <line
     class="arc2"
     id="link81_@2_75"
     x1="103.74719"
     y1="44.475159"
     x2="111.7085"
     y2="44.925781" />
  <line
     class="arc1"
     id="link149_@1_147"
     x1="157.20581"
     y1="437.95514"
     x2="157.20581"
     y2="419.04184" />
  <line
     class="arc2"
     id="link149_@2_151"
     x1="157.20581"
     y1="437.95514"
     x2="161.18652"
     y2="447.63712" />
  <line
     class="arc1"
     id="link83_@1_77"
     x1="103.74719"
     y1="25.56189"
     x2="111.7085"
     y2="26.012573" />
  <line
     class="arc2"
     id="link147_@2_145"
     x1="157.20581"
     y1="419.04184"
     x2="161.18652"
     y2="409.81046" />
  <line
     class="arc1"
     id="link151_@1_137"
     x1="161.18652"
     y1="447.63712"
     x2="169.14783"
     y2="448.08774" />
  <line
     class="arc1"
     id="link5_@1_4"
     x1="230.15558"
     y1="556.66705"
     x2="219.01447"
     y2="561.75128" />
  <line
     class="arc2"
     id="link5_@2_55"
     x1="230.15558"
     y1="556.66705"
     x2="234.13623"
     y2="547.43567" />
  <line
     class="arc1"
     id="link75_@1_76"
     x1="111.7085"
     y1="44.925781"
     x2="115.68915"
     y2="35.694519" />
  <line
     class="arc1"
     id="link145_@1_143"
     x1="161.18652"
     y1="409.81046"
     x2="169.14783"
     y2="410.26108" />
  <line
     class="arc2"
     id="link4_@2_50"
     x1="219.01447"
     y1="561.75128"
     x2="211.854"
     y2="557.60419" />
  <line
     class="arc1"
     id="link55_@1_56"
     x1="234.13623"
     y1="547.43567"
     x2="230.95654"
     y2="534.05719" />
  <line
     class="arc2"
     id="link77_@2_76"
     x1="111.7085"
     y1="26.012573"
     x2="115.68915"
     y2="35.694519" />
  <line
     class="arc0"
     id="link77_@0_71"
     x1="111.7085"
     y1="26.012573"
     x2="221.00482"
     y2="30.225586" />
  <line
     class="arc2"
     id="link137_@2_139"
     x1="169.14783"
     y1="448.08774"
     x2="173.12848"
     y2="438.85632" />
  <line
     class="arc0"
     id="link137_@0_136"
     x1="169.14783"
     y1="448.08774"
     x2="208.67419"
     y2="544.22571" />
  <line
     class="arc0"
     id="link76_@0_70"
     x1="115.68915"
     y1="35.694519"
     x2="215.83466"
     y2="40.37616" />
  <polygon
     points="762.3857,574.1778 762.3857,376.91953 751.2445,372.5471 711.7182,464.21072 711.7182,483.12402 751.2445,579.262 "
     id="face_138_51_52_140_141_139"
     style="fill:#c0c0c0;stroke:none"
     opacity="1"
     transform="translate(-538.58972,-44.2677)" />
  <line
     class="arc1"
     id="link139_@1_141"
     x1="173.12848"
     y1="438.85632"
     x2="173.12848"
     y2="419.94302" />
  <line
     class="arc0"
     id="link139_@0_138"
     x1="173.12848"
     y1="438.85632"
     x2="212.65479"
     y2="534.99432" />
  <line
     class="arc2"
     id="link143_@2_141"
     x1="169.14783"
     y1="410.26108"
     x2="173.12848"
     y2="419.94302" />
  <line
     class="arc0"
     id="link143_@0_142"
     x1="169.14783"
     y1="410.26108"
     x2="208.67419"
     y2="318.59738" />
  <line
     class="arc0"
     id="link141_@0_140"
     x1="173.12848"
     y1="419.94302"
     x2="212.65479"
     y2="328.27939" />
  <line
     class="arc1"
     id="link50_@1_136"
     x1="211.854"
     y1="557.60419"
     x2="208.67419"
     y2="544.22571" />
  <line
     class="arc2"
     id="link56_@2_51"
     x1="230.95654"
     y1="534.05719"
     x2="223.79596"
     y2="529.9101" />
  <line
     class="arc0"
     id="link56_@0_57"
     x1="230.95654"
     y1="534.05719"
     x2="230.95654"
     y2="327.34222" />
  <line
     class="arc1"
     id="link51_@1_138"
     x1="223.79596"
     y1="529.9101"
     x2="212.65479"
     y2="534.99432" />
  <line
     class="arc0"
     id="link51_@0_52"
     x1="223.79596"
     y1="529.9101"
     x2="223.79596"
     y2="332.65182" />
  <line
     class="arc2"
     id="link136_@2_138"
     x1="208.67419"
     y1="544.22571"
     x2="212.65479"
     y2="534.99432" />
  <line
     class="arc1"
     id="link59_@1_54"
     x1="230.15558"
     y1="302.6687"
     x2="219.01447"
     y2="298.29633" />
  <line
     class="arc2"
     id="link59_@2_58"
     x1="230.15558"
     y1="302.6687"
     x2="234.13623"
     y2="312.35068" />
  <line
     class="arc3"
     id="link59_@3_60"
     x1="230.15558"
     y1="302.6687"
     x2="230.15558"
     y2="283.75537" />
  <line
     class="arc1"
     id="link58_@1_57"
     x1="234.13623"
     y1="312.35068"
     x2="230.95654"
     y2="327.34222" />
  <line
     class="arc1"
     id="link60_@1_66"
     x1="230.15558"
     y1="283.75537"
     x2="221.00482"
     y2="284.22397" />
  <line
     class="arc2"
     id="link60_@2_61"
     x1="230.15558"
     y1="283.75537"
     x2="234.13623"
     y2="274.52402" />
  <line
     class="arc2"
     id="link54_@2_53"
     x1="219.01447"
     y1="298.29633"
     x2="211.854"
     y2="303.60587" />
  <line
     class="arc3"
     id="link54_@3_66"
     x1="219.01447"
     y1="298.29633"
     x2="221.00482"
     y2="284.22397" />
  <line
     class="arc1"
     id="link61_@1_62"
     x1="234.13623"
     y1="274.52402"
     x2="228.96613"
     y2="265.76123" />
  <line
     class="arc2"
     id="link66_@2_67"
     x1="221.00482"
     y1="284.22397"
     x2="215.83466"
     y2="275.46118" />
  <line
     class="arc2"
     id="link57_@2_52"
     x1="230.95654"
     y1="327.34222"
     x2="223.79596"
     y2="332.65182" />
  <line
     class="arc1"
     id="link53_@1_142"
     x1="211.854"
     y1="303.60587"
     x2="208.67419"
     y2="318.59738" />
  <line
     class="arc2"
     id="link62_@2_68"
     x1="228.96613"
     y1="265.76123"
     x2="219.81531"
     y2="266.2298" />
  <line
     class="arc0"
     id="link62_@0_63"
     x1="228.96613"
     y1="265.76123"
     x2="228.96613"
     y2="49.589478" />
  <line
     class="arc1"
     id="link67_@1_68"
     x1="215.83466"
     y1="275.46118"
     x2="219.81531"
     y2="266.2298" />
  <line
     class="arc1"
     id="link52_@1_140"
     x1="223.79596"
     y1="332.65182"
     x2="212.65479"
     y2="328.27939" />
  <line
     class="arc0"
     id="link68_@0_69"
     x1="219.81531"
     y1="266.2298"
     x2="219.81531"
     y2="50.058044" />
  <line
     class="arc2"
     id="link142_@2_140"
     x1="208.67419"
     y1="318.59738"
     x2="212.65479"
     y2="328.27939" />
  <line
     class="arc1"
     id="link65_@1_71"
     x1="230.15558"
     y1="29.757019"
     x2="221.00482"
     y2="30.225586" />
  <line
     class="arc2"
     id="link65_@2_64"
     x1="230.15558"
     y1="29.757019"
     x2="234.13623"
     y2="39.439026" />
  <line
     class="arc1"
     id="link64_@1_63"
     x1="234.13623"
     y1="39.439026"
     x2="228.96613"
     y2="49.589478" />
  <line
     class="arc2"
     id="link71_@2_70"
     x1="221.00482"
     y1="30.225586"
     x2="215.83466"
     y2="40.37616" />
  <line
     class="arc2"
     id="link63_@2_69"
     x1="228.96613"
     y1="49.589478"
     x2="219.81531"
     y2="50.058044" />
  <line
     class="arc1"
     id="link70_@1_69"
     x1="215.83466"
     y1="40.37616"
     x2="219.81531"
     y2="50.058044" />
</svg>
