<?xml version="1.0" encoding="UTF-8" standalone="no"?>
<!-- Created with Jerboa -->

<svg
	width="1412"
	height="651" >
	<style id="style">
		.arc0 {
			fill:none;
			fill-rule:evenodd;
			stroke:black;
			stroke-width:4;
			stroke-linecap:round;
			stroke-linejoin:round;
			stroke-opacity:1;
		}
		.arc1 {
			fill:none;
			fill-rule:evenodd;
			stroke:red;
			stroke-width:4;
			stroke-linecap:round;
			stroke-linejoin:round;
			stroke-opacity:1;
		}
		.arc2 {
			fill:none;
			fill-rule:evenodd;
			stroke:blue;
			stroke-width:4;
			stroke-linecap:round;
			stroke-linejoin:round;
			stroke-opacity:1;
		}
		.arc3 {
			fill:none;
			fill-rule:evenodd;
			stroke:green;
			stroke-width:4;
			stroke-linecap:round;
			stroke-linejoin:round;
			stroke-opacity:1;
		}
		.topological-dart {
			fill:#000000;
			stroke:#000000;
			stroke-width:0;
			stroke-linecap:round;
			stroke-linejoin:round;
			stroke-dasharray:none;
			paint-order:markers fill stroke;
		}
	</style>
<polygon
	points="691.3975,553.1199 691.3975,336.94824 699.3589,327.94217 881.34814,338.24268 889.3095,348.15 889.3095,564.32166 881.34814,573.3277 699.3589,563.02716 "
	id="face_22_23_18_17_16_15_20_21"
	style="fill:rgb(192,192,192);stroke:none"
	opacity="1.0" />
<line
	class="arc1"
	id="link21_@1_20"
	x1="691.3975"
	y1="553.1199"
	x2="699.3589"
	y2="563.02716" />
<line
	class="arc2"
	id="link21_@2_26"
	x1="691.3975"
	y1="553.1199"
	x2="678.26605"
	y2="553.36316" />
<line
	class="arc0"
	id="link21_@0_22"
	x1="691.3975"
	y1="553.1199"
	x2="691.3975"
	y2="336.94824" />
<polygon
	points="678.26605,553.36316 678.26605,337.19153 673.0959,328.4287 550.93005,344.06482 543.76953,358.83105 543.76953,565.546 550.93005,579.14984 673.0959,563.5137 "
	id="face_27_28_33_32_31_30_25_26"
	style="fill:rgb(192,192,192);stroke:none"
	opacity="1.0" />
<line
	class="arc1"
	id="link26_@1_25"
	x1="678.26605"
	y1="553.36316"
	x2="673.0959"
	y2="563.5137" />
<line
	class="arc0"
	id="link26_@0_27"
	x1="678.26605"
	y1="553.36316"
	x2="678.26605"
	y2="337.19153" />
<line
	class="arc2"
	id="link20_@2_0"
	x1="699.3589"
	y1="563.02716"
	x2="694.1887"
	y2="573.17773" />
<line
	class="arc0"
	id="link20_@0_15"
	x1="699.3589"
	y1="563.02716"
	x2="881.34814"
	y2="573.3277" />
<line
	class="arc2"
	id="link25_@2_1"
	x1="673.0959"
	y1="563.5137"
	x2="681.05725"
	y2="573.421" />
<line
	class="arc0"
	id="link25_@0_30"
	x1="673.0959"
	y1="563.5137"
	x2="550.93005"
	y2="579.14984" />
<polygon
	points="694.1887,573.17773 876.17804,583.4783 878.96924,584.62274 768.7453,600.93475 757.6042,606.019 652.2886,602.0312 640.3466,601.3553 555.7115,594.592 554.9107,588.8318 681.05725,573.421 "
	id="face_7_6_5_4_9_8_3_2_1_0"
	style="fill:rgb(192,192,192);stroke:none"
	opacity="1.0" />
<line
	class="arc1"
	id="link0_@1_1"
	x1="694.1887"
	y1="573.17773"
	x2="681.05725"
	y2="573.421" />
<line
	class="arc0"
	id="link0_@0_7"
	x1="694.1887"
	y1="573.17773"
	x2="876.17804"
	y2="583.4783" />
<line
	class="arc0"
	id="link1_@0_2"
	x1="681.05725"
	y1="573.421"
	x2="554.9107"
	y2="588.8318" />
<line
	class="arc1"
	id="link22_@1_23"
	x1="691.3975"
	y1="336.94824"
	x2="699.3589"
	y2="327.94217" />
<line
	class="arc2"
	id="link22_@2_27"
	x1="691.3975"
	y1="336.94824"
	x2="678.26605"
	y2="337.19153" />
<line
	class="arc1"
	id="link27_@1_28"
	x1="678.26605"
	y1="337.19153"
	x2="673.0959"
	y2="328.4287" />
<line
	class="arc2"
	id="link23_@2_24"
	x1="699.3589"
	y1="327.94217"
	x2="694.1887"
	y2="319.1794" />
<line
	class="arc0"
	id="link23_@0_18"
	x1="699.3589"
	y1="327.94217"
	x2="881.34814"
	y2="338.24268" />
<line
	class="arc2"
	id="link28_@2_29"
	x1="673.0959"
	y1="328.4287"
	x2="681.05725"
	y2="319.42267" />
<line
	class="arc0"
	id="link28_@0_33"
	x1="673.0959"
	y1="328.4287"
	x2="550.93005"
	y2="344.06482" />
<polygon
	points="694.1887,319.1794 876.17804,329.47992 878.96924,330.6244 768.7453,346.9364 757.6042,342.56403 652.2886,338.57617 640.3466,337.90027 555.7115,331.13696 554.9107,334.83347 681.05725,319.42267 "
	id="face_19_14_59_54_49_44_39_34_29_24"
	style="fill:rgb(192,192,192);stroke:none"
	opacity="1.0" />
<line
	class="arc1"
	id="link24_@1_29"
	x1="694.1887"
	y1="319.1794"
	x2="681.05725"
	y2="319.42267" />
<line
	class="arc3"
	id="link24_@3_102"
	x1="694.1887"
	y1="319.1794"
	x2="695.0673"
	y2="300.90768" />
<line
	class="arc0"
	id="link24_@0_19"
	x1="694.1887"
	y1="319.1794"
	x2="876.17804"
	y2="329.47992" />
<line
	class="arc3"
	id="link29_@3_96"
	x1="681.05725"
	y1="319.42267"
	x2="681.9358"
	y2="301.15097" />
<line
	class="arc0"
	id="link29_@0_34"
	x1="681.05725"
	y1="319.42267"
	x2="554.9107"
	y2="334.83347" />
<polygon
	points="695.0673,300.90768 869.0953,310.7576 871.8865,311.9021 766.83276,327.52023 757.6819,327.9888 652.3662,324.00098 644.40497,323.5504 559.7699,316.78708 560.9594,315.86786 681.9358,301.15097 "
	id="face_108_114_60_66_72_78_84_90_96_102"
	style="fill:rgb(192,192,192);stroke:none"
	opacity="1.0" />
<line
	class="arc1"
	id="link102_@1_96"
	x1="695.0673"
	y1="300.90768"
	x2="681.9358"
	y2="301.15097" />
<line
	class="arc2"
	id="link102_@2_103"
	x1="695.0673"
	y1="300.90768"
	x2="701.116"
	y2="291.3988" />
<line
	class="arc0"
	id="link102_@0_108"
	x1="695.0673"
	y1="300.90768"
	x2="869.0953"
	y2="310.7576" />
<polygon
	points="701.116,291.3988 867.1826,300.7981 868.0612,291.98303 727.4037,107.974915 711.481,107.07367 694.03326,282.1331 "
	id="face_109_110_111_105_104_103"
	style="fill:rgb(192,192,192);stroke:none"
	opacity="1.0" />
<line
	class="arc1"
	id="link103_@1_104"
	x1="701.116"
	y1="291.3988"
	x2="694.03326"
	y2="282.1331" />
<line
	class="arc0"
	id="link103_@0_109"
	x1="701.116"
	y1="291.3988"
	x2="867.1826"
	y2="300.7981" />
<line
	class="arc2"
	id="link96_@2_97"
	x1="681.9358"
	y1="301.15097"
	x2="674.853"
	y2="291.8853" />
<line
	class="arc0"
	id="link96_@0_90"
	x1="681.9358"
	y1="301.15097"
	x2="560.9594"
	y2="315.86786" />
<line
	class="arc2"
	id="link104_@2_98"
	x1="694.03326"
	y1="282.1331"
	x2="680.9018"
	y2="282.3764" />
<line
	class="arc0"
	id="link104_@0_105"
	x1="694.03326"
	y1="282.1331"
	x2="711.481"
	y2="107.07367" />
<polygon
	points="674.853,291.8853 563.02747,306.1337 563.90607,297.31863 684.0286,108.47943 698.34955,107.316956 680.9018,282.3764 "
	id="face_91_92_93_99_98_97"
	style="fill:rgb(192,192,192);stroke:none"
	opacity="1.0" />
<line
	class="arc1"
	id="link97_@1_98"
	x1="674.853"
	y1="291.8853"
	x2="680.9018"
	y2="282.3764" />
<line
	class="arc0"
	id="link97_@0_91"
	x1="674.853"
	y1="291.8853"
	x2="563.02747"
	y2="306.1337" />
<line
	class="arc0"
	id="link98_@0_99"
	x1="680.9018"
	y1="282.3764"
	x2="698.34955"
	y2="107.316956" />
<line
	class="arc1"
	id="link15_@1_16"
	x1="881.34814"
	y1="573.3277"
	x2="889.3095"
	y2="564.32166" />
<line
	class="arc2"
	id="link15_@2_7"
	x1="881.34814"
	y1="573.3277"
	x2="876.17804"
	y2="583.4783" />
<line
	class="arc2"
	id="link16_@2_11"
	x1="889.3095"
	y1="564.32166"
	x2="892.10065"
	y2="565.4661" />
<line
	class="arc0"
	id="link16_@0_17"
	x1="889.3095"
	y1="564.32166"
	x2="889.3095"
	y2="348.15" />
<line
	class="arc1"
	id="link7_@1_6"
	x1="876.17804"
	y1="583.4783"
	x2="878.96924"
	y2="584.62274" />
<polygon
	points="892.10065,565.4661 892.10065,349.2945 886.93054,340.53165 772.72595,356.61838 769.54626,371.60992 769.54626,578.3249 772.72595,591.70337 886.93054,575.6167 "
	id="face_12_13_58_57_56_55_10_11"
	style="fill:rgb(192,192,192);stroke:none"
	opacity="1.0" />
<line
	class="arc1"
	id="link11_@1_10"
	x1="892.10065"
	y1="565.4661"
	x2="886.93054"
	y2="575.6167" />
<line
	class="arc0"
	id="link11_@0_12"
	x1="892.10065"
	y1="565.4661"
	x2="892.10065"
	y2="349.2945" />
<line
	class="arc2"
	id="link6_@2_10"
	x1="878.96924"
	y1="584.62274"
	x2="886.93054"
	y2="575.6167" />
<line
	class="arc0"
	id="link6_@0_5"
	x1="878.96924"
	y1="584.62274"
	x2="768.7453"
	y2="600.93475" />
<line
	class="arc1"
	id="link18_@1_17"
	x1="881.34814"
	y1="338.24268"
	x2="889.3095"
	y2="348.15" />
<line
	class="arc2"
	id="link18_@2_19"
	x1="881.34814"
	y1="338.24268"
	x2="876.17804"
	y2="329.47992" />
<line
	class="arc2"
	id="link17_@2_12"
	x1="889.3095"
	y1="348.15"
	x2="892.10065"
	y2="349.2945" />
<line
	class="arc0"
	id="link10_@0_55"
	x1="886.93054"
	y1="575.6167"
	x2="772.72595"
	y2="591.70337" />
<line
	class="arc1"
	id="link109_@1_110"
	x1="867.1826"
	y1="300.7981"
	x2="868.0612"
	y2="291.98303" />
<line
	class="arc2"
	id="link109_@2_108"
	x1="867.1826"
	y1="300.7981"
	x2="869.0953"
	y2="310.7576" />
<line
	class="arc1"
	id="link19_@1_14"
	x1="876.17804"
	y1="329.47992"
	x2="878.96924"
	y2="330.6244" />
<line
	class="arc3"
	id="link19_@3_108"
	x1="876.17804"
	y1="329.47992"
	x2="869.0953"
	y2="310.7576" />
<line
	class="arc1"
	id="link108_@1_114"
	x1="869.0953"
	y1="310.7576"
	x2="871.8865"
	y2="311.9021" />
<line
	class="arc2"
	id="link110_@2_116"
	x1="868.0612"
	y1="291.98303"
	x2="870.8524"
	y2="293.1275" />
<line
	class="arc0"
	id="link110_@0_111"
	x1="868.0612"
	y1="291.98303"
	x2="727.4037"
	y2="107.974915" />
<line
	class="arc1"
	id="link12_@1_13"
	x1="892.10065"
	y1="349.2945"
	x2="886.93054"
	y2="340.53165" />
<line
	class="arc2"
	id="link14_@2_13"
	x1="878.96924"
	y1="330.6244"
	x2="886.93054"
	y2="340.53165" />
<line
	class="arc3"
	id="link14_@3_114"
	x1="878.96924"
	y1="330.6244"
	x2="871.8865"
	y2="311.9021" />
<line
	class="arc0"
	id="link14_@0_59"
	x1="878.96924"
	y1="330.6244"
	x2="768.7453"
	y2="346.9364" />
<line
	class="arc2"
	id="link114_@2_115"
	x1="871.8865"
	y1="311.9021"
	x2="872.765"
	y2="303.08707" />
<line
	class="arc0"
	id="link114_@0_60"
	x1="871.8865"
	y1="311.9021"
	x2="766.83276"
	y2="327.52023" />
<line
	class="arc0"
	id="link13_@0_58"
	x1="886.93054"
	y1="340.53165"
	x2="772.72595"
	y2="356.61838" />
<polygon
	points="870.8524,293.1275 730.1949,109.119446 723.8352,110.73242 761.818,308.52036 768.9008,317.78604 872.765,303.08707 "
	id="face_117_63_62_61_115_116"
	style="fill:rgb(0,255,0);stroke:none"
	opacity="1.0" />
<line
	class="arc1"
	id="link116_@1_115"
	x1="870.8524"
	y1="293.1275"
	x2="872.765"
	y2="303.08707" />
<line
	class="arc0"
	id="link116_@0_117"
	x1="870.8524"
	y1="293.1275"
	x2="730.1949"
	y2="109.119446" />
<line
	class="arc0"
	id="link115_@0_61"
	x1="872.765"
	y1="303.08707"
	x2="768.9008"
	y2="317.78604" />
<line
	class="arc1"
	id="link30_@1_31"
	x1="550.93005"
	y1="579.14984"
	x2="543.76953"
	y2="565.546" />
<line
	class="arc2"
	id="link30_@2_2"
	x1="550.93005"
	y1="579.14984"
	x2="554.9107"
	y2="588.8318" />
<line
	class="arc1"
	id="link2_@1_3"
	x1="554.9107"
	y1="588.8318"
	x2="555.7115"
	y2="594.592" />
<line
	class="arc2"
	id="link31_@2_36"
	x1="543.76953"
	y1="565.546"
	x2="540.5897"
	y2="561.6242" />
<line
	class="arc0"
	id="link31_@0_32"
	x1="543.76953"
	y1="565.546"
	x2="543.76953"
	y2="358.83105" />
<line
	class="arc2"
	id="link3_@2_35"
	x1="555.7115"
	y1="594.592"
	x2="552.5317"
	y2="590.67017" />
<line
	class="arc0"
	id="link3_@0_8"
	x1="555.7115"
	y1="594.592"
	x2="640.3466"
	y2="601.3553" />
<polygon
	points="540.5897,561.6242 540.5897,364.36594 541.39056,360.6694 580.91693,456.80743 580.91693,475.72076 541.39056,567.3844 "
	id="face_37_124_125_123_122_36"
	style="fill:rgb(192,192,192);stroke:none"
	opacity="1.0" />
<line
	class="arc1"
	id="link36_@1_122"
	x1="540.5897"
	y1="561.6242"
	x2="541.39056"
	y2="567.3844" />
<line
	class="arc0"
	id="link36_@0_37"
	x1="540.5897"
	y1="561.6242"
	x2="540.5897"
	y2="364.36594" />
<line
	class="arc1"
	id="link105_@1_111"
	x1="711.481"
	y1="107.07367"
	x2="727.4037"
	y2="107.974915" />
<line
	class="arc2"
	id="link105_@2_99"
	x1="711.481"
	y1="107.07367"
	x2="698.34955"
	y2="107.316956" />
<line
	class="arc1"
	id="link33_@1_32"
	x1="550.93005"
	y1="344.06482"
	x2="543.76953"
	y2="358.83105" />
<line
	class="arc2"
	id="link33_@2_34"
	x1="550.93005"
	y1="344.06482"
	x2="554.9107"
	y2="334.83347" />
<polygon
	points="552.5317,590.67017 634.37555,596.289 632.38525,581.99133 592.8589,485.85336 584.8976,485.40274 545.3713,577.06635 "
	id="face_40_134_135_121_120_35"
	style="fill:rgb(192,192,192);stroke:none"
	opacity="1.0" />
<line
	class="arc1"
	id="link35_@1_120"
	x1="552.5317"
	y1="590.67017"
	x2="545.3713"
	y2="577.06635" />
<line
	class="arc0"
	id="link35_@0_40"
	x1="552.5317"
	y1="590.67017"
	x2="634.37555"
	y2="596.289" />
<line
	class="arc1"
	id="link91_@1_92"
	x1="563.02747"
	y1="306.1337"
	x2="563.90607"
	y2="297.31863" />
<line
	class="arc2"
	id="link91_@2_90"
	x1="563.02747"
	y1="306.1337"
	x2="560.9594"
	y2="315.86786" />
<line
	class="arc1"
	id="link99_@1_93"
	x1="698.34955"
	y1="107.316956"
	x2="684.0286"
	y2="108.47943" />
<line
	class="arc1"
	id="link34_@1_39"
	x1="554.9107"
	y1="334.83347"
	x2="555.7115"
	y2="331.13696" />
<line
	class="arc3"
	id="link34_@3_90"
	x1="554.9107"
	y1="334.83347"
	x2="560.9594"
	y2="315.86786" />
<line
	class="arc1"
	id="link90_@1_84"
	x1="560.9594"
	y1="315.86786"
	x2="559.7699"
	y2="316.78708" />
<line
	class="arc2"
	id="link32_@2_37"
	x1="543.76953"
	y1="358.83105"
	x2="540.5897"
	y2="364.36594" />
<line
	class="arc2"
	id="link122_@2_120"
	x1="541.39056"
	y1="567.3844"
	x2="545.3713"
	y2="577.06635" />
<line
	class="arc0"
	id="link122_@0_123"
	x1="541.39056"
	y1="567.3844"
	x2="580.91693"
	y2="475.72076" />
<line
	class="arc2"
	id="link111_@2_117"
	x1="727.4037"
	y1="107.974915"
	x2="730.1949"
	y2="109.119446" />
<line
	class="arc2"
	id="link92_@2_86"
	x1="563.90607"
	y1="297.31863"
	x2="562.71655"
	y2="298.23782" />
<line
	class="arc0"
	id="link92_@0_93"
	x1="563.90607"
	y1="297.31863"
	x2="684.0286"
	y2="108.47943" />
<line
	class="arc0"
	id="link120_@0_121"
	x1="545.3713"
	y1="577.06635"
	x2="584.8976"
	y2="485.40274" />
<line
	class="arc1"
	id="link37_@1_124"
	x1="540.5897"
	y1="364.36594"
	x2="541.39056"
	y2="360.6694" />
<line
	class="arc2"
	id="link39_@2_38"
	x1="555.7115"
	y1="331.13696"
	x2="552.5317"
	y2="336.6718" />
<line
	class="arc3"
	id="link39_@3_84"
	x1="555.7115"
	y1="331.13696"
	x2="559.7699"
	y2="316.78708" />
<line
	class="arc0"
	id="link39_@0_44"
	x1="555.7115"
	y1="331.13696"
	x2="640.3466"
	y2="337.90027" />
<line
	class="arc2"
	id="link84_@2_85"
	x1="559.7699"
	y1="316.78708"
	x2="560.6485"
	y2="307.97208" />
<line
	class="arc0"
	id="link84_@0_78"
	x1="559.7699"
	y1="316.78708"
	x2="644.40497"
	y2="323.5504" />
<line
	class="arc2"
	id="link93_@2_87"
	x1="684.0286"
	y1="108.47943"
	x2="682.8392"
	y2="109.39856" />
<polygon
	points="562.71655,298.23782 682.8392,109.39856 689.61096,110.76837 648.541,304.0819 642.4924,313.59088 560.6485,307.97208 "
	id="face_87_81_80_79_85_86"
	style="fill:rgb(192,192,192);stroke:none"
	opacity="1.0" />
<line
	class="arc1"
	id="link86_@1_85"
	x1="562.71655"
	y1="298.23782"
	x2="560.6485"
	y2="307.97208" />
<line
	class="arc0"
	id="link86_@0_87"
	x1="562.71655"
	y1="298.23782"
	x2="682.8392"
	y2="109.39856" />
<line
	class="arc1"
	id="link117_@1_63"
	x1="730.1949"
	y1="109.119446"
	x2="723.8352"
	y2="110.73242" />
<line
	class="arc0"
	id="link85_@0_79"
	x1="560.6485"
	y1="307.97208"
	x2="642.4924"
	y2="313.59088" />
<polygon
	points="552.5317,336.6718 634.37555,342.29065 632.38525,356.36298 592.8589,448.02667 584.8976,447.57608 545.3713,351.43805 "
	id="face_43_128_129_127_126_38"
	style="fill:rgb(192,192,192);stroke:none"
	opacity="1.0" />
<line
	class="arc1"
	id="link38_@1_126"
	x1="552.5317"
	y1="336.6718"
	x2="545.3713"
	y2="351.43805" />
<line
	class="arc0"
	id="link38_@0_43"
	x1="552.5317"
	y1="336.6718"
	x2="634.37555"
	y2="342.29065" />
<line
	class="arc1"
	id="link87_@1_81"
	x1="682.8392"
	y1="109.39856"
	x2="689.61096"
	y2="110.76837" />
<line
	class="arc2"
	id="link124_@2_126"
	x1="541.39056"
	y1="360.6694"
	x2="545.3713"
	y2="351.43805" />
<line
	class="arc0"
	id="link124_@0_125"
	x1="541.39056"
	y1="360.6694"
	x2="580.91693"
	y2="456.80743" />
<line
	class="arc0"
	id="link126_@0_127"
	x1="545.3713"
	y1="351.43805"
	x2="584.8976"
	y2="447.57608" />
<line
	class="arc2"
	id="link63_@2_69"
	x1="723.8352"
	y1="110.73242"
	x2="714.6845"
	y2="111.20105" />
<line
	class="arc0"
	id="link63_@0_62"
	x1="723.8352"
	y1="110.73242"
	x2="761.818"
	y2="308.52036" />
<line
	class="arc2"
	id="link81_@2_75"
	x1="689.61096"
	y1="110.76837"
	x2="697.57227"
	y2="111.219055" />
<line
	class="arc0"
	id="link81_@0_80"
	x1="689.61096"
	y1="110.76837"
	x2="648.541"
	y2="304.0819" />
<line
	class="arc1"
	id="link123_@1_125"
	x1="580.91693"
	y1="475.72076"
	x2="580.91693"
	y2="456.80743" />
<line
	class="arc2"
	id="link123_@2_121"
	x1="580.91693"
	y1="475.72076"
	x2="584.8976"
	y2="485.40274" />
<line
	class="arc1"
	id="link121_@1_135"
	x1="584.8976"
	y1="485.40274"
	x2="592.8589"
	y2="485.85336" />
<line
	class="arc2"
	id="link125_@2_127"
	x1="580.91693"
	y1="456.80743"
	x2="584.8976"
	y2="447.57608" />
<polygon
	points="714.6845,111.20105 752.6672,308.98895 750.5992,318.7232 658.415,314.4921 656.5024,304.53253 697.57227,111.219055 "
	id="face_68_67_73_74_75_69"
	style="fill:rgb(192,192,192);stroke:none"
	opacity="1.0" />
<line
	class="arc1"
	id="link69_@1_75"
	x1="714.6845"
	y1="111.20105"
	x2="697.57227"
	y2="111.219055" />
<line
	class="arc0"
	id="link69_@0_68"
	x1="714.6845"
	y1="111.20105"
	x2="752.6672"
	y2="308.98895" />
<line
	class="arc0"
	id="link75_@0_74"
	x1="697.57227"
	y1="111.219055"
	x2="656.5024"
	y2="304.53253" />
<line
	class="arc1"
	id="link127_@1_129"
	x1="584.8976"
	y1="447.57608"
	x2="592.8589"
	y2="448.02667" />
<line
	class="arc2"
	id="link135_@2_133"
	x1="592.8589"
	y1="485.85336"
	x2="596.8396"
	y2="476.62195" />
<line
	class="arc0"
	id="link135_@0_134"
	x1="592.8589"
	y1="485.85336"
	x2="632.38525"
	y2="581.99133" />
<line
	class="arc2"
	id="link129_@2_131"
	x1="592.8589"
	y1="448.02667"
	x2="596.8396"
	y2="457.70865" />
<line
	class="arc0"
	id="link129_@0_128"
	x1="592.8589"
	y1="448.02667"
	x2="632.38525"
	y2="356.36298" />
<polygon
	points="596.8396,476.62195 636.3659,572.75995 644.3272,563.7539 644.3272,375.95227 636.3659,366.04498 596.8396,457.70865 "
	id="face_132_41_42_130_131_133"
	style="fill:rgb(192,192,192);stroke:none"
	opacity="1.0" />
<line
	class="arc1"
	id="link133_@1_131"
	x1="596.8396"
	y1="476.62195"
	x2="596.8396"
	y2="457.70865" />
<line
	class="arc0"
	id="link133_@0_132"
	x1="596.8396"
	y1="476.62195"
	x2="636.3659"
	y2="572.75995" />
<line
	class="arc0"
	id="link131_@0_130"
	x1="596.8396"
	y1="457.70865"
	x2="636.3659"
	y2="366.04498" />
<line
	class="arc1"
	id="link40_@1_134"
	x1="634.37555"
	y1="596.289"
	x2="632.38525"
	y2="581.99133" />
<line
	class="arc2"
	id="link40_@2_8"
	x1="634.37555"
	y1="596.289"
	x2="640.3466"
	y2="601.3553" />
<line
	class="arc2"
	id="link134_@2_132"
	x1="632.38525"
	y1="581.99133"
	x2="636.3659"
	y2="572.75995" />
<line
	class="arc1"
	id="link8_@1_9"
	x1="640.3466"
	y1="601.3553"
	x2="652.2886"
	y2="602.0312" />
<line
	class="arc1"
	id="link132_@1_41"
	x1="636.3659"
	y1="572.75995"
	x2="644.3272"
	y2="563.7539" />
<line
	class="arc2"
	id="link41_@2_46"
	x1="644.3272"
	y1="563.7539"
	x2="648.30786"
	y2="563.9792" />
<line
	class="arc0"
	id="link41_@0_42"
	x1="644.3272"
	y1="563.7539"
	x2="644.3272"
	y2="375.95227" />
<line
	class="arc2"
	id="link9_@2_45"
	x1="652.2886"
	y1="602.0312"
	x2="658.2596"
	y2="597.6408" />
<line
	class="arc0"
	id="link9_@0_4"
	x1="652.2886"
	y1="602.0312"
	x2="757.6042"
	y2="606.019" />
<polygon
	points="648.30786,563.9792 648.30786,376.17755 656.2692,367.1715 695.79553,463.30954 695.79553,482.22284 656.2692,573.8865 "
	id="face_47_146_147_149_148_46"
	style="fill:rgb(192,192,192);stroke:none"
	opacity="1.0" />
<line
	class="arc1"
	id="link46_@1_148"
	x1="648.30786"
	y1="563.9792"
	x2="656.2692"
	y2="573.8865" />
<line
	class="arc0"
	id="link46_@0_47"
	x1="648.30786"
	y1="563.9792"
	x2="648.30786"
	y2="376.17755" />
<polygon
	points="658.2596,597.6408 750.4437,601.8719 747.2639,588.4934 707.73755,492.35544 699.77625,491.90482 660.2499,583.5685 "
	id="face_50_136_137_151_150_45"
	style="fill:rgb(192,192,192);stroke:none"
	opacity="1.0" />
<line
	class="arc1"
	id="link45_@1_150"
	x1="658.2596"
	y1="597.6408"
	x2="660.2499"
	y2="583.5685" />
<line
	class="arc0"
	id="link45_@0_50"
	x1="658.2596"
	y1="597.6408"
	x2="750.4437"
	y2="601.8719" />
<line
	class="arc2"
	id="link148_@2_150"
	x1="656.2692"
	y1="573.8865"
	x2="660.2499"
	y2="583.5685" />
<line
	class="arc0"
	id="link148_@0_149"
	x1="656.2692"
	y1="573.8865"
	x2="695.79553"
	y2="482.22284" />
<line
	class="arc0"
	id="link150_@0_151"
	x1="660.2499"
	y1="583.5685"
	x2="699.77625"
	y2="491.90482" />
<line
	class="arc1"
	id="link128_@1_43"
	x1="632.38525"
	y1="356.36298"
	x2="634.37555"
	y2="342.29065" />
<line
	class="arc2"
	id="link128_@2_130"
	x1="632.38525"
	y1="356.36298"
	x2="636.3659"
	y2="366.04498" />
<line
	class="arc1"
	id="link79_@1_80"
	x1="642.4924"
	y1="313.59088"
	x2="648.541"
	y2="304.0819" />
<line
	class="arc2"
	id="link79_@2_78"
	x1="642.4924"
	y1="313.59088"
	x2="644.40497"
	y2="323.5504" />
<line
	class="arc2"
	id="link80_@2_74"
	x1="648.541"
	y1="304.0819"
	x2="656.5024"
	y2="304.53253" />
<line
	class="arc1"
	id="link130_@1_42"
	x1="636.3659"
	y1="366.04498"
	x2="644.3272"
	y2="375.95227" />
<line
	class="arc2"
	id="link43_@2_44"
	x1="634.37555"
	y1="342.29065"
	x2="640.3466"
	y2="337.90027" />
<line
	class="arc2"
	id="link42_@2_47"
	x1="644.3272"
	y1="375.95227"
	x2="648.30786"
	y2="376.17755" />
<line
	class="arc1"
	id="link44_@1_49"
	x1="640.3466"
	y1="337.90027"
	x2="652.2886"
	y2="338.57617" />
<line
	class="arc3"
	id="link44_@3_78"
	x1="640.3466"
	y1="337.90027"
	x2="644.40497"
	y2="323.5504" />
<line
	class="arc1"
	id="link74_@1_73"
	x1="656.5024"
	y1="304.53253"
	x2="658.415"
	y2="314.4921" />
<line
	class="arc1"
	id="link78_@1_72"
	x1="644.40497"
	y1="323.5504"
	x2="652.3662"
	y2="324.00098" />
<line
	class="arc1"
	id="link47_@1_146"
	x1="648.30786"
	y1="376.17755"
	x2="656.2692"
	y2="367.1715" />
<line
	class="arc2"
	id="link72_@2_73"
	x1="652.3662"
	y1="324.00098"
	x2="658.415"
	y2="314.4921" />
<line
	class="arc3"
	id="link72_@3_49"
	x1="652.3662"
	y1="324.00098"
	x2="652.2886"
	y2="338.57617" />
<line
	class="arc0"
	id="link72_@0_66"
	x1="652.3662"
	y1="324.00098"
	x2="757.6819"
	y2="327.9888" />
<line
	class="arc0"
	id="link73_@0_67"
	x1="658.415"
	y1="314.4921"
	x2="750.5992"
	y2="318.7232" />
<line
	class="arc2"
	id="link49_@2_48"
	x1="652.2886"
	y1="338.57617"
	x2="658.2596"
	y2="343.6425" />
<line
	class="arc0"
	id="link49_@0_54"
	x1="652.2886"
	y1="338.57617"
	x2="757.6042"
	y2="342.56403" />
<line
	class="arc2"
	id="link146_@2_144"
	x1="656.2692"
	y1="367.1715"
	x2="660.2499"
	y2="357.94012" />
<line
	class="arc0"
	id="link146_@0_147"
	x1="656.2692"
	y1="367.1715"
	x2="695.79553"
	y2="463.30954" />
<polygon
	points="658.2596,343.6425 750.4437,347.87357 747.2639,362.86508 707.73755,454.52878 699.77625,454.07816 660.2499,357.94012 "
	id="face_53_142_143_145_144_48"
	style="fill:rgb(192,192,192);stroke:none"
	opacity="1.0" />
<line
	class="arc1"
	id="link48_@1_144"
	x1="658.2596"
	y1="343.6425"
	x2="660.2499"
	y2="357.94012" />
<line
	class="arc0"
	id="link48_@0_53"
	x1="658.2596"
	y1="343.6425"
	x2="750.4437"
	y2="347.87357" />
<line
	class="arc0"
	id="link144_@0_145"
	x1="660.2499"
	y1="357.94012"
	x2="699.77625"
	y2="454.07816" />
<line
	class="arc1"
	id="link149_@1_147"
	x1="695.79553"
	y1="482.22284"
	x2="695.79553"
	y2="463.30954" />
<line
	class="arc2"
	id="link149_@2_151"
	x1="695.79553"
	y1="482.22284"
	x2="699.77625"
	y2="491.90482" />
<line
	class="arc2"
	id="link147_@2_145"
	x1="695.79553"
	y1="463.30954"
	x2="699.77625"
	y2="454.07816" />
<line
	class="arc1"
	id="link151_@1_137"
	x1="699.77625"
	y1="491.90482"
	x2="707.73755"
	y2="492.35544" />
<line
	class="arc1"
	id="link5_@1_4"
	x1="768.7453"
	y1="600.93475"
	x2="757.6042"
	y2="606.019" />
<line
	class="arc2"
	id="link5_@2_55"
	x1="768.7453"
	y1="600.93475"
	x2="772.72595"
	y2="591.70337" />
<line
	class="arc1"
	id="link145_@1_143"
	x1="699.77625"
	y1="454.07816"
	x2="707.73755"
	y2="454.52878" />
<line
	class="arc2"
	id="link4_@2_50"
	x1="757.6042"
	y1="606.019"
	x2="750.4437"
	y2="601.8719" />
<line
	class="arc1"
	id="link55_@1_56"
	x1="772.72595"
	y1="591.70337"
	x2="769.54626"
	y2="578.3249" />
<line
	class="arc2"
	id="link137_@2_139"
	x1="707.73755"
	y1="492.35544"
	x2="711.7182"
	y2="483.12402" />
<line
	class="arc0"
	id="link137_@0_136"
	x1="707.73755"
	y1="492.35544"
	x2="747.2639"
	y2="588.4934" />
<polygon
	points="711.7182,483.12402 751.2445,579.262 762.3857,574.1778 762.3857,376.91953 751.2445,372.5471 711.7182,464.21072 "
	id="face_138_51_52_140_141_139"
	style="fill:rgb(192,192,192);stroke:none"
	opacity="1.0" />
<line
	class="arc1"
	id="link139_@1_141"
	x1="711.7182"
	y1="483.12402"
	x2="711.7182"
	y2="464.21072" />
<line
	class="arc0"
	id="link139_@0_138"
	x1="711.7182"
	y1="483.12402"
	x2="751.2445"
	y2="579.262" />
<line
	class="arc2"
	id="link143_@2_141"
	x1="707.73755"
	y1="454.52878"
	x2="711.7182"
	y2="464.21072" />
<line
	class="arc0"
	id="link143_@0_142"
	x1="707.73755"
	y1="454.52878"
	x2="747.2639"
	y2="362.86508" />
<line
	class="arc0"
	id="link141_@0_140"
	x1="711.7182"
	y1="464.21072"
	x2="751.2445"
	y2="372.5471" />
<line
	class="arc1"
	id="link50_@1_136"
	x1="750.4437"
	y1="601.8719"
	x2="747.2639"
	y2="588.4934" />
<line
	class="arc2"
	id="link56_@2_51"
	x1="769.54626"
	y1="578.3249"
	x2="762.3857"
	y2="574.1778" />
<line
	class="arc0"
	id="link56_@0_57"
	x1="769.54626"
	y1="578.3249"
	x2="769.54626"
	y2="371.60992" />
<line
	class="arc1"
	id="link61_@1_62"
	x1="768.9008"
	y1="317.78604"
	x2="761.818"
	y2="308.52036" />
<line
	class="arc2"
	id="link61_@2_60"
	x1="768.9008"
	y1="317.78604"
	x2="766.83276"
	y2="327.52023" />
<line
	class="arc1"
	id="link60_@1_66"
	x1="766.83276"
	y1="327.52023"
	x2="757.6819"
	y2="327.9888" />
<line
	class="arc3"
	id="link60_@3_59"
	x1="766.83276"
	y1="327.52023"
	x2="768.7453"
	y2="346.9364" />
<line
	class="arc2"
	id="link62_@2_68"
	x1="761.818"
	y1="308.52036"
	x2="752.6672"
	y2="308.98895" />
<line
	class="arc1"
	id="link51_@1_138"
	x1="762.3857"
	y1="574.1778"
	x2="751.2445"
	y2="579.262" />
<line
	class="arc0"
	id="link51_@0_52"
	x1="762.3857"
	y1="574.1778"
	x2="762.3857"
	y2="376.91953" />
<line
	class="arc2"
	id="link136_@2_138"
	x1="747.2639"
	y1="588.4934"
	x2="751.2445"
	y2="579.262" />
<line
	class="arc1"
	id="link59_@1_54"
	x1="768.7453"
	y1="346.9364"
	x2="757.6042"
	y2="342.56403" />
<line
	class="arc2"
	id="link59_@2_58"
	x1="768.7453"
	y1="346.9364"
	x2="772.72595"
	y2="356.61838" />
<line
	class="arc2"
	id="link66_@2_67"
	x1="757.6819"
	y1="327.9888"
	x2="750.5992"
	y2="318.7232" />
<line
	class="arc3"
	id="link66_@3_54"
	x1="757.6819"
	y1="327.9888"
	x2="757.6042"
	y2="342.56403" />
<line
	class="arc1"
	id="link58_@1_57"
	x1="772.72595"
	y1="356.61838"
	x2="769.54626"
	y2="371.60992" />
<line
	class="arc1"
	id="link68_@1_67"
	x1="752.6672"
	y1="308.98895"
	x2="750.5992"
	y2="318.7232" />
<line
	class="arc2"
	id="link54_@2_53"
	x1="757.6042"
	y1="342.56403"
	x2="750.4437"
	y2="347.87357" />
<line
	class="arc2"
	id="link57_@2_52"
	x1="769.54626"
	y1="371.60992"
	x2="762.3857"
	y2="376.91953" />
<line
	class="arc1"
	id="link53_@1_142"
	x1="750.4437"
	y1="347.87357"
	x2="747.2639"
	y2="362.86508" />
<line
	class="arc1"
	id="link52_@1_140"
	x1="762.3857"
	y1="376.91953"
	x2="751.2445"
	y2="372.5471" />
<line
	class="arc2"
	id="link142_@2_140"
	x1="747.2639"
	y1="362.86508"
	x2="751.2445"
	y2="372.5471" />
</svg>
