<?xml version="1.0" encoding="UTF-8" standalone="no"?>
<!-- Created with Jerboa -->

<svg
   width="342.01416"
   height="533.68799"
   version="1.1"
   id="svg1"
   sodipodi:docname="build-init-v3-10.svg"
   inkscape:version="1.3.2 (091e20ef0f, 2023-11-25, custom)"
   xmlns:inkscape="http://www.inkscape.org/namespaces/inkscape"
   xmlns:sodipodi="http://sodipodi.sourceforge.net/DTD/sodipodi-0.dtd"
   xmlns="http://www.w3.org/2000/svg"
   xmlns:svg="http://www.w3.org/2000/svg">
  <defs
     id="defs1" />
  <sodipodi:namedview
     id="namedview1"
     pagecolor="#ffffff"
     bordercolor="#000000"
     borderopacity="0.25"
     inkscape:showpageshadow="2"
     inkscape:pageopacity="0.0"
     inkscape:pagecheckerboard="0"
     inkscape:deskcolor="#d1d1d1"
     showgrid="false"
     inkscape:zoom="0.87677054"
     inkscape:cx="187.05008"
     inkscape:cy="145.42003"
     inkscape:window-width="1892"
     inkscape:window-height="1034"
     inkscape:window-x="9"
     inkscape:window-y="27"
     inkscape:window-maximized="1"
     inkscape:current-layer="svg1" />
  <style
     id="style">
		.arc0 {
			fill:none;
			fill-rule:evenodd;
			stroke:black;
			stroke-width:4;
			stroke-linecap:round;
			stroke-linejoin:round;
			stroke-opacity:1;
		}
		.arc1 {
			fill:none;
			fill-rule:evenodd;
			stroke:red;
			stroke-width:4;
			stroke-linecap:round;
			stroke-linejoin:round;
			stroke-opacity:1;
		}
		.arc2 {
			fill:none;
			fill-rule:evenodd;
			stroke:blue;
			stroke-width:4;
			stroke-linecap:round;
			stroke-linejoin:round;
			stroke-opacity:1;
		}
		.arc3 {
			fill:none;
			fill-rule:evenodd;
			stroke:green;
			stroke-width:4;
			stroke-linecap:round;
			stroke-linejoin:round;
			stroke-opacity:1;
		}
		.topological-dart {
			fill:#000000;
			stroke:#000000;
			stroke-width:0;
			stroke-linecap:round;
			stroke-linejoin:round;
			stroke-dasharray:none;
			paint-order:markers fill stroke;
		}
	</style>
  <polygon
     points="661.9783,558.6822 661.9783,351.51187 669.6081,342.8808 846.4969,352.41992 854.1267,361.9147 851.64935,569.4175 844.0194,578.0485 669.6081,568.17694 "
     id="face_20_21_16_15_14_13_18_19"
     style="fill:#c0c0c0;stroke:none"
     opacity="1"
     transform="translate(-519.26495,-78.75959)" />
  <line
     class="arc1"
     id="link19_@1_18"
     x1="142.71332"
     y1="479.92261"
     x2="150.34314"
     y2="489.41736" />
  <line
     class="arc2"
     id="link19_@2_24"
     x1="142.71332"
     y1="479.92261"
     x2="130.12866"
     y2="480.15576" />
  <line
     class="arc0"
     id="link19_@0_20"
     x1="142.71332"
     y1="479.92261"
     x2="142.71332"
     y2="272.75229" />
  <polygon
     points="649.3936,558.91534 649.3936,351.74503 644.4387,343.34708 531.1747,358.54803 522.4049,372.59146 522.4049,570.69885 531.1747,583.8442 644.4387,568.6432 "
     id="face_25_26_31_30_29_28_23_24"
     style="fill:#c0c0c0;stroke:none"
     opacity="1"
     transform="translate(-519.26495,-78.75959)" />
  <line
     class="arc1"
     id="link24_@1_23"
     x1="130.12866"
     y1="480.15576"
     x2="125.17377"
     y2="489.88361" />
  <line
     class="arc0"
     id="link24_@0_25"
     x1="130.12866"
     y1="480.15576"
     x2="130.12866"
     y2="272.98544" />
  <line
     class="arc2"
     id="link18_@2_0"
     x1="150.34314"
     y1="489.41736"
     x2="145.38831"
     y2="499.14526" />
  <line
     class="arc0"
     id="link18_@0_13"
     x1="150.34314"
     y1="489.41736"
     x2="324.75446"
     y2="499.28894" />
  <line
     class="arc2"
     id="link23_@2_1"
     x1="125.17377"
     y1="489.88361"
     x2="132.80359"
     y2="499.37836" />
  <line
     class="arc0"
     id="link23_@0_28"
     x1="125.17377"
     y1="489.88361"
     x2="11.909729"
     y2="505.08459" />
  <polygon
     points="664.65326,577.90485 839.06464,587.7764 841.73956,588.8733 728.4756,604.0742 712.07587,608.62286 545.2944,599.1831 538.8045,593.3389 652.06854,578.13794 "
     id="face_7_6_5_4_3_2_1_0"
     style="fill:#c0c0c0;stroke:none"
     opacity="1"
     transform="translate(-519.26495,-78.75959)" />
  <line
     class="arc1"
     id="link0_@1_1"
     x1="145.38831"
     y1="499.14526"
     x2="132.80359"
     y2="499.37836" />
  <line
     class="arc0"
     id="link0_@0_7"
     x1="145.38831"
     y1="499.14526"
     x2="319.79968"
     y2="509.01685" />
  <line
     class="arc0"
     id="link1_@0_2"
     x1="132.80359"
     y1="499.37836"
     x2="19.539551"
     y2="514.57935" />
  <line
     class="arc1"
     id="link20_@1_21"
     x1="142.71332"
     y1="272.75229"
     x2="150.34314"
     y2="264.12122" />
  <line
     class="arc2"
     id="link20_@2_25"
     x1="142.71332"
     y1="272.75229"
     x2="130.12866"
     y2="272.98544" />
  <line
     class="arc1"
     id="link25_@1_26"
     x1="130.12866"
     y1="272.98544"
     x2="125.17377"
     y2="264.58749" />
  <line
     class="arc2"
     id="link21_@2_22"
     x1="150.34314"
     y1="264.12122"
     x2="145.38831"
     y2="255.7233" />
  <line
     class="arc0"
     id="link21_@0_16"
     x1="150.34314"
     y1="264.12122"
     x2="327.23193"
     y2="273.66034" />
  <line
     class="arc2"
     id="link26_@2_27"
     x1="125.17377"
     y1="264.58749"
     x2="132.80359"
     y2="255.95642" />
  <line
     class="arc0"
     id="link26_@0_31"
     x1="125.17377"
     y1="264.58749"
     x2="11.909729"
     y2="279.78845" />
  <polygon
     points="538.8045,349.91696 652.06854,334.716 664.65326,334.48288 844.0194,343.6895 849.1719,344.45386 800.3672,344.8526 721.0432,361.64975 707.12103,356.80304 545.2944,346.6983 "
     id="face_17_12_50_49_47_42_37_32_27_22"
     style="fill:#c0c0c0;stroke:none"
     opacity="1"
     transform="translate(-519.26495,-78.75959)" />
  <line
     class="arc1"
     id="link22_@1_27"
     x1="145.38831"
     y1="255.7233"
     x2="132.80359"
     y2="255.95642" />
  <line
     class="arc3"
     id="link22_@3_82"
     x1="145.38831"
     y1="255.7233"
     x2="146.64862"
     y2="241.57758" />
  <line
     class="arc0"
     id="link22_@0_17"
     x1="145.38831"
     y1="255.7233"
     x2="324.75446"
     y2="264.92993" />
  <polygon
     points="672.12866,314.58948 839.86163,323.61038 844.1738,318.70032 778.97815,196.90796 772.60864,191.39325 692.6973,187.05939 688.38513,191.96945 665.7591,309.07486 "
     id="face_89_90_91_86_92_85_84_83"
     style="fill:#c0c0c0;stroke:none"
     opacity="1"
     transform="translate(-519.26495,-78.75959)" />
  <line
     class="arc1"
     id="link83_@1_84"
     x1="152.86371"
     y1="235.8299"
     x2="146.49414"
     y2="230.31528" />
  <line
     class="arc2"
     id="link83_@2_82"
     x1="152.86371"
     y1="235.8299"
     x2="146.64862"
     y2="241.57758" />
  <line
     class="arc0"
     id="link83_@0_89"
     x1="152.86371"
     y1="235.8299"
     x2="320.59668"
     y2="244.8508" />
  <line
     class="arc2"
     id="link84_@2_78"
     x1="146.49414"
     y1="230.31528"
     x2="133.90948"
     y2="230.5484" />
  <line
     class="arc0"
     id="link84_@0_85"
     x1="146.49414"
     y1="230.31528"
     x2="169.12018"
     y2="113.20987" />
  <line
     class="arc3"
     id="link27_@3_76"
     x1="132.80359"
     y1="255.95642"
     x2="134.0639"
     y2="241.8107" />
  <line
     class="arc0"
     id="link27_@0_32"
     x1="132.80359"
     y1="255.95642"
     x2="19.539551"
     y2="271.15738" />
  <polygon
     points="653.17444,309.30798 683.35126,192.06274 682.6296,187.24585 631.3782,194.12424 625.163,199.87207 538.9194,324.6419 539.64105,329.45874 646.9593,315.05576 "
     id="face_79_98_104_73_72_71_77_78"
     style="fill:#c0c0c0;stroke:none"
     opacity="1"
     transform="translate(-519.26495,-78.75959)" />
  <line
     class="arc1"
     id="link78_@1_77"
     x1="133.90948"
     y1="230.5484"
     x2="127.69434"
     y2="236.29617" />
  <line
     class="arc0"
     id="link78_@0_79"
     x1="133.90948"
     y1="230.5484"
     x2="164.0863"
     y2="113.30316" />
  <polygon
     points="543.0377,335.37225 653.32886,320.57028 665.9136,320.33716 840.7019,329.2847 845.8542,330.049 801.0134,338.97867 796.05853,339.64368 720.6985,346.84595 710.59125,346.74658 545.71265,336.4691 "
     id="face_88_94_100_106_52_58_64_70_76_82"
     style="fill:#c0c0c0;stroke:none"
     opacity="1"
     transform="translate(-519.26495,-78.75959)" />
  <line
     class="arc1"
     id="link82_@1_76"
     x1="146.64862"
     y1="241.57758"
     x2="134.0639"
     y2="241.8107" />
  <line
     class="arc0"
     id="link82_@0_88"
     x1="146.64862"
     y1="241.57758"
     x2="321.43695"
     y2="250.52512" />
  <line
     class="arc2"
     id="link77_@2_76"
     x1="127.69434"
     y1="236.29617"
     x2="134.0639"
     y2="241.8107" />
  <line
     class="arc0"
     id="link77_@0_71"
     x1="127.69434"
     y1="236.29617"
     x2="20.376099"
     y2="250.69916" />
  <line
     class="arc0"
     id="link76_@0_70"
     x1="134.0639"
     y1="241.8107"
     x2="23.772766"
     y2="256.61267" />
  <line
     class="arc1"
     id="link13_@1_14"
     x1="324.75446"
     y1="499.28894"
     x2="332.3844"
     y2="490.6579" />
  <line
     class="arc2"
     id="link13_@2_7"
     x1="324.75446"
     y1="499.28894"
     x2="319.79968"
     y2="509.01685" />
  <line
     class="arc2"
     id="link14_@2_9"
     x1="332.3844"
     y1="490.6579"
     x2="335.05927"
     y2="491.75476" />
  <line
     class="arc0"
     id="link14_@0_15"
     x1="332.3844"
     y1="490.6579"
     x2="334.86176"
     y2="283.15512" />
  <line
     class="arc1"
     id="link7_@1_6"
     x1="319.79968"
     y1="509.01685"
     x2="322.47461"
     y2="510.11371" />
  <line
     class="arc1"
     id="link85_@1_92"
     x1="169.12018"
     y1="113.20987"
     x2="173.43237"
     y2="108.2998" />
  <line
     class="arc2"
     id="link85_@2_79"
     x1="169.12018"
     y1="113.20987"
     x2="164.0863"
     y2="113.30316" />
  <line
     class="arc1"
     id="link79_@1_98"
     x1="164.0863"
     y1="113.30316"
     x2="163.36462"
     y2="108.48627" />
  <line
     class="arc1"
     id="link16_@1_15"
     x1="327.23193"
     y1="273.66034"
     x2="334.86176"
     y2="283.15512" />
  <line
     class="arc2"
     id="link16_@2_17"
     x1="327.23193"
     y1="273.66034"
     x2="324.75446"
     y2="264.92993" />
  <line
     class="arc2"
     id="link92_@2_93"
     x1="173.43237"
     y1="108.2998"
     x2="172.71069"
     y2="103.48306" />
  <line
     class="arc0"
     id="link92_@0_86"
     x1="173.43237"
     y1="108.2998"
     x2="253.34369"
     y2="112.63367" />
  <polygon
     points="736.10535,595.4432 849.3694,580.2422 854.3242,570.51434 859.2791,362.67902 856.8017,353.94858 800.3672,344.8526 728.67303,371.14447 730.0105,385.28726 734.9654,582.7297 "
     id="face_10_11_51_48_46_45_44_43_8_9"
     style="fill:#c0c0c0;stroke:none"
     opacity="1"
     transform="translate(-519.26495,-78.75959)" />
  <line
     class="arc1"
     id="link9_@1_8"
     x1="335.05927"
     y1="491.75476"
     x2="330.10443"
     y2="501.4826" />
  <line
     class="arc0"
     id="link9_@0_10"
     x1="335.05927"
     y1="491.75476"
     x2="340.01416"
     y2="283.91943" />
  <line
     class="arc2"
     id="link6_@2_8"
     x1="322.47461"
     y1="510.11371"
     x2="330.10443"
     y2="501.4826" />
  <line
     class="arc0"
     id="link6_@0_5"
     x1="322.47461"
     y1="510.11371"
     x2="209.21063"
     y2="525.31464" />
  <line
     class="arc2"
     id="link98_@2_99"
     x1="163.36462"
     y1="108.48627"
     x2="167.67682"
     y2="103.57635" />
  <line
     class="arc0"
     id="link98_@0_104"
     x1="163.36462"
     y1="108.48627"
     x2="112.11322"
     y2="115.36465" />
  <line
     class="arc2"
     id="link15_@2_10"
     x1="334.86176"
     y1="283.15512"
     x2="340.01416"
     y2="283.91943" />
  <line
     class="arc1"
     id="link17_@1_12"
     x1="324.75446"
     y1="264.92993"
     x2="329.90692"
     y2="265.69427" />
  <line
     class="arc3"
     id="link17_@3_88"
     x1="324.75446"
     y1="264.92993"
     x2="321.43695"
     y2="250.52512" />
  <line
     class="arc1"
     id="link89_@1_90"
     x1="320.59668"
     y1="244.8508"
     x2="324.90887"
     y2="239.94073" />
  <line
     class="arc2"
     id="link89_@2_88"
     x1="320.59668"
     y1="244.8508"
     x2="321.43695"
     y2="250.52512" />
  <line
     class="arc1"
     id="link88_@1_94"
     x1="321.43695"
     y1="250.52512"
     x2="326.58923"
     y2="251.28943" />
  <polygon
     points="638.66327,188.81528 686.9418,182.33594 691.97565,182.24265 768.30005,186.18445 770.361,186.49014 750.3436,190.34131 748.36163,190.60733 716.1366,193.76749 712.09375,193.72775 639.7332,189.25397 "
     id="face_87_81_75_69_63_57_111_105_99_93"
     style="fill:#c0c0c0;stroke:none"
     opacity="1"
     transform="translate(-519.26495,-78.75959)" />
  <line
     class="arc1"
     id="link93_@1_99"
     x1="172.71069"
     y1="103.48306"
     x2="167.67682"
     y2="103.57635" />
  <line
     class="arc0"
     id="link93_@0_87"
     x1="172.71069"
     y1="103.48306"
     x2="249.0351"
     y2="107.42487" />
  <line
     class="arc0"
     id="link8_@0_43"
     x1="330.10443"
     y1="501.4826"
     x2="216.84039"
     y2="516.68359" />
  <line
     class="arc0"
     id="link99_@0_105"
     x1="167.67682"
     y1="103.57635"
     x2="119.39832"
     y2="110.05569" />
  <line
     class="arc2"
     id="link90_@2_96"
     x1="324.90887"
     y1="239.94073"
     x2="330.06134"
     y2="240.70505" />
  <line
     class="arc0"
     id="link90_@0_91"
     x1="324.90887"
     y1="239.94073"
     x2="259.7132"
     y2="118.14838" />
  <line
     class="arc1"
     id="link10_@1_11"
     x1="340.01416"
     y1="283.91943"
     x2="337.53674"
     y2="275.189" />
  <line
     class="arc2"
     id="link12_@2_11"
     x1="329.90692"
     y1="265.69427"
     x2="337.53674"
     y2="275.189" />
  <line
     class="arc3"
     id="link12_@3_94"
     x1="329.90692"
     y1="265.69427"
     x2="326.58923"
     y2="251.28943" />
  <line
     class="arc0"
     id="link12_@0_50"
     x1="329.90692"
     y1="265.69427"
     x2="281.10223"
     y2="266.09302" />
  <line
     class="arc2"
     id="link94_@2_95"
     x1="326.58923"
     y1="251.28943"
     x2="330.90155"
     y2="246.37949" />
  <line
     class="arc0"
     id="link94_@0_100"
     x1="326.58923"
     y1="251.28943"
     x2="281.74847"
     y2="260.21909" />
  <line
     class="arc0"
     id="link11_@0_51"
     x1="337.53674"
     y1="275.189"
     x2="281.10223"
     y2="266.09302" />
  <polygon
     points="849.3263,319.46463 781.0391,197.21362 776.7305,192.0047 753.1658,195.7496 754.006,201.4241 797.35114,327.89597 801.6598,333.1049 850.1665,325.13907 "
     id="face_97_80_74_103_102_101_95_96"
     style="fill:#00ff00;stroke:none"
     opacity="1"
     transform="translate(-519.26495,-78.75959)" />
  <line
     class="arc1"
     id="link96_@1_95"
     x1="330.06134"
     y1="240.70505"
     x2="330.90155"
     y2="246.37949" />
  <line
     class="arc0"
     id="link96_@0_97"
     x1="330.06134"
     y1="240.70505"
     x2="261.77417"
     y2="118.45404" />
  <line
     class="arc0"
     id="link95_@0_101"
     x1="330.90155"
     y1="246.37949"
     x2="282.39484"
     y2="254.34531" />
  <line
     class="arc1"
     id="link28_@1_29"
     x1="11.909729"
     y1="505.08459"
     x2="3.1399536"
     y2="491.93927" />
  <line
     class="arc2"
     id="link28_@2_2"
     x1="11.909729"
     y1="505.08459"
     x2="19.539551"
     y2="514.57935" />
  <line
     class="arc1"
     id="link86_@1_91"
     x1="253.34369"
     y1="112.63367"
     x2="259.7132"
     y2="118.14838" />
  <line
     class="arc2"
     id="link86_@2_87"
     x1="253.34369"
     y1="112.63367"
     x2="249.0351"
     y2="107.42487" />
  <line
     class="arc2"
     id="link91_@2_97"
     x1="259.7132"
     y1="118.14838"
     x2="261.77417"
     y2="118.45404" />
  <line
     class="arc1"
     id="link87_@1_81"
     x1="249.0351"
     y1="107.42487"
     x2="251.09607"
     y2="107.73056" />
  <line
     class="arc1"
     id="link2_@1_3"
     x1="19.539551"
     y1="514.57935"
     x2="26.029419"
     y2="520.42352" />
  <line
     class="arc1"
     id="link97_@1_80"
     x1="261.77417"
     y1="118.45404"
     x2="257.46558"
     y2="113.24512" />
  <line
     class="arc2"
     id="link29_@2_34"
     x1="3.1399536"
     y1="491.93927"
     x2="2"
     y2="488.28876" />
  <line
     class="arc0"
     id="link29_@0_30"
     x1="3.1399536"
     y1="491.93927"
     x2="3.1399536"
     y2="293.83188" />
  <line
     class="arc2"
     id="link80_@2_81"
     x1="257.46558"
     y1="113.24512"
     x2="251.09607"
     y2="107.73056" />
  <line
     class="arc0"
     id="link80_@0_74"
     x1="257.46558"
     y1="113.24512"
     x2="233.90082"
     y2="116.99002" />
  <line
     class="arc0"
     id="link81_@0_75"
     x1="251.09607"
     y1="107.73056"
     x2="231.07867"
     y2="111.58173" />
  <polygon
     points="527.7549,374.7851 603.5158,469.06396 603.5158,487.18976 527.7549,572.8925 521.26495,567.04834 521.26495,378.00385 "
     id="face_35_116_117_115_114_34"
     style="fill:#0000ff;stroke:none"
     opacity="1"
     transform="translate(-519.26495,-78.75959)" />
  <line
     class="arc1"
     id="link34_@1_114"
     x1="2"
     y1="488.28876"
     x2="8.4899292"
     y2="494.13293" />
  <line
     class="arc0"
     id="link34_@0_35"
     x1="2"
     y1="488.28876"
     x2="2"
     y2="299.24426" />
  <line
     class="arc2"
     id="link3_@2_33"
     x1="26.029419"
     y1="520.42352"
     x2="24.889526"
     y2="516.77301" />
  <line
     class="arc0"
     id="link3_@0_4"
     x1="26.029419"
     y1="520.42352"
     x2="192.81091"
     y2="529.86328" />
  <line
     class="arc1"
     id="link31_@1_30"
     x1="11.909729"
     y1="279.78845"
     x2="3.1399536"
     y2="293.83188" />
  <line
     class="arc2"
     id="link31_@2_32"
     x1="11.909729"
     y1="279.78845"
     x2="19.539551"
     y2="271.15738" />
  <line
     class="arc1"
     id="link71_@1_72"
     x1="20.376099"
     y1="250.69916"
     x2="19.654419"
     y2="245.88232" />
  <line
     class="arc2"
     id="link71_@2_70"
     x1="20.376099"
     y1="250.69916"
     x2="23.772766"
     y2="256.61267" />
  <line
     class="arc2"
     id="link30_@2_35"
     x1="3.1399536"
     y1="293.83188"
     x2="2"
     y2="299.24426" />
  <line
     class="arc1"
     id="link32_@1_37"
     x1="19.539551"
     y1="271.15738"
     x2="26.029419"
     y2="267.93872" />
  <line
     class="arc3"
     id="link32_@3_70"
     x1="19.539551"
     y1="271.15738"
     x2="23.772766"
     y2="256.61267" />
  <line
     class="arc1"
     id="link70_@1_64"
     x1="23.772766"
     y1="256.61267"
     x2="26.447693"
     y2="257.7095" />
  <line
     class="arc2"
     id="link72_@2_66"
     x1="19.654419"
     y1="245.88232"
     x2="22.329407"
     y2="246.97916" />
  <line
     class="arc0"
     id="link72_@0_73"
     x1="19.654419"
     y1="245.88232"
     x2="105.89807"
     y2="121.11249" />
  <polygon
     points="702.1662,591.827 626.4052,497.54822 611.1456,496.6845 535.3847,582.38727 544.1545,595.5326 703.30615,604.54047 "
     id="face_38_126_127_113_112_33"
     style="fill:#c0c0c0;stroke:none"
     opacity="1"
     transform="translate(-519.26495,-78.75959)" />
  <line
     class="arc1"
     id="link33_@1_112"
     x1="24.889526"
     y1="516.77301"
     x2="16.119751"
     y2="503.62769" />
  <line
     class="arc0"
     id="link33_@0_38"
     x1="24.889526"
     y1="516.77301"
     x2="184.0412"
     y2="525.78088" />
  <line
     class="arc1"
     id="link104_@1_73"
     x1="112.11322"
     y1="115.36465"
     x2="105.89807"
     y2="121.11249" />
  <line
     class="arc2"
     id="link104_@2_105"
     x1="112.11322"
     y1="115.36465"
     x2="119.39832"
     y2="110.05569" />
  <line
     class="arc2"
     id="link114_@2_112"
     x1="8.4899292"
     y1="494.13293"
     x2="16.119751"
     y2="503.62769" />
  <line
     class="arc0"
     id="link114_@0_115"
     x1="8.4899292"
     y1="494.13293"
     x2="84.250854"
     y2="408.43018" />
  <line
     class="arc1"
     id="link35_@1_116"
     x1="2"
     y1="299.24426"
     x2="8.4899292"
     y2="296.02551" />
  <line
     class="arc1"
     id="link105_@1_111"
     x1="119.39832"
     y1="110.05569"
     x2="120.46826"
     y2="110.49438" />
  <line
     class="arc2"
     id="link73_@2_67"
     x1="105.89807"
     y1="121.11249"
     x2="106.96802"
     y2="121.55121" />
  <line
     class="arc0"
     id="link112_@0_113"
     x1="16.119751"
     y1="503.62769"
     x2="91.880676"
     y2="417.92493" />
  <line
     class="arc2"
     id="link111_@2_110"
     x1="120.46826"
     y1="110.49438"
     x2="114.25311"
     y2="116.24216" />
  <line
     class="arc0"
     id="link111_@0_57"
     x1="120.46826"
     y1="110.49438"
     x2="192.8288"
     y2="114.96817" />
  <line
     class="arc2"
     id="link64_@2_65"
     x1="26.447693"
     y1="257.7095"
     x2="25.726013"
     y2="252.89279" />
  <line
     class="arc3"
     id="link64_@3_37"
     x1="26.447693"
     y1="257.7095"
     x2="26.029419"
     y2="267.93872" />
  <line
     class="arc0"
     id="link64_@0_58"
     x1="26.447693"
     y1="257.7095"
     x2="191.32629"
     y2="267.987" />
  <polygon
     points="626.233,200.31079 541.59436,325.73874 544.99097,331.65237 707.7691,341.3383 715.05426,336.0292 714.84406,205.51523 711.44745,199.60156 633.51807,195.00174 "
     id="face_66_65_59_60_61_56_110_67"
     style="fill:#c0c0c0;stroke:none"
     opacity="1"
     transform="translate(-519.26495,-78.75959)" />
  <line
     class="arc1"
     id="link67_@1_110"
     x1="106.96802"
     y1="121.55121"
     x2="114.25311"
     y2="116.24216" />
  <line
     class="arc0"
     id="link67_@0_66"
     x1="106.96802"
     y1="121.55121"
     x2="22.329407"
     y2="246.97916" />
  <line
     class="arc2"
     id="link37_@2_36"
     x1="26.029419"
     y1="267.93872"
     x2="24.889526"
     y2="273.35104" />
  <line
     class="arc0"
     id="link37_@0_42"
     x1="26.029419"
     y1="267.93872"
     x2="187.85608"
     y2="278.04346" />
  <line
     class="arc1"
     id="link66_@1_65"
     x1="22.329407"
     y1="246.97916"
     x2="25.726013"
     y2="252.89279" />
  <line
     class="arc0"
     id="link110_@0_56"
     x1="114.25311"
     y1="116.24216"
     x2="192.1825"
     y2="120.84198" />
  <line
     class="arc0"
     id="link65_@0_59"
     x1="25.726013"
     y1="252.89279"
     x2="188.50415"
     y2="262.5787" />
  <line
     class="arc2"
     id="link116_@2_118"
     x1="8.4899292"
     y1="296.02551"
     x2="16.119751"
     y2="287.39447" />
  <line
     class="arc0"
     id="link116_@0_117"
     x1="8.4899292"
     y1="296.02551"
     x2="84.250854"
     y2="390.30438" />
  <line
     class="arc1"
     id="link74_@1_103"
     x1="233.90082"
     y1="116.99002"
     x2="234.74103"
     y2="122.66452" />
  <line
     class="arc2"
     id="link74_@2_75"
     x1="233.90082"
     y1="116.99002"
     x2="231.07867"
     y2="111.58173" />
  <polygon
     points="702.1662,375.5938 626.4052,461.29663 611.1456,460.43292 535.3847,366.15405 544.1545,352.11063 700.82874,361.45105 "
     id="face_41_120_121_119_118_36"
     style="fill:#c0c0c0;stroke:none"
     opacity="1"
     transform="translate(-519.26495,-78.75959)" />
  <line
     class="arc1"
     id="link36_@1_118"
     x1="24.889526"
     y1="273.35104"
     x2="16.119751"
     y2="287.39447" />
  <line
     class="arc0"
     id="link36_@0_41"
     x1="24.889526"
     y1="273.35104"
     x2="181.56378"
     y2="282.69147" />
  <line
     class="arc1"
     id="link75_@1_69"
     x1="231.07867"
     y1="111.58173"
     x2="229.09668"
     y2="111.84775" />
  <line
     class="arc2"
     id="link103_@2_109"
     x1="234.74103"
     y1="122.66452"
     x2="232.75909"
     y2="122.93048" />
  <line
     class="arc0"
     id="link103_@0_102"
     x1="234.74103"
     y1="122.66452"
     x2="278.08618"
     y2="249.13638" />
  <line
     class="arc2"
     id="link69_@2_68"
     x1="229.09668"
     y1="111.84775"
     x2="229.93689"
     y2="117.522" />
  <line
     class="arc0"
     id="link69_@0_63"
     x1="229.09668"
     y1="111.84775"
     x2="196.87164"
     y2="115.0079" />
  <line
     class="arc0"
     id="link118_@0_119"
     x1="16.119751"
     y1="287.39447"
     x2="91.880676"
     y2="381.67334" />
  <polygon
     points="752.02405,201.69006 792.39624,328.56097 791.75006,334.43484 727.98364,341.53696 725.1615,336.12857 718.887,205.55496 719.5333,199.68103 749.20184,196.28159 "
     id="face_108_107_53_54_55_62_68_109"
     style="fill:#c0c0c0;stroke:none;fill-opacity:1"
     opacity="1"
     transform="translate(-519.26495,-78.75959)" />
  <line
     class="arc1"
     id="link109_@1_68"
     x1="232.75909"
     y1="122.93048"
     x2="229.93689"
     y2="117.522" />
  <line
     class="arc0"
     id="link109_@0_108"
     x1="232.75909"
     y1="122.93048"
     x2="273.13129"
     y2="249.80139" />
  <line
     class="arc0"
     id="link68_@0_62"
     x1="229.93689"
     y1="117.522"
     x2="200.26837"
     y2="120.92145" />
  <line
     class="arc1"
     id="link101_@1_102"
     x1="282.39484"
     y1="254.34531"
     x2="278.08618"
     y2="249.13638" />
  <line
     class="arc2"
     id="link101_@2_100"
     x1="282.39484"
     y1="254.34531"
     x2="281.74847"
     y2="260.21909" />
  <line
     class="arc2"
     id="link102_@2_108"
     x1="278.08618"
     y1="249.13638"
     x2="273.13129"
     y2="249.80139" />
  <line
     class="arc1"
     id="link100_@1_106"
     x1="281.74847"
     y1="260.21909"
     x2="276.79358"
     y2="260.88409" />
  <line
     class="arc3"
     id="link100_@3_50"
     x1="281.74847"
     y1="260.21909"
     x2="281.10223"
     y2="266.09302" />
  <line
     class="arc1"
     id="link48_@1_51"
     x1="281.10223"
     y1="266.09302"
     x2="281.10223"
     y2="266.09302" />
  <line
     class="arc2"
     id="link48_@2_49"
     x1="281.10223"
     y1="266.09302"
     x2="281.10223"
     y2="266.09302" />
  <line
     class="arc0"
     id="link48_@0_46"
     x1="281.10223"
     y1="266.09302"
     x2="209.40808"
     y2="292.38489" />
  <line
     class="arc1"
     id="link49_@1_50"
     x1="281.10223"
     y1="266.09302"
     x2="281.10223"
     y2="266.09302" />
  <line
     class="arc3"
     id="link49_@3_106"
     x1="281.10223"
     y1="266.09302"
     x2="276.79358"
     y2="260.88409" />
  <line
     class="arc0"
     id="link49_@0_47"
     x1="281.10223"
     y1="266.09302"
     x2="201.77826"
     y2="282.89017" />
  <line
     class="arc2"
     id="link50_@2_51"
     x1="281.10223"
     y1="266.09302"
     x2="281.10223"
     y2="266.09302" />
  <line
     class="arc1"
     id="link108_@1_107"
     x1="273.13129"
     y1="249.80139"
     x2="272.48511"
     y2="255.67526" />
  <line
     class="arc2"
     id="link106_@2_107"
     x1="276.79358"
     y1="260.88409"
     x2="272.48511"
     y2="255.67526" />
  <line
     class="arc0"
     id="link106_@0_52"
     x1="276.79358"
     y1="260.88409"
     x2="201.43353"
     y2="268.08636" />
  <line
     class="arc0"
     id="link107_@0_53"
     x1="272.48511"
     y1="255.67526"
     x2="208.71869"
     y2="262.77737" />
  <line
     class="arc1"
     id="link115_@1_117"
     x1="84.250854"
     y1="408.43018"
     x2="84.250854"
     y2="390.30438" />
  <line
     class="arc2"
     id="link115_@2_113"
     x1="84.250854"
     y1="408.43018"
     x2="91.880676"
     y2="417.92493" />
  <line
     class="arc1"
     id="link57_@1_63"
     x1="192.8288"
     y1="114.96817"
     x2="196.87164"
     y2="115.0079" />
  <line
     class="arc2"
     id="link57_@2_56"
     x1="192.8288"
     y1="114.96817"
     x2="192.1825"
     y2="120.84198" />
  <line
     class="arc2"
     id="link63_@2_62"
     x1="196.87164"
     y1="115.0079"
     x2="200.26837"
     y2="120.92145" />
  <line
     class="arc2"
     id="link117_@2_119"
     x1="84.250854"
     y1="390.30438"
     x2="91.880676"
     y2="381.67334" />
  <line
     class="arc1"
     id="link113_@1_127"
     x1="91.880676"
     y1="417.92493"
     x2="107.14026"
     y2="418.78864" />
  <line
     class="arc1"
     id="link56_@1_61"
     x1="192.1825"
     y1="120.84198"
     x2="195.5791"
     y2="126.75565" />
  <line
     class="arc1"
     id="link62_@1_55"
     x1="200.26837"
     y1="120.92145"
     x2="199.62207"
     y2="126.79538" />
  <line
     class="arc1"
     id="link119_@1_121"
     x1="91.880676"
     y1="381.67334"
     x2="107.14026"
     y2="382.53705" />
  <line
     class="arc2"
     id="link55_@2_61"
     x1="199.62207"
     y1="126.79538"
     x2="195.5791"
     y2="126.75565" />
  <line
     class="arc0"
     id="link55_@0_54"
     x1="199.62207"
     y1="126.79538"
     x2="205.89655"
     y2="257.36899" />
  <line
     class="arc0"
     id="link61_@0_60"
     x1="195.5791"
     y1="126.75565"
     x2="195.78931"
     y2="257.26962" />
  <line
     class="arc2"
     id="link127_@2_125"
     x1="107.14026"
     y1="418.78864"
     x2="114.77008"
     y2="410.15753" />
  <line
     class="arc0"
     id="link127_@0_126"
     x1="107.14026"
     y1="418.78864"
     x2="182.90125"
     y2="513.06744" />
  <line
     class="arc2"
     id="link121_@2_123"
     x1="107.14026"
     y1="382.53705"
     x2="114.77008"
     y2="392.0318" />
  <line
     class="arc0"
     id="link121_@0_120"
     x1="107.14026"
     y1="382.53705"
     x2="182.90125"
     y2="296.83423" />
  <polygon
     points="726.1956,578.64734 723.71814,389.9353 709.796,385.08856 634.03503,470.79138 634.03503,488.9171 709.796,583.196 "
     id="face_124_39_40_122_123_125"
     style="fill:#c0c0c0;stroke:none"
     opacity="1"
     transform="translate(-519.26495,-78.75959)" />
  <line
     class="arc1"
     id="link125_@1_123"
     x1="114.77008"
     y1="410.15753"
     x2="114.77008"
     y2="392.0318" />
  <line
     class="arc0"
     id="link125_@0_124"
     x1="114.77008"
     y1="410.15753"
     x2="190.53107"
     y2="504.4364" />
  <line
     class="arc0"
     id="link123_@0_122"
     x1="114.77008"
     y1="392.0318"
     x2="190.53107"
     y2="306.32898" />
  <line
     class="arc1"
     id="link4_@1_5"
     x1="192.81091"
     y1="529.86328"
     x2="209.21063"
     y2="525.31464" />
  <line
     class="arc2"
     id="link4_@2_38"
     x1="192.81091"
     y1="529.86328"
     x2="184.0412"
     y2="525.78088" />
  <line
     class="arc2"
     id="link5_@2_43"
     x1="209.21063"
     y1="525.31464"
     x2="216.84039"
     y2="516.68359" />
  <line
     class="arc1"
     id="link38_@1_126"
     x1="184.0412"
     y1="525.78088"
     x2="182.90125"
     y2="513.06744" />
  <line
     class="arc1"
     id="link43_@1_44"
     x1="216.84039"
     y1="516.68359"
     x2="215.70044"
     y2="503.97009" />
  <line
     class="arc2"
     id="link44_@2_39"
     x1="215.70044"
     y1="503.97009"
     x2="206.93066"
     y2="499.88776" />
  <line
     class="arc0"
     id="link44_@0_45"
     x1="215.70044"
     y1="503.97009"
     x2="210.74554"
     y2="306.52768" />
  <line
     class="arc2"
     id="link126_@2_124"
     x1="182.90125"
     y1="513.06744"
     x2="190.53107"
     y2="504.4364" />
  <line
     class="arc1"
     id="link39_@1_124"
     x1="206.93066"
     y1="499.88776"
     x2="190.53107"
     y2="504.4364" />
  <line
     class="arc0"
     id="link39_@0_40"
     x1="206.93066"
     y1="499.88776"
     x2="204.45319"
     y2="311.17572" />
  <line
     class="arc1"
     id="link58_@1_52"
     x1="191.32629"
     y1="267.987"
     x2="201.43353"
     y2="268.08636" />
  <line
     class="arc2"
     id="link58_@2_59"
     x1="191.32629"
     y1="267.987"
     x2="188.50415"
     y2="262.5787" />
  <line
     class="arc3"
     id="link58_@3_42"
     x1="191.32629"
     y1="267.987"
     x2="187.85608"
     y2="278.04346" />
  <line
     class="arc1"
     id="link42_@1_47"
     x1="187.85608"
     y1="278.04346"
     x2="201.77826"
     y2="282.89017" />
  <line
     class="arc2"
     id="link42_@2_41"
     x1="187.85608"
     y1="278.04346"
     x2="181.56378"
     y2="282.69147" />
  <line
     class="arc1"
     id="link59_@1_60"
     x1="188.50415"
     y1="262.5787"
     x2="195.78931"
     y2="257.26962" />
  <line
     class="arc1"
     id="link41_@1_120"
     x1="181.56378"
     y1="282.69147"
     x2="182.90125"
     y2="296.83423" />
  <line
     class="arc2"
     id="link52_@2_53"
     x1="201.43353"
     y1="268.08636"
     x2="208.71869"
     y2="262.77737" />
  <line
     class="arc3"
     id="link52_@3_47"
     x1="201.43353"
     y1="268.08636"
     x2="201.77826"
     y2="282.89017" />
  <line
     class="arc2"
     id="link47_@2_46"
     x1="201.77826"
     y1="282.89017"
     x2="209.40808"
     y2="292.38489" />
  <line
     class="arc1"
     id="link53_@1_54"
     x1="208.71869"
     y1="262.77737"
     x2="205.89655"
     y2="257.36899" />
  <line
     class="arc2"
     id="link60_@2_54"
     x1="195.78931"
     y1="257.26962"
     x2="205.89655"
     y2="257.36899" />
  <line
     class="arc2"
     id="link120_@2_122"
     x1="182.90125"
     y1="296.83423"
     x2="190.53107"
     y2="306.32898" />
  <line
     class="arc1"
     id="link46_@1_45"
     x1="209.40808"
     y1="292.38489"
     x2="210.74554"
     y2="306.52768" />
  <line
     class="arc1"
     id="link122_@1_40"
     x1="190.53107"
     y1="306.32898"
     x2="204.45319"
     y2="311.17572" />
  <line
     class="arc2"
     id="link45_@2_40"
     x1="210.74554"
     y1="306.52768"
     x2="204.45319"
     y2="311.17572" />
</svg>
