<?xml version="1.0" encoding="UTF-8" standalone="no"?>
<!-- Created with Jerboa -->

<svg
	width="1412"
	height="651" >
	<style id="style">
		.arc0 {
			fill:none;
			fill-rule:evenodd;
			stroke:black;
			stroke-width:4;
			stroke-linecap:round;
			stroke-linejoin:round;
			stroke-opacity:1;
		}
		.arc1 {
			fill:none;
			fill-rule:evenodd;
			stroke:red;
			stroke-width:4;
			stroke-linecap:round;
			stroke-linejoin:round;
			stroke-opacity:1;
		}
		.arc2 {
			fill:none;
			fill-rule:evenodd;
			stroke:blue;
			stroke-width:4;
			stroke-linecap:round;
			stroke-linejoin:round;
			stroke-opacity:1;
		}
		.arc3 {
			fill:none;
			fill-rule:evenodd;
			stroke:green;
			stroke-width:4;
			stroke-linecap:round;
			stroke-linejoin:round;
			stroke-opacity:1;
		}
		.topological-dart {
			fill:#000000;
			stroke:#000000;
			stroke-width:0;
			stroke-linecap:round;
			stroke-linejoin:round;
			stroke-dasharray:none;
			paint-order:markers fill stroke;
		}
	</style>
<polygon
	points="661.9783,558.6822 661.9783,351.51187 669.6081,342.8808 846.4969,352.41992 854.1267,361.9147 851.64935,569.4175 844.0194,578.0485 669.6081,568.17694 "
	id="face_20_21_16_15_14_13_18_19"
	style="fill:rgb(192,192,192);stroke:none"
	opacity="1.0" />
<line
	class="arc1"
	id="link19_@1_18"
	x1="661.9783"
	y1="558.6822"
	x2="669.6081"
	y2="568.17694" />
<line
	class="arc2"
	id="link19_@2_24"
	x1="661.9783"
	y1="558.6822"
	x2="649.3936"
	y2="558.91534" />
<line
	class="arc0"
	id="link19_@0_20"
	x1="661.9783"
	y1="558.6822"
	x2="661.9783"
	y2="351.51187" />
<polygon
	points="649.3936,558.91534 649.3936,351.74503 644.4387,343.34708 531.1747,358.54803 522.4049,372.59146 522.4049,570.69885 531.1747,583.8442 644.4387,568.6432 "
	id="face_25_26_31_30_29_28_23_24"
	style="fill:rgb(192,192,192);stroke:none"
	opacity="1.0" />
<line
	class="arc1"
	id="link24_@1_23"
	x1="649.3936"
	y1="558.91534"
	x2="644.4387"
	y2="568.6432" />
<line
	class="arc0"
	id="link24_@0_25"
	x1="649.3936"
	y1="558.91534"
	x2="649.3936"
	y2="351.74503" />
<line
	class="arc2"
	id="link18_@2_0"
	x1="669.6081"
	y1="568.17694"
	x2="664.65326"
	y2="577.90485" />
<line
	class="arc0"
	id="link18_@0_13"
	x1="669.6081"
	y1="568.17694"
	x2="844.0194"
	y2="578.0485" />
<line
	class="arc2"
	id="link23_@2_1"
	x1="644.4387"
	y1="568.6432"
	x2="652.06854"
	y2="578.13794" />
<line
	class="arc0"
	id="link23_@0_28"
	x1="644.4387"
	y1="568.6432"
	x2="531.1747"
	y2="583.8442" />
<polygon
	points="664.65326,577.90485 839.06464,587.7764 841.73956,588.8733 728.4756,604.0742 712.07587,608.62286 545.2944,599.1831 538.8045,593.3389 652.06854,578.13794 "
	id="face_7_6_5_4_3_2_1_0"
	style="fill:rgb(192,192,192);stroke:none"
	opacity="1.0" />
<line
	class="arc1"
	id="link0_@1_1"
	x1="664.65326"
	y1="577.90485"
	x2="652.06854"
	y2="578.13794" />
<line
	class="arc0"
	id="link0_@0_7"
	x1="664.65326"
	y1="577.90485"
	x2="839.06464"
	y2="587.7764" />
<line
	class="arc0"
	id="link1_@0_2"
	x1="652.06854"
	y1="578.13794"
	x2="538.8045"
	y2="593.3389" />
<line
	class="arc1"
	id="link20_@1_21"
	x1="661.9783"
	y1="351.51187"
	x2="669.6081"
	y2="342.8808" />
<line
	class="arc2"
	id="link20_@2_25"
	x1="661.9783"
	y1="351.51187"
	x2="649.3936"
	y2="351.74503" />
<line
	class="arc1"
	id="link25_@1_26"
	x1="649.3936"
	y1="351.74503"
	x2="644.4387"
	y2="343.34708" />
<line
	class="arc2"
	id="link21_@2_22"
	x1="669.6081"
	y1="342.8808"
	x2="664.65326"
	y2="334.48288" />
<line
	class="arc0"
	id="link21_@0_16"
	x1="669.6081"
	y1="342.8808"
	x2="846.4969"
	y2="352.41992" />
<line
	class="arc2"
	id="link26_@2_27"
	x1="644.4387"
	y1="343.34708"
	x2="652.06854"
	y2="334.716" />
<line
	class="arc0"
	id="link26_@0_31"
	x1="644.4387"
	y1="343.34708"
	x2="531.1747"
	y2="358.54803" />
<polygon
	points="664.65326,334.48288 844.0194,343.6895 849.1719,344.45386 800.3672,344.8526 800.3672,344.8526 721.0432,361.64975 707.12103,356.80304 545.2944,346.6983 538.8045,349.91696 652.06854,334.716 "
	id="face_17_12_50_49_47_42_37_32_27_22"
	style="fill:rgb(192,192,192);stroke:none"
	opacity="1.0" />
<line
	class="arc1"
	id="link22_@1_27"
	x1="664.65326"
	y1="334.48288"
	x2="652.06854"
	y2="334.716" />
<line
	class="arc3"
	id="link22_@3_82"
	x1="664.65326"
	y1="334.48288"
	x2="665.9136"
	y2="320.33716" />
<line
	class="arc0"
	id="link22_@0_17"
	x1="664.65326"
	y1="334.48288"
	x2="844.0194"
	y2="343.6895" />
<polygon
	points="672.12866,314.58948 839.86163,323.61038 844.1738,318.70032 778.97815,196.90796 772.60864,191.39325 692.6973,187.05939 688.38513,191.96945 665.7591,309.07486 "
	id="face_89_90_91_86_92_85_84_83"
	style="fill:rgb(192,192,192);stroke:none"
	opacity="1.0" />
<line
	class="arc1"
	id="link83_@1_84"
	x1="672.12866"
	y1="314.58948"
	x2="665.7591"
	y2="309.07486" />
<line
	class="arc2"
	id="link83_@2_82"
	x1="672.12866"
	y1="314.58948"
	x2="665.9136"
	y2="320.33716" />
<line
	class="arc0"
	id="link83_@0_89"
	x1="672.12866"
	y1="314.58948"
	x2="839.86163"
	y2="323.61038" />
<line
	class="arc2"
	id="link84_@2_78"
	x1="665.7591"
	y1="309.07486"
	x2="653.17444"
	y2="309.30798" />
<line
	class="arc0"
	id="link84_@0_85"
	x1="665.7591"
	y1="309.07486"
	x2="688.38513"
	y2="191.96945" />
<line
	class="arc3"
	id="link27_@3_76"
	x1="652.06854"
	y1="334.716"
	x2="653.32886"
	y2="320.57028" />
<line
	class="arc0"
	id="link27_@0_32"
	x1="652.06854"
	y1="334.716"
	x2="538.8045"
	y2="349.91696" />
<polygon
	points="653.17444,309.30798 683.35126,192.06274 682.6296,187.24585 631.3782,194.12424 625.163,199.87207 538.9194,324.6419 539.64105,329.45874 646.9593,315.05576 "
	id="face_79_98_104_73_72_71_77_78"
	style="fill:rgb(192,192,192);stroke:none"
	opacity="1.0" />
<line
	class="arc1"
	id="link78_@1_77"
	x1="653.17444"
	y1="309.30798"
	x2="646.9593"
	y2="315.05576" />
<line
	class="arc0"
	id="link78_@0_79"
	x1="653.17444"
	y1="309.30798"
	x2="683.35126"
	y2="192.06274" />
<polygon
	points="665.9136,320.33716 840.7019,329.2847 845.8542,330.049 801.0134,338.97867 796.05853,339.64368 720.6985,346.84595 710.59125,346.74658 545.71265,336.4691 543.0377,335.37225 653.32886,320.57028 "
	id="face_88_94_100_106_52_58_64_70_76_82"
	style="fill:rgb(192,192,192);stroke:none"
	opacity="1.0" />
<line
	class="arc1"
	id="link82_@1_76"
	x1="665.9136"
	y1="320.33716"
	x2="653.32886"
	y2="320.57028" />
<line
	class="arc0"
	id="link82_@0_88"
	x1="665.9136"
	y1="320.33716"
	x2="840.7019"
	y2="329.2847" />
<line
	class="arc2"
	id="link77_@2_76"
	x1="646.9593"
	y1="315.05576"
	x2="653.32886"
	y2="320.57028" />
<line
	class="arc0"
	id="link77_@0_71"
	x1="646.9593"
	y1="315.05576"
	x2="539.64105"
	y2="329.45874" />
<line
	class="arc0"
	id="link76_@0_70"
	x1="653.32886"
	y1="320.57028"
	x2="543.0377"
	y2="335.37225" />
<line
	class="arc1"
	id="link13_@1_14"
	x1="844.0194"
	y1="578.0485"
	x2="851.64935"
	y2="569.4175" />
<line
	class="arc2"
	id="link13_@2_7"
	x1="844.0194"
	y1="578.0485"
	x2="839.06464"
	y2="587.7764" />
<line
	class="arc2"
	id="link14_@2_9"
	x1="851.64935"
	y1="569.4175"
	x2="854.3242"
	y2="570.51434" />
<line
	class="arc0"
	id="link14_@0_15"
	x1="851.64935"
	y1="569.4175"
	x2="854.1267"
	y2="361.9147" />
<line
	class="arc1"
	id="link7_@1_6"
	x1="839.06464"
	y1="587.7764"
	x2="841.73956"
	y2="588.8733" />
<line
	class="arc1"
	id="link85_@1_92"
	x1="688.38513"
	y1="191.96945"
	x2="692.6973"
	y2="187.05939" />
<line
	class="arc2"
	id="link85_@2_79"
	x1="688.38513"
	y1="191.96945"
	x2="683.35126"
	y2="192.06274" />
<line
	class="arc1"
	id="link79_@1_98"
	x1="683.35126"
	y1="192.06274"
	x2="682.6296"
	y2="187.24585" />
<line
	class="arc1"
	id="link16_@1_15"
	x1="846.4969"
	y1="352.41992"
	x2="854.1267"
	y2="361.9147" />
<line
	class="arc2"
	id="link16_@2_17"
	x1="846.4969"
	y1="352.41992"
	x2="844.0194"
	y2="343.6895" />
<line
	class="arc2"
	id="link92_@2_93"
	x1="692.6973"
	y1="187.05939"
	x2="691.97565"
	y2="182.24265" />
<line
	class="arc0"
	id="link92_@0_86"
	x1="692.6973"
	y1="187.05939"
	x2="772.60864"
	y2="191.39325" />
<polygon
	points="854.3242,570.51434 859.2791,362.67902 856.8017,353.94858 800.3672,344.8526 800.3672,344.8526 728.67303,371.14447 730.0105,385.28726 734.9654,582.7297 736.10535,595.4432 849.3694,580.2422 "
	id="face_10_11_51_48_46_45_44_43_8_9"
	style="fill:rgb(192,192,192);stroke:none"
	opacity="1.0" />
<line
	class="arc1"
	id="link9_@1_8"
	x1="854.3242"
	y1="570.51434"
	x2="849.3694"
	y2="580.2422" />
<line
	class="arc0"
	id="link9_@0_10"
	x1="854.3242"
	y1="570.51434"
	x2="859.2791"
	y2="362.67902" />
<line
	class="arc2"
	id="link6_@2_8"
	x1="841.73956"
	y1="588.8733"
	x2="849.3694"
	y2="580.2422" />
<line
	class="arc0"
	id="link6_@0_5"
	x1="841.73956"
	y1="588.8733"
	x2="728.4756"
	y2="604.0742" />
<line
	class="arc2"
	id="link98_@2_99"
	x1="682.6296"
	y1="187.24585"
	x2="686.9418"
	y2="182.33594" />
<line
	class="arc0"
	id="link98_@0_104"
	x1="682.6296"
	y1="187.24585"
	x2="631.3782"
	y2="194.12424" />
<line
	class="arc2"
	id="link15_@2_10"
	x1="854.1267"
	y1="361.9147"
	x2="859.2791"
	y2="362.67902" />
<line
	class="arc1"
	id="link17_@1_12"
	x1="844.0194"
	y1="343.6895"
	x2="849.1719"
	y2="344.45386" />
<line
	class="arc3"
	id="link17_@3_88"
	x1="844.0194"
	y1="343.6895"
	x2="840.7019"
	y2="329.2847" />
<line
	class="arc1"
	id="link89_@1_90"
	x1="839.86163"
	y1="323.61038"
	x2="844.1738"
	y2="318.70032" />
<line
	class="arc2"
	id="link89_@2_88"
	x1="839.86163"
	y1="323.61038"
	x2="840.7019"
	y2="329.2847" />
<line
	class="arc1"
	id="link88_@1_94"
	x1="840.7019"
	y1="329.2847"
	x2="845.8542"
	y2="330.049" />
<polygon
	points="691.97565,182.24265 768.30005,186.18445 770.361,186.49014 750.3436,190.34131 748.36163,190.60733 716.1366,193.76749 712.09375,193.72775 639.7332,189.25397 638.66327,188.81528 686.9418,182.33594 "
	id="face_87_81_75_69_63_57_111_105_99_93"
	style="fill:rgb(192,192,192);stroke:none"
	opacity="1.0" />
<line
	class="arc1"
	id="link93_@1_99"
	x1="691.97565"
	y1="182.24265"
	x2="686.9418"
	y2="182.33594" />
<line
	class="arc0"
	id="link93_@0_87"
	x1="691.97565"
	y1="182.24265"
	x2="768.30005"
	y2="186.18445" />
<line
	class="arc0"
	id="link8_@0_43"
	x1="849.3694"
	y1="580.2422"
	x2="736.10535"
	y2="595.4432" />
<line
	class="arc0"
	id="link99_@0_105"
	x1="686.9418"
	y1="182.33594"
	x2="638.66327"
	y2="188.81528" />
<line
	class="arc2"
	id="link90_@2_96"
	x1="844.1738"
	y1="318.70032"
	x2="849.3263"
	y2="319.46463" />
<line
	class="arc0"
	id="link90_@0_91"
	x1="844.1738"
	y1="318.70032"
	x2="778.97815"
	y2="196.90796" />
<line
	class="arc1"
	id="link10_@1_11"
	x1="859.2791"
	y1="362.67902"
	x2="856.8017"
	y2="353.94858" />
<line
	class="arc2"
	id="link12_@2_11"
	x1="849.1719"
	y1="344.45386"
	x2="856.8017"
	y2="353.94858" />
<line
	class="arc3"
	id="link12_@3_94"
	x1="849.1719"
	y1="344.45386"
	x2="845.8542"
	y2="330.049" />
<line
	class="arc0"
	id="link12_@0_50"
	x1="849.1719"
	y1="344.45386"
	x2="800.3672"
	y2="344.8526" />
<line
	class="arc2"
	id="link94_@2_95"
	x1="845.8542"
	y1="330.049"
	x2="850.1665"
	y2="325.13907" />
<line
	class="arc0"
	id="link94_@0_100"
	x1="845.8542"
	y1="330.049"
	x2="801.0134"
	y2="338.97867" />
<line
	class="arc0"
	id="link11_@0_51"
	x1="856.8017"
	y1="353.94858"
	x2="800.3672"
	y2="344.8526" />
<polygon
	points="849.3263,319.46463 781.0391,197.21362 776.7305,192.0047 753.1658,195.7496 754.006,201.4241 797.35114,327.89597 801.6598,333.1049 850.1665,325.13907 "
	id="face_97_80_74_103_102_101_95_96"
	style="fill:rgb(0,255,0);stroke:none"
	opacity="1.0" />
<line
	class="arc1"
	id="link96_@1_95"
	x1="849.3263"
	y1="319.46463"
	x2="850.1665"
	y2="325.13907" />
<line
	class="arc0"
	id="link96_@0_97"
	x1="849.3263"
	y1="319.46463"
	x2="781.0391"
	y2="197.21362" />
<line
	class="arc0"
	id="link95_@0_101"
	x1="850.1665"
	y1="325.13907"
	x2="801.6598"
	y2="333.1049" />
<line
	class="arc1"
	id="link28_@1_29"
	x1="531.1747"
	y1="583.8442"
	x2="522.4049"
	y2="570.69885" />
<line
	class="arc2"
	id="link28_@2_2"
	x1="531.1747"
	y1="583.8442"
	x2="538.8045"
	y2="593.3389" />
<line
	class="arc1"
	id="link86_@1_91"
	x1="772.60864"
	y1="191.39325"
	x2="778.97815"
	y2="196.90796" />
<line
	class="arc2"
	id="link86_@2_87"
	x1="772.60864"
	y1="191.39325"
	x2="768.30005"
	y2="186.18445" />
<line
	class="arc2"
	id="link91_@2_97"
	x1="778.97815"
	y1="196.90796"
	x2="781.0391"
	y2="197.21362" />
<line
	class="arc1"
	id="link87_@1_81"
	x1="768.30005"
	y1="186.18445"
	x2="770.361"
	y2="186.49014" />
<line
	class="arc1"
	id="link2_@1_3"
	x1="538.8045"
	y1="593.3389"
	x2="545.2944"
	y2="599.1831" />
<line
	class="arc1"
	id="link97_@1_80"
	x1="781.0391"
	y1="197.21362"
	x2="776.7305"
	y2="192.0047" />
<line
	class="arc2"
	id="link29_@2_34"
	x1="522.4049"
	y1="570.69885"
	x2="521.26495"
	y2="567.04834" />
<line
	class="arc0"
	id="link29_@0_30"
	x1="522.4049"
	y1="570.69885"
	x2="522.4049"
	y2="372.59146" />
<line
	class="arc2"
	id="link80_@2_81"
	x1="776.7305"
	y1="192.0047"
	x2="770.361"
	y2="186.49014" />
<line
	class="arc0"
	id="link80_@0_74"
	x1="776.7305"
	y1="192.0047"
	x2="753.1658"
	y2="195.7496" />
<line
	class="arc0"
	id="link81_@0_75"
	x1="770.361"
	y1="186.49014"
	x2="750.3436"
	y2="190.34131" />
<polygon
	points="521.26495,567.04834 521.26495,378.00385 527.7549,374.7851 603.5158,469.06396 603.5158,487.18976 527.7549,572.8925 "
	id="face_35_116_117_115_114_34"
	style="fill:rgb(0,0,255);stroke:none"
	opacity="1.0" />
<line
	class="arc1"
	id="link34_@1_114"
	x1="521.26495"
	y1="567.04834"
	x2="527.7549"
	y2="572.8925" />
<line
	class="arc0"
	id="link34_@0_35"
	x1="521.26495"
	y1="567.04834"
	x2="521.26495"
	y2="378.00385" />
<line
	class="arc2"
	id="link3_@2_33"
	x1="545.2944"
	y1="599.1831"
	x2="544.1545"
	y2="595.5326" />
<line
	class="arc0"
	id="link3_@0_4"
	x1="545.2944"
	y1="599.1831"
	x2="712.07587"
	y2="608.62286" />
<line
	class="arc1"
	id="link31_@1_30"
	x1="531.1747"
	y1="358.54803"
	x2="522.4049"
	y2="372.59146" />
<line
	class="arc2"
	id="link31_@2_32"
	x1="531.1747"
	y1="358.54803"
	x2="538.8045"
	y2="349.91696" />
<line
	class="arc1"
	id="link71_@1_72"
	x1="539.64105"
	y1="329.45874"
	x2="538.9194"
	y2="324.6419" />
<line
	class="arc2"
	id="link71_@2_70"
	x1="539.64105"
	y1="329.45874"
	x2="543.0377"
	y2="335.37225" />
<line
	class="arc2"
	id="link30_@2_35"
	x1="522.4049"
	y1="372.59146"
	x2="521.26495"
	y2="378.00385" />
<line
	class="arc1"
	id="link32_@1_37"
	x1="538.8045"
	y1="349.91696"
	x2="545.2944"
	y2="346.6983" />
<line
	class="arc3"
	id="link32_@3_70"
	x1="538.8045"
	y1="349.91696"
	x2="543.0377"
	y2="335.37225" />
<line
	class="arc1"
	id="link70_@1_64"
	x1="543.0377"
	y1="335.37225"
	x2="545.71265"
	y2="336.4691" />
<line
	class="arc2"
	id="link72_@2_66"
	x1="538.9194"
	y1="324.6419"
	x2="541.59436"
	y2="325.73874" />
<line
	class="arc0"
	id="link72_@0_73"
	x1="538.9194"
	y1="324.6419"
	x2="625.163"
	y2="199.87207" />
<polygon
	points="544.1545,595.5326 703.30615,604.54047 702.1662,591.827 626.4052,497.54822 611.1456,496.6845 535.3847,582.38727 "
	id="face_38_126_127_113_112_33"
	style="fill:rgb(192,192,192);stroke:none"
	opacity="1.0" />
<line
	class="arc1"
	id="link33_@1_112"
	x1="544.1545"
	y1="595.5326"
	x2="535.3847"
	y2="582.38727" />
<line
	class="arc0"
	id="link33_@0_38"
	x1="544.1545"
	y1="595.5326"
	x2="703.30615"
	y2="604.54047" />
<line
	class="arc1"
	id="link104_@1_73"
	x1="631.3782"
	y1="194.12424"
	x2="625.163"
	y2="199.87207" />
<line
	class="arc2"
	id="link104_@2_105"
	x1="631.3782"
	y1="194.12424"
	x2="638.66327"
	y2="188.81528" />
<line
	class="arc2"
	id="link114_@2_112"
	x1="527.7549"
	y1="572.8925"
	x2="535.3847"
	y2="582.38727" />
<line
	class="arc0"
	id="link114_@0_115"
	x1="527.7549"
	y1="572.8925"
	x2="603.5158"
	y2="487.18976" />
<line
	class="arc1"
	id="link35_@1_116"
	x1="521.26495"
	y1="378.00385"
	x2="527.7549"
	y2="374.7851" />
<line
	class="arc1"
	id="link105_@1_111"
	x1="638.66327"
	y1="188.81528"
	x2="639.7332"
	y2="189.25397" />
<line
	class="arc2"
	id="link73_@2_67"
	x1="625.163"
	y1="199.87207"
	x2="626.233"
	y2="200.31079" />
<line
	class="arc0"
	id="link112_@0_113"
	x1="535.3847"
	y1="582.38727"
	x2="611.1456"
	y2="496.6845" />
<line
	class="arc2"
	id="link111_@2_110"
	x1="639.7332"
	y1="189.25397"
	x2="633.51807"
	y2="195.00174" />
<line
	class="arc0"
	id="link111_@0_57"
	x1="639.7332"
	y1="189.25397"
	x2="712.09375"
	y2="193.72775" />
<line
	class="arc2"
	id="link64_@2_65"
	x1="545.71265"
	y1="336.4691"
	x2="544.99097"
	y2="331.65237" />
<line
	class="arc3"
	id="link64_@3_37"
	x1="545.71265"
	y1="336.4691"
	x2="545.2944"
	y2="346.6983" />
<line
	class="arc0"
	id="link64_@0_58"
	x1="545.71265"
	y1="336.4691"
	x2="710.59125"
	y2="346.74658" />
<polygon
	points="626.233,200.31079 541.59436,325.73874 544.99097,331.65237 707.7691,341.3383 715.05426,336.0292 714.84406,205.51523 711.44745,199.60156 633.51807,195.00174 "
	id="face_66_65_59_60_61_56_110_67"
	style="fill:rgb(192,192,192);stroke:none"
	opacity="1.0" />
<line
	class="arc1"
	id="link67_@1_110"
	x1="626.233"
	y1="200.31079"
	x2="633.51807"
	y2="195.00174" />
<line
	class="arc0"
	id="link67_@0_66"
	x1="626.233"
	y1="200.31079"
	x2="541.59436"
	y2="325.73874" />
<line
	class="arc2"
	id="link37_@2_36"
	x1="545.2944"
	y1="346.6983"
	x2="544.1545"
	y2="352.11063" />
<line
	class="arc0"
	id="link37_@0_42"
	x1="545.2944"
	y1="346.6983"
	x2="707.12103"
	y2="356.80304" />
<line
	class="arc1"
	id="link66_@1_65"
	x1="541.59436"
	y1="325.73874"
	x2="544.99097"
	y2="331.65237" />
<line
	class="arc0"
	id="link110_@0_56"
	x1="633.51807"
	y1="195.00174"
	x2="711.44745"
	y2="199.60156" />
<line
	class="arc0"
	id="link65_@0_59"
	x1="544.99097"
	y1="331.65237"
	x2="707.7691"
	y2="341.3383" />
<line
	class="arc2"
	id="link116_@2_118"
	x1="527.7549"
	y1="374.7851"
	x2="535.3847"
	y2="366.15405" />
<line
	class="arc0"
	id="link116_@0_117"
	x1="527.7549"
	y1="374.7851"
	x2="603.5158"
	y2="469.06396" />
<line
	class="arc1"
	id="link74_@1_103"
	x1="753.1658"
	y1="195.7496"
	x2="754.006"
	y2="201.4241" />
<line
	class="arc2"
	id="link74_@2_75"
	x1="753.1658"
	y1="195.7496"
	x2="750.3436"
	y2="190.34131" />
<polygon
	points="544.1545,352.11063 700.82874,361.45105 702.1662,375.5938 626.4052,461.29663 611.1456,460.43292 535.3847,366.15405 "
	id="face_41_120_121_119_118_36"
	style="fill:rgb(192,192,192);stroke:none"
	opacity="1.0" />
<line
	class="arc1"
	id="link36_@1_118"
	x1="544.1545"
	y1="352.11063"
	x2="535.3847"
	y2="366.15405" />
<line
	class="arc0"
	id="link36_@0_41"
	x1="544.1545"
	y1="352.11063"
	x2="700.82874"
	y2="361.45105" />
<line
	class="arc1"
	id="link75_@1_69"
	x1="750.3436"
	y1="190.34131"
	x2="748.36163"
	y2="190.60733" />
<line
	class="arc2"
	id="link103_@2_109"
	x1="754.006"
	y1="201.4241"
	x2="752.02405"
	y2="201.69006" />
<line
	class="arc0"
	id="link103_@0_102"
	x1="754.006"
	y1="201.4241"
	x2="797.35114"
	y2="327.89597" />
<line
	class="arc2"
	id="link69_@2_68"
	x1="748.36163"
	y1="190.60733"
	x2="749.20184"
	y2="196.28159" />
<line
	class="arc0"
	id="link69_@0_63"
	x1="748.36163"
	y1="190.60733"
	x2="716.1366"
	y2="193.76749" />
<line
	class="arc0"
	id="link118_@0_119"
	x1="535.3847"
	y1="366.15405"
	x2="611.1456"
	y2="460.43292" />
<polygon
	points="752.02405,201.69006 792.39624,328.56097 791.75006,334.43484 727.98364,341.53696 725.1615,336.12857 718.887,205.55496 719.5333,199.68103 749.20184,196.28159 "
	id="face_108_107_53_54_55_62_68_109"
	style="fill:rgb(255,0,0);stroke:none"
	opacity="1.0" />
<line
	class="arc1"
	id="link109_@1_68"
	x1="752.02405"
	y1="201.69006"
	x2="749.20184"
	y2="196.28159" />
<line
	class="arc0"
	id="link109_@0_108"
	x1="752.02405"
	y1="201.69006"
	x2="792.39624"
	y2="328.56097" />
<line
	class="arc0"
	id="link68_@0_62"
	x1="749.20184"
	y1="196.28159"
	x2="719.5333"
	y2="199.68103" />
<line
	class="arc1"
	id="link101_@1_102"
	x1="801.6598"
	y1="333.1049"
	x2="797.35114"
	y2="327.89597" />
<line
	class="arc2"
	id="link101_@2_100"
	x1="801.6598"
	y1="333.1049"
	x2="801.0134"
	y2="338.97867" />
<line
	class="arc2"
	id="link102_@2_108"
	x1="797.35114"
	y1="327.89597"
	x2="792.39624"
	y2="328.56097" />
<line
	class="arc1"
	id="link100_@1_106"
	x1="801.0134"
	y1="338.97867"
	x2="796.05853"
	y2="339.64368" />
<line
	class="arc3"
	id="link100_@3_50"
	x1="801.0134"
	y1="338.97867"
	x2="800.3672"
	y2="344.8526" />
<line
	class="arc1"
	id="link48_@1_51"
	x1="800.3672"
	y1="344.8526"
	x2="800.3672"
	y2="344.8526" />
<line
	class="arc2"
	id="link48_@2_49"
	x1="800.3672"
	y1="344.8526"
	x2="800.3672"
	y2="344.8526" />
<line
	class="arc0"
	id="link48_@0_46"
	x1="800.3672"
	y1="344.8526"
	x2="728.67303"
	y2="371.14447" />
<line
	class="arc1"
	id="link49_@1_50"
	x1="800.3672"
	y1="344.8526"
	x2="800.3672"
	y2="344.8526" />
<line
	class="arc3"
	id="link49_@3_106"
	x1="800.3672"
	y1="344.8526"
	x2="796.05853"
	y2="339.64368" />
<line
	class="arc0"
	id="link49_@0_47"
	x1="800.3672"
	y1="344.8526"
	x2="721.0432"
	y2="361.64975" />
<line
	class="arc2"
	id="link50_@2_51"
	x1="800.3672"
	y1="344.8526"
	x2="800.3672"
	y2="344.8526" />
<line
	class="arc1"
	id="link108_@1_107"
	x1="792.39624"
	y1="328.56097"
	x2="791.75006"
	y2="334.43484" />
<line
	class="arc2"
	id="link106_@2_107"
	x1="796.05853"
	y1="339.64368"
	x2="791.75006"
	y2="334.43484" />
<line
	class="arc0"
	id="link106_@0_52"
	x1="796.05853"
	y1="339.64368"
	x2="720.6985"
	y2="346.84595" />
<line
	class="arc0"
	id="link107_@0_53"
	x1="791.75006"
	y1="334.43484"
	x2="727.98364"
	y2="341.53696" />
<line
	class="arc1"
	id="link115_@1_117"
	x1="603.5158"
	y1="487.18976"
	x2="603.5158"
	y2="469.06396" />
<line
	class="arc2"
	id="link115_@2_113"
	x1="603.5158"
	y1="487.18976"
	x2="611.1456"
	y2="496.6845" />
<line
	class="arc1"
	id="link57_@1_63"
	x1="712.09375"
	y1="193.72775"
	x2="716.1366"
	y2="193.76749" />
<line
	class="arc2"
	id="link57_@2_56"
	x1="712.09375"
	y1="193.72775"
	x2="711.44745"
	y2="199.60156" />
<line
	class="arc2"
	id="link63_@2_62"
	x1="716.1366"
	y1="193.76749"
	x2="719.5333"
	y2="199.68103" />
<line
	class="arc2"
	id="link117_@2_119"
	x1="603.5158"
	y1="469.06396"
	x2="611.1456"
	y2="460.43292" />
<line
	class="arc1"
	id="link113_@1_127"
	x1="611.1456"
	y1="496.6845"
	x2="626.4052"
	y2="497.54822" />
<line
	class="arc1"
	id="link56_@1_61"
	x1="711.44745"
	y1="199.60156"
	x2="714.84406"
	y2="205.51523" />
<line
	class="arc1"
	id="link62_@1_55"
	x1="719.5333"
	y1="199.68103"
	x2="718.887"
	y2="205.55496" />
<line
	class="arc1"
	id="link119_@1_121"
	x1="611.1456"
	y1="460.43292"
	x2="626.4052"
	y2="461.29663" />
<line
	class="arc2"
	id="link55_@2_61"
	x1="718.887"
	y1="205.55496"
	x2="714.84406"
	y2="205.51523" />
<line
	class="arc0"
	id="link55_@0_54"
	x1="718.887"
	y1="205.55496"
	x2="725.1615"
	y2="336.12857" />
<line
	class="arc0"
	id="link61_@0_60"
	x1="714.84406"
	y1="205.51523"
	x2="715.05426"
	y2="336.0292" />
<line
	class="arc2"
	id="link127_@2_125"
	x1="626.4052"
	y1="497.54822"
	x2="634.03503"
	y2="488.9171" />
<line
	class="arc0"
	id="link127_@0_126"
	x1="626.4052"
	y1="497.54822"
	x2="702.1662"
	y2="591.827" />
<line
	class="arc2"
	id="link121_@2_123"
	x1="626.4052"
	y1="461.29663"
	x2="634.03503"
	y2="470.79138" />
<line
	class="arc0"
	id="link121_@0_120"
	x1="626.4052"
	y1="461.29663"
	x2="702.1662"
	y2="375.5938" />
<polygon
	points="634.03503,488.9171 709.796,583.196 726.1956,578.64734 723.71814,389.9353 709.796,385.08856 634.03503,470.79138 "
	id="face_124_39_40_122_123_125"
	style="fill:rgb(192,192,192);stroke:none"
	opacity="1.0" />
<line
	class="arc1"
	id="link125_@1_123"
	x1="634.03503"
	y1="488.9171"
	x2="634.03503"
	y2="470.79138" />
<line
	class="arc0"
	id="link125_@0_124"
	x1="634.03503"
	y1="488.9171"
	x2="709.796"
	y2="583.196" />
<line
	class="arc0"
	id="link123_@0_122"
	x1="634.03503"
	y1="470.79138"
	x2="709.796"
	y2="385.08856" />
<line
	class="arc1"
	id="link4_@1_5"
	x1="712.07587"
	y1="608.62286"
	x2="728.4756"
	y2="604.0742" />
<line
	class="arc2"
	id="link4_@2_38"
	x1="712.07587"
	y1="608.62286"
	x2="703.30615"
	y2="604.54047" />
<line
	class="arc2"
	id="link5_@2_43"
	x1="728.4756"
	y1="604.0742"
	x2="736.10535"
	y2="595.4432" />
<line
	class="arc1"
	id="link38_@1_126"
	x1="703.30615"
	y1="604.54047"
	x2="702.1662"
	y2="591.827" />
<line
	class="arc1"
	id="link43_@1_44"
	x1="736.10535"
	y1="595.4432"
	x2="734.9654"
	y2="582.7297" />
<line
	class="arc2"
	id="link44_@2_39"
	x1="734.9654"
	y1="582.7297"
	x2="726.1956"
	y2="578.64734" />
<line
	class="arc0"
	id="link44_@0_45"
	x1="734.9654"
	y1="582.7297"
	x2="730.0105"
	y2="385.28726" />
<line
	class="arc2"
	id="link126_@2_124"
	x1="702.1662"
	y1="591.827"
	x2="709.796"
	y2="583.196" />
<line
	class="arc1"
	id="link39_@1_124"
	x1="726.1956"
	y1="578.64734"
	x2="709.796"
	y2="583.196" />
<line
	class="arc0"
	id="link39_@0_40"
	x1="726.1956"
	y1="578.64734"
	x2="723.71814"
	y2="389.9353" />
<line
	class="arc1"
	id="link58_@1_52"
	x1="710.59125"
	y1="346.74658"
	x2="720.6985"
	y2="346.84595" />
<line
	class="arc2"
	id="link58_@2_59"
	x1="710.59125"
	y1="346.74658"
	x2="707.7691"
	y2="341.3383" />
<line
	class="arc3"
	id="link58_@3_42"
	x1="710.59125"
	y1="346.74658"
	x2="707.12103"
	y2="356.80304" />
<line
	class="arc1"
	id="link42_@1_47"
	x1="707.12103"
	y1="356.80304"
	x2="721.0432"
	y2="361.64975" />
<line
	class="arc2"
	id="link42_@2_41"
	x1="707.12103"
	y1="356.80304"
	x2="700.82874"
	y2="361.45105" />
<line
	class="arc1"
	id="link59_@1_60"
	x1="707.7691"
	y1="341.3383"
	x2="715.05426"
	y2="336.0292" />
<line
	class="arc1"
	id="link41_@1_120"
	x1="700.82874"
	y1="361.45105"
	x2="702.1662"
	y2="375.5938" />
<line
	class="arc2"
	id="link52_@2_53"
	x1="720.6985"
	y1="346.84595"
	x2="727.98364"
	y2="341.53696" />
<line
	class="arc3"
	id="link52_@3_47"
	x1="720.6985"
	y1="346.84595"
	x2="721.0432"
	y2="361.64975" />
<line
	class="arc2"
	id="link47_@2_46"
	x1="721.0432"
	y1="361.64975"
	x2="728.67303"
	y2="371.14447" />
<line
	class="arc1"
	id="link53_@1_54"
	x1="727.98364"
	y1="341.53696"
	x2="725.1615"
	y2="336.12857" />
<line
	class="arc2"
	id="link60_@2_54"
	x1="715.05426"
	y1="336.0292"
	x2="725.1615"
	y2="336.12857" />
<line
	class="arc2"
	id="link120_@2_122"
	x1="702.1662"
	y1="375.5938"
	x2="709.796"
	y2="385.08856" />
<line
	class="arc1"
	id="link46_@1_45"
	x1="728.67303"
	y1="371.14447"
	x2="730.0105"
	y2="385.28726" />
<line
	class="arc1"
	id="link122_@1_40"
	x1="709.796"
	y1="385.08856"
	x2="723.71814"
	y2="389.9353" />
<line
	class="arc2"
	id="link45_@2_40"
	x1="730.0105"
	y1="385.28726"
	x2="723.71814"
	y2="389.9353" />
</svg>
