<?xml version="1.0" encoding="UTF-8" standalone="no"?>
<!-- Created with Jerboa -->

<svg
   width="337.05933"
   height="535.37219"
   version="1.1"
   id="svg1"
   sodipodi:docname="build-init-v3-4.svg"
   inkscape:version="1.3.2 (091e20ef0f, 2023-11-25, custom)"
   xmlns:inkscape="http://www.inkscape.org/namespaces/inkscape"
   xmlns:sodipodi="http://sodipodi.sourceforge.net/DTD/sodipodi-0.dtd"
   xmlns="http://www.w3.org/2000/svg"
   xmlns:svg="http://www.w3.org/2000/svg">
  <defs
     id="defs1" />
  <sodipodi:namedview
     id="namedview1"
     pagecolor="#ffffff"
     bordercolor="#000000"
     borderopacity="0.25"
     inkscape:showpageshadow="2"
     inkscape:pageopacity="0.0"
     inkscape:pagecheckerboard="0"
     inkscape:deskcolor="#d1d1d1"
     showgrid="false"
     inkscape:zoom="0.87677054"
     inkscape:cx="181.34733"
     inkscape:cy="254.91276"
     inkscape:window-width="1892"
     inkscape:window-height="1034"
     inkscape:window-x="9"
     inkscape:window-y="27"
     inkscape:window-maximized="1"
     inkscape:current-layer="svg1" />
  <style
     id="style">
		.arc0 {
			fill:none;
			fill-rule:evenodd;
			stroke:black;
			stroke-width:4;
			stroke-linecap:round;
			stroke-linejoin:round;
			stroke-opacity:1;
		}
		.arc1 {
			fill:none;
			fill-rule:evenodd;
			stroke:red;
			stroke-width:4;
			stroke-linecap:round;
			stroke-linejoin:round;
			stroke-opacity:1;
		}
		.arc2 {
			fill:none;
			fill-rule:evenodd;
			stroke:blue;
			stroke-width:4;
			stroke-linecap:round;
			stroke-linejoin:round;
			stroke-opacity:1;
		}
		.arc3 {
			fill:none;
			fill-rule:evenodd;
			stroke:green;
			stroke-width:4;
			stroke-linecap:round;
			stroke-linejoin:round;
			stroke-opacity:1;
		}
		.topological-dart {
			fill:#000000;
			stroke:#000000;
			stroke-width:0;
			stroke-linecap:round;
			stroke-linejoin:round;
			stroke-dasharray:none;
			paint-order:markers fill stroke;
		}
	</style>
  <polygon
     points="669.6081,342.8808 846.4969,352.41992 854.1267,361.9147 851.64935,569.4175 844.0194,578.0485 669.6081,568.17694 661.9783,558.6822 661.9783,351.51187 "
     id="face_20_21_16_15_14_13_18_19"
     style="fill:#c0c0c0;stroke:none"
     opacity="1"
     transform="translate(-524.21979,-70.935181)" />
  <line
     class="arc1"
     id="link19_@1_18"
     x1="137.75848"
     y1="487.74701"
     x2="145.38831"
     y2="497.24176" />
  <line
     class="arc2"
     id="link19_@2_24"
     x1="137.75848"
     y1="487.74701"
     x2="125.17383"
     y2="487.98016" />
  <line
     class="arc0"
     id="link19_@0_20"
     x1="137.75848"
     y1="487.74701"
     x2="137.75848"
     y2="280.57669" />
  <polygon
     points="644.4387,343.34708 531.1747,358.54803 526.2198,368.27594 526.2198,575.4462 531.1747,583.8442 644.4387,568.6432 649.3936,558.91534 649.3936,351.74503 "
     id="face_25_26_31_30_29_28_23_24"
     style="fill:#c0c0c0;stroke:none"
     opacity="1"
     transform="translate(-524.21979,-70.935181)" />
  <line
     class="arc1"
     id="link24_@1_23"
     x1="125.17383"
     y1="487.98016"
     x2="120.21893"
     y2="497.70801" />
  <line
     class="arc0"
     id="link24_@0_25"
     x1="125.17383"
     y1="487.98016"
     x2="125.17383"
     y2="280.80984" />
  <line
     class="arc2"
     id="link18_@2_0"
     x1="145.38831"
     y1="497.24176"
     x2="140.43347"
     y2="506.96967" />
  <line
     class="arc0"
     id="link18_@0_13"
     x1="145.38831"
     y1="497.24176"
     x2="319.79962"
     y2="507.11334" />
  <line
     class="arc2"
     id="link23_@2_1"
     x1="120.21893"
     y1="497.70801"
     x2="127.84875"
     y2="507.20276" />
  <line
     class="arc0"
     id="link23_@0_28"
     x1="120.21893"
     y1="497.70801"
     x2="6.954895"
     y2="512.909" />
  <polygon
     points="841.73956,588.8733 728.4756,604.0742 715.89075,604.3074 541.4795,594.4357 538.8045,593.3389 652.06854,578.13794 664.65326,577.90485 839.06464,587.7764 "
     id="face_7_6_5_4_3_2_1_0"
     style="fill:#c0c0c0;stroke:none"
     opacity="1"
     transform="translate(-524.21979,-70.935181)" />
  <line
     class="arc1"
     id="link0_@1_1"
     x1="140.43347"
     y1="506.96967"
     x2="127.84875"
     y2="507.20276" />
  <line
     class="arc0"
     id="link0_@0_7"
     x1="140.43347"
     y1="506.96967"
     x2="314.84485"
     y2="516.84125" />
  <line
     class="arc0"
     id="link1_@0_2"
     x1="127.84875"
     y1="507.20276"
     x2="14.584717"
     y2="522.40375" />
  <line
     class="arc1"
     id="link20_@1_21"
     x1="137.75848"
     y1="280.57669"
     x2="145.38831"
     y2="271.94562" />
  <line
     class="arc2"
     id="link20_@2_25"
     x1="137.75848"
     y1="280.57669"
     x2="125.17383"
     y2="280.80984" />
  <line
     class="arc1"
     id="link25_@1_26"
     x1="125.17383"
     y1="280.80984"
     x2="120.21893"
     y2="272.4119" />
  <polygon
     points="669.6081,81.33307 846.4969,90.87219 854.1267,100.36688 854.1267,307.5373 846.4969,316.16837 669.6081,306.62927 661.9783,297.13446 661.9783,89.96411 "
     id="face_85_86_92_91_90_89_83_84"
     style="fill:#c0c0c0;stroke:none"
     opacity="1"
     transform="translate(-524.21979,-70.935181)" />
  <line
     class="arc1"
     id="link84_@1_83"
     x1="137.75848"
     y1="226.19928"
     x2="145.38831"
     y2="235.69409" />
  <line
     class="arc2"
     id="link84_@2_78"
     x1="137.75848"
     y1="226.19928"
     x2="125.17383"
     y2="226.43246" />
  <line
     class="arc0"
     id="link84_@0_85"
     x1="137.75848"
     y1="226.19928"
     x2="137.75848"
     y2="19.028931" />
  <line
     class="arc2"
     id="link21_@2_22"
     x1="145.38831"
     y1="271.94562"
     x2="140.43347"
     y2="263.5477" />
  <line
     class="arc0"
     id="link21_@0_16"
     x1="145.38831"
     y1="271.94562"
     x2="322.2771"
     y2="281.48474" />
  <polygon
     points="644.4387,81.79932 531.1747,97.000244 526.2198,106.72809 526.2198,313.89856 531.1747,322.29645 644.4387,307.09552 649.3936,297.36765 649.3936,90.19714 "
     id="face_79_80_74_73_72_71_77_78"
     style="fill:#c0c0c0;stroke:none"
     opacity="1"
     transform="translate(-524.21979,-70.935181)" />
  <line
     class="arc1"
     id="link78_@1_77"
     x1="125.17383"
     y1="226.43246"
     x2="120.21893"
     y2="236.16034" />
  <line
     class="arc0"
     id="link78_@0_79"
     x1="125.17383"
     y1="226.43246"
     x2="125.17383"
     y2="19.261963" />
  <line
     class="arc2"
     id="link83_@2_82"
     x1="145.38831"
     y1="235.69409"
     x2="140.43347"
     y2="245.42191" />
  <line
     class="arc0"
     id="link83_@0_89"
     x1="145.38831"
     y1="235.69409"
     x2="322.2771"
     y2="245.23318" />
  <line
     class="arc2"
     id="link26_@2_27"
     x1="120.21893"
     y1="272.4119"
     x2="127.84875"
     y2="263.78082" />
  <line
     class="arc0"
     id="link26_@0_31"
     x1="120.21893"
     y1="272.4119"
     x2="6.954895"
     y2="287.61285" />
  <polygon
     points="849.1719,344.45386 800.3672,344.8526 800.3672,344.8526 721.0432,361.64975 710.9359,361.55038 541.4795,351.01382 538.8045,349.91696 652.06854,334.716 664.65326,334.48288 844.0194,343.6895 "
     id="face_17_12_50_49_47_42_37_32_27_22"
     style="fill:#c0c0c0;stroke:none"
     opacity="1"
     transform="translate(-524.21979,-70.935181)" />
  <line
     class="arc1"
     id="link22_@1_27"
     x1="140.43347"
     y1="263.5477"
     x2="127.84875"
     y2="263.78082" />
  <line
     class="arc3"
     id="link22_@3_82"
     x1="140.43347"
     y1="263.5477"
     x2="140.43347"
     y2="245.42191" />
  <line
     class="arc0"
     id="link22_@0_17"
     x1="140.43347"
     y1="263.5477"
     x2="319.79962"
     y2="272.75433" />
  <line
     class="arc2"
     id="link77_@2_76"
     x1="120.21893"
     y1="236.16034"
     x2="127.84875"
     y2="245.65503" />
  <line
     class="arc0"
     id="link77_@0_71"
     x1="120.21893"
     y1="236.16034"
     x2="6.954895"
     y2="251.36127" />
  <polygon
     points="849.1719,326.3281 802.8446,335.4572 797.8898,336.12222 721.0432,343.524 710.9359,343.42462 541.4795,332.88803 538.8045,331.7912 652.06854,316.5902 664.65326,316.3571 844.0194,325.56372 "
     id="face_88_94_100_106_52_58_64_70_76_82"
     style="fill:#c0c0c0;stroke:none"
     opacity="1"
     transform="translate(-524.21979,-70.935181)" />
  <line
     class="arc1"
     id="link82_@1_76"
     x1="140.43347"
     y1="245.42191"
     x2="127.84875"
     y2="245.65503" />
  <line
     class="arc0"
     id="link82_@0_88"
     x1="140.43347"
     y1="245.42191"
     x2="319.79962"
     y2="254.62854" />
  <line
     class="arc3"
     id="link27_@3_76"
     x1="127.84875"
     y1="263.78082"
     x2="127.84875"
     y2="245.65503" />
  <line
     class="arc0"
     id="link27_@0_32"
     x1="127.84875"
     y1="263.78082"
     x2="14.584717"
     y2="278.98178" />
  <line
     class="arc0"
     id="link76_@0_70"
     x1="127.84875"
     y1="245.65503"
     x2="14.584717"
     y2="260.85602" />
  <line
     class="arc1"
     id="link85_@1_86"
     x1="137.75848"
     y1="19.028931"
     x2="145.38831"
     y2="10.397888" />
  <line
     class="arc2"
     id="link85_@2_79"
     x1="137.75848"
     y1="19.028931"
     x2="125.17383"
     y2="19.261963" />
  <line
     class="arc1"
     id="link79_@1_80"
     x1="125.17383"
     y1="19.261963"
     x2="120.21893"
     y2="10.864136" />
  <line
     class="arc2"
     id="link86_@2_87"
     x1="145.38831"
     y1="10.397888"
     x2="140.43347"
     y2="2" />
  <line
     class="arc0"
     id="link86_@0_92"
     x1="145.38831"
     y1="10.397888"
     x2="322.2771"
     y2="19.937012" />
  <line
     class="arc2"
     id="link80_@2_81"
     x1="120.21893"
     y1="10.864136"
     x2="127.84875"
     y2="2.2331543" />
  <line
     class="arc0"
     id="link80_@0_74"
     x1="120.21893"
     y1="10.864136"
     x2="6.954895"
     y2="26.065063" />
  <polygon
     points="849.1719,82.90613 802.8446,92.03522 797.8898,92.70026 721.0432,100.10205 710.9359,100.00269 541.4795,89.466125 538.8045,88.36926 652.06854,73.168335 664.65326,72.93518 844.0194,82.141846 "
     id="face_93_99_105_111_57_63_69_75_81_87"
     style="fill:#c0c0c0;stroke:none"
     opacity="1"
     transform="translate(-524.21979,-70.935181)" />
  <line
     class="arc1"
     id="link87_@1_81"
     x1="140.43347"
     y1="2"
     x2="127.84875"
     y2="2.2331543" />
  <line
     class="arc0"
     id="link87_@0_93"
     x1="140.43347"
     y1="2"
     x2="319.79962"
     y2="11.206665" />
  <line
     class="arc0"
     id="link81_@0_75"
     x1="127.84875"
     y1="2.2331543"
     x2="14.584717"
     y2="17.434082" />
  <line
     class="arc1"
     id="link13_@1_14"
     x1="319.79962"
     y1="507.11334"
     x2="327.42957"
     y2="498.4823" />
  <line
     class="arc2"
     id="link13_@2_7"
     x1="319.79962"
     y1="507.11334"
     x2="314.84485"
     y2="516.84125" />
  <line
     class="arc2"
     id="link14_@2_9"
     x1="327.42957"
     y1="498.4823"
     x2="330.10443"
     y2="499.57916" />
  <line
     class="arc0"
     id="link14_@0_15"
     x1="327.42957"
     y1="498.4823"
     x2="329.90692"
     y2="290.97952" />
  <line
     class="arc1"
     id="link7_@1_6"
     x1="314.84485"
     y1="516.84125"
     x2="317.51978"
     y2="517.93811" />
  <line
     class="arc1"
     id="link16_@1_15"
     x1="322.2771"
     y1="281.48474"
     x2="329.90692"
     y2="290.97952" />
  <line
     class="arc2"
     id="link16_@2_17"
     x1="322.2771"
     y1="281.48474"
     x2="319.79962"
     y2="272.75433" />
  <polygon
     points="856.8017,353.94858 800.3672,344.8526 800.3672,344.8526 728.67303,371.14447 726.1956,380.53992 731.15045,587.0452 736.10535,595.4432 849.3694,580.2422 854.3242,570.51434 859.2791,362.67902 "
     id="face_10_11_51_48_46_45_44_43_8_9"
     style="fill:#c0c0c0;stroke:none"
     opacity="1"
     transform="translate(-524.21979,-70.935181)" />
  <line
     class="arc1"
     id="link9_@1_8"
     x1="330.10443"
     y1="499.57916"
     x2="325.1496"
     y2="509.30701" />
  <line
     class="arc0"
     id="link9_@0_10"
     x1="330.10443"
     y1="499.57916"
     x2="335.05933"
     y2="291.74384" />
  <line
     class="arc2"
     id="link6_@2_8"
     x1="317.51978"
     y1="517.93811"
     x2="325.1496"
     y2="509.30701" />
  <line
     class="arc0"
     id="link6_@0_5"
     x1="317.51978"
     y1="517.93811"
     x2="204.2558"
     y2="533.13904" />
  <line
     class="arc1"
     id="link89_@1_90"
     x1="322.2771"
     y1="245.23318"
     x2="329.90692"
     y2="236.60211" />
  <line
     class="arc2"
     id="link89_@2_88"
     x1="322.2771"
     y1="245.23318"
     x2="319.79962"
     y2="254.62854" />
  <line
     class="arc2"
     id="link15_@2_10"
     x1="329.90692"
     y1="290.97952"
     x2="335.05933"
     y2="291.74384" />
  <line
     class="arc1"
     id="link17_@1_12"
     x1="319.79962"
     y1="272.75433"
     x2="324.95209"
     y2="273.51868" />
  <line
     class="arc3"
     id="link17_@3_88"
     x1="319.79962"
     y1="272.75433"
     x2="319.79962"
     y2="254.62854" />
  <line
     class="arc1"
     id="link88_@1_94"
     x1="319.79962"
     y1="254.62854"
     x2="324.95209"
     y2="255.39291" />
  <line
     class="arc0"
     id="link8_@0_43"
     x1="325.1496"
     y1="509.30701"
     x2="211.88556"
     y2="524.508" />
  <line
     class="arc2"
     id="link90_@2_96"
     x1="329.90692"
     y1="236.60211"
     x2="335.05933"
     y2="237.36642" />
  <line
     class="arc0"
     id="link90_@0_91"
     x1="329.90692"
     y1="236.60211"
     x2="329.90692"
     y2="29.431702" />
  <line
     class="arc1"
     id="link10_@1_11"
     x1="335.05933"
     y1="291.74384"
     x2="332.58191"
     y2="283.0134" />
  <line
     class="arc2"
     id="link12_@2_11"
     x1="324.95209"
     y1="273.51868"
     x2="332.58191"
     y2="283.0134" />
  <line
     class="arc3"
     id="link12_@3_94"
     x1="324.95209"
     y1="273.51868"
     x2="324.95209"
     y2="255.39291" />
  <line
     class="arc0"
     id="link12_@0_50"
     x1="324.95209"
     y1="273.51868"
     x2="276.1474"
     y2="273.91742" />
  <line
     class="arc2"
     id="link94_@2_95"
     x1="324.95209"
     y1="255.39291"
     x2="332.58191"
     y2="246.76184" />
  <line
     class="arc0"
     id="link94_@0_100"
     x1="324.95209"
     y1="255.39291"
     x2="278.62482"
     y2="264.52203" />
  <line
     class="arc0"
     id="link11_@0_51"
     x1="332.58191"
     y1="283.0134"
     x2="276.1474"
     y2="273.91742" />
  <polygon
     points="856.8017,92.40082 805.32196,100.76562 802.8446,110.16095 802.8446,317.33142 805.32196,326.06186 856.8017,317.69702 859.2791,308.3016 859.2791,101.13123 "
     id="face_97_98_104_103_102_101_95_96"
     style="fill:#c0c0c0;stroke:none"
     opacity="1"
     transform="translate(-524.21979,-70.935181)" />
  <line
     class="arc1"
     id="link96_@1_95"
     x1="335.05933"
     y1="237.36642"
     x2="332.58191"
     y2="246.76184" />
  <line
     class="arc0"
     id="link96_@0_97"
     x1="335.05933"
     y1="237.36642"
     x2="335.05933"
     y2="30.196053" />
  <line
     class="arc0"
     id="link95_@0_101"
     x1="332.58191"
     y1="246.76184"
     x2="281.10217"
     y2="255.12668" />
  <line
     class="arc1"
     id="link92_@1_91"
     x1="322.2771"
     y1="19.937012"
     x2="329.90692"
     y2="29.431702" />
  <line
     class="arc2"
     id="link92_@2_93"
     x1="322.2771"
     y1="19.937012"
     x2="319.79962"
     y2="11.206665" />
  <line
     class="arc2"
     id="link91_@2_97"
     x1="329.90692"
     y1="29.431702"
     x2="335.05933"
     y2="30.196053" />
  <line
     class="arc1"
     id="link93_@1_99"
     x1="319.79962"
     y1="11.206665"
     x2="324.95209"
     y2="11.970947" />
  <line
     class="arc1"
     id="link97_@1_98"
     x1="335.05933"
     y1="30.196053"
     x2="332.58191"
     y2="21.465637" />
  <line
     class="arc2"
     id="link99_@2_98"
     x1="324.95209"
     y1="11.970947"
     x2="332.58191"
     y2="21.465637" />
  <line
     class="arc0"
     id="link99_@0_105"
     x1="324.95209"
     y1="11.970947"
     x2="278.62482"
     y2="21.100037" />
  <line
     class="arc0"
     id="link98_@0_104"
     x1="332.58191"
     y1="21.465637"
     x2="281.10217"
     y2="29.830437" />
  <line
     class="arc1"
     id="link28_@1_29"
     x1="6.954895"
     y1="512.909"
     x2="2"
     y2="504.51105" />
  <line
     class="arc2"
     id="link28_@2_2"
     x1="6.954895"
     y1="512.909"
     x2="14.584717"
     y2="522.40375" />
  <line
     class="arc1"
     id="link2_@1_3"
     x1="14.584717"
     y1="522.40375"
     x2="17.259705"
     y2="523.50055" />
  <line
     class="arc2"
     id="link29_@2_34"
     x1="2"
     y1="504.51105"
     x2="4.6749878"
     y2="505.60791" />
  <line
     class="arc0"
     id="link29_@0_30"
     x1="2"
     y1="504.51105"
     x2="2"
     y2="297.34076" />
  <line
     class="arc2"
     id="link3_@2_33"
     x1="17.259705"
     y1="523.50055"
     x2="12.304871"
     y2="515.10266" />
  <line
     class="arc0"
     id="link3_@0_4"
     x1="17.259705"
     y1="523.50055"
     x2="191.67096"
     y2="533.37219" />
  <line
     class="arc1"
     id="link31_@1_30"
     x1="6.954895"
     y1="287.61285"
     x2="2"
     y2="297.34076" />
  <line
     class="arc2"
     id="link31_@2_32"
     x1="6.954895"
     y1="287.61285"
     x2="14.584717"
     y2="278.98178" />
  <polygon
     points="536.52466,360.7417 708.45856,370.94577 716.0884,380.44055 718.5658,587.2784 710.9359,595.9094 536.52466,586.03784 528.8948,576.5431 528.8948,369.37277 "
     id="face_35_36_41_40_39_38_33_34"
     style="fill:#c0c0c0;stroke:none"
     opacity="1"
     transform="translate(-524.21979,-70.935181)" />
  <line
     class="arc1"
     id="link34_@1_33"
     x1="4.6749878"
     y1="505.60791"
     x2="12.304871"
     y2="515.10266" />
  <line
     class="arc0"
     id="link34_@0_35"
     x1="4.6749878"
     y1="505.60791"
     x2="4.6749878"
     y2="298.43759" />
  <line
     class="arc1"
     id="link71_@1_72"
     x1="6.954895"
     y1="251.36127"
     x2="2"
     y2="242.96338" />
  <line
     class="arc2"
     id="link71_@2_70"
     x1="6.954895"
     y1="251.36127"
     x2="14.584717"
     y2="260.85602" />
  <line
     class="arc1"
     id="link32_@1_37"
     x1="14.584717"
     y1="278.98178"
     x2="17.259705"
     y2="280.07864" />
  <line
     class="arc3"
     id="link32_@3_70"
     x1="14.584717"
     y1="278.98178"
     x2="14.584717"
     y2="260.85602" />
  <line
     class="arc0"
     id="link33_@0_38"
     x1="12.304871"
     y1="515.10266"
     x2="186.71613"
     y2="524.97424" />
  <line
     class="arc2"
     id="link30_@2_35"
     x1="2"
     y1="297.34076"
     x2="4.6749878"
     y2="298.43759" />
  <line
     class="arc1"
     id="link70_@1_64"
     x1="14.584717"
     y1="260.85602"
     x2="17.259705"
     y2="261.95285" />
  <line
     class="arc2"
     id="link72_@2_66"
     x1="2"
     y1="242.96338"
     x2="4.6749878"
     y2="244.06018" />
  <line
     class="arc0"
     id="link72_@0_73"
     x1="2"
     y1="242.96338"
     x2="2"
     y2="35.792908" />
  <line
     class="arc2"
     id="link37_@2_36"
     x1="17.259705"
     y1="280.07864"
     x2="12.304871"
     y2="289.80652" />
  <line
     class="arc3"
     id="link37_@3_64"
     x1="17.259705"
     y1="280.07864"
     x2="17.259705"
     y2="261.95285" />
  <line
     class="arc0"
     id="link37_@0_42"
     x1="17.259705"
     y1="280.07864"
     x2="186.71613"
     y2="290.6152" />
  <line
     class="arc1"
     id="link35_@1_36"
     x1="4.6749878"
     y1="298.43759"
     x2="12.304871"
     y2="289.80652" />
  <line
     class="arc2"
     id="link64_@2_65"
     x1="17.259705"
     y1="261.95285"
     x2="12.304871"
     y2="253.55493" />
  <line
     class="arc0"
     id="link64_@0_58"
     x1="17.259705"
     y1="261.95285"
     x2="186.71613"
     y2="272.48944" />
  <line
     class="arc1"
     id="link74_@1_73"
     x1="6.954895"
     y1="26.065063"
     x2="2"
     y2="35.792908" />
  <line
     class="arc2"
     id="link74_@2_75"
     x1="6.954895"
     y1="26.065063"
     x2="14.584717"
     y2="17.434082" />
  <polygon
     points="536.52466,99.19397 708.45856,109.39801 716.0884,118.8927 716.0884,326.06314 708.45856,334.6942 536.52466,324.4901 528.8948,314.99536 528.8948,107.82495 "
     id="face_67_68_62_61_60_59_65_66"
     style="fill:#c0c0c0;stroke:none"
     opacity="1"
     transform="translate(-524.21979,-70.935181)" />
  <line
     class="arc1"
     id="link66_@1_65"
     x1="4.6749878"
     y1="244.06018"
     x2="12.304871"
     y2="253.55493" />
  <line
     class="arc0"
     id="link66_@0_67"
     x1="4.6749878"
     y1="244.06018"
     x2="4.6749878"
     y2="36.889771" />
  <line
     class="arc0"
     id="link36_@0_41"
     x1="12.304871"
     y1="289.80652"
     x2="184.23877"
     y2="300.01059" />
  <line
     class="arc0"
     id="link65_@0_59"
     x1="12.304871"
     y1="253.55493"
     x2="184.23877"
     y2="263.75903" />
  <line
     class="arc1"
     id="link75_@1_69"
     x1="14.584717"
     y1="17.434082"
     x2="17.259705"
     y2="18.530945" />
  <line
     class="arc2"
     id="link73_@2_67"
     x1="2"
     y1="35.792908"
     x2="4.6749878"
     y2="36.889771" />
  <line
     class="arc2"
     id="link69_@2_68"
     x1="17.259705"
     y1="18.530945"
     x2="12.304871"
     y2="28.258789" />
  <line
     class="arc0"
     id="link69_@0_63"
     x1="17.259705"
     y1="18.530945"
     x2="186.71613"
     y2="29.067513" />
  <line
     class="arc1"
     id="link67_@1_68"
     x1="4.6749878"
     y1="36.889771"
     x2="12.304871"
     y2="28.258789" />
  <line
     class="arc1"
     id="link101_@1_102"
     x1="281.10217"
     y1="255.12668"
     x2="278.62482"
     y2="246.39624" />
  <line
     class="arc2"
     id="link101_@2_100"
     x1="281.10217"
     y1="255.12668"
     x2="278.62482"
     y2="264.52203" />
  <line
     class="arc0"
     id="link68_@0_62"
     x1="12.304871"
     y1="28.258789"
     x2="184.23877"
     y2="38.46283" />
  <line
     class="arc1"
     id="link100_@1_106"
     x1="278.62482"
     y1="264.52203"
     x2="273.66998"
     y2="265.18704" />
  <line
     class="arc3"
     id="link100_@3_50"
     x1="278.62482"
     y1="264.52203"
     x2="276.1474"
     y2="273.91742" />
  <line
     class="arc2"
     id="link102_@2_108"
     x1="278.62482"
     y1="246.39624"
     x2="273.66998"
     y2="247.06125" />
  <line
     class="arc0"
     id="link102_@0_103"
     x1="278.62482"
     y1="246.39624"
     x2="278.62482"
     y2="39.225769" />
  <line
     class="arc1"
     id="link48_@1_51"
     x1="276.1474"
     y1="273.91742"
     x2="276.1474"
     y2="273.91742" />
  <line
     class="arc2"
     id="link48_@2_49"
     x1="276.1474"
     y1="273.91742"
     x2="276.1474"
     y2="273.91742" />
  <line
     class="arc0"
     id="link48_@0_46"
     x1="276.1474"
     y1="273.91742"
     x2="204.45325"
     y2="300.20929" />
  <line
     class="arc1"
     id="link49_@1_50"
     x1="276.1474"
     y1="273.91742"
     x2="276.1474"
     y2="273.91742" />
  <line
     class="arc3"
     id="link49_@3_106"
     x1="276.1474"
     y1="273.91742"
     x2="273.66998"
     y2="265.18704" />
  <line
     class="arc0"
     id="link49_@0_47"
     x1="276.1474"
     y1="273.91742"
     x2="196.82343"
     y2="290.71457" />
  <line
     class="arc2"
     id="link50_@2_51"
     x1="276.1474"
     y1="273.91742"
     x2="276.1474"
     y2="273.91742" />
  <line
     class="arc2"
     id="link106_@2_107"
     x1="273.66998"
     y1="265.18704"
     x2="271.1925"
     y2="256.45663" />
  <line
     class="arc0"
     id="link106_@0_52"
     x1="273.66998"
     y1="265.18704"
     x2="196.82343"
     y2="272.58881" />
  <polygon
     points="795.4123,102.09558 728.67303,109.59674 726.1956,118.99206 726.1956,326.1625 728.67303,334.89294 795.4123,327.3918 797.8898,317.99643 797.8898,110.82599 "
     id="face_109_110_56_55_54_53_107_108"
     style="fill:#c0c0c0;stroke:none"
     opacity="1"
     transform="translate(-524.21979,-70.935181)" />
  <line
     class="arc1"
     id="link108_@1_107"
     x1="273.66998"
     y1="247.06125"
     x2="271.1925"
     y2="256.45663" />
  <line
     class="arc0"
     id="link108_@0_109"
     x1="273.66998"
     y1="247.06125"
     x2="273.66998"
     y2="39.890808" />
  <line
     class="arc0"
     id="link107_@0_53"
     x1="271.1925"
     y1="256.45663"
     x2="204.45325"
     y2="263.95776" />
  <line
     class="arc1"
     id="link104_@1_103"
     x1="281.10217"
     y1="29.830437"
     x2="278.62482"
     y2="39.225769" />
  <line
     class="arc2"
     id="link104_@2_105"
     x1="281.10217"
     y1="29.830437"
     x2="278.62482"
     y2="21.100037" />
  <line
     class="arc2"
     id="link103_@2_109"
     x1="278.62482"
     y1="39.225769"
     x2="273.66998"
     y2="39.890808" />
  <line
     class="arc1"
     id="link105_@1_111"
     x1="278.62482"
     y1="21.100037"
     x2="273.66998"
     y2="21.765076" />
  <line
     class="arc1"
     id="link109_@1_110"
     x1="273.66998"
     y1="39.890808"
     x2="271.1925"
     y2="31.1604" />
  <line
     class="arc2"
     id="link111_@2_110"
     x1="273.66998"
     y1="21.765076"
     x2="271.1925"
     y2="31.1604" />
  <line
     class="arc0"
     id="link111_@0_57"
     x1="273.66998"
     y1="21.765076"
     x2="196.82343"
     y2="29.16687" />
  <line
     class="arc0"
     id="link110_@0_56"
     x1="271.1925"
     y1="31.1604"
     x2="204.45325"
     y2="38.66156" />
  <line
     class="arc1"
     id="link5_@1_4"
     x1="204.2558"
     y1="533.13904"
     x2="191.67096"
     y2="533.37219" />
  <line
     class="arc2"
     id="link5_@2_43"
     x1="204.2558"
     y1="533.13904"
     x2="211.88556"
     y2="524.508" />
  <line
     class="arc2"
     id="link4_@2_38"
     x1="191.67096"
     y1="533.37219"
     x2="186.71613"
     y2="524.97424" />
  <line
     class="arc1"
     id="link43_@1_44"
     x1="211.88556"
     y1="524.508"
     x2="206.93066"
     y2="516.11005" />
  <line
     class="arc1"
     id="link38_@1_39"
     x1="186.71613"
     y1="524.97424"
     x2="194.34601"
     y2="516.3432" />
  <line
     class="arc2"
     id="link44_@2_39"
     x1="206.93066"
     y1="516.11005"
     x2="194.34601"
     y2="516.3432" />
  <line
     class="arc0"
     id="link44_@0_45"
     x1="206.93066"
     y1="516.11005"
     x2="201.97583"
     y2="309.60474" />
  <line
     class="arc0"
     id="link39_@0_40"
     x1="194.34601"
     y1="516.3432"
     x2="191.86859"
     y2="309.50537" />
  <line
     class="arc1"
     id="link42_@1_47"
     x1="186.71613"
     y1="290.6152"
     x2="196.82343"
     y2="290.71457" />
  <line
     class="arc2"
     id="link42_@2_41"
     x1="186.71613"
     y1="290.6152"
     x2="184.23877"
     y2="300.01059" />
  <line
     class="arc3"
     id="link42_@3_58"
     x1="186.71613"
     y1="290.6152"
     x2="186.71613"
     y2="272.48944" />
  <line
     class="arc2"
     id="link47_@2_46"
     x1="196.82343"
     y1="290.71457"
     x2="204.45325"
     y2="300.20929" />
  <line
     class="arc3"
     id="link47_@3_52"
     x1="196.82343"
     y1="290.71457"
     x2="196.82343"
     y2="272.58881" />
  <line
     class="arc1"
     id="link58_@1_52"
     x1="186.71613"
     y1="272.48944"
     x2="196.82343"
     y2="272.58881" />
  <line
     class="arc2"
     id="link58_@2_59"
     x1="186.71613"
     y1="272.48944"
     x2="184.23877"
     y2="263.75903" />
  <line
     class="arc1"
     id="link41_@1_40"
     x1="184.23877"
     y1="300.01059"
     x2="191.86859"
     y2="309.50537" />
  <line
     class="arc2"
     id="link52_@2_53"
     x1="196.82343"
     y1="272.58881"
     x2="204.45325"
     y2="263.95776" />
  <line
     class="arc1"
     id="link46_@1_45"
     x1="204.45325"
     y1="300.20929"
     x2="201.97583"
     y2="309.60474" />
  <line
     class="arc1"
     id="link59_@1_60"
     x1="184.23877"
     y1="263.75903"
     x2="191.86859"
     y2="255.12796" />
  <line
     class="arc2"
     id="link40_@2_45"
     x1="191.86859"
     y1="309.50537"
     x2="201.97583"
     y2="309.60474" />
  <line
     class="arc1"
     id="link53_@1_54"
     x1="204.45325"
     y1="263.95776"
     x2="201.97583"
     y2="255.22733" />
  <line
     class="arc2"
     id="link60_@2_54"
     x1="191.86859"
     y1="255.12796"
     x2="201.97583"
     y2="255.22733" />
  <line
     class="arc0"
     id="link60_@0_61"
     x1="191.86859"
     y1="255.12796"
     x2="191.86859"
     y2="47.95752" />
  <line
     class="arc0"
     id="link54_@0_55"
     x1="201.97583"
     y1="255.22733"
     x2="201.97583"
     y2="48.056892" />
  <line
     class="arc1"
     id="link63_@1_57"
     x1="186.71613"
     y1="29.067513"
     x2="196.82343"
     y2="29.16687" />
  <line
     class="arc2"
     id="link63_@2_62"
     x1="186.71613"
     y1="29.067513"
     x2="184.23877"
     y2="38.46283" />
  <line
     class="arc2"
     id="link57_@2_56"
     x1="196.82343"
     y1="29.16687"
     x2="204.45325"
     y2="38.66156" />
  <line
     class="arc1"
     id="link62_@1_61"
     x1="184.23877"
     y1="38.46283"
     x2="191.86859"
     y2="47.95752" />
  <line
     class="arc1"
     id="link56_@1_55"
     x1="204.45325"
     y1="38.66156"
     x2="201.97583"
     y2="48.056892" />
  <line
     class="arc2"
     id="link61_@2_55"
     x1="191.86859"
     y1="47.95752"
     x2="201.97583"
     y2="48.056892" />
</svg>
