<?xml version="1.0" encoding="UTF-8" standalone="no"?>
<!-- Created with Jerboa -->

<svg
	width="1412"
	height="651" >
	<style id="style">
		.arc0 {
			fill:none;
			fill-rule:evenodd;
			stroke:black;
			stroke-width:4;
			stroke-linecap:round;
			stroke-linejoin:round;
			stroke-opacity:1;
		}
		.arc1 {
			fill:none;
			fill-rule:evenodd;
			stroke:red;
			stroke-width:4;
			stroke-linecap:round;
			stroke-linejoin:round;
			stroke-opacity:1;
		}
		.arc2 {
			fill:none;
			fill-rule:evenodd;
			stroke:blue;
			stroke-width:4;
			stroke-linecap:round;
			stroke-linejoin:round;
			stroke-opacity:1;
		}
		.arc3 {
			fill:none;
			fill-rule:evenodd;
			stroke:green;
			stroke-width:4;
			stroke-linecap:round;
			stroke-linejoin:round;
			stroke-opacity:1;
		}
		.topological-dart {
			fill:#000000;
			stroke:#000000;
			stroke-width:0;
			stroke-linecap:round;
			stroke-linejoin:round;
			stroke-dasharray:none;
			paint-order:markers fill stroke;
		}
	</style>
<polygon
	points="691.3975,553.1199 691.3975,336.94824 699.3589,327.94217 881.34814,338.24268 889.3095,348.15 889.3095,564.32166 881.34814,573.3277 699.3589,563.02716 "
	id="face_22_23_18_17_16_15_20_21"
	style="fill:rgb(192,192,192);stroke:none"
	opacity="1.0" />
<line
	class="arc1"
	id="link21_@1_20"
	x1="691.3975"
	y1="553.1199"
	x2="699.3589"
	y2="563.02716" />
<line
	class="arc2"
	id="link21_@2_26"
	x1="691.3975"
	y1="553.1199"
	x2="678.26605"
	y2="553.36316" />
<line
	class="arc0"
	id="link21_@0_22"
	x1="691.3975"
	y1="553.1199"
	x2="691.3975"
	y2="336.94824" />
<polygon
	points="678.26605,553.36316 678.26605,337.19153 673.0959,328.4287 550.93005,344.06482 543.76953,358.83105 543.76953,565.546 550.93005,579.14984 673.0959,563.5137 "
	id="face_27_28_33_32_31_30_25_26"
	style="fill:rgb(192,192,192);stroke:none"
	opacity="1.0" />
<line
	class="arc1"
	id="link26_@1_25"
	x1="678.26605"
	y1="553.36316"
	x2="673.0959"
	y2="563.5137" />
<line
	class="arc0"
	id="link26_@0_27"
	x1="678.26605"
	y1="553.36316"
	x2="678.26605"
	y2="337.19153" />
<line
	class="arc2"
	id="link20_@2_0"
	x1="699.3589"
	y1="563.02716"
	x2="694.1887"
	y2="573.17773" />
<line
	class="arc0"
	id="link20_@0_15"
	x1="699.3589"
	y1="563.02716"
	x2="881.34814"
	y2="573.3277" />
<line
	class="arc2"
	id="link25_@2_1"
	x1="673.0959"
	y1="563.5137"
	x2="681.05725"
	y2="573.421" />
<line
	class="arc0"
	id="link25_@0_30"
	x1="673.0959"
	y1="563.5137"
	x2="550.93005"
	y2="579.14984" />
<polygon
	points="694.1887,573.17773 876.17804,583.4783 878.96924,584.62274 768.7453,600.93475 757.6042,606.019 652.2886,602.0312 640.3466,601.3553 555.7115,594.592 554.9107,588.8318 681.05725,573.421 "
	id="face_7_6_5_4_9_8_3_2_1_0"
	style="fill:rgb(192,192,192);stroke:none"
	opacity="1.0" />
<line
	class="arc1"
	id="link0_@1_1"
	x1="694.1887"
	y1="573.17773"
	x2="681.05725"
	y2="573.421" />
<line
	class="arc0"
	id="link0_@0_7"
	x1="694.1887"
	y1="573.17773"
	x2="876.17804"
	y2="583.4783" />
<line
	class="arc0"
	id="link1_@0_2"
	x1="681.05725"
	y1="573.421"
	x2="554.9107"
	y2="588.8318" />
<line
	class="arc1"
	id="link22_@1_23"
	x1="691.3975"
	y1="336.94824"
	x2="699.3589"
	y2="327.94217" />
<line
	class="arc2"
	id="link22_@2_27"
	x1="691.3975"
	y1="336.94824"
	x2="678.26605"
	y2="337.19153" />
<line
	class="arc1"
	id="link27_@1_28"
	x1="678.26605"
	y1="337.19153"
	x2="673.0959"
	y2="328.4287" />
<polygon
	points="691.3975,280.20822 691.3975,64.0365 699.3589,55.030518 881.34814,65.331055 889.3095,75.23822 889.3095,291.40994 881.34814,300.41605 699.3589,290.11554 "
	id="face_105_106_112_111_110_109_103_104"
	style="fill:rgb(192,192,192);stroke:none"
	opacity="1.0" />
<line
	class="arc1"
	id="link104_@1_103"
	x1="691.3975"
	y1="280.20822"
	x2="699.3589"
	y2="290.11554" />
<line
	class="arc2"
	id="link104_@2_98"
	x1="691.3975"
	y1="280.20822"
	x2="678.26605"
	y2="280.4515" />
<line
	class="arc0"
	id="link104_@0_105"
	x1="691.3975"
	y1="280.20822"
	x2="691.3975"
	y2="64.0365" />
<line
	class="arc2"
	id="link23_@2_24"
	x1="699.3589"
	y1="327.94217"
	x2="694.1887"
	y2="319.1794" />
<line
	class="arc0"
	id="link23_@0_18"
	x1="699.3589"
	y1="327.94217"
	x2="881.34814"
	y2="338.24268" />
<polygon
	points="678.26605,280.4515 678.26605,64.279724 673.0959,55.51709 550.93005,71.15314 545.7598,81.30359 545.7598,297.47534 550.93005,306.2382 673.0959,290.60208 "
	id="face_99_100_94_93_92_91_97_98"
	style="fill:rgb(192,192,192);stroke:none"
	opacity="1.0" />
<line
	class="arc1"
	id="link98_@1_97"
	x1="678.26605"
	y1="280.4515"
	x2="673.0959"
	y2="290.60208" />
<line
	class="arc0"
	id="link98_@0_99"
	x1="678.26605"
	y1="280.4515"
	x2="678.26605"
	y2="64.279724" />
<line
	class="arc2"
	id="link103_@2_102"
	x1="699.3589"
	y1="290.11554"
	x2="694.1887"
	y2="300.26608" />
<line
	class="arc0"
	id="link103_@0_109"
	x1="699.3589"
	y1="290.11554"
	x2="881.34814"
	y2="300.41605" />
<line
	class="arc2"
	id="link28_@2_29"
	x1="673.0959"
	y1="328.4287"
	x2="681.05725"
	y2="319.42267" />
<line
	class="arc0"
	id="link28_@0_33"
	x1="673.0959"
	y1="328.4287"
	x2="550.93005"
	y2="344.06482" />
<polygon
	points="694.1887,319.1794 876.17804,329.47992 878.96924,330.6244 768.7453,346.9364 757.6042,342.56403 652.2886,338.57617 640.3466,337.90027 555.7115,331.13696 554.9107,334.83347 681.05725,319.42267 "
	id="face_19_14_59_54_49_44_39_34_29_24"
	style="fill:rgb(192,192,192);stroke:none"
	opacity="1.0" />
<line
	class="arc1"
	id="link24_@1_29"
	x1="694.1887"
	y1="319.1794"
	x2="681.05725"
	y2="319.42267" />
<line
	class="arc3"
	id="link24_@3_102"
	x1="694.1887"
	y1="319.1794"
	x2="694.1887"
	y2="300.26608" />
<line
	class="arc0"
	id="link24_@0_19"
	x1="694.1887"
	y1="319.1794"
	x2="876.17804"
	y2="329.47992" />
<line
	class="arc2"
	id="link97_@2_96"
	x1="673.0959"
	y1="290.60208"
	x2="681.05725"
	y2="300.50934" />
<line
	class="arc0"
	id="link97_@0_91"
	x1="673.0959"
	y1="290.60208"
	x2="550.93005"
	y2="306.2382" />
<polygon
	points="694.1887,300.26608 876.17804,310.5666 878.96924,311.71106 768.7453,328.02307 759.59454,328.49167 650.2982,324.27853 642.3369,323.8279 553.7212,316.83932 554.9107,315.92014 681.05725,300.50934 "
	id="face_108_114_60_66_72_78_84_90_96_102"
	style="fill:rgb(192,192,192);stroke:none"
	opacity="1.0" />
<line
	class="arc1"
	id="link102_@1_96"
	x1="694.1887"
	y1="300.26608"
	x2="681.05725"
	y2="300.50934" />
<line
	class="arc0"
	id="link102_@0_108"
	x1="694.1887"
	y1="300.26608"
	x2="876.17804"
	y2="310.5666" />
<line
	class="arc3"
	id="link29_@3_96"
	x1="681.05725"
	y1="319.42267"
	x2="681.05725"
	y2="300.50934" />
<line
	class="arc0"
	id="link29_@0_34"
	x1="681.05725"
	y1="319.42267"
	x2="554.9107"
	y2="334.83347" />
<line
	class="arc0"
	id="link96_@0_90"
	x1="681.05725"
	y1="300.50934"
	x2="554.9107"
	y2="315.92014" />
<line
	class="arc1"
	id="link105_@1_106"
	x1="691.3975"
	y1="64.0365"
	x2="699.3589"
	y2="55.030518" />
<line
	class="arc2"
	id="link105_@2_99"
	x1="691.3975"
	y1="64.0365"
	x2="678.26605"
	y2="64.279724" />
<line
	class="arc1"
	id="link99_@1_100"
	x1="678.26605"
	y1="64.279724"
	x2="673.0959"
	y2="55.51709" />
<line
	class="arc2"
	id="link106_@2_107"
	x1="699.3589"
	y1="55.030518"
	x2="694.1887"
	y2="46.2677" />
<line
	class="arc0"
	id="link106_@0_112"
	x1="699.3589"
	y1="55.030518"
	x2="881.34814"
	y2="65.331055" />
<line
	class="arc2"
	id="link100_@2_101"
	x1="673.0959"
	y1="55.51709"
	x2="681.05725"
	y2="46.510986" />
<line
	class="arc0"
	id="link100_@0_94"
	x1="673.0959"
	y1="55.51709"
	x2="550.93005"
	y2="71.15314" />
<polygon
	points="694.1887,46.2677 876.17804,56.568237 878.96924,57.71277 768.7453,74.02472 759.59454,74.493286 650.2982,70.28027 642.3369,69.82959 553.7212,62.840942 554.9107,61.921753 681.05725,46.510986 "
	id="face_113_119_65_71_77_83_89_95_101_107"
	style="fill:rgb(192,192,192);stroke:none"
	opacity="1.0" />
<line
	class="arc1"
	id="link107_@1_101"
	x1="694.1887"
	y1="46.2677"
	x2="681.05725"
	y2="46.510986" />
<line
	class="arc0"
	id="link107_@0_113"
	x1="694.1887"
	y1="46.2677"
	x2="876.17804"
	y2="56.568237" />
<line
	class="arc0"
	id="link101_@0_95"
	x1="681.05725"
	y1="46.510986"
	x2="554.9107"
	y2="61.921753" />
<line
	class="arc1"
	id="link15_@1_16"
	x1="881.34814"
	y1="573.3277"
	x2="889.3095"
	y2="564.32166" />
<line
	class="arc2"
	id="link15_@2_7"
	x1="881.34814"
	y1="573.3277"
	x2="876.17804"
	y2="583.4783" />
<line
	class="arc2"
	id="link16_@2_11"
	x1="889.3095"
	y1="564.32166"
	x2="892.10065"
	y2="565.4661" />
<line
	class="arc0"
	id="link16_@0_17"
	x1="889.3095"
	y1="564.32166"
	x2="889.3095"
	y2="348.15" />
<line
	class="arc1"
	id="link7_@1_6"
	x1="876.17804"
	y1="583.4783"
	x2="878.96924"
	y2="584.62274" />
<polygon
	points="892.10065,565.4661 892.10065,349.2945 886.93054,340.53165 772.72595,356.61838 769.54626,371.60992 769.54626,578.3249 772.72595,591.70337 886.93054,575.6167 "
	id="face_12_13_58_57_56_55_10_11"
	style="fill:rgb(192,192,192);stroke:none"
	opacity="1.0" />
<line
	class="arc1"
	id="link11_@1_10"
	x1="892.10065"
	y1="565.4661"
	x2="886.93054"
	y2="575.6167" />
<line
	class="arc0"
	id="link11_@0_12"
	x1="892.10065"
	y1="565.4661"
	x2="892.10065"
	y2="349.2945" />
<line
	class="arc2"
	id="link6_@2_10"
	x1="878.96924"
	y1="584.62274"
	x2="886.93054"
	y2="575.6167" />
<line
	class="arc0"
	id="link6_@0_5"
	x1="878.96924"
	y1="584.62274"
	x2="768.7453"
	y2="600.93475" />
<line
	class="arc1"
	id="link18_@1_17"
	x1="881.34814"
	y1="338.24268"
	x2="889.3095"
	y2="348.15" />
<line
	class="arc2"
	id="link18_@2_19"
	x1="881.34814"
	y1="338.24268"
	x2="876.17804"
	y2="329.47992" />
<line
	class="arc1"
	id="link109_@1_110"
	x1="881.34814"
	y1="300.41605"
	x2="889.3095"
	y2="291.40994" />
<line
	class="arc2"
	id="link109_@2_108"
	x1="881.34814"
	y1="300.41605"
	x2="876.17804"
	y2="310.5666" />
<line
	class="arc2"
	id="link17_@2_12"
	x1="889.3095"
	y1="348.15"
	x2="892.10065"
	y2="349.2945" />
<line
	class="arc0"
	id="link10_@0_55"
	x1="886.93054"
	y1="575.6167"
	x2="772.72595"
	y2="591.70337" />
<line
	class="arc1"
	id="link19_@1_14"
	x1="876.17804"
	y1="329.47992"
	x2="878.96924"
	y2="330.6244" />
<line
	class="arc3"
	id="link19_@3_108"
	x1="876.17804"
	y1="329.47992"
	x2="876.17804"
	y2="310.5666" />
<line
	class="arc2"
	id="link110_@2_116"
	x1="889.3095"
	y1="291.40994"
	x2="892.10065"
	y2="292.55447" />
<line
	class="arc0"
	id="link110_@0_111"
	x1="889.3095"
	y1="291.40994"
	x2="889.3095"
	y2="75.23822" />
<line
	class="arc1"
	id="link108_@1_114"
	x1="876.17804"
	y1="310.5666"
	x2="878.96924"
	y2="311.71106" />
<line
	class="arc1"
	id="link12_@1_13"
	x1="892.10065"
	y1="349.2945"
	x2="886.93054"
	y2="340.53165" />
<line
	class="arc2"
	id="link14_@2_13"
	x1="878.96924"
	y1="330.6244"
	x2="886.93054"
	y2="340.53165" />
<line
	class="arc3"
	id="link14_@3_114"
	x1="878.96924"
	y1="330.6244"
	x2="878.96924"
	y2="311.71106" />
<line
	class="arc0"
	id="link14_@0_59"
	x1="878.96924"
	y1="330.6244"
	x2="768.7453"
	y2="346.9364" />
<polygon
	points="892.10065,292.55447 892.10065,76.38263 886.93054,67.619995 772.72595,83.706726 767.55585,93.85718 767.55585,310.02893 772.72595,318.79172 886.93054,302.70502 "
	id="face_117_118_64_63_62_61_115_116"
	style="fill:rgb(255,0,0);stroke:none"
	opacity="1.0" />
<line
	class="arc1"
	id="link116_@1_115"
	x1="892.10065"
	y1="292.55447"
	x2="886.93054"
	y2="302.70502" />
<line
	class="arc0"
	id="link116_@0_117"
	x1="892.10065"
	y1="292.55447"
	x2="892.10065"
	y2="76.38263" />
<line
	class="arc1"
	id="link112_@1_111"
	x1="881.34814"
	y1="65.331055"
	x2="889.3095"
	y2="75.23822" />
<line
	class="arc2"
	id="link112_@2_113"
	x1="881.34814"
	y1="65.331055"
	x2="876.17804"
	y2="56.568237" />
<line
	class="arc2"
	id="link114_@2_115"
	x1="878.96924"
	y1="311.71106"
	x2="886.93054"
	y2="302.70502" />
<line
	class="arc0"
	id="link114_@0_60"
	x1="878.96924"
	y1="311.71106"
	x2="768.7453"
	y2="328.02307" />
<line
	class="arc0"
	id="link13_@0_58"
	x1="886.93054"
	y1="340.53165"
	x2="772.72595"
	y2="356.61838" />
<line
	class="arc2"
	id="link111_@2_117"
	x1="889.3095"
	y1="75.23822"
	x2="892.10065"
	y2="76.38263" />
<line
	class="arc0"
	id="link115_@0_61"
	x1="886.93054"
	y1="302.70502"
	x2="772.72595"
	y2="318.79172" />
<line
	class="arc1"
	id="link113_@1_119"
	x1="876.17804"
	y1="56.568237"
	x2="878.96924"
	y2="57.71277" />
<line
	class="arc1"
	id="link117_@1_118"
	x1="892.10065"
	y1="76.38263"
	x2="886.93054"
	y2="67.619995" />
<line
	class="arc1"
	id="link30_@1_31"
	x1="550.93005"
	y1="579.14984"
	x2="543.76953"
	y2="565.546" />
<line
	class="arc2"
	id="link30_@2_2"
	x1="550.93005"
	y1="579.14984"
	x2="554.9107"
	y2="588.8318" />
<line
	class="arc2"
	id="link119_@2_118"
	x1="878.96924"
	y1="57.71277"
	x2="886.93054"
	y2="67.619995" />
<line
	class="arc0"
	id="link119_@0_65"
	x1="878.96924"
	y1="57.71277"
	x2="768.7453"
	y2="74.02472" />
<line
	class="arc1"
	id="link2_@1_3"
	x1="554.9107"
	y1="588.8318"
	x2="555.7115"
	y2="594.592" />
<line
	class="arc0"
	id="link118_@0_64"
	x1="886.93054"
	y1="67.619995"
	x2="772.72595"
	y2="83.706726" />
<line
	class="arc2"
	id="link31_@2_36"
	x1="543.76953"
	y1="565.546"
	x2="540.5897"
	y2="561.6242" />
<line
	class="arc0"
	id="link31_@0_32"
	x1="543.76953"
	y1="565.546"
	x2="543.76953"
	y2="358.83105" />
<line
	class="arc2"
	id="link3_@2_35"
	x1="555.7115"
	y1="594.592"
	x2="552.5317"
	y2="590.67017" />
<line
	class="arc0"
	id="link3_@0_8"
	x1="555.7115"
	y1="594.592"
	x2="640.3466"
	y2="601.3553" />
<polygon
	points="540.5897,561.6242 540.5897,364.36594 541.39056,360.6694 580.91693,456.80743 580.91693,475.72076 541.39056,567.3844 "
	id="face_37_124_125_123_122_36"
	style="fill:rgb(192,192,192);stroke:none"
	opacity="1.0" />
<line
	class="arc1"
	id="link36_@1_122"
	x1="540.5897"
	y1="561.6242"
	x2="541.39056"
	y2="567.3844" />
<line
	class="arc0"
	id="link36_@0_37"
	x1="540.5897"
	y1="561.6242"
	x2="540.5897"
	y2="364.36594" />
<line
	class="arc1"
	id="link33_@1_32"
	x1="550.93005"
	y1="344.06482"
	x2="543.76953"
	y2="358.83105" />
<line
	class="arc2"
	id="link33_@2_34"
	x1="550.93005"
	y1="344.06482"
	x2="554.9107"
	y2="334.83347" />
<polygon
	points="552.5317,590.67017 634.37555,596.289 632.38525,581.99133 592.8589,485.85336 584.8976,485.40274 545.3713,577.06635 "
	id="face_40_134_135_121_120_35"
	style="fill:rgb(192,192,192);stroke:none"
	opacity="1.0" />
<line
	class="arc1"
	id="link35_@1_120"
	x1="552.5317"
	y1="590.67017"
	x2="545.3713"
	y2="577.06635" />
<line
	class="arc0"
	id="link35_@0_40"
	x1="552.5317"
	y1="590.67017"
	x2="634.37555"
	y2="596.289" />
<line
	class="arc1"
	id="link34_@1_39"
	x1="554.9107"
	y1="334.83347"
	x2="555.7115"
	y2="331.13696" />
<line
	class="arc3"
	id="link34_@3_90"
	x1="554.9107"
	y1="334.83347"
	x2="554.9107"
	y2="315.92014" />
<line
	class="arc1"
	id="link91_@1_92"
	x1="550.93005"
	y1="306.2382"
	x2="545.7598"
	y2="297.47534" />
<line
	class="arc2"
	id="link91_@2_90"
	x1="550.93005"
	y1="306.2382"
	x2="554.9107"
	y2="315.92014" />
<line
	class="arc2"
	id="link32_@2_37"
	x1="543.76953"
	y1="358.83105"
	x2="540.5897"
	y2="364.36594" />
<line
	class="arc1"
	id="link90_@1_84"
	x1="554.9107"
	y1="315.92014"
	x2="553.7212"
	y2="316.83932" />
<line
	class="arc2"
	id="link122_@2_120"
	x1="541.39056"
	y1="567.3844"
	x2="545.3713"
	y2="577.06635" />
<line
	class="arc0"
	id="link122_@0_123"
	x1="541.39056"
	y1="567.3844"
	x2="580.91693"
	y2="475.72076" />
<line
	class="arc0"
	id="link120_@0_121"
	x1="545.3713"
	y1="577.06635"
	x2="584.8976"
	y2="485.40274" />
<line
	class="arc2"
	id="link92_@2_86"
	x1="545.7598"
	y1="297.47534"
	x2="544.5704"
	y2="298.39453" />
<line
	class="arc0"
	id="link92_@0_93"
	x1="545.7598"
	y1="297.47534"
	x2="545.7598"
	y2="81.30359" />
<line
	class="arc1"
	id="link37_@1_124"
	x1="540.5897"
	y1="364.36594"
	x2="541.39056"
	y2="360.6694" />
<line
	class="arc2"
	id="link39_@2_38"
	x1="555.7115"
	y1="331.13696"
	x2="552.5317"
	y2="336.6718" />
<line
	class="arc3"
	id="link39_@3_84"
	x1="555.7115"
	y1="331.13696"
	x2="553.7212"
	y2="316.83932" />
<line
	class="arc0"
	id="link39_@0_44"
	x1="555.7115"
	y1="331.13696"
	x2="640.3466"
	y2="337.90027" />
<line
	class="arc2"
	id="link84_@2_85"
	x1="553.7212"
	y1="316.83932"
	x2="548.5511"
	y2="308.07654" />
<line
	class="arc0"
	id="link84_@0_78"
	x1="553.7212"
	y1="316.83932"
	x2="642.3369"
	y2="323.8279" />
<polygon
	points="544.5704,298.39453 544.5704,82.22284 548.5511,72.991516 638.35626,79.060974 642.3369,88.74286 642.3369,304.91458 638.35626,314.14597 548.5511,308.07654 "
	id="face_87_88_82_81_80_79_85_86"
	style="fill:rgb(192,192,192);stroke:none"
	opacity="1.0" />
<line
	class="arc1"
	id="link86_@1_85"
	x1="544.5704"
	y1="298.39453"
	x2="548.5511"
	y2="308.07654" />
<line
	class="arc0"
	id="link86_@0_87"
	x1="544.5704"
	y1="298.39453"
	x2="544.5704"
	y2="82.22284" />
<polygon
	points="552.5317,336.6718 634.37555,342.29065 632.38525,356.36298 592.8589,448.02667 584.8976,447.57608 545.3713,351.43805 "
	id="face_43_128_129_127_126_38"
	style="fill:rgb(192,192,192);stroke:none"
	opacity="1.0" />
<line
	class="arc1"
	id="link38_@1_126"
	x1="552.5317"
	y1="336.6718"
	x2="545.3713"
	y2="351.43805" />
<line
	class="arc0"
	id="link38_@0_43"
	x1="552.5317"
	y1="336.6718"
	x2="634.37555"
	y2="342.29065" />
<line
	class="arc0"
	id="link85_@0_79"
	x1="548.5511"
	y1="308.07654"
	x2="638.35626"
	y2="314.14597" />
<line
	class="arc1"
	id="link94_@1_93"
	x1="550.93005"
	y1="71.15314"
	x2="545.7598"
	y2="81.30359" />
<line
	class="arc2"
	id="link94_@2_95"
	x1="550.93005"
	y1="71.15314"
	x2="554.9107"
	y2="61.921753" />
<line
	class="arc2"
	id="link124_@2_126"
	x1="541.39056"
	y1="360.6694"
	x2="545.3713"
	y2="351.43805" />
<line
	class="arc0"
	id="link124_@0_125"
	x1="541.39056"
	y1="360.6694"
	x2="580.91693"
	y2="456.80743" />
<line
	class="arc1"
	id="link95_@1_89"
	x1="554.9107"
	y1="61.921753"
	x2="553.7212"
	y2="62.840942" />
<line
	class="arc0"
	id="link126_@0_127"
	x1="545.3713"
	y1="351.43805"
	x2="584.8976"
	y2="447.57608" />
<line
	class="arc2"
	id="link93_@2_87"
	x1="545.7598"
	y1="81.30359"
	x2="544.5704"
	y2="82.22284" />
<line
	class="arc2"
	id="link89_@2_88"
	x1="553.7212"
	y1="62.840942"
	x2="548.5511"
	y2="72.991516" />
<line
	class="arc0"
	id="link89_@0_83"
	x1="553.7212"
	y1="62.840942"
	x2="642.3369"
	y2="69.82959" />
<line
	class="arc1"
	id="link87_@1_88"
	x1="544.5704"
	y1="82.22284"
	x2="548.5511"
	y2="72.991516" />
<line
	class="arc1"
	id="link123_@1_125"
	x1="580.91693"
	y1="475.72076"
	x2="580.91693"
	y2="456.80743" />
<line
	class="arc2"
	id="link123_@2_121"
	x1="580.91693"
	y1="475.72076"
	x2="584.8976"
	y2="485.40274" />
<line
	class="arc1"
	id="link121_@1_135"
	x1="584.8976"
	y1="485.40274"
	x2="592.8589"
	y2="485.85336" />
<line
	class="arc2"
	id="link125_@2_127"
	x1="580.91693"
	y1="456.80743"
	x2="584.8976"
	y2="447.57608" />
<line
	class="arc0"
	id="link88_@0_82"
	x1="548.5511"
	y1="72.991516"
	x2="638.35626"
	y2="79.060974" />
<line
	class="arc1"
	id="link127_@1_129"
	x1="584.8976"
	y1="447.57608"
	x2="592.8589"
	y2="448.02667" />
<line
	class="arc2"
	id="link135_@2_133"
	x1="592.8589"
	y1="485.85336"
	x2="596.8396"
	y2="476.62195" />
<line
	class="arc0"
	id="link135_@0_134"
	x1="592.8589"
	y1="485.85336"
	x2="632.38525"
	y2="581.99133" />
<line
	class="arc2"
	id="link129_@2_131"
	x1="592.8589"
	y1="448.02667"
	x2="596.8396"
	y2="457.70865" />
<line
	class="arc0"
	id="link129_@0_128"
	x1="592.8589"
	y1="448.02667"
	x2="632.38525"
	y2="356.36298" />
<polygon
	points="596.8396,476.62195 636.3659,572.75995 644.3272,563.7539 644.3272,375.95227 636.3659,366.04498 596.8396,457.70865 "
	id="face_132_41_42_130_131_133"
	style="fill:rgb(192,192,192);stroke:none"
	opacity="1.0" />
<line
	class="arc1"
	id="link133_@1_131"
	x1="596.8396"
	y1="476.62195"
	x2="596.8396"
	y2="457.70865" />
<line
	class="arc0"
	id="link133_@0_132"
	x1="596.8396"
	y1="476.62195"
	x2="636.3659"
	y2="572.75995" />
<line
	class="arc0"
	id="link131_@0_130"
	x1="596.8396"
	y1="457.70865"
	x2="636.3659"
	y2="366.04498" />
<line
	class="arc1"
	id="link40_@1_134"
	x1="634.37555"
	y1="596.289"
	x2="632.38525"
	y2="581.99133" />
<line
	class="arc2"
	id="link40_@2_8"
	x1="634.37555"
	y1="596.289"
	x2="640.3466"
	y2="601.3553" />
<line
	class="arc2"
	id="link134_@2_132"
	x1="632.38525"
	y1="581.99133"
	x2="636.3659"
	y2="572.75995" />
<line
	class="arc1"
	id="link8_@1_9"
	x1="640.3466"
	y1="601.3553"
	x2="652.2886"
	y2="602.0312" />
<line
	class="arc1"
	id="link132_@1_41"
	x1="636.3659"
	y1="572.75995"
	x2="644.3272"
	y2="563.7539" />
<line
	class="arc2"
	id="link41_@2_46"
	x1="644.3272"
	y1="563.7539"
	x2="648.30786"
	y2="563.9792" />
<line
	class="arc0"
	id="link41_@0_42"
	x1="644.3272"
	y1="563.7539"
	x2="644.3272"
	y2="375.95227" />
<line
	class="arc2"
	id="link9_@2_45"
	x1="652.2886"
	y1="602.0312"
	x2="658.2596"
	y2="597.6408" />
<line
	class="arc0"
	id="link9_@0_4"
	x1="652.2886"
	y1="602.0312"
	x2="757.6042"
	y2="606.019" />
<polygon
	points="648.30786,563.9792 648.30786,376.17755 656.2692,367.1715 695.79553,463.30954 695.79553,482.22284 656.2692,573.8865 "
	id="face_47_146_147_149_148_46"
	style="fill:rgb(192,192,192);stroke:none"
	opacity="1.0" />
<line
	class="arc1"
	id="link46_@1_148"
	x1="648.30786"
	y1="563.9792"
	x2="656.2692"
	y2="573.8865" />
<line
	class="arc0"
	id="link46_@0_47"
	x1="648.30786"
	y1="563.9792"
	x2="648.30786"
	y2="376.17755" />
<polygon
	points="658.2596,597.6408 750.4437,601.8719 747.2639,588.4934 707.73755,492.35544 699.77625,491.90482 660.2499,583.5685 "
	id="face_50_136_137_151_150_45"
	style="fill:rgb(192,192,192);stroke:none"
	opacity="1.0" />
<line
	class="arc1"
	id="link45_@1_150"
	x1="658.2596"
	y1="597.6408"
	x2="660.2499"
	y2="583.5685" />
<line
	class="arc0"
	id="link45_@0_50"
	x1="658.2596"
	y1="597.6408"
	x2="750.4437"
	y2="601.8719" />
<line
	class="arc2"
	id="link148_@2_150"
	x1="656.2692"
	y1="573.8865"
	x2="660.2499"
	y2="583.5685" />
<line
	class="arc0"
	id="link148_@0_149"
	x1="656.2692"
	y1="573.8865"
	x2="695.79553"
	y2="482.22284" />
<line
	class="arc0"
	id="link150_@0_151"
	x1="660.2499"
	y1="583.5685"
	x2="699.77625"
	y2="491.90482" />
<line
	class="arc1"
	id="link128_@1_43"
	x1="632.38525"
	y1="356.36298"
	x2="634.37555"
	y2="342.29065" />
<line
	class="arc2"
	id="link128_@2_130"
	x1="632.38525"
	y1="356.36298"
	x2="636.3659"
	y2="366.04498" />
<line
	class="arc1"
	id="link130_@1_42"
	x1="636.3659"
	y1="366.04498"
	x2="644.3272"
	y2="375.95227" />
<line
	class="arc2"
	id="link43_@2_44"
	x1="634.37555"
	y1="342.29065"
	x2="640.3466"
	y2="337.90027" />
<line
	class="arc2"
	id="link42_@2_47"
	x1="644.3272"
	y1="375.95227"
	x2="648.30786"
	y2="376.17755" />
<line
	class="arc1"
	id="link44_@1_49"
	x1="640.3466"
	y1="337.90027"
	x2="652.2886"
	y2="338.57617" />
<line
	class="arc3"
	id="link44_@3_78"
	x1="640.3466"
	y1="337.90027"
	x2="642.3369"
	y2="323.8279" />
<line
	class="arc1"
	id="link79_@1_80"
	x1="638.35626"
	y1="314.14597"
	x2="642.3369"
	y2="304.91458" />
<line
	class="arc2"
	id="link79_@2_78"
	x1="638.35626"
	y1="314.14597"
	x2="642.3369"
	y2="323.8279" />
<line
	class="arc1"
	id="link47_@1_146"
	x1="648.30786"
	y1="376.17755"
	x2="656.2692"
	y2="367.1715" />
<line
	class="arc1"
	id="link78_@1_72"
	x1="642.3369"
	y1="323.8279"
	x2="650.2982"
	y2="324.27853" />
<line
	class="arc2"
	id="link80_@2_74"
	x1="642.3369"
	y1="304.91458"
	x2="650.2982"
	y2="305.36517" />
<line
	class="arc0"
	id="link80_@0_81"
	x1="642.3369"
	y1="304.91458"
	x2="642.3369"
	y2="88.74286" />
<line
	class="arc2"
	id="link49_@2_48"
	x1="652.2886"
	y1="338.57617"
	x2="658.2596"
	y2="343.6425" />
<line
	class="arc3"
	id="link49_@3_72"
	x1="652.2886"
	y1="338.57617"
	x2="650.2982"
	y2="324.27853" />
<line
	class="arc0"
	id="link49_@0_54"
	x1="652.2886"
	y1="338.57617"
	x2="757.6042"
	y2="342.56403" />
<line
	class="arc2"
	id="link72_@2_73"
	x1="650.2982"
	y1="324.27853"
	x2="654.2789"
	y2="315.04718" />
<line
	class="arc0"
	id="link72_@0_66"
	x1="650.2982"
	y1="324.27853"
	x2="759.59454"
	y2="328.49167" />
<line
	class="arc2"
	id="link146_@2_144"
	x1="656.2692"
	y1="367.1715"
	x2="660.2499"
	y2="357.94012" />
<line
	class="arc0"
	id="link146_@0_147"
	x1="656.2692"
	y1="367.1715"
	x2="695.79553"
	y2="463.30954" />
<polygon
	points="650.2982,305.36517 650.2982,89.19348 654.2789,79.96222 754.4244,84.64386 758.405,94.325745 758.405,310.4975 754.4244,319.72888 654.2789,315.04718 "
	id="face_75_76_70_69_68_67_73_74"
	style="fill:rgb(192,192,192);stroke:none"
	opacity="1.0" />
<line
	class="arc1"
	id="link74_@1_73"
	x1="650.2982"
	y1="305.36517"
	x2="654.2789"
	y2="315.04718" />
<line
	class="arc0"
	id="link74_@0_75"
	x1="650.2982"
	y1="305.36517"
	x2="650.2982"
	y2="89.19348" />
<polygon
	points="658.2596,343.6425 750.4437,347.87357 747.2639,362.86508 707.73755,454.52878 699.77625,454.07816 660.2499,357.94012 "
	id="face_53_142_143_145_144_48"
	style="fill:rgb(192,192,192);stroke:none"
	opacity="1.0" />
<line
	class="arc1"
	id="link48_@1_144"
	x1="658.2596"
	y1="343.6425"
	x2="660.2499"
	y2="357.94012" />
<line
	class="arc0"
	id="link48_@0_53"
	x1="658.2596"
	y1="343.6425"
	x2="750.4437"
	y2="347.87357" />
<line
	class="arc0"
	id="link73_@0_67"
	x1="654.2789"
	y1="315.04718"
	x2="754.4244"
	y2="319.72888" />
<line
	class="arc0"
	id="link144_@0_145"
	x1="660.2499"
	y1="357.94012"
	x2="699.77625"
	y2="454.07816" />
<line
	class="arc1"
	id="link82_@1_81"
	x1="638.35626"
	y1="79.060974"
	x2="642.3369"
	y2="88.74286" />
<line
	class="arc2"
	id="link82_@2_83"
	x1="638.35626"
	y1="79.060974"
	x2="642.3369"
	y2="69.82959" />
<line
	class="arc2"
	id="link81_@2_75"
	x1="642.3369"
	y1="88.74286"
	x2="650.2982"
	y2="89.19348" />
<line
	class="arc1"
	id="link149_@1_147"
	x1="695.79553"
	y1="482.22284"
	x2="695.79553"
	y2="463.30954" />
<line
	class="arc2"
	id="link149_@2_151"
	x1="695.79553"
	y1="482.22284"
	x2="699.77625"
	y2="491.90482" />
<line
	class="arc1"
	id="link83_@1_77"
	x1="642.3369"
	y1="69.82959"
	x2="650.2982"
	y2="70.28027" />
<line
	class="arc2"
	id="link147_@2_145"
	x1="695.79553"
	y1="463.30954"
	x2="699.77625"
	y2="454.07816" />
<line
	class="arc1"
	id="link151_@1_137"
	x1="699.77625"
	y1="491.90482"
	x2="707.73755"
	y2="492.35544" />
<line
	class="arc1"
	id="link5_@1_4"
	x1="768.7453"
	y1="600.93475"
	x2="757.6042"
	y2="606.019" />
<line
	class="arc2"
	id="link5_@2_55"
	x1="768.7453"
	y1="600.93475"
	x2="772.72595"
	y2="591.70337" />
<line
	class="arc1"
	id="link75_@1_76"
	x1="650.2982"
	y1="89.19348"
	x2="654.2789"
	y2="79.96222" />
<line
	class="arc1"
	id="link145_@1_143"
	x1="699.77625"
	y1="454.07816"
	x2="707.73755"
	y2="454.52878" />
<line
	class="arc2"
	id="link4_@2_50"
	x1="757.6042"
	y1="606.019"
	x2="750.4437"
	y2="601.8719" />
<line
	class="arc1"
	id="link55_@1_56"
	x1="772.72595"
	y1="591.70337"
	x2="769.54626"
	y2="578.3249" />
<line
	class="arc2"
	id="link77_@2_76"
	x1="650.2982"
	y1="70.28027"
	x2="654.2789"
	y2="79.96222" />
<line
	class="arc0"
	id="link77_@0_71"
	x1="650.2982"
	y1="70.28027"
	x2="759.59454"
	y2="74.493286" />
<line
	class="arc2"
	id="link137_@2_139"
	x1="707.73755"
	y1="492.35544"
	x2="711.7182"
	y2="483.12402" />
<line
	class="arc0"
	id="link137_@0_136"
	x1="707.73755"
	y1="492.35544"
	x2="747.2639"
	y2="588.4934" />
<line
	class="arc0"
	id="link76_@0_70"
	x1="654.2789"
	y1="79.96222"
	x2="754.4244"
	y2="84.64386" />
<polygon
	points="711.7182,483.12402 751.2445,579.262 762.3857,574.1778 762.3857,376.91953 751.2445,372.5471 711.7182,464.21072 "
	id="face_138_51_52_140_141_139"
	style="fill:rgb(192,192,192);stroke:none"
	opacity="1.0" />
<line
	class="arc1"
	id="link139_@1_141"
	x1="711.7182"
	y1="483.12402"
	x2="711.7182"
	y2="464.21072" />
<line
	class="arc0"
	id="link139_@0_138"
	x1="711.7182"
	y1="483.12402"
	x2="751.2445"
	y2="579.262" />
<line
	class="arc2"
	id="link143_@2_141"
	x1="707.73755"
	y1="454.52878"
	x2="711.7182"
	y2="464.21072" />
<line
	class="arc0"
	id="link143_@0_142"
	x1="707.73755"
	y1="454.52878"
	x2="747.2639"
	y2="362.86508" />
<line
	class="arc0"
	id="link141_@0_140"
	x1="711.7182"
	y1="464.21072"
	x2="751.2445"
	y2="372.5471" />
<line
	class="arc1"
	id="link50_@1_136"
	x1="750.4437"
	y1="601.8719"
	x2="747.2639"
	y2="588.4934" />
<line
	class="arc2"
	id="link56_@2_51"
	x1="769.54626"
	y1="578.3249"
	x2="762.3857"
	y2="574.1778" />
<line
	class="arc0"
	id="link56_@0_57"
	x1="769.54626"
	y1="578.3249"
	x2="769.54626"
	y2="371.60992" />
<line
	class="arc1"
	id="link51_@1_138"
	x1="762.3857"
	y1="574.1778"
	x2="751.2445"
	y2="579.262" />
<line
	class="arc0"
	id="link51_@0_52"
	x1="762.3857"
	y1="574.1778"
	x2="762.3857"
	y2="376.91953" />
<line
	class="arc2"
	id="link136_@2_138"
	x1="747.2639"
	y1="588.4934"
	x2="751.2445"
	y2="579.262" />
<line
	class="arc1"
	id="link59_@1_54"
	x1="768.7453"
	y1="346.9364"
	x2="757.6042"
	y2="342.56403" />
<line
	class="arc2"
	id="link59_@2_58"
	x1="768.7453"
	y1="346.9364"
	x2="772.72595"
	y2="356.61838" />
<line
	class="arc3"
	id="link59_@3_60"
	x1="768.7453"
	y1="346.9364"
	x2="768.7453"
	y2="328.02307" />
<line
	class="arc1"
	id="link58_@1_57"
	x1="772.72595"
	y1="356.61838"
	x2="769.54626"
	y2="371.60992" />
<line
	class="arc1"
	id="link60_@1_66"
	x1="768.7453"
	y1="328.02307"
	x2="759.59454"
	y2="328.49167" />
<line
	class="arc2"
	id="link60_@2_61"
	x1="768.7453"
	y1="328.02307"
	x2="772.72595"
	y2="318.79172" />
<line
	class="arc2"
	id="link54_@2_53"
	x1="757.6042"
	y1="342.56403"
	x2="750.4437"
	y2="347.87357" />
<line
	class="arc3"
	id="link54_@3_66"
	x1="757.6042"
	y1="342.56403"
	x2="759.59454"
	y2="328.49167" />
<line
	class="arc1"
	id="link61_@1_62"
	x1="772.72595"
	y1="318.79172"
	x2="767.55585"
	y2="310.02893" />
<line
	class="arc2"
	id="link66_@2_67"
	x1="759.59454"
	y1="328.49167"
	x2="754.4244"
	y2="319.72888" />
<line
	class="arc2"
	id="link57_@2_52"
	x1="769.54626"
	y1="371.60992"
	x2="762.3857"
	y2="376.91953" />
<line
	class="arc1"
	id="link53_@1_142"
	x1="750.4437"
	y1="347.87357"
	x2="747.2639"
	y2="362.86508" />
<line
	class="arc2"
	id="link62_@2_68"
	x1="767.55585"
	y1="310.02893"
	x2="758.405"
	y2="310.4975" />
<line
	class="arc0"
	id="link62_@0_63"
	x1="767.55585"
	y1="310.02893"
	x2="767.55585"
	y2="93.85718" />
<line
	class="arc1"
	id="link67_@1_68"
	x1="754.4244"
	y1="319.72888"
	x2="758.405"
	y2="310.4975" />
<line
	class="arc1"
	id="link52_@1_140"
	x1="762.3857"
	y1="376.91953"
	x2="751.2445"
	y2="372.5471" />
<line
	class="arc0"
	id="link68_@0_69"
	x1="758.405"
	y1="310.4975"
	x2="758.405"
	y2="94.325745" />
<line
	class="arc2"
	id="link142_@2_140"
	x1="747.2639"
	y1="362.86508"
	x2="751.2445"
	y2="372.5471" />
<line
	class="arc1"
	id="link65_@1_71"
	x1="768.7453"
	y1="74.02472"
	x2="759.59454"
	y2="74.493286" />
<line
	class="arc2"
	id="link65_@2_64"
	x1="768.7453"
	y1="74.02472"
	x2="772.72595"
	y2="83.706726" />
<line
	class="arc1"
	id="link64_@1_63"
	x1="772.72595"
	y1="83.706726"
	x2="767.55585"
	y2="93.85718" />
<line
	class="arc2"
	id="link71_@2_70"
	x1="759.59454"
	y1="74.493286"
	x2="754.4244"
	y2="84.64386" />
<line
	class="arc2"
	id="link63_@2_69"
	x1="767.55585"
	y1="93.85718"
	x2="758.405"
	y2="94.325745" />
<line
	class="arc1"
	id="link70_@1_69"
	x1="754.4244"
	y1="84.64386"
	x2="758.405"
	y2="94.325745" />
</svg>
