<?xml version="1.0" encoding="UTF-8" standalone="no"?>
<!-- Created with Jerboa -->

<svg
   width="579.9176"
   height="533.68799"
   version="1.1"
   id="svg1"
   sodipodi:docname="build-init-v3-3.svg"
   inkscape:version="1.3.2 (091e20ef0f, 2023-11-25, custom)"
   xmlns:inkscape="http://www.inkscape.org/namespaces/inkscape"
   xmlns:sodipodi="http://sodipodi.sourceforge.net/DTD/sodipodi-0.dtd"
   xmlns="http://www.w3.org/2000/svg"
   xmlns:svg="http://www.w3.org/2000/svg">
  <defs
     id="defs1" />
  <sodipodi:namedview
     id="namedview1"
     pagecolor="#ffffff"
     bordercolor="#000000"
     borderopacity="0.25"
     inkscape:showpageshadow="2"
     inkscape:pageopacity="0.0"
     inkscape:pagecheckerboard="0"
     inkscape:deskcolor="#d1d1d1"
     showgrid="false"
     inkscape:zoom="0.87677054"
     inkscape:cx="285.13732"
     inkscape:cy="235.52342"
     inkscape:window-width="1892"
     inkscape:window-height="1034"
     inkscape:window-x="9"
     inkscape:window-y="27"
     inkscape:window-maximized="1"
     inkscape:current-layer="svg1" />
  <style
     id="style">
		.arc0 {
			fill:none;
			fill-rule:evenodd;
			stroke:black;
			stroke-width:4;
			stroke-linecap:round;
			stroke-linejoin:round;
			stroke-opacity:1;
		}
		.arc1 {
			fill:none;
			fill-rule:evenodd;
			stroke:red;
			stroke-width:4;
			stroke-linecap:round;
			stroke-linejoin:round;
			stroke-opacity:1;
		}
		.arc2 {
			fill:none;
			fill-rule:evenodd;
			stroke:blue;
			stroke-width:4;
			stroke-linecap:round;
			stroke-linejoin:round;
			stroke-opacity:1;
		}
		.arc3 {
			fill:none;
			fill-rule:evenodd;
			stroke:green;
			stroke-width:4;
			stroke-linecap:round;
			stroke-linejoin:round;
			stroke-opacity:1;
		}
		.topological-dart {
			fill:#000000;
			stroke:#000000;
			stroke-width:0;
			stroke-linecap:round;
			stroke-linejoin:round;
			stroke-dasharray:none;
			paint-order:markers fill stroke;
		}
	</style>
  <g
     id="g1"
     transform="translate(0,61.760562)">
    <polygon
       points="971.8562,513.38074 670.2686,496.31097 657.0753,479.89288 657.0753,121.65936 670.2686,106.73468 976.1401,123.22955 989.33344,139.64761 985.04956,498.45612 "
       id="face_20_21_16_15_14_13_18_19"
       style="fill:#c0c0c0;stroke:none"
       opacity="1"
       transform="translate(-420.32523,-90.213257)" />
    <line
       class="arc1"
       id="link19_@1_18"
       x1="236.75009"
       y1="389.67963"
       x2="249.94339"
       y2="406.09772" />
    <line
       class="arc2"
       id="link19_@2_24"
       x1="236.75009"
       y1="389.67963"
       x2="214.98898"
       y2="390.08279" />
    <line
       class="arc0"
       id="link19_@0_20"
       x1="236.75009"
       y1="389.67963"
       x2="236.75009"
       y2="31.446106" />
    <polygon
       points="430.8931,523.40234 626.74634,497.11725 635.3142,480.29605 635.3142,122.0625 626.74634,107.54102 430.8931,133.82605 422.32523,150.64731 422.32523,508.88086 "
       id="face_25_26_31_30_29_28_23_24"
       style="fill:#c0c0c0;stroke:none"
       opacity="1"
       transform="translate(-420.32523,-90.213257)" />
    <line
       class="arc1"
       id="link24_@1_23"
       x1="214.98898"
       y1="390.08279"
       x2="206.42111"
       y2="406.90399" />
    <line
       class="arc0"
       id="link24_@0_25"
       x1="214.98898"
       y1="390.08279"
       x2="214.98898"
       y2="31.849243" />
    <line
       class="arc2"
       id="link18_@2_0"
       x1="249.94339"
       y1="406.09772"
       x2="241.37558"
       y2="422.91895" />
    <line
       class="arc0"
       id="link18_@0_13"
       x1="249.94339"
       y1="406.09772"
       x2="551.53101"
       y2="423.16748" />
    <line
       class="arc2"
       id="link23_@2_1"
       x1="206.42111"
       y1="406.90399"
       x2="219.61441"
       y2="423.32208" />
    <line
       class="arc0"
       id="link23_@0_28"
       x1="206.42111"
       y1="406.90399"
       x2="10.567871"
       y2="433.18909" />
    <polygon
       points="444.08643,539.82043 639.93964,513.53534 661.7008,513.1322 963.2884,530.2019 967.91394,532.0985 772.06067,558.3836 750.2994,558.78674 448.71185,541.71704 "
       id="face_7_6_5_4_3_2_1_0"
       style="fill:#c0c0c0;stroke:none"
       opacity="1"
       transform="translate(-420.32523,-90.213257)" />
    <line
       class="arc1"
       id="link0_@1_1"
       x1="241.37558"
       y1="422.91895"
       x2="219.61441"
       y2="423.32208" />
    <line
       class="arc0"
       id="link0_@0_7"
       x1="241.37558"
       y1="422.91895"
       x2="542.96313"
       y2="439.98865" />
    <line
       class="arc0"
       id="link1_@0_2"
       x1="219.61441"
       y1="423.32208"
       x2="23.7612"
       y2="449.60718" />
    <line
       class="arc1"
       id="link20_@1_21"
       x1="236.75009"
       y1="31.446106"
       x2="249.94339"
       y2="16.521423" />
    <line
       class="arc2"
       id="link20_@2_25"
       x1="236.75009"
       y1="31.446106"
       x2="214.98898"
       y2="31.849243" />
    <line
       class="arc1"
       id="link25_@1_26"
       x1="214.98898"
       y1="31.849243"
       x2="206.42111"
       y2="17.327766" />
    <line
       class="arc2"
       id="link21_@2_22"
       x1="249.94339"
       y1="16.521423"
       x2="241.37558"
       y2="2" />
    <line
       class="arc0"
       id="link21_@0_16"
       x1="249.94339"
       y1="16.521423"
       x2="555.81482"
       y2="33.016296" />
    <line
       class="arc2"
       id="link26_@2_27"
       x1="206.42111"
       y1="17.327766"
       x2="219.61441"
       y2="2.4031982" />
    <line
       class="arc0"
       id="link26_@0_31"
       x1="206.42111"
       y1="17.327766"
       x2="10.567871"
       y2="43.612793" />
    <polygon
       points="741.7316,139.0177 448.71185,120.7981 444.08643,118.90149 639.93964,92.616455 661.7008,92.21326 971.8562,108.13312 980.7657,109.45483 896.37384,110.14429 759.2089,139.18951 "
       id="face_17_12_50_49_47_42_37_32_27_22"
       style="fill:#c0c0c0;stroke:none"
       opacity="1"
       transform="translate(-420.32523,-90.213257)" />
    <line
       class="arc1"
       id="link22_@1_27"
       x1="241.37558"
       y1="2"
       x2="219.61441"
       y2="2.4031982" />
    <line
       class="arc0"
       id="link22_@0_17"
       x1="241.37558"
       y1="2"
       x2="551.53101"
       y2="17.919861" />
    <line
       class="arc0"
       id="link27_@0_32"
       x1="219.61441"
       y1="2.4031982"
       x2="23.7612"
       y2="28.688232" />
    <line
       class="arc1"
       id="link13_@1_14"
       x1="551.53101"
       y1="423.16748"
       x2="564.72437"
       y2="408.24286" />
    <line
       class="arc2"
       id="link13_@2_7"
       x1="551.53101"
       y1="423.16748"
       x2="542.96313"
       y2="439.98865" />
    <line
       class="arc2"
       id="link14_@2_9"
       x1="564.72437"
       y1="408.24286"
       x2="569.34973"
       y2="410.13947" />
    <line
       class="arc0"
       id="link14_@0_15"
       x1="564.72437"
       y1="408.24286"
       x2="569.00818"
       y2="49.434357" />
    <line
       class="arc1"
       id="link7_@1_6"
       x1="542.96313"
       y1="439.98865"
       x2="547.58875"
       y2="441.88525" />
    <line
       class="arc1"
       id="link16_@1_15"
       x1="555.81482"
       y1="33.016296"
       x2="569.00818"
       y2="49.434357" />
    <line
       class="arc2"
       id="link16_@2_17"
       x1="555.81482"
       y1="33.016296"
       x2="551.53101"
       y2="17.919861" />
    <polygon
       points="768.1183,171.85388 776.68604,528.93756 785.25385,543.459 981.1071,517.17395 989.6749,500.35272 998.2428,140.9693 993.95886,125.87286 896.37384,110.14429 772.4021,155.60751 "
       id="face_10_11_51_48_46_45_44_43_8_9"
       style="fill:#c0c0c0;stroke:none"
       opacity="1"
       transform="translate(-420.32523,-90.213257)" />
    <line
       class="arc1"
       id="link9_@1_8"
       x1="569.34973"
       y1="410.13947"
       x2="560.78186"
       y2="426.96069" />
    <line
       class="arc0"
       id="link9_@0_10"
       x1="569.34973"
       y1="410.13947"
       x2="577.9176"
       y2="50.756042" />
    <line
       class="arc2"
       id="link6_@2_8"
       x1="547.58875"
       y1="441.88525"
       x2="560.78186"
       y2="426.96069" />
    <line
       class="arc0"
       id="link6_@0_5"
       x1="547.58875"
       y1="441.88525"
       x2="351.73544"
       y2="468.17035" />
    <line
       class="arc2"
       id="link15_@2_10"
       x1="569.00818"
       y1="49.434357"
       x2="577.9176"
       y2="50.756042" />
    <line
       class="arc1"
       id="link17_@1_12"
       x1="551.53101"
       y1="17.919861"
       x2="560.44043"
       y2="19.24157" />
    <line
       class="arc0"
       id="link8_@0_43"
       x1="560.78186"
       y1="426.96069"
       x2="364.92862"
       y2="453.24573" />
    <line
       class="arc1"
       id="link10_@1_11"
       x1="577.9176"
       y1="50.756042"
       x2="573.63367"
       y2="35.659607" />
    <line
       class="arc2"
       id="link12_@2_11"
       x1="560.44043"
       y1="19.24157"
       x2="573.63367"
       y2="35.659607" />
    <line
       class="arc0"
       id="link12_@0_50"
       x1="560.44043"
       y1="19.24157"
       x2="476.04861"
       y2="19.93103" />
    <line
       class="arc0"
       id="link11_@0_51"
       x1="573.63367"
       y1="35.659607"
       x2="476.04861"
       y2="19.93103" />
    <line
       class="arc1"
       id="link28_@1_29"
       x1="10.567871"
       y1="433.18909"
       x2="2"
       y2="418.6676" />
    <line
       class="arc2"
       id="link28_@2_2"
       x1="10.567871"
       y1="433.18909"
       x2="23.7612"
       y2="449.60718" />
    <line
       class="arc1"
       id="link2_@1_3"
       x1="23.7612"
       y1="449.60718"
       x2="28.386627"
       y2="451.50378" />
    <line
       class="arc2"
       id="link29_@2_34"
       x1="2"
       y1="418.6676"
       x2="6.6255188"
       y2="420.56421" />
    <line
       class="arc0"
       id="link29_@0_30"
       x1="2"
       y1="418.6676"
       x2="2"
       y2="60.434052" />
    <line
       class="arc2"
       id="link3_@2_33"
       x1="28.386627"
       y1="451.50378"
       x2="19.818817"
       y2="436.9823" />
    <line
       class="arc0"
       id="link3_@0_4"
       x1="28.386627"
       y1="451.50378"
       x2="329.97415"
       y2="468.57349" />
    <line
       class="arc1"
       id="link31_@1_30"
       x1="10.567871"
       y1="43.612793"
       x2="2"
       y2="60.434052" />
    <line
       class="arc2"
       id="link31_@2_32"
       x1="10.567871"
       y1="43.612793"
       x2="23.7612"
       y2="28.688232" />
    <polygon
       points="741.7316,544.26526 440.14404,527.19556 426.95074,510.77747 426.95074,152.54391 440.14404,137.61926 737.4477,155.26398 750.64105,171.68207 754.925,529.3407 "
       id="face_35_36_41_40_39_38_33_34"
       style="fill:#c0c0c0;stroke:none"
       opacity="1"
       transform="translate(-420.32523,-90.213257)" />
    <line
       class="arc1"
       id="link34_@1_33"
       x1="6.6255188"
       y1="420.56421"
       x2="19.818817"
       y2="436.9823" />
    <line
       class="arc0"
       id="link34_@0_35"
       x1="6.6255188"
       y1="420.56421"
       x2="6.6255188"
       y2="62.330658" />
    <line
       class="arc1"
       id="link32_@1_37"
       x1="23.7612"
       y1="28.688232"
       x2="28.386627"
       y2="30.584846" />
    <line
       class="arc0"
       id="link33_@0_38"
       x1="19.818817"
       y1="436.9823"
       x2="321.4064"
       y2="454.052" />
    <line
       class="arc2"
       id="link30_@2_35"
       x1="2"
       y1="60.434052"
       x2="6.6255188"
       y2="62.330658" />
    <line
       class="arc2"
       id="link37_@2_36"
       x1="28.386627"
       y1="30.584846"
       x2="19.818817"
       y2="47.406006" />
    <line
       class="arc0"
       id="link37_@0_42"
       x1="28.386627"
       y1="30.584846"
       x2="321.4064"
       y2="48.804443" />
    <line
       class="arc1"
       id="link35_@1_36"
       x1="6.6255188"
       y1="62.330658"
       x2="19.818817"
       y2="47.406006" />
    <line
       class="arc0"
       id="link36_@0_41"
       x1="19.818817"
       y1="47.406006"
       x2="317.12247"
       y2="65.05072" />
    <line
       class="arc1"
       id="link48_@1_51"
       x1="476.04861"
       y1="19.93103"
       x2="476.04861"
       y2="19.93103" />
    <line
       class="arc2"
       id="link48_@2_49"
       x1="476.04861"
       y1="19.93103"
       x2="476.04861"
       y2="19.93103" />
    <line
       class="arc0"
       id="link48_@0_46"
       x1="476.04861"
       y1="19.93103"
       x2="352.07687"
       y2="65.394257" />
    <line
       class="arc1"
       id="link49_@1_50"
       x1="476.04861"
       y1="19.93103"
       x2="476.04861"
       y2="19.93103" />
    <line
       class="arc0"
       id="link49_@0_47"
       x1="476.04861"
       y1="19.93103"
       x2="338.8837"
       y2="48.976257" />
    <line
       class="arc2"
       id="link50_@2_51"
       x1="476.04861"
       y1="19.93103"
       x2="476.04861"
       y2="19.93103" />
    <line
       class="arc1"
       id="link5_@1_4"
       x1="351.73544"
       y1="468.17035"
       x2="329.97415"
       y2="468.57349" />
    <line
       class="arc2"
       id="link5_@2_43"
       x1="351.73544"
       y1="468.17035"
       x2="364.92862"
       y2="453.24573" />
    <line
       class="arc2"
       id="link4_@2_38"
       x1="329.97415"
       y1="468.57349"
       x2="321.4064"
       y2="454.052" />
    <line
       class="arc1"
       id="link43_@1_44"
       x1="364.92862"
       y1="453.24573"
       x2="356.36081"
       y2="438.7243" />
    <line
       class="arc1"
       id="link38_@1_39"
       x1="321.4064"
       y1="454.052"
       x2="334.59976"
       y2="439.12744" />
    <line
       class="arc2"
       id="link44_@2_39"
       x1="356.36081"
       y1="438.7243"
       x2="334.59976"
       y2="439.12744" />
    <line
       class="arc0"
       id="link44_@0_45"
       x1="356.36081"
       y1="438.7243"
       x2="347.79306"
       y2="81.640625" />
    <line
       class="arc0"
       id="link39_@0_40"
       x1="334.59976"
       y1="439.12744"
       x2="330.31583"
       y2="81.468811" />
    <line
       class="arc1"
       id="link42_@1_47"
       x1="321.4064"
       y1="48.804443"
       x2="338.8837"
       y2="48.976257" />
    <line
       class="arc2"
       id="link42_@2_41"
       x1="321.4064"
       y1="48.804443"
       x2="317.12247"
       y2="65.05072" />
    <line
       class="arc2"
       id="link47_@2_46"
       x1="338.8837"
       y1="48.976257"
       x2="352.07687"
       y2="65.394257" />
    <line
       class="arc1"
       id="link41_@1_40"
       x1="317.12247"
       y1="65.05072"
       x2="330.31583"
       y2="81.468811" />
    <line
       class="arc1"
       id="link46_@1_45"
       x1="352.07687"
       y1="65.394257"
       x2="347.79306"
       y2="81.640625" />
    <line
       class="arc2"
       id="link40_@2_45"
       x1="330.31583"
       y1="81.468811"
       x2="347.79306"
       y2="81.640625" />
  </g>
</svg>
