<?xml version="1.0" encoding="UTF-8" standalone="no"?>
<!-- Created with Jerboa -->

<svg
	width="1412"
	height="651" >
	<style id="style">
		.arc0 {
			fill:none;
			fill-rule:evenodd;
			stroke:black;
			stroke-width:4;
			stroke-linecap:round;
			stroke-linejoin:round;
			stroke-opacity:1;
		}
		.arc1 {
			fill:none;
			fill-rule:evenodd;
			stroke:red;
			stroke-width:4;
			stroke-linecap:round;
			stroke-linejoin:round;
			stroke-opacity:1;
		}
		.arc2 {
			fill:none;
			fill-rule:evenodd;
			stroke:blue;
			stroke-width:4;
			stroke-linecap:round;
			stroke-linejoin:round;
			stroke-opacity:1;
		}
		.arc3 {
			fill:none;
			fill-rule:evenodd;
			stroke:green;
			stroke-width:4;
			stroke-linecap:round;
			stroke-linejoin:round;
			stroke-opacity:1;
		}
		.topological-dart {
			fill:#000000;
			stroke:#000000;
			stroke-width:0;
			stroke-linecap:round;
			stroke-linejoin:round;
			stroke-dasharray:none;
			paint-order:markers fill stroke;
		}
	</style>
<polygon
	points="703.44653,545.64435 703.44653,274.72977 713.424,263.44296 941.5,276.352 951.4775,288.7682 951.4775,559.6828 941.5,570.96954 713.424,558.06055 "
	id="face_22_23_18_17_16_15_20_21"
	style="fill:rgb(192,192,192);stroke:none"
	opacity="1.0" />
<line
	class="arc1"
	id="link21_@1_20"
	x1="703.44653"
	y1="545.64435"
	x2="713.424"
	y2="558.06055" />
<line
	class="arc2"
	id="link21_@2_26"
	x1="703.44653"
	y1="545.64435"
	x2="686.9896"
	y2="545.9492" />
<line
	class="arc0"
	id="link21_@0_22"
	x1="703.44653"
	y1="545.64435"
	x2="703.44653"
	y2="274.72977" />
<polygon
	points="686.9896,545.9492 686.9896,275.03464 680.5102,264.0527 527.40717,283.6485 518.4334,302.15414 518.4334,561.2172 527.40717,578.26605 680.5102,558.6703 "
	id="face_27_28_33_32_31_30_25_26"
	style="fill:rgb(192,192,192);stroke:none"
	opacity="1.0" />
<line
	class="arc1"
	id="link26_@1_25"
	x1="686.9896"
	y1="545.9492"
	x2="680.5102"
	y2="558.6703" />
<line
	class="arc0"
	id="link26_@0_27"
	x1="686.9896"
	y1="545.9492"
	x2="686.9896"
	y2="275.03464" />
<line
	class="arc2"
	id="link20_@2_0"
	x1="713.424"
	y1="558.06055"
	x2="706.9445"
	y2="570.7816" />
<line
	class="arc0"
	id="link20_@0_15"
	x1="713.424"
	y1="558.06055"
	x2="941.5"
	y2="570.96954" />
<line
	class="arc2"
	id="link25_@2_1"
	x1="680.5102"
	y1="558.6703"
	x2="690.4877"
	y2="571.0865" />
<line
	class="arc0"
	id="link25_@0_30"
	x1="680.5102"
	y1="558.6703"
	x2="527.40717"
	y2="578.26605" />
<polygon
	points="706.9445,570.7816 935.02057,583.6906 938.51855,585.1249 800.3818,605.56775 786.41925,611.9396 654.4336,606.9419 639.46747,606.0948 533.39954,597.6188 532.39594,590.39984 690.4877,571.0865 "
	id="face_7_6_5_4_9_8_3_2_1_0"
	style="fill:rgb(192,192,192);stroke:none"
	opacity="1.0" />
<line
	class="arc1"
	id="link0_@1_1"
	x1="706.9445"
	y1="570.7816"
	x2="690.4877"
	y2="571.0865" />
<line
	class="arc0"
	id="link0_@0_7"
	x1="706.9445"
	y1="570.7816"
	x2="935.02057"
	y2="583.6906" />
<line
	class="arc0"
	id="link1_@0_2"
	x1="690.4877"
	y1="571.0865"
	x2="532.39594"
	y2="590.39984" />
<line
	class="arc1"
	id="link22_@1_23"
	x1="703.44653"
	y1="274.72977"
	x2="713.424"
	y2="263.44296" />
<line
	class="arc2"
	id="link22_@2_27"
	x1="703.44653"
	y1="274.72977"
	x2="686.9896"
	y2="275.03464" />
<line
	class="arc1"
	id="link27_@1_28"
	x1="686.9896"
	y1="275.03464"
	x2="680.5102"
	y2="264.0527" />
<line
	class="arc2"
	id="link23_@2_24"
	x1="713.424"
	y1="263.44296"
	x2="706.9445"
	y2="252.46112" />
<line
	class="arc0"
	id="link23_@0_18"
	x1="713.424"
	y1="263.44296"
	x2="941.5"
	y2="276.352" />
<line
	class="arc2"
	id="link28_@2_29"
	x1="680.5102"
	y1="264.0527"
	x2="690.4877"
	y2="252.76596" />
<line
	class="arc0"
	id="link28_@0_33"
	x1="680.5102"
	y1="264.0527"
	x2="527.40717"
	y2="283.6485" />
<polygon
	points="706.9445,252.46112 935.02057,265.37015 938.51855,266.80444 800.3818,287.24728 786.41925,281.76767 654.4336,276.76996 639.46747,275.92288 533.39954,267.44684 532.39594,272.0794 690.4877,252.76596 "
	id="face_19_14_59_54_49_44_39_34_29_24"
	style="fill:rgb(192,192,192);stroke:none"
	opacity="1.0" />
<line
	class="arc1"
	id="link24_@1_29"
	x1="706.9445"
	y1="252.46112"
	x2="690.4877"
	y2="252.76596" />
<line
	class="arc3"
	id="link24_@3_102"
	x1="706.9445"
	y1="252.46112"
	x2="707.6052"
	y2="233.98123" />
<line
	class="arc0"
	id="link24_@0_19"
	x1="706.9445"
	y1="252.46112"
	x2="935.02057"
	y2="265.37015" />
<polygon
	points="705.42847,219.29016 712.44476,66.5708 717.0965,60.16815 820.2998,66.0094 829.61664,73.20264 935.5,232.31207 930.8484,238.7146 714.74524,226.48325 "
	id="face_105_118_64_111_110_109_103_104"
	style="fill:rgb(192,192,192);stroke:none"
	opacity="1.0" />
<line
	class="arc1"
	id="link104_@1_103"
	x1="705.42847"
	y1="219.29016"
	x2="714.74524"
	y2="226.48325" />
<line
	class="arc2"
	id="link104_@2_98"
	x1="705.42847"
	y1="219.29016"
	x2="688.97156"
	y2="219.595" />
<line
	class="arc0"
	id="link104_@0_105"
	x1="705.42847"
	y1="219.29016"
	x2="712.44476"
	y2="66.5708" />
<line
	class="arc3"
	id="link29_@3_96"
	x1="690.4877"
	y1="252.76596"
	x2="691.1483"
	y2="234.28604" />
<line
	class="arc0"
	id="link29_@0_34"
	x1="690.4877"
	y1="252.76596"
	x2="532.39594"
	y2="272.0794" />
<line
	class="arc2"
	id="link103_@2_102"
	x1="714.74524"
	y1="226.48325"
	x2="707.6052"
	y2="233.98123" />
<line
	class="arc0"
	id="link103_@0_109"
	x1="714.74524"
	y1="226.48325"
	x2="930.8484"
	y2="238.7146" />
<polygon
	points="688.97156,219.595 705.8621,66.69269 703.93097,60.41205 634.9144,69.29382 627.77435,76.79193 534.5727,239.36469 536.5038,245.6453 681.8315,227.09305 "
	id="face_99_112_106_93_92_91_97_98"
	style="fill:rgb(192,192,192);stroke:none"
	opacity="1.0" />
<line
	class="arc1"
	id="link98_@1_97"
	x1="688.97156"
	y1="219.595"
	x2="681.8315"
	y2="227.09305" />
<line
	class="arc0"
	id="link98_@0_99"
	x1="688.97156"
	y1="219.595"
	x2="705.8621"
	y2="66.69269" />
<polygon
	points="707.6052,233.98123 929.6947,246.55139 933.1928,247.98572 798.94354,267.90683 787.4754,268.494 653.4943,263.3834 643.5169,262.81866 535.4535,254.22968 536.9442,253.07779 691.1483,234.28604 "
	id="face_108_114_60_66_72_78_84_90_96_102"
	style="fill:rgb(192,192,192);stroke:none"
	opacity="1.0" />
<line
	class="arc1"
	id="link102_@1_96"
	x1="707.6052"
	y1="233.98123"
	x2="691.1483"
	y2="234.28604" />
<line
	class="arc0"
	id="link102_@0_108"
	x1="707.6052"
	y1="233.98123"
	x2="929.6947"
	y2="246.55139" />
<line
	class="arc2"
	id="link96_@2_97"
	x1="691.1483"
	y1="234.28604"
	x2="681.8315"
	y2="227.09305" />
<line
	class="arc0"
	id="link96_@0_90"
	x1="691.1483"
	y1="234.28604"
	x2="536.9442"
	y2="253.07779" />
<line
	class="arc0"
	id="link97_@0_91"
	x1="681.8315"
	y1="227.09305"
	x2="536.5038"
	y2="245.6453" />
<line
	class="arc1"
	id="link15_@1_16"
	x1="941.5"
	y1="570.96954"
	x2="951.4775"
	y2="559.6828" />
<line
	class="arc2"
	id="link15_@2_7"
	x1="941.5"
	y1="570.96954"
	x2="935.02057"
	y2="583.6906" />
<line
	class="arc2"
	id="link16_@2_11"
	x1="951.4775"
	y1="559.6828"
	x2="954.97546"
	y2="561.11707" />
<line
	class="arc0"
	id="link16_@0_17"
	x1="951.4775"
	y1="559.6828"
	x2="951.4775"
	y2="288.7682" />
<line
	class="arc1"
	id="link7_@1_6"
	x1="935.02057"
	y1="583.6906"
	x2="938.51855"
	y2="585.1249" />
<line
	class="arc1"
	id="link105_@1_118"
	x1="712.44476"
	y1="66.5708"
	x2="717.0965"
	y2="60.16815" />
<line
	class="arc2"
	id="link105_@2_99"
	x1="712.44476"
	y1="66.5708"
	x2="705.8621"
	y2="66.69269" />
<line
	class="arc1"
	id="link99_@1_112"
	x1="705.8621"
	y1="66.69269"
	x2="703.93097"
	y2="60.41205" />
<polygon
	points="954.97546,561.11707 954.97546,290.20248 948.49603,279.22058 805.3705,299.3811 801.3855,318.1691 801.3855,577.23224 805.3705,593.99866 948.49603,573.83813 "
	id="face_12_13_58_57_56_55_10_11"
	style="fill:rgb(192,192,192);stroke:none"
	opacity="1.0" />
<line
	class="arc1"
	id="link11_@1_10"
	x1="954.97546"
	y1="561.11707"
	x2="948.49603"
	y2="573.83813" />
<line
	class="arc0"
	id="link11_@0_12"
	x1="954.97546"
	y1="561.11707"
	x2="954.97546"
	y2="290.20248" />
<line
	class="arc2"
	id="link6_@2_10"
	x1="938.51855"
	y1="585.1249"
	x2="948.49603"
	y2="573.83813" />
<line
	class="arc0"
	id="link6_@0_5"
	x1="938.51855"
	y1="585.1249"
	x2="800.3818"
	y2="605.56775" />
<line
	class="arc1"
	id="link18_@1_17"
	x1="941.5"
	y1="276.352"
	x2="951.4775"
	y2="288.7682" />
<line
	class="arc2"
	id="link18_@2_19"
	x1="941.5"
	y1="276.352"
	x2="935.02057"
	y2="265.37015" />
<line
	class="arc2"
	id="link118_@2_119"
	x1="717.0965"
	y1="60.16815"
	x2="715.1653"
	y2="53.887634" />
<line
	class="arc0"
	id="link118_@0_64"
	x1="717.0965"
	y1="60.16815"
	x2="820.2998"
	y2="66.0094" />
<line
	class="arc2"
	id="link112_@2_113"
	x1="703.93097"
	y1="60.41205"
	x2="708.5826"
	y2="54.009583" />
<line
	class="arc0"
	id="link112_@0_106"
	x1="703.93097"
	y1="60.41205"
	x2="634.9144"
	y2="69.29382" />
<line
	class="arc2"
	id="link17_@2_12"
	x1="951.4775"
	y1="288.7682"
	x2="954.97546"
	y2="290.20248" />
<line
	class="arc0"
	id="link10_@0_55"
	x1="948.49603"
	y1="573.83813"
	x2="805.3705"
	y2="593.99866" />
<line
	class="arc1"
	id="link109_@1_110"
	x1="930.8484"
	y1="238.7146"
	x2="935.5"
	y2="232.31207" />
<line
	class="arc2"
	id="link109_@2_108"
	x1="930.8484"
	y1="238.7146"
	x2="929.6947"
	y2="246.55139" />
<line
	class="arc1"
	id="link19_@1_14"
	x1="935.02057"
	y1="265.37015"
	x2="938.51855"
	y2="266.80444" />
<line
	class="arc3"
	id="link19_@3_108"
	x1="935.02057"
	y1="265.37015"
	x2="929.6947"
	y2="246.55139" />
<polygon
	points="715.1653,53.887634 812.38214,59.390076 813.78143,59.963806 754.63904,68.66272 750.0517,68.897644 692.2688,66.61621 688.27783,66.39026 640.86194,62.71753 641.4581,62.256714 708.5826,54.009583 "
	id="face_65_71_77_83_89_95_101_107_113_119"
	style="fill:rgb(192,192,192);stroke:none"
	opacity="1.0" />
<line
	class="arc1"
	id="link119_@1_113"
	x1="715.1653"
	y1="53.887634"
	x2="708.5826"
	y2="54.009583" />
<line
	class="arc0"
	id="link119_@0_65"
	x1="715.1653"
	y1="53.887634"
	x2="812.38214"
	y2="59.390076" />
<line
	class="arc0"
	id="link113_@0_107"
	x1="708.5826"
	y1="54.009583"
	x2="641.4581"
	y2="62.256714" />
<line
	class="arc1"
	id="link108_@1_114"
	x1="929.6947"
	y1="246.55139"
	x2="933.1928"
	y2="247.98572" />
<line
	class="arc2"
	id="link110_@2_116"
	x1="935.5"
	y1="232.31207"
	x2="938.99805"
	y2="233.7464" />
<line
	class="arc0"
	id="link110_@0_111"
	x1="935.5"
	y1="232.31207"
	x2="829.61664"
	y2="73.20264" />
<line
	class="arc1"
	id="link12_@1_13"
	x1="954.97546"
	y1="290.20248"
	x2="948.49603"
	y2="279.22058" />
<line
	class="arc2"
	id="link14_@2_13"
	x1="938.51855"
	y1="266.80444"
	x2="948.49603"
	y2="279.22058" />
<line
	class="arc3"
	id="link14_@3_114"
	x1="938.51855"
	y1="266.80444"
	x2="933.1928"
	y2="247.98572" />
<line
	class="arc0"
	id="link14_@0_59"
	x1="938.51855"
	y1="266.80444"
	x2="800.3818"
	y2="287.24728" />
<line
	class="arc2"
	id="link114_@2_115"
	x1="933.1928"
	y1="247.98572"
	x2="937.8444"
	y2="241.58328" />
<line
	class="arc0"
	id="link114_@0_60"
	x1="933.1928"
	y1="247.98572"
	x2="798.94354"
	y2="267.90683" />
<polygon
	points="938.99805,233.7464 831.0158,73.77637 823.09827,67.15686 758.07263,76.26453 756.91907,84.1015 794.57654,254.08081 802.49414,260.70023 937.8444,241.58328 "
	id="face_117_70_76_63_62_61_115_116"
	style="fill:rgb(0,255,0);stroke:none"
	opacity="1.0" />
<line
	class="arc1"
	id="link116_@1_115"
	x1="938.99805"
	y1="233.7464"
	x2="937.8444"
	y2="241.58328" />
<line
	class="arc0"
	id="link116_@0_117"
	x1="938.99805"
	y1="233.7464"
	x2="831.0158"
	y2="73.77637" />
<line
	class="arc0"
	id="link13_@0_58"
	x1="948.49603"
	y1="279.22058"
	x2="805.3705"
	y2="299.3811" />
<line
	class="arc0"
	id="link115_@0_61"
	x1="937.8444"
	y1="241.58328"
	x2="802.49414"
	y2="260.70023" />
<line
	class="arc1"
	id="link30_@1_31"
	x1="527.40717"
	y1="578.26605"
	x2="518.4334"
	y2="561.2172" />
<line
	class="arc2"
	id="link30_@2_2"
	x1="527.40717"
	y1="578.26605"
	x2="532.39594"
	y2="590.39984" />
<line
	class="arc1"
	id="link2_@1_3"
	x1="532.39594"
	y1="590.39984"
	x2="533.39954"
	y2="597.6188" />
<line
	class="arc2"
	id="link31_@2_36"
	x1="518.4334"
	y1="561.2172"
	x2="514.44836"
	y2="556.30225" />
<line
	class="arc0"
	id="link31_@0_32"
	x1="518.4334"
	y1="561.2172"
	x2="518.4334"
	y2="302.15414" />
<line
	class="arc1"
	id="link64_@1_111"
	x1="820.2998"
	y1="66.0094"
	x2="829.61664"
	y2="73.20264" />
<line
	class="arc2"
	id="link64_@2_65"
	x1="820.2998"
	y1="66.0094"
	x2="812.38214"
	y2="59.390076" />
<line
	class="arc2"
	id="link111_@2_117"
	x1="829.61664"
	y1="73.20264"
	x2="831.0158"
	y2="73.77637" />
<line
	class="arc2"
	id="link3_@2_35"
	x1="533.39954"
	y1="597.6188"
	x2="529.4145"
	y2="592.7038" />
<line
	class="arc0"
	id="link3_@0_8"
	x1="533.39954"
	y1="597.6188"
	x2="639.46747"
	y2="606.0948" />
<line
	class="arc1"
	id="link65_@1_71"
	x1="812.38214"
	y1="59.390076"
	x2="813.78143"
	y2="59.963806" />
<line
	class="arc1"
	id="link117_@1_70"
	x1="831.0158"
	y1="73.77637"
	x2="823.09827"
	y2="67.15686" />
<polygon
	points="514.44836,556.30225 514.44836,309.09064 515.452,304.45804 564.9879,424.94186 564.9879,448.64474 515.452,563.5211 "
	id="face_37_124_125_123_122_36"
	style="fill:rgb(192,192,192);stroke:none"
	opacity="1.0" />
<line
	class="arc1"
	id="link36_@1_122"
	x1="514.44836"
	y1="556.30225"
	x2="515.452"
	y2="563.5211" />
<line
	class="arc0"
	id="link36_@0_37"
	x1="514.44836"
	y1="556.30225"
	x2="514.44836"
	y2="309.09064" />
<line
	class="arc2"
	id="link70_@2_71"
	x1="823.09827"
	y1="67.15686"
	x2="813.78143"
	y2="59.963806" />
<line
	class="arc0"
	id="link70_@0_76"
	x1="823.09827"
	y1="67.15686"
	x2="758.07263"
	y2="76.26453" />
<line
	class="arc0"
	id="link71_@0_77"
	x1="813.78143"
	y1="59.963806"
	x2="754.63904"
	y2="68.66272" />
<line
	class="arc1"
	id="link33_@1_32"
	x1="527.40717"
	y1="283.6485"
	x2="518.4334"
	y2="302.15414" />
<line
	class="arc2"
	id="link33_@2_34"
	x1="527.40717"
	y1="283.6485"
	x2="532.39594"
	y2="272.0794" />
<polygon
	points="529.4145,592.7038 631.9844,599.74554 629.49,581.82715 579.9541,461.34332 569.9767,460.7786 520.44073,575.65497 "
	id="face_40_134_135_121_120_35"
	style="fill:rgb(192,192,192);stroke:none"
	opacity="1.0" />
<line
	class="arc1"
	id="link35_@1_120"
	x1="529.4145"
	y1="592.7038"
	x2="520.44073"
	y2="575.65497" />
<line
	class="arc0"
	id="link35_@0_40"
	x1="529.4145"
	y1="592.7038"
	x2="631.9844"
	y2="599.74554" />
<line
	class="arc1"
	id="link91_@1_92"
	x1="536.5038"
	y1="245.6453"
	x2="534.5727"
	y2="239.36469" />
<line
	class="arc2"
	id="link91_@2_90"
	x1="536.5038"
	y1="245.6453"
	x2="536.9442"
	y2="253.07779" />
<line
	class="arc1"
	id="link34_@1_39"
	x1="532.39594"
	y1="272.0794"
	x2="533.39954"
	y2="267.44684" />
<line
	class="arc3"
	id="link34_@3_90"
	x1="532.39594"
	y1="272.0794"
	x2="536.9442"
	y2="253.07779" />
<line
	class="arc1"
	id="link90_@1_84"
	x1="536.9442"
	y1="253.07779"
	x2="535.4535"
	y2="254.22968" />
<line
	class="arc2"
	id="link32_@2_37"
	x1="518.4334"
	y1="302.15414"
	x2="514.44836"
	y2="309.09064" />
<line
	class="arc2"
	id="link122_@2_120"
	x1="515.452"
	y1="563.5211"
	x2="520.44073"
	y2="575.65497" />
<line
	class="arc0"
	id="link122_@0_123"
	x1="515.452"
	y1="563.5211"
	x2="564.9879"
	y2="448.64474" />
<line
	class="arc2"
	id="link92_@2_86"
	x1="534.5727"
	y1="239.36469"
	x2="533.0819"
	y2="240.51666" />
<line
	class="arc0"
	id="link92_@0_93"
	x1="534.5727"
	y1="239.36469"
	x2="627.77435"
	y2="76.79193" />
<line
	class="arc0"
	id="link120_@0_121"
	x1="520.44073"
	y1="575.65497"
	x2="569.9767"
	y2="460.7786" />
<line
	class="arc1"
	id="link37_@1_124"
	x1="514.44836"
	y1="309.09064"
	x2="515.452"
	y2="304.45804" />
<line
	class="arc2"
	id="link39_@2_38"
	x1="533.39954"
	y1="267.44684"
	x2="529.4145"
	y2="274.3833" />
<line
	class="arc3"
	id="link39_@3_84"
	x1="533.39954"
	y1="267.44684"
	x2="535.4535"
	y2="254.22968" />
<line
	class="arc0"
	id="link39_@0_44"
	x1="533.39954"
	y1="267.44684"
	x2="639.46747"
	y2="275.92288" />
<line
	class="arc2"
	id="link84_@2_85"
	x1="535.4535"
	y1="254.22968"
	x2="533.5224"
	y2="247.94916" />
<line
	class="arc0"
	id="link84_@0_78"
	x1="535.4535"
	y1="254.22968"
	x2="643.5169"
	y2="262.81866" />
<line
	class="arc1"
	id="link106_@1_93"
	x1="634.9144"
	y1="69.29382"
	x2="627.77435"
	y2="76.79193" />
<line
	class="arc2"
	id="link106_@2_107"
	x1="634.9144"
	y1="69.29382"
	x2="641.4581"
	y2="62.256714" />
<line
	class="arc1"
	id="link107_@1_101"
	x1="641.4581"
	y1="62.256714"
	x2="640.86194"
	y2="62.71753" />
<polygon
	points="533.0819,240.51666 627.17804,77.25275 633.72186,70.21539 684.7273,73.5968 685.16766,81.02942 646.627,248.17957 640.0832,255.2168 533.5224,247.94916 "
	id="face_87_100_94_81_80_79_85_86"
	style="fill:rgb(192,192,192);stroke:none"
	opacity="1.0" />
<line
	class="arc1"
	id="link86_@1_85"
	x1="533.0819"
	y1="240.51666"
	x2="533.5224"
	y2="247.94916" />
<line
	class="arc0"
	id="link86_@0_87"
	x1="533.0819"
	y1="240.51666"
	x2="627.17804"
	y2="77.25275" />
<line
	class="arc2"
	id="link93_@2_87"
	x1="627.77435"
	y1="76.79193"
	x2="627.17804"
	y2="77.25275" />
<line
	class="arc0"
	id="link85_@0_79"
	x1="533.5224"
	y1="247.94916"
	x2="640.0832"
	y2="255.2168" />
<line
	class="arc2"
	id="link101_@2_100"
	x1="640.86194"
	y1="62.71753"
	x2="633.72186"
	y2="70.21539" />
<line
	class="arc0"
	id="link101_@0_95"
	x1="640.86194"
	y1="62.71753"
	x2="688.27783"
	y2="66.39026" />
<polygon
	points="529.4145,274.3833 631.9844,281.42502 629.49,299.06107 579.9541,413.93747 569.9767,413.37274 520.44073,292.88892 "
	id="face_43_128_129_127_126_38"
	style="fill:rgb(192,192,192);stroke:none"
	opacity="1.0" />
<line
	class="arc1"
	id="link38_@1_126"
	x1="529.4145"
	y1="274.3833"
	x2="520.44073"
	y2="292.88892" />
<line
	class="arc0"
	id="link38_@0_43"
	x1="529.4145"
	y1="274.3833"
	x2="631.9844"
	y2="281.42502" />
<line
	class="arc1"
	id="link87_@1_100"
	x1="627.17804"
	y1="77.25275"
	x2="633.72186"
	y2="70.21539" />
<line
	class="arc0"
	id="link100_@0_94"
	x1="633.72186"
	y1="70.21539"
	x2="684.7273"
	y2="73.5968" />
<line
	class="arc2"
	id="link124_@2_126"
	x1="515.452"
	y1="304.45804"
	x2="520.44073"
	y2="292.88892" />
<line
	class="arc0"
	id="link124_@0_125"
	x1="515.452"
	y1="304.45804"
	x2="564.9879"
	y2="424.94186" />
<line
	class="arc0"
	id="link126_@0_127"
	x1="520.44073"
	y1="292.88892"
	x2="569.9767"
	y2="413.37274" />
<line
	class="arc1"
	id="link123_@1_125"
	x1="564.9879"
	y1="448.64474"
	x2="564.9879"
	y2="424.94186" />
<line
	class="arc2"
	id="link123_@2_121"
	x1="564.9879"
	y1="448.64474"
	x2="569.9767"
	y2="460.7786" />
<line
	class="arc1"
	id="link121_@1_135"
	x1="569.9767"
	y1="460.7786"
	x2="579.9541"
	y2="461.34332" />
<line
	class="arc2"
	id="link125_@2_127"
	x1="564.9879"
	y1="424.94186"
	x2="569.9767"
	y2="413.37274" />
<line
	class="arc1"
	id="link127_@1_129"
	x1="569.9767"
	y1="413.37274"
	x2="579.9541"
	y2="413.93747" />
<line
	class="arc2"
	id="link135_@2_133"
	x1="579.9541"
	y1="461.34332"
	x2="584.9428"
	y2="449.77417" />
<line
	class="arc0"
	id="link135_@0_134"
	x1="579.9541"
	y1="461.34332"
	x2="629.49"
	y2="581.82715" />
<line
	class="arc2"
	id="link129_@2_131"
	x1="579.9541"
	y1="413.93747"
	x2="584.9428"
	y2="426.0713" />
<line
	class="arc0"
	id="link129_@0_128"
	x1="579.9541"
	y1="413.93747"
	x2="629.49"
	y2="299.06107" />
<polygon
	points="584.9428,449.77417 634.47876,570.258 644.4562,558.97125 644.4562,323.61108 634.47876,311.19485 584.9428,426.0713 "
	id="face_132_41_42_130_131_133"
	style="fill:rgb(192,192,192);stroke:none"
	opacity="1.0" />
<line
	class="arc1"
	id="link133_@1_131"
	x1="584.9428"
	y1="449.77417"
	x2="584.9428"
	y2="426.0713" />
<line
	class="arc0"
	id="link133_@0_132"
	x1="584.9428"
	y1="449.77417"
	x2="634.47876"
	y2="570.258" />
<line
	class="arc0"
	id="link131_@0_130"
	x1="584.9428"
	y1="426.0713"
	x2="634.47876"
	y2="311.19485" />
<line
	class="arc1"
	id="link95_@1_89"
	x1="688.27783"
	y1="66.39026"
	x2="692.2688"
	y2="66.61621" />
<line
	class="arc2"
	id="link95_@2_94"
	x1="688.27783"
	y1="66.39026"
	x2="684.7273"
	y2="73.5968" />
<line
	class="arc1"
	id="link94_@1_81"
	x1="684.7273"
	y1="73.5968"
	x2="685.16766"
	y2="81.02942" />
<line
	class="arc2"
	id="link89_@2_88"
	x1="692.2688"
	y1="66.61621"
	x2="692.7093"
	y2="74.048584" />
<line
	class="arc0"
	id="link89_@0_83"
	x1="692.2688"
	y1="66.61621"
	x2="750.0517"
	y2="68.897644" />
<line
	class="arc2"
	id="link81_@2_75"
	x1="685.16766"
	y1="81.02942"
	x2="689.1586"
	y2="81.25531" />
<line
	class="arc0"
	id="link81_@0_80"
	x1="685.16766"
	y1="81.02942"
	x2="646.627"
	y2="248.17957" />
<polygon
	points="692.7093,74.048584 748.8981,76.734314 752.3318,84.336426 783.1084,254.66806 779.55786,261.87466 660.0381,256.3462 656.60443,248.7443 689.1586,81.25531 "
	id="face_82_69_68_67_73_74_75_88"
	style="fill:rgb(192,192,192);stroke:none"
	opacity="1.0" />
<line
	class="arc1"
	id="link88_@1_75"
	x1="692.7093"
	y1="74.048584"
	x2="689.1586"
	y2="81.25531" />
<line
	class="arc0"
	id="link88_@0_82"
	x1="692.7093"
	y1="74.048584"
	x2="748.8981"
	y2="76.734314" />
<line
	class="arc0"
	id="link75_@0_74"
	x1="689.1586"
	y1="81.25531"
	x2="656.60443"
	y2="248.7443" />
<line
	class="arc1"
	id="link40_@1_134"
	x1="631.9844"
	y1="599.74554"
	x2="629.49"
	y2="581.82715" />
<line
	class="arc2"
	id="link40_@2_8"
	x1="631.9844"
	y1="599.74554"
	x2="639.46747"
	y2="606.0948" />
<line
	class="arc2"
	id="link134_@2_132"
	x1="629.49"
	y1="581.82715"
	x2="634.47876"
	y2="570.258" />
<line
	class="arc1"
	id="link8_@1_9"
	x1="639.46747"
	y1="606.0948"
	x2="654.4336"
	y2="606.9419" />
<line
	class="arc1"
	id="link132_@1_41"
	x1="634.47876"
	y1="570.258"
	x2="644.4562"
	y2="558.97125" />
<line
	class="arc2"
	id="link41_@2_46"
	x1="644.4562"
	y1="558.97125"
	x2="649.4449"
	y2="559.2536" />
<line
	class="arc0"
	id="link41_@0_42"
	x1="644.4562"
	y1="558.97125"
	x2="644.4562"
	y2="323.61108" />
<line
	class="arc2"
	id="link9_@2_45"
	x1="654.4336"
	y1="606.9419"
	x2="661.9167"
	y2="601.43964" />
<line
	class="arc0"
	id="link9_@0_4"
	x1="654.4336"
	y1="606.9419"
	x2="786.41925"
	y2="611.9396" />
<line
	class="arc1"
	id="link77_@1_83"
	x1="754.63904"
	y1="68.66272"
	x2="750.0517"
	y2="68.897644" />
<line
	class="arc2"
	id="link77_@2_76"
	x1="754.63904"
	y1="68.66272"
	x2="758.07263"
	y2="76.26453" />
<polygon
	points="649.4449,559.2536 649.4449,323.8934 659.42236,312.60666 708.9583,433.0905 708.9583,456.7934 659.42236,571.6698 "
	id="face_47_146_147_149_148_46"
	style="fill:rgb(192,192,192);stroke:none"
	opacity="1.0" />
<line
	class="arc1"
	id="link46_@1_148"
	x1="649.4449"
	y1="559.2536"
	x2="659.42236"
	y2="571.6698" />
<line
	class="arc0"
	id="link46_@0_47"
	x1="649.4449"
	y1="559.2536"
	x2="649.4449"
	y2="323.8934" />
<line
	class="arc2"
	id="link83_@2_82"
	x1="750.0517"
	y1="68.897644"
	x2="748.8981"
	y2="76.734314" />
<polygon
	points="661.9167,601.43964 777.44543,606.74225 773.4604,589.97577 723.92444,469.49197 713.94696,468.92725 664.4111,583.80365 "
	id="face_50_136_137_151_150_45"
	style="fill:rgb(192,192,192);stroke:none"
	opacity="1.0" />
<line
	class="arc1"
	id="link45_@1_150"
	x1="661.9167"
	y1="601.43964"
	x2="664.4111"
	y2="583.80365" />
<line
	class="arc0"
	id="link45_@0_50"
	x1="661.9167"
	y1="601.43964"
	x2="777.44543"
	y2="606.74225" />
<line
	class="arc1"
	id="link76_@1_63"
	x1="758.07263"
	y1="76.26453"
	x2="756.91907"
	y2="84.1015" />
<line
	class="arc2"
	id="link148_@2_150"
	x1="659.42236"
	y1="571.6698"
	x2="664.4111"
	y2="583.80365" />
<line
	class="arc0"
	id="link148_@0_149"
	x1="659.42236"
	y1="571.6698"
	x2="708.9583"
	y2="456.7934" />
<line
	class="arc0"
	id="link150_@0_151"
	x1="664.4111"
	y1="583.80365"
	x2="713.94696"
	y2="468.92725" />
<line
	class="arc1"
	id="link82_@1_69"
	x1="748.8981"
	y1="76.734314"
	x2="752.3318"
	y2="84.336426" />
<line
	class="arc1"
	id="link128_@1_43"
	x1="629.49"
	y1="299.06107"
	x2="631.9844"
	y2="281.42502" />
<line
	class="arc2"
	id="link128_@2_130"
	x1="629.49"
	y1="299.06107"
	x2="634.47876"
	y2="311.19485" />
<line
	class="arc2"
	id="link63_@2_69"
	x1="756.91907"
	y1="84.1015"
	x2="752.3318"
	y2="84.336426" />
<line
	class="arc0"
	id="link63_@0_62"
	x1="756.91907"
	y1="84.1015"
	x2="794.57654"
	y2="254.08081" />
<line
	class="arc1"
	id="link130_@1_42"
	x1="634.47876"
	y1="311.19485"
	x2="644.4562"
	y2="323.61108" />
<line
	class="arc2"
	id="link43_@2_44"
	x1="631.9844"
	y1="281.42502"
	x2="639.46747"
	y2="275.92288" />
<line
	class="arc1"
	id="link79_@1_80"
	x1="640.0832"
	y1="255.2168"
	x2="646.627"
	y2="248.17957" />
<line
	class="arc2"
	id="link79_@2_78"
	x1="640.0832"
	y1="255.2168"
	x2="643.5169"
	y2="262.81866" />
<line
	class="arc0"
	id="link69_@0_68"
	x1="752.3318"
	y1="84.336426"
	x2="783.1084"
	y2="254.66806" />
<line
	class="arc2"
	id="link80_@2_74"
	x1="646.627"
	y1="248.17957"
	x2="656.60443"
	y2="248.7443" />
<line
	class="arc2"
	id="link42_@2_47"
	x1="644.4562"
	y1="323.61108"
	x2="649.4449"
	y2="323.8934" />
<line
	class="arc1"
	id="link44_@1_49"
	x1="639.46747"
	y1="275.92288"
	x2="654.4336"
	y2="276.76996" />
<line
	class="arc3"
	id="link44_@3_78"
	x1="639.46747"
	y1="275.92288"
	x2="643.5169"
	y2="262.81866" />
<line
	class="arc1"
	id="link78_@1_72"
	x1="643.5169"
	y1="262.81866"
	x2="653.4943"
	y2="263.3834" />
<line
	class="arc1"
	id="link47_@1_146"
	x1="649.4449"
	y1="323.8934"
	x2="659.42236"
	y2="312.60666" />
<line
	class="arc1"
	id="link74_@1_73"
	x1="656.60443"
	y1="248.7443"
	x2="660.0381"
	y2="256.3462" />
<line
	class="arc2"
	id="link72_@2_73"
	x1="653.4943"
	y1="263.3834"
	x2="660.0381"
	y2="256.3462" />
<line
	class="arc3"
	id="link72_@3_49"
	x1="653.4943"
	y1="263.3834"
	x2="654.4336"
	y2="276.76996" />
<line
	class="arc0"
	id="link72_@0_66"
	x1="653.4943"
	y1="263.3834"
	x2="787.4754"
	y2="268.494" />
<line
	class="arc0"
	id="link73_@0_67"
	x1="660.0381"
	y1="256.3462"
	x2="779.55786"
	y2="261.87466" />
<line
	class="arc2"
	id="link49_@2_48"
	x1="654.4336"
	y1="276.76996"
	x2="661.9167"
	y2="283.1192" />
<line
	class="arc0"
	id="link49_@0_54"
	x1="654.4336"
	y1="276.76996"
	x2="786.41925"
	y2="281.76767" />
<line
	class="arc2"
	id="link146_@2_144"
	x1="659.42236"
	y1="312.60666"
	x2="664.4111"
	y2="301.0376" />
<line
	class="arc0"
	id="link146_@0_147"
	x1="659.42236"
	y1="312.60666"
	x2="708.9583"
	y2="433.0905" />
<polygon
	points="661.9167,283.1192 777.44543,288.42175 773.4604,307.20972 723.92444,422.08612 713.94696,421.52142 664.4111,301.0376 "
	id="face_53_142_143_145_144_48"
	style="fill:rgb(192,192,192);stroke:none"
	opacity="1.0" />
<line
	class="arc1"
	id="link48_@1_144"
	x1="661.9167"
	y1="283.1192"
	x2="664.4111"
	y2="301.0376" />
<line
	class="arc0"
	id="link48_@0_53"
	x1="661.9167"
	y1="283.1192"
	x2="777.44543"
	y2="288.42175" />
<line
	class="arc0"
	id="link144_@0_145"
	x1="664.4111"
	y1="301.0376"
	x2="713.94696"
	y2="421.52142" />
<line
	class="arc1"
	id="link149_@1_147"
	x1="708.9583"
	y1="456.7934"
	x2="708.9583"
	y2="433.0905" />
<line
	class="arc2"
	id="link149_@2_151"
	x1="708.9583"
	y1="456.7934"
	x2="713.94696"
	y2="468.92725" />
<line
	class="arc2"
	id="link147_@2_145"
	x1="708.9583"
	y1="433.0905"
	x2="713.94696"
	y2="421.52142" />
<line
	class="arc1"
	id="link151_@1_137"
	x1="713.94696"
	y1="468.92725"
	x2="723.92444"
	y2="469.49197" />
<line
	class="arc1"
	id="link5_@1_4"
	x1="800.3818"
	y1="605.56775"
	x2="786.41925"
	y2="611.9396" />
<line
	class="arc2"
	id="link5_@2_55"
	x1="800.3818"
	y1="605.56775"
	x2="805.3705"
	y2="593.99866" />
<line
	class="arc1"
	id="link145_@1_143"
	x1="713.94696"
	y1="421.52142"
	x2="723.92444"
	y2="422.08612" />
<line
	class="arc2"
	id="link4_@2_50"
	x1="786.41925"
	y1="611.9396"
	x2="777.44543"
	y2="606.74225" />
<line
	class="arc1"
	id="link55_@1_56"
	x1="805.3705"
	y1="593.99866"
	x2="801.3855"
	y2="577.23224" />
<line
	class="arc2"
	id="link137_@2_139"
	x1="723.92444"
	y1="469.49197"
	x2="728.91315"
	y2="457.92285" />
<line
	class="arc0"
	id="link137_@0_136"
	x1="723.92444"
	y1="469.49197"
	x2="773.4604"
	y2="589.97577" />
<polygon
	points="728.91315,457.92285 778.44916,578.4067 792.41156,572.03485 792.41156,324.82324 778.44916,319.34354 728.91315,434.21997 "
	id="face_138_51_52_140_141_139"
	style="fill:rgb(192,192,192);stroke:none"
	opacity="1.0" />
<line
	class="arc1"
	id="link139_@1_141"
	x1="728.91315"
	y1="457.92285"
	x2="728.91315"
	y2="434.21997" />
<line
	class="arc0"
	id="link139_@0_138"
	x1="728.91315"
	y1="457.92285"
	x2="778.44916"
	y2="578.4067" />
<line
	class="arc2"
	id="link143_@2_141"
	x1="723.92444"
	y1="422.08612"
	x2="728.91315"
	y2="434.21997" />
<line
	class="arc0"
	id="link143_@0_142"
	x1="723.92444"
	y1="422.08612"
	x2="773.4604"
	y2="307.20972" />
<line
	class="arc0"
	id="link141_@0_140"
	x1="728.91315"
	y1="434.21997"
	x2="778.44916"
	y2="319.34354" />
<line
	class="arc1"
	id="link50_@1_136"
	x1="777.44543"
	y1="606.74225"
	x2="773.4604"
	y2="589.97577" />
<line
	class="arc2"
	id="link56_@2_51"
	x1="801.3855"
	y1="577.23224"
	x2="792.41156"
	y2="572.03485" />
<line
	class="arc0"
	id="link56_@0_57"
	x1="801.3855"
	y1="577.23224"
	x2="801.3855"
	y2="318.1691" />
<line
	class="arc1"
	id="link60_@1_66"
	x1="798.94354"
	y1="267.90683"
	x2="787.4754"
	y2="268.494" />
<line
	class="arc2"
	id="link60_@2_61"
	x1="798.94354"
	y1="267.90683"
	x2="802.49414"
	y2="260.70023" />
<line
	class="arc3"
	id="link60_@3_59"
	x1="798.94354"
	y1="267.90683"
	x2="800.3818"
	y2="287.24728" />
<line
	class="arc1"
	id="link61_@1_62"
	x1="802.49414"
	y1="260.70023"
	x2="794.57654"
	y2="254.08081" />
<line
	class="arc1"
	id="link51_@1_138"
	x1="792.41156"
	y1="572.03485"
	x2="778.44916"
	y2="578.4067" />
<line
	class="arc0"
	id="link51_@0_52"
	x1="792.41156"
	y1="572.03485"
	x2="792.41156"
	y2="324.82324" />
<line
	class="arc2"
	id="link136_@2_138"
	x1="773.4604"
	y1="589.97577"
	x2="778.44916"
	y2="578.4067" />
<line
	class="arc1"
	id="link59_@1_54"
	x1="800.3818"
	y1="287.24728"
	x2="786.41925"
	y2="281.76767" />
<line
	class="arc2"
	id="link59_@2_58"
	x1="800.3818"
	y1="287.24728"
	x2="805.3705"
	y2="299.3811" />
<line
	class="arc1"
	id="link58_@1_57"
	x1="805.3705"
	y1="299.3811"
	x2="801.3855"
	y2="318.1691" />
<line
	class="arc2"
	id="link62_@2_68"
	x1="794.57654"
	y1="254.08081"
	x2="783.1084"
	y2="254.66806" />
<line
	class="arc2"
	id="link66_@2_67"
	x1="787.4754"
	y1="268.494"
	x2="779.55786"
	y2="261.87466" />
<line
	class="arc3"
	id="link66_@3_54"
	x1="787.4754"
	y1="268.494"
	x2="786.41925"
	y2="281.76767" />
<line
	class="arc2"
	id="link54_@2_53"
	x1="786.41925"
	y1="281.76767"
	x2="777.44543"
	y2="288.42175" />
<line
	class="arc1"
	id="link67_@1_68"
	x1="779.55786"
	y1="261.87466"
	x2="783.1084"
	y2="254.66806" />
<line
	class="arc2"
	id="link57_@2_52"
	x1="801.3855"
	y1="318.1691"
	x2="792.41156"
	y2="324.82324" />
<line
	class="arc1"
	id="link53_@1_142"
	x1="777.44543"
	y1="288.42175"
	x2="773.4604"
	y2="307.20972" />
<line
	class="arc1"
	id="link52_@1_140"
	x1="792.41156"
	y1="324.82324"
	x2="778.44916"
	y2="319.34354" />
<line
	class="arc2"
	id="link142_@2_140"
	x1="773.4604"
	y1="307.20972"
	x2="778.44916"
	y2="319.34354" />
</svg>
