<?xml version="1.0" encoding="UTF-8" standalone="no"?>
<!-- Created with Jerboa -->

<svg
   width="579.91748"
   height="471.6936"
   version="1.1"
   id="svg1"
   sodipodi:docname="build-v3-3.svg"
   inkscape:version="1.3.2 (091e20ef0f, 2023-11-25, custom)"
   xmlns:inkscape="http://www.inkscape.org/namespaces/inkscape"
   xmlns:sodipodi="http://sodipodi.sourceforge.net/DTD/sodipodi-0.dtd"
   xmlns="http://www.w3.org/2000/svg"
   xmlns:svg="http://www.w3.org/2000/svg">
  <defs
     id="defs1" />
  <sodipodi:namedview
     id="namedview1"
     pagecolor="#ffffff"
     bordercolor="#000000"
     borderopacity="0.25"
     inkscape:showpageshadow="2"
     inkscape:pageopacity="0.0"
     inkscape:pagecheckerboard="0"
     inkscape:deskcolor="#d1d1d1"
     showgrid="false"
     inkscape:zoom="0.87677054"
     inkscape:cx="294.26171"
     inkscape:cy="235.52342"
     inkscape:window-width="1892"
     inkscape:window-height="1034"
     inkscape:window-x="9"
     inkscape:window-y="27"
     inkscape:window-maximized="1"
     inkscape:current-layer="svg1" />
  <style
     id="style">
		.arc0 {
			fill:none;
			fill-rule:evenodd;
			stroke:black;
			stroke-width:4;
			stroke-linecap:round;
			stroke-linejoin:round;
			stroke-opacity:1;
		}
		.arc1 {
			fill:none;
			fill-rule:evenodd;
			stroke:red;
			stroke-width:4;
			stroke-linecap:round;
			stroke-linejoin:round;
			stroke-opacity:1;
		}
		.arc2 {
			fill:none;
			fill-rule:evenodd;
			stroke:blue;
			stroke-width:4;
			stroke-linecap:round;
			stroke-linejoin:round;
			stroke-opacity:1;
		}
		.arc3 {
			fill:none;
			fill-rule:evenodd;
			stroke:green;
			stroke-width:4;
			stroke-linecap:round;
			stroke-linejoin:round;
			stroke-opacity:1;
		}
		.topological-dart {
			fill:#000000;
			stroke:#000000;
			stroke-width:0;
			stroke-linecap:round;
			stroke-linejoin:round;
			stroke-dasharray:none;
			paint-order:markers fill stroke;
		}
	</style>
  <polygon
     points="670.2686,106.73468 971.8562,123.80444 985.04956,140.2226 985.04956,498.45612 971.8562,513.38074 670.2686,496.31097 657.0753,479.89288 657.0753,121.65936 "
     id="face_22_23_18_17_16_15_20_21"
     style="fill:#c0c0c0;stroke:none"
     opacity="1"
     transform="translate(-411.75748,-90.213257)" />
  <line
     class="arc1"
     id="link21_@1_20"
     x1="245.31784"
     y1="389.67963"
     x2="258.51114"
     y2="406.09772" />
  <line
     class="arc2"
     id="link21_@2_26"
     x1="245.31784"
     y1="389.67963"
     x2="223.55673"
     y2="390.08279" />
  <line
     class="arc0"
     id="link21_@0_22"
     x1="245.31784"
     y1="389.67963"
     x2="245.31784"
     y2="31.446106" />
  <polygon
     points="626.74634,107.54102 424.29645,133.4527 415.72858,150.27396 415.72858,508.5075 424.29645,523.029 626.74634,497.11725 635.3142,480.29605 635.3142,122.0625 "
     id="face_27_28_33_32_31_30_25_26"
     style="fill:#c0c0c0;stroke:none"
     opacity="1"
     transform="translate(-411.75748,-90.213257)" />
  <line
     class="arc1"
     id="link26_@1_25"
     x1="223.55673"
     y1="390.08279"
     x2="214.98886"
     y2="406.90399" />
  <line
     class="arc0"
     id="link26_@0_27"
     x1="223.55673"
     y1="390.08279"
     x2="223.55673"
     y2="31.849243" />
  <line
     class="arc2"
     id="link20_@2_0"
     x1="258.51114"
     y1="406.09772"
     x2="249.94333"
     y2="422.91895" />
  <line
     class="arc0"
     id="link20_@0_15"
     x1="258.51114"
     y1="406.09772"
     x2="560.09875"
     y2="423.16748" />
  <line
     class="arc2"
     id="link25_@2_1"
     x1="214.98886"
     y1="406.90399"
     x2="228.18216"
     y2="423.32208" />
  <line
     class="arc0"
     id="link25_@0_30"
     x1="214.98886"
     y1="406.90399"
     x2="12.538971"
     y2="432.81573" />
  <polygon
     points="967.91394,532.0985 785.25385,559.1304 770.0894,559.90686 588.9667,552.925 575.7734,552.1783 428.9219,540.5969 430.8931,539.07367 639.93964,513.53534 661.7008,513.1322 963.2884,530.2019 "
     id="face_7_6_5_4_9_8_3_2_1_0"
     style="fill:#c0c0c0;stroke:none"
     opacity="1"
     transform="translate(-411.75748,-90.213257)" />
  <line
     class="arc1"
     id="link0_@1_1"
     x1="249.94333"
     y1="422.91895"
     x2="228.18216"
     y2="423.32208" />
  <line
     class="arc0"
     id="link0_@0_7"
     x1="249.94333"
     y1="422.91895"
     x2="551.53088"
     y2="439.98865" />
  <line
     class="arc0"
     id="link1_@0_2"
     x1="228.18216"
     y1="423.32208"
     x2="19.13562"
     y2="448.86041" />
  <line
     class="arc1"
     id="link22_@1_23"
     x1="245.31784"
     y1="31.446106"
     x2="258.51114"
     y2="16.521423" />
  <line
     class="arc2"
     id="link22_@2_27"
     x1="245.31784"
     y1="31.446106"
     x2="223.55673"
     y2="31.849243" />
  <line
     class="arc1"
     id="link27_@1_28"
     x1="223.55673"
     y1="31.849243"
     x2="214.98886"
     y2="17.327766" />
  <line
     class="arc2"
     id="link23_@2_24"
     x1="258.51114"
     y1="16.521423"
     x2="249.94333"
     y2="2" />
  <line
     class="arc0"
     id="link23_@0_18"
     x1="258.51114"
     y1="16.521423"
     x2="560.09875"
     y2="33.591187" />
  <line
     class="arc2"
     id="link28_@2_29"
     x1="214.98886"
     y1="17.327766"
     x2="228.18216"
     y2="2.4031982" />
  <line
     class="arc0"
     id="link28_@0_33"
     x1="214.98886"
     y1="17.327766"
     x2="12.538971"
     y2="43.239441" />
  <polygon
     points="967.91394,111.17963 785.25385,138.21136 770.0894,138.98792 588.9667,132.00604 575.7734,131.25934 428.9219,119.67798 430.8931,118.15466 639.93964,92.616455 661.7008,92.21326 963.2884,109.28302 "
     id="face_19_14_59_54_49_44_39_34_29_24"
     style="fill:#c0c0c0;stroke:none"
     opacity="1"
     transform="translate(-411.75748,-90.213257)" />
  <line
     class="arc1"
     id="link24_@1_29"
     x1="249.94333"
     y1="2"
     x2="228.18216"
     y2="2.4031982" />
  <line
     class="arc0"
     id="link24_@0_19"
     x1="249.94333"
     y1="2"
     x2="551.53088"
     y2="19.069763" />
  <line
     class="arc0"
     id="link29_@0_34"
     x1="228.18216"
     y1="2.4031982"
     x2="19.13562"
     y2="27.941406" />
  <line
     class="arc1"
     id="link15_@1_16"
     x1="560.09875"
     y1="423.16748"
     x2="573.29211"
     y2="408.24286" />
  <line
     class="arc2"
     id="link15_@2_7"
     x1="560.09875"
     y1="423.16748"
     x2="551.53088"
     y2="439.98865" />
  <line
     class="arc2"
     id="link16_@2_11"
     x1="573.29211"
     y1="408.24286"
     x2="577.91748"
     y2="410.13947" />
  <line
     class="arc0"
     id="link16_@0_17"
     x1="573.29211"
     y1="408.24286"
     x2="573.29211"
     y2="50.009338" />
  <line
     class="arc1"
     id="link7_@1_6"
     x1="551.53088"
     y1="439.98865"
     x2="556.15649"
     y2="441.88525" />
  <polygon
     points="981.1071,127.59772 791.8505,154.2561 783.2827,171.07736 783.2827,529.3109 791.8505,543.8324 981.1071,517.17395 989.6749,500.35272 989.6749,142.1192 "
     id="face_12_13_58_57_56_55_10_11"
     style="fill:#c0c0c0;stroke:none"
     opacity="1"
     transform="translate(-411.75748,-90.213257)" />
  <line
     class="arc1"
     id="link11_@1_10"
     x1="577.91748"
     y1="410.13947"
     x2="569.34961"
     y2="426.96069" />
  <line
     class="arc0"
     id="link11_@0_12"
     x1="577.91748"
     y1="410.13947"
     x2="577.91748"
     y2="51.905945" />
  <line
     class="arc2"
     id="link6_@2_10"
     x1="556.15649"
     y1="441.88525"
     x2="569.34961"
     y2="426.96069" />
  <line
     class="arc0"
     id="link6_@0_5"
     x1="556.15649"
     y1="441.88525"
     x2="373.49637"
     y2="468.91711" />
  <line
     class="arc1"
     id="link18_@1_17"
     x1="560.09875"
     y1="33.591187"
     x2="573.29211"
     y2="50.009338" />
  <line
     class="arc2"
     id="link18_@2_19"
     x1="560.09875"
     y1="33.591187"
     x2="551.53088"
     y2="19.069763" />
  <line
     class="arc2"
     id="link17_@2_12"
     x1="573.29211"
     y1="50.009338"
     x2="577.91748"
     y2="51.905945" />
  <line
     class="arc0"
     id="link10_@0_55"
     x1="569.34961"
     y1="426.96069"
     x2="380.09305"
     y2="453.61914" />
  <line
     class="arc1"
     id="link19_@1_14"
     x1="551.53088"
     y1="19.069763"
     x2="556.15649"
     y2="20.96637" />
  <line
     class="arc1"
     id="link12_@1_13"
     x1="577.91748"
     y1="51.905945"
     x2="569.34961"
     y2="37.38446" />
  <line
     class="arc2"
     id="link14_@2_13"
     x1="556.15649"
     y1="20.96637"
     x2="569.34961"
     y2="37.38446" />
  <line
     class="arc0"
     id="link14_@0_59"
     x1="556.15649"
     y1="20.96637"
     x2="373.49637"
     y2="47.998108" />
  <line
     class="arc0"
     id="link13_@0_58"
     x1="569.34961"
     y1="37.38446"
     x2="380.09305"
     y2="64.042847" />
  <line
     class="arc1"
     id="link30_@1_31"
     x1="12.538971"
     y1="432.81573"
     x2="3.9710999"
     y2="418.29425" />
  <line
     class="arc2"
     id="link30_@2_2"
     x1="12.538971"
     y1="432.81573"
     x2="19.13562"
     y2="448.86041" />
  <line
     class="arc1"
     id="link2_@1_3"
     x1="19.13562"
     y1="448.86041"
     x2="17.164429"
     y2="450.38367" />
  <line
     class="arc2"
     id="link31_@2_36"
     x1="3.9710999"
     y1="418.29425"
     x2="2"
     y2="419.8175" />
  <line
     class="arc0"
     id="link31_@0_32"
     x1="3.9710999"
     y1="418.29425"
     x2="3.9710999"
     y2="60.060699" />
  <line
     class="arc2"
     id="link3_@2_35"
     x1="17.164429"
     y1="450.38367"
     x2="8.5965881"
     y2="435.86218" />
  <line
     class="arc0"
     id="link3_@0_8"
     x1="17.164429"
     y1="450.38367"
     x2="164.0159"
     y2="461.96503" />
  <polygon
     points="420.35406,136.49915 569.17676,146.55728 575.7734,162.60202 575.7734,520.8356 569.17676,536.13354 420.35406,526.07544 413.75748,510.03076 413.75748,151.79718 "
     id="face_37_38_43_42_41_40_35_36"
     style="fill:#c0c0c0;stroke:none"
     opacity="1"
     transform="translate(-411.75748,-90.213257)" />
  <line
     class="arc1"
     id="link36_@1_35"
     x1="2"
     y1="419.8175"
     x2="8.5965881"
     y2="435.86218" />
  <line
     class="arc0"
     id="link36_@0_37"
     x1="2"
     y1="419.8175"
     x2="2"
     y2="61.583923" />
  <line
     class="arc1"
     id="link33_@1_32"
     x1="12.538971"
     y1="43.239441"
     x2="3.9710999"
     y2="60.060699" />
  <line
     class="arc2"
     id="link33_@2_34"
     x1="12.538971"
     y1="43.239441"
     x2="19.13562"
     y2="27.941406" />
  <line
     class="arc0"
     id="link35_@0_40"
     x1="8.5965881"
     y1="435.86218"
     x2="157.41928"
     y2="445.92029" />
  <line
     class="arc1"
     id="link34_@1_39"
     x1="19.13562"
     y1="27.941406"
     x2="17.164429"
     y2="29.464722" />
  <line
     class="arc2"
     id="link32_@2_37"
     x1="3.9710999"
     y1="60.060699"
     x2="2"
     y2="61.583923" />
  <line
     class="arc2"
     id="link39_@2_38"
     x1="17.164429"
     y1="29.464722"
     x2="8.5965881"
     y2="46.285889" />
  <line
     class="arc0"
     id="link39_@0_44"
     x1="17.164429"
     y1="29.464722"
     x2="164.0159"
     y2="41.046082" />
  <line
     class="arc1"
     id="link37_@1_38"
     x1="2"
     y1="61.583923"
     x2="8.5965881"
     y2="46.285889" />
  <line
     class="arc0"
     id="link38_@0_43"
     x1="8.5965881"
     y1="46.285889"
     x2="157.41928"
     y2="56.344025" />
  <line
     class="arc1"
     id="link40_@1_41"
     x1="157.41928"
     y1="445.92029"
     x2="164.0159"
     y2="430.62231" />
  <line
     class="arc2"
     id="link40_@2_8"
     x1="157.41928"
     y1="445.92029"
     x2="164.0159"
     y2="461.96503" />
  <line
     class="arc1"
     id="link8_@1_9"
     x1="164.0159"
     y1="461.96503"
     x2="177.2092"
     y2="462.71173" />
  <line
     class="arc2"
     id="link41_@2_46"
     x1="164.0159"
     y1="430.62231"
     x2="177.2092"
     y2="431.36902" />
  <line
     class="arc0"
     id="link41_@0_42"
     x1="164.0159"
     y1="430.62231"
     x2="164.0159"
     y2="72.388763" />
  <line
     class="arc2"
     id="link9_@2_45"
     x1="177.2092"
     y1="462.71173"
     x2="183.80582"
     y2="447.41376" />
  <line
     class="arc0"
     id="link9_@0_4"
     x1="177.2092"
     y1="462.71173"
     x2="358.33194"
     y2="469.6936" />
  <polygon
     points="595.5633,148.05078 761.52167,155.80914 768.1183,171.85388 768.1183,530.0874 761.52167,545.3854 595.5633,537.627 588.9667,521.5823 588.9667,163.34872 "
     id="face_47_48_53_52_51_50_45_46"
     style="fill:#c0c0c0;stroke:none"
     opacity="1"
     transform="translate(-411.75748,-90.213257)" />
  <line
     class="arc1"
     id="link46_@1_45"
     x1="177.2092"
     y1="431.36902"
     x2="183.80582"
     y2="447.41376" />
  <line
     class="arc0"
     id="link46_@0_47"
     x1="177.2092"
     y1="431.36902"
     x2="177.2092"
     y2="73.135468" />
  <line
     class="arc0"
     id="link45_@0_50"
     x1="183.80582"
     y1="447.41376"
     x2="349.76419"
     y2="455.17212" />
  <line
     class="arc1"
     id="link43_@1_42"
     x1="157.41928"
     y1="56.344025"
     x2="164.0159"
     y2="72.388763" />
  <line
     class="arc2"
     id="link43_@2_44"
     x1="157.41928"
     y1="56.344025"
     x2="164.0159"
     y2="41.046082" />
  <line
     class="arc2"
     id="link42_@2_47"
     x1="164.0159"
     y1="72.388763"
     x2="177.2092"
     y2="73.135468" />
  <line
     class="arc1"
     id="link44_@1_49"
     x1="164.0159"
     y1="41.046082"
     x2="177.2092"
     y2="41.792786" />
  <line
     class="arc1"
     id="link47_@1_48"
     x1="177.2092"
     y1="73.135468"
     x2="183.80582"
     y2="57.837524" />
  <line
     class="arc2"
     id="link49_@2_48"
     x1="177.2092"
     y1="41.792786"
     x2="183.80582"
     y2="57.837524" />
  <line
     class="arc0"
     id="link49_@0_54"
     x1="177.2092"
     y1="41.792786"
     x2="358.33194"
     y2="48.774658" />
  <line
     class="arc0"
     id="link48_@0_53"
     x1="183.80582"
     y1="57.837524"
     x2="349.76419"
     y2="65.595886" />
  <line
     class="arc1"
     id="link5_@1_4"
     x1="373.49637"
     y1="468.91711"
     x2="358.33194"
     y2="469.6936" />
  <line
     class="arc2"
     id="link5_@2_55"
     x1="373.49637"
     y1="468.91711"
     x2="380.09305"
     y2="453.61914" />
  <line
     class="arc1"
     id="link55_@1_56"
     x1="380.09305"
     y1="453.61914"
     x2="371.52524"
     y2="439.09766" />
  <line
     class="arc2"
     id="link4_@2_50"
     x1="358.33194"
     y1="469.6936"
     x2="349.76419"
     y2="455.17212" />
  <line
     class="arc2"
     id="link56_@2_51"
     x1="371.52524"
     y1="439.09766"
     x2="356.36081"
     y2="439.87415" />
  <line
     class="arc0"
     id="link56_@0_57"
     x1="371.52524"
     y1="439.09766"
     x2="371.52524"
     y2="80.864105" />
  <line
     class="arc1"
     id="link50_@1_51"
     x1="349.76419"
     y1="455.17212"
     x2="356.36081"
     y2="439.87415" />
  <line
     class="arc0"
     id="link51_@0_52"
     x1="356.36081"
     y1="439.87415"
     x2="356.36081"
     y2="81.640625" />
  <line
     class="arc1"
     id="link59_@1_54"
     x1="373.49637"
     y1="47.998108"
     x2="358.33194"
     y2="48.774658" />
  <line
     class="arc2"
     id="link59_@2_58"
     x1="373.49637"
     y1="47.998108"
     x2="380.09305"
     y2="64.042847" />
  <line
     class="arc1"
     id="link58_@1_57"
     x1="380.09305"
     y1="64.042847"
     x2="371.52524"
     y2="80.864105" />
  <line
     class="arc2"
     id="link54_@2_53"
     x1="358.33194"
     y1="48.774658"
     x2="349.76419"
     y2="65.595886" />
  <line
     class="arc2"
     id="link57_@2_52"
     x1="371.52524"
     y1="80.864105"
     x2="356.36081"
     y2="81.640625" />
  <line
     class="arc1"
     id="link53_@1_52"
     x1="349.76419"
     y1="65.595886"
     x2="356.36081"
     y2="81.640625" />
</svg>
