<?xml version="1.0" encoding="UTF-8" standalone="no"?>
<!-- Created with Jerboa -->

<svg
   width="342.01416"
   height="533.68799"
   version="1.1"
   id="svg1"
   sodipodi:docname="build-init-v3-8.svg"
   inkscape:version="1.3.2 (091e20ef0f, 2023-11-25, custom)"
   xmlns:inkscape="http://www.inkscape.org/namespaces/inkscape"
   xmlns:sodipodi="http://sodipodi.sourceforge.net/DTD/sodipodi-0.dtd"
   xmlns="http://www.w3.org/2000/svg"
   xmlns:svg="http://www.w3.org/2000/svg">
  <defs
     id="defs1" />
  <sodipodi:namedview
     id="namedview1"
     pagecolor="#ffffff"
     bordercolor="#000000"
     borderopacity="0.25"
     inkscape:showpageshadow="2"
     inkscape:pageopacity="0.0"
     inkscape:pagecheckerboard="0"
     inkscape:deskcolor="#d1d1d1"
     showgrid="false"
     inkscape:zoom="0.87677054"
     inkscape:cx="173.36349"
     inkscape:cy="326.76737"
     inkscape:window-width="1892"
     inkscape:window-height="1034"
     inkscape:window-x="9"
     inkscape:window-y="27"
     inkscape:window-maximized="1"
     inkscape:current-layer="svg1" />
  <style
     id="style">
		.arc0 {
			fill:none;
			fill-rule:evenodd;
			stroke:black;
			stroke-width:4;
			stroke-linecap:round;
			stroke-linejoin:round;
			stroke-opacity:1;
		}
		.arc1 {
			fill:none;
			fill-rule:evenodd;
			stroke:red;
			stroke-width:4;
			stroke-linecap:round;
			stroke-linejoin:round;
			stroke-opacity:1;
		}
		.arc2 {
			fill:none;
			fill-rule:evenodd;
			stroke:blue;
			stroke-width:4;
			stroke-linecap:round;
			stroke-linejoin:round;
			stroke-opacity:1;
		}
		.arc3 {
			fill:none;
			fill-rule:evenodd;
			stroke:green;
			stroke-width:4;
			stroke-linecap:round;
			stroke-linejoin:round;
			stroke-opacity:1;
		}
		.topological-dart {
			fill:#000000;
			stroke:#000000;
			stroke-width:0;
			stroke-linecap:round;
			stroke-linejoin:round;
			stroke-dasharray:none;
			paint-order:markers fill stroke;
		}
	</style>
  <polygon
     points="661.9783,351.51187 669.6081,342.8808 846.4969,352.41992 854.1267,361.9147 851.64935,569.4175 844.0194,578.0485 669.6081,568.17694 661.9783,558.6822 "
     id="face_20_21_16_15_14_13_18_19"
     style="fill:#c0c0c0;stroke:none"
     opacity="1"
     transform="translate(-519.26495,-77.889969)" />
  <line
     class="arc1"
     id="link19_@1_18"
     x1="142.71332"
     y1="480.79224"
     x2="150.34314"
     y2="490.28699" />
  <line
     class="arc2"
     id="link19_@2_24"
     x1="142.71332"
     y1="480.79224"
     x2="130.12866"
     y2="481.02539" />
  <line
     class="arc0"
     id="link19_@0_20"
     x1="142.71332"
     y1="480.79224"
     x2="142.71332"
     y2="273.62192" />
  <polygon
     points="649.3936,351.74503 644.4387,343.34708 531.1747,358.54803 522.4049,372.59146 522.4049,570.69885 531.1747,583.8442 644.4387,568.6432 649.3936,558.91534 "
     id="face_25_26_31_30_29_28_23_24"
     style="fill:#c0c0c0;stroke:none"
     opacity="1"
     transform="translate(-519.26495,-77.889969)" />
  <line
     class="arc1"
     id="link24_@1_23"
     x1="130.12866"
     y1="481.02539"
     x2="125.17377"
     y2="490.75323" />
  <line
     class="arc0"
     id="link24_@0_25"
     x1="130.12866"
     y1="481.02539"
     x2="130.12866"
     y2="273.85507" />
  <line
     class="arc2"
     id="link18_@2_0"
     x1="150.34314"
     y1="490.28699"
     x2="145.38831"
     y2="500.01489" />
  <line
     class="arc0"
     id="link18_@0_13"
     x1="150.34314"
     y1="490.28699"
     x2="324.75446"
     y2="500.15857" />
  <line
     class="arc2"
     id="link23_@2_1"
     x1="125.17377"
     y1="490.75323"
     x2="132.80359"
     y2="500.24799" />
  <line
     class="arc0"
     id="link23_@0_28"
     x1="125.17377"
     y1="490.75323"
     x2="11.909729"
     y2="505.95422" />
  <polygon
     points="839.06464,587.7764 841.73956,588.8733 728.4756,604.0742 712.07587,608.62286 545.2944,599.1831 538.8045,593.3389 652.06854,578.13794 664.65326,577.90485 "
     id="face_7_6_5_4_3_2_1_0"
     style="fill:#c0c0c0;stroke:none"
     opacity="1"
     transform="translate(-519.26495,-77.889969)" />
  <line
     class="arc1"
     id="link0_@1_1"
     x1="145.38831"
     y1="500.01489"
     x2="132.80359"
     y2="500.24799" />
  <line
     class="arc0"
     id="link0_@0_7"
     x1="145.38831"
     y1="500.01489"
     x2="319.79968"
     y2="509.88647" />
  <line
     class="arc0"
     id="link1_@0_2"
     x1="132.80359"
     y1="500.24799"
     x2="19.539551"
     y2="515.44897" />
  <line
     class="arc1"
     id="link20_@1_21"
     x1="142.71332"
     y1="273.62192"
     x2="150.34314"
     y2="264.99084" />
  <line
     class="arc2"
     id="link20_@2_25"
     x1="142.71332"
     y1="273.62192"
     x2="130.12866"
     y2="273.85507" />
  <line
     class="arc1"
     id="link25_@1_26"
     x1="130.12866"
     y1="273.85507"
     x2="125.17377"
     y2="265.45712" />
  <line
     class="arc2"
     id="link21_@2_22"
     x1="150.34314"
     y1="264.99084"
     x2="145.38831"
     y2="256.59293" />
  <line
     class="arc0"
     id="link21_@0_16"
     x1="150.34314"
     y1="264.99084"
     x2="327.23193"
     y2="274.52997" />
  <line
     class="arc2"
     id="link26_@2_27"
     x1="125.17377"
     y1="265.45712"
     x2="132.80359"
     y2="256.82605" />
  <line
     class="arc0"
     id="link26_@0_31"
     x1="125.17377"
     y1="265.45712"
     x2="11.909729"
     y2="280.65808" />
  <polygon
     points="652.06854,334.716 664.65326,334.48288 844.0194,343.6895 849.1719,344.45386 800.3672,344.8526 721.0432,361.64975 707.12103,356.80304 545.2944,346.6983 538.8045,349.91696 "
     id="face_17_12_50_49_47_42_37_32_27_22"
     style="fill:#c0c0c0;stroke:none"
     opacity="1"
     transform="translate(-519.26495,-77.889969)" />
  <line
     class="arc1"
     id="link22_@1_27"
     x1="145.38831"
     y1="256.59293"
     x2="132.80359"
     y2="256.82605" />
  <line
     class="arc3"
     id="link22_@3_82"
     x1="145.38831"
     y1="256.59293"
     x2="147.48871"
     y2="239.05876" />
  <line
     class="arc0"
     id="link22_@0_17"
     x1="145.38831"
     y1="256.59293"
     x2="324.75446"
     y2="265.79956" />
  <line
     class="arc3"
     id="link27_@3_76"
     x1="132.80359"
     y1="256.82605"
     x2="134.90405"
     y2="239.29189" />
  <line
     class="arc0"
     id="link27_@0_32"
     x1="132.80359"
     y1="256.82605"
     x2="19.539551"
     y2="272.02701" />
  <polygon
     points="654.169,317.18185 666.75366,316.94873 838.4901,325.7235 843.6425,326.48782 799.7927,335.2845 794.8379,335.94946 720.46875,343.01874 710.36145,342.9194 548.53485,332.81464 545.85986,331.7178 "
     id="face_88_94_100_106_52_58_64_70_76_82"
     style="fill:#c0c0c0;stroke:none"
     opacity="1"
     transform="translate(-519.26495,-77.889969)" />
  <line
     class="arc1"
     id="link82_@1_76"
     x1="147.48871"
     y1="239.05876"
     x2="134.90405"
     y2="239.29189" />
  <line
     class="arc2"
     id="link82_@2_83"
     x1="147.48871"
     y1="239.05876"
     x2="154.54413"
     y2="229.92247" />
  <line
     class="arc0"
     id="link82_@0_88"
     x1="147.48871"
     y1="239.05876"
     x2="319.22516"
     y2="247.83354" />
  <polygon
     points="727.73016,131.20752 709.99304,130.67627 668.27966,298.90927 673.8091,307.81244 835.4382,316.48785 837.5386,308.01654 "
     id="face_89_90_91_85_84_83"
     style="fill:#c0c0c0;stroke:none"
     opacity="1"
     transform="translate(-519.26495,-77.889969)" />
  <line
     class="arc1"
     id="link83_@1_84"
     x1="154.54413"
     y1="229.92247"
     x2="149.01471"
     y2="221.0193" />
  <line
     class="arc0"
     id="link83_@0_89"
     x1="154.54413"
     y1="229.92247"
     x2="316.17322"
     y2="238.59789" />
  <line
     class="arc2"
     id="link76_@2_77"
     x1="134.90405"
     y1="239.29189"
     x2="129.37469"
     y2="230.38878" />
  <line
     class="arc0"
     id="link76_@0_70"
     x1="134.90405"
     y1="239.29189"
     x2="26.59491"
     y2="253.82784" />
  <line
     class="arc2"
     id="link84_@2_78"
     x1="149.01471"
     y1="221.0193"
     x2="136.43005"
     y2="221.25243" />
  <line
     class="arc0"
     id="link84_@0_85"
     x1="149.01471"
     y1="221.0193"
     x2="190.72809"
     y2="52.786301" />
  <polygon
     points="687.49866,132.23944 697.4084,130.90942 655.695,299.1424 648.63965,308.27875 545.2854,322.1497 547.3858,313.6784 "
     id="face_71_72_73_79_78_77"
     style="fill:#c0c0c0;stroke:none"
     opacity="1"
     transform="translate(-519.26495,-77.889969)" />
  <line
     class="arc1"
     id="link77_@1_78"
     x1="129.37469"
     y1="230.38878"
     x2="136.43005"
     y2="221.25243" />
  <line
     class="arc0"
     id="link77_@0_71"
     x1="129.37469"
     y1="230.38878"
     x2="26.020447"
     y2="244.25972" />
  <line
     class="arc0"
     id="link78_@0_79"
     x1="136.43005"
     y1="221.25243"
     x2="178.14343"
     y2="53.019455" />
  <line
     class="arc1"
     id="link13_@1_14"
     x1="324.75446"
     y1="500.15857"
     x2="332.3844"
     y2="491.52753" />
  <line
     class="arc2"
     id="link13_@2_7"
     x1="324.75446"
     y1="500.15857"
     x2="319.79968"
     y2="509.88647" />
  <line
     class="arc2"
     id="link14_@2_9"
     x1="332.3844"
     y1="491.52753"
     x2="335.05927"
     y2="492.62439" />
  <line
     class="arc0"
     id="link14_@0_15"
     x1="332.3844"
     y1="491.52753"
     x2="334.86176"
     y2="284.02475" />
  <line
     class="arc1"
     id="link7_@1_6"
     x1="319.79968"
     y1="509.88647"
     x2="322.47461"
     y2="510.98334" />
  <line
     class="arc1"
     id="link16_@1_15"
     x1="327.23193"
     y1="274.52997"
     x2="334.86176"
     y2="284.02475" />
  <line
     class="arc2"
     id="link16_@2_17"
     x1="327.23193"
     y1="274.52997"
     x2="324.75446"
     y2="265.79956" />
  <polygon
     points="849.3694,580.2422 854.3242,570.51434 859.2791,362.67902 856.8017,353.94858 800.3672,344.8526 728.67303,371.14447 730.0105,385.28726 734.9654,582.7297 736.10535,595.4432 "
     id="face_10_11_51_48_46_45_44_43_8_9"
     style="fill:#c0c0c0;stroke:none"
     opacity="1"
     transform="translate(-519.26495,-77.889969)" />
  <line
     class="arc1"
     id="link9_@1_8"
     x1="335.05927"
     y1="492.62439"
     x2="330.10443"
     y2="502.35223" />
  <line
     class="arc0"
     id="link9_@0_10"
     x1="335.05927"
     y1="492.62439"
     x2="340.01416"
     y2="284.78906" />
  <line
     class="arc2"
     id="link6_@2_8"
     x1="322.47461"
     y1="510.98334"
     x2="330.10443"
     y2="502.35223" />
  <line
     class="arc0"
     id="link6_@0_5"
     x1="322.47461"
     y1="510.98334"
     x2="209.21063"
     y2="526.18427" />
  <line
     class="arc2"
     id="link15_@2_10"
     x1="334.86176"
     y1="284.02475"
     x2="340.01416"
     y2="284.78906" />
  <line
     class="arc1"
     id="link17_@1_12"
     x1="324.75446"
     y1="265.79956"
     x2="329.90692"
     y2="266.5639" />
  <line
     class="arc3"
     id="link17_@3_88"
     x1="324.75446"
     y1="265.79956"
     x2="319.22516"
     y2="247.83354" />
  <line
     class="arc1"
     id="link89_@1_90"
     x1="316.17322"
     y1="238.59789"
     x2="318.27362"
     y2="230.12657" />
  <line
     class="arc2"
     id="link89_@2_88"
     x1="316.17322"
     y1="238.59789"
     x2="319.22516"
     y2="247.83354" />
  <line
     class="arc1"
     id="link88_@1_94"
     x1="319.22516"
     y1="247.83354"
     x2="324.37756"
     y2="248.59785" />
  <line
     class="arc0"
     id="link8_@0_43"
     x1="330.10443"
     y1="502.35223"
     x2="216.84039"
     y2="517.55322" />
  <line
     class="arc1"
     id="link10_@1_11"
     x1="340.01416"
     y1="284.78906"
     x2="337.53674"
     y2="276.05862" />
  <line
     class="arc2"
     id="link12_@2_11"
     x1="329.90692"
     y1="266.5639"
     x2="337.53674"
     y2="276.05862" />
  <line
     class="arc3"
     id="link12_@3_94"
     x1="329.90692"
     y1="266.5639"
     x2="324.37756"
     y2="248.59785" />
  <line
     class="arc0"
     id="link12_@0_50"
     x1="329.90692"
     y1="266.5639"
     x2="281.10223"
     y2="266.96265" />
  <line
     class="arc2"
     id="link90_@2_96"
     x1="318.27362"
     y1="230.12657"
     x2="323.42609"
     y2="230.89091" />
  <line
     class="arc0"
     id="link90_@0_91"
     x1="318.27362"
     y1="230.12657"
     x2="208.46521"
     y2="53.317551" />
  <line
     class="arc2"
     id="link94_@2_95"
     x1="324.37756"
     y1="248.59785"
     x2="326.47797"
     y2="240.12657" />
  <line
     class="arc0"
     id="link94_@0_100"
     x1="324.37756"
     y1="248.59785"
     x2="280.52777"
     y2="257.39453" />
  <line
     class="arc0"
     id="link11_@0_51"
     x1="337.53674"
     y1="276.05862"
     x2="281.10223"
     y2="266.96265" />
  <polygon
     points="793.6888,316.81317 799.21814,325.71637 845.7429,318.01654 842.69104,308.78088 732.8825,131.97186 733.0801,133.40118 "
     id="face_97_103_102_101_95_96"
     style="fill:#00ff00;stroke:none"
     opacity="1"
     transform="translate(-519.26495,-77.889969)" />
  <line
     class="arc1"
     id="link96_@1_95"
     x1="323.42609"
     y1="230.89091"
     x2="326.47797"
     y2="240.12657" />
  <line
     class="arc0"
     id="link96_@0_97"
     x1="323.42609"
     y1="230.89091"
     x2="213.61755"
     y2="54.081894" />
  <line
     class="arc0"
     id="link95_@0_101"
     x1="326.47797"
     y1="240.12657"
     x2="279.95319"
     y2="247.8264" />
  <line
     class="arc1"
     id="link28_@1_29"
     x1="11.909729"
     y1="505.95422"
     x2="3.1399536"
     y2="492.8089" />
  <line
     class="arc2"
     id="link28_@2_2"
     x1="11.909729"
     y1="505.95422"
     x2="19.539551"
     y2="515.44897" />
  <line
     class="arc1"
     id="link2_@1_3"
     x1="19.539551"
     y1="515.44897"
     x2="26.029419"
     y2="521.29315" />
  <line
     class="arc2"
     id="link29_@2_34"
     x1="3.1399536"
     y1="492.8089"
     x2="2"
     y2="489.15839" />
  <line
     class="arc0"
     id="link29_@0_30"
     x1="3.1399536"
     y1="492.8089"
     x2="3.1399536"
     y2="294.70151" />
  <line
     class="arc1"
     id="link85_@1_91"
     x1="190.72809"
     y1="52.786301"
     x2="208.46521"
     y2="53.317551" />
  <line
     class="arc2"
     id="link85_@2_79"
     x1="190.72809"
     y1="52.786301"
     x2="178.14343"
     y2="53.019455" />
  <line
     class="arc1"
     id="link79_@1_73"
     x1="178.14343"
     y1="53.019455"
     x2="168.2337"
     y2="54.349472" />
  <polygon
     points="603.5158,469.06396 603.5158,487.18976 527.7549,572.8925 521.26495,567.04834 521.26495,378.00385 527.7549,374.7851 "
     id="face_35_116_117_115_114_34"
     style="fill:#c0c0c0;stroke:none"
     opacity="1"
     transform="translate(-519.26495,-77.889969)" />
  <line
     class="arc1"
     id="link34_@1_114"
     x1="2"
     y1="489.15839"
     x2="8.4899292"
     y2="495.00256" />
  <line
     class="arc0"
     id="link34_@0_35"
     x1="2"
     y1="489.15839"
     x2="2"
     y2="300.11389" />
  <line
     class="arc2"
     id="link91_@2_97"
     x1="208.46521"
     y1="53.317551"
     x2="213.61755"
     y2="54.081894" />
  <line
     class="arc2"
     id="link3_@2_33"
     x1="26.029419"
     y1="521.29315"
     x2="24.889526"
     y2="517.64264" />
  <line
     class="arc0"
     id="link3_@0_4"
     x1="26.029419"
     y1="521.29315"
     x2="192.81091"
     y2="530.73291" />
  <line
     class="arc1"
     id="link31_@1_30"
     x1="11.909729"
     y1="280.65808"
     x2="3.1399536"
     y2="294.70151" />
  <line
     class="arc2"
     id="link31_@2_32"
     x1="11.909729"
     y1="280.65808"
     x2="19.539551"
     y2="272.02701" />
  <line
     class="arc1"
     id="link71_@1_72"
     x1="26.020447"
     y1="244.25972"
     x2="28.12085"
     y2="235.78844" />
  <line
     class="arc2"
     id="link71_@2_70"
     x1="26.020447"
     y1="244.25972"
     x2="26.59491"
     y2="253.82784" />
  <line
     class="arc2"
     id="link30_@2_35"
     x1="3.1399536"
     y1="294.70151"
     x2="2"
     y2="300.11389" />
  <line
     class="arc1"
     id="link32_@1_37"
     x1="19.539551"
     y1="272.02701"
     x2="26.029419"
     y2="268.80835" />
  <line
     class="arc3"
     id="link32_@3_70"
     x1="19.539551"
     y1="272.02701"
     x2="26.59491"
     y2="253.82784" />
  <line
     class="arc1"
     id="link97_@1_103"
     x1="213.61755"
     y1="54.081894"
     x2="213.81512"
     y2="55.511215" />
  <line
     class="arc1"
     id="link70_@1_64"
     x1="26.59491"
     y1="253.82784"
     x2="29.269897"
     y2="254.92467" />
  <line
     class="arc2"
     id="link73_@2_67"
     x1="168.2337"
     y1="54.349472"
     x2="170.90869"
     y2="55.446274" />
  <line
     class="arc0"
     id="link73_@0_72"
     x1="168.2337"
     y1="54.349472"
     x2="28.12085"
     y2="235.78844" />
  <line
     class="arc2"
     id="link72_@2_66"
     x1="28.12085"
     y1="235.78844"
     x2="30.795837"
     y2="236.88521" />
  <polygon
     points="626.4052,497.54822 611.1456,496.6845 535.3847,582.38727 544.1545,595.5326 703.30615,604.54047 702.1662,591.827 "
     id="face_38_126_127_113_112_33"
     style="fill:#c0c0c0;stroke:none"
     opacity="1"
     transform="translate(-519.26495,-77.889969)" />
  <line
     class="arc1"
     id="link33_@1_112"
     x1="24.889526"
     y1="517.64264"
     x2="16.119751"
     y2="504.49731" />
  <line
     class="arc0"
     id="link33_@0_38"
     x1="24.889526"
     y1="517.64264"
     x2="184.0412"
     y2="526.65051" />
  <line
     class="arc2"
     id="link114_@2_112"
     x1="8.4899292"
     y1="495.00256"
     x2="16.119751"
     y2="504.49731" />
  <line
     class="arc0"
     id="link114_@0_115"
     x1="8.4899292"
     y1="495.00256"
     x2="84.250854"
     y2="409.2998" />
  <line
     class="arc1"
     id="link35_@1_116"
     x1="2"
     y1="300.11389"
     x2="8.4899292"
     y2="296.89514" />
  <line
     class="arc0"
     id="link112_@0_113"
     x1="16.119751"
     y1="504.49731"
     x2="91.880676"
     y2="418.79456" />
  <line
     class="arc2"
     id="link64_@2_65"
     x1="29.269897"
     y1="254.92467"
     x2="31.370361"
     y2="246.45341" />
  <line
     class="arc3"
     id="link64_@3_37"
     x1="29.269897"
     y1="254.92467"
     x2="26.029419"
     y2="268.80835" />
  <line
     class="arc0"
     id="link64_@0_58"
     x1="29.269897"
     y1="254.92467"
     x2="191.0965"
     y2="265.02945" />
  <line
     class="arc2"
     id="link37_@2_36"
     x1="26.029419"
     y1="268.80835"
     x2="24.889526"
     y2="274.22067" />
  <line
     class="arc0"
     id="link37_@0_42"
     x1="26.029419"
     y1="268.80835"
     x2="187.85608"
     y2="278.91309" />
  <polygon
     points="707.3096,333.68378 714.3648,324.5475 702.9558,134.53241 690.17365,133.33624 550.0608,314.77518 550.6353,324.34338 "
     id="face_66_65_59_60_61_67"
     style="fill:#c0c0c0;stroke:none"
     opacity="1"
     transform="translate(-519.26495,-77.889969)" />
  <line
     class="arc1"
     id="link67_@1_61"
     x1="170.90869"
     y1="55.446274"
     x2="183.69086"
     y2="56.642441" />
  <line
     class="arc0"
     id="link67_@0_66"
     x1="170.90869"
     y1="55.446274"
     x2="30.795837"
     y2="236.88521" />
  <line
     class="arc1"
     id="link66_@1_65"
     x1="30.795837"
     y1="236.88521"
     x2="31.370361"
     y2="246.45341" />
  <line
     class="arc2"
     id="link103_@2_109"
     x1="213.81512"
     y1="55.511215"
     x2="208.86023"
     y2="56.176193" />
  <line
     class="arc0"
     id="link103_@0_102"
     x1="213.81512"
     y1="55.511215"
     x2="274.42383"
     y2="238.9232" />
  <line
     class="arc0"
     id="link65_@0_59"
     x1="31.370361"
     y1="246.45341"
     x2="188.04462"
     y2="255.79381" />
  <polygon
     points="727.52405,333.88248 724.47217,324.64682 713.0631,134.63177 728.1252,134.06616 788.734,317.47818 789.3085,327.04636 "
     id="face_108_107_53_54_55_109"
     style="fill:#c0c0c0;stroke:none;fill-opacity:1"
     opacity="1"
     transform="translate(-519.26495,-77.889969)" />
  <line
     class="arc1"
     id="link109_@1_55"
     x1="208.86023"
     y1="56.176193"
     x2="193.79816"
     y2="56.741806" />
  <line
     class="arc0"
     id="link109_@0_108"
     x1="208.86023"
     y1="56.176193"
     x2="269.46906"
     y2="239.58821" />
  <line
     class="arc2"
     id="link116_@2_118"
     x1="8.4899292"
     y1="296.89514"
     x2="16.119751"
     y2="288.2641" />
  <line
     class="arc0"
     id="link116_@0_117"
     x1="8.4899292"
     y1="296.89514"
     x2="84.250854"
     y2="391.17401" />
  <polygon
     points="626.4052,461.29663 611.1456,460.43292 535.3847,366.15405 544.1545,352.11063 700.82874,361.45105 702.1662,375.5938 "
     id="face_41_120_121_119_118_36"
     style="fill:#c0c0c0;stroke:none"
     opacity="1"
     transform="translate(-519.26495,-77.889969)" />
  <line
     class="arc1"
     id="link36_@1_118"
     x1="24.889526"
     y1="274.22067"
     x2="16.119751"
     y2="288.2641" />
  <line
     class="arc0"
     id="link36_@0_41"
     x1="24.889526"
     y1="274.22067"
     x2="181.56378"
     y2="283.5611" />
  <line
     class="arc2"
     id="link61_@2_55"
     x1="183.69086"
     y1="56.642441"
     x2="193.79816"
     y2="56.741806" />
  <line
     class="arc0"
     id="link61_@0_60"
     x1="183.69086"
     y1="56.642441"
     x2="195.09985"
     y2="246.65752" />
  <line
     class="arc0"
     id="link118_@0_119"
     x1="16.119751"
     y1="288.2641"
     x2="91.880676"
     y2="382.54297" />
  <line
     class="arc0"
     id="link55_@0_54"
     x1="193.79816"
     y1="56.741806"
     x2="205.20721"
     y2="246.75685" />
  <line
     class="arc1"
     id="link101_@1_102"
     x1="279.95319"
     y1="247.8264"
     x2="274.42383"
     y2="238.9232" />
  <line
     class="arc2"
     id="link101_@2_100"
     x1="279.95319"
     y1="247.8264"
     x2="280.52777"
     y2="257.39453" />
  <line
     class="arc2"
     id="link102_@2_108"
     x1="274.42383"
     y1="238.9232"
     x2="269.46906"
     y2="239.58821" />
  <line
     class="arc1"
     id="link100_@1_106"
     x1="280.52777"
     y1="257.39453"
     x2="275.57294"
     y2="258.05951" />
  <line
     class="arc3"
     id="link100_@3_50"
     x1="280.52777"
     y1="257.39453"
     x2="281.10223"
     y2="266.96265" />
  <line
     class="arc1"
     id="link48_@1_51"
     x1="281.10223"
     y1="266.96265"
     x2="281.10223"
     y2="266.96265" />
  <line
     class="arc2"
     id="link48_@2_49"
     x1="281.10223"
     y1="266.96265"
     x2="281.10223"
     y2="266.96265" />
  <line
     class="arc0"
     id="link48_@0_46"
     x1="281.10223"
     y1="266.96265"
     x2="209.40808"
     y2="293.25452" />
  <line
     class="arc1"
     id="link49_@1_50"
     x1="281.10223"
     y1="266.96265"
     x2="281.10223"
     y2="266.96265" />
  <line
     class="arc3"
     id="link49_@3_106"
     x1="281.10223"
     y1="266.96265"
     x2="275.57294"
     y2="258.05951" />
  <line
     class="arc0"
     id="link49_@0_47"
     x1="281.10223"
     y1="266.96265"
     x2="201.77826"
     y2="283.7598" />
  <line
     class="arc2"
     id="link50_@2_51"
     x1="281.10223"
     y1="266.96265"
     x2="281.10223"
     y2="266.96265" />
  <line
     class="arc1"
     id="link108_@1_107"
     x1="269.46906"
     y1="239.58821"
     x2="270.04352"
     y2="249.15639" />
  <line
     class="arc2"
     id="link106_@2_107"
     x1="275.57294"
     y1="258.05951"
     x2="270.04352"
     y2="249.15639" />
  <line
     class="arc0"
     id="link106_@0_52"
     x1="275.57294"
     y1="258.05951"
     x2="201.2038"
     y2="265.12878" />
  <line
     class="arc0"
     id="link107_@0_53"
     x1="270.04352"
     y1="249.15639"
     x2="208.25909"
     y2="255.99251" />
  <line
     class="arc1"
     id="link115_@1_117"
     x1="84.250854"
     y1="409.2998"
     x2="84.250854"
     y2="391.17401" />
  <line
     class="arc2"
     id="link115_@2_113"
     x1="84.250854"
     y1="409.2998"
     x2="91.880676"
     y2="418.79456" />
  <line
     class="arc2"
     id="link117_@2_119"
     x1="84.250854"
     y1="391.17401"
     x2="91.880676"
     y2="382.54297" />
  <line
     class="arc1"
     id="link113_@1_127"
     x1="91.880676"
     y1="418.79456"
     x2="107.14026"
     y2="419.65826" />
  <line
     class="arc1"
     id="link119_@1_121"
     x1="91.880676"
     y1="382.54297"
     x2="107.14026"
     y2="383.40668" />
  <line
     class="arc2"
     id="link127_@2_125"
     x1="107.14026"
     y1="419.65826"
     x2="114.77008"
     y2="411.02716" />
  <line
     class="arc0"
     id="link127_@0_126"
     x1="107.14026"
     y1="419.65826"
     x2="182.90125"
     y2="513.93707" />
  <line
     class="arc2"
     id="link121_@2_123"
     x1="107.14026"
     y1="383.40668"
     x2="114.77008"
     y2="392.90143" />
  <line
     class="arc0"
     id="link121_@0_120"
     x1="107.14026"
     y1="383.40668"
     x2="182.90125"
     y2="297.70386" />
  <polygon
     points="723.71814,389.9353 709.796,385.08856 634.03503,470.79138 634.03503,488.9171 709.796,583.196 726.1956,578.64734 "
     id="face_124_39_40_122_123_125"
     style="fill:#c0c0c0;stroke:none"
     opacity="1"
     transform="translate(-519.26495,-77.889969)" />
  <line
     class="arc1"
     id="link125_@1_123"
     x1="114.77008"
     y1="411.02716"
     x2="114.77008"
     y2="392.90143" />
  <line
     class="arc0"
     id="link125_@0_124"
     x1="114.77008"
     y1="411.02716"
     x2="190.53107"
     y2="505.30603" />
  <line
     class="arc0"
     id="link123_@0_122"
     x1="114.77008"
     y1="392.90143"
     x2="190.53107"
     y2="307.19861" />
  <line
     class="arc1"
     id="link4_@1_5"
     x1="192.81091"
     y1="530.73291"
     x2="209.21063"
     y2="526.18427" />
  <line
     class="arc2"
     id="link4_@2_38"
     x1="192.81091"
     y1="530.73291"
     x2="184.0412"
     y2="526.65051" />
  <line
     class="arc2"
     id="link5_@2_43"
     x1="209.21063"
     y1="526.18427"
     x2="216.84039"
     y2="517.55322" />
  <line
     class="arc1"
     id="link38_@1_126"
     x1="184.0412"
     y1="526.65051"
     x2="182.90125"
     y2="513.93707" />
  <line
     class="arc1"
     id="link43_@1_44"
     x1="216.84039"
     y1="517.55322"
     x2="215.70044"
     y2="504.83972" />
  <line
     class="arc2"
     id="link44_@2_39"
     x1="215.70044"
     y1="504.83972"
     x2="206.93066"
     y2="500.75739" />
  <line
     class="arc0"
     id="link44_@0_45"
     x1="215.70044"
     y1="504.83972"
     x2="210.74554"
     y2="307.39731" />
  <line
     class="arc2"
     id="link126_@2_124"
     x1="182.90125"
     y1="513.93707"
     x2="190.53107"
     y2="505.30603" />
  <line
     class="arc1"
     id="link39_@1_124"
     x1="206.93066"
     y1="500.75739"
     x2="190.53107"
     y2="505.30603" />
  <line
     class="arc0"
     id="link39_@0_40"
     x1="206.93066"
     y1="500.75739"
     x2="204.45319"
     y2="312.04535" />
  <line
     class="arc1"
     id="link59_@1_60"
     x1="188.04462"
     y1="255.79381"
     x2="195.09985"
     y2="246.65752" />
  <line
     class="arc2"
     id="link59_@2_58"
     x1="188.04462"
     y1="255.79381"
     x2="191.0965"
     y2="265.02945" />
  <line
     class="arc2"
     id="link60_@2_54"
     x1="195.09985"
     y1="246.65752"
     x2="205.20721"
     y2="246.75685" />
  <line
     class="arc1"
     id="link54_@1_53"
     x1="205.20721"
     y1="246.75685"
     x2="208.25909"
     y2="255.99251" />
  <line
     class="arc1"
     id="link58_@1_52"
     x1="191.0965"
     y1="265.02945"
     x2="201.2038"
     y2="265.12878" />
  <line
     class="arc3"
     id="link58_@3_42"
     x1="191.0965"
     y1="265.02945"
     x2="187.85608"
     y2="278.91309" />
  <line
     class="arc2"
     id="link52_@2_53"
     x1="201.2038"
     y1="265.12878"
     x2="208.25909"
     y2="255.99251" />
  <line
     class="arc3"
     id="link52_@3_47"
     x1="201.2038"
     y1="265.12878"
     x2="201.77826"
     y2="283.7598" />
  <line
     class="arc1"
     id="link42_@1_47"
     x1="187.85608"
     y1="278.91309"
     x2="201.77826"
     y2="283.7598" />
  <line
     class="arc2"
     id="link42_@2_41"
     x1="187.85608"
     y1="278.91309"
     x2="181.56378"
     y2="283.5611" />
  <line
     class="arc1"
     id="link41_@1_120"
     x1="181.56378"
     y1="283.5611"
     x2="182.90125"
     y2="297.70386" />
  <line
     class="arc2"
     id="link47_@2_46"
     x1="201.77826"
     y1="283.7598"
     x2="209.40808"
     y2="293.25452" />
  <line
     class="arc2"
     id="link120_@2_122"
     x1="182.90125"
     y1="297.70386"
     x2="190.53107"
     y2="307.19861" />
  <line
     class="arc1"
     id="link46_@1_45"
     x1="209.40808"
     y1="293.25452"
     x2="210.74554"
     y2="307.39731" />
  <line
     class="arc1"
     id="link122_@1_40"
     x1="190.53107"
     y1="307.19861"
     x2="204.45319"
     y2="312.04535" />
  <line
     class="arc2"
     id="link45_@2_40"
     x1="210.74554"
     y1="307.39731"
     x2="204.45319"
     y2="312.04535" />
</svg>
