<?xml version="1.0" encoding="UTF-8" standalone="no"?>
<!-- Created with Jerboa -->

<svg
	width="1412"
	height="651" >
	<style id="style">
		.arc0 {
			fill:none;
			fill-rule:evenodd;
			stroke:black;
			stroke-width:4;
			stroke-linecap:round;
			stroke-linejoin:round;
			stroke-opacity:1;
		}
		.arc1 {
			fill:none;
			fill-rule:evenodd;
			stroke:red;
			stroke-width:4;
			stroke-linecap:round;
			stroke-linejoin:round;
			stroke-opacity:1;
		}
		.arc2 {
			fill:none;
			fill-rule:evenodd;
			stroke:blue;
			stroke-width:4;
			stroke-linecap:round;
			stroke-linejoin:round;
			stroke-opacity:1;
		}
		.arc3 {
			fill:none;
			fill-rule:evenodd;
			stroke:green;
			stroke-width:4;
			stroke-linecap:round;
			stroke-linejoin:round;
			stroke-opacity:1;
		}
		.topological-dart {
			fill:#000000;
			stroke:#000000;
			stroke-width:0;
			stroke-linecap:round;
			stroke-linejoin:round;
			stroke-dasharray:none;
			paint-order:markers fill stroke;
		}
	</style>
<polygon
	points="657.0753,479.89288 657.0753,121.65936 670.2686,106.73468 971.8562,123.80444 985.04956,140.2226 985.04956,498.45612 971.8562,513.38074 670.2686,496.31097 "
	id="face_20_21_16_15_14_13_18_19"
	style="fill:rgb(192,192,192);stroke:none"
	opacity="1.0" />
<line
	class="arc1"
	id="link19_@1_18"
	x1="657.0753"
	y1="479.89288"
	x2="670.2686"
	y2="496.31097" />
<line
	class="arc2"
	id="link19_@2_24"
	x1="657.0753"
	y1="479.89288"
	x2="635.3142"
	y2="480.29605" />
<line
	class="arc0"
	id="link19_@0_20"
	x1="657.0753"
	y1="479.89288"
	x2="657.0753"
	y2="121.65936" />
<polygon
	points="635.3142,480.29605 635.3142,122.0625 626.74634,107.541016 430.8931,133.82605 422.32523,150.64731 422.32523,508.88086 430.8931,523.40234 626.74634,497.11725 "
	id="face_25_26_31_30_29_28_23_24"
	style="fill:rgb(192,192,192);stroke:none"
	opacity="1.0" />
<line
	class="arc1"
	id="link24_@1_23"
	x1="635.3142"
	y1="480.29605"
	x2="626.74634"
	y2="497.11725" />
<line
	class="arc0"
	id="link24_@0_25"
	x1="635.3142"
	y1="480.29605"
	x2="635.3142"
	y2="122.0625" />
<line
	class="arc2"
	id="link18_@2_0"
	x1="670.2686"
	y1="496.31097"
	x2="661.7008"
	y2="513.1322" />
<line
	class="arc0"
	id="link18_@0_13"
	x1="670.2686"
	y1="496.31097"
	x2="971.8562"
	y2="513.38074" />
<line
	class="arc2"
	id="link23_@2_1"
	x1="626.74634"
	y1="497.11725"
	x2="639.93964"
	y2="513.53534" />
<line
	class="arc0"
	id="link23_@0_28"
	x1="626.74634"
	y1="497.11725"
	x2="430.8931"
	y2="523.40234" />
<polygon
	points="661.7008,513.1322 963.2884,530.2019 967.91394,532.0985 772.06067,558.3836 750.2994,558.78674 448.71185,541.71704 444.08643,539.82043 639.93964,513.53534 "
	id="face_7_6_5_4_3_2_1_0"
	style="fill:rgb(192,192,192);stroke:none"
	opacity="1.0" />
<line
	class="arc1"
	id="link0_@1_1"
	x1="661.7008"
	y1="513.1322"
	x2="639.93964"
	y2="513.53534" />
<line
	class="arc0"
	id="link0_@0_7"
	x1="661.7008"
	y1="513.1322"
	x2="963.2884"
	y2="530.2019" />
<line
	class="arc0"
	id="link1_@0_2"
	x1="639.93964"
	y1="513.53534"
	x2="444.08643"
	y2="539.82043" />
<line
	class="arc1"
	id="link20_@1_21"
	x1="657.0753"
	y1="121.65936"
	x2="670.2686"
	y2="106.73468" />
<line
	class="arc2"
	id="link20_@2_25"
	x1="657.0753"
	y1="121.65936"
	x2="635.3142"
	y2="122.0625" />
<line
	class="arc1"
	id="link25_@1_26"
	x1="635.3142"
	y1="122.0625"
	x2="626.74634"
	y2="107.541016" />
<line
	class="arc2"
	id="link21_@2_22"
	x1="670.2686"
	y1="106.73468"
	x2="661.7008"
	y2="92.21326" />
<line
	class="arc0"
	id="link21_@0_16"
	x1="670.2686"
	y1="106.73468"
	x2="971.8562"
	y2="123.80444" />
<line
	class="arc2"
	id="link26_@2_27"
	x1="626.74634"
	y1="107.541016"
	x2="639.93964"
	y2="92.616455" />
<line
	class="arc0"
	id="link26_@0_31"
	x1="626.74634"
	y1="107.541016"
	x2="430.8931"
	y2="133.82605" />
<polygon
	points="661.7008,92.21326 963.2884,109.28302 967.91394,111.17963 772.06067,137.46466 750.2994,137.8678 448.71185,120.798096 444.08643,118.90149 639.93964,92.616455 "
	id="face_17_12_47_42_37_32_27_22"
	style="fill:rgb(192,192,192);stroke:none"
	opacity="1.0" />
<line
	class="arc1"
	id="link22_@1_27"
	x1="661.7008"
	y1="92.21326"
	x2="639.93964"
	y2="92.616455" />
<line
	class="arc0"
	id="link22_@0_17"
	x1="661.7008"
	y1="92.21326"
	x2="963.2884"
	y2="109.28302" />
<line
	class="arc0"
	id="link27_@0_32"
	x1="639.93964"
	y1="92.616455"
	x2="444.08643"
	y2="118.90149" />
<line
	class="arc1"
	id="link13_@1_14"
	x1="971.8562"
	y1="513.38074"
	x2="985.04956"
	y2="498.45612" />
<line
	class="arc2"
	id="link13_@2_7"
	x1="971.8562"
	y1="513.38074"
	x2="963.2884"
	y2="530.2019" />
<line
	class="arc2"
	id="link14_@2_9"
	x1="985.04956"
	y1="498.45612"
	x2="989.6749"
	y2="500.35272" />
<line
	class="arc0"
	id="link14_@0_15"
	x1="985.04956"
	y1="498.45612"
	x2="985.04956"
	y2="140.2226" />
<line
	class="arc1"
	id="link7_@1_6"
	x1="963.2884"
	y1="530.2019"
	x2="967.91394"
	y2="532.0985" />
<polygon
	points="989.6749,500.35272 989.6749,142.1192 981.1071,127.59772 785.25385,153.88275 776.68604,170.70398 776.68604,528.93756 785.25385,543.459 981.1071,517.17395 "
	id="face_10_11_46_45_44_43_8_9"
	style="fill:rgb(192,192,192);stroke:none"
	opacity="1.0" />
<line
	class="arc1"
	id="link9_@1_8"
	x1="989.6749"
	y1="500.35272"
	x2="981.1071"
	y2="517.17395" />
<line
	class="arc0"
	id="link9_@0_10"
	x1="989.6749"
	y1="500.35272"
	x2="989.6749"
	y2="142.1192" />
<line
	class="arc2"
	id="link6_@2_8"
	x1="967.91394"
	y1="532.0985"
	x2="981.1071"
	y2="517.17395" />
<line
	class="arc0"
	id="link6_@0_5"
	x1="967.91394"
	y1="532.0985"
	x2="772.06067"
	y2="558.3836" />
<line
	class="arc1"
	id="link16_@1_15"
	x1="971.8562"
	y1="123.80444"
	x2="985.04956"
	y2="140.2226" />
<line
	class="arc2"
	id="link16_@2_17"
	x1="971.8562"
	y1="123.80444"
	x2="963.2884"
	y2="109.28302" />
<line
	class="arc2"
	id="link15_@2_10"
	x1="985.04956"
	y1="140.2226"
	x2="989.6749"
	y2="142.1192" />
<line
	class="arc0"
	id="link8_@0_43"
	x1="981.1071"
	y1="517.17395"
	x2="785.25385"
	y2="543.459" />
<line
	class="arc1"
	id="link17_@1_12"
	x1="963.2884"
	y1="109.28302"
	x2="967.91394"
	y2="111.17963" />
<line
	class="arc1"
	id="link10_@1_11"
	x1="989.6749"
	y1="142.1192"
	x2="981.1071"
	y2="127.59772" />
<line
	class="arc2"
	id="link12_@2_11"
	x1="967.91394"
	y1="111.17963"
	x2="981.1071"
	y2="127.59772" />
<line
	class="arc0"
	id="link12_@0_47"
	x1="967.91394"
	y1="111.17963"
	x2="772.06067"
	y2="137.46466" />
<line
	class="arc0"
	id="link11_@0_46"
	x1="981.1071"
	y1="127.59772"
	x2="785.25385"
	y2="153.88275" />
<line
	class="arc1"
	id="link28_@1_29"
	x1="430.8931"
	y1="523.40234"
	x2="422.32523"
	y2="508.88086" />
<line
	class="arc2"
	id="link28_@2_2"
	x1="430.8931"
	y1="523.40234"
	x2="444.08643"
	y2="539.82043" />
<line
	class="arc1"
	id="link2_@1_3"
	x1="444.08643"
	y1="539.82043"
	x2="448.71185"
	y2="541.71704" />
<line
	class="arc2"
	id="link29_@2_34"
	x1="422.32523"
	y1="508.88086"
	x2="426.95074"
	y2="510.77747" />
<line
	class="arc0"
	id="link29_@0_30"
	x1="422.32523"
	y1="508.88086"
	x2="422.32523"
	y2="150.64731" />
<line
	class="arc2"
	id="link3_@2_33"
	x1="448.71185"
	y1="541.71704"
	x2="440.14404"
	y2="527.19556" />
<line
	class="arc0"
	id="link3_@0_4"
	x1="448.71185"
	y1="541.71704"
	x2="750.2994"
	y2="558.78674" />
<line
	class="arc1"
	id="link31_@1_30"
	x1="430.8931"
	y1="133.82605"
	x2="422.32523"
	y2="150.64731" />
<line
	class="arc2"
	id="link31_@2_32"
	x1="430.8931"
	y1="133.82605"
	x2="444.08643"
	y2="118.90149" />
<polygon
	points="426.95074,510.77747 426.95074,152.54391 440.14404,137.61926 741.7316,154.689 754.925,171.10715 754.925,529.3407 741.7316,544.26526 440.14404,527.19556 "
	id="face_35_36_41_40_39_38_33_34"
	style="fill:rgb(192,192,192);stroke:none"
	opacity="1.0" />
<line
	class="arc1"
	id="link34_@1_33"
	x1="426.95074"
	y1="510.77747"
	x2="440.14404"
	y2="527.19556" />
<line
	class="arc0"
	id="link34_@0_35"
	x1="426.95074"
	y1="510.77747"
	x2="426.95074"
	y2="152.54391" />
<line
	class="arc1"
	id="link32_@1_37"
	x1="444.08643"
	y1="118.90149"
	x2="448.71185"
	y2="120.798096" />
<line
	class="arc0"
	id="link33_@0_38"
	x1="440.14404"
	y1="527.19556"
	x2="741.7316"
	y2="544.26526" />
<line
	class="arc2"
	id="link30_@2_35"
	x1="422.32523"
	y1="150.64731"
	x2="426.95074"
	y2="152.54391" />
<line
	class="arc2"
	id="link37_@2_36"
	x1="448.71185"
	y1="120.798096"
	x2="440.14404"
	y2="137.61926" />
<line
	class="arc0"
	id="link37_@0_42"
	x1="448.71185"
	y1="120.798096"
	x2="750.2994"
	y2="137.8678" />
<line
	class="arc1"
	id="link35_@1_36"
	x1="426.95074"
	y1="152.54391"
	x2="440.14404"
	y2="137.61926" />
<line
	class="arc0"
	id="link36_@0_41"
	x1="440.14404"
	y1="137.61926"
	x2="741.7316"
	y2="154.689" />
<line
	class="arc1"
	id="link5_@1_4"
	x1="772.06067"
	y1="558.3836"
	x2="750.2994"
	y2="558.78674" />
<line
	class="arc2"
	id="link5_@2_43"
	x1="772.06067"
	y1="558.3836"
	x2="785.25385"
	y2="543.459" />
<line
	class="arc2"
	id="link4_@2_38"
	x1="750.2994"
	y1="558.78674"
	x2="741.7316"
	y2="544.26526" />
<line
	class="arc1"
	id="link43_@1_44"
	x1="785.25385"
	y1="543.459"
	x2="776.68604"
	y2="528.93756" />
<line
	class="arc1"
	id="link38_@1_39"
	x1="741.7316"
	y1="544.26526"
	x2="754.925"
	y2="529.3407" />
<line
	class="arc2"
	id="link44_@2_39"
	x1="776.68604"
	y1="528.93756"
	x2="754.925"
	y2="529.3407" />
<line
	class="arc0"
	id="link44_@0_45"
	x1="776.68604"
	y1="528.93756"
	x2="776.68604"
	y2="170.70398" />
<line
	class="arc0"
	id="link39_@0_40"
	x1="754.925"
	y1="529.3407"
	x2="754.925"
	y2="171.10715" />
<line
	class="arc1"
	id="link47_@1_42"
	x1="772.06067"
	y1="137.46466"
	x2="750.2994"
	y2="137.8678" />
<line
	class="arc2"
	id="link47_@2_46"
	x1="772.06067"
	y1="137.46466"
	x2="785.25385"
	y2="153.88275" />
<line
	class="arc2"
	id="link42_@2_41"
	x1="750.2994"
	y1="137.8678"
	x2="741.7316"
	y2="154.689" />
<line
	class="arc1"
	id="link46_@1_45"
	x1="785.25385"
	y1="153.88275"
	x2="776.68604"
	y2="170.70398" />
<line
	class="arc1"
	id="link41_@1_40"
	x1="741.7316"
	y1="154.689"
	x2="754.925"
	y2="171.10715" />
<line
	class="arc2"
	id="link45_@2_40"
	x1="776.68604"
	y1="170.70398"
	x2="754.925"
	y2="171.10715" />
</svg>
