<?xml version="1.0" encoding="UTF-8" standalone="no"?>
<!-- Created with Jerboa -->

<svg
	width="1412"
	height="651" >
	<style id="style">
		.arc0 {
			fill:none;
			fill-rule:evenodd;
			stroke:black;
			stroke-width:4;
			stroke-linecap:round;
			stroke-linejoin:round;
			stroke-opacity:1;
		}
		.arc1 {
			fill:none;
			fill-rule:evenodd;
			stroke:red;
			stroke-width:4;
			stroke-linecap:round;
			stroke-linejoin:round;
			stroke-opacity:1;
		}
		.arc2 {
			fill:none;
			fill-rule:evenodd;
			stroke:blue;
			stroke-width:4;
			stroke-linecap:round;
			stroke-linejoin:round;
			stroke-opacity:1;
		}
		.arc3 {
			fill:none;
			fill-rule:evenodd;
			stroke:green;
			stroke-width:4;
			stroke-linecap:round;
			stroke-linejoin:round;
			stroke-opacity:1;
		}
		.topological-dart {
			fill:#000000;
			stroke:#000000;
			stroke-width:0;
			stroke-linecap:round;
			stroke-linejoin:round;
			stroke-dasharray:none;
			paint-order:markers fill stroke;
		}
	</style>
<polygon
	points="653.13293,529.9534 954.7206,547.02313 954.7206,547.02313 778.6573,574.42834 778.6573,574.42834 582.37,568.22296 582.37,568.22296 437.48975,555.1184 437.48975,555.1184 653.13293,529.9534 "
	id="face_7_6_5_4_9_8_3_2_1_0"
	style="fill:rgb(192,192,192);stroke:none"
	opacity="1.0" />
<line
	class="arc1"
	id="link0_@1_1"
	x1="653.13293"
	y1="529.9534"
	x2="653.13293"
	y2="529.9534" />
<line
	class="arc0"
	id="link0_@0_7"
	x1="653.13293"
	y1="529.9534"
	x2="954.7206"
	y2="547.02313" />
<line
	class="arc0"
	id="link1_@0_2"
	x1="653.13293"
	y1="529.9534"
	x2="437.48975"
	y2="555.1184" />
<line
	class="arc1"
	id="link6_@1_7"
	x1="954.7206"
	y1="547.02313"
	x2="954.7206"
	y2="547.02313" />
<line
	class="arc0"
	id="link6_@0_5"
	x1="954.7206"
	y1="547.02313"
	x2="778.6573"
	y2="574.42834" />
<line
	class="arc1"
	id="link2_@1_3"
	x1="437.48975"
	y1="555.1184"
	x2="437.48975"
	y2="555.1184" />
<line
	class="arc0"
	id="link3_@0_8"
	x1="437.48975"
	y1="555.1184"
	x2="582.37"
	y2="568.22296" />
<line
	class="arc1"
	id="link8_@1_9"
	x1="582.37"
	y1="568.22296"
	x2="582.37"
	y2="568.22296" />
<circle
	id="dart8"
	cx="582.37"
	cy="568.22296"
	r="10"
	stroke="black"
	fill="rgb(0,0,0)" />
<line
	class="arc0"
	id="link9_@0_4"
	x1="582.37"
	y1="568.22296"
	x2="778.6573"
	y2="574.42834" />
<line
	class="arc1"
	id="link4_@1_5"
	x1="778.6573"
	y1="574.42834"
	x2="778.6573"
	y2="574.42834" />
</svg>
