<?xml version="1.0" encoding="UTF-8" standalone="no"?>
<!-- Created with Jerboa -->

<svg
   width="359.34805"
   height="523.90808"
   version="1.1"
   id="svg1"
   sodipodi:docname="smooth-2-init-4.svg"
   xmlns:inkscape="http://www.inkscape.org/namespaces/inkscape"
   xmlns:sodipodi="http://sodipodi.sourceforge.net/DTD/sodipodi-0.dtd"
   xmlns="http://www.w3.org/2000/svg"
   xmlns:svg="http://www.w3.org/2000/svg">
  <defs
     id="defs1" />
  <sodipodi:namedview
     id="namedview1"
     pagecolor="#ffffff"
     bordercolor="#000000"
     borderopacity="0.25"
     inkscape:showpageshadow="2"
     inkscape:pageopacity="0.0"
     inkscape:pagecheckerboard="0"
     inkscape:deskcolor="#d1d1d1" />
  <style
     id="style">
		.arc0 {
			fill:none;
			fill-rule:evenodd;
			stroke:black;
			stroke-width:4;
			stroke-linecap:round;
			stroke-linejoin:round;
			stroke-opacity:1;
		}
		.arc1 {
			fill:none;
			fill-rule:evenodd;
			stroke:red;
			stroke-width:4;
			stroke-linecap:round;
			stroke-linejoin:round;
			stroke-opacity:1;
		}
		.arc2 {
			fill:none;
			fill-rule:evenodd;
			stroke:blue;
			stroke-width:4;
			stroke-linecap:round;
			stroke-linejoin:round;
			stroke-opacity:1;
		}
		.arc3 {
			fill:none;
			fill-rule:evenodd;
			stroke:green;
			stroke-width:4;
			stroke-linecap:round;
			stroke-linejoin:round;
			stroke-opacity:1;
		}
		.topological-dart {
			fill:#000000;
			stroke:#000000;
			stroke-width:0;
			stroke-linecap:round;
			stroke-linejoin:round;
			stroke-dasharray:none;
			paint-order:markers fill stroke;
		}
	</style>
  <polygon
     points="613.7343,288.0147 623.8168,60.20746 631.282,51.762634 801.9304,61.421326 809.39575,70.71112 829.17413,300.2085 829.17413,300.2085 809.39575,529.3169 801.9304,537.7618 631.282,528.10315 623.8168,518.81323 613.7343,288.0147 "
     id="face_20_62_63_64_58_57_56_15_14_13_18_19"
     style="fill:#c0c0c0;stroke:none"
     opacity="1"
     transform="translate(-471.82608,-41.545959)" />
  <line
     class="arc1"
     id="link19_@1_18"
     x1="151.99069"
     y1="477.26727"
     x2="159.4559"
     y2="486.55719" />
  <line
     class="arc2"
     id="link19_@2_24"
     x1="151.99069"
     y1="477.26727"
     x2="139.67752"
     y2="477.49536" />
  <line
     class="arc0"
     id="link19_@0_20"
     x1="151.99069"
     y1="477.26727"
     x2="141.90823"
     y2="246.46875" />
  <polygon
     points="613.7343,288.0147 611.5036,60.435547 606.65564,52.218872 495.83517,67.09186 490.9872,76.6098 473.82608,306.7915 473.82608,306.7915 490.9872,535.2156 495.83517,543.4323 606.65564,528.5593 611.5036,519.0413 613.7343,288.0147 "
     id="face_25_68_69_70_76_75_74_30_29_28_23_24"
     style="fill:#c0c0c0;stroke:none"
     opacity="1"
     transform="translate(-471.82608,-41.545959)" />
  <line
     class="arc1"
     id="link24_@1_23"
     x1="139.67752"
     y1="477.49536"
     x2="134.82956"
     y2="487.01337" />
  <line
     class="arc0"
     id="link24_@0_25"
     x1="139.67752"
     y1="477.49536"
     x2="141.90823"
     y2="246.46875" />
  <line
     class="arc1"
     id="link20_@1_62"
     x1="141.90823"
     y1="246.46875"
     x2="141.90823"
     y2="246.46875" />
  <line
     class="arc2"
     id="link20_@2_25"
     x1="141.90823"
     y1="246.46875"
     x2="141.90823"
     y2="246.46875" />
  <line
     class="arc1"
     id="link25_@1_68"
     x1="141.90823"
     y1="246.46875"
     x2="141.90823"
     y2="246.46875" />
  <line
     class="arc2"
     id="link62_@2_68"
     x1="141.90823"
     y1="246.46875"
     x2="141.90823"
     y2="246.46875" />
  <line
     class="arc0"
     id="link62_@0_63"
     x1="141.90823"
     y1="246.46875"
     x2="151.99069"
     y2="18.661499" />
  <line
     class="arc0"
     id="link68_@0_69"
     x1="141.90823"
     y1="246.46875"
     x2="139.67752"
     y2="18.889587" />
  <line
     class="arc2"
     id="link18_@2_0"
     x1="159.4559"
     y1="486.55719"
     x2="154.60794"
     y2="496.0752" />
  <line
     class="arc0"
     id="link18_@0_13"
     x1="159.4559"
     y1="486.55719"
     x2="330.10434"
     y2="496.21582" />
  <line
     class="arc2"
     id="link23_@2_1"
     x1="134.82956"
     y1="487.01337"
     x2="142.29477"
     y2="496.30328" />
  <line
     class="arc0"
     id="link23_@0_28"
     x1="134.82956"
     y1="487.01337"
     x2="24.009094"
     y2="501.88635" />
  <polygon
     points="799.69977,548.35297 688.8794,563.22595 676.56616,563.45404 505.91763,553.7954 503.30038,552.7222 614.12085,537.84924 626.434,537.62115 797.0825,547.2798 "
     id="face_7_6_5_4_3_2_1_0"
     style="fill:#c0c0c0;stroke:none"
     opacity="1"
     transform="translate(-471.82608,-41.545959)" />
  <line
     class="arc1"
     id="link0_@1_1"
     x1="154.60794"
     y1="496.0752"
     x2="142.29477"
     y2="496.30328" />
  <line
     class="arc0"
     id="link0_@0_7"
     x1="154.60794"
     y1="496.0752"
     x2="325.25644"
     y2="505.73383" />
  <line
     class="arc0"
     id="link1_@0_2"
     x1="142.29477"
     y1="496.30328"
     x2="31.474304"
     y2="511.17627" />
  <line
     class="arc1"
     id="link63_@1_64"
     x1="151.99069"
     y1="18.661499"
     x2="159.4559"
     y2="10.216675" />
  <line
     class="arc2"
     id="link63_@2_69"
     x1="151.99069"
     y1="18.661499"
     x2="139.67752"
     y2="18.889587" />
  <line
     class="arc1"
     id="link69_@1_70"
     x1="139.67752"
     y1="18.889587"
     x2="134.82956"
     y2="10.672913" />
  <line
     class="arc2"
     id="link64_@2_65"
     x1="159.4559"
     y1="10.216675"
     x2="154.60794"
     y2="2" />
  <line
     class="arc0"
     id="link64_@0_58"
     x1="159.4559"
     y1="10.216675"
     x2="330.10434"
     y2="19.875366" />
  <line
     class="arc2"
     id="link70_@2_71"
     x1="134.82956"
     y1="10.672913"
     x2="142.29477"
     y2="2.2280884" />
  <line
     class="arc0"
     id="link70_@0_76"
     x1="134.82956"
     y1="10.672913"
     x2="24.009094"
     y2="25.545898" />
  <polygon
     points="799.69977,54.27771 688.8794,69.15076 676.56616,69.378845 505.91763,59.720215 503.30038,58.647034 614.12085,43.774048 626.434,43.54596 797.0825,53.20459 "
     id="face_59_53_95_89_83_77_71_65"
     style="fill:#c0c0c0;stroke:none"
     opacity="1"
     transform="translate(-471.82608,-41.545959)" />
  <line
     class="arc1"
     id="link65_@1_71"
     x1="154.60794"
     y1="2"
     x2="142.29477"
     y2="2.2280884" />
  <line
     class="arc0"
     id="link65_@0_59"
     x1="154.60794"
     y1="2"
     x2="325.25644"
     y2="11.65863" />
  <line
     class="arc0"
     id="link71_@0_77"
     x1="142.29477"
     y1="2.2280884"
     x2="31.474304"
     y2="17.101074" />
  <line
     class="arc1"
     id="link13_@1_14"
     x1="330.10434"
     y1="496.21582"
     x2="337.56967"
     y2="487.77094" />
  <line
     class="arc2"
     id="link13_@2_7"
     x1="330.10434"
     y1="496.21582"
     x2="325.25644"
     y2="505.73383" />
  <line
     class="arc2"
     id="link14_@2_9"
     x1="337.56967"
     y1="487.77094"
     x2="340.18692"
     y2="488.84412" />
  <line
     class="arc0"
     id="link14_@0_15"
     x1="337.56967"
     y1="487.77094"
     x2="357.34805"
     y2="258.66254" />
  <line
     class="arc1"
     id="link7_@1_6"
     x1="325.25644"
     y1="505.73383"
     x2="327.87369"
     y2="506.80701" />
  <polygon
     points="829.17413,300.2085 812.013,71.78436 807.165,63.567627 696.34454,78.44061 691.49664,87.95856 689.26587,318.98532 689.26587,318.98532 691.49664,546.56433 696.34454,554.78107 807.165,539.9081 812.013,530.3901 829.17413,300.2085 "
     id="face_10_50_51_52_94_93_92_45_44_43_8_9"
     style="fill:#c0c0c0;stroke:none"
     opacity="1"
     transform="translate(-471.82608,-41.545959)" />
  <line
     class="arc1"
     id="link9_@1_8"
     x1="340.18692"
     y1="488.84412"
     x2="335.3389"
     y2="498.36212" />
  <line
     class="arc0"
     id="link9_@0_10"
     x1="340.18692"
     y1="488.84412"
     x2="357.34805"
     y2="258.66254" />
  <line
     class="arc2"
     id="link6_@2_8"
     x1="327.87369"
     y1="506.80701"
     x2="335.3389"
     y2="498.36212" />
  <line
     class="arc0"
     id="link6_@0_5"
     x1="327.87369"
     y1="506.80701"
     x2="217.05331"
     y2="521.67999" />
  <line
     class="arc0"
     id="link8_@0_43"
     x1="335.3389"
     y1="498.36212"
     x2="224.51846"
     y2="513.23511" />
  <line
     class="arc1"
     id="link10_@1_50"
     x1="357.34805"
     y1="258.66254"
     x2="357.34805"
     y2="258.66254" />
  <line
     class="arc2"
     id="link10_@2_15"
     x1="357.34805"
     y1="258.66254"
     x2="357.34805"
     y2="258.66254" />
  <line
     class="arc1"
     id="link15_@1_56"
     x1="357.34805"
     y1="258.66254"
     x2="357.34805"
     y2="258.66254" />
  <line
     class="arc2"
     id="link50_@2_56"
     x1="357.34805"
     y1="258.66254"
     x2="357.34805"
     y2="258.66254" />
  <line
     class="arc0"
     id="link50_@0_51"
     x1="357.34805"
     y1="258.66254"
     x2="340.18692"
     y2="30.238403" />
  <line
     class="arc0"
     id="link56_@0_57"
     x1="357.34805"
     y1="258.66254"
     x2="337.56967"
     y2="29.165161" />
  <line
     class="arc1"
     id="link58_@1_57"
     x1="330.10434"
     y1="19.875366"
     x2="337.56967"
     y2="29.165161" />
  <line
     class="arc2"
     id="link58_@2_59"
     x1="330.10434"
     y1="19.875366"
     x2="325.25644"
     y2="11.65863" />
  <line
     class="arc2"
     id="link57_@2_51"
     x1="337.56967"
     y1="29.165161"
     x2="340.18692"
     y2="30.238403" />
  <line
     class="arc1"
     id="link59_@1_53"
     x1="325.25644"
     y1="11.65863"
     x2="327.87369"
     y2="12.73175" />
  <line
     class="arc1"
     id="link51_@1_52"
     x1="340.18692"
     y1="30.238403"
     x2="335.3389"
     y2="22.021667" />
  <line
     class="arc2"
     id="link53_@2_52"
     x1="327.87369"
     y1="12.73175"
     x2="335.3389"
     y2="22.021667" />
  <line
     class="arc0"
     id="link53_@0_95"
     x1="327.87369"
     y1="12.73175"
     x2="217.05331"
     y2="27.604797" />
  <line
     class="arc1"
     id="link28_@1_29"
     x1="24.009094"
     y1="501.88635"
     x2="19.161133"
     y2="493.66962" />
  <line
     class="arc2"
     id="link28_@2_2"
     x1="24.009094"
     y1="501.88635"
     x2="31.474304"
     y2="511.17627" />
  <line
     class="arc0"
     id="link52_@0_94"
     x1="335.3389"
     y1="22.021667"
     x2="224.51846"
     y2="36.894653" />
  <line
     class="arc1"
     id="link2_@1_3"
     x1="31.474304"
     y1="511.17627"
     x2="34.091553"
     y2="512.24945" />
  <line
     class="arc2"
     id="link29_@2_34"
     x1="19.161133"
     y1="493.66962"
     x2="21.778412"
     y2="494.7428" />
  <line
     class="arc0"
     id="link29_@0_30"
     x1="19.161133"
     y1="493.66962"
     x2="2"
     y2="265.24554" />
  <line
     class="arc2"
     id="link3_@2_33"
     x1="34.091553"
     y1="512.24945"
     x2="29.243622"
     y2="504.03271" />
  <line
     class="arc0"
     id="link3_@0_4"
     x1="34.091553"
     y1="512.24945"
     x2="204.74008"
     y2="521.90808" />
  <polygon
     points="473.82608,306.7915 493.6045,77.683044 501.0697,69.23822 671.7182,78.89685 679.1834,88.18671 689.26587,318.98532 689.26587,318.98532 679.1834,546.7925 671.7182,555.2373 501.0697,545.5787 493.6045,536.28876 473.82608,306.7915 "
     id="face_35_80_81_82_88_87_86_40_39_38_33_34"
     style="fill:#c0c0c0;stroke:none"
     opacity="1"
     transform="translate(-471.82608,-41.545959)" />
  <line
     class="arc1"
     id="link34_@1_33"
     x1="21.778412"
     y1="494.7428"
     x2="29.243622"
     y2="504.03271" />
  <line
     class="arc0"
     id="link34_@0_35"
     x1="21.778412"
     y1="494.7428"
     x2="2"
     y2="265.24554" />
  <line
     class="arc0"
     id="link33_@0_38"
     x1="29.243622"
     y1="504.03271"
     x2="199.89212"
     y2="513.69135" />
  <line
     class="arc1"
     id="link30_@1_74"
     x1="2"
     y1="265.24554"
     x2="2"
     y2="265.24554" />
  <line
     class="arc2"
     id="link30_@2_35"
     x1="2"
     y1="265.24554"
     x2="2"
     y2="265.24554" />
  <line
     class="arc1"
     id="link35_@1_80"
     x1="2"
     y1="265.24554"
     x2="2"
     y2="265.24554" />
  <line
     class="arc2"
     id="link74_@2_80"
     x1="2"
     y1="265.24554"
     x2="2"
     y2="265.24554" />
  <line
     class="arc0"
     id="link74_@0_75"
     x1="2"
     y1="265.24554"
     x2="19.161133"
     y2="35.063843" />
  <line
     class="arc0"
     id="link80_@0_81"
     x1="2"
     y1="265.24554"
     x2="21.778412"
     y2="36.137085" />
  <line
     class="arc1"
     id="link76_@1_75"
     x1="24.009094"
     y1="25.545898"
     x2="19.161133"
     y2="35.063843" />
  <line
     class="arc2"
     id="link76_@2_77"
     x1="24.009094"
     y1="25.545898"
     x2="31.474304"
     y2="17.101074" />
  <line
     class="arc1"
     id="link77_@1_83"
     x1="31.474304"
     y1="17.101074"
     x2="34.091553"
     y2="18.174255" />
  <line
     class="arc2"
     id="link75_@2_81"
     x1="19.161133"
     y1="35.063843"
     x2="21.778412"
     y2="36.137085" />
  <line
     class="arc2"
     id="link83_@2_82"
     x1="34.091553"
     y1="18.174255"
     x2="29.243622"
     y2="27.692261" />
  <line
     class="arc0"
     id="link83_@0_89"
     x1="34.091553"
     y1="18.174255"
     x2="204.74008"
     y2="27.832886" />
  <line
     class="arc1"
     id="link81_@1_82"
     x1="21.778412"
     y1="36.137085"
     x2="29.243622"
     y2="27.692261" />
  <line
     class="arc0"
     id="link82_@0_88"
     x1="29.243622"
     y1="27.692261"
     x2="199.89212"
     y2="37.350891" />
  <line
     class="arc1"
     id="link5_@1_4"
     x1="217.05331"
     y1="521.67999"
     x2="204.74008"
     y2="521.90808" />
  <line
     class="arc2"
     id="link5_@2_43"
     x1="217.05331"
     y1="521.67999"
     x2="224.51846"
     y2="513.23511" />
  <line
     class="arc2"
     id="link4_@2_38"
     x1="204.74008"
     y1="521.90808"
     x2="199.89212"
     y2="513.69135" />
  <line
     class="arc1"
     id="link43_@1_44"
     x1="224.51846"
     y1="513.23511"
     x2="219.67056"
     y2="505.01837" />
  <line
     class="arc1"
     id="link38_@1_39"
     x1="199.89212"
     y1="513.69135"
     x2="207.35733"
     y2="505.24652" />
  <line
     class="arc2"
     id="link44_@2_39"
     x1="219.67056"
     y1="505.01837"
     x2="207.35733"
     y2="505.24652" />
  <line
     class="arc0"
     id="link44_@0_45"
     x1="219.67056"
     y1="505.01837"
     x2="217.43979"
     y2="277.43936" />
  <line
     class="arc0"
     id="link39_@0_40"
     x1="207.35733"
     y1="505.24652"
     x2="217.43979"
     y2="277.43936" />
  <line
     class="arc1"
     id="link95_@1_89"
     x1="217.05331"
     y1="27.604797"
     x2="204.74008"
     y2="27.832886" />
  <line
     class="arc2"
     id="link95_@2_94"
     x1="217.05331"
     y1="27.604797"
     x2="224.51846"
     y2="36.894653" />
  <line
     class="arc2"
     id="link89_@2_88"
     x1="204.74008"
     y1="27.832886"
     x2="199.89212"
     y2="37.350891" />
  <line
     class="arc1"
     id="link94_@1_93"
     x1="224.51846"
     y1="36.894653"
     x2="219.67056"
     y2="46.412598" />
  <line
     class="arc1"
     id="link88_@1_87"
     x1="199.89212"
     y1="37.350891"
     x2="207.35733"
     y2="46.640747" />
  <line
     class="arc1"
     id="link40_@1_86"
     x1="217.43979"
     y1="277.43936"
     x2="217.43979"
     y2="277.43936" />
  <line
     class="arc2"
     id="link40_@2_45"
     x1="217.43979"
     y1="277.43936"
     x2="217.43979"
     y2="277.43936" />
  <line
     class="arc1"
     id="link45_@1_92"
     x1="217.43979"
     y1="277.43936"
     x2="217.43979"
     y2="277.43936" />
  <line
     class="arc2"
     id="link86_@2_92"
     x1="217.43979"
     y1="277.43936"
     x2="217.43979"
     y2="277.43936" />
  <line
     class="arc0"
     id="link86_@0_87"
     x1="217.43979"
     y1="277.43936"
     x2="207.35733"
     y2="46.640747" />
  <line
     class="arc0"
     id="link92_@0_93"
     x1="217.43979"
     y1="277.43936"
     x2="219.67056"
     y2="46.412598" />
  <line
     class="arc2"
     id="link93_@2_87"
     x1="219.67056"
     y1="46.412598"
     x2="207.35733"
     y2="46.640747" />
</svg>
