<?xml version="1.0" encoding="UTF-8" standalone="no"?>
<!-- Created with Jerboa -->

<svg
   width="327.44498"
   height="301.77695"
   version="1.1"
   id="svg1"
   sodipodi:docname="build-init-v3-6-alt.svg"
   inkscape:version="1.3.2 (091e20ef0f, 2023-11-25, custom)"
   xmlns:inkscape="http://www.inkscape.org/namespaces/inkscape"
   xmlns:sodipodi="http://sodipodi.sourceforge.net/DTD/sodipodi-0.dtd"
   xmlns="http://www.w3.org/2000/svg"
   xmlns:svg="http://www.w3.org/2000/svg">
  <defs
     id="defs1" />
  <sodipodi:namedview
     id="namedview1"
     pagecolor="#ffffff"
     bordercolor="#000000"
     borderopacity="0.25"
     inkscape:showpageshadow="2"
     inkscape:pageopacity="0.0"
     inkscape:pagecheckerboard="0"
     inkscape:deskcolor="#d1d1d1"
     inkscape:zoom="1.4577949"
     inkscape:cx="169.091"
     inkscape:cy="320.68984"
     inkscape:window-width="1892"
     inkscape:window-height="1034"
     inkscape:window-x="9"
     inkscape:window-y="27"
     inkscape:window-maximized="1"
     inkscape:current-layer="svg1" />
  <style
     id="style">
		.arc0 {
			fill:none;
			fill-rule:evenodd;
			stroke:black;
			stroke-width:4;
			stroke-linecap:round;
			stroke-linejoin:round;
			stroke-opacity:1;
		}
		.arc1 {
			fill:none;
			fill-rule:evenodd;
			stroke:red;
			stroke-width:4;
			stroke-linecap:round;
			stroke-linejoin:round;
			stroke-opacity:1;
		}
		.arc2 {
			fill:none;
			fill-rule:evenodd;
			stroke:blue;
			stroke-width:4;
			stroke-linecap:round;
			stroke-linejoin:round;
			stroke-opacity:1;
		}
		.arc3 {
			fill:none;
			fill-rule:evenodd;
			stroke:green;
			stroke-width:4;
			stroke-linecap:round;
			stroke-linejoin:round;
			stroke-opacity:1;
		}
		.topological-dart {
			fill:#000000;
			stroke:#000000;
			stroke-width:0;
			stroke-linecap:round;
			stroke-linejoin:round;
			stroke-dasharray:none;
			paint-order:markers fill stroke;
		}
	</style>
  <line
     class="arc0"
     id="link109_@0_110"
     x1="234.90189"
     y1="299.77695"
     x2="188.3215"
     y2="251.57498" />
  <line
     class="arc0"
     id="link101_@0_100"
     x1="48.580353"
     y1="248.26465"
     x2="2"
     y2="294.2597" />
  <line
     class="arc0"
     id="link106_@0_107"
     x1="234.90189"
     y1="299.77695"
     x2="188.3215"
     y2="251.57498" />
  <line
     class="arc0"
     id="link108_@0_105"
     x1="188.3215"
     y1="251.57498"
     x2="48.580353"
     y2="248.26465" />
  <line
     class="arc0"
     id="link104_@0_103"
     x1="48.580353"
     y1="248.26465"
     x2="2"
     y2="294.2597" />
  <polygon
     points="707.8326,460.12946 661.2522,411.9275 661.2522,411.9275 661.2522,270.63196 661.2522,270.63196 707.8326,224.63693 707.8326,460.12946 "
     id="face_3_109_110_111_55_42_41_4"
     style="fill:#c0c0c0;stroke:none"
     opacity="1"
     transform="translate(-472.93069,-160.35251)" />
  <line
     class="arc0"
     id="link4_@0_3"
     x1="234.90189"
     y1="64.284424"
     x2="234.90189"
     y2="299.77695" />
  <circle
     class="topological-dart"
     id="dart4"
     cx="234.90189"
     cy="64.284424"
     r="10"
     fill="rgb(0,0,0)" />
  <polygon
     points="474.9307,219.11972 521.51105,267.32166 521.51105,267.32166 661.2522,270.63196 661.2522,270.63196 707.8326,224.63693 474.9307,219.11972 "
     id="face_6_46_47_96_48_49_54_5"
     style="fill:#c0c0c0;stroke:none"
     opacity="1"
     transform="translate(-472.93069,-160.35251)" />
  <line
     class="arc0"
     id="link5_@0_6"
     x1="234.90189"
     y1="64.284424"
     x2="2"
     y2="58.767212" />
  <polygon
     points="707.8326,460.12946 753.1041,431.74585 753.1041,431.74585 798.3757,403.36224 798.3757,403.36224 798.3757,167.86972 798.3757,167.86972 753.1041,196.2533 753.1041,196.2533 707.8326,224.63693 707.8326,460.12946 "
     id="face_33_34_35_62_63_64_58_57_56_40_39_38"
     style="fill:#c0c0c0;stroke:none"
     opacity="1"
     transform="translate(-472.93069,-160.35251)" />
  <line
     class="arc0"
     id="link38_@0_33"
     x1="234.90189"
     y1="64.284424"
     x2="234.90189"
     y2="299.77695" />
  <line
     class="arc0"
     id="link39_@0_40"
     x1="234.90189"
     y1="64.284424"
     x2="280.17343"
     y2="35.900787" />
  <line
     class="arc0"
     id="link41_@0_42"
     x1="234.90189"
     y1="64.284424"
     x2="188.3215"
     y2="110.27945" />
  <polygon
     points="474.9307,219.11972 520.2023,190.73611 520.2023,190.73611 565.4738,162.35251 565.4738,162.35251 798.3757,167.86972 798.3757,167.86972 753.1041,196.2533 753.1041,196.2533 707.8326,224.63693 474.9307,219.11972 "
     id="face_8_9_10_92_93_94_52_51_50_45_44_43"
     style="fill:#c0c0c0;stroke:none"
     opacity="1"
     transform="translate(-472.93069,-160.35251)" />
  <line
     class="arc0"
     id="link43_@0_8"
     x1="234.90189"
     y1="64.284424"
     x2="2"
     y2="58.767212" />
  <line
     class="arc0"
     id="link44_@0_45"
     x1="234.90189"
     y1="64.284424"
     x2="280.17343"
     y2="35.900787" />
  <line
     class="arc0"
     id="link54_@0_49"
     x1="234.90189"
     y1="64.284424"
     x2="188.3215"
     y2="110.27945" />
  <line
     class="arc0"
     id="link48_@0_96"
     x1="188.3215"
     y1="110.27945"
     x2="48.580353"
     y2="106.96915" />
  <line
     class="arc0"
     id="link55_@0_111"
     x1="188.3215"
     y1="110.27945"
     x2="188.3215"
     y2="251.57498" />
  <polygon
     points="474.9307,454.6122 521.51105,408.61716 521.51105,408.61716 661.2522,411.9275 661.2522,411.9275 707.8326,460.12946 474.9307,454.6122 "
     id="face_1_103_104_105_108_107_106_2"
     style="fill:#c0c0c0;stroke:none"
     opacity="1"
     transform="translate(-472.93069,-160.35251)" />
  <line
     class="arc0"
     id="link2_@0_1"
     x1="234.90189"
     y1="299.77695"
     x2="2"
     y2="294.2597" />
  <line
     class="arc0"
     id="link29_@0_30"
     x1="234.90189"
     y1="299.77695"
     x2="280.17343"
     y2="271.39334" />
  <polygon
     points="474.9307,454.6122 520.2023,426.22864 520.2023,426.22864 565.4738,397.84503 565.4738,397.84503 798.3757,403.36224 798.3757,403.36224 753.1041,431.74585 753.1041,431.74585 707.8326,460.12946 474.9307,454.6122 "
     id="face_23_24_25_74_75_76_70_69_68_30_29_28"
     style="fill:#c0c0c0;stroke:none"
     opacity="1"
     transform="translate(-472.93069,-160.35251)" />
  <line
     class="arc0"
     id="link28_@0_23"
     x1="234.90189"
     y1="299.77695"
     x2="2"
     y2="294.2597" />
  <line
     class="arc0"
     id="link34_@0_35"
     x1="234.90189"
     y1="299.77695"
     x2="280.17343"
     y2="271.39334" />
  <line
     class="arc0"
     id="link47_@0_46"
     x1="48.580353"
     y1="106.96915"
     x2="2"
     y2="58.767212" />
  <polygon
     points="474.9307,219.11972 474.9307,454.6122 474.9307,454.6122 521.51105,408.61716 521.51105,408.61716 521.51105,267.32166 474.9307,219.11972 "
     id="face_97_7_0_100_101_102_99_98"
     style="fill:#c0c0c0;stroke:none"
     opacity="1"
     transform="translate(-472.93069,-160.35251)" />
  <line
     class="arc0"
     id="link98_@0_97"
     x1="48.580353"
     y1="106.96915"
     x2="2"
     y2="58.767212" />
  <line
     class="arc0"
     id="link99_@0_102"
     x1="48.580353"
     y1="106.96915"
     x2="48.580353"
     y2="248.26465" />
  <line
     class="arc0"
     id="link7_@0_0"
     x1="2"
     y1="58.767212"
     x2="2"
     y2="294.2597" />
  <line
     class="arc0"
     id="link9_@0_10"
     x1="2"
     y1="58.767212"
     x2="47.271576"
     y2="30.383606" />
  <polygon
     points="474.9307,454.6122 520.2023,426.22864 520.2023,426.22864 565.4738,397.84503 565.4738,397.84503 565.4738,162.35251 565.4738,162.35251 520.2023,190.73611 520.2023,190.73611 474.9307,219.11972 474.9307,454.6122 "
     id="face_18_19_20_80_81_82_88_87_86_15_14_13"
     style="fill:#c0c0c0;stroke:none"
     opacity="1"
     transform="translate(-472.93069,-160.35251)" />
  <line
     class="arc0"
     id="link13_@0_18"
     x1="2"
     y1="58.767212"
     x2="2"
     y2="294.2597" />
  <line
     class="arc0"
     id="link14_@0_15"
     x1="2"
     y1="58.767212"
     x2="47.271576"
     y2="30.383606" />
  <line
     class="arc0"
     id="link19_@0_20"
     x1="2"
     y1="294.2597"
     x2="47.271576"
     y2="265.87613" />
  <line
     class="arc0"
     id="link24_@0_25"
     x1="2"
     y1="294.2597"
     x2="47.271576"
     y2="265.87613" />
  <line
     class="arc0"
     id="link50_@0_51"
     x1="280.17343"
     y1="35.900787"
     x2="325.44498"
     y2="7.5172119" />
  <line
     class="arc0"
     id="link56_@0_57"
     x1="280.17343"
     y1="35.900787"
     x2="325.44498"
     y2="7.5172119" />
  <line
     class="arc0"
     id="link62_@0_63"
     x1="280.17343"
     y1="271.39334"
     x2="325.44498"
     y2="243.00974" />
  <line
     class="arc0"
     id="link68_@0_69"
     x1="280.17343"
     y1="271.39334"
     x2="325.44498"
     y2="243.00974" />
  <line
     class="arc0"
     id="link86_@0_87"
     x1="47.271576"
     y1="30.383606"
     x2="92.543121"
     y2="2" />
  <line
     class="arc0"
     id="link92_@0_93"
     x1="47.271576"
     y1="30.383606"
     x2="92.543121"
     y2="2" />
  <line
     class="arc0"
     id="link74_@0_75"
     x1="47.271576"
     y1="265.87613"
     x2="92.543121"
     y2="237.49252" />
  <line
     class="arc0"
     id="link80_@0_81"
     x1="47.271576"
     y1="265.87613"
     x2="92.543121"
     y2="237.49252" />
  <polygon
     points="751.7953,213.8648 612.05414,210.55447 612.05414,210.55447 565.4738,162.35251 565.4738,162.35251 798.3757,167.86972 751.7953,213.8648 "
     id="face_12_91_37_36_60_95_53_11"
     style="fill:#c0c0c0;stroke:none"
     opacity="1"
     transform="translate(-472.93069,-160.35251)" />
  <line
     class="arc0"
     id="link11_@0_12"
     x1="325.44498"
     y1="7.5172119"
     x2="278.86459"
     y2="53.512299" />
  <line
     class="arc0"
     id="link52_@0_94"
     x1="325.44498"
     y1="7.5172119"
     x2="92.543121"
     y2="2" />
  <line
     class="arc0"
     id="link53_@0_95"
     x1="325.44498"
     y1="7.5172119"
     x2="92.543121"
     y2="2" />
  <line
     class="arc0"
     id="link58_@0_64"
     x1="325.44498"
     y1="7.5172119"
     x2="325.44498"
     y2="243.00974" />
  <polygon
     points="798.3757,403.36224 751.7953,355.16028 751.7953,355.16028 751.7953,213.8648 751.7953,213.8648 798.3757,167.86972 798.3757,403.36224 "
     id="face_65_16_17_21_84_85_90_59"
     style="fill:#c0c0c0;stroke:none"
     opacity="1"
     transform="translate(-472.93069,-160.35251)" />
  <line
     class="arc0"
     id="link59_@0_65"
     x1="325.44498"
     y1="7.5172119"
     x2="325.44498"
     y2="243.00974" />
  <line
     class="arc0"
     id="link90_@0_85"
     x1="325.44498"
     y1="7.5172119"
     x2="278.86459"
     y2="53.512299" />
  <line
     class="arc0"
     id="link84_@0_21"
     x1="278.86459"
     y1="53.512299"
     x2="278.86459"
     y2="194.80777" />
  <line
     class="arc0"
     id="link91_@0_37"
     x1="278.86459"
     y1="53.512299"
     x2="139.12344"
     y2="50.201965" />
  <line
     class="arc0"
     id="link16_@0_17"
     x1="325.44498"
     y1="243.00974"
     x2="278.86459"
     y2="194.80777" />
  <polygon
     points="751.7953,355.16028 612.05414,351.84998 612.05414,351.84998 565.4738,397.84503 565.4738,397.84503 798.3757,403.36224 751.7953,355.16028 "
     id="face_79_78_26_72_73_77_71_22"
     style="fill:#c0c0c0;stroke:none"
     opacity="1"
     transform="translate(-472.93069,-160.35251)" />
  <line
     class="arc0"
     id="link22_@0_79"
     x1="325.44498"
     y1="243.00974"
     x2="278.86459"
     y2="194.80777" />
  <line
     class="arc0"
     id="link70_@0_76"
     x1="325.44498"
     y1="243.00974"
     x2="92.543121"
     y2="237.49252" />
  <line
     class="arc0"
     id="link71_@0_77"
     x1="325.44498"
     y1="243.00974"
     x2="92.543121"
     y2="237.49252" />
  <line
     class="arc0"
     id="link78_@0_26"
     x1="278.86459"
     y1="194.80777"
     x2="139.12344"
     y2="191.49747" />
  <line
     class="arc0"
     id="link36_@0_60"
     x1="139.12344"
     y1="50.201965"
     x2="92.543121"
     y2="2" />
  <polygon
     points="612.05414,351.84998 565.4738,397.84503 565.4738,397.84503 565.4738,162.35251 565.4738,162.35251 612.05414,210.55447 612.05414,351.84998 "
     id="face_32_31_27_83_89_67_66_61"
     style="fill:#c0c0c0;stroke:none"
     opacity="1"
     transform="translate(-472.93069,-160.35251)" />
  <line
     class="arc0"
     id="link61_@0_32"
     x1="139.12344"
     y1="50.201965"
     x2="139.12344"
     y2="191.49747" />
  <line
     class="arc0"
     id="link66_@0_67"
     x1="139.12344"
     y1="50.201965"
     x2="92.543121"
     y2="2" />
  <line
     class="arc0"
     id="link88_@0_82"
     x1="92.543121"
     y1="2"
     x2="92.543121"
     y2="237.49252" />
  <line
     class="arc0"
     id="link89_@0_83"
     x1="92.543121"
     y1="2"
     x2="92.543121"
     y2="237.49252" />
  <line
     class="arc0"
     id="link31_@0_27"
     x1="139.12344"
     y1="191.49747"
     x2="92.543121"
     y2="237.49252" />
  <line
     class="arc0"
     id="link72_@0_73"
     x1="139.12344"
     y1="191.49747"
     x2="92.543121"
     y2="237.49252" />
</svg>
