<?xml version="1.0" encoding="UTF-8" standalone="no"?>
<!-- Created with Jerboa -->

<svg
   width="325.02579"
   height="523.90808"
   version="1.1"
   id="svg1"
   sodipodi:docname="smooth-2-init-3.svg"
   xmlns:inkscape="http://www.inkscape.org/namespaces/inkscape"
   xmlns:sodipodi="http://sodipodi.sourceforge.net/DTD/sodipodi-0.dtd"
   xmlns="http://www.w3.org/2000/svg"
   xmlns:svg="http://www.w3.org/2000/svg">
  <defs
     id="defs1" />
  <sodipodi:namedview
     id="namedview1"
     pagecolor="#ffffff"
     bordercolor="#000000"
     borderopacity="0.25"
     inkscape:showpageshadow="2"
     inkscape:pageopacity="0.0"
     inkscape:pagecheckerboard="0"
     inkscape:deskcolor="#d1d1d1" />
  <style
     id="style">
		.arc0 {
			fill:none;
			fill-rule:evenodd;
			stroke:black;
			stroke-width:4;
			stroke-linecap:round;
			stroke-linejoin:round;
			stroke-opacity:1;
		}
		.arc1 {
			fill:none;
			fill-rule:evenodd;
			stroke:red;
			stroke-width:4;
			stroke-linecap:round;
			stroke-linejoin:round;
			stroke-opacity:1;
		}
		.arc2 {
			fill:none;
			fill-rule:evenodd;
			stroke:blue;
			stroke-width:4;
			stroke-linecap:round;
			stroke-linejoin:round;
			stroke-opacity:1;
		}
		.arc3 {
			fill:none;
			fill-rule:evenodd;
			stroke:green;
			stroke-width:4;
			stroke-linecap:round;
			stroke-linejoin:round;
			stroke-opacity:1;
		}
		.topological-dart {
			fill:#000000;
			stroke:#000000;
			stroke-width:0;
			stroke-linecap:round;
			stroke-linejoin:round;
			stroke-dasharray:none;
			paint-order:markers fill stroke;
		}
	</style>
  <polygon
     points="631.282,307.66766 801.9304,317.3263 809.39575,326.6162 809.39575,529.3169 801.9304,537.7618 631.282,528.10315 623.8168,518.81323 623.8168,316.11252 "
     id="face_20_21_16_15_14_13_18_19"
     style="fill:#c0c0c0;stroke:none"
     opacity="1"
     transform="translate(-488.98721,-41.545959)" />
  <line
     class="arc1"
     id="link19_@1_18"
     x1="134.82956"
     y1="477.26727"
     x2="142.29477"
     y2="486.55719" />
  <line
     class="arc2"
     id="link19_@2_24"
     x1="134.82956"
     y1="477.26727"
     x2="122.51639"
     y2="477.49536" />
  <line
     class="arc0"
     id="link19_@0_20"
     x1="134.82956"
     y1="477.26727"
     x2="134.82956"
     y2="274.56656" />
  <polygon
     points="606.65564,308.12387 495.83517,322.99686 490.9872,332.5149 490.9872,535.2156 495.83517,543.4323 606.65564,528.5593 611.5036,519.0413 611.5036,316.3406 "
     id="face_25_26_31_30_29_28_23_24"
     style="fill:#c0c0c0;stroke:none"
     opacity="1"
     transform="translate(-488.98721,-41.545959)" />
  <line
     class="arc1"
     id="link24_@1_23"
     x1="122.51639"
     y1="477.49536"
     x2="117.66843"
     y2="487.01337" />
  <line
     class="arc0"
     id="link24_@0_25"
     x1="122.51639"
     y1="477.49536"
     x2="122.51639"
     y2="274.79465" />
  <line
     class="arc2"
     id="link18_@2_0"
     x1="142.29477"
     y1="486.55719"
     x2="137.44681"
     y2="496.0752" />
  <line
     class="arc0"
     id="link18_@0_13"
     x1="142.29477"
     y1="486.55719"
     x2="312.94321"
     y2="496.21582" />
  <line
     class="arc2"
     id="link23_@2_1"
     x1="117.66843"
     y1="487.01337"
     x2="125.13364"
     y2="496.30328" />
  <line
     class="arc0"
     id="link23_@0_28"
     x1="117.66843"
     y1="487.01337"
     x2="6.8479614"
     y2="501.88635" />
  <polygon
     points="799.69977,548.35297 688.8794,563.22595 676.56616,563.45404 505.91763,553.7954 503.30038,552.7222 614.12085,537.84924 626.434,537.62115 797.0825,547.2798 "
     id="face_7_6_5_4_3_2_1_0"
     style="fill:#c0c0c0;stroke:none"
     opacity="1"
     transform="translate(-488.98721,-41.545959)" />
  <line
     class="arc1"
     id="link0_@1_1"
     x1="137.44681"
     y1="496.0752"
     x2="125.13364"
     y2="496.30328" />
  <line
     class="arc0"
     id="link0_@0_7"
     x1="137.44681"
     y1="496.0752"
     x2="308.09531"
     y2="505.73383" />
  <line
     class="arc0"
     id="link1_@0_2"
     x1="125.13364"
     y1="496.30328"
     x2="14.313171"
     y2="511.17627" />
  <line
     class="arc1"
     id="link20_@1_21"
     x1="134.82956"
     y1="274.56656"
     x2="142.29477"
     y2="266.1217" />
  <line
     class="arc2"
     id="link20_@2_25"
     x1="134.82956"
     y1="274.56656"
     x2="122.51639"
     y2="274.79465" />
  <line
     class="arc1"
     id="link25_@1_26"
     x1="122.51639"
     y1="274.79465"
     x2="117.66843"
     y2="266.57791" />
  <polygon
     points="631.282,51.762634 801.9304,61.421326 809.39575,70.71112 809.39575,273.412 801.9304,281.8568 631.282,272.1982 623.8168,262.90826 623.8168,60.20746 "
     id="face_63_64_58_57_56_55_61_62"
     style="fill:#c0c0c0;stroke:none"
     opacity="1"
     transform="translate(-488.98721,-41.545959)" />
  <line
     class="arc1"
     id="link62_@1_61"
     x1="134.82956"
     y1="221.3623"
     x2="142.29477"
     y2="230.65225" />
  <line
     class="arc2"
     id="link62_@2_68"
     x1="134.82956"
     y1="221.3623"
     x2="122.51639"
     y2="221.59042" />
  <line
     class="arc0"
     id="link62_@0_63"
     x1="134.82956"
     y1="221.3623"
     x2="134.82956"
     y2="18.661499" />
  <line
     class="arc2"
     id="link21_@2_22"
     x1="142.29477"
     y1="266.1217"
     x2="137.44681"
     y2="257.90497" />
  <line
     class="arc0"
     id="link21_@0_16"
     x1="142.29477"
     y1="266.1217"
     x2="312.94321"
     y2="275.78033" />
  <polygon
     points="606.65564,52.218872 495.83517,67.09186 490.9872,76.6098 490.9872,279.31067 495.83517,287.5274 606.65564,272.65445 611.5036,263.13638 611.5036,60.435547 "
     id="face_69_70_76_75_74_73_67_68"
     style="fill:#c0c0c0;stroke:none"
     opacity="1"
     transform="translate(-488.98721,-41.545959)" />
  <line
     class="arc1"
     id="link68_@1_67"
     x1="122.51639"
     y1="221.59042"
     x2="117.66843"
     y2="231.10849" />
  <line
     class="arc0"
     id="link68_@0_69"
     x1="122.51639"
     y1="221.59042"
     x2="122.51639"
     y2="18.889587" />
  <line
     class="arc2"
     id="link61_@2_60"
     x1="142.29477"
     y1="230.65225"
     x2="137.44681"
     y2="240.1702" />
  <line
     class="arc0"
     id="link61_@0_55"
     x1="142.29477"
     y1="230.65225"
     x2="312.94321"
     y2="240.31085" />
  <line
     class="arc2"
     id="link26_@2_27"
     x1="117.66843"
     y1="266.57791"
     x2="125.13364"
     y2="258.13306" />
  <line
     class="arc0"
     id="link26_@0_31"
     x1="117.66843"
     y1="266.57791"
     x2="6.8479614"
     y2="281.4509" />
  <polygon
     points="799.69977,310.1827 688.8794,325.05573 676.56616,325.2838 505.91763,315.62518 503.30038,314.55203 614.12085,299.67902 626.434,299.45093 797.0825,309.10956 "
     id="face_17_12_47_42_37_32_27_22"
     style="fill:#c0c0c0;stroke:none"
     opacity="1"
     transform="translate(-488.98721,-41.545959)" />
  <line
     class="arc1"
     id="link22_@1_27"
     x1="137.44681"
     y1="257.90497"
     x2="125.13364"
     y2="258.13306" />
  <line
     class="arc3"
     id="link22_@3_60"
     x1="137.44681"
     y1="257.90497"
     x2="137.44681"
     y2="240.1702" />
  <line
     class="arc0"
     id="link22_@0_17"
     x1="137.44681"
     y1="257.90497"
     x2="308.09531"
     y2="267.5636" />
  <line
     class="arc2"
     id="link67_@2_66"
     x1="117.66843"
     y1="231.10849"
     x2="125.13364"
     y2="240.39835" />
  <line
     class="arc0"
     id="link67_@0_73"
     x1="117.66843"
     y1="231.10849"
     x2="6.8479614"
     y2="245.98145" />
  <polygon
     points="799.69977,292.44797 688.8794,307.32098 676.56616,307.54907 505.91763,297.89044 503.30038,296.81726 614.12085,281.9443 626.434,281.71616 797.0825,291.37482 "
     id="face_54_48_90_84_78_72_66_60"
     style="fill:#c0c0c0;stroke:none"
     opacity="1"
     transform="translate(-488.98721,-41.545959)" />
  <line
     class="arc1"
     id="link60_@1_66"
     x1="137.44681"
     y1="240.1702"
     x2="125.13364"
     y2="240.39835" />
  <line
     class="arc0"
     id="link60_@0_54"
     x1="137.44681"
     y1="240.1702"
     x2="308.09531"
     y2="249.82886" />
  <line
     class="arc3"
     id="link27_@3_66"
     x1="125.13364"
     y1="258.13306"
     x2="125.13364"
     y2="240.39835" />
  <line
     class="arc0"
     id="link27_@0_32"
     x1="125.13364"
     y1="258.13306"
     x2="14.313171"
     y2="273.00607" />
  <line
     class="arc0"
     id="link66_@0_72"
     x1="125.13364"
     y1="240.39835"
     x2="14.313171"
     y2="255.2713" />
  <line
     class="arc1"
     id="link63_@1_64"
     x1="134.82956"
     y1="18.661499"
     x2="142.29477"
     y2="10.216675" />
  <line
     class="arc2"
     id="link63_@2_69"
     x1="134.82956"
     y1="18.661499"
     x2="122.51639"
     y2="18.889587" />
  <line
     class="arc1"
     id="link69_@1_70"
     x1="122.51639"
     y1="18.889587"
     x2="117.66843"
     y2="10.672913" />
  <line
     class="arc2"
     id="link64_@2_65"
     x1="142.29477"
     y1="10.216675"
     x2="137.44681"
     y2="2" />
  <line
     class="arc0"
     id="link64_@0_58"
     x1="142.29477"
     y1="10.216675"
     x2="312.94321"
     y2="19.875366" />
  <line
     class="arc2"
     id="link70_@2_71"
     x1="117.66843"
     y1="10.672913"
     x2="125.13364"
     y2="2.2280884" />
  <line
     class="arc0"
     id="link70_@0_76"
     x1="117.66843"
     y1="10.672913"
     x2="6.8479614"
     y2="25.545898" />
  <polygon
     points="799.69977,54.27771 688.8794,69.15076 676.56616,69.378845 505.91763,59.720215 503.30038,58.647034 614.12085,43.774048 626.434,43.54596 797.0825,53.20459 "
     id="face_59_53_95_89_83_77_71_65"
     style="fill:#c0c0c0;stroke:none"
     opacity="1"
     transform="translate(-488.98721,-41.545959)" />
  <line
     class="arc1"
     id="link65_@1_71"
     x1="137.44681"
     y1="2"
     x2="125.13364"
     y2="2.2280884" />
  <line
     class="arc0"
     id="link65_@0_59"
     x1="137.44681"
     y1="2"
     x2="308.09531"
     y2="11.65863" />
  <line
     class="arc0"
     id="link71_@0_77"
     x1="125.13364"
     y1="2.2280884"
     x2="14.313171"
     y2="17.101074" />
  <line
     class="arc1"
     id="link13_@1_14"
     x1="312.94321"
     y1="496.21582"
     x2="320.40854"
     y2="487.77094" />
  <line
     class="arc2"
     id="link13_@2_7"
     x1="312.94321"
     y1="496.21582"
     x2="308.09531"
     y2="505.73383" />
  <line
     class="arc2"
     id="link14_@2_9"
     x1="320.40854"
     y1="487.77094"
     x2="323.02579"
     y2="488.84412" />
  <line
     class="arc0"
     id="link14_@0_15"
     x1="320.40854"
     y1="487.77094"
     x2="320.40854"
     y2="285.07025" />
  <line
     class="arc1"
     id="link7_@1_6"
     x1="308.09531"
     y1="505.73383"
     x2="310.71255"
     y2="506.80701" />
  <polygon
     points="807.165,319.4726 696.34454,334.3456 691.49664,343.86365 691.49664,546.56433 696.34454,554.78107 807.165,539.9081 812.013,530.3901 812.013,327.68936 "
     id="face_10_11_46_45_44_43_8_9"
     style="fill:#c0c0c0;stroke:none"
     opacity="1"
     transform="translate(-488.98721,-41.545959)" />
  <line
     class="arc1"
     id="link9_@1_8"
     x1="323.02579"
     y1="488.84412"
     x2="318.17776"
     y2="498.36212" />
  <line
     class="arc0"
     id="link9_@0_10"
     x1="323.02579"
     y1="488.84412"
     x2="323.02579"
     y2="286.1434" />
  <line
     class="arc2"
     id="link6_@2_8"
     x1="310.71255"
     y1="506.80701"
     x2="318.17776"
     y2="498.36212" />
  <line
     class="arc0"
     id="link6_@0_5"
     x1="310.71255"
     y1="506.80701"
     x2="199.89218"
     y2="521.67999" />
  <line
     class="arc1"
     id="link16_@1_15"
     x1="312.94321"
     y1="275.78033"
     x2="320.40854"
     y2="285.07025" />
  <line
     class="arc2"
     id="link16_@2_17"
     x1="312.94321"
     y1="275.78033"
     x2="308.09531"
     y2="267.5636" />
  <line
     class="arc1"
     id="link55_@1_56"
     x1="312.94321"
     y1="240.31085"
     x2="320.40854"
     y2="231.86603" />
  <line
     class="arc2"
     id="link55_@2_54"
     x1="312.94321"
     y1="240.31085"
     x2="308.09531"
     y2="249.82886" />
  <line
     class="arc2"
     id="link15_@2_10"
     x1="320.40854"
     y1="285.07025"
     x2="323.02579"
     y2="286.1434" />
  <line
     class="arc0"
     id="link8_@0_43"
     x1="318.17776"
     y1="498.36212"
     x2="207.35733"
     y2="513.23511" />
  <line
     class="arc1"
     id="link17_@1_12"
     x1="308.09531"
     y1="267.5636"
     x2="310.71255"
     y2="268.63675" />
  <line
     class="arc3"
     id="link17_@3_54"
     x1="308.09531"
     y1="267.5636"
     x2="308.09531"
     y2="249.82886" />
  <line
     class="arc2"
     id="link56_@2_50"
     x1="320.40854"
     y1="231.86603"
     x2="323.02579"
     y2="232.93918" />
  <line
     class="arc0"
     id="link56_@0_57"
     x1="320.40854"
     y1="231.86603"
     x2="320.40854"
     y2="29.165161" />
  <line
     class="arc1"
     id="link54_@1_48"
     x1="308.09531"
     y1="249.82886"
     x2="310.71255"
     y2="250.90201" />
  <line
     class="arc1"
     id="link10_@1_11"
     x1="323.02579"
     y1="286.1434"
     x2="318.17776"
     y2="277.92664" />
  <line
     class="arc2"
     id="link12_@2_11"
     x1="310.71255"
     y1="268.63675"
     x2="318.17776"
     y2="277.92664" />
  <line
     class="arc3"
     id="link12_@3_48"
     x1="310.71255"
     y1="268.63675"
     x2="310.71255"
     y2="250.90201" />
  <line
     class="arc0"
     id="link12_@0_47"
     x1="310.71255"
     y1="268.63675"
     x2="199.89218"
     y2="283.50977" />
  <polygon
     points="807.165,63.567627 696.34454,78.44061 691.49664,87.95856 691.49664,290.65942 696.34454,298.87616 807.165,284.00317 812.013,274.48514 812.013,71.78436 "
     id="face_51_52_94_93_92_91_49_50"
     style="fill:#c0c0c0;stroke:none"
     opacity="1"
     transform="translate(-488.98721,-41.545959)" />
  <line
     class="arc1"
     id="link50_@1_49"
     x1="323.02579"
     y1="232.93918"
     x2="318.17776"
     y2="242.45721" />
  <line
     class="arc0"
     id="link50_@0_51"
     x1="323.02579"
     y1="232.93918"
     x2="323.02579"
     y2="30.238403" />
  <line
     class="arc2"
     id="link48_@2_49"
     x1="310.71255"
     y1="250.90201"
     x2="318.17776"
     y2="242.45721" />
  <line
     class="arc0"
     id="link48_@0_90"
     x1="310.71255"
     y1="250.90201"
     x2="199.89218"
     y2="265.77502" />
  <line
     class="arc1"
     id="link58_@1_57"
     x1="312.94321"
     y1="19.875366"
     x2="320.40854"
     y2="29.165161" />
  <line
     class="arc2"
     id="link58_@2_59"
     x1="312.94321"
     y1="19.875366"
     x2="308.09531"
     y2="11.65863" />
  <line
     class="arc0"
     id="link11_@0_46"
     x1="318.17776"
     y1="277.92664"
     x2="207.35733"
     y2="292.79965" />
  <line
     class="arc2"
     id="link57_@2_51"
     x1="320.40854"
     y1="29.165161"
     x2="323.02579"
     y2="30.238403" />
  <line
     class="arc0"
     id="link49_@0_91"
     x1="318.17776"
     y1="242.45721"
     x2="207.35733"
     y2="257.3302" />
  <line
     class="arc1"
     id="link59_@1_53"
     x1="308.09531"
     y1="11.65863"
     x2="310.71255"
     y2="12.73175" />
  <line
     class="arc1"
     id="link51_@1_52"
     x1="323.02579"
     y1="30.238403"
     x2="318.17776"
     y2="22.021667" />
  <line
     class="arc2"
     id="link53_@2_52"
     x1="310.71255"
     y1="12.73175"
     x2="318.17776"
     y2="22.021667" />
  <line
     class="arc0"
     id="link53_@0_95"
     x1="310.71255"
     y1="12.73175"
     x2="199.89218"
     y2="27.604797" />
  <line
     class="arc1"
     id="link28_@1_29"
     x1="6.8479614"
     y1="501.88635"
     x2="2"
     y2="493.66962" />
  <line
     class="arc2"
     id="link28_@2_2"
     x1="6.8479614"
     y1="501.88635"
     x2="14.313171"
     y2="511.17627" />
  <line
     class="arc0"
     id="link52_@0_94"
     x1="318.17776"
     y1="22.021667"
     x2="207.35733"
     y2="36.894653" />
  <line
     class="arc1"
     id="link2_@1_3"
     x1="14.313171"
     y1="511.17627"
     x2="16.93042"
     y2="512.24945" />
  <line
     class="arc2"
     id="link29_@2_34"
     x1="2"
     y1="493.66962"
     x2="4.6172791"
     y2="494.7428" />
  <line
     class="arc0"
     id="link29_@0_30"
     x1="2"
     y1="493.66962"
     x2="2"
     y2="290.96893" />
  <line
     class="arc2"
     id="link3_@2_33"
     x1="16.93042"
     y1="512.24945"
     x2="12.082489"
     y2="504.03271" />
  <line
     class="arc0"
     id="link3_@0_4"
     x1="16.93042"
     y1="512.24945"
     x2="187.57895"
     y2="521.90808" />
  <line
     class="arc1"
     id="link31_@1_30"
     x1="6.8479614"
     y1="281.4509"
     x2="2"
     y2="290.96893" />
  <line
     class="arc2"
     id="link31_@2_32"
     x1="6.8479614"
     y1="281.4509"
     x2="14.313171"
     y2="273.00607" />
  <polygon
     points="501.0697,325.1432 671.7182,334.80182 679.1834,344.09174 679.1834,546.7925 671.7182,555.2373 501.0697,545.5787 493.6045,536.28876 493.6045,333.58804 "
     id="face_35_36_41_40_39_38_33_34"
     style="fill:#c0c0c0;stroke:none"
     opacity="1"
     transform="translate(-488.98721,-41.545959)" />
  <line
     class="arc1"
     id="link34_@1_33"
     x1="4.6172791"
     y1="494.7428"
     x2="12.082489"
     y2="504.03271" />
  <line
     class="arc0"
     id="link34_@0_35"
     x1="4.6172791"
     y1="494.7428"
     x2="4.6172791"
     y2="292.04208" />
  <line
     class="arc1"
     id="link73_@1_74"
     x1="6.8479614"
     y1="245.98145"
     x2="2"
     y2="237.76471" />
  <line
     class="arc2"
     id="link73_@2_72"
     x1="6.8479614"
     y1="245.98145"
     x2="14.313171"
     y2="255.2713" />
  <line
     class="arc1"
     id="link32_@1_37"
     x1="14.313171"
     y1="273.00607"
     x2="16.93042"
     y2="274.07922" />
  <line
     class="arc3"
     id="link32_@3_72"
     x1="14.313171"
     y1="273.00607"
     x2="14.313171"
     y2="255.2713" />
  <line
     class="arc0"
     id="link33_@0_38"
     x1="12.082489"
     y1="504.03271"
     x2="182.73099"
     y2="513.69135" />
  <line
     class="arc2"
     id="link30_@2_35"
     x1="2"
     y1="290.96893"
     x2="4.6172791"
     y2="292.04208" />
  <line
     class="arc1"
     id="link72_@1_78"
     x1="14.313171"
     y1="255.2713"
     x2="16.93042"
     y2="256.34448" />
  <line
     class="arc2"
     id="link74_@2_80"
     x1="2"
     y1="237.76471"
     x2="4.6172791"
     y2="238.83783" />
  <line
     class="arc0"
     id="link74_@0_75"
     x1="2"
     y1="237.76471"
     x2="2"
     y2="35.063843" />
  <line
     class="arc2"
     id="link37_@2_36"
     x1="16.93042"
     y1="274.07922"
     x2="12.082489"
     y2="283.59723" />
  <line
     class="arc3"
     id="link37_@3_78"
     x1="16.93042"
     y1="274.07922"
     x2="16.93042"
     y2="256.34448" />
  <line
     class="arc0"
     id="link37_@0_42"
     x1="16.93042"
     y1="274.07922"
     x2="187.57895"
     y2="283.73785" />
  <line
     class="arc1"
     id="link35_@1_36"
     x1="4.6172791"
     y1="292.04208"
     x2="12.082489"
     y2="283.59723" />
  <line
     class="arc2"
     id="link78_@2_79"
     x1="16.93042"
     y1="256.34448"
     x2="12.082489"
     y2="248.12778" />
  <line
     class="arc0"
     id="link78_@0_84"
     x1="16.93042"
     y1="256.34448"
     x2="187.57895"
     y2="266.00311" />
  <line
     class="arc1"
     id="link76_@1_75"
     x1="6.8479614"
     y1="25.545898"
     x2="2"
     y2="35.063843" />
  <line
     class="arc2"
     id="link76_@2_77"
     x1="6.8479614"
     y1="25.545898"
     x2="14.313171"
     y2="17.101074" />
  <polygon
     points="501.0697,69.23822 671.7182,78.89685 679.1834,88.18671 679.1834,290.8875 671.7182,299.33234 501.0697,289.67374 493.6045,280.3838 493.6045,77.683044 "
     id="face_81_82_88_87_86_85_79_80"
     style="fill:#c0c0c0;stroke:none"
     opacity="1"
     transform="translate(-488.98721,-41.545959)" />
  <line
     class="arc1"
     id="link80_@1_79"
     x1="4.6172791"
     y1="238.83783"
     x2="12.082489"
     y2="248.12778" />
  <line
     class="arc0"
     id="link80_@0_81"
     x1="4.6172791"
     y1="238.83783"
     x2="4.6172791"
     y2="36.137085" />
  <line
     class="arc0"
     id="link36_@0_41"
     x1="12.082489"
     y1="283.59723"
     x2="182.73099"
     y2="293.25586" />
  <line
     class="arc1"
     id="link77_@1_83"
     x1="14.313171"
     y1="17.101074"
     x2="16.93042"
     y2="18.174255" />
  <line
     class="arc0"
     id="link79_@0_85"
     x1="12.082489"
     y1="248.12778"
     x2="182.73099"
     y2="257.78638" />
  <line
     class="arc2"
     id="link75_@2_81"
     x1="2"
     y1="35.063843"
     x2="4.6172791"
     y2="36.137085" />
  <line
     class="arc2"
     id="link83_@2_82"
     x1="16.93042"
     y1="18.174255"
     x2="12.082489"
     y2="27.692261" />
  <line
     class="arc0"
     id="link83_@0_89"
     x1="16.93042"
     y1="18.174255"
     x2="187.57895"
     y2="27.832886" />
  <line
     class="arc1"
     id="link81_@1_82"
     x1="4.6172791"
     y1="36.137085"
     x2="12.082489"
     y2="27.692261" />
  <line
     class="arc0"
     id="link82_@0_88"
     x1="12.082489"
     y1="27.692261"
     x2="182.73099"
     y2="37.350891" />
  <line
     class="arc1"
     id="link5_@1_4"
     x1="199.89218"
     y1="521.67999"
     x2="187.57895"
     y2="521.90808" />
  <line
     class="arc2"
     id="link5_@2_43"
     x1="199.89218"
     y1="521.67999"
     x2="207.35733"
     y2="513.23511" />
  <line
     class="arc2"
     id="link4_@2_38"
     x1="187.57895"
     y1="521.90808"
     x2="182.73099"
     y2="513.69135" />
  <line
     class="arc1"
     id="link43_@1_44"
     x1="207.35733"
     y1="513.23511"
     x2="202.50943"
     y2="505.01837" />
  <line
     class="arc1"
     id="link38_@1_39"
     x1="182.73099"
     y1="513.69135"
     x2="190.1962"
     y2="505.24652" />
  <line
     class="arc2"
     id="link44_@2_39"
     x1="202.50943"
     y1="505.01837"
     x2="190.1962"
     y2="505.24652" />
  <line
     class="arc0"
     id="link44_@0_45"
     x1="202.50943"
     y1="505.01837"
     x2="202.50943"
     y2="302.31769" />
  <line
     class="arc0"
     id="link39_@0_40"
     x1="190.1962"
     y1="505.24652"
     x2="190.1962"
     y2="302.54578" />
  <line
     class="arc1"
     id="link47_@1_42"
     x1="199.89218"
     y1="283.50977"
     x2="187.57895"
     y2="283.73785" />
  <line
     class="arc2"
     id="link47_@2_46"
     x1="199.89218"
     y1="283.50977"
     x2="207.35733"
     y2="292.79965" />
  <line
     class="arc3"
     id="link47_@3_90"
     x1="199.89218"
     y1="283.50977"
     x2="199.89218"
     y2="265.77502" />
  <line
     class="arc1"
     id="link90_@1_84"
     x1="199.89218"
     y1="265.77502"
     x2="187.57895"
     y2="266.00311" />
  <line
     class="arc2"
     id="link90_@2_91"
     x1="199.89218"
     y1="265.77502"
     x2="207.35733"
     y2="257.3302" />
  <line
     class="arc2"
     id="link42_@2_41"
     x1="187.57895"
     y1="283.73785"
     x2="182.73099"
     y2="293.25586" />
  <line
     class="arc3"
     id="link42_@3_84"
     x1="187.57895"
     y1="283.73785"
     x2="187.57895"
     y2="266.00311" />
  <line
     class="arc1"
     id="link46_@1_45"
     x1="207.35733"
     y1="292.79965"
     x2="202.50943"
     y2="302.31769" />
  <line
     class="arc2"
     id="link84_@2_85"
     x1="187.57895"
     y1="266.00311"
     x2="182.73099"
     y2="257.78638" />
  <line
     class="arc1"
     id="link91_@1_92"
     x1="207.35733"
     y1="257.3302"
     x2="202.50943"
     y2="249.11346" />
  <line
     class="arc1"
     id="link41_@1_40"
     x1="182.73099"
     y1="293.25586"
     x2="190.1962"
     y2="302.54578" />
  <line
     class="arc2"
     id="link45_@2_40"
     x1="202.50943"
     y1="302.31769"
     x2="190.1962"
     y2="302.54578" />
  <line
     class="arc1"
     id="link85_@1_86"
     x1="182.73099"
     y1="257.78638"
     x2="190.1962"
     y2="249.34155" />
  <line
     class="arc2"
     id="link92_@2_86"
     x1="202.50943"
     y1="249.11346"
     x2="190.1962"
     y2="249.34155" />
  <line
     class="arc0"
     id="link92_@0_93"
     x1="202.50943"
     y1="249.11346"
     x2="202.50943"
     y2="46.412598" />
  <line
     class="arc0"
     id="link86_@0_87"
     x1="190.1962"
     y1="249.34155"
     x2="190.1962"
     y2="46.640747" />
  <line
     class="arc1"
     id="link95_@1_89"
     x1="199.89218"
     y1="27.604797"
     x2="187.57895"
     y2="27.832886" />
  <line
     class="arc2"
     id="link95_@2_94"
     x1="199.89218"
     y1="27.604797"
     x2="207.35733"
     y2="36.894653" />
  <line
     class="arc2"
     id="link89_@2_88"
     x1="187.57895"
     y1="27.832886"
     x2="182.73099"
     y2="37.350891" />
  <line
     class="arc1"
     id="link94_@1_93"
     x1="207.35733"
     y1="36.894653"
     x2="202.50943"
     y2="46.412598" />
  <line
     class="arc1"
     id="link88_@1_87"
     x1="182.73099"
     y1="37.350891"
     x2="190.1962"
     y2="46.640747" />
  <line
     class="arc2"
     id="link93_@2_87"
     x1="202.50943"
     y1="46.412598"
     x2="190.1962"
     y2="46.640747" />
</svg>
