<?xml version="1.0" encoding="UTF-8" standalone="no"?>
<!-- Created with Jerboa -->

<svg
   width="398.09018"
   height="642.23755"
   version="1.1"
   id="svg1"
   sodipodi:docname="smooth-2-rebuild-3.svg"
   xmlns:inkscape="http://www.inkscape.org/namespaces/inkscape"
   xmlns:sodipodi="http://sodipodi.sourceforge.net/DTD/sodipodi-0.dtd"
   xmlns="http://www.w3.org/2000/svg"
   xmlns:svg="http://www.w3.org/2000/svg">
  <defs
     id="defs1" />
  <sodipodi:namedview
     id="namedview1"
     pagecolor="#ffffff"
     bordercolor="#000000"
     borderopacity="0.25"
     inkscape:showpageshadow="2"
     inkscape:pageopacity="0.0"
     inkscape:pagecheckerboard="0"
     inkscape:deskcolor="#d1d1d1" />
  <style
     id="style">
		.arc0 {
			fill:none;
			fill-rule:evenodd;
			stroke:black;
			stroke-width:4;
			stroke-linecap:round;
			stroke-linejoin:round;
			stroke-opacity:1;
		}
		.arc1 {
			fill:none;
			fill-rule:evenodd;
			stroke:red;
			stroke-width:4;
			stroke-linecap:round;
			stroke-linejoin:round;
			stroke-opacity:1;
		}
		.arc2 {
			fill:none;
			fill-rule:evenodd;
			stroke:blue;
			stroke-width:4;
			stroke-linecap:round;
			stroke-linejoin:round;
			stroke-opacity:1;
		}
		.arc3 {
			fill:none;
			fill-rule:evenodd;
			stroke:green;
			stroke-width:4;
			stroke-linecap:round;
			stroke-linejoin:round;
			stroke-opacity:1;
		}
		.topological-dart {
			fill:#000000;
			stroke:#000000;
			stroke-width:0;
			stroke-linecap:round;
			stroke-linejoin:round;
			stroke-dasharray:none;
			paint-order:markers fill stroke;
		}
	</style>
  <polygon
     points="681.1805,330.61615 890.6681,342.47308 899.8323,353.87738 899.8323,602.71216 890.6681,613.079 681.1805,601.2221 672.0162,589.8178 672.0162,340.98306 "
     id="face_20_21_16_15_14_13_18_19"
     style="fill:#c0c0c0;stroke:none"
     opacity="1"
     transform="translate(-506.95505,-4.3812256)" />
  <line
     class="arc1"
     id="link19_@1_18"
     x1="165.06113"
     y1="585.43658"
     x2="174.22543"
     y2="596.84088" />
  <line
     class="arc2"
     id="link19_@2_24"
     x1="165.06113"
     y1="585.43658"
     x2="149.94553"
     y2="585.71661" />
  <line
     class="arc0"
     id="link19_@0_20"
     x1="165.06113"
     y1="585.43658"
     x2="165.06113"
     y2="336.60184" />
  <polygon
     points="650.9492,331.1762 514.90643,349.43427 508.95505,361.1186 508.95505,609.95337 514.90643,620.04016 650.9492,601.78217 656.9006,590.09784 656.9006,341.2631 "
     id="face_25_26_31_30_29_28_23_24"
     style="fill:#c0c0c0;stroke:none"
     opacity="1"
     transform="translate(-506.95505,-4.3812256)" />
  <line
     class="arc1"
     id="link24_@1_23"
     x1="149.94553"
     y1="585.71661"
     x2="143.99417"
     y2="597.40094" />
  <line
     class="arc0"
     id="link24_@0_25"
     x1="149.94553"
     y1="585.71661"
     x2="149.94553"
     y2="336.88187" />
  <line
     class="arc2"
     id="link18_@2_0"
     x1="174.22543"
     y1="596.84088"
     x2="168.27408"
     y2="608.52515" />
  <line
     class="arc0"
     id="link18_@0_13"
     x1="174.22543"
     y1="596.84088"
     x2="383.71304"
     y2="608.69775" />
  <line
     class="arc2"
     id="link23_@2_1"
     x1="143.99417"
     y1="597.40094"
     x2="153.15842"
     y2="608.80518" />
  <line
     class="arc0"
     id="link23_@0_28"
     x1="143.99417"
     y1="597.40094"
     x2="7.9513855"
     y2="615.65894" />
  <polygon
     points="887.9296,626.0807 751.88684,644.33875 736.7711,644.6188 527.2836,632.76184 524.07074,631.44446 660.11346,613.1864 675.2291,612.9064 884.7167,624.7633 "
     id="face_7_6_5_4_3_2_1_0"
     style="fill:#c0c0c0;stroke:none"
     opacity="1"
     transform="translate(-506.95505,-4.3812256)" />
  <line
     class="arc1"
     id="link0_@1_1"
     x1="168.27408"
     y1="608.52515"
     x2="153.15842"
     y2="608.80518" />
  <line
     class="arc0"
     id="link0_@0_7"
     x1="168.27408"
     y1="608.52515"
     x2="377.76163"
     y2="620.38208" />
  <line
     class="arc0"
     id="link1_@0_2"
     x1="153.15842"
     y1="608.80518"
     x2="17.115692"
     y2="627.06323" />
  <line
     class="arc1"
     id="link20_@1_21"
     x1="165.06113"
     y1="336.60184"
     x2="174.22543"
     y2="326.23492" />
  <line
     class="arc2"
     id="link20_@2_25"
     x1="165.06113"
     y1="336.60184"
     x2="149.94553"
     y2="336.88187" />
  <line
     class="arc1"
     id="link25_@1_26"
     x1="149.94553"
     y1="336.88187"
     x2="143.99417"
     y2="326.79498" />
  <polygon
     points="681.1805,16.468018 890.6681,28.32489 899.8323,39.729126 899.8323,288.56403 890.6681,298.9309 681.1805,287.07404 672.0162,275.6697 672.0162,26.834778 "
     id="face_63_64_58_57_56_55_61_62"
     style="fill:#c0c0c0;stroke:none"
     opacity="1"
     transform="translate(-506.95505,-4.3812256)" />
  <line
     class="arc1"
     id="link62_@1_61"
     x1="165.06113"
     y1="271.28848"
     x2="174.22543"
     y2="282.69281" />
  <line
     class="arc2"
     id="link62_@2_68"
     x1="165.06113"
     y1="271.28848"
     x2="149.94553"
     y2="271.56851" />
  <line
     class="arc0"
     id="link62_@0_63"
     x1="165.06113"
     y1="271.28848"
     x2="165.06113"
     y2="22.453552" />
  <line
     class="arc2"
     id="link21_@2_22"
     x1="174.22543"
     y1="326.23492"
     x2="168.27408"
     y2="316.14813" />
  <line
     class="arc0"
     id="link21_@0_16"
     x1="174.22543"
     y1="326.23492"
     x2="383.71304"
     y2="338.09186" />
  <polygon
     points="650.9492,17.028076 514.90643,35.286133 508.95505,46.970337 508.95505,295.80524 514.90643,305.8921 650.9492,287.63406 656.9006,275.94974 656.9006,27.114868 "
     id="face_69_70_76_75_74_73_67_68"
     style="fill:#c0c0c0;stroke:none"
     opacity="1"
     transform="translate(-506.95505,-4.3812256)" />
  <line
     class="arc1"
     id="link68_@1_67"
     x1="149.94553"
     y1="271.56851"
     x2="143.99417"
     y2="283.25284" />
  <line
     class="arc0"
     id="link68_@0_69"
     x1="149.94553"
     y1="271.56851"
     x2="149.94553"
     y2="22.733643" />
  <line
     class="arc2"
     id="link61_@2_60"
     x1="174.22543"
     y1="282.69281"
     x2="168.27408"
     y2="294.37701" />
  <line
     class="arc0"
     id="link61_@0_55"
     x1="174.22543"
     y1="282.69281"
     x2="383.71304"
     y2="294.54968" />
  <line
     class="arc2"
     id="link26_@2_27"
     x1="143.99417"
     y1="326.79498"
     x2="153.15842"
     y2="316.42816" />
  <line
     class="arc0"
     id="link26_@0_31"
     x1="143.99417"
     y1="326.79498"
     x2="7.9513855"
     y2="345.05304" />
  <polygon
     points="887.9296,333.70367 751.88684,351.9617 736.7711,352.24173 527.2836,340.38483 524.07074,339.06738 660.11346,320.8094 675.2291,320.52936 884.7167,332.38626 "
     id="face_17_12_47_42_37_32_27_22"
     style="fill:#c0c0c0;stroke:none"
     opacity="1"
     transform="translate(-506.95505,-4.3812256)" />
  <line
     class="arc1"
     id="link22_@1_27"
     x1="168.27408"
     y1="316.14813"
     x2="153.15842"
     y2="316.42816" />
  <line
     class="arc3"
     id="link22_@3_60"
     x1="168.27408"
     y1="316.14813"
     x2="168.27408"
     y2="294.37701" />
  <line
     class="arc0"
     id="link22_@0_17"
     x1="168.27408"
     y1="316.14813"
     x2="377.76163"
     y2="328.00504" />
  <line
     class="arc2"
     id="link67_@2_66"
     x1="143.99417"
     y1="283.25284"
     x2="153.15842"
     y2="294.65704" />
  <line
     class="arc0"
     id="link67_@0_73"
     x1="143.99417"
     y1="283.25284"
     x2="7.9513855"
     y2="301.51086" />
  <polygon
     points="887.9296,311.9326 751.88684,330.1906 736.7711,330.47064 527.2836,318.61374 524.07074,317.29633 660.11346,299.03827 675.2291,298.75824 884.7167,310.61517 "
     id="face_54_48_90_84_78_72_66_60"
     style="fill:#c0c0c0;stroke:none"
     opacity="1"
     transform="translate(-506.95505,-4.3812256)" />
  <line
     class="arc1"
     id="link60_@1_66"
     x1="168.27408"
     y1="294.37701"
     x2="153.15842"
     y2="294.65704" />
  <line
     class="arc0"
     id="link60_@0_54"
     x1="168.27408"
     y1="294.37701"
     x2="377.76163"
     y2="306.23395" />
  <line
     class="arc3"
     id="link27_@3_66"
     x1="153.15842"
     y1="316.42816"
     x2="153.15842"
     y2="294.65704" />
  <line
     class="arc0"
     id="link27_@0_32"
     x1="153.15842"
     y1="316.42816"
     x2="17.115692"
     y2="334.68616" />
  <line
     class="arc0"
     id="link66_@0_72"
     x1="153.15842"
     y1="294.65704"
     x2="17.115692"
     y2="312.9151" />
  <line
     class="arc1"
     id="link63_@1_64"
     x1="165.06113"
     y1="22.453552"
     x2="174.22543"
     y2="12.086792" />
  <line
     class="arc2"
     id="link63_@2_69"
     x1="165.06113"
     y1="22.453552"
     x2="149.94553"
     y2="22.733643" />
  <line
     class="arc1"
     id="link69_@1_70"
     x1="149.94553"
     y1="22.733643"
     x2="143.99417"
     y2="12.646851" />
  <line
     class="arc2"
     id="link64_@2_65"
     x1="174.22543"
     y1="12.086792"
     x2="168.27408"
     y2="2" />
  <line
     class="arc0"
     id="link64_@0_58"
     x1="174.22543"
     y1="12.086792"
     x2="383.71304"
     y2="23.943665" />
  <line
     class="arc2"
     id="link70_@2_71"
     x1="143.99417"
     y1="12.646851"
     x2="153.15842"
     y2="2.2800293" />
  <line
     class="arc0"
     id="link70_@0_76"
     x1="143.99417"
     y1="12.646851"
     x2="7.9513855"
     y2="30.904907" />
  <polygon
     points="887.9296,19.555542 751.88684,37.8136 736.7711,38.093628 527.2836,26.236755 524.07074,24.919312 660.11346,6.661255 675.2291,6.3812256 884.7167,18.238098 "
     id="face_59_53_95_89_83_77_71_65"
     style="fill:#c0c0c0;stroke:none"
     opacity="1"
     transform="translate(-506.95505,-4.3812256)" />
  <line
     class="arc1"
     id="link65_@1_71"
     x1="168.27408"
     y1="2"
     x2="153.15842"
     y2="2.2800293" />
  <line
     class="arc0"
     id="link65_@0_59"
     x1="168.27408"
     y1="2"
     x2="377.76163"
     y2="13.856873" />
  <line
     class="arc0"
     id="link71_@0_77"
     x1="153.15842"
     y1="2.2800293"
     x2="17.115692"
     y2="20.538086" />
  <line
     class="arc1"
     id="link13_@1_14"
     x1="383.71304"
     y1="608.69775"
     x2="392.87723"
     y2="598.33093" />
  <line
     class="arc2"
     id="link13_@2_7"
     x1="383.71304"
     y1="608.69775"
     x2="377.76163"
     y2="620.38208" />
  <line
     class="arc2"
     id="link14_@2_9"
     x1="392.87723"
     y1="598.33093"
     x2="396.09018"
     y2="599.64832" />
  <line
     class="arc0"
     id="link14_@0_15"
     x1="392.87723"
     y1="598.33093"
     x2="392.87723"
     y2="349.49615" />
  <line
     class="arc1"
     id="link7_@1_6"
     x1="377.76163"
     y1="620.38208"
     x2="380.97458"
     y2="621.69946" />
  <polygon
     points="897.0939,345.1079 761.05115,363.36594 755.09973,375.05026 755.09973,623.885 761.05115,633.97186 897.0939,615.7138 903.0452,604.02954 903.0452,355.1948 "
     id="face_10_11_46_45_44_43_8_9"
     style="fill:#c0c0c0;stroke:none"
     opacity="1"
     transform="translate(-506.95505,-4.3812256)" />
  <line
     class="arc1"
     id="link9_@1_8"
     x1="396.09018"
     y1="599.64832"
     x2="390.13882"
     y2="611.33258" />
  <line
     class="arc0"
     id="link9_@0_10"
     x1="396.09018"
     y1="599.64832"
     x2="396.09018"
     y2="350.81357" />
  <line
     class="arc2"
     id="link6_@2_8"
     x1="380.97458"
     y1="621.69946"
     x2="390.13882"
     y2="611.33258" />
  <line
     class="arc0"
     id="link6_@0_5"
     x1="380.97458"
     y1="621.69946"
     x2="244.93179"
     y2="639.95752" />
  <line
     class="arc1"
     id="link16_@1_15"
     x1="383.71304"
     y1="338.09186"
     x2="392.87723"
     y2="349.49615" />
  <line
     class="arc2"
     id="link16_@2_17"
     x1="383.71304"
     y1="338.09186"
     x2="377.76163"
     y2="328.00504" />
  <line
     class="arc1"
     id="link55_@1_56"
     x1="383.71304"
     y1="294.54968"
     x2="392.87723"
     y2="284.1828" />
  <line
     class="arc2"
     id="link55_@2_54"
     x1="383.71304"
     y1="294.54968"
     x2="377.76163"
     y2="306.23395" />
  <line
     class="arc2"
     id="link15_@2_10"
     x1="392.87723"
     y1="349.49615"
     x2="396.09018"
     y2="350.81357" />
  <line
     class="arc0"
     id="link8_@0_43"
     x1="390.13882"
     y1="611.33258"
     x2="254.0961"
     y2="629.59064" />
  <line
     class="arc1"
     id="link17_@1_12"
     x1="377.76163"
     y1="328.00504"
     x2="380.97458"
     y2="329.32245" />
  <line
     class="arc3"
     id="link17_@3_54"
     x1="377.76163"
     y1="328.00504"
     x2="377.76163"
     y2="306.23395" />
  <line
     class="arc2"
     id="link56_@2_50"
     x1="392.87723"
     y1="284.1828"
     x2="396.09018"
     y2="285.50018" />
  <line
     class="arc0"
     id="link56_@0_57"
     x1="392.87723"
     y1="284.1828"
     x2="392.87723"
     y2="35.3479" />
  <line
     class="arc1"
     id="link54_@1_48"
     x1="377.76163"
     y1="306.23395"
     x2="380.97458"
     y2="307.55136" />
  <line
     class="arc1"
     id="link10_@1_11"
     x1="396.09018"
     y1="350.81357"
     x2="390.13882"
     y2="340.72668" />
  <line
     class="arc2"
     id="link12_@2_11"
     x1="380.97458"
     y1="329.32245"
     x2="390.13882"
     y2="340.72668" />
  <line
     class="arc3"
     id="link12_@3_48"
     x1="380.97458"
     y1="329.32245"
     x2="380.97458"
     y2="307.55136" />
  <line
     class="arc0"
     id="link12_@0_47"
     x1="380.97458"
     y1="329.32245"
     x2="244.93179"
     y2="347.58047" />
  <polygon
     points="897.0939,30.959717 761.05115,49.217773 755.09973,60.901978 755.09973,309.7369 761.05115,319.8238 897.0939,301.56577 903.0452,289.8814 903.0452,41.04651 "
     id="face_51_52_94_93_92_91_49_50"
     style="fill:#c0c0c0;stroke:none"
     opacity="1"
     transform="translate(-506.95505,-4.3812256)" />
  <line
     class="arc1"
     id="link50_@1_49"
     x1="396.09018"
     y1="285.50018"
     x2="390.13882"
     y2="297.18454" />
  <line
     class="arc0"
     id="link50_@0_51"
     x1="396.09018"
     y1="285.50018"
     x2="396.09018"
     y2="36.665283" />
  <line
     class="arc2"
     id="link48_@2_49"
     x1="380.97458"
     y1="307.55136"
     x2="390.13882"
     y2="297.18454" />
  <line
     class="arc0"
     id="link48_@0_90"
     x1="380.97458"
     y1="307.55136"
     x2="244.93179"
     y2="325.80939" />
  <line
     class="arc1"
     id="link58_@1_57"
     x1="383.71304"
     y1="23.943665"
     x2="392.87723"
     y2="35.3479" />
  <line
     class="arc2"
     id="link58_@2_59"
     x1="383.71304"
     y1="23.943665"
     x2="377.76163"
     y2="13.856873" />
  <line
     class="arc0"
     id="link11_@0_46"
     x1="390.13882"
     y1="340.72668"
     x2="254.0961"
     y2="358.98471" />
  <line
     class="arc2"
     id="link57_@2_51"
     x1="392.87723"
     y1="35.3479"
     x2="396.09018"
     y2="36.665283" />
  <line
     class="arc0"
     id="link49_@0_91"
     x1="390.13882"
     y1="297.18454"
     x2="254.0961"
     y2="315.44257" />
  <line
     class="arc1"
     id="link59_@1_53"
     x1="377.76163"
     y1="13.856873"
     x2="380.97458"
     y2="15.174316" />
  <line
     class="arc1"
     id="link51_@1_52"
     x1="396.09018"
     y1="36.665283"
     x2="390.13882"
     y2="26.578491" />
  <line
     class="arc2"
     id="link53_@2_52"
     x1="380.97458"
     y1="15.174316"
     x2="390.13882"
     y2="26.578491" />
  <line
     class="arc0"
     id="link53_@0_95"
     x1="380.97458"
     y1="15.174316"
     x2="244.93179"
     y2="33.432373" />
  <line
     class="arc1"
     id="link28_@1_29"
     x1="7.9513855"
     y1="615.65894"
     x2="2"
     y2="605.57214" />
  <line
     class="arc2"
     id="link28_@2_2"
     x1="7.9513855"
     y1="615.65894"
     x2="17.115692"
     y2="627.06323" />
  <line
     class="arc0"
     id="link52_@0_94"
     x1="390.13882"
     y1="26.578491"
     x2="254.0961"
     y2="44.836548" />
  <line
     class="arc1"
     id="link2_@1_3"
     x1="17.115692"
     y1="627.06323"
     x2="20.328583"
     y2="628.38062" />
  <line
     class="arc2"
     id="link29_@2_34"
     x1="2"
     y1="605.57214"
     x2="5.2129211"
     y2="606.88953" />
  <line
     class="arc0"
     id="link29_@0_30"
     x1="2"
     y1="605.57214"
     x2="2"
     y2="356.73737" />
  <line
     class="arc2"
     id="link3_@2_33"
     x1="20.328583"
     y1="628.38062"
     x2="14.377228"
     y2="618.29376" />
  <line
     class="arc0"
     id="link3_@0_4"
     x1="20.328583"
     y1="628.38062"
     x2="229.81607"
     y2="640.23755" />
  <line
     class="arc1"
     id="link31_@1_30"
     x1="7.9513855"
     y1="345.05304"
     x2="2"
     y2="356.73737" />
  <line
     class="arc2"
     id="link31_@2_32"
     x1="7.9513855"
     y1="345.05304"
     x2="17.115692"
     y2="334.68616" />
  <polygon
     points="521.3323,352.0691 730.8198,363.926 739.9841,375.3303 739.9841,624.16504 730.8198,634.5319 521.3323,622.675 512.16797,611.27075 512.16797,362.43597 "
     id="face_35_36_41_40_39_38_33_34"
     style="fill:#c0c0c0;stroke:none"
     opacity="1"
     transform="translate(-506.95505,-4.3812256)" />
  <line
     class="arc1"
     id="link34_@1_33"
     x1="5.2129211"
     y1="606.88953"
     x2="14.377228"
     y2="618.29376" />
  <line
     class="arc0"
     id="link34_@0_35"
     x1="5.2129211"
     y1="606.88953"
     x2="5.2129211"
     y2="358.05475" />
  <line
     class="arc1"
     id="link73_@1_74"
     x1="7.9513855"
     y1="301.51086"
     x2="2"
     y2="291.42401" />
  <line
     class="arc2"
     id="link73_@2_72"
     x1="7.9513855"
     y1="301.51086"
     x2="17.115692"
     y2="312.9151" />
  <line
     class="arc1"
     id="link32_@1_37"
     x1="17.115692"
     y1="334.68616"
     x2="20.328583"
     y2="336.0036" />
  <line
     class="arc3"
     id="link32_@3_72"
     x1="17.115692"
     y1="334.68616"
     x2="17.115692"
     y2="312.9151" />
  <line
     class="arc0"
     id="link33_@0_38"
     x1="14.377228"
     y1="618.29376"
     x2="223.86478"
     y2="630.1507" />
  <line
     class="arc2"
     id="link30_@2_35"
     x1="2"
     y1="356.73737"
     x2="5.2129211"
     y2="358.05475" />
  <line
     class="arc1"
     id="link72_@1_78"
     x1="17.115692"
     y1="312.9151"
     x2="20.328583"
     y2="314.23251" />
  <line
     class="arc2"
     id="link74_@2_80"
     x1="2"
     y1="291.42401"
     x2="5.2129211"
     y2="292.74139" />
  <line
     class="arc0"
     id="link74_@0_75"
     x1="2"
     y1="291.42401"
     x2="2"
     y2="42.589111" />
  <line
     class="arc2"
     id="link37_@2_36"
     x1="20.328583"
     y1="336.0036"
     x2="14.377228"
     y2="347.68787" />
  <line
     class="arc3"
     id="link37_@3_78"
     x1="20.328583"
     y1="336.0036"
     x2="20.328583"
     y2="314.23251" />
  <line
     class="arc0"
     id="link37_@0_42"
     x1="20.328583"
     y1="336.0036"
     x2="229.81607"
     y2="347.8605" />
  <line
     class="arc1"
     id="link35_@1_36"
     x1="5.2129211"
     y1="358.05475"
     x2="14.377228"
     y2="347.68787" />
  <line
     class="arc2"
     id="link78_@2_79"
     x1="20.328583"
     y1="314.23251"
     x2="14.377228"
     y2="304.14572" />
  <line
     class="arc0"
     id="link78_@0_84"
     x1="20.328583"
     y1="314.23251"
     x2="229.81607"
     y2="326.08942" />
  <line
     class="arc1"
     id="link76_@1_75"
     x1="7.9513855"
     y1="30.904907"
     x2="2"
     y2="42.589111" />
  <line
     class="arc2"
     id="link76_@2_77"
     x1="7.9513855"
     y1="30.904907"
     x2="17.115692"
     y2="20.538086" />
  <polygon
     points="521.3323,37.92096 730.8198,49.777832 739.9841,61.182007 739.9841,310.01694 730.8198,320.38388 521.3323,308.52695 512.16797,297.12262 512.16797,48.28772 "
     id="face_81_82_88_87_86_85_79_80"
     style="fill:#c0c0c0;stroke:none"
     opacity="1"
     transform="translate(-506.95505,-4.3812256)" />
  <line
     class="arc1"
     id="link80_@1_79"
     x1="5.2129211"
     y1="292.74139"
     x2="14.377228"
     y2="304.14572" />
  <line
     class="arc0"
     id="link80_@0_81"
     x1="5.2129211"
     y1="292.74139"
     x2="5.2129211"
     y2="43.906494" />
  <line
     class="arc0"
     id="link36_@0_41"
     x1="14.377228"
     y1="347.68787"
     x2="223.86478"
     y2="359.54477" />
  <line
     class="arc1"
     id="link77_@1_83"
     x1="17.115692"
     y1="20.538086"
     x2="20.328583"
     y2="21.85553" />
  <line
     class="arc0"
     id="link79_@0_85"
     x1="14.377228"
     y1="304.14572"
     x2="223.86478"
     y2="316.00266" />
  <line
     class="arc2"
     id="link75_@2_81"
     x1="2"
     y1="42.589111"
     x2="5.2129211"
     y2="43.906494" />
  <line
     class="arc2"
     id="link83_@2_82"
     x1="20.328583"
     y1="21.85553"
     x2="14.377228"
     y2="33.539734" />
  <line
     class="arc0"
     id="link83_@0_89"
     x1="20.328583"
     y1="21.85553"
     x2="229.81607"
     y2="33.712402" />
  <line
     class="arc1"
     id="link81_@1_82"
     x1="5.2129211"
     y1="43.906494"
     x2="14.377228"
     y2="33.539734" />
  <line
     class="arc0"
     id="link82_@0_88"
     x1="14.377228"
     y1="33.539734"
     x2="223.86478"
     y2="45.396606" />
  <line
     class="arc1"
     id="link5_@1_4"
     x1="244.93179"
     y1="639.95752"
     x2="229.81607"
     y2="640.23755" />
  <line
     class="arc2"
     id="link5_@2_43"
     x1="244.93179"
     y1="639.95752"
     x2="254.0961"
     y2="629.59064" />
  <line
     class="arc2"
     id="link4_@2_38"
     x1="229.81607"
     y1="640.23755"
     x2="223.86478"
     y2="630.1507" />
  <line
     class="arc1"
     id="link43_@1_44"
     x1="254.0961"
     y1="629.59064"
     x2="248.14468"
     y2="619.50378" />
  <line
     class="arc1"
     id="link38_@1_39"
     x1="223.86478"
     y1="630.1507"
     x2="233.02902"
     y2="619.78381" />
  <line
     class="arc2"
     id="link44_@2_39"
     x1="248.14468"
     y1="619.50378"
     x2="233.02902"
     y2="619.78381" />
  <line
     class="arc0"
     id="link44_@0_45"
     x1="248.14468"
     y1="619.50378"
     x2="248.14468"
     y2="370.66904" />
  <line
     class="arc0"
     id="link39_@0_40"
     x1="233.02902"
     y1="619.78381"
     x2="233.02902"
     y2="370.94907" />
  <line
     class="arc1"
     id="link47_@1_42"
     x1="244.93179"
     y1="347.58047"
     x2="229.81607"
     y2="347.8605" />
  <line
     class="arc2"
     id="link47_@2_46"
     x1="244.93179"
     y1="347.58047"
     x2="254.0961"
     y2="358.98471" />
  <line
     class="arc3"
     id="link47_@3_90"
     x1="244.93179"
     y1="347.58047"
     x2="244.93179"
     y2="325.80939" />
  <line
     class="arc1"
     id="link90_@1_84"
     x1="244.93179"
     y1="325.80939"
     x2="229.81607"
     y2="326.08942" />
  <line
     class="arc2"
     id="link90_@2_91"
     x1="244.93179"
     y1="325.80939"
     x2="254.0961"
     y2="315.44257" />
  <line
     class="arc2"
     id="link42_@2_41"
     x1="229.81607"
     y1="347.8605"
     x2="223.86478"
     y2="359.54477" />
  <line
     class="arc3"
     id="link42_@3_84"
     x1="229.81607"
     y1="347.8605"
     x2="229.81607"
     y2="326.08942" />
  <line
     class="arc1"
     id="link46_@1_45"
     x1="254.0961"
     y1="358.98471"
     x2="248.14468"
     y2="370.66904" />
  <line
     class="arc2"
     id="link84_@2_85"
     x1="229.81607"
     y1="326.08942"
     x2="223.86478"
     y2="316.00266" />
  <line
     class="arc1"
     id="link91_@1_92"
     x1="254.0961"
     y1="315.44257"
     x2="248.14468"
     y2="305.35568" />
  <line
     class="arc1"
     id="link41_@1_40"
     x1="223.86478"
     y1="359.54477"
     x2="233.02902"
     y2="370.94907" />
  <line
     class="arc2"
     id="link45_@2_40"
     x1="248.14468"
     y1="370.66904"
     x2="233.02902"
     y2="370.94907" />
  <line
     class="arc1"
     id="link85_@1_86"
     x1="223.86478"
     y1="316.00266"
     x2="233.02902"
     y2="305.63571" />
  <line
     class="arc2"
     id="link92_@2_86"
     x1="248.14468"
     y1="305.35568"
     x2="233.02902"
     y2="305.63571" />
  <line
     class="arc0"
     id="link92_@0_93"
     x1="248.14468"
     y1="305.35568"
     x2="248.14468"
     y2="56.520752" />
  <line
     class="arc0"
     id="link86_@0_87"
     x1="233.02902"
     y1="305.63571"
     x2="233.02902"
     y2="56.800781" />
  <line
     class="arc1"
     id="link95_@1_89"
     x1="244.93179"
     y1="33.432373"
     x2="229.81607"
     y2="33.712402" />
  <line
     class="arc2"
     id="link95_@2_94"
     x1="244.93179"
     y1="33.432373"
     x2="254.0961"
     y2="44.836548" />
  <line
     class="arc2"
     id="link89_@2_88"
     x1="229.81607"
     y1="33.712402"
     x2="223.86478"
     y2="45.396606" />
  <line
     class="arc1"
     id="link94_@1_93"
     x1="254.0961"
     y1="44.836548"
     x2="248.14468"
     y2="56.520752" />
  <line
     class="arc1"
     id="link88_@1_87"
     x1="223.86478"
     y1="45.396606"
     x2="233.02902"
     y2="56.800781" />
  <line
     class="arc2"
     id="link93_@2_87"
     x1="248.14468"
     y1="56.520752"
     x2="233.02902"
     y2="56.800781" />
</svg>
