<?xml version="1.0" encoding="UTF-8" standalone="no"?>
<!-- Created with Jerboa -->

<svg
   width="571.34973"
   height="470.57349"
   version="1.1"
   id="svg1"
   sodipodi:docname="smooth-2-rebuild-2.svg"
   xmlns:inkscape="http://www.inkscape.org/namespaces/inkscape"
   xmlns:sodipodi="http://sodipodi.sourceforge.net/DTD/sodipodi-0.dtd"
   xmlns="http://www.w3.org/2000/svg"
   xmlns:svg="http://www.w3.org/2000/svg">
  <defs
     id="defs1" />
  <sodipodi:namedview
     id="namedview1"
     pagecolor="#ffffff"
     bordercolor="#000000"
     borderopacity="0.25"
     inkscape:showpageshadow="2"
     inkscape:pageopacity="0.0"
     inkscape:pagecheckerboard="0"
     inkscape:deskcolor="#d1d1d1" />
  <style
     id="style">
		.arc0 {
			fill:none;
			fill-rule:evenodd;
			stroke:black;
			stroke-width:4;
			stroke-linecap:round;
			stroke-linejoin:round;
			stroke-opacity:1;
		}
		.arc1 {
			fill:none;
			fill-rule:evenodd;
			stroke:red;
			stroke-width:4;
			stroke-linecap:round;
			stroke-linejoin:round;
			stroke-opacity:1;
		}
		.arc2 {
			fill:none;
			fill-rule:evenodd;
			stroke:blue;
			stroke-width:4;
			stroke-linecap:round;
			stroke-linejoin:round;
			stroke-opacity:1;
		}
		.arc3 {
			fill:none;
			fill-rule:evenodd;
			stroke:green;
			stroke-width:4;
			stroke-linecap:round;
			stroke-linejoin:round;
			stroke-opacity:1;
		}
		.topological-dart {
			fill:#000000;
			stroke:#000000;
			stroke-width:0;
			stroke-linecap:round;
			stroke-linejoin:round;
			stroke-dasharray:none;
			paint-order:markers fill stroke;
		}
	</style>
  <polygon
     points="670.2686,106.73468 971.8562,123.80444 985.04956,140.2226 985.04956,498.45612 971.8562,513.38074 670.2686,496.31097 657.0753,479.89288 657.0753,121.65936 "
     id="face_20_21_16_15_14_13_18_19"
     style="fill:#c0c0c0;stroke:none"
     opacity="1"
     transform="translate(-420.32523,-90.213257)" />
  <line
     class="arc1"
     id="link19_@1_18"
     x1="236.75009"
     y1="389.67963"
     x2="249.94339"
     y2="406.09772" />
  <line
     class="arc2"
     id="link19_@2_24"
     x1="236.75009"
     y1="389.67963"
     x2="214.98898"
     y2="390.08279" />
  <line
     class="arc0"
     id="link19_@0_20"
     x1="236.75009"
     y1="389.67963"
     x2="236.75009"
     y2="31.446106" />
  <polygon
     points="626.74634,107.54102 430.8931,133.82605 422.32523,150.64731 422.32523,508.88086 430.8931,523.40234 626.74634,497.11725 635.3142,480.29605 635.3142,122.0625 "
     id="face_25_26_31_30_29_28_23_24"
     style="fill:#c0c0c0;stroke:none"
     opacity="1"
     transform="translate(-420.32523,-90.213257)" />
  <line
     class="arc1"
     id="link24_@1_23"
     x1="214.98898"
     y1="390.08279"
     x2="206.42111"
     y2="406.90399" />
  <line
     class="arc0"
     id="link24_@0_25"
     x1="214.98898"
     y1="390.08279"
     x2="214.98898"
     y2="31.849243" />
  <line
     class="arc2"
     id="link18_@2_0"
     x1="249.94339"
     y1="406.09772"
     x2="241.37558"
     y2="422.91895" />
  <line
     class="arc0"
     id="link18_@0_13"
     x1="249.94339"
     y1="406.09772"
     x2="551.53101"
     y2="423.16748" />
  <line
     class="arc2"
     id="link23_@2_1"
     x1="206.42111"
     y1="406.90399"
     x2="219.61441"
     y2="423.32208" />
  <line
     class="arc0"
     id="link23_@0_28"
     x1="206.42111"
     y1="406.90399"
     x2="10.567871"
     y2="433.18909" />
  <polygon
     points="967.91394,532.0985 772.06067,558.3836 750.2994,558.78674 448.71185,541.71704 444.08643,539.82043 639.93964,513.53534 661.7008,513.1322 963.2884,530.2019 "
     id="face_7_6_5_4_3_2_1_0"
     style="fill:#c0c0c0;stroke:none"
     opacity="1"
     transform="translate(-420.32523,-90.213257)" />
  <line
     class="arc1"
     id="link0_@1_1"
     x1="241.37558"
     y1="422.91895"
     x2="219.61441"
     y2="423.32208" />
  <line
     class="arc0"
     id="link0_@0_7"
     x1="241.37558"
     y1="422.91895"
     x2="542.96313"
     y2="439.98865" />
  <line
     class="arc0"
     id="link1_@0_2"
     x1="219.61441"
     y1="423.32208"
     x2="23.7612"
     y2="449.60718" />
  <line
     class="arc1"
     id="link20_@1_21"
     x1="236.75009"
     y1="31.446106"
     x2="249.94339"
     y2="16.521423" />
  <line
     class="arc2"
     id="link20_@2_25"
     x1="236.75009"
     y1="31.446106"
     x2="214.98898"
     y2="31.849243" />
  <line
     class="arc1"
     id="link25_@1_26"
     x1="214.98898"
     y1="31.849243"
     x2="206.42111"
     y2="17.327766" />
  <line
     class="arc2"
     id="link21_@2_22"
     x1="249.94339"
     y1="16.521423"
     x2="241.37558"
     y2="2" />
  <line
     class="arc0"
     id="link21_@0_16"
     x1="249.94339"
     y1="16.521423"
     x2="551.53101"
     y2="33.591187" />
  <line
     class="arc2"
     id="link26_@2_27"
     x1="206.42111"
     y1="17.327766"
     x2="219.61441"
     y2="2.4031982" />
  <line
     class="arc0"
     id="link26_@0_31"
     x1="206.42111"
     y1="17.327766"
     x2="10.567871"
     y2="43.612793" />
  <polygon
     points="967.91394,111.17963 772.06067,137.46466 750.2994,137.8678 448.71185,120.7981 444.08643,118.90149 639.93964,92.616455 661.7008,92.21326 963.2884,109.28302 "
     id="face_17_12_47_42_37_32_27_22"
     style="fill:#c0c0c0;stroke:none"
     opacity="1"
     transform="translate(-420.32523,-90.213257)" />
  <line
     class="arc1"
     id="link22_@1_27"
     x1="241.37558"
     y1="2"
     x2="219.61441"
     y2="2.4031982" />
  <line
     class="arc0"
     id="link22_@0_17"
     x1="241.37558"
     y1="2"
     x2="542.96313"
     y2="19.069763" />
  <line
     class="arc0"
     id="link27_@0_32"
     x1="219.61441"
     y1="2.4031982"
     x2="23.7612"
     y2="28.688232" />
  <line
     class="arc1"
     id="link13_@1_14"
     x1="551.53101"
     y1="423.16748"
     x2="564.72437"
     y2="408.24286" />
  <line
     class="arc2"
     id="link13_@2_7"
     x1="551.53101"
     y1="423.16748"
     x2="542.96313"
     y2="439.98865" />
  <line
     class="arc2"
     id="link14_@2_9"
     x1="564.72437"
     y1="408.24286"
     x2="569.34973"
     y2="410.13947" />
  <line
     class="arc0"
     id="link14_@0_15"
     x1="564.72437"
     y1="408.24286"
     x2="564.72437"
     y2="50.009338" />
  <line
     class="arc1"
     id="link7_@1_6"
     x1="542.96313"
     y1="439.98865"
     x2="547.58875"
     y2="441.88525" />
  <polygon
     points="981.1071,127.59772 785.25385,153.88275 776.68604,170.70398 776.68604,528.93756 785.25385,543.459 981.1071,517.17395 989.6749,500.35272 989.6749,142.1192 "
     id="face_10_11_46_45_44_43_8_9"
     style="fill:#c0c0c0;stroke:none"
     opacity="1"
     transform="translate(-420.32523,-90.213257)" />
  <line
     class="arc1"
     id="link9_@1_8"
     x1="569.34973"
     y1="410.13947"
     x2="560.78186"
     y2="426.96069" />
  <line
     class="arc0"
     id="link9_@0_10"
     x1="569.34973"
     y1="410.13947"
     x2="569.34973"
     y2="51.905945" />
  <line
     class="arc2"
     id="link6_@2_8"
     x1="547.58875"
     y1="441.88525"
     x2="560.78186"
     y2="426.96069" />
  <line
     class="arc0"
     id="link6_@0_5"
     x1="547.58875"
     y1="441.88525"
     x2="351.73544"
     y2="468.17035" />
  <line
     class="arc1"
     id="link16_@1_15"
     x1="551.53101"
     y1="33.591187"
     x2="564.72437"
     y2="50.009338" />
  <line
     class="arc2"
     id="link16_@2_17"
     x1="551.53101"
     y1="33.591187"
     x2="542.96313"
     y2="19.069763" />
  <line
     class="arc2"
     id="link15_@2_10"
     x1="564.72437"
     y1="50.009338"
     x2="569.34973"
     y2="51.905945" />
  <line
     class="arc0"
     id="link8_@0_43"
     x1="560.78186"
     y1="426.96069"
     x2="364.92862"
     y2="453.24573" />
  <line
     class="arc1"
     id="link17_@1_12"
     x1="542.96313"
     y1="19.069763"
     x2="547.58875"
     y2="20.96637" />
  <line
     class="arc1"
     id="link10_@1_11"
     x1="569.34973"
     y1="51.905945"
     x2="560.78186"
     y2="37.38446" />
  <line
     class="arc2"
     id="link12_@2_11"
     x1="547.58875"
     y1="20.96637"
     x2="560.78186"
     y2="37.38446" />
  <line
     class="arc0"
     id="link12_@0_47"
     x1="547.58875"
     y1="20.96637"
     x2="351.73544"
     y2="47.251404" />
  <line
     class="arc0"
     id="link11_@0_46"
     x1="560.78186"
     y1="37.38446"
     x2="364.92862"
     y2="63.669495" />
  <line
     class="arc1"
     id="link28_@1_29"
     x1="10.567871"
     y1="433.18909"
     x2="2"
     y2="418.6676" />
  <line
     class="arc2"
     id="link28_@2_2"
     x1="10.567871"
     y1="433.18909"
     x2="23.7612"
     y2="449.60718" />
  <line
     class="arc1"
     id="link2_@1_3"
     x1="23.7612"
     y1="449.60718"
     x2="28.386627"
     y2="451.50378" />
  <line
     class="arc2"
     id="link29_@2_34"
     x1="2"
     y1="418.6676"
     x2="6.6255188"
     y2="420.56421" />
  <line
     class="arc0"
     id="link29_@0_30"
     x1="2"
     y1="418.6676"
     x2="2"
     y2="60.434052" />
  <line
     class="arc2"
     id="link3_@2_33"
     x1="28.386627"
     y1="451.50378"
     x2="19.818817"
     y2="436.9823" />
  <line
     class="arc0"
     id="link3_@0_4"
     x1="28.386627"
     y1="451.50378"
     x2="329.97415"
     y2="468.57349" />
  <line
     class="arc1"
     id="link31_@1_30"
     x1="10.567871"
     y1="43.612793"
     x2="2"
     y2="60.434052" />
  <line
     class="arc2"
     id="link31_@2_32"
     x1="10.567871"
     y1="43.612793"
     x2="23.7612"
     y2="28.688232" />
  <polygon
     points="440.14404,137.61926 741.7316,154.689 754.925,171.10715 754.925,529.3407 741.7316,544.26526 440.14404,527.19556 426.95074,510.77747 426.95074,152.54391 "
     id="face_35_36_41_40_39_38_33_34"
     style="fill:#c0c0c0;stroke:none"
     opacity="1"
     transform="translate(-420.32523,-90.213257)" />
  <line
     class="arc1"
     id="link34_@1_33"
     x1="6.6255188"
     y1="420.56421"
     x2="19.818817"
     y2="436.9823" />
  <line
     class="arc0"
     id="link34_@0_35"
     x1="6.6255188"
     y1="420.56421"
     x2="6.6255188"
     y2="62.330658" />
  <line
     class="arc1"
     id="link32_@1_37"
     x1="23.7612"
     y1="28.688232"
     x2="28.386627"
     y2="30.584846" />
  <line
     class="arc0"
     id="link33_@0_38"
     x1="19.818817"
     y1="436.9823"
     x2="321.4064"
     y2="454.052" />
  <line
     class="arc2"
     id="link30_@2_35"
     x1="2"
     y1="60.434052"
     x2="6.6255188"
     y2="62.330658" />
  <line
     class="arc2"
     id="link37_@2_36"
     x1="28.386627"
     y1="30.584846"
     x2="19.818817"
     y2="47.406006" />
  <line
     class="arc0"
     id="link37_@0_42"
     x1="28.386627"
     y1="30.584846"
     x2="329.97415"
     y2="47.654541" />
  <line
     class="arc1"
     id="link35_@1_36"
     x1="6.6255188"
     y1="62.330658"
     x2="19.818817"
     y2="47.406006" />
  <line
     class="arc0"
     id="link36_@0_41"
     x1="19.818817"
     y1="47.406006"
     x2="321.4064"
     y2="64.475739" />
  <line
     class="arc1"
     id="link5_@1_4"
     x1="351.73544"
     y1="468.17035"
     x2="329.97415"
     y2="468.57349" />
  <line
     class="arc2"
     id="link5_@2_43"
     x1="351.73544"
     y1="468.17035"
     x2="364.92862"
     y2="453.24573" />
  <line
     class="arc2"
     id="link4_@2_38"
     x1="329.97415"
     y1="468.57349"
     x2="321.4064"
     y2="454.052" />
  <line
     class="arc1"
     id="link43_@1_44"
     x1="364.92862"
     y1="453.24573"
     x2="356.36081"
     y2="438.7243" />
  <line
     class="arc1"
     id="link38_@1_39"
     x1="321.4064"
     y1="454.052"
     x2="334.59976"
     y2="439.12744" />
  <line
     class="arc2"
     id="link44_@2_39"
     x1="356.36081"
     y1="438.7243"
     x2="334.59976"
     y2="439.12744" />
  <line
     class="arc0"
     id="link44_@0_45"
     x1="356.36081"
     y1="438.7243"
     x2="356.36081"
     y2="80.490723" />
  <line
     class="arc0"
     id="link39_@0_40"
     x1="334.59976"
     y1="439.12744"
     x2="334.59976"
     y2="80.89389" />
  <line
     class="arc1"
     id="link47_@1_42"
     x1="351.73544"
     y1="47.251404"
     x2="329.97415"
     y2="47.654541" />
  <line
     class="arc2"
     id="link47_@2_46"
     x1="351.73544"
     y1="47.251404"
     x2="364.92862"
     y2="63.669495" />
  <line
     class="arc2"
     id="link42_@2_41"
     x1="329.97415"
     y1="47.654541"
     x2="321.4064"
     y2="64.475739" />
  <line
     class="arc1"
     id="link46_@1_45"
     x1="364.92862"
     y1="63.669495"
     x2="356.36081"
     y2="80.490723" />
  <line
     class="arc1"
     id="link41_@1_40"
     x1="321.4064"
     y1="64.475739"
     x2="334.59976"
     y2="80.89389" />
  <line
     class="arc2"
     id="link45_@2_40"
     x1="356.36081"
     y1="80.490723"
     x2="334.59976"
     y2="80.89389" />
</svg>
