<?xml version="1.0" encoding="UTF-8" standalone="no"?>
<!-- Created with Jerboa -->

<svg
   width="341.92422"
   height="343.30307"
   version="1.1"
   id="svg1"
   sodipodi:docname="build-init-v3-5-alt.svg"
   inkscape:version="1.3.2 (091e20ef0f, 2023-11-25, custom)"
   xmlns:inkscape="http://www.inkscape.org/namespaces/inkscape"
   xmlns:sodipodi="http://sodipodi.sourceforge.net/DTD/sodipodi-0.dtd"
   xmlns="http://www.w3.org/2000/svg"
   xmlns:svg="http://www.w3.org/2000/svg">
  <defs
     id="defs1" />
  <sodipodi:namedview
     id="namedview1"
     pagecolor="#ffffff"
     bordercolor="#000000"
     borderopacity="0.25"
     inkscape:showpageshadow="2"
     inkscape:pageopacity="0.0"
     inkscape:pagecheckerboard="0"
     inkscape:deskcolor="#d1d1d1"
     showgrid="false"
     inkscape:zoom="0.51540832"
     inkscape:cx="134.84454"
     inkscape:cy="94.100149"
     inkscape:window-width="1892"
     inkscape:window-height="1034"
     inkscape:window-x="9"
     inkscape:window-y="27"
     inkscape:window-maximized="1"
     inkscape:current-layer="svg1" />
  <style
     id="style">
		.arc0 {
			fill:none;
			fill-rule:evenodd;
			stroke:black;
			stroke-width:4;
			stroke-linecap:round;
			stroke-linejoin:round;
			stroke-opacity:1;
		}
		.arc1 {
			fill:none;
			fill-rule:evenodd;
			stroke:red;
			stroke-width:4;
			stroke-linecap:round;
			stroke-linejoin:round;
			stroke-opacity:1;
		}
		.arc2 {
			fill:none;
			fill-rule:evenodd;
			stroke:blue;
			stroke-width:4;
			stroke-linecap:round;
			stroke-linejoin:round;
			stroke-opacity:1;
		}
		.arc3 {
			fill:none;
			fill-rule:evenodd;
			stroke:green;
			stroke-width:4;
			stroke-linecap:round;
			stroke-linejoin:round;
			stroke-opacity:1;
		}
		.topological-dart {
			fill:#000000;
			stroke:#000000;
			stroke-width:0;
			stroke-linecap:round;
			stroke-linejoin:round;
			stroke-dasharray:none;
			paint-order:markers fill stroke;
		}
	</style>
  <polygon
     points="711.21783,473.15155 480.0378,462.05484 480.0378,462.05484 480.0378,229.97855 480.0378,229.97855 711.21783,241.07523 711.21783,473.15155 "
     id="face_3_2_1_0_7_6_5_4"
     style="fill:#c0c0c0;stroke:none"
     opacity="1"
     transform="translate(-478.03781,-131.84848)" />
  <line
     class="arc0"
     id="link4_@0_3"
     x1="233.18002"
     y1="109.22675"
     x2="233.18002"
     y2="341.30307" />
  <line
     class="arc0"
     id="link5_@0_6"
     x1="233.18002"
     y1="109.22675"
     x2="2"
     y2="98.130066" />
  <polygon
     points="711.21783,473.15155 764.5899,425.0865 764.5899,425.0865 817.96204,377.02145 817.96204,377.02145 817.96204,144.94519 817.96204,144.94519 764.5899,193.0102 764.5899,193.0102 711.21783,241.07523 711.21783,473.15155 "
     id="face_33_34_35_62_63_64_58_57_56_40_39_38"
     style="fill:#c0c0c0;stroke:none"
     opacity="1"
     transform="translate(-478.03781,-131.84848)" />
  <line
     class="arc0"
     id="link38_@0_33"
     x1="233.18002"
     y1="109.22675"
     x2="233.18002"
     y2="341.30307" />
  <line
     class="arc0"
     id="link39_@0_40"
     x1="233.18002"
     y1="109.22675"
     x2="286.55209"
     y2="61.161713" />
  <polygon
     points="480.0378,229.97855 533.4099,181.91351 533.4099,181.91351 586.78204,133.84848 586.78204,133.84848 817.96204,144.94519 817.96204,144.94519 764.5899,193.0102 764.5899,193.0102 711.21783,241.07523 480.0378,229.97855 "
     id="face_8_9_10_92_93_94_52_51_50_45_44_43"
     style="fill:#c0c0c0;stroke:none"
     opacity="1"
     transform="translate(-478.03781,-131.84848)" />
  <line
     class="arc0"
     id="link43_@0_8"
     x1="233.18002"
     y1="109.22675"
     x2="2"
     y2="98.130066" />
  <line
     class="arc0"
     id="link44_@0_45"
     x1="233.18002"
     y1="109.22675"
     x2="286.55209"
     y2="61.161713" />
  <line
     class="arc0"
     id="link2_@0_1"
     x1="233.18002"
     y1="341.30307"
     x2="2"
     y2="330.20636" />
  <polygon
     points="480.0378,462.05484 533.4099,413.9898 533.4099,413.9898 586.78204,365.9248 586.78204,365.9248 817.96204,377.02145 817.96204,377.02145 764.5899,425.0865 764.5899,425.0865 711.21783,473.15155 480.0378,462.05484 "
     id="face_23_24_25_74_75_76_70_69_68_30_29_28"
     style="fill:#c0c0c0;stroke:none"
     opacity="1"
     transform="translate(-478.03781,-131.84848)" />
  <line
     class="arc0"
     id="link28_@0_23"
     x1="233.18002"
     y1="341.30307"
     x2="2"
     y2="330.20636" />
  <line
     class="arc0"
     id="link29_@0_30"
     x1="233.18002"
     y1="341.30307"
     x2="286.55209"
     y2="293.23801" />
  <line
     class="arc0"
     id="link34_@0_35"
     x1="233.18002"
     y1="341.30307"
     x2="286.55209"
     y2="293.23801" />
  <line
     class="arc0"
     id="link7_@0_0"
     x1="2"
     y1="98.130066"
     x2="2"
     y2="330.20636" />
  <line
     class="arc0"
     id="link9_@0_10"
     x1="2"
     y1="98.130066"
     x2="55.372101"
     y2="50.065033" />
  <polygon
     points="480.0378,462.05484 533.4099,413.9898 533.4099,413.9898 586.78204,365.9248 586.78204,365.9248 586.78204,133.84848 586.78204,133.84848 533.4099,181.91351 533.4099,181.91351 480.0378,229.97855 480.0378,462.05484 "
     id="face_18_19_20_80_81_82_88_87_86_15_14_13"
     style="fill:#c0c0c0;stroke:none"
     opacity="1"
     transform="translate(-478.03781,-131.84848)" />
  <line
     class="arc0"
     id="link13_@0_18"
     x1="2"
     y1="98.130066"
     x2="2"
     y2="330.20636" />
  <line
     class="arc0"
     id="link14_@0_15"
     x1="2"
     y1="98.130066"
     x2="55.372101"
     y2="50.065033" />
  <line
     class="arc0"
     id="link19_@0_20"
     x1="2"
     y1="330.20636"
     x2="55.372101"
     y2="282.14133" />
  <line
     class="arc0"
     id="link24_@0_25"
     x1="2"
     y1="330.20636"
     x2="55.372101"
     y2="282.14133" />
  <line
     class="arc0"
     id="link50_@0_51"
     x1="286.55209"
     y1="61.161713"
     x2="339.92422"
     y2="13.09671" />
  <line
     class="arc0"
     id="link56_@0_57"
     x1="286.55209"
     y1="61.161713"
     x2="339.92422"
     y2="13.09671" />
  <line
     class="arc0"
     id="link62_@0_63"
     x1="286.55209"
     y1="293.23801"
     x2="339.92422"
     y2="245.17297" />
  <line
     class="arc0"
     id="link68_@0_69"
     x1="286.55209"
     y1="293.23801"
     x2="339.92422"
     y2="245.17297" />
  <line
     class="arc0"
     id="link86_@0_87"
     x1="55.372101"
     y1="50.065033"
     x2="108.74423"
     y2="2" />
  <line
     class="arc0"
     id="link92_@0_93"
     x1="55.372101"
     y1="50.065033"
     x2="108.74423"
     y2="2" />
  <line
     class="arc0"
     id="link74_@0_75"
     x1="55.372101"
     y1="282.14133"
     x2="108.74423"
     y2="234.07632" />
  <line
     class="arc0"
     id="link80_@0_81"
     x1="55.372101"
     y1="282.14133"
     x2="108.74423"
     y2="234.07632" />
  <polygon
     points="771.7261,189.14108 633.018,182.48303 633.018,182.48303 586.78204,133.84848 586.78204,133.84848 817.96204,144.94519 771.7261,189.14108 "
     id="face_12_91_37_36_60_95_53_11"
     style="fill:#c0c0c0;stroke:none"
     opacity="1"
     transform="translate(-478.03781,-131.84848)" />
  <line
     class="arc0"
     id="link11_@0_12"
     x1="339.92422"
     y1="13.09671"
     x2="293.68826"
     y2="57.292603" />
  <line
     class="arc0"
     id="link52_@0_94"
     x1="339.92422"
     y1="13.09671"
     x2="108.74423"
     y2="2" />
  <line
     class="arc0"
     id="link53_@0_95"
     x1="339.92422"
     y1="13.09671"
     x2="108.74423"
     y2="2" />
  <line
     class="arc0"
     id="link58_@0_64"
     x1="339.92422"
     y1="13.09671"
     x2="339.92422"
     y2="245.17297" />
  <polygon
     points="817.96204,377.02145 771.7261,328.38687 771.7261,328.38687 771.7261,189.14108 771.7261,189.14108 817.96204,144.94519 817.96204,377.02145 "
     id="face_65_16_17_21_84_85_90_59"
     style="fill:#c0c0c0;stroke:none"
     opacity="1"
     transform="translate(-478.03781,-131.84848)" />
  <line
     class="arc0"
     id="link59_@0_65"
     x1="339.92422"
     y1="13.09671"
     x2="339.92422"
     y2="245.17297" />
  <line
     class="arc0"
     id="link90_@0_85"
     x1="339.92422"
     y1="13.09671"
     x2="293.68826"
     y2="57.292603" />
  <line
     class="arc0"
     id="link84_@0_21"
     x1="293.68826"
     y1="57.292603"
     x2="293.68826"
     y2="196.53839" />
  <line
     class="arc0"
     id="link91_@0_37"
     x1="293.68826"
     y1="57.292603"
     x2="154.98019"
     y2="50.634552" />
  <line
     class="arc0"
     id="link16_@0_17"
     x1="339.92422"
     y1="245.17297"
     x2="293.68826"
     y2="196.53839" />
  <polygon
     points="771.7261,328.38687 633.018,321.72885 633.018,321.72885 586.78204,365.9248 586.78204,365.9248 817.96204,377.02145 771.7261,328.38687 "
     id="face_79_78_26_72_73_77_71_22"
     style="fill:#c0c0c0;stroke:none"
     opacity="1"
     transform="translate(-478.03781,-131.84848)" />
  <line
     class="arc0"
     id="link22_@0_79"
     x1="339.92422"
     y1="245.17297"
     x2="293.68826"
     y2="196.53839" />
  <line
     class="arc0"
     id="link70_@0_76"
     x1="339.92422"
     y1="245.17297"
     x2="108.74423"
     y2="234.07632" />
  <line
     class="arc0"
     id="link71_@0_77"
     x1="339.92422"
     y1="245.17297"
     x2="108.74423"
     y2="234.07632" />
  <line
     class="arc0"
     id="link78_@0_26"
     x1="293.68826"
     y1="196.53839"
     x2="154.98019"
     y2="189.88037" />
  <line
     class="arc0"
     id="link36_@0_60"
     x1="154.98019"
     y1="50.634552"
     x2="108.74423"
     y2="2" />
  <polygon
     points="633.018,321.72885 586.78204,365.9248 586.78204,365.9248 586.78204,133.84848 586.78204,133.84848 633.018,182.48303 633.018,321.72885 "
     id="face_32_31_27_83_89_67_66_61"
     style="fill:#c0c0c0;stroke:none"
     opacity="1"
     transform="translate(-478.03781,-131.84848)" />
  <line
     class="arc0"
     id="link61_@0_32"
     x1="154.98019"
     y1="50.634552"
     x2="154.98019"
     y2="189.88037" />
  <line
     class="arc0"
     id="link66_@0_67"
     x1="154.98019"
     y1="50.634552"
     x2="108.74423"
     y2="2" />
  <line
     class="arc0"
     id="link88_@0_82"
     x1="108.74423"
     y1="2"
     x2="108.74423"
     y2="234.07632" />
  <line
     class="arc0"
     id="link89_@0_83"
     x1="108.74423"
     y1="2"
     x2="108.74423"
     y2="234.07632" />
  <line
     class="arc0"
     id="link31_@0_27"
     x1="154.98019"
     y1="189.88037"
     x2="108.74423"
     y2="234.07632" />
  <line
     class="arc0"
     id="link72_@0_73"
     x1="154.98019"
     y1="189.88037"
     x2="108.74423"
     y2="234.07632" />
</svg>
