<?xml version="1.0" encoding="UTF-8" standalone="no"?>
<!-- Created with Jerboa -->

<svg
   width="575.88647"
   height="53.843201"
   version="1.1"
   id="svg1"
   sodipodi:docname="smooth-rebuild-2.svg"
   xmlns:inkscape="http://www.inkscape.org/namespaces/inkscape"
   xmlns:sodipodi="http://sodipodi.sourceforge.net/DTD/sodipodi-0.dtd"
   xmlns="http://www.w3.org/2000/svg"
   xmlns:svg="http://www.w3.org/2000/svg">
  <defs
     id="defs1" />
  <sodipodi:namedview
     id="namedview1"
     pagecolor="#ffffff"
     bordercolor="#000000"
     borderopacity="0.25"
     inkscape:showpageshadow="2"
     inkscape:pageopacity="0.0"
     inkscape:pagecheckerboard="0"
     inkscape:deskcolor="#d1d1d1" />
  <style
     id="style">
		.arc0 {
			fill:none;
			fill-rule:evenodd;
			stroke:black;
			stroke-width:4;
			stroke-linecap:round;
			stroke-linejoin:round;
			stroke-opacity:1;
		}
		.arc1 {
			fill:none;
			fill-rule:evenodd;
			stroke:red;
			stroke-width:4;
			stroke-linecap:round;
			stroke-linejoin:round;
			stroke-opacity:1;
		}
		.arc2 {
			fill:none;
			fill-rule:evenodd;
			stroke:blue;
			stroke-width:4;
			stroke-linecap:round;
			stroke-linejoin:round;
			stroke-opacity:1;
		}
		.arc3 {
			fill:none;
			fill-rule:evenodd;
			stroke:green;
			stroke-width:4;
			stroke-linecap:round;
			stroke-linejoin:round;
			stroke-opacity:1;
		}
		.topological-dart {
			fill:#000000;
			stroke:#000000;
			stroke-width:0;
			stroke-linecap:round;
			stroke-linejoin:round;
			stroke-dasharray:none;
			paint-order:markers fill stroke;
		}
	</style>
  <polygon
     points="933.8327,554.2724 845.00244,556.32983 842.11914,555.14764 637.6852,543.5768 624.1209,543.82806 609.5566,535.91846 632.16364,535.49963 929.02734,552.302 "
     id="face_7_11_12_13_16_15_14_0"
     style="fill:#c0c0c0;stroke:none"
     opacity="1"
     transform="translate(-369.55692,-533.49963)" />
  <line
     class="arc1"
     id="link0_@1_14"
     x1="262.60672"
     y1="2"
     x2="239.99966"
     y2="2.4188232" />
  <line
     class="arc0"
     id="link0_@0_7"
     x1="262.60672"
     y1="2"
     x2="559.47046"
     y2="18.802368" />
  <line
     class="arc2"
     id="link14_@2_17"
     x1="239.99966"
     y1="2.4188232"
     x2="217.39261"
     y2="2.8376465" />
  <line
     class="arc0"
     id="link14_@0_15"
     x1="239.99966"
     y1="2.4188232"
     x2="254.564"
     y2="10.32843" />
  <polygon
     points="596.99243,544.3306 464.23148,562.14825 467.11456,563.33044 376.36218,564.5998 371.55692,562.62946 564.34247,536.7561 586.9495,536.3373 610.55664,544.07935 "
     id="face_18_19_22_21_20_2_1_17"
     style="fill:#c0c0c0;stroke:none"
     opacity="1"
     transform="translate(-369.55692,-533.49963)" />
  <line
     class="arc1"
     id="link17_@1_1"
     x1="217.39261"
     y1="2.8376465"
     x2="194.78555"
     y2="3.2564697" />
  <line
     class="arc0"
     id="link17_@0_18"
     x1="217.39261"
     y1="2.8376465"
     x2="240.99973"
     y2="10.579712" />
  <line
     class="arc0"
     id="link1_@0_2"
     x1="194.78555"
     y1="3.2564697"
     x2="2"
     y2="29.129822" />
  <line
     class="arc1"
     id="link16_@1_15"
     x1="268.12827"
     y1="10.077148"
     x2="254.564"
     y2="10.32843" />
  <line
     class="arc0"
     id="link16_@0_13"
     x1="268.12827"
     y1="10.077148"
     x2="472.56223"
     y2="21.64801" />
  <line
     class="arc2"
     id="link15_@2_18"
     x1="254.564"
     y1="10.32843"
     x2="240.99973"
     y2="10.579712" />
  <line
     class="arc1"
     id="link18_@1_19"
     x1="240.99973"
     y1="10.579712"
     x2="227.43552"
     y2="10.830994" />
  <line
     class="arc0"
     id="link19_@0_22"
     x1="227.43552"
     y1="10.830994"
     x2="94.674561"
     y2="28.648621" />
  <line
     class="arc1"
     id="link7_@1_11"
     x1="559.47046"
     y1="18.802368"
     x2="564.27576"
     y2="20.772766" />
  <line
     class="arc2"
     id="link11_@2_8"
     x1="564.27576"
     y1="20.772766"
     x2="569.08105"
     y2="22.743103" />
  <line
     class="arc0"
     id="link11_@0_12"
     x1="564.27576"
     y1="20.772766"
     x2="475.44553"
     y2="22.8302" />
  <line
     class="arc1"
     id="link13_@1_12"
     x1="472.56223"
     y1="21.64801"
     x2="475.44553"
     y2="22.8302" />
  <polygon
     points="850.76874,558.6943 718.0077,576.51184 704.44336,576.7632 728.0507,584.50525 750.6577,584.0864 943.44336,558.213 938.638,556.24274 847.88544,557.5121 "
     id="face_9_10_31_30_29_5_6_8"
     style="fill:#c0c0c0;stroke:none"
     opacity="1"
     transform="translate(-369.55692,-533.49963)" />
  <line
     class="arc1"
     id="link8_@1_6"
     x1="569.08105"
     y1="22.743103"
     x2="573.88647"
     y2="24.713379" />
  <line
     class="arc0"
     id="link8_@0_9"
     x1="569.08105"
     y1="22.743103"
     x2="478.32852"
     y2="24.012451" />
  <line
     class="arc2"
     id="link12_@2_9"
     x1="475.44553"
     y1="22.8302"
     x2="478.32852"
     y2="24.012451" />
  <line
     class="arc1"
     id="link9_@1_10"
     x1="478.32852"
     y1="24.012451"
     x2="481.21182"
     y2="25.194641" />
  <line
     class="arc0"
     id="link6_@0_5"
     x1="573.88647"
     y1="24.713379"
     x2="381.1008"
     y2="50.586792" />
  <line
     class="arc0"
     id="link10_@0_31"
     x1="481.21182"
     y1="25.194641"
     x2="348.45078"
     y2="43.012207" />
  <line
     class="arc1"
     id="link22_@1_21"
     x1="94.674561"
     y1="28.648621"
     x2="97.557648"
     y2="29.830811" />
  <line
     class="arc1"
     id="link2_@1_20"
     x1="2"
     y1="29.129822"
     x2="6.8052673"
     y2="31.100159" />
  <line
     class="arc2"
     id="link21_@2_24"
     x1="97.557648"
     y1="29.830811"
     x2="100.44095"
     y2="31.013" />
  <line
     class="arc0"
     id="link21_@0_20"
     x1="97.557648"
     y1="29.830811"
     x2="6.8052673"
     y2="31.100159" />
  <polygon
     points="385.97272,568.54047 682.83655,585.34283 705.44354,584.9241 690.87933,577.0144 677.31494,577.26575 472.88098,565.6948 469.99786,564.51263 381.16745,566.5701 "
     id="face_23_3_4_26_27_28_25_24"
     style="fill:#c0c0c0;stroke:none"
     opacity="1"
     transform="translate(-369.55692,-533.49963)" />
  <line
     class="arc1"
     id="link24_@1_25"
     x1="100.44095"
     y1="31.013"
     x2="103.32407"
     y2="32.19519" />
  <line
     class="arc0"
     id="link24_@0_23"
     x1="100.44095"
     y1="31.013"
     x2="11.610535"
     y2="33.070496" />
  <line
     class="arc2"
     id="link20_@2_23"
     x1="6.8052673"
     y1="31.100159"
     x2="11.610535"
     y2="33.070496" />
  <line
     class="arc0"
     id="link25_@0_28"
     x1="103.32407"
     y1="32.19519"
     x2="307.75803"
     y2="43.766113" />
  <line
     class="arc1"
     id="link23_@1_3"
     x1="11.610535"
     y1="33.070496"
     x2="16.415802"
     y2="35.040833" />
  <line
     class="arc0"
     id="link3_@0_4"
     x1="16.415802"
     y1="35.040833"
     x2="313.27963"
     y2="51.843201" />
  <line
     class="arc1"
     id="link31_@1_30"
     x1="348.45078"
     y1="43.012207"
     x2="334.88644"
     y2="43.26355" />
  <line
     class="arc2"
     id="link30_@2_27"
     x1="334.88644"
     y1="43.26355"
     x2="321.32242"
     y2="43.514771" />
  <line
     class="arc0"
     id="link30_@0_29"
     x1="334.88644"
     y1="43.26355"
     x2="358.4938"
     y2="51.005615" />
  <line
     class="arc1"
     id="link27_@1_28"
     x1="321.32242"
     y1="43.514771"
     x2="307.75803"
     y2="43.766113" />
  <line
     class="arc0"
     id="link27_@0_26"
     x1="321.32242"
     y1="43.514771"
     x2="335.88663"
     y2="51.424438" />
  <line
     class="arc1"
     id="link5_@1_29"
     x1="381.1008"
     y1="50.586792"
     x2="358.4938"
     y2="51.005615" />
  <line
     class="arc2"
     id="link29_@2_26"
     x1="358.4938"
     y1="51.005615"
     x2="335.88663"
     y2="51.424438" />
  <line
     class="arc1"
     id="link26_@1_4"
     x1="335.88663"
     y1="51.424438"
     x2="313.27963"
     y2="51.843201" />
</svg>
