<?xml version="1.0" encoding="UTF-8" standalone="no"?>
<!-- Created with Jerboa -->

<svg
   width="553.87061"
   height="470.27325"
   version="1.1"
   id="svg1"
   sodipodi:docname="smooth-init-2.svg"
   inkscape:version="1.3.2 (091e20ef0f, 2023-11-25, custom)"
   xmlns:inkscape="http://www.inkscape.org/namespaces/inkscape"
   xmlns:sodipodi="http://sodipodi.sourceforge.net/DTD/sodipodi-0.dtd"
   xmlns="http://www.w3.org/2000/svg"
   xmlns:svg="http://www.w3.org/2000/svg">
  <defs
     id="defs1" />
  <sodipodi:namedview
     id="namedview1"
     pagecolor="#ffffff"
     bordercolor="#000000"
     borderopacity="0.25"
     inkscape:showpageshadow="2"
     inkscape:pageopacity="0.0"
     inkscape:pagecheckerboard="0"
     inkscape:deskcolor="#d1d1d1"
     showgrid="false"
     inkscape:zoom="0.94072948"
     inkscape:cx="277.44426"
     inkscape:cy="228.01454"
     inkscape:window-width="1892"
     inkscape:window-height="1034"
     inkscape:window-x="9"
     inkscape:window-y="27"
     inkscape:window-maximized="1"
     inkscape:current-layer="svg1" />
  <style
     id="style">
		.arc0 {
			fill:none;
			fill-rule:evenodd;
			stroke:black;
			stroke-width:4;
			stroke-linecap:round;
			stroke-linejoin:round;
			stroke-opacity:1;
		}
		.arc1 {
			fill:none;
			fill-rule:evenodd;
			stroke:red;
			stroke-width:4;
			stroke-linecap:round;
			stroke-linejoin:round;
			stroke-opacity:1;
		}
		.arc2 {
			fill:none;
			fill-rule:evenodd;
			stroke:blue;
			stroke-width:4;
			stroke-linecap:round;
			stroke-linejoin:round;
			stroke-opacity:1;
		}
		.arc3 {
			fill:none;
			fill-rule:evenodd;
			stroke:green;
			stroke-width:4;
			stroke-linecap:round;
			stroke-linejoin:round;
			stroke-opacity:1;
		}
		.topological-dart {
			fill:#000000;
			stroke:#000000;
			stroke-width:0;
			stroke-linecap:round;
			stroke-linejoin:round;
			stroke-dasharray:none;
			paint-order:markers fill stroke;
		}
	</style>
  <polygon
     points="623.36945,91.47449 915.66565,108.01831 928.45245,123.93063 928.45245,471.12762 915.66565,485.59244 623.36945,469.0486 610.5826,453.13632 610.5826,105.93933 "
     id="face_23_24_18_17_16_15_21_22"
     style="fill:#c0c0c0;stroke:none"
     opacity="1"
     transform="translate(-381.06482,-75.400452)" />
  <line
     class="arc1"
     id="link22_@1_21"
     x1="229.51776"
     y1="377.73587"
     x2="242.30463"
     y2="393.64816" />
  <line
     class="arc2"
     id="link22_@2_28"
     x1="229.51776"
     y1="377.73587"
     x2="208.42712"
     y2="378.12659" />
  <line
     class="arc0"
     id="link22_@0_23"
     x1="229.51776"
     y1="377.73587"
     x2="229.51776"
     y2="30.538879" />
  <polygon
     points="581.18805,92.25592 391.3687,117.7312 383.06482,134.03424 383.06482,481.23123 391.3687,495.30533 581.18805,469.83005 589.49194,453.52704 589.49194,106.33008 "
     id="face_29_30_36_35_34_33_27_28"
     style="fill:#c0c0c0;stroke:none"
     opacity="1"
     transform="translate(-381.06482,-75.400452)" />
  <line
     class="arc1"
     id="link28_@1_27"
     x1="208.42712"
     y1="378.12659"
     x2="200.12323"
     y2="394.4296" />
  <line
     class="arc0"
     id="link28_@0_29"
     x1="208.42712"
     y1="378.12659"
     x2="208.42712"
     y2="30.929626" />
  <line
     class="arc2"
     id="link21_@2_20"
     x1="242.30463"
     y1="393.64816"
     x2="234.00079"
     y2="409.95114" />
  <line
     class="arc0"
     id="link21_@0_15"
     x1="242.30463"
     y1="393.64816"
     x2="534.60083"
     y2="410.19199" />
  <line
     class="arc2"
     id="link27_@2_26"
     x1="200.12323"
     y1="394.4296"
     x2="212.91003"
     y2="410.34186" />
  <line
     class="arc0"
     id="link27_@0_33"
     x1="200.12323"
     y1="394.4296"
     x2="10.303894"
     y2="419.90488" />
  <polygon
     points="911.8447,503.7336 722.0254,529.2089 700.9347,529.5996 408.63852,513.0558 404.15552,511.2176 593.97485,485.7423 615.0656,485.3516 907.36176,501.89545 "
     id="face_14_8_50_44_38_32_26_20"
     style="fill:#c0c0c0;stroke:none"
     opacity="1"
     transform="translate(-381.06482,-75.400452)" />
  <line
     class="arc1"
     id="link20_@1_26"
     x1="234.00079"
     y1="409.95114"
     x2="212.91003"
     y2="410.34186" />
  <line
     class="arc3"
     id="link20_@3_0"
     x1="234.00079"
     y1="409.95114"
     x2="225.6969"
     y2="426.25412" />
  <line
     class="arc0"
     id="link20_@0_14"
     x1="234.00079"
     y1="409.95114"
     x2="526.29694"
     y2="426.495" />
  <line
     class="arc3"
     id="link26_@3_1"
     x1="212.91003"
     y1="410.34186"
     x2="225.6969"
     y2="426.25412" />
  <line
     class="arc0"
     id="link26_@0_32"
     x1="212.91003"
     y1="410.34186"
     x2="23.090698"
     y2="435.81714" />
  <polygon
     points="899.0579,518.1984 709.2385,543.6737 709.2385,543.6737 416.94238,527.1299 416.94238,527.1299 606.7617,501.65457 899.0579,518.1984 "
     id="face_7_6_5_4_3_2_1_0"
     style="fill:#c0c0c0;stroke:none"
     opacity="1"
     transform="translate(-381.06482,-75.400452)" />
  <line
     class="arc1"
     id="link0_@1_1"
     x1="225.6969"
     y1="426.25412"
     x2="225.6969"
     y2="426.25412" />
  <line
     class="arc0"
     id="link0_@0_7"
     x1="225.6969"
     y1="426.25412"
     x2="517.9931"
     y2="442.79797" />
  <line
     class="arc0"
     id="link1_@0_2"
     x1="225.6969"
     y1="426.25412"
     x2="35.877563"
     y2="451.72943" />
  <line
     class="arc1"
     id="link23_@1_24"
     x1="229.51776"
     y1="30.538879"
     x2="242.30463"
     y2="16.074036" />
  <line
     class="arc2"
     id="link23_@2_29"
     x1="229.51776"
     y1="30.538879"
     x2="208.42712"
     y2="30.929626" />
  <line
     class="arc1"
     id="link29_@1_30"
     x1="208.42712"
     y1="30.929626"
     x2="200.12323"
     y2="16.855469" />
  <line
     class="arc2"
     id="link24_@2_25"
     x1="242.30463"
     y1="16.074036"
     x2="234.00079"
     y2="2" />
  <line
     class="arc0"
     id="link24_@0_18"
     x1="242.30463"
     y1="16.074036"
     x2="534.60083"
     y2="32.617859" />
  <line
     class="arc2"
     id="link30_@2_31"
     x1="200.12323"
     y1="16.855469"
     x2="212.91003"
     y2="2.390686" />
  <line
     class="arc0"
     id="link30_@0_36"
     x1="200.12323"
     y1="16.855469"
     x2="10.303894"
     y2="42.33075" />
  <polygon
     points="911.8447,95.78244 722.0254,121.25772 700.9347,121.64844 408.63852,105.10461 404.15552,103.26642 593.97485,77.79114 615.0656,77.40045 907.36176,93.944275 "
     id="face_19_13_55_49_43_37_31_25"
     style="fill:#c0c0c0;stroke:none"
     opacity="1"
     transform="translate(-381.06482,-75.400452)" />
  <line
     class="arc1"
     id="link25_@1_31"
     x1="234.00079"
     y1="2"
     x2="212.91003"
     y2="2.390686" />
  <line
     class="arc0"
     id="link25_@0_19"
     x1="234.00079"
     y1="2"
     x2="526.29694"
     y2="18.543823" />
  <line
     class="arc0"
     id="link31_@0_37"
     x1="212.91003"
     y1="2.390686"
     x2="23.090698"
     y2="27.865967" />
  <line
     class="arc1"
     id="link15_@1_16"
     x1="534.60083"
     y1="410.19199"
     x2="547.38763"
     y2="395.72717" />
  <line
     class="arc2"
     id="link15_@2_14"
     x1="534.60083"
     y1="410.19199"
     x2="526.29694"
     y2="426.495" />
  <line
     class="arc2"
     id="link16_@2_10"
     x1="547.38763"
     y1="395.72717"
     x2="551.87061"
     y2="397.56537" />
  <line
     class="arc0"
     id="link16_@0_17"
     x1="547.38763"
     y1="395.72717"
     x2="547.38763"
     y2="48.530182" />
  <line
     class="arc1"
     id="link14_@1_8"
     x1="526.29694"
     y1="426.495"
     x2="530.77991"
     y2="428.33316" />
  <line
     class="arc3"
     id="link14_@3_7"
     x1="526.29694"
     y1="426.495"
     x2="517.9931"
     y2="442.79797" />
  <line
     class="arc1"
     id="link6_@1_7"
     x1="517.9931"
     y1="442.79797"
     x2="517.9931"
     y2="442.79797" />
  <line
     class="arc3"
     id="link6_@3_8"
     x1="517.9931"
     y1="442.79797"
     x2="530.77991"
     y2="428.33316" />
  <line
     class="arc0"
     id="link6_@0_5"
     x1="517.9931"
     y1="442.79797"
     x2="328.17371"
     y2="468.27325" />
  <polygon
     points="924.6316,111.69467 734.81226,137.16995 726.5083,153.47299 726.5083,500.66998 734.81226,514.7441 924.6316,489.2688 932.9354,472.96582 932.9354,125.76883 "
     id="face_11_12_54_53_52_51_9_10"
     style="fill:#c0c0c0;stroke:none"
     opacity="1"
     transform="translate(-381.06482,-75.400452)" />
  <line
     class="arc1"
     id="link10_@1_9"
     x1="551.87061"
     y1="397.56537"
     x2="543.56677"
     y2="413.86835" />
  <line
     class="arc0"
     id="link10_@0_11"
     x1="551.87061"
     y1="397.56537"
     x2="551.87061"
     y2="50.368378" />
  <line
     class="arc2"
     id="link8_@2_9"
     x1="530.77991"
     y1="428.33316"
     x2="543.56677"
     y2="413.86835" />
  <line
     class="arc0"
     id="link8_@0_50"
     x1="530.77991"
     y1="428.33316"
     x2="340.96057"
     y2="453.80847" />
  <line
     class="arc1"
     id="link18_@1_17"
     x1="534.60083"
     y1="32.617859"
     x2="547.38763"
     y2="48.530182" />
  <line
     class="arc2"
     id="link18_@2_19"
     x1="534.60083"
     y1="32.617859"
     x2="526.29694"
     y2="18.543823" />
  <line
     class="arc2"
     id="link17_@2_11"
     x1="547.38763"
     y1="48.530182"
     x2="551.87061"
     y2="50.368378" />
  <line
     class="arc0"
     id="link9_@0_51"
     x1="543.56677"
     y1="413.86835"
     x2="353.74744"
     y2="439.34363" />
  <line
     class="arc1"
     id="link19_@1_13"
     x1="526.29694"
     y1="18.543823"
     x2="530.77991"
     y2="20.381989" />
  <line
     class="arc1"
     id="link11_@1_12"
     x1="551.87061"
     y1="50.368378"
     x2="543.56677"
     y2="36.29422" />
  <line
     class="arc2"
     id="link13_@2_12"
     x1="530.77991"
     y1="20.381989"
     x2="543.56677"
     y2="36.29422" />
  <line
     class="arc0"
     id="link13_@0_55"
     x1="530.77991"
     y1="20.381989"
     x2="340.96057"
     y2="45.857269" />
  <line
     class="arc0"
     id="link12_@0_54"
     x1="543.56677"
     y1="36.29422"
     x2="353.74744"
     y2="61.769501" />
  <line
     class="arc1"
     id="link33_@1_34"
     x1="10.303894"
     y1="419.90488"
     x2="2"
     y2="405.83078" />
  <line
     class="arc2"
     id="link33_@2_32"
     x1="10.303894"
     y1="419.90488"
     x2="23.090698"
     y2="435.81714" />
  <line
     class="arc1"
     id="link32_@1_38"
     x1="23.090698"
     y1="435.81714"
     x2="27.5737"
     y2="437.65533" />
  <line
     class="arc3"
     id="link32_@3_2"
     x1="23.090698"
     y1="435.81714"
     x2="35.877563"
     y2="451.72943" />
  <line
     class="arc1"
     id="link2_@1_3"
     x1="35.877563"
     y1="451.72943"
     x2="35.877563"
     y2="451.72943" />
  <line
     class="arc3"
     id="link3_@3_38"
     x1="35.877563"
     y1="451.72943"
     x2="27.5737"
     y2="437.65533" />
  <line
     class="arc0"
     id="link3_@0_4"
     x1="35.877563"
     y1="451.72943"
     x2="328.17371"
     y2="468.27325" />
  <line
     class="arc2"
     id="link34_@2_40"
     x1="2"
     y1="405.83078"
     x2="6.4829712"
     y2="407.66895" />
  <line
     class="arc0"
     id="link34_@0_35"
     x1="2"
     y1="405.83078"
     x2="2"
     y2="58.633789" />
  <line
     class="arc2"
     id="link38_@2_39"
     x1="27.5737"
     y1="437.65533"
     x2="19.269836"
     y2="423.58124" />
  <line
     class="arc0"
     id="link38_@0_44"
     x1="27.5737"
     y1="437.65533"
     x2="319.86987"
     y2="454.19916" />
  <line
     class="arc1"
     id="link36_@1_35"
     x1="10.303894"
     y1="42.33075"
     x2="2"
     y2="58.633789" />
  <line
     class="arc2"
     id="link36_@2_37"
     x1="10.303894"
     y1="42.33075"
     x2="23.090698"
     y2="27.865967" />
  <polygon
     points="400.33466,121.40756 692.6308,137.95139 705.41766,153.86371 705.41766,501.06073 692.6308,515.5255 400.33466,498.9817 387.5478,483.0694 387.5478,135.8724 "
     id="face_41_42_48_47_46_45_39_40"
     style="fill:#c0c0c0;stroke:none"
     opacity="1"
     transform="translate(-381.06482,-75.400452)" />
  <line
     class="arc1"
     id="link40_@1_39"
     x1="6.4829712"
     y1="407.66895"
     x2="19.269836"
     y2="423.58124" />
  <line
     class="arc0"
     id="link40_@0_41"
     x1="6.4829712"
     y1="407.66895"
     x2="6.4829712"
     y2="60.471954" />
  <line
     class="arc1"
     id="link37_@1_43"
     x1="23.090698"
     y1="27.865967"
     x2="27.5737"
     y2="29.704155" />
  <line
     class="arc0"
     id="link39_@0_45"
     x1="19.269836"
     y1="423.58124"
     x2="311.56598"
     y2="440.12506" />
  <line
     class="arc2"
     id="link35_@2_41"
     x1="2"
     y1="58.633789"
     x2="6.4829712"
     y2="60.471954" />
  <line
     class="arc2"
     id="link43_@2_42"
     x1="27.5737"
     y1="29.704155"
     x2="19.269836"
     y2="46.007111" />
  <line
     class="arc0"
     id="link43_@0_49"
     x1="27.5737"
     y1="29.704155"
     x2="319.86987"
     y2="46.247986" />
  <line
     class="arc1"
     id="link41_@1_42"
     x1="6.4829712"
     y1="60.471954"
     x2="19.269836"
     y2="46.007111" />
  <line
     class="arc0"
     id="link42_@0_48"
     x1="19.269836"
     y1="46.007111"
     x2="311.56598"
     y2="62.550934" />
  <line
     class="arc1"
     id="link4_@1_5"
     x1="328.17371"
     y1="468.27325"
     x2="328.17371"
     y2="468.27325" />
  <line
     class="arc3"
     id="link4_@3_44"
     x1="328.17371"
     y1="468.27325"
     x2="319.86987"
     y2="454.19916" />
  <line
     class="arc3"
     id="link5_@3_50"
     x1="328.17371"
     y1="468.27325"
     x2="340.96057"
     y2="453.80847" />
  <line
     class="arc1"
     id="link50_@1_44"
     x1="340.96057"
     y1="453.80847"
     x2="319.86987"
     y2="454.19916" />
  <line
     class="arc2"
     id="link50_@2_51"
     x1="340.96057"
     y1="453.80847"
     x2="353.74744"
     y2="439.34363" />
  <line
     class="arc2"
     id="link44_@2_45"
     x1="319.86987"
     y1="454.19916"
     x2="311.56598"
     y2="440.12506" />
  <line
     class="arc1"
     id="link51_@1_52"
     x1="353.74744"
     y1="439.34363"
     x2="345.44348"
     y2="425.26953" />
  <line
     class="arc1"
     id="link45_@1_46"
     x1="311.56598"
     y1="440.12506"
     x2="324.35284"
     y2="425.66028" />
  <line
     class="arc2"
     id="link52_@2_46"
     x1="345.44348"
     y1="425.26953"
     x2="324.35284"
     y2="425.66028" />
  <line
     class="arc0"
     id="link52_@0_53"
     x1="345.44348"
     y1="425.26953"
     x2="345.44348"
     y2="78.07254" />
  <line
     class="arc0"
     id="link46_@0_47"
     x1="324.35284"
     y1="425.66028"
     x2="324.35284"
     y2="78.463257" />
  <line
     class="arc1"
     id="link55_@1_49"
     x1="340.96057"
     y1="45.857269"
     x2="319.86987"
     y2="46.247986" />
  <line
     class="arc2"
     id="link55_@2_54"
     x1="340.96057"
     y1="45.857269"
     x2="353.74744"
     y2="61.769501" />
  <line
     class="arc2"
     id="link49_@2_48"
     x1="319.86987"
     y1="46.247986"
     x2="311.56598"
     y2="62.550934" />
  <line
     class="arc1"
     id="link54_@1_53"
     x1="353.74744"
     y1="61.769501"
     x2="345.44348"
     y2="78.07254" />
  <line
     class="arc1"
     id="link48_@1_47"
     x1="311.56598"
     y1="62.550934"
     x2="324.35284"
     y2="78.463257" />
  <line
     class="arc2"
     id="link53_@2_47"
     x1="345.44348"
     y1="78.07254"
     x2="324.35284"
     y2="78.463257" />
</svg>
