<?xml version="1.0" encoding="UTF-8" standalone="no"?>
<!-- Created with Jerboa -->

<svg
   width="440.22406"
   height="642.23755"
   version="1.1"
   id="svg1"
   sodipodi:docname="smooth-2-rebuild-4.svg"
   xmlns:inkscape="http://www.inkscape.org/namespaces/inkscape"
   xmlns:sodipodi="http://sodipodi.sourceforge.net/DTD/sodipodi-0.dtd"
   xmlns="http://www.w3.org/2000/svg"
   xmlns:svg="http://www.w3.org/2000/svg">
  <defs
     id="defs1" />
  <sodipodi:namedview
     id="namedview1"
     pagecolor="#ffffff"
     bordercolor="#000000"
     borderopacity="0.25"
     inkscape:showpageshadow="2"
     inkscape:pageopacity="0.0"
     inkscape:pagecheckerboard="0"
     inkscape:deskcolor="#d1d1d1" />
  <style
     id="style">
		.arc0 {
			fill:none;
			fill-rule:evenodd;
			stroke:black;
			stroke-width:4;
			stroke-linecap:round;
			stroke-linejoin:round;
			stroke-opacity:1;
		}
		.arc1 {
			fill:none;
			fill-rule:evenodd;
			stroke:red;
			stroke-width:4;
			stroke-linecap:round;
			stroke-linejoin:round;
			stroke-opacity:1;
		}
		.arc2 {
			fill:none;
			fill-rule:evenodd;
			stroke:blue;
			stroke-width:4;
			stroke-linecap:round;
			stroke-linejoin:round;
			stroke-opacity:1;
		}
		.arc3 {
			fill:none;
			fill-rule:evenodd;
			stroke:green;
			stroke-width:4;
			stroke-linecap:round;
			stroke-linejoin:round;
			stroke-opacity:1;
		}
		.topological-dart {
			fill:#000000;
			stroke:#000000;
			stroke-width:0;
			stroke-linecap:round;
			stroke-linejoin:round;
			stroke-dasharray:none;
			paint-order:markers fill stroke;
		}
	</style>
  <polygon
     points="659.6388,306.4903 672.01605,26.834778 681.1803,16.468018 890.6679,28.32489 899.8322,39.729126 924.112,321.45938 924.112,321.45938 899.8322,602.71216 890.6679,613.079 681.1803,601.2221 672.01605,589.8178 659.6388,306.4903 "
     id="face_20_62_63_64_58_57_56_15_14_13_18_19"
     style="fill:#c0c0c0;stroke:none"
     opacity="1"
     transform="translate(-485.88794,-4.3812256)" />
  <line
     class="arc1"
     id="link19_@1_18"
     x1="186.12811"
     y1="585.43658"
     x2="195.29236"
     y2="596.84088" />
  <line
     class="arc2"
     id="link19_@2_24"
     x1="186.12811"
     y1="585.43658"
     x2="171.01245"
     y2="585.71661" />
  <line
     class="arc0"
     id="link19_@0_20"
     x1="186.12811"
     y1="585.43658"
     x2="173.75085"
     y2="302.10907" />
  <polygon
     points="659.6388,306.4903 656.9004,27.114868 650.94904,17.028076 514.90625,35.286133 508.9549,46.970337 487.88794,329.54062 487.88794,329.54062 508.9549,609.95337 514.90625,620.04016 650.94904,601.78217 656.9004,590.09784 659.6388,306.4903 "
     id="face_25_68_69_70_76_75_74_30_29_28_23_24"
     style="fill:#c0c0c0;stroke:none"
     opacity="1"
     transform="translate(-485.88794,-4.3812256)" />
  <line
     class="arc1"
     id="link24_@1_23"
     x1="171.01245"
     y1="585.71661"
     x2="165.0611"
     y2="597.40094" />
  <line
     class="arc0"
     id="link24_@0_25"
     x1="171.01245"
     y1="585.71661"
     x2="173.75085"
     y2="302.10907" />
  <line
     class="arc1"
     id="link20_@1_62"
     x1="173.75085"
     y1="302.10907"
     x2="173.75085"
     y2="302.10907" />
  <line
     class="arc2"
     id="link20_@2_25"
     x1="173.75085"
     y1="302.10907"
     x2="173.75085"
     y2="302.10907" />
  <line
     class="arc1"
     id="link25_@1_68"
     x1="173.75085"
     y1="302.10907"
     x2="173.75085"
     y2="302.10907" />
  <line
     class="arc2"
     id="link62_@2_68"
     x1="173.75085"
     y1="302.10907"
     x2="173.75085"
     y2="302.10907" />
  <line
     class="arc0"
     id="link62_@0_63"
     x1="173.75085"
     y1="302.10907"
     x2="186.12811"
     y2="22.453552" />
  <line
     class="arc0"
     id="link68_@0_69"
     x1="173.75085"
     y1="302.10907"
     x2="171.01245"
     y2="22.733643" />
  <line
     class="arc2"
     id="link18_@2_0"
     x1="195.29236"
     y1="596.84088"
     x2="189.341"
     y2="608.52515" />
  <line
     class="arc0"
     id="link18_@0_13"
     x1="195.29236"
     y1="596.84088"
     x2="404.77997"
     y2="608.69775" />
  <line
     class="arc2"
     id="link23_@2_1"
     x1="165.0611"
     y1="597.40094"
     x2="174.2254"
     y2="608.80518" />
  <line
     class="arc0"
     id="link23_@0_28"
     x1="165.0611"
     y1="597.40094"
     x2="29.018311"
     y2="615.65894" />
  <polygon
     points="887.92944,626.0807 751.88666,644.33875 736.77106,644.6188 527.28345,632.76184 524.0705,631.44446 660.11334,613.1864 675.22894,612.9064 884.7165,624.7633 "
     id="face_7_6_5_4_3_2_1_0"
     style="fill:#c0c0c0;stroke:none"
     opacity="1"
     transform="translate(-485.88794,-4.3812256)" />
  <line
     class="arc1"
     id="link0_@1_1"
     x1="189.341"
     y1="608.52515"
     x2="174.2254"
     y2="608.80518" />
  <line
     class="arc0"
     id="link0_@0_7"
     x1="189.341"
     y1="608.52515"
     x2="398.82855"
     y2="620.38208" />
  <line
     class="arc0"
     id="link1_@0_2"
     x1="174.2254"
     y1="608.80518"
     x2="38.182556"
     y2="627.06323" />
  <line
     class="arc1"
     id="link63_@1_64"
     x1="186.12811"
     y1="22.453552"
     x2="195.29236"
     y2="12.086792" />
  <line
     class="arc2"
     id="link63_@2_69"
     x1="186.12811"
     y1="22.453552"
     x2="171.01245"
     y2="22.733643" />
  <line
     class="arc1"
     id="link69_@1_70"
     x1="171.01245"
     y1="22.733643"
     x2="165.0611"
     y2="12.646851" />
  <line
     class="arc2"
     id="link64_@2_65"
     x1="195.29236"
     y1="12.086792"
     x2="189.341"
     y2="2" />
  <line
     class="arc0"
     id="link64_@0_58"
     x1="195.29236"
     y1="12.086792"
     x2="404.77997"
     y2="23.943665" />
  <line
     class="arc2"
     id="link70_@2_71"
     x1="165.0611"
     y1="12.646851"
     x2="174.2254"
     y2="2.2800293" />
  <line
     class="arc0"
     id="link70_@0_76"
     x1="165.0611"
     y1="12.646851"
     x2="29.018311"
     y2="30.904907" />
  <polygon
     points="887.92944,19.555542 751.88666,37.8136 736.77106,38.093628 527.28345,26.236755 524.0705,24.919312 660.11334,6.661255 675.22894,6.3812256 884.7165,18.238098 "
     id="face_59_53_95_89_83_77_71_65"
     style="fill:#c0c0c0;stroke:none"
     opacity="1"
     transform="translate(-485.88794,-4.3812256)" />
  <line
     class="arc1"
     id="link65_@1_71"
     x1="189.341"
     y1="2"
     x2="174.2254"
     y2="2.2800293" />
  <line
     class="arc0"
     id="link65_@0_59"
     x1="189.341"
     y1="2"
     x2="398.82855"
     y2="13.856873" />
  <line
     class="arc0"
     id="link71_@0_77"
     x1="174.2254"
     y1="2.2800293"
     x2="38.182556"
     y2="20.538086" />
  <line
     class="arc1"
     id="link13_@1_14"
     x1="404.77997"
     y1="608.69775"
     x2="413.94427"
     y2="598.33093" />
  <line
     class="arc2"
     id="link13_@2_7"
     x1="404.77997"
     y1="608.69775"
     x2="398.82855"
     y2="620.38208" />
  <line
     class="arc2"
     id="link14_@2_9"
     x1="413.94427"
     y1="598.33093"
     x2="417.1571"
     y2="599.64832" />
  <line
     class="arc0"
     id="link14_@0_15"
     x1="413.94427"
     y1="598.33093"
     x2="438.22406"
     y2="317.07816" />
  <line
     class="arc1"
     id="link7_@1_6"
     x1="398.82855"
     y1="620.38208"
     x2="402.0415"
     y2="621.69946" />
  <polygon
     points="924.112,321.45938 903.04504,41.04651 897.09375,30.959717 761.05096,49.217773 755.09955,60.901978 752.3612,344.5097 752.3612,344.5097 755.09955,623.885 761.05096,633.97186 897.09375,615.7138 903.04504,604.02954 924.112,321.45938 "
     id="face_10_50_51_52_94_93_92_45_44_43_8_9"
     style="fill:#c0c0c0;stroke:none"
     opacity="1"
     transform="translate(-485.88794,-4.3812256)" />
  <line
     class="arc1"
     id="link9_@1_8"
     x1="417.1571"
     y1="599.64832"
     x2="411.20581"
     y2="611.33258" />
  <line
     class="arc0"
     id="link9_@0_10"
     x1="417.1571"
     y1="599.64832"
     x2="438.22406"
     y2="317.07816" />
  <line
     class="arc2"
     id="link6_@2_8"
     x1="402.0415"
     y1="621.69946"
     x2="411.20581"
     y2="611.33258" />
  <line
     class="arc0"
     id="link6_@0_5"
     x1="402.0415"
     y1="621.69946"
     x2="265.99872"
     y2="639.95752" />
  <line
     class="arc0"
     id="link8_@0_43"
     x1="411.20581"
     y1="611.33258"
     x2="275.16302"
     y2="629.59064" />
  <line
     class="arc1"
     id="link10_@1_50"
     x1="438.22406"
     y1="317.07816"
     x2="438.22406"
     y2="317.07816" />
  <line
     class="arc2"
     id="link10_@2_15"
     x1="438.22406"
     y1="317.07816"
     x2="438.22406"
     y2="317.07816" />
  <line
     class="arc1"
     id="link15_@1_56"
     x1="438.22406"
     y1="317.07816"
     x2="438.22406"
     y2="317.07816" />
  <line
     class="arc2"
     id="link50_@2_56"
     x1="438.22406"
     y1="317.07816"
     x2="438.22406"
     y2="317.07816" />
  <line
     class="arc0"
     id="link50_@0_51"
     x1="438.22406"
     y1="317.07816"
     x2="417.1571"
     y2="36.665283" />
  <line
     class="arc0"
     id="link56_@0_57"
     x1="438.22406"
     y1="317.07816"
     x2="413.94427"
     y2="35.3479" />
  <line
     class="arc1"
     id="link58_@1_57"
     x1="404.77997"
     y1="23.943665"
     x2="413.94427"
     y2="35.3479" />
  <line
     class="arc2"
     id="link58_@2_59"
     x1="404.77997"
     y1="23.943665"
     x2="398.82855"
     y2="13.856873" />
  <line
     class="arc2"
     id="link57_@2_51"
     x1="413.94427"
     y1="35.3479"
     x2="417.1571"
     y2="36.665283" />
  <line
     class="arc1"
     id="link59_@1_53"
     x1="398.82855"
     y1="13.856873"
     x2="402.0415"
     y2="15.174316" />
  <line
     class="arc1"
     id="link51_@1_52"
     x1="417.1571"
     y1="36.665283"
     x2="411.20581"
     y2="26.578491" />
  <line
     class="arc2"
     id="link53_@2_52"
     x1="402.0415"
     y1="15.174316"
     x2="411.20581"
     y2="26.578491" />
  <line
     class="arc0"
     id="link53_@0_95"
     x1="402.0415"
     y1="15.174316"
     x2="265.99872"
     y2="33.432373" />
  <line
     class="arc1"
     id="link28_@1_29"
     x1="29.018311"
     y1="615.65894"
     x2="23.066956"
     y2="605.57214" />
  <line
     class="arc2"
     id="link28_@2_2"
     x1="29.018311"
     y1="615.65894"
     x2="38.182556"
     y2="627.06323" />
  <line
     class="arc0"
     id="link52_@0_94"
     x1="411.20581"
     y1="26.578491"
     x2="275.16302"
     y2="44.836548" />
  <line
     class="arc1"
     id="link2_@1_3"
     x1="38.182556"
     y1="627.06323"
     x2="41.395508"
     y2="628.38062" />
  <line
     class="arc2"
     id="link29_@2_34"
     x1="23.066956"
     y1="605.57214"
     x2="26.279846"
     y2="606.88953" />
  <line
     class="arc0"
     id="link29_@0_30"
     x1="23.066956"
     y1="605.57214"
     x2="2"
     y2="325.15939" />
  <line
     class="arc2"
     id="link3_@2_33"
     x1="41.395508"
     y1="628.38062"
     x2="35.444153"
     y2="618.29376" />
  <line
     class="arc0"
     id="link3_@0_4"
     x1="41.395508"
     y1="628.38062"
     x2="250.88312"
     y2="640.23755" />
  <polygon
     points="487.88794,329.54062 512.1678,48.28772 521.3321,37.92096 730.81964,49.777832 739.984,61.182007 752.3612,344.5097 752.3612,344.5097 739.984,624.16504 730.81964,634.5319 521.3321,622.675 512.1678,611.27075 487.88794,329.54062 "
     id="face_35_80_81_82_88_87_86_40_39_38_33_34"
     style="fill:#c0c0c0;stroke:none"
     opacity="1"
     transform="translate(-485.88794,-4.3812256)" />
  <line
     class="arc1"
     id="link34_@1_33"
     x1="26.279846"
     y1="606.88953"
     x2="35.444153"
     y2="618.29376" />
  <line
     class="arc0"
     id="link34_@0_35"
     x1="26.279846"
     y1="606.88953"
     x2="2"
     y2="325.15939" />
  <line
     class="arc0"
     id="link33_@0_38"
     x1="35.444153"
     y1="618.29376"
     x2="244.9317"
     y2="630.1507" />
  <line
     class="arc1"
     id="link30_@1_74"
     x1="2"
     y1="325.15939"
     x2="2"
     y2="325.15939" />
  <line
     class="arc2"
     id="link30_@2_35"
     x1="2"
     y1="325.15939"
     x2="2"
     y2="325.15939" />
  <line
     class="arc1"
     id="link35_@1_80"
     x1="2"
     y1="325.15939"
     x2="2"
     y2="325.15939" />
  <line
     class="arc2"
     id="link74_@2_80"
     x1="2"
     y1="325.15939"
     x2="2"
     y2="325.15939" />
  <line
     class="arc0"
     id="link74_@0_75"
     x1="2"
     y1="325.15939"
     x2="23.066956"
     y2="42.589111" />
  <line
     class="arc0"
     id="link80_@0_81"
     x1="2"
     y1="325.15939"
     x2="26.279846"
     y2="43.906494" />
  <line
     class="arc1"
     id="link76_@1_75"
     x1="29.018311"
     y1="30.904907"
     x2="23.066956"
     y2="42.589111" />
  <line
     class="arc2"
     id="link76_@2_77"
     x1="29.018311"
     y1="30.904907"
     x2="38.182556"
     y2="20.538086" />
  <line
     class="arc1"
     id="link77_@1_83"
     x1="38.182556"
     y1="20.538086"
     x2="41.395508"
     y2="21.85553" />
  <line
     class="arc2"
     id="link75_@2_81"
     x1="23.066956"
     y1="42.589111"
     x2="26.279846"
     y2="43.906494" />
  <line
     class="arc2"
     id="link83_@2_82"
     x1="41.395508"
     y1="21.85553"
     x2="35.444153"
     y2="33.539734" />
  <line
     class="arc0"
     id="link83_@0_89"
     x1="41.395508"
     y1="21.85553"
     x2="250.88312"
     y2="33.712402" />
  <line
     class="arc1"
     id="link81_@1_82"
     x1="26.279846"
     y1="43.906494"
     x2="35.444153"
     y2="33.539734" />
  <line
     class="arc0"
     id="link82_@0_88"
     x1="35.444153"
     y1="33.539734"
     x2="244.9317"
     y2="45.396606" />
  <line
     class="arc1"
     id="link5_@1_4"
     x1="265.99872"
     y1="639.95752"
     x2="250.88312"
     y2="640.23755" />
  <line
     class="arc2"
     id="link5_@2_43"
     x1="265.99872"
     y1="639.95752"
     x2="275.16302"
     y2="629.59064" />
  <line
     class="arc2"
     id="link4_@2_38"
     x1="250.88312"
     y1="640.23755"
     x2="244.9317"
     y2="630.1507" />
  <line
     class="arc1"
     id="link43_@1_44"
     x1="275.16302"
     y1="629.59064"
     x2="269.21161"
     y2="619.50378" />
  <line
     class="arc1"
     id="link38_@1_39"
     x1="244.9317"
     y1="630.1507"
     x2="254.09607"
     y2="619.78381" />
  <line
     class="arc2"
     id="link44_@2_39"
     x1="269.21161"
     y1="619.50378"
     x2="254.09607"
     y2="619.78381" />
  <line
     class="arc0"
     id="link44_@0_45"
     x1="269.21161"
     y1="619.50378"
     x2="266.47327"
     y2="340.12848" />
  <line
     class="arc0"
     id="link39_@0_40"
     x1="254.09607"
     y1="619.78381"
     x2="266.47327"
     y2="340.12848" />
  <line
     class="arc1"
     id="link95_@1_89"
     x1="265.99872"
     y1="33.432373"
     x2="250.88312"
     y2="33.712402" />
  <line
     class="arc2"
     id="link95_@2_94"
     x1="265.99872"
     y1="33.432373"
     x2="275.16302"
     y2="44.836548" />
  <line
     class="arc2"
     id="link89_@2_88"
     x1="250.88312"
     y1="33.712402"
     x2="244.9317"
     y2="45.396606" />
  <line
     class="arc1"
     id="link94_@1_93"
     x1="275.16302"
     y1="44.836548"
     x2="269.21161"
     y2="56.520752" />
  <line
     class="arc1"
     id="link88_@1_87"
     x1="244.9317"
     y1="45.396606"
     x2="254.09607"
     y2="56.800781" />
  <line
     class="arc1"
     id="link40_@1_86"
     x1="266.47327"
     y1="340.12848"
     x2="266.47327"
     y2="340.12848" />
  <line
     class="arc2"
     id="link40_@2_45"
     x1="266.47327"
     y1="340.12848"
     x2="266.47327"
     y2="340.12848" />
  <line
     class="arc1"
     id="link45_@1_92"
     x1="266.47327"
     y1="340.12848"
     x2="266.47327"
     y2="340.12848" />
  <line
     class="arc2"
     id="link86_@2_92"
     x1="266.47327"
     y1="340.12848"
     x2="266.47327"
     y2="340.12848" />
  <line
     class="arc0"
     id="link86_@0_87"
     x1="266.47327"
     y1="340.12848"
     x2="254.09607"
     y2="56.800781" />
  <line
     class="arc0"
     id="link92_@0_93"
     x1="266.47327"
     y1="340.12848"
     x2="269.21161"
     y2="56.520752" />
  <line
     class="arc2"
     id="link93_@2_87"
     x1="269.21161"
     y1="56.520752"
     x2="254.09607"
     y2="56.800781" />
</svg>
