<?xml version="1.0" encoding="UTF-8" standalone="no"?>
<!-- Created with Jerboa -->

<svg
   width="310.47546"
   height="508.18793"
   version="1.1"
   id="svg1"
   sodipodi:docname="smooth-init-3.svg"
   inkscape:version="1.3.2 (091e20ef0f, 2023-11-25, custom)"
   xmlns:inkscape="http://www.inkscape.org/namespaces/inkscape"
   xmlns:sodipodi="http://sodipodi.sourceforge.net/DTD/sodipodi-0.dtd"
   xmlns="http://www.w3.org/2000/svg"
   xmlns:svg="http://www.w3.org/2000/svg">
  <defs
     id="defs1" />
  <sodipodi:namedview
     id="namedview1"
     pagecolor="#ffffff"
     bordercolor="#000000"
     borderopacity="0.25"
     inkscape:showpageshadow="2"
     inkscape:pageopacity="0.0"
     inkscape:pagecheckerboard="0"
     inkscape:deskcolor="#d1d1d1"
     inkscape:zoom="0.10904255"
     inkscape:cx="-68.780488"
     inkscape:cy="417.26829"
     inkscape:window-width="941"
     inkscape:window-height="1034"
     inkscape:window-x="9"
     inkscape:window-y="27"
     inkscape:window-maximized="1"
     inkscape:current-layer="svg1" />
  <style
     id="style">
		.arc0 {
			fill:none;
			fill-rule:evenodd;
			stroke:black;
			stroke-width:4;
			stroke-linecap:round;
			stroke-linejoin:round;
			stroke-opacity:1;
		}
		.arc1 {
			fill:none;
			fill-rule:evenodd;
			stroke:red;
			stroke-width:4;
			stroke-linecap:round;
			stroke-linejoin:round;
			stroke-opacity:1;
		}
		.arc2 {
			fill:none;
			fill-rule:evenodd;
			stroke:blue;
			stroke-width:4;
			stroke-linecap:round;
			stroke-linejoin:round;
			stroke-opacity:1;
		}
		.arc3 {
			fill:none;
			fill-rule:evenodd;
			stroke:green;
			stroke-width:4;
			stroke-linecap:round;
			stroke-linejoin:round;
			stroke-opacity:1;
		}
		.topological-dart {
			fill:#000000;
			stroke:#000000;
			stroke-width:0;
			stroke-linecap:round;
			stroke-linejoin:round;
			stroke-dasharray:none;
			paint-order:markers fill stroke;
		}
	</style>
  <polygon
     points="801.6123,508.35123 638.6983,499.13037 631.5715,490.26154 631.5715,296.74808 638.6983,288.68597 801.6123,297.90686 808.73914,306.77573 808.73914,500.28915 "
     id="face_23_24_18_17_16_15_21_22"
     style="fill:#c0c0c0;stroke:none"
     opacity="1"
     transform="translate(-502.76233,-34.535461)" />
  <line
     class="arc1"
     id="link22_@1_21"
     x1="128.80914"
     y1="455.72607"
     x2="135.93597"
     y2="464.59491" />
  <line
     class="arc2"
     id="link22_@2_28"
     x1="128.80914"
     y1="455.72607"
     x2="117.05402"
     y2="455.94385" />
  <line
     class="arc0"
     id="link22_@0_23"
     x1="128.80914"
     y1="455.72607"
     x2="128.80914"
     y2="262.21262" />
  <polygon
     points="509.39056,513.7648 615.1881,499.56592 619.81635,490.4793 619.81635,296.96588 615.1881,289.12152 509.39056,303.3204 504.76233,312.40704 504.76233,505.92047 "
     id="face_29_30_36_35_34_33_27_28"
     style="fill:#c0c0c0;stroke:none"
     opacity="1"
     transform="translate(-502.76233,-34.535461)" />
  <line
     class="arc1"
     id="link28_@1_27"
     x1="117.05402"
     y1="455.94385"
     x2="112.42578"
     y2="465.03046" />
  <line
     class="arc0"
     id="link28_@0_29"
     x1="117.05402"
     y1="455.94385"
     x2="117.05402"
     y2="262.43042" />
  <line
     class="arc2"
     id="link21_@2_20"
     x1="135.93597"
     y1="464.59491"
     x2="131.30774"
     y2="473.68152" />
  <line
     class="arc0"
     id="link21_@0_15"
     x1="135.93597"
     y1="464.59491"
     x2="298.84998"
     y2="473.81577" />
  <line
     class="arc2"
     id="link27_@2_26"
     x1="112.42578"
     y1="465.03046"
     x2="119.55267"
     y2="473.89929" />
  <line
     class="arc0"
     id="link27_@0_33"
     x1="112.42578"
     y1="465.03046"
     x2="6.6282349"
     y2="479.22931" />
  <polygon
     points="516.51746,522.63367 622.315,508.43475 634.07007,508.21698 796.984,517.43787 799.48267,518.4624 693.6851,532.66125 681.93,532.879 519.01605,523.65814 "
     id="face_14_8_50_44_38_32_26_20"
     style="fill:#c0c0c0;stroke:none"
     opacity="1"
     transform="translate(-502.76233,-34.535461)" />
  <line
     class="arc1"
     id="link20_@1_26"
     x1="131.30774"
     y1="473.68152"
     x2="119.55267"
     y2="473.89929" />
  <line
     class="arc3"
     id="link20_@3_0"
     x1="131.30774"
     y1="473.68152"
     x2="126.6795"
     y2="482.76813" />
  <line
     class="arc0"
     id="link20_@0_14"
     x1="131.30774"
     y1="473.68152"
     x2="294.22168"
     y2="482.9024" />
  <line
     class="arc3"
     id="link26_@3_1"
     x1="119.55267"
     y1="473.89929"
     x2="126.6795"
     y2="482.76813" />
  <line
     class="arc0"
     id="link26_@0_32"
     x1="119.55267"
     y1="473.89929"
     x2="13.755127"
     y2="488.09821" />
  <polygon
     points="523.6443,531.5025 629.44183,517.3036 792.3558,526.5245 686.5582,540.7234 "
     id="face_7_6_5_4_3_2_1_0"
     style="fill:#c0c0c0;stroke:none"
     opacity="1"
     transform="translate(-502.76233,-34.535461)" />
  <line
     class="arc1"
     id="link0_@1_1"
     x1="126.6795"
     y1="482.76813"
     x2="126.6795"
     y2="482.76813" />
  <line
     class="arc0"
     id="link0_@0_7"
     x1="126.6795"
     y1="482.76813"
     x2="289.59344"
     y2="491.98901" />
  <line
     class="arc0"
     id="link1_@0_2"
     x1="126.6795"
     y1="482.76813"
     x2="20.881958"
     y2="496.96704" />
  <line
     class="arc1"
     id="link23_@1_24"
     x1="128.80914"
     y1="262.21262"
     x2="135.93597"
     y2="254.15051" />
  <line
     class="arc2"
     id="link23_@2_29"
     x1="128.80914"
     y1="262.21262"
     x2="117.05402"
     y2="262.43042" />
  <line
     class="arc1"
     id="link29_@1_30"
     x1="117.05402"
     y1="262.43042"
     x2="112.42578"
     y2="254.58606" />
  <polygon
     points="801.6123,264.04504 638.6983,254.82416 631.5715,245.95532 631.5715,52.441772 638.6983,44.37976 801.6123,53.600647 808.73914,62.46936 808.73914,255.98291 "
     id="face_83_84_78_77_76_75_81_82"
     style="fill:#c0c0c0;stroke:none"
     opacity="1"
     transform="translate(-502.76233,-34.535461)" />
  <line
     class="arc1"
     id="link82_@1_81"
     x1="128.80914"
     y1="211.41986"
     x2="135.93597"
     y2="220.2887" />
  <line
     class="arc2"
     id="link82_@2_88"
     x1="128.80914"
     y1="211.41986"
     x2="117.05402"
     y2="211.63757" />
  <line
     class="arc0"
     id="link82_@0_83"
     x1="128.80914"
     y1="211.41986"
     x2="128.80914"
     y2="17.906311" />
  <line
     class="arc2"
     id="link24_@2_25"
     x1="135.93597"
     y1="254.15051"
     x2="131.30774"
     y2="246.30621" />
  <line
     class="arc0"
     id="link24_@0_18"
     x1="135.93597"
     y1="254.15051"
     x2="298.84998"
     y2="263.3714" />
  <polygon
     points="509.39056,269.4586 615.1881,255.2597 619.81635,246.17303 619.81635,52.659485 615.1881,44.815308 509.39056,59.01416 504.76233,68.10071 504.76233,261.61426 "
     id="face_89_90_96_95_94_93_87_88"
     style="fill:#c0c0c0;stroke:none"
     opacity="1"
     transform="translate(-502.76233,-34.535461)" />
  <line
     class="arc1"
     id="link88_@1_87"
     x1="117.05402"
     y1="211.63757"
     x2="112.42578"
     y2="220.72424" />
  <line
     class="arc0"
     id="link88_@0_89"
     x1="117.05402"
     y1="211.63757"
     x2="117.05402"
     y2="18.124023" />
  <line
     class="arc2"
     id="link81_@2_80"
     x1="135.93597"
     y1="220.2887"
     x2="131.30774"
     y2="229.37527" />
  <line
     class="arc0"
     id="link81_@0_75"
     x1="135.93597"
     y1="220.2887"
     x2="298.84998"
     y2="229.50958" />
  <line
     class="arc2"
     id="link30_@2_31"
     x1="112.42578"
     y1="254.58606"
     x2="119.55267"
     y2="246.52399" />
  <line
     class="arc0"
     id="link30_@0_36"
     x1="112.42578"
     y1="254.58606"
     x2="6.6282349"
     y2="268.78494" />
  <polygon
     points="516.51746,295.25833 622.315,281.05945 634.07007,280.84167 796.984,290.06253 799.48267,291.08707 693.6851,305.28595 681.93,305.50372 519.01605,296.28287 "
     id="face_19_13_55_49_43_37_31_25"
     style="fill:#c0c0c0;stroke:none"
     opacity="1"
     transform="translate(-502.76233,-34.535461)" />
  <line
     class="arc1"
     id="link25_@1_31"
     x1="131.30774"
     y1="246.30621"
     x2="119.55267"
     y2="246.52399" />
  <line
     class="arc3"
     id="link25_@3_80"
     x1="131.30774"
     y1="246.30621"
     x2="131.30774"
     y2="229.37527" />
  <line
     class="arc0"
     id="link25_@0_19"
     x1="131.30774"
     y1="246.30621"
     x2="294.22168"
     y2="255.52707" />
  <line
     class="arc2"
     id="link87_@2_86"
     x1="112.42578"
     y1="220.72424"
     x2="119.55267"
     y2="229.59308" />
  <line
     class="arc0"
     id="link87_@0_93"
     x1="112.42578"
     y1="220.72424"
     x2="6.6282349"
     y2="234.92313" />
  <polygon
     points="516.51746,278.3274 622.315,264.12854 634.07007,263.91074 796.984,273.13162 799.48267,274.15613 693.6851,288.35504 681.93,288.57278 519.01605,279.35193 "
     id="face_74_68_62_56_98_92_86_80"
     style="fill:#c0c0c0;stroke:none"
     opacity="1"
     transform="translate(-502.76233,-34.535461)" />
  <line
     class="arc1"
     id="link80_@1_86"
     x1="131.30774"
     y1="229.37527"
     x2="119.55267"
     y2="229.59308" />
  <line
     class="arc0"
     id="link80_@0_74"
     x1="131.30774"
     y1="229.37527"
     x2="294.22168"
     y2="238.59616" />
  <line
     class="arc3"
     id="link31_@3_86"
     x1="119.55267"
     y1="246.52399"
     x2="119.55267"
     y2="229.59308" />
  <line
     class="arc0"
     id="link31_@0_37"
     x1="119.55267"
     y1="246.52399"
     x2="13.755127"
     y2="260.72287" />
  <line
     class="arc0"
     id="link86_@0_92"
     x1="119.55267"
     y1="229.59308"
     x2="13.755127"
     y2="243.79193" />
  <line
     class="arc1"
     id="link83_@1_84"
     x1="128.80914"
     y1="17.906311"
     x2="135.93597"
     y2="9.8442993" />
  <line
     class="arc2"
     id="link83_@2_89"
     x1="128.80914"
     y1="17.906311"
     x2="117.05402"
     y2="18.124023" />
  <line
     class="arc1"
     id="link89_@1_90"
     x1="117.05402"
     y1="18.124023"
     x2="112.42578"
     y2="10.279846" />
  <line
     class="arc2"
     id="link84_@2_85"
     x1="135.93597"
     y1="9.8442993"
     x2="131.30774"
     y2="2" />
  <line
     class="arc0"
     id="link84_@0_78"
     x1="135.93597"
     y1="9.8442993"
     x2="298.84998"
     y2="19.065186" />
  <line
     class="arc2"
     id="link90_@2_91"
     x1="112.42578"
     y1="10.279846"
     x2="119.55267"
     y2="2.2177734" />
  <line
     class="arc0"
     id="link90_@0_96"
     x1="112.42578"
     y1="10.279846"
     x2="6.6282349"
     y2="24.478699" />
  <polygon
     points="516.51746,50.952087 622.315,36.753235 634.07007,36.53546 796.984,45.756287 799.48267,46.780823 693.6851,60.979736 681.93,61.19751 519.01605,51.976624 "
     id="face_79_73_67_61_103_97_91_85"
     style="fill:#c0c0c0;stroke:none"
     opacity="1"
     transform="translate(-502.76233,-34.535461)" />
  <line
     class="arc1"
     id="link85_@1_91"
     x1="131.30774"
     y1="2"
     x2="119.55267"
     y2="2.2177734" />
  <line
     class="arc0"
     id="link85_@0_79"
     x1="131.30774"
     y1="2"
     x2="294.22168"
     y2="11.220825" />
  <line
     class="arc0"
     id="link91_@0_97"
     x1="119.55267"
     y1="2.2177734"
     x2="13.755127"
     y2="16.416626" />
  <line
     class="arc1"
     id="link15_@1_16"
     x1="298.84998"
     y1="473.81577"
     x2="305.97681"
     y2="465.75369" />
  <line
     class="arc2"
     id="link15_@2_14"
     x1="298.84998"
     y1="473.81577"
     x2="294.22168"
     y2="482.9024" />
  <line
     class="arc2"
     id="link16_@2_10"
     x1="305.97681"
     y1="465.75369"
     x2="308.47546"
     y2="466.7782" />
  <line
     class="arc0"
     id="link16_@0_17"
     x1="305.97681"
     y1="465.75369"
     x2="305.97681"
     y2="272.24026" />
  <line
     class="arc1"
     id="link14_@1_8"
     x1="294.22168"
     y1="482.9024"
     x2="296.72034"
     y2="483.92694" />
  <line
     class="arc3"
     id="link14_@3_7"
     x1="294.22168"
     y1="482.9024"
     x2="289.59344"
     y2="491.98901" />
  <line
     class="arc1"
     id="link6_@1_7"
     x1="289.59344"
     y1="491.98901"
     x2="289.59344"
     y2="491.98901" />
  <line
     class="arc3"
     id="link6_@3_8"
     x1="289.59344"
     y1="491.98901"
     x2="296.72034"
     y2="483.92694" />
  <line
     class="arc0"
     id="link6_@0_5"
     x1="289.59344"
     y1="491.98901"
     x2="183.7959"
     y2="506.18793" />
  <polygon
     points="700.812,524.5992 806.6095,510.4003 811.2378,501.31366 811.2378,307.80026 806.6095,299.95587 700.812,314.1548 696.1837,323.24142 696.1837,516.7549 "
     id="face_11_12_54_53_52_51_9_10"
     style="fill:#c0c0c0;stroke:none"
     opacity="1"
     transform="translate(-502.76233,-34.535461)" />
  <line
     class="arc1"
     id="link10_@1_9"
     x1="308.47546"
     y1="466.7782"
     x2="303.84717"
     y2="475.86484" />
  <line
     class="arc0"
     id="link10_@0_11"
     x1="308.47546"
     y1="466.7782"
     x2="308.47546"
     y2="273.2648" />
  <line
     class="arc2"
     id="link8_@2_9"
     x1="296.72034"
     y1="483.92694"
     x2="303.84717"
     y2="475.86484" />
  <line
     class="arc0"
     id="link8_@0_50"
     x1="296.72034"
     y1="483.92694"
     x2="190.92279"
     y2="498.12579" />
  <line
     class="arc1"
     id="link18_@1_17"
     x1="298.84998"
     y1="263.3714"
     x2="305.97681"
     y2="272.24026" />
  <line
     class="arc2"
     id="link18_@2_19"
     x1="298.84998"
     y1="263.3714"
     x2="294.22168"
     y2="255.52707" />
  <line
     class="arc1"
     id="link75_@1_76"
     x1="298.84998"
     y1="229.50958"
     x2="305.97681"
     y2="221.44745" />
  <line
     class="arc2"
     id="link75_@2_74"
     x1="298.84998"
     y1="229.50958"
     x2="294.22168"
     y2="238.59616" />
  <line
     class="arc2"
     id="link17_@2_11"
     x1="305.97681"
     y1="272.24026"
     x2="308.47546"
     y2="273.2648" />
  <line
     class="arc0"
     id="link9_@0_51"
     x1="303.84717"
     y1="475.86484"
     x2="198.04968"
     y2="490.06372" />
  <line
     class="arc1"
     id="link19_@1_13"
     x1="294.22168"
     y1="255.52707"
     x2="296.72034"
     y2="256.55161" />
  <line
     class="arc3"
     id="link19_@3_74"
     x1="294.22168"
     y1="255.52707"
     x2="294.22168"
     y2="238.59616" />
  <line
     class="arc2"
     id="link76_@2_70"
     x1="305.97681"
     y1="221.44745"
     x2="308.47546"
     y2="222.47198" />
  <line
     class="arc0"
     id="link76_@0_77"
     x1="305.97681"
     y1="221.44745"
     x2="305.97681"
     y2="27.933899" />
  <line
     class="arc1"
     id="link74_@1_68"
     x1="294.22168"
     y1="238.59616"
     x2="296.72034"
     y2="239.62067" />
  <line
     class="arc1"
     id="link11_@1_12"
     x1="308.47546"
     y1="273.2648"
     x2="303.84717"
     y2="265.42041" />
  <line
     class="arc2"
     id="link13_@2_12"
     x1="296.72034"
     y1="256.55161"
     x2="303.84717"
     y2="265.42041" />
  <line
     class="arc3"
     id="link13_@3_68"
     x1="296.72034"
     y1="256.55161"
     x2="296.72034"
     y2="239.62067" />
  <line
     class="arc0"
     id="link13_@0_55"
     x1="296.72034"
     y1="256.55161"
     x2="190.92279"
     y2="270.75049" />
  <polygon
     points="700.812,280.29297 806.6095,266.09406 811.2378,257.00745 811.2378,63.493896 806.6095,55.64972 700.812,69.84857 696.1837,78.93512 696.1837,272.44864 "
     id="face_71_72_66_65_64_63_69_70"
     style="fill:#c0c0c0;stroke:none"
     opacity="1"
     transform="translate(-502.76233,-34.535461)" />
  <line
     class="arc1"
     id="link70_@1_69"
     x1="308.47546"
     y1="222.47198"
     x2="303.84717"
     y2="231.55859" />
  <line
     class="arc0"
     id="link70_@0_71"
     x1="308.47546"
     y1="222.47198"
     x2="308.47546"
     y2="28.958435" />
  <line
     class="arc2"
     id="link68_@2_69"
     x1="296.72034"
     y1="239.62067"
     x2="303.84717"
     y2="231.55859" />
  <line
     class="arc0"
     id="link68_@0_62"
     x1="296.72034"
     y1="239.62067"
     x2="190.92279"
     y2="253.81958" />
  <line
     class="arc1"
     id="link78_@1_77"
     x1="298.84998"
     y1="19.065186"
     x2="305.97681"
     y2="27.933899" />
  <line
     class="arc2"
     id="link78_@2_79"
     x1="298.84998"
     y1="19.065186"
     x2="294.22168"
     y2="11.220825" />
  <line
     class="arc0"
     id="link12_@0_54"
     x1="303.84717"
     y1="265.42041"
     x2="198.04968"
     y2="279.61932" />
  <line
     class="arc2"
     id="link77_@2_71"
     x1="305.97681"
     y1="27.933899"
     x2="308.47546"
     y2="28.958435" />
  <line
     class="arc0"
     id="link69_@0_63"
     x1="303.84717"
     y1="231.55859"
     x2="198.04968"
     y2="245.75751" />
  <line
     class="arc1"
     id="link79_@1_73"
     x1="294.22168"
     y1="11.220825"
     x2="296.72034"
     y2="12.245361" />
  <line
     class="arc1"
     id="link71_@1_72"
     x1="308.47546"
     y1="28.958435"
     x2="303.84717"
     y2="21.114258" />
  <line
     class="arc2"
     id="link73_@2_72"
     x1="296.72034"
     y1="12.245361"
     x2="303.84717"
     y2="21.114258" />
  <line
     class="arc0"
     id="link73_@0_67"
     x1="296.72034"
     y1="12.245361"
     x2="190.92279"
     y2="26.444275" />
  <line
     class="arc1"
     id="link33_@1_34"
     x1="6.6282349"
     y1="479.22931"
     x2="2"
     y2="471.38501" />
  <line
     class="arc2"
     id="link33_@2_32"
     x1="6.6282349"
     y1="479.22931"
     x2="13.755127"
     y2="488.09821" />
  <line
     class="arc0"
     id="link72_@0_66"
     x1="303.84717"
     y1="21.114258"
     x2="198.04968"
     y2="35.31311" />
  <line
     class="arc1"
     id="link32_@1_38"
     x1="13.755127"
     y1="488.09821"
     x2="16.253723"
     y2="489.12268" />
  <line
     class="arc3"
     id="link32_@3_2"
     x1="13.755127"
     y1="488.09821"
     x2="20.881958"
     y2="496.96704" />
  <line
     class="arc1"
     id="link2_@1_3"
     x1="20.881958"
     y1="496.96704"
     x2="20.881958"
     y2="496.96704" />
  <line
     class="arc3"
     id="link3_@3_38"
     x1="20.881958"
     y1="496.96704"
     x2="16.253723"
     y2="489.12268" />
  <line
     class="arc0"
     id="link3_@0_4"
     x1="20.881958"
     y1="496.96704"
     x2="183.7959"
     y2="506.18793" />
  <line
     class="arc2"
     id="link34_@2_40"
     x1="2"
     y1="471.38501"
     x2="4.4986267"
     y2="472.40955" />
  <line
     class="arc0"
     id="link34_@0_35"
     x1="2"
     y1="471.38501"
     x2="2"
     y2="277.87158" />
  <line
     class="arc2"
     id="link38_@2_39"
     x1="16.253723"
     y1="489.12268"
     x2="11.625488"
     y2="481.27838" />
  <line
     class="arc0"
     id="link38_@0_44"
     x1="16.253723"
     y1="489.12268"
     x2="179.16766"
     y2="498.34357" />
  <line
     class="arc1"
     id="link36_@1_35"
     x1="6.6282349"
     y1="268.78494"
     x2="2"
     y2="277.87158" />
  <line
     class="arc2"
     id="link36_@2_37"
     x1="6.6282349"
     y1="268.78494"
     x2="13.755127"
     y2="260.72287" />
  <polygon
     points="677.3018,525.0347 514.3878,515.81384 507.26096,506.945 507.26096,313.43158 514.3878,305.36945 677.3018,314.5903 684.4287,323.4592 684.4287,516.97266 "
     id="face_41_42_48_47_46_45_39_40"
     style="fill:#c0c0c0;stroke:none"
     opacity="1"
     transform="translate(-502.76233,-34.535461)" />
  <line
     class="arc1"
     id="link40_@1_39"
     x1="4.4986267"
     y1="472.40955"
     x2="11.625488"
     y2="481.27838" />
  <line
     class="arc0"
     id="link40_@0_41"
     x1="4.4986267"
     y1="472.40955"
     x2="4.4986267"
     y2="278.89612" />
  <line
     class="arc1"
     id="link93_@1_94"
     x1="6.6282349"
     y1="234.92313"
     x2="2"
     y2="227.0788" />
  <line
     class="arc2"
     id="link93_@2_92"
     x1="6.6282349"
     y1="234.92313"
     x2="13.755127"
     y2="243.79193" />
  <line
     class="arc1"
     id="link37_@1_43"
     x1="13.755127"
     y1="260.72287"
     x2="16.253723"
     y2="261.74741" />
  <line
     class="arc3"
     id="link37_@3_92"
     x1="13.755127"
     y1="260.72287"
     x2="13.755127"
     y2="243.79193" />
  <line
     class="arc0"
     id="link39_@0_45"
     x1="11.625488"
     y1="481.27838"
     x2="174.53949"
     y2="490.49927" />
  <line
     class="arc2"
     id="link35_@2_41"
     x1="2"
     y1="277.87158"
     x2="4.4986267"
     y2="278.89612" />
  <line
     class="arc1"
     id="link92_@1_98"
     x1="13.755127"
     y1="243.79193"
     x2="16.253723"
     y2="244.81647" />
  <line
     class="arc2"
     id="link94_@2_100"
     x1="2"
     y1="227.0788"
     x2="4.4986267"
     y2="228.10333" />
  <line
     class="arc0"
     id="link94_@0_95"
     x1="2"
     y1="227.0788"
     x2="2"
     y2="33.565247" />
  <line
     class="arc2"
     id="link43_@2_42"
     x1="16.253723"
     y1="261.74741"
     x2="11.625488"
     y2="270.83398" />
  <line
     class="arc3"
     id="link43_@3_98"
     x1="16.253723"
     y1="261.74741"
     x2="16.253723"
     y2="244.81647" />
  <line
     class="arc0"
     id="link43_@0_49"
     x1="16.253723"
     y1="261.74741"
     x2="179.16766"
     y2="270.96826" />
  <line
     class="arc1"
     id="link41_@1_42"
     x1="4.4986267"
     y1="278.89612"
     x2="11.625488"
     y2="270.83398" />
  <line
     class="arc2"
     id="link98_@2_99"
     x1="16.253723"
     y1="244.81647"
     x2="11.625488"
     y2="236.97217" />
  <line
     class="arc0"
     id="link98_@0_56"
     x1="16.253723"
     y1="244.81647"
     x2="179.16766"
     y2="254.03732" />
  <line
     class="arc1"
     id="link96_@1_95"
     x1="6.6282349"
     y1="24.478699"
     x2="2"
     y2="33.565247" />
  <line
     class="arc2"
     id="link96_@2_97"
     x1="6.6282349"
     y1="24.478699"
     x2="13.755127"
     y2="16.416626" />
  <polygon
     points="677.3018,280.72852 514.3878,271.50763 507.26096,262.6388 507.26096,69.125244 514.3878,61.063232 677.3018,70.28412 684.4287,79.15283 684.4287,272.66638 "
     id="face_101_102_60_59_58_57_99_100"
     style="fill:#c0c0c0;stroke:none"
     opacity="1"
     transform="translate(-502.76233,-34.535461)" />
  <line
     class="arc1"
     id="link100_@1_99"
     x1="4.4986267"
     y1="228.10333"
     x2="11.625488"
     y2="236.97217" />
  <line
     class="arc0"
     id="link100_@0_101"
     x1="4.4986267"
     y1="228.10333"
     x2="4.4986267"
     y2="34.589783" />
  <line
     class="arc0"
     id="link42_@0_48"
     x1="11.625488"
     y1="270.83398"
     x2="174.53949"
     y2="280.05484" />
  <line
     class="arc1"
     id="link97_@1_103"
     x1="13.755127"
     y1="16.416626"
     x2="16.253723"
     y2="17.441162" />
  <line
     class="arc0"
     id="link99_@0_57"
     x1="11.625488"
     y1="236.97217"
     x2="174.53949"
     y2="246.19305" />
  <line
     class="arc2"
     id="link95_@2_101"
     x1="2"
     y1="33.565247"
     x2="4.4986267"
     y2="34.589783" />
  <line
     class="arc2"
     id="link103_@2_102"
     x1="16.253723"
     y1="17.441162"
     x2="11.625488"
     y2="26.527771" />
  <line
     class="arc0"
     id="link103_@0_61"
     x1="16.253723"
     y1="17.441162"
     x2="179.16766"
     y2="26.662048" />
  <line
     class="arc1"
     id="link101_@1_102"
     x1="4.4986267"
     y1="34.589783"
     x2="11.625488"
     y2="26.527771" />
  <line
     class="arc0"
     id="link102_@0_60"
     x1="11.625488"
     y1="26.527771"
     x2="174.53949"
     y2="35.748657" />
  <line
     class="arc1"
     id="link4_@1_5"
     x1="183.7959"
     y1="506.18793"
     x2="183.7959"
     y2="506.18793" />
  <line
     class="arc3"
     id="link4_@3_44"
     x1="183.7959"
     y1="506.18793"
     x2="179.16766"
     y2="498.34357" />
  <line
     class="arc3"
     id="link5_@3_50"
     x1="183.7959"
     y1="506.18793"
     x2="190.92279"
     y2="498.12579" />
  <line
     class="arc1"
     id="link50_@1_44"
     x1="190.92279"
     y1="498.12579"
     x2="179.16766"
     y2="498.34357" />
  <line
     class="arc2"
     id="link50_@2_51"
     x1="190.92279"
     y1="498.12579"
     x2="198.04968"
     y2="490.06372" />
  <line
     class="arc2"
     id="link44_@2_45"
     x1="179.16766"
     y1="498.34357"
     x2="174.53949"
     y2="490.49927" />
  <line
     class="arc1"
     id="link51_@1_52"
     x1="198.04968"
     y1="490.06372"
     x2="193.42139"
     y2="482.21942" />
  <line
     class="arc1"
     id="link45_@1_46"
     x1="174.53949"
     y1="490.49927"
     x2="181.66638"
     y2="482.43719" />
  <line
     class="arc2"
     id="link52_@2_46"
     x1="193.42139"
     y1="482.21942"
     x2="181.66638"
     y2="482.43719" />
  <line
     class="arc0"
     id="link52_@0_53"
     x1="193.42139"
     y1="482.21942"
     x2="193.42139"
     y2="288.70596" />
  <line
     class="arc0"
     id="link46_@0_47"
     x1="181.66638"
     y1="482.43719"
     x2="181.66638"
     y2="288.92374" />
  <line
     class="arc1"
     id="link55_@1_49"
     x1="190.92279"
     y1="270.75049"
     x2="179.16766"
     y2="270.96826" />
  <line
     class="arc2"
     id="link55_@2_54"
     x1="190.92279"
     y1="270.75049"
     x2="198.04968"
     y2="279.61932" />
  <line
     class="arc3"
     id="link55_@3_62"
     x1="190.92279"
     y1="270.75049"
     x2="190.92279"
     y2="253.81958" />
  <line
     class="arc1"
     id="link62_@1_56"
     x1="190.92279"
     y1="253.81958"
     x2="179.16766"
     y2="254.03732" />
  <line
     class="arc2"
     id="link62_@2_63"
     x1="190.92279"
     y1="253.81958"
     x2="198.04968"
     y2="245.75751" />
  <line
     class="arc2"
     id="link49_@2_48"
     x1="179.16766"
     y1="270.96826"
     x2="174.53949"
     y2="280.05484" />
  <line
     class="arc3"
     id="link49_@3_56"
     x1="179.16766"
     y1="270.96826"
     x2="179.16766"
     y2="254.03732" />
  <line
     class="arc1"
     id="link54_@1_53"
     x1="198.04968"
     y1="279.61932"
     x2="193.42139"
     y2="288.70596" />
  <line
     class="arc2"
     id="link56_@2_57"
     x1="179.16766"
     y1="254.03732"
     x2="174.53949"
     y2="246.19305" />
  <line
     class="arc1"
     id="link63_@1_64"
     x1="198.04968"
     y1="245.75751"
     x2="193.42139"
     y2="237.91318" />
  <line
     class="arc1"
     id="link48_@1_47"
     x1="174.53949"
     y1="280.05484"
     x2="181.66638"
     y2="288.92374" />
  <line
     class="arc2"
     id="link53_@2_47"
     x1="193.42139"
     y1="288.70596"
     x2="181.66638"
     y2="288.92374" />
  <line
     class="arc1"
     id="link57_@1_58"
     x1="174.53949"
     y1="246.19305"
     x2="181.66638"
     y2="238.13092" />
  <line
     class="arc2"
     id="link64_@2_58"
     x1="193.42139"
     y1="237.91318"
     x2="181.66638"
     y2="238.13092" />
  <line
     class="arc0"
     id="link64_@0_65"
     x1="193.42139"
     y1="237.91318"
     x2="193.42139"
     y2="44.399658" />
  <line
     class="arc0"
     id="link58_@0_59"
     x1="181.66638"
     y1="238.13092"
     x2="181.66638"
     y2="44.617371" />
  <line
     class="arc1"
     id="link67_@1_61"
     x1="190.92279"
     y1="26.444275"
     x2="179.16766"
     y2="26.662048" />
  <line
     class="arc2"
     id="link67_@2_66"
     x1="190.92279"
     y1="26.444275"
     x2="198.04968"
     y2="35.31311" />
  <line
     class="arc2"
     id="link61_@2_60"
     x1="179.16766"
     y1="26.662048"
     x2="174.53949"
     y2="35.748657" />
  <line
     class="arc1"
     id="link66_@1_65"
     x1="198.04968"
     y1="35.31311"
     x2="193.42139"
     y2="44.399658" />
  <line
     class="arc1"
     id="link60_@1_59"
     x1="174.53949"
     y1="35.748657"
     x2="181.66638"
     y2="44.617371" />
  <line
     class="arc2"
     id="link65_@2_59"
     x1="193.42139"
     y1="44.399658"
     x2="181.66638"
     y2="44.617371" />
</svg>
