<?xml version="1.0" encoding="UTF-8" standalone="no"?>
<!-- Created with Jerboa -->

<svg
   width="383.06586"
   height="578.44385"
   version="1.1"
   id="svg1"
   sodipodi:docname="smooth-2-rebuild-6.svg"
   xmlns:inkscape="http://www.inkscape.org/namespaces/inkscape"
   xmlns:sodipodi="http://sodipodi.sourceforge.net/DTD/sodipodi-0.dtd"
   xmlns="http://www.w3.org/2000/svg"
   xmlns:svg="http://www.w3.org/2000/svg">
  <defs
     id="defs1" />
  <sodipodi:namedview
     id="namedview1"
     pagecolor="#ffffff"
     bordercolor="#000000"
     borderopacity="0.25"
     inkscape:showpageshadow="2"
     inkscape:pageopacity="0.0"
     inkscape:pagecheckerboard="0"
     inkscape:deskcolor="#d1d1d1" />
  <style
     id="style">
		.arc0 {
			fill:none;
			fill-rule:evenodd;
			stroke:black;
			stroke-width:4;
			stroke-linecap:round;
			stroke-linejoin:round;
			stroke-opacity:1;
		}
		.arc1 {
			fill:none;
			fill-rule:evenodd;
			stroke:red;
			stroke-width:4;
			stroke-linecap:round;
			stroke-linejoin:round;
			stroke-opacity:1;
		}
		.arc2 {
			fill:none;
			fill-rule:evenodd;
			stroke:blue;
			stroke-width:4;
			stroke-linecap:round;
			stroke-linejoin:round;
			stroke-opacity:1;
		}
		.arc3 {
			fill:none;
			fill-rule:evenodd;
			stroke:green;
			stroke-width:4;
			stroke-linecap:round;
			stroke-linejoin:round;
			stroke-opacity:1;
		}
		.topological-dart {
			fill:#000000;
			stroke:#000000;
			stroke-width:0;
			stroke-linecap:round;
			stroke-linejoin:round;
			stroke-dasharray:none;
			paint-order:markers fill stroke;
		}
	</style>
  <polygon
     points="874.43445,566.38916 895.53296,321.9888 895.53296,321.9888 874.43445,77.17352 869.0155,66.618225 690.16235,56.49524 676.46893,65.96881 665.71356,308.9811 665.71356,308.9811 676.46893,555.1844 690.16235,564.6292 869.0155,574.75226 "
     id="face_13_14_15_56_57_58_64_63_62_20_19_18"
     style="fill:#c0c0c0;stroke:none"
     opacity="1"
     transform="translate(-514.4671,-36.278076)" />
  <line
     class="arc1"
     id="link18_@1_19"
     x1="175.69525"
     y1="528.35114"
     x2="162.00183"
     y2="518.90631" />
  <line
     class="arc2"
     id="link18_@2_0"
     x1="175.69525"
     y1="528.35114"
     x2="176.25366"
     y2="538.03937" />
  <line
     class="arc0"
     id="link18_@0_13"
     x1="175.69525"
     y1="528.35114"
     x2="354.5484"
     y2="538.47418" />
  <line
     class="arc2"
     id="link19_@2_24"
     x1="162.00183"
     y1="518.90631"
     x2="148.86682"
     y2="519.14966" />
  <line
     class="arc0"
     id="link19_@0_20"
     x1="162.00183"
     y1="518.90631"
     x2="151.24646"
     y2="272.70303" />
  <polygon
     points="866.55347,594.91284 814.94165,596.1083 813.26654,595.4214 694.48724,588.69855 686.6062,588.84454 678.14417,584.2489 690.72076,574.31744 866.3885,584.26013 "
     id="face_7_48_55_54_21_17_16_0"
     style="fill:#c0c0c0;stroke:none"
     opacity="1"
     transform="translate(-514.4671,-36.278076)" />
  <line
     class="arc1"
     id="link0_@1_16"
     x1="176.25366"
     y1="538.03937"
     x2="163.67706"
     y2="547.97083" />
  <line
     class="arc0"
     id="link0_@0_7"
     x1="176.25366"
     y1="538.03937"
     x2="351.92139"
     y2="547.98206" />
  <polygon
     points="665.71356,308.9811 663.3339,66.2121 650.75726,57.22516 534.6087,72.81329 534.7737,83.46594 516.4671,329.01117 516.4671,329.01117 534.7737,572.6815 534.6087,580.94727 650.75726,565.35925 663.3339,555.42773 665.71356,308.9811 "
     id="face_25_68_69_70_76_75_74_30_29_28_23_24"
     style="fill:#c0c0c0;stroke:none"
     opacity="1"
     transform="translate(-514.4671,-36.278076)" />
  <line
     class="arc1"
     id="link24_@1_23"
     x1="148.86682"
     y1="519.14966"
     x2="136.29016"
     y2="529.08118" />
  <line
     class="arc0"
     id="link24_@0_25"
     x1="148.86682"
     y1="519.14966"
     x2="151.24646"
     y2="272.70303" />
  <line
     class="arc1"
     id="link20_@1_62"
     x1="151.24646"
     y1="272.70303"
     x2="151.24646"
     y2="272.70303" />
  <line
     class="arc2"
     id="link20_@2_25"
     x1="151.24646"
     y1="272.70303"
     x2="151.24646"
     y2="272.70303" />
  <line
     class="arc1"
     id="link25_@1_68"
     x1="151.24646"
     y1="272.70303"
     x2="151.24646"
     y2="272.70303" />
  <line
     class="arc2"
     id="link62_@2_68"
     x1="151.24646"
     y1="272.70303"
     x2="151.24646"
     y2="272.70303" />
  <line
     class="arc0"
     id="link62_@0_63"
     x1="151.24646"
     y1="272.70303"
     x2="162.00183"
     y2="29.690735" />
  <line
     class="arc0"
     id="link68_@0_69"
     x1="151.24646"
     y1="272.70303"
     x2="148.86682"
     y2="29.934021" />
  <line
     class="arc2"
     id="link16_@2_22"
     x1="163.67706"
     y1="547.97083"
     x2="150.54199"
     y2="548.21423" />
  <line
     class="arc0"
     id="link16_@0_17"
     x1="163.67706"
     y1="547.97083"
     x2="172.1391"
     y2="552.56647" />
  <line
     class="arc2"
     id="link23_@2_1"
     x1="136.29016"
     y1="529.08118"
     x2="136.84857"
     y2="538.76935" />
  <line
     class="arc0"
     id="link23_@0_28"
     x1="136.29016"
     y1="529.08118"
     x2="20.141602"
     y2="544.66919" />
  <polygon
     points="670.8442,589.13654 593.708,599.48883 595.3832,600.1757 542.65466,600.9132 537.2357,590.35785 651.3157,575.0474 665.0091,584.4923 678.7252,588.99054 "
     id="face_61_60_26_66_67_2_1_22"
     style="fill:#c0c0c0;stroke:none"
     opacity="1"
     transform="translate(-514.4671,-36.278076)" />
  <line
     class="arc1"
     id="link22_@1_1"
     x1="150.54199"
     y1="548.21423"
     x2="136.84857"
     y2="538.76935" />
  <line
     class="arc0"
     id="link22_@0_61"
     x1="150.54199"
     y1="548.21423"
     x2="164.25812"
     y2="552.71246" />
  <line
     class="arc0"
     id="link1_@0_2"
     x1="136.84857"
     y1="538.76935"
     x2="22.768616"
     y2="554.07977" />
  <line
     class="arc1"
     id="link63_@1_64"
     x1="162.00183"
     y1="29.690735"
     x2="175.69525"
     y2="20.217163" />
  <line
     class="arc2"
     id="link63_@2_69"
     x1="162.00183"
     y1="29.690735"
     x2="148.86682"
     y2="29.934021" />
  <line
     class="arc2"
     id="link64_@2_65"
     x1="175.69525"
     y1="20.217163"
     x2="176.25366"
     y2="10.986938" />
  <line
     class="arc0"
     id="link64_@0_58"
     x1="175.69525"
     y1="20.217163"
     x2="354.5484"
     y2="30.340149" />
  <line
     class="arc1"
     id="link69_@1_70"
     x1="148.86682"
     y1="29.934021"
     x2="136.29016"
     y2="20.947083" />
  <polygon
     points="866.55347,48.941895 814.94165,50.13739 813.26654,49.4505 694.48724,42.72766 686.6062,42.873657 678.14417,38.278076 690.72076,47.265015 866.3885,57.207703 "
     id="face_59_41_42_85_111_110_109_65"
     style="fill:#c0c0c0;stroke:none"
     opacity="1"
     transform="translate(-514.4671,-36.278076)" />
  <line
     class="arc1"
     id="link65_@1_109"
     x1="176.25366"
     y1="10.986938"
     x2="163.67706"
     y2="2" />
  <line
     class="arc0"
     id="link65_@0_59"
     x1="176.25366"
     y1="10.986938"
     x2="351.92139"
     y2="20.929626" />
  <line
     class="arc2"
     id="link70_@2_71"
     x1="136.29016"
     y1="20.947083"
     x2="136.84857"
     y2="11.716919" />
  <line
     class="arc0"
     id="link70_@0_76"
     x1="136.29016"
     y1="20.947083"
     x2="20.141602"
     y2="36.535217" />
  <line
     class="arc2"
     id="link109_@2_106"
     x1="163.67706"
     y1="2"
     x2="150.54199"
     y2="2.2432861" />
  <line
     class="arc0"
     id="link109_@0_110"
     x1="163.67706"
     y1="2"
     x2="172.1391"
     y2="6.5955811" />
  <polygon
     points="542.65466,54.94232 595.3832,54.204773 593.708,53.518005 670.8442,43.16565 678.7252,43.019592 665.0091,38.521362 651.3157,47.994995 537.2357,63.30542 "
     id="face_77_103_104_105_108_107_106_71"
     style="fill:#c0c0c0;stroke:none"
     opacity="1"
     transform="translate(-514.4671,-36.278076)" />
  <line
     class="arc1"
     id="link71_@1_106"
     x1="136.84857"
     y1="11.716919"
     x2="150.54199"
     y2="2.2432861" />
  <line
     class="arc0"
     id="link71_@0_77"
     x1="136.84857"
     y1="11.716919"
     x2="22.768616"
     y2="27.027344" />
  <line
     class="arc0"
     id="link106_@0_107"
     x1="150.54199"
     y1="2.2432861"
     x2="164.25812"
     y2="6.7415161" />
  <line
     class="arc1"
     id="link21_@1_17"
     x1="180.02014"
     y1="552.42047"
     x2="172.1391"
     y2="552.56647" />
  <line
     class="arc0"
     id="link21_@0_54"
     x1="180.02014"
     y1="552.42047"
     x2="298.79944"
     y2="559.14331" />
  <line
     class="arc2"
     id="link17_@2_61"
     x1="172.1391"
     y1="552.56647"
     x2="164.25812"
     y2="552.71246" />
  <line
     class="arc1"
     id="link61_@1_60"
     x1="164.25812"
     y1="552.71246"
     x2="156.37708"
     y2="552.85846" />
  <line
     class="arc0"
     id="link60_@0_26"
     x1="156.37708"
     y1="552.85846"
     x2="79.240906"
     y2="563.21075" />
  <line
     class="arc1"
     id="link111_@1_110"
     x1="180.02014"
     y1="6.449585"
     x2="172.1391"
     y2="6.5955811" />
  <line
     class="arc0"
     id="link111_@0_85"
     x1="180.02014"
     y1="6.449585"
     x2="298.79944"
     y2="13.172424" />
  <line
     class="arc2"
     id="link110_@2_107"
     x1="172.1391"
     y1="6.5955811"
     x2="164.25812"
     y2="6.7415161" />
  <line
     class="arc1"
     id="link107_@1_108"
     x1="164.25812"
     y1="6.7415161"
     x2="156.37708"
     y2="6.8875732" />
  <line
     class="arc0"
     id="link108_@0_105"
     x1="156.37708"
     y1="6.8875732"
     x2="79.240906"
     y2="17.239929" />
  <line
     class="arc1"
     id="link7_@1_48"
     x1="351.92139"
     y1="547.98206"
     x2="352.08636"
     y2="558.63477" />
  <line
     class="arc2"
     id="link7_@2_13"
     x1="351.92139"
     y1="547.98206"
     x2="354.5484"
     y2="538.47418" />
  <line
     class="arc1"
     id="link13_@1_14"
     x1="354.5484"
     y1="538.47418"
     x2="359.96735"
     y2="530.11108" />
  <line
     class="arc2"
     id="link48_@2_11"
     x1="352.08636"
     y1="558.63477"
     x2="354.87823"
     y2="559.77954" />
  <line
     class="arc0"
     id="link48_@0_55"
     x1="352.08636"
     y1="558.63477"
     x2="300.47455"
     y2="559.8302" />
  <line
     class="arc2"
     id="link14_@2_9"
     x1="359.96735"
     y1="530.11108"
     x2="362.75922"
     y2="531.25586" />
  <line
     class="arc0"
     id="link14_@0_15"
     x1="359.96735"
     y1="530.11108"
     x2="381.06586"
     y2="285.71072" />
  <line
     class="arc1"
     id="link54_@1_55"
     x1="298.79944"
     y1="559.14331"
     x2="300.47455"
     y2="559.8302" />
  <polygon
     points="818.292,597.48206 741.1559,607.8343 733.2747,607.9803 746.99097,612.4786 760.6843,603.00494 874.76434,587.6945 869.34534,596.0576 816.61676,596.79517 "
     id="face_12_49_37_36_78_5_6_11"
     style="fill:#c0c0c0;stroke:none"
     opacity="1"
     transform="translate(-514.4671,-36.278076)" />
  <line
     class="arc1"
     id="link11_@1_6"
     x1="354.87823"
     y1="559.77954"
     x2="360.29724"
     y2="551.41644" />
  <line
     class="arc0"
     id="link11_@0_12"
     x1="354.87823"
     y1="559.77954"
     x2="302.14966"
     y2="560.51709" />
  <polygon
     points="895.53296,321.9888 877.2263,78.31836 877.3913,70.05261 761.2428,85.64075 748.6661,95.572205 746.28644,342.01886 746.28644,342.01886 748.6661,584.7877 761.2428,593.77466 877.3913,578.18665 877.2263,567.53394 895.53296,321.9888 "
     id="face_10_50_51_52_94_93_92_45_44_43_8_9"
     style="fill:#c0c0c0;stroke:none"
     opacity="1"
     transform="translate(-514.4671,-36.278076)" />
  <line
     class="arc1"
     id="link9_@1_8"
     x1="362.75922"
     y1="531.25586"
     x2="362.92419"
     y2="541.90857" />
  <line
     class="arc0"
     id="link9_@0_10"
     x1="362.75922"
     y1="531.25586"
     x2="381.06586"
     y2="285.71072" />
  <line
     class="arc2"
     id="link55_@2_12"
     x1="300.47455"
     y1="559.8302"
     x2="302.14966"
     y2="560.51709" />
  <line
     class="arc1"
     id="link12_@1_49"
     x1="302.14966"
     y1="560.51709"
     x2="303.82489"
     y2="561.20398" />
  <line
     class="arc1"
     id="link10_@1_50"
     x1="381.06586"
     y1="285.71072"
     x2="381.06586"
     y2="285.71072" />
  <line
     class="arc2"
     id="link10_@2_15"
     x1="381.06586"
     y1="285.71072"
     x2="381.06586"
     y2="285.71072" />
  <line
     class="arc1"
     id="link15_@1_56"
     x1="381.06586"
     y1="285.71072"
     x2="381.06586"
     y2="285.71072" />
  <line
     class="arc2"
     id="link50_@2_56"
     x1="381.06586"
     y1="285.71072"
     x2="381.06586"
     y2="285.71072" />
  <line
     class="arc0"
     id="link50_@0_51"
     x1="381.06586"
     y1="285.71072"
     x2="362.75922"
     y2="42.040283" />
  <line
     class="arc0"
     id="link56_@0_57"
     x1="381.06586"
     y1="285.71072"
     x2="359.96735"
     y2="40.895447" />
  <line
     class="arc2"
     id="link6_@2_8"
     x1="360.29724"
     y1="551.41644"
     x2="362.92419"
     y2="541.90857" />
  <line
     class="arc0"
     id="link6_@0_5"
     x1="360.29724"
     y1="551.41644"
     x2="246.21722"
     y2="566.72687" />
  <line
     class="arc0"
     id="link8_@0_43"
     x1="362.92419"
     y1="541.90857"
     x2="246.7757"
     y2="557.49658" />
  <line
     class="arc0"
     id="link49_@0_37"
     x1="303.82489"
     y1="561.20398"
     x2="226.68878"
     y2="571.55621" />
  <line
     class="arc1"
     id="link58_@1_57"
     x1="354.5484"
     y1="30.340149"
     x2="359.96735"
     y2="40.895447" />
  <line
     class="arc2"
     id="link58_@2_59"
     x1="354.5484"
     y1="30.340149"
     x2="351.92139"
     y2="20.929626" />
  <line
     class="arc1"
     id="link59_@1_41"
     x1="351.92139"
     y1="20.929626"
     x2="352.08636"
     y2="12.663818" />
  <line
     class="arc2"
     id="link57_@2_51"
     x1="359.96735"
     y1="40.895447"
     x2="362.75922"
     y2="42.040283" />
  <line
     class="arc2"
     id="link41_@2_84"
     x1="352.08636"
     y1="12.663818"
     x2="354.87823"
     y2="13.808655" />
  <line
     class="arc0"
     id="link41_@0_42"
     x1="352.08636"
     y1="12.663818"
     x2="300.47455"
     y2="13.859314" />
  <line
     class="arc1"
     id="link26_@1_66"
     x1="79.240906"
     y1="563.21075"
     x2="80.916077"
     y2="563.89764" />
  <line
     class="arc1"
     id="link85_@1_42"
     x1="298.79944"
     y1="13.172424"
     x2="300.47455"
     y2="13.859314" />
  <line
     class="arc1"
     id="link2_@1_67"
     x1="22.768616"
     y1="554.07977"
     x2="28.187561"
     y2="564.63513" />
  <line
     class="arc2"
     id="link2_@2_28"
     x1="22.768616"
     y1="554.07977"
     x2="20.141602"
     y2="544.66919" />
  <line
     class="arc1"
     id="link51_@1_52"
     x1="362.75922"
     y1="42.040283"
     x2="362.92419"
     y2="33.774536" />
  <line
     class="arc1"
     id="link28_@1_29"
     x1="20.141602"
     y1="544.66919"
     x2="20.30658"
     y2="536.40344" />
  <line
     class="arc2"
     id="link66_@2_31"
     x1="80.916077"
     y1="563.89764"
     x2="82.591309"
     y2="564.58447" />
  <line
     class="arc0"
     id="link66_@0_67"
     x1="80.916077"
     y1="563.89764"
     x2="28.187561"
     y2="564.63513" />
  <polygon
     points="818.292,51.51111 741.1559,61.863403 733.2747,62.0094 746.99097,66.50769 760.6843,75.952576 874.76434,60.64215 869.34534,50.08673 816.61676,50.82422 "
     id="face_91_90_96_47_46_95_53_84"
     style="fill:#c0c0c0;stroke:none"
     opacity="1"
     transform="translate(-514.4671,-36.278076)" />
  <line
     class="arc1"
     id="link84_@1_53"
     x1="354.87823"
     y1="13.808655"
     x2="360.29724"
     y2="24.364075" />
  <line
     class="arc0"
     id="link84_@0_91"
     x1="354.87823"
     y1="13.808655"
     x2="302.14966"
     y2="14.546143" />
  <line
     class="arc2"
     id="link42_@2_91"
     x1="300.47455"
     y1="13.859314"
     x2="302.14966"
     y2="14.546143" />
  <polygon
     points="545.6115,593.79224 721.27924,603.735 733.85583,612.7219 725.3939,608.12634 717.51276,608.27234 598.7335,601.54944 597.0584,600.86255 545.4466,602.05804 "
     id="face_27_3_4_73_72_79_32_31"
     style="fill:#c0c0c0;stroke:none"
     opacity="1"
     transform="translate(-514.4671,-36.278076)" />
  <line
     class="arc1"
     id="link31_@1_32"
     x1="82.591309"
     y1="564.58447"
     x2="84.266418"
     y2="565.27136" />
  <line
     class="arc0"
     id="link31_@0_27"
     x1="82.591309"
     y1="564.58447"
     x2="30.979492"
     y2="565.77997" />
  <line
     class="arc2"
     id="link67_@2_27"
     x1="28.187561"
     y1="564.63513"
     x2="30.979492"
     y2="565.77997" />
  <line
     class="arc1"
     id="link91_@1_90"
     x1="302.14966"
     y1="14.546143"
     x2="303.82489"
     y2="15.233032" />
  <line
     class="arc2"
     id="link52_@2_53"
     x1="362.92419"
     y1="33.774536"
     x2="360.29724"
     y2="24.364075" />
  <line
     class="arc0"
     id="link52_@0_94"
     x1="362.92419"
     y1="33.774536"
     x2="246.7757"
     y2="49.362671" />
  <line
     class="arc0"
     id="link53_@0_95"
     x1="360.29724"
     y1="24.364075"
     x2="246.21722"
     y2="39.6745" />
  <line
     class="arc2"
     id="link29_@2_34"
     x1="20.30658"
     y1="536.40344"
     x2="23.098511"
     y2="537.54822" />
  <line
     class="arc0"
     id="link29_@0_30"
     x1="20.30658"
     y1="536.40344"
     x2="2"
     y2="292.73309" />
  <line
     class="arc0"
     id="link32_@0_79"
     x1="84.266418"
     y1="565.27136"
     x2="203.04565"
     y2="571.99426" />
  <line
     class="arc0"
     id="link90_@0_96"
     x1="303.82489"
     y1="15.233032"
     x2="226.68878"
     y2="25.585327" />
  <line
     class="arc1"
     id="link27_@1_3"
     x1="30.979492"
     y1="565.77997"
     x2="31.144409"
     y2="557.51416" />
  <polygon
     points="516.4671,329.01117 537.5656,84.61078 542.9845,76.24768 721.83765,86.37067 735.5311,95.81549 746.28644,342.01886 746.28644,342.01886 735.5311,585.03107 721.83765,594.5047 542.9845,584.38165 537.5656,573.8263 516.4671,329.01117 "
     id="face_35_80_81_82_88_87_86_40_39_38_33_34"
     style="fill:#c0c0c0;stroke:none"
     opacity="1"
     transform="translate(-514.4671,-36.278076)" />
  <line
     class="arc1"
     id="link34_@1_33"
     x1="23.098511"
     y1="537.54822"
     x2="28.517395"
     y2="548.10358" />
  <line
     class="arc0"
     id="link34_@0_35"
     x1="23.098511"
     y1="537.54822"
     x2="2"
     y2="292.73309" />
  <line
     class="arc2"
     id="link3_@2_33"
     x1="31.144409"
     y1="557.51416"
     x2="28.517395"
     y2="548.10358" />
  <line
     class="arc0"
     id="link3_@0_4"
     x1="31.144409"
     y1="557.51416"
     x2="206.81213"
     y2="567.45691" />
  <line
     class="arc0"
     id="link33_@0_38"
     x1="28.517395"
     y1="548.10358"
     x2="207.37054"
     y2="558.22662" />
  <line
     class="arc1"
     id="link105_@1_104"
     x1="79.240906"
     y1="17.239929"
     x2="80.916077"
     y2="17.926697" />
  <line
     class="arc1"
     id="link76_@1_75"
     x1="20.141602"
     y1="36.535217"
     x2="20.30658"
     y2="47.187866" />
  <line
     class="arc2"
     id="link76_@2_77"
     x1="20.141602"
     y1="36.535217"
     x2="22.768616"
     y2="27.027344" />
  <line
     class="arc1"
     id="link77_@1_103"
     x1="22.768616"
     y1="27.027344"
     x2="28.187561"
     y2="18.664246" />
  <line
     class="arc1"
     id="link30_@1_74"
     x1="2"
     y1="292.73309"
     x2="2"
     y2="292.73309" />
  <line
     class="arc2"
     id="link30_@2_35"
     x1="2"
     y1="292.73309"
     x2="2"
     y2="292.73309" />
  <line
     class="arc1"
     id="link35_@1_80"
     x1="2"
     y1="292.73309"
     x2="2"
     y2="292.73309" />
  <line
     class="arc2"
     id="link74_@2_80"
     x1="2"
     y1="292.73309"
     x2="2"
     y2="292.73309" />
  <line
     class="arc0"
     id="link74_@0_75"
     x1="2"
     y1="292.73309"
     x2="20.30658"
     y2="47.187866" />
  <line
     class="arc0"
     id="link80_@0_81"
     x1="2"
     y1="292.73309"
     x2="23.098511"
     y2="48.332703" />
  <line
     class="arc2"
     id="link104_@2_101"
     x1="80.916077"
     y1="17.926697"
     x2="82.591309"
     y2="18.613586" />
  <line
     class="arc0"
     id="link104_@0_103"
     x1="80.916077"
     y1="17.926697"
     x2="28.187561"
     y2="18.664246" />
  <line
     class="arc2"
     id="link75_@2_81"
     x1="20.30658"
     y1="47.187866"
     x2="23.098511"
     y2="48.332703" />
  <polygon
     points="545.6115,66.73981 721.27924,76.68262 733.85583,66.75098 725.3939,62.155457 717.51276,62.30139 598.7335,55.578613 597.0584,54.891663 545.4466,56.08716 "
     id="face_100_83_89_97_98_99_102_101"
     style="fill:#c0c0c0;stroke:none"
     opacity="1"
     transform="translate(-514.4671,-36.278076)" />
  <line
     class="arc1"
     id="link101_@1_102"
     x1="82.591309"
     y1="18.613586"
     x2="84.266418"
     y2="19.300537" />
  <line
     class="arc0"
     id="link101_@0_100"
     x1="82.591309"
     y1="18.613586"
     x2="30.979492"
     y2="19.809082" />
  <line
     class="arc2"
     id="link103_@2_100"
     x1="28.187561"
     y1="18.664246"
     x2="30.979492"
     y2="19.809082" />
  <line
     class="arc0"
     id="link102_@0_99"
     x1="84.266418"
     y1="19.300537"
     x2="203.04565"
     y2="26.023315" />
  <line
     class="arc1"
     id="link81_@1_82"
     x1="23.098511"
     y1="48.332703"
     x2="28.517395"
     y2="39.969604" />
  <line
     class="arc1"
     id="link100_@1_83"
     x1="30.979492"
     y1="19.809082"
     x2="31.144409"
     y2="30.461731" />
  <line
     class="arc2"
     id="link82_@2_83"
     x1="28.517395"
     y1="39.969604"
     x2="31.144409"
     y2="30.461731" />
  <line
     class="arc0"
     id="link82_@0_88"
     x1="28.517395"
     y1="39.969604"
     x2="207.37054"
     y2="50.09259" />
  <line
     class="arc0"
     id="link83_@0_89"
     x1="31.144409"
     y1="30.461731"
     x2="206.81213"
     y2="40.404541" />
  <line
     class="arc1"
     id="link37_@1_36"
     x1="226.68878"
     y1="571.55621"
     x2="218.80762"
     y2="571.70221" />
  <line
     class="arc2"
     id="link36_@2_72"
     x1="218.80762"
     y1="571.70221"
     x2="210.92682"
     y2="571.84827" />
  <line
     class="arc0"
     id="link36_@0_78"
     x1="218.80762"
     y1="571.70221"
     x2="232.52386"
     y2="576.2005" />
  <line
     class="arc1"
     id="link72_@1_79"
     x1="210.92682"
     y1="571.84827"
     x2="203.04565"
     y2="571.99426" />
  <line
     class="arc0"
     id="link72_@0_73"
     x1="210.92682"
     y1="571.84827"
     x2="219.38873"
     y2="576.44385" />
  <line
     class="arc1"
     id="link96_@1_47"
     x1="226.68878"
     y1="25.585327"
     x2="218.80762"
     y2="25.731323" />
  <line
     class="arc2"
     id="link47_@2_98"
     x1="218.80762"
     y1="25.731323"
     x2="210.92682"
     y2="25.87738" />
  <line
     class="arc0"
     id="link47_@0_46"
     x1="218.80762"
     y1="25.731323"
     x2="232.52386"
     y2="30.229614" />
  <line
     class="arc1"
     id="link98_@1_99"
     x1="210.92682"
     y1="25.87738"
     x2="203.04565"
     y2="26.023315" />
  <line
     class="arc0"
     id="link98_@0_97"
     x1="210.92682"
     y1="25.87738"
     x2="219.38873"
     y2="30.4729" />
  <line
     class="arc1"
     id="link78_@1_5"
     x1="232.52386"
     y1="576.2005"
     x2="246.21722"
     y2="566.72687" />
  <line
     class="arc2"
     id="link78_@2_73"
     x1="232.52386"
     y1="576.2005"
     x2="219.38873"
     y2="576.44385" />
  <line
     class="arc2"
     id="link5_@2_43"
     x1="246.21722"
     y1="566.72687"
     x2="246.7757"
     y2="557.49658" />
  <line
     class="arc1"
     id="link73_@1_4"
     x1="219.38873"
     y1="576.44385"
     x2="206.81213"
     y2="567.45691" />
  <line
     class="arc1"
     id="link43_@1_44"
     x1="246.7757"
     y1="557.49658"
     x2="234.19897"
     y2="548.50964" />
  <line
     class="arc2"
     id="link4_@2_38"
     x1="206.81213"
     y1="567.45691"
     x2="207.37054"
     y2="558.22662" />
  <line
     class="arc2"
     id="link44_@2_39"
     x1="234.19897"
     y1="548.50964"
     x2="221.06403"
     y2="548.75299" />
  <line
     class="arc0"
     id="link44_@0_45"
     x1="234.19897"
     y1="548.50964"
     x2="231.81934"
     y2="305.74078" />
  <line
     class="arc1"
     id="link38_@1_39"
     x1="207.37054"
     y1="558.22662"
     x2="221.06403"
     y2="548.75299" />
  <line
     class="arc0"
     id="link39_@0_40"
     x1="221.06403"
     y1="548.75299"
     x2="231.81934"
     y2="305.74078" />
  <line
     class="arc1"
     id="link95_@1_46"
     x1="246.21722"
     y1="39.6745"
     x2="232.52386"
     y2="30.229614" />
  <line
     class="arc2"
     id="link95_@2_94"
     x1="246.21722"
     y1="39.6745"
     x2="246.7757"
     y2="49.362671" />
  <line
     class="arc2"
     id="link46_@2_97"
     x1="232.52386"
     y1="30.229614"
     x2="219.38873"
     y2="30.4729" />
  <line
     class="arc1"
     id="link94_@1_93"
     x1="246.7757"
     y1="49.362671"
     x2="234.19897"
     y2="59.294128" />
  <line
     class="arc1"
     id="link97_@1_89"
     x1="219.38873"
     y1="30.4729"
     x2="206.81213"
     y2="40.404541" />
  <line
     class="arc1"
     id="link40_@1_86"
     x1="231.81934"
     y1="305.74078"
     x2="231.81934"
     y2="305.74078" />
  <line
     class="arc2"
     id="link40_@2_45"
     x1="231.81934"
     y1="305.74078"
     x2="231.81934"
     y2="305.74078" />
  <line
     class="arc1"
     id="link45_@1_92"
     x1="231.81934"
     y1="305.74078"
     x2="231.81934"
     y2="305.74078" />
  <line
     class="arc2"
     id="link86_@2_92"
     x1="231.81934"
     y1="305.74078"
     x2="231.81934"
     y2="305.74078" />
  <line
     class="arc0"
     id="link86_@0_87"
     x1="231.81934"
     y1="305.74078"
     x2="221.06403"
     y2="59.537415" />
  <line
     class="arc0"
     id="link92_@0_93"
     x1="231.81934"
     y1="305.74078"
     x2="234.19897"
     y2="59.294128" />
  <line
     class="arc2"
     id="link93_@2_87"
     x1="234.19897"
     y1="59.294128"
     x2="221.06403"
     y2="59.537415" />
  <line
     class="arc1"
     id="link87_@1_88"
     x1="221.06403"
     y1="59.537415"
     x2="207.37054"
     y2="50.09259" />
  <line
     class="arc2"
     id="link89_@2_88"
     x1="206.81213"
     y1="40.404541"
     x2="207.37054"
     y2="50.09259" />
</svg>
