<?xml version="1.0" encoding="UTF-8" standalone="no"?>
<!-- Created with Jerboa -->

<svg
   width="383.06586"
   height="568.52673"
   version="1.1"
   id="svg1"
   sodipodi:docname="smooth-2-rebuild-5.svg"
   xmlns:inkscape="http://www.inkscape.org/namespaces/inkscape"
   xmlns:sodipodi="http://sodipodi.sourceforge.net/DTD/sodipodi-0.dtd"
   xmlns="http://www.w3.org/2000/svg"
   xmlns:svg="http://www.w3.org/2000/svg">
  <defs
     id="defs1" />
  <sodipodi:namedview
     id="namedview1"
     pagecolor="#ffffff"
     bordercolor="#000000"
     borderopacity="0.25"
     inkscape:showpageshadow="2"
     inkscape:pageopacity="0.0"
     inkscape:pagecheckerboard="0"
     inkscape:deskcolor="#d1d1d1" />
  <style
     id="style">
		.arc0 {
			fill:none;
			fill-rule:evenodd;
			stroke:black;
			stroke-width:4;
			stroke-linecap:round;
			stroke-linejoin:round;
			stroke-opacity:1;
		}
		.arc1 {
			fill:none;
			fill-rule:evenodd;
			stroke:red;
			stroke-width:4;
			stroke-linecap:round;
			stroke-linejoin:round;
			stroke-opacity:1;
		}
		.arc2 {
			fill:none;
			fill-rule:evenodd;
			stroke:blue;
			stroke-width:4;
			stroke-linecap:round;
			stroke-linejoin:round;
			stroke-opacity:1;
		}
		.arc3 {
			fill:none;
			fill-rule:evenodd;
			stroke:green;
			stroke-width:4;
			stroke-linecap:round;
			stroke-linejoin:round;
			stroke-opacity:1;
		}
		.topological-dart {
			fill:#000000;
			stroke:#000000;
			stroke-width:0;
			stroke-linecap:round;
			stroke-linejoin:round;
			stroke-dasharray:none;
			paint-order:markers fill stroke;
		}
	</style>
  <polygon
     points="874.43445,566.38916 895.53296,321.9888 895.53296,321.9888 874.43445,77.17352 866.4709,67.26367 684.43243,56.960327 676.46893,65.96881 665.71356,308.9811 665.71356,308.9811 676.46893,555.1844 690.16235,564.6292 869.0155,574.75226 "
     id="face_13_14_15_56_57_58_64_63_62_20_19_18"
     style="fill:#c0c0c0;stroke:none"
     opacity="1"
     transform="translate(-514.4671,-46.19519)" />
  <line
     class="arc1"
     id="link18_@1_19"
     x1="175.69525"
     y1="518.43402"
     x2="162.00183"
     y2="508.9892" />
  <line
     class="arc2"
     id="link18_@2_0"
     x1="175.69525"
     y1="518.43402"
     x2="176.25366"
     y2="528.12225" />
  <line
     class="arc0"
     id="link18_@0_13"
     x1="175.69525"
     y1="518.43402"
     x2="354.5484"
     y2="528.55707" />
  <line
     class="arc2"
     id="link19_@2_24"
     x1="162.00183"
     y1="508.9892"
     x2="148.86682"
     y2="509.23254" />
  <line
     class="arc0"
     id="link19_@0_20"
     x1="162.00183"
     y1="508.9892"
     x2="151.24646"
     y2="262.78592" />
  <polygon
     points="866.55347,594.91284 814.94165,596.1083 813.26654,595.4214 694.48724,588.69855 686.6062,588.84454 678.14417,584.2489 690.72076,574.31744 866.3885,584.26013 "
     id="face_7_48_55_54_21_17_16_0"
     style="fill:#c0c0c0;stroke:none"
     opacity="1"
     transform="translate(-514.4671,-46.19519)" />
  <line
     class="arc1"
     id="link0_@1_16"
     x1="176.25366"
     y1="528.12225"
     x2="163.67706"
     y2="538.05371" />
  <line
     class="arc0"
     id="link0_@0_7"
     x1="176.25366"
     y1="528.12225"
     x2="351.92139"
     y2="538.06494" />
  <polygon
     points="665.71356,308.9811 663.3339,66.2121 658.16235,57.44696 539.9452,73.31268 534.7737,83.46594 516.4671,329.01117 516.4671,329.01117 534.7737,572.6815 534.6087,580.94727 650.75726,565.35925 663.3339,555.42773 665.71356,308.9811 "
     id="face_25_68_69_70_76_75_74_30_29_28_23_24"
     style="fill:#c0c0c0;stroke:none"
     opacity="1"
     transform="translate(-514.4671,-46.19519)" />
  <line
     class="arc1"
     id="link24_@1_23"
     x1="148.86682"
     y1="509.23254"
     x2="136.29016"
     y2="519.16406" />
  <line
     class="arc0"
     id="link24_@0_25"
     x1="148.86682"
     y1="509.23254"
     x2="151.24646"
     y2="262.78592" />
  <line
     class="arc1"
     id="link20_@1_62"
     x1="151.24646"
     y1="262.78592"
     x2="151.24646"
     y2="262.78592" />
  <line
     class="arc2"
     id="link20_@2_25"
     x1="151.24646"
     y1="262.78592"
     x2="151.24646"
     y2="262.78592" />
  <line
     class="arc1"
     id="link25_@1_68"
     x1="151.24646"
     y1="262.78592"
     x2="151.24646"
     y2="262.78592" />
  <line
     class="arc2"
     id="link62_@2_68"
     x1="151.24646"
     y1="262.78592"
     x2="151.24646"
     y2="262.78592" />
  <line
     class="arc0"
     id="link62_@0_63"
     x1="151.24646"
     y1="262.78592"
     x2="162.00183"
     y2="19.773621" />
  <line
     class="arc0"
     id="link68_@0_69"
     x1="151.24646"
     y1="262.78592"
     x2="148.86682"
     y2="20.016907" />
  <line
     class="arc2"
     id="link16_@2_22"
     x1="163.67706"
     y1="538.05371"
     x2="150.54199"
     y2="538.29712" />
  <line
     class="arc0"
     id="link16_@0_17"
     x1="163.67706"
     y1="538.05371"
     x2="172.1391"
     y2="542.64935" />
  <line
     class="arc2"
     id="link23_@2_1"
     x1="136.29016"
     y1="519.16406"
     x2="136.84857"
     y2="528.85223" />
  <line
     class="arc0"
     id="link23_@0_28"
     x1="136.29016"
     y1="519.16406"
     x2="20.141602"
     y2="534.75208" />
  <polygon
     points="670.8442,589.13654 593.708,599.48883 595.3832,600.1757 542.65466,600.9132 537.2357,590.35785 651.3157,575.0474 665.0091,584.4923 678.7252,588.99054 "
     id="face_61_60_26_66_67_2_1_22"
     style="fill:#c0c0c0;stroke:none"
     opacity="1"
     transform="translate(-514.4671,-46.19519)" />
  <line
     class="arc1"
     id="link22_@1_1"
     x1="150.54199"
     y1="538.29712"
     x2="136.84857"
     y2="528.85223" />
  <line
     class="arc0"
     id="link22_@0_61"
     x1="150.54199"
     y1="538.29712"
     x2="164.25812"
     y2="542.79535" />
  <line
     class="arc0"
     id="link1_@0_2"
     x1="136.84857"
     y1="528.85223"
     x2="22.768616"
     y2="544.16266" />
  <line
     class="arc1"
     id="link63_@1_64"
     x1="162.00183"
     y1="19.773621"
     x2="169.96533"
     y2="10.765137" />
  <line
     class="arc2"
     id="link63_@2_69"
     x1="162.00183"
     y1="19.773621"
     x2="148.86682"
     y2="20.016907" />
  <line
     class="arc1"
     id="link69_@1_70"
     x1="148.86682"
     y1="20.016907"
     x2="143.69525"
     y2="11.25177" />
  <line
     class="arc2"
     id="link64_@2_65"
     x1="169.96533"
     y1="10.765137"
     x2="164.79376"
     y2="2" />
  <line
     class="arc0"
     id="link64_@0_58"
     x1="169.96533"
     y1="10.765137"
     x2="352.00378"
     y2="21.068481" />
  <line
     class="arc2"
     id="link70_@2_71"
     x1="143.69525"
     y1="11.25177"
     x2="151.65875"
     y2="2.2433472" />
  <line
     class="arc0"
     id="link70_@0_76"
     x1="143.69525"
     y1="11.25177"
     x2="25.478088"
     y2="27.117493" />
  <line
     class="arc1"
     id="link21_@1_17"
     x1="180.02014"
     y1="542.50336"
     x2="172.1391"
     y2="542.64935" />
  <line
     class="arc0"
     id="link21_@0_54"
     x1="180.02014"
     y1="542.50336"
     x2="298.79944"
     y2="549.2262" />
  <polygon
     points="864.0913,59.64331 745.87415,75.50897 732.73914,75.75232 550.7006,65.449036 547.9087,64.30426 666.12585,48.438538 679.26086,48.19519 861.2994,58.498535 "
     id="face_59_53_95_89_83_77_71_65"
     style="fill:#c0c0c0;stroke:none"
     opacity="1"
     transform="translate(-514.4671,-46.19519)" />
  <line
     class="arc1"
     id="link65_@1_71"
     x1="164.79376"
     y1="2"
     x2="151.65875"
     y2="2.2433472" />
  <line
     class="arc0"
     id="link65_@0_59"
     x1="164.79376"
     y1="2"
     x2="346.83228"
     y2="12.303345" />
  <line
     class="arc2"
     id="link17_@2_61"
     x1="172.1391"
     y1="542.64935"
     x2="164.25812"
     y2="542.79535" />
  <line
     class="arc1"
     id="link61_@1_60"
     x1="164.25812"
     y1="542.79535"
     x2="156.37708"
     y2="542.94135" />
  <line
     class="arc0"
     id="link71_@0_77"
     x1="151.65875"
     y1="2.2433472"
     x2="33.441589"
     y2="18.10907" />
  <line
     class="arc0"
     id="link60_@0_26"
     x1="156.37708"
     y1="542.94135"
     x2="79.240906"
     y2="553.29364" />
  <line
     class="arc1"
     id="link7_@1_48"
     x1="351.92139"
     y1="538.06494"
     x2="352.08636"
     y2="548.71765" />
  <line
     class="arc2"
     id="link7_@2_13"
     x1="351.92139"
     y1="538.06494"
     x2="354.5484"
     y2="528.55707" />
  <line
     class="arc1"
     id="link13_@1_14"
     x1="354.5484"
     y1="528.55707"
     x2="359.96735"
     y2="520.19397" />
  <line
     class="arc2"
     id="link48_@2_11"
     x1="352.08636"
     y1="548.71765"
     x2="354.87823"
     y2="549.86243" />
  <line
     class="arc0"
     id="link48_@0_55"
     x1="352.08636"
     y1="548.71765"
     x2="300.47455"
     y2="549.91309" />
  <line
     class="arc2"
     id="link14_@2_9"
     x1="359.96735"
     y1="520.19397"
     x2="362.75922"
     y2="521.33875" />
  <line
     class="arc0"
     id="link14_@0_15"
     x1="359.96735"
     y1="520.19397"
     x2="381.06586"
     y2="275.79361" />
  <line
     class="arc1"
     id="link54_@1_55"
     x1="298.79944"
     y1="549.2262"
     x2="300.47455"
     y2="549.91309" />
  <polygon
     points="818.292,597.48206 741.1559,607.8343 733.2747,607.9803 746.99097,612.4786 760.6843,603.00494 874.76434,587.6945 869.34534,596.0576 816.61676,596.79517 "
     id="face_12_49_37_36_78_5_6_11"
     style="fill:#c0c0c0;stroke:none"
     opacity="1"
     transform="translate(-514.4671,-46.19519)" />
  <line
     class="arc1"
     id="link11_@1_6"
     x1="354.87823"
     y1="549.86243"
     x2="360.29724"
     y2="541.49933" />
  <line
     class="arc0"
     id="link11_@0_12"
     x1="354.87823"
     y1="549.86243"
     x2="302.14966"
     y2="550.59998" />
  <polygon
     points="895.53296,321.9888 877.2263,78.31836 872.0549,69.55322 753.83765,85.418945 748.6661,95.572205 746.28644,342.01886 746.28644,342.01886 748.6661,584.7877 761.2428,593.77466 877.3913,578.18665 877.2263,567.53394 895.53296,321.9888 "
     id="face_10_50_51_52_94_93_92_45_44_43_8_9"
     style="fill:#c0c0c0;stroke:none"
     opacity="1"
     transform="translate(-514.4671,-46.19519)" />
  <line
     class="arc1"
     id="link9_@1_8"
     x1="362.75922"
     y1="521.33875"
     x2="362.92419"
     y2="531.99146" />
  <line
     class="arc0"
     id="link9_@0_10"
     x1="362.75922"
     y1="521.33875"
     x2="381.06586"
     y2="275.79361" />
  <line
     class="arc2"
     id="link55_@2_12"
     x1="300.47455"
     y1="549.91309"
     x2="302.14966"
     y2="550.59998" />
  <line
     class="arc1"
     id="link12_@1_49"
     x1="302.14966"
     y1="550.59998"
     x2="303.82489"
     y2="551.28687" />
  <line
     class="arc1"
     id="link10_@1_50"
     x1="381.06586"
     y1="275.79361"
     x2="381.06586"
     y2="275.79361" />
  <line
     class="arc2"
     id="link10_@2_15"
     x1="381.06586"
     y1="275.79361"
     x2="381.06586"
     y2="275.79361" />
  <line
     class="arc1"
     id="link15_@1_56"
     x1="381.06586"
     y1="275.79361"
     x2="381.06586"
     y2="275.79361" />
  <line
     class="arc2"
     id="link50_@2_56"
     x1="381.06586"
     y1="275.79361"
     x2="381.06586"
     y2="275.79361" />
  <line
     class="arc0"
     id="link50_@0_51"
     x1="381.06586"
     y1="275.79361"
     x2="362.75922"
     y2="32.123169" />
  <line
     class="arc0"
     id="link56_@0_57"
     x1="381.06586"
     y1="275.79361"
     x2="359.96735"
     y2="30.978333" />
  <line
     class="arc2"
     id="link6_@2_8"
     x1="360.29724"
     y1="541.49933"
     x2="362.92419"
     y2="531.99146" />
  <line
     class="arc0"
     id="link6_@0_5"
     x1="360.29724"
     y1="541.49933"
     x2="246.21722"
     y2="556.80975" />
  <line
     class="arc0"
     id="link8_@0_43"
     x1="362.92419"
     y1="531.99146"
     x2="246.7757"
     y2="547.57947" />
  <line
     class="arc0"
     id="link49_@0_37"
     x1="303.82489"
     y1="551.28687"
     x2="226.68878"
     y2="561.6391" />
  <line
     class="arc1"
     id="link58_@1_57"
     x1="352.00378"
     y1="21.068481"
     x2="359.96735"
     y2="30.978333" />
  <line
     class="arc2"
     id="link58_@2_59"
     x1="352.00378"
     y1="21.068481"
     x2="346.83228"
     y2="12.303345" />
  <line
     class="arc2"
     id="link57_@2_51"
     x1="359.96735"
     y1="30.978333"
     x2="362.75922"
     y2="32.123169" />
  <line
     class="arc1"
     id="link59_@1_53"
     x1="346.83228"
     y1="12.303345"
     x2="349.62421"
     y2="13.44812" />
  <line
     class="arc1"
     id="link26_@1_66"
     x1="79.240906"
     y1="553.29364"
     x2="80.916077"
     y2="553.98053" />
  <line
     class="arc1"
     id="link2_@1_67"
     x1="22.768616"
     y1="544.16266"
     x2="28.187561"
     y2="554.71802" />
  <line
     class="arc2"
     id="link2_@2_28"
     x1="22.768616"
     y1="544.16266"
     x2="20.141602"
     y2="534.75208" />
  <line
     class="arc1"
     id="link51_@1_52"
     x1="362.75922"
     y1="32.123169"
     x2="357.58777"
     y2="23.358032" />
  <line
     class="arc1"
     id="link28_@1_29"
     x1="20.141602"
     y1="534.75208"
     x2="20.30658"
     y2="526.48633" />
  <line
     class="arc2"
     id="link66_@2_31"
     x1="80.916077"
     y1="553.98053"
     x2="82.591309"
     y2="554.66736" />
  <line
     class="arc0"
     id="link66_@0_67"
     x1="80.916077"
     y1="553.98053"
     x2="28.187561"
     y2="554.71802" />
  <line
     class="arc2"
     id="link53_@2_52"
     x1="349.62421"
     y1="13.44812"
     x2="357.58777"
     y2="23.358032" />
  <line
     class="arc0"
     id="link53_@0_95"
     x1="349.62421"
     y1="13.44812"
     x2="231.40704"
     y2="29.313782" />
  <line
     class="arc0"
     id="link52_@0_94"
     x1="357.58777"
     y1="23.358032"
     x2="239.37054"
     y2="39.223755" />
  <polygon
     points="545.6115,593.79224 721.27924,603.735 733.85583,612.7219 725.3939,608.12634 717.51276,608.27234 598.7335,601.54944 597.0584,600.86255 545.4466,602.05804 "
     id="face_27_3_4_73_72_79_32_31"
     style="fill:#c0c0c0;stroke:none"
     opacity="1"
     transform="translate(-514.4671,-46.19519)" />
  <line
     class="arc1"
     id="link31_@1_32"
     x1="82.591309"
     y1="554.66736"
     x2="84.266418"
     y2="555.35425" />
  <line
     class="arc0"
     id="link31_@0_27"
     x1="82.591309"
     y1="554.66736"
     x2="30.979492"
     y2="555.86285" />
  <line
     class="arc2"
     id="link67_@2_27"
     x1="28.187561"
     y1="554.71802"
     x2="30.979492"
     y2="555.86285" />
  <line
     class="arc2"
     id="link29_@2_34"
     x1="20.30658"
     y1="526.48633"
     x2="23.098511"
     y2="527.6311" />
  <line
     class="arc0"
     id="link29_@0_30"
     x1="20.30658"
     y1="526.48633"
     x2="2"
     y2="282.81598" />
  <line
     class="arc0"
     id="link32_@0_79"
     x1="84.266418"
     y1="555.35425"
     x2="203.04565"
     y2="562.07715" />
  <line
     class="arc1"
     id="link27_@1_3"
     x1="30.979492"
     y1="555.86285"
     x2="31.144409"
     y2="547.59705" />
  <polygon
     points="516.4671,329.01117 537.5656,84.61078 545.5291,75.602234 727.56757,85.90558 735.5311,95.81549 746.28644,342.01886 746.28644,342.01886 735.5311,585.03107 721.83765,594.5047 542.9845,584.38165 537.5656,573.8263 516.4671,329.01117 "
     id="face_35_80_81_82_88_87_86_40_39_38_33_34"
     style="fill:#c0c0c0;stroke:none"
     opacity="1"
     transform="translate(-514.4671,-46.19519)" />
  <line
     class="arc1"
     id="link34_@1_33"
     x1="23.098511"
     y1="527.6311"
     x2="28.517395"
     y2="538.18646" />
  <line
     class="arc0"
     id="link34_@0_35"
     x1="23.098511"
     y1="527.6311"
     x2="2"
     y2="282.81598" />
  <line
     class="arc2"
     id="link3_@2_33"
     x1="31.144409"
     y1="547.59705"
     x2="28.517395"
     y2="538.18646" />
  <line
     class="arc0"
     id="link3_@0_4"
     x1="31.144409"
     y1="547.59705"
     x2="206.81213"
     y2="557.53979" />
  <line
     class="arc0"
     id="link33_@0_38"
     x1="28.517395"
     y1="538.18646"
     x2="207.37054"
     y2="548.30951" />
  <line
     class="arc1"
     id="link30_@1_74"
     x1="2"
     y1="282.81598"
     x2="2"
     y2="282.81598" />
  <line
     class="arc2"
     id="link30_@2_35"
     x1="2"
     y1="282.81598"
     x2="2"
     y2="282.81598" />
  <line
     class="arc1"
     id="link35_@1_80"
     x1="2"
     y1="282.81598"
     x2="2"
     y2="282.81598" />
  <line
     class="arc2"
     id="link74_@2_80"
     x1="2"
     y1="282.81598"
     x2="2"
     y2="282.81598" />
  <line
     class="arc0"
     id="link74_@0_75"
     x1="2"
     y1="282.81598"
     x2="20.30658"
     y2="37.270752" />
  <line
     class="arc0"
     id="link80_@0_81"
     x1="2"
     y1="282.81598"
     x2="23.098511"
     y2="38.415588" />
  <line
     class="arc1"
     id="link76_@1_75"
     x1="25.478088"
     y1="27.117493"
     x2="20.30658"
     y2="37.270752" />
  <line
     class="arc2"
     id="link76_@2_77"
     x1="25.478088"
     y1="27.117493"
     x2="33.441589"
     y2="18.10907" />
  <line
     class="arc1"
     id="link77_@1_83"
     x1="33.441589"
     y1="18.10907"
     x2="36.233521"
     y2="19.253845" />
  <line
     class="arc2"
     id="link75_@2_81"
     x1="20.30658"
     y1="37.270752"
     x2="23.098511"
     y2="38.415588" />
  <line
     class="arc2"
     id="link83_@2_82"
     x1="36.233521"
     y1="19.253845"
     x2="31.062012"
     y2="29.407043" />
  <line
     class="arc0"
     id="link83_@0_89"
     x1="36.233521"
     y1="19.253845"
     x2="218.27203"
     y2="29.557129" />
  <line
     class="arc1"
     id="link81_@1_82"
     x1="23.098511"
     y1="38.415588"
     x2="31.062012"
     y2="29.407043" />
  <line
     class="arc0"
     id="link82_@0_88"
     x1="31.062012"
     y1="29.407043"
     x2="213.10046"
     y2="39.710388" />
  <line
     class="arc1"
     id="link37_@1_36"
     x1="226.68878"
     y1="561.6391"
     x2="218.80762"
     y2="561.7851" />
  <line
     class="arc2"
     id="link36_@2_72"
     x1="218.80762"
     y1="561.7851"
     x2="210.92682"
     y2="561.93115" />
  <line
     class="arc0"
     id="link36_@0_78"
     x1="218.80762"
     y1="561.7851"
     x2="232.52386"
     y2="566.28339" />
  <line
     class="arc1"
     id="link72_@1_79"
     x1="210.92682"
     y1="561.93115"
     x2="203.04565"
     y2="562.07715" />
  <line
     class="arc0"
     id="link72_@0_73"
     x1="210.92682"
     y1="561.93115"
     x2="219.38873"
     y2="566.52673" />
  <line
     class="arc1"
     id="link78_@1_5"
     x1="232.52386"
     y1="566.28339"
     x2="246.21722"
     y2="556.80975" />
  <line
     class="arc2"
     id="link78_@2_73"
     x1="232.52386"
     y1="566.28339"
     x2="219.38873"
     y2="566.52673" />
  <line
     class="arc2"
     id="link5_@2_43"
     x1="246.21722"
     y1="556.80975"
     x2="246.7757"
     y2="547.57947" />
  <line
     class="arc1"
     id="link73_@1_4"
     x1="219.38873"
     y1="566.52673"
     x2="206.81213"
     y2="557.53979" />
  <line
     class="arc1"
     id="link43_@1_44"
     x1="246.7757"
     y1="547.57947"
     x2="234.19897"
     y2="538.59253" />
  <line
     class="arc2"
     id="link4_@2_38"
     x1="206.81213"
     y1="557.53979"
     x2="207.37054"
     y2="548.30951" />
  <line
     class="arc2"
     id="link44_@2_39"
     x1="234.19897"
     y1="538.59253"
     x2="221.06403"
     y2="538.83588" />
  <line
     class="arc0"
     id="link44_@0_45"
     x1="234.19897"
     y1="538.59253"
     x2="231.81934"
     y2="295.82367" />
  <line
     class="arc1"
     id="link38_@1_39"
     x1="207.37054"
     y1="548.30951"
     x2="221.06403"
     y2="538.83588" />
  <line
     class="arc0"
     id="link39_@0_40"
     x1="221.06403"
     y1="538.83588"
     x2="231.81934"
     y2="295.82367" />
  <line
     class="arc1"
     id="link95_@1_89"
     x1="231.40704"
     y1="29.313782"
     x2="218.27203"
     y2="29.557129" />
  <line
     class="arc2"
     id="link95_@2_94"
     x1="231.40704"
     y1="29.313782"
     x2="239.37054"
     y2="39.223755" />
  <line
     class="arc2"
     id="link89_@2_88"
     x1="218.27203"
     y1="29.557129"
     x2="213.10046"
     y2="39.710388" />
  <line
     class="arc1"
     id="link94_@1_93"
     x1="239.37054"
     y1="39.223755"
     x2="234.19897"
     y2="49.377014" />
  <line
     class="arc1"
     id="link88_@1_87"
     x1="213.10046"
     y1="39.710388"
     x2="221.06403"
     y2="49.6203" />
  <line
     class="arc1"
     id="link40_@1_86"
     x1="231.81934"
     y1="295.82367"
     x2="231.81934"
     y2="295.82367" />
  <line
     class="arc2"
     id="link40_@2_45"
     x1="231.81934"
     y1="295.82367"
     x2="231.81934"
     y2="295.82367" />
  <line
     class="arc1"
     id="link45_@1_92"
     x1="231.81934"
     y1="295.82367"
     x2="231.81934"
     y2="295.82367" />
  <line
     class="arc2"
     id="link86_@2_92"
     x1="231.81934"
     y1="295.82367"
     x2="231.81934"
     y2="295.82367" />
  <line
     class="arc0"
     id="link86_@0_87"
     x1="231.81934"
     y1="295.82367"
     x2="221.06403"
     y2="49.6203" />
  <line
     class="arc0"
     id="link92_@0_93"
     x1="231.81934"
     y1="295.82367"
     x2="234.19897"
     y2="49.377014" />
  <line
     class="arc2"
     id="link93_@2_87"
     x1="234.19897"
     y1="49.377014"
     x2="221.06403"
     y2="49.6203" />
</svg>
