<?xml version="1.0" encoding="UTF-8" standalone="no"?>
<!-- Created with Jerboa -->

<svg
   width="221.85895"
   height="536.06909"
   version="1.1"
   id="svg1"
   sodipodi:docname="smooth-init-4.svg"
   inkscape:version="1.3.2 (091e20ef0f, 2023-11-25, custom)"
   xmlns:inkscape="http://www.inkscape.org/namespaces/inkscape"
   xmlns:sodipodi="http://sodipodi.sourceforge.net/DTD/sodipodi-0.dtd"
   xmlns="http://www.w3.org/2000/svg"
   xmlns:svg="http://www.w3.org/2000/svg">
  <defs
     id="defs1" />
  <sodipodi:namedview
     id="namedview1"
     pagecolor="#ffffff"
     bordercolor="#000000"
     borderopacity="0.25"
     inkscape:showpageshadow="2"
     inkscape:pageopacity="0.0"
     inkscape:pagecheckerboard="0"
     inkscape:deskcolor="#d1d1d1"
     inkscape:zoom="0.2112462"
     inkscape:cx="111.2446"
     inkscape:cy="281.66187"
     inkscape:window-width="941"
     inkscape:window-height="1034"
     inkscape:window-x="9"
     inkscape:window-y="27"
     inkscape:window-maximized="1"
     inkscape:current-layer="svg1" />
  <style
     id="style">
		.arc0 {
			fill:none;
			fill-rule:evenodd;
			stroke:black;
			stroke-width:4;
			stroke-linecap:round;
			stroke-linejoin:round;
			stroke-opacity:1;
		}
		.arc1 {
			fill:none;
			fill-rule:evenodd;
			stroke:red;
			stroke-width:4;
			stroke-linecap:round;
			stroke-linejoin:round;
			stroke-opacity:1;
		}
		.arc2 {
			fill:none;
			fill-rule:evenodd;
			stroke:blue;
			stroke-width:4;
			stroke-linecap:round;
			stroke-linejoin:round;
			stroke-opacity:1;
		}
		.arc3 {
			fill:none;
			fill-rule:evenodd;
			stroke:green;
			stroke-width:4;
			stroke-linecap:round;
			stroke-linejoin:round;
			stroke-opacity:1;
		}
		.topological-dart {
			fill:#000000;
			stroke:#000000;
			stroke-width:0;
			stroke-linecap:round;
			stroke-linejoin:round;
			stroke-dasharray:none;
			paint-order:markers fill stroke;
		}
	</style>
  <polygon
     points="644.27936,379.45074 760.08716,386.0054 765.1534,392.30988 765.1534,529.8694 760.08716,535.6004 644.27936,529.0457 639.2132,522.7413 639.2132,385.1817 "
     id="face_23_24_18_17_16_15_21_22"
     style="fill:#c0c0c0;stroke:none"
     opacity="1"
     transform="translate(-547.07062,-24.543091)" />
  <line
     class="arc1"
     id="link22_@1_21"
     x1="92.142578"
     y1="498.19818"
     x2="97.20874"
     y2="504.50262" />
  <line
     class="arc2"
     id="link22_@2_28"
     x1="92.142578"
     y1="498.19818"
     x2="83.786438"
     y2="498.35297" />
  <line
     class="arc0"
     id="link22_@0_23"
     x1="92.142578"
     y1="498.19818"
     x2="92.142578"
     y2="360.63861" />
  <polygon
     points="627.5671,379.7603 552.3606,389.85364 549.0706,396.31293 549.0706,533.87244 552.3606,539.4486 627.5671,529.3553 630.85706,522.89606 630.85706,385.3365 "
     id="face_29_30_36_35_34_33_27_28"
     style="fill:#c0c0c0;stroke:none"
     opacity="1"
     transform="translate(-547.07062,-24.543091)" />
  <line
     class="arc1"
     id="link28_@1_27"
     x1="83.786438"
     y1="498.35297"
     x2="80.49646"
     y2="504.81219" />
  <line
     class="arc0"
     id="link28_@0_29"
     x1="83.786438"
     y1="498.35297"
     x2="83.786438"
     y2="360.7934" />
  <line
     class="arc2"
     id="link21_@2_20"
     x1="97.20874"
     y1="504.50262"
     x2="93.918762"
     y2="510.96185" />
  <line
     class="arc0"
     id="link21_@0_15"
     x1="97.20874"
     y1="504.50262"
     x2="213.01654"
     y2="511.05731" />
  <line
     class="arc2"
     id="link27_@2_26"
     x1="80.49646"
     y1="504.81219"
     x2="85.562622"
     y2="511.11664" />
  <line
     class="arc0"
     id="link27_@0_33"
     x1="80.49646"
     y1="504.81219"
     x2="5.289978"
     y2="514.90552" />
  <polygon
     points="758.57336,542.7879 683.36694,552.8812 675.01074,553.036 559.2029,546.4814 557.42676,545.75305 632.63324,535.6597 640.9894,535.50494 756.7972,542.05963 "
     id="face_14_8_50_44_38_32_26_20"
     style="fill:#c0c0c0;stroke:none"
     opacity="1"
     transform="translate(-547.07062,-24.543091)" />
  <line
     class="arc1"
     id="link20_@1_26"
     x1="93.918762"
     y1="510.96185"
     x2="85.562622"
     y2="511.11664" />
  <line
     class="arc3"
     id="link20_@3_0"
     x1="93.918762"
     y1="510.96185"
     x2="90.628723"
     y2="517.42108" />
  <line
     class="arc0"
     id="link20_@0_14"
     x1="93.918762"
     y1="510.96185"
     x2="209.72656"
     y2="517.51654" />
  <line
     class="arc3"
     id="link26_@3_1"
     x1="85.562622"
     y1="511.11664"
     x2="90.628723"
     y2="517.42108" />
  <line
     class="arc0"
     id="link26_@0_32"
     x1="85.562622"
     y1="511.11664"
     x2="10.35614"
     y2="521.20996" />
  <polygon
     points="753.50726,548.51886 678.3007,558.6122 678.3007,558.6122 562.4929,552.0575 562.4929,552.0575 637.69934,541.9642 753.50726,548.51886 "
     id="face_7_6_5_4_3_2_1_0"
     style="fill:#c0c0c0;stroke:none"
     opacity="1"
     transform="translate(-547.07062,-24.543091)" />
  <line
     class="arc1"
     id="link0_@1_1"
     x1="90.628723"
     y1="517.42108"
     x2="90.628723"
     y2="517.42108" />
  <line
     class="arc0"
     id="link0_@0_7"
     x1="90.628723"
     y1="517.42108"
     x2="206.43665"
     y2="523.97577" />
  <line
     class="arc0"
     id="link1_@0_2"
     x1="90.628723"
     y1="517.42108"
     x2="15.422302"
     y2="527.5144" />
  <line
     class="arc1"
     id="link23_@1_24"
     x1="92.142578"
     y1="360.63861"
     x2="97.20874"
     y2="354.90765" />
  <line
     class="arc2"
     id="link23_@2_29"
     x1="92.142578"
     y1="360.63861"
     x2="83.786438"
     y2="360.7934" />
  <line
     class="arc1"
     id="link29_@1_30"
     x1="83.786438"
     y1="360.7934"
     x2="80.49646"
     y2="355.21722" />
  <polygon
     points="644.27936,205.785 760.08716,212.33969 765.1534,218.64407 765.1534,356.20367 760.08716,361.93466 644.27936,355.38 639.2132,349.07553 639.2132,211.51593 "
     id="face_83_84_78_77_76_75_81_82"
     style="fill:#c0c0c0;stroke:none"
     opacity="1"
     transform="translate(-547.07062,-24.543091)" />
  <line
     class="arc1"
     id="link82_@1_81"
     x1="92.142578"
     y1="324.53244"
     x2="97.20874"
     y2="330.83691" />
  <line
     class="arc2"
     id="link82_@2_88"
     x1="92.142578"
     y1="324.53244"
     x2="83.786438"
     y2="324.68726" />
  <line
     class="arc0"
     id="link82_@0_83"
     x1="92.142578"
     y1="324.53244"
     x2="92.142578"
     y2="186.97284" />
  <line
     class="arc2"
     id="link24_@2_25"
     x1="97.20874"
     y1="354.90765"
     x2="93.918762"
     y2="349.33151" />
  <line
     class="arc0"
     id="link24_@0_18"
     x1="97.20874"
     y1="354.90765"
     x2="213.01654"
     y2="361.46231" />
  <polygon
     points="627.5671,206.0946 552.3606,216.18793 549.0706,222.6471 549.0706,360.20676 552.3606,365.7829 627.5671,355.68958 630.85706,349.23035 630.85706,211.67068 "
     id="face_89_90_96_95_94_93_87_88"
     style="fill:#c0c0c0;stroke:none"
     opacity="1"
     transform="translate(-547.07062,-24.543091)" />
  <line
     class="arc1"
     id="link88_@1_87"
     x1="83.786438"
     y1="324.68726"
     x2="80.49646"
     y2="331.14648" />
  <line
     class="arc0"
     id="link88_@0_89"
     x1="83.786438"
     y1="324.68726"
     x2="83.786438"
     y2="187.12759" />
  <line
     class="arc2"
     id="link81_@2_80"
     x1="97.20874"
     y1="330.83691"
     x2="93.918762"
     y2="337.29614" />
  <line
     class="arc0"
     id="link81_@0_75"
     x1="97.20874"
     y1="330.83691"
     x2="213.01654"
     y2="337.39157" />
  <line
     class="arc2"
     id="link30_@2_31"
     x1="80.49646"
     y1="355.21722"
     x2="85.562622"
     y2="349.48633" />
  <line
     class="arc0"
     id="link30_@0_36"
     x1="80.49646"
     y1="355.21722"
     x2="5.289978"
     y2="365.31055" />
  <polygon
     points="758.57336,381.15753 683.36694,391.25085 675.01074,391.4057 559.2029,384.851 557.42676,384.12274 632.63324,374.02942 640.9894,373.8746 756.7972,380.42926 "
     id="face_19_13_55_49_43_37_31_25"
     style="fill:#c0c0c0;stroke:none"
     opacity="1"
     transform="translate(-547.07062,-24.543091)" />
  <line
     class="arc1"
     id="link25_@1_31"
     x1="93.918762"
     y1="349.33151"
     x2="85.562622"
     y2="349.48633" />
  <line
     class="arc3"
     id="link25_@3_80"
     x1="93.918762"
     y1="349.33151"
     x2="93.918762"
     y2="337.29614" />
  <line
     class="arc0"
     id="link25_@0_19"
     x1="93.918762"
     y1="349.33151"
     x2="209.72656"
     y2="355.88617" />
  <line
     class="arc2"
     id="link87_@2_86"
     x1="80.49646"
     y1="331.14648"
     x2="85.562622"
     y2="337.45093" />
  <line
     class="arc0"
     id="link87_@0_93"
     x1="80.49646"
     y1="331.14648"
     x2="5.289978"
     y2="341.23981" />
  <polygon
     points="758.57336,369.12216 683.36694,379.21548 675.01074,379.3703 559.2029,372.8156 557.42676,372.08734 632.63324,361.99402 640.9894,361.83923 756.7972,368.39386 "
     id="face_74_68_62_56_98_92_86_80"
     style="fill:#c0c0c0;stroke:none"
     opacity="1"
     transform="translate(-547.07062,-24.543091)" />
  <line
     class="arc1"
     id="link80_@1_86"
     x1="93.918762"
     y1="337.29614"
     x2="85.562622"
     y2="337.45093" />
  <line
     class="arc0"
     id="link80_@0_74"
     x1="93.918762"
     y1="337.29614"
     x2="209.72656"
     y2="343.85077" />
  <line
     class="arc3"
     id="link31_@3_86"
     x1="85.562622"
     y1="349.48633"
     x2="85.562622"
     y2="337.45093" />
  <line
     class="arc0"
     id="link31_@0_37"
     x1="85.562622"
     y1="349.48633"
     x2="10.35614"
     y2="359.57965" />
  <line
     class="arc0"
     id="link86_@0_92"
     x1="85.562622"
     y1="337.45093"
     x2="10.35614"
     y2="347.54425" />
  <line
     class="arc1"
     id="link83_@1_84"
     x1="92.142578"
     y1="186.97284"
     x2="97.20874"
     y2="181.24191" />
  <line
     class="arc2"
     id="link83_@2_89"
     x1="92.142578"
     y1="186.97284"
     x2="83.786438"
     y2="187.12759" />
  <line
     class="arc1"
     id="link89_@1_90"
     x1="83.786438"
     y1="187.12759"
     x2="80.49646"
     y2="181.55151" />
  <polygon
     points="644.27936,32.119263 760.08716,38.67395 765.1534,44.978394 765.1534,182.53796 760.08716,188.26892 644.27936,181.71423 639.2132,175.40982 639.2132,37.85022 "
     id="face_131_132_126_125_124_123_129_130"
     style="fill:#c0c0c0;stroke:none"
     opacity="1"
     transform="translate(-547.07062,-24.543091)" />
  <line
     class="arc1"
     id="link130_@1_129"
     x1="92.142578"
     y1="150.86673"
     x2="97.20874"
     y2="157.17114" />
  <line
     class="arc2"
     id="link130_@2_136"
     x1="92.142578"
     y1="150.86673"
     x2="83.786438"
     y2="151.02151" />
  <line
     class="arc0"
     id="link130_@0_131"
     x1="92.142578"
     y1="150.86673"
     x2="92.142578"
     y2="13.307129" />
  <line
     class="arc2"
     id="link84_@2_85"
     x1="97.20874"
     y1="181.24191"
     x2="93.918762"
     y2="175.66577" />
  <line
     class="arc0"
     id="link84_@0_78"
     x1="97.20874"
     y1="181.24191"
     x2="213.01654"
     y2="187.7966" />
  <polygon
     points="627.5671,32.428894 552.3606,42.522217 549.0706,48.981384 549.0706,186.54099 552.3606,192.11713 627.5671,182.0238 630.85706,175.5646 630.85706,38.005005 "
     id="face_137_138_144_143_142_141_135_136"
     style="fill:#c0c0c0;stroke:none"
     opacity="1"
     transform="translate(-547.07062,-24.543091)" />
  <line
     class="arc1"
     id="link136_@1_135"
     x1="83.786438"
     y1="151.02151"
     x2="80.49646"
     y2="157.48071" />
  <line
     class="arc0"
     id="link136_@0_137"
     x1="83.786438"
     y1="151.02151"
     x2="83.786438"
     y2="13.461914" />
  <line
     class="arc2"
     id="link129_@2_128"
     x1="97.20874"
     y1="157.17114"
     x2="93.918762"
     y2="163.63034" />
  <line
     class="arc0"
     id="link129_@0_123"
     x1="97.20874"
     y1="157.17114"
     x2="213.01654"
     y2="163.72583" />
  <line
     class="arc2"
     id="link90_@2_91"
     x1="80.49646"
     y1="181.55151"
     x2="85.562622"
     y2="175.82059" />
  <line
     class="arc0"
     id="link90_@0_96"
     x1="80.49646"
     y1="181.55151"
     x2="5.289978"
     y2="191.64484" />
  <polygon
     points="758.57336,207.49182 683.36694,217.58514 675.01074,217.73996 559.2029,211.18527 557.42676,210.457 632.63324,200.36368 640.9894,200.20886 756.7972,206.76355 "
     id="face_79_73_67_61_103_97_91_85"
     style="fill:#c0c0c0;stroke:none"
     opacity="1"
     transform="translate(-547.07062,-24.543091)" />
  <line
     class="arc1"
     id="link85_@1_91"
     x1="93.918762"
     y1="175.66577"
     x2="85.562622"
     y2="175.82059" />
  <line
     class="arc3"
     id="link85_@3_128"
     x1="93.918762"
     y1="175.66577"
     x2="93.918762"
     y2="163.63034" />
  <line
     class="arc0"
     id="link85_@0_79"
     x1="93.918762"
     y1="175.66577"
     x2="209.72656"
     y2="182.22046" />
  <line
     class="arc2"
     id="link135_@2_134"
     x1="80.49646"
     y1="157.48071"
     x2="85.562622"
     y2="163.78516" />
  <line
     class="arc0"
     id="link135_@0_141"
     x1="80.49646"
     y1="157.48071"
     x2="5.289978"
     y2="167.57404" />
  <polygon
     points="758.57336,195.45639 683.36694,205.54971 675.01074,205.70453 559.2029,199.14984 557.42676,198.42157 632.63324,188.32825 640.9894,188.17343 756.7972,194.72815 "
     id="face_122_116_110_104_146_140_134_128"
     style="fill:#c0c0c0;stroke:none"
     opacity="1"
     transform="translate(-547.07062,-24.543091)" />
  <line
     class="arc1"
     id="link128_@1_134"
     x1="93.918762"
     y1="163.63034"
     x2="85.562622"
     y2="163.78516" />
  <line
     class="arc0"
     id="link128_@0_122"
     x1="93.918762"
     y1="163.63034"
     x2="209.72656"
     y2="170.18506" />
  <line
     class="arc3"
     id="link91_@3_134"
     x1="85.562622"
     y1="175.82059"
     x2="85.562622"
     y2="163.78516" />
  <line
     class="arc0"
     id="link91_@0_97"
     x1="85.562622"
     y1="175.82059"
     x2="10.35614"
     y2="185.91391" />
  <line
     class="arc0"
     id="link134_@0_140"
     x1="85.562622"
     y1="163.78516"
     x2="10.35614"
     y2="173.87848" />
  <line
     class="arc1"
     id="link131_@1_132"
     x1="92.142578"
     y1="13.307129"
     x2="97.20874"
     y2="7.5761719" />
  <line
     class="arc2"
     id="link131_@2_137"
     x1="92.142578"
     y1="13.307129"
     x2="83.786438"
     y2="13.461914" />
  <line
     class="arc1"
     id="link137_@1_138"
     x1="83.786438"
     y1="13.461914"
     x2="80.49646"
     y2="7.8858032" />
  <line
     class="arc2"
     id="link132_@2_133"
     x1="97.20874"
     y1="7.5761719"
     x2="93.918762"
     y2="2" />
  <line
     class="arc0"
     id="link132_@0_126"
     x1="97.20874"
     y1="7.5761719"
     x2="213.01654"
     y2="14.130859" />
  <line
     class="arc2"
     id="link138_@2_139"
     x1="80.49646"
     y1="7.8858032"
     x2="85.562622"
     y2="2.1548462" />
  <line
     class="arc0"
     id="link138_@0_144"
     x1="80.49646"
     y1="7.8858032"
     x2="5.289978"
     y2="17.979126" />
  <polygon
     points="758.57336,33.82605 683.36694,43.919373 675.01074,44.07422 559.2029,37.51953 557.42676,36.79126 632.63324,26.697937 640.9894,26.54309 756.7972,33.09778 "
     id="face_127_121_115_109_151_145_139_133"
     style="fill:#c0c0c0;stroke:none"
     opacity="1"
     transform="translate(-547.07062,-24.543091)" />
  <line
     class="arc1"
     id="link133_@1_139"
     x1="93.918762"
     y1="2"
     x2="85.562622"
     y2="2.1548462" />
  <line
     class="arc0"
     id="link133_@0_127"
     x1="93.918762"
     y1="2"
     x2="209.72656"
     y2="8.5546875" />
  <line
     class="arc0"
     id="link139_@0_145"
     x1="85.562622"
     y1="2.1548462"
     x2="10.35614"
     y2="12.248169" />
  <line
     class="arc1"
     id="link15_@1_16"
     x1="213.01654"
     y1="511.05731"
     x2="218.08276"
     y2="505.32629" />
  <line
     class="arc2"
     id="link15_@2_14"
     x1="213.01654"
     y1="511.05731"
     x2="209.72656"
     y2="517.51654" />
  <line
     class="arc2"
     id="link16_@2_10"
     x1="218.08276"
     y1="505.32629"
     x2="219.85895"
     y2="506.05463" />
  <line
     class="arc0"
     id="link16_@0_17"
     x1="218.08276"
     y1="505.32629"
     x2="218.08276"
     y2="367.76678" />
  <line
     class="arc1"
     id="link14_@1_8"
     x1="209.72656"
     y1="517.51654"
     x2="211.50275"
     y2="518.24481" />
  <line
     class="arc3"
     id="link14_@3_7"
     x1="209.72656"
     y1="517.51654"
     x2="206.43665"
     y2="523.97577" />
  <line
     class="arc1"
     id="link6_@1_7"
     x1="206.43665"
     y1="523.97577"
     x2="206.43665"
     y2="523.97577" />
  <line
     class="arc3"
     id="link6_@3_8"
     x1="206.43665"
     y1="523.97577"
     x2="211.50275"
     y2="518.24481" />
  <line
     class="arc0"
     id="link6_@0_5"
     x1="206.43665"
     y1="523.97577"
     x2="131.2301"
     y2="534.06909" />
  <polygon
     points="763.6395,387.46198 688.43304,397.5553 685.14307,404.0146 685.14307,541.5741 688.43304,547.15027 763.6395,537.05695 766.92957,530.5977 766.92957,393.03815 "
     id="face_11_12_54_53_52_51_9_10"
     style="fill:#c0c0c0;stroke:none"
     opacity="1"
     transform="translate(-547.07062,-24.543091)" />
  <line
     class="arc1"
     id="link10_@1_9"
     x1="219.85895"
     y1="506.05463"
     x2="216.56891"
     y2="512.51385" />
  <line
     class="arc0"
     id="link10_@0_11"
     x1="219.85895"
     y1="506.05463"
     x2="219.85895"
     y2="368.49506" />
  <line
     class="arc2"
     id="link8_@2_9"
     x1="211.50275"
     y1="518.24481"
     x2="216.56891"
     y2="512.51385" />
  <line
     class="arc0"
     id="link8_@0_50"
     x1="211.50275"
     y1="518.24481"
     x2="136.29633"
     y2="528.33813" />
  <line
     class="arc1"
     id="link18_@1_17"
     x1="213.01654"
     y1="361.46231"
     x2="218.08276"
     y2="367.76678" />
  <line
     class="arc2"
     id="link18_@2_19"
     x1="213.01654"
     y1="361.46231"
     x2="209.72656"
     y2="355.88617" />
  <line
     class="arc1"
     id="link75_@1_76"
     x1="213.01654"
     y1="337.39157"
     x2="218.08276"
     y2="331.66058" />
  <line
     class="arc2"
     id="link75_@2_74"
     x1="213.01654"
     y1="337.39157"
     x2="209.72656"
     y2="343.85077" />
  <line
     class="arc2"
     id="link17_@2_11"
     x1="218.08276"
     y1="367.76678"
     x2="219.85895"
     y2="368.49506" />
  <line
     class="arc0"
     id="link9_@0_51"
     x1="216.56891"
     y1="512.51385"
     x2="141.36243"
     y2="522.60718" />
  <line
     class="arc1"
     id="link19_@1_13"
     x1="209.72656"
     y1="355.88617"
     x2="211.50275"
     y2="356.61444" />
  <line
     class="arc3"
     id="link19_@3_74"
     x1="209.72656"
     y1="355.88617"
     x2="209.72656"
     y2="343.85077" />
  <line
     class="arc2"
     id="link76_@2_70"
     x1="218.08276"
     y1="331.66058"
     x2="219.85895"
     y2="332.38889" />
  <line
     class="arc0"
     id="link76_@0_77"
     x1="218.08276"
     y1="331.66058"
     x2="218.08276"
     y2="194.10098" />
  <line
     class="arc1"
     id="link74_@1_68"
     x1="209.72656"
     y1="343.85077"
     x2="211.50275"
     y2="344.57907" />
  <line
     class="arc1"
     id="link11_@1_12"
     x1="219.85895"
     y1="368.49506"
     x2="216.56891"
     y2="362.91888" />
  <line
     class="arc2"
     id="link13_@2_12"
     x1="211.50275"
     y1="356.61444"
     x2="216.56891"
     y2="362.91888" />
  <line
     class="arc3"
     id="link13_@3_68"
     x1="211.50275"
     y1="356.61444"
     x2="211.50275"
     y2="344.57907" />
  <line
     class="arc0"
     id="link13_@0_55"
     x1="211.50275"
     y1="356.61444"
     x2="136.29633"
     y2="366.70776" />
  <polygon
     points="763.6395,213.79626 688.43304,223.88959 685.14307,230.34879 685.14307,367.9084 688.43304,373.48456 763.6395,363.39124 766.92957,356.93198 766.92957,219.37238 "
     id="face_71_72_66_65_64_63_69_70"
     style="fill:#c0c0c0;stroke:none"
     opacity="1"
     transform="translate(-547.07062,-24.543091)" />
  <line
     class="arc1"
     id="link70_@1_69"
     x1="219.85895"
     y1="332.38889"
     x2="216.56891"
     y2="338.84814" />
  <line
     class="arc0"
     id="link70_@0_71"
     x1="219.85895"
     y1="332.38889"
     x2="219.85895"
     y2="194.82928" />
  <line
     class="arc2"
     id="link68_@2_69"
     x1="211.50275"
     y1="344.57907"
     x2="216.56891"
     y2="338.84814" />
  <line
     class="arc0"
     id="link68_@0_62"
     x1="211.50275"
     y1="344.57907"
     x2="136.29633"
     y2="354.67239" />
  <line
     class="arc1"
     id="link78_@1_77"
     x1="213.01654"
     y1="187.7966"
     x2="218.08276"
     y2="194.10098" />
  <line
     class="arc2"
     id="link78_@2_79"
     x1="213.01654"
     y1="187.7966"
     x2="209.72656"
     y2="182.22046" />
  <line
     class="arc0"
     id="link12_@0_54"
     x1="216.56891"
     y1="362.91888"
     x2="141.36243"
     y2="373.01221" />
  <line
     class="arc1"
     id="link123_@1_124"
     x1="213.01654"
     y1="163.72583"
     x2="218.08276"
     y2="157.99487" />
  <line
     class="arc2"
     id="link123_@2_122"
     x1="213.01654"
     y1="163.72583"
     x2="209.72656"
     y2="170.18506" />
  <line
     class="arc2"
     id="link77_@2_71"
     x1="218.08276"
     y1="194.10098"
     x2="219.85895"
     y2="194.82928" />
  <line
     class="arc0"
     id="link69_@0_63"
     x1="216.56891"
     y1="338.84814"
     x2="141.36243"
     y2="348.94147" />
  <line
     class="arc1"
     id="link79_@1_73"
     x1="209.72656"
     y1="182.22046"
     x2="211.50275"
     y2="182.94873" />
  <line
     class="arc3"
     id="link79_@3_122"
     x1="209.72656"
     y1="182.22046"
     x2="209.72656"
     y2="170.18506" />
  <line
     class="arc2"
     id="link124_@2_118"
     x1="218.08276"
     y1="157.99487"
     x2="219.85895"
     y2="158.72318" />
  <line
     class="arc0"
     id="link124_@0_125"
     x1="218.08276"
     y1="157.99487"
     x2="218.08276"
     y2="20.435303" />
  <line
     class="arc1"
     id="link122_@1_116"
     x1="209.72656"
     y1="170.18506"
     x2="211.50275"
     y2="170.9133" />
  <line
     class="arc1"
     id="link71_@1_72"
     x1="219.85895"
     y1="194.82928"
     x2="216.56891"
     y2="189.25317" />
  <line
     class="arc2"
     id="link73_@2_72"
     x1="211.50275"
     y1="182.94873"
     x2="216.56891"
     y2="189.25317" />
  <line
     class="arc3"
     id="link73_@3_116"
     x1="211.50275"
     y1="182.94873"
     x2="211.50275"
     y2="170.9133" />
  <line
     class="arc0"
     id="link73_@0_67"
     x1="211.50275"
     y1="182.94873"
     x2="136.29633"
     y2="193.04205" />
  <polygon
     points="763.6395,40.130554 688.43304,50.223877 685.14307,56.683105 685.14307,194.24268 688.43304,199.81882 763.6395,189.7255 766.92957,183.26627 766.92957,45.706665 "
     id="face_119_120_114_113_112_111_117_118"
     style="fill:#c0c0c0;stroke:none"
     opacity="1"
     transform="translate(-547.07062,-24.543091)" />
  <line
     class="arc1"
     id="link118_@1_117"
     x1="219.85895"
     y1="158.72318"
     x2="216.56891"
     y2="165.1824" />
  <line
     class="arc0"
     id="link118_@0_119"
     x1="219.85895"
     y1="158.72318"
     x2="219.85895"
     y2="21.163574" />
  <line
     class="arc2"
     id="link116_@2_117"
     x1="211.50275"
     y1="170.9133"
     x2="216.56891"
     y2="165.1824" />
  <line
     class="arc0"
     id="link116_@0_110"
     x1="211.50275"
     y1="170.9133"
     x2="136.29633"
     y2="181.00662" />
  <line
     class="arc1"
     id="link126_@1_125"
     x1="213.01654"
     y1="14.130859"
     x2="218.08276"
     y2="20.435303" />
  <line
     class="arc2"
     id="link126_@2_127"
     x1="213.01654"
     y1="14.130859"
     x2="209.72656"
     y2="8.5546875" />
  <line
     class="arc1"
     id="link33_@1_34"
     x1="5.289978"
     y1="514.90552"
     x2="2"
     y2="509.32935" />
  <line
     class="arc2"
     id="link33_@2_32"
     x1="5.289978"
     y1="514.90552"
     x2="10.35614"
     y2="521.20996" />
  <line
     class="arc0"
     id="link72_@0_66"
     x1="216.56891"
     y1="189.25317"
     x2="141.36243"
     y2="199.3465" />
  <line
     class="arc2"
     id="link125_@2_119"
     x1="218.08276"
     y1="20.435303"
     x2="219.85895"
     y2="21.163574" />
  <line
     class="arc1"
     id="link32_@1_38"
     x1="10.35614"
     y1="521.20996"
     x2="12.132263"
     y2="521.93829" />
  <line
     class="arc3"
     id="link32_@3_2"
     x1="10.35614"
     y1="521.20996"
     x2="15.422302"
     y2="527.5144" />
  <line
     class="arc0"
     id="link117_@0_111"
     x1="216.56891"
     y1="165.1824"
     x2="141.36243"
     y2="175.27573" />
  <line
     class="arc1"
     id="link127_@1_121"
     x1="209.72656"
     y1="8.5546875"
     x2="211.50275"
     y2="9.282959" />
  <line
     class="arc1"
     id="link2_@1_3"
     x1="15.422302"
     y1="527.5144"
     x2="15.422302"
     y2="527.5144" />
  <line
     class="arc3"
     id="link3_@3_38"
     x1="15.422302"
     y1="527.5144"
     x2="12.132263"
     y2="521.93829" />
  <line
     class="arc0"
     id="link3_@0_4"
     x1="15.422302"
     y1="527.5144"
     x2="131.2301"
     y2="534.06909" />
  <line
     class="arc2"
     id="link34_@2_40"
     x1="2"
     y1="509.32935"
     x2="3.776123"
     y2="510.05762" />
  <line
     class="arc0"
     id="link34_@0_35"
     x1="2"
     y1="509.32935"
     x2="2"
     y2="371.76984" />
  <line
     class="arc1"
     id="link119_@1_120"
     x1="219.85895"
     y1="21.163574"
     x2="216.56891"
     y2="15.587463" />
  <line
     class="arc2"
     id="link38_@2_39"
     x1="12.132263"
     y1="521.93829"
     x2="8.8422852"
     y2="516.36212" />
  <line
     class="arc0"
     id="link38_@0_44"
     x1="12.132263"
     y1="521.93829"
     x2="127.94012"
     y2="528.49292" />
  <line
     class="arc1"
     id="link36_@1_35"
     x1="5.289978"
     y1="365.31055"
     x2="2"
     y2="371.76984" />
  <line
     class="arc2"
     id="link36_@2_37"
     x1="5.289978"
     y1="365.31055"
     x2="10.35614"
     y2="359.57965" />
  <line
     class="arc2"
     id="link121_@2_120"
     x1="211.50275"
     y1="9.282959"
     x2="216.56891"
     y2="15.587463" />
  <line
     class="arc0"
     id="link121_@0_115"
     x1="211.50275"
     y1="9.282959"
     x2="136.29633"
     y2="19.376282" />
  <polygon
     points="555.9129,391.31024 671.72076,397.86493 676.7869,404.16934 676.7869,541.7289 671.72076,547.45984 555.9129,540.9052 550.84674,534.6007 550.84674,397.0412 "
     id="face_41_42_48_47_46_45_39_40"
     style="fill:#c0c0c0;stroke:none"
     opacity="1"
     transform="translate(-547.07062,-24.543091)" />
  <line
     class="arc1"
     id="link40_@1_39"
     x1="3.776123"
     y1="510.05762"
     x2="8.8422852"
     y2="516.36212" />
  <line
     class="arc0"
     id="link40_@0_41"
     x1="3.776123"
     y1="510.05762"
     x2="3.776123"
     y2="372.49811" />
  <line
     class="arc1"
     id="link93_@1_94"
     x1="5.289978"
     y1="341.23981"
     x2="2"
     y2="335.66367" />
  <line
     class="arc2"
     id="link93_@2_92"
     x1="5.289978"
     y1="341.23981"
     x2="10.35614"
     y2="347.54425" />
  <line
     class="arc0"
     id="link120_@0_114"
     x1="216.56891"
     y1="15.587463"
     x2="141.36243"
     y2="25.680786" />
  <line
     class="arc1"
     id="link37_@1_43"
     x1="10.35614"
     y1="359.57965"
     x2="12.132263"
     y2="360.30792" />
  <line
     class="arc3"
     id="link37_@3_92"
     x1="10.35614"
     y1="359.57965"
     x2="10.35614"
     y2="347.54425" />
  <line
     class="arc0"
     id="link39_@0_45"
     x1="8.8422852"
     y1="516.36212"
     x2="124.65015"
     y2="522.91675" />
  <line
     class="arc2"
     id="link35_@2_41"
     x1="2"
     y1="371.76984"
     x2="3.776123"
     y2="372.49811" />
  <line
     class="arc1"
     id="link92_@1_98"
     x1="10.35614"
     y1="347.54425"
     x2="12.132263"
     y2="348.27252" />
  <line
     class="arc2"
     id="link94_@2_100"
     x1="2"
     y1="335.66367"
     x2="3.776123"
     y2="336.39197" />
  <line
     class="arc0"
     id="link94_@0_95"
     x1="2"
     y1="335.66367"
     x2="2"
     y2="198.104" />
  <line
     class="arc2"
     id="link43_@2_42"
     x1="12.132263"
     y1="360.30792"
     x2="8.8422852"
     y2="366.76715" />
  <line
     class="arc3"
     id="link43_@3_98"
     x1="12.132263"
     y1="360.30792"
     x2="12.132263"
     y2="348.27252" />
  <line
     class="arc0"
     id="link43_@0_49"
     x1="12.132263"
     y1="360.30792"
     x2="127.94012"
     y2="366.86261" />
  <line
     class="arc1"
     id="link41_@1_42"
     x1="3.776123"
     y1="372.49811"
     x2="8.8422852"
     y2="366.76715" />
  <line
     class="arc2"
     id="link98_@2_99"
     x1="12.132263"
     y1="348.27252"
     x2="8.8422852"
     y2="342.69641" />
  <line
     class="arc0"
     id="link98_@0_56"
     x1="12.132263"
     y1="348.27252"
     x2="127.94012"
     y2="354.82721" />
  <line
     class="arc1"
     id="link96_@1_95"
     x1="5.289978"
     y1="191.64484"
     x2="2"
     y2="198.104" />
  <line
     class="arc2"
     id="link96_@2_97"
     x1="5.289978"
     y1="191.64484"
     x2="10.35614"
     y2="185.91391" />
  <polygon
     points="555.9129,217.6445 671.72076,224.19919 676.7869,230.50354 676.7869,368.06317 671.72076,373.79416 555.9129,367.2395 550.84674,360.93506 550.84674,223.3754 "
     id="face_101_102_60_59_58_57_99_100"
     style="fill:#c0c0c0;stroke:none"
     opacity="1"
     transform="translate(-547.07062,-24.543091)" />
  <line
     class="arc1"
     id="link100_@1_99"
     x1="3.776123"
     y1="336.39197"
     x2="8.8422852"
     y2="342.69641" />
  <line
     class="arc0"
     id="link100_@0_101"
     x1="3.776123"
     y1="336.39197"
     x2="3.776123"
     y2="198.83231" />
  <line
     class="arc0"
     id="link42_@0_48"
     x1="8.8422852"
     y1="366.76715"
     x2="124.65015"
     y2="373.32184" />
  <line
     class="arc1"
     id="link141_@1_142"
     x1="5.289978"
     y1="167.57404"
     x2="2"
     y2="161.99789" />
  <line
     class="arc2"
     id="link141_@2_140"
     x1="5.289978"
     y1="167.57404"
     x2="10.35614"
     y2="173.87848" />
  <line
     class="arc1"
     id="link97_@1_103"
     x1="10.35614"
     y1="185.91391"
     x2="12.132263"
     y2="186.64218" />
  <line
     class="arc3"
     id="link97_@3_140"
     x1="10.35614"
     y1="185.91391"
     x2="10.35614"
     y2="173.87848" />
  <line
     class="arc0"
     id="link99_@0_57"
     x1="8.8422852"
     y1="342.69641"
     x2="124.65015"
     y2="349.25107" />
  <line
     class="arc2"
     id="link95_@2_101"
     x1="2"
     y1="198.104"
     x2="3.776123"
     y2="198.83231" />
  <line
     class="arc1"
     id="link140_@1_146"
     x1="10.35614"
     y1="173.87848"
     x2="12.132263"
     y2="174.60675" />
  <line
     class="arc2"
     id="link142_@2_148"
     x1="2"
     y1="161.99789"
     x2="3.776123"
     y2="162.7262" />
  <line
     class="arc0"
     id="link142_@0_143"
     x1="2"
     y1="161.99789"
     x2="2"
     y2="24.438293" />
  <line
     class="arc2"
     id="link103_@2_102"
     x1="12.132263"
     y1="186.64218"
     x2="8.8422852"
     y2="193.10141" />
  <line
     class="arc3"
     id="link103_@3_146"
     x1="12.132263"
     y1="186.64218"
     x2="12.132263"
     y2="174.60675" />
  <line
     class="arc0"
     id="link103_@0_61"
     x1="12.132263"
     y1="186.64218"
     x2="127.94012"
     y2="193.19687" />
  <line
     class="arc1"
     id="link101_@1_102"
     x1="3.776123"
     y1="198.83231"
     x2="8.8422852"
     y2="193.10141" />
  <line
     class="arc2"
     id="link146_@2_147"
     x1="12.132263"
     y1="174.60675"
     x2="8.8422852"
     y2="169.03061" />
  <line
     class="arc0"
     id="link146_@0_104"
     x1="12.132263"
     y1="174.60675"
     x2="127.94012"
     y2="181.16144" />
  <line
     class="arc1"
     id="link144_@1_143"
     x1="5.289978"
     y1="17.979126"
     x2="2"
     y2="24.438293" />
  <line
     class="arc2"
     id="link144_@2_145"
     x1="5.289978"
     y1="17.979126"
     x2="10.35614"
     y2="12.248169" />
  <polygon
     points="555.9129,43.97876 671.72076,50.533447 676.7869,56.83789 676.7869,194.39746 671.72076,200.12839 555.9129,193.5737 550.84674,187.26929 550.84674,49.709717 "
     id="face_149_150_108_107_106_105_147_148"
     style="fill:#c0c0c0;stroke:none"
     opacity="1"
     transform="translate(-547.07062,-24.543091)" />
  <line
     class="arc1"
     id="link148_@1_147"
     x1="3.776123"
     y1="162.7262"
     x2="8.8422852"
     y2="169.03061" />
  <line
     class="arc0"
     id="link148_@0_149"
     x1="3.776123"
     y1="162.7262"
     x2="3.776123"
     y2="25.166626" />
  <line
     class="arc0"
     id="link102_@0_60"
     x1="8.8422852"
     y1="193.10141"
     x2="124.65015"
     y2="199.6561" />
  <line
     class="arc0"
     id="link147_@0_105"
     x1="8.8422852"
     y1="169.03061"
     x2="124.65015"
     y2="175.5853" />
  <line
     class="arc1"
     id="link145_@1_151"
     x1="10.35614"
     y1="12.248169"
     x2="12.132263"
     y2="12.97644" />
  <line
     class="arc2"
     id="link143_@2_149"
     x1="2"
     y1="24.438293"
     x2="3.776123"
     y2="25.166626" />
  <line
     class="arc2"
     id="link151_@2_150"
     x1="12.132263"
     y1="12.97644"
     x2="8.8422852"
     y2="19.435669" />
  <line
     class="arc0"
     id="link151_@0_109"
     x1="12.132263"
     y1="12.97644"
     x2="127.94012"
     y2="19.531128" />
  <line
     class="arc1"
     id="link149_@1_150"
     x1="3.776123"
     y1="25.166626"
     x2="8.8422852"
     y2="19.435669" />
  <line
     class="arc0"
     id="link150_@0_108"
     x1="8.8422852"
     y1="19.435669"
     x2="124.65015"
     y2="25.990356" />
  <line
     class="arc1"
     id="link4_@1_5"
     x1="131.2301"
     y1="534.06909"
     x2="131.2301"
     y2="534.06909" />
  <line
     class="arc3"
     id="link4_@3_44"
     x1="131.2301"
     y1="534.06909"
     x2="127.94012"
     y2="528.49292" />
  <line
     class="arc3"
     id="link5_@3_50"
     x1="131.2301"
     y1="534.06909"
     x2="136.29633"
     y2="528.33813" />
  <line
     class="arc1"
     id="link50_@1_44"
     x1="136.29633"
     y1="528.33813"
     x2="127.94012"
     y2="528.49292" />
  <line
     class="arc2"
     id="link50_@2_51"
     x1="136.29633"
     y1="528.33813"
     x2="141.36243"
     y2="522.60718" />
  <line
     class="arc2"
     id="link44_@2_45"
     x1="127.94012"
     y1="528.49292"
     x2="124.65015"
     y2="522.91675" />
  <line
     class="arc1"
     id="link51_@1_52"
     x1="141.36243"
     y1="522.60718"
     x2="138.07245"
     y2="517.03101" />
  <line
     class="arc1"
     id="link45_@1_46"
     x1="124.65015"
     y1="522.91675"
     x2="129.71631"
     y2="517.18579" />
  <line
     class="arc2"
     id="link52_@2_46"
     x1="138.07245"
     y1="517.03101"
     x2="129.71631"
     y2="517.18579" />
  <line
     class="arc0"
     id="link52_@0_53"
     x1="138.07245"
     y1="517.03101"
     x2="138.07245"
     y2="379.4715" />
  <line
     class="arc0"
     id="link46_@0_47"
     x1="129.71631"
     y1="517.18579"
     x2="129.71631"
     y2="379.62625" />
  <line
     class="arc1"
     id="link55_@1_49"
     x1="136.29633"
     y1="366.70776"
     x2="127.94012"
     y2="366.86261" />
  <line
     class="arc2"
     id="link55_@2_54"
     x1="136.29633"
     y1="366.70776"
     x2="141.36243"
     y2="373.01221" />
  <line
     class="arc3"
     id="link55_@3_62"
     x1="136.29633"
     y1="366.70776"
     x2="136.29633"
     y2="354.67239" />
  <line
     class="arc1"
     id="link62_@1_56"
     x1="136.29633"
     y1="354.67239"
     x2="127.94012"
     y2="354.82721" />
  <line
     class="arc2"
     id="link62_@2_63"
     x1="136.29633"
     y1="354.67239"
     x2="141.36243"
     y2="348.94147" />
  <line
     class="arc2"
     id="link49_@2_48"
     x1="127.94012"
     y1="366.86261"
     x2="124.65015"
     y2="373.32184" />
  <line
     class="arc3"
     id="link49_@3_56"
     x1="127.94012"
     y1="366.86261"
     x2="127.94012"
     y2="354.82721" />
  <line
     class="arc1"
     id="link54_@1_53"
     x1="141.36243"
     y1="373.01221"
     x2="138.07245"
     y2="379.4715" />
  <line
     class="arc2"
     id="link56_@2_57"
     x1="127.94012"
     y1="354.82721"
     x2="124.65015"
     y2="349.25107" />
  <line
     class="arc1"
     id="link63_@1_64"
     x1="141.36243"
     y1="348.94147"
     x2="138.07245"
     y2="343.3653" />
  <line
     class="arc1"
     id="link48_@1_47"
     x1="124.65015"
     y1="373.32184"
     x2="129.71631"
     y2="379.62625" />
  <line
     class="arc2"
     id="link53_@2_47"
     x1="138.07245"
     y1="379.4715"
     x2="129.71631"
     y2="379.62625" />
  <line
     class="arc1"
     id="link57_@1_58"
     x1="124.65015"
     y1="349.25107"
     x2="129.71631"
     y2="343.52008" />
  <line
     class="arc2"
     id="link64_@2_58"
     x1="138.07245"
     y1="343.3653"
     x2="129.71631"
     y2="343.52008" />
  <line
     class="arc0"
     id="link64_@0_65"
     x1="138.07245"
     y1="343.3653"
     x2="138.07245"
     y2="205.80569" />
  <line
     class="arc0"
     id="link58_@0_59"
     x1="129.71631"
     y1="343.52008"
     x2="129.71631"
     y2="205.96045" />
  <line
     class="arc1"
     id="link67_@1_61"
     x1="136.29633"
     y1="193.04205"
     x2="127.94012"
     y2="193.19687" />
  <line
     class="arc2"
     id="link67_@2_66"
     x1="136.29633"
     y1="193.04205"
     x2="141.36243"
     y2="199.3465" />
  <line
     class="arc3"
     id="link67_@3_110"
     x1="136.29633"
     y1="193.04205"
     x2="136.29633"
     y2="181.00662" />
  <line
     class="arc1"
     id="link110_@1_104"
     x1="136.29633"
     y1="181.00662"
     x2="127.94012"
     y2="181.16144" />
  <line
     class="arc2"
     id="link110_@2_111"
     x1="136.29633"
     y1="181.00662"
     x2="141.36243"
     y2="175.27573" />
  <line
     class="arc2"
     id="link61_@2_60"
     x1="127.94012"
     y1="193.19687"
     x2="124.65015"
     y2="199.6561" />
  <line
     class="arc3"
     id="link61_@3_104"
     x1="127.94012"
     y1="193.19687"
     x2="127.94012"
     y2="181.16144" />
  <line
     class="arc1"
     id="link66_@1_65"
     x1="141.36243"
     y1="199.3465"
     x2="138.07245"
     y2="205.80569" />
  <line
     class="arc2"
     id="link104_@2_105"
     x1="127.94012"
     y1="181.16144"
     x2="124.65015"
     y2="175.5853" />
  <line
     class="arc1"
     id="link111_@1_112"
     x1="141.36243"
     y1="175.27573"
     x2="138.07245"
     y2="169.69958" />
  <line
     class="arc1"
     id="link60_@1_59"
     x1="124.65015"
     y1="199.6561"
     x2="129.71631"
     y2="205.96045" />
  <line
     class="arc2"
     id="link65_@2_59"
     x1="138.07245"
     y1="205.80569"
     x2="129.71631"
     y2="205.96045" />
  <line
     class="arc1"
     id="link105_@1_106"
     x1="124.65015"
     y1="175.5853"
     x2="129.71631"
     y2="169.85437" />
  <line
     class="arc2"
     id="link112_@2_106"
     x1="138.07245"
     y1="169.69958"
     x2="129.71631"
     y2="169.85437" />
  <line
     class="arc0"
     id="link112_@0_113"
     x1="138.07245"
     y1="169.69958"
     x2="138.07245"
     y2="32.140015" />
  <line
     class="arc0"
     id="link106_@0_107"
     x1="129.71631"
     y1="169.85437"
     x2="129.71631"
     y2="32.2948" />
  <line
     class="arc1"
     id="link115_@1_109"
     x1="136.29633"
     y1="19.376282"
     x2="127.94012"
     y2="19.531128" />
  <line
     class="arc2"
     id="link115_@2_114"
     x1="136.29633"
     y1="19.376282"
     x2="141.36243"
     y2="25.680786" />
  <line
     class="arc2"
     id="link109_@2_108"
     x1="127.94012"
     y1="19.531128"
     x2="124.65015"
     y2="25.990356" />
  <line
     class="arc1"
     id="link114_@1_113"
     x1="141.36243"
     y1="25.680786"
     x2="138.07245"
     y2="32.140015" />
  <line
     class="arc1"
     id="link108_@1_107"
     x1="124.65015"
     y1="25.990356"
     x2="129.71631"
     y2="32.2948" />
  <line
     class="arc2"
     id="link113_@2_107"
     x1="138.07245"
     y1="32.140015"
     x2="129.71631"
     y2="32.2948" />
</svg>
