<?xml version="1.0" encoding="UTF-8" standalone="no"?>
<!-- Created with Jerboa -->

<svg
   width="342.77698"
   height="281.78629"
   version="1.1"
   id="svg424"
   sodipodi:docname="coloured-triangulated-cube-article-view.svg"
   inkscape:version="1.2.2 (b0a8486541, 2022-12-01)"
   xmlns:inkscape="http://www.inkscape.org/namespaces/inkscape"
   xmlns:sodipodi="http://sodipodi.sourceforge.net/DTD/sodipodi-0.dtd"
   xmlns="http://www.w3.org/2000/svg"
   xmlns:svg="http://www.w3.org/2000/svg">
  <defs
     id="defs428" />
  <sodipodi:namedview
     id="namedview426"
     pagecolor="#ffffff"
     bordercolor="#666666"
     borderopacity="1.0"
     inkscape:showpageshadow="2"
     inkscape:pageopacity="0.0"
     inkscape:pagecheckerboard="0"
     inkscape:deskcolor="#d1d1d1"
     showgrid="false"
     inkscape:zoom="1.0054545"
     inkscape:cx="174.05063"
     inkscape:cy="139.73779"
     inkscape:window-width="1668"
     inkscape:window-height="1018"
     inkscape:window-x="5"
     inkscape:window-y="25"
     inkscape:window-maximized="1"
     inkscape:current-layer="svg424" />
  <style
     id="style">
		.arc0 {
			fill:none;
			fill-rule:evenodd;
			stroke:black;
			stroke-width:4;
			stroke-linecap:round;
			stroke-linejoin:round;
			stroke-opacity:1;
		}
		.arc1 {
			fill:none;
			fill-rule:evenodd;
			stroke:red;
			stroke-width:4;
			stroke-linecap:round;
			stroke-linejoin:round;
			stroke-opacity:1;
		}
		.arc2 {
			fill:none;
			fill-rule:evenodd;
			stroke:blue;
			stroke-width:4;
			stroke-linecap:round;
			stroke-linejoin:round;
			stroke-opacity:1;
		}
		.arc3 {
			fill:none;
			fill-rule:evenodd;
			stroke:green;
			stroke-width:4;
			stroke-linecap:round;
			stroke-linejoin:round;
			stroke-opacity:1;
		}
		.topological-dart {
			fill:#000000;
			stroke:#000000;
			stroke-width:0;
			stroke-linecap:round;
			stroke-linejoin:round;
			stroke-dasharray:none;
			paint-order:markers fill stroke;
		}
	</style>
  <polygon
     points="552.2815,174.3717 684.2996,181.84387 712.7716,217.27518 712.7716,374.08978 684.2996,406.29803 552.2815,398.82587 523.80945,363.3946 523.80945,206.58002 "
     id="face_25_26_31_30_29_28_23_24"
     style="fill:#c0c0c0;stroke:none"
     opacity="1"
     transform="translate(-375.73792,-160.6199)" />
  <line
     class="arc1"
     id="link24_@1_23"
     x1="148.07153"
     y1="202.77469"
     x2="176.54358"
     y2="238.20596" />
  <line
     class="arc2"
     id="link24_@2_19"
     x1="148.07153"
     y1="202.77469"
     x2="130.46082"
     y2="203.10092" />
  <line
     class="arc0"
     id="link24_@0_25"
     x1="148.07153"
     y1="202.77469"
     x2="148.07153"
     y2="45.960114" />
  <polygon
     points="487.7088,175.56796 401.97522,187.0741 379.92627,227.40143 379.92627,375.76105 401.97522,411.52826 487.7088,400.0221 506.19873,363.72083 506.19873,206.90625 "
     id="face_20_21_16_15_14_13_18_19"
     style="fill:#c0c0c0;stroke:none"
     opacity="1"
     transform="translate(-375.73792,-160.6199)" />
  <line
     class="arc1"
     id="link19_@1_18"
     x1="130.46082"
     y1="203.10092"
     x2="111.97089"
     y2="239.40219" />
  <line
     class="arc0"
     id="link19_@0_20"
     x1="130.46082"
     y1="203.10092"
     x2="130.46082"
     y2="46.286346" />
  <line
     class="arc1"
     id="link25_@1_26"
     x1="148.07153"
     y1="45.960114"
     x2="176.54358"
     y2="13.751801" />
  <line
     class="arc2"
     id="link25_@2_20"
     x1="148.07153"
     y1="45.960114"
     x2="130.46082"
     y2="46.286346" />
  <line
     class="arc2"
     id="link23_@2_0"
     x1="176.54358"
     y1="238.20596"
     x2="169.6098"
     y2="251.81894" />
  <line
     class="arc0"
     id="link23_@0_28"
     x1="176.54358"
     y1="238.20596"
     x2="308.56171"
     y2="245.67813" />
  <line
     class="arc1"
     id="link20_@1_21"
     x1="130.46082"
     y1="46.286346"
     x2="111.97089"
     y2="14.948059" />
  <polygon
     points="687.34796,424.00403 601.6144,435.51016 551.09344,440.4062 426.19327,433.3369 412.65222,424.815 498.3858,413.30884 545.3477,412.43884 677.36584,419.911 "
     id="face_7_6_5_4_3_2_1_0"
     style="fill:#c0c0c0;stroke:none"
     opacity="1"
     transform="translate(-375.73792,-160.6199)" />
  <line
     class="arc1"
     id="link0_@1_1"
     x1="169.6098"
     y1="251.81894"
     x2="122.64789"
     y2="252.68893" />
  <line
     class="arc0"
     id="link0_@0_7"
     x1="169.6098"
     y1="251.81894"
     x2="301.62793"
     y2="259.29111" />
  <line
     class="arc2"
     id="link18_@2_1"
     x1="111.97089"
     y1="239.40219"
     x2="122.64789"
     y2="252.68893" />
  <line
     class="arc0"
     id="link18_@0_13"
     x1="111.97089"
     y1="239.40219"
     x2="26.237305"
     y2="250.90836" />
  <line
     class="arc0"
     id="link1_@0_2"
     x1="122.64789"
     y1="252.68893"
     x2="36.914307"
     y2="264.1951" />
  <line
     class="arc2"
     id="link26_@2_27"
     x1="176.54358"
     y1="13.751801"
     x2="169.6098"
     y2="2" />
  <line
     class="arc0"
     id="link26_@0_31"
     x1="176.54358"
     y1="13.751801"
     x2="308.56171"
     y2="21.223969" />
  <polygon
     points="687.34796,174.18506 601.6144,185.6912 551.09344,182.1323 426.19327,175.06299 412.65222,174.996 498.3858,163.48987 545.3477,162.6199 677.36584,170.09207 "
     id="face_32_37_42_47_12_17_22_27"
     style="fill:#c0c0c0;stroke:none"
     opacity="1"
     transform="translate(-375.73792,-160.6199)" />
  <line
     class="arc1"
     id="link27_@1_22"
     x1="169.6098"
     y1="2"
     x2="122.64789"
     y2="2.8699646" />
  <line
     class="arc0"
     id="link27_@0_32"
     x1="169.6098"
     y1="2"
     x2="301.62793"
     y2="9.472168" />
  <line
     class="arc2"
     id="link21_@2_22"
     x1="111.97089"
     y1="14.948059"
     x2="122.64789"
     y2="2.8699646" />
  <line
     class="arc0"
     id="link21_@0_16"
     x1="111.97089"
     y1="14.948059"
     x2="26.237305"
     y2="26.454193" />
  <line
     class="arc0"
     id="link22_@0_17"
     x1="122.64789"
     y1="2.8699646"
     x2="36.914307"
     y2="14.376099" />
  <line
     class="arc1"
     id="link28_@1_29"
     x1="308.56171"
     y1="245.67813"
     x2="337.03369"
     y2="213.46988" />
  <line
     class="arc2"
     id="link28_@2_7"
     x1="308.56171"
     y1="245.67813"
     x2="301.62793"
     y2="259.29111" />
  <line
     class="arc1"
     id="link7_@1_6"
     x1="301.62793"
     y1="259.29111"
     x2="311.61005"
     y2="263.38412" />
  <line
     class="arc1"
     id="link31_@1_30"
     x1="308.56171"
     y1="21.223969"
     x2="337.03369"
     y2="56.655273" />
  <line
     class="arc2"
     id="link31_@2_32"
     x1="308.56171"
     y1="21.223969"
     x2="301.62793"
     y2="9.472168" />
  <line
     class="arc2"
     id="link29_@2_34"
     x1="337.03369"
     y1="213.46988"
     x2="340.77698"
     y2="215.00473" />
  <line
     class="arc0"
     id="link29_@0_30"
     x1="337.03369"
     y1="213.46988"
     x2="337.03369"
     y2="56.655273" />
  <line
     class="arc1"
     id="link32_@1_37"
     x1="301.62793"
     y1="9.472168"
     x2="311.61005"
     y2="13.565155" />
  <line
     class="arc2"
     id="link30_@2_35"
     x1="337.03369"
     y1="56.655273"
     x2="340.77698"
     y2="58.190155" />
  <polygon
     points="698.02496,187.47177 612.2914,198.9779 597.3604,239.7081 597.3604,388.06775 612.2914,423.43207 698.02496,411.92593 716.5149,375.62463 716.5149,218.81006 "
     id="face_35_36_41_40_39_38_33_34"
     style="fill:#c0c0c0;stroke:none"
     opacity="1"
     transform="translate(-375.73792,-160.6199)" />
  <line
     class="arc1"
     id="link34_@1_33"
     x1="340.77698"
     y1="215.00473"
     x2="322.28705"
     y2="251.30603" />
  <line
     class="arc0"
     id="link34_@0_35"
     x1="340.77698"
     y1="215.00473"
     x2="340.77698"
     y2="58.190155" />
  <line
     class="arc1"
     id="link35_@1_36"
     x1="340.77698"
     y1="58.190155"
     x2="322.28705"
     y2="26.851868" />
  <line
     class="arc2"
     id="link6_@2_33"
     x1="311.61005"
     y1="263.38412"
     x2="322.28705"
     y2="251.30603" />
  <line
     class="arc0"
     id="link6_@0_5"
     x1="311.61005"
     y1="263.38412"
     x2="225.87646"
     y2="274.89026" />
  <line
     class="arc1"
     id="link13_@1_14"
     x1="26.237305"
     y1="250.90836"
     x2="4.1883545"
     y2="215.14114" />
  <line
     class="arc2"
     id="link13_@2_2"
     x1="26.237305"
     y1="250.90836"
     x2="36.914307"
     y2="264.1951" />
  <line
     class="arc0"
     id="link33_@0_38"
     x1="322.28705"
     y1="251.30603"
     x2="236.55347"
     y2="262.81216" />
  <line
     class="arc1"
     id="link2_@1_3"
     x1="36.914307"
     y1="264.1951"
     x2="50.455353"
     y2="272.71701" />
  <line
     class="arc2"
     id="link37_@2_36"
     x1="311.61005"
     y1="13.565155"
     x2="322.28705"
     y2="26.851868" />
  <line
     class="arc0"
     id="link37_@0_42"
     x1="311.61005"
     y1="13.565155"
     x2="225.87646"
     y2="25.071289" />
  <line
     class="arc1"
     id="link16_@1_15"
     x1="26.237305"
     y1="26.454193"
     x2="4.1883545"
     y2="66.781525" />
  <line
     class="arc2"
     id="link16_@2_17"
     x1="26.237305"
     y1="26.454193"
     x2="36.914307"
     y2="14.376099" />
  <line
     class="arc0"
     id="link36_@0_41"
     x1="322.28705"
     y1="26.851868"
     x2="236.55347"
     y2="38.358002" />
  <line
     class="arc1"
     id="link17_@1_12"
     x1="36.914307"
     y1="14.376099"
     x2="50.455353"
     y2="14.443085" />
  <line
     class="arc2"
     id="link14_@2_9"
     x1="4.1883545"
     y1="215.14114"
     x2="2"
     y2="212.11282" />
  <line
     class="arc0"
     id="link14_@0_15"
     x1="4.1883545"
     y1="215.14114"
     x2="4.1883545"
     y2="66.781525" />
  <line
     class="arc2"
     id="link15_@2_10"
     x1="4.1883545"
     y1="66.781525"
     x2="2"
     y2="72.20813" />
  <polygon
     points="394.46942,217.74713 449.8015,286.6038 449.8015,328.8785 394.46942,391.47162 377.7379,372.73273 377.7379,232.82803 "
     id="face_10_60_61_59_58_9"
     style="fill:#0000ff;stroke:none"
     opacity="1"
     transform="translate(-375.73792,-160.6199)" />
  <line
     class="arc1"
     id="link9_@1_58"
     x1="2"
     y1="212.11282"
     x2="18.731506"
     y2="230.85172" />
  <line
     class="arc0"
     id="link9_@0_10"
     x1="2"
     y1="212.11282"
     x2="2"
     y2="72.20813" />
  <line
     class="arc2"
     id="link3_@2_8"
     x1="50.455353"
     y1="272.71701"
     x2="47.080658"
     y2="268.21237" />
  <line
     class="arc0"
     id="link3_@0_4"
     x1="50.455353"
     y1="272.71701"
     x2="175.35553"
     y2="279.78629" />
  <line
     class="arc1"
     id="link10_@1_60"
     x1="2"
     y1="72.20813"
     x2="18.731506"
     y2="57.127228" />
  <line
     class="arc2"
     id="link58_@2_56"
     x1="18.731506"
     y1="230.85172"
     x2="28.222168"
     y2="242.66214" />
  <line
     class="arc0"
     id="link58_@0_59"
     x1="18.731506"
     y1="230.85172"
     x2="74.063599"
     y2="168.25861" />
  <polygon
     points="550.2143,411.55997 494.88217,342.7033 459.29218,340.68893 403.96008,403.28204 422.81857,428.83228 540.60077,435.4987 "
     id="face_43_54_55_57_56_8"
     style="fill:#c0c0c0;stroke:none"
     opacity="1"
     transform="translate(-375.73792,-160.6199)" />
  <line
     class="arc1"
     id="link8_@1_56"
     x1="47.080658"
     y1="268.21237"
     x2="28.222168"
     y2="242.66214" />
  <line
     class="arc0"
     id="link8_@0_43"
     x1="47.080658"
     y1="268.21237"
     x2="164.86285"
     y2="274.87878" />
  <line
     class="arc0"
     id="link56_@0_57"
     x1="28.222168"
     y1="242.66214"
     x2="83.55426"
     y2="180.06903" />
  <line
     class="arc2"
     id="link12_@2_11"
     x1="50.455353"
     y1="14.443085"
     x2="47.080658"
     y2="21.211761" />
  <line
     class="arc0"
     id="link12_@0_47"
     x1="50.455353"
     y1="14.443085"
     x2="175.35553"
     y2="21.51239" />
  <line
     class="arc2"
     id="link60_@2_62"
     x1="18.731506"
     y1="57.127228"
     x2="28.222168"
     y2="46.391144" />
  <line
     class="arc0"
     id="link60_@0_61"
     x1="18.731506"
     y1="57.127228"
     x2="74.063599"
     y2="125.98389" />
  <polygon
     points="494.88217,277.88208 550.2143,215.28897 540.60077,188.49808 422.81857,181.83167 403.96008,207.01105 459.29218,275.8677 "
     id="face_63_49_48_46_11_62"
     style="fill:#c0c0c0;stroke:none"
     opacity="1"
     transform="translate(-375.73792,-160.6199)" />
  <line
     class="arc1"
     id="link62_@1_11"
     x1="28.222168"
     y1="46.391144"
     x2="47.080658"
     y2="21.211761" />
  <line
     class="arc0"
     id="link62_@0_63"
     x1="28.222168"
     y1="46.391144"
     x2="83.55426"
     y2="115.2478" />
  <line
     class="arc0"
     id="link11_@0_46"
     x1="47.080658"
     y1="21.211761"
     x2="164.86285"
     y2="27.878174" />
  <line
     class="arc1"
     id="link59_@1_61"
     x1="74.063599"
     y1="168.25861"
     x2="74.063599"
     y2="125.98389" />
  <line
     class="arc2"
     id="link59_@2_57"
     x1="74.063599"
     y1="168.25861"
     x2="83.55426"
     y2="180.06903" />
  <line
     class="arc2"
     id="link61_@2_63"
     x1="74.063599"
     y1="125.98389"
     x2="83.55426"
     y2="115.2478" />
  <line
     class="arc1"
     id="link57_@1_55"
     x1="83.55426"
     y1="180.06903"
     x2="119.14426"
     y2="182.0834" />
  <line
     class="arc1"
     id="link63_@1_49"
     x1="83.55426"
     y1="115.2478"
     x2="119.14426"
     y2="117.26218" />
  <line
     class="arc1"
     id="link5_@1_4"
     x1="225.87646"
     y1="274.89026"
     x2="175.35553"
     y2="279.78629" />
  <line
     class="arc2"
     id="link5_@2_38"
     x1="225.87646"
     y1="274.89026"
     x2="236.55347"
     y2="262.81216" />
  <line
     class="arc2"
     id="link55_@2_53"
     x1="119.14426"
     y1="182.0834"
     x2="128.63492"
     y2="171.34732" />
  <line
     class="arc0"
     id="link55_@0_54"
     x1="119.14426"
     y1="182.0834"
     x2="174.47638"
     y2="250.94006" />
  <line
     class="arc2"
     id="link4_@2_43"
     x1="175.35553"
     y1="279.78629"
     x2="164.86285"
     y2="274.87878" />
  <line
     class="arc1"
     id="link38_@1_39"
     x1="236.55347"
     y1="262.81216"
     x2="221.6225"
     y2="227.44785" />
  <line
     class="arc2"
     id="link49_@2_51"
     x1="119.14426"
     y1="117.26218"
     x2="128.63492"
     y2="129.0726" />
  <line
     class="arc0"
     id="link49_@0_48"
     x1="119.14426"
     y1="117.26218"
     x2="174.47638"
     y2="54.669067" />
  <polygon
     points="585.6814,384.50226 585.6814,244.5975 559.70496,227.0994 504.37283,289.6925 504.37283,331.96722 559.70496,400.82388 "
     id="face_52_44_45_50_51_53"
     style="fill:#c0c0c0;stroke:none"
     opacity="1"
     transform="translate(-375.73792,-160.6199)" />
  <line
     class="arc1"
     id="link53_@1_51"
     x1="128.63492"
     y1="171.34732"
     x2="128.63492"
     y2="129.0726" />
  <line
     class="arc0"
     id="link53_@0_52"
     x1="128.63492"
     y1="171.34732"
     x2="183.96704"
     y2="240.20398" />
  <line
     class="arc0"
     id="link51_@0_50"
     x1="128.63492"
     y1="129.0726"
     x2="183.96704"
     y2="66.479492" />
  <line
     class="arc1"
     id="link43_@1_54"
     x1="164.86285"
     y1="274.87878"
     x2="174.47638"
     y2="250.94006" />
  <line
     class="arc1"
     id="link42_@1_47"
     x1="225.87646"
     y1="25.071289"
     x2="175.35553"
     y2="21.51239" />
  <line
     class="arc2"
     id="link42_@2_41"
     x1="225.87646"
     y1="25.071289"
     x2="236.55347"
     y2="38.358002" />
  <line
     class="arc1"
     id="link41_@1_40"
     x1="236.55347"
     y1="38.358002"
     x2="221.6225"
     y2="79.088196" />
  <line
     class="arc2"
     id="link47_@2_46"
     x1="175.35553"
     y1="21.51239"
     x2="164.86285"
     y2="27.878174" />
  <line
     class="arc2"
     id="link54_@2_52"
     x1="174.47638"
     y1="250.94006"
     x2="183.96704"
     y2="240.20398" />
  <line
     class="arc1"
     id="link46_@1_48"
     x1="164.86285"
     y1="27.878174"
     x2="174.47638"
     y2="54.669067" />
  <line
     class="arc2"
     id="link39_@2_44"
     x1="221.6225"
     y1="227.44785"
     x2="209.94348"
     y2="223.88235" />
  <line
     class="arc0"
     id="link39_@0_40"
     x1="221.6225"
     y1="227.44785"
     x2="221.6225"
     y2="79.088196" />
  <line
     class="arc1"
     id="link52_@1_44"
     x1="183.96704"
     y1="240.20398"
     x2="209.94348"
     y2="223.88235" />
  <line
     class="arc0"
     id="link44_@0_45"
     x1="209.94348"
     y1="223.88235"
     x2="209.94348"
     y2="83.9776" />
  <line
     class="arc2"
     id="link48_@2_50"
     x1="174.47638"
     y1="54.669067"
     x2="183.96704"
     y2="66.479492" />
  <line
     class="arc2"
     id="link40_@2_45"
     x1="221.6225"
     y1="79.088196"
     x2="209.94348"
     y2="83.9776" />
  <line
     class="arc1"
     id="link50_@1_45"
     x1="183.96704"
     y1="66.479492"
     x2="209.94348"
     y2="83.9776" />
</svg>
