<?xml version="1.0" encoding="UTF-8" standalone="no"?>
<!-- Created with Jerboa -->

<svg
	width="1317"
	height="620" >
	<style id="style">
		.arc0 {
			fill:none;
			fill-rule:evenodd;
			stroke:black;
			stroke-width:4;
			stroke-linecap:round;
			stroke-linejoin:round;
			stroke-opacity:1;
		}
		.arc1 {
			fill:none;
			fill-rule:evenodd;
			stroke:red;
			stroke-width:4;
			stroke-linecap:round;
			stroke-linejoin:round;
			stroke-opacity:1;
		}
		.arc2 {
			fill:none;
			fill-rule:evenodd;
			stroke:blue;
			stroke-width:4;
			stroke-linecap:round;
			stroke-linejoin:round;
			stroke-opacity:1;
		}
		.arc3 {
			fill:none;
			fill-rule:evenodd;
			stroke:green;
			stroke-width:4;
			stroke-linecap:round;
			stroke-linejoin:round;
			stroke-opacity:1;
		}
		.topological-dart {
			fill:#000000;
			stroke:#000000;
			stroke-width:0;
			stroke-linecap:round;
			stroke-linejoin:round;
			stroke-dasharray:none;
			paint-order:markers fill stroke;
		}
	</style>
<polygon
	points="625.16956,408.09735 625.16956,164.22247 670.8161,112.38992 875.35156,124.01053 920.9979,181.02975 920.9979,424.9047 875.35156,476.73724 670.8161,465.11667 "
	id="face_25_26_31_30_29_28_23_24"
	style="fill:rgb(192,192,192);stroke:none"
	opacity="1.0" />
<line
	class="arc1"
	id="link24_@1_23"
	x1="625.16956"
	y1="408.09735"
	x2="670.8161"
	y2="465.11667" />
<line
	class="arc2"
	id="link24_@2_19"
	x1="625.16956"
	y1="408.09735"
	x2="578.1136"
	y2="408.9724" />
<line
	class="arc0"
	id="link24_@0_25"
	x1="625.16956"
	y1="408.09735"
	x2="625.16956"
	y2="164.22247" />
<circle
	id="dart24"
	cx="625.16956"
	cy="408.09735"
	r="10"
	stroke="black"
	fill="rgb(0,0,0)" />
<polygon
	points="578.1136,408.9724 578.1136,165.09747 548.4704,114.66504 415.64352,132.55917 386.00037,190.97855 386.00037,434.85345 415.64352,485.2859 548.4704,467.39178 "
	id="face_20_21_16_15_14_13_18_19"
	style="fill:rgb(192,192,192);stroke:none"
	opacity="1.0" />
<line
	class="arc1"
	id="link19_@1_18"
	x1="578.1136"
	y1="408.9724"
	x2="548.4704"
	y2="467.39178" />
<line
	class="arc0"
	id="link19_@0_20"
	x1="578.1136"
	y1="408.9724"
	x2="578.1136"
	y2="165.09747" />
<circle
	id="dart19"
	cx="578.1136"
	cy="408.9724"
	r="10"
	stroke="black"
	fill="rgb(0,0,0)" />
<line
	class="arc1"
	id="link25_@1_26"
	x1="625.16956"
	y1="164.22247"
	x2="670.8161"
	y2="112.38992" />
<line
	class="arc2"
	id="link25_@2_20"
	x1="625.16956"
	y1="164.22247"
	x2="578.1136"
	y2="165.09747" />
<circle
	id="dart25"
	cx="625.16956"
	cy="164.22247"
	r="10"
	stroke="black"
	fill="rgb(0,0,0)" />
<line
	class="arc2"
	id="link23_@2_0"
	x1="670.8161"
	y1="465.11667"
	x2="652.28906"
	y2="501.62875" />
<line
	class="arc0"
	id="link23_@0_28"
	x1="670.8161"
	y1="465.11667"
	x2="875.35156"
	y2="476.73724" />
<circle
	id="dart23"
	cx="670.8161"
	cy="465.11667"
	r="10"
	stroke="black"
	fill="rgb(0,0,0)" />
<line
	class="arc1"
	id="link20_@1_21"
	x1="578.1136"
	y1="165.09747"
	x2="548.4704"
	y2="114.66504" />
<circle
	id="dart20"
	cx="578.1136"
	cy="165.09747"
	r="10"
	stroke="black"
	fill="rgb(0,0,0)" />
<polygon
	points="652.28906,501.62875 856.8245,513.2493 872.82776,519.8362 740.001,537.7303 664.71136,539.1304 460.17587,527.50977 444.17258,520.923 576.9994,503.02884 "
	id="face_7_6_5_4_3_2_1_0"
	style="fill:rgb(192,192,192);stroke:none"
	opacity="1.0" />
<line
	class="arc1"
	id="link0_@1_1"
	x1="652.28906"
	y1="501.62875"
	x2="576.9994"
	y2="503.02884" />
<line
	class="arc0"
	id="link0_@0_7"
	x1="652.28906"
	y1="501.62875"
	x2="856.8245"
	y2="513.2493" />
<circle
	id="dart0"
	cx="652.28906"
	cy="501.62875"
	r="10"
	stroke="black"
	fill="rgb(0,0,0)" />
<line
	class="arc2"
	id="link18_@2_1"
	x1="548.4704"
	y1="467.39178"
	x2="576.9994"
	y2="503.02884" />
<line
	class="arc0"
	id="link18_@0_13"
	x1="548.4704"
	y1="467.39178"
	x2="415.64352"
	y2="485.2859" />
<circle
	id="dart18"
	cx="548.4704"
	cy="467.39178"
	r="10"
	stroke="black"
	fill="rgb(0,0,0)" />
<line
	class="arc2"
	id="link26_@2_27"
	x1="670.8161"
	y1="112.38992"
	x2="652.28906"
	y2="80.86969" />
<line
	class="arc0"
	id="link26_@0_31"
	x1="670.8161"
	y1="112.38992"
	x2="875.35156"
	y2="124.01053" />
<circle
	id="dart26"
	cx="670.8161"
	cy="112.38992"
	r="10"
	stroke="black"
	fill="rgb(0,0,0)" />
<line
	class="arc0"
	id="link1_@0_2"
	x1="576.9994"
	y1="503.02884"
	x2="444.17258"
	y2="520.923" />
<circle
	id="dart1"
	cx="576.9994"
	cy="503.02884"
	r="10"
	stroke="black"
	fill="rgb(0,0,0)" />
<line
	class="arc2"
	id="link21_@2_22"
	x1="548.4704"
	y1="114.66504"
	x2="576.9994"
	y2="82.269775" />
<line
	class="arc0"
	id="link21_@0_16"
	x1="548.4704"
	y1="114.66504"
	x2="415.64352"
	y2="132.55917" />
<circle
	id="dart21"
	cx="548.4704"
	cy="114.66504"
	r="10"
	stroke="black"
	fill="rgb(0,0,0)" />
<polygon
	points="652.28906,80.86969 856.8245,92.490295 872.82776,99.07709 740.001,116.97122 664.71136,118.37128 460.17587,106.75073 444.17258,100.16388 576.9994,82.269775 "
	id="face_32_37_42_47_12_17_22_27"
	style="fill:rgb(192,192,192);stroke:none"
	opacity="1.0" />
<line
	class="arc1"
	id="link27_@1_22"
	x1="652.28906"
	y1="80.86969"
	x2="576.9994"
	y2="82.269775" />
<line
	class="arc0"
	id="link27_@0_32"
	x1="652.28906"
	y1="80.86969"
	x2="856.8245"
	y2="92.490295" />
<circle
	id="dart27"
	cx="652.28906"
	cy="80.86969"
	r="10"
	stroke="black"
	fill="rgb(0,0,0)" />
<line
	class="arc0"
	id="link22_@0_17"
	x1="576.9994"
	y1="82.269775"
	x2="444.17258"
	y2="100.16388" />
<circle
	id="dart22"
	cx="576.9994"
	cy="82.269775"
	r="10"
	stroke="black"
	fill="rgb(0,0,0)" />
<line
	class="arc1"
	id="link28_@1_29"
	x1="875.35156"
	y1="476.73724"
	x2="920.9979"
	y2="424.9047" />
<line
	class="arc2"
	id="link28_@2_7"
	x1="875.35156"
	y1="476.73724"
	x2="856.8245"
	y2="513.2493" />
<circle
	id="dart28"
	cx="875.35156"
	cy="476.73724"
	r="10"
	stroke="black"
	fill="rgb(0,0,0)" />
<line
	class="arc1"
	id="link7_@1_6"
	x1="856.8245"
	y1="513.2493"
	x2="872.82776"
	y2="519.8362" />
<circle
	id="dart7"
	cx="856.8245"
	cy="513.2493"
	r="10"
	stroke="black"
	fill="rgb(0,0,0)" />
<line
	class="arc1"
	id="link31_@1_30"
	x1="875.35156"
	y1="124.01053"
	x2="920.9979"
	y2="181.02975" />
<line
	class="arc2"
	id="link31_@2_32"
	x1="875.35156"
	y1="124.01053"
	x2="856.8245"
	y2="92.490295" />
<circle
	id="dart31"
	cx="875.35156"
	cy="124.01053"
	r="10"
	stroke="black"
	fill="rgb(0,0,0)" />
<line
	class="arc2"
	id="link29_@2_34"
	x1="920.9979"
	y1="424.9047"
	x2="931.0"
	y2="429.02148" />
<line
	class="arc0"
	id="link29_@0_30"
	x1="920.9979"
	y1="424.9047"
	x2="920.9979"
	y2="181.02975" />
<circle
	id="dart29"
	cx="920.9979"
	cy="424.9047"
	r="10"
	stroke="black"
	fill="rgb(0,0,0)" />
<line
	class="arc2"
	id="link30_@2_35"
	x1="920.9979"
	y1="181.02975"
	x2="931.0"
	y2="185.14655" />
<circle
	id="dart30"
	cx="920.9979"
	cy="181.02975"
	r="10"
	stroke="black"
	fill="rgb(0,0,0)" />
<line
	class="arc1"
	id="link32_@1_37"
	x1="856.8245"
	y1="92.490295"
	x2="872.82776"
	y2="99.07709" />
<circle
	id="dart32"
	cx="856.8245"
	cy="92.490295"
	r="10"
	stroke="black"
	fill="rgb(0,0,0)" />
<polygon
	points="931.0,429.02148 931.0,185.14655 901.3568,134.71411 768.52997,152.60825 738.8868,211.02759 738.8868,454.90247 768.52997,505.33496 901.3568,487.44083 "
	id="face_35_36_41_40_39_38_33_34"
	style="fill:rgb(192,192,192);stroke:none"
	opacity="1.0" />
<line
	class="arc1"
	id="link34_@1_33"
	x1="931.0"
	y1="429.02148"
	x2="901.3568"
	y2="487.44083" />
<line
	class="arc0"
	id="link34_@0_35"
	x1="931.0"
	y1="429.02148"
	x2="931.0"
	y2="185.14655" />
<circle
	id="dart34"
	cx="931.0"
	cy="429.02148"
	r="10"
	stroke="black"
	fill="rgb(0,0,0)" />
<line
	class="arc1"
	id="link13_@1_14"
	x1="415.64352"
	y1="485.2859"
	x2="386.00037"
	y2="434.85345" />
<line
	class="arc2"
	id="link13_@2_2"
	x1="415.64352"
	y1="485.2859"
	x2="444.17258"
	y2="520.923" />
<circle
	id="dart13"
	cx="415.64352"
	cy="485.2859"
	r="10"
	stroke="black"
	fill="rgb(0,0,0)" />
<line
	class="arc2"
	id="link6_@2_33"
	x1="872.82776"
	y1="519.8362"
	x2="901.3568"
	y2="487.44083" />
<line
	class="arc0"
	id="link6_@0_5"
	x1="872.82776"
	y1="519.8362"
	x2="740.001"
	y2="537.7303" />
<circle
	id="dart6"
	cx="872.82776"
	cy="519.8362"
	r="10"
	stroke="black"
	fill="rgb(0,0,0)" />
<line
	class="arc1"
	id="link35_@1_36"
	x1="931.0"
	y1="185.14655"
	x2="901.3568"
	y2="134.71411" />
<circle
	id="dart35"
	cx="931.0"
	cy="185.14655"
	r="10"
	stroke="black"
	fill="rgb(0,0,0)" />
<line
	class="arc1"
	id="link2_@1_3"
	x1="444.17258"
	y1="520.923"
	x2="460.17587"
	y2="527.50977" />
<circle
	id="dart2"
	cx="444.17258"
	cy="520.923"
	r="10"
	stroke="black"
	fill="rgb(0,0,0)" />
<line
	class="arc0"
	id="link33_@0_38"
	x1="901.3568"
	y1="487.44083"
	x2="768.52997"
	y2="505.33496" />
<circle
	id="dart33"
	cx="901.3568"
	cy="487.44083"
	r="10"
	stroke="black"
	fill="rgb(0,0,0)" />
<line
	class="arc1"
	id="link16_@1_15"
	x1="415.64352"
	y1="132.55917"
	x2="386.00037"
	y2="190.97855" />
<line
	class="arc2"
	id="link16_@2_17"
	x1="415.64352"
	y1="132.55917"
	x2="444.17258"
	y2="100.16388" />
<circle
	id="dart16"
	cx="415.64352"
	cy="132.55917"
	r="10"
	stroke="black"
	fill="rgb(0,0,0)" />
<line
	class="arc2"
	id="link37_@2_36"
	x1="872.82776"
	y1="99.07709"
	x2="901.3568"
	y2="134.71411" />
<line
	class="arc0"
	id="link37_@0_42"
	x1="872.82776"
	y1="99.07709"
	x2="740.001"
	y2="116.97122" />
<circle
	id="dart37"
	cx="872.82776"
	cy="99.07709"
	r="10"
	stroke="black"
	fill="rgb(0,0,0)" />
<line
	class="arc2"
	id="link14_@2_9"
	x1="386.00037"
	y1="434.85345"
	x2="396.00244"
	y2="438.9702" />
<line
	class="arc0"
	id="link14_@0_15"
	x1="386.00037"
	y1="434.85345"
	x2="386.00037"
	y2="190.97855" />
<circle
	id="dart14"
	cx="386.00037"
	cy="434.85345"
	r="10"
	stroke="black"
	fill="rgb(0,0,0)" />
<line
	class="arc1"
	id="link17_@1_12"
	x1="444.17258"
	y1="100.16388"
	x2="460.17587"
	y2="106.75073" />
<circle
	id="dart17"
	cx="444.17258"
	cy="100.16388"
	r="10"
	stroke="black"
	fill="rgb(0,0,0)" />
<line
	class="arc0"
	id="link36_@0_41"
	x1="901.3568"
	y1="134.71411"
	x2="768.52997"
	y2="152.60825" />
<circle
	id="dart36"
	cx="901.3568"
	cy="134.71411"
	r="10"
	stroke="black"
	fill="rgb(0,0,0)" />
<line
	class="arc2"
	id="link15_@2_10"
	x1="386.00037"
	y1="190.97855"
	x2="396.00244"
	y2="195.0953" />
<circle
	id="dart15"
	cx="386.00037"
	cy="190.97855"
	r="10"
	stroke="black"
	fill="rgb(0,0,0)" />
<line
	class="arc2"
	id="link3_@2_8"
	x1="460.17587"
	y1="527.50977"
	x2="441.64893"
	y2="495.9895" />
<line
	class="arc0"
	id="link3_@0_4"
	x1="460.17587"
	y1="527.50977"
	x2="664.71136"
	y2="539.1304" />
<polygon
	points="396.00244,438.9702 396.00244,195.0953 441.64893,143.26276 646.1844,154.88336 691.8308,211.90262 691.8308,455.77753 646.1844,507.61008 441.64893,495.9895 "
	id="face_10_11_46_45_44_43_8_9"
	style="fill:rgb(192,192,192);stroke:none"
	opacity="1.0" />
<line
	class="arc1"
	id="link9_@1_8"
	x1="396.00244"
	y1="438.9702"
	x2="441.64893"
	y2="495.9895" />
<line
	class="arc0"
	id="link9_@0_10"
	x1="396.00244"
	y1="438.9702"
	x2="396.00244"
	y2="195.0953" />
<circle
	id="dart9"
	cx="396.00244"
	cy="438.9702"
	r="10"
	stroke="black"
	fill="rgb(0,0,0)" />
<line
	class="arc1"
	id="link10_@1_11"
	x1="396.00244"
	y1="195.0953"
	x2="441.64893"
	y2="143.26276" />
<circle
	id="dart10"
	cx="396.00244"
	cy="195.0953"
	r="10"
	stroke="black"
	fill="rgb(0,0,0)" />
<line
	class="arc0"
	id="link8_@0_43"
	x1="441.64893"
	y1="495.9895"
	x2="646.1844"
	y2="507.61008" />
<circle
	id="dart8"
	cx="441.64893"
	cy="495.9895"
	r="10"
	stroke="black"
	fill="rgb(0,0,0)" />
<line
	class="arc2"
	id="link12_@2_11"
	x1="460.17587"
	y1="106.75073"
	x2="441.64893"
	y2="143.26276" />
<line
	class="arc0"
	id="link12_@0_47"
	x1="460.17587"
	y1="106.75073"
	x2="664.71136"
	y2="118.37128" />
<circle
	id="dart12"
	cx="460.17587"
	cy="106.75073"
	r="10"
	stroke="black"
	fill="rgb(0,0,0)" />
<line
	class="arc0"
	id="link11_@0_46"
	x1="441.64893"
	y1="143.26276"
	x2="646.1844"
	y2="154.88336" />
<circle
	id="dart11"
	cx="441.64893"
	cy="143.26276"
	r="10"
	stroke="black"
	fill="rgb(0,0,0)" />
<line
	class="arc1"
	id="link5_@1_4"
	x1="740.001"
	y1="537.7303"
	x2="664.71136"
	y2="539.1304" />
<line
	class="arc2"
	id="link5_@2_38"
	x1="740.001"
	y1="537.7303"
	x2="768.52997"
	y2="505.33496" />
<circle
	id="dart5"
	cx="740.001"
	cy="537.7303"
	r="10"
	stroke="black"
	fill="rgb(0,0,0)" />
<line
	class="arc2"
	id="link4_@2_43"
	x1="664.71136"
	y1="539.1304"
	x2="646.1844"
	y2="507.61008" />
<circle
	id="dart4"
	cx="664.71136"
	cy="539.1304"
	r="10"
	stroke="black"
	fill="rgb(0,0,0)" />
<line
	class="arc1"
	id="link38_@1_39"
	x1="768.52997"
	y1="505.33496"
	x2="738.8868"
	y2="454.90247" />
<circle
	id="dart38"
	cx="768.52997"
	cy="505.33496"
	r="10"
	stroke="black"
	fill="rgb(0,0,0)" />
<line
	class="arc1"
	id="link42_@1_47"
	x1="740.001"
	y1="116.97122"
	x2="664.71136"
	y2="118.37128" />
<line
	class="arc2"
	id="link42_@2_41"
	x1="740.001"
	y1="116.97122"
	x2="768.52997"
	y2="152.60825" />
<circle
	id="dart42"
	cx="740.001"
	cy="116.97122"
	r="10"
	stroke="black"
	fill="rgb(0,0,0)" />
<line
	class="arc1"
	id="link43_@1_44"
	x1="646.1844"
	y1="507.61008"
	x2="691.8308"
	y2="455.77753" />
<circle
	id="dart43"
	cx="646.1844"
	cy="507.61008"
	r="10"
	stroke="black"
	fill="rgb(0,0,0)" />
<line
	class="arc1"
	id="link41_@1_40"
	x1="768.52997"
	y1="152.60825"
	x2="738.8868"
	y2="211.02759" />
<circle
	id="dart41"
	cx="768.52997"
	cy="152.60825"
	r="10"
	stroke="black"
	fill="rgb(0,0,0)" />
<line
	class="arc2"
	id="link47_@2_46"
	x1="664.71136"
	y1="118.37128"
	x2="646.1844"
	y2="154.88336" />
<circle
	id="dart47"
	cx="664.71136"
	cy="118.37128"
	r="10"
	stroke="black"
	fill="rgb(0,0,0)" />
<line
	class="arc2"
	id="link39_@2_44"
	x1="738.8868"
	y1="454.90247"
	x2="691.8308"
	y2="455.77753" />
<line
	class="arc0"
	id="link39_@0_40"
	x1="738.8868"
	y1="454.90247"
	x2="738.8868"
	y2="211.02759" />
<circle
	id="dart39"
	cx="738.8868"
	cy="454.90247"
	r="10"
	stroke="black"
	fill="rgb(0,0,0)" />
<line
	class="arc1"
	id="link46_@1_45"
	x1="646.1844"
	y1="154.88336"
	x2="691.8308"
	y2="211.90262" />
<circle
	id="dart46"
	cx="646.1844"
	cy="154.88336"
	r="10"
	stroke="black"
	fill="rgb(0,0,0)" />
<line
	class="arc0"
	id="link44_@0_45"
	x1="691.8308"
	y1="455.77753"
	x2="691.8308"
	y2="211.90262" />
<circle
	id="dart44"
	cx="691.8308"
	cy="455.77753"
	r="10"
	stroke="black"
	fill="rgb(0,0,0)" />
<line
	class="arc2"
	id="link40_@2_45"
	x1="738.8868"
	y1="211.02759"
	x2="691.8308"
	y2="211.90262" />
<circle
	id="dart40"
	cx="738.8868"
	cy="211.02759"
	r="10"
	stroke="black"
	fill="rgb(0,0,0)" />
<circle
	id="dart45"
	cx="691.8308"
	cy="211.90262"
	r="10"
	stroke="black"
	fill="rgb(0,0,0)" />
</svg>
