<?xml version="1.0" encoding="UTF-8" standalone="no"?>
<!-- Created with Jerboa -->

<svg
   width="343.06683"
   height="291.10272"
   version="1.1"
   id="svg20476"
   sodipodi:docname="demo-fig-extrusion-right-match.svg"
   inkscape:version="1.2.2 (b0a8486541, 2022-12-01)"
   xmlns:inkscape="http://www.inkscape.org/namespaces/inkscape"
   xmlns:sodipodi="http://sodipodi.sourceforge.net/DTD/sodipodi-0.dtd"
   xmlns="http://www.w3.org/2000/svg"
   xmlns:svg="http://www.w3.org/2000/svg">
  <defs
     id="defs20480" />
  <sodipodi:namedview
     id="namedview20478"
     pagecolor="#ffffff"
     bordercolor="#000000"
     borderopacity="0.25"
     inkscape:showpageshadow="2"
     inkscape:pageopacity="0.0"
     inkscape:pagecheckerboard="0"
     inkscape:deskcolor="#d1d1d1"
     showgrid="false"
     inkscape:zoom="1.8677918"
     inkscape:cx="46.043676"
     inkscape:cy="144.28803"
     inkscape:window-width="1908"
     inkscape:window-height="1048"
     inkscape:window-x="5"
     inkscape:window-y="25"
     inkscape:window-maximized="1"
     inkscape:current-layer="svg20476" />
  <style
     id="style">
		.arc0 {
			fill:none;
			fill-rule:evenodd;
			stroke:black;
			stroke-width:4;
			stroke-linecap:round;
			stroke-linejoin:round;
			stroke-opacity:1;
		}
		.arc1 {
			fill:none;
			fill-rule:evenodd;
			stroke:red;
			stroke-width:4;
			stroke-linecap:round;
			stroke-linejoin:round;
			stroke-opacity:1;
		}
		.arc2 {
			fill:none;
			fill-rule:evenodd;
			stroke:blue;
			stroke-width:4;
			stroke-linecap:round;
			stroke-linejoin:round;
			stroke-opacity:1;
		}
		.arc3 {
			fill:none;
			fill-rule:evenodd;
			stroke:green;
			stroke-width:4;
			stroke-linecap:round;
			stroke-linejoin:round;
			stroke-opacity:1;
		}
		.topological-dart {
			fill:#000000;
			stroke:#000000;
			stroke-width:0;
			stroke-linecap:round;
			stroke-linejoin:round;
			stroke-dasharray:none;
			paint-order:markers fill stroke;
		}
	</style>
  <circle
     id="dart39"
     cx="101.20946"
     cy="237.95042"
     r="8"
     stroke="#000000"
     fill="#000000"
     style="stroke-width:0.4" />
  <polygon
     points="547.66656,257.36804 547.66656,370.32016 575.5325,414.47678 640.676,404.752 668.5419,352.27567 668.5419,239.32352 640.676,195.16684 575.5325,204.89163 "
     id="face_41_42_48_47_46_45_39_40"
     style="fill:#c0c0c0;stroke:none"
     opacity="1"
     transform="translate(-539.46656,-166.80159)" />
  <path
     style="opacity:1;fill:#c0c0c0;fill-opacity:0.802259;stroke:#7d5cff;stroke-width:13.3333;stroke-linecap:round;stroke-linejoin:round;stroke-dasharray:none;stroke-opacity:0.8;stop-color:#000000"
     d="m 290.09914,33.40788 16.9018,10.01963"
     id="path37655" />
  <path
     style="opacity:1;fill:none;fill-opacity:0.5;stroke:#7d5cff;stroke-width:13.3333;stroke-linecap:round;stroke-linejoin:round;stroke-dasharray:none;stroke-opacity:0.8;stop-color:#000000"
     d="m 101.20947,28.365253 -65.143565,9.72479"
     id="path32461" />
  <path
     style="opacity:1;fill:#c0c0c0;fill-opacity:0.369323;stroke:#7d5cff;stroke-width:13.3333;stroke-linecap:round;stroke-linejoin:round;stroke-dasharray:none;stroke-opacity:0.8;stop-color:#000000"
     d="M 101.20947,28.365253 197.06451,26.59856"
     id="path37711" />
  <circle
     id="dart42"
     cx="101.20946"
     cy="28.365253"
     r="8"
     stroke="#000000"
     fill="#000000"
     style="stroke-width:0.4" />
  <circle
     id="dart32"
     cx="185.45372"
     cy="258.04886"
     r="8"
     stroke="#000000"
     fill="#000000"
     style="stroke-width:0.4" />
  <circle
     id="dart33"
     cx="197.0645"
     cy="236.1837"
     r="8"
     stroke="#000000"
     fill="#000000"
     style="stroke-width:0.4" />
  <circle
     id="dart26"
     cx="278.4884"
     cy="264.85822"
     r="8"
     stroke="#000000"
     fill="#000000"
     style="stroke-width:0.4" />
  <circle
     id="dart38"
     cx="117.79137"
     cy="259.29596"
     r="8"
     stroke="#000000"
     fill="#000000"
     style="stroke-width:0.4" />
  <circle
     id="dart27"
     cx="290.09912"
     cy="242.99306"
     r="8"
     stroke="#000000"
     fill="#000000"
     style="stroke-width:0.4" />
  <path
     style="opacity:1;fill:#c0c0c0;fill-opacity:0.369323;stroke:#7d5cff;stroke-width:13.3333;stroke-linecap:round;stroke-linejoin:round;stroke-dasharray:none;stroke-opacity:0.8;stop-color:#000000"
     d="M 36.065905,38.090043 52.967762,48.109638"
     id="path37713" />
  <polygon
     points="869.3623,251.43881 869.3623,364.39093 829.5657,409.79465 736.53107,402.9853 696.73456,351.756 696.73456,238.8039 736.53107,193.40015 829.5657,200.20947 "
     id="face_35_36_30_29_28_27_33_34"
     style="fill:#c0c0c0;fill-opacity:0.797211;stroke:none"
     opacity="1"
     transform="translate(-539.46656,-166.80159)" />
  <path
     style="opacity:1;fill:none;fill-opacity:0.5;stroke:#7d5cff;stroke-width:13.3333;stroke-linecap:round;stroke-linejoin:round;stroke-dasharray:none;stroke-opacity:0.8;stop-color:#000000"
     d="m 290.09914,33.407883 -93.03463,-6.80932"
     id="path32459" />
  <circle
     id="dart30"
     cx="290.09912"
     cy="33.407887"
     r="8"
     stroke="#000000"
     fill="#000000"
     style="stroke-width:0.4" />
  <line
     class="arc1"
     id="link34_@1_33"
     x1="157.26799"
     y1="184.95442"
     x2="197.0645"
     y2="236.1837" />
  <line
     class="arc0"
     id="link34_@0_35"
     x1="157.26799"
     y1="184.95442"
     x2="157.26799"
     y2="72.002304" />
  <line
     class="arc1"
     id="link40_@1_39"
     x1="129.0753"
     y1="185.47408"
     x2="101.20946"
     y2="237.95042" />
  <line
     class="arc0"
     id="link40_@0_41"
     x1="129.0753"
     y1="185.47408"
     x2="129.0753"
     y2="72.521927" />
  <line
     class="arc1"
     id="link35_@1_36"
     x1="157.26799"
     y1="72.002304"
     x2="197.0645"
     y2="26.59856" />
  <line
     class="arc1"
     id="link41_@1_42"
     x1="129.0753"
     y1="72.521927"
     x2="101.20946"
     y2="28.365253" />
  <line
     class="arc2"
     id="link33_@2_32"
     x1="197.0645"
     y1="236.1837"
     x2="185.45372"
     y2="258.04886" />
  <line
     class="arc0"
     id="link33_@0_27"
     x1="197.0645"
     y1="236.1837"
     x2="290.09912"
     y2="242.99306" />
  <polygon
     points="697.07965,449.70428 604.04504,442.89496 592.1144,435.8223 657.25793,426.09753 724.9203,424.85043 817.95496,431.6598 829.8857,438.73242 764.7421,448.4572 "
     id="face_26_20_14_8_50_44_38_32"
     style="opacity:1;fill:#c0c0c0;stroke:none"
     opacity="1.0"
     transform="translate(-539.46656,-166.80159)" />
  <path
     style="opacity:1;fill:none;fill-opacity:0.526082;stroke:#ffc000;stroke-width:13.3333;stroke-linecap:round;stroke-linejoin:round;stroke-dasharray:none;stroke-opacity:0.8;stop-color:#000000"
     d="m 117.79137,259.29594 -65.143555,9.72477 11.93066,7.07266 93.034615,6.80932 67.66248,-1.24707 65.14357,-9.72479 -11.93074,-7.07262 -93.03467,-6.80937 z"
     id="path20927" />
  <line
     class="arc1"
     id="link32_@1_38"
     x1="185.45372"
     y1="258.04886"
     x2="117.79137"
     y2="259.29596" />
  <line
     class="arc0"
     id="link32_@0_26"
     x1="185.45372"
     y1="258.04886"
     x2="278.4884"
     y2="264.85822" />
  <line
     class="arc2"
     id="link39_@2_38"
     x1="101.20946"
     y1="237.95042"
     x2="117.79137"
     y2="259.29596" />
  <line
     class="arc0"
     id="link39_@0_45"
     x1="101.20946"
     y1="237.95042"
     x2="36.065907"
     y2="247.67519" />
  <line
     class="arc2"
     id="link36_@2_37"
     x1="197.0645"
     y1="26.59856"
     x2="185.45372"
     y2="8.1999998" />
  <line
     class="arc0"
     id="link36_@0_30"
     x1="197.0645"
     y1="26.59856"
     x2="290.09912"
     y2="33.407887" />
  <circle
     id="dart36"
     cx="197.0645"
     cy="26.59856"
     r="8"
     stroke="#000000"
     fill="#000000"
     style="stroke-width:0.4" />
  <line
     class="arc0"
     id="link38_@0_44"
     x1="117.79137"
     y1="259.29596"
     x2="52.647816"
     y2="269.02072" />
  <line
     class="arc2"
     id="link42_@2_43"
     x1="101.20946"
     y1="28.365253"
     x2="117.79137"
     y2="9.4471006" />
  <line
     class="arc0"
     id="link42_@0_48"
     x1="101.20946"
     y1="28.365253"
     x2="36.065907"
     y2="38.090046" />
  <polygon
     points="697.07965,199.85544 604.04504,193.04611 592.1144,185.97345 657.25793,176.24869 724.9203,175.00159 817.95496,181.81097 829.8857,188.88358 764.7421,198.60837 "
     id="face_31_25_19_13_55_49_43_37"
     style="fill:#c0c0c0;fill-opacity:1;stroke:none"
     opacity="1"
     transform="translate(-539.46656,-166.80159)" />
  <path
     style="opacity:1;fill:none;fill-opacity:1;stroke:#00c000;stroke-width:13.3333;stroke-linecap:round;stroke-linejoin:round;stroke-dasharray:none;stroke-opacity:0.8;stop-color:#000000"
     d="M 64.578476,26.244526 157.61309,33.05385 225.27554,31.80678 290.41913,22.081989 278.4884,15.009387 185.45372,8.2 117.79137,9.4471008 52.647816,19.171864 Z"
     id="path37333" />
  <line
     class="arc1"
     id="link37_@1_43"
     x1="185.45372"
     y1="8.1999998"
     x2="117.79137"
     y2="9.4471006" />
  <line
     class="arc0"
     id="link37_@0_31"
     x1="185.45372"
     y1="8.1999998"
     x2="278.4884"
     y2="15.009387" />
  <circle
     id="dart37"
     cx="185.45372"
     cy="8.1999998"
     r="8"
     stroke="#000000"
     fill="#000000"
     style="stroke-width:0.4" />
  <line
     class="arc0"
     id="link43_@0_49"
     x1="117.79137"
     y1="9.4471006"
     x2="52.647816"
     y2="19.171864" />
  <circle
     id="dart35"
     cx="157.26799"
     cy="72.002304"
     r="8"
     stroke="#000000"
     fill="#000000"
     style="stroke-width:0.4" />
  <polygon
     points="725.2655,385.902 685.46893,431.30573 592.4343,424.49634 552.63776,373.2671 552.63776,260.315 592.4343,214.91122 685.46893,221.72055 725.2655,272.94986 "
     id="face_53_54_12_11_10_9_51_52"
     style="opacity:1;fill:#c0c0c0;fill-opacity:0.797211;stroke:none"
     opacity="1.0"
     transform="translate(-539.46657,-166.80159)" />
  <circle
     id="dart41"
     cx="129.0753"
     cy="72.521927"
     r="8"
     stroke="#000000"
     fill="#000000"
     style="stroke-width:0.4" />
  <line
     class="arc2"
     id="link35_@2_41"
     x1="157.26799"
     y1="72.002304"
     x2="129.0753"
     y2="72.521927" />
  <path
     style="opacity:1;fill:none;fill-opacity:1;stroke:#c1272d;stroke-width:13.3333;stroke-linecap:round;stroke-linejoin:round;stroke-dasharray:none;stroke-opacity:0.8;stop-color:#000000"
     d="m 13.171191,93.513412 172.627739,12.634858 28.19261,-0.51959 120.8753,-18.0445 -4.9711,-2.94696 L 157.26799,72.002304 129.07534,72.52193 8.2,90.566452 Z"
     id="path37548" />
  <circle
     id="dart40"
     cx="129.0753"
     cy="185.47408"
     r="8"
     stroke="#000000"
     fill="#000000"
     style="stroke-width:0.4" />
  <circle
     id="dart43"
     cx="117.79137"
     cy="9.4471006"
     r="8"
     stroke="#000000"
     fill="#000000"
     style="stroke-width:0.4" />
  <line
     class="arc1"
     id="link27_@1_28"
     x1="290.09912"
     y1="242.99306"
     x2="329.89575"
     y2="197.58934" />
  <line
     class="arc2"
     id="link27_@2_26"
     x1="290.09912"
     y1="242.99306"
     x2="278.4884"
     y2="264.85822" />
  <line
     class="arc1"
     id="link26_@1_20"
     x1="278.4884"
     y1="264.85822"
     x2="290.41913"
     y2="271.93085" />
  <line
     class="arc1"
     id="link30_@1_29"
     x1="290.09912"
     y1="33.407887"
     x2="329.89575"
     y2="84.637222" />
  <line
     class="arc2"
     id="link30_@2_31"
     x1="290.09912"
     y1="33.407887"
     x2="278.4884"
     y2="15.009387" />
  <line
     class="arc0"
     id="link28_@0_29"
     x1="329.89575"
     y1="197.58934"
     x2="329.89575"
     y2="84.637222" />
  <circle
     id="dart28"
     cx="329.89575"
     cy="197.58934"
     r="8"
     stroke="#000000"
     fill="#000000"
     style="stroke-width:0.4" />
  <line
     class="arc1"
     id="link31_@1_25"
     x1="278.4884"
     y1="15.009387"
     x2="290.41913"
     y2="22.081989" />
  <circle
     id="dart31"
     cx="278.4884"
     cy="15.009387"
     r="8"
     stroke="#000000"
     fill="#000000"
     style="stroke-width:0.4" />
  <circle
     id="dart29"
     cx="329.89575"
     cy="84.637222"
     r="8"
     stroke="#000000"
     fill="#000000"
     style="stroke-width:0.4" />
  <line
     class="arc1"
     id="link45_@1_46"
     x1="36.065907"
     y1="247.67519"
     x2="8.1999998"
     y2="203.51857" />
  <line
     class="arc2"
     id="link45_@2_44"
     x1="36.065907"
     y1="247.67519"
     x2="52.647816"
     y2="269.02072" />
  <circle
     id="dart45"
     cx="36.065907"
     cy="247.67519"
     r="8"
     stroke="#000000"
     fill="#000000"
     style="stroke-width:0.4" />
  <line
     class="arc1"
     id="link44_@1_50"
     x1="52.647816"
     y1="269.02072"
     x2="64.578476"
     y2="276.09338" />
  <circle
     id="dart44"
     cx="52.647816"
     cy="269.02072"
     r="8"
     stroke="#000000"
     fill="#000000"
     style="stroke-width:0.4" />
  <polygon
     points="781.324,429.539 846.4675,419.8142 874.3334,367.33786 874.3334,254.38577 846.4675,210.2291 781.324,219.95386 753.4581,272.43027 753.4581,385.3824 "
     id="face_23_24_18_17_16_15_21_22"
     style="fill:none;fill-opacity:0.149942;stroke:none"
     opacity="1"
     transform="translate(-539.46656,-166.80159)" />
  <line
     class="arc1"
     id="link22_@1_21"
     x1="334.86682"
     y1="200.53627"
     x2="307.00098"
     y2="253.01262" />
  <line
     class="arc0"
     id="link22_@0_23"
     x1="334.86682"
     y1="200.53627"
     x2="334.86682"
     y2="87.584183" />
  <line
     class="arc1"
     id="link48_@1_47"
     x1="36.065907"
     y1="38.090046"
     x2="8.1999998"
     y2="90.566452" />
  <line
     class="arc2"
     id="link48_@2_49"
     x1="36.065907"
     y1="38.090046"
     x2="52.647816"
     y2="19.171864" />
  <circle
     id="dart47"
     cx="8.1999998"
     cy="90.566452"
     r="8"
     stroke="#000000"
     fill="#000000"
     style="stroke-width:0.4" />
  <circle
     id="dart48"
     cx="36.065907"
     cy="38.090046"
     r="8"
     stroke="#000000"
     fill="#000000"
     style="stroke-width:0.4" />
  <line
     class="arc1"
     id="link23_@1_24"
     x1="334.86682"
     y1="87.584183"
     x2="307.00098"
     y2="43.427509" />
  <circle
     id="dart23"
     cx="334.86682"
     cy="87.584183"
     r="8"
     stroke="#000000"
     fill="#000000"
     style="stroke-width:0.4" />
  <line
     class="arc2"
     id="link29_@2_23"
     x1="329.89575"
     y1="84.637222"
     x2="334.86682"
     y2="87.584183" />
  <line
     class="arc1"
     id="link49_@1_55"
     x1="52.647816"
     y1="19.171864"
     x2="64.578476"
     y2="26.244526" />
  <circle
     id="dart49"
     cx="52.647816"
     cy="19.171864"
     r="8"
     stroke="#000000"
     fill="#000000"
     style="stroke-width:0.4" />
  <line
     class="arc2"
     id="link20_@2_21"
     x1="290.41913"
     y1="271.93085"
     x2="307.00098"
     y2="253.01262" />
  <line
     class="arc0"
     id="link20_@0_14"
     x1="290.41913"
     y1="271.93085"
     x2="225.27556"
     y2="281.65564" />
  <circle
     id="dart20"
     cx="290.41913"
     cy="271.93085"
     r="8"
     stroke="#000000"
     fill="#000000"
     style="stroke-width:0.4" />
  <line
     class="arc0"
     id="link46_@0_47"
     x1="8.1999998"
     y1="203.51857"
     x2="8.1999998"
     y2="90.566452" />
  <circle
     id="dart46"
     cx="8.1999998"
     cy="203.51857"
     r="8"
     stroke="#000000"
     fill="#000000"
     style="stroke-width:0.4" />
  <line
     class="arc0"
     id="link21_@0_15"
     x1="307.00098"
     y1="253.01262"
     x2="241.85741"
     y2="262.73743" />
  <circle
     id="dart21"
     cx="307.00098"
     cy="253.01262"
     r="8"
     stroke="#000000"
     fill="#000000"
     style="stroke-width:0.4" />
  <line
     class="arc2"
     id="link25_@2_24"
     x1="290.41913"
     y1="22.081989"
     x2="307.00098"
     y2="43.427509" />
  <line
     class="arc0"
     id="link25_@0_19"
     x1="290.41913"
     y1="22.081989"
     x2="225.27556"
     y2="31.806782" />
  <circle
     id="dart25"
     cx="290.41913"
     cy="22.081989"
     r="8"
     stroke="#000000"
     fill="#000000"
     style="stroke-width:0.4" />
  <path
     style="opacity:1;fill:none;fill-opacity:0.5;stroke:#7d5cff;stroke-width:13.3333;stroke-linecap:round;stroke-linejoin:round;stroke-dasharray:none;stroke-opacity:0.8;stop-color:#000000"
     d="m 241.85744,53.152273 65.14353,-9.72476"
     id="path32457" />
  <line
     class="arc0"
     id="link24_@0_18"
     x1="307.00098"
     y1="43.427509"
     x2="241.85741"
     y2="53.152271" />
  <circle
     id="dart24"
     cx="307.00098"
     cy="43.427509"
     r="8"
     stroke="#000000"
     fill="#000000"
     style="stroke-width:0.4" />
  <line
     class="arc1"
     id="link52_@1_51"
     x1="13.171191"
     y1="206.4655"
     x2="52.967762"
     y2="257.69476" />
  <circle
     id="dart34"
     cx="157.26799"
     cy="184.95442"
     r="8"
     stroke="#000000"
     fill="#000000"
     style="stroke-width:0.4" />
  <line
     class="arc2"
     id="link34_@2_40"
     x1="157.26799"
     y1="184.95442"
     x2="129.0753"
     y2="185.47408" />
  <path
     style="opacity:1;fill:#c0c0c0;fill-opacity:0.289477;stroke:#c004c0;stroke-width:13.3333;stroke-linecap:round;stroke-linejoin:round;stroke-dasharray:none;stroke-opacity:0.8;stop-color:#000000"
     d="m 129.0753,185.47408 28.19269,-0.51966 172.62775,12.63492 4.97108,2.94693 -120.87528,18.04454 -28.19261,0.51961 L 13.1712,206.46552 8.2,203.51857 Z"
     id="path37443" />
  <circle
     id="dart22"
     cx="334.86682"
     cy="200.53627"
     r="8"
     stroke="#000000"
     fill="#000000"
     style="stroke-width:0.4" />
  <line
     class="arc0"
     id="link52_@0_53"
     x1="13.171191"
     y1="206.4655"
     x2="13.171191"
     y2="93.513412" />
  <line
     class="arc2"
     id="link28_@2_22"
     x1="329.89575"
     y1="197.58934"
     x2="334.86682"
     y2="200.53627" />
  <circle
     id="dart52"
     cx="13.171191"
     cy="206.4655"
     r="8"
     stroke="#000000"
     fill="#000000"
     style="stroke-width:0.4" />
  <line
     class="arc2"
     id="link46_@2_52"
     x1="8.1999998"
     y1="203.51857"
     x2="13.171191"
     y2="206.4655" />
  <line
     class="arc2"
     id="link50_@2_51"
     x1="64.578476"
     y1="276.09338"
     x2="52.967762"
     y2="257.69476" />
  <line
     class="arc0"
     id="link50_@0_8"
     x1="64.578476"
     y1="276.09338"
     x2="157.61308"
     y2="282.90271" />
  <circle
     id="dart50"
     cx="64.578476"
     cy="276.09338"
     r="8"
     stroke="#000000"
     fill="#000000"
     style="stroke-width:0.4" />
  <line
     class="arc1"
     id="link53_@1_54"
     x1="13.171191"
     y1="93.513412"
     x2="52.967762"
     y2="48.109638" />
  <circle
     id="dart53"
     cx="13.171191"
     cy="93.513412"
     r="8"
     stroke="#000000"
     fill="#000000"
     style="stroke-width:0.4" />
  <line
     class="arc2"
     id="link47_@2_53"
     x1="8.1999998"
     y1="90.566452"
     x2="13.171191"
     y2="93.513412" />
  <path
     style="opacity:1;fill:none;fill-opacity:0.992512;stroke:#00c0ff;stroke-width:13.3333;stroke-linecap:round;stroke-linejoin:round;stroke-dasharray:none;stroke-opacity:0.8;stop-color:#000000"
     d="m 52.967765,257.69475 93.034605,6.80939 95.85504,-1.76671 65.14357,-9.72481 -16.90186,-10.01956 -93.03462,-6.80936 -95.85504,1.76672 -65.14352,9.72477 z"
     id="path22393" />
  <line
     class="arc0"
     id="link51_@0_9"
     x1="52.967762"
     y1="257.69476"
     x2="146.00237"
     y2="264.50415" />
  <circle
     id="dart51"
     cx="52.967762"
     cy="257.69476"
     r="8"
     stroke="#000000"
     fill="#000000"
     style="stroke-width:0.4" />
  <line
     class="arc2"
     id="link55_@2_54"
     x1="64.578476"
     y1="26.244526"
     x2="52.967762"
     y2="48.109638" />
  <line
     class="arc0"
     id="link55_@0_13"
     x1="64.578476"
     y1="26.244526"
     x2="157.61308"
     y2="33.053852" />
  <circle
     id="dart55"
     cx="64.578476"
     cy="26.244526"
     r="8"
     stroke="#000000"
     fill="#000000"
     style="stroke-width:0.4" />
  <path
     style="opacity:1;fill:none;fill-opacity:0.5;stroke:#7d5cff;stroke-width:13.3333;stroke-linecap:round;stroke-linejoin:round;stroke-dasharray:none;stroke-opacity:0.8;stop-color:#000000"
     d="m 52.967735,48.109633 93.034635,6.80933"
     id="path27433" />
  <line
     class="arc0"
     id="link54_@0_12"
     x1="52.967762"
     y1="48.109638"
     x2="146.00237"
     y2="54.918964" />
  <circle
     id="dart54"
     cx="52.967762"
     cy="48.109638"
     r="8"
     stroke="#000000"
     fill="#000000"
     style="stroke-width:0.4" />
  <line
     class="arc1"
     id="link14_@1_8"
     x1="225.27556"
     y1="281.65564"
     x2="157.61308"
     y2="282.90271" />
  <line
     class="arc2"
     id="link14_@2_15"
     x1="225.27556"
     y1="281.65564"
     x2="241.85741"
     y2="262.73743" />
  <circle
     id="dart14"
     cx="225.27556"
     cy="281.65564"
     r="8"
     stroke="#000000"
     fill="#000000"
     style="stroke-width:0.4" />
  <line
     class="arc2"
     id="link8_@2_9"
     x1="157.61308"
     y1="282.90271"
     x2="146.00237"
     y2="264.50415" />
  <circle
     id="dart8"
     cx="157.61308"
     cy="282.90271"
     r="8"
     stroke="#000000"
     fill="#000000"
     style="stroke-width:0.4" />
  <line
     class="arc1"
     id="link15_@1_16"
     x1="241.85741"
     y1="262.73743"
     x2="213.99156"
     y2="218.5808" />
  <circle
     id="dart15"
     cx="241.85741"
     cy="262.73743"
     r="8"
     stroke="#000000"
     fill="#000000"
     style="stroke-width:0.4" />
  <line
     class="arc1"
     id="link19_@1_13"
     x1="225.27556"
     y1="31.806782"
     x2="157.61308"
     y2="33.053852" />
  <path
     style="opacity:1;fill:#c0c0c0;fill-opacity:0.802259;stroke:#7d5cff;stroke-width:13.3333;stroke-linecap:round;stroke-linejoin:round;stroke-dasharray:none;stroke-opacity:0.8;stop-color:#000000"
     d="m 146.00237,54.918964 95.85507,-1.766691"
     id="path37653" />
  <line
     class="arc2"
     id="link19_@2_18"
     x1="225.27556"
     y1="31.806782"
     x2="241.85741"
     y2="53.152271" />
  <circle
     id="dart19"
     cx="225.27556"
     cy="31.806782"
     r="8"
     stroke="#000000"
     fill="#000000"
     style="stroke-width:0.4" />
  <line
     class="arc1"
     id="link9_@1_10"
     x1="146.00237"
     y1="264.50415"
     x2="185.79893"
     y2="219.10042" />
  <circle
     id="dart9"
     cx="146.00237"
     cy="264.50415"
     r="8"
     stroke="#000000"
     fill="#000000"
     style="stroke-width:0.4" />
  <line
     class="arc1"
     id="link18_@1_17"
     x1="241.85741"
     y1="53.152271"
     x2="213.99156"
     y2="105.62868" />
  <circle
     id="dart18"
     cx="241.85741"
     cy="53.152271"
     r="8"
     stroke="#000000"
     fill="#000000"
     style="stroke-width:0.4" />
  <line
     class="arc2"
     id="link13_@2_12"
     x1="157.61308"
     y1="33.053852"
     x2="146.00237"
     y2="54.918964" />
  <circle
     id="dart13"
     cx="157.61308"
     cy="33.053852"
     r="8"
     stroke="#000000"
     fill="#000000"
     style="stroke-width:0.4" />
  <line
     class="arc1"
     id="link12_@1_11"
     x1="146.00237"
     y1="54.918964"
     x2="185.79893"
     y2="106.14827" />
  <circle
     id="dart12"
     cx="146.00237"
     cy="54.918964"
     r="8"
     stroke="#000000"
     fill="#000000"
     style="stroke-width:0.4" />
  <line
     class="arc2"
     id="link16_@2_10"
     x1="213.99156"
     y1="218.5808"
     x2="185.79893"
     y2="219.10042" />
  <line
     class="arc0"
     id="link16_@0_17"
     x1="213.99156"
     y1="218.5808"
     x2="213.99156"
     y2="105.62868" />
  <circle
     id="dart16"
     cx="213.99156"
     cy="218.5808"
     r="8"
     stroke="#000000"
     fill="#000000"
     style="stroke-width:0.4" />
  <line
     class="arc0"
     id="link10_@0_11"
     x1="185.79893"
     y1="219.10042"
     x2="185.79893"
     y2="106.14827" />
  <circle
     id="dart10"
     cx="185.79893"
     cy="219.10042"
     r="8"
     stroke="#000000"
     fill="#000000"
     style="stroke-width:0.4" />
  <line
     class="arc2"
     id="link17_@2_11"
     x1="213.99156"
     y1="105.62868"
     x2="185.79893"
     y2="106.14827" />
  <circle
     id="dart17"
     cx="213.99156"
     cy="105.62868"
     r="8"
     stroke="#000000"
     fill="#000000"
     style="stroke-width:0.4" />
  <circle
     id="dart11"
     cx="185.79893"
     cy="106.14827"
     r="8"
     stroke="#000000"
     fill="#000000"
     style="stroke-width:0.4" />
</svg>
