<?xml version="1.0" encoding="UTF-8" standalone="no"?>
<!-- Created with Inkscape (http://www.inkscape.org/) -->

<svg
   version="1.1"
   id="svg31621"
   width="907.75446"
   height="850.31818"
   viewBox="0 0 907.75446 850.31818"
   sodipodi:docname="demo-fig-square-plan-contraction-H.svg"
   inkscape:version="1.2.2 (b0a8486541, 2022-12-01)"
   xmlns:inkscape="http://www.inkscape.org/namespaces/inkscape"
   xmlns:sodipodi="http://sodipodi.sourceforge.net/DTD/sodipodi-0.dtd"
   xmlns="http://www.w3.org/2000/svg"
   xmlns:svg="http://www.w3.org/2000/svg">
  <defs
     id="defs31625" />
  <sodipodi:namedview
     id="namedview31623"
     pagecolor="#ffffff"
     bordercolor="#000000"
     borderopacity="0.25"
     inkscape:showpageshadow="2"
     inkscape:pageopacity="0.0"
     inkscape:pagecheckerboard="0"
     inkscape:deskcolor="#d1d1d1"
     showgrid="false"
     inkscape:zoom="1.0478431"
     inkscape:cx="453.78933"
     inkscape:cy="425.15909"
     inkscape:window-width="1908"
     inkscape:window-height="1048"
     inkscape:window-x="1085"
     inkscape:window-y="25"
     inkscape:window-maximized="1"
     inkscape:current-layer="g31629">
    <inkscape:page
       x="0"
       y="0"
       id="page31627"
       width="907.75446"
       height="850.31818" />
  </sodipodi:namedview>
  <g
     id="g31629"
     inkscape:groupmode="layer"
     inkscape:label="Page 1"
     transform="matrix(1.3333333,0,0,1.3333333,0,2.5257954e-5)">
    <g
       id="g31631">
      <g
         id="g31633">
        <path
           d="m 52.664,540.473 49.551,49.55"
           style="fill:none;stroke:#888888;stroke-width:3;stroke-linecap:round;stroke-linejoin:round;stroke-miterlimit:4;stroke-dasharray:none;stroke-opacity:1"
           id="path31635" />
      </g>
      <g
         id="g31637">
        <path
           d="M 52.664,540.473 V 371.52"
           style="fill:none;stroke:#888888;stroke-width:3;stroke-linecap:round;stroke-linejoin:round;stroke-miterlimit:4;stroke-dasharray:none;stroke-opacity:1"
           id="path31639" />
      </g>
      <g
         id="g31641">
        <path
           d="M 102.215,590.023 266.211,585.07"
           style="fill:none;stroke:#888888;stroke-width:3;stroke-linecap:round;stroke-linejoin:round;stroke-miterlimit:4;stroke-dasharray:none;stroke-opacity:1"
           id="path31643" />
      </g>
      <g
         id="g31645">
        <path
           d="m 266.211,585.07 49.555,-74.332"
           style="fill:none;stroke:#ff0003;stroke-width:3;stroke-linecap:round;stroke-linejoin:round;stroke-miterlimit:4;stroke-dasharray:none;stroke-opacity:1"
           id="path31647" />
      </g>
      <g
         id="g31649">
        <path
           d="m 315.766,269.703 h 49.555 v 241.035 h -49.555 z"
           style="fill:none;stroke:#ffc000;stroke-width:11.25;stroke-linecap:round;stroke-linejoin:round;stroke-miterlimit:4;stroke-dasharray:none;stroke-opacity:0.8"
           id="path31651" />
      </g>
      <g
         id="g31653">
        <path
           d="M 315.766,510.738 H 365.32"
           style="fill:none;stroke:#0000ff;stroke-width:3;stroke-linecap:round;stroke-linejoin:round;stroke-miterlimit:4;stroke-dasharray:none;stroke-opacity:1"
           id="path31655" />
      </g>
      <g
         id="g31657">
        <path
           d="M 315.766,510.738 V 269.703"
           style="fill:none;stroke:#00000c;stroke-width:3;stroke-linecap:round;stroke-linejoin:round;stroke-miterlimit:4;stroke-dasharray:none;stroke-opacity:1"
           id="path31659" />
      </g>
      <g
         id="g31661">
        <path
           d="M 315.766,269.703 266.211,220.148"
           style="fill:none;stroke:#ff0003;stroke-width:3;stroke-linecap:round;stroke-linejoin:round;stroke-miterlimit:4;stroke-dasharray:none;stroke-opacity:1"
           id="path31663" />
      </g>
      <g
         id="g31665">
        <path
           d="M 315.766,269.703 H 365.32"
           style="fill:none;stroke:#0000ff;stroke-width:3;stroke-linecap:round;stroke-linejoin:round;stroke-miterlimit:4;stroke-dasharray:none;stroke-opacity:1"
           id="path31667" />
      </g>
      <g
         id="g31669">
        <path
           d="m 251.344,124.754 h 178.395 v 49.555 H 251.344 Z"
           style="fill:none;stroke:#00c0ff;stroke-width:11.25;stroke-linecap:round;stroke-linejoin:round;stroke-miterlimit:4;stroke-dasharray:none;stroke-opacity:0.8"
           id="path31671" />
      </g>
      <g
         id="g31673">
        <path
           d="M 266.211,220.148 251.344,174.309"
           style="fill:none;stroke:#888888;stroke-width:3;stroke-linecap:round;stroke-linejoin:round;stroke-miterlimit:4;stroke-dasharray:none;stroke-opacity:1"
           id="path31675" />
      </g>
      <g
         id="g31677">
        <path
           d="m 266.211,220.148 -163.996,77.04"
           style="fill:none;stroke:#888888;stroke-width:3;stroke-linecap:round;stroke-linejoin:round;stroke-miterlimit:4;stroke-dasharray:none;stroke-opacity:1"
           id="path31679" />
      </g>
      <g
         id="g31681">
        <path
           d="M 102.215,297.188 52.664,371.52"
           style="fill:none;stroke:#888888;stroke-width:3;stroke-linecap:round;stroke-linejoin:round;stroke-miterlimit:4;stroke-dasharray:none;stroke-opacity:1"
           id="path31683" />
      </g>
      <g
         id="g31685">
        <path
           d="M 102.215,297.188 97.262,251.352"
           style="fill:none;stroke:#888888;stroke-width:3;stroke-linecap:round;stroke-linejoin:round;stroke-miterlimit:4;stroke-dasharray:none;stroke-opacity:1"
           id="path31687" />
      </g>
      <g
         id="g31689">
        <path
           d="m 365.32,269.703 49.555,-49.555"
           style="fill:none;stroke:#ff0003;stroke-width:3;stroke-linecap:round;stroke-linejoin:round;stroke-miterlimit:4;stroke-dasharray:none;stroke-opacity:1"
           id="path31691" />
      </g>
      <g
         id="g31693">
        <path
           d="M 365.32,269.703 V 510.738"
           style="fill:none;stroke:#00000c;stroke-width:3;stroke-linecap:round;stroke-linejoin:round;stroke-miterlimit:4;stroke-dasharray:none;stroke-opacity:1"
           id="path31695" />
      </g>
      <g
         id="g31697">
        <path
           d="m 414.875,220.148 14.863,-45.839"
           style="fill:none;stroke:#888888;stroke-width:3;stroke-linecap:round;stroke-linejoin:round;stroke-miterlimit:4;stroke-dasharray:none;stroke-opacity:1"
           id="path31699" />
      </g>
      <g
         id="g31701">
        <path
           d="m 414.875,220.148 163.992,77.04"
           style="fill:none;stroke:#888888;stroke-width:3;stroke-linecap:round;stroke-linejoin:round;stroke-miterlimit:4;stroke-dasharray:none;stroke-opacity:1"
           id="path31703" />
      </g>
      <g
         id="g31705">
        <path
           d="m 578.867,297.188 49.555,74.332"
           style="fill:none;stroke:#888888;stroke-width:3;stroke-linecap:round;stroke-linejoin:round;stroke-miterlimit:4;stroke-dasharray:none;stroke-opacity:1"
           id="path31707" />
      </g>
      <g
         id="g31709">
        <path
           d="m 578.867,297.188 4.957,-45.836"
           style="fill:none;stroke:#888888;stroke-width:3;stroke-linecap:round;stroke-linejoin:round;stroke-miterlimit:4;stroke-dasharray:none;stroke-opacity:1"
           id="path31711" />
      </g>
      <g
         id="g31713">
        <path
           d="M 628.422,371.52 V 540.473"
           style="fill:none;stroke:#888888;stroke-width:3;stroke-linecap:round;stroke-linejoin:round;stroke-miterlimit:4;stroke-dasharray:none;stroke-opacity:1"
           id="path31715" />
      </g>
      <g
         id="g31717">
        <path
           d="m 365.32,510.738 49.555,74.332"
           style="fill:none;stroke:#ff0003;stroke-width:3;stroke-linecap:round;stroke-linejoin:round;stroke-miterlimit:4;stroke-dasharray:none;stroke-opacity:1"
           id="path31719" />
      </g>
      <g
         id="g31721">
        <path
           d="m 414.875,585.07 163.992,4.953"
           style="fill:none;stroke:#888888;stroke-width:3;stroke-linecap:round;stroke-linejoin:round;stroke-miterlimit:4;stroke-dasharray:none;stroke-opacity:1"
           id="path31723" />
      </g>
      <g
         id="g31725">
        <path
           d="m 578.867,590.023 49.555,-49.55"
           style="fill:none;stroke:#888888;stroke-width:3;stroke-linecap:round;stroke-linejoin:round;stroke-miterlimit:4;stroke-dasharray:none;stroke-opacity:1"
           id="path31727" />
      </g>
      <g
         id="g31729">
        <path
           d="M 97.262,251.352 47.707,226.574"
           style="fill:none;stroke:#888888;stroke-width:3;stroke-linecap:round;stroke-linejoin:round;stroke-miterlimit:4;stroke-dasharray:none;stroke-opacity:1"
           id="path31731" />
      </g>
      <g
         id="g31733">
        <path
           d="M 97.262,251.352 251.344,174.309"
           style="fill:none;stroke:#888888;stroke-width:3;stroke-linecap:round;stroke-linejoin:round;stroke-miterlimit:4;stroke-dasharray:none;stroke-opacity:1"
           id="path31735" />
      </g>
      <g
         id="g31737">
        <path
           d="M 47.707,226.574 V 72.492"
           style="fill:none;stroke:#888888;stroke-width:3;stroke-linecap:round;stroke-linejoin:round;stroke-miterlimit:4;stroke-dasharray:none;stroke-opacity:1"
           id="path31739" />
      </g>
      <g
         id="g31741">
        <path
           d="M 47.707,72.492 97.262,47.715"
           style="fill:none;stroke:#888888;stroke-width:3;stroke-linecap:round;stroke-linejoin:round;stroke-miterlimit:4;stroke-dasharray:none;stroke-opacity:1"
           id="path31743" />
      </g>
      <g
         id="g31745">
        <path
           d="m 97.262,47.715 154.082,77.039"
           style="fill:none;stroke:#888888;stroke-width:3;stroke-linecap:round;stroke-linejoin:round;stroke-miterlimit:4;stroke-dasharray:none;stroke-opacity:1"
           id="path31747" />
      </g>
      <g
         id="g31749">
        <path
           d="M 251.344,174.309 V 124.754"
           style="fill:none;stroke:#ff0003;stroke-width:3;stroke-linecap:round;stroke-linejoin:round;stroke-miterlimit:4;stroke-dasharray:none;stroke-opacity:1"
           id="path31751" />
      </g>
      <g
         id="g31753">
        <path
           d="M 429.738,174.309 V 124.754"
           style="fill:none;stroke:#ff0003;stroke-width:3;stroke-linecap:round;stroke-linejoin:round;stroke-miterlimit:4;stroke-dasharray:none;stroke-opacity:1"
           id="path31755" />
      </g>
      <g
         id="g31757">
        <path
           d="m 429.738,174.309 154.086,77.043"
           style="fill:none;stroke:#888888;stroke-width:3;stroke-linecap:round;stroke-linejoin:round;stroke-miterlimit:4;stroke-dasharray:none;stroke-opacity:1"
           id="path31759" />
      </g>
      <g
         id="g31761">
        <path
           d="m 583.824,251.352 49.555,-24.778"
           style="fill:none;stroke:#888888;stroke-width:3;stroke-linecap:round;stroke-linejoin:round;stroke-miterlimit:4;stroke-dasharray:none;stroke-opacity:1"
           id="path31763" />
      </g>
      <g
         id="g31765">
        <path
           d="M 633.379,226.574 V 72.492"
           style="fill:none;stroke:#888888;stroke-width:3;stroke-linecap:round;stroke-linejoin:round;stroke-miterlimit:4;stroke-dasharray:none;stroke-opacity:1"
           id="path31767" />
      </g>
      <g
         id="g31769">
        <path
           d="M 429.738,124.754 583.824,47.715"
           style="fill:none;stroke:#888888;stroke-width:3;stroke-linecap:round;stroke-linejoin:round;stroke-miterlimit:4;stroke-dasharray:none;stroke-opacity:1"
           id="path31771" />
      </g>
      <g
         id="g31773">
        <path
           d="m 583.824,47.715 49.555,24.777"
           style="fill:none;stroke:#888888;stroke-width:3;stroke-linecap:round;stroke-linejoin:round;stroke-miterlimit:4;stroke-dasharray:none;stroke-opacity:1"
           id="path31775" />
      </g>
      <g
         id="g31777">
        <path
           d="m 633.379,226.574 c 11.426,5.453 22.855,10.903 31.746,9.528 8.891,-1.375 15.246,-9.582 14.039,-15.754 -1.211,-6.172 -9.98,-10.317 -18.871,-8.938 -8.895,1.375 -17.902,8.27 -26.914,15.164"
           style="fill:none;stroke:#888888;stroke-width:2.99999;stroke-linecap:round;stroke-linejoin:bevel;stroke-miterlimit:4;stroke-dasharray:none;stroke-opacity:1"
           id="path31779" />
      </g>
      <g
         id="g31781">
        <path
           d="m 628.422,371.52 c 11.43,5.453 22.855,10.902 31.75,9.527 8.89,-1.375 15.246,-9.582 14.035,-15.754 -1.207,-6.172 -9.98,-10.313 -18.871,-8.938 -8.891,1.379 -17.902,8.27 -26.914,15.165"
           style="fill:none;stroke:#888888;stroke-width:2.99999;stroke-linecap:round;stroke-linejoin:bevel;stroke-miterlimit:4;stroke-dasharray:none;stroke-opacity:1"
           id="path31783" />
      </g>
      <g
         id="g31785">
        <path
           d="m 633.379,72.492 c 11.426,5.449 22.855,10.899 31.746,9.524 8.891,-1.375 15.246,-9.578 14.039,-15.754 -1.211,-6.172 -9.98,-10.313 -18.871,-8.938 -8.895,1.379 -17.902,8.274 -26.914,15.168"
           style="fill:none;stroke:#888888;stroke-width:2.99999;stroke-linecap:round;stroke-linejoin:bevel;stroke-miterlimit:4;stroke-dasharray:none;stroke-opacity:1"
           id="path31787" />
      </g>
      <g
         id="g31789">
        <path
           d="M 583.824,47.715 C 590.387,36.887 596.949,26.059 596.469,17.074 595.984,8.09 588.457,0.949 582.191,1.535 c -6.261,0.586 -11.257,8.903 -10.773,17.887 0.484,8.984 6.445,18.637 12.406,28.293"
           style="fill:none;stroke:#888888;stroke-width:2.99999;stroke-linecap:round;stroke-linejoin:bevel;stroke-miterlimit:4;stroke-dasharray:none;stroke-opacity:1"
           id="path31791" />
      </g>
      <g
         id="g31793">
        <path
           d="m 251.344,124.754 c 6.562,-10.824 13.129,-21.652 12.644,-30.637 -0.48,-8.984 -8.011,-16.129 -14.273,-15.539 -6.266,0.586 -11.258,8.902 -10.777,17.887 0.484,8.984 6.445,18.637 12.406,28.289"
           style="fill:none;stroke:#888888;stroke-width:2.99999;stroke-linecap:round;stroke-linejoin:bevel;stroke-miterlimit:4;stroke-dasharray:none;stroke-opacity:1"
           id="path31795" />
      </g>
      <g
         id="g31797">
        <path
           d="M 97.262,47.715 C 103.824,36.887 110.387,26.059 109.906,17.074 109.422,8.09 101.891,0.949 95.629,1.535 89.367,2.121 84.371,10.438 84.855,19.422 c 0.485,8.984 6.446,18.637 12.407,28.293"
           style="fill:none;stroke:#888888;stroke-width:2.99999;stroke-linecap:round;stroke-linejoin:bevel;stroke-miterlimit:4;stroke-dasharray:none;stroke-opacity:1"
           id="path31799" />
      </g>
      <g
         id="g31801">
        <path
           d="m 429.738,124.754 c 6.567,-10.824 13.129,-21.652 12.645,-30.637 -0.481,-8.984 -8.012,-16.129 -14.274,-15.539 -6.265,0.586 -11.257,8.902 -10.777,17.887 0.484,8.984 6.445,18.637 12.406,28.289"
           style="fill:none;stroke:#888888;stroke-width:2.99999;stroke-linecap:round;stroke-linejoin:bevel;stroke-miterlimit:4;stroke-dasharray:none;stroke-opacity:1"
           id="path31803" />
      </g>
      <g
         id="g31805">
        <path
           d="m 102.215,590.023 c -6.563,10.829 -13.125,21.657 -12.641,30.641 0.481,8.984 8.012,16.125 14.274,15.539 6.261,-0.586 11.257,-8.902 10.773,-17.887 -0.48,-8.984 -6.445,-18.636 -12.406,-28.293"
           style="fill:none;stroke:#888888;stroke-width:2.99999;stroke-linecap:round;stroke-linejoin:bevel;stroke-miterlimit:4;stroke-dasharray:none;stroke-opacity:1"
           id="path31807" />
      </g>
      <g
         id="g31809">
        <path
           d="m 266.211,585.07 c -6.563,10.828 -13.125,21.653 -12.645,30.641 0.485,8.984 8.016,16.125 14.278,15.539 6.261,-0.59 11.258,-8.906 10.773,-17.891 -0.484,-8.984 -6.445,-18.636 -12.406,-28.289"
           style="fill:none;stroke:#888888;stroke-width:2.99999;stroke-linecap:round;stroke-linejoin:bevel;stroke-miterlimit:4;stroke-dasharray:none;stroke-opacity:1"
           id="path31811" />
      </g>
      <g
         id="g31813">
        <path
           d="M 266.211,220.148 H 414.875 V 585.07 H 266.211 Z"
           style="fill:none;stroke:#00c0ff;stroke-width:11.25;stroke-linecap:round;stroke-linejoin:round;stroke-miterlimit:4;stroke-dasharray:none;stroke-opacity:0.8"
           id="path31815" />
      </g>
      <g
         id="g31817">
        <path
           d="m 414.875,585.07 c -6.563,10.828 -13.129,21.653 -12.645,30.641 0.481,8.984 8.012,16.125 14.274,15.539 6.266,-0.59 11.262,-8.906 10.777,-17.891 -0.484,-8.984 -6.445,-18.636 -12.406,-28.289"
           style="fill:none;stroke:#888888;stroke-width:2.99999;stroke-linecap:round;stroke-linejoin:bevel;stroke-miterlimit:4;stroke-dasharray:none;stroke-opacity:1"
           id="path31819" />
      </g>
      <g
         id="g31821">
        <path
           d="m 578.867,590.023 c -6.562,10.829 -13.125,21.657 -12.64,30.641 0.48,8.984 8.011,16.125 14.273,15.539 6.266,-0.586 11.258,-8.902 10.773,-17.887 -0.48,-8.984 -6.441,-18.636 -12.406,-28.293"
           style="fill:none;stroke:#888888;stroke-width:2.99999;stroke-linecap:round;stroke-linejoin:bevel;stroke-miterlimit:4;stroke-dasharray:none;stroke-opacity:1"
           id="path31823" />
      </g>
      <g
         id="g31825">
        <path
           d="m 628.422,540.473 c 11.43,5.449 22.855,10.902 31.75,9.523 8.89,-1.375 15.246,-9.578 14.035,-15.754 -1.207,-6.172 -9.98,-10.312 -18.871,-8.937 -8.891,1.379 -17.902,8.273 -26.914,15.168"
           style="fill:none;stroke:#888888;stroke-width:2.99999;stroke-linecap:round;stroke-linejoin:bevel;stroke-miterlimit:4;stroke-dasharray:none;stroke-opacity:1"
           id="path31827" />
      </g>
      <g
         id="g31829">
        <path
           d="m 47.707,226.574 c -10.465,-7.125 -20.934,-14.25 -29.93,-14.238 -9,0.008 -16.527,7.152 -16.269,13.437 0.254,6.286 8.297,11.711 17.293,11.7 9,-0.008 18.953,-5.453 28.906,-10.899"
           style="fill:none;stroke:#888888;stroke-width:2.99999;stroke-linecap:round;stroke-linejoin:bevel;stroke-miterlimit:4;stroke-dasharray:none;stroke-opacity:1"
           id="path31831" />
      </g>
      <g
         id="g31833">
        <path
           d="M 52.664,371.52 C 42.195,364.395 31.73,357.273 22.73,357.281 c -8.996,0.008 -16.523,7.153 -16.269,13.438 0.258,6.285 8.297,11.711 17.297,11.699 8.996,-0.008 18.949,-5.453 28.906,-10.898"
           style="fill:none;stroke:#888888;stroke-width:2.99999;stroke-linecap:round;stroke-linejoin:bevel;stroke-miterlimit:4;stroke-dasharray:none;stroke-opacity:1"
           id="path31835" />
      </g>
      <g
         id="g31837">
        <path
           d="M 52.664,540.473 C 42.195,533.348 31.73,526.223 22.73,526.23 c -8.996,0.008 -16.523,7.153 -16.269,13.438 0.258,6.285 8.297,11.711 17.297,11.703 8.996,-0.012 18.949,-5.457 28.906,-10.898"
           style="fill:none;stroke:#888888;stroke-width:2.99999;stroke-linecap:round;stroke-linejoin:bevel;stroke-miterlimit:4;stroke-dasharray:none;stroke-opacity:1"
           id="path31839" />
      </g>
      <g
         id="g31841">
        <path
           d="M 47.707,72.492 C 37.242,65.367 26.773,58.242 17.777,58.25 c -9,0.008 -16.527,7.152 -16.269,13.438 0.254,6.285 8.297,11.71 17.293,11.703 9,-0.012 18.953,-5.457 28.906,-10.899"
           style="fill:none;stroke:#888888;stroke-width:2.99999;stroke-linecap:round;stroke-linejoin:bevel;stroke-miterlimit:4;stroke-dasharray:none;stroke-opacity:1"
           id="path31843" />
      </g>
      <path
         d="m 433.605,124.754 c 0,2.074 -1.679,3.75 -3.75,3.75 -2.07,0 -3.75,-1.676 -3.75,-3.75 0,-2.07 1.68,-3.75 3.75,-3.75 2.071,0 3.75,1.68 3.75,3.75 z"
         style="fill:#000000;fill-opacity:0.981603;fill-rule:nonzero;stroke:none"
         id="path31845" />
      <g
         id="g31847">
        <path
           d="m 433.605,124.754 c 0,2.074 -1.679,3.75 -3.75,3.75 -2.07,0 -3.75,-1.676 -3.75,-3.75 0,-2.07 1.68,-3.75 3.75,-3.75 2.071,0 3.75,1.68 3.75,3.75 z"
           style="fill:none;stroke:#010000;stroke-width:15;stroke-linecap:butt;stroke-linejoin:miter;stroke-miterlimit:4;stroke-dasharray:none;stroke-opacity:1"
           id="path31849" />
      </g>
      <path
         d="m 433.488,174.605 c 0,2.071 -1.676,3.75 -3.75,3.75 -2.07,0 -3.75,-1.679 -3.75,-3.75 0,-2.07 1.68,-3.75 3.75,-3.75 2.074,0 3.75,1.68 3.75,3.75 z"
         style="fill:#000000;fill-opacity:0.981603;fill-rule:nonzero;stroke:none"
         id="path31851" />
      <g
         id="g31853">
        <path
           d="m 433.488,174.605 c 0,2.071 -1.676,3.75 -3.75,3.75 -2.07,0 -3.75,-1.679 -3.75,-3.75 0,-2.07 1.68,-3.75 3.75,-3.75 2.074,0 3.75,1.68 3.75,3.75 z"
           style="fill:none;stroke:#010000;stroke-width:15;stroke-linecap:butt;stroke-linejoin:miter;stroke-miterlimit:4;stroke-dasharray:none;stroke-opacity:1"
           id="path31855" />
      </g>
      <path
         d="m 255.211,124.734 c 0,2.071 -1.68,3.75 -3.75,3.75 -2.07,0 -3.75,-1.679 -3.75,-3.75 0,-2.07 1.68,-3.75 3.75,-3.75 2.07,0 3.75,1.68 3.75,3.75 z"
         style="fill:#000000;fill-opacity:0.981603;fill-rule:nonzero;stroke:none"
         id="path31857" />
      <g
         id="g31859">
        <path
           d="m 255.211,124.734 c 0,2.071 -1.68,3.75 -3.75,3.75 -2.07,0 -3.75,-1.679 -3.75,-3.75 0,-2.07 1.68,-3.75 3.75,-3.75 2.07,0 3.75,1.68 3.75,3.75 z"
           style="fill:none;stroke:#010000;stroke-width:15;stroke-linecap:butt;stroke-linejoin:miter;stroke-miterlimit:4;stroke-dasharray:none;stroke-opacity:1"
           id="path31861" />
      </g>
      <g
         id="g31863">
        <path
           d="m 255.094,174.371 c 0,2.07 -1.676,3.75 -3.75,3.75 -2.071,0 -3.75,-1.68 -3.75,-3.75 0,-2.07 1.679,-3.75 3.75,-3.75 2.074,0 3.75,1.68 3.75,3.75 z"
           style="fill:#000000;fill-opacity:1;fill-rule:nonzero;stroke:#010000;stroke-width:15;stroke-linecap:butt;stroke-linejoin:miter;stroke-miterlimit:4;stroke-dasharray:none;stroke-opacity:1"
           id="path31865" />
      </g>
      <path
         d="m 270.281,220.094 c 0,2.07 -1.679,3.75 -3.75,3.75 -2.07,0 -3.75,-1.68 -3.75,-3.75 0,-2.071 1.68,-3.75 3.75,-3.75 2.071,0 3.75,1.679 3.75,3.75 z"
         style="fill:#000000;fill-opacity:0.981603;fill-rule:nonzero;stroke:none"
         id="path31867" />
      <g
         id="g31869">
        <path
           d="m 270.281,220.094 c 0,2.07 -1.679,3.75 -3.75,3.75 -2.07,0 -3.75,-1.68 -3.75,-3.75 0,-2.071 1.68,-3.75 3.75,-3.75 2.071,0 3.75,1.679 3.75,3.75 z"
           style="fill:none;stroke:#010000;stroke-width:15;stroke-linecap:butt;stroke-linejoin:miter;stroke-miterlimit:4;stroke-dasharray:none;stroke-opacity:1"
           id="path31871" />
      </g>
      <path
         d="m 419.152,220.559 c 0,2.07 -1.679,3.75 -3.75,3.75 -2.07,0 -3.75,-1.68 -3.75,-3.75 0,-2.071 1.68,-3.75 3.75,-3.75 2.071,0 3.75,1.679 3.75,3.75 z"
         style="fill:#000000;fill-opacity:0.981603;fill-rule:nonzero;stroke:none"
         id="path31873" />
      <g
         id="g31875">
        <path
           d="m 419.152,220.559 c 0,2.07 -1.679,3.75 -3.75,3.75 -2.07,0 -3.75,-1.68 -3.75,-3.75 0,-2.071 1.68,-3.75 3.75,-3.75 2.071,0 3.75,1.679 3.75,3.75 z"
           style="fill:none;stroke:#010000;stroke-width:15;stroke-linecap:butt;stroke-linejoin:miter;stroke-miterlimit:4;stroke-dasharray:none;stroke-opacity:1"
           id="path31877" />
      </g>
      <path
         d="m 418.508,585.434 c 0,2.07 -1.68,3.75 -3.75,3.75 -2.07,0 -3.75,-1.68 -3.75,-3.75 0,-2.071 1.68,-3.75 3.75,-3.75 2.07,0 3.75,1.679 3.75,3.75 z"
         style="fill:#000000;fill-opacity:0.981603;fill-rule:nonzero;stroke:none"
         id="path31879" />
      <g
         id="g31881">
        <path
           d="m 418.508,585.434 c 0,2.07 -1.68,3.75 -3.75,3.75 -2.07,0 -3.75,-1.68 -3.75,-3.75 0,-2.071 1.68,-3.75 3.75,-3.75 2.07,0 3.75,1.679 3.75,3.75 z"
           style="fill:none;stroke:#010000;stroke-width:15;stroke-linecap:butt;stroke-linejoin:miter;stroke-miterlimit:4;stroke-dasharray:none;stroke-opacity:0.999083"
           id="path31883" />
      </g>
      <path
         d="m 269.848,585.434 c 0,2.07 -1.68,3.75 -3.75,3.75 -2.075,0 -3.75,-1.68 -3.75,-3.75 0,-2.071 1.675,-3.75 3.75,-3.75 2.07,0 3.75,1.679 3.75,3.75 z"
         style="fill:#000000;fill-opacity:0.981603;fill-rule:nonzero;stroke:none"
         id="path31885" />
      <g
         id="g31887">
        <path
           d="m 269.848,585.434 c 0,2.07 -1.68,3.75 -3.75,3.75 -2.075,0 -3.75,-1.68 -3.75,-3.75 0,-2.071 1.675,-3.75 3.75,-3.75 2.07,0 3.75,1.679 3.75,3.75 z"
           style="fill:none;stroke:#010000;stroke-width:15;stroke-linecap:butt;stroke-linejoin:miter;stroke-miterlimit:4;stroke-dasharray:none;stroke-opacity:1"
           id="path31889" />
      </g>
      <path
         d="m 369.07,269.703 c 0,2.07 -1.679,3.75 -3.75,3.75 -2.07,0 -3.75,-1.68 -3.75,-3.75 0,-2.074 1.68,-3.75 3.75,-3.75 2.071,0 3.75,1.676 3.75,3.75 z"
         style="fill:#000000;fill-opacity:0.981603;fill-rule:nonzero;stroke:none"
         id="path31891" />
      <g
         id="g31893">
        <path
           d="m 369.07,269.703 c 0,2.07 -1.679,3.75 -3.75,3.75 -2.07,0 -3.75,-1.68 -3.75,-3.75 0,-2.074 1.68,-3.75 3.75,-3.75 2.071,0 3.75,1.676 3.75,3.75 z"
           style="fill:none;stroke:#010000;stroke-width:15;stroke-linecap:butt;stroke-linejoin:miter;stroke-miterlimit:4;stroke-dasharray:none;stroke-opacity:1"
           id="path31895" />
      </g>
      <path
         d="m 369.07,510.738 c 0,2.071 -1.679,3.75 -3.75,3.75 -2.07,0 -3.75,-1.679 -3.75,-3.75 0,-2.07 1.68,-3.75 3.75,-3.75 2.071,0 3.75,1.68 3.75,3.75 z"
         style="fill:#000000;fill-opacity:0.981603;fill-rule:nonzero;stroke:none"
         id="path31897" />
      <g
         id="g31899">
        <path
           d="m 369.07,510.738 c 0,2.071 -1.679,3.75 -3.75,3.75 -2.07,0 -3.75,-1.679 -3.75,-3.75 0,-2.07 1.68,-3.75 3.75,-3.75 2.071,0 3.75,1.68 3.75,3.75 z"
           style="fill:none;stroke:#010000;stroke-width:15;stroke-linecap:butt;stroke-linejoin:miter;stroke-miterlimit:4;stroke-dasharray:none;stroke-opacity:1"
           id="path31901" />
      </g>
      <path
         d="m 319.516,510.738 c 0,2.071 -1.68,3.75 -3.75,3.75 -2.071,0 -3.75,-1.679 -3.75,-3.75 0,-2.07 1.679,-3.75 3.75,-3.75 2.07,0 3.75,1.68 3.75,3.75 z"
         style="fill:#000000;fill-opacity:0.981603;fill-rule:nonzero;stroke:none"
         id="path31903" />
      <g
         id="g31905">
        <path
           d="m 319.516,510.738 c 0,2.071 -1.68,3.75 -3.75,3.75 -2.071,0 -3.75,-1.679 -3.75,-3.75 0,-2.07 1.679,-3.75 3.75,-3.75 2.07,0 3.75,1.68 3.75,3.75 z"
           style="fill:none;stroke:#010000;stroke-width:15;stroke-linecap:butt;stroke-linejoin:miter;stroke-miterlimit:4;stroke-dasharray:none;stroke-opacity:1"
           id="path31907" />
      </g>
      <path
         d="m 319.516,269.703 c 0,2.07 -1.68,3.75 -3.75,3.75 -2.071,0 -3.75,-1.68 -3.75,-3.75 0,-2.074 1.679,-3.75 3.75,-3.75 2.07,0 3.75,1.676 3.75,3.75 z"
         style="fill:#000000;fill-opacity:0.981603;fill-rule:nonzero;stroke:none"
         id="path31909" />
      <g
         id="g31911">
        <path
           d="m 319.516,269.703 c 0,2.07 -1.68,3.75 -3.75,3.75 -2.071,0 -3.75,-1.68 -3.75,-3.75 0,-2.074 1.679,-3.75 3.75,-3.75 2.07,0 3.75,1.676 3.75,3.75 z"
           style="fill:none;stroke:#010000;stroke-width:15;stroke-linecap:butt;stroke-linejoin:miter;stroke-miterlimit:4;stroke-dasharray:none;stroke-opacity:1"
           id="path31913" />
      </g>
      <text
         xml:space="preserve"
         transform="translate(207.27814,138.69507)"
         style="font-variant:normal;font-weight:normal;font-size:44px;font-family:'Liberation Serif';-inkscape-font-specification:LiberationSerif;writing-mode:lr-tb;fill:#000000;fill-opacity:0.981603;fill-rule:nonzero;stroke:none"
         id="text31917"><tspan
           x="0"
           y="0"
           id="tspan31915">a</tspan></text>
      <text
         xml:space="preserve"
         transform="translate(226.80744,147.49507)"
         style="font-variant:normal;font-weight:normal;font-size:28.6px;font-family:'Liberation Serif';-inkscape-font-specification:LiberationSerif;writing-mode:lr-tb;fill:#000000;fill-opacity:0.981603;fill-rule:nonzero;stroke:none"
         id="text31921"><tspan
           x="0"
           y="0"
           id="tspan31919">1</tspan></text>
      <text
         xml:space="preserve"
         transform="translate(204.80743,177.05436)"
         style="font-variant:normal;font-weight:normal;font-size:44px;font-family:'Liberation Serif';-inkscape-font-specification:LiberationSerif;writing-mode:lr-tb;fill:#000000;fill-opacity:0.981603;fill-rule:nonzero;stroke:none"
         id="text31925"><tspan
           x="0"
           y="0"
           id="tspan31923">b</tspan></text>
      <text
         xml:space="preserve"
         transform="translate(226.80744,185.85436)"
         style="font-variant:normal;font-weight:normal;font-size:28.6px;font-family:'Liberation Serif';-inkscape-font-specification:LiberationSerif;writing-mode:lr-tb;fill:#000000;fill-opacity:0.981603;fill-rule:nonzero;stroke:none"
         id="text31929"><tspan
           x="0"
           y="0"
           id="tspan31927">1</tspan></text>
      <text
         xml:space="preserve"
         transform="translate(439.42955,138.73804)"
         style="font-variant:normal;font-weight:normal;font-size:44px;font-family:'Liberation Serif';-inkscape-font-specification:LiberationSerif;writing-mode:lr-tb;fill:#000000;fill-opacity:0.981603;fill-rule:nonzero;stroke:none"
         id="text31933"><tspan
           x="0"
           y="0"
           id="tspan31931">c</tspan></text>
      <text
         xml:space="preserve"
         transform="translate(458.95886,147.53804)"
         style="font-variant:normal;font-weight:normal;font-size:28.6px;font-family:'Liberation Serif';-inkscape-font-specification:LiberationSerif;writing-mode:lr-tb;fill:#000000;fill-opacity:0.981603;fill-rule:nonzero;stroke:none"
         id="text31937"><tspan
           x="0"
           y="0"
           id="tspan31935">1</tspan></text>
      <text
         xml:space="preserve"
         transform="translate(439.40002,177.05436)"
         style="font-variant:normal;font-weight:normal;font-size:44px;font-family:'Liberation Serif';-inkscape-font-specification:LiberationSerif;writing-mode:lr-tb;fill:#000000;fill-opacity:0.981603;fill-rule:nonzero;stroke:none"
         id="text31941"><tspan
           x="0"
           y="0"
           id="tspan31939">d</tspan></text>
      <text
         xml:space="preserve"
         transform="translate(461.40004,185.85436)"
         style="font-variant:normal;font-weight:normal;font-size:28.6px;font-family:'Liberation Serif';-inkscape-font-specification:LiberationSerif;writing-mode:lr-tb;fill:#000000;fill-opacity:0.981603;fill-rule:nonzero;stroke:none"
         id="text31945"><tspan
           x="0"
           y="0"
           id="tspan31943">1</tspan></text>
      <text
         xml:space="preserve"
         transform="translate(271.77548,297.20542)"
         style="font-variant:normal;font-weight:normal;font-size:44px;font-family:'Liberation Serif';-inkscape-font-specification:LiberationSerif;writing-mode:lr-tb;fill:#000000;fill-opacity:0.981603;fill-rule:nonzero;stroke:none"
         id="text31949"><tspan
           x="0"
           y="0"
           id="tspan31947">e</tspan></text>
      <text
         xml:space="preserve"
         transform="translate(291.30479,306.00543)"
         style="font-variant:normal;font-weight:normal;font-size:28.6px;font-family:'Liberation Serif';-inkscape-font-specification:LiberationSerif;writing-mode:lr-tb;fill:#000000;fill-opacity:0.981603;fill-rule:nonzero;stroke:none"
         id="text31953"><tspan
           x="0"
           y="0"
           id="tspan31951">0</tspan></text>
      <text
         xml:space="preserve"
         transform="translate(230.6952,258.81809)"
         style="font-variant:normal;font-weight:normal;font-size:44px;font-family:'Liberation Serif';-inkscape-font-specification:LiberationSerif;writing-mode:lr-tb;fill:#000000;fill-opacity:0.981603;fill-rule:nonzero;stroke:none"
         id="text31957"><tspan
           x="0"
           y="0"
           id="tspan31955">e</tspan></text>
      <text
         xml:space="preserve"
         transform="translate(250.2245,267.6181)"
         style="font-variant:normal;font-weight:normal;font-size:28.6px;font-family:'Liberation Serif';-inkscape-font-specification:LiberationSerif;writing-mode:lr-tb;fill:#000000;fill-opacity:0.981603;fill-rule:nonzero;stroke:none"
         id="text31961"><tspan
           x="0"
           y="0"
           id="tspan31959">1</tspan></text>
      <text
         xml:space="preserve"
         transform="translate(375.21604,302.32945)"
         style="font-variant:normal;font-weight:normal;font-size:44px;font-family:'Liberation Serif';-inkscape-font-specification:LiberationSerif;writing-mode:lr-tb;fill:#000000;fill-opacity:0.981603;fill-rule:nonzero;stroke:none"
         id="text31965"><tspan
           x="0"
           y="0"
           id="tspan31963">f</tspan></text>
      <text
         xml:space="preserve"
         transform="translate(389.86839,311.12945)"
         style="font-variant:normal;font-weight:normal;font-size:28.6px;font-family:'Liberation Serif';-inkscape-font-specification:LiberationSerif;writing-mode:lr-tb;fill:#000000;fill-opacity:0.981603;fill-rule:nonzero;stroke:none"
         id="text31969"><tspan
           x="0"
           y="0"
           id="tspan31967">0</tspan></text>
      <text
         xml:space="preserve"
         transform="translate(424.89629,263.94212)"
         style="font-variant:normal;font-weight:normal;font-size:44px;font-family:'Liberation Serif';-inkscape-font-specification:LiberationSerif;writing-mode:lr-tb;fill:#000000;fill-opacity:0.981603;fill-rule:nonzero;stroke:none"
         id="text31973"><tspan
           x="0"
           y="0"
           id="tspan31971">f</tspan></text>
      <text
         xml:space="preserve"
         transform="translate(439.54864,272.74212)"
         style="font-variant:normal;font-weight:normal;font-size:28.6px;font-family:'Liberation Serif';-inkscape-font-specification:LiberationSerif;writing-mode:lr-tb;fill:#000000;fill-opacity:0.981603;fill-rule:nonzero;stroke:none"
         id="text31977"><tspan
           x="0"
           y="0"
           id="tspan31975">1</tspan></text>
      <text
         xml:space="preserve"
         transform="translate(270.45419,489.99266)"
         style="font-variant:normal;font-weight:normal;font-size:44px;font-family:'Liberation Serif';-inkscape-font-specification:LiberationSerif;writing-mode:lr-tb;fill:#000000;fill-opacity:0.981603;fill-rule:nonzero;stroke:none"
         id="text31981"><tspan
           x="0"
           y="0"
           id="tspan31979">g</tspan></text>
      <text
         xml:space="preserve"
         transform="translate(292.4542,498.79266)"
         style="font-variant:normal;font-weight:normal;font-size:28.6px;font-family:'Liberation Serif';-inkscape-font-specification:LiberationSerif;writing-mode:lr-tb;fill:#000000;fill-opacity:0.981603;fill-rule:nonzero;stroke:none"
         id="text31985"><tspan
           x="0"
           y="0"
           id="tspan31983">0</tspan></text>
      <text
         xml:space="preserve"
         transform="translate(220.26366,569.86171)"
         style="font-variant:normal;font-weight:normal;font-size:44px;font-family:'Liberation Serif';-inkscape-font-specification:LiberationSerif;writing-mode:lr-tb;fill:#000000;fill-opacity:0.981603;fill-rule:nonzero;stroke:none"
         id="text31989"><tspan
           x="0"
           y="0"
           id="tspan31987">g</tspan></text>
      <text
         xml:space="preserve"
         transform="translate(242.26367,578.66171)"
         style="font-variant:normal;font-weight:normal;font-size:28.6px;font-family:'Liberation Serif';-inkscape-font-specification:LiberationSerif;writing-mode:lr-tb;fill:#000000;fill-opacity:0.981603;fill-rule:nonzero;stroke:none"
         id="text31993"><tspan
           x="0"
           y="0"
           id="tspan31991">1</tspan></text>
      <text
         xml:space="preserve"
         transform="translate(372.00412,494.17566)"
         style="font-variant:normal;font-weight:normal;font-size:44px;font-family:'Liberation Serif';-inkscape-font-specification:LiberationSerif;writing-mode:lr-tb;fill:#000000;fill-opacity:0.981603;fill-rule:nonzero;stroke:none"
         id="text31997"><tspan
           x="0"
           y="0"
           id="tspan31995">h</tspan></text>
      <text
         xml:space="preserve"
         transform="translate(394.00413,502.97566)"
         style="font-variant:normal;font-weight:normal;font-size:28.6px;font-family:'Liberation Serif';-inkscape-font-specification:LiberationSerif;writing-mode:lr-tb;fill:#000000;fill-opacity:0.981603;fill-rule:nonzero;stroke:none"
         id="text32001"><tspan
           x="0"
           y="0"
           id="tspan31999">0</tspan></text>
      <text
         xml:space="preserve"
         transform="translate(426.00833,574.18437)"
         style="font-variant:normal;font-weight:normal;font-size:44px;font-family:'Liberation Serif';-inkscape-font-specification:LiberationSerif;writing-mode:lr-tb;fill:#000000;fill-opacity:0.981603;fill-rule:nonzero;stroke:none"
         id="text32005"><tspan
           x="0"
           y="0"
           id="tspan32003">h</tspan></text>
      <text
         xml:space="preserve"
         transform="translate(448.00834,582.98438)"
         style="font-variant:normal;font-weight:normal;font-size:28.6px;font-family:'Liberation Serif';-inkscape-font-specification:LiberationSerif;writing-mode:lr-tb;fill:#000000;fill-opacity:0.981603;fill-rule:nonzero;stroke:none"
         id="text32009"><tspan
           x="0"
           y="0"
           id="tspan32007">1</tspan></text>
    </g>
  </g>
</svg>
