<?xml version="1.0" encoding="UTF-8" standalone="no"?>
<!-- Created with Inkscape (http://www.inkscape.org/) -->

<svg
   version="1.1"
   id="svg34484"
   width="822.05847"
   height="723.12921"
   viewBox="0 0 822.05847 723.12921"
   sodipodi:docname="demo-fig-square-plan-contraction-I.svg"
   inkscape:version="1.2.2 (b0a8486541, 2022-12-01)"
   xmlns:inkscape="http://www.inkscape.org/namespaces/inkscape"
   xmlns:sodipodi="http://sodipodi.sourceforge.net/DTD/sodipodi-0.dtd"
   xmlns="http://www.w3.org/2000/svg"
   xmlns:svg="http://www.w3.org/2000/svg">
  <defs
     id="defs34488" />
  <sodipodi:namedview
     id="namedview34486"
     pagecolor="#ffffff"
     bordercolor="#000000"
     borderopacity="0.25"
     inkscape:showpageshadow="2"
     inkscape:pageopacity="0.0"
     inkscape:pagecheckerboard="0"
     inkscape:deskcolor="#d1d1d1"
     showgrid="false"
     inkscape:zoom="1.3137348"
     inkscape:cx="303.33367"
     inkscape:cy="363.46757"
     inkscape:window-width="1908"
     inkscape:window-height="1048"
     inkscape:window-x="1085"
     inkscape:window-y="25"
     inkscape:window-maximized="1"
     inkscape:current-layer="g34492">
    <inkscape:page
       x="0"
       y="0"
       id="page34490"
       width="822.05847"
       height="723.12921" />
  </sodipodi:namedview>
  <g
     id="g34492"
     inkscape:groupmode="layer"
     inkscape:label="Page 1"
     transform="matrix(1.3333333,0,0,1.3333333,0,1.607823e-5)">
    <g
       id="g34494">
      <g
         id="g34496">
        <path
           d="m 47.707,482.246 49.555,12.387"
           style="fill:none;stroke:#888888;stroke-width:3;stroke-linecap:round;stroke-linejoin:round;stroke-miterlimit:4;stroke-dasharray:none;stroke-opacity:1"
           id="path34498" />
      </g>
      <g
         id="g34500">
        <path
           d="M 47.707,482.246 V 328.16"
           style="fill:none;stroke:#888888;stroke-width:3;stroke-linecap:round;stroke-linejoin:round;stroke-miterlimit:4;stroke-dasharray:none;stroke-opacity:1"
           id="path34502" />
      </g>
      <g
         id="g34504">
        <path
           d="M 97.262,494.633 251.344,379.07"
           style="fill:none;stroke:#888888;stroke-width:3;stroke-linecap:round;stroke-linejoin:round;stroke-miterlimit:4;stroke-dasharray:none;stroke-opacity:1"
           id="path34506" />
      </g>
      <g
         id="g34508">
        <path
           d="M 251.344,329.516 V 379.07"
           style="fill:none;stroke:#00c0ff;stroke-width:11.25;stroke-linecap:round;stroke-linejoin:round;stroke-miterlimit:4;stroke-dasharray:none;stroke-opacity:0.8"
           id="path34510" />
      </g>
      <g
         id="g34512">
        <path
           d="M 251.344,379.07 V 329.516"
           style="fill:none;stroke:#ff0000;stroke-width:3;stroke-linecap:round;stroke-linejoin:round;stroke-miterlimit:4;stroke-dasharray:none;stroke-opacity:1"
           id="path34514" />
      </g>
      <g
         id="g34516">
        <path
           d="M 365.469,329.516 V 379.07"
           style="fill:none;stroke:#00c0ff;stroke-width:11.25;stroke-linecap:round;stroke-linejoin:round;stroke-miterlimit:4;stroke-dasharray:none;stroke-opacity:0.8"
           id="path34518" />
      </g>
      <g
         id="g34520">
        <path
           d="M 251.344,329.516 V 289.871"
           style="fill:none;stroke:#888888;stroke-width:3;stroke-linecap:round;stroke-linejoin:round;stroke-miterlimit:4;stroke-dasharray:none;stroke-opacity:1"
           id="path34522" />
      </g>
      <g
         id="g34524">
        <path
           d="M 251.344,329.516 97.262,290.996"
           style="fill:none;stroke:#888888;stroke-width:3;stroke-linecap:round;stroke-linejoin:round;stroke-miterlimit:4;stroke-dasharray:none;stroke-opacity:1"
           id="path34526" />
      </g>
      <g
         id="g34528">
        <path
           d="M 97.262,290.996 47.707,328.16"
           style="fill:none;stroke:#888888;stroke-width:3;stroke-linecap:round;stroke-linejoin:round;stroke-miterlimit:4;stroke-dasharray:none;stroke-opacity:1"
           id="path34530" />
      </g>
      <g
         id="g34532">
        <path
           d="M 97.262,290.996 V 251.352"
           style="fill:none;stroke:#888888;stroke-width:3;stroke-linecap:round;stroke-linejoin:round;stroke-miterlimit:4;stroke-dasharray:none;stroke-opacity:1"
           id="path34534" />
      </g>
      <g
         id="g34536">
        <path
           d="M 365.469,329.516 V 379.07"
           style="fill:none;stroke:#ff0000;stroke-width:3;stroke-linecap:round;stroke-linejoin:round;stroke-miterlimit:4;stroke-dasharray:none;stroke-opacity:1"
           id="path34538" />
      </g>
      <g
         id="g34540">
        <path
           d="M 365.469,329.516 V 289.871"
           style="fill:none;stroke:#888888;stroke-width:3;stroke-linecap:round;stroke-linejoin:round;stroke-miterlimit:4;stroke-dasharray:none;stroke-opacity:1"
           id="path34542" />
      </g>
      <g
         id="g34544">
        <path
           d="m 365.469,329.516 154.082,-38.52"
           style="fill:none;stroke:#888888;stroke-width:3;stroke-linecap:round;stroke-linejoin:round;stroke-miterlimit:4;stroke-dasharray:none;stroke-opacity:1"
           id="path34546" />
      </g>
      <g
         id="g34548">
        <path
           d="m 519.551,290.996 49.554,37.164"
           style="fill:none;stroke:#888888;stroke-width:3;stroke-linecap:round;stroke-linejoin:round;stroke-miterlimit:4;stroke-dasharray:none;stroke-opacity:1"
           id="path34550" />
      </g>
      <g
         id="g34552">
        <path
           d="M 519.551,290.996 V 251.352"
           style="fill:none;stroke:#888888;stroke-width:3;stroke-linecap:round;stroke-linejoin:round;stroke-miterlimit:4;stroke-dasharray:none;stroke-opacity:1"
           id="path34554" />
      </g>
      <g
         id="g34556">
        <path
           d="M 569.105,328.16 V 482.246"
           style="fill:none;stroke:#888888;stroke-width:3;stroke-linecap:round;stroke-linejoin:round;stroke-miterlimit:4;stroke-dasharray:none;stroke-opacity:1"
           id="path34558" />
      </g>
      <g
         id="g34560">
        <path
           d="M 365.469,379.07 519.551,494.633"
           style="fill:none;stroke:#888888;stroke-width:3;stroke-linecap:round;stroke-linejoin:round;stroke-miterlimit:4;stroke-dasharray:none;stroke-opacity:1"
           id="path34562" />
      </g>
      <g
         id="g34564">
        <path
           d="m 519.551,494.633 49.554,-12.387"
           style="fill:none;stroke:#888888;stroke-width:3;stroke-linecap:round;stroke-linejoin:round;stroke-miterlimit:4;stroke-dasharray:none;stroke-opacity:1"
           id="path34566" />
      </g>
      <g
         id="g34568">
        <path
           d="M 97.262,251.352 47.707,189.41"
           style="fill:none;stroke:#888888;stroke-width:3;stroke-linecap:round;stroke-linejoin:round;stroke-miterlimit:4;stroke-dasharray:none;stroke-opacity:1"
           id="path34570" />
      </g>
      <g
         id="g34572">
        <path
           d="m 97.262,251.352 154.082,38.519"
           style="fill:none;stroke:#888888;stroke-width:3;stroke-linecap:round;stroke-linejoin:round;stroke-miterlimit:4;stroke-dasharray:none;stroke-opacity:1"
           id="path34574" />
      </g>
      <g
         id="g34576">
        <path
           d="M 47.707,189.41 V 35.324"
           style="fill:none;stroke:#888888;stroke-width:3;stroke-linecap:round;stroke-linejoin:round;stroke-miterlimit:4;stroke-dasharray:none;stroke-opacity:1"
           id="path34578" />
      </g>
      <g
         id="g34580">
        <path
           d="M 47.707,35.324 97.262,47.715"
           style="fill:none;stroke:#888888;stroke-width:3;stroke-linecap:round;stroke-linejoin:round;stroke-miterlimit:4;stroke-dasharray:none;stroke-opacity:1"
           id="path34582" />
      </g>
      <g
         id="g34584">
        <path
           d="M 97.262,47.715 251.344,240.32"
           style="fill:none;stroke:#888888;stroke-width:3;stroke-linecap:round;stroke-linejoin:round;stroke-miterlimit:4;stroke-dasharray:none;stroke-opacity:1"
           id="path34586" />
      </g>
      <g
         id="g34588">
        <path
           d="M 251.344,289.871 V 240.32"
           style="fill:none;stroke:#888888;stroke-width:3;stroke-linecap:round;stroke-linejoin:round;stroke-miterlimit:4;stroke-dasharray:none;stroke-opacity:1"
           id="path34590" />
      </g>
      <g
         id="g34592">
        <path
           d="M 365.469,289.871 V 240.32"
           style="fill:none;stroke:#888888;stroke-width:3;stroke-linecap:round;stroke-linejoin:round;stroke-miterlimit:4;stroke-dasharray:none;stroke-opacity:1"
           id="path34594" />
      </g>
      <g
         id="g34596">
        <path
           d="M 365.469,289.871 519.551,251.352"
           style="fill:none;stroke:#888888;stroke-width:3;stroke-linecap:round;stroke-linejoin:round;stroke-miterlimit:4;stroke-dasharray:none;stroke-opacity:1"
           id="path34598" />
      </g>
      <g
         id="g34600">
        <path
           d="M 519.551,251.352 569.105,189.41"
           style="fill:none;stroke:#888888;stroke-width:3;stroke-linecap:round;stroke-linejoin:round;stroke-miterlimit:4;stroke-dasharray:none;stroke-opacity:1"
           id="path34602" />
      </g>
      <g
         id="g34604">
        <path
           d="M 569.105,189.41 V 35.324"
           style="fill:none;stroke:#888888;stroke-width:3;stroke-linecap:round;stroke-linejoin:round;stroke-miterlimit:4;stroke-dasharray:none;stroke-opacity:1"
           id="path34606" />
      </g>
      <g
         id="g34608">
        <path
           d="M 365.469,240.32 519.551,47.715"
           style="fill:none;stroke:#888888;stroke-width:3;stroke-linecap:round;stroke-linejoin:round;stroke-miterlimit:4;stroke-dasharray:none;stroke-opacity:1"
           id="path34610" />
      </g>
      <g
         id="g34612">
        <path
           d="M 519.551,47.715 569.105,35.324"
           style="fill:none;stroke:#888888;stroke-width:3;stroke-linecap:round;stroke-linejoin:round;stroke-miterlimit:4;stroke-dasharray:none;stroke-opacity:1"
           id="path34614" />
      </g>
      <g
         id="g34616">
        <path
           d="m 569.105,189.41 c 11.43,5.449 22.856,10.902 31.747,9.524 8.894,-1.375 15.25,-9.579 14.039,-15.75 -1.207,-6.176 -9.981,-10.317 -18.871,-8.942 -8.891,1.379 -17.903,8.274 -26.915,15.168"
           style="fill:none;stroke:#888888;stroke-width:2.99999;stroke-linecap:round;stroke-linejoin:bevel;stroke-miterlimit:4;stroke-dasharray:none;stroke-opacity:1"
           id="path34618" />
      </g>
      <g
         id="g34620">
        <path
           d="m 569.105,328.16 c 11.43,5.453 22.856,10.902 31.747,9.528 8.894,-1.379 15.25,-9.583 14.039,-15.754 -1.207,-6.172 -9.981,-10.317 -18.871,-8.938 -8.891,1.375 -17.903,8.27 -26.915,15.164"
           style="fill:none;stroke:#888888;stroke-width:2.99999;stroke-linecap:round;stroke-linejoin:bevel;stroke-miterlimit:4;stroke-dasharray:none;stroke-opacity:1"
           id="path34622" />
      </g>
      <g
         id="g34624">
        <path
           d="m 251.344,329.516 c 11.429,5.453 22.855,10.902 31.75,9.527 8.89,-1.375 15.246,-9.582 14.035,-15.754 -1.207,-6.172 -9.981,-10.316 -18.871,-8.937 -8.891,1.375 -17.903,8.269 -26.914,15.164"
           style="fill:none;stroke:#888888;stroke-width:2.99999;stroke-linecap:round;stroke-linejoin:bevel;stroke-miterlimit:4;stroke-dasharray:none;stroke-opacity:1"
           id="path34626" />
      </g>
      <g
         id="g34628">
        <path
           d="m 251.344,289.871 c 11.429,5.453 22.855,10.902 31.75,9.527 8.89,-1.375 15.246,-9.578 14.035,-15.753 -1.207,-6.172 -9.981,-10.313 -18.871,-8.938 -8.891,1.379 -17.903,8.273 -26.914,15.164"
           style="fill:none;stroke:#888888;stroke-width:2.99999;stroke-linecap:round;stroke-linejoin:bevel;stroke-miterlimit:4;stroke-dasharray:none;stroke-opacity:1"
           id="path34630" />
      </g>
      <g
         id="g34632">
        <path
           d="m 569.105,35.324 c 11.43,5.453 22.856,10.903 31.747,9.528 8.894,-1.375 15.25,-9.582 14.039,-15.754 -1.207,-6.172 -9.981,-10.317 -18.871,-8.938 -8.891,1.375 -17.903,8.27 -26.915,15.164"
           style="fill:none;stroke:#888888;stroke-width:2.99999;stroke-linecap:round;stroke-linejoin:bevel;stroke-miterlimit:4;stroke-dasharray:none;stroke-opacity:1"
           id="path34634" />
      </g>
      <g
         id="g34636">
        <path
           d="M 519.551,47.715 C 526.113,36.887 532.68,26.059 532.195,17.074 531.715,8.09 524.184,0.949 517.922,1.535 c -6.266,0.586 -11.258,8.903 -10.777,17.887 0.484,8.984 6.445,18.637 12.406,28.293"
           style="fill:none;stroke:#888888;stroke-width:2.99999;stroke-linecap:round;stroke-linejoin:bevel;stroke-miterlimit:4;stroke-dasharray:none;stroke-opacity:1"
           id="path34638" />
      </g>
      <g
         id="g34640">
        <path
           d="m 251.344,240.32 c 6.562,-10.828 13.129,-21.656 12.644,-30.64 -0.48,-8.985 -8.011,-16.125 -14.273,-15.539 -6.266,0.586 -11.258,8.902 -10.777,17.886 0.484,8.985 6.445,18.637 12.406,28.293"
           style="fill:none;stroke:#888888;stroke-width:2.99999;stroke-linecap:round;stroke-linejoin:bevel;stroke-miterlimit:4;stroke-dasharray:none;stroke-opacity:1"
           id="path34642" />
      </g>
      <g
         id="g34644">
        <path
           d="M 97.262,47.715 C 103.824,36.887 110.387,26.059 109.906,17.074 109.422,8.09 101.891,0.949 95.629,1.535 89.367,2.121 84.371,10.438 84.855,19.422 c 0.485,8.984 6.446,18.637 12.407,28.293"
           style="fill:none;stroke:#888888;stroke-width:2.99999;stroke-linecap:round;stroke-linejoin:bevel;stroke-miterlimit:4;stroke-dasharray:none;stroke-opacity:1"
           id="path34646" />
      </g>
      <g
         id="g34648">
        <path
           d="m 365.469,240.32 c 6.562,-10.828 13.125,-21.656 12.644,-30.64 -0.484,-8.985 -8.015,-16.125 -14.277,-15.539 -6.262,0.586 -11.258,8.902 -10.774,17.886 0.485,8.985 6.446,18.637 12.407,28.293"
           style="fill:none;stroke:#888888;stroke-width:2.99999;stroke-linecap:round;stroke-linejoin:bevel;stroke-miterlimit:4;stroke-dasharray:none;stroke-opacity:1"
           id="path34650" />
      </g>
      <g
         id="g34652">
        <path
           d="m 97.262,494.633 c -6.563,10.828 -13.129,21.656 -12.645,30.64 0.485,8.985 8.012,16.125 14.274,15.539 6.265,-0.589 11.261,-8.902 10.777,-17.886 -0.484,-8.985 -6.445,-18.641 -12.406,-28.293"
           style="fill:none;stroke:#888888;stroke-width:2.99999;stroke-linecap:round;stroke-linejoin:bevel;stroke-miterlimit:4;stroke-dasharray:none;stroke-opacity:1"
           id="path34654" />
      </g>
      <g
         id="g34656">
        <path
           d="m 251.344,379.07 c -6.563,10.828 -13.125,21.653 -12.641,30.641 0.481,8.984 8.012,16.125 14.274,15.539 6.261,-0.59 11.257,-8.902 10.773,-17.891 -0.48,-8.984 -6.445,-18.636 -12.406,-28.289"
           style="fill:none;stroke:#888888;stroke-width:2.99999;stroke-linecap:round;stroke-linejoin:bevel;stroke-miterlimit:4;stroke-dasharray:none;stroke-opacity:1"
           id="path34658" />
      </g>
      <g
         id="g34660">
        <path
           d="m 365.469,379.07 c -6.563,10.828 -13.129,21.653 -12.645,30.641 0.485,8.984 8.012,16.125 14.278,15.539 6.261,-0.59 11.257,-8.902 10.773,-17.891 -0.484,-8.984 -6.445,-18.636 -12.406,-28.289"
           style="fill:none;stroke:#888888;stroke-width:2.99999;stroke-linecap:round;stroke-linejoin:bevel;stroke-miterlimit:4;stroke-dasharray:none;stroke-opacity:1"
           id="path34662" />
      </g>
      <g
         id="g34664">
        <path
           d="m 519.551,494.633 c -6.563,10.828 -13.125,21.656 -12.641,30.64 0.481,8.985 8.012,16.125 14.274,15.539 6.261,-0.589 11.257,-8.902 10.773,-17.886 -0.48,-8.985 -6.445,-18.641 -12.406,-28.293"
           style="fill:none;stroke:#888888;stroke-width:2.99999;stroke-linecap:round;stroke-linejoin:bevel;stroke-miterlimit:4;stroke-dasharray:none;stroke-opacity:1"
           id="path34666" />
      </g>
      <g
         id="g34668">
        <path
           d="m 569.105,482.246 c 11.43,5.449 22.856,10.902 31.747,9.524 8.894,-1.375 15.25,-9.579 14.039,-15.75 -1.207,-6.176 -9.981,-10.317 -18.871,-8.942 -8.891,1.379 -17.903,8.274 -26.915,15.168"
           style="fill:none;stroke:#888888;stroke-width:2.99999;stroke-linecap:round;stroke-linejoin:bevel;stroke-miterlimit:4;stroke-dasharray:none;stroke-opacity:1"
           id="path34670" />
      </g>
      <g
         id="g34672">
        <path
           d="m 47.707,189.41 c -10.465,-7.125 -20.934,-14.25 -29.93,-14.242 -9,0.012 -16.527,7.152 -16.269,13.437 0.254,6.286 8.297,11.711 17.293,11.704 9,-0.012 18.953,-5.454 28.906,-10.899"
           style="fill:none;stroke:#888888;stroke-width:2.99999;stroke-linecap:round;stroke-linejoin:bevel;stroke-miterlimit:4;stroke-dasharray:none;stroke-opacity:1"
           id="path34674" />
      </g>
      <g
         id="g34676">
        <path
           d="m 47.707,328.16 c -10.465,-7.125 -20.934,-14.25 -29.93,-14.238 -9,0.008 -16.527,7.148 -16.269,13.437 0.254,6.286 8.297,11.711 17.293,11.7 9,-0.008 18.953,-5.454 28.906,-10.899"
           style="fill:none;stroke:#888888;stroke-width:2.99999;stroke-linecap:round;stroke-linejoin:bevel;stroke-miterlimit:4;stroke-dasharray:none;stroke-opacity:1"
           id="path34678" />
      </g>
      <g
         id="g34680">
        <path
           d="m 47.707,482.246 c -10.465,-7.125 -20.934,-14.25 -29.93,-14.242 -9,0.012 -16.527,7.152 -16.269,13.437 0.254,6.286 8.297,11.711 17.293,11.704 9,-0.012 18.953,-5.454 28.906,-10.899"
           style="fill:none;stroke:#888888;stroke-width:2.99999;stroke-linecap:round;stroke-linejoin:bevel;stroke-miterlimit:4;stroke-dasharray:none;stroke-opacity:1"
           id="path34682" />
      </g>
      <g
         id="g34684">
        <path
           d="M 47.707,35.324 C 37.242,28.199 26.773,21.074 17.777,21.086 c -9,0.008 -16.527,7.152 -16.269,13.437 0.254,6.286 8.297,11.711 17.293,11.7 9,-0.008 18.953,-5.453 28.906,-10.899"
           style="fill:none;stroke:#888888;stroke-width:2.99999;stroke-linecap:round;stroke-linejoin:bevel;stroke-miterlimit:4;stroke-dasharray:none;stroke-opacity:1"
           id="path34686" />
      </g>
      <g
         id="g34688">
        <path
           d="m 369.219,379.371 c 0,2.074 -1.68,3.75 -3.75,3.75 -2.071,0 -3.75,-1.676 -3.75,-3.75 0,-2.07 1.679,-3.75 3.75,-3.75 2.07,0 3.75,1.68 3.75,3.75 z"
           style="fill:#000000;fill-opacity:0.999083;fill-rule:nonzero;stroke:#010000;stroke-width:15;stroke-linecap:butt;stroke-linejoin:miter;stroke-miterlimit:4;stroke-dasharray:none;stroke-opacity:0.999083"
           id="path34690" />
      </g>
      <path
         d="m 254.98,379.5 c 0,2.07 -1.679,3.75 -3.75,3.75 -2.07,0 -3.75,-1.68 -3.75,-3.75 0,-2.07 1.68,-3.75 3.75,-3.75 2.071,0 3.75,1.68 3.75,3.75 z"
         style="fill:#000000;fill-opacity:0.981603;fill-rule:nonzero;stroke:none"
         id="path34692" />
      <g
         id="g34694">
        <path
           d="m 254.98,379.5 c 0,2.07 -1.679,3.75 -3.75,3.75 -2.07,0 -3.75,-1.68 -3.75,-3.75 0,-2.07 1.68,-3.75 3.75,-3.75 2.071,0 3.75,1.68 3.75,3.75 z"
           style="fill:none;stroke:#010000;stroke-width:15;stroke-linecap:butt;stroke-linejoin:miter;stroke-miterlimit:4;stroke-dasharray:none;stroke-opacity:1"
           id="path34696" />
      </g>
      <g
         id="g34698">
        <path
           d="m 365.469,329.516 c -10.469,-7.125 -20.934,-14.25 -29.93,-14.239 -9,0.008 -16.527,7.153 -16.269,13.438 0.253,6.285 8.296,11.711 17.292,11.699 8.997,-0.008 18.954,-5.453 28.907,-10.898"
           style="fill:none;stroke:#888888;stroke-width:2.99999;stroke-linecap:round;stroke-linejoin:bevel;stroke-miterlimit:4;stroke-dasharray:none;stroke-opacity:1"
           id="path34700" />
      </g>
      <g
         id="g34702">
        <path
           d="M 365.469,289.871 C 355,282.75 344.535,275.625 335.539,275.633 c -9,0.008 -16.527,7.152 -16.269,13.437 0.253,6.285 8.296,11.711 17.292,11.703 8.997,-0.011 18.954,-5.457 28.907,-10.902"
           style="fill:none;stroke:#888888;stroke-width:2.99999;stroke-linecap:round;stroke-linejoin:bevel;stroke-miterlimit:4;stroke-dasharray:none;stroke-opacity:1"
           id="path34704" />
      </g>
      <g
         id="g34706">
        <path
           d="m 369.219,329.711 c 0,2.07 -1.68,3.75 -3.75,3.75 -2.071,0 -3.75,-1.68 -3.75,-3.75 0,-2.07 1.679,-3.75 3.75,-3.75 2.07,0 3.75,1.68 3.75,3.75 z"
           style="fill:#000000;fill-opacity:1;fill-rule:nonzero;stroke:#010000;stroke-width:15;stroke-linecap:butt;stroke-linejoin:miter;stroke-miterlimit:4;stroke-dasharray:none;stroke-opacity:1"
           id="path34708" />
      </g>
      <path
         d="m 255.094,329.812 c 0,2.071 -1.676,3.75 -3.75,3.75 -2.071,0 -3.75,-1.679 -3.75,-3.75 0,-2.074 1.679,-3.75 3.75,-3.75 2.074,0 3.75,1.676 3.75,3.75 z"
         style="fill:#000000;fill-opacity:0.981603;fill-rule:nonzero;stroke:none"
         id="path34710" />
      <g
         id="g34712">
        <path
           d="m 255.094,329.812 c 0,2.071 -1.676,3.75 -3.75,3.75 -2.071,0 -3.75,-1.679 -3.75,-3.75 0,-2.074 1.679,-3.75 3.75,-3.75 2.074,0 3.75,1.676 3.75,3.75 z"
           style="fill:none;stroke:#010000;stroke-width:15;stroke-linecap:butt;stroke-linejoin:miter;stroke-miterlimit:4;stroke-dasharray:none;stroke-opacity:1"
           id="path34714" />
      </g>
      <text
         xml:space="preserve"
         transform="translate(211.99567,347.02721)"
         style="font-variant:normal;font-weight:normal;font-size:44px;font-family:'Liberation Serif';-inkscape-font-specification:LiberationSerif;writing-mode:lr-tb;fill:#000000;fill-opacity:0.981603;fill-rule:nonzero;stroke:none"
         id="text34718"><tspan
           x="0"
           y="0"
           id="tspan34716">e</tspan></text>
      <text
         xml:space="preserve"
         transform="translate(231.52497,355.82721)"
         style="font-variant:normal;font-weight:normal;font-size:28.6px;font-family:'Liberation Serif';-inkscape-font-specification:LiberationSerif;writing-mode:lr-tb;fill:#000000;fill-opacity:0.981603;fill-rule:nonzero;stroke:none"
         id="text34722"><tspan
           x="0"
           y="0"
           id="tspan34720">1</tspan></text>
      <text
         xml:space="preserve"
         transform="translate(266.97979,390.74908)"
         style="font-variant:normal;font-weight:normal;font-size:44px;font-family:'Liberation Serif';-inkscape-font-specification:LiberationSerif;writing-mode:lr-tb;fill:#000000;fill-opacity:0.981603;fill-rule:nonzero;stroke:none"
         id="text34726"><tspan
           x="0"
           y="0"
           id="tspan34724">g</tspan></text>
      <text
         xml:space="preserve"
         transform="translate(288.9798,399.54909)"
         style="font-variant:normal;font-weight:normal;font-size:28.6px;font-family:'Liberation Serif';-inkscape-font-specification:LiberationSerif;writing-mode:lr-tb;fill:#000000;fill-opacity:0.981603;fill-rule:nonzero;stroke:none"
         id="text34730"><tspan
           x="0"
           y="0"
           id="tspan34728">1</tspan></text>
      <text
         xml:space="preserve"
         transform="translate(376.46658,358.99672)"
         style="font-variant:normal;font-weight:normal;font-size:44px;font-family:'Liberation Serif';-inkscape-font-specification:LiberationSerif;writing-mode:lr-tb;fill:#000000;fill-opacity:0.981603;fill-rule:nonzero;stroke:none"
         id="text34734"><tspan
           x="0"
           y="0"
           id="tspan34732">f</tspan></text>
      <text
         xml:space="preserve"
         transform="translate(391.11893,367.79672)"
         style="font-variant:normal;font-weight:normal;font-size:28.6px;font-family:'Liberation Serif';-inkscape-font-specification:LiberationSerif;writing-mode:lr-tb;fill:#000000;fill-opacity:0.981603;fill-rule:nonzero;stroke:none"
         id="text34738"><tspan
           x="0"
           y="0"
           id="tspan34736">1</tspan></text>
      <text
         xml:space="preserve"
         transform="translate(315.13557,398.65178)"
         style="font-variant:normal;font-weight:normal;font-size:44px;font-family:'Liberation Serif';-inkscape-font-specification:LiberationSerif;writing-mode:lr-tb;fill:#000000;fill-opacity:0.981603;fill-rule:nonzero;stroke:none"
         id="text34742"><tspan
           x="0"
           y="0"
           id="tspan34740">h</tspan></text>
      <text
         xml:space="preserve"
         transform="translate(337.13558,407.45178)"
         style="font-variant:normal;font-weight:normal;font-size:28.6px;font-family:'Liberation Serif';-inkscape-font-specification:LiberationSerif;writing-mode:lr-tb;fill:#000000;fill-opacity:0.981603;fill-rule:nonzero;stroke:none"
         id="text34746"><tspan
           x="0"
           y="0"
           id="tspan34744">1</tspan></text>
      <g
         id="g34748">
        <path
           d="m 47.707,328.16 c -10.465,-7.125 -20.934,-14.25 -29.93,-14.238 -9,0.008 -16.527,7.148 -16.269,13.437 0.254,6.286 8.297,11.711 17.293,11.7 9,-0.008 18.953,-5.454 28.906,-10.899"
           style="fill:none;stroke:#888888;stroke-width:2.99999;stroke-linecap:round;stroke-linejoin:bevel;stroke-miterlimit:4;stroke-dasharray:none;stroke-opacity:1"
           id="path34750" />
      </g>
    </g>
  </g>
</svg>
