<?xml version="1.0" encoding="UTF-8" standalone="no"?>
<!-- Created with Jerboa -->

<svg
	width="1406"
	height="651" >
	<style id="style">
		.arc0 {
			fill:none;
			fill-rule:evenodd;
			stroke:black;
			stroke-width:4;
			stroke-linecap:round;
			stroke-linejoin:round;
			stroke-opacity:1;
		}
		.arc1 {
			fill:none;
			fill-rule:evenodd;
			stroke:red;
			stroke-width:4;
			stroke-linecap:round;
			stroke-linejoin:round;
			stroke-opacity:1;
		}
		.arc2 {
			fill:none;
			fill-rule:evenodd;
			stroke:blue;
			stroke-width:4;
			stroke-linecap:round;
			stroke-linejoin:round;
			stroke-opacity:1;
		}
		.arc3 {
			fill:none;
			fill-rule:evenodd;
			stroke:green;
			stroke-width:4;
			stroke-linecap:round;
			stroke-linejoin:round;
			stroke-opacity:1;
		}
		.topological-dart {
			fill:#000000;
			stroke:#000000;
			stroke-width:0;
			stroke-linecap:round;
			stroke-linejoin:round;
			stroke-dasharray:none;
			paint-order:markers fill stroke;
		}
	</style>
<polygon
	points="683.21625,500.40573 683.21625,334.02008 718.1772,294.4713 858.253,302.39957 893.2139,345.90588 893.2139,512.2915 858.253,551.8403 718.1772,543.91205 "
	id="face_45_46_11_10_9_8_43_44"
	style="fill:rgb(192,192,192);stroke:none"
	opacity="1.0" />
<line
	class="arc1"
	id="link44_@1_43"
	x1="683.21625"
	y1="500.40573"
	x2="718.1772"
	y2="543.91205" />
<line
	class="arc2"
	id="link44_@2_39"
	x1="683.21625"
	y1="500.40573"
	x2="632.75946"
	y2="501.34045" />
<line
	class="arc0"
	id="link44_@0_45"
	x1="683.21625"
	y1="500.40573"
	x2="683.21625"
	y2="334.02008" />
<circle
	id="dart44"
	cx="683.21625"
	cy="500.40573"
	r="10"
	stroke="black"
	fill="rgb(0,0,0)" />
<polygon
	points="632.75946,501.34045 632.75946,334.95483 610.05554,296.4743 519.0893,308.68274 496.3854,353.25732 496.3854,519.64294 519.0893,558.1235 610.05554,545.91504 "
	id="face_40_41_36_35_34_33_38_39"
	style="fill:rgb(192,192,192);stroke:none"
	opacity="1.0" />
<line
	class="arc1"
	id="link39_@1_38"
	x1="632.75946"
	y1="501.34045"
	x2="610.05554"
	y2="545.91504" />
<line
	class="arc0"
	id="link39_@0_40"
	x1="632.75946"
	y1="501.34045"
	x2="632.75946"
	y2="334.95483" />
<circle
	id="dart39"
	cx="632.75946"
	cy="501.34045"
	r="10"
	stroke="black"
	fill="rgb(0,0,0)" />
<line
	class="arc1"
	id="link45_@1_46"
	x1="683.21625"
	y1="334.02008"
	x2="718.1772"
	y2="294.4713" />
<line
	class="arc2"
	id="link45_@2_40"
	x1="683.21625"
	y1="334.02008"
	x2="632.75946"
	y2="334.95483" />
<circle
	id="dart45"
	cx="683.21625"
	cy="334.02008"
	r="10"
	stroke="black"
	fill="rgb(0,0,0)" />
<line
	class="arc2"
	id="link43_@2_0"
	x1="718.1772"
	y1="543.91205"
	x2="698.3113"
	y2="582.9148" />
<line
	class="arc0"
	id="link43_@0_8"
	x1="718.1772"
	y1="543.91205"
	x2="858.253"
	y2="551.8403" />
<circle
	id="dart43"
	cx="718.1772"
	cy="543.91205"
	r="10"
	stroke="black"
	fill="rgb(0,0,0)" />
<line
	class="arc1"
	id="link40_@1_41"
	x1="632.75946"
	y1="334.95483"
	x2="610.05554"
	y2="296.4743" />
<circle
	id="dart40"
	cx="632.75946"
	cy="334.95483"
	r="10"
	stroke="black"
	fill="rgb(0,0,0)" />
<line
	class="arc2"
	id="link46_@2_47"
	x1="718.1772"
	y1="294.4713"
	x2="698.3113"
	y2="260.80096" />
<line
	class="arc0"
	id="link46_@0_11"
	x1="718.1772"
	y1="294.4713"
	x2="858.253"
	y2="302.39957" />
<circle
	id="dart46"
	cx="718.1772"
	cy="294.4713"
	r="10"
	stroke="black"
	fill="rgb(0,0,0)" />
<line
	class="arc2"
	id="link38_@2_1"
	x1="610.05554"
	y1="545.91504"
	x2="640.6464"
	y2="583.9831" />
<line
	class="arc0"
	id="link38_@0_33"
	x1="610.05554"
	y1="545.91504"
	x2="519.0893"
	y2="558.1235" />
<circle
	id="dart38"
	cx="610.05554"
	cy="545.91504"
	r="10"
	stroke="black"
	fill="rgb(0,0,0)" />
<polygon
	points="698.3113,582.9148 838.3871,590.8431 850.6441,595.86884 759.6778,608.0773 702.013,609.14557 561.9372,601.21735 549.6801,596.19147 640.6464,583.9831 "
	id="face_7_6_5_4_3_2_1_0"
	style="fill:rgb(192,192,192);stroke:none"
	opacity="1.0" />
<line
	class="arc1"
	id="link0_@1_1"
	x1="698.3113"
	y1="582.9148"
	x2="640.6464"
	y2="583.9831" />
<line
	class="arc0"
	id="link0_@0_7"
	x1="698.3113"
	y1="582.9148"
	x2="838.3871"
	y2="590.8431" />
<circle
	id="dart0"
	cx="698.3113"
	cy="582.9148"
	r="10"
	stroke="black"
	fill="rgb(0,0,0)" />
<line
	class="arc0"
	id="link1_@0_2"
	x1="640.6464"
	y1="583.9831"
	x2="549.6801"
	y2="596.19147" />
<circle
	id="dart1"
	cx="640.6464"
	cy="583.9831"
	r="10"
	stroke="black"
	fill="rgb(0,0,0)" />
<line
	class="arc2"
	id="link41_@2_42"
	x1="610.05554"
	y1="296.4743"
	x2="640.6464"
	y2="261.8692" />
<line
	class="arc0"
	id="link41_@0_36"
	x1="610.05554"
	y1="296.4743"
	x2="519.0893"
	y2="308.68274" />
<circle
	id="dart41"
	cx="610.05554"
	cy="296.4743"
	r="10"
	stroke="black"
	fill="rgb(0,0,0)" />
<polygon
	points="721.24146,197.10004 843.8368,204.03885 849.9653,165.02408 748.8605,21.275269 713.8995,19.296448 692.409,156.10645 "
	id="face_67_68_69_75_74_73"
	style="fill:rgb(192,192,192);stroke:none"
	opacity="1.0" />
<line
	class="arc1"
	id="link73_@1_74"
	x1="721.24146"
	y1="197.10004"
	x2="692.409"
	y2="156.10645" />
<line
	class="arc2"
	id="link73_@2_72"
	x1="721.24146"
	y1="197.10004"
	x2="701.1493"
	y2="229.27448" />
<line
	class="arc0"
	id="link73_@0_67"
	x1="721.24146"
	y1="197.10004"
	x2="843.8368"
	y2="204.03885" />
<circle
	id="dart73"
	cx="721.24146"
	cy="197.10004"
	r="10"
	stroke="black"
	fill="rgb(0,0,0)" />
<polygon
	points="701.1493,229.27448 841.22504,237.2027 853.48206,242.22849 762.51587,254.43695 704.85095,255.50519 564.7752,247.57697 552.5181,242.55118 643.4844,230.34268 "
	id="face_66_60_54_48_90_84_78_72"
	style="fill:rgb(192,192,192);stroke:none"
	opacity="1.0" />
<line
	class="arc1"
	id="link72_@1_78"
	x1="701.1493"
	y1="229.27448"
	x2="643.4844"
	y2="230.34268" />
<line
	class="arc3"
	id="link72_@3_47"
	x1="701.1493"
	y1="229.27448"
	x2="698.3113"
	y2="260.80096" />
<line
	class="arc0"
	id="link72_@0_66"
	x1="701.1493"
	y1="229.27448"
	x2="841.22504"
	y2="237.2027" />
<circle
	id="dart72"
	cx="701.1493"
	cy="229.27448"
	r="10"
	stroke="black"
	fill="rgb(0,0,0)" />
<line
	class="arc2"
	id="link74_@2_80"
	x1="692.409"
	y1="156.10645"
	x2="649.1604"
	y2="156.90771" />
<line
	class="arc0"
	id="link74_@0_75"
	x1="692.409"
	y1="156.10645"
	x2="713.8995"
	y2="19.296448" />
<circle
	id="dart74"
	cx="692.409"
	cy="156.10645"
	r="10"
	stroke="black"
	fill="rgb(0,0,0)" />
<polygon
	points="698.3113,260.80096 838.3871,268.7292 850.6441,273.755 759.6778,285.9634 702.013,287.0317 561.9372,279.1035 549.6801,274.07764 640.6464,261.8692 "
	id="face_12_17_22_27_32_37_42_47"
	style="fill:rgb(192,192,192);stroke:none"
	opacity="1.0" />
<line
	class="arc1"
	id="link47_@1_42"
	x1="698.3113"
	y1="260.80096"
	x2="640.6464"
	y2="261.8692" />
<line
	class="arc0"
	id="link47_@0_12"
	x1="698.3113"
	y1="260.80096"
	x2="838.3871"
	y2="268.7292" />
<circle
	id="dart47"
	cx="698.3113"
	cy="260.80096"
	r="10"
	stroke="black"
	fill="rgb(0,0,0)" />
<polygon
	points="649.1604,156.90771 670.6509,20.097656 647.94696,23.144775 546.84216,170.63959 540.7136,209.65439 620.32794,198.96945 "
	id="face_81_87_86_85_79_80"
	style="fill:rgb(192,192,192);stroke:none"
	opacity="1.0" />
<line
	class="arc1"
	id="link80_@1_79"
	x1="649.1604"
	y1="156.90771"
	x2="620.32794"
	y2="198.96945" />
<line
	class="arc0"
	id="link80_@0_81"
	x1="649.1604"
	y1="156.90771"
	x2="670.6509"
	y2="20.097656" />
<circle
	id="dart80"
	cx="649.1604"
	cy="156.90771"
	r="10"
	stroke="black"
	fill="rgb(0,0,0)" />
<line
	class="arc2"
	id="link78_@2_79"
	x1="643.4844"
	y1="230.34268"
	x2="620.32794"
	y2="198.96945" />
<line
	class="arc3"
	id="link78_@3_42"
	x1="643.4844"
	y1="230.34268"
	x2="640.6464"
	y2="261.8692" />
<line
	class="arc0"
	id="link78_@0_84"
	x1="643.4844"
	y1="230.34268"
	x2="552.5181"
	y2="242.55118" />
<circle
	id="dart78"
	cx="643.4844"
	cy="230.34268"
	r="10"
	stroke="black"
	fill="rgb(0,0,0)" />
<line
	class="arc0"
	id="link79_@0_85"
	x1="620.32794"
	y1="198.96945"
	x2="540.7136"
	y2="209.65439" />
<circle
	id="dart79"
	cx="620.32794"
	cy="198.96945"
	r="10"
	stroke="black"
	fill="rgb(0,0,0)" />
<line
	class="arc0"
	id="link42_@0_37"
	x1="640.6464"
	y1="261.8692"
	x2="549.6801"
	y2="274.07764" />
<circle
	id="dart42"
	cx="640.6464"
	cy="261.8692"
	r="10"
	stroke="black"
	fill="rgb(0,0,0)" />
<line
	class="arc1"
	id="link8_@1_9"
	x1="858.253"
	y1="551.8403"
	x2="893.2139"
	y2="512.2915" />
<line
	class="arc2"
	id="link8_@2_7"
	x1="858.253"
	y1="551.8403"
	x2="838.3871"
	y2="590.8431" />
<circle
	id="dart8"
	cx="858.253"
	cy="551.8403"
	r="10"
	stroke="black"
	fill="rgb(0,0,0)" />
<line
	class="arc1"
	id="link11_@1_10"
	x1="858.253"
	y1="302.39957"
	x2="893.2139"
	y2="345.90588" />
<line
	class="arc2"
	id="link11_@2_12"
	x1="858.253"
	y1="302.39957"
	x2="838.3871"
	y2="268.7292" />
<circle
	id="dart11"
	cx="858.253"
	cy="302.39957"
	r="10"
	stroke="black"
	fill="rgb(0,0,0)" />
<line
	class="arc2"
	id="link9_@2_14"
	x1="893.2139"
	y1="512.2915"
	x2="903.93884"
	y2="516.6891" />
<line
	class="arc0"
	id="link9_@0_10"
	x1="893.2139"
	y1="512.2915"
	x2="893.2139"
	y2="345.90588" />
<circle
	id="dart9"
	cx="893.2139"
	cy="512.2915"
	r="10"
	stroke="black"
	fill="rgb(0,0,0)" />
<line
	class="arc1"
	id="link7_@1_6"
	x1="838.3871"
	y1="590.8431"
	x2="850.6441"
	y2="595.86884" />
<circle
	id="dart7"
	cx="838.3871"
	cy="590.8431"
	r="10"
	stroke="black"
	fill="rgb(0,0,0)" />
<line
	class="arc1"
	id="link67_@1_68"
	x1="843.8368"
	y1="204.03885"
	x2="849.9653"
	y2="165.02408" />
<line
	class="arc2"
	id="link67_@2_66"
	x1="843.8368"
	y1="204.03885"
	x2="841.22504"
	y2="237.2027" />
<circle
	id="dart67"
	cx="843.8368"
	cy="204.03885"
	r="10"
	stroke="black"
	fill="rgb(0,0,0)" />
<line
	class="arc2"
	id="link10_@2_15"
	x1="893.2139"
	y1="345.90588"
	x2="903.93884"
	y2="350.30347" />
<circle
	id="dart10"
	cx="893.2139"
	cy="345.90588"
	r="10"
	stroke="black"
	fill="rgb(0,0,0)" />
<line
	class="arc1"
	id="link66_@1_60"
	x1="841.22504"
	y1="237.2027"
	x2="853.48206"
	y2="242.22849" />
<line
	class="arc3"
	id="link66_@3_12"
	x1="841.22504"
	y1="237.2027"
	x2="838.3871"
	y2="268.7292" />
<circle
	id="dart66"
	cx="841.22504"
	cy="237.2027"
	r="10"
	stroke="black"
	fill="rgb(0,0,0)" />
<line
	class="arc1"
	id="link12_@1_17"
	x1="838.3871"
	y1="268.7292"
	x2="850.6441"
	y2="273.755" />
<circle
	id="dart12"
	cx="838.3871"
	cy="268.7292"
	r="10"
	stroke="black"
	fill="rgb(0,0,0)" />
<line
	class="arc2"
	id="link68_@2_62"
	x1="849.9653"
	y1="165.02408"
	x2="859.1581"
	y2="168.79352" />
<line
	class="arc0"
	id="link68_@0_69"
	x1="849.9653"
	y1="165.02408"
	x2="748.8605"
	y2="21.275269" />
<circle
	id="dart68"
	cx="849.9653"
	cy="165.02408"
	r="10"
	stroke="black"
	fill="rgb(0,0,0)" />
<line
	class="arc1"
	id="link33_@1_34"
	x1="519.0893"
	y1="558.1235"
	x2="496.3854"
	y2="519.64294" />
<line
	class="arc2"
	id="link33_@2_2"
	x1="519.0893"
	y1="558.1235"
	x2="549.6801"
	y2="596.19147" />
<circle
	id="dart33"
	cx="519.0893"
	cy="558.1235"
	r="10"
	stroke="black"
	fill="rgb(0,0,0)" />
<polygon
	points="903.93884,516.6891 903.93884,350.30347 881.23486,311.82297 790.2686,324.0314 767.5647,368.60596 767.5647,534.9916 790.2686,573.4721 881.23486,561.2637 "
	id="face_15_16_21_20_19_18_13_14"
	style="fill:rgb(192,192,192);stroke:none"
	opacity="1.0" />
<line
	class="arc1"
	id="link14_@1_13"
	x1="903.93884"
	y1="516.6891"
	x2="881.23486"
	y2="561.2637" />
<line
	class="arc0"
	id="link14_@0_15"
	x1="903.93884"
	y1="516.6891"
	x2="903.93884"
	y2="350.30347" />
<circle
	id="dart14"
	cx="903.93884"
	cy="516.6891"
	r="10"
	stroke="black"
	fill="rgb(0,0,0)" />
<line
	class="arc1"
	id="link75_@1_69"
	x1="713.8995"
	y1="19.296448"
	x2="748.8605"
	y2="21.275269" />
<line
	class="arc2"
	id="link75_@2_81"
	x1="713.8995"
	y1="19.296448"
	x2="670.6509"
	y2="20.097656" />
<circle
	id="dart75"
	cx="713.8995"
	cy="19.296448"
	r="10"
	stroke="black"
	fill="rgb(0,0,0)" />
<line
	class="arc2"
	id="link6_@2_13"
	x1="850.6441"
	y1="595.86884"
	x2="881.23486"
	y2="561.2637" />
<line
	class="arc0"
	id="link6_@0_5"
	x1="850.6441"
	y1="595.86884"
	x2="759.6778"
	y2="608.0773" />
<circle
	id="dart6"
	cx="850.6441"
	cy="595.86884"
	r="10"
	stroke="black"
	fill="rgb(0,0,0)" />
<line
	class="arc1"
	id="link81_@1_87"
	x1="670.6509"
	y1="20.097656"
	x2="647.94696"
	y2="23.144775" />
<circle
	id="dart81"
	cx="670.6509"
	cy="20.097656"
	r="10"
	stroke="black"
	fill="rgb(0,0,0)" />
<line
	class="arc1"
	id="link2_@1_3"
	x1="549.6801"
	y1="596.19147"
	x2="561.9372"
	y2="601.21735" />
<circle
	id="dart2"
	cx="549.6801"
	cy="596.19147"
	r="10"
	stroke="black"
	fill="rgb(0,0,0)" />
<line
	class="arc1"
	id="link15_@1_16"
	x1="903.93884"
	y1="350.30347"
	x2="881.23486"
	y2="311.82297" />
<circle
	id="dart15"
	cx="903.93884"
	cy="350.30347"
	r="10"
	stroke="black"
	fill="rgb(0,0,0)" />
<line
	class="arc1"
	id="link36_@1_35"
	x1="519.0893"
	y1="308.68274"
	x2="496.3854"
	y2="353.25732" />
<line
	class="arc2"
	id="link36_@2_37"
	x1="519.0893"
	y1="308.68274"
	x2="549.6801"
	y2="274.07764" />
<circle
	id="dart36"
	cx="519.0893"
	cy="308.68274"
	r="10"
	stroke="black"
	fill="rgb(0,0,0)" />
<line
	class="arc1"
	id="link85_@1_86"
	x1="540.7136"
	y1="209.65439"
	x2="546.84216"
	y2="170.63959" />
<line
	class="arc2"
	id="link85_@2_84"
	x1="540.7136"
	y1="209.65439"
	x2="552.5181"
	y2="242.55118" />
<circle
	id="dart85"
	cx="540.7136"
	cy="209.65439"
	r="10"
	stroke="black"
	fill="rgb(0,0,0)" />
<line
	class="arc2"
	id="link69_@2_63"
	x1="748.8605"
	y1="21.275269"
	x2="758.0533"
	y2="25.044617" />
<circle
	id="dart69"
	cx="748.8605"
	cy="21.275269"
	r="10"
	stroke="black"
	fill="rgb(0,0,0)" />
<line
	class="arc0"
	id="link13_@0_18"
	x1="881.23486"
	y1="561.2637"
	x2="790.2686"
	y2="573.4721" />
<circle
	id="dart13"
	cx="881.23486"
	cy="561.2637"
	r="10"
	stroke="black"
	fill="rgb(0,0,0)" />
<polygon
	points="859.1581,168.79352 758.0533,25.044617 735.3493,28.091675 756.8399,182.52536 785.6723,223.51895 865.2866,212.83401 "
	id="face_63_57_56_55_61_62"
	style="fill:rgb(192,192,192);stroke:none"
	opacity="1.0" />
<line
	class="arc1"
	id="link62_@1_61"
	x1="859.1581"
	y1="168.79352"
	x2="865.2866"
	y2="212.83401" />
<line
	class="arc0"
	id="link62_@0_63"
	x1="859.1581"
	y1="168.79352"
	x2="758.0533"
	y2="25.044617" />
<circle
	id="dart62"
	cx="859.1581"
	cy="168.79352"
	r="10"
	stroke="black"
	fill="rgb(0,0,0)" />
<line
	class="arc2"
	id="link34_@2_29"
	x1="496.3854"
	y1="519.64294"
	x2="489.62985"
	y2="512.6693" />
<line
	class="arc0"
	id="link34_@0_35"
	x1="496.3854"
	y1="519.64294"
	x2="496.3854"
	y2="353.25732" />
<circle
	id="dart34"
	cx="496.3854"
	cy="519.64294"
	r="10"
	stroke="black"
	fill="rgb(0,0,0)" />
<line
	class="arc2"
	id="link60_@2_61"
	x1="853.48206"
	y1="242.22849"
	x2="865.2866"
	y2="212.83401" />
<line
	class="arc3"
	id="link60_@3_17"
	x1="853.48206"
	y1="242.22849"
	x2="850.6441"
	y2="273.755" />
<line
	class="arc0"
	id="link60_@0_54"
	x1="853.48206"
	y1="242.22849"
	x2="762.51587"
	y2="254.43695" />
<circle
	id="dart60"
	cx="853.48206"
	cy="242.22849"
	r="10"
	stroke="black"
	fill="rgb(0,0,0)" />
<line
	class="arc2"
	id="link17_@2_16"
	x1="850.6441"
	y1="273.755"
	x2="881.23486"
	y2="311.82297" />
<line
	class="arc0"
	id="link17_@0_22"
	x1="850.6441"
	y1="273.755"
	x2="759.6778"
	y2="285.9634" />
<circle
	id="dart17"
	cx="850.6441"
	cy="273.755"
	r="10"
	stroke="black"
	fill="rgb(0,0,0)" />
<line
	class="arc1"
	id="link84_@1_90"
	x1="552.5181"
	y1="242.55118"
	x2="564.7752"
	y2="247.57697" />
<line
	class="arc3"
	id="link84_@3_37"
	x1="552.5181"
	y1="242.55118"
	x2="549.6801"
	y2="274.07764" />
<circle
	id="dart84"
	cx="552.5181"
	cy="242.55118"
	r="10"
	stroke="black"
	fill="rgb(0,0,0)" />
<line
	class="arc1"
	id="link37_@1_32"
	x1="549.6801"
	y1="274.07764"
	x2="561.9372"
	y2="279.1035" />
<circle
	id="dart37"
	cx="549.6801"
	cy="274.07764"
	r="10"
	stroke="black"
	fill="rgb(0,0,0)" />
<line
	class="arc2"
	id="link87_@2_93"
	x1="647.94696"
	y1="23.144775"
	x2="657.1398"
	y2="26.914124" />
<line
	class="arc0"
	id="link87_@0_86"
	x1="647.94696"
	y1="23.144775"
	x2="546.84216"
	y2="170.63959" />
<circle
	id="dart87"
	cx="647.94696"
	cy="23.144775"
	r="10"
	stroke="black"
	fill="rgb(0,0,0)" />
<line
	class="arc2"
	id="link35_@2_30"
	x1="496.3854"
	y1="353.25732"
	x2="489.62985"
	y2="367.04742" />
<circle
	id="dart35"
	cx="496.3854"
	cy="353.25732"
	r="10"
	stroke="black"
	fill="rgb(0,0,0)" />
<line
	class="arc0"
	id="link16_@0_21"
	x1="881.23486"
	y1="311.82297"
	x2="790.2686"
	y2="324.0314" />
<circle
	id="dart16"
	cx="881.23486"
	cy="311.82297"
	r="10"
	stroke="black"
	fill="rgb(0,0,0)" />
<line
	class="arc2"
	id="link86_@2_92"
	x1="546.84216"
	y1="170.63959"
	x2="556.035"
	y2="174.40903" />
<circle
	id="dart86"
	cx="546.84216"
	cy="170.63959"
	r="10"
	stroke="black"
	fill="rgb(0,0,0)" />
<line
	class="arc0"
	id="link61_@0_55"
	x1="865.2866"
	y1="212.83401"
	x2="785.6723"
	y2="223.51895" />
<circle
	id="dart61"
	cx="865.2866"
	cy="212.83401"
	r="10"
	stroke="black"
	fill="rgb(0,0,0)" />
<line
	class="arc1"
	id="link63_@1_57"
	x1="758.0533"
	y1="25.044617"
	x2="735.3493"
	y2="28.091675" />
<circle
	id="dart63"
	cx="758.0533"
	cy="25.044617"
	r="10"
	stroke="black"
	fill="rgb(0,0,0)" />
<line
	class="arc2"
	id="link3_@2_28"
	x1="561.9372"
	y1="601.21735"
	x2="550.8115"
	y2="588.80536" />
<line
	class="arc0"
	id="link3_@0_4"
	x1="561.9372"
	y1="601.21735"
	x2="702.013"
	y2="609.14557" />
<circle
	id="dart3"
	cx="561.9372"
	cy="601.21735"
	r="10"
	stroke="black"
	fill="rgb(0,0,0)" />
<polygon
	points="489.62985,512.6693 489.62985,367.04742 507.11035,347.27304 568.408,423.5534 568.408,465.08093 507.11035,534.4224 "
	id="face_30_82_83_89_88_29"
	style="fill:rgb(192,192,192);stroke:none"
	opacity="1.0" />
<line
	class="arc1"
	id="link29_@1_88"
	x1="489.62985"
	y1="512.6693"
	x2="507.11035"
	y2="534.4224" />
<line
	class="arc0"
	id="link29_@0_30"
	x1="489.62985"
	y1="512.6693"
	x2="489.62985"
	y2="367.04742" />
<circle
	id="dart29"
	cx="489.62985"
	cy="512.6693"
	r="10"
	stroke="black"
	fill="rgb(0,0,0)" />
<line
	class="arc2"
	id="link88_@2_94"
	x1="507.11035"
	y1="534.4224"
	x2="533.33105"
	y2="567.0522" />
<line
	class="arc0"
	id="link88_@0_89"
	x1="507.11035"
	y1="534.4224"
	x2="568.408"
	y2="465.08093" />
<circle
	id="dart88"
	cx="507.11035"
	cy="534.4224"
	r="10"
	stroke="black"
	fill="rgb(0,0,0)" />
<line
	class="arc1"
	id="link30_@1_82"
	x1="489.62985"
	y1="367.04742"
	x2="507.11035"
	y2="347.27304" />
<circle
	id="dart30"
	cx="489.62985"
	cy="367.04742"
	r="10"
	stroke="black"
	fill="rgb(0,0,0)" />
<polygon
	points="657.1398,26.914124 556.035,174.40903 562.16345,218.44952 684.7588,225.38837 713.5912,183.32663 692.1007,28.892883 "
	id="face_92_91_49_50_51_93"
	style="fill:rgb(192,192,192);stroke:none"
	opacity="1.0" />
<line
	class="arc1"
	id="link93_@1_51"
	x1="657.1398"
	y1="26.914124"
	x2="692.1007"
	y2="28.892883" />
<line
	class="arc0"
	id="link93_@0_92"
	x1="657.1398"
	y1="26.914124"
	x2="556.035"
	y2="174.40903" />
<circle
	id="dart93"
	cx="657.1398"
	cy="26.914124"
	r="10"
	stroke="black"
	fill="rgb(0,0,0)" />
<line
	class="arc2"
	id="link90_@2_91"
	x1="564.7752"
	y1="247.57697"
	x2="562.16345"
	y2="218.44952" />
<line
	class="arc3"
	id="link90_@3_32"
	x1="564.7752"
	y1="247.57697"
	x2="561.9372"
	y2="279.1035" />
<line
	class="arc0"
	id="link90_@0_48"
	x1="564.7752"
	y1="247.57697"
	x2="704.85095"
	y2="255.50519" />
<circle
	id="dart90"
	cx="564.7752"
	cy="247.57697"
	r="10"
	stroke="black"
	fill="rgb(0,0,0)" />
<line
	class="arc2"
	id="link32_@2_31"
	x1="561.9372"
	y1="279.1035"
	x2="550.8115"
	y2="297.83716" />
<line
	class="arc0"
	id="link32_@0_27"
	x1="561.9372"
	y1="279.1035"
	x2="702.013"
	y2="287.0317" />
<circle
	id="dart32"
	cx="561.9372"
	cy="279.1035"
	r="10"
	stroke="black"
	fill="rgb(0,0,0)" />
<line
	class="arc1"
	id="link92_@1_91"
	x1="556.035"
	y1="174.40903"
	x2="562.16345"
	y2="218.44952" />
<circle
	id="dart92"
	cx="556.035"
	cy="174.40903"
	r="10"
	stroke="black"
	fill="rgb(0,0,0)" />
<polygon
	points="533.33105,567.0522 594.6287,497.71063 629.58966,499.68942 690.8873,575.9698 673.40686,595.7442 550.8115,588.80536 "
	id="face_95_53_52_23_28_94"
	style="fill:rgb(192,192,192);stroke:none"
	opacity="1.0" />
<line
	class="arc1"
	id="link94_@1_28"
	x1="533.33105"
	y1="567.0522"
	x2="550.8115"
	y2="588.80536" />
<line
	class="arc0"
	id="link94_@0_95"
	x1="533.33105"
	y1="567.0522"
	x2="594.6287"
	y2="497.71063" />
<circle
	id="dart94"
	cx="533.33105"
	cy="567.0522"
	r="10"
	stroke="black"
	fill="rgb(0,0,0)" />
<line
	class="arc2"
	id="link82_@2_76"
	x1="507.11035"
	y1="347.27304"
	x2="533.33105"
	y2="317.6115" />
<line
	class="arc0"
	id="link82_@0_83"
	x1="507.11035"
	y1="347.27304"
	x2="568.408"
	y2="423.5534" />
<circle
	id="dart82"
	cx="507.11035"
	cy="347.27304"
	r="10"
	stroke="black"
	fill="rgb(0,0,0)" />
<line
	class="arc2"
	id="link57_@2_51"
	x1="735.3493"
	y1="28.091675"
	x2="692.1007"
	y2="28.892883" />
<line
	class="arc0"
	id="link57_@0_56"
	x1="735.3493"
	y1="28.091675"
	x2="756.8399"
	y2="182.52536" />
<circle
	id="dart57"
	cx="735.3493"
	cy="28.091675"
	r="10"
	stroke="black"
	fill="rgb(0,0,0)" />
<line
	class="arc0"
	id="link28_@0_23"
	x1="550.8115"
	y1="588.80536"
	x2="673.40686"
	y2="595.7442" />
<line
	class="arc0"
	id="link51_@0_50"
	x1="692.1007"
	y1="28.892883"
	x2="713.5912"
	y2="183.32663" />
<circle
	id="dart51"
	cx="692.1007"
	cy="28.892883"
	r="10"
	stroke="black"
	fill="rgb(0,0,0)" />
<polygon
	points="533.33105,317.6115 594.6287,393.89185 629.58966,395.87064 690.8873,326.5291 673.40686,304.77597 550.8115,297.83716 "
	id="face_77_71_70_26_31_76"
	style="fill:rgb(192,192,192);stroke:none"
	opacity="1.0" />
<line
	class="arc1"
	id="link76_@1_31"
	x1="533.33105"
	y1="317.6115"
	x2="550.8115"
	y2="297.83716" />
<line
	class="arc0"
	id="link76_@0_77"
	x1="533.33105"
	y1="317.6115"
	x2="594.6287"
	y2="393.89185" />
<circle
	id="dart76"
	cx="533.33105"
	cy="317.6115"
	r="10"
	stroke="black"
	fill="rgb(0,0,0)" />
<line
	class="arc0"
	id="link91_@0_49"
	x1="562.16345"
	y1="218.44952"
	x2="684.7588"
	y2="225.38837" />
<circle
	id="dart91"
	cx="562.16345"
	cy="218.44952"
	r="10"
	stroke="black"
	fill="rgb(0,0,0)" />
<line
	class="arc1"
	id="link89_@1_83"
	x1="568.408"
	y1="465.08093"
	x2="568.408"
	y2="423.5534" />
<line
	class="arc2"
	id="link89_@2_95"
	x1="568.408"
	y1="465.08093"
	x2="594.6287"
	y2="497.71063" />
<circle
	id="dart89"
	cx="568.408"
	cy="465.08093"
	r="10"
	stroke="black"
	fill="rgb(0,0,0)" />
<line
	class="arc0"
	id="link31_@0_26"
	x1="550.8115"
	y1="297.83716"
	x2="673.40686"
	y2="304.77597" />
<circle
	id="dart31"
	cx="550.8115"
	cy="297.83716"
	r="10"
	stroke="black"
	fill="rgb(0,0,0)" />
<line
	class="arc2"
	id="link83_@2_77"
	x1="568.408"
	y1="423.5534"
	x2="594.6287"
	y2="393.89185" />
<circle
	id="dart83"
	cx="568.408"
	cy="423.5534"
	r="10"
	stroke="black"
	fill="rgb(0,0,0)" />
<line
	class="arc1"
	id="link95_@1_53"
	x1="594.6287"
	y1="497.71063"
	x2="629.58966"
	y2="499.68942" />
<circle
	id="dart95"
	cx="594.6287"
	cy="497.71063"
	r="10"
	stroke="black"
	fill="rgb(0,0,0)" />
<line
	class="arc1"
	id="link5_@1_4"
	x1="759.6778"
	y1="608.0773"
	x2="702.013"
	y2="609.14557" />
<line
	class="arc2"
	id="link5_@2_18"
	x1="759.6778"
	y1="608.0773"
	x2="790.2686"
	y2="573.4721" />
<circle
	id="dart5"
	cx="759.6778"
	cy="608.0773"
	r="10"
	stroke="black"
	fill="rgb(0,0,0)" />
<line
	class="arc1"
	id="link77_@1_71"
	x1="594.6287"
	y1="393.89185"
	x2="629.58966"
	y2="395.87064" />
<circle
	id="dart77"
	cx="594.6287"
	cy="393.89185"
	r="10"
	stroke="black"
	fill="rgb(0,0,0)" />
<line
	class="arc2"
	id="link4_@2_23"
	x1="702.013"
	y1="609.14557"
	x2="673.40686"
	y2="595.7442" />
<circle
	id="dart4"
	cx="702.013"
	cy="609.14557"
	r="10"
	stroke="black"
	fill="rgb(0,0,0)" />
<line
	class="arc2"
	id="link53_@2_59"
	x1="629.58966"
	y1="499.68942"
	x2="655.8104"
	y2="470.02786" />
<line
	class="arc0"
	id="link53_@0_52"
	x1="629.58966"
	y1="499.68942"
	x2="690.8873"
	y2="575.9698" />
<circle
	id="dart53"
	cx="629.58966"
	cy="499.68942"
	r="10"
	stroke="black"
	fill="rgb(0,0,0)" />
<line
	class="arc1"
	id="link18_@1_19"
	x1="790.2686"
	y1="573.4721"
	x2="767.5647"
	y2="534.9916" />
<circle
	id="dart18"
	cx="790.2686"
	cy="573.4721"
	r="10"
	stroke="black"
	fill="rgb(0,0,0)" />
<line
	class="arc1"
	id="link54_@1_48"
	x1="762.51587"
	y1="254.43695"
	x2="704.85095"
	y2="255.50519" />
<line
	class="arc2"
	id="link54_@2_55"
	x1="762.51587"
	y1="254.43695"
	x2="785.6723"
	y2="223.51895" />
<line
	class="arc3"
	id="link54_@3_22"
	x1="762.51587"
	y1="254.43695"
	x2="759.6778"
	y2="285.9634" />
<circle
	id="dart54"
	cx="762.51587"
	cy="254.43695"
	r="10"
	stroke="black"
	fill="rgb(0,0,0)" />
<line
	class="arc2"
	id="link71_@2_65"
	x1="629.58966"
	y1="395.87064"
	x2="655.8104"
	y2="428.50037" />
<line
	class="arc0"
	id="link71_@0_70"
	x1="629.58966"
	y1="395.87064"
	x2="690.8873"
	y2="326.5291" />
<circle
	id="dart71"
	cx="629.58966"
	cy="395.87064"
	r="10"
	stroke="black"
	fill="rgb(0,0,0)" />
<line
	class="arc1"
	id="link22_@1_27"
	x1="759.6778"
	y1="285.9634"
	x2="702.013"
	y2="287.0317" />
<line
	class="arc2"
	id="link22_@2_21"
	x1="759.6778"
	y1="285.9634"
	x2="790.2686"
	y2="324.0314" />
<circle
	id="dart22"
	cx="759.6778"
	cy="285.9634"
	r="10"
	stroke="black"
	fill="rgb(0,0,0)" />
<line
	class="arc1"
	id="link55_@1_56"
	x1="785.6723"
	y1="223.51895"
	x2="756.8399"
	y2="182.52536" />
<circle
	id="dart55"
	cx="785.6723"
	cy="223.51895"
	r="10"
	stroke="black"
	fill="rgb(0,0,0)" />
<line
	class="arc1"
	id="link23_@1_52"
	x1="673.40686"
	y1="595.7442"
	x2="690.8873"
	y2="575.9698" />
<circle
	id="dart23"
	cx="673.40686"
	cy="595.7442"
	r="10"
	stroke="black"
	fill="rgb(0,0,0)" />
<polygon
	points="655.8104,470.02786 717.1081,546.3082 734.58856,526.5339 734.58856,380.912 717.1081,359.15884 655.8104,428.50037 "
	id="face_58_24_25_64_65_59"
	style="fill:rgb(192,192,192);stroke:none"
	opacity="1.0" />
<line
	class="arc1"
	id="link59_@1_65"
	x1="655.8104"
	y1="470.02786"
	x2="655.8104"
	y2="428.50037" />
<line
	class="arc0"
	id="link59_@0_58"
	x1="655.8104"
	y1="470.02786"
	x2="717.1081"
	y2="546.3082" />
<circle
	id="dart59"
	cx="655.8104"
	cy="470.02786"
	r="10"
	stroke="black"
	fill="rgb(0,0,0)" />
<line
	class="arc2"
	id="link48_@2_49"
	x1="704.85095"
	y1="255.50519"
	x2="684.7588"
	y2="225.38837" />
<line
	class="arc3"
	id="link48_@3_27"
	x1="704.85095"
	y1="255.50519"
	x2="702.013"
	y2="287.0317" />
<circle
	id="dart48"
	cx="704.85095"
	cy="255.50519"
	r="10"
	stroke="black"
	fill="rgb(0,0,0)" />
<line
	class="arc2"
	id="link27_@2_26"
	x1="702.013"
	y1="287.0317"
	x2="673.40686"
	y2="304.77597" />
<circle
	id="dart27"
	cx="702.013"
	cy="287.0317"
	r="10"
	stroke="black"
	fill="rgb(0,0,0)" />
<line
	class="arc2"
	id="link56_@2_50"
	x1="756.8399"
	y1="182.52536"
	x2="713.5912"
	y2="183.32663" />
<circle
	id="dart56"
	cx="756.8399"
	cy="182.52536"
	r="10"
	stroke="black"
	fill="rgb(0,0,0)" />
<line
	class="arc0"
	id="link65_@0_64"
	x1="655.8104"
	y1="428.50037"
	x2="717.1081"
	y2="359.15884" />
<circle
	id="dart65"
	cx="655.8104"
	cy="428.50037"
	r="10"
	stroke="black"
	fill="rgb(0,0,0)" />
<line
	class="arc1"
	id="link21_@1_20"
	x1="790.2686"
	y1="324.0314"
	x2="767.5647"
	y2="368.60596" />
<circle
	id="dart21"
	cx="790.2686"
	cy="324.0314"
	r="10"
	stroke="black"
	fill="rgb(0,0,0)" />
<line
	class="arc1"
	id="link50_@1_49"
	x1="713.5912"
	y1="183.32663"
	x2="684.7588"
	y2="225.38837" />
<circle
	id="dart50"
	cx="713.5912"
	cy="183.32663"
	r="10"
	stroke="black"
	fill="rgb(0,0,0)" />
<line
	class="arc2"
	id="link52_@2_58"
	x1="690.8873"
	y1="575.9698"
	x2="717.1081"
	y2="546.3082" />
<circle
	id="dart52"
	cx="690.8873"
	cy="575.9698"
	r="10"
	stroke="black"
	fill="rgb(0,0,0)" />
<circle
	id="dart49"
	cx="684.7588"
	cy="225.38837"
	r="10"
	stroke="black"
	fill="rgb(0,0,0)" />
<line
	class="arc2"
	id="link19_@2_24"
	x1="767.5647"
	y1="534.9916"
	x2="734.58856"
	y2="526.5339" />
<line
	class="arc0"
	id="link19_@0_20"
	x1="767.5647"
	y1="534.9916"
	x2="767.5647"
	y2="368.60596" />
<circle
	id="dart19"
	cx="767.5647"
	cy="534.9916"
	r="10"
	stroke="black"
	fill="rgb(0,0,0)" />
<line
	class="arc1"
	id="link26_@1_70"
	x1="673.40686"
	y1="304.77597"
	x2="690.8873"
	y2="326.5291" />
<circle
	id="dart26"
	cx="673.40686"
	cy="304.77597"
	r="10"
	stroke="black"
	fill="rgb(0,0,0)" />
<line
	class="arc1"
	id="link58_@1_24"
	x1="717.1081"
	y1="546.3082"
	x2="734.58856"
	y2="526.5339" />
<circle
	id="dart58"
	cx="717.1081"
	cy="546.3082"
	r="10"
	stroke="black"
	fill="rgb(0,0,0)" />
<line
	class="arc2"
	id="link70_@2_64"
	x1="690.8873"
	y1="326.5291"
	x2="717.1081"
	y2="359.15884" />
<circle
	id="dart70"
	cx="690.8873"
	cy="326.5291"
	r="10"
	stroke="black"
	fill="rgb(0,0,0)" />
<line
	class="arc2"
	id="link20_@2_25"
	x1="767.5647"
	y1="368.60596"
	x2="734.58856"
	y2="380.912" />
<circle
	id="dart20"
	cx="767.5647"
	cy="368.60596"
	r="10"
	stroke="black"
	fill="rgb(0,0,0)" />
<line
	class="arc0"
	id="link24_@0_25"
	x1="734.58856"
	y1="526.5339"
	x2="734.58856"
	y2="380.912" />
<circle
	id="dart24"
	cx="734.58856"
	cy="526.5339"
	r="10"
	stroke="black"
	fill="rgb(0,0,0)" />
<line
	class="arc1"
	id="link64_@1_25"
	x1="717.1081"
	y1="359.15884"
	x2="734.58856"
	y2="380.912" />
<circle
	id="dart64"
	cx="717.1081"
	cy="359.15884"
	r="10"
	stroke="black"
	fill="rgb(0,0,0)" />
<circle
	id="dart25"
	cx="734.58856"
	cy="380.912"
	r="10"
	stroke="black"
	fill="rgb(0,0,0)" />
</svg>
