<?xml version="1.0" encoding="UTF-8" standalone="no"?>
<!DOCTYPE svg PUBLIC "-//W3C//DTD SVG 1.1//EN"
 "http://www.w3.org/Graphics/SVG/1.1/DTD/svg11.dtd">
<!-- Generated by graphviz version 9.0.0 (0)
 -->
<!-- Title: HistoryRecord Pages: 1 -->
<svg width="328pt" height="442pt"
 viewBox="0.00 0.00 328.00 442.00" xmlns="http://www.w3.org/2000/svg" xmlns:xlink="http://www.w3.org/1999/xlink">
<g id="graph0" class="graph" transform="scale(1 1) rotate(0) translate(4 438)">
<title>HistoryRecord</title>
<polygon fill="white" stroke="none" points="-4,4 -4,-438 324,-438 324,4 -4,4"/>
<g id="clust1" class="cluster">
<title>cluster_1</title>
<path fill="none" stroke="black" d="M30,-373C30,-373 300,-373 300,-373 306,-373 312,-379 312,-385 312,-385 312,-414 312,-414 312,-420 306,-426 300,-426 300,-426 30,-426 30,-426 24,-426 18,-420 18,-414 18,-414 18,-385 18,-385 18,-379 24,-373 30,-373"/>
</g>
<g id="clust2" class="cluster">
<title>cluster_1n3</title>
<polygon fill="none" stroke="black" points="53,-300 53,-353 267,-353 267,-300 53,-300"/>
</g>
<g id="clust3" class="cluster">
<title>cluster_2</title>
<path fill="none" stroke="black" d="M20,-227C20,-227 290,-227 290,-227 296,-227 302,-233 302,-239 302,-239 302,-268 302,-268 302,-274 296,-280 290,-280 290,-280 20,-280 20,-280 14,-280 8,-274 8,-268 8,-268 8,-239 8,-239 8,-233 14,-227 20,-227"/>
</g>
<g id="clust4" class="cluster">
<title>cluster_2n3</title>
<polygon fill="none" stroke="black" points="48,-154 48,-207 262,-207 262,-154 48,-154"/>
</g>
<g id="clust5" class="cluster">
<title>cluster_3</title>
<path fill="none" stroke="black" d="M94,-81C94,-81 216,-81 216,-81 222,-81 228,-87 228,-93 228,-93 228,-122 228,-122 228,-128 222,-134 216,-134 216,-134 94,-134 94,-134 88,-134 82,-128 82,-122 82,-122 82,-93 82,-93 82,-87 88,-81 94,-81"/>
</g>
<g id="clust6" class="cluster">
<title>cluster_3n2</title>
<polygon fill="none" stroke="black" points="84,-8 84,-61 226,-61 226,-8 84,-8"/>
</g>
<!-- 1CREATION[] -->
<g id="node1" class="node">
<title>1CREATION[]</title>
<path fill="none" stroke="black" d="M222,-381.5C222,-381.5 292,-381.5 292,-381.5 298,-381.5 304,-387.5 304,-393.5 304,-393.5 304,-405.5 304,-405.5 304,-411.5 298,-417.5 292,-417.5 292,-417.5 222,-417.5 222,-417.5 216,-417.5 210,-411.5 210,-405.5 210,-405.5 210,-393.5 210,-393.5 210,-387.5 216,-381.5 222,-381.5"/>
<text text-anchor="middle" x="257" y="-394.82" font-family="Times,serif" font-size="14.00">CREATION</text>
</g>
<!-- 1n3[] -->
<g id="node2" class="node">
<title>1n3[]</title>
<polygon fill="none" stroke="black" points="205,-308.5 205,-344.5 259,-344.5 259,-308.5 205,-308.5"/>
<text text-anchor="middle" x="231.75" y="-321.82" font-family="Times,serif" font-size="14.00">⟨⟩</text>
</g>
<!-- 1CREATION[]&#45;&gt;1n3[] -->
<g id="edge1" class="edge">
<title>1CREATION[]&#45;&gt;1n3[]</title>
<path fill="none" stroke="black" d="M250.95,-381.31C248.18,-373.46 244.84,-363.97 241.74,-355.16"/>
<polygon fill="black" stroke="black" points="245.12,-354.23 238.5,-345.96 238.52,-356.55 245.12,-354.23"/>
</g>
<!-- 2CREATION[0] -->
<g id="node6" class="node">
<title>2CREATION[0]</title>
<path fill="none" stroke="black" d="M212,-235.5C212,-235.5 282,-235.5 282,-235.5 288,-235.5 294,-241.5 294,-247.5 294,-247.5 294,-259.5 294,-259.5 294,-265.5 288,-271.5 282,-271.5 282,-271.5 212,-271.5 212,-271.5 206,-271.5 200,-265.5 200,-259.5 200,-259.5 200,-247.5 200,-247.5 200,-241.5 206,-235.5 212,-235.5"/>
<text text-anchor="middle" x="247" y="-248.82" font-family="Times,serif" font-size="14.00">CREATION</text>
</g>
<!-- 1n3[]&#45;&gt;2CREATION[0] -->
<g id="edge3" class="edge">
<title>1n3[]&#45;&gt;2CREATION[0]</title>
<path fill="none" stroke="red" d="M235.63,-308.31C237.25,-300.64 239.21,-291.39 241.03,-282.74"/>
<polygon fill="red" stroke="red" points="244.45,-283.52 243.09,-273.01 237.6,-282.07 244.45,-283.52"/>
</g>
<!-- 1CREATION[0] -->
<g id="node3" class="node">
<title>1CREATION[0]</title>
<path fill="none" stroke="black" d="M110,-381.5C110,-381.5 180,-381.5 180,-381.5 186,-381.5 192,-387.5 192,-393.5 192,-393.5 192,-405.5 192,-405.5 192,-411.5 186,-417.5 180,-417.5 180,-417.5 110,-417.5 110,-417.5 104,-417.5 98,-411.5 98,-405.5 98,-405.5 98,-393.5 98,-393.5 98,-387.5 104,-381.5 110,-381.5"/>
<text text-anchor="middle" x="145" y="-394.82" font-family="Times,serif" font-size="14.00">CREATION</text>
</g>
<!-- 1n3[0] -->
<g id="node4" class="node">
<title>1n3[0]</title>
<polygon fill="none" stroke="black" points="133,-308.5 133,-344.5 187,-344.5 187,-308.5 133,-308.5"/>
<text text-anchor="middle" x="159.75" y="-321.82" font-family="Times,serif" font-size="14.00">⟨0⟩</text>
</g>
<!-- 1CREATION[0]&#45;&gt;1n3[0] -->
<g id="edge2" class="edge">
<title>1CREATION[0]&#45;&gt;1n3[0]</title>
<path fill="none" stroke="black" d="M148.63,-381.31C150.25,-373.64 152.21,-364.39 154.03,-355.74"/>
<polygon fill="black" stroke="black" points="157.45,-356.52 156.09,-346.01 150.6,-355.07 157.45,-356.52"/>
</g>
<!-- 2CREATION[0, 1] -->
<g id="node7" class="node">
<title>2CREATION[0, 1]</title>
<path fill="none" stroke="black" d="M100,-235.5C100,-235.5 170,-235.5 170,-235.5 176,-235.5 182,-241.5 182,-247.5 182,-247.5 182,-259.5 182,-259.5 182,-265.5 176,-271.5 170,-271.5 170,-271.5 100,-271.5 100,-271.5 94,-271.5 88,-265.5 88,-259.5 88,-259.5 88,-247.5 88,-247.5 88,-241.5 94,-235.5 100,-235.5"/>
<text text-anchor="middle" x="135" y="-248.82" font-family="Times,serif" font-size="14.00">CREATION</text>
</g>
<!-- 1n3[0]&#45;&gt;2CREATION[0, 1] -->
<g id="edge4" class="edge">
<title>1n3[0]&#45;&gt;2CREATION[0, 1]</title>
<path fill="none" stroke="red" d="M153.95,-308.31C151.18,-300.46 147.84,-290.97 144.74,-282.16"/>
<polygon fill="red" stroke="red" points="148.12,-281.23 141.5,-272.96 141.52,-283.55 148.12,-281.23"/>
</g>
<!-- 1 -->
<g id="node5" class="node">
<title>1</title>
<path fill="lightgrey" stroke="lightgrey" d="M38,-381.5C38,-381.5 68,-381.5 68,-381.5 74,-381.5 80,-387.5 80,-393.5 80,-393.5 80,-405.5 80,-405.5 80,-411.5 74,-417.5 68,-417.5 68,-417.5 38,-417.5 38,-417.5 32,-417.5 26,-411.5 26,-405.5 26,-405.5 26,-393.5 26,-393.5 26,-387.5 32,-381.5 38,-381.5"/>
<text text-anchor="middle" x="53" y="-394.82" font-family="Times,serif" font-size="14.00">1</text>
</g>
<!-- 2n3[0] -->
<g id="node9" class="node">
<title>2n3[0]</title>
<polygon fill="none" stroke="black" points="200,-162.5 200,-198.5 254,-198.5 254,-162.5 200,-162.5"/>
<text text-anchor="middle" x="226.75" y="-175.82" font-family="Times,serif" font-size="14.00">⟨0⟩</text>
</g>
<!-- 2CREATION[0]&#45;&gt;2n3[0] -->
<g id="edge5" class="edge">
<title>2CREATION[0]&#45;&gt;2n3[0]</title>
<path fill="none" stroke="black" d="M242.16,-235.31C239.97,-227.55 237.33,-218.18 234.87,-209.45"/>
<polygon fill="black" stroke="black" points="238.29,-208.66 232.21,-199.99 231.55,-210.56 238.29,-208.66"/>
</g>
<!-- 2n3[0, 1] -->
<g id="node10" class="node">
<title>2n3[0, 1]</title>
<polygon fill="none" stroke="black" points="128,-162.5 128,-198.5 182,-198.5 182,-162.5 128,-162.5"/>
<text text-anchor="middle" x="154.75" y="-175.82" font-family="Times,serif" font-size="14.00">⟨0, 1⟩</text>
</g>
<!-- 2CREATION[0, 1]&#45;&gt;2n3[0, 1] -->
<g id="edge6" class="edge">
<title>2CREATION[0, 1]&#45;&gt;2n3[0, 1]</title>
<path fill="none" stroke="black" d="M139.84,-235.31C142.03,-227.55 144.67,-218.18 147.13,-209.45"/>
<polygon fill="black" stroke="black" points="150.45,-210.56 149.79,-199.99 143.71,-208.66 150.45,-210.56"/>
</g>
<!-- 1n3 -->
<g id="node8" class="node">
<title>1n3</title>
<polygon fill="lightblue" stroke="lightblue" points="61,-308.5 61,-344.5 115,-344.5 115,-308.5 61,-308.5"/>
<text text-anchor="middle" x="88" y="-321.82" font-family="Times,serif" font-size="14.00">n3</text>
</g>
<!-- 3SPLIT[0, 1] -->
<g id="node12" class="node">
<title>3SPLIT[0, 1]</title>
<path fill="none" stroke="black" d="M173.62,-89.5C173.62,-89.5 208.38,-89.5 208.38,-89.5 214.38,-89.5 220.38,-95.5 220.38,-101.5 220.38,-101.5 220.38,-113.5 220.38,-113.5 220.38,-119.5 214.38,-125.5 208.38,-125.5 208.38,-125.5 173.62,-125.5 173.62,-125.5 167.62,-125.5 161.62,-119.5 161.62,-113.5 161.62,-113.5 161.62,-101.5 161.62,-101.5 161.62,-95.5 167.62,-89.5 173.62,-89.5"/>
<text text-anchor="middle" x="191" y="-102.83" font-family="Times,serif" font-size="14.00">SPLIT</text>
</g>
<!-- 2n3[0]&#45;&gt;3SPLIT[0, 1] -->
<g id="edge7" class="edge">
<title>2n3[0]&#45;&gt;3SPLIT[0, 1]</title>
<path fill="none" stroke="red" d="M218.29,-162.31C214.22,-154.29 209.28,-144.55 204.73,-135.57"/>
<polygon fill="red" stroke="red" points="207.96,-134.21 200.32,-126.88 201.72,-137.38 207.96,-134.21"/>
</g>
<!-- 2n3[0, 1]&#45;&gt;3SPLIT[0, 1] -->
<g id="edge8" class="edge">
<title>2n3[0, 1]&#45;&gt;3SPLIT[0, 1]</title>
<path fill="none" stroke="black" d="M163.71,-162.31C167.78,-154.29 172.72,-144.55 177.27,-135.57"/>
<polygon fill="black" stroke="black" points="180.28,-137.38 181.68,-126.88 174.04,-134.21 180.28,-137.38"/>
</g>
<!-- 2 -->
<g id="node11" class="node">
<title>2</title>
<path fill="lightgrey" stroke="lightgrey" d="M28,-235.5C28,-235.5 58,-235.5 58,-235.5 64,-235.5 70,-241.5 70,-247.5 70,-247.5 70,-259.5 70,-259.5 70,-265.5 64,-271.5 58,-271.5 58,-271.5 28,-271.5 28,-271.5 22,-271.5 16,-265.5 16,-259.5 16,-259.5 16,-247.5 16,-247.5 16,-241.5 22,-235.5 28,-235.5"/>
<text text-anchor="middle" x="43" y="-248.82" font-family="Times,serif" font-size="14.00">2</text>
</g>
<!-- 3n2[0, 1] -->
<g id="node14" class="node">
<title>3n2[0, 1]</title>
<polygon fill="none" stroke="black" points="164,-16.5 164,-52.5 218,-52.5 218,-16.5 164,-16.5"/>
<text text-anchor="middle" x="190.75" y="-29.82" font-family="Times,serif" font-size="14.00">⟨0, 1⟩</text>
</g>
<!-- 3SPLIT[0, 1]&#45;&gt;3n2[0, 1] -->
<g id="edge9" class="edge">
<title>3SPLIT[0, 1]&#45;&gt;3n2[0, 1]</title>
<path fill="none" stroke="black" d="M191,-89.31C191,-81.73 191,-72.6 191,-64.04"/>
<polygon fill="black" stroke="black" points="194.5,-64.04 191,-54.04 187.5,-64.04 194.5,-64.04"/>
</g>
<!-- 2n3 -->
<g id="node13" class="node">
<title>2n3</title>
<polygon fill="lightblue" stroke="lightblue" points="56,-162.5 56,-198.5 110,-198.5 110,-162.5 56,-162.5"/>
<text text-anchor="middle" x="83" y="-175.82" font-family="Times,serif" font-size="14.00">n3</text>
</g>
<!-- 3 -->
<g id="node15" class="node">
<title>3</title>
<path fill="lightgrey" stroke="lightgrey" d="M102,-89.5C102,-89.5 132,-89.5 132,-89.5 138,-89.5 144,-95.5 144,-101.5 144,-101.5 144,-113.5 144,-113.5 144,-119.5 138,-125.5 132,-125.5 132,-125.5 102,-125.5 102,-125.5 96,-125.5 90,-119.5 90,-113.5 90,-113.5 90,-101.5 90,-101.5 90,-95.5 96,-89.5 102,-89.5"/>
<text text-anchor="middle" x="117" y="-102.83" font-family="Times,serif" font-size="14.00">3</text>
</g>
<!-- 3n2 -->
<g id="node16" class="node">
<title>3n2</title>
<polygon fill="lightblue" stroke="lightblue" points="92,-16.5 92,-52.5 146,-52.5 146,-16.5 92,-16.5"/>
<text text-anchor="middle" x="119" y="-29.82" font-family="Times,serif" font-size="14.00">n2</text>
</g>
</g>
</svg>
