<?xml version="1.0" encoding="UTF-8" standalone="no"?>
<!-- Created with Jerboa -->

<svg
   width="527.53857"
   height="443.01477"
   version="1.1"
   id="svg8754"
   sodipodi:docname="triangulated-cube-article-view.svg"
   inkscape:version="1.2.2 (b0a8486541, 2022-12-01)"
   xmlns:inkscape="http://www.inkscape.org/namespaces/inkscape"
   xmlns:sodipodi="http://sodipodi.sourceforge.net/DTD/sodipodi-0.dtd"
   xmlns="http://www.w3.org/2000/svg"
   xmlns:svg="http://www.w3.org/2000/svg">
  <defs
     id="defs8758" />
  <sodipodi:namedview
     id="namedview8756"
     pagecolor="#ffffff"
     bordercolor="#000000"
     borderopacity="0.25"
     inkscape:showpageshadow="2"
     inkscape:pageopacity="0.0"
     inkscape:pagecheckerboard="0"
     inkscape:deskcolor="#d1d1d1"
     showgrid="false"
     inkscape:zoom="1.0265756"
     inkscape:cx="39.938609"
     inkscape:cy="215.7659"
     inkscape:window-width="1908"
     inkscape:window-height="1048"
     inkscape:window-x="1085"
     inkscape:window-y="25"
     inkscape:window-maximized="1"
     inkscape:current-layer="svg8754" />
  <style
     id="style">
		.arc0 {
			fill:none;
			fill-rule:evenodd;
			stroke:black;
			stroke-width:4;
			stroke-linecap:round;
			stroke-linejoin:round;
			stroke-opacity:1;
		}
		.arc1 {
			fill:none;
			fill-rule:evenodd;
			stroke:red;
			stroke-width:4;
			stroke-linecap:round;
			stroke-linejoin:round;
			stroke-opacity:1;
		}
		.arc2 {
			fill:none;
			fill-rule:evenodd;
			stroke:blue;
			stroke-width:4;
			stroke-linecap:round;
			stroke-linejoin:round;
			stroke-opacity:1;
		}
		.arc3 {
			fill:none;
			fill-rule:evenodd;
			stroke:green;
			stroke-width:4;
			stroke-linecap:round;
			stroke-linejoin:round;
			stroke-opacity:1;
		}
		.topological-dart {
			fill:#000000;
			stroke:#000000;
			stroke-width:0;
			stroke-linecap:round;
			stroke-linejoin:round;
			stroke-dasharray:none;
			paint-order:markers fill stroke;
		}
	</style>
  <polygon
     points="669.6837,130.55688 855.4155,141.10919 896.8656,192.88644 896.8656,414.3412 855.4155,461.4086 669.6837,450.85632 628.23364,399.07898 628.23364,177.62427 "
     id="face_25_26_31_30_29_28_23_24"
     style="fill:#c0c0c0;stroke:none"
     opacity="1"
     transform="translate(-388.90955,-91.434387)" />
  <line
     class="arc1"
     id="link24_@1_23"
     x1="239.3241"
     y1="307.64459"
     x2="280.77417"
     y2="359.42194" />
  <line
     class="arc2"
     id="link24_@2_19"
     x1="239.3241"
     y1="307.64459"
     x2="196.59412"
     y2="308.43921" />
  <line
     class="arc0"
     id="link24_@0_25"
     x1="239.3241"
     y1="307.64459"
     x2="239.3241"
     y2="86.18988" />
  <circle
     id="dart24"
     cx="239.3241"
     cy="307.64459"
     r="10"
     stroke="#000000"
     fill="#000000" />
  <polygon
     points="558.5857,132.62286 437.96997,148.87192 405.87076,207.80396 405.87076,416.90314 437.96997,469.17136 558.5857,452.9223 585.50366,399.8736 585.50366,178.41885 "
     id="face_20_21_16_15_14_13_18_19"
     style="fill:#c0c0c0;stroke:none"
     opacity="1"
     transform="translate(-388.90955,-91.434387)" />
  <line
     class="arc1"
     id="link19_@1_18"
     x1="196.59412"
     y1="308.43921"
     x2="169.67615"
     y2="361.48792" />
  <line
     class="arc0"
     id="link19_@0_20"
     x1="196.59412"
     y1="308.43921"
     x2="196.59412"
     y2="86.984467" />
  <circle
     id="dart19"
     cx="196.59412"
     cy="308.43921"
     r="10"
     stroke="#000000"
     fill="#000000" />
  <line
     class="arc1"
     id="link25_@1_26"
     x1="239.3241"
     y1="86.18988"
     x2="280.77417"
     y2="39.122498" />
  <line
     class="arc2"
     id="link25_@2_20"
     x1="239.3241"
     y1="86.18988"
     x2="196.59412"
     y2="86.984467" />
  <circle
     id="dart25"
     cx="239.3241"
     cy="86.18988"
     r="10"
     stroke="#000000"
     fill="#000000" />
  <line
     class="arc2"
     id="link23_@2_0"
     x1="280.77417"
     y1="359.42194"
     x2="263.95044"
     y2="392.57739" />
  <line
     class="arc0"
     id="link23_@0_28"
     x1="280.77417"
     y1="359.42194"
     x2="466.50598"
     y2="369.97421" />
  <circle
     id="dart23"
     cx="280.77417"
     cy="359.42194"
     r="10"
     stroke="#000000"
     fill="#000000" />
  <line
     class="arc1"
     id="link20_@1_21"
     x1="196.59412"
     y1="86.984467"
     x2="169.67615"
     y2="41.188477" />
  <circle
     id="dart20"
     cx="196.59412"
     cy="86.984467"
     r="10"
     stroke="#000000"
     fill="#000000" />
  <polygon
     points="853.1239,500.54532 732.50824,516.7944 658.95905,523.94916 483.5896,513.98566 463.87625,501.5322 584.49194,485.28314 652.86,484.01178 838.59186,494.56403 "
     id="face_7_6_5_4_3_2_1_0"
     style="fill:#c0c0c0;stroke:none"
     opacity="1"
     transform="translate(-388.90955,-91.434387)" />
  <line
     class="arc1"
     id="link0_@1_1"
     x1="263.95044"
     y1="392.57739"
     x2="195.5824"
     y2="393.84875" />
  <line
     class="arc0"
     id="link0_@0_7"
     x1="263.95044"
     y1="392.57739"
     x2="449.68231"
     y2="403.12964" />
  <circle
     id="dart0"
     cx="263.95044"
     cy="392.57739"
     r="10"
     stroke="#000000"
     fill="#000000" />
  <line
     class="arc2"
     id="link18_@2_1"
     x1="169.67615"
     y1="361.48792"
     x2="195.5824"
     y2="393.84875" />
  <line
     class="arc0"
     id="link18_@0_13"
     x1="169.67615"
     y1="361.48792"
     x2="49.060425"
     y2="377.73697" />
  <circle
     id="dart18"
     cx="169.67615"
     cy="361.48792"
     r="10"
     stroke="#000000"
     fill="#000000" />
  <line
     class="arc2"
     id="link26_@2_27"
     x1="280.77417"
     y1="39.122498"
     x2="263.95044"
     y2="10.5" />
  <line
     class="arc0"
     id="link26_@0_31"
     x1="280.77417"
     y1="39.122498"
     x2="466.50598"
     y2="49.674805" />
  <circle
     id="dart26"
     cx="280.77417"
     cy="39.122498"
     r="10"
     stroke="#000000"
     fill="#000000" />
  <line
     class="arc0"
     id="link1_@0_2"
     x1="195.5824"
     y1="393.84875"
     x2="74.966705"
     y2="410.09781" />
  <circle
     id="dart1"
     cx="195.5824"
     cy="393.84875"
     r="10"
     stroke="#000000"
     fill="#000000" />
  <line
     class="arc2"
     id="link21_@2_22"
     x1="169.67615"
     y1="41.188477"
     x2="195.5824"
     y2="11.771362" />
  <line
     class="arc0"
     id="link21_@0_16"
     x1="169.67615"
     y1="41.188477"
     x2="49.060425"
     y2="57.437531" />
  <circle
     id="dart21"
     cx="169.67615"
     cy="41.188477"
     r="10"
     stroke="#000000"
     fill="#000000" />
  <polygon
     points="853.1239,118.46796 732.50824,134.71698 658.95905,129.5162 483.5896,119.5527 463.87625,119.4548 584.49194,103.20575 652.86,101.93439 838.59186,112.48666 "
     id="face_32_37_42_47_12_17_22_27"
     style="fill:#c0c0c0;stroke:none"
     opacity="1"
     transform="translate(-388.90955,-91.434387)" />
  <line
     class="arc1"
     id="link27_@1_22"
     x1="263.95044"
     y1="10.5"
     x2="195.5824"
     y2="11.771362" />
  <line
     class="arc0"
     id="link27_@0_32"
     x1="263.95044"
     y1="10.5"
     x2="449.68231"
     y2="21.052269" />
  <circle
     id="dart27"
     cx="263.95044"
     cy="10.5"
     r="10"
     stroke="#000000"
     fill="#000000" />
  <line
     class="arc0"
     id="link22_@0_17"
     x1="195.5824"
     y1="11.771362"
     x2="74.966705"
     y2="28.020416" />
  <circle
     id="dart22"
     cx="195.5824"
     cy="11.771362"
     r="10"
     stroke="#000000"
     fill="#000000" />
  <line
     class="arc1"
     id="link28_@1_29"
     x1="466.50598"
     y1="369.97421"
     x2="507.95605"
     y2="322.9068" />
  <line
     class="arc2"
     id="link28_@2_7"
     x1="466.50598"
     y1="369.97421"
     x2="449.68231"
     y2="403.12964" />
  <circle
     id="dart28"
     cx="466.50598"
     cy="369.97421"
     r="10"
     stroke="#000000"
     fill="#000000" />
  <line
     class="arc1"
     id="link7_@1_6"
     x1="449.68231"
     y1="403.12964"
     x2="464.21436"
     y2="409.11093" />
  <circle
     id="dart7"
     cx="449.68231"
     cy="403.12964"
     r="10"
     stroke="#000000"
     fill="#000000" />
  <line
     class="arc1"
     id="link31_@1_30"
     x1="466.50598"
     y1="49.674805"
     x2="507.95605"
     y2="101.45206" />
  <line
     class="arc2"
     id="link31_@2_32"
     x1="466.50598"
     y1="49.674805"
     x2="449.68231"
     y2="21.052269" />
  <circle
     id="dart31"
     cx="466.50598"
     cy="49.674805"
     r="10"
     stroke="#000000"
     fill="#000000" />
  <line
     class="arc2"
     id="link29_@2_34"
     x1="507.95605"
     y1="322.9068"
     x2="517.03857"
     y2="326.64511" />
  <line
     class="arc0"
     id="link29_@0_30"
     x1="507.95605"
     y1="322.9068"
     x2="507.95605"
     y2="101.45206" />
  <circle
     id="dart29"
     cx="507.95605"
     cy="322.9068"
     r="10"
     stroke="#000000"
     fill="#000000" />
  <line
     class="arc2"
     id="link30_@2_35"
     x1="507.95605"
     y1="101.45206"
     x2="517.03857"
     y2="105.19034" />
  <circle
     id="dart30"
     cx="507.95605"
     cy="101.45206"
     r="10"
     stroke="#000000"
     fill="#000000" />
  <line
     class="arc1"
     id="link32_@1_37"
     x1="449.68231"
     y1="21.052269"
     x2="464.21436"
     y2="27.033569" />
  <circle
     id="dart32"
     cx="449.68231"
     cy="21.052269"
     r="10"
     stroke="#000000"
     fill="#000000" />
  <polygon
     points="879.03015,150.82877 758.4145,167.07782 736.6778,226.59857 736.6778,435.69775 758.4145,487.37723 879.03015,471.12817 905.9481,418.0795 905.9481,196.62473 "
     id="face_35_36_41_40_39_38_33_34"
     style="fill:#c0c0c0;stroke:none"
     opacity="1"
     transform="translate(-388.90955,-91.434387)" />
  <line
     class="arc1"
     id="link34_@1_33"
     x1="517.03857"
     y1="326.64511"
     x2="490.12061"
     y2="379.69379" />
  <line
     class="arc0"
     id="link34_@0_35"
     x1="517.03857"
     y1="326.64511"
     x2="517.03857"
     y2="105.19034" />
  <circle
     id="dart34"
     cx="517.03857"
     cy="326.64511"
     r="10"
     stroke="#000000"
     fill="#000000" />
  <line
     class="arc1"
     id="link13_@1_14"
     x1="49.060425"
     y1="377.73697"
     x2="16.961212"
     y2="325.46875" />
  <line
     class="arc2"
     id="link13_@2_2"
     x1="49.060425"
     y1="377.73697"
     x2="74.966705"
     y2="410.09781" />
  <circle
     id="dart13"
     cx="49.060425"
     cy="377.73697"
     r="10"
     stroke="#000000"
     fill="#000000" />
  <line
     class="arc2"
     id="link6_@2_33"
     x1="464.21436"
     y1="409.11093"
     x2="490.12061"
     y2="379.69379" />
  <line
     class="arc0"
     id="link6_@0_5"
     x1="464.21436"
     y1="409.11093"
     x2="343.59869"
     y2="425.35999" />
  <circle
     id="dart6"
     cx="464.21436"
     cy="409.11093"
     r="10"
     stroke="#000000"
     fill="#000000" />
  <line
     class="arc1"
     id="link35_@1_36"
     x1="517.03857"
     y1="105.19034"
     x2="490.12061"
     y2="59.394379" />
  <circle
     id="dart35"
     cx="517.03857"
     cy="105.19034"
     r="10"
     stroke="#000000"
     fill="#000000" />
  <line
     class="arc1"
     id="link2_@1_3"
     x1="74.966705"
     y1="410.09781"
     x2="94.680054"
     y2="422.55127" />
  <circle
     id="dart2"
     cx="74.966705"
     cy="410.09781"
     r="10"
     stroke="#000000"
     fill="#000000" />
  <line
     class="arc0"
     id="link33_@0_38"
     x1="490.12061"
     y1="379.69379"
     x2="369.50494"
     y2="395.94284" />
  <circle
     id="dart33"
     cx="490.12061"
     cy="379.69379"
     r="10"
     stroke="#000000"
     fill="#000000" />
  <line
     class="arc1"
     id="link16_@1_15"
     x1="49.060425"
     y1="57.437531"
     x2="16.961212"
     y2="116.36957" />
  <line
     class="arc2"
     id="link16_@2_17"
     x1="49.060425"
     y1="57.437531"
     x2="74.966705"
     y2="28.020416" />
  <circle
     id="dart16"
     cx="49.060425"
     cy="57.437531"
     r="10"
     stroke="#000000"
     fill="#000000" />
  <line
     class="arc2"
     id="link37_@2_36"
     x1="464.21436"
     y1="27.033569"
     x2="490.12061"
     y2="59.394379" />
  <line
     class="arc0"
     id="link37_@0_42"
     x1="464.21436"
     y1="27.033569"
     x2="343.59869"
     y2="43.282593" />
  <circle
     id="dart37"
     cx="464.21436"
     cy="27.033569"
     r="10"
     stroke="#000000"
     fill="#000000" />
  <line
     class="arc2"
     id="link14_@2_9"
     x1="16.961212"
     y1="325.46875"
     x2="10.5"
     y2="322.14615" />
  <line
     class="arc0"
     id="link14_@0_15"
     x1="16.961212"
     y1="325.46875"
     x2="16.961212"
     y2="116.36957" />
  <circle
     id="dart14"
     cx="16.961212"
     cy="325.46875"
     r="10"
     stroke="#000000"
     fill="#000000" />
  <line
     class="arc1"
     id="link17_@1_12"
     x1="74.966705"
     y1="28.020416"
     x2="94.680054"
     y2="28.118309" />
  <circle
     id="dart17"
     cx="74.966705"
     cy="28.020416"
     r="10"
     stroke="#000000"
     fill="#000000" />
  <line
     class="arc0"
     id="link36_@0_41"
     x1="490.12061"
     y1="59.394379"
     x2="369.50494"
     y2="75.643433" />
  <circle
     id="dart36"
     cx="490.12061"
     cy="59.394379"
     r="10"
     stroke="#000000"
     fill="#000000" />
  <line
     class="arc2"
     id="link15_@2_10"
     x1="16.961212"
     y1="116.36957"
     x2="10.5"
     y2="125.40259" />
  <circle
     id="dart15"
     cx="16.961212"
     cy="116.36957"
     r="10"
     stroke="#000000"
     fill="#000000" />
  <polygon
     points="423.76764,194.79858 501.08984,291.38562 501.08984,353.1635 423.76764,440.9645 399.40955,413.58054 399.40955,216.83698 "
     id="face_10_52_53_51_50_9"
     style="fill:#c0c0c0;stroke:none"
     opacity="1"
     transform="translate(-388.90955,-91.434387)" />
  <path
     style="fill:none;fill-opacity:0.997918;stroke:#00c000;stroke-width:13.3333;stroke-linecap:round;stroke-linejoin:round;stroke-dasharray:none;stroke-opacity:0.80000001;stop-color:#000000"
     d="m 10.5,125.40259 24.358093,-22.03839 77.322197,96.58703 1e-5,61.7779 L 34.858093,349.53012 10.5,322.14615 Z"
     id="path8888" />
  <line
     class="arc1"
     id="link9_@1_50"
     x1="10.5"
     y1="322.14615"
     x2="34.858093"
     y2="349.53012" />
  <line
     class="arc0"
     id="link9_@0_10"
     x1="10.5"
     y1="322.14615"
     x2="10.5"
     y2="125.40259" />
  <circle
     id="dart9"
     cx="10.5"
     cy="322.14615"
     r="10"
     stroke="#000000"
     fill="#000000" />
  <line
     class="arc2"
     id="link3_@2_8"
     x1="94.680054"
     y1="422.55127"
     x2="83.037598"
     y2="412.75647" />
  <line
     class="arc0"
     id="link3_@0_4"
     x1="94.680054"
     y1="422.55127"
     x2="270.0495"
     y2="432.51477" />
  <circle
     id="dart3"
     cx="94.680054"
     cy="422.55127"
     r="10"
     stroke="#000000"
     fill="#000000" />
  <line
     class="arc1"
     id="link10_@1_52"
     x1="10.5"
     y1="125.40259"
     x2="34.858093"
     y2="103.3642" />
  <circle
     id="dart10"
     cx="10.5"
     cy="125.40259"
     r="10"
     stroke="#000000"
     fill="#000000" />
  <line
     class="arc2"
     id="link50_@2_48"
     x1="34.858093"
     y1="349.53012"
     x2="55.583099"
     y2="375.41879" />
  <line
     class="arc0"
     id="link50_@0_51"
     x1="34.858093"
     y1="349.53012"
     x2="112.1803"
     y2="261.72913" />
  <circle
     id="dart50"
     cx="34.858093"
     cy="349.53012"
     r="10"
     stroke="#000000"
     fill="#000000" />
  <polygon
     points="650.9495,478.58292 573.6274,381.9959 521.8149,379.0522 444.49265,466.85318 471.94714,504.19086 636.95404,513.5657 "
     id="face_43_62_63_49_48_8"
     style="fill:#c0c0c0;stroke:none"
     opacity="1"
     transform="translate(-388.90955,-91.434387)" />
  <line
     class="arc1"
     id="link8_@1_48"
     x1="83.037598"
     y1="412.75647"
     x2="55.583099"
     y2="375.41879" />
  <path
     style="fill:none;fill-opacity:0.997918;stroke:#00c000;stroke-width:13.3333;stroke-linecap:round;stroke-linejoin:round;stroke-dasharray:none;stroke-opacity:0.80000001;stop-color:#000000"
     d="m 132.90536,287.61781 51.81248,2.94371 77.32212,96.58701 -13.99546,34.98278 -165.006902,-9.37484 -27.454491,-37.33768 z"
     id="path8916" />
  <line
     class="arc0"
     id="link8_@0_43"
     x1="83.037598"
     y1="412.75647"
     x2="248.04449"
     y2="422.13129" />
  <line
     class="arc0"
     id="link48_@0_49"
     x1="55.583099"
     y1="375.41879"
     x2="132.90533"
     y2="287.6178" />
  <circle
     id="dart48"
     cx="55.583099"
     cy="375.41879"
     r="10"
     stroke="#000000"
     fill="#000000" />
  <line
     class="arc2"
     id="link12_@2_11"
     x1="94.680054"
     y1="28.118309"
     x2="83.037598"
     y2="43.034668" />
  <line
     class="arc0"
     id="link12_@0_47"
     x1="94.680054"
     y1="28.118309"
     x2="270.0495"
     y2="38.081818" />
  <circle
     id="dart12"
     cx="94.680054"
     cy="28.118309"
     r="10"
     stroke="#000000"
     fill="#000000" />
  <line
     class="arc2"
     id="link52_@2_54"
     x1="34.858093"
     y1="103.3642"
     x2="55.583099"
     y2="79.830566" />
  <line
     class="arc0"
     id="link52_@0_53"
     x1="34.858093"
     y1="103.3642"
     x2="112.1803"
     y2="199.95123" />
  <circle
     id="dart52"
     cx="34.858093"
     cy="103.3642"
     r="10"
     stroke="#000000"
     fill="#000000" />
  <polygon
     points="573.6274,270.7956 650.9495,182.99469 636.95404,143.84384 471.94714,134.46906 444.49265,171.26495 521.8149,267.8519 "
     id="face_55_57_56_46_11_54"
     style="fill:#c0c0c0;stroke:none"
     opacity="1"
     transform="translate(-388.90955,-91.434387)" />
  <path
     style="fill:none;fill-opacity:0.997918;stroke:#00c000;stroke-width:13.3333;stroke-linecap:round;stroke-linejoin:round;stroke-dasharray:none;stroke-opacity:0.80000001;stop-color:#000000"
     d="m 55.583099,79.830566 27.454499,-36.795898 165.006892,9.374786 13.99546,39.150849 -77.3221,87.800907 -51.8125,-2.9437 z"
     id="path8890" />
  <line
     class="arc1"
     id="link54_@1_11"
     x1="55.583099"
     y1="79.830566"
     x2="83.037598"
     y2="43.034668" />
  <line
     class="arc0"
     id="link54_@0_55"
     x1="55.583099"
     y1="79.830566"
     x2="132.90533"
     y2="176.41751" />
  <circle
     id="dart54"
     cx="55.583099"
     cy="79.830566"
     r="10"
     stroke="#000000"
     fill="#000000" />
  <line
     class="arc0"
     id="link11_@0_46"
     x1="83.037598"
     y1="43.034668"
     x2="248.04449"
     y2="52.409454" />
  <circle
     id="dart11"
     cx="83.037598"
     cy="43.034668"
     r="10"
     stroke="#000000"
     fill="#000000" />
  <polygon
     points="709.4916,431.1977 709.4916,234.4541 671.67456,208.88333 594.3524,296.68427 594.3524,358.4622 671.67456,455.0492 "
     id="face_60_44_45_58_59_61"
     style="fill:#c0c0c0;stroke:none"
     opacity="1"
     transform="translate(-388.90955,-91.434387)" />
  <path
     style="fill:none;fill-opacity:0.997918;stroke:#00c000;stroke-width:13.3333;stroke-linecap:round;stroke-linejoin:round;stroke-dasharray:none;stroke-opacity:0.80000001;stop-color:#000000"
     d="m 282.76501,117.44894 -77.32216,87.80094 2e-5,61.77792 77.32214,96.58701 37.81704,-23.8515 v -196.7436 z"
     id="path8892" />
  <path
     style="fill:none;fill-opacity:0.997918;stroke:#00c0ff;stroke-width:13.33333333;stroke-linecap:round;stroke-linejoin:round;stroke-opacity:0.80000001;stop-color:#000000;stroke-dasharray:none"
     d="m 112.1803,199.95123 20.72503,-23.53372 51.8125,2.9437 20.72502,25.88867 v 61.77793 l -20.72502,23.53371 -51.81248,-2.94371 -20.72505,-25.88868 z"
     id="path8830" />
  <line
     class="arc1"
     id="link51_@1_53"
     x1="112.1803"
     y1="261.72913"
     x2="112.1803"
     y2="199.95123" />
  <line
     class="arc2"
     id="link51_@2_49"
     x1="112.1803"
     y1="261.72913"
     x2="132.90533"
     y2="287.6178" />
  <circle
     id="dart51"
     cx="112.1803"
     cy="261.72913"
     r="10"
     stroke="#000000"
     fill="#000000" />
  <line
     class="arc2"
     id="link53_@2_55"
     x1="112.1803"
     y1="199.95123"
     x2="132.90533"
     y2="176.41751" />
  <circle
     id="dart53"
     cx="112.1803"
     cy="199.95123"
     r="10"
     stroke="#000000"
     fill="#000000" />
  <line
     class="arc1"
     id="link49_@1_63"
     x1="132.90533"
     y1="287.6178"
     x2="184.71783"
     y2="290.56152" />
  <circle
     id="dart49"
     cx="132.90533"
     cy="287.6178"
     r="10"
     stroke="#000000"
     fill="#000000" />
  <line
     class="arc1"
     id="link55_@1_57"
     x1="132.90533"
     y1="176.41751"
     x2="184.71783"
     y2="179.36121" />
  <circle
     id="dart55"
     cx="132.90533"
     cy="176.41751"
     r="10"
     stroke="#000000"
     fill="#000000" />
  <line
     class="arc1"
     id="link5_@1_4"
     x1="343.59869"
     y1="425.35999"
     x2="270.0495"
     y2="432.51477" />
  <line
     class="arc2"
     id="link5_@2_38"
     x1="343.59869"
     y1="425.35999"
     x2="369.50494"
     y2="395.94284" />
  <circle
     id="dart5"
     cx="343.59869"
     cy="425.35999"
     r="10"
     stroke="#000000"
     fill="#000000" />
  <line
     class="arc2"
     id="link4_@2_43"
     x1="270.0495"
     y1="432.51477"
     x2="248.04449"
     y2="422.13129" />
  <circle
     id="dart4"
     cx="270.0495"
     cy="432.51477"
     r="10"
     stroke="#000000"
     fill="#000000" />
  <line
     class="arc1"
     id="link38_@1_39"
     x1="369.50494"
     y1="395.94284"
     x2="347.76825"
     y2="344.26337" />
  <circle
     id="dart38"
     cx="369.50494"
     cy="395.94284"
     r="10"
     stroke="#000000"
     fill="#000000" />
  <line
     class="arc2"
     id="link63_@2_61"
     x1="184.71783"
     y1="290.56152"
     x2="205.44287"
     y2="267.0278" />
  <line
     class="arc0"
     id="link63_@0_62"
     x1="184.71783"
     y1="290.56152"
     x2="262.03998"
     y2="387.14853" />
  <circle
     id="dart63"
     cx="184.71783"
     cy="290.56152"
     r="10"
     stroke="#000000"
     fill="#000000" />
  <line
     class="arc2"
     id="link57_@2_59"
     x1="184.71783"
     y1="179.36121"
     x2="205.44287"
     y2="205.24988" />
  <line
     class="arc0"
     id="link57_@0_56"
     x1="184.71783"
     y1="179.36121"
     x2="262.03998"
     y2="91.560303" />
  <circle
     id="dart57"
     cx="184.71783"
     cy="179.36121"
     r="10"
     stroke="#000000"
     fill="#000000" />
  <line
     class="arc1"
     id="link42_@1_47"
     x1="343.59869"
     y1="43.282593"
     x2="270.0495"
     y2="38.081818" />
  <line
     class="arc2"
     id="link42_@2_41"
     x1="343.59869"
     y1="43.282593"
     x2="369.50494"
     y2="75.643433" />
  <circle
     id="dart42"
     cx="343.59869"
     cy="43.282593"
     r="10"
     stroke="#000000"
     fill="#000000" />
  <line
     class="arc1"
     id="link43_@1_62"
     x1="248.04449"
     y1="422.13129"
     x2="262.03998"
     y2="387.14853" />
  <circle
     id="dart43"
     cx="248.04449"
     cy="422.13129"
     r="10"
     stroke="#000000"
     fill="#000000" />
  <line
     class="arc1"
     id="link61_@1_59"
     x1="205.44287"
     y1="267.0278"
     x2="205.44287"
     y2="205.24988" />
  <line
     class="arc0"
     id="link61_@0_60"
     x1="205.44287"
     y1="267.0278"
     x2="282.76501"
     y2="363.61481" />
  <circle
     id="dart61"
     cx="205.44287"
     cy="267.0278"
     r="10"
     stroke="#000000"
     fill="#000000" />
  <line
     class="arc0"
     id="link59_@0_58"
     x1="205.44287"
     y1="205.24988"
     x2="282.76501"
     y2="117.44894" />
  <circle
     id="dart59"
     cx="205.44287"
     cy="205.24988"
     r="10"
     stroke="#000000"
     fill="#000000" />
  <line
     class="arc2"
     id="link47_@2_46"
     x1="270.0495"
     y1="38.081818"
     x2="248.04449"
     y2="52.409454" />
  <circle
     id="dart47"
     cx="270.0495"
     cy="38.081818"
     r="10"
     stroke="#000000"
     fill="#000000" />
  <line
     class="arc1"
     id="link41_@1_40"
     x1="369.50494"
     y1="75.643433"
     x2="347.76825"
     y2="135.16418" />
  <circle
     id="dart41"
     cx="369.50494"
     cy="75.643433"
     r="10"
     stroke="#000000"
     fill="#000000" />
  <line
     class="arc2"
     id="link62_@2_60"
     x1="262.03998"
     y1="387.14853"
     x2="282.76501"
     y2="363.61481" />
  <circle
     id="dart62"
     cx="262.03998"
     cy="387.14853"
     r="10"
     stroke="#000000"
     fill="#000000" />
  <line
     class="arc1"
     id="link46_@1_56"
     x1="248.04449"
     y1="52.409454"
     x2="262.03998"
     y2="91.560303" />
  <circle
     id="dart46"
     cx="248.04449"
     cy="52.409454"
     r="10"
     stroke="#000000"
     fill="#000000" />
  <line
     class="arc2"
     id="link39_@2_44"
     x1="347.76825"
     y1="344.26337"
     x2="320.58203"
     y2="339.76331" />
  <line
     class="arc0"
     id="link39_@0_40"
     x1="347.76825"
     y1="344.26337"
     x2="347.76825"
     y2="135.16418" />
  <circle
     id="dart39"
     cx="347.76825"
     cy="344.26337"
     r="10"
     stroke="#000000"
     fill="#000000" />
  <line
     class="arc1"
     id="link60_@1_44"
     x1="282.76501"
     y1="363.61481"
     x2="320.58203"
     y2="339.76331" />
  <circle
     id="dart60"
     cx="282.76501"
     cy="363.61481"
     r="10"
     stroke="#000000"
     fill="#000000" />
  <line
     class="arc2"
     id="link40_@2_45"
     x1="347.76825"
     y1="135.16418"
     x2="320.58203"
     y2="143.01971" />
  <circle
     id="dart40"
     cx="347.76825"
     cy="135.16418"
     r="10"
     stroke="#000000"
     fill="#000000" />
  <line
     class="arc2"
     id="link56_@2_58"
     x1="262.03998"
     y1="91.560303"
     x2="282.76501"
     y2="117.44894" />
  <circle
     id="dart56"
     cx="262.03998"
     cy="91.560303"
     r="10"
     stroke="#000000"
     fill="#000000" />
  <line
     class="arc0"
     id="link44_@0_45"
     x1="320.58203"
     y1="339.76331"
     x2="320.58203"
     y2="143.01971" />
  <circle
     id="dart44"
     cx="320.58203"
     cy="339.76331"
     r="10"
     stroke="#000000"
     fill="#000000" />
  <line
     class="arc1"
     id="link58_@1_45"
     x1="282.76501"
     y1="117.44894"
     x2="320.58203"
     y2="143.01971" />
  <circle
     id="dart58"
     cx="282.76501"
     cy="117.44894"
     r="10"
     stroke="#000000"
     fill="#000000" />
  <circle
     id="dart45"
     cx="320.58203"
     cy="143.01971"
     r="10"
     stroke="#000000"
     fill="#000000" />
  <circle
     id="dart48-9"
     cx="82.82476"
     cy="413.31253"
     r="10"
     stroke="#000000"
     fill="#000000"
     style="fill:#000000;fill-opacity:1" />
</svg>
