<?xml version="1.0" encoding="UTF-8" standalone="no"?>
<!-- Created with Jerboa -->

<svg
	width="1406"
	height="651" >
	<style id="style">
		.arc0 {
			fill:none;
			fill-rule:evenodd;
			stroke:black;
			stroke-width:4;
			stroke-linecap:round;
			stroke-linejoin:round;
			stroke-opacity:1;
		}
		.arc1 {
			fill:none;
			fill-rule:evenodd;
			stroke:red;
			stroke-width:4;
			stroke-linecap:round;
			stroke-linejoin:round;
			stroke-opacity:1;
		}
		.arc2 {
			fill:none;
			fill-rule:evenodd;
			stroke:blue;
			stroke-width:4;
			stroke-linecap:round;
			stroke-linejoin:round;
			stroke-opacity:1;
		}
		.arc3 {
			fill:none;
			fill-rule:evenodd;
			stroke:green;
			stroke-width:4;
			stroke-linecap:round;
			stroke-linejoin:round;
			stroke-opacity:1;
		}
		.topological-dart {
			fill:#000000;
			stroke:#000000;
			stroke-width:0;
			stroke-linecap:round;
			stroke-linejoin:round;
			stroke-dasharray:none;
			paint-order:markers fill stroke;
		}
	</style>
<polygon
	points="667.4337,503.71777 870.32666,515.2014 870.32666,515.2014 738.56647,532.8847 738.56647,532.8847 535.67346,521.40106 535.67346,521.40106 667.4337,503.71777 "
	id="face_7_6_5_4_3_2_1_0"
	style="fill:rgb(192,192,192);stroke:none"
	opacity="1.0" />
<line
	class="arc0"
	id="link0_@0_7"
	x1="667.4337"
	y1="503.71777"
	x2="870.32666"
	y2="515.2014" />
<line
	class="arc0"
	id="link1_@0_2"
	x1="667.4337"
	y1="503.71777"
	x2="535.67346"
	y2="521.40106" />
<polygon
	points="667.4337,503.71777 870.32666,515.2014 870.32666,515.2014 870.32666,274.19986 870.32666,274.19986 667.4337,262.7162 667.4337,262.7162 667.4337,503.71777 "
	id="face_13_14_15_16_21_20_19_18"
	style="fill:rgb(192,192,192);stroke:none"
	opacity="1.0" />
<line
	class="arc0"
	id="link18_@0_13"
	x1="667.4337"
	y1="503.71777"
	x2="870.32666"
	y2="515.2014" />
<line
	class="arc0"
	id="link19_@0_20"
	x1="667.4337"
	y1="503.71777"
	x2="667.4337"
	y2="262.7162" />
<polygon
	points="667.4337,503.71777 535.67346,521.40106 535.67346,521.40106 535.67346,280.39948 535.67346,280.39948 667.4337,262.7162 667.4337,262.7162 667.4337,503.71777 "
	id="face_28_29_30_31_26_25_24_23"
	style="fill:rgb(192,192,192);stroke:none"
	opacity="1.0" />
<line
	class="arc0"
	id="link23_@0_28"
	x1="667.4337"
	y1="503.71777"
	x2="535.67346"
	y2="521.40106" />
<line
	class="arc0"
	id="link24_@0_25"
	x1="667.4337"
	y1="503.71777"
	x2="667.4337"
	y2="262.7162" />
<line
	class="arc0"
	id="link21_@0_16"
	x1="667.4337"
	y1="262.7162"
	x2="870.32666"
	y2="274.19986" />
<polygon
	points="667.4337,262.7162 870.32666,274.19986 870.32666,274.19986 738.56647,291.88315 738.56647,291.88315 535.67346,280.39948 535.67346,280.39948 667.4337,262.7162 "
	id="face_17_12_47_42_37_32_27_22"
	style="fill:rgb(192,192,192);stroke:none"
	opacity="1.0" />
<line
	class="arc0"
	id="link22_@0_17"
	x1="667.4337"
	y1="262.7162"
	x2="870.32666"
	y2="274.19986" />
<line
	class="arc0"
	id="link26_@0_31"
	x1="667.4337"
	y1="262.7162"
	x2="535.67346"
	y2="280.39948" />
<line
	class="arc0"
	id="link27_@0_32"
	x1="667.4337"
	y1="262.7162"
	x2="535.67346"
	y2="280.39948" />
<polygon
	points="667.4337,262.7162 870.32666,274.19986 870.32666,274.19986 738.56647,291.88315 738.56647,291.88315 535.67346,280.39948 535.67346,280.39948 667.4337,262.7162 "
	id="face_66_60_54_48_90_84_78_72"
	style="fill:rgb(192,192,192);stroke:none"
	opacity="1.0" />
<line
	class="arc0"
	id="link72_@0_66"
	x1="667.4337"
	y1="262.7162"
	x2="870.32666"
	y2="274.19986" />
<polygon
	points="667.4337,262.7162 870.32666,274.19986 870.32666,274.19986 703.00006,36.298096 703.00006,36.298096 667.4337,262.7162 "
	id="face_67_68_69_75_74_73"
	style="fill:rgb(192,192,192);stroke:none"
	opacity="1.0" />
<line
	class="arc0"
	id="link73_@0_67"
	x1="667.4337"
	y1="262.7162"
	x2="870.32666"
	y2="274.19986" />
<line
	class="arc0"
	id="link74_@0_75"
	x1="667.4337"
	y1="262.7162"
	x2="703.00006"
	y2="36.298096" />
<line
	class="arc0"
	id="link78_@0_84"
	x1="667.4337"
	y1="262.7162"
	x2="535.67346"
	y2="280.39948" />
<polygon
	points="667.4337,262.7162 535.67346,280.39948 535.67346,280.39948 703.00006,36.298096 703.00006,36.298096 667.4337,262.7162 "
	id="face_85_86_87_81_80_79"
	style="fill:rgb(192,192,192);stroke:none"
	opacity="1.0" />
<line
	class="arc0"
	id="link79_@0_85"
	x1="667.4337"
	y1="262.7162"
	x2="535.67346"
	y2="280.39948" />
<line
	class="arc0"
	id="link80_@0_81"
	x1="667.4337"
	y1="262.7162"
	x2="703.00006"
	y2="36.298096" />
<line
	class="arc0"
	id="link6_@0_5"
	x1="870.32666"
	y1="515.2014"
	x2="738.56647"
	y2="532.8847" />
<polygon
	points="870.32666,515.2014 738.56647,532.8847 738.56647,532.8847 738.56647,291.88315 738.56647,291.88315 870.32666,274.19986 870.32666,274.19986 870.32666,515.2014 "
	id="face_43_44_45_46_11_10_9_8"
	style="fill:rgb(192,192,192);stroke:none"
	opacity="1.0" />
<line
	class="arc0"
	id="link8_@0_43"
	x1="870.32666"
	y1="515.2014"
	x2="738.56647"
	y2="532.8847" />
<line
	class="arc0"
	id="link9_@0_10"
	x1="870.32666"
	y1="515.2014"
	x2="870.32666"
	y2="274.19986" />
<line
	class="arc0"
	id="link14_@0_15"
	x1="870.32666"
	y1="515.2014"
	x2="870.32666"
	y2="274.19986" />
<line
	class="arc0"
	id="link11_@0_46"
	x1="870.32666"
	y1="274.19986"
	x2="738.56647"
	y2="291.88315" />
<line
	class="arc0"
	id="link12_@0_47"
	x1="870.32666"
	y1="274.19986"
	x2="738.56647"
	y2="291.88315" />
<line
	class="arc0"
	id="link60_@0_54"
	x1="870.32666"
	y1="274.19986"
	x2="738.56647"
	y2="291.88315" />
<polygon
	points="870.32666,274.19986 738.56647,291.88315 738.56647,291.88315 703.00006,36.298096 703.00006,36.298096 870.32666,274.19986 "
	id="face_55_56_57_63_62_61"
	style="fill:rgb(192,192,192);stroke:none"
	opacity="1.0" />
<line
	class="arc0"
	id="link61_@0_55"
	x1="870.32666"
	y1="274.19986"
	x2="738.56647"
	y2="291.88315" />
<line
	class="arc0"
	id="link62_@0_63"
	x1="870.32666"
	y1="274.19986"
	x2="703.00006"
	y2="36.298096" />
<line
	class="arc0"
	id="link68_@0_69"
	x1="870.32666"
	y1="274.19986"
	x2="703.00006"
	y2="36.298096" />
<line
	class="arc0"
	id="link3_@0_4"
	x1="535.67346"
	y1="521.40106"
	x2="738.56647"
	y2="532.8847" />
<line
	class="arc0"
	id="link29_@0_30"
	x1="535.67346"
	y1="521.40106"
	x2="535.67346"
	y2="280.39948" />
<polygon
	points="535.67346,521.40106 738.56647,532.8847 738.56647,532.8847 637.12,406.6421 637.12,406.6421 535.67346,521.40106 "
	id="face_38_52_53_95_94_33"
	style="fill:rgb(192,192,192);stroke:none"
	opacity="1.0" />
<line
	class="arc0"
	id="link33_@0_38"
	x1="535.67346"
	y1="521.40106"
	x2="738.56647"
	y2="532.8847" />
<polygon
	points="535.67346,521.40106 535.67346,280.39948 535.67346,280.39948 637.12,406.6421 637.12,406.6421 535.67346,521.40106 "
	id="face_35_82_83_89_88_34"
	style="fill:rgb(192,192,192);stroke:none"
	opacity="1.0" />
<line
	class="arc0"
	id="link34_@0_35"
	x1="535.67346"
	y1="521.40106"
	x2="535.67346"
	y2="280.39948" />
<line
	class="arc0"
	id="link88_@0_89"
	x1="535.67346"
	y1="521.40106"
	x2="637.12"
	y2="406.6421" />
<line
	class="arc0"
	id="link94_@0_95"
	x1="535.67346"
	y1="521.40106"
	x2="637.12"
	y2="406.6421" />
<polygon
	points="703.00006,36.298096 738.56647,291.88315 738.56647,291.88315 535.67346,280.39948 535.67346,280.39948 703.00006,36.298096 "
	id="face_50_49_91_92_93_51"
	style="fill:rgb(192,192,192);stroke:none"
	opacity="1.0" />
<line
	class="arc0"
	id="link51_@0_50"
	x1="703.00006"
	y1="36.298096"
	x2="738.56647"
	y2="291.88315" />
<line
	class="arc0"
	id="link57_@0_56"
	x1="703.00006"
	y1="36.298096"
	x2="738.56647"
	y2="291.88315" />
<line
	class="arc0"
	id="link87_@0_86"
	x1="703.00006"
	y1="36.298096"
	x2="535.67346"
	y2="280.39948" />
<line
	class="arc0"
	id="link93_@0_92"
	x1="703.00006"
	y1="36.298096"
	x2="535.67346"
	y2="280.39948" />
<polygon
	points="535.67346,280.39948 738.56647,291.88315 738.56647,291.88315 637.12,406.6421 637.12,406.6421 535.67346,280.39948 "
	id="face_41_70_71_77_76_36"
	style="fill:rgb(192,192,192);stroke:none"
	opacity="1.0" />
<line
	class="arc0"
	id="link36_@0_41"
	x1="535.67346"
	y1="280.39948"
	x2="738.56647"
	y2="291.88315" />
<line
	class="arc0"
	id="link37_@0_42"
	x1="535.67346"
	y1="280.39948"
	x2="738.56647"
	y2="291.88315" />
<line
	class="arc0"
	id="link76_@0_77"
	x1="535.67346"
	y1="280.39948"
	x2="637.12"
	y2="406.6421" />
<line
	class="arc0"
	id="link82_@0_83"
	x1="535.67346"
	y1="280.39948"
	x2="637.12"
	y2="406.6421" />
<line
	class="arc0"
	id="link90_@0_48"
	x1="535.67346"
	y1="280.39948"
	x2="738.56647"
	y2="291.88315" />
<line
	class="arc0"
	id="link91_@0_49"
	x1="535.67346"
	y1="280.39948"
	x2="738.56647"
	y2="291.88315" />
<line
	class="arc0"
	id="link53_@0_52"
	x1="637.12"
	y1="406.6421"
	x2="738.56647"
	y2="532.8847" />
<polygon
	points="637.12,406.6421 738.56647,532.8847 738.56647,532.8847 738.56647,291.88315 738.56647,291.88315 637.12,406.6421 "
	id="face_58_39_40_64_65_59"
	style="fill:rgb(192,192,192);stroke:none"
	opacity="1.0" />
<line
	class="arc0"
	id="link59_@0_58"
	x1="637.12"
	y1="406.6421"
	x2="738.56647"
	y2="532.8847" />
<line
	class="arc0"
	id="link65_@0_64"
	x1="637.12"
	y1="406.6421"
	x2="738.56647"
	y2="291.88315" />
<line
	class="arc0"
	id="link71_@0_70"
	x1="637.12"
	y1="406.6421"
	x2="738.56647"
	y2="291.88315" />
<line
	class="arc0"
	id="link39_@0_40"
	x1="738.56647"
	y1="532.8847"
	x2="738.56647"
	y2="291.88315" />
<line
	class="arc0"
	id="link44_@0_45"
	x1="738.56647"
	y1="532.8847"
	x2="738.56647"
	y2="291.88315" />
</svg>
