<?xml version="1.0" encoding="UTF-8" standalone="no"?>
<!-- Created with Jerboa -->

<svg
   width="565.99963"
   height="479.26068"
   version="1.1"
   id="svg3907"
   sodipodi:docname="cube.svg"
   inkscape:version="1.2.2 (b0a8486541, 2022-12-01)"
   inkscape:export-filename="cube-article-view.png"
   inkscape:export-xdpi="600"
   inkscape:export-ydpi="600"
   xmlns:inkscape="http://www.inkscape.org/namespaces/inkscape"
   xmlns:sodipodi="http://sodipodi.sourceforge.net/DTD/sodipodi-0.dtd"
   xmlns="http://www.w3.org/2000/svg"
   xmlns:svg="http://www.w3.org/2000/svg">
  <defs
     id="defs3911" />
  <sodipodi:namedview
     id="namedview3909"
     pagecolor="#ffffff"
     bordercolor="#666666"
     borderopacity="1.0"
     inkscape:showpageshadow="2"
     inkscape:pageopacity="0.0"
     inkscape:pagecheckerboard="0"
     inkscape:deskcolor="#d1d1d1"
     showgrid="false"
     inkscape:zoom="0.59381937"
     inkscape:cx="74.938613"
     inkscape:cy="289.65037"
     inkscape:window-width="1049"
     inkscape:window-height="1051"
     inkscape:window-x="1085"
     inkscape:window-y="22"
     inkscape:window-maximized="1"
     inkscape:current-layer="svg3907" />
  <style
     id="style">
		.arc0 {
			fill:none;
			fill-rule:evenodd;
			stroke:black;
			stroke-width:4;
			stroke-linecap:round;
			stroke-linejoin:round;
			stroke-opacity:1;
		}
		.arc1 {
			fill:none;
			fill-rule:evenodd;
			stroke:red;
			stroke-width:4;
			stroke-linecap:round;
			stroke-linejoin:round;
			stroke-opacity:1;
		}
		.arc2 {
			fill:none;
			fill-rule:evenodd;
			stroke:blue;
			stroke-width:4;
			stroke-linecap:round;
			stroke-linejoin:round;
			stroke-opacity:1;
		}
		.arc3 {
			fill:none;
			fill-rule:evenodd;
			stroke:green;
			stroke-width:4;
			stroke-linecap:round;
			stroke-linejoin:round;
			stroke-opacity:1;
		}
		.topological-dart {
			fill:#000000;
			stroke:#000000;
			stroke-width:0;
			stroke-linecap:round;
			stroke-linejoin:round;
			stroke-dasharray:none;
			paint-order:markers fill stroke;
		}
	</style>
  <polygon
     points="670.8161,112.38992 875.35156,124.01053 920.9979,181.02975 920.9979,424.9047 875.35156,476.73724 670.8161,465.11667 625.16956,408.09735 625.16956,164.22247 "
     id="face_25_26_31_30_29_28_23_24"
     style="fill:#c0c0c0;stroke:none"
     opacity="1"
     transform="translate(-375.50037,-70.36969)" />
  <line
     class="arc1"
     id="link24_@1_23"
     x1="249.66919"
     y1="337.72766"
     x2="295.31573"
     y2="394.74698" />
  <line
     class="arc2"
     id="link24_@2_19"
     x1="249.66919"
     y1="337.72766"
     x2="202.61322"
     y2="338.60272" />
  <line
     class="arc0"
     id="link24_@0_25"
     x1="249.66919"
     y1="337.72766"
     x2="249.66919"
     y2="93.852783" />
  <circle
     id="dart24"
     cx="249.66919"
     cy="337.72766"
     r="10"
     stroke="#000000"
     fill="#000000" />
  <polygon
     points="548.4704,114.66504 415.64352,132.55917 386.00037,190.97855 386.00037,434.85345 415.64352,485.2859 548.4704,467.39178 578.1136,408.9724 578.1136,165.09747 "
     id="face_20_21_16_15_14_13_18_19"
     style="fill:#c0c0c0;stroke:none"
     opacity="1"
     transform="translate(-375.50037,-70.36969)" />
  <line
     class="arc1"
     id="link19_@1_18"
     x1="202.61322"
     y1="338.60272"
     x2="172.97003"
     y2="397.02209" />
  <line
     class="arc0"
     id="link19_@0_20"
     x1="202.61322"
     y1="338.60272"
     x2="202.61322"
     y2="94.727783" />
  <circle
     id="dart19"
     cx="202.61322"
     cy="338.60272"
     r="10"
     stroke="#000000"
     fill="#000000" />
  <line
     class="arc1"
     id="link25_@1_26"
     x1="249.66919"
     y1="93.852783"
     x2="295.31573"
     y2="42.020233" />
  <line
     class="arc2"
     id="link25_@2_20"
     x1="249.66919"
     y1="93.852783"
     x2="202.61322"
     y2="94.727783" />
  <circle
     id="dart25"
     cx="249.66919"
     cy="93.852783"
     r="10"
     stroke="#000000"
     fill="#000000" />
  <line
     class="arc2"
     id="link23_@2_0"
     x1="295.31573"
     y1="394.74698"
     x2="276.7887"
     y2="431.25906" />
  <line
     class="arc0"
     id="link23_@0_28"
     x1="295.31573"
     y1="394.74698"
     x2="499.8512"
     y2="406.36755" />
  <circle
     id="dart23"
     cx="295.31573"
     cy="394.74698"
     r="10"
     stroke="#000000"
     fill="#000000" />
  <line
     class="arc1"
     id="link20_@1_21"
     x1="202.61322"
     y1="94.727783"
     x2="172.97003"
     y2="44.295349" />
  <circle
     id="dart20"
     cx="202.61322"
     cy="94.727783"
     r="10"
     stroke="#000000"
     fill="#000000" />
  <polygon
     points="872.82776,519.8362 740.001,537.7303 664.71136,539.1304 460.17587,527.50977 444.17258,520.923 576.9994,503.02884 652.28906,501.62875 856.8245,513.2493 "
     id="face_7_6_5_4_3_2_1_0"
     style="fill:#c0c0c0;stroke:none"
     opacity="1"
     transform="translate(-375.50037,-70.36969)" />
  <line
     class="arc1"
     id="link0_@1_1"
     x1="276.7887"
     y1="431.25906"
     x2="201.49902"
     y2="432.65915" />
  <line
     class="arc0"
     id="link0_@0_7"
     x1="276.7887"
     y1="431.25906"
     x2="481.32416"
     y2="442.87964" />
  <circle
     id="dart0"
     cx="276.7887"
     cy="431.25906"
     r="10"
     stroke="#000000"
     fill="#000000" />
  <line
     class="arc2"
     id="link18_@2_1"
     x1="172.97003"
     y1="397.02209"
     x2="201.49902"
     y2="432.65915" />
  <line
     class="arc0"
     id="link18_@0_13"
     x1="172.97003"
     y1="397.02209"
     x2="40.143158"
     y2="414.9162" />
  <circle
     id="dart18"
     cx="172.97003"
     cy="397.02209"
     r="10"
     stroke="#000000"
     fill="#000000" />
  <line
     class="arc2"
     id="link26_@2_27"
     x1="295.31573"
     y1="42.020233"
     x2="276.7887"
     y2="10.5" />
  <line
     class="arc0"
     id="link26_@0_31"
     x1="295.31573"
     y1="42.020233"
     x2="499.8512"
     y2="53.640839" />
  <circle
     id="dart26"
     cx="295.31573"
     cy="42.020233"
     r="10"
     stroke="#000000"
     fill="#000000" />
  <line
     class="arc0"
     id="link1_@0_2"
     x1="201.49902"
     y1="432.65915"
     x2="68.672211"
     y2="450.55328" />
  <circle
     id="dart1"
     cx="201.49902"
     cy="432.65915"
     r="10"
     stroke="#000000"
     fill="#000000" />
  <line
     class="arc2"
     id="link21_@2_22"
     x1="172.97003"
     y1="44.295349"
     x2="201.49902"
     y2="11.900085" />
  <line
     class="arc0"
     id="link21_@0_16"
     x1="172.97003"
     y1="44.295349"
     x2="40.143158"
     y2="62.189484" />
  <circle
     id="dart21"
     cx="172.97003"
     cy="44.295349"
     r="10"
     stroke="#000000"
     fill="#000000" />
  <polygon
     points="872.82776,99.07709 740.001,116.97122 664.71136,118.37128 460.17587,106.75073 444.17258,100.16388 576.9994,82.269775 652.28906,80.86969 856.8245,92.490295 "
     id="face_32_37_42_47_12_17_22_27"
     style="fill:#c0c0c0;stroke:none"
     opacity="1"
     transform="translate(-375.50037,-70.36969)" />
  <line
     class="arc1"
     id="link27_@1_22"
     x1="276.7887"
     y1="10.5"
     x2="201.49902"
     y2="11.900085" />
  <line
     class="arc0"
     id="link27_@0_32"
     x1="276.7887"
     y1="10.5"
     x2="481.32416"
     y2="22.120605" />
  <circle
     id="dart27"
     cx="276.7887"
     cy="10.5"
     r="10"
     stroke="#000000"
     fill="#000000" />
  <line
     class="arc0"
     id="link22_@0_17"
     x1="201.49902"
     y1="11.900085"
     x2="68.672211"
     y2="29.794189" />
  <circle
     id="dart22"
     cx="201.49902"
     cy="11.900085"
     r="10"
     stroke="#000000"
     fill="#000000" />
  <line
     class="arc1"
     id="link28_@1_29"
     x1="499.8512"
     y1="406.36755"
     x2="545.49756"
     y2="354.535" />
  <line
     class="arc2"
     id="link28_@2_7"
     x1="499.8512"
     y1="406.36755"
     x2="481.32416"
     y2="442.87964" />
  <circle
     id="dart28"
     cx="499.8512"
     cy="406.36755"
     r="10"
     stroke="#000000"
     fill="#000000" />
  <line
     class="arc1"
     id="link7_@1_6"
     x1="481.32416"
     y1="442.87964"
     x2="497.32739"
     y2="449.46649" />
  <circle
     id="dart7"
     cx="481.32416"
     cy="442.87964"
     r="10"
     stroke="#000000"
     fill="#000000" />
  <line
     class="arc1"
     id="link31_@1_30"
     x1="499.8512"
     y1="53.640839"
     x2="545.49756"
     y2="110.66006" />
  <line
     class="arc2"
     id="link31_@2_32"
     x1="499.8512"
     y1="53.640839"
     x2="481.32416"
     y2="22.120605" />
  <circle
     id="dart31"
     cx="499.8512"
     cy="53.640839"
     r="10"
     stroke="#000000"
     fill="#000000" />
  <line
     class="arc2"
     id="link29_@2_34"
     x1="545.49756"
     y1="354.535"
     x2="555.49963"
     y2="358.65179" />
  <line
     class="arc0"
     id="link29_@0_30"
     x1="545.49756"
     y1="354.535"
     x2="545.49756"
     y2="110.66006" />
  <circle
     id="dart29"
     cx="545.49756"
     cy="354.535"
     r="10"
     stroke="#000000"
     fill="#000000" />
  <line
     class="arc2"
     id="link30_@2_35"
     x1="545.49756"
     y1="110.66006"
     x2="555.49963"
     y2="114.77686" />
  <circle
     id="dart30"
     cx="545.49756"
     cy="110.66006"
     r="10"
     stroke="#000000"
     fill="#000000" />
  <line
     class="arc1"
     id="link32_@1_37"
     x1="481.32416"
     y1="22.120605"
     x2="497.32739"
     y2="28.707397" />
  <circle
     id="dart32"
     cx="481.32416"
     cy="22.120605"
     r="10"
     stroke="#000000"
     fill="#000000" />
  <polygon
     points="901.3568,134.71411 768.52997,152.60825 738.8868,211.02759 738.8868,454.90247 768.52997,505.33496 901.3568,487.44083 931,429.02148 931,185.14655 "
     id="face_35_36_41_40_39_38_33_34"
     style="fill:#c0c0c0;stroke:none"
     opacity="1"
     transform="translate(-375.50037,-70.36969)" />
  <line
     class="arc1"
     id="link34_@1_33"
     x1="555.49963"
     y1="358.65179"
     x2="525.85645"
     y2="417.07114" />
  <line
     class="arc0"
     id="link34_@0_35"
     x1="555.49963"
     y1="358.65179"
     x2="555.49963"
     y2="114.77686" />
  <circle
     id="dart34"
     cx="555.49963"
     cy="358.65179"
     r="10"
     stroke="#000000"
     fill="#000000" />
  <line
     class="arc1"
     id="link13_@1_14"
     x1="40.143158"
     y1="414.9162"
     x2="10.5"
     y2="364.48376" />
  <line
     class="arc2"
     id="link13_@2_2"
     x1="40.143158"
     y1="414.9162"
     x2="68.672211"
     y2="450.55328" />
  <circle
     id="dart13"
     cx="40.143158"
     cy="414.9162"
     r="10"
     stroke="#000000"
     fill="#000000" />
  <line
     class="arc2"
     id="link6_@2_33"
     x1="497.32739"
     y1="449.46649"
     x2="525.85645"
     y2="417.07114" />
  <line
     class="arc0"
     id="link6_@0_5"
     x1="497.32739"
     y1="449.46649"
     x2="364.50061"
     y2="467.3606" />
  <circle
     id="dart6"
     cx="497.32739"
     cy="449.46649"
     r="10"
     stroke="#000000"
     fill="#000000" />
  <line
     class="arc1"
     id="link35_@1_36"
     x1="555.49963"
     y1="114.77686"
     x2="525.85645"
     y2="64.344421" />
  <circle
     id="dart35"
     cx="555.49963"
     cy="114.77686"
     r="10"
     stroke="#000000"
     fill="#000000" />
  <line
     class="arc1"
     id="link2_@1_3"
     x1="68.672211"
     y1="450.55328"
     x2="84.675507"
     y2="457.14008" />
  <circle
     id="dart2"
     cx="68.672211"
     cy="450.55328"
     r="10"
     stroke="#000000"
     fill="#000000" />
  <line
     class="arc0"
     id="link33_@0_38"
     x1="525.85645"
     y1="417.07114"
     x2="393.0296"
     y2="434.96527" />
  <circle
     id="dart33"
     cx="525.85645"
     cy="417.07114"
     r="10"
     stroke="#000000"
     fill="#000000" />
  <line
     class="arc1"
     id="link16_@1_15"
     x1="40.143158"
     y1="62.189484"
     x2="10.5"
     y2="120.60886" />
  <line
     class="arc2"
     id="link16_@2_17"
     x1="40.143158"
     y1="62.189484"
     x2="68.672211"
     y2="29.794189" />
  <circle
     id="dart16"
     cx="40.143158"
     cy="62.189484"
     r="10"
     stroke="#000000"
     fill="#000000" />
  <line
     class="arc2"
     id="link37_@2_36"
     x1="497.32739"
     y1="28.707397"
     x2="525.85645"
     y2="64.344421" />
  <line
     class="arc0"
     id="link37_@0_42"
     x1="497.32739"
     y1="28.707397"
     x2="364.50061"
     y2="46.601532" />
  <circle
     id="dart37"
     cx="497.32739"
     cy="28.707397"
     r="10"
     stroke="#000000"
     fill="#000000" />
  <line
     class="arc2"
     id="link14_@2_9"
     x1="10.5"
     y1="364.48376"
     x2="20.502075"
     y2="368.60052" />
  <line
     class="arc0"
     id="link14_@0_15"
     x1="10.5"
     y1="364.48376"
     x2="10.5"
     y2="120.60886" />
  <circle
     id="dart14"
     cx="10.5"
     cy="364.48376"
     r="10"
     stroke="#000000"
     fill="#000000" />
  <line
     class="arc1"
     id="link17_@1_12"
     x1="68.672211"
     y1="29.794189"
     x2="84.675507"
     y2="36.381042" />
  <circle
     id="dart17"
     cx="68.672211"
     cy="29.794189"
     r="10"
     stroke="#000000"
     fill="#000000" />
  <line
     class="arc0"
     id="link36_@0_41"
     x1="525.85645"
     y1="64.344421"
     x2="393.0296"
     y2="82.238556" />
  <circle
     id="dart36"
     cx="525.85645"
     cy="64.344421"
     r="10"
     stroke="#000000"
     fill="#000000" />
  <line
     class="arc2"
     id="link15_@2_10"
     x1="10.5"
     y1="120.60886"
     x2="20.502075"
     y2="124.72562" />
  <circle
     id="dart15"
     cx="10.5"
     cy="120.60886"
     r="10"
     stroke="#000000"
     fill="#000000" />
  <line
     class="arc2"
     id="link3_@2_8"
     x1="84.675507"
     y1="457.14008"
     x2="66.14856"
     y2="425.61981" />
  <line
     class="arc0"
     id="link3_@0_4"
     x1="84.675507"
     y1="457.14008"
     x2="289.211"
     y2="468.76068" />
  <polygon
     points="441.64893,143.26276 646.1844,154.88336 691.8308,211.90262 691.8308,455.77753 646.1844,507.61008 441.64893,495.9895 396.00244,438.9702 396.00244,195.0953 "
     id="face_10_11_46_45_44_43_8_9"
     style="fill:#c0c0c0;stroke:none"
     opacity="1"
     transform="translate(-375.50037,-70.36969)" />
  <path
     style="fill:none;fill-opacity:1;stroke:#00c000;stroke-width:20;stroke-linecap:round;stroke-linejoin:round;stroke-dasharray:none;stroke-opacity:0.8;stop-color:#000000"
     d="m 66.14856,72.893062 204.53547,11.62061 45.6464,57.019258 1e-5,243.87491 -45.64641,51.83255 -204.53547,-11.62058 -45.64649,-57.0193 v -243.8749 z"
     id="path7450" />
  <line
     class="arc1"
     id="link9_@1_8"
     x1="20.502075"
     y1="368.60052"
     x2="66.14856"
     y2="425.61981" />
  <line
     class="arc0"
     id="link9_@0_10"
     x1="20.502075"
     y1="368.60052"
     x2="20.502075"
     y2="124.72562" />
  <circle
     id="dart9"
     cx="20.502075"
     cy="368.60052"
     r="10"
     stroke="#000000"
     fill="#000000" />
  <line
     class="arc1"
     id="link10_@1_11"
     x1="20.502075"
     y1="124.72562"
     x2="66.14856"
     y2="72.893066" />
  <circle
     id="dart10"
     cx="20.502075"
     cy="124.72562"
     r="10"
     stroke="#000000"
     fill="#000000" />
  <line
     class="arc0"
     id="link8_@0_43"
     x1="66.14856"
     y1="425.61981"
     x2="270.68402"
     y2="437.24039" />
  <circle
     id="dart8"
     cx="66.14856"
     cy="425.61981"
     r="10"
     stroke="#000000"
     fill="#000000" />
  <line
     class="arc2"
     id="link12_@2_11"
     x1="84.675507"
     y1="36.381042"
     x2="66.14856"
     y2="72.893066" />
  <line
     class="arc0"
     id="link12_@0_47"
     x1="84.675507"
     y1="36.381042"
     x2="289.211"
     y2="48.001587" />
  <circle
     id="dart12"
     cx="84.675507"
     cy="36.381042"
     r="10"
     stroke="#000000"
     fill="#000000" />
  <line
     class="arc0"
     id="link11_@0_46"
     x1="66.14856"
     y1="72.893066"
     x2="270.68402"
     y2="84.513672" />
  <circle
     id="dart11"
     cx="66.14856"
     cy="72.893066"
     r="10"
     stroke="#000000"
     fill="#000000" />
  <line
     class="arc1"
     id="link5_@1_4"
     x1="364.50061"
     y1="467.3606"
     x2="289.211"
     y2="468.76068" />
  <line
     class="arc2"
     id="link5_@2_38"
     x1="364.50061"
     y1="467.3606"
     x2="393.0296"
     y2="434.96527" />
  <circle
     id="dart5"
     cx="364.50061"
     cy="467.3606"
     r="10"
     stroke="#000000"
     fill="#000000" />
  <line
     class="arc2"
     id="link4_@2_43"
     x1="289.211"
     y1="468.76068"
     x2="270.68402"
     y2="437.24039" />
  <circle
     id="dart4"
     cx="289.211"
     cy="468.76068"
     r="10"
     stroke="#000000"
     fill="#000000" />
  <line
     class="arc1"
     id="link38_@1_39"
     x1="393.0296"
     y1="434.96527"
     x2="363.38641"
     y2="384.53278" />
  <circle
     id="dart38"
     cx="393.0296"
     cy="434.96527"
     r="10"
     stroke="#000000"
     fill="#000000" />
  <line
     class="arc1"
     id="link42_@1_47"
     x1="364.50061"
     y1="46.601532"
     x2="289.211"
     y2="48.001587" />
  <line
     class="arc2"
     id="link42_@2_41"
     x1="364.50061"
     y1="46.601532"
     x2="393.0296"
     y2="82.238556" />
  <circle
     id="dart42"
     cx="364.50061"
     cy="46.601532"
     r="10"
     stroke="#000000"
     fill="#000000" />
  <line
     class="arc1"
     id="link43_@1_44"
     x1="270.68402"
     y1="437.24039"
     x2="316.33044"
     y2="385.40784" />
  <circle
     id="dart43"
     cx="270.68402"
     cy="437.24039"
     r="10"
     stroke="#000000"
     fill="#000000" />
  <line
     class="arc1"
     id="link41_@1_40"
     x1="393.0296"
     y1="82.238556"
     x2="363.38641"
     y2="140.6579" />
  <circle
     id="dart41"
     cx="393.0296"
     cy="82.238556"
     r="10"
     stroke="#000000"
     fill="#000000" />
  <line
     class="arc2"
     id="link47_@2_46"
     x1="289.211"
     y1="48.001587"
     x2="270.68402"
     y2="84.513672" />
  <circle
     id="dart47"
     cx="289.211"
     cy="48.001587"
     r="10"
     stroke="#000000"
     fill="#000000" />
  <line
     class="arc2"
     id="link39_@2_44"
     x1="363.38641"
     y1="384.53278"
     x2="316.33044"
     y2="385.40784" />
  <line
     class="arc0"
     id="link39_@0_40"
     x1="363.38641"
     y1="384.53278"
     x2="363.38641"
     y2="140.6579" />
  <circle
     id="dart39"
     cx="363.38641"
     cy="384.53278"
     r="10"
     stroke="#000000"
     fill="#000000" />
  <line
     class="arc1"
     id="link46_@1_45"
     x1="270.68402"
     y1="84.513672"
     x2="316.33044"
     y2="141.53293" />
  <circle
     id="dart46"
     cx="270.68402"
     cy="84.513672"
     r="10"
     stroke="#000000"
     fill="#000000" />
  <line
     class="arc0"
     id="link44_@0_45"
     x1="316.33044"
     y1="385.40784"
     x2="316.33044"
     y2="141.53293" />
  <circle
     id="dart44"
     cx="316.33044"
     cy="385.40784"
     r="10"
     stroke="#000000"
     fill="#000000" />
  <line
     class="arc2"
     id="link40_@2_45"
     x1="363.38641"
     y1="140.6579"
     x2="316.33044"
     y2="141.53293" />
  <circle
     id="dart40"
     cx="363.38641"
     cy="140.6579"
     r="10"
     stroke="#000000"
     fill="#000000" />
  <circle
     id="dart45"
     cx="316.33044"
     cy="141.53293"
     r="10"
     stroke="#000000"
     fill="#000000" />
</svg>
