<?xml version="1.0" encoding="UTF-8" standalone="no"?>
<!-- Created with Jerboa -->

<svg
   width="524.91119"
   height="425.43546"
   version="1.1"
   id="svg3630"
   sodipodi:docname="triangulated-cube.svg"
   inkscape:version="1.2.2 (b0a8486541, 2022-12-01)"
   inkscape:export-filename="triangulated-cube.png"
   inkscape:export-xdpi="600"
   inkscape:export-ydpi="600"
   xmlns:inkscape="http://www.inkscape.org/namespaces/inkscape"
   xmlns:sodipodi="http://sodipodi.sourceforge.net/DTD/sodipodi-0.dtd"
   xmlns="http://www.w3.org/2000/svg"
   xmlns:svg="http://www.w3.org/2000/svg">
  <defs
     id="defs3634" />
  <sodipodi:namedview
     id="namedview3632"
     pagecolor="#ffffff"
     bordercolor="#000000"
     borderopacity="0.25"
     inkscape:showpageshadow="2"
     inkscape:pageopacity="0.0"
     inkscape:pagecheckerboard="0"
     inkscape:deskcolor="#d1d1d1"
     showgrid="false"
     inkscape:zoom="0.64395449"
     inkscape:cx="767.13496"
     inkscape:cy="222.06538"
     inkscape:window-width="1908"
     inkscape:window-height="1051"
     inkscape:window-x="1085"
     inkscape:window-y="22"
     inkscape:window-maximized="1"
     inkscape:current-layer="svg3630" />
  <style
     id="style">
		.arc0 {
			fill:none;
			fill-rule:evenodd;
			stroke:black;
			stroke-width:4;
			stroke-linecap:round;
			stroke-linejoin:round;
			stroke-opacity:1;
		}
		.arc1 {
			fill:none;
			fill-rule:evenodd;
			stroke:red;
			stroke-width:4;
			stroke-linecap:round;
			stroke-linejoin:round;
			stroke-opacity:1;
		}
		.arc2 {
			fill:none;
			fill-rule:evenodd;
			stroke:blue;
			stroke-width:4;
			stroke-linecap:round;
			stroke-linejoin:round;
			stroke-opacity:1;
		}
		.arc3 {
			fill:none;
			fill-rule:evenodd;
			stroke:green;
			stroke-width:4;
			stroke-linecap:round;
			stroke-linejoin:round;
			stroke-opacity:1;
		}
		.topological-dart {
			fill:#000000;
			stroke:#000000;
			stroke-width:0;
			stroke-linecap:round;
			stroke-linejoin:round;
			stroke-dasharray:none;
			paint-order:markers fill stroke;
		}
	</style>
  <polygon
     points="994.5294,139.92072 994.5294,511.69586 994.5294,511.69586 681.54156,493.9809 681.54156,122.20575 994.5294,139.92072 "
     id="face_7_6_5_4_3_2_1_0"
     style="fill:#c0c0c0;stroke:none"
     opacity="1"
     transform="translate(-471.61823,-120.20575)" />
  <line
     class="arc0"
     id="link0_@0_7"
     x1="209.92332"
     y1="373.77515"
     x2="209.92332"
     y2="2" />
  <line
     class="arc0"
     id="link1_@0_2"
     x1="209.92332"
     y1="373.77515"
     x2="522.91119"
     y2="391.49011" />
  <polygon
     points="478.2849,149.48444 478.2849,521.2596 478.2849,521.2596 681.54156,493.9809 681.54156,122.20575 478.2849,149.48444 "
     id="face_23_24_25_26_31_30_29_28"
     style="fill:#c0c0c0;stroke:none"
     opacity="1"
     transform="translate(-471.61823,-120.20575)" />
  <line
     class="arc0"
     id="link28_@0_23"
     x1="209.92332"
     y1="373.77515"
     x2="209.92332"
     y2="2" />
  <line
     class="arc0"
     id="link29_@0_30"
     x1="209.92332"
     y1="373.77515"
     x2="6.6666765"
     y2="401.05383" />
  <polygon
     points="791.27277,538.97455 478.2849,521.2596 478.2849,521.2596 681.54156,493.9809 994.5294,511.69586 791.27277,538.97455 "
     id="face_38_39_40_41_36_35_34_33"
     style="fill:#c0c0c0;stroke:none"
     opacity="1"
     transform="translate(-471.61823,-120.20575)" />
  <line
     class="arc0"
     id="link33_@0_38"
     x1="209.92332"
     y1="373.77515"
     x2="522.91119"
     y2="391.49011" />
  <line
     class="arc0"
     id="link34_@0_35"
     x1="209.92332"
     y1="373.77515"
     x2="6.6666765"
     y2="401.05383" />
  <line
     class="arc0"
     id="link6_@0_5"
     x1="209.92332"
     y1="2"
     x2="522.91119"
     y2="19.714966" />
  <polygon
     points="791.27277,538.97455 634.7788,344.2295 791.27277,167.1994 791.27277,538.97455 "
     id="face_50_12_47_52_53_51"
     style="fill:#c0c0c0;stroke:none"
     opacity="1"
     transform="translate(-471.61823,-120.20575)" />
  <polygon
     points="791.27277,167.1994 478.2849,149.48444 478.2849,149.48444 681.54156,122.20575 994.5294,139.92072 791.27277,167.1994 "
     id="face_13_14_15_16_21_20_19_18"
     style="fill:#c0c0c0;stroke:none"
     opacity="1"
     transform="translate(-471.61823,-120.20575)" />
  <line
     class="arc0"
     id="link18_@0_13"
     x1="209.92332"
     y1="2"
     x2="522.91119"
     y2="19.714966" />
  <line
     class="arc0"
     id="link19_@0_20"
     x1="209.92332"
     y1="2"
     x2="6.6666765"
     y2="29.278687" />
  <line
     class="arc0"
     id="link24_@0_25"
     x1="209.92332"
     y1="2"
     x2="6.6666765"
     y2="29.278687" />
  <line
     class="arc0"
     id="link3_@0_4"
     x1="522.91119"
     y1="391.49011"
     x2="522.91119"
     y2="19.714966" />
  <line
     class="arc0"
     id="link39_@0_40"
     x1="522.91119"
     y1="391.49011"
     x2="319.65454"
     y2="418.7688" />
  <polygon
     points="791.27277,167.1994 791.27277,538.97455 791.27277,538.97455 994.5294,511.69586 994.5294,139.92072 791.27277,167.1994 "
     id="face_8_9_10_11_46_45_44_43"
     style="fill:#c0c0c0;stroke:none"
     opacity="1"
     transform="translate(-471.61823,-120.20575)" />
  <line
     class="arc0"
     id="link43_@0_8"
     x1="522.91119"
     y1="391.49011"
     x2="522.91119"
     y2="19.714966" />
  <line
     class="arc0"
     id="link44_@0_45"
     x1="522.91119"
     y1="391.49011"
     x2="319.65454"
     y2="418.7688" />
  <line
     class="arc0"
     id="link9_@0_10"
     x1="522.91119"
     y1="19.714966"
     x2="319.65454"
     y2="46.993652" />
  <line
     class="arc0"
     id="link14_@0_15"
     x1="522.91119"
     y1="19.714966"
     x2="319.65454"
     y2="46.993652" />
  <line
     class="arc0"
     id="link31_@0_26"
     x1="6.6666765"
     y1="401.05383"
     x2="6.6666765"
     y2="29.278687" />
  <polygon
     points="634.7788,344.2295 478.2849,521.2596 791.27277,538.97455 634.7788,344.2295 "
     id="face_42_54_55_57_56_37"
     style="fill:#c0c0c0;stroke:none"
     opacity="1"
     transform="translate(-471.61823,-120.20575)" />
  <polygon
     points="634.7788,344.2295 478.2849,149.48444 791.27277,167.1994 634.7788,344.2295 "
     id="face_17_48_49_63_62_22"
     style="fill:#c0c0c0;stroke:none"
     opacity="1"
     transform="translate(-471.61823,-120.20575)" />
  <polygon
     points="634.7788,344.2295 478.2849,521.2596 478.2849,149.48444 634.7788,344.2295 "
     id="face_27_60_61_59_58_32"
     style="fill:#c0c0c0;stroke:none"
     opacity="1"
     transform="translate(-471.61823,-120.20575)" />
  <path
     style="fill:none;stroke:#00c000;stroke-width:13.3333;stroke-linecap:round;stroke-linejoin:round;stroke-dasharray:none;stroke-opacity:0.8;stop-color:#000000"
     d="M 6.6666665,29.27869 319.65453,46.993652 V 418.7688 L 6.6666665,401.05385 Z"
     id="path3690" />
  <path
     style="fill:none;stroke:#00c000;stroke-width:13.3333;stroke-linecap:round;stroke-linejoin:round;stroke-dasharray:none;stroke-opacity:0.8;stop-color:#000000"
     d="M 6.6666765,29.278687 C 6.6666665,29.27869 319.65453,418.7688 319.65453,418.7688"
     id="path4732" />
  <line
     class="arc0"
     id="link36_@0_41"
     x1="6.6666765"
     y1="401.05383"
     x2="319.65454"
     y2="418.7688" />
  <line
     class="arc0"
     id="link56_@0_57"
     x1="6.6666765"
     y1="401.05383"
     x2="163.16057"
     y2="224.02374" />
  <path
     style="fill:none;stroke:#00c000;stroke-width:13.3333;stroke-linecap:round;stroke-linejoin:round;stroke-dasharray:none;stroke-opacity:0.8;stop-color:#000000"
     d="M 6.6666665,401.05385 319.65453,46.993652"
     id="path4734" />
  <line
     class="arc0"
     id="link32_@0_27"
     x1="6.6666765"
     y1="401.05383"
     x2="6.6666765"
     y2="29.278687" />
  <ellipse
     style="fill:#cf2b31;fill-opacity:0.8;stroke:none;stroke-width:17.3873;stroke-linecap:square;stroke-linejoin:round;stroke-dasharray:none;stroke-opacity:0.8;stop-color:#000000"
     id="path4788"
     cx="163.1606"
     cy="224.02376"
     rx="18.737341"
     ry="17.786367" />
  <line
     class="arc0"
     id="link58_@0_59"
     x1="6.6666765"
     y1="401.05383"
     x2="163.16057"
     y2="224.02374" />
  <line
     class="arc0"
     id="link37_@0_42"
     x1="6.6666765"
     y1="401.05383"
     x2="319.65454"
     y2="418.7688" />
  <line
     class="arc0"
     id="link21_@0_16"
     x1="6.6666765"
     y1="29.278687"
     x2="319.65454"
     y2="46.993652" />
  <line
     class="arc0"
     id="link22_@0_17"
     x1="6.6666765"
     y1="29.278687"
     x2="319.65454"
     y2="46.993652" />
  <line
     class="arc0"
     id="link60_@0_61"
     x1="6.6666765"
     y1="29.278687"
     x2="163.16057"
     y2="224.02374" />
  <line
     class="arc0"
     id="link62_@0_63"
     x1="6.6666765"
     y1="29.278687"
     x2="163.16057"
     y2="224.02374" />
  <line
     class="arc0"
     id="link49_@0_48"
     x1="163.16057"
     y1="224.02374"
     x2="319.65454"
     y2="46.993652" />
  <line
     class="arc0"
     id="link51_@0_50"
     x1="163.16057"
     y1="224.02374"
     x2="319.65454"
     y2="46.993652" />
  <line
     class="arc0"
     id="link53_@0_52"
     x1="163.16057"
     y1="224.02374"
     x2="319.65454"
     y2="418.7688" />
  <line
     class="arc0"
     id="link55_@0_54"
     x1="163.16057"
     y1="224.02374"
     x2="319.65454"
     y2="418.7688" />
  <line
     class="arc0"
     id="link46_@0_11"
     x1="319.65454"
     y1="418.7688"
     x2="319.65454"
     y2="46.993652" />
  <line
     class="arc0"
     id="link47_@0_12"
     x1="319.65454"
     y1="418.7688"
     x2="319.65454"
     y2="46.993652" />
</svg>
