<?xml version="1.0" encoding="UTF-8" standalone="no"?>
<!-- Created with Jerboa -->

<svg
   width="373.28839"
   height="308.20471"
   version="1.1"
   id="svg21333"
   sodipodi:docname="2-reevaluation-extrusion.svg"
   inkscape:version="1.2.2 (b0a8486541, 2022-12-01)"
   xmlns:inkscape="http://www.inkscape.org/namespaces/inkscape"
   xmlns:sodipodi="http://sodipodi.sourceforge.net/DTD/sodipodi-0.dtd"
   xmlns="http://www.w3.org/2000/svg"
   xmlns:svg="http://www.w3.org/2000/svg">
  <defs
     id="defs21337" />
  <sodipodi:namedview
     id="namedview21335"
     pagecolor="#ffffff"
     bordercolor="#000000"
     borderopacity="0.25"
     inkscape:showpageshadow="2"
     inkscape:pageopacity="0.0"
     inkscape:pagecheckerboard="0"
     inkscape:deskcolor="#d1d1d1"
     showgrid="false"
     inkscape:zoom="0.87552743"
     inkscape:cx="174.18072"
     inkscape:cy="155.90602"
     inkscape:window-width="1908"
     inkscape:window-height="1048"
     inkscape:window-x="1085"
     inkscape:window-y="25"
     inkscape:window-maximized="1"
     inkscape:current-layer="svg21333" />
  <style
     id="style">
		.arc0 {
			fill:none;
			fill-rule:evenodd;
			stroke:black;
			stroke-width:4;
			stroke-linecap:round;
			stroke-linejoin:round;
			stroke-opacity:1;
		}
		.arc1 {
			fill:none;
			fill-rule:evenodd;
			stroke:red;
			stroke-width:4;
			stroke-linecap:round;
			stroke-linejoin:round;
			stroke-opacity:1;
		}
		.arc2 {
			fill:none;
			fill-rule:evenodd;
			stroke:blue;
			stroke-width:4;
			stroke-linecap:round;
			stroke-linejoin:round;
			stroke-opacity:1;
		}
		.arc3 {
			fill:none;
			fill-rule:evenodd;
			stroke:green;
			stroke-width:4;
			stroke-linecap:round;
			stroke-linejoin:round;
			stroke-opacity:1;
		}
		.topological-dart {
			fill:#000000;
			stroke:#000000;
			stroke-width:0;
			stroke-linecap:round;
			stroke-linejoin:round;
			stroke-dasharray:none;
			paint-order:markers fill stroke;
		}
	</style>
  <polygon
     points="735.43085,199.70328 871.5335,207.38464 901.90765,245.0755 901.90765,406.28146 871.5335,440.54376 735.43085,432.86234 705.05664,395.1715 705.05664,233.96552 "
     id="face_22_23_18_17_16_15_20_21"
     style="fill:#c0c0c0;stroke:none"
     opacity="1"
     transform="translate(-537.27484,-177.0658)" />
  <line
     class="arc1"
     id="link21_@1_20"
     x1="167.7818"
     y1="218.10571"
     x2="198.15601"
     y2="255.79654" />
  <line
     class="arc2"
     id="link21_@2_26"
     x1="167.7818"
     y1="218.10571"
     x2="136.4696"
     y2="218.68414" />
  <line
     class="arc0"
     id="link21_@0_22"
     x1="167.7818"
     y1="218.10571"
     x2="167.7818"
     y2="56.899719" />
  <polygon
     points="654.01917,201.20712 561.83636,212.8212 542.11115,251.43753 542.11115,412.6435 561.83636,445.98032 654.01917,434.36624 673.74445,395.74994 673.74445,234.54395 "
     id="face_27_28_33_32_31_30_25_26"
     style="fill:#c0c0c0;stroke:none"
     opacity="1"
     transform="translate(-537.27484,-177.0658)" />
  <line
     class="arc1"
     id="link26_@1_25"
     x1="136.4696"
     y1="218.68414"
     x2="116.74432"
     y2="257.30045" />
  <line
     class="arc0"
     id="link26_@0_27"
     x1="136.4696"
     y1="218.68414"
     x2="136.4696"
     y2="57.478149" />
  <line
     class="arc1"
     id="link22_@1_23"
     x1="167.7818"
     y1="56.899719"
     x2="198.15601"
     y2="22.637482" />
  <line
     class="arc2"
     id="link22_@2_27"
     x1="167.7818"
     y1="56.899719"
     x2="136.4696"
     y2="57.478149" />
  <line
     class="arc2"
     id="link20_@2_0"
     x1="198.15601"
     y1="255.79654"
     x2="184.34827"
     y2="280.1297" />
  <line
     class="arc0"
     id="link20_@0_15"
     x1="198.15601"
     y1="255.79654"
     x2="334.25867"
     y2="263.47797" />
  <line
     class="arc1"
     id="link27_@1_28"
     x1="136.4696"
     y1="57.478149"
     x2="116.74432"
     y2="24.141327" />
  <line
     class="arc2"
     id="link25_@2_1"
     x1="116.74432"
     y1="257.30045"
     x2="134.2489"
     y2="281.05518" />
  <line
     class="arc0"
     id="link25_@0_30"
     x1="116.74432"
     y1="257.30045"
     x2="24.561523"
     y2="268.91452" />
  <polygon
     points="868.37476,469.23096 787.5822,481.48788 752.6698,483.2705 667.1624,480.3211 636.7882,478.6068 571.006,473.01764 575.5441,469.52078 671.52374,458.12097 721.6231,457.1955 857.72577,464.87695 "
     id="face_7_6_5_4_9_8_3_2_1_0"
     style="fill:#c0c0c0;stroke:none"
     opacity="1"
     transform="translate(-537.27484,-177.0658)" />
  <line
     class="arc1"
     id="link0_@1_1"
     x1="184.34827"
     y1="280.1297"
     x2="134.2489"
     y2="281.05518" />
  <line
     class="arc0"
     id="link0_@0_7"
     x1="184.34827"
     y1="280.1297"
     x2="320.45093"
     y2="287.81116" />
  <line
     class="arc2"
     id="link23_@2_24"
     x1="198.15601"
     y1="22.637482"
     x2="184.34827"
     y2="2" />
  <line
     class="arc0"
     id="link23_@0_18"
     x1="198.15601"
     y1="22.637482"
     x2="334.25867"
     y2="30.318848" />
  <line
     class="arc0"
     id="link1_@0_2"
     x1="134.2489"
     y1="281.05518"
     x2="38.269287"
     y2="292.45499" />
  <line
     class="arc2"
     id="link28_@2_29"
     x1="116.74432"
     y1="24.141327"
     x2="134.2489"
     y2="2.9254456" />
  <line
     class="arc0"
     id="link28_@0_33"
     x1="116.74432"
     y1="24.141327"
     x2="24.561523"
     y2="35.755402" />
  <polygon
     points="868.37476,191.1012 787.5822,203.35812 752.6698,205.14072 667.1624,202.19131 636.7882,200.47705 571.006,194.88788 575.5441,191.39102 671.52374,179.99124 721.6231,179.0658 857.72577,186.74716 "
     id="face_19_14_59_54_49_44_39_34_29_24"
     style="fill:#c0c0c0;stroke:none"
     opacity="1"
     transform="translate(-537.27484,-177.0658)" />
  <line
     class="arc1"
     id="link24_@1_29"
     x1="184.34827"
     y1="2"
     x2="134.2489"
     y2="2.9254456" />
  <line
     class="arc0"
     id="link24_@0_19"
     x1="184.34827"
     y1="2"
     x2="320.45093"
     y2="9.681366" />
  <line
     class="arc0"
     id="link29_@0_34"
     x1="134.2489"
     y1="2.9254456"
     x2="38.269287"
     y2="14.325226" />
  <line
     class="arc1"
     id="link15_@1_16"
     x1="334.25867"
     y1="263.47797"
     x2="364.63281"
     y2="229.21567" />
  <line
     class="arc2"
     id="link15_@2_7"
     x1="334.25867"
     y1="263.47797"
     x2="320.45093"
     y2="287.81116" />
  <line
     class="arc1"
     id="link7_@1_6"
     x1="320.45093"
     y1="287.81116"
     x2="331.09991"
     y2="292.16516" />
  <line
     class="arc1"
     id="link18_@1_17"
     x1="334.25867"
     y1="30.318848"
     x2="364.63281"
     y2="68.009705" />
  <line
     class="arc2"
     id="link18_@2_19"
     x1="334.25867"
     y1="30.318848"
     x2="320.45093"
     y2="9.681366" />
  <line
     class="arc2"
     id="link16_@2_11"
     x1="364.63281"
     y1="229.21567"
     x2="371.28839"
     y2="231.93695" />
  <line
     class="arc0"
     id="link16_@0_17"
     x1="364.63281"
     y1="229.21567"
     x2="364.63281"
     y2="68.009705" />
  <line
     class="arc2"
     id="link17_@2_12"
     x1="364.63281"
     y1="68.009705"
     x2="371.28839"
     y2="70.730927" />
  <line
     class="arc1"
     id="link19_@1_14"
     x1="320.45093"
     y1="9.681366"
     x2="331.09991"
     y2="14.0354" />
  <polygon
     points="888.83795,214.45996 804.24866,226.50256 784.5235,265.1189 784.5235,426.3249 804.24866,459.66168 888.83795,447.61902 908.56323,409.00275 908.56323,247.79672 "
     id="face_12_13_58_57_56_55_10_11"
     style="fill:#c0c0c0;stroke:none"
     opacity="1"
     transform="translate(-537.27484,-177.0658)" />
  <line
     class="arc1"
     id="link11_@1_10"
     x1="371.28839"
     y1="231.93695"
     x2="351.56311"
     y2="270.55322" />
  <line
     class="arc0"
     id="link11_@0_12"
     x1="371.28839"
     y1="231.93695"
     x2="371.28839"
     y2="70.730927" />
  <line
     class="arc1"
     id="link30_@1_31"
     x1="24.561523"
     y1="268.91452"
     x2="4.8363037"
     y2="235.5777" />
  <line
     class="arc2"
     id="link30_@2_2"
     x1="24.561523"
     y1="268.91452"
     x2="38.269287"
     y2="292.45499" />
  <line
     class="arc1"
     id="link12_@1_13"
     x1="371.28839"
     y1="70.730927"
     x2="351.56311"
     y2="37.394165" />
  <line
     class="arc2"
     id="link6_@2_10"
     x1="331.09991"
     y1="292.16516"
     x2="351.56311"
     y2="270.55322" />
  <line
     class="arc0"
     id="link6_@0_5"
     x1="331.09991"
     y1="292.16516"
     x2="250.30737"
     y2="304.42209" />
  <line
     class="arc1"
     id="link2_@1_3"
     x1="38.269287"
     y1="292.45499"
     x2="33.73114"
     y2="295.95184" />
  <line
     class="arc0"
     id="link10_@0_55"
     x1="351.56311"
     y1="270.55322"
     x2="266.97382"
     y2="282.59589" />
  <line
     class="arc1"
     id="link33_@1_32"
     x1="24.561523"
     y1="35.755402"
     x2="4.8363037"
     y2="74.371735" />
  <line
     class="arc2"
     id="link33_@2_34"
     x1="24.561523"
     y1="35.755402"
     x2="38.269287"
     y2="14.325226" />
  <line
     class="arc2"
     id="link14_@2_13"
     x1="331.09991"
     y1="14.0354"
     x2="351.56311"
     y2="37.394165" />
  <line
     class="arc0"
     id="link14_@0_59"
     x1="331.09991"
     y1="14.0354"
     x2="250.30737"
     y2="26.292328" />
  <line
     class="arc2"
     id="link31_@2_36"
     x1="4.8363037"
     y1="235.5777"
     x2="2"
     y2="237.76324" />
  <line
     class="arc0"
     id="link31_@0_32"
     x1="4.8363037"
     y1="235.5777"
     x2="4.8363037"
     y2="74.371735" />
  <line
     class="arc1"
     id="link34_@1_39"
     x1="38.269287"
     y1="14.325226"
     x2="33.73114"
     y2="17.822083" />
  <line
     class="arc0"
     id="link13_@0_58"
     x1="351.56311"
     y1="37.394165"
     x2="266.97382"
     y2="49.436768" />
  <line
     class="arc2"
     id="link32_@2_37"
     x1="4.8363037"
     y1="74.371735"
     x2="2"
     y2="76.557281" />
  <line
     class="arc2"
     id="link3_@2_35"
     x1="33.73114"
     y1="295.95184"
     x2="17.187134"
     y2="274.59695" />
  <line
     class="arc0"
     id="link3_@0_8"
     x1="33.73114"
     y1="295.95184"
     x2="99.513367"
     y2="301.54102" />
  <polygon
     points="554.462,218.50366 621.3787,223.21857 636.56586,260.05228 636.56586,421.25824 621.3787,456.3777 554.462,451.66275 539.27484,414.82904 539.27484,253.62308 "
     id="face_37_38_43_42_41_40_35_36"
     style="fill:#c0c0c0;stroke:none"
     opacity="1"
     transform="translate(-537.27484,-177.0658)" />
  <line
     class="arc1"
     id="link36_@1_35"
     x1="2"
     y1="237.76324"
     x2="17.187134"
     y2="274.59695" />
  <line
     class="arc0"
     id="link36_@0_37"
     x1="2"
     y1="237.76324"
     x2="2"
     y2="76.557281" />
  <line
     class="arc0"
     id="link35_@0_40"
     x1="17.187134"
     y1="274.59695"
     x2="84.103882"
     y2="279.31189" />
  <line
     class="arc1"
     id="link37_@1_38"
     x1="2"
     y1="76.557281"
     x2="17.187134"
     y2="41.437866" />
  <line
     class="arc2"
     id="link39_@2_38"
     x1="33.73114"
     y1="17.822083"
     x2="17.187134"
     y2="41.437866" />
  <line
     class="arc0"
     id="link39_@0_44"
     x1="33.73114"
     y1="17.822083"
     x2="99.513367"
     y2="23.411255" />
  <line
     class="arc0"
     id="link38_@0_43"
     x1="17.187134"
     y1="41.437866"
     x2="84.103882"
     y2="46.152771" />
  <line
     class="arc1"
     id="link8_@1_9"
     x1="99.513367"
     y1="301.54102"
     x2="129.88757"
     y2="303.25531" />
  <line
     class="arc2"
     id="link8_@2_40"
     x1="99.513367"
     y1="301.54102"
     x2="84.103882"
     y2="279.31189" />
  <line
     class="arc1"
     id="link40_@1_41"
     x1="84.103882"
     y1="279.31189"
     x2="99.291016"
     y2="244.19244" />
  <line
     class="arc2"
     id="link41_@2_46"
     x1="99.291016"
     y1="244.19244"
     x2="118.27484"
     y2="245.26385" />
  <line
     class="arc0"
     id="link41_@0_42"
     x1="99.291016"
     y1="244.19244"
     x2="99.291016"
     y2="82.986481" />
  <line
     class="arc2"
     id="link9_@2_45"
     x1="129.88757"
     y1="303.25531"
     x2="133.46198"
     y2="282.0976" />
  <line
     class="arc0"
     id="link9_@0_4"
     x1="129.88757"
     y1="303.25531"
     x2="215.39496"
     y2="306.20471" />
  <line
     class="arc1"
     id="link44_@1_49"
     x1="99.513367"
     y1="23.411255"
     x2="129.88757"
     y2="25.125519" />
  <line
     class="arc2"
     id="link44_@2_43"
     x1="99.513367"
     y1="23.411255"
     x2="84.103882"
     y2="46.152771" />
  <line
     class="arc1"
     id="link43_@1_42"
     x1="84.103882"
     y1="46.152771"
     x2="99.291016"
     y2="82.986481" />
  <polygon
     points="670.7368,226.00427 747.51624,229.39932 762.70337,266.23306 762.70337,427.439 747.51624,462.5584 670.7368,459.1634 655.5497,422.32965 655.5497,261.12366 "
     id="face_47_48_53_52_51_50_45_46"
     style="fill:#c0c0c0;stroke:none"
     opacity="1"
     transform="translate(-537.27484,-177.0658)" />
  <line
     class="arc1"
     id="link46_@1_45"
     x1="118.27484"
     y1="245.26385"
     x2="133.46198"
     y2="282.0976" />
  <line
     class="arc0"
     id="link46_@0_47"
     x1="118.27484"
     y1="245.26385"
     x2="118.27484"
     y2="84.057861" />
  <line
     class="arc2"
     id="link42_@2_47"
     x1="99.291016"
     y1="82.986481"
     x2="118.27484"
     y2="84.057861" />
  <line
     class="arc1"
     id="link5_@1_4"
     x1="250.30737"
     y1="304.42209"
     x2="215.39496"
     y2="306.20471" />
  <line
     class="arc2"
     id="link5_@2_55"
     x1="250.30737"
     y1="304.42209"
     x2="266.97382"
     y2="282.59589" />
  <line
     class="arc0"
     id="link45_@0_50"
     x1="133.46198"
     y1="282.0976"
     x2="210.24139"
     y2="285.49261" />
  <line
     class="arc1"
     id="link55_@1_56"
     x1="266.97382"
     y1="282.59589"
     x2="247.24866"
     y2="249.25909" />
  <line
     class="arc1"
     id="link47_@1_48"
     x1="118.27484"
     y1="84.057861"
     x2="133.46198"
     y2="48.938477" />
  <line
     class="arc2"
     id="link49_@2_48"
     x1="129.88757"
     y1="25.125519"
     x2="133.46198"
     y2="48.938477" />
  <line
     class="arc0"
     id="link49_@0_54"
     x1="129.88757"
     y1="25.125519"
     x2="215.39496"
     y2="28.074921" />
  <line
     class="arc2"
     id="link4_@2_50"
     x1="215.39496"
     y1="306.20471"
     x2="210.24139"
     y2="285.49261" />
  <line
     class="arc0"
     id="link48_@0_53"
     x1="133.46198"
     y1="48.938477"
     x2="210.24139"
     y2="52.333527" />
  <line
     class="arc1"
     id="link59_@1_54"
     x1="250.30737"
     y1="26.292328"
     x2="215.39496"
     y2="28.074921" />
  <line
     class="arc2"
     id="link59_@2_58"
     x1="250.30737"
     y1="26.292328"
     x2="266.97382"
     y2="49.436768" />
  <line
     class="arc1"
     id="link58_@1_57"
     x1="266.97382"
     y1="49.436768"
     x2="247.24866"
     y2="88.053101" />
  <line
     class="arc1"
     id="link50_@1_51"
     x1="210.24139"
     y1="285.49261"
     x2="225.42853"
     y2="250.3732" />
  <line
     class="arc2"
     id="link56_@2_51"
     x1="247.24866"
     y1="249.25909"
     x2="225.42853"
     y2="250.3732" />
  <line
     class="arc0"
     id="link56_@0_57"
     x1="247.24866"
     y1="249.25909"
     x2="247.24866"
     y2="88.053101" />
  <line
     class="arc2"
     id="link54_@2_53"
     x1="215.39496"
     y1="28.074921"
     x2="210.24139"
     y2="52.333527" />
  <line
     class="arc0"
     id="link51_@0_52"
     x1="225.42853"
     y1="250.3732"
     x2="225.42853"
     y2="89.167267" />
  <line
     class="arc2"
     id="link57_@2_52"
     x1="247.24866"
     y1="88.053101"
     x2="225.42853"
     y2="89.167267" />
  <line
     class="arc1"
     id="link53_@1_52"
     x1="210.24139"
     y1="52.333527"
     x2="225.42853"
     y2="89.167267" />
</svg>
