<?xml version="1.0" encoding="UTF-8" standalone="no"?>
<!-- Created with Jerboa -->

<svg
	width="1317"
	height="620" >
	<style id="style">
		.arc0 {
			fill:none;
			fill-rule:evenodd;
			stroke:black;
			stroke-width:4;
			stroke-linecap:round;
			stroke-linejoin:round;
			stroke-opacity:1;
		}
		.arc1 {
			fill:none;
			fill-rule:evenodd;
			stroke:red;
			stroke-width:4;
			stroke-linecap:round;
			stroke-linejoin:round;
			stroke-opacity:1;
		}
		.arc2 {
			fill:none;
			fill-rule:evenodd;
			stroke:blue;
			stroke-width:4;
			stroke-linecap:round;
			stroke-linejoin:round;
			stroke-opacity:1;
		}
		.arc3 {
			fill:none;
			fill-rule:evenodd;
			stroke:green;
			stroke-width:4;
			stroke-linecap:round;
			stroke-linejoin:round;
			stroke-opacity:1;
		}
		.topological-dart {
			fill:#000000;
			stroke:#000000;
			stroke-width:0;
			stroke-linecap:round;
			stroke-linejoin:round;
			stroke-dasharray:none;
			paint-order:markers fill stroke;
		}
	</style>
<polygon
	points="662.0621,295.5772 662.0621,190.81299 680.95703,174.8251 770.07916,204.1792 788.9741,232.61383 788.9741,337.37808 770.07916,353.36597 680.95703,324.0119 "
	id="face_31_32_38_37_36_35_29_30"
	style="fill:rgb(192,192,192);stroke:none"
	opacity="1.0" />
<line
	class="arc1"
	id="link30_@1_29"
	x1="662.0621"
	y1="295.5772"
	x2="680.95703"
	y2="324.0119" />
<line
	class="arc2"
	id="link30_@2_24"
	x1="662.0621"
	y1="295.5772"
	x2="653.5131"
	y2="295.9427" />
<line
	class="arc0"
	id="link30_@0_31"
	x1="662.0621"
	y1="295.5772"
	x2="662.0621"
	y2="190.81299" />
<polygon
	points="653.5131,295.9427 653.5131,191.1784 638.2123,176.65247 563.6807,212.12375 548.3799,242.02032 548.3799,346.78455 563.6807,361.31055 638.2123,325.83923 "
	id="face_25_26_20_19_18_17_23_24"
	style="fill:rgb(192,192,192);stroke:none"
	opacity="1.0" />
<line
	class="arc1"
	id="link24_@1_23"
	x1="653.5131"
	y1="295.9427"
	x2="638.2123"
	y2="325.83923" />
<line
	class="arc0"
	id="link24_@0_25"
	x1="653.5131"
	y1="295.9427"
	x2="653.5131"
	y2="191.1784" />
<line
	class="arc2"
	id="link29_@2_28"
	x1="680.95703"
	y1="324.0119"
	x2="677.13184"
	y2="331.48605" />
<line
	class="arc0"
	id="link29_@0_35"
	x1="680.95703"
	y1="324.0119"
	x2="770.07916"
	y2="353.36597" />
<polygon
	points="677.13184,331.48605 766.25397,360.8401 769.8481,374.74878 702.4021,412.5539 677.6538,417.12744 620.71857,404.73718 601.82367,398.5138 560.1893,378.4383 566.0426,367.6413 642.93604,332.9479 "
	id="face_34_40_46_52_58_64_10_16_22_28"
	style="fill:rgb(192,192,192);stroke:none"
	opacity="1.0" />
<line
	class="arc1"
	id="link28_@1_22"
	x1="677.13184"
	y1="331.48605"
	x2="642.93604"
	y2="332.9479" />
<line
	class="arc3"
	id="link28_@3_0"
	x1="677.13184"
	y1="331.48605"
	x2="673.30664"
	y2="338.96017" />
<line
	class="arc0"
	id="link28_@0_34"
	x1="677.13184"
	y1="331.48605"
	x2="766.25397"
	y2="360.8401" />
<polygon
	points="673.30664,338.96017 762.4287,368.31424 765.12427,378.74576 700.0403,417.3288 681.479,420.75894 618.35675,409.5121 604.18555,404.84454 564.01447,382.06976 568.4045,373.97205 647.6597,340.05658 "
	id="face_7_6_5_4_9_8_3_2_1_0"
	style="fill:rgb(192,192,192);stroke:none"
	opacity="1.0" />
<line
	class="arc1"
	id="link0_@1_1"
	x1="673.30664"
	y1="338.96017"
	x2="647.6597"
	y2="340.05658" />
<line
	class="arc0"
	id="link0_@0_7"
	x1="673.30664"
	y1="338.96017"
	x2="762.4287"
	y2="368.31424" />
<line
	class="arc2"
	id="link23_@2_22"
	x1="638.2123"
	y1="325.83923"
	x2="642.93604"
	y2="332.9479" />
<line
	class="arc0"
	id="link23_@0_17"
	x1="638.2123"
	y1="325.83923"
	x2="563.6807"
	y2="361.31055" />
<line
	class="arc3"
	id="link22_@3_1"
	x1="642.93604"
	y1="332.9479"
	x2="647.6597"
	y2="340.05658" />
<line
	class="arc0"
	id="link22_@0_16"
	x1="642.93604"
	y1="332.9479"
	x2="566.0426"
	y2="367.6413" />
<line
	class="arc0"
	id="link1_@0_2"
	x1="647.6597"
	y1="340.05658"
	x2="568.4045"
	y2="373.97205" />
<line
	class="arc1"
	id="link31_@1_32"
	x1="662.0621"
	y1="190.81299"
	x2="680.95703"
	y2="174.8251" />
<line
	class="arc2"
	id="link31_@2_25"
	x1="662.0621"
	y1="190.81299"
	x2="653.5131"
	y2="191.1784" />
<line
	class="arc1"
	id="link25_@1_26"
	x1="653.5131"
	y1="191.1784"
	x2="638.2123"
	y2="176.65247" />
<line
	class="arc1"
	id="link35_@1_36"
	x1="770.07916"
	y1="353.36597"
	x2="788.9741"
	y2="337.37808" />
<line
	class="arc2"
	id="link35_@2_34"
	x1="770.07916"
	y1="353.36597"
	x2="766.25397"
	y2="360.8401" />
<line
	class="arc2"
	id="link32_@2_33"
	x1="680.95703"
	y1="174.8251"
	x2="677.13184"
	y2="171.19363" />
<line
	class="arc0"
	id="link32_@0_38"
	x1="680.95703"
	y1="174.8251"
	x2="770.07916"
	y2="204.1792" />
<line
	class="arc1"
	id="link34_@1_40"
	x1="766.25397"
	y1="360.8401"
	x2="769.8481"
	y2="374.74878" />
<line
	class="arc3"
	id="link34_@3_7"
	x1="766.25397"
	y1="360.8401"
	x2="762.4287"
	y2="368.31424" />
<line
	class="arc1"
	id="link7_@1_6"
	x1="762.4287"
	y1="368.31424"
	x2="765.12427"
	y2="378.74576" />
<line
	class="arc2"
	id="link26_@2_27"
	x1="638.2123"
	y1="176.65247"
	x2="642.93604"
	y2="172.65549" />
<line
	class="arc0"
	id="link26_@0_20"
	x1="638.2123"
	y1="176.65247"
	x2="563.6807"
	y2="212.12375" />
<polygon
	points="677.13184,171.19363 766.25397,200.5477 769.8481,214.45636 702.4021,252.26147 677.6538,256.83502 620.71857,244.44476 601.82367,238.22134 560.1893,218.14584 566.0426,207.34888 642.93604,172.65549 "
	id="face_39_45_51_57_63_69_15_21_27_33"
	style="fill:rgb(192,192,192);stroke:none"
	opacity="1.0" />
<line
	class="arc1"
	id="link33_@1_27"
	x1="677.13184"
	y1="171.19363"
	x2="642.93604"
	y2="172.65549" />
<line
	class="arc0"
	id="link33_@0_39"
	x1="677.13184"
	y1="171.19363"
	x2="766.25397"
	y2="200.5477" />
<line
	class="arc0"
	id="link27_@0_21"
	x1="642.93604"
	y1="172.65549"
	x2="566.0426"
	y2="207.34888" />
<line
	class="arc1"
	id="link2_@1_3"
	x1="568.4045"
	y1="373.97205"
	x2="564.01447"
	y2="382.06976" />
<line
	class="arc3"
	id="link2_@3_16"
	x1="568.4045"
	y1="373.97205"
	x2="566.0426"
	y2="367.6413" />
<line
	class="arc1"
	id="link16_@1_10"
	x1="566.0426"
	y1="367.6413"
	x2="560.1893"
	y2="378.4383" />
<line
	class="arc2"
	id="link16_@2_17"
	x1="566.0426"
	y1="367.6413"
	x2="563.6807"
	y2="361.31055" />
<line
	class="arc1"
	id="link17_@1_18"
	x1="563.6807"
	y1="361.31055"
	x2="548.3799"
	y2="346.78455" />
<line
	class="arc2"
	id="link36_@2_42"
	x1="788.9741"
	y1="337.37808"
	x2="789.8726"
	y2="340.8553" />
<line
	class="arc0"
	id="link36_@0_37"
	x1="788.9741"
	y1="337.37808"
	x2="788.9741"
	y2="232.61383" />
<line
	class="arc3"
	id="link6_@3_40"
	x1="765.12427"
	y1="378.74576"
	x2="769.8481"
	y2="374.74878" />
<line
	class="arc0"
	id="link6_@0_5"
	x1="765.12427"
	y1="378.74576"
	x2="700.0403"
	y2="417.3288" />
<polygon
	points="789.8726,340.8553 789.8726,236.091 774.5718,221.565 704.764,258.59216 689.46313,288.4887 689.46313,393.253 704.764,407.779 774.5718,370.75183 "
	id="face_43_44_50_49_48_47_41_42"
	style="fill:rgb(192,192,192);stroke:none"
	opacity="1.0" />
<line
	class="arc1"
	id="link42_@1_41"
	x1="789.8726"
	y1="340.8553"
	x2="774.5718"
	y2="370.75183" />
<line
	class="arc0"
	id="link42_@0_43"
	x1="789.8726"
	y1="340.8553"
	x2="789.8726"
	y2="236.091" />
<line
	class="arc2"
	id="link40_@2_41"
	x1="769.8481"
	y1="374.74878"
	x2="774.5718"
	y2="370.75183" />
<line
	class="arc0"
	id="link40_@0_46"
	x1="769.8481"
	y1="374.74878"
	x2="702.4021"
	y2="412.5539" />
<line
	class="arc3"
	id="link3_@3_10"
	x1="564.01447"
	y1="382.06976"
	x2="560.1893"
	y2="378.4383" />
<line
	class="arc0"
	id="link3_@0_8"
	x1="564.01447"
	y1="382.06976"
	x2="604.18555"
	y2="404.84454" />
<line
	class="arc0"
	id="link41_@0_47"
	x1="774.5718"
	y1="370.75183"
	x2="704.764"
	y2="407.779" />
<line
	class="arc2"
	id="link10_@2_11"
	x1="560.1893"
	y1="378.4383"
	x2="556.3641"
	y2="374.80676" />
<line
	class="arc0"
	id="link10_@0_64"
	x1="560.1893"
	y1="378.4383"
	x2="601.82367"
	y2="398.5138" />
<line
	class="arc2"
	id="link18_@2_12"
	x1="548.3799"
	y1="346.78455"
	x2="546.91656"
	y2="349.4838" />
<line
	class="arc0"
	id="link18_@0_19"
	x1="548.3799"
	y1="346.78455"
	x2="548.3799"
	y2="242.02032" />
<polygon
	points="556.3641,374.80676 599.4618,392.18304 608.90924,373.0835 608.90924,268.3192 599.4618,242.99622 556.3641,225.61996 546.91656,244.71954 546.91656,349.4838 "
	id="face_65_66_67_68_14_13_12_11"
	style="fill:rgb(192,192,192);stroke:none"
	opacity="1.0" />
<line
	class="arc1"
	id="link11_@1_12"
	x1="556.3641"
	y1="374.80676"
	x2="546.91656"
	y2="349.4838" />
<line
	class="arc0"
	id="link11_@0_65"
	x1="556.3641"
	y1="374.80676"
	x2="599.4618"
	y2="392.18304" />
<line
	class="arc0"
	id="link12_@0_13"
	x1="546.91656"
	y1="349.4838"
	x2="546.91656"
	y2="244.71954" />
<line
	class="arc1"
	id="link38_@1_37"
	x1="770.07916"
	y1="204.1792"
	x2="788.9741"
	y2="232.61383" />
<line
	class="arc2"
	id="link38_@2_39"
	x1="770.07916"
	y1="204.1792"
	x2="766.25397"
	y2="200.5477" />
<line
	class="arc2"
	id="link37_@2_43"
	x1="788.9741"
	y1="232.61383"
	x2="789.8726"
	y2="236.091" />
<line
	class="arc1"
	id="link39_@1_45"
	x1="766.25397"
	y1="200.5477"
	x2="769.8481"
	y2="214.45636" />
<line
	class="arc1"
	id="link43_@1_44"
	x1="789.8726"
	y1="236.091"
	x2="774.5718"
	y2="221.565" />
<line
	class="arc1"
	id="link20_@1_19"
	x1="563.6807"
	y1="212.12375"
	x2="548.3799"
	y2="242.02032" />
<line
	class="arc2"
	id="link20_@2_21"
	x1="563.6807"
	y1="212.12375"
	x2="566.0426"
	y2="207.34888" />
<line
	class="arc1"
	id="link8_@1_9"
	x1="604.18555"
	y1="404.84454"
	x2="618.35675"
	y2="409.5121" />
<line
	class="arc3"
	id="link8_@3_64"
	x1="604.18555"
	y1="404.84454"
	x2="601.82367"
	y2="398.5138" />
<line
	class="arc1"
	id="link64_@1_58"
	x1="601.82367"
	y1="398.5138"
	x2="620.71857"
	y2="404.73718" />
<line
	class="arc2"
	id="link64_@2_65"
	x1="601.82367"
	y1="398.5138"
	x2="599.4618"
	y2="392.18304" />
<line
	class="arc1"
	id="link65_@1_66"
	x1="599.4618"
	y1="392.18304"
	x2="608.90924"
	y2="373.0835" />
<line
	class="arc1"
	id="link21_@1_15"
	x1="566.0426"
	y1="207.34888"
	x2="560.1893"
	y2="218.14584" />
<line
	class="arc2"
	id="link19_@2_13"
	x1="548.3799"
	y1="242.02032"
	x2="546.91656"
	y2="244.71954" />
<line
	class="arc3"
	id="link9_@3_58"
	x1="618.35675"
	y1="409.5121"
	x2="620.71857"
	y2="404.73718" />
<line
	class="arc0"
	id="link9_@0_4"
	x1="618.35675"
	y1="409.5121"
	x2="681.479"
	y2="420.75894" />
<line
	class="arc1"
	id="link13_@1_14"
	x1="546.91656"
	y1="244.71954"
	x2="556.3641"
	y2="225.61996" />
<line
	class="arc2"
	id="link58_@2_59"
	x1="620.71857"
	y1="404.73718"
	x2="623.0805"
	y2="399.96228" />
<line
	class="arc0"
	id="link58_@0_52"
	x1="620.71857"
	y1="404.73718"
	x2="677.6538"
	y2="417.12744" />
<line
	class="arc2"
	id="link45_@2_44"
	x1="769.8481"
	y1="214.45636"
	x2="774.5718"
	y2="221.565" />
<line
	class="arc0"
	id="link45_@0_51"
	x1="769.8481"
	y1="214.45636"
	x2="702.4021"
	y2="252.26147" />
<polygon
	points="623.0805,399.96228 673.82855,413.49594 683.2761,394.39636 683.2761,289.6321 673.82855,264.30914 623.0805,250.77551 613.633,269.87506 613.633,374.6393 "
	id="face_53_54_55_56_62_61_60_59"
	style="fill:rgb(192,192,192);stroke:none"
	opacity="1.0" />
<line
	class="arc1"
	id="link59_@1_60"
	x1="623.0805"
	y1="399.96228"
	x2="613.633"
	y2="374.6393" />
<line
	class="arc0"
	id="link59_@0_53"
	x1="623.0805"
	y1="399.96228"
	x2="673.82855"
	y2="413.49594" />
<line
	class="arc2"
	id="link66_@2_60"
	x1="608.90924"
	y1="373.0835"
	x2="613.633"
	y2="374.6393" />
<line
	class="arc0"
	id="link66_@0_67"
	x1="608.90924"
	y1="373.0835"
	x2="608.90924"
	y2="268.3192" />
<line
	class="arc0"
	id="link44_@0_50"
	x1="774.5718"
	y1="221.565"
	x2="704.764"
	y2="258.59216" />
<line
	class="arc0"
	id="link60_@0_61"
	x1="613.633"
	y1="374.6393"
	x2="613.633"
	y2="269.87506" />
<line
	class="arc2"
	id="link15_@2_14"
	x1="560.1893"
	y1="218.14584"
	x2="556.3641"
	y2="225.61996" />
<line
	class="arc0"
	id="link15_@0_69"
	x1="560.1893"
	y1="218.14584"
	x2="601.82367"
	y2="238.22134" />
<line
	class="arc1"
	id="link5_@1_4"
	x1="700.0403"
	y1="417.3288"
	x2="681.479"
	y2="420.75894" />
<line
	class="arc3"
	id="link5_@3_46"
	x1="700.0403"
	y1="417.3288"
	x2="702.4021"
	y2="412.5539" />
<line
	class="arc0"
	id="link14_@0_68"
	x1="556.3641"
	y1="225.61996"
	x2="599.4618"
	y2="242.99622" />
<line
	class="arc1"
	id="link46_@1_52"
	x1="702.4021"
	y1="412.5539"
	x2="677.6538"
	y2="417.12744" />
<line
	class="arc2"
	id="link46_@2_47"
	x1="702.4021"
	y1="412.5539"
	x2="704.764"
	y2="407.779" />
<line
	class="arc3"
	id="link4_@3_52"
	x1="681.479"
	y1="420.75894"
	x2="677.6538"
	y2="417.12744" />
<line
	class="arc1"
	id="link47_@1_48"
	x1="704.764"
	y1="407.779"
	x2="689.46313"
	y2="393.253" />
<line
	class="arc2"
	id="link52_@2_53"
	x1="677.6538"
	y1="417.12744"
	x2="673.82855"
	y2="413.49594" />
<line
	class="arc1"
	id="link53_@1_54"
	x1="673.82855"
	y1="413.49594"
	x2="683.2761"
	y2="394.39636" />
<line
	class="arc2"
	id="link48_@2_54"
	x1="689.46313"
	y1="393.253"
	x2="683.2761"
	y2="394.39636" />
<line
	class="arc0"
	id="link48_@0_49"
	x1="689.46313"
	y1="393.253"
	x2="689.46313"
	y2="288.4887" />
<line
	class="arc1"
	id="link67_@1_68"
	x1="608.90924"
	y1="268.3192"
	x2="599.4618"
	y2="242.99622" />
<line
	class="arc2"
	id="link67_@2_61"
	x1="608.90924"
	y1="268.3192"
	x2="613.633"
	y2="269.87506" />
<line
	class="arc0"
	id="link54_@0_55"
	x1="683.2761"
	y1="394.39636"
	x2="683.2761"
	y2="289.6321" />
<line
	class="arc2"
	id="link68_@2_69"
	x1="599.4618"
	y1="242.99622"
	x2="601.82367"
	y2="238.22134" />
<line
	class="arc1"
	id="link61_@1_62"
	x1="613.633"
	y1="269.87506"
	x2="623.0805"
	y2="250.77551" />
<line
	class="arc1"
	id="link69_@1_63"
	x1="601.82367"
	y1="238.22134"
	x2="620.71857"
	y2="244.44476" />
<line
	class="arc2"
	id="link62_@2_63"
	x1="623.0805"
	y1="250.77551"
	x2="620.71857"
	y2="244.44476" />
<line
	class="arc0"
	id="link62_@0_56"
	x1="623.0805"
	y1="250.77551"
	x2="673.82855"
	y2="264.30914" />
<line
	class="arc0"
	id="link63_@0_57"
	x1="620.71857"
	y1="244.44476"
	x2="677.6538"
	y2="256.83502" />
<line
	class="arc1"
	id="link50_@1_49"
	x1="704.764"
	y1="258.59216"
	x2="689.46313"
	y2="288.4887" />
<line
	class="arc2"
	id="link50_@2_51"
	x1="704.764"
	y1="258.59216"
	x2="702.4021"
	y2="252.26147" />
<line
	class="arc1"
	id="link51_@1_57"
	x1="702.4021"
	y1="252.26147"
	x2="677.6538"
	y2="256.83502" />
<line
	class="arc2"
	id="link49_@2_55"
	x1="689.46313"
	y1="288.4887"
	x2="683.2761"
	y2="289.6321" />
<line
	class="arc1"
	id="link55_@1_56"
	x1="683.2761"
	y1="289.6321"
	x2="673.82855"
	y2="264.30914" />
<line
	class="arc2"
	id="link57_@2_56"
	x1="677.6538"
	y1="256.83502"
	x2="673.82855"
	y2="264.30914" />
</svg>
