<?xml version="1.0" encoding="UTF-8" standalone="no"?>
<!-- Created with Jerboa -->

<svg
   width="443.36395"
   height="755.06775"
   version="1.1"
   id="svg993"
   sodipodi:docname="2-reevaluation-extrusion.svg"
   xml:space="preserve"
   inkscape:version="1.2.2 (b0a8486541, 2022-12-01)"
   xmlns:inkscape="http://www.inkscape.org/namespaces/inkscape"
   xmlns:sodipodi="http://sodipodi.sourceforge.net/DTD/sodipodi-0.dtd"
   xmlns="http://www.w3.org/2000/svg"
   xmlns:svg="http://www.w3.org/2000/svg"><defs
     id="defs997" /><sodipodi:namedview
     id="namedview995"
     pagecolor="#ffffff"
     bordercolor="#000000"
     borderopacity="0.25"
     inkscape:showpageshadow="2"
     inkscape:pageopacity="0.0"
     inkscape:pagecheckerboard="0"
     inkscape:deskcolor="#d1d1d1"
     showgrid="false"
     inkscape:zoom="0.61909138"
     inkscape:cx="130.02927"
     inkscape:cy="73.494805"
     inkscape:window-width="1908"
     inkscape:window-height="1048"
     inkscape:window-x="1085"
     inkscape:window-y="25"
     inkscape:window-maximized="1"
     inkscape:current-layer="svg993" /><style
     id="style">
		.arc0 {
			fill:none;
			fill-rule:evenodd;
			stroke:black;
			stroke-width:4;
			stroke-linecap:round;
			stroke-linejoin:round;
			stroke-opacity:1;
		}
		.arc1 {
			fill:none;
			fill-rule:evenodd;
			stroke:red;
			stroke-width:4;
			stroke-linecap:round;
			stroke-linejoin:round;
			stroke-opacity:1;
		}
		.arc2 {
			fill:none;
			fill-rule:evenodd;
			stroke:blue;
			stroke-width:4;
			stroke-linecap:round;
			stroke-linejoin:round;
			stroke-opacity:1;
		}
		.arc3 {
			fill:none;
			fill-rule:evenodd;
			stroke:green;
			stroke-width:4;
			stroke-linecap:round;
			stroke-linejoin:round;
			stroke-opacity:1;
		}
		.topological-dart {
			fill:#000000;
			stroke:#000000;
			stroke-width:0;
			stroke-linecap:round;
			stroke-linejoin:round;
			stroke-dasharray:none;
			paint-order:markers fill stroke;
		}
	</style><style
     id="style-3">
		.arc0 {
			fill:none;
			fill-rule:evenodd;
			stroke:black;
			stroke-width:4;
			stroke-linecap:round;
			stroke-linejoin:round;
			stroke-opacity:1;
		}
		.arc1 {
			fill:none;
			fill-rule:evenodd;
			stroke:red;
			stroke-width:4;
			stroke-linecap:round;
			stroke-linejoin:round;
			stroke-opacity:1;
		}
		.arc2 {
			fill:none;
			fill-rule:evenodd;
			stroke:blue;
			stroke-width:4;
			stroke-linecap:round;
			stroke-linejoin:round;
			stroke-opacity:1;
		}
		.arc3 {
			fill:none;
			fill-rule:evenodd;
			stroke:green;
			stroke-width:4;
			stroke-linecap:round;
			stroke-linejoin:round;
			stroke-opacity:1;
		}
		.topological-dart {
			fill:#000000;
			stroke:#000000;
			stroke-width:0;
			stroke-linecap:round;
			stroke-linejoin:round;
			stroke-dasharray:none;
			paint-order:markers fill stroke;
		}
	</style><style
     id="style-1">
		.arc0 {
			fill:none;
			fill-rule:evenodd;
			stroke:black;
			stroke-width:4;
			stroke-linecap:round;
			stroke-linejoin:round;
			stroke-opacity:1;
		}
		.arc1 {
			fill:none;
			fill-rule:evenodd;
			stroke:red;
			stroke-width:4;
			stroke-linecap:round;
			stroke-linejoin:round;
			stroke-opacity:1;
		}
		.arc2 {
			fill:none;
			fill-rule:evenodd;
			stroke:blue;
			stroke-width:4;
			stroke-linecap:round;
			stroke-linejoin:round;
			stroke-opacity:1;
		}
		.arc3 {
			fill:none;
			fill-rule:evenodd;
			stroke:green;
			stroke-width:4;
			stroke-linecap:round;
			stroke-linejoin:round;
			stroke-opacity:1;
		}
		.topological-dart {
			fill:#000000;
			stroke:#000000;
			stroke-width:0;
			stroke-linecap:round;
			stroke-linejoin:round;
			stroke-dasharray:none;
			paint-order:markers fill stroke;
		}
	</style><style
     id="style-7">
		.arc0 {
			fill:none;
			fill-rule:evenodd;
			stroke:black;
			stroke-width:4;
			stroke-linecap:round;
			stroke-linejoin:round;
			stroke-opacity:1;
		}
		.arc1 {
			fill:none;
			fill-rule:evenodd;
			stroke:red;
			stroke-width:4;
			stroke-linecap:round;
			stroke-linejoin:round;
			stroke-opacity:1;
		}
		.arc2 {
			fill:none;
			fill-rule:evenodd;
			stroke:blue;
			stroke-width:4;
			stroke-linecap:round;
			stroke-linejoin:round;
			stroke-opacity:1;
		}
		.arc3 {
			fill:none;
			fill-rule:evenodd;
			stroke:green;
			stroke-width:4;
			stroke-linecap:round;
			stroke-linejoin:round;
			stroke-opacity:1;
		}
		.topological-dart {
			fill:#000000;
			stroke:#000000;
			stroke-width:0;
			stroke-linecap:round;
			stroke-linejoin:round;
			stroke-dasharray:none;
			paint-order:markers fill stroke;
		}
	</style><g
     id="g3639"
     transform="matrix(0.86384622,0,0,0.86384622,-410.42824,249.97348)"><polygon
       points="984.478,195.95721 984.478,415.54663 944.8736,449.05774 758.0705,387.53064 718.46606,327.9306 718.46606,108.34119 758.0705,74.83008 944.8736,136.35712 "
       id="face_27_28_33_32_31_30_25_26"
       style="fill:#c0c0c0;stroke:none"
       opacity="1" /><line
       class="arc1"
       id="link26_@1_25"
       x1="718.46606"
       y1="327.9306"
       x2="758.0705"
       y2="387.53064" /><line
       class="arc2"
       id="link26_@2_21"
       x1="718.46606"
       y1="327.9306"
       x2="700.54718"
       y2="328.69662" /><line
       class="arc0"
       id="link26_@0_27"
       x1="718.46606"
       y1="327.9306"
       x2="718.46606"
       y2="108.34119" /><polygon
       points="480.18442,215.6735 480.18442,435.26288 512.2555,465.70987 668.47614,391.36078 700.5472,328.69662 700.5472,109.10718 668.47614,78.66022 512.2555,153.00931 "
       id="face_22_23_18_17_16_15_20_21"
       style="fill:#c0c0c0;stroke:none"
       opacity="1" /><line
       class="arc1"
       id="link21_@1_20"
       x1="700.54718"
       y1="328.69662"
       x2="668.47614"
       y2="391.36078" /><line
       class="arc0"
       id="link21_@0_22"
       x1="700.54718"
       y1="328.69662"
       x2="700.54718"
       y2="109.10718" /><line
       class="arc2"
       id="link25_@2_0"
       x1="758.0705"
       y1="387.53064"
       x2="750.05273"
       y2="403.19669" /><line
       class="arc0"
       id="link25_@0_30"
       x1="758.0705"
       y1="387.53064"
       x2="944.8736"
       y2="449.05774" /><polygon
       points="751.1469,582.7039 631.8088,556.7335 592.20435,543.6891 504.9372,501.61014 517.20605,478.9793 678.37726,406.26077 750.05273,403.1967 936.85583,464.72375 944.38916,493.87683 803.0202,573.11755 "
       id="face_7_6_5_4_9_8_3_2_1_0"
       style="fill:#c0c0c0;stroke:none"
       opacity="1" /><line
       class="arc1"
       id="link0_@1_1"
       x1="750.05273"
       y1="403.19669"
       x2="678.37726"
       y2="406.26077" /><line
       class="arc0"
       id="link0_@0_7"
       x1="750.05273"
       y1="403.19669"
       x2="936.85583"
       y2="464.72375" /><line
       class="arc2"
       id="link20_@2_1"
       x1="668.47614"
       y1="391.36078"
       x2="678.37726"
       y2="406.26077" /><line
       class="arc0"
       id="link20_@0_15"
       x1="668.47614"
       y1="391.36078"
       x2="512.25549"
       y2="465.70987" /><line
       class="arc0"
       id="link1_@0_2"
       x1="678.37726"
       y1="406.26077"
       x2="517.20605"
       y2="478.97931" /><line
       class="arc1"
       id="link27_@1_28"
       x1="718.46606"
       y1="108.34119"
       x2="758.0705"
       y2="74.830078" /><line
       class="arc2"
       id="link27_@2_22"
       x1="718.46606"
       y1="108.34119"
       x2="700.54718"
       y2="109.10718" /><line
       class="arc1"
       id="link22_@1_23"
       x1="700.54718"
       y1="109.10718"
       x2="668.47614"
       y2="78.660217" /><line
       class="arc1"
       id="link30_@1_31"
       x1="944.8736"
       y1="449.05774"
       x2="984.47803"
       y2="415.54663" /><line
       class="arc2"
       id="link30_@2_7"
       x1="944.8736"
       y1="449.05774"
       x2="936.85583"
       y2="464.72375" /><line
       class="arc2"
       id="link28_@2_29"
       x1="758.0705"
       y1="74.830078"
       x2="750.05273"
       y2="67.218323" /><line
       class="arc0"
       id="link28_@0_33"
       x1="758.0705"
       y1="74.830078"
       x2="944.8736"
       y2="136.35712" /><line
       class="arc1"
       id="link7_@1_6"
       x1="936.85583"
       y1="464.72375"
       x2="944.38916"
       y2="493.87683" /><line
       class="arc2"
       id="link23_@2_24"
       x1="668.47614"
       y1="78.660217"
       x2="678.37726"
       y2="70.28241" /><line
       class="arc0"
       id="link23_@0_18"
       x1="668.47614"
       y1="78.660217"
       x2="512.25549"
       y2="153.00931" /><polygon
       points="751.1469,246.72559 631.8088,220.75519 592.20435,207.71072 504.9372,165.6318 517.20605,143.00098 678.37726,70.28241 750.05273,67.21832 936.85583,128.74542 944.38916,157.8985 803.0202,237.13922 "
       id="face_34_39_44_49_54_59_14_19_24_29"
       style="fill:#c0c0c0;stroke:none"
       opacity="1" /><line
       class="arc1"
       id="link29_@1_24"
       x1="750.05273"
       y1="67.218323"
       x2="678.37726"
       y2="70.28241" /><line
       class="arc0"
       id="link29_@0_34"
       x1="750.05273"
       y1="67.218323"
       x2="936.85583"
       y2="128.74542" /><line
       class="arc0"
       id="link24_@0_19"
       x1="678.37726"
       y1="70.28241"
       x2="517.20605"
       y2="143.00098" /><line
       class="arc1"
       id="link2_@1_3"
       x1="517.20605"
       y1="478.97931"
       x2="504.93719"
       y2="501.61014" /><line
       class="arc2"
       id="link2_@2_15"
       x1="517.20605"
       y1="478.97931"
       x2="512.25549"
       y2="465.70987" /><line
       class="arc1"
       id="link15_@1_16"
       x1="512.25549"
       y1="465.70987"
       x2="480.18442"
       y2="435.26288" /><line
       class="arc2"
       id="link31_@2_36"
       x1="984.47803"
       y1="415.54663"
       x2="986.36133"
       y2="422.8349" /><line
       class="arc0"
       id="link31_@0_32"
       x1="984.47803"
       y1="415.54663"
       x2="984.47803"
       y2="195.95721" /><polygon
       points="775.89966,313.07285 775.89966,532.66223 807.9707,563.1092 954.2902,485.49902 986.3613,422.8349 986.3613,203.24548 954.2902,172.7985 807.9707,250.40866 "
       id="face_37_38_43_42_41_40_35_36"
       style="fill:#c0c0c0;stroke:none"
       opacity="1" /><line
       class="arc1"
       id="link36_@1_35"
       x1="986.36133"
       y1="422.8349"
       x2="954.29022"
       y2="485.49902" /><line
       class="arc0"
       id="link36_@0_37"
       x1="986.36133"
       y1="422.8349"
       x2="986.36133"
       y2="203.24548" /><line
       class="arc2"
       id="link6_@2_35"
       x1="944.38916"
       y1="493.87683"
       x2="954.29022"
       y2="485.49902" /><line
       class="arc0"
       id="link6_@0_5"
       x1="944.38916"
       y1="493.87683"
       x2="803.0202"
       y2="573.11755" /><line
       class="arc0"
       id="link35_@0_40"
       x1="954.29022"
       y1="485.49902"
       x2="807.9707"
       y2="563.10919" /><line
       class="arc2"
       id="link3_@2_10"
       x1="504.93719"
       y1="501.61014"
       x2="496.91949"
       y2="493.99838" /><line
       class="arc0"
       id="link3_@0_8"
       x1="504.93719"
       y1="501.61014"
       x2="592.20435"
       y2="543.68909" /><line
       class="arc2"
       id="link16_@2_11"
       x1="480.18442"
       y1="435.26288"
       x2="477.11725"
       y2="440.92056" /><line
       class="arc0"
       id="link16_@0_17"
       x1="480.18442"
       y1="435.26288"
       x2="480.18442"
       y2="215.67349" /><polygon
       points="587.2538,217.71902 496.9195,181.29782 477.11725,221.33118 477.11725,440.92056 496.9195,493.99838 587.2538,530.4196 607.05597,490.3863 607.05597,270.79688 "
       id="face_55_56_57_58_13_12_11_10"
       style="fill:#c0c0c0;stroke:none"
       opacity="1" /><line
       class="arc1"
       id="link10_@1_11"
       x1="496.91949"
       y1="493.99838"
       x2="477.11725"
       y2="440.92056" /><line
       class="arc0"
       id="link10_@0_55"
       x1="496.91949"
       y1="493.99838"
       x2="587.25378"
       y2="530.41962" /><line
       class="arc0"
       id="link11_@0_12"
       x1="477.11725"
       y1="440.92056"
       x2="477.11725"
       y2="221.33118" /><line
       class="arc1"
       id="link33_@1_32"
       x1="944.8736"
       y1="136.35712"
       x2="984.47803"
       y2="195.95721" /><line
       class="arc2"
       id="link33_@2_34"
       x1="944.8736"
       y1="136.35712"
       x2="936.85583"
       y2="128.74542" /><line
       class="arc2"
       id="link32_@2_37"
       x1="984.47803"
       y1="195.95721"
       x2="986.36133"
       y2="203.24548" /><line
       class="arc1"
       id="link34_@1_39"
       x1="936.85583"
       y1="128.74542"
       x2="944.38916"
       y2="157.8985" /><line
       class="arc1"
       id="link37_@1_38"
       x1="986.36133"
       y1="203.24548"
       x2="954.29022"
       y2="172.79849" /><line
       class="arc1"
       id="link18_@1_17"
       x1="512.25549"
       y1="153.00931"
       x2="480.18442"
       y2="215.67349" /><line
       class="arc2"
       id="link18_@2_19"
       x1="512.25549"
       y1="153.00931"
       x2="517.20605"
       y2="143.00098" /><line
       class="arc1"
       id="link8_@1_9"
       x1="592.20435"
       y1="543.68909"
       x2="631.80878"
       y2="556.73352" /><line
       class="arc2"
       id="link8_@2_55"
       x1="592.20435"
       y1="543.68909"
       x2="587.25378"
       y2="530.41962" /><line
       class="arc1"
       id="link55_@1_56"
       x1="587.25378"
       y1="530.41962"
       x2="607.05597"
       y2="490.38629" /><line
       class="arc1"
       id="link19_@1_14"
       x1="517.20605"
       y1="143.00098"
       x2="504.93719"
       y2="165.63181" /><line
       class="arc2"
       id="link17_@2_12"
       x1="480.18442"
       y1="215.67349"
       x2="477.11725"
       y2="221.33118" /><line
       class="arc1"
       id="link12_@1_13"
       x1="477.11725"
       y1="221.33118"
       x2="496.91949"
       y2="181.29782" /><line
       class="arc2"
       id="link9_@2_50"
       x1="631.80878"
       y1="556.73352"
       x2="636.75934"
       y2="546.72522" /><line
       class="arc0"
       id="link9_@0_4"
       x1="631.80878"
       y1="556.73352"
       x2="751.14691"
       y2="582.70392" /><line
       class="arc2"
       id="link39_@2_38"
       x1="944.38916"
       y1="157.8985"
       x2="954.29022"
       y2="172.79849" /><line
       class="arc0"
       id="link39_@0_44"
       x1="944.38916"
       y1="157.8985"
       x2="803.0202"
       y2="237.13922" /><polygon
       points="743.12915,262.39157 636.75934,234.02466 616.9571,274.05795 616.9571,493.6474 636.75934,546.7252 743.12915,575.09216 762.93134,535.05884 762.93134,315.46942 "
       id="face_45_46_47_48_53_52_51_50"
       style="fill:#c0c0c0;stroke:none"
       opacity="1" /><line
       class="arc1"
       id="link50_@1_51"
       x1="636.75934"
       y1="546.72522"
       x2="616.95709"
       y2="493.6474" /><line
       class="arc0"
       id="link50_@0_45"
       x1="636.75934"
       y1="546.72522"
       x2="743.12915"
       y2="575.09216" /><line
       class="arc2"
       id="link56_@2_51"
       x1="607.05597"
       y1="490.38629"
       x2="616.95709"
       y2="493.6474" /><line
       class="arc0"
       id="link56_@0_57"
       x1="607.05597"
       y1="490.38629"
       x2="607.05597"
       y2="270.79688" /><line
       class="arc0"
       id="link38_@0_43"
       x1="954.29022"
       y1="172.79849"
       x2="807.9707"
       y2="250.40866" /><line
       class="arc0"
       id="link51_@0_52"
       x1="616.95709"
       y1="493.6474"
       x2="616.95709"
       y2="274.05795" /><line
       class="arc2"
       id="link14_@2_13"
       x1="504.93719"
       y1="165.63181"
       x2="496.91949"
       y2="181.29782" /><line
       class="arc0"
       id="link14_@0_59"
       x1="504.93719"
       y1="165.63181"
       x2="592.20435"
       y2="207.71072" /><line
       class="arc0"
       id="link13_@0_58"
       x1="496.91949"
       y1="181.29782"
       x2="587.25378"
       y2="217.71902" /><line
       class="arc1"
       id="link5_@1_4"
       x1="803.0202"
       y1="573.11755"
       x2="751.14691"
       y2="582.70392" /><line
       class="arc2"
       id="link5_@2_40"
       x1="803.0202"
       y1="573.11755"
       x2="807.9707"
       y2="563.10919" /><line
       class="arc1"
       id="link40_@1_41"
       x1="807.9707"
       y1="563.10919"
       x2="775.89966"
       y2="532.66223" /><line
       class="arc2"
       id="link4_@2_45"
       x1="751.14691"
       y1="582.70392"
       x2="743.12915"
       y2="575.09216" /><line
       class="arc1"
       id="link45_@1_46"
       x1="743.12915"
       y1="575.09216"
       x2="762.93134"
       y2="535.05884" /><line
       class="arc2"
       id="link41_@2_46"
       x1="775.89966"
       y1="532.66223"
       x2="762.93134"
       y2="535.05884" /><line
       class="arc0"
       id="link41_@0_42"
       x1="775.89966"
       y1="532.66223"
       x2="775.89966"
       y2="313.07285" /><line
       class="arc1"
       id="link57_@1_58"
       x1="607.05597"
       y1="270.79688"
       x2="587.25378"
       y2="217.71902" /><line
       class="arc2"
       id="link57_@2_52"
       x1="607.05597"
       y1="270.79688"
       x2="616.95709"
       y2="274.05795" /><line
       class="arc0"
       id="link46_@0_47"
       x1="762.93134"
       y1="535.05884"
       x2="762.93134"
       y2="315.46942" /><line
       class="arc2"
       id="link58_@2_59"
       x1="587.25378"
       y1="217.71902"
       x2="592.20435"
       y2="207.71072" /><line
       class="arc1"
       id="link52_@1_53"
       x1="616.95709"
       y1="274.05795"
       x2="636.75934"
       y2="234.02466" /><line
       class="arc1"
       id="link59_@1_54"
       x1="592.20435"
       y1="207.71072"
       x2="631.80878"
       y2="220.75519" /><line
       class="arc2"
       id="link53_@2_54"
       x1="636.75934"
       y1="234.02466"
       x2="631.80878"
       y2="220.75519" /><line
       class="arc0"
       id="link53_@0_48"
       x1="636.75934"
       y1="234.02466"
       x2="743.12915"
       y2="262.39157" /><line
       class="arc0"
       id="link54_@0_49"
       x1="631.80878"
       y1="220.75519"
       x2="751.14691"
       y2="246.72559" /><line
       class="arc1"
       id="link43_@1_42"
       x1="807.9707"
       y1="250.40866"
       x2="775.89966"
       y2="313.07285" /><line
       class="arc2"
       id="link43_@2_44"
       x1="807.9707"
       y1="250.40866"
       x2="803.0202"
       y2="237.13922" /><line
       class="arc1"
       id="link44_@1_49"
       x1="803.0202"
       y1="237.13922"
       x2="751.14691"
       y2="246.72559" /><line
       class="arc2"
       id="link42_@2_47"
       x1="775.89966"
       y1="313.07285"
       x2="762.93134"
       y2="315.46942" /><line
       class="arc1"
       id="link47_@1_48"
       x1="762.93134"
       y1="315.46942"
       x2="743.12915"
       y2="262.39157" /><line
       class="arc2"
       id="link49_@2_48"
       x1="751.14691"
       y1="246.72559"
       x2="743.12915"
       y2="262.39157" /></g></svg>
