<?xml version="1.0" encoding="UTF-8" standalone="no"?>
<!-- Created with Jerboa -->

<svg
   width="441.93448"
   height="755.57379"
   version="1.1"
   id="svg993"
   sodipodi:docname="4-reevaluation-extrusion.svg"
   xml:space="preserve"
   inkscape:version="1.2.2 (b0a8486541, 2022-12-01)"
   xmlns:inkscape="http://www.inkscape.org/namespaces/inkscape"
   xmlns:sodipodi="http://sodipodi.sourceforge.net/DTD/sodipodi-0.dtd"
   xmlns="http://www.w3.org/2000/svg"
   xmlns:svg="http://www.w3.org/2000/svg"><defs
     id="defs997" /><sodipodi:namedview
     id="namedview995"
     pagecolor="#ffffff"
     bordercolor="#000000"
     borderopacity="0.25"
     inkscape:showpageshadow="2"
     inkscape:pageopacity="0.0"
     inkscape:pagecheckerboard="0"
     inkscape:deskcolor="#d1d1d1"
     showgrid="false"
     inkscape:zoom="0.43776371"
     inkscape:cx="71.956626"
     inkscape:cy="298.10602"
     inkscape:window-width="1908"
     inkscape:window-height="1048"
     inkscape:window-x="1085"
     inkscape:window-y="25"
     inkscape:window-maximized="1"
     inkscape:current-layer="svg993" /><style
     id="style">
		.arc0 {
			fill:none;
			fill-rule:evenodd;
			stroke:black;
			stroke-width:4;
			stroke-linecap:round;
			stroke-linejoin:round;
			stroke-opacity:1;
		}
		.arc1 {
			fill:none;
			fill-rule:evenodd;
			stroke:red;
			stroke-width:4;
			stroke-linecap:round;
			stroke-linejoin:round;
			stroke-opacity:1;
		}
		.arc2 {
			fill:none;
			fill-rule:evenodd;
			stroke:blue;
			stroke-width:4;
			stroke-linecap:round;
			stroke-linejoin:round;
			stroke-opacity:1;
		}
		.arc3 {
			fill:none;
			fill-rule:evenodd;
			stroke:green;
			stroke-width:4;
			stroke-linecap:round;
			stroke-linejoin:round;
			stroke-opacity:1;
		}
		.topological-dart {
			fill:#000000;
			stroke:#000000;
			stroke-width:0;
			stroke-linecap:round;
			stroke-linejoin:round;
			stroke-dasharray:none;
			paint-order:markers fill stroke;
		}
	</style><style
     id="style-3">
		.arc0 {
			fill:none;
			fill-rule:evenodd;
			stroke:black;
			stroke-width:4;
			stroke-linecap:round;
			stroke-linejoin:round;
			stroke-opacity:1;
		}
		.arc1 {
			fill:none;
			fill-rule:evenodd;
			stroke:red;
			stroke-width:4;
			stroke-linecap:round;
			stroke-linejoin:round;
			stroke-opacity:1;
		}
		.arc2 {
			fill:none;
			fill-rule:evenodd;
			stroke:blue;
			stroke-width:4;
			stroke-linecap:round;
			stroke-linejoin:round;
			stroke-opacity:1;
		}
		.arc3 {
			fill:none;
			fill-rule:evenodd;
			stroke:green;
			stroke-width:4;
			stroke-linecap:round;
			stroke-linejoin:round;
			stroke-opacity:1;
		}
		.topological-dart {
			fill:#000000;
			stroke:#000000;
			stroke-width:0;
			stroke-linecap:round;
			stroke-linejoin:round;
			stroke-dasharray:none;
			paint-order:markers fill stroke;
		}
	</style><style
     id="style-1">
		.arc0 {
			fill:none;
			fill-rule:evenodd;
			stroke:black;
			stroke-width:4;
			stroke-linecap:round;
			stroke-linejoin:round;
			stroke-opacity:1;
		}
		.arc1 {
			fill:none;
			fill-rule:evenodd;
			stroke:red;
			stroke-width:4;
			stroke-linecap:round;
			stroke-linejoin:round;
			stroke-opacity:1;
		}
		.arc2 {
			fill:none;
			fill-rule:evenodd;
			stroke:blue;
			stroke-width:4;
			stroke-linecap:round;
			stroke-linejoin:round;
			stroke-opacity:1;
		}
		.arc3 {
			fill:none;
			fill-rule:evenodd;
			stroke:green;
			stroke-width:4;
			stroke-linecap:round;
			stroke-linejoin:round;
			stroke-opacity:1;
		}
		.topological-dart {
			fill:#000000;
			stroke:#000000;
			stroke-width:0;
			stroke-linecap:round;
			stroke-linejoin:round;
			stroke-dasharray:none;
			paint-order:markers fill stroke;
		}
	</style><style
     id="style-7">
		.arc0 {
			fill:none;
			fill-rule:evenodd;
			stroke:black;
			stroke-width:4;
			stroke-linecap:round;
			stroke-linejoin:round;
			stroke-opacity:1;
		}
		.arc1 {
			fill:none;
			fill-rule:evenodd;
			stroke:red;
			stroke-width:4;
			stroke-linecap:round;
			stroke-linejoin:round;
			stroke-opacity:1;
		}
		.arc2 {
			fill:none;
			fill-rule:evenodd;
			stroke:blue;
			stroke-width:4;
			stroke-linecap:round;
			stroke-linejoin:round;
			stroke-opacity:1;
		}
		.arc3 {
			fill:none;
			fill-rule:evenodd;
			stroke:green;
			stroke-width:4;
			stroke-linecap:round;
			stroke-linejoin:round;
			stroke-opacity:1;
		}
		.topological-dart {
			fill:#000000;
			stroke:#000000;
			stroke-width:0;
			stroke-linecap:round;
			stroke-linejoin:round;
			stroke-dasharray:none;
			paint-order:markers fill stroke;
		}
	</style><style
     id="style-0">
		.arc0 {
			fill:none;
			fill-rule:evenodd;
			stroke:black;
			stroke-width:4;
			stroke-linecap:round;
			stroke-linejoin:round;
			stroke-opacity:1;
		}
		.arc1 {
			fill:none;
			fill-rule:evenodd;
			stroke:red;
			stroke-width:4;
			stroke-linecap:round;
			stroke-linejoin:round;
			stroke-opacity:1;
		}
		.arc2 {
			fill:none;
			fill-rule:evenodd;
			stroke:blue;
			stroke-width:4;
			stroke-linecap:round;
			stroke-linejoin:round;
			stroke-opacity:1;
		}
		.arc3 {
			fill:none;
			fill-rule:evenodd;
			stroke:green;
			stroke-width:4;
			stroke-linecap:round;
			stroke-linejoin:round;
			stroke-opacity:1;
		}
		.topological-dart {
			fill:#000000;
			stroke:#000000;
			stroke-width:0;
			stroke-linecap:round;
			stroke-linejoin:round;
			stroke-dasharray:none;
			paint-order:markers fill stroke;
		}
	</style><g
     id="g4839"
     transform="matrix(1.2360105,0,0,1.2360105,-675.63296,-26.717486)"><polygon
       points="743.6794,495.41486 716.1835,454.03677 716.1835,301.584 743.6794,278.3185 873.3697,321.0345 900.8656,362.41257 900.8656,514.86536 873.3697,538.13086 "
       id="face_27_28_33_32_31_30_25_26"
       style="fill:#c0c0c0;stroke:none"
       opacity="1" /><line
       class="arc1"
       id="link26_@1_25"
       x1="716.18347"
       y1="454.03677"
       x2="743.67938"
       y2="495.41486" /><line
       class="arc2"
       id="link26_@2_21"
       x1="716.18347"
       y1="454.03677"
       x2="703.74304"
       y2="454.5686" /><line
       class="arc0"
       id="link26_@0_27"
       x1="716.18347"
       y1="454.03677"
       x2="716.18347"
       y2="301.58401" /><polygon
       points="681.47736,498.07397 703.74304,454.5686 703.74304,302.11588 681.47736,280.97766 573.0191,332.59543 550.7534,376.10083 550.7534,528.5536 573.0191,549.6918 "
       id="face_22_23_18_17_16_15_20_21"
       style="fill:#c0c0c0;stroke:none"
       opacity="1" /><line
       class="arc1"
       id="link21_@1_20"
       x1="703.74304"
       y1="454.5686"
       x2="681.47736"
       y2="498.07397" /><line
       class="arc0"
       id="link21_@0_22"
       x1="703.74304"
       y1="454.5686"
       x2="703.74304"
       y2="302.11588" /><line
       class="arc2"
       id="link25_@2_0"
       x1="743.67938"
       y1="495.41486"
       x2="738.11292"
       y2="506.2912" /><line
       class="arc0"
       id="link25_@0_30"
       x1="743.67938"
       y1="495.41486"
       x2="873.36969"
       y2="538.13086" /><polygon
       points="567.9383,574.616 576.4561,558.9043 688.35126,508.41852 738.1129,506.2912 867.8033,549.0072 873.03345,569.2471 774.88617,624.261 738.8725,630.9164 656.0205,612.88617 628.52466,603.82983 "
       id="face_7_6_5_4_9_8_3_2_1_0"
       style="fill:#c0c0c0;stroke:none"
       opacity="1" /><line
       class="arc1"
       id="link0_@1_1"
       x1="738.11292"
       y1="506.2912"
       x2="688.35126"
       y2="508.41852" /><line
       class="arc0"
       id="link0_@0_7"
       x1="738.11292"
       y1="506.2912"
       x2="867.80328"
       y2="549.0072" /><line
       class="arc2"
       id="link20_@2_1"
       x1="681.47736"
       y1="498.07397"
       x2="688.35126"
       y2="508.41852" /><line
       class="arc0"
       id="link20_@0_15"
       x1="681.47736"
       y1="498.07397"
       x2="573.0191"
       y2="549.69177" /><line
       class="arc0"
       id="link1_@0_2"
       x1="688.35126"
       y1="508.41852"
       x2="576.45612"
       y2="558.9043" /><line
       class="arc1"
       id="link27_@1_28"
       x1="716.18347"
       y1="301.58401"
       x2="743.67938"
       y2="278.31851" /><line
       class="arc2"
       id="link27_@2_22"
       x1="716.18347"
       y1="301.58401"
       x2="703.74304"
       y2="302.11588" /><line
       class="arc1"
       id="link22_@1_23"
       x1="703.74304"
       y1="302.11588"
       x2="681.47736"
       y2="280.97766" /><line
       class="arc1"
       id="link30_@1_31"
       x1="873.36969"
       y1="538.13086"
       x2="900.8656"
       y2="514.86536" /><line
       class="arc2"
       id="link30_@2_7"
       x1="873.36969"
       y1="538.13086"
       x2="867.80328"
       y2="549.0072" /><line
       class="arc2"
       id="link28_@2_29"
       x1="743.67938"
       y1="278.31851"
       x2="738.11292"
       y2="273.034" /><line
       class="arc0"
       id="link28_@0_33"
       x1="743.67938"
       y1="278.31851"
       x2="873.36969"
       y2="321.03448" /><line
       class="arc1"
       id="link7_@1_6"
       x1="867.80328"
       y1="549.0072"
       x2="873.03345"
       y2="569.24707" /><line
       class="arc2"
       id="link23_@2_24"
       x1="681.47736"
       y1="280.97766"
       x2="688.35126"
       y2="275.16132" /><line
       class="arc0"
       id="link23_@0_18"
       x1="681.47736"
       y1="280.97766"
       x2="573.0191"
       y2="332.59543" /><polygon
       points="743.6794,245.99677 716.1835,204.61862 716.1835,52.165955 743.6794,28.900452 873.3697,71.616394 900.8656,112.99451 900.8656,265.4472 873.3697,288.71274 "
       id="face_105_106_112_111_110_109_103_104"
       style="fill:#c0c0c0;stroke:none"
       opacity="1" /><line
       class="arc1"
       id="link104_@1_103"
       x1="716.18347"
       y1="204.61862"
       x2="743.67938"
       y2="245.99677" /><line
       class="arc2"
       id="link104_@2_98"
       x1="716.18347"
       y1="204.61862"
       x2="703.74304"
       y2="205.15048" /><line
       class="arc0"
       id="link104_@0_105"
       x1="716.18347"
       y1="204.61862"
       x2="716.18347"
       y2="52.165955" /><polygon
       points="567.9383,341.35876 576.4561,325.64706 688.35126,275.16132 738.1129,273.034 867.8033,315.74997 873.03345,335.98984 774.88617,391.00372 738.8725,397.65918 656.0205,379.6289 628.52466,370.5726 "
       id="face_34_39_44_49_54_59_14_19_24_29"
       style="fill:#c0c0c0;stroke:none"
       opacity="1" /><line
       class="arc1"
       id="link29_@1_24"
       x1="738.11292"
       y1="273.034"
       x2="688.35126"
       y2="275.16132" /><line
       class="arc3"
       id="link29_@3_102"
       x1="738.11292"
       y1="273.034"
       x2="738.11292"
       y2="256.87314" /><line
       class="arc0"
       id="link29_@0_34"
       x1="738.11292"
       y1="273.034"
       x2="867.80328"
       y2="315.74997" /><polygon
       points="681.47736,248.65591 703.74304,205.15048 703.74304,52.697754 681.47736,31.55957 573.0191,83.17731 550.7534,126.68274 550.7534,279.13544 573.0191,300.2737 "
       id="face_99_100_94_93_92_91_97_98"
       style="fill:#c0c0c0;stroke:none"
       opacity="1" /><line
       class="arc1"
       id="link98_@1_97"
       x1="703.74304"
       y1="205.15048"
       x2="681.47736"
       y2="248.65591" /><line
       class="arc0"
       id="link98_@0_99"
       x1="703.74304"
       y1="205.15048"
       x2="703.74304"
       y2="52.697754" /><line
       class="arc2"
       id="link103_@2_102"
       x1="743.67938"
       y1="245.99677"
       x2="738.11292"
       y2="256.87314" /><line
       class="arc0"
       id="link103_@0_109"
       x1="743.67938"
       y1="245.99677"
       x2="873.36969"
       y2="288.71274" /><line
       class="arc3"
       id="link24_@3_96"
       x1="688.35126"
       y1="275.16132"
       x2="688.35126"
       y2="259.00043" /><line
       class="arc0"
       id="link24_@0_19"
       x1="688.35126"
       y1="275.16132"
       x2="576.45612"
       y2="325.64706" /><polygon
       points="567.9383,325.19794 576.4561,309.4862 688.35126,259.00043 738.1129,256.87314 867.8033,299.58908 873.03345,319.82898 774.88617,374.84286 738.8725,381.49835 656.0205,363.46805 628.52466,354.41177 "
       id="face_108_114_60_66_72_78_84_90_96_102"
       style="fill:#c0c0c0;stroke:none"
       opacity="1" /><line
       class="arc1"
       id="link102_@1_96"
       x1="738.11292"
       y1="256.87314"
       x2="688.35126"
       y2="259.00043" /><line
       class="arc0"
       id="link102_@0_108"
       x1="738.11292"
       y1="256.87314"
       x2="867.80328"
       y2="299.58908" /><line
       class="arc2"
       id="link97_@2_96"
       x1="681.47736"
       y1="248.65591"
       x2="688.35126"
       y2="259.00043" /><line
       class="arc0"
       id="link97_@0_91"
       x1="681.47736"
       y1="248.65591"
       x2="573.0191"
       y2="300.27371" /><line
       class="arc0"
       id="link96_@0_90"
       x1="688.35126"
       y1="259.00043"
       x2="576.45612"
       y2="309.48621" /><line
       class="arc1"
       id="link2_@1_3"
       x1="576.45612"
       y1="558.9043"
       x2="567.93829"
       y2="574.61603" /><line
       class="arc2"
       id="link2_@2_15"
       x1="576.45612"
       y1="558.9043"
       x2="573.0191"
       y2="549.69177" /><line
       class="arc1"
       id="link15_@1_16"
       x1="573.0191"
       y1="549.69177"
       x2="550.75342"
       y2="528.55359" /><line
       class="arc2"
       id="link31_@2_36"
       x1="900.8656"
       y1="514.86536"
       x2="902.1731"
       y2="519.92529" /><line
       class="arc0"
       id="link31_@0_32"
       x1="900.8656"
       y1="514.86536"
       x2="900.8656"
       y2="362.41257" /><polygon
       points="879.9074,563.43066 902.1731,519.9253 902.1731,367.47253 879.9074,346.33432 778.3232,400.2162 756.05743,443.7216 756.05743,596.1743 778.3232,617.31256 "
       id="face_37_38_43_42_41_40_35_36"
       style="fill:#c0c0c0;stroke:none"
       opacity="1" /><line
       class="arc1"
       id="link36_@1_35"
       x1="902.1731"
       y1="519.92529"
       x2="879.90741"
       y2="563.43066" /><line
       class="arc0"
       id="link36_@0_37"
       x1="902.1731"
       y1="519.92529"
       x2="902.1731"
       y2="367.47253" /><line
       class="arc2"
       id="link6_@2_35"
       x1="873.03345"
       y1="569.24707"
       x2="879.90741"
       y2="563.43066" /><line
       class="arc0"
       id="link6_@0_5"
       x1="873.03345"
       y1="569.24707"
       x2="774.88617"
       y2="624.26099" /><line
       class="arc0"
       id="link35_@0_40"
       x1="879.90741"
       y1="563.43066"
       x2="778.32318"
       y2="617.31256" /><line
       class="arc2"
       id="link3_@2_10"
       x1="567.93829"
       y1="574.61603"
       x2="562.37195"
       y2="569.33142" /><line
       class="arc0"
       id="link3_@0_8"
       x1="567.93829"
       y1="574.61603"
       x2="628.52466"
       y2="603.82983" /><line
       class="arc2"
       id="link16_@2_11"
       x1="550.75342"
       y1="528.55359"
       x2="548.62396"
       y2="532.48145" /><line
       class="arc0"
       id="link16_@0_17"
       x1="550.75342"
       y1="528.55359"
       x2="550.75342"
       y2="376.10083" /><polygon
       points="548.62396,532.48145 562.37195,569.3314 625.08765,594.6174 638.8356,566.82367 638.8356,414.37094 625.08765,377.521 562.37195,352.23508 548.62396,380.02875 "
       id="face_55_56_57_58_13_12_11_10"
       style="fill:#c0c0c0;stroke:none"
       opacity="1" /><line
       class="arc1"
       id="link10_@1_11"
       x1="562.37195"
       y1="569.33142"
       x2="548.62396"
       y2="532.48145" /><line
       class="arc0"
       id="link10_@0_55"
       x1="562.37195"
       y1="569.33142"
       x2="625.08765"
       y2="594.61737" /><line
       class="arc0"
       id="link11_@0_12"
       x1="548.62396"
       y1="532.48145"
       x2="548.62396"
       y2="380.02875" /><line
       class="arc1"
       id="link105_@1_106"
       x1="716.18347"
       y1="52.165955"
       x2="743.67938"
       y2="28.900452" /><line
       class="arc2"
       id="link105_@2_99"
       x1="716.18347"
       y1="52.165955"
       x2="703.74304"
       y2="52.697754" /><line
       class="arc1"
       id="link99_@1_100"
       x1="703.74304"
       y1="52.697754"
       x2="681.47736"
       y2="31.55957" /><line
       class="arc1"
       id="link33_@1_32"
       x1="873.36969"
       y1="321.03448"
       x2="900.8656"
       y2="362.41257" /><line
       class="arc2"
       id="link33_@2_34"
       x1="873.36969"
       y1="321.03448"
       x2="867.80328"
       y2="315.74997" /><line
       class="arc2"
       id="link32_@2_37"
       x1="900.8656"
       y1="362.41257"
       x2="902.1731"
       y2="367.47253" /><line
       class="arc1"
       id="link34_@1_39"
       x1="867.80328"
       y1="315.74997"
       x2="873.03345"
       y2="335.98984" /><line
       class="arc3"
       id="link34_@3_108"
       x1="867.80328"
       y1="315.74997"
       x2="867.80328"
       y2="299.58908" /><line
       class="arc1"
       id="link109_@1_110"
       x1="873.36969"
       y1="288.71274"
       x2="900.8656"
       y2="265.4472" /><line
       class="arc2"
       id="link109_@2_108"
       x1="873.36969"
       y1="288.71274"
       x2="867.80328"
       y2="299.58908" /><line
       class="arc2"
       id="link106_@2_107"
       x1="743.67938"
       y1="28.900452"
       x2="738.11292"
       y2="23.615906" /><line
       class="arc0"
       id="link106_@0_112"
       x1="743.67938"
       y1="28.900452"
       x2="873.36969"
       y2="71.616394" /><line
       class="arc1"
       id="link108_@1_114"
       x1="867.80328"
       y1="299.58908"
       x2="873.03345"
       y2="319.82898" /><line
       class="arc1"
       id="link37_@1_38"
       x1="902.1731"
       y1="367.47253"
       x2="879.90741"
       y2="346.33432" /><line
       class="arc2"
       id="link100_@2_101"
       x1="681.47736"
       y1="31.55957"
       x2="688.35126"
       y2="25.743225" /><line
       class="arc0"
       id="link100_@0_94"
       x1="681.47736"
       y1="31.55957"
       x2="573.0191"
       y2="83.177307" /><polygon
       points="567.9383,91.940674 576.4561,76.22894 688.35126,25.743225 738.1129,23.615906 867.8033,66.33185 873.03345,86.57178 774.88617,141.5857 738.8725,148.24109 656.0205,130.21088 628.52466,121.15454 "
       id="face_113_119_65_71_77_83_89_95_101_107"
       style="fill:#c0c0c0;stroke:none"
       opacity="1" /><line
       class="arc1"
       id="link107_@1_101"
       x1="738.11292"
       y1="23.615906"
       x2="688.35126"
       y2="25.743225" /><line
       class="arc0"
       id="link107_@0_113"
       x1="738.11292"
       y1="23.615906"
       x2="867.80328"
       y2="66.331848" /><line
       class="arc1"
       id="link18_@1_17"
       x1="573.0191"
       y1="332.59543"
       x2="550.75342"
       y2="376.10083" /><line
       class="arc2"
       id="link18_@2_19"
       x1="573.0191"
       y1="332.59543"
       x2="576.45612"
       y2="325.64706" /><line
       class="arc1"
       id="link8_@1_9"
       x1="628.52466"
       y1="603.82983"
       x2="656.02051"
       y2="612.88617" /><line
       class="arc2"
       id="link8_@2_55"
       x1="628.52466"
       y1="603.82983"
       x2="625.08765"
       y2="594.61737" /><line
       class="arc1"
       id="link55_@1_56"
       x1="625.08765"
       y1="594.61737"
       x2="638.83557"
       y2="566.82367" /><line
       class="arc0"
       id="link101_@0_95"
       x1="688.35126"
       y1="25.743225"
       x2="576.45612"
       y2="76.228943" /><line
       class="arc1"
       id="link19_@1_14"
       x1="576.45612"
       y1="325.64706"
       x2="567.93829"
       y2="341.35876" /><line
       class="arc3"
       id="link19_@3_90"
       x1="576.45612"
       y1="325.64706"
       x2="576.45612"
       y2="309.48621" /><line
       class="arc2"
       id="link17_@2_12"
       x1="550.75342"
       y1="376.10083"
       x2="548.62396"
       y2="380.02875" /><line
       class="arc1"
       id="link90_@1_84"
       x1="576.45612"
       y1="309.48621"
       x2="567.93829"
       y2="325.19794" /><line
       class="arc2"
       id="link90_@2_91"
       x1="576.45612"
       y1="309.48621"
       x2="573.0191"
       y2="300.27371" /><line
       class="arc1"
       id="link91_@1_92"
       x1="573.0191"
       y1="300.27371"
       x2="550.75342"
       y2="279.13544" /><line
       class="arc1"
       id="link12_@1_13"
       x1="548.62396"
       y1="380.02875"
       x2="562.37195"
       y2="352.23508" /><line
       class="arc2"
       id="link110_@2_116"
       x1="900.8656"
       y1="265.4472"
       x2="902.1731"
       y2="270.50717" /><line
       class="arc0"
       id="link110_@0_111"
       x1="900.8656"
       y1="265.4472"
       x2="900.8656"
       y2="112.99451" /><line
       class="arc2"
       id="link9_@2_50"
       x1="656.02051"
       y1="612.88617"
       x2="659.45752"
       y2="605.93774" /><line
       class="arc0"
       id="link9_@0_4"
       x1="656.02051"
       y1="612.88617"
       x2="738.8725"
       y2="630.91638" /><line
       class="arc2"
       id="link39_@2_38"
       x1="873.03345"
       y1="335.98984"
       x2="879.90741"
       y2="346.33432" /><line
       class="arc3"
       id="link39_@3_114"
       x1="873.03345"
       y1="335.98984"
       x2="873.03345"
       y2="319.82898" /><line
       class="arc0"
       id="link39_@0_44"
       x1="873.03345"
       y1="335.98984"
       x2="774.88617"
       y2="391.00372" /><polygon
       points="645.7096,569.08777 659.4575,605.93774 733.30615,625.63184 747.0541,597.8382 747.0541,445.38544 733.30615,408.5355 659.4575,388.84137 645.7096,416.635 "
       id="face_45_46_47_48_53_52_51_50"
       style="fill:#c0c0c0;stroke:none"
       opacity="1" /><line
       class="arc1"
       id="link50_@1_51"
       x1="659.45752"
       y1="605.93774"
       x2="645.70959"
       y2="569.08777" /><line
       class="arc0"
       id="link50_@0_45"
       x1="659.45752"
       y1="605.93774"
       x2="733.30615"
       y2="625.63184" /><line
       class="arc2"
       id="link56_@2_51"
       x1="638.83557"
       y1="566.82367"
       x2="645.70959"
       y2="569.08777" /><line
       class="arc0"
       id="link56_@0_57"
       x1="638.83557"
       y1="566.82367"
       x2="638.83557"
       y2="414.37094" /><line
       class="arc0"
       id="link38_@0_43"
       x1="879.90741"
       y1="346.33432"
       x2="778.32318"
       y2="400.21619" /><line
       class="arc0"
       id="link51_@0_52"
       x1="645.70959"
       y1="569.08777"
       x2="645.70959"
       y2="416.63501" /><polygon
       points="879.9074,314.01257 902.1731,270.50717 902.1731,118.05444 879.9074,96.91626 778.3232,150.7981 756.05743,194.30347 756.05743,346.7562 778.3232,367.89444 "
       id="face_117_118_64_63_62_61_115_116"
       style="fill:#c0c0c0;stroke:none"
       opacity="1" /><line
       class="arc1"
       id="link116_@1_115"
       x1="902.1731"
       y1="270.50717"
       x2="879.90741"
       y2="314.01257" /><line
       class="arc0"
       id="link116_@0_117"
       x1="902.1731"
       y1="270.50717"
       x2="902.1731"
       y2="118.05444" /><line
       class="arc2"
       id="link114_@2_115"
       x1="873.03345"
       y1="319.82898"
       x2="879.90741"
       y2="314.01257" /><line
       class="arc0"
       id="link114_@0_60"
       x1="873.03345"
       y1="319.82898"
       x2="774.88617"
       y2="374.84286" /><line
       class="arc2"
       id="link14_@2_13"
       x1="567.93829"
       y1="341.35876"
       x2="562.37195"
       y2="352.23508" /><line
       class="arc3"
       id="link14_@3_84"
       x1="567.93829"
       y1="341.35876"
       x2="567.93829"
       y2="325.19794" /><line
       class="arc0"
       id="link14_@0_59"
       x1="567.93829"
       y1="341.35876"
       x2="628.52466"
       y2="370.5726" /><line
       class="arc0"
       id="link13_@0_58"
       x1="562.37195"
       y1="352.23508"
       x2="625.08765"
       y2="377.521" /><line
       class="arc0"
       id="link115_@0_61"
       x1="879.90741"
       y1="314.01257"
       x2="778.32318"
       y2="367.89444" /><line
       class="arc1"
       id="link5_@1_4"
       x1="774.88617"
       y1="624.26099"
       x2="738.8725"
       y2="630.91638" /><line
       class="arc2"
       id="link5_@2_40"
       x1="774.88617"
       y1="624.26099"
       x2="778.32318"
       y2="617.31256" /><line
       class="arc2"
       id="link84_@2_85"
       x1="567.93829"
       y1="325.19794"
       x2="562.37195"
       y2="319.91333" /><line
       class="arc0"
       id="link84_@0_78"
       x1="567.93829"
       y1="325.19794"
       x2="628.52466"
       y2="354.41177" /><line
       class="arc2"
       id="link92_@2_86"
       x1="550.75342"
       y1="279.13544"
       x2="548.62396"
       y2="283.06335" /><line
       class="arc0"
       id="link92_@0_93"
       x1="550.75342"
       y1="279.13544"
       x2="550.75342"
       y2="126.68274" /><line
       class="arc1"
       id="link40_@1_41"
       x1="778.32318"
       y1="617.31256"
       x2="756.05743"
       y2="596.17432" /><polygon
       points="548.62396,283.06335 562.37195,319.91333 625.08765,345.19925 638.8356,317.40555 638.8356,164.95285 625.08765,128.1029 562.37195,102.81702 548.62396,130.61066 "
       id="face_79_80_81_82_88_87_86_85"
       style="fill:#c0c0c0;stroke:none"
       opacity="1" /><line
       class="arc1"
       id="link85_@1_86"
       x1="562.37195"
       y1="319.91333"
       x2="548.62396"
       y2="283.06335" /><line
       class="arc0"
       id="link85_@0_79"
       x1="562.37195"
       y1="319.91333"
       x2="625.08765"
       y2="345.19925" /><line
       class="arc0"
       id="link86_@0_87"
       x1="548.62396"
       y1="283.06335"
       x2="548.62396"
       y2="130.61066" /><line
       class="arc2"
       id="link4_@2_45"
       x1="738.8725"
       y1="630.91638"
       x2="733.30615"
       y2="625.63184" /><line
       class="arc1"
       id="link45_@1_46"
       x1="733.30615"
       y1="625.63184"
       x2="747.05408"
       y2="597.8382" /><line
       class="arc1"
       id="link112_@1_111"
       x1="873.36969"
       y1="71.616394"
       x2="900.8656"
       y2="112.99451" /><line
       class="arc2"
       id="link112_@2_113"
       x1="873.36969"
       y1="71.616394"
       x2="867.80328"
       y2="66.331848" /><line
       class="arc2"
       id="link111_@2_117"
       x1="900.8656"
       y1="112.99451"
       x2="902.1731"
       y2="118.05444" /><line
       class="arc2"
       id="link41_@2_46"
       x1="756.05743"
       y1="596.17432"
       x2="747.05408"
       y2="597.8382" /><line
       class="arc0"
       id="link41_@0_42"
       x1="756.05743"
       y1="596.17432"
       x2="756.05743"
       y2="443.72159" /><line
       class="arc1"
       id="link113_@1_119"
       x1="867.80328"
       y1="66.331848"
       x2="873.03345"
       y2="86.571777" /><line
       class="arc1"
       id="link57_@1_58"
       x1="638.83557"
       y1="414.37094"
       x2="625.08765"
       y2="377.521" /><line
       class="arc2"
       id="link57_@2_52"
       x1="638.83557"
       y1="414.37094"
       x2="645.70959"
       y2="416.63501" /><line
       class="arc0"
       id="link46_@0_47"
       x1="747.05408"
       y1="597.8382"
       x2="747.05408"
       y2="445.38544" /><line
       class="arc2"
       id="link58_@2_59"
       x1="625.08765"
       y1="377.521"
       x2="628.52466"
       y2="370.5726" /><line
       class="arc1"
       id="link52_@1_53"
       x1="645.70959"
       y1="416.63501"
       x2="659.45752"
       y2="388.84137" /><line
       class="arc1"
       id="link117_@1_118"
       x1="902.1731"
       y1="118.05444"
       x2="879.90741"
       y2="96.91626" /><line
       class="arc1"
       id="link59_@1_54"
       x1="628.52466"
       y1="370.5726"
       x2="656.02051"
       y2="379.62891" /><line
       class="arc3"
       id="link59_@3_78"
       x1="628.52466"
       y1="370.5726"
       x2="628.52466"
       y2="354.41177" /><line
       class="arc1"
       id="link94_@1_93"
       x1="573.0191"
       y1="83.177307"
       x2="550.75342"
       y2="126.68274" /><line
       class="arc2"
       id="link94_@2_95"
       x1="573.0191"
       y1="83.177307"
       x2="576.45612"
       y2="76.228943" /><line
       class="arc1"
       id="link78_@1_72"
       x1="628.52466"
       y1="354.41177"
       x2="656.02051"
       y2="363.46805" /><line
       class="arc2"
       id="link78_@2_79"
       x1="628.52466"
       y1="354.41177"
       x2="625.08765"
       y2="345.19925" /><line
       class="arc1"
       id="link79_@1_80"
       x1="625.08765"
       y1="345.19925"
       x2="638.83557"
       y2="317.40555" /><line
       class="arc1"
       id="link95_@1_89"
       x1="576.45612"
       y1="76.228943"
       x2="567.93829"
       y2="91.940674" /><line
       class="arc2"
       id="link93_@2_87"
       x1="550.75342"
       y1="126.68274"
       x2="548.62396"
       y2="130.61066" /><line
       class="arc2"
       id="link53_@2_54"
       x1="659.45752"
       y1="388.84137"
       x2="656.02051"
       y2="379.62891" /><line
       class="arc0"
       id="link53_@0_48"
       x1="659.45752"
       y1="388.84137"
       x2="733.30615"
       y2="408.53549" /><line
       class="arc3"
       id="link54_@3_72"
       x1="656.02051"
       y1="379.62891"
       x2="656.02051"
       y2="363.46805" /><line
       class="arc0"
       id="link54_@0_49"
       x1="656.02051"
       y1="379.62891"
       x2="738.8725"
       y2="397.65918" /><line
       class="arc1"
       id="link87_@1_88"
       x1="548.62396"
       y1="130.61066"
       x2="562.37195"
       y2="102.81702" /><line
       class="arc2"
       id="link72_@2_73"
       x1="656.02051"
       y1="363.46805"
       x2="659.45752"
       y2="356.51962" /><line
       class="arc0"
       id="link72_@0_66"
       x1="656.02051"
       y1="363.46805"
       x2="738.8725"
       y2="381.49835" /><line
       class="arc2"
       id="link80_@2_74"
       x1="638.83557"
       y1="317.40555"
       x2="645.70959"
       y2="319.66965" /><line
       class="arc0"
       id="link80_@0_81"
       x1="638.83557"
       y1="317.40555"
       x2="638.83557"
       y2="164.95285" /><line
       class="arc2"
       id="link119_@2_118"
       x1="873.03345"
       y1="86.571777"
       x2="879.90741"
       y2="96.91626" /><line
       class="arc0"
       id="link119_@0_65"
       x1="873.03345"
       y1="86.571777"
       x2="774.88617"
       y2="141.58569" /><polygon
       points="645.7096,319.66965 659.4575,356.51962 733.30615,376.21375 747.0541,348.42004 747.0541,195.96735 733.30615,159.11737 659.4575,139.42328 645.7096,167.21692 "
       id="face_67_68_69_70_76_75_74_73"
       style="fill:#c0c0c0;stroke:none"
       opacity="1" /><line
       class="arc1"
       id="link73_@1_74"
       x1="659.45752"
       y1="356.51962"
       x2="645.70959"
       y2="319.66965" /><line
       class="arc0"
       id="link73_@0_67"
       x1="659.45752"
       y1="356.51962"
       x2="733.30615"
       y2="376.21375" /><line
       class="arc0"
       id="link118_@0_64"
       x1="879.90741"
       y1="96.91626"
       x2="778.32318"
       y2="150.7981" /><line
       class="arc0"
       id="link74_@0_75"
       x1="645.70959"
       y1="319.66965"
       x2="645.70959"
       y2="167.21692" /><line
       class="arc1"
       id="link43_@1_42"
       x1="778.32318"
       y1="400.21619"
       x2="756.05743"
       y2="443.72159" /><line
       class="arc2"
       id="link43_@2_44"
       x1="778.32318"
       y1="400.21619"
       x2="774.88617"
       y2="391.00372" /><line
       class="arc1"
       id="link44_@1_49"
       x1="774.88617"
       y1="391.00372"
       x2="738.8725"
       y2="397.65918" /><line
       class="arc3"
       id="link44_@3_60"
       x1="774.88617"
       y1="391.00372"
       x2="774.88617"
       y2="374.84286" /><line
       class="arc2"
       id="link89_@2_88"
       x1="567.93829"
       y1="91.940674"
       x2="562.37195"
       y2="102.81702" /><line
       class="arc0"
       id="link89_@0_83"
       x1="567.93829"
       y1="91.940674"
       x2="628.52466"
       y2="121.15454" /><line
       class="arc0"
       id="link88_@0_82"
       x1="562.37195"
       y1="102.81702"
       x2="625.08765"
       y2="128.10291" /><line
       class="arc1"
       id="link60_@1_66"
       x1="774.88617"
       y1="374.84286"
       x2="738.8725"
       y2="381.49835" /><line
       class="arc2"
       id="link60_@2_61"
       x1="774.88617"
       y1="374.84286"
       x2="778.32318"
       y2="367.89444" /><line
       class="arc2"
       id="link42_@2_47"
       x1="756.05743"
       y1="443.72159"
       x2="747.05408"
       y2="445.38544" /><line
       class="arc1"
       id="link47_@1_48"
       x1="747.05408"
       y1="445.38544"
       x2="733.30615"
       y2="408.53549" /><line
       class="arc1"
       id="link61_@1_62"
       x1="778.32318"
       y1="367.89444"
       x2="756.05743"
       y2="346.7562" /><line
       class="arc2"
       id="link49_@2_48"
       x1="738.8725"
       y1="397.65918"
       x2="733.30615"
       y2="408.53549" /><line
       class="arc3"
       id="link49_@3_66"
       x1="738.8725"
       y1="397.65918"
       x2="738.8725"
       y2="381.49835" /><line
       class="arc2"
       id="link66_@2_67"
       x1="738.8725"
       y1="381.49835"
       x2="733.30615"
       y2="376.21375" /><line
       class="arc1"
       id="link67_@1_68"
       x1="733.30615"
       y1="376.21375"
       x2="747.05408"
       y2="348.42004" /><line
       class="arc2"
       id="link62_@2_68"
       x1="756.05743"
       y1="346.7562"
       x2="747.05408"
       y2="348.42004" /><line
       class="arc0"
       id="link62_@0_63"
       x1="756.05743"
       y1="346.7562"
       x2="756.05743"
       y2="194.30347" /><line
       class="arc1"
       id="link81_@1_82"
       x1="638.83557"
       y1="164.95285"
       x2="625.08765"
       y2="128.10291" /><line
       class="arc2"
       id="link81_@2_75"
       x1="638.83557"
       y1="164.95285"
       x2="645.70959"
       y2="167.21692" /><line
       class="arc0"
       id="link68_@0_69"
       x1="747.05408"
       y1="348.42004"
       x2="747.05408"
       y2="195.96735" /><line
       class="arc2"
       id="link82_@2_83"
       x1="625.08765"
       y1="128.10291"
       x2="628.52466"
       y2="121.15454" /><line
       class="arc1"
       id="link75_@1_76"
       x1="645.70959"
       y1="167.21692"
       x2="659.45752"
       y2="139.42328" /><line
       class="arc1"
       id="link83_@1_77"
       x1="628.52466"
       y1="121.15454"
       x2="656.02051"
       y2="130.21088" /><line
       class="arc2"
       id="link76_@2_77"
       x1="659.45752"
       y1="139.42328"
       x2="656.02051"
       y2="130.21088" /><line
       class="arc0"
       id="link76_@0_70"
       x1="659.45752"
       y1="139.42328"
       x2="733.30615"
       y2="159.11737" /><line
       class="arc0"
       id="link77_@0_71"
       x1="656.02051"
       y1="130.21088"
       x2="738.8725"
       y2="148.24109" /><line
       class="arc1"
       id="link64_@1_63"
       x1="778.32318"
       y1="150.7981"
       x2="756.05743"
       y2="194.30347" /><line
       class="arc2"
       id="link64_@2_65"
       x1="778.32318"
       y1="150.7981"
       x2="774.88617"
       y2="141.58569" /><line
       class="arc1"
       id="link65_@1_71"
       x1="774.88617"
       y1="141.58569"
       x2="738.8725"
       y2="148.24109" /><line
       class="arc2"
       id="link63_@2_69"
       x1="756.05743"
       y1="194.30347"
       x2="747.05408"
       y2="195.96735" /><line
       class="arc1"
       id="link69_@1_70"
       x1="747.05408"
       y1="195.96735"
       x2="733.30615"
       y2="159.11737" /><line
       class="arc2"
       id="link71_@2_70"
       x1="738.8725"
       y1="148.24109"
       x2="733.30615"
       y2="159.11737" /></g></svg>
