<?xml version="1.0" encoding="UTF-8" standalone="no"?>
<!-- Created with Jerboa -->

<svg
   width="441.93448"
   height="762.03021"
   version="1.1"
   id="svg993"
   sodipodi:docname="5-reevaluation-triangulation.svg"
   xml:space="preserve"
   inkscape:version="1.2.2 (b0a8486541, 2022-12-01)"
   xmlns:inkscape="http://www.inkscape.org/namespaces/inkscape"
   xmlns:sodipodi="http://sodipodi.sourceforge.net/DTD/sodipodi-0.dtd"
   xmlns="http://www.w3.org/2000/svg"
   xmlns:svg="http://www.w3.org/2000/svg"><defs
     id="defs997" /><sodipodi:namedview
     id="namedview995"
     pagecolor="#ffffff"
     bordercolor="#000000"
     borderopacity="0.25"
     inkscape:showpageshadow="2"
     inkscape:pageopacity="0.0"
     inkscape:pagecheckerboard="0"
     inkscape:deskcolor="#d1d1d1"
     showgrid="false"
     inkscape:zoom="3.5021097"
     inkscape:cx="133.49096"
     inkscape:cy="715.71144"
     inkscape:window-width="1908"
     inkscape:window-height="1048"
     inkscape:window-x="1085"
     inkscape:window-y="25"
     inkscape:window-maximized="1"
     inkscape:current-layer="g6742" /><style
     id="style">
		.arc0 {
			fill:none;
			fill-rule:evenodd;
			stroke:black;
			stroke-width:4;
			stroke-linecap:round;
			stroke-linejoin:round;
			stroke-opacity:1;
		}
		.arc1 {
			fill:none;
			fill-rule:evenodd;
			stroke:red;
			stroke-width:4;
			stroke-linecap:round;
			stroke-linejoin:round;
			stroke-opacity:1;
		}
		.arc2 {
			fill:none;
			fill-rule:evenodd;
			stroke:blue;
			stroke-width:4;
			stroke-linecap:round;
			stroke-linejoin:round;
			stroke-opacity:1;
		}
		.arc3 {
			fill:none;
			fill-rule:evenodd;
			stroke:green;
			stroke-width:4;
			stroke-linecap:round;
			stroke-linejoin:round;
			stroke-opacity:1;
		}
		.topological-dart {
			fill:#000000;
			stroke:#000000;
			stroke-width:0;
			stroke-linecap:round;
			stroke-linejoin:round;
			stroke-dasharray:none;
			paint-order:markers fill stroke;
		}
	</style><style
     id="style-3">
		.arc0 {
			fill:none;
			fill-rule:evenodd;
			stroke:black;
			stroke-width:4;
			stroke-linecap:round;
			stroke-linejoin:round;
			stroke-opacity:1;
		}
		.arc1 {
			fill:none;
			fill-rule:evenodd;
			stroke:red;
			stroke-width:4;
			stroke-linecap:round;
			stroke-linejoin:round;
			stroke-opacity:1;
		}
		.arc2 {
			fill:none;
			fill-rule:evenodd;
			stroke:blue;
			stroke-width:4;
			stroke-linecap:round;
			stroke-linejoin:round;
			stroke-opacity:1;
		}
		.arc3 {
			fill:none;
			fill-rule:evenodd;
			stroke:green;
			stroke-width:4;
			stroke-linecap:round;
			stroke-linejoin:round;
			stroke-opacity:1;
		}
		.topological-dart {
			fill:#000000;
			stroke:#000000;
			stroke-width:0;
			stroke-linecap:round;
			stroke-linejoin:round;
			stroke-dasharray:none;
			paint-order:markers fill stroke;
		}
	</style><style
     id="style-1">
		.arc0 {
			fill:none;
			fill-rule:evenodd;
			stroke:black;
			stroke-width:4;
			stroke-linecap:round;
			stroke-linejoin:round;
			stroke-opacity:1;
		}
		.arc1 {
			fill:none;
			fill-rule:evenodd;
			stroke:red;
			stroke-width:4;
			stroke-linecap:round;
			stroke-linejoin:round;
			stroke-opacity:1;
		}
		.arc2 {
			fill:none;
			fill-rule:evenodd;
			stroke:blue;
			stroke-width:4;
			stroke-linecap:round;
			stroke-linejoin:round;
			stroke-opacity:1;
		}
		.arc3 {
			fill:none;
			fill-rule:evenodd;
			stroke:green;
			stroke-width:4;
			stroke-linecap:round;
			stroke-linejoin:round;
			stroke-opacity:1;
		}
		.topological-dart {
			fill:#000000;
			stroke:#000000;
			stroke-width:0;
			stroke-linecap:round;
			stroke-linejoin:round;
			stroke-dasharray:none;
			paint-order:markers fill stroke;
		}
	</style><style
     id="style-7">
		.arc0 {
			fill:none;
			fill-rule:evenodd;
			stroke:black;
			stroke-width:4;
			stroke-linecap:round;
			stroke-linejoin:round;
			stroke-opacity:1;
		}
		.arc1 {
			fill:none;
			fill-rule:evenodd;
			stroke:red;
			stroke-width:4;
			stroke-linecap:round;
			stroke-linejoin:round;
			stroke-opacity:1;
		}
		.arc2 {
			fill:none;
			fill-rule:evenodd;
			stroke:blue;
			stroke-width:4;
			stroke-linecap:round;
			stroke-linejoin:round;
			stroke-opacity:1;
		}
		.arc3 {
			fill:none;
			fill-rule:evenodd;
			stroke:green;
			stroke-width:4;
			stroke-linecap:round;
			stroke-linejoin:round;
			stroke-opacity:1;
		}
		.topological-dart {
			fill:#000000;
			stroke:#000000;
			stroke-width:0;
			stroke-linecap:round;
			stroke-linejoin:round;
			stroke-dasharray:none;
			paint-order:markers fill stroke;
		}
	</style><style
     id="style-0">
		.arc0 {
			fill:none;
			fill-rule:evenodd;
			stroke:black;
			stroke-width:4;
			stroke-linecap:round;
			stroke-linejoin:round;
			stroke-opacity:1;
		}
		.arc1 {
			fill:none;
			fill-rule:evenodd;
			stroke:red;
			stroke-width:4;
			stroke-linecap:round;
			stroke-linejoin:round;
			stroke-opacity:1;
		}
		.arc2 {
			fill:none;
			fill-rule:evenodd;
			stroke:blue;
			stroke-width:4;
			stroke-linecap:round;
			stroke-linejoin:round;
			stroke-opacity:1;
		}
		.arc3 {
			fill:none;
			fill-rule:evenodd;
			stroke:green;
			stroke-width:4;
			stroke-linecap:round;
			stroke-linejoin:round;
			stroke-opacity:1;
		}
		.topological-dart {
			fill:#000000;
			stroke:#000000;
			stroke-width:0;
			stroke-linecap:round;
			stroke-linejoin:round;
			stroke-dasharray:none;
			paint-order:markers fill stroke;
		}
	</style><style
     id="style-9">
		.arc0 {
			fill:none;
			fill-rule:evenodd;
			stroke:black;
			stroke-width:4;
			stroke-linecap:round;
			stroke-linejoin:round;
			stroke-opacity:1;
		}
		.arc1 {
			fill:none;
			fill-rule:evenodd;
			stroke:red;
			stroke-width:4;
			stroke-linecap:round;
			stroke-linejoin:round;
			stroke-opacity:1;
		}
		.arc2 {
			fill:none;
			fill-rule:evenodd;
			stroke:blue;
			stroke-width:4;
			stroke-linecap:round;
			stroke-linejoin:round;
			stroke-opacity:1;
		}
		.arc3 {
			fill:none;
			fill-rule:evenodd;
			stroke:green;
			stroke-width:4;
			stroke-linecap:round;
			stroke-linejoin:round;
			stroke-opacity:1;
		}
		.topological-dart {
			fill:#000000;
			stroke:#000000;
			stroke-width:0;
			stroke-linecap:round;
			stroke-linejoin:round;
			stroke-dasharray:none;
			paint-order:markers fill stroke;
		}
	</style><g
     id="g6742"
     transform="matrix(1.2242424,0,0,1.2242424,-664.99257,-26.463108)"><polygon
       points="716.1835,454.03677 716.1835,301.584 743.6794,278.3185 873.3697,321.0345 900.8656,362.41257 900.8656,514.86536 873.3697,538.13086 743.6794,495.41486 "
       id="face_27_28_33_32_31_30_25_26"
       style="fill:#c0c0c0;stroke:none"
       opacity="1" /><line
       class="arc1"
       id="link26_@1_25"
       x1="716.18347"
       y1="454.03677"
       x2="743.67938"
       y2="495.41486" /><line
       class="arc2"
       id="link26_@2_21"
       x1="716.18347"
       y1="454.03677"
       x2="703.74304"
       y2="454.5686" /><line
       class="arc0"
       id="link26_@0_27"
       x1="716.18347"
       y1="454.03677"
       x2="716.18347"
       y2="301.58401" /><polygon
       points="703.74304,454.5686 703.74304,302.11588 681.47736,280.97766 573.0191,332.59543 549.0349,379.57504 549.0349,523.9473 573.0191,549.6918 681.47736,498.07397 "
       id="face_22_23_18_17_16_15_20_21"
       style="fill:#c0c0c0;stroke:none"
       opacity="1" /><line
       class="arc1"
       id="link21_@1_20"
       x1="703.74304"
       y1="454.5686"
       x2="681.47736"
       y2="498.07397" /><line
       class="arc0"
       id="link21_@0_22"
       x1="703.74304"
       y1="454.5686"
       x2="703.74304"
       y2="302.11588" /><line
       class="arc2"
       id="link25_@2_0"
       x1="743.67938"
       y1="495.41486"
       x2="738.11292"
       y2="506.2912" /><line
       class="arc0"
       id="link25_@0_30"
       x1="743.67938"
       y1="495.41486"
       x2="873.36969"
       y2="538.13086" /><polygon
       points="626.80615,607.3041 569.6568,579.2222 576.4561,558.9043 688.35126,508.41852 738.1129,506.2912 867.8033,549.0072 873.03345,569.2471 774.88617,624.261 737.15405,634.3906 657.739,617.4924 "
       id="face_7_6_5_4_9_8_3_2_1_0"
       style="fill:#c0c0c0;stroke:none"
       opacity="1" /><line
       class="arc1"
       id="link0_@1_1"
       x1="738.11292"
       y1="506.2912"
       x2="688.35126"
       y2="508.41852" /><line
       class="arc0"
       id="link0_@0_7"
       x1="738.11292"
       y1="506.2912"
       x2="867.80328"
       y2="549.0072" /><line
       class="arc2"
       id="link20_@2_1"
       x1="681.47736"
       y1="498.07397"
       x2="688.35126"
       y2="508.41852" /><line
       class="arc0"
       id="link20_@0_15"
       x1="681.47736"
       y1="498.07397"
       x2="573.0191"
       y2="549.69177" /><line
       class="arc0"
       id="link1_@0_2"
       x1="688.35126"
       y1="508.41852"
       x2="576.45612"
       y2="558.9043" /><line
       class="arc1"
       id="link27_@1_28"
       x1="716.18347"
       y1="301.58401"
       x2="743.67938"
       y2="278.31851" /><line
       class="arc2"
       id="link27_@2_22"
       x1="716.18347"
       y1="301.58401"
       x2="703.74304"
       y2="302.11588" /><line
       class="arc1"
       id="link22_@1_23"
       x1="703.74304"
       y1="302.11588"
       x2="681.47736"
       y2="280.97766" /><line
       class="arc1"
       id="link30_@1_31"
       x1="873.36969"
       y1="538.13086"
       x2="900.8656"
       y2="514.86536" /><line
       class="arc2"
       id="link30_@2_7"
       x1="873.36969"
       y1="538.13086"
       x2="867.80328"
       y2="549.0072" /><line
       class="arc2"
       id="link28_@2_29"
       x1="743.67938"
       y1="278.31851"
       x2="738.11292"
       y2="273.034" /><line
       class="arc0"
       id="link28_@0_33"
       x1="743.67938"
       y1="278.31851"
       x2="873.36969"
       y2="321.03448" /><line
       class="arc1"
       id="link7_@1_6"
       x1="867.80328"
       y1="549.0072"
       x2="873.03345"
       y2="569.24707" /><line
       class="arc2"
       id="link23_@2_24"
       x1="681.47736"
       y1="280.97766"
       x2="688.35126"
       y2="275.16132" /><line
       class="arc0"
       id="link23_@0_18"
       x1="681.47736"
       y1="280.97766"
       x2="573.0191"
       y2="332.59543" /><polygon
       points="716.1835,204.61862 716.1835,52.165955 743.6794,28.900452 873.3697,71.616394 900.8656,112.99451 900.8656,265.4472 873.3697,288.71274 743.6794,245.99677 "
       id="face_105_106_112_111_110_109_103_104"
       style="fill:#c0c0c0;stroke:none"
       opacity="1" /><line
       class="arc1"
       id="link104_@1_103"
       x1="716.18347"
       y1="204.61862"
       x2="743.67938"
       y2="245.99677" /><line
       class="arc2"
       id="link104_@2_98"
       x1="716.18347"
       y1="204.61862"
       x2="703.74304"
       y2="205.15048" /><line
       class="arc0"
       id="link104_@0_105"
       x1="716.18347"
       y1="204.61862"
       x2="716.18347"
       y2="52.165955" /><polygon
       points="626.80615,365.9664 569.6568,337.88458 576.4561,325.64706 688.35126,275.16132 738.1129,273.034 867.8033,315.74997 873.03345,335.98984 774.88617,391.00372 737.15405,393.05298 657.739,376.15472 "
       id="face_34_39_44_49_54_59_14_19_24_29"
       style="fill:#c0c0c0;stroke:none"
       opacity="1" /><line
       class="arc1"
       id="link29_@1_24"
       x1="738.11292"
       y1="273.034"
       x2="688.35126"
       y2="275.16132" /><line
       class="arc3"
       id="link29_@3_102"
       x1="738.11292"
       y1="273.034"
       x2="738.11292"
       y2="256.87314" /><line
       class="arc0"
       id="link29_@0_34"
       x1="738.11292"
       y1="273.034"
       x2="867.80328"
       y2="315.74997" /><polygon
       points="703.74304,205.15048 703.74304,52.697754 681.47736,31.55957 573.0191,83.17731 550.7534,126.68274 550.7534,279.13544 573.0191,300.2737 681.47736,248.65591 "
       id="face_99_100_94_93_92_91_97_98"
       style="fill:#c0c0c0;stroke:none"
       opacity="1" /><line
       class="arc1"
       id="link98_@1_97"
       x1="703.74304"
       y1="205.15048"
       x2="681.47736"
       y2="248.65591" /><line
       class="arc0"
       id="link98_@0_99"
       x1="703.74304"
       y1="205.15048"
       x2="703.74304"
       y2="52.697754" /><line
       class="arc2"
       id="link103_@2_102"
       x1="743.67938"
       y1="245.99677"
       x2="738.11292"
       y2="256.87314" /><line
       class="arc0"
       id="link103_@0_109"
       x1="743.67938"
       y1="245.99677"
       x2="873.36969"
       y2="288.71274" /><line
       class="arc3"
       id="link24_@3_96"
       x1="688.35126"
       y1="275.16132"
       x2="688.35126"
       y2="259.00043" /><line
       class="arc0"
       id="link24_@0_19"
       x1="688.35126"
       y1="275.16132"
       x2="576.45612"
       y2="325.64706" /><polygon
       points="628.52466,354.41177 567.9383,325.19794 576.4561,309.4862 688.35126,259.00043 738.1129,256.87314 867.8033,299.58908 873.03345,319.82898 774.88617,374.84286 738.8725,381.49835 656.0205,363.46805 "
       id="face_108_114_60_66_72_78_84_90_96_102"
       style="fill:#c0c0c0;stroke:none"
       opacity="1" /><line
       class="arc1"
       id="link102_@1_96"
       x1="738.11292"
       y1="256.87314"
       x2="688.35126"
       y2="259.00043" /><line
       class="arc0"
       id="link102_@0_108"
       x1="738.11292"
       y1="256.87314"
       x2="867.80328"
       y2="299.58908" /><line
       class="arc2"
       id="link97_@2_96"
       x1="681.47736"
       y1="248.65591"
       x2="688.35126"
       y2="259.00043" /><line
       class="arc0"
       id="link97_@0_91"
       x1="681.47736"
       y1="248.65591"
       x2="573.0191"
       y2="300.27371" /><line
       class="arc0"
       id="link96_@0_90"
       x1="688.35126"
       y1="259.00043"
       x2="576.45612"
       y2="309.48621" /><line
       class="arc1"
       id="link2_@1_3"
       x1="576.45612"
       y1="558.9043"
       x2="569.6568"
       y2="579.22223" /><line
       class="arc2"
       id="link2_@2_15"
       x1="576.45612"
       y1="558.9043"
       x2="573.0191"
       y2="549.69177" /><line
       class="arc1"
       id="link15_@1_16"
       x1="573.0191"
       y1="549.69177"
       x2="549.03491"
       y2="523.94733" /><line
       class="arc2"
       id="link31_@2_36"
       x1="900.8656"
       y1="514.86536"
       x2="902.1731"
       y2="519.92529" /><line
       class="arc0"
       id="link31_@0_32"
       x1="900.8656"
       y1="514.86536"
       x2="900.8656"
       y2="362.41257" /><polygon
       points="902.1731,519.9253 902.1731,367.47253 879.9074,346.33432 778.3232,400.2162 757.77594,448.32785 757.77594,592.70013 778.3232,617.31256 879.9074,563.43066 "
       id="face_37_38_43_42_41_40_35_36"
       style="fill:#c0c0c0;stroke:none"
       opacity="1" /><line
       class="arc1"
       id="link36_@1_35"
       x1="902.1731"
       y1="519.92529"
       x2="879.90741"
       y2="563.43066" /><line
       class="arc0"
       id="link36_@0_37"
       x1="902.1731"
       y1="519.92529"
       x2="902.1731"
       y2="367.47253" /><line
       class="arc2"
       id="link6_@2_35"
       x1="873.03345"
       y1="569.24707"
       x2="879.90741"
       y2="563.43066" /><line
       class="arc0"
       id="link6_@0_5"
       x1="873.03345"
       y1="569.24707"
       x2="774.88617"
       y2="624.26099" /><line
       class="arc0"
       id="link35_@0_40"
       x1="879.90741"
       y1="563.43066"
       x2="778.32318"
       y2="617.31256" /><line
       class="arc2"
       id="link3_@2_10"
       x1="569.6568"
       y1="579.22223"
       x2="565.8089"
       y2="578.54395" /><line
       class="arc0"
       id="link3_@0_8"
       x1="569.6568"
       y1="579.22223"
       x2="626.80615"
       y2="607.30408" /><line
       class="arc2"
       id="link16_@2_11"
       x1="549.03491"
       y1="523.94733"
       x2="545.18701"
       y2="523.26904" /><line
       class="arc0"
       id="link16_@0_17"
       x1="549.03491"
       y1="523.94733"
       x2="549.03491"
       y2="379.57504" /><polygon
       points="580.6356,499.7096 553.3685,554.8344 565.8089,578.54395 621.6507,601.56573 625.08765,578.4565 597.82056,505.3698 "
       id="face_55_120_121_135_134_10"
       style="fill:#c0c0c0;stroke:none"
       opacity="1" /><line
       class="arc1"
       id="link10_@1_134"
       x1="565.8089"
       y1="578.54395"
       x2="553.36853"
       y2="554.83441" /><line
       class="arc0"
       id="link10_@0_55"
       x1="565.8089"
       y1="578.54395"
       x2="621.6507"
       y2="601.56573" /><polygon
       points="577.1986,490.49713 549.9315,545.62195 545.187,523.26904 545.187,386.97714 549.9315,377.00824 577.1986,450.0949 "
       id="face_12_130_131_133_132_11"
       style="fill:#c0c0c0;stroke:none"
       opacity="1" /><line
       class="arc1"
       id="link11_@1_132"
       x1="545.18701"
       y1="523.26904"
       x2="549.93152"
       y2="545.62195" /><line
       class="arc0"
       id="link11_@0_12"
       x1="545.18701"
       y1="523.26904"
       x2="545.18701"
       y2="386.97714" /><line
       class="arc1"
       id="link105_@1_106"
       x1="716.18347"
       y1="52.165955"
       x2="743.67938"
       y2="28.900452" /><line
       class="arc2"
       id="link105_@2_99"
       x1="716.18347"
       y1="52.165955"
       x2="703.74304"
       y2="52.697754" /><line
       class="arc1"
       id="link99_@1_100"
       x1="703.74304"
       y1="52.697754"
       x2="681.47736"
       y2="31.55957" /><line
       class="arc2"
       id="link134_@2_132"
       x1="553.36853"
       y1="554.83441"
       x2="549.93152"
       y2="545.62195" /><line
       class="arc0"
       id="link134_@0_135"
       x1="553.36853"
       y1="554.83441"
       x2="580.63562"
       y2="499.70959" /><line
       class="arc0"
       id="link132_@0_133"
       x1="549.93152"
       y1="545.62195"
       x2="577.19861"
       y2="490.49713" /><line
       class="arc1"
       id="link33_@1_32"
       x1="873.36969"
       y1="321.03448"
       x2="900.8656"
       y2="362.41257" /><line
       class="arc2"
       id="link33_@2_34"
       x1="873.36969"
       y1="321.03448"
       x2="867.80328"
       y2="315.74997" /><line
       class="arc2"
       id="link32_@2_37"
       x1="900.8656"
       y1="362.41257"
       x2="902.1731"
       y2="367.47253" /><line
       class="arc1"
       id="link34_@1_39"
       x1="867.80328"
       y1="315.74997"
       x2="873.03345"
       y2="335.98984" /><line
       class="arc3"
       id="link34_@3_108"
       x1="867.80328"
       y1="315.74997"
       x2="867.80328"
       y2="299.58908" /><line
       class="arc1"
       id="link109_@1_110"
       x1="873.36969"
       y1="288.71274"
       x2="900.8656"
       y2="265.4472" /><line
       class="arc2"
       id="link109_@2_108"
       x1="873.36969"
       y1="288.71274"
       x2="867.80328"
       y2="299.58908" /><line
       class="arc2"
       id="link106_@2_107"
       x1="743.67938"
       y1="28.900452"
       x2="738.11292"
       y2="23.615906" /><line
       class="arc0"
       id="link106_@0_112"
       x1="743.67938"
       y1="28.900452"
       x2="873.36969"
       y2="71.616394" /><line
       class="arc1"
       id="link108_@1_114"
       x1="867.80328"
       y1="299.58908"
       x2="873.03345"
       y2="319.82898" /><line
       class="arc1"
       id="link37_@1_38"
       x1="902.1731"
       y1="367.47253"
       x2="879.90741"
       y2="346.33432" /><line
       class="arc2"
       id="link100_@2_101"
       x1="681.47736"
       y1="31.55957"
       x2="688.35126"
       y2="25.743225" /><line
       class="arc0"
       id="link100_@0_94"
       x1="681.47736"
       y1="31.55957"
       x2="573.0191"
       y2="83.177307" /><line
       class="arc1"
       id="link55_@1_120"
       x1="621.6507"
       y1="601.56573"
       x2="625.08765"
       y2="578.45648" /><line
       class="arc2"
       id="link55_@2_8"
       x1="621.6507"
       y1="601.56573"
       x2="626.80615"
       y2="607.30408" /><polygon
       points="628.52466,121.15454 567.9383,91.940674 576.4561,76.22894 688.35126,25.743225 738.1129,23.615906 867.8033,66.33185 873.03345,86.57178 774.88617,141.5857 738.8725,148.24109 656.0205,130.21088 "
       id="face_113_119_65_71_77_83_89_95_101_107"
       style="fill:#c0c0c0;stroke:none"
       opacity="1" /><line
       class="arc1"
       id="link107_@1_101"
       x1="738.11292"
       y1="23.615906"
       x2="688.35126"
       y2="25.743225" /><line
       class="arc0"
       id="link107_@0_113"
       x1="738.11292"
       y1="23.615906"
       x2="867.80328"
       y2="66.331848" /><line
       class="arc1"
       id="link8_@1_9"
       x1="626.80615"
       y1="607.30408"
       x2="657.73901"
       y2="617.49237" /><line
       class="arc1"
       id="link18_@1_17"
       x1="573.0191"
       y1="332.59543"
       x2="549.03491"
       y2="379.57504" /><line
       class="arc2"
       id="link18_@2_19"
       x1="573.0191"
       y1="332.59543"
       x2="576.45612"
       y2="325.64706" /><line
       class="arc0"
       id="link101_@0_95"
       x1="688.35126"
       y1="25.743225"
       x2="576.45612"
       y2="76.228943" /><line
       class="arc1"
       id="link19_@1_14"
       x1="576.45612"
       y1="325.64706"
       x2="569.6568"
       y2="337.88458" /><line
       class="arc3"
       id="link19_@3_90"
       x1="576.45612"
       y1="325.64706"
       x2="576.45612"
       y2="309.48621" /><line
       class="arc1"
       id="link135_@1_121"
       x1="580.63562"
       y1="499.70959"
       x2="597.82056"
       y2="505.36981" /><line
       class="arc2"
       id="link135_@2_133"
       x1="580.63562"
       y1="499.70959"
       x2="577.19861"
       y2="490.49713" /><line
       class="arc2"
       id="link17_@2_12"
       x1="549.03491"
       y1="379.57504"
       x2="545.18701"
       y2="386.97714" /><line
       class="arc1"
       id="link133_@1_131"
       x1="577.19861"
       y1="490.49713"
       x2="577.19861"
       y2="450.09491" /><line
       class="arc2"
       id="link120_@2_122"
       x1="625.08765"
       y1="578.45648"
       x2="628.52466"
       y2="571.50806" /><line
       class="arc0"
       id="link120_@0_121"
       x1="625.08765"
       y1="578.45648"
       x2="597.82056"
       y2="505.36981" /><line
       class="arc1"
       id="link12_@1_130"
       x1="545.18701"
       y1="386.97714"
       x2="549.93152"
       y2="377.00824" /><line
       class="arc1"
       id="link90_@1_84"
       x1="576.45612"
       y1="309.48621"
       x2="567.93829"
       y2="325.19794" /><line
       class="arc2"
       id="link90_@2_91"
       x1="576.45612"
       y1="309.48621"
       x2="573.0191"
       y2="300.27371" /><line
       class="arc1"
       id="link91_@1_92"
       x1="573.0191"
       y1="300.27371"
       x2="550.75342"
       y2="279.13544" /><polygon
       points="640.5541,427.05762 640.5541,555.26904 628.52466,571.50806 601.25757,498.4214 601.25757,458.01917 628.52466,402.89438 "
       id="face_123_125_124_57_56_122"
       style="fill:#c0c0c0;stroke:none"
       opacity="1" /><line
       class="arc1"
       id="link122_@1_56"
       x1="628.52466"
       y1="571.50806"
       x2="640.55408"
       y2="555.26904" /><line
       class="arc0"
       id="link122_@0_123"
       x1="628.52466"
       y1="571.50806"
       x2="601.25757"
       y2="498.42139" /><line
       class="arc2"
       id="link121_@2_123"
       x1="597.82056"
       y1="505.36981"
       x2="601.25757"
       y2="498.42139" /><line
       class="arc2"
       id="link9_@2_50"
       x1="657.73901"
       y1="617.49237"
       x2="662.89453"
       y2="615.15021" /><line
       class="arc0"
       id="link9_@0_4"
       x1="657.73901"
       y1="617.49237"
       x2="737.15405"
       y2="634.39062" /><line
       class="arc2"
       id="link110_@2_116"
       x1="900.8656"
       y1="265.4472"
       x2="902.1731"
       y2="270.50717" /><line
       class="arc0"
       id="link110_@0_111"
       x1="900.8656"
       y1="265.4472"
       x2="900.8656"
       y2="112.99451" /><line
       class="arc1"
       id="link123_@1_125"
       x1="601.25757"
       y1="498.42139"
       x2="601.25757"
       y2="458.01917" /><line
       class="arc2"
       id="link131_@2_129"
       x1="577.19861"
       y1="450.09491"
       x2="580.63562"
       y2="443.14648" /><line
       class="arc0"
       id="link131_@0_130"
       x1="577.19861"
       y1="450.09491"
       x2="549.93152"
       y2="377.00824" /><polygon
       points="686.7247,534.65204 659.4575,589.7768 662.89453,615.1502 729.86914,632.58026 731.1767,613.39886 703.9096,540.31226 "
       id="face_45_150_151_137_136_50"
       style="fill:#c0c0c0;stroke:none"
       opacity="1" /><line
       class="arc1"
       id="link50_@1_136"
       x1="662.89453"
       y1="615.15021"
       x2="659.45752"
       y2="589.77679" /><line
       class="arc0"
       id="link50_@0_45"
       x1="662.89453"
       y1="615.15021"
       x2="729.86914"
       y2="632.58026" /><line
       class="arc2"
       id="link39_@2_38"
       x1="873.03345"
       y1="335.98984"
       x2="879.90741"
       y2="346.33432" /><line
       class="arc3"
       id="link39_@3_114"
       x1="873.03345"
       y1="335.98984"
       x2="873.03345"
       y2="319.82898" /><line
       class="arc0"
       id="link39_@0_44"
       x1="873.03345"
       y1="335.98984"
       x2="774.88617"
       y2="391.00372" /><line
       class="arc0"
       id="link38_@0_43"
       x1="879.90741"
       y1="346.33432"
       x2="778.32318"
       y2="400.21619" /><polygon
       points="625.08765,393.68192 597.82056,448.80667 580.6356,443.14648 553.3685,370.05988 565.8089,345.2867 621.6507,368.30853 "
       id="face_128_13_58_126_127_129"
       style="fill:#c0c0c0;stroke:none"
       opacity="1" /><line
       class="arc1"
       id="link129_@1_127"
       x1="580.63562"
       y1="443.14648"
       x2="597.82056"
       y2="448.80667" /><line
       class="arc0"
       id="link129_@0_128"
       x1="580.63562"
       y1="443.14648"
       x2="553.36853"
       y2="370.05988" /><polygon
       points="902.1731,270.50717 902.1731,118.05444 879.9074,96.91626 778.3232,150.7981 756.05743,194.30347 756.05743,346.7562 778.3232,367.89444 879.9074,314.01257 "
       id="face_117_118_64_63_62_61_115_116"
       style="fill:#c0c0c0;stroke:none"
       opacity="1" /><line
       class="arc1"
       id="link116_@1_115"
       x1="902.1731"
       y1="270.50717"
       x2="879.90741"
       y2="314.01257" /><line
       class="arc0"
       id="link116_@0_117"
       x1="902.1731"
       y1="270.50717"
       x2="902.1731"
       y2="118.05444" /><line
       class="arc2"
       id="link130_@2_128"
       x1="549.93152"
       y1="377.00824"
       x2="553.36853"
       y2="370.05988" /><line
       class="arc2"
       id="link56_@2_51"
       x1="640.55408"
       y1="555.26904"
       x2="643.99109"
       y2="556.40106" /><line
       class="arc0"
       id="link56_@0_57"
       x1="640.55408"
       y1="555.26904"
       x2="640.55408"
       y2="427.05762" /><line
       class="arc2"
       id="link114_@2_115"
       x1="873.03345"
       y1="319.82898"
       x2="879.90741"
       y2="314.01257" /><line
       class="arc0"
       id="link114_@0_60"
       x1="873.03345"
       y1="319.82898"
       x2="774.88617"
       y2="374.84286" /><line
       class="arc2"
       id="link136_@2_138"
       x1="659.45752"
       y1="589.77679"
       x2="656.02051"
       y2="580.56433" /><line
       class="arc0"
       id="link136_@0_137"
       x1="659.45752"
       y1="589.77679"
       x2="686.72467"
       y2="534.65204" /><polygon
       points="683.28766,525.4396 656.0205,580.56433 643.9911,556.40106 643.9911,428.18964 656.0205,411.95068 683.28766,485.0373 "
       id="face_52_140_141_139_138_51"
       style="fill:#c0c0c0;stroke:none"
       opacity="1" /><line
       class="arc1"
       id="link51_@1_138"
       x1="643.99109"
       y1="556.40106"
       x2="656.02051"
       y2="580.56433" /><line
       class="arc0"
       id="link51_@0_52"
       x1="643.99109"
       y1="556.40106"
       x2="643.99109"
       y2="428.18964" /><line
       class="arc0"
       id="link138_@0_139"
       x1="656.02051"
       y1="580.56433"
       x2="683.28766"
       y2="525.43958" /><line
       class="arc1"
       id="link128_@1_13"
       x1="553.36853"
       y1="370.05988"
       x2="565.8089"
       y2="345.28671" /><line
       class="arc2"
       id="link125_@2_127"
       x1="601.25757"
       y1="458.01917"
       x2="597.82056"
       y2="448.80667" /><line
       class="arc0"
       id="link125_@0_124"
       x1="601.25757"
       y1="458.01917"
       x2="628.52466"
       y2="402.89438" /><line
       class="arc2"
       id="link14_@2_13"
       x1="569.6568"
       y1="337.88458"
       x2="565.8089"
       y2="345.28671" /><line
       class="arc3"
       id="link14_@3_84"
       x1="569.6568"
       y1="337.88458"
       x2="567.93829"
       y2="325.19794" /><line
       class="arc0"
       id="link14_@0_59"
       x1="569.6568"
       y1="337.88458"
       x2="626.80615"
       y2="365.9664" /><line
       class="arc0"
       id="link115_@0_61"
       x1="879.90741"
       y1="314.01257"
       x2="778.32318"
       y2="367.89444" /><line
       class="arc0"
       id="link127_@0_126"
       x1="597.82056"
       y1="448.80667"
       x2="625.08765"
       y2="393.68192" /><line
       class="arc1"
       id="link5_@1_4"
       x1="774.88617"
       y1="624.26099"
       x2="737.15405"
       y2="634.39062" /><line
       class="arc2"
       id="link5_@2_40"
       x1="774.88617"
       y1="624.26099"
       x2="778.32318"
       y2="617.31256" /><line
       class="arc2"
       id="link84_@2_85"
       x1="567.93829"
       y1="325.19794"
       x2="562.37195"
       y2="319.91333" /><line
       class="arc0"
       id="link84_@0_78"
       x1="567.93829"
       y1="325.19794"
       x2="628.52466"
       y2="354.41177" /><line
       class="arc0"
       id="link13_@0_58"
       x1="565.8089"
       y1="345.28671"
       x2="621.6507"
       y2="368.30853" /><line
       class="arc2"
       id="link92_@2_86"
       x1="550.75342"
       y1="279.13544"
       x2="548.62396"
       y2="283.06335" /><line
       class="arc0"
       id="link92_@0_93"
       x1="550.75342"
       y1="279.13544"
       x2="550.75342"
       y2="126.68274" /><line
       class="arc1"
       id="link40_@1_41"
       x1="778.32318"
       y1="617.31256"
       x2="757.77594"
       y2="592.70013" /><polygon
       points="562.37195,319.91333 625.08765,345.19925 638.8356,317.40555 638.8356,164.95285 625.08765,128.1029 562.37195,102.81702 548.62396,130.61066 548.62396,283.06335 "
       id="face_79_80_81_82_88_87_86_85"
       style="fill:#c0c0c0;stroke:none"
       opacity="1" /><line
       class="arc1"
       id="link85_@1_86"
       x1="562.37195"
       y1="319.91333"
       x2="548.62396"
       y2="283.06335" /><line
       class="arc0"
       id="link85_@0_79"
       x1="562.37195"
       y1="319.91333"
       x2="625.08765"
       y2="345.19925" /><line
       class="arc2"
       id="link4_@2_45"
       x1="737.15405"
       y1="634.39062"
       x2="729.86914"
       y2="632.58026" /><line
       class="arc0"
       id="link86_@0_87"
       x1="548.62396"
       y1="283.06335"
       x2="548.62396"
       y2="130.61066" /><line
       class="arc1"
       id="link45_@1_150"
       x1="729.86914"
       y1="632.58026"
       x2="731.1767"
       y2="613.39886" /><line
       class="arc1"
       id="link112_@1_111"
       x1="873.36969"
       y1="71.616394"
       x2="900.8656"
       y2="112.99451" /><line
       class="arc2"
       id="link112_@2_113"
       x1="873.36969"
       y1="71.616394"
       x2="867.80328"
       y2="66.331848" /><line
       class="arc1"
       id="link137_@1_151"
       x1="686.72467"
       y1="534.65204"
       x2="703.90961"
       y2="540.31226" /><line
       class="arc2"
       id="link137_@2_139"
       x1="686.72467"
       y1="534.65204"
       x2="683.28766"
       y2="525.43958" /><line
       class="arc1"
       id="link139_@1_141"
       x1="683.28766"
       y1="525.43958"
       x2="683.28766"
       y2="485.03729" /><line
       class="arc2"
       id="link150_@2_148"
       x1="731.1767"
       y1="613.39886"
       x2="734.61371"
       y2="606.45044" /><line
       class="arc0"
       id="link150_@0_151"
       x1="731.1767"
       y1="613.39886"
       x2="703.90961"
       y2="540.31226" /><line
       class="arc2"
       id="link111_@2_117"
       x1="900.8656"
       y1="112.99451"
       x2="902.1731"
       y2="118.05444" /><line
       class="arc1"
       id="link57_@1_124"
       x1="640.55408"
       y1="427.05762"
       x2="628.52466"
       y2="402.89438" /><line
       class="arc2"
       id="link57_@2_52"
       x1="640.55408"
       y1="427.05762"
       x2="643.99109"
       y2="428.18964" /><line
       class="arc2"
       id="link124_@2_126"
       x1="628.52466"
       y1="402.89438"
       x2="625.08765"
       y2="393.68192" /><line
       class="arc1"
       id="link126_@1_58"
       x1="625.08765"
       y1="393.68192"
       x2="621.6507"
       y2="368.30853" /><line
       class="arc1"
       id="link113_@1_119"
       x1="867.80328"
       y1="66.331848"
       x2="873.03345"
       y2="86.571777" /><line
       class="arc1"
       id="link52_@1_140"
       x1="643.99109"
       y1="428.18964"
       x2="656.02051"
       y2="411.95068" /><polygon
       points="750.491,454.5979 750.491,590.8898 734.6137,606.45044 707.3466,533.3638 707.3466,492.96158 734.6137,437.8368 "
       id="face_149_147_146_47_46_148"
       style="fill:#c0c0c0;stroke:none"
       opacity="1" /><line
       class="arc1"
       id="link148_@1_46"
       x1="734.61371"
       y1="606.45044"
       x2="750.49103"
       y2="590.88977" /><line
       class="arc0"
       id="link148_@0_149"
       x1="734.61371"
       y1="606.45044"
       x2="707.34662"
       y2="533.36377" /><line
       class="arc2"
       id="link41_@2_46"
       x1="757.77594"
       y1="592.70013"
       x2="750.49103"
       y2="590.88977" /><line
       class="arc0"
       id="link41_@0_42"
       x1="757.77594"
       y1="592.70013"
       x2="757.77594"
       y2="448.32785" /><line
       class="arc2"
       id="link151_@2_149"
       x1="703.90961"
       y1="540.31226"
       x2="707.34662"
       y2="533.36377" /><line
       class="arc2"
       id="link58_@2_59"
       x1="621.6507"
       y1="368.30853"
       x2="626.80615"
       y2="365.9664" /><line
       class="arc1"
       id="link117_@1_118"
       x1="902.1731"
       y1="118.05444"
       x2="879.90741"
       y2="96.91626" /><line
       class="arc0"
       id="link46_@0_47"
       x1="750.49103"
       y1="590.88977"
       x2="750.49103"
       y2="454.5979" /><line
       class="arc2"
       id="link141_@2_143"
       x1="683.28766"
       y1="485.03729"
       x2="686.72467"
       y2="478.08893" /><line
       class="arc0"
       id="link141_@0_140"
       x1="683.28766"
       y1="485.03729"
       x2="656.02051"
       y2="411.95068" /><line
       class="arc1"
       id="link149_@1_147"
       x1="707.34662"
       y1="533.36377"
       x2="707.34662"
       y2="492.96158" /><line
       class="arc1"
       id="link59_@1_54"
       x1="626.80615"
       y1="365.9664"
       x2="657.73901"
       y2="376.15472" /><line
       class="arc3"
       id="link59_@3_78"
       x1="626.80615"
       y1="365.9664"
       x2="628.52466"
       y2="354.41177" /><line
       class="arc1"
       id="link94_@1_93"
       x1="573.0191"
       y1="83.177307"
       x2="550.75342"
       y2="126.68274" /><line
       class="arc2"
       id="link94_@2_95"
       x1="573.0191"
       y1="83.177307"
       x2="576.45612"
       y2="76.228943" /><polygon
       points="731.1767,428.62436 703.9096,483.74908 686.7247,478.08893 659.4575,405.0023 662.89453,381.89297 729.86914,399.32303 "
       id="face_142_53_48_144_145_143"
       style="fill:#c0c0c0;stroke:none"
       opacity="1" /><line
       class="arc1"
       id="link143_@1_145"
       x1="686.72467"
       y1="478.08893"
       x2="703.90961"
       y2="483.74908" /><line
       class="arc0"
       id="link143_@0_142"
       x1="686.72467"
       y1="478.08893"
       x2="659.45752"
       y2="405.00229" /><line
       class="arc2"
       id="link140_@2_142"
       x1="656.02051"
       y1="411.95068"
       x2="659.45752"
       y2="405.00229" /><line
       class="arc1"
       id="link78_@1_72"
       x1="628.52466"
       y1="354.41177"
       x2="656.02051"
       y2="363.46805" /><line
       class="arc2"
       id="link78_@2_79"
       x1="628.52466"
       y1="354.41177"
       x2="625.08765"
       y2="345.19925" /><line
       class="arc1"
       id="link79_@1_80"
       x1="625.08765"
       y1="345.19925"
       x2="638.83557"
       y2="317.40555" /><line
       class="arc1"
       id="link95_@1_89"
       x1="576.45612"
       y1="76.228943"
       x2="567.93829"
       y2="91.940674" /><line
       class="arc1"
       id="link142_@1_53"
       x1="659.45752"
       y1="405.00229"
       x2="662.89453"
       y2="381.89297" /><line
       class="arc2"
       id="link93_@2_87"
       x1="550.75342"
       y1="126.68274"
       x2="548.62396"
       y2="130.61066" /><line
       class="arc2"
       id="link147_@2_145"
       x1="707.34662"
       y1="492.96158"
       x2="703.90961"
       y2="483.74908" /><line
       class="arc0"
       id="link147_@0_146"
       x1="707.34662"
       y1="492.96158"
       x2="734.61371"
       y2="437.83679" /><line
       class="arc0"
       id="link145_@0_144"
       x1="703.90961"
       y1="483.74908"
       x2="731.1767"
       y2="428.62436" /><line
       class="arc2"
       id="link54_@2_53"
       x1="657.73901"
       y1="376.15472"
       x2="662.89453"
       y2="381.89297" /><line
       class="arc3"
       id="link54_@3_72"
       x1="657.73901"
       y1="376.15472"
       x2="656.02051"
       y2="363.46805" /><line
       class="arc0"
       id="link54_@0_49"
       x1="657.73901"
       y1="376.15472"
       x2="737.15405"
       y2="393.05298" /><line
       class="arc1"
       id="link87_@1_88"
       x1="548.62396"
       y1="130.61066"
       x2="562.37195"
       y2="102.81702" /><line
       class="arc0"
       id="link53_@0_48"
       x1="662.89453"
       y1="381.89297"
       x2="729.86914"
       y2="399.32303" /><line
       class="arc2"
       id="link72_@2_73"
       x1="656.02051"
       y1="363.46805"
       x2="659.45752"
       y2="356.51962" /><line
       class="arc0"
       id="link72_@0_66"
       x1="656.02051"
       y1="363.46805"
       x2="738.8725"
       y2="381.49835" /><line
       class="arc2"
       id="link80_@2_74"
       x1="638.83557"
       y1="317.40555"
       x2="645.70959"
       y2="319.66965" /><line
       class="arc0"
       id="link80_@0_81"
       x1="638.83557"
       y1="317.40555"
       x2="638.83557"
       y2="164.95285" /><line
       class="arc2"
       id="link119_@2_118"
       x1="873.03345"
       y1="86.571777"
       x2="879.90741"
       y2="96.91626" /><line
       class="arc0"
       id="link119_@0_65"
       x1="873.03345"
       y1="86.571777"
       x2="774.88617"
       y2="141.58569" /><polygon
       points="659.4575,356.51962 733.30615,376.21375 747.0541,348.42004 747.0541,195.96735 733.30615,159.11737 659.4575,139.42328 645.7096,167.21692 645.7096,319.66965 "
       id="face_67_68_69_70_76_75_74_73"
       style="fill:#c0c0c0;stroke:none"
       opacity="1" /><line
       class="arc1"
       id="link73_@1_74"
       x1="659.45752"
       y1="356.51962"
       x2="645.70959"
       y2="319.66965" /><line
       class="arc0"
       id="link73_@0_67"
       x1="659.45752"
       y1="356.51962"
       x2="733.30615"
       y2="376.21375" /><line
       class="arc0"
       id="link118_@0_64"
       x1="879.90741"
       y1="96.91626"
       x2="778.32318"
       y2="150.7981" /><line
       class="arc0"
       id="link74_@0_75"
       x1="645.70959"
       y1="319.66965"
       x2="645.70959"
       y2="167.21692" /><line
       class="arc1"
       id="link43_@1_42"
       x1="778.32318"
       y1="400.21619"
       x2="757.77594"
       y2="448.32785" /><line
       class="arc2"
       id="link43_@2_44"
       x1="778.32318"
       y1="400.21619"
       x2="774.88617"
       y2="391.00372" /><line
       class="arc1"
       id="link44_@1_49"
       x1="774.88617"
       y1="391.00372"
       x2="737.15405"
       y2="393.05298" /><line
       class="arc3"
       id="link44_@3_60"
       x1="774.88617"
       y1="391.00372"
       x2="774.88617"
       y2="374.84286" /><line
       class="arc2"
       id="link89_@2_88"
       x1="567.93829"
       y1="91.940674"
       x2="562.37195"
       y2="102.81702" /><line
       class="arc0"
       id="link89_@0_83"
       x1="567.93829"
       y1="91.940674"
       x2="628.52466"
       y2="121.15454" /><line
       class="arc0"
       id="link88_@0_82"
       x1="562.37195"
       y1="102.81702"
       x2="625.08765"
       y2="128.10291" /><line
       class="arc1"
       id="link60_@1_66"
       x1="774.88617"
       y1="374.84286"
       x2="738.8725"
       y2="381.49835" /><line
       class="arc2"
       id="link60_@2_61"
       x1="774.88617"
       y1="374.84286"
       x2="778.32318"
       y2="367.89444" /><line
       class="arc2"
       id="link42_@2_47"
       x1="757.77594"
       y1="448.32785"
       x2="750.49103"
       y2="454.5979" /><line
       class="arc1"
       id="link47_@1_146"
       x1="750.49103"
       y1="454.5979"
       x2="734.61371"
       y2="437.83679" /><line
       class="arc1"
       id="link61_@1_62"
       x1="778.32318"
       y1="367.89444"
       x2="756.05743"
       y2="346.7562" /><line
       class="arc2"
       id="link49_@2_48"
       x1="737.15405"
       y1="393.05298"
       x2="729.86914"
       y2="399.32303" /><line
       class="arc3"
       id="link49_@3_66"
       x1="737.15405"
       y1="393.05298"
       x2="738.8725"
       y2="381.49835" /><line
       class="arc1"
       id="link48_@1_144"
       x1="729.86914"
       y1="399.32303"
       x2="731.1767"
       y2="428.62436" /><line
       class="arc2"
       id="link146_@2_144"
       x1="734.61371"
       y1="437.83679"
       x2="731.1767"
       y2="428.62436" /><line
       class="arc2"
       id="link66_@2_67"
       x1="738.8725"
       y1="381.49835"
       x2="733.30615"
       y2="376.21375" /><line
       class="arc1"
       id="link67_@1_68"
       x1="733.30615"
       y1="376.21375"
       x2="747.05408"
       y2="348.42004" /><line
       class="arc2"
       id="link62_@2_68"
       x1="756.05743"
       y1="346.7562"
       x2="747.05408"
       y2="348.42004" /><line
       class="arc0"
       id="link62_@0_63"
       x1="756.05743"
       y1="346.7562"
       x2="756.05743"
       y2="194.30347" /><line
       class="arc1"
       id="link81_@1_82"
       x1="638.83557"
       y1="164.95285"
       x2="625.08765"
       y2="128.10291" /><line
       class="arc2"
       id="link81_@2_75"
       x1="638.83557"
       y1="164.95285"
       x2="645.70959"
       y2="167.21692" /><line
       class="arc0"
       id="link68_@0_69"
       x1="747.05408"
       y1="348.42004"
       x2="747.05408"
       y2="195.96735" /><line
       class="arc2"
       id="link82_@2_83"
       x1="625.08765"
       y1="128.10291"
       x2="628.52466"
       y2="121.15454" /><line
       class="arc1"
       id="link75_@1_76"
       x1="645.70959"
       y1="167.21692"
       x2="659.45752"
       y2="139.42328" /><line
       class="arc1"
       id="link83_@1_77"
       x1="628.52466"
       y1="121.15454"
       x2="656.02051"
       y2="130.21088" /><line
       class="arc2"
       id="link76_@2_77"
       x1="659.45752"
       y1="139.42328"
       x2="656.02051"
       y2="130.21088" /><line
       class="arc0"
       id="link76_@0_70"
       x1="659.45752"
       y1="139.42328"
       x2="733.30615"
       y2="159.11737" /><line
       class="arc0"
       id="link77_@0_71"
       x1="656.02051"
       y1="130.21088"
       x2="738.8725"
       y2="148.24109" /><line
       class="arc1"
       id="link64_@1_63"
       x1="778.32318"
       y1="150.7981"
       x2="756.05743"
       y2="194.30347" /><line
       class="arc2"
       id="link64_@2_65"
       x1="778.32318"
       y1="150.7981"
       x2="774.88617"
       y2="141.58569" /><line
       class="arc1"
       id="link65_@1_71"
       x1="774.88617"
       y1="141.58569"
       x2="738.8725"
       y2="148.24109" /><line
       class="arc2"
       id="link63_@2_69"
       x1="756.05743"
       y1="194.30347"
       x2="747.05408"
       y2="195.96735" /><line
       class="arc1"
       id="link69_@1_70"
       x1="747.05408"
       y1="195.96735"
       x2="733.30615"
       y2="159.11737" /><line
       class="arc2"
       id="link71_@2_70"
       x1="738.8725"
       y1="148.24109"
       x2="733.30615"
       y2="159.11737" /><ellipse
       style="opacity:1;fill:#000000;fill-opacity:0.990088;stroke:none;stroke-width:10.8911;stroke-linecap:round;stroke-linejoin:round;stroke-opacity:0.9981;stop-color:#000000"
       id="path5134"
       cx="565.8089"
       cy="578.54395"
       rx="11.469421"
       ry="11.486074" /><ellipse
       style="fill:#000000;fill-opacity:0.990088;stroke:none;stroke-width:10.8911;stroke-linecap:round;stroke-linejoin:round;stroke-opacity:0.9981;stop-color:#000000"
       id="path5134-6"
       cx="731.1767"
       cy="632.58026"
       rx="11.469421"
       ry="11.486074" /><text
       xml:space="preserve"
       style="font-size:52.2772px;font-family:'Liberation Serif';-inkscape-font-specification:'Liberation Serif, Normal';opacity:1;fill:#000000;fill-opacity:0.990088;stroke:none;stroke-width:10.8911;stroke-linecap:round;stroke-linejoin:round;stroke-opacity:0.9981;stop-color:#000000"
       x="575.44043"
       y="566.54736"
       id="text5261"><tspan
         sodipodi:role="line"
         id="tspan5259"
         style="stroke-width:10.8911"
         x="575.44043"
         y="566.54736">a</tspan></text><text
       xml:space="preserve"
       style="font-size:52.2772px;font-family:'Liberation Serif';-inkscape-font-specification:'Liberation Serif, Normal';opacity:1;fill:#000000;fill-opacity:0.990088;stroke:none;stroke-width:10.8911;stroke-linecap:round;stroke-linejoin:round;stroke-opacity:0.9981;stop-color:#000000"
       x="695.55969"
       y="620.58368"
       id="text5315"><tspan
         sodipodi:role="line"
         id="tspan5313"
         style="stroke-width:10.8911"
         x="695.55969"
         y="620.58368">b</tspan></text></g></svg>
