<?xml version="1.0" encoding="UTF-8" standalone="no"?>
<!-- Created with Jerboa -->

<svg
   width="379.80902"
   height="615.86621"
   version="1.1"
   id="svg24602"
   sodipodi:docname="5-reevaluation-triangulation.svg"
   inkscape:version="1.2.2 (b0a8486541, 2022-12-01)"
   xmlns:inkscape="http://www.inkscape.org/namespaces/inkscape"
   xmlns:sodipodi="http://sodipodi.sourceforge.net/DTD/sodipodi-0.dtd"
   xmlns="http://www.w3.org/2000/svg"
   xmlns:svg="http://www.w3.org/2000/svg">
  <defs
     id="defs24606" />
  <sodipodi:namedview
     id="namedview24604"
     pagecolor="#ffffff"
     bordercolor="#000000"
     borderopacity="0.25"
     inkscape:showpageshadow="2"
     inkscape:pageopacity="0.0"
     inkscape:pagecheckerboard="0"
     inkscape:deskcolor="#d1d1d1"
     showgrid="false"
     inkscape:zoom="6.8453607"
     inkscape:cx="209.4119"
     inkscape:cy="21.036145"
     inkscape:window-width="1908"
     inkscape:window-height="1051"
     inkscape:window-x="1085"
     inkscape:window-y="22"
     inkscape:window-maximized="1"
     inkscape:current-layer="svg24602" />
  <style
     id="style">
		.arc0 {
			fill:none;
			fill-rule:evenodd;
			stroke:black;
			stroke-width:4;
			stroke-linecap:round;
			stroke-linejoin:round;
			stroke-opacity:1;
		}
		.arc1 {
			fill:none;
			fill-rule:evenodd;
			stroke:red;
			stroke-width:4;
			stroke-linecap:round;
			stroke-linejoin:round;
			stroke-opacity:1;
		}
		.arc2 {
			fill:none;
			fill-rule:evenodd;
			stroke:blue;
			stroke-width:4;
			stroke-linecap:round;
			stroke-linejoin:round;
			stroke-opacity:1;
		}
		.arc3 {
			fill:none;
			fill-rule:evenodd;
			stroke:green;
			stroke-width:4;
			stroke-linecap:round;
			stroke-linejoin:round;
			stroke-opacity:1;
		}
		.topological-dart {
			fill:#000000;
			stroke:#000000;
			stroke-width:0;
			stroke-linecap:round;
			stroke-linejoin:round;
			stroke-dasharray:none;
			paint-order:markers fill stroke;
		}
	</style>
  <polygon
     points="917.8641,393.13452 917.8641,554.3405 887.5763,588.6028 751.86115,580.9214 721.5734,543.2305 721.5734,382.02457 751.86115,347.7623 887.5763,355.44373 "
     id="face_22_23_18_17_16_15_20_21"
     style="fill:#c0c0c0;stroke:none"
     opacity="1"
     transform="translate(-546.69165,-21.853208)" />
  <line
     class="arc1"
     id="link21_@1_20"
     x1="174.88177"
     y1="521.37732"
     x2="205.16949"
     y2="559.06818" />
  <line
     class="arc2"
     id="link21_@2_26"
     x1="174.88177"
     y1="521.37732"
     x2="143.65875"
     y2="521.95575" />
  <line
     class="arc0"
     id="link21_@0_22"
     x1="174.88177"
     y1="521.37732"
     x2="174.88177"
     y2="360.17136" />
  <polygon
     points="557.19885,403.88644 557.19885,556.0983 578.7609,594.03937 670.68134,582.4253 690.3504,543.80896 690.3504,382.603 670.68134,349.2662 578.7609,360.88025 "
     id="face_27_28_33_32_31_30_25_26"
     style="fill:#c0c0c0;stroke:none"
     opacity="1"
     transform="translate(-546.69165,-21.853208)" />
  <line
     class="arc1"
     id="link26_@1_25"
     x1="143.65875"
     y1="521.95575"
     x2="123.98969"
     y2="560.57208" />
  <line
     class="arc0"
     id="link26_@0_27"
     x1="143.65875"
     y1="521.95575"
     x2="143.65875"
     y2="360.74979" />
  <line
     class="arc1"
     id="link22_@1_23"
     x1="174.88177"
     y1="360.17136"
     x2="205.16949"
     y2="325.90909" />
  <line
     class="arc2"
     id="link22_@2_27"
     x1="174.88177"
     y1="360.17136"
     x2="143.65875"
     y2="360.74979" />
  <line
     class="arc2"
     id="link20_@2_0"
     x1="205.16949"
     y1="559.06818"
     x2="191.40118"
     y2="583.40131" />
  <line
     class="arc0"
     id="link20_@0_15"
     x1="205.16949"
     y1="559.06818"
     x2="340.88464"
     y2="566.74957" />
  <line
     class="arc1"
     id="link27_@1_28"
     x1="143.65875"
     y1="360.74979"
     x2="123.98969"
     y2="327.41299" />
  <polygon
     points="917.8641,97.01642 917.8641,258.22244 887.5763,292.48477 751.86115,284.80338 721.5734,247.11249 721.5734,85.90643 751.86115,51.644165 887.5763,59.325623 "
     id="face_105_106_112_111_110_109_103_104"
     style="fill:#c0c0c0;stroke:none"
     opacity="1"
     transform="translate(-546.69165,-21.853208)" />
  <line
     class="arc1"
     id="link104_@1_103"
     x1="174.88177"
     y1="225.25928"
     x2="205.16949"
     y2="262.95016" />
  <line
     class="arc2"
     id="link104_@2_98"
     x1="174.88177"
     y1="225.25928"
     x2="143.65875"
     y2="225.83768" />
  <line
     class="arc0"
     id="link104_@0_105"
     x1="174.88177"
     y1="225.25928"
     x2="174.88177"
     y2="64.053223" />
  <polygon
     points="559.09186,103.37842 559.09186,264.58447 578.7609,297.92133 670.68134,286.30725 690.3504,247.69089 690.3504,86.48486 670.68134,53.148132 578.7609,64.762146 "
     id="face_99_100_94_93_92_91_97_98"
     style="fill:#c0c0c0;stroke:none"
     opacity="1"
     transform="translate(-546.69165,-21.853208)" />
  <line
     class="arc1"
     id="link98_@1_97"
     x1="143.65875"
     y1="225.83768"
     x2="123.98969"
     y2="264.45404" />
  <line
     class="arc0"
     id="link98_@0_99"
     x1="143.65875"
     y1="225.83768"
     x2="143.65875"
     y2="64.631653" />
  <line
     class="arc2"
     id="link25_@2_1"
     x1="123.98969"
     y1="560.57208"
     x2="141.44434"
     y2="584.32684" />
  <line
     class="arc0"
     id="link25_@0_30"
     x1="123.98969"
     y1="560.57208"
     x2="32.069275"
     y2="572.18616" />
  <polygon
     points="767.1582,635.7194 685.6801,632.9843 651.6064,631.0558 589.79736,625.6809 592.42957,617.57983 688.136,606.18005 738.09283,605.2545 873.808,612.936 884.4265,617.29 803.8641,629.54694 "
     id="face_7_6_5_4_9_8_3_2_1_0"
     style="fill:#c0c0c0;stroke:none"
     opacity="1"
     transform="translate(-546.69165,-21.853208)" />
  <line
     class="arc1"
     id="link0_@1_1"
     x1="191.40118"
     y1="583.40131"
     x2="141.44434"
     y2="584.32684" />
  <line
     class="arc0"
     id="link0_@0_7"
     x1="191.40118"
     y1="583.40131"
     x2="327.11633"
     y2="591.08276" />
  <line
     class="arc2"
     id="link23_@2_24"
     x1="205.16949"
     y1="325.90909"
     x2="191.40118"
     y2="305.27161" />
  <line
     class="arc0"
     id="link23_@0_18"
     x1="205.16949"
     y1="325.90909"
     x2="340.88464"
     y2="333.59052" />
  <line
     class="arc1"
     id="link105_@1_106"
     x1="174.88177"
     y1="64.053223"
     x2="205.16949"
     y2="29.790958" />
  <line
     class="arc2"
     id="link105_@2_99"
     x1="174.88177"
     y1="64.053223"
     x2="143.65875"
     y2="64.631653" />
  <line
     class="arc2"
     id="link103_@2_102"
     x1="205.16949"
     y1="262.95016"
     x2="191.40118"
     y2="287.28336" />
  <line
     class="arc0"
     id="link103_@0_109"
     x1="205.16949"
     y1="262.95016"
     x2="340.88464"
     y2="270.63156" />
  <line
     class="arc0"
     id="link1_@0_2"
     x1="141.44434"
     y1="584.32684"
     x2="45.737915"
     y2="595.72662" />
  <line
     class="arc1"
     id="link99_@1_100"
     x1="143.65875"
     y1="64.631653"
     x2="123.98969"
     y2="31.294926" />
  <line
     class="arc2"
     id="link28_@2_29"
     x1="123.98969"
     y1="327.41299"
     x2="141.44434"
     y2="306.19705" />
  <line
     class="arc0"
     id="link28_@0_33"
     x1="123.98969"
     y1="327.41299"
     x2="32.069275"
     y2="339.02704" />
  <line
     class="arc2"
     id="link97_@2_96"
     x1="123.98969"
     y1="264.45404"
     x2="141.44434"
     y2="288.2088" />
  <line
     class="arc0"
     id="link97_@0_91"
     x1="123.98969"
     y1="264.45404"
     x2="32.069275"
     y2="276.06812" />
  <polygon
     points="767.1582,348.59555 685.6801,345.86044 651.6064,343.9319 589.79736,338.55704 592.42957,339.45004 688.136,328.05026 738.09283,327.12482 873.808,334.8062 884.4265,339.16025 803.8641,351.41714 "
     id="face_19_14_59_54_49_44_39_34_29_24"
     style="fill:#c0c0c0;stroke:none"
     opacity="1"
     transform="translate(-546.69165,-21.853208)" />
  <line
     class="arc1"
     id="link24_@1_29"
     x1="191.40118"
     y1="305.27161"
     x2="141.44434"
     y2="306.19705" />
  <line
     class="arc3"
     id="link24_@3_102"
     x1="191.40118"
     y1="305.27161"
     x2="191.40118"
     y2="287.28336" />
  <line
     class="arc0"
     id="link24_@0_19"
     x1="191.40118"
     y1="305.27161"
     x2="327.11633"
     y2="312.953" />
  <line
     class="arc1"
     id="link102_@1_96"
     x1="191.40118"
     y1="287.28336"
     x2="141.44434"
     y2="288.2088" />
  <line
     class="arc0"
     id="link102_@0_108"
     x1="191.40118"
     y1="287.28336"
     x2="327.11633"
     y2="294.96472" />
  <line
     class="arc2"
     id="link106_@2_107"
     x1="205.16949"
     y1="29.790958"
     x2="191.40118"
     y2="9.1535673" />
  <line
     class="arc0"
     id="link106_@0_112"
     x1="205.16949"
     y1="29.790958"
     x2="340.88464"
     y2="37.472416" />
  <line
     class="arc3"
     id="link29_@3_96"
     x1="141.44434"
     y1="306.19705"
     x2="141.44434"
     y2="288.2088" />
  <line
     class="arc0"
     id="link29_@0_34"
     x1="141.44434"
     y1="306.19705"
     x2="45.737915"
     y2="317.59683" />
  <line
     class="arc0"
     id="link96_@0_90"
     x1="141.44434"
     y1="288.2088"
     x2="45.737915"
     y2="299.60858" />
  <line
     class="arc2"
     id="link100_@2_101"
     x1="123.98969"
     y1="31.294926"
     x2="141.44434"
     y2="10.079043" />
  <line
     class="arc0"
     id="link100_@0_94"
     x1="123.98969"
     y1="31.294926"
     x2="32.069275"
     y2="42.908939" />
  <polygon
     points="769.05115,57.081726 683.7871,54.132324 653.4994,52.41809 587.90436,46.82892 592.42957,43.33203 688.136,31.932251 738.09283,31.006775 873.808,38.68817 884.4265,43.042175 803.8641,55.299133 "
     id="face_113_119_65_71_77_83_89_95_101_107"
     style="fill:#c0c0c0;stroke:none"
     opacity="1"
     transform="translate(-546.69165,-21.853208)" />
  <line
     class="arc1"
     id="link107_@1_101"
     x1="191.40118"
     y1="9.1535673"
     x2="141.44434"
     y2="10.079043" />
  <line
     class="arc0"
     id="link107_@0_113"
     x1="191.40118"
     y1="9.1535673"
     x2="327.11633"
     y2="16.834965" />
  <line
     class="arc0"
     id="link101_@0_95"
     x1="141.44434"
     y1="10.079043"
     x2="45.737915"
     y2="21.478825" />
  <line
     class="arc1"
     id="link15_@1_16"
     x1="340.88464"
     y1="566.74957"
     x2="371.17242"
     y2="532.4873" />
  <line
     class="arc2"
     id="link15_@2_7"
     x1="340.88464"
     y1="566.74957"
     x2="327.11633"
     y2="591.08276" />
  <line
     class="arc1"
     id="link7_@1_6"
     x1="327.11633"
     y1="591.08276"
     x2="337.73486"
     y2="595.43677" />
  <line
     class="arc1"
     id="link18_@1_17"
     x1="340.88464"
     y1="333.59052"
     x2="371.17242"
     y2="371.28131" />
  <line
     class="arc2"
     id="link18_@2_19"
     x1="340.88464"
     y1="333.59052"
     x2="327.11633"
     y2="312.953" />
  <line
     class="arc2"
     id="link16_@2_11"
     x1="371.17242"
     y1="532.4873"
     x2="377.80902"
     y2="535.20856" />
  <line
     class="arc0"
     id="link16_@0_17"
     x1="371.17242"
     y1="532.4873"
     x2="371.17242"
     y2="371.28131" />
  <line
     class="arc1"
     id="link109_@1_110"
     x1="340.88464"
     y1="270.63156"
     x2="371.17242"
     y2="236.36923" />
  <line
     class="arc2"
     id="link109_@2_108"
     x1="340.88464"
     y1="270.63156"
     x2="327.11633"
     y2="294.96472" />
  <line
     class="arc2"
     id="link17_@2_12"
     x1="371.17242"
     y1="371.28131"
     x2="377.80902"
     y2="374.00256" />
  <line
     class="arc1"
     id="link19_@1_14"
     x1="327.11633"
     y1="312.953"
     x2="337.73486"
     y2="317.30704" />
  <line
     class="arc3"
     id="link19_@3_108"
     x1="327.11633"
     y1="312.953"
     x2="327.11633"
     y2="294.96472" />
  <line
     class="arc1"
     id="link108_@1_114"
     x1="327.11633"
     y1="294.96472"
     x2="337.73486"
     y2="299.31876" />
  <polygon
     points="769.05115,335.21152 683.7871,332.2621 653.4994,330.54782 587.90436,324.95868 592.42957,321.4618 688.136,310.062 738.09283,309.13657 873.808,316.81793 884.4265,321.17197 803.8641,333.4289 "
     id="face_108_114_60_66_72_78_84_90_96_102"
     style="fill:#c0c0c0;stroke:none"
     opacity="1"
     transform="translate(-546.69165,-21.853208)" />
  <line
     class="arc1"
     id="link112_@1_111"
     x1="340.88464"
     y1="37.472416"
     x2="371.17242"
     y2="75.163208" />
  <line
     class="arc2"
     id="link112_@2_113"
     x1="340.88464"
     y1="37.472416"
     x2="327.11633"
     y2="16.834965" />
  <line
     class="arc2"
     id="link110_@2_116"
     x1="371.17242"
     y1="236.36923"
     x2="377.80902"
     y2="239.09045" />
  <line
     class="arc0"
     id="link110_@0_111"
     x1="371.17242"
     y1="236.36923"
     x2="371.17242"
     y2="75.163208" />
  <polygon
     points="802.70703,417.78214 802.70703,569.99396 820.48315,607.7207 904.8316,595.6781 924.5007,557.06177 924.5007,395.85577 904.8316,362.51898 820.48315,374.5616 "
     id="face_12_13_58_57_56_55_10_11"
     style="fill:#c0c0c0;stroke:none"
     opacity="1"
     transform="translate(-546.69165,-21.853208)" />
  <line
     class="arc1"
     id="link11_@1_10"
     x1="377.80902"
     y1="535.20856"
     x2="358.13995"
     y2="573.82489" />
  <line
     class="arc0"
     id="link11_@0_12"
     x1="377.80902"
     y1="535.20856"
     x2="377.80902"
     y2="374.00256" />
  <line
     class="arc1"
     id="link30_@1_31"
     x1="32.069275"
     y1="572.18616"
     x2="10.507202"
     y2="534.24512" />
  <line
     class="arc2"
     id="link30_@2_2"
     x1="32.069275"
     y1="572.18616"
     x2="45.737915"
     y2="595.72662" />
  <line
     class="arc2"
     id="link111_@2_117"
     x1="371.17242"
     y1="75.163208"
     x2="377.80902"
     y2="77.88446" />
  <line
     class="arc1"
     id="link12_@1_13"
     x1="377.80902"
     y1="374.00256"
     x2="358.13995"
     y2="340.66577" />
  <line
     class="arc2"
     id="link6_@2_10"
     x1="337.73486"
     y1="595.43677"
     x2="358.13995"
     y2="573.82489" />
  <line
     class="arc0"
     id="link6_@0_5"
     x1="337.73486"
     y1="595.43677"
     x2="257.17242"
     y2="607.69373" />
  <line
     class="arc1"
     id="link113_@1_119"
     x1="327.11633"
     y1="16.834965"
     x2="337.73486"
     y2="21.188969" />
  <line
     class="arc1"
     id="link2_@1_3"
     x1="45.737915"
     y1="595.72662"
     x2="43.105713"
     y2="603.8277" />
  <polygon
     points="800.8141,117.05981 800.8141,278.26584 820.48315,311.6027 904.8316,299.56006 924.5007,260.94366 924.5007,99.73767 904.8316,66.40088 820.48315,78.44354 "
     id="face_117_118_64_63_62_61_115_116"
     style="fill:#c0c0c0;stroke:none"
     opacity="1"
     transform="translate(-546.69165,-21.853208)" />
  <line
     class="arc1"
     id="link116_@1_115"
     x1="377.80902"
     y1="239.09045"
     x2="358.13995"
     y2="277.70685" />
  <line
     class="arc0"
     id="link116_@0_117"
     x1="377.80902"
     y1="239.09045"
     x2="377.80902"
     y2="77.88446" />
  <line
     class="arc0"
     id="link10_@0_55"
     x1="358.13995"
     y1="573.82489"
     x2="273.7915"
     y2="585.86749" />
  <line
     class="arc1"
     id="link33_@1_32"
     x1="32.069275"
     y1="339.02704"
     x2="10.507202"
     y2="382.03323" />
  <line
     class="arc2"
     id="link33_@2_34"
     x1="32.069275"
     y1="339.02704"
     x2="45.737915"
     y2="317.59683" />
  <line
     class="arc1"
     id="link91_@1_92"
     x1="32.069275"
     y1="276.06812"
     x2="12.400208"
     y2="242.73126" />
  <line
     class="arc2"
     id="link91_@2_90"
     x1="32.069275"
     y1="276.06812"
     x2="45.737915"
     y2="299.60858" />
  <line
     class="arc2"
     id="link14_@2_13"
     x1="337.73486"
     y1="317.30704"
     x2="358.13995"
     y2="340.66577" />
  <line
     class="arc3"
     id="link14_@3_114"
     x1="337.73486"
     y1="317.30704"
     x2="337.73486"
     y2="299.31876" />
  <line
     class="arc0"
     id="link14_@0_59"
     x1="337.73486"
     y1="317.30704"
     x2="257.17242"
     y2="329.56393" />
  <line
     class="arc2"
     id="link31_@2_36"
     x1="10.507202"
     y1="534.24512"
     x2="2"
     y2="531.61218" />
  <line
     class="arc0"
     id="link31_@0_32"
     x1="10.507202"
     y1="534.24512"
     x2="10.507202"
     y2="382.03323" />
  <line
     class="arc1"
     id="link117_@1_118"
     x1="377.80902"
     y1="77.88446"
     x2="358.13995"
     y2="44.547672" />
  <line
     class="arc2"
     id="link114_@2_115"
     x1="337.73486"
     y1="299.31876"
     x2="358.13995"
     y2="277.70685" />
  <line
     class="arc0"
     id="link114_@0_60"
     x1="337.73486"
     y1="299.31876"
     x2="257.17242"
     y2="311.57568" />
  <line
     class="arc1"
     id="link34_@1_39"
     x1="45.737915"
     y1="317.59683"
     x2="43.105713"
     y2="316.70383" />
  <line
     class="arc3"
     id="link34_@3_90"
     x1="45.737915"
     y1="317.59683"
     x2="45.737915"
     y2="299.60858" />
  <line
     class="arc1"
     id="link90_@1_84"
     x1="45.737915"
     y1="299.60858"
     x2="41.212708"
     y2="303.10547" />
  <line
     class="arc0"
     id="link13_@0_58"
     x1="358.13995"
     y1="340.66577"
     x2="273.7915"
     y2="352.7084" />
  <line
     class="arc0"
     id="link115_@0_61"
     x1="358.13995"
     y1="277.70685"
     x2="273.7915"
     y2="289.74948" />
  <line
     class="arc2"
     id="link32_@2_37"
     x1="10.507202"
     y1="382.03323"
     x2="2"
     y2="388.39447" />
  <line
     class="arc1"
     id="link94_@1_93"
     x1="32.069275"
     y1="42.908939"
     x2="12.400208"
     y2="81.525208" />
  <line
     class="arc2"
     id="link94_@2_95"
     x1="32.069275"
     y1="42.908939"
     x2="45.737915"
     y2="21.478825" />
  <line
     class="arc2"
     id="link3_@2_35"
     x1="43.105713"
     y1="603.8277"
     x2="28.50177"
     y2="596.07111" />
  <line
     class="arc0"
     id="link3_@0_8"
     x1="43.105713"
     y1="603.8277"
     x2="104.91473"
     y2="609.20258" />
  <polygon
     points="583.38214,507.2436 555.13226,572.7565 548.69165,553.4654 548.69165,410.24768 555.13226,393.5622 583.38214,462.2729 "
     id="face_37_124_125_123_122_36"
     style="fill:#c0c0c0;stroke:none"
     opacity="1"
     transform="translate(-546.69165,-21.853208)" />
  <line
     class="arc1"
     id="link36_@1_122"
     x1="2"
     y1="531.61218"
     x2="8.4406128"
     y2="550.90326" />
  <line
     class="arc0"
     id="link36_@0_37"
     x1="2"
     y1="531.61218"
     x2="2"
     y2="388.39447" />
  <line
     class="arc2"
     id="link119_@2_118"
     x1="337.73486"
     y1="21.188969"
     x2="358.13995"
     y2="44.547672" />
  <line
     class="arc0"
     id="link119_@0_65"
     x1="337.73486"
     y1="21.188969"
     x2="257.17242"
     y2="33.445927" />
  <line
     class="arc2"
     id="link92_@2_86"
     x1="12.400208"
     y1="242.73126"
     x2="9.5718994"
     y2="244.91681" />
  <line
     class="arc0"
     id="link92_@0_93"
     x1="12.400208"
     y1="242.73126"
     x2="12.400208"
     y2="81.525208" />
  <line
     class="arc1"
     id="link95_@1_89"
     x1="45.737915"
     y1="21.478825"
     x2="41.212708"
     y2="24.975712" />
  <line
     class="arc0"
     id="link118_@0_64"
     x1="358.13995"
     y1="44.547672"
     x2="273.7915"
     y2="56.590336" />
  <polygon
     points="590.9541,525.6604 562.7042,591.1733 575.1934,617.9243 634.34784,622.2107 638.1338,595.44257 609.8839,526.7318 "
     id="face_40_134_135_121_120_35"
     style="fill:#c0c0c0;stroke:none"
     opacity="1"
     transform="translate(-546.69165,-21.853208)" />
  <line
     class="arc1"
     id="link35_@1_120"
     x1="28.50177"
     y1="596.07111"
     x2="16.012573"
     y2="569.32007" />
  <line
     class="arc0"
     id="link35_@0_40"
     x1="28.50177"
     y1="596.07111"
     x2="87.656189"
     y2="600.35748" />
  <line
     class="arc1"
     id="link37_@1_124"
     x1="2"
     y1="388.39447"
     x2="8.4406128"
     y2="371.70898" />
  <line
     class="arc2"
     id="link122_@2_120"
     x1="8.4406128"
     y1="550.90326"
     x2="16.012573"
     y2="569.32007" />
  <line
     class="arc0"
     id="link122_@0_123"
     x1="8.4406128"
     y1="550.90326"
     x2="36.690491"
     y2="485.39038" />
  <line
     class="arc0"
     id="link120_@0_121"
     x1="16.012573"
     y1="569.32007"
     x2="44.262451"
     y2="503.80719" />
  <line
     class="arc2"
     id="link93_@2_87"
     x1="12.400208"
     y1="81.525208"
     x2="9.5718994"
     y2="83.710747" />
  <line
     class="arc2"
     id="link39_@2_38"
     x1="43.105713"
     y1="316.70383"
     x2="28.50177"
     y2="326.93552" />
  <line
     class="arc3"
     id="link39_@3_84"
     x1="43.105713"
     y1="316.70383"
     x2="41.212708"
     y2="303.10547" />
  <line
     class="arc0"
     id="link39_@0_44"
     x1="43.105713"
     y1="316.70383"
     x2="104.91473"
     y2="322.07867" />
  <line
     class="arc2"
     id="link84_@2_85"
     x1="41.212708"
     y1="303.10547"
     x2="24.71582"
     y2="281.75055" />
  <line
     class="arc0"
     id="link84_@0_78"
     x1="41.212708"
     y1="303.10547"
     x2="106.80774"
     y2="308.69461" />
  <line
     class="arc2"
     id="link124_@2_126"
     x1="8.4406128"
     y1="371.70898"
     x2="16.012573"
     y2="354.14929" />
  <line
     class="arc0"
     id="link124_@0_125"
     x1="8.4406128"
     y1="371.70898"
     x2="36.690491"
     y2="440.41968" />
  <polygon
     points="653.27765,111.99316 653.27765,273.1992 638.1338,308.31873 571.4075,303.60376 556.26355,266.77002 556.26355,105.56396 571.4075,70.44458 638.1338,75.159546 "
     id="face_87_88_82_81_80_79_85_86"
     style="fill:#c0c0c0;stroke:none"
     opacity="1"
     transform="translate(-546.69165,-21.853208)" />
  <line
     class="arc1"
     id="link86_@1_85"
     x1="9.5718994"
     y1="244.91681"
     x2="24.71582"
     y2="281.75055" />
  <line
     class="arc0"
     id="link86_@0_87"
     x1="9.5718994"
     y1="244.91681"
     x2="9.5718994"
     y2="83.710747" />
  <polygon
     points="590.9541,444.7132 562.7042,376.0025 575.1934,348.78873 634.34784,353.07507 638.1338,380.27182 609.8839,445.7846 "
     id="face_43_128_129_127_126_38"
     style="fill:#c0c0c0;stroke:none"
     opacity="1"
     transform="translate(-546.69165,-21.853208)" />
  <line
     class="arc1"
     id="link38_@1_126"
     x1="28.50177"
     y1="326.93552"
     x2="16.012573"
     y2="354.14929" />
  <line
     class="arc0"
     id="link38_@0_43"
     x1="28.50177"
     y1="326.93552"
     x2="87.656189"
     y2="331.22186" />
  <line
     class="arc0"
     id="link126_@0_127"
     x1="16.012573"
     y1="354.14929"
     x2="44.262451"
     y2="422.85999" />
  <line
     class="arc0"
     id="link85_@0_79"
     x1="24.71582"
     y1="281.75055"
     x2="91.442139"
     y2="286.46552" />
  <line
     class="arc1"
     id="link123_@1_125"
     x1="36.690491"
     y1="485.39038"
     x2="36.690491"
     y2="440.41968" />
  <line
     class="arc2"
     id="link123_@2_121"
     x1="36.690491"
     y1="485.39038"
     x2="44.262451"
     y2="503.80719" />
  <line
     class="arc1"
     id="link121_@1_135"
     x1="44.262451"
     y1="503.80719"
     x2="63.192261"
     y2="504.8786" />
  <line
     class="arc2"
     id="link125_@2_127"
     x1="36.690491"
     y1="440.41968"
     x2="44.262451"
     y2="422.85999" />
  <line
     class="arc1"
     id="link87_@1_88"
     x1="9.5718994"
     y1="83.710747"
     x2="24.71582"
     y2="48.591373" />
  <line
     class="arc2"
     id="link89_@2_88"
     x1="41.212708"
     y1="24.975712"
     x2="24.71582"
     y2="48.591373" />
  <line
     class="arc0"
     id="link89_@0_83"
     x1="41.212708"
     y1="24.975712"
     x2="106.80774"
     y2="30.564884" />
  <line
     class="arc1"
     id="link127_@1_129"
     x1="44.262451"
     y1="422.85999"
     x2="63.192261"
     y2="423.9314" />
  <line
     class="arc2"
     id="link135_@2_133"
     x1="63.192261"
     y1="504.8786"
     x2="70.764221"
     y2="487.31891" />
  <line
     class="arc0"
     id="link135_@0_134"
     x1="63.192261"
     y1="504.8786"
     x2="91.442139"
     y2="573.58936" />
  <line
     class="arc0"
     id="link88_@0_82"
     x1="24.71582"
     y1="48.591373"
     x2="91.442139"
     y2="53.306339" />
  <line
     class="arc1"
     id="link8_@1_9"
     x1="104.91473"
     y1="609.20258"
     x2="138.98846"
     y2="611.1311" />
  <line
     class="arc2"
     id="link8_@2_40"
     x1="104.91473"
     y1="609.20258"
     x2="87.656189"
     y2="600.35748" />
  <line
     class="arc2"
     id="link129_@2_131"
     x1="63.192261"
     y1="423.9314"
     x2="70.764221"
     y2="442.34824" />
  <line
     class="arc0"
     id="link129_@0_128"
     x1="63.192261"
     y1="423.9314"
     x2="91.442139"
     y2="358.41861" />
  <polygon
     points="645.7057,398.6886 617.4559,464.20145 617.4559,509.17212 645.7057,577.8829 658.95654,556.1475 658.95654,421.92395 "
     id="face_132_41_42_130_131_133"
     style="fill:#c0c0c0;stroke:none"
     opacity="1"
     transform="translate(-546.69165,-21.853208)" />
  <line
     class="arc1"
     id="link133_@1_131"
     x1="70.764221"
     y1="487.31891"
     x2="70.764221"
     y2="442.34824" />
  <line
     class="arc0"
     id="link133_@0_132"
     x1="70.764221"
     y1="487.31891"
     x2="99.014038"
     y2="556.02966" />
  <line
     class="arc1"
     id="link40_@1_134"
     x1="87.656189"
     y1="600.35748"
     x2="91.442139"
     y2="573.58936" />
  <line
     class="arc0"
     id="link131_@0_130"
     x1="70.764221"
     y1="442.34824"
     x2="99.014038"
     y2="376.83539" />
  <line
     class="arc2"
     id="link134_@2_132"
     x1="91.442139"
     y1="573.58936"
     x2="99.014038"
     y2="556.02966" />
  <line
     class="arc1"
     id="link132_@1_41"
     x1="99.014038"
     y1="556.02966"
     x2="112.26489"
     y2="534.29431" />
  <line
     class="arc2"
     id="link9_@2_45"
     x1="138.98846"
     y1="611.1311"
     x2="144.44568"
     y2="603.57178" />
  <line
     class="arc0"
     id="link9_@0_4"
     x1="138.98846"
     y1="611.1311"
     x2="220.46655"
     y2="613.86621" />
  <line
     class="arc2"
     id="link41_@2_46"
     x1="112.26489"
     y1="534.29431"
     x2="119.83685"
     y2="534.72284" />
  <line
     class="arc0"
     id="link41_@0_42"
     x1="112.26489"
     y1="534.29431"
     x2="112.26489"
     y2="400.07074" />
  <line
     class="arc1"
     id="link44_@1_49"
     x1="104.91473"
     y1="322.07867"
     x2="138.98846"
     y2="324.00723" />
  <line
     class="arc2"
     id="link44_@2_43"
     x1="104.91473"
     y1="322.07867"
     x2="87.656189"
     y2="331.22186" />
  <line
     class="arc3"
     id="link44_@3_78"
     x1="104.91473"
     y1="322.07867"
     x2="106.80774"
     y2="308.69461" />
  <line
     class="arc1"
     id="link43_@1_128"
     x1="87.656189"
     y1="331.22186"
     x2="91.442139"
     y2="358.41861" />
  <line
     class="arc2"
     id="link128_@2_130"
     x1="91.442139"
     y1="358.41861"
     x2="99.014038"
     y2="376.83539" />
  <line
     class="arc1"
     id="link78_@1_72"
     x1="106.80774"
     y1="308.69461"
     x2="137.09546"
     y2="310.40887" />
  <line
     class="arc2"
     id="link78_@2_79"
     x1="106.80774"
     y1="308.69461"
     x2="91.442139"
     y2="286.46552" />
  <polygon
     points="708.02924,514.2985 679.7794,579.8114 666.5285,556.57605 666.5285,422.3525 679.7794,400.61716 708.02924,469.32788 "
     id="face_47_146_147_149_148_46"
     style="fill:#c0c0c0;stroke:none"
     opacity="1"
     transform="translate(-546.69165,-21.853208)" />
  <line
     class="arc1"
     id="link46_@1_148"
     x1="119.83685"
     y1="534.72284"
     x2="133.08777"
     y2="557.95819" />
  <line
     class="arc0"
     id="link46_@0_47"
     x1="119.83685"
     y1="534.72284"
     x2="119.83685"
     y2="400.4993" />
  <line
     class="arc1"
     id="link130_@1_42"
     x1="99.014038"
     y1="376.83539"
     x2="112.26489"
     y2="400.07074" />
  <line
     class="arc1"
     id="link79_@1_80"
     x1="91.442139"
     y1="286.46552"
     x2="106.586"
     y2="251.34598" />
  <line
     class="arc1"
     id="link5_@1_4"
     x1="257.17242"
     y1="607.69373"
     x2="220.46655"
     y2="613.86621" />
  <line
     class="arc2"
     id="link5_@2_55"
     x1="257.17242"
     y1="607.69373"
     x2="273.7915"
     y2="585.86749" />
  <line
     class="arc2"
     id="link42_@2_47"
     x1="112.26489"
     y1="400.07074"
     x2="119.83685"
     y2="400.4993" />
  <line
     class="arc2"
     id="link148_@2_150"
     x1="133.08777"
     y1="557.95819"
     x2="140.65967"
     y2="576.37506" />
  <line
     class="arc0"
     id="link148_@0_149"
     x1="133.08777"
     y1="557.95819"
     x2="161.33759"
     y2="492.44531" />
  <polygon
     points="715.60114,532.7154 687.3513,598.2283 691.1373,625.425 760.1262,628.3915 762.78094,602.49756 734.531,533.78687 "
     id="face_50_136_137_151_150_45"
     style="fill:#c0c0c0;stroke:none"
     opacity="1"
     transform="translate(-546.69165,-21.853208)" />
  <line
     class="arc1"
     id="link45_@1_150"
     x1="144.44568"
     y1="603.57178"
     x2="140.65967"
     y2="576.37506" />
  <line
     class="arc0"
     id="link45_@0_50"
     x1="144.44568"
     y1="603.57178"
     x2="213.43457"
     y2="606.53827" />
  <line
     class="arc0"
     id="link150_@0_151"
     x1="140.65967"
     y1="576.37506"
     x2="168.90948"
     y2="510.86218" />
  <line
     class="arc1"
     id="link47_@1_146"
     x1="119.83685"
     y1="400.4993"
     x2="133.08777"
     y2="378.76395" />
  <line
     class="arc1"
     id="link55_@1_56"
     x1="273.7915"
     y1="585.86749"
     x2="256.01538"
     y2="548.14075" />
  <line
     class="arc2"
     id="link80_@2_74"
     x1="106.586"
     y1="251.34598"
     x2="125.51575"
     y2="252.41742" />
  <line
     class="arc0"
     id="link80_@0_81"
     x1="106.586"
     y1="251.34598"
     x2="106.586"
     y2="90.139946" />
  <line
     class="arc2"
     id="link49_@2_48"
     x1="138.98846"
     y1="324.00723"
     x2="144.44568"
     y2="334.43613" />
  <line
     class="arc3"
     id="link49_@3_72"
     x1="138.98846"
     y1="324.00723"
     x2="137.09546"
     y2="310.40887" />
  <line
     class="arc0"
     id="link49_@0_54"
     x1="138.98846"
     y1="324.00723"
     x2="220.46655"
     y2="326.74234" />
  <line
     class="arc2"
     id="link72_@2_73"
     x1="137.09546"
     y1="310.40887"
     x2="140.65967"
     y2="289.25119" />
  <line
     class="arc0"
     id="link72_@0_66"
     x1="137.09546"
     y1="310.40887"
     x2="222.3595"
     y2="313.35831" />
  <line
     class="arc2"
     id="link146_@2_144"
     x1="133.08777"
     y1="378.76395"
     x2="140.65967"
     y2="361.20428" />
  <line
     class="arc0"
     id="link146_@0_147"
     x1="133.08777"
     y1="378.76395"
     x2="161.33759"
     y2="447.47467" />
  <line
     class="arc1"
     id="link83_@1_77"
     x1="106.80774"
     y1="30.564884"
     x2="137.09546"
     y2="32.279118" />
  <line
     class="arc2"
     id="link83_@2_82"
     x1="106.80774"
     y1="30.564884"
     x2="91.442139"
     y2="53.306339" />
  <line
     class="arc2"
     id="link4_@2_50"
     x1="220.46655"
     y1="613.86621"
     x2="213.43457"
     y2="606.53827" />
  <line
     class="arc1"
     id="link82_@1_81"
     x1="91.442139"
     y1="53.306339"
     x2="106.586"
     y2="90.139946" />
  <polygon
     points="779.05597,118.17395 779.05597,279.37994 763.9122,314.49945 687.3513,311.1044 672.2074,274.27063 672.2074,113.06458 687.3513,77.94525 763.9122,81.34027 "
     id="face_75_76_70_69_68_67_73_74"
     style="fill:#c0c0c0;stroke:none"
     opacity="1"
     transform="translate(-546.69165,-21.853208)" />
  <line
     class="arc1"
     id="link74_@1_73"
     x1="125.51575"
     y1="252.41742"
     x2="140.65967"
     y2="289.25119" />
  <line
     class="arc0"
     id="link74_@0_75"
     x1="125.51575"
     y1="252.41742"
     x2="125.51575"
     y2="91.211372" />
  <polygon
     points="760.1262,359.25583 691.1373,356.28934 687.3513,383.0575 715.60114,451.76816 734.531,452.8396 762.78094,387.32678 "
     id="face_145_143_142_53_48_144"
     style="fill:#c0c0c0;stroke:none"
     opacity="1"
     transform="translate(-546.69165,-21.853208)" />
  <line
     class="arc1"
     id="link144_@1_48"
     x1="140.65967"
     y1="361.20428"
     x2="144.44568"
     y2="334.43613" />
  <line
     class="arc0"
     id="link144_@0_145"
     x1="140.65967"
     y1="361.20428"
     x2="168.90948"
     y2="429.91495" />
  <line
     class="arc1"
     id="link59_@1_54"
     x1="257.17242"
     y1="329.56393"
     x2="220.46655"
     y2="326.74234" />
  <line
     class="arc2"
     id="link59_@2_58"
     x1="257.17242"
     y1="329.56393"
     x2="273.7915"
     y2="352.7084" />
  <line
     class="arc3"
     id="link59_@3_60"
     x1="257.17242"
     y1="329.56393"
     x2="257.17242"
     y2="311.57568" />
  <line
     class="arc2"
     id="link81_@2_75"
     x1="106.586"
     y1="90.139946"
     x2="125.51575"
     y2="91.211372" />
  <line
     class="arc1"
     id="link60_@1_66"
     x1="257.17242"
     y1="311.57568"
     x2="222.3595"
     y2="313.35831" />
  <line
     class="arc2"
     id="link60_@2_61"
     x1="257.17242"
     y1="311.57568"
     x2="273.7915"
     y2="289.74948" />
  <line
     class="arc1"
     id="link149_@1_147"
     x1="161.33759"
     y1="492.44531"
     x2="161.33759"
     y2="447.47467" />
  <line
     class="arc2"
     id="link149_@2_151"
     x1="161.33759"
     y1="492.44531"
     x2="168.90948"
     y2="510.86218" />
  <line
     class="arc0"
     id="link48_@0_53"
     x1="144.44568"
     y1="334.43613"
     x2="213.43457"
     y2="337.40262" />
  <line
     class="arc1"
     id="link151_@1_137"
     x1="168.90948"
     y1="510.86218"
     x2="187.83936"
     y2="511.93365" />
  <line
     class="arc0"
     id="link73_@0_67"
     x1="140.65967"
     y1="289.25119"
     x2="217.22052"
     y2="292.64624" />
  <line
     class="arc2"
     id="link147_@2_145"
     x1="161.33759"
     y1="447.47467"
     x2="168.90948"
     y2="429.91495" />
  <line
     class="arc1"
     id="link58_@1_57"
     x1="273.7915"
     y1="352.7084"
     x2="256.01538"
     y2="395.92892" />
  <line
     class="arc1"
     id="link61_@1_62"
     x1="273.7915"
     y1="289.74948"
     x2="254.12244"
     y2="256.41263" />
  <line
     class="arc1"
     id="link145_@1_143"
     x1="168.90948"
     y1="429.91495"
     x2="187.83936"
     y2="430.98639" />
  <line
     class="arc1"
     id="link75_@1_76"
     x1="125.51575"
     y1="91.211372"
     x2="140.65967"
     y2="56.092045" />
  <line
     class="arc2"
     id="link77_@2_76"
     x1="137.09546"
     y1="32.279118"
     x2="140.65967"
     y2="56.092045" />
  <line
     class="arc0"
     id="link77_@0_71"
     x1="137.09546"
     y1="32.279118"
     x2="222.3595"
     y2="35.228519" />
  <line
     class="arc1"
     id="link50_@1_136"
     x1="213.43457"
     y1="606.53827"
     x2="216.08929"
     y2="580.64435" />
  <line
     class="arc2"
     id="link137_@2_139"
     x1="187.83936"
     y1="511.93365"
     x2="195.41132"
     y2="494.3739" />
  <line
     class="arc0"
     id="link137_@0_136"
     x1="187.83936"
     y1="511.93365"
     x2="216.08929"
     y2="580.64435" />
  <line
     class="arc2"
     id="link54_@2_53"
     x1="220.46655"
     y1="326.74234"
     x2="213.43457"
     y2="337.40262" />
  <line
     class="arc3"
     id="link54_@3_66"
     x1="220.46655"
     y1="326.74234"
     x2="222.3595"
     y2="313.35831" />
  <line
     class="arc2"
     id="link56_@2_51"
     x1="256.01538"
     y1="548.14075"
     x2="239.93628"
     y2="545.07928" />
  <line
     class="arc0"
     id="link56_@0_57"
     x1="256.01538"
     y1="548.14075"
     x2="256.01538"
     y2="395.92892" />
  <line
     class="arc2"
     id="link66_@2_67"
     x1="222.3595"
     y1="313.35831"
     x2="217.22052"
     y2="292.64624" />
  <polygon
     points="770.35284,405.7436 742.10297,471.2564 742.10297,516.2271 770.35284,584.93787 786.6279,566.9325 786.6279,423.71478 "
     id="face_138_51_52_140_141_139"
     style="fill:#c0c0c0;stroke:none"
     opacity="1"
     transform="translate(-546.69165,-21.853208)" />
  <line
     class="arc1"
     id="link139_@1_141"
     x1="195.41132"
     y1="494.3739"
     x2="195.41132"
     y2="449.4032" />
  <line
     class="arc0"
     id="link139_@0_138"
     x1="195.41132"
     y1="494.3739"
     x2="223.66119"
     y2="563.08466" />
  <line
     class="arc2"
     id="link143_@2_141"
     x1="187.83936"
     y1="430.98639"
     x2="195.41132"
     y2="449.4032" />
  <line
     class="arc0"
     id="link143_@0_142"
     x1="187.83936"
     y1="430.98639"
     x2="216.08929"
     y2="365.47357" />
  <line
     class="arc1"
     id="link65_@1_71"
     x1="257.17242"
     y1="33.445927"
     x2="222.3595"
     y2="35.228519" />
  <line
     class="arc2"
     id="link65_@2_64"
     x1="257.17242"
     y1="33.445927"
     x2="273.7915"
     y2="56.590336" />
  <line
     class="arc0"
     id="link76_@0_70"
     x1="140.65967"
     y1="56.092045"
     x2="217.22052"
     y2="59.487064" />
  <line
     class="arc0"
     id="link141_@0_140"
     x1="195.41132"
     y1="449.4032"
     x2="223.66119"
     y2="383.89038" />
  <line
     class="arc2"
     id="link136_@2_138"
     x1="216.08929"
     y1="580.64435"
     x2="223.66119"
     y2="563.08466" />
  <line
     class="arc1"
     id="link64_@1_63"
     x1="273.7915"
     y1="56.590336"
     x2="254.12244"
     y2="95.206596" />
  <line
     class="arc2"
     id="link57_@2_52"
     x1="256.01538"
     y1="395.92892"
     x2="239.93628"
     y2="401.86157" />
  <line
     class="arc1"
     id="link138_@1_51"
     x1="223.66119"
     y1="563.08466"
     x2="239.93628"
     y2="545.07928" />
  <line
     class="arc0"
     id="link51_@0_52"
     x1="239.93628"
     y1="545.07928"
     x2="239.93628"
     y2="401.86157" />
  <line
     class="arc1"
     id="link53_@1_142"
     x1="213.43457"
     y1="337.40262"
     x2="216.08929"
     y2="365.47357" />
  <line
     class="arc2"
     id="link62_@2_68"
     x1="254.12244"
     y1="256.41263"
     x2="232.36432"
     y2="257.52673" />
  <line
     class="arc0"
     id="link62_@0_63"
     x1="254.12244"
     y1="256.41263"
     x2="254.12244"
     y2="95.206596" />
  <line
     class="arc1"
     id="link67_@1_68"
     x1="217.22052"
     y1="292.64624"
     x2="232.36432"
     y2="257.52673" />
  <line
     class="arc2"
     id="link71_@2_70"
     x1="222.3595"
     y1="35.228519"
     x2="217.22052"
     y2="59.487064" />
  <line
     class="arc2"
     id="link142_@2_140"
     x1="216.08929"
     y1="365.47357"
     x2="223.66119"
     y2="383.89038" />
  <line
     class="arc1"
     id="link52_@1_140"
     x1="239.93628"
     y1="401.86157"
     x2="223.66119"
     y2="383.89038" />
  <line
     class="arc0"
     id="link68_@0_69"
     x1="232.36432"
     y1="257.52673"
     x2="232.36432"
     y2="96.32074" />
  <line
     class="arc2"
     id="link63_@2_69"
     x1="254.12244"
     y1="95.206596"
     x2="232.36432"
     y2="96.32074" />
  <line
     class="arc1"
     id="link70_@1_69"
     x1="217.22052"
     y1="59.487064"
     x2="232.36432"
     y2="96.32074" />
  <g
     id="g27274"
     transform="translate(-0.74730015)">
    <rect
       style="fill:#fffffc;fill-opacity:1;stroke:none;stroke-width:4.44334;stroke-linecap:round;stroke-linejoin:round;stop-color:#000000"
       id="rect71319"
       width="29.538027"
       height="33.450821"
       x="184.26363"
       y="2.4424907e-15" />
    <text
       xml:space="preserve"
       style="font-style:normal;font-variant:normal;font-weight:normal;font-stretch:normal;font-size:58.6667px;font-family:'Liberation Serif';-inkscape-font-specification:'Liberation Serif, Normal';font-variant-ligatures:normal;font-variant-caps:normal;font-variant-numeric:normal;font-variant-east-asian:normal;fill:#00000b;fill-opacity:1;stroke:none;stroke-width:3.78;stroke-linecap:round;stroke-linejoin:round;stop-color:#000000"
       x="185.30048"
       y="30.020836"
       id="text74290"><tspan
         sodipodi:role="line"
         id="tspan74288"
         x="185.30048"
         y="30.020836">e</tspan></text>
  </g>
  <circle
     id="dart37"
     cx="222.64131"
     cy="34.892353"
     r="10"
     stroke="#000000"
     fill="#000000"
     style="fill:#000000;fill-opacity:1" />
</svg>
