<?xml version="1.0" encoding="UTF-8" standalone="no"?>
<!-- Created with Jerboa -->

<svg
   width="284.48413"
   height="485.30826"
   version="1.1"
   id="svg88995"
   sodipodi:docname="5-reevaluation-triangulation.svg"
   inkscape:version="1.2.2 (b0a8486541, 2022-12-01)"
   xmlns:inkscape="http://www.inkscape.org/namespaces/inkscape"
   xmlns:sodipodi="http://sodipodi.sourceforge.net/DTD/sodipodi-0.dtd"
   xmlns="http://www.w3.org/2000/svg"
   xmlns:svg="http://www.w3.org/2000/svg">
  <defs
     id="defs88999" />
  <sodipodi:namedview
     id="namedview88997"
     pagecolor="#ffffff"
     bordercolor="#000000"
     borderopacity="0.25"
     inkscape:showpageshadow="2"
     inkscape:pageopacity="0.0"
     inkscape:pagecheckerboard="0"
     inkscape:deskcolor="#d1d1d1"
     showgrid="false"
     inkscape:zoom="0.55808656"
     inkscape:cx="-194.41429"
     inkscape:cy="396.89184"
     inkscape:window-width="857"
     inkscape:window-height="1048"
     inkscape:window-x="1085"
     inkscape:window-y="25"
     inkscape:window-maximized="1"
     inkscape:current-layer="svg88995" />
  <style
     id="style">
		.arc0 {
			fill:none;
			fill-rule:evenodd;
			stroke:black;
			stroke-width:4;
			stroke-linecap:round;
			stroke-linejoin:round;
			stroke-opacity:1;
		}
		.arc1 {
			fill:none;
			fill-rule:evenodd;
			stroke:red;
			stroke-width:4;
			stroke-linecap:round;
			stroke-linejoin:round;
			stroke-opacity:1;
		}
		.arc2 {
			fill:none;
			fill-rule:evenodd;
			stroke:blue;
			stroke-width:4;
			stroke-linecap:round;
			stroke-linejoin:round;
			stroke-opacity:1;
		}
		.arc3 {
			fill:none;
			fill-rule:evenodd;
			stroke:green;
			stroke-width:4;
			stroke-linecap:round;
			stroke-linejoin:round;
			stroke-opacity:1;
		}
		.topological-dart {
			fill:#000000;
			stroke:#000000;
			stroke-width:0;
			stroke-linecap:round;
			stroke-linejoin:round;
			stroke-dasharray:none;
			paint-order:markers fill stroke;
		}
	</style>
  <polygon
     points="694.84283,230.62036 796.74054,264.1823 818.34406,296.69305 818.34406,416.47525 796.74054,434.75494 694.84283,401.19302 673.23926,368.68225 673.23926,248.90005 "
     id="face_31_32_38_37_36_35_29_30"
     style="fill:#c0c0c0;stroke:none"
     opacity="1"
     transform="translate(-536.88727,-28.500427)" />
  <line
     class="arc1"
     id="link30_@1_29"
     x1="136.35199"
     y1="340.18182"
     x2="157.95557"
     y2="372.6926" />
  <line
     class="arc2"
     id="link30_@2_24"
     x1="136.35199"
     y1="340.18182"
     x2="126.57758"
     y2="340.59967" />
  <line
     class="arc0"
     id="link30_@0_31"
     x1="136.35199"
     y1="340.18182"
     x2="136.35199"
     y2="220.39963" />
  <polygon
     points="645.9706,232.70966 560.755,273.26575 541.9106,310.17764 541.9106,423.611 560.755,443.8384 645.9706,403.2823 663.46484,369.1001 663.46484,249.31793 "
     id="face_25_26_20_19_18_17_23_24"
     style="fill:#c0c0c0;stroke:none"
     opacity="1"
     transform="translate(-536.88727,-28.500427)" />
  <line
     class="arc1"
     id="link24_@1_23"
     x1="126.57758"
     y1="340.59967"
     x2="109.08331"
     y2="374.78186" />
  <line
     class="arc0"
     id="link24_@0_25"
     x1="126.57758"
     y1="340.59967"
     x2="126.57758"
     y2="220.8175" />
  <line
     class="arc2"
     id="link29_@2_28"
     x1="157.95557"
     y1="372.6926"
     x2="153.58197"
     y2="381.23813" />
  <line
     class="arc0"
     id="link29_@0_35"
     x1="157.95557"
     y1="372.6926"
     x2="259.85327"
     y2="406.25452" />
  <polygon
     points="796.4764,459.203 719.362,502.42743 689.7159,510.38632 627.31946,497.10938 603.0155,489.1044 558.1132,467.0405 563.45544,451.07666 651.3715,411.40997 690.46924,409.73856 792.367,443.30054 "
     id="face_34_40_46_52_58_64_10_16_22_28"
     style="fill:#c0c0c0;stroke:none"
     opacity="1"
     transform="translate(-536.88727,-28.500427)" />
  <line
     class="arc1"
     id="link28_@1_22"
     x1="153.58197"
     y1="381.23813"
     x2="114.48425"
     y2="382.90955" />
  <line
     class="arc3"
     id="link28_@3_0"
     x1="153.58197"
     y1="381.23813"
     x2="149.20844"
     y2="389.78369" />
  <line
     class="arc0"
     id="link28_@0_34"
     x1="153.58197"
     y1="381.23813"
     x2="255.47974"
     y2="414.80011" />
  <polygon
     points="791.07544,463.77292 716.66156,507.8868 695.4396,511.8087 623.2688,498.9496 607.06616,493.61295 561.13654,467.57343 566.1559,458.3149 656.7724,419.5377 686.0957,418.28412 787.9934,451.84607 "
     id="face_7_6_5_4_9_8_3_2_1_0"
     style="fill:#c0c0c0;stroke:none"
     opacity="1"
     transform="translate(-536.88727,-28.500427)" />
  <line
     class="arc1"
     id="link0_@1_1"
     x1="149.20844"
     y1="389.78369"
     x2="119.88513"
     y2="391.03726" />
  <line
     class="arc0"
     id="link0_@0_7"
     x1="149.20844"
     y1="389.78369"
     x2="251.10614"
     y2="423.34564" />
  <line
     class="arc2"
     id="link23_@2_22"
     x1="109.08331"
     y1="374.78186"
     x2="114.48425"
     y2="382.90955" />
  <line
     class="arc0"
     id="link23_@0_17"
     x1="109.08331"
     y1="374.78186"
     x2="23.867737"
     y2="415.33798" />
  <line
     class="arc3"
     id="link22_@3_1"
     x1="114.48425"
     y1="382.90955"
     x2="119.88513"
     y2="391.03726" />
  <line
     class="arc0"
     id="link22_@0_16"
     x1="114.48425"
     y1="382.90955"
     x2="26.568176"
     y2="422.57623" />
  <line
     class="arc0"
     id="link1_@0_2"
     x1="119.88513"
     y1="391.03726"
     x2="29.268616"
     y2="429.81448" />
  <line
     class="arc1"
     id="link31_@1_32"
     x1="136.35199"
     y1="220.39963"
     x2="157.95557"
     y2="202.11993" />
  <line
     class="arc2"
     id="link31_@2_25"
     x1="136.35199"
     y1="220.39963"
     x2="126.57758"
     y2="220.8175" />
  <line
     class="arc1"
     id="link25_@1_26"
     x1="126.57758"
     y1="220.8175"
     x2="109.08331"
     y2="204.20923" />
  <line
     class="arc1"
     id="link35_@1_36"
     x1="259.85327"
     y1="406.25452"
     x2="281.45679"
     y2="387.97482" />
  <line
     class="arc2"
     id="link35_@2_34"
     x1="259.85327"
     y1="406.25452"
     x2="255.47974"
     y2="414.80011" />
  <line
     class="arc2"
     id="link32_@2_33"
     x1="157.95557"
     y1="202.11993"
     x2="153.58197"
     y2="197.96786" />
  <line
     class="arc0"
     id="link32_@0_38"
     x1="157.95557"
     y1="202.11993"
     x2="259.85327"
     y2="235.68188" />
  <line
     class="arc1"
     id="link34_@1_40"
     x1="255.47974"
     y1="414.80011"
     x2="259.58911"
     y2="430.70258" />
  <line
     class="arc3"
     id="link34_@3_7"
     x1="255.47974"
     y1="414.80011"
     x2="251.10614"
     y2="423.34564" />
  <line
     class="arc1"
     id="link7_@1_6"
     x1="251.10614"
     y1="423.34564"
     x2="254.18817"
     y2="435.27249" />
  <line
     class="arc2"
     id="link26_@2_27"
     x1="109.08331"
     y1="204.20923"
     x2="114.48425"
     y2="199.63931" />
  <line
     class="arc0"
     id="link26_@0_20"
     x1="109.08331"
     y1="204.20923"
     x2="23.867737"
     y2="244.76532" />
  <polygon
     points="694.84283,34.652527 796.74054,68.21448 818.34406,100.72522 818.34406,220.50735 796.74054,238.78711 694.84283,205.22516 673.23926,172.71436 673.23926,52.93219 "
     id="face_115_116_122_121_120_119_113_114"
     style="fill:#c0c0c0;stroke:none"
     opacity="1"
     transform="translate(-536.88727,-28.500427)" />
  <line
     class="arc1"
     id="link114_@1_113"
     x1="136.35199"
     y1="144.21393"
     x2="157.95557"
     y2="176.72473" />
  <line
     class="arc2"
     id="link114_@2_108"
     x1="136.35199"
     y1="144.21393"
     x2="126.57758"
     y2="144.63177" />
  <line
     class="arc0"
     id="link114_@0_115"
     x1="136.35199"
     y1="144.21393"
     x2="136.35199"
     y2="24.431763" />
  <polygon
     points="796.4764,275.93274 719.362,319.15717 689.7159,320.76724 627.31946,307.49033 603.0155,299.48535 558.1132,277.42148 563.45544,267.8064 651.3715,228.13974 690.46924,226.46829 792.367,260.03027 "
     id="face_39_45_51_57_63_69_15_21_27_33"
     style="fill:#c0c0c0;stroke:none"
     opacity="1"
     transform="translate(-536.88727,-28.500427)" />
  <line
     class="arc1"
     id="link33_@1_27"
     x1="153.58197"
     y1="197.96786"
     x2="114.48425"
     y2="199.63931" />
  <line
     class="arc3"
     id="link33_@3_112"
     x1="153.58197"
     y1="197.96786"
     x2="153.58197"
     y2="185.27032" />
  <line
     class="arc0"
     id="link33_@0_39"
     x1="153.58197"
     y1="197.96786"
     x2="255.47974"
     y2="231.52985" />
  <polygon
     points="645.9706,36.74176 560.755,77.29791 543.2608,111.48007 543.2608,231.26224 560.755,247.87054 645.9706,207.31442 663.46484,173.1322 663.46484,53.350037 "
     id="face_109_110_104_103_102_101_107_108"
     style="fill:#c0c0c0;stroke:none"
     opacity="1"
     transform="translate(-536.88727,-28.500427)" />
  <line
     class="arc1"
     id="link108_@1_107"
     x1="126.57758"
     y1="144.63177"
     x2="109.08331"
     y2="178.814" />
  <line
     class="arc0"
     id="link108_@0_109"
     x1="126.57758"
     y1="144.63177"
     x2="126.57758"
     y2="24.849609" />
  <line
     class="arc2"
     id="link113_@2_112"
     x1="157.95557"
     y1="176.72473"
     x2="153.58197"
     y2="185.27032" />
  <line
     class="arc0"
     id="link113_@0_119"
     x1="157.95557"
     y1="176.72473"
     x2="259.85327"
     y2="210.28668" />
  <line
     class="arc3"
     id="link27_@3_106"
     x1="114.48425"
     y1="199.63931"
     x2="114.48425"
     y2="186.94171" />
  <line
     class="arc0"
     id="link27_@0_21"
     x1="114.48425"
     y1="199.63931"
     x2="26.568176"
     y2="239.30597" />
  <polygon
     points="796.4764,263.23514 719.362,306.45956 691.06604,311.68875 625.96924,297.5224 604.3657,290.40686 556.763,267.45355 563.45544,255.10883 651.3715,215.44214 690.46924,213.77075 792.367,247.33264 "
     id="face_118_124_70_76_82_88_94_100_106_112"
     style="fill:#c0c0c0;stroke:none"
     opacity="1"
     transform="translate(-536.88727,-28.500427)" />
  <line
     class="arc1"
     id="link112_@1_106"
     x1="153.58197"
     y1="185.27032"
     x2="114.48425"
     y2="186.94171" />
  <line
     class="arc0"
     id="link112_@0_118"
     x1="153.58197"
     y1="185.27032"
     x2="255.47974"
     y2="218.83221" />
  <line
     class="arc2"
     id="link107_@2_106"
     x1="109.08331"
     y1="178.814"
     x2="114.48425"
     y2="186.94171" />
  <line
     class="arc0"
     id="link107_@0_101"
     x1="109.08331"
     y1="178.814"
     x2="23.867737"
     y2="219.37012" />
  <line
     class="arc0"
     id="link106_@0_100"
     x1="114.48425"
     y1="186.94171"
     x2="26.568176"
     y2="226.6084" />
  <line
     class="arc1"
     id="link2_@1_3"
     x1="29.268616"
     y1="429.81448"
     x2="24.249268"
     y2="439.073" />
  <line
     class="arc3"
     id="link2_@3_16"
     x1="29.268616"
     y1="429.81448"
     x2="26.568176"
     y2="422.57623" />
  <line
     class="arc1"
     id="link16_@1_10"
     x1="26.568176"
     y1="422.57623"
     x2="21.225952"
     y2="438.54007" />
  <line
     class="arc2"
     id="link16_@2_17"
     x1="26.568176"
     y1="422.57623"
     x2="23.867737"
     y2="415.33798" />
  <line
     class="arc1"
     id="link17_@1_18"
     x1="23.867737"
     y1="415.33798"
     x2="5.0233154"
     y2="395.11057" />
  <line
     class="arc2"
     id="link36_@2_42"
     x1="281.45679"
     y1="387.97482"
     x2="282.48413"
     y2="391.95044" />
  <line
     class="arc0"
     id="link36_@0_37"
     x1="281.45679"
     y1="387.97482"
     x2="281.45679"
     y2="268.19263" />
  <line
     class="arc3"
     id="link6_@3_40"
     x1="254.18817"
     y1="435.27249"
     x2="259.58911"
     y2="430.70258" />
  <line
     class="arc0"
     id="link6_@0_5"
     x1="254.18817"
     y1="435.27249"
     x2="179.77429"
     y2="479.38638" />
  <polygon
     points="801.8772,284.0604 722.06244,326.39542 705.9185,364.19675 705.9185,477.63013 722.06244,496.96805 801.8772,454.63306 819.3714,420.45087 819.3714,300.6687 "
     id="face_43_44_50_49_48_47_41_42"
     style="fill:#c0c0c0;stroke:none"
     opacity="1"
     transform="translate(-536.88727,-28.500427)" />
  <line
     class="arc1"
     id="link42_@1_41"
     x1="282.48413"
     y1="391.95044"
     x2="264.98993"
     y2="426.13263" />
  <line
     class="arc0"
     id="link42_@0_43"
     x1="282.48413"
     y1="391.95044"
     x2="282.48413"
     y2="272.16827" />
  <line
     class="arc2"
     id="link40_@2_41"
     x1="259.58911"
     y1="430.70258"
     x2="264.98993"
     y2="426.13263" />
  <line
     class="arc0"
     id="link40_@0_46"
     x1="259.58911"
     y1="430.70258"
     x2="182.47473"
     y2="473.927" />
  <line
     class="arc3"
     id="link3_@3_10"
     x1="24.249268"
     y1="439.073"
     x2="21.225952"
     y2="438.54007" />
  <line
     class="arc0"
     id="link3_@0_8"
     x1="24.249268"
     y1="439.073"
     x2="70.178894"
     y2="465.11252" />
  <line
     class="arc0"
     id="link41_@0_47"
     x1="264.98993"
     y1="426.13263"
     x2="185.17517"
     y2="468.46762" />
  <line
     class="arc2"
     id="link10_@2_11"
     x1="21.225952"
     y1="438.54007"
     x2="18.202637"
     y2="438.00714" />
  <line
     class="arc0"
     id="link10_@0_64"
     x1="21.225952"
     y1="438.54007"
     x2="66.128235"
     y2="460.60397" />
  <line
     class="arc2"
     id="link18_@2_12"
     x1="5.0233154"
     y1="395.11057"
     x2="2"
     y2="394.57761" />
  <line
     class="arc0"
     id="link18_@0_19"
     x1="5.0233154"
     y1="395.11057"
     x2="5.0233154"
     y2="281.67722" />
  <polygon
     points="601.6652,466.4388 580.24146,409.01465 566.73926,404.56744 545.3155,447.87897 555.0899,466.50757 598.96484,484.59583 "
     id="face_65_144_145_131_130_11"
     style="fill:#c0c0c0;stroke:none"
     opacity="1"
     transform="translate(-536.88727,-28.500427)" />
  <line
     class="arc1"
     id="link11_@1_130"
     x1="18.202637"
     y1="438.00714"
     x2="8.4282227"
     y2="419.37854" />
  <line
     class="arc0"
     id="link11_@0_65"
     x1="18.202637"
     y1="438.00714"
     x2="62.077576"
     y2="456.0954" />
  <polygon
     points="542.61505,308.1609 564.0388,365.58514 564.0388,397.32916 542.61505,440.64072 538.88727,423.07803 538.88727,315.9935 "
     id="face_13_134_135_133_132_12"
     style="fill:#c0c0c0;stroke:none"
     opacity="1"
     transform="translate(-536.88727,-28.500427)" />
  <line
     class="arc1"
     id="link12_@1_132"
     x1="2"
     y1="394.57761"
     x2="5.7277832"
     y2="412.14029" />
  <line
     class="arc0"
     id="link12_@0_13"
     x1="2"
     y1="394.57761"
     x2="2"
     y2="287.49307" />
  <line
     class="arc1"
     id="link115_@1_116"
     x1="136.35199"
     y1="24.431763"
     x2="157.95557"
     y2="6.1520996" />
  <line
     class="arc2"
     id="link115_@2_109"
     x1="136.35199"
     y1="24.431763"
     x2="126.57758"
     y2="24.849609" />
  <line
     class="arc1"
     id="link109_@1_110"
     x1="126.57758"
     y1="24.849609"
     x2="109.08331"
     y2="8.241333" />
  <line
     class="arc2"
     id="link130_@2_132"
     x1="8.4282227"
     y1="419.37854"
     x2="5.7277832"
     y2="412.14029" />
  <line
     class="arc0"
     id="link130_@0_131"
     x1="8.4282227"
     y1="419.37854"
     x2="29.85199"
     y2="376.06702" />
  <line
     class="arc0"
     id="link132_@0_133"
     x1="5.7277832"
     y1="412.14029"
     x2="27.15155"
     y2="368.82874" />
  <line
     class="arc1"
     id="link38_@1_37"
     x1="259.85327"
     y1="235.68188"
     x2="281.45679"
     y2="268.19263" />
  <line
     class="arc2"
     id="link38_@2_39"
     x1="259.85327"
     y1="235.68188"
     x2="255.47974"
     y2="231.52985" />
  <line
     class="arc2"
     id="link37_@2_43"
     x1="281.45679"
     y1="268.19263"
     x2="282.48413"
     y2="272.16827" />
  <line
     class="arc1"
     id="link39_@1_45"
     x1="255.47974"
     y1="231.52985"
     x2="259.58911"
     y2="247.43231" />
  <line
     class="arc3"
     id="link39_@3_118"
     x1="255.47974"
     y1="231.52985"
     x2="255.47974"
     y2="218.83221" />
  <line
     class="arc1"
     id="link119_@1_120"
     x1="259.85327"
     y1="210.28668"
     x2="281.45679"
     y2="192.00693" />
  <line
     class="arc2"
     id="link119_@2_118"
     x1="259.85327"
     y1="210.28668"
     x2="255.47974"
     y2="218.83221" />
  <line
     class="arc2"
     id="link116_@2_117"
     x1="157.95557"
     y1="6.1520996"
     x2="153.58197"
     y2="2" />
  <line
     class="arc0"
     id="link116_@0_122"
     x1="157.95557"
     y1="6.1520996"
     x2="259.85327"
     y2="39.71405" />
  <line
     class="arc1"
     id="link118_@1_124"
     x1="255.47974"
     y1="218.83221"
     x2="259.58911"
     y2="234.73471" />
  <line
     class="arc1"
     id="link43_@1_44"
     x1="282.48413"
     y1="272.16827"
     x2="264.98993"
     y2="255.55997" />
  <line
     class="arc2"
     id="link110_@2_111"
     x1="109.08331"
     y1="8.241333"
     x2="114.48425"
     y2="3.6714478" />
  <line
     class="arc0"
     id="link110_@0_104"
     x1="109.08331"
     y1="8.241333"
     x2="23.867737"
     y2="48.797485" />
  <line
     class="arc1"
     id="link65_@1_144"
     x1="62.077576"
     y1="456.0954"
     x2="64.777954"
     y2="437.93839" />
  <line
     class="arc2"
     id="link65_@2_64"
     x1="62.077576"
     y1="456.0954"
     x2="66.128235"
     y2="460.60397" />
  <polygon
     points="796.4764,79.964905 719.362,123.1893 691.06604,128.41852 625.96924,114.25214 604.3657,107.1366 556.763,84.18329 563.45544,71.83856 651.3715,32.171875 690.46924,30.500427 792.367,64.06238 "
     id="face_123_129_75_81_87_93_99_105_111_117"
     style="fill:#c0c0c0;stroke:none"
     opacity="1"
     transform="translate(-536.88727,-28.500427)" />
  <line
     class="arc1"
     id="link117_@1_111"
     x1="153.58197"
     y1="2"
     x2="114.48425"
     y2="3.6714478" />
  <line
     class="arc0"
     id="link117_@0_123"
     x1="153.58197"
     y1="2"
     x2="255.47974"
     y2="35.561951" />
  <line
     class="arc1"
     id="link20_@1_19"
     x1="23.867737"
     y1="244.76532"
     x2="5.0233154"
     y2="281.67722" />
  <line
     class="arc2"
     id="link20_@2_21"
     x1="23.867737"
     y1="244.76532"
     x2="26.568176"
     y2="239.30597" />
  <line
     class="arc1"
     id="link64_@1_58"
     x1="66.128235"
     y1="460.60397"
     x2="90.43219"
     y2="468.60895" />
  <line
     class="arc3"
     id="link64_@3_8"
     x1="66.128235"
     y1="460.60397"
     x2="70.178894"
     y2="465.11252" />
  <line
     class="arc1"
     id="link8_@1_9"
     x1="70.178894"
     y1="465.11252"
     x2="86.381531"
     y2="470.44916" />
  <line
     class="arc0"
     id="link111_@0_105"
     x1="114.48425"
     y1="3.6714478"
     x2="26.568176"
     y2="43.338135" />
  <line
     class="arc1"
     id="link21_@1_15"
     x1="26.568176"
     y1="239.30597"
     x2="21.225952"
     y2="248.92105" />
  <line
     class="arc3"
     id="link21_@3_100"
     x1="26.568176"
     y1="239.30597"
     x2="26.568176"
     y2="226.6084" />
  <line
     class="arc1"
     id="link131_@1_145"
     x1="29.85199"
     y1="376.06702"
     x2="43.354187"
     y2="380.51422" />
  <line
     class="arc2"
     id="link131_@2_133"
     x1="29.85199"
     y1="376.06702"
     x2="27.15155"
     y2="368.82874" />
  <line
     class="arc2"
     id="link19_@2_13"
     x1="5.0233154"
     y1="281.67722"
     x2="2"
     y2="287.49307" />
  <line
     class="arc1"
     id="link133_@1_135"
     x1="27.15155"
     y1="368.82874"
     x2="27.15155"
     y2="337.08472" />
  <line
     class="arc2"
     id="link144_@2_142"
     x1="64.777954"
     y1="437.93839"
     x2="67.478455"
     y2="432.47903" />
  <line
     class="arc0"
     id="link144_@0_145"
     x1="64.777954"
     y1="437.93839"
     x2="43.354187"
     y2="380.51422" />
  <line
     class="arc1"
     id="link13_@1_134"
     x1="2"
     y1="287.49307"
     x2="5.7277832"
     y2="279.66046" />
  <line
     class="arc1"
     id="link100_@1_94"
     x1="26.568176"
     y1="226.6084"
     x2="19.875732"
     y2="238.95312" />
  <line
     class="arc2"
     id="link100_@2_101"
     x1="26.568176"
     y1="226.6084"
     x2="23.867737"
     y2="219.37012" />
  <line
     class="arc1"
     id="link101_@1_102"
     x1="23.867737"
     y1="219.37012"
     x2="6.3735352"
     y2="202.76181" />
  <line
     class="arc3"
     id="link9_@3_58"
     x1="86.381531"
     y1="470.44916"
     x2="90.43219"
     y2="468.60895" />
  <line
     class="arc0"
     id="link9_@0_4"
     x1="86.381531"
     y1="470.44916"
     x2="158.55231"
     y2="483.30826" />
  <polygon
     points="582.9419,371.81122 604.3657,328.49966 613.81726,347.48474 613.81726,448.22046 604.3657,460.97946 582.9419,403.55524 "
     id="face_143_141_140_67_66_142"
     style="fill:#c0c0c0;stroke:none"
     opacity="1"
     transform="translate(-536.88727,-28.500427)" />
  <line
     class="arc1"
     id="link142_@1_66"
     x1="67.478455"
     y1="432.47903"
     x2="76.929993"
     y2="419.72003" />
  <line
     class="arc0"
     id="link142_@0_143"
     x1="67.478455"
     y1="432.47903"
     x2="46.054626"
     y2="375.05481" />
  <line
     class="arc2"
     id="link145_@2_143"
     x1="43.354187"
     y1="380.51422"
     x2="46.054626"
     y2="375.05481" />
  <line
     class="arc2"
     id="link58_@2_59"
     x1="90.43219"
     y1="468.60895"
     x2="94.482849"
     y2="466.76868" />
  <line
     class="arc0"
     id="link58_@0_52"
     x1="90.43219"
     y1="468.60895"
     x2="152.82861"
     y2="481.88589" />
  <line
     class="arc2"
     id="link120_@2_126"
     x1="281.45679"
     y1="192.00693"
     x2="282.48413"
     y2="195.98257" />
  <line
     class="arc0"
     id="link120_@0_121"
     x1="281.45679"
     y1="192.00693"
     x2="281.45679"
     y2="72.224792" />
  <line
     class="arc1"
     id="link143_@1_141"
     x1="46.054626"
     y1="375.05481"
     x2="46.054626"
     y2="343.31079" />
  <line
     class="arc2"
     id="link135_@2_137"
     x1="27.15155"
     y1="337.08472"
     x2="29.85199"
     y2="331.62531" />
  <line
     class="arc0"
     id="link135_@0_134"
     x1="27.15155"
     y1="337.08472"
     x2="5.7277832"
     y2="279.66046" />
  <polygon
     points="685.0194,493.8931 663.5957,436.46887 650.09344,432.02167 628.6697,475.33325 631.3701,495.2691 683.9921,508.9639 "
     id="face_53_160_161_147_146_59"
     style="fill:#c0c0c0;stroke:none"
     opacity="1"
     transform="translate(-536.88727,-28.500427)" />
  <line
     class="arc1"
     id="link59_@1_146"
     x1="94.482849"
     y1="466.76868"
     x2="91.78241"
     y2="446.83282" />
  <line
     class="arc0"
     id="link59_@0_53"
     x1="94.482849"
     y1="466.76868"
     x2="147.10486"
     y2="480.46347" />
  <line
     class="arc2"
     id="link45_@2_44"
     x1="259.58911"
     y1="247.43231"
     x2="264.98993"
     y2="255.55997" />
  <line
     class="arc3"
     id="link45_@3_124"
     x1="259.58911"
     y1="247.43231"
     x2="259.58911"
     y2="234.73471" />
  <line
     class="arc0"
     id="link45_@0_51"
     x1="259.58911"
     y1="247.43231"
     x2="182.47473"
     y2="290.65674" />
  <line
     class="arc0"
     id="link44_@0_50"
     x1="264.98993"
     y1="255.55997"
     x2="185.17517"
     y2="297.89499" />
  <polygon
     points="555.0899,283.23727 598.96484,301.32553 601.6652,321.2614 580.24146,364.57297 566.73926,360.12573 545.3155,302.70157 "
     id="face_136_14_68_138_139_137"
     style="fill:#c0c0c0;stroke:none"
     opacity="1"
     transform="translate(-536.88727,-28.500427)" />
  <line
     class="arc1"
     id="link137_@1_139"
     x1="29.85199"
     y1="331.62531"
     x2="43.354187"
     y2="336.07254" />
  <line
     class="arc0"
     id="link137_@0_136"
     x1="29.85199"
     y1="331.62531"
     x2="8.4282227"
     y2="274.20114" />
  <polygon
     points="801.8772,88.09253 722.06244,130.42752 704.56824,164.60974 704.56824,284.3919 722.06244,301.00018 801.8772,258.6652 819.3714,224.483 819.3714,104.70087 "
     id="face_127_128_74_73_72_71_125_126"
     style="fill:#c0c0c0;stroke:none"
     opacity="1"
     transform="translate(-536.88727,-28.500427)" />
  <line
     class="arc1"
     id="link126_@1_125"
     x1="282.48413"
     y1="195.98257"
     x2="264.98993"
     y2="230.16476" />
  <line
     class="arc0"
     id="link126_@0_127"
     x1="282.48413"
     y1="195.98257"
     x2="282.48413"
     y2="76.200439" />
  <line
     class="arc2"
     id="link134_@2_136"
     x1="5.7277832"
     y1="279.66046"
     x2="8.4282227"
     y2="274.20114" />
  <line
     class="arc2"
     id="link66_@2_60"
     x1="76.929993"
     y1="419.72003"
     x2="79.630371"
     y2="420.60947" />
  <line
     class="arc0"
     id="link66_@0_67"
     x1="76.929993"
     y1="419.72003"
     x2="76.929993"
     y2="318.98431" />
  <line
     class="arc2"
     id="link124_@2_125"
     x1="259.58911"
     y1="234.73471"
     x2="264.98993"
     y2="230.16476" />
  <line
     class="arc0"
     id="link124_@0_70"
     x1="259.58911"
     y1="234.73471"
     x2="182.47473"
     y2="277.95914" />
  <line
     class="arc2"
     id="link146_@2_148"
     x1="91.78241"
     y1="446.83282"
     x2="89.08197"
     y2="439.59454" />
  <line
     class="arc0"
     id="link146_@0_147"
     x1="91.78241"
     y1="446.83282"
     x2="113.20618"
     y2="403.52124" />
  <polygon
     points="625.96924,335.6152 647.39294,393.03937 647.39294,424.78345 625.96924,468.09497 616.51764,449.1099 616.51764,348.37418 "
     id="face_61_150_151_149_148_60"
     style="fill:#c0c0c0;stroke:none"
     opacity="1"
     transform="translate(-536.88727,-28.500427)" />
  <line
     class="arc1"
     id="link60_@1_148"
     x1="79.630371"
     y1="420.60947"
     x2="89.08197"
     y2="439.59454" />
  <line
     class="arc0"
     id="link60_@0_61"
     x1="79.630371"
     y1="420.60947"
     x2="79.630371"
     y2="319.87375" />
  <line
     class="arc0"
     id="link148_@0_149"
     x1="89.08197"
     y1="439.59454"
     x2="110.50568"
     y2="396.28302" />
  <line
     class="arc1"
     id="link136_@1_14"
     x1="8.4282227"
     y1="274.20114"
     x2="18.202637"
     y2="254.73685" />
  <line
     class="arc1"
     id="link5_@1_4"
     x1="179.77429"
     y1="479.38638"
     x2="158.55231"
     y2="483.30826" />
  <line
     class="arc3"
     id="link5_@3_46"
     x1="179.77429"
     y1="479.38638"
     x2="182.47473"
     y2="473.927" />
  <line
     class="arc2"
     id="link141_@2_139"
     x1="46.054626"
     y1="343.31079"
     x2="43.354187"
     y2="336.07254" />
  <line
     class="arc0"
     id="link141_@0_140"
     x1="46.054626"
     y1="343.31079"
     x2="67.478455"
     y2="299.99924" />
  <line
     class="arc2"
     id="link15_@2_14"
     x1="21.225952"
     y1="248.92105"
     x2="18.202637"
     y2="254.73685" />
  <line
     class="arc3"
     id="link15_@3_94"
     x1="21.225952"
     y1="248.92105"
     x2="19.875732"
     y2="238.95312" />
  <line
     class="arc0"
     id="link15_@0_69"
     x1="21.225952"
     y1="248.92105"
     x2="66.128235"
     y2="270.98492" />
  <line
     class="arc0"
     id="link125_@0_71"
     x1="264.98993"
     y1="230.16476"
     x2="185.17517"
     y2="272.49976" />
  <line
     class="arc0"
     id="link139_@0_138"
     x1="43.354187"
     y1="336.07254"
     x2="64.777954"
     y2="292.76099" />
  <line
     class="arc1"
     id="link46_@1_52"
     x1="182.47473"
     y1="473.927"
     x2="152.82861"
     y2="481.88589" />
  <line
     class="arc2"
     id="link46_@2_47"
     x1="182.47473"
     y1="473.927"
     x2="185.17517"
     y2="468.46762" />
  <line
     class="arc2"
     id="link94_@2_95"
     x1="19.875732"
     y1="238.95312"
     x2="15.502197"
     y2="234.80103" />
  <line
     class="arc0"
     id="link94_@0_88"
     x1="19.875732"
     y1="238.95312"
     x2="67.478455"
     y2="261.90643" />
  <line
     class="arc0"
     id="link14_@0_68"
     x1="18.202637"
     y1="254.73685"
     x2="62.077576"
     y2="272.8251" />
  <line
     class="arc3"
     id="link4_@3_52"
     x1="158.55231"
     y1="483.30826"
     x2="152.82861"
     y2="481.88589" />
  <line
     class="arc2"
     id="link102_@2_96"
     x1="6.3735352"
     y1="202.76181"
     x2="4.7004395"
     y2="205.84799" />
  <line
     class="arc0"
     id="link102_@0_103"
     x1="6.3735352"
     y1="202.76181"
     x2="6.3735352"
     y2="82.979645" />
  <line
     class="arc1"
     id="link47_@1_48"
     x1="185.17517"
     y1="468.46762"
     x2="169.03125"
     y2="449.1297" />
  <polygon
     points="612.46704,261.3311 612.46704,141.54895 601.6652,112.59589 552.38947,92.72876 541.5877,114.56625 541.5877,234.34842 552.38947,263.30145 601.6652,283.16858 "
     id="face_89_90_91_92_98_97_96_95"
     style="fill:#c0c0c0;stroke:none"
     opacity="1"
     transform="translate(-536.88727,-28.500427)" />
  <line
     class="arc1"
     id="link95_@1_96"
     x1="15.502197"
     y1="234.80103"
     x2="4.7004395"
     y2="205.84799" />
  <line
     class="arc0"
     id="link95_@0_89"
     x1="15.502197"
     y1="234.80103"
     x2="64.777954"
     y2="254.66815" />
  <line
     class="arc2"
     id="link52_@2_53"
     x1="152.82861"
     y1="481.88589"
     x2="147.10486"
     y2="480.46347" />
  <line
     class="arc0"
     id="link96_@0_97"
     x1="4.7004395"
     y1="205.84799"
     x2="4.7004395"
     y2="86.065826" />
  <line
     class="arc1"
     id="link53_@1_160"
     x1="147.10486"
     y1="480.46347"
     x2="148.13214"
     y2="465.39267" />
  <line
     class="arc1"
     id="link122_@1_121"
     x1="259.85327"
     y1="39.71405"
     x2="281.45679"
     y2="72.224792" />
  <line
     class="arc2"
     id="link122_@2_123"
     x1="259.85327"
     y1="39.71405"
     x2="255.47974"
     y2="35.561951" />
  <line
     class="arc1"
     id="link147_@1_161"
     x1="113.20618"
     y1="403.52124"
     x2="126.70844"
     y2="407.96844" />
  <line
     class="arc2"
     id="link147_@2_149"
     x1="113.20618"
     y1="403.52124"
     x2="110.50568"
     y2="396.28302" />
  <line
     class="arc1"
     id="link149_@1_151"
     x1="110.50568"
     y1="396.28302"
     x2="110.50568"
     y2="364.53894" />
  <line
     class="arc2"
     id="link160_@2_158"
     x1="148.13214"
     y1="465.39267"
     x2="150.83264"
     y2="459.93329" />
  <line
     class="arc0"
     id="link160_@0_161"
     x1="148.13214"
     y1="465.39267"
     x2="126.70844"
     y2="407.96844" />
  <line
     class="arc2"
     id="link121_@2_127"
     x1="281.45679"
     y1="72.224792"
     x2="282.48413"
     y2="76.200439" />
  <line
     class="arc1"
     id="link67_@1_140"
     x1="76.929993"
     y1="318.98431"
     x2="67.478455"
     y2="299.99924" />
  <line
     class="arc2"
     id="link67_@2_61"
     x1="76.929993"
     y1="318.98431"
     x2="79.630371"
     y2="319.87375" />
  <line
     class="arc2"
     id="link140_@2_138"
     x1="67.478455"
     y1="299.99924"
     x2="64.777954"
     y2="292.76099" />
  <line
     class="arc1"
     id="link138_@1_68"
     x1="64.777954"
     y1="292.76099"
     x2="62.077576"
     y2="272.8251" />
  <line
     class="arc1"
     id="link123_@1_129"
     x1="255.47974"
     y1="35.561951"
     x2="259.58911"
     y2="51.464478" />
  <line
     class="arc1"
     id="link61_@1_150"
     x1="79.630371"
     y1="319.87375"
     x2="89.08197"
     y2="307.11478" />
  <polygon
     points="666.2961,399.26547 687.7199,355.95395 700.19476,369.12314 700.19476,476.20767 687.7199,488.43372 666.2961,431.00952 "
     id="face_159_157_156_55_54_158"
     style="fill:#c0c0c0;stroke:none"
     opacity="1"
     transform="translate(-536.88727,-28.500427)" />
  <line
     class="arc1"
     id="link158_@1_54"
     x1="150.83264"
     y1="459.93329"
     x2="163.3075"
     y2="447.70724" />
  <line
     class="arc0"
     id="link158_@0_159"
     x1="150.83264"
     y1="459.93329"
     x2="129.40881"
     y2="402.50909" />
  <line
     class="arc2"
     id="link48_@2_54"
     x1="169.03125"
     y1="449.1297"
     x2="163.3075"
     y2="447.70724" />
  <line
     class="arc0"
     id="link48_@0_49"
     x1="169.03125"
     y1="449.1297"
     x2="169.03125"
     y2="335.69632" />
  <line
     class="arc2"
     id="link161_@2_159"
     x1="126.70844"
     y1="407.96844"
     x2="129.40881"
     y2="402.50909" />
  <line
     class="arc2"
     id="link68_@2_69"
     x1="62.077576"
     y1="272.8251"
     x2="66.128235"
     y2="270.98492" />
  <line
     class="arc1"
     id="link127_@1_128"
     x1="282.48413"
     y1="76.200439"
     x2="264.98993"
     y2="59.592102" />
  <line
     class="arc0"
     id="link54_@0_55"
     x1="163.3075"
     y1="447.70724"
     x2="163.3075"
     y2="340.62271" />
  <line
     class="arc2"
     id="link151_@2_153"
     x1="110.50568"
     y1="364.53894"
     x2="113.20618"
     y2="359.07959" />
  <line
     class="arc0"
     id="link151_@0_150"
     x1="110.50568"
     y1="364.53894"
     x2="89.08197"
     y2="307.11478" />
  <line
     class="arc1"
     id="link159_@1_157"
     x1="129.40881"
     y1="402.50909"
     x2="129.40881"
     y2="370.76505" />
  <line
     class="arc1"
     id="link69_@1_63"
     x1="66.128235"
     y1="270.98492"
     x2="90.43219"
     y2="278.9899" />
  <line
     class="arc3"
     id="link69_@3_88"
     x1="66.128235"
     y1="270.98492"
     x2="67.478455"
     y2="261.90643" />
  <line
     class="arc1"
     id="link104_@1_103"
     x1="23.867737"
     y1="48.797485"
     x2="6.3735352"
     y2="82.979645" />
  <line
     class="arc2"
     id="link104_@2_105"
     x1="23.867737"
     y1="48.797485"
     x2="26.568176"
     y2="43.338135" />
  <polygon
     points="631.3701,311.99884 683.9921,325.69363 685.0194,348.7157 663.5957,392.02722 650.09344,387.58002 628.6697,330.15585 "
     id="face_152_62_56_154_155_153"
     style="fill:#c0c0c0;stroke:none"
     opacity="1"
     transform="translate(-536.88727,-28.500427)" />
  <line
     class="arc1"
     id="link153_@1_155"
     x1="113.20618"
     y1="359.07959"
     x2="126.70844"
     y2="363.52679" />
  <line
     class="arc0"
     id="link153_@0_152"
     x1="113.20618"
     y1="359.07959"
     x2="91.78241"
     y2="301.65543" />
  <line
     class="arc2"
     id="link150_@2_152"
     x1="89.08197"
     y1="307.11478"
     x2="91.78241"
     y2="301.65543" />
  <line
     class="arc1"
     id="link88_@1_82"
     x1="67.478455"
     y1="261.90643"
     x2="89.08197"
     y2="269.02197" />
  <line
     class="arc2"
     id="link88_@2_89"
     x1="67.478455"
     y1="261.90643"
     x2="64.777954"
     y2="254.66815" />
  <line
     class="arc1"
     id="link89_@1_90"
     x1="64.777954"
     y1="254.66815"
     x2="75.579773"
     y2="232.83066" />
  <line
     class="arc1"
     id="link105_@1_99"
     x1="26.568176"
     y1="43.338135"
     x2="19.875732"
     y2="55.682861" />
  <line
     class="arc1"
     id="link152_@1_62"
     x1="91.78241"
     y1="301.65543"
     x2="94.482849"
     y2="283.49841" />
  <line
     class="arc2"
     id="link103_@2_97"
     x1="6.3735352"
     y1="82.979645"
     x2="4.7004395"
     y2="86.065826" />
  <line
     class="arc2"
     id="link157_@2_155"
     x1="129.40881"
     y1="370.76505"
     x2="126.70844"
     y2="363.52679" />
  <line
     class="arc0"
     id="link157_@0_156"
     x1="129.40881"
     y1="370.76505"
     x2="150.83264"
     y2="327.45352" />
  <line
     class="arc0"
     id="link155_@0_154"
     x1="126.70844"
     y1="363.52679"
     x2="148.13214"
     y2="320.21527" />
  <line
     class="arc2"
     id="link63_@2_62"
     x1="90.43219"
     y1="278.9899"
     x2="94.482849"
     y2="283.49841" />
  <line
     class="arc3"
     id="link63_@3_82"
     x1="90.43219"
     y1="278.9899"
     x2="89.08197"
     y2="269.02197" />
  <line
     class="arc0"
     id="link63_@0_57"
     x1="90.43219"
     y1="278.9899"
     x2="152.82861"
     y2="292.26682" />
  <line
     class="arc1"
     id="link97_@1_98"
     x1="4.7004395"
     y1="86.065826"
     x2="15.502197"
     y2="64.228333" />
  <line
     class="arc0"
     id="link62_@0_56"
     x1="94.482849"
     y1="283.49841"
     x2="147.10486"
     y2="297.19321" />
  <line
     class="arc2"
     id="link82_@2_83"
     x1="89.08197"
     y1="269.02197"
     x2="91.78241"
     y2="263.56256" />
  <line
     class="arc0"
     id="link82_@0_76"
     x1="89.08197"
     y1="269.02197"
     x2="154.17877"
     y2="283.18832" />
  <line
     class="arc2"
     id="link90_@2_84"
     x1="75.579773"
     y1="232.83066"
     x2="80.980652"
     y2="234.60953" />
  <line
     class="arc0"
     id="link90_@0_91"
     x1="75.579773"
     y1="232.83066"
     x2="75.579773"
     y2="113.04852" />
  <line
     class="arc2"
     id="link129_@2_128"
     x1="259.58911"
     y1="51.464478"
     x2="264.98993"
     y2="59.592102" />
  <line
     class="arc0"
     id="link129_@0_75"
     x1="259.58911"
     y1="51.464478"
     x2="182.47473"
     y2="94.688873" />
  <polygon
     points="697.4943,285.6992 697.4943,165.91702 686.6925,136.96402 628.6697,121.49036 617.8679,143.32779 617.8679,263.10995 628.6697,292.063 686.6925,307.53665 "
     id="face_77_78_79_80_86_85_84_83"
     style="fill:#c0c0c0;stroke:none"
     opacity="1"
     transform="translate(-536.88727,-28.500427)" />
  <line
     class="arc1"
     id="link83_@1_84"
     x1="91.78241"
     y1="263.56256"
     x2="80.980652"
     y2="234.60953" />
  <line
     class="arc0"
     id="link83_@0_77"
     x1="91.78241"
     y1="263.56256"
     x2="149.80524"
     y2="279.03622" />
  <line
     class="arc0"
     id="link128_@0_74"
     x1="264.98993"
     y1="59.592102"
     x2="185.17517"
     y2="101.92709" />
  <line
     class="arc0"
     id="link84_@0_85"
     x1="80.980652"
     y1="234.60953"
     x2="80.980652"
     y2="114.82736" />
  <line
     class="arc1"
     id="link50_@1_49"
     x1="185.17517"
     y1="297.89499"
     x2="169.03125"
     y2="335.69632" />
  <line
     class="arc2"
     id="link50_@2_51"
     x1="185.17517"
     y1="297.89499"
     x2="182.47473"
     y2="290.65674" />
  <line
     class="arc1"
     id="link51_@1_57"
     x1="182.47473"
     y1="290.65674"
     x2="152.82861"
     y2="292.26682" />
  <line
     class="arc3"
     id="link51_@3_70"
     x1="182.47473"
     y1="290.65674"
     x2="182.47473"
     y2="277.95914" />
  <line
     class="arc2"
     id="link99_@2_98"
     x1="19.875732"
     y1="55.682861"
     x2="15.502197"
     y2="64.228333" />
  <line
     class="arc0"
     id="link99_@0_93"
     x1="19.875732"
     y1="55.682861"
     x2="67.478455"
     y2="78.636169" />
  <line
     class="arc0"
     id="link98_@0_92"
     x1="15.502197"
     y1="64.228333"
     x2="64.777954"
     y2="84.095459" />
  <line
     class="arc1"
     id="link70_@1_76"
     x1="182.47473"
     y1="277.95914"
     x2="154.17877"
     y2="283.18832" />
  <line
     class="arc2"
     id="link70_@2_71"
     x1="182.47473"
     y1="277.95914"
     x2="185.17517"
     y2="272.49976" />
  <line
     class="arc2"
     id="link49_@2_55"
     x1="169.03125"
     y1="335.69632"
     x2="163.3075"
     y2="340.62271" />
  <line
     class="arc1"
     id="link55_@1_156"
     x1="163.3075"
     y1="340.62271"
     x2="150.83264"
     y2="327.45352" />
  <line
     class="arc1"
     id="link71_@1_72"
     x1="185.17517"
     y1="272.49976"
     x2="167.68097"
     y2="255.89148" />
  <line
     class="arc2"
     id="link57_@2_56"
     x1="152.82861"
     y1="292.26682"
     x2="147.10486"
     y2="297.19321" />
  <line
     class="arc3"
     id="link57_@3_76"
     x1="152.82861"
     y1="292.26682"
     x2="154.17877"
     y2="283.18832" />
  <line
     class="arc1"
     id="link56_@1_154"
     x1="147.10486"
     y1="297.19321"
     x2="148.13214"
     y2="320.21527" />
  <line
     class="arc2"
     id="link156_@2_154"
     x1="150.83264"
     y1="327.45352"
     x2="148.13214"
     y2="320.21527" />
  <line
     class="arc2"
     id="link76_@2_77"
     x1="154.17877"
     y1="283.18832"
     x2="149.80524"
     y2="279.03622" />
  <line
     class="arc1"
     id="link77_@1_78"
     x1="149.80524"
     y1="279.03622"
     x2="160.60706"
     y2="257.19876" />
  <line
     class="arc2"
     id="link72_@2_78"
     x1="167.68097"
     y1="255.89148"
     x2="160.60706"
     y2="257.19876" />
  <line
     class="arc0"
     id="link72_@0_73"
     x1="167.68097"
     y1="255.89148"
     x2="167.68097"
     y2="136.10931" />
  <line
     class="arc1"
     id="link91_@1_92"
     x1="75.579773"
     y1="113.04852"
     x2="64.777954"
     y2="84.095459" />
  <line
     class="arc2"
     id="link91_@2_85"
     x1="75.579773"
     y1="113.04852"
     x2="80.980652"
     y2="114.82736" />
  <line
     class="arc0"
     id="link78_@0_79"
     x1="160.60706"
     y1="257.19876"
     x2="160.60706"
     y2="137.4166" />
  <line
     class="arc2"
     id="link92_@2_93"
     x1="64.777954"
     y1="84.095459"
     x2="67.478455"
     y2="78.636169" />
  <line
     class="arc1"
     id="link85_@1_86"
     x1="80.980652"
     y1="114.82736"
     x2="91.78241"
     y2="92.989929" />
  <line
     class="arc1"
     id="link93_@1_87"
     x1="67.478455"
     y1="78.636169"
     x2="89.08197"
     y2="85.751709" />
  <line
     class="arc2"
     id="link86_@2_87"
     x1="91.78241"
     y1="92.989929"
     x2="89.08197"
     y2="85.751709" />
  <line
     class="arc0"
     id="link86_@0_80"
     x1="91.78241"
     y1="92.989929"
     x2="149.80524"
     y2="108.46359" />
  <line
     class="arc0"
     id="link87_@0_81"
     x1="89.08197"
     y1="85.751709"
     x2="154.17877"
     y2="99.918091" />
  <line
     class="arc1"
     id="link74_@1_73"
     x1="185.17517"
     y1="101.92709"
     x2="167.68097"
     y2="136.10931" />
  <line
     class="arc2"
     id="link74_@2_75"
     x1="185.17517"
     y1="101.92709"
     x2="182.47473"
     y2="94.688873" />
  <line
     class="arc1"
     id="link75_@1_81"
     x1="182.47473"
     y1="94.688873"
     x2="154.17877"
     y2="99.918091" />
  <line
     class="arc2"
     id="link73_@2_79"
     x1="167.68097"
     y1="136.10931"
     x2="160.60706"
     y2="137.4166" />
  <line
     class="arc1"
     id="link79_@1_80"
     x1="160.60706"
     y1="137.4166"
     x2="149.80524"
     y2="108.46359" />
  <line
     class="arc2"
     id="link81_@2_80"
     x1="154.17877"
     y1="99.918091"
     x2="149.80524"
     y2="108.46359" />
</svg>
