<?xml version="1.0" encoding="UTF-8" standalone="no"?>
<!-- Created with Jerboa -->

<svg
   width="353.66818"
   height="513.18097"
   version="1.1"
   id="svg13713"
   sodipodi:docname="6-evaluation-collapse.svg"
   inkscape:version="1.2.2 (b0a8486541, 2022-12-01)"
   xmlns:inkscape="http://www.inkscape.org/namespaces/inkscape"
   xmlns:sodipodi="http://sodipodi.sourceforge.net/DTD/sodipodi-0.dtd"
   xmlns="http://www.w3.org/2000/svg"
   xmlns:svg="http://www.w3.org/2000/svg">
  <defs
     id="defs13717" />
  <sodipodi:namedview
     id="namedview13715"
     pagecolor="#ffffff"
     bordercolor="#000000"
     borderopacity="0.25"
     inkscape:showpageshadow="2"
     inkscape:pageopacity="0.0"
     inkscape:pagecheckerboard="0"
     inkscape:deskcolor="#d1d1d1"
     showgrid="false"
     inkscape:zoom="2.6737979"
     inkscape:cx="250.0189"
     inkscape:cy="158.57593"
     inkscape:window-width="1908"
     inkscape:window-height="1051"
     inkscape:window-x="1085"
     inkscape:window-y="22"
     inkscape:window-maximized="1"
     inkscape:current-layer="svg13713" />
  <style
     id="style">
		.arc0 {
			fill:none;
			fill-rule:evenodd;
			stroke:black;
			stroke-width:4;
			stroke-linecap:round;
			stroke-linejoin:round;
			stroke-opacity:1;
		}
		.arc1 {
			fill:none;
			fill-rule:evenodd;
			stroke:red;
			stroke-width:4;
			stroke-linecap:round;
			stroke-linejoin:round;
			stroke-opacity:1;
		}
		.arc2 {
			fill:none;
			fill-rule:evenodd;
			stroke:blue;
			stroke-width:4;
			stroke-linecap:round;
			stroke-linejoin:round;
			stroke-opacity:1;
		}
		.arc3 {
			fill:none;
			fill-rule:evenodd;
			stroke:green;
			stroke-width:4;
			stroke-linecap:round;
			stroke-linejoin:round;
			stroke-opacity:1;
		}
		.topological-dart {
			fill:#000000;
			stroke:#000000;
			stroke-width:0;
			stroke-linecap:round;
			stroke-linejoin:round;
			stroke-dasharray:none;
			paint-order:markers fill stroke;
		}
	</style>
  <polygon
     points="621.2789,522.3466 621.2789,372.04932 649.5171,340.10553 778.34076,346.9595 806.5789,382.09982 804.28674,532.7048 776.04846,564.64856 649.5171,557.48694 "
     id="face_20_21_16_15_14_13_18_19"
     style="fill:#c0c0c0;stroke:none"
     opacity="1"
     transform="translate(-463.39053,-95.91272)" />
  <line
     class="arc1"
     id="link19_@1_18"
     x1="157.88834"
     y1="426.4339"
     x2="186.12656"
     y2="461.57422" />
  <line
     class="arc2"
     id="link19_@2_24"
     x1="157.88834"
     y1="426.4339"
     x2="128.77817"
     y2="426.97314" />
  <line
     class="arc0"
     id="link19_@0_20"
     x1="157.88834"
     y1="426.4339"
     x2="157.88834"
     y2="276.1366" />
  <polygon
     points="592.1687,522.88586 592.1687,372.58856 573.8306,341.50766 491.66016,352.5356 469.79227,392.5317 469.79227,534.44354 491.66016,569.917 573.8306,558.88904 "
     id="face_25_26_31_30_29_28_23_24"
     style="fill:#c0c0c0;stroke:none"
     opacity="1"
     transform="translate(-463.39053,-95.91272)" />
  <line
     class="arc1"
     id="link24_@1_23"
     x1="128.77817"
     y1="426.97314"
     x2="110.44009"
     y2="462.97632" />
  <line
     class="arc0"
     id="link24_@0_25"
     x1="128.77817"
     y1="426.97314"
     x2="128.77817"
     y2="276.67584" />
  <line
     class="arc1"
     id="link20_@1_21"
     x1="157.88834"
     y1="276.1366"
     x2="186.12656"
     y2="244.19281" />
  <line
     class="arc2"
     id="link20_@2_25"
     x1="157.88834"
     y1="276.1366"
     x2="128.77817"
     y2="276.67584" />
  <line
     class="arc2"
     id="link18_@2_0"
     x1="186.12656"
     y1="461.57422"
     x2="174.66519"
     y2="484.07617" />
  <line
     class="arc0"
     id="link18_@0_13"
     x1="186.12656"
     y1="461.57422"
     x2="312.65793"
     y2="468.73584" />
  <line
     class="arc1"
     id="link25_@1_26"
     x1="128.77817"
     y1="276.67584"
     x2="110.44009"
     y2="245.59494" />
  <polygon
     points="638.0557,579.9889 764.5872,587.1505 774.4873,591.20996 692.3168,602.23785 642.2108,607.0937 522.7389,600.33167 509.30902,591.8797 591.4795,580.85175 "
     id="face_7_6_5_4_3_2_1_0"
     style="fill:#c0c0c0;stroke:none"
     opacity="1"
     transform="translate(-463.39053,-95.91272)" />
  <line
     class="arc1"
     id="link0_@1_1"
     x1="174.66519"
     y1="484.07617"
     x2="128.08896"
     y2="484.93903" />
  <line
     class="arc0"
     id="link0_@0_7"
     x1="174.66519"
     y1="484.07617"
     x2="301.19669"
     y2="491.23779" />
  <line
     class="arc2"
     id="link23_@2_1"
     x1="110.44009"
     y1="462.97632"
     x2="128.08896"
     y2="484.93903" />
  <line
     class="arc0"
     id="link23_@0_28"
     x1="110.44009"
     y1="462.97632"
     x2="28.269623"
     y2="474.00427" />
  <line
     class="arc2"
     id="link21_@2_22"
     x1="186.12656"
     y1="244.19281"
     x2="176.78311"
     y2="224.88712" />
  <line
     class="arc0"
     id="link21_@0_16"
     x1="186.12656"
     y1="244.19281"
     x2="314.95023"
     y2="251.04678" />
  <line
     class="arc0"
     id="link1_@0_2"
     x1="128.08896"
     y1="484.93903"
     x2="45.918488"
     y2="495.96698" />
  <line
     class="arc2"
     id="link26_@2_27"
     x1="110.44009"
     y1="245.59494"
     x2="130.20682"
     y2="225.74997" />
  <line
     class="arc0"
     id="link26_@0_31"
     x1="110.44009"
     y1="245.59494"
     x2="28.269623"
     y2="256.62289" />
  <polygon
     points="511.4269,332.69064 593.59735,321.6627 640.17365,320.79984 771.28955,327.3462 790.35876,330.17502 756.5158,329.02557 742.7622,330.8714 680.68115,344.89462 639.74414,340.13437 524.8568,332.75705 "
     id="face_17_12_50_49_47_42_37_32_27_22"
     style="fill:#c0c0c0;stroke:none"
     opacity="1"
     transform="translate(-463.39053,-95.91272)" />
  <line
     class="arc1"
     id="link22_@1_27"
     x1="176.78311"
     y1="224.88712"
     x2="130.20682"
     y2="225.74997" />
  <line
     class="arc3"
     id="link22_@3_82"
     x1="176.78311"
     y1="224.88712"
     x2="178.72659"
     y2="208.66348" />
  <line
     class="arc0"
     id="link22_@0_17"
     x1="176.78311"
     y1="224.88712"
     x2="307.89902"
     y2="231.43347" />
  <polygon
     points="774.2962,261.74432 697.9466,138.80948 660.35657,137.1193 631.3534,254.09119 651.8177,287.04214 766.5223,293.097 "
     id="face_89_90_91_85_84_83"
     style="fill:#c0c0c0;stroke:none"
     opacity="1"
     transform="translate(-463.39053,-95.91272)" />
  <line
     class="arc1"
     id="link83_@1_84"
     x1="188.42715"
     y1="191.12943"
     x2="167.96286"
     y2="158.17847" />
  <line
     class="arc2"
     id="link83_@2_82"
     x1="188.42715"
     y1="191.12943"
     x2="178.72659"
     y2="208.66348" />
  <line
     class="arc0"
     id="link83_@0_89"
     x1="188.42715"
     y1="191.12943"
     x2="303.13174"
     y2="197.18427" />
  <line
     class="arc1"
     id="link82_@1_76"
     x1="178.72659"
     y1="208.66348"
     x2="132.15024"
     y2="209.52631" />
  <line
     class="arc0"
     id="link82_@0_88"
     x1="178.72659"
     y1="208.66348"
     x2="302.78299"
     y2="214.81027" />
  <line
     class="arc3"
     id="link27_@3_76"
     x1="130.20682"
     y1="225.74997"
     x2="132.15024"
     y2="209.52631" />
  <line
     class="arc0"
     id="link27_@0_32"
     x1="130.20682"
     y1="225.74997"
     x2="48.036377"
     y2="236.77792" />
  <line
     class="arc2"
     id="link84_@2_78"
     x1="167.96286"
     y1="158.17847"
     x2="144.67471"
     y2="158.60995" />
  <line
     class="arc0"
     id="link84_@0_85"
     x1="167.96286"
     y1="158.17847"
     x2="196.96603"
     y2="41.206573" />
  <polygon
     points="516.72577,266.78113 614.1459,140.62714 637.0685,137.55072 608.06525,254.52267 581.95325,288.33643 508.95184,298.1338 "
     id="face_71_72_73_79_78_77"
     style="fill:#c0c0c0;stroke:none"
     opacity="1"
     transform="translate(-463.39053,-95.91272)" />
  <line
     class="arc1"
     id="link77_@1_78"
     x1="118.56271"
     y1="192.42371"
     x2="144.67471"
     y2="158.60995" />
  <line
     class="arc2"
     id="link77_@2_76"
     x1="118.56271"
     y1="192.42371"
     x2="132.15024"
     y2="209.52631" />
  <line
     class="arc0"
     id="link77_@0_71"
     x1="118.56271"
     y1="192.42371"
     x2="45.56131"
     y2="202.22107" />
  <line
     class="arc0"
     id="link78_@0_79"
     x1="144.67471"
     y1="158.60995"
     x2="173.67795"
     y2="41.638" />
  <line
     class="arc0"
     id="link76_@0_70"
     x1="132.15024"
     y1="209.52631"
     x2="54.564301"
     y2="219.939" />
  <line
     class="arc1"
     id="link13_@1_14"
     x1="312.65793"
     y1="468.73584"
     x2="340.89621"
     y2="436.79205" />
  <line
     class="arc2"
     id="link13_@2_7"
     x1="312.65793"
     y1="468.73584"
     x2="301.19669"
     y2="491.23779" />
  <line
     class="arc1"
     id="link16_@1_15"
     x1="314.95023"
     y1="251.04678"
     x2="343.18839"
     y2="286.1871" />
  <line
     class="arc2"
     id="link16_@2_17"
     x1="314.95023"
     y1="251.04678"
     x2="307.89902"
     y2="231.43347" />
  <line
     class="arc1"
     id="link7_@1_6"
     x1="301.19669"
     y1="491.23779"
     x2="311.09677"
     y2="495.29724" />
  <line
     class="arc2"
     id="link14_@2_9"
     x1="340.89621"
     y1="436.79205"
     x2="347.08365"
     y2="436.81348" />
  <line
     class="arc0"
     id="link14_@0_15"
     x1="340.89621"
     y1="436.79205"
     x2="343.18839"
     y2="286.1871" />
  <line
     class="arc1"
     id="link89_@1_90"
     x1="303.13174"
     y1="197.18427"
     x2="310.90567"
     y2="165.8316" />
  <line
     class="arc2"
     id="link89_@2_88"
     x1="303.13174"
     y1="197.18427"
     x2="302.78299"
     y2="214.81027" />
  <line
     class="arc2"
     id="link15_@2_10"
     x1="343.18839"
     y1="286.1871"
     x2="351.66818"
     y2="285.90094" />
  <line
     class="arc1"
     id="link17_@1_12"
     x1="307.89902"
     y1="231.43347"
     x2="326.96823"
     y2="234.2623" />
  <line
     class="arc3"
     id="link17_@3_88"
     x1="307.89902"
     y1="231.43347"
     x2="302.78299"
     y2="214.81027" />
  <line
     class="arc1"
     id="link88_@1_94"
     x1="302.78299"
     y1="214.81027"
     x2="321.85208"
     y2="217.6391" />
  <polygon
     points="517.95483,315.8517 595.5408,305.43903 642.1171,304.5762 766.1735,310.723 785.2426,313.55182 755.9842,320.17255 737.6462,322.63367 680.14966,327.65616 642.7423,327.28842 527.855,319.9111 "
     id="face_88_94_100_106_52_58_64_70_76_82"
     style="fill:#c0c0c0;stroke:none"
     opacity="1"
     transform="translate(-463.39053,-95.91272)" />
  <polygon
     points="709.9657,579.7573 792.1361,568.7294 810.4742,532.7262 815.0587,381.81366 805.8897,349.50214 764.98724,339.5676 751.2336,341.41345 696.21216,364.22174 690.5729,403.3869 695.15735,544.6835 "
     id="face_10_11_51_48_46_45_44_43_8_9"
     style="fill:#c0c0c0;stroke:none"
     opacity="1"
     transform="translate(-463.39053,-95.91272)" />
  <line
     class="arc1"
     id="link9_@1_8"
     x1="347.08365"
     y1="436.81348"
     x2="328.74557"
     y2="472.81665" />
  <line
     class="arc0"
     id="link9_@0_10"
     x1="347.08365"
     y1="436.81348"
     x2="351.66818"
     y2="285.90094" />
  <line
     class="arc2"
     id="link90_@2_96"
     x1="310.90567"
     y1="165.8316"
     x2="320.44022"
     y2="167.246" />
  <line
     class="arc0"
     id="link90_@0_91"
     x1="310.90567"
     y1="165.8316"
     x2="234.55606"
     y2="42.896759" />
  <line
     class="arc1"
     id="link10_@1_11"
     x1="351.66818"
     y1="285.90094"
     x2="342.49918"
     y2="253.58942" />
  <line
     class="arc1"
     id="link28_@1_29"
     x1="28.269623"
     y1="474.00427"
     x2="6.4017334"
     y2="438.53082" />
  <line
     class="arc2"
     id="link28_@2_2"
     x1="28.269623"
     y1="474.00427"
     x2="45.918488"
     y2="495.96698" />
  <line
     class="arc2"
     id="link6_@2_8"
     x1="311.09677"
     y1="495.29724"
     x2="328.74557"
     y2="472.81665" />
  <line
     class="arc0"
     id="link6_@0_5"
     x1="311.09677"
     y1="495.29724"
     x2="228.92624"
     y2="506.32513" />
  <line
     class="arc2"
     id="link12_@2_11"
     x1="326.96823"
     y1="234.2623"
     x2="342.49918"
     y2="253.58942" />
  <line
     class="arc3"
     id="link12_@3_94"
     x1="326.96823"
     y1="234.2623"
     x2="321.85208"
     y2="217.6391" />
  <line
     class="arc0"
     id="link12_@0_50"
     x1="326.96823"
     y1="234.2623"
     x2="293.12527"
     y2="233.11285" />
  <line
     class="arc2"
     id="link94_@2_95"
     x1="321.85208"
     y1="217.6391"
     x2="331.7355"
     y2="201.42755" />
  <line
     class="arc0"
     id="link94_@0_100"
     x1="321.85208"
     y1="217.6391"
     x2="292.59366"
     y2="224.25983" />
  <line
     class="arc1"
     id="link2_@1_3"
     x1="45.918488"
     y1="495.96698"
     x2="59.348358"
     y2="504.41895" />
  <polygon
     points="700.7872,142.46933 742.9283,269.99524 763.3926,302.94614 795.12604,297.34027 783.83075,263.15872 707.4812,140.22388 "
     id="face_97_103_102_101_95_96"
     style="fill:#c0c0c0;stroke:none"
     opacity="1"
     transform="translate(-463.39053,-95.91272)" />
  <line
     class="arc1"
     id="link96_@1_95"
     x1="320.44022"
     y1="167.246"
     x2="331.7355"
     y2="201.42755" />
  <line
     class="arc0"
     id="link96_@0_97"
     x1="320.44022"
     y1="167.246"
     x2="244.09067"
     y2="44.311157" />
  <line
     class="arc1"
     id="link85_@1_91"
     x1="196.96603"
     y1="41.206573"
     x2="234.55606"
     y2="42.896759" />
  <line
     class="arc2"
     id="link85_@2_79"
     x1="196.96603"
     y1="41.206573"
     x2="173.67795"
     y2="41.638" />
  <line
     class="arc0"
     id="link11_@0_51"
     x1="342.49918"
     y1="253.58942"
     x2="301.59671"
     y2="243.65488" />
  <line
     class="arc0"
     id="link8_@0_43"
     x1="328.74557"
     y1="472.81665"
     x2="246.57516"
     y2="483.8446" />
  <line
     class="arc0"
     id="link95_@0_101"
     x1="331.7355"
     y1="201.42755"
     x2="300.00204"
     y2="207.03342" />
  <line
     class="arc1"
     id="link79_@1_73"
     x1="173.67795"
     y1="41.638"
     x2="150.75534"
     y2="44.714417" />
  <line
     class="arc1"
     id="link31_@1_30"
     x1="28.269623"
     y1="256.62289"
     x2="6.4017334"
     y2="296.61899" />
  <line
     class="arc2"
     id="link31_@2_32"
     x1="28.269623"
     y1="256.62289"
     x2="48.036377"
     y2="236.77792" />
  <line
     class="arc1"
     id="link71_@1_72"
     x1="45.56131"
     y1="202.22107"
     x2="53.335236"
     y2="170.86841" />
  <line
     class="arc2"
     id="link71_@2_70"
     x1="45.56131"
     y1="202.22107"
     x2="54.564301"
     y2="219.939" />
  <line
     class="arc2"
     id="link29_@2_34"
     x1="6.4017334"
     y1="438.53082"
     x2="2"
     y2="436.27582" />
  <line
     class="arc0"
     id="link29_@0_30"
     x1="6.4017334"
     y1="438.53082"
     x2="6.4017334"
     y2="296.61899" />
  <line
     class="arc2"
     id="link91_@2_97"
     x1="234.55606"
     y1="42.896759"
     x2="244.09067"
     y2="44.311157" />
  <line
     class="arc1"
     id="link32_@1_37"
     x1="48.036377"
     y1="236.77792"
     x2="61.466278"
     y2="236.84433" />
  <line
     class="arc3"
     id="link32_@3_70"
     x1="48.036377"
     y1="236.77792"
     x2="54.564301"
     y2="219.939" />
  <line
     class="arc1"
     id="link70_@1_64"
     x1="54.564301"
     y1="219.939"
     x2="64.464447"
     y2="223.99838" />
  <line
     class="arc2"
     id="link30_@2_35"
     x1="6.4017334"
     y1="296.61899"
     x2="2"
     y2="302.74951" />
  <line
     class="arc1"
     id="link97_@1_103"
     x1="244.09067"
     y1="44.311157"
     x2="237.39664"
     y2="46.55661" />
  <polygon
     points="481.9847,383.7052 534.6611,449.25705 534.6611,491.1846 481.9847,550.77356 465.39053,532.18854 465.39053,398.66223 "
     id="face_35_116_117_115_114_34"
     style="fill:#c0c0c0;stroke:none"
     opacity="1"
     transform="translate(-463.39053,-95.91272)" />
  <line
     class="arc1"
     id="link34_@1_114"
     x1="2"
     y1="436.27582"
     x2="18.594177"
     y2="454.86084" />
  <line
     class="arc0"
     id="link34_@0_35"
     x1="2"
     y1="436.27582"
     x2="2"
     y2="302.74951" />
  <line
     class="arc2"
     id="link73_@2_67"
     x1="150.75534"
     y1="44.714417"
     x2="155.70529"
     y2="46.744141" />
  <line
     class="arc0"
     id="link73_@0_72"
     x1="150.75534"
     y1="44.714417"
     x2="53.335236"
     y2="170.86841" />
  <line
     class="arc2"
     id="link72_@2_66"
     x1="53.335236"
     y1="170.86841"
     x2="58.285248"
     y2="172.8981" />
  <line
     class="arc2"
     id="link3_@2_33"
     x1="59.348358"
     y1="504.41895"
     x2="51.41684"
     y2="497.77136" />
  <line
     class="arc0"
     id="link3_@0_4"
     x1="59.348358"
     y1="504.41895"
     x2="178.82028"
     y2="511.18097" />
  <line
     class="arc1"
     id="link35_@1_116"
     x1="2"
     y1="302.74951"
     x2="18.594177"
     y2="287.79248" />
  <line
     class="arc2"
     id="link114_@2_112"
     x1="18.594177"
     y1="454.86084"
     x2="32.713257"
     y2="472.43097" />
  <line
     class="arc0"
     id="link114_@0_115"
     x1="18.594177"
     y1="454.86084"
     x2="71.270538"
     y2="395.27188" />
  <line
     class="arc2"
     id="link103_@2_109"
     x1="237.39664"
     y1="46.55661"
     x2="228.22763"
     y2="47.78714" />
  <line
     class="arc0"
     id="link103_@0_102"
     x1="237.39664"
     y1="46.55661"
     x2="279.53775"
     y2="174.08252" />
  <polygon
     points="652.1014,144.96231 660.03406,277.07925 633.9221,310.893 523.802,304.22293 521.6758,268.81082 619.0958,142.65686 "
     id="face_67_61_60_59_65_66"
     style="fill:#c0c0c0;stroke:none"
     opacity="1"
     transform="translate(-463.39053,-95.91272)" />
  <line
     class="arc1"
     id="link66_@1_65"
     x1="58.285248"
     y1="172.8981"
     x2="60.411469"
     y2="208.31021" />
  <line
     class="arc0"
     id="link66_@0_67"
     x1="58.285248"
     y1="172.8981"
     x2="155.70529"
     y2="46.744141" />
  <line
     class="arc1"
     id="link67_@1_61"
     x1="155.70529"
     y1="46.744141"
     x2="188.71085"
     y2="49.049591" />
  <polygon
     points="636.7543,576.30444 584.07794,510.75262 548.78015,508.75476 496.1038,568.3437 514.8074,593.6841 627.2197,600.0466 "
     id="face_38_126_127_113_112_33"
     style="fill:#c0c0c0;stroke:none"
     opacity="1"
     transform="translate(-463.39053,-95.91272)" />
  <line
     class="arc1"
     id="link33_@1_112"
     x1="51.41684"
     y1="497.77136"
     x2="32.713257"
     y2="472.43097" />
  <line
     class="arc0"
     id="link33_@0_38"
     x1="51.41684"
     y1="497.77136"
     x2="163.82919"
     y2="504.13385" />
  <line
     class="arc0"
     id="link112_@0_113"
     x1="32.713257"
     y1="472.43097"
     x2="85.389618"
     y2="412.84204" />
  <line
     class="arc1"
     id="link101_@1_102"
     x1="300.00204"
     y1="207.03342"
     x2="279.53775"
     y2="174.08252" />
  <line
     class="arc2"
     id="link101_@2_100"
     x1="300.00204"
     y1="207.03342"
     x2="292.59366"
     y2="224.25983" />
  <line
     class="arc2"
     id="link64_@2_65"
     x1="64.464447"
     y1="223.99838"
     x2="60.411469"
     y2="208.31021" />
  <line
     class="arc3"
     id="link64_@3_37"
     x1="64.464447"
     y1="223.99838"
     x2="61.466278"
     y2="236.84433" />
  <line
     class="arc0"
     id="link64_@0_58"
     x1="64.464447"
     y1="223.99838"
     x2="179.35178"
     y2="231.3757" />
  <line
     class="arc2"
     id="link37_@2_36"
     x1="61.466278"
     y1="236.84433"
     x2="51.41684"
     y2="246.84796" />
  <line
     class="arc0"
     id="link37_@0_42"
     x1="61.466278"
     y1="236.84433"
     x2="176.35361"
     y2="244.22165" />
  <line
     class="arc1"
     id="link100_@1_106"
     x1="292.59366"
     y1="224.25983"
     x2="274.25565"
     y2="226.72095" />
  <line
     class="arc3"
     id="link100_@3_50"
     x1="292.59366"
     y1="224.25983"
     x2="293.12527"
     y2="233.11285" />
  <line
     class="arc2"
     id="link116_@2_118"
     x1="18.594177"
     y1="287.79248"
     x2="32.713257"
     y2="271.82062" />
  <line
     class="arc0"
     id="link116_@0_117"
     x1="18.594177"
     y1="287.79248"
     x2="71.270538"
     y2="353.34433" />
  <polygon
     points="735.88544,306.63785 690.03296,311.44458 678.73773,277.26306 670.80505,145.14612 691.61816,143.69986 733.7593,271.22577 "
     id="face_108_107_53_54_55_109"
     style="fill:#c0c0c0;stroke:none"
     opacity="1"
     transform="translate(-463.39053,-95.91272)" />
  <line
     class="arc1"
     id="link109_@1_55"
     x1="228.22763"
     y1="47.78714"
     x2="207.41452"
     y2="49.233398" />
  <line
     class="arc0"
     id="link109_@0_108"
     x1="228.22763"
     y1="47.78714"
     x2="270.36874"
     y2="175.31305" />
  <line
     class="arc1"
     id="link50_@1_49"
     x1="293.12527"
     y1="233.11285"
     x2="279.37167"
     y2="234.95868" />
  <line
     class="arc2"
     id="link50_@2_51"
     x1="293.12527"
     y1="233.11285"
     x2="301.59671"
     y2="243.65488" />
  <line
     class="arc2"
     id="link102_@2_108"
     x1="279.53775"
     y1="174.08252"
     x2="270.36874"
     y2="175.31305" />
  <line
     class="arc1"
     id="link51_@1_48"
     x1="301.59671"
     y1="243.65488"
     x2="287.84305"
     y2="245.50073" />
  <line
     class="arc0"
     id="link65_@0_59"
     x1="60.411469"
     y1="208.31021"
     x2="170.53159"
     y2="214.98029" />
  <polygon
     points="584.07794,435.283 636.7543,375.69412 624.9275,349.4308 514.8074,342.76068 496.1038,367.73334 548.78015,433.28516 "
     id="face_119_121_120_41_36_118"
     style="fill:#c0c0c0;stroke:none"
     opacity="1"
     transform="translate(-463.39053,-95.91272)" />
  <line
     class="arc1"
     id="link118_@1_36"
     x1="32.713257"
     y1="271.82062"
     x2="51.41684"
     y2="246.84796" />
  <line
     class="arc0"
     id="link118_@0_119"
     x1="32.713257"
     y1="271.82062"
     x2="85.389618"
     y2="337.37244" />
  <line
     class="arc0"
     id="link36_@0_41"
     x1="51.41684"
     y1="246.84796"
     x2="161.53696"
     y2="253.51807" />
  <line
     class="arc2"
     id="link61_@2_55"
     x1="188.71085"
     y1="49.049591"
     x2="207.41452"
     y2="49.233398" />
  <line
     class="arc0"
     id="link61_@0_60"
     x1="188.71085"
     y1="49.049591"
     x2="196.64352"
     y2="181.16653" />
  <line
     class="arc0"
     id="link55_@0_54"
     x1="207.41452"
     y1="49.233398"
     x2="215.3472"
     y2="181.35034" />
  <line
     class="arc1"
     id="link108_@1_107"
     x1="270.36874"
     y1="175.31305"
     x2="272.4949"
     y2="210.72513" />
  <line
     class="arc2"
     id="link49_@2_48"
     x1="279.37167"
     y1="234.95868"
     x2="287.84305"
     y2="245.50073" />
  <line
     class="arc3"
     id="link49_@3_106"
     x1="279.37167"
     y1="234.95868"
     x2="274.25565"
     y2="226.72095" />
  <line
     class="arc0"
     id="link49_@0_47"
     x1="279.37167"
     y1="234.95868"
     x2="217.29062"
     y2="248.9819" />
  <line
     class="arc1"
     id="link115_@1_117"
     x1="71.270538"
     y1="395.27188"
     x2="71.270538"
     y2="353.34433" />
  <line
     class="arc2"
     id="link115_@2_113"
     x1="71.270538"
     y1="395.27188"
     x2="85.389618"
     y2="412.84204" />
  <line
     class="arc2"
     id="link106_@2_107"
     x1="274.25565"
     y1="226.72095"
     x2="272.4949"
     y2="210.72513" />
  <line
     class="arc0"
     id="link106_@0_52"
     x1="274.25565"
     y1="226.72095"
     x2="216.75912"
     y2="231.74344" />
  <line
     class="arc0"
     id="link48_@0_46"
     x1="287.84305"
     y1="245.50073"
     x2="232.82162"
     y2="268.30902" />
  <line
     class="arc2"
     id="link117_@2_119"
     x1="71.270538"
     y1="353.34433"
     x2="85.389618"
     y2="337.37244" />
  <line
     class="arc1"
     id="link113_@1_127"
     x1="85.389618"
     y1="412.84204"
     x2="120.68741"
     y2="414.8399" />
  <line
     class="arc0"
     id="link107_@0_53"
     x1="272.4949"
     y1="210.72513"
     x2="226.64243"
     y2="215.53186" />
  <line
     class="arc1"
     id="link119_@1_121"
     x1="85.389618"
     y1="337.37244"
     x2="120.68741"
     y2="339.37027" />
  <line
     class="arc1"
     id="link5_@1_4"
     x1="228.92624"
     y1="506.32513"
     x2="178.82028"
     y2="511.18097" />
  <line
     class="arc2"
     id="link5_@2_43"
     x1="228.92624"
     y1="506.32513"
     x2="246.57516"
     y2="483.8446" />
  <line
     class="arc2"
     id="link4_@2_38"
     x1="178.82028"
     y1="511.18097"
     x2="163.82919"
     y2="504.13385" />
  <line
     class="arc1"
     id="link43_@1_44"
     x1="246.57516"
     y1="483.8446"
     x2="231.76682"
     y2="448.77075" />
  <line
     class="arc2"
     id="link127_@2_125"
     x1="120.68741"
     y1="414.8399"
     x2="134.80649"
     y2="398.86798" />
  <line
     class="arc0"
     id="link127_@0_126"
     x1="120.68741"
     y1="414.8399"
     x2="173.36374"
     y2="480.39172" />
  <line
     class="arc2"
     id="link121_@2_123"
     x1="120.68741"
     y1="339.37027"
     x2="134.80649"
     y2="356.94043" />
  <line
     class="arc0"
     id="link121_@0_120"
     x1="120.68741"
     y1="339.37027"
     x2="173.36374"
     y2="279.7814" />
  <line
     class="arc1"
     id="link38_@1_126"
     x1="163.82919"
     y1="504.13385"
     x2="173.36374"
     y2="480.39172" />
  <polygon
     points="676.6365,544.14496 674.3443,410.92633 650.8734,393.26422 598.197,452.85315 598.197,494.7807 650.8734,560.3326 "
     id="face_124_39_40_122_123_125"
     style="fill:#c0c0c0;stroke:none"
     opacity="1"
     transform="translate(-463.39053,-95.91272)" />
  <line
     class="arc1"
     id="link125_@1_123"
     x1="134.80649"
     y1="398.86798"
     x2="134.80649"
     y2="356.94043" />
  <line
     class="arc0"
     id="link125_@0_124"
     x1="134.80649"
     y1="398.86798"
     x2="187.48288"
     y2="464.41986" />
  <line
     class="arc0"
     id="link123_@0_122"
     x1="134.80649"
     y1="356.94043"
     x2="187.48288"
     y2="297.3515" />
  <line
     class="arc1"
     id="link58_@1_52"
     x1="179.35178"
     y1="231.3757"
     x2="216.75912"
     y2="231.74344" />
  <line
     class="arc2"
     id="link58_@2_59"
     x1="179.35178"
     y1="231.3757"
     x2="170.53159"
     y2="214.98029" />
  <line
     class="arc3"
     id="link58_@3_42"
     x1="179.35178"
     y1="231.3757"
     x2="176.35361"
     y2="244.22165" />
  <line
     class="arc1"
     id="link42_@1_47"
     x1="176.35361"
     y1="244.22165"
     x2="217.29062"
     y2="248.9819" />
  <line
     class="arc2"
     id="link42_@2_41"
     x1="176.35361"
     y1="244.22165"
     x2="161.53696"
     y2="253.51807" />
  <line
     class="arc2"
     id="link52_@2_53"
     x1="216.75912"
     y1="231.74344"
     x2="226.64243"
     y2="215.53186" />
  <line
     class="arc3"
     id="link52_@3_47"
     x1="216.75912"
     y1="231.74344"
     x2="217.29062"
     y2="248.9819" />
  <line
     class="arc2"
     id="link126_@2_124"
     x1="173.36374"
     y1="480.39172"
     x2="187.48288"
     y2="464.41986" />
  <line
     class="arc1"
     id="link60_@1_59"
     x1="196.64352"
     y1="181.16653"
     x2="170.53159"
     y2="214.98029" />
  <line
     class="arc2"
     id="link60_@2_54"
     x1="196.64352"
     y1="181.16653"
     x2="215.3472"
     y2="181.35034" />
  <line
     class="arc2"
     id="link47_@2_46"
     x1="217.29062"
     y1="248.9819"
     x2="232.82162"
     y2="268.30902" />
  <line
     class="arc1"
     id="link54_@1_53"
     x1="215.3472"
     y1="181.35034"
     x2="226.64243"
     y2="215.53186" />
  <line
     class="arc2"
     id="link44_@2_39"
     x1="231.76682"
     y1="448.77075"
     x2="213.24594"
     y2="448.23224" />
  <line
     class="arc0"
     id="link44_@0_45"
     x1="231.76682"
     y1="448.77075"
     x2="227.18234"
     y2="307.47418" />
  <line
     class="arc1"
     id="link41_@1_120"
     x1="161.53696"
     y1="253.51807"
     x2="173.36374"
     y2="279.7814" />
  <line
     class="arc1"
     id="link124_@1_39"
     x1="187.48288"
     y1="464.41986"
     x2="213.24594"
     y2="448.23224" />
  <line
     class="arc1"
     id="link46_@1_45"
     x1="232.82162"
     y1="268.30902"
     x2="227.18234"
     y2="307.47418" />
  <line
     class="arc2"
     id="link120_@2_122"
     x1="173.36374"
     y1="279.7814"
     x2="187.48288"
     y2="297.3515" />
  <line
     class="arc0"
     id="link39_@0_40"
     x1="213.24594"
     y1="448.23224"
     x2="210.95377"
     y2="315.01361" />
  <line
     class="arc2"
     id="link45_@2_40"
     x1="227.18234"
     y1="307.47418"
     x2="210.95377"
     y2="315.01361" />
  <line
     class="arc1"
     id="link122_@1_40"
     x1="187.48288"
     y1="297.3515"
     x2="210.95377"
     y2="315.01361" />
  <text
     xml:space="preserve"
     style="font-style:normal;font-variant:normal;font-weight:normal;font-stretch:normal;font-size:48px;font-family:'Liberation Serif';-inkscape-font-specification:'Liberation Serif, Normal';font-variant-ligatures:normal;font-variant-caps:normal;font-variant-numeric:normal;font-variant-east-asian:normal;fill:#000000;fill-opacity:1;stroke:none;stroke-width:3.78;stroke-linecap:round;stroke-linejoin:round;stop-color:#000000"
     x="189.10263"
     y="31.921875"
     id="text36032-2"><tspan
       sodipodi:role="line"
       x="189.10263"
       y="31.921875"
       id="tspan40755-2">55</tspan></text>
  <circle
     id="dart109"
     cx="207.41452"
     cy="47.78714"
     r="10"
     stroke="#000000"
     fill="#000000"
     style="fill:#000000;fill-opacity:1" />
</svg>
