<?xml version="1.0" encoding="UTF-8" standalone="no"?>
<!-- Created with Jerboa -->

<svg
   width="441.93448"
   height="752.6333"
   version="1.1"
   id="svg993"
   sodipodi:docname="6-reevaluation-collapse.svg"
   xml:space="preserve"
   inkscape:version="1.2.2 (b0a8486541, 2022-12-01)"
   xmlns:inkscape="http://www.inkscape.org/namespaces/inkscape"
   xmlns:sodipodi="http://sodipodi.sourceforge.net/DTD/sodipodi-0.dtd"
   xmlns="http://www.w3.org/2000/svg"
   xmlns:svg="http://www.w3.org/2000/svg"><defs
     id="defs997" /><sodipodi:namedview
     id="namedview995"
     pagecolor="#ffffff"
     bordercolor="#000000"
     borderopacity="0.25"
     inkscape:showpageshadow="2"
     inkscape:pageopacity="0.0"
     inkscape:pagecheckerboard="0"
     inkscape:deskcolor="#d1d1d1"
     showgrid="false"
     inkscape:zoom="0.87552743"
     inkscape:cx="376.34458"
     inkscape:cy="233.57349"
     inkscape:window-width="1908"
     inkscape:window-height="1048"
     inkscape:window-x="1085"
     inkscape:window-y="25"
     inkscape:window-maximized="1"
     inkscape:current-layer="g6742" /><style
     id="style">
		.arc0 {
			fill:none;
			fill-rule:evenodd;
			stroke:black;
			stroke-width:4;
			stroke-linecap:round;
			stroke-linejoin:round;
			stroke-opacity:1;
		}
		.arc1 {
			fill:none;
			fill-rule:evenodd;
			stroke:red;
			stroke-width:4;
			stroke-linecap:round;
			stroke-linejoin:round;
			stroke-opacity:1;
		}
		.arc2 {
			fill:none;
			fill-rule:evenodd;
			stroke:blue;
			stroke-width:4;
			stroke-linecap:round;
			stroke-linejoin:round;
			stroke-opacity:1;
		}
		.arc3 {
			fill:none;
			fill-rule:evenodd;
			stroke:green;
			stroke-width:4;
			stroke-linecap:round;
			stroke-linejoin:round;
			stroke-opacity:1;
		}
		.topological-dart {
			fill:#000000;
			stroke:#000000;
			stroke-width:0;
			stroke-linecap:round;
			stroke-linejoin:round;
			stroke-dasharray:none;
			paint-order:markers fill stroke;
		}
	</style><style
     id="style-3">
		.arc0 {
			fill:none;
			fill-rule:evenodd;
			stroke:black;
			stroke-width:4;
			stroke-linecap:round;
			stroke-linejoin:round;
			stroke-opacity:1;
		}
		.arc1 {
			fill:none;
			fill-rule:evenodd;
			stroke:red;
			stroke-width:4;
			stroke-linecap:round;
			stroke-linejoin:round;
			stroke-opacity:1;
		}
		.arc2 {
			fill:none;
			fill-rule:evenodd;
			stroke:blue;
			stroke-width:4;
			stroke-linecap:round;
			stroke-linejoin:round;
			stroke-opacity:1;
		}
		.arc3 {
			fill:none;
			fill-rule:evenodd;
			stroke:green;
			stroke-width:4;
			stroke-linecap:round;
			stroke-linejoin:round;
			stroke-opacity:1;
		}
		.topological-dart {
			fill:#000000;
			stroke:#000000;
			stroke-width:0;
			stroke-linecap:round;
			stroke-linejoin:round;
			stroke-dasharray:none;
			paint-order:markers fill stroke;
		}
	</style><style
     id="style-1">
		.arc0 {
			fill:none;
			fill-rule:evenodd;
			stroke:black;
			stroke-width:4;
			stroke-linecap:round;
			stroke-linejoin:round;
			stroke-opacity:1;
		}
		.arc1 {
			fill:none;
			fill-rule:evenodd;
			stroke:red;
			stroke-width:4;
			stroke-linecap:round;
			stroke-linejoin:round;
			stroke-opacity:1;
		}
		.arc2 {
			fill:none;
			fill-rule:evenodd;
			stroke:blue;
			stroke-width:4;
			stroke-linecap:round;
			stroke-linejoin:round;
			stroke-opacity:1;
		}
		.arc3 {
			fill:none;
			fill-rule:evenodd;
			stroke:green;
			stroke-width:4;
			stroke-linecap:round;
			stroke-linejoin:round;
			stroke-opacity:1;
		}
		.topological-dart {
			fill:#000000;
			stroke:#000000;
			stroke-width:0;
			stroke-linecap:round;
			stroke-linejoin:round;
			stroke-dasharray:none;
			paint-order:markers fill stroke;
		}
	</style><style
     id="style-7">
		.arc0 {
			fill:none;
			fill-rule:evenodd;
			stroke:black;
			stroke-width:4;
			stroke-linecap:round;
			stroke-linejoin:round;
			stroke-opacity:1;
		}
		.arc1 {
			fill:none;
			fill-rule:evenodd;
			stroke:red;
			stroke-width:4;
			stroke-linecap:round;
			stroke-linejoin:round;
			stroke-opacity:1;
		}
		.arc2 {
			fill:none;
			fill-rule:evenodd;
			stroke:blue;
			stroke-width:4;
			stroke-linecap:round;
			stroke-linejoin:round;
			stroke-opacity:1;
		}
		.arc3 {
			fill:none;
			fill-rule:evenodd;
			stroke:green;
			stroke-width:4;
			stroke-linecap:round;
			stroke-linejoin:round;
			stroke-opacity:1;
		}
		.topological-dart {
			fill:#000000;
			stroke:#000000;
			stroke-width:0;
			stroke-linecap:round;
			stroke-linejoin:round;
			stroke-dasharray:none;
			paint-order:markers fill stroke;
		}
	</style><style
     id="style-0">
		.arc0 {
			fill:none;
			fill-rule:evenodd;
			stroke:black;
			stroke-width:4;
			stroke-linecap:round;
			stroke-linejoin:round;
			stroke-opacity:1;
		}
		.arc1 {
			fill:none;
			fill-rule:evenodd;
			stroke:red;
			stroke-width:4;
			stroke-linecap:round;
			stroke-linejoin:round;
			stroke-opacity:1;
		}
		.arc2 {
			fill:none;
			fill-rule:evenodd;
			stroke:blue;
			stroke-width:4;
			stroke-linecap:round;
			stroke-linejoin:round;
			stroke-opacity:1;
		}
		.arc3 {
			fill:none;
			fill-rule:evenodd;
			stroke:green;
			stroke-width:4;
			stroke-linecap:round;
			stroke-linejoin:round;
			stroke-opacity:1;
		}
		.topological-dart {
			fill:#000000;
			stroke:#000000;
			stroke-width:0;
			stroke-linecap:round;
			stroke-linejoin:round;
			stroke-dasharray:none;
			paint-order:markers fill stroke;
		}
	</style><style
     id="style-9">
		.arc0 {
			fill:none;
			fill-rule:evenodd;
			stroke:black;
			stroke-width:4;
			stroke-linecap:round;
			stroke-linejoin:round;
			stroke-opacity:1;
		}
		.arc1 {
			fill:none;
			fill-rule:evenodd;
			stroke:red;
			stroke-width:4;
			stroke-linecap:round;
			stroke-linejoin:round;
			stroke-opacity:1;
		}
		.arc2 {
			fill:none;
			fill-rule:evenodd;
			stroke:blue;
			stroke-width:4;
			stroke-linecap:round;
			stroke-linejoin:round;
			stroke-opacity:1;
		}
		.arc3 {
			fill:none;
			fill-rule:evenodd;
			stroke:green;
			stroke-width:4;
			stroke-linecap:round;
			stroke-linejoin:round;
			stroke-opacity:1;
		}
		.topological-dart {
			fill:#000000;
			stroke:#000000;
			stroke-width:0;
			stroke-linecap:round;
			stroke-linejoin:round;
			stroke-dasharray:none;
			paint-order:markers fill stroke;
		}
	</style><g
     id="g6742"
     transform="matrix(1.2242424,0,0,1.2242424,-664.99257,-26.463108)"><g
       id="g11098"
       transform="matrix(1.0021441,0,0,1.0021441,-1.5516272,-0.97745385)"><polygon
         points="900.8656,514.86536 873.3697,538.13086 743.6794,495.41486 716.1835,454.03677 716.1835,301.584 743.6794,278.3185 873.3697,321.0345 900.8656,362.41257 "
         id="face_27_28_33_32_31_30_25_26"
         style="fill:#c0c0c0;stroke:none"
         opacity="1" /><line
         class="arc1"
         id="link26_@1_25"
         x1="716.18347"
         y1="454.03677"
         x2="743.67938"
         y2="495.41486" /><line
         class="arc2"
         id="link26_@2_21"
         x1="716.18347"
         y1="454.03677"
         x2="703.74304"
         y2="454.5686" /><line
         class="arc0"
         id="link26_@0_27"
         x1="716.18347"
         y1="454.03677"
         x2="716.18347"
         y2="301.58401" /><polygon
         points="549.0349,523.9473 573.0191,549.6918 681.47736,498.07397 703.74304,454.5686 703.74304,302.11588 681.47736,280.97766 573.0191,332.59543 549.0349,379.57504 "
         id="face_22_23_18_17_16_15_20_21"
         style="fill:#c0c0c0;stroke:none"
         opacity="1" /><line
         class="arc1"
         id="link21_@1_20"
         x1="703.74304"
         y1="454.5686"
         x2="681.47736"
         y2="498.07397" /><line
         class="arc0"
         id="link21_@0_22"
         x1="703.74304"
         y1="454.5686"
         x2="703.74304"
         y2="302.11588" /><line
         class="arc2"
         id="link25_@2_0"
         x1="743.67938"
         y1="495.41486"
         x2="738.11292"
         y2="506.2912" /><line
         class="arc0"
         id="link25_@0_30"
         x1="743.67938"
         y1="495.41486"
         x2="873.36969"
         y2="538.13086" /><polygon
         points="657.739,617.4924 626.80615,607.3041 569.6568,579.2222 576.4561,558.9043 688.35126,508.41852 738.1129,506.2912 867.8033,549.0072 873.03345,569.2471 774.88617,624.261 737.15405,634.3906 "
         id="face_7_6_5_4_9_8_3_2_1_0"
         style="fill:#c0c0c0;stroke:none"
         opacity="1" /><line
         class="arc1"
         id="link0_@1_1"
         x1="738.11292"
         y1="506.2912"
         x2="688.35126"
         y2="508.41852" /><line
         class="arc0"
         id="link0_@0_7"
         x1="738.11292"
         y1="506.2912"
         x2="867.80328"
         y2="549.0072" /><line
         class="arc2"
         id="link20_@2_1"
         x1="681.47736"
         y1="498.07397"
         x2="688.35126"
         y2="508.41852" /><line
         class="arc0"
         id="link20_@0_15"
         x1="681.47736"
         y1="498.07397"
         x2="573.0191"
         y2="549.69177" /><line
         class="arc0"
         id="link1_@0_2"
         x1="688.35126"
         y1="508.41852"
         x2="576.45612"
         y2="558.9043" /><line
         class="arc1"
         id="link27_@1_28"
         x1="716.18347"
         y1="301.58401"
         x2="743.67938"
         y2="278.31851" /><line
         class="arc2"
         id="link27_@2_22"
         x1="716.18347"
         y1="301.58401"
         x2="703.74304"
         y2="302.11588" /><line
         class="arc1"
         id="link22_@1_23"
         x1="703.74304"
         y1="302.11588"
         x2="681.47736"
         y2="280.97766" /><line
         class="arc1"
         id="link30_@1_31"
         x1="873.36969"
         y1="538.13086"
         x2="900.8656"
         y2="514.86536" /><line
         class="arc2"
         id="link30_@2_7"
         x1="873.36969"
         y1="538.13086"
         x2="867.80328"
         y2="549.0072" /><line
         class="arc2"
         id="link28_@2_29"
         x1="743.67938"
         y1="278.31851"
         x2="738.11292"
         y2="273.034" /><line
         class="arc0"
         id="link28_@0_33"
         x1="743.67938"
         y1="278.31851"
         x2="873.36969"
         y2="321.03448" /><line
         class="arc1"
         id="link7_@1_6"
         x1="867.80328"
         y1="549.0072"
         x2="873.03345"
         y2="569.24707" /><line
         class="arc2"
         id="link23_@2_24"
         x1="681.47736"
         y1="280.97766"
         x2="688.35126"
         y2="275.16132" /><line
         class="arc0"
         id="link23_@0_18"
         x1="681.47736"
         y1="280.97766"
         x2="573.0191"
         y2="332.59543" /><polygon
         points="657.739,376.15472 626.80615,365.9664 569.6568,337.88458 576.4561,325.64706 688.35126,275.16132 738.1129,273.034 867.8033,315.74997 873.03345,335.98984 774.88617,391.00372 737.15405,393.05298 "
         id="face_34_39_44_49_54_59_14_19_24_29"
         style="fill:#c0c0c0;stroke:none"
         opacity="1" /><line
         class="arc1"
         id="link29_@1_24"
         x1="738.11292"
         y1="273.034"
         x2="688.35126"
         y2="275.16132" /><line
         class="arc3"
         id="link29_@3_102"
         x1="738.11292"
         y1="273.034"
         x2="738.21002"
         y2="259.68271" /><line
         class="arc0"
         id="link29_@0_34"
         x1="738.11292"
         y1="273.034"
         x2="867.80328"
         y2="315.74997" /><line
         class="arc3"
         id="link24_@3_96"
         x1="688.35126"
         y1="275.16132"
         x2="688.44843"
         y2="261.81003" /><line
         class="arc0"
         id="link24_@0_19"
         x1="688.35126"
         y1="275.16132"
         x2="576.45612"
         y2="325.64706" /><polygon
         points="658.2471,362.34973 630.7512,353.29343 573.6019,325.2116 582.1197,309.49988 688.4484,261.81003 738.21,259.6827 861.0264,300.1346 866.25665,320.3745 773.67584,372.59247 737.6621,379.24796 "
         id="face_108_114_60_66_72_78_84_90_96_102"
         style="fill:#c0c0c0;stroke:none"
         opacity="1" /><line
         class="arc1"
         id="link102_@1_96"
         x1="738.21002"
         y1="259.68271"
         x2="688.44843"
         y2="261.81003" /><line
         class="arc2"
         id="link102_@2_103"
         x1="738.21002"
         y1="259.68271"
         x2="743.87366"
         y2="251.61594" /><line
         class="arc0"
         id="link102_@0_108"
         x1="738.21002"
         y1="259.68271"
         x2="861.02643"
         y2="300.13461" /><line
         class="arc1"
         id="link2_@1_3"
         x1="576.45612"
         y1="558.9043"
         x2="569.6568"
         y2="579.22223" /><line
         class="arc2"
         id="link2_@2_15"
         x1="576.45612"
         y1="558.9043"
         x2="573.0191"
         y2="549.69177" /><line
         class="arc1"
         id="link15_@1_16"
         x1="573.0191"
         y1="549.69177"
         x2="549.03491"
         y2="523.94733" /><polygon
         points="716.76624,221.4761 743.87366,251.61594 859.81604,289.8037 860.2045,268.72018 752.6772,149.16418 718.3073,137.84387 "
         id="face_109_110_111_105_104_103"
         style="fill:#c0c0c0;stroke:none"
         opacity="1" /><line
         class="arc1"
         id="link103_@1_104"
         x1="743.87366"
         y1="251.61594"
         x2="716.76624"
         y2="221.4761" /><line
         class="arc0"
         id="link103_@0_109"
         x1="743.87366"
         y1="251.61594"
         x2="859.81604"
         y2="289.80371" /><line
         class="arc2"
         id="link96_@2_97"
         x1="688.44843"
         y1="261.81003"
         x2="681.67157"
         y2="254.27502" /><line
         class="arc0"
         id="link96_@0_90"
         x1="688.44843"
         y1="261.81003"
         x2="582.11969"
         y2="309.49988" /><polygon
         points="704.3258,222.00793 681.6716,254.27502 584.34625,300.30106 584.7348,279.21753 674.5978,151.22308 705.8669,138.37567 "
         id="face_91_92_93_99_98_97"
         style="fill:#c0c0c0;stroke:none"
         opacity="1" /><line
         class="arc1"
         id="link97_@1_98"
         x1="681.67157"
         y1="254.27502"
         x2="704.32581"
         y2="222.00793" /><line
         class="arc0"
         id="link97_@0_91"
         x1="681.67157"
         y1="254.27502"
         x2="584.34625"
         y2="300.30106" /><line
         class="arc2"
         id="link31_@2_36"
         x1="900.8656"
         y1="514.86536"
         x2="902.1731"
         y2="519.92529" /><line
         class="arc0"
         id="link31_@0_32"
         x1="900.8656"
         y1="514.86536"
         x2="900.8656"
         y2="362.41257" /><polygon
         points="757.77594,592.70013 778.3232,617.31256 879.9074,563.43066 902.1731,519.9253 902.1731,367.47253 879.9074,346.33432 778.3232,400.2162 757.77594,448.32785 "
         id="face_37_38_43_42_41_40_35_36"
         style="fill:#c0c0c0;stroke:none"
         opacity="1" /><line
         class="arc1"
         id="link36_@1_35"
         x1="902.1731"
         y1="519.92529"
         x2="879.90741"
         y2="563.43066" /><line
         class="arc0"
         id="link36_@0_37"
         x1="902.1731"
         y1="519.92529"
         x2="902.1731"
         y2="367.47253" /><line
         class="arc2"
         id="link104_@2_98"
         x1="716.76624"
         y1="221.4761"
         x2="704.32581"
         y2="222.00793" /><line
         class="arc0"
         id="link104_@0_105"
         x1="716.76624"
         y1="221.4761"
         x2="718.30731"
         y2="137.84387" /><line
         class="arc2"
         id="link6_@2_35"
         x1="873.03345"
         y1="569.24707"
         x2="879.90741"
         y2="563.43066" /><line
         class="arc0"
         id="link6_@0_5"
         x1="873.03345"
         y1="569.24707"
         x2="774.88617"
         y2="624.26099" /><line
         class="arc0"
         id="link98_@0_99"
         x1="704.32581"
         y1="222.00793"
         x2="705.86688"
         y2="138.37567" /><line
         class="arc0"
         id="link35_@0_40"
         x1="879.90741"
         y1="563.43066"
         x2="778.32318"
         y2="617.31256" /><line
         class="arc2"
         id="link3_@2_10"
         x1="569.6568"
         y1="579.22223"
         x2="565.8089"
         y2="578.54395" /><line
         class="arc0"
         id="link3_@0_8"
         x1="569.6568"
         y1="579.22223"
         x2="626.80615"
         y2="607.30408" /><line
         class="arc2"
         id="link16_@2_11"
         x1="549.03491"
         y1="523.94733"
         x2="545.18701"
         y2="523.26904" /><line
         class="arc0"
         id="link16_@0_17"
         x1="549.03491"
         y1="523.94733"
         x2="549.03491"
         y2="379.57504" /><polygon
         points="553.3685,554.8344 565.8089,578.54395 621.6507,601.56573 625.08765,578.4565 597.82056,505.3698 580.6356,499.7096 "
         id="face_55_120_121_135_134_10"
         style="fill:#c0c0c0;stroke:none"
         opacity="1" /><line
         class="arc1"
         id="link10_@1_134"
         x1="565.8089"
         y1="578.54395"
         x2="553.36853"
         y2="554.83441" /><line
         class="arc0"
         id="link10_@0_55"
         x1="565.8089"
         y1="578.54395"
         x2="621.6507"
         y2="601.56573" /><polygon
         points="549.9315,545.62195 545.187,523.26904 545.187,386.97714 549.9315,377.00824 577.1986,450.0949 577.1986,490.49713 "
         id="face_12_130_131_133_132_11"
         style="fill:#c0c0c0;stroke:none"
         opacity="1" /><line
         class="arc1"
         id="link11_@1_132"
         x1="545.18701"
         y1="523.26904"
         x2="549.93152"
         y2="545.62195" /><line
         class="arc0"
         id="link11_@0_12"
         x1="545.18701"
         y1="523.26904"
         x2="545.18701"
         y2="386.97714" /><line
         class="arc2"
         id="link134_@2_132"
         x1="553.36853"
         y1="554.83441"
         x2="549.93152"
         y2="545.62195" /><line
         class="arc0"
         id="link134_@0_135"
         x1="553.36853"
         y1="554.83441"
         x2="580.63562"
         y2="499.70959" /><line
         class="arc0"
         id="link132_@0_133"
         x1="549.93152"
         y1="545.62195"
         x2="577.19861"
         y2="490.49713" /><line
         class="arc1"
         id="link33_@1_32"
         x1="873.36969"
         y1="321.03448"
         x2="900.8656"
         y2="362.41257" /><line
         class="arc2"
         id="link33_@2_34"
         x1="873.36969"
         y1="321.03448"
         x2="867.80328"
         y2="315.74997" /><line
         class="arc2"
         id="link32_@2_37"
         x1="900.8656"
         y1="362.41257"
         x2="902.1731"
         y2="367.47253" /><line
         class="arc1"
         id="link34_@1_39"
         x1="867.80328"
         y1="315.74997"
         x2="873.03345"
         y2="335.98984" /><line
         class="arc3"
         id="link34_@3_108"
         x1="867.80328"
         y1="315.74997"
         x2="861.02643"
         y2="300.13461" /><line
         class="arc1"
         id="link109_@1_110"
         x1="859.81604"
         y1="289.80371"
         x2="860.20453"
         y2="268.72018" /><line
         class="arc2"
         id="link109_@2_108"
         x1="859.81604"
         y1="289.80371"
         x2="861.02643"
         y2="300.13461" /><line
         class="arc1"
         id="link37_@1_38"
         x1="902.1731"
         y1="367.47253"
         x2="879.90741"
         y2="346.33432" /><line
         class="arc1"
         id="link108_@1_114"
         x1="861.02643"
         y1="300.13461"
         x2="866.25665"
         y2="320.37451" /><line
         class="arc1"
         id="link55_@1_120"
         x1="621.6507"
         y1="601.56573"
         x2="625.08765"
         y2="578.45648" /><line
         class="arc2"
         id="link55_@2_8"
         x1="621.6507"
         y1="601.56573"
         x2="626.80615"
         y2="607.30408" /><line
         class="arc1"
         id="link8_@1_9"
         x1="626.80615"
         y1="607.30408"
         x2="657.73901"
         y2="617.49237" /><line
         class="arc1"
         id="link18_@1_17"
         x1="573.0191"
         y1="332.59543"
         x2="549.03491"
         y2="379.57504" /><line
         class="arc2"
         id="link18_@2_19"
         x1="573.0191"
         y1="332.59543"
         x2="576.45612"
         y2="325.64706" /><line
         class="arc1"
         id="link19_@1_14"
         x1="576.45612"
         y1="325.64706"
         x2="569.6568"
         y2="337.88458" /><line
         class="arc3"
         id="link19_@3_90"
         x1="576.45612"
         y1="325.64706"
         x2="582.11969"
         y2="309.49988" /><line
         class="arc1"
         id="link135_@1_121"
         x1="580.63562"
         y1="499.70959"
         x2="597.82056"
         y2="505.36981" /><line
         class="arc2"
         id="link135_@2_133"
         x1="580.63562"
         y1="499.70959"
         x2="577.19861"
         y2="490.49713" /><line
         class="arc2"
         id="link17_@2_12"
         x1="549.03491"
         y1="379.57504"
         x2="545.18701"
         y2="386.97714" /><line
         class="arc1"
         id="link133_@1_131"
         x1="577.19861"
         y1="490.49713"
         x2="577.19861"
         y2="450.09491" /><line
         class="arc2"
         id="link120_@2_122"
         x1="625.08765"
         y1="578.45648"
         x2="628.52466"
         y2="571.50806" /><line
         class="arc0"
         id="link120_@0_121"
         x1="625.08765"
         y1="578.45648"
         x2="597.82056"
         y2="505.36981" /><line
         class="arc1"
         id="link12_@1_130"
         x1="545.18701"
         y1="386.97714"
         x2="549.93152"
         y2="377.00824" /><line
         class="arc1"
         id="link90_@1_84"
         x1="582.11969"
         y1="309.49988"
         x2="573.60193"
         y2="325.21161" /><line
         class="arc2"
         id="link90_@2_91"
         x1="582.11969"
         y1="309.49988"
         x2="584.34625"
         y2="300.30106" /><line
         class="arc1"
         id="link91_@1_92"
         x1="584.34625"
         y1="300.30106"
         x2="584.7348"
         y2="279.21753" /><polygon
         points="640.5541,555.26904 628.52466,571.50806 601.25757,498.4214 601.25757,458.01917 628.52466,402.89438 640.5541,427.05762 "
         id="face_123_125_124_57_56_122"
         style="fill:#c0c0c0;stroke:none"
         opacity="1" /><line
         class="arc1"
         id="link122_@1_56"
         x1="628.52466"
         y1="571.50806"
         x2="640.55408"
         y2="555.26904" /><line
         class="arc0"
         id="link122_@0_123"
         x1="628.52466"
         y1="571.50806"
         x2="601.25757"
         y2="498.42139" /><line
         class="arc2"
         id="link121_@2_123"
         x1="597.82056"
         y1="505.36981"
         x2="601.25757"
         y2="498.42139" /><line
         class="arc2"
         id="link9_@2_50"
         x1="657.73901"
         y1="617.49237"
         x2="662.89453"
         y2="615.15021" /><line
         class="arc0"
         id="link9_@0_4"
         x1="657.73901"
         y1="617.49237"
         x2="737.15405"
         y2="634.39062" /><line
         class="arc1"
         id="link123_@1_125"
         x1="601.25757"
         y1="498.42139"
         x2="601.25757"
         y2="458.01917" /><line
         class="arc2"
         id="link131_@2_129"
         x1="577.19861"
         y1="450.09491"
         x2="580.63562"
         y2="443.14648" /><line
         class="arc0"
         id="link131_@0_130"
         x1="577.19861"
         y1="450.09491"
         x2="549.93152"
         y2="377.00824" /><polygon
         points="659.4575,589.7768 662.89453,615.1502 729.86914,632.58026 731.1767,613.39886 703.9096,540.31226 686.7247,534.65204 "
         id="face_45_150_151_137_136_50"
         style="fill:#c0c0c0;stroke:none"
         opacity="1" /><line
         class="arc1"
         id="link50_@1_136"
         x1="662.89453"
         y1="615.15021"
         x2="659.45752"
         y2="589.77679" /><line
         class="arc0"
         id="link50_@0_45"
         x1="662.89453"
         y1="615.15021"
         x2="729.86914"
         y2="632.58026" /><line
         class="arc2"
         id="link39_@2_38"
         x1="873.03345"
         y1="335.98984"
         x2="879.90741"
         y2="346.33432" /><line
         class="arc3"
         id="link39_@3_114"
         x1="873.03345"
         y1="335.98984"
         x2="866.25665"
         y2="320.37451" /><line
         class="arc0"
         id="link39_@0_44"
         x1="873.03345"
         y1="335.98984"
         x2="774.88617"
         y2="391.00372" /><line
         class="arc2"
         id="link110_@2_116"
         x1="860.20453"
         y1="268.72018"
         x2="861.51208"
         y2="273.78018" /><line
         class="arc0"
         id="link110_@0_111"
         x1="860.20453"
         y1="268.72018"
         x2="752.67719"
         y2="149.16418" /><line
         class="arc0"
         id="link38_@0_43"
         x1="879.90741"
         y1="346.33432"
         x2="778.32318"
         y2="400.21619" /><polygon
         points="597.82056,448.80667 580.6356,443.14648 553.3685,370.05988 565.8089,345.2867 621.6507,368.30853 625.08765,393.68192 "
         id="face_128_13_58_126_127_129"
         style="fill:#c0c0c0;stroke:none"
         opacity="1" /><line
         class="arc1"
         id="link129_@1_127"
         x1="580.63562"
         y1="443.14648"
         x2="597.82056"
         y2="448.80667" /><line
         class="arc0"
         id="link129_@0_128"
         x1="580.63562"
         y1="443.14648"
         x2="553.36853"
         y2="370.05988" /><line
         class="arc2"
         id="link130_@2_128"
         x1="549.93152"
         y1="377.00824"
         x2="553.36853"
         y2="370.05988" /><line
         class="arc2"
         id="link56_@2_51"
         x1="640.55408"
         y1="555.26904"
         x2="643.99109"
         y2="556.40106" /><line
         class="arc0"
         id="link56_@0_57"
         x1="640.55408"
         y1="555.26904"
         x2="640.55408"
         y2="427.05762" /><line
         class="arc2"
         id="link136_@2_138"
         x1="659.45752"
         y1="589.77679"
         x2="656.02051"
         y2="580.56433" /><line
         class="arc0"
         id="link136_@0_137"
         x1="659.45752"
         y1="589.77679"
         x2="686.72467"
         y2="534.65204" /><polygon
         points="656.0205,580.56433 643.9911,556.40106 643.9911,428.18964 656.0205,411.95068 683.28766,485.0373 683.28766,525.4396 "
         id="face_52_140_141_139_138_51"
         style="fill:#c0c0c0;stroke:none"
         opacity="1" /><line
         class="arc1"
         id="link51_@1_138"
         x1="643.99109"
         y1="556.40106"
         x2="656.02051"
         y2="580.56433" /><line
         class="arc0"
         id="link51_@0_52"
         x1="643.99109"
         y1="556.40106"
         x2="643.99109"
         y2="428.18964" /><line
         class="arc2"
         id="link114_@2_115"
         x1="866.25665"
         y1="320.37451"
         x2="866.35376"
         y2="315.10361" /><line
         class="arc0"
         id="link114_@0_60"
         x1="866.25665"
         y1="320.37451"
         x2="773.67584"
         y2="372.59247" /><line
         class="arc0"
         id="link138_@0_139"
         x1="656.02051"
         y1="580.56433"
         x2="683.28766"
         y2="525.43958" /><line
         class="arc1"
         id="link128_@1_13"
         x1="553.36853"
         y1="370.05988"
         x2="565.8089"
         y2="345.28671" /><polygon
         points="866.35376,315.1036 861.5121,273.78018 753.98474,154.22415 729.5895,169.33566 748.7949,333.25385 775.90234,363.39368 "
         id="face_117_63_62_61_115_116"
         style="fill:#c0c0c0;stroke:none"
         opacity="1" /><line
         class="arc1"
         id="link116_@1_115"
         x1="861.51208"
         y1="273.78018"
         x2="866.35376"
         y2="315.10361" /><line
         class="arc0"
         id="link116_@0_117"
         x1="861.51208"
         y1="273.78018"
         x2="753.98474"
         y2="154.22415" /><line
         class="arc2"
         id="link125_@2_127"
         x1="601.25757"
         y1="458.01917"
         x2="597.82056"
         y2="448.80667" /><line
         class="arc0"
         id="link125_@0_124"
         x1="601.25757"
         y1="458.01917"
         x2="628.52466"
         y2="402.89438" /><line
         class="arc2"
         id="link14_@2_13"
         x1="569.6568"
         y1="337.88458"
         x2="565.8089"
         y2="345.28671" /><line
         class="arc3"
         id="link14_@3_84"
         x1="569.6568"
         y1="337.88458"
         x2="573.60193"
         y2="325.21161" /><line
         class="arc0"
         id="link14_@0_59"
         x1="569.6568"
         y1="337.88458"
         x2="626.80615"
         y2="365.9664" /><line
         class="arc0"
         id="link127_@0_126"
         x1="597.82056"
         y1="448.80667"
         x2="625.08765"
         y2="393.68192" /><line
         class="arc0"
         id="link115_@0_61"
         x1="866.35376"
         y1="315.10361"
         x2="775.90234"
         y2="363.39368" /><line
         class="arc1"
         id="link5_@1_4"
         x1="774.88617"
         y1="624.26099"
         x2="737.15405"
         y2="634.39062" /><line
         class="arc2"
         id="link5_@2_40"
         x1="774.88617"
         y1="624.26099"
         x2="778.32318"
         y2="617.31256" /><line
         class="arc2"
         id="link84_@2_85"
         x1="573.60193"
         y1="325.21161"
         x2="573.69904"
         y2="319.94067" /><line
         class="arc0"
         id="link84_@0_78"
         x1="573.60193"
         y1="325.21161"
         x2="630.75122"
         y2="353.29343" /><line
         class="arc0"
         id="link13_@0_58"
         x1="565.8089"
         y1="345.28671"
         x2="621.6507"
         y2="368.30853" /><line
         class="arc2"
         id="link92_@2_86"
         x1="584.7348"
         y1="279.21753"
         x2="582.60535"
         y2="283.14545" /><line
         class="arc0"
         id="link92_@0_93"
         x1="584.7348"
         y1="279.21753"
         x2="674.59778"
         y2="151.22308" /><line
         class="arc1"
         id="link40_@1_41"
         x1="778.32318"
         y1="617.31256"
         x2="757.77594"
         y2="592.70013" /><polygon
         points="582.60535,283.14545 573.69904,319.94067 629.5408,342.96252 652.195,310.69543 687.5238,164.73917 672.4683,155.15103 "
         id="face_79_80_81_87_86_85"
         style="fill:#c0c0c0;stroke:none"
         opacity="1" /><line
         class="arc1"
         id="link85_@1_86"
         x1="573.69904"
         y1="319.94067"
         x2="582.60535"
         y2="283.14545" /><line
         class="arc0"
         id="link85_@0_79"
         x1="573.69904"
         y1="319.94067"
         x2="629.54077"
         y2="342.96252" /><line
         class="arc2"
         id="link4_@2_45"
         x1="737.15405"
         y1="634.39062"
         x2="729.86914"
         y2="632.58026" /><line
         class="arc0"
         id="link86_@0_87"
         x1="582.60535"
         y1="283.14545"
         x2="672.46832"
         y2="155.15103" /><line
         class="arc1"
         id="link45_@1_150"
         x1="729.86914"
         y1="632.58026"
         x2="731.1767"
         y2="613.39886" /><line
         class="arc1"
         id="link105_@1_111"
         x1="718.30731"
         y1="137.84387"
         x2="752.67719"
         y2="149.16418" /><line
         class="arc2"
         id="link105_@2_99"
         x1="718.30731"
         y1="137.84387"
         x2="705.86688"
         y2="138.37567" /><line
         class="arc1"
         id="link99_@1_93"
         x1="705.86688"
         y1="138.37567"
         x2="674.59778"
         y2="151.22308" /><line
         class="arc1"
         id="link137_@1_151"
         x1="686.72467"
         y1="534.65204"
         x2="703.90961"
         y2="540.31226" /><line
         class="arc2"
         id="link137_@2_139"
         x1="686.72467"
         y1="534.65204"
         x2="683.28766"
         y2="525.43958" /><line
         class="arc1"
         id="link139_@1_141"
         x1="683.28766"
         y1="525.43958"
         x2="683.28766"
         y2="485.03729" /><line
         class="arc2"
         id="link150_@2_148"
         x1="731.1767"
         y1="613.39886"
         x2="734.61371"
         y2="606.45044" /><line
         class="arc0"
         id="link150_@0_151"
         x1="731.1767"
         y1="613.39886"
         x2="703.90961"
         y2="540.31226" /><line
         class="arc1"
         id="link57_@1_124"
         x1="640.55408"
         y1="427.05762"
         x2="628.52466"
         y2="402.89438" /><line
         class="arc2"
         id="link57_@2_52"
         x1="640.55408"
         y1="427.05762"
         x2="643.99109"
         y2="428.18964" /><line
         class="arc2"
         id="link124_@2_126"
         x1="628.52466"
         y1="402.89438"
         x2="625.08765"
         y2="393.68192" /><line
         class="arc1"
         id="link126_@1_58"
         x1="625.08765"
         y1="393.68192"
         x2="621.6507"
         y2="368.30853" /><line
         class="arc1"
         id="link52_@1_140"
         x1="643.99109"
         y1="428.18964"
         x2="656.02051"
         y2="411.95068" /><polygon
         points="750.491,590.8898 734.6137,606.45044 707.3466,533.3638 707.3466,492.96158 734.6137,437.8368 750.491,454.5979 "
         id="face_149_147_146_47_46_148"
         style="fill:#c0c0c0;stroke:none"
         opacity="1" /><line
         class="arc1"
         id="link148_@1_46"
         x1="734.61371"
         y1="606.45044"
         x2="750.49103"
         y2="590.88977" /><line
         class="arc0"
         id="link148_@0_149"
         x1="734.61371"
         y1="606.45044"
         x2="707.34662"
         y2="533.36377" /><line
         class="arc2"
         id="link41_@2_46"
         x1="757.77594"
         y1="592.70013"
         x2="750.49103"
         y2="590.88977" /><line
         class="arc0"
         id="link41_@0_42"
         x1="757.77594"
         y1="592.70013"
         x2="757.77594"
         y2="448.32785" /><line
         class="arc2"
         id="link151_@2_149"
         x1="703.90961"
         y1="540.31226"
         x2="707.34662"
         y2="533.36377" /><line
         class="arc2"
         id="link58_@2_59"
         x1="621.6507"
         y1="368.30853"
         x2="626.80615"
         y2="365.9664" /><line
         class="arc0"
         id="link46_@0_47"
         x1="750.49103"
         y1="590.88977"
         x2="750.49103"
         y2="454.5979" /><line
         class="arc2"
         id="link141_@2_143"
         x1="683.28766"
         y1="485.03729"
         x2="686.72467"
         y2="478.08893" /><line
         class="arc0"
         id="link141_@0_140"
         x1="683.28766"
         y1="485.03729"
         x2="656.02051"
         y2="411.95068" /><line
         class="arc1"
         id="link149_@1_147"
         x1="707.34662"
         y1="533.36377"
         x2="707.34662"
         y2="492.96158" /><line
         class="arc2"
         id="link111_@2_117"
         x1="752.67719"
         y1="149.16418"
         x2="753.98474"
         y2="154.22415" /><line
         class="arc1"
         id="link59_@1_54"
         x1="626.80615"
         y1="365.9664"
         x2="657.73901"
         y2="376.15472" /><line
         class="arc3"
         id="link59_@3_78"
         x1="626.80615"
         y1="365.9664"
         x2="630.75122"
         y2="353.29343" /><line
         class="arc1"
         id="link79_@1_80"
         x1="629.54077"
         y1="342.96252"
         x2="652.19501"
         y2="310.69543" /><line
         class="arc2"
         id="link79_@2_78"
         x1="629.54077"
         y1="342.96252"
         x2="630.75122"
         y2="353.29343" /><polygon
         points="703.9096,483.74908 686.7247,478.08893 659.4575,405.0023 662.89453,381.89297 729.86914,399.32303 731.1767,428.62436 "
         id="face_142_53_48_144_145_143"
         style="fill:#c0c0c0;stroke:none"
         opacity="1" /><line
         class="arc1"
         id="link143_@1_145"
         x1="686.72467"
         y1="478.08893"
         x2="703.90961"
         y2="483.74908" /><line
         class="arc0"
         id="link143_@0_142"
         x1="686.72467"
         y1="478.08893"
         x2="659.45752"
         y2="405.00229" /><line
         class="arc1"
         id="link78_@1_72"
         x1="630.75122"
         y1="353.29343"
         x2="658.24707"
         y2="362.34973" /><line
         class="arc2"
         id="link93_@2_87"
         x1="674.59778"
         y1="151.22308"
         x2="672.46832"
         y2="155.15103" /><line
         class="arc2"
         id="link140_@2_142"
         x1="656.02051"
         y1="411.95068"
         x2="659.45752"
         y2="405.00229" /><line
         class="arc1"
         id="link117_@1_63"
         x1="753.98474"
         y1="154.22415"
         x2="729.58948"
         y2="169.33566" /><line
         class="arc1"
         id="link142_@1_53"
         x1="659.45752"
         y1="405.00229"
         x2="662.89453"
         y2="381.89297" /><line
         class="arc1"
         id="link87_@1_81"
         x1="672.46832"
         y1="155.15103"
         x2="687.5238"
         y2="164.73917" /><line
         class="arc2"
         id="link147_@2_145"
         x1="707.34662"
         y1="492.96158"
         x2="703.90961"
         y2="483.74908" /><line
         class="arc0"
         id="link147_@0_146"
         x1="707.34662"
         y1="492.96158"
         x2="734.61371"
         y2="437.83679" /><line
         class="arc0"
         id="link145_@0_144"
         x1="703.90961"
         y1="483.74908"
         x2="731.1767"
         y2="428.62436" /><line
         class="arc2"
         id="link80_@2_74"
         x1="652.19501"
         y1="310.69543"
         x2="659.06897"
         y2="312.9595" /><line
         class="arc0"
         id="link80_@0_81"
         x1="652.19501"
         y1="310.69543"
         x2="687.5238"
         y2="164.73917" /><polygon
         points="663.9107,354.2829 659.069,312.9595 694.3977,167.00323 720.5861,170.99954 739.79156,334.9177 730.88525,371.71292 "
         id="face_75_69_68_67_73_74"
         style="fill:#c0c0c0;stroke:none"
         opacity="1" /><line
         class="arc1"
         id="link74_@1_73"
         x1="659.06897"
         y1="312.9595"
         x2="663.91071"
         y2="354.2829" /><line
         class="arc0"
         id="link74_@0_75"
         x1="659.06897"
         y1="312.9595"
         x2="694.39771"
         y2="167.00323" /><line
         class="arc2"
         id="link54_@2_53"
         x1="657.73901"
         y1="376.15472"
         x2="662.89453"
         y2="381.89297" /><line
         class="arc3"
         id="link54_@3_72"
         x1="657.73901"
         y1="376.15472"
         x2="658.24707"
         y2="362.34973" /><line
         class="arc0"
         id="link54_@0_49"
         x1="657.73901"
         y1="376.15472"
         x2="737.15405"
         y2="393.05298" /><line
         class="arc0"
         id="link53_@0_48"
         x1="662.89453"
         y1="381.89297"
         x2="729.86914"
         y2="399.32303" /><line
         class="arc2"
         id="link72_@2_73"
         x1="658.24707"
         y1="362.34973"
         x2="663.91071"
         y2="354.2829" /><line
         class="arc0"
         id="link72_@0_66"
         x1="658.24707"
         y1="362.34973"
         x2="737.66211"
         y2="379.24796" /><line
         class="arc0"
         id="link73_@0_67"
         x1="663.91071"
         y1="354.2829"
         x2="730.88525"
         y2="371.71292" /><line
         class="arc2"
         id="link81_@2_75"
         x1="687.5238"
         y1="164.73917"
         x2="694.39771"
         y2="167.00323" /><line
         class="arc1"
         id="link75_@1_69"
         x1="694.39771"
         y1="167.00323"
         x2="720.58612"
         y2="170.99954" /><line
         class="arc1"
         id="link43_@1_42"
         x1="778.32318"
         y1="400.21619"
         x2="757.77594"
         y2="448.32785" /><line
         class="arc2"
         id="link43_@2_44"
         x1="778.32318"
         y1="400.21619"
         x2="774.88617"
         y2="391.00372" /><line
         class="arc1"
         id="link44_@1_49"
         x1="774.88617"
         y1="391.00372"
         x2="737.15405"
         y2="393.05298" /><line
         class="arc3"
         id="link44_@3_60"
         x1="774.88617"
         y1="391.00372"
         x2="773.67584"
         y2="372.59247" /><line
         class="arc2"
         id="link63_@2_69"
         x1="729.58948"
         y1="169.33566"
         x2="720.58612"
         y2="170.99954" /><line
         class="arc0"
         id="link63_@0_62"
         x1="729.58948"
         y1="169.33566"
         x2="748.79492"
         y2="333.25385" /><line
         class="arc1"
         id="link60_@1_66"
         x1="773.67584"
         y1="372.59247"
         x2="737.66211"
         y2="379.24796" /><line
         class="arc2"
         id="link60_@2_61"
         x1="773.67584"
         y1="372.59247"
         x2="775.90234"
         y2="363.39368" /><line
         class="arc1"
         id="link61_@1_62"
         x1="775.90234"
         y1="363.39368"
         x2="748.79492"
         y2="333.25385" /><line
         class="arc0"
         id="link69_@0_68"
         x1="720.58612"
         y1="170.99954"
         x2="739.79156"
         y2="334.91769" /><line
         class="arc2"
         id="link42_@2_47"
         x1="757.77594"
         y1="448.32785"
         x2="750.49103"
         y2="454.5979" /><line
         class="arc1"
         id="link47_@1_146"
         x1="750.49103"
         y1="454.5979"
         x2="734.61371"
         y2="437.83679" /><line
         class="arc2"
         id="link49_@2_48"
         x1="737.15405"
         y1="393.05298"
         x2="729.86914"
         y2="399.32303" /><line
         class="arc3"
         id="link49_@3_66"
         x1="737.15405"
         y1="393.05298"
         x2="737.66211"
         y2="379.24796" /><line
         class="arc2"
         id="link66_@2_67"
         x1="737.66211"
         y1="379.24796"
         x2="730.88525"
         y2="371.71292" /><line
         class="arc1"
         id="link48_@1_144"
         x1="729.86914"
         y1="399.32303"
         x2="731.1767"
         y2="428.62436" /><line
         class="arc2"
         id="link146_@2_144"
         x1="734.61371"
         y1="437.83679"
         x2="731.1767"
         y2="428.62436" /><line
         class="arc2"
         id="link62_@2_68"
         x1="748.79492"
         y1="333.25385"
         x2="739.79156"
         y2="334.91769" /><line
         class="arc1"
         id="link67_@1_68"
         x1="730.88525"
         y1="371.71292"
         x2="739.79156"
         y2="334.91769" /></g></g><style
     id="style-36">
		.arc0 {
			fill:none;
			fill-rule:evenodd;
			stroke:black;
			stroke-width:4;
			stroke-linecap:round;
			stroke-linejoin:round;
			stroke-opacity:1;
		}
		.arc1 {
			fill:none;
			fill-rule:evenodd;
			stroke:red;
			stroke-width:4;
			stroke-linecap:round;
			stroke-linejoin:round;
			stroke-opacity:1;
		}
		.arc2 {
			fill:none;
			fill-rule:evenodd;
			stroke:blue;
			stroke-width:4;
			stroke-linecap:round;
			stroke-linejoin:round;
			stroke-opacity:1;
		}
		.arc3 {
			fill:none;
			fill-rule:evenodd;
			stroke:green;
			stroke-width:4;
			stroke-linecap:round;
			stroke-linejoin:round;
			stroke-opacity:1;
		}
		.topological-dart {
			fill:#000000;
			stroke:#000000;
			stroke-width:0;
			stroke-linecap:round;
			stroke-linejoin:round;
			stroke-dasharray:none;
			paint-order:markers fill stroke;
		}
	</style></svg>
