<?xml version="1.0" encoding="UTF-8" standalone="no"?>
<!-- Created with Jerboa -->

<svg
	width="1317"
	height="620" >
	<style id="style">
		.arc0 {
			fill:none;
			fill-rule:evenodd;
			stroke:black;
			stroke-width:4;
			stroke-linecap:round;
			stroke-linejoin:round;
			stroke-opacity:1;
		}
		.arc1 {
			fill:none;
			fill-rule:evenodd;
			stroke:red;
			stroke-width:4;
			stroke-linecap:round;
			stroke-linejoin:round;
			stroke-opacity:1;
		}
		.arc2 {
			fill:none;
			fill-rule:evenodd;
			stroke:blue;
			stroke-width:4;
			stroke-linecap:round;
			stroke-linejoin:round;
			stroke-opacity:1;
		}
		.arc3 {
			fill:none;
			fill-rule:evenodd;
			stroke:green;
			stroke-width:4;
			stroke-linecap:round;
			stroke-linejoin:round;
			stroke-opacity:1;
		}
		.topological-dart {
			fill:#000000;
			stroke:#000000;
			stroke-width:0;
			stroke-linecap:round;
			stroke-linejoin:round;
			stroke-dasharray:none;
			paint-order:markers fill stroke;
		}
	</style>
<polygon
	points="673.23926,368.68225 673.23926,248.90005 694.84283,230.62036 796.74054,264.1823 818.34406,296.69305 818.34406,416.47525 796.74054,434.75494 694.84283,401.19302 "
	id="face_31_32_38_37_36_35_29_30"
	style="fill:rgb(192,192,192);stroke:none"
	opacity="1.0" />
<line
	class="arc1"
	id="link30_@1_29"
	x1="673.23926"
	y1="368.68225"
	x2="694.84283"
	y2="401.19302" />
<line
	class="arc2"
	id="link30_@2_24"
	x1="673.23926"
	y1="368.68225"
	x2="663.46484"
	y2="369.1001" />
<line
	class="arc0"
	id="link30_@0_31"
	x1="673.23926"
	y1="368.68225"
	x2="673.23926"
	y2="248.90005" />
<polygon
	points="663.46484,369.1001 663.46484,249.31793 645.9706,232.70966 560.755,273.26575 541.9106,310.17764 541.9106,423.611 560.755,443.8384 645.9706,403.2823 "
	id="face_25_26_20_19_18_17_23_24"
	style="fill:rgb(192,192,192);stroke:none"
	opacity="1.0" />
<line
	class="arc1"
	id="link24_@1_23"
	x1="663.46484"
	y1="369.1001"
	x2="645.9706"
	y2="403.2823" />
<line
	class="arc0"
	id="link24_@0_25"
	x1="663.46484"
	y1="369.1001"
	x2="663.46484"
	y2="249.31793" />
<line
	class="arc2"
	id="link29_@2_28"
	x1="694.84283"
	y1="401.19302"
	x2="690.46924"
	y2="409.73856" />
<line
	class="arc0"
	id="link29_@0_35"
	x1="694.84283"
	y1="401.19302"
	x2="796.74054"
	y2="434.75494" />
<polygon
	points="690.46924,409.73856 792.367,443.30054 796.4764,459.203 719.362,502.42743 689.7159,510.38632 627.31946,497.10938 603.0155,489.1044 558.1132,467.0405 563.45544,451.07666 651.3715,411.40997 "
	id="face_34_40_46_52_58_64_10_16_22_28"
	style="fill:rgb(192,192,192);stroke:none"
	opacity="1.0" />
<line
	class="arc1"
	id="link28_@1_22"
	x1="690.46924"
	y1="409.73856"
	x2="651.3715"
	y2="411.40997" />
<line
	class="arc3"
	id="link28_@3_0"
	x1="690.46924"
	y1="409.73856"
	x2="686.0957"
	y2="418.28412" />
<line
	class="arc0"
	id="link28_@0_34"
	x1="690.46924"
	y1="409.73856"
	x2="792.367"
	y2="443.30054" />
<polygon
	points="686.0957,418.28412 787.9934,451.84607 791.07544,463.77292 716.66156,507.8868 695.4396,511.8087 623.2688,498.9496 607.06616,493.61295 561.13654,467.57343 566.1559,458.3149 656.7724,419.5377 "
	id="face_7_6_5_4_9_8_3_2_1_0"
	style="fill:rgb(192,192,192);stroke:none"
	opacity="1.0" />
<line
	class="arc1"
	id="link0_@1_1"
	x1="686.0957"
	y1="418.28412"
	x2="656.7724"
	y2="419.5377" />
<line
	class="arc0"
	id="link0_@0_7"
	x1="686.0957"
	y1="418.28412"
	x2="787.9934"
	y2="451.84607" />
<line
	class="arc2"
	id="link23_@2_22"
	x1="645.9706"
	y1="403.2823"
	x2="651.3715"
	y2="411.40997" />
<line
	class="arc0"
	id="link23_@0_17"
	x1="645.9706"
	y1="403.2823"
	x2="560.755"
	y2="443.8384" />
<line
	class="arc3"
	id="link22_@3_1"
	x1="651.3715"
	y1="411.40997"
	x2="656.7724"
	y2="419.5377" />
<line
	class="arc0"
	id="link22_@0_16"
	x1="651.3715"
	y1="411.40997"
	x2="563.45544"
	y2="451.07666" />
<line
	class="arc0"
	id="link1_@0_2"
	x1="656.7724"
	y1="419.5377"
	x2="566.1559"
	y2="458.3149" />
<line
	class="arc1"
	id="link31_@1_32"
	x1="673.23926"
	y1="248.90005"
	x2="694.84283"
	y2="230.62036" />
<line
	class="arc2"
	id="link31_@2_25"
	x1="673.23926"
	y1="248.90005"
	x2="663.46484"
	y2="249.31793" />
<line
	class="arc1"
	id="link25_@1_26"
	x1="663.46484"
	y1="249.31793"
	x2="645.9706"
	y2="232.70966" />
<line
	class="arc1"
	id="link35_@1_36"
	x1="796.74054"
	y1="434.75494"
	x2="818.34406"
	y2="416.47525" />
<line
	class="arc2"
	id="link35_@2_34"
	x1="796.74054"
	y1="434.75494"
	x2="792.367"
	y2="443.30054" />
<line
	class="arc2"
	id="link32_@2_33"
	x1="694.84283"
	y1="230.62036"
	x2="690.46924"
	y2="226.46829" />
<line
	class="arc0"
	id="link32_@0_38"
	x1="694.84283"
	y1="230.62036"
	x2="796.74054"
	y2="264.1823" />
<line
	class="arc1"
	id="link34_@1_40"
	x1="792.367"
	y1="443.30054"
	x2="796.4764"
	y2="459.203" />
<line
	class="arc3"
	id="link34_@3_7"
	x1="792.367"
	y1="443.30054"
	x2="787.9934"
	y2="451.84607" />
<line
	class="arc1"
	id="link7_@1_6"
	x1="787.9934"
	y1="451.84607"
	x2="791.07544"
	y2="463.77292" />
<line
	class="arc2"
	id="link26_@2_27"
	x1="645.9706"
	y1="232.70966"
	x2="651.3715"
	y2="228.13974" />
<line
	class="arc0"
	id="link26_@0_20"
	x1="645.9706"
	y1="232.70966"
	x2="560.755"
	y2="273.26575" />
<polygon
	points="690.46924,226.46829 792.367,260.03027 796.4764,275.93274 719.362,319.15717 689.7159,320.76724 627.31946,307.49033 603.0155,299.48535 558.1132,277.42148 563.45544,267.8064 651.3715,228.13974 "
	id="face_39_45_51_57_63_69_15_21_27_33"
	style="fill:rgb(192,192,192);stroke:none"
	opacity="1.0" />
<line
	class="arc1"
	id="link33_@1_27"
	x1="690.46924"
	y1="226.46829"
	x2="651.3715"
	y2="228.13974" />
<line
	class="arc3"
	id="link33_@3_112"
	x1="690.46924"
	y1="226.46829"
	x2="690.54553"
	y2="215.97821" />
<line
	class="arc0"
	id="link33_@0_39"
	x1="690.46924"
	y1="226.46829"
	x2="792.367"
	y2="260.03027" />
<line
	class="arc3"
	id="link27_@3_106"
	x1="651.3715"
	y1="228.13974"
	x2="651.4478"
	y2="217.6496" />
<line
	class="arc0"
	id="link27_@0_21"
	x1="651.3715"
	y1="228.13974"
	x2="563.45544"
	y2="267.8064" />
<line
	class="arc1"
	id="link2_@1_3"
	x1="566.1559"
	y1="458.3149"
	x2="561.13654"
	y2="467.57343" />
<line
	class="arc3"
	id="link2_@3_16"
	x1="566.1559"
	y1="458.3149"
	x2="563.45544"
	y2="451.07666" />
<polygon
	points="690.54553,215.97821 787.0424,247.76126 791.15173,263.66376 718.411,304.69144 690.11505,309.92062 627.7186,296.6437 606.1151,289.52817 561.2128,267.46426 567.90533,255.11957 651.4478,217.6496 "
	id="face_118_124_70_76_82_88_94_100_106_112"
	style="fill:rgb(192,192,192);stroke:none"
	opacity="1.0" />
<line
	class="arc1"
	id="link112_@1_106"
	x1="690.54553"
	y1="215.97821"
	x2="651.4478"
	y2="217.6496" />
<line
	class="arc2"
	id="link112_@2_113"
	x1="690.54553"
	y1="215.97821"
	x2="694.9954"
	y2="209.6401" />
<line
	class="arc0"
	id="link112_@0_118"
	x1="690.54553"
	y1="215.97821"
	x2="787.0424"
	y2="247.76126" />
<line
	class="arc1"
	id="link16_@1_10"
	x1="563.45544"
	y1="451.07666"
	x2="558.1132"
	y2="467.0405" />
<line
	class="arc2"
	id="link16_@2_17"
	x1="563.45544"
	y1="451.07666"
	x2="560.755"
	y2="443.8384" />
<line
	class="arc1"
	id="link17_@1_18"
	x1="560.755"
	y1="443.8384"
	x2="541.9106"
	y2="423.611" />
<polygon
	points="694.9954,209.6401 786.0914,239.64429 786.39667,223.07898 701.9124,129.14377 674.9079,120.24936 673.69714,185.95926 "
	id="face_119_120_121_115_114_113"
	style="fill:rgb(192,192,192);stroke:none"
	opacity="1.0" />
<line
	class="arc1"
	id="link113_@1_114"
	x1="694.9954"
	y1="209.6401"
	x2="673.69714"
	y2="185.95926" />
<line
	class="arc0"
	id="link113_@0_119"
	x1="694.9954"
	y1="209.6401"
	x2="786.0914"
	y2="239.64429" />
<line
	class="arc2"
	id="link106_@2_107"
	x1="651.4478"
	y1="217.6496"
	x2="646.1232"
	y2="211.7294" />
<line
	class="arc0"
	id="link106_@0_100"
	x1="651.4478"
	y1="217.6496"
	x2="567.90533"
	y2="255.11957" />
<polygon
	points="646.1232,211.7294 569.6547,247.89203 569.95996,231.32672 640.56537,130.76147 665.1335,120.667206 663.9227,186.37714 "
	id="face_101_102_103_109_108_107"
	style="fill:rgb(192,192,192);stroke:none"
	opacity="1.0" />
<line
	class="arc1"
	id="link107_@1_108"
	x1="646.1232"
	y1="211.7294"
	x2="663.9227"
	y2="186.37714" />
<line
	class="arc0"
	id="link107_@0_101"
	x1="646.1232"
	y1="211.7294"
	x2="569.6547"
	y2="247.89203" />
<line
	class="arc2"
	id="link36_@2_42"
	x1="818.34406"
	y1="416.47525"
	x2="819.3714"
	y2="420.45087" />
<line
	class="arc0"
	id="link36_@0_37"
	x1="818.34406"
	y1="416.47525"
	x2="818.34406"
	y2="296.69305" />
<line
	class="arc3"
	id="link6_@3_40"
	x1="791.07544"
	y1="463.77292"
	x2="796.4764"
	y2="459.203" />
<line
	class="arc0"
	id="link6_@0_5"
	x1="791.07544"
	y1="463.77292"
	x2="716.66156"
	y2="507.8868" />
<polygon
	points="819.3714,420.45087 819.3714,300.6687 801.8772,284.0604 722.06244,326.39542 705.9185,364.19675 705.9185,477.63013 722.06244,496.96805 801.8772,454.63306 "
	id="face_43_44_50_49_48_47_41_42"
	style="fill:rgb(192,192,192);stroke:none"
	opacity="1.0" />
<line
	class="arc1"
	id="link42_@1_41"
	x1="819.3714"
	y1="420.45087"
	x2="801.8772"
	y2="454.63306" />
<line
	class="arc0"
	id="link42_@0_43"
	x1="819.3714"
	y1="420.45087"
	x2="819.3714"
	y2="300.6687" />
<line
	class="arc2"
	id="link114_@2_108"
	x1="673.69714"
	y1="185.95926"
	x2="663.9227"
	y2="186.37714" />
<line
	class="arc0"
	id="link114_@0_115"
	x1="673.69714"
	y1="185.95926"
	x2="674.9079"
	y2="120.24936" />
<line
	class="arc2"
	id="link40_@2_41"
	x1="796.4764"
	y1="459.203"
	x2="801.8772"
	y2="454.63306" />
<line
	class="arc0"
	id="link40_@0_46"
	x1="796.4764"
	y1="459.203"
	x2="719.362"
	y2="502.42743" />
<line
	class="arc0"
	id="link108_@0_109"
	x1="663.9227"
	y1="186.37714"
	x2="665.1335"
	y2="120.667206" />
<line
	class="arc3"
	id="link3_@3_10"
	x1="561.13654"
	y1="467.57343"
	x2="558.1132"
	y2="467.0405" />
<line
	class="arc0"
	id="link3_@0_8"
	x1="561.13654"
	y1="467.57343"
	x2="607.06616"
	y2="493.61295" />
<line
	class="arc0"
	id="link41_@0_47"
	x1="801.8772"
	y1="454.63306"
	x2="722.06244"
	y2="496.96805" />
<line
	class="arc2"
	id="link10_@2_11"
	x1="558.1132"
	y1="467.0405"
	x2="555.0899"
	y2="466.50757" />
<line
	class="arc0"
	id="link10_@0_64"
	x1="558.1132"
	y1="467.0405"
	x2="603.0155"
	y2="489.1044" />
<line
	class="arc2"
	id="link18_@2_12"
	x1="541.9106"
	y1="423.611"
	x2="538.88727"
	y2="423.07803" />
<line
	class="arc0"
	id="link18_@0_19"
	x1="541.9106"
	y1="423.611"
	x2="541.9106"
	y2="310.17764" />
<polygon
	points="555.0899,466.50757 598.96484,484.59583 601.6652,466.4388 580.24146,409.01465 566.73926,404.56744 545.3155,447.87897 "
	id="face_65_144_145_131_130_11"
	style="fill:rgb(192,192,192);stroke:none"
	opacity="1.0" />
<line
	class="arc1"
	id="link11_@1_130"
	x1="555.0899"
	y1="466.50757"
	x2="545.3155"
	y2="447.87897" />
<line
	class="arc0"
	id="link11_@0_65"
	x1="555.0899"
	y1="466.50757"
	x2="598.96484"
	y2="484.59583" />
<polygon
	points="538.88727,423.07803 538.88727,315.9935 542.61505,308.1609 564.0388,365.58514 564.0388,397.32916 542.61505,440.64072 "
	id="face_13_134_135_133_132_12"
	style="fill:rgb(192,192,192);stroke:none"
	opacity="1.0" />
<line
	class="arc1"
	id="link12_@1_132"
	x1="538.88727"
	y1="423.07803"
	x2="542.61505"
	y2="440.64072" />
<line
	class="arc0"
	id="link12_@0_13"
	x1="538.88727"
	y1="423.07803"
	x2="538.88727"
	y2="315.9935" />
<line
	class="arc2"
	id="link130_@2_132"
	x1="545.3155"
	y1="447.87897"
	x2="542.61505"
	y2="440.64072" />
<line
	class="arc0"
	id="link130_@0_131"
	x1="545.3155"
	y1="447.87897"
	x2="566.73926"
	y2="404.56744" />
<line
	class="arc0"
	id="link132_@0_133"
	x1="542.61505"
	y1="440.64072"
	x2="564.0388"
	y2="397.32916" />
<line
	class="arc1"
	id="link38_@1_37"
	x1="796.74054"
	y1="264.1823"
	x2="818.34406"
	y2="296.69305" />
<line
	class="arc2"
	id="link38_@2_39"
	x1="796.74054"
	y1="264.1823"
	x2="792.367"
	y2="260.03027" />
<line
	class="arc2"
	id="link37_@2_43"
	x1="818.34406"
	y1="296.69305"
	x2="819.3714"
	y2="300.6687" />
<line
	class="arc1"
	id="link39_@1_45"
	x1="792.367"
	y1="260.03027"
	x2="796.4764"
	y2="275.93274" />
<line
	class="arc3"
	id="link39_@3_118"
	x1="792.367"
	y1="260.03027"
	x2="787.0424"
	y2="247.76126" />
<line
	class="arc1"
	id="link119_@1_120"
	x1="786.0914"
	y1="239.64429"
	x2="786.39667"
	y2="223.07898" />
<line
	class="arc2"
	id="link119_@2_118"
	x1="786.0914"
	y1="239.64429"
	x2="787.0424"
	y2="247.76126" />
<line
	class="arc1"
	id="link43_@1_44"
	x1="819.3714"
	y1="300.6687"
	x2="801.8772"
	y2="284.0604" />
<line
	class="arc1"
	id="link118_@1_124"
	x1="787.0424"
	y1="247.76126"
	x2="791.15173"
	y2="263.66376" />
<line
	class="arc1"
	id="link65_@1_144"
	x1="598.96484"
	y1="484.59583"
	x2="601.6652"
	y2="466.4388" />
<line
	class="arc2"
	id="link65_@2_64"
	x1="598.96484"
	y1="484.59583"
	x2="603.0155"
	y2="489.1044" />
<line
	class="arc1"
	id="link20_@1_19"
	x1="560.755"
	y1="273.26575"
	x2="541.9106"
	y2="310.17764" />
<line
	class="arc2"
	id="link20_@2_21"
	x1="560.755"
	y1="273.26575"
	x2="563.45544"
	y2="267.8064" />
<line
	class="arc1"
	id="link64_@1_58"
	x1="603.0155"
	y1="489.1044"
	x2="627.31946"
	y2="497.10938" />
<line
	class="arc3"
	id="link64_@3_8"
	x1="603.0155"
	y1="489.1044"
	x2="607.06616"
	y2="493.61295" />
<line
	class="arc1"
	id="link8_@1_9"
	x1="607.06616"
	y1="493.61295"
	x2="623.2688"
	y2="498.9496" />
<line
	class="arc1"
	id="link21_@1_15"
	x1="563.45544"
	y1="267.8064"
	x2="558.1132"
	y2="277.42148" />
<line
	class="arc3"
	id="link21_@3_100"
	x1="563.45544"
	y1="267.8064"
	x2="567.90533"
	y2="255.11957" />
<line
	class="arc1"
	id="link131_@1_145"
	x1="566.73926"
	y1="404.56744"
	x2="580.24146"
	y2="409.01465" />
<line
	class="arc2"
	id="link131_@2_133"
	x1="566.73926"
	y1="404.56744"
	x2="564.0388"
	y2="397.32916" />
<line
	class="arc2"
	id="link19_@2_13"
	x1="541.9106"
	y1="310.17764"
	x2="538.88727"
	y2="315.9935" />
<line
	class="arc1"
	id="link133_@1_135"
	x1="564.0388"
	y1="397.32916"
	x2="564.0388"
	y2="365.58514" />
<line
	class="arc2"
	id="link144_@2_142"
	x1="601.6652"
	y1="466.4388"
	x2="604.3657"
	y2="460.97946" />
<line
	class="arc0"
	id="link144_@0_145"
	x1="601.6652"
	y1="466.4388"
	x2="580.24146"
	y2="409.01465" />
<line
	class="arc1"
	id="link13_@1_134"
	x1="538.88727"
	y1="315.9935"
	x2="542.61505"
	y2="308.1609" />
<line
	class="arc1"
	id="link100_@1_94"
	x1="567.90533"
	y1="255.11957"
	x2="561.2128"
	y2="267.46426" />
<line
	class="arc2"
	id="link100_@2_101"
	x1="567.90533"
	y1="255.11957"
	x2="569.6547"
	y2="247.89203" />
<line
	class="arc1"
	id="link101_@1_102"
	x1="569.6547"
	y1="247.89203"
	x2="569.95996"
	y2="231.32672" />
<line
	class="arc3"
	id="link9_@3_58"
	x1="623.2688"
	y1="498.9496"
	x2="627.31946"
	y2="497.10938" />
<line
	class="arc0"
	id="link9_@0_4"
	x1="623.2688"
	y1="498.9496"
	x2="695.4396"
	y2="511.8087" />
<polygon
	points="604.3657,460.97946 582.9419,403.55524 582.9419,371.81122 604.3657,328.49966 613.81726,347.48474 613.81726,448.22046 "
	id="face_143_141_140_67_66_142"
	style="fill:rgb(192,192,192);stroke:none"
	opacity="1.0" />
<line
	class="arc1"
	id="link142_@1_66"
	x1="604.3657"
	y1="460.97946"
	x2="613.81726"
	y2="448.22046" />
<line
	class="arc0"
	id="link142_@0_143"
	x1="604.3657"
	y1="460.97946"
	x2="582.9419"
	y2="403.55524" />
<line
	class="arc2"
	id="link145_@2_143"
	x1="580.24146"
	y1="409.01465"
	x2="582.9419"
	y2="403.55524" />
<line
	class="arc2"
	id="link58_@2_59"
	x1="627.31946"
	y1="497.10938"
	x2="631.3701"
	y2="495.2691" />
<line
	class="arc0"
	id="link58_@0_52"
	x1="627.31946"
	y1="497.10938"
	x2="689.7159"
	y2="510.38632" />
<line
	class="arc1"
	id="link143_@1_141"
	x1="582.9419"
	y1="403.55524"
	x2="582.9419"
	y2="371.81122" />
<line
	class="arc2"
	id="link135_@2_137"
	x1="564.0388"
	y1="365.58514"
	x2="566.73926"
	y2="360.12573" />
<line
	class="arc0"
	id="link135_@0_134"
	x1="564.0388"
	y1="365.58514"
	x2="542.61505"
	y2="308.1609" />
<polygon
	points="631.3701,495.2691 683.9921,508.9639 685.0194,493.8931 663.5957,436.46887 650.09344,432.02167 628.6697,475.33325 "
	id="face_53_160_161_147_146_59"
	style="fill:rgb(192,192,192);stroke:none"
	opacity="1.0" />
<line
	class="arc1"
	id="link59_@1_146"
	x1="631.3701"
	y1="495.2691"
	x2="628.6697"
	y2="475.33325" />
<line
	class="arc0"
	id="link59_@0_53"
	x1="631.3701"
	y1="495.2691"
	x2="683.9921"
	y2="508.9639" />
<line
	class="arc2"
	id="link45_@2_44"
	x1="796.4764"
	y1="275.93274"
	x2="801.8772"
	y2="284.0604" />
<line
	class="arc3"
	id="link45_@3_124"
	x1="796.4764"
	y1="275.93274"
	x2="791.15173"
	y2="263.66376" />
<line
	class="arc0"
	id="link45_@0_51"
	x1="796.4764"
	y1="275.93274"
	x2="719.362"
	y2="319.15717" />
<line
	class="arc2"
	id="link120_@2_126"
	x1="786.39667"
	y1="223.07898"
	x2="787.424"
	y2="227.0546" />
<line
	class="arc0"
	id="link120_@0_121"
	x1="786.39667"
	y1="223.07898"
	x2="701.9124"
	y2="129.14377" />
<line
	class="arc0"
	id="link44_@0_50"
	x1="801.8772"
	y1="284.0604"
	x2="722.06244"
	y2="326.39542" />
<polygon
	points="566.73926,360.12573 545.3155,302.70157 555.0899,283.23727 598.96484,301.32553 601.6652,321.2614 580.24146,364.57297 "
	id="face_136_14_68_138_139_137"
	style="fill:rgb(192,192,192);stroke:none"
	opacity="1.0" />
<line
	class="arc1"
	id="link137_@1_139"
	x1="566.73926"
	y1="360.12573"
	x2="580.24146"
	y2="364.57297" />
<line
	class="arc0"
	id="link137_@0_136"
	x1="566.73926"
	y1="360.12573"
	x2="545.3155"
	y2="302.70157" />
<line
	class="arc2"
	id="link134_@2_136"
	x1="542.61505"
	y1="308.1609"
	x2="545.3155"
	y2="302.70157" />
<line
	class="arc2"
	id="link66_@2_60"
	x1="613.81726"
	y1="448.22046"
	x2="616.51764"
	y2="449.1099" />
<line
	class="arc0"
	id="link66_@0_67"
	x1="613.81726"
	y1="448.22046"
	x2="613.81726"
	y2="347.48474" />
<line
	class="arc2"
	id="link146_@2_148"
	x1="628.6697"
	y1="475.33325"
	x2="625.96924"
	y2="468.09497" />
<line
	class="arc0"
	id="link146_@0_147"
	x1="628.6697"
	y1="475.33325"
	x2="650.09344"
	y2="432.02167" />
<polygon
	points="616.51764,449.1099 616.51764,348.37418 625.96924,335.6152 647.39294,393.03937 647.39294,424.78345 625.96924,468.09497 "
	id="face_61_150_151_149_148_60"
	style="fill:rgb(192,192,192);stroke:none"
	opacity="1.0" />
<line
	class="arc1"
	id="link60_@1_148"
	x1="616.51764"
	y1="449.1099"
	x2="625.96924"
	y2="468.09497" />
<line
	class="arc0"
	id="link60_@0_61"
	x1="616.51764"
	y1="449.1099"
	x2="616.51764"
	y2="348.37418" />
<line
	class="arc2"
	id="link124_@2_125"
	x1="791.15173"
	y1="263.66376"
	x2="791.2281"
	y2="259.5224" />
<line
	class="arc0"
	id="link124_@0_70"
	x1="791.15173"
	y1="263.66376"
	x2="718.411"
	y2="304.69144" />
<line
	class="arc0"
	id="link148_@0_149"
	x1="625.96924"
	y1="468.09497"
	x2="647.39294"
	y2="424.78345" />
<line
	class="arc1"
	id="link136_@1_14"
	x1="545.3155"
	y1="302.70157"
	x2="555.0899"
	y2="283.23727" />
<polygon
	points="787.424,227.0546 702.9397,133.11938 683.7724,144.99255 698.8621,273.78308 720.1604,297.46396 791.2281,259.5224 "
	id="face_127_73_72_71_125_126"
	style="fill:rgb(192,192,192);stroke:none"
	opacity="1.0" />
<line
	class="arc1"
	id="link126_@1_125"
	x1="787.424"
	y1="227.0546"
	x2="791.2281"
	y2="259.5224" />
<line
	class="arc0"
	id="link126_@0_127"
	x1="787.424"
	y1="227.0546"
	x2="702.9397"
	y2="133.11938" />
<line
	class="arc1"
	id="link5_@1_4"
	x1="716.66156"
	y1="507.8868"
	x2="695.4396"
	y2="511.8087" />
<line
	class="arc3"
	id="link5_@3_46"
	x1="716.66156"
	y1="507.8868"
	x2="719.362"
	y2="502.42743" />
<line
	class="arc2"
	id="link141_@2_139"
	x1="582.9419"
	y1="371.81122"
	x2="580.24146"
	y2="364.57297" />
<line
	class="arc0"
	id="link141_@0_140"
	x1="582.9419"
	y1="371.81122"
	x2="604.3657"
	y2="328.49966" />
<line
	class="arc2"
	id="link15_@2_14"
	x1="558.1132"
	y1="277.42148"
	x2="555.0899"
	y2="283.23727" />
<line
	class="arc3"
	id="link15_@3_94"
	x1="558.1132"
	y1="277.42148"
	x2="561.2128"
	y2="267.46426" />
<line
	class="arc0"
	id="link15_@0_69"
	x1="558.1132"
	y1="277.42148"
	x2="603.0155"
	y2="299.48535" />
<line
	class="arc0"
	id="link139_@0_138"
	x1="580.24146"
	y1="364.57297"
	x2="601.6652"
	y2="321.2614" />
<line
	class="arc0"
	id="link125_@0_71"
	x1="791.2281"
	y1="259.5224"
	x2="720.1604"
	y2="297.46396" />
<line
	class="arc1"
	id="link46_@1_52"
	x1="719.362"
	y1="502.42743"
	x2="689.7159"
	y2="510.38632" />
<line
	class="arc2"
	id="link46_@2_47"
	x1="719.362"
	y1="502.42743"
	x2="722.06244"
	y2="496.96805" />
<line
	class="arc2"
	id="link94_@2_95"
	x1="561.2128"
	y1="267.46426"
	x2="561.2892"
	y2="263.3229" />
<line
	class="arc0"
	id="link94_@0_88"
	x1="561.2128"
	y1="267.46426"
	x2="606.1151"
	y2="289.52817" />
<line
	class="arc0"
	id="link14_@0_68"
	x1="555.0899"
	y1="283.23727"
	x2="598.96484"
	y2="301.32553" />
<line
	class="arc3"
	id="link4_@3_52"
	x1="695.4396"
	y1="511.8087"
	x2="689.7159"
	y2="510.38632" />
<line
	class="arc2"
	id="link102_@2_96"
	x1="569.95996"
	y1="231.32672"
	x2="568.28687"
	y2="234.4129" />
<line
	class="arc0"
	id="link102_@0_103"
	x1="569.95996"
	y1="231.32672"
	x2="640.56537"
	y2="130.76147" />
<line
	class="arc1"
	id="link47_@1_48"
	x1="722.06244"
	y1="496.96805"
	x2="705.9185"
	y2="477.63013" />
<polygon
	points="561.2892,263.3229 605.1641,281.4112 622.9635,256.05893 650.7213,141.38101 638.8922,133.84766 568.28687,234.4129 "
	id="face_89_90_91_97_96_95"
	style="fill:rgb(192,192,192);stroke:none"
	opacity="1.0" />
<line
	class="arc1"
	id="link95_@1_96"
	x1="561.2892"
	y1="263.3229"
	x2="568.28687"
	y2="234.4129" />
<line
	class="arc0"
	id="link95_@0_89"
	x1="561.2892"
	y1="263.3229"
	x2="605.1641"
	y2="281.4112" />
<line
	class="arc2"
	id="link52_@2_53"
	x1="689.7159"
	y1="510.38632"
	x2="683.9921"
	y2="508.9639" />
<line
	class="arc0"
	id="link96_@0_97"
	x1="568.28687"
	y1="234.4129"
	x2="638.8922"
	y2="133.84766" />
<line
	class="arc1"
	id="link53_@1_160"
	x1="683.9921"
	y1="508.9639"
	x2="685.0194"
	y2="493.8931" />
<line
	class="arc1"
	id="link115_@1_121"
	x1="674.9079"
	y1="120.24936"
	x2="701.9124"
	y2="129.14377" />
<line
	class="arc2"
	id="link115_@2_109"
	x1="674.9079"
	y1="120.24936"
	x2="665.1335"
	y2="120.667206" />
<line
	class="arc1"
	id="link109_@1_103"
	x1="665.1335"
	y1="120.667206"
	x2="640.56537"
	y2="130.76147" />
<line
	class="arc1"
	id="link147_@1_161"
	x1="650.09344"
	y1="432.02167"
	x2="663.5957"
	y2="436.46887" />
<line
	class="arc2"
	id="link147_@2_149"
	x1="650.09344"
	y1="432.02167"
	x2="647.39294"
	y2="424.78345" />
<line
	class="arc1"
	id="link149_@1_151"
	x1="647.39294"
	y1="424.78345"
	x2="647.39294"
	y2="393.03937" />
<line
	class="arc2"
	id="link160_@2_158"
	x1="685.0194"
	y1="493.8931"
	x2="687.7199"
	y2="488.43372" />
<line
	class="arc0"
	id="link160_@0_161"
	x1="685.0194"
	y1="493.8931"
	x2="663.5957"
	y2="436.46887" />
<line
	class="arc1"
	id="link67_@1_140"
	x1="613.81726"
	y1="347.48474"
	x2="604.3657"
	y2="328.49966" />
<line
	class="arc2"
	id="link67_@2_61"
	x1="613.81726"
	y1="347.48474"
	x2="616.51764"
	y2="348.37418" />
<line
	class="arc2"
	id="link140_@2_138"
	x1="604.3657"
	y1="328.49966"
	x2="601.6652"
	y2="321.2614" />
<line
	class="arc1"
	id="link138_@1_68"
	x1="601.6652"
	y1="321.2614"
	x2="598.96484"
	y2="301.32553" />
<line
	class="arc1"
	id="link61_@1_150"
	x1="616.51764"
	y1="348.37418"
	x2="625.96924"
	y2="335.6152" />
<polygon
	points="687.7199,488.43372 666.2961,431.00952 666.2961,399.26547 687.7199,355.95395 700.19476,369.12314 700.19476,476.20767 "
	id="face_159_157_156_55_54_158"
	style="fill:rgb(192,192,192);stroke:none"
	opacity="1.0" />
<line
	class="arc1"
	id="link158_@1_54"
	x1="687.7199"
	y1="488.43372"
	x2="700.19476"
	y2="476.20767" />
<line
	class="arc0"
	id="link158_@0_159"
	x1="687.7199"
	y1="488.43372"
	x2="666.2961"
	y2="431.00952" />
<line
	class="arc2"
	id="link48_@2_54"
	x1="705.9185"
	y1="477.63013"
	x2="700.19476"
	y2="476.20767" />
<line
	class="arc0"
	id="link48_@0_49"
	x1="705.9185"
	y1="477.63013"
	x2="705.9185"
	y2="364.19675" />
<line
	class="arc2"
	id="link161_@2_159"
	x1="663.5957"
	y1="436.46887"
	x2="666.2961"
	y2="431.00952" />
<line
	class="arc2"
	id="link68_@2_69"
	x1="598.96484"
	y1="301.32553"
	x2="603.0155"
	y2="299.48535" />
<line
	class="arc0"
	id="link54_@0_55"
	x1="700.19476"
	y1="476.20767"
	x2="700.19476"
	y2="369.12314" />
<line
	class="arc2"
	id="link151_@2_153"
	x1="647.39294"
	y1="393.03937"
	x2="650.09344"
	y2="387.58002" />
<line
	class="arc0"
	id="link151_@0_150"
	x1="647.39294"
	y1="393.03937"
	x2="625.96924"
	y2="335.6152" />
<line
	class="arc1"
	id="link159_@1_157"
	x1="666.2961"
	y1="431.00952"
	x2="666.2961"
	y2="399.26547" />
<line
	class="arc2"
	id="link121_@2_127"
	x1="701.9124"
	y1="129.14377"
	x2="702.9397"
	y2="133.11938" />
<line
	class="arc1"
	id="link69_@1_63"
	x1="603.0155"
	y1="299.48535"
	x2="627.31946"
	y2="307.49033" />
<line
	class="arc3"
	id="link69_@3_88"
	x1="603.0155"
	y1="299.48535"
	x2="606.1151"
	y2="289.52817" />
<line
	class="arc1"
	id="link89_@1_90"
	x1="605.1641"
	y1="281.4112"
	x2="622.9635"
	y2="256.05893" />
<line
	class="arc2"
	id="link89_@2_88"
	x1="605.1641"
	y1="281.4112"
	x2="606.1151"
	y2="289.52817" />
<polygon
	points="650.09344,387.58002 628.6697,330.15585 631.3701,311.99884 683.9921,325.69363 685.0194,348.7157 663.5957,392.02722 "
	id="face_152_62_56_154_155_153"
	style="fill:rgb(192,192,192);stroke:none"
	opacity="1.0" />
<line
	class="arc1"
	id="link153_@1_155"
	x1="650.09344"
	y1="387.58002"
	x2="663.5957"
	y2="392.02722" />
<line
	class="arc0"
	id="link153_@0_152"
	x1="650.09344"
	y1="387.58002"
	x2="628.6697"
	y2="330.15585" />
<line
	class="arc1"
	id="link88_@1_82"
	x1="606.1151"
	y1="289.52817"
	x2="627.7186"
	y2="296.6437" />
<line
	class="arc2"
	id="link103_@2_97"
	x1="640.56537"
	y1="130.76147"
	x2="638.8922"
	y2="133.84766" />
<line
	class="arc2"
	id="link150_@2_152"
	x1="625.96924"
	y1="335.6152"
	x2="628.6697"
	y2="330.15585" />
<line
	class="arc1"
	id="link127_@1_73"
	x1="702.9397"
	y1="133.11938"
	x2="683.7724"
	y2="144.99255" />
<line
	class="arc1"
	id="link152_@1_62"
	x1="628.6697"
	y1="330.15585"
	x2="631.3701"
	y2="311.99884" />
<line
	class="arc1"
	id="link97_@1_91"
	x1="638.8922"
	y1="133.84766"
	x2="650.7213"
	y2="141.38101" />
<line
	class="arc2"
	id="link157_@2_155"
	x1="666.2961"
	y1="399.26547"
	x2="663.5957"
	y2="392.02722" />
<line
	class="arc0"
	id="link157_@0_156"
	x1="666.2961"
	y1="399.26547"
	x2="687.7199"
	y2="355.95395" />
<line
	class="arc0"
	id="link155_@0_154"
	x1="663.5957"
	y1="392.02722"
	x2="685.0194"
	y2="348.7157" />
<line
	class="arc2"
	id="link90_@2_84"
	x1="622.9635"
	y1="256.05893"
	x2="628.3643"
	y2="257.83783" />
<line
	class="arc0"
	id="link90_@0_91"
	x1="622.9635"
	y1="256.05893"
	x2="650.7213"
	y2="141.38101" />
<polygon
	points="628.3643,257.83783 656.1222,143.15991 676.6984,146.29984 691.7881,275.09036 684.7905,304.00037 632.1685,290.3056 "
	id="face_85_79_78_77_83_84"
	style="fill:rgb(192,192,192);stroke:none"
	opacity="1.0" />
<line
	class="arc1"
	id="link84_@1_83"
	x1="628.3643"
	y1="257.83783"
	x2="632.1685"
	y2="290.3056" />
<line
	class="arc0"
	id="link84_@0_85"
	x1="628.3643"
	y1="257.83783"
	x2="656.1222"
	y2="143.15991" />
<line
	class="arc2"
	id="link63_@2_62"
	x1="627.31946"
	y1="307.49033"
	x2="631.3701"
	y2="311.99884" />
<line
	class="arc3"
	id="link63_@3_82"
	x1="627.31946"
	y1="307.49033"
	x2="627.7186"
	y2="296.6437" />
<line
	class="arc0"
	id="link63_@0_57"
	x1="627.31946"
	y1="307.49033"
	x2="689.7159"
	y2="320.76724" />
<line
	class="arc0"
	id="link62_@0_56"
	x1="631.3701"
	y1="311.99884"
	x2="683.9921"
	y2="325.69363" />
<line
	class="arc2"
	id="link82_@2_83"
	x1="627.7186"
	y1="296.6437"
	x2="632.1685"
	y2="290.3056" />
<line
	class="arc0"
	id="link82_@0_76"
	x1="627.7186"
	y1="296.6437"
	x2="690.11505"
	y2="309.92062" />
<line
	class="arc0"
	id="link83_@0_77"
	x1="632.1685"
	y1="290.3056"
	x2="684.7905"
	y2="304.00037" />
<line
	class="arc2"
	id="link91_@2_85"
	x1="650.7213"
	y1="141.38101"
	x2="656.1222"
	y2="143.15991" />
<line
	class="arc1"
	id="link85_@1_79"
	x1="656.1222"
	y1="143.15991"
	x2="676.6984"
	y2="146.29984" />
<line
	class="arc1"
	id="link50_@1_49"
	x1="722.06244"
	y1="326.39542"
	x2="705.9185"
	y2="364.19675" />
<line
	class="arc2"
	id="link50_@2_51"
	x1="722.06244"
	y1="326.39542"
	x2="719.362"
	y2="319.15717" />
<line
	class="arc1"
	id="link51_@1_57"
	x1="719.362"
	y1="319.15717"
	x2="689.7159"
	y2="320.76724" />
<line
	class="arc3"
	id="link51_@3_70"
	x1="719.362"
	y1="319.15717"
	x2="718.411"
	y2="304.69144" />
<line
	class="arc2"
	id="link73_@2_79"
	x1="683.7724"
	y1="144.99255"
	x2="676.6984"
	y2="146.29984" />
<line
	class="arc0"
	id="link73_@0_72"
	x1="683.7724"
	y1="144.99255"
	x2="698.8621"
	y2="273.78308" />
<line
	class="arc1"
	id="link70_@1_76"
	x1="718.411"
	y1="304.69144"
	x2="690.11505"
	y2="309.92062" />
<line
	class="arc2"
	id="link70_@2_71"
	x1="718.411"
	y1="304.69144"
	x2="720.1604"
	y2="297.46396" />
<line
	class="arc1"
	id="link71_@1_72"
	x1="720.1604"
	y1="297.46396"
	x2="698.8621"
	y2="273.78308" />
<line
	class="arc0"
	id="link79_@0_78"
	x1="676.6984"
	y1="146.29984"
	x2="691.7881"
	y2="275.09036" />
<line
	class="arc2"
	id="link49_@2_55"
	x1="705.9185"
	y1="364.19675"
	x2="700.19476"
	y2="369.12314" />
<line
	class="arc1"
	id="link55_@1_156"
	x1="700.19476"
	y1="369.12314"
	x2="687.7199"
	y2="355.95395" />
<line
	class="arc2"
	id="link57_@2_56"
	x1="689.7159"
	y1="320.76724"
	x2="683.9921"
	y2="325.69363" />
<line
	class="arc3"
	id="link57_@3_76"
	x1="689.7159"
	y1="320.76724"
	x2="690.11505"
	y2="309.92062" />
<line
	class="arc2"
	id="link76_@2_77"
	x1="690.11505"
	y1="309.92062"
	x2="684.7905"
	y2="304.00037" />
<line
	class="arc1"
	id="link56_@1_154"
	x1="683.9921"
	y1="325.69363"
	x2="685.0194"
	y2="348.7157" />
<line
	class="arc2"
	id="link156_@2_154"
	x1="687.7199"
	y1="355.95395"
	x2="685.0194"
	y2="348.7157" />
<line
	class="arc2"
	id="link72_@2_78"
	x1="698.8621"
	y1="273.78308"
	x2="691.7881"
	y2="275.09036" />
<line
	class="arc1"
	id="link77_@1_78"
	x1="684.7905"
	y1="304.00037"
	x2="691.7881"
	y2="275.09036" />
</svg>
