<?xml version="1.0" encoding="UTF-8" standalone="no"?>
<!-- Created with Jerboa -->

<svg
   width="450.86359"
   height="752.63342"
   version="1.1"
   id="svg993"
   sodipodi:docname="7-reevaluation-chamfer.svg"
   xml:space="preserve"
   inkscape:version="1.2.2 (b0a8486541, 2022-12-01)"
   xmlns:inkscape="http://www.inkscape.org/namespaces/inkscape"
   xmlns:sodipodi="http://sodipodi.sourceforge.net/DTD/sodipodi-0.dtd"
   xmlns="http://www.w3.org/2000/svg"
   xmlns:svg="http://www.w3.org/2000/svg"><defs
     id="defs997" /><sodipodi:namedview
     id="namedview995"
     pagecolor="#ffffff"
     bordercolor="#000000"
     borderopacity="0.25"
     inkscape:showpageshadow="2"
     inkscape:pageopacity="0.0"
     inkscape:pagecheckerboard="0"
     inkscape:deskcolor="#d1d1d1"
     showgrid="false"
     inkscape:zoom="1.7510549"
     inkscape:cx="191.5988"
     inkscape:cy="518.83012"
     inkscape:window-width="1908"
     inkscape:window-height="1048"
     inkscape:window-x="1085"
     inkscape:window-y="25"
     inkscape:window-maximized="1"
     inkscape:current-layer="g6742" /><style
     id="style">
		.arc0 {
			fill:none;
			fill-rule:evenodd;
			stroke:black;
			stroke-width:4;
			stroke-linecap:round;
			stroke-linejoin:round;
			stroke-opacity:1;
		}
		.arc1 {
			fill:none;
			fill-rule:evenodd;
			stroke:red;
			stroke-width:4;
			stroke-linecap:round;
			stroke-linejoin:round;
			stroke-opacity:1;
		}
		.arc2 {
			fill:none;
			fill-rule:evenodd;
			stroke:blue;
			stroke-width:4;
			stroke-linecap:round;
			stroke-linejoin:round;
			stroke-opacity:1;
		}
		.arc3 {
			fill:none;
			fill-rule:evenodd;
			stroke:green;
			stroke-width:4;
			stroke-linecap:round;
			stroke-linejoin:round;
			stroke-opacity:1;
		}
		.topological-dart {
			fill:#000000;
			stroke:#000000;
			stroke-width:0;
			stroke-linecap:round;
			stroke-linejoin:round;
			stroke-dasharray:none;
			paint-order:markers fill stroke;
		}
	</style><style
     id="style-3">
		.arc0 {
			fill:none;
			fill-rule:evenodd;
			stroke:black;
			stroke-width:4;
			stroke-linecap:round;
			stroke-linejoin:round;
			stroke-opacity:1;
		}
		.arc1 {
			fill:none;
			fill-rule:evenodd;
			stroke:red;
			stroke-width:4;
			stroke-linecap:round;
			stroke-linejoin:round;
			stroke-opacity:1;
		}
		.arc2 {
			fill:none;
			fill-rule:evenodd;
			stroke:blue;
			stroke-width:4;
			stroke-linecap:round;
			stroke-linejoin:round;
			stroke-opacity:1;
		}
		.arc3 {
			fill:none;
			fill-rule:evenodd;
			stroke:green;
			stroke-width:4;
			stroke-linecap:round;
			stroke-linejoin:round;
			stroke-opacity:1;
		}
		.topological-dart {
			fill:#000000;
			stroke:#000000;
			stroke-width:0;
			stroke-linecap:round;
			stroke-linejoin:round;
			stroke-dasharray:none;
			paint-order:markers fill stroke;
		}
	</style><style
     id="style-1">
		.arc0 {
			fill:none;
			fill-rule:evenodd;
			stroke:black;
			stroke-width:4;
			stroke-linecap:round;
			stroke-linejoin:round;
			stroke-opacity:1;
		}
		.arc1 {
			fill:none;
			fill-rule:evenodd;
			stroke:red;
			stroke-width:4;
			stroke-linecap:round;
			stroke-linejoin:round;
			stroke-opacity:1;
		}
		.arc2 {
			fill:none;
			fill-rule:evenodd;
			stroke:blue;
			stroke-width:4;
			stroke-linecap:round;
			stroke-linejoin:round;
			stroke-opacity:1;
		}
		.arc3 {
			fill:none;
			fill-rule:evenodd;
			stroke:green;
			stroke-width:4;
			stroke-linecap:round;
			stroke-linejoin:round;
			stroke-opacity:1;
		}
		.topological-dart {
			fill:#000000;
			stroke:#000000;
			stroke-width:0;
			stroke-linecap:round;
			stroke-linejoin:round;
			stroke-dasharray:none;
			paint-order:markers fill stroke;
		}
	</style><style
     id="style-7">
		.arc0 {
			fill:none;
			fill-rule:evenodd;
			stroke:black;
			stroke-width:4;
			stroke-linecap:round;
			stroke-linejoin:round;
			stroke-opacity:1;
		}
		.arc1 {
			fill:none;
			fill-rule:evenodd;
			stroke:red;
			stroke-width:4;
			stroke-linecap:round;
			stroke-linejoin:round;
			stroke-opacity:1;
		}
		.arc2 {
			fill:none;
			fill-rule:evenodd;
			stroke:blue;
			stroke-width:4;
			stroke-linecap:round;
			stroke-linejoin:round;
			stroke-opacity:1;
		}
		.arc3 {
			fill:none;
			fill-rule:evenodd;
			stroke:green;
			stroke-width:4;
			stroke-linecap:round;
			stroke-linejoin:round;
			stroke-opacity:1;
		}
		.topological-dart {
			fill:#000000;
			stroke:#000000;
			stroke-width:0;
			stroke-linecap:round;
			stroke-linejoin:round;
			stroke-dasharray:none;
			paint-order:markers fill stroke;
		}
	</style><style
     id="style-0">
		.arc0 {
			fill:none;
			fill-rule:evenodd;
			stroke:black;
			stroke-width:4;
			stroke-linecap:round;
			stroke-linejoin:round;
			stroke-opacity:1;
		}
		.arc1 {
			fill:none;
			fill-rule:evenodd;
			stroke:red;
			stroke-width:4;
			stroke-linecap:round;
			stroke-linejoin:round;
			stroke-opacity:1;
		}
		.arc2 {
			fill:none;
			fill-rule:evenodd;
			stroke:blue;
			stroke-width:4;
			stroke-linecap:round;
			stroke-linejoin:round;
			stroke-opacity:1;
		}
		.arc3 {
			fill:none;
			fill-rule:evenodd;
			stroke:green;
			stroke-width:4;
			stroke-linecap:round;
			stroke-linejoin:round;
			stroke-opacity:1;
		}
		.topological-dart {
			fill:#000000;
			stroke:#000000;
			stroke-width:0;
			stroke-linecap:round;
			stroke-linejoin:round;
			stroke-dasharray:none;
			paint-order:markers fill stroke;
		}
	</style><style
     id="style-9">
		.arc0 {
			fill:none;
			fill-rule:evenodd;
			stroke:black;
			stroke-width:4;
			stroke-linecap:round;
			stroke-linejoin:round;
			stroke-opacity:1;
		}
		.arc1 {
			fill:none;
			fill-rule:evenodd;
			stroke:red;
			stroke-width:4;
			stroke-linecap:round;
			stroke-linejoin:round;
			stroke-opacity:1;
		}
		.arc2 {
			fill:none;
			fill-rule:evenodd;
			stroke:blue;
			stroke-width:4;
			stroke-linecap:round;
			stroke-linejoin:round;
			stroke-opacity:1;
		}
		.arc3 {
			fill:none;
			fill-rule:evenodd;
			stroke:green;
			stroke-width:4;
			stroke-linecap:round;
			stroke-linejoin:round;
			stroke-opacity:1;
		}
		.topological-dart {
			fill:#000000;
			stroke:#000000;
			stroke-width:0;
			stroke-linecap:round;
			stroke-linejoin:round;
			stroke-dasharray:none;
			paint-order:markers fill stroke;
		}
	</style><g
     id="g6742"
     transform="matrix(1.2242424,0,0,1.2242424,-656.0636,-26.463108)"><polygon
       points="917.5268,438.47348 890.0309,461.73898 760.3406,419.023 732.8446,377.64493 732.8446,225.19217 760.3406,201.92667 890.0309,244.64264 917.5268,286.02075 "
       id="face_27_28_33_32_31_30_25_26"
       style="fill:#c0c0c0;stroke:none"
       opacity="1"
       transform="translate(-16.661049,76.391949)" /><line
       class="arc1"
       id="link26_@1_25"
       x1="716.18353"
       y1="454.03687"
       x2="743.6795"
       y2="495.41495" /><line
       class="arc2"
       id="link26_@2_21"
       x1="716.18353"
       y1="454.03687"
       x2="703.74316"
       y2="454.5687" /><line
       class="arc0"
       id="link26_@0_27"
       x1="716.18353"
       y1="454.03687"
       x2="716.18353"
       y2="301.58411" /><polygon
       points="565.6961,447.55548 589.6803,473.29993 698.1385,421.68213 720.40424,378.17676 720.40424,225.72403 698.1385,204.58582 589.6803,256.2036 565.6961,303.18323 "
       id="face_22_23_18_17_16_15_20_21"
       style="fill:#c0c0c0;stroke:none"
       opacity="1"
       transform="translate(-16.661049,76.391949)" /><line
       class="arc1"
       id="link21_@1_20"
       x1="703.74316"
       y1="454.5687"
       x2="681.47742"
       y2="498.07407" /><line
       class="arc0"
       id="link21_@0_22"
       x1="703.74316"
       y1="454.5687"
       x2="703.74316"
       y2="302.11597" /><line
       class="arc2"
       id="link25_@2_0"
       x1="743.6795"
       y1="495.41495"
       x2="738.11304"
       y2="506.29129" /><line
       class="arc0"
       id="link25_@0_30"
       x1="743.6795"
       y1="495.41495"
       x2="873.36981"
       y2="538.13092" /><polygon
       points="791.54736,547.86914 753.81525,557.9988 674.4002,541.1005 643.46735,530.91223 586.318,502.83038 593.1173,482.51245 705.01245,432.02667 754.7741,429.89935 884.4645,472.61536 889.69464,492.85522 "
       id="face_7_6_5_4_9_8_3_2_1_0"
       style="fill:#c0c0c0;stroke:none"
       opacity="1"
       transform="translate(-16.661049,76.391949)" /><line
       class="arc1"
       id="link0_@1_1"
       x1="738.11304"
       y1="506.29129"
       x2="688.35138"
       y2="508.41861" /><line
       class="arc0"
       id="link0_@0_7"
       x1="738.11304"
       y1="506.29129"
       x2="867.80341"
       y2="549.00732" /><line
       class="arc2"
       id="link20_@2_1"
       x1="681.47742"
       y1="498.07407"
       x2="688.35138"
       y2="508.41861" /><line
       class="arc0"
       id="link20_@0_15"
       x1="681.47742"
       y1="498.07407"
       x2="573.01923"
       y2="549.69189" /><line
       class="arc0"
       id="link1_@0_2"
       x1="688.35138"
       y1="508.41861"
       x2="576.45624"
       y2="558.90442" /><line
       class="arc1"
       id="link27_@1_28"
       x1="716.18353"
       y1="301.58411"
       x2="743.6795"
       y2="278.3186" /><line
       class="arc2"
       id="link27_@2_22"
       x1="716.18353"
       y1="301.58411"
       x2="703.74316"
       y2="302.11597" /><line
       class="arc1"
       id="link22_@1_23"
       x1="703.74316"
       y1="302.11597"
       x2="681.47742"
       y2="280.97775" /><line
       class="arc1"
       id="link30_@1_31"
       x1="873.36981"
       y1="538.13092"
       x2="900.86572"
       y2="514.86542" /><line
       class="arc2"
       id="link30_@2_7"
       x1="873.36981"
       y1="538.13092"
       x2="867.80341"
       y2="549.00732" /><line
       class="arc2"
       id="link28_@2_29"
       x1="743.6795"
       y1="278.3186"
       x2="738.11304"
       y2="273.03406" /><line
       class="arc0"
       id="link28_@0_33"
       x1="743.6795"
       y1="278.3186"
       x2="873.36981"
       y2="321.03458" /><line
       class="arc1"
       id="link7_@1_6"
       x1="867.80341"
       y1="549.00732"
       x2="873.03357"
       y2="569.24719" /><line
       class="arc2"
       id="link23_@2_24"
       x1="681.47742"
       y1="280.97775"
       x2="688.35138"
       y2="275.16141" /><line
       class="arc0"
       id="link23_@0_18"
       x1="681.47742"
       y1="280.97775"
       x2="573.01923"
       y2="332.59555" /><polygon
       points="791.54736,314.6119 753.81525,316.66113 674.4002,299.7629 643.46735,289.57452 586.318,261.49277 593.1173,249.25522 705.01245,198.76947 754.7741,196.64212 884.4645,239.35812 889.69464,259.598 "
       id="face_34_39_44_49_54_59_14_19_24_29"
       style="fill:#c0c0c0;stroke:none"
       opacity="1"
       transform="translate(-16.661049,76.391949)" /><line
       class="arc1"
       id="link29_@1_24"
       x1="738.11304"
       y1="273.03406"
       x2="688.35138"
       y2="275.16141" /><line
       class="arc3"
       id="link29_@3_102"
       x1="738.11304"
       y1="273.03406"
       x2="738.17133"
       y2="261.79114" /><line
       class="arc0"
       id="link29_@0_34"
       x1="738.11304"
       y1="273.03406"
       x2="867.80341"
       y2="315.75006" /><line
       class="arc3"
       id="link24_@3_96"
       x1="688.35138"
       y1="275.16141"
       x2="688.40967"
       y2="263.91843" /><line
       class="arc0"
       id="link24_@0_19"
       x1="688.35138"
       y1="275.16141"
       x2="576.45624"
       y2="325.64716" /><polygon
       points="740.61633,84.645386 729.3848,93.673035 733.19434,157.73438 760.4571,179.44083 881.8987,219.43988 893.1302,210.4123 828.0041,126.15515 800.7412,104.44867 "
       id="face_109_110_111_82_88_105_104_103"
       style="fill:#c0c0c0;stroke:none"
       opacity="1"
       transform="translate(-16.661049,76.391949)" /><line
       class="arc1"
       id="link103_@1_104"
       x1="743.79602"
       y1="255.83278"
       x2="716.53326"
       y2="234.12633" /><line
       class="arc2"
       id="link103_@2_102"
       x1="743.79602"
       y1="255.83278"
       x2="738.17133"
       y2="261.79114" /><line
       class="arc0"
       id="link103_@0_109"
       x1="743.79602"
       y1="255.83278"
       x2="865.23761"
       y2="295.83182" /><polygon
       points="790.82117,300.33295 754.8075,306.98837 674.0177,289.63733 646.5218,280.58105 587.9977,252.04642 596.51544,236.33472 705.07074,187.52649 754.8324,185.3992 880.3984,226.75674 885.62854,246.99661 "
       id="face_108_114_60_66_72_78_84_90_96_102"
       style="fill:#c0c0c0;stroke:none"
       opacity="1"
       transform="translate(-16.661049,76.391949)" /><line
       class="arc1"
       id="link102_@1_96"
       x1="738.17133"
       y1="261.79114"
       x2="688.40967"
       y2="263.91843" /><line
       class="arc0"
       id="link102_@0_108"
       x1="738.17133"
       y1="261.79114"
       x2="863.7373"
       y2="303.14868" /><line
       class="arc2"
       id="link104_@2_98"
       x1="716.53326"
       y1="234.12633"
       x2="704.09283"
       y2="234.65816" /><line
       class="arc0"
       id="link104_@0_105"
       x1="716.53326"
       y1="234.12633"
       x2="712.72375"
       y2="170.06499" /><line
       class="arc1"
       id="link2_@1_3"
       x1="576.45624"
       y1="558.90442"
       x2="569.65692"
       y2="579.22235" /><line
       class="arc2"
       id="link2_@2_15"
       x1="576.45624"
       y1="558.90442"
       x2="573.01923"
       y2="549.69189" /><line
       class="arc2"
       id="link96_@2_97"
       x1="688.40967"
       y1="263.91843"
       x2="681.59399"
       y2="258.49185" /><line
       class="arc0"
       id="link96_@0_90"
       x1="688.40967"
       y1="263.91843"
       x2="579.85437"
       y2="312.72665" /><polygon
       points="587.8034,222.18594 596.47656,230.36267 698.25507,182.09991 720.7539,158.2662 724.4087,93.88574 715.7355,85.709045 665.67255,109.71124 643.1737,133.54498 "
       id="face_99_94_100_93_92_91_97_98"
       style="fill:#c0c0c0;stroke:none"
       opacity="1"
       transform="translate(-16.661049,76.391949)" /><line
       class="arc1"
       id="link98_@1_97"
       x1="704.09283"
       y1="234.65816"
       x2="681.59399"
       y2="258.49185" /><line
       class="arc0"
       id="link98_@0_99"
       x1="704.09283"
       y1="234.65816"
       x2="707.74762"
       y2="170.27769" /><line
       class="arc1"
       id="link15_@1_16"
       x1="573.01923"
       y1="549.69189"
       x2="549.03503"
       y2="523.94745" /><line
       class="arc0"
       id="link97_@0_91"
       x1="681.59399"
       y1="258.49185"
       x2="579.81549"
       y2="306.75461" /><line
       class="arc2"
       id="link31_@2_36"
       x1="900.86572"
       y1="514.86542"
       x2="902.17322"
       y2="519.92542" /><line
       class="arc0"
       id="link31_@0_32"
       x1="900.86572"
       y1="514.86542"
       x2="900.86572"
       y2="362.41269" /><polygon
       points="774.43713,516.30835 794.9844,540.9207 896.56854,487.03885 918.8343,443.53345 918.8343,291.08072 896.56854,269.94247 794.9844,323.82434 774.43713,371.936 "
       id="face_37_38_43_42_41_40_35_36"
       style="fill:#c0c0c0;stroke:none"
       opacity="1"
       transform="translate(-16.661049,76.391949)" /><line
       class="arc1"
       id="link36_@1_35"
       x1="902.17322"
       y1="519.92542"
       x2="879.90747"
       y2="563.43079" /><line
       class="arc0"
       id="link36_@0_37"
       x1="902.17322"
       y1="519.92542"
       x2="902.17322"
       y2="367.47266" /><line
       class="arc2"
       id="link6_@2_35"
       x1="873.03357"
       y1="569.24719"
       x2="879.90747"
       y2="563.43079" /><line
       class="arc0"
       id="link6_@0_5"
       x1="873.03357"
       y1="569.24719"
       x2="774.88629"
       y2="624.26111" /><line
       class="arc0"
       id="link35_@0_40"
       x1="879.90747"
       y1="563.43079"
       x2="778.3233"
       y2="617.31268" /><line
       class="arc2"
       id="link3_@2_10"
       x1="569.65692"
       y1="579.22235"
       x2="565.80902"
       y2="578.54407" /><line
       class="arc0"
       id="link3_@0_8"
       x1="569.65692"
       y1="579.22235"
       x2="626.80627"
       y2="607.3042" /><line
       class="arc2"
       id="link16_@2_11"
       x1="549.03503"
       y1="523.94745"
       x2="545.18707"
       y2="523.2691" /><line
       class="arc0"
       id="link16_@0_17"
       x1="549.03503"
       y1="523.94745"
       x2="549.03503"
       y2="379.57516" /><polygon
       points="638.3119,525.17395 641.74884,502.0646 614.48175,428.97797 597.2968,423.3178 570.0297,478.44257 582.4701,502.1521 "
       id="face_55_120_121_135_134_10"
       style="fill:#c0c0c0;stroke:none"
       opacity="1"
       transform="translate(-16.661049,76.391949)" /><line
       class="arc1"
       id="link10_@1_134"
       x1="565.80902"
       y1="578.54407"
       x2="553.36865"
       y2="554.83453" /><line
       class="arc0"
       id="link10_@0_55"
       x1="565.80902"
       y1="578.54407"
       x2="621.65082"
       y2="601.56592" /><polygon
       points="561.84814,310.5853 566.5927,300.6164 593.8598,373.70306 593.8598,414.1053 566.5927,469.2301 561.84814,446.87717 "
       id="face_12_130_131_133_132_11"
       style="fill:#c0c0c0;stroke:none"
       opacity="1"
       transform="translate(-16.661049,76.391949)" /><line
       class="arc1"
       id="link11_@1_132"
       x1="545.18707"
       y1="523.2691"
       x2="549.93164"
       y2="545.62207" /><line
       class="arc0"
       id="link11_@0_12"
       x1="545.18707"
       y1="523.2691"
       x2="545.18707"
       y2="386.97723" /><line
       class="arc2"
       id="link134_@2_132"
       x1="553.36865"
       y1="554.83453"
       x2="549.93164"
       y2="545.62207" /><line
       class="arc0"
       id="link134_@0_135"
       x1="553.36865"
       y1="554.83453"
       x2="580.63574"
       y2="499.70975" /><line
       class="arc0"
       id="link132_@0_133"
       x1="549.93164"
       y1="545.62207"
       x2="577.19873"
       y2="490.49722" /><line
       class="arc1"
       id="link33_@1_32"
       x1="873.36981"
       y1="321.03458"
       x2="900.86572"
       y2="362.41269" /><line
       class="arc2"
       id="link33_@2_34"
       x1="873.36981"
       y1="321.03458"
       x2="867.80341"
       y2="315.75006" /><line
       class="arc2"
       id="link32_@2_37"
       x1="900.86572"
       y1="362.41269"
       x2="902.17322"
       y2="367.47266" /><line
       class="arc1"
       id="link34_@1_39"
       x1="867.80341"
       y1="315.75006"
       x2="873.03357"
       y2="335.98993" /><line
       class="arc3"
       id="link34_@3_108"
       x1="867.80341"
       y1="315.75006"
       x2="863.7373"
       y2="303.14868" /><line
       class="arc1"
       id="link109_@1_110"
       x1="865.23761"
       y1="295.83182"
       x2="876.46912"
       y2="286.80423" /><line
       class="arc2"
       id="link109_@2_108"
       x1="865.23761"
       y1="295.83182"
       x2="863.7373"
       y2="303.14868" /><line
       class="arc1"
       id="link108_@1_114"
       x1="863.7373"
       y1="303.14868"
       x2="868.96747"
       y2="323.38855" /><line
       class="arc1"
       id="link37_@1_38"
       x1="902.17322"
       y1="367.47266"
       x2="879.90747"
       y2="346.33441" /><line
       class="arc1"
       id="link55_@1_120"
       x1="621.65082"
       y1="601.56592"
       x2="625.08777"
       y2="578.45654" /><line
       class="arc2"
       id="link55_@2_8"
       x1="621.65082"
       y1="601.56592"
       x2="626.80627"
       y2="607.3042" /><line
       class="arc1"
       id="link8_@1_9"
       x1="626.80627"
       y1="607.3042"
       x2="657.73914"
       y2="617.49249" /><line
       class="arc1"
       id="link18_@1_17"
       x1="573.01923"
       y1="332.59555"
       x2="549.03503"
       y2="379.57516" /><line
       class="arc2"
       id="link18_@2_19"
       x1="573.01923"
       y1="332.59555"
       x2="576.45624"
       y2="325.64716" /><line
       class="arc1"
       id="link99_@1_94"
       x1="707.74762"
       y1="170.27769"
       x2="699.0744"
       y2="162.101" /><line
       class="arc2"
       id="link99_@2_105"
       x1="707.74762"
       y1="170.27769"
       x2="712.72375"
       y2="170.06499" /><line
       class="arc1"
       id="link105_@1_88"
       x1="712.72375"
       y1="170.06499"
       x2="723.95526"
       y2="161.03734" /><line
       class="arc1"
       id="link19_@1_14"
       x1="576.45624"
       y1="325.64716"
       x2="569.65692"
       y2="337.8847" /><line
       class="arc3"
       id="link19_@3_90"
       x1="576.45624"
       y1="325.64716"
       x2="579.85437"
       y2="312.72665" /><line
       class="arc1"
       id="link135_@1_121"
       x1="580.63574"
       y1="499.70975"
       x2="597.82068"
       y2="505.3699" /><line
       class="arc2"
       id="link135_@2_133"
       x1="580.63574"
       y1="499.70975"
       x2="577.19873"
       y2="490.49722" /><line
       class="arc2"
       id="link17_@2_12"
       x1="549.03503"
       y1="379.57516"
       x2="545.18707"
       y2="386.97723" /><line
       class="arc1"
       id="link133_@1_131"
       x1="577.19873"
       y1="490.49722"
       x2="577.19873"
       y2="450.095" /><line
       class="arc1"
       id="link91_@1_92"
       x1="579.81549"
       y1="306.75461"
       x2="571.14233"
       y2="298.57788" /><line
       class="arc2"
       id="link91_@2_90"
       x1="579.81549"
       y1="306.75461"
       x2="579.85437"
       y2="312.72665" /><line
       class="arc2"
       id="link120_@2_122"
       x1="625.08777"
       y1="578.45654"
       x2="628.52472"
       y2="571.50818" /><line
       class="arc0"
       id="link120_@0_121"
       x1="625.08777"
       y1="578.45654"
       x2="597.82068"
       y2="505.3699" /><line
       class="arc1"
       id="link90_@1_84"
       x1="579.85437"
       y1="312.72665"
       x2="571.33661"
       y2="328.43835" /><line
       class="arc1"
       id="link12_@1_130"
       x1="545.18707"
       y1="386.97723"
       x2="549.93164"
       y2="377.00833" /><polygon
       points="617.9187,422.02954 617.9187,381.62732 645.1858,326.50256 657.2153,350.66577 657.2153,478.8772 645.1858,495.1162 "
       id="face_123_125_124_57_56_122"
       style="fill:#c0c0c0;stroke:none"
       opacity="1"
       transform="translate(-16.661049,76.391949)" /><line
       class="arc1"
       id="link122_@1_56"
       x1="628.52472"
       y1="571.50818"
       x2="640.5542"
       y2="555.26917" /><line
       class="arc0"
       id="link122_@0_123"
       x1="628.52472"
       y1="571.50818"
       x2="601.25763"
       y2="498.42148" /><line
       class="arc2"
       id="link110_@2_116"
       x1="876.46912"
       y1="286.80423"
       x2="877.77667"
       y2="291.8642" /><line
       class="arc0"
       id="link110_@0_111"
       x1="876.46912"
       y1="286.80423"
       x2="811.34302"
       y2="202.5471" /><line
       class="arc2"
       id="link121_@2_123"
       x1="597.82068"
       y1="505.3699"
       x2="601.25763"
       y2="498.42148" /><line
       class="arc2"
       id="link9_@2_50"
       x1="657.73914"
       y1="617.49249"
       x2="662.89465"
       y2="615.15033" /><line
       class="arc0"
       id="link9_@0_4"
       x1="657.73914"
       y1="617.49249"
       x2="737.15417"
       y2="634.39075" /><line
       class="arc1"
       id="link123_@1_125"
       x1="601.25763"
       y1="498.42148"
       x2="601.25763"
       y2="458.01926" /><line
       class="arc2"
       id="link131_@2_129"
       x1="577.19873"
       y1="450.095"
       x2="580.63574"
       y2="443.14661" /><line
       class="arc0"
       id="link131_@0_130"
       x1="577.19873"
       y1="450.095"
       x2="549.93164"
       y2="377.00833" /><polygon
       points="746.5303,556.1884 747.8379,537.007 720.57074,463.9204 703.3858,458.26022 676.1187,513.385 679.5557,538.75836 "
       id="face_45_150_151_137_136_50"
       style="fill:#c0c0c0;stroke:none"
       opacity="1"
       transform="translate(-16.661049,76.391949)" /><line
       class="arc1"
       id="link50_@1_136"
       x1="662.89465"
       y1="615.15033"
       x2="659.45764"
       y2="589.77698" /><line
       class="arc0"
       id="link50_@0_45"
       x1="662.89465"
       y1="615.15033"
       x2="729.8692"
       y2="632.58038" /><line
       class="arc2"
       id="link39_@2_38"
       x1="873.03357"
       y1="335.98993"
       x2="879.90747"
       y2="346.33441" /><line
       class="arc3"
       id="link39_@3_114"
       x1="873.03357"
       y1="335.98993"
       x2="868.96747"
       y2="323.38855" /><line
       class="arc0"
       id="link39_@0_44"
       x1="873.03357"
       y1="335.98993"
       x2="774.88629"
       y2="391.00385" /><polygon
       points="768.3612,281.65607 793.5319,295.26654 888.4364,244.73975 894.43774,215.47226 828.52704,128.17914 803.3563,114.5686 756.0429,139.47644 750.0416,168.74396 "
       id="face_117_76_70_63_62_61_115_116"
       style="fill:#c0c0c0;stroke:none"
       opacity="1"
       transform="translate(-16.661049,76.391949)" /><line
       class="arc1"
       id="link116_@1_115"
       x1="877.77667"
       y1="291.8642"
       x2="871.77533"
       y2="321.13168" /><line
       class="arc0"
       id="link116_@0_117"
       x1="877.77667"
       y1="291.8642"
       x2="811.86597"
       y2="204.57109" /><line
       class="arc0"
       id="link38_@0_43"
       x1="879.90747"
       y1="346.33441"
       x2="778.3233"
       y2="400.21628" /><polygon
       points="570.0297,293.66803 582.4701,268.89487 638.3119,291.9167 641.74884,317.2901 614.48175,372.41486 597.2968,366.75467 "
       id="face_128_13_58_126_127_129"
       style="fill:#c0c0c0;stroke:none"
       opacity="1"
       transform="translate(-16.661049,76.391949)" /><line
       class="arc1"
       id="link129_@1_127"
       x1="580.63574"
       y1="443.14661"
       x2="597.82068"
       y2="448.80679" /><line
       class="arc0"
       id="link129_@0_128"
       x1="580.63574"
       y1="443.14661"
       x2="553.36865"
       y2="370.05997" /><line
       class="arc2"
       id="link88_@2_89"
       x1="723.95526"
       y1="161.03734"
       x2="721.78699"
       y2="158.99321" /><line
       class="arc0"
       id="link88_@0_82"
       x1="723.95526"
       y1="161.03734"
       x2="784.08014"
       y2="180.84062" /><line
       class="arc2"
       id="link130_@2_128"
       x1="549.93164"
       y1="377.00833"
       x2="553.36865"
       y2="370.05997" /><line
       class="arc2"
       id="link56_@2_51"
       x1="640.5542"
       y1="555.26917"
       x2="643.99121"
       y2="556.40118" /><line
       class="arc0"
       id="link56_@0_57"
       x1="640.5542"
       y1="555.26917"
       x2="640.5542"
       y2="427.05771" /><line
       class="arc2"
       id="link114_@2_115"
       x1="868.96747"
       y1="323.38855"
       x2="871.77533"
       y2="321.13168" /><line
       class="arc0"
       id="link114_@0_60"
       x1="868.96747"
       y1="323.38855"
       x2="774.1601"
       y2="376.72488" /><line
       class="arc2"
       id="link94_@2_95"
       x1="699.0744"
       y1="162.101"
       x2="701.88226"
       y2="159.84416" /><line
       class="arc0"
       id="link94_@0_100"
       x1="699.0744"
       y1="162.101"
       x2="649.01147"
       y2="186.1032" /><line
       class="arc2"
       id="link136_@2_138"
       x1="659.45764"
       y1="589.77698"
       x2="656.02063"
       y2="580.56445" /><line
       class="arc0"
       id="link136_@0_137"
       x1="659.45764"
       y1="589.77698"
       x2="686.72473"
       y2="534.65216" /><polygon
       points="660.6523,351.79782 672.6817,335.55884 699.94885,408.6455 699.94885,449.04773 672.6817,504.17252 660.6523,480.00922 "
       id="face_52_140_141_139_138_51"
       style="fill:#c0c0c0;stroke:none"
       opacity="1"
       transform="translate(-16.661049,76.391949)" /><line
       class="arc1"
       id="link51_@1_138"
       x1="643.99121"
       y1="556.40118"
       x2="656.02063"
       y2="580.56445" /><line
       class="arc0"
       id="link51_@0_52"
       x1="643.99121"
       y1="556.40118"
       x2="643.99121"
       y2="428.18976" /><line
       class="arc0"
       id="link138_@0_139"
       x1="656.02063"
       y1="580.56445"
       x2="683.28778"
       y2="525.4397" /><line
       class="arc1"
       id="link128_@1_13"
       x1="553.36865"
       y1="370.05997"
       x2="565.80902"
       y2="345.2868" /><polygon
       points="753.94183,132.82513 739.5363,135.48737 704.3334,127.59601 693.335,123.97351 667.0383,111.6087 670.44543,105.3241 718.54333,83.45221 738.44806,82.60126 794.44855,101.04614 796.54065,109.14209 "
       id="face_83_77_71_65_119_113_107_101_95_89"
       style="fill:#c0c0c0;stroke:none"
       opacity="1"
       transform="translate(-16.661049,76.391949)" /><line
       class="arc1"
       id="link89_@1_95"
       x1="721.78699"
       y1="158.99321"
       x2="701.88226"
       y2="159.84416" /><line
       class="arc0"
       id="link89_@0_83"
       x1="721.78699"
       y1="158.99321"
       x2="777.78748"
       y2="177.4381" /><line
       class="arc0"
       id="link115_@0_61"
       x1="871.77533"
       y1="321.13168"
       x2="776.87085"
       y2="371.65848" /><line
       class="arc2"
       id="link125_@2_127"
       x1="601.25763"
       y1="458.01926"
       x2="597.82068"
       y2="448.80679" /><line
       class="arc0"
       id="link125_@0_124"
       x1="601.25763"
       y1="458.01926"
       x2="628.52472"
       y2="402.8945" /><line
       class="arc2"
       id="link14_@2_13"
       x1="569.65692"
       y1="337.8847"
       x2="565.80902"
       y2="345.2868" /><line
       class="arc3"
       id="link14_@3_84"
       x1="569.65692"
       y1="337.8847"
       x2="571.33661"
       y2="328.43835" /><line
       class="arc0"
       id="link14_@0_59"
       x1="569.65692"
       y1="337.8847"
       x2="626.80627"
       y2="365.96646" /><line
       class="arc2"
       id="link92_@2_86"
       x1="571.14233"
       y1="298.57788"
       x2="569.01288"
       y2="302.50583" /><line
       class="arc0"
       id="link92_@0_93"
       x1="571.14233"
       y1="298.57788"
       x2="626.51263"
       y2="209.93694" /><line
       class="arc0"
       id="link95_@0_101"
       x1="701.88226"
       y1="159.84416"
       x2="653.78436"
       y2="181.71605" /><line
       class="arc0"
       id="link127_@0_126"
       x1="597.82068"
       y1="448.80679"
       x2="625.08777"
       y2="393.68204" /><line
       class="arc2"
       id="link84_@2_85"
       x1="571.33661"
       y1="328.43835"
       x2="569.16827"
       y2="326.39429" /><line
       class="arc0"
       id="link84_@0_78"
       x1="571.33661"
       y1="328.43835"
       x2="629.86072"
       y2="356.97299" /><line
       class="arc1"
       id="link5_@1_4"
       x1="774.88629"
       y1="624.26111"
       x2="737.15417"
       y2="634.39075" /><line
       class="arc2"
       id="link5_@2_40"
       x1="774.88629"
       y1="624.26111"
       x2="778.3233"
       y2="617.31268" /><line
       class="arc0"
       id="link13_@0_58"
       x1="565.80902"
       y1="345.2868"
       x2="621.65082"
       y2="368.30862" /><polygon
       points="663.51245,256.38077 644.4207,273.9298 585.82935,250.00235 585.67395,226.11389 642.32184,135.11615 661.41364,117.56708 690.6243,129.03992 690.77966,152.92834 "
       id="face_87_106_112_81_80_79_85_86"
       style="fill:#c0c0c0;stroke:none"
       opacity="1"
       transform="translate(-16.661049,76.391949)" /><line
       class="arc1"
       id="link86_@1_85"
       x1="569.01288"
       y1="302.50583"
       x2="569.16827"
       y2="326.39429" /><line
       class="arc0"
       id="link86_@0_87"
       x1="569.01288"
       y1="302.50583"
       x2="625.66077"
       y2="211.5081" /><line
       class="arc1"
       id="link40_@1_41"
       x1="778.3233"
       y1="617.31268"
       x2="757.77606"
       y2="592.70032" /><line
       class="arc0"
       id="link85_@0_79"
       x1="569.16827"
       y1="326.39429"
       x2="627.75964"
       y2="350.32175" /><line
       class="arc2"
       id="link4_@2_45"
       x1="737.15417"
       y1="634.39075"
       x2="729.8692"
       y2="632.58038" /><line
       class="arc1"
       id="link45_@1_150"
       x1="729.8692"
       y1="632.58038"
       x2="731.17682"
       y2="613.39899" /><line
       class="arc1"
       id="link111_@1_82"
       x1="811.34302"
       y1="202.5471"
       x2="784.08014"
       y2="180.84062" /><line
       class="arc2"
       id="link111_@2_117"
       x1="811.34302"
       y1="202.5471"
       x2="811.86597"
       y2="204.57109" /><line
       class="arc2"
       id="link82_@2_83"
       x1="784.08014"
       y1="180.84062"
       x2="777.78748"
       y2="177.4381" /><line
       class="arc1"
       id="link117_@1_76"
       x1="811.86597"
       y1="204.57109"
       x2="786.69525"
       y2="190.96056" /><line
       class="arc1"
       id="link83_@1_77"
       x1="777.78748"
       y1="177.4381"
       x2="779.87958"
       y2="185.53404" /><line
       class="arc1"
       id="link137_@1_151"
       x1="686.72473"
       y1="534.65216"
       x2="703.90967"
       y2="540.31238" /><line
       class="arc2"
       id="link137_@2_139"
       x1="686.72473"
       y1="534.65216"
       x2="683.28778"
       y2="525.4397" /><line
       class="arc1"
       id="link139_@1_141"
       x1="683.28778"
       y1="525.4397"
       x2="683.28778"
       y2="485.03745" /><line
       class="arc2"
       id="link150_@2_148"
       x1="731.17682"
       y1="613.39899"
       x2="734.61383"
       y2="606.45062" /><line
       class="arc0"
       id="link150_@0_151"
       x1="731.17682"
       y1="613.39899"
       x2="703.90967"
       y2="540.31238" /><line
       class="arc1"
       id="link100_@1_93"
       x1="649.01147"
       y1="186.1032"
       x2="626.51263"
       y2="209.93694" /><line
       class="arc2"
       id="link100_@2_101"
       x1="649.01147"
       y1="186.1032"
       x2="653.78436"
       y2="181.71605" /><line
       class="arc1"
       id="link57_@1_124"
       x1="640.5542"
       y1="427.05771"
       x2="628.52472"
       y2="402.8945" /><line
       class="arc2"
       id="link57_@2_52"
       x1="640.5542"
       y1="427.05771"
       x2="643.99121"
       y2="428.18976" /><line
       class="arc2"
       id="link93_@2_87"
       x1="626.51263"
       y1="209.93694"
       x2="625.66077"
       y2="211.5081" /><line
       class="arc2"
       id="link124_@2_126"
       x1="628.52472"
       y1="402.8945"
       x2="625.08777"
       y2="393.68204" /><line
       class="arc1"
       id="link126_@1_58"
       x1="625.08777"
       y1="393.68204"
       x2="621.65082"
       y2="368.30862" /><line
       class="arc1"
       id="link101_@1_107"
       x1="653.78436"
       y1="181.71605"
       x2="650.37726"
       y2="188.00066" /><line
       class="arc1"
       id="link52_@1_140"
       x1="643.99121"
       y1="428.18976"
       x2="656.02063"
       y2="411.95078" /><line
       class="arc1"
       id="link87_@1_106"
       x1="625.66077"
       y1="211.5081"
       x2="644.75256"
       y2="193.95903" /><polygon
       points="724.00775,456.972 724.00775,416.56976 751.2749,361.44498 767.1522,378.2061 767.1522,514.4979 751.2749,530.05865 "
       id="face_149_147_146_47_46_148"
       style="fill:#c0c0c0;stroke:none"
       opacity="1"
       transform="translate(-16.661049,76.391949)" /><line
       class="arc1"
       id="link148_@1_46"
       x1="734.61383"
       y1="606.45062"
       x2="750.49115"
       y2="590.88989" /><line
       class="arc0"
       id="link148_@0_149"
       x1="734.61383"
       y1="606.45062"
       x2="707.34668"
       y2="533.36395" /><line
       class="arc2"
       id="link41_@2_46"
       x1="757.77606"
       y1="592.70032"
       x2="750.49115"
       y2="590.88989" /><line
       class="arc0"
       id="link41_@0_42"
       x1="757.77606"
       y1="592.70032"
       x2="757.77606"
       y2="448.32794" /><line
       class="arc2"
       id="link151_@2_149"
       x1="703.90967"
       y1="540.31238"
       x2="707.34668"
       y2="533.36395" /><line
       class="arc2"
       id="link58_@2_59"
       x1="621.65082"
       y1="368.30862"
       x2="626.80627"
       y2="365.96646" /><line
       class="arc2"
       id="link76_@2_77"
       x1="786.69525"
       y1="190.96056"
       x2="779.87958"
       y2="185.53404" /><line
       class="arc0"
       id="link76_@0_70"
       x1="786.69525"
       y1="190.96056"
       x2="739.38184"
       y2="215.86839" /><line
       class="arc0"
       id="link77_@0_71"
       x1="779.87958"
       y1="185.53404"
       x2="737.28076"
       y2="209.21709" /><line
       class="arc0"
       id="link46_@0_47"
       x1="750.49115"
       y1="590.88989"
       x2="750.49115"
       y2="454.59802" /><line
       class="arc2"
       id="link141_@2_143"
       x1="683.28778"
       y1="485.03745"
       x2="686.72473"
       y2="478.08902" /><line
       class="arc0"
       id="link141_@0_140"
       x1="683.28778"
       y1="485.03745"
       x2="656.02063"
       y2="411.95078" /><line
       class="arc1"
       id="link149_@1_147"
       x1="707.34668"
       y1="533.36395"
       x2="707.34668"
       y2="492.9617" /><line
       class="arc1"
       id="link59_@1_54"
       x1="626.80627"
       y1="365.96646"
       x2="657.73914"
       y2="376.15485" /><line
       class="arc3"
       id="link59_@3_78"
       x1="626.80627"
       y1="365.96646"
       x2="629.86072"
       y2="356.97299" /><line
       class="arc2"
       id="link107_@2_106"
       x1="650.37726"
       y1="188.00066"
       x2="644.75256"
       y2="193.95903" /><line
       class="arc0"
       id="link107_@0_113"
       x1="650.37726"
       y1="188.00066"
       x2="676.67395"
       y2="200.36546" /><line
       class="arc0"
       id="link106_@0_112"
       x1="644.75256"
       y1="193.95903"
       x2="673.96326"
       y2="205.43187" /><line
       class="arc1"
       id="link79_@1_80"
       x1="627.75964"
       y1="350.32175"
       x2="646.85138"
       y2="332.77271" /><line
       class="arc2"
       id="link79_@2_78"
       x1="627.75964"
       y1="350.32175"
       x2="629.86072"
       y2="356.97299" /><polygon
       points="676.1187,328.6105 679.5557,305.50116 746.5303,322.9312 747.8379,352.23254 720.57074,407.35727 703.3858,401.69708 "
       id="face_142_53_48_144_145_143"
       style="fill:#c0c0c0;stroke:none"
       opacity="1"
       transform="translate(-16.661049,76.391949)" /><line
       class="arc1"
       id="link143_@1_145"
       x1="686.72473"
       y1="478.08902"
       x2="703.90967"
       y2="483.74921" /><line
       class="arc0"
       id="link143_@0_142"
       x1="686.72473"
       y1="478.08902"
       x2="659.45764"
       y2="405.00244" /><line
       class="arc1"
       id="link78_@1_72"
       x1="629.86072"
       y1="356.97299"
       x2="657.35663"
       y2="366.02927" /><line
       class="arc2"
       id="link140_@2_142"
       x1="656.02063"
       y1="411.95078"
       x2="659.45764"
       y2="405.00244" /><line
       class="arc1"
       id="link142_@1_53"
       x1="659.45764"
       y1="405.00244"
       x2="662.89465"
       y2="381.8931" /><line
       class="arc2"
       id="link80_@2_74"
       x1="646.85138"
       y1="332.77271"
       x2="653.72534"
       y2="335.03674" /><line
       class="arc0"
       id="link80_@0_81"
       x1="646.85138"
       y1="332.77271"
       x2="674.11859"
       y2="229.3203" /><line
       class="arc2"
       id="link147_@2_145"
       x1="707.34668"
       y1="492.9617"
       x2="703.90967"
       y2="483.74921" /><line
       class="arc0"
       id="link147_@0_146"
       x1="707.34668"
       y1="492.9617"
       x2="734.61383"
       y2="437.83691" /><line
       class="arc0"
       id="link145_@0_144"
       x1="703.90967"
       y1="483.74921"
       x2="731.17682"
       y2="428.62448" /><polygon
       points="759.3578,283.31992 748.51483,303.58585 678.7906,285.25018 670.3864,258.6448 693.52924,153.83398 704.37225,133.56805 738.03613,142.80414 746.4403,169.40955 "
       id="face_75_118_64_69_68_67_73_74"
       style="fill:#c0c0c0;stroke:none"
       opacity="1"
       transform="translate(-16.661049,76.391949)" /><line
       class="arc1"
       id="link74_@1_73"
       x1="653.72534"
       y1="335.03674"
       x2="662.12952"
       y2="361.64212" /><line
       class="arc0"
       id="link74_@0_75"
       x1="653.72534"
       y1="335.03674"
       x2="676.86816"
       y2="230.22594" /><line
       class="arc2"
       id="link54_@2_53"
       x1="657.73914"
       y1="376.15485"
       x2="662.89465"
       y2="381.8931" /><line
       class="arc3"
       id="link54_@3_72"
       x1="657.73914"
       y1="376.15485"
       x2="657.35663"
       y2="366.02927" /><line
       class="arc0"
       id="link54_@0_49"
       x1="657.73914"
       y1="376.15485"
       x2="737.15417"
       y2="393.05307" /><line
       class="arc2"
       id="link72_@2_73"
       x1="657.35663"
       y1="366.02927"
       x2="662.12952"
       y2="361.64212" /><line
       class="arc0"
       id="link72_@0_66"
       x1="657.35663"
       y1="366.02927"
       x2="738.14642"
       y2="383.38031" /><line
       class="arc0"
       id="link53_@0_48"
       x1="662.89465"
       y1="381.8931"
       x2="729.8692"
       y2="399.32315" /><line
       class="arc0"
       id="link73_@0_67"
       x1="662.12952"
       y1="361.64212"
       x2="731.85376"
       y2="379.97778" /><line
       class="arc1"
       id="link112_@1_81"
       x1="673.96326"
       y1="205.43187"
       x2="674.11859"
       y2="229.3203" /><line
       class="arc2"
       id="link112_@2_113"
       x1="673.96326"
       y1="205.43187"
       x2="676.67395"
       y2="200.36546" /><line
       class="arc2"
       id="link81_@2_75"
       x1="674.11859"
       y1="229.3203"
       x2="676.86816"
       y2="230.22594" /><line
       class="arc1"
       id="link113_@1_119"
       x1="676.67395"
       y1="200.36546"
       x2="687.6723"
       y2="203.98796" /><line
       class="arc1"
       id="link75_@1_118"
       x1="676.86816"
       y1="230.22594"
       x2="687.71118"
       y2="209.96001" /><line
       class="arc2"
       id="link118_@2_119"
       x1="687.71118"
       y1="209.96001"
       x2="687.6723"
       y2="203.98796" /><line
       class="arc0"
       id="link118_@0_64"
       x1="687.71118"
       y1="209.96001"
       x2="721.37506"
       y2="219.19609" /><line
       class="arc0"
       id="link119_@0_65"
       x1="687.6723"
       y1="203.98796"
       x2="722.87524"
       y2="211.87932" /><line
       class="arc1"
       id="link43_@1_42"
       x1="778.3233"
       y1="400.21628"
       x2="757.77606"
       y2="448.32794" /><line
       class="arc2"
       id="link43_@2_44"
       x1="778.3233"
       y1="400.21628"
       x2="774.88629"
       y2="391.00385" /><line
       class="arc1"
       id="link44_@1_49"
       x1="774.88629"
       y1="391.00385"
       x2="737.15417"
       y2="393.05307" /><line
       class="arc3"
       id="link44_@3_60"
       x1="774.88629"
       y1="391.00385"
       x2="774.1601"
       y2="376.72488" /><line
       class="arc1"
       id="link60_@1_66"
       x1="774.1601"
       y1="376.72488"
       x2="738.14642"
       y2="383.38031" /><line
       class="arc2"
       id="link60_@2_61"
       x1="774.1601"
       y1="376.72488"
       x2="776.87085"
       y2="371.65848" /><line
       class="arc1"
       id="link71_@1_65"
       x1="737.28076"
       y1="209.21709"
       x2="722.87524"
       y2="211.87932" /><line
       class="arc2"
       id="link71_@2_70"
       x1="737.28076"
       y1="209.21709"
       x2="739.38184"
       y2="215.86839" /><line
       class="arc1"
       id="link61_@1_62"
       x1="776.87085"
       y1="371.65848"
       x2="751.70013"
       y2="358.048" /><line
       class="arc1"
       id="link70_@1_63"
       x1="739.38184"
       y1="215.86839"
       x2="733.38055"
       y2="245.13591" /><line
       class="arc2"
       id="link42_@2_47"
       x1="757.77606"
       y1="448.32794"
       x2="750.49115"
       y2="454.59802" /><line
       class="arc2"
       id="link65_@2_64"
       x1="722.87524"
       y1="211.87932"
       x2="721.37506"
       y2="219.19609" /><line
       class="arc1"
       id="link47_@1_146"
       x1="750.49115"
       y1="454.59802"
       x2="734.61383"
       y2="437.83691" /><line
       class="arc1"
       id="link64_@1_69"
       x1="721.37506"
       y1="219.19609"
       x2="729.77924"
       y2="245.8015" /><line
       class="arc2"
       id="link49_@2_48"
       x1="737.15417"
       y1="393.05307"
       x2="729.8692"
       y2="399.32315" /><line
       class="arc3"
       id="link49_@3_66"
       x1="737.15417"
       y1="393.05307"
       x2="738.14642"
       y2="383.38031" /><line
       class="arc2"
       id="link66_@2_67"
       x1="738.14642"
       y1="383.38031"
       x2="731.85376"
       y2="379.97778" /><line
       class="arc1"
       id="link48_@1_144"
       x1="729.8692"
       y1="399.32315"
       x2="731.17682"
       y2="428.62448" /><line
       class="arc2"
       id="link63_@2_69"
       x1="733.38055"
       y1="245.13591"
       x2="729.77924"
       y2="245.8015" /><line
       class="arc0"
       id="link63_@0_62"
       x1="733.38055"
       y1="245.13591"
       x2="751.70013"
       y2="358.048" /><line
       class="arc2"
       id="link146_@2_144"
       x1="734.61383"
       y1="437.83691"
       x2="731.17682"
       y2="428.62448" /><line
       class="arc0"
       id="link69_@0_68"
       x1="729.77924"
       y1="245.8015"
       x2="742.69672"
       y2="359.71185" /><line
       class="arc1"
       id="link67_@1_68"
       x1="731.85376"
       y1="379.97778"
       x2="742.69672"
       y2="359.71185" /><line
       class="arc2"
       id="link62_@2_68"
       x1="751.70013"
       y1="358.048"
       x2="742.69672"
       y2="359.71185" /><circle
       style="opacity:1;fill:#000000;fill-opacity:0.990088;stroke:#000000;stroke-width:10.8911;stroke-linecap:round;stroke-linejoin:round;stroke-opacity:0.9981;stop-color:#000000"
       id="path1465"
       cx="545.18707"
       cy="386.97726"
       r="3.8479784" /><text
       xml:space="preserve"
       style="font-size:52.2772px;font-family:'Liberation Serif';-inkscape-font-specification:'Liberation Serif, Normal';opacity:1;fill:#000000;fill-opacity:0.990088;stroke:none;stroke-width:10.8911;stroke-linecap:round;stroke-linejoin:round;stroke-opacity:0.9981;stop-color:#000000"
       x="534.75098"
       y="358.46246"
       id="text2599"><tspan
         sodipodi:role="line"
         id="tspan2597"
         style="stroke:none;stroke-width:10.8911"
         x="534.75098"
         y="358.46246">c</tspan></text></g><style
     id="style-36">
		.arc0 {
			fill:none;
			fill-rule:evenodd;
			stroke:black;
			stroke-width:4;
			stroke-linecap:round;
			stroke-linejoin:round;
			stroke-opacity:1;
		}
		.arc1 {
			fill:none;
			fill-rule:evenodd;
			stroke:red;
			stroke-width:4;
			stroke-linecap:round;
			stroke-linejoin:round;
			stroke-opacity:1;
		}
		.arc2 {
			fill:none;
			fill-rule:evenodd;
			stroke:blue;
			stroke-width:4;
			stroke-linecap:round;
			stroke-linejoin:round;
			stroke-opacity:1;
		}
		.arc3 {
			fill:none;
			fill-rule:evenodd;
			stroke:green;
			stroke-width:4;
			stroke-linecap:round;
			stroke-linejoin:round;
			stroke-opacity:1;
		}
		.topological-dart {
			fill:#000000;
			stroke:#000000;
			stroke-width:0;
			stroke-linecap:round;
			stroke-linejoin:round;
			stroke-dasharray:none;
			paint-order:markers fill stroke;
		}
	</style><style
     id="style-06">
		.arc0 {
			fill:none;
			fill-rule:evenodd;
			stroke:black;
			stroke-width:4;
			stroke-linecap:round;
			stroke-linejoin:round;
			stroke-opacity:1;
		}
		.arc1 {
			fill:none;
			fill-rule:evenodd;
			stroke:red;
			stroke-width:4;
			stroke-linecap:round;
			stroke-linejoin:round;
			stroke-opacity:1;
		}
		.arc2 {
			fill:none;
			fill-rule:evenodd;
			stroke:blue;
			stroke-width:4;
			stroke-linecap:round;
			stroke-linejoin:round;
			stroke-opacity:1;
		}
		.arc3 {
			fill:none;
			fill-rule:evenodd;
			stroke:green;
			stroke-width:4;
			stroke-linecap:round;
			stroke-linejoin:round;
			stroke-opacity:1;
		}
		.topological-dart {
			fill:#000000;
			stroke:#000000;
			stroke-width:0;
			stroke-linecap:round;
			stroke-linejoin:round;
			stroke-dasharray:none;
			paint-order:markers fill stroke;
		}
	</style></svg>
