<?xml version="1.0" encoding="UTF-8" standalone="no"?>
<!-- Created with Jerboa -->

<svg
	width="1317"
	height="620" >
	<style id="style">
		.arc0 {
			fill:none;
			fill-rule:evenodd;
			stroke:black;
			stroke-width:4;
			stroke-linecap:round;
			stroke-linejoin:round;
			stroke-opacity:1;
		}
		.arc1 {
			fill:none;
			fill-rule:evenodd;
			stroke:red;
			stroke-width:4;
			stroke-linecap:round;
			stroke-linejoin:round;
			stroke-opacity:1;
		}
		.arc2 {
			fill:none;
			fill-rule:evenodd;
			stroke:blue;
			stroke-width:4;
			stroke-linecap:round;
			stroke-linejoin:round;
			stroke-opacity:1;
		}
		.arc3 {
			fill:none;
			fill-rule:evenodd;
			stroke:green;
			stroke-width:4;
			stroke-linecap:round;
			stroke-linejoin:round;
			stroke-opacity:1;
		}
		.topological-dart {
			fill:#000000;
			stroke:#000000;
			stroke-width:0;
			stroke-linecap:round;
			stroke-linejoin:round;
			stroke-dasharray:none;
			paint-order:markers fill stroke;
		}
	</style>
<polygon
	points="680.20404,344.60663 680.20404,184.5376 709.07355,160.10974 845.2431,204.95975 874.1127,248.40506 874.1127,408.4741 845.2431,432.90192 709.07355,388.05194 "
	id="face_31_32_38_37_36_35_29_30"
	style="fill:rgb(192,192,192);stroke:none"
	opacity="1.0" />
<line
	class="arc1"
	id="link30_@1_29"
	x1="680.20404"
	y1="344.60663"
	x2="709.07355"
	y2="388.05194" />
<line
	class="arc2"
	id="link30_@2_24"
	x1="680.20404"
	y1="344.60663"
	x2="667.14215"
	y2="345.16504" />
<line
	class="arc0"
	id="link30_@0_31"
	x1="680.20404"
	y1="344.60663"
	x2="680.20404"
	y2="184.5376" />
<polygon
	points="667.14215,345.16504 667.14215,185.09598 643.76404,162.90173 529.88745,217.09827 504.705,266.42496 504.705,418.00983 529.88745,445.0404 643.76404,390.84387 "
	id="face_25_26_20_19_18_17_23_24"
	style="fill:rgb(192,192,192);stroke:none"
	opacity="1.0" />
<line
	class="arc1"
	id="link24_@1_23"
	x1="667.14215"
	y1="345.16504"
	x2="643.76404"
	y2="390.84387" />
<line
	class="arc0"
	id="link24_@0_25"
	x1="667.14215"
	y1="345.16504"
	x2="667.14215"
	y2="185.09598" />
<line
	class="arc2"
	id="link29_@2_28"
	x1="709.07355"
	y1="388.05194"
	x2="703.22906"
	y2="399.47162" />
<line
	class="arc0"
	id="link29_@0_35"
	x1="709.07355"
	y1="388.05194"
	x2="845.2431"
	y2="432.90192" />
<polygon
	points="703.22906,399.47162 839.39856,444.3216 844.89,465.57263 741.8395,523.33496 702.2223,533.97064 618.83984,516.2282 586.3616,505.53088 526.3572,476.0462 533.4961,454.71313 650.9814,401.7052 "
	id="face_34_40_46_52_58_64_10_16_22_28"
	style="fill:rgb(192,192,192);stroke:none"
	opacity="1.0" />
<line
	class="arc1"
	id="link28_@1_22"
	x1="703.22906"
	y1="399.47162"
	x2="650.9814"
	y2="401.7052" />
<line
	class="arc3"
	id="link28_@3_0"
	x1="703.22906"
	y1="399.47162"
	x2="697.3846"
	y2="410.89133" />
<line
	class="arc0"
	id="link28_@0_34"
	x1="703.22906"
	y1="399.47162"
	x2="839.39856"
	y2="444.3216" />
<polygon
	points="697.3846,410.89133 833.554,455.74133 837.67267,471.6796 738.23083,530.6305 709.87115,535.87146 613.4268,518.6874 591.77466,511.55585 530.39734,476.75836 537.10486,464.38586 658.1988,412.56653 "
	id="face_7_6_5_4_9_8_3_2_1_0"
	style="fill:rgb(192,192,192);stroke:none"
	opacity="1.0" />
<line
	class="arc1"
	id="link0_@1_1"
	x1="697.3846"
	y1="410.89133"
	x2="658.1988"
	y2="412.56653" />
<line
	class="arc0"
	id="link0_@0_7"
	x1="697.3846"
	y1="410.89133"
	x2="833.554"
	y2="455.74133" />
<line
	class="arc2"
	id="link23_@2_22"
	x1="643.76404"
	y1="390.84387"
	x2="650.9814"
	y2="401.7052" />
<line
	class="arc0"
	id="link23_@0_17"
	x1="643.76404"
	y1="390.84387"
	x2="529.88745"
	y2="445.0404" />
<line
	class="arc3"
	id="link22_@3_1"
	x1="650.9814"
	y1="401.7052"
	x2="658.1988"
	y2="412.56653" />
<line
	class="arc0"
	id="link22_@0_16"
	x1="650.9814"
	y1="401.7052"
	x2="533.4961"
	y2="454.71313" />
<line
	class="arc0"
	id="link1_@0_2"
	x1="658.1988"
	y1="412.56653"
	x2="537.10486"
	y2="464.38586" />
<line
	class="arc1"
	id="link31_@1_32"
	x1="680.20404"
	y1="184.5376"
	x2="709.07355"
	y2="160.10974" />
<line
	class="arc2"
	id="link31_@2_25"
	x1="680.20404"
	y1="184.5376"
	x2="667.14215"
	y2="185.09598" />
<line
	class="arc1"
	id="link25_@1_26"
	x1="667.14215"
	y1="185.09598"
	x2="643.76404"
	y2="162.90173" />
<line
	class="arc1"
	id="link35_@1_36"
	x1="845.2431"
	y1="432.90192"
	x2="874.1127"
	y2="408.4741" />
<line
	class="arc2"
	id="link35_@2_34"
	x1="845.2431"
	y1="432.90192"
	x2="839.39856"
	y2="444.3216" />
<line
	class="arc2"
	id="link32_@2_33"
	x1="709.07355"
	y1="160.10974"
	x2="703.22906"
	y2="154.56128" />
<line
	class="arc0"
	id="link32_@0_38"
	x1="709.07355"
	y1="160.10974"
	x2="845.2431"
	y2="204.95975" />
<line
	class="arc1"
	id="link34_@1_40"
	x1="839.39856"
	y1="444.3216"
	x2="844.89"
	y2="465.57263" />
<line
	class="arc3"
	id="link34_@3_7"
	x1="839.39856"
	y1="444.3216"
	x2="833.554"
	y2="455.74133" />
<line
	class="arc1"
	id="link7_@1_6"
	x1="833.554"
	y1="455.74133"
	x2="837.67267"
	y2="471.6796" />
<line
	class="arc2"
	id="link26_@2_27"
	x1="643.76404"
	y1="162.90173"
	x2="650.9814"
	y2="156.79483" />
<line
	class="arc0"
	id="link26_@0_20"
	x1="643.76404"
	y1="162.90173"
	x2="529.88745"
	y2="217.09827" />
<polygon
	points="703.22906,154.56128 839.39856,199.41122 844.89,220.6623 741.8395,278.42456 702.2223,280.5762 618.83984,262.83374 586.3616,252.13641 526.3572,222.65167 533.4961,209.80276 650.9814,156.79483 "
	id="face_39_45_51_57_63_69_15_21_27_33"
	style="fill:rgb(192,192,192);stroke:none"
	opacity="1.0" />
<line
	class="arc1"
	id="link33_@1_27"
	x1="703.22906"
	y1="154.56128"
	x2="650.9814"
	y2="156.79483" />
<line
	class="arc3"
	id="link33_@3_112"
	x1="703.22906"
	y1="154.56128"
	x2="703.2902"
	y2="142.75662" />
<line
	class="arc0"
	id="link33_@0_39"
	x1="703.22906"
	y1="154.56128"
	x2="839.39856"
	y2="199.41122" />
<line
	class="arc3"
	id="link27_@3_106"
	x1="650.9814"
	y1="156.79483"
	x2="651.0426"
	y2="144.99017" />
<line
	class="arc0"
	id="link27_@0_21"
	x1="650.9814"
	y1="156.79483"
	x2="533.4961"
	y2="209.80276" />
<polygon
	points="709.196,136.50055 836.7046,178.4979 848.49725,169.01932 780.1175,80.55286 751.4927,57.761963 688.36395,36.9693 676.5714,46.447937 680.57117,113.70972 "
	id="face_119_120_121_74_128_115_114_113"
	style="fill:rgb(192,192,192);stroke:none"
	opacity="1.0" />
<line
	class="arc1"
	id="link113_@1_114"
	x1="709.196"
	y1="136.50055"
	x2="680.57117"
	y2="113.70972" />
<line
	class="arc2"
	id="link113_@2_112"
	x1="709.196"
	y1="136.50055"
	x2="703.2902"
	y2="142.75662" />
<line
	class="arc0"
	id="link113_@0_119"
	x1="709.196"
	y1="136.50055"
	x2="836.7046"
	y2="178.4979" />
<polygon
	points="703.2902,142.75662 835.12933,186.1803 840.6208,207.43134 741.07697,263.43228 703.26416,270.42023 618.4382,252.20233 589.56866,242.6936 528.1208,212.73343 537.064,196.23676 651.0426,144.99017 "
	id="face_118_124_70_76_82_88_94_100_106_112"
	style="fill:rgb(192,192,192);stroke:none"
	opacity="1.0" />
<line
	class="arc1"
	id="link112_@1_106"
	x1="703.2902"
	y1="142.75662"
	x2="651.0426"
	y2="144.99017" />
<line
	class="arc0"
	id="link112_@0_118"
	x1="703.2902"
	y1="142.75662"
	x2="835.12933"
	y2="186.1803" />
<line
	class="arc2"
	id="link114_@2_108"
	x1="680.57117"
	y1="113.70972"
	x2="667.5092"
	y2="114.2681" />
<line
	class="arc0"
	id="link114_@0_115"
	x1="680.57117"
	y1="113.70972"
	x2="676.5714"
	y2="46.447937" />
<line
	class="arc1"
	id="link2_@1_3"
	x1="537.10486"
	y1="464.38586"
	x2="530.39734"
	y2="476.75836" />
<line
	class="arc3"
	id="link2_@3_16"
	x1="537.10486"
	y1="464.38586"
	x2="533.4961"
	y2="454.71313" />
<line
	class="arc1"
	id="link16_@1_10"
	x1="533.4961"
	y1="454.71313"
	x2="526.3572"
	y2="476.0462" />
<line
	class="arc2"
	id="link16_@2_17"
	x1="533.4961"
	y1="454.71313"
	x2="529.88745"
	y2="445.0404" />
<line
	class="arc2"
	id="link106_@2_107"
	x1="651.0426"
	y1="144.99017"
	x2="643.8864"
	y2="139.29251" />
<line
	class="arc0"
	id="link106_@0_100"
	x1="651.0426"
	y1="144.99017"
	x2="537.064"
	y2="196.23676" />
<polygon
	points="667.5092,114.2681 671.3466,46.671326 662.2402,38.08612 609.6761,63.287415 586.0533,88.31183 527.91675,181.3812 537.02325,189.96637 643.8864,139.29251 "
	id="face_109_122_116_103_102_101_107_108"
	style="fill:rgb(192,192,192);stroke:none"
	opacity="1.0" />
<line
	class="arc1"
	id="link108_@1_107"
	x1="667.5092"
	y1="114.2681"
	x2="643.8864"
	y2="139.29251" />
<line
	class="arc0"
	id="link108_@0_109"
	x1="667.5092"
	y1="114.2681"
	x2="671.3466"
	y2="46.671326" />
<line
	class="arc1"
	id="link17_@1_18"
	x1="529.88745"
	y1="445.0404"
	x2="504.705"
	y2="418.00983" />
<line
	class="arc0"
	id="link107_@0_101"
	x1="643.8864"
	y1="139.29251"
	x2="537.02325"
	y2="189.96637" />
<line
	class="arc2"
	id="link36_@2_42"
	x1="874.1127"
	y1="408.4741"
	x2="875.4855"
	y2="413.78683" />
<line
	class="arc0"
	id="link36_@0_37"
	x1="874.1127"
	y1="408.4741"
	x2="874.1127"
	y2="248.40506" />
<line
	class="arc3"
	id="link6_@3_40"
	x1="837.67267"
	y1="471.6796"
	x2="844.89"
	y2="465.57263" />
<line
	class="arc0"
	id="link6_@0_5"
	x1="837.67267"
	y1="471.6796"
	x2="738.23083"
	y2="530.6305" />
<polygon
	points="875.4855,413.78683 875.4855,253.7178 852.1074,231.52353 745.4482,288.09726 723.87445,338.61252 723.87445,490.1974 745.4482,516.0394 852.1074,459.4657 "
	id="face_43_44_50_49_48_47_41_42"
	style="fill:rgb(192,192,192);stroke:none"
	opacity="1.0" />
<line
	class="arc1"
	id="link42_@1_41"
	x1="875.4855"
	y1="413.78683"
	x2="852.1074"
	y2="459.4657" />
<line
	class="arc0"
	id="link42_@0_43"
	x1="875.4855"
	y1="413.78683"
	x2="875.4855"
	y2="253.7178" />
<line
	class="arc2"
	id="link40_@2_41"
	x1="844.89"
	y1="465.57263"
	x2="852.1074"
	y2="459.4657" />
<line
	class="arc0"
	id="link40_@0_46"
	x1="844.89"
	y1="465.57263"
	x2="741.8395"
	y2="523.33496" />
<line
	class="arc3"
	id="link3_@3_10"
	x1="530.39734"
	y1="476.75836"
	x2="526.3572"
	y2="476.0462" />
<line
	class="arc0"
	id="link3_@0_8"
	x1="530.39734"
	y1="476.75836"
	x2="591.77466"
	y2="511.55585" />
<line
	class="arc0"
	id="link41_@0_47"
	x1="852.1074"
	y1="459.4657"
	x2="745.4482"
	y2="516.0394" />
<line
	class="arc2"
	id="link10_@2_11"
	x1="526.3572"
	y1="476.0462"
	x2="522.317"
	y2="475.33398" />
<line
	class="arc0"
	id="link10_@0_64"
	x1="526.3572"
	y1="476.0462"
	x2="586.3616"
	y2="505.53088" />
<line
	class="arc2"
	id="link18_@2_12"
	x1="504.705"
	y1="418.00983"
	x2="500.66483"
	y2="417.2976" />
<line
	class="arc0"
	id="link18_@0_19"
	x1="504.705"
	y1="418.00983"
	x2="504.705"
	y2="266.42496" />
<polygon
	points="522.317,475.33398 580.94855,499.50592 584.55725,475.24213 555.9279,398.5042 537.88446,392.56122 509.2551,450.43994 "
	id="face_65_144_145_131_130_11"
	style="fill:rgb(192,192,192);stroke:none"
	opacity="1.0" />
<line
	class="arc1"
	id="link11_@1_130"
	x1="522.317"
	y1="475.33398"
	x2="509.2551"
	y2="450.43994" />
<line
	class="arc0"
	id="link11_@0_65"
	x1="522.317"
	y1="475.33398"
	x2="580.94855"
	y2="499.50592" />
<polygon
	points="500.66483,417.2976 500.66483,274.1968 505.6464,263.7299 534.27576,340.46783 534.27576,382.8885 505.6464,440.7672 "
	id="face_13_134_135_133_132_12"
	style="fill:rgb(192,192,192);stroke:none"
	opacity="1.0" />
<line
	class="arc1"
	id="link12_@1_132"
	x1="500.66483"
	y1="417.2976"
	x2="505.6464"
	y2="440.7672" />
<line
	class="arc0"
	id="link12_@0_13"
	x1="500.66483"
	y1="417.2976"
	x2="500.66483"
	y2="274.1968" />
<line
	class="arc2"
	id="link130_@2_132"
	x1="509.2551"
	y1="450.43994"
	x2="505.6464"
	y2="440.7672" />
<line
	class="arc0"
	id="link130_@0_131"
	x1="509.2551"
	y1="450.43994"
	x2="537.88446"
	y2="392.56122" />
<line
	class="arc0"
	id="link132_@0_133"
	x1="505.6464"
	y1="440.7672"
	x2="534.27576"
	y2="382.8885" />
<line
	class="arc1"
	id="link38_@1_37"
	x1="845.2431"
	y1="204.95975"
	x2="874.1127"
	y2="248.40506" />
<line
	class="arc2"
	id="link38_@2_39"
	x1="845.2431"
	y1="204.95975"
	x2="839.39856"
	y2="199.41122" />
<line
	class="arc2"
	id="link37_@2_43"
	x1="874.1127"
	y1="248.40506"
	x2="875.4855"
	y2="253.7178" />
<line
	class="arc1"
	id="link39_@1_45"
	x1="839.39856"
	y1="199.41122"
	x2="844.89"
	y2="220.6623" />
<line
	class="arc3"
	id="link39_@3_118"
	x1="839.39856"
	y1="199.41122"
	x2="835.12933"
	y2="186.1803" />
<line
	class="arc1"
	id="link119_@1_120"
	x1="836.7046"
	y1="178.4979"
	x2="848.49725"
	y2="169.01932" />
<line
	class="arc2"
	id="link119_@2_118"
	x1="836.7046"
	y1="178.4979"
	x2="835.12933"
	y2="186.1803" />
<line
	class="arc1"
	id="link118_@1_124"
	x1="835.12933"
	y1="186.1803"
	x2="840.6208"
	y2="207.43134" />
<line
	class="arc1"
	id="link43_@1_44"
	x1="875.4855"
	y1="253.7178"
	x2="852.1074"
	y2="231.52353" />
<line
	class="arc1"
	id="link65_@1_144"
	x1="580.94855"
	y1="499.50592"
	x2="584.55725"
	y2="475.24213" />
<line
	class="arc2"
	id="link65_@2_64"
	x1="580.94855"
	y1="499.50592"
	x2="586.3616"
	y2="505.53088" />
<line
	class="arc1"
	id="link20_@1_19"
	x1="529.88745"
	y1="217.09827"
	x2="504.705"
	y2="266.42496" />
<line
	class="arc2"
	id="link20_@2_21"
	x1="529.88745"
	y1="217.09827"
	x2="533.4961"
	y2="209.80276" />
<line
	class="arc1"
	id="link64_@1_58"
	x1="586.3616"
	y1="505.53088"
	x2="618.83984"
	y2="516.2282" />
<line
	class="arc3"
	id="link64_@3_8"
	x1="586.3616"
	y1="505.53088"
	x2="591.77466"
	y2="511.55585" />
<line
	class="arc1"
	id="link8_@1_9"
	x1="591.77466"
	y1="511.55585"
	x2="613.4268"
	y2="518.6874" />
<line
	class="arc1"
	id="link109_@1_122"
	x1="671.3466"
	y1="46.671326"
	x2="662.2402"
	y2="38.08612" />
<line
	class="arc2"
	id="link109_@2_115"
	x1="671.3466"
	y1="46.671326"
	x2="676.5714"
	y2="46.447937" />
<line
	class="arc1"
	id="link115_@1_128"
	x1="676.5714"
	y1="46.447937"
	x2="688.36395"
	y2="36.9693" />
<line
	class="arc1"
	id="link21_@1_15"
	x1="533.4961"
	y1="209.80276"
	x2="526.3572"
	y2="222.65167" />
<line
	class="arc3"
	id="link21_@3_100"
	x1="533.4961"
	y1="209.80276"
	x2="537.064"
	y2="196.23676" />
<line
	class="arc1"
	id="link131_@1_145"
	x1="537.88446"
	y1="392.56122"
	x2="555.9279"
	y2="398.5042" />
<line
	class="arc2"
	id="link131_@2_133"
	x1="537.88446"
	y1="392.56122"
	x2="534.27576"
	y2="382.8885" />
<line
	class="arc2"
	id="link19_@2_13"
	x1="504.705"
	y1="266.42496"
	x2="500.66483"
	y2="274.1968" />
<line
	class="arc1"
	id="link133_@1_135"
	x1="534.27576"
	y1="382.8885"
	x2="534.27576"
	y2="340.46783" />
<line
	class="arc1"
	id="link101_@1_102"
	x1="537.02325"
	y1="189.96637"
	x2="527.91675"
	y2="181.3812" />
<line
	class="arc2"
	id="link101_@2_100"
	x1="537.02325"
	y1="189.96637"
	x2="537.064"
	y2="196.23676" />
<line
	class="arc2"
	id="link144_@2_142"
	x1="584.55725"
	y1="475.24213"
	x2="588.16595"
	y2="467.9466" />
<line
	class="arc0"
	id="link144_@0_145"
	x1="584.55725"
	y1="475.24213"
	x2="555.9279"
	y2="398.5042" />
<line
	class="arc1"
	id="link100_@1_94"
	x1="537.064"
	y1="196.23676"
	x2="528.1208"
	y2="212.73343" />
<line
	class="arc1"
	id="link13_@1_134"
	x1="500.66483"
	y1="274.1968"
	x2="505.6464"
	y2="263.7299" />
<line
	class="arc3"
	id="link9_@3_58"
	x1="613.4268"
	y1="518.6874"
	x2="618.83984"
	y2="516.2282" />
<line
	class="arc0"
	id="link9_@0_4"
	x1="613.4268"
	y1="518.6874"
	x2="709.87115"
	y2="535.87146" />
<polygon
	points="588.16595,467.9466 559.5366,391.20865 559.5366,348.78796 588.16595,290.90927 600.7963,316.27966 600.7963,450.8963 "
	id="face_143_141_140_67_66_142"
	style="fill:rgb(192,192,192);stroke:none"
	opacity="1.0" />
<line
	class="arc1"
	id="link142_@1_66"
	x1="588.16595"
	y1="467.9466"
	x2="600.7963"
	y2="450.8963" />
<line
	class="arc0"
	id="link142_@0_143"
	x1="588.16595"
	y1="467.9466"
	x2="559.5366"
	y2="391.20865" />
<line
	class="arc2"
	id="link120_@2_126"
	x1="848.49725"
	y1="169.01932"
	x2="849.87006"
	y2="174.33206" />
<line
	class="arc0"
	id="link120_@0_121"
	x1="848.49725"
	y1="169.01932"
	x2="780.1175"
	y2="80.55286" />
<line
	class="arc2"
	id="link145_@2_143"
	x1="555.9279"
	y1="398.5042"
	x2="559.5366"
	y2="391.20865" />
<line
	class="arc2"
	id="link58_@2_59"
	x1="618.83984"
	y1="516.2282"
	x2="624.25287"
	y2="513.76904" />
<line
	class="arc0"
	id="link58_@0_52"
	x1="618.83984"
	y1="516.2282"
	x2="702.2223"
	y2="533.97064" />
<line
	class="arc1"
	id="link143_@1_141"
	x1="559.5366"
	y1="391.20865"
	x2="559.5366"
	y2="348.78796" />
<line
	class="arc2"
	id="link135_@2_137"
	x1="534.27576"
	y1="340.46783"
	x2="537.88446"
	y2="333.1723" />
<line
	class="arc0"
	id="link135_@0_134"
	x1="534.27576"
	y1="340.46783"
	x2="505.6464"
	y2="263.7299" />
<polygon
	points="624.25287,513.76904 694.5734,532.0698 695.94635,511.93024 667.31696,435.19226 649.2735,429.24933 620.64417,487.12805 "
	id="face_53_160_161_147_146_59"
	style="fill:rgb(192,192,192);stroke:none"
	opacity="1.0" />
<line
	class="arc1"
	id="link59_@1_146"
	x1="624.25287"
	y1="513.76904"
	x2="620.64417"
	y2="487.12805" />
<line
	class="arc0"
	id="link59_@0_53"
	x1="624.25287"
	y1="513.76904"
	x2="694.5734"
	y2="532.0698" />
<line
	class="arc2"
	id="link45_@2_44"
	x1="844.89"
	y1="220.6623"
	x2="852.1074"
	y2="231.52353" />
<line
	class="arc3"
	id="link45_@3_124"
	x1="844.89"
	y1="220.6623"
	x2="840.6208"
	y2="207.43134" />
<line
	class="arc0"
	id="link45_@0_51"
	x1="844.89"
	y1="220.6623"
	x2="741.8395"
	y2="278.42456" />
<polygon
	points="849.87006,174.33206 780.6666,82.67792 754.2384,68.38745 704.5613,94.53961 698.26013,125.26932 717.49493,243.8223 743.9232,258.11276 843.5689,205.06174 "
	id="face_127_80_86_73_72_71_125_126"
	style="fill:rgb(192,192,192);stroke:none"
	opacity="1.0" />
<line
	class="arc1"
	id="link126_@1_125"
	x1="849.87006"
	y1="174.33206"
	x2="843.5689"
	y2="205.06174" />
<line
	class="arc0"
	id="link126_@0_127"
	x1="849.87006"
	y1="174.33206"
	x2="780.6666"
	y2="82.67792" />
<line
	class="arc0"
	id="link44_@0_50"
	x1="852.1074"
	y1="231.52353"
	x2="745.4482"
	y2="288.09726" />
<polygon
	points="537.88446,333.1723 509.2551,256.4344 522.317,230.42358 580.94855,254.59555 584.55725,281.23657 555.9279,339.11526 "
	id="face_136_14_68_138_139_137"
	style="fill:rgb(192,192,192);stroke:none"
	opacity="1.0" />
<line
	class="arc1"
	id="link137_@1_139"
	x1="537.88446"
	y1="333.1723"
	x2="555.9279"
	y2="339.11526" />
<line
	class="arc0"
	id="link137_@0_136"
	x1="537.88446"
	y1="333.1723"
	x2="509.2551"
	y2="256.4344" />
<line
	class="arc2"
	id="link128_@2_129"
	x1="688.36395"
	y1="36.9693"
	x2="686.0874"
	y2="34.82306" />
<line
	class="arc0"
	id="link128_@0_74"
	x1="688.36395"
	y1="36.9693"
	x2="751.4927"
	y2="57.761963" />
<line
	class="arc2"
	id="link134_@2_136"
	x1="505.6464"
	y1="263.7299"
	x2="509.2551"
	y2="256.4344" />
<line
	class="arc2"
	id="link66_@2_60"
	x1="600.7963"
	y1="450.8963"
	x2="604.405"
	y2="452.0849" />
<line
	class="arc0"
	id="link66_@0_67"
	x1="600.7963"
	y1="450.8963"
	x2="600.7963"
	y2="316.27966" />
<line
	class="arc2"
	id="link124_@2_125"
	x1="840.6208"
	y1="207.43134"
	x2="843.5689"
	y2="205.06174" />
<line
	class="arc0"
	id="link124_@0_70"
	x1="840.6208"
	y1="207.43134"
	x2="741.07697"
	y2="263.43228" />
<line
	class="arc2"
	id="link122_@2_123"
	x1="662.2402"
	y1="38.08612"
	x2="665.1883"
	y2="35.71649" />
<line
	class="arc0"
	id="link122_@0_116"
	x1="662.2402"
	y1="38.08612"
	x2="609.6761"
	y2="63.287415" />
<line
	class="arc2"
	id="link146_@2_148"
	x1="620.64417"
	y1="487.12805"
	x2="617.03546"
	y2="477.45532" />
<line
	class="arc0"
	id="link146_@0_147"
	x1="620.64417"
	y1="487.12805"
	x2="649.2735"
	y2="429.24933" />
<polygon
	points="604.405,452.0849 604.405,317.46826 617.03546,300.41797 645.6648,377.15594 645.6648,419.5766 617.03546,477.45532 "
	id="face_61_150_151_149_148_60"
	style="fill:rgb(192,192,192);stroke:none"
	opacity="1.0" />
<line
	class="arc1"
	id="link60_@1_148"
	x1="604.405"
	y1="452.0849"
	x2="617.03546"
	y2="477.45532" />
<line
	class="arc0"
	id="link60_@0_61"
	x1="604.405"
	y1="452.0849"
	x2="604.405"
	y2="317.46826" />
<line
	class="arc0"
	id="link148_@0_149"
	x1="617.03546"
	y1="477.45532"
	x2="645.6648"
	y2="419.5766" />
<line
	class="arc1"
	id="link136_@1_14"
	x1="509.2551"
	y1="256.4344"
	x2="522.317"
	y2="230.42358" />
<line
	class="arc1"
	id="link5_@1_4"
	x1="738.23083"
	y1="530.6305"
	x2="709.87115"
	y2="535.87146" />
<line
	class="arc3"
	id="link5_@3_46"
	x1="738.23083"
	y1="530.6305"
	x2="741.8395"
	y2="523.33496" />
<line
	class="arc0"
	id="link125_@0_71"
	x1="843.5689"
	y1="205.06174"
	x2="743.9232"
	y2="258.11276" />
<polygon
	points="686.0874,34.82306 744.8856,54.189392 747.08215,62.68976 702.3552,87.55603 687.23004,90.3512 650.26843,82.065674 638.7206,78.262146 611.11017,65.27966 614.68744,58.68103 665.1883,35.71649 "
	id="face_75_81_87_93_99_105_111_117_123_129"
	style="fill:rgb(192,192,192);stroke:none"
	opacity="1.0" />
<line
	class="arc1"
	id="link129_@1_123"
	x1="686.0874"
	y1="34.82306"
	x2="665.1883"
	y2="35.71649" />
<line
	class="arc0"
	id="link129_@0_75"
	x1="686.0874"
	y1="34.82306"
	x2="744.8856"
	y2="54.189392" />
<line
	class="arc2"
	id="link141_@2_139"
	x1="559.5366"
	y1="348.78796"
	x2="555.9279"
	y2="339.11526" />
<line
	class="arc0"
	id="link141_@0_140"
	x1="559.5366"
	y1="348.78796"
	x2="588.16595"
	y2="290.90927" />
<line
	class="arc2"
	id="link15_@2_14"
	x1="526.3572"
	y1="222.65167"
	x2="522.317"
	y2="230.42358" />
<line
	class="arc3"
	id="link15_@3_94"
	x1="526.3572"
	y1="222.65167"
	x2="528.1208"
	y2="212.73343" />
<line
	class="arc0"
	id="link15_@0_69"
	x1="526.3572"
	y1="222.65167"
	x2="586.3616"
	y2="252.13641" />
<line
	class="arc2"
	id="link102_@2_96"
	x1="527.91675"
	y1="181.3812"
	x2="525.68097"
	y2="185.50537" />
<line
	class="arc0"
	id="link102_@0_103"
	x1="527.91675"
	y1="181.3812"
	x2="586.0533"
	y2="88.31183" />
<line
	class="arc0"
	id="link123_@0_117"
	x1="665.1883"
	y1="35.71649"
	x2="614.68744"
	y2="58.68103" />
<line
	class="arc0"
	id="link139_@0_138"
	x1="555.9279"
	y1="339.11526"
	x2="584.55725"
	y2="281.23657" />
<line
	class="arc2"
	id="link94_@2_95"
	x1="528.1208"
	y1="212.73343"
	x2="525.84406"
	y2="210.58719" />
<line
	class="arc0"
	id="link94_@0_88"
	x1="528.1208"
	y1="212.73343"
	x2="589.56866"
	y2="242.6936" />
<line
	class="arc1"
	id="link46_@1_52"
	x1="741.8395"
	y1="523.33496"
	x2="702.2223"
	y2="533.97064" />
<line
	class="arc2"
	id="link46_@2_47"
	x1="741.8395"
	y1="523.33496"
	x2="745.4482"
	y2="516.0394" />
<line
	class="arc0"
	id="link14_@0_68"
	x1="522.317"
	y1="230.42358"
	x2="580.94855"
	y2="254.59555" />
<line
	class="arc3"
	id="link4_@3_52"
	x1="709.87115"
	y1="535.87146"
	x2="702.2223"
	y2="533.97064" />
<polygon
	points="525.68097,185.50537 585.1589,89.96155 605.20447,71.53577 635.87445,83.581726 636.0376,108.663605 607.4081,217.2843 587.3626,235.71005 525.84406,210.58719 "
	id="face_97_110_104_91_90_89_95_96"
	style="fill:rgb(192,192,192);stroke:none"
	opacity="1.0" />
<line
	class="arc1"
	id="link96_@1_95"
	x1="525.68097"
	y1="185.50537"
	x2="525.84406"
	y2="210.58719" />
<line
	class="arc0"
	id="link96_@0_97"
	x1="525.68097"
	y1="185.50537"
	x2="585.1589"
	y2="89.96155" />
<line
	class="arc1"
	id="link47_@1_48"
	x1="745.4482"
	y1="516.0394"
	x2="723.87445"
	y2="490.1974" />
<line
	class="arc0"
	id="link95_@0_89"
	x1="525.84406"
	y1="210.58719"
	x2="587.3626"
	y2="235.71005" />
<line
	class="arc2"
	id="link52_@2_53"
	x1="702.2223"
	y1="533.97064"
	x2="694.5734"
	y2="532.0698" />
<line
	class="arc1"
	id="link53_@1_160"
	x1="694.5734"
	y1="532.0698"
	x2="695.94635"
	y2="511.93024" />
<line
	class="arc1"
	id="link121_@1_74"
	x1="780.1175"
	y1="80.55286"
	x2="751.4927"
	y2="57.761963" />
<line
	class="arc2"
	id="link121_@2_127"
	x1="780.1175"
	y1="80.55286"
	x2="780.6666"
	y2="82.67792" />
<line
	class="arc2"
	id="link74_@2_75"
	x1="751.4927"
	y1="57.761963"
	x2="744.8856"
	y2="54.189392" />
<line
	class="arc1"
	id="link127_@1_80"
	x1="780.6666"
	y1="82.67792"
	x2="754.2384"
	y2="68.38745" />
<line
	class="arc1"
	id="link75_@1_81"
	x1="744.8856"
	y1="54.189392"
	x2="747.08215"
	y2="62.68976" />
<line
	class="arc1"
	id="link147_@1_161"
	x1="649.2735"
	y1="429.24933"
	x2="667.31696"
	y2="435.19226" />
<line
	class="arc2"
	id="link147_@2_149"
	x1="649.2735"
	y1="429.24933"
	x2="645.6648"
	y2="419.5766" />
<line
	class="arc1"
	id="link149_@1_151"
	x1="645.6648"
	y1="419.5766"
	x2="645.6648"
	y2="377.15594" />
<line
	class="arc2"
	id="link160_@2_158"
	x1="695.94635"
	y1="511.93024"
	x2="699.555"
	y2="504.63467" />
<line
	class="arc0"
	id="link160_@0_161"
	x1="695.94635"
	y1="511.93024"
	x2="667.31696"
	y2="435.19226" />
<line
	class="arc1"
	id="link116_@1_103"
	x1="609.6761"
	y1="63.287415"
	x2="586.0533"
	y2="88.31183" />
<line
	class="arc2"
	id="link116_@2_117"
	x1="609.6761"
	y1="63.287415"
	x2="614.68744"
	y2="58.68103" />
<line
	class="arc1"
	id="link67_@1_140"
	x1="600.7963"
	y1="316.27966"
	x2="588.16595"
	y2="290.90927" />
<line
	class="arc2"
	id="link67_@2_61"
	x1="600.7963"
	y1="316.27966"
	x2="604.405"
	y2="317.46826" />
<line
	class="arc2"
	id="link103_@2_97"
	x1="586.0533"
	y1="88.31183"
	x2="585.1589"
	y2="89.96155" />
<line
	class="arc2"
	id="link140_@2_138"
	x1="588.16595"
	y1="290.90927"
	x2="584.55725"
	y2="281.23657" />
<line
	class="arc1"
	id="link138_@1_68"
	x1="584.55725"
	y1="281.23657"
	x2="580.94855"
	y2="254.59555" />
<line
	class="arc1"
	id="link117_@1_111"
	x1="614.68744"
	y1="58.68103"
	x2="611.11017"
	y2="65.27966" />
<line
	class="arc1"
	id="link61_@1_150"
	x1="604.405"
	y1="317.46826"
	x2="617.03546"
	y2="300.41797" />
<line
	class="arc1"
	id="link97_@1_110"
	x1="585.1589"
	y1="89.96155"
	x2="605.20447"
	y2="71.53577" />
<polygon
	points="699.555,504.63467 670.92566,427.89673 670.92566,385.47607 699.555,327.59735 716.2256,345.1958 716.2256,488.29657 "
	id="face_159_157_156_55_54_158"
	style="fill:rgb(192,192,192);stroke:none"
	opacity="1.0" />
<line
	class="arc1"
	id="link158_@1_54"
	x1="699.555"
	y1="504.63467"
	x2="716.2256"
	y2="488.29657" />
<line
	class="arc0"
	id="link158_@0_159"
	x1="699.555"
	y1="504.63467"
	x2="670.92566"
	y2="427.89673" />
<line
	class="arc2"
	id="link48_@2_54"
	x1="723.87445"
	y1="490.1974"
	x2="716.2256"
	y2="488.29657" />
<line
	class="arc0"
	id="link48_@0_49"
	x1="723.87445"
	y1="490.1974"
	x2="723.87445"
	y2="338.61252" />
<line
	class="arc2"
	id="link161_@2_159"
	x1="667.31696"
	y1="435.19226"
	x2="670.92566"
	y2="427.89673" />
<line
	class="arc2"
	id="link68_@2_69"
	x1="580.94855"
	y1="254.59555"
	x2="586.3616"
	y2="252.13641" />
<line
	class="arc2"
	id="link80_@2_81"
	x1="754.2384"
	y1="68.38745"
	x2="747.08215"
	y2="62.68976" />
<line
	class="arc0"
	id="link80_@0_86"
	x1="754.2384"
	y1="68.38745"
	x2="704.5613"
	y2="94.53961" />
<line
	class="arc0"
	id="link81_@0_87"
	x1="747.08215"
	y1="62.68976"
	x2="702.3552"
	y2="87.55603" />
<line
	class="arc0"
	id="link54_@0_55"
	x1="716.2256"
	y1="488.29657"
	x2="716.2256"
	y2="345.1958" />
<line
	class="arc2"
	id="link151_@2_153"
	x1="645.6648"
	y1="377.15594"
	x2="649.2735"
	y2="369.8604" />
<line
	class="arc0"
	id="link151_@0_150"
	x1="645.6648"
	y1="377.15594"
	x2="617.03546"
	y2="300.41797" />
<line
	class="arc1"
	id="link159_@1_157"
	x1="670.92566"
	y1="427.89673"
	x2="670.92566"
	y2="385.47607" />
<line
	class="arc1"
	id="link69_@1_63"
	x1="586.3616"
	y1="252.13641"
	x2="618.83984"
	y2="262.83374" />
<line
	class="arc3"
	id="link69_@3_88"
	x1="586.3616"
	y1="252.13641"
	x2="589.56866"
	y2="242.6936" />
<line
	class="arc2"
	id="link111_@2_110"
	x1="611.11017"
	y1="65.27966"
	x2="605.20447"
	y2="71.53577" />
<line
	class="arc0"
	id="link111_@0_105"
	x1="611.11017"
	y1="65.27966"
	x2="638.7206"
	y2="78.262146" />
<line
	class="arc0"
	id="link110_@0_104"
	x1="605.20447"
	y1="71.53577"
	x2="635.87445"
	y2="83.581726" />
<line
	class="arc1"
	id="link89_@1_90"
	x1="587.3626"
	y1="235.71005"
	x2="607.4081"
	y2="217.2843" />
<line
	class="arc2"
	id="link89_@2_88"
	x1="587.3626"
	y1="235.71005"
	x2="589.56866"
	y2="242.6936" />
<polygon
	points="649.2735,369.8604 620.64417,293.1225 624.25287,268.85864 694.5734,287.1595 695.94635,317.92465 667.31696,375.80334 "
	id="face_152_62_56_154_155_153"
	style="fill:rgb(192,192,192);stroke:none"
	opacity="1.0" />
<line
	class="arc1"
	id="link153_@1_155"
	x1="649.2735"
	y1="369.8604"
	x2="667.31696"
	y2="375.80334" />
<line
	class="arc0"
	id="link153_@0_152"
	x1="649.2735"
	y1="369.8604"
	x2="620.64417"
	y2="293.1225" />
<line
	class="arc1"
	id="link88_@1_82"
	x1="589.56866"
	y1="242.6936"
	x2="618.4382"
	y2="252.20233" />
<line
	class="arc2"
	id="link150_@2_152"
	x1="617.03546"
	y1="300.41797"
	x2="620.64417"
	y2="293.1225" />
<line
	class="arc1"
	id="link152_@1_62"
	x1="620.64417"
	y1="293.1225"
	x2="624.25287"
	y2="268.85864" />
<line
	class="arc2"
	id="link90_@2_84"
	x1="607.4081"
	y1="217.2843"
	x2="614.6255"
	y2="219.66147" />
<line
	class="arc0"
	id="link90_@0_91"
	x1="607.4081"
	y1="217.2843"
	x2="636.0376"
	y2="108.663605" />
<line
	class="arc2"
	id="link157_@2_155"
	x1="670.92566"
	y1="385.47607"
	x2="667.31696"
	y2="375.80334" />
<line
	class="arc0"
	id="link157_@0_156"
	x1="670.92566"
	y1="385.47607"
	x2="699.555"
	y2="327.59735" />
<line
	class="arc0"
	id="link155_@0_154"
	x1="667.31696"
	y1="375.80334"
	x2="695.94635"
	y2="317.92465" />
<polygon
	points="614.6255,219.66147 638.92456,109.6145 650.3092,88.33612 685.65485,98.03363 694.4789,125.96814 708.0417,245.5693 696.65704,266.8477 623.4495,247.59601 "
	id="face_85_98_92_79_78_77_83_84"
	style="fill:rgb(192,192,192);stroke:none"
	opacity="1.0" />
<line
	class="arc1"
	id="link84_@1_83"
	x1="614.6255"
	y1="219.66147"
	x2="623.4495"
	y2="247.59601" />
<line
	class="arc0"
	id="link84_@0_85"
	x1="614.6255"
	y1="219.66147"
	x2="638.92456"
	y2="109.6145" />
<line
	class="arc2"
	id="link63_@2_62"
	x1="618.83984"
	y1="262.83374"
	x2="624.25287"
	y2="268.85864" />
<line
	class="arc3"
	id="link63_@3_82"
	x1="618.83984"
	y1="262.83374"
	x2="618.4382"
	y2="252.20233" />
<line
	class="arc0"
	id="link63_@0_57"
	x1="618.83984"
	y1="262.83374"
	x2="702.2223"
	y2="280.5762" />
<line
	class="arc2"
	id="link82_@2_83"
	x1="618.4382"
	y1="252.20233"
	x2="623.4495"
	y2="247.59601" />
<line
	class="arc0"
	id="link82_@0_76"
	x1="618.4382"
	y1="252.20233"
	x2="703.26416"
	y2="270.42023" />
<line
	class="arc0"
	id="link62_@0_56"
	x1="624.25287"
	y1="268.85864"
	x2="694.5734"
	y2="287.1595" />
<line
	class="arc0"
	id="link83_@0_77"
	x1="623.4495"
	y1="247.59601"
	x2="696.65704"
	y2="266.8477" />
<line
	class="arc1"
	id="link104_@1_91"
	x1="635.87445"
	y1="83.581726"
	x2="636.0376"
	y2="108.663605" />
<line
	class="arc2"
	id="link104_@2_105"
	x1="635.87445"
	y1="83.581726"
	x2="638.7206"
	y2="78.262146" />
<line
	class="arc2"
	id="link91_@2_85"
	x1="636.0376"
	y1="108.663605"
	x2="638.92456"
	y2="109.6145" />
<line
	class="arc1"
	id="link105_@1_99"
	x1="638.7206"
	y1="78.262146"
	x2="650.26843"
	y2="82.065674" />
<line
	class="arc1"
	id="link85_@1_98"
	x1="638.92456"
	y1="109.6145"
	x2="650.3092"
	y2="88.33612" />
<line
	class="arc2"
	id="link98_@2_99"
	x1="650.3092"
	y1="88.33612"
	x2="650.26843"
	y2="82.065674" />
<line
	class="arc0"
	id="link98_@0_92"
	x1="650.3092"
	y1="88.33612"
	x2="685.65485"
	y2="98.03363" />
<line
	class="arc0"
	id="link99_@0_93"
	x1="650.26843"
	y1="82.065674"
	x2="687.23004"
	y2="90.3512" />
<line
	class="arc1"
	id="link50_@1_49"
	x1="745.4482"
	y1="288.09726"
	x2="723.87445"
	y2="338.61252" />
<line
	class="arc2"
	id="link50_@2_51"
	x1="745.4482"
	y1="288.09726"
	x2="741.8395"
	y2="278.42456" />
<line
	class="arc1"
	id="link51_@1_57"
	x1="741.8395"
	y1="278.42456"
	x2="702.2223"
	y2="280.5762" />
<line
	class="arc3"
	id="link51_@3_70"
	x1="741.8395"
	y1="278.42456"
	x2="741.07697"
	y2="263.43228" />
<line
	class="arc1"
	id="link70_@1_76"
	x1="741.07697"
	y1="263.43228"
	x2="703.26416"
	y2="270.42023" />
<line
	class="arc2"
	id="link70_@2_71"
	x1="741.07697"
	y1="263.43228"
	x2="743.9232"
	y2="258.11276" />
<line
	class="arc1"
	id="link87_@1_93"
	x1="702.3552"
	y1="87.55603"
	x2="687.23004"
	y2="90.3512" />
<line
	class="arc2"
	id="link87_@2_86"
	x1="702.3552"
	y1="87.55603"
	x2="704.5613"
	y2="94.53961" />
<line
	class="arc1"
	id="link71_@1_72"
	x1="743.9232"
	y1="258.11276"
	x2="717.49493"
	y2="243.8223" />
<line
	class="arc1"
	id="link86_@1_73"
	x1="704.5613"
	y1="94.53961"
	x2="698.26013"
	y2="125.26932" />
<line
	class="arc2"
	id="link49_@2_55"
	x1="723.87445"
	y1="338.61252"
	x2="716.2256"
	y2="345.1958" />
<line
	class="arc2"
	id="link93_@2_92"
	x1="687.23004"
	y1="90.3512"
	x2="685.65485"
	y2="98.03363" />
<line
	class="arc1"
	id="link55_@1_156"
	x1="716.2256"
	y1="345.1958"
	x2="699.555"
	y2="327.59735" />
<line
	class="arc1"
	id="link92_@1_79"
	x1="685.65485"
	y1="98.03363"
	x2="694.4789"
	y2="125.96814" />
<line
	class="arc2"
	id="link57_@2_56"
	x1="702.2223"
	y1="280.5762"
	x2="694.5734"
	y2="287.1595" />
<line
	class="arc3"
	id="link57_@3_76"
	x1="702.2223"
	y1="280.5762"
	x2="703.26416"
	y2="270.42023" />
<line
	class="arc2"
	id="link76_@2_77"
	x1="703.26416"
	y1="270.42023"
	x2="696.65704"
	y2="266.8477" />
<line
	class="arc1"
	id="link56_@1_154"
	x1="694.5734"
	y1="287.1595"
	x2="695.94635"
	y2="317.92465" />
<line
	class="arc2"
	id="link73_@2_79"
	x1="698.26013"
	y1="125.26932"
	x2="694.4789"
	y2="125.96814" />
<line
	class="arc0"
	id="link73_@0_72"
	x1="698.26013"
	y1="125.26932"
	x2="717.49493"
	y2="243.8223" />
<line
	class="arc2"
	id="link156_@2_154"
	x1="699.555"
	y1="327.59735"
	x2="695.94635"
	y2="317.92465" />
<line
	class="arc0"
	id="link79_@0_78"
	x1="694.4789"
	y1="125.96814"
	x2="708.0417"
	y2="245.5693" />
<line
	class="arc1"
	id="link77_@1_78"
	x1="696.65704"
	y1="266.8477"
	x2="708.0417"
	y2="245.5693" />
<line
	class="arc2"
	id="link72_@2_78"
	x1="717.49493"
	y1="243.8223"
	x2="708.0417"
	y2="245.5693" />
</svg>
