<?xml version="1.0" encoding="UTF-8" standalone="no"?>
<!-- Created with Jerboa -->

<svg
   width="388.30902"
   height="485.6076"
   version="1.1"
   id="svg28720"
   sodipodi:docname="8-reevaluation-colour.svg"
   inkscape:version="1.2.2 (b0a8486541, 2022-12-01)"
   xmlns:inkscape="http://www.inkscape.org/namespaces/inkscape"
   xmlns:sodipodi="http://sodipodi.sourceforge.net/DTD/sodipodi-0.dtd"
   xmlns="http://www.w3.org/2000/svg"
   xmlns:svg="http://www.w3.org/2000/svg">
  <defs
     id="defs28724" />
  <sodipodi:namedview
     id="namedview28722"
     pagecolor="#ffffff"
     bordercolor="#000000"
     borderopacity="0.25"
     inkscape:showpageshadow="2"
     inkscape:pageopacity="0.0"
     inkscape:pagecheckerboard="0"
     inkscape:deskcolor="#d1d1d1"
     showgrid="false"
     inkscape:zoom="1.7113402"
     inkscape:cx="134.10542"
     inkscape:cy="161.56928"
     inkscape:window-width="1908"
     inkscape:window-height="1048"
     inkscape:window-x="1085"
     inkscape:window-y="25"
     inkscape:window-maximized="1"
     inkscape:current-layer="svg28720" />
  <style
     id="style">
		.arc0 {
			fill:none;
			fill-rule:evenodd;
			stroke:black;
			stroke-width:4;
			stroke-linecap:round;
			stroke-linejoin:round;
			stroke-opacity:1;
		}
		.arc1 {
			fill:none;
			fill-rule:evenodd;
			stroke:red;
			stroke-width:4;
			stroke-linecap:round;
			stroke-linejoin:round;
			stroke-opacity:1;
		}
		.arc2 {
			fill:none;
			fill-rule:evenodd;
			stroke:blue;
			stroke-width:4;
			stroke-linecap:round;
			stroke-linejoin:round;
			stroke-opacity:1;
		}
		.arc3 {
			fill:none;
			fill-rule:evenodd;
			stroke:green;
			stroke-width:4;
			stroke-linecap:round;
			stroke-linejoin:round;
			stroke-opacity:1;
		}
		.topological-dart {
			fill:#000000;
			stroke:#000000;
			stroke-width:0;
			stroke-linecap:round;
			stroke-linejoin:round;
			stroke-dasharray:none;
			paint-order:markers fill stroke;
		}
	</style>
  <polygon
     points="751.86115,347.7623 887.5763,355.44373 917.8641,393.13452 917.8641,554.3405 887.5763,588.6028 751.86115,580.9214 721.5734,543.2305 721.5734,382.02457 "
     id="face_22_23_18_17_16_15_20_21"
     style="fill:#c0c0c0;stroke:none"
     opacity="1"
     transform="translate(-538.19165,-152.11182)" />
  <line
     class="arc1"
     id="link21_@1_20"
     x1="183.38177"
     y1="391.11871"
     x2="213.66949"
     y2="428.80957" />
  <line
     class="arc2"
     id="link21_@2_26"
     x1="183.38177"
     y1="391.11871"
     x2="152.15875"
     y2="391.69714" />
  <line
     class="arc0"
     id="link21_@0_22"
     x1="183.38177"
     y1="391.11871"
     x2="183.38177"
     y2="229.91275" />
  <polygon
     points="670.68134,349.2662 578.7609,360.88025 557.19885,403.88644 557.19885,556.0983 578.7609,594.03937 670.68134,582.4253 690.3504,543.80896 690.3504,382.603 "
     id="face_27_28_33_32_31_30_25_26"
     style="fill:#c0c0c0;stroke:none"
     opacity="1"
     transform="translate(-538.19165,-152.11182)" />
  <line
     class="arc1"
     id="link26_@1_25"
     x1="152.15875"
     y1="391.69714"
     x2="132.48969"
     y2="430.31348" />
  <line
     class="arc0"
     id="link26_@0_27"
     x1="152.15875"
     y1="391.69714"
     x2="152.15875"
     y2="230.49118" />
  <line
     class="arc1"
     id="link22_@1_23"
     x1="183.38177"
     y1="229.91275"
     x2="213.66949"
     y2="195.65048" />
  <line
     class="arc2"
     id="link22_@2_27"
     x1="183.38177"
     y1="229.91275"
     x2="152.15875"
     y2="230.49118" />
  <line
     class="arc2"
     id="link20_@2_0"
     x1="213.66949"
     y1="428.80957"
     x2="199.90118"
     y2="453.1427" />
  <line
     class="arc0"
     id="link20_@0_15"
     x1="213.66949"
     y1="428.80957"
     x2="349.38464"
     y2="436.49097" />
  <line
     class="arc1"
     id="link27_@1_28"
     x1="152.15875"
     y1="230.49118"
     x2="132.48969"
     y2="197.15439" />
  <line
     class="arc2"
     id="link25_@2_1"
     x1="132.48969"
     y1="430.31348"
     x2="149.94434"
     y2="454.06824" />
  <line
     class="arc0"
     id="link25_@0_30"
     x1="132.48969"
     y1="430.31348"
     x2="40.569275"
     y2="441.92755" />
  <polygon
     points="884.4265,617.29 803.8641,629.54694 767.1582,635.7194 685.6801,632.9843 651.6064,631.0558 589.79736,625.6809 592.42957,617.57983 688.136,606.18005 738.09283,605.2545 873.808,612.936 "
     id="face_7_6_5_4_9_8_3_2_1_0"
     style="fill:#c0c0c0;stroke:none"
     opacity="1"
     transform="translate(-538.19165,-152.11182)" />
  <line
     class="arc1"
     id="link0_@1_1"
     x1="199.90118"
     y1="453.1427"
     x2="149.94434"
     y2="454.06824" />
  <line
     class="arc0"
     id="link0_@0_7"
     x1="199.90118"
     y1="453.1427"
     x2="335.61633"
     y2="460.82416" />
  <line
     class="arc2"
     id="link23_@2_24"
     x1="213.66949"
     y1="195.65048"
     x2="199.90118"
     y2="175.013" />
  <line
     class="arc0"
     id="link23_@0_18"
     x1="213.66949"
     y1="195.65048"
     x2="349.38464"
     y2="203.33191" />
  <line
     class="arc0"
     id="link1_@0_2"
     x1="149.94434"
     y1="454.06824"
     x2="54.237915"
     y2="465.46802" />
  <polygon
     points="890.95795,286.2153 830.55164,191.56375 802.2694,169.72809 738.89703,166.14124 724.7764,185.57693 721.9263,276.64816 750.20856,298.48376 876.8374,305.6509 "
     id="face_109_110_111_64_118_105_104_103"
     style="fill:#c0c0c0;stroke:none"
     opacity="1"
     transform="translate(-538.19165,-152.11182)" />
  <line
     class="arc1"
     id="link103_@1_104"
     x1="212.01691"
     y1="146.37195"
     x2="183.73462"
     y2="124.53635" />
  <line
     class="arc2"
     id="link103_@2_102"
     x1="212.01691"
     y1="146.37195"
     x2="200.40253"
     y2="160.98853" />
  <line
     class="arc0"
     id="link103_@0_109"
     x1="212.01691"
     y1="146.37195"
     x2="338.64575"
     y2="153.53909" />
  <line
     class="arc2"
     id="link104_@2_98"
     x1="183.73462"
     y1="124.53635"
     x2="158.13177"
     y2="125.01065" />
  <line
     class="arc0"
     id="link104_@0_105"
     x1="183.73462"
     y1="124.53635"
     x2="186.58478"
     y2="33.465118" />
  <line
     class="arc2"
     id="link28_@2_29"
     x1="132.48969"
     y1="197.15439"
     x2="149.94434"
     y2="175.93845" />
  <line
     class="arc0"
     id="link28_@0_33"
     x1="132.48969"
     y1="197.15439"
     x2="40.569275"
     y2="208.76843" />
  <polygon
     points="700.80493,166.8469 658.13605,172.28445 636.4615,195.04562 582.76697,291.64026 588.6291,310.70572 674.64886,299.88354 696.3234,277.12247 706.6672,185.91241 "
     id="face_99_112_106_93_92_91_97_98"
     style="fill:#c0c0c0;stroke:none"
     opacity="1"
     transform="translate(-538.19165,-152.11182)" />
  <line
     class="arc1"
     id="link98_@1_97"
     x1="158.13177"
     y1="125.01065"
     x2="136.45721"
     y2="147.77173" />
  <line
     class="arc0"
     id="link98_@0_99"
     x1="158.13177"
     y1="125.01065"
     x2="168.47552"
     y2="33.800598" />
  <polygon
     points="884.4265,339.16025 803.8641,351.41714 767.1582,348.59555 685.6801,345.86044 651.6064,343.9319 589.79736,338.55704 592.42957,339.45004 688.136,328.05026 738.09283,327.12482 873.808,334.8062 "
     id="face_19_14_59_54_49_44_39_34_29_24"
     style="fill:#c0c0c0;stroke:none"
     opacity="1"
     transform="translate(-538.19165,-152.11182)" />
  <line
     class="arc1"
     id="link24_@1_29"
     x1="199.90118"
     y1="175.013"
     x2="149.94434"
     y2="175.93845" />
  <line
     class="arc3"
     id="link24_@3_102"
     x1="199.90118"
     y1="175.013"
     x2="200.40253"
     y2="160.98853" />
  <line
     class="arc0"
     id="link24_@0_19"
     x1="199.90118"
     y1="175.013"
     x2="335.61633"
     y2="182.6944" />
  <line
     class="arc1"
     id="link102_@1_96"
     x1="200.40253"
     y1="160.98853"
     x2="150.44568"
     y2="161.91397" />
  <line
     class="arc0"
     id="link102_@0_108"
     x1="200.40253"
     y1="160.98853"
     x2="331.57452"
     y2="168.41278" />
  <line
     class="arc2"
     id="link97_@2_96"
     x1="136.45721"
     y1="147.77173"
     x2="150.44568"
     y2="161.91397" />
  <line
     class="arc0"
     id="link97_@0_91"
     x1="136.45721"
     y1="147.77173"
     x2="50.437439"
     y2="158.5939" />
  <line
     class="arc3"
     id="link29_@3_96"
     x1="149.94434"
     y1="175.93845"
     x2="150.44568"
     y2="161.91397" />
  <line
     class="arc0"
     id="link29_@0_34"
     x1="149.94434"
     y1="175.93845"
     x2="54.237915"
     y2="187.33823" />
  <line
     class="arc0"
     id="link96_@0_90"
     x1="150.44568"
     y1="161.91397"
     x2="57.689636"
     y2="172.91779" />
  <line
     class="arc1"
     id="link15_@1_16"
     x1="349.38464"
     y1="436.49097"
     x2="379.67242"
     y2="402.2287" />
  <line
     class="arc2"
     id="link15_@2_7"
     x1="349.38464"
     y1="436.49097"
     x2="335.61633"
     y2="460.82416" />
  <line
     class="arc1"
     id="link7_@1_6"
     x1="335.61633"
     y1="460.82416"
     x2="346.23486"
     y2="465.17816" />
  <line
     class="arc1"
     id="link18_@1_17"
     x1="349.38464"
     y1="203.33191"
     x2="379.67242"
     y2="241.02271" />
  <line
     class="arc2"
     id="link18_@2_19"
     x1="349.38464"
     y1="203.33191"
     x2="335.61633"
     y2="182.6944" />
  <line
     class="arc1"
     id="link105_@1_118"
     x1="186.58478"
     y1="33.465118"
     x2="200.70538"
     y2="14.029419" />
  <line
     class="arc2"
     id="link105_@2_99"
     x1="186.58478"
     y1="33.465118"
     x2="168.47552"
     y2="33.800598" />
  <line
     class="arc2"
     id="link16_@2_11"
     x1="379.67242"
     y1="402.2287"
     x2="386.30902"
     y2="404.94995" />
  <line
     class="arc0"
     id="link16_@0_17"
     x1="379.67242"
     y1="402.2287"
     x2="379.67242"
     y2="241.02271" />
  <line
     class="arc1"
     id="link99_@1_112"
     x1="168.47552"
     y1="33.800598"
     x2="162.61328"
     y2="14.735077" />
  <line
     class="arc1"
     id="link109_@1_110"
     x1="338.64575"
     y1="153.53909"
     x2="352.7663"
     y2="134.10349" />
  <line
     class="arc2"
     id="link109_@2_108"
     x1="338.64575"
     y1="153.53909"
     x2="331.57452"
     y2="168.41278" />
  <line
     class="arc2"
     id="link17_@2_12"
     x1="379.67242"
     y1="241.02271"
     x2="386.30902"
     y2="243.74396" />
  <line
     class="arc1"
     id="link19_@1_14"
     x1="335.61633"
     y1="182.6944"
     x2="346.23486"
     y2="187.04843" />
  <line
     class="arc3"
     id="link19_@3_108"
     x1="335.61633"
     y1="182.6944"
     x2="331.57452"
     y2="168.41278" />
  <line
     class="arc1"
     id="link108_@1_114"
     x1="331.57452"
     y1="168.41278"
     x2="342.19318"
     y2="172.76682" />
  <polygon
     points="880.3848,324.87863 802.77264,336.7396 767.9597,338.5222 684.9673,335.70135 654.6795,333.9871 591.3561,328.5265 595.8813,325.0296 688.6373,314.0258 738.5942,313.10034 869.7662,320.5246 "
     id="face_108_114_60_66_72_78_84_90_96_102"
     style="fill:#c0c0c0;stroke:none"
     opacity="1"
     transform="translate(-538.19165,-152.11182)" />
  <line
     class="arc2"
     id="link118_@2_119"
     x1="200.70538"
     y1="14.029419"
     x2="193.04401"
     y2="2" />
  <line
     class="arc0"
     id="link118_@0_64"
     x1="200.70538"
     y1="14.029419"
     x2="264.07776"
     y2="17.616272" />
  <polygon
     points="904.8316,362.51898 820.48315,374.5616 802.70703,417.78214 802.70703,569.99396 820.48315,607.7207 904.8316,595.6781 924.5007,557.06177 924.5007,395.85577 "
     id="face_12_13_58_57_56_55_10_11"
     style="fill:#c0c0c0;stroke:none"
     opacity="1"
     transform="translate(-538.19165,-152.11182)" />
  <line
     class="arc1"
     id="link11_@1_10"
     x1="386.30902"
     y1="404.94995"
     x2="366.63995"
     y2="443.56628" />
  <line
     class="arc0"
     id="link11_@0_12"
     x1="386.30902"
     y1="404.94995"
     x2="386.30902"
     y2="243.74396" />
  <line
     class="arc2"
     id="link112_@2_113"
     x1="162.61328"
     y1="14.735077"
     x2="173.06134"
     y2="2.3702087" />
  <line
     class="arc0"
     id="link112_@0_106"
     x1="162.61328"
     y1="14.735077"
     x2="119.9444"
     y2="20.172638" />
  <line
     class="arc2"
     id="link110_@2_116"
     x1="352.7663"
     y1="134.10349"
     x2="358.20837"
     y2="136.3349" />
  <line
     class="arc0"
     id="link110_@0_111"
     x1="352.7663"
     y1="134.10349"
     x2="292.35999"
     y2="39.451935" />
  <line
     class="arc1"
     id="link30_@1_31"
     x1="40.569275"
     y1="441.92755"
     x2="19.007202"
     y2="403.98651" />
  <line
     class="arc2"
     id="link30_@2_2"
     x1="40.569275"
     y1="441.92755"
     x2="54.237915"
     y2="465.46802" />
  <polygon
     points="794.3124,159.18314 759.137,164.48187 745.2118,165.19495 708.8346,163.8866 696.71954,163.20087 668.20996,160.83664 670.02,159.4379 711.253,154.48203 731.23566,154.11182 790.0649,157.44153 "
     id="face_65_71_77_83_89_95_101_107_113_119"
     style="fill:#c0c0c0;stroke:none"
     opacity="1"
     transform="translate(-538.19165,-152.11182)" />
  <line
     class="arc1"
     id="link119_@1_113"
     x1="193.04401"
     y1="2"
     x2="173.06134"
     y2="2.3702087" />
  <line
     class="arc0"
     id="link119_@0_65"
     x1="193.04401"
     y1="2"
     x2="251.87323"
     y2="5.3297119" />
  <line
     class="arc1"
     id="link12_@1_13"
     x1="386.30902"
     y1="243.74396"
     x2="366.63995"
     y2="210.40717" />
  <line
     class="arc2"
     id="link6_@2_10"
     x1="346.23486"
     y1="465.17816"
     x2="366.63995"
     y2="443.56628" />
  <line
     class="arc0"
     id="link6_@0_5"
     x1="346.23486"
     y1="465.17816"
     x2="265.67242"
     y2="477.43512" />
  <line
     class="arc0"
     id="link113_@0_107"
     x1="173.06134"
     y1="2.3702087"
     x2="131.82837"
     y2="7.3260803" />
  <line
     class="arc1"
     id="link2_@1_3"
     x1="54.237915"
     y1="465.46802"
     x2="51.605713"
     y2="473.56909" />
  <line
     class="arc0"
     id="link10_@0_55"
     x1="366.63995"
     y1="443.56628"
     x2="282.2915"
     y2="455.60889" />
  <line
     class="arc1"
     id="link33_@1_32"
     x1="40.569275"
     y1="208.76843"
     x2="19.007202"
     y2="251.77463" />
  <line
     class="arc2"
     id="link33_@2_34"
     x1="40.569275"
     y1="208.76843"
     x2="54.237915"
     y2="187.33823" />
  <polygon
     points="810.3661,173.048 770.72595,178.65701 767.2241,202.44672 790.4155,303.39307 814.4503,323.4871 892.8981,312.23636 896.4,288.44672 834.401,193.14209 "
     id="face_117_70_76_63_62_61_115_116"
     style="fill:#c0c0c0;stroke:none"
     opacity="1"
     transform="translate(-538.19165,-152.11182)" />
  <line
     class="arc1"
     id="link116_@1_115"
     x1="358.20837"
     y1="136.3349"
     x2="354.70642"
     y2="160.12454" />
  <line
     class="arc0"
     id="link116_@0_117"
     x1="358.20837"
     y1="136.3349"
     x2="296.20935"
     y2="41.030273" />
  <line
     class="arc1"
     id="link64_@1_111"
     x1="264.07776"
     y1="17.616272"
     x2="292.35999"
     y2="39.451935" />
  <line
     class="arc2"
     id="link64_@2_65"
     x1="264.07776"
     y1="17.616272"
     x2="251.87323"
     y2="5.3297119" />
  <line
     class="arc1"
     id="link91_@1_92"
     x1="50.437439"
     y1="158.5939"
     x2="44.575317"
     y2="139.52844" />
  <line
     class="arc2"
     id="link91_@2_90"
     x1="50.437439"
     y1="158.5939"
     x2="57.689636"
     y2="172.91779" />
  <line
     class="arc2"
     id="link111_@2_117"
     x1="292.35999"
     y1="39.451935"
     x2="296.20935"
     y2="41.030273" />
  <line
     class="arc2"
     id="link14_@2_13"
     x1="346.23486"
     y1="187.04843"
     x2="366.63995"
     y2="210.40717" />
  <line
     class="arc3"
     id="link14_@3_114"
     x1="346.23486"
     y1="187.04843"
     x2="342.19318"
     y2="172.76682" />
  <line
     class="arc0"
     id="link14_@0_59"
     x1="346.23486"
     y1="187.04843"
     x2="265.67242"
     y2="199.30533" />
  <line
     class="arc2"
     id="link31_@2_36"
     x1="19.007202"
     y1="403.98651"
     x2="10.5"
     y2="401.35358" />
  <line
     class="arc0"
     id="link31_@0_32"
     x1="19.007202"
     y1="403.98651"
     x2="19.007202"
     y2="251.77463" />
  <line
     class="arc1"
     id="link34_@1_39"
     x1="54.237915"
     y1="187.33823"
     x2="51.605713"
     y2="186.44522" />
  <line
     class="arc3"
     id="link34_@3_90"
     x1="54.237915"
     y1="187.33823"
     x2="57.689636"
     y2="172.91779" />
  <line
     class="arc2"
     id="link114_@2_115"
     x1="342.19318"
     y1="172.76682"
     x2="354.70642"
     y2="160.12454" />
  <line
     class="arc0"
     id="link114_@0_60"
     x1="342.19318"
     y1="172.76682"
     x2="264.58099"
     y2="184.62778" />
  <line
     class="arc1"
     id="link90_@1_84"
     x1="57.689636"
     y1="172.91779"
     x2="53.164429"
     y2="176.41467" />
  <line
     class="arc0"
     id="link13_@0_58"
     x1="366.63995"
     y1="210.40717"
     x2="282.2915"
     y2="222.4498" />
  <line
     class="arc1"
     id="link65_@1_71"
     x1="251.87323"
     y1="5.3297119"
     x2="256.12073"
     y2="7.0713196" />
  <line
     class="arc0"
     id="link115_@0_61"
     x1="354.70642"
     y1="160.12454"
     x2="276.25867"
     y2="171.37527" />
  <line
     class="arc2"
     id="link32_@2_37"
     x1="19.007202"
     y1="251.77463"
     x2="10.5"
     y2="258.13586" />
  <line
     class="arc1"
     id="link117_@1_70"
     x1="296.20935"
     y1="41.030273"
     x2="272.17444"
     y2="20.936188" />
  <line
     class="arc2"
     id="link3_@2_35"
     x1="51.605713"
     y1="473.56909"
     x2="37.00177"
     y2="465.8125" />
  <line
     class="arc0"
     id="link3_@0_8"
     x1="51.605713"
     y1="473.56909"
     x2="113.41473"
     y2="478.94397" />
  <polygon
     points="555.13226,393.5622 583.38214,462.2729 583.38214,507.2436 555.13226,572.7565 548.69165,553.4654 548.69165,410.24768 "
     id="face_37_124_125_123_122_36"
     style="fill:#0000ff;stroke:none"
     opacity="1"
     transform="translate(-538.19165,-152.11182)" />
  <line
     class="arc1"
     id="link36_@1_122"
     x1="10.5"
     y1="401.35358"
     x2="16.940613"
     y2="420.64465" />
  <line
     class="arc0"
     id="link36_@0_37"
     x1="10.5"
     y1="401.35358"
     x2="10.5"
     y2="258.13586" />
  <line
     class="arc1"
     id="link106_@1_93"
     x1="119.9444"
     y1="20.172638"
     x2="98.269836"
     y2="42.933807" />
  <line
     class="arc2"
     id="link106_@2_107"
     x1="119.9444"
     y1="20.172638"
     x2="131.82837"
     y2="7.3260803" />
  <line
     class="arc2"
     id="link92_@2_86"
     x1="44.575317"
     y1="139.52844"
     x2="42.256226"
     y2="141.32059" />
  <line
     class="arc0"
     id="link92_@0_93"
     x1="44.575317"
     y1="139.52844"
     x2="98.269836"
     y2="42.933807" />
  <line
     class="arc2"
     id="link71_@2_70"
     x1="256.12073"
     y1="7.0713196"
     x2="272.17444"
     y2="20.936188" />
  <line
     class="arc0"
     id="link71_@0_77"
     x1="256.12073"
     y1="7.0713196"
     x2="220.94537"
     y2="12.370056" />
  <line
     class="arc1"
     id="link107_@1_101"
     x1="131.82837"
     y1="7.3260803"
     x2="130.01831"
     y2="8.724823" />
  <line
     class="arc0"
     id="link70_@0_76"
     x1="272.17444"
     y1="20.936188"
     x2="232.5343"
     y2="26.545197" />
  <polygon
     points="638.1338,595.44257 609.8839,526.7318 590.9541,525.6604 562.7042,591.1733 575.1934,617.9243 634.34784,622.2107 "
     id="face_40_134_135_121_120_35"
     style="fill:#c0c0c0;stroke:none"
     opacity="1"
     transform="translate(-538.19165,-152.11182)" />
  <line
     class="arc1"
     id="link35_@1_120"
     x1="37.00177"
     y1="465.8125"
     x2="24.512573"
     y2="439.06146" />
  <line
     class="arc0"
     id="link35_@0_40"
     x1="37.00177"
     y1="465.8125"
     x2="96.156189"
     y2="470.09888" />
  <line
     class="arc1"
     id="link37_@1_124"
     x1="10.5"
     y1="258.13586"
     x2="16.940613"
     y2="241.45038" />
  <line
     class="arc2"
     id="link122_@2_120"
     x1="16.940613"
     y1="420.64465"
     x2="24.512573"
     y2="439.06146" />
  <line
     class="arc0"
     id="link122_@0_123"
     x1="16.940613"
     y1="420.64465"
     x2="45.190491"
     y2="355.13177" />
  <line
     class="arc2"
     id="link93_@2_87"
     x1="98.269836"
     y1="42.933807"
     x2="96.629395"
     y2="44.201416" />
  <line
     class="arc0"
     id="link120_@0_121"
     x1="24.512573"
     y1="439.06146"
     x2="52.762451"
     y2="373.54858" />
  <line
     class="arc2"
     id="link84_@2_85"
     x1="53.164429"
     y1="176.41467"
     x2="43.59314"
     y2="163.8829" />
  <line
     class="arc3"
     id="link84_@3_39"
     x1="53.164429"
     y1="176.41467"
     x2="51.605713"
     y2="186.44522" />
  <line
     class="arc0"
     id="link84_@0_78"
     x1="53.164429"
     y1="176.41467"
     x2="116.48785"
     y2="181.87527" />
  <line
     class="arc2"
     id="link39_@2_38"
     x1="51.605713"
     y1="186.44522"
     x2="37.00177"
     y2="196.67691" />
  <line
     class="arc0"
     id="link39_@0_44"
     x1="51.605713"
     y1="186.44522"
     x2="113.41473"
     y2="191.82007" />
  <polygon
     points="654.68555,174.9508 685.9193,177.09396 687.2562,199.65634 663.83234,299.09018 643.96796,320.45255 581.7848,315.99472 580.4479,293.4324 634.82104,196.31323 "
     id="face_87_100_94_81_80_79_85_86"
     style="fill:#c0c0c0;stroke:none"
     opacity="1"
     transform="translate(-538.19165,-152.11182)" />
  <line
     class="arc1"
     id="link86_@1_85"
     x1="42.256226"
     y1="141.32059"
     x2="43.59314"
     y2="163.8829" />
  <line
     class="arc0"
     id="link86_@0_87"
     x1="42.256226"
     y1="141.32059"
     x2="96.629395"
     y2="44.201416" />
  <line
     class="arc2"
     id="link101_@2_100"
     x1="130.01831"
     y1="8.724823"
     x2="116.4939"
     y2="22.838989" />
  <line
     class="arc0"
     id="link101_@0_95"
     x1="130.01831"
     y1="8.724823"
     x2="158.52789"
     y2="11.08905" />
  <line
     class="arc1"
     id="link87_@1_100"
     x1="96.629395"
     y1="44.201416"
     x2="116.4939"
     y2="22.838989" />
  <line
     class="arc2"
     id="link124_@2_126"
     x1="16.940613"
     y1="241.45038"
     x2="24.512573"
     y2="223.89069" />
  <line
     class="arc0"
     id="link124_@0_125"
     x1="16.940613"
     y1="241.45038"
     x2="45.190491"
     y2="310.16107" />
  <line
     class="arc0"
     id="link100_@0_94"
     x1="116.4939"
     y1="22.838989"
     x2="147.72766"
     y2="24.982147" />
  <line
     class="arc0"
     id="link85_@0_79"
     x1="43.59314"
     y1="163.8829"
     x2="105.77631"
     y2="168.34073" />
  <polygon
     points="638.1338,380.27182 609.8839,445.7846 590.9541,444.7132 562.7042,376.0025 575.1934,348.78873 634.34784,353.07507 "
     id="face_43_128_129_127_126_38"
     style="fill:#c0c0c0;stroke:none"
     opacity="1"
     transform="translate(-538.19165,-152.11182)" />
  <line
     class="arc1"
     id="link38_@1_126"
     x1="37.00177"
     y1="196.67691"
     x2="24.512573"
     y2="223.89069" />
  <line
     class="arc0"
     id="link38_@0_43"
     x1="37.00177"
     y1="196.67691"
     x2="96.156189"
     y2="200.96326" />
  <line
     class="arc0"
     id="link126_@0_127"
     x1="24.512573"
     y1="223.89069"
     x2="52.762451"
     y2="292.60138" />
  <line
     class="arc1"
     id="link123_@1_125"
     x1="45.190491"
     y1="355.13177"
     x2="45.190491"
     y2="310.16107" />
  <line
     class="arc2"
     id="link123_@2_121"
     x1="45.190491"
     y1="355.13177"
     x2="52.762451"
     y2="373.54858" />
  <line
     class="arc1"
     id="link121_@1_135"
     x1="52.762451"
     y1="373.54858"
     x2="71.692261"
     y2="374.62" />
  <line
     class="arc2"
     id="link125_@2_127"
     x1="45.190491"
     y1="310.16107"
     x2="52.762451"
     y2="292.60138" />
  <line
     class="arc1"
     id="link127_@1_129"
     x1="52.762451"
     y1="292.60138"
     x2="71.692261"
     y2="293.67279" />
  <line
     class="arc2"
     id="link135_@2_133"
     x1="71.692261"
     y1="374.62"
     x2="79.264221"
     y2="357.0603" />
  <line
     class="arc0"
     id="link135_@0_134"
     x1="71.692261"
     y1="374.62"
     x2="99.942139"
     y2="443.33075" />
  <line
     class="arc1"
     id="link95_@1_89"
     x1="158.52789"
     y1="11.08905"
     x2="170.64294"
     y2="11.77478" />
  <line
     class="arc2"
     id="link95_@2_94"
     x1="158.52789"
     y1="11.08905"
     x2="147.72766"
     y2="24.982147" />
  <line
     class="arc1"
     id="link94_@1_81"
     x1="147.72766"
     y1="24.982147"
     x2="149.06458"
     y2="47.544525" />
  <line
     class="arc1"
     id="link8_@1_9"
     x1="113.41473"
     y1="478.94397"
     x2="147.48846"
     y2="480.8725" />
  <line
     class="arc2"
     id="link8_@2_40"
     x1="113.41473"
     y1="478.94397"
     x2="96.156189"
     y2="470.09888" />
  <line
     class="arc2"
     id="link129_@2_131"
     x1="71.692261"
     y1="293.67279"
     x2="79.264221"
     y2="312.08963" />
  <line
     class="arc0"
     id="link129_@0_128"
     x1="71.692261"
     y1="293.67279"
     x2="99.942139"
     y2="228.16" />
  <polygon
     points="658.95654,556.1475 658.95654,421.92395 645.7057,398.6886 617.4559,464.20145 617.4559,509.17212 645.7057,577.8829 "
     id="face_132_41_42_130_131_133"
     style="fill:#c0c0c0;stroke:none"
     opacity="1"
     transform="translate(-538.19165,-152.11182)" />
  <line
     class="arc1"
     id="link133_@1_131"
     x1="79.264221"
     y1="357.0603"
     x2="79.264221"
     y2="312.08963" />
  <line
     class="arc0"
     id="link133_@0_132"
     x1="79.264221"
     y1="357.0603"
     x2="107.51404"
     y2="425.77106" />
  <line
     class="arc1"
     id="link40_@1_134"
     x1="96.156189"
     y1="470.09888"
     x2="99.942139"
     y2="443.33075" />
  <line
     class="arc2"
     id="link89_@2_88"
     x1="170.64294"
     y1="11.77478"
     x2="170.82202"
     y2="26.289246" />
  <line
     class="arc0"
     id="link89_@0_83"
     x1="170.64294"
     y1="11.77478"
     x2="207.02014"
     y2="13.08313" />
  <line
     class="arc0"
     id="link131_@0_130"
     x1="79.264221"
     y1="312.08963"
     x2="107.51404"
     y2="246.57678" />
  <line
     class="arc2"
     id="link134_@2_132"
     x1="99.942139"
     y1="443.33075"
     x2="107.51404"
     y2="425.77106" />
  <line
     class="arc2"
     id="link81_@2_75"
     x1="149.06458"
     y1="47.544525"
     x2="160.04388"
     y2="48.165955" />
  <line
     class="arc0"
     id="link81_@0_80"
     x1="149.06458"
     y1="47.544525"
     x2="125.64069"
     y2="146.97836" />
  <line
     class="arc1"
     id="link77_@1_83"
     x1="220.94537"
     y1="12.370056"
     x2="207.02014"
     y2="13.08313" />
  <line
     class="arc2"
     id="link77_@2_76"
     x1="220.94537"
     y1="12.370056"
     x2="232.5343"
     y2="26.545197" />
  <polygon
     points="754.60443,203.09293 772.5739,304.30664 761.7957,326.1833 689.77814,323.04538 679.35486,299.96872 698.23553,200.27777 709.0137,178.40106 744.18115,180.01624 "
     id="face_82_69_68_67_73_74_75_88"
     style="fill:#c0c0c0;stroke:none"
     opacity="1"
     transform="translate(-538.19165,-152.11182)" />
  <line
     class="arc1"
     id="link88_@1_75"
     x1="170.82202"
     y1="26.289246"
     x2="160.04388"
     y2="48.165955" />
  <line
     class="arc0"
     id="link88_@0_82"
     x1="170.82202"
     y1="26.289246"
     x2="205.9895"
     y2="27.904419" />
  <line
     class="arc1"
     id="link132_@1_41"
     x1="107.51404"
     y1="425.77106"
     x2="120.76489"
     y2="404.03571" />
  <line
     class="arc0"
     id="link75_@0_74"
     x1="160.04388"
     y1="48.165955"
     x2="141.16321"
     y2="147.8569" />
  <line
     class="arc1"
     id="link76_@1_63"
     x1="232.5343"
     y1="26.545197"
     x2="229.03247"
     y2="50.3349" />
  <line
     class="arc2"
     id="link83_@2_82"
     x1="207.02014"
     y1="13.08313"
     x2="205.9895"
     y2="27.904419" />
  <line
     class="arc2"
     id="link9_@2_45"
     x1="147.48846"
     y1="480.8725"
     x2="152.94568"
     y2="473.31317" />
  <line
     class="arc0"
     id="link9_@0_4"
     x1="147.48846"
     y1="480.8725"
     x2="228.96655"
     y2="483.6076" />
  <line
     class="arc2"
     id="link41_@2_46"
     x1="120.76489"
     y1="404.03571"
     x2="128.33685"
     y2="404.46423" />
  <line
     class="arc0"
     id="link41_@0_42"
     x1="120.76489"
     y1="404.03571"
     x2="120.76489"
     y2="269.81213" />
  <line
     class="arc1"
     id="link44_@1_49"
     x1="113.41473"
     y1="191.82007"
     x2="147.48846"
     y2="193.74863" />
  <line
     class="arc2"
     id="link44_@2_43"
     x1="113.41473"
     y1="191.82007"
     x2="96.156189"
     y2="200.96326" />
  <line
     class="arc3"
     id="link44_@3_78"
     x1="113.41473"
     y1="191.82007"
     x2="116.48785"
     y2="181.87527" />
  <line
     class="arc1"
     id="link78_@1_72"
     x1="116.48785"
     y1="181.87527"
     x2="146.77563"
     y2="183.58954" />
  <line
     class="arc2"
     id="link78_@2_79"
     x1="116.48785"
     y1="181.87527"
     x2="105.77631"
     y2="168.34073" />
  <line
     class="arc1"
     id="link43_@1_128"
     x1="96.156189"
     y1="200.96326"
     x2="99.942139"
     y2="228.16" />
  <line
     class="arc1"
     id="link79_@1_80"
     x1="105.77631"
     y1="168.34073"
     x2="125.64069"
     y2="146.97836" />
  <line
     class="arc2"
     id="link128_@2_130"
     x1="99.942139"
     y1="228.16"
     x2="107.51404"
     y2="246.57678" />
  <polygon
     points="679.7794,400.61716 708.02924,469.32788 708.02924,514.2985 679.7794,579.8114 666.5285,556.57605 666.5285,422.3525 "
     id="face_47_146_147_149_148_46"
     style="fill:#c0c0c0;stroke:none"
     opacity="1"
     transform="translate(-538.19165,-152.11182)" />
  <line
     class="arc1"
     id="link46_@1_148"
     x1="128.33685"
     y1="404.46423"
     x2="141.58777"
     y2="427.69958" />
  <line
     class="arc0"
     id="link46_@0_47"
     x1="128.33685"
     y1="404.46423"
     x2="128.33685"
     y2="270.24069" />
  <line
     class="arc1"
     id="link130_@1_42"
     x1="107.51404"
     y1="246.57678"
     x2="120.76489"
     y2="269.81213" />
  <line
     class="arc2"
     id="link80_@2_74"
     x1="125.64069"
     y1="146.97836"
     x2="141.16321"
     y2="147.8569" />
  <line
     class="arc1"
     id="link82_@1_69"
     x1="205.9895"
     y1="27.904419"
     x2="216.41278"
     y2="50.98111" />
  <line
     class="arc1"
     id="link5_@1_4"
     x1="265.67242"
     y1="477.43512"
     x2="228.96655"
     y2="483.6076" />
  <line
     class="arc2"
     id="link5_@2_55"
     x1="265.67242"
     y1="477.43512"
     x2="282.2915"
     y2="455.60889" />
  <line
     class="arc2"
     id="link42_@2_47"
     x1="120.76489"
     y1="269.81213"
     x2="128.33685"
     y2="270.24069" />
  <line
     class="arc2"
     id="link148_@2_150"
     x1="141.58777"
     y1="427.69958"
     x2="149.15967"
     y2="446.11646" />
  <line
     class="arc0"
     id="link148_@0_149"
     x1="141.58777"
     y1="427.69958"
     x2="169.83759"
     y2="362.18671" />
  <polygon
     points="762.78094,602.49756 734.531,533.78687 715.60114,532.7154 687.3513,598.2283 691.1373,625.425 760.1262,628.3915 "
     id="face_50_136_137_151_150_45"
     style="fill:#c0c0c0;stroke:none"
     opacity="1"
     transform="translate(-538.19165,-152.11182)" />
  <line
     class="arc1"
     id="link45_@1_150"
     x1="152.94568"
     y1="473.31317"
     x2="149.15967"
     y2="446.11646" />
  <line
     class="arc0"
     id="link45_@0_50"
     x1="152.94568"
     y1="473.31317"
     x2="221.93457"
     y2="476.27966" />
  <line
     class="arc2"
     id="link63_@2_69"
     x1="229.03247"
     y1="50.3349"
     x2="216.41278"
     y2="50.98111" />
  <line
     class="arc0"
     id="link63_@0_62"
     x1="229.03247"
     y1="50.3349"
     x2="252.22388"
     y2="151.28125" />
  <line
     class="arc0"
     id="link150_@0_151"
     x1="149.15967"
     y1="446.11646"
     x2="177.40948"
     y2="380.60358" />
  <line
     class="arc1"
     id="link47_@1_146"
     x1="128.33685"
     y1="270.24069"
     x2="141.58777"
     y2="248.50534" />
  <line
     class="arc1"
     id="link74_@1_73"
     x1="141.16321"
     y1="147.8569"
     x2="151.58649"
     y2="170.93356" />
  <line
     class="arc1"
     id="link55_@1_56"
     x1="282.2915"
     y1="455.60889"
     x2="264.51538"
     y2="417.88214" />
  <line
     class="arc2"
     id="link72_@2_73"
     x1="146.77563"
     y1="183.58954"
     x2="151.58649"
     y2="170.93356" />
  <line
     class="arc3"
     id="link72_@3_49"
     x1="146.77563"
     y1="183.58954"
     x2="147.48846"
     y2="193.74863" />
  <line
     class="arc0"
     id="link72_@0_66"
     x1="146.77563"
     y1="183.58954"
     x2="229.76807"
     y2="186.41037" />
  <line
     class="arc2"
     id="link49_@2_48"
     x1="147.48846"
     y1="193.74863"
     x2="152.94568"
     y2="204.17752" />
  <line
     class="arc0"
     id="link49_@0_54"
     x1="147.48846"
     y1="193.74863"
     x2="228.96655"
     y2="196.48373" />
  <line
     class="arc0"
     id="link69_@0_68"
     x1="216.41278"
     y1="50.98111"
     x2="234.38226"
     y2="152.19482" />
  <line
     class="arc2"
     id="link146_@2_144"
     x1="141.58777"
     y1="248.50534"
     x2="149.15967"
     y2="230.94568" />
  <line
     class="arc0"
     id="link146_@0_147"
     x1="141.58777"
     y1="248.50534"
     x2="169.83759"
     y2="317.21606" />
  <line
     class="arc2"
     id="link4_@2_50"
     x1="228.96655"
     y1="483.6076"
     x2="221.93457"
     y2="476.27966" />
  <line
     class="arc0"
     id="link73_@0_67"
     x1="151.58649"
     y1="170.93356"
     x2="223.60406"
     y2="174.07147" />
  <line
     class="arc1"
     id="link60_@1_66"
     x1="264.58099"
     y1="184.62778"
     x2="229.76807"
     y2="186.41037" />
  <line
     class="arc2"
     id="link60_@2_61"
     x1="264.58099"
     y1="184.62778"
     x2="276.25867"
     y2="171.37527" />
  <line
     class="arc3"
     id="link60_@3_59"
     x1="264.58099"
     y1="184.62778"
     x2="265.67242"
     y2="199.30533" />
  <polygon
     points="734.531,452.8396 762.78094,387.32678 760.1262,359.25583 691.1373,356.28934 687.3513,383.0575 715.60114,451.76816 "
     id="face_145_143_142_53_48_144"
     style="fill:#c0c0c0;stroke:none"
     opacity="1"
     transform="translate(-538.19165,-152.11182)" />
  <line
     class="arc1"
     id="link144_@1_48"
     x1="149.15967"
     y1="230.94568"
     x2="152.94568"
     y2="204.17752" />
  <line
     class="arc0"
     id="link144_@0_145"
     x1="149.15967"
     y1="230.94568"
     x2="177.40948"
     y2="299.65634" />
  <line
     class="arc1"
     id="link59_@1_54"
     x1="265.67242"
     y1="199.30533"
     x2="228.96655"
     y2="196.48373" />
  <line
     class="arc2"
     id="link59_@2_58"
     x1="265.67242"
     y1="199.30533"
     x2="282.2915"
     y2="222.4498" />
  <line
     class="arc1"
     id="link149_@1_147"
     x1="169.83759"
     y1="362.18671"
     x2="169.83759"
     y2="317.21606" />
  <line
     class="arc2"
     id="link149_@2_151"
     x1="169.83759"
     y1="362.18671"
     x2="177.40948"
     y2="380.60358" />
  <line
     class="arc1"
     id="link61_@1_62"
     x1="276.25867"
     y1="171.37527"
     x2="252.22388"
     y2="151.28125" />
  <line
     class="arc0"
     id="link48_@0_53"
     x1="152.94568"
     y1="204.17752"
     x2="221.93457"
     y2="207.14401" />
  <line
     class="arc1"
     id="link151_@1_137"
     x1="177.40948"
     y1="380.60358"
     x2="196.33936"
     y2="381.67505" />
  <line
     class="arc2"
     id="link147_@2_145"
     x1="169.83759"
     y1="317.21606"
     x2="177.40948"
     y2="299.65634" />
  <line
     class="arc1"
     id="link58_@1_57"
     x1="282.2915"
     y1="222.4498"
     x2="264.51538"
     y2="265.67032" />
  <line
     class="arc1"
     id="link145_@1_143"
     x1="177.40948"
     y1="299.65634"
     x2="196.33936"
     y2="300.72778" />
  <line
     class="arc1"
     id="link50_@1_136"
     x1="221.93457"
     y1="476.27966"
     x2="224.58929"
     y2="450.38574" />
  <line
     class="arc2"
     id="link137_@2_139"
     x1="196.33936"
     y1="381.67505"
     x2="203.91132"
     y2="364.1153" />
  <line
     class="arc0"
     id="link137_@0_136"
     x1="196.33936"
     y1="381.67505"
     x2="224.58929"
     y2="450.38574" />
  <line
     class="arc2"
     id="link66_@2_67"
     x1="229.76807"
     y1="186.41037"
     x2="223.60406"
     y2="174.07147" />
  <line
     class="arc3"
     id="link66_@3_54"
     x1="229.76807"
     y1="186.41037"
     x2="228.96655"
     y2="196.48373" />
  <line
     class="arc2"
     id="link54_@2_53"
     x1="228.96655"
     y1="196.48373"
     x2="221.93457"
     y2="207.14401" />
  <line
     class="arc2"
     id="link56_@2_51"
     x1="264.51538"
     y1="417.88214"
     x2="248.43628"
     y2="414.82068" />
  <line
     class="arc0"
     id="link56_@0_57"
     x1="264.51538"
     y1="417.88214"
     x2="264.51538"
     y2="265.67032" />
  <line
     class="arc2"
     id="link62_@2_68"
     x1="252.22388"
     y1="151.28125"
     x2="234.38226"
     y2="152.19482" />
  <polygon
     points="786.6279,566.9325 786.6279,423.71478 770.35284,405.7436 742.10297,471.2564 742.10297,516.2271 770.35284,584.93787 "
     id="face_138_51_52_140_141_139"
     style="fill:#0000ff;stroke:none;fill-opacity:1"
     opacity="1"
     transform="translate(-538.19165,-152.11182)" />
  <line
     class="arc1"
     id="link139_@1_141"
     x1="203.91132"
     y1="364.1153"
     x2="203.91132"
     y2="319.14459" />
  <line
     class="arc0"
     id="link139_@0_138"
     x1="203.91132"
     y1="364.1153"
     x2="232.16119"
     y2="432.82605" />
  <line
     class="arc2"
     id="link143_@2_141"
     x1="196.33936"
     y1="300.72778"
     x2="203.91132"
     y2="319.14459" />
  <line
     class="arc0"
     id="link143_@0_142"
     x1="196.33936"
     y1="300.72778"
     x2="224.58929"
     y2="235.21497" />
  <line
     class="arc0"
     id="link141_@0_140"
     x1="203.91132"
     y1="319.14459"
     x2="232.16119"
     y2="253.63177" />
  <line
     class="arc2"
     id="link136_@2_138"
     x1="224.58929"
     y1="450.38574"
     x2="232.16119"
     y2="432.82605" />
  <line
     class="arc1"
     id="link68_@1_67"
     x1="234.38226"
     y1="152.19482"
     x2="223.60406"
     y2="174.07147" />
  <line
     class="arc2"
     id="link57_@2_52"
     x1="264.51538"
     y1="265.67032"
     x2="248.43628"
     y2="271.60297" />
  <line
     class="arc1"
     id="link138_@1_51"
     x1="232.16119"
     y1="432.82605"
     x2="248.43628"
     y2="414.82068" />
  <line
     class="arc0"
     id="link51_@0_52"
     x1="248.43628"
     y1="414.82068"
     x2="248.43628"
     y2="271.60297" />
  <line
     class="arc1"
     id="link53_@1_142"
     x1="221.93457"
     y1="207.14401"
     x2="224.58929"
     y2="235.21497" />
  <line
     class="arc2"
     id="link142_@2_140"
     x1="224.58929"
     y1="235.21497"
     x2="232.16119"
     y2="253.63177" />
  <line
     class="arc1"
     id="link52_@1_140"
     x1="248.43628"
     y1="271.60297"
     x2="232.16119"
     y2="253.63177" />
</svg>
