<?xml version="1.0" encoding="UTF-8" standalone="no"?>
<!-- Created with Jerboa -->

<svg
	width="1422"
	height="665" >
	<style id="style">
		.arc0 {
			fill:none;
			fill-rule:evenodd;
			stroke:black;
			stroke-width:4;
			stroke-linecap:round;
			stroke-linejoin:round;
			stroke-opacity:1;
		}
		.arc1 {
			fill:none;
			fill-rule:evenodd;
			stroke:red;
			stroke-width:4;
			stroke-linecap:round;
			stroke-linejoin:round;
			stroke-opacity:1;
		}
		.arc2 {
			fill:none;
			fill-rule:evenodd;
			stroke:blue;
			stroke-width:4;
			stroke-linecap:round;
			stroke-linejoin:round;
			stroke-opacity:1;
		}
		.arc3 {
			fill:none;
			fill-rule:evenodd;
			stroke:green;
			stroke-width:4;
			stroke-linecap:round;
			stroke-linejoin:round;
			stroke-opacity:1;
		}
		.topological-dart {
			fill:#000000;
			stroke:#000000;
			stroke-width:0;
			stroke-linecap:round;
			stroke-linejoin:round;
			stroke-dasharray:none;
			paint-order:markers fill stroke;
		}
	</style>
<polygon
	points="726.2316,279.29898 726.2316,99.422485 760.58636,70.78119 923.0013,116.10803 957.356,165.05371 954.236,346.67688 919.8813,375.31815 760.58636,328.2447 "
	id="face_29_30_36_35_34_33_27_28"
	style="fill:rgb(192,192,192);stroke:none"
	opacity="1.0" />
<line
	class="arc1"
	id="link28_@1_27"
	x1="726.2316"
	y1="279.29898"
	x2="760.58636"
	y2="328.2447" />
<line
	class="arc2"
	id="link28_@2_22"
	x1="726.2316"
	y1="279.29898"
	x2="703.9886"
	y2="280.7319" />
<line
	class="arc0"
	id="link28_@0_29"
	x1="726.2316"
	y1="279.29898"
	x2="726.2316"
	y2="99.422485" />
<polygon
	points="703.9886,280.7319 703.9886,100.85541 679.02844,76.03522 563.2939,140.8263 538.33374,193.59314 538.33374,373.4696 563.2939,398.28976 679.02844,333.4987 "
	id="face_23_24_18_17_16_15_21_22"
	style="fill:rgb(192,192,192);stroke:none"
	opacity="1.0" />
<line
	class="arc1"
	id="link22_@1_21"
	x1="703.9886"
	y1="280.7319"
	x2="679.02844"
	y2="333.4987" />
<line
	class="arc0"
	id="link22_@0_23"
	x1="703.9886"
	y1="280.7319"
	x2="703.9886"
	y2="100.85541" />
<line
	class="arc2"
	id="link27_@2_26"
	x1="760.58636"
	y1="328.2447"
	x2="751.2263"
	y2="348.03223" />
<line
	class="arc0"
	id="link27_@0_33"
	x1="760.58636"
	y1="328.2447"
	x2="919.8813"
	y2="375.31815" />
<polygon
	points="751.2263,348.03223 910.52124,395.1057 919.9158,419.2312 804.1812,484.02234 744.86633,487.8434 585.5715,440.76996 576.1769,416.6444 691.91144,351.85333 "
	id="face_32_38_44_50_8_14_20_26"
	style="fill:rgb(192,192,192);stroke:none"
	opacity="1.0" />
<line
	class="arc1"
	id="link26_@1_20"
	x1="751.2263"
	y1="348.03223"
	x2="691.91144"
	y2="351.85333" />
<line
	class="arc3"
	id="link26_@3_0"
	x1="751.2263"
	y1="348.03223"
	x2="744.98627"
	y2="361.22394" />
<line
	class="arc0"
	id="link26_@0_32"
	x1="751.2263"
	y1="348.03223"
	x2="910.52124"
	y2="395.1057" />
<polygon
	points="744.98627,361.22394 904.2812,408.29742 911.3271,426.39154 795.5926,491.18265 751.1064,494.04846 591.8115,446.97498 584.76556,428.88083 700.5001,364.08975 "
	id="face_7_6_5_4_3_2_1_0"
	style="fill:rgb(192,192,192);stroke:none"
	opacity="1.0" />
<line
	class="arc1"
	id="link0_@1_1"
	x1="744.98627"
	y1="361.22394"
	x2="700.5001"
	y2="364.08975" />
<line
	class="arc0"
	id="link0_@0_7"
	x1="744.98627"
	y1="361.22394"
	x2="904.2812"
	y2="408.29742" />
<line
	class="arc2"
	id="link21_@2_20"
	x1="679.02844"
	y1="333.4987"
	x2="691.91144"
	y2="351.85333" />
<line
	class="arc0"
	id="link21_@0_15"
	x1="679.02844"
	y1="333.4987"
	x2="563.2939"
	y2="398.28976" />
<line
	class="arc3"
	id="link20_@3_1"
	x1="691.91144"
	y1="351.85333"
	x2="700.5001"
	y2="364.08975" />
<line
	class="arc0"
	id="link20_@0_14"
	x1="691.91144"
	y1="351.85333"
	x2="576.1769"
	y2="416.6444" />
<line
	class="arc0"
	id="link1_@0_2"
	x1="700.5001"
	y1="364.08975"
	x2="584.76556"
	y2="428.88083" />
<line
	class="arc1"
	id="link29_@1_30"
	x1="726.2316"
	y1="99.422485"
	x2="760.58636"
	y2="70.78119" />
<line
	class="arc2"
	id="link29_@2_23"
	x1="726.2316"
	y1="99.422485"
	x2="703.9886"
	y2="100.85541" />
<line
	class="arc1"
	id="link23_@1_24"
	x1="703.9886"
	y1="100.85541"
	x2="679.02844"
	y2="76.03522" />
<line
	class="arc1"
	id="link33_@1_34"
	x1="919.8813"
	y1="375.31815"
	x2="954.236"
	y2="346.67688" />
<line
	class="arc2"
	id="link33_@2_32"
	x1="919.8813"
	y1="375.31815"
	x2="910.52124"
	y2="395.1057" />
<line
	class="arc1"
	id="link32_@1_38"
	x1="910.52124"
	y1="395.1057"
	x2="919.9158"
	y2="419.2312" />
<line
	class="arc3"
	id="link32_@3_7"
	x1="910.52124"
	y1="395.1057"
	x2="904.2812"
	y2="408.29742" />
<line
	class="arc1"
	id="link7_@1_6"
	x1="904.2812"
	y1="408.29742"
	x2="911.3271"
	y2="426.39154" />
<line
	class="arc2"
	id="link30_@2_31"
	x1="760.58636"
	y1="70.78119"
	x2="752.08514"
	y2="61.727478" />
<line
	class="arc0"
	id="link30_@0_36"
	x1="760.58636"
	y1="70.78119"
	x2="923.0013"
	y2="116.10803" />
<line
	class="arc2"
	id="link24_@2_25"
	x1="679.02844"
	y1="76.03522"
	x2="692.77026"
	y2="65.548584" />
<line
	class="arc0"
	id="link24_@0_18"
	x1="679.02844"
	y1="76.03522"
	x2="563.2939"
	y2="140.8263" />
<polygon
	points="752.08514,61.727478 917.6201,105.30762 939.4948,122.44647 889.4448,155.45984 870.72473,165.93979 786.32,208.19757 739.4852,205.03201 586.43036,154.46518 577.0358,130.33966 692.77026,65.548584 "
	id="face_37_43_58_57_49_55_13_19_25_31"
	style="fill:rgb(192,192,192);stroke:none"
	opacity="1.0" />
<line
	class="arc1"
	id="link31_@1_25"
	x1="752.08514"
	y1="61.727478"
	x2="692.77026"
	y2="65.548584" />
<line
	class="arc0"
	id="link31_@0_37"
	x1="752.08514"
	y1="61.727478"
	x2="917.6201"
	y2="105.30762" />
<line
	class="arc0"
	id="link25_@0_19"
	x1="692.77026"
	y1="65.548584"
	x2="577.0358"
	y2="130.33966" />
<line
	class="arc2"
	id="link34_@2_40"
	x1="954.236"
	y1="346.67688"
	x2="957.759"
	y2="354.75412" />
<line
	class="arc0"
	id="link34_@0_35"
	x1="954.236"
	y1="346.67688"
	x2="957.356"
	y2="165.05371" />
<line
	class="arc3"
	id="link6_@3_38"
	x1="911.3271"
	y1="426.39154"
	x2="919.9158"
	y2="419.2312" />
<line
	class="arc0"
	id="link6_@0_5"
	x1="911.3271"
	y1="426.39154"
	x2="795.5926"
	y2="491.18265" />
<line
	class="arc1"
	id="link15_@1_16"
	x1="563.2939"
	y1="398.28976"
	x2="538.33374"
	y2="373.4696" />
<line
	class="arc2"
	id="link15_@2_14"
	x1="563.2939"
	y1="398.28976"
	x2="576.1769"
	y2="416.6444" />
<line
	class="arc1"
	id="link14_@1_8"
	x1="576.1769"
	y1="416.6444"
	x2="585.5715"
	y2="440.76996" />
<line
	class="arc3"
	id="link14_@3_2"
	x1="576.1769"
	y1="416.6444"
	x2="584.76556"
	y2="428.88083" />
<line
	class="arc1"
	id="link2_@1_3"
	x1="584.76556"
	y1="428.88083"
	x2="591.8115"
	y2="446.97498" />
<line
	class="arc2"
	id="link38_@2_39"
	x1="919.9158"
	y1="419.2312"
	x2="932.7988"
	y2="407.5209" />
<line
	class="arc0"
	id="link38_@0_44"
	x1="919.9158"
	y1="419.2312"
	x2="804.1812"
	y2="484.02234" />
<polygon
	points="957.759,354.75412 963.999,171.38428 951.5189,139.5774 892.88025,160.35425 874.16003,170.83426 798.3441,225.32846 785.864,271.10864 792.10406,447.49182 817.0642,472.31198 932.7988,407.5209 "
	id="face_41_42_59_56_48_47_46_45_39_40"
	style="fill:rgb(192,192,192);stroke:none"
	opacity="1.0" />
<line
	class="arc1"
	id="link40_@1_39"
	x1="957.759"
	y1="354.75412"
	x2="932.7988"
	y2="407.5209" />
<line
	class="arc0"
	id="link40_@0_41"
	x1="957.759"
	y1="354.75412"
	x2="963.999"
	y2="171.38428" />
<line
	class="arc0"
	id="link39_@0_45"
	x1="932.7988"
	y1="407.5209"
	x2="817.0642"
	y2="472.31198" />
<line
	class="arc3"
	id="link3_@3_8"
	x1="591.8115"
	y1="446.97498"
	x2="585.5715"
	y2="440.76996" />
<line
	class="arc0"
	id="link3_@0_4"
	x1="591.8115"
	y1="446.97498"
	x2="751.1064"
	y2="494.04846" />
<line
	class="arc2"
	id="link16_@2_10"
	x1="538.33374"
	y1="373.4696"
	x2="541.85675"
	y2="382.51666" />
<line
	class="arc0"
	id="link16_@0_17"
	x1="538.33374"
	y1="373.4696"
	x2="538.33374"
	y2="193.59314" />
<line
	class="arc2"
	id="link8_@2_9"
	x1="585.5715"
	y1="440.76996"
	x2="576.2114"
	y2="431.46234" />
<line
	class="arc0"
	id="link8_@0_50"
	x1="585.5715"
	y1="440.76996"
	x2="744.86633"
	y2="487.8434" />
<line
	class="arc1"
	id="link36_@1_35"
	x1="923.0013"
	y1="116.10803"
	x2="957.356"
	y2="165.05371" />
<line
	class="arc2"
	id="link36_@2_37"
	x1="923.0013"
	y1="116.10803"
	x2="917.6201"
	y2="105.30762" />
<line
	class="arc2"
	id="link35_@2_41"
	x1="957.356"
	y1="165.05371"
	x2="963.999"
	y2="171.38428" />
<polygon
	points="541.85675,382.51666 541.85675,202.64017 576.2114,173.9989 732.3862,222.81906 766.74097,271.76477 769.8611,449.89453 735.50635,478.53583 576.2114,431.46234 "
	id="face_11_12_54_53_52_51_9_10"
	style="fill:rgb(192,192,192);stroke:none"
	opacity="1.0" />
<line
	class="arc1"
	id="link10_@1_9"
	x1="541.85675"
	y1="382.51666"
	x2="576.2114"
	y2="431.46234" />
<line
	class="arc0"
	id="link10_@0_11"
	x1="541.85675"
	y1="382.51666"
	x2="541.85675"
	y2="202.64017" />
<line
	class="arc1"
	id="link37_@1_43"
	x1="917.6201"
	y1="105.30762"
	x2="939.4948"
	y2="122.44647" />
<line
	class="arc0"
	id="link9_@0_51"
	x1="576.2114"
	y1="431.46234"
	x2="735.50635"
	y2="478.53583" />
<line
	class="arc1"
	id="link41_@1_42"
	x1="963.999"
	y1="171.38428"
	x2="951.5189"
	y2="139.5774" />
<line
	class="arc2"
	id="link43_@2_42"
	x1="939.4948"
	y1="122.44647"
	x2="951.5189"
	y2="139.5774" />
<line
	class="arc0"
	id="link43_@0_58"
	x1="939.4948"
	y1="122.44647"
	x2="889.4448"
	y2="155.45984" />
<line
	class="arc1"
	id="link18_@1_17"
	x1="563.2939"
	y1="140.8263"
	x2="538.33374"
	y2="193.59314" />
<line
	class="arc2"
	id="link18_@2_19"
	x1="563.2939"
	y1="140.8263"
	x2="577.0358"
	y2="130.33966" />
<line
	class="arc0"
	id="link42_@0_59"
	x1="951.5189"
	y1="139.5774"
	x2="892.88025"
	y2="160.35425" />
<line
	class="arc2"
	id="link17_@2_11"
	x1="538.33374"
	y1="193.59314"
	x2="541.85675"
	y2="202.64017" />
<line
	class="arc1"
	id="link19_@1_13"
	x1="577.0358"
	y1="130.33966"
	x2="586.43036"
	y2="154.46518" />
<line
	class="arc1"
	id="link5_@1_4"
	x1="795.5926"
	y1="491.18265"
	x2="751.1064"
	y2="494.04846" />
<line
	class="arc3"
	id="link5_@3_44"
	x1="795.5926"
	y1="491.18265"
	x2="804.1812"
	y2="484.02234" />
<line
	class="arc3"
	id="link4_@3_50"
	x1="751.1064"
	y1="494.04846"
	x2="744.86633"
	y2="487.8434" />
<line
	class="arc1"
	id="link11_@1_12"
	x1="541.85675"
	y1="202.64017"
	x2="576.2114"
	y2="173.9989" />
<line
	class="arc1"
	id="link44_@1_50"
	x1="804.1812"
	y1="484.02234"
	x2="744.86633"
	y2="487.8434" />
<line
	class="arc2"
	id="link44_@2_45"
	x1="804.1812"
	y1="484.02234"
	x2="817.0642"
	y2="472.31198" />
<line
	class="arc2"
	id="link50_@2_51"
	x1="744.86633"
	y1="487.8434"
	x2="735.50635"
	y2="478.53583" />
<line
	class="arc1"
	id="link45_@1_46"
	x1="817.0642"
	y1="472.31198"
	x2="792.10406"
	y2="447.49182" />
<line
	class="arc1"
	id="link51_@1_52"
	x1="735.50635"
	y1="478.53583"
	x2="769.8611"
	y2="449.89453" />
<line
	class="arc2"
	id="link13_@2_12"
	x1="586.43036"
	y1="154.46518"
	x2="576.2114"
	y2="173.9989" />
<line
	class="arc0"
	id="link13_@0_55"
	x1="586.43036"
	y1="154.46518"
	x2="739.4852"
	y2="205.03201" />
<line
	class="arc0"
	id="link12_@0_54"
	x1="576.2114"
	y1="173.9989"
	x2="732.3862"
	y2="222.81906" />
<line
	class="arc1"
	id="link58_@1_57"
	x1="889.4448"
	y1="155.45984"
	x2="870.72473"
	y2="165.93979" />
<line
	class="arc2"
	id="link58_@2_59"
	x1="889.4448"
	y1="155.45984"
	x2="892.88025"
	y2="160.35425" />
<line
	class="arc1"
	id="link59_@1_56"
	x1="892.88025"
	y1="160.35425"
	x2="874.16003"
	y2="170.83426" />
<line
	class="arc2"
	id="link46_@2_52"
	x1="792.10406"
	y1="447.49182"
	x2="769.8611"
	y2="449.89453" />
<line
	class="arc0"
	id="link46_@0_47"
	x1="792.10406"
	y1="447.49182"
	x2="785.864"
	y2="271.10864" />
<line
	class="arc0"
	id="link52_@0_53"
	x1="769.8611"
	y1="449.89453"
	x2="766.74097"
	y2="271.76477" />
<line
	class="arc2"
	id="link57_@2_56"
	x1="870.72473"
	y1="165.93979"
	x2="874.16003"
	y2="170.83426" />
<line
	class="arc0"
	id="link57_@0_49"
	x1="870.72473"
	y1="165.93979"
	x2="786.32"
	y2="208.19757" />
<line
	class="arc0"
	id="link56_@0_48"
	x1="874.16003"
	y1="170.83426"
	x2="798.3441"
	y2="225.32846" />
<line
	class="arc1"
	id="link55_@1_49"
	x1="739.4852"
	y1="205.03201"
	x2="786.32"
	y2="208.19757" />
<line
	class="arc2"
	id="link55_@2_54"
	x1="739.4852"
	y1="205.03201"
	x2="732.3862"
	y2="222.81906" />
<line
	class="arc1"
	id="link54_@1_53"
	x1="732.3862"
	y1="222.81906"
	x2="766.74097"
	y2="271.76477" />
<line
	class="arc2"
	id="link53_@2_47"
	x1="766.74097"
	y1="271.76477"
	x2="785.864"
	y2="271.10864" />
<line
	class="arc1"
	id="link47_@1_48"
	x1="785.864"
	y1="271.10864"
	x2="798.3441"
	y2="225.32846" />
<line
	class="arc2"
	id="link49_@2_48"
	x1="786.32"
	y1="208.19757"
	x2="798.3441"
	y2="225.32846" />
</svg>
