<?xml version="1.0" encoding="UTF-8" standalone="no"?>
<!-- Created with Jerboa -->

<svg
	width="1422"
	height="665" >
	<style id="style">
		.arc0 {
			fill:none;
			fill-rule:evenodd;
			stroke:black;
			stroke-width:4;
			stroke-linecap:round;
			stroke-linejoin:round;
			stroke-opacity:1;
		}
		.arc1 {
			fill:none;
			fill-rule:evenodd;
			stroke:red;
			stroke-width:4;
			stroke-linecap:round;
			stroke-linejoin:round;
			stroke-opacity:1;
		}
		.arc2 {
			fill:none;
			fill-rule:evenodd;
			stroke:blue;
			stroke-width:4;
			stroke-linecap:round;
			stroke-linejoin:round;
			stroke-opacity:1;
		}
		.arc3 {
			fill:none;
			fill-rule:evenodd;
			stroke:green;
			stroke-width:4;
			stroke-linecap:round;
			stroke-linejoin:round;
			stroke-opacity:1;
		}
		.topological-dart {
			fill:#000000;
			stroke:#000000;
			stroke-width:0;
			stroke-linecap:round;
			stroke-linejoin:round;
			stroke-dasharray:none;
			paint-order:markers fill stroke;
		}
	</style>
<polygon
	points="711.0,332.4999 981.94763,412.56805 981.94763,412.56805 785.09265,522.77246 785.09265,522.77246 514.145,442.70428 514.145,442.70428 711.0,332.4999 "
	id="face_7_6_5_4_3_2_1_0"
	style="fill:rgb(192,192,192);stroke:none"
	opacity="1.0" />
<line
	class="arc0"
	id="link0_@0_7"
	x1="711.0"
	y1="332.4999"
	x2="981.94763"
	y2="412.56805" />
<line
	class="arc0"
	id="link1_@0_2"
	x1="711.0"
	y1="332.4999"
	x2="514.145"
	y2="442.70428" />
<polygon
	points="711.0,332.4999 514.145,442.70428 514.145,442.70428 785.09265,522.77246 785.09265,522.77246 981.94763,412.56805 981.94763,412.56805 711.0,332.4999 "
	id="face_14_8_50_44_38_32_26_20"
	style="fill:rgb(192,192,192);stroke:none"
	opacity="1.0" />
<line
	class="arc0"
	id="link20_@0_14"
	x1="711.0"
	y1="332.4999"
	x2="514.145"
	y2="442.70428" />
<polygon
	points="711.0,332.4999 514.145,442.70428 514.145,442.70428 514.145,136.74902 514.145,136.74902 711.0,26.544617 711.0,26.544617 711.0,332.4999 "
	id="face_15_16_17_18_24_23_22_21"
	style="fill:rgb(192,192,192);stroke:none"
	opacity="1.0" />
<line
	class="arc0"
	id="link21_@0_15"
	x1="711.0"
	y1="332.4999"
	x2="514.145"
	y2="442.70428" />
<line
	class="arc0"
	id="link22_@0_23"
	x1="711.0"
	y1="332.4999"
	x2="711.0"
	y2="26.544617" />
<line
	class="arc0"
	id="link26_@0_32"
	x1="711.0"
	y1="332.4999"
	x2="981.94763"
	y2="412.56805" />
<polygon
	points="711.0,332.4999 981.94763,412.56805 981.94763,412.56805 981.94763,106.612854 981.94763,106.612854 711.0,26.544617 711.0,26.544617 711.0,332.4999 "
	id="face_33_34_35_36_30_29_28_27"
	style="fill:rgb(192,192,192);stroke:none"
	opacity="1.0" />
<line
	class="arc0"
	id="link27_@0_33"
	x1="711.0"
	y1="332.4999"
	x2="981.94763"
	y2="412.56805" />
<line
	class="arc0"
	id="link28_@0_29"
	x1="711.0"
	y1="332.4999"
	x2="711.0"
	y2="26.544617" />
<line
	class="arc0"
	id="link24_@0_18"
	x1="711.0"
	y1="26.544617"
	x2="514.145"
	y2="136.74902" />
<polygon
	points="711.0,26.544617 514.145,136.74902 514.145,136.74902 785.09265,216.81717 785.09265,216.81717 883.5202,161.715 883.5202,161.715 981.94763,106.612854 981.94763,106.612854 711.0,26.544617 "
	id="face_19_13_55_49_57_58_43_37_31_25"
	style="fill:rgb(192,192,192);stroke:none"
	opacity="1.0" />
<line
	class="arc0"
	id="link25_@0_19"
	x1="711.0"
	y1="26.544617"
	x2="514.145"
	y2="136.74902" />
<line
	class="arc0"
	id="link30_@0_36"
	x1="711.0"
	y1="26.544617"
	x2="981.94763"
	y2="106.612854" />
<line
	class="arc0"
	id="link31_@0_37"
	x1="711.0"
	y1="26.544617"
	x2="981.94763"
	y2="106.612854" />
<line
	class="arc0"
	id="link6_@0_5"
	x1="981.94763"
	y1="412.56805"
	x2="785.09265"
	y2="522.77246" />
<line
	class="arc0"
	id="link34_@0_35"
	x1="981.94763"
	y1="412.56805"
	x2="981.94763"
	y2="106.612854" />
<line
	class="arc0"
	id="link38_@0_44"
	x1="981.94763"
	y1="412.56805"
	x2="785.09265"
	y2="522.77246" />
<polygon
	points="981.94763,412.56805 785.09265,522.77246 785.09265,522.77246 785.09265,216.81717 785.09265,216.81717 883.5202,161.715 883.5202,161.715 981.94763,106.612854 981.94763,106.612854 981.94763,412.56805 "
	id="face_45_46_47_48_56_59_42_41_40_39"
	style="fill:rgb(192,192,192);stroke:none"
	opacity="1.0" />
<line
	class="arc0"
	id="link39_@0_45"
	x1="981.94763"
	y1="412.56805"
	x2="785.09265"
	y2="522.77246" />
<line
	class="arc0"
	id="link40_@0_41"
	x1="981.94763"
	y1="412.56805"
	x2="981.94763"
	y2="106.612854" />
<line
	class="arc0"
	id="link3_@0_4"
	x1="514.145"
	y1="442.70428"
	x2="785.09265"
	y2="522.77246" />
<line
	class="arc0"
	id="link8_@0_50"
	x1="514.145"
	y1="442.70428"
	x2="785.09265"
	y2="522.77246" />
<polygon
	points="514.145,442.70428 785.09265,522.77246 785.09265,522.77246 785.09265,216.81717 785.09265,216.81717 514.145,136.74902 514.145,136.74902 514.145,442.70428 "
	id="face_51_52_53_54_12_11_10_9"
	style="fill:rgb(192,192,192);stroke:none"
	opacity="1.0" />
<line
	class="arc0"
	id="link9_@0_51"
	x1="514.145"
	y1="442.70428"
	x2="785.09265"
	y2="522.77246" />
<line
	class="arc0"
	id="link10_@0_11"
	x1="514.145"
	y1="442.70428"
	x2="514.145"
	y2="136.74902" />
<line
	class="arc0"
	id="link16_@0_17"
	x1="514.145"
	y1="442.70428"
	x2="514.145"
	y2="136.74902" />
<line
	class="arc0"
	id="link42_@0_59"
	x1="981.94763"
	y1="106.612854"
	x2="883.5202"
	y2="161.715" />
<line
	class="arc0"
	id="link43_@0_58"
	x1="981.94763"
	y1="106.612854"
	x2="883.5202"
	y2="161.715" />
<line
	class="arc0"
	id="link12_@0_54"
	x1="514.145"
	y1="136.74902"
	x2="785.09265"
	y2="216.81717" />
<line
	class="arc0"
	id="link13_@0_55"
	x1="514.145"
	y1="136.74902"
	x2="785.09265"
	y2="216.81717" />
<line
	class="arc0"
	id="link46_@0_47"
	x1="785.09265"
	y1="522.77246"
	x2="785.09265"
	y2="216.81717" />
<line
	class="arc0"
	id="link52_@0_53"
	x1="785.09265"
	y1="522.77246"
	x2="785.09265"
	y2="216.81717" />
<line
	class="arc0"
	id="link56_@0_48"
	x1="883.5202"
	y1="161.715"
	x2="785.09265"
	y2="216.81717" />
	<circle
		class="topological-dart"
		id="dart56"
		cx="883.5202"
		cy="161.715"
		r="10"
		fill="rgb(0,0,0)" />
<line
	class="arc0"
	id="link57_@0_49"
	x1="883.5202"
	y1="161.715"
	x2="785.09265"
	y2="216.81717" />
</svg>
