<?xml version="1.0" encoding="UTF-8" standalone="no"?>
<!-- Created with Inkscape (http://www.inkscape.org/) -->

<svg
   version="1.1"
   id="svg2045"
   width="233.33333"
   height="948"
   viewBox="0 0 233.33333 947.99996"
   sodipodi:docname="hr-rejeu-ajout-4-export.svg"
   inkscape:version="1.2.2 (b0a8486541, 2022-12-01)"
   xmlns:inkscape="http://www.inkscape.org/namespaces/inkscape"
   xmlns:sodipodi="http://sodipodi.sourceforge.net/DTD/sodipodi-0.dtd"
   xmlns="http://www.w3.org/2000/svg"
   xmlns:svg="http://www.w3.org/2000/svg">
  <defs
     id="defs2049" />
  <sodipodi:namedview
     id="namedview2047"
     pagecolor="#ffffff"
     bordercolor="#000000"
     borderopacity="0.25"
     inkscape:showpageshadow="2"
     inkscape:pageopacity="0.0"
     inkscape:pagecheckerboard="0"
     inkscape:deskcolor="#d1d1d1"
     showgrid="false"
     inkscape:zoom="0.80490065"
     inkscape:cx="116.7846"
     inkscape:cy="473.97154"
     inkscape:window-width="1908"
     inkscape:window-height="1048"
     inkscape:window-x="1085"
     inkscape:window-y="25"
     inkscape:window-maximized="1"
     inkscape:current-layer="g2053">
    <inkscape:page
       x="0"
       y="0"
       id="page2051"
       width="233.33333"
       height="947.99994" />
  </sodipodi:namedview>
  <g
     id="g2053"
     inkscape:groupmode="layer"
     inkscape:label="Page 1"
     transform="matrix(1.3333333,0,0,1.3333333,-63.333332,-63.333332)">
    <g
       id="g2055">
      <path
         d="m 61,101 c 0,0 148,0 148,0 6,0 12,-6 12,-12 0,0 0,-29 0,-29 0,-6 -6,-12 -12,-12 0,0 -148,0 -148,0 -6,0 -12,6 -12,12 0,0 0,29 0,29 0,6 6,12 12,12"
         style="fill:none;stroke:#000000;stroke-width:1;stroke-linecap:butt;stroke-linejoin:miter;stroke-miterlimit:10;stroke-dasharray:none;stroke-opacity:1"
         id="path2057" />
      <path
         d="m 61,121 h 148 v 53 H 61 Z"
         style="fill:none;stroke:#000000;stroke-width:1;stroke-linecap:butt;stroke-linejoin:miter;stroke-miterlimit:10;stroke-dasharray:none;stroke-opacity:1"
         id="path2059" />
      <path
         d="m 61,247 c 0,0 148,0 148,0 6,0 12,-6 12,-12 0,0 0,-29 0,-29 0,-6 -6,-12 -12,-12 0,0 -148,0 -148,0 -6,0 -12,6 -12,12 0,0 0,29 0,29 0,6 6,12 12,12"
         style="fill:none;stroke:#000000;stroke-width:1;stroke-linecap:butt;stroke-linejoin:miter;stroke-miterlimit:10;stroke-dasharray:none;stroke-opacity:1"
         id="path2061" />
      <path
         d="m 61,267 h 148 v 53 H 61 Z"
         style="fill:none;stroke:#000000;stroke-width:1;stroke-linecap:butt;stroke-linejoin:miter;stroke-miterlimit:10;stroke-dasharray:none;stroke-opacity:1"
         id="path2063" />
      <path
         d="m 60,393 c 0,0 150,0 150,0 6,0 12,-6 12,-12 0,0 0,-29 0,-29 0,-6 -6,-12 -12,-12 0,0 -150,0 -150,0 -6,0 -12,6 -12,12 0,0 0,29 0,29 0,6 6,12 12,12"
         style="fill:none;stroke:#000000;stroke-width:1;stroke-linecap:butt;stroke-linejoin:miter;stroke-miterlimit:10;stroke-dasharray:none;stroke-opacity:1"
         id="path2065" />
      <path
         d="m 61,413 h 148 v 53 H 61 Z"
         style="fill:none;stroke:#000000;stroke-width:1;stroke-linecap:butt;stroke-linejoin:miter;stroke-miterlimit:10;stroke-dasharray:none;stroke-opacity:1"
         id="path2067" />
      <path
         d="m 61,539 c 0,0 148,0 148,0 6,0 12,-6 12,-12 0,0 0,-29 0,-29 0,-6 -6,-12 -12,-12 0,0 -148,0 -148,0 -6,0 -12,6 -12,12 0,0 0,29 0,29 0,6 6,12 12,12"
         style="fill:none;stroke:#000000;stroke-width:1;stroke-linecap:butt;stroke-linejoin:miter;stroke-miterlimit:10;stroke-dasharray:none;stroke-opacity:1"
         id="path2069" />
      <path
         d="m 54,559 h 162 v 53 H 54 Z"
         style="fill:none;stroke:#000000;stroke-width:1;stroke-linecap:butt;stroke-linejoin:miter;stroke-miterlimit:10;stroke-dasharray:none;stroke-opacity:1"
         id="path2071" />
      <path
         d="m 60,685 c 0,0 150,0 150,0 6,0 12,-6 12,-12 0,0 0,-29 0,-29 0,-6 -6,-12 -12,-12 0,0 -150,0 -150,0 -6,0 -12,6 -12,12 0,0 0,29 0,29 0,6 6,12 12,12"
         style="fill:none;stroke:#000000;stroke-width:1;stroke-linecap:butt;stroke-linejoin:miter;stroke-miterlimit:10;stroke-dasharray:none;stroke-opacity:1"
         id="path2073" />
      <path
         d="m 54,705 h 162 v 53 H 54 Z"
         style="fill:none;stroke:#000000;stroke-width:1;stroke-linecap:butt;stroke-linejoin:miter;stroke-miterlimit:10;stroke-dasharray:none;stroke-opacity:1"
         id="path2075" />
      <path
         d="m 141.5,92.5 c 0,0 59,0 59,0 6,0 12,-6 12,-12 0,0 0,-12 0,-12 0,-6 -6,-12 -12,-12 0,0 -59,0 -59,0 -6,0 -12,6 -12,12 0,0 0,12 0,12 0,6 6,12 12,12"
         style="fill:none;stroke:#000000;stroke-width:1;stroke-linecap:butt;stroke-linejoin:miter;stroke-miterlimit:10;stroke-dasharray:none;stroke-opacity:1"
         id="path2077" />
      <text
         xml:space="preserve"
         transform="translate(137.5,78.199219)"
         style="font-variant:normal;font-weight:normal;font-size:14.0002px;font-family:'Liberation Serif';-inkscape-font-specification:LiberationSerif;writing-mode:lr-tb;fill:#000000;fill-opacity:1;fill-rule:nonzero;stroke:none"
         id="text2081"><tspan
           x="0 9.0020475 18.004095 26.247997 34.49649 42.754395 47.248581 56.995102"
           y="0"
           sodipodi:role="line"
           id="tspan2079">CREATION</tspan></text>
      <path
         d="m 141,129.5 h 60 v 36 h -60 z"
         style="fill:none;stroke:#000000;stroke-width:1;stroke-linecap:butt;stroke-linejoin:miter;stroke-miterlimit:10;stroke-dasharray:none;stroke-opacity:1"
         id="path2083" />
      <text
         xml:space="preserve"
         transform="translate(149,151.19922)"
         style="font-variant:normal;font-weight:normal;font-size:14.0002px;font-family:'Liberation Serif';-inkscape-font-specification:LiberationSerif;writing-mode:lr-tb;fill:#000000;fill-opacity:1;fill-rule:nonzero;stroke:none"
         id="text2087"><tspan
           x="0 4.4941878 9.0023756 13.496563 18.004751 24.752869 28.504934 32.257 39.005116"
           y="0"
           sodipodi:role="line"
           id="tspan2085">[]·[0, 1]</tspan></text>
      <path
         d="m 171,92.688 c 0,8.023 0,17.765 0,26.742"
         style="fill:none;stroke:#ff0000;stroke-width:1;stroke-linecap:butt;stroke-linejoin:miter;stroke-miterlimit:10;stroke-dasharray:none;stroke-opacity:1"
         id="path2089" />
      <path
         d="m 174.5,119.473 -3.5,10 -3.5,-10 z"
         style="fill:#ff0000;fill-opacity:1;fill-rule:nonzero;stroke:#ff0000;stroke-width:1;stroke-linecap:butt;stroke-linejoin:miter;stroke-miterlimit:10;stroke-dasharray:none;stroke-opacity:1"
         id="path2091" />
      <path
         d="m 141.5,238.5 c 0,0 59,0 59,0 6,0 12,-6 12,-12 0,0 0,-12 0,-12 0,-6 -6,-12 -12,-12 0,0 -59,0 -59,0 -6,0 -12,6 -12,12 0,0 0,12 0,12 0,6 6,12 12,12"
         style="fill:none;stroke:#000000;stroke-width:1;stroke-linecap:butt;stroke-linejoin:miter;stroke-miterlimit:10;stroke-dasharray:none;stroke-opacity:1"
         id="path2093" />
      <text
         xml:space="preserve"
         transform="translate(137.5,224.19922)"
         style="font-variant:normal;font-weight:normal;font-size:14.0002px;font-family:'Liberation Serif';-inkscape-font-specification:LiberationSerif;writing-mode:lr-tb;fill:#000000;fill-opacity:1;fill-rule:nonzero;stroke:none"
         id="text2097"><tspan
           x="0 9.0020475 18.004095 26.247997 34.49649 42.754395 47.248581 56.995102"
           y="0"
           sodipodi:role="line"
           id="tspan2095">CREATION</tspan></text>
      <path
         d="m 171,165.688 c 0,8.023 0,17.765 0,26.742"
         style="fill:none;stroke:#ff0000;stroke-width:1;stroke-linecap:butt;stroke-linejoin:miter;stroke-miterlimit:10;stroke-dasharray:none;stroke-opacity:1"
         id="path2099" />
      <path
         d="m 174.5,192.473 -3.5,10 -3.5,-10 z"
         style="fill:#ff0000;fill-opacity:1;fill-rule:nonzero;stroke:#ff0000;stroke-width:1;stroke-linecap:butt;stroke-linejoin:miter;stroke-miterlimit:10;stroke-dasharray:none;stroke-opacity:1"
         id="path2101" />
      <path
         d="m 69,92.5 c 0,0 30,0 30,0 6,0 12,-6 12,-12 0,0 0,-12 0,-12 0,-6 -6,-12 -12,-12 0,0 -30,0 -30,0 -6,0 -12,6 -12,12 0,0 0,12 0,12 0,6 6,12 12,12"
         style="fill:#d3d3d3;fill-opacity:1;fill-rule:nonzero;stroke:#d3d3d3;stroke-width:1;stroke-linecap:butt;stroke-linejoin:miter;stroke-miterlimit:10;stroke-dasharray:none;stroke-opacity:1"
         id="path2103" />
      <text
         xml:space="preserve"
         transform="translate(80.5,78.199219)"
         style="font-variant:normal;font-weight:normal;font-size:14.0002px;font-family:'Liberation Serif';-inkscape-font-specification:LiberationSerif;writing-mode:lr-tb;fill:#000000;fill-opacity:1;fill-rule:nonzero;stroke:none"
         id="text2107"><tspan
           x="0"
           y="0"
           id="tspan2105">1</tspan></text>
      <path
         d="m 141,275.5 h 60 v 36 h -60 z"
         style="fill:none;stroke:#000000;stroke-width:1;stroke-linecap:butt;stroke-linejoin:miter;stroke-miterlimit:10;stroke-dasharray:none;stroke-opacity:1"
         id="path2109" />
      <text
         xml:space="preserve"
         transform="translate(149,297.19922)"
         style="font-variant:normal;font-weight:normal;font-size:14.0002px;font-family:'Liberation Serif';-inkscape-font-specification:LiberationSerif;writing-mode:lr-tb;fill:#000000;fill-opacity:1;fill-rule:nonzero;stroke:none"
         id="text2113"><tspan
           x="0 4.4941878 9.0023756 13.496563 18.004751 24.752869 28.504934 32.257 39.005116"
           y="0"
           sodipodi:role="line"
           id="tspan2111">[]·[0, 1]</tspan></text>
      <path
         d="m 171,238.688 c 0,8.023 0,17.765 0,26.742"
         style="fill:none;stroke:#ff0000;stroke-width:1;stroke-linecap:butt;stroke-linejoin:miter;stroke-miterlimit:10;stroke-dasharray:none;stroke-opacity:1"
         id="path2115" />
      <path
         d="m 174.5,265.473 -3.5,10 -3.5,-10 z"
         style="fill:#ff0000;fill-opacity:1;fill-rule:nonzero;stroke:#ff0000;stroke-width:1;stroke-linecap:butt;stroke-linejoin:miter;stroke-miterlimit:10;stroke-dasharray:none;stroke-opacity:1"
         id="path2117" />
      <path
         d="m 69,129.5 h 54 v 36 H 69 Z"
         style="fill:#add8e6;fill-opacity:1;fill-rule:nonzero;stroke:#add8e6;stroke-width:1;stroke-linecap:butt;stroke-linejoin:miter;stroke-miterlimit:10;stroke-dasharray:none;stroke-opacity:1"
         id="path2119" />
      <text
         xml:space="preserve"
         transform="translate(89,151.19922)"
         style="font-variant:normal;font-weight:normal;font-size:14.0002px;font-family:'Liberation Serif';-inkscape-font-specification:LiberationSerif;writing-mode:lr-tb;fill:#000000;fill-opacity:1;fill-rule:nonzero;stroke:none"
         id="text2123"><tspan
           x="0 6.7481174"
           y="0"
           sodipodi:role="line"
           id="tspan2121">n4</tspan></text>
      <path
         d="m 140.5,384.5 c 0,0 61,0 61,0 6,0 12,-6 12,-12 0,0 0,-12 0,-12 0,-6 -6,-12 -12,-12 0,0 -61,0 -61,0 -6,0 -12,6 -12,12 0,0 0,12 0,12 0,6 6,12 12,12"
         style="fill:none;stroke:#000000;stroke-width:1;stroke-linecap:butt;stroke-linejoin:miter;stroke-miterlimit:10;stroke-dasharray:none;stroke-opacity:1"
         id="path2125" />
      <text
         xml:space="preserve"
         transform="translate(136.5,370.19922)"
         style="font-variant:normal;font-weight:normal;font-size:14.0002px;font-family:'Liberation Serif';-inkscape-font-specification:LiberationSerif;writing-mode:lr-tb;fill:#000000;fill-opacity:1;fill-rule:nonzero;stroke:none"
         id="text2129"><tspan
           x="0 9.746521 19.493042 27.750944 35.24321 42.74947 50.993374 59.995422"
           y="0"
           sodipodi:role="line"
           id="tspan2127">NOEFFECT</tspan></text>
      <path
         d="m 171,311.688 c 0,8.023 0,17.765 0,26.742"
         style="fill:none;stroke:#000000;stroke-width:1;stroke-linecap:butt;stroke-linejoin:miter;stroke-miterlimit:10;stroke-dasharray:none;stroke-opacity:1"
         id="path2131" />
      <path
         d="m 174.5,338.473 -3.5,10 -3.5,-10 z"
         style="fill:#000000;fill-opacity:1;fill-rule:nonzero;stroke:#000000;stroke-width:1;stroke-linecap:butt;stroke-linejoin:miter;stroke-miterlimit:10;stroke-dasharray:none;stroke-opacity:1"
         id="path2133" />
      <path
         d="m 69,238.5 c 0,0 30,0 30,0 6,0 12,-6 12,-12 0,0 0,-12 0,-12 0,-6 -6,-12 -12,-12 0,0 -30,0 -30,0 -6,0 -12,6 -12,12 0,0 0,12 0,12 0,6 6,12 12,12"
         style="fill:#d3d3d3;fill-opacity:1;fill-rule:nonzero;stroke:#d3d3d3;stroke-width:1;stroke-linecap:butt;stroke-linejoin:miter;stroke-miterlimit:10;stroke-dasharray:none;stroke-opacity:1"
         id="path2135" />
      <text
         xml:space="preserve"
         transform="translate(80.5,224.19922)"
         style="font-variant:normal;font-weight:normal;font-size:14.0002px;font-family:'Liberation Serif';-inkscape-font-specification:LiberationSerif;writing-mode:lr-tb;fill:#000000;fill-opacity:1;fill-rule:nonzero;stroke:none"
         id="text2139"><tspan
           x="0"
           y="0"
           id="tspan2137">2</tspan></text>
      <path
         d="m 141,421.5 h 60 v 36 h -60 z"
         style="fill:none;stroke:#000000;stroke-width:1;stroke-linecap:butt;stroke-linejoin:miter;stroke-miterlimit:10;stroke-dasharray:none;stroke-opacity:1"
         id="path2141" />
      <text
         xml:space="preserve"
         transform="translate(149,443.19922)"
         style="font-variant:normal;font-weight:normal;font-size:14.0002px;font-family:'Liberation Serif';-inkscape-font-specification:LiberationSerif;writing-mode:lr-tb;fill:#000000;fill-opacity:1;fill-rule:nonzero;stroke:none"
         id="text2145"><tspan
           x="0 4.4941878 9.0023756 13.496563 18.004751 24.752869 28.504934 32.257 39.005116"
           y="0"
           sodipodi:role="line"
           id="tspan2143">[]·[0, 1]</tspan></text>
      <path
         d="m 171,384.688 c 0,8.023 0,17.765 0,26.742"
         style="fill:none;stroke:#000000;stroke-width:1;stroke-linecap:butt;stroke-linejoin:miter;stroke-miterlimit:10;stroke-dasharray:none;stroke-opacity:1"
         id="path2147" />
      <path
         d="m 174.5,411.473 -3.5,10 -3.5,-10 z"
         style="fill:#000000;fill-opacity:1;fill-rule:nonzero;stroke:#000000;stroke-width:1;stroke-linecap:butt;stroke-linejoin:miter;stroke-miterlimit:10;stroke-dasharray:none;stroke-opacity:1"
         id="path2149" />
      <path
         d="m 69,275.5 h 54 v 36 H 69 Z"
         style="fill:#add8e6;fill-opacity:1;fill-rule:nonzero;stroke:#add8e6;stroke-width:1;stroke-linecap:butt;stroke-linejoin:miter;stroke-miterlimit:10;stroke-dasharray:none;stroke-opacity:1"
         id="path2151" />
      <text
         xml:space="preserve"
         transform="translate(89,297.19922)"
         style="font-variant:normal;font-weight:normal;font-size:14.0002px;font-family:'Liberation Serif';-inkscape-font-specification:LiberationSerif;writing-mode:lr-tb;fill:#000000;fill-opacity:1;fill-rule:nonzero;stroke:none"
         id="text2155"><tspan
           x="0 6.7481174"
           y="0"
           sodipodi:role="line"
           id="tspan2153">n6</tspan></text>
      <path
         d="m 141.5,530.5 c 0,0 59,0 59,0 6,0 12,-6 12,-12 0,0 0,-12 0,-12 0,-6 -6,-12 -12,-12 0,0 -59,0 -59,0 -6,0 -12,6 -12,12 0,0 0,12 0,12 0,6 6,12 12,12"
         style="fill:none;stroke:#000000;stroke-width:1;stroke-linecap:butt;stroke-linejoin:miter;stroke-miterlimit:10;stroke-dasharray:none;stroke-opacity:1"
         id="path2157" />
      <text
         xml:space="preserve"
         transform="translate(137.5,516.19922)"
         style="font-variant:normal;font-weight:normal;font-size:14.0002px;font-family:'Liberation Serif';-inkscape-font-specification:LiberationSerif;writing-mode:lr-tb;fill:#000000;fill-opacity:1;fill-rule:nonzero;stroke:none"
         id="text2161"><tspan
           x="0 9.0020475 18.004095 26.247997 34.49649 42.754395 47.248581 56.995102"
           y="0"
           sodipodi:role="line"
           id="tspan2159">CREATION</tspan></text>
      <path
         d="m 171,457.688 c 0,8.023 0,17.765 0,26.742"
         style="fill:none;stroke:#ff0000;stroke-width:1;stroke-linecap:butt;stroke-linejoin:miter;stroke-miterlimit:10;stroke-dasharray:none;stroke-opacity:1"
         id="path2163" />
      <path
         d="m 174.5,484.473 -3.5,10 -3.5,-10 z"
         style="fill:#ff0000;fill-opacity:1;fill-rule:nonzero;stroke:#ff0000;stroke-width:1;stroke-linecap:butt;stroke-linejoin:miter;stroke-miterlimit:10;stroke-dasharray:none;stroke-opacity:1"
         id="path2165" />
      <path
         d="m 68,384.5 c 0,0 30,0 30,0 6,0 12,-6 12,-12 0,0 0,-12 0,-12 0,-6 -6,-12 -12,-12 0,0 -30,0 -30,0 -6,0 -12,6 -12,12 0,0 0,12 0,12 0,6 6,12 12,12"
         style="fill:#d3d3d3;fill-opacity:1;fill-rule:nonzero;stroke:#d3d3d3;stroke-width:1;stroke-linecap:butt;stroke-linejoin:miter;stroke-miterlimit:10;stroke-dasharray:none;stroke-opacity:1"
         id="path2167" />
      <text
         xml:space="preserve"
         transform="translate(79.5,370.19922)"
         style="font-variant:normal;font-weight:normal;font-size:14.0002px;font-family:'Liberation Serif';-inkscape-font-specification:LiberationSerif;writing-mode:lr-tb;fill:#000000;fill-opacity:1;fill-rule:nonzero;stroke:none"
         id="text2171"><tspan
           x="0"
           y="0"
           id="tspan2169">3</tspan></text>
      <path
         d="m 134,567.5 h 74 v 36 h -74 z"
         style="fill:none;stroke:#000000;stroke-width:1;stroke-linecap:butt;stroke-linejoin:miter;stroke-miterlimit:10;stroke-dasharray:none;stroke-opacity:1"
         id="path2173" />
      <text
         xml:space="preserve"
         transform="translate(142,589.19922)"
         style="font-variant:normal;font-weight:normal;font-size:14.0002px;font-family:'Liberation Serif';-inkscape-font-specification:LiberationSerif;writing-mode:lr-tb;fill:#000000;fill-opacity:1;fill-rule:nonzero;stroke:none"
         id="text2177"><tspan
           x="0 4.4941878 9.0023756 13.496563 18.004751 24.752869 28.504934 32.257 39.005116 42.743183 46.495247 53.243366"
           y="0"
           sodipodi:role="line"
           id="tspan2175">[]·[0, 1, 3]</tspan></text>
      <path
         d="m 171,530.688 c 0,8.023 0,17.765 0,26.742"
         style="fill:none;stroke:#ff0000;stroke-width:1;stroke-linecap:butt;stroke-linejoin:miter;stroke-miterlimit:10;stroke-dasharray:none;stroke-opacity:1"
         id="path2179" />
      <path
         d="m 174.5,557.473 -3.5,10 -3.5,-10 z"
         style="fill:#ff0000;fill-opacity:1;fill-rule:nonzero;stroke:#ff0000;stroke-width:1;stroke-linecap:butt;stroke-linejoin:miter;stroke-miterlimit:10;stroke-dasharray:none;stroke-opacity:1"
         id="path2181" />
      <path
         d="m 69,421.5 h 54 v 36 H 69 Z"
         style="fill:#add8e6;fill-opacity:1;fill-rule:nonzero;stroke:#add8e6;stroke-width:1;stroke-linecap:butt;stroke-linejoin:miter;stroke-miterlimit:10;stroke-dasharray:none;stroke-opacity:1"
         id="path2183" />
      <text
         xml:space="preserve"
         transform="translate(92.5,443.19922)"
         style="font-variant:normal;font-weight:normal;font-size:14.0002px;font-family:'Liberation Serif';-inkscape-font-specification:LiberationSerif;writing-mode:lr-tb;fill:#000000;fill-opacity:1;fill-rule:nonzero;stroke:none"
         id="text2187"><tspan
           x="0"
           y="0"
           id="tspan2185">ø</tspan></text>
      <path
         d="m 140.5,676.5 c 0,0 61,0 61,0 6,0 12,-6 12,-12 0,0 0,-12 0,-12 0,-6 -6,-12 -12,-12 0,0 -61,0 -61,0 -6,0 -12,6 -12,12 0,0 0,12 0,12 0,6 6,12 12,12"
         style="fill:none;stroke:#000000;stroke-width:1;stroke-linecap:butt;stroke-linejoin:miter;stroke-miterlimit:10;stroke-dasharray:none;stroke-opacity:1"
         id="path2189" />
      <text
         xml:space="preserve"
         transform="translate(136.5,662.19922)"
         style="font-variant:normal;font-weight:normal;font-size:14.0002px;font-family:'Liberation Serif';-inkscape-font-specification:LiberationSerif;writing-mode:lr-tb;fill:#000000;fill-opacity:1;fill-rule:nonzero;stroke:none"
         id="text2193"><tspan
           x="0 9.746521 19.493042 27.750944 35.24321 42.74947 50.993374 59.995422"
           y="0"
           sodipodi:role="line"
           id="tspan2191">NOEFFECT</tspan></text>
      <path
         d="m 171,603.688 c 0,8.023 0,17.765 0,26.742"
         style="fill:none;stroke:#000000;stroke-width:1;stroke-linecap:butt;stroke-linejoin:miter;stroke-miterlimit:10;stroke-dasharray:none;stroke-opacity:1"
         id="path2195" />
      <path
         d="m 174.5,630.473 -3.5,10 -3.5,-10 z"
         style="fill:#000000;fill-opacity:1;fill-rule:nonzero;stroke:#000000;stroke-width:1;stroke-linecap:butt;stroke-linejoin:miter;stroke-miterlimit:10;stroke-dasharray:none;stroke-opacity:1"
         id="path2197" />
      <path
         d="m 69,530.5 c 0,0 30,0 30,0 6,0 12,-6 12,-12 0,0 0,-12 0,-12 0,-6 -6,-12 -12,-12 0,0 -30,0 -30,0 -6,0 -12,6 -12,12 0,0 0,12 0,12 0,6 6,12 12,12"
         style="fill:#d3d3d3;fill-opacity:1;fill-rule:nonzero;stroke:#d3d3d3;stroke-width:1;stroke-linecap:butt;stroke-linejoin:miter;stroke-miterlimit:10;stroke-dasharray:none;stroke-opacity:1"
         id="path2199" />
      <text
         xml:space="preserve"
         transform="translate(80.5,516.19922)"
         style="font-variant:normal;font-weight:normal;font-size:14.0002px;font-family:'Liberation Serif';-inkscape-font-specification:LiberationSerif;writing-mode:lr-tb;fill:#000000;fill-opacity:1;fill-rule:nonzero;stroke:none"
         id="text2203"><tspan
           x="0"
           y="0"
           id="tspan2201">4</tspan></text>
      <path
         d="m 134,713.5 h 74 v 36 h -74 z"
         style="fill:none;stroke:#000000;stroke-width:1;stroke-linecap:butt;stroke-linejoin:miter;stroke-miterlimit:10;stroke-dasharray:none;stroke-opacity:1"
         id="path2205" />
      <text
         xml:space="preserve"
         transform="translate(142,735.19922)"
         style="font-variant:normal;font-weight:normal;font-size:14.0002px;font-family:'Liberation Serif';-inkscape-font-specification:LiberationSerif;writing-mode:lr-tb;fill:#000000;fill-opacity:1;fill-rule:nonzero;stroke:none"
         id="text2209"><tspan
           x="0 4.4941878 9.0023756 13.496563 18.004751 24.752869 28.504934 32.257 39.005116 42.743183 46.495247 53.243366"
           y="0"
           sodipodi:role="line"
           id="tspan2207">[]·[0, 1, 3]</tspan></text>
      <path
         d="m 171,676.688 c 0,8.023 0,17.765 0,26.742"
         style="fill:none;stroke:#000000;stroke-width:1;stroke-linecap:butt;stroke-linejoin:miter;stroke-miterlimit:10;stroke-dasharray:none;stroke-opacity:1"
         id="path2211" />
      <path
         d="m 174.5,703.473 -3.5,10 -3.5,-10 z"
         style="fill:#000000;fill-opacity:1;fill-rule:nonzero;stroke:#000000;stroke-width:1;stroke-linecap:butt;stroke-linejoin:miter;stroke-miterlimit:10;stroke-dasharray:none;stroke-opacity:1"
         id="path2213" />
      <path
         d="m 62,567.5 h 54 v 36 H 62 Z"
         style="fill:#add8e6;fill-opacity:1;fill-rule:nonzero;stroke:#add8e6;stroke-width:1;stroke-linecap:butt;stroke-linejoin:miter;stroke-miterlimit:10;stroke-dasharray:none;stroke-opacity:1"
         id="path2215" />
      <text
         xml:space="preserve"
         transform="translate(82,589.19922)"
         style="font-variant:normal;font-weight:normal;font-size:14.0002px;font-family:'Liberation Serif';-inkscape-font-specification:LiberationSerif;writing-mode:lr-tb;fill:#000000;fill-opacity:1;fill-rule:nonzero;stroke:none"
         id="text2219"><tspan
           x="0 6.7481174"
           y="0"
           sodipodi:role="line"
           id="tspan2217">n6</tspan></text>
      <path
         d="m 68,676.5 c 0,0 30,0 30,0 6,0 12,-6 12,-12 0,0 0,-12 0,-12 0,-6 -6,-12 -12,-12 0,0 -30,0 -30,0 -6,0 -12,6 -12,12 0,0 0,12 0,12 0,6 6,12 12,12"
         style="fill:#d3d3d3;fill-opacity:1;fill-rule:nonzero;stroke:#d3d3d3;stroke-width:1;stroke-linecap:butt;stroke-linejoin:miter;stroke-miterlimit:10;stroke-dasharray:none;stroke-opacity:1"
         id="path2221" />
      <text
         xml:space="preserve"
         transform="translate(79.5,662.19922)"
         style="font-variant:normal;font-weight:normal;font-size:14.0002px;font-family:'Liberation Serif';-inkscape-font-specification:LiberationSerif;writing-mode:lr-tb;fill:#000000;fill-opacity:1;fill-rule:nonzero;stroke:none"
         id="text2225"><tspan
           x="0"
           y="0"
           id="tspan2223">5</tspan></text>
      <path
         d="m 62,713.5 h 54 v 36 H 62 Z"
         style="fill:#add8e6;fill-opacity:1;fill-rule:nonzero;stroke:#add8e6;stroke-width:1;stroke-linecap:butt;stroke-linejoin:miter;stroke-miterlimit:10;stroke-dasharray:none;stroke-opacity:1"
         id="path2227" />
      <text
         xml:space="preserve"
         transform="translate(85.5,735.19922)"
         style="font-variant:normal;font-weight:normal;font-size:14.0002px;font-family:'Liberation Serif';-inkscape-font-specification:LiberationSerif;writing-mode:lr-tb;fill:#000000;fill-opacity:1;fill-rule:nonzero;stroke:none"
         id="text2231"><tspan
           x="0"
           y="0"
           id="tspan2229">ø</tspan></text>
    </g>
  </g>
</svg>
