<?xml version="1.0" encoding="UTF-8" standalone="no"?>
<!-- Created with Inkscape (http://www.inkscape.org/) -->

<svg
   version="1.1"
   id="svg2761"
   width="500"
   height="1142.6666"
   viewBox="0 0 500 1142.6667"
   sodipodi:docname="hr-rejeu-ajout-5-export.svg"
   inkscape:version="1.2.2 (b0a8486541, 2022-12-01)"
   xmlns:inkscape="http://www.inkscape.org/namespaces/inkscape"
   xmlns:sodipodi="http://sodipodi.sourceforge.net/DTD/sodipodi-0.dtd"
   xmlns="http://www.w3.org/2000/svg"
   xmlns:svg="http://www.w3.org/2000/svg">
  <defs
     id="defs2765" />
  <sodipodi:namedview
     id="namedview2763"
     pagecolor="#ffffff"
     bordercolor="#000000"
     borderopacity="0.25"
     inkscape:showpageshadow="2"
     inkscape:pageopacity="0.0"
     inkscape:pagecheckerboard="0"
     inkscape:deskcolor="#d1d1d1"
     showgrid="false"
     inkscape:zoom="0.68146015"
     inkscape:cx="250.93177"
     inkscape:cy="571.5668"
     inkscape:window-width="1908"
     inkscape:window-height="1048"
     inkscape:window-x="1085"
     inkscape:window-y="25"
     inkscape:window-maximized="1"
     inkscape:current-layer="g2769">
    <inkscape:page
       x="0"
       y="0"
       id="page2767"
       width="500"
       height="1142.6667" />
  </sodipodi:namedview>
  <g
     id="g2769"
     inkscape:groupmode="layer"
     inkscape:label="Page 1"
     transform="matrix(1.3333333,0,0,1.3333333,-63.333332,-63.333332)">
    <g
       id="g2771">
      <path
         d="m 60,101 c 0,0 350,0 350,0 6,0 12,-6 12,-12 0,0 0,-29 0,-29 0,-6 -6,-12 -12,-12 0,0 -350,0 -350,0 -6,0 -12,6 -12,12 0,0 0,29 0,29 0,6 6,12 12,12"
         style="fill:none;stroke:#000000;stroke-width:1;stroke-linecap:butt;stroke-linejoin:miter;stroke-miterlimit:10;stroke-dasharray:none;stroke-opacity:1"
         id="path2773" />
      <path
         d="m 92,121 h 286 v 53 H 92 Z"
         style="fill:none;stroke:#000000;stroke-width:1;stroke-linecap:butt;stroke-linejoin:miter;stroke-miterlimit:10;stroke-dasharray:none;stroke-opacity:1"
         id="path2775" />
      <path
         d="m 60,247 c 0,0 350,0 350,0 6,0 12,-6 12,-12 0,0 0,-29 0,-29 0,-6 -6,-12 -12,-12 0,0 -350,0 -350,0 -6,0 -12,6 -12,12 0,0 0,29 0,29 0,6 6,12 12,12"
         style="fill:none;stroke:#000000;stroke-width:1;stroke-linecap:butt;stroke-linejoin:miter;stroke-miterlimit:10;stroke-dasharray:none;stroke-opacity:1"
         id="path2777" />
      <path
         d="m 92,267 h 286 v 53 H 92 Z"
         style="fill:none;stroke:#000000;stroke-width:1;stroke-linecap:butt;stroke-linejoin:miter;stroke-miterlimit:10;stroke-dasharray:none;stroke-opacity:1"
         id="path2779" />
      <path
         d="m 91,393 c 0,0 216,0 216,0 6,0 12,-6 12,-12 0,0 0,-29 0,-29 0,-6 -6,-12 -12,-12 0,0 -216,0 -216,0 -6,0 -12,6 -12,12 0,0 0,29 0,29 0,6 6,12 12,12"
         style="fill:none;stroke:#000000;stroke-width:1;stroke-linecap:butt;stroke-linejoin:miter;stroke-miterlimit:10;stroke-dasharray:none;stroke-opacity:1"
         id="path2781" />
      <path
         d="m 98,413 h 214 v 53 H 98 Z"
         style="fill:none;stroke:#000000;stroke-width:1;stroke-linecap:butt;stroke-linejoin:miter;stroke-miterlimit:10;stroke-dasharray:none;stroke-opacity:1"
         id="path2783" />
      <path
         d="m 82,539 c 0,0 249,0 249,0 6,0 12,-6 12,-12 0,0 0,-29 0,-29 0,-6 -6,-12 -12,-12 0,0 -249,0 -249,0 -6,0 -12,6 -12,12 0,0 0,29 0,29 0,6 6,12 12,12"
         style="fill:none;stroke:#000000;stroke-width:1;stroke-linecap:butt;stroke-linejoin:miter;stroke-miterlimit:10;stroke-dasharray:none;stroke-opacity:1"
         id="path2785" />
      <path
         d="m 88,559 h 248 v 53 H 88 Z"
         style="fill:none;stroke:#000000;stroke-width:1;stroke-linecap:butt;stroke-linejoin:miter;stroke-miterlimit:10;stroke-dasharray:none;stroke-opacity:1"
         id="path2787" />
      <path
         d="m 80,685 c 0,0 253,0 253,0 6,0 12,-6 12,-12 0,0 0,-29 0,-29 0,-6 -6,-12 -12,-12 0,0 -253,0 -253,0 -6,0 -12,6 -12,12 0,0 0,29 0,29 0,6 6,12 12,12"
         style="fill:none;stroke:#000000;stroke-width:1;stroke-linecap:butt;stroke-linejoin:miter;stroke-miterlimit:10;stroke-dasharray:none;stroke-opacity:1"
         id="path2789" />
      <path
         d="m 88,705 h 248 v 53 H 88 Z"
         style="fill:none;stroke:#000000;stroke-width:1;stroke-linecap:butt;stroke-linejoin:miter;stroke-miterlimit:10;stroke-dasharray:none;stroke-opacity:1"
         id="path2791" />
      <path
         d="m 141,831 c 0,0 130,0 130,0 6,0 12,-6 12,-12 0,0 0,-29 0,-29 0,-6 -6,-12 -12,-12 0,0 -130,0 -130,0 -6,0 -12,6 -12,12 0,0 0,29 0,29 0,6 6,12 12,12"
         style="fill:none;stroke:#000000;stroke-width:1;stroke-linecap:butt;stroke-linejoin:miter;stroke-miterlimit:10;stroke-dasharray:none;stroke-opacity:1"
         id="path2793" />
      <path
         d="m 132,851 h 148 v 53 H 132 Z"
         style="fill:none;stroke:#000000;stroke-width:1;stroke-linecap:butt;stroke-linejoin:miter;stroke-miterlimit:10;stroke-dasharray:none;stroke-opacity:1"
         id="path2795" />
      <path
         d="m 342.5,92.5 c 0,0 59,0 59,0 6,0 12,-6 12,-12 0,0 0,-12 0,-12 0,-6 -6,-12 -12,-12 0,0 -59,0 -59,0 -6,0 -12,6 -12,12 0,0 0,12 0,12 0,6 6,12 12,12"
         style="fill:none;stroke:#000000;stroke-width:1;stroke-linecap:butt;stroke-linejoin:miter;stroke-miterlimit:10;stroke-dasharray:none;stroke-opacity:1"
         id="path2797" />
      <text
         xml:space="preserve"
         transform="translate(338.5,78.199219)"
         style="font-variant:normal;font-weight:normal;font-size:14.0002px;font-family:'Liberation Serif';-inkscape-font-specification:LiberationSerif;writing-mode:lr-tb;fill:#000000;fill-opacity:1;fill-rule:nonzero;stroke:none"
         id="text2801"><tspan
           x="0 9.0020475 18.004095 26.247997 34.49649 42.754395 47.248581 56.995102"
           y="0"
           sodipodi:role="line"
           id="tspan2799">CREATION</tspan></text>
      <path
         d="m 316,129.5 h 54 v 36 h -54 z"
         style="fill:none;stroke:#000000;stroke-width:1;stroke-linecap:butt;stroke-linejoin:miter;stroke-miterlimit:10;stroke-dasharray:none;stroke-opacity:1"
         id="path2803" />
      <text
         xml:space="preserve"
         transform="translate(331.5,151.19922)"
         style="font-variant:normal;font-weight:normal;font-size:14.0002px;font-family:'Liberation Serif';-inkscape-font-specification:LiberationSerif;writing-mode:lr-tb;fill:#000000;fill-opacity:1;fill-rule:nonzero;stroke:none"
         id="text2807"><tspan
           x="0 4.4941878 9.0023756 13.496563 18.004751"
           y="0"
           sodipodi:role="line"
           id="tspan2805">[]·[]</tspan></text>
      <path
         d="m 364.98,92.688 c -3.347,8.199 -7.429,18.187 -11.164,27.328"
         style="fill:none;stroke:#ff0000;stroke-width:1;stroke-linecap:butt;stroke-linejoin:miter;stroke-miterlimit:10;stroke-dasharray:none;stroke-opacity:1"
         id="path2809" />
      <path
         d="m 356.977,121.535 -7.02,7.938 0.539,-10.582 z"
         style="fill:#ff0000;fill-opacity:1;fill-rule:nonzero;stroke:#ff0000;stroke-width:1;stroke-linecap:butt;stroke-linejoin:miter;stroke-miterlimit:10;stroke-dasharray:none;stroke-opacity:1"
         id="path2811" />
      <path
         d="m 342.5,238.5 c 0,0 59,0 59,0 6,0 12,-6 12,-12 0,0 0,-12 0,-12 0,-6 -6,-12 -12,-12 0,0 -59,0 -59,0 -6,0 -12,6 -12,12 0,0 0,12 0,12 0,6 6,12 12,12"
         style="fill:none;stroke:#000000;stroke-width:1;stroke-linecap:butt;stroke-linejoin:miter;stroke-miterlimit:10;stroke-dasharray:none;stroke-opacity:1"
         id="path2813" />
      <text
         xml:space="preserve"
         transform="translate(338.5,224.19922)"
         style="font-variant:normal;font-weight:normal;font-size:14.0002px;font-family:'Liberation Serif';-inkscape-font-specification:LiberationSerif;writing-mode:lr-tb;fill:#000000;fill-opacity:1;fill-rule:nonzero;stroke:none"
         id="text2817"><tspan
           x="0 9.0020475 18.004095 26.247997 34.49649 42.754395 47.248581 56.995102"
           y="0"
           sodipodi:role="line"
           id="tspan2815">CREATION</tspan></text>
      <path
         d="m 350.02,165.688 c 3.347,8.199 7.429,18.187 11.164,27.328"
         style="fill:none;stroke:#ff0000;stroke-width:1;stroke-linecap:butt;stroke-linejoin:miter;stroke-miterlimit:10;stroke-dasharray:none;stroke-opacity:1"
         id="path2819" />
      <path
         d="m 364.504,191.891 0.539,10.582 -7.02,-7.938 z"
         style="fill:#ff0000;fill-opacity:1;fill-rule:nonzero;stroke:#ff0000;stroke-width:1;stroke-linecap:butt;stroke-linejoin:miter;stroke-miterlimit:10;stroke-dasharray:none;stroke-opacity:1"
         id="path2821" />
      <path
         d="m 241.5,92.5 c 0,0 59,0 59,0 6,0 12,-6 12,-12 0,0 0,-12 0,-12 0,-6 -6,-12 -12,-12 0,0 -59,0 -59,0 -6,0 -12,6 -12,12 0,0 0,12 0,12 0,6 6,12 12,12"
         style="fill:none;stroke:#000000;stroke-width:1;stroke-linecap:butt;stroke-linejoin:miter;stroke-miterlimit:10;stroke-dasharray:none;stroke-opacity:1"
         id="path2823" />
      <text
         xml:space="preserve"
         transform="translate(237.5,78.199219)"
         style="font-variant:normal;font-weight:normal;font-size:14.0002px;font-family:'Liberation Serif';-inkscape-font-specification:LiberationSerif;writing-mode:lr-tb;fill:#000000;fill-opacity:1;fill-rule:nonzero;stroke:none"
         id="text2827"><tspan
           x="0 9.0020475 18.004095 26.247997 34.49649 42.754395 47.248581 56.995102"
           y="0"
           sodipodi:role="line"
           id="tspan2825">CREATION</tspan></text>
      <path
         d="m 244,129.5 h 54 v 36 h -54 z"
         style="fill:none;stroke:#000000;stroke-width:1;stroke-linecap:butt;stroke-linejoin:miter;stroke-miterlimit:10;stroke-dasharray:none;stroke-opacity:1"
         id="path2829" />
      <text
         xml:space="preserve"
         transform="translate(256,151.19922)"
         style="font-variant:normal;font-weight:normal;font-size:14.0002px;font-family:'Liberation Serif';-inkscape-font-specification:LiberationSerif;writing-mode:lr-tb;fill:#000000;fill-opacity:1;fill-rule:nonzero;stroke:none"
         id="text2833"><tspan
           x="0 4.4941878 9.0023756 13.496563 18.004751 24.752869"
           y="0"
           sodipodi:role="line"
           id="tspan2831">[]·[0]</tspan></text>
      <path
         d="m 271,92.688 c 0,8.023 0,17.765 0,26.742"
         style="fill:none;stroke:#ff0000;stroke-width:1;stroke-linecap:butt;stroke-linejoin:miter;stroke-miterlimit:10;stroke-dasharray:none;stroke-opacity:1"
         id="path2835" />
      <path
         d="m 274.5,119.473 -3.5,10 -3.5,-10 z"
         style="fill:#ff0000;fill-opacity:1;fill-rule:nonzero;stroke:#ff0000;stroke-width:1;stroke-linecap:butt;stroke-linejoin:miter;stroke-miterlimit:10;stroke-dasharray:none;stroke-opacity:1"
         id="path2837" />
      <path
         d="m 241.5,238.5 c 0,0 59,0 59,0 6,0 12,-6 12,-12 0,0 0,-12 0,-12 0,-6 -6,-12 -12,-12 0,0 -59,0 -59,0 -6,0 -12,6 -12,12 0,0 0,12 0,12 0,6 6,12 12,12"
         style="fill:none;stroke:#000000;stroke-width:1;stroke-linecap:butt;stroke-linejoin:miter;stroke-miterlimit:10;stroke-dasharray:none;stroke-opacity:1"
         id="path2839" />
      <text
         xml:space="preserve"
         transform="translate(237.5,224.19922)"
         style="font-variant:normal;font-weight:normal;font-size:14.0002px;font-family:'Liberation Serif';-inkscape-font-specification:LiberationSerif;writing-mode:lr-tb;fill:#000000;fill-opacity:1;fill-rule:nonzero;stroke:none"
         id="text2843"><tspan
           x="0 9.0020475 18.004095 26.247997 34.49649 42.754395 47.248581 56.995102"
           y="0"
           sodipodi:role="line"
           id="tspan2841">CREATION</tspan></text>
      <path
         d="m 271,165.688 c 0,8.023 0,17.765 0,26.742"
         style="fill:none;stroke:#ff0000;stroke-width:1;stroke-linecap:butt;stroke-linejoin:miter;stroke-miterlimit:10;stroke-dasharray:none;stroke-opacity:1"
         id="path2845" />
      <path
         d="m 274.5,192.473 -3.5,10 -3.5,-10 z"
         style="fill:#ff0000;fill-opacity:1;fill-rule:nonzero;stroke:#ff0000;stroke-width:1;stroke-linecap:butt;stroke-linejoin:miter;stroke-miterlimit:10;stroke-dasharray:none;stroke-opacity:1"
         id="path2847" />
      <path
         d="m 140.5,92.5 c 0,0 59,0 59,0 6,0 12,-6 12,-12 0,0 0,-12 0,-12 0,-6 -6,-12 -12,-12 0,0 -59,0 -59,0 -6,0 -12,6 -12,12 0,0 0,12 0,12 0,6 6,12 12,12"
         style="fill:none;stroke:#000000;stroke-width:1;stroke-linecap:butt;stroke-linejoin:miter;stroke-miterlimit:10;stroke-dasharray:none;stroke-opacity:1"
         id="path2849" />
      <text
         xml:space="preserve"
         transform="translate(136.5,78.199219)"
         style="font-variant:normal;font-weight:normal;font-size:14.0002px;font-family:'Liberation Serif';-inkscape-font-specification:LiberationSerif;writing-mode:lr-tb;fill:#000000;fill-opacity:1;fill-rule:nonzero;stroke:none"
         id="text2853"><tspan
           x="0 9.0020475 18.004095 26.247997 34.49649 42.754395 47.248581 56.995102"
           y="0"
           sodipodi:role="line"
           id="tspan2851">CREATION</tspan></text>
      <path
         d="m 172,129.5 h 54 v 36 h -54 z"
         style="fill:none;stroke:#000000;stroke-width:1;stroke-linecap:butt;stroke-linejoin:miter;stroke-miterlimit:10;stroke-dasharray:none;stroke-opacity:1"
         id="path2855" />
      <text
         xml:space="preserve"
         transform="translate(184,151.19922)"
         style="font-variant:normal;font-weight:normal;font-size:14.0002px;font-family:'Liberation Serif';-inkscape-font-specification:LiberationSerif;writing-mode:lr-tb;fill:#000000;fill-opacity:1;fill-rule:nonzero;stroke:none"
         id="text2859"><tspan
           x="0 4.4941878 9.0023756 13.496563 18.004751 24.752869"
           y="0"
           sodipodi:role="line"
           id="tspan2857">[]·[1]</tspan></text>
      <path
         d="m 177.02,92.688 c 3.347,8.199 7.429,18.187 11.164,27.328"
         style="fill:none;stroke:#ff0000;stroke-width:1;stroke-linecap:butt;stroke-linejoin:miter;stroke-miterlimit:10;stroke-dasharray:none;stroke-opacity:1"
         id="path2861" />
      <path
         d="m 191.504,118.891 0.539,10.582 -7.02,-7.938 z"
         style="fill:#ff0000;fill-opacity:1;fill-rule:nonzero;stroke:#ff0000;stroke-width:1;stroke-linecap:butt;stroke-linejoin:miter;stroke-miterlimit:10;stroke-dasharray:none;stroke-opacity:1"
         id="path2863" />
      <path
         d="m 140.5,238.5 c 0,0 59,0 59,0 6,0 12,-6 12,-12 0,0 0,-12 0,-12 0,-6 -6,-12 -12,-12 0,0 -59,0 -59,0 -6,0 -12,6 -12,12 0,0 0,12 0,12 0,6 6,12 12,12"
         style="fill:none;stroke:#000000;stroke-width:1;stroke-linecap:butt;stroke-linejoin:miter;stroke-miterlimit:10;stroke-dasharray:none;stroke-opacity:1"
         id="path2865" />
      <text
         xml:space="preserve"
         transform="translate(136.5,224.19922)"
         style="font-variant:normal;font-weight:normal;font-size:14.0002px;font-family:'Liberation Serif';-inkscape-font-specification:LiberationSerif;writing-mode:lr-tb;fill:#000000;fill-opacity:1;fill-rule:nonzero;stroke:none"
         id="text2869"><tspan
           x="0 9.0020475 18.004095 26.247997 34.49649 42.754395 47.248581 56.995102"
           y="0"
           sodipodi:role="line"
           id="tspan2867">CREATION</tspan></text>
      <path
         d="m 191.98,165.688 c -3.347,8.199 -7.429,18.187 -11.164,27.328"
         style="fill:none;stroke:#ff0000;stroke-width:1;stroke-linecap:butt;stroke-linejoin:miter;stroke-miterlimit:10;stroke-dasharray:none;stroke-opacity:1"
         id="path2871" />
      <path
         d="m 183.977,194.535 -7.02,7.938 0.539,-10.582 z"
         style="fill:#ff0000;fill-opacity:1;fill-rule:nonzero;stroke:#ff0000;stroke-width:1;stroke-linecap:butt;stroke-linejoin:miter;stroke-miterlimit:10;stroke-dasharray:none;stroke-opacity:1"
         id="path2873" />
      <path
         d="m 68,92.5 c 0,0 30,0 30,0 6,0 12,-6 12,-12 0,0 0,-12 0,-12 0,-6 -6,-12 -12,-12 0,0 -30,0 -30,0 -6,0 -12,6 -12,12 0,0 0,12 0,12 0,6 6,12 12,12"
         style="fill:#d3d3d3;fill-opacity:1;fill-rule:nonzero;stroke:#d3d3d3;stroke-width:1;stroke-linecap:butt;stroke-linejoin:miter;stroke-miterlimit:10;stroke-dasharray:none;stroke-opacity:1"
         id="path2875" />
      <text
         xml:space="preserve"
         transform="translate(79.5,78.199219)"
         style="font-variant:normal;font-weight:normal;font-size:14.0002px;font-family:'Liberation Serif';-inkscape-font-specification:LiberationSerif;writing-mode:lr-tb;fill:#000000;fill-opacity:1;fill-rule:nonzero;stroke:none"
         id="text2879"><tspan
           x="0"
           y="0"
           id="tspan2877">1</tspan></text>
      <path
         d="m 316,275.5 h 54 v 36 h -54 z"
         style="fill:none;stroke:#000000;stroke-width:1;stroke-linecap:butt;stroke-linejoin:miter;stroke-miterlimit:10;stroke-dasharray:none;stroke-opacity:1"
         id="path2881" />
      <text
         xml:space="preserve"
         transform="translate(331.5,297.19922)"
         style="font-variant:normal;font-weight:normal;font-size:14.0002px;font-family:'Liberation Serif';-inkscape-font-specification:LiberationSerif;writing-mode:lr-tb;fill:#000000;fill-opacity:1;fill-rule:nonzero;stroke:none"
         id="text2885"><tspan
           x="0 4.4941878 9.0023756 13.496563 18.004751"
           y="0"
           sodipodi:role="line"
           id="tspan2883">[]·[]</tspan></text>
      <path
         d="m 364.98,238.688 c -3.347,8.199 -7.429,18.187 -11.164,27.328"
         style="fill:none;stroke:#ff0000;stroke-width:1;stroke-linecap:butt;stroke-linejoin:miter;stroke-miterlimit:10;stroke-dasharray:none;stroke-opacity:1"
         id="path2887" />
      <path
         d="m 356.977,267.535 -7.02,7.938 0.539,-10.582 z"
         style="fill:#ff0000;fill-opacity:1;fill-rule:nonzero;stroke:#ff0000;stroke-width:1;stroke-linecap:butt;stroke-linejoin:miter;stroke-miterlimit:10;stroke-dasharray:none;stroke-opacity:1"
         id="path2889" />
      <path
         d="m 244,275.5 h 54 v 36 h -54 z"
         style="fill:none;stroke:#000000;stroke-width:1;stroke-linecap:butt;stroke-linejoin:miter;stroke-miterlimit:10;stroke-dasharray:none;stroke-opacity:1"
         id="path2891" />
      <text
         xml:space="preserve"
         transform="translate(256,297.19922)"
         style="font-variant:normal;font-weight:normal;font-size:14.0002px;font-family:'Liberation Serif';-inkscape-font-specification:LiberationSerif;writing-mode:lr-tb;fill:#000000;fill-opacity:1;fill-rule:nonzero;stroke:none"
         id="text2895"><tspan
           x="0 4.4941878 9.0023756 13.496563 18.004751 24.752869"
           y="0"
           sodipodi:role="line"
           id="tspan2893">[]·[0]</tspan></text>
      <path
         d="m 271,238.688 c 0,8.023 0,17.765 0,26.742"
         style="fill:none;stroke:#ff0000;stroke-width:1;stroke-linecap:butt;stroke-linejoin:miter;stroke-miterlimit:10;stroke-dasharray:none;stroke-opacity:1"
         id="path2897" />
      <path
         d="m 274.5,265.473 -3.5,10 -3.5,-10 z"
         style="fill:#ff0000;fill-opacity:1;fill-rule:nonzero;stroke:#ff0000;stroke-width:1;stroke-linecap:butt;stroke-linejoin:miter;stroke-miterlimit:10;stroke-dasharray:none;stroke-opacity:1"
         id="path2899" />
      <path
         d="m 172,275.5 h 54 v 36 h -54 z"
         style="fill:none;stroke:#000000;stroke-width:1;stroke-linecap:butt;stroke-linejoin:miter;stroke-miterlimit:10;stroke-dasharray:none;stroke-opacity:1"
         id="path2901" />
      <text
         xml:space="preserve"
         transform="translate(184,297.19922)"
         style="font-variant:normal;font-weight:normal;font-size:14.0002px;font-family:'Liberation Serif';-inkscape-font-specification:LiberationSerif;writing-mode:lr-tb;fill:#000000;fill-opacity:1;fill-rule:nonzero;stroke:none"
         id="text2905"><tspan
           x="0 4.4941878 9.0023756 13.496563 18.004751 24.752869"
           y="0"
           sodipodi:role="line"
           id="tspan2903">[]·[1]</tspan></text>
      <path
         d="m 177.02,238.688 c 3.347,8.199 7.429,18.187 11.164,27.328"
         style="fill:none;stroke:#ff0000;stroke-width:1;stroke-linecap:butt;stroke-linejoin:miter;stroke-miterlimit:10;stroke-dasharray:none;stroke-opacity:1"
         id="path2907" />
      <path
         d="m 191.504,264.891 0.539,10.582 -7.02,-7.938 z"
         style="fill:#ff0000;fill-opacity:1;fill-rule:nonzero;stroke:#ff0000;stroke-width:1;stroke-linecap:butt;stroke-linejoin:miter;stroke-miterlimit:10;stroke-dasharray:none;stroke-opacity:1"
         id="path2909" />
      <path
         d="m 100,129.5 h 54 v 36 h -54 z"
         style="fill:#add8e6;fill-opacity:1;fill-rule:nonzero;stroke:#add8e6;stroke-width:1;stroke-linecap:butt;stroke-linejoin:miter;stroke-miterlimit:10;stroke-dasharray:none;stroke-opacity:1"
         id="path2911" />
      <text
         xml:space="preserve"
         transform="translate(120,151.19922)"
         style="font-variant:normal;font-weight:normal;font-size:14.0002px;font-family:'Liberation Serif';-inkscape-font-specification:LiberationSerif;writing-mode:lr-tb;fill:#000000;fill-opacity:1;fill-rule:nonzero;stroke:none"
         id="text2915"><tspan
           x="0 6.7481174"
           y="0"
           sodipodi:role="line"
           id="tspan2913">n5</tspan></text>
      <path
         d="m 269,384.5 c 0,0 30,0 30,0 6,0 12,-6 12,-12 0,0 0,-12 0,-12 0,-6 -6,-12 -12,-12 0,0 -30,0 -30,0 -6,0 -12,6 -12,12 0,0 0,12 0,12 0,6 6,12 12,12"
         style="fill:none;stroke:#000000;stroke-width:1;stroke-linecap:butt;stroke-linejoin:miter;stroke-miterlimit:10;stroke-dasharray:none;stroke-opacity:1"
         id="path2917" />
      <text
         xml:space="preserve"
         transform="translate(265.5,370.19922)"
         style="font-variant:normal;font-weight:normal;font-size:14.0002px;font-family:'Liberation Serif';-inkscape-font-specification:LiberationSerif;writing-mode:lr-tb;fill:#000000;fill-opacity:1;fill-rule:nonzero;stroke:none"
         id="text2921"><tspan
           x="0 7.5062637 14.998527 23.25643 27.750616"
           y="0"
           sodipodi:role="line"
           id="tspan2919">SPLIT</tspan></text>
      <path
         d="m 328.719,311.688 c -7.25,8.718 -16.184,19.472 -24.157,29.066"
         style="fill:none;stroke:#ff0000;stroke-width:1;stroke-linecap:butt;stroke-linejoin:miter;stroke-miterlimit:10;stroke-dasharray:none;stroke-opacity:1"
         id="path2923" />
      <path
         d="m 307.234,343.016 -9.082,5.457 3.7,-9.93 z"
         style="fill:#ff0000;fill-opacity:1;fill-rule:nonzero;stroke:#ff0000;stroke-width:1;stroke-linecap:butt;stroke-linejoin:miter;stroke-miterlimit:10;stroke-dasharray:none;stroke-opacity:1"
         id="path2925" />
      <path
         d="m 274.148,311.688 c 1.469,8.023 3.25,17.765 4.895,26.742"
         style="fill:none;stroke:#000000;stroke-width:1;stroke-linecap:butt;stroke-linejoin:miter;stroke-miterlimit:10;stroke-dasharray:none;stroke-opacity:1"
         id="path2927" />
      <path
         d="m 282.523,338.004 -1.64,10.469 -5.246,-9.207 z"
         style="fill:#000000;fill-opacity:1;fill-rule:nonzero;stroke:#000000;stroke-width:1;stroke-linecap:butt;stroke-linejoin:miter;stroke-miterlimit:10;stroke-dasharray:none;stroke-opacity:1"
         id="path2929" />
      <path
         d="m 171,384.5 c 0,0 56,0 56,0 6,0 12,-6 12,-12 0,0 0,-12 0,-12 0,-6 -6,-12 -12,-12 0,0 -56,0 -56,0 -6,0 -12,6 -12,12 0,0 0,12 0,12 0,6 6,12 12,12"
         style="fill:none;stroke:#000000;stroke-width:1;stroke-linecap:butt;stroke-linejoin:miter;stroke-miterlimit:10;stroke-dasharray:none;stroke-opacity:1"
         id="path2931" />
      <text
         xml:space="preserve"
         transform="translate(167,370.19922)"
         style="font-variant:normal;font-weight:normal;font-size:14.0002px;font-family:'Liberation Serif';-inkscape-font-specification:LiberationSerif;writing-mode:lr-tb;fill:#000000;fill-opacity:1;fill-rule:nonzero;stroke:none"
         id="text2935"><tspan
           x="0 9.746521 19.493042 32.249508 41.996029 51.75655 56.25074"
           y="0"
           sodipodi:role="line"
           id="tspan2933">NOMODIF</tspan></text>
      <path
         d="m 199,311.688 c 0,8.023 0,17.765 0,26.742"
         style="fill:none;stroke:#000000;stroke-width:1;stroke-linecap:butt;stroke-linejoin:miter;stroke-miterlimit:10;stroke-dasharray:none;stroke-opacity:1"
         id="path2937" />
      <path
         d="m 202.5,338.473 -3.5,10 -3.5,-10 z"
         style="fill:#000000;fill-opacity:1;fill-rule:nonzero;stroke:#000000;stroke-width:1;stroke-linecap:butt;stroke-linejoin:miter;stroke-miterlimit:10;stroke-dasharray:none;stroke-opacity:1"
         id="path2939" />
      <path
         d="m 68,238.5 c 0,0 30,0 30,0 6,0 12,-6 12,-12 0,0 0,-12 0,-12 0,-6 -6,-12 -12,-12 0,0 -30,0 -30,0 -6,0 -12,6 -12,12 0,0 0,12 0,12 0,6 6,12 12,12"
         style="fill:#d3d3d3;fill-opacity:1;fill-rule:nonzero;stroke:#d3d3d3;stroke-width:1;stroke-linecap:butt;stroke-linejoin:miter;stroke-miterlimit:10;stroke-dasharray:none;stroke-opacity:1"
         id="path2941" />
      <text
         xml:space="preserve"
         transform="translate(79.5,224.19922)"
         style="font-variant:normal;font-weight:normal;font-size:14.0002px;font-family:'Liberation Serif';-inkscape-font-specification:LiberationSerif;writing-mode:lr-tb;fill:#000000;fill-opacity:1;fill-rule:nonzero;stroke:none"
         id="text2945"><tspan
           x="0"
           y="0"
           id="tspan2943">2</tspan></text>
      <path
         d="m 250,421.5 h 54 v 36 h -54 z"
         style="fill:none;stroke:#000000;stroke-width:1;stroke-linecap:butt;stroke-linejoin:miter;stroke-miterlimit:10;stroke-dasharray:none;stroke-opacity:1"
         id="path2947" />
      <text
         xml:space="preserve"
         transform="translate(262,443.19922)"
         style="font-variant:normal;font-weight:normal;font-size:14.0002px;font-family:'Liberation Serif';-inkscape-font-specification:LiberationSerif;writing-mode:lr-tb;fill:#000000;fill-opacity:1;fill-rule:nonzero;stroke:none"
         id="text2951"><tspan
           x="0 4.4941878 9.0023756 13.496563 18.004751 24.752869"
           y="0"
           sodipodi:role="line"
           id="tspan2949">[]·[0]</tspan></text>
      <path
         d="m 282.305,384.688 c -0.789,8.023 -1.75,17.765 -2.637,26.742"
         style="fill:none;stroke:#000000;stroke-width:1;stroke-linecap:butt;stroke-linejoin:miter;stroke-miterlimit:10;stroke-dasharray:none;stroke-opacity:1"
         id="path2953" />
      <path
         d="m 283.145,411.863 -4.465,9.61 -2.504,-10.297 z"
         style="fill:#000000;fill-opacity:1;fill-rule:nonzero;stroke:#000000;stroke-width:1;stroke-linecap:butt;stroke-linejoin:miter;stroke-miterlimit:10;stroke-dasharray:none;stroke-opacity:1"
         id="path2955" />
      <path
         d="m 178,421.5 h 54 v 36 h -54 z"
         style="fill:none;stroke:#000000;stroke-width:1;stroke-linecap:butt;stroke-linejoin:miter;stroke-miterlimit:10;stroke-dasharray:none;stroke-opacity:1"
         id="path2957" />
      <text
         xml:space="preserve"
         transform="translate(190,443.19922)"
         style="font-variant:normal;font-weight:normal;font-size:14.0002px;font-family:'Liberation Serif';-inkscape-font-specification:LiberationSerif;writing-mode:lr-tb;fill:#000000;fill-opacity:1;fill-rule:nonzero;stroke:none"
         id="text2961"><tspan
           x="0 4.4941878 9.0023756 13.496563 18.004751 24.752869"
           y="0"
           sodipodi:role="line"
           id="tspan2959">[]·[1]</tspan></text>
      <path
         d="m 200.453,384.688 c 0.676,8.023 1.5,17.765 2.258,26.742"
         style="fill:none;stroke:#000000;stroke-width:1;stroke-linecap:butt;stroke-linejoin:miter;stroke-miterlimit:10;stroke-dasharray:none;stroke-opacity:1"
         id="path2963" />
      <path
         d="m 206.207,411.211 -2.645,10.262 -4.332,-9.672 z"
         style="fill:#000000;fill-opacity:1;fill-rule:nonzero;stroke:#000000;stroke-width:1;stroke-linecap:butt;stroke-linejoin:miter;stroke-miterlimit:10;stroke-dasharray:none;stroke-opacity:1"
         id="path2965" />
      <path
         d="m 100,275.5 h 54 v 36 h -54 z"
         style="fill:#add8e6;fill-opacity:1;fill-rule:nonzero;stroke:#add8e6;stroke-width:1;stroke-linecap:butt;stroke-linejoin:miter;stroke-miterlimit:10;stroke-dasharray:none;stroke-opacity:1"
         id="path2967" />
      <text
         xml:space="preserve"
         transform="translate(120,297.19922)"
         style="font-variant:normal;font-weight:normal;font-size:14.0002px;font-family:'Liberation Serif';-inkscape-font-specification:LiberationSerif;writing-mode:lr-tb;fill:#000000;fill-opacity:1;fill-rule:nonzero;stroke:none"
         id="text2971"><tspan
           x="0 6.7481174"
           y="0"
           sodipodi:role="line"
           id="tspan2969">n6</tspan></text>
      <path
         d="m 263.5,530.5 c 0,0 59,0 59,0 6,0 12,-6 12,-12 0,0 0,-12 0,-12 0,-6 -6,-12 -12,-12 0,0 -59,0 -59,0 -6,0 -12,6 -12,12 0,0 0,12 0,12 0,6 6,12 12,12"
         style="fill:none;stroke:#000000;stroke-width:1;stroke-linecap:butt;stroke-linejoin:miter;stroke-miterlimit:10;stroke-dasharray:none;stroke-opacity:1"
         id="path2973" />
      <text
         xml:space="preserve"
         transform="translate(259.5,516.19922)"
         style="font-variant:normal;font-weight:normal;font-size:14.0002px;font-family:'Liberation Serif';-inkscape-font-specification:LiberationSerif;writing-mode:lr-tb;fill:#000000;fill-opacity:1;fill-rule:nonzero;stroke:none"
         id="text2977"><tspan
           x="0 9.0020475 18.004095 26.247997 34.49649 42.754395 47.248581 56.995102"
           y="0"
           sodipodi:role="line"
           id="tspan2975">CREATION</tspan></text>
      <path
         d="m 280.875,457.688 c 1.805,8.023 4,17.765 6.023,26.742"
         style="fill:none;stroke:#ff0000;stroke-width:1;stroke-linecap:butt;stroke-linejoin:miter;stroke-miterlimit:10;stroke-dasharray:none;stroke-opacity:1"
         id="path2979" />
      <path
         d="m 290.379,483.945 -1.215,10.528 -5.613,-8.989 z"
         style="fill:#ff0000;fill-opacity:1;fill-rule:nonzero;stroke:#ff0000;stroke-width:1;stroke-linecap:butt;stroke-linejoin:miter;stroke-miterlimit:10;stroke-dasharray:none;stroke-opacity:1"
         id="path2981" />
      <path
         d="m 162.5,530.5 c 0,0 59,0 59,0 6,0 12,-6 12,-12 0,0 0,-12 0,-12 0,-6 -6,-12 -12,-12 0,0 -59,0 -59,0 -6,0 -12,6 -12,12 0,0 0,12 0,12 0,6 6,12 12,12"
         style="fill:none;stroke:#000000;stroke-width:1;stroke-linecap:butt;stroke-linejoin:miter;stroke-miterlimit:10;stroke-dasharray:none;stroke-opacity:1"
         id="path2983" />
      <text
         xml:space="preserve"
         transform="translate(158.5,516.19922)"
         style="font-variant:normal;font-weight:normal;font-size:14.0002px;font-family:'Liberation Serif';-inkscape-font-specification:LiberationSerif;writing-mode:lr-tb;fill:#000000;fill-opacity:1;fill-rule:nonzero;stroke:none"
         id="text2987"><tspan
           x="0 9.0020475 18.004095 26.247997 34.49649 42.754395 47.248581 56.995102"
           y="0"
           sodipodi:role="line"
           id="tspan2985">CREATION</tspan></text>
      <path
         d="m 201.852,457.688 c -1.469,8.023 -3.25,17.765 -4.895,26.742"
         style="fill:none;stroke:#ff0000;stroke-width:1;stroke-linecap:butt;stroke-linejoin:miter;stroke-miterlimit:10;stroke-dasharray:none;stroke-opacity:1"
         id="path2989" />
      <path
         d="m 200.363,485.266 -5.246,9.207 -1.64,-10.469 z"
         style="fill:#ff0000;fill-opacity:1;fill-rule:nonzero;stroke:#ff0000;stroke-width:1;stroke-linecap:butt;stroke-linejoin:miter;stroke-miterlimit:10;stroke-dasharray:none;stroke-opacity:1"
         id="path2991" />
      <path
         d="m 99,384.5 c 0,0 30,0 30,0 6,0 12,-6 12,-12 0,0 0,-12 0,-12 0,-6 -6,-12 -12,-12 0,0 -30,0 -30,0 -6,0 -12,6 -12,12 0,0 0,12 0,12 0,6 6,12 12,12"
         style="fill:#d3d3d3;fill-opacity:1;fill-rule:nonzero;stroke:#d3d3d3;stroke-width:1;stroke-linecap:butt;stroke-linejoin:miter;stroke-miterlimit:10;stroke-dasharray:none;stroke-opacity:1"
         id="path2993" />
      <text
         xml:space="preserve"
         transform="translate(110.5,370.19922)"
         style="font-variant:normal;font-weight:normal;font-size:14.0002px;font-family:'Liberation Serif';-inkscape-font-specification:LiberationSerif;writing-mode:lr-tb;fill:#000000;fill-opacity:1;fill-rule:nonzero;stroke:none"
         id="text2997"><tspan
           x="0"
           y="0"
           id="tspan2995">3</tspan></text>
      <path
         d="m 246.5,567.5 h 81 v 36 h -81 z"
         style="fill:none;stroke:#000000;stroke-width:1;stroke-linecap:butt;stroke-linejoin:miter;stroke-miterlimit:10;stroke-dasharray:none;stroke-opacity:1"
         id="path2999" />
      <text
         xml:space="preserve"
         transform="translate(254.5,589.19922)"
         style="font-variant:normal;font-weight:normal;font-size:14.0002px;font-family:'Liberation Serif';-inkscape-font-specification:LiberationSerif;writing-mode:lr-tb;fill:#000000;fill-opacity:1;fill-rule:nonzero;stroke:none"
         id="text3003"><tspan
           x="0 4.4941878 11.256306 14.99437 18.746435 25.494555 30.002741 34.496929 39.005116 45.753235 49.505299 53.243366 60.005482"
           y="0"
           sodipodi:role="line"
           id="tspan3001">[1, 2]·[0, 1]</tspan></text>
      <path
         d="m 291.547,530.688 c -0.676,8.023 -1.5,17.765 -2.258,26.742"
         style="fill:none;stroke:#ff0000;stroke-width:1;stroke-linecap:butt;stroke-linejoin:miter;stroke-miterlimit:10;stroke-dasharray:none;stroke-opacity:1"
         id="path3005" />
      <path
         d="m 292.77,557.801 -4.332,9.672 -2.645,-10.262 z"
         style="fill:#ff0000;fill-opacity:1;fill-rule:nonzero;stroke:#ff0000;stroke-width:1;stroke-linecap:butt;stroke-linejoin:miter;stroke-miterlimit:10;stroke-dasharray:none;stroke-opacity:1"
         id="path3007" />
      <path
         d="m 168,567.5 h 60 v 36 h -60 z"
         style="fill:none;stroke:#000000;stroke-width:1;stroke-linecap:butt;stroke-linejoin:miter;stroke-miterlimit:10;stroke-dasharray:none;stroke-opacity:1"
         id="path3009" />
      <text
         xml:space="preserve"
         transform="translate(176,589.19922)"
         style="font-variant:normal;font-weight:normal;font-size:14.0002px;font-family:'Liberation Serif';-inkscape-font-specification:LiberationSerif;writing-mode:lr-tb;fill:#000000;fill-opacity:1;fill-rule:nonzero;stroke:none"
         id="text3013"><tspan
           x="0 4.4941878 9.0023756 13.496563 18.004751 24.752869 28.504934 32.257 39.005116"
           y="0"
           sodipodi:role="line"
           id="tspan3011">[]·[1, 2]</tspan></text>
      <path
         d="m 193.453,530.688 c 0.676,8.023 1.5,17.765 2.258,26.742"
         style="fill:none;stroke:#ff0000;stroke-width:1;stroke-linecap:butt;stroke-linejoin:miter;stroke-miterlimit:10;stroke-dasharray:none;stroke-opacity:1"
         id="path3015" />
      <path
         d="m 199.207,557.211 -2.645,10.262 -4.332,-9.672 z"
         style="fill:#ff0000;fill-opacity:1;fill-rule:nonzero;stroke:#ff0000;stroke-width:1;stroke-linecap:butt;stroke-linejoin:miter;stroke-miterlimit:10;stroke-dasharray:none;stroke-opacity:1"
         id="path3017" />
      <path
         d="m 106,421.5 h 54 v 36 h -54 z"
         style="fill:#add8e6;fill-opacity:1;fill-rule:nonzero;stroke:#add8e6;stroke-width:1;stroke-linecap:butt;stroke-linejoin:miter;stroke-miterlimit:10;stroke-dasharray:none;stroke-opacity:1"
         id="path3019" />
      <text
         xml:space="preserve"
         transform="translate(126,443.19922)"
         style="font-variant:normal;font-weight:normal;font-size:14.0002px;font-family:'Liberation Serif';-inkscape-font-specification:LiberationSerif;writing-mode:lr-tb;fill:#000000;fill-opacity:1;fill-rule:nonzero;stroke:none"
         id="text3023"><tspan
           x="0 6.7481174"
           y="0"
           sodipodi:role="line"
           id="tspan3021">n0</tspan></text>
      <path
         d="m 263.5,676.5 c 0,0 61,0 61,0 6,0 12,-6 12,-12 0,0 0,-12 0,-12 0,-6 -6,-12 -12,-12 0,0 -61,0 -61,0 -6,0 -12,6 -12,12 0,0 0,12 0,12 0,6 6,12 12,12"
         style="fill:none;stroke:#000000;stroke-width:1;stroke-linecap:butt;stroke-linejoin:miter;stroke-miterlimit:10;stroke-dasharray:none;stroke-opacity:1"
         id="path3025" />
      <text
         xml:space="preserve"
         transform="translate(259.5,662.19922)"
         style="font-variant:normal;font-weight:normal;font-size:14.0002px;font-family:'Liberation Serif';-inkscape-font-specification:LiberationSerif;writing-mode:lr-tb;fill:#000000;fill-opacity:1;fill-rule:nonzero;stroke:none"
         id="text3029"><tspan
           x="0 9.746521 19.493042 27.750944 35.24321 42.74947 50.993374 59.995422"
           y="0"
           sodipodi:role="line"
           id="tspan3027">NOEFFECT</tspan></text>
      <path
         d="m 288.695,603.688 c 0.789,8.023 1.75,17.765 2.637,26.742"
         style="fill:none;stroke:#000000;stroke-width:1;stroke-linecap:butt;stroke-linejoin:miter;stroke-miterlimit:10;stroke-dasharray:none;stroke-opacity:1"
         id="path3031" />
      <path
         d="m 294.824,630.176 -2.504,10.297 -4.465,-9.61 z"
         style="fill:#000000;fill-opacity:1;fill-rule:nonzero;stroke:#000000;stroke-width:1;stroke-linecap:butt;stroke-linejoin:miter;stroke-miterlimit:10;stroke-dasharray:none;stroke-opacity:1"
         id="path3033" />
      <path
         d="m 160.5,676.5 c 0,0 61,0 61,0 6,0 12,-6 12,-12 0,0 0,-12 0,-12 0,-6 -6,-12 -12,-12 0,0 -61,0 -61,0 -6,0 -12,6 -12,12 0,0 0,12 0,12 0,6 6,12 12,12"
         style="fill:none;stroke:#000000;stroke-width:1;stroke-linecap:butt;stroke-linejoin:miter;stroke-miterlimit:10;stroke-dasharray:none;stroke-opacity:1"
         id="path3035" />
      <text
         xml:space="preserve"
         transform="translate(156.5,662.19922)"
         style="font-variant:normal;font-weight:normal;font-size:14.0002px;font-family:'Liberation Serif';-inkscape-font-specification:LiberationSerif;writing-mode:lr-tb;fill:#000000;fill-opacity:1;fill-rule:nonzero;stroke:none"
         id="text3039"><tspan
           x="0 9.746521 19.493042 27.750944 35.24321 42.74947 50.993374 59.995422"
           y="0"
           sodipodi:role="line"
           id="tspan3037">NOEFFECT</tspan></text>
      <path
         d="m 196.305,603.688 c -0.789,8.023 -1.75,17.765 -2.637,26.742"
         style="fill:none;stroke:#000000;stroke-width:1;stroke-linecap:butt;stroke-linejoin:miter;stroke-miterlimit:10;stroke-dasharray:none;stroke-opacity:1"
         id="path3041" />
      <path
         d="m 197.145,630.863 -4.465,9.61 -2.504,-10.297 z"
         style="fill:#000000;fill-opacity:1;fill-rule:nonzero;stroke:#000000;stroke-width:1;stroke-linecap:butt;stroke-linejoin:miter;stroke-miterlimit:10;stroke-dasharray:none;stroke-opacity:1"
         id="path3043" />
      <path
         d="m 90,530.5 c 0,0 30,0 30,0 6,0 12,-6 12,-12 0,0 0,-12 0,-12 0,-6 -6,-12 -12,-12 0,0 -30,0 -30,0 -6,0 -12,6 -12,12 0,0 0,12 0,12 0,6 6,12 12,12"
         style="fill:#d3d3d3;fill-opacity:1;fill-rule:nonzero;stroke:#d3d3d3;stroke-width:1;stroke-linecap:butt;stroke-linejoin:miter;stroke-miterlimit:10;stroke-dasharray:none;stroke-opacity:1"
         id="path3045" />
      <text
         xml:space="preserve"
         transform="translate(101.5,516.19922)"
         style="font-variant:normal;font-weight:normal;font-size:14.0002px;font-family:'Liberation Serif';-inkscape-font-specification:LiberationSerif;writing-mode:lr-tb;fill:#000000;fill-opacity:1;fill-rule:nonzero;stroke:none"
         id="text3049"><tspan
           x="0"
           y="0"
           id="tspan3047">4</tspan></text>
      <path
         d="m 246.5,713.5 h 81 v 36 h -81 z"
         style="fill:none;stroke:#000000;stroke-width:1;stroke-linecap:butt;stroke-linejoin:miter;stroke-miterlimit:10;stroke-dasharray:none;stroke-opacity:1"
         id="path3051" />
      <text
         xml:space="preserve"
         transform="translate(254.5,735.19922)"
         style="font-variant:normal;font-weight:normal;font-size:14.0002px;font-family:'Liberation Serif';-inkscape-font-specification:LiberationSerif;writing-mode:lr-tb;fill:#000000;fill-opacity:1;fill-rule:nonzero;stroke:none"
         id="text3055"><tspan
           x="0 4.4941878 11.256306 14.99437 18.746435 25.494555 30.002741 34.496929 39.005116 45.753235 49.505299 53.243366 60.005482"
           y="0"
           sodipodi:role="line"
           id="tspan3053">[1, 2]·[0, 1]</tspan></text>
      <path
         d="m 292.305,676.688 c -0.789,8.023 -1.75,17.765 -2.637,26.742"
         style="fill:none;stroke:#000000;stroke-width:1;stroke-linecap:butt;stroke-linejoin:miter;stroke-miterlimit:10;stroke-dasharray:none;stroke-opacity:1"
         id="path3057" />
      <path
         d="m 293.145,703.863 -4.465,9.61 -2.504,-10.297 z"
         style="fill:#000000;fill-opacity:1;fill-rule:nonzero;stroke:#000000;stroke-width:1;stroke-linecap:butt;stroke-linejoin:miter;stroke-miterlimit:10;stroke-dasharray:none;stroke-opacity:1"
         id="path3059" />
      <path
         d="m 168,713.5 h 60 v 36 h -60 z"
         style="fill:none;stroke:#000000;stroke-width:1;stroke-linecap:butt;stroke-linejoin:miter;stroke-miterlimit:10;stroke-dasharray:none;stroke-opacity:1"
         id="path3061" />
      <text
         xml:space="preserve"
         transform="translate(176,735.19922)"
         style="font-variant:normal;font-weight:normal;font-size:14.0002px;font-family:'Liberation Serif';-inkscape-font-specification:LiberationSerif;writing-mode:lr-tb;fill:#000000;fill-opacity:1;fill-rule:nonzero;stroke:none"
         id="text3065"><tspan
           x="0 4.4941878 9.0023756 13.496563 18.004751 24.752869 28.504934 32.257 39.005116"
           y="0"
           sodipodi:role="line"
           id="tspan3063">[]·[1, 2]</tspan></text>
      <path
         d="m 192.695,676.688 c 0.789,8.023 1.75,17.765 2.637,26.742"
         style="fill:none;stroke:#000000;stroke-width:1;stroke-linecap:butt;stroke-linejoin:miter;stroke-miterlimit:10;stroke-dasharray:none;stroke-opacity:1"
         id="path3067" />
      <path
         d="m 198.824,703.176 -2.504,10.297 -4.465,-9.61 z"
         style="fill:#000000;fill-opacity:1;fill-rule:nonzero;stroke:#000000;stroke-width:1;stroke-linecap:butt;stroke-linejoin:miter;stroke-miterlimit:10;stroke-dasharray:none;stroke-opacity:1"
         id="path3069" />
      <path
         d="m 96,567.5 h 54 v 36 H 96 Z"
         style="fill:#add8e6;fill-opacity:1;fill-rule:nonzero;stroke:#add8e6;stroke-width:1;stroke-linecap:butt;stroke-linejoin:miter;stroke-miterlimit:10;stroke-dasharray:none;stroke-opacity:1"
         id="path3071" />
      <text
         xml:space="preserve"
         transform="translate(116,589.19922)"
         style="font-variant:normal;font-weight:normal;font-size:14.0002px;font-family:'Liberation Serif';-inkscape-font-specification:LiberationSerif;writing-mode:lr-tb;fill:#000000;fill-opacity:1;fill-rule:nonzero;stroke:none"
         id="text3075"><tspan
           x="0 6.7481174"
           y="0"
           sodipodi:role="line"
           id="tspan3073">n4</tspan></text>
      <path
         d="m 221.5,822.5 c 0,0 41,0 41,0 6,0 12,-6 12,-12 0,0 0,-12 0,-12 0,-6 -6,-12 -12,-12 0,0 -41,0 -41,0 -6,0 -12,6 -12,12 0,0 0,12 0,12 0,6 6,12 12,12"
         style="fill:none;stroke:#000000;stroke-width:1;stroke-linecap:butt;stroke-linejoin:miter;stroke-miterlimit:10;stroke-dasharray:none;stroke-opacity:1"
         id="path3077" />
      <text
         xml:space="preserve"
         transform="translate(217.5,808.19922)"
         style="font-variant:normal;font-weight:normal;font-size:14.0002px;font-family:'Liberation Serif';-inkscape-font-specification:LiberationSerif;writing-mode:lr-tb;fill:#000000;fill-opacity:1;fill-rule:nonzero;stroke:none"
         id="text3081"><tspan
           x="0 12.756465 21.000366 30.002413 39.748936"
           y="0"
           sodipodi:role="line"
           id="tspan3079">MERGE</tspan></text>
      <path
         d="m 276.105,749.688 c -5.359,8.46 -11.933,18.828 -17.871,28.199"
         style="fill:none;stroke:#ff0000;stroke-width:1;stroke-linecap:butt;stroke-linejoin:miter;stroke-miterlimit:10;stroke-dasharray:none;stroke-opacity:1"
         id="path3083" />
      <path
         d="m 261.102,779.898 -8.309,6.575 2.398,-10.321 z"
         style="fill:#ff0000;fill-opacity:1;fill-rule:nonzero;stroke:#ff0000;stroke-width:1;stroke-linecap:butt;stroke-linejoin:miter;stroke-miterlimit:10;stroke-dasharray:none;stroke-opacity:1"
         id="path3085" />
      <path
         d="m 208.652,749.688 c 5.243,8.46 11.668,18.828 17.477,28.199"
         style="fill:none;stroke:#000000;stroke-width:1;stroke-linecap:butt;stroke-linejoin:miter;stroke-miterlimit:10;stroke-dasharray:none;stroke-opacity:1"
         id="path3087" />
      <path
         d="m 229.152,776.129 2.293,10.344 -8.242,-6.657 z"
         style="fill:#000000;fill-opacity:1;fill-rule:nonzero;stroke:#000000;stroke-width:1;stroke-linecap:butt;stroke-linejoin:miter;stroke-miterlimit:10;stroke-dasharray:none;stroke-opacity:1"
         id="path3089" />
      <path
         d="m 88,676.5 c 0,0 30,0 30,0 6,0 12,-6 12,-12 0,0 0,-12 0,-12 0,-6 -6,-12 -12,-12 0,0 -30,0 -30,0 -6,0 -12,6 -12,12 0,0 0,12 0,12 0,6 6,12 12,12"
         style="fill:#d3d3d3;fill-opacity:1;fill-rule:nonzero;stroke:#d3d3d3;stroke-width:1;stroke-linecap:butt;stroke-linejoin:miter;stroke-miterlimit:10;stroke-dasharray:none;stroke-opacity:1"
         id="path3091" />
      <text
         xml:space="preserve"
         transform="translate(99.5,662.19922)"
         style="font-variant:normal;font-weight:normal;font-size:14.0002px;font-family:'Liberation Serif';-inkscape-font-specification:LiberationSerif;writing-mode:lr-tb;fill:#000000;fill-opacity:1;fill-rule:nonzero;stroke:none"
         id="text3095"><tspan
           x="0"
           y="0"
           id="tspan3093">5</tspan></text>
      <path
         d="m 212,859.5 h 60 v 36 h -60 z"
         style="fill:none;stroke:#000000;stroke-width:1;stroke-linecap:butt;stroke-linejoin:miter;stroke-miterlimit:10;stroke-dasharray:none;stroke-opacity:1"
         id="path3097" />
      <text
         xml:space="preserve"
         transform="translate(220,881.19922)"
         style="font-variant:normal;font-weight:normal;font-size:14.0002px;font-family:'Liberation Serif';-inkscape-font-specification:LiberationSerif;writing-mode:lr-tb;fill:#000000;fill-opacity:1;fill-rule:nonzero;stroke:none"
         id="text3101"><tspan
           x="0 4.4941878 9.0023756 13.496563 18.004751 24.752869 28.504934 32.257 39.005116"
           y="0"
           sodipodi:role="line"
           id="tspan3099">[]·[1, 2]</tspan></text>
      <path
         d="m 242,822.688 c 0,8.023 0,17.765 0,26.742"
         style="fill:none;stroke:#000000;stroke-width:1;stroke-linecap:butt;stroke-linejoin:miter;stroke-miterlimit:10;stroke-dasharray:none;stroke-opacity:1"
         id="path3103" />
      <path
         d="m 245.5,849.473 -3.5,10 -3.5,-10 z"
         style="fill:#000000;fill-opacity:1;fill-rule:nonzero;stroke:#000000;stroke-width:1;stroke-linecap:butt;stroke-linejoin:miter;stroke-miterlimit:10;stroke-dasharray:none;stroke-opacity:1"
         id="path3105" />
      <path
         d="m 96,713.5 h 54 v 36 H 96 Z"
         style="fill:#add8e6;fill-opacity:1;fill-rule:nonzero;stroke:#add8e6;stroke-width:1;stroke-linecap:butt;stroke-linejoin:miter;stroke-miterlimit:10;stroke-dasharray:none;stroke-opacity:1"
         id="path3107" />
      <text
         xml:space="preserve"
         transform="translate(119.5,735.19922)"
         style="font-variant:normal;font-weight:normal;font-size:14.0002px;font-family:'Liberation Serif';-inkscape-font-specification:LiberationSerif;writing-mode:lr-tb;fill:#000000;fill-opacity:1;fill-rule:nonzero;stroke:none"
         id="text3111"><tspan
           x="0"
           y="0"
           id="tspan3109">ø</tspan></text>
      <path
         d="m 149,822.5 c 0,0 30,0 30,0 6,0 12,-6 12,-12 0,0 0,-12 0,-12 0,-6 -6,-12 -12,-12 0,0 -30,0 -30,0 -6,0 -12,6 -12,12 0,0 0,12 0,12 0,6 6,12 12,12"
         style="fill:#d3d3d3;fill-opacity:1;fill-rule:nonzero;stroke:#d3d3d3;stroke-width:1;stroke-linecap:butt;stroke-linejoin:miter;stroke-miterlimit:10;stroke-dasharray:none;stroke-opacity:1"
         id="path3113" />
      <text
         xml:space="preserve"
         transform="translate(160.5,808.19922)"
         style="font-variant:normal;font-weight:normal;font-size:14.0002px;font-family:'Liberation Serif';-inkscape-font-specification:LiberationSerif;writing-mode:lr-tb;fill:#000000;fill-opacity:1;fill-rule:nonzero;stroke:none"
         id="text3117"><tspan
           x="0"
           y="0"
           id="tspan3115">6</tspan></text>
      <path
         d="m 140,859.5 h 54 v 36 h -54 z"
         style="fill:#add8e6;fill-opacity:1;fill-rule:nonzero;stroke:#add8e6;stroke-width:1;stroke-linecap:butt;stroke-linejoin:miter;stroke-miterlimit:10;stroke-dasharray:none;stroke-opacity:1"
         id="path3119" />
      <text
         xml:space="preserve"
         transform="translate(160,881.19922)"
         style="font-variant:normal;font-weight:normal;font-size:14.0002px;font-family:'Liberation Serif';-inkscape-font-specification:LiberationSerif;writing-mode:lr-tb;fill:#000000;fill-opacity:1;fill-rule:nonzero;stroke:none"
         id="text3123"><tspan
           x="0 6.7481174"
           y="0"
           sodipodi:role="line"
           id="tspan3121">n2</tspan></text>
    </g>
  </g>
</svg>
