<?xml version="1.0" encoding="UTF-8" standalone="no"?>
<!-- Created with Inkscape (http://www.inkscape.org/) -->

<svg
   version="1.1"
   id="svg985"
   width="233.33333"
   height="558.66663"
   viewBox="0 0 233.33333 558.66662"
   sodipodi:docname="hr-rejeu-ajout-2-export.svg"
   inkscape:version="1.2.2 (b0a8486541, 2022-12-01)"
   xmlns:inkscape="http://www.inkscape.org/namespaces/inkscape"
   xmlns:sodipodi="http://sodipodi.sourceforge.net/DTD/sodipodi-0.dtd"
   xmlns="http://www.w3.org/2000/svg"
   xmlns:svg="http://www.w3.org/2000/svg">
  <defs
     id="defs989" />
  <sodipodi:namedview
     id="namedview987"
     pagecolor="#ffffff"
     bordercolor="#000000"
     borderopacity="0.25"
     inkscape:showpageshadow="2"
     inkscape:pageopacity="0.0"
     inkscape:pagecheckerboard="0"
     inkscape:deskcolor="#d1d1d1"
     showgrid="false"
     inkscape:zoom="1.2621596"
     inkscape:cx="116.46705"
     inkscape:cy="279.28323"
     inkscape:window-width="1908"
     inkscape:window-height="1048"
     inkscape:window-x="1085"
     inkscape:window-y="25"
     inkscape:window-maximized="1"
     inkscape:current-layer="g993">
    <inkscape:page
       x="0"
       y="0"
       id="page991"
       width="233.33333"
       height="558.66663" />
  </sodipodi:namedview>
  <g
     id="g993"
     inkscape:groupmode="layer"
     inkscape:label="Page 1"
     transform="matrix(1.3333333,0,0,1.3333333,-63.333332,-63.333332)">
    <g
       id="g995">
      <path
         d="m 61,101 c 0,0 148,0 148,0 6,0 12,-6 12,-12 0,0 0,-29 0,-29 0,-6 -6,-12 -12,-12 0,0 -148,0 -148,0 -6,0 -12,6 -12,12 0,0 0,29 0,29 0,6 6,12 12,12"
         style="fill:none;stroke:#000000;stroke-width:1;stroke-linecap:butt;stroke-linejoin:miter;stroke-miterlimit:10;stroke-dasharray:none;stroke-opacity:1"
         id="path997" />
      <path
         d="m 61,121 h 148 v 53 H 61 Z"
         style="fill:none;stroke:#000000;stroke-width:1;stroke-linecap:butt;stroke-linejoin:miter;stroke-miterlimit:10;stroke-dasharray:none;stroke-opacity:1"
         id="path999" />
      <path
         d="m 61,247 c 0,0 148,0 148,0 6,0 12,-6 12,-12 0,0 0,-29 0,-29 0,-6 -6,-12 -12,-12 0,0 -148,0 -148,0 -6,0 -12,6 -12,12 0,0 0,29 0,29 0,6 6,12 12,12"
         style="fill:none;stroke:#000000;stroke-width:1;stroke-linecap:butt;stroke-linejoin:miter;stroke-miterlimit:10;stroke-dasharray:none;stroke-opacity:1"
         id="path1001" />
      <path
         d="m 61,267 h 148 v 53 H 61 Z"
         style="fill:none;stroke:#000000;stroke-width:1;stroke-linecap:butt;stroke-linejoin:miter;stroke-miterlimit:10;stroke-dasharray:none;stroke-opacity:1"
         id="path1003" />
      <path
         d="m 60,393 c 0,0 150,0 150,0 6,0 12,-6 12,-12 0,0 0,-29 0,-29 0,-6 -6,-12 -12,-12 0,0 -150,0 -150,0 -6,0 -12,6 -12,12 0,0 0,29 0,29 0,6 6,12 12,12"
         style="fill:none;stroke:#000000;stroke-width:1;stroke-linecap:butt;stroke-linejoin:miter;stroke-miterlimit:10;stroke-dasharray:none;stroke-opacity:1"
         id="path1005" />
      <path
         d="m 61,413 h 148 v 53 H 61 Z"
         style="fill:none;stroke:#000000;stroke-width:1;stroke-linecap:butt;stroke-linejoin:miter;stroke-miterlimit:10;stroke-dasharray:none;stroke-opacity:1"
         id="path1007" />
      <path
         d="m 141.5,92.5 c 0,0 59,0 59,0 6,0 12,-6 12,-12 0,0 0,-12 0,-12 0,-6 -6,-12 -12,-12 0,0 -59,0 -59,0 -6,0 -12,6 -12,12 0,0 0,12 0,12 0,6 6,12 12,12"
         style="fill:none;stroke:#000000;stroke-width:1;stroke-linecap:butt;stroke-linejoin:miter;stroke-miterlimit:10;stroke-dasharray:none;stroke-opacity:1"
         id="path1009" />
      <text
         xml:space="preserve"
         transform="translate(137.5,78.199219)"
         style="font-variant:normal;font-weight:normal;font-size:14.0002px;font-family:'Liberation Serif';-inkscape-font-specification:LiberationSerif;writing-mode:lr-tb;fill:#000000;fill-opacity:1;fill-rule:nonzero;stroke:none"
         id="text1013"><tspan
           x="0 9.0020475 18.004095 26.247997 34.49649 42.754395 47.248581 56.995102"
           y="0"
           sodipodi:role="line"
           id="tspan1011">CREATION</tspan></text>
      <path
         d="m 141,129.5 h 60 v 36 h -60 z"
         style="fill:none;stroke:#000000;stroke-width:1;stroke-linecap:butt;stroke-linejoin:miter;stroke-miterlimit:10;stroke-dasharray:none;stroke-opacity:1"
         id="path1015" />
      <text
         xml:space="preserve"
         transform="translate(149,151.19922)"
         style="font-variant:normal;font-weight:normal;font-size:14.0002px;font-family:'Liberation Serif';-inkscape-font-specification:LiberationSerif;writing-mode:lr-tb;fill:#000000;fill-opacity:1;fill-rule:nonzero;stroke:none"
         id="text1019"><tspan
           x="0 4.4941878 9.0023756 13.496563 18.004751 24.752869 28.504934 32.257 39.005116"
           y="0"
           sodipodi:role="line"
           id="tspan1017">[]·[0, 1]</tspan></text>
      <path
         d="m 171,92.688 c 0,8.023 0,17.765 0,26.742"
         style="fill:none;stroke:#ff0000;stroke-width:1;stroke-linecap:butt;stroke-linejoin:miter;stroke-miterlimit:10;stroke-dasharray:none;stroke-opacity:1"
         id="path1021" />
      <path
         d="m 174.5,119.473 -3.5,10 -3.5,-10 z"
         style="fill:#ff0000;fill-opacity:1;fill-rule:nonzero;stroke:#ff0000;stroke-width:1;stroke-linecap:butt;stroke-linejoin:miter;stroke-miterlimit:10;stroke-dasharray:none;stroke-opacity:1"
         id="path1023" />
      <path
         d="m 141.5,238.5 c 0,0 59,0 59,0 6,0 12,-6 12,-12 0,0 0,-12 0,-12 0,-6 -6,-12 -12,-12 0,0 -59,0 -59,0 -6,0 -12,6 -12,12 0,0 0,12 0,12 0,6 6,12 12,12"
         style="fill:none;stroke:#000000;stroke-width:1;stroke-linecap:butt;stroke-linejoin:miter;stroke-miterlimit:10;stroke-dasharray:none;stroke-opacity:1"
         id="path1025" />
      <text
         xml:space="preserve"
         transform="translate(137.5,224.19922)"
         style="font-variant:normal;font-weight:normal;font-size:14.0002px;font-family:'Liberation Serif';-inkscape-font-specification:LiberationSerif;writing-mode:lr-tb;fill:#000000;fill-opacity:1;fill-rule:nonzero;stroke:none"
         id="text1029"><tspan
           x="0 9.0020475 18.004095 26.247997 34.49649 42.754395 47.248581 56.995102"
           y="0"
           sodipodi:role="line"
           id="tspan1027">CREATION</tspan></text>
      <path
         d="m 171,165.688 c 0,8.023 0,17.765 0,26.742"
         style="fill:none;stroke:#ff0000;stroke-width:1;stroke-linecap:butt;stroke-linejoin:miter;stroke-miterlimit:10;stroke-dasharray:none;stroke-opacity:1"
         id="path1031" />
      <path
         d="m 174.5,192.473 -3.5,10 -3.5,-10 z"
         style="fill:#ff0000;fill-opacity:1;fill-rule:nonzero;stroke:#ff0000;stroke-width:1;stroke-linecap:butt;stroke-linejoin:miter;stroke-miterlimit:10;stroke-dasharray:none;stroke-opacity:1"
         id="path1033" />
      <path
         d="m 69,92.5 c 0,0 30,0 30,0 6,0 12,-6 12,-12 0,0 0,-12 0,-12 0,-6 -6,-12 -12,-12 0,0 -30,0 -30,0 -6,0 -12,6 -12,12 0,0 0,12 0,12 0,6 6,12 12,12"
         style="fill:#d3d3d3;fill-opacity:1;fill-rule:nonzero;stroke:#d3d3d3;stroke-width:1;stroke-linecap:butt;stroke-linejoin:miter;stroke-miterlimit:10;stroke-dasharray:none;stroke-opacity:1"
         id="path1035" />
      <text
         xml:space="preserve"
         transform="translate(80.5,78.199219)"
         style="font-variant:normal;font-weight:normal;font-size:14.0002px;font-family:'Liberation Serif';-inkscape-font-specification:LiberationSerif;writing-mode:lr-tb;fill:#000000;fill-opacity:1;fill-rule:nonzero;stroke:none"
         id="text1039"><tspan
           x="0"
           y="0"
           id="tspan1037">1</tspan></text>
      <path
         d="m 141,275.5 h 60 v 36 h -60 z"
         style="fill:none;stroke:#000000;stroke-width:1;stroke-linecap:butt;stroke-linejoin:miter;stroke-miterlimit:10;stroke-dasharray:none;stroke-opacity:1"
         id="path1041" />
      <text
         xml:space="preserve"
         transform="translate(149,297.19922)"
         style="font-variant:normal;font-weight:normal;font-size:14.0002px;font-family:'Liberation Serif';-inkscape-font-specification:LiberationSerif;writing-mode:lr-tb;fill:#000000;fill-opacity:1;fill-rule:nonzero;stroke:none"
         id="text1045"><tspan
           x="0 4.4941878 9.0023756 13.496563 18.004751 24.752869 28.504934 32.257 39.005116"
           y="0"
           sodipodi:role="line"
           id="tspan1043">[]·[0, 1]</tspan></text>
      <path
         d="m 171,238.688 c 0,8.023 0,17.765 0,26.742"
         style="fill:none;stroke:#ff0000;stroke-width:1;stroke-linecap:butt;stroke-linejoin:miter;stroke-miterlimit:10;stroke-dasharray:none;stroke-opacity:1"
         id="path1047" />
      <path
         d="m 174.5,265.473 -3.5,10 -3.5,-10 z"
         style="fill:#ff0000;fill-opacity:1;fill-rule:nonzero;stroke:#ff0000;stroke-width:1;stroke-linecap:butt;stroke-linejoin:miter;stroke-miterlimit:10;stroke-dasharray:none;stroke-opacity:1"
         id="path1049" />
      <path
         d="m 69,129.5 h 54 v 36 H 69 Z"
         style="fill:#add8e6;fill-opacity:1;fill-rule:nonzero;stroke:#add8e6;stroke-width:1;stroke-linecap:butt;stroke-linejoin:miter;stroke-miterlimit:10;stroke-dasharray:none;stroke-opacity:1"
         id="path1051" />
      <text
         xml:space="preserve"
         transform="translate(89,151.19922)"
         style="font-variant:normal;font-weight:normal;font-size:14.0002px;font-family:'Liberation Serif';-inkscape-font-specification:LiberationSerif;writing-mode:lr-tb;fill:#000000;fill-opacity:1;fill-rule:nonzero;stroke:none"
         id="text1055"><tspan
           x="0 6.7481174"
           y="0"
           sodipodi:role="line"
           id="tspan1053">n3</tspan></text>
      <path
         d="m 140.5,384.5 c 0,0 61,0 61,0 6,0 12,-6 12,-12 0,0 0,-12 0,-12 0,-6 -6,-12 -12,-12 0,0 -61,0 -61,0 -6,0 -12,6 -12,12 0,0 0,12 0,12 0,6 6,12 12,12"
         style="fill:none;stroke:#000000;stroke-width:1;stroke-linecap:butt;stroke-linejoin:miter;stroke-miterlimit:10;stroke-dasharray:none;stroke-opacity:1"
         id="path1057" />
      <text
         xml:space="preserve"
         transform="translate(136.5,370.19922)"
         style="font-variant:normal;font-weight:normal;font-size:14.0002px;font-family:'Liberation Serif';-inkscape-font-specification:LiberationSerif;writing-mode:lr-tb;fill:#000000;fill-opacity:1;fill-rule:nonzero;stroke:none"
         id="text1061"><tspan
           x="0 9.746521 19.493042 27.750944 35.24321 42.74947 50.993374 59.995422"
           y="0"
           sodipodi:role="line"
           id="tspan1059">NOEFFECT</tspan></text>
      <path
         d="m 171,311.688 c 0,8.023 0,17.765 0,26.742"
         style="fill:none;stroke:#000000;stroke-width:1;stroke-linecap:butt;stroke-linejoin:miter;stroke-miterlimit:10;stroke-dasharray:none;stroke-opacity:1"
         id="path1063" />
      <path
         d="m 174.5,338.473 -3.5,10 -3.5,-10 z"
         style="fill:#000000;fill-opacity:1;fill-rule:nonzero;stroke:#000000;stroke-width:1;stroke-linecap:butt;stroke-linejoin:miter;stroke-miterlimit:10;stroke-dasharray:none;stroke-opacity:1"
         id="path1065" />
      <path
         d="m 69,238.5 c 0,0 30,0 30,0 6,0 12,-6 12,-12 0,0 0,-12 0,-12 0,-6 -6,-12 -12,-12 0,0 -30,0 -30,0 -6,0 -12,6 -12,12 0,0 0,12 0,12 0,6 6,12 12,12"
         style="fill:#d3d3d3;fill-opacity:1;fill-rule:nonzero;stroke:#d3d3d3;stroke-width:1;stroke-linecap:butt;stroke-linejoin:miter;stroke-miterlimit:10;stroke-dasharray:none;stroke-opacity:1"
         id="path1067" />
      <text
         xml:space="preserve"
         transform="translate(80.5,224.19922)"
         style="font-variant:normal;font-weight:normal;font-size:14.0002px;font-family:'Liberation Serif';-inkscape-font-specification:LiberationSerif;writing-mode:lr-tb;fill:#000000;fill-opacity:1;fill-rule:nonzero;stroke:none"
         id="text1071"><tspan
           x="0"
           y="0"
           id="tspan1069">2</tspan></text>
      <path
         d="m 141,421.5 h 60 v 36 h -60 z"
         style="fill:none;stroke:#000000;stroke-width:1;stroke-linecap:butt;stroke-linejoin:miter;stroke-miterlimit:10;stroke-dasharray:none;stroke-opacity:1"
         id="path1073" />
      <text
         xml:space="preserve"
         transform="translate(149,443.19922)"
         style="font-variant:normal;font-weight:normal;font-size:14.0002px;font-family:'Liberation Serif';-inkscape-font-specification:LiberationSerif;writing-mode:lr-tb;fill:#000000;fill-opacity:1;fill-rule:nonzero;stroke:none"
         id="text1077"><tspan
           x="0 4.4941878 9.0023756 13.496563 18.004751 24.752869 28.504934 32.257 39.005116"
           y="0"
           sodipodi:role="line"
           id="tspan1075">[]·[0, 1]</tspan></text>
      <path
         d="m 171,384.688 c 0,8.023 0,17.765 0,26.742"
         style="fill:none;stroke:#000000;stroke-width:1;stroke-linecap:butt;stroke-linejoin:miter;stroke-miterlimit:10;stroke-dasharray:none;stroke-opacity:1"
         id="path1079" />
      <path
         d="m 174.5,411.473 -3.5,10 -3.5,-10 z"
         style="fill:#000000;fill-opacity:1;fill-rule:nonzero;stroke:#000000;stroke-width:1;stroke-linecap:butt;stroke-linejoin:miter;stroke-miterlimit:10;stroke-dasharray:none;stroke-opacity:1"
         id="path1081" />
      <path
         d="m 69,275.5 h 54 v 36 H 69 Z"
         style="fill:#add8e6;fill-opacity:1;fill-rule:nonzero;stroke:#add8e6;stroke-width:1;stroke-linecap:butt;stroke-linejoin:miter;stroke-miterlimit:10;stroke-dasharray:none;stroke-opacity:1"
         id="path1083" />
      <text
         xml:space="preserve"
         transform="translate(89,297.19922)"
         style="font-variant:normal;font-weight:normal;font-size:14.0002px;font-family:'Liberation Serif';-inkscape-font-specification:LiberationSerif;writing-mode:lr-tb;fill:#000000;fill-opacity:1;fill-rule:nonzero;stroke:none"
         id="text1087"><tspan
           x="0 6.7481174"
           y="0"
           sodipodi:role="line"
           id="tspan1085">n6</tspan></text>
      <path
         d="m 68,384.5 c 0,0 30,0 30,0 6,0 12,-6 12,-12 0,0 0,-12 0,-12 0,-6 -6,-12 -12,-12 0,0 -30,0 -30,0 -6,0 -12,6 -12,12 0,0 0,12 0,12 0,6 6,12 12,12"
         style="fill:#d3d3d3;fill-opacity:1;fill-rule:nonzero;stroke:#d3d3d3;stroke-width:1;stroke-linecap:butt;stroke-linejoin:miter;stroke-miterlimit:10;stroke-dasharray:none;stroke-opacity:1"
         id="path1089" />
      <text
         xml:space="preserve"
         transform="translate(79.5,370.19922)"
         style="font-variant:normal;font-weight:normal;font-size:14.0002px;font-family:'Liberation Serif';-inkscape-font-specification:LiberationSerif;writing-mode:lr-tb;fill:#000000;fill-opacity:1;fill-rule:nonzero;stroke:none"
         id="text1093"><tspan
           x="0"
           y="0"
           id="tspan1091">3</tspan></text>
      <path
         d="m 69,421.5 h 54 v 36 H 69 Z"
         style="fill:#add8e6;fill-opacity:1;fill-rule:nonzero;stroke:#add8e6;stroke-width:1;stroke-linecap:butt;stroke-linejoin:miter;stroke-miterlimit:10;stroke-dasharray:none;stroke-opacity:1"
         id="path1095" />
      <text
         xml:space="preserve"
         transform="translate(92.5,443.19922)"
         style="font-variant:normal;font-weight:normal;font-size:14.0002px;font-family:'Liberation Serif';-inkscape-font-specification:LiberationSerif;writing-mode:lr-tb;fill:#000000;fill-opacity:1;fill-rule:nonzero;stroke:none"
         id="text1099"><tspan
           x="0"
           y="0"
           id="tspan1097">ø</tspan></text>
    </g>
  </g>
</svg>
