<?xml version="1.0" encoding="UTF-8" standalone="no"?>
<!-- Created with Inkscape (http://www.inkscape.org/) -->

<svg
   version="1.1"
   id="svg659"
   width="230.66666"
   height="364"
   viewBox="0 0 230.66665 364"
   sodipodi:docname="hr-rejeu-ajout-1-export.svg"
   inkscape:version="1.2.2 (b0a8486541, 2022-12-01)"
   xmlns:inkscape="http://www.inkscape.org/namespaces/inkscape"
   xmlns:sodipodi="http://sodipodi.sourceforge.net/DTD/sodipodi-0.dtd"
   xmlns="http://www.w3.org/2000/svg"
   xmlns:svg="http://www.w3.org/2000/svg">
  <defs
     id="defs663" />
  <sodipodi:namedview
     id="namedview661"
     pagecolor="#ffffff"
     bordercolor="#000000"
     borderopacity="0.25"
     inkscape:showpageshadow="2"
     inkscape:pageopacity="0.0"
     inkscape:pagecheckerboard="0"
     inkscape:deskcolor="#d1d1d1"
     showgrid="false"
     inkscape:zoom="1.7629077"
     inkscape:cx="115.15067"
     inkscape:cy="181.80192"
     inkscape:window-width="1908"
     inkscape:window-height="1048"
     inkscape:window-x="1085"
     inkscape:window-y="25"
     inkscape:window-maximized="1"
     inkscape:current-layer="g667">
    <inkscape:page
       x="0"
       y="0"
       id="page665"
       width="230.66666"
       height="364" />
  </sodipodi:namedview>
  <g
     id="g667"
     inkscape:groupmode="layer"
     inkscape:label="Page 1"
     transform="matrix(1.3333333,0,0,1.3333333,-63.333332,-63.333332)">
    <g
       id="g669">
      <path
         d="m 60,101 c 0,0 148,0 148,0 6,0 12,-6 12,-12 0,0 0,-29 0,-29 0,-6 -6,-12 -12,-12 0,0 -148,0 -148,0 -6,0 -12,6 -12,12 0,0 0,29 0,29 0,6 6,12 12,12"
         style="fill:none;stroke:#000000;stroke-width:1;stroke-linecap:butt;stroke-linejoin:miter;stroke-miterlimit:10;stroke-dasharray:none;stroke-opacity:1"
         id="path671" />
      <path
         d="m 63,121 h 142 v 53 H 63 Z"
         style="fill:none;stroke:#000000;stroke-width:1;stroke-linecap:butt;stroke-linejoin:miter;stroke-miterlimit:10;stroke-dasharray:none;stroke-opacity:1"
         id="path673" />
      <path
         d="m 60,247 c 0,0 148,0 148,0 6,0 12,-6 12,-12 0,0 0,-29 0,-29 0,-6 -6,-12 -12,-12 0,0 -148,0 -148,0 -6,0 -12,6 -12,12 0,0 0,29 0,29 0,6 6,12 12,12"
         style="fill:none;stroke:#000000;stroke-width:1;stroke-linecap:butt;stroke-linejoin:miter;stroke-miterlimit:10;stroke-dasharray:none;stroke-opacity:1"
         id="path675" />
      <path
         d="m 53,267 h 162 v 53 H 53 Z"
         style="fill:none;stroke:#000000;stroke-width:1;stroke-linecap:butt;stroke-linejoin:miter;stroke-miterlimit:10;stroke-dasharray:none;stroke-opacity:1"
         id="path677" />
      <path
         d="m 140.5,92.5 c 0,0 59,0 59,0 6,0 12,-6 12,-12 0,0 0,-12 0,-12 0,-6 -6,-12 -12,-12 0,0 -59,0 -59,0 -6,0 -12,6 -12,12 0,0 0,12 0,12 0,6 6,12 12,12"
         style="fill:none;stroke:#000000;stroke-width:1;stroke-linecap:butt;stroke-linejoin:miter;stroke-miterlimit:10;stroke-dasharray:none;stroke-opacity:1"
         id="path679" />
      <text
         xml:space="preserve"
         transform="translate(136.5,78.199219)"
         style="font-variant:normal;font-weight:normal;font-size:14.0002px;font-family:'Liberation Serif';-inkscape-font-specification:LiberationSerif;writing-mode:lr-tb;fill:#000000;fill-opacity:1;fill-rule:nonzero;stroke:none"
         id="text683"><tspan
           x="0 9.0020475 18.004095 26.247997 34.49649 42.754395 47.248581 56.995102"
           y="0"
           sodipodi:role="line"
           id="tspan681">CREATION</tspan></text>
      <path
         d="m 143,129.5 h 54 v 36 h -54 z"
         style="fill:none;stroke:#000000;stroke-width:1;stroke-linecap:butt;stroke-linejoin:miter;stroke-miterlimit:10;stroke-dasharray:none;stroke-opacity:1"
         id="path685" />
      <text
         xml:space="preserve"
         transform="translate(155,151.19922)"
         style="font-variant:normal;font-weight:normal;font-size:14.0002px;font-family:'Liberation Serif';-inkscape-font-specification:LiberationSerif;writing-mode:lr-tb;fill:#000000;fill-opacity:1;fill-rule:nonzero;stroke:none"
         id="text689"><tspan
           x="0 4.4941878 9.0023756 13.496563 18.004751 24.752869"
           y="0"
           sodipodi:role="line"
           id="tspan687">[]·[0]</tspan></text>
      <path
         d="m 170,92.688 c 0,8.023 0,17.765 0,26.742"
         style="fill:none;stroke:#ff0000;stroke-width:1;stroke-linecap:butt;stroke-linejoin:miter;stroke-miterlimit:10;stroke-dasharray:none;stroke-opacity:1"
         id="path691" />
      <path
         d="m 173.5,119.473 -3.5,10 -3.5,-10 z"
         style="fill:#ff0000;fill-opacity:1;fill-rule:nonzero;stroke:#ff0000;stroke-width:1;stroke-linecap:butt;stroke-linejoin:miter;stroke-miterlimit:10;stroke-dasharray:none;stroke-opacity:1"
         id="path693" />
      <path
         d="m 140.5,238.5 c 0,0 59,0 59,0 6,0 12,-6 12,-12 0,0 0,-12 0,-12 0,-6 -6,-12 -12,-12 0,0 -59,0 -59,0 -6,0 -12,6 -12,12 0,0 0,12 0,12 0,6 6,12 12,12"
         style="fill:none;stroke:#000000;stroke-width:1;stroke-linecap:butt;stroke-linejoin:miter;stroke-miterlimit:10;stroke-dasharray:none;stroke-opacity:1"
         id="path695" />
      <text
         xml:space="preserve"
         transform="translate(136.5,224.19922)"
         style="font-variant:normal;font-weight:normal;font-size:14.0002px;font-family:'Liberation Serif';-inkscape-font-specification:LiberationSerif;writing-mode:lr-tb;fill:#000000;fill-opacity:1;fill-rule:nonzero;stroke:none"
         id="text699"><tspan
           x="0 9.0020475 18.004095 26.247997 34.49649 42.754395 47.248581 56.995102"
           y="0"
           sodipodi:role="line"
           id="tspan697">CREATION</tspan></text>
      <path
         d="m 170,165.688 c 0,8.023 0,17.765 0,26.742"
         style="fill:none;stroke:#ff0000;stroke-width:1;stroke-linecap:butt;stroke-linejoin:miter;stroke-miterlimit:10;stroke-dasharray:none;stroke-opacity:1"
         id="path701" />
      <path
         d="m 173.5,192.473 -3.5,10 -3.5,-10 z"
         style="fill:#ff0000;fill-opacity:1;fill-rule:nonzero;stroke:#ff0000;stroke-width:1;stroke-linecap:butt;stroke-linejoin:miter;stroke-miterlimit:10;stroke-dasharray:none;stroke-opacity:1"
         id="path703" />
      <path
         d="m 68,92.5 c 0,0 30,0 30,0 6,0 12,-6 12,-12 0,0 0,-12 0,-12 0,-6 -6,-12 -12,-12 0,0 -30,0 -30,0 -6,0 -12,6 -12,12 0,0 0,12 0,12 0,6 6,12 12,12"
         style="fill:#d3d3d3;fill-opacity:1;fill-rule:nonzero;stroke:#d3d3d3;stroke-width:1;stroke-linecap:butt;stroke-linejoin:miter;stroke-miterlimit:10;stroke-dasharray:none;stroke-opacity:1"
         id="path705" />
      <text
         xml:space="preserve"
         transform="translate(79.5,78.199219)"
         style="font-variant:normal;font-weight:normal;font-size:14.0002px;font-family:'Liberation Serif';-inkscape-font-specification:LiberationSerif;writing-mode:lr-tb;fill:#000000;fill-opacity:1;fill-rule:nonzero;stroke:none"
         id="text709"><tspan
           x="0"
           y="0"
           id="tspan707">1</tspan></text>
      <path
         d="m 133,275.5 h 74 v 36 h -74 z"
         style="fill:none;stroke:#000000;stroke-width:1;stroke-linecap:butt;stroke-linejoin:miter;stroke-miterlimit:10;stroke-dasharray:none;stroke-opacity:1"
         id="path711" />
      <text
         xml:space="preserve"
         transform="translate(141,297.19922)"
         style="font-variant:normal;font-weight:normal;font-size:14.0002px;font-family:'Liberation Serif';-inkscape-font-specification:LiberationSerif;writing-mode:lr-tb;fill:#000000;fill-opacity:1;fill-rule:nonzero;stroke:none"
         id="text715"><tspan
           x="0 4.4941878 9.0023756 13.496563 18.004751 24.752869 28.504934 32.257 39.005116 42.743183 46.495247 53.243366"
           y="0"
           sodipodi:role="line"
           id="tspan713">[]·[0, 2, 3]</tspan></text>
      <path
         d="m 170,238.688 c 0,8.023 0,17.765 0,26.742"
         style="fill:none;stroke:#ff0000;stroke-width:1;stroke-linecap:butt;stroke-linejoin:miter;stroke-miterlimit:10;stroke-dasharray:none;stroke-opacity:1"
         id="path717" />
      <path
         d="m 173.5,265.473 -3.5,10 -3.5,-10 z"
         style="fill:#ff0000;fill-opacity:1;fill-rule:nonzero;stroke:#ff0000;stroke-width:1;stroke-linecap:butt;stroke-linejoin:miter;stroke-miterlimit:10;stroke-dasharray:none;stroke-opacity:1"
         id="path719" />
      <path
         d="m 71,129.5 h 54 v 36 H 71 Z"
         style="fill:#add8e6;fill-opacity:1;fill-rule:nonzero;stroke:#add8e6;stroke-width:1;stroke-linecap:butt;stroke-linejoin:miter;stroke-miterlimit:10;stroke-dasharray:none;stroke-opacity:1"
         id="path721" />
      <text
         xml:space="preserve"
         transform="translate(91,151.19922)"
         style="font-variant:normal;font-weight:normal;font-size:14.0002px;font-family:'Liberation Serif';-inkscape-font-specification:LiberationSerif;writing-mode:lr-tb;fill:#000000;fill-opacity:1;fill-rule:nonzero;stroke:none"
         id="text725"><tspan
           x="0 6.7481174"
           y="0"
           sodipodi:role="line"
           id="tspan723">n5</tspan></text>
      <path
         d="m 68,238.5 c 0,0 30,0 30,0 6,0 12,-6 12,-12 0,0 0,-12 0,-12 0,-6 -6,-12 -12,-12 0,0 -30,0 -30,0 -6,0 -12,6 -12,12 0,0 0,12 0,12 0,6 6,12 12,12"
         style="fill:#d3d3d3;fill-opacity:1;fill-rule:nonzero;stroke:#d3d3d3;stroke-width:1;stroke-linecap:butt;stroke-linejoin:miter;stroke-miterlimit:10;stroke-dasharray:none;stroke-opacity:1"
         id="path727" />
      <text
         xml:space="preserve"
         transform="translate(79.5,224.19922)"
         style="font-variant:normal;font-weight:normal;font-size:14.0002px;font-family:'Liberation Serif';-inkscape-font-specification:LiberationSerif;writing-mode:lr-tb;fill:#000000;fill-opacity:1;fill-rule:nonzero;stroke:none"
         id="text731"><tspan
           x="0"
           y="0"
           id="tspan729">2</tspan></text>
      <path
         d="m 61,275.5 h 54 v 36 H 61 Z"
         style="fill:#add8e6;fill-opacity:1;fill-rule:nonzero;stroke:#add8e6;stroke-width:1;stroke-linecap:butt;stroke-linejoin:miter;stroke-miterlimit:10;stroke-dasharray:none;stroke-opacity:1"
         id="path733" />
      <text
         xml:space="preserve"
         transform="translate(81,297.19922)"
         style="font-variant:normal;font-weight:normal;font-size:14.0002px;font-family:'Liberation Serif';-inkscape-font-specification:LiberationSerif;writing-mode:lr-tb;fill:#000000;fill-opacity:1;fill-rule:nonzero;stroke:none"
         id="text737"><tspan
           x="0 6.7481174"
           y="0"
           sodipodi:role="line"
           id="tspan735">n5</tspan></text>
    </g>
  </g>
</svg>
