<?xml version="1.0" encoding="UTF-8" standalone="no"?>
<!-- Created with Inkscape (http://www.inkscape.org/) -->

<svg
   version="1.1"
   id="svg8400"
   width="500"
   height="948"
   viewBox="0 0 500 947.99996"
   sodipodi:docname="pn6.svg"
   inkscape:version="1.2.2 (b0a8486541, 2022-12-01)"
   xmlns:inkscape="http://www.inkscape.org/namespaces/inkscape"
   xmlns:sodipodi="http://sodipodi.sourceforge.net/DTD/sodipodi-0.dtd"
   xmlns="http://www.w3.org/2000/svg"
   xmlns:svg="http://www.w3.org/2000/svg">
  <defs
     id="defs8404" />
  <sodipodi:namedview
     id="namedview8402"
     pagecolor="#ffffff"
     bordercolor="#000000"
     borderopacity="0.25"
     inkscape:showpageshadow="2"
     inkscape:pageopacity="0.0"
     inkscape:pagecheckerboard="0"
     inkscape:deskcolor="#d1d1d1"
     showgrid="false"
     inkscape:zoom="0.82909419"
     inkscape:cx="249.067"
     inkscape:cy="473.40821"
     inkscape:window-width="1908"
     inkscape:window-height="1048"
     inkscape:window-x="1085"
     inkscape:window-y="25"
     inkscape:window-maximized="1"
     inkscape:current-layer="g8408">
    <inkscape:page
       x="0"
       y="0"
       id="page8406"
       width="500"
       height="947.99994" />
  </sodipodi:namedview>
  <g
     id="g8408"
     inkscape:groupmode="layer"
     inkscape:label="Page 1"
     transform="matrix(1.3333333,0,0,1.3333333,-63.333332,-63.333332)">
    <g
       id="g8410">
      <path
         d="m 60,101 c 0,0 350,0 350,0 6,0 12,-6 12,-12 0,0 0,-29 0,-29 0,-6 -6,-12 -12,-12 0,0 -350,0 -350,0 -6,0 -12,6 -12,12 0,0 0,29 0,29 0,6 6,12 12,12"
         style="fill:none;stroke:#000000;stroke-width:1;stroke-linecap:butt;stroke-linejoin:miter;stroke-miterlimit:10;stroke-dasharray:none;stroke-opacity:1"
         id="path8412" />
      <path
         d="m 92,121 h 286 v 53 H 92 Z"
         style="fill:none;stroke:#000000;stroke-width:1;stroke-linecap:butt;stroke-linejoin:miter;stroke-miterlimit:10;stroke-dasharray:none;stroke-opacity:1"
         id="path8414" />
      <path
         d="m 60,247 c 0,0 350,0 350,0 6,0 12,-6 12,-12 0,0 0,-29 0,-29 0,-6 -6,-12 -12,-12 0,0 -350,0 -350,0 -6,0 -12,6 -12,12 0,0 0,29 0,29 0,6 6,12 12,12"
         style="fill:none;stroke:#000000;stroke-width:1;stroke-linecap:butt;stroke-linejoin:miter;stroke-miterlimit:10;stroke-dasharray:none;stroke-opacity:1"
         id="path8416" />
      <path
         d="m 92,267 h 286 v 53 H 92 Z"
         style="fill:none;stroke:#000000;stroke-width:1;stroke-linecap:butt;stroke-linejoin:miter;stroke-miterlimit:10;stroke-dasharray:none;stroke-opacity:1"
         id="path8418" />
      <path
         d="m 91,393 c 0,0 216,0 216,0 6,0 12,-6 12,-12 0,0 0,-29 0,-29 0,-6 -6,-12 -12,-12 0,0 -216,0 -216,0 -6,0 -12,6 -12,12 0,0 0,29 0,29 0,6 6,12 12,12"
         style="fill:none;stroke:#000000;stroke-width:1;stroke-linecap:butt;stroke-linejoin:miter;stroke-miterlimit:10;stroke-dasharray:none;stroke-opacity:1"
         id="path8420" />
      <path
         d="m 98,413 h 214 v 53 H 98 Z"
         style="fill:none;stroke:#000000;stroke-width:1;stroke-linecap:butt;stroke-linejoin:miter;stroke-miterlimit:10;stroke-dasharray:none;stroke-opacity:1"
         id="path8422" />
      <path
         d="m 81,539 c 0,0 249,0 249,0 6,0 12,-6 12,-12 0,0 0,-29 0,-29 0,-6 -6,-12 -12,-12 0,0 -249,0 -249,0 -6,0 -12,6 -12,12 0,0 0,29 0,29 0,6 6,12 12,12"
         style="fill:none;stroke:#000000;stroke-width:1;stroke-linecap:butt;stroke-linejoin:miter;stroke-miterlimit:10;stroke-dasharray:none;stroke-opacity:1"
         id="path8424" />
      <path
         d="m 88,559 h 254 v 53 H 88 Z"
         style="fill:none;stroke:#000000;stroke-width:1;stroke-linecap:butt;stroke-linejoin:miter;stroke-miterlimit:10;stroke-dasharray:none;stroke-opacity:1"
         id="path8426" />
      <path
         d="m 140,685 c 0,0 130,0 130,0 6,0 12,-6 12,-12 0,0 0,-29 0,-29 0,-6 -6,-12 -12,-12 0,0 -130,0 -130,0 -6,0 -12,6 -12,12 0,0 0,29 0,29 0,6 6,12 12,12"
         style="fill:none;stroke:#000000;stroke-width:1;stroke-linecap:butt;stroke-linejoin:miter;stroke-miterlimit:10;stroke-dasharray:none;stroke-opacity:1"
         id="path8428" />
      <path
         d="m 134,705 h 142 v 53 H 134 Z"
         style="fill:none;stroke:#000000;stroke-width:1;stroke-linecap:butt;stroke-linejoin:miter;stroke-miterlimit:10;stroke-dasharray:none;stroke-opacity:1"
         id="path8430" />
      <path
         d="m 342.5,92.5 c 0,0 59,0 59,0 6,0 12,-6 12,-12 0,0 0,-12 0,-12 0,-6 -6,-12 -12,-12 0,0 -59,0 -59,0 -6,0 -12,6 -12,12 0,0 0,12 0,12 0,6 6,12 12,12"
         style="fill:none;stroke:#000000;stroke-width:1;stroke-linecap:butt;stroke-linejoin:miter;stroke-miterlimit:10;stroke-dasharray:none;stroke-opacity:1"
         id="path8432" />
      <text
         xml:space="preserve"
         transform="translate(338.5,78.199219)"
         style="font-variant:normal;font-weight:normal;font-size:14.0002px;font-family:'Liberation Serif';-inkscape-font-specification:LiberationSerif;writing-mode:lr-tb;fill:#000000;fill-opacity:1;fill-rule:nonzero;stroke:none"
         id="text8436"><tspan
           x="0 9.0020475 18.004095 26.247997 34.49649 42.754395 47.248581 56.995102"
           y="0"
           sodipodi:role="line"
           id="tspan8434">CREATION</tspan></text>
      <path
         d="m 316,129.5 h 54 v 36 h -54 z"
         style="fill:none;stroke:#000000;stroke-width:1;stroke-linecap:butt;stroke-linejoin:miter;stroke-miterlimit:10;stroke-dasharray:none;stroke-opacity:1"
         id="path8438" />
      <text
         xml:space="preserve"
         transform="translate(338,151.19922)"
         style="font-variant:normal;font-weight:normal;font-size:14.0002px;font-family:Symbola;-inkscape-font-specification:Symbola;writing-mode:lr-tb;fill:#000000;fill-opacity:1;fill-rule:nonzero;stroke:none"
         id="text8442"><tspan
           x="0 4.4968128"
           y="0"
           sodipodi:role="line"
           id="tspan8440">⟨⟩</tspan></text>
      <path
         d="m 364.98,92.688 c -3.347,8.199 -7.429,18.187 -11.164,27.328"
         style="fill:none;stroke:#ff0000;stroke-width:1;stroke-linecap:butt;stroke-linejoin:miter;stroke-miterlimit:10;stroke-dasharray:none;stroke-opacity:1"
         id="path8444" />
      <path
         d="m 356.977,121.535 -7.02,7.938 0.539,-10.582 z"
         style="fill:#ff0000;fill-opacity:1;fill-rule:nonzero;stroke:#ff0000;stroke-width:1;stroke-linecap:butt;stroke-linejoin:miter;stroke-miterlimit:10;stroke-dasharray:none;stroke-opacity:1"
         id="path8446" />
      <path
         d="m 342.5,238.5 c 0,0 59,0 59,0 6,0 12,-6 12,-12 0,0 0,-12 0,-12 0,-6 -6,-12 -12,-12 0,0 -59,0 -59,0 -6,0 -12,6 -12,12 0,0 0,12 0,12 0,6 6,12 12,12"
         style="fill:none;stroke:#000000;stroke-width:1;stroke-linecap:butt;stroke-linejoin:miter;stroke-miterlimit:10;stroke-dasharray:none;stroke-opacity:1"
         id="path8448" />
      <text
         xml:space="preserve"
         transform="translate(338.5,224.19922)"
         style="font-variant:normal;font-weight:normal;font-size:14.0002px;font-family:'Liberation Serif';-inkscape-font-specification:LiberationSerif;writing-mode:lr-tb;fill:#000000;fill-opacity:1;fill-rule:nonzero;stroke:none"
         id="text8452"><tspan
           x="0 9.0020475 18.004095 26.247997 34.49649 42.754395 47.248581 56.995102"
           y="0"
           sodipodi:role="line"
           id="tspan8450">CREATION</tspan></text>
      <path
         d="m 350.02,165.688 c 3.347,8.199 7.429,18.187 11.164,27.328"
         style="fill:none;stroke:#ff0000;stroke-width:1;stroke-linecap:butt;stroke-linejoin:miter;stroke-miterlimit:10;stroke-dasharray:none;stroke-opacity:1"
         id="path8454" />
      <path
         d="m 364.504,191.891 0.539,10.582 -7.02,-7.938 z"
         style="fill:#ff0000;fill-opacity:1;fill-rule:nonzero;stroke:#ff0000;stroke-width:1;stroke-linecap:butt;stroke-linejoin:miter;stroke-miterlimit:10;stroke-dasharray:none;stroke-opacity:1"
         id="path8456" />
      <path
         d="m 241.5,92.5 c 0,0 59,0 59,0 6,0 12,-6 12,-12 0,0 0,-12 0,-12 0,-6 -6,-12 -12,-12 0,0 -59,0 -59,0 -6,0 -12,6 -12,12 0,0 0,12 0,12 0,6 6,12 12,12"
         style="fill:none;stroke:#000000;stroke-width:1;stroke-linecap:butt;stroke-linejoin:miter;stroke-miterlimit:10;stroke-dasharray:none;stroke-opacity:1"
         id="path8458" />
      <text
         xml:space="preserve"
         transform="translate(237.5,78.199219)"
         style="font-variant:normal;font-weight:normal;font-size:14.0002px;font-family:'Liberation Serif';-inkscape-font-specification:LiberationSerif;writing-mode:lr-tb;fill:#000000;fill-opacity:1;fill-rule:nonzero;stroke:none"
         id="text8462"><tspan
           x="0 9.0020475 18.004095 26.247997 34.49649 42.754395 47.248581 56.995102"
           y="0"
           sodipodi:role="line"
           id="tspan8460">CREATION</tspan></text>
      <path
         d="m 244,129.5 h 54 v 36 h -54 z"
         style="fill:none;stroke:#000000;stroke-width:1;stroke-linecap:butt;stroke-linejoin:miter;stroke-miterlimit:10;stroke-dasharray:none;stroke-opacity:1"
         id="path8464" />
      <text
         xml:space="preserve"
         transform="translate(263,151.19922)"
         style="font-variant:normal;font-weight:normal;font-size:14.0002px;font-family:Symbola;-inkscape-font-specification:Symbola;writing-mode:lr-tb;fill:#000000;fill-opacity:1;fill-rule:nonzero;stroke:none"
         id="text8468"><tspan
           x="0"
           y="0"
           id="tspan8466">⟨</tspan></text>
      <text
         xml:space="preserve"
         transform="translate(267.49681,151.19922)"
         style="font-variant:normal;font-weight:normal;font-size:14.0002px;font-family:'Liberation Serif';-inkscape-font-specification:LiberationSerif;writing-mode:lr-tb;fill:#000000;fill-opacity:1;fill-rule:nonzero;stroke:none"
         id="text8472"><tspan
           x="0"
           y="0"
           id="tspan8470">0</tspan></text>
      <text
         xml:space="preserve"
         transform="translate(274.24493,151.19922)"
         style="font-variant:normal;font-weight:normal;font-size:14.0002px;font-family:Symbola;-inkscape-font-specification:Symbola;writing-mode:lr-tb;fill:#000000;fill-opacity:1;fill-rule:nonzero;stroke:none"
         id="text8476"><tspan
           x="0"
           y="0"
           id="tspan8474">⟩</tspan></text>
      <path
         d="m 271,92.688 c 0,8.023 0,17.765 0,26.742"
         style="fill:none;stroke:#ff0000;stroke-width:1;stroke-linecap:butt;stroke-linejoin:miter;stroke-miterlimit:10;stroke-dasharray:none;stroke-opacity:1"
         id="path8478" />
      <path
         d="m 274.5,119.473 -3.5,10 -3.5,-10 z"
         style="fill:#ff0000;fill-opacity:1;fill-rule:nonzero;stroke:#ff0000;stroke-width:1;stroke-linecap:butt;stroke-linejoin:miter;stroke-miterlimit:10;stroke-dasharray:none;stroke-opacity:1"
         id="path8480" />
      <path
         d="m 241.5,238.5 c 0,0 59,0 59,0 6,0 12,-6 12,-12 0,0 0,-12 0,-12 0,-6 -6,-12 -12,-12 0,0 -59,0 -59,0 -6,0 -12,6 -12,12 0,0 0,12 0,12 0,6 6,12 12,12"
         style="fill:none;stroke:#000000;stroke-width:1;stroke-linecap:butt;stroke-linejoin:miter;stroke-miterlimit:10;stroke-dasharray:none;stroke-opacity:1"
         id="path8482" />
      <text
         xml:space="preserve"
         transform="translate(237.5,224.19922)"
         style="font-variant:normal;font-weight:normal;font-size:14.0002px;font-family:'Liberation Serif';-inkscape-font-specification:LiberationSerif;writing-mode:lr-tb;fill:#000000;fill-opacity:1;fill-rule:nonzero;stroke:none"
         id="text8486"><tspan
           x="0 9.0020475 18.004095 26.247997 34.49649 42.754395 47.248581 56.995102"
           y="0"
           sodipodi:role="line"
           id="tspan8484">CREATION</tspan></text>
      <path
         d="m 271,165.688 c 0,8.023 0,17.765 0,26.742"
         style="fill:none;stroke:#ff0000;stroke-width:1;stroke-linecap:butt;stroke-linejoin:miter;stroke-miterlimit:10;stroke-dasharray:none;stroke-opacity:1"
         id="path8488" />
      <path
         d="m 274.5,192.473 -3.5,10 -3.5,-10 z"
         style="fill:#ff0000;fill-opacity:1;fill-rule:nonzero;stroke:#ff0000;stroke-width:1;stroke-linecap:butt;stroke-linejoin:miter;stroke-miterlimit:10;stroke-dasharray:none;stroke-opacity:1"
         id="path8490" />
      <path
         d="m 140.5,92.5 c 0,0 59,0 59,0 6,0 12,-6 12,-12 0,0 0,-12 0,-12 0,-6 -6,-12 -12,-12 0,0 -59,0 -59,0 -6,0 -12,6 -12,12 0,0 0,12 0,12 0,6 6,12 12,12"
         style="fill:none;stroke:#000000;stroke-width:1;stroke-linecap:butt;stroke-linejoin:miter;stroke-miterlimit:10;stroke-dasharray:none;stroke-opacity:1"
         id="path8492" />
      <text
         xml:space="preserve"
         transform="translate(136.5,78.199219)"
         style="font-variant:normal;font-weight:normal;font-size:14.0002px;font-family:'Liberation Serif';-inkscape-font-specification:LiberationSerif;writing-mode:lr-tb;fill:#000000;fill-opacity:1;fill-rule:nonzero;stroke:none"
         id="text8496"><tspan
           x="0 9.0020475 18.004095 26.247997 34.49649 42.754395 47.248581 56.995102"
           y="0"
           sodipodi:role="line"
           id="tspan8494">CREATION</tspan></text>
      <path
         d="m 172,129.5 h 54 v 36 h -54 z"
         style="fill:none;stroke:#000000;stroke-width:1;stroke-linecap:butt;stroke-linejoin:miter;stroke-miterlimit:10;stroke-dasharray:none;stroke-opacity:1"
         id="path8498" />
      <text
         xml:space="preserve"
         transform="translate(191,151.19922)"
         style="font-variant:normal;font-weight:normal;font-size:14.0002px;font-family:Symbola;-inkscape-font-specification:Symbola;writing-mode:lr-tb;fill:#000000;fill-opacity:1;fill-rule:nonzero;stroke:none"
         id="text8502"><tspan
           x="0"
           y="0"
           id="tspan8500">⟨</tspan></text>
      <text
         xml:space="preserve"
         transform="translate(195.49681,151.19922)"
         style="font-variant:normal;font-weight:normal;font-size:14.0002px;font-family:'Liberation Serif';-inkscape-font-specification:LiberationSerif;writing-mode:lr-tb;fill:#000000;fill-opacity:1;fill-rule:nonzero;stroke:none"
         id="text8506"><tspan
           x="0"
           y="0"
           id="tspan8504">1</tspan></text>
      <text
         xml:space="preserve"
         transform="translate(202.24493,151.19922)"
         style="font-variant:normal;font-weight:normal;font-size:14.0002px;font-family:Symbola;-inkscape-font-specification:Symbola;writing-mode:lr-tb;fill:#000000;fill-opacity:1;fill-rule:nonzero;stroke:none"
         id="text8510"><tspan
           x="0"
           y="0"
           id="tspan8508">⟩</tspan></text>
      <path
         d="m 177.02,92.688 c 3.347,8.199 7.429,18.187 11.164,27.328"
         style="fill:none;stroke:#ff0000;stroke-width:1;stroke-linecap:butt;stroke-linejoin:miter;stroke-miterlimit:10;stroke-dasharray:none;stroke-opacity:1"
         id="path8512" />
      <path
         d="m 191.504,118.891 0.539,10.582 -7.02,-7.938 z"
         style="fill:#ff0000;fill-opacity:1;fill-rule:nonzero;stroke:#ff0000;stroke-width:1;stroke-linecap:butt;stroke-linejoin:miter;stroke-miterlimit:10;stroke-dasharray:none;stroke-opacity:1"
         id="path8514" />
      <path
         d="m 140.5,238.5 c 0,0 59,0 59,0 6,0 12,-6 12,-12 0,0 0,-12 0,-12 0,-6 -6,-12 -12,-12 0,0 -59,0 -59,0 -6,0 -12,6 -12,12 0,0 0,12 0,12 0,6 6,12 12,12"
         style="fill:none;stroke:#000000;stroke-width:1;stroke-linecap:butt;stroke-linejoin:miter;stroke-miterlimit:10;stroke-dasharray:none;stroke-opacity:1"
         id="path8516" />
      <text
         xml:space="preserve"
         transform="translate(136.5,224.19922)"
         style="font-variant:normal;font-weight:normal;font-size:14.0002px;font-family:'Liberation Serif';-inkscape-font-specification:LiberationSerif;writing-mode:lr-tb;fill:#000000;fill-opacity:1;fill-rule:nonzero;stroke:none"
         id="text8520"><tspan
           x="0 9.0020475 18.004095 26.247997 34.49649 42.754395 47.248581 56.995102"
           y="0"
           sodipodi:role="line"
           id="tspan8518">CREATION</tspan></text>
      <path
         d="m 191.98,165.688 c -3.347,8.199 -7.429,18.187 -11.164,27.328"
         style="fill:none;stroke:#ff0000;stroke-width:1;stroke-linecap:butt;stroke-linejoin:miter;stroke-miterlimit:10;stroke-dasharray:none;stroke-opacity:1"
         id="path8522" />
      <path
         d="m 183.977,194.535 -7.02,7.938 0.539,-10.582 z"
         style="fill:#ff0000;fill-opacity:1;fill-rule:nonzero;stroke:#ff0000;stroke-width:1;stroke-linecap:butt;stroke-linejoin:miter;stroke-miterlimit:10;stroke-dasharray:none;stroke-opacity:1"
         id="path8524" />
      <path
         d="m 68,92.5 c 0,0 30,0 30,0 6,0 12,-6 12,-12 0,0 0,-12 0,-12 0,-6 -6,-12 -12,-12 0,0 -30,0 -30,0 -6,0 -12,6 -12,12 0,0 0,12 0,12 0,6 6,12 12,12"
         style="fill:#d3d3d3;fill-opacity:1;fill-rule:nonzero;stroke:#d3d3d3;stroke-width:1;stroke-linecap:butt;stroke-linejoin:miter;stroke-miterlimit:10;stroke-dasharray:none;stroke-opacity:1"
         id="path8526" />
      <text
         xml:space="preserve"
         transform="translate(79.5,78.199219)"
         style="font-variant:normal;font-weight:normal;font-size:14.0002px;font-family:'Liberation Serif';-inkscape-font-specification:LiberationSerif;writing-mode:lr-tb;fill:#000000;fill-opacity:1;fill-rule:nonzero;stroke:none"
         id="text8530"><tspan
           x="0"
           y="0"
           id="tspan8528">1</tspan></text>
      <path
         d="m 316,275.5 h 54 v 36 h -54 z"
         style="fill:none;stroke:#000000;stroke-width:1;stroke-linecap:butt;stroke-linejoin:miter;stroke-miterlimit:10;stroke-dasharray:none;stroke-opacity:1"
         id="path8532" />
      <text
         xml:space="preserve"
         transform="translate(338,297.19922)"
         style="font-variant:normal;font-weight:normal;font-size:14.0002px;font-family:Symbola;-inkscape-font-specification:Symbola;writing-mode:lr-tb;fill:#000000;fill-opacity:1;fill-rule:nonzero;stroke:none"
         id="text8536"><tspan
           x="0 4.4968128"
           y="0"
           sodipodi:role="line"
           id="tspan8534">⟨⟩</tspan></text>
      <path
         d="m 364.98,238.688 c -3.347,8.199 -7.429,18.187 -11.164,27.328"
         style="fill:none;stroke:#ff0000;stroke-width:1;stroke-linecap:butt;stroke-linejoin:miter;stroke-miterlimit:10;stroke-dasharray:none;stroke-opacity:1"
         id="path8538" />
      <path
         d="m 356.977,267.535 -7.02,7.938 0.539,-10.582 z"
         style="fill:#ff0000;fill-opacity:1;fill-rule:nonzero;stroke:#ff0000;stroke-width:1;stroke-linecap:butt;stroke-linejoin:miter;stroke-miterlimit:10;stroke-dasharray:none;stroke-opacity:1"
         id="path8540" />
      <path
         d="m 244,275.5 h 54 v 36 h -54 z"
         style="fill:none;stroke:#000000;stroke-width:1;stroke-linecap:butt;stroke-linejoin:miter;stroke-miterlimit:10;stroke-dasharray:none;stroke-opacity:1"
         id="path8542" />
      <text
         xml:space="preserve"
         transform="translate(263,297.19922)"
         style="font-variant:normal;font-weight:normal;font-size:14.0002px;font-family:Symbola;-inkscape-font-specification:Symbola;writing-mode:lr-tb;fill:#000000;fill-opacity:1;fill-rule:nonzero;stroke:none"
         id="text8546"><tspan
           x="0"
           y="0"
           id="tspan8544">⟨</tspan></text>
      <text
         xml:space="preserve"
         transform="translate(267.49681,297.19922)"
         style="font-variant:normal;font-weight:normal;font-size:14.0002px;font-family:'Liberation Serif';-inkscape-font-specification:LiberationSerif;writing-mode:lr-tb;fill:#000000;fill-opacity:1;fill-rule:nonzero;stroke:none"
         id="text8550"><tspan
           x="0"
           y="0"
           id="tspan8548">0</tspan></text>
      <text
         xml:space="preserve"
         transform="translate(274.24493,297.19922)"
         style="font-variant:normal;font-weight:normal;font-size:14.0002px;font-family:Symbola;-inkscape-font-specification:Symbola;writing-mode:lr-tb;fill:#000000;fill-opacity:1;fill-rule:nonzero;stroke:none"
         id="text8554"><tspan
           x="0"
           y="0"
           id="tspan8552">⟩</tspan></text>
      <path
         d="m 271,238.688 c 0,8.023 0,17.765 0,26.742"
         style="fill:none;stroke:#ff0000;stroke-width:1;stroke-linecap:butt;stroke-linejoin:miter;stroke-miterlimit:10;stroke-dasharray:none;stroke-opacity:1"
         id="path8556" />
      <path
         d="m 274.5,265.473 -3.5,10 -3.5,-10 z"
         style="fill:#ff0000;fill-opacity:1;fill-rule:nonzero;stroke:#ff0000;stroke-width:1;stroke-linecap:butt;stroke-linejoin:miter;stroke-miterlimit:10;stroke-dasharray:none;stroke-opacity:1"
         id="path8558" />
      <path
         d="m 172,275.5 h 54 v 36 h -54 z"
         style="fill:none;stroke:#000000;stroke-width:1;stroke-linecap:butt;stroke-linejoin:miter;stroke-miterlimit:10;stroke-dasharray:none;stroke-opacity:1"
         id="path8560" />
      <text
         xml:space="preserve"
         transform="translate(191,297.19922)"
         style="font-variant:normal;font-weight:normal;font-size:14.0002px;font-family:Symbola;-inkscape-font-specification:Symbola;writing-mode:lr-tb;fill:#000000;fill-opacity:1;fill-rule:nonzero;stroke:none"
         id="text8564"><tspan
           x="0"
           y="0"
           id="tspan8562">⟨</tspan></text>
      <text
         xml:space="preserve"
         transform="translate(195.49681,297.19922)"
         style="font-variant:normal;font-weight:normal;font-size:14.0002px;font-family:'Liberation Serif';-inkscape-font-specification:LiberationSerif;writing-mode:lr-tb;fill:#000000;fill-opacity:1;fill-rule:nonzero;stroke:none"
         id="text8568"><tspan
           x="0"
           y="0"
           id="tspan8566">1</tspan></text>
      <text
         xml:space="preserve"
         transform="translate(202.24493,297.19922)"
         style="font-variant:normal;font-weight:normal;font-size:14.0002px;font-family:Symbola;-inkscape-font-specification:Symbola;writing-mode:lr-tb;fill:#000000;fill-opacity:1;fill-rule:nonzero;stroke:none"
         id="text8572"><tspan
           x="0"
           y="0"
           id="tspan8570">⟩</tspan></text>
      <path
         d="m 177.02,238.688 c 3.347,8.199 7.429,18.187 11.164,27.328"
         style="fill:none;stroke:#ff0000;stroke-width:1;stroke-linecap:butt;stroke-linejoin:miter;stroke-miterlimit:10;stroke-dasharray:none;stroke-opacity:1"
         id="path8574" />
      <path
         d="m 191.504,264.891 0.539,10.582 -7.02,-7.938 z"
         style="fill:#ff0000;fill-opacity:1;fill-rule:nonzero;stroke:#ff0000;stroke-width:1;stroke-linecap:butt;stroke-linejoin:miter;stroke-miterlimit:10;stroke-dasharray:none;stroke-opacity:1"
         id="path8576" />
      <path
         d="m 100,129.5 h 54 v 36 h -54 z"
         style="fill:#add8e6;fill-opacity:1;fill-rule:nonzero;stroke:#add8e6;stroke-width:1;stroke-linecap:butt;stroke-linejoin:miter;stroke-miterlimit:10;stroke-dasharray:none;stroke-opacity:1"
         id="path8578" />
      <text
         xml:space="preserve"
         transform="translate(120,151.19922)"
         style="font-variant:normal;font-weight:normal;font-size:14.0002px;font-family:'Liberation Serif';-inkscape-font-specification:LiberationSerif;writing-mode:lr-tb;fill:#000000;fill-opacity:1;fill-rule:nonzero;stroke:none"
         id="text8582"><tspan
           x="0 6.7481174"
           y="0"
           sodipodi:role="line"
           id="tspan8580">n5</tspan></text>
      <path
         d="m 269,384.5 c 0,0 30,0 30,0 6,0 12,-6 12,-12 0,0 0,-12 0,-12 0,-6 -6,-12 -12,-12 0,0 -30,0 -30,0 -6,0 -12,6 -12,12 0,0 0,12 0,12 0,6 6,12 12,12"
         style="fill:none;stroke:#000000;stroke-width:1;stroke-linecap:butt;stroke-linejoin:miter;stroke-miterlimit:10;stroke-dasharray:none;stroke-opacity:1"
         id="path8584" />
      <text
         xml:space="preserve"
         transform="translate(265.5,370.19922)"
         style="font-variant:normal;font-weight:normal;font-size:14.0002px;font-family:'Liberation Serif';-inkscape-font-specification:LiberationSerif;writing-mode:lr-tb;fill:#000000;fill-opacity:1;fill-rule:nonzero;stroke:none"
         id="text8588"><tspan
           x="0 7.5062637 14.998527 23.25643 27.750616"
           y="0"
           sodipodi:role="line"
           id="tspan8586">SPLIT</tspan></text>
      <path
         d="m 328.719,311.688 c -7.25,8.718 -16.184,19.472 -24.157,29.066"
         style="fill:none;stroke:#ff0000;stroke-width:1;stroke-linecap:butt;stroke-linejoin:miter;stroke-miterlimit:10;stroke-dasharray:none;stroke-opacity:1"
         id="path8590" />
      <path
         d="m 307.234,343.016 -9.082,5.457 3.7,-9.93 z"
         style="fill:#ff0000;fill-opacity:1;fill-rule:nonzero;stroke:#ff0000;stroke-width:1;stroke-linecap:butt;stroke-linejoin:miter;stroke-miterlimit:10;stroke-dasharray:none;stroke-opacity:1"
         id="path8592" />
      <path
         d="m 274.148,311.688 c 1.469,8.023 3.25,17.765 4.895,26.742"
         style="fill:none;stroke:#000000;stroke-width:1;stroke-linecap:butt;stroke-linejoin:miter;stroke-miterlimit:10;stroke-dasharray:none;stroke-opacity:1"
         id="path8594" />
      <path
         d="m 282.523,338.004 -1.64,10.469 -5.246,-9.207 z"
         style="fill:#000000;fill-opacity:1;fill-rule:nonzero;stroke:#000000;stroke-width:1;stroke-linecap:butt;stroke-linejoin:miter;stroke-miterlimit:10;stroke-dasharray:none;stroke-opacity:1"
         id="path8596" />
      <path
         d="m 171,384.5 c 0,0 56,0 56,0 6,0 12,-6 12,-12 0,0 0,-12 0,-12 0,-6 -6,-12 -12,-12 0,0 -56,0 -56,0 -6,0 -12,6 -12,12 0,0 0,12 0,12 0,6 6,12 12,12"
         style="fill:none;stroke:#000000;stroke-width:1;stroke-linecap:butt;stroke-linejoin:miter;stroke-miterlimit:10;stroke-dasharray:none;stroke-opacity:1"
         id="path8598" />
      <text
         xml:space="preserve"
         transform="translate(167,370.19922)"
         style="font-variant:normal;font-weight:normal;font-size:14.0002px;font-family:'Liberation Serif';-inkscape-font-specification:LiberationSerif;writing-mode:lr-tb;fill:#000000;fill-opacity:1;fill-rule:nonzero;stroke:none"
         id="text8602"><tspan
           x="0 9.746521 19.493042 32.249508 41.996029 51.75655 56.25074"
           y="0"
           sodipodi:role="line"
           id="tspan8600">NOMODIF</tspan></text>
      <path
         d="m 199,311.688 c 0,8.023 0,17.765 0,26.742"
         style="fill:none;stroke:#000000;stroke-width:1;stroke-linecap:butt;stroke-linejoin:miter;stroke-miterlimit:10;stroke-dasharray:none;stroke-opacity:1"
         id="path8604" />
      <path
         d="m 202.5,338.473 -3.5,10 -3.5,-10 z"
         style="fill:#000000;fill-opacity:1;fill-rule:nonzero;stroke:#000000;stroke-width:1;stroke-linecap:butt;stroke-linejoin:miter;stroke-miterlimit:10;stroke-dasharray:none;stroke-opacity:1"
         id="path8606" />
      <path
         d="m 68,238.5 c 0,0 30,0 30,0 6,0 12,-6 12,-12 0,0 0,-12 0,-12 0,-6 -6,-12 -12,-12 0,0 -30,0 -30,0 -6,0 -12,6 -12,12 0,0 0,12 0,12 0,6 6,12 12,12"
         style="fill:#d3d3d3;fill-opacity:1;fill-rule:nonzero;stroke:#d3d3d3;stroke-width:1;stroke-linecap:butt;stroke-linejoin:miter;stroke-miterlimit:10;stroke-dasharray:none;stroke-opacity:1"
         id="path8608" />
      <text
         xml:space="preserve"
         transform="translate(79.5,224.19922)"
         style="font-variant:normal;font-weight:normal;font-size:14.0002px;font-family:'Liberation Serif';-inkscape-font-specification:LiberationSerif;writing-mode:lr-tb;fill:#000000;fill-opacity:1;fill-rule:nonzero;stroke:none"
         id="text8612"><tspan
           x="0"
           y="0"
           id="tspan8610">2</tspan></text>
      <path
         d="m 250,421.5 h 54 v 36 h -54 z"
         style="fill:none;stroke:#000000;stroke-width:1;stroke-linecap:butt;stroke-linejoin:miter;stroke-miterlimit:10;stroke-dasharray:none;stroke-opacity:1"
         id="path8614" />
      <text
         xml:space="preserve"
         transform="translate(269,443.19922)"
         style="font-variant:normal;font-weight:normal;font-size:14.0002px;font-family:Symbola;-inkscape-font-specification:Symbola;writing-mode:lr-tb;fill:#000000;fill-opacity:1;fill-rule:nonzero;stroke:none"
         id="text8618"><tspan
           x="0"
           y="0"
           id="tspan8616">⟨</tspan></text>
      <text
         xml:space="preserve"
         transform="translate(273.49681,443.19922)"
         style="font-variant:normal;font-weight:normal;font-size:14.0002px;font-family:'Liberation Serif';-inkscape-font-specification:LiberationSerif;writing-mode:lr-tb;fill:#000000;fill-opacity:1;fill-rule:nonzero;stroke:none"
         id="text8622"><tspan
           x="0"
           y="0"
           id="tspan8620">0</tspan></text>
      <text
         xml:space="preserve"
         transform="translate(280.24493,443.19922)"
         style="font-variant:normal;font-weight:normal;font-size:14.0002px;font-family:Symbola;-inkscape-font-specification:Symbola;writing-mode:lr-tb;fill:#000000;fill-opacity:1;fill-rule:nonzero;stroke:none"
         id="text8626"><tspan
           x="0"
           y="0"
           id="tspan8624">⟩</tspan></text>
      <path
         d="m 282.305,384.688 c -0.789,8.023 -1.75,17.765 -2.637,26.742"
         style="fill:none;stroke:#000000;stroke-width:1;stroke-linecap:butt;stroke-linejoin:miter;stroke-miterlimit:10;stroke-dasharray:none;stroke-opacity:1"
         id="path8628" />
      <path
         d="m 283.145,411.863 -4.465,9.61 -2.504,-10.297 z"
         style="fill:#000000;fill-opacity:1;fill-rule:nonzero;stroke:#000000;stroke-width:1;stroke-linecap:butt;stroke-linejoin:miter;stroke-miterlimit:10;stroke-dasharray:none;stroke-opacity:1"
         id="path8630" />
      <path
         d="m 178,421.5 h 54 v 36 h -54 z"
         style="fill:none;stroke:#000000;stroke-width:1;stroke-linecap:butt;stroke-linejoin:miter;stroke-miterlimit:10;stroke-dasharray:none;stroke-opacity:1"
         id="path8632" />
      <text
         xml:space="preserve"
         transform="translate(197,443.19922)"
         style="font-variant:normal;font-weight:normal;font-size:14.0002px;font-family:Symbola;-inkscape-font-specification:Symbola;writing-mode:lr-tb;fill:#000000;fill-opacity:1;fill-rule:nonzero;stroke:none"
         id="text8636"><tspan
           x="0"
           y="0"
           id="tspan8634">⟨</tspan></text>
      <text
         xml:space="preserve"
         transform="translate(201.49681,443.19922)"
         style="font-variant:normal;font-weight:normal;font-size:14.0002px;font-family:'Liberation Serif';-inkscape-font-specification:LiberationSerif;writing-mode:lr-tb;fill:#000000;fill-opacity:1;fill-rule:nonzero;stroke:none"
         id="text8640"><tspan
           x="0"
           y="0"
           id="tspan8638">1</tspan></text>
      <text
         xml:space="preserve"
         transform="translate(208.24493,443.19922)"
         style="font-variant:normal;font-weight:normal;font-size:14.0002px;font-family:Symbola;-inkscape-font-specification:Symbola;writing-mode:lr-tb;fill:#000000;fill-opacity:1;fill-rule:nonzero;stroke:none"
         id="text8644"><tspan
           x="0"
           y="0"
           id="tspan8642">⟩</tspan></text>
      <path
         d="m 200.453,384.688 c 0.676,8.023 1.5,17.765 2.258,26.742"
         style="fill:none;stroke:#000000;stroke-width:1;stroke-linecap:butt;stroke-linejoin:miter;stroke-miterlimit:10;stroke-dasharray:none;stroke-opacity:1"
         id="path8646" />
      <path
         d="m 206.207,411.211 -2.645,10.262 -4.332,-9.672 z"
         style="fill:#000000;fill-opacity:1;fill-rule:nonzero;stroke:#000000;stroke-width:1;stroke-linecap:butt;stroke-linejoin:miter;stroke-miterlimit:10;stroke-dasharray:none;stroke-opacity:1"
         id="path8648" />
      <path
         d="m 100,275.5 h 54 v 36 h -54 z"
         style="fill:#add8e6;fill-opacity:1;fill-rule:nonzero;stroke:#add8e6;stroke-width:1;stroke-linecap:butt;stroke-linejoin:miter;stroke-miterlimit:10;stroke-dasharray:none;stroke-opacity:1"
         id="path8650" />
      <text
         xml:space="preserve"
         transform="translate(120,297.19922)"
         style="font-variant:normal;font-weight:normal;font-size:14.0002px;font-family:'Liberation Serif';-inkscape-font-specification:LiberationSerif;writing-mode:lr-tb;fill:#000000;fill-opacity:1;fill-rule:nonzero;stroke:none"
         id="text8654"><tspan
           x="0 6.7481174"
           y="0"
           sodipodi:role="line"
           id="tspan8652">n6</tspan></text>
      <path
         d="m 262.5,530.5 c 0,0 59,0 59,0 6,0 12,-6 12,-12 0,0 0,-12 0,-12 0,-6 -6,-12 -12,-12 0,0 -59,0 -59,0 -6,0 -12,6 -12,12 0,0 0,12 0,12 0,6 6,12 12,12"
         style="fill:none;stroke:#000000;stroke-width:1;stroke-linecap:butt;stroke-linejoin:miter;stroke-miterlimit:10;stroke-dasharray:none;stroke-opacity:1"
         id="path8656" />
      <text
         xml:space="preserve"
         transform="translate(258.5,516.19922)"
         style="font-variant:normal;font-weight:normal;font-size:14.0002px;font-family:'Liberation Serif';-inkscape-font-specification:LiberationSerif;writing-mode:lr-tb;fill:#000000;fill-opacity:1;fill-rule:nonzero;stroke:none"
         id="text8660"><tspan
           x="0 9.0020475 18.004095 26.247997 34.49649 42.754395 47.248581 56.995102"
           y="0"
           sodipodi:role="line"
           id="tspan8658">CREATION</tspan></text>
      <path
         d="m 280.633,457.688 c 1.691,8.023 3.75,17.765 5.648,26.742"
         style="fill:none;stroke:#ff0000;stroke-width:1;stroke-linecap:butt;stroke-linejoin:miter;stroke-miterlimit:10;stroke-dasharray:none;stroke-opacity:1"
         id="path8662" />
      <path
         d="m 289.758,483.965 -1.356,10.508 -5.492,-9.063 z"
         style="fill:#ff0000;fill-opacity:1;fill-rule:nonzero;stroke:#ff0000;stroke-width:1;stroke-linecap:butt;stroke-linejoin:miter;stroke-miterlimit:10;stroke-dasharray:none;stroke-opacity:1"
         id="path8664" />
      <path
         d="m 161.5,530.5 c 0,0 59,0 59,0 6,0 12,-6 12,-12 0,0 0,-12 0,-12 0,-6 -6,-12 -12,-12 0,0 -59,0 -59,0 -6,0 -12,6 -12,12 0,0 0,12 0,12 0,6 6,12 12,12"
         style="fill:none;stroke:#000000;stroke-width:1;stroke-linecap:butt;stroke-linejoin:miter;stroke-miterlimit:10;stroke-dasharray:none;stroke-opacity:1"
         id="path8666" />
      <text
         xml:space="preserve"
         transform="translate(157.5,516.19922)"
         style="font-variant:normal;font-weight:normal;font-size:14.0002px;font-family:'Liberation Serif';-inkscape-font-specification:LiberationSerif;writing-mode:lr-tb;fill:#000000;fill-opacity:1;fill-rule:nonzero;stroke:none"
         id="text8670"><tspan
           x="0 9.0020475 18.004095 26.247997 34.49649 42.754395 47.248581 56.995102"
           y="0"
           sodipodi:role="line"
           id="tspan8668">CREATION</tspan></text>
      <path
         d="m 201.609,457.688 c -1.582,8.023 -3.5,17.765 -5.273,26.742"
         style="fill:none;stroke:#ff0000;stroke-width:1;stroke-linecap:butt;stroke-linejoin:miter;stroke-miterlimit:10;stroke-dasharray:none;stroke-opacity:1"
         id="path8672" />
      <path
         d="m 199.727,485.336 -5.368,9.137 -1.5,-10.489 z"
         style="fill:#ff0000;fill-opacity:1;fill-rule:nonzero;stroke:#ff0000;stroke-width:1;stroke-linecap:butt;stroke-linejoin:miter;stroke-miterlimit:10;stroke-dasharray:none;stroke-opacity:1"
         id="path8674" />
      <path
         d="m 99,384.5 c 0,0 30,0 30,0 6,0 12,-6 12,-12 0,0 0,-12 0,-12 0,-6 -6,-12 -12,-12 0,0 -30,0 -30,0 -6,0 -12,6 -12,12 0,0 0,12 0,12 0,6 6,12 12,12"
         style="fill:#d3d3d3;fill-opacity:1;fill-rule:nonzero;stroke:#d3d3d3;stroke-width:1;stroke-linecap:butt;stroke-linejoin:miter;stroke-miterlimit:10;stroke-dasharray:none;stroke-opacity:1"
         id="path8676" />
      <text
         xml:space="preserve"
         transform="translate(110.5,370.19922)"
         style="font-variant:normal;font-weight:normal;font-size:14.0002px;font-family:'Liberation Serif';-inkscape-font-specification:LiberationSerif;writing-mode:lr-tb;fill:#000000;fill-opacity:1;fill-rule:nonzero;stroke:none"
         id="text8680"><tspan
           x="0"
           y="0"
           id="tspan8678">3</tspan></text>
      <path
         d="m 240.5,567.5 h 93 v 36 h -93 z"
         style="fill:none;stroke:#000000;stroke-width:1;stroke-linecap:butt;stroke-linejoin:miter;stroke-miterlimit:10;stroke-dasharray:none;stroke-opacity:1"
         id="path8682" />
      <text
         xml:space="preserve"
         transform="translate(248.5,589.19922)"
         style="font-variant:normal;font-weight:normal;font-size:14.0002px;font-family:'Liberation Serif';-inkscape-font-specification:LiberationSerif;writing-mode:lr-tb;fill:#000000;fill-opacity:1;fill-rule:nonzero;stroke:none"
         id="text8686"><tspan
           x="0 12.7528 19.500917 23.252983 36.005783 42.753902"
           y="0"
           sodipodi:role="line"
           id="tspan8684">@1.@2.</tspan></text>
      <text
         xml:space="preserve"
         transform="translate(295.00597,589.19922)"
         style="font-variant:normal;font-weight:normal;font-size:14.0002px;font-family:Symbola;-inkscape-font-specification:Symbola;writing-mode:lr-tb;fill:#000000;fill-opacity:1;fill-rule:nonzero;stroke:none"
         id="text8690"><tspan
           x="0"
           y="0"
           id="tspan8688">⟨</tspan></text>
      <text
         xml:space="preserve"
         transform="translate(299.50278,589.19922)"
         style="font-variant:normal;font-weight:normal;font-size:14.0002px;font-family:'Liberation Serif';-inkscape-font-specification:LiberationSerif;writing-mode:lr-tb;fill:#000000;fill-opacity:1;fill-rule:nonzero;stroke:none"
         id="text8694"><tspan
           x="0 6.7481174 10.500183 14.252249"
           y="0"
           sodipodi:role="line"
           id="tspan8692">0, 1</tspan></text>
      <text
         xml:space="preserve"
         transform="translate(320.50315,589.19922)"
         style="font-variant:normal;font-weight:normal;font-size:14.0002px;font-family:Symbola;-inkscape-font-specification:Symbola;writing-mode:lr-tb;fill:#000000;fill-opacity:1;fill-rule:nonzero;stroke:none"
         id="text8698"><tspan
           x="0"
           y="0"
           id="tspan8696">⟩</tspan></text>
      <path
         d="m 290.789,530.688 c -0.562,8.023 -1.25,17.765 -1.883,26.742"
         style="fill:none;stroke:#ff0000;stroke-width:1;stroke-linecap:butt;stroke-linejoin:miter;stroke-miterlimit:10;stroke-dasharray:none;stroke-opacity:1"
         id="path8700" />
      <path
         d="m 292.395,557.742 -4.196,9.731 -2.789,-10.223 z"
         style="fill:#ff0000;fill-opacity:1;fill-rule:nonzero;stroke:#ff0000;stroke-width:1;stroke-linecap:butt;stroke-linejoin:miter;stroke-miterlimit:10;stroke-dasharray:none;stroke-opacity:1"
         id="path8702" />
      <path
         d="m 168,567.5 h 54 v 36 h -54 z"
         style="fill:none;stroke:#000000;stroke-width:1;stroke-linecap:butt;stroke-linejoin:miter;stroke-miterlimit:10;stroke-dasharray:none;stroke-opacity:1"
         id="path8704" />
      <text
         xml:space="preserve"
         transform="translate(179.5,589.19922)"
         style="font-variant:normal;font-weight:normal;font-size:14.0002px;font-family:Symbola;-inkscape-font-specification:Symbola;writing-mode:lr-tb;fill:#000000;fill-opacity:1;fill-rule:nonzero;stroke:none"
         id="text8708"><tspan
           x="0"
           y="0"
           id="tspan8706">⟨</tspan></text>
      <text
         xml:space="preserve"
         transform="translate(183.99681,589.19922)"
         style="font-variant:normal;font-weight:normal;font-size:14.0002px;font-family:'Liberation Serif';-inkscape-font-specification:LiberationSerif;writing-mode:lr-tb;fill:#000000;fill-opacity:1;fill-rule:nonzero;stroke:none"
         id="text8712"><tspan
           x="0 6.7481174 10.500183 14.252249"
           y="0"
           sodipodi:role="line"
           id="tspan8710">1, 2</tspan></text>
      <text
         xml:space="preserve"
         transform="translate(204.99718,589.19922)"
         style="font-variant:normal;font-weight:normal;font-size:14.0002px;font-family:Symbola;-inkscape-font-specification:Symbola;writing-mode:lr-tb;fill:#000000;fill-opacity:1;fill-rule:nonzero;stroke:none"
         id="text8716"><tspan
           x="0"
           y="0"
           id="tspan8714">⟩</tspan></text>
      <path
         d="m 191.969,530.688 c 0.453,8.023 1,17.765 1.508,26.742"
         style="fill:none;stroke:#ff0000;stroke-width:1;stroke-linecap:butt;stroke-linejoin:miter;stroke-miterlimit:10;stroke-dasharray:none;stroke-opacity:1"
         id="path8718" />
      <path
         d="m 196.973,557.289 -2.934,10.184 -4.055,-9.789 z"
         style="fill:#ff0000;fill-opacity:1;fill-rule:nonzero;stroke:#ff0000;stroke-width:1;stroke-linecap:butt;stroke-linejoin:miter;stroke-miterlimit:10;stroke-dasharray:none;stroke-opacity:1"
         id="path8720" />
      <path
         d="m 106,421.5 h 54 v 36 h -54 z"
         style="fill:#add8e6;fill-opacity:1;fill-rule:nonzero;stroke:#add8e6;stroke-width:1;stroke-linecap:butt;stroke-linejoin:miter;stroke-miterlimit:10;stroke-dasharray:none;stroke-opacity:1"
         id="path8722" />
      <text
         xml:space="preserve"
         transform="translate(126,443.19922)"
         style="font-variant:normal;font-weight:normal;font-size:14.0002px;font-family:'Liberation Serif';-inkscape-font-specification:LiberationSerif;writing-mode:lr-tb;fill:#000000;fill-opacity:1;fill-rule:nonzero;stroke:none"
         id="text8726"><tspan
           x="0 6.7481174"
           y="0"
           sodipodi:role="line"
           id="tspan8724">n0</tspan></text>
      <path
         d="m 220.5,676.5 c 0,0 41,0 41,0 6,0 12,-6 12,-12 0,0 0,-12 0,-12 0,-6 -6,-12 -12,-12 0,0 -41,0 -41,0 -6,0 -12,6 -12,12 0,0 0,12 0,12 0,6 6,12 12,12"
         style="fill:none;stroke:#000000;stroke-width:1;stroke-linecap:butt;stroke-linejoin:miter;stroke-miterlimit:10;stroke-dasharray:none;stroke-opacity:1"
         id="path8728" />
      <text
         xml:space="preserve"
         transform="translate(216.5,662.19922)"
         style="font-variant:normal;font-weight:normal;font-size:14.0002px;font-family:'Liberation Serif';-inkscape-font-specification:LiberationSerif;writing-mode:lr-tb;fill:#000000;fill-opacity:1;fill-rule:nonzero;stroke:none"
         id="text8732"><tspan
           x="0 12.756465 21.000366 30.002413 39.748936"
           y="0"
           sodipodi:role="line"
           id="tspan8730">MERGE</tspan></text>
      <path
         d="m 275.863,603.688 c -5.48,8.46 -12.199,18.828 -18.269,28.199"
         style="fill:none;stroke:#ff0000;stroke-width:1;stroke-linecap:butt;stroke-linejoin:miter;stroke-miterlimit:10;stroke-dasharray:none;stroke-opacity:1"
         id="path8734" />
      <path
         d="m 260.406,633.98 -8.375,6.493 2.5,-10.297 z"
         style="fill:#ff0000;fill-opacity:1;fill-rule:nonzero;stroke:#ff0000;stroke-width:1;stroke-linecap:butt;stroke-linejoin:miter;stroke-miterlimit:10;stroke-dasharray:none;stroke-opacity:1"
         id="path8736" />
      <path
         d="m 206.137,603.688 c 5.48,8.46 12.199,18.828 18.269,28.199"
         style="fill:none;stroke:#000000;stroke-width:1;stroke-linecap:butt;stroke-linejoin:miter;stroke-miterlimit:10;stroke-dasharray:none;stroke-opacity:1"
         id="path8738" />
      <path
         d="m 227.469,630.176 2.5,10.297 -8.375,-6.493 z"
         style="fill:#000000;fill-opacity:1;fill-rule:nonzero;stroke:#000000;stroke-width:1;stroke-linecap:butt;stroke-linejoin:miter;stroke-miterlimit:10;stroke-dasharray:none;stroke-opacity:1"
         id="path8740" />
      <path
         d="m 89,530.5 c 0,0 30,0 30,0 6,0 12,-6 12,-12 0,0 0,-12 0,-12 0,-6 -6,-12 -12,-12 0,0 -30,0 -30,0 -6,0 -12,6 -12,12 0,0 0,12 0,12 0,6 6,12 12,12"
         style="fill:#d3d3d3;fill-opacity:1;fill-rule:nonzero;stroke:#d3d3d3;stroke-width:1;stroke-linecap:butt;stroke-linejoin:miter;stroke-miterlimit:10;stroke-dasharray:none;stroke-opacity:1"
         id="path8742" />
      <text
         xml:space="preserve"
         transform="translate(100.5,516.19922)"
         style="font-variant:normal;font-weight:normal;font-size:14.0002px;font-family:'Liberation Serif';-inkscape-font-specification:LiberationSerif;writing-mode:lr-tb;fill:#000000;fill-opacity:1;fill-rule:nonzero;stroke:none"
         id="text8746"><tspan
           x="0"
           y="0"
           id="tspan8744">4</tspan></text>
      <path
         d="m 214,713.5 h 54 v 36 h -54 z"
         style="fill:none;stroke:#000000;stroke-width:1;stroke-linecap:butt;stroke-linejoin:miter;stroke-miterlimit:10;stroke-dasharray:none;stroke-opacity:1"
         id="path8748" />
      <text
         xml:space="preserve"
         transform="translate(225.5,735.19922)"
         style="font-variant:normal;font-weight:normal;font-size:14.0002px;font-family:Symbola;-inkscape-font-specification:Symbola;writing-mode:lr-tb;fill:#000000;fill-opacity:1;fill-rule:nonzero;stroke:none"
         id="text8752"><tspan
           x="0"
           y="0"
           id="tspan8750">⟨</tspan></text>
      <text
         xml:space="preserve"
         transform="translate(229.99681,735.19922)"
         style="font-variant:normal;font-weight:normal;font-size:14.0002px;font-family:'Liberation Serif';-inkscape-font-specification:LiberationSerif;writing-mode:lr-tb;fill:#000000;fill-opacity:1;fill-rule:nonzero;stroke:none"
         id="text8756"><tspan
           x="0 6.7481174 10.500183 14.252249"
           y="0"
           sodipodi:role="line"
           id="tspan8754">1, 2</tspan></text>
      <text
         xml:space="preserve"
         transform="translate(250.99718,735.19922)"
         style="font-variant:normal;font-weight:normal;font-size:14.0002px;font-family:Symbola;-inkscape-font-specification:Symbola;writing-mode:lr-tb;fill:#000000;fill-opacity:1;fill-rule:nonzero;stroke:none"
         id="text8760"><tspan
           x="0"
           y="0"
           id="tspan8758">⟩</tspan></text>
      <path
         d="m 241,676.688 c 0,8.023 0,17.765 0,26.742"
         style="fill:none;stroke:#000000;stroke-width:1;stroke-linecap:butt;stroke-linejoin:miter;stroke-miterlimit:10;stroke-dasharray:none;stroke-opacity:1"
         id="path8762" />
      <path
         d="m 244.5,703.473 -3.5,10 -3.5,-10 z"
         style="fill:#000000;fill-opacity:1;fill-rule:nonzero;stroke:#000000;stroke-width:1;stroke-linecap:butt;stroke-linejoin:miter;stroke-miterlimit:10;stroke-dasharray:none;stroke-opacity:1"
         id="path8764" />
      <path
         d="m 96,567.5 h 54 v 36 H 96 Z"
         style="fill:#add8e6;fill-opacity:1;fill-rule:nonzero;stroke:#add8e6;stroke-width:1;stroke-linecap:butt;stroke-linejoin:miter;stroke-miterlimit:10;stroke-dasharray:none;stroke-opacity:1"
         id="path8766" />
      <text
         xml:space="preserve"
         transform="translate(116,589.19922)"
         style="font-variant:normal;font-weight:normal;font-size:14.0002px;font-family:'Liberation Serif';-inkscape-font-specification:LiberationSerif;writing-mode:lr-tb;fill:#000000;fill-opacity:1;fill-rule:nonzero;stroke:none"
         id="text8770"><tspan
           x="0 6.7481174"
           y="0"
           sodipodi:role="line"
           id="tspan8768">n4</tspan></text>
      <path
         d="m 148,676.5 c 0,0 30,0 30,0 6,0 12,-6 12,-12 0,0 0,-12 0,-12 0,-6 -6,-12 -12,-12 0,0 -30,0 -30,0 -6,0 -12,6 -12,12 0,0 0,12 0,12 0,6 6,12 12,12"
         style="fill:#d3d3d3;fill-opacity:1;fill-rule:nonzero;stroke:#d3d3d3;stroke-width:1;stroke-linecap:butt;stroke-linejoin:miter;stroke-miterlimit:10;stroke-dasharray:none;stroke-opacity:1"
         id="path8772" />
      <text
         xml:space="preserve"
         transform="translate(159.5,662.19922)"
         style="font-variant:normal;font-weight:normal;font-size:14.0002px;font-family:'Liberation Serif';-inkscape-font-specification:LiberationSerif;writing-mode:lr-tb;fill:#000000;fill-opacity:1;fill-rule:nonzero;stroke:none"
         id="text8776"><tspan
           x="0"
           y="0"
           id="tspan8774">6</tspan></text>
      <path
         d="m 142,713.5 h 54 v 36 h -54 z"
         style="fill:#add8e6;fill-opacity:1;fill-rule:nonzero;stroke:#add8e6;stroke-width:1;stroke-linecap:butt;stroke-linejoin:miter;stroke-miterlimit:10;stroke-dasharray:none;stroke-opacity:1"
         id="path8778" />
      <text
         xml:space="preserve"
         transform="translate(162,735.19922)"
         style="font-variant:normal;font-weight:normal;font-size:14.0002px;font-family:'Liberation Serif';-inkscape-font-specification:LiberationSerif;writing-mode:lr-tb;fill:#000000;fill-opacity:1;fill-rule:nonzero;stroke:none"
         id="text8782"><tspan
           x="0 6.7481174"
           y="0"
           sodipodi:role="line"
           id="tspan8780">n2</tspan></text>
    </g>
  </g>
</svg>
