<?xml version="1.0" encoding="UTF-8" standalone="no"?>
<!-- Created with Inkscape (http://www.inkscape.org/) -->

<svg
   version="1.1"
   id="svg1"
   width="784.93652"
   height="746.6665"
   viewBox="0 0 784.93652 746.66651"
   sodipodi:docname="pn7-reval-short-nolevels-step-2.svg"
   inkscape:version="1.3.2 (091e20ef0f, 2023-11-25, custom)"
   xmlns:inkscape="http://www.inkscape.org/namespaces/inkscape"
   xmlns:sodipodi="http://sodipodi.sourceforge.net/DTD/sodipodi-0.dtd"
   xmlns="http://www.w3.org/2000/svg"
   xmlns:svg="http://www.w3.org/2000/svg">
  <defs
     id="defs1">
    <clipPath
       clipPathUnits="userSpaceOnUse"
       id="clipPath35">
      <path
         d="M 0,0 H 710 V 561 H 0 Z"
         id="path35" />
    </clipPath>
    <clipPath
       clipPathUnits="userSpaceOnUse"
       id="clipPath36">
      <path
         d="M 0,0 H 710 V 561 H 0 Z"
         transform="scale(1.3333333)"
         id="path36" />
    </clipPath>
    <clipPath
       clipPathUnits="userSpaceOnUse"
       id="clipPath38">
      <path
         d="m 81.789,506.996 h 144 V 560 h -144 z"
         transform="scale(1.3333333)"
         id="path38" />
    </clipPath>
    <clipPath
       clipPathUnits="userSpaceOnUse"
       id="clipPath88">
      <path
         d="M 0,0 H 710 V 561 H 0 Z"
         id="path88" />
    </clipPath>
    <clipPath
       clipPathUnits="userSpaceOnUse"
       id="clipPath89">
      <path
         d="M 0,0 H 710 V 561 H 0 Z"
         id="path89" />
    </clipPath>
    <clipPath
       clipPathUnits="userSpaceOnUse"
       id="clipPath90">
      <path
         d="M 0,0 H 710 V 561 H 0 Z"
         transform="translate(-471.70102,-538.53089)"
         id="path90" />
    </clipPath>
    <clipPath
       clipPathUnits="userSpaceOnUse"
       id="clipPath91">
      <path
         d="M 0,0 H 710 V 561 H 0 Z"
         transform="translate(-476.19782,-538.53089)"
         id="path91" />
    </clipPath>
    <clipPath
       clipPathUnits="userSpaceOnUse"
       id="clipPath92">
      <path
         d="M 0,0 H 710 V 561 H 0 Z"
         transform="translate(-497.19812,-538.53089)"
         id="path92" />
    </clipPath>
    <clipPath
       clipPathUnits="userSpaceOnUse"
       id="clipPath97">
      <path
         d="m 379,507 h 144 v 53 H 379 Z"
         transform="scale(1.3333333)"
         id="path97" />
    </clipPath>
    <clipPath
       clipPathUnits="userSpaceOnUse"
       id="clipPath124">
      <path
         d="M 0,0 H 710 V 561 H 0 Z"
         transform="translate(-700.18365,-176.68152)"
         id="path124" />
    </clipPath>
    <clipPath
       clipPathUnits="userSpaceOnUse"
       id="clipPath125">
      <path
         d="m 701,163 h 8 v 14 h -8 z"
         transform="scale(1.3333333)"
         id="path125" />
    </clipPath>
    <clipPath
       clipPathUnits="userSpaceOnUse"
       id="clipPath128">
      <path
         d="M 0,0 H 710 V 561 H 0 Z"
         transform="translate(-700.18365,-321.11218)"
         id="path128" />
    </clipPath>
    <clipPath
       clipPathUnits="userSpaceOnUse"
       id="clipPath129">
      <path
         d="m 701,307 h 8 v 15 h -8 z"
         transform="scale(1.3333333)"
         id="path129" />
    </clipPath>
    <clipPath
       clipPathUnits="userSpaceOnUse"
       id="clipPath131">
      <path
         d="M 0,0 H 710 V 561 H 0 Z"
         transform="translate(-700.18365,-467.97918)"
         id="path131" />
    </clipPath>
    <clipPath
       clipPathUnits="userSpaceOnUse"
       id="clipPath132">
      <path
         d="m 700,454 h 9 v 14 h -9 z"
         transform="scale(1.3333333)"
         id="path132" />
    </clipPath>
  </defs>
  <sodipodi:namedview
     id="namedview1"
     pagecolor="#ffffff"
     bordercolor="#000000"
     borderopacity="0.25"
     inkscape:showpageshadow="2"
     inkscape:pageopacity="0.0"
     inkscape:pagecheckerboard="0"
     inkscape:deskcolor="#d1d1d1"
     showgrid="false"
     inkscape:zoom="0.78557492"
     inkscape:cx="397.79783"
     inkscape:cy="178.84991"
     inkscape:window-width="1229"
     inkscape:window-height="1034"
     inkscape:window-x="9"
     inkscape:window-y="27"
     inkscape:window-maximized="1"
     inkscape:current-layer="g1">
    <inkscape:page
       x="0"
       y="0"
       inkscape:label="1"
       id="page1"
       width="784.93652"
       height="746.6665"
       margin="0"
       bleed="0" />
  </sodipodi:namedview>
  <g
     id="g1"
     inkscape:groupmode="layer"
     inkscape:label="1"
     transform="translate(-0.00105997,-1.6665459e-4)">
    <path
       id="path1"
       d="m 164.289,9.188 h 47.254 c 6.039,0 10.898,4.859 10.898,10.898 v 13.82 c 0,6.039 -4.859,10.899 -10.898,10.899 h -47.254 c -6.039,0 -10.898,-4.86 -10.898,-10.899 v -13.82 c 0,-6.039 4.859,-10.898 10.898,-10.898 z"
       style="fill:#999999;fill-opacity:0.13333334;fill-rule:nonzero;stroke:#999999;stroke-opacity:0.32549021"
       transform="scale(1.3333333)" />
    <path
       id="path2"
       d="m 158.77,53.492 c 0,0 254.859,0 254.859,0 6.141,0 12.281,-6 12.281,-12 0,0 0,-28.992 0,-28.992 0,-6 -6.14,-12 -12.281,-12 0,0 -254.859,0 -254.859,0 -6.141,0 -12.282,6 -12.282,12 0,0 0,28.992 0,28.992 0,6 6.141,12 12.282,12"
       style="fill:none;stroke:#999999;stroke-width:0.99975;stroke-linecap:butt;stroke-linejoin:miter;stroke-miterlimit:10;stroke-dasharray:none;stroke-opacity:0.32549021"
       transform="scale(1.3333333)" />
    <path
       id="path3"
       d="m 346.418,44.996 c 0,0 59,0 59,0 6,0 12,-6 12,-12 0,0 0,-12 0,-12 0,-6 -6,-12 -12,-12 0,0 -59,0 -59,0 -6,0 -12,6 -12,12 0,0 0,12 0,12 0,6 6,12 12,12"
       style="fill:none;stroke:#999999;stroke-width:1;stroke-linecap:butt;stroke-linejoin:miter;stroke-miterlimit:10;stroke-dasharray:none;stroke-opacity:0.32549021"
       transform="scale(1.3333333)" />
    <text
       id="text3"
       xml:space="preserve"
       transform="matrix(1.3333333,0,0,1.3333333,456.55467,40.926801)"
       style="fill:#999999;fill-opacity:0.32549021"><tspan
         style="font-variant:normal;font-weight:normal;font-size:14.0002px;font-family:'Liberation Serif';writing-mode:lr-tb;fill:#999999;fill-opacity:0.32549021;fill-rule:nonzero;stroke:none"
         x="0 9.0020189 18.004038 26.247913 34.496384 42.754261 47.248432 56.994923"
         y="0"
         sodipodi:role="line"
         id="tspan3">CREATION</tspan></text>
    <path
       id="path4"
       d="m 372.285,45.184 c -1.691,8.023 -3.75,17.765 -5.648,26.742"
       style="fill:none;stroke:#999999;stroke-width:1;stroke-linecap:butt;stroke-linejoin:miter;stroke-miterlimit:10;stroke-dasharray:none;stroke-opacity:0.32549021"
       transform="scale(1.3333333)" />
    <path
       id="path5"
       d="m 181.918,73.496 h 214 v 53 h -214 z"
       style="fill:none;stroke:#999999;stroke-width:1;stroke-linecap:butt;stroke-linejoin:miter;stroke-miterlimit:10;stroke-dasharray:none;stroke-opacity:0.32549021"
       transform="scale(1.3333333)" />
    <path
       id="path6"
       d="m 245.418,44.996 c 0,0 59,0 59,0 6,0 12,-6 12,-12 0,0 0,-12 0,-12 0,-6 -6,-12 -12,-12 0,0 -59,0 -59,0 -6,0 -12,6 -12,12 0,0 0,12 0,12 0,6 6,12 12,12"
       style="fill:none;stroke:#999999;stroke-width:1;stroke-linecap:butt;stroke-linejoin:miter;stroke-miterlimit:10;stroke-dasharray:none;stroke-opacity:0.32549021"
       transform="scale(1.3333333)" />
    <text
       id="text6"
       xml:space="preserve"
       transform="matrix(1.3333333,0,0,1.3333333,321.88799,40.926801)"
       style="fill:#999999;fill-opacity:0.32549021"><tspan
         style="font-variant:normal;font-weight:normal;font-size:14.0002px;font-family:'Liberation Serif';writing-mode:lr-tb;fill:#999999;fill-opacity:0.32549021;fill-rule:nonzero;stroke:none"
         x="0 9.0020189 18.004038 26.247913 34.496384 42.754261 47.248432 56.994923"
         y="0"
         sodipodi:role="line"
         id="tspan6">CREATION</tspan></text>
    <path
       id="path7"
       d="m 278.309,45.184 c 1.582,8.023 3.5,17.765 5.273,26.742"
       style="fill:none;stroke:#999999;stroke-width:1;stroke-linecap:butt;stroke-linejoin:miter;stroke-miterlimit:10;stroke-dasharray:none;stroke-opacity:0.32549021"
       transform="scale(1.3333333)" />
    <g
       id="g3"
       style="fill:#000000;fill-opacity:1">
      <path
         id="path8"
         d="m 3.8202971,2.1340036 c 0,0.1699218 -0.099609,0.2578125 -0.2929687,0.2578125 -0.1025391,0 -0.1992188,-0.1054688 -0.2929688,-0.3164063 L 0.62107838,-3.9831839 3.2343596,-10.030059 c 0.09375,-0.210937 0.1904297,-0.316406 0.2929688,-0.316406 0.1933594,0 0.2929687,0.08789 0.2929687,0.257812 0,0.0791 -0.020508,0.1611331 -0.058594,0.2460941 l -2.5429688,5.859375 2.5429688,5.8710937 c 0.038086,0.084961 0.058594,0.1669922 0.058594,0.2460938 z m 0,0"
         style="fill:#000000;fill-opacity:1;fill-rule:nonzero;stroke:none"
         aria-label="⟨"
         transform="matrix(1.3333333,0,0,1.3333333,474.55471,138.26013)" />
      <path
         id="path9"
         d="M 3.9377563,-3.9831839 1.3244751,2.0754098 c -0.09375,0.2109375 -0.1933594,0.3164063 -0.2929688,0.3164063 -0.19628903,0 -0.29296872,-0.087891 -0.29296872,-0.2578125 0,-0.079102 0.0175781,-0.1611328 0.0585938,-0.2460938 L 3.3283813,-3.9831839 0.79713133,-9.8425589 c -0.0410156,-0.084961 -0.0585938,-0.1669921 -0.0585938,-0.2460941 0,-0.169922 0.0966797,-0.257812 0.29296867,-0.257812 0.099609,0 0.1992188,0.105469 0.2929688,0.316406 z m 0,0"
         style="fill:#000000;fill-opacity:1;fill-rule:nonzero;stroke:none"
         aria-label="⟩"
         transform="matrix(1.3333333,0,0,1.3333333,480.55044,138.26013)" />
    </g>
    <path
       id="path10"
       d="m 370.008,72.906 -5.492,9.063 -1.356,-10.508 z"
       style="fill:#999999;fill-opacity:0.32549021;fill-rule:nonzero;stroke:none;stroke-width:1;stroke-linecap:butt;stroke-linejoin:miter;stroke-miterlimit:10;stroke-dasharray:none;stroke-opacity:1"
       transform="scale(1.3333333)" />
    <g
       id="g2"
       style="fill:#000000;fill-opacity:1">
      <path
         id="path11"
         d="m 3.8203251,2.1340036 c 0,0.1699218 -0.099609,0.2578125 -0.2929687,0.2578125 -0.1025391,0 -0.1992188,-0.1054688 -0.2929688,-0.3164063 L 0.62110638,-3.9831839 3.2343876,-10.030059 c 0.09375,-0.210937 0.1904297,-0.316406 0.2929688,-0.316406 0.1933594,0 0.2929687,0.08789 0.2929687,0.257812 0,0.0791 -0.020508,0.1611331 -0.058594,0.2460941 l -2.5429688,5.859375 2.5429688,5.8710937 c 0.038086,0.084961 0.058594,0.1669922 0.058594,0.2460938 z m 0,0"
         style="fill:#000000;fill-opacity:1;fill-rule:nonzero;stroke:none"
         aria-label="⟨"
         transform="matrix(1.3333333,0,0,1.3333333,374.55467,138.26013)" />
      <text
         id="text11"
         xml:space="preserve"
         transform="matrix(1.3333333,0,0,1.3333333,380.5504,138.26013)"
         style="fill:#000000;fill-opacity:1"><tspan
           style="font-variant:normal;font-weight:normal;font-size:14.0002px;font-family:'Liberation Serif';writing-mode:lr-tb;fill:#000000;fill-opacity:1;fill-rule:nonzero;stroke:none"
           x="0"
           y="0"
           id="tspan11">0</tspan></text>
      <path
         id="path12"
         d="M 3.9367582,-3.9831839 1.323477,2.0754098 c -0.09375,0.2109375 -0.1933594,0.3164063 -0.2929688,0.3164063 -0.19628902,0 -0.29296871,-0.087891 -0.29296871,-0.2578125 0,-0.079102 0.0175781,-0.1611328 0.0585938,-0.2460938 L 3.3273832,-3.9831839 0.79613324,-9.8425589 c -0.0410156,-0.084961 -0.0585938,-0.1669921 -0.0585938,-0.2460941 0,-0.169922 0.0966797,-0.257812 0.29296866,-0.257812 0.099609,0 0.1992188,0.105469 0.2929688,0.316406 z m 0,0"
         style="fill:#000000;fill-opacity:1;fill-rule:nonzero;stroke:none"
         aria-label="⟩"
         transform="matrix(1.3333333,0,0,1.3333333,389.54786,138.26013)" />
    </g>
    <path
       id="path13"
       d="m 287.059,71.48 -1.5,10.489 -5.368,-9.137 z"
       style="fill:#999999;fill-opacity:0.32549021;fill-rule:nonzero;stroke:none;stroke-width:1;stroke-linecap:butt;stroke-linejoin:miter;stroke-miterlimit:10;stroke-dasharray:none;stroke-opacity:1"
       transform="scale(1.3333333)" />
    <path
       id="path14"
       d="m 189.918,81.996 h 54 v 36 h -54 z"
       style="fill:#999999;fill-opacity:0.13333334;fill-rule:nonzero;stroke:#999999;stroke-width:1;stroke-linecap:butt;stroke-linejoin:miter;stroke-miterlimit:10;stroke-dasharray:none;stroke-opacity:0.32549021"
       transform="scale(1.3333333)" />
    <text
       id="text14"
       xml:space="preserve"
       transform="matrix(1.3333333,0,0,1.3333333,284.47255,138.26013)"
       style="fill:#999999;fill-opacity:0.32549021"><tspan
         style="font-variant:normal;font-weight:normal;font-size:14.0002px;font-family:'Liberation Serif';writing-mode:lr-tb;fill:#999999;fill-opacity:0.32549021;fill-rule:nonzero;stroke:none"
         x="0"
         y="0"
         id="tspan14">3</tspan></text>
    <path
       id="path15"
       d="M 5.8485635,-7.652203e-4 C 5.5262979,-0.0300621 5.2186807,-0.04764022 4.9227822,-0.04764022 h -2.765625 c -0.290039,0 -0.5947265,0.01757812 -0.9140625,0.0468749997 V -0.43435897 c 0.052734,0 0.1347657,0.005859 0.2460938,0.0117188 0.1171875,0 0.2050781,0 0.2695312,0 0.694336,0 1.0927735,-0.0966797 1.1953125,-0.29296875 0.038086,-0.0849609 0.058594,-0.20507813 0.058594,-0.36328118 v -7.4296876 c -0.4921875,0.2431641 -1.1103516,0.3632812 -1.8515625,0.3632812 v -0.4335937 c 1.1308594,0 1.9951172,-0.3046875 2.5898437,-0.9140625 h 0.070312 c 0.131836,0 0.2109375,0.032227 0.234375,0.09375 0.014648,0.032227 0.023437,0.123047 0.023437,0.2695312 v 8.0742189 c 0,0.14941399 0.014648,0.2636718 0.046875,0.33984368 0.070312,0.15820312 0.3398438,0.25195312 0.8085938,0.28125 0.061523,0 0.3662109,0 0.9140625,0 z M 11.605399,-3.9851402 c 0,0.1875 -0.08789,0.28125 -0.257812,0.28125 H 7.9139932 c -0.1816406,0 -0.2695313,-0.09375 -0.2695313,-0.28125 0,-0.1875 0.087891,-0.28125 0.2695313,-0.28125 h 3.4335938 c 0.169922,0 0.257812,0.09375 0.257812,0.28125 z m 5.789063,2.109375 c 0,0.665039 -0.234375,1.18066404 -0.703125,1.54687498 -0.416016,0.3281249997 -0.966797,0.4921875 -1.652344,0.4921875 -0.641601,0 -1.180664,-0.2109375 -1.617187,-0.6328125 -0.351563,0.421875 -0.571289,0.6328125 -0.65625,0.6328125 -0.102539,0 -0.152344,-0.07617188 -0.152344,-0.22265625 V -2.262484 c 0,-0.1464843 0.06152,-0.2226562 0.1875,-0.2226562 0.09375,0 0.158203,0.082031 0.199219,0.2460937 0.169922,0.6650391 0.380859,1.1484375 0.632812,1.45312503 0.328125,0.41601562 0.796875,0.62109375 1.40625,0.62109375 0.46875,0 0.84961,-0.0996094 1.148438,-0.3046875 0.333984,-0.24023438 0.503906,-0.58593748 0.503906,-1.03124998 0,-0.6708985 -0.509766,-1.116211 -1.523438,-1.3359375 -0.585937,-0.1230469 -0.925781,-0.1992188 -1.019531,-0.2226563 -0.375,-0.1083984 -0.679687,-0.2607422 -0.914062,-0.4570312 -0.416016,-0.3427735 -0.621094,-0.7617188 -0.621094,-1.2539063 0,-0.609375 0.246094,-1.0722656 0.738281,-1.3945312 0.421875,-0.2636719 0.952149,-0.3984375 1.59375,-0.3984375 0.539063,0 0.996094,0.1376953 1.371094,0.4101562 0.272461,-0.2724609 0.457031,-0.4101562 0.550781,-0.4101562 0.108399,0 0.164063,0.076172 0.164063,0.2226562 v 1.734375 c 0,0.1640625 -0.06738,0.2460938 -0.199219,0.2460938 -0.102539,0 -0.172852,-0.09668 -0.210938,-0.2929688 -0.01758,-0.140625 -0.03223,-0.2753906 -0.04687,-0.4101562 -0.07031,-0.3984375 -0.263671,-0.7060547 -0.574218,-0.9257813 -0.28125,-0.1933593 -0.632813,-0.2929687 -1.054688,-0.2929687 -0.430664,0 -0.791015,0.079102 -1.078125,0.234375 -0.375,0.196289 -0.5625,0.4892578 -0.5625,0.8789062 0,0.3925782 0.213867,0.6884766 0.644531,0.890625 0.216797,0.1025391 0.603516,0.2080078 1.160157,0.3164063 0.773437,0.149414 1.327148,0.3808594 1.664062,0.6914062 0.413086,0.3925782 0.621094,0.8554688 0.621094,1.3945313 z m 7.910156,4.7109375 c -0.758789,-0.023437 -1.30664,-0.035156 -1.640625,-0.035156 -0.360351,0 -0.911133,0.011719 -1.652344,0.035156 V 2.378141 c 0.169922,0.00586 0.28125,0.011719 0.328125,0.011719 0.310547,0 0.518555,-0.032227 0.621094,-0.09375 0.140625,-0.087891 0.210938,-0.2753906 0.210938,-0.5625 v -2.62500002 c -0.524414,0.703125 -1.171875,1.0546875 -1.945313,1.0546875 -0.875976,0 -1.617187,-0.33398438 -2.226562,-1.0078125 C 18.405204,-1.491976 18.109306,-2.2566244 18.109306,-3.14139 c 0,-0.8964844 0.310547,-1.6757813 0.9375,-2.3320313 0.632812,-0.6621093 1.394531,-0.9960937 2.285156,-0.9960937 0.421875,0 0.811523,0.1259765 1.171875,0.375 0.342773,0.243164 0.609375,0.5595703 0.796875,0.9492187 l 0.550781,-1.3242187 h 0.316406 V 1.73361 c 0,0.2021484 0.02637,0.3544922 0.08203,0.4570312 0.09375,0.1552735 0.445312,0.2167969 1.054687,0.1875 z m -2.097656,-4.828125 V -4.043734 c 0,-0.515625 -0.164063,-0.9785156 -0.492188,-1.3945312 -0.360351,-0.4453125 -0.791015,-0.6679688 -1.289062,-0.6679688 -0.439453,0 -0.837891,0.1757813 -1.195313,0.5273438 -0.313476,0.3046875 -0.547851,0.6855469 -0.703125,1.1367187 -0.140625,0.3984375 -0.210937,0.8320313 -0.210937,1.3007813 0,0.6972656 0.152344,1.3359375 0.457031,1.921875 0.366211,0.70312498 0.867188,1.05468748 1.5,1.05468748 0.46875,0 0.905274,-0.1875 1.3125,-0.5625 0.413086,-0.37499998 0.621094,-0.79687498 0.621094,-1.26562498 z M 33.390556,-7.652203e-4 31.281181,0.16329728 V -1.1609215 c -0.407227,0.88476565 -1.03711,1.32421878 -1.886719,1.32421878 -0.875977,0 -1.473633,-0.19921875 -1.792969,-0.59765625 C 27.311454,-0.79178085 27.167899,-1.4216637 27.167899,-2.3210777 V -4.887484 c 0,-0.4599609 -0.08203,-0.7441406 -0.246093,-0.8554687 -0.111328,-0.070312 -0.407227,-0.1054688 -0.890625,-0.1054688 v -0.46875 l 2.144531,-0.1523437 v 4.8515625 c 0,0.524414 0.08203,0.89062498 0.246094,1.10156248 0.193359,0.234375 0.541992,0.3515625 1.042968,0.3515625 0.5625,0 1.007813,-0.24609375 1.335938,-0.73828125 0.287109,-0.42773433 0.433594,-0.94042973 0.433594,-1.53515623 V -5.028109 c 0,-0.3984375 -0.102539,-0.6474609 -0.304688,-0.75 -0.117187,-0.052734 -0.395508,-0.076172 -0.832031,-0.070312 v -0.46875 l 2.144531,-0.1523437 v 5.203125 c 0,0.39843748 0.105469,0.6503906 0.316406,0.74999998 0.108399,0.0556641 0.386719,0.0761719 0.832032,0.0585938 z m 7.3125,-1.3007812797 c 0,0.38378909 -0.105469,0.70312503 -0.316407,0.96093753 -0.219726,0.28125 -0.515625,0.421875 -0.890625,0.421875 -0.313476,0 -0.574218,-0.12304688 -0.785156,-0.375 -0.205078,-0.21679688 -0.322265,-0.4921875 -0.351562,-0.82031253 -0.164063,0.39257815 -0.418946,0.70312503 -0.761719,0.93750003 -0.345703,0.22558594 -0.732422,0.33984375 -1.160156,0.33984375 -0.580078,0 -1.086914,-0.11425781 -1.523438,-0.33984375 -0.539062,-0.28125 -0.808594,-0.68554688 -0.808594,-1.21875003 0,-0.8115234 0.483399,-1.4472656 1.453125,-1.9101562 0.600586,-0.272461 1.5,-0.4453125 2.695313,-0.515625 v -0.5390625 c 0,-0.4980469 -0.128906,-0.9257813 -0.386719,-1.2773438 -0.290039,-0.3984375 -0.676758,-0.5976562 -1.160156,-0.5976562 -0.703125,0 -1.230469,0.2285156 -1.582031,0.6796875 0.210937,0 0.386718,0.064453 0.527343,0.1875 0.146485,0.1171875 0.222657,0.2783203 0.222657,0.4804687 0,0.1875 -0.06738,0.3486328 -0.199219,0.4804688 -0.125977,0.1259765 -0.287109,0.1875 -0.480469,0.1875 -0.445312,0 -0.667969,-0.225586 -0.667969,-0.6796875 0,-0.515625 0.246094,-0.9316406 0.738282,-1.2539063 0.436523,-0.2724609 0.928711,-0.4101562 1.476562,-0.4101562 0.826172,0 1.494141,0.2695312 2.003906,0.8085937 0.225586,0.2519532 0.375,0.5214844 0.445313,0.8085938 0.04687,0.2050781 0.07031,0.5097656 0.07031,0.9140625 v 2.9179687 c 0,0.18750003 0.04687,0.35156253 0.140625,0.49218753 0.09375,0.1640625 0.225586,0.24609375 0.398438,0.24609375 0.357422,0 0.539062,-0.3984375 0.539062,-1.19531248 0,-0.1230469 -0.0059,-0.3046875 -0.01172,-0.5390625 h 0.375 z m -2.449219,-0.75 v -1.4648437 c -0.782227,0.032227 -1.447266,0.196289 -1.992188,0.4921875 -0.688476,0.3691406 -1.03125,0.9023437 -1.03125,1.6054687 0,0.3603516 0.128907,0.6621094 0.386719,0.90234378 0.257813,0.234375 0.56543,0.3515625 0.925781,0.3515625 0.498047,0 0.914063,-0.19042969 1.242188,-0.57421875 0.310547,-0.35742183 0.46875,-0.79687503 0.46875,-1.31250003 z m 8.077148,-3.5273437 c 0,0.1875 -0.05859,0.3457031 -0.175781,0.46875 -0.117187,0.1171875 -0.266601,0.1757812 -0.445312,0.1757812 -0.181641,0 -0.333985,-0.058594 -0.457032,-0.1757812 -0.117187,-0.1171875 -0.175781,-0.2636719 -0.175781,-0.4453125 0,-0.2958985 0.108399,-0.4863281 0.328125,-0.5742188 -0.02344,-0.014648 -0.05566,-0.023437 -0.09375,-0.023437 -0.618164,0 -1.089844,0.3222657 -1.417969,0.9609375 -0.251953,0.5097657 -0.375,1.1074219 -0.375,1.7929688 v 2.3671875 c 0,0.28124998 0.128907,0.45703123 0.386719,0.52734373 0.09961,0.0322266 0.345703,0.046875 0.738281,0.046875 h 0.292969 V -7.652203e-4 C 44.567313,-0.0300621 44.236259,-0.04764022 43.94036,-0.04764022 h -1.195312 c -0.172852,0 -0.392578,0.0087891 -0.65625,0.0234375 -0.369141,0.01757812 -0.591797,0.0234374997 -0.667969,0.0234374997 V -0.45779647 c 0.04687,0 0.120117,0.005859 0.222656,0.0117188 0.09961,0.008789 0.178711,0.0117188 0.234375,0.0117188 0.451172,0 0.679688,-0.22558594 0.679688,-0.67968753 V -5.028109 c 0,-0.3984375 -0.102539,-0.6474609 -0.304688,-0.75 -0.111328,-0.046875 -0.386718,-0.070312 -0.832031,-0.070312 v -0.46875 l 2.027344,-0.1523437 v 1.6054687 c 0.351562,-1.0693359 0.949219,-1.6054687 1.792969,-1.6054687 0.272461,0 0.518554,0.079102 0.738281,0.234375 0.234375,0.1816406 0.351562,0.3984375 0.351562,0.6562495 z m 6.375,3.84375 c 0,0.1347656 -0.0791,0.336914 -0.234375,0.609375 -0.509765,0.8613281 -1.242187,1.28906248 -2.203125,1.28906248 -0.908203,0 -1.672851,-0.33984375 -2.296875,-1.01953125 -0.618164,-0.66210933 -0.925781,-1.45312503 -0.925781,-2.36718753 0,-0.8818359 0.28125,-1.6523437 0.84375,-2.3085937 0.591797,-0.6855469 1.327149,-1.03125 2.203125,-1.03125 0.820313,0 1.464844,0.28125 1.933594,0.84375 0.451172,0.524414 0.679687,1.2011719 0.679687,2.0273437 0,0.2578125 -0.123047,0.3867188 -0.363281,0.3867188 H 48.25286 c 0,0.9375 0.146485,1.640625 0.445313,2.109375 0.404297,0.65624998 0.955078,0.98437498 1.652344,0.98437498 0.896484,0 1.558593,-0.49804688 1.980468,-1.49999998 0.05273,-0.131836 0.117188,-0.1992188 0.1875,-0.1992188 0.123047,0 0.1875,0.058594 0.1875,0.1757813 z m -0.960937,-2.015625 c -0.0088,-0.6386719 -0.128906,-1.1835938 -0.363281,-1.6289063 -0.290039,-0.5683593 -0.720704,-0.8554687 -1.289063,-0.8554687 -0.1875,0 -0.395508,0.055664 -0.621094,0.1640625 -0.735351,0.3515625 -1.133789,1.125 -1.195312,2.3203125 z m 0,0"
       style="fill:#999999;fill-opacity:0.32549021;fill-rule:nonzero;stroke:none"
       aria-label="1-square"
       transform="matrix(1.3333333,0,0,1.3333333,214.64723,40.926802)" />
    <path
       id="path16"
       d="m 49.684,153.77 h 65.836 c 6.039,0 10.898,4.859 10.898,10.898 v 13.82 c 0,6.035 -4.859,10.899 -10.898,10.899 H 49.684 c -6.039,0 -10.899,-4.864 -10.899,-10.899 v -13.82 c 0,-6.039 4.86,-10.898 10.899,-10.898 z"
       style="fill:#d3d3d3;fill-opacity:1;fill-rule:nonzero;stroke:none"
       transform="scale(1.3333333)" />
    <path
       id="path17"
       d="m 42.598,144.969 h 465.113 c 6.168,0 11.137,4.965 11.137,11.136 v 30.946 c 0,6.172 -4.969,11.137 -11.137,11.137 H 42.598 c -6.168,0 -11.137,-4.965 -11.137,-11.137 v -30.946 c 0,-6.171 4.969,-11.136 11.137,-11.136 z"
       style="fill:none;stroke:#000000;stroke-width:0.956447;stroke-linecap:square;stroke-linejoin:miter;stroke-miterlimit:4;stroke-dasharray:none;stroke-opacity:1"
       transform="scale(1.3333333)" />
    <path
       id="path18"
       d="m 248.602,189.578 c 0,0 59,0 59,0 6,0 12,-6 12,-12 0,0 0,-12 0,-12 0,-6 -6,-12 -12,-12 0,0 -59,0 -59,0 -6,0 -12,6 -12,12 0,0 0,12 0,12 0,6 6,12 12,12"
       style="fill:none;stroke:#000000;stroke-width:1;stroke-linecap:butt;stroke-linejoin:miter;stroke-miterlimit:10;stroke-dasharray:none;stroke-opacity:1"
       transform="scale(1.3333333)" />
    <text
       id="text18"
       xml:space="preserve"
       transform="matrix(1.3333333,0,0,1.3333333,327.30942,233.70101)"><tspan
         style="font-variant:normal;font-weight:normal;font-size:14.0002px;font-family:'Liberation Serif';writing-mode:lr-tb;fill:#000000;fill-opacity:1;fill-rule:nonzero;stroke:none"
         x="0 10.110496 20.220991 32.669411 42.779907 52.890404 57.552582"
         y="0"
         sodipodi:role="line"
         id="tspan18">NOMODIF</tspan></text>
    <path
       id="path19"
       d="m 278.32,145.094 -6.457,8.398 -0.187,-10.597 z"
       style="fill:#000000;fill-opacity:0.99051154;fill-rule:nonzero;stroke:#000000;stroke-width:1;stroke-linecap:butt;stroke-linejoin:miter;stroke-miterlimit:10;stroke-dasharray:none;stroke-opacity:1"
       transform="scale(1.3333333)" />
    <path
       id="path20"
       d="m 147.602,189.578 c 0,0 59,0 59,0 6,0 12,-6 12,-12 0,0 0,-12 0,-12 0,-6 -6,-12 -12,-12 0,0 -59,0 -59,0 -6,0 -12,6 -12,12 0,0 0,12 0,12 0,6 6,12 12,12"
       style="fill:none;stroke:#000000;stroke-width:1;stroke-linecap:butt;stroke-linejoin:miter;stroke-miterlimit:10;stroke-dasharray:none;stroke-opacity:1"
       transform="scale(1.3333333)" />
    <text
       id="text20"
       xml:space="preserve"
       transform="matrix(1.3333333,0,0,1.3333333,210.77186,233.70101)"><tspan
         style="font-variant:normal;font-weight:normal;font-size:14.0002px;font-family:'Liberation Serif';writing-mode:lr-tb;fill:#000000;fill-opacity:1;fill-rule:nonzero;stroke:none"
         x="0 7.7862439 15.572488 24.124369 28.786545"
         y="0"
         sodipodi:role="line"
         id="tspan20">SPLIT</tspan></text>
    <path
       id="path21"
       d="m 185.277,146.641 -7.851,7.113 1.703,-10.457 z"
       style="fill:#ff0000;fill-opacity:1;fill-rule:nonzero;stroke:#ff0000;stroke-width:1;stroke-linecap:butt;stroke-linejoin:miter;stroke-miterlimit:10;stroke-dasharray:none;stroke-opacity:1"
       transform="scale(1.3333333)" />
    <path
       id="path22"
       d="m 9.6919246,-0.00134194 c -0.5800781,-0.02929687 -1.3886719,-0.046875 -2.4257812,-0.046875 -0.515625,0 -0.9433594,0.01757813 -1.2773438,0.046875 v -0.421875 c 0.7324219,0.008789 1.1015625,-0.12304687 1.1015625,-0.3984375 0,-0.13183593 -0.1054687,-0.49511716 -0.3164062,-1.08984376 -0.140625,-0.3808594 -0.2871094,-0.7646484 -0.4335938,-1.1484375 h -3.328125 c -0.1259765,0.328125 -0.2519531,0.6621094 -0.375,0.9960938 -0.1816406,0.4863281 -0.2695312,0.8027343 -0.2695312,0.9492187 0,0.23437501 0.1171875,0.41601564 0.3515625,0.53906251 0.1933593,0.10253907 0.4160156,0.15234375 0.6679687,0.15234375 v 0.421875 c -0.8613281,-0.02929687 -1.3798828,-0.046875 -1.5585937,-0.046875 -0.28125,0 -0.7353516,0.01757813 -1.35937503,0.046875 v -0.421875 C 1.2573543,-0.42907631 1.7524715,-0.73083412 1.9575496,-1.3255607 l 2.8007813,-8.0507812 c 0.061523,-0.178711 0.1669922,-0.2695313 0.3164062,-0.2695313 0.1464844,0 0.2519531,0.09082 0.3164063,0.2695313 l 2.90625,8.41406246 c 0.09375,0.28125 0.2841797,0.45410157 0.5742187,0.515625 0.1083985,0.0322266 0.3808594,0.0410156 0.8203125,0.0234375 z M 6.1997371,-3.4935294 4.6762996,-7.8763419 l -1.5,4.3828125 z m 13.4619139,-1.03125 c 0,1.2041015 -0.383789,2.2470703 -1.148437,3.1289062 -0.796875,0.93164064 -1.790039,1.39453126 -2.976563,1.39453126 h -4.921875 v -0.421875 c 0.304688,0.0175781 0.445313,0.0234375 0.421875,0.0234375 0.492188,0 0.788086,-0.0732422 0.890625,-0.22265625 0.04687,-0.0615234 0.07031,-0.17871093 0.07031,-0.3515625 V -8.2161857 c 0,-0.1640625 -0.02344,-0.28125 -0.07031,-0.3515625 -0.111328,-0.1464844 -0.547851,-0.2109375 -1.3125,-0.1875 v -0.4335937 h 4.921875 c 1.195313,0 2.191406,0.4892578 2.988281,1.4648437 0.75586,0.9082031 1.136719,1.9746094 1.136719,3.1992188 z m -1.347656,0 c 0,-1.3359375 -0.234375,-2.3320313 -0.703125,-2.9882813 -0.585938,-0.8261719 -1.40332,-1.2421875 -2.449219,-1.2421875 h -1.417969 c -0.243164,0 -0.395507,0.023437 -0.457031,0.070312 -0.09375,0.070312 -0.140625,0.2285156 -0.140625,0.46875 v 7.25390626 c 0,0.24316407 0.04687,0.3984375 0.140625,0.46875 0.07031,0.046875 0.222656,0.0703125 0.457031,0.0703125 h 1.429688 c 1.022461,0 1.819336,-0.38085937 2.390625,-1.14843746 0.498047,-0.6708985 0.75,-1.6552735 0.75,-2.9531245 z m 11.320312,0 c 0,1.2041015 -0.383789,2.2470703 -1.148437,3.1289062 -0.796875,0.93164064 -1.790039,1.39453126 -2.976563,1.39453126 h -4.921875 v -0.421875 c 0.304688,0.0175781 0.445313,0.0234375 0.421875,0.0234375 0.492188,0 0.788086,-0.0732422 0.890625,-0.22265625 0.04687,-0.0615234 0.07031,-0.17871093 0.07031,-0.3515625 V -8.2161857 c 0,-0.1640625 -0.02344,-0.28125 -0.07031,-0.3515625 -0.111328,-0.1464844 -0.547851,-0.2109375 -1.3125,-0.1875 v -0.4335937 h 4.921875 c 1.195313,0 2.191407,0.4892578 2.988282,1.4648437 0.755859,0.9082031 1.136718,1.9746094 1.136718,3.1992188 z m -1.347656,0 c 0,-1.3359375 -0.234375,-2.3320313 -0.703125,-2.9882813 -0.585937,-0.8261719 -1.40332,-1.2421875 -2.449219,-1.2421875 h -1.417968 c -0.243164,0 -0.395508,0.023437 -0.457032,0.070312 -0.09375,0.070312 -0.140625,0.2285156 -0.140625,0.46875 v 7.25390626 c 0,0.24316407 0.04687,0.3984375 0.140625,0.46875 0.07031,0.046875 0.222657,0.0703125 0.457032,0.0703125 h 1.429687 c 1.022461,0 1.819336,-0.38085937 2.390625,-1.14843746 0.498047,-0.6708985 0.75,-1.6552735 0.75,-2.9531245 z m 7.652344,4.52343746 c -0.322266,-0.02929687 -0.629883,-0.046875 -0.925781,-0.046875 h -2.765625 c -0.290039,0 -0.594727,0.01757813 -0.914063,0.046875 v -0.43359375 c 0.05274,0 0.134766,0.005859 0.246094,0.0117188 0.117187,0 0.205078,0 0.269531,0 0.694336,0 1.092774,-0.0966797 1.195313,-0.29296875 0.03809,-0.0849609 0.05859,-0.20507812 0.05859,-0.36328116 v -7.4296875 c -0.492187,0.243164 -1.110351,0.3632811 -1.851562,0.3632811 v -0.4335936 c 1.130859,0 1.995117,-0.3046875 2.589844,-0.9140625 h 0.07031 c 0.131836,0 0.210938,0.032227 0.234375,0.09375 0.01465,0.032227 0.02344,0.1230467 0.02344,0.2695311 v 8.0742189 c 0,0.14941398 0.01465,0.26367179 0.04687,0.33984366 0.07031,0.15820313 0.339843,0.25195313 0.808593,0.28125 0.06152,0 0.366211,0 0.914063,0 z m 5.759766,-3.98437496 c 0,0.1875 -0.08789,0.28125 -0.257813,0.28125 h -3.433594 c -0.18164,0 -0.269531,-0.09375 -0.269531,-0.28125 0,-0.1875 0.08789,-0.28125 0.269531,-0.28125 h 3.433594 c 0.169922,0 0.257813,0.09375 0.257813,0.28125 z m 3.164062,-4.7460938 c 0,0.2197266 -0.0791,0.4072266 -0.234375,0.5625 -0.149414,0.1582031 -0.333984,0.234375 -0.550781,0.234375 -0.210938,0 -0.392578,-0.076172 -0.539063,-0.234375 -0.149414,-0.1640625 -0.222656,-0.3515625 -0.222656,-0.5625 0,-0.2021484 0.07324,-0.3779297 0.222656,-0.5273437 0.155274,-0.1552735 0.333985,-0.234375 0.539063,-0.234375 0.216797,0 0.401367,0.076172 0.550781,0.2226562 0.155273,0.1494141 0.234375,0.328125 0.234375,0.5390625 z m 0.972656,8.73046876 c -0.922851,-0.02929687 -1.435547,-0.046875 -1.535156,-0.046875 -0.181641,0 -0.711914,0.01757813 -1.59375,0.046875 v -0.45703125 c 0.234375,0.008789 0.333984,0.0117188 0.304688,0.0117188 0.295898,0 0.498046,-0.0292969 0.609375,-0.09375 0.146484,-0.0761719 0.222656,-0.2578125 0.222656,-0.53906241 v -3.9726563 c 0,-0.3896484 -0.09375,-0.6269531 -0.28125,-0.7148437 -0.111328,-0.052734 -0.375,-0.082031 -0.796875,-0.082031 v -0.46875 l 2.027344,-0.1523437 v 5.48437491 c 0,0.26660157 0.117187,0.43359375 0.351562,0.50390625 0.108398,0.0322266 0.339844,0.0410156 0.691406,0.0234375 z m 8.071289,0 c -0.914062,-0.02929687 -1.464843,-0.046875 -1.652343,-0.046875 -0.158204,0 -0.703125,0.01757813 -1.640625,0.046875 v -0.45703125 c 0.123046,0.008789 0.234375,0.0117188 0.328125,0.0117188 0.28125,0 0.474609,-0.0263672 0.585937,-0.0820313 0.146484,-0.0849609 0.222656,-0.2578125 0.222656,-0.51562501 v -3.5507812 c 0,-1.0371094 -0.360351,-1.5585938 -1.078125,-1.5585938 -0.594726,0 -1.083984,0.2519531 -1.464843,0.75 -0.345704,0.4541016 -0.515625,0.9902344 -0.515625,1.6054688 v 2.7304687 c 0,0.17285158 0.02344,0.30468751 0.07031,0.39843751 0.09375,0.18164063 0.445313,0.25195313 1.054688,0.2109375 v 0.45703125 c -0.908204,-0.02929687 -1.450196,-0.046875 -1.628907,-0.046875 -0.158203,0 -0.703125,0.01757813 -1.640625,0.046875 v -0.45703125 c 0.131836,0.008789 0.237305,0.0117188 0.316407,0.0117188 0.310546,0 0.518554,-0.0292969 0.621093,-0.09375 0.131836,-0.0849609 0.199219,-0.27539062 0.199219,-0.57421871 v -3.9140625 c 0,-0.3984375 -0.102539,-0.6474609 -0.304687,-0.75 -0.111329,-0.052734 -0.386719,-0.076172 -0.832032,-0.070312 v -0.46875 l 2.0625,-0.1523437 v 1.5351562 c 0.451172,-1.0224609 1.171875,-1.5351562 2.15625,-1.5351562 1.327149,0 1.992188,0.7207031 1.992188,2.15625 v 3.42187491 c 0,0.328125 0.380859,0.47460938 1.148437,0.43359375 z m 5.496094,-1.87499996 c 0,0.665039 -0.234375,1.18066403 -0.703125,1.54687496 -0.416016,0.328125 -0.966797,0.4921875 -1.652344,0.4921875 -0.641601,0 -1.180664,-0.2109375 -1.617187,-0.6328125 -0.351563,0.421875 -0.571289,0.6328125 -0.65625,0.6328125 -0.102539,0 -0.152344,-0.07617187 -0.152344,-0.22265625 V -2.2630607 c 0,-0.1464844 0.06152,-0.2226562 0.1875,-0.2226562 0.09375,0 0.158203,0.082031 0.199219,0.2460937 0.169922,0.6650391 0.380859,1.1484375 0.632812,1.45312501 0.328125,0.41601563 0.796875,0.62109375 1.40625,0.62109375 0.46875,0 0.84961,-0.0996094 1.148438,-0.3046875 0.333984,-0.24023437 0.503906,-0.58593746 0.503906,-1.03124996 0,-0.6708985 -0.509766,-1.116211 -1.523437,-1.3359375 -0.585938,-0.1230469 -0.925782,-0.1992188 -1.019532,-0.2226563 -0.375,-0.1083984 -0.679687,-0.2607422 -0.914062,-0.4570312 -0.416016,-0.3427735 -0.621094,-0.7617188 -0.621094,-1.2539063 0,-0.609375 0.246094,-1.0722656 0.738281,-1.3945312 0.421875,-0.2636719 0.952149,-0.3984375 1.59375,-0.3984375 0.539063,0 0.996094,0.1376953 1.371094,0.4101562 0.272461,-0.2724609 0.457031,-0.4101562 0.550781,-0.4101562 0.108399,0 0.164063,0.076172 0.164063,0.2226562 v 1.734375 c 0,0.1640625 -0.06738,0.2460938 -0.199219,0.2460938 -0.102539,0 -0.172851,-0.09668 -0.210937,-0.2929688 -0.01758,-0.140625 -0.03223,-0.2753906 -0.04687,-0.4101562 -0.07031,-0.3984375 -0.263672,-0.7060547 -0.574219,-0.9257813 -0.28125,-0.1933594 -0.632813,-0.2929687 -1.054688,-0.2929687 -0.430664,0 -0.791015,0.079102 -1.078125,0.234375 -0.375,0.196289 -0.5625,0.4892578 -0.5625,0.8789062 0,0.3925781 0.213868,0.6884766 0.644532,0.890625 0.216796,0.1025391 0.603515,0.2080078 1.160156,0.3164063 0.773437,0.149414 1.327148,0.3808593 1.664062,0.6914062 0.413086,0.3925781 0.621094,0.8554688 0.621094,1.3945313 z m 6.375,0.140625 c 0,0.1347656 -0.0791,0.336914 -0.234375,0.609375 -0.509766,0.86132809 -1.242187,1.28906246 -2.203125,1.28906246 -0.908203,0 -1.672851,-0.33984375 -2.296875,-1.01953125 -0.618164,-0.66210941 -0.925781,-1.45312501 -0.925781,-2.36718751 0,-0.8818359 0.28125,-1.6523437 0.84375,-2.3085937 0.591797,-0.6855469 1.327148,-1.03125 2.203125,-1.03125 0.820312,0 1.464844,0.28125 1.933594,0.84375 0.451171,0.524414 0.679687,1.2011718 0.679687,2.0273437 0,0.2578125 -0.123047,0.3867188 -0.363281,0.3867188 h -4.089844 c 0,0.9375 0.146484,1.640625 0.445313,2.109375 0.404296,0.65624996 0.955078,0.98437496 1.652343,0.98437496 0.896485,0 1.558594,-0.49804687 1.980469,-1.49999996 0.05273,-0.131836 0.117188,-0.1992188 0.1875,-0.1992188 0.123047,0 0.1875,0.058594 0.1875,0.1757813 z m -0.960937,-2.015625 c -0.0088,-0.6386719 -0.128907,-1.1835938 -0.363282,-1.6289063 -0.290039,-0.5683594 -0.720703,-0.8554687 -1.289062,-0.8554687 -0.1875,0 -0.395508,0.055664 -0.621094,0.1640625 -0.735351,0.3515625 -1.133789,1.125 -1.195312,2.3203125 z m 6.588867,-1.828125 c 0,0.1875 -0.05859,0.3457031 -0.175781,0.46875 -0.117188,0.1171875 -0.266602,0.1757812 -0.445313,0.1757812 -0.181641,0 -0.333984,-0.058594 -0.457031,-0.1757812 -0.117188,-0.1171875 -0.175781,-0.2636719 -0.175781,-0.4453125 0,-0.2958985 0.108398,-0.4863282 0.328125,-0.5742188 -0.02344,-0.014648 -0.05567,-0.023437 -0.09375,-0.023437 -0.618165,0 -1.089844,0.3222656 -1.417969,0.9609375 -0.251953,0.5097656 -0.375,1.1074219 -0.375,1.7929688 v 2.3671875 c 0,0.28124996 0.128906,0.45703121 0.386719,0.52734371 0.09961,0.0322266 0.345703,0.046875 0.738281,0.046875 h 0.292969 v 0.45703125 c -0.369141,-0.02929687 -0.700196,-0.046875 -0.996094,-0.046875 h -1.195313 c -0.172851,0 -0.392578,0.0087891 -0.65625,0.0234375 -0.36914,0.01757813 -0.591797,0.0234375 -0.667968,0.0234375 v -0.45703125 c 0.04687,0 0.120117,0.005859 0.222656,0.0117188 0.09961,0.008789 0.178711,0.0117188 0.234375,0.0117188 0.451172,0 0.679687,-0.22558593 0.679687,-0.67968751 v -3.9140625 c 0,-0.3984375 -0.102539,-0.6474609 -0.304687,-0.75 -0.111328,-0.046875 -0.386719,-0.070312 -0.832031,-0.070312 v -0.46875 l 2.027343,-0.1523437 v 1.6054687 c 0.351563,-1.0693359 0.949219,-1.6054687 1.792969,-1.6054687 0.272461,0 0.518555,0.079102 0.738281,0.234375 0.234375,0.1816406 0.351563,0.3984375 0.351563,0.65625 z m 5.285156,3.7617187 c 0,0.515625 -0.111328,0.95800783 -0.328125,1.32421876 -0.266602,0.43945313 -0.638672,0.65625 -1.113281,0.65625 -0.603516,0 -1.066406,-0.17578125 -1.394531,-0.52734375 -0.328125,-0.35742187 -0.492188,-0.84375001 -0.492188,-1.45312501 v -4.03125 h -1.242187 v -0.328125 c 0.64746,-0.023437 1.136718,-0.3544922 1.464843,-0.9960937 0.272461,-0.506836 0.413086,-1.116211 0.421875,-1.828125 h 0.363282 v 2.6835937 h 2.085937 v 0.46875 h -2.085937 v 4.0664063 c 0,1.04882809 0.328125,1.57031246 0.984375,1.57031246 0.662109,0 0.996093,-0.65917968 0.996093,-1.98046876 0,-0.076172 -0.0059,-0.2285156 -0.01172,-0.4570312 h 0.351562 z m 0,0"
       style="fill:#000000;fill-opacity:1;fill-rule:nonzero;stroke:none"
       aria-label="ADD1-insert"
       transform="matrix(1.3333333,0,0,1.3333333,58.694621,233.70101)" />
    <path
       id="path23"
       d="m 41.453,217.539 h 214 v 53 h -214 z"
       style="fill:none;stroke:#000000;stroke-width:1;stroke-linecap:butt;stroke-linejoin:miter;stroke-miterlimit:10;stroke-dasharray:none;stroke-opacity:1"
       transform="scale(1.3333333)" />
    <path
       id="path25"
       d="m 193.453,226.039 h 54 v 36 h -54 z"
       style="fill:none;stroke:#000000;stroke-width:1;stroke-linecap:butt;stroke-linejoin:miter;stroke-miterlimit:10;stroke-dasharray:none;stroke-opacity:1"
       transform="scale(1.3333333)" />
    <path
       id="path26"
       d="m 3.8212781,2.1334932 c 0,0.1699219 -0.099609,0.2578125 -0.2929687,0.2578125 -0.1025391,0 -0.1992188,-0.1054688 -0.2929688,-0.3164063 L 0.62205937,-3.9836943 3.2353406,-10.030569 c 0.09375,-0.210938 0.1904297,-0.316407 0.2929688,-0.316407 0.1933593,0 0.2929687,0.08789 0.2929687,0.257813 0,0.0791 -0.020508,0.1611328 -0.058594,0.2460937 l -2.5429688,5.859375 2.5429688,5.8710937 c 0.038086,0.084961 0.058594,0.1669922 0.058594,0.2460938 z M 8.4912,-3.9836943 5.8779187,2.0748994 C 5.7841687,2.2858369 5.6845594,2.3913057 5.58495,2.3913057 c -0.1962891,0 -0.2929688,-0.087891 -0.2929688,-0.2578125 0,-0.079102 0.017578,-0.1611328 0.058594,-0.2460938 l 2.53125,-5.8710937 -2.53125,-5.859375 c -0.041016,-0.084961 -0.058594,-0.1669917 -0.058594,-0.2460937 0,-0.169922 0.09668,-0.257813 0.2929688,-0.257813 0.099609,0 0.1992187,0.105469 0.2929687,0.316407 z m 0,0"
       style="fill:#000000;fill-opacity:1;fill-rule:nonzero;stroke:none"
       aria-label="⟨⟩"
       transform="matrix(1.3333333,0,0,1.3333333,287.8659,330.3155)" />
    <path
       id="path27"
       d="m 232.344,219.363 -8.203,6.707 2.23,-10.355 z"
       style="fill:#000000;fill-opacity:1;fill-rule:nonzero;stroke:#040000;stroke-width:1;stroke-linecap:butt;stroke-linejoin:miter;stroke-miterlimit:10;stroke-dasharray:none;stroke-opacity:1"
       transform="scale(1.3333333)" />
    <path
       id="path28"
       d="m 154,219.324 -8.113,6.817 2.093,-10.387 z"
       style="fill:#000000;fill-opacity:1;fill-rule:nonzero;stroke:#040000;stroke-width:1;stroke-linecap:butt;stroke-linejoin:miter;stroke-miterlimit:10;stroke-dasharray:none;stroke-opacity:1"
       transform="scale(1.3333333)" />
    <path
       id="path29"
       d="m 49.453,226.039 h 54 v 36 h -54 z"
       style="fill:#add8e6;fill-opacity:1;fill-rule:nonzero;stroke:#add8e6;stroke-width:1;stroke-linecap:butt;stroke-linejoin:miter;stroke-miterlimit:10;stroke-dasharray:none;stroke-opacity:1"
       transform="scale(1.3333333)" />
    <text
       id="text29"
       xml:space="preserve"
       transform="matrix(1.3333333,0,0,1.3333333,97.186525,330.3155)"><tspan
         style="font-variant:normal;font-weight:normal;font-size:14.0002px;font-family:'Liberation Serif';writing-mode:lr-tb;fill:#000000;fill-opacity:1;fill-rule:nonzero;stroke:none"
         x="0"
         y="0"
         id="tspan29">3</tspan></text>
    <path
       id="path101"
       d="m 121.453,226.039 h 54 v 36 h -54 z"
       style="fill:none;stroke:#000000;stroke-width:1;stroke-linecap:butt;stroke-linejoin:miter;stroke-miterlimit:10;stroke-dasharray:none;stroke-opacity:1"
       transform="scale(1.3333333)" />
    <path
       id="path102"
       d="m 147.602,189.578 c 0,0 59,0 59,0 6,0 12,-6 12,-12 0,0 0,-12 0,-12 0,-6 -6,-12 -12,-12 0,0 -59,0 -59,0 -6,0 -12,6 -12,12 0,0 0,12 0,12 0,6 6,12 12,12"
       style="fill:none;stroke:#000000;stroke-width:1;stroke-linecap:butt;stroke-linejoin:miter;stroke-miterlimit:10;stroke-dasharray:none;stroke-opacity:1"
       transform="scale(1.3333333)" />
    <path
       id="path103"
       d="m 344.059,189.578 c 0,0 59,0 59,0 6,0 12,-6 12,-12 0,0 0,-12 0,-12 0,-6 -6,-12 -12,-12 0,0 -59,0 -59,0 -6,0 -12,6 -12,12 0,0 0,12 0,12 0,6 6,12 12,12"
       style="fill:none;stroke:#000000;stroke-width:1;stroke-linecap:butt;stroke-linejoin:miter;stroke-miterlimit:10;stroke-dasharray:none;stroke-opacity:1"
       transform="scale(1.3333333)" />
    <text
       id="text103"
       xml:space="preserve"
       transform="matrix(1.3333333,0,0,1.3333333,472.71618,233.70101)"><tspan
         style="font-variant:normal;font-weight:normal;font-size:14.0002px;font-family:'Liberation Serif';writing-mode:lr-tb;fill:#000000;fill-opacity:1;fill-rule:nonzero;stroke:none"
         x="0 7.7862439 15.572488 24.124369 28.786545"
         y="0"
         sodipodi:role="line"
         id="tspan103">SPLIT</tspan></text>
    <path
       id="path105"
       d="m 373.379,142.938 0.539,10.582 -7.02,-7.938 z"
       style="fill:#ff0000;fill-opacity:1;fill-rule:nonzero;stroke:#ff0000;stroke-width:1;stroke-linecap:butt;stroke-linejoin:miter;stroke-miterlimit:10;stroke-dasharray:none;stroke-opacity:1"
       transform="scale(1.3333333)" />
    <path
       id="path106"
       d="m 340.172,218.324 h 214 v 53 h -214 z"
       style="fill:none;stroke:#000000;stroke-width:1;stroke-linecap:butt;stroke-linejoin:miter;stroke-miterlimit:10;stroke-dasharray:none;stroke-opacity:1"
       transform="scale(1.3333333)" />
    <path
       id="path109"
       d="m 492.172,226.824 h 54 v 36 h -54 z"
       style="fill:none;stroke:#000000;stroke-width:1;stroke-linecap:butt;stroke-linejoin:miter;stroke-miterlimit:10;stroke-dasharray:none;stroke-opacity:1"
       transform="scale(1.3333333)" />
    <path
       id="path110"
       d="m 420.172,226.824 h 54 v 36 h -54 z"
       style="fill:none;stroke:#000000;stroke-width:1;stroke-linecap:butt;stroke-linejoin:miter;stroke-miterlimit:10;stroke-dasharray:none;stroke-opacity:1"
       transform="scale(1.3333333)" />
    <path
       id="path111"
       d="m 441.227,216.52 2.156,10.375 -8.153,-6.766 z"
       style="fill:#000000;fill-opacity:1;fill-rule:nonzero;stroke:#040000;stroke-width:1;stroke-linecap:butt;stroke-linejoin:miter;stroke-miterlimit:10;stroke-dasharray:none;stroke-opacity:1"
       transform="scale(1.3333333)" />
    <path
       id="path112"
       d="m 516.129,216.563 2,10.41 -8.051,-6.887 z"
       style="fill:#000000;fill-opacity:1;fill-rule:nonzero;stroke:#040000;stroke-width:1;stroke-linecap:butt;stroke-linejoin:miter;stroke-miterlimit:10;stroke-dasharray:none;stroke-opacity:1"
       transform="scale(1.3333333)" />
    <path
       id="path113"
       d="m 348.172,226.824 h 54 v 36 h -54 z"
       style="fill:#add8e6;fill-opacity:1;fill-rule:nonzero;stroke:#add8e6;stroke-width:1;stroke-linecap:butt;stroke-linejoin:miter;stroke-miterlimit:10;stroke-dasharray:none;stroke-opacity:1"
       transform="scale(1.3333333)" />
    <text
       id="text113"
       xml:space="preserve"
       transform="matrix(1.3333333,0,0,1.3333333,495.52631,331.36301)"><tspan
         style="font-variant:normal;font-weight:normal;font-size:14.0002px;font-family:'Liberation Serif';writing-mode:lr-tb;fill:#000000;fill-opacity:1;fill-rule:nonzero;stroke:none"
         x="0"
         y="0"
         id="tspan113">4</tspan></text>
    <path
       id="path114"
       d="m 3.8197969,2.1330194 c 0,0.1699219 -0.099609,0.2578125 -0.2929687,0.2578125 -0.1025391,0 -0.1992188,-0.1054687 -0.2929688,-0.3164062 L 0.62057816,-3.9841681 3.2338594,-10.031043 c 0.09375,-0.210938 0.1904297,-0.316406 0.2929688,-0.316406 0.1933593,0 0.2929687,0.08789 0.2929687,0.257812 0,0.0791 -0.020508,0.161133 -0.058594,0.2460939 l -2.5429688,5.859375 2.5429688,5.8710938 c 0.038086,0.084961 0.058594,0.1669922 0.058594,0.2460937 z M 8.4897188,-3.9841681 5.8764375,2.0744257 C 5.7826875,2.2853632 5.6830782,2.3908319 5.5834688,2.3908319 5.3871797,2.3908319 5.2905,2.3029413 5.2905,2.1330194 c 0,-0.079101 0.017578,-0.1611328 0.058594,-0.2460937 l 2.53125,-5.8710938 -2.53125,-5.859375 C 5.3080782,-9.928504 5.2905,-10.010535 5.2905,-10.089637 c 0,-0.169922 0.09668,-0.257812 0.2929688,-0.257812 0.099609,0 0.1992187,0.105468 0.2929687,0.316406 z m 0,0"
       style="fill:#000000;fill-opacity:1;fill-rule:nonzero;stroke:none"
       aria-label="⟨⟩"
       transform="matrix(1.3333333,0,0,1.3333333,686.15303,331.36301)" />
    <path
       id="path115"
       d="m 440.059,188.711 c 0,0 59,0 59,0 6,0 12,-6 12,-12 0,0 0,-12 0,-12 0,-6 -6,-12 -12,-12 0,0 -59,0 -59,0 -6,0 -12,6 -12,12 0,0 0,12 0,12 0,6 6,12 12,12"
       style="fill:none;stroke:#000000;stroke-width:1;stroke-linecap:butt;stroke-linejoin:miter;stroke-miterlimit:10;stroke-dasharray:none;stroke-opacity:1"
       transform="scale(1.3333333)" />
    <text
       id="text115"
       xml:space="preserve"
       transform="matrix(1.3333333,0,0,1.3333333,582.58695,232.54287)"><tspan
         style="font-variant:normal;font-weight:normal;font-size:14.0002px;font-family:'Liberation Serif';writing-mode:lr-tb;fill:#000000;fill-opacity:1;fill-rule:nonzero;stroke:none"
         x="0 10.110496 20.220991 32.669411 42.779907 52.890404 57.552582"
         y="0"
         sodipodi:role="line"
         id="tspan115">NOMODIF</tspan></text>
    <path
       id="path123"
       d="m 468.414,142.938 0.539,10.582 -7.023,-7.938 z"
       style="fill:#000000;fill-opacity:0.99051154;fill-rule:nonzero;stroke:#000000;stroke-width:1;stroke-linecap:butt;stroke-linejoin:miter;stroke-miterlimit:10;stroke-dasharray:none;stroke-opacity:1"
       transform="scale(1.3333333)" />
    <path
       id="path133"
       d="m 179.188,190.078 -28.196,27.461"
       style="fill:none;stroke:#000000;stroke-width:0.99975;stroke-linecap:square;stroke-linejoin:miter;stroke-miterlimit:4;stroke-dasharray:none;stroke-opacity:1"
       transform="scale(1.3333333)" />
    <path
       id="path134"
       d="m 376.559,190.078 c 22.503,7.567 44.558,15.559 61.668,28.246"
       style="fill:none;stroke:#000000;stroke-width:0.99975;stroke-linecap:square;stroke-linejoin:miter;stroke-miterlimit:4;stroke-dasharray:none;stroke-opacity:1"
       transform="scale(1.3333333)" />
    <path
       id="path135"
       d="m 479.203,189.211 33.899,29.113"
       style="fill:none;stroke:#000000;stroke-width:0.99975;stroke-linecap:square;stroke-linejoin:miter;stroke-miterlimit:4;stroke-dasharray:none;stroke-opacity:1"
       transform="scale(1.3333333)" />
    <path
       id="path136"
       d="m 288.918,117.996 c -35.887,7.633 -78.242,11.676 -106.715,26.973"
       style="fill:none;stroke:#ff0000;stroke-width:0.99975;stroke-linecap:square;stroke-linejoin:miter;stroke-miterlimit:4;stroke-dasharray:none;stroke-opacity:1"
       transform="scale(1.3333333)" />
    <path
       id="path137"
       d="m 360.918,117.996 c -17.293,22.762 -69.969,12.141 -85.766,26.973"
       style="fill:none;stroke:#000000;stroke-width:0.99975;stroke-linecap:square;stroke-linejoin:miter;stroke-miterlimit:4;stroke-dasharray:none;stroke-opacity:1"
       transform="scale(1.3333333)" />
    <path
       id="path138"
       d="m 288.918,117.996 c 37.473,30.75 75.203,5.844 81.219,26.262"
       style="fill:none;stroke:#ff0000;stroke-width:0.99975;stroke-linecap:square;stroke-linejoin:miter;stroke-miterlimit:4;stroke-dasharray:none;stroke-opacity:1"
       transform="scale(1.3333333)" />
    <path
       id="path139"
       d="m 360.918,117.996 c 23.699,3.789 96.988,13.133 104.254,26.262"
       style="fill:none;stroke:#000000;stroke-width:0.99975;stroke-linecap:square;stroke-linejoin:miter;stroke-miterlimit:4;stroke-dasharray:none;stroke-opacity:1"
       transform="scale(1.3333333)" />
    <path
       id="path140"
       d="m 333.918,81.996 h 54 v 36 h -54 z"
       style="fill:none;stroke:#000000;stroke-width:1;stroke-linecap:butt;stroke-linejoin:miter;stroke-miterlimit:10;stroke-dasharray:none;stroke-opacity:1"
       transform="scale(1.3333333)" />
    <path
       id="path141"
       d="m 279.688,190.078 c -18.106,7.567 -36.833,14.383 -50.329,27.461"
       style="fill:none;stroke:#000000;stroke-width:0.99975;stroke-linecap:square;stroke-linejoin:miter;stroke-miterlimit:4;stroke-dasharray:none;stroke-opacity:1"
       transform="scale(1.3333333)" />
    <path
       id="path142"
       d="m 261.918,81.996 h 54 v 36 h -54 z"
       style="fill:none;stroke:#000000;stroke-width:1;stroke-linecap:butt;stroke-linejoin:miter;stroke-miterlimit:10;stroke-dasharray:none;stroke-opacity:1"
       transform="scale(1.3333333)" />
    <path
       id="path143"
       d="m 3.8194079,2.1330194 c 0,0.1699219 -0.099609,0.2578125 -0.2929688,0.2578125 -0.102539,0 -0.1992187,-0.1054687 -0.2929687,-0.3164062 L 0.62018913,-3.9841681 3.2334704,-10.031043 c 0.09375,-0.210938 0.1904297,-0.316406 0.2929687,-0.316406 0.1933594,0 0.2929688,0.08789 0.2929688,0.257812 0,0.0791 -0.020508,0.161133 -0.058594,0.2460939 l -2.5429687,5.859375 2.5429687,5.8710938 c 0.038086,0.084961 0.058594,0.1669922 0.058594,0.2460937 z m 0,0"
       style="fill:#000000;fill-opacity:1;fill-rule:nonzero;stroke:none"
       aria-label="⟨"
       transform="matrix(1.3333333,0,0,1.3333333,585.69652,331.36301)" />
    <text
       id="text143"
       xml:space="preserve"
       transform="matrix(1.3333333,0,0,1.3333333,591.69225,331.36301)"><tspan
         style="font-variant:normal;font-weight:normal;font-size:14.0002px;font-family:'Liberation Serif';writing-mode:lr-tb;fill:#000000;fill-opacity:1;fill-rule:nonzero;stroke:none"
         x="0"
         y="0"
         id="tspan143">0</tspan></text>
    <path
       id="path144"
       d="M 3.9387707,-3.9841681 1.3254894,2.0744257 c -0.09375,0.2109375 -0.1933593,0.3164062 -0.2929687,0.3164062 -0.19628908,0 -0.29296877,-0.087891 -0.29296877,-0.2578125 0,-0.079101 0.0175781,-0.1611328 0.0585938,-0.2460937 L 3.3293957,-3.9841681 0.79814568,-9.8435431 c -0.0410156,-0.084961 -0.0585938,-0.1669919 -0.0585938,-0.2460939 0,-0.169922 0.0966797,-0.257812 0.29296872,-0.257812 0.099609,0 0.1992187,0.105468 0.2929687,0.316406 z M -306.14228,1.3478632 c 0,0.1699219 -0.0996,0.2578125 -0.29297,0.2578125 -0.10254,0 -0.19922,-0.1054688 -0.29297,-0.3164063 l -2.61328,-6.0585937 2.61328,-6.0468747 c 0.0937,-0.210938 0.19043,-0.316407 0.29297,-0.316407 0.19336,0 0.29297,0.08789 0.29297,0.257813 0,0.0791 -0.0205,0.161133 -0.0586,0.246094 l -2.54297,5.8593747 2.54297,5.8710937 c 0.0381,0.084961 0.0586,0.1669922 0.0586,0.2460938 z m 0,0"
       style="fill:#000000;fill-opacity:1;fill-rule:nonzero;stroke:none"
       aria-label="⟩&#10;⟨"
       transform="matrix(1.3333333,0,0,1.3333333,600.68971,331.36301)" />
    <text
       id="text144"
       xml:space="preserve"
       transform="matrix(1.3333333,0,0,1.3333333,193.40026,330.3155)"><tspan
         style="font-variant:normal;font-weight:normal;font-size:14.0002px;font-family:'Liberation Serif';writing-mode:lr-tb;fill:#000000;fill-opacity:1;fill-rule:nonzero;stroke:none"
         x="0"
         y="0"
         id="tspan144">0</tspan></text>
    <path
       id="path145"
       d="M 3.9380355,-3.9836947 1.3247542,2.0748991 c -0.09375,0.2109375 -0.1933594,0.3164062 -0.2929687,0.3164062 -0.19628909,0 -0.29296878,-0.087891 -0.29296878,-0.2578125 0,-0.079102 0.0175781,-0.1611328 0.0585938,-0.2460937 L 3.3286605,-3.9836947 0.79741047,-9.8430697 c -0.0410156,-0.084961 -0.0585938,-0.1669923 -0.0585938,-0.2460933 0,-0.169922 0.0966797,-0.257813 0.29296873,-0.257813 0.099609,0 0.1992187,0.105469 0.2929687,0.316406 z m 0,0"
       style="fill:#000000;fill-opacity:1;fill-rule:nonzero;stroke:none"
       aria-label="⟩"
       transform="matrix(1.3333333,0,0,1.3333333,202.39772,330.3155)" />
  </g>
</svg>
