<?xml version="1.0" encoding="UTF-8" standalone="no"?>
<!-- Created with Inkscape (http://www.inkscape.org/) -->

<svg
   version="1.1"
   id="svg9760"
   width="384"
   height="558.66663"
   viewBox="0 0 384 558.66662"
   sodipodi:docname="pn7.svg"
   inkscape:version="1.2.2 (b0a8486541, 2022-12-01)"
   xmlns:inkscape="http://www.inkscape.org/namespaces/inkscape"
   xmlns:sodipodi="http://sodipodi.sourceforge.net/DTD/sodipodi-0.dtd"
   xmlns="http://www.w3.org/2000/svg"
   xmlns:svg="http://www.w3.org/2000/svg">
  <defs
     id="defs9764" />
  <sodipodi:namedview
     id="namedview9762"
     pagecolor="#ffffff"
     bordercolor="#000000"
     borderopacity="0.25"
     inkscape:showpageshadow="2"
     inkscape:pageopacity="0.0"
     inkscape:pagecheckerboard="0"
     inkscape:deskcolor="#d1d1d1"
     showgrid="false"
     inkscape:zoom="1.3000973"
     inkscape:cx="191.90871"
     inkscape:cy="279.59446"
     inkscape:window-width="1908"
     inkscape:window-height="1048"
     inkscape:window-x="1085"
     inkscape:window-y="25"
     inkscape:window-maximized="1"
     inkscape:current-layer="g9768">
    <inkscape:page
       x="0"
       y="0"
       id="page9766"
       width="384"
       height="558.66663" />
  </sodipodi:namedview>
  <g
     id="g9768"
     inkscape:groupmode="layer"
     inkscape:label="Page 1"
     transform="matrix(1.3333333,0,0,1.3333333,-63.333332,-63.333332)">
    <g
       id="g9770">
      <path
         d="m 60,101 c 0,0 249,0 249,0 6,0 12,-6 12,-12 0,0 0,-29 0,-29 0,-6 -6,-12 -12,-12 0,0 -249,0 -249,0 -6,0 -12,6 -12,12 0,0 0,29 0,29 0,6 6,12 12,12"
         style="fill:none;stroke:#000000;stroke-width:1;stroke-linecap:butt;stroke-linejoin:miter;stroke-miterlimit:10;stroke-dasharray:none;stroke-opacity:1"
         id="path9772" />
      <path
         d="m 77,121 h 214 v 53 H 77 Z"
         style="fill:none;stroke:#000000;stroke-width:1;stroke-linecap:butt;stroke-linejoin:miter;stroke-miterlimit:10;stroke-dasharray:none;stroke-opacity:1"
         id="path9774" />
      <path
         d="m 74,247 c 0,0 249,0 249,0 6,0 12,-6 12,-12 0,0 0,-29 0,-29 0,-6 -6,-12 -12,-12 0,0 -249,0 -249,0 -6,0 -12,6 -12,12 0,0 0,29 0,29 0,6 6,12 12,12"
         style="fill:none;stroke:#000000;stroke-width:1;stroke-linecap:butt;stroke-linejoin:miter;stroke-miterlimit:10;stroke-dasharray:none;stroke-opacity:1"
         id="path9776" />
      <path
         d="m 91,267 h 214 v 53 H 91 Z"
         style="fill:none;stroke:#000000;stroke-width:1;stroke-linecap:butt;stroke-linejoin:miter;stroke-miterlimit:10;stroke-dasharray:none;stroke-opacity:1"
         id="path9778" />
      <path
         d="m 139,393 c 0,0 118,0 118,0 6,0 12,-6 12,-12 0,0 0,-29 0,-29 0,-6 -6,-12 -12,-12 0,0 -118,0 -118,0 -6,0 -12,6 -12,12 0,0 0,29 0,29 0,6 6,12 12,12"
         style="fill:none;stroke:#000000;stroke-width:1;stroke-linecap:butt;stroke-linejoin:miter;stroke-miterlimit:10;stroke-dasharray:none;stroke-opacity:1"
         id="path9780" />
      <path
         d="m 127,413 h 142 v 53 H 127 Z"
         style="fill:none;stroke:#000000;stroke-width:1;stroke-linecap:butt;stroke-linejoin:miter;stroke-miterlimit:10;stroke-dasharray:none;stroke-opacity:1"
         id="path9782" />
      <path
         d="m 241.5,92.5 c 0,0 59,0 59,0 6,0 12,-6 12,-12 0,0 0,-12 0,-12 0,-6 -6,-12 -12,-12 0,0 -59,0 -59,0 -6,0 -12,6 -12,12 0,0 0,12 0,12 0,6 6,12 12,12"
         style="fill:none;stroke:#000000;stroke-width:1;stroke-linecap:butt;stroke-linejoin:miter;stroke-miterlimit:10;stroke-dasharray:none;stroke-opacity:1"
         id="path9784" />
      <text
         xml:space="preserve"
         transform="translate(237.5,78.199219)"
         style="font-variant:normal;font-weight:normal;font-size:14.0002px;font-family:'Liberation Serif';-inkscape-font-specification:LiberationSerif;writing-mode:lr-tb;fill:#000000;fill-opacity:1;fill-rule:nonzero;stroke:none"
         id="text9788"><tspan
           x="0 9.0020475 18.004095 26.247997 34.49649 42.754395 47.248581 56.995102"
           y="0"
           sodipodi:role="line"
           id="tspan9786">CREATION</tspan></text>
      <path
         d="m 229,129.5 h 54 v 36 h -54 z"
         style="fill:none;stroke:#000000;stroke-width:1;stroke-linecap:butt;stroke-linejoin:miter;stroke-miterlimit:10;stroke-dasharray:none;stroke-opacity:1"
         id="path9790" />
      <text
         xml:space="preserve"
         transform="translate(251,151.19922)"
         style="font-variant:normal;font-weight:normal;font-size:14.0002px;font-family:Symbola;-inkscape-font-specification:Symbola;writing-mode:lr-tb;fill:#000000;fill-opacity:1;fill-rule:nonzero;stroke:none"
         id="text9794"><tspan
           x="0 4.4968128"
           y="0"
           sodipodi:role="line"
           id="tspan9792">⟨⟩</tspan></text>
      <path
         d="m 267.367,92.688 c -1.691,8.023 -3.75,17.765 -5.648,26.742"
         style="fill:none;stroke:#ff0000;stroke-width:1;stroke-linecap:butt;stroke-linejoin:miter;stroke-miterlimit:10;stroke-dasharray:none;stroke-opacity:1"
         id="path9796" />
      <path
         d="m 265.09,120.41 -5.492,9.063 -1.356,-10.508 z"
         style="fill:#ff0000;fill-opacity:1;fill-rule:nonzero;stroke:#ff0000;stroke-width:1;stroke-linecap:butt;stroke-linejoin:miter;stroke-miterlimit:10;stroke-dasharray:none;stroke-opacity:1"
         id="path9798" />
      <path
         d="m 255.5,238.5 c 0,0 59,0 59,0 6,0 12,-6 12,-12 0,0 0,-12 0,-12 0,-6 -6,-12 -12,-12 0,0 -59,0 -59,0 -6,0 -12,6 -12,12 0,0 0,12 0,12 0,6 6,12 12,12"
         style="fill:none;stroke:#000000;stroke-width:1;stroke-linecap:butt;stroke-linejoin:miter;stroke-miterlimit:10;stroke-dasharray:none;stroke-opacity:1"
         id="path9800" />
      <text
         xml:space="preserve"
         transform="translate(251.5,224.19922)"
         style="font-variant:normal;font-weight:normal;font-size:14.0002px;font-family:'Liberation Serif';-inkscape-font-specification:LiberationSerif;writing-mode:lr-tb;fill:#000000;fill-opacity:1;fill-rule:nonzero;stroke:none"
         id="text9804"><tspan
           x="0 9.0020475 18.004095 26.247997 34.49649 42.754395 47.248581 56.995102"
           y="0"
           sodipodi:role="line"
           id="tspan9802">CREATION</tspan></text>
      <path
         d="m 263.02,165.688 c 3.347,8.199 7.429,18.187 11.164,27.328"
         style="fill:none;stroke:#ff0000;stroke-width:1;stroke-linecap:butt;stroke-linejoin:miter;stroke-miterlimit:10;stroke-dasharray:none;stroke-opacity:1"
         id="path9806" />
      <path
         d="m 277.504,191.891 0.539,10.582 -7.02,-7.938 z"
         style="fill:#ff0000;fill-opacity:1;fill-rule:nonzero;stroke:#ff0000;stroke-width:1;stroke-linecap:butt;stroke-linejoin:miter;stroke-miterlimit:10;stroke-dasharray:none;stroke-opacity:1"
         id="path9808" />
      <path
         d="m 140.5,92.5 c 0,0 59,0 59,0 6,0 12,-6 12,-12 0,0 0,-12 0,-12 0,-6 -6,-12 -12,-12 0,0 -59,0 -59,0 -6,0 -12,6 -12,12 0,0 0,12 0,12 0,6 6,12 12,12"
         style="fill:none;stroke:#000000;stroke-width:1;stroke-linecap:butt;stroke-linejoin:miter;stroke-miterlimit:10;stroke-dasharray:none;stroke-opacity:1"
         id="path9810" />
      <text
         xml:space="preserve"
         transform="translate(136.5,78.199219)"
         style="font-variant:normal;font-weight:normal;font-size:14.0002px;font-family:'Liberation Serif';-inkscape-font-specification:LiberationSerif;writing-mode:lr-tb;fill:#000000;fill-opacity:1;fill-rule:nonzero;stroke:none"
         id="text9814"><tspan
           x="0 9.0020475 18.004095 26.247997 34.49649 42.754395 47.248581 56.995102"
           y="0"
           sodipodi:role="line"
           id="tspan9812">CREATION</tspan></text>
      <path
         d="m 157,129.5 h 54 v 36 h -54 z"
         style="fill:none;stroke:#000000;stroke-width:1;stroke-linecap:butt;stroke-linejoin:miter;stroke-miterlimit:10;stroke-dasharray:none;stroke-opacity:1"
         id="path9816" />
      <text
         xml:space="preserve"
         transform="translate(176,151.19922)"
         style="font-variant:normal;font-weight:normal;font-size:14.0002px;font-family:Symbola;-inkscape-font-specification:Symbola;writing-mode:lr-tb;fill:#000000;fill-opacity:1;fill-rule:nonzero;stroke:none"
         id="text9820"><tspan
           x="0"
           y="0"
           id="tspan9818">⟨</tspan></text>
      <text
         xml:space="preserve"
         transform="translate(180.49681,151.19922)"
         style="font-variant:normal;font-weight:normal;font-size:14.0002px;font-family:'Liberation Serif';-inkscape-font-specification:LiberationSerif;writing-mode:lr-tb;fill:#000000;fill-opacity:1;fill-rule:nonzero;stroke:none"
         id="text9824"><tspan
           x="0"
           y="0"
           id="tspan9822">0</tspan></text>
      <text
         xml:space="preserve"
         transform="translate(187.24493,151.19922)"
         style="font-variant:normal;font-weight:normal;font-size:14.0002px;font-family:Symbola;-inkscape-font-specification:Symbola;writing-mode:lr-tb;fill:#000000;fill-opacity:1;fill-rule:nonzero;stroke:none"
         id="text9828"><tspan
           x="0"
           y="0"
           id="tspan9826">⟩</tspan></text>
      <path
         d="m 173.391,92.688 c 1.582,8.023 3.5,17.765 5.273,26.742"
         style="fill:none;stroke:#ff0000;stroke-width:1;stroke-linecap:butt;stroke-linejoin:miter;stroke-miterlimit:10;stroke-dasharray:none;stroke-opacity:1"
         id="path9830" />
      <path
         d="m 182.141,118.984 -1.5,10.489 -5.368,-9.137 z"
         style="fill:#ff0000;fill-opacity:1;fill-rule:nonzero;stroke:#ff0000;stroke-width:1;stroke-linecap:butt;stroke-linejoin:miter;stroke-miterlimit:10;stroke-dasharray:none;stroke-opacity:1"
         id="path9832" />
      <path
         d="m 154.5,238.5 c 0,0 59,0 59,0 6,0 12,-6 12,-12 0,0 0,-12 0,-12 0,-6 -6,-12 -12,-12 0,0 -59,0 -59,0 -6,0 -12,6 -12,12 0,0 0,12 0,12 0,6 6,12 12,12"
         style="fill:none;stroke:#000000;stroke-width:1;stroke-linecap:butt;stroke-linejoin:miter;stroke-miterlimit:10;stroke-dasharray:none;stroke-opacity:1"
         id="path9834" />
      <text
         xml:space="preserve"
         transform="translate(150.5,224.19922)"
         style="font-variant:normal;font-weight:normal;font-size:14.0002px;font-family:'Liberation Serif';-inkscape-font-specification:LiberationSerif;writing-mode:lr-tb;fill:#000000;fill-opacity:1;fill-rule:nonzero;stroke:none"
         id="text9838"><tspan
           x="0 9.0020475 18.004095 26.247997 34.49649 42.754395 47.248581 56.995102"
           y="0"
           sodipodi:role="line"
           id="tspan9836">CREATION</tspan></text>
      <path
         d="m 184,165.688 c 0,8.023 0,17.765 0,26.742"
         style="fill:none;stroke:#ff0000;stroke-width:1;stroke-linecap:butt;stroke-linejoin:miter;stroke-miterlimit:10;stroke-dasharray:none;stroke-opacity:1"
         id="path9840" />
      <path
         d="m 187.5,192.473 -3.5,10 -3.5,-10 z"
         style="fill:#ff0000;fill-opacity:1;fill-rule:nonzero;stroke:#ff0000;stroke-width:1;stroke-linecap:butt;stroke-linejoin:miter;stroke-miterlimit:10;stroke-dasharray:none;stroke-opacity:1"
         id="path9842" />
      <path
         d="m 68,92.5 c 0,0 30,0 30,0 6,0 12,-6 12,-12 0,0 0,-12 0,-12 0,-6 -6,-12 -12,-12 0,0 -30,0 -30,0 -6,0 -12,6 -12,12 0,0 0,12 0,12 0,6 6,12 12,12"
         style="fill:#d3d3d3;fill-opacity:1;fill-rule:nonzero;stroke:#d3d3d3;stroke-width:1;stroke-linecap:butt;stroke-linejoin:miter;stroke-miterlimit:10;stroke-dasharray:none;stroke-opacity:1"
         id="path9844" />
      <text
         xml:space="preserve"
         transform="translate(79.5,78.199219)"
         style="font-variant:normal;font-weight:normal;font-size:14.0002px;font-family:'Liberation Serif';-inkscape-font-specification:LiberationSerif;writing-mode:lr-tb;fill:#000000;fill-opacity:1;fill-rule:nonzero;stroke:none"
         id="text9848"><tspan
           x="0"
           y="0"
           id="tspan9846">1</tspan></text>
      <path
         d="m 243,275.5 h 54 v 36 h -54 z"
         style="fill:none;stroke:#000000;stroke-width:1;stroke-linecap:butt;stroke-linejoin:miter;stroke-miterlimit:10;stroke-dasharray:none;stroke-opacity:1"
         id="path9850" />
      <text
         xml:space="preserve"
         transform="translate(262,297.19922)"
         style="font-variant:normal;font-weight:normal;font-size:14.0002px;font-family:Symbola;-inkscape-font-specification:Symbola;writing-mode:lr-tb;fill:#000000;fill-opacity:1;fill-rule:nonzero;stroke:none"
         id="text9854"><tspan
           x="0"
           y="0"
           id="tspan9852">⟨</tspan></text>
      <text
         xml:space="preserve"
         transform="translate(266.49681,297.19922)"
         style="font-variant:normal;font-weight:normal;font-size:14.0002px;font-family:'Liberation Serif';-inkscape-font-specification:LiberationSerif;writing-mode:lr-tb;fill:#000000;fill-opacity:1;fill-rule:nonzero;stroke:none"
         id="text9858"><tspan
           x="0"
           y="0"
           id="tspan9856">0</tspan></text>
      <text
         xml:space="preserve"
         transform="translate(273.24493,297.19922)"
         style="font-variant:normal;font-weight:normal;font-size:14.0002px;font-family:Symbola;-inkscape-font-specification:Symbola;writing-mode:lr-tb;fill:#000000;fill-opacity:1;fill-rule:nonzero;stroke:none"
         id="text9862"><tspan
           x="0"
           y="0"
           id="tspan9860">⟩</tspan></text>
      <path
         d="m 281.367,238.688 c -1.691,8.023 -3.75,17.765 -5.648,26.742"
         style="fill:none;stroke:#ff0000;stroke-width:1;stroke-linecap:butt;stroke-linejoin:miter;stroke-miterlimit:10;stroke-dasharray:none;stroke-opacity:1"
         id="path9864" />
      <path
         d="m 279.09,266.41 -5.492,9.063 -1.356,-10.508 z"
         style="fill:#ff0000;fill-opacity:1;fill-rule:nonzero;stroke:#ff0000;stroke-width:1;stroke-linecap:butt;stroke-linejoin:miter;stroke-miterlimit:10;stroke-dasharray:none;stroke-opacity:1"
         id="path9866" />
      <path
         d="m 171,275.5 h 54 v 36 h -54 z"
         style="fill:none;stroke:#000000;stroke-width:1;stroke-linecap:butt;stroke-linejoin:miter;stroke-miterlimit:10;stroke-dasharray:none;stroke-opacity:1"
         id="path9868" />
      <text
         xml:space="preserve"
         transform="translate(182.5,297.19922)"
         style="font-variant:normal;font-weight:normal;font-size:14.0002px;font-family:Symbola;-inkscape-font-specification:Symbola;writing-mode:lr-tb;fill:#000000;fill-opacity:1;fill-rule:nonzero;stroke:none"
         id="text9872"><tspan
           x="0"
           y="0"
           id="tspan9870">⟨</tspan></text>
      <text
         xml:space="preserve"
         transform="translate(186.99681,297.19922)"
         style="font-variant:normal;font-weight:normal;font-size:14.0002px;font-family:'Liberation Serif';-inkscape-font-specification:LiberationSerif;writing-mode:lr-tb;fill:#000000;fill-opacity:1;fill-rule:nonzero;stroke:none"
         id="text9876"><tspan
           x="0 6.7481174 10.500183 14.252249"
           y="0"
           sodipodi:role="line"
           id="tspan9874">0, 1</tspan></text>
      <text
         xml:space="preserve"
         transform="translate(207.99718,297.19922)"
         style="font-variant:normal;font-weight:normal;font-size:14.0002px;font-family:Symbola;-inkscape-font-specification:Symbola;writing-mode:lr-tb;fill:#000000;fill-opacity:1;fill-rule:nonzero;stroke:none"
         id="text9880"><tspan
           x="0"
           y="0"
           id="tspan9878">⟩</tspan></text>
      <path
         d="m 187.391,238.688 c 1.582,8.023 3.5,17.765 5.273,26.742"
         style="fill:none;stroke:#ff0000;stroke-width:1;stroke-linecap:butt;stroke-linejoin:miter;stroke-miterlimit:10;stroke-dasharray:none;stroke-opacity:1"
         id="path9882" />
      <path
         d="m 196.141,264.984 -1.5,10.489 -5.368,-9.137 z"
         style="fill:#ff0000;fill-opacity:1;fill-rule:nonzero;stroke:#ff0000;stroke-width:1;stroke-linecap:butt;stroke-linejoin:miter;stroke-miterlimit:10;stroke-dasharray:none;stroke-opacity:1"
         id="path9884" />
      <path
         d="m 85,129.5 h 54 v 36 H 85 Z"
         style="fill:#add8e6;fill-opacity:1;fill-rule:nonzero;stroke:#add8e6;stroke-width:1;stroke-linecap:butt;stroke-linejoin:miter;stroke-miterlimit:10;stroke-dasharray:none;stroke-opacity:1"
         id="path9886" />
      <text
         xml:space="preserve"
         transform="translate(105,151.19922)"
         style="font-variant:normal;font-weight:normal;font-size:14.0002px;font-family:'Liberation Serif';-inkscape-font-specification:LiberationSerif;writing-mode:lr-tb;fill:#000000;fill-opacity:1;fill-rule:nonzero;stroke:none"
         id="text9890"><tspan
           x="0 6.7481174"
           y="0"
           sodipodi:role="line"
           id="tspan9888">n3</tspan></text>
      <path
         d="m 219,384.5 c 0,0 30,0 30,0 6,0 12,-6 12,-12 0,0 0,-12 0,-12 0,-6 -6,-12 -12,-12 0,0 -30,0 -30,0 -6,0 -12,6 -12,12 0,0 0,12 0,12 0,6 6,12 12,12"
         style="fill:none;stroke:#000000;stroke-width:1;stroke-linecap:butt;stroke-linejoin:miter;stroke-miterlimit:10;stroke-dasharray:none;stroke-opacity:1"
         id="path9892" />
      <text
         xml:space="preserve"
         transform="translate(215.5,370.19922)"
         style="font-variant:normal;font-weight:normal;font-size:14.0002px;font-family:'Liberation Serif';-inkscape-font-specification:LiberationSerif;writing-mode:lr-tb;fill:#000000;fill-opacity:1;fill-rule:nonzero;stroke:none"
         id="text9896"><tspan
           x="0 7.5062637 14.998527 23.25643 27.750616"
           y="0"
           sodipodi:role="line"
           id="tspan9894">SPLIT</tspan></text>
      <path
         d="m 261.285,311.688 c -4.199,8.285 -9.332,18.402 -14.004,27.621"
         style="fill:none;stroke:#ff0000;stroke-width:1;stroke-linecap:butt;stroke-linejoin:miter;stroke-miterlimit:10;stroke-dasharray:none;stroke-opacity:1"
         id="path9898" />
      <path
         d="m 250.277,341.137 -7.644,7.336 1.402,-10.504 z"
         style="fill:#ff0000;fill-opacity:1;fill-rule:nonzero;stroke:#ff0000;stroke-width:1;stroke-linecap:butt;stroke-linejoin:miter;stroke-miterlimit:10;stroke-dasharray:none;stroke-opacity:1"
         id="path9900" />
      <path
         d="m 206.715,311.688 c 4.199,8.285 9.332,18.402 14.004,27.621"
         style="fill:none;stroke:#000000;stroke-width:1;stroke-linecap:butt;stroke-linejoin:miter;stroke-miterlimit:10;stroke-dasharray:none;stroke-opacity:1"
         id="path9902" />
      <path
         d="m 223.965,337.969 1.402,10.504 -7.644,-7.336 z"
         style="fill:#000000;fill-opacity:1;fill-rule:nonzero;stroke:#000000;stroke-width:1;stroke-linecap:butt;stroke-linejoin:miter;stroke-miterlimit:10;stroke-dasharray:none;stroke-opacity:1"
         id="path9904" />
      <path
         d="m 82,238.5 c 0,0 30,0 30,0 6,0 12,-6 12,-12 0,0 0,-12 0,-12 0,-6 -6,-12 -12,-12 0,0 -30,0 -30,0 -6,0 -12,6 -12,12 0,0 0,12 0,12 0,6 6,12 12,12"
         style="fill:#d3d3d3;fill-opacity:1;fill-rule:nonzero;stroke:#d3d3d3;stroke-width:1;stroke-linecap:butt;stroke-linejoin:miter;stroke-miterlimit:10;stroke-dasharray:none;stroke-opacity:1"
         id="path9906" />
      <text
         xml:space="preserve"
         transform="translate(93.5,224.19922)"
         style="font-variant:normal;font-weight:normal;font-size:14.0002px;font-family:'Liberation Serif';-inkscape-font-specification:LiberationSerif;writing-mode:lr-tb;fill:#000000;fill-opacity:1;fill-rule:nonzero;stroke:none"
         id="text9910"><tspan
           x="0"
           y="0"
           id="tspan9908">2</tspan></text>
      <path
         d="m 207,421.5 h 54 v 36 h -54 z"
         style="fill:none;stroke:#000000;stroke-width:1;stroke-linecap:butt;stroke-linejoin:miter;stroke-miterlimit:10;stroke-dasharray:none;stroke-opacity:1"
         id="path9912" />
      <text
         xml:space="preserve"
         transform="translate(218.5,443.19922)"
         style="font-variant:normal;font-weight:normal;font-size:14.0002px;font-family:Symbola;-inkscape-font-specification:Symbola;writing-mode:lr-tb;fill:#000000;fill-opacity:1;fill-rule:nonzero;stroke:none"
         id="text9916"><tspan
           x="0"
           y="0"
           id="tspan9914">⟨</tspan></text>
      <text
         xml:space="preserve"
         transform="translate(222.99681,443.19922)"
         style="font-variant:normal;font-weight:normal;font-size:14.0002px;font-family:'Liberation Serif';-inkscape-font-specification:LiberationSerif;writing-mode:lr-tb;fill:#000000;fill-opacity:1;fill-rule:nonzero;stroke:none"
         id="text9920"><tspan
           x="0 6.7481174 10.500183 14.252249"
           y="0"
           sodipodi:role="line"
           id="tspan9918">0, 1</tspan></text>
      <text
         xml:space="preserve"
         transform="translate(243.99718,443.19922)"
         style="font-variant:normal;font-weight:normal;font-size:14.0002px;font-family:Symbola;-inkscape-font-specification:Symbola;writing-mode:lr-tb;fill:#000000;fill-opacity:1;fill-rule:nonzero;stroke:none"
         id="text9924"><tspan
           x="0"
           y="0"
           id="tspan9922">⟩</tspan></text>
      <path
         d="m 234,384.688 c 0,8.023 0,17.765 0,26.742"
         style="fill:none;stroke:#000000;stroke-width:1;stroke-linecap:butt;stroke-linejoin:miter;stroke-miterlimit:10;stroke-dasharray:none;stroke-opacity:1"
         id="path9926" />
      <path
         d="m 237.5,411.473 -3.5,10 -3.5,-10 z"
         style="fill:#000000;fill-opacity:1;fill-rule:nonzero;stroke:#000000;stroke-width:1;stroke-linecap:butt;stroke-linejoin:miter;stroke-miterlimit:10;stroke-dasharray:none;stroke-opacity:1"
         id="path9928" />
      <path
         d="m 99,275.5 h 54 v 36 H 99 Z"
         style="fill:#add8e6;fill-opacity:1;fill-rule:nonzero;stroke:#add8e6;stroke-width:1;stroke-linecap:butt;stroke-linejoin:miter;stroke-miterlimit:10;stroke-dasharray:none;stroke-opacity:1"
         id="path9930" />
      <text
         xml:space="preserve"
         transform="translate(119,297.19922)"
         style="font-variant:normal;font-weight:normal;font-size:14.0002px;font-family:'Liberation Serif';-inkscape-font-specification:LiberationSerif;writing-mode:lr-tb;fill:#000000;fill-opacity:1;fill-rule:nonzero;stroke:none"
         id="text9934"><tspan
           x="0 6.7481174"
           y="0"
           sodipodi:role="line"
           id="tspan9932">n4</tspan></text>
      <path
         d="m 147,384.5 c 0,0 30,0 30,0 6,0 12,-6 12,-12 0,0 0,-12 0,-12 0,-6 -6,-12 -12,-12 0,0 -30,0 -30,0 -6,0 -12,6 -12,12 0,0 0,12 0,12 0,6 6,12 12,12"
         style="fill:#d3d3d3;fill-opacity:1;fill-rule:nonzero;stroke:#d3d3d3;stroke-width:1;stroke-linecap:butt;stroke-linejoin:miter;stroke-miterlimit:10;stroke-dasharray:none;stroke-opacity:1"
         id="path9936" />
      <text
         xml:space="preserve"
         transform="translate(158.5,370.19922)"
         style="font-variant:normal;font-weight:normal;font-size:14.0002px;font-family:'Liberation Serif';-inkscape-font-specification:LiberationSerif;writing-mode:lr-tb;fill:#000000;fill-opacity:1;fill-rule:nonzero;stroke:none"
         id="text9940"><tspan
           x="0"
           y="0"
           id="tspan9938">5</tspan></text>
      <path
         d="m 135,421.5 h 54 v 36 h -54 z"
         style="fill:#add8e6;fill-opacity:1;fill-rule:nonzero;stroke:#add8e6;stroke-width:1;stroke-linecap:butt;stroke-linejoin:miter;stroke-miterlimit:10;stroke-dasharray:none;stroke-opacity:1"
         id="path9942" />
      <text
         xml:space="preserve"
         transform="translate(155,443.19922)"
         style="font-variant:normal;font-weight:normal;font-size:14.0002px;font-family:'Liberation Serif';-inkscape-font-specification:LiberationSerif;writing-mode:lr-tb;fill:#000000;fill-opacity:1;fill-rule:nonzero;stroke:none"
         id="text9946"><tspan
           x="0 6.7481174"
           y="0"
           sodipodi:role="line"
           id="tspan9944">n0</tspan></text>
    </g>
  </g>
</svg>
