<?xml version="1.0" encoding="UTF-8" standalone="no"?>
<!-- Created with Inkscape (http://www.inkscape.org/) -->

<svg
   version="1.1"
   id="svg9760"
   width="551.45966"
   height="558.66663"
   viewBox="0 0 551.45964 558.66662"
   sodipodi:docname="pn7.svg"
   inkscape:version="1.2.2 (b0a8486541, 2022-12-01)"
   xmlns:inkscape="http://www.inkscape.org/namespaces/inkscape"
   xmlns:sodipodi="http://sodipodi.sourceforge.net/DTD/sodipodi-0.dtd"
   xmlns="http://www.w3.org/2000/svg"
   xmlns:svg="http://www.w3.org/2000/svg">
  <defs
     id="defs9764" />
  <sodipodi:namedview
     id="namedview9762"
     pagecolor="#ffffff"
     bordercolor="#000000"
     borderopacity="0.25"
     inkscape:showpageshadow="2"
     inkscape:pageopacity="0.0"
     inkscape:pagecheckerboard="0"
     inkscape:deskcolor="#d1d1d1"
     showgrid="false"
     inkscape:zoom="2.6001946"
     inkscape:cx="353.24279"
     inkscape:cy="162.48784"
     inkscape:window-width="1908"
     inkscape:window-height="1048"
     inkscape:window-x="1085"
     inkscape:window-y="25"
     inkscape:window-maximized="1"
     inkscape:current-layer="g9768">
    <inkscape:page
       x="0"
       y="0"
       id="page9766"
       width="551.45966"
       height="558.66663" />
  </sodipodi:namedview>
  <g
     id="g9768"
     inkscape:groupmode="layer"
     inkscape:label="Page 1"
     transform="matrix(1.3333333,0,0,1.3333333,-54.753889,-63.333334)">
    <rect
       style="fill:#d3d3d3;fill-opacity:1;stroke:none;stroke-width:1.1769;stroke-linecap:square;stop-color:#000000"
       id="rect626-0"
       width="75.729919"
       height="35.616177"
       x="51.63504"
       y="202.69191"
       ry="10.898479" />
    <rect
       style="fill:#d3d3d3;fill-opacity:1;stroke:none;stroke-width:1.35045;stroke-linecap:square;stop-color:#000000"
       id="rect626-5"
       width="99.710434"
       height="35.616177"
       x="92.644783"
       y="348.69193"
       ry="10.898479" />
    <rect
       style="fill:#d3d3d3;fill-opacity:1;stroke:none;stroke-width:1.12381;stroke-linecap:square;stop-color:#000000"
       id="rect626"
       width="69.051544"
       height="35.616177"
       x="48.474228"
       y="56.691914"
       ry="10.898479" />
    <path
       d="m 53.853538,100.99421 c 0,0 254.858342,0 254.858342,0 6.14116,0 12.28233,-5.998691 12.28233,-11.997379 0,0 0,-28.993662 0,-28.993662 0,-5.998688 -6.14117,-11.997377 -12.28233,-11.997377 0,0 -254.858342,0 -254.858342,0 -6.141165,0 -12.28233,5.998689 -12.28233,11.997377 0,0 0,28.993662 0,28.993662 0,5.998688 6.141165,11.997379 12.28233,11.997379"
       style="fill:none;stroke:#000000;stroke-width:1.01158;stroke-linecap:butt;stroke-linejoin:miter;stroke-miterlimit:10;stroke-dasharray:none;stroke-opacity:1"
       id="path9772" />
    <path
       d="m 77,121 h 214 v 53 H 77 Z"
       style="fill:none;stroke:#000000;stroke-width:1;stroke-linecap:butt;stroke-linejoin:miter;stroke-miterlimit:10;stroke-dasharray:none;stroke-opacity:1"
       id="path9774" />
    <path
       d="m 57.711501,246.9848 c 0,0 264.525099,0 264.525099,0 6.3741,0 12.7482,-5.99656 12.7482,-11.99312 0,0 0,-28.98336 0,-28.98336 0,-5.99656 -6.3741,-11.99312 -12.7482,-11.99312 0,0 -264.525099,0 -264.525099,0 -6.374098,0 -12.748197,5.99656 -12.748197,11.99312 0,0 0,28.98336 0,28.98336 0,5.99656 6.374099,11.99312 12.748197,11.99312"
       style="fill:none;stroke:#000000;stroke-width:1.03041;stroke-linecap:butt;stroke-linejoin:miter;stroke-miterlimit:10;stroke-dasharray:none;stroke-opacity:1"
       id="path9776" />
    <path
       d="m 91,267 h 214 v 53 H 91 Z"
       style="fill:none;stroke:#000000;stroke-width:1;stroke-linecap:butt;stroke-linejoin:miter;stroke-miterlimit:10;stroke-dasharray:none;stroke-opacity:1"
       id="path9778" />
    <path
       d="m 101.17853,392.93274 c 0,0 152.2692,0 152.2692,0 7.74251,0 15.48501,-5.98477 15.48501,-11.96954 0,0 0,-28.9264 0,-28.9264 0,-5.98477 -7.7425,-11.96954 -15.48501,-11.96954 0,0 -152.2692,0 -152.2692,0 -7.742507,0 -15.485009,5.98477 -15.485009,11.96954 0,0 0,28.9264 0,28.9264 0,5.98477 7.742502,11.96954 15.485009,11.96954"
       style="fill:none;stroke:#000000;stroke-width:1.13452;stroke-linecap:butt;stroke-linejoin:miter;stroke-miterlimit:10;stroke-dasharray:none;stroke-opacity:1"
       id="path9780" />
    <path
       d="m 127,413 h 142 v 53 H 127 Z"
       style="fill:none;stroke:#000000;stroke-width:1;stroke-linecap:butt;stroke-linejoin:miter;stroke-miterlimit:10;stroke-dasharray:none;stroke-opacity:1"
       id="path9782" />
    <path
       d="m 241.5,92.5 c 0,0 59,0 59,0 6,0 12,-6 12,-12 0,0 0,-12 0,-12 0,-6 -6,-12 -12,-12 0,0 -59,0 -59,0 -6,0 -12,6 -12,12 0,0 0,12 0,12 0,6 6,12 12,12"
       style="fill:none;stroke:#000000;stroke-width:1;stroke-linecap:butt;stroke-linejoin:miter;stroke-miterlimit:10;stroke-dasharray:none;stroke-opacity:1"
       id="path9784" />
    <text
       xml:space="preserve"
       style="font-variant:normal;font-weight:normal;font-size:14.0002px;font-family:'Liberation Serif';-inkscape-font-specification:LiberationSerif;writing-mode:lr-tb;fill:#000000;fill-opacity:1;fill-rule:nonzero;stroke:none"
       id="text9788"
       x="237.5"
       y="78.199219"><tspan
         x="237.5 246.50204 255.50409 263.74799 271.99649 280.25439 284.7486 294.49512"
         y="78.199219"
         sodipodi:role="line"
         id="tspan9786">CREATION</tspan></text>
    <path
       d="m 229,129.5 h 54 v 36 h -54 z"
       style="fill:none;stroke:#000000;stroke-width:1;stroke-linecap:butt;stroke-linejoin:miter;stroke-miterlimit:10;stroke-dasharray:none;stroke-opacity:1"
       id="path9790" />
    <text
       xml:space="preserve"
       style="font-variant:normal;font-weight:normal;font-size:14.0002px;font-family:Symbola;-inkscape-font-specification:Symbola;writing-mode:lr-tb;fill:#000000;fill-opacity:1;fill-rule:nonzero;stroke:none"
       id="text9794"
       x="251"
       y="151.19922"><tspan
         x="251 255.49681"
         y="151.19922"
         sodipodi:role="line"
         id="tspan9792">⟨⟩</tspan></text>
    <path
       d="m 267.367,92.688 c -1.691,8.023 -3.75,17.765 -5.648,26.742"
       style="fill:none;stroke:#000000;stroke-width:1;stroke-linecap:butt;stroke-linejoin:miter;stroke-miterlimit:10;stroke-dasharray:none;stroke-opacity:1"
       id="path9796" />
    <path
       d="m 265.09,120.41 -5.492,9.063 -1.356,-10.508 z"
       style="fill:#010000;fill-opacity:1;fill-rule:nonzero;stroke:#000000;stroke-width:1;stroke-linecap:butt;stroke-linejoin:miter;stroke-miterlimit:10;stroke-dasharray:none;stroke-opacity:1"
       id="path9798" />
    <path
       d="m 255.5,238.5 c 0,0 59,0 59,0 6,0 12,-6 12,-12 0,0 0,-12 0,-12 0,-6 -6,-12 -12,-12 0,0 -59,0 -59,0 -6,0 -12,6 -12,12 0,0 0,12 0,12 0,6 6,12 12,12"
       style="fill:none;stroke:#000000;stroke-width:1;stroke-linecap:butt;stroke-linejoin:miter;stroke-miterlimit:10;stroke-dasharray:none;stroke-opacity:1"
       id="path9800" />
    <text
       xml:space="preserve"
       style="font-variant:normal;font-weight:normal;font-size:14.0002px;font-family:'Liberation Serif';-inkscape-font-specification:LiberationSerif;writing-mode:lr-tb;fill:#000000;fill-opacity:1;fill-rule:nonzero;stroke:none"
       id="text9804"
       x="251.5"
       y="224.19922"><tspan
         x="251.5 260.50204 269.50409 277.74799 285.99649 294.25439 298.7486 308.49512"
         y="224.19922"
         sodipodi:role="line"
         id="tspan9802">CREATION</tspan></text>
    <path
       d="m 263.02,165.688 c 3.347,8.199 7.429,18.187 11.164,27.328"
       style="fill:none;stroke:#ff0000;stroke-width:1;stroke-linecap:butt;stroke-linejoin:miter;stroke-miterlimit:10;stroke-dasharray:none;stroke-opacity:1"
       id="path9806" />
    <path
       d="m 277.504,191.891 0.539,10.582 -7.02,-7.938 z"
       style="fill:#ff0000;fill-opacity:1;fill-rule:nonzero;stroke:#ff0000;stroke-width:1;stroke-linecap:butt;stroke-linejoin:miter;stroke-miterlimit:10;stroke-dasharray:none;stroke-opacity:1"
       id="path9808" />
    <path
       d="m 140.5,92.5 c 0,0 59,0 59,0 6,0 12,-6 12,-12 0,0 0,-12 0,-12 0,-6 -6,-12 -12,-12 0,0 -59,0 -59,0 -6,0 -12,6 -12,12 0,0 0,12 0,12 0,6 6,12 12,12"
       style="fill:none;stroke:#000000;stroke-width:1;stroke-linecap:butt;stroke-linejoin:miter;stroke-miterlimit:10;stroke-dasharray:none;stroke-opacity:1"
       id="path9810" />
    <text
       xml:space="preserve"
       style="font-variant:normal;font-weight:normal;font-size:14.0002px;font-family:'Liberation Serif';-inkscape-font-specification:LiberationSerif;writing-mode:lr-tb;fill:#000000;fill-opacity:1;fill-rule:nonzero;stroke:none"
       id="text9814"
       x="136.5"
       y="78.199219"><tspan
         x="136.5 145.50204 154.50409 162.748 170.99649 179.25439 183.74858 193.4951"
         y="78.199219"
         sodipodi:role="line"
         id="tspan9812">CREATION</tspan></text>
    <path
       d="m 157,129.5 h 54 v 36 h -54 z"
       style="fill:none;stroke:#000000;stroke-width:1;stroke-linecap:butt;stroke-linejoin:miter;stroke-miterlimit:10;stroke-dasharray:none;stroke-opacity:1"
       id="path9816" />
    <text
       xml:space="preserve"
       style="font-variant:normal;font-weight:normal;font-size:14.0002px;font-family:Symbola;-inkscape-font-specification:Symbola;writing-mode:lr-tb;fill:#000000;fill-opacity:1;fill-rule:nonzero;stroke:none"
       id="text9820"
       x="176"
       y="151.19922"><tspan
         x="176"
         y="151.19922"
         id="tspan9818">⟨</tspan></text>
    <text
       xml:space="preserve"
       style="font-variant:normal;font-weight:normal;font-size:14.0002px;font-family:'Liberation Serif';-inkscape-font-specification:LiberationSerif;writing-mode:lr-tb;fill:#000000;fill-opacity:1;fill-rule:nonzero;stroke:none"
       id="text9824"
       x="180.49681"
       y="151.19922"><tspan
         x="180.49681"
         y="151.19922"
         id="tspan9822">0</tspan></text>
    <text
       xml:space="preserve"
       style="font-variant:normal;font-weight:normal;font-size:14.0002px;font-family:Symbola;-inkscape-font-specification:Symbola;writing-mode:lr-tb;fill:#000000;fill-opacity:1;fill-rule:nonzero;stroke:none"
       id="text9828"
       x="187.24493"
       y="151.19922"><tspan
         x="187.24493"
         y="151.19922"
         id="tspan9826">⟩</tspan></text>
    <path
       d="m 173.391,92.688 c 1.582,8.023 3.5,17.765 5.273,26.742"
       style="fill:none;stroke:#000000;stroke-width:1;stroke-linecap:butt;stroke-linejoin:miter;stroke-miterlimit:10;stroke-dasharray:none;stroke-opacity:1"
       id="path9830" />
    <path
       d="m 182.141,118.984 -1.5,10.489 -5.368,-9.137 z"
       style="fill:#010000;fill-opacity:1;fill-rule:nonzero;stroke:#000000;stroke-width:1;stroke-linecap:butt;stroke-linejoin:miter;stroke-miterlimit:10;stroke-dasharray:none;stroke-opacity:1"
       id="path9832" />
    <path
       d="m 154.5,238.5 c 0,0 59,0 59,0 6,0 12,-6 12,-12 0,0 0,-12 0,-12 0,-6 -6,-12 -12,-12 0,0 -59,0 -59,0 -6,0 -12,6 -12,12 0,0 0,12 0,12 0,6 6,12 12,12"
       style="fill:none;stroke:#000000;stroke-width:1;stroke-linecap:butt;stroke-linejoin:miter;stroke-miterlimit:10;stroke-dasharray:none;stroke-opacity:1"
       id="path9834" />
    <text
       xml:space="preserve"
       style="font-variant:normal;font-weight:normal;font-size:14.0002px;font-family:'Liberation Serif';-inkscape-font-specification:LiberationSerif;writing-mode:lr-tb;fill:#000000;fill-opacity:1;fill-rule:nonzero;stroke:none"
       id="text9838"
       x="150.5"
       y="224.19922"><tspan
         x="150.5 159.50204 168.50409 176.748 184.99649 193.25439 197.74858 207.4951"
         y="224.19922"
         sodipodi:role="line"
         id="tspan9836">CREATION</tspan></text>
    <path
       d="m 184,165.688 c 0,8.023 0,17.765 0,26.742"
       style="fill:none;stroke:#ff0000;stroke-width:1;stroke-linecap:butt;stroke-linejoin:miter;stroke-miterlimit:10;stroke-dasharray:none;stroke-opacity:1"
       id="path9840" />
    <path
       d="m 187.5,192.473 -3.5,10 -3.5,-10 z"
       style="fill:#ff0000;fill-opacity:1;fill-rule:nonzero;stroke:#ff0000;stroke-width:1;stroke-linecap:butt;stroke-linejoin:miter;stroke-miterlimit:10;stroke-dasharray:none;stroke-opacity:1"
       id="path9842" />
    <text
       xml:space="preserve"
       style="font-style:normal;font-variant:normal;font-weight:normal;font-stretch:normal;font-size:14.0002px;font-family:Symbola;-inkscape-font-specification:'Symbola, Normal';font-variant-ligatures:normal;font-variant-caps:normal;font-variant-numeric:normal;font-variant-east-asian:normal;writing-mode:lr-tb;fill:#000000;fill-opacity:1;fill-rule:nonzero;stroke:none"
       id="text9848"
       x="56.069439"
       y="78.199219"><tspan
         sodipodi:role="line"
         id="tspan20243"
         x="56.069439"
         y="78.199219">1-square</tspan></text>
    <path
       d="m 243,275.5 h 54 v 36 h -54 z"
       style="fill:none;stroke:#000000;stroke-width:1;stroke-linecap:butt;stroke-linejoin:miter;stroke-miterlimit:10;stroke-dasharray:none;stroke-opacity:1"
       id="path9850" />
    <text
       xml:space="preserve"
       style="font-variant:normal;font-weight:normal;font-size:14.0002px;font-family:Symbola;-inkscape-font-specification:Symbola;writing-mode:lr-tb;fill:#000000;fill-opacity:1;fill-rule:nonzero;stroke:none"
       id="text9854"
       x="262"
       y="297.19922"><tspan
         x="262"
         y="297.19922"
         id="tspan9852">⟨</tspan></text>
    <text
       xml:space="preserve"
       style="font-variant:normal;font-weight:normal;font-size:14.0002px;font-family:'Liberation Serif';-inkscape-font-specification:LiberationSerif;writing-mode:lr-tb;fill:#000000;fill-opacity:1;fill-rule:nonzero;stroke:none"
       id="text9858"
       x="266.4968"
       y="297.19922"><tspan
         x="266.4968"
         y="297.19922"
         id="tspan9856">0</tspan></text>
    <text
       xml:space="preserve"
       style="font-variant:normal;font-weight:normal;font-size:14.0002px;font-family:Symbola;-inkscape-font-specification:Symbola;writing-mode:lr-tb;fill:#000000;fill-opacity:1;fill-rule:nonzero;stroke:none"
       id="text9862"
       x="273.24493"
       y="297.19922"><tspan
         x="273.24493"
         y="297.19922"
         id="tspan9860">⟩</tspan></text>
    <path
       d="m 281.367,238.688 c -1.691,8.023 -3.75,17.765 -5.648,26.742"
       style="fill:none;stroke:#000000;stroke-width:1;stroke-linecap:butt;stroke-linejoin:miter;stroke-miterlimit:10;stroke-dasharray:none;stroke-opacity:1"
       id="path9864" />
    <path
       d="m 279.09,266.41 -5.492,9.063 -1.356,-10.508 z"
       style="fill:#010000;fill-opacity:1;fill-rule:nonzero;stroke:#000000;stroke-width:1;stroke-linecap:butt;stroke-linejoin:miter;stroke-miterlimit:10;stroke-dasharray:none;stroke-opacity:1"
       id="path9866" />
    <path
       d="m 171,275.5 h 54 v 36 h -54 z"
       style="fill:none;stroke:#000000;stroke-width:1;stroke-linecap:butt;stroke-linejoin:miter;stroke-miterlimit:10;stroke-dasharray:none;stroke-opacity:1"
       id="path9868" />
    <text
       xml:space="preserve"
       style="font-variant:normal;font-weight:normal;font-size:14.0002px;font-family:Symbola;-inkscape-font-specification:Symbola;writing-mode:lr-tb;fill:#000000;fill-opacity:1;fill-rule:nonzero;stroke:none"
       id="text9872"
       x="182.5"
       y="297.19922"><tspan
         x="182.5"
         y="297.19922"
         id="tspan9870">⟨</tspan></text>
    <text
       xml:space="preserve"
       style="font-variant:normal;font-weight:normal;font-size:14.0002px;font-family:'Liberation Serif';-inkscape-font-specification:LiberationSerif;writing-mode:lr-tb;fill:#000000;fill-opacity:1;fill-rule:nonzero;stroke:none"
       id="text9876"
       x="186.99681"
       y="297.19922"><tspan
         x="186.99681 193.74493 197.49699 201.24905"
         y="297.19922"
         sodipodi:role="line"
         id="tspan9874">0, 1</tspan></text>
    <text
       xml:space="preserve"
       style="font-variant:normal;font-weight:normal;font-size:14.0002px;font-family:Symbola;-inkscape-font-specification:Symbola;writing-mode:lr-tb;fill:#000000;fill-opacity:1;fill-rule:nonzero;stroke:none"
       id="text9880"
       x="207.99718"
       y="297.19922"><tspan
         x="207.99718"
         y="297.19922"
         id="tspan9878">⟩</tspan></text>
    <path
       d="m 187.391,238.688 c 1.582,8.023 3.5,17.765 5.273,26.742"
       style="fill:none;stroke:#000000;stroke-width:1;stroke-linecap:butt;stroke-linejoin:miter;stroke-miterlimit:10;stroke-dasharray:none;stroke-opacity:1"
       id="path9882" />
    <path
       d="m 196.141,264.984 -1.5,10.489 -5.368,-9.137 z"
       style="fill:#010000;fill-opacity:1;fill-rule:nonzero;stroke:#000000;stroke-width:1;stroke-linecap:butt;stroke-linejoin:miter;stroke-miterlimit:10;stroke-dasharray:none;stroke-opacity:1"
       id="path9884" />
    <path
       d="m 85,129.5 h 54 v 36 H 85 Z"
       style="fill:#add8e6;fill-opacity:1;fill-rule:nonzero;stroke:#add8e6;stroke-width:1;stroke-linecap:butt;stroke-linejoin:miter;stroke-miterlimit:10;stroke-dasharray:none;stroke-opacity:1"
       id="path9886" />
    <text
       xml:space="preserve"
       style="font-variant:normal;font-weight:normal;font-size:14.0002px;font-family:'Liberation Serif';-inkscape-font-specification:LiberationSerif;writing-mode:lr-tb;fill:#000000;fill-opacity:1;fill-rule:nonzero;stroke:none"
       id="text9890"
       x="105"
       y="151.19922"><tspan
         x="105 111.74812"
         y="151.19922"
         sodipodi:role="line"
         id="tspan9888">n3</tspan></text>
    <path
       d="m 219,384.5 c 0,0 30,0 30,0 6,0 12,-6 12,-12 0,0 0,-12 0,-12 0,-6 -6,-12 -12,-12 0,0 -30,0 -30,0 -6,0 -12,6 -12,12 0,0 0,12 0,12 0,6 6,12 12,12"
       style="fill:none;stroke:#000000;stroke-width:1;stroke-linecap:butt;stroke-linejoin:miter;stroke-miterlimit:10;stroke-dasharray:none;stroke-opacity:1"
       id="path9892" />
    <text
       xml:space="preserve"
       style="font-variant:normal;font-weight:normal;font-size:14.0002px;font-family:'Liberation Serif';-inkscape-font-specification:LiberationSerif;writing-mode:lr-tb;fill:#000000;fill-opacity:1;fill-rule:nonzero;stroke:none"
       id="text9896"
       x="215.5"
       y="370.19922"><tspan
         x="215.5 223.00626 230.49852 238.75642 243.25061"
         y="370.19922"
         sodipodi:role="line"
         id="tspan9894">SPLIT</tspan></text>
    <path
       d="m 261.285,311.688 c -4.199,8.285 -9.332,18.402 -14.004,27.621"
       style="fill:none;stroke:#ff0000;stroke-width:1;stroke-linecap:butt;stroke-linejoin:miter;stroke-miterlimit:10;stroke-dasharray:none;stroke-opacity:1"
       id="path9898" />
    <path
       d="m 250.277,341.137 -7.644,7.336 1.402,-10.504 z"
       style="fill:#ff0000;fill-opacity:1;fill-rule:nonzero;stroke:#ff0000;stroke-width:1;stroke-linecap:butt;stroke-linejoin:miter;stroke-miterlimit:10;stroke-dasharray:none;stroke-opacity:1"
       id="path9900" />
    <path
       d="m 206.715,311.688 c 4.199,8.285 9.332,18.402 14.004,27.621"
       style="fill:none;stroke:#000000;stroke-width:1;stroke-linecap:butt;stroke-linejoin:miter;stroke-miterlimit:10;stroke-dasharray:none;stroke-opacity:1"
       id="path9902" />
    <path
       d="m 223.965,337.969 1.402,10.504 -7.644,-7.336 z"
       style="fill:#000000;fill-opacity:1;fill-rule:nonzero;stroke:#000000;stroke-width:1;stroke-linecap:butt;stroke-linejoin:miter;stroke-miterlimit:10;stroke-dasharray:none;stroke-opacity:1"
       id="path9904" />
    <text
       xml:space="preserve"
       style="font-style:normal;font-variant:normal;font-weight:normal;font-stretch:normal;font-size:14.0002px;font-family:Symbola;-inkscape-font-specification:'Symbola, Normal';font-variant-ligatures:normal;font-variant-caps:normal;font-variant-numeric:normal;font-variant-east-asian:normal;writing-mode:lr-tb;fill:#000000;fill-opacity:1;fill-rule:nonzero;stroke:none"
       id="text9910"
       x="54.185043"
       y="224.19922"><tspan
         sodipodi:role="line"
         id="tspan20245"
         x="54.185043"
         y="224.19922">2-extrusion</tspan></text>
    <path
       d="m 207,421.5 h 54 v 36 h -54 z"
       style="fill:none;stroke:#000000;stroke-width:1;stroke-linecap:butt;stroke-linejoin:miter;stroke-miterlimit:10;stroke-dasharray:none;stroke-opacity:1"
       id="path9912" />
    <text
       xml:space="preserve"
       style="font-variant:normal;font-weight:normal;font-size:14.0002px;font-family:Symbola;-inkscape-font-specification:Symbola;writing-mode:lr-tb;fill:#000000;fill-opacity:1;fill-rule:nonzero;stroke:none"
       id="text9916"
       x="218.5"
       y="443.19922"><tspan
         x="218.5"
         y="443.19922"
         id="tspan9914">⟨</tspan></text>
    <text
       xml:space="preserve"
       style="font-variant:normal;font-weight:normal;font-size:14.0002px;font-family:'Liberation Serif';-inkscape-font-specification:LiberationSerif;writing-mode:lr-tb;fill:#000000;fill-opacity:1;fill-rule:nonzero;stroke:none"
       id="text9920"
       x="222.99681"
       y="443.19922"><tspan
         x="222.99681 229.74493 233.49699 237.24905"
         y="443.19922"
         sodipodi:role="line"
         id="tspan9918">0, 1</tspan></text>
    <text
       xml:space="preserve"
       style="font-variant:normal;font-weight:normal;font-size:14.0002px;font-family:Symbola;-inkscape-font-specification:Symbola;writing-mode:lr-tb;fill:#000000;fill-opacity:1;fill-rule:nonzero;stroke:none"
       id="text9924"
       x="243.99718"
       y="443.19922"><tspan
         x="243.99718"
         y="443.19922"
         id="tspan9922">⟩</tspan></text>
    <path
       d="m 234,384.688 c 0,8.023 0,17.765 0,26.742"
       style="fill:none;stroke:#000000;stroke-width:1;stroke-linecap:butt;stroke-linejoin:miter;stroke-miterlimit:10;stroke-dasharray:none;stroke-opacity:1"
       id="path9926" />
    <path
       d="m 237.5,411.473 -3.5,10 -3.5,-10 z"
       style="fill:#000000;fill-opacity:1;fill-rule:nonzero;stroke:#000000;stroke-width:1;stroke-linecap:butt;stroke-linejoin:miter;stroke-miterlimit:10;stroke-dasharray:none;stroke-opacity:1"
       id="path9928" />
    <path
       d="m 99,275.5 h 54 v 36 H 99 Z"
       style="fill:#add8e6;fill-opacity:1;fill-rule:nonzero;stroke:#add8e6;stroke-width:1;stroke-linecap:butt;stroke-linejoin:miter;stroke-miterlimit:10;stroke-dasharray:none;stroke-opacity:1"
       id="path9930" />
    <text
       xml:space="preserve"
       style="font-variant:normal;font-weight:normal;font-size:14.0002px;font-family:'Liberation Serif';-inkscape-font-specification:LiberationSerif;writing-mode:lr-tb;fill:#000000;fill-opacity:1;fill-rule:nonzero;stroke:none"
       id="text9934"
       x="119"
       y="297.19922"><tspan
         x="119 125.74812"
         y="297.19922"
         sodipodi:role="line"
         id="tspan9932">n4</tspan></text>
    <text
       xml:space="preserve"
       style="font-style:normal;font-variant:normal;font-weight:normal;font-stretch:normal;font-size:14.0002px;font-family:Symbola;-inkscape-font-specification:'Symbola, Normal';font-variant-ligatures:normal;font-variant-caps:normal;font-variant-numeric:normal;font-variant-east-asian:normal;writing-mode:lr-tb;fill:#000000;fill-opacity:1;fill-rule:nonzero;stroke:none"
       id="text9940"
       x="95.5672"
       y="370.07184"><tspan
         sodipodi:role="line"
         id="tspan20247"
         x="95.5672"
         y="370.07184">5-triangulation</tspan></text>
    <path
       d="m 135,421.5 h 54 v 36 h -54 z"
       style="fill:#add8e6;fill-opacity:1;fill-rule:nonzero;stroke:#add8e6;stroke-width:1;stroke-linecap:butt;stroke-linejoin:miter;stroke-miterlimit:10;stroke-dasharray:none;stroke-opacity:1"
       id="path9942" />
    <text
       xml:space="preserve"
       style="font-variant:normal;font-weight:normal;font-size:14.0002px;font-family:'Liberation Serif';-inkscape-font-specification:LiberationSerif;writing-mode:lr-tb;fill:#000000;fill-opacity:1;fill-rule:nonzero;stroke:none"
       id="text9946"
       x="155"
       y="443.19922"><tspan
         x="155 161.74812"
         y="443.19922"
         sodipodi:role="line"
         id="tspan9944">n0</tspan></text>
    <text
       xml:space="preserve"
       style="font-style:normal;font-variant:normal;font-weight:normal;font-stretch:normal;font-size:20px;font-family:'Liberation Serif';-inkscape-font-specification:'Liberation Serif, Normal';font-variant-ligatures:normal;font-variant-caps:normal;font-variant-numeric:normal;font-variant-east-asian:normal;fill:#000000;fill-opacity:1;stroke:none;stroke-width:3;stroke-linecap:round;stroke-linejoin:miter;stroke-dasharray:none;stroke-opacity:0.8;stop-color:#000000"
       x="349.92383"
       y="80.473564"
       id="text7969"><tspan
         sodipodi:role="line"
         id="tspan7967"
         style="font-style:normal;font-variant:normal;font-weight:normal;font-stretch:normal;font-size:20px;font-family:'Liberation Serif';-inkscape-font-specification:'Liberation Serif, Normal';font-variant-ligatures:normal;font-variant-caps:normal;font-variant-numeric:normal;font-variant-east-asian:normal;stroke-width:3"
         x="349.92383"
         y="80.473564">Event level 1</tspan></text>
    <text
       xml:space="preserve"
       style="font-style:normal;font-variant:normal;font-weight:normal;font-stretch:normal;font-size:20px;font-family:'Liberation Serif';-inkscape-font-specification:'Liberation Serif, Normal';font-variant-ligatures:normal;font-variant-caps:normal;font-variant-numeric:normal;font-variant-east-asian:normal;fill:#000000;fill-opacity:1;stroke:none;stroke-width:3;stroke-linecap:round;stroke-linejoin:miter;stroke-dasharray:none;stroke-opacity:0.8;stop-color:#000000"
       x="349.67969"
       y="154.06146"
       id="text7973"><tspan
         sodipodi:role="line"
         id="tspan7971"
         style="font-style:normal;font-variant:normal;font-weight:normal;font-stretch:normal;font-size:20px;font-family:'Liberation Serif';-inkscape-font-specification:'Liberation Serif, Normal';font-variant-ligatures:normal;font-variant-caps:normal;font-variant-numeric:normal;font-variant-east-asian:normal;stroke-width:3"
         x="349.67969"
         y="154.06146">Orbit level 1</tspan></text>
    <text
       xml:space="preserve"
       style="font-style:normal;font-variant:normal;font-weight:normal;font-stretch:normal;font-size:20px;font-family:'Liberation Serif';-inkscape-font-specification:'Liberation Serif, Normal';font-variant-ligatures:normal;font-variant-caps:normal;font-variant-numeric:normal;font-variant-east-asian:normal;fill:#000000;fill-opacity:1;stroke:none;stroke-width:3;stroke-linecap:round;stroke-linejoin:miter;stroke-dasharray:none;stroke-opacity:0.8;stop-color:#000000"
       x="349.92383"
       y="226.47357"
       id="text7969-1"><tspan
         sodipodi:role="line"
         id="tspan1892"
         x="349.92383"
         y="226.47357">Event level 2</tspan></text>
    <text
       xml:space="preserve"
       style="font-style:normal;font-variant:normal;font-weight:normal;font-stretch:normal;font-size:20px;font-family:'Liberation Serif';-inkscape-font-specification:'Liberation Serif, Normal';font-variant-ligatures:normal;font-variant-caps:normal;font-variant-numeric:normal;font-variant-east-asian:normal;fill:#000000;fill-opacity:1;stroke:none;stroke-width:3;stroke-linecap:round;stroke-linejoin:miter;stroke-dasharray:none;stroke-opacity:0.8;stop-color:#000000"
       x="349.67969"
       y="300.06146"
       id="text7973-9"><tspan
         sodipodi:role="line"
         id="tspan1894"
         x="349.67969"
         y="300.06146">Orbit level 2</tspan></text>
    <text
       xml:space="preserve"
       style="font-style:normal;font-variant:normal;font-weight:normal;font-stretch:normal;font-size:20px;font-family:'Liberation Serif';-inkscape-font-specification:'Liberation Serif, Normal';font-variant-ligatures:normal;font-variant-caps:normal;font-variant-numeric:normal;font-variant-east-asian:normal;fill:#000000;fill-opacity:1;stroke:none;stroke-width:3;stroke-linecap:round;stroke-linejoin:miter;stroke-dasharray:none;stroke-opacity:0.8;stop-color:#000000"
       x="349.92383"
       y="372.47357"
       id="text7969-0"><tspan
         sodipodi:role="line"
         id="tspan1896"
         x="349.92383"
         y="372.47357">Event level 3</tspan></text>
    <text
       xml:space="preserve"
       style="font-style:normal;font-variant:normal;font-weight:normal;font-stretch:normal;font-size:20px;font-family:'Liberation Serif';-inkscape-font-specification:'Liberation Serif, Normal';font-variant-ligatures:normal;font-variant-caps:normal;font-variant-numeric:normal;font-variant-east-asian:normal;fill:#000000;fill-opacity:1;stroke:none;stroke-width:3;stroke-linecap:round;stroke-linejoin:miter;stroke-dasharray:none;stroke-opacity:0.8;stop-color:#000000"
       x="349.67969"
       y="446.46136"
       id="text7973-8"><tspan
         sodipodi:role="line"
         id="tspan1898"
         x="349.67969"
         y="446.46136">Orbit level 3</tspan></text>
  </g>
</svg>
